<svg xmlns="http://www.w3.org/2000/svg" xmlns:xlink="http://www.w3.org/1999/xlink" width="30" height="152" viewBox="0 0 30 152"><defs><g id="c"><path fill="#281e0d" d="M20.3 1.6 21.8 0v16l-1.5-1.1z"/><path fill="#684e22" d="m21.8 0-1.5 1.6L.7 11.5v13.3L0 26.9V11z"/><path fill="#382912" d="M20.3 1.6v13.3L.7 24.8V11.5z"/><path fill="#181207" d="m20.3 14.9 1.5 1.1L0 27l.7-2.2z"/></g><g id="b"><path fill="#281e0d" d="m24 5 1.6-1.4v10.9L24 13.4z"/><path fill="#684e22" d="M25.6 3.6 24 5 4.6 15v8.3l-.7 2.2v-11l21.8-11"/><path fill="#382912" d="M24 5v8.4L4.6 23.3V15z"/><path fill="#181207" d="m24 13.4 1.6 1.1-21.8 11 .7-2.2z"/><path fill="#483717" d="M25.6 14.5v-11l-21.8 11v10.9zM0 149.5V14l1.8-1-.2.1L27.4 0v15L1.6 28.1v9.8l25.6-13.1V27L1.6 40.1v21.8l25.6-13.1V51L1.6 64.1v9.8l25.6-13.1V63L1.6 76.1v9.8l25.6-13.1V75L1.6 88.1v9.8l25.6-13.1V87L1.6 100.1v9.8l25.6-13.1V99L1.6 112.1v14.2l25.6-12.7V136z"/><path fill="#000" d="m15.2 22.4-2.1 1v6.1l2.1-1.1zm2.7-1.4-2.1 1v6.1l2-1zm2.7-1.4-2.1 1.1v6l2.1-1zm6.8 94L1.6 126.3V112l25.7-13zm0-16.8L1.6 109.9v-9.8L27.3 87zm0-12L1.6 97.9v-9.8L27.3 75zm0-12L1.6 85.9v-9.8L27.3 63zm0-12L1.6 73.9v-9.8L27.3 51zm0-12L1.6 61.9V40.1L27.3 27zm0-24L1.6 37.9v-9.8L27.3 15zm-17.4.3-2.1 1v6.1l2.1-1zm.5-.3v6l2.1-1v-6.1zm-5.9 3.1-2.1 1V35l2.1-1.1zm.5 5.8 2.2-1.1v-6l-2.2 1zm9.8.4-2.1 1.2v19l2.1-1.1zm5.3-2.8-2.1 1.1v19.1l2.1-1.1zm-2.6 1.4-2.2 1.1v19.1l2.2-1.1zm-5.4 2.9-2 1v19.2l2-1.2zM23.8 18v6l2.1-1v-6.1zm-.5.4-2.1 1v6.1l2-1zm2.4 10-2.1 1v19.2l2.1-1.1zm-2.6 1.4L21 30.9v19l2-1zm.7 31.4 1.3-.7v-6.8l-1.3.7zm-.3-6.7-1.3.7V62l1.3-.7zM4.3 39.6l-2.1 1.1v19l2.1-1zm2.6-1.4-2 1v19.2l2-1.1zM7.5 57l2.1-1.1V36.8l-2.1 1zM20 56l-1.2.7v6.8l1.2-.6zM5.2 75.4l-1.3.6v6.8l1.2-.6zm-1.5.8-1.2.7v6.8l1.2-.7zm6 9-2 1.1v6.8l2-1.1zM20 80l-2 1v6.8l2-1zm-2.5 1.3-2.1 1v6.8l2-1zm-2.6 1.3-2 1v6.8l2-1zm5.8-2.9v6.8l2-1v-6.8zm-8.3 4.2-2 1v6.9l2-1.1zM23 85.2l2-1.1v-6.7l-2 1zm-2.6-22.5 1.2-.7v-6.8l-1.2.7zm5.1 38.3-2.1 1v10.2l2.1-1.1zm-21-13.1-2 1v6.8l2-1zm.5-.3v6.8l2.1-1.1v-6.7zm4.5 21.5-2.1 1.1v10.2l2.1-1.1zm8-4-2.2 1v10.2l2.2-1.1zm2.6-1.4-2.1 1V115l2.1-1zm-5.3 2.7-2.1 1v10.3l2.1-1.1zm-2.7 1.4-2 1V119l2-1.1zm-10 5.1v10.2l2.1-1.1v-10.1zm2.6-1.3v10.1l2.1-1v-10.2z"/><path fill="#c6851a" d="M15.2 22.4v6l-2.1 1.1v-6.1zm2.7-1.4v6l-2.1 1.1v-6zM10 25v6.2l-2.1 1v-6zm.5-.3 2.1-1.1v6l-2 1.2zm-5.9 3v6L2.5 35v-6.1zm.5 5.8v-6.1l2.2-1v6zm9.8.4V53l-2.1 1.1v-19zm5.3-2.8v19l-2.1 1.2V32.2zm-2.6 1.4v19.1l-2.2 1.1V33.6zm5.6-14.2v6L21 25.5v-6zm2.4 10v19l-2.1 1.2V29.4zM23 29.7v19L20.8 50V30.8zM7.6 57V37.9l2.1-1.1v19zm2.2 28.3V92l-2 1v-6.7zm2.5-1.4v6.8l-2 1V85z"/><path fill="#e8aa46" d="M20.5 19.6v6.1l-2.1 1v-6zm-8.2 15.8v19L10 55.6V36.5zM23.7 18l2.1-1.1v6l-2.1 1.2zm-.2 43v-6.7l1.3-.7v6.8zm-.3-6.7v6.8l-1.3.7V55zM7 38.2v19l-2.2 1.2V39.3zM20 56v6.8l-1.2.6v-6.8zm.4 6.6v-6.8l1.2-.7V62z"/><path fill="#caa76f" d="M4.3 39.6v19l-2.1 1.2V40.7z"/><path fill="#c59e5f" d="M5.1 75.4v6.8l-1.2.6V76zm-1.5.8V83l-1.2.7v-6.8zm14 28.9v10.1l-2.2 1v-10.1z"/><path fill="#a77552" d="M19.9 80v6.8l-2 1V81zm-2.5 1.3v6.8l-2.1 1v-6.7zm-2.6 1.3v6.8l-2 1v-6.7zm5.8-2.9 2-1v6.8l-2 1zm2.5 5.5v-6.8l2-1V84zM4.6 88v6.8l-2.1 1V89zm.5-.3 2.1-1v6.7l-2 1zm9.8 18.8v10.2l-2.1 1v-10.1zm-2.7 1.4V118l-2 1.1V109z"/><path fill="#b78b6c" d="M25.5 101v10l-2.1 1.1V102zm-15.9 8v10.2l-2.1 1v-10.1zm10.6-5.4v10.2l-2.1 1v-10.1zm-18 9.2 2.1-1V122l-2.1 1zm2.6-1.3 2.1-1.1v10.2l-2 1z"/><path fill="none" stroke="#000" stroke-linecap="round" stroke-linejoin="round" stroke-width="__RESOLUTION__" d="m.1 149.5 27.2-13.4" vector-effect="non-scaling-stroke"/></g><clipPath id="a"><path d="M1 1h28v150H1z"/></clipPath></defs><g clip-path="url(#a)"><g transform="translate(1.6 137.05)"><use xlink:href="#b" width="27.3" height="149.5" transform="translate(-.6 -136.05)"/><use xlink:href="#c" width="21.8" height="26.9" transform="translate(3.15 -19.05)"/></g></g></svg>