<svg xmlns="http://www.w3.org/2000/svg" xmlns:xlink="http://www.w3.org/1999/xlink" width="87" height="63" viewBox="0 0 87 63"><defs><radialGradient id="a" cx="0" cy="0" r="819.2" gradientTransform="matrix(.06 0 0 .06 34.5 -65.2)" gradientUnits="userSpaceOnUse" spreadMethod="pad"><stop offset="0" stop-color="#f1e6b8"/><stop offset=".8" stop-color="#c4b679"/></radialGradient><radialGradient id="h" cx="0" cy="0" r="819.2" gradientTransform="matrix(0 0 0 0 8.3 -12.45)" gradientUnits="userSpaceOnUse" spreadMethod="pad"><stop offset="0" stop-color="#fecc0b"/><stop offset=".8" stop-color="#face6b"/></radialGradient><radialGradient id="g" cx="0" cy="0" r="819.2" gradientTransform="matrix(.01 0 0 .01 4 -10.4)" gradientUnits="userSpaceOnUse" spreadMethod="pad"><stop offset="0" stop-color="#fecc0b"/><stop offset=".8" stop-color="#be8605"/></radialGradient><radialGradient id="f" cx="0" cy="0" r="819.2" gradientTransform="matrix(0 0 0 0 6.8 -14.25)" gradientUnits="userSpaceOnUse" spreadMethod="pad"><stop offset="0" stop-color="#fecc0b"/><stop offset=".8" stop-color="#be8605"/></radialGradient><radialGradient id="d" cx="0" cy="0" r="819.2" gradientTransform="matrix(.01 0 0 .01 4.4 -11.6)" gradientUnits="userSpaceOnUse" spreadMethod="pad"><stop offset="0" stop-color="#fecc0b"/><stop offset=".8" stop-color="#be8605"/></radialGradient><radialGradient id="c" cx="0" cy="0" r="819.2" gradientTransform="matrix(.01 0 0 .01 6.2 -11.35)" gradientUnits="userSpaceOnUse" spreadMethod="pad"><stop offset="0" stop-color="#fecc0b"/><stop offset=".8" stop-color="#be8605"/></radialGradient><radialGradient id="b" cx="0" cy="0" r="819.2" gradientTransform="matrix(0 0 0 0 1.8 -16.45)" gradientUnits="userSpaceOnUse" spreadMethod="pad"><stop offset=".1" stop-color="#face6b"/><stop offset=".7" stop-color="#fecc0b"/></radialGradient><radialGradient id="i" cx="0" cy="0" r="819.2" gradientTransform="matrix(-.01 0 0 0 -45.15 -40.65)" gradientUnits="userSpaceOnUse" spreadMethod="pad"><stop offset=".1" stop-color="#ddbb6f"/><stop offset=".4" stop-color="#c7972b"/><stop offset=".8" stop-color="#b4750c"/></radialGradient><radialGradient id="j" cx="0" cy="0" r="819.2" gradientTransform="matrix(.05 0 0 .05 -21.1 -22.35)" gradientUnits="userSpaceOnUse" spreadMethod="pad"><stop offset=".1" stop-color="#bd4639"/><stop offset="1" stop-color="#682620"/></radialGradient><g id="m"><path fill="#c0b072" d="m46 24.3 2.8-1.2 1-1.3-.9-1.1L8.7.8 6 .4 9.5.1q22.4 10.3 42.9 21.3l2.1 2.3.1 5.3-1 3-.9.4-.3.1-4.6 2.1-.4-.4L53 32l.9-3v-4.8l-.2-.2-1.3-1.1-5.6 2.4h-.1zl.7.8-1.3 3.2h-1.1z"/><path fill="url(#a)" d="m34-69.1 2.5.3 40.3 20 .9 1.1-1 1.3-2.9 1.2-1.7 3.9v.8l-1.9 1q-19.3-6.1-40.5-18.9l-1.6-2.8v-2.2l1.6-3.9z" transform="translate(-27.9 69.55)"/><path fill="#aa974d" d="m46.6 25.2 5.7-2.4 1.3 1.1q-3.6-.6-6.6 4.4-2.1 3.5 0 5.7l-2-2h.1v-3.7h.2z"/><path fill="#b6a35a" d="m53.6 23.9.2.2v4.8l-1 3-5.4 2.4.3.4-.3.1-3.2-1.3Q22.2 23.6 1 11.9l-.8-1.5v-2L1.8 11Q23 24 42.3 30l1.9-1v-.7h.9V32h-.9.8l2 2q-2.1-2.2 0-5.7 3-5 6.6-4.4M47 34l.1.1zm.1.1.3.2z"/><path fill="none" stroke="#000" stroke-linecap="round" stroke-linejoin="round" stroke-opacity=".2" stroke-width="__RESOLUTION__" d="m46 24.3.6.8v.1l5.7-2.4 1.3 1.1.2.2M45 28.3h-.9M45 32h.1v-3.7h.2l1.3-3.2m-2.4 7h.8l2 1.9.1.1m.3.2-.2-.1" vector-effect="non-scaling-stroke"/><path fill="none" stroke="#000" stroke-linecap="round" stroke-linejoin="round" stroke-opacity=".3" stroke-width="__RESOLUTION__" d="m47.7 34.7 4.6-2m.4-.2.7-.4m-1.1-10.6Q31.8 10.5 9.3.2M2 2.2l-1.7 4v4.2m44 23.1Q22.2 23.6 1 11.9m46.7 22.8-.3.1m4.9-2.1.4-.2m.7-.4 1.1-3-.1-5.3-2.1-2.3M9.3.2 6.2.3v.1L1.9 2.3M1 11.9l-.8-1.5m47.2 24.4-3.2-1.3" vector-effect="non-scaling-stroke"/><path fill="none" stroke="#6f0" stroke-linecap="round" stroke-linejoin="round" stroke-width="__RESOLUTION__" d="M47.2 34.2 47 34" vector-effect="non-scaling-stroke"/><path fill="none" stroke="#000" stroke-linecap="round" stroke-linejoin="round" stroke-opacity=".2" stroke-width="__RESOLUTION__" d="m14 18.8 1 .6M14 6.5l-.8.6m2.4-1.6-.8.4m17.8 11.9-.6.8M21.4 5.8l-.9-.3m-.9-.4-1-.1m-1 0-1 .2m24.7 10.5-.9-.4m-.9-.3-1-.1m-1 0-1 .2m-1 .3-.8.4m-.9.6-.7.6m-21.6-1.4.5 1m-1-2.8.3 1m-.3-3v1m.6-3-.4 1m22.7 17.8 1 .7m-2.4-2 .7.7m-1.8-2.5.5 1m-1-2.8.3 1m-.3-3v1m-18.3-5.3.7.8m-.7-10.3-.5.8m19.4 11-.4 1" vector-effect="non-scaling-stroke"/></g><g id="u"><path fill="#000" fill-opacity=".3" d="M.8 3.7q0-1.1.6-1.8Q2 1 3.1 1q.9 0 1.5.8.7.7.8 1.8 0 1.1-.8 1.9l-.2.3v4L1.7 7.2l.1-1.3-.2-.2-.2-.1Q.8 4.8.8 3.7"/><path fill="url(#b)" d="M2.4-18.2q1-.1 1.7.6t.6 1.7-.7 1.6-1.6.7-1.6-.7-.7-1.6.7-1.7q.6-.7 1.6-.6" transform="translate(.05 18.35)"/><path fill="none" stroke="#000" stroke-linecap="round" stroke-linejoin="round" stroke-opacity=".2" stroke-width="__RESOLUTION__" d="M2.4.1q1 0 1.7.7t.7 1.6T4 4.1t-1.6.7T.7 4 .1 2.4q0-1 .7-1.6T2.4 0" vector-effect="non-scaling-stroke"/><path fill="url(#c)" d="m4-13.8-.1-.3-.4-1.2.8.4h.2l.8 1 1 1.8.1.1.3.8-.1.5-.6.4z" transform="translate(.05 18.35)"/><path fill="url(#d)" d="m3.6-15.2.3 1 .1.3q.5 1.5 1.1 2.5l-.9.8Q3-13.6 3-15.3z" transform="translate(.05 18.35)"/><path fill="#926421" d="m4 4.5 2 3.6.6-.4.3.6L6 9l-.6-.6-.6.7-.4-.5v-.4L4.3 8v-.2L5 7q-.6-1-1-2.5m2.4 1.9-1-1.8-.1-.1-.7-.9 1.4.8.2.2 2.4 2.2h.1l-.3 1.1h-.5l.7 2.4.9-.1v1.2L8.3 11l-.5-3h-.2l-.1-1.2-.3-.4zm.2 6.1-.5-.6-.7.1-.3-.2-.2-.5h-.1V11l-.2-.1.3-1.2 1.5 1.9.5-.7.3.3v.2z"/><path fill="#c8952a" d="M6.7 7.7v-.5zM5.3 3.2l.3.1.2.2zm3.5 3.6.5 1.4.9 1.9h-.6l-.9.2L8 7.9l.4-.1zM4.4 8.6v-.4zm1-.2L6 9l1.3 1.4-.3.5-.5.7L5 9.7v-.1l-.3-.4.1-.1z"/><path fill="#a87324" d="m6.7 7.2-.2-.8.7-.1.3.4v1.2h.3l.5 3 1.3.4v.3l-.7.4-.7-.4v.4l-1-.6.1-.2-.3-.3.3-.5L6 9l.9-.7-.3-.6.2-.1zM4.3 9.8l.1-1v-.2l.4.5h-.1l.3.5v.1l-.2 1.2z"/><path fill="url(#f)" d="m4.5-14.8-.2-.1-.7-.3-.6-.2 1-.2 1 .3h.3l.5.3 2.4 1-2 .1-.2-.2h-.1z" transform="translate(.05 18.35)"/><path fill="url(#g)" d="M3-15.4q0 1.7 1.2 4.9v.1l.1.3v.5l-.1 1-1-2.5v-.1l-.6-1.9-.1-1.5z" transform="translate(.05 18.35)"/><path fill="url(#h)" d="m8.3-14 1.6 2-1.3.3-2.4-2.2h2" transform="translate(.05 18.35)"/><path fill="#77511a" d="M8.2 12v.5l.2.6H7.2l-.5-.7.5-1zm-3.4-1H3.7q.1-1.9-.4-3.7l1 2.5z"/><path fill="none" stroke="#000" stroke-linecap="round" stroke-linejoin="round" stroke-opacity=".2" stroke-width="__RESOLUTION__" d="m3.6 3.1.3 1.1.1.3 2 3.6.6-.4.1-.5-.2-.8m-2-2.9-.2-.1-.7-.3-.6-.2q0 1.8 1.3 4.9L5 7q-.6-1-1-2.5m-.8 2.8-.6-1.9-.2-1.5.5-.9 1-.1 1 .3h.3l.3.1.2.2 2.5 1h0L10 6.3l-1.3.4h0l.5 1.4.9 1.9h-.6v1.6L9 12l-.7-.4v.9l.2.6H7.2l-.5-.7-.5-.6-.7.1-.3-.2-.2-.5h-.1l-.2-.2h-1q.1-1.9-.4-3.7l1 2.5.1-1v-.6L4.3 8v-.2m1.5-4.4L5.3 3m.2 5.4L6 9l1.3 1.4-.3.5-.5.7L5 9.7v-.1m1.6-2h.2l-.1-.4m-2 3.7.1.2M9.5 10h-.9L8 8m-3.6.3v.4m-.2 1.1.5 1.1" vector-effect="non-scaling-stroke"/><path fill="none" stroke="#fcdc80" stroke-linecap="round" stroke-linejoin="round" stroke-width="__RESOLUTION__" d="m6 4.3.2.2" vector-effect="non-scaling-stroke"/><path fill="none" stroke="#fde7b5" stroke-linecap="round" stroke-linejoin="round" stroke-opacity=".8" stroke-width="__RESOLUTION__" d="m4.6 3.5 1.4.8" vector-effect="non-scaling-stroke"/><path fill="none" stroke="#fde7b5" stroke-linecap="round" stroke-linejoin="round" stroke-width="__RESOLUTION__" d="m6.2 4.5 2.4 2.2" vector-effect="non-scaling-stroke"/><path fill="#fff" d="m1.7 1 .2.4-.2.4q-.1.2-.4.2l-.4-.2-.2-.4L1 1l.4-.2z"/></g><g id="s"><path fill="#000" fill-opacity=".3" d="M5.4 1.1Q6 .7 7.1.6l2 .4q.9.4 1 .9.2.6-.5 1V3l-.3.1.3.6L7 5.3l-.6-2L6 3q-.9-.3-1-.9t.4-1"/><path fill="url(#i)" d="m-45.6-39.1-2-.2q-.9-.4-1-.9t.5-.8q.6-.5 1.8-.5l1.9.3q.9.4 1 .9.2.4-.5.8t-1.7.4" transform="translate(54 41.6)"/><path fill="none" stroke="#000" stroke-linecap="round" stroke-linejoin="round" stroke-opacity=".2" stroke-width="__RESOLUTION__" d="M8.4 2.5q1.1 0 1.7-.4.7-.4.5-.8t-1-.9l-2-.3q-1 0-1.7.5-.7.3-.5.8t1 .9z" vector-effect="non-scaling-stroke"/><path fill="#dda95e" d="m4.9 1.8.3-.1 2.3-.1-.7.1-.8.2h-.1l-1.5.5h-.1l-.2.1H1.8L4.4 2z"/><path fill="#c8952a" d="m4.9 1.8-.5.2.2-.1zm-3.2.8 2.4-.1-2.3 1.3L0 3.6zM6 2l.1-.1.8-.2.7-.1.6.4v.9l-.2.9h-.1V4l-.7 1.2-.3-.6-.1-.1.1.1v-.1l-.1-.1.1-.2-1.1-.5.8-1.2L5 4.4l-.8-.3L4 4l.1-.5 1-1v-.1zM1.4 5.6l-.8-.1.8-1 .2-.7.6.6.4-.1-.2 1.3zm5.4-3.9-.2.6v.2-.2zm0 2.5q.9-1.7.7-2.6.2.9-.7 2.6m-.4.6-.2.3h-.1l-1.3 1-.7-.2-.4-.3L5 4.8l.6-.3z"/><path fill="#926421" d="m4.1 2.5.2-.1L6 2l-.8.4v.1l-1 1h-.8l-.3.2.1.7-.2-.1L2.8 6H1.4v-.5h1l.2-1.3h-.4l-.6-.5h.1zm2.5 3.4-.2.2-.4.3-.8-.1-.4.3-.8-.5h-.1l.4-.2.6.2 1.3-1zM4 4.1l.8.3 1.6-2-.8 1.4 1.1.4-.1.2.1.2-.4.2-.8-.3-.6.3-1-.3z"/><path fill="#77511a" d="M7.8 4q-.3.9.2 1.8H6.6h.2l.3-.6zm-3 2.6-.4.5H3v-.6L4 6z"/><path fill="#a87324" d="M3 6.5v-.2l-.7.2-.8-.2-.1-.2L2.8 6V4.3h.3v-.6l.1-.2h1L4 4l-.1.4 1 .3-1.2.8.5.3-.4.2H4zm3.8-1.9.3.6-.3.6-.6-.7.3-.2-.1-.1z"/><path fill="none" stroke="#000" stroke-linecap="round" stroke-linejoin="round" stroke-opacity=".2" stroke-width="__RESOLUTION__" d="m7.5 1.6-2.3.1h-.3l-.5.3-2.7.6h0l-1.6 1 1.7.1-.2.1-.2.7-.8 1h.8v.8l.9.2.7-.2v.8h1.4l.4-.5.4-.3H6l.4-.2.2-.2h.2L8 5.7Q7.5 5 7.8 4h0v-.2l.3-1V2zl-.7.1-.8.2h-.1l-1.5.5h-.1l-.2.1-2.3 1.3m3.1-2h-.3l-.2.2M4 4l.8.3 1.6-2 .1-.1.2-.6M4.1 4.1l.1-.5m2.7 1 .1-.2h0l-1.1-.5.8-1.2m1-.9q.2.9-.7 2.6M1.4 5.6h1l.2-1.3m4.2.3.3.6.7-1.2m-2.2.5-.6.3-1.2.8.5.3.6.2 1.3-1h0m.5.7.4-.6" vector-effect="non-scaling-stroke"/></g><g id="q"><path fill="#000" fill-opacity=".3" d="m38 26 44.8 21.8-25.2 12H51Q36.4 47.9 4.3 34.5L24 26.8z"/><path fill="#7c703f" d="m43.6 11.2 1.2-.1 9.5 4.8 5.1 2.6 2.3 2.1 2.8.5L76 26.9l-3.4 6.4 6.9 2.8.1 8.8v2.5l.1.6-.3.2-.9-1-.8-6.6.1-1.4-2.7-3.4-4.7.3-1.2 1-3.3 3 .2 3.5v.1l-3.7 1.9-2.5-3.4-1.5 1.2v2l-2 1.7-1.9 11-.1-.1v2.1h-2.2l-.8-11.5 1 .4h.1l.4.2-.2-1.6-2.4-.6-2.6-4.7-9.3-6-5.2-1-4.8-4.2-1-.5q1 4.2 5.7 7.6l9.3 6.2q2.5 1.5 5.4 2.8l.3.1-.7 10.5-.3-.2v-3.4L33 47l-4.4-2.2-4.6-2.3-3.6-1.9-6.6-3.4h-.2v-.8l-.2-.4v.6l-.6.3-3-1.6-2-1v2.2q-.8-5.1-5.2-8.6v-3.1l5-6L5.8 14v-.1l8.1-4.1 1 .2 2.6.6-2.4-1.4L23.4 5h9.3l10 5-.9 1.2zM18.2 11l-.8-.5zm51 20.5 2.3-1h.1l.1-3.4-5.8-3.9-4.6-.4-4.1-3.5L43.1 12l-3.5.7-1.1.2.8-.6 1.6-1.2-5.2-2.7h-3.3l-1-1.7-7-.2-1.8.7-5.7 2.3 6.5 3.5-6.8-1.5-1.9-.4h-.1L10.4 13l-1.5.6-.7 1.7 2.2 3.7 9 3.2.6 1.1 3 .8 1.2.3.1 1.5 11.6 4.4.6 1.4 9.5 5.1 4.2.3 1.8 2 5.2-.8.1-2.5 5.4-.1 2-.1v-.1l.2-1.9.5-.2zM62 44.4l1.4-6.1-.7-1.5-4.8-.5zm-7.8 13h-.1zm-40-30.2 1.5-2V25l.8-3.3-3.3 2.1.6 3.9zq1.8 6.6 7 13.2-5.2-6.6-7-13.2m25.1 7.4-3.7-2.4-2.5 2.5 5.4.7z"/><path fill="#776a3c" d="M43.6 11.2h-1.8l1-1.1zM15 9.2l2.4 1.5-2.7-.6zm51 34.5v-.1l-.2-3.4 3.3-3 1.7 4zm13.5 4.4.1-.1M13.5 37.3l-.7-.4.6-.2.1-.1z"/><path fill="#a59452" d="m39.6 12.7 3.5-.7 14.2 7.4 4.1 3.5 4.6.4 5.8 3.9-.1 3.4h-.1l-2.2 1q-1.9-1.8-8.3-5.2l-7.7-4-7.4-3.8-2.5-2.1zm25.9 20.6-.6.2-.3 1.9v.1h-1.9q-1.9-1.7-7.3-4l-2.1-.8-9.1-3.2-9.9-2-9.6-1.6H23l-3-.7-.7-1.1-8.9-3.2-2.2-3.7.7-1.7 1.5-.6q16.8 6.1 33.9 11 17 4.8 21.2 9.4M16.6 11.5l6.8 1.5L17 9.5l5.7-2.3 16 12.2.2.2q-6.4-1-18.3-6.3zm17.9-3.1h1.1l5.3 2.7-1.6 1.2-1.5-1.3z"/><path fill="#af9f61" d="m39.6 12.7 4 3.8 2.4 2.1 7.4 3.8 7.8 4q6.3 3.4 8.1 5.2l-3.8 1.6q-4.2-4.5-21.2-9.4Q27.2 19 10.4 13l4.2-1.7.1-.1 1.9.4 3.9 1.8q11.9 5.4 18.3 6.3l-.1-.2L22.5 7.2l1.8-.7 7 .3 1 1.6h2.1l3.3 2.6 1.5 1.3-.8.6zm23.1 22.9-5.4.1-.1 2.5-5.2.8-1.8-2-4.2-.2-9.5-5.2-.6-1.4-11.6-4.4v-1.5L23 24l1.7-.1 9.6 1.6 9.9 2 9.1 3.2 2.1.8q5.4 2.3 7.3 4"/><path fill="#837541" d="M62.1 44.4 58 36.3l4.8.5.7 1.5zM14.3 27.2l-.4.6-.6-3.9 3.3-2.1-.8 3.3zm25.1 7.4-.7.8-5.5-.6 2.5-2.6z"/><path fill="#564e2c" d="m54.4 58 1.9-11 2-1.5v-2.1l1.5-1.2 2.5 3.4-2.7 1.3v6l5.1-2.5-1 2-.5.7-3.6 1.8v3.8L56.7 60h-2.4v-.5z"/><path fill="#99894d" d="m62.3 45.6-.2.8z"/><path fill="#605631" d="m62.4 45.6 3.6-1.9q0 3.6-1.3 6.6L59.6 53v-6l2.7-1.3-.2.8zm9.4 1.2q0-2.6-1-5.5l4.5-2.1v6z"/><path fill="#484126" d="m69.1 37.2 1.2-1.1 4.8-.2 2.6 3.4-.1 1.3.8 6.6.8 1-3.9 2-.1-.1v-2.4l-3.2 1-.4.1-1 .6-1-.5.3.9h-.2l-.2-.1v.1l-6.3 3.3.5-.7 1-2 7-3.6 3.5-1.7v-6l-4.5 2.1z"/><path fill="#bbad77" d="m79.4 36.1-6.9-2.8 3.4-6.4zM2.6 24.8 5.8 14l1.8 4.9z"/><path fill="#615630" d="m66 43.7 4.8-2.5q.9 2.9.9 5.5v.1l-7 3.6q1.3-3.1 1.3-6.7"/><path fill="#3f371f" d="m72 48.7 3.2-1v2.4zM13.6 37.2q-.1.1-.2 0zm0-.7V36v.1z"/><path fill="#a39354" d="M52 60.1q-2.4-1.1-4.7-2.4l.8-10.4 3.2 1.3zM7.8 36.5l-5.3-3v-1l.1-4.6q4.4 3.5 5.2 8.6"/><path fill="#5a512e" d="M13.8 37.4q-.1.7-.2-.1zm-4-2-1.9 1.2v-2.1z"/><path fill="#504727" d="m27.4 30.6 1 .5 4.7 4.2 5.2 1 9.3 6 2.6 4.7 2.3.6.3 1.6-.4-.2h-.1l-1-.4-3.2-1.3-.4-.1q-3-1.4-5.4-2.8l-9.2-6.2q-4.9-3.4-5.8-7.6m27 26.8"/><path fill="none" stroke="#000" stroke-linecap="round" stroke-linejoin="round" stroke-opacity=".3" stroke-width="__RESOLUTION__" d="M76 26.9 64.4 21l-2.8-.5-2.3-2.1-5.1-2.5v-.1L44.7 11h-1.2l-1.8.1m1-1.1-10-5h-9.3l-8.3 4.2 2.4 1.4.8.5m61.3 36.3-.1-2.5-.1-8.8M2.5 33.5v-1l.1-4.6h0v-3.1L5.8 14v-.1h0l8.1-4.1m29.7 1.5-.9-1.1" vector-effect="non-scaling-stroke"/><path fill="none" stroke="#c2b789" stroke-linecap="round" stroke-linejoin="round" stroke-opacity=".3" stroke-width="__RESOLUTION__" d="m39.6 12.7 4 3.8m9.8 5.9 7.8 4q6.3 3.4 8.1 5.2m-13.9-.1q5.4 2.3 7.3 4M22.6 7.3l16 12.2.2.2q-6.4-1-18.3-6.3l-3.9-1.8M23 24l1.7-.1 9.6 1.6 9.9 2 9.1 3.2m12.2 2.6q-4.2-4.6-21.2-9.4-17.1-4.9-33.9-11" vector-effect="non-scaling-stroke"/><path fill="none" stroke="#000" stroke-linecap="round" stroke-linejoin="round" stroke-opacity=".1" stroke-width="__RESOLUTION__" d="M66 43.7v-.1l-.2-3.4M79.6 48v-.7M66 43.7q0 3.6-1.3 6.6l-1 2-.5.8M52.3 49l-1-.4-3.2-1.3-.4-.1q-3-1.4-5.4-2.8l-9.2-6.2q-4.9-3.4-5.8-7.6m-13-3.4q1.8 6.6 7 13.2" vector-effect="non-scaling-stroke"/><path fill="none" stroke="#000" stroke-linecap="round" stroke-linejoin="round" stroke-opacity=".3" stroke-width="__RESOLUTION__" d="m76 26.9 3.4 9.2M64.7 50.4l7-3.6 3.5-1.7v-6M59.6 52.9l5.1-2.5" vector-effect="non-scaling-stroke"/><path fill="none" stroke="#ccc199" stroke-linecap="round" stroke-linejoin="round" stroke-opacity=".2" stroke-width="__RESOLUTION__" d="M47 54.2 33 47m-4.4-2.2L24 42.6m-3.6-1.9-6.6-3.4" vector-effect="non-scaling-stroke"/><path fill="#7c703f" d="M17.8 33.6 14.9 35l3 1.6v2l-6-3.1v-2h.1l2.9-1.4-3-1.5v-2.1l6 3.1z"/><path fill="none" stroke="#000" stroke-linecap="round" stroke-linejoin="round" stroke-opacity=".2" stroke-width="__RESOLUTION__" d="M17.8 33.6 14.9 35l3 1.6v2l-6-3.1v-2h.1l2.9-1.4-3-1.5v-2.1l6 3.1z" vector-effect="non-scaling-stroke"/><path fill="#7c703f" d="m42.4 46.1-2.9 1.4 3 1.6v2l-6-3.1v-2h.1l3-1.4-3.1-1.5V41l6 3.1v2"/><path fill="none" stroke="#000" stroke-linecap="round" stroke-linejoin="round" stroke-opacity=".2" stroke-width="__RESOLUTION__" d="m42.4 46.1-2.9 1.4 3 1.6v2l-6-3.1v-2h.1l3-1.4-3.1-1.5V41l6 3.1v2z" vector-effect="non-scaling-stroke"/><path fill="#7c703f" d="m30.7 37.3-4.5 2.3 4.6 2.3v3.3l-9.5-4.9v-3.2l.3.1 4.5-2.2-4.8-2.5v-3.2l9.5 4.8z"/><path fill="#504727" d="M30.9 37.3h-.2z"/><path fill="none" stroke="#000" stroke-linecap="round" stroke-linejoin="round" stroke-opacity=".2" stroke-width="__RESOLUTION__" d="m30.7 37.3-4.5 2.3 4.6 2.3v3.3l-9.5-4.9v-3.2l.3.1 4.5-2.2-4.8-2.5v-3.2l9.5 4.8z" vector-effect="non-scaling-stroke"/><path fill="none" stroke="#000" stroke-linecap="round" stroke-linejoin="round" stroke-opacity=".2" stroke-width="__RESOLUTION__" d="m71.8 30.7-4-1.8m5.6 8.3L71 36l-2.7-4.1L65 30m-3.6 13-.2-3.1-2.3-2.2m6.2-10.1-1.4-.7m-2 1.3-2.6-1.5m2.3-6.4-3.9 2M56.2 47l-3.8.6m23.3-.1v2.4M62 46.3v5.3M41.9 11.3l-5.1 3m-4.2 4.1 2.6 1.2M18.6 11l10.6 5.1m-8.6 10.6-.5 1V33m-6.2-5.1v2.7m14 9.4v2.6m6.3-12-6 .4v7.6M52 46.3l-2 .8v4.6" vector-effect="non-scaling-stroke"/><path fill="#7c703f" d="m70.1 45.4 1.9-2.8-2 1v-1.4l3.9-1.9v1.4L72 44.4l1.9-.9v1.4L70 46.8z"/><path fill="none" stroke="#000" stroke-linecap="round" stroke-linejoin="round" stroke-opacity=".2" stroke-width="__RESOLUTION__" d="m70.1 45.4 1.9-2.8-2 1v-1.4l3.9-1.9v1.4L72 44.4l1.9-.9v1.4L70 46.8z" vector-effect="non-scaling-stroke"/><path fill="#7c703f" d="M68.7 44v1l-1.4 2 1.4-.6v1l-2.9 1.3v-1h.1l1.4-2.1-1.5.7v-1z"/><path fill="none" stroke="#000" stroke-linecap="round" stroke-linejoin="round" stroke-opacity=".2" stroke-width="__RESOLUTION__" d="M68.7 44v1l-1.4 2 1.4-.6v1l-2.9 1.3v-1h.1l1.4-2.1-1.5.7v-1z" vector-effect="non-scaling-stroke"/><path fill="#7c703f" d="m64.3 47.5-1.1 1.7 1.1-.6v.8L62 50.5v-.8l1.2-1.6-1.2.5v-.9l2.3-1.1z"/><path fill="#504727" d="m64.4 47.4-.1.1z"/><path fill="none" stroke="#000" stroke-linecap="round" stroke-linejoin="round" stroke-opacity=".2" stroke-width="__RESOLUTION__" d="m64.3 47.5-1.1 1.7 1.1-.6v.8L62 50.5v-.8h0l1.2-1.6-1.2.5v-.9l2.3-1.1z" vector-effect="non-scaling-stroke"/><path fill="#000" fill-opacity=".3" d="M76.8 41.6q-1.5-.7-3.1 1.6l-5.1 2.7q-2.1-.1-4 2.2l-2.3 1.1q-1-.4-2.1 1.1l-4 2.1h-4.8l-7.5-4q-.9-1.4-3.2-1.6l-6-3.2-.2-.5q-.2-.4-1.3-.4l-2.1-1q-.4-2-3.7-2l-4.2-2.2v-.1q-.2-1-2.6-1.3L16.5 34q-.5-1.3-3.7-2l-4.7-2.5-.1-.7q-.6-.8-3.2-1l-2.3-1.3v-4.7l76.9 14.3v4z"/><path fill="#38100c" d="M68.6 43.7q-2.1-.1-4 2.1 0-5.3.3-6.9.1-1.2 1.3-2.4.4.4 2.4 7.2M62.3 47q-1-.3-2.1 1.2v-3.6q0-1 .4-1 .2 0 1.7 3.4m14.5-7.6q-1.5-.7-3.1 1.6l-.1-1.4q0-4.7.6-5.7 1.6.7 2.5 5.5"/><path fill="#4b1b1b" d="M68.6 43.7q-2-6.9-2.3-7.2-1.2 1.2-1.5 2.4-.2 1.6-.2 7L62.3 47q-1.5-3.4-1.7-3.4-.4 0-.4 1v3.6l-4 2q.1-3.2 2.2-11.4 9.1-2.9 17.7-8.2 2 2.7 4 7l-3.3 1.8q-1-4.8-2.6-5.5-.6 1-.6 5.7V41z"/><path fill="#7c2e25" d="M56.3 50.2h-4.9L49.6 40l-.6-2.7q4.9 1.4 9.9 0l-.4 1.5q-2.1 8.2-2.1 11.4m-.7-1q.5-5.2 1.9-10.5l-7.2-.1 1.9 10.6z"/><path fill="#bd4639" d="m51.5 50.2-7.6-4-.7-3.9q-.5-2.2-.8-2.5-.6.4-1 1.7l-.7 3-6-3.1-.2-.5q-.5-2.2-.7-2.4-.4.2-.6 2l-2.1-1-.4-2.9v-.2q-.7-5.3-1.5-5.3h-.3l-1 4-.5 2.4-4.2-2.2v-.1q-.2-1.6-.6-2.6-.5-1.2-1.3-1.5l-.2.8-.5 2-4.1-2.1-.4-2.3q-.9-4.8-1.9-5.5-.9.5-1.3 4l-.1 1.8-4.7-2.5-.1-.7-.2-1.1Q7 23.3 6 22.6l-1.3 3L.2 23l3-7.1q22.6 13.3 46.3 24zM1.7 11.6v-.4L23.2.2H33l43.4 23 3.6 9.3-4-7.8L33 1.5h-8.5L6.4 10.8v3.5l-1.2.4-.5-4z"/><path fill="#8f352c" d="M44 46.3q-1-1.5-3.3-1.7l.6-3.1q.5-1.3 1.1-1.7.4.3.8 2.6zm-9.4-5.4q-.2-.3-1.3-.3.2-1.9.6-2.1.3.2.8 2.4M31 39.5q-.4-2-3.7-2l.5-2.4 1-4h.3q.8 0 1.5 5.3v.2zm-8-4.3q-.1-1-2.5-1.3l.5-2 .2-.8q.8.3 1.3 1.5.4 1 .5 2.6m-6.6-3.4q-.5-1.3-3.7-2l.1-1.8q.4-3.5 1.3-4 1 .7 2 5.5zM8 26.6q-.6-.8-3.2-1l1.3-3q1 .7 1.7 2.9zm72 6v5.1q-1.9-4.3-3.9-7L74.7 29q1-1.4 1.2-4.2z"/><path fill="#d37970" d="M.2 23v-4l1.6-7.4 2.9-1 .5 4-2 1.3z"/><path fill="#6a2620" d="m58.4 38.8.4-1.5q8-2.5 15.9-8.4l1.4 1.7q-8.6 5.3-17.7 8.2m-2.9 10.4h-3.4l-1.9-10.6 7.3.1q-1.4 5.3-2 10.5"/><path fill="url(#j)" d="M6.5-8.9q-5 1.4-9.8 0Q-24.5-21.8-46-32v-3.5l18.1-9.3h8.5l43 23.2q-.3 2.8-1.3 4.1-8 6-15.9 8.5" transform="translate(52.3 46.2)"/><path fill="#ca5a4f" d="m49 37.3.5 2.7Q25.8 29.2 3.2 15.9l2-1.2 1.2-.4q21.4 10.1 42.6 23"/><path fill="none" stroke="#000" stroke-linecap="round" stroke-linejoin="round" stroke-opacity=".3" stroke-width="__RESOLUTION__" d="M64.6 45.9q1.9-2.3 4-2.2l5-2.7q1.7-2.3 3.2-1.6l3.3-1.8v-5.1l-3.7-9.3L33 .2h-9.8l-21.4 11v.4L.1 19v4l4.6 2.5q2.6.2 3.2 1l.1.7 4.7 2.5q3.2.7 3.7 2l4.1 2.1q2.4.3 2.5 1.3h0l4.3 2.3q3.3 0 3.7 2l2.1 1q1 0 1.3.4l.1.5 6.1 3.2q2.3.2 3.2 1.6l7.5 4h4.9l3.9-2q1-1.5 2.1-1.2z" vector-effect="non-scaling-stroke"/><path fill="#a68f37" d="m6.5 10.9 4-.2v2l3.8-.2v2.2l4-.2-.1 2 4-.1-.1 2.1 4-.2v2.2l-7.9-3.9z"/><path fill="#a68f37" d="m26 20.5 4-.2v2l3.8-.2v2.2l3.9-.2v2l3.9-.1v2l4-.2-.1 2.2-7.9-3.9h.1z"/><path fill="#a68f37" d="m61 36.6-1.4.4-2.6-1.2L45.3 30l4-.2v2l3.9-.1-.1 2.1 4-.2-.1 2.1 4-.2zm2.1-13.2L74.6 29l-4 .2.1-2-3.8.2v-2.2l-4 .2zl-4 .2.1-2.1-4 .2v-2.2z"/><path fill="#a68f37" d="m39.8 11.9-4 .2V9.9l7.9 3.9h-.1l11.7 5.7-4 .2v-2l-3.8.2v-2.2l-3.9.2v-2.1l-3.9.2zM24.2 6.4l.1-2.2-4 .3V3.4l1.4-.4 2.6 1.2L35.8 10l-4 .2L32 8l-3.9.2.1-2.1z"/><path fill="none" stroke="#000" stroke-linecap="round" stroke-linejoin="round" stroke-opacity=".2" stroke-width="__RESOLUTION__" d="M56 31.6q3.4-2.4 7-3.6 3.6-1.1 5.3-2.4M56.4 36.2q-3.3.5-.3-2.4m18.8 5.8v-2.2m-9.4 7V40m-1-11.1q9.9-2 7.5.5M9.2 10q-3.2 1.4 1.8.7m7 0q4.4-.5 8.8.7M15.6 7.6q3.2-3.1 10.8-5.8m-4.6 32.3v-1.4m-7.3-2.5.5-3.6m1.2-.5q.4 5 2.7 5.9m10.9 2.7v-.5m-.5 3.5.2-1.3m13 6.4.1-1.2m-.6 3.2.3-1.3m-6-28.5Q52 23.2 51 28.4M8 14q-2.8-1.7 5.4-2.9M47.2 46q3.8 3.6 4.8 2.5" vector-effect="non-scaling-stroke"/></g><use xlink:href="#k" id="v" width="49.8" height="33"/><use xlink:href="#m" id="t" width="54.7" height="35"/><use xlink:href="#o" id="r" width="5.5" height="5.5"/><path id="k" fill="#000" fill-opacity=".5" d="M7-33.8q-20.1-9-41.8-21l-1-2.4v-3.2l1.1-3.6 2.2-1.3h.1Q-21.9-52.7 8.7-44l1.8 1.9q1.3 5.6 3.4 8.1l-3.2 1.8L8-33.5z" transform="translate(35.85 65.3)"/><path id="o" fill="#fffe15" fill-opacity=".3" d="M5.5 2.8q0 1.1-.8 1.9t-2 .8-1.9-.8-.8-2Q0 1.7.8.9t2-.8 1.9.8.8 2"/><clipPath id="p"><path d="M1 1h85v61H1z"/></clipPath></defs><g clip-path="url(#p)"><g transform="translate(55 47.2)"><use xlink:href="#q" width="82.8" height="60.1" transform="translate(-52.3 -46.2)"/><use xlink:href="#r" width="5.5" height="5.5" filter="url(#filter-object-1)" style="mix-blend-mode:overlay" transform="matrix(.5782 0 0 .5089 20 -28.75)"/><use xlink:href="#s" width="10.8" height="7.2" transform="translate(-54 -41.6)"/><use xlink:href="#t" width="54.7" height="35" transform="translate(-49.3 -44.55)"/><use xlink:href="#u" width="10.2" height="13.3" transform="translate(-.05 -18.35)"/><use xlink:href="#v" width="49.8" height="33" filter="url(#filter-object-7)" style="mix-blend-mode:overlay" transform="translate(-48.4 -42.7)"/></g></g></svg>