<svg xmlns="http://www.w3.org/2000/svg" xmlns:xlink="http://www.w3.org/1999/xlink" width="148" height="77" viewBox="0 0 148 77"><defs><clipPath id="a"><path d="M1 1h146v75H1z"/></clipPath><path id="c" fill="#ded0be" fill-opacity=".3" d="M5.8-7.1h3.3q2-.8 2-3.3l.9.8q1.3 1.2 1.4 3.3-.5 2-2.2 3.2H6.9l.4.6L7-1l1.4.8-1.6 2.7-1.2-1-2.2 3.7L2 3.5 1 5.2-.1 3.6l-1.1 1.7-1-1.7-1.2 1.7-2.3-3.6-1.2.7-1.4-2.7 1.8-.8-.8-1.3v-.1l.5-.6h-4.4q-1.7-1.2-2.2-3.2.2-2.2 1.6-3.5l.7-.6q0 2.5 2 3.3h3.3l.5-1h.9l-1.7-5.5 4 1.9 2-2.8v.2l1.9 2.6 4-1.9-1.6 5.5h1.1zm-5 7 3.3.7.7-3L1-.1zm3.5 9-3 1.5h-3.2l-2.7-1.7v-3l1.1 1.9 1.3-1.7 1 1.6 1.1-1.7L1 7.5l1-1.7 1.3 1.8 1-1.9zm-5.1-9-3.8-2.1.6 2.9z" transform="translate(13.4 14.5)"/><g id="b"><path fill="#ddd4c7" fill-opacity=".3" d="M115.9 25.4q4.6 4.3 5.7 9.4l.3 2.5-.2 2.9-1.7 4.5q-3.2 5.8-12.1 10.5l-6 2.8-1.9-2.7 4-1.9q8.6-4.5 11.3-10.2.3-1.7 1-3l.2-2.7q-.1-3.2-1.7-6-1.1-2.3-3.2-4.3zm-26.4-8.6-4.9-.9-1.4-.6-3.2.1-6.4-.3h-3.8l.2-2.9h3.9l3-.2 2.8.4 5.8.7 5 .8zm-8.5 43 1 2.6-4.8.4h-4.8l-2.9-.2-1.8-.2-2.7.1h-.2l-11-1.5q-1.8-1.2-4.2-1.1-6.1-1.7-11.4-4.4-7.4-3.6-11-8.1l5.3-.6q3 3.5 8.4 6.4l3.1 1.1q2.7.9 6.8 2.9l4 1.1 2.7.6 7.7 1 6.7.3 2-.5 3 .3zM54.4 17Q47 18.6 41 21.8q-9.2 4.8-11.5 11L25 30.4q1.1-2 2.8-3.8 3.4-3.7 9.5-6.9 6-3.1 13.1-5l2.1-.4z"/><path fill="#ddd4c7" fill-opacity=".1" d="m101.9 58-2.7 1-2.5-2.5 3.3-1.2zm9.8-30.8q-2.7-2.6-7-4.9l3.9-2q4.4 2.3 7.3 5.1zM69.8 15.1l-5.2.3-.3-2.9 5.7-.3zm20.8-1.2q5.7 1.2 10.9 3.2l-2.7 2.5q-4.3-1.7-9.2-2.8zM81 59.8l7.7-1.1 1.7 2.5-8.5 1.2zM27.2 47.4Q25 44.8 24 42l-.5-1.6 5.4.1q.6 2.8 2.6 5.3l.9 1zm2.4-14.6q-.9 2.4-.9 5l.1.3-5.4-1.2q.1-3.4 1.8-6.5zm23-18.5q3.5-.9 7.4-1.4l1 2.9-6.5 1.1z"/><path fill="#ded0be" fill-opacity=".3" d="m136.6 19.5-6.4 2.6q-4-3.9-10.2-7.2l5.6-3q6.6 3.5 11 7.5m-23.4 44.2 2.7 4L112 69l-3.7-3.5zm-14-61.1q8.5 1.7 16.1 4.7l-3.9 3.7q-6.5-2.6-13.7-4.1zM68.6 4.3l-7.7.4-.4-4.2 8.4-.5zm16.5 65.9 11.4-1.6 2.5 3.7-12.5 1.8zM5.7 51.9q-3.2-3.8-4.6-8l-.7-2.4 8 .3q1 4 3.9 7.8l1.1 1.4zM43 3q5.2-1.2 10.8-1.9l1.6 4.2-9.7 1.8zM9.2 30.3q-1.4 3.6-1.3 7.5v.5L0 36.4q.1-5 2.6-9.6z"/><path fill="#eae1d5" fill-opacity=".4" d="m130.2 22.2 6.4-2.7q2.4 2.2 4.2 4.6 2.3-.3 2.2 3.6 1.4 2.7 2 5.7l.4 3.6q.3 13-14.5 22.9-2.7.8-5.6 2.8l-5 3-4.4 1.8-2.7-3.9q3-1.3 5.9-2.8 18.3-9.6 18.3-23l.4-3.1q.3-2.2-1.2-3l-1.5-3.3q-1.8-3.3-4.9-6.2M97.8 6.7 89 5.3l-17.3-1h-3.2l.3-4.3h2.8l7.1.1q10.8.5 20.4 2.4zM85.2 70.2l1.5 3.8-13 .7-12.3-.5q-12.8-1-23.9-4.2-7-3.5-13.6-5.2L22 64q-4.3-2.3-7.8-4.6-5.2-3.6-8.4-7.5l7.7-.9q2.2 2.5 5 4.6l8.8 5.4.3.2q4.9 2.4 10.3 4.3 6 2 12.7 3.3 10.7 2 23 2zM43.1 3l2.7 4q-6.4 1.5-12.2 3.8-3.9 1.5-7.4 3.4l-.2.1q-3.7 0-7 4.3-7.3 5.3-9.8 11.7l-6.6-3.5q1.6-2.9 4-5.6 3.2-3.3 7.8-6.4 2.7-1.9 6.2-3.6l2-1.1Q28.5 5.6 33 5.9l7-2.2z"/></g></defs><g clip-path="url(#a)"><g transform="translate(74.7 36.85)"><use xlink:href="#b" width="145.4" height="74.7" transform="translate(-73.7 -35.85)"/><use xlink:href="#c" width="26.9" height="24.9" transform="matrix(1.9352 .9765 -1.995 .9698 -4.25 -23.65)"/></g></g></svg>