<svg xmlns="http://www.w3.org/2000/svg" xmlns:xlink="http://www.w3.org/1999/xlink" width="101" height="71" viewBox="0 0 101 71"><defs><g id="l"><path fill="url(#a)" d="M12-2.7 20 3l9 2.8-5.3 16.7-10.8 5.8H6.1L.8 22.2l-2.8-.6-3-3.6v-4l-6 1.8-10.2-4.2-1.4-3.7-2.9-.3-3.7-5.9V-4l9.7-7.3 1.7-6 3.8-6.5 9.7-4.6 12 2.9 5.5 7.1zM.7 20.2H.4zm1.7-10 .3.5-.1-.5z" transform="translate(29.1 28.3)"/><path fill="none" stroke="#000" stroke-linecap="round" stroke-linejoin="round" stroke-opacity=".5" stroke-width="__RESOLUTION__" d="m41.2 25.6 7.8 5.7 9.2 2.8-5.4 16.7L42 56.6h-6.7L30 50.5l-3-.5-2.8-3.8v-3.8l-6 1.8L8 40l-1.4-3.7-2.8-.3L0 30.2v-5.8l9.7-7.3 1.7-6 3.8-6.5L24.9 0l12 2.9 5.5 7.2z" vector-effect="non-scaling-stroke"/></g><g id="k"><path fill="#4ac48a" fill-opacity=".1" d="m0 8.3.3-4L7.6 0 19 .5l9.8 5.9.1 1.5-7.2 5.1-8.3 1.4-10-2.6zm19.5-1.6-6.4-2.3-7 2 6.5 2.1z"/><path fill="#fff" fill-opacity=".6" d="m19.5 6.8-6.9 1.7-6.5-2 7-2.1z"/></g><g id="j"><path fill="#65826f" fill-opacity=".2" d="M9.7 3 6.6 5.1 0 5.4v-.8L7 .1l2.7 1 .1.1z"/><path fill="#0b0d0b" fill-opacity=".4" d="M.1 5.4 6.6 5l3.1-2-3.1 25-1.8 11.5-1.6-24-2.9 9.2z"/><path fill="none" stroke="#000" stroke-linecap="round" stroke-linejoin="round" stroke-opacity=".2" stroke-width="__RESOLUTION__" d="m9.7 3 .2-1.7-.2-.2-2.6-1-7 4.5v.8m4.7 34.3L6.6 28 9.7 3" vector-effect="non-scaling-stroke"/><path fill="none" stroke="#000" stroke-linecap="round" stroke-linejoin="round" stroke-opacity=".1" stroke-width="__RESOLUTION__" d="m.1 5.4.2 19.4" vector-effect="non-scaling-stroke"/></g><g id="i"><path fill="#4ac48a" fill-opacity=".1" d="m0 8.3.3-4L7.6 0 19 .5l9.8 5.9.1 1.5-7.2 5.1-8.3 1.4-10-2.6zm19.5-1.6-6.4-2.3-7 2 6.5 2.1z"/><path fill="#fff" fill-opacity=".5" d="m19.5 6.8-6.9 1.7-6.5-2 7-2.1z"/></g><g id="h"><path fill="#65826f" fill-opacity=".2" d="M9.7 3 6.6 5.1 0 5.4v-.8L7 .1l2.7 1 .1.1z"/><path fill="#0b0d0b" fill-opacity=".4" d="M.1 5.4 6.6 5l3.1-2-3.1 25-1.8 11.5-1.6-24-2.9 9.2z"/><path fill="none" stroke="#000" stroke-linecap="round" stroke-linejoin="round" stroke-opacity=".2" stroke-width="__RESOLUTION__" d="m9.7 3 .2-1.7-.2-.2-2.6-1-7 4.5v.8m4.7 34.3L6.6 28 9.7 3" vector-effect="non-scaling-stroke"/><path fill="none" stroke="#000" stroke-linecap="round" stroke-linejoin="round" stroke-opacity=".1" stroke-width="__RESOLUTION__" d="m.1 5.4.2 19.4" vector-effect="non-scaling-stroke"/></g><g id="g"><path fill="#1e140d" d="m42.9 10.6-4 13.4-10.4 3.6 1-16.4 7.9-7.8zm15.8 24-5.4 16.7-10.8 5.8.2-4.4zM34 44.6l3.8 6.4-2.5-.8-2.5.4z"/><path fill="#000" d="m38.9 24 4-13.4L41.7 26z"/><path fill="#6c452d" d="m37.4 3.4-7.8 7.8h-5.4L15.8 5 25.4.5zm10.1 26.9 2 1.5 9.2 2.8-16 18-4.9-1.6-3.7-6.4-3-12.8v-.2z"/><path fill="#3d2918" d="m29.6 11.2-1.1 16.4L38.9 24l2.8 2 5.8 4.3-16.4 1.3H31l.1.2 3 12.8-1.2 6-2.4.4-3-.5-2.8-3.8v-3.8l-6 1.8-10.2-4.2-1.4-3.7L5.6 33 .5 30.7v-5.8l9.7-7.3 1.7-6 12.4-.4zm-4.9 31.7v-3.8l3.8-11.5 2.5 4-2.5-4L24.7 39zM5.6 33.1l4.6-15.5z"/><path fill="#131715" d="M42.5 57.1h-6.7L30.5 51l2.4-.4 2.5-.4 2.5.8 4.8 1.7z"/><path fill="#171e1b" d="m7 36.8-2.7-.3-3.8-5.8L5.6 33z"/><path fill="#9c6541" d="M11.9 11.6 15.7 5l8.6 6z"/><path fill="#637c72" d="m31 31.6.1.2z"/><path fill="none" stroke="#000" stroke-linecap="round" stroke-linejoin="round" stroke-opacity=".5" stroke-width="1" d="m38.9 24 4-13.4-5.5-7.2-7.8 7.8-1.1 16.4zl2.8 2 1.2-15.4m15.8 24-5.4 16.7-10.8 5.8h-6.7L30.5 51l-3-.5-2.8-3.8v-3.8l-6 1.8-10.2-4.2-1.4-3.7-2.8-.3-3.8-5.8v-5.8l9.7-7.3 1.7-6L15.7 5 25.4.5l12 2.9m21.3 31.3-9.2-2.9-2-1.6-5.8-4.1M31 31.8l3 12.8 3.8 6.4 4.8 1.7 16-18M31 31.8l-.1-.2-2.5-4L24.7 39v3.8m8.2 7.7-2.4.4m3.6-6.4-1.2 6 2.5-.4 2.5.8m4.6 6.1.2-4.4M24.2 11.2h5.4M15.7 5l8.6 6-12.4.5M7.1 36.8 5.6 33 .5 30.7m9.7-13.1L5.6 33.1"/></g><radialGradient id="b" cx="0" cy="0" r="819.2" gradientTransform="matrix(.07 0 0 .07 -.1 1)" gradientUnits="userSpaceOnUse" spreadMethod="pad"><stop offset="0" stop-color="#000" stop-opacity=".5"/><stop offset="1" stop-color="#000" stop-opacity="0"/></radialGradient><radialGradient id="c" cx="0" cy="0" r="819.2" gradientTransform="matrix(.07 0 0 .07 -.1 1)" gradientUnits="userSpaceOnUse" spreadMethod="pad"><stop offset="0" stop-color="#000" stop-opacity=".3"/><stop offset="1" stop-color="#000" stop-opacity="0"/></radialGradient><path id="f" fill="url(#b)" d="M38.3-22.6 51-14.3v7L25.9-3.7l25.2 1.6v9.6L29.2 8.7l19.3 7.4L41 30.8l3.6 3.6-10.2 11-2.4 1.8-21-25.1L19 45l-7.3-3-3.9-10.7.8 12.6-7.4 5.8-18.7-9-10.6 2.6-6.1-15.2 11-15.3-17 7.1h-4.2l-3.2-10.4 27.9-5.7L-49 5.3l-2-6.8 10.3-8.8-1.9-6.7 20.5 7.9-14-17.5 6.5-7.4-5.1-4.6 12-8L-7-12.4l-12.4-36.2 1.5-1 16.7 12.4 8.5-9.4 10 6L29-45l.1-.1 1.4 3.4-15.7 24.4L32.1-38z" transform="translate(51.05 49.7)"/><path id="e" fill="url(#c)" d="M38.3-22.6 51-14.3v7L25.9-3.7l25.2 1.6v9.6L29.2 8.7l19.3 7.4L41 30.8l3.6 3.6-10.2 11-2.4 1.8-21-25.1L19 45l-7.3-3-3.9-10.7.8 12.6-7.4 5.8-18.7-9-10.6 2.6-6.1-15.2 11-15.3-17 7.1h-4.2l-3.2-10.4 27.9-5.7L-49 5.3l-2-6.8 10.3-8.8-1.9-6.7 20.5 7.9-14-17.5 6.5-7.4-5.1-4.6 12-8L-7-12.4l-12.4-36.2 1.5-1 16.7 12.4 8.5-9.4 10 6L29-45l.1-.1 1.4 3.4-15.7 24.4L32.1-38z" transform="translate(51.05 49.7)"/><linearGradient id="a" x1="-819.2" x2="819.2" gradientTransform="matrix(.01 -.04 .24 0 9.35 24.8)" gradientUnits="userSpaceOnUse" spreadMethod="pad"><stop offset="0" stop-color="#000" stop-opacity="1"/><stop offset="1" stop-color="#000" stop-opacity="0"/></linearGradient><clipPath id="d"><path d="M1 1h99v69H1z"/></clipPath></defs><g clip-path="url(#d)"><g transform="translate(40.1 37.2)"><use xlink:href="#e" width="102.2" height="99.3" transform="matrix(.623 0 0 .3115 -9.35 -1.8)"/><use xlink:href="#e" width="102.2" height="99.3" transform="matrix(-.3651 .1003 .2007 .1825 31.15 -.1)"/><use xlink:href="#e" width="102.2" height="99.3" transform="matrix(-.4883 -.1195 -.239 .2441 59.55 8.15)"/><use xlink:href="#e" width="102.2" height="99.3" transform="matrix(-.1029 -.1451 -.2901 .0514 43.2 18.9)"/><use xlink:href="#f" width="102.2" height="99.3" transform="matrix(.6165 -.0161 -.0323 -.3083 -4.55 30.5)"/><use xlink:href="#f" width="102.2" height="99.3" transform="matrix(.4301 .1007 .2014 -.215 -5.05 19.9)"/><use xlink:href="#e" width="102.2" height="99.3" transform="matrix(.7253 0 0 .3626 -33.65 -13.35)"/><use xlink:href="#e" width="102.2" height="99.3" transform="matrix(-.425 .1168 .2336 .2125 13.5 -11.4)"/><use xlink:href="#e" width="102.2" height="99.3" transform="matrix(-.5684 -.1391 -.2782 .2842 46.6 -1.8)"/><use xlink:href="#e" width="102.2" height="99.3" transform="matrix(-.1198 -.1689 -.3378 .0599 27.55 10.7)"/><use xlink:href="#f" width="102.2" height="99.3" transform="matrix(.7177 -.0188 -.0376 -.3588 -28.1 24.2)"/><use xlink:href="#f" width="102.2" height="99.3" transform="matrix(.5006 .1172 .2344 -.2503 -28.65 11.85)"/><use xlink:href="#g" width="59.1" height="57.6" transform="translate(-14.5 -36.2)"/><use xlink:href="#h" width="10" height="39.8" transform="matrix(-.3415 .1185 0 .3415 -.75 -16.25)"/><use xlink:href="#i" width="28.9" height="14.3" transform="matrix(-.085 -.0037 -.0562 .1633 -1.05 -15)"/><use xlink:href="#j" width="10" height="39.8" transform="matrix(.5156 .1514 -.0919 .3888 .5 -21.05)"/><use xlink:href="#k" width="28.9" height="14.3" transform="matrix(.1373 -.0001 .0461 .1886 .75 -19.7)"/><use xlink:href="#j" width="10" height="39.8" transform="matrix(.2897 .0492 .0762 .2387 16.75 -29.6)"/><use xlink:href="#k" width="28.9" height="14.3" transform="matrix(.0647 -.011 .0797 .1086 17.3 -28.75)"/><use xlink:href="#l" width="58.1" height="56.6" transform="translate(-14 -35.7)"/></g></g></svg>