<svg xmlns="http://www.w3.org/2000/svg" xmlns:xlink="http://www.w3.org/1999/xlink" width="57" height="84" viewBox="0 0 57 84"><defs><path id="p" fill="url(#a)" d="M19.5 43.7q3 3.5 5 8.8t1.9 9.3-2.3 4.4-5.2-3-5-8.8q-2-5.2-1.9-9.3.1-4 2.3-4.5t5.1 3.1" transform="translate(-12 -40.6)"/><path id="o" fill="none" stroke="#564d2c" stroke-linecap="round" stroke-linejoin="round" stroke-opacity=".2" stroke-width="__RESOLUTION__" d="M9.9-45q-2.7.7-6.6.7t-6.6-.7-2.7-2 2.7-1.7 6.6-.8l6.6.8q2.8.7 2.8 1.8 0 1-2.8 1.8m3 4.9Q7.5-37.7-.2-37.7t-13-2.4-5.4-5.9 5.4-5.7 13-2.4 13 2.4 5.4 5.8-5.3 5.8" transform="translate(18.65 54.15)" vector-effect="non-scaling-stroke"/><path id="n" fill="url(#b)" d="M5.8-38.5v77.1H-5.7v-77.1z" transform="translate(5.7 38.55)"/><path id="m" fill="url(#c)" d="M5.8-38.5v77.1H-5.7v-77.1z" transform="translate(5.7 38.55)"/><path id="k" fill="none" stroke="#4e4628" stroke-linecap="round" stroke-linejoin="round" stroke-opacity=".2" stroke-width="__RESOLUTION__" d="M9.9-45q-2.7.7-6.6.7t-6.6-.7-2.7-2 2.7-1.7 6.6-.8l6.6.8q2.8.7 2.8 1.8 0 1-2.8 1.8m3 4.9Q7.5-37.7-.2-37.7t-13-2.4-5.4-5.9 5.4-5.7 13-2.4 13 2.4 5.4 5.8-5.3 5.8" transform="translate(18.65 54.15)" vector-effect="non-scaling-stroke"/><path id="j" fill="url(#d)" d="M5.8-38.5v77.1H-5.7v-77.1z" transform="translate(5.7 38.55)"/><path id="i" fill="url(#e)" d="M5.8-38.5v77.1H-5.7v-77.1z" transform="translate(5.7 38.55)"/><linearGradient id="a" x1="-819.2" x2="819.2" gradientTransform="matrix(0 -.01 .01 0 18.7 51.6)" gradientUnits="userSpaceOnUse" spreadMethod="pad"><stop offset="0" stop-color="#796028" stop-opacity=".6"/><stop offset="1" stop-color="#6f5e24" stop-opacity="0"/></linearGradient><linearGradient id="b" x1="-819.2" x2="819.2" gradientTransform="matrix(0 .05 -.01 0 0 .05)" gradientUnits="userSpaceOnUse" spreadMethod="pad"><stop offset="0" stop-color="#f5f5f5" stop-opacity="0"/><stop offset=".3" stop-color="#f5f5f5" stop-opacity=".2"/><stop offset=".7" stop-color="#f5f5f5" stop-opacity=".3"/><stop offset="1" stop-color="#f5f5f5" stop-opacity="0"/></linearGradient><linearGradient id="c" x1="-819.2" x2="819.2" gradientTransform="matrix(0 .05 -.01 0 0 .05)" gradientUnits="userSpaceOnUse" spreadMethod="pad"><stop offset="0" stop-color="#d0d09b" stop-opacity="0"/><stop offset=".3" stop-color="#d0d09b" stop-opacity=".1"/><stop offset=".7" stop-color="#d0d09b" stop-opacity=".2"/><stop offset="1" stop-color="#d0d09b" stop-opacity="0"/></linearGradient><linearGradient id="d" x1="-819.2" x2="819.2" gradientTransform="matrix(0 .05 -.01 0 0 .05)" gradientUnits="userSpaceOnUse" spreadMethod="pad"><stop offset="0" stop-color="#dedede" stop-opacity="0"/><stop offset=".3" stop-color="#dedede" stop-opacity=".2"/><stop offset=".7" stop-color="#dedede" stop-opacity=".3"/><stop offset="1" stop-color="#dedede" stop-opacity="0"/></linearGradient><linearGradient id="e" x1="-819.2" x2="819.2" gradientTransform="matrix(0 .05 -.01 0 0 .05)" gradientUnits="userSpaceOnUse" spreadMethod="pad"><stop offset="0" stop-color="#bcbc8c" stop-opacity="0"/><stop offset=".3" stop-color="#bcbc8c" stop-opacity=".1"/><stop offset=".7" stop-color="#bcbc8c" stop-opacity=".2"/><stop offset="1" stop-color="#bcbc8c" stop-opacity="0"/></linearGradient><g id="q"><path fill="#f3f1eb" d="M41.4 11.8v-1.3h1.1q1.4.9 1.4 2.3-2.1-.3-2.3 3.1l-1.9 3q-1.8 2.7-6 1 .3-.8 1-1l2.9-.1q4-1.8 4-5.5zl.3 1.5q-1.6 2.7-4 2.5-2.6-.2-6-3.2l.2-1q2-.9 4 .4.9.7 2.5 1.2h.2q1 .5 2.8-1.4m-6.7 7.1q-.7.2-1 1-2.5-2.1-2-4.6.3-.5 1-.5 2.2 1.6 2 4.1m3.6-5.7q0 1.3-.6 2.7.6-1.4.6-2.7M10.4 6q.7 0 1 .5.2 2.5-2.2 4.5-.3-.8-.9-1 0-2.7 2.2-4M2 6.3Q2 3 0 3.2.2 1.7 1.6.9l1 .1-.1 1.3Q3.9 4.3 5 4l.3-.1q1.4-.4 2.4-1h3.7l.2 1Q8 6.6 5.6 6.6q-2.3 0-3.5-2.8 0-.6.4-1.5-.4.9-.4 1.5-.3 3.6 3.4 5.8l2.7.4q.6.2.9 1-4.2 1.3-5.7-1.5Q2.4 8 2 6.3M5.3 4q-.2 1.4.4 2.7-.6-1.3-.5-2.7m4 35.9q2.5 1.8 2.9 4v.3h.3q-5 .1-2.5 5.5-5.5 1.8-7.2-3l-.1-.2q-2.3-4.5 0-8.2 3 4.9 6 2.8zM8.6 41q-1.1 2.4-3.9 4.2l-2.1 1.1 2.1-1.1q2.8-1.8 3.9-4.2m3.5 2.9q-3-.3-7.4 1.3 4.5-1.6 7.4-1.4m30 14.4-.2.9q-.5 2.9-5.8 2.1l-.6-.1q-1.4-1.9-.6-4.3 2.1 2.1 7.3 1.4-5.2.7-7.4-1.4-.6 2.4.7 4.3H35l-1.8-.5q-2.1.1-3.7-1.2l-1.1-2.1q-.3-4.5 3-4.8v-.1q-.6-2.1 2.8-3.4l.3 3q.9 5 6.6 2.8L42 56l.2 1.4zm-7.4-1.4q-1-1.1-1.3-3l.8-1.4.3-.3-.4.3-.7 1.4q.3 1.9 1.4 3m-.6-4.4h-2.7zm-5.7 4.9q2 .1 4.5-1.6-.4 2.3.3 4.9-.7-2.6-.3-4.9-2.5 1.7-4.5 1.6m4.5-1.6q0-1 .5-1.9-.4.9-.5 1.9"/><path fill="#c4b79b" d="M41.7 13.4q0 3.6-4.1 5.4l-3 .1q.3-2.5-1.9-4.1l-.7-1.1q-.4-.5-.3-1.1 3.4 3 6 3.3-1 1.9-3 3 2-1.1 3-3 2.4.1 4-2.6m-8 6.6q4.2 1.7 6-1l1.9-3-.1 2 1.6.9q-.8 1.6-1.6.2.2 1-.2 1.5-1.6 1.8-6.9 1.5h-1.1q-3-3-2-6.1v-.2l.3-.5q-.4 2.6 2 4.7-.4.9-.3 2-.1-1.1.4-2m-1.8-8.3.6-1q.6-.9 1.8-1.7-.2 1.8 1.6 3.1-2-1.3-4-.5m9.6 7.5v-1zm-30-15-.3 1-.8 1.1q-2.2 1.3-2.2 4-1.9-1.3-2.5-3.4Q8 6.7 11.6 4m-.2 2.6.2.5v.2q.7 3.2-2.4 5.8h-1q-5-.2-6.3-2.1-.5-.4-.1-1.4-1 1.2-1.5-.3l1.5-.8.2-2q.5 1.5 1.4 3 1.5 2.8 5.7 1.5 2.4-2 2.3-4.5M7.7 2.9Q9.5 2 9.5 0L11 1.8l.4 1zm-2 3.7q.6 2 2.5 3.4l-2.7-.4Q1.8 7.4 2 3.8q1.2 2.8 3.6 2.8m-4 2.9.1-1.1zM9.2 13q.2-1.1-.1-2 .3.9.1 2"/><path fill="none" stroke="#000" stroke-linecap="round" stroke-linejoin="round" stroke-opacity=".3" stroke-width="__RESOLUTION__" d="M41.6 15.9q.2-3.4 2.3-3 0-1.5-1.4-2.4h-1.1v1.3l.3 1.5q0 3.7-4.1 5.5l-3 .1q-.6.2-1 1t-.3 2h1.1q5.3.4 6.9-1.4.4-.5.2-1.5.8 1.4 1.6-.2l-1.6-.8zm-8.2 6q-3-2.9-2-6v-.2l.3-.5q.4-.4 1.1-.4l-.7-1.1q-.4-.5-.3-1.1l.2-1 .6-1q.6-.9 1.8-1.7-.2 1.8 1.6 3.1.9.7 2.5 1.2h.2q1 .5 2.8-1.4m-3.7 4q.6-1.3.6-2.7m3.2 4.9v1m-6.9-.1q.3-2.5-1.9-4.1m5 1q-1 2-3 3.1m-23.2-15-.3 1-.8 1.1q.6 0 1 .5l.2.5h0v.2q.7 3.2-2.4 5.8h-1q-5-.2-6.3-2.1-.5-.4-.1-1.4-1 1.2-1.5-.3l1.5-.8.2-2q0-3.5-2-3.2Q.2 1.7 1.6.9l1 .1-.1 1.3Q3.9 4.3 5 4l.3-.1q1.4-.4 2.4-1Q9.5 2 9.5 0L11 1.8l.4 1zm-6 2.7q.7 2 2.6 3.4 0-2.7 2.2-4m-8-3.7q-.3.9-.3 1.5-.3 3.6 3.4 5.8l2.7.4q.6.2.9 1t.1 2M5.7 6.6Q5 5.3 5.2 3.9M1.9 8.4v1.1m33.7 51.6.6.1q5.3.8 5.8-2.1l.3-.9.1-.9-.2-1.3m-7.2.8q-.7 2.4.6 4.3H35l-1.8-.5h0q-2.1.1-3.7-1.2l-1.1-2.1q-.3-4.5 3-4.8" vector-effect="non-scaling-stroke"/><path fill="none" stroke="#000" stroke-linecap="round" stroke-linejoin="round" stroke-opacity=".3" stroke-width="__RESOLUTION__" d="M9.3 39.8q2.4 1.8 2.8 4v.3h.3q-5 .1-2.5 5.5-5.5 1.8-7.2-3l-.1-.2q-2.3-4.5 0-8.2 3 4.9 6 2.8zm-6.7 6.6 2.1-1.2q2.8-1.8 3.9-4.2m-3.9 4.2q4.5-1.6 7.4-1.4m30 14.4q-5.1.7-7.2-1.4-1.1-1.1-1.4-3l.8-1.4.3-.3-.3-3.1q-3.4 1.3-2.7 3.4h0m3-.3q.9 4.9 6.6 2.7l.9 1.2m-10.5-3.6h2.6m-.9 8.2q-.7-2.6-.3-4.9-2.5 1.7-4.5 1.6m5-3.5q-.4.9-.5 1.9" vector-effect="non-scaling-stroke"/></g><g id="l"><path fill="#ddd2bc" d="M.6 12.8Q1.4 8 8.3 4.4 16 .5 27 .5t18.8 4 7.7 9.5l-.1 1.5q-1 4.6-7.6 8l-1 .5q-7.4 3.5-17.8 3.5l-6.9-.5q-6.7-.8-11.9-3.5-6.6-3.4-7.5-8v-.1l-.1-.2z"/><path fill="#b4a158" d="m53.4 15.5-.7 4.4q-1.8 12.6-2.5 25.4-.6 11.8-.2 23.9.5 14.1 2.4 28.6l.1 1 .9 6-.4.3q.5 1.4.5 2.9 0 5.5-7.7 9.5l-1 .5-.5-4-.1-1.3-.2-2.2Q42.2 94.8 41.9 79v-2.4q-.3-13.5.5-26.8Q43 40 44 30.5v-.3l.8-6.2 1-.5q6.6-3.4 7.6-8m-.7 4.4L48 24.3l-1 .9 1-.9zM48 24.3l-4 5.9z"/><path fill="#cfc497" d="M44.8 118q-3.7 1.7-8 2.6l-9.8.9-6.9-.5.4-4.6.3-3.4v-1.3q1-16.4 1.1-32.8.2-12.4-.2-24.8l-.8-17.6-.1-.4.2-.8 1.4-5.7L39 28.4l-.7.3.6-.3 3.8-1.8 1.4 3.8v.2q-1 9.5-1.6 19-.8 13.4-.5 26.9v2.4q.3 15.8 2 31.6l.3 2.2.1 1.3zM44 30.4l-.5.6z"/><path fill="#c3b47b" d="M20.2 121q-6.7-.8-12-3.5-7.7-4-7.7-9.5l.1-1.3.8-4.5v-.6l.2-.5.5-4.2q2.2-15.4 2.5-30.7Q4.8 55.1 4 44q-.8-11.4-2.5-22.7l-1-5.8q1 4.6 7.7 8Q13.4 26.2 20 27l.6 7.7.1 1.4v.4l.8 17.6q.4 12.4.3 24.8-.1 16.4-1.1 32.8v1.3l-.3 3.4zm-10-92.7-.2-.2h.2-.2zv-.2zl1.6 1.3zl3 11.8L12 64.6l1.3-24.3zm8.6.8H18l-8-1 8 1zM1.6 21.2l8.3 7-1.2-.2 1.2.1zm19.1 13.5L18 29z"/><path fill="#a28f42" d="m43.2 26.3-.6.3-.1-.5.1.5zm-4.4 2.1-16.3 1.2-1.5 5.7-.2.8-.1-1.4-.6-7.7 6.9.5q10.4 0 17.8-3.5l-.7 6.2v.4l-.1-.2v-.2.2l-1.4-3.8zM21 35.3l-.3-.6zm1.6-6.2-.2.5h-.7.8z"/><path fill="none" stroke="#786743" stroke-linecap="round" stroke-linejoin="round" stroke-width="1" d="M.6 12.8Q1.4 8 8.3 4.4 16 .5 27 .5t18.8 4 7.7 9.5l-.1 1.5m-.4 89.6q.5 1.4.5 2.9 0 5.5-7.7 9.5l-1 .5q-3.7 1.7-8 2.6l-9.8.9-6.9-.5q-6.7-.8-11.9-3.5-7.7-4-7.7-9.5l.1-1.3m0-91.4L.5 14l.1-1.2m52.8 2.7-.7 4.4q-1.8 12.6-2.5 25.4-.6 11.8-.2 23.9.5 14.1 2.4 28.6l.1 1 .9 6m-52.8 2 .7-4.5v-.6l.2-.5L2 97q2.2-15.4 2.5-30.7Q4.8 55.1 4 44q-.8-11.4-2.5-22.7l-1-5.8"/><path fill="none" stroke="#6c5e3f" stroke-linecap="round" stroke-linejoin="round" stroke-opacity=".4" stroke-width="1" d="M.6 15.5v-.3"/><path fill="none" stroke="#564d2c" stroke-linecap="round" stroke-linejoin="round" stroke-width="__RESOLUTION__" d="m47 25.2 1-.9 4.7-4.4m-10.2 6.3.1.4.6-.3m-5 2.4.6-.3-16.3 1.2-1.5 5.7-.2.8v.4M44 30.4v.2m0-.4v.2l-1.4-3.8-3.7 1.8m4.6 2.6.5-.6m0-.2 4-5.9M20.7 34.7l.3.6m-11-7.1.2.1 1.6 1.3m-1.6-1.5 7.9 1h.7M8.7 28l1.2.1-8.3-6.9m20 8.5.8-.1.2-.5m-4.6 0 2.7 5.6" vector-effect="non-scaling-stroke"/><path fill="none" stroke="#564d2c" stroke-linecap="round" stroke-linejoin="round" stroke-opacity=".5" stroke-width="__RESOLUTION__" d="M10.1 28.3v-.2m0 .2 3 11.8L12 64.6" vector-effect="non-scaling-stroke"/></g><g id="h"><path fill="#c8beaa" d="M.6 12.8Q1.4 8 8.3 4.4 16 .5 27 .5t18.8 4 7.7 9.5l-.1 1.5q-1 4.6-7.6 8l-1 .5q-7.4 3.5-17.8 3.5l-6.9-.5q-6.7-.8-11.9-3.5-6.6-3.4-7.5-8v-.1l-.1-.2z"/><path fill="#a39250" d="m53.4 15.5-.7 4.4q-1.8 12.6-2.5 25.4-.6 11.8-.2 23.9.5 14.1 2.4 28.6l.1 1 .9 6-.4.3q.5 1.4.5 2.9 0 5.5-7.7 9.5l-1 .5-.5-4-.1-1.3-.2-2.2Q42.2 94.8 41.9 79v-2.4q-.3-13.5.5-26.8Q43 40 44 30.5v-.3l.8-6.2 1-.5q6.6-3.4 7.6-8m-.7 4.4L48 24.3l-1 .9 1-.9zM48 24.3l-4 5.9z"/><path fill="#bcb189" d="M44.8 118q-3.7 1.7-8 2.6l-9.8.9-6.9-.5.4-4.6.3-3.4v-1.3q1-16.4 1.1-32.8.2-12.4-.2-24.8l-.8-17.6-.1-.4.2-.8 1.4-5.7L39 28.4l-.7.3.6-.3 3.8-1.8 1.4 3.8v.2q-1 9.5-1.6 19-.8 13.4-.5 26.9v2.4q.3 15.8 2 31.6l.3 2.2.1 1.3zM44 30.4l-.5.6z"/><path fill="#b0a370" d="M20.2 121q-6.7-.8-12-3.5-7.7-4-7.7-9.5l.1-1.3.8-4.5v-.6l.2-.5.5-4.2q2.2-15.4 2.5-30.7Q4.8 55.1 4 44q-.8-11.4-2.5-22.7l-1-5.8q1 4.6 7.7 8Q13.4 26.2 20 27l.6 7.7.1 1.4v.4l.8 17.6q.4 12.4.3 24.8-.1 16.4-1.1 32.8v1.3l-.3 3.4zm-10-92.7-.2-.2h.2-.2zv-.2zl1.6 1.3zl3 11.8L12 64.6l1.3-24.3zm8.6.8H18l-8-1 8 1zM1.6 21.2l8.3 7-1.2-.2 1.2.1zm19.1 13.5L18 29z"/><path fill="#93813c" d="m43.2 26.3-.6.3-.1-.5.1.5zm-4.4 2.1-16.3 1.2-1.5 5.7-.2.8-.1-1.4-.6-7.7 6.9.5q10.4 0 17.8-3.5l-.7 6.2v.4l-.1-.2v-.2.2l-1.4-3.8zM21 35.3l-.3-.6zm1.6-6.2-.2.5h-.7.8z"/><path fill="none" stroke="#6c5e3c" stroke-linecap="round" stroke-linejoin="round" stroke-width="1" d="M.6 12.8Q1.4 8 8.3 4.4 16 .5 27 .5t18.8 4 7.7 9.5l-.1 1.5m-.4 89.6q.5 1.4.5 2.9 0 5.5-7.7 9.5l-1 .5q-3.7 1.7-8 2.6l-9.8.9-6.9-.5q-6.7-.8-11.9-3.5-7.7-4-7.7-9.5l.1-1.3m0-91.4L.5 14l.1-1.2m52.8 2.7-.7 4.4q-1.8 12.6-2.5 25.4-.6 11.8-.2 23.9.5 14.1 2.4 28.6l.1 1 .9 6m-52.8 2 .7-4.5v-.6l.2-.5L2 97q2.2-15.4 2.5-30.7Q4.8 55.1 4 44q-.8-11.4-2.5-22.7l-1-5.8"/><path fill="none" stroke="#625539" stroke-linecap="round" stroke-linejoin="round" stroke-opacity=".4" stroke-width="1" d="M.6 15.5v-.3"/><path fill="none" stroke="#4e4628" stroke-linecap="round" stroke-linejoin="round" stroke-width="__RESOLUTION__" d="m47 25.2 1-.9 4.7-4.4m-10.2 6.3.1.4.6-.3m-5 2.4.6-.3-16.3 1.2-1.5 5.7-.2.8v.4M44 30.4v.2m0-.4v.2l-1.4-3.8-3.7 1.8m4.6 2.6.5-.6m0-.2 4-5.9M20.7 34.7l.3.6m-11-7.1.2.1 1.6 1.3m-1.6-1.5 7.9 1h.7M8.7 28l1.2.1-8.3-6.9m20 8.5.8-.1.2-.5m-4.6 0 2.7 5.6" vector-effect="non-scaling-stroke"/><path fill="none" stroke="#4e4628" stroke-linecap="round" stroke-linejoin="round" stroke-opacity=".5" stroke-width="__RESOLUTION__" d="M10.1 28.3v-.2m0 .2 3 11.8L12 64.6" vector-effect="non-scaling-stroke"/></g><g id="g"><path fill="#38301f" d="M16.3 6.2h.4l.8.1.6.3q1.7.8 2.9 2.9 1.2 2.3 1.3 4.6 0 1.2-.4 2 1.1 3.4 1.2 6.9.1 5.7-2.7 8.5l-.3.3-1.9 1.2-2.4.4V33q1.3-.2 2.4-1.2l.4-.3q1.1-.9 1.7-2.2 1.4-2.5 1.4-6.6-.1-3.4-1.1-6.9.3-.8.2-2 0-2.2-1.1-4.4l-.1-.2q-.9-1.6-2.1-2.5l-.7-.4zM4 .2h.4l1.4.4q.9.5 1.7 1.3H6.2L5 .9 4.3.4zm4.6 1.9 2 .3q.8.2 1.4.6l2.4 1.5 1 .8.8.9L15 6h-.2l-.3-.3-.3-1.2-1.6-.5-.7-.5-.7-.4-.7-.3q-1-.5-2-.7"/><path fill="#776c54" d="m15.8 33.4-1.3-.2 1.3-.1z"/><path fill="#78663d" d="m14.6 33.2-1-.2-1.7-29.5.7.5v3.2l1.9-1.5.3.3h.2v3.7l-.1 1.4v3.5l.1 4 .2 5v1.5l.2 3 .4 5zM5 26.1l-1.3-2L3 0l.9.2.4.2.8.5L5 5l-.1 2.6q-.2 6.4 0 12.7zm-3.8-6.7Q.1 15.8 0 12.2q-.1-3.3.9-5.7Q.5 5.3.4 4q0-1.8.5-2.8l.7 9.1z"/><path fill="#605334" d="M13.6 33q-1.2-.1-2.6-.7v-.1l-2-1.3-1.1-.8v-.2h-.1v-.1l-.3-3.5h-.1l-1 2.3L5 26.9v-6.5q-.2-6.3 0-12.7V5.1L5.2.9l1 1h1.3l1.1.1 2 .8.7.3.7.4zm-9.8-9v.8l-.4-.8Q2 21.7 1.2 19.4l.4-9.1-.7-9.1.5-.7Q2.1 0 3 0zM17.5 6.8q1.2.9 2.1 2.5l.1.2q1.1 2.2 1.1 4.4.1 1.2-.2 2 1 3.5 1.1 6.9 0 4-1.4 6.6-.6 1.3-1.7 2.2l-.4.3v-7.5l-.2-6.6zm-9-4.7h-1l-.1-.2.1.2zl.2 4.4.1 4.1.1 4.2L9 22v9-9l-.1-7v-.1l-.1-4.2-.1-4.1zm2.7 1L11 32.2zm9.1 26.4-.6-20z"/><path fill="#8f8672" d="m7.9 30-.2-.1H8zm-.7-1.2-.7-.3.9-2.4v.1zM12.6 4l1.7.4h-.1L12.6 7z"/><path fill="#827454" d="m7.8 29.9-.6-1 .3-2.6zm6.4-25.2.3 1-1.9 1.6v-.1z"/><path fill="#847658" d="m16.3 6.2.4.2.8.4.5 11 .2 6.6V32q-1.1.9-2.4 1.1l-.4-5-.2-3v-1.5l-.2-5v-4l-.1-3.5V9.7L15 6l1.1.2z"/><path fill="none" stroke="#000" stroke-linecap="round" stroke-linejoin="round" stroke-opacity=".3" stroke-width="__RESOLUTION__" d="M16.3 6.2h.4l.8.1.6.3q1.7.8 2.9 2.9 1.2 2.3 1.3 4.6 0 1.2-.4 2 1.1 3.4 1.2 6.9.1 5.7-2.7 8.5l-.3.3-1.9 1.2-2.4.4-1.3-.2-1-.2q-1.2-.1-2.5-.7v-.1l-2-1.3-1.1-.8m-.2-.2-.5-1-.7-.3L5 26.9m0-.8-1.3-2m0 .8-.4-.8Q2 21.7 1.2 19.4.1 15.8 0 12.2q-.1-3.3.9-5.7Q.5 5.3.4 4q0-1.8.5-2.8l.5-.7Q2.1 0 3 0l.9.2h.4l1.4.4q.9.5 1.7 1.3l.1.2h1l2 .3q.8.2 1.4.6l2.4 1.5 1 .8.8.9h.1M7.7 29.9" vector-effect="non-scaling-stroke"/><path fill="none" stroke="#000" stroke-linecap="round" stroke-linejoin="round" stroke-opacity=".2" stroke-width="__RESOLUTION__" d="M5 26.9v-6.5q-.2-6.3 0-12.7V5.1L5.2.9M3.7 24v.8M15.8 33v.3m-.6-9.7-.2-5.1h0v-4l-.1-3.5V9.7L15 6m-3.2-2.5 1.7 29.6m-5-31 .2 4.4.1 4.1.1 4.2h0L9 22v9M1 1.2l.6 9.1-.4 9m17 12.6v-7.5l-.2-6.6-.5-11m-2.2 17.3v1l.1 3 .4 5m-4.8-.9.2-29.1m-7.5 21L3 0m16.7 9.5.6 20" vector-effect="non-scaling-stroke"/></g><clipPath id="f"><path d="M1 1h55v82H1z"/></clipPath></defs><g clip-path="url(#f)"><g transform="translate(15.65 59.35)"><use xlink:href="#g" width="23.1" height="33.4" transform="translate(3.35 -37.05)"/><use xlink:href="#h" width="54" height="122" transform="matrix(.1242 -.0359 -.0701 -.138 6.3 -27.5)"/><use xlink:href="#i" width="11.4" height="77.2" transform="matrix(.1242 -.0359 -.0701 -.138 5.55 -33.5)"/><use xlink:href="#i" width="11.4" height="77.2" transform="matrix(.1242 -.0359 -.0701 -.138 7.95 -31.75)"/><use xlink:href="#i" width="11.4" height="77.2" transform="matrix(.1242 -.0359 -.0701 -.138 7.55 -34.1)"/><use xlink:href="#i" width="11.4" height="77.2" transform="matrix(.1242 -.0359 -.0701 -.138 5.8 -32.15)"/><use xlink:href="#i" width="11.4" height="77.2" transform="matrix(.1242 -.0359 -.0701 -.138 6.55 -32.9)"/><use xlink:href="#i" width="11.4" height="77.2" transform="matrix(.1242 -.0359 -.0701 -.138 8.6 -32.5)"/><use xlink:href="#i" width="11.4" height="77.2" transform="matrix(.1242 -.0359 -.0701 -.138 8.9 -33.05)"/><use xlink:href="#j" width="11.4" height="77.2" transform="matrix(.1242 -.0359 -.1299 -.2557 7.25 -26.95)"/><use xlink:href="#k" width="36.9" height="16.4" transform="matrix(.1242 -.0359 -.0701 -.138 6.85 -28.75)"/><use xlink:href="#l" width="54" height="122" transform="matrix(.1242 -.0359 -.0701 -.138 12.7 -15.2)"/><use xlink:href="#m" width="11.4" height="77.2" transform="matrix(.1242 -.0359 -.0701 -.138 11.95 -21.2)"/><use xlink:href="#m" width="11.4" height="77.2" transform="matrix(.1242 -.0359 -.0701 -.138 14.35 -19.45)"/><use xlink:href="#m" width="11.4" height="77.2" transform="matrix(.1242 -.0359 -.0701 -.138 13.95 -21.8)"/><use xlink:href="#m" width="11.4" height="77.2" transform="matrix(.1242 -.0359 -.0701 -.138 12.2 -19.85)"/><use xlink:href="#m" width="11.4" height="77.2" transform="matrix(.1242 -.0359 -.0701 -.138 12.95 -20.6)"/><use xlink:href="#m" width="11.4" height="77.2" transform="matrix(.1242 -.0359 -.0701 -.138 15 -20.2)"/><use xlink:href="#m" width="11.4" height="77.2" transform="matrix(.1242 -.0359 -.0701 -.138 15.3 -20.75)"/><use xlink:href="#n" width="11.4" height="77.2" transform="matrix(.1242 -.0359 -.1299 -.2557 13.65 -14.65)"/><use xlink:href="#o" width="36.9" height="16.4" transform="matrix(.1242 -.0359 -.0701 -.138 13.25 -16.45)"/><use xlink:href="#l" width="54" height="122" transform="matrix(.1242 -.0359 -.0701 -.138 19.55 -2.25)"/><use xlink:href="#m" width="11.4" height="77.2" transform="matrix(.1242 -.0359 -.0701 -.138 18.8 -8.25)"/><use xlink:href="#m" width="11.4" height="77.2" transform="matrix(.1242 -.0359 -.0701 -.138 21.2 -6.5)"/><use xlink:href="#m" width="11.4" height="77.2" transform="matrix(.1242 -.0359 -.0701 -.138 20.8 -8.85)"/><use xlink:href="#m" width="11.4" height="77.2" transform="matrix(.1242 -.0359 -.0701 -.138 19.05 -6.9)"/><use xlink:href="#m" width="11.4" height="77.2" transform="matrix(.1242 -.0359 -.0701 -.138 19.8 -7.65)"/><use xlink:href="#m" width="11.4" height="77.2" transform="matrix(.1242 -.0359 -.0701 -.138 21.85 -7.25)"/><use xlink:href="#m" width="11.4" height="77.2" transform="matrix(.1242 -.0359 -.0701 -.138 22.15 -7.8)"/><use xlink:href="#n" width="11.4" height="77.2" transform="matrix(.1242 -.0359 -.1299 -.2557 20.5 -1.7)"/><use xlink:href="#o" width="36.9" height="16.4" transform="matrix(.1242 -.0359 -.0701 -.138 20.1 -3.5)"/><use xlink:href="#l" width="54" height="122" transform="matrix(.1242 -.0359 -.0701 -.138 26.15 10.75)"/><use xlink:href="#m" width="11.4" height="77.2" transform="matrix(.1242 -.0359 -.0701 -.138 25.4 4.75)"/><use xlink:href="#m" width="11.4" height="77.2" transform="matrix(.1242 -.0359 -.0701 -.138 27.8 6.5)"/><use xlink:href="#m" width="11.4" height="77.2" transform="matrix(.1242 -.0359 -.0701 -.138 27.4 4.15)"/><use xlink:href="#m" width="11.4" height="77.2" transform="matrix(.1242 -.0359 -.0701 -.138 25.65 6.1)"/><use xlink:href="#m" width="11.4" height="77.2" transform="matrix(.1242 -.0359 -.0701 -.138 26.4 5.35)"/><use xlink:href="#m" width="11.4" height="77.2" transform="matrix(.1242 -.0359 -.0701 -.138 28.45 5.75)"/><use xlink:href="#m" width="11.4" height="77.2" transform="matrix(.1242 -.0359 -.0701 -.138 28.75 5.2)"/><use xlink:href="#n" width="11.4" height="77.2" transform="matrix(.1242 -.0359 -.1299 -.2557 27.1 11.3)"/><use xlink:href="#o" width="36.9" height="16.4" transform="matrix(.1242 -.0359 -.0701 -.138 26.7 9.5)"/><use xlink:href="#p" width="14.4" height="25.6" transform="matrix(-.6323 -.0843 .0089 -.5999 21.9 -5.65)"/><use xlink:href="#p" width="14.4" height="25.6" transform="matrix(-.6323 -.0843 .0089 -.5999 8.9 -30.1)"/><use xlink:href="#p" width="14.4" height="25.6" transform="matrix(-.6323 -.0843 .0089 -.5999 8.9 -30.1)"/><use xlink:href="#p" width="14.4" height="25.6" transform="matrix(-.6323 -.0843 .0089 -.5999 8.9 -30.1)"/><use xlink:href="#h" width="54" height="122" transform="matrix(.0481 -.1114 -.1137 -.0556 5.4 -42.1)"/><use xlink:href="#i" width="11.4" height="77.2" transform="matrix(.0481 -.1114 -.1137 -.0556 1.65 -46.1)"/><use xlink:href="#i" width="11.4" height="77.2" transform="matrix(.0481 -.1114 -.1137 -.0556 3.9 -46.4)"/><use xlink:href="#i" width="11.4" height="77.2" transform="matrix(.0481 -.1114 -.1137 -.0556 2.45 -47.9)"/><use xlink:href="#i" width="11.4" height="77.2" transform="matrix(.0481 -.1114 -.1137 -.0556 2.55 -45.25)"/><use xlink:href="#i" width="11.4" height="77.2" transform="matrix(.0481 -.1114 -.1137 -.0556 2.6 -46.25)"/><use xlink:href="#i" width="11.4" height="77.2" transform="matrix(.0481 -.1114 -.1137 -.0556 3.95 -47.45)"/><use xlink:href="#i" width="11.4" height="77.2" transform="matrix(.0481 -.1114 -.1137 -.0556 3.75 -48.05)"/><use xlink:href="#j" width="11.4" height="77.2" transform="matrix(.0481 -.1114 -.2107 -.1031 6.25 -42.35)"/><use xlink:href="#k" width="36.9" height="16.4" transform="matrix(.0481 -.1114 -.1137 -.0556 5 -43.4)"/><use xlink:href="#l" width="54" height="122" transform="matrix(.0481 -.1114 -.1137 -.0556 15.65 -37.3)"/><use xlink:href="#m" width="11.4" height="77.2" transform="matrix(.0481 -.1114 -.1137 -.0556 11.9 -41.3)"/><use xlink:href="#m" width="11.4" height="77.2" transform="matrix(.0481 -.1114 -.1137 -.0556 14.15 -41.6)"/><use xlink:href="#m" width="11.4" height="77.2" transform="matrix(.0481 -.1114 -.1137 -.0556 12.7 -43.1)"/><use xlink:href="#m" width="11.4" height="77.2" transform="matrix(.0481 -.1114 -.1137 -.0556 12.8 -40.45)"/><use xlink:href="#m" width="11.4" height="77.2" transform="matrix(.0481 -.1114 -.1137 -.0556 12.85 -41.45)"/><use xlink:href="#m" width="11.4" height="77.2" transform="matrix(.0481 -.1114 -.1137 -.0556 14.2 -42.65)"/><use xlink:href="#m" width="11.4" height="77.2" transform="matrix(.0481 -.1114 -.1137 -.0556 14 -43.25)"/><use xlink:href="#n" width="11.4" height="77.2" transform="matrix(.0481 -.1114 -.2107 -.1031 16.5 -37.55)"/><use xlink:href="#o" width="36.9" height="16.4" transform="matrix(.0481 -.1114 -.1137 -.0556 15.25 -38.6)"/><use xlink:href="#l" width="54" height="122" transform="matrix(.0481 -.1114 -.1137 -.0556 26.5 -32.2)"/><use xlink:href="#m" width="11.4" height="77.2" transform="matrix(.0481 -.1114 -.1137 -.0556 22.75 -36.2)"/><use xlink:href="#m" width="11.4" height="77.2" transform="matrix(.0481 -.1114 -.1137 -.0556 25 -36.5)"/><use xlink:href="#m" width="11.4" height="77.2" transform="matrix(.0481 -.1114 -.1137 -.0556 23.55 -38)"/><use xlink:href="#m" width="11.4" height="77.2" transform="matrix(.0481 -.1114 -.1137 -.0556 23.65 -35.35)"/><use xlink:href="#m" width="11.4" height="77.2" transform="matrix(.0481 -.1114 -.1137 -.0556 23.7 -36.35)"/><use xlink:href="#m" width="11.4" height="77.2" transform="matrix(.0481 -.1114 -.1137 -.0556 25.05 -37.55)"/><use xlink:href="#m" width="11.4" height="77.2" transform="matrix(.0481 -.1114 -.1137 -.0556 24.85 -38.15)"/><use xlink:href="#n" width="11.4" height="77.2" transform="matrix(.0481 -.1114 -.2107 -.1031 27.35 -32.45)"/><use xlink:href="#o" width="36.9" height="16.4" transform="matrix(.0481 -.1114 -.1137 -.0556 26.1 -33.5)"/><use xlink:href="#l" width="54" height="122" transform="matrix(.0481 -.1114 -.1137 -.0556 37.2 -27)"/><use xlink:href="#m" width="11.4" height="77.2" transform="matrix(.0481 -.1114 -.1137 -.0556 33.45 -31)"/><use xlink:href="#m" width="11.4" height="77.2" transform="matrix(.0481 -.1114 -.1137 -.0556 35.7 -31.3)"/><use xlink:href="#m" width="11.4" height="77.2" transform="matrix(.0481 -.1114 -.1137 -.0556 34.25 -32.8)"/><use xlink:href="#m" width="11.4" height="77.2" transform="matrix(.0481 -.1114 -.1137 -.0556 34.35 -30.15)"/><use xlink:href="#m" width="11.4" height="77.2" transform="matrix(.0481 -.1114 -.1137 -.0556 34.4 -31.15)"/><use xlink:href="#m" width="11.4" height="77.2" transform="matrix(.0481 -.1114 -.1137 -.0556 35.75 -32.35)"/><use xlink:href="#m" width="11.4" height="77.2" transform="matrix(.0481 -.1114 -.1137 -.0556 35.55 -32.95)"/><use xlink:href="#n" width="11.4" height="77.2" transform="matrix(.0481 -.1114 -.2107 -.1031 38.05 -27.25)"/><use xlink:href="#o" width="36.9" height="16.4" transform="matrix(.0481 -.1114 -.1137 -.0556 36.8 -28.3)"/><use xlink:href="#p" width="14.4" height="25.6" transform="matrix(-.6323 -.0843 .0089 -.5999 21.9 -5.65)"/><use xlink:href="#p" width="14.4" height="25.6" transform="matrix(-.6323 -.0843 .0089 -.5999 21.9 -5.65)"/><use xlink:href="#p" width="14.4" height="25.6" transform="matrix(-.3179 .4629 -.4684 -.3909 10.15 -45.65)"/><use xlink:href="#p" width="14.4" height="25.6" transform="matrix(.4288 -.3455 .3705 .4968 16.3 -40.65)"/><use xlink:href="#p" width="14.4" height="25.6" transform="matrix(.4288 -.3455 .3705 .4968 16.3 -40.65)"/><use xlink:href="#h" width="54" height="122" transform="matrix(-.0728 -.106 -.0841 .0873 10.6 -9.2)"/><use xlink:href="#i" width="11.4" height="77.2" transform="matrix(-.0728 -.106 -.0841 .0873 6.05 -7.5)"/><use xlink:href="#i" width="11.4" height="77.2" transform="matrix(-.0728 -.106 -.0841 .0873 6.6 -9.95)"/><use xlink:href="#i" width="11.4" height="77.2" transform="matrix(-.0728 -.106 -.0841 .0873 4.9 -9.2)"/><use xlink:href="#i" width="11.4" height="77.2" transform="matrix(-.0728 -.106 -.0841 .0873 7.1 -7.95)"/><use xlink:href="#i" width="11.4" height="77.2" transform="matrix(-.0728 -.106 -.0841 .0873 6.2 -8.5)"/><use xlink:href="#i" width="11.4" height="77.2" transform="matrix(-.0728 -.106 -.0841 .0873 5.8 -10.45)"/><use xlink:href="#i" width="11.4" height="77.2" transform="matrix(-.0728 -.106 -.0841 .0873 5.25 -10.6)"/><use xlink:href="#j" width="11.4" height="77.2" transform="matrix(-.0728 -.106 -.1557 .1617 10.7 -10.2)"/><use xlink:href="#k" width="36.9" height="16.4" transform="matrix(-.0728 -.106 -.0841 .0873 9.4 -9.5)"/><use xlink:href="#l" width="54" height="122" transform="matrix(-.0728 -.106 -.0841 .0873 18.05 -17.15)"/><use xlink:href="#m" width="11.4" height="77.2" transform="matrix(-.0728 -.106 -.0841 .0873 13.5 -15.45)"/><use xlink:href="#m" width="11.4" height="77.2" transform="matrix(-.0728 -.106 -.0841 .0873 14.05 -17.9)"/><use xlink:href="#m" width="11.4" height="77.2" transform="matrix(-.0728 -.106 -.0841 .0873 12.35 -17.15)"/><use xlink:href="#m" width="11.4" height="77.2" transform="matrix(-.0728 -.106 -.0841 .0873 14.55 -15.9)"/><use xlink:href="#m" width="11.4" height="77.2" transform="matrix(-.0728 -.106 -.0841 .0873 13.65 -16.45)"/><use xlink:href="#m" width="11.4" height="77.2" transform="matrix(-.0728 -.106 -.0841 .0873 13.25 -18.4)"/><use xlink:href="#m" width="11.4" height="77.2" transform="matrix(-.0728 -.106 -.0841 .0873 12.7 -18.55)"/><use xlink:href="#n" width="11.4" height="77.2" transform="matrix(-.0728 -.106 -.1557 .1617 18.15 -18.15)"/><use xlink:href="#o" width="36.9" height="16.4" transform="matrix(-.0728 -.106 -.0841 .0873 16.85 -17.45)"/><use xlink:href="#l" width="54" height="122" transform="matrix(-.0728 -.106 -.0841 .0873 25.85 -25.6)"/><use xlink:href="#m" width="11.4" height="77.2" transform="matrix(-.0728 -.106 -.0841 .0873 21.3 -23.9)"/><use xlink:href="#m" width="11.4" height="77.2" transform="matrix(-.0728 -.106 -.0841 .0873 21.85 -26.35)"/><use xlink:href="#m" width="11.4" height="77.2" transform="matrix(-.0728 -.106 -.0841 .0873 20.15 -25.6)"/><use xlink:href="#m" width="11.4" height="77.2" transform="matrix(-.0728 -.106 -.0841 .0873 22.35 -24.35)"/><use xlink:href="#m" width="11.4" height="77.2" transform="matrix(-.0728 -.106 -.0841 .0873 21.45 -24.9)"/><use xlink:href="#m" width="11.4" height="77.2" transform="matrix(-.0728 -.106 -.0841 .0873 21.05 -26.85)"/><use xlink:href="#m" width="11.4" height="77.2" transform="matrix(-.0728 -.106 -.0841 .0873 20.5 -27)"/><use xlink:href="#n" width="11.4" height="77.2" transform="matrix(-.0728 -.106 -.1557 .1617 25.95 -26.6)"/><use xlink:href="#o" width="36.9" height="16.4" transform="matrix(-.0728 -.106 -.0841 .0873 24.65 -25.9)"/><use xlink:href="#l" width="54" height="122" transform="matrix(-.0728 -.106 -.0841 .0873 33.8 -33.8)"/><use xlink:href="#m" width="11.4" height="77.2" transform="matrix(-.0728 -.106 -.0841 .0873 29.25 -32.1)"/><use xlink:href="#m" width="11.4" height="77.2" transform="matrix(-.0728 -.106 -.0841 .0873 29.8 -34.55)"/><use xlink:href="#m" width="11.4" height="77.2" transform="matrix(-.0728 -.106 -.0841 .0873 28.1 -33.8)"/><use xlink:href="#m" width="11.4" height="77.2" transform="matrix(-.0728 -.106 -.0841 .0873 30.3 -32.55)"/><use xlink:href="#m" width="11.4" height="77.2" transform="matrix(-.0728 -.106 -.0841 .0873 29.4 -33.1)"/><use xlink:href="#m" width="11.4" height="77.2" transform="matrix(-.0728 -.106 -.0841 .0873 29 -35.05)"/><use xlink:href="#m" width="11.4" height="77.2" transform="matrix(-.0728 -.106 -.0841 .0873 28.45 -35.2)"/><use xlink:href="#n" width="11.4" height="77.2" transform="matrix(-.0728 -.106 -.1557 .1617 33.9 -34.8)"/><use xlink:href="#o" width="36.9" height="16.4" transform="matrix(-.0728 -.106 -.0841 .0873 32.6 -34.1)"/><use xlink:href="#p" width="14.4" height="25.6" transform="matrix(.2486 .5715 -.5082 .2036 10.7 -15.95)"/><use xlink:href="#h" width="54" height="122" transform="matrix(.0538 -.1079 -.1115 -.0617 6.1 3.85)"/><use xlink:href="#i" width="11.4" height="77.2" transform="matrix(.0538 -.1079 -.1115 -.0617 2.6 -.35)"/><use xlink:href="#i" width="11.4" height="77.2" transform="matrix(.0538 -.1079 -.1115 -.0617 4.9 -.55)"/><use xlink:href="#i" width="11.4" height="77.2" transform="matrix(.0538 -.1079 -.1115 -.0617 3.45 -2.1)"/><use xlink:href="#i" width="11.4" height="77.2" transform="matrix(.0538 -.1079 -.1115 -.0617 3.4 .5)"/><use xlink:href="#i" width="11.4" height="77.2" transform="matrix(.0538 -.1079 -.1115 -.0617 3.5 -.5)"/><use xlink:href="#i" width="11.4" height="77.2" transform="matrix(.0538 -.1079 -.1115 -.0617 4.9 -1.55)"/><use xlink:href="#i" width="11.4" height="77.2" transform="matrix(.0538 -.1079 -.1115 -.0617 4.75 -2.2)"/><use xlink:href="#j" width="11.4" height="77.2" transform="matrix(.0538 -.1079 -.2065 -.1143 6.95 3.6)"/><use xlink:href="#k" width="36.9" height="16.4" transform="matrix(.0538 -.1079 -.1115 -.0617 5.8 2.5)"/><use xlink:href="#l" width="54" height="122" transform="matrix(.0538 -.1079 -.1115 -.0617 16.1 9.25)"/><use xlink:href="#m" width="11.4" height="77.2" transform="matrix(.0538 -.1079 -.1115 -.0617 12.6 5.05)"/><use xlink:href="#m" width="11.4" height="77.2" transform="matrix(.0538 -.1079 -.1115 -.0617 14.9 4.85)"/><use xlink:href="#m" width="11.4" height="77.2" transform="matrix(.0538 -.1079 -.1115 -.0617 13.45 3.3)"/><use xlink:href="#m" width="11.4" height="77.2" transform="matrix(.0538 -.1079 -.1115 -.0617 13.4 5.9)"/><use xlink:href="#m" width="11.4" height="77.2" transform="matrix(.0538 -.1079 -.1115 -.0617 13.5 4.9)"/><use xlink:href="#m" width="11.4" height="77.2" transform="matrix(.0538 -.1079 -.1115 -.0617 14.9 3.85)"/><use xlink:href="#m" width="11.4" height="77.2" transform="matrix(.0538 -.1079 -.1115 -.0617 14.75 3.2)"/><use xlink:href="#n" width="11.4" height="77.2" transform="matrix(.0538 -.1079 -.2065 -.1143 16.95 9)"/><use xlink:href="#o" width="36.9" height="16.4" transform="matrix(.0538 -.1079 -.1115 -.0617 15.8 7.9)"/><use xlink:href="#l" width="54" height="122" transform="matrix(.0538 -.1079 -.1115 -.0617 26.75 14.9)"/><use xlink:href="#m" width="11.4" height="77.2" transform="matrix(.0538 -.1079 -.1115 -.0617 23.25 10.7)"/><use xlink:href="#m" width="11.4" height="77.2" transform="matrix(.0538 -.1079 -.1115 -.0617 25.55 10.5)"/><use xlink:href="#m" width="11.4" height="77.2" transform="matrix(.0538 -.1079 -.1115 -.0617 24.1 8.95)"/><use xlink:href="#m" width="11.4" height="77.2" transform="matrix(.0538 -.1079 -.1115 -.0617 24.05 11.55)"/><use xlink:href="#m" width="11.4" height="77.2" transform="matrix(.0538 -.1079 -.1115 -.0617 24.15 10.55)"/><use xlink:href="#m" width="11.4" height="77.2" transform="matrix(.0538 -.1079 -.1115 -.0617 25.55 9.5)"/><use xlink:href="#m" width="11.4" height="77.2" transform="matrix(.0538 -.1079 -.1115 -.0617 25.4 8.85)"/><use xlink:href="#n" width="11.4" height="77.2" transform="matrix(.0538 -.1079 -.2065 -.1143 27.6 14.65)"/><use xlink:href="#o" width="36.9" height="16.4" transform="matrix(.0538 -.1079 -.1115 -.0617 26.45 13.55)"/><use xlink:href="#l" width="54" height="122" transform="matrix(.0538 -.1079 -.1115 -.0617 37.25 20.7)"/><use xlink:href="#m" width="11.4" height="77.2" transform="matrix(.0538 -.1079 -.1115 -.0617 33.75 16.5)"/><use xlink:href="#m" width="11.4" height="77.2" transform="matrix(.0538 -.1079 -.1115 -.0617 36.05 16.3)"/><use xlink:href="#m" width="11.4" height="77.2" transform="matrix(.0538 -.1079 -.1115 -.0617 34.6 14.75)"/><use xlink:href="#m" width="11.4" height="77.2" transform="matrix(.0538 -.1079 -.1115 -.0617 34.55 17.35)"/><use xlink:href="#m" width="11.4" height="77.2" transform="matrix(.0538 -.1079 -.1115 -.0617 34.65 16.35)"/><use xlink:href="#m" width="11.4" height="77.2" transform="matrix(.0538 -.1079 -.1115 -.0617 36.05 15.3)"/><use xlink:href="#m" width="11.4" height="77.2" transform="matrix(.0538 -.1079 -.1115 -.0617 35.9 14.65)"/><use xlink:href="#n" width="11.4" height="77.2" transform="matrix(.0538 -.1079 -.2065 -.1143 38.1 20.45)"/><use xlink:href="#o" width="36.9" height="16.4" transform="matrix(.0538 -.1079 -.1115 -.0617 36.95 19.35)"/><use xlink:href="#p" width="14.4" height="25.6" transform="matrix(-.2486 -.5715 .5082 -.2036 20.3 -22.8)"/><use xlink:href="#p" width="14.4" height="25.6" transform="matrix(-.2486 -.5715 .5082 -.2036 20.3 -22.8)"/><use xlink:href="#p" width="14.4" height="25.6" transform="matrix(.4288 -.3455 .3705 .4968 16.9 6.15)"/><use xlink:href="#p" width="14.4" height="25.6" transform="matrix(.4288 -.3455 .3705 .4968 16.9 6.15)"/><use xlink:href="#h" width="54" height="122" transform="matrix(-.1409 -.0289 .0022 .1534 34.35 2.25)"/><use xlink:href="#i" width="11.4" height="77.2" transform="matrix(-.1409 -.0289 .0022 .1534 32.15 7.85)"/><use xlink:href="#i" width="11.4" height="77.2" transform="matrix(-.1409 -.0289 .0022 .1534 30.6 5.2)"/><use xlink:href="#i" width="11.4" height="77.2" transform="matrix(-.1409 -.0289 .0022 .1534 29.85 7.4)"/><use xlink:href="#i" width="11.4" height="77.2" transform="matrix(-.1409 -.0289 .0022 .1534 32.5 6.55)"/><use xlink:href="#i" width="11.4" height="77.2" transform="matrix(-.1409 -.0289 .0022 .1534 31.45 6.8)"/><use xlink:href="#i" width="11.4" height="77.2" transform="matrix(-.1409 -.0289 .0022 .1534 29.55 5.45)"/><use xlink:href="#i" width="11.4" height="77.2" transform="matrix(-.1409 -.0289 .0022 .1534 29 5.8)"/><use xlink:href="#j" width="11.4" height="77.2" transform="matrix(-.1409 -.0289 .0041 .2841 33.65 1.25)"/><use xlink:href="#k" width="36.9" height="16.4" transform="matrix(-.1409 -.0289 .0022 .1534 33.2 3.1)"/><use xlink:href="#l" width="54" height="122" transform="matrix(-.1409 -.0289 .0022 .1534 34 -11.55)"/><use xlink:href="#m" width="11.4" height="77.2" transform="matrix(-.1409 -.0289 .0022 .1534 31.8 -5.95)"/><use xlink:href="#m" width="11.4" height="77.2" transform="matrix(-.1409 -.0289 .0022 .1534 30.25 -8.6)"/><use xlink:href="#m" width="11.4" height="77.2" transform="matrix(-.1409 -.0289 .0022 .1534 29.5 -6.4)"/><use xlink:href="#m" width="11.4" height="77.2" transform="matrix(-.1409 -.0289 .0022 .1534 32.15 -7.25)"/><use xlink:href="#m" width="11.4" height="77.2" transform="matrix(-.1409 -.0289 .0022 .1534 31.1 -7)"/><use xlink:href="#m" width="11.4" height="77.2" transform="matrix(-.1409 -.0289 .0022 .1534 29.2 -8.35)"/><use xlink:href="#m" width="11.4" height="77.2" transform="matrix(-.1409 -.0289 .0022 .1534 28.65 -8)"/><use xlink:href="#n" width="11.4" height="77.2" transform="matrix(-.1409 -.0289 .0041 .2841 33.3 -12.55)"/><use xlink:href="#o" width="36.9" height="16.4" transform="matrix(-.1409 -.0289 .0022 .1534 32.85 -10.7)"/><use xlink:href="#l" width="54" height="122" transform="matrix(-.1409 -.0289 .0022 .1534 33.55 -26.1)"/><use xlink:href="#m" width="11.4" height="77.2" transform="matrix(-.1409 -.0289 .0022 .1534 31.35 -20.5)"/><use xlink:href="#m" width="11.4" height="77.2" transform="matrix(-.1409 -.0289 .0022 .1534 29.8 -23.15)"/><use xlink:href="#m" width="11.4" height="77.2" transform="matrix(-.1409 -.0289 .0022 .1534 29.05 -20.95)"/><use xlink:href="#m" width="11.4" height="77.2" transform="matrix(-.1409 -.0289 .0022 .1534 31.7 -21.8)"/><use xlink:href="#m" width="11.4" height="77.2" transform="matrix(-.1409 -.0289 .0022 .1534 30.65 -21.55)"/><use xlink:href="#m" width="11.4" height="77.2" transform="matrix(-.1409 -.0289 .0022 .1534 28.75 -22.9)"/><use xlink:href="#m" width="11.4" height="77.2" transform="matrix(-.1409 -.0289 .0022 .1534 28.2 -22.55)"/><use xlink:href="#n" width="11.4" height="77.2" transform="matrix(-.1409 -.0289 .0041 .2841 32.85 -27.1)"/><use xlink:href="#o" width="36.9" height="16.4" transform="matrix(-.1409 -.0289 .0022 .1534 32.4 -25.25)"/><use xlink:href="#l" width="54" height="122" transform="matrix(-.1409 -.0289 .0022 .1534 33.3 -40.5)"/><use xlink:href="#m" width="11.4" height="77.2" transform="matrix(-.1409 -.0289 .0022 .1534 31.1 -34.9)"/><use xlink:href="#m" width="11.4" height="77.2" transform="matrix(-.1409 -.0289 .0022 .1534 29.55 -37.55)"/><use xlink:href="#m" width="11.4" height="77.2" transform="matrix(-.1409 -.0289 .0022 .1534 28.8 -35.35)"/><use xlink:href="#m" width="11.4" height="77.2" transform="matrix(-.1409 -.0289 .0022 .1534 31.45 -36.2)"/><use xlink:href="#m" width="11.4" height="77.2" transform="matrix(-.1409 -.0289 .0022 .1534 30.4 -35.95)"/><use xlink:href="#m" width="11.4" height="77.2" transform="matrix(-.1409 -.0289 .0022 .1534 28.5 -37.3)"/><use xlink:href="#m" width="11.4" height="77.2" transform="matrix(-.1409 -.0289 .0022 .1534 27.95 -36.95)"/><use xlink:href="#n" width="11.4" height="77.2" transform="matrix(-.1409 -.0289 .0041 .2841 32.6 -41.5)"/><use xlink:href="#o" width="36.9" height="16.4" transform="matrix(-.1409 -.0289 .0022 .1534 32.15 -39.65)"/><use xlink:href="#p" width="14.4" height="25.6" transform="matrix(.2486 .5715 -.5082 .2036 10.7 -15.95)"/><use xlink:href="#p" width="14.4" height="25.6" transform="matrix(-.4288 .3455 -.3705 -.4968 11.3 2.35)"/><use xlink:href="#h" width="54" height="122" transform="matrix(-.1338 -.0269 .0016 .1448 -4.55 -16.55)"/><use xlink:href="#i" width="11.4" height="77.2" transform="matrix(-.1338 -.0269 .0016 .1448 -6.65 -11.3)"/><use xlink:href="#i" width="11.4" height="77.2" transform="matrix(-.1338 -.0269 .0016 .1448 -8.1 -13.85)"/><use xlink:href="#i" width="11.4" height="77.2" transform="matrix(-.1338 -.0269 .0016 .1448 -8.8 -11.75)"/><use xlink:href="#i" width="11.4" height="77.2" transform="matrix(-.1338 -.0269 .0016 .1448 -6.3 -12.55)"/><use xlink:href="#i" width="11.4" height="77.2" transform="matrix(-.1338 -.0269 .0016 .1448 -7.3 -12.3)"/><use xlink:href="#i" width="11.4" height="77.2" transform="matrix(-.1338 -.0269 .0016 .1448 -9.1 -13.5)"/><use xlink:href="#i" width="11.4" height="77.2" transform="matrix(-.1338 -.0269 .0016 .1448 -9.65 -13.2)"/><use xlink:href="#j" width="11.4" height="77.2" transform="matrix(-.1338 -.0269 .003 .2683 -5.2 -17.45)"/><use xlink:href="#k" width="36.9" height="16.4" transform="matrix(-.1338 -.0269 .0016 .1448 -5.65 -15.8)"/><use xlink:href="#l" width="54" height="122" transform="matrix(-.1338 -.0269 .0016 .1448 -4.8 -29.6)"/><use xlink:href="#m" width="11.4" height="77.2" transform="matrix(-.1338 -.0269 .0016 .1448 -6.9 -24.35)"/><use xlink:href="#m" width="11.4" height="77.2" transform="matrix(-.1338 -.0269 .0016 .1448 -8.35 -26.9)"/><use xlink:href="#m" width="11.4" height="77.2" transform="matrix(-.1338 -.0269 .0016 .1448 -9.05 -24.8)"/><use xlink:href="#m" width="11.4" height="77.2" transform="matrix(-.1338 -.0269 .0016 .1448 -6.55 -25.6)"/><use xlink:href="#m" width="11.4" height="77.2" transform="matrix(-.1338 -.0269 .0016 .1448 -7.55 -25.35)"/><use xlink:href="#m" width="11.4" height="77.2" transform="matrix(-.1338 -.0269 .0016 .1448 -9.35 -26.55)"/><use xlink:href="#m" width="11.4" height="77.2" transform="matrix(-.1338 -.0269 .0016 .1448 -9.9 -26.25)"/><use xlink:href="#n" width="11.4" height="77.2" transform="matrix(-.1338 -.0269 .003 .2683 -5.45 -30.5)"/><use xlink:href="#o" width="36.9" height="16.4" transform="matrix(-.1338 -.0269 .0016 .1448 -5.9 -28.85)"/><use xlink:href="#l" width="54" height="122" transform="matrix(-.1338 -.0269 .0016 .1448 -5.25 -43.3)"/><use xlink:href="#m" width="11.4" height="77.2" transform="matrix(-.1338 -.0269 .0016 .1448 -7.35 -38.05)"/><use xlink:href="#m" width="11.4" height="77.2" transform="matrix(-.1338 -.0269 .0016 .1448 -8.8 -40.6)"/><use xlink:href="#m" width="11.4" height="77.2" transform="matrix(-.1338 -.0269 .0016 .1448 -9.5 -38.5)"/><use xlink:href="#m" width="11.4" height="77.2" transform="matrix(-.1338 -.0269 .0016 .1448 -7 -39.3)"/><use xlink:href="#m" width="11.4" height="77.2" transform="matrix(-.1338 -.0269 .0016 .1448 -8 -39.05)"/><use xlink:href="#m" width="11.4" height="77.2" transform="matrix(-.1338 -.0269 .0016 .1448 -9.8 -40.25)"/><use xlink:href="#m" width="11.4" height="77.2" transform="matrix(-.1338 -.0269 .0016 .1448 -10.35 -39.95)"/><use xlink:href="#n" width="11.4" height="77.2" transform="matrix(-.1338 -.0269 .003 .2683 -5.9 -44.2)"/><use xlink:href="#o" width="36.9" height="16.4" transform="matrix(-.1338 -.0269 .0016 .1448 -6.35 -42.55)"/><use xlink:href="#l" width="54" height="122" transform="matrix(-.1338 -.0269 .0016 .1448 -5.35 -56.9)"/><use xlink:href="#m" width="11.4" height="77.2" transform="matrix(-.1338 -.0269 .0016 .1448 -7.45 -51.65)"/><use xlink:href="#m" width="11.4" height="77.2" transform="matrix(-.1338 -.0269 .0016 .1448 -8.9 -54.2)"/><use xlink:href="#m" width="11.4" height="77.2" transform="matrix(-.1338 -.0269 .0016 .1448 -9.6 -52.1)"/><use xlink:href="#m" width="11.4" height="77.2" transform="matrix(-.1338 -.0269 .0016 .1448 -7.1 -52.9)"/><use xlink:href="#m" width="11.4" height="77.2" transform="matrix(-.1338 -.0269 .0016 .1448 -8.1 -52.65)"/><use xlink:href="#m" width="11.4" height="77.2" transform="matrix(-.1338 -.0269 .0016 .1448 -9.9 -53.85)"/><use xlink:href="#m" width="11.4" height="77.2" transform="matrix(-.1338 -.0269 .0016 .1448 -10.45 -53.55)"/><use xlink:href="#n" width="11.4" height="77.2" transform="matrix(-.1338 -.0269 .003 .2683 -6 -57.8)"/><use xlink:href="#o" width="36.9" height="16.4" transform="matrix(-.1338 -.0269 .0016 .1448 -6.45 -56.15)"/><use xlink:href="#p" width="14.4" height="25.6" transform="matrix(-.4288 .3455 -.3705 -.4968 11.3 2.35)"/><use xlink:href="#p" width="14.4" height="25.6" transform="matrix(-.3179 .4629 -.4684 -.3909 10.15 -45.65)"/><use xlink:href="#h" width="54" height="122" transform="matrix(-.1338 -.0269 .0016 .1448 1.85 -13.8)"/><use xlink:href="#i" width="11.4" height="77.2" transform="matrix(-.1338 -.0269 .0016 .1448 -.25 -8.55)"/><use xlink:href="#i" width="11.4" height="77.2" transform="matrix(-.1338 -.0269 .0016 .1448 -1.7 -11.1)"/><use xlink:href="#i" width="11.4" height="77.2" transform="matrix(-.1338 -.0269 .0016 .1448 -2.4 -9)"/><use xlink:href="#i" width="11.4" height="77.2" transform="matrix(-.1338 -.0269 .0016 .1448 .1 -9.8)"/><use xlink:href="#i" width="11.4" height="77.2" transform="matrix(-.1338 -.0269 .0016 .1448 -.9 -9.55)"/><use xlink:href="#i" width="11.4" height="77.2" transform="matrix(-.1338 -.0269 .0016 .1448 -2.7 -10.75)"/><use xlink:href="#i" width="11.4" height="77.2" transform="matrix(-.1338 -.0269 .0016 .1448 -3.25 -10.45)"/><use xlink:href="#j" width="11.4" height="77.2" transform="matrix(-.1338 -.0269 .003 .2683 1.2 -14.7)"/><use xlink:href="#k" width="36.9" height="16.4" transform="matrix(-.1338 -.0269 .0016 .1448 .75 -13.05)"/><use xlink:href="#l" width="54" height="122" transform="matrix(-.1338 -.0269 .0016 .1448 1.6 -26.85)"/><use xlink:href="#m" width="11.4" height="77.2" transform="matrix(-.1338 -.0269 .0016 .1448 -.5 -21.6)"/><use xlink:href="#m" width="11.4" height="77.2" transform="matrix(-.1338 -.0269 .0016 .1448 -1.95 -24.15)"/><use xlink:href="#m" width="11.4" height="77.2" transform="matrix(-.1338 -.0269 .0016 .1448 -2.65 -22.05)"/><use xlink:href="#m" width="11.4" height="77.2" transform="matrix(-.1338 -.0269 .0016 .1448 -.15 -22.85)"/><use xlink:href="#m" width="11.4" height="77.2" transform="matrix(-.1338 -.0269 .0016 .1448 -1.15 -22.6)"/><use xlink:href="#m" width="11.4" height="77.2" transform="matrix(-.1338 -.0269 .0016 .1448 -2.95 -23.8)"/><use xlink:href="#m" width="11.4" height="77.2" transform="matrix(-.1338 -.0269 .0016 .1448 -3.5 -23.5)"/><use xlink:href="#n" width="11.4" height="77.2" transform="matrix(-.1338 -.0269 .003 .2683 .95 -27.75)"/><use xlink:href="#o" width="36.9" height="16.4" transform="matrix(-.1338 -.0269 .0016 .1448 .5 -26.1)"/><use xlink:href="#l" width="54" height="122" transform="matrix(-.1338 -.0269 .0016 .1448 1.15 -40.55)"/><use xlink:href="#m" width="11.4" height="77.2" transform="matrix(-.1338 -.0269 .0016 .1448 -.95 -35.3)"/><use xlink:href="#m" width="11.4" height="77.2" transform="matrix(-.1338 -.0269 .0016 .1448 -2.4 -37.85)"/><use xlink:href="#m" width="11.4" height="77.2" transform="matrix(-.1338 -.0269 .0016 .1448 -3.1 -35.75)"/><use xlink:href="#m" width="11.4" height="77.2" transform="matrix(-.1338 -.0269 .0016 .1448 -.6 -36.55)"/><use xlink:href="#m" width="11.4" height="77.2" transform="matrix(-.1338 -.0269 .0016 .1448 -1.6 -36.3)"/><use xlink:href="#m" width="11.4" height="77.2" transform="matrix(-.1338 -.0269 .0016 .1448 -3.4 -37.5)"/><use xlink:href="#m" width="11.4" height="77.2" transform="matrix(-.1338 -.0269 .0016 .1448 -3.95 -37.2)"/><use xlink:href="#n" width="11.4" height="77.2" transform="matrix(-.1338 -.0269 .003 .2683 .5 -41.45)"/><use xlink:href="#o" width="36.9" height="16.4" transform="matrix(-.1338 -.0269 .0016 .1448 .05 -39.8)"/><use xlink:href="#l" width="54" height="122" transform="matrix(-.1338 -.0269 .0016 .1448 1.05 -54.15)"/><use xlink:href="#m" width="11.4" height="77.2" transform="matrix(-.1338 -.0269 .0016 .1448 -1.05 -48.9)"/><use xlink:href="#m" width="11.4" height="77.2" transform="matrix(-.1338 -.0269 .0016 .1448 -2.5 -51.45)"/><use xlink:href="#m" width="11.4" height="77.2" transform="matrix(-.1338 -.0269 .0016 .1448 -3.2 -49.35)"/><use xlink:href="#m" width="11.4" height="77.2" transform="matrix(-.1338 -.0269 .0016 .1448 -.7 -50.15)"/><use xlink:href="#m" width="11.4" height="77.2" transform="matrix(-.1338 -.0269 .0016 .1448 -1.7 -49.9)"/><use xlink:href="#m" width="11.4" height="77.2" transform="matrix(-.1338 -.0269 .0016 .1448 -3.5 -51.1)"/><use xlink:href="#m" width="11.4" height="77.2" transform="matrix(-.1338 -.0269 .0016 .1448 -4.05 -50.8)"/><use xlink:href="#n" width="11.4" height="77.2" transform="matrix(-.1338 -.0269 .003 .2683 .4 -55.05)"/><use xlink:href="#o" width="36.9" height="16.4" transform="matrix(-.1338 -.0269 .0016 .1448 -.05 -53.4)"/><use xlink:href="#p" width="14.4" height="25.6" transform="matrix(.5465 3.3293 -.274 .0198 -2.7 -46.7)"/><use xlink:href="#p" width="14.4" height="25.6" transform="matrix(.3357 3.7026 -.2048 -.0027 -3.2 -51.6)"/><use xlink:href="#p" width="14.4" height="25.6" transform="matrix(.3357 3.7026 -.2048 -.0027 -9.4 -52.85)"/><use xlink:href="#p" width="14.4" height="25.6" transform="matrix(.2143 3.6983 -.2054 -.0104 -8.7 -53.4)"/><use xlink:href="#q" width="43.9" height="61.4" transform="matrix(1.0002 .0913 .0239 1.0656 -8.55 -52.25)"/></g></g></svg>