<svg xmlns="http://www.w3.org/2000/svg" xmlns:xlink="http://www.w3.org/1999/xlink" width="66" height="78" viewBox="0 0 66 78"><defs><radialGradient id="c" cx="0" cy="0" r="819.2" gradientTransform="matrix(-.01 0 0 0 -3.35 -38.8)" gradientUnits="userSpaceOnUse" spreadMethod="pad"><stop offset="0" stop-color="#fcf3d8"/><stop offset="1" stop-color="#fcf3d8" stop-opacity="0"/></radialGradient><radialGradient id="b" cx="0" cy="0" r="819.2" gradientTransform="matrix(-.01 0 0 .01 11.4 -19.7)" gradientUnits="userSpaceOnUse" spreadMethod="pad"><stop offset="0" stop-color="#fcf3d8"/><stop offset="1" stop-color="#fcf3d8" stop-opacity="0"/></radialGradient><radialGradient id="a" cx="0" cy="0" r="819.2" gradientTransform="matrix(-.01 0 0 .01 -15.65 -28.15)" gradientUnits="userSpaceOnUse" spreadMethod="pad"><stop offset="0" stop-color="#fcf3d8"/><stop offset="1" stop-color="#fcf3d8" stop-opacity="0"/></radialGradient><g id="f"><path fill="#ae942b" d="M7.6 1.6q-3.1.9-5.5-.1 2.4-3 5.5.1M0 9.4Q1.9 4.1 7.9 2v.2z"/><path fill="#8c7722" d="M8.5 1.8q3.4.3 2 3.5l-.4.9q-1.7 0-1.6-4.4m-.6.4q-.6 5-4.4 6.5L3 7.1 2.6 9 0 9.3z"/></g><g id="e"><path fill="#000" fill-opacity=".3" d="M.1 61.4 0 59l14.5-7 1 5.4 22.7 11.8-6.5 5.4-5 .6-6-3.2Q0 72.9 0 61.5"/><path fill="#d19c43" d="m38.1 55.6-6.1 9-3.4-7.8-.1-.3 8.8-2.3z"/><path fill="#6a4d1a" d="m38 55.7.1-.2 1.4-2 2.7-1.5q1.6 5.9-4.1 3.6m-9.5 1.1 3.4 7.8v2.8l-2.8-3.1-4-.6-1.6-4.2.6-1.4-4.3-2-1.8.9-.4 1.9-7.5-2-1.7-4-1.6-.6v-6.8l.8-.2q-1.5 4 4.7 7.1l.3.3q5.6 3.1 9.5.1zm15.2-5.5 2.1-1.2q2 2.1-.4 2.4z"/><path fill="#b07e2b" d="m38.1 55.6-.8-1.5 2.2-.6zm-6.1 9 6-8.9q5.8 2.3 4.2-3.6l1.5-.9v.1l1.6 1.2q2.5-.2.5-2.4l11.3-6.5 1 1.8V52l-1 1.5v2.1h-6.6l-7.3 5.8 1.5-5.7.3 1.3-.3-1.4-1-4.4 1 4.4-1.5 5.8-2.7 2-2-1-3.6 1.9-1 3H32zm19.8-11.7.2 2.8zm1-3.8.8 6.6z"/><path fill="#422e17" d="m37.3 54.1-8.8 2.3.1.3-6.4-4L8.5 45l-.7.1-1 .3-1.2.3L8 41.5l19-10.9 11.2.3L56 41.7l1 1.8L45.8 50l-2.1 1-1.5 1-2.7 1.4z"/><path fill="#ba862e" d="m5.6 45.7 1.3-.3v6.8l-1.4-.6V46z"/><path fill="#573f15" d="m7.8 45.2.7-.2 13.7 7.7q-4 3-9.5-.2l-.3-.2q-6.2-3.1-4.6-7.1"/><path fill="#5c543b" d="m43.2 61.4 7.3-5.9H52l1.5.1.2 1.5-.2-1.5h3.7v4.8H57l-2.5.6-.1.1-.3.5-1.1 1.6-2.2 3.1-.2.3-4.2-.1-.6.2-.4.1-.9.3-1 1-.7.9-1.5.2-.8.3-2 1-.5.8-.8.9-3.5 1.6-1.7.8v-7.3h1.9l1-3 3.6-1.9 2 1zM6.9 59.7l-1.2-.5h-.2v-7.6l1.4.5zM52 56.6l-.1-1z"/><path fill="#3e3828" d="m32 74.6-.6-.2-1.7-.5-2.8-2.2-.2-.2-2.2-1.8-.4-.4-2-1.5h-4.3l-.2-.1-.1-.2-8.4-7-2.2-.8v-7.6l1.6.6 1.7 4.1 7.5 2 .4-1.9 1.8-.9 4.3 2-.6 1.4 1.6 4.2 4 .6 2.8 3z"/><path fill="none" stroke="#6f4d26" stroke-linecap="round" stroke-linejoin="round" stroke-opacity=".5" stroke-width="__RESOLUTION__" d="m43.8 51.2 1 4.4.3 1.4m-1.8 4.4 1.5-5.7" vector-effect="non-scaling-stroke"/><path fill="none" stroke="#000" stroke-linecap="round" stroke-linejoin="round" stroke-opacity=".3" stroke-width="1" d="M56 41.7 38.2 30.9 27 30.6 8 41.5l-2.4 4.2-.1.2v13.3h.2m52.5-14V52l-1 1.5v6.9H57m-2.6.8-.3.4M53 63.3l-2.2 3.1m-5 .4-.4.1m-1.9 1.4-.7.8m-2.3.5-2 1-.5.8m-4.2 2.5-1.8.8h0l-.6-.2m-4.5-2.7-.2-.2m-2.2-1.8-.4-.4m-2.7-1.5H20m-2.4-.1-.1-.2"/><path fill="none" stroke="#6f4d26" stroke-linecap="round" stroke-linejoin="round" stroke-width="1" d="m52 55.6-.2-2.8m.2 2.8v1m1.5-1 .2 1.5m-.2-1.5-.7-6.6"/><path fill="#dcd0c9" d="m17 16.5.4.5zm.4 6-.7-.4q-3.7-3.5-2.2-7.6 1.8-4.5 3-2.5v.2q1.8 3.2 2.5 7.2l-.4 1-2.3-3.4.2 2.1v.1l1.7 1.8-.1.4-1.4-1z"/><path fill="#cebeb5" d="m17.6 22.4.1-2 1.5 1-.5.9zm1.7-1.4-1.6-1.7-.1-.2-.2-2 2.3 3.3z"/><path fill="none" stroke="#000" stroke-linecap="round" stroke-linejoin="round" stroke-opacity=".3" stroke-width="__RESOLUTION__" d="m17.4 17-.3-.5m.6 3.9 1.5 1 .1-.4.4-.6-2.3-3.4m.2 5.4 1.1-.1.5-.9" vector-effect="non-scaling-stroke"/><path fill="none" stroke="#000" stroke-linecap="round" stroke-linejoin="round" stroke-opacity=".3" stroke-width="1" d="m19.7 20.4.4-1q-.7-4-2.4-7.1v-.1l-.1-.2q-1.2-2-3 2.5-1.5 4.1 2.2 7.6l.8.3"/><path fill="#a88977" d="m52.2 21.5 4.3 4.8q-.6 3.4-4.1 2.3l-.5-.1q-.6-2.5-3.7-5.8-3.7-3.7-6.4-4.8l-.1-.1-5.2-2.2-3.1-.7h3.8l1 1.2q2.3.6 4.9 2l5.6 4.1.2.2q5.1 2.5 3.3-.9M18.5 21l.4-.4 1-1.2 1.8-1.3.3-.2q2.3-1.7 5.3-2.2-3.7 1.8 4.2 2.4 4.6 0 12.7 7.6 2 1.7 3 .8 1-1-.4-3.5v.1q2 2 3 4.3l.1.1v.2q.3 3.7-3.9 6.9l-.1.1h-.1l-2.1.6q-1.8-7.2-6-10.8-6.9-4.6-14.9-4.2z"/><path fill="#d1c1b7" d="M52.2 21.5q1.8 3.4-3.3.9l-.2-.2-5.6-4.1q-2.6-1.4-4.9-2l-1-1.2q8.5.7 15 6.6m-24.9-5.9h.6l1.3-.2h.5q4.2-.1 8.6 1.7t7.6 4.9l.9 1q1.5 2.4.4 3.4-1 .9-3-.7-8.1-7.8-12.7-7.7-8-.6-4.2-2.4"/><path fill="#7d6251" d="m33.4 14.9 3.1.7 5.2 2.2.1.1q2.8 1.1 6.4 4.8 3.1 3.3 3.7 5.8l.5.1q3.5 1.1 4-2.3l.6.7q1.2 2.6.7 5.4-4 7.5-6.5 3.6v-.7q.1-3.7-1.3-7.6v-.4q-1.1-2.3-3-4.3h-.1l-1-1q-3.2-3.1-7.5-4.9-4.4-1.8-8.6-1.7v-.1l2.7-.3z"/><path fill="#5c4941" d="M57.7 32.4q-.7 4-5 8.2l-.2.1q-1.4 1.9-3.5 1.8l-.1.2q-1.2 1.3-3.1 1.9h-.3l-4.4.1q.1-3.2-.1-5.8 5.4 6 10.3-3.6v.7q2.4 3.9 6.4-3.6M51.2 36l-.3 2.6q-.4 2.4-1.9 4 1.5-1.6 1.9-4z"/><path fill="#8c6c59" d="m41 38.9-.8-4.2-.2-.4q-2-6.5-7.5-9l-.3-.2q-9-3.7-14.5-1.9l.7-1.9.1-.2v-.2l4.3-.7q8-.4 14.9 4.2 4.2 3.6 6 10.9l2-.6.1-.1.2-.1q4.2-3.2 3.9-6.9 1.4 4 1.4 7.6-5 9.6-10.3 3.7"/><path fill="none" stroke="#000" stroke-linecap="round" stroke-linejoin="round" stroke-opacity=".3" stroke-width="1" d="m56.5 26.3-4.3-4.8q-6.5-5.9-15-6.6m-.4 0h-3.4m23 11.4.6.7q1.2 2.6.7 5.4M18.5 20.9l.4-.4 1-1.2 1.8-1.3.3-.2q2.3-1.7 5.3-2.2m.6 0 1.3-.2h.5v-.1l2.7-.3"/><path fill="none" stroke="#000" stroke-linecap="round" stroke-linejoin="round" stroke-opacity=".3" stroke-width="__RESOLUTION__" d="M57.7 32.4q-.7 4-5 8.2l-.2.1q-1.4 1.9-3.5 1.8l-.1.2q-1.2 1.3-3.1 1.9h-.3l-4.4.1q.1-3.2-.1-5.8l-.8-4.2-.2-.4q-2-6.5-7.5-9l-.3-.2q-9-3.7-14.5-1.9l.7-1.9.1-.2v-.2m32.8 14.4v.7l-.4 2.6q-.4 2.4-1.9 4M29.7 15.3q4.2-.1 8.6 1.7t7.6 4.9l.9 1m0 0q2 2 3 4.3m.1.3q1.4 4 1.4 7.6" vector-effect="non-scaling-stroke"/><path fill="#d1c1b7" d="M38.2 28.1q-1.7 4.1-6 3.7l-.5-.2q-9.7-9-18.1-6l.2-.2q3-3.2 7-3.7 5-.6 10.3 1.6 4.3 1.7 7.1 4.8"/><path fill="#a88977" d="M13.6 25.7q8.4-3.1 18.2 5.9l.4.2q4.3.4 6-3.7l1.5 2 1.5 2.4v.1q-3 6.1-10.9 6.4-2-4.1-7-6.7-5.9-3-13-2 1-2 3-4.4z"/><path fill="#8c6c59" d="M10.3 30.3q7.1-1 13 2 5 2.6 7 6.8 7.8-.4 10.9-6.5 1.3 3 1.3 6.4v.2Q41 44 34.8 43.8q-2.2-.1-4.7-1.2-1.4-2-3.1-3.6-7.1-6.5-17.8-6.2z"/><path fill="#5c4941" d="m42.5 39.2-.1 2.1v.2l-.1.3q-.5 8.5-8.9 6-1.5-3-3.3-5.2 2.5 1.1 4.6 1.2 6.3.2 7.8-4.6"/><path fill="none" stroke="#000" stroke-linecap="round" stroke-linejoin="round" stroke-opacity=".3" stroke-width="__RESOLUTION__" d="M38.2 28.1q-2.9-3-7.1-4.8-5.3-2.2-10.3-1.6-4 .4-7 3.7l-.1.1-.1.1m-.3.3q-2 2.4-3 4.4m30.9 2.3v-.1L39.7 30l-1.5-1.9m4.3 11.1-.1 2.1v.2l-.1.3q-.5 8.5-8.9 6-1.5-3-3.3-5.2m11.1-10q1.3 3 1.3 6.4" vector-effect="non-scaling-stroke"/><path fill="none" stroke="#000" stroke-linecap="round" stroke-linejoin="round" stroke-opacity=".3" stroke-width="1" d="M30.1 42.6q-1.4-2-3.1-3.6-7.1-6.5-17.8-6.2l1-2.5"/><path fill="#000" fill-opacity=".3" d="M38.2 34q-.6 2.1-2.3 3 4.9-.3 6.8 2.8-6.1 2.7-11.9-1.1v-.2q.5-5.7 7.4-4.5M15 30.3q-7.5 1-.4-6.3l.3-.2q2.3-.5 2 4.3.5-3.4 3.6-5 2.6 1.8-1.3 5.1l-.5.6z"/><path fill="#dcd0c9" d="m31.3 39.2 1.8-2.4 1-.1-.1.1q5.2-3.3 11-.9h-.2l-5.6.5-.2.4-.1.2q-5 .3-7.6 2.3zm4.4-6.6-1.3.4-1.7 1.6v.7l-1.5 3.9-.4.3q-.8-7.2 5.4-7.7l-.4.6zM17.3 30l-.1-2.5-.6-.5.3-.7-1-3.9q3.3 4.8 1.9 7zm-3.4-5.1.3.5.5.6q.7 1.1 1 2.6l.2 1.1v.3h-.1l-.1-.1-.1-.2-.3-.6q-1.3-2.2-2-2.7l-.1-1-1.5-.4-.3-.6-1.8-1.2-1.4-2.4-.4-2.1.1-.7q.6 3.3 3.2 5 1.6.7 2.8 1.9"/><path fill="#cebeb5" d="m34 36.7-.9.1-1.8 2.4 1.4-3.9v-.7l1.7-1.6 1.4-.4-.2.4-.7 2.1zm-2.8 2.5q2.6-2 7.6-2.2l.1-.2.2-.4 5.6-.4q-1.4.2-4.1 2.6-2.5 2-4.2 2-3.1-.1-5-.9zM15.8 23.6v-1.2.1l1.1 3.9-.3.7.6.5.1 2.5q-1-.4-1.4-1.5l-.2-1.8v-1.4l.1-.5zm-8-4.8.4 2.1 1.4 2.4 1.8 1.2.3.6 1.5.4v1q.8.5 2.1 2.8l.3.4.1.3v.1h.1l-.3.1-.3.1-1.8.3-.6-.1q-1.1-.2-1.8-1l-.6-.8v-.2q-3.1-6.8-2.7-9.7m3 6.8q1.2 3.4 4.3 4.3-3.1-.9-4.2-4.3"/><path fill="#705647" d="M31 46v-.2l-.6-1q-.8-1-2.2-.6-1.6.4-2 1.8v1.1l-.3.2-.3.2q0-3.9 2.7-4t3 1.7l.9.3.2 1zm-1.1 2.7q1.7 1.1 1.5 2.8-.1.7-.6 1.5-.6 1-2 .2-1.2-.7-.6-1.6l.2-.1q.9-1.5-.2-2.4zM10 39.5q-.5-.7-.1-1.5.7-2-.7-2.7-1-.3-1.2.3.5-2.2 1.9-1l1 1.5q.4 2-.8 3.4zm.2 0q.5.2 1-.4l.7-1.4.2-.6.3 1.7-.7 1.3-1.2-.1z"/><path fill="#d1c1b7" d="M31 45.8v.3q-2.4-.5-4.8 1V46q2.7-1.7 4.8-.2m-5.4-9.9q-2.3-.2-3.8 2-2.6-2.4-5.4-3l-.5-.1q-4.2-.3-2.7-2.2l.3-.3.7-.6h.9l1.6.1q2.3.3 4.6 1.4t4.3 2.7M8 35.5q1.7.5 1.7 3.5l-1.9-2.3v-.4z"/><path fill="#a88977" d="m31 46 1.4.5-.2-1-.9-.3q-.3-1.8-3-1.7-2.6.1-2.7 4l.3-.2.3-.2q2.4-1.5 4.8-1m2.2 1.1-1.7-.4q-2.2-.8-3.1.9l-.1.1q-1 0-1.9.8h-.2q-1.5.8-2.7-.2t-2.5-.7h-.4q-3 .3-4.6-1.5l-.1-.1q-1.6-1.8-3.2-1.6-1-.2-1.7-.7t-.8-1.3l-.1-.2q-.4-1.2-2-1.7l-.6-.9-.5-.9-.8-1.6-.3-2.2L8 33.5Q6.7 35.1 6.8 37q.5 2 2 2.7 1.6.1 2.5 2.3.2 1.9 2.3 1.3 1.6-.1 4.1 2 1.9 1.5 3.2.5.3-4.7 6.8-8l.9.9q3.1 3.4 5 7.8zm-9-.3L24 45l.9-1.7-2.1 1.7-.3 1.5.3.6 1.7.3zm.4.4h1zm2.9-5.2q-1.6 0-2.5 1.1.9-1 2.5-1.1"/><path fill="#c2ada0" d="M26.3 46q.3-1.4 1.9-1.8 1.4-.4 2.2.6l.6 1q-2.1-1.5-4.7.2m1.4-8.2q-6.5 3.3-6.8 8-1.3 1-3.2-.5-2.5-2.1-4.1-2-2.1.6-2.3-1.3-.9-2.2-2.5-2.3-1.5-.7-2-2.7-.1-1.9 1.2-3.5l.4-.2q1.7-1 3.6-1.3l1.2-.2 1-.1-.7.6-.3.3q-1.5 1.9 2.7 2.2h.5q2.8.8 5.4 3.1 1.5-2.2 3.8-2zM8 35.6q1.7.4 1.7 3.4v.1l.4.4-.4-.4-1.9-2.4v-.4zm0 0q.4-.6 1.3-.3 1.4.8.7 2.7-.4.8.1 1.5 1.3-1.4.9-3.4l-1-1.5q-1.4-1.2-2 1m2.3 3.9q.6.2 1.1-.4l.7-1.4.2-.6q.2-1.1-.3-2.1.5 1 .3 2.1l.3 1.7-.7 1.3-1.2-.1zm4.1 1q-.7.1-.8 1.6 1 0 .8-1.6m1.3 3.1q1.5-.3 1-2-1.2 0-1 2"/><path fill="#8c6c59" d="M28.4 47.7q.9-1.7 3.2-.9l1.6.5-.1.3-3.2 1.1-1.7.4H28q-5.4.9-10.9-1.3-3.6-1.5-6.1-3.8-1.7-1.5-3-3.4 1.7.5 2.1 1.7l.1.2q.2.8.8 1.3t1.7.7q1.6-.2 3.2 1.6l.1.1q1.6 1.8 4.6 1.5h.4q1.3-.2 2.5.8v-.1q1.2 1 2.7.2h.2q1-.8 1.9-.8zM24.3 45l-.1.1V47l.4.4-1.6-.3-.3-.6.3-1.5 2-1.7z"/><path fill="#422e17" d="m7 38.8.5.9q-1.8 0-1.1 1.2h-.1q.4.6 0 1.1l-1 .1q-1.1-.6-.9-1.9l.2-.1q.8-1.2 2.4-1.3"/><path fill="#f6eaa0" d="M9.7 39v.1"/><path fill="#571a4d" d="M14.4 40.6q.3 1.4-.8 1.5 0-1.5.8-1.6m1.3 3.1q-.2-2 1-2 .5 1.7-1 2"/><path fill="none" stroke="#000" stroke-linecap="round" stroke-linejoin="round" stroke-opacity=".3" stroke-width="__RESOLUTION__" d="M31.3 39.3q2.6-2 7.6-2.3l.1-.2m5.8-.8.2-.1q-5.8-2.4-11 .9v-.1l.9-1.6.7-2.1.1-.4m-3 2.7-1.5 3.9h0l-.4.3q-.8-7.2 5.4-7.7l-.4.6m9 3.6q-1.4.2-4.1 2.6-2.5 2-4.2 2-3.1-.1-5-.9l-.2-.5M15.9 22.5l-.1-.1v1.2m0-1q3.4 4.6 2 6.9m-4.6-3q.8.5 2.1 2.8m-.3.6q-3.1-.9-4.2-4.3M31 45.8v.3q-2.4-.5-4.8 1l-.3.2-.3.2-1-.1-.4-.4m2 .1v-.9m0-.2q.4-1.4 2-1.8 1.4-.4 2.2.6l.6 1M8 35.6l-.2.7v.4L9.7 39v.1l.4.4q-.5-.7-.1-1.5.7-2-.7-2.7-1-.3-1.2.3m2 3.9h.2q.5.2 1-.4m-1.2.4" vector-effect="non-scaling-stroke"/><path fill="none" stroke="#000" stroke-linecap="round" stroke-linejoin="round" stroke-opacity=".3" stroke-width="__RESOLUTION__" d="m33.2 47.3.4-.8q-1.9-4.4-5-7.8l-.9-1-2.1-1.8q-2-1.6-4.3-2.7-2.3-1-4.6-1.4M8 40.7q1.6.5 2 1.7m.1.2q.2.8.8 1.3t1.7.7q1.6-.2 3.2 1.6l.1.1q1.6 1.8 4.6 1.5h.4q1.3-.2 2.5.8m0-.1q1.2 1 2.7.2h.2q1-.8 1.9-.8v-.1M12 32q-2 .3-3.6 1.3" vector-effect="non-scaling-stroke"/><path fill="none" stroke="#000" stroke-linecap="round" stroke-linejoin="round" stroke-opacity=".3" stroke-width="1" d="M8 33.5 5.9 35l.3 2.1.8 1.7q-1.6.1-2.4 1.3l-.2.1q-.2 1.3.9 1.9h1q.4-.6 0-1.2h0q-.6-1.2 1.2-1.2m25.7 7.5-.1.3-3.2 1.2q1.7 1.1 1.5 2.8-.1.7-.6 1.5-.6 1-2 .2-1.2-.7-.6-1.6l.2-.1q.9-1.5-.2-2.4H28q-5.4.9-10.9-1.3-3.6-1.5-6.1-3.8-1.7-1.5-3-3.4m6-15.7q-1.3-1.2-3-1.9-2.6-1.7-3.2-5m3 11.4-.5-.8v-.2q-3.1-6.8-2.7-9.7m22.2 30-1.7.4"/><path fill="none" stroke="#6f0" stroke-linecap="round" stroke-linejoin="round" stroke-width="__RESOLUTION__" d="m10.1 42.3.1.2m13.3 6v-.1" vector-effect="non-scaling-stroke"/><path fill="none" stroke="#000" stroke-linecap="round" stroke-linejoin="round" stroke-opacity=".3" stroke-width="__RESOLUTION__" d="m12 37.8.2-.7q.2-1.1-.3-2.1m12.3 10 .8-1.7q.9-1 2.5-1.1" vector-effect="non-scaling-stroke"/><path fill="#000" fill-opacity=".3" d="M45.5 21.4h-1.1l-1.9-.5-1 1.3q-1.9.7-3.5 2.4l-1.6 1.6-2.2-1.4q7-5.8 8.8-5.4l.4-1q4.3-.9 6.3 1 1.5 1 2.1 2-2.7-2.4-5.5-.9zm-12.3-6 2.6-.4 1.2.5-2.1.4q-5.5 1-7.6 4.4l-.6 1.4-3.3-.3q4.2-6.4 9.8-6"/><path fill="#cebdb3" d="M36.4 2.9h-.5q-1.6.5-3 1.3l-.1-.3-.5-1.5L37.9.5h.3q1.8.3 3.7 1.7L39.3 2l-.7 1-.2.2zm-3.6 1 .1.3Q29.5 6 27.4 8.8l3.8.7-2.5 2.9-2.2-2.3.9-1.3-3-2.1q.5-.8 1-1.2L31.2 3zm-9.3 6 3 .2q-2.8 4.7-2.1 11.4h-.5l-.5-.1q-.9-2.5-.7-4.7l.6-2.3v-.1z"/><path fill="#dcd0c9" d="M32.9 4.2q1.4-.8 3-1.3h.5l2 .3.2-.2.6-1 2.7.2.3.2 1.5 1.8-.4.4q-3.3-3-9.2 2.9L32.9 7l-.2 1-1.6 1.5-3.7-.7q2.1-2.8 5.5-4.6m5.5 9.1Q40 10.5 42 10l5-1.2 5.2-.2.3.1 1 .6.7-1 1.7-.4.3.2q-.2 2.3-2.7 3-3-.9-6.8 0l-.6 2.2-2 1zl-1.2-2.4q-1.4 1.3-2.1 3.2l2.5.8zm-.8 1.6 3.4 1.6q-4 3.6-4.9 9.7l-1.3-1q1.1-6.5 2.8-10.3m-11.1-4.8 2.2 2.3L27 15q-1.4 3.4-.4 6.8l-1-.2-1.3-.2q-.7-6.7 2-11.4"/><path fill="#d0c0b7" d="m52.5 8.7-.3-.1-5.2.2-5 1.2q-2 .5-3.6 3.3l5.7 1q-1.7.9-3.1 2.2l-3.4-1.6.8-1.6-1.2-2.4q1.6-1.8 4.3-2.5l.4-.2 3.1-.8h.4q5.6.7 9.8-.2l.7.7-1.7.5-.7.9zM33.4 24.3l.3-4q.3-3 1-5l.4-1.2 2.5.8q-1.7 3.7-2.8 10.4z"/><path fill="#c6b1a6" d="M23.5 9.9q.3-2 1-3.2l2.9 2-1 1.4z"/><path fill="none" stroke="#000" stroke-linecap="round" stroke-linejoin="round" stroke-opacity=".3" stroke-width="__RESOLUTION__" d="M32.9 4.2q1.4-.8 3-1.3h.5m-3.5 1.3Q29.5 6 27.4 8.8l-1 1.3q-2.7 4.7-2 11.4h0-.5M52.5 8.7l-.3-.1-5.2.2-5 1.2q-2 .5-3.6 3.3l-.8 1.6q-1.7 3.7-2.8 10.4l1.4.9m-1.4-1-1.4-.9m-7.6-2.6-1.4-.2" vector-effect="non-scaling-stroke"/><path fill="none" stroke="#000" stroke-linecap="round" stroke-linejoin="round" stroke-opacity=".3" stroke-width="1" d="M41.9 2.2Q40 .7 38.2.5h-.4l-5.5 2 .5 1.4-1.7-1-5.6 2.6q-.6.4-1 1.2-.7 1.2-1 3.2l-.2 4.4v.1l-.6 2.2m8.5-7.1L32.7 8l.1-1 1.3.5q5.9-6 9.2-2.9l.4-.4-1.5-1.8-.3-.2m2.2 12 2-.9.6-2.2q3.8-.9 6.8 0 2.5-.7 2.7-3l-.3-.2-.7-.7q-4.2.9-9.9.2h-.2l-3.2.8-.4.2q-2.6.7-4.4 2.5-1.2 1.3-2 3.2m5.9 2.4q1.4-1.3 3.1-2.2m-15.4-2 2.5-2.8m-2.5 2.9L27 15"/><path fill="none" stroke="#000" stroke-linecap="round" stroke-linejoin="round" stroke-opacity=".3" stroke-width="__RESOLUTION__" d="m32.8 3.9.1.3m.5 20.1.3-4q.3-3 1-5l.4-1.2m5.9 2.4q-4 3.6-4.9 9.7" vector-effect="non-scaling-stroke"/><path fill="#a88977" d="M54.9 33.7h.1l.8-.2q-.9 2 2.4 3.5v.5q-2.7 1.1-3.7-2v-.1q-.2-.6.4-1.7m4.4 9q-2.1.1-1.7-2.6l.2-.1.9 1.6.7.5zM56 42q-.3 4-2.4 2.6h-.1v-.1Q53.9 41 56 42"/><path fill="#8c6c59" d="M54.9 33.7q-.6 1.1-.4 1.7v.1q1 3.1 3.8 2l.2 1.8-.2.3-.4.3h-.1l-.2.3q-.9.5-1.6.6-1.3.2-2.5-1.1l-.6-1-.1-.1q.7-4 2-4.9"/><path fill="#b79d8e" d="M58.2 37q-3.3-1.5-2.4-3.5 1.6.2 2.4 3.5m-.4 3 .1-.1.4-.4q1.2 1.5 1.1 2.6l-.7-.5z"/><path fill="#4a3c35" d="M50.3 41v-.2q.5-1.9 2.6-2l.6.9q-1.1 1.6-1.1 2.8Q51 41 50.3 41"/><path fill="#987661" d="M50.3 41q.7-.1 2 1.5l.2.7q-1.8 1-2.3-1.1H50z"/><path fill="#715748" d="M52.4 42.6q0-1.3 1.1-2.9 1.2 1.3 2.5 1.1.7 0 1.5-.6-.3 2.6 1.8 2.5l-.1.1-.7.8-1.5-.1-.9-2.2v.7q-2.2-1-2.6 2.5l-.1-.1q-.8-.5-1-1.2z"/><path fill="none" stroke="#000" stroke-linecap="round" stroke-linejoin="round" stroke-opacity=".3" stroke-width="1" d="M55.9 33.5q1.5.2 2.3 3.5m-8 4-.1 1v.1q.6 2.1 2.4 1.1.1.7.9 1.2l.1.1h.1l.1.1q2.1 1.4 2.4-2.6m2.1-2.5.3-.2-.2-1.8M56 41.3l.9 2.2 1.5.1.7-.8v-.1m.2-.6q.1-1.1-1.1-2.6"/><path fill="#8c6c59" d="M46.2 46.6v.8l-.1 1v.1l-.5 1.5-.4.6q-.3-1.1-1.1-1.3h-.5l-1 .3-.1.1-.1.1h-.1l-1.7 1.4-.5 1.3h-.5l.1-1.2q-.2-1-1.1-1.2h-.2l-.9-1.8.4-3.1.9-1.2q.4 1.5 1.5 2 3.7 2.3 5.7-1z"/><path fill="#b89f8f" d="M46.3 47.4v-.2l-.1-.7q2 .5 2.5 1.1l-1 .2zm-2.1 2q.8.1 1.1 1.3l.3 1.5-.2 1.2-1.4-1.9z"/><path fill="#a98b78" d="M46 45.2q-2 3-5.7.8-1.1-.5-1.5-2v-.2l-.1-1.4v-.1q4.5-4.1 6.9 1.5zm-2.4 4.1h.5l-.2 2.3 1.4 1.8-.2.6-1.2.2-1.2-1.8v-1.7zm2.5-.8.1-1.1 1.5.4 1-.1h.1l.1.8-1.6.5z"/><path fill="#715748" d="m38.8 44-.9 1.2-.4 3.1.9 1.8H38l-1.4.2q-1.7-3.5 1.9-7.9l.1 1.4zm3.5 5.7.2-.1.1-.1 1-.3-1 1.4.1 1.7 1.1 1.8 1.3-.2q-.9 2-3 .4l-.1-.1q-.7-1-.9-1.8-.3-1.5 1.2-2.7m3.3.2.5-1.5 1.1.5 1.7-.5-.8 1.1-.1.1q-1.2.8-2.4.3"/><path fill="#584438" d="m38.4 50 .2.1q1 .1 1.1 1.2l-.1 1.2-.9 1.3-.5.2-.4-1.5-1-1.2-1.2-.1 1.1-.9 1.4-.2z"/><path fill="#604517" d="m40.1 52.5.4-1.4 1.8-1.3q-1.5 1.3-1.2 2.7z"/><path fill="#a0806b" d="M38.2 54q-.9.3-2.1 0-2.5-.4-.5-2.8l1.3.1.9 1.2z"/><path fill="none" stroke="#000" stroke-linecap="round" stroke-linejoin="round" stroke-opacity=".3" stroke-width="1" d="M46.2 46.6 46 45m2.7 2.5q-.5-.6-2.5-1m-7.6-4.2q-3.6 4.4-1.9 7.9m1.5 3.7q-.9.3-2.1 0h0q-2.5-.4-.5-2.8m4 1.3-.9 1.3-.5.2m10.7-5.5-.8 1.1-.1.1q-1.2.8-2.4.3m-.4 3.4.3-1.2-.2-1.6M45 54q-.9 2-3 .4l-.1-.1q-.7-1-.9-1.8h0-1"/><path fill="#dcd0c9" d="m55.4 24.9.3-.1 1.5-1.1.5.7v.3l-.3 3.3q-1.5 11.3-6.2 6v-1.4l-.1-.1 2-.2 2.3-2.6-1.8-.9 1.4-.6-1.4.6q-1.9 1-2.6 3.5l-.5-2.8v-.2q.4-2.3 3-3.6zm-1 7.3-1.2.1z"/><path fill="#cebeb5" d="m53.6 28.8 1.8.8-2.2 2.7-2.1.2v-.2q.6-2.4 2.5-3.5"/><path fill="none" stroke="#000" stroke-linecap="round" stroke-linejoin="round" stroke-opacity=".3" stroke-width="1" d="m55.4 24.9.3-.1 1.5-1.1.5.7v.3l-.3 3.3"/><path fill="none" stroke="#000" stroke-linecap="round" stroke-linejoin="round" stroke-opacity=".3" stroke-width="__RESOLUTION__" d="M51.1 32.5H51v-.2l-.5-2.8m3.1-.7 1.4-.6m-1.4.6q-1.9 1-2.6 3.5l.1.2 2-.2 1.4-.1" vector-effect="non-scaling-stroke"/><path fill="#d8fcfa" d="m17.6 34.1.7 5.6-3-6.2-4.7-.2 5-1-1.1-7.6 2.3 7.1 6.5.5z"/><path fill="url(#a)" d="M-11.6-24.1q-1.7 1.6-4 1.6-2.4 0-4-1.6t-1.7-4 1.7-4q1.6-1.7 4-1.7 2.3 0 4 1.6 1.6 1.7 1.6 4 0 2.4-1.7 4" transform="translate(30.6 61.65)"/><path fill="url(#b)" d="M15-16.1q-1.6 1.5-3.6 1.5-2.1 0-3.6-1.5t-1.5-3.6 1.5-3.6q1.5-1.4 3.6-1.4 2 0 3.5 1.4 1.5 1.5 1.5 3.6T15-16.1" transform="translate(30.6 61.65)"/><path fill="url(#c)" d="M5-38.4q3 1.8 2.7 3-.4 1.1-3.8 1-3.5-.2-8.1-1.6t-7.5-3.1-2.7-3 3.9-1q3.4.1 8 1.5t7.6 3.1" transform="translate(30.6 61.65)"/></g><clipPath id="d"><path d="M1 1h64v76H1z"/></clipPath></defs><g clip-path="url(#d)"><g transform="translate(31.6 62.65)"><use xlink:href="#e" width="59.9" height="75.2" transform="translate(-30.6 -61.65)"/><use xlink:href="#f" width="10.9" height="9.3" transform="matrix(-.6423 .3954 -.2844 -.9869 32.6 -2.3)"/></g></g></svg>