<svg xmlns="http://www.w3.org/2000/svg" xmlns:xlink="http://www.w3.org/1999/xlink" width="82" height="129" viewBox="0 0 82 129"><defs><clipPath id="a"><path d="M1 1h80v127H1z"/></clipPath><g id="b"><path fill="#4f412b" fill-opacity=".6" d="M22 13.5v67.7l-5.2.5 28.9 43.5-30.1 1.1-15-7L0 79l4.4-5.5.8-38.5z"/><path fill="#817535" d="m51.2 5.5.3 3.5 3.4 1 3.6-1.5-2.7-3.3zM36.7 6.7 40 8.5h5.7l1.5-3.2L44.5 3l5.9-3h4.9l14 6.7v.2L65 9.5l4.4-.2 4.9-.3 2.8 1.3.9 1.7-29.5 14.8-4.4.2-8.4-3.9 1.4-2.3-3.2 1.4L20.6 16v-.1l1.6-2zm32.6.2v-.2h.1zM45 15.5l-3.6-.2-.8.4-.6 2 4.9.3 1.4-.9z"/><path fill="#786832" d="m51.2 5.5 4.6-.3 2.7 3.3-3.6 1.5-3.4-1zM44.5 3 47 5.3l-1.5 3.2h-5.7l-3.1-1.8zm.4 12.5 1.3 1.6-1.5.9-4.8-.3.6-2 .8-.4z"/><path fill="#ccc" d="M20.6 15.9h-.1m53.5 54 .7.3.1.8-5.7 2.5h-2zM49.5 82.3l1.2.5.1.8-5.7 2.5H43l-.4-.2z"/><path fill="#40391a" d="m20.6 16 13.2 6.3 3.2-1.5-1.4 2.3 8.4 4 2.1 1.6V38l-4.4-2-21.8-10.5-.2-.1v-1l.8-8.5m48.8-6.6-4.4.2 4.4-2.6z"/><path fill="#e7e7e7" d="m44 27 4.4-.2-2.3 1.9zm23 46.5h2.1L68 75.2zM43 86h2l-1 1.9zm-26.2 1.3-1.1-1.7h2.2z"/><path fill="#6c662d" d="M48.4 26.8 77.9 12l.8 1.5.2 6-1.3 2.8-3.1 1.5-10.9 5.5-6.2 3.2-1.7.9-9.5 4.8-.1-.2v-9.3zm30.3 28.1.5.8v7.6l-1.5.4.8 4.3.7 1.3V88l-1.5.6-2.4 1.1V71.8l-.5-.7-.1-.8-.7-.3.5-.2v-13zm-47.3 64.4-4.7 2.5-.2-.3V80l4.7-7.5h.2v8.4l.5.3-.5 1zm-11.6-1-1.4.7-1.6.7V87.4l1-1.7 5.8-2.5.4.7v32.4zm58-29.6v-6.5l-2.5 1.3 2.5-1.3zm-1.4-2.4-1.1.7zm-56.7 28.5 3.5-1.5v-3.6l-4.9 2.3v7-7l5-2.3-.1 3.5z"/><path fill="#816647" d="M74.5 23.8v3.7l-10.5 6-.4-4.2zm0 19v3.6l-4.3-1.6-.5-2.5zM60.8 68.7l1-.5-1.3 2.4-5.6-.4-1.6-3.7q1-2.3 1-4.6 0-2.9-1.5-4.1l-.2-.1 1.2-20.5-9.1 4.3-3-1.5v-4l4.4 2 .1.2 9.5-4.8v32.8zm-11.5-20-1 2.8-3.1.4-.7-2 1.8-1.9zM73 64.6l-.7 1.7-2.4.8-.4-2 1.5-1.4z"/><path fill="#91774f" d="M74.5 27.5v10.3h-2.3q1.4 1 2.3 2.5v2.5l-4.7-.5.4 2.5 4.3 1.6v23.3l-.5.2-7 3.5v.1l-11.6 5.9-5.9 3-7 3.5-.6.4-.2-.1v-9.4l-3.9-2.3 3.9.2V46.9l-4-2.7 4 .2V40l3 1.5 9.1-4.3-1.2 20.4q-1.5-1-3.6 0-2.3 1-3.9 3.8-1.5 2.7-1.5 5.6t1.5 4q1.6 1.3 3.9.3 2.2-1.1 3.8-3.9l.5-1 1.6 3.8 5.6.4 1.3-2.4 5.2-2.6-.3-3 .5-.1q2.3-1.1 3.8-3.9t1.5-5.5q0-2.9-1.5-4.1l-3.8-.2q-.9.4-1.7 1L64 33.6zM49.2 48.8l-3-.8-1.9 1.9.8 2 3-.4zM73 64.6l-2-1-1.5 1.6.4 1.8 2.4-.7z"/><path fill="#8d813a" d="m74.5 52.3 4 1.9.2.7-4.2 1.9zM26.5 80 22 72.5h9.2z"/><path fill="#a9925e" d="M75.3 89.9v4l-2.5-.1-1 2.4 3.5 2.6v3.2l-1.5.5v.2q.5.8 1.5 1.4v5.4l-7.2 3.3H68V75.2l1.1-1.7 5.7-2.5.5.7zm-24 31.6v.8l-7.2 3.3H44V87.8l1.1-1.7 5.7-2.5.5.8zm-3.6-20.1-1.3 4.4 1 2.8h1l.7-2.3z"/><path fill="#9d8255" d="M75.3 94v4.8l-3.5-2.6 1-2.4zm-27.6 7.3 1.4 4.9-.6 2.3h-1.1l-1-2.8z"/><path fill="#666" d="m68 112.8-.2-.1.2-4.5zm-12.6-9.2h.1z"/><path fill="#b79473" d="M67.8 112.7v.3l-16.5 8.4v-4.7l16.7-8.5zm-12.2-9.2 11.7 4.5-16 .2v-2.7l4-1.8z"/><path fill="#4f412b" d="m44 125.5-12.6-6V82.3l.5-1 9.8 5 .1.1.8-.4.4.2 1 1.8zm-17.5-4-6.7-3.2 4.3-2V83.9l-.6-.7-.1-.8-11-5.1h-1.7l-1.5.7v-5.4l2.6-5.1 10.2 5 4.5 7.5zm-9.7-1.9L4 113.7v-17l2-.9-.1-.1L4 94.2V81.7l.6-1.2 11 5.2 1 1.7zM68 75.2v33l-.7-.2-11.7-4.5h-.2V79.4L67 73.5z"/><path fill="#5e5126" d="m4.7 80.6.3-.8L9.2 78l1.5-.7h1.7l11 5.1.2.8-5.7 2.5h-2.2z"/><path fill="#5e5526" d="m11.8 67.5-.1-.2 1.1-3.3 7-3.4v5.9l11.6 5.3v.5l-.2.2H22z"/><path fill="#756140" d="M19.8 60.6V25.9l.1-.4L41.7 36v8.4l-4-.2 4 2.6v27.9l-3.9-.2 3.9 2.3v9.4l-9.8-5-.4-.3-.1-8.5v-.7l-11.6-5.2zm0-6.7 21.9 10.9z"/><path fill="#a68e59" d="m63.6 29.3.4 4.2 1.5 16.4 1.2 12.8.3 2.9-5.2 2.6-1 .5-3.4-36.2z"/><path fill="#584632" d="m57.4 32.6 3.4 36.1-5.1-2.5V33.4z"/><path fill="#c5af8c" d="m66.7 62.7-1.2-12.8q.8-.7 1.7-1.1l3.8.2q1.5 1.2 1.5 4.1T71 58.6q-1.5 2.8-3.8 3.9zm-14.1-5 .1.1q1.6 1.3 1.6 4.2 0 2.3-1 4.6l-.5.9q-1.6 2.8-3.8 3.8-2.3 1.1-3.9-.2-1.5-1.2-1.5-4 0-2.9 1.5-5.6 1.6-2.7 3.9-3.8 2.1-1 3.6 0"/><path fill="#372c1e" d="M55.4 79.4v24.3l-4.1 1.8V84.4l-.5-.7-.1-.7-1.2-.6z"/><path fill="#c1a686" d="m67.4 108 .5.3-16.6 8.4v-8.5z"/><path fill="#999" d="M31.4 72.4h-.2z"/><path fill="none" stroke="#26210f" stroke-linecap="round" stroke-linejoin="round" stroke-width="__RESOLUTION__" d="m44.5 3-7.7 3.7-14.6 7.2-1.6 2h-.1l-.8 8.4v1.1l.2.1-.1.3v34.8l-7 3.4-1.1 3.3v.2l-2.5 5.1V78L5 79.8l-.3.8-.6 1.2v12.4L6 95.7v.1l-1.9 1v16.9l12.7 5.9h0l1.6-.6 1.4-.7 6.7 3.2.2.3 4.7-2.5v.3l12.6 5.9h0l7.3-3.3v-.8l16.5-8.5v-.2l.2.1h0l7.3-3.3v-5.4q-1-.5-1.5-1.4v-.2l1.5-.5V89.8l2.5-1.1 1.4-.7V69.4l-.7-1.3-.8-4.3 1.5-.4v-7.6l-.5-.8-.2-.7-4-1.9v-12q-.9-1.5-2.3-2.5h2.3v-14l3.1-1.6 1.3-2.7-.2-6-.8-1.5-1-1.7L74.3 9l-4.9.3-4.4.2 4.4-2.6v-.2L55.4 0h-5zm24.8 3.7h.3l-.2.2v2.3m-5.8 20.1.4 4.2 1.5 16.4 1.2 12.8.3 2.9-5.2 2.6-1 .5h0l-5.1-2.5V33.4l1.6-.9zl10.9-5.5M46.1 38l.1.2 9.5-4.8m-14 2.6 4.4 2m-4.4-2L19.9 25.5m32.7 32.2h.1q1.6 1.3 1.6 4.2 0 2.3-1 4.6l-.5.9q-1.6 2.8-3.8 3.8-2.3 1.1-3.9-.2-1.5-1.2-1.5-4 0-2.9 1.5-5.6 1.6-2.7 3.9-3.8 2.1-1 3.6 0m13-7.7q.7-.7 1.6-1.1l3.8.2q1.5 1.2 1.5 4.1T71 58.6q-1.5 2.8-3.8 3.9l-.5.1m7.8-10.3v17.4l-.5.2.7.3.1.8.5.7v11.8l2.5-1.3v6.5M67 73.5l-11.6 5.9v24.3l-4.1 1.8V84.4l-.5-.7-.1-.7-1.2-.6 5.9-2.9m.1 24.1 11.8 4.5.7.3-.2 4.4M67 73.5l7-3.6M49.5 82.3l-7 3.6-.6.4-.2-.1-9.8-5-.5 1v37.1m10.3-54.5-22-10.9m35.8 49.7h-.1m-4.1 2v15.8m24-31.6v-6.3m0 3.5 1.1-.7m-52.9-3.1-.1-.8-11-5.1h-1.7l-1.5.7m22.2-5.7V81l.5.3M19.8 60.6v5.9l11.6 5.3v.5m-7.8 10.9.4.7v32.4l-4.2 2m-1.4.7-.1-7 5-2.3-.1 3.5-3.5 1.6" vector-effect="non-scaling-stroke"/></g></defs><g clip-path="url(#a)"><use xlink:href="#b" width="79.2" height="126.3" transform="translate(1 1)"/></g></svg>