<svg xmlns="http://www.w3.org/2000/svg" xmlns:xlink="http://www.w3.org/1999/xlink" width="603" height="731" viewBox="0 0 603 731"><defs><g id="h"><path fill="#963" d="m7.1.4.7-.4.6.4.7.2v1.2l-1.4.7V1.4L6.4.7l.5-.2zm-2 15.2v3.5l2 .3 1 .3.7.4.4.6.3.7-.2.6-.5.5-.7.5-1 .4-1.1.2H3.6l-1.2-.2-1-.3-.7-.5-.5-.6-.2-.6.2-.6.5-.6.6-.5 1-.3 1.1-.3h1v-3.9zm.5 5.1v-.8l-.1-.1-.1-.1-.3-.1v-.5.5l.3.1.1.1v.1l.1.1zM3.9 20v-.1l.2-.2.3-.1v-.5.5l-.3.1-.2.2zv.1zm1.2-.4.5.5z"/><path fill="#8d865f" d="M6.9.4h.2z"/><path fill="#ebdec9" d="m8.5.4.7.1.6.2.6.4.2.3 4 6.2.3.9-.3.9-.7.9-1 .7-1.5.6-1.8.4H8.3l-.6.1-1.3-.1h-.8l.9-7.4.4-1.3-.7-.2-.6-.2-.5-.3-.3-.4-.1-.4v-.4l.4-.3.5-.4L6.9.5l-.5.3V2l1.3.6 1.4-.7V.6z"/><path fill="#630" d="M9 12v.6l.8.4v1.2l-2.4 1.3v-1.2l-5.2-2.6.9-.4 1 .3 1.5.4h.8v1l1.3.7v-1.6h.6z"/><path fill="#482400" d="M7.4 15.5 5 14.4v1.2l-.7-.4V14l-2.2-1v-1.3l5.2 2.6zM6.4.7l1.3.7v1L6.4 2zm1.3 11.4v1.6l-1.3-.6V12zm-2.6 2.3-.7-.4z"/><path fill="#d7be88" d="m3.1 11.3-.4-.2-1.2-.7-.7-.9-.3-1 .3-.9 3.8-5.8h.1l.1.4.3.4.5.3.6.2.7.1-.4 1.4-.9 7.4-1.5-.4z"/><path fill="#56a901" d="m4.6 1.8.2-.4z"/><path fill="#aaa273" d="M3.9 20v.1z"/><path fill="none" stroke="#432d16" stroke-linecap="round" stroke-linejoin="round" stroke-width="__RESOLUTION__" d="m7.1.4.7-.4.6.4h0M9.1 12v.6l.7.4v1.2l-2.4 1.3L5 14.4V19l2 .3 1 .3.7.4.4.6.3.7-.2.6-.5.5-.7.5-1 .4-1.1.2H3.6l-1.2-.2-1-.3-.7-.5-.5-.6-.2-.6.2-.6.5-.6.6-.5 1-.3 1.1-.3h1v-5l-2.2-1v-1.3l.9-.4m1.5-9.5.2-.4m2.1-1h.2zm-.5 12.7V12m-2 2 .7.4m0 4.7v.5l.3.1.1.1v.1l.1.1v.7m-1.2-1.6v.5l-.3.1-.2.2v.2m1.7 0-.5-.5" vector-effect="non-scaling-stroke"/><path fill="none" stroke="#8d6f52" stroke-linecap="round" stroke-linejoin="round" stroke-width="__RESOLUTION__" d="m8.5.4.7.1.6.2h0l.6.4.2.3 4 6.2.3.9-.3.9-.7.9-1 .7-1.5.6-1.8.4H8.3l-.6.1-1.3-.1h-.8M4.8 1.4l.3-.3.5-.4L6.9.5h0l-.5.3V2l1.3.6 1.4-.7V.6L8.4.4M4.7 1.8v-.4M7 3.3 6.2 3l-.6-.2-.5-.3-.3-.4-.1-.4" vector-effect="non-scaling-stroke"/><path fill="none" stroke="#775e44" stroke-linecap="round" stroke-linejoin="round" stroke-width="__RESOLUTION__" d="m3.1 11.3-.4-.2-1.2-.7-.7-.9-.3-1 .3-.9 3.8-5.8h.1m1 10.2L4 11.6l-1-.3" vector-effect="non-scaling-stroke"/></g><g id="i"><path fill="#130d0d" fill-opacity=".4" d="M82.8 32.4 28.7 59.9l-27-14 53.8-27.5z"/><path fill="#493e2c" d="m15.6 24.4 18.7 30-4.2 2.2-18.9-30z"/><path fill="none" stroke="#251e16" stroke-linecap="round" stroke-linejoin="round" stroke-width="__RESOLUTION__" d="m15.6 24.4 18.7 30" vector-effect="non-scaling-stroke"/><path fill="none" stroke="#16120e" stroke-linecap="round" stroke-linejoin="round" stroke-width="__RESOLUTION__" d="m34.3 54.4-4.2 2.2" vector-effect="non-scaling-stroke"/><path fill="none" stroke="#000" stroke-linecap="round" stroke-linejoin="round" stroke-width="__RESOLUTION__" d="m11.2 26.7 4.4-2.3" vector-effect="non-scaling-stroke"/><path fill="#4d391a" d="m30 56.6-4.3-2.3-7.3-11.6-7.2 3.4L7 44l9.3-4.5-9.4-15.1 4.2 2.2 7.5 11.8 7.1-3.5 4.4 2.1-9.5 4.6z"/><path fill="none" stroke="#1d1712" stroke-linecap="round" stroke-linejoin="round" stroke-width="__RESOLUTION__" d="m30 56.6-4.3-2.3-7.3-11.6-7.2 3.4L7 44l9.3-4.5-9.4-15.1 4.2 2.2 7.5 11.8 7.1-3.5 4.4 2.1-9.5 4.6" vector-effect="non-scaling-stroke"/><path fill="#493e2c" d="m70.6 36.3-18.9-30 4.4-2.2 18.7 30z"/><path fill="none" stroke="#322712" stroke-linecap="round" stroke-linejoin="round" stroke-width="__RESOLUTION__" d="m70.6 36.3-18.9-30 4.4-2.2 18.7 30z" vector-effect="non-scaling-stroke"/><path fill="#4d391a" d="m70.6 16.8-9.5 4.6 9.4 14.9-4.3-2.2-7.4-11.6-7.1 3.4-4.2-2.2 9.3-4.5-9.4-15 4.3 2.1L59 18.1l7.1-3.5z"/><path fill="none" stroke="#322712" stroke-linecap="round" stroke-linejoin="round" stroke-width="__RESOLUTION__" d="m70.6 16.8-9.5 4.6 9.4 14.9-4.3-2.2-7.4-11.6-7.1 3.4-4.2-2.2 9.3-4.5-9.4-15 4.3 2.1L59 18.1l7.1-3.5z" vector-effect="non-scaling-stroke"/><path fill="#826628" d="M.1 26.8 52.4 0 79 13.6l-1 .5-51.6 26.3h-.1l-1-.5z"/><path fill="#493e2c" d="m78 14.2 1-.6-.1 2.4-52.5 27v-2.6z"/><path fill="#988340" d="m25.4 39.9.9.5V43L.2 29.2 0 26.7l.1.1z"/><path fill="none" stroke="#000" stroke-linecap="round" stroke-linejoin="round" stroke-opacity=".4" stroke-width="__RESOLUTION__" d="M.1 26.8 52.4 0 79 13.6l-1 .5M26.4 40.5l-1-.5zV43L.2 29.2 0 26.7l.1.1" vector-effect="non-scaling-stroke"/><path fill="none" stroke="#221b0d" stroke-linecap="round" stroke-linejoin="round" stroke-width="__RESOLUTION__" d="m78 14.2 1-.6-.1 2.4-52.5 27m0-2.6" vector-effect="non-scaling-stroke"/><path fill="none" stroke="#000" stroke-linecap="round" stroke-linejoin="round" stroke-opacity=".3" stroke-width="__RESOLUTION__" d="M52.8 4 11.1 25.7" vector-effect="non-scaling-stroke"/><path fill="none" stroke="#000" stroke-linecap="round" stroke-linejoin="round" stroke-opacity=".1" stroke-width="__RESOLUTION__" d="M60.6 4.4 14.4 28.2m52.5-18L18.9 35" vector-effect="non-scaling-stroke"/><path fill="none" stroke="#000" stroke-linecap="round" stroke-linejoin="round" stroke-opacity=".2" stroke-width="__RESOLUTION__" d="M56.5 11 13.4 33.2m59.9-21.3-48 24.7" vector-effect="non-scaling-stroke"/></g><g id="ca" clip-path="none" transform="translate(12.95 14.4)"><use xlink:href="#a" width="72" height="2" transform="matrix(.54 .31 -.94 1.65 -11.05 10.55)"/></g><g id="bY" clip-path="none" transform="translate(12.95 14.4)"><use xlink:href="#a" width="72" height="2" transform="matrix(.54 .31 -.94 1.65 -9.85 9.5)"/></g><g id="bW" clip-path="none" transform="translate(12.95 14.4)"><use xlink:href="#a" width="72" height="2" transform="matrix(.54 .31 -.94 1.65 -8.65 8.5)"/></g><g id="bU" clip-path="none" transform="translate(12.95 14.4)"><use xlink:href="#a" width="72" height="2" transform="matrix(.54 .31 -.94 1.65 -7.45 7.5)"/></g><g id="bS" clip-path="none" transform="translate(12.95 14.4)"><use xlink:href="#a" width="72" height="2" transform="matrix(.54 .31 -.94 1.65 -6.25 6.55)"/></g><g id="bQ" clip-path="none" transform="translate(12.95 14.4)"><use xlink:href="#a" width="72" height="2" transform="matrix(.54 .31 -.94 1.65 -5.1 5.6)"/></g><g id="bO" clip-path="none" transform="translate(12.95 14.4)"><use xlink:href="#a" width="72" height="2" transform="matrix(.54 .31 -.94 1.65 -4 4.65)"/></g><g id="bM" clip-path="none" transform="translate(12.95 14.4)"><use xlink:href="#a" width="72" height="2" transform="matrix(.54 .31 -.94 1.65 -2.9 3.75)"/></g><g id="bK" clip-path="none" transform="translate(12.95 14.4)"><use xlink:href="#a" width="72" height="2" transform="matrix(.54 .31 -.94 1.65 -1.8 2.85)"/></g><g id="bI" clip-path="none" transform="translate(12.95 14.4)"><use xlink:href="#a" width="72" height="2" transform="matrix(.54 .31 -.94 1.65 -.75 1.95)"/></g><g id="bG" clip-path="none" transform="translate(12.95 14.4)"><use xlink:href="#a" width="72" height="2" transform="matrix(.54 .31 -.94 1.65 .3 1.1)"/></g><g id="bE" clip-path="none" transform="translate(12.95 14.4)"><use xlink:href="#a" width="72" height="2" transform="matrix(.54 .31 -.94 1.65 1.3 .3)"/></g><g id="bC" clip-path="none" transform="translate(12.95 14.4)"><use xlink:href="#a" width="72" height="2" transform="matrix(.54 .31 -.94 1.65 2.3 -.55)"/></g><g id="bA" clip-path="none" transform="translate(12.95 14.4)"><use xlink:href="#a" width="72" height="2" transform="matrix(.54 .31 -.94 1.65 3.25 -1.35)"/></g><g id="by" clip-path="none" transform="translate(12.95 14.4)"><use xlink:href="#a" width="72" height="2" transform="matrix(.54 .31 -.94 1.65 4.2 -2.1)"/></g><g id="bw" clip-path="none" transform="translate(12.95 14.4)"><use xlink:href="#a" width="72" height="2" transform="matrix(.54 .31 -.94 1.65 5.15 -2.9)"/></g><g id="bu" clip-path="none" transform="translate(12.95 14.4)"><use xlink:href="#a" width="72" height="2" transform="matrix(.54 .31 -.94 1.65 6 -3.6)"/></g><g id="bs" clip-path="none" transform="translate(12.95 14.4)"><use xlink:href="#a" width="72" height="2" transform="matrix(.54 .31 -.94 1.65 6.9 -4.35)"/></g><g id="bq" clip-path="none" transform="translate(12.95 14.4)"><use xlink:href="#a" width="72" height="2" transform="matrix(.54 .31 -.94 1.65 7.75 -5.05)"/></g><g id="bo" clip-path="none" transform="translate(12.95 14.4)"><use xlink:href="#a" width="72" height="2" transform="matrix(.54 .31 -.94 1.65 8.55 -5.75)"/></g><g id="bm" clip-path="none" transform="translate(12.95 14.4)"><use xlink:href="#a" width="72" height="2" transform="matrix(.54 .31 -.94 1.65 9.35 -6.4)"/></g><g id="bk" clip-path="none" transform="translate(12.95 14.4)"><use xlink:href="#a" width="72" height="2" transform="matrix(.54 .31 -.94 1.65 10.15 -7.05)"/></g><g id="bi" clip-path="none" transform="translate(12.95 14.4)"><use xlink:href="#a" width="72" height="2" transform="matrix(.54 .31 -.94 1.65 10.9 -7.65)"/></g><g id="bg" clip-path="none" transform="translate(12.95 14.4)"><use xlink:href="#a" width="72" height="2" transform="matrix(.54 .31 -.94 1.65 11.65 -8.25)"/></g><g id="be" clip-path="none" transform="translate(12.95 14.4)"><use xlink:href="#a" width="72" height="2" transform="matrix(.54 .31 -.94 1.65 12.35 -8.85)"/></g><g id="bc" clip-path="none" transform="translate(12.95 14.4)"><use xlink:href="#a" width="72" height="2" transform="matrix(.54 .31 -.94 1.65 13.05 -9.4)"/></g><g id="ba" clip-path="none" transform="translate(12.95 14.4)"><use xlink:href="#a" width="72" height="2" transform="matrix(.54 .31 -.94 1.65 13.7 -9.95)"/></g><g id="aY" clip-path="none" transform="translate(12.95 14.4)"><use xlink:href="#a" width="72" height="2" transform="matrix(.54 .31 -.94 1.65 14.35 -10.5)"/></g><g id="aW" clip-path="none" transform="translate(12.95 14.4)"><use xlink:href="#a" width="72" height="2" transform="matrix(.54 .31 -.94 1.65 14.95 -11)"/></g><g id="aU" clip-path="none" transform="translate(12.95 14.4)"><use xlink:href="#a" width="72" height="2" transform="matrix(.54 .31 -.94 1.65 15.55 -11.5)"/></g><g id="aS" clip-path="none" transform="translate(12.95 14.4)"><use xlink:href="#a" width="72" height="2" transform="matrix(.54 .31 -.94 1.65 16.1 -11.95)"/></g><g id="aQ" clip-path="none" transform="translate(12.95 14.4)"><use xlink:href="#a" width="72" height="2" transform="matrix(.54 .31 -.94 1.65 16.65 -12.45)"/></g><g id="aO" clip-path="none" transform="translate(12.95 14.4)"><use xlink:href="#a" width="72" height="2" transform="matrix(.54 .31 -.94 1.65 17.2 -12.85)"/></g><g id="aM" clip-path="none" transform="translate(12.95 14.4)"><use xlink:href="#a" width="72" height="2" transform="matrix(.54 .31 -.94 1.65 17.7 -13.25)"/></g><g id="aK" clip-path="none" transform="translate(12.95 14.4)"><use xlink:href="#a" width="72" height="2" transform="matrix(.54 .31 -.94 1.65 18.15 -13.65)"/></g><g id="aI" clip-path="none" transform="translate(12.95 14.4)"><use xlink:href="#a" width="72" height="2" transform="matrix(.54 .31 -.94 1.65 18.6 -14.05)"/></g><g id="aG" clip-path="none" transform="translate(12.95 14.4)"><use xlink:href="#a" width="72" height="2" transform="matrix(.54 .31 -.94 1.65 19.1 -14.4)"/></g><g id="aE" clip-path="none" transform="translate(12.95 14.4)"><use xlink:href="#a" width="72" height="2" transform="matrix(.54 .31 -.94 1.65 18.25 -13.6)"/></g><g id="aC" clip-path="none" transform="translate(12.95 14.4)"><use xlink:href="#a" width="72" height="2" transform="matrix(.54 .31 -.94 1.65 17.3 -12.85)"/></g><g id="aA" clip-path="none" transform="translate(12.95 14.4)"><use xlink:href="#a" width="72" height="2" transform="matrix(.54 .31 -.94 1.65 16.4 -12.1)"/></g><g id="ay" clip-path="none" transform="translate(12.95 14.4)"><use xlink:href="#a" width="72" height="2" transform="matrix(.54 .31 -.94 1.65 15.5 -11.35)"/></g><g id="aw" clip-path="none" transform="translate(12.95 14.4)"><use xlink:href="#a" width="72" height="2" transform="matrix(.54 .31 -.94 1.65 14.6 -10.55)"/></g><g id="au" clip-path="none" transform="translate(12.95 14.4)"><use xlink:href="#a" width="72" height="2" transform="matrix(.54 .31 -.94 1.65 13.65 -9.8)"/></g><g id="as" clip-path="none" transform="translate(12.95 14.4)"><use xlink:href="#a" width="72" height="2" transform="matrix(.54 .31 -.94 1.65 12.75 -9.05)"/></g><g id="aq" clip-path="none" transform="translate(12.95 14.4)"><use xlink:href="#a" width="72" height="2" transform="matrix(.54 .31 -.94 1.65 11.85 -8.3)"/></g><g id="ao" clip-path="none" transform="translate(12.95 14.4)"><use xlink:href="#a" width="72" height="2" transform="matrix(.54 .31 -.94 1.65 10.95 -7.55)"/></g><g id="am" clip-path="none" transform="translate(12.95 14.4)"><use xlink:href="#a" width="72" height="2" transform="matrix(.54 .31 -.94 1.65 10 -6.8)"/></g><g id="ak" clip-path="none" transform="translate(12.95 14.4)"><use xlink:href="#a" width="72" height="2" transform="matrix(.54 .31 -.94 1.65 9.1 -6.05)"/></g><g id="ai" clip-path="none" transform="translate(12.95 14.4)"><use xlink:href="#a" width="72" height="2" transform="matrix(.54 .31 -.94 1.65 8.2 -5.3)"/></g><g id="ag" clip-path="none" transform="translate(12.95 14.4)"><use xlink:href="#a" width="72" height="2" transform="matrix(.54 .31 -.94 1.65 7.25 -4.5)"/></g><g id="ae" clip-path="none" transform="translate(12.95 14.4)"><use xlink:href="#a" width="72" height="2" transform="matrix(.54 .31 -.94 1.65 6.35 -3.75)"/></g><g id="ac" clip-path="none" transform="translate(12.95 14.4)"><use xlink:href="#a" width="72" height="2" transform="matrix(.54 .31 -.94 1.65 5.45 -3)"/></g><g id="aa" clip-path="none" transform="translate(12.95 14.4)"><use xlink:href="#a" width="72" height="2" transform="matrix(.54 .31 -.94 1.65 4.55 -2.25)"/></g><g id="Y" clip-path="none" transform="translate(12.95 14.4)"><use xlink:href="#a" width="72" height="2" transform="matrix(.54 .31 -.94 1.65 3.6 -1.5)"/></g><g id="W" clip-path="none" transform="translate(12.95 14.4)"><use xlink:href="#a" width="72" height="2" transform="matrix(.54 .31 -.94 1.65 2.7 -.75)"/></g><g id="U" clip-path="none" transform="translate(12.95 14.4)"><use xlink:href="#a" width="72" height="2" transform="matrix(.54 .31 -.94 1.65 1.8 0)"/></g><g id="S" clip-path="none" transform="translate(12.95 14.4)"><use xlink:href="#a" width="72" height="2" transform="matrix(.54 .31 -.94 1.65 .9 .75)"/></g><g id="Q" clip-path="none" transform="translate(12.95 14.4)"><use xlink:href="#a" width="72" height="2" transform="matrix(.54 .31 -.94 1.65 -.05 1.55)"/></g><g id="O" clip-path="none" transform="translate(12.95 14.4)"><use xlink:href="#a" width="72" height="2" transform="matrix(.54 .31 -.94 1.65 -.95 2.3)"/></g><g id="M" clip-path="none" transform="translate(12.95 14.4)"><use xlink:href="#a" width="72" height="2" transform="matrix(.54 .31 -.94 1.65 -1.85 3.05)"/></g><g id="K" clip-path="none" transform="translate(12.95 14.4)"><use xlink:href="#a" width="72" height="2" transform="matrix(.54 .31 -.94 1.65 -2.8 3.8)"/></g><g id="I" clip-path="none" transform="translate(12.95 14.4)"><use xlink:href="#a" width="72" height="2" transform="matrix(.54 .31 -.94 1.65 -3.7 4.55)"/></g><g id="G" clip-path="none" transform="translate(12.95 14.4)"><use xlink:href="#a" width="72" height="2" transform="matrix(.54 .31 -.94 1.65 -4.6 5.3)"/></g><g id="E" clip-path="none" transform="translate(12.95 14.4)"><use xlink:href="#a" width="72" height="2" transform="matrix(.54 .31 -.94 1.65 -5.5 6.05)"/></g><g id="C" clip-path="none" transform="translate(12.95 14.4)"><use xlink:href="#a" width="72" height="2" transform="matrix(.54 .31 -.94 1.65 -6.45 6.8)"/></g><g id="A" clip-path="none" transform="translate(12.95 14.4)"><use xlink:href="#a" width="72" height="2" transform="matrix(.54 .31 -.94 1.65 -7.35 7.6)"/></g><g id="y" clip-path="none" transform="translate(12.95 14.4)"><use xlink:href="#a" width="72" height="2" transform="matrix(.54 .31 -.94 1.65 -8.25 8.35)"/></g><g id="v" clip-path="none" transform="translate(12.95 14.4)"><use xlink:href="#a" width="72" height="2" transform="matrix(.54 .31 -.94 1.65 -9.15 9.1)"/></g><g id="t" clip-path="none" transform="translate(12.95 14.4)"><use xlink:href="#a" width="72" height="2" transform="matrix(.54 .31 -.94 1.65 -10.1 9.85)"/></g><g id="r"><path fill="#cebb91" d="M1.2 10.1 1 10l-.7-.8-.3-1 .3-1L4 1.5h.1l.2.2zM8.7.1l.6.3.6.3.3.4 4 6.1.2 1-.2.9-.7.9-.4.2z"/><path fill="#dacda8" d="m1.2 10.1 3.2-8.5-.2-.1V1l.4-.4.5-.3L6.4 0v.1L6 .4v1.1l1.3.6 1.4-.7V.3L8 0l.7.2h-.1l4.5 10-.7.5-1.5.6-1.7.3H5.4l-1.7-.3-1.5-.6z"/></g><g id="o"><path fill="#d81c01" fill-opacity=".1" d="M11.8 10.5h-.2V9.3h2v.5l-1.3-.2zm2.3 1.2.9.4q.4-.1.5-.3V13h.3v.7H14zm7.6 2.6L21 14l-.2-.7-.4-1h1.3l.7.4.4.5v1zm5.3-4.1-2 1.2.7-2.1 1.5-.5z"/><path fill="#b82d2d" d="M13.5 9.8v.7h-1.7l.5-.9zm.8 0 .8.7.1.2q.3.5.2.9v.2l-.6.3-.9-.4h.3zm7.2 6.8v.6l-2.9.2-.4-.6 2.7-1zM33 11.3l-.6 1q-.8.5-2.1.6v-.5q1-1 2.7-1.1"/><path fill="#fe3030" fill-opacity=".8" d="M15.5 11.6q.1-.4-.2-1v-.1l-.9-.7h-.2v-.3h3.1V11h.5v.4h3.8v1h-1.2l-.1-.5-.2-.2-.5.4-.4.3-.2.4-.7.3-.3.5h-.7q1.6.6 3.6.7l-.1-.9.2.7.6.2-2.2.4h-2v1h-1.2v-.4h.2V14h-.2v-1l1.2-.4.3-.1.1-.9zm-2.7 5.7-1.9.3.7-1.2 1.5-.4zM26.7 6.2h.6l1.5-1.4h1.8v1.7h-3.3v.9h-1.7v-.2l.7.2h.2z"/><path fill="#f4b060" d="M15.4 11.8v-.2h.1l2.3.1-.1.9h-.3q-.6.4-1.2.5v-1.4h-.5V13h-.3zm10.2-4.6v-1h1.1l-.2 1.2h-.2zm-2.5 3.9h.2l.4.8-.5.3h-.7l-.2-1z"/><path fill="#d81c01" fill-opacity=".9" d="M16.2 14h.2v1.3h-2.9V14z"/><path fill="#d03939" d="M17.3 15.7v-1h4.5l-.3 1.9-.6-.7-2.7.9zm13-2.8h-.4v-1.7h1v-.7h1.4v.7h.8q-1.8.2-2.8 1.2z"/><path fill="#a90101" fill-opacity=".8" d="m20.8 13.4.1.9q-2-.1-3.6-.7h.7l.3-.5.7-.3.3-.4.3-.3.5-.4.1.2.2.5z"/><path fill="#d81c01" fill-opacity=".5" d="M21.7 12.4v-1h-2.2V11l-.1-.3.5-.7 3.3 1-.9.2.2 1h.7l.6-.3.7 1.4h-1.7l-.4-.5zm0-6.7h1.8v.8h-1.9zM32 7.5l1.4-.3-.5 1q-.5.6-1.4.6z"/><path fill="#f30" fill-opacity=".4" d="M17.8 11h-.5V9.5l2.6-.4v.9l-.5.7.1.3z"/><path fill="#d81c01" fill-opacity=".4" d="M21.7 8.1h2.6v1.2h-2.7zM1 15.9l2.2-.6-1 1.6-2.1.5z"/><path fill="#fe9898" fill-opacity=".8" d="m1.3 12 1.3.4-.7.9H.5zm7.9.9 2-1.2-.1 2.3-2.8.5zM33 11.2"/><path fill="#fff" fill-opacity=".8" d="M12.6 12.6h.7v1.5h-.7zm-3.4 8.3 1-.2v1.2l-1.7.7z"/><path fill="#d81c01" fill-opacity=".8" d="M14 16.7h1.7v.7H14zm-.2 4.5h1.4l.5 1.4-1.4-.4z"/><path fill="#fe918b" fill-opacity=".5" d="m22.8 14 2 .5.8 1.2-2.2-.1-.6-1.3z"/><path fill="#fff" fill-opacity=".3" d="M32.3 1V0h1.9v1zm4.5 4.8 1.3-.3-.3 1.4-1.5.3z"/><path fill="#d81c01" fill-opacity=".8" d="M26.7 12.6v1.2l-1.2-.1-.6-1.1z"/></g><g id="l"><path fill="#d81c01" fill-opacity=".1" d="M11.8 10.5h-.2V9.3h2v.5l-1.3-.2zm10 3.8L21 14l-.2-.7-.4-1h1.3l.7.4.4.5v1zM14 11.7l.9.4q.4-.1.5-.3V13h.3v.7H14zm13-1.5-2 1.2.6-2.1 1.5-.5z"/><path fill="#b82d2d" d="M13.5 9.8v.7h-1.7l.5-.9zm.8 0 .8.7.1.2q.3.5.2.9v.2l-.6.3-.9-.4h.3zm3.9 7 2.7-1 .6.8v.6l-2.9.2zM33 11.3l-.6 1q-.8.5-2.1.6v-.5q1-1 2.7-1.1"/><path fill="#fe3030" fill-opacity=".8" d="M14.3 9.8v-.3h3V11h.5v.4h3.8v1h-1.2l-.1-.5-.2-.2-.5.4-.4.3-.2.4-.7.3-.3.5h-.7q1.6.6 3.6.7l-.1-.9.2.7.6.2-2.2.4h-2v1h-1.2v-.4h.2V14h-.2v-1l1.2-.4.3-.1.1-.9-2.3-.1q.1-.4-.2-1v-.1zm-1.4 7.5-1.9.3.7-1.2 1.5-.4zM26.7 6.2h.6l1.5-1.4h1.8v1.7h-3.3v.9h-1.7v-.2l.7.2h.2z"/><path fill="#f4b060" d="m15.5 11.6 2.3.1-.1.9h-.3q-.6.4-1.2.5v-1.4h-.5V13h-.3v-1.5zm7.6-.5h.2l.4.8-.5.3h-.7l-.2-1zm2.5-3.9v-1h1.1l-.2 1.2h-.2z"/><path fill="#d81c01" fill-opacity=".9" d="M16.2 14h.2v1.3h-2.9V14z"/><path fill="#d03939" d="M17.3 15.7v-1h4.5l-.3 1.9-.6-.7-2.7.9zm13-2.8h-.4v-1.7h1v-.7h1.4v.7h.8q-1.8.2-2.8 1.2z"/><path fill="#a90101" fill-opacity=".8" d="m20.8 13.4.1.9q-2-.1-3.6-.7h.7l.3-.5.7-.3.3-.4.3-.3.5-.4.1.2.2.5z"/><path fill="#d81c01" fill-opacity=".5" d="M21.7 12.4v-1h-2.2V11l-.1-.3.5-.7 3.3 1-.9.2.2 1h.7l.6-.3.7 1.4h-1.7l-.4-.5zm0-6.7h1.8v.8h-1.9zM32 7.5l1.4-.3-.5 1q-.5.6-1.4.6z"/><path fill="#f30" fill-opacity=".4" d="M17.8 11h-.5V9.5l2.6-.4v.9l-.5.7.1.3z"/><path fill="#fe918b" fill-opacity=".5" d="m22.8 14 2 .5.8 1.2-2.2-.1-.6-1.3z"/><path fill="#d81c01" fill-opacity=".4" d="M21.7 8.1h2.6v1.2h-2.7zM1 15.9l2.2-.6-1 1.6-2.1.5z"/><path fill="#fe9898" fill-opacity=".8" d="m1.3 12 1.3.4-.7.9H.5zm9.9-.3-.1 2.3-2.8.5.9-1.6zm21.8-.5"/><path fill="#fff" fill-opacity=".8" d="M12.6 12.6h.7v1.5h-.7zm-3.4 8.3 1-.2v1.2l-1.7.7z"/><path fill="#d81c01" fill-opacity=".8" d="M14 16.7h1.7v.7H14zm-.2 4.5h1.4l.5 1.4-1.4-.4z"/><path fill="#fff" fill-opacity=".3" d="M34.2 1h-1.9V0h1.9zm2.6 4.8 1.3-.3-.3 1.4-1.5.3z"/><path fill="#d81c01" fill-opacity=".8" d="m25.5 13.7-.6-1.1h1.8v1.2z"/></g><clipPath id="j"><path d="M1 1h85v72H1z"/></clipPath><clipPath id="n"><path d="M87 1h85v72H87z"/></clipPath><clipPath id="u"><path d="M173 1h85v72h-85z"/></clipPath><clipPath id="w"><path d="M259 1h85v72h-85z"/></clipPath><clipPath id="z"><path d="M345 1h85v72h-85z"/></clipPath><clipPath id="B"><path d="M431 1h85v72h-85z"/></clipPath><clipPath id="D"><path d="M517 1h85v72h-85z"/></clipPath><clipPath id="F"><path d="M1 74h85v72H1z"/></clipPath><clipPath id="H"><path d="M87 74h85v72H87z"/></clipPath><clipPath id="J"><path d="M173 74h85v72h-85z"/></clipPath><clipPath id="L"><path d="M259 74h85v72h-85z"/></clipPath><clipPath id="N"><path d="M345 74h85v72h-85z"/></clipPath><clipPath id="P"><path d="M431 74h85v72h-85z"/></clipPath><clipPath id="R"><path d="M517 74h85v72h-85z"/></clipPath><clipPath id="T"><path d="M1 147h85v72H1z"/></clipPath><clipPath id="V"><path d="M87 147h85v72H87z"/></clipPath><clipPath id="X"><path d="M173 147h85v72h-85z"/></clipPath><clipPath id="Z"><path d="M259 147h85v72h-85z"/></clipPath><clipPath id="ab"><path d="M345 147h85v72h-85z"/></clipPath><clipPath id="ad"><path d="M431 147h85v72h-85z"/></clipPath><clipPath id="af"><path d="M517 147h85v72h-85z"/></clipPath><clipPath id="ah"><path d="M1 220h85v72H1z"/></clipPath><clipPath id="aj"><path d="M87 220h85v72H87z"/></clipPath><clipPath id="al"><path d="M173 220h85v72h-85z"/></clipPath><clipPath id="an"><path d="M259 220h85v72h-85z"/></clipPath><clipPath id="ap"><path d="M345 220h85v72h-85z"/></clipPath><clipPath id="ar"><path d="M431 220h85v72h-85z"/></clipPath><clipPath id="at"><path d="M517 220h85v72h-85z"/></clipPath><clipPath id="av"><path d="M1 293h85v72H1z"/></clipPath><clipPath id="ax"><path d="M87 293h85v72H87z"/></clipPath><clipPath id="az"><path d="M173 293h85v72h-85z"/></clipPath><clipPath id="aB"><path d="M259 293h85v72h-85z"/></clipPath><clipPath id="aD"><path d="M345 293h85v72h-85z"/></clipPath><clipPath id="aF"><path d="M431 293h85v72h-85z"/></clipPath><clipPath id="aH"><path d="M517 293h85v72h-85z"/></clipPath><clipPath id="aJ"><path d="M1 366h85v72H1z"/></clipPath><clipPath id="aL"><path d="M87 366h85v72H87z"/></clipPath><clipPath id="aN"><path d="M173 366h85v72h-85z"/></clipPath><clipPath id="aP"><path d="M259 366h85v72h-85z"/></clipPath><clipPath id="aR"><path d="M345 366h85v72h-85z"/></clipPath><clipPath id="aT"><path d="M431 366h85v72h-85z"/></clipPath><clipPath id="aV"><path d="M517 366h85v72h-85z"/></clipPath><clipPath id="aX"><path d="M1 439h85v72H1z"/></clipPath><clipPath id="aZ"><path d="M87 439h85v72H87z"/></clipPath><clipPath id="bb"><path d="M173 439h85v72h-85z"/></clipPath><clipPath id="bd"><path d="M259 439h85v72h-85z"/></clipPath><clipPath id="bf"><path d="M345 439h85v72h-85z"/></clipPath><clipPath id="bh"><path d="M431 439h85v72h-85z"/></clipPath><clipPath id="bj"><path d="M517 439h85v72h-85z"/></clipPath><clipPath id="bl"><path d="M1 512h85v72H1z"/></clipPath><clipPath id="bn"><path d="M87 512h85v72H87z"/></clipPath><clipPath id="bp"><path d="M173 512h85v72h-85z"/></clipPath><clipPath id="br"><path d="M259 512h85v72h-85z"/></clipPath><clipPath id="bt"><path d="M345 512h85v72h-85z"/></clipPath><clipPath id="bv"><path d="M431 512h85v72h-85z"/></clipPath><clipPath id="bx"><path d="M517 512h85v72h-85z"/></clipPath><clipPath id="bz"><path d="M1 585h85v72H1z"/></clipPath><clipPath id="bB"><path d="M87 585h85v72H87z"/></clipPath><clipPath id="bD"><path d="M173 585h85v72h-85z"/></clipPath><clipPath id="bF"><path d="M259 585h85v72h-85z"/></clipPath><clipPath id="bH"><path d="M345 585h85v72h-85z"/></clipPath><clipPath id="bJ"><path d="M431 585h85v72h-85z"/></clipPath><clipPath id="bL"><path d="M517 585h85v72h-85z"/></clipPath><clipPath id="bN"><path d="M1 658h85v72H1z"/></clipPath><clipPath id="bP"><path d="M87 658h85v72H87z"/></clipPath><clipPath id="bR"><path d="M173 658h85v72h-85z"/></clipPath><clipPath id="bT"><path d="M259 658h85v72h-85z"/></clipPath><clipPath id="bV"><path d="M345 658h85v72h-85z"/></clipPath><clipPath id="bX"><path d="M431 658h85v72h-85z"/></clipPath><clipPath id="bZ"><path d="M517 658h85v72h-85z"/></clipPath><path id="a" fill="#feacac" d="M72 2H0V0h72z"/><path id="d" fill="#725f32" d="m.5-.4.9 1.7.1 1.2-.2 1.1h.3l.3 2.3H.2l.1-2.3H1l-.6-.5-.7-1Q-.6 1.6.1 1 .6.5.3-.6q-.5-1.1.2.2M.1 7.2h2l.3.6q-1.3.6-2.4-.2zm2-.5h-2v-.3h1.8z" transform="translate(.45 1.15)"/><path id="e" fill="#725f32" d="M.4 1.6 1-.2q.3-.8.7.7l.3 2-.4.8-.4.3h.4L1.9 6H.2l.1-2.4H1l-.2-.3-.4-.4q-.2-.1.1-1.3M0 7.5h2.2l.2.3q-1.3.6-2.4-.2zM2 7H0l.1-.5H2z" transform="translate(0 .5)"/><path id="q" fill="url(#b)" d="m19.7 0 5.9 16.5H0L5.7.3q6.4 6.4 14-.3"/><path id="p" fill="url(#c)" d="M0 7q0-2.8 3.7-4.9Q7.3 0 12.5 0q5.1 0 8.8 2.1 3.6 2 3.6 5 0 2.9-3.6 5-3.7 2-8.8 2t-8.8-2T0 7"/><use xlink:href="#d" id="x" width="2.9" height="9.2"/><use xlink:href="#e" id="s" width="2.4" height="8.6" transform="translate(.45 .65)"/><use xlink:href="#h" id="m" width="14.9" height="23.6"/><use xlink:href="#i" id="k" width="82.8" height="59.9"/><radialGradient id="c" cx="0" cy="0" r="819.2" gradientTransform="matrix(.02 0 0 .01 12.5 7.05)" gradientUnits="userSpaceOnUse" spreadMethod="pad"><stop offset=".7" stop-color="#fc3" stop-opacity=".2"/><stop offset="1" stop-color="#826628" stop-opacity=".3"/></radialGradient><linearGradient id="b" x1="-819.2" x2="819.2" gradientTransform="matrix(0 -.01 .01 0 12.35 9.15)" gradientUnits="userSpaceOnUse" spreadMethod="pad"><stop offset="0" stop-color="#fff" stop-opacity="0"/><stop offset="1" stop-color="#fff" stop-opacity=".7"/></linearGradient></defs><g clip-path="url(#j)"><g transform="translate(76.5 58.9)"><use xlink:href="#k" width="82.8" height="59.9" transform="translate(-74.15 -46.5)"/><use xlink:href="#l" width="38" height="22.6" transform="translate(-62.55 -35.95)"/><use xlink:href="#m" width="14.9" height="23.6" transform="matrix(-1 0 0 1 -12.7 -57.9)"/></g></g><g clip-path="url(#n)"><g transform="translate(162.5 58.9)"><use xlink:href="#k" width="82.8" height="59.9" transform="translate(-74.15 -46.5)"/><use xlink:href="#o" width="38" height="22.6" transform="translate(-62.55 -35.95)"/><use xlink:href="#p" width="24.9" height="14.1" transform="translate(-32.6 -41)"/><use xlink:href="#m" width="14.9" height="23.6" transform="matrix(-1 0 0 1 -12.7 -57.9)"/><use xlink:href="#q" width="25.6" height="16.4" transform="matrix(1.0703 0 0 1 -33.7 -49.2)"/><use xlink:href="#r" width="14.4" height="11.7" transform="translate(-27.6 -57.7)"/><use xlink:href="#s" width="2.9" height="9.2" transform="translate(-21.7 -55.3)"/><use xlink:href="#t" width="71.3" height="50.5" transform="translate(-75.5 -50.2)"/></g></g><g clip-path="url(#u)"><g transform="translate(248.5 58.9)"><use xlink:href="#k" width="82.8" height="59.9" transform="translate(-74.15 -46.5)"/><use xlink:href="#o" width="38" height="22.6" transform="translate(-62.55 -35.95)"/><use xlink:href="#p" width="24.9" height="14.1" transform="translate(-32.6 -41)"/><use xlink:href="#m" width="14.9" height="23.6" transform="matrix(-1 0 0 1 -12.7 -57.9)"/><use xlink:href="#q" width="25.6" height="16.4" transform="matrix(1.0703 0 0 1 -33.7 -49.2)"/><use xlink:href="#r" width="14.4" height="11.7" transform="translate(-27.6 -57.7)"/><use xlink:href="#s" width="2.9" height="9.2" transform="translate(-21.7 -55.3)"/><use xlink:href="#v" width="71.3" height="50.5" transform="translate(-75.5 -50.2)"/></g></g><g clip-path="url(#w)"><g transform="translate(334.5 58.9)"><use xlink:href="#k" width="82.8" height="59.9" transform="translate(-74.15 -46.5)"/><use xlink:href="#o" width="38" height="22.6" transform="translate(-62.55 -35.95)"/><use xlink:href="#p" width="24.9" height="14.1" transform="translate(-32.6 -41)"/><use xlink:href="#m" width="14.9" height="23.6" transform="matrix(-1 0 0 1 -12.7 -57.9)"/><use xlink:href="#q" width="25.6" height="16.4" transform="matrix(1.0703 0 0 1 -33.7 -49.2)"/><use xlink:href="#r" width="14.4" height="11.7" transform="translate(-27.6 -57.7)"/><use xlink:href="#x" width="2.9" height="9.2" transform="translate(-21.7 -55.3)"/><use xlink:href="#y" width="71.3" height="50.5" transform="translate(-75.5 -50.2)"/></g></g><g clip-path="url(#z)"><g transform="translate(420.5 58.9)"><use xlink:href="#k" width="82.8" height="59.9" transform="translate(-74.15 -46.5)"/><use xlink:href="#o" width="38" height="22.6" transform="translate(-62.55 -35.95)"/><use xlink:href="#p" width="24.9" height="14.1" transform="translate(-32.6 -41)"/><use xlink:href="#m" width="14.9" height="23.6" transform="matrix(-1 0 0 1 -12.7 -57.9)"/><use xlink:href="#q" width="25.6" height="16.4" transform="matrix(1.0703 0 0 1 -33.7 -49.2)"/><use xlink:href="#r" width="14.4" height="11.7" transform="translate(-27.6 -57.7)"/><use xlink:href="#x" width="2.9" height="9.2" transform="translate(-21.7 -55.3)"/><use xlink:href="#A" width="71.3" height="50.5" transform="translate(-75.5 -50.2)"/></g></g><g clip-path="url(#B)"><g transform="translate(506.5 58.9)"><use xlink:href="#k" width="82.8" height="59.9" transform="translate(-74.15 -46.5)"/><use xlink:href="#o" width="38" height="22.6" transform="translate(-62.55 -35.95)"/><use xlink:href="#p" width="24.9" height="14.1" transform="translate(-32.6 -41)"/><use xlink:href="#m" width="14.9" height="23.6" transform="matrix(-1 0 0 1 -12.7 -57.9)"/><use xlink:href="#q" width="25.6" height="16.4" transform="matrix(1.0703 0 0 1 -33.7 -49.2)"/><use xlink:href="#r" width="14.4" height="11.7" transform="translate(-27.6 -57.7)"/><use xlink:href="#x" width="2.9" height="9.2" transform="translate(-21.7 -55.3)"/><use xlink:href="#C" width="71.3" height="50.5" transform="translate(-75.5 -50.2)"/></g></g><g clip-path="url(#D)"><g transform="translate(592.5 58.9)"><use xlink:href="#k" width="82.8" height="59.9" transform="translate(-74.15 -46.5)"/><use xlink:href="#o" width="38" height="22.6" transform="translate(-62.55 -35.95)"/><use xlink:href="#p" width="24.9" height="14.1" transform="translate(-32.6 -41)"/><use xlink:href="#m" width="14.9" height="23.6" transform="matrix(-1 0 0 1 -12.7 -57.9)"/><use xlink:href="#q" width="25.6" height="16.4" transform="matrix(1.0703 0 0 1 -33.7 -49.2)"/><use xlink:href="#r" width="14.4" height="11.7" transform="translate(-27.6 -57.7)"/><use xlink:href="#x" width="2.9" height="9.2" transform="translate(-21.7 -55.3)"/><use xlink:href="#E" width="71.3" height="50.5" transform="translate(-75.5 -50.2)"/></g></g><g clip-path="url(#F)"><g transform="translate(76.5 131.9)"><use xlink:href="#k" width="82.8" height="59.9" transform="translate(-74.15 -46.5)"/><use xlink:href="#o" width="38" height="22.6" transform="translate(-62.55 -35.95)"/><use xlink:href="#p" width="24.9" height="14.1" transform="translate(-32.6 -41)"/><use xlink:href="#m" width="14.9" height="23.6" transform="matrix(-1 0 0 1 -12.7 -57.9)"/><use xlink:href="#q" width="25.6" height="16.4" transform="matrix(1.0703 0 0 1 -33.7 -49.2)"/><use xlink:href="#r" width="14.4" height="11.7" transform="translate(-27.6 -57.7)"/><use xlink:href="#x" width="2.9" height="9.2" transform="translate(-21.7 -55.3)"/><use xlink:href="#G" width="71.3" height="50.5" transform="translate(-75.5 -50.2)"/></g></g><g clip-path="url(#H)"><g transform="translate(162.5 131.9)"><use xlink:href="#k" width="82.8" height="59.9" transform="translate(-74.15 -46.5)"/><use xlink:href="#o" width="38" height="22.6" transform="translate(-62.55 -35.95)"/><use xlink:href="#p" width="24.9" height="14.1" transform="translate(-32.6 -41)"/><use xlink:href="#m" width="14.9" height="23.6" transform="matrix(-1 0 0 1 -12.7 -57.9)"/><use xlink:href="#q" width="25.6" height="16.4" transform="matrix(1.0703 0 0 1 -33.7 -49.2)"/><use xlink:href="#r" width="14.4" height="11.7" transform="translate(-27.6 -57.7)"/><use xlink:href="#x" width="2.9" height="9.2" transform="translate(-21.7 -55.3)"/><use xlink:href="#I" width="71.3" height="50.5" transform="translate(-75.5 -50.2)"/></g></g><g clip-path="url(#J)"><g transform="translate(248.5 131.9)"><use xlink:href="#k" width="82.8" height="59.9" transform="translate(-74.15 -46.5)"/><use xlink:href="#o" width="38" height="22.6" transform="translate(-62.55 -35.95)"/><use xlink:href="#p" width="24.9" height="14.1" transform="translate(-32.6 -41)"/><use xlink:href="#m" width="14.9" height="23.6" transform="matrix(-1 0 0 1 -12.7 -57.9)"/><use xlink:href="#q" width="25.6" height="16.4" transform="matrix(1.0703 0 0 1 -33.7 -49.2)"/><use xlink:href="#r" width="14.4" height="11.7" transform="translate(-27.6 -57.7)"/><use xlink:href="#x" width="2.9" height="9.2" transform="translate(-21.7 -55.3)"/><use xlink:href="#K" width="71.3" height="50.5" transform="translate(-75.5 -50.2)"/></g></g><g clip-path="url(#L)"><g transform="translate(334.5 131.9)"><use xlink:href="#k" width="82.8" height="59.9" transform="translate(-74.15 -46.5)"/><use xlink:href="#o" width="38" height="22.6" transform="translate(-62.55 -35.95)"/><use xlink:href="#p" width="24.9" height="14.1" transform="translate(-32.6 -41)"/><use xlink:href="#m" width="14.9" height="23.6" transform="matrix(-1 0 0 1 -12.7 -57.9)"/><use xlink:href="#q" width="25.6" height="16.4" transform="matrix(1.0703 0 0 1 -33.7 -49.2)"/><use xlink:href="#r" width="14.4" height="11.7" transform="translate(-27.6 -57.7)"/><use xlink:href="#x" width="2.9" height="9.2" transform="translate(-21.7 -55.3)"/><use xlink:href="#M" width="71.3" height="50.5" transform="translate(-75.5 -50.2)"/></g></g><g clip-path="url(#N)"><g transform="translate(420.5 131.9)"><use xlink:href="#k" width="82.8" height="59.9" transform="translate(-74.15 -46.5)"/><use xlink:href="#o" width="38" height="22.6" transform="translate(-62.55 -35.95)"/><use xlink:href="#p" width="24.9" height="14.1" transform="translate(-32.6 -41)"/><use xlink:href="#m" width="14.9" height="23.6" transform="matrix(-1 0 0 1 -12.7 -57.9)"/><use xlink:href="#q" width="25.6" height="16.4" transform="matrix(1.0703 0 0 1 -33.7 -49.2)"/><use xlink:href="#r" width="14.4" height="11.7" transform="translate(-27.6 -57.7)"/><use xlink:href="#x" width="2.9" height="9.2" transform="translate(-21.7 -55.3)"/><use xlink:href="#O" width="71.3" height="50.5" transform="translate(-75.5 -50.2)"/></g></g><g clip-path="url(#P)"><g transform="translate(506.5 131.9)"><use xlink:href="#k" width="82.8" height="59.9" transform="translate(-74.15 -46.5)"/><use xlink:href="#o" width="38" height="22.6" transform="translate(-62.55 -35.95)"/><use xlink:href="#p" width="24.9" height="14.1" transform="translate(-32.6 -41)"/><use xlink:href="#m" width="14.9" height="23.6" transform="matrix(-1 0 0 1 -12.7 -57.9)"/><use xlink:href="#q" width="25.6" height="16.4" transform="matrix(1.0703 0 0 1 -33.7 -49.2)"/><use xlink:href="#r" width="14.4" height="11.7" transform="translate(-27.6 -57.7)"/><use xlink:href="#x" width="2.9" height="9.2" transform="translate(-21.7 -55.3)"/><use xlink:href="#Q" width="71.3" height="50.5" transform="translate(-75.5 -50.2)"/></g></g><g clip-path="url(#R)"><g transform="translate(592.5 131.9)"><use xlink:href="#k" width="82.8" height="59.9" transform="translate(-74.15 -46.5)"/><use xlink:href="#o" width="38" height="22.6" transform="translate(-62.55 -35.95)"/><use xlink:href="#p" width="24.9" height="14.1" transform="translate(-32.6 -41)"/><use xlink:href="#m" width="14.9" height="23.6" transform="matrix(-1 0 0 1 -12.7 -57.9)"/><use xlink:href="#q" width="25.6" height="16.4" transform="matrix(1.0703 0 0 1 -33.7 -49.2)"/><use xlink:href="#r" width="14.4" height="11.7" transform="translate(-27.6 -57.7)"/><use xlink:href="#x" width="2.9" height="9.2" transform="translate(-21.7 -55.3)"/><use xlink:href="#S" width="71.3" height="50.5" transform="translate(-75.5 -50.2)"/></g></g><g clip-path="url(#T)"><g transform="translate(76.5 204.9)"><use xlink:href="#k" width="82.8" height="59.9" transform="translate(-74.15 -46.5)"/><use xlink:href="#o" width="38" height="22.6" transform="translate(-62.55 -35.95)"/><use xlink:href="#p" width="24.9" height="14.1" transform="translate(-32.6 -41)"/><use xlink:href="#m" width="14.9" height="23.6" transform="matrix(-1 0 0 1 -12.7 -57.9)"/><use xlink:href="#q" width="25.6" height="16.4" transform="matrix(1.0703 0 0 1 -33.7 -49.2)"/><use xlink:href="#r" width="14.4" height="11.7" transform="translate(-27.6 -57.7)"/><use xlink:href="#x" width="2.9" height="9.2" transform="translate(-21.7 -55.3)"/><use xlink:href="#U" width="71.3" height="50.5" transform="translate(-75.5 -50.2)"/></g></g><g clip-path="url(#V)"><g transform="translate(162.5 204.9)"><use xlink:href="#k" width="82.8" height="59.9" transform="translate(-74.15 -46.5)"/><use xlink:href="#o" width="38" height="22.6" transform="translate(-62.55 -35.95)"/><use xlink:href="#p" width="24.9" height="14.1" transform="translate(-32.6 -41)"/><use xlink:href="#m" width="14.9" height="23.6" transform="matrix(-1 0 0 1 -12.7 -57.9)"/><use xlink:href="#q" width="25.6" height="16.4" transform="matrix(1.0703 0 0 1 -33.7 -49.2)"/><use xlink:href="#r" width="14.4" height="11.7" transform="translate(-27.6 -57.7)"/><use xlink:href="#x" width="2.9" height="9.2" transform="translate(-21.7 -55.3)"/><use xlink:href="#W" width="71.3" height="50.5" transform="translate(-75.5 -50.2)"/></g></g><g clip-path="url(#X)"><g transform="translate(248.5 204.9)"><use xlink:href="#k" width="82.8" height="59.9" transform="translate(-74.15 -46.5)"/><use xlink:href="#o" width="38" height="22.6" transform="translate(-62.55 -35.95)"/><use xlink:href="#p" width="24.9" height="14.1" transform="translate(-32.6 -41)"/><use xlink:href="#m" width="14.9" height="23.6" transform="matrix(-1 0 0 1 -12.7 -57.9)"/><use xlink:href="#q" width="25.6" height="16.4" transform="matrix(1.0703 0 0 1 -33.7 -49.2)"/><use xlink:href="#r" width="14.4" height="11.7" transform="translate(-27.6 -57.7)"/><use xlink:href="#x" width="2.9" height="9.2" transform="translate(-21.7 -55.3)"/><use xlink:href="#Y" width="71.3" height="50.5" transform="translate(-75.5 -50.2)"/></g></g><g clip-path="url(#Z)"><g transform="translate(334.5 204.9)"><use xlink:href="#k" width="82.8" height="59.9" transform="translate(-74.15 -46.5)"/><use xlink:href="#o" width="38" height="22.6" transform="translate(-62.55 -35.95)"/><use xlink:href="#p" width="24.9" height="14.1" transform="translate(-32.6 -41)"/><use xlink:href="#m" width="14.9" height="23.6" transform="matrix(-1 0 0 1 -12.7 -57.9)"/><use xlink:href="#q" width="25.6" height="16.4" transform="matrix(1.0703 0 0 1 -33.7 -49.2)"/><use xlink:href="#r" width="14.4" height="11.7" transform="translate(-27.6 -57.7)"/><use xlink:href="#x" width="2.9" height="9.2" transform="translate(-21.7 -55.3)"/><use xlink:href="#aa" width="71.3" height="50.5" transform="translate(-75.5 -50.2)"/></g></g><g clip-path="url(#ab)"><g transform="translate(420.5 204.9)"><use xlink:href="#k" width="82.8" height="59.9" transform="translate(-74.15 -46.5)"/><use xlink:href="#o" width="38" height="22.6" transform="translate(-62.55 -35.95)"/><use xlink:href="#p" width="24.9" height="14.1" transform="translate(-32.6 -41)"/><use xlink:href="#m" width="14.9" height="23.6" transform="matrix(-1 0 0 1 -12.7 -57.9)"/><use xlink:href="#q" width="25.6" height="16.4" transform="matrix(1.0703 0 0 1 -33.7 -49.2)"/><use xlink:href="#r" width="14.4" height="11.7" transform="translate(-27.6 -57.7)"/><use xlink:href="#x" width="2.9" height="9.2" transform="translate(-21.7 -55.3)"/><use xlink:href="#ac" width="71.3" height="50.5" transform="translate(-75.5 -50.2)"/></g></g><g clip-path="url(#ad)"><g transform="translate(506.5 204.9)"><use xlink:href="#k" width="82.8" height="59.9" transform="translate(-74.15 -46.5)"/><use xlink:href="#o" width="38" height="22.6" transform="translate(-62.55 -35.95)"/><use xlink:href="#p" width="24.9" height="14.1" transform="translate(-32.6 -41)"/><use xlink:href="#m" width="14.9" height="23.6" transform="matrix(-1 0 0 1 -12.7 -57.9)"/><use xlink:href="#q" width="25.6" height="16.4" transform="matrix(1.0703 0 0 1 -33.7 -49.2)"/><use xlink:href="#r" width="14.4" height="11.7" transform="translate(-27.6 -57.7)"/><use xlink:href="#x" width="2.9" height="9.2" transform="translate(-21.7 -55.3)"/><use xlink:href="#ae" width="71.3" height="50.5" transform="translate(-75.5 -50.2)"/></g></g><g clip-path="url(#af)"><g transform="translate(592.5 204.9)"><use xlink:href="#k" width="82.8" height="59.9" transform="translate(-74.15 -46.5)"/><use xlink:href="#o" width="38" height="22.6" transform="translate(-62.55 -35.95)"/><use xlink:href="#p" width="24.9" height="14.1" transform="translate(-32.6 -41)"/><use xlink:href="#m" width="14.9" height="23.6" transform="matrix(-1 0 0 1 -12.7 -57.9)"/><use xlink:href="#q" width="25.6" height="16.4" transform="matrix(1.0703 0 0 1 -33.7 -49.2)"/><use xlink:href="#r" width="14.4" height="11.7" transform="translate(-27.6 -57.7)"/><use xlink:href="#x" width="2.9" height="9.2" transform="translate(-21.7 -55.3)"/><use xlink:href="#ag" width="71.3" height="50.5" transform="translate(-75.5 -50.2)"/></g></g><g clip-path="url(#ah)"><g transform="translate(76.5 277.9)"><use xlink:href="#k" width="82.8" height="59.9" transform="translate(-74.15 -46.5)"/><use xlink:href="#o" width="38" height="22.6" transform="translate(-62.55 -35.95)"/><use xlink:href="#p" width="24.9" height="14.1" transform="translate(-32.6 -41)"/><use xlink:href="#m" width="14.9" height="23.6" transform="matrix(-1 0 0 1 -12.7 -57.9)"/><use xlink:href="#q" width="25.6" height="16.4" transform="matrix(1.0703 0 0 1 -33.7 -49.2)"/><use xlink:href="#r" width="14.4" height="11.7" transform="translate(-27.6 -57.7)"/><use xlink:href="#x" width="2.9" height="9.2" transform="translate(-21.7 -55.3)"/><use xlink:href="#ai" width="71.3" height="50.5" transform="translate(-75.5 -50.2)"/></g></g><g clip-path="url(#aj)"><g transform="translate(162.5 277.9)"><use xlink:href="#k" width="82.8" height="59.9" transform="translate(-74.15 -46.5)"/><use xlink:href="#o" width="38" height="22.6" transform="translate(-62.55 -35.95)"/><use xlink:href="#p" width="24.9" height="14.1" transform="translate(-32.6 -41)"/><use xlink:href="#m" width="14.9" height="23.6" transform="matrix(-1 0 0 1 -12.7 -57.9)"/><use xlink:href="#q" width="25.6" height="16.4" transform="matrix(1.0703 0 0 1 -33.7 -49.2)"/><use xlink:href="#r" width="14.4" height="11.7" transform="translate(-27.6 -57.7)"/><use xlink:href="#x" width="2.9" height="9.2" transform="translate(-21.7 -55.3)"/><use xlink:href="#ak" width="71.3" height="50.5" transform="translate(-75.5 -50.2)"/></g></g><g clip-path="url(#al)"><g transform="translate(248.5 277.9)"><use xlink:href="#k" width="82.8" height="59.9" transform="translate(-74.15 -46.5)"/><use xlink:href="#o" width="38" height="22.6" transform="translate(-62.55 -35.95)"/><use xlink:href="#p" width="24.9" height="14.1" transform="translate(-32.6 -41)"/><use xlink:href="#m" width="14.9" height="23.6" transform="matrix(-1 0 0 1 -12.7 -57.9)"/><use xlink:href="#q" width="25.6" height="16.4" transform="matrix(1.0703 0 0 1 -33.7 -49.2)"/><use xlink:href="#r" width="14.4" height="11.7" transform="translate(-27.6 -57.7)"/><use xlink:href="#x" width="2.9" height="9.2" transform="translate(-21.7 -55.3)"/><use xlink:href="#am" width="71.3" height="50.5" transform="translate(-75.5 -50.2)"/></g></g><g clip-path="url(#an)"><g transform="translate(334.5 277.9)"><use xlink:href="#k" width="82.8" height="59.9" transform="translate(-74.15 -46.5)"/><use xlink:href="#o" width="38" height="22.6" transform="translate(-62.55 -35.95)"/><use xlink:href="#p" width="24.9" height="14.1" transform="translate(-32.6 -41)"/><use xlink:href="#m" width="14.9" height="23.6" transform="matrix(-1 0 0 1 -12.7 -57.9)"/><use xlink:href="#q" width="25.6" height="16.4" transform="matrix(1.0703 0 0 1 -33.7 -49.2)"/><use xlink:href="#r" width="14.4" height="11.7" transform="translate(-27.6 -57.7)"/><use xlink:href="#x" width="2.9" height="9.2" transform="translate(-21.7 -55.3)"/><use xlink:href="#ao" width="71.3" height="50.5" transform="translate(-75.5 -50.2)"/></g></g><g clip-path="url(#ap)"><g transform="translate(420.5 277.9)"><use xlink:href="#k" width="82.8" height="59.9" transform="translate(-74.15 -46.5)"/><use xlink:href="#o" width="38" height="22.6" transform="translate(-62.55 -35.95)"/><use xlink:href="#p" width="24.9" height="14.1" transform="translate(-32.6 -41)"/><use xlink:href="#m" width="14.9" height="23.6" transform="matrix(-1 0 0 1 -12.7 -57.9)"/><use xlink:href="#q" width="25.6" height="16.4" transform="matrix(1.0703 0 0 1 -33.7 -49.2)"/><use xlink:href="#r" width="14.4" height="11.7" transform="translate(-27.6 -57.7)"/><use xlink:href="#x" width="2.9" height="9.2" transform="translate(-21.7 -55.3)"/><use xlink:href="#aq" width="71.3" height="50.5" transform="translate(-75.5 -50.2)"/></g></g><g clip-path="url(#ar)"><g transform="translate(506.5 277.9)"><use xlink:href="#k" width="82.8" height="59.9" transform="translate(-74.15 -46.5)"/><use xlink:href="#o" width="38" height="22.6" transform="translate(-62.55 -35.95)"/><use xlink:href="#p" width="24.9" height="14.1" transform="translate(-32.6 -41)"/><use xlink:href="#m" width="14.9" height="23.6" transform="matrix(-1 0 0 1 -12.7 -57.9)"/><use xlink:href="#q" width="25.6" height="16.4" transform="matrix(1.0703 0 0 1 -33.7 -49.2)"/><use xlink:href="#r" width="14.4" height="11.7" transform="translate(-27.6 -57.7)"/><use xlink:href="#x" width="2.9" height="9.2" transform="translate(-21.7 -55.3)"/><use xlink:href="#as" width="71.3" height="50.5" transform="translate(-75.5 -50.2)"/></g></g><g clip-path="url(#at)"><g transform="translate(592.5 277.9)"><use xlink:href="#k" width="82.8" height="59.9" transform="translate(-74.15 -46.5)"/><use xlink:href="#o" width="38" height="22.6" transform="translate(-62.55 -35.95)"/><use xlink:href="#p" width="24.9" height="14.1" transform="translate(-32.6 -41)"/><use xlink:href="#m" width="14.9" height="23.6" transform="matrix(-1 0 0 1 -12.7 -57.9)"/><use xlink:href="#q" width="25.6" height="16.4" transform="matrix(1.0703 0 0 1 -33.7 -49.2)"/><use xlink:href="#r" width="14.4" height="11.7" transform="translate(-27.6 -57.7)"/><use xlink:href="#x" width="2.9" height="9.2" transform="translate(-21.7 -55.3)"/><use xlink:href="#au" width="71.3" height="50.5" transform="translate(-75.5 -50.2)"/></g></g><g clip-path="url(#av)"><g transform="translate(76.5 350.9)"><use xlink:href="#k" width="82.8" height="59.9" transform="translate(-74.15 -46.5)"/><use xlink:href="#o" width="38" height="22.6" transform="translate(-62.55 -35.95)"/><use xlink:href="#p" width="24.9" height="14.1" transform="translate(-32.6 -41)"/><use xlink:href="#m" width="14.9" height="23.6" transform="matrix(-1 0 0 1 -12.7 -57.9)"/><use xlink:href="#q" width="25.6" height="16.4" transform="matrix(1.0703 0 0 1 -33.7 -49.2)"/><use xlink:href="#r" width="14.4" height="11.7" transform="translate(-27.6 -57.7)"/><use xlink:href="#x" width="2.9" height="9.2" transform="translate(-21.7 -55.3)"/><use xlink:href="#aw" width="71.3" height="50.5" transform="translate(-75.5 -50.2)"/></g></g><g clip-path="url(#ax)"><g transform="translate(162.5 350.9)"><use xlink:href="#k" width="82.8" height="59.9" transform="translate(-74.15 -46.5)"/><use xlink:href="#o" width="38" height="22.6" transform="translate(-62.55 -35.95)"/><use xlink:href="#p" width="24.9" height="14.1" transform="translate(-32.6 -41)"/><use xlink:href="#m" width="14.9" height="23.6" transform="matrix(-1 0 0 1 -12.7 -57.9)"/><use xlink:href="#q" width="25.6" height="16.4" transform="matrix(1.0703 0 0 1 -33.7 -49.2)"/><use xlink:href="#r" width="14.4" height="11.7" transform="translate(-27.6 -57.7)"/><use xlink:href="#x" width="2.9" height="9.2" transform="translate(-21.7 -55.3)"/><use xlink:href="#ay" width="71.3" height="50.5" transform="translate(-75.5 -50.2)"/></g></g><g clip-path="url(#az)"><g transform="translate(248.5 350.9)"><use xlink:href="#k" width="82.8" height="59.9" transform="translate(-74.15 -46.5)"/><use xlink:href="#o" width="38" height="22.6" transform="translate(-62.55 -35.95)"/><use xlink:href="#p" width="24.9" height="14.1" transform="translate(-32.6 -41)"/><use xlink:href="#m" width="14.9" height="23.6" transform="matrix(-1 0 0 1 -12.7 -57.9)"/><use xlink:href="#q" width="25.6" height="16.4" transform="matrix(1.0703 0 0 1 -33.7 -49.2)"/><use xlink:href="#r" width="14.4" height="11.7" transform="translate(-27.6 -57.7)"/><use xlink:href="#x" width="2.9" height="9.2" transform="translate(-21.7 -55.3)"/><use xlink:href="#aA" width="71.3" height="50.5" transform="translate(-75.5 -50.2)"/></g></g><g clip-path="url(#aB)"><g transform="translate(334.5 350.9)"><use xlink:href="#k" width="82.8" height="59.9" transform="translate(-74.15 -46.5)"/><use xlink:href="#o" width="38" height="22.6" transform="translate(-62.55 -35.95)"/><use xlink:href="#p" width="24.9" height="14.1" transform="translate(-32.6 -41)"/><use xlink:href="#m" width="14.9" height="23.6" transform="matrix(-1 0 0 1 -12.7 -57.9)"/><use xlink:href="#q" width="25.6" height="16.4" transform="matrix(1.0703 0 0 1 -33.7 -49.2)"/><use xlink:href="#r" width="14.4" height="11.7" transform="translate(-27.6 -57.7)"/><use xlink:href="#x" width="2.9" height="9.2" transform="translate(-21.7 -55.3)"/><use xlink:href="#aC" width="71.3" height="50.5" transform="translate(-75.5 -50.2)"/></g></g><g clip-path="url(#aD)"><g transform="translate(420.5 350.9)"><use xlink:href="#k" width="82.8" height="59.9" transform="translate(-74.15 -46.5)"/><use xlink:href="#o" width="38" height="22.6" transform="translate(-62.55 -35.95)"/><use xlink:href="#p" width="24.9" height="14.1" transform="translate(-32.6 -41)"/><use xlink:href="#m" width="14.9" height="23.6" transform="matrix(-1 0 0 1 -12.7 -57.9)"/><use xlink:href="#q" width="25.6" height="16.4" transform="matrix(1.0703 0 0 1 -33.7 -49.2)"/><use xlink:href="#r" width="14.4" height="11.7" transform="translate(-27.6 -57.7)"/><use xlink:href="#x" width="2.9" height="9.2" transform="translate(-21.7 -55.3)"/><use xlink:href="#aE" width="71.3" height="50.5" transform="translate(-75.5 -50.2)"/></g></g><g clip-path="url(#aF)"><g transform="translate(506.5 350.9)"><use xlink:href="#k" width="82.8" height="59.9" transform="translate(-74.15 -46.5)"/><use xlink:href="#o" width="38" height="22.6" transform="translate(-62.55 -35.95)"/><use xlink:href="#p" width="24.9" height="14.1" transform="translate(-32.6 -41)"/><use xlink:href="#m" width="14.9" height="23.6" transform="matrix(-1 0 0 1 -12.7 -57.9)"/><use xlink:href="#q" width="25.6" height="16.4" transform="matrix(1.0703 0 0 1 -33.7 -49.2)"/><use xlink:href="#r" width="14.4" height="11.7" transform="translate(-27.6 -57.7)"/><use xlink:href="#x" width="2.9" height="9.2" transform="translate(-21.7 -55.3)"/><use xlink:href="#aG" width="71.3" height="50.5" transform="translate(-75.5 -50.2)"/></g></g><g clip-path="url(#aH)"><g transform="translate(592.5 350.9)"><use xlink:href="#k" width="82.8" height="59.9" transform="translate(-74.15 -46.5)"/><use xlink:href="#o" width="38" height="22.6" transform="translate(-62.55 -35.95)"/><use xlink:href="#p" width="24.9" height="14.1" transform="translate(-32.6 -41)"/><use xlink:href="#m" width="14.9" height="23.6" transform="matrix(-1 0 0 1 -12.7 -57.9)"/><use xlink:href="#q" width="25.6" height="16.4" transform="matrix(1.0703 0 0 1 -33.7 -49.2)"/><use xlink:href="#r" width="14.4" height="11.7" transform="translate(-27.6 -57.7)"/><use xlink:href="#x" width="2.9" height="9.2" transform="translate(-21.7 -55.3)"/><use xlink:href="#aI" width="71.3" height="50.5" transform="translate(-75.5 -50.2)"/></g></g><g clip-path="url(#aJ)"><g transform="translate(76.5 423.9)"><use xlink:href="#k" width="82.8" height="59.9" transform="translate(-74.15 -46.5)"/><use xlink:href="#o" width="38" height="22.6" transform="translate(-62.55 -35.95)"/><use xlink:href="#p" width="24.9" height="14.1" transform="translate(-32.6 -41)"/><use xlink:href="#m" width="14.9" height="23.6" transform="matrix(-1 0 0 1 -12.7 -57.9)"/><use xlink:href="#q" width="25.6" height="16.4" transform="matrix(1.0703 0 0 1 -33.7 -49.2)"/><use xlink:href="#r" width="14.4" height="11.7" transform="translate(-27.6 -57.7)"/><use xlink:href="#x" width="2.9" height="9.2" transform="translate(-21.7 -55.3)"/><use xlink:href="#aK" width="71.3" height="50.5" transform="translate(-75.5 -50.2)"/></g></g><g clip-path="url(#aL)"><g transform="translate(162.5 423.9)"><use xlink:href="#k" width="82.8" height="59.9" transform="translate(-74.15 -46.5)"/><use xlink:href="#o" width="38" height="22.6" transform="translate(-62.55 -35.95)"/><use xlink:href="#p" width="24.9" height="14.1" transform="translate(-32.6 -41)"/><use xlink:href="#m" width="14.9" height="23.6" transform="matrix(-1 0 0 1 -12.7 -57.9)"/><use xlink:href="#q" width="25.6" height="16.4" transform="matrix(1.0703 0 0 1 -33.7 -49.2)"/><use xlink:href="#r" width="14.4" height="11.7" transform="translate(-27.6 -57.7)"/><use xlink:href="#x" width="2.9" height="9.2" transform="translate(-21.7 -55.3)"/><use xlink:href="#aM" width="71.3" height="50.5" transform="translate(-75.5 -50.2)"/></g></g><g clip-path="url(#aN)"><g transform="translate(248.5 423.9)"><use xlink:href="#k" width="82.8" height="59.9" transform="translate(-74.15 -46.5)"/><use xlink:href="#o" width="38" height="22.6" transform="translate(-62.55 -35.95)"/><use xlink:href="#p" width="24.9" height="14.1" transform="translate(-32.6 -41)"/><use xlink:href="#m" width="14.9" height="23.6" transform="matrix(-1 0 0 1 -12.7 -57.9)"/><use xlink:href="#q" width="25.6" height="16.4" transform="matrix(1.0703 0 0 1 -33.7 -49.2)"/><use xlink:href="#r" width="14.4" height="11.7" transform="translate(-27.6 -57.7)"/><use xlink:href="#x" width="2.9" height="9.2" transform="translate(-21.7 -55.3)"/><use xlink:href="#aO" width="71.3" height="50.5" transform="translate(-75.5 -50.2)"/></g></g><g clip-path="url(#aP)"><g transform="translate(334.5 423.9)"><use xlink:href="#k" width="82.8" height="59.9" transform="translate(-74.15 -46.5)"/><use xlink:href="#o" width="38" height="22.6" transform="translate(-62.55 -35.95)"/><use xlink:href="#p" width="24.9" height="14.1" transform="translate(-32.6 -41)"/><use xlink:href="#m" width="14.9" height="23.6" transform="matrix(-1 0 0 1 -12.7 -57.9)"/><use xlink:href="#q" width="25.6" height="16.4" transform="matrix(1.0703 0 0 1 -33.7 -49.2)"/><use xlink:href="#r" width="14.4" height="11.7" transform="translate(-27.6 -57.7)"/><use xlink:href="#x" width="2.9" height="9.2" transform="translate(-21.7 -55.3)"/><use xlink:href="#aQ" width="71.3" height="50.5" transform="translate(-75.5 -50.2)"/></g></g><g clip-path="url(#aR)"><g transform="translate(420.5 423.9)"><use xlink:href="#k" width="82.8" height="59.9" transform="translate(-74.15 -46.5)"/><use xlink:href="#o" width="38" height="22.6" transform="translate(-62.55 -35.95)"/><use xlink:href="#p" width="24.9" height="14.1" transform="translate(-32.6 -41)"/><use xlink:href="#m" width="14.9" height="23.6" transform="matrix(-1 0 0 1 -12.7 -57.9)"/><use xlink:href="#q" width="25.6" height="16.4" transform="matrix(1.0703 0 0 1 -33.7 -49.2)"/><use xlink:href="#r" width="14.4" height="11.7" transform="translate(-27.6 -57.7)"/><use xlink:href="#x" width="2.9" height="9.2" transform="translate(-21.7 -55.3)"/><use xlink:href="#aS" width="71.3" height="50.5" transform="translate(-75.5 -50.2)"/></g></g><g clip-path="url(#aT)"><g transform="translate(506.5 423.9)"><use xlink:href="#k" width="82.8" height="59.9" transform="translate(-74.15 -46.5)"/><use xlink:href="#o" width="38" height="22.6" transform="translate(-62.55 -35.95)"/><use xlink:href="#p" width="24.9" height="14.1" transform="translate(-32.6 -41)"/><use xlink:href="#m" width="14.9" height="23.6" transform="matrix(-1 0 0 1 -12.7 -57.9)"/><use xlink:href="#q" width="25.6" height="16.4" transform="matrix(1.0703 0 0 1 -33.7 -49.2)"/><use xlink:href="#r" width="14.4" height="11.7" transform="translate(-27.6 -57.7)"/><use xlink:href="#x" width="2.9" height="9.2" transform="translate(-21.7 -55.3)"/><use xlink:href="#aU" width="71.3" height="50.5" transform="translate(-75.5 -50.2)"/></g></g><g clip-path="url(#aV)"><g transform="translate(592.5 423.9)"><use xlink:href="#k" width="82.8" height="59.9" transform="translate(-74.15 -46.5)"/><use xlink:href="#o" width="38" height="22.6" transform="translate(-62.55 -35.95)"/><use xlink:href="#p" width="24.9" height="14.1" transform="translate(-32.6 -41)"/><use xlink:href="#m" width="14.9" height="23.6" transform="matrix(-1 0 0 1 -12.7 -57.9)"/><use xlink:href="#q" width="25.6" height="16.4" transform="matrix(1.0703 0 0 1 -33.7 -49.2)"/><use xlink:href="#r" width="14.4" height="11.7" transform="translate(-27.6 -57.7)"/><use xlink:href="#x" width="2.9" height="9.2" transform="translate(-21.7 -55.3)"/><use xlink:href="#aW" width="71.3" height="50.5" transform="translate(-75.5 -50.2)"/></g></g><g clip-path="url(#aX)"><g transform="translate(76.5 496.9)"><use xlink:href="#k" width="82.8" height="59.9" transform="translate(-74.15 -46.5)"/><use xlink:href="#o" width="38" height="22.6" transform="translate(-62.55 -35.95)"/><use xlink:href="#p" width="24.9" height="14.1" transform="translate(-32.6 -41)"/><use xlink:href="#m" width="14.9" height="23.6" transform="matrix(-1 0 0 1 -12.7 -57.9)"/><use xlink:href="#q" width="25.6" height="16.4" transform="matrix(1.0703 0 0 1 -33.7 -49.2)"/><use xlink:href="#r" width="14.4" height="11.7" transform="translate(-27.6 -57.7)"/><use xlink:href="#x" width="2.9" height="9.2" transform="translate(-21.7 -55.3)"/><use xlink:href="#aY" width="71.3" height="50.5" transform="translate(-75.5 -50.2)"/></g></g><g clip-path="url(#aZ)"><g transform="translate(162.5 496.9)"><use xlink:href="#k" width="82.8" height="59.9" transform="translate(-74.15 -46.5)"/><use xlink:href="#o" width="38" height="22.6" transform="translate(-62.55 -35.95)"/><use xlink:href="#p" width="24.9" height="14.1" transform="translate(-32.6 -41)"/><use xlink:href="#m" width="14.9" height="23.6" transform="matrix(-1 0 0 1 -12.7 -57.9)"/><use xlink:href="#q" width="25.6" height="16.4" transform="matrix(1.0703 0 0 1 -33.7 -49.2)"/><use xlink:href="#r" width="14.4" height="11.7" transform="translate(-27.6 -57.7)"/><use xlink:href="#x" width="2.9" height="9.2" transform="translate(-21.7 -55.3)"/><use xlink:href="#ba" width="71.3" height="50.5" transform="translate(-75.5 -50.2)"/></g></g><g clip-path="url(#bb)"><g transform="translate(248.5 496.9)"><use xlink:href="#k" width="82.8" height="59.9" transform="translate(-74.15 -46.5)"/><use xlink:href="#o" width="38" height="22.6" transform="translate(-62.55 -35.95)"/><use xlink:href="#p" width="24.9" height="14.1" transform="translate(-32.6 -41)"/><use xlink:href="#m" width="14.9" height="23.6" transform="matrix(-1 0 0 1 -12.7 -57.9)"/><use xlink:href="#q" width="25.6" height="16.4" transform="matrix(1.0703 0 0 1 -33.7 -49.2)"/><use xlink:href="#r" width="14.4" height="11.7" transform="translate(-27.6 -57.7)"/><use xlink:href="#x" width="2.9" height="9.2" transform="translate(-21.7 -55.3)"/><use xlink:href="#bc" width="71.3" height="50.5" transform="translate(-75.5 -50.2)"/></g></g><g clip-path="url(#bd)"><g transform="translate(334.5 496.9)"><use xlink:href="#k" width="82.8" height="59.9" transform="translate(-74.15 -46.5)"/><use xlink:href="#o" width="38" height="22.6" transform="translate(-62.55 -35.95)"/><use xlink:href="#p" width="24.9" height="14.1" transform="translate(-32.6 -41)"/><use xlink:href="#m" width="14.9" height="23.6" transform="matrix(-1 0 0 1 -12.7 -57.9)"/><use xlink:href="#q" width="25.6" height="16.4" transform="matrix(1.0703 0 0 1 -33.7 -49.2)"/><use xlink:href="#r" width="14.4" height="11.7" transform="translate(-27.6 -57.7)"/><use xlink:href="#x" width="2.9" height="9.2" transform="translate(-21.7 -55.3)"/><use xlink:href="#be" width="71.3" height="50.5" transform="translate(-75.5 -50.2)"/></g></g><g clip-path="url(#bf)"><g transform="translate(420.5 496.9)"><use xlink:href="#k" width="82.8" height="59.9" transform="translate(-74.15 -46.5)"/><use xlink:href="#o" width="38" height="22.6" transform="translate(-62.55 -35.95)"/><use xlink:href="#p" width="24.9" height="14.1" transform="translate(-32.6 -41)"/><use xlink:href="#m" width="14.9" height="23.6" transform="matrix(-1 0 0 1 -12.7 -57.9)"/><use xlink:href="#q" width="25.6" height="16.4" transform="matrix(1.0703 0 0 1 -33.7 -49.2)"/><use xlink:href="#r" width="14.4" height="11.7" transform="translate(-27.6 -57.7)"/><use xlink:href="#x" width="2.9" height="9.2" transform="translate(-21.7 -55.3)"/><use xlink:href="#bg" width="71.3" height="50.5" transform="translate(-75.5 -50.2)"/></g></g><g clip-path="url(#bh)"><g transform="translate(506.5 496.9)"><use xlink:href="#k" width="82.8" height="59.9" transform="translate(-74.15 -46.5)"/><use xlink:href="#o" width="38" height="22.6" transform="translate(-62.55 -35.95)"/><use xlink:href="#p" width="24.9" height="14.1" transform="translate(-32.6 -41)"/><use xlink:href="#m" width="14.9" height="23.6" transform="matrix(-1 0 0 1 -12.7 -57.9)"/><use xlink:href="#q" width="25.6" height="16.4" transform="matrix(1.0703 0 0 1 -33.7 -49.2)"/><use xlink:href="#r" width="14.4" height="11.7" transform="translate(-27.6 -57.7)"/><use xlink:href="#x" width="2.9" height="9.2" transform="translate(-21.7 -55.3)"/><use xlink:href="#bi" width="71.3" height="50.5" transform="translate(-75.5 -50.2)"/></g></g><g clip-path="url(#bj)"><g transform="translate(592.5 496.9)"><use xlink:href="#k" width="82.8" height="59.9" transform="translate(-74.15 -46.5)"/><use xlink:href="#o" width="38" height="22.6" transform="translate(-62.55 -35.95)"/><use xlink:href="#p" width="24.9" height="14.1" transform="translate(-32.6 -41)"/><use xlink:href="#m" width="14.9" height="23.6" transform="matrix(-1 0 0 1 -12.7 -57.9)"/><use xlink:href="#q" width="25.6" height="16.4" transform="matrix(1.0703 0 0 1 -33.7 -49.2)"/><use xlink:href="#r" width="14.4" height="11.7" transform="translate(-27.6 -57.7)"/><use xlink:href="#x" width="2.9" height="9.2" transform="translate(-21.7 -55.3)"/><use xlink:href="#bk" width="71.3" height="50.5" transform="translate(-75.5 -50.2)"/></g></g><g clip-path="url(#bl)"><g transform="translate(76.5 569.9)"><use xlink:href="#k" width="82.8" height="59.9" transform="translate(-74.15 -46.5)"/><use xlink:href="#o" width="38" height="22.6" transform="translate(-62.55 -35.95)"/><use xlink:href="#p" width="24.9" height="14.1" transform="translate(-32.6 -41)"/><use xlink:href="#m" width="14.9" height="23.6" transform="matrix(-1 0 0 1 -12.7 -57.9)"/><use xlink:href="#q" width="25.6" height="16.4" transform="matrix(1.0703 0 0 1 -33.7 -49.2)"/><use xlink:href="#r" width="14.4" height="11.7" transform="translate(-27.6 -57.7)"/><use xlink:href="#x" width="2.9" height="9.2" transform="translate(-21.7 -55.3)"/><use xlink:href="#bm" width="71.3" height="50.5" transform="translate(-75.5 -50.2)"/></g></g><g clip-path="url(#bn)"><g transform="translate(162.5 569.9)"><use xlink:href="#k" width="82.8" height="59.9" transform="translate(-74.15 -46.5)"/><use xlink:href="#o" width="38" height="22.6" transform="translate(-62.55 -35.95)"/><use xlink:href="#p" width="24.9" height="14.1" transform="translate(-32.6 -41)"/><use xlink:href="#m" width="14.9" height="23.6" transform="matrix(-1 0 0 1 -12.7 -57.9)"/><use xlink:href="#q" width="25.6" height="16.4" transform="matrix(1.0703 0 0 1 -33.7 -49.2)"/><use xlink:href="#r" width="14.4" height="11.7" transform="translate(-27.6 -57.7)"/><use xlink:href="#x" width="2.9" height="9.2" transform="translate(-21.7 -55.3)"/><use xlink:href="#bo" width="71.3" height="50.5" transform="translate(-75.5 -50.2)"/></g></g><g clip-path="url(#bp)"><g transform="translate(248.5 569.9)"><use xlink:href="#k" width="82.8" height="59.9" transform="translate(-74.15 -46.5)"/><use xlink:href="#o" width="38" height="22.6" transform="translate(-62.55 -35.95)"/><use xlink:href="#p" width="24.9" height="14.1" transform="translate(-32.6 -41)"/><use xlink:href="#m" width="14.9" height="23.6" transform="matrix(-1 0 0 1 -12.7 -57.9)"/><use xlink:href="#q" width="25.6" height="16.4" transform="matrix(1.0703 0 0 1 -33.7 -49.2)"/><use xlink:href="#r" width="14.4" height="11.7" transform="translate(-27.6 -57.7)"/><use xlink:href="#x" width="2.9" height="9.2" transform="translate(-21.7 -55.3)"/><use xlink:href="#bq" width="71.3" height="50.5" transform="translate(-75.5 -50.2)"/></g></g><g clip-path="url(#br)"><g transform="translate(334.5 569.9)"><use xlink:href="#k" width="82.8" height="59.9" transform="translate(-74.15 -46.5)"/><use xlink:href="#o" width="38" height="22.6" transform="translate(-62.55 -35.95)"/><use xlink:href="#p" width="24.9" height="14.1" transform="translate(-32.6 -41)"/><use xlink:href="#m" width="14.9" height="23.6" transform="matrix(-1 0 0 1 -12.7 -57.9)"/><use xlink:href="#q" width="25.6" height="16.4" transform="matrix(1.0703 0 0 1 -33.7 -49.2)"/><use xlink:href="#r" width="14.4" height="11.7" transform="translate(-27.6 -57.7)"/><use xlink:href="#x" width="2.9" height="9.2" transform="translate(-21.7 -55.3)"/><use xlink:href="#bs" width="71.3" height="50.5" transform="translate(-75.5 -50.2)"/></g></g><g clip-path="url(#bt)"><g transform="translate(420.5 569.9)"><use xlink:href="#k" width="82.8" height="59.9" transform="translate(-74.15 -46.5)"/><use xlink:href="#o" width="38" height="22.6" transform="translate(-62.55 -35.95)"/><use xlink:href="#p" width="24.9" height="14.1" transform="translate(-32.6 -41)"/><use xlink:href="#m" width="14.9" height="23.6" transform="matrix(-1 0 0 1 -12.7 -57.9)"/><use xlink:href="#q" width="25.6" height="16.4" transform="matrix(1.0703 0 0 1 -33.7 -49.2)"/><use xlink:href="#r" width="14.4" height="11.7" transform="translate(-27.6 -57.7)"/><use xlink:href="#x" width="2.9" height="9.2" transform="translate(-21.7 -55.3)"/><use xlink:href="#bu" width="71.3" height="50.5" transform="translate(-75.5 -50.2)"/></g></g><g clip-path="url(#bv)"><g transform="translate(506.5 569.9)"><use xlink:href="#k" width="82.8" height="59.9" transform="translate(-74.15 -46.5)"/><use xlink:href="#o" width="38" height="22.6" transform="translate(-62.55 -35.95)"/><use xlink:href="#p" width="24.9" height="14.1" transform="translate(-32.6 -41)"/><use xlink:href="#m" width="14.9" height="23.6" transform="matrix(-1 0 0 1 -12.7 -57.9)"/><use xlink:href="#q" width="25.6" height="16.4" transform="matrix(1.0703 0 0 1 -33.7 -49.2)"/><use xlink:href="#r" width="14.4" height="11.7" transform="translate(-27.6 -57.7)"/><use xlink:href="#x" width="2.9" height="9.2" transform="translate(-21.7 -55.3)"/><use xlink:href="#bw" width="71.3" height="50.5" transform="translate(-75.5 -50.2)"/></g></g><g clip-path="url(#bx)"><g transform="translate(592.5 569.9)"><use xlink:href="#k" width="82.8" height="59.9" transform="translate(-74.15 -46.5)"/><use xlink:href="#o" width="38" height="22.6" transform="translate(-62.55 -35.95)"/><use xlink:href="#p" width="24.9" height="14.1" transform="translate(-32.6 -41)"/><use xlink:href="#m" width="14.9" height="23.6" transform="matrix(-1 0 0 1 -12.7 -57.9)"/><use xlink:href="#q" width="25.6" height="16.4" transform="matrix(1.0703 0 0 1 -33.7 -49.2)"/><use xlink:href="#r" width="14.4" height="11.7" transform="translate(-27.6 -57.7)"/><use xlink:href="#x" width="2.9" height="9.2" transform="translate(-21.7 -55.3)"/><use xlink:href="#by" width="71.3" height="50.5" transform="translate(-75.5 -50.2)"/></g></g><g clip-path="url(#bz)"><g transform="translate(76.5 642.9)"><use xlink:href="#k" width="82.8" height="59.9" transform="translate(-74.15 -46.5)"/><use xlink:href="#o" width="38" height="22.6" transform="translate(-62.55 -35.95)"/><use xlink:href="#p" width="24.9" height="14.1" transform="translate(-32.6 -41)"/><use xlink:href="#m" width="14.9" height="23.6" transform="matrix(-1 0 0 1 -12.7 -57.9)"/><use xlink:href="#q" width="25.6" height="16.4" transform="matrix(1.0703 0 0 1 -33.7 -49.2)"/><use xlink:href="#r" width="14.4" height="11.7" transform="translate(-27.6 -57.7)"/><use xlink:href="#x" width="2.9" height="9.2" transform="translate(-21.7 -55.3)"/><use xlink:href="#bA" width="71.3" height="50.5" transform="translate(-75.5 -50.2)"/></g></g><g clip-path="url(#bB)"><g transform="translate(162.5 642.9)"><use xlink:href="#k" width="82.8" height="59.9" transform="translate(-74.15 -46.5)"/><use xlink:href="#o" width="38" height="22.6" transform="translate(-62.55 -35.95)"/><use xlink:href="#p" width="24.9" height="14.1" transform="translate(-32.6 -41)"/><use xlink:href="#m" width="14.9" height="23.6" transform="matrix(-1 0 0 1 -12.7 -57.9)"/><use xlink:href="#q" width="25.6" height="16.4" transform="matrix(1.0703 0 0 1 -33.7 -49.2)"/><use xlink:href="#r" width="14.4" height="11.7" transform="translate(-27.6 -57.7)"/><use xlink:href="#x" width="2.9" height="9.2" transform="translate(-21.7 -55.3)"/><use xlink:href="#bC" width="71.3" height="50.5" transform="translate(-75.5 -50.2)"/></g></g><g clip-path="url(#bD)"><g transform="translate(248.5 642.9)"><use xlink:href="#k" width="82.8" height="59.9" transform="translate(-74.15 -46.5)"/><use xlink:href="#o" width="38" height="22.6" transform="translate(-62.55 -35.95)"/><use xlink:href="#p" width="24.9" height="14.1" transform="translate(-32.6 -41)"/><use xlink:href="#m" width="14.9" height="23.6" transform="matrix(-1 0 0 1 -12.7 -57.9)"/><use xlink:href="#q" width="25.6" height="16.4" transform="matrix(1.0703 0 0 1 -33.7 -49.2)"/><use xlink:href="#r" width="14.4" height="11.7" transform="translate(-27.6 -57.7)"/><use xlink:href="#x" width="2.9" height="9.2" transform="translate(-21.7 -55.3)"/><use xlink:href="#bE" width="71.3" height="50.5" transform="translate(-75.5 -50.2)"/></g></g><g clip-path="url(#bF)"><g transform="translate(334.5 642.9)"><use xlink:href="#k" width="82.8" height="59.9" transform="translate(-74.15 -46.5)"/><use xlink:href="#o" width="38" height="22.6" transform="translate(-62.55 -35.95)"/><use xlink:href="#p" width="24.9" height="14.1" transform="translate(-32.6 -41)"/><use xlink:href="#m" width="14.9" height="23.6" transform="matrix(-1 0 0 1 -12.7 -57.9)"/><use xlink:href="#q" width="25.6" height="16.4" transform="matrix(1.0703 0 0 1 -33.7 -49.2)"/><use xlink:href="#r" width="14.4" height="11.7" transform="translate(-27.6 -57.7)"/><use xlink:href="#x" width="2.9" height="9.2" transform="translate(-21.7 -55.3)"/><use xlink:href="#bG" width="71.3" height="50.5" transform="translate(-75.5 -50.2)"/></g></g><g clip-path="url(#bH)"><g transform="translate(420.5 642.9)"><use xlink:href="#k" width="82.8" height="59.9" transform="translate(-74.15 -46.5)"/><use xlink:href="#o" width="38" height="22.6" transform="translate(-62.55 -35.95)"/><use xlink:href="#p" width="24.9" height="14.1" transform="translate(-32.6 -41)"/><use xlink:href="#m" width="14.9" height="23.6" transform="matrix(-1 0 0 1 -12.7 -57.9)"/><use xlink:href="#q" width="25.6" height="16.4" transform="matrix(1.0703 0 0 1 -33.7 -49.2)"/><use xlink:href="#r" width="14.4" height="11.7" transform="translate(-27.6 -57.7)"/><use xlink:href="#x" width="2.9" height="9.2" transform="translate(-21.7 -55.3)"/><use xlink:href="#bI" width="71.3" height="50.5" transform="translate(-75.5 -50.2)"/></g></g><g clip-path="url(#bJ)"><g transform="translate(506.5 642.9)"><use xlink:href="#k" width="82.8" height="59.9" transform="translate(-74.15 -46.5)"/><use xlink:href="#o" width="38" height="22.6" transform="translate(-62.55 -35.95)"/><use xlink:href="#p" width="24.9" height="14.1" transform="translate(-32.6 -41)"/><use xlink:href="#m" width="14.9" height="23.6" transform="matrix(-1 0 0 1 -12.7 -57.9)"/><use xlink:href="#q" width="25.6" height="16.4" transform="matrix(1.0703 0 0 1 -33.7 -49.2)"/><use xlink:href="#r" width="14.4" height="11.7" transform="translate(-27.6 -57.7)"/><use xlink:href="#x" width="2.9" height="9.2" transform="translate(-21.7 -55.3)"/><use xlink:href="#bK" width="71.3" height="50.5" transform="translate(-75.5 -50.2)"/></g></g><g clip-path="url(#bL)"><g transform="translate(592.5 642.9)"><use xlink:href="#k" width="82.8" height="59.9" transform="translate(-74.15 -46.5)"/><use xlink:href="#o" width="38" height="22.6" transform="translate(-62.55 -35.95)"/><use xlink:href="#p" width="24.9" height="14.1" transform="translate(-32.6 -41)"/><use xlink:href="#m" width="14.9" height="23.6" transform="matrix(-1 0 0 1 -12.7 -57.9)"/><use xlink:href="#q" width="25.6" height="16.4" transform="matrix(1.0703 0 0 1 -33.7 -49.2)"/><use xlink:href="#r" width="14.4" height="11.7" transform="translate(-27.6 -57.7)"/><use xlink:href="#x" width="2.9" height="9.2" transform="translate(-21.7 -55.3)"/><use xlink:href="#bM" width="71.3" height="50.5" transform="translate(-75.5 -50.2)"/></g></g><g clip-path="url(#bN)"><g transform="translate(76.5 715.9)"><use xlink:href="#k" width="82.8" height="59.9" transform="translate(-74.15 -46.5)"/><use xlink:href="#o" width="38" height="22.6" transform="translate(-62.55 -35.95)"/><use xlink:href="#p" width="24.9" height="14.1" transform="translate(-32.6 -41)"/><use xlink:href="#m" width="14.9" height="23.6" transform="matrix(-1 0 0 1 -12.7 -57.9)"/><use xlink:href="#q" width="25.6" height="16.4" transform="matrix(1.0703 0 0 1 -33.7 -49.2)"/><use xlink:href="#r" width="14.4" height="11.7" transform="translate(-27.6 -57.7)"/><use xlink:href="#x" width="2.9" height="9.2" transform="translate(-21.7 -55.3)"/><use xlink:href="#bO" width="71.3" height="50.5" transform="translate(-75.5 -50.2)"/></g></g><g clip-path="url(#bP)"><g transform="translate(162.5 715.9)"><use xlink:href="#k" width="82.8" height="59.9" transform="translate(-74.15 -46.5)"/><use xlink:href="#o" width="38" height="22.6" transform="translate(-62.55 -35.95)"/><use xlink:href="#p" width="24.9" height="14.1" transform="translate(-32.6 -41)"/><use xlink:href="#m" width="14.9" height="23.6" transform="matrix(-1 0 0 1 -12.7 -57.9)"/><use xlink:href="#q" width="25.6" height="16.4" transform="matrix(1.0703 0 0 1 -33.7 -49.2)"/><use xlink:href="#r" width="14.4" height="11.7" transform="translate(-27.6 -57.7)"/><use xlink:href="#x" width="2.9" height="9.2" transform="translate(-21.7 -55.3)"/><use xlink:href="#bQ" width="71.3" height="50.5" transform="translate(-75.5 -50.2)"/></g></g><g clip-path="url(#bR)"><g transform="translate(248.5 715.9)"><use xlink:href="#k" width="82.8" height="59.9" transform="translate(-74.15 -46.5)"/><use xlink:href="#o" width="38" height="22.6" transform="translate(-62.55 -35.95)"/><use xlink:href="#p" width="24.9" height="14.1" transform="translate(-32.6 -41)"/><use xlink:href="#m" width="14.9" height="23.6" transform="matrix(-1 0 0 1 -12.7 -57.9)"/><use xlink:href="#q" width="25.6" height="16.4" transform="matrix(1.0703 0 0 1 -33.7 -49.2)"/><use xlink:href="#r" width="14.4" height="11.7" transform="translate(-27.6 -57.7)"/><use xlink:href="#x" width="2.9" height="9.2" transform="translate(-21.7 -55.3)"/><use xlink:href="#bS" width="71.3" height="50.5" transform="translate(-75.5 -50.2)"/></g></g><g clip-path="url(#bT)"><g transform="translate(334.5 715.9)"><use xlink:href="#k" width="82.8" height="59.9" transform="translate(-74.15 -46.5)"/><use xlink:href="#o" width="38" height="22.6" transform="translate(-62.55 -35.95)"/><use xlink:href="#p" width="24.9" height="14.1" transform="translate(-32.6 -41)"/><use xlink:href="#m" width="14.9" height="23.6" transform="matrix(-1 0 0 1 -12.7 -57.9)"/><use xlink:href="#q" width="25.6" height="16.4" transform="matrix(1.0703 0 0 1 -33.7 -49.2)"/><use xlink:href="#r" width="14.4" height="11.7" transform="translate(-27.6 -57.7)"/><use xlink:href="#x" width="2.9" height="9.2" transform="translate(-21.7 -55.3)"/><use xlink:href="#bU" width="71.3" height="50.5" transform="translate(-75.5 -50.2)"/></g></g><g clip-path="url(#bV)"><g transform="translate(420.5 715.9)"><use xlink:href="#k" width="82.8" height="59.9" transform="translate(-74.15 -46.5)"/><use xlink:href="#o" width="38" height="22.6" transform="translate(-62.55 -35.95)"/><use xlink:href="#p" width="24.9" height="14.1" transform="translate(-32.6 -41)"/><use xlink:href="#m" width="14.9" height="23.6" transform="matrix(-1 0 0 1 -12.7 -57.9)"/><use xlink:href="#q" width="25.6" height="16.4" transform="matrix(1.0703 0 0 1 -33.7 -49.2)"/><use xlink:href="#r" width="14.4" height="11.7" transform="translate(-27.6 -57.7)"/><use xlink:href="#x" width="2.9" height="9.2" transform="translate(-21.7 -55.3)"/><use xlink:href="#bW" width="71.3" height="50.5" transform="translate(-75.5 -50.2)"/></g></g><g clip-path="url(#bX)"><g transform="translate(506.5 715.9)"><use xlink:href="#k" width="82.8" height="59.9" transform="translate(-74.15 -46.5)"/><use xlink:href="#o" width="38" height="22.6" transform="translate(-62.55 -35.95)"/><use xlink:href="#p" width="24.9" height="14.1" transform="translate(-32.6 -41)"/><use xlink:href="#m" width="14.9" height="23.6" transform="matrix(-1 0 0 1 -12.7 -57.9)"/><use xlink:href="#q" width="25.6" height="16.4" transform="matrix(1.0703 0 0 1 -33.7 -49.2)"/><use xlink:href="#r" width="14.4" height="11.7" transform="translate(-27.6 -57.7)"/><use xlink:href="#x" width="2.9" height="9.2" transform="translate(-21.7 -55.3)"/><use xlink:href="#bY" width="71.3" height="50.5" transform="translate(-75.5 -50.2)"/></g></g><g clip-path="url(#bZ)"><g transform="translate(592.5 715.9)"><use xlink:href="#k" width="82.8" height="59.9" transform="translate(-74.15 -46.5)"/><use xlink:href="#o" width="38" height="22.6" transform="translate(-62.55 -35.95)"/><use xlink:href="#p" width="24.9" height="14.1" transform="translate(-32.6 -41)"/><use xlink:href="#m" width="14.9" height="23.6" transform="matrix(-1 0 0 1 -12.7 -57.9)"/><use xlink:href="#q" width="25.6" height="16.4" transform="matrix(1.0703 0 0 1 -33.7 -49.2)"/><use xlink:href="#r" width="14.4" height="11.7" transform="translate(-27.6 -57.7)"/><use xlink:href="#x" width="2.9" height="9.2" transform="translate(-21.7 -55.3)"/><use xlink:href="#ca" width="71.3" height="50.5" transform="translate(-75.5 -50.2)"/></g></g></svg>