<svg xmlns="http://www.w3.org/2000/svg" xmlns:xlink="http://www.w3.org/1999/xlink" width="60" height="49" viewBox="0 0 60 49"><defs><linearGradient id="a" x1="-819.2" x2="819.2" gradientTransform="matrix(-.01 -.02 .02 -.01 6.2 1.8)" gradientUnits="userSpaceOnUse" spreadMethod="pad"><stop offset=".3" stop-color="#3c342b" stop-opacity="1"/><stop offset="1" stop-color="#cac4ac" stop-opacity="1"/></linearGradient><clipPath id="b"><path d="M1 1h58v47H1z"/></clipPath><g id="c"><path fill="#515026" d="m27 1.2.4 1.7h-.2l-1.2 1 1.5 8.8h-.1L25 2.3zm6.5 11 .1 1.4v.1l.1 1.2v.8l-13.6 6.8 13-7.2v-.7l-1.9.3 1.3-1.7-1.9.5zM25 2.2l2.4 10.6h-.2l-3-9.2L24 8l-1.2-4.5zM11.7 20.7l-.1.1h-.2l-3-9.2-.2 4.3-1.1-4.5 2.1-1.2 2-1.1.5 1.8h-.3l-1.2 1zm21.9-7.1-2.4 1.3zm3.5 15.9.1 1.3.2 2.1-3 1.5-10.6 5.3 13-7.2-.1-.6-1.8.3V32l1.3-1.6-1.9.5zm0 1.3L35 32.1zM5 31.2l-.6-2.4 3.8-2-3 2.2.7.8 9.6-4-.7.4-5.2 2.6-2 1zm6.5-10.4L9.2 10.2z"/><path fill="#929243" d="m27.5 2.9.9 4.5 1 4.3-1.9 1L26 3.9l1.2-1zm6.3 12.8v.8L30.7 18l.4 1.7v.4l.2.6h.1l.1.2-.2-.2.2.2.3 1.4.6 2.7.8 3.9L29 31l-1.1.6-.6-2.7-.9-4-.8-4h-.1v-.2l-1.9 1-7.9 4-9.6 4.1-.7-.8 3-2.1-3.8 1.9-.3-1.7.2-.1 4.6-2.3 3-1.5 18.5-9.5 2-.5-1.4 1.7h-.1.1l1.8-.3.1.7-13 7.2-.3.1.3-.1zm-8.4-2-1.3.7-1-4.4-1.4-5.7v-.1l1.2-.7L24 8V3.6l3.1 9.2zm-11.8 6-1.9.9-1.5-8.8 1.2-1h.3zm-2.2 1-3.1 1.7-1-4.3-1.4-6V12l1.2-.7 1.2 4.5v-4.3zm19.9-6H31h.1m6.2 18v.8L34.4 35l-5.3 2.7-2 1-5 2.6-1-.5 2.3-1.1.3-.2 13-7.2-.1-.6-1.8.3h-.1.1l1.3-1.6-1.9.5L18 39.2l3.1 1.8 2.3-1.1.3-.2 10.6-5.2v-.1zM30.7 18l-5.2 2.7zm4.2 14.1-.1.1zm-5.6 5.8 5.3-2.7 1 4.8-1.2.8-.4.3-.4.3-1.7 1.6-.9 1.4-.2.4v-.1h-.1zM9.8 28.8l5.1-2.6.5 2.3.1.1.2.3 1.7 7.9v.2l-1.7.8-4.5-2.5zM9 26.6l-.6.3zm6.7 2.3-.2-.2v-.1h.2zm-6.2-1.1 10.3-5.2z"/><path fill="#0c0c05" fill-opacity=".3" d="m28.4 7.4 1 .6h.2l.1 1.9.1 1.6-.4.2zm5.2 6.3.3.2-.1.1-.1.9zm-11.4 1.7-.1-.7zM4.8 33.3l-1 .6-1 .8-.7.5-1.8-.8v-4.9l-.1-.2L2.3 28l.3 2.2 2.5 1v-.1L8 29.8l.7 3.7L8 33l-2.6-.2-.2.1zm.3-9.1-.3-4.7 1-.4.8 4.3zM4.2 27h.3zm-2 3.7h.2zm15 6.3v-.2l.1.1m5.5-6.4h.1z"/><path fill="#a9a94e" d="m29.8 11.5 1.4-.7 2.3 1.4-2.9 1.5v-.8q-.1-.4-.7-.4h-.4l-2 .4h-.1l-.1.1-1.9.8 1.8-1h.2l.1-.1 1.9-1zM7.6 22.8l-1.1.7q-2 1.4.2 1l.1-.1L3.6 26l-.5.5.5-.5 3.2-1.5h-.1q-2.3 1.9.2 1l1.9-.7.3-.1L4.5 27h-.2L3 26.5 1.9 26l-.1-.2 3.1-1.6 1.5-.8zm27.8 5.6 1.8 1-2.9 1.6v-.5q0-.8-1-.8-1.3 0-4.2 1.3l4-2.1 1.8-.8z"/><path fill="#c1c179" d="m27 1.2-2 1-2.1 1.3-1.2.7-1.6-.8L25.5.5zm-1.5 12.6 1.9-.8h.1l.2-.1 1.9-.4h.4q.6 0 .8.4l-.1.8-18.5 9.5-3 1.5-.3.1-1.9.8q-2.5.8-.2-1l.2-.1-.1-.1h-.1q-2.2.5-.2-.9l1.1-.7.7-.3 3.1-1.6.2-.1.1-.1 1.9-1 8.5-4.3h.1l1.9-1zM7 24.5h-.2zl4.8-2.4 7.5-3.6-7.5 3.6zm18.9 8.2 2-1 1.2-.6q2.9-1.3 4.3-1.3 1 0 1 .8l-.1.5L18 39.2l-1.2-.6-1.2-.8 1.7-.8v-.1zM4.4 11.3l5.3-2.8 1.5.6-2 1.1-2.1 1.2-1.2.7zm18.5 24.3-6 3z"/><path fill="#4b4a23" d="m24 14.4-1.7 1-.2-.7-2.4-11.2.4-.1 1.5.8h.1l1.4 5.8zm-15.8 8-.7.4-1.2.6-.8-4.3-1.7-7.7.5-.1 1.5.9 1.4 6zm17.2-1.8v.2h.1l.8 4 .9 4 .6 2.7-2 1-2.3-10.9zM2.3 28.1 1.9 26l1.2.5 1.2.5.3 1.8.5 2.4-2.5-.8v-.1zm25 10.9 2-1.1 1.4 6.9L30 46l-1.6-1zM7.8 29.8l1.9-1 1.3 6.5-1-.6-1.5-1.2z"/><path fill="#9d9d48" d="M31.5 20.9v-.2h-.2l-.2-.6.4.3 1.9 1.5 5.5 2.3 1.7-.7v1h1.6l-1.8 1-1.4 2.2-.9 1.2v-.1l-.6-2.4-1.9-1.9-3.8-2.2zm9.5 5 1 .1h2.5l.1.1 1 .8 2.4 2 4.7 2h-.2.1l-.3.3V31l-.1.1-.9.6-.4.3-.6-.6-8.2-4.7-1.1.3v-1m16.5 7h.1v.1z"/><path fill="#dfdeb0" d="m31.8 22.3 3.8 2.2 1.9 1.9.6 2.4v4.5l.1.5v.2l-.7-.3-.1-.8-.1-2.1-.1-1.3v-.1l-1.8-1v-1.9l-3-1.5zm.6 2.7 3 1.5v1.9l-.5-.3-1.7.8zm5.9 9v-.2zv.3zm2.8-4v-2.9l1.1-.3 8.2 4.8.6.5-.6.4-.8.6-.1.1-1.6 1.1-.4.3L44 33l-.5 2.1 2.3 1-.5.5-.4.6-3.6-1.6-.1-3zm4.8 6.1-2.3-1L44 33l3.4 1.6-.5.4zm-3-6.1 6.6 3.2z"/><path fill="#65653d" d="m38.1 28.8.9-1.1.3.6 1.2.8.5-.3v1.3l-2.5 1.3h-.4z"/><path fill="#7a7a49" d="m39 27.7 1.4-2.1 1.8-1h1.5l-1.7.8-1 .6v1.1-1.3 3l-.5.3-1.2-.8zm-.8 6.1v-2.4h.3l2.5-1.3.2 2.5-2.7 1.6-.3.1.2-.1-.2.1zm2.8-6.3v-.4zm-2.6 6.7-.2-.1zm0 0-.2-2z"/><path fill="#2e2b1f" d="m37.5 33.7.6.3v.3h.4v-.1l2.7-1.6.1 3 3.6 1.6-.5.8-.2.3H44l-.5 1-2-1.1-.2-.1 2 .2-2.5-.4.5.2-2.1-.2.5.7-.7-.4-.2-.6v.7q-.3.1-.5.6l-1.1.3-1.2.4-.5.4-1-4.8z"/><path fill="#857b58" d="m23.6 21.7 2.3 10.9-8.5 4.3v-.1l5.8-3.1-.2-3.2h-.1v-1.2l-.3-1.2-.6-2.6-6.5 3-.6-2.3.8-.4z"/><path fill="#aeae51" d="M41 26.4v.7zm9.9 5.7.4-.3.9-.6.1-.1.4.3 2.3 1.4.9.5.9.5-.7.6h-.2l-4.1-2-.5.4 2.6 3-.4-.3-1.5-.7-2.5-.8-.5.4 4 2.7 3.2 2.1h-.1L54 38.1l-1.1-.6-.2-.1-.1-.1-2.5-1.4-.6-.4-1-.6-.7-.5 1.6-1.2 4 2.3-4-2.4.9-.6zm-2.1 8.6.1.3-.2-.1-2.6-1.4-.5-.4-1.5-.8.3-.3.5-.7.4-.7.5-.5 1.1-1.1.5-.4.4-.2.8.5.9.6.6.4 2.5 1.4-4.4-1.8-1.1 1zM47 42.3l-.4.4-8.3-3.9q.2-.4.5-.5l.2-.1h.1l.6.4-.5-.7h.1l.3.2 3.6 2zm-12 3.9h-1.7l-.6-.3-2-1.1.3-.4.8-1.4 1.7-1.6.4-.4.4-.2 1.2-.8.5-.4 4 2.4-1.4-.8-2.6-.7-.4.3 7.1 4.9-3.6-2-.4-.2L36 42l-.1-.1-.8-.5-.8-.6.8.6.8.5h.1l2.8 1.6.4.3-4.4-1.9-1.1 1zm22-12.3.3.2zm-4 3.2-.3.3zm-15.8 2.1 1.1-.4-.5.4 2.7 3-.5-.2-4-2.4z"/><path fill="#c7c785" d="m52.3 31.2.3-.2 1.7.4 1.6.8.8.5.6.4.2.1-.7.5-.8-.4h-.1l-.9-.5-2.2-1.3-.1-.1zM41 26v-.2zm15 8.4L54.4 36 53 37l-4-2.6.5-.4 2.5.8 1.5.7.4.3-2.6-3 .5-.4 4.1 2zm-8.4 7.4-.6.5-3.8-2.1-3.6-2.1 2 .1 2 1.1.5.4zm-1 .9L43 45.8l-.2-.1-7.2-4.9.4-.3 2.6.7 1.4.8.5.2-2.7-3 .5-.4zm-16.1 3.5h-2.4l-4.4-2.4-2.9-1.5-1.1-.5-.8-.5-2.4-1.3-1.2-.6-1.2-.7-2.5-1.4-2.5-1.4-4-2.3v-.1l-.5-.2.5-.4.2-.1 2.6.2.7.5 1.6 1.1 1 .6 4.5 2.6 1.2.8 1.2.6 3.1 1.8 1 .5 1.4.9 4.8 2.6 1.7 1zM54.3 36l-.4-.2zm-13.1 6.7-.7-.5z"/><path fill="#bebe74" d="m52.7 37.4-3.9 3.4-1.7-4.3 1.1-1 4.4 1.8zM43 46l.7.3H35L33.6 43l1.2-1.1 4.4 1.9 3.5 1.9z"/><path fill="#3f4730" d="m48.9 41-.4 1.4-.9-.6-3.5-2.1-.5-.4.5-1 1.5.9.5.3 2.5 1.4zm-15.6 5.2h-2.8l-.4-.2.5-1.2v-.1h.1l2 1.2z"/><path fill="#332f22" d="m22.2 41.6 5-2.6 1.2 6-4.8-2.6z"/><path fill="url(#a)" d="m15 6.6-.2.1V6zm.4-.3 2 .2-.4-.2 2.5.4-2-.2.2.1-2-.1zm2.1.2" transform="translate(24 31.6)"/><path fill="#bcb78f" d="m17.4 36.8-1.7-8v-.2h-.2v-.1l6.5-3 .6 2.6.3 1.2v1.2h.1l.2 3.1z"/><path fill="none" stroke="#23240f" stroke-linecap="round" stroke-linejoin="round" stroke-opacity=".5" stroke-width="1" d="m27 1.2.4 1.7 1 4.5 1 4.3m1.3 6.3.4 1.7v.4l.2.6.2.2v-.2M27 1.2h-.2l-1.9 1-2.1 1.3-1.2.7h0L20 3.4 25.5.5l1.4.7m4.6 19.7.3 1.4.6 2.7.8 3.9m-7.7-8v-.2m-1.9 1 2.3 10.9m2-1-.6-2.7-.9-4-.8-4h0M5.6 19l-1.7-7.7m.5-.1 5.3-2.8 1.5.6h0l.5 1.8 1.9 8.9M35.5 40l-1-4.8m-3.9 9.5L29.2 38m-2 1 1.2 6.1M19.7 3.5l2.4 11.2.1.7M4.3 27.1V27m6.9-17.9-2 1.1-2.1 1.2-1.2.7v.1h0l-1.5-.9m1.6 1 1.4 6 1 4.3m1.5 6.3 1.3 6.5m6.3 1.7v-.2l-1.7-8-.2-.1v-.2l-.6-2.3m.8 2.4v.3M5.6 19l.8 4.3m15.4-19 1.4 5.7 1 4.4M7.9 29.8l.7 3.7"/><path fill="none" stroke="#23240f" stroke-linecap="round" stroke-linejoin="round" stroke-opacity=".3" stroke-width="__RESOLUTION__" d="m29.8 11.5 1.4-.7 2.3 1.4h.1-.1l.1 1.4v.1l.1 1.2v.8l.1.8-3.1 1.5-5.2 2.7-1.9 1-7.9 4-9.6 4.1-.7-.8 3-2.1m19-14.1.1-.1 1.9-1 .4-.2m.8 2.2 2.9-1.5m-6.3.6h.2m-2 1-1.3.6-1.9 1h0l-8.6 4.4-1.9.9-.1.1h-.2l-3.1 1.7-.7.3-1.2.6-1.5.8-3.1 1.6h-.2l.3.2.4 2.1.3 2.2m4.2-5.9H7m13.1-2 13-7.1v-.7l-1.9.3m-.1 0 1.3-1.7-1.9.5m-3.4-.9-1.8 1m10 14.6 1.8 1h0v1.4l.2 2.1v.8l-2.9 1.5-5.3 2.7-2 1-5 2.6m3.7-8.9 2-1L29 31l4-2.1 1.8-.8.5.3m-1 2.6 2.9-1.5M34.8 32l1.4-1.6-1.9.5m-10.5 8.7 13-7.2-.1-.6-1.8.3m-.1 0V32m-11 7.6-.4.1M3.1 26.6l1.2.5m.2 0 4.6-2.3 3-1.5h0l18.5-9.5M3.1 26.5 1.9 26m.7 4.4 2.5.9v-.1l-.5-2.4-.3-1.7m.8 4.1L8 29.8l1.9-1 5.1-2.6.8-.4m0 12 1.7-.8v-.1l8.5-4.3m-6-10.1-.3.1M34.3 31 18 39.2" vector-effect="non-scaling-stroke"/><path fill="none" stroke="#415225" stroke-linecap="round" stroke-linejoin="round" stroke-opacity=".2" stroke-width="__RESOLUTION__" d="m31.1 19.7 3.1-1.6m11.3 8.8L49 25m3.4 6 .4.3h0l2.3 1.4.9.5h0l.9.5M28.2 46.2l-4.5-2.4-2.9-1.5h0l-1.1-.5-.8-.5-2.4-1.3-1.2-.6-1.2-.7-2.5-1.4-2.5-1.4-4-2.3v-.1l-.5-.2m43.2 1 .8.6.9.6.6.4 2.5 1.4h.1m.8-1.8-4-2.4m4.4 2.6.4.3m-.8-.5.4.3m-14.8 2.4.6.4-.5-.7h.1l.3.2 3.6 2 3.8 2.2m-6.5-.1.7.5m-6.9-1.9.8.6.8.5h.1l2.8 1.6.4.3 3.5 1.9.3.1M40 42l-4-2.4m4.5 2.6L40 42M5.8 37.6l.5.3.7.5" vector-effect="non-scaling-stroke"/><path fill="none" stroke="#23240f" stroke-linecap="round" stroke-linejoin="round" stroke-opacity=".2" stroke-width="__RESOLUTION__" d="m25 2.3 2.4 10.5M7 24.4l4.8-2.4h0l7.5-3.6m12-3.5H31m.1 0 2.4-1.3M34.9 32l-.1.1m.1 0 2.4-1.4m.1 2.1-3 1.5h0l-10.6 5.3m-.4.1L21.3 41M6.8 24.5 3.6 26l-.5.5m3.8-2 .2-.1m2.2-14.2 2.4 10.6M7 11.4l1.2 4.5M4.6 28.8l3.8-2 .6-.2m10.8-4L9.4 27.8M17 38.6l6-3m10.9-20-13.9 7m2.8-19L24 8" vector-effect="non-scaling-stroke"/><path fill="none" stroke="#928943" stroke-linecap="round" stroke-linejoin="round" stroke-opacity=".6" stroke-width="__RESOLUTION__" d="m32.4 25 3 1.5v1.9M45.8 36l-2.3-1 .5-2 3.4 1.6m2-1.4L42.8 30" vector-effect="non-scaling-stroke"/><path fill="none" stroke="#415225" stroke-linecap="round" stroke-linejoin="round" stroke-opacity=".4" stroke-width="__RESOLUTION__" d="m37.5 33.7.6.3h.1v-.2m0-.5v-1.9l-.1-2.6m5.6-4.2-1.7.8-1 .6h0v1.1l1.1-.3m-1 3.3-.1-1.3v-1.7h0V26h0m10.3 5.8.9-.6m.3-.2.2-.1M41 27v-.6m0 .7v.4M4.6 33.3l-1 .6m-1 .8-.7.5m47.6-2h-.1l-1.6 1.1-.4.3h0m2-1.5.9-.6m-1.5 8.3-1.7-4.3 1.1-1 4.4 1.8m-8.5 1 1.5.9.5.3 2.5 1.4.3.1m-4-3.7-3.6-1.7-.1-3L41 30m-2.5 4.2h-.1l-.2-.1v.2m-17 6.7 1 .5 1.4.9 4.8 2.6 1.7 1 .4.2m8.3-7.9.2-.1-.2-.6zq-.3.1-.5.6m-2.8 1-1.2.9-.4.3m2.1-1.5-.5.4m.5-.4 1.1-.4m-2.1 7L33.6 43l1.2-1.1 4.4 1.9m-8.5 1 2 1.1.5.3m14.4-4.4-3.5-2.1m-33-4.5 4.6 2.6 1.2.8 1.2.6 3.1 1.8m-11-6.4 1 .6m-5.9-2.5-.2.2" vector-effect="non-scaling-stroke"/><path fill="none" stroke="#415225" stroke-linecap="round" stroke-linejoin="round" stroke-opacity=".6" stroke-width="__RESOLUTION__" d="M38.2 34v-.7m-.1 1V34m0-1.7.4 1.9" vector-effect="non-scaling-stroke"/><path fill="none" stroke="#415225" stroke-linecap="round" stroke-linejoin="round" stroke-opacity=".4" stroke-width="__RESOLUTION__" d="m38.5 31.4 2.5-1.3m.2 2.5-2.7 1.6m-.1 0-.2.1" vector-effect="non-scaling-stroke"/><path fill="none" stroke="#415225" stroke-linecap="round" stroke-linejoin="round" stroke-opacity=".6" stroke-width="__RESOLUTION__" d="m52.6 31 1.7.4 1.6.8.8.5.6.4.2.1m-18.2 4.6 2 .3-.4-.2 2.5.4-2-.2.2.1 2 1.1.5.4M8.6 33.5l-.7-.5-2.6-.2m3.3.7 1.6 1.1" vector-effect="non-scaling-stroke"/><path fill="none" stroke="#4b501f" stroke-linecap="round" stroke-linejoin="round" stroke-opacity=".2" stroke-width="1" d="m52.7 37.4.3-.3"/><path fill="none" stroke="#415225" stroke-linecap="round" stroke-linejoin="round" stroke-opacity=".7" stroke-width="__RESOLUTION__" d="m44.9 37.3.4-.7.5-.5 1.1-1.1m-2.5 3 .5-.7m-1.3 2 .5-1h0m-10.6 3.1L31.8 43l-.9 1.4m-.2.4L30 46" vector-effect="non-scaling-stroke"/></g></defs><g clip-path="url(#b)"><use xlink:href="#c" width="57.5" height="46.2" transform="translate(1 1)"/></g></svg>