<svg xmlns="http://www.w3.org/2000/svg" xmlns:xlink="http://www.w3.org/1999/xlink" width="67" height="48" viewBox="0 0 67 48"><defs><linearGradient id="b" x1="-819.2" x2="819.2" gradientTransform="matrix(0 -.01 .02 0 -4.75 -17.1)" gradientUnits="userSpaceOnUse" spreadMethod="pad"><stop offset="0" stop-color="#2e281f" stop-opacity="1"/><stop offset="1" stop-color="#5e5640" stop-opacity="1"/></linearGradient><linearGradient id="a" x1="-819.2" x2="819.2" gradientTransform="rotate(-90 -3.3 -15.85)scale(.01)" gradientUnits="userSpaceOnUse" spreadMethod="pad"><stop offset="0" stop-color="#512115" stop-opacity="1"/><stop offset="1" stop-color="#73351e" stop-opacity="1"/></linearGradient><path id="d" fill="#fff" fill-opacity=".5" d="M8.4 8.4Q6.9 9.8 4.9 9.8T1.4 8.3Q0 7 0 5t1.4-3.5Q2.9 0 4.9 0t3.4 1.4q1.5 1.5 1.5 3.5T8.3 8.3"/><path id="g" fill="#5e5640" d="M71-79.3q6.2-1.9 8.7.7L65.6-67l2.1-.5.8-.5q9.8-5.5 18.5-6.5 7.8-.8 10.5 2.8l-6 3.3Q95.8-67 98-64L62.2-44Q74-27.8 75.8-7.6l2-.4q9-1.8 15.7-1.2 6.7.4 7.1 2.8.5 2.5-5.5 5.5-6 2.9-15 4.7L79 4l3.6-.1q10.5 0 18 2t7.4 4.9-7.4 4.9q-4.7 1.2-10.5 1.7 2.4 1.1 4.4 2.4 5.7 3.4 5 5.8-.7 2.3-7.4 2.3-6.7-.2-15.5-2.8l-4.2-1.4q-5.3 16.7-18.7 30.1-6.7 6.8-14.3 11.5l-5 11-3-6.7q-8.9 4-18.7 5.6 1.5 4.5 2.7 10.1 1.8 9 1.3 15.7t-3 7.2-5.4-5.5-4.6-15.1l-.2-1v3.6q0 10.5-2 18t-4.9 7.5-4.9-7.5q-1.2-4.6-1.7-10.4l-2.3 4.4q-3.6 5.6-6 5-2.3-.8-2.2-7.5.2-6.7 2.8-15.4 1.6-5.2 3.5-9.4-11.3-2-21.3-7.3l-3 6.8-5.4-12q-5.2-3.8-10-8.6-13.6-13.6-18.9-30.6l-5.7 2q-8.8 2.6-15.4 2.8-6.7 0-7.5-2.3t5-5.8q2-1.3 4.4-2.4-5.8-.5-10.4-1.7-7.5-2.1-7.5-5 0-2.8 7.5-4.8t18-2h3.5l-1-.1q-9-1.8-15-4.7t-5.5-5.4 7.1-3q6.8-.5 15.8 1.3l3.6.8q1.8-20.5 13.6-36.8l-35-19.6q2.2-3 6.5-4.4l-6-3.3q2.6-3.5 10.5-2.7 8.6 1 18.5 6.4l.8.5 2.1.5-14-11.5q2.5-2.6 8.8-.7 6.6 1.9 13.8 7.8 6.3 5.2 9.7 10.7 20-15.9 46.6-15.9 26.8 0 46.9 16.1 3.4-6 10.1-11.5 7.2-5.8 14-7.8" transform="translate(109.8 80.1)"/><g id="h"><path fill="#73351e" d="m48.5 38.9-.6-2.5.8-.9.9.3 1.2 2.8-1.4-.9z"/><path fill="#8b4723" d="m50.8 38.6-1.1.9-1.2-.6.9-1.1v-.1z"/><path fill="none" stroke="#000" stroke-linecap="round" stroke-linejoin="round" stroke-opacity=".3" stroke-width="__RESOLUTION__" d="m48.5 38.9-.6-2.5.8-.9.9.3 1.2 2.8-1.1.9z" vector-effect="non-scaling-stroke"/><path fill="#73351e" d="m19.9 41.4-.6-2.5.8-.9.9.3 1.2 2.8-1.4-.9z"/><path fill="#8b4723" d="m22.2 41-1.1 1-1.2-.6.9-1.1v-.1z"/><path fill="none" stroke="#000" stroke-linecap="round" stroke-linejoin="round" stroke-opacity=".3" stroke-width="__RESOLUTION__" d="m19.9 41.4-.6-2.5.8-.9.9.3 1.2 2.8-1.1.9z" vector-effect="non-scaling-stroke"/><path fill="#5c4612" d="m12.8 21.7-1.7.8-2.9.6-1.6-4.7 4.6-1.4z"/><path fill="#7a5c18" d="m8.2 23.1 3-.6 1.6-.8 1.2 3.6-4.5 1.5zm3-6.2-4.6 1.6L5 13.3l4.6-1.6z"/><path fill="none" stroke="#000" stroke-linecap="round" stroke-linejoin="round" stroke-opacity=".3" stroke-width="__RESOLUTION__" d="M12.8 21.7 11.2 17l-1.7-5.2-4.6 1.5 1.7 5.1 1.6 4.7 1.3 3.7 4.5-1.5z" vector-effect="non-scaling-stroke"/><path fill="none" stroke="#000" stroke-linecap="round" stroke-linejoin="round" stroke-opacity=".3" stroke-width="__RESOLUTION__" d="M9.2 8.8h1.2l2.5-.5h-1.3q-2 0-2.4.5m1-3.2.8-.1q3.4 0 3.9 1.4 0 .8-2 1.4 3.2.2 3.3 1.4 0 1-1.7 1.6-.9.5-1.8.6l1 .8q1.1 1.3 1.1 2 0 1.2-2.1 1.2-2 0-2.9-1-.1.5-.5.6m.5-1q0-1-.6-1v.1q.1.8.6 1.3zm1.4-2.3 1.5-.2q-.9-.6-1.7-.6-.5 0-.8.5.2.3 1 .3" vector-effect="non-scaling-stroke"/><path fill="#7a5c18" d="M10 7.3q.7-.7 1.6-.7t1.6.7q.8.6.8 1.5t-.8 1.4-1.6.6-1.7-.6q-.6-.6-.6-1.4 0-.9.6-1.6"/><path fill="none" stroke="#000" stroke-linecap="round" stroke-linejoin="round" stroke-opacity=".3" stroke-width="__RESOLUTION__" d="M10 7.3q.7-.7 1.6-.7t1.6.7q.8.6.8 1.5t-.8 1.4-1.6.6-1.7-.6q-.6-.6-.6-1.4 0-.9.6-1.6" vector-effect="non-scaling-stroke"/><path fill="#e4c83a" d="M2.1 1.9 1.7.6l3.7.6v1.1l.3 3.9.1.8-3.3-.3-.3-3.9zM5.8 7v-.8l-.4-3.9V1.2q3.6 1 5 3.7Q8.2 6.7 5.8 7"/><path fill="#e1bc66" d="M1.7.6 2.1 2q-1.2 8.6 0 12l.1.5v.5l-.5 1.8-.2.1q-.5 0-.8-2.4L.5 12V7l.2-4.3Q1 .4 1.5.4z"/><path fill="#ffff67" d="m2.1 1.9.1.9.3 3.9v5L2.2 14l-.1.4v.1L2 14q-1-3.4.1-12"/><path fill="#d19f29" d="m2.5 6.7 3.3.3v1.1l-.1 3.1v1-1l.1-3V7q2.4-.3 4.6-2.1.9 1.5 1 3.7v1.1q-2.3 2.4-5.8 2.4l-3.2-.4.1-3z"/><path fill="#7a5c18" d="M1.7 16.8q.2-.4.4-1.8l.1-.5.1-.5.1-2.3 3.2.4q3.5 0 5.8-2.4-.7 5.3-6.4 6.7zm3.8-3.4.1-1.3zm-.3 1.8L5 16.4z"/><path fill="none" stroke="#000" stroke-linecap="round" stroke-linejoin="round" stroke-opacity=".3" stroke-width="__RESOLUTION__" d="M1.7.6 2.1 2l.1.9.3 3.9v5L2.2 14m3.5-7v-.8l-.4-3.9V1.2L1.7.6 1.5.4Q1 .4.7 2.8L.4 7.1v1.5l.1 3.5.2 2.3Q1 17 1.5 17l.2-.1q.2-.4.4-1.8M10.5 5q.9 1.5 1 3.7v1.1Q10.7 15 5 16.4l-3.3.4M5.8 7v1.1l-.1 3.1v1l-.2 1.3M5 16.3l.3-1.2m.1-14q3.6 1 5 3.7" vector-effect="non-scaling-stroke"/></g><g id="f"><path fill="#b0b8be" d="M45.5 1.8h-.2v-.4zM6.5 24l-.6-2 1.4 4.3.6 2-.6-1.7z"/><path fill="#8b4723" d="m45.3 1.9.2-.1 1.3 3.9-3.6 9.7h-.9l-.5.1zM31.9 17.8l-10.4 4.3-4-1.6-5.2 2.4 2 2.6-4.8 7-1.5-4v-.2l-.7-2.1L8.4 25v-2.3l7.3-3.6zm3.8 17.5 2.3-2.6v-1.9l2.8-1.6-1-2.8L51 18.8l-2.6 6.6-4.9 2.8.6 2.2-1.4 2.6-2.2.6-2.6 2.3-.4-.7zm-27.8-7 .1.3z"/><path fill="#d38c36" d="m45.5 1.8-.2-.4V2L31.2 3l-1.4-1.3L47 .4l1.4 4.1-1.7 1.6v-.4zm-38.9 14 .8 2.3v.1l23.2-1.8 1.2 1.4-16.1 1.4-10.4.9L4 15.8zm1 2.9-.2-.5z"/><path fill="url(#a)" d="m19.9-26.4-3.5 13.6-3.5.3L5-20.2l2.3-3.7-1.5-1.3z" transform="translate(25.4 28.3)"/><path fill="#bfb699" d="M41.8 15.5h.5l2 1.1-6.1.6-1.1-1.3 1.2-.1zm-12-13.7L31 3.1 14.7 4.6l-4.4-1.2zm7.4 14.1 1.1 1.3-6.4.6-1.2-1.4zm-33-7 2.5 6.9H4L1.8 8.5zm6.2 25.8v.3l2.6-1 .2.6.4 1.4-2.6 1.2-1 2.4L9 37l.7-1.6zM51 11.8l-2.4-.5L46.8 6l1.7-1.6zM6.4 28.7l-.9-2.5 1-2.2.8 2.6z"/><path fill="#f2f0e6" d="m42.3 15.5.9-.1 6.4-.5-1-3.5 2.2.5 1.4 4v.1l-7.9.6zM14.6 4.7l-11.7 1L4.1 9l-2.3-.5L.4 4.2l9.8-.8z"/><path fill="#8f8563" d="m43.2 15.4 3.5-9.7.1.4 1.8 5.3 1 3.5z"/><path fill="url(#b)" d="m12.9-12.5-1.2.1-6.5.5-23.1 1.8-.9-2.4-2.4-6.9-1.3-3.4 11.7-1 16.6-1.4 1.5 1.3L5-20.2z" transform="translate(25.4 28.3)"/><path fill="#7a7453" d="m38.2 17.2 6.1-.6 7.9-.6-1.2 2.8-11.2 7.6 1 2.8-2.8 1.6v1.8l-2.3 2.7-18.6 1.5-2.8-2.1h-1.2L13 34l-2.6 1v-.4l-.8-2 4.7-7-1.9-2.6 5.2-2.4 4 1.5L32 18l-.2-.1zl-.9 4.3zM9.5 32.5l.8 2.1-.6.8-1.3-4.1-.8-1-1.3-1.6 1-2.1.6 1.8.1.2zm27.8-9.8 1.7-4.3zm1.9-2.2.8-1.2zm-20.9 10-.3-1.9zM8 28.6l.4 2.6zm8 5.4-1.4-4.8zm1.7-2.2-.7-4z"/><path fill="#5e5640" d="M13.2 34.7h1.1l2.8 2-.5.1.7 2.2-1 2.5-2.8 1.1L11 42l-1-2.3 1-2.4 2.6-1.2zM42.8 33l2.6-.7.5 4.5-1.1 2.4-2.6 1.1-2.7-.7-1.5-3.7 2.6-2.3z"/><path fill="#181312" fill-opacity=".5" d="m17.2 36.8 18.5-1.5 2-.1.3.7 1.5 3.7 2.6.8 2.7-1.2 1.1-2.5-.5-4.5-.1-1 1.1-.6.1-.3h.1L49 40.8 9.4 45.1 5.6 30.2h2l.8 1 1.3 4.1L9 37l.8 2.6 1.1 2.3 2.6.8 2.8-1.2 1-2.5-.7-2.2z"/><path fill="#73351e" d="m48.5 25.4-2 4.9-.1.3-1.1.6.1 1-2.6.8 1.5-2.6-.6-2.2zM6 22l-.7-1.9 10.4-.9-7.3 3.6v2.3l-1.1 1.1z"/><path fill="none" stroke="#2d3e38" stroke-linecap="round" stroke-linejoin="round" stroke-width="__RESOLUTION__" d="m45.3 1.9.2-.1m-3.7 13.7h.5l.9-.1 6.4-.5m-11.3.9-1.2.1-6.5.5-23.2 1.8h0m34.3-2.7-3.4.3M7.5 18.2l.1.5" vector-effect="non-scaling-stroke"/><path fill="none" stroke="#000" stroke-linecap="round" stroke-linejoin="round" stroke-opacity=".1" stroke-width="__RESOLUTION__" d="m37.1 15.9 1.1 1.3-.9 4.3m1.7-3-1.7 4.3m2.7-3.4-.8 1.2M18 28.7l.3 1.9m-3.7-1.4L16 34m1-6.1.7 3.9" vector-effect="non-scaling-stroke"/><path fill="none" stroke="#000" stroke-linecap="round" stroke-linejoin="round" stroke-opacity=".3" stroke-width="__RESOLUTION__" d="m9.5 32.6.8 2v.4m6.8 1.8 18.6-1.5 2-.1.3.7 1.5 3.7 2.6.8 2.7-1.2 1.1-2.5-.5-4.5-.1-1 1.1-.6.1-.3 2-4.9 2.5-6.6 1.1-2.8h0l-1.3-4.1-2.3-7.4L47.1.4 29.9 1.8 10.3 3.4l-9.9.8 1.4 4.3L4 15.8l1.3 4.3L6 22l.6 2-1 2.2.8 2.5 1.3 1.6.8 1 1.3 4.1L9 37l.8 2.6 1.1 2.3 2.6.8 2.8-1.2 1-2.5-.7-2.2zM7.3 26.6 6.5 24m1.4 4.4.1.2 1.5 4m-1.1-1.4L8 28.7v-.2h0l-.7-1.8m2.4 8.8.6-.7" vector-effect="non-scaling-stroke"/></g><clipPath id="e"><path d="M1 1h65v46H1z"/></clipPath><use xlink:href="#d" id="i" width="9.8" height="9.8"/></defs><g clip-path="url(#e)"><g transform="translate(38.3 29.3)"><use xlink:href="#f" width="52.5" height="45" transform="translate(-25.4 -28.3)"/><use xlink:href="#g" width="217.9" height="195.8" transform="matrix(.0785 -.0042 0 .0785 -4.85 -8.5)"/><use xlink:href="#h" width="51" height="42.3" transform="translate(-32.05 -27.45)"/><use xlink:href="#i" width="9.8" height="9.8" filter="url(#filter-object-3)" style="mix-blend-mode:overlay" transform="matrix(.9619 0 0 1.6108 -37.3 -27.5)"/><use xlink:href="#i" width="9.8" height="9.8" filter="url(#filter-object-5)" style="mix-blend-mode:overlay" transform="matrix(.6184 0 0 1.0355 -35.3 -24.2)"/></g></g></svg>