<svg xmlns="http://www.w3.org/2000/svg" xmlns:xlink="http://www.w3.org/1999/xlink" width="38" height="43" viewBox="0 0 38 43"><defs><g id="a"><path fill="#2b1b0f" fill-opacity=".3" d="m17 11.2-4.2 3.5q-1.7 1.2-4.7 1.3l-1.5-.1v-2.2h4.6V7.6l5.4.5q2.9.9.4 3.2"/><path fill="#eed9a8" d="M.5 3Q.5 1.8 2.2.9T6.3 0Q9 0 10.6.9T12.3 3q-.1 1.2-1.7 2l-.7.3Q8.4 6 6.3 6 4 6 2.4 5.1h-.2Q.5 4.3.5 3m9 1.1q.8-.5.9-1.2-.1-1-1.2-1.5h-.1Q7.9.7 6.4.7t-2.8.6Q2.3 2 2.3 2.8V3q0 .6.9 1.2l.3.2q1.2.5 2.7.5t2.9-.5z"/><path fill="#c7a863" d="M12.3 3q.6 5 0 10 0 1.2-1.7 2l-2.4.8q1.4-3.1 1.7-4.5.4-1.9.1-5.1l-.1-.9.7-.2q1.6-.9 1.7-2"/><path fill="#e2c889" d="m8.2 15.8-1.8.1q-2.5 0-4.2-.8-1.7-1-1.7-2.2-1-5 0-9.9 0 1.3 1.7 2l.2.1Q4 6 6.4 6q2 0 3.5-.6l.1.9q.3 3.2-.1 5.1-.3 1.4-1.7 4.4"/><path fill="#9f7939" d="M3.3 4.1q-1-.6-.9-1.2 0-.9 1.2-1.5T6.4.8t2.8.5l.1.1q1.1.5 1.2 1.4V3q-.1.7-1 1.2L9.3 4h-.1Q8 3.4 6.5 3.5q-1.7-.1-2.8.5z"/><path fill="#9db593" d="m9.5 4.1-.3.2q-1.3.5-2.8.5-1.6 0-2.9-.5L3.4 4l.4-.2q1-.6 2.6-.5 1.5 0 2.8.5h.1z"/><path fill="none" stroke="#6f5928" stroke-linecap="round" stroke-linejoin="round" stroke-width="__RESOLUTION__" d="M.5 3Q.5 1.8 2.2.9T6.3 0Q9 0 10.6.9T12.3 3h0q.6 5 0 10 0 1.2-1.7 2l-2.4.8-1.8.1q-2.5 0-4.2-.8-1.7-1-1.7-2.2h0m0 0q-1-5 0-9.9h0" vector-effect="non-scaling-stroke"/></g><g id="e"><path fill="#755c38" d="m28.2 5.4-2.7 3-.4.3-13.3 7.2Q10 16.7 8 17l2.2-2L26 6.5z"/><path fill="#cbab63" d="m28.2 5.4-2.1 1.1-4.6 1.2q-3 .9-12 6.8l-.2-.1-3.3-2q-.2-2.1 2.4-4.7 2.5-2.7 5.3-4.1 2.8-1.5 5-3.2L22 2.2Q11.7 5.3 12 9.4q-.6 1.3 12.4-6z"/><path fill="#ae8b51" d="m26.1 6.5-15.8 8.6-.9-.6q9.2-5.9 12.2-6.8zM17.9 0l.8.4q-2.2 1.7-5 3.2Q11 5 8.4 7.7T6 12.4l-2.7-1.6q-.3-.2.1-1.7T10.2 4l.4-.3z"/><path fill="#825622" d="m10.3 15-2.2 2q-3.1.1-5.3-1-3-3.1-2.8-7l3.3 1.9 2.8 1.6 3.2 2 .1.1z"/><path fill="#bc9c54" d="M10.2 3.9Q3.8 7.6 3.4 9.1q-.4 1.4-.1 1.6L0 8.8z"/><path fill="#a48148" d="m22 2.2 2.3 1.1q-13 7.4-12.5 6-.1-4 10.2-7.1"/><path fill="none" stroke="#4b2f1b" stroke-linecap="round" stroke-linejoin="round" stroke-width="__RESOLUTION__" d="M28.3 5.4h-.1l-2.1 1.1-15.8 8.6-2.2 2q2-.4 3.7-1.3l13.2-7M17.9 0l-7.3 3.6M3.4 11 6 12.4l3.2 2m1 .7-.9-.6m-6.1-3.7L0 8.8q-.2 4 2.8 7.3 2.2 1 5.3 1m2.1-13.3L.1 8.9" vector-effect="non-scaling-stroke"/><path fill="none" stroke="#1f1710" stroke-linecap="round" stroke-linejoin="round" stroke-width="__RESOLUTION__" d="m25.1 8.7.3-.2 2.9-3.2M18.7.4l-.8-.4m.8.4L22 2.2l2.3 1.1 3.9 2.1" vector-effect="non-scaling-stroke"/><path fill="none" stroke="#8b6a43" stroke-linecap="round" stroke-linejoin="round" stroke-width="__RESOLUTION__" d="m10.6 3.6-.4.2Q3.8 7.7 3.4 9.3q-.4 1.4-.1 1.6h0m2.8 1.6q-.2-2.1 2.3-4.7 2.5-2.7 5.3-4.1 2.8-1.5 5-3.2M9.5 14.6q9-5.9 12-6.8l4.6-1.2m-16.7 8-.2-.1m15-11q-12.9 7.3-12.3 6-.2-4.1 10.1-7.2" vector-effect="non-scaling-stroke"/></g><g id="d"><path fill="#755c38" d="M2.3 5.4 3 3.9l4-2.2 3.1 1.6.3.2 11.8 6.3-1.7 3.3z"/><path fill="#382b1b" fill-opacity=".4" d="m10.1 3.3-3-1.6-4.2 2.2-.6 1.5.8 3.3 2 1.2-1.7.6Q3 8.7 0 7.6q2.1-1.9 0-5 4.9.2 5.4-2.6Q8 2.6 8.6.6 8.3 2.3 10 3.3"/><path fill="#513d28" d="M2.3 5.4 20.5 13l-1.2 2.1 1.2 4.1L5.3 10l-.2-.1-2-1.2z"/><path fill="#c79c56" d="m20.5 13 1.7-3.2q3 1.4 4.8 3.2.4 2.4-1.5 4.7l-5 1.6-1.2-4.1zm1.8 1.4-.6.8 1.6 1.1 1.4-1.5-1.1-2.1-1 .7z"/><path fill="#9a764b" d="m22.2 14.5.3-1 1-.7 1.1 2.1-1.4 1.5-1.6-1.1z"/><path fill="none" stroke="#4b2f1b" stroke-linecap="round" stroke-linejoin="round" stroke-width="__RESOLUTION__" d="m10.1 3.3-3-1.6-4.2 2.2-.6 1.5.8 3.3 2 1.2m15.4 3.2 1.7-3.3-11.8-6.3m10.1 15.8-1.2-4.1 1.1-2.1m.1 6.2 5-1.6q1.9-2.3 1.4-4.7-1.6-1.8-4.7-3.2" vector-effect="non-scaling-stroke"/><path fill="none" stroke="#1f1710" stroke-linecap="round" stroke-linejoin="round" stroke-width="__RESOLUTION__" d="m5.3 10 15.2 9.3" vector-effect="non-scaling-stroke"/></g><clipPath id="b"><path d="M1 1h36v41H1z"/></clipPath><path id="c" fill="#352006" fill-opacity=".4" d="M1.7-11.9q-12.5-12-12.1-5.6-1.5 2.7-8.3-14.5L4.1-43.4q.1 10.3 1 14.8-5.6-4.7 1 5.8-8.6-.8-4.5 10.9" transform="translate(18.75 43.4)"/><use xlink:href="#a" id="f" width="18.1" height="15.9"/></defs><g clip-path="url(#b)"><g transform="translate(25.2 53.1)"><use xlink:href="#c" width="24.9" height="31.5" transform="translate(-18.75 -43.4)"/><use xlink:href="#d" width="27" height="19.3" transform="translate(-15.45 -46.15)"/><use xlink:href="#d" width="27" height="19.3" transform="translate(-24.2 -41.95)"/><use xlink:href="#e" width="28.3" height="17.1" transform="matrix(.9527 .0154 .0595 1.0276 -16.65 -48.1)"/><use xlink:href="#f" width="18.1" height="15.9" transform="translate(-6.2 -52.1)scale(.6054)"/><use xlink:href="#f" width="18.1" height="15.9" transform="translate(-13.2 -46.6)scale(.6054)"/><use xlink:href="#f" width="18.1" height="15.9" transform="translate(-4.6 -48.3)scale(.6054)"/></g></g></svg>