<?xml version="1.0"?>
<svg xmlns="http://www.w3.org/2000/svg" xmlns:xlink="http://www.w3.org/1999/xlink" width="202px" height="233.3px"><g transform="matrix(1, 0, 0, 1, 98.75, 157.75)"><use xlink:href="#object-0" width="60" height="39.5" transform="matrix(-1, 0, 0.1094, 0.7486, 22.7, -32.35)"/><use xlink:href="#object-1" width="75.2" height="75.2" transform="matrix(-1.1183, 0, 0.1224, 0.8371, 40.6, -39)"/><use xlink:href="#object-3" width="110.55" height="111.6" transform="matrix(0.0864, -0.1396, 0.2229, 0.0904, -32.4, -30.55)"/><use xlink:href="#object-4" width="110.55" height="111.6" transform="matrix(-0.2171, -0.2381, -0.3351, 0.1542, 37.45, -14.4)"/><use xlink:href="#object-5" width="110.55" height="111.6" transform="matrix(0.1513, 0.163, -0.3232, 0.0064, 20.75, -7.3)"/><use xlink:href="#object-6" width="52" height="44.55" transform="matrix(0.5153, 0.1708, -0.3001, 0.4724, 1.25, -27.15)"/><use xlink:href="#object-7" width="75.2" height="75.2" transform="matrix(0.5766, 0.1911, -0.3376, 0.5315, -8.55, -32.7)"/><use xlink:href="#object-9" width="112.55" height="127.55" transform="matrix(0.0009, -0.1064, -0.1443, 0.0213, 30.6, -16.55)"/><use xlink:href="#object-10" width="112.55" height="127.55" transform="matrix(0.1894, -0.1192, 0.1225, 0.1584, -16.15, -22.45)"/><use xlink:href="#object-11" width="112.55" height="127.55" transform="matrix(-0.131, 0.0811, 0.1645, 0.0594, -16.2, -8.65)"/><use xlink:href="#object-12" width="44.15" height="49.7" transform="matrix(-0.4454, 0.4842, 0.4842, 0.4454, -22.3, -25.25)"/><use xlink:href="#object-13" width="75.2" height="75.2" transform="matrix(-0.4992, 0.5427, 0.5546, 0.5101, -12.4, -37.25)"/><use xlink:href="#object-15" width="114.5" height="143.65" transform="matrix(-0.0427, -0.1348, 0.1519, -0.0477, -48.85, 4.2)"/><use xlink:href="#object-16" width="114.5" height="143.65" transform="matrix(-0.2352, -0.0534, -0.0595, 0.2649, -1.1, -36.05)"/><use xlink:href="#object-17" width="114.5" height="143.65" transform="matrix(0.1622, 0.0352, -0.1402, 0.1608, 13.35, -13.85)"/><use xlink:href="#object-18" width="195.8" height="168.8" transform="matrix(0.9807, 0, 0, 0.9807, -93.75, -94.2)"/><use xlink:href="#object-20" width="29.8" height="68.25" transform="matrix(1, 0, 0, 1, -5.25, -98.9)"/><use xlink:href="#object-21" width="75.2" height="75.2" transform="matrix(1.141, 0, 0, 1.3625, -31.95, -99.75)"/><use xlink:href="#object-23" width="37.35" height="99.7" transform="matrix(-0.1069, -0.1865, -0.2097, 0.1208, 50.25, -78.2)"/><use xlink:href="#object-24" width="37.35" height="99.7" transform="matrix(0.1822, -0.3181, 0.3576, 0.206, -44, -76.2)"/><use xlink:href="#object-25" width="37.35" height="99.7" transform="matrix(-0.1275, 0.2177, 0.3242, 0.0086, -50.7, -0.9)"/><use xlink:href="#object-26" width="29.8" height="68.25" transform="matrix(-0.5153, 0.1708, 0.3001, 0.4724, -34.3, -42.1)"/><use xlink:href="#object-27" width="75.2" height="75.2" transform="matrix(-0.588, 0.1948, 0.4089, 0.6437, -20.75, -47.1)"/><use xlink:href="#object-29" width="37.35" height="99.7" transform="matrix(-0.0009, -0.1064, 0.1443, 0.0213, -56.65, -22.85)"/><use xlink:href="#object-30" width="37.35" height="99.7" transform="matrix(-0.1894, -0.1192, -0.1225, 0.1584, -7.5, -38)"/><use xlink:href="#object-31" width="37.35" height="99.7" transform="matrix(0.131, 0.0811, -0.1645, 0.0594, 18.55, -3.6)"/></g><defs><g transform="matrix(1, 0, 0, 1, 22.15, 20.8)" id="object-0"><path fill-rule="evenodd" fill="url(#gradient-R08322413efba616115a42818432fb894)" stroke="none" d="M-22.15 4.05L-9.75 14.5L-8.25 15.8L-8.25 15.8L-5.25 17.6L-3.55 18.7L-3.45 18.7L2.65 18.15L4.75 17.95L5.15 17.85L26.8 11.7L27.5 11.5L29.7 10.9Q27.05 4.35 35.7 -5.95L37.85 -8.4Q32.4 -5.8 27.55 -4.35L25.75 -3.9L19.3 -2.8L17.8 -2.7L13.1 -2.9Q11.5 -11.35 17.2 -18.2L19.65 -20.8Q12.75 -15.35 6.7 -12.3Q5.3 -11.6 3.95 -11.05L3.15 -10.75L1.9 -10.3L1.8 -10.3Q-3.3 -12.4 -6.1 -14.2L-6.1 -13.45L-6.4 -8.9L-6.5 -7.8L-7.05 -4.2L-8.15 1.3L-9.45 1.6L-11.15 1.9L-17.65 3.15L-21.75 3.95L-22.15 4.05M-7.3 8L-7.2 8L-3.5 8L-1.8 8Q-5.75 10.5 -4.7 12.5Q-4.15 13.5 -2.3 14.35L-0.75 14.35L1.45 14.35L6.25 14.35L17.95 8.9L19.75 8.1L23.75 6.2Q10.7 7.95 7.15 1.8Q5.7 -0.7 5.8 -4.45L3.45 -0.65L2.85 0.35L1.55 2.55L0 -2.55L-1.1 -6.05L-7.3 8"/><path fill-rule="evenodd" fill="#ffffff" stroke="none" d="M-7.3 8L-7.2 8L-3.5 8L-1.8 8Q-5.75 10.5 -4.7 12.5Q-4.15 13.5 -2.3 14.35L-0.75 14.35L1.45 14.35L6.25 14.35L17.95 8.9L19.75 8.1L23.75 6.2Q10.7 7.95 7.15 1.8Q5.7 -0.7 5.8 -4.45L3.45 -0.65L2.85 0.35L1.55 2.55L0 -2.55L-1.1 -6.05L-7.3 8"/></g><radialGradient gradientTransform="matrix(0.0446, -0.0334, 0.0334, 0.0446, 2.8, 7.25)" gradientUnits="userSpaceOnUse" spreadMethod="pad" id="gradient-R08322413efba616115a42818432fb894" cx="0" cy="0" r="819.2"><stop offset="0.31372549019608" stop-color="#ffef35"/><stop offset="0.49803921568627" stop-color="#ffb300"/><stop offset="0.98039215686275" stop-color="#f26200" stop-opacity="0.81176470588235"/></radialGradient><g transform="matrix(1, 0, 0, 1, 37.6, 37.6)" id="object-1"><use xlink:href="#object-2" width="75.2" height="75.2" transform="matrix(1, 0, 0, 1, -37.6, -37.6)"/></g><g transform="matrix(1, 0, 0, 1, 37.6, 37.6)" id="object-2"><path fill-rule="evenodd" fill="url(#gradient-R7475ef0bc8bc0036dfce8f6d13e27e63)" stroke="none" d="M26.6 -26.6Q37.6 -15.6 37.6 0Q37.6 15.6 26.6 26.6Q15.6 37.6 0 37.6Q-15.6 37.6 -26.6 26.6Q-37.6 15.6 -37.6 0Q-37.6 -15.6 -26.6 -26.6Q-15.6 -37.6 0 -37.6Q15.6 -37.6 26.6 -26.6"/></g><radialGradient gradientTransform="matrix(0.0463, 0, 0, 0.0463, 0, 0)" gradientUnits="userSpaceOnUse" spreadMethod="pad" id="gradient-R7475ef0bc8bc0036dfce8f6d13e27e63" cx="0" cy="0" r="819.2"><stop offset="0.30196078431373" stop-color="#ffffff"/><stop offset="0.31372549019608" stop-color="#ffef35"/><stop offset="0.49803921568627" stop-color="#ffb300"/><stop offset="0.98039215686275" stop-color="#f26200" stop-opacity="0"/></radialGradient><g transform="matrix(1, 0, 0, 1, 13.85, 78.8)" id="object-3"><path fill-rule="evenodd" fill="url(#gradient-Rd8d11f04b811d81a46f85e8642773d43)" stroke="none" d="M-13.85 -12.4Q92.1 -58.4 -9.45 12L18.7 7.6L2.3 32.8L81.35 0.15L94.7 -36.8L65.75 -9.75Q67.05 -37.5 96.7 -78.8Q66.5 -54.4 9.55 -43.4Q41.15 -39.5 -13.85 -12.4"/></g><radialGradient gradientTransform="matrix(0.1011, 0, 0, 0.1011, 12.7, 2.4)" gradientUnits="userSpaceOnUse" spreadMethod="pad" id="gradient-Rd8d11f04b811d81a46f85e8642773d43" cx="0" cy="0" r="819.2"><stop offset="0.31372549019608" stop-color="#ffffff"/><stop offset="0.41960784313725" stop-color="#f5fe43"/><stop offset="0.5843137254902" stop-color="#fe8001" stop-opacity="0.85098039215686"/><stop offset="1" stop-color="#d94b00" stop-opacity="0"/></radialGradient><g transform="matrix(1, 0, 0, 1, 13.85, 78.8)" id="object-4"><path fill-rule="evenodd" fill="url(#gradient-R7c88993d6a2c6b0775371801c1c4285d)" stroke="none" d="M-13.85 -12.4Q92.1 -58.4 -9.45 12L18.7 7.6L2.3 32.8L81.35 0.15L94.7 -36.8L65.75 -9.75Q67.05 -37.5 96.7 -78.8Q66.5 -54.4 9.55 -43.4Q41.15 -39.5 -13.85 -12.4"/></g><radialGradient gradientTransform="matrix(0.1011, 0, 0, 0.1011, 12.7, 2.4)" gradientUnits="userSpaceOnUse" spreadMethod="pad" id="gradient-R7c88993d6a2c6b0775371801c1c4285d" cx="0" cy="0" r="819.2"><stop offset="0.31372549019608" stop-color="#ffffff"/><stop offset="0.41960784313725" stop-color="#ffff43"/><stop offset="0.5843137254902" stop-color="#ffbc01" stop-opacity="0.85098039215686"/><stop offset="1" stop-color="#ff8700" stop-opacity="0"/></radialGradient><g transform="matrix(1, 0, 0, 1, 13.85, 78.8)" id="object-5"><path fill-rule="evenodd" fill="url(#gradient-Rd8d11f04b811d81a46f85e8642773d43)" stroke="none" d="M-13.85 -12.4Q92.1 -58.4 -9.45 12L18.7 7.6L2.3 32.8L81.35 0.15L94.7 -36.8L65.75 -9.75Q67.05 -37.5 96.7 -78.8Q66.5 -54.4 9.55 -43.4Q41.15 -39.5 -13.85 -12.4"/></g><radialGradient gradientTransform="matrix(0.1011, 0, 0, 0.1011, 12.7, 2.4)" gradientUnits="userSpaceOnUse" spreadMethod="pad" id="gradient-Rd8d11f04b811d81a46f85e8642773d43" cx="0" cy="0" r="819.2"><stop offset="0.31372549019608" stop-color="#ffffff"/><stop offset="0.41960784313725" stop-color="#f5fe43"/><stop offset="0.5843137254902" stop-color="#fe8001" stop-opacity="0.85098039215686"/><stop offset="1" stop-color="#d94b00" stop-opacity="0"/></radialGradient><g transform="matrix(1, 0, 0, 1, 19.6, 26.7)" id="object-6"><path fill-rule="evenodd" fill="url(#gradient-R43ec1a7167562c343f03b82eb8d54a52)" stroke="none" d="M-19.6 2L-9.05 13.85L-7.7 15.25L-7.7 15.25L-4.75 17.05L-2.95 17.85L-2.85 17.85L3.15 17.3L5.2 17.05L5.6 16.95Q16.45 12.8 25.45 7.9L25.8 7.45L26.75 6.05Q24.95 -1.2 31.35 -11.2L31.45 -11.1Q27.2 -7.75 23.2 -5L21.6 -5.35L16.05 -6.9L14.7 -7.4L11.9 -9.7Q10.15 -18.8 13.65 -25.4L14.35 -25Q9.75 -18.9 5.25 -13.9Q4.2 -12.95 3.2 -12.1L2.4 -12.25L1.35 -12.6L1.25 -12.65Q-2.75 -15.4 -5.85 -17.45L-6.15 -17.25L-6.25 -12.8L-6.3 -11.8L-6.65 -8.25L-7.55 -2.75L-8.3 -2L-9.75 -1.25L-15.3 1.55L-19.3 1.85L-19.6 2M-6.4 6.75L-6.35 6.75L-3.15 7.35L-2.8 7.9Q-5.4 10.15 -3.65 12Q-2.8 12.7 -1.25 13.35L0.05 13.5L2 13.4L6 12.6L16.35 7.75L16.85 6.65L17.6 4.55Q8.9 3.1 6.25 -3.55Q5 -3.65 4.55 -4.35L2.75 -0.95L2 -0.35L1.05 -0.2L-0.25 -4.75Q-0.8 -5.7 -1.55 -5.75L-6.4 6.75"/><path fill-rule="evenodd" fill="#ffffff" stroke="none" d="M-6.4 6.75L-6.35 6.75L-3.15 7.35L-2.8 7.9Q-5.4 10.15 -3.65 12Q-2.8 12.7 -1.25 13.35L0.05 13.5L2 13.4L6 12.6L16.35 7.75L16.85 6.65L17.6 4.55Q8.9 3.1 6.25 -3.55Q5 -3.65 4.55 -4.35L2.75 -0.95L2 -0.35L1.05 -0.2L-0.25 -4.75Q-0.8 -5.7 -1.55 -5.75L-6.4 6.75"/></g><radialGradient gradientTransform="matrix(0.0413, -0.0315, 0.031, 0.042, 2.85, 6.25)" gradientUnits="userSpaceOnUse" spreadMethod="pad" id="gradient-R43ec1a7167562c343f03b82eb8d54a52" cx="0" cy="0" r="819.2"><stop offset="0.31372549019608" stop-color="#ffef35"/><stop offset="0.49803921568627" stop-color="#ffb300"/><stop offset="0.98039215686275" stop-color="#f26200" stop-opacity="0.81176470588235"/></radialGradient><g transform="matrix(1, 0, 0, 1, 37.6, 37.6)" id="object-7"><use xlink:href="#object-8" width="75.2" height="75.2" transform="matrix(1, 0, 0, 1, -37.6, -37.6)"/></g><g transform="matrix(1, 0, 0, 1, 37.6, 37.6)" id="object-8"><path fill-rule="evenodd" fill="url(#gradient-R5991fff7898c834df62d1dce03ce7017)" stroke="none" d="M26.6 -26.6Q37.6 -15.6 37.6 0Q37.6 15.6 26.6 26.6Q15.6 37.6 0 37.6Q-15.6 37.6 -26.6 26.6Q-37.6 15.6 -37.6 0Q-37.6 -15.6 -26.6 -26.6Q-15.6 -37.6 0 -37.6Q15.6 -37.6 26.6 -26.6"/></g><radialGradient gradientTransform="matrix(0.0463, 0, 0, 0.0463, 0, 0)" gradientUnits="userSpaceOnUse" spreadMethod="pad" id="gradient-R5991fff7898c834df62d1dce03ce7017" cx="0" cy="0" r="819.2"><stop offset="0.30196078431373" stop-color="#ffffff" stop-opacity="0.9843137254902"/><stop offset="0.31372549019608" stop-color="#ffef35" stop-opacity="0.9843137254902"/><stop offset="0.49803921568627" stop-color="#ffb300" stop-opacity="0.9843137254902"/><stop offset="0.98039215686275" stop-color="#f26200" stop-opacity="0"/></radialGradient><g transform="matrix(1, 0, 0, 1, -2.05, 110.4)" id="object-9"><path fill-rule="evenodd" fill="url(#gradient-R5fe3e96d85066acdb5c13b74df1e3a96)" stroke="none" d="M2.05 -15.8Q62.05 -39.85 18.3 -5.8L24.2 4.55Q27.25 10.25 32.35 11.95Q61.3 -0.75 92.25 -17.45L113.6 -73.6L79.45 -25.35Q80.75 -52.85 107.6 -110.4Q86.55 -81.3 45.5 -60.45Q48.75 -43.15 2.05 -15.8"/></g><radialGradient gradientTransform="matrix(0.1292, 0, 0, 0.1292, 2.1, -5.2)" gradientUnits="userSpaceOnUse" spreadMethod="pad" id="gradient-R5fe3e96d85066acdb5c13b74df1e3a96" cx="0" cy="0" r="819.2"><stop offset="0.31372549019608" stop-color="#ffffff"/><stop offset="0.41960784313725" stop-color="#f5fe43"/><stop offset="0.5843137254902" stop-color="#fe8001" stop-opacity="0.85098039215686"/><stop offset="1" stop-color="#d94b00" stop-opacity="0"/></radialGradient><g transform="matrix(1, 0, 0, 1, -2.05, 110.4)" id="object-10"><path fill-rule="evenodd" fill="url(#gradient-Rc405745efa0c807431ab377f6f663ff6)" stroke="none" d="M2.05 -15.8Q62.05 -39.85 18.3 -5.8L24.2 4.55Q27.25 10.25 32.35 11.95Q61.3 -0.75 92.25 -17.45L113.6 -73.6L79.45 -25.35Q80.75 -52.85 107.6 -110.4Q86.55 -81.3 45.5 -60.45Q48.75 -43.15 2.05 -15.8"/></g><radialGradient gradientTransform="matrix(0.1292, 0, 0, 0.1292, 2.1, -5.2)" gradientUnits="userSpaceOnUse" spreadMethod="pad" id="gradient-Rc405745efa0c807431ab377f6f663ff6" cx="0" cy="0" r="819.2"><stop offset="0.31372549019608" stop-color="#ffffff"/><stop offset="0.41960784313725" stop-color="#ffff43"/><stop offset="0.5843137254902" stop-color="#ffbc01" stop-opacity="0.85098039215686"/><stop offset="1" stop-color="#ff8700" stop-opacity="0"/></radialGradient><g transform="matrix(1, 0, 0, 1, -2.05, 110.4)" id="object-11"><path fill-rule="evenodd" fill="url(#gradient-R5fe3e96d85066acdb5c13b74df1e3a96)" stroke="none" d="M2.05 -15.8Q62.05 -39.85 18.3 -5.8L24.2 4.55Q27.25 10.25 32.35 11.95Q61.3 -0.75 92.25 -17.45L113.6 -73.6L79.45 -25.35Q80.75 -52.85 107.6 -110.4Q86.55 -81.3 45.5 -60.45Q48.75 -43.15 2.05 -15.8"/></g><radialGradient gradientTransform="matrix(0.1292, 0, 0, 0.1292, 2.1, -5.2)" gradientUnits="userSpaceOnUse" spreadMethod="pad" id="gradient-R5fe3e96d85066acdb5c13b74df1e3a96" cx="0" cy="0" r="819.2"><stop offset="0.31372549019608" stop-color="#ffffff"/><stop offset="0.41960784313725" stop-color="#f5fe43"/><stop offset="0.5843137254902" stop-color="#fe8001" stop-opacity="0.85098039215686"/><stop offset="1" stop-color="#d94b00" stop-opacity="0"/></radialGradient><g transform="matrix(1, 0, 0, 1, 17.1, 32.6)" id="object-12"><path fill-rule="evenodd" fill="url(#gradient-Re89b3c040083c6f60ac8b4856b895682)" stroke="none" d="M2.1 -1.25L1.2 -1.1L-0.55 -7L-1.55 -7.3L-5.55 5.55L-2.85 6.75Q-5.8 9.45 -2.7 11.6L0.85 12.7L2.55 12.5L14.8 6.7L14 5.25Q7.7 0.3 5.4 -8.95L2.1 -1.25M2.5 -13.2L3.85 -15.5Q7.6 -24.2 10.15 -32.6Q8.6 -24.95 11.7 -12.15L12.85 -11.05L17.5 -6.85L18.95 -5.65L27.05 -16.45Q22.4 -5.45 24.2 3.45L24.2 4.15Q16.95 10.9 6.05 16.1L3.65 16.55L-2.3 17.1L-4.35 16.6L-7.25 14.75L-8.45 13.25L-17.1 0.05L-16.95 -0.2L-13 0.05L-8.45 -4.4L-7.25 -5.65Q-6.65 -9.1 -6.35 -12.35L-6.15 -15.8L-6.25 -21.1Q-2.6 -18.75 0.75 -15.05L1.75 -13.8L2.5 -13.2"/><path fill-rule="evenodd" fill="#ffffff" stroke="none" d="M2.1 -1.25L5.4 -8.95Q7.7 0.3 14 5.25L14.8 6.7L2.55 12.5L0.85 12.7L-2.7 11.6Q-5.8 9.45 -2.85 6.75L-5.55 5.55L-1.55 -7.3L-0.55 -7L1.2 -1.1L2.1 -1.25"/></g><radialGradient gradientTransform="matrix(0.0381, -0.0295, 0.0285, 0.0394, 2.9, 5.3)" gradientUnits="userSpaceOnUse" spreadMethod="pad" id="gradient-Re89b3c040083c6f60ac8b4856b895682" cx="0" cy="0" r="819.2"><stop offset="0.31372549019608" stop-color="#ffef35"/><stop offset="0.49803921568627" stop-color="#ffb300"/><stop offset="0.98039215686275" stop-color="#f26200" stop-opacity="0.81176470588235"/></radialGradient><g transform="matrix(1, 0, 0, 1, 37.6, 37.6)" id="object-13"><use xlink:href="#object-14" width="75.2" height="75.2" transform="matrix(1, 0, 0, 1, -37.6, -37.6)"/></g><g transform="matrix(1, 0, 0, 1, 37.6, 37.6)" id="object-14"><path fill-rule="evenodd" fill="url(#gradient-R8b10b31036c8d5b10166d06ff6419b89)" stroke="none" d="M26.6 -26.6Q37.6 -15.6 37.6 0Q37.6 15.6 26.6 26.6Q15.6 37.6 0 37.6Q-15.6 37.6 -26.6 26.6Q-37.6 15.6 -37.6 0Q-37.6 -15.6 -26.6 -26.6Q-15.6 -37.6 0 -37.6Q15.6 -37.6 26.6 -26.6"/></g><radialGradient gradientTransform="matrix(0.0463, 0, 0, 0.0463, 0, 0)" gradientUnits="userSpaceOnUse" spreadMethod="pad" id="gradient-R8b10b31036c8d5b10166d06ff6419b89" cx="0" cy="0" r="819.2"><stop offset="0.30196078431373" stop-color="#ffffff" stop-opacity="0.93333333333333"/><stop offset="0.31372549019608" stop-color="#ffef35" stop-opacity="0.93333333333333"/><stop offset="0.49803921568627" stop-color="#ffb300" stop-opacity="0.93333333333333"/><stop offset="0.98039215686275" stop-color="#f26200" stop-opacity="0"/></radialGradient><g transform="matrix(1, 0, 0, 1, -18, 142.05)" id="object-15"><path fill-rule="evenodd" fill="url(#gradient-Rf056cc29c2b6c00dbe4045419d96672f)" stroke="none" d="M18 -19.2L46.1 -23.6L45.7 -23L29.7 1.6Q36.7 1 44.6 -1.5Q69.3 -9.2 103.15 -35.05L111.7 -57.05L132.5 -110.4L93.15 -40.95Q93.75 -53.35 99.05 -75.25Q105.4 -101.7 118.55 -142.05Q94.8 -74.4 18 -19.2"/></g><radialGradient gradientTransform="matrix(0.1573, 0, 0, 0.1573, -8.45, -12.8)" gradientUnits="userSpaceOnUse" spreadMethod="pad" id="gradient-Rf056cc29c2b6c00dbe4045419d96672f" cx="0" cy="0" r="819.2"><stop offset="0.31372549019608" stop-color="#ffffff"/><stop offset="0.41960784313725" stop-color="#f5fe43"/><stop offset="0.5843137254902" stop-color="#fe8001" stop-opacity="0.85098039215686"/><stop offset="1" stop-color="#d94b00" stop-opacity="0"/></radialGradient><g transform="matrix(1, 0, 0, 1, -18, 142.05)" id="object-16"><path fill-rule="evenodd" fill="url(#gradient-R72abee5deeb61003ce3c4ba8dbc24fe4)" stroke="none" d="M18 -19.2L46.1 -23.6L45.7 -23L29.7 1.6Q36.7 1 44.6 -1.5Q69.3 -9.2 103.15 -35.05L111.7 -57.05L132.5 -110.4L93.15 -40.95Q93.75 -53.35 99.05 -75.25Q105.4 -101.7 118.55 -142.05Q94.8 -74.4 18 -19.2"/></g><radialGradient gradientTransform="matrix(0.1573, 0, 0, 0.1573, -8.45, -12.8)" gradientUnits="userSpaceOnUse" spreadMethod="pad" id="gradient-R72abee5deeb61003ce3c4ba8dbc24fe4" cx="0" cy="0" r="819.2"><stop offset="0.31372549019608" stop-color="#ffffff"/><stop offset="0.41960784313725" stop-color="#ffff43"/><stop offset="0.5843137254902" stop-color="#ffbc01" stop-opacity="0.85098039215686"/><stop offset="1" stop-color="#ff8700" stop-opacity="0"/></radialGradient><g transform="matrix(1, 0, 0, 1, -18, 142.05)" id="object-17"><path fill-rule="evenodd" fill="url(#gradient-Rf056cc29c2b6c00dbe4045419d96672f)" stroke="none" d="M18 -19.2L46.1 -23.6L45.7 -23L29.7 1.6Q36.7 1 44.6 -1.5Q69.3 -9.2 103.15 -35.05L111.7 -57.05L132.5 -110.4L93.15 -40.95Q93.75 -53.35 99.05 -75.25Q105.4 -101.7 118.55 -142.05Q94.8 -74.4 18 -19.2"/></g><radialGradient gradientTransform="matrix(0.1573, 0, 0, 0.1573, -8.45, -12.8)" gradientUnits="userSpaceOnUse" spreadMethod="pad" id="gradient-Rf056cc29c2b6c00dbe4045419d96672f" cx="0" cy="0" r="819.2"><stop offset="0.31372549019608" stop-color="#ffffff"/><stop offset="0.41960784313725" stop-color="#f5fe43"/><stop offset="0.5843137254902" stop-color="#fe8001" stop-opacity="0.85098039215686"/><stop offset="1" stop-color="#d94b00" stop-opacity="0"/></radialGradient><g transform="matrix(1, 0, 0, 1, 97.9, 84.4)" id="object-18"><use xlink:href="#object-19" width="195.8" height="168.8" transform="matrix(1, 0, 0, 1, -97.9, -84.4)"/></g><g transform="matrix(1, 0, 0, 1, 97.9, 84.4)" id="object-19"><path fill-rule="evenodd" fill="url(#gradient-R91cc6f07506434f199dc54f3ae716496)" stroke="none" d="M34.2 -5.9L97.9 9.2L32.5 9.2Q29.75 18.05 22.65 25.15Q17.8 30 12.2 32.8L17.9 84.4L-8.25 36.75Q-23 35.8 -33.65 25.15L-36.35 22.2L-97.9 41.25L-44.05 7.2Q-45.3 2.35 -45.3 -3Q-45.3 -6.9 -44.65 -10.55L-71.3 -31.6L-36.6 -27.9L-33.65 -31.15L-30.35 -34.1L-58.9 -76L-24.7 -37.95Q-19.35 -40.95 -13.25 -42.1L-6.9 -82.4L-0.35 -42.5L2.55 -42.05L54.7 -84.4L29.2 -22.7Q33.6 -15.1 34.2 -5.9"/></g><radialGradient gradientTransform="matrix(0.1282, 0, 0, 0.1282, -6.25, -4.35)" gradientUnits="userSpaceOnUse" spreadMethod="pad" id="gradient-R91cc6f07506434f199dc54f3ae716496" cx="0" cy="0" r="819.2"><stop offset="0.30196078431373" stop-color="#ffffff" stop-opacity="0.53725490196078"/><stop offset="0.31372549019608" stop-color="#ffef35" stop-opacity="0.53725490196078"/><stop offset="0.49803921568627" stop-color="#ffb300" stop-opacity="0.53725490196078"/><stop offset="0.98039215686275" stop-color="#f26200" stop-opacity="0"/></radialGradient><g transform="matrix(1, 0, 0, 1, 12.35, 66.8)" id="object-20"><path fill-rule="evenodd" fill="url(#gradient-R35eb823d382b11fa0344f9c7c6a4cdfc)" stroke="none" d="M-12.35 -49.35L-12.25 -49.25Q-4.65 -30.8 -4.6 -14.9L-6.1 -7.2L-6.8 -3.5L-7.1 -2.2L-3.3 -8L-2.5 -9.2L2.4 -16.6L2 -3.7L6.05 -6.1L6.75 -3.85L8.45 1.45L10.2 -3.8L11 -6.1L11.4 -7.2L14.2 -15.3L14.7 -17.4L15.1 -19.3L17.45 -30.3L16.85 -32.3L15.15 -37.7L14.75 -38.9L13.25 -43.6L12.95 -44.6L11.75 -48.4L11.25 -45.7L9.4 -35.35L9 -36.65L7.05 -42.05Q4.55 -48.45 1.15 -54.15Q-2.85 -61 -8.15 -66.8L-7.4 -64.4L-7.2 -63.7Q-4.65 -55.55 -2.95 -47.4L-2.95 -47.4Q-0.85 -37.05 -0.2 -26.85L-12.35 -49.35M1.5 -39.35L1.5 -39.35L2.85 -23.1L3.05 -20.6L5.25 -24.5L6.45 -26.6L6.55 -27.1L7.05 -28L6.05 -30.1L1.5 -39.35"/><path fill-rule="evenodd" fill="url(#gradient-Rf0b55c59c14364bc778e22c7ef995d6f)" stroke="none" d="M1.5 -39.35L3.05 -20.6L6.35 -26.7Q6.7 -27.35 6.55 -29.1L1.5 -39.35"/><path fill-rule="evenodd" fill="url(#gradient-R35eb823d382b11fa0344f9c7c6a4cdfc)" stroke="none" d="M8.95 -20.5L9.05 -20.6L11.35 -23.5L13.85 -26.6L12.5 -29.6Q12.05 -30.6 11.25 -30.1L9.75 -23.8L8.95 -20.5"/><path fill-rule="evenodd" fill="url(#gradient-R12c17b0b42a277fa04b36c2740e53e68)" stroke="none" d="M8.95 -20.5L9.05 -20.6L11.35 -23.5L13.85 -26.6L12.5 -29.6Q12.05 -30.6 11.25 -30.1L9.75 -23.8L8.95 -20.5"/></g><radialGradient gradientTransform="matrix(0.0285, -0.0256, 0.0276, 0.0342, 5.8, -13.8)" gradientUnits="userSpaceOnUse" spreadMethod="pad" id="gradient-R35eb823d382b11fa0344f9c7c6a4cdfc" cx="0" cy="0" r="819.2"><stop offset="0.31372549019608" stop-color="#ffef35"/><stop offset="0.49803921568627" stop-color="#ffb300"/><stop offset="0.98039215686275" stop-color="#f26200" stop-opacity="0.81176470588235"/></radialGradient><radialGradient gradientTransform="matrix(0.012, 0, 0, 0.012, 4.25, -29.95)" gradientUnits="userSpaceOnUse" spreadMethod="pad" id="gradient-Rf0b55c59c14364bc778e22c7ef995d6f" cx="0" cy="0" r="819.2"><stop offset="0.31372549019608" stop-color="#ffef35"/><stop offset="0.49803921568627" stop-color="#ffb300"/><stop offset="0.98039215686275" stop-color="#f26200" stop-opacity="0.81176470588235"/></radialGradient><radialGradient gradientTransform="matrix(0.0285, -0.0256, 0.0276, 0.0342, 5.8, -13.8)" gradientUnits="userSpaceOnUse" spreadMethod="pad" id="gradient-R35eb823d382b11fa0344f9c7c6a4cdfc" cx="0" cy="0" r="819.2"><stop offset="0.31372549019608" stop-color="#ffef35"/><stop offset="0.49803921568627" stop-color="#ffb300"/><stop offset="0.98039215686275" stop-color="#f26200" stop-opacity="0.81176470588235"/></radialGradient><radialGradient gradientTransform="matrix(0.0074, 0, 0, 0.0074, 11.4, -26.05)" gradientUnits="userSpaceOnUse" spreadMethod="pad" id="gradient-R12c17b0b42a277fa04b36c2740e53e68" cx="0" cy="0" r="819.2"><stop offset="0.31372549019608" stop-color="#ffef35"/><stop offset="0.49803921568627" stop-color="#ffb300"/><stop offset="0.98039215686275" stop-color="#f26200" stop-opacity="0.81176470588235"/></radialGradient><g transform="matrix(1, 0, 0, 1, 37.6, 37.6)" id="object-21"><use xlink:href="#object-22" width="75.2" height="75.2" transform="matrix(1, 0, 0, 1, -37.6, -37.6)"/></g><g transform="matrix(1, 0, 0, 1, 37.6, 37.6)" id="object-22"><path fill-rule="evenodd" fill="url(#gradient-Rcbf6ddae2824f8705675d782628c5c7e)" stroke="none" d="M26.6 -26.6Q37.6 -15.6 37.6 0Q37.6 15.6 26.6 26.6Q15.6 37.6 0 37.6Q-15.6 37.6 -26.6 26.6Q-37.6 15.6 -37.6 0Q-37.6 -15.6 -26.6 -26.6Q-15.6 -37.6 0 -37.6Q15.6 -37.6 26.6 -26.6"/></g><radialGradient gradientTransform="matrix(0.0463, 0, 0, 0.0463, 0, 0)" gradientUnits="userSpaceOnUse" spreadMethod="pad" id="gradient-Rcbf6ddae2824f8705675d782628c5c7e" cx="0" cy="0" r="819.2"><stop offset="0.30196078431373" stop-color="#ffffff" stop-opacity="0.39607843137255"/><stop offset="0.31372549019608" stop-color="#ffef35" stop-opacity="0.39607843137255"/><stop offset="0.49803921568627" stop-color="#ffb300" stop-opacity="0.39607843137255"/><stop offset="0.98039215686275" stop-color="#f26200" stop-opacity="0"/></radialGradient><g transform="matrix(1, 0, 0, 1, -74.95, 171.2)" id="object-23"><path fill-rule="evenodd" fill="url(#gradient-Rac270f27f6b648aa8dccd3b18e942828)" stroke="none" d="M74.95 -171.2Q100.1 -131.95 87.85 -78.5L100.45 -102.95L100.45 -71.5Q106.45 -75.65 109.4 -84.2L110.95 -89.9Q112.5 -97.4 112.3 -107.4Q102.95 -130.3 74.95 -171.2"/></g><radialGradient gradientTransform="matrix(0.1147, -0.0667, 0.0989, 0.068, 63.55, -61.6)" gradientUnits="userSpaceOnUse" spreadMethod="pad" id="gradient-Rac270f27f6b648aa8dccd3b18e942828" cx="0" cy="0" r="819.2"><stop offset="0.31372549019608" stop-color="#ffffff"/><stop offset="0.41960784313725" stop-color="#f5fe43"/><stop offset="0.5843137254902" stop-color="#fe8001" stop-opacity="0.85098039215686"/><stop offset="1" stop-color="#d94b00" stop-opacity="0"/></radialGradient><g transform="matrix(1, 0, 0, 1, -74.95, 171.2)" id="object-24"><path fill-rule="evenodd" fill="url(#gradient-Re54ed2e9557e9f0d7bbf0e97ed139a54)" stroke="none" d="M74.95 -171.2Q100.1 -131.95 87.85 -78.5L100.45 -102.95L100.45 -71.5Q106.45 -75.65 109.4 -84.2L110.95 -89.9Q112.5 -97.4 112.3 -107.4Q102.95 -130.3 74.95 -171.2"/></g><radialGradient gradientTransform="matrix(0.1147, -0.0667, 0.0989, 0.068, 63.55, -61.6)" gradientUnits="userSpaceOnUse" spreadMethod="pad" id="gradient-Re54ed2e9557e9f0d7bbf0e97ed139a54" cx="0" cy="0" r="819.2"><stop offset="0.31372549019608" stop-color="#ffffff"/><stop offset="0.41960784313725" stop-color="#ffff43"/><stop offset="0.5843137254902" stop-color="#ffbc01" stop-opacity="0.85098039215686"/><stop offset="1" stop-color="#ff8700" stop-opacity="0"/></radialGradient><g transform="matrix(1, 0, 0, 1, -74.95, 171.2)" id="object-25"><path fill-rule="evenodd" fill="url(#gradient-Rac270f27f6b648aa8dccd3b18e942828)" stroke="none" d="M74.95 -171.2Q100.1 -131.95 87.85 -78.5L100.45 -102.95L100.45 -71.5Q106.45 -75.65 109.4 -84.2L110.95 -89.9Q112.5 -97.4 112.3 -107.4Q102.95 -130.3 74.95 -171.2"/></g><radialGradient gradientTransform="matrix(0.1147, -0.0667, 0.0989, 0.068, 63.55, -61.6)" gradientUnits="userSpaceOnUse" spreadMethod="pad" id="gradient-Rac270f27f6b648aa8dccd3b18e942828" cx="0" cy="0" r="819.2"><stop offset="0.31372549019608" stop-color="#ffffff"/><stop offset="0.41960784313725" stop-color="#f5fe43"/><stop offset="0.5843137254902" stop-color="#fe8001" stop-opacity="0.85098039215686"/><stop offset="1" stop-color="#d94b00" stop-opacity="0"/></radialGradient><g transform="matrix(1, 0, 0, 1, 12.35, 66.8)" id="object-26"><path fill-rule="evenodd" fill="url(#gradient-R35eb823d382b11fa0344f9c7c6a4cdfc)" stroke="none" d="M-12.35 -49.35L-12.25 -49.25Q-4.65 -30.8 -4.6 -14.9L-6.1 -7.2L-6.8 -3.5L-7.1 -2.2L-3.3 -8L-2.5 -9.2L2.4 -16.6L2 -3.7L6.05 -6.1L6.75 -3.85L8.45 1.45L10.2 -3.8L11 -6.1L11.4 -7.2L14.2 -15.3L14.7 -17.4L15.1 -19.3L17.45 -30.3L16.85 -32.3L15.15 -37.7L14.75 -38.9L13.25 -43.6L12.95 -44.6L11.75 -48.4L11.25 -45.7L9.4 -35.35L9 -36.65L7.05 -42.05Q4.55 -48.45 1.15 -54.15Q-2.85 -61 -8.15 -66.8L-7.4 -64.4L-7.2 -63.7Q-4.65 -55.55 -2.95 -47.4L-2.95 -47.4Q-0.85 -37.05 -0.2 -26.85L-12.35 -49.35M1.5 -39.35L1.5 -39.35L2.85 -23.1L3.05 -20.6L5.25 -24.5L6.45 -26.6L6.55 -27.1L7.05 -28L6.05 -30.1L1.5 -39.35"/><path fill-rule="evenodd" fill="url(#gradient-Rf0b55c59c14364bc778e22c7ef995d6f)" stroke="none" d="M1.5 -39.35L3.05 -20.6L6.35 -26.7Q6.7 -27.35 6.55 -29.1L1.5 -39.35"/><path fill-rule="evenodd" fill="url(#gradient-R35eb823d382b11fa0344f9c7c6a4cdfc)" stroke="none" d="M8.95 -20.5L9.05 -20.6L11.35 -23.5L13.85 -26.6L12.5 -29.6Q12.05 -30.6 11.25 -30.1L9.75 -23.8L8.95 -20.5"/><path fill-rule="evenodd" fill="url(#gradient-R12c17b0b42a277fa04b36c2740e53e68)" stroke="none" d="M8.95 -20.5L9.05 -20.6L11.35 -23.5L13.85 -26.6L12.5 -29.6Q12.05 -30.6 11.25 -30.1L9.75 -23.8L8.95 -20.5"/></g><radialGradient gradientTransform="matrix(0.0285, -0.0256, 0.0276, 0.0342, 5.8, -13.8)" gradientUnits="userSpaceOnUse" spreadMethod="pad" id="gradient-R35eb823d382b11fa0344f9c7c6a4cdfc" cx="0" cy="0" r="819.2"><stop offset="0.31372549019608" stop-color="#ffef35"/><stop offset="0.49803921568627" stop-color="#ffb300"/><stop offset="0.98039215686275" stop-color="#f26200" stop-opacity="0.81176470588235"/></radialGradient><radialGradient gradientTransform="matrix(0.012, 0, 0, 0.012, 4.25, -29.95)" gradientUnits="userSpaceOnUse" spreadMethod="pad" id="gradient-Rf0b55c59c14364bc778e22c7ef995d6f" cx="0" cy="0" r="819.2"><stop offset="0.31372549019608" stop-color="#ffef35"/><stop offset="0.49803921568627" stop-color="#ffb300"/><stop offset="0.98039215686275" stop-color="#f26200" stop-opacity="0.81176470588235"/></radialGradient><radialGradient gradientTransform="matrix(0.0285, -0.0256, 0.0276, 0.0342, 5.8, -13.8)" gradientUnits="userSpaceOnUse" spreadMethod="pad" id="gradient-R35eb823d382b11fa0344f9c7c6a4cdfc" cx="0" cy="0" r="819.2"><stop offset="0.31372549019608" stop-color="#ffef35"/><stop offset="0.49803921568627" stop-color="#ffb300"/><stop offset="0.98039215686275" stop-color="#f26200" stop-opacity="0.81176470588235"/></radialGradient><radialGradient gradientTransform="matrix(0.0074, 0, 0, 0.0074, 11.4, -26.05)" gradientUnits="userSpaceOnUse" spreadMethod="pad" id="gradient-R12c17b0b42a277fa04b36c2740e53e68" cx="0" cy="0" r="819.2"><stop offset="0.31372549019608" stop-color="#ffef35"/><stop offset="0.49803921568627" stop-color="#ffb300"/><stop offset="0.98039215686275" stop-color="#f26200" stop-opacity="0.81176470588235"/></radialGradient><g transform="matrix(1, 0, 0, 1, 37.6, 37.6)" id="object-27"><use xlink:href="#object-28" width="75.2" height="75.2" transform="matrix(1, 0, 0, 1, -37.6, -37.6)"/></g><g transform="matrix(1, 0, 0, 1, 37.6, 37.6)" id="object-28"><path fill-rule="evenodd" fill="url(#gradient-Rcbf6ddae2824f8705675d782628c5c7e)" stroke="none" d="M26.6 -26.6Q37.6 -15.6 37.6 0Q37.6 15.6 26.6 26.6Q15.6 37.6 0 37.6Q-15.6 37.6 -26.6 26.6Q-37.6 15.6 -37.6 0Q-37.6 -15.6 -26.6 -26.6Q-15.6 -37.6 0 -37.6Q15.6 -37.6 26.6 -26.6"/></g><radialGradient gradientTransform="matrix(0.0463, 0, 0, 0.0463, 0, 0)" gradientUnits="userSpaceOnUse" spreadMethod="pad" id="gradient-Rcbf6ddae2824f8705675d782628c5c7e" cx="0" cy="0" r="819.2"><stop offset="0.30196078431373" stop-color="#ffffff" stop-opacity="0.39607843137255"/><stop offset="0.31372549019608" stop-color="#ffef35" stop-opacity="0.39607843137255"/><stop offset="0.49803921568627" stop-color="#ffb300" stop-opacity="0.39607843137255"/><stop offset="0.98039215686275" stop-color="#f26200" stop-opacity="0"/></radialGradient><g transform="matrix(1, 0, 0, 1, -74.95, 171.2)" id="object-29"><path fill-rule="evenodd" fill="url(#gradient-Rac270f27f6b648aa8dccd3b18e942828)" stroke="none" d="M74.95 -171.2Q100.1 -131.95 87.85 -78.5L100.45 -102.95L100.45 -71.5Q106.45 -75.65 109.4 -84.2L110.95 -89.9Q112.5 -97.4 112.3 -107.4Q102.95 -130.3 74.95 -171.2"/></g><radialGradient gradientTransform="matrix(0.1147, -0.0667, 0.0989, 0.068, 63.55, -61.6)" gradientUnits="userSpaceOnUse" spreadMethod="pad" id="gradient-Rac270f27f6b648aa8dccd3b18e942828" cx="0" cy="0" r="819.2"><stop offset="0.31372549019608" stop-color="#ffffff"/><stop offset="0.41960784313725" stop-color="#f5fe43"/><stop offset="0.5843137254902" stop-color="#fe8001" stop-opacity="0.85098039215686"/><stop offset="1" stop-color="#d94b00" stop-opacity="0"/></radialGradient><g transform="matrix(1, 0, 0, 1, -74.95, 171.2)" id="object-30"><path fill-rule="evenodd" fill="url(#gradient-Re54ed2e9557e9f0d7bbf0e97ed139a54)" stroke="none" d="M74.95 -171.2Q100.1 -131.95 87.85 -78.5L100.45 -102.95L100.45 -71.5Q106.45 -75.65 109.4 -84.2L110.95 -89.9Q112.5 -97.4 112.3 -107.4Q102.95 -130.3 74.95 -171.2"/></g><radialGradient gradientTransform="matrix(0.1147, -0.0667, 0.0989, 0.068, 63.55, -61.6)" gradientUnits="userSpaceOnUse" spreadMethod="pad" id="gradient-Re54ed2e9557e9f0d7bbf0e97ed139a54" cx="0" cy="0" r="819.2"><stop offset="0.31372549019608" stop-color="#ffffff"/><stop offset="0.41960784313725" stop-color="#ffff43"/><stop offset="0.5843137254902" stop-color="#ffbc01" stop-opacity="0.85098039215686"/><stop offset="1" stop-color="#ff8700" stop-opacity="0"/></radialGradient><g transform="matrix(1, 0, 0, 1, -74.95, 171.2)" id="object-31"><path fill-rule="evenodd" fill="url(#gradient-Rac270f27f6b648aa8dccd3b18e942828)" stroke="none" d="M74.95 -171.2Q100.1 -131.95 87.85 -78.5L100.45 -102.95L100.45 -71.5Q106.45 -75.65 109.4 -84.2L110.95 -89.9Q112.5 -97.4 112.3 -107.4Q102.95 -130.3 74.95 -171.2"/></g><radialGradient gradientTransform="matrix(0.1147, -0.0667, 0.0989, 0.068, 63.55, -61.6)" gradientUnits="userSpaceOnUse" spreadMethod="pad" id="gradient-Rac270f27f6b648aa8dccd3b18e942828" cx="0" cy="0" r="819.2"><stop offset="0.31372549019608" stop-color="#ffffff"/><stop offset="0.41960784313725" stop-color="#f5fe43"/><stop offset="0.5843137254902" stop-color="#fe8001" stop-opacity="0.85098039215686"/><stop offset="1" stop-color="#d94b00" stop-opacity="0"/></radialGradient></defs></svg>
