<svg xmlns="http://www.w3.org/2000/svg" xmlns:xlink="http://www.w3.org/1999/xlink" width="37" height="76" viewBox="0 0 37 76"><defs><clipPath id="a"><path d="M1 1h35v74H1z"/></clipPath><g id="b"><path fill="#4a4117" d="m24.7 29.3-5 2.9-.1-.2-.5-.2.1-10.6 5.5 2.9zv-5.2l-5.4-3-.2 10.7q-2.6-1.2-5.6-.6V18l3 .3q9 0 10.6 7l4.9 2.5V32l-1.1-1.1-5.4-2zm0-5.2 2.4 1.1zm-5.4-3-5.8-3z"/><path fill="#826d40" d="m19.1 31.8.4.2.3.2 4.9-2.9v20.9l-3.8-2.3h-.8l-1.2-.5-5.3-2.4V31.2q2.9-.6 5.5.6l-.2 15.6zm17.8 5.4.1 19.2-5-2.6V32zm.4 29.6h-.2z"/><path fill="#786a3b" d="m13.6 45 5.3 2.4 1.2.5h.8l3.8 2.3 7.3 3.6 5 2.6.3 10.4h-.2l.2.2v3.2L29 66l-.6-.2-4.1-2.2-1-.5-2.8-1.4-1.2-.6-1.2-.6-1.8-.9-2.6-1.4h-.1zm9 14.7-2.1-1.1zM35 65.9l-1.6-.7zm-9-4.5-1-.4zm4.4 2.3-2.6-1.4z"/><path fill="#987b4c" d="m24.7 29.3.8-.3 5.4 1.9 1 1.1v21.8l-7.2-3.6z"/><path fill="#363210" d="M32 32v-4.3l-5-2.4q-1.6-7-10.5-7.1l-3.1-.3v-4.5l3.2.7.5.2Q25 17 36.6 25.8l.1 1.6.2 2.9-4.8-2.6 4.8 2.6v7z"/><path fill="#e0d7ac" d="M37.3 70.3v1.5l-4 2.9v-.1l-2 1.2-.4-.2-5-2.6-1.7-1-1.7-.8-1.2-.6-.2-.1 2-1.2.9-.4 1.2-.7-5.2-2.5-3.1-1.5-.6-.3 2.7-1.4.6-.3.9-.5 2.8 1.4 1 .5 4.1 2.1.6.3zm-21 3.1L.4 65.1l-.4-.2 2.3-1.2.7-.3 1-.5.2-.1 2.6 1.5L8 65l1.2.7 1.2.6.5.3-1 .5-.1.1-.7.3-.2.2.3.1 2 1 1 .7 1.8.9.5.3.5.3 1.8 1 .9.4zm9.3-5.3-.3.2zm2.9-1.5-2.1 1.1zM8.5 68l.5-.2z"/><path fill="#9d9164" d="m31.3 75.8-5.1 2.8-10-5.2 1.6-1-.9-.5-1.8-1-.5-.2-.5-.3-1.7-1-1.1-.6-2-1-.2-.1H9l.2-.2.7-.3.2-.1.9-.5-.5-.2-1.2-.7L8 65l-1.3-.7-2.6-1.5.6-.3q7.4-1.4 14.5-1.4l1.2.6-.9.5-.6.3-2.7 1.4.6.3 3.1 1.5 5.2 2.5-1.2.7-.8.4-2.1 1.2h.1l1.3.7 1.7.9 1.7.9 5 2.6zm-11.6-4.5-.5.3zm-5-6.6-.5.3zm3.4 7.5-.4.2zm-5.3-6.5-1 .5z"/><path fill="#746940" d="m4.8 62.5 2-1v.2l1.7-1 5.1-2.4v-.1l2.7 1.4 1.8.9 1.1.6q-7 0-14.4 1.4"/><path fill="none" stroke="#000" stroke-linecap="round" stroke-linejoin="round" stroke-opacity=".7" stroke-width="__RESOLUTION__" d="M24.7 29.3v-5.2l-5.4-3-.2 10.7-.2 15.6-5.3-2.4M32 32v-4.3l-5-2.4-2.3-1.3m12.1 6.1-.2-2.8m.2 2.9L32 27.7M20.5 58.6l2.2 1M37 56.5V37.3l-.1-7M32 32v21.8l5 2.6.3 10.4m0 .2v4.8m-5.3-18-7.3-3.6-3.8-2.3h-.8l-1.2-.5M33.4 65l1.6.7m-6 .2 8.3 4.3m0-3.3-.2-.2m-12.8-3.2 4.1 2.1m-3.3-4.9.9.5m-6.7-.2 1.2.6 2.8 1.4m4.4-.9 2.7 1.3m-5.7-13.3V29.3M13.5 18.1l5.8 3m-5.7 37.1 2.7 1.4m1.8.9 1.1.6" vector-effect="non-scaling-stroke"/><path fill="none" stroke="#000" stroke-linecap="round" stroke-linejoin="round" stroke-opacity=".6" stroke-width="__RESOLUTION__" d="m.4 65.1-.4-.2 2.3-1.2m.7-.3 1-.5m.2-.1.6-.3 2-1" vector-effect="non-scaling-stroke"/><path fill="none" stroke="#434339" stroke-linecap="round" stroke-linejoin="round" stroke-width="__RESOLUTION__" d="m4 62.9.2-.1 2.6 1.5m13.7-2.6-.9.5m-.6.3-2.7 1.4.6.3m3.1 1.5 5.2 2.5.3-.1m-2.3 1.3-2.2 1h.1m1.3.7 1.7.9m1.7.9 5 2.6m-11.7-4 .5-.3m5.5-3-1.2.6m2.3-1.2 2.1-1.2M14.2 65l.6-.3m-5.5 1 1.2.6m-.4.8-.2.1m-.7.3-.2.2h0m.3.1 2 1m1 .7 1.8.9m.5.3.5.3m1.8 1 .9.4.4-.2m-6.3-6 1-.5m-3.9 2-.5.2m7.8 5.5 1.4-1" vector-effect="non-scaling-stroke"/><path fill="#000" fill-opacity=".5" d="M37.2 32.6V43q-1 1-5.1 1-3.6 0-10.7 1.6l-.1 1.5-.3 7.7q-.2 8.4-7.1 4.1-1.3-.7-1.3-2.4l.2-9.4q-4.1.3-5.3-1.5-2.1-2.9-2.1-6.9L5 19Q4.9 9.9 7.2 1.5 7.6.3 9 .1l.6-.1q4.5.9 4 5.5v.3q9.7.4 13.6 8 .6 1.2 0 2.3 10 .4 8.3 9-.3 1.9-2.2.2t3.5 6.7zM13.5 14.5v2.1l2.6-2z"/></g></defs><g clip-path="url(#a)"><use xlink:href="#b" width="37.4" height="78.5" transform="translate(1 1)scale(.9301)"/></g></svg>