<svg xmlns="http://www.w3.org/2000/svg" xmlns:xlink="http://www.w3.org/1999/xlink" width="54" height="74" viewBox="0 0 54 74"><defs><g id="d"><path fill="#c4b891" d="m16.9 1.1 1.4.3 1.2.4V2l1 .6.6.6 7.9 12 .5 1.8-.4 1.8-1.4 1.6-2.2 1.5-2.9 1.1-3.3.8H18l-2.7.2-2.5-.2H12l-.5-.2L13 9.5l.7-2.7-1.2-.3-1.2-.5-1-.6-.6-.7-.2-.7.2-.7.6-.8.9-.6 1.3-.5 1.3-.3.1.2.4-.2 1.2-.6zM18 3.8v-2l-1.1-.6 1.1.6zm-5.1.1V1.8l1-.5-1 .5z"/><path fill="#8d865f" d="M16.9 1.1h-.1zM14.3 1l-.4.2V1z"/><path fill="#630" d="M18 25.7V25zm0-1.9V25l1.5.7v2.4l-4.8 2.4v-2.4l-10-4.9 1.8-.9 2 .8 2.9.5.5.1 1 .1v2l2.4 1.2v-3z"/><path fill="#c96" d="M15.4 24v3l-2.6-1.2v-2z"/><path fill="#f9e8ce" d="M11.4 23.7 8.5 23l-2-.8-.9-.3-2.2-1.4-1.5-1.7-.5-1.8.4-1.8L9.4 3.8l.2.2.3.8.5.6 1 .6 1.2.5 1.2.3-.7 2.7z"/><path fill="#963" d="m4.7 23.3 10 4.8v2.4l-4.3-2.1v9.1l1.5.1 2.2.4 2 .8 1.4.9 1 1 .3 1.3-.3 1.1-.9 1.1-1.5 1-1.8.7-2.2.4H7.4L5 46l-1.9-.7-1.5-1-.9-1.1L.5 42l.3-1.2.8-1 1.5-1 1.9-.7 2.2-.5 1.7-.1v-9.9l-4.2-2zm4.2 4.4 1.5.8zm2.4 13v-1.5l-.2-.3-.3-.1-.4-.2v-1.1 1.1l.4.1.3.2.2.3zm-.9-2.1v.6zm-1.5.6v-1.7zm-1 .2.1-.2.2-.2.3-.2.4-.2-.5.2-.2.2-.2.1zv.4l.4.2-.5-.2zm.5 1.9-.5-.6v-.9.9z"/><path fill="#56a901" d="m9.7 3.3-.2.7-.2-.2z"/><path fill="#aaa273" d="M8 39.4v.2z"/><path fill="none" stroke="#9d8755" stroke-linecap="round" stroke-linejoin="round" stroke-width="1" d="M18 23.8h1.2l3.3-.8 2.9-1.1 2.2-1.4 1.3-1.7.5-1.9-.5-1.7-7.7-12-.7-.7-1-.6h0l-1.2-.5-1.4-.3m0 .1 1.1.6v2.1m-1.1-2.7L15.5.4l-1.2.6-.4.2-1 .5V4M18 23.8l-2.7.2-2.5-.2H12l-.5-.2-2.9-.5-2-.8-.9-.3-2.2-1.4L2 18.9l-.5-1.8.4-1.8L9.4 3.8m4.5-2.7-1.4.3-1.2.5-.9.6-.6.8m-.2.7.3.8"/><path fill="none" stroke="#3f1b16" stroke-linecap="round" stroke-linejoin="round" stroke-opacity=".7" stroke-width="1" d="M16.9 1.1h-.1M18 25v.7m-3.3 4.8 4.8-2.4v-2.4L18 25v-1.2m-5.1 2v-2m-6.4-1.5-1.8 1v2.3l4.2 2v9.9l-1.7.1L5 38l-1.9.8-1.5 1-.8 1-.3 1.3.3 1.1 1 1 1.4 1 2 .8 2.1.3h4.8l2.2-.4 1.8-.7 1.5-1 .9-1.1.3-1.1-.4-1.2-.9-1.1-1.4-1-2-.7-2.2-.4-1.5-.1v-9.1l4.3 2.1m-.4-29.4h-.5m-4 2.2-.4.5m1.1 24.6L9 27.7m1.5 9.8v1.1l.4.1.3.2.2.3v1.5m-.9-1.5v-.6M9 37.5v1.7m0-.6-.5.2-.2.2-.2.1v.7l.4.2m-.5-.2v.9l.5.5"/></g><g id="c"><path fill="#97602b" d="m41.6 14.8-.8-1.7-1.7-2.5-1-.8-11-5.4 11 5.4 1 .8 1.7 2.6zl.6.3zm-29.8-12 1.1-1.1L14.6.5l1.7-.5h1.4l1.2.4 8.3 4 .6-.2 19.1 9.3v1.9l-2 1.2-1.6.5-1.2.3-.7-.1h-.1l-.6-.2-.3-.2-.3-.7-2.2-3.1-1.3-.9-1.4-.3-1.5.5-1.1.8-.3.2-1.4 1.7-4 8.9-1.4 1.8-2.6 1.9-2.3 1v-1.9L1.4 17.5l1.8-.9 1.4-.9.9-.7.3-.3H6L24.9 24h.1l.4-.3.6-1 2.4-6.6 2.3-3.5.2-.2h-.1z"/><path fill="#8d865f" d="m41.6 14.8.6.3z"/><path fill="#764b21" d="m11.8 2.9 19 9.4-.1.2-2.3 3.5-2.4 6.7-.6.9-.5.3-19-9.1.3-.6.5-.9 2.6-6.6 1-1.9 1.2-1.6zM1.4 17.5l19.2 9.3v2L6.8 22l-5.4-2.6z"/><path fill="#be6001" d="m30.8 12.3-.1.2zM11.5 3.2l.2-.3z"/><path fill="#989701" d="m25.4 23.6-.4.3h-.1zM6 14.7h-.2l.4-.5z"/><path fill="#6a2f26" d="m20.6 28.8 2.3-1.1 2.6-2L27 24l3.9-9 1.4-1.6.3-.2 7.8 3.8.3.1.5.2h.2v2.4q-6.2-2.2-19.2 9.5v2.4l-15.4-7V22z"/><path fill="#7e4001" d="m32.3 13.4.3-.2z"/><path fill="#382310" d="m32.6 13.2 1.1-.8 1.5-.5 1.4.3 1.3.9 2.2 3.1.3.7z"/><path fill="#aaa273" d="m40.4 16.9.3.2zM32 39.8l-.9-.5.1-.2z"/><path fill="#be6341" d="M41.4 19.7v.8l4.3 2.2 1 1.4.8 1.9.5 2.5.2 3-6.7 3.5-2.3 1.1 1.5-3 .4-1.9.1-1.6-.2-1.5-.3-1.2-.7-1-.9-.6-1.9-1-1-.2H35l-1.3.5-1.3.8-1.1 1-1.1 1.5-1 1.6-.6 1.6-.4 1.6-.1 1.8.1 1.5.4 1.2.6 1 1 .6.9.5.9.5-16.6 8.4.1-3.3 1.4-5.7 1-2.5 1.3-2 .8-.9-.4-.2 2-1.8.6.2v-2.9q13-11.6 19.2-9.4m0 15.3V20.5z"/><path fill="#e7dcc2" d="M39.2 36.2H39l-1 1.3-1.2 1.1-1.3.9-1.3.5H33l-1.1-.2-.8-.7-.1.2-.9-.4v-.1l-1-.6-.6-1-.4-1.2-.1-1.5.1-1.7.4-1.6.6-1.7 1-1.6 1.1-1.4 1.1-1 1.3-.9 1.3-.4 1.2-.1 1 .3 1.9.9.9.6.7 1 .3 1.3.2 1.4-.1 1.6-.4 1.8zM36 25.9l-.5.3v5.1h-.1l-.4.4-.2.4-.2.5-4 1 .3.9 3.6-.9.3.4.7.3.3.1h.3l.4-.1.4-.4.3-.4.1-.6.2-.5-.1-.4-.2-.3-.7-.4V26z"/><path fill="#823d2d" d="M15.4 48.2 0 40.7l.7-6.3 1.9-5.1 1.3-2.1 1.4-1.5 1.5-1.1 15.4 7v.4l-.6-.2-2 1.8.4.2-.8.9-1.3 2-1 2.4-1.4 5.8z"/><path fill="#1b132f" d="m36 25.8.5.2v5.2l.7.4.1.3.2.4-.1.5-.2.6-.3.4-.4.4-.4.1h-.4l-.2-.1-.7-.4-.2-.2-3.7.8-.3-1 4-.9.1-.5.3-.4.4-.4h.1v-5.1z"/><path fill="none" stroke="#3f1b16" stroke-linecap="round" stroke-linejoin="round" stroke-opacity=".7" stroke-width="__RESOLUTION__" d="M27.2 4.4 38 9.9l1.1.8 1.7 2.6.8 1.6.6.3-.7-.3h0m-.1 2.5h.6l1.3-.2 1.6-.6 2-1.1v-1.9L27.8 4.2l-.6.2-8.3-4-1.2-.4h-1.4l-1.7.5-1.7 1.3-1.1 1.1h-.1l-.2.3-1.2 1.6-1 1.9-2.6 6.6-.5.9-.5.5-.2.3-.9.7-1.4.9-1.8.9v1.9L6.8 22v2.6h0l-1.5 1-1.4 1.6-1.3 2-1.9 5.2-.7 6.3 15.4 7.5L32 39.7l-.9-.4M20.6 28.8l2.3-1.1 2.6-2L27 24l3.9-9 1.4-1.6.3-.2h0l1.1-.8 1.5-.5m5.5 5.2.5.2h.2v3.2l4.3 2.2 1 1.4.8 1.9.5 2.5.2 3-6.7 3.5-2.3 1.1m1.5-19-.4-.1m1.1 3.5V35" vector-effect="non-scaling-stroke"/><path fill="none" stroke="#797455" stroke-linecap="round" stroke-linejoin="round" stroke-width="__RESOLUTION__" d="M39.2 36.2H39l-1 1.3-1.2 1.1-1.3.9-1.3.5H33l-1.1-.2m-.9-.5-.9-.4v-.1l-1-.6-.6-1-.4-1.2-.1-1.5.1-1.7.4-1.6.6-1.7 1-1.6 1.1-1.4 1.1-1 1.3-.9 1.3-.4 1.2-.1 1 .3 1.9.9.9.6.7 1 .3 1.3.2 1.4-.1 1.6-.4 1.8-1.5 3.1" vector-effect="non-scaling-stroke"/></g><g id="b"><path fill="#c98e54" d="m47.8 6.9 1.8-1zM0 18.9 37.4 0l10.2 5 2 1 .7.3.4 1L17.9 24l-6 .7zm15.9 0L8 22.5zM8.5 16l-6.1 3.5zM42 7.9 47.6 5z"/><path fill="#aa7035" d="m50.7 7.4 1 2.8v2.6l-1.3.6-1.8.9-9.9 5-1.1.6-21.5 10.8-1.9.9.1-3.6-2.3-3.3 5.9-.7zm-.3 8.4v18.1l-1 .5-.8.4v-18zM14.3 34l1.8-.9v18.1l-.9.5-.9.5z"/><path fill="#744a23" d="M50.4 13.4v2.4l-1.8 1-.9.5V33l-1 .5.8.8.9.4h.2V14.3zm-11.3 6.9v2l-5.6 2.9-1.2-.4-.5.3-.3 1-6.9 3.6-.1-1-.2-1.2zm1.3 1.5v-2.3l6.1-2.8 1.2-.5v1.9l-2.2 1.1-1.1-.6q-.7.5-.5 1.4zm-26.1 9.8 1.8-.9v2.4l-1.8.9zm1.8 1.5v-1.3l7.2-3.6v2.1l-2 1-1.1-.4-.7 1.4-3.4 1.6z"/><path fill="#2e1d0e" d="M49.5 34.4v.1l-1.3.9-.7-.6v-.5l.9.4h.2v.1zM38.7 19.3l-.1.6h-1zm7.3.2v.3q0 .4-.5.7l-1.3.3-.3-.8q-.2-.9.5-1.4l1 .6zm0 9.4q0 .3-.5.6l-1.3.3-.4-.2q-.2-.3-.1-.6l-.1-.2v-.3l.9-.9q.6 0 1 .4zm0 4.3q0 .4-.5.6l-1.3.3-.5-1.1 1.1-.8zm2.6 1.6-.2-.1zm-44 12.6.9-.2-.2.8q-2.1.3-3.2-1.6v-.2zm26.8-21.2.3-1.1.5-.3 1.2.4.3.8v.2l-1.8.7zm-12 6 .7-1.3 1.1.4.4.9-1.9.9zm2.2 4.5-1.9.9-.6-1.2 1.3-1zm0 4.5-1.9.9-.5-.7.9-1.5zm0 4.3-1.9.9-.4-1 .8-1.1zm22.5-20.2-.6-1 .8-1.1h.7q.8.3.9 1.2 0 .3-.5.6zM14.3 52.2l.9-.5-.4.6-1 .3-.2-.1-.3-.8z"/><path fill="#1e1302" fill-opacity=".4" d="m49.5 34.5 2.2 1L14.6 54 .1 47l1.8-.9h.2v.3q1.1 1.9 3.2 1.6l.2-.8 1-1 3.8 1.5v2.4l3 1.6.3.8.2.1 1-.2.4-.7.9-.5V49l8-4.1v-9l5.6-2.8 9.2 4.4 7.9-4 .7.8v.5l.7.6z"/><path fill="#6a4520" d="m1.9 46.1-.6-.3v-20l3.4 2v19.6L2 46.2zm12.4-13.2v19.3l-1-.5-3-1.6V30.7z"/><path fill="#412614" d="M1.3 25.9v-.6l9 4.2v1.2l-4.8-2.5v17.6l1 .4-1 1-.8.2V27.8zm9 4.9v-1.2l4 2V33z"/><path fill="#784f25" d="M1.3 25.3 0 24.7v-5.8l12 5.8 2.3 3.3v3.6l-4-2.1z"/><path fill="#4e3218" d="M47.7 15.9v.3l-1.2.5-6.1 2.8v2.3l-1.3.6v-2.1l-.5-.4.1-.6 9.9-5v2.5l-.9.5zm-9.1 4 .5.4-14.8 7.2-.2 2.4-.8.4v-2.1l-7.2 3.6v-1.1l21.5-10.8z"/><path fill="#8d865f" d="M47.7 16.2v-.3V19zm0 4.2v3.1zM33.8 26v.2z"/><path fill="#825428" d="m39.1 22.4 1.3-.6v.9l3.8-2 1.3-.2q.5-.3.5-.7l1.7-.8v1.4l-7.5 3.8v3l4-2 1.3-.2q.5-.3.5-.6l1.7-.9v1.4l-7.5 3.8v3l4-2 1.3-.2q.5-.3.5-.6l1.7-.9v1.2L40.2 33v3.1l4-2 1.3-.2q.5-.3.5-.7l1.7-.9v.7l-1 .5-7.9 4V26.3l-5-.1V26l5.3-2.7zm-15 7.6v.6l.4.2v-2l.1 1 .1.9 5-2.5-5.6 5.6V45l-8 4v-.6l3.7-1.9 1.9-.9 1.6-.8v-3.1l-7.2 3.6V44l3.7-2 1.9-.8 1.6-.9v-3.1l-7.2 3.6v-1.3l3.7-2 1.9-.8 1.6-.9v-3.1l-7.2 3.6V35l3.7-2 1.9-.8 1.6-.9v-1zm.4.8.3-.1z"/><path fill="#b07335" d="m46.5 16.7 1.2-.5zm1.2 1.4v.9l-1.7.8v-.3l-.5-.3zm0 11.1v3.2l-1.7.8-1.1-1-1.2.8.5 1.1-4 2V33zm-23.1.5 6.9-3.5.5.7-2.2 1.2-5 2.5zm8.9-4.4 5.6-2.8v.9L33.8 26zM16 33.9l3.4-1.6.3.8L16 35zm5.2-2.6 2-1v1l-1.6.9zM16 40.9l7.2-3.7v3.1l-1.6.9-1.5-1.3-.9 1.5.5.7L16 44zm27.8-21 .3.9-3.9 1.9v-1z"/><path fill="#bd8035" d="M47.7 20.4v3.1l-1.7.9q-.1-.9-.9-1.2h-.7l-.8 1 .6 1-4 2v-3z"/><path fill="#734921" d="M47.7 28v-3.1zm0 1.2v3.2z"/><path fill="#c8883c" d="M47.7 24.9V28l-1.7.9-.5-.9q-.4-.4-1-.4l-.8.9-.1.1v.3q0 .4.2.7l.4.2-4 2v-3.1zM16 36.4l7.2-3.7v3.1l-1.6.9-1.2-1.2-1.2.9.5 1.2-3.7 1.9z"/><path fill="#aaa273" d="M47.5 34.5v.3zm-3.9-5.7v.2zm-30 23.7.2.1z"/><path fill="#58391b" d="m6.5 46.2-1-.5V28.3l4.8 2.5v17z"/><path fill="#845426" d="m24.3 27.5.2 1.3v1.9l-.4-.2v-.6z"/><path fill="#452d14" d="m33.8 26.2 5 .1v11.2l-9-4.4v-5l2.2-1.2z"/><path fill="#a06c2e" d="m16.1 45.2 7.2-3.6v3l-1.6.9-1.5-1.2-.8 1 .4 1.1-3.7 1.9z"/><path fill="#291a0c" d="M24 35.9v-2.1l5.8-5.7v5z"/><path fill="none" stroke="#8e5e2d" stroke-linecap="round" stroke-linejoin="round" stroke-width="__RESOLUTION__" d="m49.6 6-1.9.9M8.1 22.5l7.9-3.6m-13.6.6L8.5 16M47.6 5 42 7.9" vector-effect="non-scaling-stroke"/><path fill="none" stroke="#744a23" stroke-linecap="round" stroke-linejoin="round" stroke-width="__RESOLUTION__" d="M0 18.9 37.3 0l10.3 5 2 1 .7.3.4 1 1 2.9M0 18.9l12 5.8 2.3 3.3" vector-effect="non-scaling-stroke"/><path fill="none" stroke="#4a2f1c" stroke-linecap="round" stroke-linejoin="round" stroke-width="__RESOLUTION__" d="M51.7 10.2v2.6l-1.3.6v20.5l-1 .5v.1l-1.2.9-.7-.6v-.5l-.7-.8.9-.5M1.9 46l-.6-.3V25.3L0 24.7v-5.8m47.7-2.7v-.3m.9-1.6-9.9 5-1.1.6-21.5 10.8-1.9.9m24.4-11.7.5.4v3L33.8 26m13.9-9.8V19l-1.7.8m4.4-6.4-1.8.9m-1 6.1v3.1l-1.6.9m0-5v.1m2.6 15.3.9-.4m-1.8-9.5V28l-1.7.9m-1.8.9-4 2m7.5-2.6v3.2l-1.7.8m1.5 1 .9.5.2.1m-1.1-.3v.2m-3.3-.6-4 2M4.7 47.4l.8-.2 1-1-1-.5m4.8-15v-1.2l-9-4.2M16 33v-2.4m-1.9.9-4-2.1m13.9 1 .4.2.3-.1 5-2.5-5.7 5.6V36m9.7-10 5 .2m0 11.2 8-4M16 33v1.8l3.7-1.8m3.5-2.8v-2.1M16.1 35v4.4l3.7-1.8m3.5-4.9v3.1l-1.6.9M16 39.5v4.4l3.7-1.8m3.5-4.9v3.1l-1.6.9M16 44v4.3l3.7-1.9m3.5-4.8v3l-1.6.9M16 48.3v.7l8-4.1m-2.4-12.7 1.6-.9v-1m17.1-7.6 3.8-2M32 27l-2.2 1.2m0 5 9 4.4m1.4-10.2 4-2m-31 26.4-3-1.6v-2.4l-3.7-1.5m8.7 5.5-.9.5-1-.5.3.8.2.1 1-.2zl.9-.5V49m-2.5 3.6v-.1M2.1 46.2v.1q1.1 2 3.2 1.7l.2-.8M1.9 46h.2l2.6 1.3m5.6-16.7v17M24 36l5.6-2.8" vector-effect="non-scaling-stroke"/><path fill="none" stroke="#2f1813" stroke-linecap="round" stroke-linejoin="round" stroke-opacity=".7" stroke-width="__RESOLUTION__" d="M14.3 28v3.6h0v1.7" vector-effect="non-scaling-stroke"/></g><clipPath id="a"><path d="M1 1h52v72H1z"/></clipPath></defs><g clip-path="url(#a)"><g transform="translate(32.6 62.6)"><use xlink:href="#b" width="51.7" height="54" transform="translate(-31.6 -43.95)"/><use xlink:href="#c" width="48.2" height="48.1" transform="translate(-29.9 -38.85)scale(.3298)"/><use xlink:href="#d" width="29.9" height="46.9" transform="matrix(-.5128 0 0 .5128 10.85 -61.6)"/></g></g></svg>