<svg xmlns="http://www.w3.org/2000/svg" xmlns:xlink="http://www.w3.org/1999/xlink" width="69" height="62" viewBox="0 0 69 62"><defs><g id="j"><path fill="none" stroke="#353d69" stroke-linecap="round" stroke-linejoin="round" stroke-opacity=".8" stroke-width="__RESOLUTION__" d="m25.4.1-.1 1.8" vector-effect="non-scaling-stroke"/><path fill="url(#a)" d="M12.4-4.3 9.8-6.4q-3.2-2-6-.8l12.5-6q1.1 1.9.3 6.4T15.2-.9z" transform="translate(-3.7 19.3)"/><path fill="none" stroke="#353d69" stroke-linecap="round" stroke-linejoin="round" stroke-opacity=".8" stroke-width="__RESOLUTION__" d="m8.6 15-2.4-2.1q-3.2-2-6.1-.8l12.5-6q1.2 1.9.3 6.4t-1.5 5.9z" vector-effect="non-scaling-stroke"/></g><g id="i"><path fill="#c6a869" d="M30.3 11.1 34.7 9l3.5-.8q4.7-1.4 12.5-5.1l2.4.6-.9.5q-6.6 3.5-10 4.9l-.7.3h-.2L40 10l-4.5 1.2-1.4.2z"/><path fill="#ddc87f" d="M34.8 9 47 3.2l2.5-.4 1.3.3q-7.9 3.7-12.6 5.1z"/><path fill="#8f6b32" d="M53.2 3.7v.5Q48.2 7 43 9.5q-5.5 2.6-11.4 5.1l-.2-.2q4.3-1.7 8.6-4.4l1.3-.5h.3l.6-.3q3.4-1.4 10-5z"/><path fill="#695220" d="M53.2 4.3V7l-.5.3-5.2 2.9-1.2.6q-8.6 4.3-13 4.6h-1.5l-.2-.1v-.8q6-2.5 11.4-5.1z"/><path fill="#5a481f" d="m53.2 7-.2.9-.5.5-.3.2-3 2.1-1.6 1q-2.8 1.8-5.6 3.2l-.3.1q-3.3 1.6-6.6 2.6l-3.6.6.1-2v-.9h.5l.1.1h1.1q4.4-.3 13-4.6l1.2-.7 5.2-2.8z"/><path fill="#675223" d="M31.5 18.3q-.4 2.8-1.4 4.7t-2.7 2.7l-1.4 1-1.7.9-.2-.1.3-.5.8-1.1q.6-1.1 1-2.5l.1-.7q1 3 5.2-4.4"/><path fill="#bb8e44" d="m24 27.5-.9.7-.6.4q-3 1.7-9.8-1.9T2.6 15.2q6 7 21.5 12.4"/><path fill="#bd9946" d="m2.6 15-.3-.5-.5-1.5-.4-1.6-.5-2v-.6H1l.3.1.1.1q3.9 1.3 6.9 1.1h.3l2.7-.7.5-.2 14.9 8v1.9l-.4 3.5-.2.8-.9 2.5-.7 1.1-.4.5Q8.6 22 2.6 15m22.6 10.8-23.3-13z"/><path fill="#c5ac58" d="M.8 8.8Q.3 6.1.1 3l11 5.9.7.3-.6.3-2.6.6h-.3q-3 .2-6.9-1.1h-.1L1 8.9zm33.3 2.5 1.4-.2L40 9.9q-4.4 2.7-8.6 4.4l-1.8-1z"/><path fill="#e2ce8c" d="m.1 3 5.1-3 2.7 1.5.3.1.4.3.5.3 5.4 2.9 1.3.8.6.4.3.1 1.2.8q9.2 6.2-6.5 1.6H11z"/><path fill="#d2ba82" d="m16.7 6.5 1.7 1 9.3 4.9 1.9 1 1.8 1 .3.1-5 2.8-14.9-8-.8-.4h.3q15.8 4.6 6.6-1.6z"/><path fill="#bda661" d="m27.7 12.4 2.6-1.3 3.8.2-4.6 2z"/><path fill="#786228" d="M31.7 14.5v1.6l-.2 2.1q-4.2 7.5-5.2 4.4l.4-3.6v-1.7z"/><path fill="none" stroke="#000" stroke-linecap="round" stroke-linejoin="round" stroke-opacity=".5" stroke-width="__RESOLUTION__" d="M30.3 11.1 34.7 9 47 3.2l2.5-.4 1.3.3 2.4.6V7l-.2.9-.5.5-.3.2-3 2.1-1.6 1q-2.8 1.8-5.6 3.2l-.3.1q-3.3 1.6-6.6 2.6l-3.6.6q-.4 2.9-1.4 4.8t-2.7 2.7l-1.4 1-1.7.9m-.2-.1-1 .7-.6.4q-3 1.7-9.8-1.9T2.6 15.2l-.3-.6-.5-1.5-.4-1.6-.5-2v-.6Q.2 6.1 0 3l5.2-3 2.7 1.5.3.1.4.3.5.3 5.4 2.9 1.3.8.6.4.3.1 1.7 1 9.3 4.9 2.6-1.3m1.1 3.3-1.8-1-1.9-1m4 2.1-.3-.2m.3.2V16l-.2 2.1m-5.2 4.4.4-3.6v-1.7l-14.9-8-.8-.4-10.9-6m26.2 19.7-.2.8-.9 2.5-.7 1.1-.4.5m2.6-10.2 5-2.8M1.8 13l23.3 12.9m-.9 1.7-.2-.1" vector-effect="non-scaling-stroke"/><path fill="#52381b" d="M30.4 22.8q.8-1.9 1.1-4.7l3.6-.7 6.6-2.4q.1-.2.3-.2 2.9-1.3 5.7-3.2l1.5-.8L51 9.6l1.3-1 .2-.2.6-.5-.6 1.7-3.6 2.8q-.2.7-1.3 1.6l-10.4 5.4-3.2.8-1.3.2-.2.9v.1l-.1.3zm2-1.2.2-.2-.1.4h-.1zm.4-1.2 1.3-.2-1 .4-.4.4z"/><path fill="#49381d" d="M53.2 8V7l.1-1.5h.2q-.2 3.3-1 5.6l-.4.7-.6 1.1-.3.4-.2.2-1 1-.7.4-.4.2-.1-.8 2.2-2.2V12q1-1.3 1.5-2.4v-.1z"/><path fill="#503f23" d="M48.9 15.2v3.3q-2-1.7-4 2.2V16l-1.4 1.8.1 1-2.3 1 1.4 1 .4-.7h.1l1.3.4v1.9h-.2l-.9-.3 1.1 1.1.5.3v-2.8l-.2-4.7.3-.2 2.5-1.8q1.1-1 1.3-1.6l-.1 2zm-11.6 6.3-.1 4.7-.3-1q-2-4.8-4.2 0V21l.3-.4 1-.5 3.3-.7zm-4.6 8.8-1.5-1.6.7.1v-1.9l-1.2-.5-.5.8-2-1 1.7-.6.3-.3q1.3-1.7 2.1-3.4h.1v-.4l.1-.1.2-1v10m-.2-9 .1-.2z"/><path fill="#695220" d="M48.9 18.5v3l-3.9 2v-2.8q1.9-4 3.9-2.2m-7.6 1.3-4 1.7v-1q3.2-.7 6.3-2.7v1zm-4.1 6.4v1.6l-4.5 2.4v-5q2.1-4.8 4.2 0z"/><path fill="#786228" d="m32.7 30.2-7-3.4.4-.2h.1l2-.6 2 1.1-.4.9 1.4.6z"/><path fill="#644920" d="m26.2 26.6 1.4-1.1.5-.3q1.4-.8 2.2-2.4l2-1.2v.2q-.7 1.7-2.1 3.4l-.3.4-1.7.4zm11-7.2L47.7 14l-2.5 1.8-.3.2-1.2 1.8q-3.1 2-6.4 2.6zm11.7-7 3.6-2.8q-.5 1.2-1.5 2.5l-2.2 2.3z"/><path fill="#39210f" d="m30.2 27.2.4-.9 1.3.5-2.1 1.2z"/><path fill="#c5ac58" d="M31.9 26.8v2l-.7-.2-1.4-.6z"/><path fill="none" stroke="#000" stroke-linecap="round" stroke-linejoin="round" stroke-opacity=".5" stroke-width="__RESOLUTION__" d="M30.4 22.8q.8-1.9 1.1-4.7l3.6-.7 6.6-2.4q.1-.2.3-.2 2.9-1.3 5.7-3.2l1.5-.8L51 9.6l1.3-1 .2-.2.6-.5.1-.8.1-1.5h.2q-.2 3.3-1 5.6l-.4.7-.6 1.1-.3.4-.2.2-1 1-.7.4-.4.2v6.3l-3.9 2-.5-.2M43.4 22l.9.3h.2v-1.9l-1.3-.4h0m-1.9-.3-4 1.7-.1 4.7v1.6l-4.5 2.4h0l-7-3.4.4-.2h.1l1.4-1.1.5-.3q1.4-.8 2.2-2.4m2-1.2.2-.2v-.1l.2-1L34 20l3.3-.7v1q3.2-.6 6.3-2.6l1.2-1.8.3-.2 2.5-1.8q1.1-1 1.3-1.6l-.1 2 2.2-2.2V12q1-1.3 1.5-2.4v-.1l.6-1.6m-4.3 6.4.1.8m-7.6 4.6 2.3-1v-1m-6.4 2.6v1.1m7.6-5.5.2 4.7v2.8M34 20l-1 .5-.4.4v3.6l.1.5v5.2m-.4-8.5q-.7 1.7-2.1 3.4l-.3.4-1.7.4-2 .6m4 .5.4-.8 1.3.5v2l-.7-.2-1.4-.6zm2.4-6-.1.2m0 .1-.1.4m-.1 0v-.2m.4-.6v-.6M29.8 28l2-1.2" vector-effect="non-scaling-stroke"/></g><g id="h"><path fill="#d8c937" d="M10.4 18.5 22.6.6Q28-.6 30.2 1 6.3 36.4 9.1 22.4z"/><path fill="#d7c436" d="M30.1 1q.8.6 1.1 1.4L6.8 37.2q-4-1.1-6.7-4.9 4.9-6 9.1-12l1.2-1.8-1.3 3.9q-2.8 14 21-21.4"/><path fill="#b8ac1e" d="M31.2 2.4q.4 1.2-.4 3-9.6 16.4-20.6 32.1l-3.4-.3z"/><path fill="none" stroke="#9e8a13" stroke-linecap="round" stroke-linejoin="round" stroke-opacity=".8" stroke-width="__RESOLUTION__" d="M10.4 18.5 22.6.6Q28-.6 30.2 1q.8.6 1.1 1.4.4 1.2-.4 3-9.6 16.4-20.6 32.1l-3.4-.3q-4-1.1-6.7-4.9 4.9-6 9.1-12zM31.2 2.4 6.8 37.2" vector-effect="non-scaling-stroke"/></g><g id="g"><path fill="#748191" d="M30.1 1q.8.6 1.1 1.4L6.8 37.2q-4-1.1-6.7-4.9 4.9-6 9.1-12l1.2-1.8-1.3 3.9q-2.8 14 21-21.4"/><path fill="#636f7b" d="M31.2 2.4q.4 1.2-.4 3-9.6 16.4-20.6 32.1l-3.4-.3z"/><path fill="#84929d" d="M10.4 18.5 22.6.6Q28-.6 30.2 1 6.3 36.4 9.1 22.4z"/><path fill="none" stroke="#353d69" stroke-linecap="round" stroke-linejoin="round" stroke-opacity=".8" stroke-width="__RESOLUTION__" d="M30.1 1q.8.6 1.1 1.4.4 1.2-.4 3-9.6 16.4-20.6 32.1l-3.4-.3q-4-1.1-6.7-4.9 4.9-6 9.1-12l1.2-1.8L22.6.6Q28-.6 30.2 1m1.1 1.4L6.8 37.2" vector-effect="non-scaling-stroke"/></g><g id="f"><path fill="#9c6f37" d="M31.2 2q.4 1.3-.4 3.2-9.6 16.3-20.6 32l-3.4-.4z"/><path fill="#b68141" d="M6.8 36.9Q2.8 35.8.1 32 5 26 9.2 20l1.2-1.8-1.3 3.9Q6.3 36 30.2.7q.8.6 1.1 1.4z"/><path fill="#c78f47" d="M10.4 18.2 22 1.6q6-2.5 8.2-.9Q6.3 36 9.1 22.1z"/><path fill="none" stroke="#8b3707" stroke-linecap="round" stroke-linejoin="round" stroke-opacity=".8" stroke-width="__RESOLUTION__" d="M31.2 2q.4 1.3-.4 3.2-9.6 16.3-20.6 32l-3.4-.4q-4-1-6.7-4.8Q5 26 9.2 20l1.2-1.8L22 1.6q6-2.5 8.2-.9.8.6 1.1 1.4L6.8 36.8" vector-effect="non-scaling-stroke"/></g><g id="e"><path fill="#7db13e" d="M30.1 1q.8.6 1.1 1.4L6.8 37.2q-4-1.1-6.7-4.9 4.9-6 9.1-12l1.2-1.8-1.3 3.9q-2.8 14 21-21.4"/><path fill="#498628" fill-opacity=".9" d="M31.2 2.4q.4 1.2-.4 3-9.6 16.4-20.6 32.1l-3.4-.3z"/><path fill="#90d457" d="M10.4 18.5 22.6.6Q28-.6 30.2 1 6.3 36.4 9.1 22.4z"/><path fill="none" stroke="#3c7425" stroke-linecap="round" stroke-linejoin="round" stroke-opacity=".8" stroke-width="__RESOLUTION__" d="M30.1 1q.8.6 1.1 1.4.4 1.2-.4 3-9.6 16.4-20.6 32.1l-3.4-.3q-4-1.1-6.7-4.9 4.9-6 9.1-12l1.2-1.8L22.6.6Q28-.6 30.2 1m1.1 1.4L6.8 37.2" vector-effect="non-scaling-stroke"/></g><g id="d"><path fill="#d2ba82" d="m45.8 14.6-2.1-1.2-2-1.2L32.2 7q18.4 6.2 5.8-1.2l12 6.5zm-20.4 8.2 1.6.8.2.1-4.3 2.4-12.7-6.8-.7-.4.3.1 4.8 1.3q6.9 1.4.8-2.7l-.8-.4 1.2.6q3.7 2.1 8 4.1z"/><path fill="#e2ce8c" d="M32.1 7 23 2.3 27.4.1l10.5 5.7q12.6 7.4-5.8 1.1m-32 7 4.4-2.4.9.5.9.5.6.3-.6-.3.3.1.3.2.2.1.3.2.5.3 1.5.8 3.1 1.7 1 .6.6.4.2.1.3.2.8.4q6 4.1-.8 2.7L9.8 19h-.3z"/><path fill="#786228" d="M50 12.3v2.4l-1.7 3Q46.8 20 45 20.9q.7-2 .8-4.7v-1.6zM27 23.8V27q-3.6 6.3-4.6 3.6.4-1.3.4-3v-1.5zm.7 13.5-6-2.9q-1 .8-2 1l.7-.5h.3l1-.4.3-.2h.1l1.7-.5 1.8 1-.4.6 1.3.5zm-8-1.9 1-.4z"/><path fill="#675223" d="M50 14.7q-.3 3.6-1.7 5.4-.8 1.1-1.8 1.6l-.1.1-1.1.8-1.6.8-.5.3-.5.2 1-.9.1-.2.3-.3.6-1 .3-.6q1.8-.9 3.3-3.2zM27 27q-.2 2.3-1.1 4-.7 1.3-1.9 2l-.4.3-1.3.9h-.1l-.3.1-1 .6-.3-.1.4-.4.6-1 .2-.4.7-1.7v-.7q1 2.6 4.6-3.7"/><path fill="url(#b)" d="m20.7-4.5 3 1.9q2.8 2 3.9 4.4l.2.6q.7 1.9.3 3.5t-1.9 3q-1 1-2.6 2-2 1.2-4.5 1.9-5.2 1.6-12.4 1.6-9 0-16.7-2.5l-2.7-1q-8.7-3.4-10.7-8.4v-.1q-1-2.5 0-4.6l.8-1.2.3.5q2.8 6.8 8.5 9.9h.1q2 1 3.7 1.6l1.8.3h1.8q.7 0 1.2-.3l.5-.4q1-.3 2-1l6 2.9 4-2V2.7l1.4-.6 4.9 2.2.3.2 3.4-1.8v-5.4l.3-.2.5-.4.4-.2.6-.2q.8-.3 1.5-.8M12 2.2l.4-.6-.7 1.3z" transform="translate(24.6 27.15)"/><path fill="#bd9946" d="m2 23.7-.4-1.2-.4-1.4-.3-1.7-.2-.5H1l.2.1.1.1q3.4 1 5.9 1l.4-.1 2.2-.5.5-.2L23 26.1v1.5q0 1.7-.3 3l-.1.6-.7 1.8-.2.4-.6 1-.4.4L16 33l-1.4-.6q-8.5-3.7-12.3-8.1zm-.5-1.2 20 10.9z"/><path fill="#c5ac58" d="m.8 18.9-.5-3.3-.2-1.7 9.4 5 .7.4-.5.2-2.2.5H7q-2.5.1-5.8-.9H1zm4.7-6.8Q9.7 9.3 14.6 7l8.5-4 .4-.2.7.7Q19.4 5.6 14.6 8q-4.2 2.1-8.3 4.5zm40.3 3h.2v1zm-16.3 6 1.2-.2 3.8-.9q-3.7 2.2-7.3 3.8l-1.6-.9zm-2.1 13.4V36l-.5-.2-1.3-.5z"/><path fill="#9e8447" d="m24.2 3.5 1.2 1.3q-6 1-10.8 3.5-3.7 2-6.7 5.1l-.5-.3L7 13h-.2l-.3-.3h-.3Q10.4 10 14.6 8q4.8-2.4 9.6-4.5"/><path fill="#8f6b32" d="M25.4 4.8 26.6 6l-3 1.1q-4.9 1.8-8.2 3.5l-.8.4q-3.3 1.7-5.2 3.2l-1.5-.8q3-3.1 6.7-5.1 4.8-2.6 10.8-3.6m20.2 9.8v.5l-1.9 1-6.8 3.4-9.7 4.4-.2-.2q3.6-1.5 7.3-3.7l1.2-.4h.1l.6-.3 7.5-3.6 1.1-.6z"/><path fill="#594822" d="M26.6 6q2.6 2.6 5.5 4.5l-5.5-2.4z"/><path fill="#49381d" d="m32.1 10.5 5.5 3.1 1.6 1.1-9.4 4.4-3.8 1.8-2.2 1q-4.3-2-8-4.1l-1.2-.6-.3-.2-.2-.1-.5-.4-1.1-.6.8-.9.2-.3 1.1-.8q3.3-2.4 10.7-5.1l1.3-.7zm-2.3 8.6-.1-.1-.2-.2-.4-.5-.7-1.2-.2-.2H28q-2-3.4-2.8-8.1.8 4.7 2.8 8v.1l.3.3.7 1.1.4.4.2.3zm15.8-1.7v-2.3l.2.9v.1Q45.7 19 45 21l-.3.6-.6 1-.2.3-.2.2-1 .9-.5.4-.4.1v-.6l1.8-2 .1-.1 1.3-2.1.5-1.5zm0-1.3h.2z"/><path fill="#ddc87f" d="m39.2 14.7 1.1-.6 2.2-.3 1 .3q-6.7 3.1-10.7 4.3l-3 .7z"/><path fill="#c6a869" d="m43.5 14.1 2.1.4-.8.5-1.1.6-7.5 3.6-.6.3h-.1l-1.2.4-3.8 1-1.2.1H26l3.8-1.8 3-.7q4-1.2 10.7-4.3"/><path fill="#644920" d="M26.6 6v1q-9.4 4.8-12 5.5-1.8.5 0-1.3l.8-.6q3.4-1.7 8.2-3.5zm14.2 17.4L38.6 25l-.2.1-1.1 1.6q-2.6 1.7-5.4 2.3v-.9zm4.2-3.9-1.3 2.1-.1.1-1.8 2V22zM27.7 30q-.7 1.4-2 3l-.2.3-1.5.4-1.7.4 1.3-.9.4-.2q1.2-.7 1.9-2z"/><path fill="#533d1a" d="M26.6 7v1.1l-1.3.7q-7.4 2.7-10.7 5.1l-1.1.8-.2.3-.8.9-3.1-1.7q1.9-1.5 5.2-3.2l.8-.4-.8.6q-1.8 1.8 0 1.3 2.6-.7 12-5.5"/><path fill="#bda661" d="m26 20.9 3.3.1-4 1.8-1.5-.9z"/><path fill="#695220" d="m45.6 17.4-.4.3-1.5.8-3 1.6-1 .5q-7.5 3.7-11.2 4h-.8l-.1-.1h-.4v-.7l9.7-4.4 6.8-3.4 1.9-1zM31.9 29q2.8-.6 5.4-2.3v.9l-2 .8 1.3 1-.4.6 1 .4 1 1-4.9-2.1-1.4.6zm6.6 2.6v-2.4q1.7-3.4 3.4-2v2.6zM32 34v1.3l-4 2V33q1.9-4.1 3.7 0zm1.4-4.6 2-.9z"/><path fill="#5a481f" d="M27.2 24.5h1.4q3.6-.2 11.1-3.9l1-.5 3-1.6 1.5-.9.4-.2-.1.8-.5.3-.2.2-1.1.8-1.5 1-1.4.8Q38.6 23 36 24.2l-.2.1q-2.9 1.3-5.7 2.2l-3 .6v-2.6"/><path fill="#52381b" d="m27 27 3.1-.6q2.8-.9 5.6-2.2l.3-.1q2.5-1.2 4.9-2.8l1.3-.8 1.5-1 1-.8.3-.2.5-.4-.5 1.4-3.1 2.5q-.2.5-1.1 1.4l-8.9 4.8-4 .7-.2 1.1-1.8 1q.9-1.7 1.2-4"/><path fill="#503f23" d="m37.3 26.7 1.1-1.6.2-.1 2.1-1.6q1-.9 1.1-1.4v5.3q-1.6-1.5-3.3 1.9v2.4l-.3-.2-1-1 .8.3V29l-1-.4v.1h-.1l-.4.6-1.1-.9 2-.8zm-5.4 1.4V34l-.3-.9q-1.8-4.1-3.6 0v4.3l-.1-.1-1.2-1.4.5.2v-1.6l-1-.5-.4.8-1.8-1 1.5-.4.3-.3q1.2-1.6 1.9-3L28 29q-.2 1.8-.1 3.5v.5-4zm6.5-3 .1 4z"/><path fill="#39210f" d="M37 28.8v-.2l1 .4-1.8 1zm-11.2 5.8.4-.7 1 .5-1.8 1z"/><path fill="#715422" d="M38 29v1.7l-.8-.3-1-.4z"/><path fill="#bb8e44" d="m19.9 35.3-.5.4q-.5.3-1.2.4h-1.8l-1.8-.4q-1.6-.5-3.7-1.6h-.1q-5.7-3-8.5-9.9 3.8 4.5 12.3 8.2l1.5.6 4.5 1.8z"/><path fill="none" stroke="#000" stroke-linecap="round" stroke-linejoin="round" stroke-opacity=".5" stroke-width="__RESOLUTION__" d="M23 2.4 27.4.1l10.5 5.7L50 12.3v2.4q-.3 3.6-1.7 5.4-.8 1.1-1.8 1.6l-.1.1-1.1.8-1.6.8-.5.3-.5.2 1-.9.1-.2.3-.3.6-1 .3-.6q.7-2 .8-4.7V16l-.1.1-.1 1.3-.1.8-.5.3-.2.2-1.1.8-1.5 1-1.4.8Q38.6 23 36 24.2l-.2.1q-2.9 1.3-5.7 2.2l-3 .6v-3.2L23 26l-12.7-6.8-.7-.4-9.4-5 .2 1.7.5 3.3v.6l.5 1.6.3 1.3.5 1.3.1.6Q5.2 31 10.9 34h.1q2 1.1 3.7 1.6l1.8.4h1.8q.7-.1 1.2-.4l.5-.4q1-.2 2-1l6 2.9h0l4-2v-5.3l1.4-.6 4.9 2.1.3.3v-2.5l-.1-4-1.1 1.5q-2.6 1.7-5.4 2.3V28l-4 .8v8.4M.2 14l4.4-2.5m.9.5q4.3-2.6 9.2-5l8.5-4m22.7 11.6 4.3-2.3M26.6 6v2.1l5.5 2.4M12.5 16l.8-.9.2-.3 1.1-.8q3.3-2.4 10.7-5.1l1.3-.7m3.2 11L26 20.9l-2.2 1 1.6.9 1.6.8.2.1M25.3 8.9q.8 4.7 2.8 8v.1l.3.3.7 1.1.4.4.2.3.1.1 9.4-4.4m6.5 1.4-.1-1 .2.9zm-22 5.9q-4.3-2-8-4.1l-1.2-.6-.3-.2m24.1 8.1.2-.1 2.1-1.6q1-.9 1.1-1.4V24l1.8-2 .1-.1 1.3-2.1h0l.5-1.5m-8.2 8.6v.9l-2 .8-2 .9m3.7-.6 1 .3v1.7h0l-.8-.3-1-.4zm4.8-5v.6l.5-.1.5-.4m-1 .5v5.4l-3.2 1.8M45.8 15v1m-9.6 14 1.8-1m-6 1v-1m-4-.1-.2 1.1q-.7 1.4-2 3l-.2.3-1.5.4-1.7.4-.1.1-.3.1-1 .6-1 .4.7-.5.4-.4.6-1 .2-.4.7-1.7v-.7q.4-1.3.4-3v-1.5m2.9 8.5.4-.7 1 .5V36l-.5-.2-1.3-.5zm-.4.6 1.8-1M25.9 31q.9-1.7 1.2-4m-4.8 7 1.3-.9.4-.2q1.2-.7 1.9-2M15.4 10.6q3.4-1.7 8.2-3.5l3-1.1m-11.2 4.6-.8.4q-3.3 1.7-5.2 3.2l3.1 1.7 1 .6.6.4m-7.8-4.3-1-.6m1.6.8-.6-.3m3.1 1.7-1.5-.8m13.7 20-20-11" vector-effect="non-scaling-stroke"/><path fill="none" stroke="#000" stroke-linecap="round" stroke-linejoin="round" stroke-opacity=".5" stroke-width="__RESOLUTION__" d="m4.5 11.5.9.5m8.6 5 .2.1m-7.7-4.4.3.2.2.1.3.2.5.3m12.7 21.4h.3" vector-effect="non-scaling-stroke"/><path fill="#c5ac58" d="M32.1 10.5q-3-1.9-5.5-4.5l-3.1-3.2-.4.2-.1-.6L32.1 7l9.6 5.3 4.1 2.4v.3l-.2.1v-.5l-3.1-.7-2.2.3-1.1.6-1.6-1z"/><path fill="none" stroke="#000" stroke-linecap="round" stroke-linejoin="round" stroke-opacity=".5" stroke-width="__RESOLUTION__" d="m32.1 10.5 5.5 3.1 1.6 1.1 1.1-.6 2.2-.3 3.1.7v.5h.2v-.4l-4-2.4L32 7l-9-4.7V3l.5-.2L26.6 6q2.6 2.6 5.5 4.5" vector-effect="non-scaling-stroke"/></g><radialGradient id="b" cx="0" cy="0" r="819.2" gradientTransform="matrix(.01 .01 -.03 0 2.2 2.3)" gradientUnits="userSpaceOnUse" spreadMethod="pad"><stop offset="0" stop-color="#000" stop-opacity=".8"/><stop offset="1" stop-color="#000" stop-opacity="0"/></radialGradient><linearGradient id="a" x1="-819.2" x2="819.2" gradientTransform="matrix(0 .01 -.01 0 12.35 -6.4)" gradientUnits="userSpaceOnUse" spreadMethod="pad"><stop offset="0" stop-color="#818e9a" stop-opacity="1"/><stop offset=".5" stop-color="#566178" stop-opacity="1"/><stop offset="1" stop-color="#818e9a" stop-opacity="1"/></linearGradient><clipPath id="c"><path d="M1 1h67v60H1z"/></clipPath></defs><g clip-path="url(#c)"><g transform="translate(30.65 46.4)"><use xlink:href="#d" width="52.9" height="41.6" transform="translate(-24.6 -27.15)"/><use xlink:href="#e" width="31.4" height="37.6" transform="matrix(1.0565 .2143 -.4564 1.1512 -7.6 -40.8)"/><use xlink:href="#f" width="31.4" height="37.3" transform="matrix(.9263 .5515 -.6234 1.0474 8.05 -45.4)"/><use xlink:href="#g" width="31.4" height="37.6" transform="matrix(.9068 .4876 -.5089 .8551 4 -37.45)"/><use xlink:href="#h" width="31.4" height="37.6" transform="matrix(-.8085 .4126 .7017 .823 -4.2 -34.75)"/><use xlink:href="#i" width="53.6" height="30.4" transform="matrix(.8568 0 0 .847 -24.65 -15.5)"/><use xlink:href="#j" width="25.4" height="18.4" transform="translate(3.7 -19.3)"/></g></g></svg>