<svg xmlns="http://www.w3.org/2000/svg" xmlns:xlink="http://www.w3.org/1999/xlink" width="117" height="263" viewBox="0 0 117 263"><defs><g id="n"><path fill="none" stroke="#363423" stroke-linecap="round" stroke-linejoin="round" stroke-width="__RESOLUTION__" d="M64.8.2v1.2q-.3 1.7-1.8 1.5-1.5-.3-3.9.7t-3.4 1.6q-.6.3-1-.5M56.6 15q.1.2-2.8 1.7-3 1.5-5 .3-1.2-.6-1.7-1.8m17.4 2.9.2.7q.3 1.6-.9 3t-2.7 1-3.5.4h-1.4m-1 3.4q.3.9-1.6 2-2.4 1.1-5.3 1.9-2.6.6-3.5-.4" vector-effect="non-scaling-stroke"/><path fill="#000" fill-opacity=".3" d="m38.2 60.4 36-16.1 4.6 1.2-1.2 1.5 2.7 2.7q-22.6.3-40.1 14.2zm24.9-8 6.1-1.4q2.5-.5-.2 1.2t-4 2.2l-2.7.7-3 .2q-1.6-.2-1.6-.6t.8-.8q.8-.7 4.6-1.5"/><path fill="#000" fill-opacity=".4" d="M46.9 57h-.3L64 48.9q-1.3 2-.7 2.6-2.6.4-4 1.1-2.5.5-5 2.6-.7 1.7.3 2.5-2.2-.8-7.7-.7"/><path fill="#000" fill-opacity=".3" d="M46.9 57q-1.1 1.7 2.7 4.1-5.5-1.9-11.1-1 5.9-1.9 8.4-3.1m18.3-8.5 8.2-4q-3 3 2.1 6.4-5.5-3.5-10.3-2.4"/><path fill="#690" fill-opacity=".3" d="m38 57.4.6.4-.2-1.9 1.4 2.2.9-.4 1.1 2.9-2.1 2.1-1.1-.2-1-2.6-.1 2.2-2.4-.6-.8.7-.1-2.8-1.1 1.5-.9-1.3-1.3.6-1.2-1.2-2.7-.5-.8-1.8-1.8-1.2 1.1-.4.6.2.4-1.7 1.6 2.1.3-.8 1-.8.4 1.4 1.2-1.1.6.7.5-.8 1.3-.7 1.4 3.1 1.3-.2 1.1 1.2zM7.3 42.2l.7.9.4-.9 1.5-.8 1.5 3.5 1.5-.3 1.2 1.3.9-.3.6.4-.2-2.1 1.6 2.5 1-.4 1.2 3.1-2.3 2.4-1.3-.3-1-2.9-.2 2.6-2.6-.7-.9.8-.1-3.2-1.2 1.6-.9-1.3-1.5.6-1.4-1.3-3-.6-.8-2-2-1.2 1.3-.6.6.3.5-1.9L4 43.8l.4-1 1-.8.5 1.5zm63.4 3.3.5-1.8 1.2 1 .4 1 2-2.7.5 2.2.7-.2 1.4.5-2.2 1.4-1 2.2-3.3.6-1.5 1.6-1.7-.7-1 1.4-1.4-1.8-.1 3.5-1-.8-3 .7L61 51l-1.1 3-1.4.4-2.6-2.7 1.4-3.6 1 .6 1.9-2.8-.3 2.3.7-.4 1 .3 1.4-1.5 1.6.3 1.7-3.9 1.7.9.5 1 .7-1z"/><path fill="#690" fill-opacity=".3" d="m42 56.2 1 .3 1.4-1.5 1.7.3 1.6-3.8 1.7.8.6 1 .7-1 1.5 1.6.5-1.8 1.1 1 .5 1 1.9-2.6.5 2.1.8-.2 1.4.5-2.3 1.4-1 2.2-3.3.6-1.5 1.6-1.7-.7-1 1.5-1.4-1.9-.1 3.5-1-.8-2.9.8-.2-2.9-1.1 3.3-1.4.2-2.7-2.6 1.4-3.6 1.1.6 1.8-2.9-.2 2.4zm-11.7-40v1.2l-1 .5-.4-.3v-1l-.3.8-.8-.5-.4.1.3-1-.6.4-.1-.5h-.6l-.2-.5-1-.5V14l-.6-.5.5-.1.1.1.4-.5.3 1 .3-.3.4-.2v.5l.6-.2.1.3.3-.2.5-.1.1 1.3h.6l.3.6h.2l.2.2.1-.7.3 1z"/></g><g id="m"><path fill="#be9761" d="M32.6 24.2 29 25.4l-.2-.4v.1l-5-2.2 4-.6z"/><path fill="#70542e" d="M28.8 25.1V25l.2.4 3.6-1.2v4.7L29 30.2z"/><path fill="#a77d45" d="m23.8 22.9 5 2.2.2 5-5.2-2.2-.2-4.6z"/><path fill="none" stroke="#000" stroke-linecap="round" stroke-linejoin="round" stroke-opacity=".6" stroke-width="__RESOLUTION__" d="m29 30.2 3.6-1.3v-4.7m-3.6 6-5.2-2.3" vector-effect="non-scaling-stroke"/><path fill="#ececd9" d="M57.4 1.8V.3l7.9 3-3.1 1.5zM1.6 3.2l1.9-.7L8 0v1.3l4.4 2 1 .6 3.2 1.5 2.8 1.3 1.5.8 12.6 7.2h9l-8.4 4.2-.3-.1L22.6 14l2.1-2-5.8 1.2z"/><path fill="#c1c097" d="m57.4 1.8 4.8 3 3-1.5.1.2q1.1 4-.2 6.9l-2.8 1.4q.5-3-.1-7l-19.7 9.9-8.4 4.2h-.2q1.3 4.6.9 6.4l9.7-4.7q-.1-2.1-2-6l-9 .1-12.6-7.2 7.4 3.5 4.7 2.3L57 2.2l.4-.2z"/><path fill="#adac76" d="m62.3 11.8-17.8 8.8q-.1-2.1-2-6l19.7-9.8q.6 4 0 7"/><path fill="#fafaf5" d="m34.6 25.5-2.2.1h-3.2L0 10.9l.1-5 1.4-2.6 17.4 10 1.2 5.1 2.4-4.3 11.3 4.8v.2q1.4 4.5 1 6.3z"/><path fill="#d9d9b3" d="M22.6 14 20 18.3l-1.2-5.1 5.9-1.2z"/><path fill="none" stroke="#000" stroke-linecap="round" stroke-linejoin="round" stroke-opacity=".6" stroke-width="__RESOLUTION__" d="M65.4 3.5q1 4-.3 6.9l-2.8 1.4-17.8 8.8-9.7 4.7-.1.2h-.1l-2.2.1m-20-22.2 1 .5m3.2 1.5 2.8 1.3m8.9 4.3 4.7 2.3L57 2.2M34.8 25.3l-.2.2" vector-effect="non-scaling-stroke"/><path fill="#be9761" d="m29.9 78-5-1.8V76l4-.8 4.8 1.4-3.6 1.5-.2-.4z"/><path fill="#a77d45" d="m24.9 76.2 5 1.8.3 5-5.3-1.9-.1-4.5z"/><path fill="#70542e" d="M29.9 78v-.2l.2.4 3.6-1.5.1 4.8-3.6 1.5z"/><path fill="none" stroke="#000" stroke-linecap="round" stroke-linejoin="round" stroke-opacity=".6" stroke-width="__RESOLUTION__" d="m24.9 81.1 5.3 1.9 3.6-1.5-.1-4.8" vector-effect="non-scaling-stroke"/></g><g id="l"><path fill="#644b29" d="m9.1.9.2.5L9 5.9 3.9 7.7l.2-5z"/><path fill="#725a3a" d="m9.1.9-5 1.8v-.2l-.2.5L.3 1.5 5.1 0z"/><path fill="#43321b" d="m4.1 2.7-.2 5L.1 6.3l.1-4.7L3.9 3l.2-.5z"/><path fill="none" stroke="#000" stroke-linecap="round" stroke-linejoin="round" stroke-opacity=".6" stroke-width="__RESOLUTION__" d="m3.9 7.8 5.2-2M.3 1.5.2 6.2l3.7 1.5" vector-effect="non-scaling-stroke"/></g><g id="k"><path fill="#402f19" d="M7.3 3.6 15.9 8v24.4l-1.7.2q.5-6.3-.9-13.6T7.2 6.2z"/><path fill="#584224" d="m14.3 32.7-1.5-.7q.3-6-1-12.8-1.4-7-5.7-13.5L6 5.5 7 6l.1.2q4.7 5.7 6.1 13t1 13.5"/><path fill="#634a28" d="m12.8 32-2.5-1.1q.2-5.6-1-12-1-5.1-4-11.1l.4.4.5.5.3.2.5.3v-.3L6.5 8l-.7-.6-.1-.2-.4-.2h-.2q-.1 0 0 0L3.6 4.5l-.1-.3h.1L6 5.6l.1.2q4.4 6.5 5.7 13.5 1.3 6.8 1 12.8m-1.1-5.4-.5-.3q-.3 0-.6.3l-.2 1 .1.8.1.3q.3.4.6.4l.6-.4.2-.9-.2-1z"/><path fill="#6c512c" d="m10.4 30.9-2.7-1.3q2.4-10.1-2.4-19.4v-.1l-1.1-2L4 8l-.4-.7-.4-.7L0 2.5l3.5 1.7.1.3L5 7l.1.2.2.3v.2q3 6 4 11.1 1.2 6.4 1 12"/><path fill="#816a4b" d="M0 2.5V0l3.7 1.9-.1 2.4-.1-.1z"/><path fill="#7a603c" d="m3.7 1.9 2 1 .4 2.7-.1-.1-2.4-1.2z"/><path fill="#7d6443" d="m5.8 2.9 1.5.7L7.2 6H7l-.9-.5z"/><path fill="#372a16" d="M5 7.1h.2l.4.2.1.2.7.6.5.8v.4L6.4 9l-.2-.2h-.1l-.5-.5-.4-.4v-.2L5 7.3zm5.4 21.3-.1-.8.2-1q.3-.4.6-.3l.5.3v.1l.3 1.1-.2 1-.6.3q-.3 0-.6-.5z"/><path fill="none" stroke="#000" stroke-linecap="round" stroke-linejoin="round" stroke-opacity=".6" stroke-width="__RESOLUTION__" d="M15.9 8v24.5l-1.7.2-1.4-.7-2.5-1.1-2.6-1.3M5.9 7.4l.7.6.5.8v.4l-.5-.3-.2-.2m5.4 18 .3 1.1-.2 1-.6.3q-.3 0-.6-.5l-.1-.2" vector-effect="non-scaling-stroke"/><path fill="#5f5e54" d="M10.4 26.8v-.2l.4-.5h.3l.3.2.3.3.4.6v.9l-.3-.1-.7-.4v.1l.7.3-.7-.4h-.9zm.6-.2.2 1z"/><path fill="#393931" d="m12.1 28.2-.2.7-.5.4h-.1q-.4 0-.7-.6-.3-.4-.4-1h.9l.7.3zm-.7 1.2-.2-1.6z"/><path fill="none" stroke="#2a2a23" stroke-linecap="round" stroke-linejoin="round" stroke-width="__RESOLUTION__" d="m12 27.4.2.4-.1.3-.2.8-.5.4h-.1q-.4 0-.7-.6-.3-.4-.4-1l.1-.9h0m.8 1v-.2h-.9m.9 0-.2-1m.2 1 .7.4m-.7-.2.3 1.5" vector-effect="non-scaling-stroke"/><path fill="#5f5e54" d="M5 7.2V7q0-.2.3-.2h.1l.4.2.5.3.5.5V8l.2.3.2.3-.4-.2-.7-.4-.6-.8.5.8-.8-.2zM6 8l.8.4z"/><path fill="#393931" d="M7.2 8.6v.5q0 .3-.4.2l-.9-.6-.7-.9.8.2.8.4zm-.4.7-.7-1.2z"/><path fill="none" stroke="#2a2a23" stroke-linecap="round" stroke-linejoin="round" stroke-width="__RESOLUTION__" d="m6.9 8 .1.3.2.3v.5q0 .3-.4.2h0l-.9-.6-.7-.9-.2-.6m.2.6L6 8h0l-.5-.8M6 8l.8.4m-.7-.3.8 1.2" vector-effect="non-scaling-stroke"/></g><g id="j"><path fill="#3c2c18" d="M7.3 3.6 15.9 8v24.4l-1.7.2q.5-6.3-.9-13.6T7.2 6.2z"/><path fill="#523d21" d="m14.3 32.7-1.5-.7q.3-6-1-12.8-1.4-7-5.7-13.5L6 5.5 7 6l.1.2q4.7 5.7 6.1 13t1 13.5"/><path fill="#5c4525" d="m12.8 32-2.5-1.1q.2-5.6-1-12-1-5.1-4-11.1l.4.4.5.5.3.2.5.3v-.3L6.5 8l-.7-.6-.1-.2-.4-.2h-.2q-.1 0 0 0L3.6 4.5l-.1-.3h.1L6 5.6l.1.2q4.4 6.5 5.7 13.5 1.3 6.8 1 12.8m-1.1-5.4-.5-.3q-.3 0-.6.3l-.2 1 .1.8.1.3q.3.4.6.4l.6-.4.2-.9-.2-1z"/><path fill="#644b29" d="m10.4 30.9-2.7-1.3q2.4-10.1-2.4-19.4v-.1l-1.1-2L4 8l-.4-.7-.4-.7L0 2.5l3.5 1.7.1.3L5 7l.1.2.2.3v.2q3 6 4 11.1 1.2 6.4 1 12"/><path fill="#776245" d="M0 2.5V0l3.7 1.9-.1 2.4-.1-.1z"/><path fill="#715938" d="m3.7 1.9 2 1 .4 2.7-.1-.1-2.4-1.2z"/><path fill="#745d3e" d="m5.8 2.9 1.5.7L7.2 6H7l-.9-.5z"/><path fill="#332715" d="M5 7.1h.2l.4.2.1.2.7.6.5.8v.4L6.4 9l-.2-.2h-.1l-.5-.5-.4-.4v-.2L5 7.3zm5.4 21.3-.1-.8.2-1q.3-.4.6-.3l.5.3v.1l.3 1.1-.2 1-.6.3q-.3 0-.6-.5z"/><path fill="none" stroke="#000" stroke-linecap="round" stroke-linejoin="round" stroke-opacity=".6" stroke-width="__RESOLUTION__" d="M15.9 8v24.5l-1.7.2-1.4-.7-2.5-1.1-2.6-1.3M5.9 7.4l.7.6.5.8v.4l-.5-.3-.2-.2m5.4 18 .3 1.1-.2 1-.6.3q-.3 0-.6-.5l-.1-.2" vector-effect="non-scaling-stroke"/><path fill="#58574e" d="M10.4 26.8v-.2l.4-.5h.3l.3.2.3.3.4.6v.9l-.3-.1-.7-.4v.1l.7.3-.7-.4h-.9zm.6-.2.2 1z"/><path fill="#35342e" d="m12.1 28.2-.2.7-.5.4h-.1q-.4 0-.7-.6-.3-.4-.4-1h.9l.7.3zm-.7 1.2-.2-1.6z"/><path fill="none" stroke="#272721" stroke-linecap="round" stroke-linejoin="round" stroke-width="__RESOLUTION__" d="m12 27.4.2.4-.1.3-.2.8-.5.4h-.1q-.4 0-.7-.6-.3-.4-.4-1l.1-.9h0m.8 1v-.2h-.9m.9 0-.2-1m.2 1 .7.4m-.7-.2.3 1.5" vector-effect="non-scaling-stroke"/><path fill="#58574e" d="M5 7.2V7q0-.2.3-.2h.1l.4.2.5.3.5.5V8l.2.3.2.3-.4-.2-.7-.4-.6-.8.5.8-.8-.2zM6 8l.8.4z"/><path fill="#35342e" d="M7.2 8.6v.5q0 .3-.4.2l-.9-.6-.7-.9.8.2.8.4zm-.4.7-.7-1.2z"/><path fill="none" stroke="#272721" stroke-linecap="round" stroke-linejoin="round" stroke-width="__RESOLUTION__" d="m6.9 8 .1.3.2.3v.5q0 .3-.4.2h0l-.9-.6-.7-.9-.2-.6m.2.6L6 8h0l-.5-.8M6 8l.8.4m-.7-.3.8 1.2" vector-effect="non-scaling-stroke"/></g><g id="i"><path fill="#b78b51" d="M7 9.2v-.4L6.4 8l-.8-.8q-.3-.3-.5-.2t0 .3l.6.8.7.8zM12.8 32 9 30.2l-.1-.1q.2-4.7-.5-9.9L8 17.8l.9-.2.2-.7-1.3-.2Q6.2 10.3 1.5 4.3L.1 2.4l5.8 3 .2.2q4.4 6.2 5.7 13 1.4 7.1 1 13.4M5.3 2.7l2 .9L7.2 6h-.1L6 5.5zm5.9 23.7q-.3 0-.6.3l-.2 1 .2 1 .6.5.6-.4.2-.9-.2-1q-.2-.5-.6-.5"/><path fill="#564123" d="m7 9.2-.6-.3-.7-.8-.6-.8q-.2-.3 0-.3.2-.1.5.2l.8.8.6.8z"/><path fill="#644a28" d="M7.3 3.6 15.9 8v24.5l-1.7.2q.5-6.3-.9-13.6T7.2 6.2zM8 17.8l1.1-.8-.2.7z"/><path fill="#9e7741" d="m14.3 32.7-1.6-.7q.5-6.2-.9-13.4-1.3-6.8-5.7-13l-.2-.1H6L7 6l.2.2q4.7 5.7 6.1 13t1 13.5"/><path fill="#a77d45" d="m8.9 30.1-1.2-.5q1.2-4.8.7-9.4.7 5.2.5 9.9"/><path fill="#caa97d" d="M0 2.4V0l5.3 2.6.7 2.9h-.1z"/><path fill="none" stroke="#000" stroke-linecap="round" stroke-linejoin="round" stroke-opacity=".6" stroke-width="__RESOLUTION__" d="m7 9.2-.6-.3-.7-.8-.6-.8q-.2-.3 0-.3.2-.1.5.2l.8.8.6.8zM15.9 8v24.5l-1.7.2-1.4-.7L9 30.2m-.1-.1-1.2-.5" vector-effect="non-scaling-stroke"/><path fill="#939182" d="M10.4 26.8v-.2q.2-.4.5-.4h.2l.3.1.3.3.4.7v.9l-.3-.2-.7-.2v-.1h-.9zm.6-.2.2 1.1.7.3-.7-.3z"/><path fill="#59584d" d="m12.1 28.2-.2.7-.5.4h-.1q-.4 0-.7-.5t-.4-1.1h.9v.1l.3 1.5-.3-1.5.7.2z"/><path fill="none" stroke="#424137" stroke-linecap="round" stroke-linejoin="round" stroke-width="__RESOLUTION__" d="m12 27.4.1.4v.4l-.2.7-.5.4h-.1q-.4 0-.7-.5t-.4-1.1l.1-.9h0m.8 1 .3 1.5m-.3-1.5h-.9m1.6.3-.7-.3-.2-1" vector-effect="non-scaling-stroke"/><path fill="#59584d" d="m7.1 8.6.2.5q-.2.3-.4.2h-.2L6 8.8l-.8-1L6 8v.1l.8.4zm-.2.7L6 8.1z"/><path fill="#939182" d="M5.1 7.8 5 7.2V7q0-.2.3-.2h.1l.4.2.5.3.5.6V8l.2.3.1.3-.3-.1-.7-.4-.6-.9.6.8H6l.8.5-.7-.5v.1H6z"/><path fill="none" stroke="#424137" stroke-linecap="round" stroke-linejoin="round" stroke-width="__RESOLUTION__" d="m7.1 8.6.2.5q-.2.3-.4.2h-.2L6 8.8l-.8-1-.2-.6M7 8l.1.3.1.3m-1-.5L7 9.3M6 8l-.5-.8m.6.9.7.4m-1.7-.7L6 8" vector-effect="non-scaling-stroke"/></g><g id="h"><path fill="#735c3d" d="M7.3 3.6 15.9 8v24.4l-1.7.2q.5-6.3-.9-13.6T7.2 6.2z"/><path fill="#95764c" d="m14.3 32.7-1.5-.7q.3-6-1-12.8-1.4-7-5.7-13.5L6 5.5 7 6l.1.2q4.7 5.7 6.1 13t1 13.5"/><path fill="#a48152" d="m12.8 32-2.5-1.1q.2-5.6-1-12-1-5.1-4-11.1l.4.4.5.5.3.2.5.3v-.3L6.5 8l-.7-.6-.1-.2-.4-.2h-.2q-.1 0 0 0L3.6 4.5l-.1-.3h.1L6 5.6l.1.2q4.4 6.5 5.7 13.5 1.3 6.8 1 12.8m-1.1-5.4-.5-.3q-.3 0-.6.3l-.2 1 .1.8.1.3q.3.4.6.4l.6-.4.2-.9-.2-1z"/><path fill="#b08a57" d="m10.4 30.9-2.7-1.3q2.4-10.1-2.4-19.4v-.1l-1.1-2L4 8l-.4-.7-.4-.7L0 2.5l3.5 1.7.1.3L5 7l.1.2.2.3v.2q3 6 4 11.1 1.2 6.4 1 12"/><path fill="#ccad82" d="M0 2.5V0l3.7 1.9-.1 2.4-.1-.1z"/><path fill="#c39f6e" d="m3.7 1.9 2 1 .4 2.7-.1-.1-2.4-1.2z"/><path fill="#c7a577" d="m5.8 2.9 1.5.7L7.2 6H7l-.9-.5z"/><path fill="#675439" d="M5 7.1h.2l.4.2.1.2.7.6.5.8v.4L6.4 9l-.2-.2h-.1l-.5-.5-.4-.4v-.2L5 7.3zm5.4 21.3-.1-.8.2-1q.3-.4.6-.3l.5.3v.1l.3 1.1-.2 1-.6.3q-.3 0-.6-.5z"/><path fill="none" stroke="#1a1a1a" stroke-linecap="round" stroke-linejoin="round" stroke-opacity=".6" stroke-width="__RESOLUTION__" d="M15.9 8v24.5l-1.7.2-1.4-.7-2.5-1.1-2.6-1.3M5.9 7.4l.7.6.5.8v.4l-.5-.3-.2-.2m5.4 18 .3 1.1-.2 1-.6.3q-.3 0-.6-.5l-.1-.2" vector-effect="non-scaling-stroke"/><path fill="#9e9c8e" d="M10.4 26.8v-.2l.4-.5h.3l.3.2.3.3.4.6v.9l-.3-.1-.7-.4v.1l.7.3-.7-.4h-.9zm.6-.2.2 1z"/><path fill="#69695f" d="m12.1 28.2-.2.7-.5.4h-.1q-.4 0-.7-.6-.3-.4-.4-1h.9l.7.3zm-.7 1.2-.2-1.6z"/><path fill="none" stroke="#55544b" stroke-linecap="round" stroke-linejoin="round" stroke-width="__RESOLUTION__" d="m12 27.4.2.4-.1.3-.2.8-.5.4h-.1q-.4 0-.7-.6-.3-.4-.4-1l.1-.9h0m.8 1v-.2h-.9m.9 0-.2-1m.2 1 .7.4m-.7-.2.3 1.5" vector-effect="non-scaling-stroke"/><path fill="#9e9c8e" d="M5 7.2V7q0-.2.3-.2h.1l.4.2.5.3.5.5V8l.2.3.2.3-.4-.2-.7-.4-.6-.8.5.8-.8-.2zM6 8l.8.4z"/><path fill="#69695f" d="M7.2 8.6v.5q0 .3-.4.2l-.9-.6-.7-.9.8.2.8.4zm-.4.7-.7-1.2z"/><path fill="none" stroke="#55544b" stroke-linecap="round" stroke-linejoin="round" stroke-width="__RESOLUTION__" d="m6.9 8 .1.3.2.3v.5q0 .3-.4.2h0l-.9-.6-.7-.9-.2-.6m.2.6L6 8h0l-.5-.8M6 8l.8.4m-.7-.3.8 1.2" vector-effect="non-scaling-stroke"/></g><g id="g"><path fill="#48512d" d="m7.3 92.7-3.4 1.7L3 57.9l3.5-1.6z"/><path fill="none" stroke="#000" stroke-linecap="round" stroke-linejoin="round" stroke-opacity=".6" stroke-width="__RESOLUTION__" d="m7.3 92.7-3.4 1.7L3 57.9l3.5-1.6z" vector-effect="non-scaling-stroke"/><path fill="#805e2b" d="m3.8.2.3 53.6L.8 55 .2 1.4z"/><path fill="none" stroke="#000" stroke-linecap="round" stroke-linejoin="round" stroke-opacity=".6" stroke-width="__RESOLUTION__" d="m3.8.2.3 53.6L.8 55 .2 1.4z" vector-effect="non-scaling-stroke"/></g><g id="f"><path fill="#40311a" d="M59.1 67.9 59 75 36.7 85.8v-7.4l21.7-10.2zl-.7.3-21.7 10.2-.1.2-1.6-.8.5-.2.2-15.7L58.2 51l.2 16.7h-1.5l-21.3 9.8 21.3-9.8h2.2m-.7.4v-.4z"/><path fill="none" stroke="#000" stroke-linecap="round" stroke-linejoin="round" stroke-opacity=".6" stroke-width="__RESOLUTION__" d="M36.7 78.4v7.4L59 75.1l.1-7.2-.7.3zm21.6-10.6-.1-16.7-22.6 10.8-.2 15.7L57 67.8zh.7M36.6 78.7l-1.6-.8.5-.2m22.9-9.8v.4" vector-effect="non-scaling-stroke"/><path fill="#805e2b" d="M29.3 89.1 28.9 63l3.1.1.6 30.5z"/><path fill="#c19146" d="m29.3 89.1 3.3 4.5.4 22.6-3.4-1.3z"/><path fill="none" stroke="#000" stroke-linecap="round" stroke-linejoin="round" stroke-opacity=".6" stroke-width="__RESOLUTION__" d="m32 63.1-3-.2.3 26.2.3 25.8 3.4 1.3" vector-effect="non-scaling-stroke"/><path fill="#614721" d="m31.9 63.1 3.9-1.1.3 53.6-3.4 1.2z"/><path fill="none" stroke="#000" stroke-linecap="round" stroke-linejoin="round" stroke-opacity=".6" stroke-width="__RESOLUTION__" d="m31.9 63.1 3.9-1.1.3 53.6-3.4 1.2" vector-effect="non-scaling-stroke"/><path fill="#be9761" d="m5.8 105.6-5-1.8 4-.9 4.8 1.5-3.6 1.5-.2-.5z"/><path fill="#a77d45" d="m.8 103.8 5 1.8.2 5-5.2-1.8-.2-4.5z"/><path fill="#70542e" d="m5.8 105.6.2.4 3.6-1.5v4.7L6 110.7z"/><path fill="none" stroke="#000" stroke-linecap="round" stroke-linejoin="round" stroke-opacity=".6" stroke-width="__RESOLUTION__" d="m.8 108.8 5.2 1.9 3.7-1.6-.1-4.7" vector-effect="non-scaling-stroke"/><path fill="#b0af7d" d="m53.5 9.4 6 2.8-2.9 2.6.3 24.6-1.9.9q2.4-13.4-1.5-31M30.1 48.5l-2-.2-2-.9q-.7-.4-.7-1t.8-.9l1.8-.2q1.2.1 2.3 1.1 1.2 1.1 1 1.6-.4.5-1.2.5"/><path fill="#4b4d2b" d="M53.5 9.4q3.9 17.5 1.5 30.9L33 50.9V39.8l-.2-.2-1.9-.7L1.7 26.2h-.1L34.3.2z"/><path fill="#c1c097" d="M33 51 7.6 39l-.2-4.2 1.3 2L33 46zm-10-7.7-1.6-.3q-.7-.2-.6.6.2.9.8 1.4l1.4.6 1.2.1.8-.7q.5-.7-.3-1.3t-1.7-.5m7.1 5.3q.8 0 1.1-.5t-.9-1.5q-1.1-1.1-2.3-1.2l-1.9.2q-.7.4-.7 1t.8.9l1.9.9z"/><path fill="#737244" d="M7.5 34.8 7.3 32l1.2.5 1 .4.8.4L31 42.5l.3-.1 1.7-1V46L8.9 36.7z"/><path fill="#6c8990" d="m7.3 32-1.2-.6 2.4 1.1z"/><path fill="#4f6368" d="m6 31.4-1.2-.6-.9-.4-3.4-1.5v-.3L0 26.8l30.6 13.9.2-.1.4 1.8-.3.1-20.7-9.2-.7-.4-1.1-.4z"/><path fill="#b5c4c8" d="M0 26.8v-.2l1.6-.4L31 38.8l1.9.8h.2l-.4.3-1.6.7H31l-.2.1z"/><path fill="#3f5054" d="M33 39.7v1.6l-1.7 1-.4-1.7h.1l1.6-.7z"/><path fill="#b6b585" d="M23 43.2q.8-.2 1.7.4.8.5.3 1.3l-.8.8-1.2-.2-1.4-.6q-.6-.5-.8-1.4-.1-.8.6-.6z"/><path fill="none" stroke="#000" stroke-linecap="round" stroke-linejoin="round" stroke-opacity=".6" stroke-width="__RESOLUTION__" d="m55 40.3 1.9-1-.3-24.5 2.8-2.7-5.9-2.7L34.2.2l-32.6 26L31 38.8m24.2 1.5L32.8 50.9M6.1 31.4l-1.3-.6-.9-.4-3.4-1.5v-.3m32.3 11h.2v1.8l-1.7 1-.3.1-20.7-9.2-.7-.4-1.1-.4L6 31.4m26.5 8.5.4-.2" vector-effect="non-scaling-stroke"/><path fill="#4d3920" d="M49.1 31.1v-3q4.3 5.5 3.8 10l-1.2-1q-.4-1.9-2.6-6m-4.5-2.7.4-.4 1.1.8.8 12.4-1.9-1z"/><path fill="#40311a" d="M52.9 38.2q.5-4.6-3.9-10.2l.1 3.1.4 7.1.1 1.6 3.2-1.4zm-8-11.5 4.4-.3q6.3 7.5 5 13L40 45.9q-.3-7.5 1.8-15.1zm-.1 1.7q-.6.6-1.2 2.3.2 3.6-1.6 7.1l-.2 4.6-.2 1.9 5.4-3v-.1l-.8-12.4-1-.8z"/><path fill="#356168" d="M49.1 31.1q2.3 4.1 2.5 6v.3l-2 .8zm-7.5 11.3.3-4.6q1.8-3.5 1.6-7.1.6-1.7 1.1-2.3l.4 11.8v.3z"/><path fill="#70542e" d="m51.7 37.1 1.1 1v.3l-3.1 1.4-.2-1.6 2.1-.8zM47 41.2v.1l-5.4 3 .1-2 3.4-1.7v-.4z"/></g><g id="e"><path fill="#533e22" d="m3 1.3 20.5 10v2.9q-7-6-20.3-9.4zm20.6 14v1.8L3.3 7.4v-.9q15.7 4.8 20.3 8.9M1.4.7V.5h.1z"/><path fill="#5e4a2e" d="M23.6 14.2v1.2Q19 11.3 3.3 6.5l-.1-1.7q13.4 3.5 20.4 9.4M17 23.7q-.5-.2-.7.1l-1 .3q-.8.1-2.8-1.1t-1.2-1.2h2q1.2 0 3 1.4z"/><path fill="#49361e" d="M23.6 17.1v1.1q-3 .4-20.2-5.8l-.1-5zm0 3.1.1 3.1-20.2-9.7.1-.2q14.6 6.3 20 6.9"/><path fill="#4f3b20" d="M23.7 18.2v2q-5.6-.5-20.1-6.8l-.1.2v-1.2q17.1 6.2 20.2 5.8m.1 9v.7q-9.7-2.2-20-8.8l-.1-1.5q13.1 2.5 20.1 9.5m-6.7-3.5-.7-.4q-1.8-1.3-3-1.4h-2q-.8 0 1.2 1.2 2 1.3 2.8 1.1l1-.3q.3-.3.8-.2 1.1.8 1 .6t-.7-.4z"/><path fill="#42321b" d="m23.7 23.3.1 3.8q-7-7-20.1-9.5l-.2-4zm.1 4.6v2.8l-20-10.1V19q10.3 6.6 20 8.9M1.5.5l1.5.8.1 3.5.1 1.7v1l-1.6-.8-.2-6zm15.7 23.2h.3q.5.2.7.5t-1-.6"/><path fill="#48361e" d="M23.9 30.7v1.2q-8.5 1.8-20-9.3l-.1-2z"/><path fill="#3f2f1a" d="M23.9 31.9v3.7L4.1 26.4l-.2-3.8q11.5 11 20 9.3"/><path fill="#342716" d="M23.9 35.6v.9Q14 33.3 4.1 28v-1.6zm0 3.2v1.9l-19.6-8v-1q10.1 2.7 19.6 7.1"/><path fill="#3b2c18" d="M23.9 36.5v2.3q-9.4-4.4-19.6-7.1L4 28q9.9 5.3 19.8 8.5M1.6 6.7l1.7.8.2 4.9v1.2l.2 4V19l.1 1.6.1 2 .1 3.8-2-1z"/><path fill="#352816" d="m4.3 32.8-2.2-1-.2-6.4 2.1 1 .1 1.6.2 3.6z"/><path fill="#2a1f11" d="m2 31.9-1.4-.3L0 0l1.4.7.2 6 .3 18.7z"/></g><g id="d"><path fill="#554022" d="M26.2 30.4v7.3L3.9 26.9l-.1-7.2 22.4 10.5z"/><path fill="#40311a" d="m3.8 19.7 2.2-.1L5 4.1l22.7 10.5v15h.2l-.2.2-1.4.6-.1-.2zm2.2-.1 21.7 10v.2-.2z"/><path fill="none" stroke="#000" stroke-linecap="round" stroke-linejoin="round" stroke-opacity=".6" stroke-width="__RESOLUTION__" d="M26.2 30.4v7.3L3.9 26.9l-.1-7.2 2.2-.1h0L5 4.1l22.7 10.5v15h.2l-.2.2zv-.2L3.8 19.7m23.9 10v-.1L6 19.6" vector-effect="non-scaling-stroke"/><path fill="#cda569" d="M1 53.6 0 0l3.6 2.1.7 52.8z"/><path fill="none" stroke="#000" stroke-linecap="round" stroke-linejoin="round" stroke-opacity=".6" stroke-width="__RESOLUTION__" d="m1 53.6 3.4 1.3-.8-52.7" vector-effect="non-scaling-stroke"/></g><g id="c"><path fill="#a77d45" d="m3 1.3 20.5 10v2.9q-7-6-20.3-9.4zm20.6 14v1.8L3.3 7.4v-.9q15.7 4.8 20.3 8.9M1.4.7V.5h.1z"/><path fill="#bc945c" d="M23.6 14.2v1.2Q19 11.3 3.3 6.5l-.1-1.7q13.4 3.5 20.4 9.4M17 23.7q-.5-.2-.7.1l-1 .3q-.8.1-2.8-1.1t-1.2-1.2h2q1.2 0 3 1.4z"/><path fill="#926d3d" d="M23.6 17.1v1.1q-3 .4-20.2-5.8l-.1-5zm0 3.1.1 3.1-20.2-9.7.1-.2q14.6 6.3 20 6.9"/><path fill="#9e7741" d="M23.7 18.2v2q-5.6-.5-20.1-6.8l-.1.2v-1.2q17.1 6.2 20.2 5.8m.1 9v.7q-9.7-2.2-20-8.8l-.1-1.5q13.1 2.5 20.1 9.5m-6.7-3.5-.7-.4q-1.8-1.3-3-1.4h-2q-.8 0 1.2 1.2 2 1.3 2.8 1.1l1-.3q.3-.3.8-.2 1.1.8 1 .6t-.7-.4z"/><path fill="#856436" d="m23.7 23.3.1 3.8q-7-7-20.1-9.5l-.2-4zm.1 4.6v2.8l-20-10.1V19q10.3 6.6 20 8.9M1.5.5l1.5.8.1 3.5.1 1.7v1l-1.6-.8-.2-6zm15.7 23.2h.3q.5.2.7.5t-1-.6"/><path fill="#916c3c" d="M23.9 30.7v1.2q-8.5 1.8-20-9.3l-.1-2z"/><path fill="#7e5f34" d="M23.9 31.9v3.7L4.1 26.4l-.2-3.8q11.5 11 20 9.3"/><path fill="#694f2c" d="M23.9 35.6v.9Q14 33.3 4.1 28v-1.6zm0 3.2v1.9l-19.6-8v-1q10.1 2.7 19.6 7.1"/><path fill="#775931" d="M23.9 36.5v2.3q-9.4-4.4-19.6-7.1L4 28q9.9 5.3 19.8 8.5M1.6 6.7l1.7.8.2 4.9v1.2l.2 4V19l.1 1.6.1 2 .1 3.8-2-1z"/><path fill="#6b512c" d="m4.3 32.8-2.2-1-.2-6.4 2.1 1 .1 1.6.2 3.6z"/><path fill="#543f23" d="m2 31.9-1.4-.3L0 0l1.4.7.2 6 .3 18.7z"/></g><g id="b"><path fill="#000" fill-opacity=".3" d="M22.6 70.8q0 .4-1.6.5l-3-.1-2.7-.8q-1.2-.5-4-2.1t-.2-1.2l6.1 1.3q3.8.9 4.6 1.5zM42 76.4l-2 3.5Q22.6 66 0 65.7L2.7 63l-1.2-1.5L6 60.3z"/><path fill="#000" fill-opacity=".4" d="M33.4 73q-5.6-.1-7.7.8 1-.9.3-2.5-2.5-2.1-5-2.6-1.4-.8-4-1.2.6-.6-.8-2.6L33.7 73z"/><path fill="#000" fill-opacity=".3" d="M33.4 73q2.5 1.3 8.4 3.2-5.6-.9-11.1 1 3.8-2.5 2.7-4.2M6.9 60.6l8.2 4q-4.8-1.2-10.3 2.3 5.1-3.4 2.1-6.3"/><path fill="#3e3c2f" d="M39.3 13.6 68.6 0 71 1l-.1.1-28 13.6-3.4 1.6-3.4-1.2 2.4-.8z"/><path fill="#d1cfc2" d="m39.3 13.6-.7.7-2.4.8h-.1v.1H36L21.9 9.7 13.2 6l-.1-.6-.7.3.8.3-.1-.6 3.3-1.2zM13.2 7.4l.3 7-.2-3zm.3 7-.2-7 4 2.5q1.6 18.8-3.2 9.9z"/><path fill="#4a4e34" d="m36.3 15.1 3.3 1.2v5.6l-3.5-2.7-.1-4z"/><path fill="#363d21" d="m39.6 16.3 3.4-1.6.2 8.1-3.5-.9zM11.8 5.7h.6l.8.3v1.4l.1 4-1.4-.8z"/><path fill="#565341" d="M43 14.7 71 1.1l.9 35.9v.8L43.6 50.3l-.4-27.4zM21.4 64.3l-4.8 2.1.3-8.8.4-10.9v-1l-.1-.1q.2-.9 1.4-1.3v-5q1.8-1 3.6-.6l3.4 4.7-3.2.9.2 4.9 4-1 .7 3.8-1.5.4.1 3.5h-.1l-2.3.5v.5l.1 3.4h-.3l-1.6.6-.2.1zm36.1-43q1-.6 3.4-1.6t3.9-.8q1.4.3 1.7-1.5.3-1.7-.8-2.3l-4.4-1.7q-3.2-1.1-4.3 1.7t-.8 4.7q.4 2 1.3 1.4M55.4 25q-1-.7-3.9-.7-3 0-3 1.4v3.9q0 2.3 2 3.5 2.1 1.1 5-.4 3-1.5 2.8-1.7l-1.1-2.7q-1-2.5-1.9-3.3M63 38.8q1.6.4 2.7-1t.9-3-1.5-1l-2.7.4-3.2.1q-1.7.5-1.6 3.1t1.9 1.9q1.9-.8 3.5-.5M22.5 50.6l-.2.1-2.4.5.1 3.9 3.3-1 .1-2zM54 42l-3.3.9-1.9.1q-.5-.2-1.9.6-1.4 1-.6 2.3.8 1.5 3.8.7 2.9-.7 5.2-1.9t1.5-2.2T54 42"/><path fill="#807b60" d="m71.9 37 3.4 1.8L57.2 47 50 50.2l-10.1 4.5h-.1l-6.9-2.3-1.6-.5v-.6l1.6-.6 3.8.9v.7l3.3.9V53l3.6-1.8v-1l28.3-12.4z"/><path fill="#706954" d="m75.3 38.8.7 21.5-11 5.4q-2.6-4.6-8.6-7.3l-.9-4 1.7-7.5zM55.3 25q.9.8 1.9 3.3l1.1 2.7q.2.3-2.7 1.8t-5 .3-2.1-3.5v-3.9q0-1.4 3-1.4t3.9.7m7.5 13.8q-1.6-.3-3.5.5-2 .7-2-1.9t1.7-3.1l3.2-.1 2.8-.4q1.1-.5 1.4 1 .2 1.6-.9 3t-2.7 1m2.8 10 2.2 2.5 6.5.5v-4.7l-1.9-2.7-5.3 1z"/><path fill="#615b49" d="m65 65.7-9.8 4.8q-1.2-4.2-3.5-7.7l4.7-4.4q6 2.7 8.6 7.3m-7.5-44.4q-1 .4-1.3-1.5t.8-4.7 4.4-1.7l4.3 1.7q1 .6.8 2.3-.3 1.8-1.7 1.5-1.5-.2-4 .8-2.3 1-3.3 1.6M50 50.2l7.2-3.3-1.7 7.5-2 .9zm-18.6-3.3v2.4l-3-1.3zm-2.8 4.8 1.7.7v2.7l-.4-.2-4-2.5 1.4-.4zm1.5 6.5-.1 2.5-1.7-.5q-1.7-.8-3.3-2l-1.5-1.3v-.5l2.3-.5.1.1q1.9 1.5 3.4 2zm-.3 5.7v.9l-1.7.4-.8-.4-1.7-.9-3.9-3 1.6-.6.3.1q3 2.3 5.8 3.4zm24.2-22q1.9-.5 2.8.5t-1.5 2.2q-2.3 1.1-5.2 2-3 .6-3.8-.8t.6-2.3q1.4-.8 1.9-.6l1.9-.1z"/><path fill="#958d73" d="m55.2 70.5-8 4-7.3 2.2v-5.3l-.1-10 5.2-1.7 5.5 1.2 1.3 1.9q2.2 3.5 3.4 7.7m19.2-23.4v4.7l-6.5-.5-2.2-2.5 1.5-3.5 5.3-.9z"/><path fill="#f3f2ed" d="m39.9 76.7-7.4-2.3h-.1l.4-3.1q4 .7 7.1 3.1zm-7-24.3 6.9 2.3v6.6l-3.1-1q-4.6-1.4-3.8-7.9"/><path fill="#dbd8b7" d="m32.4 74.4-3-1.2.1-1.9.3-5.5v-1.9l.2-3.1.1-2.6.1-3.1.1-2.7.1-.8.9.3 1.6.5q-.7 6.5 3.8 7.9l-5.8.8q.5 1.6.6 3.3 0 2-.4 4.3 4.2 2.2 8.8 2.7v3q-3.1-2.4-7.1-3.1z"/><path fill="#d0cec4" d="M29.5 71.3q-2 3-9.1-2-1.7-1.6-1.4-2.8l8.2.8.9-2.1h.2l.3.2.3.1.6.3h.3z"/><path fill="#989178" d="M19 66.5q.1-.7 1.3-1.2l1.1-1 .1-.1q2.8 1.7 5.7 3.1z"/><path fill="#e4e1c9" d="m16.6 66.4-.2.1-9.7-5.3v-4.9q3.5-2 2.5-13.8l2.2.8 1.9.8q-1.7 7 .1 8.7.7.6 1.8.5l.4.7-.7.4q-1 .9-1.7 2.5-.3 1-.2 1.4.2 1.3 3.4-.8l.5.1zm-3.4-59V6l8.7 3.6-2.8 1.2.5 12.4 7-.7.3.1q4.4.1 7.7 1.6l.5-4.9.1-.7v-.2l.8-3.1.1 3.9.4 22-2.9-4.4v.1l-.5-1-.5-.9-2.6-3.7q-2.4-2.6-5.1-3.4v-3.1l-2.1-.3-.4 3.1q-2 0-4.3.9.3-5.7-3.7-4.2l-.5 6.5-.5-16.4.7 5.4q4.9 8.9 3.3-9.9zm.6 26q1.6-1 3.1-1.5v3.4q-1.4-.6-3.1.6zm-.1 5.7v-2.2q.9 1.6 3.2 2.3v1Q15.1 39 13.8 39m20-12.8-2.1-1.5q-1.6-.9-3.6 0t-2.4 1.4q-.1.2.1.6l1.8 1.2q2.2 1.1 3.1 1.1l2.4.2q1.4.2 1.4-1.1-.1-1.4-.7-1.9m-.7 17.6 1 .1-.6.1H33zM11.6 56.7l-2.7.7v3q3 .6 2.8-3.7m-2-1.2q4.3 0 1.9-3.2-2-.5-2 3.2"/><path fill="#fafaf5" d="m6.7 56.3.2-14.6-.2-.6 2.5 1.4q1 11.8-2.5 13.8M40 53v.2zm-3.3-.7v-.7l-3.9-1 .3-6.4.4-.1q1.6 0 3.1 2.4v5.1zm-.7-37-.7 3.1v.2l-.2.7-.5 4.9q-3.3-1.5-7.7-1.6h-.3l-7 .6-.6-12.4 3-1.2zl.3-.2-.2.1zM13.9 37v-1q1.7-1.2 3.1-.6v.5l-2 .6 2 1.8v1q-2.3-.7-3.1-2.3m11.9-10.1q-.2-.4-.1-.6.4-.6 2.4-1.4 2-.9 3.5 0l2.2 1.5q.6.5.7 1.9t-1.5 1l-2.4-.2q-.9 0-3.1-1.1zm-8.5 20-.4 10.8h-.5q-3.2 2-3.4.7-.1-.5.2-1.4.7-1.6 1.8-2.5l.6-.4-.4-.7q-1.1.1-1.7-.5-2-1.7-.2-8.7l3.9 1.5q-.1.5.1 1.1M8.9 60.4v-2.9l2.8-.7q.2 4.3-2.8 3.6m2.7-8q2.4 3.2-2 3.2 0-3.7 2-3.2"/><path fill="#f8f7ef" d="m6.7 41.1 2.1-.4.8.3 1.8 2.3-2.2-.8z"/><path fill="#a5b476" d="M8.8 40.7 8.2 6.3l3.7 4.3.3 21.8q-1 1-1.3 2.1l-.1.3q-.2.5 0 .8l1.3-.9v7.5L9.6 41z"/><path fill="#6b7843" d="m8.3 6.3-.1-2.6 3.6 1.2v5.7z"/><path fill="#48512d" d="M43.6 50.3v.9L40 53v-6.3l-.1-5.4v-3L39.7 22l3.5 1zm-30.3-39 .1 3.1.5 16.4q-.7.4-1.7 1.6l-.3-21.8zm-1.2 23.5 1.8-1.4V37l-.1 2.2V42h-.2l-1.4.3z"/><path fill="#6f744f" d="m40 53.2-3.3-.9v-.7l-.1-5V43l-.1-1.8-.4-22 3.6 2.7v.1l.1 16.3v3l.2 5.4z"/><path fill="#70542e" d="m32.9 50.7-1.6.5v-2l.1-2.3v-3h1.7v.2zM17 39.2v-1l1.6 1v5.1l-1.6-.8z"/><path fill="#a8a28c" d="m39.9 54.8 10-4.6 3.6 5 2-.8.9 4-4.6 4.4-1.3-1.9-5.5-1.2-5.2 1.6v-6.5z"/><path fill="#f3f3de" d="m14 30.8.4-6.5q4-1.6 3.7 4.2l-1.9.9zM34 44l2.6-1v3.5q-1.5-2.5-3.1-2.4zm-17-3.8v3.3L13.8 42v-2.8q1.3 0 3.2 1"/><path fill="#de8d1f" d="M18.1 28.5q2.3-.9 4.3-.9l-2 1.4 2.6.5 1.9-1.6q2.8.8 5.1 3.4-2.7.8-6.2.6l-.1-.1q-1.1-.8-2.2-1.2l-4 .1-1.2-1.3z"/><path fill="#d3aa72" d="m22.5 27.6.3-3.1 2.1.3v3.1zm.6-1.3.2-1zm1 .3v-1.2z"/><path fill="#a86a17" d="m30 31.3 2.6 3.7h-.1q-2.7.3-6.3-1l-2.4-2.1q3.5.2 6.2-.6"/><path fill="#7b4f11" d="m32.6 35 .5 1 .5.9-.4.9-1.7 1.1-1.5.5q-1.9-3.3-3.8-5.5 3.6 1.4 6.3 1.1z"/><path fill="#c2be87" d="M33.6 36.9v-.1l2.9 4.4V43l-2.4 1h-1l.1-6.2.5-.5z"/><path fill="#f2d2a8" d="M12.2 32.4q1-1.2 1.8-1.6l2.3-1.4 1.2 1.3q-1.7.4-3.6 1.6l-3 2.2q.3-1.1 1.3-2.1"/><path fill="#fbeedd" d="m12.1 34.8-1.3.8q-.2-.4 0-.9v-.2l3.1-2.2q1.8-1.2 3.6-1.6l1 1h-.1l-1.4.2q-1.5.5-3.1 1.5z"/><path fill="#38362c" d="m17 32 1.4-.3h2.4q4.1 1 8.1 7.8h.1l1-.1 1.5-.5v5l-.1 3-3 1.1.2 3.7-1.3.3-.7-3.8-4 1-.2-5 3.2-.8-3.4-4.7q-1.7-.4-3.6.5l-1.6-1zm1.4 1.5.2 5.9zm4.1 17.1.9 1.5-.1 2-3.3 1-.1-3.9 2.4-.5z"/><path fill="#e4bd92" d="m18.5 31.7-1-1 4-.1q1.1.4 2.2 1.2l.1.1 2.4 2q2 2.2 3.8 5.5l-1 .1h-.1q-4-6.8-8.1-7.8z"/><path fill="#cfcca0" d="m17 38.2-2-1.8 2-.6zm1.6 6.1q-1.2.4-1.4 1.3l-3.9-1.5-1.9-.8L9.6 41l2.5 1.2 1.6-.4v.1l3.3 1.6z"/><path fill="#e1c69f" d="m24.9 27.9-2 1.6-2.5-.5 2-1.4zm-1.7.1-.9.6z"/><path fill="#533e22" d="m33.3 37.8-.2 6.1h-1.7l.1-5z"/><path fill="#585443" d="m31.4 49.3-.1 2-.9.3v.8l-1.8-.7-.2-3.7z"/><path fill="#66614d" d="m25.9 52.4 4 2.5.4.2-.2 3-.9-.1q-1.4-.5-3.3-2z"/><path fill="#7a745c" d="m23.5 56.9 1.5 1.3q1.6 1.2 3.3 2l1.7.5-.2 3.2-.4-.1q-2.7-1.1-5.8-3.4v-.1z"/><path fill="#807860" d="M29.8 64.8v1h-.3l-.6-.3-.2-.1-.4-.2h-.2z"/><path fill="#e2e0c5" d="m36.7 60.3 3 1 .1 10.1q-4.5-.5-8.7-2.7.4-2.3.4-4.3-.1-1.7-.6-3.3z"/><path fill="#8d866b" d="M21.5 64.2V61h.2l4 2.9 1.6.9.8.4-.9 2.1q-2.9-1.4-5.7-3.1"/><path fill="none" stroke="#000" stroke-linecap="round" stroke-linejoin="round" stroke-opacity=".6" stroke-width="__RESOLUTION__" d="m36.3 15.1 3.3 1.2V22M71 1.1l.9 35.9v.8L43.6 50.3v.9L40 53v.2h0l-3.3-.9h0v-.7M8.1 3.7l3.6 1.2v.8m1.4 1.7V6l-.1-.6m.3 9-.2-7m.3 7 .4 16.4m9.4-5.5-.2 1m1-.9v1.2m-10 9.3v-2.5m0 3.5v-1m-.1 3.2v-2.2m8.5-8.3.8-.6m-4.6 11.3v-5.9m24.7-10.6-.2-8.1m-6.7.5L36 15v.1m3.8 26.1v-3M40 53v-6.3m-26.3-4.8v-2.8M9.6 41l2.5 1.2m53.6 6.5v.1l2.2 2.5 6.5.5v-4.7M43.2 22.8l.4 27.5" vector-effect="non-scaling-stroke"/><path fill="none" stroke="#000" stroke-linecap="round" stroke-linejoin="round" stroke-opacity=".4" stroke-width="__RESOLUTION__" d="M17.4 10Q19 28.6 14 19.7m22-4.5-.7 3.2m0 .2-.2.7-.5 4.9q-3.3-1.5-7.7-1.6h-.3l-7 .6m14.2 3.1q.6.5.7 1.9T33 29.3l-2.4-.2q-.9 0-3.1-1.1l-1.8-1.2m-12.4 26q.7.6 1.8.5l.4.7-.7.4m-2 3.9q.3 1.3 3.5-.8l.5.1m-8 2.7q3 .7 2.8-3.6m-.1-4.5q2.4 3.3-2 3.3m-3 .8q3.6-2 2.6-13.8" vector-effect="non-scaling-stroke"/><path fill="none" stroke="#363423" stroke-linecap="round" stroke-linejoin="round" stroke-width="__RESOLUTION__" d="M31.4 46.9v2.4l-3-1.3zm-3 1.1.2 3.7 1.7.7m-1.7-.7-1.3.3-1.5.4 4.1 2.5m-.6 3.1q-1.6-.5-3.4-2h-.1l-2.3.4v.5l1.5 1.3m3.3 2 1.7.5M26 56l-.1.1m0-.1v-3.5m-2.7 7.9h.3l-.1-3.4m-1.8 4 1.6-.6.3.1q3 2.3 5.8 3.4m-8 .4V61h.3l4 2.9m1.6.9.8.4" vector-effect="non-scaling-stroke"/></g><clipPath id="a"><path d="M1 1h115v261H1z"/></clipPath></defs><g clip-path="url(#a)"><g transform="translate(33.75 234.4)"><use xlink:href="#b" width="76" height="79.9" transform="matrix(1.3932 0 0 1.3834 -32.75 -83.5)"/><use xlink:href="#c" width="23.9" height="40.6" transform="matrix(1.3932 0 0 1.3834 -12.45 -121.4)"/><use xlink:href="#d" width="28.1" height="55" transform="matrix(1.3932 0 0 1.3834 -17.7 -158.55)"/><use xlink:href="#e" width="23.9" height="40.6" transform="matrix(-1.3932 .0643 0 1.4309 59.05 -125.85)"/><use xlink:href="#f" width="59.6" height="117" transform="matrix(1.3932 0 0 1.3834 -23.6 -228.15)"/><use xlink:href="#g" width="7.5" height="94.6" transform="matrix(1.3932 0 0 1.3834 57.25 -159.55)"/><use xlink:href="#h" width="16.1" height="32.9" transform="matrix(1.3932 0 0 1.3834 -24.45 -161.45)"/><use xlink:href="#i" width="16.1" height="32.9" transform="matrix(1.3932 0 0 1.3834 -5.3 -152.25)"/><use xlink:href="#j" width="16.1" height="32.9" transform="matrix(-1.3932 0 0 1.3834 66.95 -162.55)"/><use xlink:href="#k" width="16.1" height="32.9" transform="matrix(-1.3932 0 0 1.3834 48.5 -152.9)"/><use xlink:href="#l" width="9.3" height="8" transform="matrix(1.394 -.1651 .0724 1.374 20.1 -144.95)"/><use xlink:href="#m" width="66" height="83.2" transform="matrix(1.3932 0 0 1.3834 -24.25 -176.35)"/><use xlink:href="#l" width="9.3" height="8" transform="matrix(1.3932 0 0 1.3834 22.5 -72.1)"/><use xlink:href="#l" width="9.3" height="8" transform="matrix(1.3932 0 0 1.3834 56.4 -88.9)"/><use xlink:href="#n" width="80.3" height="63.9" transform="matrix(1.3932 0 0 1.3834 -30.3 -61.3)"/></g></g></svg>