<svg xmlns="http://www.w3.org/2000/svg" xmlns:xlink="http://www.w3.org/1999/xlink" width="115" height="74" viewBox="0 0 115 74"><defs><g id="c"><path fill="#d1be72" d="m10.6 2.1 3.5-2 2.1 1.2-3.4 2-1.2-.6zm5.6 1 2.3-1.3.7.4-1.6 1.1-2 7.5.7-6.7-1.2.5-.7-.4zm-14.4 39V40l1-3.5.2 3.3zm2-10.2q1.2-2.7 2-3V30zm1.9-8.2q1.3-4.2 1.8-8.2v2.9zm8.3-14v3.5l-1.9 6.4-1 9.5-1.8 4.5-.2.2V28l2.9-8.4 1.9-9.4zm-1.9 10v-.3zl.1-.4z"/><path fill="#c8a962" d="m10.6 2.1 1 .6 1.2.6-3 14 4.6-13.1.7.4-1 5-.1.6-1.9 9.4-2.9 8.3v5.9l.2-.1-.2.6-1.5 7.9H6L7 37l-1 5.2-2.1.1.7-5 .4-2.2-.1.5L3.7 33l.1-.9.1-.3v.3l2-1.9V29l-1.1-1.4v-.2l.9-3.5 1.8-5.3v-2.9zm-.3 6.2 1.4-5.6zM6.4 27.6l1.8-8.1zm2.8 6.3v.5zM5.7 32 5 35z"/><path fill="#786c45" d="m12.8 3.3 3.4-2v1.8l-1.8 1.1-4.6 13zm6.4-1.2-7.4 43.2-2-1.4-2.2-1.6.1-.2 1.5-7.9.2-.6 1.8-4.6 1-9.5 2-6.4-.1-3.6 1-5 1.2-.5-.7 6.7 2-7.5zm-4.8 21L9.9 44z"/><path fill="#6b5e3f" d="m11.8 45.4-.7 3.4-2.6 1.5-2.7 1.4 1.8-9.2v-.1L10 44zm-9 3.6-1.1.5 3-13.3-.1 1.1-.7 5zm7-5-1.3 6.3z"/><path fill="#b88a41" d="m5.8 51.7-1.6-.8-1.6-.9.2-1 1-6.7 2.2-.1h1.7v.1l-.1.2zm-4.1-2.2-1.5-.8 1.2-5.4.1-.4.4-.7L3 39.7l-.2-3.2.9-3.6 1.2 2.8v.1-.1L5 35l-.4 2.3.2-1.1v-.4.4zm-.3-6.2.5-1.1zm2.9 7.6L6 42.2z"/><path fill="none" stroke="#000" stroke-linecap="round" stroke-linejoin="round" stroke-opacity=".2" stroke-width="__RESOLUTION__" d="M16.2 1.3 14.1.1l-3.5 2m-8 48 .2-1.1-1.1.5h0m0-7.4V40l1.1-3.5m1-4.5q1.2-2.7 2-3l-1-1.4v-.2m-3 14.8-.5 1.1m.4 6.2" vector-effect="non-scaling-stroke"/><path fill="none" stroke="#443615" stroke-linecap="round" stroke-linejoin="round" stroke-opacity=".3" stroke-width="__RESOLUTION__" d="M16.2 1.3v1.8l2.3-1.3.7.4-7.4 43.2-.7 3.4-2.6 1.5-2.7 1.4-1.6-.8-1.6-.9m-1-.5-1.5-.8M17.6 3.3l1.6-1.1m-3 .9-1.8 1.1" vector-effect="non-scaling-stroke"/><path fill="none" stroke="#000" stroke-linecap="round" stroke-linejoin="round" stroke-opacity=".2" stroke-width="__RESOLUTION__" d="m.1 48.7 1.2-5.4.1-.4m1.4-6.4.9-3.6.1-.9m1-4.6.9-3.5m1.8-8.2 3-13.6M5.7 24q1.3-4.2 1.8-8.2v2.9zM15 4.6l1.2-.5-.7 6.7 2-7.5m-3.2.9.7.4-1 5v3.6l-1.9 6.4-1 9.5-1.8 4.5-.2.7-1.5 7.9M9.9 44l4.5-20.8m0-19-4.6 13 3-13.8m1.3 6.2-.1.6-1.9 9.4.1-.4v.4m-.6-16.9-1.4 5.6M5.9 29v1.1l-2 2m4.3-12.6-1.8 8m-1.5 8.1v.2l-.1.4-3.1 13.3m2.9-12.2.4-2.2-.1.5m7.2-16-2.9 8.3v5.9l.2-.1m-.2.6v-.5M5 35.1l.7-3.2m-2.9 4.6.2 3.3-1.2 2.4m4.2 0L7 37m-1 5.2-1.8 8.7m.4-13.6-.7 5L2.8 49m3 2.7 1.8-9.2m.9 7.8L9.9 44" vector-effect="non-scaling-stroke"/></g><g id="a"><path fill="#c8a962" d="m47.5 1.6 1.7.5-.2.3-9.7 15.2-2.2 3.4-8.4 8.6-1.7 7.2-4.7 7.5-5.2-1.5 12.1-16.6L14.7 42l-1.3-.4 5.3-8 6.6-7.5 8.6-7.6 1.4-3.8 4.8-6-4.9 6-2.5 2.9-5.1 4.8-2.2 3.7-6.7 7.6-7.5 7.3-2.7-.8 1-1.2 2.5-3 14.7-17.3 7.7-6.8 3.8-7 4-4.8 1.1.3 2.4.7L40 8.9l5.8-5.6zm-8 3.7L43.3.4z"/><path fill="#63563a" d="M49 2.4v4.8l-2.5 3.9-1.2 2v-1.5l-1 .3-5 5.7z"/><path fill="#685220" d="m49 7 .4-.3-.4.5z"/><path fill="#71533e" d="m46.5 11.1 2.9.4-3 3.6-2.2-.3 1.1-1.7zm15 9.6h-1.6l.5 1.8-1.1 2.8-.6-2.1v-2.6l-1.2-.2v3.4l-2.3-.1v13.2l-2.2-.2-.1-16.8-6.5-.8v-4l3.3.3 1.4 2.8 1.1-2.5 9.3 1.1zm-16.2-1.8.4 1.6-1.1 2.9-1.3-4.7zm-8.4 16.5-2.9-.3 3.7-5.5zM21 49.7l-3.9-2-.9-.4.9.3 5.1 1.4.8-1.1 4.9 1.7L29 52v.6q-3.9-1.1-8.2-3M5.5 42l-1.8-1v-1.7l4.6 2.1v1.9zm27-30.1.8-2.5 1.1.2zM60 20.7l-1.2-.1zm-6.9-.8 4.6.5zm-36 27.9v-.2z"/><path fill="#926f4e" d="M49.4 11.5 62 13.1l-.5 3.7-9.2-1.1.8-2.9-3.5 2.6-3.2-.3zM57.5 37l-2.3-.1V23.7l2.3.1zm-30.7 6.4 1.8.9-.7 1.2h.8l2.2-.1 1.2.6.4.8-1.4.8-.2.1v-.2l-4 .1h-.1l-1.9-1zM34.5 56l3.8 7-1 .5Q35 60 34.7 57.4l-.1-.7zM21.4 71.6l-.9-.5-2-1-.6-.2 4.7-16.5 1 .5 2.4 1.3-1 3.6zm-4.3-21.1 1.3 2.5-1.3.7-.5-2.7zm-13.4 12L2.4 62v-4.3l-1.1 3.6-1.2-.5 4.6-16.2 2.6 1.2 1 .5h-.1zm.8-26.1.7-1 2.7-1.5 3.2 1.6-3.6 2.4zM5 53l2.3-7.2zm17.6 11.3-2 6.8zm-3 2-1 3.7zM3.3 54.7l-.9 3zm18.2 6.1 2-6.9zm9.4-13.2h.2z"/><path fill="#322910" d="M62 13.1V18l-.5 2.7v-3.9zm-2.7 12.2h-.6V34l-1.2 3V20.4l1.1.2v4.6-2zm-12.8-6.2-1.1-.2-2-.2-1.5-.2 1.5.2 1.3 4.7-3.4-.4-.7-2.5 1.3-2 2.4-3.7 2.2.3zM40 21.4l-.8 5.9-.6 4.7-1.7 3.4.8-5.8 1.5-2.3-1.5 2.3.8-6-.8 6-3.7 5.5-1.6-.2.3-2.1 5.8-9.2zM28.6 44.3v1.2h-.8zm3.8 2.5.5 1.9v2.8l-.7.4 1 2-1.7 1.1 2 3.5.7 4.3-1.2-.6-4.9-8.9-1.4-.7-.7 2.6-2.6-1.3-.9-.5.7-2.5 3.5 1.7-.7 2.6-1 3.6 2.1-2 1-3.4.9.3v-1.6l1.8-4.4.2-.2zm-17.3.2.5 1-1.9.9-1.4-2.7 1.6.5.6-2.2-.1 2.3zm1.4 7L13 52.3l-3.2-6.1-1 3.3-.7-3.2.4-1.2h-.2v-1.7l-3-1.4-.7 2.6 2.6 1.2 1 .5.3-1.2 1.5.4 2.3.7 1.4 2.7zM2.4 60.9l-1 .6h-.1l1.1-3.7zM32.3 52l-3.2 1.8zm-22.2-6.4-.2.7z"/><path fill="#786c45" d="m40.6 20.5-.6.9-1.5 2.2-5.8 9.1L26.1 43l-2 3.2-1.2 1.7-.6 1.1v-4.7l4.7-7.5 4.6-4.6L37.2 21l2.2-3.4 5-5.7 1-.3V13l-1.1 1.7-2.4 3.7zM45.7 1v2.2L40 8.9zM27 36.8"/><path fill="#755640" d="m26.1 43 .7.4-1.9 3.3 1.9.9h.1l1 2-5-1.7 1.2-1.7zm7.3 10.9 1.1 2.1v1.4q.5 2.7 2.9 6l-.9.5-2.2-1.1-.7-4.3-2-3.5zm-5.1-.5v-.1l-1.5-.7-3.5-1.7-2.4-1.2q4.4 1.8 8.2 2.9v1.1zm-1 3.6-3.8 13.7-.8.4-1.2.6 3.7-12.8zm-11.5-9 1.4 2.5-.5.5.4 2.7-.4.3-2.8-5.1zM9 49.6l-3.4 12-2 1 4.6-16.2zM3.9 39.4l.5-3 3 1.5 2.1 1 2.5-3-1-.4-3.6 2.4 2.1 1-1.1 1.4v1.3zm29.7 19 2.9 5.5zm-9.5-12.3.8.5zm-.7 21.7-.8 3z"/><path fill="#c9af5a" d="M16.3 47.3 15 47l-.6-.2v-4.7l2.6.7v4.8z"/><path fill="#d1be72" d="m26.7 18.7 5.7-6.8 1.9-2.3L38.2 5l-3.8 6.9zM37 21l-5.5 11-4.6 4.7 1.8-7.2zm-2-6.3-1.4 3.8-8.5 7.6 2.3-3.7 5.1-4.8zM14.7 42.1l14.7-16L17 42.9z"/><path fill="#b88a41" d="M22.3 44.3V49L17 47.4v-4.7zm-3.6-10.5-5.4 7.9 1.4.4v2.4l-.6 2.2-1.6-.5-2.3-.7-1.5-.4h-.2v-4.8l2.7.8zm-5.4 8L12 44.2 11 41l1 3.2z"/><path fill="#ad8669" d="m49.7 15.4 3.3-2.6-.7 2.9-1.1 2.5zM31 47.7l-2 4.4V52l-1.2-2.4-1-2h4z"/><path fill="none" stroke="#443615" stroke-linecap="round" stroke-linejoin="round" stroke-opacity=".3" stroke-width="__RESOLUTION__" d="m47.5 1.6 1.7.5M49 7.2l-2.5 3.9-1.2 2-1.1 1.7-2.4 3.7 1.5.2 2 .2 1.1.2 6.5.8v16.8l2.3.1 2.3.2 1.1-2.9v-8.9l.6.1 1.1-2.8-.4-1.8h1.6L62 18v-4.9m-16.7 5.8.4 1.6-1.1 2.9-3.4-.4-.7-2.5-.5.9-.8 5.9-.6 4.7-1.7 3.4-2.9-.3-1.6-.2.3-2.1L26.1 43l.7.4 1.8.9h.1m2.2 1.1 1.2.6.4.8.5 1.9v2.8l-.7.4 1 2m1.2 2.1 3.8 7-1 .5m-.8.4-2.2-1.1-1.2-.6-4.9-8.9h0l-1 3.6-3.8 13.7-.8.4-1.2.6-.9-.5-2-1-.6-.2 4.7-16.5.7-2.5-2.4-1.2-3.8-2-.9-.4-1-.3.5 1 1.4 2.5 1.3 2.5-1.3.7m-.2 0-.3.3-3.5-1.7-3.2-6.1-1 3.3-3.3 12-2 1-1.2-.5m-1-.6h-.1L0 60.8l4.6-16.2.7-2.6-1.6-.9v-1.7h0l.6-3h0l.7-1 2.7-1.5 3.2 1.6 1 .5 14.7-17.3 5.7-6.8 1.9-2.3 4-4.6 4-4.9 1.1.3 2.4.7m-6.4 16.6L37.1 21M27 36.9l-4.7 7.5V49l.6-1.2 1.2-1.7 2-3.2m-12.8-1.3 1.3.4m2.5.7 5.1 1.5m16.3-20.7-.8 6 1.5-2.3m.8-6-1.5 2.3-5.8 9.1m11.9-9.4-1.3-4.6m-1.5-.2-1.2 2m18 2.7v-2.6l-1.1-.2V37m1.1-16.4 1.3.1m-1.2 4.6v-2.1l.5 2.1m-1.7-4.9-4.6-.5m8.6.8v-3.9M49 2.4l-9.7 15.2m-6.8 29.2-1.4.8-.2.1-1.8 4.4v1.6l3.2-1.8m5.4-22.3-.9 5.8M17.2 47.5l5.1 1.5m-5.1-1.5-.9-.2m-2.2-.6-1.6-.5 1.4 2.7 2.8 5M15.1 47l-.6-.2m16.4.9v-.2l-4 .1h0l1 2L29 52v.1m-2.2-4.4-.1-.1-1.9-1-.8-.4m2 9 .7-2.6-3.5-1.7m5 2.4-1.5-.7m1.4.8.9.3M12 36l-2.5 3-1.1 1.3h0l2.7.8m-3.7-3.2 2.1 1m-1.1 1.4V45l.2.1 1.5.4 2.3.7m-8-9.8 3 1.5m2.5 8.3.2-.7m-1.5-.4-.3 1.1-.1.1M5.5 42l3 1.4M25 58.8l1-3.6m5-7.7h-.2" vector-effect="non-scaling-stroke"/><path fill="none" stroke="#000" stroke-linecap="round" stroke-linejoin="round" stroke-opacity=".2" stroke-width="__RESOLUTION__" d="M49 2.4v4.7m-3.3-6v2.2l1.8-1.7M43.3.4l-3.8 4.9M37 21.1l-5.5 11-4.6 4.7h0l1.8-7.2zm3-12.2-5 5.9-1.4 3.8-8.5 7.6-6.6 7.6-5.4 7.9-1.2 2.5-1-3.2 7.6-7.2m-4 8.3 14.7-16L17 42.9zv2.4l-.5 2.2m21.2-31.9-2.6 2.9-5.1 4.8-2.2 3.7M38.2 5l-3.8 6.9-7.7 6.8m19-15.4L40 8.9 45.7 1M17.1 42.8v4.9m-2.6-.9v-2.3" vector-effect="non-scaling-stroke"/><path fill="none" stroke="#755640" stroke-linecap="round" stroke-linejoin="round" stroke-width="__RESOLUTION__" d="m46.5 11.1 2.9.4L62 13.1l-.5 3.7-9.2-1.1.8-2.9-3.5 2.6-3.2-.3-2.2-.3m-10.9 39 1.2 2.2v1.4q.5 2.7 2.9 6l-.9.5-2.9-5.4-2-3.5zm-1-42 .8-2.5 1.1.2m18 6.1-1.1 2.5-1.6-2.8M7.4 45.8 4.9 53m20.2 5.8-3.7 12.8m-.9-.5 2-6.7m-4 5.7 1-3.7m-17-8.7.8-3m4.9-8.4L3.6 62.5m20-8.6-2.1 6.9" vector-effect="non-scaling-stroke"/><path fill="none" stroke="#553c2f" stroke-linecap="round" stroke-linejoin="round" stroke-width="__RESOLUTION__" d="M28.7 44.3v1.2l2.2-.1m-2.2.1h-.8l.8-1.2M21 49.7q4.3 1.8 8 2.9m-6-4.7 4.9 1.7m-19.5-8-4.5-2.2M22.6 71l.8-3.1" vector-effect="non-scaling-stroke"/><path fill="none" stroke="#322910" stroke-linecap="round" stroke-linejoin="round" stroke-width="__RESOLUTION__" d="M2.4 62v-1.2l-1 .6m1-.6v-3.1l-1.1 3.6" vector-effect="non-scaling-stroke"/></g><g id="e"><path fill="#336020" d="m15.9.4 2-.2q1 .2 1 .9T18 2.5t-2 1.1l-1.5.2H14q-.9-.3-1-1t.9-1.4l.7-.5z"/><path fill="#514128" d="M2.3 3.5V3l.3-.4.7-.6.2-.2.9-.2.6-.1h1.3l.3.1q1.8.3 3 1.1h.2q.8.7 1 1.4h.1l.1.6V5l-.3.6v.1l-.2.1-.2.3-.6.2-.2.1-.3.1-.8.2H7l-.4-.1-.2-.1h-.2l-.3-.1h-.2L4.6 6l-.7-.4-.4-.2L3 5l-.2-.2-.5-1.1v-.3m1.6.5.4.6.1.1 1.6.7.8.1.8-.1q.7-.2.8-1 .2-.6-.8-.9L5.7 3h-.2l-1.1.1-.5.4V4"/><path fill="#000" d="m10.3 6.2.2-.1.2-.2h.1l.4-.5-.2 2.2v.3l-.1 1.4q-2 .9-3.9 1l-.3-.6.2-2.4L8.4 7v-.2l.8-.2.3-.1h.1l.2-.1zm-.2 2.2.9-.9z"/><path fill="#37261e" d="M7 10.2h-.8L4.3 7.7l2.6-.5-.3 2.4h.1zm-2.6-.3q-1-.3-1.8-.8 1-.4 1.6.5zM1.6 8.4.2 7l1.9-3.5q.2 1 .7 1.4l.2.2h.1l.1.5q-.1.8-1.2 2.2z"/><path fill="#665631" d="m6.2 10.2-1.8-.3-.2-.3q-.7-1-1.6-.5l-1-.7.4-.6q1.1-1.4 1.2-2.2v-.4l.3.3.4.2.7.4 1.1.4h.5l.1.1h.3l.4.2h.1l-.2.4-2.6.5z"/><path fill="#331e1c" d="M7.1 6.8h1.3V7l-1.5.2z"/><path fill="#ebe4c2" d="m4 3.6.4-.4 1.1-.1h.2l1.9.4q1 .3.8 1t-.8.9l-.8.1-.8-.1-1.6-.7-.1-.1-.4-.6z"/><path fill="none" stroke="#274316" stroke-linecap="round" stroke-linejoin="round" stroke-width="__RESOLUTION__" d="m15.9.4 2-.2q1 .2 1 .9T18 2.5t-2 1.1l-1.5.2H14q-.9-.3-1-1t.9-1.4l.7-.5z" vector-effect="non-scaling-stroke"/><path fill="none" stroke="#665631" stroke-linecap="round" stroke-linejoin="round" stroke-width="__RESOLUTION__" d="m11 7.5.3-.5.6-1 .1-.2.9-1.6m-2 3.3-.9 1" vector-effect="non-scaling-stroke"/><path fill="none" stroke="#6c582b" stroke-linecap="round" stroke-linejoin="round" stroke-width="__RESOLUTION__" d="m2.3 3.1.3-.4.7-.6.2-.2.9-.2.6-.1h1.3l.3.1q1.8.3 3 1.1h.2q.8.7 1 1.4" vector-effect="non-scaling-stroke"/><path fill="none" stroke="#473218" stroke-linecap="round" stroke-linejoin="round" stroke-width="__RESOLUTION__" d="m10.9 4.2.1.6V5" vector-effect="non-scaling-stroke"/><path fill="none" stroke="#000" stroke-linecap="round" stroke-linejoin="round" stroke-width="__RESOLUTION__" d="m10.3 6.2.2-.1.2-.2h.1l.4-.5" vector-effect="non-scaling-stroke"/><path fill="none" stroke="#443615" stroke-linecap="round" stroke-linejoin="round" stroke-opacity=".3" stroke-width="__RESOLUTION__" d="M10.9 9.2q-2 .9-3.9 1h-.8l-1.8-.3q-1-.3-1.8-.8l-1-.7L.2 7 0 6.8" vector-effect="non-scaling-stroke"/></g><g id="f"><path fill="#604d31" d="m59.1.1-1 .8Q56.5 2 54.4 2.1l-3.9.6-3.9.5-1.5.5q-1.1.8-1.7 2.1-.2 1.9.2 3.7l.5.2h.2l1 .1q1.1 0 2.3-.7l1.4-1 .5.4q-.4.7-1 1.3-1.5 1.3-3.6 1.1h-1v.4l.9.5h.8l1.5 4.1-.8 1.2q-1.2 2.3-4 3.1l-.4-1.8 2.3-1q.7-3.5-1.1-6.6-.7-1.3-2-2.1V5.1q.6-1.7 3.5-2.5Q52.5 0 59 .1m-9.7 8.4-.5-.5.3-.4.1-.2zm-2.2 12.7-.3.5-.6.8-.3.4-.8.3.8-.3-.1.3h-.7q-1.1.4-.7.9l-2.4.8.5-.6-.1.1-.5.3-.6.5-1.4.5-.1.1q-1.7-.1-2.6-.7H37q-.9-.6-1.3-1.4l2.4-1.7v.1l1.2 1 2.6.1h.5V23q1.5-.7 2.7-2.2l.2-.4-.5 1.3h1zm.8 7q-1 1.3-2.7 2.3v-.1q1.7-.9 2.5-2.5zm-22.2-1.9 5.6-1.1-3.2 2.8h-2.4zM40 8.3l-.1-.2 1-2zM34.4 44l7.1-4.7v1.6h2.1l1.1.5-3.2 1.4 2.1-1.9.4-.2 2.9-1.6 1.7-.4.1 2.7-3 1.1q-5.8 2.2-7 4.3l-.6-.6-.1-.2-.2-.2h-.1l-.1-.2-.2-.2-.3-.2-.1-.1-1.1-.6h-.1l-.1-.1-1-.4zm5.8-.4Q38.6 44 37 45zM20 31.6 17.4 33l1-.5 2-1.4-1.1 2.4-1 .3-4.3 1.5q-5.8 2.3-7 4.3l-.5-.6-.2-.2-.2-.1-.1-.1-.1-.1-.2-.2-.3-.2-.1-.1 3-1.6-3 1.6-1.1-.7h-.1l-.1-.1-1-.4h-.3l7.2-4.7v1.7h2l.3-.3 3-1.6 2.3-.4zm-6.7 2.7-1.2-.4-2 1.9z"/><path fill="#37261e" d="M45.2 9.8h-1v-.1H44l-.5-.2q-.5-1.8-.2-3.7.6-1.3 1.7-2l1.5-.6 3.9-.5 3.9-.6q2-.1 3.9-1.2l.9-.8.6-.1.2.1q.8.6 1.3 3.6H47.5zM41 6v2.7q1.3.8 2 2 1.8 3.2 1 6.7l-2.2 1 .5 1.9-2.9 2.7-1.2-1q1.9-1.6 3.5-3.6v-.1l1.3-1.9q.6-1.7 0-3.3l-3-4.9zm3.7 5.8-1-.5.1-.4h1l-.1.4zM.7 37.1l.3-.4q3.1-3.6 5.9-5 4.5-2.2 7-2l1.3.3 7.3-2.9 3.2-.7v1.7H28l3.2-2.8.5-.1 2-.4 2-1.1q.4.8 1.3 1.4l-1 .7-2.6 1.7q-2 .6-3.4 1.6l.9.1-.5.3h-7.3l-3.4 2h-2.3l-2.3.4-.8.2H8.8l-.3.1Q5.3 33.9 1 36.9l1.7-1.3q-1 .6-1.7 1.3zm42.3-25v1zm-2.3 27 2.3-.8 5.5-1.9h-.1l.2 2.3-1.7.3-.9.1z"/><path fill="#331e1c" d="M42.3 20.3q2.7-.9 3.9-3.2l.8-1.2-1.5-4.1h-.8v-.5l.1-.4q2 .2 3.6-1.1.6-.6 1-1.3v-1l-.2.1-.4.4-1.2 1.1q-1.2.7-2.4.7l2.3-6.1h13.7q-12.8.4-11.9 3.7v6.9q-.2 3.6-2.2 6.9l-1.2.5h-1l.5-1.2-.2.3Q44 22.3 42.5 23v.3H42l-2.6-.3zM47.8 7l1 1zm-.6 15.6 4.1-1.9q1.2.5.8 1.8l-1.2 1.8-.5-.8q-.7-1.2-3.2-.5zm-6.3 9.2-2.1-.3q-4.3-.5-8.7 1l-1.3.5 1.3-3.5h.4l.5-.3 1.5.1 2.1-.9q2-.9 2.6-1.7l.9-.6h-1.9l-.1-.3 1-.7q1 .6 2.6.7l.1-.1 1.5-.5-.2.2v1.5zm-19 4.3h-.1l-.4.2-.4.3-2.5 1.4-4.4 2.6-6.2 3.7.6-.5v-.1.1l-.2.1.1-.2q.2-.5-.1-2.1l-.1-.3L8 41v-.1l-.5-.9-.4-.4q1.2-2 7-4.3l4.4-1.5.9-.3 1.2-2.4-2.1 1.4-1 .5 2.4-1.5 3.4-2h3.9L25 32l-3.1 2.2zM.6 37.2l.1-.1.3-.4 1.7-1.2L1 36.8h.1q4.2-3 7.4-4.5L9 32h5.4l.8-.2-3 1.6-.3.3h-2V32l-7.2 4.7H1h.6-.5L1 37zl.4-.3zm43.8-13.1q.2.3 1.6.6l1.7 3.2-1.7-3.1q-1.4-.4-1.6-.7l-2.4.8q1 .4 1.7 1.4l.1.1q1 1.9 1.4 4 1.7-.9 2.5-2.5 1-1 .6-2.7-1.1-1.2-2.3-2h-.2l-.2.6.4 1-.5-1 .3-.6h-.7q-1.1.4-.7.9m-3.7 15-.5.2zl2.3-.9-2.8 1q-3.2 1.5-7.4 4.5v.1l.3-.1h.3-.5l-.1.1h-.1l1.6-1.4-1.6 1.3-.3.4q.1-.2.3-.2v-.2.2l-.3.1v.1l.4-.3-.4.3.4-.2v-.1h.3l.3-.1h.9l7.3-4.6zm-1.2 12.2.4-.4.1-.2q.2-.5-.1-2.1v-.1l-.1-.2v-.1l-.2-.2v-.2l-.5-.8-.4-.5q1.2-2 7-4.2l3-1.1-.1-2.6-.2-2.3 1.6-.6Q49 40 50 45l-1.4.9-2.8 1.7zl.4-.4v-.1h.1l.1-.1zM46.9 39l-3 1.5-.3.3 1.1.5-3.2 1.4 2.1-1.9h-2v-1.6H46zm-7 9.6v.3l-.1-.5zm.2.4v.2zM8.2 41.6v.3l-.1-.5zm-.3 2.7.4-.3zm2-8.6 2.1-1.9 1.2.4zM9 32.2l-.5.1.3-.1zm-8 4.7v.1zv.1m-.3.2L1 37zM8.3 42v.1z"/><path fill="#593f31" d="m45.9 22.9 1.3-.3v.4q2.5-.7 3.2.5l.5.8-3 4-.2-.4q1-1 .6-2.7-1.1-1.2-2.3-2h-.2zm-.7 7.6-.8.3-.1.1q-1.6.9-3.4.9l.2-4.9v-1.5l.2-.2.6-.5.1.2q1 .4 1.7 1.4l.1.1q1 1.9 1.4 4M42 25"/><path fill="#4e3f27" d="M28.8 33h-.2q-3.5 1.3-6.7 3.1v-1.9L25 32l2.1-2.5h3zm13.1-8.3.5-.3.1-.1-.5.6zm-5.8 1.1.1.3h1.9l-.9.6q-.6.8-2.6 1.8l-2.1.8-1.5-.1-1-.1q1.5-1 3.5-1.6z"/><path fill="#514128" d="m7.8 44.3-.4.3-1 .2H6l-1-.2-.6-.3-1.3-.8-.3-.2Q1.2 42 .5 40.4l-.1-.1q-.5-1.1-.4-2l.3-.6v-.2l.1-.2.2-.1.5-.2v-.2h2l.9.4v.1h.2l1 .7h.2l.3.3.2.2.1.1.3.2.2.3.5.5.4.4.5.8v.2l.2.3v.3q.4 1.6.2 2.1l-.1.3v-.2.1l.2-.1-.2.2zM51.6 41v-1.5q0-.8-.4-.8l-.9.4-.2.6v.5q-.1.8.1 1.3v.1l.3.4h.3l.4-.2zm-18.1 2.8h.9l.5.1.9.4h.1l.1.1 1 .6.2.1.3.2.2.2.1.1v.1l.3.2.1.2.6.5.4.5.4.8h.1v.1l.1.3.1.1v.2q.4 1.6.2 2.1l-.1.3-.4.4-.4.3-1 .1h-.4l-1-.2-.6-.3-1.4-.7-.2-.3Q33 49 32.2 47.5v-.2q-.5-1.1-.4-1.9l.3-.7v-.2l.1-.1.1-.1h.1v-.1l.5-.2v-.1h.3zm-1.1.5-.1.1-.1.1v-.1zm6.4 5.3-.1-.9v-.1L37.3 47l-.7-.6-1-.4q-.7-.1-1.3.5-.5.5.3 1.5l1.5 1.4.3.2 1.2.4v.1l.7-.1.2-.2zM50 35.8q1.9 1 2.1 4.3.3 3.8-2 5-1.1-5 0-9.3M39.8 51.1v-.2h.1l-.1.1M.6 37.3l-.1.1-.1.2v-.2zm6.3 5.3-.1-.8v-.2L5.6 40l-.7-.6-1-.3q-.7-.2-1.3.5-.5.5.3 1.4l1.6 1.4.2.3 1.2.4.7-.1.2-.2z"/><path fill="#ebe4c2" d="m51.6 41-.4.8-.4.2h-.3l-.2-.4-.1-.1q-.2-.5-.2-1.2l.1-.6.3-.6.8-.4q.5 0 .5.8l-.2 1.3zm-13.2 9-.7.1-1.2-.5-.2-.2-1.6-1.4q-.9-1-.3-1.5t1.3-.5l1 .4.6.6 1.3 1.6v1.1zM6.6 42.9l-.7.1-1.2-.5-.2-.2L2.9 41q-.8-.9-.3-1.4.6-.7 1.3-.5.5 0 1 .3l.7.6q.8.9 1.2 1.6v.2q.2.4 0 .8v.1z"/><path fill="#665631" d="M37 45.1V45zm3 4V49v.2zM8.3 42v.1z"/><path fill="none" stroke="#443615" stroke-linecap="round" stroke-linejoin="round" stroke-opacity=".3" stroke-width="__RESOLUTION__" d="M59.1.1q-6.6 0-14.6 2.5-2.9.8-3.5 2.5V6l-1.1 2 .1.2 3 4.9q.6 1.6 0 3.3l-1.2 1.9-.1.1q-1.6 2-3.5 3.6l-2.4 1.7-2 1.1-2 .4M49.4 8.5l-.5-.5-1.1-1m13.4-3.3q-.5-3-1.3-3.6l-.2-.1-.6.1m-9.7 8.4v-1zv-1q-1-3.4 11.8-3.8M49.3 8.5v5.8q-.2 3.6-2.2 6.9l-.3.5-.6.8-.3.4 1.3-.3 4.1-1.9q1.2.5.8 1.8l-1.2 1.8-3 4q-1 1.1-2.7 2.1l-.8.4-.1.1q-1.6.9-3.4.9l-2.1-.3q-4.3-.5-8.7 1l-1.3.5m-.2 0q-3.5 1.3-6.7 3.1m-.1 0h-.1l-.4.2-.4.3-2.5 1.4-4.4 2.6-6.2 3.7.6-.5v-.1.1M.3 37.7v-.2l.2-.2v-.1h.1l.1-.1.3-.4q3.1-3.6 5.9-5 4.5-2.2 7-2l1.3.3 7.3-2.9 3.2-.7 5.6-1.1M43 13.1v-1m4.7 15.8L46 24.8q-1.4-.4-1.6-.7-.4-.5.7-.9l.8-.3h0l-.1.3-.2.6.4 1m1.9 3.4-.2-.3m-7.5 11.4.5-.1 2.3-.9zq-3.2 1.5-7.4 4.5v.1h0l.3-.1h1.2l.5.1.9.4h.1l.1.1 1 .6h.1l3-1.5m1.5-4.4h-.8m-8 4.7 1.6-1.2zl-.3.4q.1-.2.3-.2zm0 .1-.4.3h0l-.1.2-.1.1-.1.1v.1m16.6-6L47 39l-.9.1h-4.5m3.3 2.1-3.2 1.5m8.4-6.9q1.9 1 2.1 4.3.3 3.8-2 5H50l-1.4.9-2.8 1.7-6.2 3.7.4-.4h0m.1-.2-.6.6m9-15 1.5-.6m-1.5.6-5.5 2M17.4 33l1-.5 2-1.4m-5.1.9-.8.1H9l-.5.1Q5.3 33.9 1 36.9h2l.9.4v.1h.2l1 .7h.1l3-1.6m6.9-4.4 2.3-.5m-7.6 4.1 3.2-1.4m-4.6-2 .3-.1H9m-8.3 5 .3-.4 1.7-1.2L1 36.8h0v.1h0zm.4-.3-.3.2M8.2 44l-.4.3" vector-effect="non-scaling-stroke"/><path fill="none" stroke="#6c582b" stroke-linecap="round" stroke-linejoin="round" stroke-width="__RESOLUTION__" d="m7.8 44.3-.4.3-1 .2H6l-1-.2-.6-.3-1.3-.8-.3-.2Q1.2 42 .5 40.4l-.1-.1q-.5-1.1-.4-2m31.7 7.1q-.1.8.4 2h0q.8 1.6 2.4 2.9l.3.3 1.3.7.6.3 1 .2h.4l1-.1.4-.3" vector-effect="non-scaling-stroke"/><path fill="none" stroke="#473218" stroke-linecap="round" stroke-linejoin="round" stroke-width="__RESOLUTION__" d="m0 38.3.3-.6m31.7 7-.3.6v.1" vector-effect="non-scaling-stroke"/></g><g id="g"><path fill="#ebe394" d="m7.3 1.6.1.4v.2l-.3.5L7 3l-.2.1-.5.3-.4.2-.6.2h-.2l-1 .2h-1l-.9-.1-.6-.2-.2-.1-.4-.3-.2-.1-.4-.7v-.2l.2-.6.6-.5.2-.1.7-.3.4-.1L3.7.4H4Q5.3.3 6.3.8zm-5.6.8.3.3.1.1 1.3.3H4l.7-.2q.5-.3.6-.8t-.7-.5l-1.4-.1H3l-.9.3v-.1l-.4.4z"/><path fill="#483624" d="m7.2 2.7.2-.2h.1L7.8 5l-1.1.7h-.9L.3 4.2V2.4h.1l.4.7.2.1.4.3h.2l.6.3h2.9v-.1h.2l.6-.2.3-.1h.1v-.1l.5-.3.2-.1.1-.1zM7.9 6 8 8.1l-1 .3L6.7 7z"/><path fill="#6c6c13" d="m7.7 5 .1 1.1-1.2 1-.2-1.3.2-.1zm.2 3.1.2 2.8q-1.7 1.7-3.2 2l.5-2 .5-2.1 1-.4z"/><path fill="#929218" d="M4.9 13q-2 0-3.4-.8-1.4-.7-1.4-1.8l2.2 1 3-.5h.1z"/><path fill="#755939" d="M.1 10.4V8.9l2.6 2h2.6l-3 .5zm.1-3.1V5.8l1.9.9zm6.5-.2.2 1.4-1 .4-3.4-.6z"/><path fill="#b8b821" d="m.1 8.9.1-1.6 1.9-.6-1.9-1V4.3l5.5 1.5h.7l.2 1.4-4.1 1.2 3.4.6-.5 2H2.7z"/><path fill="#58412c" d="m1.7 2.1.4-.4.9-.2h1.6q.8.1.8.6-.2.5-.7.8L4 3h-.6l-1.3-.3-.1-.1-.3-.3V2"/><path fill="none" stroke="#473218" stroke-linecap="round" stroke-linejoin="round" stroke-width="__RESOLUTION__" d="m7.3 1.6.1.4v.1" vector-effect="non-scaling-stroke"/><path fill="none" stroke="#9b9a33" stroke-linecap="round" stroke-linejoin="round" stroke-width="__RESOLUTION__" d="m7.2 2.7.2-.2h.1" vector-effect="non-scaling-stroke"/><path fill="none" stroke="#55402b" stroke-linecap="round" stroke-linejoin="round" stroke-width="__RESOLUTION__" d="M7.6 2.4 7.7 5m0 0 .1 1.1.1 2.1.2 2.8q-1.7 1.7-3.2 2-2 0-3.4-.8-1.4-.7-1.4-1.8V8.9l.1-1.6V2.4" vector-effect="non-scaling-stroke"/><path fill="none" stroke="#6c582b" stroke-linecap="round" stroke-linejoin="round" stroke-width="__RESOLUTION__" d="m.4 2.2.2-.6.6-.5.2-.1.7-.3.4-.1L3.7.4H4Q5.3.3 6.3.8h0l1 .8" vector-effect="non-scaling-stroke"/></g><g id="h"><path fill="#865442" d="m37.7 18.2 1-.6.9-.7q1.3 1.3 2.8 2.2h.1l.3.4v.2l-1.7 1v.2l-.2-.2-.1-.1-1.4-1.4z"/><path fill="#b8b821" d="m37.7 18.2 1.6 1 1.5 1.4.1.1-4.9 2.6-1.9.7q-.5-1.4-3.5-2.1 4.8-1.7 7.1-3.7m5 1.3-.2-.4q-1.6-.9-2.9-2.2l6-4.7 3.5 1-1.4-2.6 4.6-2.4v2.6l-1.8 2.7 1.3.6-1.2.7-3.5 2.1-1.9-.7.4 1.7zM56.4 6l2.2-1.1q2.8.9 3.5 2.7L60 8.9l-.7-1.8zm5.2-2.8L67.2.1q1.5 1 2.2 2.4L67.8 4l-2.5 1.5q-.5-1.9-3.8-2.3M3.9 31.8l.9-.6.1-.2 1.7.7 3.7 3.5-1.4-4L7 29.8 9.8 28l3.6-1.4h2v2.8l-1.7.7-2.4.6.1.1-1 4.5-3 1q-.5-1.4-1.7-2.8l-.5-.9zm13-6.6 3.8-1.1 2.8 2.9-2.5.4-1.5-1.4zm6-1.5q2.3-.4 4.3-.1l2.3 1.8-3.5 1z"/><path fill="#483624" d="m41 20.7.1.2-.2-.1zm.3.2-.2-.2 1.8-1 .8.4q-.2 0-.2.4v.5l.4.8v.2zM65.8 8.8l-15.3 9.5v-3.5l1.3-.7 8.1-5.2 2.6.2-.5-1.5 3.3-2.1q1 1.7.5 3.3M48.5 19.5l-1.7 1-1.2-2.6 1.5-1zm-14 8.3-1 .5-3.6 1.4q.5-2.1-.4-4.3l4.6-1.4q1.3 2.1.4 3.8m-8.4 3.1-6.6 1.9-2.7 1.8-1.4-5.4 3.1-1.4 2.5-.4 1.9 1.9-.6-2.1 2 2.1-.8-2.3 2.5-.5zM14 36.4l-1.6.8.5-3.7-1.4-2.8 2.1 2.8zM10.7 38 9 39v-2.5zm-3.2 1.8-2 1v-.1L6 40v-.3l.1-.5v-.4l-.2-.7-.4-1-.1-.1-.2-.3v-.2l-.2-.1-.1-.4-.7-.8v-.1L4 35l-.6-.5-.2-.2-.1-.1H3l-.5-.4H2l-.2-.1h-.1l-.1-.1-.3-.1h-.1l2.5-1.7h.1l1.3.7.5.9q1.2 1.4 1.7 2.9.7 1.8 0 3.6m-1.9-9.2 1.5-1z"/><path fill="#929218" d="m41.1 20.9 2.7 1v-.1l-.3-.8-.1-.5.1-.4-.7-.4v-.2l2.8-1.6 1.1 2.7q-5.3 2.3-12.2 7.1.9-1.6-.4-3.7l2-.7 4.8-2.6zM69.4 2.5q.8 1.6.5 3.7l-4.1 2.6q.5-1.6-.5-3.3L67.9 4zM50.5 18.3l-2 1.2-1.4-2.6 3.4-2.1zM29.9 29.8 26.2 31l-.2-4.4 3.5-1.1q.9 2.2.4 4.3m-13.1 4.9-2.9 1.8-.4-3-2.1-2.7v-.1l2.3-.6 1.7-.7zm-4.4 2.6-1.6.9L9 36.5V39l-1.6.9q.7-1.9 0-3.6l3-1.1 1-4.5 1.4 2.8zM62.1 7.6l.4 1.5-2.6-.2zM21 27.4l2.5-.4.8 2.3-2-2.1.6 2z"/><path fill="#755939" d="m45.7 12.2 2-1.6 1.4 2.7zm6.7-4 4-2.2 2.9 1 .7 1.9-8.1 5.2-1.3-.6 1.8-2.7zm6.2-3.3 3-1.7q3.3.4 3.8 2.3l-3.2 2q-.8-1.7-3.6-2.6M5 31l.5-.3 1.5-1 2 1.6 1.4 3.9-3.7-3.6zm8.5-4.5 3.5-1.3 2.6.8 1.5 1.4-2.5.4-3.1 1.4v-2.7zm7.2-2.4 2.3-.4 3.1 2.8-2.5.5zm6.6-.4 3.4-1.7q3 .7 3.5 2l-4.6 1.5zM47.2 17l-1.5 1-.4-1.7z"/><path fill="#ebe394" d="M5.5 40.9h-.2l-.7.1-.9-.2-.3-.2-.6-.6-.4-.3-.9-1-.1-.3q-.9-1.4-1-2.7v-.1q-.1-.9.2-1.4l.4-.4h.2l.6-.1h.3l.3.1.5.4h.2l.2.3.6.5H4v.1l.1.1.7.8.1.4.1.1h.1v.2l.2.3.1.1.4 1 .1.7.1.4v.8l-.5.8m-.7-1.3.1-.5v-.2q0-.6-.5-1.4l-.4-.7-.6-.6q-.5-.4-1.1-.2-.6.1-.2 1l.8 1.6.1.2.8.7.6.3.2-.2z"/><path fill="#6c6c13" d="m7 29.7 2.8-1.8z"/><path fill="#58412c" d="m4.4 39.7-.6-.2v-.1l-.8-.7v-.2L2 37q-.4-1 .2-1.1t1.1.2l.6.6.4.6.5 1.5v.2l-.2.5z"/><path fill="none" stroke="#755939" stroke-linecap="round" stroke-linejoin="round" stroke-opacity=".6" stroke-width="__RESOLUTION__" d="m39.6 16.9-.9.7-1 .6q-2.4 2-7 3.7l-3.5 1.7q-2-.3-4.3 0l-2.2.4-3.7 1.2-3.6 1.3-3.6 1.4h0L7 29.7l-1.5 1-.6.3m36.2-10.1 2.7 1v-.1l-.3-.8-.1-.5.1-.4-.7-.4v-.2l2.8-1.6 1.1 2.7 1.8-1.1 2-1.2 15.3-9.5 4.1-2.6q.3-2.1-.5-3.7-.7-1.4-2.2-2.4l-5.7 3.1-3 1.7-2.2 1-4 2.3-4.6 2.4-2 1.6-6.1 4.7m7.1 3.7q-5.3 2.3-12.2 7.1l-1 .6-3.6 1.4-3.7 1.2-6.7 1.9-2.7 1.8-2.9 1.8-1.6.8-1.6.9L9 39l-1.6.9-1.9 1m-4.2-7.4 2.5-1.7m.1 0 .9-.6M47 16.9l3.4-2.1m1.3-.7-1.3-.6m14.8-8L67.9 4l1.6-1.5m-4 3q.9 1.7.4 3.3m-3.7-1.2L60 8.9M11.4 30.7l2.3-.6 1.7-.7m5.6-1.9L19.5 26m-9.2 9.2 1.1-4.5m29.7-9.8-.2-.1-4.9 2.5-1.9.7h0q1.3 2.1.4 3.8m-5-2.4-3.5 1-2.5.6-2.5.4" vector-effect="non-scaling-stroke"/><path fill="none" stroke="#6c582b" stroke-linecap="round" stroke-linejoin="round" stroke-width="__RESOLUTION__" d="m5.3 40.9-.7.1-.9-.2-.3-.2-.6-.6-.4-.3-.9-1-.1-.3q-.9-1.4-1-2.7v-.1q-.1-.9.2-1.4" vector-effect="non-scaling-stroke"/><path fill="none" stroke="#473218" stroke-linecap="round" stroke-linejoin="round" stroke-width="__RESOLUTION__" d="m.6 34.2.4-.4h.1" vector-effect="non-scaling-stroke"/><path fill="none" stroke="#9b9a33" stroke-linecap="round" stroke-linejoin="round" stroke-width="__RESOLUTION__" d="m1.8 33.7-.1-.1-.3-.1h-.1" vector-effect="non-scaling-stroke"/><path fill="none" stroke="#1c0c06" stroke-linecap="round" stroke-linejoin="round" stroke-opacity=".5" stroke-width="__RESOLUTION__" d="m4.8 31.2.1-.2M7 29.7l-1.5 1m1.5-1 2.8-1.8" vector-effect="non-scaling-stroke"/></g><g id="i"><path fill="#71533e" d="m32.2 4.4.1-.2h.2l8.8 1-2 3 .5.7-.8-.2-4.3-.4-2.5-.4zm2.5 3.9 4.3.4-.6 5.9-.7 5.7v-.1.3-.2.2l-.9 5.5-4.4-.5.3-2.1.1-.2zm5 .7-.4-.7 2.6-3 2.3.2h.5l1.7.3 3.3.3 2 2.2 3-1.9 6.8 1.1v3.9h-1.6l.5 1.8-1.1 2.8-.6-2.1v-2.6l1.1.1-1.1-.1-1.2-.2-4.6-.6v16.9l2.3.1V14.4l2.3.1V11l-4.6-.6-7.6-.9.4 1.6-1.1 2.8-1.3-4.6 2 .2-2-.2-1.5-.2zM34.3.2l1.3.1-.1.3zM21 40.2l-6.1-3-.8-.3L8.5 34l-.5-.2-2.6-1.2-1.6-.9V30l.6-3 19.7 9.8 2.7 1.4h.1l1 2 1.2 2.3v.7q-3.9-1.1-8.2-3m7 0-5-1.7L4 30l19 8.5zM8 33.8l.4.2z"/><path fill="#322910" d="M39 8.8h.8l2 .3 1.5.2 1.3 4.6-3.4-.3v-.2l-.2-.7-.6-2.3-.1-.2-.2 1.6-.1.1-.3 2.1-.5 3.9-.6 4.7-1.7 3.4.8-5.5v-.3l.8-6-.1.4.1-.4-.8 6 .6-5.6zm23-5.1v4.9l-.5 2.7V7.4zm-2.7 12.2h-.6v8.9l-1.2 2.8V11l1.1.2v2.6zm-26.5 7.5.1-.2zm11.4-18h.6zM40.7 11l1.2-1.9zl.4 1.8zl-.2-.6zm-1.4 6.9-1.5 2.3zm19.4-4.1v2zM32.6 37.4l.5 1.9v2.8l-.7.4 1 2-1.7 1.1 2 3.4.7 4.4-1.2-.6-4.9-8.8v-.1l-1.4-.7-3.5-1.7-.7 2.5 1 .5 2.4 1.3-1 3.6 2.3-2 1-3.4.8.3v-1.6l1.8-4.4.2-.1zM15 37.2l.8 1.3-1.9 1 2.8 5-3.5-1.6-3.2-6.1-1 3.3-.7-3.2-.9-.5-2.6-1.2.7-2.7L8 33.8l.4.2 5.7 2.9zM2.4 51.4l-1 .6h-.1l1.1-3.7zM28.8 35v1.2H28zm3.6 7.6-3.2 1.8zm-6.2 3.3.7-2.6z"/><path fill="#63563a" d="m39.3 8.2 2-3h.6z"/><path fill="#926f4e" d="m41.3 5.2-8.8-1h-.1l.8-4.2 1.1.2 1.2.4.1-.3L62 3.7l-.5 3.7-6.7-1.1-2.5-1.9L49.7 6l-3.3-.3-1.7-.3h-.5l-2.3-.2zm16.3 22.4-2.4-.2v-13l2.3.1zm-23 19 3.8 7-1 .4q-2.3-3.3-2.7-6l-.1-.7zM21.4 62.2l-.9-.5-2-1-.6-.2L22.6 44l1 .5 2.4 1.3-1 3.6zM17.1 41l1.3 2.5-1.3.7-.5-2.6zM3.7 53l-1.2-.6v-4.2l.9-3-.9 3L1.3 52 0 51.4l4.6-16.2 2.6 1.2 1 .5h-.1zm.7-26 .7-1 2.7-1.5 20.8 10.4L28 36h.8l2.2-.1 1.2.6.4.8-1.4.8-.2.1v-.1h-4.1l-2.7-1.4-.9-.6.9.6zm17.1 24.4 2-6.9zM5 43.6l2.3-7.2zM19.5 57l-1 3.7zm3-2-2 6.7zm8.6-16.8h-.2z"/><path fill="#ad8669" d="m49.7 6 2.5-1.6 2.5 1.9-3 1.9zM30.9 38.3 29 42.7v-.2l-1.2-2.3-1-2z"/><path fill="#755640" d="m33.4 44.5 1.1 2.1V48q.5 2.7 2.9 6l-.9.5-2.2-1.1-.7-4.4-2-3.4zm-5.1-.5v-.1l-1.5-.7-3.5-1.7-2.4-1.2q4.4 1.8 8.2 2.9v1.1zm-1 3.5-3.8 13.7-.8.3-1.2.7 3.7-12.8zm-11.5-8.9 1.4 2.6-.5.5.4 2.7-.4.3-2.8-5.1zM9 40.2l-3.4 12-2 1L8.2 37zm27.5 14.4L33.6 49zm-13.1 4-.8 3z"/><path fill="none" stroke="#000" stroke-linecap="round" stroke-linejoin="round" stroke-opacity=".2" stroke-width="__RESOLUTION__" d="m32.4 4.3-.2.1m-18 32.5" vector-effect="non-scaling-stroke"/><path fill="none" stroke="#755939" stroke-linecap="round" stroke-linejoin="round" stroke-opacity=".6" stroke-width="__RESOLUTION__" d="M32.2 4.4v3.5l2.5.3m5 .7-.4-.7m2-3-8.8-1h-.1m8.8 9.2-.2-.7-.4-1.7m.6-5.8h.7l2.3.2h.5" vector-effect="non-scaling-stroke"/><path fill="none" stroke="#443615" stroke-linecap="round" stroke-linejoin="round" stroke-opacity=".3" stroke-width="__RESOLUTION__" d="m34.7 8.3 4.3.4h0l.8.2 2 .2 1.5.2 2 .2 7.6 1v16.8l2.3.1 2.3.2 1.1-2.9V16h.6l1.1-2.8-.4-1.8h1.6l.5-2.7v-5M45.3 9.5l.4 1.6-1.1 2.8-3.4-.3v-.2m-.2-.7-.6-2.3-.1-.2-.2 1.6-.4 2.2-.5 3.9-.6 4.7-1.7 3.4-4.5-.5.3-2.1.1-.2-.1.2m.1-.2 1.9-15m9.4-2.7.1-.1m-.9 3.9 1.3 4.6m-2.8-4.8L40.6 11l-.2-.6m-.7 3.6.3-2 .1-.2m-2.4 8.4.8-6-.1.4zv.2zl1.5-2.3M39 8.8l-.6 5.8M36.9 26l.8-5.5M61.5 7.4v3.9m-2.9-.1 1.3.1m-2.4-.3 1.1.2v2.6l.6 2.1m-.6 0v-2.1m-1-2.8-4.6-.6m4.6 4V11m0 3.4v13.2m-25 9.8.5 1.9v2.8l-.7.4 1 2m1.2 2.1 3.8 7-1 .4m-.8.5-2.2-1.1-1.2-.6-4.9-8.8v-.1h0l-1 3.6-3.8 13.7-.8.3-1.2.7-.9-.5-2-1-.6-.2L22.6 44l.7-2.5-2.4-1.2-6-3.1.8 1.3 1.4 2.6 1.3 2.5-1.3.7m-.2 0-.3.3-3.5-1.7-3.2-6.1-1 3.3-3.3 12-2 1-1.2-.6m-1-.5L0 51.4l4.6-16.2.7-2.7-1.6-.8V30h0l.6-3h0l.7-1 2.7-1.5 20.8 10.4h.1m2.2 1.1 1.2.6.4.8-1.4.8-.2.1-1.8 4.4v1.6l3.2-1.8M24 36.8l-.9-.6m.9.6L4.4 27M31 38.3v-.1h-4 0l1 2 1.2 2.3v.2M27 38.2l-2.7-1.4m-.8 4.7 3.5 1.7 1.4.7M15 37.2l-.8-.3m0 0L8.5 34l-.5-.2-2.6-1.2m23 11.4.8.3m-3 1.5-1 3.6m1.7-6.2-.7 2.5m-9.5-1.2-2.8-5M8.6 34l-.5-.2M31 38.2h.2" vector-effect="non-scaling-stroke"/><path fill="none" stroke="#755640" stroke-linecap="round" stroke-linejoin="round" stroke-width="__RESOLUTION__" d="m32.4 4.3.8-4.3 1.1.2 1.3.1L62 3.7l-.5 3.7-6.7-1.1-2.5-1.9L49.7 6l-3.3-.3-1.7-.3h-.5m10.5.9-3 1.9-2-2.2M33.3 44.5l1.1 2.1V48q.5 2.7 2.9 6l-.9.5-2.9-5.5-2-3.4zm-9.8 0-2.1 6.9m-19-3.1.8-3m.3 7.8 4.6-16.2m-.9-.5-2.4 7.2m13.6 17.1 1-3.7m5.6-7.6-3.7 12.8m-.9-.5 2-6.7" vector-effect="non-scaling-stroke"/><path fill="none" stroke="#322910" stroke-linecap="round" stroke-linejoin="round" stroke-width="__RESOLUTION__" d="M2.4 52.6v-1.2l-1 .6m1-3.7v3m-1.1.7 1.1-3.7" vector-effect="non-scaling-stroke"/><path fill="none" stroke="#553c2f" stroke-linecap="round" stroke-linejoin="round" stroke-width="__RESOLUTION__" d="M28.7 34.9v1.2l2.2-.1m-2.2.1h-.8l.8-1.2m.4 8.3q-3.9-1.1-8.2-3M4 30l19 8.6 5 1.7m-5.3 21.3.8-3" vector-effect="non-scaling-stroke"/></g><g id="j"><path fill="#c2bb7a" d="m7.3 1.6.1.4v.2l-.3.5L7 3l-.2.1-.5.3-.4.2-.6.2h-.2l-1 .2h-1l-.9-.1-.6-.2-.2-.1-.4-.3-.2-.1-.4-.7v-.2l.2-.6.6-.5.2-.1.7-.3.4-.1L3.7.4H4Q5.3.3 6.3.8zm-5.6.8.3.3.1.1 1.3.3H4l.7-.2q.5-.3.6-.8t-.7-.5l-1.4-.1H3l-.9.3v-.1l-.4.4z"/><path fill="#3b2c1d" d="m7.2 2.7.2-.2h.1L7.8 5l-1.1.7h-.9L.3 4.2V2.4h.1l.4.7.2.1.4.3h.2l.6.3h2.9v-.1h.2l.6-.2.3-.1h.1v-.1l.5-.3.2-.1.1-.1zM7.9 6 8 8.1l-1 .3L6.7 7z"/><path fill="#59590f" d="m7.7 5 .1 1.1-1.2 1-.2-1.3.2-.1zm.2 3.1.2 2.8q-1.7 1.7-3.2 2l.5-2 .5-2.1 1-.4z"/><path fill="#787813" d="M4.9 13q-2 0-3.4-.8-1.4-.7-1.4-1.8l2.2 1 3-.5h.1z"/><path fill="#60492f" d="M.1 10.4V8.9l2.6 2h2.6l-3 .5zm.1-3.1V5.8l1.9.9zm6.5-.2.2 1.4-1 .4-3.4-.6z"/><path fill="#98981b" d="m.1 8.9.1-1.6 1.9-.6-1.9-1V4.3l5.5 1.5h.7l.2 1.4-4.1 1.2 3.4.6-.5 2H2.7z"/><path fill="#483524" d="m1.7 2.1.4-.4.9-.2h1.6q.8.1.8.6-.2.5-.7.8L4 3h-.6l-1.3-.3-.1-.1-.3-.3V2"/><path fill="none" stroke="#3a2913" stroke-linecap="round" stroke-linejoin="round" stroke-width="__RESOLUTION__" d="m7.3 1.6.1.4v.1" vector-effect="non-scaling-stroke"/><path fill="none" stroke="#807f2a" stroke-linecap="round" stroke-linejoin="round" stroke-width="__RESOLUTION__" d="m7.2 2.7.2-.2h.1" vector-effect="non-scaling-stroke"/><path fill="none" stroke="#463523" stroke-linecap="round" stroke-linejoin="round" stroke-width="__RESOLUTION__" d="M7.6 2.4 7.7 5m0 0 .1 1.1.1 2.1.2 2.8q-1.7 1.7-3.2 2-2 0-3.4-.8-1.4-.7-1.4-1.8V8.9l.1-1.6V2.4" vector-effect="non-scaling-stroke"/><path fill="none" stroke="#594823" stroke-linecap="round" stroke-linejoin="round" stroke-width="__RESOLUTION__" d="m.4 2.2.2-.6.6-.5.2-.1.7-.3.4-.1L3.7.4H4Q5.3.3 6.3.8h0l1 .8" vector-effect="non-scaling-stroke"/></g><g id="w" transform="translate(31 40.8)"><use xlink:href="#a" width="62" height="71.7" transform="translate(-31 -30.85)"/><use xlink:href="#b" width="19.3" height="51.8" transform="translate(9.25 -40.8)"/></g><g id="t"><path fill="#6e8e60" d="M9.6 5.1q-.4 1-2.1 1-1.7.1-3.6-.7-2-.9-3-2.1Q-.2 2.1.2 1.2q.3-1 2-1.1t3.6.8 3 2q1.2 1.3.8 2.2"/><path fill="none" stroke="#657959" stroke-linecap="round" stroke-linejoin="round" stroke-width="__RESOLUTION__" d="M9.6 5.1q-.4 1-2.1 1-1.7.1-3.6-.7-2-.9-3-2.1Q-.2 2.1.2 1.2q.3-1 2-1.1t3.6.8 3 2q1.2 1.3.8 2.2" vector-effect="non-scaling-stroke"/></g><g id="s"><path fill="#336020" d="M9.6 5.1q-.4 1-2.1 1-1.7.1-3.6-.7-2-.9-3-2.1Q-.2 2.1.2 1.2q.3-1 2-1.1t3.6.8 3 2q1.2 1.3.8 2.2"/><path fill="none" stroke="#274316" stroke-linecap="round" stroke-linejoin="round" stroke-width="__RESOLUTION__" d="M9.6 5.1q-.4 1-2.1 1-1.7.1-3.6-.7-2-.9-3-2.1Q-.2 2.1.2 1.2q.3-1 2-1.1t3.6.8 3 2q1.2 1.3.8 2.2" vector-effect="non-scaling-stroke"/></g><g id="q"><path fill="#926f4e" d="m37.6 35.3 18.3-9.1 2.3 1.2.6 1-17.2 8.5.6-.5-.6.5v.1l-2.4 1.2h-3.6v.1l-.2-.1h.2-.2l-1.2-.7.3-.7 1-.5h2l.8.1zm21 .3 4 14.2-1 .5-1-3.2-.8-2.7.8 2.7v3.7l-1 .5-4.1-14.2.8-.5 2 6.3-2-6.2zm-10.9 8.1-1.1-.7 1.1-2.1.4.5zm-4.9-.3L47 57.8l-.5.2-1.8.8-.8.5L40.7 48l-.9-3.3 2.3-1zm-13 8.9-.8-.5 3.3-6.1v1.2q-.4 2.4-2.5 5.4m15.7 2.5.9 3.3zM6.8 12.3l-.3-.2-1.2-.7.3-.7 1-.4h2.8l-.7-1L26.9 0l2.3 1.3.6 1L10.2 12H6.4h.2zm23-2.7 4 14.3-1 .4-1-3.2-.8-2.7.8 2.7v3.7l-1 .5L26.5 11l.8-.4zm-10.8 8-1.2-.6 1.2-2.2.3.5zm-5-.3 4 14.4-.5.2-1.8.9-.8.4L11.7 22l-.9-3.2 2.3-1.1zM1 26.2l-.8-.5 3.3-6v1.2Q3 23.1.9 26.1m28.5-9.2-2.1-6.3zm-14.5 6.9-1.7-6.1zm1.8 4.9.9 3.2zM14 26.9l1.7 5.9zm29.8 22.9-1.7-6zm-.8 3.1 1.7 6z"/><path fill="#71533e" d="m58.8 28.4.6 2.5v1.6l-1.5.8-2.2 1-.4.3v-.1l.4-.2-.4.2-5 2.5-.6.3-5.4 2.8-2.7 1-4.4 1.5V42l1-2 .9-1.7v-.1l2.5-1.2zM8.2 16.5V16l1-2.1.9-1.7 19.7-9.9.6 2.6v1.5l-1.5.8-2.2 1.1-.4.2-5 2.4v.1l-.6.3-5.4 2.7q-3.8 1.6-7.1 2.5m18.1-8 .4-.2zm4-3.5-16.7 7.5L9.3 14l4.3-1.5zm29 26-16.8 7.6-1 .3-3.4 1.1 3.4-1.1 1-.3z"/><path fill="#322910" d="m57.9 33.3.7 2.3-2.3 1-.8.4v.1l-.6 2.8L54 37l-2.8 5.3-3.1 1.5 2.5-4.5-1.7-.7.8-1.3.5-.2.1-.1 5-2.5.4-.2zm3.7 17-1-.5V47zm-19.3-9.2.6 2.2-.8.5-2.3 1-.6-2.2zm-3.4 5.3-.9-3-4.2 7.8-1.1.5.6-3.9 1.8-3-1.6-1 .9-1.7-.6-.4v-2.5l.5-1.6 1.1.7.3.1 1.6 3.9v1.4l.7-.4 1.3-.6.6 2.2.9 3.3zm-1.3-10v-1l.8 1.1zM5.4 15.8l-.7-.4V13l.5-1.7 1.2.7.3.1 1.5 4v1.3zl2.8 1.6.7-.3.9 3.1 1.9 1.7-.9-3.2-.6-2.3-1.3.7L4.7 25l-1.1.5.6-3.8 1.8-3-1.6-1zm3.1-5.6v-1l.8 1zm20.4-3.1.7 2.3-2.3 1.1-.8.4-.6 2.8L25 11l-3 5.3-3 1.5 2.5-4.4-1.7-.8.8-1.2.6-.3 5-2.6v.1l.4-.2zm3.7 17-1-.6V21zM13.3 15l.6 2.2-.8.5-2.3 1.1-.6-2.3zm21.1 27 2.9 1.6z"/><path fill="#755640" d="m59.6 51.3-1.7-.9-3-10.5.6-2.8zm-11.4-7.5-.2-.1-.1-.1.3-2.4-.4-.5 1.2-2.2 1.7.8zm-3.8-3.7-2 1-3.1 1.5-1.3.6-.7.4v-1l4.4-1.5zM44 59.3l-1-.6-.7-.4-3.4-12 1.9 1.8zm-11.3-7.6-2 1-.7-.5q2.1-2.9 2.5-5.3v-1.2l1-1.9 1.6 1-1.8 3zm-24.4-34v-1q3.3-1 7.1-2.6l-2 1-3.1 1.5-1.3.7zm22.4 7.7-1.7-.9L26 14l.6-2.8zm-11.4-7.5-.2-.1H19l.3-2.4-.3-.5 1.1-2.2 1.7.8zm-4.2 15.5-1-.6-.7-.3-3.4-12 1.9 1.7zM3.6 25.5l-2 1-.7-.4q2.1-3 2.5-5.3v-1.3l1-1.9L6 18.8l-1.8 3-2.5 4.8 2.5-4.8zm9.6 4.5.7 2.6zm17.5 22.5 2.5-4.7zM42.3 56l.7 2.7z"/><path fill="#ad8669" d="m8.2 16.2-1.5-4h-.1 3.5l-.8 1.7L8.2 16zm30.9 22.2-.9 1.6-1 2.1v.2l-1.6-3.9v-.1H39"/><path fill="none" stroke="#443615" stroke-linecap="round" stroke-linejoin="round" stroke-opacity=".3" stroke-width="__RESOLUTION__" d="m37.6 35.3 18.3-9.1 2.3 1.2.6 1h0l.6 2.5v1.6l-1.5.8.7 2.3 4 14.2-1 .5h0m-1 .5-1 .5-1.7-.9-3-10.5L54 37l-2.8 5.3-3.1 1.5-.2-.1m-.1-.1-1.2-.7 1.1-2.1 1.2-2.2.8-1.3-5.4 2.8-2 1 .6 2.2 4 14.5-.4.2-1.8.8-.8.5-1-.6-.7-.4-3.4-12-.9-3-4.2 7.8-1.1.5-2 1M30 52l-.8-.4 3.3-6.1m1-1.9.9-1.7-.6-.4V39l.5-1.6.3-.7 1-.5m19.8-1.8.4-.2zl-5 2.5m0 0-.6.3m6-3 2.2-1m-9.8 10.5 2.5-4.5M5.2 11.5 4.7 13v2.4l.7.4 2.8 1.6V16l-1.5-3.9h-.3zl.3-.7 1-.4m2-1L27 0l2.3 1.3.6 1h0l.6 2.5v1.5l-1.5.8.7 2.3 4 14.3-1 .4v.1m-1 .4-1 .5-1.7-.9-3-10.5-1-2.7-3 5.3-3 1.5-.2-.1m-.1 0-1.2-.7 1.2-2.2 1.1-2.2.8-1.2-5.4 2.7-2 1 .6 2.2L18 31.7l-.5.2-1.8.9-.8.4-1-.6-.7-.3-3.4-12-.9-3.1L4.7 25l-1.1.5-2 1m-.7-.4-.8-.5 3.3-6m1-2 1-1.7m23.5-8.7-2.2 1.1-.4.2h0l-5 2.4m0 .1-.6.3m6-3-.4.1M6.6 12.1h-.2m.3.1h3.5l19.7-9.9m-21 14.9-.7.3m1-3.6-1 2.1v.1m.7 1.1 1.3-.7 3-1.5m-3.1-2.8-.8 1.7m9.8 3.8 2.5-4.4M11.7 22l-.9-3.2-.6-2.3M41.6 37l-2.4 1.2H39l-.9 1.7-1 2.1v.2l-1.6-3.9v-.1H39m-3.7 0 .2.1m0-.1h-.2l-1.2-.7m3 4.7v1.4l.7-.4 1.3-.6 3-1.6m-.6-4 .6-.6m-.6.5v.1m-2.4 5.6.6 2.2.9 3.3m-3.5-4.5L34.3 42m24.5-13.6-17.2 8.5" vector-effect="non-scaling-stroke"/><path fill="none" stroke="#322910" stroke-linecap="round" stroke-linejoin="round" stroke-width="__RESOLUTION__" d="m61.6 50.3-1-.5v1m1-.5-1-3.2v2.6m-28-25.4-1-.6v1m0-1V21l1 3.2" vector-effect="non-scaling-stroke"/><path fill="none" stroke="#755640" stroke-linecap="round" stroke-linejoin="round" stroke-width="__RESOLUTION__" d="m30.7 52.6-.8-.5q2.1-2.9 2.5-5.3v-1.2l1-1.9 1.6 1-1.8 3zm24.9-15.4 4 14.2m-3.2-14.6 2 6.2m2.3 4.2-.8-2.7M46.5 58l-1-3.2M1.8 26.5l-.8-.4q2.1-3 2.5-5.3v-1.3l1-1.9L6 18.8l-1.8 3zm25.6-15.9 2 6.3M26.6 11l4 14.2m-17.4-7.5 1.7 6.1m2.7 8.1-1-3.2m-.8 4.1L14 26.9M11.7 22l3.2 11.2M31.6 21l-.8-2.7m11.3 25.5 1.7 6m-3.1-1.7 3.2 11.1m.8-.4L43 53" vector-effect="non-scaling-stroke"/><path fill="none" stroke="#553c2f" stroke-linecap="round" stroke-linejoin="round" stroke-width="__RESOLUTION__" d="M35.6 36.3h1.9v-1m0 0 .8 1.1h-.8m-31-26.1h2v-1m0 0 .8 1h-.8m.8 3.6 4.3-1.5L30.4 5M8.2 16.5q3.3-.9 7.1-2.5m-1.4 18.7-.7-2.7m25 10 3.4-1.2 1-.3 16.8-7.6M37.2 42.6l4.4-1.5 2.7-1m-1.4 18.6-.7-2.7" vector-effect="non-scaling-stroke"/><path fill="none" stroke="#000" stroke-linecap="round" stroke-linejoin="round" stroke-opacity=".2" stroke-width="__RESOLUTION__" d="M50.4 37h-.1m-29-26" vector-effect="non-scaling-stroke"/><path fill="none" stroke="#665631" stroke-linecap="round" stroke-linejoin="round" stroke-width="__RESOLUTION__" d="M41.4 28q-.5-2.7.2-4.9l1-2" vector-effect="non-scaling-stroke"/></g><use xlink:href="#c" id="b" width="19.3" height="51.8"/><use xlink:href="#e" id="u" width="18.9" height="10.2"/><use xlink:href="#f" id="r" width="61.2" height="51.9"/><use xlink:href="#g" id="o" width="8.2" height="13.1"/><use xlink:href="#h" id="n" width="70.1" height="41.4"/><use xlink:href="#i" id="m" width="62" height="62.3"/><use xlink:href="#j" id="l" width="8.2" height="13.1"/><clipPath id="k"><path d="M83 1h20v60H83z"/></clipPath><clipPath id="p"><path d="M12 1h70v62H12z"/></clipPath><clipPath id="v"><path d="M1 1h10v72H1z"/></clipPath><clipPath id="x"><path d="M104 1h10v56h-10z"/></clipPath></defs><g clip-path="url(#k)"><g transform="translate(78.45 41.4)"><use xlink:href="#l" width="8.2" height="13.1" transform="matrix(-.8785 0 0 .6782 5.8 2.1)"/><use xlink:href="#m" width="62" height="62.3" transform="matrix(-.8785 0 0 .8785 17.25 -38.4)"/><use xlink:href="#n" width="70.1" height="41.4" transform="matrix(-.8785 -.0377 -.1279 .873 23.6 -39.25)"/><use xlink:href="#o" width="8.2" height="13.1" transform="matrix(-.8785 0 0 .8785 10.65 2.9)"/></g></g><g clip-path="url(#p)"><g transform="translate(57.45 45.4)"><use xlink:href="#q" width="62.7" height="59.4" transform="translate(-45.45 -43.05)"/><use xlink:href="#r" width="61.2" height="51.9" transform="matrix(-.8785 0 0 .8785 13.9 -40.9)"/><use xlink:href="#s" width="9.8" height="6.2" transform="rotate(98.802 8.524 -12.425)scale(-.598 .598)"/><use xlink:href="#t" width="9.8" height="6.2" transform="rotate(4.291 301 -45.356)scale(.405 -.405)"/><use xlink:href="#s" width="9.8" height="6.2" transform="rotate(-81.198 -41.377 .814)scale(.598 -.598)"/><use xlink:href="#t" width="9.8" height="6.2" transform="matrix(.4038 .0303 .0303 -.4038 10.4 -10)"/><use xlink:href="#t" width="9.8" height="6.2" transform="matrix(.4038 .0303 .0303 -.4038 -31.6 -23.7)"/><use xlink:href="#u" width="18.9" height="10.2" transform="matrix(-.8785 0 0 .8785 18.45 5.45)"/></g></g><g clip-path="url(#v)"><use xlink:href="#w" width="62" height="81.6" transform="matrix(-.8785 0 0 .8785 2.7 1)"/></g><g clip-path="url(#x)"><use xlink:href="#m" width="62" height="62.3" transform="matrix(-.8785 0 0 .8785 105.7 2)"/></g></svg>