<svg xmlns="http://www.w3.org/2000/svg" xmlns:xlink="http://www.w3.org/1999/xlink" width="60" height="70" viewBox="0 0 60 70"><defs><radialGradient id="i" cx="0" cy="0" r="819.2" gradientTransform="matrix(.02 0 0 .02 3.4 14.95)" gradientUnits="userSpaceOnUse" spreadMethod="pad"><stop offset="0" stop-color="#ad8643"/><stop offset="1" stop-color="#6d532c"/></radialGradient><radialGradient id="g" cx="0" cy="0" r="819.2" gradientTransform="matrix(.01 0 0 .01 -1.95 -14)" gradientUnits="userSpaceOnUse" spreadMethod="pad"><stop offset="0" stop-color="#ad8643"/><stop offset=".9" stop-color="#43321b"/></radialGradient><radialGradient id="f" cx="0" cy="0" r="819.2" gradientTransform="matrix(.03 0 0 .03 -6.9 -26.95)" gradientUnits="userSpaceOnUse" spreadMethod="pad"><stop offset="0" stop-color="#ad8643"/><stop offset=".9" stop-color="#866535"/></radialGradient><radialGradient id="d" cx="0" cy="0" r="819.2" gradientTransform="matrix(.03 0 0 .03 12.9 -25)" gradientUnits="userSpaceOnUse" spreadMethod="pad"><stop offset="0" stop-color="#ad8643"/><stop offset=".9" stop-color="#866535"/></radialGradient><radialGradient id="c" cx="0" cy="0" r="819.2" gradientTransform="matrix(.02 0 0 .02 14 -19.5)" gradientUnits="userSpaceOnUse" spreadMethod="pad"><stop offset="0" stop-color="#97743a"/><stop offset=".8" stop-color="#523e14"/></radialGradient><radialGradient id="b" cx="0" cy="0" r="819.2" gradientTransform="matrix(.03 0 0 .03 5.75 -20.9)" gradientUnits="userSpaceOnUse" spreadMethod="pad"><stop offset="0" stop-color="#97743a"/><stop offset=".8" stop-color="#523e14"/></radialGradient><radialGradient id="a" cx="0" cy="0" r="819.2" gradientTransform="matrix(.03 0 0 .03 -9.35 -26.95)" gradientUnits="userSpaceOnUse" spreadMethod="pad"><stop offset="0" stop-color="#97743a"/><stop offset=".8" stop-color="#523e14"/></radialGradient><radialGradient id="A" cx="0" cy="0" r="819.2" gradientTransform="matrix(.01 0 0 .01 5.45 2.25)" gradientUnits="userSpaceOnUse" spreadMethod="pad"><stop offset="0" stop-color="#d9cc8e" stop-opacity=".7"/><stop offset="1" stop-color="#fefee3" stop-opacity="0"/></radialGradient><radialGradient id="r" cx="0" cy="0" r="819.2" gradientTransform="matrix(.02 0 0 .02 16.5 6.55)" gradientUnits="userSpaceOnUse" spreadMethod="pad"><stop offset="0" stop-color="#49371d"/><stop offset=".9" stop-color="#866535"/></radialGradient><radialGradient id="q" cx="0" cy="0" r="819.2" gradientTransform="matrix(.01 0 0 .01 4.7 .8)" gradientUnits="userSpaceOnUse" spreadMethod="pad"><stop offset="0" stop-color="#be965a"/><stop offset="1" stop-color="#6d532c"/></radialGradient><radialGradient id="p" cx="0" cy="0" r="819.2" gradientTransform="matrix(.09 0 0 .03 -13.55 -25.05)" gradientUnits="userSpaceOnUse" spreadMethod="pad"><stop offset="0" stop-color="#ad8643"/><stop offset=".9" stop-color="#866535"/></radialGradient><radialGradient id="o" cx="0" cy="0" r="819.2" gradientTransform="matrix(.02 0 0 .02 1.1 16.95)" gradientUnits="userSpaceOnUse" spreadMethod="pad"><stop offset="0" stop-color="#7a5b30"/><stop offset="1" stop-color="#523e14"/></radialGradient><radialGradient id="n" cx="0" cy="0" r="819.2" gradientTransform="matrix(.02 0 0 .02 2.8 15.4)" gradientUnits="userSpaceOnUse" spreadMethod="pad"><stop offset="0" stop-color="#be965a"/><stop offset="1" stop-color="#62381e"/></radialGradient><radialGradient id="l" cx="0" cy="0" r="819.2" gradientTransform="matrix(.02 0 0 .02 8.55 17.1)" gradientUnits="userSpaceOnUse" spreadMethod="pad"><stop offset="0" stop-color="#9e783f"/><stop offset="1" stop-color="#4b3623"/></radialGradient><radialGradient id="k" cx="0" cy="0" r="819.2" gradientTransform="matrix(.03 0 0 .03 20.05 13.35)" gradientUnits="userSpaceOnUse" spreadMethod="pad"><stop offset="0" stop-color="#7a5b30"/><stop offset="1" stop-color="#0c0905"/></radialGradient><radialGradient id="j" cx="0" cy="0" r="819.2" gradientTransform="matrix(.02 0 0 .02 22.85 26.6)" gradientUnits="userSpaceOnUse" spreadMethod="pad"><stop offset="0" stop-color="#7a5b30"/><stop offset="1" stop-color="#0c0905"/></radialGradient><g id="x"><path fill="url(#a)" d="m-.8-17.3 1.7-2.2L2.5-21q6 6 2.5 16.3l-.3.8L4-2.2l-.7-.4-.1-.3V-3v.3h-.1l-1.4-.9-.9-.8q-1-1-1.6-2 2.6-6.1-.1-10.9" transform="translate(3.75 22.65)"/><path fill="url(#b)" d="M2.5-20.8q2.6-1.8 5.9-1.8h1.2q7.4 6.2 6 18.3h-.1l-.2.3-.1.1-1.3 1-.1-.5-.4.8q-1.9 1-4.1 1.2l-.2-.2-.2-.2v.4h-.5l-2-.2-1.2-.9.4.7-1.1-.3v-.1l.3-.4.2-2q3.5-10.2-2.5-16.2" transform="translate(3.75 22.65)"/><path fill="url(#c)" d="M9.6-22.6q3.7.4 6.3 3Q19-16.3 19-12q0 4-2.7 7h-.1l-.6.7q1.3-12.1-6-18.3" transform="translate(3.75 22.65)"/><path fill="url(#d)" d="m16.3-5-.2.3z" transform="translate(3.75 22.65)"/><path fill="#abd226" d="m19.9 17.9-.3 1.1-.2.8.3-.3.4-.3.8-.7-.1 1-.2.3-.4.1-1 .7-.9.5q-2.4 1.2-6.6 2.7l-.6-.2q-.4-.2 0-.7l-.1-.1-.6-.1.3-.4h-.1l-.7-.3-.6-1.2-.3-.7 1.2 1 2.1 1.7v.2h.3l.2.1v-.3l-.1-1.6v-.4l.2.2.2.2.8 1 2.9-1.4.3-.8.4-.7.1.4.1.6 1.3-1.6.3-.3.6-.8zm-6.2 36.5-.2.3-.7.6q-8.3-1.7-11.5-4.7l-.7-.4Q.3 50 0 47.4q.3.9 1.8 1.9l.4.5L1 44.9l.9 1.4.6 1L4.3 50v-2.6l1.4 3.3.2.1 2.7 1.5 1 .5.8-3.1v-.1l.3-.9.5 4.9.1.7.2-.5.2.1v-.6l.8-2 2.6-6.2-.6 5-.7.9-.2.3.5.8-.7.5-.2.4q.6.8.5 1.4M3.2 20 3 19q0 .3.6.7l.2.3v-.3L3.3 18l.4.5v.1l.5.9.4.5v-1l.1.3.5 1 1.4.8.4-1.2v-.4.1l.1.3.2 1.5v.3-.2h.2v-.2l.3-1 .6-1.4.3-.8-.2 2-.2.3-.1.1.2.3-.3.2v.8L8 22q-3.2-.7-4.4-1.7z"/><path fill="url(#e)" d="m15.9-3.6.5.1-.5.4-.2.3zm1.2.4.3.1-1.9 1 1-.6.4-.2zm-18.3.8.6-.3v.2l.3.1Q.9-1.3 4.1-.6l.3-.2-.1-.6v-.2l.3-.2-.1-.3 1.1.3.6 1.2.6.2.1.1-.2.4h.5l.1.2q-.4.5 0 .7l.7.1q4.2-1.4 6.6-2.6L13-.6 8.8 1.7 6.7.7 1.1-1.4zm1.1-.5H0v.2zm.6-.2.4-.2v.7zm.5-.2.8-.4 1.4 1-.4 1.2-1.4-.8zm5.4 1.7 2 .2h.5L9 .2v.3L8.8.3l-.2.1V.2zm2.9.2q2.2-.2 4.1-1.2l-.3.7-2.9 1.5zM13.9-3l1.3-.9L14-2.4zm-9.8.7-.4.9v.3l-.1-.1v.2l-.1-.2-.1-1.5z" transform="translate(3.75 22.65)"/><path fill="#6c4b1c" d="M21.2 19.5V34l-.1-.7-.1.7q-.6 7.6-1.1 8.3-.7.9-1.5-9.5l-1.6.8V22l1.5-.9 1-.5z"/><path fill="#6b501a" d="M21.2 34v15.5l-1.2.8-.1-7.7v-.3q.6-.7 1.1-8.3l.1-.7z"/><path fill="#523e14" d="m20 50.3-6.3 4.1q0-.6-.4-1.4v-.4l.8-.6-.4-.7V51l.8-1 .6-5-2.6 6.3v-27l4.3-2.3v11.6l1.6-.8q.8 10.4 1.5 9.5v7.9m-3-16.3.1-.2zm-.1 7.2v-2.2zm0-2.2V36zm-1 13.7 1-10.7z"/><path fill="url(#f)" d="M-1.2 24.5v-3.1l-.1-9.4V9.6l.4.1V3.1l-.3-.1v-5.4l2.3 1Q.7 5 .8 11.2H1l.4 8.9v.8l.8 7.3-.2-.1-1.3-3.4v2.7zM6.7.8l2.1.8v27l-.9 2v.6l-.2-.1-.2.5V31L7 26.2l-.3.8v.2l-.9 3-1-.5z" transform="translate(3.75 22.65)"/><path fill="#a99441" d="M2.5 32.2h-.2z"/><path fill="#9c783d" d="m2.9 29.8-.4-.3v-3.9l.4.1zm13.7 4 .2-.1v.1z"/><path fill="url(#g)" d="M-.7-6.5Q-2.2-9-2.2-12.1q0-2.9 1.4-5.3 2.7 4.8.1 10.8" transform="translate(3.75 22.65)"/><path fill="url(#h)" d="m5-4.6-.3.8z" transform="translate(3.75 22.65)"/><path fill="url(#i)" d="M2.2 28.2 1.3 21l-.1-.9-.4-8.9Q.6 5 1-1.3L6.8.8l-2 28.8z" transform="translate(3.75 22.65)"/><path fill="none" stroke="#000" stroke-linecap="round" stroke-linejoin="round" stroke-opacity=".3" stroke-width="__RESOLUTION__" d="m3 5.3 1.7-2.2 1.5-1.3Q8.9 0 12.3 0h1.2q3.6.4 6.2 3.1 3.1 3.1 3.1 7.5 0 4.1-2.6 7.1l-.2.2m1.3 16.2v.5M5.6 19l-1-.9q-.9-1-1.5-2-1.6-2.5-1.6-5.5T3 5.3m5.2 15.2 1.2.3m.8.2 2 .2h.5m.4 0q2.2-.2 4-1.2m.5-.3 1.3-1M7.1 20l.8.3m-1-.4-1.4-1m11.1 17.2v2.6" vector-effect="non-scaling-stroke"/><path fill="none" stroke="#000" stroke-linecap="round" stroke-linejoin="round" stroke-opacity=".3" stroke-width="__RESOLUTION__" d="m19.9 17.9-.3 1.1-.2.8m.8-.6.7-.7-.1 1-.2.3-.4.1-1 .7-.9.5q-2.4 1.2-6.6 2.7l-.6-.2q-.4-.2 0-.7m10 11.8v14.8l-1.2.8M3.3 20 3 19q0 .3.6.7m.1 0L3.4 18l.4.5m0 .1.5.9.4.5v-1l.1.3.5 1 1.4.8.4-1.2h0v-.1m1.4-.9.3-.8-.2 2-.2.3m1 .4-.3-.7 1.2 1 2.1 1.7v.2h.3l.2.1v-.3M13 21l.2.2.8 1 2.9-1.4.3-.8.4-.7.1.4.1.6 1.3-1.6h0l.3-.3m-10.9.5-.6 1.4-.3 1v.2h-.2v.1-.2m.9-.9.2.3-.3.2m0 .2v.6L8 22q-3.2-.7-4.4-1.7l-.3-.2v-.2m7.5 2.4-.3.4.6.1m-1.7-2L10 22l.7.3m9.4-4.7-.1.3m0-.3-.5.7m.8.9-.6.3m1.5 13.8v.8M6 50.8l2.7 1.5 1 .5.8-3.1v-.1m.8 4 .1.7.2-.5.2.1v-.6l.8-2M3.8 20v-.3" vector-effect="non-scaling-stroke"/><path fill="none" stroke="#000" stroke-linecap="round" stroke-linejoin="round" stroke-opacity=".3" stroke-width="__RESOLUTION__" d="m19.6 19 .5.2m.7.3h.3V34M20 50.3l-6.2 4.1-.2.3-.7.6q-8.3-1.7-11.5-4.7l-.7-.4Q.3 50 0 47.4q.3.9 1.8 1.9m.4.5L1 44.9m0 0 .9 1.4m.6 1v-1.9m0-.3v-1m0-11.9v.1m0-5V25m14.3-3 1.5-.9m1-.5 1.8-1m-4.5 14.1h.1m-6.3-10.3 2.2.9 4.2-2.3v11.6M8.6 52.3l1.8-28.8m6.2 15.2v2.2m-4.1 10.4 2.6-6.2-.6 5-.7.9-.2.3.5.8-.7.5-.2.4q.6.8.5 1.4m-1.2-3.1v-27m-10 22.8 1.8 3v-2.7l1.4 3.3.2.1m14-8.2v7.6m-3.2-8.5-1.1 10.7" vector-effect="non-scaling-stroke"/><path fill="none" stroke="#beaa58" stroke-linecap="round" stroke-linejoin="round" stroke-opacity=".6" stroke-width="__RESOLUTION__" d="M2.5 34.7v-2.5l.4.1M2.5 25v-4.7l.6-.4M5 21.3q-.4 6.4-.3 12.7h0l.5 8.8h0v.9l.8 7.2m4.5-27.3L5 21.2l-2.4-1m0 5.4V25m0 .6.4.1m-.4 3.8v-2.3m1.7-7.6.4-.2m.1 0 .8-.4M3 5.4Q5.7 10 3 16.1m5.7 2Q12.3 7.7 6.3 1.7m13 16.5q1.4-12-6-18.3M8.8 18l-.3.9m8.4 14.9h-.2m-3.9-12.6V21m-5.4.4L7 20v-.4m5.6 1.6v1.6" vector-effect="non-scaling-stroke"/></g><g id="z"><path fill="url(#j)" d="M28.1 12.5 27.7 39l-2.2 1.4.2.6-.8-.4-.6.4-1.6-6.1-.5.8H22L19.6 38l-2.8-1.3 5.4-26.8h.1zL27 14.3z" transform="translate(.5 .65)"/><path fill="url(#k)" d="m16.8 36.7-3.2-1.6 2.6-28 6 2.8zM6.6 29.8l-1.4.8v-2.4l.3.4zm15.7-20-.7.4zM5.9 2.3 4.6 3.9l.2-2.1zm-.6 26.2.3.1z" transform="translate(.5 .65)"/><path fill="url(#l)" d="m13.6 35.1-4.3-2.2q-1.5-4.1-1.9-7.8L7.2 24l.1.1-.7-9h-.2Q6 8.7 7.4 3l8.8 4z" transform="translate(.5 .65)"/><path fill="url(#n)" d="m9.3 32.9-.5-.3-2.1-2.7h-.1l-1-1.2-.4-.5v2.6l-.5-.4-2.6-2.3V11.5L2 .4l2.8 1.3-.2 2.1 1.2-1.6 1.5.7h.1Q6 8.8 6.4 15h.1l.8 9.1-.1-.1.2 1q.4 3.8 1.9 7.9m-5-26.3.3-2.7zm.5 23.8.4.3zm-.8-4 1.3 2z" transform="translate(.5 .65)"/><path fill="url(#o)" d="m2.1 28.1-2-1.8v-2H1l.1-3.9-.3-.2-.5-.3.1-8.2v-.2l.7.3.1.1.4.2.2-6.4-.3-.2-.7-.3v-.4L1 .6l.7-.2.4.1.1 11V28" transform="translate(.5 .65)"/><path fill="#707070" d="M.6 24.9H0l.4-4.6.4.2zm.3-12.6L0 12l.4-6.4.8.3-.5 6.3z"/><path fill="#999" d="M.9 12.3v-.2zm.7.2.3-6.3H2l.3.1-.2 6.4zM1.1 25l.2-4.2.3.2-.2 4z"/><path fill="url(#p)" d="M1 .6V0l.6.4zm21.4 9.3" transform="translate(.5 .65)"/><path fill="url(#q)" d="m1.7.4 1.9-1L9.5 2 7.3 3l-1.5-.7-1-.5L2 .5z" transform="translate(.5 .65)"/><path fill="url(#r)" d="M9.5 2 18 6l6.2 2.8-1.9 1.1-6.1-2.8L18 6l-1.8 1-8.8-4z" transform="translate(.5 .65)"/><path fill="#cdcdcd" d="m1.3 5.9.6.3-.3 6.3-.7-.3zm0 14.9-.2 4.1H.6l.2-4.4z"/><path fill="none" stroke="#beaa58" stroke-linecap="round" stroke-linejoin="round" stroke-opacity=".6" stroke-width="__RESOLUTION__" d="m27.2 7.9-2.5 1.6 4.9 2.2-1 1.5-1.1 1.7m-27 10H0l.4-4.6.4.2m.1-8.2L0 12l.4-6.4.8.3v-.5m1-4.4 2-1L10 2.7l8.5 3.9 6.2 2.9-1.9 1v.1l-.7.4m-5.4-3.2-2.6 28m4.4-29.2-1.8 1.2M1.9 6.2l-.6-.3m.6.3H2M1 24.9l.2-4.1" vector-effect="non-scaling-stroke"/><path fill="none" stroke="#000" stroke-linecap="round" stroke-linejoin="round" stroke-opacity=".3" stroke-width="__RESOLUTION__" d="m9.8 33.6-.5-.4-2.1-2.6-.1-.1-1.4.8v.1l-.5-.3-2.6-2.4-2-1.7v-2.1l.2-4.4.1-8.2v-.2l.7.4.3-6.3m-.5-.7V1.2l.8-.2.3.1 2.8 1.4-.2 2L6.3 3h0l1.5.8 2.2-1m12.8 7.9-5.5 26.8m-.6-29.6L7.9 3.7q-1.4 5.6-1 12H7l.8 9h-.1l.2 1q.4 3.7 1.9 7.8M5 4.5l-.2 2.7M1.3 5.9l-.5 6.3m1.2-6-.7-.3v-.5m.7.8.3.1-.2 6.4-.4-.1-.1-.1m.9-11.3L2.6 12v16.7M6.3 2.9l-1-.4m-4 18.3-.5-.3m-.2 4.4h.8l.3-3.9-.4-.2m4.4 8.3v-.3l.3.5 1.1 1.2m-1.4-1.4v2.2l-.5-.2m.8-1.8-.3-.2-1.4-2" vector-effect="non-scaling-stroke"/><path fill="none" stroke="#beaa58" stroke-linecap="round" stroke-linejoin="round" stroke-opacity=".6" stroke-width="__RESOLUTION__" d="M1.5 1.2V.7l.6.3m20.7 9.6-6.1-2.8" vector-effect="non-scaling-stroke"/></g><g id="s"><path fill="#abd226" d="m16.5 20.6-.2.1-.4-.2-.2-2.4zm.6 5.5 1.1.6v.3l.3-.1.1.5V27l1.4.6-2.5.9-.6-.7q-.3-.7.2-1.7m7.8-1L22.7 24l.3-.2.4-1.3.6-.3v.9l.6-1.2 1.3-.7-.2 1.7.3-.6q1-1 1.3-1.8-.2 2.6-.5 2.8l-.4.3z"/><path fill="#333" fill-opacity=".2" d="m15.9 20.5.4.2.1-.1 10-5.4 5.2 3-4.3 2.3-1.4.7-1.3.7-.6.3-.6.3-1.7 1 1 .5 2.2 1.1 8.6 4.1Q32 31 28.4 32L20 27.7l-1.4-.6-.4-.2-1.1-.7-.4-.1L5 32.2l-5-2.7 11.4-6.2-9.1-4.6L7 15.9z"/><path fill="#6b501a" d="m21.6 8.7-1.7-.6-.1-8.1 1.8.9z"/><path fill="none" stroke="#000" stroke-linecap="round" stroke-linejoin="round" stroke-opacity=".3" stroke-width="__RESOLUTION__" d="m16.5 20.6-.8-2.5.2 2.4m10 1.8q1.1-1 1.4-1.8m-4 2-.4 1.3-.2.2m2.2 1.1 1.5-1.5.4-.3q.3-.2.5-2.8M20 27.6l-2.5.9-.6-.7q-.3-.7.2-1.7m1.5.9v.4l-.2-.5-.1.1v-.2m7.6-5.6-.2 1.7m-1.7-.7v.9l.6-1.2m-3-13.2-1.7-.6-.1-8.1 1.8.9zl4-2" vector-effect="non-scaling-stroke"/></g><g id="u"><use xlink:href="#s" width="33.5" height="32.2" transform="translate(0 26.75)"/><use xlink:href="#t" width="22.8" height="55.4" transform="translate(5.4)"/></g><g id="F"><use xlink:href="#u" width="33.5" height="59" transform="matrix(.97 0 0 .97 0 2.55)"/><use xlink:href="#v" width="29.6" height="41.6" transform="translate(20.15 24.85)"/><use xlink:href="#w" width="11.2" height="6" transform="matrix(1.46 0 0 .78 9.35 0)"/><use xlink:href="#u" width="33.5" height="59" transform="matrix(.97 0 0 .97 29.85 16.2)"/><use xlink:href="#w" width="11.2" height="6" transform="matrix(1.46 0 0 .78 37.9 13.55)"/></g><use xlink:href="#x" id="t" width="22.8" height="55.4"/><use xlink:href="#y" id="w" width="11.2" height="6"/><use xlink:href="#z" id="v" width="29.6" height="41.6"/><linearGradient id="h" x1="-819.2" x2="819.2" gradientTransform="matrix(0 .01 -.01 0 7.45 -12.9)" gradientUnits="userSpaceOnUse" spreadMethod="pad"><stop offset="0" stop-color="#ad8643" stop-opacity="1"/><stop offset="1" stop-color="#624926" stop-opacity="1"/></linearGradient><linearGradient id="e" x1="-819.2" x2="819.2" gradientTransform="matrix(0 0 0 0 3.65 -2.35)" gradientUnits="userSpaceOnUse" spreadMethod="pad"><stop offset="0" stop-color="#ad8643" stop-opacity="1"/><stop offset="1" stop-color="#624926" stop-opacity="1"/></linearGradient><clipPath id="E"><path d="M1 1h58v68H1z"/></clipPath><path id="y" fill="url(#A)" d="m11.2 3-.1.5q-.2.8-1.5 1.6-1.7.9-4 .9t-4-.9T0 3 1.7.9Q3 .2 4.7.1h.9q2.3-.1 4 .8 1.6.9 1.6 2.1"/></defs><g clip-path="url(#E)"><use xlink:href="#F" width="62.3" height="73.1" transform="translate(1 1)scale(.9243)"/></g></svg>