<svg xmlns="http://www.w3.org/2000/svg" xmlns:xlink="http://www.w3.org/1999/xlink" width="250" height="118" viewBox="0 0 250 118"><defs><g id="q"><path fill="#ccd7b8" d="M.9 5.3q3.3-7.8 8.9-3.9l13.9 7q-4-1.5-7.6 4.5Q7.9 9.9.9 5.4"/><path fill="#91b38d" d="M.9 5.3q7 4.5 15.2 7.7 3.6-6 7.6-4.6l1.8.9-1.2 2q-2.8-2.4-7.1 3.4L16 16.6 1.3 8.8.1 6.7zM16 14.8"/><path fill="none" stroke="#361903" stroke-linecap="round" stroke-linejoin="round" stroke-opacity=".6" stroke-width="__RESOLUTION__" d="m23.7 8.4-14-7Q4.3-2.5 1 5.3L.1 6.7l1.3 2.1L16 16.5l1.1-1.7m6.6-6.4 1.8.9m0 0-1.2 2q-2.8-2.4-7.1 3.4" vector-effect="non-scaling-stroke"/></g><g id="p"><path fill="#aabca8" d="M.9 5.3q3.3-7.8 8.9-3.9l13.9 7q-4-1.5-7.6 4.5Q7.9 9.9.9 5.4"/><path fill="#739a80" d="M.9 5.3q7 4.5 15.2 7.7 3.6-6 7.6-4.6l1.8.9-1.2 2q-2.8-2.4-7.1 3.4L16 16.6 1.3 8.8.1 6.7zM16 14.8"/><path fill="none" stroke="#1e0b00" stroke-linecap="round" stroke-linejoin="round" stroke-opacity=".6" stroke-width="__RESOLUTION__" d="m23.7 8.4-14-7Q4.3-2.5 1 5.3L.1 6.7l1.3 2.1L16 16.5l1.1-1.7m6.6-6.4 1.8.9m0 0-1.2 2q-2.8-2.4-7.1 3.4" vector-effect="non-scaling-stroke"/></g><g id="o"><path fill="#b8cdb8" d="M.9 5.3q3.3-7.8 8.9-3.9l13.9 7q-4-1.5-7.6 4.5Q7.9 9.9.9 5.4"/><path fill="#7ca88c" d="M.9 5.3q7 4.5 15.2 7.7 3.6-6 7.6-4.6l1.8.9-1.2 2q-2.8-2.4-7.1 3.4L16 16.6 1.3 8.8.1 6.7zM16 14.8"/><path fill="none" stroke="#200d01" stroke-linecap="round" stroke-linejoin="round" stroke-opacity=".6" stroke-width="__RESOLUTION__" d="m23.7 8.4-14-7Q4.3-2.5 1 5.3L.1 6.7l1.3 2.1L16 16.5l1.1-1.7m6.6-6.4 1.8.9m0 0-1.2 2q-2.8-2.4-7.1 3.4" vector-effect="non-scaling-stroke"/></g><g id="m"><path fill="#5f8575" d="M9.3.4 17.2 4 16 5.5l-6.6 7.8Q3.6 12 .1 8.9z"/><path fill="#2a4838" d="m16 5.5-1 3.4-4.7 6.6H8.9l-8.4-4L0 8.9q3.5 3.3 9.3 4.4z"/><path fill="none" stroke="#000" stroke-linecap="round" stroke-linejoin="round" stroke-opacity=".6" stroke-width="__RESOLUTION__" d="m16 5.5-1 3.4-4.7 6.6h0m0 0H8.9l-8.4-4L0 8.9 9.3.4l.2-.3" vector-effect="non-scaling-stroke"/></g><g id="l"><path fill="#6a8c7c" d="M9.3.4 17.2 4 16 5.5l-6.6 7.8Q3.6 12 .1 8.9z"/><path fill="#385344" d="m16 5.5-1 3.4-4.7 6.6H8.9l-8.4-4L0 8.9q3.5 3.3 9.3 4.4z"/><path fill="none" stroke="#060003" stroke-linecap="round" stroke-linejoin="round" stroke-opacity=".6" stroke-width="__RESOLUTION__" d="m16 5.5-1 3.4-4.7 6.6h0m0 0H8.9l-8.4-4L0 8.9 9.3.4l.2-.3" vector-effect="non-scaling-stroke"/></g><g id="k"><path fill="#6b8d7d" d="M9.3.4 17.2 4 16 5.5l-6.6 7.8Q3.6 12 .1 8.9z"/><path fill="#3b5546" d="m16 5.5-1 3.4-4.7 6.6H8.9l-8.4-4L0 8.9q3.5 3.3 9.3 4.4z"/><path fill="none" stroke="#090105" stroke-linecap="round" stroke-linejoin="round" stroke-opacity=".6" stroke-width="__RESOLUTION__" d="m16 5.5-1 3.4-4.7 6.6h0m0 0H8.9l-8.4-4L0 8.9 9.3.4l.2-.3" vector-effect="non-scaling-stroke"/></g><g id="j"><path fill="#809c88" d="M9.3.4 17.2 4 16 5.5l-6.6 7.8Q3.6 12 .1 8.9z"/><path fill="#556b58" d="m16 5.5-1 3.4-4.7 6.6H8.9l-8.4-4L0 8.9q3.5 3.3 9.3 4.4z"/><path fill="none" stroke="#2a211f" stroke-linecap="round" stroke-linejoin="round" stroke-opacity=".6" stroke-width="__RESOLUTION__" d="m16 5.5-1 3.4-4.7 6.6h0m0 0H8.9l-8.4-4L0 8.9 9.3.4l.2-.3" vector-effect="non-scaling-stroke"/></g><g id="i"><path fill="#71937e" d="M9.3.4 17.2 4 16 5.5l-6.6 7.8Q3.6 12 .1 8.9z"/><path fill="#415b47" d="m16 5.5-1 3.4-4.7 6.6H8.9l-8.4-4L0 8.9q3.5 3.3 9.3 4.4z"/><path fill="none" stroke="#0f0706" stroke-linecap="round" stroke-linejoin="round" stroke-opacity=".6" stroke-width="__RESOLUTION__" d="m16 5.5-1 3.4-4.7 6.6h0m0 0H8.9l-8.4-4L0 8.9 9.3.4l.2-.3" vector-effect="non-scaling-stroke"/></g><g id="h"><path fill="#5e8574" d="M9.3.4 17.2 4 16 5.5l-6.6 7.8Q3.6 12 .1 8.9z"/><path fill="#284737" d="m16 5.5-1 3.4-4.7 6.6H8.9l-8.4-4L0 8.9q3.5 3.3 9.3 4.4z"/><path fill="none" stroke="#000" stroke-linecap="round" stroke-linejoin="round" stroke-opacity=".6" stroke-width="__RESOLUTION__" d="m16 5.5-1 3.4-4.7 6.6h0m0 0H8.9l-8.4-4L0 8.9 9.3.4l.2-.3" vector-effect="non-scaling-stroke"/></g><g id="f"><path fill="#466354" d="M9.3.4 17.2 4 16 5.5l-6.6 7.8Q3.6 12 .1 8.9z"/><path fill="#1a3123" d="m16 5.5-1 3.4-4.7 6.6H8.9l-8.4-4L0 8.9q3.5 3.3 9.3 4.4z"/><path fill="none" stroke="#000" stroke-linecap="round" stroke-linejoin="round" stroke-opacity=".6" stroke-width="__RESOLUTION__" d="m16 5.5-1 3.4-4.7 6.6h0m0 0H8.9l-8.4-4L0 8.9 9.3.4l.2-.3" vector-effect="non-scaling-stroke"/></g><g id="e"><path fill="#628776" d="M9.3.4 17.2 4 16 5.5l-6.6 7.8Q3.6 12 .1 8.9z"/><path fill="#2d4b3b" d="m16 5.5-1 3.4-4.7 6.6H8.9l-8.4-4L0 8.9q3.5 3.3 9.3 4.4z"/><path fill="none" stroke="#000" stroke-linecap="round" stroke-linejoin="round" stroke-opacity=".6" stroke-width="__RESOLUTION__" d="m16 5.5-1 3.4-4.7 6.6h0m0 0H8.9l-8.4-4L0 8.9 9.3.4l.2-.3" vector-effect="non-scaling-stroke"/></g><g id="c"><path fill="#30271a" d="m7.9 4.3 1.7.8L10 9 2.3 5.8.5.5l6.2 3.2v-.5l1.4 1z"/><path fill="#2a2217" d="m9.6 5.1 3.8 2h.2v4l-2.2 1.3v3.9h-.1l-.9.5-1.3-.7-1.4-4.7 2.9 1.5v-.1L10.2 9zm1 7.7.8-.4z"/><path fill="#433724" d="M7.7 11.5 3.5 9.3 2.3 5.9 10.1 9l.6 3.8h-.1z"/><path fill="none" stroke="#372815" stroke-linecap="round" stroke-linejoin="round" stroke-width="__RESOLUTION__" d="m7.9 4.3 1.7.8 3.8 2M.4.5l6.2 3.2" vector-effect="non-scaling-stroke"/><path fill="none" stroke="#251f14" stroke-linecap="round" stroke-linejoin="round" stroke-width="1" d="m13.4 7 .2.2V11l-2.2 1.3v3.9h-.1l-.9.5-1.3-.7M2.3 5.8.5.5m10 12.4-2.8-1.5"/><path fill="none" stroke="#3b3120" stroke-linecap="round" stroke-linejoin="round" stroke-width="1" d="M7.7 11.5 3.5 9.3 2.3 5.9"/><path fill="none" stroke="#15120e" stroke-linecap="round" stroke-linejoin="round" stroke-width="__RESOLUTION__" d="m11.4 12.4-.7.4" vector-effect="non-scaling-stroke"/></g><g id="b"><path fill="#070000" fill-opacity=".2" d="m18.5 20.5-1.6-7.1-12.3 1.3-3.8-3.5 1.1-6 7.5-1.6 3.2.1L23 0l1.3 1.1V12l-1.1 7.6zm-14.9-.2-1.9-1.6v-3L6 17z"/><path fill="#420200" fill-opacity=".2" d="m18.5 20.5 4.7-.9-.6 4-3.9-2.1zm-2.4.3v2l7.8 4v8l-13.5-1.6-7.5-7.7L4.6 23zM11 36.7l-5 5.9 3.1 4.6-2 2.5L2 46.8v-15l2.4-1.2z"/><path fill="#180000" fill-opacity=".2" d="m4.6 23 4.5-7.3 6.9.1.1 5z"/><path fill="#310000" fill-opacity=".2" d="m24 42-3 4.9-10.5.1q.1-3-.5-6.3l6.6-5.7 7.4 2zm-7.5 16.6-7-.1v-7.6l-.6-.4L22.7 49zM1.3 51.2l6 1.7v4.7l.4.1-5.3.4z"/><path fill="#390115" fill-opacity=".2" d="m20 60.2 2.3-.5-.9 10.1-2 .3zm3.4-1.4 3.1-.7.4 11-4.2.4zm-7.6 1.5-.5 9.8h-1l-5.1 1.5.6-10zM8.2 62l.9-.4-1 10.1-.7.1zm-7.5.7-.6.3.6-.5z"/><path fill="#6c2919" fill-opacity=".2" d="m17 60 2.3-.5-.8 10.2-2.1.2z"/><path fill="#1d0000" fill-opacity=".2" d="m22.8 51.6 1.9 1.6v3L20.4 55z"/><path fill="#5d1c15" fill-opacity=".2" d="M7.4 62 6.2 72.5.4 74.1.5 73q-.4-5 .2-10.3v-.2q4-3 6.7-.5"/><path fill="none" stroke="#020000" stroke-linecap="round" stroke-linejoin="round" stroke-opacity=".2" stroke-width="__RESOLUTION__" d="m20 60.2 2.3-.5m-3-.2L17 60m9.5-2-3.1.7m-7.6 1.5-6 1.3m-1.6.5.9-.4m-8.4 1-.6.4.6-.5q4-3 6.7-.5" vector-effect="non-scaling-stroke"/><path fill="none" stroke="#070000" stroke-linecap="round" stroke-linejoin="round" stroke-opacity=".2" stroke-width="__RESOLUTION__" d="m22.8 51.6 1.9 1.6v3L20.4 55zm-21.5-.3 6 1.7v4.7l.4.1-5.3.4z" vector-effect="non-scaling-stroke"/></g><g id="a"><path fill="#c1a76c" d="m3 12-.9.4 3.5-1.8.1.2-2.2 1zM2 40.3l-.2-.1 3.9-1.8z"/><path fill="#b69154" d="m5.7 10.8-.1-.2L28.4 0l.2.1L6.2 10.6zm22.9 29.4.1.1-.1.1zM5.7 38.3l2.2-1z"/><path fill="#705427" d="M28.6.1q1.4 17.5 0 37L.1 48V13.5l6-2.9zM2 40.2l8.6-4.2-2.7 1.3-2.2 1-3.9 1.8z"/><path fill="#715e1c" d="M28.6 37.1v3.3l.1-.1q1.2 7.7-.1 13.8l-.2-.1L.1 64.4V47.9z"/><path fill="#2d210f" d="M28.6 54.1v13.5L.1 81.2V67.6z"/><path fill="#6b5714" d="M.1 67.6v-3.2L28.4 54l.2.1z"/><path fill="none" stroke="#595c16" stroke-linecap="round" stroke-linejoin="round" stroke-width="__RESOLUTION__" d="m3 12 .5-.2M0 13.4 3 12" vector-effect="non-scaling-stroke"/><path fill="none" stroke="#4f3c1e" stroke-linecap="round" stroke-linejoin="round" stroke-width="__RESOLUTION__" d="M28.6 67.6.1 81.2" vector-effect="non-scaling-stroke"/></g><g id="t"><path fill="#b8cdb8" d="M.9 5.3q3.3-7.8 8.9-3.9l13.9 7q-4-1.5-7.6 4.5Q7.9 9.9.9 5.4"/><path fill="#7da98d" d="M.9 5.3q7 4.5 15.2 7.7 3.6-6 7.6-4.6l1.8.9-1.2 2q-2.8-2.4-7.1 3.4L16 16.6 1.3 8.8.1 6.7zM16 14.8"/><path fill="none" stroke="#220f03" stroke-linecap="round" stroke-linejoin="round" stroke-opacity=".6" stroke-width="__RESOLUTION__" d="m23.7 8.4-14-7Q4.3-2.5 1 5.3L.1 6.7l1.3 2.1L16 16.5l1.1-1.7m6.6-6.4 1.8.9m0 0-1.2 2q-2.8-2.4-7.1 3.4" vector-effect="non-scaling-stroke"/></g><g id="s"><path fill="#507162" d="M9.3.4 17.2 4 16 5.5l-6.6 7.8Q3.6 12 .1 8.9z"/><path fill="#203a2b" d="m16 5.5-1 3.4-4.7 6.6H8.9l-8.4-4L0 8.9q3.5 3.3 9.3 4.4z"/><path fill="none" stroke="#000" stroke-linecap="round" stroke-linejoin="round" stroke-opacity=".6" stroke-width="__RESOLUTION__" d="m16 5.5-1 3.4-4.7 6.6h0m0 0H8.9l-8.4-4L0 8.9 9.3.4l.2-.3" vector-effect="non-scaling-stroke"/></g><g id="r"><path fill="#4e6e5e" d="M9.3.4 17.2 4 16 5.5l-6.6 7.8Q3.6 12 .1 8.9z"/><path fill="#1f3829" d="m16 5.5-1 3.4-4.7 6.6H8.9l-8.4-4L0 8.9q3.5 3.3 9.3 4.4z"/><path fill="none" stroke="#000" stroke-linecap="round" stroke-linejoin="round" stroke-opacity=".6" stroke-width="__RESOLUTION__" d="m16 5.5-1 3.4-4.7 6.6h0m0 0H8.9l-8.4-4L0 8.9 9.3.4l.2-.3" vector-effect="non-scaling-stroke"/></g><g id="y"><path fill="#c3d4c0" d="M.9 5.3q3.3-7.8 8.9-3.9l13.9 7q-4-1.5-7.6 4.5Q7.9 9.9.9 5.4"/><path fill="#90b49a" d="M.9 5.3q7 4.5 15.2 7.7 3.6-6 7.6-4.6l1.8.9-1.2 2q-2.8-2.4-7.1 3.4L16 16.6 1.3 8.8.1 6.7zM16 14.8"/><path fill="none" stroke="#412f23" stroke-linecap="round" stroke-linejoin="round" stroke-opacity=".6" stroke-width="__RESOLUTION__" d="m23.7 8.4-14-7Q4.3-2.5 1 5.3L.1 6.7l1.3 2.1L16 16.5l1.1-1.7m6.6-6.4 1.8.9m0 0-1.2 2q-2.8-2.4-7.1 3.4" vector-effect="non-scaling-stroke"/></g><g id="x"><path fill="#bcc3aa" d="M.9 5.3q3.3-7.8 8.9-3.9l13.9 7q-4-1.5-7.6 4.5Q7.9 9.9.9 5.4"/><path fill="#809e7e" d="M.9 5.3q7 4.5 15.2 7.7 3.6-6 7.6-4.6l1.8.9-1.2 2q-2.8-2.4-7.1 3.4L16 16.6 1.3 8.8.1 6.7zM16 14.8"/><path fill="none" stroke="#240300" stroke-linecap="round" stroke-linejoin="round" stroke-opacity=".6" stroke-width="__RESOLUTION__" d="m23.7 8.4-14-7Q4.3-2.5 1 5.3L.1 6.7l1.3 2.1L16 16.5l1.1-1.7m6.6-6.4 1.8.9m0 0-1.2 2q-2.8-2.4-7.1 3.4" vector-effect="non-scaling-stroke"/></g><g id="w"><path fill="#547767" d="M9.3.4 17.2 4 16 5.5l-6.6 7.8Q3.6 12 .1 8.9z"/><path fill="#223e2f" d="m16 5.5-1 3.4-4.7 6.6H8.9l-8.4-4L0 8.9q3.5 3.3 9.3 4.4z"/><path fill="none" stroke="#000" stroke-linecap="round" stroke-linejoin="round" stroke-opacity=".6" stroke-width="__RESOLUTION__" d="m16 5.5-1 3.4-4.7 6.6h0m0 0H8.9l-8.4-4L0 8.9 9.3.4l.2-.3" vector-effect="non-scaling-stroke"/></g><g id="v"><path fill="#4b6b5b" d="M9.3.4 17.2 4 16 5.5l-6.6 7.8Q3.6 12 .1 8.9z"/><path fill="#1d3627" d="m16 5.5-1 3.4-4.7 6.6H8.9l-8.4-4L0 8.9q3.5 3.3 9.3 4.4z"/><path fill="none" stroke="#000" stroke-linecap="round" stroke-linejoin="round" stroke-opacity=".6" stroke-width="__RESOLUTION__" d="m16 5.5-1 3.4-4.7 6.6h0m0 0H8.9l-8.4-4L0 8.9 9.3.4l.2-.3" vector-effect="non-scaling-stroke"/></g><g id="H" transform="translate(28 103.45)"><use xlink:href="#a" width="29.3" height="81.3" transform="translate(-1.7 -67.6)"/><use xlink:href="#b" width="26.9" height="74" transform="matrix(-1.1 .69 0 .93 26.1 -70.05)"/><use xlink:href="#c" width="14.1" height="17.3" transform="matrix(-1 0 0 1 24.75 -62.05)"/><use xlink:href="#d" width="37.9" height="25.8" transform="matrix(-1 0 0 1 22.45 -89.8)"/><use xlink:href="#e" width="17.2" height="15.7" transform="matrix(-1.12 -.03 .17 1.23 33.15 -77.3)"/><use xlink:href="#f" width="17.2" height="15.7" transform="matrix(-1.11 -.09 .11 1.24 21.95 -75.25)"/><use xlink:href="#g" width="25.7" height="12" transform="matrix(-1 0 0 1 15.5 -89.6)"/><use xlink:href="#h" width="17.2" height="15.7" transform="matrix(-1.15 .13 .36 1.24 25.9 -87.45)"/><use xlink:href="#i" width="17.2" height="15.7" transform="matrix(-1.08 .06 .27 1.17 18.2 -93.15)"/><use xlink:href="#j" width="17.2" height="15.7" transform="matrix(-1.08 .28 .38 .78 16.85 -67.25)"/><use xlink:href="#k" width="17.2" height="15.7" transform="matrix(-1.11 -.09 .11 1.24 16.55 -82.1)"/><use xlink:href="#l" width="17.2" height="15.7" transform="matrix(-1.16 -.08 .12 1.1 10.65 -73.55)"/><use xlink:href="#k" width="17.2" height="15.7" transform="matrix(-1.08 -.08 .11 1.2 9.7 -91.05)"/><use xlink:href="#m" width="17.2" height="15.7" transform="matrix(-1.08 -.08 .36 1.22 -1.1 -85)"/><use xlink:href="#n" width="25.7" height="12" transform="matrix(-1 0 0 1 15.5 -89.6)"/><use xlink:href="#o" width="25.6" height="16.6" transform="matrix(-.99 .06 .04 .99 15.5 -99.9)"/><use xlink:href="#p" width="25.6" height="16.6" transform="matrix(-.93 -.2 -.31 .94 11.45 -93.8)"/><use xlink:href="#q" width="25.6" height="16.6" transform="matrix(-.98 .12 .11 .98 -2.85 -93.2)"/></g><g id="F" transform="translate(28 103.45)"><use xlink:href="#a" width="29.3" height="81.3" transform="translate(-1.7 -67.6)"/><use xlink:href="#b" width="26.9" height="74" transform="matrix(-1.1 .69 0 .93 26.1 -70.05)"/><use xlink:href="#c" width="14.1" height="17.3" transform="matrix(-1 0 0 1 24.75 -62.05)"/><use xlink:href="#e" width="17.2" height="15.7" transform="matrix(-1.09 .23 .45 1.16 30.8 -77.8)"/><use xlink:href="#f" width="17.2" height="15.7" transform="matrix(-1.11 -.09 .11 1.24 21.05 -73.85)"/><use xlink:href="#r" width="17.2" height="15.7" transform="matrix(-1.11 -.13 .06 1.24 12.35 -66.05)"/><use xlink:href="#g" width="25.7" height="12" transform="matrix(-1 0 0 1 15.5 -89.6)"/><use xlink:href="#h" width="17.2" height="15.7" transform="matrix(-1.16 -.09 .12 1.29 26.8 -85.15)"/><use xlink:href="#s" width="17.2" height="15.7" transform="matrix(-1.16 -.09 .12 1.29 13.8 -83.9)"/><use xlink:href="#l" width="17.2" height="15.7" transform="matrix(-1.16 -.09 .12 1.29 10 -74.9)"/><use xlink:href="#i" width="17.2" height="15.7" transform="matrix(-1.08 -.08 .11 1.2 19.5 -92.75)"/><use xlink:href="#k" width="17.2" height="15.7" transform="matrix(-1.08 -.08 .11 1.2 9.7 -91.05)"/><use xlink:href="#m" width="17.2" height="15.7" transform="matrix(-1.08 -.08 .11 1.2 .95 -84.85)"/><use xlink:href="#n" width="25.7" height="12" transform="matrix(-1 0 0 1 15.5 -89.6)"/><use xlink:href="#o" width="25.6" height="16.6" transform="matrix(-.98 -.13 -.14 .98 17 -97.45)"/><use xlink:href="#p" width="25.6" height="16.6" transform="matrix(-.95 .04 -.07 .99 9.7 -97.3)"/><use xlink:href="#t" width="25.6" height="16.6" transform="matrix(-.98 .12 .11 .98 -2.85 -92.2)"/></g><g id="C" transform="translate(28 103.45)"><use xlink:href="#a" width="29.3" height="81.3" transform="translate(-1.7 -67.6)"/><use xlink:href="#b" width="26.9" height="74" transform="matrix(-1.1 .69 0 .93 26.1 -70.05)"/><use xlink:href="#c" width="14.1" height="17.3" transform="matrix(-1 0 0 1 24.75 -62.05)"/><use xlink:href="#u" width="37.9" height="25.8" transform="matrix(-1 0 0 1 22.45 -89.8)"/><use xlink:href="#v" width="17.2" height="15.7" transform="matrix(-1.11 -.09 .11 1.24 31.2 -75.6)"/><use xlink:href="#w" width="17.2" height="15.7" transform="matrix(-1.11 -.09 .11 1.24 21.05 -73.85)"/><use xlink:href="#r" width="17.2" height="15.7" transform="matrix(-1.11 -.09 .11 1.24 14.15 -67.35)"/><use xlink:href="#g" width="25.7" height="12" transform="matrix(-1 0 0 1 15.5 -89.6)"/><use xlink:href="#h" width="17.2" height="15.7" transform="matrix(-1.16 -.09 .12 1.29 24.7 -86.95)"/><use xlink:href="#l" width="17.2" height="15.7" transform="matrix(-1.16 -.09 .12 1.29 7.55 -76.1)"/><use xlink:href="#k" width="17.2" height="15.7" transform="matrix(-1.08 -.08 .11 1.2 9.7 -91.05)"/><use xlink:href="#r" width="17.2" height="15.7" transform="matrix(-1.08 -.08 .11 1.2 2.95 -84.8)"/><use xlink:href="#h" width="17.2" height="15.7" transform="matrix(1.03 -.53 .01 -.31 -27 -81.4)"/><use xlink:href="#k" width="17.2" height="15.7" transform="matrix(.96 -.49 .02 -.36 -18.1 -84.1)"/><use xlink:href="#r" width="17.2" height="15.7" transform="matrix(.96 -.49 .02 -.47 -8.65 -87.6)"/><use xlink:href="#n" width="25.7" height="12" transform="matrix(-1 0 0 1 15.5 -89.6)"/><use xlink:href="#x" width="25.6" height="16.6" transform="matrix(-.98 -.13 -.14 .98 17 -97.45)"/><use xlink:href="#y" width="25.6" height="16.6" transform="matrix(-.98 .12 .11 .98 -1.5 -93.25)"/></g><g id="B"><path fill="#6f5925" d="m28.9 1.6.4.2.4.2-.3 1.9L8.1 33.5l-2.4.4zM16.9 19 29.3 1.8z"/><path fill="#987a41" d="M5.7 33.9.1 30.8 25.8.1l1.5.8 1.6.7zm18-28.4L27.3.9zM6 29.6l-2.3 2.8z"/><path fill="none" stroke="#543816" stroke-linecap="round" stroke-linejoin="round" stroke-width="__RESOLUTION__" d="m28.9 1.6.4.2L16.9 19M.1 30.8 25.8.1l1.5.8 1.6.7M27.3.9l-3.7 4.6m-20 26.9L6 29.6" vector-effect="non-scaling-stroke"/><path fill="none" stroke="#150200" stroke-linecap="round" stroke-linejoin="round" stroke-width="__RESOLUTION__" d="m29.3 1.8.4.2-.3 1.9L8.1 33.5l-2.4.4-5.6-3.1" vector-effect="non-scaling-stroke"/></g><g id="A"><path fill="#5b8170" d="M9.3.4 17.2 4 16 5.5l-6.6 7.8Q3.6 12 .1 8.9z"/><path fill="#264435" d="m16 5.5-1 3.4-4.7 6.6H8.9l-8.4-4L0 8.9q3.5 3.3 9.3 4.4z"/><path fill="none" stroke="#000" stroke-linecap="round" stroke-linejoin="round" stroke-opacity=".6" stroke-width="__RESOLUTION__" d="m16 5.5-1 3.4-4.7 6.6h0m0 0H8.9l-8.4-4L0 8.9 9.3.4l.2-.3" vector-effect="non-scaling-stroke"/></g><path id="n" fill="#0d422d" fill-opacity=".4" d="M8.7-77.3 1-80.9 0-80l-7.5-4-.8 1.5-7-3.5 1.9-3.3 23.8 8.2z" transform="translate(15.25 89.3)"/><path id="g" fill="#001808" fill-opacity=".4" d="M8.7-77.3 1-80.9 0-80l-7.5-4-.8 1.5-7-3.5 1.9-3.3 23.8 8.2z" transform="translate(15.25 89.3)"/><path id="d" fill="#1e3220" d="M15.7-78.1Q0-64.5 5-63.8h-17.7l-9.5-12.9h-.1l8.3-8.7q4.1-6.7 12-2.4z" transform="translate(22.2 89.5)"/><path id="u" fill="#1e3220" d="M15.7-78.1 6.4-63.8h-19l-9.5-12.9h-.1l8.3-8.7q4.1-6.7 12-2.4z" transform="translate(22.2 89.5)"/><path id="D" fill="#8d7234" d="m-9.3-31.8 4.6 2.5v-3l-1.6-11.6 2.2-6.2.8 12.5 2.4 14.3L-2.7-9 0-5-.8-.5 3 11.9l-5.8 1.4.9-5.9-3-24.2V-26z" transform="translate(9.35 50.1)"/><clipPath id="z"><path d="M1 1h82v116H1z"/></clipPath><clipPath id="E"><path d="M84 1h82v116H84z"/></clipPath><clipPath id="G"><path d="M167 1h82v116h-82z"/></clipPath></defs><g clip-path="url(#z)"><g transform="translate(37.95 99.5)"><use xlink:href="#A" width="17.2" height="15.7" transform="matrix(-.1107 .5965 1.2462 .1611 24.95 -87.65)"/><use xlink:href="#r" width="17.2" height="15.7" transform="matrix(-.6885 .3028 1.1315 .705 16.5 -92.15)"/><use xlink:href="#r" width="17.2" height="15.7" transform="matrix(-.6396 .2812 1.051 .6548 6.85 -95.75)"/><use xlink:href="#r" width="17.2" height="15.7" transform="matrix(-1.0966 .0817 .6296 .9393 31.5 -82.85)"/><use xlink:href="#l" width="17.2" height="15.7" transform="matrix(-1.1422 .0852 .6558 .9784 21.5 -88.75)"/><use xlink:href="#r" width="17.2" height="15.7" transform="matrix(-1.0609 .0791 .6092 .9087 13.45 -94.75)"/><use xlink:href="#B" width="29.9" height="34" transform="matrix(-.4621 .1348 .172 .2446 11.4 -98.05)"/><use xlink:href="#B" width="29.9" height="34" transform="matrix(-1 0 .0869 .9586 31.1 -91.85)"/><use xlink:href="#C" width="65.8" height="121" transform="matrix(1 0 .0869 .9586 -36.95 -98.5)"/><use xlink:href="#D" width="12.4" height="63.4" transform="translate(-9.35 -50.1)"/></g></g><g clip-path="url(#E)"><g transform="translate(120.95 99.5)"><use xlink:href="#A" width="17.2" height="15.7" transform="matrix(-.1107 .5965 1.2462 .1611 24.95 -87.65)"/><use xlink:href="#r" width="17.2" height="15.7" transform="matrix(-.6885 .3028 1.1315 .705 16.5 -92.15)"/><use xlink:href="#r" width="17.2" height="15.7" transform="matrix(-.6396 .2812 1.051 .6548 6.85 -95.75)"/><use xlink:href="#r" width="17.2" height="15.7" transform="matrix(-1.0966 .0817 .6296 .9393 31.5 -82.85)"/><use xlink:href="#l" width="17.2" height="15.7" transform="matrix(-1.1422 .0852 .6558 .9784 21.5 -88.75)"/><use xlink:href="#r" width="17.2" height="15.7" transform="matrix(-1.0609 .0791 .6092 .9087 13.45 -94.75)"/><use xlink:href="#B" width="29.9" height="34" transform="matrix(-.4621 .1348 .172 .2446 11.4 -98.05)"/><use xlink:href="#B" width="29.9" height="34" transform="matrix(-1 0 .0869 .9586 31.1 -91.85)"/><use xlink:href="#F" width="65.8" height="121" transform="matrix(1 0 .0869 .9586 -36.95 -98.5)"/><use xlink:href="#D" width="12.4" height="63.4" transform="translate(-9.35 -50.1)"/></g></g><g clip-path="url(#G)"><g transform="translate(203.95 99.5)"><use xlink:href="#A" width="17.2" height="15.7" transform="matrix(-.1107 .5965 1.2462 .1611 24.95 -87.65)"/><use xlink:href="#r" width="17.2" height="15.7" transform="matrix(-.6885 .3028 1.1315 .705 16.5 -92.15)"/><use xlink:href="#r" width="17.2" height="15.7" transform="matrix(-.6396 .2812 1.051 .6548 6.85 -95.75)"/><use xlink:href="#r" width="17.2" height="15.7" transform="matrix(-1.0966 .0817 .6296 .9393 31.5 -82.85)"/><use xlink:href="#l" width="17.2" height="15.7" transform="matrix(-1.1422 .0852 .6558 .9784 21.5 -88.75)"/><use xlink:href="#r" width="17.2" height="15.7" transform="matrix(-1.0609 .0791 .6092 .9087 13.45 -94.75)"/><use xlink:href="#B" width="29.9" height="34" transform="matrix(-.4621 .1348 .172 .2446 11.4 -98.05)"/><use xlink:href="#B" width="29.9" height="34" transform="matrix(-1 0 .0869 .9586 31.1 -91.85)"/><use xlink:href="#H" width="65.8" height="121" transform="matrix(1 0 .0869 .9586 -36.95 -98.5)"/><use xlink:href="#D" width="12.4" height="63.4" transform="translate(-9.35 -50.1)"/></g></g></svg>