<svg xmlns="http://www.w3.org/2000/svg" xmlns:xlink="http://www.w3.org/1999/xlink" width="185" height="307" viewBox="0 0 185 307"><defs><g id="b"><path fill="#40270b" d="M21 4.2 29.3 0 32 1.6l-1.2.7q-5 1.5-6.5 2.4l-2.9 2q-1.4.9-2.7 1.2l-9.8 3.8-3.2 1.2q-1.4.6-1.6 1.5l1.4.7v2.5q-1 2.1-.7 6Q3.6 31.2 3.6 35q0 2.2 1.9 9.6v12.3l-1.6-1-.1-7q0-1.1-1-4.9V28.6q.6-1.5.6-2.9 0-5.9-.6-8.6v-3.7l7.5-3.8 3.2-.7q2.3-.2 6-3.5zm-7.2 12.5 1.2-.6.2 8.6v1.4l-1.2-.5zM14 31l1.2-.7v11l-1.2-1z"/><path fill="#885b00" d="M32 1.6v2.9L31 5l-2.6.3h-3.5l6-3zm0 5.7v25q-1.3-2.2-1.3-3.8l.4-9.6-.4-5.6-.5-5zm0 32.4v1.4l-2 1-1.7.8-1.4.8-4.9 2.6-.6.5q-4.7 3.5-6.8 4.5-1.5.6-3 2.4L9 55.1v-1h-.2q-1.7 0-3.3.6v-1.5q1.8-.5 3.6-1.3l3-1.6 4-2 .3-.2 12-6v-1.3l1.6-.2 1.3-.5zM27.9 9.5l1.8-.9.4 9.2q0 1.3-.5 1.6l-.6-1-.3-.9-.3-.6-.5-1.1zm0 16.6q.5 2 1.3 4.2l.5 2.5.6 5.4-1.8.9-.6-.6z"/><path fill="#960" d="M32 4.5v2l-3.6.8q-6 1.7-11.7 5.3-3.4 2.4-6.1 4l-1.9 1q.4.3.6 1.3l-.9.4-.1.1-1 .5-.9.5-.9.4v-4.4l.5-.1.6-.3h.2l2.9-1.5 3.2-1.9q2.6-1.8 5-3.9l6.9-3.4h3.5L31 5zm0 32.8v2.4l-.7.4-1.4.4-1.5.3v-1.7l1.8-.9zm0 3.8v2L11.7 53.7q1.4-1.8 2.8-2.4 2.1-1 6.9-4.5l.6-.5 5-2.6 1.3-.8 1.8-.8zm-23 14-3.5 1.8v-2.2q1.6-.7 3.3-.7l.3.1v.4zm2-4.2 1.1-.6-3 1.6q-1.8.8-3.6 1.3v-2.4l2-1.1 1.8-1 1.1-.6v2.5z"/><path fill="#795200" d="M32 6.5v.8l-1.8 1-.4.2-.2.1-1.8 1-2.7 1.3-.1.1-1.6.8-5.5 2.8-1.9.9-.2.1-.9.4v.1l-1.2.6-3.3 1.6-1.2.6q-.1-1-.5-1.4l1.9-1q2.7-1.5 6-3.9Q22.5 9 28.5 7.3zM5.5 15.1v-.2L18 8.7q-2.5 2.1-5.1 3.9l-3.2 1.9-3 1.4v.1l-.7.3-.5.1zm1 5.3.8-.5-.1.4q.3 4.9.6 5.5l.3-.1.2-3.8v-2.5h.1l.8-.5.1.5.1 2.9q0 6-1.2 8.2l-.4 1.1q-.7 2-.7 4.7 1.2 7.3 1.2 10.3v.1q-.1 1-.7 3l-2.1 1.1v-2l.8-1.7q.5-1 .5-2.7L5.9 30q0-3.5.3-6.2.4-2 .2-3.4m2.8 28.3.6-3.8.2-.8.1-1.2.3-.2v5.4zm-.6-14.4h.3q1 6.4 1 7.3 0 1.2-.4 1.6l-.1.1-.3.1q-.3 0-.6-.8-.4-1-.4-3.3l.1-1z"/><path fill="#98630c" d="M32 32.3v5l-1.8 1-.6-5.5-.5-2.5-1.3-4.2V15.8l.5 1.1.3.6.3 1 .6.9q.6-.3.6-1.6l-.5-9.2.1-.1.5-.2.5 5 .4 5.6-.4 9.6q0 1.6 1.3 3.8"/><path fill="#2f1d09" d="m3.9 55.9-1.1-.7V44q1 3.8 1 5zM2.8 28.5V17q.6 2.8.6 8.6 0 1.4-.6 2.9m7.5-19 10.6-5.3-1.4 1.1q-3.7 3.3-6 3.5zm20.5-7.2-6 3-6.9 3.4-12.4 6.2v.2l-1.4-.7q.2-.9 1.6-1.5l3.2-1.2 9.8-3.8q1.3-.3 2.7-1.3l3-1.9q1.4-.9 6.4-2.4M5.5 17.6v27Q3.6 37.2 3.6 35q0-3.8 1.2-11.5-.2-3.8.7-5.9"/><path fill="#8c5b0b" d="m9.3 18.9 1.1-.6v24.4l-.3.2-.1 1.2-.2.8-.6 3.8-1.6 1q.6-2 .7-3 0-3.2-1.2-10.4 0-2.7.7-4.7l.5-1q1.1-2.4 1.1-8.3v-2.9zm-3.7 2 1-.5-.2 3.4Q6 26.5 6 30l.9 14.4q0 1.7-.5 2.7l-.8 1.6zm1.8-.9 1-.5V22l-.2 3.8-.3.1q-.3-.6-.6-5.5zm1.4 14.4-.4 4v1q0 2.3.3 3.3.3.8.6.8h.3l.1-.2q.3-.4.3-1.6 0-.9-.9-7.4z"/><path fill="#323401" d="m10.4 18.3 3.3-1.6.3 8.9-3.6 1.7zm7.5-3.7 5.5-2.8v9l-5.5 2.8zm-7.5 26v-7.9l2.5-1.2 1-.5v7.9zm7.5-3.7v-8l4.5-2.3 1-.5v8z"/><path fill="#543c16" d="m14.9 16.1 1-.5-.4 2.7.3 3.6q0 1.9-.7 2.8zm-4.5 16.6v-1.3l.9-.2 1.6.3zm0-3.2v-.9l3.4-1.7 2 1zm7.5 4.1-.4-.7q-.7-1.5-.7-3v-3.4q.1-2.7.4-4 .5-2.1.5-4l.1-2.6v9l.3-.2v1.8l1.5-.5 2.3.5.5.1-4.5 2.3zm1.8-9.6 7.3-3.7v1.3l-2.3 1.6-1.2.8q-1 .6-1.6.6-1 0-2.2-.6M15 33.4q.7.5 1 1.5l.3 1.2.5 4.3-1.7.9H15z"/><path fill="#65481b" d="m15.9 15.6 1.9-1V16h-.1l-.1 2.6q0 1.9-.4 4-.4 1.3-.4 4l-.1 3.3q0 1.6.6 3l.1.1.4.7v6.2l-1 .6-.4-4.3L16 35q-.3-1-1-1.5v-3l-1.2.6-1 .5-1.6-.3-.9.2v-1.9l5.4-1.7-2-.9 1.5-.7H15v-1.5q.7-.9.7-2.8l-.3-3.6zm2.3 9.1 1.5-.7q1.3.6 2.3.6.6 0 1.6-.6l1.2-.8 2.3-1.6v2.7l-1.9 1-1.7.8-1 .5-.5-.1-2.3-.5-1.5.5z"/><path fill="#a9702c" d="M23.4 11.8 25 11l.1-.1 2.7-1.4v7.7zm4.4 10v8l-2.7-4.6 1.8-.9v-4z"/><path fill="#d3ac6b" d="M27.9 17.3v4.5l-1-1.5-1.3-.8-2.2 1.2v-8.9zm0 20.6v.7l-.6-.6-2.6-2.7-.2-.1-1-1v-8l1.8-.9 2.6 4.6z"/><path fill="#d09f2f" d="m23.4 20.7 2.2-1.2 1.3.8-7.2 3.7-1.6.7-.2.2v-1.3zm-13 7.8v-1.3l3.5-1.7 1.2.5.2.1-1.5.7z"/><path fill="#e0c28f" d="m27.9 38.5.5.6-3.1 1.6-2.7 1.3-2-1.4 3.1-1.8q1.9-.7 3.5-.9zm-8.4 5.1-1.5.8-.1.1L11 48l-.5-.6v-.2q1.5-1.5 4.9-2.7 1.9-.6 3-1.5zm-1.5-5v-1.7l5.5-2.9 1 1.1.2.1q-2.4 3.1-6.7 3.4m-6.1 5.3q0-1.2 1.2-1.4h.3l2.1-.3.8.4q-.7 2.1-3.8 2.1-.6 0-.6-.8"/><path fill="#886f44" d="M28.4 39.1v1.1l-3.1.5zm-10.6 5.4v.4q0 1.8-2.8 2.8L11 49v-1z"/><path fill="#95784a" d="M28.4 40.8v1.3l-12 6-.4.2-3.9 2-1.2.6V49l4.1-1.3q2.8-1 2.8-2.8v-.4l1.6-.9 3.3-1.6 2.6-1.3 3.1-.5z"/><path fill="#b88547" d="m22.7 42-3.2 1.6-1.1-.6-3.2-1.7 1.7-.9 1-.6v-1l2.8 1.8z"/><path fill="#a38452" d="M11 49v1.9l-.6-.3v-3.2l.5.6z"/><path fill="#e8d1ac" d="M10.4 42.7v-2l3.5-1.8v1.4l1.2 1 3.3 1.8q-1.2.8-3.1 1.4-3.4 1.2-4.9 2.7zm7.5-4v-.1q4.4-.3 6.7-3.4l2.6 2.7q-1.6.1-3.5 1l-3 1.7zM11.8 44q0 .8.6.8 3 0 3.9-2l-.9-.5-2.2.3H13q-1.2.2-1.2 1.4"/><path fill="none" stroke="#231b16" stroke-linecap="round" stroke-linejoin="round" stroke-width="__RESOLUTION__" d="M21 4.2 29.3 0 32 1.6M5.5 57l-1.6-1-1.1-.7v-42l7.5-3.8 10.6-5.3m2.5 16.5 2.2-1.2 1.3.8v4l-1.7 1-1.8.8-1 .5-4.5 2.3v10.9l-1 .6-1.7.9H15m2.8-25.4v-1.3m5.5 6.1-5.5 2.8v1.3M14.9 26l-1.2-.6-3.5 1.7m2.5 4.2 1-.5 1.2-.7m-2.2 1.2-2.5 1.2m7.5-9.1v-7.7" vector-effect="non-scaling-stroke"/><path fill="none" stroke="#533e0d" stroke-linecap="round" stroke-linejoin="round" stroke-width="__RESOLUTION__" d="M32 1.6v41.5L11.7 53.7 9 55.1l-3.5 1.8v-7.1M32.1 1.6l-1.3.7-6 3-6.9 3.4-12.4 6.2v5.9l1-.4.8-.5 1-.5m19.5-9.9 1.8-.9m.1-.1.5-.2 1.8-1M9.3 18.9l1.1-.6h0l3.3-1.6 1.2-.6h0l1-.5m.1-.1 1.9-1v.1l5.5-2.8L25 11m.1-.1 2.7-1.4v.4m0 .3v27.6m2.4.4 1.8-.9m-4.2.5v.7l.6.6 1.8-.9m-1.8 2V39m-12 9 12-6v-1.9M11 50.9l1.1-.6 4-2m-7.7-29 .8-.4M7.7 49.7l1.7-1 1.1-.6V18.3m-4.9 2.5v23.8m0 1.6v2.5m19-13.6-1.1-1m3.8 3.8-2.6-2.7m2.6 2.7.6.6m-17.4 9.6v2.5l.5.3m-5.4 0 2-1.2" vector-effect="non-scaling-stroke"/><path fill="none" stroke="#95784a" stroke-linecap="round" stroke-linejoin="round" stroke-width="__RESOLUTION__" d="M23.4 11.8v9m0 13.2v-7.9m0 8-5.5 2.8m-4 2-3.5 1.7" vector-effect="non-scaling-stroke"/><path fill="none" stroke="#65481b" stroke-linecap="round" stroke-linejoin="round" stroke-width="__RESOLUTION__" d="m10.4 47.4.5.6" vector-effect="non-scaling-stroke"/><path fill="#000" fill-opacity=".3" d="M30.8 46.9 4.1 60 0 57.6V17l2.8-3.7v41.8l2.8 1.6L32 43.2zm-3.5-2.3-18 8.8v-4.3l1.1-1.7.1 3.3.3.1 17-8.6z"/></g><g id="z"><path fill="#5a482d" d="m9.4 39.2 1.8 2v5.5l-11 5.7v-8.5z"/><path fill="none" stroke="#000" stroke-linecap="round" stroke-linejoin="round" stroke-opacity=".3" stroke-width="__RESOLUTION__" d="m.2 43.9 9.2-4.7" vector-effect="non-scaling-stroke"/><path fill="#5a482d" d="m13.5 56.4 1.1 1.3v3.5l-7 3.6v-5.3z"/><path fill="none" stroke="#000" stroke-linecap="round" stroke-linejoin="round" stroke-opacity=".3" stroke-width="__RESOLUTION__" d="m7.6 59.5 5.9-3.1" vector-effect="non-scaling-stroke"/><path fill="#5a482d" d="m49.3 26.3 1.1 1.3v3.5l-7 3.6v-5.3z"/><path fill="none" stroke="#000" stroke-linecap="round" stroke-linejoin="round" stroke-opacity=".3" stroke-width="__RESOLUTION__" d="m43.4 29.4 5.9-3.1" vector-effect="non-scaling-stroke"/><path fill="#504027" d="m22.6.2 1 1.3V5l-6.9 3.6V3.2z"/><path fill="none" stroke="#000" stroke-linecap="round" stroke-linejoin="round" stroke-opacity=".3" stroke-width="__RESOLUTION__" d="m16.7 3.2 5.9-3" vector-effect="non-scaling-stroke"/></g><g id="y"><path fill="#ece6d7" d="M33.3 46v8.4l-11-5.6v-5.5l1.8-2.1z"/><path fill="none" stroke="#000" stroke-linecap="round" stroke-linejoin="round" stroke-opacity=".3" stroke-width="__RESOLUTION__" d="m33.3 46-9.2-4.8" vector-effect="non-scaling-stroke"/><path fill="#cec29b" d="M38.6 7.8v6.3L30.4 10V5.8l1.4-1.5z"/><path fill="none" stroke="#000" stroke-linecap="round" stroke-linejoin="round" stroke-opacity=".3" stroke-width="__RESOLUTION__" d="m38.6 7.8-6.9-3.5" vector-effect="non-scaling-stroke"/><path fill="#cec29b" d="M45 20.6v5l-6.4-3.4V19l1-1.2z"/><path fill="none" stroke="#000" stroke-linecap="round" stroke-linejoin="round" stroke-opacity=".3" stroke-width="__RESOLUTION__" d="m45 20.6-5.4-2.8" vector-effect="non-scaling-stroke"/><path fill="#8b826a" d="M52.1 3.8V10l-8.2-4.2V1.7L45.3.1z"/><path fill="none" stroke="#000" stroke-linecap="round" stroke-linejoin="round" stroke-opacity=".3" stroke-width="__RESOLUTION__" d="M52.1 3.8 45.2 0" vector-effect="non-scaling-stroke"/><path fill="#ece6d7" d="M47.8 69.7v6.6l-8.6-4.5v-4.3l1.4-1.6z"/><path fill="none" stroke="#000" stroke-linecap="round" stroke-linejoin="round" stroke-opacity=".3" stroke-width="__RESOLUTION__" d="m47.8 69.7-7.2-3.8" vector-effect="non-scaling-stroke"/><path fill="#ece6d7" d="M11 55.5v8.4L0 58.4v-5.5l1.8-2z"/><path fill="none" stroke="#000" stroke-linecap="round" stroke-linejoin="round" stroke-opacity=".3" stroke-width="__RESOLUTION__" d="m11 55.5-9.2-4.7" vector-effect="non-scaling-stroke"/></g><g id="x"><path fill="#333" d="M77.4 80.8q1.5-2.7 11.3.6 9.7 3.3 21.8 10.6 12.2 7.4 19.7 14.4t5.9 9.6-11.3-.7-21.9-10.6-19.6-14.4-5.9-9.5"/><path fill="none" stroke="#000" stroke-linecap="round" stroke-linejoin="round" stroke-width="7" d="m78.5 117.5-2.1 24.3m-3 2.1-7.7 7.2m12.1-8.1.4 5.3m-2.3-7.5-17.8 3.6"/><path fill="none" stroke="#fc0" stroke-linecap="round" stroke-linejoin="round" stroke-width="5" d="m78.4 140.7.3 5.3m-4.7-4.4-7.6 7.2M80 96.7l-3 42.9m-.5-1.1-17.8 3.6"/><path fill="none" stroke="#000" stroke-linecap="round" stroke-linejoin="round" stroke-width="7" d="m84 126.8-2 24.3m-3 2.1-7.5 7.3m11.9-8.2.4 5.3m-2.3-7.5-17.7 3.8"/><path fill="none" stroke="#fc0" stroke-linecap="round" stroke-linejoin="round" stroke-width="5" d="m85.3 106-2.7 42.8m-3 2-7.5 7.3m12-8.2.4 5.3m-2.3-7.5-17.8 3.8"/><path fill="#333" d="m70.3 102 1.1.4q1 1.4 1.3 2.9l.1-.1.2-.7v-.7l.8-.6 1-.4.1-.1 1.2.5.6 1.1v-.5l.8-.6 1-.4.1-.1 1.2.5.5 1.8.3-.7.3-.5q1.7-.7 3.1-.9l-.1-.5.9-1.2q.5-.4 1.2-.6 2 1.5 3.2 3.3l.4-.1.1-.2h.5l.4-.1v-.2l.7.3v-.2l.3-.2.9-.2v-.1l.6.3.6-1 .4-.2 1.2-.2q6.4 2.9 6.5 10.9v.6l.3.6.6.8.3.7v.7l.2.7.9 1.4.7 1.4-6-4.5-.7-.6v-1.4l-3-4-.3.5.4 1.3v.1q.5 2 .5 4.2l.3 1.3-.4 1.5-.1.6-1-.3-1.3-.5-.2.6-.6.6-.8.6q-1.6-2.1-2.1-4.6l-1.5 1.2-1 .6-1.2-.5-.2.3-.4.5-1 .7-1.2-.5-.6-2.7-.1-.1v-.4l-.5-2.4-1.8 2.5-.2.8 1.1.9-1.6.4-.3.8-.1.7-1.2-1.1-.5.1-.2-.6q-1-.3-1.9-1l-.2-.5-.8.7-2.4 2.1-.5.5-1 .2-.9-.6-.4.5v.3l-.4.1-.5.1q-.2-1 0-2V115l-.5-1.2.2-.7.3-.7q-1-1.7-.1-3.5v-.7l.3-.3.2-.4-.8-1.4-.1-.7.1-.6.6-.7.5-.2.2-1.2.5-.4zm15.4 4.6-.6-1 .6 1.3zm-18.3 1q0 5-2.1 9.7l-.2.7-1.7.6-.6-.6-.5-.7q.6-3.8.6-7.7v-1.3q1.3-1.5 2.9-1.9l1 .5z"/><path fill="#333" d="m93.4 56.7 3.2 2.8q8 8.1 8 19.5t-8 19.4-19.4 8.1q-11.5 0-19.5-8.1t-8-19.4q-.1-11.4 8-19.5 1.5-1.6 3.2-2.8z"/><path fill="#dfdfdf" d="M60.9 56.7q7-5.3 16.3-5.2 9.1 0 16.2 5.2z"/><path fill="#333" d="M87.3 99.6q-8 8-19.4 8t-19.5-8q-8-8.1-8-19.4 0-11.5 8-19.6l3.3-2.8H84l3.2 2.9q8.1 8 8.1 19.5 0 11.3-8.1 19.3"/><path fill="#dfdfdf" d="M44.3 56.7q-.4-2-.3-4.3-.1-3.4.7-6.5-1.1-1.6-1-3.6-.1-2.8 2-4.8 1.7-1.7 4-2l1.9-2.2q0-2.8 2-4.8t9.3-6.9 9.9-4.9-1 3.6q-1.7 1.7-3.5 4.8l3.2-.2q11.3 0 19.4 8 7.8 8 8 19.5v.6l-.2 3.7q-30.6 21.5-54.4 0"/><path fill="#ccc" d="M98.7 56.7q-1.3 8.6-7.8 15.1Q82.8 80 71.4 80T52 72q-6.4-6.6-7.6-15.2 23.8 21.5 54.4 0"/><path fill="#fff" d="M73.1 47.2q0 2.8-2 4.8t-4.8 2-4.9-2-2-4.8 2-4.9 4.9-2 4.8 2 2 4.9"/><path fill="#000" d="M61.5 52.6q-1.5 0-2.5-1.1-1.1-1.1-1.1-2.6t1-2.6q1.1-1 2.6-1t2.6 1 1 2.6-1 2.6q-1.1 1-2.6 1"/><path fill="#fc0" d="M39.8 77.8q-4.9 2.1-9.9 1.7-5-.3-7.2-3t-.4-6.2 6.7-5.5q4.8-2.2 9.8-1.9T46 66t.4 6.1q-1.8 3.5-6.6 5.7"/><path fill="#fc0" d="M44.1 70.8q-6.3 2.8-12.4 2.9t-8.4-2.5q-2.2-2.8.8-6.7 2.9-4 9.3-6.8 6.3-2.9 12.4-3 6-.2 8.3 2.6 2.2 2.7-.7 6.6-3 4-9.3 6.9"/><path fill="none" stroke="#be8e01" stroke-linecap="round" stroke-linejoin="round" stroke-width="3" d="M54.1 61.3q-.2 1.5-1.6 3.3-2.2 2.9-6.1 5.3 0 1.3-.9 3-1.8 3.4-6.6 5.5-4.9 2.2-9.8 1.8-5-.3-7.2-3t-.4-6.2l.2-.4"/><path fill="#999" d="M91.7 35Q98 41.3 98 50.3t-6.3 15-15.1 6.3q-7.8 0-13.6-4.9 4 2.3 9 2.3 7.8 0 13.3-5.5 5.4-5.4 5.4-13.1t-5.5-13.2-13.1-5.4q-5.6 0-10 2.8 6-5.7 14.5-5.7 8.9 0 15.1 6.2"/><path fill="#999" d="M89.6 34.7q8 4.8 10.7 14 2.7 9.5-2.2 18.2-4.8 8.6-14.4 11.3-9.5 2.7-18.2-2.1T54.2 61.7q-2.4-8.5 1.1-16.2-1.3 5 .3 10.5 2.3 8.3 9.9 12.6 7.5 4.2 15.9 1.9 8.3-2.5 12.5-10 4.3-7.6 1.9-15.8-1.7-6.1-6.2-10"/><path fill="#999" d="M78.7 48.3q-1.2-4-4.8-5.9-3.7-1.9-7.6-.7-4 1.2-6 4.8-1.8 3.7-.6 7.6.9 3 3 4.7-3.9-2.1-5.2-6.5t.8-8.7q2.2-4.2 6.8-5.6t8.7.8q4.2 2.3 5.6 6.8 1.2 4-.5 7.7.6-2.4-.2-5"/><path fill="#ccc" d="M88.9 32.1Q98 41.3 98 54.3t-9.2 22.1q-9.2 9.3-22.2 9.3t-22.2-9.3q-9.1-9.1-9.1-22.1t9.1-22.2 22.2-9.2 22.2 9.2"/><path fill="#fc0" d="M46.4 70.4q-1.2 9.6-17.6 9.5-8-.9-11.2 11.4Q4.3 89.4 1.4 77.7q-2.8-11.9 20-19l3.7-.4q23-1.7 21.3 12"/><path fill="#ccc" d="M58.2 8.2q3.3-5.3 5.2-4.6t1.2 6.8q-.6 6.2-3.5 14.3-2.8 8-6.1 13.3t-5.2 4.6q-2-.7-1.2-6.9.6-6.1 3.5-14.2 2.8-8 6.1-13.3m16.9 3.4q-.6 6.2-3.5 14.3-2.8 8-6.1 13.3-3.3 5.2-5.2 4.6T59 36.9q.6-6.1 3.5-14.2 2.8-8 6.1-13.3t5.2-4.6 1.2 6.8"/><path fill="#ccc" d="M78 5.9q3.3-5.3 5.2-4.6t1.2 6.8-3.5 14.3q-2.8 8-6.2 13.3-3.2 5.2-5.1 4.6-2-.7-1.2-6.9.6-6.1 3.5-14.1Q74.7 11 78 5.9"/><path fill="#000" d="M66.3 48.6q.8 1 .8 2.3 0 1.7-1.2 2.9T63 54.9t-2.8-1.1Q59 52.6 59 50.9q0-1.2.8-2.3l.4-.5Q61.5 47 63 47t2.8 1.1z"/><path fill="#666" d="m123.4 85.4 4.6 6.8.4.6 5.8.5q1.6-2.5 2.7-1.5l-1.3 1.5-.7.8-.3 1.4-.2.8-2.5 1.3q4 4.8 5.8 4.9 2.8 0-13.7 3.3l-14.5 1.9q13.9-12 13.9-22.3"/><path fill="#999" d="M109.5 107.7q-1.7 1-16.7-5.7 3-.4 6.4-1.7l.2-.5.3-.7 5.5-1.3-5.5-.2q-5.5-2.8-11.8-3-.7-.7-1.6-1l-2.9-1.3q-.5-6.1-3-11.9-.5-1.1-1.5-1.4l-1.5-.5q1.8-5 6.5-8.6 7.5-5.6 16.7-4.2 9.3 1.3 14.9 8.7l7.9 11q0 10.3-13.9 22.3"/><path fill="#333" d="M92.8 102q-9.4 1.3-16.6-6-.5-1.8-.3-3.7.2-1.2-.2-2.2l-2.2-3q-.6-1-.6-2-5.5-.8-10.9-2.6l-.6-.5-.4-1.5-.1-.7q.7-1.6 2.2-2.4l.8-.6 1.8-.5q6.1.8 11.7 2.3l1.5.4q1 .3 1.5 1.4 2.5 5.8 3 11.9l2.9 1.3q.9.3 1.6 1 6.3.2 11.8 3l5.5.2-5.5 1.3-.3.7-.2.5q-3.3 1.3-6.5 1.8"/><path fill="#333" d="M122.9 83q2.5 1.1 3 4l.3.7-.4.6-.6.8-1.3-.2-1.5-.3q-1.2-1.6-1.5-3.4l-.1-.8h.2-.4l-6.9-5-4.5-1-3.7-1.2q-6.7 2-11.8-1.8v-.7q0-1.3 1.4-1.9h.9v-.1q8.1.2 15 4.7l-5.7-4.1q-2.3.1-3.7-1.9-.5-1.4.3-2.7l.4-.7q1.3-1.4 3-1.4 8 5.7 14.8 13.5l.5.7.1 1.3.4 1.4.1.5v.1l.9-.7zM93.7 67.3q-.1 1.4-.8 2.7l-.4.8v.6l.3.8q-13 15.6-32.3 6.7l-.9-1q0-2.2 2.4-2.5 15.8 4.1 29.4-4.4.6-2.4 2.1-3.7z"/><path fill="none" stroke="#000" stroke-linecap="round" stroke-linejoin="round" stroke-opacity=".3" stroke-width="1" d="M95.9 40q2.5 3.4 3.8 7.9 2.1 7.6-.5 14.7l1.5 2.4 3.5.9h.5l.7.4q5.6 2.3 9.5 7.4l2.1 2.8 2.5 2.8.5.7v.8l1.4 1.9h0l.9-.4q2.5 1 3 4l.3.6-.4.7-.2.3 2.4 3.5.5.7 5.7.5q1.6-2.5 2.7-1.5l-1.3 1.4-.7.8-.3 1.5-.2.8-2.4 1.3q3.8 4.8 5.8 4.8 2.3.1-9.3 2.4l1.7 1.6q7.4 7 5.8 9.6-1.5 2.6-11.2-.7-7.6-2.5-16.6-7.5-2.5-.4-8.9-3 2.4 3 2.5 7.8v.7l.3.6.6.7.3.8v.6l.2.8.9 1.3.7 1.4-6-4.5-.7-.5v-1.4l-3-4-.3.4.4 1.4h0v.1q.5 2 .6 4.1l.2 1.4-.4 1.5-.1.6-1-.4-1.3-.5-.2.6-.6.7-.8.5q-1.6-2-2.1-4.5l-1.5 1.1-1 .6v1l-.3 6.7q.9 1 .8 2.5l-.5 6.5v.2l-1.2 14.4h0q.7.7.8 1.6v1l.5 1.3.3 5.4q.1 1.3-.8 2.5t-2.4 1.2q-1.4.1-2.5-.9t-1.3-2.3v-1l-6.3 6.1q-1.1 1-2.5 1t-2.4-1-1.1-2.5 1-2.5l.7-.6.6-1 .4-.3-6.2 1.3q-1.4.3-2.6-.5t-1.5-2.2.5-2.7l1-1 .3-.7.3-.4.8-1.1.6-.6q.1-.7.7-1.2l.4-.3-6.3 1.2q-1.4.3-2.6-.5t-1.5-2.2.5-2.6l1-1.1.4-.6q.6-1 1.6-1.2l15.2-3 1.7-19.5q0-.9.6-1.6l-.6-.4-.2-.4-.8.7-2.4 2.1-.5.4-1 .2-.9-.5-.4.5v.2l-.4.2-.5.1q-.2-1.1 0-2.1v-1.6L67 113l.2-.7.3-.6q-1-1.7-.2-3.5l.2-.3v-.4l.3-.3.1-.3h-1.1q0 5-2.1 9.6l-.2.7-1.7.7-.6-.7-.5-.7q.6-3.7.6-7.7v-1.3l1-.9q-8.8-1.2-15.4-7.8-8-8-8-19.4v-2.1l-1.7.6q.2.6-.1 1.1-.2.5-.8.8-4.4 1.5-8.8 1.2l-2.6-.4q-.6-.2-1-.7l-.1-.4q-5.3 1.7-7.7 11Q3.7 88.8.9 77q-3-11.8 20-19l3.6-.4q4-.2 7.3-.1l1-.5 2-.8v-2.6q0-13 9.1-22.2 2.7-2.6 5.7-4.5l1.9-6q2.8-8.1 6.1-13.4 3.3-5.2 5.2-4.5 1.9.6 1.2 6.8-.5 5.2-2.6 11.8l.9-.7h.1q2.7-7.3 5.7-12.2 3.3-5.2 5.2-4.5 1.8.6 1.3 6.2 1.4-2.9 2.8-5.2Q80.7 0 82.6.6t1.2 6.8q-.6 6.1-3.5 14.2L79.1 25l3 1.6q4.5 2 8.2 5.7 3.5 3.6 5.6 7.8"/></g><g id="w"><path fill="none" stroke="#4a2900" stroke-linecap="round" stroke-linejoin="round" stroke-width="__RESOLUTION__" d="M109 47v15M61 15l6-15M50 50l-6 13M4 30 0 41" vector-effect="non-scaling-stroke"/><path fill="#323401" d="M41.4 32.3q-3.7.3-6.5-2.8t-3.1-7.6q-.3-4.6 2-8 2.5-3.3 6.3-3.6 3.7-.2 6.5 2.9 2.8 3 3.1 7.6t-2.1 7.9-6.2 3.6"/><path fill="#40270b" d="m43.7 11.8.9.5-.1 7.3-.8.4-.2.1v-.8zm.9 12.2.1 6.1-1 .8-.1-7.3h.2z"/><path fill="#d09f2f" d="m44.5 19.6 2.9 1.2V22l-3.8-1.7h-.1V20h.2zm-9.4-3.1.3-1 1.4.6 4.5 2v1.1z"/><path fill="#65481b" d="m47.5 21.9-.1.8q-1.2-.2-2.2-.8l-1.6-.8v-.9zm-.2 2-.1 1.4-1.6-.8q.7-.4 1.7-.5m-3.6 6.9-1.2.4-.1-.6q0-7.7 1.1-9v.1l.5.7q0 .7-.2 1.2l-.1-.1h-.1zm-2.2-.7-.1-7.7-2.7-1.2 1-.2 1.9-.3.3 1.6q0 3.1-.4 7.8m-6.6-12.6.2-1.1 6.2 2.7v-.4.3l.2.6h-.6q-3.8-.4-6-2.1m7.4-6.4 1.4.6-.2 7.5-.5-2-.3-1.5q-.5-2-.4-4.6"/><path fill="#563d16" d="m47.4 22.7-.1 1.3q-1 .1-1.7.5l-1-.5-.8-.3q.2-.5.2-1.2l-.4-.7-.1-.1q-1.1 1.3-1.1 9v.6l-.6.2h-.3v-1.3q.4-4.7.4-7.8l-.3-1.6-2 .3-1 .2-4-1.7.3-2q2.2 1.6 6 2l.6.1-.1-.6-.1-.3v-.6l-.1-7.4 1.1.4q-.1 2.6.4 4.6l.3 1.4.5 2.1v.8l.1.1v.9l1.6.8q1 .6 2.2.8"/><path fill="none" stroke="#533e0d" stroke-linecap="round" stroke-linejoin="round" stroke-width="__RESOLUTION__" d="m43.7 11.8.9.5m2.8 8.5v1.9l-.1 1.3-.1 1.3m-6-14.5 1.1.4 1.4.6" vector-effect="non-scaling-stroke"/><path fill="#371f00" d="M40.5 5.2V5l3-.2h.5q3.8.3 6.8 4.2l.7.9-4.7-1.4Q45.3 7 43.6 6.1l-.6-.3-2.1-.6zm13.3 9.4q.8 2.5 1 5.6v2.1l-3.4-1-.1-.9q-.2-4.2-1.8-7.6l1.8.8zm.9 10.2-.5 2.3-3.4-.3.5-2.4zm-2.4 6.7-.1.2q-1.5 2.5-3.5 3.8l-2.3-.7q1.3-1.2 2.4-3l.4-.6 1.3-.4z"/><path fill="#8c5b0b" d="M40.5 5.2h.4l2.1.6.6.3q1.7.9 3.2 2.5l-3.4-.5-.6-.1-3.5-.2-5.3-.5q1.7-1.5 3.8-2h.4l1.9-.1zm-7.1 28.2-.5-.6q-1.7-2.1-2.7-4.7l3.7 1.4 1.2.4 1.9.7 2.9 1 .6.1 3.3.6 5.4-1.1-.4.6q-1.1 1.8-2.4 3h-.1l-.1.1q-2.4-.1-4.7-.8l-1.2-.4h-.6l-5-.4zm-3.7-7-.5-2.2q2.4.6 2.6 2.3l-1 .1zm-.8-5.5q-.1-2.6.4-4.8l2 .5 1.6.4.4.2v.2q-.5 2-.4 4.3v.3l-.2-.1h-.3zm1.6-8.5v-.2l1-1.8.8-1.2 4-.3q1.9 0 6.2 1.4l.6.3 6.4 2.3q1.6 3.4 1.8 7.6v.9L49.6 20 47 17.5q-.7-2.4-2.1-4.1-1-1.1-1.9-1.7l-.5-.3-1.1-.5-1.8-.2q-2.6.2-4.4 2.6h-.3l-1-.3zm16 14.1q.7-1.7.9-3.8l3.9 1.8-.5 2.4z"/><path fill="#4a2900" d="m46.8 8.6 4.7 1.4q1.4 2 2.3 4.6l-2.5-1-1.8-.8q-.9-1.9-2.1-3.5zm8 13.7-.1 2.4-3.4-.3v-3.1zm-.7 4.8q-.6 2.3-1.9 4.4l-1.8-.7-1.3.4q1-2 1.6-4.4zm-5.5 8.4q-1.5.9-3.1 1.2l-3.5.2.8-.1q1.8-.6 3.3-1.9h.1v-.1z"/><path fill="#98630c" d="m42 36.9-1.8.1h-.3l-.6-.1q-2.3-.3-4.3-2l-1.6-1.5h1.3l5 .3h.6l1.2.4q2.3.6 4.7.8-1.5 1.3-3.3 1.9zm-11.9-8.8-.5-1.8 1 .3 1-.1q-.1-1.7-2.5-2.3l-.3-2.4v-1l3.5 1h.3l.2.1q.4 4 2.6 6.8.9 1.1 1.9 1.8 1.2.8 2.6.8l.6.1h.2l1.7-.4q1.8-.8 3.2-3l.8-1.6 4.3.4q-.5 2.4-1.6 4.4l-5.4 1.1-3.3-.5-.6-.2-3-1-1.8-.7-1.2-.4zm-1-12.1q.5-2 1.3-3.7l3.3.8 1 .2.2.1-.4.8q-.8 1.3-1.3 2.9l-.4-.2-1.5-.4zm3-6.9L34 7.3l5.3.5 3.5.2h.6l3.4.6.6.7q1.2 1.6 2.1 3.5l-6.4-2.3-.6-.2q-4.3-1.5-6.1-1.5zm14.6 8.5 2.6 2.5 1.9 1.1-.1 3.2-4-1.8v-2z"/><path fill="#dcb97e" d="M35 13.4q1.9-2.4 4.5-2.6l1.8.2q-2 .8-3.2 3l-.2.2-.2.4-1.2-.4zm-.2 4.4-.2 1.8 1.7.7v1.4H35l-2.1.2v-.3q-.1-2.3.4-4.3zM40.4 30l.3.2q.9.6 1.8.8l-1.7.4H40q-1.4-.1-2.6-.9l2.2-.4z"/><path fill="#e8d1ac" d="m37.7 14.6-.7 1.7-.2-.1V16l-1.4-.6-.3 1-.2 1v.3l-1.6-.5V17q.5-1.6 1.3-3l.5-.6 1.4.7zm-1.3 7 .2 1.5q.5 3.1 2.4 5.4l1.2 1.3.2.2-.8.1-2.2.4q-1-.7-2-1.8-2.1-2.8-2.5-6.8l2-.1z"/></g><g id="v"><path fill="#000" fill-opacity=".3" d="m40.8 27.6.6-.4v-3.7l6.9 2.9-1.4 3.4H36.4l1.1-.6z"/><path fill="#556100" d="M41.4 23.5v3.7l-.6.4q-1.1-5.2-1.8-6.8l-.5-.7 2.9-1.5zm-3.9 5.7-1.1.6-.6-.1-4-2.9q-15-10.4-25.7-4.5H0v-3l5.7-.8 1.3-.2 5.4-.7q6 0 12.4 2.3 1.8.7 9 5.3l2 1.3V24l-.3-.3q-1.2-1-4-2.6-4.5-2.4-9.1-4-7.7-1.5-10.8-2.6L8.5 13 3.7 9.8 0 7.5V3.3l2.3 1.1-.1.7q0 4.9 6.5 7l2.8.8 10.3 1.3 13.8 7 .1.1v.1h.2l1-.5.4 1.4zM0 11.2l3.3 1.5q3.6 1.8 4.6 2.6l.2.2h-.3L0 16.7z"/><path fill="#627000" d="m40.8 27.6-3.2 1.6-.4-6.9-.2-1.4 1.5-.8.5.7q.6 1.6 1.8 6.8"/><path fill="#829300" d="M41.4 18.6 38.5 20q-10.1-6-10.8-7H29l4.6 1.2 7.9 4zM37 20.9l-1.1.5-.3-.1-13.8-7L9.6 8h.3l4 .6 5.7 3q3.6 1.7 9.6 3.6 4.4 1.9 7.8 5.6M2.3 4.4 0 3.2l4.2 1q4.4 1.4 4.4 2t-1.3.6H7zm25.7 7q-3.3-.4-7.9-1.7-6-1.7-7.4-2.7l-2-1.6-2.2-1.5q-1.8-1-6-1.7h-1l4-2.2z"/><path fill="#778700" d="M33.5 14.2 28.9 13h-1.3q.6.9 11 7L37 21q-3.4-3.7-7.8-5.6-6-2-9.5-3.6l-5.8-3-4-.6h-.3L7.1 6.8h.2q1.3 0 1.3-.6t-4.4-2L0 3.3V3l1.5-.8h1q4.2.7 6 1.7l2.2 1.5 2 1.5q1.5 1 7.5 2.8 4.5 1.3 7.8 1.7z"/><path fill="#4d5800" d="m21.8 14.3-10.4-1.5-2.7-.7q-6.5-2.2-6.5-7v-.7l4.9 2.4 2.5 1.3zM0 7.5l3.7 2.4 4.8 3.2 3.1 1.5q3 1 10.8 2.5 4.6 1.6 9 4.1 2.9 1.6 4 2.6l.4.3v2.3l-2-1.2q-7.1-4.6-9-5.3-6.4-2.2-12.4-2.2l-5.4.6-1.3.2-5.7.8v-2.7l7.8-1 .3-.1-.2-.2q-1-.8-4.6-2.7L0 11.3zm0 14.8h6.1l-.3.2q-3.1 1.8-5.8 5z"/></g><g id="u"><path fill="#496e32" d="M62.6.1V0l.1.1z"/><path fill="none" stroke="#4a2900" stroke-linecap="round" stroke-linejoin="round" stroke-width="__RESOLUTION__" d="m107 67.9 1 5m-21 33 2 16m30-21 3 17m-22-52v14m-42 26-1 10m2-50-7 22m13-20-5 20m-53-28-7 18" vector-effect="non-scaling-stroke"/></g><g id="r"><path fill="#583400" d="m162.2 66.2.5 7.3.2.3q-.7-.5-.7 3.9l-5.9 5.3-2.6 2.2V85l-.3-.3-.8-3.3-.5-1.4-.4-.9.9-.2 5.2-5.2 1.7-11.1.9 1.1 1.2 1.5zm-2.7-3.5-1.7 11-5.2 5.3-.9.2-1.2-2.5 3.3-4.1 1.7-2q2.9-4.1 3.2-8.8zm-8.2-9.2 1.3 1.4 2.2 2.3 1.2 1.3-.3 1.4.2 3.2q0 4.2-2.9 8.4l-.5.8-2.7 3-.7-1.3-1.1-1.8-.3-.5 5.5-4.4 1.4-6.7-.2-.4-.6-.8z"/><path fill="#513000" d="m156.3 83 5.9-5.3q0-4.4.7-3.9l-.2-.3-.5-7.3.5.8.3.4 1 7.1q0 1-.7 3.3-.9 2.6-1.7 3.3l-.8.5-3.1 1zm9.9-10.7 1.3 2.3q-1.4 4-2 4.3v.5h.6q.6-.2 1.6-1.5l1-1.2.5 1 .6 1.1-2.2 3.1 2.7-2 .3.8V82l-.1.2-7.4 13.3-1.2 2.2-6.4 3.8-.2-1.5-.2-3v-.2l-.7-9.1q1.8-1.5 5.1-3.7l2-1.5 2-2q1.3-2.2 1.7-4.4z"/><path fill="#633b05" d="m151.7 79.2.4.9.5 1.4-5.9.3h-.3l-4.2-.2zm2 5.9-.2.3v.5l.2.9-5 1.5 5.7 5.3.1.6-1.8-.2q-4 0-14.9 2l-2.3.5q-12.8 2.3-20.4 2.3-5 0-13.8-1.9L89.8 94q-19.4-5.3-31.3-12l-3.9-2q-13.2-7.6-19.1-12.8-4.1-3.6-5.6-6.9-.8-1.9-.8-3.6 0-3.7.3-4.9 1.8-5.6 1.8-7.2v-6.1l1.9-1.8v.5l-.1 3.1q-.3 3.1-1.1 5.3-1.3 3.4-1.3 4.3 0 4 .8 6.6l1 2.4L35 63q2.1 3.1 9.8 8.2 5.9 3.8 11.8 6.4 3.1 1.4 6.3 2.4 8.8 2.8 19.9 5.2 9.3 2 12.6 3.3 1 .5 6.3 1.5l4.5.9q10.6 2.1 15.1 2.1 5.9 0 14.5-2.2l5.3-1.5 9.3-3zM19.8 50.4l.1-.2 1.8-2-1 17v.8q0 5.9.8 7.7 1.1 2.5 5.8 4.6 6.3 3 19.5 10.7l2.7 1.5q4.9 2 14.5 7.1 8.5 4.6 13.2 7.7 7.7 4.9 13.1 7.3l-3.8-.3L40.9 90l-.4.5Q15.7 77.4 20 77.6V50.5zm2.8-3.3 2.4-2.6q-1 5.3-2 5.3-.4 0-.4-.6zm4.6-4.9.8-.7 1.4-1.5 1-1-1.7 6.4v.1q0 1.5-.8 5.4t-.8 5.5l-.2 5.4-.4 3.3-.3-2.9-.4-6.4 2.9-10.4-2.9 10.5q0 3 .4 6.3l.3 2.9.9 6 2.5 1.5-.2-1v-1q0-1.6 1.9-1.6 3.5 0 7.5 5.3l2.9 3q3.4 3.1 9 6l.4.3q6 3.2 14 6 7.4 2.6 16.6 4.8l19.2 3.5h.1q16.1 2.8 17.4 3.6-3.4 1.3-18 2.3l-7.8.4 7.7 1.3 5.9.5h.7l1.2.2-2-.2 2 .2h3.8q5.9-.7 20-4.1l7.5-1.3 11.7-2.2 3.8 1.5.3 1.4-1.4.8-13 2.3-20 1.5-3.3 1q-6.4 1.9-11.7 1.9l-5.7-.3q-8.2-1-17-4.4-11.5-4.5-16-11.1l-1.4-.7-6.9-.2q-3.4 0-9.1-3.8l-1.8-1.2q-6.2-4-7.7-4.7-12.4-5.4-15.1-8.4-2.5-2.7-2.5-9.4V64q0-9.9 1.2-13zm9.7-9 .7-.5 1-.8h1.3q-1.3 3.5-2 7-.5 2.7-.6 5.4-.4 5.7.9 11.1l3.1 3.2 7.6 7.8 35.9 14.1 14 1.8-1.5.3q-7 1.4-10.1 1.4-7 0-20.7-6.6L59.6 74q-8-4.2-14.7-9l-1-.8-7.1-5.4-1.2-1.6q-1.1-2.2-1.1-5.3 0-2.9 1.3-10.4l.3-2 .9-5zm4-1.4h1.6v-3l.4-.1.7-.6.4-.3 1-.6 1-.6 1.3-.9-.7 1.9-.9 1.8-.8 2-.8 2-.8 8.9.7-.2 2.7-2.1q1.4 4.5 4.4 8.5 3.1 4.2 7.9 7.8 2.4 1.9 9.5 4l2.1.7 12.8 4.3q4.1 1.5 12.3 5.7 3.8 1.8 7.1 2.6l-1.5 1.5 9.4 1 4.8-2.3q4.9-.7 10.9-2.1l1.8-.2 9.2-.5.8-.1q7-.5 8.2-1.5l.3.6 1 1.5.3.5 1.1 1.8h-7l-1.7-.2-4.7-.4-6.6.5-6.1.6q-12.3 1.5-12.3 3 0 1 4.9 2.1 8 1.7 12.5 2.9l-4 .2-5.6.3-6.2-1.4q-5.4-1.4-9.6-3.4l-3.3-1.7q-5.7-3.3-14.8-5.4l-13.4-3.3-4.8-1.6q-7.8-2.9-9.9-3.9-8.3-4.2-11.9-10.1-1-1.7-1.6-3.7-1.6-4.7-1.9-9.1V38zm129.5 50.3q.3 1.1-2.7 7l-.4 1q-1.7 3.8-4.3 5.3zm-2 13.9-1.3.3q-.6 0-.6-.9 0-1.2 1.3-4.7l.2-.3q1.2-3.2 2.7-6l.1 3.8.2 1.1zm-12.4 8.8.6 3.3-4.4 1-.1-1.1h-2.7l-6.7.7q-15.8 1.9-15.8 4.5l.2.2-10.3.7-8.4-.5q-1-.9-2.8-1.8l33.9-5.3 2.3-.3zm7.9 21.7-.3-.2q-7.4 2.1-12.4 4-5.5 2-8.2 3.6l-11.6 2h-3q-1-.8-2.2-1.4h9.7l-12-2.2-1.7 1-3.3-.3-11.5-.8-7.3 1-1.7-.1-1.7-.1-3.6.2-6-.4q-2.2 0-3.5 1.2l-5.6-2.6q-13.1-6.1-26-12.6l1.6.2q1.6 0 1.4-.5 0-.8-2.4-1.7l-7.5-2.6q-3.2-1.5-8.4-4.7l-5.1-2.9-2.8-1.7q-4.5-2.7-5.8-2.7-1 0-1.1.6l-2.6-1.4v-.3q0-2.5-2.5-4.6-3-1.8-3.8-2.7-3.5-3.5-3.9-5.5l-.3-4.9q-.2-2-.9-3.4l.2-2.8h3.5l-.3 13.5L25 97.6l2.7 2.8q2.6 2.4 4 3l1.8.9q4.7 2 8.1 2.7l1.4.3 17.9 9 .8 2.2q1.4 2.3 2.5 3.5 1.5 1.5 5.2 3.5 2.5 1.2 8.9 3.7l4 .7 6.1.5 10.2-.7 2.5-.4 9 .3 4-.2 8.6-.5 4.6.8 10 1.3 13-2.9 13-3.1zM137.8 58l-5.3.2H128l-5.1-.1-16.9-1.4-1.7-.4q-4-1.3-12.8-5.3-3.8-1.7-7-4.6l-.7-.6-.3-.4.5.2 5.9 1.4 4.3.8q2.8 3.5 10.5 5.1 6.5 1.4 16.7 1.4h.3l3.1-.1 6-.6 2.6-.7 2 2.1zM65 36.7q-2.9-.6-5.8-2.8l-.5-.4q2.8-1.1 5.6-1.5zm-13.4.3q3.1 4.9 6 8.4 4.6 5.6 8.7 7l9.3 3 3.1.9Q88.8 58.7 98 59l6.3.3 19.6 1.3 3.3.4 2.9-.1 7.5-.9h.4l.6.1.7-.3.2.3.1.1 2.4 3.1-4.9 1-3.8.5L126 66l-.7.1q-12 2-17.5 2l-4.3-.2q-4.5-.3-8-1.5-9.9-3.9-22.2-8.2l-1.1-.5q-5.8-2-9.6-4.4l-6-4.2q-1.1-.6-2.1-2L54 46l-2.4-4.3-1.9-3.6zm58.8 25.3-.7-.2-5.8.1q-7.8.3-7.8 1.5 0 .8 4.4 1.3l3.1.3 3.9.2 6.7-.8q3.2-.7 3.2-1.4 0-.4-1.7-.7l-2.3-.4zM145 68l-.8.4h-.7l-.2.1-2.6.7-3.7.8-7.2.5h-2.7V70h.3q1.2-.7 7.8-2.3l.8-.2 7.2-2.1zM83.5 51.4q0 1-1.7 1l-2.9-.9q-12.7-3.9-18.5-7.7-4.3-3-4.9-5.7l10.2 3.3.9-.2q1.4 0 3.2 1l3.3 2 6.6 3.3 1.7 1.1q2 1.5 2 2.8M66 92.4 30 72.6zM41.3 58.7l-3.1-3.2q-1.3-5.4-1-11.1L40 54.8l.3 1.1zM118.5 83l5.5-.3-.7.8zm-8.6 6.3-6-.7-2-.5q-2.4-.8-3-1.8l3.1-.2 14.2-1.1h9.6l3.4-.2.7-.1 3.3-.4 5.5-.7.9.4 1.9-.1 3.3.4v.5q-.9 2.1-8.7 3.4l-1.3.2-13.2 1zm11.2 16.7h-6.8l-2.1.1h2zM67.4 93.2l14.4 8q5 1.6 9.8 2.7-4.8-1.1-9.7-2.7z"/><path fill="#563404" d="m152.6 81.5.8 3.3.3.3-3.3 1.2-9.3 3-5.3 1.5Q127 93 121.3 93q-4.5 0-15.1-2.1l-4.5-.9q-5.2-1-6.3-1.5-3.3-1.3-12.7-3.3-11-2.5-19.8-5.2-3.2-1-6.4-2.4-5.9-2.5-11.7-6.4Q37 66 35 63l-2.5-4.2-1.1-2.4q-.8-2.5-.8-6.6 0-.9 1.3-4.2.8-2.3 1.1-5.4l.1-3.1v-.5l.4-.3 3.4-3v1.2l-.8 5-.4 2q-1.2 7.5-1.2 10.4 0 3.1 1 5.3l1.3 1.6 7.1 5.4 1 .8q6.6 4.8 14.7 9l6.9 3.5q13.8 6.6 20.7 6.6 3.1 0 10-1.4l1.5-.3-13.9-1.8-35.9-14.1-7.6-7.8-1-2.8-.3-1.1-2.7-10.4q.1-2.7.7-5.4.6-3.5 1.9-7h1l.3 6.2v1.1q.1 4.5 1.8 9.3.6 1.9 1.6 3.6 3.6 5.8 12 10.1 2 1 9.8 3.9l4.8 1.6 13.4 3.3q9 2.1 14.8 5.4l3.3 1.7q4.2 2 9.6 3.4l6.2 1.4-11 .5-8.7-1.1 8.8 1.1 10.9-.5 4.8.5.8-.8 4-.2q-4.4-1.2-12.5-2.9-5-1-5-2 0-1.6 12.4-3l6.1-.7 6.6-.5 4.7.4 1.8.2h6.9l.7 1.3.7 1.4 1.2 2.5-9.4 2.3-1.2.3-12 .7 12-.7 1.2-.2 4.1.2h.3zm14.4 53-.8 1.2q-4.9 2.2-11.4 3.6-10.8 2.4-26.2 2.5l-26.4.3h-4.5q-8.7-.2-13.7-1.3 4.6-2 13.5-2h.5l11.3.3 12.2.2q14.1 0 31.2-2.7l1-.1q5.3-1 7.4-2.1l4.8-3.1zM75 137 3.4 100.7v-1.2q14.5 5.5 24.9 11.1 3.8 2.1 7.2 4.3 4.8 3 20.7 11.3l9.2 4.2 5.5 2.8q2.6 1.8 4 3.8M7 67.7 8.2 65l1-2-1 14-.2 3-.8 12.1Q5 87.3 5 83.7q1.6-6.9 2-11.1l.3-3.7zm14.7-19.5 1-1.2v2.1q0 .6.3.6 1 0 2-5.3l.5-.5 1.3-1.4.4-.4-3.1 8.8q-1.2 3.1-1.2 13v.8q0 6.8 2.5 9.4 2.8 3 15 8.4 1.6.7 7.8 4.8l1.8 1.1q5.7 3.8 9.1 3.8l7 .2 1.3.7q4.5 6.6 16 11.1 8.8 3.5 17 4.4l5.6.3q5.4 0 11.8-1.9l3.3-1 20-1.5 13-2.2 1.4-.9 6.3-3.8 1.3-2.2q2.6-1.5 4.3-5.3l.4-1q3-5.9 2.7-7l.2-.2v2.5q-1.4 2.8-2.6 6l-.2.3q-1.3 3.5-1.3 4.8 0 .8.6.8l1.3-.3-.7 1.6v.1l-11.8 7-14.2 1.5-2.2.3-33.9 5.3q1.8 1 2.8 1.8l-5-.4-5.1-.2-8-.5q-5.5-2.4-13.2-7.3-4.7-3.1-13.2-7.7-9.6-5.1-14.5-7.1L46.8 89q-13.2-7.7-19.5-10.7-4.7-2.1-5.8-4.6-.8-1.8-.8-7.7v-.8zm8.8-9.2.2-.2.4-.4.1 1.4v4.7q0 1.6-1.8 7.3-.3 1.1-.3 4.8 0 1.8.8 3.6 1.5 3.3 5.6 6.9 5.9 5.2 19.1 12.8l3.9 2.1q11.9 6.7 31.3 12l11.5 2.9q8.8 1.9 13.8 1.9 7.6 0 20.4-2.3l2.3-.5q10.8-2 14.9-2l1.8.2.2 2-3.7 1.6v.6l.4.2-11.7 2.2-7.5 1.3q-14.1 3.4-20 4.1h-3.8l-1.2-.2h-.7l-5.9-.5-7.7-1.3 7.8-.5q14.6-.9 18-2.2-1.3-.7-17.4-3.6h-.1L82 94.4q-9.2-2.2-16.5-4.8-8.1-2.8-14.1-6l-.4-.2q-5.6-3-9-6.2l-3-2.8q-4-5.3-7.5-5.3-2 0-2 1.7v.9l.3 1-2.5-1.5-.9-6 .4-3.3.2-5.4q0-1.6.8-5.5.8-4 .8-5.4v-.1zm112.7 95 8.7-2 6-1.7q-1.9 2.5-5.2 3.9l-3.8 1.3-10.3 1.2-15.8.8q-6.6 1.2-11.2 1.2l-14.7-2.3-2.5-1.1 34.1.7h3zm-91-15Q65 125.3 78 131.4q-4.3-.2-10.2-3.7-7.4-4.4-11.3-5.2-16.1-3.5-21.1-12.3zm79.4-68 1.3 1.6.5.6-2.7.6-5.9.7-3.1.1h-.3q-10.2 0-16.7-1.4-7.7-1.6-10.5-5.1l20.3 3.3zm-48.1-5.2.3.3.7.6q3.2 2.9 7 4.6 8.8 4 12.8 5.3l1.8.5 16.8 1.3 5.1.1h4.5l5.3-.1 1.3 1.6-.6.3h-.6l-.4-.1-7.5.9h-3l-3.2-.3-19.6-1.3-6.3-.2q-9.2-.4-19-2.9l-3.2-.9-9.3-3q-4-1.4-8.8-7-2.8-3.5-5.9-8.4l1.7-1 2.5-1.3.4-.2 2.5-1 .4.4q2.9 2.3 5.8 2.8 1.7 1.4 3.8 2.6 5.9 3.8 14.7 6.3m27 16.5h3l2.3.4q1.7.4 1.7.7 0 .6-3.2 1.4l-6.7.8-3.9-.2-3.1-.3q-4.4-.5-4.4-1.3 0-1.2 7.8-1.5l5.8-.1zm5 12 6.7-3.2-10.7-.7 4.9 2.1-12.5.5-1.1 1.1q-3.2-.8-7.1-2.6-8.2-4.2-12.4-5.7l-12.7-4.3-2-.7q-7.2-2.1-9.6-4-4.8-3.6-7.9-7.7-3-4.1-4.4-8.6l3-2 2 3.6 2.3 4.3.5.9q1 1.4 2 2l6.1 4.2q3.8 2.4 9.6 4.4l1.1.4q12.3 4.4 22.2 8.3 3.5 1.2 8 1.5l4.3.2q5.5 0 17.5-2l.7-.1 7.2-1 3.8-.6 5-1 .8 1.3.5.6-7.2 2-.8.3q-6.7 1.5-7.9 2.3h-.2v.4h2.7l7.2-.5 3.7-.8 2.5-.7.3-.1h.7l.8-.4 1.3 1.8q-1.2 1.1-8.2 1.6h-.8l-9.2.6-1.8.2q-6 1.4-10.9 2.1m-32-22.6q0-1.3-2.1-2.8l-1.7-1.1-6.7-3.2-3.2-2q-1.8-1.1-3.2-1.1l-1 .1-10.1-3.2q.6 2.8 5 5.6 5.8 3.9 18.4 7.8l3 .9q1.5 0 1.5-1m26.5 38h11.8l13.1-1 1.3-.2q7.8-1.3 8.7-3.5v-.4l-3.3-.4-1.9.1-.9-.5-5.5.8-3.3.4-.7.1-3.4.2h-9.6L102 86l-3 .3q.5 1 2.9 1.8l2 .5zm17.3 24.1-.2-.2q0-2.6 15.8-4.5l6.7-.7h2.7v1.2l-13.8 3.5z"/><path fill="#492f00" d="m153.8 85.2 2.5-2.2 1.4-.5 3.1-1 .8-.5q.8-.6 1.7-3.2.8-2.3.8-3.3l-1.1-7.1 3.2 4.9-1 3.8q-.3 2.2-1.7 4.4l-2 2-2 1.5-5.2 3.7v-1.2l-.7.3V86l-.1-.7zm13.7-10.7 1.2 2.3-1 1.2q-1 1.2-1.6 1.5h-.5v-.6q.5-.4 1.9-4.4m2.3 4.3.4 1.1-2.5 2h-.1zm-118.5-55 2.5-1 2.5-1 .8-.2 1 1q3.1 3.2 5.3 4l5.1 2.5 1.1.5-3.6 1.9h-.1l-1.6.3q-2.7.4-5.5 1.5-1.8-1.5-3.6-3.7zM62 20.2h.2l5.1-1q4.1 4.4 15.5 4.4l4.5-.2.1-.8q0-1.2-4-2.7l-3.7-1.2q4.4.3 9 1.3 4.3 1.5 8.5 3.9l.7.4.9.5 2.5.6.6.3 4.8 1.3 4.5 1.5q5.8 2 12 4.5l5.9 2.6-3 1.1-1.3.3-5.5 1.1-2.3-2-4-3-1.2-.9q-2.7-1.7-5.3-3l-2.7-1.1-3.6-1.4q-2.9-.9-5.7-1.3l-.7-.1q-9.8-1.4-20.1 2.6l-2.4-.3zm69.6 16.5 2.7 1.8q-1.5.6-3.9 1-.6 0-1.2-.3zm3.8 2.6.9.8 1.9 1.5-4.4 2-1.9.7-4.6 1.8-1.7-1.9-1-1-.3-.3 4.1-1.2 1.3-.4zm9.7 9.6v2.3h.7q-1.2 1-3.5 2.1l-2.6 1.1q-2.2.8-4.3.8l-2-2.2-.5-.6 1.9-.6 2.1-1.1q2.8-1.7 5.4-4.9zm10.9 9.6 2.7 3.3q-.3 4.7-3.2 8.9l-1.7 1.9-3.3 4.1-.7-1.4 2.7-3 .5-.7q2.8-4.2 2.8-8.5l-.2-3.2zm-9.7 11-1.2-1.8-1.8-2.5-.5-.7 2.8-2.5 3.8-4.2 1-2.6 1.3 1.6 2.1 2.6.6.9-.2 1.6q-.4 1.5-4.4 5.4l-3 2.9zM46.6 27.8l4.5 8 .7 1-2 1.4-.9-1.9-1.2-2.5-1.9-4.1zM45 31.7l1 5.3.6 2.9.1.3-2.7 2.1-.7.2.8-9z"/><path fill="#533200" d="m170.6 80.7.3.8.5 1.3.2.3 1.7 4.9v.2l-2.4.1-.2-3.8V82zm7.5 20v.3l.2 2.9.1 3.3v1.8l.1 1.4v2.6l-.1 1.5v.3l-.2.8-.3 1.9-.7 2.5q-.7 2.6-2 5-1.7 3.3-4.3 6.2l-3.9 3.3-1.2-3.2-1.2-3.3.7-.2 7.5-5.8 5.7-9-5.7 9-7.5 5.8-.7.2-.6-1.5-.6-1.5-1.2-3.2-.3-.8-.5-1 12.2-7.2 3-5.6zM9.2 63l1.3-2.2 1.5-2.5-.3 18.9H8.2zm130.1-20.5.1.1.6.5 2.7 2.3 2.4 2.1V49l-2.8-3-2.4-2.6-.7-.7zm7.8 8.6h2l.4.5 1.4 1.4.4.4 2.5 5.9-2-2.6-1.4-1.6-1.6-2-.6-.7zm23.7 30.3-.2.5z"/><path fill="#4b2d00" d="m173.4 88.2.5 3 1.7 1.9.5.8.4.7q1.3 2.6 1.6 6l-1.5 6.6-3 5.5-12.2 7.3-.2-.9-.1-.1-1.1-2.7-.4-1-.3-.8-.4-.8-.8-2.2-.7-1.7-.5-.8-.2-.7v-.1l-.6-3.4h-.1l11.8-7v-.1l.7-1.6 2.6-6.7-.2-1.1 2.3-.1zm2.7 5.6-3.4 10.6-11.4 8.6-2.4.7 2.3-.7 11.5-8.6z"/><path fill="#5e3800" d="M84 140.8q-2-.4-3.3-1L75 137q-1.5-2-4-3.7l-5.6-2.7-9.2-4.3q-15.9-8.3-20.7-11.4-3.4-2.1-7.2-4.2Q17.9 105 3.4 99.5l1.2-22.3.7-3.7Q6 70.6 7 67.8v4.8q-.6 4.2-2 11.1 0 3.6 2.2 8.5L7 94.3l12.5 7.1 2.5 1.4 8.8 4.9 4.7 2.5q5 8.8 21.1 12.3 3.9.8 11.2 5.2 6 3.5 10.3 3.7l5.6 2.6 2.1 1 8.7.2 2.3 1.1 14.8 2.3q4.6 0 11.2-1.2l15.8-.8 10.3-1.2 3.8-1.3q3.3-1.4 5.3-3.9l6.6-2.2 1.3 3.3-4.8 3.1q-2.2 1.2-7.4 2.1l-1 .2q-17.1 2.6-31.2 2.6l-12.2-.2L98 139h-.5q-8.9 0-13.5 1.9"/><path fill="#774a00" d="m12 58.3.7-1 1.8-.6v3.6l-.4 8.4-.9 10q0 8.2 1 10.5.8 2.1 4.4 4l10.1 4.9q2 1.3 4.3 4l-3.3-1.7.2-.5-4.7-2.3-13.8-7 .3-13.4zm102.2 71.1-4 .3-9-.3-2.5-.2-8.6-1 1.1.1 7.7-.7h.2l8.8-2 11.5-1.2 24.4-1.3 4-.2h.4l.2.1 2.7.6q4.1 0 10.8-2.5l.3.8-11 3.5-2-.1-1.5-.2-3.6.2-8.7.5-14.2 1q-7 1.1-7 2.5zm-40.4-15.2q8.7 4.8 25.3 7.3-6 0-13.7-1.9-8.8-2.2-11.6-5.3m72.5 2.8-.2.1q-7.2 3.5-10.3 4.3l-10.6.8-3 .3q-.6 0-1.2-1l-.2-.4 7.6-.7 7.2-.5zm14.8 2-4.1 1.6-3.7.6-8.7-1q0-.6 2.1-1.6 1.9-.9 5.4-2.1l7.2-2.1.3.8.4 1z"/><path fill="#6b4300" d="m14.5 56.7.1-.1 1 .6.9-1.8-.9 17.6q.2-2.8 1-5.2l.1-.5q1-3.2 1-6.3 0-3.3-1-5.9l2-3.5 1-1.1h.2v9.1q0 2-1.3 6.1l-.2.7q-1.2 3.8-1.2 7 0 4.8 6.4 10.1 2.5 2.2 15.9 11.1l1.6 1q6 3.8 11 4.8 8.7 1.8 17 6 2.4 1.3 11.9 4.4 9.2 3.1 10.1 3.1l7.3-.9 5 .3h.1q.5 1.9 3.7 2.2l10.8 1.3h7.9q8.4 0 14-1.6l4.8-1.7L157 109l.3.8q-3.9 2.6-5.7 3.2l-6.4 1.8-6.2 1.9-10.6 3.8-7.7.7.3.4q.6 1 1.2 1l3-.3 10.5-.8q3.3-.8 10.5-4.3l.1-.1 12.6-3.4.3.8-7.1 2.1q-3.5 1.2-5.4 2.1t-2 1.6l8.7 1 3.6-.6 4.2-1.6.3.9.3 1q-6.6 2.5-10.7 2.5l-2.7-.6h-.2l-.4-.1-4 .2-24.4 1.3-11.5 1.2-8.8 2h-.2l-7.7.7-1.1-.1q-14.1-2.3-22.6-8.4l-6.5-3.4-17.8-9L33 102q-2.3-2.7-4.3-4l-10.1-4.8q-3.7-2-4.5-4-.9-2.4-.9-10.6l.9-10 .3-8.4zm108.4 72.2-8.7.4q0-1.5 7-2.6l14.2-1 8.7-.5 3.6-.2 1.6.2 1.9.1-8.4 2.8zM15.5 75l-.4 7.8 11 9.3 1 .5q-1-1.8-3.2-3.9l-3.8-3.4q-4.6-4.4-4.6-10zM67 111l5.3 2.4 1.5 1q2.8 3.1 11.5 5.3 7.8 1.9 13.8 1.9h.3l5.5.8 13.4-1h.3v-.4q0-1.2-4.4-2.4-5-1.3-10.6-1.2h-4q-8.6 0-13.4-1-7-1.6-12.2-4.1-4.2-2-4.7-2zL27 92.5zm51.6 10.4 2.2-.1z"/><path fill="#7b5001" d="m16.5 55.4.1-.2q1.1 2.5 1.1 5.8 0 3-1 6.3l-.1.5q-.8 2.4-1 5.2zm140.2 52.8.3.7-12.3 4.5-4.8 1.7q-5.6 1.6-14 1.6H118l-10.8-1.3q-3.2-.3-3.7-2.2l5 .4 8.4.5 10.3-.7 11.1-.7 14-3.5zm.8 1.6.7 1.7.8 2.2-12.6 3.4-10.7 2.9-7.2.5 10.5-3.8 6.3-2 6.5-1.7q1.7-.6 5.7-3.2m-67 2.8 8 .5-7.3.8q-.9 0-10.1-3.1-9.5-3.1-11.9-4.4-8.3-4.2-17-6-5-1-11-4.7l-1.6-1.1q-13.4-9-16-11-6.3-5.3-6.3-10.1 0-3.2 1.2-7.1l.2-.7q1.3-4 1.3-6v17.9q-4.2-.2 20.7 13l.3-.6 45.6 22.3zM27.1 92.4l-1-.5-11-9.2.4-8v.5q0 5.5 4.6 9.9l3.8 3.4q2.2 2 3.2 3.9m46.7 21.8-1.5-1L67 111l2.3-.7q.5 0 4.8 2 5 2.5 12.1 4 4.8 1.1 13.5 1.1h3.9q5.7-.1 10.6 1.3 4.5 1.2 4.5 2.3l-.1.4h-.2l-13.5 1-5.6-.7-.2-.1q-16.6-2.5-25.2-7.2"/><path fill="url(#a)" d="m19.7 50.5.1-.1h.1z"/><path fill="#5d3c00" d="m47.3 25.9.7-.3q1.5-1 3.3-1.7l3.9 5.8q1.8 2.2 3.5 3.7l-2.4 1-.4.2-2.5 1.3-1.7 1-.7-1.1-4.5-8zm9.8-4.2 4.9-1.5 9.3 7.4 2.4.3q-2.1.8-4.1 1.8l-1-.5-5.2-2.5q-2.1-.8-5.2-4zM67.4 19l12.4-.4 3.6 1.3q4.1 1.4 4.1 2.6l-.1.8-4.5.2q-11.4 0-15.5-4.5m67 19.4 1 .8-5.7 2-1.2.4-4.1 1.2-1.7-1.8-1.5-1.5-.4-.2-1.4-1.3 5.5-1 1.3-.4 3-1.1 2.5 1.1-2.3 2.5q.5.3 1.1.3 2.4-.4 3.8-1m4 3.1 1.5 1.2-.7-.5-.4-.3.6.6.7.7 2.4 2.6q-2.7 3-5.4 4.8l-2.1 1-1.9.7-1.3-1.5-1.5-1.7-2.8-3.1 4.6-1.8 1.9-.7zm7.6 9.6h1.3l1.2 1.3.5.6 1.6 2-1 2.6-3.8 4.3-2.7 2.5-1-1.1-2.4-3.1-.1-.2-.2-.3-1.3-1.6-2.6-3h.1q2 0 4.3-.8l2.7-1q2.2-1.1 3.4-2.2m-96.1-13-3 2-.1-.4L46 37l-1-5.4.9-2 1.8 4.2 1.2 2.6zm98 33.5-1-1.5 3-2.9q4.1-4 4.5-5.4l.2-1.6.2.3-1.4 6.7zM66 31.5l-.1.1z"/><path fill="#6a4900" d="m88.7 20 9 1.8 1.4.3 1 .3 2.6.8.5.1 3.6 1.2 3.3 1.2 6.6 2.8q6.3 3 12.7 6.9l2.2 1.3-2.5-1.1-5.8-2.6q-6.2-2.6-12.1-4.5l-4.5-1.5-4.8-1.4-.6-.2-2.5-.6-.9-.5-.7-.4Q93 21.5 88.8 20"/><path fill="#585800" d="m139 42.3.3.3h-.1l-.6-.6z"/><path fill="#5a3604" d="M143.2 133.9q2.7-1.7 8-3.6 5.1-1.9 12.5-4l.3.2.6 1.5-6.7 2.2-6 1.7zm20.3-8.9-13.1 3.1-13 2.9-10-1.3-4.6-.7 20-.9 8.4-2.7 11-3.6zm-62.3 4.3-2.5.4-10.2.8-6-.6-4.1-.7q-6.4-2.5-9-3.7-3.6-2-5-3.5-1.2-1.2-2.7-3.5l-.7-2.2 6.5 3.4q8.5 6 22.6 8.4l8.7 1zm-58-22-1.5-.3q-3.4-.7-8-2.7l-2-.8q-1.3-.7-3.9-3.1l-2.7-2.8L30 100l-.2.4 3.3 1.7zM8 80q.7 1.3.8 3.3l.4 4.8q.4 2.1 3.9 5.6.8.9 3.8 2.7 2.6 2 2.6 4.6v.3L7 94.3l.2-2.1zm14 22.8q.1-.6 1.1-.6 1.3 0 5.8 2.7l2.8 1.7 5.1 2.9q5.2 3.3 8.5 4.7l7.4 2.6q2.4.9 2.4 1.8.3.4-1.4.4l-1.6-.2-16.6-8.6-4.7-2.5zM83.7 134q1.3-1.2 3.5-1.2l6 .3 3.6-.1h1.7l1.7.2 7.3-1 11.5.8 3.3.3-1.9 1.2h5.8q1.3.6 2.3 1.3l-34-.6-8.7-.2z"/><path fill="#ac9250" d="m122.4 133.3 1.6-1 12 2.2h-15.6zm-19.6-59.5 1.2-1.1 12.4-.5-4.9-2.1 10.7.8-6.7 3.1-4.8 2.3-9.4-1zm51.7 20.4-.1-.7-5.7-5.2 5-1.5.6-.3v1.2l.8 9.1v.2l.2 3-3.9-1.4-.5-.2v-.6l3.8-1.6z"/><path fill="#693c06" d="m119.4 38.1 1.3 1.3h-5.2l-2.7-.1-2-.1-5-.9-11.1-1.7-2.6-.4q-5.4-.9-10.2-2.6l-1.6-.6q-4.7-1.7-5.5-1.8l-2.6-.6-2.6-.9 4-1.8 2.9.4h5.4l8.6-.8 1.8-.3 6.8.9q2.9.6 6.3 1.8l.7.3.3.1 5.3 2 1.3.8 4 3zm3.3 3 1.7 1.8.3.3 1 1-7.7 1.3h-1l-11.6-1.2-8.5-1.6L88 41l-2.6-.4q-5.6-1-6.5-2.2.5-.4 1.4-.4L91 39.5q5.4 1.2 11.8 1.5h2.8l8.9.4h3.5zm7.6 8.1 1.5 1.6-17.1.4-20.2-3.3-4.4-.7-6-1.5-.4-.2Q74.9 43 69 39.3q-2.1-1.3-3.7-2.7l-.8-4.7 1.6-.3h.1l.5.4 1.5 2q1.5 2.5 3.8 3.4l.2.1 8 3.2 6.7 1.8 6.9 2.1q4.8 1.9 11.5 3l6.5 1 7.9.9h1.5l4.6.2zM98.8 34.7l7.2.7 1.1.1 2.5-.2.3-.4q0-.5-.6-1l-1-.2-1-.4-1.1-.2-1-.4-8.4-2q-4.2-1-6.2-1l-2.4.4q-2.2.4-2.2.8 0 1.1 5.7 2.6l2.3.5z"/><path fill="#603704" d="m120.7 39.4.3.3 1.5 1.4-4.5.4h-1.7l-1.8-.1-9-.4h-2.7q-6.4-.3-11.7-1.5l-11-1.5q-.9 0-1.4.4.9 1.1 6.5 2.2l2.6.4 8.9 1.6 8.5 1.6 11.6 1.3h1l7.7-1.2 1.7 1.8 2.8 3.1-4.5.5-4.5-.2h-1.6l-7.9-.9-6.5-1q-6.7-1.1-11.5-3l-7-2.1-6.6-1.8-8-3.2-.2-.1q-2.2-1-3.8-3.4l-1.5-2-.5-.4 3.6-1.9 2.6.9 2.6.6q.8.1 5.5 1.8l1.6.6q4.8 1.8 10.2 2.6l2.6.3 11.1 1.8 5 .9 2 .1 2.7.1zm-9-7.1-5.3-2-.3-.1-.7-.2q-3.4-1.2-6.4-2l-6.7-.8-1.7.3-8.7.8h-5.4l-2.8-.4q10.3-4 20.1-2.6l.7.1q2.8.4 5.7 1.3l3.6 1.4 2.7 1.1q2.6 1.3 5.3 3m-13 2.5L94 34l-2.3-.5Q86 32 86 30.9q0-.3 2.2-.8l2.4-.4q2 0 6.3 1l8.3 2 1 .3 1 .4 1.1.3 1 .3q.6.4.6.9l-.3.4-2.5.3-1.1-.2z"/><path fill="none" stroke="#583000" stroke-linecap="round" stroke-linejoin="round" stroke-width="__RESOLUTION__" d="m159.5 62.7-1.7 11-5.2 5.3-.9.2-9.4 2.3-1.2.3-12 .7m-30.3-.1-14-1.8-35.9-14.1-7.6-7.8-3.1-3.2q-1.3-5.4-1-11.1.2-2.7.8-5.4.6-3.5 1.9-7m78.6 51 5.5-.3 4.1-.2m-9.6.5-11 .5-8.7-1.1" vector-effect="non-scaling-stroke"/><path fill="none" stroke="#ff3c00" stroke-linecap="round" stroke-linejoin="round" stroke-opacity=".1" stroke-width="1" d="m170.7 82 .2-.5"/><path fill="none" stroke="#774a00" stroke-linecap="round" stroke-linejoin="round" stroke-width="__RESOLUTION__" d="m170.7 82-.2.2-7.4 13.3-1.2 2.2-6.4 3.8-1.4.8-13 2.3-20 1.5h-6.8l-2.1.1h-3.8l-2-.2-5.8-.5-7.7-1.3m-25.6-11-1.2-.7-36.2-20-2.5-1.4-.9-6-.3-2.9-.4-6.4 2.9-10.4 1.8-6.4M159 113.8l2.3-.7 11.4-8.6 3.4-10.6m2.4 19.2-5.7 9-7.5 5.8-.7.2-6.7 2.2-6 1.7-8.7 2-11.7 2h-2.7M8.3 77.1 8 80l-.8 12.2-.2 2.1 12.5 7.1 2.5 1.4 8.8 4.9 4.7 2.5 16.7 8.6Q65 125.4 78 131.5l5.6 2.6 2.1 1 8.7.2 34 .7M15.5 73l.9-17.5m-1 19.4-.4 8 11 9.2 1 .5 40 18.3 5.3 2.4 1.5 1q8.7 4.7 25.3 7.2h.3l5.5.8 13.4-1M9.3 63.1l-1 14m112.6 44-2.2.2m40.3-7.6-12.6 3.4-10.7 2.9-7.2.5-7.7.7m-29.2-17.3q-4.7-1.1-9.7-2.7l-14.5-8" vector-effect="non-scaling-stroke"/><path fill="none" stroke="#683801" stroke-linecap="round" stroke-linejoin="round" stroke-width="__RESOLUTION__" d="m166.6 149.5 9.3-4.9q5.1-6.9 6.2-15.2l-.2.3q.7-3.3.3-12.5-.3-9.4-2.6-14.2v.1l-1.5-2.6q-.6-5.8-4.2-9.2l-.6-3-1.2-3.5-1.5-4q-3.2-7.2-8.4-14.5-4.6-6.3-10.8-12.6l-2.3-2.4h-4v-3.6l-5.7-5h-.1l-.4-.3.8.6-3.4-2.8-4.7-3.3q-16.7-10.8-34-15v-3.7L61.9 0l-5.5 3v19Q52 23.7 48 25.8l-.7.4-3.7 2.3-.7.6-.4.2v2.9h-3.9l-1 .9-4.1 3.5-2.8 2.5-1.2 1.1-2.7 2.7-6.9 7.6-.2.2-1 1.1q-1.8 2.8-3.1 5.7l-1-.6-1.9.6-.7 1q-2.7 4.1-4.4 8.3-2.3 5.3-3 10.6l-.1 1.3Q2 84.3 1.3 90v.2L0 113.8q-.1 1.1.5 2 .5 1 1.5 1.5l8.9 4.5" vector-effect="non-scaling-stroke"/><path fill="#7b5001" d="M72.9 87.9 70 86q-2-1.6-7.6-1.2-3.1.2-8.1-2.7L52 80.6q-2.4-1.7-4.2-3.4L43 73.1l-3-2.5-.9-.8.2-.5-.4-2.7.2-.3q4.1 2.4 9.4 6.8l3 3 1 .8q2.4 1.9 5 3 1.7.8 14.7 3.1v.2zM37.3 76.4q3.8 2.8 6.9 3.9 1.3.5 7.5 3.6l4.8 2.5q10.8 5 16.5 5v.4l-.3 5.3-1.2.2q-4.2-2.7-13.7-5-3-.7-6.6-2.5-7.2-3.4-17-10.5V79l3.6-1.3zm5-13.4q1.3-1.1 2.7-1.7l1.1.4q2.1 1 4 3.1 1 1.2 3.5 2.5l4.4 2.2q2.6 1.6 7 3.6 3.6 1.5 4.6 2.2l.1.2 1 2.4-.8 1-2.5-.9q-3-1.4-4.9-2-5.6-1.7-9.4-3.4H53q-1.5-.8-5.7-5zM34 86.8v-5.2l1.9 1.8q2.6 3 7.1 5.2 3.2 1.7 7.9 3.8l7.2 3.1q8.7 3.8 13.6 6.3l-1 2.5q-1.2-1-2-1.1l-9.4-2.2q-3.9-1-9-3.7-3.1-1.7-6.6-4L38 89.4zm2.2 9-.1.1-.1.4q0 .7 1.3 1.2l.8.3 1.6.6v-.5q-.2-1.2-1.7-1.7l-1-.3-.6-.1zm-1.8-5.1q1.5.5 3.6 2.3l3 2.8q2.1 2 9 4.7l3.3 1.3q9.2 3.4 16.5 4.7l-2.5 3.8-.6.6q-14.5-3.7-17.3-5l-.5-.2-5.4-3.2q-1.7-.9-4.4-.9l-1 .2H38q-2.6-5.2-3.5-11.1M60 107.3q0-3.3-9.7-5l-.5-.1-.8-.2-1.1-.2-2-.3h-.4q-.1.8 4.1 2.6 3.6 1.4 10.3 3.5z"/><path fill="#724b01" d="m39.2 69.8.8.8 3.1 2.5 4.8 4.2q1.8 1.8 4.2 3.4l2.1 1.3q5 3 8.1 2.8 5.7-.4 7.8 1.2l2.8 1.8.1 3.5q-5.7 0-16.5-5l-4.7-2.5q-6.2-3.1-7.6-3.6-3.1-1.1-7-3.9l-.2-.6zm33 13.3Q59.3 80.6 57.6 80q-2.6-1.2-5-3.1l-1-.9-3-3q-5.3-4.3-9.4-6.7l.5-.7Q41 64 42.3 63v-.1l5.1 4.6q4.3 4.2 5.7 5h.1q3.8 1.8 9.4 3.5 1.8.5 5 1.9l2.4.8-1.5 1.8 3.3.8zM45 61q3.8-2 8.5-1 8 1.4 13.8 10.7l2.3 4.4q-1-.7-4.5-2.2-4.5-2-7-3.6l-4.5-2.2Q51.1 66 50 64.8q-1.8-2-3.9-3.1zM34 81.7l.3-2.3q9.8 7 16.9 10.4 3.6 1.8 6.5 2.5 9.6 2.3 13.8 5l-.3.1 1.1 1.8-.6 2.7q-4.9-2.5-13.6-6.2l-7.2-3.2-7.9-3.8q-4.5-2.2-7.1-5.2zm.4 9-.4-3.8 4 2.6 5.6 3.8q3.6 2.3 6.7 4 5.1 2.8 9 3.8l9.4 2.2q.8.1 2 1.1l-1 2.2q-7.2-1.3-16.5-4.7l-3.2-1.3q-6.9-2.7-9-4.7L38 93q-2.1-1.8-3.6-2.4m1.8 5.1.7.1 1 .3q1.5.5 1.7 1.7v.5l-1.6-.6-.9-.3Q36 97 36 96.3l.1-.4zm1.6 6h.4l1-.2q2.5 0 4.3 1l5.4 3.2.5.2q2.8 1.2 17.3 4.9-2 2.3-4.3 3.6l-24-11.5-.2-.7zm22.1 5.5-.1.3q-6.7-2.1-10.2-3.5-4.3-1.7-4.2-2.6h.4l2 .3 1.1.2.9.2h.4q9.7 1.8 9.7 5.1"/></g><g id="q"><path fill="#2e1c07" d="m4.6 9.6.5.1q2.2 0 8.1-4 3.6-1.9 6.6-3.7l4-2 .6.3q-11.1 6.1-14 8.8l-.7.3-4.8 2.4v48.7l-2.1-1.4V10.5l1.6-.8zm4.2 4.8 2-1 .5-.2h.1l1-.5 1.8-1V41l-3.7-.5 1.1 2.1-2.8 1.1v-29"/><path fill="#40270b" d="M19.8 2q-3 1.8-6.6 3.7-6 4-8.1 4h-.5zm-9.4 7.1q2.9-2.7 14-8.8l1.6 1-9.6 4.8h-.1l-4.5 2.3z"/><path fill="#000" fill-opacity=".3" d="M2.8 10.7v47.4L0 59.5v-46z"/><path fill="#960" d="M4.9 60.5v-2.7l8.7-2.8 2.4-1.5 3.8-2.5q3.1-1.8 6.2-3.2v1.8zm0-3.2v-1.6l1.7-1 2.2-1.2v2zm0-40.7v-3.2q2-.5 3.8-2l.5-.5 2.6-2.5 4.5-2.3h.1q.5.4.9.4 2.3 0 8.7-3.2v.9q-3.7 2-9.3 4.6-5 2.2-6.5 3.2l-.7.6.4 1h.9l-2 1-.9.4-.2.1-1.8 1zm17.9 32.3.3-.1v-2.4l.3-.1 1.4-.7L26 45v2.3l-2 1z"/><path fill="#845900" d="M4.9 57.9v-.6l3.9-1.9v.1l.5.2 13.5-6.9 1.3-.6 1.9-1v.5L19.8 51 16 53.6 13.6 55zm0-44.3v-1.7l4.8-2.4.8-.3 1.3-.7L9.2 11l-.5.4q-1.9 1.6-3.8 2m5.9.1h-.9l-.5-.9.8-.6q1.5-1 6.5-3.2 5.6-2.6 9.3-4.6v1.6l-1.8 1-.3.1-1.2.7-3.1 1.5-.4.2-4.4 2.3-.6.2-1.8 1-1 .4-.1.1zM26 3.3q-6.4 3.2-8.7 3.2-.4 0-.9-.4L26 1.3z"/><path fill="#8c5b0b" d="M4.9 55.7V35L6 30l.1-9.1-.3-4 .1-.8 1.8-.9.1 4q0 6.1 1 13.3V43l-1-3-1-3.6-.2.2-.3.8q-.5 1.8-.5 2.8 0 6.4.8 14.7z"/><path fill="#784f0a" d="M4.9 35.2V16.5l1-.5-.1.7.3 4.1-.1 9.1L5 35zm2.8-20 .2-.2.9-.5v18q-1-7.3-1-13.5zM6.6 54.9q-.8-8.2-.8-14.7 0-1 .5-2.8l.3-.8.2-.2 1 3.5 1 3.1v10.6zM22.7 7.5l1.2-.7-.1 1.9.1 8.8q0 4.8-.6 9l-.6 3.1v-22m0 38.3V42l.8 4-.4.2zm2-.2q-1.1-9-1.1-13.8l1-3.8L26 23v22z"/><path fill="#352100" d="m14.2 11.8.6-.3v.1l4.4-2.3v33l-5.7 3-1.8 1-.1-.1-2.8 1.3v-3.7l2.8-1.2-1.1-2 3.7.4z"/><path fill="#ca9c4f" d="m19.2 9.3.4-.2.4 5.7q0 2.6-.3 3.5l-.5 1.5zm3.5 1.2v35.3l-.6-.6-.4-.4-.4-.3q-1-16.3-1-20.8v-.5q0-4.5 1.3-9zm-3.5 25.6v.3l.9 5.9-.1.9-.8-.9z"/><path fill="#d3ac6b" d="m19.6 9.1 3.1-1.5v2.9l-1.1 3.7q-1.3 4.5-1.3 9v.5q0 4.5 1 20.8l-.9-.9-.4-.5.1-.9-.9-5.8V19.8l.5-1.5q.3-.9.3-3.5z"/><path fill="#98630c" d="m23.9 6.9.3-.2 1.8-.9v17.1L24.6 28l-1 3.8q0 4.8 1.2 13.7l-1.4.6-.7-4V29.7l.6-3.1q.6-4.2.6-9l-.1-8.8z"/><path fill="#e8d1ac" d="m20 43.2.4.3v.1l.9.9.4.3.4.4q-2.7 1.9-5 2.8l-3.6 1.3-4.7 1.9v-1.3l3.9-2 .4-.2 4-2 2.4-1.3.2-.1zM8.8 47.4l2.8-1.4v.2l1.8-1-1.6 1.3-3 1.8z"/><path fill="#dfc08c" d="m22 45.2.7.6.4.5-13.8 7.1-.5-.5v-1.7l4.7-1.9 3.6-1.3q2.3-.9 5-2.8m-8.7.1 5.8-3 .8.9-.3 1-.2.2-2.3 1.3-4.1 2-.4.2-3.9 2v-1.5l3-1.9z"/><path fill="#95784a" d="M23.1 46.3v2.4l-.3.1-13.5 6.9v-2.3z"/><path fill="#a38452" d="m8.8 53 .5.4v2.3l-.5-.2v-2.6"/><path fill="none" stroke="#231b16" stroke-linecap="round" stroke-linejoin="round" stroke-width="__RESOLUTION__" d="m4.4 9.7-1.6.8V58m0 .1v1l2.1 1.4M24.4.4l-.6-.4-4 2L4.6 9.6M26 1.3l-1.6-1" vector-effect="non-scaling-stroke"/><path fill="none" stroke="#533e0d" stroke-linecap="round" stroke-linejoin="round" stroke-width="__RESOLUTION__" d="M4.9 60.5V11.8l4.8-2.4M5.9 16l1.8-.9m.2 0 .9-.6 2-1 .5-.2h.1M26 4.1V1.3l-9.6 4.8m-.1 0-4.5 2.3-1.4.7M5 16.5l1-.5m2.9 16.4V14.6m0 28.3v-2.2m0-1.1v-7.2M14.2 12l.6-.4v.1l4.4-2.3.4-.2 3.1-1.5 1.2-.7m.3-.2 1.8-.9V4.2m-3.3 3.4v.8m0 2.1v19.2M20 43.2l.4.3m0 .1.9.9m.4.3.4.4.6.6v-3.7m0-2.3v-9.4M12.4 12.8l1.8-1m-5.4 32v7.4M26 22.9V5.8m-2.9 40.6v2.3l-.3.1-13.5 6.9-.5-.2h0v-4.1M26 47.2v-2.3l-1.2.6-1.4.6-.3.2-.4-.5m3.3 2v-.6M4.9 60.5l21.1-11v-1.7m-6-4.6-.8-.9M8.8 43.8v-.9m0 10.6-2.2 1.3-1.7.9M26 44.8V23" vector-effect="non-scaling-stroke"/><path fill="none" stroke="#95784a" stroke-linecap="round" stroke-linejoin="round" stroke-width="__RESOLUTION__" d="M19.2 19.8v22.5m0-22.4V9.3" vector-effect="non-scaling-stroke"/><path fill="none" stroke="#65481b" stroke-linecap="round" stroke-linejoin="round" stroke-width="__RESOLUTION__" d="m9.3 53.4-.5-.5" vector-effect="non-scaling-stroke"/></g><g id="m"><path fill="#000" fill-opacity=".3" d="M155.6 37.9q-1.4 2.5-5.2 6.1-5 4.7-11.7 8.9-17.2 10.9-33.4 10.9-7 0-15.6-1.8L80 60.3h-.6l-.2.6-.1.1-13.2-2.1L.7 25.2V0l154.9 23.9z"/><path fill="#69c" d="M22.5 100Q12 85.6 0 93.7V79.9q17.8 1.2 28.5 16.8 10.9 15.9 13.8 45.8v8.8h-1q-8-36.6-18.8-51.3"/></g><g id="k"><path fill="#875713" d="M163.3 6.4v18.5h-.1l-18.8 9.6h-.1v54.6h.2V89l18.6-9.5v18.7l-104.8 53 1.6-19.4 9-4.6h.1l-8-9.3 2.1-24.4 2 2.3v.1L78 111l.1.1h.1v-.2l-.1-.2V68.4L78 68h-.2l-12.7 6.4-.5.2 1.7-19.1L91 75.3v27.6l9.3-20.2 9 7.1-2.4 5-7.8 17v.2h.2l.1-.2 31.8-16.1h.3l.1-.2h-.1V42l.4-1v-.1h-.2l-.4.2-.1.1v.1h.1l.1.2-12.9 28.1 7-44.1zM66 55.4h.2v.2z"/><path fill="#241c00" d="m163.3 25-18.8 9.6v41.1l5.4-2.7h.1l.1.1h-.1l-5.5 2.8V89h-.2V34.5zm-44.7 44.6 12.9-28.1.1-.2h-.3v-.2l.5-.2h.2v.1l-.5 1-12.7 27.9v19l12.7 6.6h.2v.2h-.3l-.1-.1-12.6-6.4L107 95l-3.6 7.9-4.1 8.9v.2H99v-.1l7.8-17v-.1l2.3-5 9.2-20v-.1zm-53.9 5.1.5-.2L78 68l.1.1v.1l-12.7 6.5v21l12.8 15 .1.2v.1l-.1.1H78L65.1 95.9v-.1l-2-2.3L52.5 81v-.1zm26.4-13v-.2L115.6 49h.2v.1l-.2.1-20.3 10.4-4.2 8.9h-.2v-.1l.1-.3 3.8-8.3zm16.3 32.9 11.1-5.6V70.4zm-70.6-5.2h.1v8.7L56 120.7v.1l-19.2 9.7v13l-.1.1h-.1V89.3m28.3 6V74.7l-12 6.3zm-28.2 34.8 18.9-9.5-18.9-22.2z"/><path fill="#68440d" d="m150.1 73.2 6.3 3.1-11.9 6v-6.2zM0 149.2l11-5.6 12.1 6.1H10.2L5.8 152zm69-22-.2.2v-.2l-12.7-6.3-19.2 9.7v5.8l18.3-9.2zm34.5-24.2 3.6-8 11.5-5.7 12.6 6.4h.1v.1l-.1-.1H118z"/><path fill="#9c6419" d="m156.5 76.3 6.6 3.3-18.6 9.4v-6.7zM23 149.7l.6.3-10.7 5.4-7.2-3.5 4.4-2.2zm108.2-54-31.9 16.1 4.1-8.9 14.5-7.3h13.2zM69 127.3l-9 4.5-23 11.6v-7.1l18.3-9.2h13.6z"/><path fill="#905c15" d="m58.3 151.1-45.3 23v-18.7l10.8-5.4.7-.4h-.6v-54l.1-.1v-.1h-.2l-10.6 5.4H13V82.2l53-26.7.2.1-1.7 19.1-12.1 6.2v.1L63 93.6 61 118 36.8 89.6v-.1h-.1l-.3-.4v.1l.1.4v54l.1.1h.1l.1-.2 23-11.6z"/><path fill="#623e0d" d="m13 174-13-6.3v-18.6l5.8 2.8 7.2 3.5zm.1-73.2-2.1-1h-.1L.2 94.5V75.9L13 82.2z"/><path fill="#674b16" d="m23.9 150 .6-.4z"/><path fill="#946f2c" d="M23.9 150v-.4h.6z"/><path fill="#604a19" d="m23.9 149.9-.1-.1v-.2z"/><path fill="#382704" d="m23.8 149.8-12.6-6.4H11V100l2 1 11-5.4v54zM131.5 42v53.5L118.7 89l-.1-.1v-19zm-70.3 76 7.9 9.3-.2-.2-12.7-6.2v-.1L36.9 98v-8.6z"/><path fill="#a37021" d="M.2 75.9 150.2 0l13 6.4-37.7 19-59.2 30h-.2l-53 26.8z"/><path fill="#7e5111" d="m125.5 25.5-7 44.1v.1l-9.2 20.1-9-7.1 15.3-33.4.2-.1V49h-.2L90.9 61.6v.2h.1l.1-.1v6.4l-.1.3v.1h.1v6.8L66.3 55.6v-.2z"/><path fill="#78602e" d="M131.4 41.5v-.1l.1-.1z"/><path fill="#805212" d="M131.4 95.7h-.2z"/><path fill="#8b7329" d="M106.9 94.9v-.2zM78 68l.1.2v-.1z"/><path fill="#65420d" d="M100.3 82.7 91 102.9V68.5h.1l4.2-9 20.3-10.2z"/><path fill="#4b3307" d="M78.1 68.3v42.5L65.3 95.7v-21l12.6-6.5z"/><path fill="#654d1b" d="m36.5 89.1.3.3h-.1z"/><path fill="#69450d" d="m36.7 89.4-.2-.3z"/><path fill="#5d471c" d="M78.1 68.3h-.2z"/><path fill="none" stroke="#63420c" stroke-linecap="round" stroke-linejoin="round" stroke-width="__RESOLUTION__" d="M163.3 6.4v18.5h0v.1l.1.1h-.1l-18.8 9.6v41.1l5.4-2.7h.1l.1.1 6.3 3.1 6.7 3.3v18.6h0l-104.8 53L13 174l-13-6.3v-18.6l11-5.5 12.1 6.1m-10-48.9-2.1-1h0-.1L.2 94.5V75.9L150.2 0h0l13 6.4" vector-effect="non-scaling-stroke"/></g><g id="i"><path fill="#766b3e" d="m2.6 119-2-1v-5.7l7.4 3.9v5.5z"/><path fill="#746837" d="m2.6 119 5.4 2.8 3.4 1.7v8.4l-11-5.6v-5.7z"/><path fill="none" stroke="#291f00" stroke-linecap="round" stroke-linejoin="round" stroke-opacity=".3" stroke-width="__RESOLUTION__" d="m8 116.3-7.3-3.9m10.7 11.2L8 121.8" vector-effect="non-scaling-stroke"/><path fill="#766b3e" d="M7.8 102v5.5l-7.3-3.7v-5.6z"/><path fill="#746837" d="M11.4 109.5v8.4l-11-5.6v-5l2.3-2.3z"/><path fill="none" stroke="#291f00" stroke-linecap="round" stroke-linejoin="round" stroke-opacity=".3" stroke-width="__RESOLUTION__" d="m.5 98.2 7.3 3.7M2.7 105l8.7 4.5h0" vector-effect="non-scaling-stroke"/><path fill="#766b3e" d="M7.6 87.6v5.6L.3 89.4v-5.7z"/><path fill="#746837" d="M11.2 95v8.5l-9.5-4.9Q.3 97.6.2 95v-5.6z"/><path fill="none" stroke="#291f00" stroke-linecap="round" stroke-linejoin="round" stroke-opacity=".3" stroke-width="__RESOLUTION__" d="m.3 83.8 7.3 3.8M.2 89.4l11 5.6v.1" vector-effect="non-scaling-stroke"/><path fill="#746837" d="m1.9 76 9.2 4.7v8.5l-11-5.7v-4.7z"/><path fill="#766b3e" d="M7.7 73.3v5.5h-.1L.3 75.1v-5.6z"/><path fill="none" stroke="#291f00" stroke-linecap="round" stroke-linejoin="round" stroke-opacity=".3" stroke-width="__RESOLUTION__" d="M11.1 80.7 1.9 76M.3 69.5l7.4 3.8" vector-effect="non-scaling-stroke"/><path fill="#766b3e" d="M7.6 58.9v5.6h-.1L.2 60.8V55z"/><path fill="#746837" d="M11.2 66.4v8.4L1.6 70Q.3 69 .1 66.3v-5.5z"/><path fill="none" stroke="#291f00" stroke-linecap="round" stroke-linejoin="round" stroke-opacity=".3" stroke-width="__RESOLUTION__" d="m.2 55.1 7.4 3.8M.2 60.8l11 5.6h0" vector-effect="non-scaling-stroke"/><path fill="#766b3e" d="M7.8 44.7v5.5h-.1l-6.5-3.4 2.4-4.3z"/><path fill="#746837" d="M11.2 52.1v8.4L.2 55v-4.7l1.8-3z"/><path fill="none" stroke="#291f00" stroke-linecap="round" stroke-linejoin="round" stroke-opacity=".3" stroke-width="__RESOLUTION__" d="m3.6 42.5 4.2 2.1m3.4 7.5L2 47.3" vector-effect="non-scaling-stroke"/><path fill="#766b3e" d="M8.6 30.9v5.6l-7.3-3.7V27z"/><path fill="#746837" d="M12 38.3v8.5L1 41.2v-4.8l1.8-2.8z"/><path fill="#726634" d="M12 38.3v.1"/><path fill="none" stroke="#291f00" stroke-linecap="round" stroke-linejoin="round" stroke-opacity=".3" stroke-width="__RESOLUTION__" d="m1.3 27.1 7.3 3.8m3.5 7.4-9.3-4.7m9.3 4.7v.1" vector-effect="non-scaling-stroke"/><path fill="#746837" d="M12.1 24v8.5l-9.5-4.9Q1.1 26.6 1 24v-5.6z"/><path fill="#766b3e" d="M8.5 16.5v5.6l-7.3-3.7v-5.6z"/><path fill="none" stroke="#291f00" stroke-linecap="round" stroke-linejoin="round" stroke-opacity=".3" stroke-width="__RESOLUTION__" d="m12.2 24.1-11-5.7m0-5.6 7.4 3.7" vector-effect="non-scaling-stroke"/><path fill="#746837" d="M12.2 9.8v8.4l-11-5.7V7.8L2.9 5z"/><path fill="#766b3e" d="M8.7 2.3v5.6L2 4.5 4.6.1z"/><path fill="none" stroke="#291f00" stroke-linecap="round" stroke-linejoin="round" stroke-opacity=".3" stroke-width="__RESOLUTION__" d="M12.2 9.8 3 5M4.5.1l4.1 2.2m3.5 7.5" vector-effect="non-scaling-stroke"/></g><g id="h"><path fill="#c6c097" d="m2.6 119-2-1v-5.7l7.4 3.9v5.5z"/><path fill="#c0b987" d="m2.6 119 5.4 2.8 3.4 1.7v8.4l-11-5.6v-5.7z"/><path fill="none" stroke="#090700" stroke-linecap="round" stroke-linejoin="round" stroke-opacity=".3" stroke-width="__RESOLUTION__" d="m8 116.3-7.3-3.9m10.7 11.2L8 121.8" vector-effect="non-scaling-stroke"/><path fill="#c6c097" d="M7.8 102v5.5l-7.3-3.7v-5.6z"/><path fill="#c0b987" d="M11.4 109.5v8.4l-11-5.6v-5l2.3-2.3z"/><path fill="none" stroke="#090700" stroke-linecap="round" stroke-linejoin="round" stroke-opacity=".3" stroke-width="__RESOLUTION__" d="m.5 98.2 7.3 3.7M2.7 105l8.7 4.5h0" vector-effect="non-scaling-stroke"/><path fill="#c6c097" d="M7.6 87.6v5.6L.3 89.4v-5.7z"/><path fill="#c0b987" d="M11.2 95v8.5l-9.5-4.9Q.3 97.6.2 95v-5.6z"/><path fill="none" stroke="#090700" stroke-linecap="round" stroke-linejoin="round" stroke-opacity=".3" stroke-width="__RESOLUTION__" d="m.3 83.8 7.3 3.8M.2 89.4l11 5.6v.1" vector-effect="non-scaling-stroke"/><path fill="#c0b987" d="m1.9 76 9.2 4.7v8.5l-11-5.7v-4.7z"/><path fill="#c6c097" d="M7.7 73.3v5.5h-.1L.3 75.1v-5.6z"/><path fill="none" stroke="#090700" stroke-linecap="round" stroke-linejoin="round" stroke-opacity=".3" stroke-width="__RESOLUTION__" d="M11.1 80.7 1.9 76M.3 69.5l7.4 3.8" vector-effect="non-scaling-stroke"/><path fill="#c6c097" d="M7.6 58.9v5.6h-.1L.2 60.8V55z"/><path fill="#c0b987" d="M11.2 66.4v8.4L1.6 70Q.3 69 .1 66.3v-5.5z"/><path fill="none" stroke="#090700" stroke-linecap="round" stroke-linejoin="round" stroke-opacity=".3" stroke-width="__RESOLUTION__" d="m.2 55.1 7.4 3.8M.2 60.8l11 5.6h0" vector-effect="non-scaling-stroke"/><path fill="#c6c097" d="M7.8 44.7v5.5h-.1l-6.5-3.4 2.4-4.3z"/><path fill="#c0b987" d="M11.2 52.1v8.4L.2 55v-4.7l1.8-3z"/><path fill="none" stroke="#090700" stroke-linecap="round" stroke-linejoin="round" stroke-opacity=".3" stroke-width="__RESOLUTION__" d="m3.6 42.5 4.2 2.1m3.4 7.5L2 47.3" vector-effect="non-scaling-stroke"/><path fill="#c6c097" d="M8.6 30.9v5.6l-7.3-3.7V27z"/><path fill="#c0b987" d="M12 38.3v8.5L1 41.2v-4.8l1.8-2.8z"/><path fill="#bbb67f" d="M12 38.3v.1"/><path fill="none" stroke="#090700" stroke-linecap="round" stroke-linejoin="round" stroke-opacity=".3" stroke-width="__RESOLUTION__" d="m1.3 27.1 7.3 3.8m3.5 7.4-9.3-4.7m9.3 4.7v.1" vector-effect="non-scaling-stroke"/><path fill="#c0b987" d="M12.1 24v8.5l-9.5-4.9Q1.1 26.6 1 24v-5.6z"/><path fill="#c6c097" d="M8.5 16.5v5.6l-7.3-3.7v-5.6z"/><path fill="none" stroke="#090700" stroke-linecap="round" stroke-linejoin="round" stroke-opacity=".3" stroke-width="__RESOLUTION__" d="m12.2 24.1-11-5.7m0-5.6 7.4 3.7" vector-effect="non-scaling-stroke"/><path fill="#c0b987" d="M12.2 9.8v8.4l-11-5.7V7.8L2.9 5z"/><path fill="#c6c097" d="M8.7 2.3v5.6L2 4.5 4.6.1z"/><path fill="none" stroke="#090700" stroke-linecap="round" stroke-linejoin="round" stroke-opacity=".3" stroke-width="__RESOLUTION__" d="M12.2 9.8 3 5M4.5.1l4.1 2.2m3.5 7.5" vector-effect="non-scaling-stroke"/></g><g id="g"><path fill="#b1a145" d="m154.3.7-.2-.2h2.5v16.8L78.3 56.9l-.5-.2v-3.2q3.5-1.9 6.5-4.7 2.8-10.4 14.3-7l4 .5q6.5-6.6 14.6-10.3 1.7-.8 3.8-.9l.8-.1 16-7.2 1.4-.7 1.7-.7q7.1-3.4 13-8-1-6.6.7-13.4z"/><path fill="#cfd08c" d="m154.3.7.3.3q-1.7 6.8-.7 13.4-5.9 4.5-13 8l-1.7.8-1.4.6-16 7.2-.8.1q-2.1.1-3.8.8-8.2 3.8-14.5 10.4l-4.2-.4q-11.4-3.5-14.2 6.9-3 2.9-6.5 4.7V35z"/><path fill="#3f3000" d="M77.9 53.5v.5q-.3 1.5-.9 2.4L.5 17.4V6.9q2.9 3.4 4.8 8 .6 1.5 2.2 2.5Q23.4 26 39.8 33.7q3.8 1.8 7.5 4.2 4.6 2.9 10 3.6 6.2-3.5 13.1 2l1.6 2 .5 1.3q3.2.1 5.3 1.6z"/><path fill="#968b1b" d="M77.9 54v2.7l-.9-.4q.6-.8.8-2.3"/><path fill="#5b4700" d="M.5 6.9V.4l77.2 33.9-.3.9.4-.2v13.3q-2.1-1.5-5.2-1.6l-.6-1.3-1.6-2q-7-5.5-13.2-2-5.3-.7-9.9-3.6-3.7-2.4-7.5-4.2-16.4-7.8-32.3-16.3-1.6-1-2.2-2.4-1.9-4.6-4.8-8"/><path fill="none" stroke="#390e00" stroke-linecap="round" stroke-linejoin="round" stroke-width="1" d="m132.5 29.5 6.3-3.2m-16.5 8.3 6.5-3.2m25.8-13.1 2-1V.5M147.3 22l1.5-.9m-46.4 23.6.5-.3M83 54.5l6.8-3.4m-74-25.9 4.3 2.2m41.2 20.9 10.5 5.3M31.2 33l12.2 6.1M.5.5v16.9l2.2 1.1"/></g><g id="f"><path fill="#816841" d="M155.9 1.4v48.2l-.6 23q-2.3-6.2-4.2-1.6-.6 1.5-2.2 2.4-15.8 8.5-32.1 16.2-3.8 1.9-7.5 4.3-4.6 2.8-9.9 3.4-6.2-3.3-13.1 2.2-1 .7-1.6 1.8l-.5 1.3q-3.2.2-5.3 1.7V88.5q-1.4.9-3 1 1.5-2.7 1.8-5.3l1.2-10.6q-1.3-3.8-2.4-6.1l1.7-.2.7.6V42.2h.2q2 0 3.4-1.4 1.1-1.2 1.3-2.7z"/><path fill="#655132" d="m155.3 72.6.6.8-76.2 38.8q-.6-.9-.8-2.4v-5.5q2-1.5 5.3-1.7l.5-1.2q.6-1.2 1.6-1.9 6.9-5.5 13.1-2.2 5.3-.5 9.9-3.5 3.7-2.3 7.5-4.2 16.3-7.7 32.1-16.2 1.6-.9 2.3-2.4 1.8-4.7 4.1 1.6"/><path fill="#bcac78" d="m79.7 112.2-.8.4v-2.7q.2 1.4.8 2.3"/><path fill="#d7c2a2" d="m78.9 112.6-.5.2L.5 73.3v-26l1.5-.8v.1l1.4.2q.8.5 1 1.4 1.4 5.1-1.9 8.9 1.5 6.7.7 13.3 6.5 5.1 14.6 8.7L35 87l.9.2q2 0 3.7.8 8.1 3.7 14.5 10.3l4-.4q11.5-3.5 14.3 6.8 2.8 3 6.4 4.8z"/><path fill="#f5f1e9" d="M.5 47.2V42q1.2-2 0-3.1v-4.4l.2-.2q2.8-3-.2-4.7V16.7l4.8 2.4v6.7l6.7-.2v-3l5.7 3v6.2l6.7.1v-3l8.5 4.4 3 .5q2.3 1.4 4.3 3.3L50 42v5l6.6-.2v-1.5l10.6 5.3h-.9v6.1l7.2-.2v-2.8l5.4 2.8v11.4l-.7-.6-1.7.2q1.1 2.3 2.4 6.1l-1.2 10.6q-.2 2.5-1.7 5.3 1.5-.1 2.9-1v20.8q-3.6-1.7-6.5-4.7-2.7-10.3-14.2-6.8l-4 .5q-6.4-6.7-14.5-10.4-1.7-.8-3.7-.8l-.9-.2-17.3-7.8q-8.1-3.6-14.6-8.7.8-6.6-.7-13.3 3.3-3.8 2-8.9-.3-.9-1.1-1.4L2 46.6v-.1zm32.4-13.9H32zM27 42.6v.2zm23.7 8.6.8.3z"/><path fill="#d3c9a5" d="M.5 16.7V.8h.7L74.5 38q0 .9.5 1.7l.6 1 .2.1q1.3 1.3 3.1 1.4v14.3l-5.5-2.8v2.8l-7 .2v-6.1h.8l-10.6-5.3v1.5L50 47v-5l-9.9-5q-1.9-1.8-4.1-3.2l-3.1-.5-8.5-4.4v3l-6.7-.1v-6.2l-5.7-3v3l-6.7.2v-6.7z"/><path fill="#bfa875" d="M.5.8V.5l.7.3z"/><path fill="none" stroke="#5f2f01" stroke-linecap="round" stroke-linejoin="round" stroke-width="1" d="M155.9 1.4v48.2l-.6 23m-75.6 39.6-.8.4-.5.2L.5 73.3V42q1.2-2 0-3.1v-4.4l.2-.2q2.8-3-.2-4.7V.5"/></g><g id="e"><path fill="#291805" fill-opacity=".1" d="M2.2 12Q1.8 7.9 2 5.2h9.1v10.6z"/><path fill="#291805" d="m10.7 3.2.5.2v4.4l-.4.5-4.9 2.2V5.3z"/><path fill="#402409" d="M10.7 3.2 6 5.2l-.2.1L0 2.1 4.6 0z"/><path fill="#8a5413" d="M6 5.3v5.2h-.2L2.3 8.7v-.1h-.1L0 7.4V2.1z"/></g><g id="d"><path fill="#816841" d="M155.9 1.5V63q-2.9 3.3-4.7 8-.7 1.5-2.3 2.4-15.8 8.5-32.1 16.3-3.8 1.8-7.5 4.1-4.6 3-9.9 3.5-6.2-3.3-13.1 2.2-1 .7-1.6 1.8l-.5 1.4q-3.2.1-5.3 1.5V88.6q-1.4.9-3 1 1.5-2.7 1.8-5.3l1.2-10.5q-1.3-3.9-2.4-6.2l1.7-.2.7.6V38.7l.3-4.8v-1.8h2.3l.8 1.8z"/><path fill="#655132" d="M155.9 63v10.4l-76.2 38.8q-.6-.8-.8-2.4v-5.5q2-1.5 5.3-1.6l.5-1.4q.6-1.1 1.6-1.8 6.9-5.5 13.1-2.2 5.3-.5 9.9-3.5 3.7-2.3 7.5-4.1 16.3-7.7 32.1-16.3 1.6-.9 2.3-2.4 1.8-4.7 4.7-8"/><path fill="#bcac78" d="m79.7 112.2-.8.4v-2.7q.2 1.5.8 2.3"/><path fill="#d7c2a2" d="m78.9 112.6-.5.2L.5 73.3v-26l1.5-.8v.1l1.4.2q.8.5 1 1.4 1.4 5.1-1.9 8.9 1.5 6.8.7 13.3 6.5 5.1 14.6 8.8L35 87l.9.1q2 0 3.7.9 8.1 3.7 14.5 10.3 2.1.1 4-.5 11.5-3.5 14.3 6.9 2.8 2.9 6.4 4.6z"/><path fill="#d3c9a5" d="M.5 47.3V42q1.2-2 0-3.1v-4.4l.2-.1q2.8-3.1-.2-4.7V.9h.7l66.6 33.7 3.6-2.5h7.5v35.8l-.7-.6-1.7.2q1.1 2.3 2.4 6.2l-1.2 10.5q-.2 2.5-1.7 5.3 1.5-.1 2.9-1v20.8q-3.6-1.7-6.5-4.6-2.7-10.4-14.2-6.9-1.9.6-4 .5-6.4-6.6-14.5-10.3-1.7-.8-3.7-.9l-1-.1-17.3-7.8q-8.1-3.7-14.6-8.8.8-6.6-.7-13.3 3.3-3.8 2-8.9-.3-.9-1.1-1.4L2 46.6v-.1zm73.7-9.4.3.1-.1-.5zM51.5 51.5l-.9-.3h.1zM32.2 33.3H32h.9zM27 42.8v-.2z"/><path fill="#bfa875" d="M.5.9V.5l.7.4z"/><path fill="#f30" d="m74.2 37.9.2-.4v.5z"/><path fill="none" stroke="#5f2f01" stroke-linecap="round" stroke-linejoin="round" stroke-width="1" d="M155.9 1.5V63m-76.2 49.2-.8.4-.5.2M.5 47.3V42q1.2-2 0-3.1v-4.4l.2-.1q2.8-3.1-.2-4.7V.5"/></g><path id="t" fill="none" stroke="#69c" stroke-linecap="round" stroke-linejoin="round" stroke-width="2" d="M20.7 20.2q5-42.5 8.7 4.4 35.4-4.3 35 37.5Q25.7 65 24 29q-46.4-3.7-3.4-8.8" transform="translate(1 1)"/><path id="s" fill="#9b7a44" d="M44.9-134.7h-4.3zm-92.4-38.4.1-.3z" transform="translate(47.55 173.4)"/><path id="p" fill="#69c" d="M26.9 18q8.6 8.9 12.4 19.9H1.6q17.3-11.8 25.2-20" transform="translate(-1.7 -17.95)"/><path id="o" fill="#4a2900" d="M177.4 33.3q1.3 1.4 2.2 3.4 2.3 4.8 2.6 14 .4 9.3-.3 12.6l.2-.2q-1.1 8.2-6.2 15.1l-21.6 11.3H78.2L18.8 59.4v-2.9h-5.6L2 50.9q-1-.5-1.5-1.4-.6-1-.5-2.1l1.3-23.5v-.2Q2.7 13 10 2.3q.8-1.1 2-1.5l1.6-.5 1-.3q-5 17-6.1 24.5l-1.2 21 75.1 38q5.6 2 20 2l26.4-.3q23.4-.2 35.9-5.7l.4-.3q8.4-7.4 9.8-17.1.1-1.2 1-2.1-.6-.4-.9-9l-1.3-19.4q.8 0 1.6.4l1.1.5z"/><path id="n" fill="#4a2900" d="m172.5 42.7-1.3 1.7q-6.7 9-17.5 10.7-35.7 5.8-71.9 2L28.5 29.9Q-6.2 17.7 1.4 3l7.5-3 93.3 42.3 54.2-3.8 16.8-27.9q12.7 12.9.6 30.3z"/><path id="j" fill="#203141" d="M26.9 18q8.6 8.9 12.4 19.9H1.6q17.3-11.8 25.2-20" transform="translate(-1.7 -17.95)"/><linearGradient id="a" x1="-819.2" x2="819.2" gradientTransform="matrix(-.01 .02 -.08 -.04 95.45 63.45)" gradientUnits="userSpaceOnUse" spreadMethod="pad"><stop offset="0" stop-color="#6a4900" stop-opacity="1"/><stop offset="1" stop-color="#603f00" stop-opacity="1"/></linearGradient><clipPath id="c"><path d="M1 1h183v305H1z"/></clipPath><use xlink:href="#b" id="l" width="32.1" height="60"/></defs><g clip-path="url(#c)"><g transform="translate(90.3 260.1)"><use xlink:href="#d" width="156.4" height="113.3" transform="translate(-78.75 -126.2)"/><use xlink:href="#e" width="11.2" height="15.8" transform="matrix(-.7295 0 0 .7295 81.2 -125.6)"/><use xlink:href="#e" width="11.2" height="15.8" transform="matrix(-.7295 0 0 .7295 65.95 -117.85)"/><use xlink:href="#e" width="11.2" height="15.8" transform="matrix(-.7295 0 0 .7295 50.7 -110.05)"/><use xlink:href="#e" width="11.2" height="15.8" transform="matrix(-.7295 0 0 .7295 35.45 -102.35)"/><use xlink:href="#e" width="11.2" height="15.8" transform="matrix(-.7295 0 0 .7295 20.2 -94.6)"/><use xlink:href="#e" width="11.2" height="15.8" transform="translate(-66.35 -118.4)scale(.7295)"/><use xlink:href="#e" width="11.2" height="15.8" transform="translate(-51.05 -110.75)scale(.7295)"/><use xlink:href="#e" width="11.2" height="15.8" transform="translate(-35.8 -102.9)scale(.7295)"/><use xlink:href="#e" width="11.2" height="15.8" transform="translate(-20.5 -95.25)scale(.7295)"/><use xlink:href="#f" width="156.4" height="113.3" transform="translate(-78.75 -88.35)"/><use xlink:href="#e" width="11.2" height="15.8" transform="matrix(-.7295 0 0 .7295 64.15 -78.8)"/><use xlink:href="#e" width="11.2" height="15.8" transform="translate(-37 -65.65)scale(.7295)"/><use xlink:href="#e" width="11.2" height="15.8" transform="translate(-20.5 -57.1)scale(.7295)"/><use xlink:href="#g" width="157.1" height="56.9" transform="matrix(-.9957 0 0 .9957 77.15 -17.4)"/><use xlink:href="#e" width="11.2" height="15.8" transform="translate(-79.6 -87.15)scale(.7295)"/><use xlink:href="#e" width="11.2" height="15.8" transform="matrix(-.7295 0 0 .7295 32.5 -62.6)"/><use xlink:href="#h" width="12.3" height="131.9" transform="matrix(1 -.0566 0 1 -79.3 -126.25)"/><use xlink:href="#i" width="12.3" height="131.9" transform="matrix(-1 -.0566 0 1 77.55 -126.3)"/><use xlink:href="#j" width="37.5" height="19.9" transform="matrix(-.4 .2005 0 .4 70.85 -7.5)"/><use xlink:href="#k" width="163.4" height="174.1" transform="matrix(.15 0 0 .15 54.2 -22.6)"/><use xlink:href="#j" width="37.5" height="19.9" transform="matrix(-.4 .2005 0 .4 36 10.6)"/><use xlink:href="#i" width="12.3" height="131.9" transform="matrix(1 -1.009 0 1 -1 -86.65)"/><use xlink:href="#j" width="37.5" height="19.9" transform="matrix(-.4 .2005 0 .4 20.6 17.6)"/><use xlink:href="#k" width="163.4" height="174.1" transform="matrix(.15 0 0 .15 22.55 -9)"/><use xlink:href="#h" width="12.3" height="131.9" transform="matrix(-1 -1.009 -.0119 .988 1.45 -85.55)"/><use xlink:href="#l" width="32.1" height="60" transform="matrix(-.7949 0 0 .7949 -40.4 -107.35)"/><use xlink:href="#m" width="155.6" height="151.3" transform="translate(-78.9 -130.15)"/><use xlink:href="#n" width="179.7" height="58.6" transform="translate(-87.4 -151.9)"/><use xlink:href="#o" width="182.3" height="89.5" transform="translate(-89.3 -181.05)"/><use xlink:href="#p" width="37.5" height="19.9" transform="matrix(.4 .2005 0 .4 -74.55 -8.35)"/><use xlink:href="#p" width="37.5" height="19.9" transform="matrix(.4 .2005 0 .4 -57.15 -.05)"/><use xlink:href="#p" width="37.5" height="19.9" transform="matrix(.4 .2005 0 .4 -39.7 9.75)"/><use xlink:href="#p" width="37.5" height="19.9" transform="matrix(.4 .2005 0 .4 -24.3 16.75)"/><use xlink:href="#j" width="37.5" height="19.9" transform="matrix(-.4 .2005 0 .4 53.45 .8)"/><use xlink:href="#b" width="32.1" height="60" transform="translate(31.45 -72.9)scale(.7949)"/><use xlink:href="#q" width="26" height="60.5" transform="translate(30.95 -36.8)"/><use xlink:href="#r" width="182.3" height="149.5" transform="translate(-89.3 -247.3)"/><use xlink:href="#s" width="92.5" height="38.8" transform="translate(-47.55 -173.4)"/><use xlink:href="#t" width="66.3" height="64.3" transform="rotate(184.116 -8.882 6.402)scale(.3135)"/><use xlink:href="#t" width="66.3" height="64.3" transform="rotate(-29.014 -71.098 144.896)scale(.313)"/><use xlink:href="#u" width="122" height="121.8" transform="translate(-66.4 -224.2)"/><use xlink:href="#v" width="48.3" height="29.8" transform="translate(-33.15 -247.45)"/><use xlink:href="#w" width="109" height="63" transform="translate(-78.4 -181.4)"/><use xlink:href="#x" width="138.2" height="163.9" transform="translate(-35.45 -259.1)scale(.0934)"/><use xlink:href="#x" width="138.2" height="163.9" transform="matrix(-.0934 0 0 .0934 -29.5 -190.05)"/><use xlink:href="#k" width="163.4" height="174.1" transform="matrix(.15 0 0 .15 .05 2.35)"/><use xlink:href="#y" width="52.3" height="76.3" transform="translate(-68.7 -86.55)"/><use xlink:href="#e" width="11.2" height="15.8" transform="matrix(-.7295 0 0 .7295 80.1 -86.65)"/><use xlink:href="#e" width="11.2" height="15.8" transform="matrix(-.7295 0 0 .7295 15.1 -53.35)"/><use xlink:href="#z" width="50.4" height="64.8" transform="translate(14.95 -79.65)"/></g></g></svg>