<svg xmlns="http://www.w3.org/2000/svg" xmlns:xlink="http://www.w3.org/1999/xlink" width="60" height="61" viewBox="0 0 60 61"><defs><g id="c"><path fill="#28b58a" fill-opacity=".5" d="M33.1 10.8 29.9 8l5.9 1.4 3.4-1.8-1.2 2.5 4 .5-4.8.8-.8 2.9-2.4-2.1-5.3.8zM15.5 9.6l2.5-.5-1.4 1 1.8 1-2.1-.3-1.1.9-.3-1.2-2.1-.4 1.8-.2-.5-1zm13-9.3-2 1.7 2.7 1.3-3.3-.4-1.5 1.3-.5-1.8-3.1-.4 2.6-.5-.7-1.5 2.1 1.1z"/><path fill="#5a5c26" fill-opacity=".5" d="m26.3 42.3.7.6q.2-.4 4.1-1.5 1.4-.4 1.4-.7.1-.7.5-1.5.2-1 .4-1.1 0-.2 1-.9l3.8-2.5q-.7.8-1 1.9l1.3 1 1.8.4 5.7-1q1.7-1.7 3.9-1.8l2.6-.3v5.9l-3.4 1.7-.3-.1q-9.3-5.1-18.1 9.5L26.3 54z"/><path fill="#5a5c26" fill-opacity=".3" d="M26.3 54 0 40.9v-5.1q2 1.9 2.7 1.9l5.7-1.1h.4q.3 1 4 3.7 1.5 1.8 1.4 2.5l1.6-1.4q.7.9 1.5 2.5.3.6 2.3.8h2.1q-.2-2.5 4.2-2.5l.4.2z"/></g><g id="b"><path fill="#1b3231" d="M7.2 7 7 6.5l.3-1.9 1.5-3.4.1.3Q8 3.7 7.5 5.7zm-6.7.8.8-.2 2 1 .2 1.2-.6-.5q-.6-.5-1.2-.7L.4 8.5zm1.8 7.6 1.4-.1.5-2L5.8 10l2.5 1.4 1-2 .3.1-1.2 3.8q-1.4-2.1-2.7-2-.7.9-1.2 2.3l-.7 2.6-1.7-.4z"/><path fill="#2e5655" d="M8.8 1.2 7.2 4.6l-.2 2 .2.4.4.7q.8 1.2 1.8 1.7l-1.1 2L5.8 10l-1.7 3.4-.5 1.9-1.5.1 1.2-4.1.2-1.6-.2-1.1-2-1-.8.3V6l2.9.2q.1-2-.4-4.1l1.2-1q.6 2.2 1.6 3.1 1.2-1.5 2-4z"/><path fill="none" stroke="#000" stroke-linecap="round" stroke-linejoin="round" stroke-opacity=".3" stroke-width="__RESOLUTION__" d="m7.2 7 .2-1.3Q8 3.7 9 1.5l-.2-.3L8 .4q-.8 2.4-2 4-1-1-1.6-3.2l-1.1 1q.4 2.1.3 4H.7L.4 7.8l-.2.5 1.4.3q.6.2 1.2.7l.6.4-.2 1.6-1.1 4.1-.2.3 1.8.5.7-2.6q.5-1.4 1.2-2.3 1.3-.1 2.6 2l1.3-3.8-.2-.1q-1-.5-1.8-1.7z" vector-effect="non-scaling-stroke"/><path fill="#536c6c" d="m5 6.1-.2.3-.3-.2-.2-.5.1-.5.2-.3.4.2.1.5zm0 1.5.2-.2.2.1.2.4v.5l-.3.3-.2-.2-.2-.4zm-1.2.2.2-.2.2.2.1.4v.3l-.2.3q-.2 0-.3-.2l-.1-.4zm.6 2.4.3-.2.1.1.1.3v.3l-.2.2-.2-.2z"/></g><g id="a"><path fill="#4d3e28" d="m52.4 21.7.4-.2v3q-1.8.7-3.9 1.8-6.2 3.2-8.6 5.1-4.2 3.3-9.7 6.7-1.4.9-4.1 1.3v-4.6l5.8-3 3-.5 1.9-2 8.1-4.1h2.4l1.1-1.7zm-25.9 7.1 25.6-12.9.6 1v1.6l-2 1.1-22 11.1-2.2.2zm26.3.7-.8.2-7.9 2.1q-.5 0-.5-.6 0-.4 5.6-3.1l3.5-1.9zm0 3.3v4.6l-1.9.9-10 4q-10.8 3.9-14.3 6V45l2.1-1.1q4.3-2.2 7-4.1Q39 37.3 52 33zm-32.3-7 .8.3 1.1.6-1.1 2.4z"/><path fill="#2d2317" d="m52.4 21.7-3.5 1.8-1.2 1.8-2.4-.1-8.1 4.1-1.9 2-3 .5-5.8 3v-1.5L24.9 31l1.6-.2 2.3-.2 21.8-11.1z"/><path fill="#a38354" d="M26.5 34.8v2.6q-5.3-1.8-6.6-2.7l-2-1.2q-2.8-1.4-8.5-3.9Q4 27.4.3 26.2v-4.7zM.3 30l5.5 1.4q7.5 2.3 7.7 4.4l-1.7.3-6.1-1.4-5.4-1.5zm0 6h.6q2.1.1 9 2.3 2.8.7 9.3 3.8h.1q5.4 2.6 7 2.9h.2v3.3l-.2.2L20 47l-2.9-.9-2.7-.5-2.2-1.1 2.1 1-3.1-.1h-.7l-2.7-.2Q4.7 44.7.3 43zm8.6 6.8-2.4-1.3zm-1 2.4 3.4.2zM1.2 39l-1-.5z"/><path fill="#92754b" d="M26.5 37.4v2l1.1.6h-1.1v5h-.1q-1.7-.2-7.1-2.7l-.1-.1q-6.5-3.1-9.3-3.8-6.8-2.1-9-2.2L.3 36v-2.9l5.4 1.6 6.1 1.4 1.6-.3q-.2-2.1-7.6-4.3L.3 30v-3.9q3.7 1.2 9.1 3.5 5.7 2.5 8.5 3.9l2 1.2q1.3.9 6.6 2.7m0 11V58l-4.1-2-.7-1q-5.1-8.1-10.4-9.5l3.1.2 2.8.5 2.9.9 6.1 1.5zm-6.8-23.1.8.4.8 3.4 3.6 1.8 1.6-.1v-2l-4.1-2.1-1.1 2.4-19.2-9.7-1.8-1v-2.9zm-15.2 21-.3.2-.2.2-3.7-2v-1.6q4.4 1.6 7.6 2.1-1.7.3-3.4 1.1m10-.6 12 6zm8.8 10-1.6-.7z"/><path fill="#372d1e" d="M26.5 39.4q2.8-.4 4.1-1.3 5.5-3.4 9.6-6.7 2.5-1.9 8.7-5.1l3.9-1.9v1.9L49.2 28q-5.6 2.7-5.6 3.1 0 .6.5.6l7.9-2.1.8-.2v3.3l-.8.2q-13 4.3-16.3 6.8-2.8 1.9-7 4.1l-2.2 1V40h1.1zm26.3-2v7.4l-3.4 1.7-.4-.1q-9.3-5.1-18.1 9.5l-4 2h-.4.4l-.4.2v-9.7q3.5-2.2 14.4-6.1l10-4zm0 1L26.5 51.9z"/><path fill="#104535" d="m51.1 14.3 1 1.5-25.6 13v-2zm-32 8.8 6.5-2.4-3.7 3.7-.6 1.8-.8-.4-.8-.5z"/><path fill="#176b59" d="M51.1 14.3 26.5 26.8l-4.6-2.4 3.7-3.7-6.5 2.4L.3 13.4 26.5.3l23 11.6zm-29-10v.1"/><path fill="#1e8465" d="M26.5 26.8v2l-4.1-2.1-1.1-.6.6-1.7zM19.1 23l.6 2.2L.3 15.4v-2z"/><path fill="#000" fill-opacity=".3" d="m52.8 44.8 4.4 2.2-21.5 10.9H27l4-2q8.8-14.6 18.2-9.5l.3.1zM4.5 46.3q1.7-.8 3.4-1l2.7.2h.7q5.3 1.4 10.4 9.5z"/><path fill="#6a5537" d="m.3 21.5 1.9-2L21.3 29l3.6 1.8 1.6 2.4v1.5z"/><path fill="none" stroke="#000" stroke-linecap="round" stroke-linejoin="round" stroke-opacity=".3" stroke-width="__RESOLUTION__" d="M52.8 24.5v-3m0-4.7v1.6m0 11.1v-5.1m0 5.2v15.2m-21.9 11q8.8-14.5 18.2-9.4l.3.1M.3 18.5v-1.7m0-.1v-3.2L26.5.1l23 11.6M.3 30.1v14.6m4.2 1.6-.3.2-.2.2m3.9-1.5q-1.7.3-3.4 1.1M21.7 55q-5.1-8.1-10.4-9.5l-3.4-.2M22.4 56l-.7-1M.3 26.2V30m0-8.7v4.8" vector-effect="non-scaling-stroke"/><path fill="none" stroke="#000" stroke-linecap="round" stroke-linejoin="round" stroke-opacity=".1" stroke-width="__RESOLUTION__" d="M35.8 57.9h1m-10.3 0h.4m-5.2-3 1.6.8" vector-effect="non-scaling-stroke"/><path fill="none" stroke="#000" stroke-linecap="round" stroke-linejoin="round" stroke-opacity=".3" stroke-width="__RESOLUTION__" d="m26.5 51.8 26.3-13.3M6.5 41.6l2.4 1.3m3.4 1.7 2.1 1 12.1 6.1M.3 38.6l.8.5" vector-effect="non-scaling-stroke"/></g><g id="e" transform="translate(.25 .2)"><use xlink:href="#a" width="57.2" height="58.3" transform="translate(-.25 -.2)"/><use xlink:href="#b" width="10" height="16.5" transform="translate(38.4 26.2)"/><use xlink:href="#c" width="52.5" height="54" transform="translate(0 3.8)"/></g><clipPath id="d"><path d="M1 1h58v59H1z"/></clipPath></defs><g clip-path="url(#d)"><use xlink:href="#e" width="57.2" height="58.3" transform="translate(1 1)"/></g></svg>