<svg xmlns="http://www.w3.org/2000/svg" xmlns:xlink="http://www.w3.org/1999/xlink" width="127" height="158" viewBox="0 0 127 158"><defs><linearGradient id="e" x1="-819.2" x2="819.2" gradientTransform="matrix(.02 -.04 .02 .01 -28.95 -81.45)" gradientUnits="userSpaceOnUse" spreadMethod="pad"><stop offset="0" stop-color="#faf0c0" stop-opacity="1"/><stop offset="1" stop-color="#645639" stop-opacity="1"/></linearGradient><linearGradient id="d" x1="-819.2" x2="819.2" gradientTransform="matrix(.01 -.02 .02 .01 -60.65 -111.3)" gradientUnits="userSpaceOnUse" spreadMethod="pad"><stop offset="0" stop-color="#faf0c0" stop-opacity="1"/><stop offset="1" stop-color="#645639" stop-opacity="1"/></linearGradient><linearGradient id="c" x1="-819.2" x2="819.2" gradientTransform="matrix(0 .01 -.01 0 -58.4 -161.3)" gradientUnits="userSpaceOnUse" spreadMethod="pad"><stop offset="0" stop-color="#bc8730" stop-opacity="1"/><stop offset="1" stop-color="#32291d" stop-opacity="1"/></linearGradient><linearGradient id="b" x1="-819.2" x2="819.2" gradientTransform="matrix(.01 -.03 .02 .01 -65.05 -100.7)" gradientUnits="userSpaceOnUse" spreadMethod="pad"><stop offset="0" stop-color="#faf0c0" stop-opacity="1"/><stop offset="1" stop-color="#645639" stop-opacity="1"/></linearGradient><linearGradient id="a" x1="-819.2" x2="819.2" gradientTransform="matrix(.02 -.05 .04 .02 -26.45 -103.75)" gradientUnits="userSpaceOnUse" spreadMethod="pad"><stop offset="0" stop-color="#faf0c0" stop-opacity="1"/><stop offset="1" stop-color="#645639" stop-opacity="1"/></linearGradient><g id="i"><path fill="#0f0f0d" fill-opacity=".7" d="m99 49.6.6 3.6-3.8 5.6 1.5 3.6-1.2.8L95 77.4l-2.9 1.8L89 68.9l1.3-12.4 2 1 3-4zM12 18.4l3.2 6.5-2 .7V42l-.2.3-2.9-2.1L8.5 18H9l3-3.2.8-1.6 5.3 2.3.2 1.7-4.2-1.5-.2-.1z"/><path fill="#645639" d="m89.8 63.2-1.8-7 3.6 1.6zm0 0 1.8-5.4 4.3 4q-2.9-.6-2.4 1.8V77q-.2 2.4-2.3 2.9-1 .9-6.2-1.5 4.2 1.1 4.6-.8h.2z"/><path fill="#9d906c" d="m88 56.2 1.8 7v14.5h-.2q-.4 1.9-4.6.8l-.1-.2q1.2-.1 1.5-1.5l2.1.3-1.2-1.2h.1l.9-2.1-1.8-3.7v-3.3l1.5-.2-.7-1.2.8-1.8-1.5-3.2h-.1v-.6l-.2-.5q-.5-1.6-2.2-2.7z"/><path fill="#d2c69c" d="m86.5 60.4 1.5 3.2-.8 1.8.7 1.2-1.5.2zm0 9.7 1.8 3.7-.9 2.1 1.1 1.2-2.1-.3.1-.7z"/><path fill="none" stroke="#322b23" stroke-linecap="round" stroke-linejoin="round" stroke-width="__RESOLUTION__" d="m88 56.2 1.8 7m0 0 1.8-5.4-3.6-1.6-3.9.4q1.7 1.1 2.2 2.7m.2.5v16.3l-.1.7q-.3 1.4-1.5 1.5v.2q5.2 2.4 6.3 1.5 2.1-.5 2.3-3V63.7q-.5-2.4 2.3-1.7l-4.2-4.1" vector-effect="non-scaling-stroke"/><path fill="#b3a88e" d="m91.9 46.9-.5.4-1.4.3-1.4-.3q-.6-.3-.6-.7l.2-.4.4-.3 1.4-.3 1.4.3.6.5zl.1-.5v.2z"/><path fill="#645639" d="m88.6 47.3 1.4.3 1.4-.3h.5v10.5q-.3 1-1.6 2.6-2.4-1.9-2.3-2.6V47.3z"/><path fill="none" stroke="#322b23" stroke-linecap="round" stroke-linejoin="round" stroke-width="__RESOLUTION__" d="m91.4 47.3.5-.4.1-.5-.6-.5-1.4-.3-1.4.3-.4.3-.2.4q0 .4.6.7l1.4.3zm.5 0v-.4l.1-.3v-.2m-4 .9v-.7m3.9.7v10.5q-.3 1-1.6 2.6-2.4-1.9-2.3-2.6V47.3" vector-effect="non-scaling-stroke"/><path fill="#b3a88e" d="m6.7 17.7 3.6 1.9-1.8 5z"/><path fill="#645639" d="m6.7 17.7 1.8 7v13.9h.1Q9 41 13.1 44q-5-2.6-6-4.5-2-2.4-2.1-5v-13q.4-1.8-2.3-3.9z"/><path fill="#9d906c" d="m8.5 24.7 1.8-5.1 3.7 4.1q-2.4-.7-2.3 1.5v15q0 2 1.5 3.6-4.2-2.8-4.7-5z"/><path fill="none" stroke="#322b23" stroke-linecap="round" stroke-linejoin="round" stroke-width="__RESOLUTION__" d="m10.3 19.6-3.6-2 1.8 7m0 0 1.8-5 3.7 4.1q-2.4-.7-2.3 1.5v15q0 2 1.5 3.6h0q-5-2.5-6-4.4Q5 37 5 34.4V21.5q.4-1.8-2.3-3.9h4" vector-effect="non-scaling-stroke"/><path fill="#b3a88e" d="m6.5 8.1.2-.4.4-.3L8.5 7l1.4.3q.4.2.6.5V8l-.1.3-.5.3-1.4.4-1.4-.3q-.6-.3-.6-.7m4-.2-.1.5z"/><path fill="#645639" d="M10.4 8.8v10.5q-.3 1-1.6 2.6-2.4-1.9-2.3-2.6V8.8h.6l1.4.3 1.4-.3z"/><path fill="none" stroke="#322b23" stroke-linecap="round" stroke-linejoin="round" stroke-width="__RESOLUTION__" d="m6.5 8.1.2-.4.4-.3L8.5 7l1.4.3q.4.2.6.5V8l-.1.3v10.9q-.3 1-1.6 2.6-2.4-1.9-2.3-2.6zq0 .4.6.7l1.4.3 1.4-.3.5-.4.1-.5" vector-effect="non-scaling-stroke"/><path fill="#0f0f0d" fill-opacity=".7" d="m48 12.7 5.8-.5 9.5 10 5.6 2L75 23l5.3 9.3 5.5-.4 5.5 5.9 7.2 3.9.4 4.2-.4.7.5 3-3.7 4 .3-.3.3-1.3.8-3v-5l-6.5-3.7-3 1-4.1-2-7.5-3.9-.2-.1-.3-.5-1.4-1.7-.2-.2q-2-1.8-4-1.6l-.2-.6q-.7-1.4-2.9-2.4l-2.7.5-.6-2.2-2.2-1.4-7.4-5-.2-.2-.4-.2-1.7-2.8zm28 34.1-.3 5.2-9.9 14.8-4.5 10.7 2.9 37.3-7.4 3.7-.1-4.1 2-.8-1.2.9 3-2q-3.5-18.8-3-41.7V70q2-4.1 4.1-6l2.1-1.4 4.8-3.6q1.6-3.2 7.3-12.2zM8.9 2.6l-.2-.2L10.5.3l15.2 4.5-3 2.7h-2.6z"/><path fill="#ae8237" d="m48 12.7 3.1 4.2-5-4-5.5-4.5-13-2.2-7.1 4.5 1.3-2.4.9-.8 3-2.7 3.2-3 9.3 1.6q5.5 4.2 9.7 9.3"/><path fill="#32291d" d="m51.2 16.9 1.7 2.8.3.3.1-.1.2.2-1 .3.6-.4-.6.4-1.8 1.1-4 3.4-2.1 1.8-2.3 2.9q1.9-3.8-2-1.3-3.3 7.4-5.7 5.2l-5.2-4.3q-3.1-2.4-6-4-4.4-1.4-5.4 0l.3-3h8.5l9-11.8 4.9-2 5.4 4.5zM61 25l2.2 1.4.6 2.2q-2.9.7-5 2-1.7 1.4 1.1.8l4.4-1 5 .1.2.6q-2.3-.2-5.9 1.5l2.2.7 3.9-.8 3.8.4v-.2l.3.2 1.3 1.7h.1l.3.5-.8-.4-2-1q-2.6-.4-4.7 2.4l-1.5 4.5 1.5-4.5q2.1-2.8 4.7-2.5l2 1.1-3 .8 9 3.8 2.5-.2 4 2 3.1-1 6.4 3.8.1 5-.8 2.9-.4 1.3-.2.3-.1.2-.6.7-.7 1-1.6 2-3.7-1.7 1.3-1.4 1.8.5V54l.1-5.7.5-.6 1.2 2.7 2-1 1.2-.5-1.2.5-1.8 2.3H96h-2.2l1.8-2.3-2 1-1.2-2.7-.5.6-1 1 .8-3.4.8 1.8-.8-1.8-.8 3.5-1.3-.8Q77.5 41.8 72 41l-1.6 1.7-4-2-1.1 3.9q0-5.7-2-7-3.5 1.8-6.1 6.7l-.2.3q-1.8 3.5-3.2 8.6l-1 11.6-1.3.8 1.3-.8-.2 12.3q.6 19.2 6.1 36.5l-2 .8-3.8 1.5-.2-4-2.6-39.4.4-3.6 1-7 1.1-6.7 1.9-9.1.4-1.8.3-.7 2-4.3q2.5-4.7 5.4-6.1l1-.5-1 .5q-2.9 1.4-5.4 6.1l-2 4.3 1.3-6.2q1.3-2.7-2.2 0l1.3-3.9 3.1-2.7-3.1 2.7-1.4 3.9q.1-2-.1-2.8-.2-.9-.6-1-.6-.1-1.9 2 3.2-7.4-4-2.6l-2.8 3.2q-2.5 5.1-4.8 12.2l1.3-7.9 3.4-8 .4-1.1q1-3.1-1.3-.8l-5.5 10.6 1.5-6q.9-3.1 2.5-5.6l2.3-2.9 2.1-1.8v.1q-.3 1.4 5.3-.7 4.6-.7 8.9.8m-42.3-4.9-.6-4.7-.6-4.2.3-.4 1.6-2.3.8-1.1h2.6l-.9.8-1.3 2.4-.7 1.2-.8 5.6zM7 11l.2 1.3-.2-.7-.2-1L3 5.4l1.1-1h4.5l.8.5 10 3.7-1.7 2.3-6.2-3zM.5 8.8l2-4.1v.9l.5-.2 3.8 5.2.2 1-1.7-.7-.8-.8 2.7 4zm93.2 43-1.1 1.4-.7 1-.2-.1h.1l.8-.9zm.2 3.6-2.2-.6zm-4.4-7.5v.8zm3.1 5.3 2.6.5zM8.5 4.5H4v-.2zm30.9 9 6.8-.6zm16.2 14.4q-4.4 1.4-8 5.1 3.6-3.7 8-5.1m-8.2 28.7L51.8 44l1-2.7-4.5 18-2.3 8.9 1.1-9.7zm38-14 1.7-1.4zM59 26.3l-1-.5zm-7.6-.6q-1.5 1 .1.9v.1h.1q3-.8 5.8.4h.1q1.4-.4.5-1.3l-1.8-.6q-2.2-.3-4.8.5l-1.5.6q-3.7 2.2-4.8 5 1-2.8 4.8-5z"/><path fill="#6d6747" d="m53 19.7.3.2-.1.1zM24 34h1z"/><path fill="#846128" d="m53.5 20 7.4 5q-4.3-1.4-8.9-.7-5.6 2.1-5.2.7v-.1l3.9-3.4 1.8-1.1z"/><path fill="#775826" d="m63.8 28.7 2.6-.4q2.2 1 2.8 2.3l-5-.1-4.4 1q-2.7.6-1.1-.7 2.1-1.4 5-2.1M3.9 4.2l2-2.5 3 .9 11.3 4.9-.8 1L9.4 5l-.8-.4h-.1L4 4.3zM58 25.8q.9.9-.5 1.3h-.1q-2.7-1.2-5.8-.4h-.1v-.1q-1.6 0-.1-.9 2.6-.8 4.8-.4z"/><path fill="#503d21" d="M69.4 31.2q2-.2 4 1.6l-.1.2-3.8-.4-3.9.8-2.2-.7q3.6-1.7 6-1.5"/><path fill="#3c301e" d="m75.4 35.2.2.1 7.5 3.9-2.5.2-9-3.8 3-.8zm-50.7-2.7q-3.5-3.2-4.4-5.7l3.2-.8 8.9 7.6q2.4 2.6 3.6 5.4-4.9 7.2-5.9 2L25 32.8zl.8.7 1.8 1-1.8-1z"/><path fill="url(#a)" d="m1-113.6-1-.7v-5.3l-16.8-6.9-.3-.1 1.6-1.7q5.4.8 17.5 7.7l-.1.3-1.4-.5 1.4.5v-.3l1.4.8 1-1.2-.1 5.8-2.4-.9.1-4.2 1.4.5-1.4-.5-.1 4.2 2.4.9v.7l-1.9-.5zm-35.6 60.3.2 2.6-4.7 1.1-.6-3.5.8-2 .8.5 3.3-2.7-2.7-39.4.5-3.6 1-7q3.1-24.1-3.3-2.6l-2.2 8.8 1.1-9.6.3-1.9-5 13.8q-4.1 11-9 18.8-1 1.3-1.8 1.4-1.5 0-2.7-3.8l-1-5.2-2.5-15.1-.5-3.4.5 3.4-.2 5.3-.8-2.9.5-5.8-1.2-9.2v-.6q2.1 12.5 5.6 24.7 1.3 6.3 3.2 2.1 8.1-13.2 19.3-36.1l-4.4 12.6-5 13.8q-4.1 11-9 18.8-1 1.3-1.8 1.4l-2.6 6.9-4.5-8-.6 17.3-.7 6.4-.2 1.8 2.9 2.3.1.1q3.5 1.6 13.8 2.4l-2.4-7.9 2.8-4.7 1.5-1.4 2.4-1.7-2.4 1.8 2.5 2.6v-4.5q-.1-18 1.8-35.9Q-43-78.6-40-56l1 .8-1-.8.3 2.8.8-2 .8.5 3.3-2.7zm-32-6.2-2.2-3.4 1-6.3 1.4-15.4v-.3l1.2-3.7-.5-4 1.1-13.2 1.5 5.5-1.1 13.3-1-1.6 1 1.6zm-3-94.2-5.3-2.3-.8 1.6-1.6 1.6-.1-2.7q-1.9-.8-3.3-2.7l4.5-3 6.3 2.9-.4.4zm-10.8-3.2h-.7q1.1.8 1.3 2l-1.1 1-.2.2v1.4l-.8-.4-2.5-1.2-1-2.3-1.4-.6-.7-3.4.4-.2 6.7 5.3-2.7-4 .8.8 1.5 1.3-1.5-1.3 1.7.7zm63.2 30.5.3.1zm-57.5-33.2-.2 3.7zm31.7 23-3.3 8-1.3 7.9q-2.5 7.2-4.9 16.4-1.9 7.3-3.8 2.9-2.8-9.6-4.4-19l.5-.2q1.4 6 3.3 11.9 1.9 3.9 3.8-2.6 2.4-8.2 4.9-14.5 2.3-6.4 5.2-10.7M-60.1-121l-.5.3-1.6-10.3zm-25.1-35.4 5 1zm26.8 84.5 3.6 6.5-.5 5.5 5.3 2.4-5.3-2.4.5-5.5zm-22.5-82-.8 1z" transform="translate(87.55 169.3)"/><path fill="#faf0c0" d="m87.5 55-.6-.2-2.5-5.2-8.4-4.1-.2-.1-5.1-2.5 16.8 6.8zm-1.2-4.5-1.8-1z"/><path fill="#aea27b" d="m48.4 119.7-1 .2-.8-.1-2-.2-.3-8.6 3.2 2.3.3 2.8zm-25.1-6.5-2.3-3.5 2.3-27.5 1.1-13.3.5-5.8-1.1-9.2-.8 9.5 1.4 5.5.8 2.9-.6 17.7-.7 17.3zm-4.5-83.9-1.3-1.2.5-3q1-1.4 5.4 0 2.9 1.7 6 4l6.6 6.4.8 5.4v.3l-.7-2.2q-1.3-2.8-3.7-5.4l-9-7.6-3 .8q.8 2.5 4.3 5.7l.2.3zm18 11.9.1.4zM19 27.1l1.3-.4zm27.6 92.7 1.2-3.7zm-2.4-11.2V104q0-18.1 1.8-36-1.4 22.6 1.5 45.2l-3.2-2.3z"/><path fill="#e4daac" d="m44.6 119.6-2.9-.3-1.9.6-2.4-8 2.9-4.7 1.5-1.3 2.5 2.7v2.4zM25.4 66.5l2.5 15.1 1 5.2q1.3 3.9 2.8 3.8L29 97.5l-4.4-8 .6-17.7z"/><path fill="url(#b)" d="M-63.8-116v-4.2l.2-15h1l.4 4.3 1.6 10.3q1.6 9.4 4.4 19 1.9 4.4 3.8-2.9 2.4-9.2 4.9-16.4 2.3-7.1 4.8-12.2l2.7-3.2q7.3-4.8 4.1 2.7 1.3-2.2 1.9-2 .4 0 .5.8.3 1 .2 2.9l-1.4 3.8-1 2.8Q-46.9-102.5-55-89.2q-2 4.2-3.1-2.1-3.6-12.2-5.7-24.7" transform="translate(87.55 169.3)"/><path fill="#645639" d="M23.8 49.2 20 30.5l-1.2-1.2 6.1 3.5 5.3 8.2q1 5.2 5.8-2l.8 2.2-4.8 8.1-1.7-1.7-2.9.9-2-10.1-.5-4.2-1-.1zM26.6 38 25 34.2zM20 30.5l4 3.6zm35.2 13.1-.3.7-.4 1.8-1.9 9-1.1 6.8q3.1-24.1-3.2-2.6l4.5-18 1.5-4q3.5-2.6 2.3 0z"/><path fill="url(#c)" d="m-69.2-147.1.3-2 .4-2.7.8-5.6.6-1.2 7.1-4.5 13.1 2.2-4.8 2-9 11.8z" transform="translate(87.55 169.3)"/><path fill="#484331" d="m2.8 5.3 1-1.1.2.1.1.2-1.1.9-.5.2zH3z"/><path fill="url(#d)" d="m-49.3-128.1 5.6-10.7q2.3-2.2 1.3.9l-.5 1.2q-2.9 4.3-5.2 10.6-2.5 6.4-4.9 14.6-1.9 6.5-3.8 2.6-2-6-3.4-12l2.9-.8 1.8 1.7 4.8-8.1.1.4-.1-.5v-.2l-.8-5.4-6.6-6.3 5.1 4.3q2.5 2.2 5.8-5.2 3.8-2.5 2 1.3-1.7 2.5-2.5 5.6zl-.2 1zm-4.5 9.8-1.7-1.7z" transform="translate(87.55 169.3)"/><path fill="#251f16" d="m66.4 40.7 4 2 .3.2 5.1 2.5v1.4q-5.7 9-7.2 12.2l-4.8 3.6q-2.2.1-1.5-3.2.6-5 1.8-10l1.2-4.8z"/><path fill="url(#e)" d="M-30.3-125q2.6-4.9 6-6.7 2 1.3 2 7l-1.2 4.9q-1.1 4.9-1.7 9.9-.7 3.3 1.4 3.2l-2.1 1.4q-2.1 1.9-4.2 6v.8q-.4 22.9 3 41.8l-3 1.9 1.3-.9Q-34.4-73-35-92.2l.3-12.3 6.4-3.8-.4 1.9 2.8 1.1-2.8-1.1.3-2 .7-3.8-1.8-1.1-1-11.4zm3.4 13.3-.7-.5zm-3.2 5.9v6.5z" transform="translate(87.55 169.3)"/><path fill="#726445" d="M57 44.6 58 56l1.8 1.1-.6 3.9-6.4 3.8 1-11.6q1.4-5.1 3.3-8.6m1 12.2V56z"/><path fill="none" stroke="#ffe6bb" stroke-linecap="round" stroke-linejoin="round" stroke-width="__RESOLUTION__" d="m48 12.7 3.1 4.2M25.7 4.8l3.3-3 9.3 1.6q5.5 4.2 9.7 9.3m-22.2-8-3 2.8" vector-effect="non-scaling-stroke"/><path fill="none" stroke="#322b23" stroke-linecap="round" stroke-linejoin="round" stroke-width="__RESOLUTION__" d="m51.2 16.9 1.7 2.8.4.2.2.2 7.4 5 2.2 1.4.6 2.2 2.7-.4q2.2 1 2.8 2.3l.2.6h.1q2-.2 4 1.6l.2.2 1.3 1.7m.1 0 .3.5.2.1 7.5 3.9 4 2 3.1-1 6.4 3.8.1 5m-2 5.4-.8 1m-5.4.3-1-.7-.6-.2-2.5-5.2-8.4-4.1v1.3m-19.3 67.6-3.8 1.5.3 2.6-4.8 1.2-1 .2-.8-.1-2-.2-2.9-.3-1.9.6q-10.2-.9-13.7-2.4l-.2-.2L23 115l.3-1.8-2.3-3.5-2.2-3.4 1-6.3 1.3-15.4m.7-8L23 63.4l.8-9.5v-4.7L20 30.5l-1.2-1.2-1.3-1.2.5-3 .3-3 .3-1.9-.6-4.7-5.2-2.3-.8 1.6-1.6 1.6-.2-2.7Q8.5 12.9 7 11m-.4 4.5v1.4l-.8-.4-2.6-1.2-.9-2.3h0l-1.5-.6L.1 9l.4-.2 2-4.1.3.5 1-1 2-2.5 3 .9 11.3 4.9h2.6l-.9.8-1.3 2.4-.7 1.2-.8 5.6m73.4 30.3-.8-1.8-.8 3.5m-2.8-1 1.5.6v-1.2m-19-5.2.2.2 5.1 2.5.3.1M53.3 19.9l-.1.1-.7.4-1.8 1.1-4 3.4-2.1 1.8-2.3 2.9q-1.6 2.5-2.5 5.6l-1.5 6-.3 1M20.1 7.5l-.8 1-1.6 2.4-.3.4.6 4.2M9.4 4.9l-.8-.4m-.1 0H4l-1 .9 3.8 5.2.2 1 .2.7m5.6.9.2-3.7m5.6 10.8.4-2.8m27.2-4.6-6.8.6m.6 34.9q2.3-7.1 4.8-12.2l2.8-3.2q3.6-3.7 8-5.1M26.9 48.7q1.6 9.5 4.4 19 2 4.4 3.8-2.9 2.4-9.2 4.9-16.4M24 34.1h.9l1.8 3.8m-1.8-3.7.4 4.2L27 48.7m-3-14.5V34l-4-3.5m5 32.6.4 3.4 2.5 15.1 1 5.2q1.3 3.9 2.8 3.8.8 0 1.7-1.4 5-7.8 9.1-18.8l4.9-13.8L51.8 44l1-2.7 1.5-4 1.3-3.8 3.1-2.7q2.1-1.4 5-2.1m-40 25.2L25 63m.3 8.7.2-5.3m-1.6-17.3.1-15m39.7-1.5-1 .5q-2.9 1.4-5.4 6.1l-2 4.3-.3.7-.4 1.8-1.9 9-1.1 6.8-1 7-.4 3.6 2.6 39.4.2 4m21.7-81.1-2-1q-2.6-.4-4.7 2.4l-1.5 4.5 4 2h0m5-7.5-.8-.4m12.5 6.5-1.7 1.3m-19-1.9-1.1 3.9-1.2 4.9q-1.2 4.9-1.8 9.9-.7 3.3 1.5 3.2l4.8-3.6q1.5-3.2 7.3-12.2v-1.4M57.5 70q2-4.1 4.1-6l2.1-1.4m-5 51-1.2.9 3-2q-3.5-18.8-3-41.7v-7.3m-10.1-6.9-.2 1.9-1.2 9.7Q44.1 86 44.2 104v4.5l.1 2.4.3 8.6m39.9-70 1.8.9M63.6 32.7q3.5-1.7 5.8-1.5M2.5 5.6l.5-.2-.2-.2zv-.9m2.8 6.2-.8-.8 2.7 4-5-1.1m54.5 101.4 2-.8M25.3 71.8l-.6 17.7-.7 17.3-.6 6.4M6.8 12.2 5.3 11" vector-effect="non-scaling-stroke"/><path fill="none" stroke="#32291e" stroke-linecap="round" stroke-linejoin="round" stroke-width="__RESOLUTION__" d="m96.7 49-.8 2.9m.8-3-1.2.6" vector-effect="non-scaling-stroke"/><path fill="none" stroke="#483a2b" stroke-linecap="round" stroke-linejoin="round" stroke-width="__RESOLUTION__" d="m95.9 51.9-.4 1.3-.2.3-.1.2-2.6-.5-.7 1-.2-.1-2.4-.9.2-4.1 1.3.4 1-1.1.5-.6 1.2 2.7 2-1-1.8 2.3zm-2 3.6-1.6 2-3.7-1.7 1.3-1.4 1.8.5v-.7M7.8 14.4l-1 1m85.8 37.8 1.1-1.4m-2 3 2.2.6M5.8 16.5l.8-1" vector-effect="non-scaling-stroke"/><path fill="none" stroke="#3c3224" stroke-linecap="round" stroke-linejoin="round" stroke-opacity=".5" stroke-width="__RESOLUTION__" d="M21.1 84.6v-.3l1.2-3.6-.5-4.1m15-35.4v-.3m0 .3L32 49.3l1.8 1.8m-6.4-2.6-.5.2m.5-.2 2.9-1 1.7 1.8m25.2-5-.2.3L58 56l1.8 1.1.8.5M58 56l.1.8m-5.3 8-1.3.8M61.6 64l-2.8-1.1.4-2-6.4 3.9m6.4-3.8.6-3.9M22.3 80.7l1 1.5" vector-effect="non-scaling-stroke"/><path fill="none" stroke="#1c1813" stroke-linecap="round" stroke-linejoin="round" stroke-width="__RESOLUTION__" d="m36 39 .8 2.2.1.4M36 39q-1.2-2.8-3.6-5.4l-9-7.6-3 .8q.8 2.5 4.3 5.7l.8.7 1.8 1m-7-7.5-1.3.4m39-1.3 1 .5m-7.6-.6-1.5.6q-3.7 2.2-4.8 5m6.3-5.6q2.6-.8 4.8-.4l1.8.5" vector-effect="non-scaling-stroke"/><path fill="none" stroke="#6d5c41" stroke-linecap="round" stroke-linejoin="round" stroke-opacity=".5" stroke-width="__RESOLUTION__" d="m47.5 113.3 1.1.8.8.5h0l3.3-2.7m-4.9 4.2.8-2m-.8 2-1.2 3.7m-22-30.3 4.4 8 2.6-6.9m12.6 13.5-2.4 1.8 2.5 2.7m3.2 4.7-3.2-2.3m-6.9 1 2.9-4.7 1.5-1.3m-4.4 6-5.2-2.4.4-5.5-3.6-6.5M39.8 120l-2.4-8" vector-effect="non-scaling-stroke"/><path fill="#7d5c27" d="M88.6 40.3q-.5-.3-.5-.7l.1-.4.4-.3 1.4-.3 1.4.3.5.6v.4l-.5.4-1.4.3zM6.6 1.1l.1-.4.4-.3L8.5 0l1.4.3.6.6-.1.4-.5.4-1.4.3-1.4-.4q-.6-.2-.6-.6"/><path fill="#47371f" d="m88.6 40.3 1.4.3 1.4-.4h.5v2.6q-.2.8-1.6 2.7-2.4-1.9-2.2-2.7v-2.5zM10.4 1.8v2.5q-.2.8-1.6 2.7-2.4-2-2.3-2.7V1.8h.6l1.4.3 1.4-.4z"/><path fill="#b3a88e" d="M91.9 39.9v-.4h.1zM10.5.9v.2l-.1.3z"/><path fill="none" stroke="#322b23" stroke-linecap="round" stroke-linejoin="round" stroke-width="__RESOLUTION__" d="m92 39.5-.6-.6-1.4-.3-1.4.3-.4.3-.2.4h0q0 .4.6.6l1.4.4 1.4-.4.5-.3zl-.1.4v2.9q-.2.8-1.6 2.7-2.4-1.9-2.2-2.7v-3.2M6.5 1.1l.1-.4.4-.3L8.5 0l1.4.3.6.6h0l-.1.4v2.9q-.2.8-1.6 2.7Q6.4 5 6.5 4.3V1q0 .4.6.6l1.4.4 1.4-.4.5-.3V1" vector-effect="non-scaling-stroke"/></g><g id="h"><path fill="#1c201c" d="M68.7 7.3q-1.7-1.6-3.5-3l-2-1.4q-3-1.8-6-2.9l3.5.9 3 1.9 1.5 1.1zm12.5 24.2q.9 8.5-3.9 18.3l-3 5.5.6-.8 2.8-4.5q4.9-8.7 4.7-18.7h1.4q.4 4.4-.3 8.6-1 5.6-3.7 10.9l-3 4.9-4.1 4.7q-3.7 3.8-8.3 6.3l-1.1.5q-5 2.5-11 3.5l-1.8.2h-.7.8l3.9-.4q5-.8 9.4-2.7l5.9 7q3.5 4.5 9 5.3l3 .3Q71.3 91.5 55.2 94q-11.5 1.8-21.6-1.4-7.3-2.3-13.9-7.1-8.4-6.2-13.2-14.4l-1-1.7.9-1.2Q8.2 65 7.9 61l.2-1.6q4 8.6 11.9 15l-5.5-7.2q-3-4.1-5-11Q7.9 51.4 6.8 45l-.4-2.5Q4.7 32 8 22.6l1-2.9Q2.8 31.2 4 44.5l-3.9-.7q.7-13.4 9.2-25l.6-.9.7-.9.5-.6.2-.2q2.6-3.1 5.4-5.6l1-.8-1.4 1.8q-2 2.7-3.4 5.5-5.3 10.3-3.4 22.3.5 3.2 1.5 6.1 1.3 4.2 3.5 7.8 3.7 6 10 10.6l4.4 2.9q-6.5-7-11-13.2l-1.5-2.3q-1.2-2.5-2.1-5.2-1-2.9-1.4-5.9-1.2-7.6.5-14.4-1 5.2-.2 10.9.8 5.2 2.9 9.6l1.4 2.6-.7-2.5v-.2q-.5-3 .2-5.7l.2 2.6q.3 1.9 1 3.5 1.4 3 4.2 5.1l1.6 1 2.4 1-1.7-1.5-1.3-2L25 52l.6.5q2 1.5 4.5 1.7l2-.2h.3l-.2 1.5q-.2.6 0 1.3.7 1.6 2 2.5l6.8 4.8q2.3 1.3 3.9 3.1l2-.4q3.3-.5 2.4-3.8l.6.1 12.4 3-5.3-4.8q-1.8-1.5-3.8-2.5-2.5-1.2-5.2-2l-1.2-.8-2.6-6.4-4.8-.4q1.2-2.4 1-5l-.1-.8q-.6-3.7-3.7-6l-1.7-1 1 .1 2.1 1.2q3.4 2.4 4 6.4l.1 1.6v.8l.3-.6v-.1q1.2-3.2.7-6.7l-.4-1.7-.9-2.3q1.3 1.5 2 3.3-.4-4-2.5-7.7-4-7.3-11.9-9.4-3.1-.8-6-.6l-1.7.2v-.1l1.7-.3 6.8.7q8.6 2.3 13 10.2l.1.1v-.1q-.2-5.3 2.8-9.8-1.1 3.3-.5 7 1 6.6 6.4 10.5 4.8 3.5 10.6 3-3-.4-5.5-2.2-4.2-3.1-5-8.1t2.2-9.3l.4-.5q-2.2 3.4-1.6 7.5.6 4.4 4.3 7 3.5 2.5 7.8 1.8t6.9-4.2q1-1.3 1.5-2.7l.6.1q3.4.6 6.9 0zM93.8 34l1.2 5.5q1.3 8.7-.2 16.7l-.3 1.6-1.8-.8-3.7-2 .2-.5q3.3-9.8 1.5-20.7l-.1-1.4 2.3 1.1zM65.7 67q3.3-1.8 6.3-4.2 3-2.6 5.7-6l.5-.8 3-4.7q5-9.2 3.9-20l1.2.1 3.4.6 1 7q1 7.3-1.7 15.5l-.2.5-.7-.4-1.7.4q-3.2.8-5.2 2.7-.9.9-.5 3 .6 4.6-.9 5.5-4.6 2.7-11.3 1.3z"/><path fill="#111311" d="M68.7 7.3q8.4 7.1 11.8 19.8l.8 4.4H81q-3.5.6-6.9 0l-.6-.1q.9-2.4.4-5.2-.7-4.3-4.2-6.9-1.8-1.4-3.9-1.8 3 .3 5.8 2.3 4.1 3 5 8.1v3l.5-1.4-.1-1.9-.3-2.9q-.5-3.7-1.7-6.9-2.1-6-6.4-10.5m13.7 24-.4-5.2-1.1-5.3q-1.7-4.5-4.6-8.4-3.4-4.6-8.3-8.1l-3.1-2L68 3.6l2.4 1.2 2.3 1.3L76 8.3q3.7 2.8 6.8 6l3.1 3.6Q91.4 25 93.8 34l-.9-.5-2.3-1.1q-.9-4.6-2.5-8.7l1.6 8.3-3.4-.6-1.2-.1-.3-2.4q-1.7-11.1-9-18.9l-1.5-1.6 2.5 3q5.2 7 6.7 16.4l.3 3.5zm12 26.5q-2.1 9.1-8 17.3l-4.6 5.3-3-.3q-5.5-.7-9-5.2l-6-7 1.9-1 2.8.6q6.7 1.4 11.3-1.3 1.5-.9.9-5.5-.4-2.1.5-3 2-2 5.2-2.7l1.7-.4.7.4q-1.3 3.6-3.5 7.6 2.3-3.7 3.7-7.6l3.7 2z"/><path fill="#242b24" d="M5.5 69.4Q1.9 62.5.7 54.3q-.9-5.4-.6-10.5l4 .7.3 2.8q1 6.5 3.7 12.1L7.9 61q.3 4-1.5 7.3zM32.4 54q2-.4 3.8-1.2 1.3-1 2.4-2.4l.8-1.2 4.8.4 2.6 6.4 1.2.8q2.7.8 5.2 2 2 1 3.8 2.5l5.3 4.9-12.4-3-.6-.2q.9 3.3-2.3 3.8l-2.1.4Q43.3 65.4 41 64l-6.8-4.7q-1.3-.9-2-2.5-.2-.6 0-1.3z"/></g><g id="g"><path fill="#726445" d="M37.7 9.8 36.4 15l-.1 1-4.3 2.2-4.4 2.2-4 2.1-3.4 1.8-.2-3 2.2-3.2zM23.3 44.6l-2.4 1.2-.6.4-.2-3.6 2-2.5 10-5.1 4.3-2.2 1.9 4.1z"/><path fill="#0f0f0d" fill-opacity=".7" d="m36.6 15 6.9-3.3-1.9 26.4-18.3 6.5 15-7.7-2-4v-17z"/><path fill="#fbf3d9" d="M20.3 46.2 12 41.8l-3.1-1.6-8.7-4.5 1.9-4 8.4 4.5h.2l.6 2.6-2.4 1.4 2.4-1.4-.6-2.5 3.9 2 5.5 4.4v-.1zm-8.9-7.3.7 3z"/><path fill="#32291d" d="m2.1 31.8 5.4-2.9.5.4.7 3 1.4.9v.6l2.3 1 .1.1 1.1-.7v-.6 1.6l2 1.2h.1l.8-.6.3-.1-.2-.7.2-.7-.3-.1.1.8-.1.8.9 1.8 1.9-.3.7-.1.8-.9-.5-1.1 2.3.5.5-.6 1.6-1.8.2-1 .4-1L32 35l-10 5.1.1-.1-7.7-1.7h.1l-3.9-2-.2-.1zM.1 9l18-8.8 19.5 9.7L22.3 18l-14-5.1 8.7 5-11.2-6zm14.4 19.8q0-1.3.6-1.4l1-.6.1-.2.5-.5q.9-1.1 1.7.1.6.8.9 2l.1.9v.4l-.1 1.5-.3.6-.1.4q-.6 1.3-1.6 1.3T15.5 32t-1-2.7zM8.8 23q.6-1 1.3-.8.5 0 1 .6l.4 1.2.9 2.3.1.4q.4.6.4 1.2l-.3 1q-.6 1-1.3 1.3H11l-.5-.1Q9.7 29.9 9 29l-.4-.7q-.4-1-.4-2.2l-.1-.9V25l.1-.6.3-1.2z"/><path fill="#faf0c0" d="M7.5 28.9q-1.1-1.3-.6-1.8t1-2.4l.1-.4.5-1.7.3.4-.2.2-.3 1.2-.1.6v1.1q.1 1.2.5 2.1l.4.8q.6.9 1.4 1.1l.5.1h.3q.7-.3 1.2-1.3h.1l.3-1 1.6.8v.4q.2 1.7 1 2.8.8 1.3 1.8 1.3t1.6-1.3l.1-.4.3-.6.1-1.5 3.3-.6.3 1.3q.4 2.2.2 4.4v.3l-.1.4-.5.5-2.2-.6H20l-1-.1-1.6-.5-.7-.2-.3-.1-1.2-.6H15l-1.7-.8-.6-.2-.6-.3-.2-.1-1.1-.6-1-.6-2-1.7z"/><path fill="#b4a77a" d="m8.5 22.6.3-1.4q.3-1.4 1-2.6l10.5 5.5 3.3-1.7.3.5-2 2q-.2 1.4 1.2 2.5l2-.7.2 1.3v.4q-.6.6-.6 2.2l.1 1.4v1.3L23 35.2v-.4l.1-.2q.2-2.3-.2-4.5l-.3-1.3-3.3.6V29l-.1-.9q-.3-1.2-.9-2-.8-1.2-1.7-.1l-.5.5-.2.2-.9.6q-.6.1-.6 1.4l-1.6-.8q0-.6-.4-1.2l-.1-.4-.9-2.3-.5-1.2q-.4-.6-.9-.6-.7-.2-1.3.8zM24.8 32v-1.4q-.1-1.6.4-2.2h.1v1.3l-.3 1.6z"/><path fill="#f9efbf" d="m9.8 18.7-3.3-1.8-4.4-2.3-2-5.7 5.7 3 11.2 6 .5.3 2.6 3 .1 3zM6.5 17l-.7-5z"/><path fill="#aa9759" d="m22.3 18-2.2 3.2-2.6-3-.5-.3-8.6-5zm-7.7 20.3 7.7 1.7-.2.1-2 2.5z"/><path fill="#645639" d="m23.7 22.4 4-2.1q.6 1.4.6 3.1 0 2.9-.7 4.6-.4 1-1 1.5l-1.4 1.8-.3 1-.1-.3.2-.7.3-1.7V28l-.2-1.3-2 .7q-1.4-1-1.1-2.6l1.9-1.9z"/><path fill="#100f0e" d="m27.8 20.3 4.3-2.2V35l-6.9-3.7 1.4-1.8q.6-.6 1-1.5.6-1.7.7-4.6 0-1.6-.6-3.1"/><path fill="#5e5039" d="m32.1 18.1 4.3-2.2v17L32 35z"/><path fill="#948952" d="m12.3 32.3.5.3.6.2.1.8.1.6-1 .7h-.2zm3.1 1.4 1.2.4.1.9-.1.8-.8.6h-.1zm3.8 1.3 1 .1h.2l.4 1.2-.7.9-.7.1zm-9-1.9-1.4-.8-.7-3L9.9 31z"/><path fill="#ccb682" d="m13.4 32.8 1.7.8h.2l.3 2.8-2-1.1v-1.7zm3.4 1.5.7.3 1.6.4.2 2.3-1.9.3-1-1.8.4-.1-.2-.7zm-7-3.3 1 .6 1.2.6.3.1v2.5l-2.2-1v-.6z"/><path fill="none" stroke="#322b23" stroke-linecap="round" stroke-linejoin="round" stroke-width="__RESOLUTION__" d="M37.7 9.8 36.4 15l-.1 1-4.3 2.2-4.4 2.2-4 2.1-3.4 1.8-10.5-5.6L6.5 17l-4.4-2.3L.1 9l18-8.8zM21 45.8l-.6.4-8.3-4.4L9 40.2.3 35.7l1.9-4L7.5 29m28.9 4V16M23.3 44.6l15-7.7-2-4" vector-effect="non-scaling-stroke"/><path fill="none" stroke="#4d4133" stroke-linecap="round" stroke-linejoin="round" stroke-width="__RESOLUTION__" d="M7.5 28.9q-1.1-1.3-.6-1.8t1-2.4h0l.1-.4.5-1.7.3-1.4q.3-1.4 1-2.6m4.7 10.1q0-1.3.6-1.4l1-.6.1-.2.5-.5q.9-1.1 1.7.1.6.8.9 2l.1.9v.4l-.1 1.5-.3.6-.1.4q-.6 1.3-1.6 1.3t-1.8-1.3-1-2.7zm8.6 6.5 1.6-1.9.2-1-.1-.3v-1.4q-.1-1.6.4-2.2h.1V28m-12.4 0q0-.7-.4-1.3l-.1-.4-.9-2.3-.5-1.2q-.4-.6-.9-.6-.7-.2-1.3.8l-.2.2-.3 1.2-.1.6v1.1q.1 1.2.5 2.1l.4.8q.6.9 1.4 1.1l.5.1h.3q.7-.3 1.2-1.3h.1zm-.7 4.4.6.3.6.2 1.7.8m.2 0 1.2.5.3.1.7.3 1.6.5 1 .1h.2l2.3.6.5-.6M9.9 31l1 .6 1.1.6.3.1m0 2.5.2.1 1.1-.7m0-.6-.2-.8m3.2 2.2.2-.7m0 1.4-.3.1-.8.6h-.1m-5.5-3.2-1.4-.9-.7-3-.5-.4M9.9 31l-2-1.7m17.4 2-.4 1m-8.4 3.5.1-.8m11.1-14.7q.6 1.4.6 3.1 0 2.9-.7 4.6-.4 1-1 1.5l-1.4 1.8m-5.9 6 .7-.1.8-.9-.5-1.1" vector-effect="non-scaling-stroke"/><path fill="none" stroke="#736446" stroke-linecap="round" stroke-linejoin="round" stroke-opacity=".6" stroke-width="__RESOLUTION__" d="m8.9 40.2 2.4-1.4-.6-2.5-.2-.1m1.5 5.6-.7-3m-5.6-27 .8 5.1" vector-effect="non-scaling-stroke"/></g><clipPath id="f"><path d="M1 1h125v156H1z"/></clipPath></defs><g clip-path="url(#f)"><g transform="translate(103.9 170.3)"><use xlink:href="#g" width="43.5" height="46.3" transform="translate(-67.5 -66.05)"/><use xlink:href="#h" width="95.7" height="94.7" transform="matrix(.4457 .2287 .0104 .7022 -102.9 -142.1)"/><use xlink:href="#h" width="95.7" height="94.7" transform="matrix(-.4457 -.2287 .0104 .7022 20.4 -79.8)"/><use xlink:href="#i" width="99.6" height="120" transform="translate(-87.55 -169.3)"/></g></g></svg>