<svg xmlns="http://www.w3.org/2000/svg" xmlns:xlink="http://www.w3.org/1999/xlink" width="457" height="31" viewBox="0 0 457 31"><defs><g id="b" fill-opacity=".5"><path fill="#dad930" d="m4.4 1-.1-1 7 .7-1.5 1.2zM17 2q0-.4.5-.6l1-.3 1.1.3.4.6-.4.6-1 .3q-.6 0-1.1-.3-.4-.3-.4-.7m-5.4 6.4q.8.3.8.8t-.8.7l-1.8.3L8 9.8q-.7-.3-.7-.7 0-.5.7-.8L9.9 8z"/><path fill="#8c9218" d="m4.4 1 5.4.9 1.5 1.6-.2.8L0 2.4z"/></g><g id="d" fill-opacity=".5"><path fill="#8c9218" d="m20.5.3 2.7-.3.1.7zm-.6 6.3 1.4 1.2-.2 1.5-9.7-2.1 4.1-.7zM6 8.6l-6 .6 2.3-1.5z"/><path fill="#dad930" d="m15.5 6.5-.3-.2-.8-.6-.3-.7q0-.7 1-.2l2 .7q1.2.2 2.7-.5 1.4-.7 1.4 0 0 .8-1 1.3l-.4.3zm11.5.2q0-.4.4-.7l1.1-.2 2.1.3q1.5.4 1.5.7l-1.5.2-2.1.3q-.6.3-1 0t-.5-.6m-4.6 6.1q1.5.1 1.4.6 0 .5-1.4 1l-2.6.4-1.8-.3q-.7-.3-.7-.7 0-.5.7-.8l1.9-.3z"/></g><g id="e"><path fill="#e0d7c9" d="m21.4 2-1.2.3L19 2q-.6-.2-.6-.5l.6-.4 1.2-.2 1.2.2q.6.2.6.4t-.6.4m-2 16.5q-1 0-1.8-.5t-.8-1.1.8-1.2 1.8-.5 1.8.4.8 1.5-.8 1.1q-.7.5-1.8.5M3.8 6.9l1.8-.5 1.5.1 4.6 2.7q.5.2.3.8-.3.5-1.1 1l-2.7 1.3-1.7.6-1.6-.2L.3 10q-.5-.3-.2-.8t1-1zm8.9-3 2.2.4q.8.5.8 1 0 .7-.8 1l-2.2.5q-1.2 0-2.2-.4-.9-.5-.9-1 0-.7 1-1 .8-.5 2.1-.5m-.8 11.2-.5-.2.4-.2h2l.4.3-.3.1-1 .1z"/><path fill="#cec0aa" d="m27.5 2.5-.6.4-1.1.1-1.3-.1-.5-.4.5-.3 1.3-.2 1.1.2zm7 4 .5-.2.5.2.3.4-.2.5-.6.1-.5-.1-.2-.5zM15 .5l-.6-.1q-.2 0-.2-.2l.3-.2h1l.3.3-.3.1zm1.3 11.4-1.1.2-1.1-.2-.5-.2.5-.3 1.1-.2 1.1.2q.4.1.4.3z"/><path fill="#e0d7c9" d="m29 6.8 1.4.2L35 9.6q.5.3.3.8l-1 1-2.7 1.3-1.8.6-1.5-.2-4.6-2.7q-.5-.2-.2-.7.1-.6 1-1l2.6-1.4z"/></g><g id="f"><path fill="#d9cebd" d="M24.7 2.9q0 .2-.4.3l-.9.2-.9-.2q-.3-.1-.3-.3l.3-.4.9-.1.9.1zm4 5.6.2-.3.4-.1h.4l.3.4-.2.2-.5.2-.4-.2zm-16.3 6.4-.8.3-1-.3-.3-.5.4-.5.9-.2.8.2.4.5z"/><path fill="#e0d7c9" d="m23.2 6.6 1.4.2.6.6-.6.5-1.4.2-1.5-.2q-.6-.2-.6-.5l.6-.6zm5.7-1.1-.6.1-.6-.1-.3-.1.3-.2.6-.1h.6l.3.3zm-1.2 8.1-.6.6-1.2.2-1.2-.2q-.5-.2-.5-.5t.5-.6l1.2-.2 1.2.2zm-7.8 3.2-.6.6-1.2.2-1.2-.2-.5-.6q0-.3.5-.6l1.2-.2 1.2.2q.6.3.6.6M13.6 4.2q0 .4-.5.6-.6.3-1.4.3l-1.3-.3q-.6-.2-.6-.6l.6-.6 1.3-.3 1.4.3q.5.3.5.6m2.5 2.1 1.3-.2 1.2.2q.5.3.5.6t-.6.5l-1.1.2-1.3-.2-.5-.5zm1.5 4.8-.5.3-.6-.3-.1-.6.2-.6q.2-.3.5-.3t.5.3l.3.6zm-14.2.2q-.5.3-1.4.3t-1.4-.3-.6-.9.6-.9L2 9.2q.9 0 1.4.3.6.4.6.9t-.6.8"/><path fill="#ccbda6" d="m18.3 1.1-.9-.1q-.3-.2-.3-.4l.3-.4.9-.2.8.2.3.4q0 .2-.3.4zm-2.6 7.1-.7.2-.7-.2L14 8l.3-.3.7-.1h.7l.3.4z"/></g><g id="w" transform="translate(28.05 13.85)"><use xlink:href="#a" width="55.2" height="28.8" transform="translate(-28.05 -13.85)"/><use xlink:href="#b" width="19.9" height="10.1" transform="translate(-8.2 -3)"/></g><g id="u" transform="translate(28.05 13.85)"><use xlink:href="#a" width="55.2" height="28.8" transform="translate(-28.05 -13.85)"/><use xlink:href="#c" width="14.3" height="7.9" transform="translate(-5.15 -5.5)"/></g><g id="s" transform="translate(28.05 13.85)"><use xlink:href="#a" width="55.2" height="28.8" transform="translate(-28.05 -13.85)"/><use xlink:href="#d" width="32" height="14.8" transform="translate(-18.15 -7.7)"/></g><g id="q" transform="translate(28.05 13.85)"><use xlink:href="#a" width="55.2" height="28.8" transform="translate(-28.05 -13.85)"/><use xlink:href="#e" width="35.8" height="18.5" transform="translate(-19.2 -7.2)"/></g><g id="o" transform="translate(28.05 13.85)"><use xlink:href="#a" width="55.2" height="28.8" transform="translate(-28.05 -13.85)"/><use xlink:href="#f" width="29.9" height="17.7" transform="translate(-19.1 -9.05)"/></g><g id="m"><path fill="#8c8368" fill-opacity=".4" d="M26.5 23.7q-11.4-3-12-2.8l-1.3.4-5-2.7 1.9-.2 25.9-.8q5.8-.8 10.5 1.3l-5.3 2.8-.5-.3-12.5 2.1-.6.1z"/><path fill="#8c8368" fill-opacity=".6" d="M26.5 23.7h1.1l.6-.2-1.1.3zm20-4.7q-4.7-2.1-10.5-1.3l-26 .8-1.7.2L0 14.2 27.9 0l27.3 14.4z"/><path fill="#957857" fill-opacity=".3" d="M37.5 23.6v-.1q.4-.4.9-.4z"/></g><g id="k"><path fill="#957857" fill-opacity=".3" d="M37.5 23.5q.4-.4.9-.4z"/><path fill="#8c8368" fill-opacity=".6" d="M5.9 17.4 0 14.2 27.9 0l27.3 14.4-7.4 3.8-24.2-2.9q-5.1.2-10.5-.1-4.4-.2-7.2 2.2"/><path fill="#8c8368" fill-opacity=".4" d="m47.8 18.2-6.6 3.4q-2-1.4-16.2-2.4l-10.5 1.7-1.3.4-7.3-4q2.8-2.3 7.2-2.1 5.4.3 10.5.1z"/></g><g id="i"><path fill="#957857" fill-opacity=".3" d="M37.5 23.6v-.1q.4-.4.9-.4z"/><path fill="#8c8368" fill-opacity=".6" d="M5.2 17 0 14.2 27.9 0l27.3 14.4-6.9 3.5Q37 13.8 24 15.2l-6.2 1q-3.9.5-7.6.1-3-.2-5 .8"/><path fill="#8c8368" fill-opacity=".4" d="m48.3 18-7.1 3.6-1.9-1.7-9.3.6-16.8.8-8-4.4q2-1 5-.6 3.7.3 7.6-.2l6.2-1q13-1.4 24.3 2.8"/></g><clipPath id="g"><path d="M1 1h56v29H1z"/></clipPath><clipPath id="j"><path d="M58 1h56v29H58z"/></clipPath><clipPath id="l"><path d="M115 1h56v29h-56z"/></clipPath><clipPath id="n"><path d="M172 1h56v29h-56z"/></clipPath><clipPath id="p"><path d="M229 1h56v29h-56z"/></clipPath><clipPath id="r"><path d="M286 1h56v29h-56z"/></clipPath><clipPath id="t"><path d="M343 1h56v29h-56z"/></clipPath><clipPath id="v"><path d="M400 1h56v29h-56z"/></clipPath><path id="a" fill="#e7e0d3" d="M27.4 28.8 0 14.2 27.9 0l27.3 14.4z"/><path id="c" fill="#dad930" fill-opacity=".5" d="M5-4q2.4.1-.5.8L-.1-3q-1.7-.5-3.5-.1T-5-4.2t2-1.2l2.6.4 2 .5zm4.2 5.6q-3 0-2.6.5L5.2 2Q3.3 1.3 3.3.3t4.3.8z" transform="translate(5.15 5.5)"/><use xlink:href="#a" id="h" width="55.2" height="28.8"/></defs><g clip-path="url(#g)"><g transform="translate(1 1)"><use xlink:href="#h" width="55.2" height="28.8"/><use xlink:href="#i" width="55.2" height="23.6"/></g></g><g clip-path="url(#j)"><g transform="translate(58 1)"><use xlink:href="#h" width="55.2" height="28.8"/><use xlink:href="#k" width="55.2" height="23.6"/></g></g><g clip-path="url(#l)"><g transform="translate(115 1)"><use xlink:href="#h" width="55.2" height="28.8"/><use xlink:href="#m" width="55.2" height="23.8"/></g></g><g clip-path="url(#n)"><g transform="translate(172 1)"><use xlink:href="#o" width="55.2" height="28.8"/><use xlink:href="#m" width="55.2" height="23.8"/></g></g><g clip-path="url(#p)"><g transform="translate(229 1)"><use xlink:href="#q" width="55.2" height="28.8"/><use xlink:href="#m" width="55.2" height="23.8"/></g></g><g clip-path="url(#r)"><g transform="translate(286 1)"><use xlink:href="#s" width="55.2" height="28.8"/><use xlink:href="#m" width="55.2" height="23.8"/></g></g><g clip-path="url(#t)"><g transform="translate(343 1)"><use xlink:href="#u" width="55.2" height="28.8"/><use xlink:href="#m" width="55.2" height="23.8"/></g></g><g clip-path="url(#v)"><g transform="translate(400 1)"><use xlink:href="#w" width="55.2" height="28.8"/><use xlink:href="#m" width="55.2" height="23.8"/></g></g></svg>