<svg xmlns="http://www.w3.org/2000/svg" xmlns:xlink="http://www.w3.org/1999/xlink" width="229" height="62" viewBox="0 0 229 62"><defs><g id="e"><path fill="#ffe5ab" d="M10.6 12.9q-.2-2.6 1.4-4.5t4-2.1q1.7-.2 3.1.5v-.4q-.1-1.3.7-2.4.9-1 2.2-1.1t2.4.6q1 1 1.2 2.3t-.7 2.3-2.2 1.3h-.9q.6 1 .7 2.2.2 2.4-1.3 4.4-1.6 1.9-4 2.2-2.5.3-4.5-1.4-1.9-1.5-2-4m20.6 3.7q-.8-.8-.7-2 0-1 .8-1.8.8-.7 2-.7 1 0 1.8.8.7.8.7 1.9 0 1.2-.9 1.9-.7.8-1.8.7-1.2 0-1.9-.8"/><path fill="#fdffff" fill-opacity=".5" d="m20.7 4.5-.3-.6.3-.8.6-.3.7.2q.4.3.4.7.1.3-.2.7l-.7.4zm-7 4.9q-.6-.5-.7-1.3 0-.7.4-1.3t1.2-.7 1.4.5.7 1.3-.4 1.2-1.2.8q-.8 0-1.4-.5M35 14.5l-.6-.2-.1-.6.2-.6.6-.2.6.3.2.6q0 .3-.2.5t-.7.2"/><path fill="url(#a)" d="M-37-6.8q9.6-8 26-12.6Q7.1-14.7 14.6-6.8q-4.3 6-25.2 12.2Q-25.2-.6-37-6.8" transform="translate(37.05 19.45)"/><path fill="none" stroke="#ffe89b" stroke-linecap="round" stroke-linejoin="round" stroke-width="__RESOLUTION__" d="M51.6 12.6Q44.2 4.8 26 0 9.6 4.6 0 12.6" vector-effect="non-scaling-stroke"/></g><g id="f"><path fill="#ffbd00" d="M25.8 17.2q0 2.3-1.7 3.9t-4 1.6q-2.2 0-3.9-1.6t-1.6-4 1.6-4q1.7-1.5 4-1.5t3.9 1.6 1.6 4M8 19.8q0 1.2-.8 2t-2.1.9-2-.8-.8-2.1.8-2 2-.8 2 .8.9 2m-.3 6.4q-.5.5-1.1.5t-1.2-.5q-.4-.4-.4-1.1 0-.6.4-1.1l1.2-.4q.6 0 1 .4t.5 1.1-.4 1.1"/><path fill="#fecb56" d="m27.4 35 1 .4q.5.5.5 1.1t-.4 1.1q-.5.5-1.1.5t-1.2-.5q-.4-.4-.4-1.1 0-.6.4-1.1.4-.4 1.2-.4"/><path fill="#fafefe" fill-opacity=".5" d="M24 16.1q-.4.4-1 .4t-1-.4-.4-1 .4-1q.5-.3 1-.3t1 .4.4.9q0 .6-.4 1"/><path fill="url(#b)" d="M14.6 7.1q-12.6-5-26-13-4.3-15.2 0-29.8Q-.4-30 15-23.5q3.8 17.3-.4 30.6" transform="translate(13.55 35.7)"/><path fill="none" stroke="#ffec84" stroke-linecap="round" stroke-linejoin="round" stroke-width="__RESOLUTION__" d="M28.2 42.8q-12.6-5-26-13-4.3-15.2 0-29.8" vector-effect="non-scaling-stroke"/></g><g id="g"><path fill="#d3ad55" d="M17 17.7q1.1 1 1.1 2.4T17 22.5q-1 1-2.5 1t-2.7-1q-1-1-1-2.4 0-1.5 1-2.5 1.2-1 2.7-1 1.4 0 2.5 1m0 12q-.5 0-.8-.3t-.3-.7.3-.8.8-.3.8.3l.3.8-.3.7q-.4.3-.8.3M3.5 33.2q0-1.4 1-2.4 1.2-1 2.7-1t2.5 1 1.1 2.4-1.1 2.4-2.5 1.1q-1.5 0-2.6-1T3.5 33"/><path fill="#d0d6db" fill-opacity=".5" d="M4.5 33q-.4 0-.7-.4l-.3-.9.3-.8q.3-.3.7-.3.5 0 .8.3.2.3.2.8t-.2.9-.8.3m7.3-11.4q-.4 0-.7-.3l-.3-.7.3-.7.7-.3.8.3q.2.3.2.7t-.2.7-.8.3"/><path fill="url(#c)" d="M12.2-35.8q3.2 16.2.2 29.4Q5.9-.5-13.4 7q3.9-14.1.4-30.6 19.9-6 25.2-12.2" transform="translate(13.4 35.8)"/><path fill="none" stroke="#d4c064" stroke-linecap="round" stroke-linejoin="round" stroke-width="__RESOLUTION__" d="M25.6 0q3.1 16.2.2 29.4Q19.3 35.3 0 42.8" vector-effect="non-scaling-stroke"/><path fill="none" stroke="#d3cab5" stroke-linecap="round" stroke-linejoin="round" stroke-width="__RESOLUTION__" d="M0 42.8q3.9-14.1.4-30.6Q20.3 6.2 25.6 0" vector-effect="non-scaling-stroke"/></g><g id="h"><path fill="#fff" d="m6 2.6.4.6q.8 2.2.5 4.5T5.4 11t-2.6.3q-1.4-.8-2.2-3v-.2q0-3.5 1.9-5.3T6 2.6"/><path fill="#d1d1d1" d="M.6 8.1q-.8-2-.5-4.2T1.6.6 4.2.3Q5.3 1 6 2.6 4.3 1 2.5 2.8t-2 5.3"/><path fill="none" stroke="#6c6c6c" stroke-linecap="round" stroke-linejoin="round" stroke-width="__RESOLUTION__" d="m6 2.6.4.6q.8 2.2.5 4.5T5.4 11t-2.6.3q-1.4-.8-2.2-3v-.2q-.8-2-.5-4.2T1.6.6q1.2-1 2.6-.3Q5.3 1 6 2.6" vector-effect="non-scaling-stroke"/><path fill="#000" d="m4.6 6.4.2.6-.1.7-.3.3-.5-.3-.2-.7.1-.6q.1-.2.4-.2z"/></g><g id="i"><path fill="#fecb56" d="M10.6 12.9q-.2-2.6 1.4-4.5t4-2.1q1.7-.2 3.1.5v-.4q-.1-1.3.7-2.4.9-1 2.2-1.1t2.4.6q1 1 1.2 2.3t-.7 2.3-2.2 1.3h-.9q.6 1 .7 2.2.2 2.4-1.3 4.4-1.6 1.9-4 2.2-2.5.3-4.5-1.4-1.9-1.5-2-4m20.6 3.7q-.8-.8-.7-2 0-1 .8-1.8.8-.7 2-.7 1 0 1.8.8.7.8.7 1.9 0 1.2-.9 1.9-.7.8-1.8.7-1.2 0-1.9-.8"/><path fill="#fafefe" fill-opacity=".5" d="m20.7 4.5-.3-.6.3-.8.6-.3.7.2q.4.3.4.7.1.3-.2.7l-.7.4zm-7 4.9q-.6-.5-.7-1.3 0-.7.4-1.3t1.2-.7 1.4.5.7 1.3-.4 1.2-1.2.8q-.8 0-1.4-.5M35 14.5l-.6-.2-.1-.6.2-.6.6-.2.6.3.2.6q0 .3-.2.5t-.7.2"/><path fill="url(#d)" d="M-37-6.8q9.6-8 26-12.6Q7.1-14.7 14.6-6.8q-4.3 6-25.2 12.2Q-25.2-.6-37-6.8" transform="translate(37.05 19.45)"/><path fill="none" stroke="#fed036" stroke-linecap="round" stroke-linejoin="round" stroke-width="__RESOLUTION__" d="M51.6 12.6Q44.2 4.8 26 0 9.6 4.6 0 12.6" vector-effect="non-scaling-stroke"/></g><g id="m"><path fill="#cbcb9f" d="M22.6 10.6q-.2-1.7-1.1-2-1-.2-2 1-1.2 1.2-2 3.3-.6 2-.5 3.6t1 1.9 2.1-1 1.8-3.2.7-3.6M24 7.3q.2 2.6-.9 5.9-1.2 3.2-3 5.2t-3.4 1.5q-1.4-.4-1.6-3T16 11t3-5.2 3.4-1.5 1.6 3"/><path fill="#cbb80a" d="M22.6 10.6q0 1.6-.7 3.6t-1.8 3.2-2 1q-1-.3-1.1-2-.1-1.5.6-3.5.6-2.1 1.8-3.3t2.1-1 1 2"/><path fill="#cbcb9f" d="M15.7 10.6Q14.6 7.9 13 6.4t-2.7-1T9 8t1 4.9q1.1 2.6 2.7 4.1t2.8 1 1.1-2.7-1-4.8m0 10.2q-2 .8-4.4-1.7-2.6-2.5-4.3-6.7Q5 8.2 5.1 4.6t2-4.4 4.4 1.6q2.6 2.5 4.3 6.8t1.6 7.8-2 4.4"/><path fill="#cbb80a" d="M15.7 10.6q1 2.6 1 4.8-.1 2.2-1.2 2.7-1.2.5-2.8-1T10 13q-1-2.7-1-5 0-2 1.3-2.5 1.1-.5 2.7 1t2.7 4.2"/><path fill="#cbcb9f" d="M4.6 9.9q2.8.9 5.7 3.5 2.8 2.6 4.1 5.4 1.3 2.7.1 4t-4 .3q-2.8-.9-5.7-3.5T.7 14.3q-1.3-2.7-.1-4t4-.4m6.2 5.1Q9 13.4 7.2 12.9q-1.7-.7-2.4.2t0 2.5 2.6 3.3T11 21t2.4-.3 0-2.5-2.6-3.2"/><path fill="#cbb80a" d="M10.8 15q1.8 1.6 2.6 3.3t0 2.5-2.4.3q-1.8-.6-3.6-2.2t-2.6-3.3 0-2.5 2.5-.2 3.5 2.1"/></g><g id="l"><path fill="#b2b28b" d="M22.6 10.6q-.2-1.7-1.1-2-1-.2-2 1-1.2 1.2-2 3.3-.6 2-.5 3.6t1 1.9 2.1-1 1.8-3.2.7-3.6M24 7.3q.2 2.6-.9 5.9-1.2 3.2-3 5.2t-3.4 1.5q-1.4-.4-1.6-3T16 11t3-5.2 3.4-1.5 1.6 3"/><path fill="#b2a109" d="M22.6 10.6q0 1.6-.7 3.6t-1.8 3.2-2 1q-1-.3-1.1-2-.1-1.5.6-3.5.6-2.1 1.8-3.3t2.1-1 1 2"/><path fill="#b2b28b" d="M15.7 10.6Q14.6 7.9 13 6.4t-2.7-1T9 8t1 4.9q1.1 2.6 2.7 4.1t2.8 1 1.1-2.7-1-4.8m0 10.2q-2 .8-4.4-1.7-2.6-2.5-4.3-6.7Q5 8.2 5.1 4.6t2-4.4 4.4 1.6q2.6 2.5 4.3 6.8t1.6 7.8-2 4.4"/><path fill="#b2a109" d="M15.7 10.6q1 2.6 1 4.8-.1 2.2-1.2 2.7-1.2.5-2.8-1T10 13q-1-2.7-1-5 0-2 1.3-2.5 1.1-.5 2.7 1t2.7 4.2"/><path fill="#b2b28b" d="M4.6 9.9q2.8.9 5.7 3.5 2.8 2.6 4.1 5.4 1.3 2.7.1 4t-4 .3q-2.8-.9-5.7-3.5T.7 14.3q-1.3-2.7-.1-4t4-.4m6.2 5.1Q9 13.4 7.2 12.9q-1.7-.7-2.4.2t0 2.5 2.6 3.3T11 21t2.4-.3 0-2.5-2.6-3.2"/><path fill="#b2a109" d="M10.8 15q1.8 1.6 2.6 3.3t0 2.5-2.4.3q-1.8-.6-3.6-2.2t-2.6-3.3 0-2.5 2.5-.2 3.5 2.1"/></g><g id="k"><path fill="#ffffc8" d="M22.6 10.6q-.2-1.7-1.1-2-1-.2-2 1-1.2 1.2-2 3.3-.6 2-.5 3.6t1 1.9 2.1-1 1.8-3.2.7-3.6M24 7.3q.2 2.6-.9 5.9-1.2 3.2-3 5.2t-3.4 1.5q-1.4-.4-1.6-3T16 11t3-5.2 3.4-1.5 1.6 3"/><path fill="#ffe70d" d="M22.6 10.6q0 1.6-.7 3.6t-1.8 3.2-2 1q-1-.3-1.1-2-.1-1.5.6-3.5.6-2.1 1.8-3.3t2.1-1 1 2"/><path fill="#ffffc8" d="M15.7 10.6Q14.6 7.9 13 6.4t-2.7-1T9 8t1 4.9q1.1 2.6 2.7 4.1t2.8 1 1.1-2.7-1-4.8m0 10.2q-2 .8-4.4-1.7-2.6-2.5-4.3-6.7Q5 8.2 5.1 4.6t2-4.4 4.4 1.6q2.6 2.5 4.3 6.8t1.6 7.8-2 4.4"/><path fill="#ffe70d" d="M15.7 10.6q1 2.6 1 4.8-.1 2.2-1.2 2.7-1.2.5-2.8-1T10 13q-1-2.7-1-5 0-2 1.3-2.5 1.1-.5 2.7 1t2.7 4.2"/><path fill="#ffffc8" d="M4.6 9.9q2.8.9 5.7 3.5 2.8 2.6 4.1 5.4 1.3 2.7.1 4t-4 .3q-2.8-.9-5.7-3.5T.7 14.3q-1.3-2.7-.1-4t4-.4m6.2 5.1Q9 13.4 7.2 12.9q-1.7-.7-2.4.2t0 2.5 2.6 3.3T11 21t2.4-.3 0-2.5-2.6-3.2"/><path fill="#ffe70d" d="M10.8 15q1.8 1.6 2.6 3.3t0 2.5-2.4.3q-1.8-.6-3.6-2.2t-2.6-3.3 0-2.5 2.5-.2 3.5 2.1"/></g><use xlink:href="#e" id="s" width="51.6" height="24.9"/><use xlink:href="#f" id="r" width="30.4" height="42.8"/><use xlink:href="#g" id="q" width="27.3" height="42.8"/><use xlink:href="#h" id="p" width="7" height="11.6"/><use xlink:href="#i" id="o" width="51.6" height="24.9"/><linearGradient id="a" x1="-819.2" x2="819.2" gradientTransform="matrix(.03 0 0 .02 -11.25 -7.05)" gradientUnits="userSpaceOnUse" spreadMethod="pad"><stop offset="0" stop-color="#ffffeb" stop-opacity=".7"/><stop offset=".5" stop-color="#ffffa9" stop-opacity=".7"/><stop offset="1" stop-color="#fff180" stop-opacity="1"/></linearGradient><linearGradient id="b" x1="-819.2" x2="819.2" gradientTransform="matrix(.01 .02 -.02 .01 .9 -16.25)" gradientUnits="userSpaceOnUse" spreadMethod="pad"><stop offset="0" stop-color="#ffffd6" stop-opacity=".7"/><stop offset=".5" stop-color="#ffff52" stop-opacity=".7"/><stop offset="1" stop-color="#ffe300" stop-opacity="1"/></linearGradient><linearGradient id="c" x1="-819.2" x2="819.2" gradientTransform="matrix(.02 0 0 .03 .2 -14.4)" gradientUnits="userSpaceOnUse" spreadMethod="pad"><stop offset="0" stop-color="#d4d7bb" stop-opacity=".7"/><stop offset=".5" stop-color="#d4d752" stop-opacity=".7"/><stop offset="1" stop-color="#d4c011" stop-opacity="1"/></linearGradient><linearGradient id="d" x1="-819.2" x2="819.2" gradientTransform="matrix(.03 0 0 .02 -11.25 -7.05)" gradientUnits="userSpaceOnUse" spreadMethod="pad"><stop offset="0" stop-color="#ffffd6" stop-opacity=".7"/><stop offset=".5" stop-color="#ffff52" stop-opacity=".7"/><stop offset="1" stop-color="#ffe300" stop-opacity="1"/></linearGradient><clipPath id="j"><path d="M1 1h75v60H1z"/></clipPath><clipPath id="n"><path d="M77 1h75v60H77z"/></clipPath><clipPath id="u"><path d="M153 1h75v60h-75z"/></clipPath></defs><g clip-path="url(#j)"><g transform="translate(34.65 44.8)"><use xlink:href="#k" width="24.1" height="23.6" transform="matrix(.3931 .2068 -.3391 .6208 20.95 -40.15)"/><use xlink:href="#k" width="24.1" height="23.6" transform="matrix(.3997 .3451 -.4625 .5359 26.7 -35.75)"/><use xlink:href="#k" width="24.1" height="23.6" transform="matrix(.2651 .3697 -.4955 .3554 13.4 -43.8)"/><use xlink:href="#k" width="24.1" height="23.6" transform="matrix(.5363 -.1169 .1299 .5957 -10.6 -39.5)"/><use xlink:href="#k" width="24.1" height="23.6" transform="matrix(.4897 .25 -.2776 .5439 2.35 -42.5)"/><use xlink:href="#l" width="24.1" height="23.6" transform="matrix(.4512 .5908 -.5694 .4348 13 -38.05)"/><use xlink:href="#l" width="24.1" height="23.6" transform="matrix(.673 .3184 -.418 .8838 -3.25 -39.95)"/><use xlink:href="#k" width="24.1" height="23.6" transform="matrix(.673 -.4246 .5489 .87 -33.65 -21.75)"/><use xlink:href="#k" width="24.1" height="23.6" transform="matrix(.7233 -.0726 .1041 1.0371 -18.8 -30.1)"/><use xlink:href="#k" width="24.1" height="23.6" transform="matrix(-.0513 .5351 -.606 -.058 39.4 -26.85)"/><use xlink:href="#k" width="24.1" height="23.6" transform="matrix(.5453 .3758 -.4174 .6057 16.45 -32.7)"/><use xlink:href="#k" width="24.1" height="23.6" transform="matrix(.0194 .8426 -.965 .017 40 -19)"/><use xlink:href="#l" width="24.1" height="23.6" transform="matrix(-.2841 .4997 -.8493 -.4827 37.85 -2.9)"/><use xlink:href="#l" width="24.1" height="23.6" transform="matrix(-.8982 .1953 -.208 -.9565 27.5 11.1)"/><use xlink:href="#k" width="24.1" height="23.6" transform="matrix(.8214 .5661 -.6287 .9123 8.5 -32.45)"/><use xlink:href="#l" width="24.1" height="23.6" transform="rotate(-35.104 -23.805 40.9)scale(.9204 .98)"/><use xlink:href="#m" width="24.1" height="23.6" transform="matrix(1 0 0 1.1106 -10.65 -20.3)"/></g></g><g clip-path="url(#n)"><g transform="translate(110.65 44.8)"><use xlink:href="#k" width="24.1" height="23.6" transform="matrix(.3931 .2068 -.3391 .6208 20.95 -40.15)"/><use xlink:href="#k" width="24.1" height="23.6" transform="matrix(.3997 .3451 -.4625 .5359 26.7 -35.75)"/><use xlink:href="#k" width="24.1" height="23.6" transform="matrix(.2651 .3697 -.4955 .3554 13.4 -43.8)"/><use xlink:href="#k" width="24.1" height="23.6" transform="matrix(.5363 -.1169 .1299 .5957 -10.6 -39.5)"/><use xlink:href="#k" width="24.1" height="23.6" transform="matrix(.4897 .25 -.2776 .5439 2.35 -42.5)"/><use xlink:href="#l" width="24.1" height="23.6" transform="matrix(.4512 .5908 -.5694 .4348 13 -38.05)"/><use xlink:href="#l" width="24.1" height="23.6" transform="matrix(.673 .3184 -.418 .8838 -3.25 -39.95)"/><use xlink:href="#k" width="24.1" height="23.6" transform="matrix(.673 -.4246 .5489 .87 -33.65 -21.75)"/><use xlink:href="#o" width="51.6" height="24.9" transform="matrix(.3879 .0739 .0739 -.3879 -11.85 -13.3)"/><use xlink:href="#p" width="7" height="11.6" transform="matrix(.2128 .7484 .4364 -.1993 2.05 -23.25)"/><use xlink:href="#p" width="7" height="11.6" transform="matrix(.2439 .8885 .5036 -.2112 -3.5 -22.65)"/><use xlink:href="#q" width="27.3" height="42.8" transform="rotate(10.786 146.825 -6.915)scale(.3949)"/><use xlink:href="#r" width="30.4" height="42.8" transform="rotate(10.786 152.472 -65.958)scale(.3949)"/><use xlink:href="#s" width="51.6" height="24.9" transform="rotate(10.786 178.769 -59.09)scale(.3949)"/><use xlink:href="#t" width="0" height="0" transform="rotate(12.822 70.6 -13.34)scale(.7255)"/><use xlink:href="#k" width="24.1" height="23.6" transform="matrix(.7233 -.0726 .1041 1.0371 -18.8 -30.1)"/><use xlink:href="#k" width="24.1" height="23.6" transform="matrix(-.0513 .5351 -.606 -.058 39.4 -26.85)"/><use xlink:href="#k" width="24.1" height="23.6" transform="matrix(.5453 .3758 -.4174 .6057 16.45 -32.7)"/><use xlink:href="#k" width="24.1" height="23.6" transform="matrix(.0194 .8426 -.965 .017 40 -19)"/><use xlink:href="#l" width="24.1" height="23.6" transform="matrix(-.2841 .4997 -.8493 -.4827 37.85 -2.9)"/><use xlink:href="#l" width="24.1" height="23.6" transform="matrix(-.8982 .1953 -.208 -.9565 27.5 11.1)"/><use xlink:href="#k" width="24.1" height="23.6" transform="matrix(.8214 .5661 -.6287 .9123 8.5 -32.45)"/><use xlink:href="#l" width="24.1" height="23.6" transform="rotate(-35.104 -23.805 40.9)scale(.9204 .98)"/><use xlink:href="#m" width="24.1" height="23.6" transform="matrix(1 0 0 1.1106 -10.65 -20.3)"/></g></g><g clip-path="url(#u)"><g transform="translate(186.65 44.8)"><use xlink:href="#k" width="24.1" height="23.6" transform="matrix(.3931 .2068 -.3391 .6208 20.95 -40.15)"/><use xlink:href="#k" width="24.1" height="23.6" transform="matrix(.3997 .3451 -.4625 .5359 26.7 -35.75)"/><use xlink:href="#k" width="24.1" height="23.6" transform="matrix(.2651 .3697 -.4955 .3554 13.4 -43.8)"/><use xlink:href="#k" width="24.1" height="23.6" transform="matrix(.5363 -.1169 .1299 .5957 -10.6 -39.5)"/><use xlink:href="#k" width="24.1" height="23.6" transform="matrix(.4897 .25 -.2776 .5439 2.35 -42.5)"/><use xlink:href="#l" width="24.1" height="23.6" transform="matrix(.4512 .5908 -.5694 .4348 13 -38.05)"/><use xlink:href="#l" width="24.1" height="23.6" transform="matrix(.673 .3184 -.418 .8838 -3.25 -39.95)"/><use xlink:href="#k" width="24.1" height="23.6" transform="matrix(.673 -.4246 .5489 .87 -33.65 -21.75)"/><use xlink:href="#k" width="24.1" height="23.6" transform="matrix(.7233 -.0726 .1041 1.0371 -18.8 -30.1)"/><use xlink:href="#o" width="51.6" height="24.9" transform="rotate(159.438 1.092 -3.03)scale(.3374)"/><use xlink:href="#p" width="7" height="11.6" transform="matrix(-.0706 .661 -.3964 -.1045 -12.15 -12.5)"/><use xlink:href="#p" width="7" height="11.6" transform="matrix(-.0765 .7836 -.4546 -.1048 -7.35 -12.85)"/><use xlink:href="#q" width="27.3" height="42.8" transform="matrix(-.3159 .1185 .1185 .3159 -12.15 -16.25)"/><use xlink:href="#r" width="30.4" height="42.8" transform="matrix(-.3159 .1185 .1185 .3159 -3.3 -19.75)"/><use xlink:href="#s" width="51.6" height="24.9" transform="matrix(-.3159 .1185 .1185 .3159 -5.4 -23.5)"/><use xlink:href="#t" width="0" height="0" transform="matrix(-.5723 .2382 .2382 .5723 -8.4 -6.9)"/><use xlink:href="#k" width="24.1" height="23.6" transform="matrix(-.0513 .5351 -.606 -.058 39.4 -26.85)"/><use xlink:href="#k" width="24.1" height="23.6" transform="matrix(.5453 .3758 -.4174 .6057 16.45 -32.7)"/><use xlink:href="#k" width="24.1" height="23.6" transform="matrix(.0194 .8426 -.965 .017 40 -19)"/><use xlink:href="#l" width="24.1" height="23.6" transform="matrix(-.2841 .4997 -.8493 -.4827 37.85 -2.9)"/><use xlink:href="#l" width="24.1" height="23.6" transform="matrix(-.8982 .1953 -.208 -.9565 27.5 11.1)"/><use xlink:href="#k" width="24.1" height="23.6" transform="matrix(.8214 .5661 -.6287 .9123 8.5 -32.45)"/><use xlink:href="#l" width="24.1" height="23.6" transform="rotate(-35.104 -23.805 40.9)scale(.9204 .98)"/><use xlink:href="#m" width="24.1" height="23.6" transform="matrix(1 0 0 1.1106 -10.65 -20.3)"/></g></g></svg>