<svg xmlns="http://www.w3.org/2000/svg" xmlns:xlink="http://www.w3.org/1999/xlink" width="61" height="78" viewBox="0 0 61 78"><defs><radialGradient id="c" cx="0" cy="0" r="819.2" gradientTransform="matrix(-.01 0 0 0 -2.2 -36.7)" gradientUnits="userSpaceOnUse" spreadMethod="pad"><stop offset="0" stop-color="#fcf3d8"/><stop offset="1" stop-color="#fcf3d8" stop-opacity="0"/></radialGradient><radialGradient id="b" cx="0" cy="0" r="819.2" gradientTransform="matrix(-.01 0 0 .01 12.55 -17.6)" gradientUnits="userSpaceOnUse" spreadMethod="pad"><stop offset="0" stop-color="#fcf3d8"/><stop offset="1" stop-color="#fcf3d8" stop-opacity="0"/></radialGradient><radialGradient id="a" cx="0" cy="0" r="819.2" gradientTransform="matrix(-.01 0 0 .01 -14.5 -26.05)" gradientUnits="userSpaceOnUse" spreadMethod="pad"><stop offset="0" stop-color="#fcf3d8"/><stop offset="1" stop-color="#fcf3d8" stop-opacity="0"/></radialGradient><clipPath id="d"><path d="M1 1h59v76H1z"/></clipPath><g id="e"><path fill="#000" fill-opacity=".3" d="m0 58.8 14.5-7 1 5.4L38.3 69l-6.5 5.3-5 .6-6-3.1Q0 72.6 0 61.2z"/><path fill="#b07e2b" d="m38.7 53.5-1.5 2-.7-1.4zm-1.5 2.1q5.8 2.2 4.1-3.6l1.6-.9v.1l1.6 1.2q2.5-.2.5-2.5l11.2-6.4 1.1 1.8V52l-1 1.4v2.3l-3.6-.1h-1.5l-.2-2.8.2 2.8h-1.5l-7.4 5.8-2.6 2-2-1-3.7 1.9-1 3h-1.8v-2.8zm7 1.4-.4-1.4-.9-4.4 1 4.4zm7.7-8 .8 6.6zm-8 6.6-1.6 5.8z"/><path fill="#6a4d1a" d="m37.3 55.6 1.4-2.1 2.6-1.5q1.7 5.8-4.1 3.6m7.8-5.7q2 2.3-.5 2.5l-1.6-1.2zM31.3 64.6v2.8L28.4 64l-4-.5-1.6-4.2.5-1.4-4.3-2-1.8.9-.4 1.9-7.5-2-1.6-4-1.7-.6v-6.8l.9-.2q-1.6 4 4.6 7.1l.3.3q5.6 3.1 9.5.1l6.5 4z"/><path fill="#422e17" d="m38.7 53.5-2.2.6-8.8 2.3v.3l-6.4-4-13.6-7.8-.8.3-.9.2-1.2.3 2.4-4.3 19-10.8 11.2.3L55 41.7l1.1 1.8L45 49.9l-2.1 1.3-1.6.8z"/><path fill="#d19c43" d="m36.5 54.1.8 1.4-.1.1-6 8.9-3.4-7.8-.1-.3z"/><path fill="#5c543b" d="M56.3 55.7v4.6h-.1l-2.5.7-.2.1-.2.5-1.2 1.6-2.1 3.1-.2.3-4.3-.1-.5.1-.5.2-.8.3-1 1-.7.9h-.1l-1.5.1-.8.5-1.9 1-.6.7-.7.9-3.5 1.6-1.7.8v-7.3H33l1-3 3.6-1.9 2 1 2.7-2 7.4-5.9h1.5l1.5.1.1 1.5-.1-1.5zM6 59.8l-1.2-.5h-.1v-7.6l1.3.5zm45.2-3.1v-1z"/><path fill="#3e3828" d="m31.2 74.6-.6-.2-1.8-.5-2.7-2.2-.2-.2-2.2-1.8-.5-.4-2-1.5H17l-.2-.2h-.1l-8.4-7.1-2.3-.8v-7.6l1.7.6 1.6 4.1 7.5 2 .4-1.9L19 56l4.3 2-.6 1.4 1.7 4.2 4 .5 2.8 3.2z"/><path fill="#ba862e" d="M4.7 51.7v-6l1.3-.3v6.8z"/><path fill="#573f15" d="M21.3 52.7q-3.9 3-9.5-.2l-.3-.2q-6.2-3.1-4.6-7.1l.8-.3z"/><path fill="none" stroke="#6f4d26" stroke-linecap="round" stroke-linejoin="round" stroke-opacity=".5" stroke-width="__RESOLUTION__" d="m42.9 51.2 1 4.4.3 1.4m-1.4-5.9.1.1m-.6 10.2 1.6-5.7" vector-effect="non-scaling-stroke"/><path fill="none" stroke="#000" stroke-linecap="round" stroke-linejoin="round" stroke-opacity=".3" stroke-width="1" d="M57.3 45.3V52l-1 1.4v6.9h-.1m-2.7.9-.2.4M52 63.3l-2 3.1m-5 .3-.5.2m-1.8 1.3-.7.9m-2.4.5-1.9 1-.6.8m-4.2 2.5-1.7.8h0l-.6-.2M26 71.7l-.1-.2m-2.2-1.8-.5-.4m-2.7-1.5h-1.4M4.8 59.3l-.1-.1V45.7l2.5-4.3 19-10.8 11.2.3L55 41.7"/><path fill="none" stroke="#6f4d26" stroke-linecap="round" stroke-linejoin="round" stroke-width="1" d="m52.7 55.6.1 1.5m-1.6-1.6v1.1m0-1-.2-2.8m1.7 2.8-.8-6.6"/><path fill="#f6eaa0" d="m16.7 22.4-.8-.2q-3.6-3.6-2.2-7.7 1.8-4.5 3-2.5v.2h.1q1.7 3.2 2.4 7.2l-.4 1-2.3-3.4.2 2.1v.1l1.8 1.8-.2.4-1.4-1zm-.5-5.9.3.5z"/><path fill="#f9e080" d="m16.7 22.4.2-2 1.4 1-.4.9zm1.8-1.4-1.7-1.7-.1-.2-.2-2 2.3 3.2z"/><path fill="none" stroke="#000" stroke-linecap="round" stroke-linejoin="round" stroke-opacity=".3" stroke-width="1" d="m18.8 20.3.4-.9q-.7-4-2.4-7.1v-.1l-.1-.2q-1.2-2-3 2.5-1.4 4.1 2.2 7.6l.8.3"/><path fill="none" stroke="#000" stroke-linecap="round" stroke-linejoin="round" stroke-opacity=".3" stroke-width="__RESOLUTION__" d="m16.9 20.4 1.4 1 .2-.4.3-.7-2.3-3.3-.3-.5m.5 6 1.2-.2.4-.9" vector-effect="non-scaling-stroke"/><path fill="#e7ba34" d="M55.6 26.3q-.6 3.4-4 2.3l-.6-.1q-.5-2.5-3.6-5.8-3.7-3.7-6.4-4.8l-.2-.1-5.1-2.2-3.2-.7h3.8l1.1 1.2q2.2.6 4.8 2 2.3 1.3 5.5 4.1l.3.2q5.2 2.5 3.4-.9z"/><path fill="#c58d30" d="m32.5 14.9 3.1.7 5.2 2.2.2.1q2.7 1.1 6.4 4.8 3 3.3 3.6 5.8l.5.1q3.5 1.1 4.1-2.3l.5.7q1.2 2.6.8 5.4-4.1 7.5-6.5 3.5v-.6q0-3.7-1.4-7.6v-.4Q47.9 25 46 23l-1-1q-3.3-3.1-7.6-4.9-4.4-1.8-8.6-1.7v-.1l2.7-.3z"/><path fill="#f3e17a" d="M51.4 21.5q1.8 3.4-3.4.9l-.2-.2q-3.2-2.8-5.6-4.1-2.6-1.4-4.8-2l-1.1-1.2q8.6.7 15 6.6m-22.5-6.1q4.2-.1 8.6 1.7T45 22l1 1v.1q1.4 2.3.4 3.2t-3.1-.7q-8-7.7-12.7-7.6-7.9-.6-4.2-2.4h.6l1.4-.2z"/><path fill="#efd643" d="M46 23.1q1.9 2 3 4.1v.4q.4 3.7-3.9 6.9l-.1.1h-.1q-1 .5-2.1.6-1.7-7.2-6-10.8Q30 19.8 22 20.2l-4.3.7.3-.4 1-1.2 1.8-1.3.3-.2q2.3-1.7 5.3-2.2-3.7 1.8 4.2 2.4 4.6 0 12.7 7.6 2 1.7 3 .7t-.2-3.2"/><path fill="#a67728" d="M49 27.7q1.5 3.8 1.4 7.6-4.9 9.5-10.4 3.6-.1-2.3-.7-4.2l-.1-.4q-2-6.5-7.6-9l-.3-.2q-9-3.7-14.4-1.9l.6-1.9.1-.2.1-.2 4.3-.7q8-.4 14.9 4.2Q41 28 42.8 35.3q1.1-.1 2-.6l.2-.1.1-.1q4.3-3.2 4-6.9"/><path fill="#604517" d="M50.4 35.3v.6q2.4 4 6.5-3.5-.7 4-5.1 8.2l-.2.1q-1.4 1.9-3.4 1.8l-.2.2q-1.2 1.2-3.1 1.9h-.2l-4.5.1q.1-3.2-.2-5.8 5.5 6 10.4-3.6m0 .6-.4 2.7q-.4 2.4-1.8 4 1.4-1.6 1.8-4z"/><path fill="none" stroke="#000" stroke-linecap="round" stroke-linejoin="round" stroke-opacity=".3" stroke-width="1" d="m55.6 26.3-4.2-4.8q-6.5-5.9-15.1-6.6m-.4 0h-3.4m-1 .1-2.7.3v.1h-.4l-1.4.1m29.9 16.9q.4-2.7-.8-5.4l-.5-.7m-37.9-5.4.3-.4 1-1.2 1.8-1.3.3-.2q2.3-1.7 5.3-2.2"/><path fill="none" stroke="#000" stroke-linecap="round" stroke-linejoin="round" stroke-opacity=".3" stroke-width="__RESOLUTION__" d="M28.8 15.4q4.2-.1 8.6 1.7T45 22l1 1m0 0q1.9 2 3 4.1m0 .4q1.5 4 1.4 7.6v.7l-.4 2.7q-.4 2.4-1.8 4 2 0 3.4-1.9l.1-.1q4.5-4.2 5.1-8.2m-16.7 6.5q-.2-2.3-.9-4.2v-.4q-2-6.5-7.6-9l-.3-.2q-9-3.7-14.4-1.9l.6-1.9.1-.2.1-.2m30.5 21.7-.2.1q-1.2 1.2-3.1 1.9h-.2l-4.5.1q.1-3.2-.2-5.8" vector-effect="non-scaling-stroke"/><path fill="#f1d95c" d="m37.3 28.1 1.6 2 1.4 2.4v.1q-3 6.1-10.8 6.4-2-4.1-7-6.7-6-3-13.1-2l3-4.4.3-.2q8.5-3.1 18.2 5.9l.4.2q4.3.4 6-3.7"/><path fill="#f6eaa0" d="M37.3 28.1q-1.7 4.1-6 3.7l-.4-.2q-9.7-9-18.2-6l.2-.2q3-3.2 7-3.7 5-.6 10.3 1.6 4.3 1.7 7.1 4.8"/><path fill="#b07e2b" d="M9.4 30.3q7.2-1 13 2 5.1 2.6 7 6.8 7.9-.4 11-6.5 1.3 3 1.3 6.4v.2Q40 44 33.9 43.8q-2.2-.1-4.6-1.2-1.5-2-3.2-3.6-7.1-6.6-17.8-6.2z"/><path fill="#604517" d="m41.7 39.2-.2 2.1v.5q-.6 8.5-9 6-1.4-3-3.2-5.2 2.4 1.1 4.6 1.2 6.2.2 7.8-4.6"/><path fill="none" stroke="#000" stroke-linecap="round" stroke-linejoin="round" stroke-opacity=".3" stroke-width="__RESOLUTION__" d="m12.4 26-3 4.3m31 2.3-.1-.1-1.4-2.5-1.5-1.9m-.1 0q-2.8-3-7.1-4.8Q25 21.1 20 21.7q-4.1.4-7.1 3.7l-.2.1v.1m29 13.4q0-3.5-1.4-6.4m-11 10q1.8 2.2 3.2 5.2 8.4 2.5 9-6v-.5l.2-2.1" vector-effect="non-scaling-stroke"/><path fill="none" stroke="#000" stroke-linecap="round" stroke-linejoin="round" stroke-opacity=".3" stroke-width="1" d="M29.3 42.6q-1.5-2-3.2-3.6-7.1-6.6-17.8-6.2l1-2.5"/><path fill="#000" fill-opacity=".3" d="M30 38.7v-.3q.5-5.6 7.4-4.5-.6 2.2-2.3 3.1 4.9-.3 6.8 2.8-6.2 2.7-11.9-1.1M14 23.8q2.4-.5 2.1 4.3.4-3.4 3.5-5 2.6 1.8-1.2 5.1l-.6.5-3.6 1.6q-7.5 1-.4-6.3z"/><path fill="#f6eaa0" d="m34.9 32.7-1.3.3-1.9 1.6.2.7-1.5 3.9-.5.2q-.7-7.1 5.4-7.6l-.3.6zm-1.7 4-.1.1q5.3-3.3 11-.9H44l-5.6.5-.2.4-.2.1q-5 .4-7.5 2.4l-.1-.1 1.9-2.4zm-19.9-5h.9l1.6.1q2.3.3 4.6 1.4t4.4 2.7q-2.3-.2-3.9 2-2.6-2.4-5.4-3l-.5-.1q-4.2-.4-2.6-2.2l.3-.3zm3.1-1.7-.1-2.5-.5-.5.3-.7-1.1-3.9q3.3 4.8 2 7zm-4-3.6-.1-1-1.6-.4-.2-.6-1.8-1.2-1.4-2.4-.4-2.1.1-.7q.7 3.3 3.2 5 1.7.7 2.8 1.9l.4.5.5.6q.7 1.1 1 2.6l.2 1.1v.3h-.2l-.1-.1-.1-.2-.3-.6q-1.2-2.2-2-2.7m-5.2 9.1q1.7.5 1.6 3.6l-1.9-2.4v-.4z"/><path fill="#f9e080" d="m31.9 35.3-.1-.7 1.8-1.6 1.3-.4-.1.4-.7 2.1-.9 1.6-1 .1-1.8 2.4zm12 .6q-1.4.3-4.1 2.7-2.4 2-4.2 2-3-.2-5-.9l-.1-.5q2.6-2 7.5-2.3l.2-.1.1-.4zm-14 9.9.2.3q-2.5-.5-4.9 1v-.9l.1-.2q2.7-1.7 4.7-.2M7 33.5l.4-.2q1.7-1 3.6-1.3l1.2-.2 1-.1-.6.6-.3.3q-1.6 1.8 2.6 2.2h.5q2.8.8 5.4 3.1 1.6-2.2 3.9-2l2 1.9q-6.4 3.3-6.8 8-1.2 1-3.2-.5-2.5-2.1-4.1-2-2.1.6-2.2-1.4-1-2-2.5-2.2-1.4-.7-2-2.7-.1-1.9 1.2-3.5m7.9-11 1 3.8-.2.7.4.5.2 2.5q-1-.4-1.3-1.5l-.2-1.8v-4.4zm-8.1-3.7.4 2.1 1.4 2.4 1.8 1.2.3.6 1.5.4v1q.9.5 2.1 2.8l.3.4.1.3v.1h.1l-.3.1-.3.1-1.7.2h-.7q-1.1-.2-1.8-1l-.5-.8-.1-.2q-3-6.8-2.6-9.7m3 6.8q1.1 3.4 4.2 4.2-3.1-.8-4.2-4.2m-.7 14q1.3-1.4 1-3.4-.7-1.3-1.1-1.5-1.4-1.2-2 1l-.1.7-.1.4L8.7 39l.1.1zl.2.1zm1.3-.4q-.5.6-1.1.4l.3.5H11l.7-1.2-.3-1.7-.1.6zM11 35q.5 1.1.3 2.2.2-1.1-.3-2.2m3.9 8.8q1.4-.4 1-2.2-1.3.1-1 2.1m-1.3-3q-.8 0-.8 1.5 1 0 .8-1.6"/><path fill="#0c86b4" fill-opacity=".5" d="M30.4 39.3v-.1"/><path fill="#866020" d="m30.2 46-.1-.2-.6-1q-.7-1-2.2-.6T25.4 46v.2l-.1.9-.3.2-.3.1q.1-3.8 2.8-3.9t3 1.7l.9.3.2 1zM29 48.8q1.7 1.1 1.5 2.7l-.6 1.6q-.6 1-1.9.2t-.6-1.6v-.2q1-1.4-.1-2.3z"/><path fill="#e7ba34" d="M30 45.8q-2-1.5-4.6.2.4-1.4 1.9-1.8 1.4-.4 2.3.6zm-4.7 1.3q2.4-1.5 4.9-1l1.4.4-.2-1-.9-.3q-.4-1.8-3-1.7-2.7.1-2.8 4l.3-.2zM7.2 40.6l-.6-.9-.4-.9-.9-1.6-.3-2.3 2.1-1.4Q5.8 35.1 5.9 37q.6 2 2 2.7 1.7.1 2.6 2.2.1 2 2.2 1.4 1.6-.1 4.1 2 2 1.5 3.2.5.4-4.7 6.8-8l1 .9q3 3.4 4.9 7.7l-.4.9-1.6-.5q-2.2-.8-3.2.9l-.1.1q-.9 0-1.9.8h-.1q-1.6.8-2.8-.2t-2.5-.7h-.4q-3 .3-4.5-1.5l-.2-.1q-1.5-1.8-3.1-1.6-2.2-.2-2.6-2v-.2q-.5-1.2-2.1-1.7m0-5q.3-.7 1.2-.3 1.4.8.8 2.6-.5.9 0 1.5l-.4-.2q0-3.2-1.6-3.7m16 11.4v-1.7l.1-.2q.3-1 .8-1.7L22 45l-.3 1.5.4.7 1.6.3zm3.3-4.7q-1.6 0-2.5 1.1.9-1 2.5-1.1m-2.9 5.2h1z"/><path fill="#b07e2b" d="m29 48.7-1.7.4h-.2q-5.4.9-10.9-1.3-5.7-2.4-9-7.2 1.6.5 2 1.7l.1.1q.4 1.9 2.6 2.1 1.6-.2 3.1 1.6l.2.1q1.5 1.8 4.5 1.5h.4q1.3-.2 2.5.7 1.2 1 2.8.2h.1q1-.8 1.9-.8v-.1q1-1.7 3.3-.9l1.7.5-.2.3zM9.3 39.4q-.6-.6-.1-1.5.6-1.9-.8-2.6-.9-.4-1.2.3.5-2.2 1.9-1 .4.2 1 1.5.4 2-.8 3.3m.1.1q.6.2 1-.4l.8-1.4.1-.6.3 1.7-.7 1.3-1.2-.1zM23.3 45v1.9l.4.5-1.6-.3-.4-.7.3-1.5 2.1-1.6q-.5.7-.8 1.7"/><path fill="#422e17" d="M6.6 39.7q-1.7 0-1.1 1.2.3.6 0 1.1l-1.1.1q-1.1-.6-.8-1.9v-.1q1-1.2 2.6-1.3z"/><path fill="#571a4d" d="M14.9 43.7q-.3-2 1-2.2.4 1.8-1 2.1m-1.3-3q.2 1.4-.8 1.5 0-1.5.8-1.6"/><path fill="none" stroke="#000" stroke-linecap="round" stroke-linejoin="round" stroke-opacity=".3" stroke-width="__RESOLUTION__" d="m35 32.4.3-.6q-6.1.4-5.4 7.6l.5-.1v-.1l1.5-3.9m3-2.6-.1.3-.7 2.1-.9 1.6-.1.1q5.3-3.3 11-.9H44q-1.5.3-4.2 2.7-2.4 2-4.2 2-3-.2-5-.9l-.1-.5q2.6-2 7.5-2.3l.2-.1M15 22.5l-.1-.2v1.2m2 5.9q1.4-2.2-1.9-7m-2.6 4q.8.5 2 2.8m-.3.5Q11 29 9.9 25.5" vector-effect="non-scaling-stroke"/><path fill="none" stroke="#fff" stroke-linecap="round" stroke-linejoin="round" stroke-opacity=".3" stroke-width="__RESOLUTION__" d="m30.5 39.3-.1-.1h0" vector-effect="non-scaling-stroke"/><path fill="none" stroke="#000" stroke-linecap="round" stroke-linejoin="round" stroke-opacity=".3" stroke-width="__RESOLUTION__" d="m30.2 46-.1-.2-.6-1q-.7-1-2.2-.6T25.4 46m0 .2-.1.9q2.4-1.5 4.9-1m-5.5 1.3.3-.1.3-.2M7.2 35.5q.3-.6 1.2-.2 1.4.8.8 2.6-.5.9 0 1.5l-.4-.2V39l-1.9-2.3v-.4zm2 3.8.2.1q.6.2 1-.4m13.3 8.3-.4-.5m1.4.5h-1" vector-effect="non-scaling-stroke"/><path fill="none" stroke="#000" stroke-linecap="round" stroke-linejoin="round" stroke-opacity=".3" stroke-width="1" d="M27.3 49.1q1.2 1 .2 2.3l-.1.2q-.6.8.6 1.6 1.3.7 1.9-.2l.6-1.6q.2-1.6-1.5-2.7zh-.2q-5.4.9-10.9-1.3-5.7-2.4-9-7.2m-.6-.9q-1.7 0-1.1 1.2.3.6 0 1.1l-1.1.1q-1.1-.6-.8-1.9v-.1q1-1.2 2.6-1.3l-.9-1.6-.3-2.3 2.1-1.4m25.3 13.8-.2.3-3.2 1.1M13 24.9q-1.1-1.2-2.8-1.9-2.5-1.7-3.2-5m-.1.7q-.4 2.9 2.6 9.7v.2l.6.8"/><path fill="none" stroke="#000" stroke-linecap="round" stroke-linejoin="round" stroke-opacity=".3" stroke-width="__RESOLUTION__" d="M7.5 33.3q1.7-1 3.6-1.3m4.7-.2q2.3.3 4.6 1.4t4.4 2.7l2 1.9 1 .9q3 3.4 4.9 7.7l-.4.9m-4.8.4q-.9 0-1.9.8h-.1q-1.6.8-2.8-.2m0 0q-1.2-.9-2.5-.7h-.4q-3 .3-4.5-1.5l-.2-.1q-1.5-1.8-3.1-1.6-2.2-.2-2.6-2m0-.2q-.5-1.2-2.1-1.7m3.9-2.7.1-.7q.2-1.1-.3-2.2M23.3 45q.3-1 .8-1.7.9-1 2.5-1.1" vector-effect="non-scaling-stroke"/><path fill="#000" fill-opacity=".3" d="M44.5 21.4h-.9l-2-.5-1 1.3q-1.9.7-3.5 2.4l-1.6 1.6-2.2-1.4q7.1-5.8 8.8-5.4l.4-1q4.4-.9 6.4 1 1.5 1 2.1 2-2.7-2.4-5.6-.9l-.8 1zm-8.4-5.9L34 16q-5.4 1-7.5 4.4l-.6 1.4-3.4-.3q4.2-6.4 9.9-6l2.6-.4z"/><path fill="#f6eaa0" d="m35.5 2.9 2 .3.9-1.2 2.6.2.3.2 1.6 1.8-.5.4q-3.2-3-9.2 2.9L32 7l-.2 1-1.6 1.5-3.6-.7q2-2.8 5.5-4.6L35 2.8zm-9.9 7.2 2.1 2.2-1.5 2.8q-1.3 3.4-.4 6.7l-1-.1-1.3-.2q-.7-6.7 2.1-11.4m12 3.2Q39 10.5 41 10l5-1.2 5.3-.2.2.1 1 .6.8-1L55 8l.3.2q-.1 2.3-2.6 3-3.1-.9-6.9 0l-.6 2.2-2 1zm2.5 3.2q-4 3.6-4.8 9.7l-1.3-1q1-6.5 2.8-10.3z"/><path fill="#f9e080" d="M41 2.2 38.4 2l-.8 1.2-2.1-.3H35l-3 1.3Q28.8 6 26.7 8.8l3.6.7-2.4 2.8-2.2-2.2 1-1.3-3-2.1 1-1.2L30.2 3 32 4l-.5-1.5 5.5-2h.3q1.9.3 3.7 1.7m-9 2-.1-.3zm4.2 6.7q1.7-1.8 4.4-2.6l.3-.1 3.2-.9.3.1q5.7.7 9.8-.2l.7.7-1.6.4-.7 1-1.1-.6-.2-.1-5.3.2-5 1.2q-2 .5-3.5 3.3h-.1zm1.2 2.4 5.8 1q-1.8.9-3.2 2.2l-3.4-1.6-2.5-.8-.5 1.2q-.6 2-.9 5l-.2 4 1.4 1q1-6.7 2.8-10.4zM22.7 9.8l2.9.3q-2.8 4.7-2.1 11.4H23l-.5-.1q-.8-2.5-.6-4.7l.5-2.3v-.1z"/><path fill="#f8d85a" d="m23.6 6.7 3 2-1 1.4-3-.3q.4-2 1-3.1m12.7 4.2 1.2 2.4-.7 1.6-2.6-.8q.8-1.8 2.1-3.2"/><path fill="none" stroke="#000" stroke-linecap="round" stroke-linejoin="round" stroke-opacity=".3" stroke-width="__RESOLUTION__" d="M35.5 2.9H35l-3 1.3Q28.8 6 26.7 8.8l-1 1.3q-2.8 4.7-2.1 11.4l1.4.2m12.6-8.4q1.6-2.8 3.6-3.3l5-1.2 5.3-.2.2.1M35.3 26.2l-1.3-1-1.4-.9m4.9-11-.7 1.6Q35 18.6 34 25.3m-11-3.8h.5" vector-effect="non-scaling-stroke"/><path fill="none" stroke="#000" stroke-linecap="round" stroke-linejoin="round" stroke-opacity=".3" stroke-width="1" d="M30.3 9.5 31.8 8l.2-1 1.2.5q6-6 9.2-2.9l.5-.4-1.6-1.8-.2-.2H41Q39.2.7 37.3.5H37l-5.6 2 .5 1.4-1.6-1-5.7 2.6-1 1.2q-.6 1.1-1 3.1l-.1 4.5q0 .2-.1.1l-.5 2.2m5.9-4.3 2.4-2.8M55 7.9l-.7-.7q-4.1.9-9.8.2h-.3l-3.2.8-.3.1q-2.7.8-4.4 2.6-1.3 1.3-2.1 3.2M55 8l.3.2q-.1 2.3-2.6 3-3.1-.9-6.9 0l-.6 2.2-2 1q-1.7.9-3.1 2.2m-13.9-1.4 1.6-2.8"/><path fill="none" stroke="#000" stroke-linecap="round" stroke-linejoin="round" stroke-opacity=".3" stroke-width="__RESOLUTION__" d="m31.9 3.9.2.3m8 12.3q-4 3.6-4.8 9.7m-2.7-1.9.3-4q.3-3 .9-5l.4-1.2" vector-effect="non-scaling-stroke"/><path fill="#d0ad33" d="M54 33.7h.1l.8-.3h.1q-1 2 2.3 3.6v.3l.1.1q-2.7 1.3-3.8-1.9v-.1q-.2-.6.4-1.7m4.5 8.4-.1.6q-2.1.1-1.7-2.6l.3-.2.8 1.7z"/><path fill="#f1d95c" d="M55 33.4q1.5.3 2.3 3.6-3.2-1.6-2.3-3.6m2.4 6.1q1.3 1.4 1.1 2.6l-.7-.5-.8-1.7z"/><path fill="#866020" d="m57.4 37.4.3 1.9-.3.3-.4.3-.3.3q-.9.5-1.6.6-1.3.2-2.4-1.1l-.7-1v-.1q.7-4 2-4.9-.6 1.1-.5 1.7l.1.1q1.1 3.1 3.8 2"/><path fill="#8d6623" d="m58.4 42.7-.1.1-.7.8-1.4-.1-1-2.2-.1-.5q.8 0 1.6-.6-.4 2.6 1.6 2.5"/><path fill="#79571e" d="m55.3 41.3-.1.6q-2.2-.9-2.5 2.6l-.2-.1q-.7-.5-1-1.2v-.7q0-1.2 1.2-2.8 1.1 1.3 2.4 1.1z"/><path fill="#b09228" d="M55.2 42q-.2 4-2.4 2.6l-.1-.1q.3-3.5 2.5-2.6"/><path fill="#8e7620" d="M51.6 43.2q-1.8 1-2.3-1.1V41q.9-.1 2.2 1.5z"/><path fill="#523a14" d="M49.4 41v-.2q.5-1.9 2.6-2l.7.9q-1.2 1.6-1.2 2.8-1.3-1.6-2.1-1.5"/><path fill="none" stroke="#000" stroke-linecap="round" stroke-linejoin="round" stroke-opacity=".3" stroke-width="1" d="M55 33.4q1.5.3 2.3 3.6m.1.4.3 1.9-.3.3q1.3 1.3 1.1 2.5m-.1.6-.1.1-.7.8-1.4-.1-1-2.2m0 .6q-.2 4-2.4 2.8v-.2h-.1l-.2-.1q-.7-.5-1-1.2-1.7 1-2.2-1.1h0V41"/><path fill="#f1d95c" d="M37.8 42.4v-.1q4.6-4.1 7 1.5l.3 1.4q-2 3-5.7.7-1.1-.4-1.5-1.9v-.2z"/><path fill="#866020" d="m45.1 45.2.3 1.3v.9l-.1 1-.1.1-.5 1.4-.4.8q-.2-1.2-1-1.4h-.5l-1 .3-.2.1-.1.1-1.8 1.4-.5 1.3h-.5l.1-1.2q-.1-1-1.1-1.2h-.2l-.9-1.8.5-3.1.8-1.2q.4 1.5 1.5 2 3.7 2.3 5.7-.9"/><path fill="#f5e38a" d="M45.4 46.6q1.9.3 2.5 1l-1 .2-1.5-.4zm-1 4.1.1 1.6-.1 1.2-1.4-1.9.3-2.2q.8.2 1 1.4"/><path fill="#dec670" d="m47.9 47.7.1.7-1.6.5-1.2-.4.1-1.1 1.6.4zm-3.5 5.7-.2.6-1.2.2-1.1-1.8-.1-1.7 1-1.4h.5l-.3 2.3z"/><path fill="#76551d" d="M48 48.4q-.1.5-.8 1.2l-.1.1q-1.1.8-2.4.2l.5-1.4 1.2.4zM44.2 54q-.8 2-3 .4v-.1q-.8-1-1-1.8-.2-1.5 1.3-2.7l.1-.1.1-.1 1-.3-.9 1.4v1.7l1.2 1.8zm-8.4-3.7q-1.6-3.5 2-7.9l.1 1.4v.3l-.8 1.1-.5 3.1.9 1.8h-.3z"/><path fill="#604517" d="M40.2 52.5h-1l.5-1.4 1.8-1.3Q40 51 40.2 52.4m-1.5.1q-.2.8-.8 1.3l-.5.2-.4-1.5-1-1.2-1.3-.1 1.1-.9 1.4-.2h.5q1 .1 1.1 1.2z"/><path fill="#d0ad33" d="M37.4 54q-.8.3-2.1 0-2.5-.4-.5-2.8l1.3.1 1 1.2z"/><path fill="none" stroke="#000" stroke-linecap="round" stroke-linejoin="round" stroke-opacity=".3" stroke-width="1" d="m45.1 45.2.3 1.3q1.9.4 2.5 1.1m.1.8q-.1.5-.8 1.2l-.1.1q-1.1.8-2.4.2m-.4.8.3 1.5-.2 1.2m-.2.6q-.8 2-3 .4v-.1q-.8-1-1-1.8h0-1m-.5 0q-.2.8-.8 1.3l-.5.2h-.1q-.8.3-2.1 0h0q-2.5-.4-.5-2.8m1.1-.9q-1.6-3.5 2-7.9"/><path fill="#f6eaa0" d="M54.6 24.8h.1l1.6-1.1.6.7v.3l-.4 3.3q-1.5 11.3-6.2 6v-1.5l2-.2 2.3-2.6-1.9-.9q-1.9 1-2.5 3.5l-.5-2.8-.1-.2q.4-2.3 3-3.6zm-1 7.3-1.4.2zm.6-4-1.5.6z"/><path fill="#f9e080" d="m52.8 28.8 1.8.8-2.4 2.7-2 .2v-.2q.6-2.4 2.5-3.5"/><path fill="none" stroke="#000" stroke-linecap="round" stroke-linejoin="round" stroke-opacity=".3" stroke-width="1" d="M54.6 24.8h.1l1.6-1.1.6.7v.3l-.4 3.3"/><path fill="none" stroke="#000" stroke-linecap="round" stroke-linejoin="round" stroke-opacity=".3" stroke-width="__RESOLUTION__" d="M50.3 32.5h-.1v-.2l-.5-2.8m3-.7q-1.9 1-2.5 3.5v.2l2-.2 1.4-.1m-.9-3.4 1.5-.6" vector-effect="non-scaling-stroke"/><path fill="#fcf3d8" d="m13.6 24.7 2.3 7 6.5.6-5.7 1.8.8 5.6-3-6.2-4.8-.2 5.1-1z"/><path fill="url(#a)" d="M-18.5-22q-1.6-1.7-1.6-4 0-2.4 1.6-4t4-1.7 4 1.6 1.7 4-1.7 4-4 1.7-4-1.7" transform="translate(29.85 59.55)"/><path fill="url(#b)" d="M9-14q-1.5-1.5-1.5-3.6t1.4-3.5q1.5-1.5 3.7-1.5 2 0 3.5 1.5 1.4 1.4 1.4 3.5T16.2-14t-3.6 1.4T9-14" transform="translate(29.85 59.55)"/><path fill="url(#c)" d="M6.2-36.3q3 1.8 2.6 3t-3.8 1-8-1.6-7.6-3.1-2.7-3 3.9-1 8 1.5 7.6 3.1" transform="translate(29.85 59.55)"/></g></defs><g clip-path="url(#d)"><use xlink:href="#e" width="59" height="75.1" transform="translate(1 1)"/></g></svg>