<svg xmlns="http://www.w3.org/2000/svg" xmlns:xlink="http://www.w3.org/1999/xlink" width="100" height="60" viewBox="0 0 100 60"><defs><g id="c"><path fill="#fff" fill-opacity=".1" d="m17.9 22.4-2.7-1.6 3.5.6q2.2-2.6 5.6-4.7 9.2-5.9 22.2-5.8 13 0 22.3 5.7 8.4 5.4 9.1 12.7L88.5 31 78 32q-.2 1.9-.9 3.7l12.8 2.4-14.7 1q-2.2 3-6.3 5.5-9.2 5.9-22.2 5.9t-22.3-5.9Q20 42 17.8 38.8l1.9-1.2-17.3-3.2 12.8-2.5v-2l.2-1.7-5.8-3.6 6.6 1 1.4-2.6z"/><path fill="#fff" fill-opacity=".1" d="m82.2 24.8 7.5-1.1-6.6 4 .3 2v2.1l14.3 2.8-19.4 3.6 2.1 1.3q-2.6 3.6-7.4 6.7-10.2 6.5-24.7 6.5t-24.8-6.5q-4.6-2.9-7-6.2L0 38.9l14.3-2.7q-.9-2-1-4.2l-12-1 11.9-1.8Q13.9 21 23.3 15q10.4-6.5 24.9-6.4T73.1 15q3.8 2.3 6.3 5.2l3.8-.6-3 1.7.5.6z"/><path fill="#b0ab84" d="m34.2 21.8-.5 3.3q-1.8 12-.8 22.7l-1.1-.7q-.2-9.9.5-22.6l.2-3.5zm-3.4 8.6-.2-6.5-.3-3.9 1 .4.1 3.8q0 4-.6 6.2"/><path fill="#979162" d="m31.8 47.1-.8-.5V36l-.2-5.6q.6-2.2.6-6.2l-.2-3.7 1.3.5-.2 3.5q-.6 12.8-.5 22.6"/><path fill="none" stroke="#f5f5f1" stroke-linecap="round" stroke-linejoin="round" stroke-width="__RESOLUTION__" d="m34.2 21.8-.5 3.3q-1.8 12-.8 22.7" vector-effect="non-scaling-stroke"/><path fill="none" stroke="#000" stroke-linecap="round" stroke-linejoin="round" stroke-opacity=".3" stroke-width="__RESOLUTION__" d="m32.9 47.8-1.1-.7-.8-.5V36m-.2-5.6-.2-6.5-.3-3.9 1 .4 1.2.6 1.7.8" vector-effect="non-scaling-stroke"/><path fill="#b0ab84" d="M59.9 30.8q-.6-2.3-.6-6.2l.2-3.8.8-.4-.1 3.9zm-1.6-9.4.2 3.6q.6 12.6.5 22.5l-1.1.6q.1-6-.5-15.2l-.8-10.6z"/><path fill="#979162" d="m59.5 20.8-.2 3.8q0 4 .5 6.2l.5 7q.4 4.2-.6 9.3l-.8.4q.1-9.9-.5-22.5l-.2-3.6z"/><path fill="none" stroke="#000" stroke-linecap="round" stroke-linejoin="round" stroke-opacity=".3" stroke-width="__RESOLUTION__" d="m59.9 30.8.3-6.5.1-3.9-.8.4-1.3.6-1.7.9m2.4 25.2.8-.5q1-5 .6-9.2m-2.5 10.4 1.1-.7" vector-effect="non-scaling-stroke"/><path fill="none" stroke="#f5f5f1" stroke-linecap="round" stroke-linejoin="round" stroke-width="__RESOLUTION__" d="m56.5 22.3.8 10.6q.6 9.1.5 15.3" vector-effect="non-scaling-stroke"/><path fill="#454628" d="m57.7 6.5 8.3 4.3Q52 18 38.7 21.3l-6.3-3.2q24-3.8 25.4-11.6m-27 1.3L45.4.3l6.7 3.4q-9.8 4.7-21.3 4.1"/><path fill="#4f502e" d="M57.7 6.5q-1.4 7.8-25.4 11.6l-10.7-5.5 9.2-4.8q11.5.6 21.3-4.1zM38.5 21.3Q52 17.9 66.2 10.8l3.5 1.8v.1L45.8 25z"/><path fill="#575832" d="m32.3 18.2 6.3 3.1 7.1 3.7v3L21.6 15.7v-3.1z"/><path fill="#444527" d="M69.6 12.7v3L45.8 28v-3z"/><path fill="none" stroke="#000" stroke-linecap="round" stroke-linejoin="round" stroke-opacity=".3" stroke-width="__RESOLUTION__" d="m66 10.8-8.3-4.3-5.6-2.8L45.4.3 30.9 7.8l-9.4 4.8v3.1m44.6-4.9 3.5 1.8h0v3.1m0-3" vector-effect="non-scaling-stroke"/><path fill="none" stroke="#d7d8bb" stroke-linecap="round" stroke-linejoin="round" stroke-width="__RESOLUTION__" d="M69.6 15.7 45.8 28 21.6 15.7" vector-effect="non-scaling-stroke"/><path fill="#536266" d="m53.6 6.5 8.2 4.3-6 3.1-8.5-4.8zm-24.2 4.3 7.9-4.1 4.3 4.8-3.6 3.6z"/><path fill="#3d484b" d="M61.9 10.8v2.1l-16.1 8.2v-2l10-5.2z"/><path fill="#697d83" d="m45.8 21.2-16.3-8.4v-2L38 15l7.8 4z"/><path fill="#5f7074" d="m37.3 6.7 8.3-4.3 8 4.1-6.4 2.6-5.7 2.4z"/><path fill="#59686c" d="m47.3 9.1 8.5 4.9-10 5.1-7.8-4 3.5-3.6z"/><path fill="none" stroke="#000" stroke-linecap="round" stroke-linejoin="round" stroke-opacity=".3" stroke-width="__RESOLUTION__" d="m53.6 6.5 8.2 4.3h.1v2.1m-32.4 0v-2.2l7.8-4 8.3-4.3 8 4.1m8.2 4.3" vector-effect="non-scaling-stroke"/><path fill="#000" fill-opacity=".3" d="m48.4 5.5 1 .9q-.8-.5-.5.3-1.6-.5.4 1.8-1.6-1.3-3.4-1.7l1.5-.2q.8-.3 1-.9z"/><path fill="#687a80" d="M46 6.8h-.7q-.9-.2-1.4-.6-.6-.6-.4-1.2t1-1l1.8-.2q1 .1 1.6.7.5.4.5 1v.2q-.2.6-1 1zm1.8-.8v-.7l-3.4-.2-.1.3q2.2 0 3.4.6"/><path fill="#546367" d="m44.2 5.4.1-.3 3.4.2V6q-1.3-.6-3.5-.6"/><path fill="none" stroke="#3f4a4e" stroke-linecap="round" stroke-linejoin="round" stroke-width="__RESOLUTION__" d="M46 6.8h-.5m-.2 0q-.9-.2-1.4-.6-.6-.6-.4-1.2t1-1l1.8-.2q1 .1 1.6.7.5.4.5 1v.2q-.2.6-1 1l-1.5.1m-.5 0h-.1" vector-effect="non-scaling-stroke"/><path fill="none" stroke="#3f4a4e" stroke-linecap="round" stroke-linejoin="round" stroke-width="__RESOLUTION__" d="m44.2 5.4.1-.3 3.4.2V6" vector-effect="non-scaling-stroke"/><path fill="#687a80" d="M44.8 17.7q-.9-.2-1.4-.7-.6-.5-.4-1.2t1-.9l1.8-.2q1 .1 1.6.6.5.5.5 1.1v.1q-.2.7-1 1l-1.5.2zm2.4-.9v-.6l-3.4-.2-.1.3z"/><path fill="#000" fill-opacity=".3" d="m47.9 16.4 1 .9q-.8-.5-.5.2-1.6-.4.4 1.8-1.6-1.3-3.4-1.6l1.5-.2q.8-.3 1-1z"/><path fill="#546367" d="m43.7 16.3.1-.4 3.4.3v.6z"/><path fill="none" stroke="#3f4a4e" stroke-linecap="round" stroke-linejoin="round" stroke-width="__RESOLUTION__" d="M44.8 17.7q-.9-.2-1.4-.7-.6-.5-.4-1.2t1-.9l1.8-.2q1 .1 1.6.6.5.5.5 1.1v.1q-.2.7-1 1l-1.5.2H45m0 0h-.2" vector-effect="non-scaling-stroke"/><path fill="none" stroke="#3f4a4e" stroke-linecap="round" stroke-linejoin="round" stroke-width="__RESOLUTION__" d="m43.7 16.3.1-.4 3.4.3v.6" vector-effect="non-scaling-stroke"/><path fill="#000" fill-opacity=".3" d="m59.6 13.8 2 .2.1 1.7-1.4.6v1.2l-.1.1-4 1.7 1.6-2.2V16l.9-.3zm-8.4.8q-3.2-3.5-8-5.1-2.8-1-6-1.2l-.1-.1 2.6-.6 4.4 1q3.1 1 5.2 2.9zm-17.8-6-1.5 1-.2-2 .3.2z"/><path fill="#9b9564" d="m56.2 19.3-2.3-.1-1.9-1.6-.7-2.7-.1-.4-1.9-3.1Q47.4 9 44.9 8q-2.4-.9-5.2-.4l-2.6.6h-2.2l-.4.1-1 .2-.1.1-1.4-.8 3.1-1.4h4.4q3.5-.3 6.3.9 2.3 1 3.9 3.1l.1.2 2.5 4.4 1.5 1.5h2.4l.8-1.8-.7-.4 2.1-1.1.4-1.2.5.1.4 1.5-.1.2-.9 1.8-.9.3v1.2zM35.8 2.1l1.7 1 1 1.7L37 5zm22 13.8-.6-1-.3-.2.3.2z"/><path fill="#b0ab84" d="m31.7 7.6-.2-.2-.2-.1-.2-2.7 2-1 .7.1.4-1.3 1.6-.4v.1L37 4.9h1.6l.5-.2q2.9-.4 5.4 0 1.6.3 3.2 1 4 1.9 6.8 6.4l2.6-.7 1.7.6-.3 1.2-2 1.1.6.4-.9 1.8h-2.4L52.4 15l-2.5-4.3-.1-.2q-1.7-2-4-3.1-2.7-1.2-6.2-1l-4.4.1-3 1.3zM36 4.8l-1.6-1-.6-.1.6.1zm14 3.5q-1-1.4-3-2.2l-2.6-1.3L47 6h.1q2 .8 2.8 2.2M47 6.1l-.2.7-.2-.2q-2.3-1-5.2-1.2 3 .2 5.1 1.2l.3.2zm-.2.7q1.1.4 2.1 1.5-1-1.1-2-1.5"/><path fill="none" stroke="#000" stroke-linecap="round" stroke-linejoin="round" stroke-opacity=".3" stroke-width="__RESOLUTION__" d="m56.2 19.3-2.3-.1-1.9-1.6-.7-2.7M37.1 8.1h-2.2l-.4.1m-1 .2-.1.1-1.4-.8-.3-.2m-.2-.2-.2-.1-.2-2.7 2-1 .7.1.4-1.3 1.6-.4V2l1.7 1 1 1.7m.5 0q2.9-.5 5.4 0 1.6.2 3.2 1 4 1.8 6.8 6.3l2.6-.7 1.7.6m0 0 .5.1.5 1.5-.1.2-.9 1.8-.9.3V17l-1.6 2.2m-5-4.7-1.9-3.1Q47.4 9 44.9 8q-2.4-.9-5.2-.4l-2.6.6M57 14.7l-.7-.4m.7.4.3.2.5 1m-24-12.2.6.1 1.6 1m8.4 0L47 6h.1q2 .8 2.8 2.2m-8.5-2.9q3 .2 5.1 1.2l.3.2.2-.7m1.9 2.2q-1-1.1-2-1.5" vector-effect="non-scaling-stroke"/></g><g id="b"><path fill="#f7f7f2" fill-opacity=".8" d="M14.1 6.5q-.1-2.1-1.8-3.2-1.8-1.3-4-.9T4.6 4.7Q3.1 6.4 3.3 8.5q.1 2.2 1.8 3.4t4 .7q2.2-.4 3.7-2.2 1.4-1.8 1.3-4m2.5.7q.3 3-1.7 5.4t-5.1 3q-3 .7-5.4-1T1.8 9.9t1.9-5.2 5-3.1q3-.5 5.4 1.2 2.3 1.5 2.5 4.4"/><path fill="#fbfbf9" fill-opacity=".8" d="M14.1 6.5q.2 2.1-1.3 3.9t-3.7 2.2-4-.7-1.8-3.4q-.2-2 1.3-3.8t3.7-2.3 4 .9Q14 4.4 14 6.4"/><path fill="#fbfbf9" fill-opacity=".4" d="M19.1 7.3q.3 3.7-2.2 6.9-2.6 3.2-6.6 3.9-4 .8-6.9-1.3-3-2.2-3.3-5.9-.4-3.6 2.3-6.8T9 .1q3.9-.6 6.9 1.5 3 2 3.2 5.7m-2.5-.2q-.2-2.7-2.5-4.3Q11.8 1 8.7 1.6q-3 .6-5 3.1-2.1 2.4-1.8 5.2.1 3 2.5 4.6 2.3 1.7 5.4 1 3-.5 5-3 2-2.4 1.8-5.4"/></g><g id="a"><path fill="#b0ab84" d="m49 2-.5 3.3q-1.7 11.9-.7 22.6l-1.1-.6q-.2-9.9.4-22.6l.2-3.5zm-3.4 8.6L45.4 4 45.2.2l.9.4.1 3.8q.1 3.9-.5 6.2"/><path fill="#979162" d="m46.7 27.3-.9-.5V16.2l-.1-5.6q.6-2.3.5-6.2V.6l1.2.6-.1 3.5q-.7 12.7-.6 22.5"/><path fill="none" stroke="#f5f5f1" stroke-linecap="round" stroke-linejoin="round" stroke-width="__RESOLUTION__" d="m49 2-.5 3.3q-1.7 11.9-.7 22.6" vector-effect="non-scaling-stroke"/><path fill="none" stroke="#000" stroke-linecap="round" stroke-linejoin="round" stroke-opacity=".3" stroke-width="__RESOLUTION__" d="m47.8 27.9-1.1-.6-.9-.5V16.2m-.1-5.6L45.4 4 45.2.2l.9.4 1.2.6 1.8.8" vector-effect="non-scaling-stroke"/><path fill="#444527" d="M59.8 33.5v3l-7.8 4-2.3-1.8zm-11.9 9.2L36 48.8v-3l10.4-5.4zm-27-1.6h-.1l-3-1.6 2.8-1.6 2 1h.1z"/><path fill="#2d2d1a" d="m52 40.6-4.2 2-1.5-2.2 3.4-1.7z"/><path fill="#575832" d="m35.9 48.8-15-7.7 1.7-2.1 6.1 3 7.2 3.8zm-18.2-9.3-6-3v-3.1l8.8 4.5z"/><path fill="#4f502e" d="m11.7 33.4 9.3-4.8q11.4.6 21.3-4.1l5.5 2.8Q46.6 35 23 38.8h-.4l-.1.1-2-1zm44.5-1.8 3.5 1.8-10 5.3-3.4 1.7L36 45.8 28.7 42q13.4-3.4 27.5-10.5"/><path fill="#454628" d="M21 28.6 35.5 21l6.8 3.5q-9.9 4.7-21.3 4m26.8-1.2 8.4 4.3q-14.1 7-27.5 10.4l-6.1-3-.1-.1h.1l.3-.1q23.6-3.7 25-11.5"/><path fill="none" stroke="#000" stroke-linecap="round" stroke-linejoin="round" stroke-opacity=".3" stroke-width="__RESOLUTION__" d="M59.8 33.4v3.1l-7.8 4-4.2 2.2L36 48.8l-15-7.7h-.2l-3-1.6-6-3v-3.1l9.3-4.8L35.5 21l6.8 3.5 5.5 2.8 8.4 4.3z" vector-effect="non-scaling-stroke"/><path fill="#687a80" d="m52.5 34.2-1.3-.7q-.7-.5-.5-1.1t1-1l1.8-.2q1 .1 1.7.7.5.4.4 1v.1q-.1.7-1 1l-1.4.2zm2.4-.9v-.6l-3.4-.2v.3q2.2 0 3.4.6"/><path fill="#000" fill-opacity=".3" d="m55.7 32.9.9.9q-.8-.5-.5.3-1.6-.5.4 1.8-1.6-1.4-3.3-1.7l1.4-.2q.9-.3 1-1z"/><path fill="#546367" d="M51.5 32.8v-.3l3.5.2-.1.6q-1.2-.5-3.4-.5"/><path fill="none" stroke="#3f4a4e" stroke-linecap="round" stroke-linejoin="round" stroke-width="__RESOLUTION__" d="m52.5 34.2-1.3-.7q-.7-.5-.5-1.1t1-1l1.8-.2q1 .1 1.7.7.5.4.4 1v.1q-.1.7-1 1l-1.4.2h-.4m-.1 0h-.2" vector-effect="non-scaling-stroke"/><path fill="none" stroke="#3f4a4e" stroke-linecap="round" stroke-linejoin="round" stroke-width="__RESOLUTION__" d="M51.5 32.8v-.3l3.5.2-.1.6" vector-effect="non-scaling-stroke"/><path fill="#000" fill-opacity=".3" d="m37.8 41.9.9.8q-.8-.5-.5.3-1.6-.5.4 1.8-1.6-1.3-3.3-1.6l1.5-.2q.8-.3.9-1z"/><path fill="#687a80" d="M35.3 43.2h-.5l-.2-.1q-.9-.1-1.3-.6-.6-.5-.4-1.2 0-.6.9-1l1.9-.1q1 0 1.6.6.5.5.5 1l-.1.2q-.2.7-1 1zm1.7-.9v-.6l-3.4-.3v.4q2.2-.1 3.4.5"/><path fill="#546367" d="M33.6 41.8v-.4l3.4.3v.6q-1.2-.6-3.5-.5"/><path fill="none" stroke="#3f4a4e" stroke-linecap="round" stroke-linejoin="round" stroke-width="__RESOLUTION__" d="M35.3 43.2h-.4m-.3-.1q-.9-.1-1.3-.6-.6-.5-.4-1.2 0-.6.9-1l1.9-.1q1 0 1.6.6.5.5.5 1l-.1.2q-.2.7-1 1l-1.4.2m-.5 0-.2-.1" vector-effect="non-scaling-stroke"/><path fill="none" stroke="#3f4a4e" stroke-linecap="round" stroke-linejoin="round" stroke-width="__RESOLUTION__" d="M33.6 41.8v-.4l3.4.3v.6" vector-effect="non-scaling-stroke"/><path fill="#2f301b" fill-opacity=".3" d="m18.3 34.3 1.4-.3q.6-.3.6-.8t-.5-.7-1.4-.4l-1.4.3q-.7.3-.7.8t.6.7zm2.5-2.4q1 .5.5 1.2l-1 1.3q-.7.5-2 .5t-2.2-.5-.8-1.2q.3-.7 1-1.3.8-.6 2.2-.5 1.3 0 2.3.5"/><path fill="#2f301b" d="m18.3 34.3-1.4-.4q-.6-.3-.6-.7 0-.5.6-.8l1.5-.3q.9 0 1.4.4.5.3.5.7 0 .5-.6.8z"/><path fill="#fff" fill-opacity=".3" d="M57.7 13.9h-.2l.3.5L59 17l5.3-1-4.7 3.6.1 1.8v2L70 25.8 56.2 29l1.5 1.3q-1.9 3.2-5.4 5.9Q45 42 34.6 42t-17.8-5.8q-3.3-2.6-5-5.6L0 29.6l10.3-2.4-.8-3.7-8.5-1 8.5-1.6q.5-7.4 7.3-12.7 7.4-5.8 17.8-5.8t17.7 5.8q2.9 2.2 4.6 4.7l2.8-.5z"/><path fill="#000" fill-opacity=".3" d="m38.4 24.1 1 .9q-.8-.5-.5.3-1.6-.5.4 1.8-1.6-1.4-3.4-1.7l1.5-.2q.8-.3 1-1z"/><path fill="#687a80" d="M36 25.4h-.7q-.9-.2-1.4-.6-.6-.6-.4-1.2t1-1l1.8-.2q1 .1 1.6.7.5.4.5 1v.1q-.2.7-1 1zm1.8-.8v-.7l-3.4-.2-.1.3q2.2 0 3.4.6"/><path fill="#546367" d="m34.2 24 .1-.3 3.4.2v.7q-1.3-.6-3.5-.6"/><path fill="none" stroke="#3f4a4e" stroke-linecap="round" stroke-linejoin="round" stroke-width="__RESOLUTION__" d="M36 25.4h-.5m-.2 0q-.9-.2-1.4-.6-.6-.6-.4-1.2t1-1l1.8-.2q1 .1 1.6.7.5.4.5 1v.1q-.2.7-1 1l-1.5.2m-.5 0h-.1" vector-effect="non-scaling-stroke"/><path fill="none" stroke="#3f4a4e" stroke-linecap="round" stroke-linejoin="round" stroke-width="__RESOLUTION__" d="m34.2 24 .1-.3 3.4.2v.7" vector-effect="non-scaling-stroke"/><path fill="#cacba5" d="M43.9 8 46 9.8q4.7 4.7 4.7 11.3T46 32.3Q41.4 37 34.8 37t-11.3-4.7l-2.2-2.5q21 8.2 25.1-7.4Q48.5 15 43.9 8"/><path fill="#e7e9c7" fill-opacity=".8" d="M21.3 29.8q-2.5-3.9-2.5-8.7 0-6.6 4.6-11.3Q28.3 5 34.9 5 40 5 44 7.9q4.6 7 2.5 14.4-4.1 15.7-25 7.4"/><path fill="none" stroke="#fbfbf9" stroke-linecap="round" stroke-linejoin="round" stroke-width="__RESOLUTION__" d="M43.9 8 46 9.8q4.7 4.7 4.7 11.3T46 32.3Q41.4 37 34.8 37t-11.3-4.7l-2.2-2.5q-2.5-3.9-2.5-8.7 0-6.6 4.6-11.3Q28.3 5 34.9 5 40 5 44 7.9" vector-effect="non-scaling-stroke"/><path fill="#dcc5ad" d="M39.2 22.3q.3-.8 1-1.4t1.4-.5 1 .7 0 1.4q-.4.9-1.1 1.5t-1.4.5-1-.6q-.2-.7.1-1.6m2.2 8.2q-.6 1.6-2 2.7-1.3 1-2.6.9T35 32.9t.1-2.8 2-2.6q1.3-1.1 2.6-1 1.3 0 1.8 1.3.5 1.2-.1 2.7"/></g><g id="e" transform="translate(48.8 28.65)"><use xlink:href="#a" width="70" height="49" transform="translate(-38.15 -20.35)"/><use xlink:href="#b" width="19.1" height="18.3" transform="translate(-18.3 -13.5)"/><use xlink:href="#c" width="97.7" height="52.7" transform="translate(-48.8 -28.65)"/></g><clipPath id="d"><path d="M1 1h98v58H1z"/></clipPath></defs><g clip-path="url(#d)"><use xlink:href="#e" width="97.7" height="57.4" transform="translate(1 1)"/></g></svg>