<svg xmlns="http://www.w3.org/2000/svg" xmlns:xlink="http://www.w3.org/1999/xlink" width="30" height="35" viewBox="0 0 30 35"><defs><clipPath id="a"><path d="M1 1h28v33H1z"/></clipPath><g id="b"><path fill="#f3fafc" d="m.4 9.9.3-1.8L13 3.4l1.6 1.7-1.5-1-12.5 5z"/><path fill="#c9e7f1" d="m14.7 5.1 2 5.2-1.1.4-1.8-5-1.2-.5L.5 10v-.1l.3-.8 12.5-5zm3.2 8.2L22.1 24l-.6 1.8-4.7-12.1zM15.3 12l1.8 4.7q1 3.3-1.4 3.6-1 .1-1.5-1.3l-.9-2.9-1-1.3-1-1.4-2-1.5L8 10.7q-.3-1.1.2-2.3.6-1.5 2.1-1.7 1.9-.2 2.9 1.2zm.7 9.4 1 .1.8.7q.1.6-.1 1l-.7.8q-.6.2-1.1 0t-.7-.8 0-1z"/><path fill="#61b7d8" d="m16.7 10.3 1.2 3-1.1.4 4.7 12.1-12.2 4.7-1.5-.6L.3 10.3V10l12.4-4.8 1 .5 1.9 5zM15.3 12l-2.1-4.1q-1-1.4-2.9-1.2-1.5.2-2.1 1.7-.5 1.2-.2 2.3L9.2 12l2.2 1.5 1 1.4.9 1.3.8 2.9q.6 1.4 1.6 1.3 2.4-.3 1.4-3.6zm.7 9.3-.8.8q-.2.4 0 1t.7.8 1 0l.8-.7q.2-.5 0-1.1l-.7-.7zm4.5 3.5L8.6 29.5l.8.4L20 25.7z"/><path fill="#329fc9" d="m20.5 24.8-.4.9-10.7 4.2-.8-.4z"/><path fill="#f3fafc" d="m3.6 18.8-1.2-3 1.4-.5.4-1.3q.7-1.7 2.4-2.4 1.8-.7 3.5 0l1.2.8 5.4-2.1 1.2 3-5.1 2q.1 1.1-.4 2.3-.8 1.6-2.5 2.4-1.8.7-3.5-.1-1.2-.5-1.8-1.5z"/><path fill="none" stroke="#000" stroke-linecap="round" stroke-linejoin="round" stroke-opacity=".1" stroke-width="__RESOLUTION__" d="M17.9 13.3 22.1 24l-.6 1.8-12.2 4.7-1.5-.6-4.2-11.1-1.2-3-2.1-5.5m3.3 8.5 1-.4q.6 1 1.8 1.5 1.7.8 3.5 0 1.7-.6 2.5-2.3.5-1.2.3-2.3l5.2-2-1.2-3-5.4 2.1-1.2-.8q-1.7-.7-3.5 0-1.7.7-2.4 2.4l-.4 1.3-1.4.6M14.7 5l2 5.2" vector-effect="non-scaling-stroke"/><path fill="none" stroke="#000" stroke-linecap="round" stroke-linejoin="round" stroke-opacity=".3" stroke-width="__RESOLUTION__" d="m6.3 16.5-2.5 1.1M8 17l-.1 2.4m.6-5.3 1-2.5m-3.1 2.7L5 13.7M9.3 16l2 1.3" vector-effect="non-scaling-stroke"/><path fill="#c9e7f1" d="m6.9.5.6-.3 1.6 4.3-1 .4Q6.7 6 4.4 6.4l-1 .3-.2-.8q3-.3 5-2z"/><path fill="#61b7d8" d="M8.1 4.9q-.2.6.3.7-1.7 1.3-3.7 1.5.2-.4-.3-.7Q6.7 6 8 4.9"/><path fill="#f3fafc" d="M3.2 5.9 1.8 2.5l5.1-2L8.2 4q-2 1.6-5 1.9"/><path fill="none" stroke="#000" stroke-linecap="round" stroke-linejoin="round" stroke-opacity=".3" stroke-width="__RESOLUTION__" d="m6.9.5.6-.3 1.6 4.3-1 .4q-.2.6.3.7M4.7 7.1q.2-.4-.3-.7l-1 .3-.2-.8-1.4-3.4 5.1-2" vector-effect="non-scaling-stroke"/><path fill="#c6e7f0" d="m4.4.9 2-.7 1 .2-.7.6-2 1-2 .5-.9-.1.7-.7z"/><path fill="#ffe18b" d="M9.9 30.9q-4.2-1-9.9 1.5 8-10 18.9-6.3.9-4 4.7-2.1l.3.2.4.3q4.9-1 3.1 2.9l-3.8-1.2q-1.7-.2-3.4 2-2-1-6.2-1.1h-.3q-2.7.4-3.8 3.8"/><path fill="#ffd148" d="m27.4 27.4-.1.2q-3.2-1.8-5.8 1.6l-.6.7-.3-.1Q16 28.4 12.9 32q-1.4-.8-3-1.1 1-3.4 3.8-3.7l.3-.1q4.2.1 6.2 1.1 1.7-2.2 3.4-2z"/><path fill="#000" fill-opacity=".3" d="M11.8 25h.4v.4h-.4zm3.8.1.1.2-.1.2h-.3l-.1-.2v-.2zm5.3-1.8.1.2-.1.2h-.3l-.1-.2v-.2zm2.8.7.2-.1h.1l.1.3-.1.1-.1.1-.2-.1-.1-.1zm3.9.4.1.2-.1.1-.1.1-.2-.1-.1-.1v-.2l.3-.1zm-.4 3.1h.3l.2.2-.2.1-.1.2-.2-.1zM18.7 26h.4v.3l-.2.2-.2-.1zm-10-.2h.2v.4h-.4v-.4zm-3.4 1.7v-.2h.4v.4h-.4zm-2.7 1.9h.3l.1.2-.1.2h-.3l-.1-.2zM.2 31.8h.4v.3l-.2.1H.1z"/></g></defs><g clip-path="url(#a)"><use xlink:href="#b" width="27.9" height="32.4" transform="translate(1 1)"/></g></svg>