<svg xmlns="http://www.w3.org/2000/svg" xmlns:xlink="http://www.w3.org/1999/xlink" width="69" height="63" viewBox="0 0 69 63"><defs><g id="d"><path fill="#cbbf85" d="m5.4 20.3-1.6-2.7-3.4 1 2.1-2.4-2.5-5 4.3 3 3.1-2.7-1 3.5 4.1 2.8-5-.4z"/><path fill="none" stroke="#e5e3d6" stroke-linecap="round" stroke-linejoin="round" stroke-width="__RESOLUTION__" d="m5.4 20.3-1.6-2.7-3.4 1 2.1-2.4-2.5-5 4.3 3 3.1-2.7-1 3.5 4.1 2.8-5-.4z" vector-effect="non-scaling-stroke"/><path fill="#cbbf85" d="m17.8 3.4-.6-1-1.2.4.7-1-1-1.8 1.6 1.1 1.3-1-.4 1.3 1.6 1.1-2-.2z"/><path fill="none" stroke="#e5e3d6" stroke-linecap="round" stroke-linejoin="round" stroke-width="__RESOLUTION__" d="m17.8 3.4-.6-1-1.2.4.7-1-1-1.8 1.6 1.1 1.3-1-.4 1.3 1.6 1.1-2-.2z" vector-effect="non-scaling-stroke"/><path fill="#cbbf85" d="m11.8 7 1.4 3.2-3-2.1-1 1.8V7.7L6.6 7l2.1-.7.2-4 1.7 3.3 3-.5z"/><path fill="none" stroke="#e5e3d6" stroke-linecap="round" stroke-linejoin="round" stroke-width="__RESOLUTION__" d="m11.8 7 1.4 3.2-3-2.1-1 1.8V7.7L6.6 7l2.1-.7.2-4 1.7 3.3 3-.5z" vector-effect="non-scaling-stroke"/></g><g id="c"><path fill="#b1aa8e" d="m20.8 6.5.8-.6 4.1 8.9h-.6q-2.6-6.2-4.8-7h-1.5zm2 8.3h-1v-.1zM8.4 9.7l.7.8.3.3-.9.5L6 9.5l-1.3-2 .9.1.8.2 1.1 1.1zm1.6 1.7h.4l.5.1 2.3 2.3zm4.6 3.7 1.3-3.4q0 1.5 3.1 2.5l-.2.2v.3l-2.4.3z"/><path fill="#7e6124" d="m20.8 6.5-2 1.3-.8.5-5.2 3.4-1.9-.2-.5-.1H10v-.1l-.6-.5-.3-.3 2.6-.5-.3-.9-1.3-3 1.3-.2 3.7-.7 1.2 3-3.6.7-1.2-3L11 5l3.7-.6.4.8 1.2-.2-.4-.8 3.7-.6-1-2.2L16.7.2 2.1 2l-.2.1 1.9 5.1H4l.7.3.9.1-.2-.6 1.2-.3 3.5-.6-.2-.9-1.2-3.1 1.2-.2L11 5l-1.2.2-3.5.5.3 1 .9 2.2.9.8 3-.6 1.3-.2.3.7 3.7-.7-.4-.7 1.3-.2-1.4-3 3.6-.6zm-6.1-2 1.3-.2-1.4-3-1.2.3zm-11-1.7L4.9 6l1.4-.2L5 2.6z"/><path fill="#918c67" d="M18.8 7.8h1.5q2.2.8 4.8 7h-2.3l-1-.1v.2h-2.3l-.7-.3v-.3l.2-.2q-3.1-1-3-2.5L14.6 15v.1l-.3.6-.1.1v.1l-.1.2-.9.7-.3-.4-4-3.5-1.5.5-2-1.7-.5-.2-1.5.3-3.2.8 2.4-3.3 1.2-2 .2-.1.7.3 1.3 2 2.5 1.8 1-.5.4.5h.1l3.3 2.5-2.4-2.3 1.9.2L18 8.4z"/><path fill="#844e29" d="m24.6 14.8.7 1.5h-3l-.7-.7.1-.2.1-.6zm-10 1-.2.1h-.2v-.2l.4-.6V15h1.8-.1l-.7.3zm-9.1-4 1.9 1.8 1.4-.6 4 3.5-.5 1.2h-1.2l-.2.1-3-3.2-1.5-.2z"/><path fill="#ad6d46" d="m25.3 16.3 2.1 5-.4.1-15.6 6.9v-.2l-5-13.8 1.5.2 3 3.3q-.5.3-.8.8-.2.7 0 1.4t.9.9l.4.1v.2l.2.9q.4 1.2 1.7 2l1.1.3q2.2.7 4.4-.3 2.4-1 3.5-3t.5-3.8l-.6-1zm-11-.4-.2.2zm-1.2 1-.7.7h-.2l.5-1.2z"/><path fill="#98552f" d="m27 21.4-1.9 2-15.5 6.7 1.8-2v.2z"/><path fill="#754625" d="m9.5 30.2-6-18.3 1.5-.4.5.3.9 2.5 5 13.8z"/><path fill="#624c1d" d="M2.6 9.3.7 3.7 2 2.2l1.8 5.1v.2z"/><path fill="#957129" d="m19.6 3.6.2.8-3.6.5-.2-.7zM15 5.2l-3.6.7L11 5l3.7-.6zm-2.4 3.7 3.6-.7.4.8-3.7.6zm-4.3.8 3-.6.3.9-2.6.5zm1.4-4.5.3.9-3.5.6-.3-1z"/><path fill="#4a422c" d="m21.8 14.9-.1.5v.2l-2.2-.7zm-9.3 2.7-1 3.5-.1-.1-.4-.1q-.7-.2-1-.8-.2-.8.1-1.5t.8-.9h.2zm5.6 2.6V20q-.4-.7 0-1.4.3-.7 1-1h1.3q.8.2 1 .9.3.6 0 1.4l-1 1H20l.6-.6q.2-.4 0-1t-.7-.7l-1 .1-.7.7zm-2.5 3.3h-1.5q-.7-.3-1-1.1-.2-.7.1-1.5t1.1-1.1h1.5q.8.3 1.1 1v.3q-.1-.5-.6-.8l-1.3.1q-.6.3-.9.9-.2.5 0 1.2t.8.8z"/><path fill="#9d956f" d="m21.7 15.7.6.6-7.7-.6 1-.4.7-.3h.1l2.4-.4.7.3zm-3.5 4.6.1-.8.8-.7h1q.4.1.6.6t0 1l-.7.6-.1.2h-1q-.5-.2-.6-.7zm-2.5 3.3-.7-.2q-.7-.2-.9-.8t.1-1.2q.3-.7.9-.9h1.3q.4.2.6.8h.1q.3.6 0 1.2t-.9.9l-.3.1z"/><path fill="#c2baa2" d="m22.3 16.3.5 1q.7 1.8-.5 3.8t-3.5 3q-2.2 1-4.4.3l-1.2-.3q-1.2-.8-1.6-2l-.2-.9 1.1-3.6.7-.8.9-.7.3-.2.2-.2zm-2.4 4.6h.4l1-1q.4-.7.1-1.4-.2-.7-1-1l-1.2.1q-.8.3-1.1 1t0 1.3v.3l.1.2q.1.5.6.7h1zm-3 .3v-.4q-.2-.7-1-1h-1.6q-.8.3-1.1 1.1t-.1 1.5q.3.8 1 1.1h1.5l.3-.1.2-.1q.6-.2.8-.9.4-.6.1-1.1z"/><path fill="#654f1e" d="m11.5 5.9 1.2 3-1.3.2-1.3-3zm5 2.3-1.3-3 1.2-.2 1.3 3zm-1.6-3.8-1.2-3 1.1-.1 1.3 2.9zM6.6 6.7l.9 2.2-1.1-1.2-.8-.1-.2-.6zm2.1-4.6 1.2-.2L11 5l-1.2.2zm-5 .6L5 2.6l1.3 3.2-1.4.2z"/><path fill="none" stroke="#66501e" stroke-linecap="round" stroke-linejoin="round" stroke-width="__RESOLUTION__" d="M25 14.8h.8l-4.2-8.9-.8.5-2 1.3m6.3 7.1h-.6l.8 1.5 2.1 5-.4.1-1.9 2-15.5 6.7-.1.1h0l-6-18.3-3.3.7 2.4-3.3L.7 3.7 2 2.2 1.9 2h.2L16.7.2l1.9 1.2 1 2.2.2.8 1 2m3.8 8.4h-1.4m-.4 0h-1l-2.3.1-.7-.3-2.4.3-1.8.1m7 .6.6.7.6 1q.7 1.8-.5 3.8t-3.5 3q-2.2 1-4.4.3l-1.2-.3q-1.2-.8-1.6-2l-.2-.9m3.2-5.4-.2.1-.3.2-.9.7-.7.8h0m-4-7.9.7.8.3.3.5.5h.1l.4.1m.5.1 1.9.2L18 8.4m-10.5.5.9.8M5.6 7.6l.8.2 1.1 1.1M2 2.2V2m1.8 5.4v-.2L2 2.2m.6 7 1.2-1.8.2-.2h-.2m.2 0 .7.3.9.1m-.1 4.2-.5-.3-1.5.3m9.3 4.6-4-3.5-1.5.5-1.8-1.7.9 2.6 5 13.8-1.8 2h-.1m3.4-13.7.3.4m3.3-1.9-.2.1-.7.3-1 .4m0-.6-.3.6m-.1.1-.1.2M27 21.4l-15.6 6.9v-.2" vector-effect="non-scaling-stroke"/></g><g id="b"><path fill="#947d3a" d="M61.5 31q-7.3-4.4-15.1-6.7l-.7-1.3 15.8 5.7zM1.3 21l.5-4.8q3.2 3.5 6.5 4.6zm.7-6.6.1-1.3 5.5 3zm59.5 36.7v1.4l-4-1.4z"/><path fill="#7a6730" d="M61.5 28.7 45.7 23l.7 1.3q7.8 2.3 15.1 6.8v.4l-5.9 2.3L3.5 12.1l-1.2-.5L3.5 1.3l.3-.1 57.7 24.5zm-59 2.5-2.3-1 .7-6.3 38.3 16.5-8 3.1zm-.1-8.1L1 22.5l.1-1.3 7.1-.3Q5 19.8 1.8 16.3l.2-1.7 5.6 1.6-5.5-3 .1-.5.2-.1 52.4 21.6-14.1 5.6zm59 25.6v.1l-.2-.1z"/><path fill="#6a5a2b" d="M61.5 31v-5l2-1 .3.2.2 9.7-2.5.8zm2.5 4.8.2 11.9-2.7.9v-12zm.2 12.8.1 6.3-2.7 1.5h-.1V50z"/><path fill="#a28940" d="M61.5 26v-.3L3.8 1.2l2.6-1 57.2 24.9z"/><path fill="#504421" d="m3.5 12 52.1 21.8 5.9 2.5v.7l-6.7-2.8L2.5 12.6zM.9 23.9v-.2l1.6-.6 38.2 16.7 11.5 5 1.8.8h.3l7 3.1.2.1v-.1l2.7-.9v.9L61.5 50l-22.3-9.6zm63 11 .1 1-2.5.8v-1zm-2.5 13.9V50z"/><path fill="#a0883f" d="m55.6 33.8 5.9-2.3v4.8zm5.9 22.7-30.2-13 7.9-3.1L61.5 50v1.3h-4l4 1.4zm0-19.5v.1q-3.4 1.5-8-.3 5.8 2.6 4.5 5.7-1 2.4-5.8 2.3l-11.5-5 14-5.6z"/><path fill="#000" fill-opacity=".3" d="m63.8 25.2 2.4 3.5.5 30.9-2.2 1.3L1.7 35.5l.8-4.3 28.8 12.3 30.2 13h.1l2.7-1.5-.1-6.3v-.9L64 35.9v-1z"/><path fill="#bea65a" d="M61.5 37.1v11.6h-.2l-7-3-.3-.1-1.8-.8q4.8 0 5.8-2.3 1.3-3.1-4.5-5.7 4.6 1.8 8 .3"/><path fill="none" stroke="#554625" stroke-linecap="round" stroke-linejoin="round" stroke-width="__RESOLUTION__" d="M61.5 31v-5.3L3.8 1.2h-.3L2.3 11.7l1.2.5 52.1 21.7 5.9 2.5v12.5l-.2-.1-7-3m7.2-14.2V31m-59 .1-2.3-1 .7-6.3v-.2l1.6-.6-1.4-.6.1-1.3.6-4.9.2-1.7m0-.1.1-1.3.1-.5.2-.1 1.1-.5m58 13.9 2-1L6.4.3l-2.7 1-.2-.1v.1m60 23.9h.3m0 0V25h-.2m.4 10v1l.2 11.9v.9l.1 6.3-2.7 1.5h-.1 0l-30.2-13L2.4 31.2m38.2 8.6 11.5 5 1.8.8m7.5-14.1v4.8m2.5-1.4-.2-9.7m-2.3 25.3v-1.7m0 3.9v-1.9m0 1.9v3.8h.1M40.7 39.8 2.5 23" vector-effect="non-scaling-stroke"/><path fill="#bfb698" d="M35 42q-10.5-2.2-20.8-7H14L3.4 29.1v-.2q-.6-10.3 3.4-16-.8-1.5-3.3-2 5.5-.9 3-4.5 3 1.5 5-1.8-.6 4.2 6 4.6l-1.7.7q6 1.1 11.8 3.7l.4.2q6.8 4.9 13.1 6.5 6.1.9 18.4 6.5l-1.2 6-1.9.7q.4-2.6 1-5.1-10.2-4.2-16.3-5.1-6.4-1.6-13.1-6.5l-.4-.2q-7.3-3.2-15-4.1-.8 1.6.2 3.5-1.7-1.3-3-1.5-2 1.9-3.3 5.4l.5-3q-2.5 4.3-1.6 10.7l9.5 5.3.3.2q11 5 22.3 7.2l1 .3z"/><path fill="#dad6c5" d="m58.3 32.8-.7 5.5q0 8.5.9 14.6l-1.9-1.3q-8.4-5.5-20.1-9.3L35 42l3.5-1.4q10.2 3.4 17.8 8.2-.5-4.8-.5-10.8l.6-4.5z"/></g><clipPath id="a"><path d="M1 1h67v61H1z"/></clipPath></defs><g clip-path="url(#a)"><g transform="translate(39.4 131.05)"><use xlink:href="#b" width="66.7" height="60.9" transform="translate(-38.4 -130.05)"/><use xlink:href="#c" width="27.6" height="30.4" transform="matrix(.9 0 0 .9 -2.35 -108.3)"/><use xlink:href="#c" width="27.6" height="30.4" transform="matrix(-.9 0 0 .9 -11.95 -121)"/><use xlink:href="#d" width="19.8" height="20.3" transform="translate(-16.95 -113.05)"/></g></g></svg>