<svg xmlns="http://www.w3.org/2000/svg" xmlns:xlink="http://www.w3.org/1999/xlink" width="52" height="45" viewBox="0 0 52 45"><defs><clipPath id="a"><path d="M1 1h50v43H1z"/></clipPath><g id="b"><path fill="#746930" d="M49.8 10.8v21l-21.3 11-.1-.1-.1-14.2-.4-2.5-1-3.4 1.5-1v.1z"/><path fill="#d1bc9a" d="M49.8 10.8 28.5 21.7h-.1l-21-10.9L28.5 0z"/><path fill="none" stroke="#000" stroke-linecap="round" stroke-linejoin="round" stroke-width="__RESOLUTION__" d="m28.4 42.7 21.4-10.9v-21L28.5 0 7.4 10.8h0-.2.2" vector-effect="non-scaling-stroke"/><path fill="#d1bc9a" d="m17.8 22.3-1.3-2.6q-2.5-1.4-5.9-1.3-4-1.2-4.6-4.6h-.6l-5.4.7 19.7-9.9 21.2 10.8-18.3 9.3q-2.2-1.3-4.8-2.4"/><path fill="none" stroke="#012b34" stroke-linecap="round" stroke-linejoin="round" stroke-width="__RESOLUTION__" d="m28.7 26.3 15.6-7.5-.2 12.3-8.7 3.7-.1-8.2" vector-effect="non-scaling-stroke"/></g></defs><g clip-path="url(#a)"><use xlink:href="#b" width="49.8" height="42.8" transform="translate(1 1)"/></g></svg>