<svg xmlns="http://www.w3.org/2000/svg" xmlns:xlink="http://www.w3.org/1999/xlink" width="161" height="149" viewBox="0 0 161 149"><defs><clipPath id="a"><path d="M1 1h159v147H1z"/></clipPath><g id="b"><path fill="#e7ba23" d="M151.2 18.4h.2v.1l1.4 2q1.1 1.8 2 3.9l.3.8q1.5 3.7 2.3 8.3l.7 4.5.2 3.8q0 4.9-.7 10.1l-.5 2.4-.8 3.6-2.1 7-.6 1.6-2.7 6.8-2.8 6.2-3 5.5-4.1 6.3-1.1 1.3q-4.4 5.6-9.3 9.2-3.6 2.5-7 3.8-4.7 2-9.2 1.5l-2.6-.6-.5-.2h-.2l-1.6-.8-.8-.5-1.1-.7-1-.7-.2-.1-.8-.7-2.2-2.5q-1.7-2.3-2.8-5.2l-.2-.5-.2-.7-.7-2.4q-.6-2.5-.9-5.3v-.4l-.2-3.5.2-6v-.2l.3-2 .3-2.1.8-4.1.4-1.6 1.2-4.2.8-2.5.3-.8 2.2-6v-.1h.1l.1-.3 1.5-3.7-.8 2.1 1.9-4.4.4-.7v-.1l1.1-2 .2-.2.2-.1 13-9.6 8.3-6 7.5-5.6 6.7-4.7 2.5.5zM130.3 30l-1.9 1.4q-3.4 2.8-6.5 6.4l-.4.6q-2.9 3.5-5.4 8l-.2.3q-2.3 4-4.3 8.6-1.7 3.9-2.8 7.6-1.5 4.5-2.3 8.8l-.6 3.7-.3 2.6-.1 1.5v5q.1 2.8.5 5.2.9 5.5 3.4 8.7 1.6 2.1 4 3.3 2.3 1.2 4.9 1.2 4 0 8.8-3l3.8-2.8q3.2-2.7 6-6l1.2-1.6 4.2-5.9 2.8-5.3 2.5-5q1.8-4.4 3.1-8.5l.4-1.4 1.7-6.7.6-4.1.2-2.4.2-6.1-.5-4.6V39q-1-5.7-3.7-9-1.7-2-3.8-3.1-6.5-3.2-14.7 2.6zm3.8 24.8.5.2q.6.3 1 1l.1.4.2.7v.6q.2 2.1-.8 4.5-1 2.3-2.6 3.5t-2.8.6-1.4-2.7.8-4.5q1-2.3 2.7-3.5l.5-.4q1-.5 1.8-.4"/><path fill="#1f1510" fill-opacity=".4" d="m111.8 106.5-.2 2.1.3 2.5-1.8 8 8.5 17.3q-13.4 8-38 4.8l-9-6.6-9-13.5-1.3-13.1-14-7.2-3.2-8.1.6-.6h.1l2.2 1.3 4.5-2.8 3.9 1.4-.1 5-1.8 2.3 1 3.5 1-4.3 1.1.5 2.8-3.9-3 1.5.2-4.3.1-.3.5-2.7 3-2.7 6-2 1.5-1.4q1.3 1.5 3 2.8l2.9 1.8.7.3 2.3.9 6 3 8.7 4.4 10.8 5.3 4.3 2.2 2.3 1.1.8.5 1.6.8h.2zM37.4 83.8l-.7-5.5-5.9-8.2 1.4-1.6 8.9.9 7 11 15.9-.6-2.8 2-1 1.9-5.8 5-3.7 1.3-4.6 1.5-.9-1.2-.4-.6.7-1.5-3.7.8 2.8 1 .1.1-.8 2.1zm32.4 7 1.3.8zm-17.2 9.7 1-1.2z"/><path fill="#1f1510" fill-opacity=".2" d="m111.9 111.2.6 6 13.8 17.8q-14.5 10.3-24.6 11.7L76.1 144l-10.9-12-3.6-5-4-16.9-8-2.2-12.4-11.6.2-11.5v-1l6.5 8.4-.5 1.3.7-.8 3.1 8 14.1 7.3 1.3 13.1 9 13.5 9 6.6q24.6 3.2 38-4.8l-8.5-17.3zM41.3 97.6v-.2h-.2z"/><path fill="#7d6631" d="m30.8 70-6.2 7 2-4.2.1-.3 2-4.5h-.2l-1.9-1.2 11.1-1.2 12.1 11.2 4-2.1q1.3 3.7 21.5 2.5l9.4-4-.9-4.2-.1-.1q5.8-.6-3.3-7.8l-1.6-1.8q-5-5.3.1-.1l1.1 1.2.1.1q7.3 7.5 4.5.3l-.1-.1 6.5 2 1.8.8 6.7 4 .5.4-.8 4.1-.3 2-.3 2.1v.2l-.2 6 .2 3.5v.4q.3 2.8 1 5.3l.7 2.4-20.5-10.3 2.1-.2 4.4-5.2-4.4 5.2-2 .2-1.2-.5-5.5.9-4.4-2-1.1-.5-.5-.2-1.3-.6-.4-.7-.1-.2H64l-2.8 2-1 1.9-5.8 5-3.7 1.3-4.6 1.5-.9-1.2-.5-.2-.8 2.1-.5 1.3.7-.8.6-.6h.1l2.2 1.3 4.5-2.8-.8-.6.8.6 3.9 1.4-.1 5-1.8 2.3 1 3.5 1-4.3.1-.2.2-.8.5-.9-.5.9-.2.8v.2l1 .5 2.8-3.9-3 1.5.2-4.3.1-.3.5-2.7 3-2.7 6-2 1.5-1.4.2-.2-.2-.2h-.2l-.2-.1q-.9-.4-1.6-1L64 79.9l-16 .5-6.9-11-8.9-1zm-15.6 3.8-2.4 3.7.9-4.4.1-.6.5-2.5-.6-4.5 1.3-1.6 1.8 1.4-1.7.9 1.1 6.1zm58.6-24.5q-5.2-3.5-6.9 2.1 6.5-.1.8 3.1L61.3 57v-.2l.1-1.4v-.7l.4.1v-2.9h.6v1.4l.2-2.1v-.3l.4-3.8.1-.3 1.8-.5 7.5-2.1.1-.6q-7.6 2.2-10.6-3l1.5 4.1 1.5 1.6 7.5-2.1.1-.6 1.2.4zm17.8 16.2-.7-2.7zl1.2 8zm7 10.8-5.8-2.8zm-10.3-11q-3.2-3.2-3.7-4.5.5 1.3 3.7 4.5m4.5 8 .1.2zl-3.1 7.2zl-4.5-2.1-4.5-2.2 4.5 2.2zM66.9 51.5l-5.2 3.4zM44.8 89.7l-.2.3-2.8-1 3.7-.8z"/><path fill="#95734a" d="m26.6 72.8-11.4 1 1-1.5-1.1-6.1 1.7-.9 4-2 5.8 3.5 2 1.2h.1l-2 4.5zm43.1 18 1.3.8z"/><path fill="#bb9962" d="M13.8 72.5 12.1 60l-3-3.7q8.8.9 8.1 4.9L15 63.9l-1.3 1.6.6 4.5zm9.5-12.6q9.9 2 16.5-2.9 3.5-1.4 2.3-6.9l.4.1q1.4 4.5 1.2 7.2-.3 3-2.5 3.8H36l-10.6-.4zm23.9-6.2q4.3 4.6 8.7.9 4-3.1 3.1-7.4 2-4.3-1.5-9.6l4.3 3 1.5 4.1-.2 1.6-.1.5v.3l-.5 3.8h-.1q.2-2.7-.4-1.1l-.3.6v4.4h-.4v.6l-.1 1.4v.2q-2.1 2.1-7.6 3.3l-2.3.5-2.5-3.4-.8-1-.5-1.4z"/><path fill="#b8a057" d="m9.1 56.4-.7-.1-1.3-.1H.3Q8 55.5 11.5 53L9 46.3q1.9 4.1 7.2 8.3l6.3-2.4 1-9.3 2.2 6.6 2.8-1.7-8.2 8.9q.7 1.6 2.3 2.7l.7.5 2.1 1 2.2 3 15.8.5 1.6 2.4 7.3 2.8 21.3-3.3 5.2-7 1.6 1.8q9.1 7.2 3.3 7.8l.1.1.9 4.3-9.5 4Q55 78.4 53.9 74.7l-4 2.1-12-11.2-11.2 1.3-5.8-3.6-4 2L15 64l2.2-2.7q.7-4-8.1-4.9m33.4-6-.4-.5-.3-.5L34.6 39q4.4 5.3 9.4 6.6l1.1-8.8q-.3 8.3 2.1 17l.3 1.3.5 1.4.8 1-3.2-1.4-1.9 1.4q.2-2.6-1.2-7.1m15-12.6-.4-.3L55 36q7.8-1.7-4.6-10.5l7.2 3-1-3.9 5.1-3.4-1.6-5.8 5.6 6.6-2.7 1.6-.2.1-.2 7 .8.3 4.6-1-.2.7q-.7 1.4-2.1 2.1l-5.4-.4q-4.1-1 .8.8 5 1.6 5 1.8l7.7 3.5 31.3 14-.1.3-.1.1-15.6-4.2L101.5 59l1 .5-.9 2.5-1.2 4.2-.4 1.6-.5-.4-6.7-4-1.8-.7-.7-3-5-6.9 5 6.9.7 3-6.5-2.1v.1q3 7.3-4.4-.3v-.1l-1.2-1.2.1-.2-2.7-3.4 5 1 3.2 4-3.2-4q-4.4-5.3-7.5-7.4l-.2-5.2-1.2-.4q-7.6 2.2-10.6-3zm0-9.2q1.5-3.6 5 2.2-3.5-5.8-5-2.2m16.2 10-1.4 5.3zm-9 8-1.8.5v-.5l.3-1.6zm-2.5 5.5-.5.1.6-.7zm.1-31.3-.8.6zm.2 30.2q0-.5-.7 0v.1-.7l.3-.6q.6-1.6.4 1.1"/><path fill="#f1c763" d="m151.2 18.4-3.6-.5-2.5-.5-6.7 4.8q-16.5-9-25.8-13.2l-4.2-1.9-.1-.1-.4-.5q-.3-.5-.1-1 .1-1.2.7-2.2v-.1l.1-.1 3-1.5 2.6-1.3h1l2.3 2.3.4-1 18.7 9.4.5.2zm-42.3-1.5q5.6 2.7 9.7 4.3 5.5 2.3 12.3 6.5l-8.3 6q-5.3-1.7-8.2-3.8l-.4-.3-.6-.5q-.4-.4-.5-1l-.7-1.2-.3-.5-1-1-1.4-.9-1.7-.3-1.2-.1-2.8-.1v.2l-.4-.1v-.2l-1.8-.6L99 22l-2.3-1-2.2-1 1.1-.4.6-.2q.5-.4 1.3-.4l.8-.4h.2l1.2-.2.9-.2 1.6.3 2.3.1h1.3l1.1-.4.8-.7zm1.1 24.3-1-.2 1-.3z"/><path fill="#bdc254" d="M108.5 3.2q-.6 1-.7 2.2-.2.5.1 1l.4.5.1.1.3.4.3.3 2.1 1.8.7.6.8.7.2.3q0 .4.8.5l.3.1-.5 1.5-1.2 1.3-.2.2-.2.6-1.5.8-.5.3-1 .4-1.2.7-.7.6-1.2.5h-1.4l-2.2-.1-1.6-.3-.9.1-1.2.4h-.2l-.9.3q-.7 0-1.2.3l-.5.4-1.2.3-1.9.4-1.4-.1-1.3-.4h-.5l-1.3.4-2.7.8-.5.2-.9.3-.5.3-.7.4q-.5.5-1.4.3l-.5-.1-.5-.3-1.2-.4q-.5-.2-1.2 0l-.6.1-.7.2q-1.3.4-2.4-.4l-.9-.4h-.8l11.8-5.1Q81.8 9 104.5 5.1l1-.5 2.1-1.1zm-.1 3.8q-2-.8-3.8-1.8 1.8 1 3.8 1.8m-4.9 17 .4.2V24l2.8.1 1.3.1 1.6.3 1.4.9 1 1 .3.6.7 1.2q.1.5.4.9h.1l.9 1 .7.3.4.4-.1.4q-1.2 1.3-3.2 1.6l-2-.4q-1.2-.5-2.4-.7l-1.3-.3-1.4.1-.3.1-2.8.4-2.5-.3-.9-.3-1.3-.7q-.6-.2-.7-.8l-.4-1.4v-.2l-.2-1.6-.1-1.8q1.6.3 2.6-.8l.6-.2h2l.8.1 1 .3q.5.1.6-.2"/><path fill="#dfb962" d="m108.4 7.1 4.2 1.9q9.3 4.3 25.8 13.2l-7.6 5.5q-6.7-4.2-12.2-6.5-4-1.6-9.7-4.3l.9-.4.5-.3 1.5-.8.2-.6.2-.2 1.2-1.2.5-1.6-.3-.1q-.7-.1-.8-.5l-.2-.3-.8-.7-.7-.6-2-1.8-.3-.3z"/><path fill="#eec740" d="M135.7 31.6q-1.6.5-3.3 1.6-1.8 1-3.6 2.6-2.2 1.9-4.1 4.1l-2 2.4q-1.9 2.5-3.6 5.5l-.2.5q-2 3.3-3.7 7.1-2 4.8-3.3 9.3-1.3 4.8-1.7 9.3l-.1 3.6v1.5l.2 2.9q.9 8.5 6 11 5.8 2.9 13.9-3.9l1-.8 1.6-1.6q2.3-2.5 4.3-5.4l3-4.7 3.5-7.1 2.6-6.9.4-1.3 1.5-6.1.6-4.6.2-2.5v-2.3q-.3-5.5-1.8-9t-4.5-5-6.9-.2m-5.4-1.6.8-.6q8.3-5.7 14.7-2.5 2.1 1 3.8 3 2.7 3.4 3.7 9.1v.6l.5 4.5-.2 6.2-.2 2.4-.6 4.1-1.7 6.7-.4 1.5q-1.3 4-3.1 8.3l-2.5 5.1-2.8 5.3-4.2 6-1.2 1.5q-2.8 3.3-6 6L127 100q-4.7 3-8.7 3-2.5 0-4.9-1.2t-4-3.3q-2.5-3.2-3.4-8.7-.4-2.5-.5-5.2v-5l.1-1.5.3-2.6.6-3.7q.8-4.3 2.3-8.8 1.1-3.7 2.8-7.6 2-4.6 4.3-8.6l.2-.4q2.5-4.4 5.5-7.9l.3-.6q3.1-3.6 6.5-6.4zm-14 45.7q0-3.9 1.2-8.1.8-3.2 2.3-6.6 2.4-5.7 5.5-9.5l.6-.7 2.1-2.1 1.4-1.1q3.9-3 6.8-1.5 2.8 1.3 3.4 6v2.4l-.2 3.4v1q-.8 4.9-3.2 10.3l-2.7 5.5-2.6 3.7-2.8 3.1-1.8 1.5q-1.5 1-2.7 1.4l-3.8-.2q-1.7-1-2.7-3.1-.5-1.6-.7-3.7zM134 55q-.7-.2-1.7.3l-.7.4q-1.6 1.2-2.6 3.5-1 2.4-.8 4.5t1.4 2.7 2.8-.6 2.6-3.5.8-4.5v-.6l-.2-.7-.1-.4q-.4-.7-1-1z"/><path fill="#dfb524" d="M135.7 31.6q3.8-1.3 7 .3 2.9 1.4 4.4 4.9t1.8 9v2.4l-.2 2.4-.6 4.6-1.5 6.1-.4 1.4-2.6 6.8-3.5 7.1-3 4.7q-2 3-4.3 5.4l-1.7 1.6-.9.8q-8.1 6.8-14 3.9-5-2.5-5.9-11l-.2-2.9v-1.5l.2-3.6q.3-4.5 1.6-9.3 1.3-4.6 3.3-9.3 1.7-3.9 3.6-7.1l.3-.5q1.7-3 3.7-5.5l1.9-2.4q2-2.2 4.1-4 1.8-1.6 3.5-2.7 1.8-1.1 3.4-1.7m-19.3 44.3v1.7q.1 2.1.7 3.7 1 2.1 2.7 3l3.8.3q1.2-.5 2.7-1.4l1.8-1.5 2.8-3.1 2.5-3.7 2.8-5.5q2.4-5.4 3.2-10.2V58l.2-3.4v-2.4q-.7-4.7-3.4-6-2.9-1.5-6.8 1.4l-1.4 1.2-2 2.1-.7.8q-3.1 3.7-5.5 9.4-1.5 3.4-2.3 6.6-1.2 4.2-1.2 8.1"/><path fill="#e6bf68" d="m122.7 33.7-13.1 9.6-2.8-1.4-3.1-1.5-.5-.2-4.9-2.5-18.7-10.2-5.6-3.2-2.5-1.4.8-1.4.2-.1h.8l.9.4q1.1.8 2.3.4l.8-.2.6-.1q.6-.2 1.2 0l1.2.4.5.3.5.1q.9.2 1.5-.3l.5-.3.1-.1.5-.4 1-.2.4-.2 2.7-.8 1.3-.4h.5l1.3.4 1.4.2 1.9-.5 2.2 1 2.3 1 2.7 1.1 1.8.8q-.1.4-.6.3l-1-.3-.8-.1h-2l-.6.2q-1 1-2.6.8l.1 1.8.1 1.6.1.2.4 1.4q.1.6.7.8l1.3.7 1 .3 2.4.3 2.8-.4.3-.1 1.4-.1 1.3.3q1.1.2 2.3.7l2.1.4q2-.3 3.2-1.6l.1-.4-.4-.4-.7-.3-.9-1 .6.4.4.4q2.9 2.1 8.2 3.8M110 41.2v-.5l-1 .3z"/><path fill="#ceb666" d="m109.6 43.3-.2.1-.2.1-1 2.1h-.1l-.4.8-1.9 4.4.8-2.1-1.5 3.7-31.3-14-7.7-3.5-5-1.9q-4.9-1.7-.8-.6l5.4.3q1.4-.7 2-2.1l.3-.7h.4l6.6 3.9-6.6-4-.3-.1.3-.7 1.3-2.6 1.4-2.8.5-.7 2.4 1.4 5.6 3.2 18.8 10.2 4.8 2.4.5.3 3 1.5zm-4.7 9.5-2.2 6-.3.9-.9-.6-12.2-10.6zM82.6 33.1l1.1.3zm-3.8 26.2-5.2 7-21.3 3.3-7.3-2.8-1.6-2.4-15.8-.5-2.2-3 10.6.4 5-.1h.3-.1q2.2-.9 2.5-3.8l2-1.4 3.1 1.4 2.5 3.4 2.3-.5q5.5-1.2 7.6-3.3l6.5-2.5q5.7-3.2-.8-3.1 1.7-5.6 7-2.1 3 2 7.4 7.3l-5-1L79 59l-.1.2q-5-5.2-.1.1M68.1 29.7l.3.2H68zm-6.9 28v.2z"/><path fill="#948046" d="m100.3 93.9.1.6.2.6q1.2 2.9 2.8 5.2l2.2 2.5.8.7.2.1 1 .8 1.1.6-2.3-1.1-4.4-2.2-10.7-5.3-8.7-4.4-6-3-2.3-.9-.7-.3-3-1.8q-1.6-1.2-2.9-2.8l.2-.2-.2-.2h-.2l-.2-.1-1.4-2 1.3.6.5.2 1.1.5 4.5 2 5.4-1 1.1.6-6.4 1.2-4.7-2.7.1-.1-.1.1 4.7 2.7 6.4-1.2zM68.7 82.1l-1-.6zl-1 .8z"/><path fill="#816041" d="m62.6 51-.1.1-.1-.2z"/><path fill="#8e7439" d="M61.8 51.9v-.8q.5-.6.6-.2v.3-.3.3zm-.6 5.9v.1z"/><path fill="#a7844b" d="m41.2 97.5.1-.1.1.2z"/><path fill="#ba9774" d="m41.4 97.6-.2-.1z"/><path fill="none" stroke="#5b4228" stroke-linecap="round" stroke-linejoin="round" stroke-width="__RESOLUTION__" d="M151.2 18.4h.2v.1l1.4 2q1.1 1.8 2 3.9l.3.8q1.5 3.7 2.3 8.3l.7 4.5.2 3.8h0q0 4.9-.7 10.1l-.5 2.4-.8 3.6-2.1 7-.6 1.6-2.7 6.8-2.8 6.2-3 5.5-4.1 6.3-1.1 1.3q-4.4 5.6-9.3 9.2-3.6 2.5-7 3.8-4.7 2-9.2 1.5l-2.6-.6-.5-.2h-.2l-1.6-.8-.8-.5-1.1-.7M30.9 70.1l-6.3 7 2-4.3m-11.4 1-2.4 3.7.9-4.4m134-55.2 3.5.5M68.8 82l-1 .8m9 6.1 6 3 8.6 4.4 10.8 5.3 4.3 2.2 2.3 1.1M118 1.6 115.2.3M26.6 67l2 1 .1.1h0l-2 4.5m18.5 17.8.9 1.3 4.6-1.6 3.7-1.3 5.7-5 1.1-2 2.8-1.9-16 .7-6.9-11.1-8.9-1-1.4 1.6M15 64l-1.3 1.5.6 4.5-.5 2.5m3-7.2-1.7.9 1.1 6.1-1 1.5m29.4 16.3.5.2-.4-.6zl-2.8-1 3.7-.8-.7 1.5m-.7 3 .6-.6h.1l2.2 1.3 4.5-2.8-.8-.6m-6 .1-.8 2.1-.5 1.3.7-.8m7.4-2.1 3.9 1.4-.1 5-1.8 2.3 1 3.5 1-4.3.1-.2.2-.8.5-.9.3-4.3.1-.3.5-2.7 3-2.7 6-2 1.5-1.4.2-.2m-2.2-1.3L64 79.9h0l1.4-.1.1.3.4.6 1.4 2M53.6 99.3l-1 1.2m3.8-3.9 3.1-1.5-2.8 4-1-.6" vector-effect="non-scaling-stroke"/><path fill="none" stroke="#856736" stroke-linecap="round" stroke-linejoin="round" stroke-width="__RESOLUTION__" d="m8.4 56.3-1.3-.1H.3Q8 55.5 11.5 53L9 46.3q1.9 4.1 7.2 8.3l6.3-2.4 1-9.3 2.2 6.6 2.8-1.7-8.2 8.9q.7 1.6 2.3 2.7m19.9-9.1-.4-.5m-.3-.5-7.2-10.4q4.4 5.3 9.4 6.6l1.1-8.8q-.3 8.3 2.1 17l.3 1.3.5 1.4.8 1 2.5 3.4 2.3-.5q5.5-1.2 7.6-3.3l6.5-2.5m41.5-11-1 2.1h-.1l-.4.8-1.9 4.4.8-2.1-1.5 3.7-.1.3m0 0-.1.1-2.2 6-.3.9-.8 2.4-1.2 4.2-.4 1.6-.8 4.1-.3 2-.3 2.1v.2l-.2 6 .2 3.5v.4q.3 2.8 1 5.3l.7 2.4.1.6.2.6q1.2 2.9 2.8 5.2l2.2 2.5.8.7m.2.1 1 .8M74 24.3l5.6 3.2 18.8 10.2m-14.7-4.3-1.1-.3M25.4 60.8l-2.1-.9m20.4-2.5q-.3 3-2.5 3.8h.1H36l-10.6-.4m-8.6 4.5 4-2 5.8 3.5M9.1 56.4q8.8.9 8.1 4.9L15 63.9l1.8 1.4m44.4-7.5v.1zm-17.5-.4q.2-2.6-1.2-7.1" vector-effect="non-scaling-stroke"/><path fill="none" stroke="#9d8145" stroke-linecap="round" stroke-linejoin="round" stroke-width="__RESOLUTION__" d="M57.1 37.4 55 35.9q7.8-1.7-4.6-10.5l7.2 3-1-3.9 5.1-3.4-1.6-5.8-1.6-1.9m26 47.4v-.1l-3.2-4.2q-4.4-5.2-7.5-7.2M91 62.8l-.7-3-5-6.9m-.7 7.9q.5 1.3 3.7 4.5M65.7 22l2.2-1.3 1.7-1m-10.4-7.4.9 3.1 5.6 6.6m0 0 2.2-1.3m.2 9.1.3.2 6.6 3.9M68 30l.4-.1m-5.8.7.2-7 .3-.2 2.6-1.5m2.3 8-4.6 1-.8-.3q-3.5-5.8-5-2.2m4.2 12.1-4.2-2.9m14.8 6 1.4-5.2m-1.4 5.3-.2.5M61.8 21l.8-.6" vector-effect="non-scaling-stroke"/><path fill="none" stroke="#84622b" stroke-linecap="round" stroke-linejoin="round" stroke-width="__RESOLUTION__" d="m151.2 18.4-14.1-7.2m-.5-.2-18.7-9.4M115.2.3" vector-effect="non-scaling-stroke"/><path fill="none" stroke="#d39f49" stroke-linecap="round" stroke-linejoin="round" stroke-width="__RESOLUTION__" d="m137 11.2-.4-.2m-24-2q9.3 4.3 25.8 13.2m-29.6-5.3q5.8 2.7 9.8 4.3 5.5 2.3 12.3 6.5M104.5 5.2q1.8 1 3.8 1.8M96.6 21.1l2.3 1 2.7 1.1m12.8 6.7q2.9 2.1 8.2 3.8" vector-effect="non-scaling-stroke"/><path fill="none" stroke="#8e7140" stroke-linecap="round" stroke-linejoin="round" stroke-width="__RESOLUTION__" d="M115.2.3h-1l-2.7 1.3m-3.9 2-2.2 1.1M68.4 29l-.3.7v.3m-5 16.3-.1.5" vector-effect="non-scaling-stroke"/><path fill="none" stroke="#929236" stroke-linecap="round" stroke-linejoin="round" stroke-width="__RESOLUTION__" d="M108.5 3.2q-.6 1-.7 2.2-.2.5.1 1l.4.5m3.5 3.2.8.7.2.3q0 .4.8.5l.3.1-.5 1.5m-3.6 3.1-1 .5-1.2.7-.7.6-1.2.5h-1.4m-2.2-.1-1.6-.3-.9.1-1.2.4m8.1 5.3 1.3.1 1.8.3 1.3.9 1 1m-26.6-5.2-.5.2-.9.3-.5.3m-4.3-.1q-.5-.2-1.2 0l-.6.1-.7.2q-1.3.4-2.4-.4l-.9-.4h-.8m27 10.3-1-.3-1.3-.7q-.6-.2-.7-.8l-.4-1.4v-.2m3.4-4.4h1.5l.8.1m12.5 6 .7.4.4.4-.1.4q-1.2 1.3-3.2 1.6l-2-.4q-1.2-.5-2.4-.7m-3-.1-2.8.4" vector-effect="non-scaling-stroke"/><path fill="none" stroke="#cc9a26" stroke-linecap="round" stroke-linejoin="round" stroke-width="__RESOLUTION__" d="M135.7 31.6q3.8-1.3 7 .3 2.9 1.4 4.4 4.9t1.8 9v2.4l-.2 2.4-.6 4.6-1.5 6.1-.4 1.4-2.6 6.8-3.5 7.1-3 4.7q-2 3-4.3 5.4l-1.7 1.6-.9.8q-8.1 6.8-14 3.9-5-2.5-5.9-11l-.2-2.9v-1.5l.2-3.6q.3-4.5 1.6-9.3 1.3-4.6 3.3-9.3 1.7-3.9 3.6-7.1l.3-.5q1.7-3 3.7-5.5l1.9-2.4q2-2.2 4.1-4 1.8-1.6 3.5-2.7 1.8-1.1 3.4-1.7m-5.4-1.4.8-.7q8.3-5.7 14.7-2.5 2.1 1 3.8 3 2.7 3.4 3.7 9.1v.6l.5 4.5-.2 6.2-.2 2.4-.6 4.1-1.7 6.7h0l-.4 1.5q-1.3 4-3.1 8.3l-2.5 5.1-2.8 5.3-4.2 6-1.2 1.5q-2.8 3.3-6 6L127 100q-4.7 3-8.7 3-2.5 0-4.9-1.2t-4-3.3q-2.5-3.2-3.4-8.7-.4-2.5-.5-5.2v-5l.1-1.5.3-2.6.6-3.7q.8-4.3 2.3-8.8 1.1-3.7 2.8-7.6 2-4.6 4.3-8.6l.2-.4q2.5-4.4 5.5-7.9l.3-.6q3.1-3.6 6.5-6.4zm-14 45.7q0-3.9 1.2-8.1.8-3.2 2.3-6.6 2.4-5.7 5.5-9.5l.6-.7 2.1-2.1 1.4-1.1q3.9-3 6.8-1.5 2.8 1.3 3.4 6v2.4l-.2 3.4v1q-.8 4.9-3.2 10.3l-2.7 5.5-2.6 3.7-2.8 3.1-1.8 1.5q-1.5 1-2.7 1.4l-3.8-.2q-1.7-1-2.7-3.1-.5-1.6-.7-3.7zM134 55l.5.1q.6.3 1 1l.1.4.2.7v.6q.2 2.1-.8 4.5-1 2.3-2.6 3.5t-2.8.6-1.4-2.7.8-4.5q1-2.3 2.7-3.5l.5-.4q1-.5 1.8-.4" vector-effect="non-scaling-stroke"/><path fill="none" stroke="#a2833e" stroke-linecap="round" stroke-linejoin="round" stroke-width="__RESOLUTION__" d="m109.5 43.4-.3.1" vector-effect="non-scaling-stroke"/><path fill="none" stroke="#b7923c" stroke-linecap="round" stroke-linejoin="round" stroke-width="__RESOLUTION__" d="m103.7 40.4 3 1.5" vector-effect="non-scaling-stroke"/><path fill="none" stroke="#5a4225" stroke-linecap="round" stroke-linejoin="round" stroke-width="__RESOLUTION__" d="m91 62.8.7 2.7M79.8 83.6l2.1-.2 4.4-5.2m-17.6 3.9 4.7 2.7 6.4-1.2m-12.5-2.3.4.2 1 .6" vector-effect="non-scaling-stroke"/><path fill="none" stroke="#6b4b2c" stroke-linecap="round" stroke-linejoin="round" stroke-width="__RESOLUTION__" d="m91.7 65.5 1.2 8m-.2-.2-3.1 7.2M63.3 44.7l-1.5-4.2m10.5 3.7-7.5 2.1-1.5-1.6m-.3 2.1v.3l-.5 3.8v.3l-.3 2.1m-.5 1.5 5.2-3.4" vector-effect="non-scaling-stroke"/><path fill="none" stroke="#7d6031" stroke-linecap="round" stroke-linejoin="round" stroke-width="__RESOLUTION__" d="m93 73.5 5.6 2.8M93 73.5l-.2-.2-4.4-2.1-4.5-2.2" vector-effect="non-scaling-stroke"/><path fill="none" stroke="#6c5131" stroke-linecap="round" stroke-linejoin="round" stroke-width="__RESOLUTION__" d="m62.2 53.4.1-1.6.1-.6v-.3q.2-2.7-.4-1.1l-.3.6m-.4 5v-.7M68 83l-.2-.2h-.2l-.2-.1q-.9-.4-1.6-1m2 1.5q1.3 1.5 3 2.8l2.9 1.8.7.3 2.3.9" vector-effect="non-scaling-stroke"/></g></defs><g clip-path="url(#a)"><use xlink:href="#b" width="158.5" height="146.7" transform="translate(1 1)"/></g></svg>