<svg xmlns="http://www.w3.org/2000/svg" xmlns:xlink="http://www.w3.org/1999/xlink" width="99" height="236" viewBox="0 0 99 236"><defs><g id="m"><path fill="none" stroke="#000" stroke-linecap="round" stroke-linejoin="round" stroke-opacity=".6" stroke-width="__RESOLUTION__" d="M52.5 108v1.1q-.3 1.8-1.7 1.5-1.5-.2-4 .8l-3.3 1.5q-.7.4-1-.5m9.8 13.4.2.7q.2 1.7-.9 3t-2.8 1q-1.5-.2-3.5.5H44m.3-8.3q.2.2-2.7 1.7t-5 .4q-1.3-.7-1.8-1.9m8.1 11.4q.4 1-1.6 2-2.3 1.1-5.2 2-2.7.6-3.6-.5" vector-effect="non-scaling-stroke"/><path fill="#8c8c64" d="m48.3 27.4-.9.4L49 20h.2v7z"/><path fill="#3c3d22" d="m47.4 27.8-22.2 9.8V12.2l24 7.8H49z"/><path fill="#9a9978" d="M24.7 37.6 16 33.4l-3.8-1.8-4.3-2L4.7 28l-1.2-.6-1.5-.7-.2-13.4.8-.1q.6 0 .6-.7t-1-1.9l-.5-.5-.1-5 14.7 7.3q-.7.2-1.4.9-.8 1-.8 2.6 0 1.5.8 1.8l2.2.7 3.3.5q2 .1 1.4-1.9-.4-1.4-1.2-2.5l4.6 2.3v20.7zM10 20l1.7.4q1 .2 1.8 1 .7.8.7-.7l-.3-2q-.4-.6-1.4-.6l-2.1.3q-1.1.3-1.1.9t.7.7m4.5 6.4q-1.2.9-1.2 2.2t1.3 1.9l2.8 1.1 2.9.3q1.4-.4 1.7-1.6t-.2-3.7q-.6-2.5-3.4-1.8t-3.9 1.6"/><path fill="#b0b09e" d="m2 26.8-1.8-.9V13.5h.5l1-.2zM.2 9.5v-5l1.4.7.1 5Q.9 9.6.2 9.5"/><path fill="#bcbcb2" d="M.2 13.5v-4q.7.1 1.5.7v3.2H.3"/><path fill="#5c5b36" d="M.2 4.5V.3h.1L25.1 12v5l-4.5-2.3v-.1l.1.1-.7-.7-.1-.2q-1.3-1.3-2.6-1.3l-1 .1L1.6 5.2z"/><path fill="#91906a" d="m16.3 12.5 1-.2q1.3 0 2.6 1.4l.1.2.8.7-.2-.1z"/><path fill="#a6a58c" d="M20.6 14.5q.8 1.1 1.2 2.5.6 2-1.4 2l-3.3-.6-2.2-.7q-.8-.3-.8-1.8t.8-2.6q.7-.7 1.4-.9zM1.7 10.2l.4.5q1.2 1.3 1.2 1.9t-.7.7h-.8zm12.7 16q1.2-.8 4-1.5t3.3 1.8q.6 2.4.2 3.6T20.2 32l-2.9-.2-2.8-1.2q-1.2-.6-1.2-2 0-1.2 1.1-2.1"/><path fill="#b1b1a0" d="M9.9 20q-.7 0-.7-.7t1.1-.9l2.1-.2q1 0 1.3.4l.4 2q0 1.5-.7.8-.8-.8-1.8-1z"/><path fill="none" stroke="#000" stroke-linecap="round" stroke-linejoin="round" stroke-opacity=".6" stroke-width="__RESOLUTION__" d="m48.3 27.4-.9.4-22.2 9.8v.2l-.5-.2-8.8-4.2m-3.8-1.8-4.3-2M4.7 28l-1.2-.6M.2.3l26.5 9.3M49.2 20l-24-7.8v25.4h0-.5m.5-25.5H25L.3.3" vector-effect="non-scaling-stroke"/><path fill="#332714" d="m34.4 16.7 4.1-.2q5.9 7.1 4.7 12.2L30 34.5q-.3-7.1 1.7-14zm7.5 11q.6-4.2-3.5-9.6V21l.4 6.6.2 1.5 2.9-1.2zm-7.6-9.3q-.5.6-1 2.1.1 3.3-1.5 6.6l-.3 4.2-.2 1.8 5.1-2.6v-.2l-.7-11.5-1-.8z"/><path fill="#3d2d19" d="m38.5 20.9-.1-2.9q4 5.4 3.5 9.6l-1.1-1q-.2-1.8-2.3-5.7m-4.2-2.6.4-.4 1 .8.7 11.5-1.7-1z"/><path fill="#2a4d53" d="M38.5 20.9q2 3.9 2.3 5.7v.3l-2 .6zm-7 10.3.3-4.2q1.6-3.3 1.4-6.6.6-1.5 1.1-2.1l.4 11v.3z"/><path fill="#594324" d="m40.8 26.6 1.1 1v.1l-3 1.3v-1.5l1.9-.6zm-4.4 3.6v.2l-5 2.6.1-1.8 3.2-1.6v-.4z"/></g><g id="l"><path fill="#594324" d="M32.6 24.7v4.7L29 30.7l-.2-5.1v-.1l.2.4z"/><path fill="#856437" d="m29 30.7-5.2-2.3-.2-4.6.1-.4 5 2.2z"/><path fill="#98784d" d="m23.8 23.4 4-.6 4.8 1.8L29 26l-.2-.4v.1z"/><path fill="none" stroke="#000" stroke-linecap="round" stroke-linejoin="round" stroke-opacity=".6" stroke-width="__RESOLUTION__" d="M32.6 24.7v4.7L29 30.7l-5.2-2.3" vector-effect="non-scaling-stroke"/><path fill="#bcbcad" d="M57.4 2.3 57.2.2l.1.1 8 3.5-3.1 1.5zM21 8l12.6 7.2h9l-8.4 4.2-.3-.1-11.2-4.8 2.1-2-5.8 1.1L1.5 3.7 3.4 3 8 .5v1.3z"/><path fill="#9a9978" d="m57.4 2.3 4.8 3 3-1.5.4 1.5q.6 3.2-.5 5.6l-2.8 1.4q.5-3-.1-7l-19.7 9.8-9 .1L20.9 8 33 13.8 57.4 2.5zM34.8 25.8q.4-1.8-1-6.3l.3-.1 8.4-4.2q1.9 3.8 2 5.8z"/><path fill="#8a895e" d="m42.5 15.2 19.7-9.9q.6 4 0 7L44.6 21q-.1-2-2-5.9"/><path fill="#c8c8c4" d="M29.2 26.2 0 11.2l.1-5 1.4-2.6 17.4 10 1.2 5.1 2.4-4.3 11.3 4.8v.2q1.4 4.5 1 6.3l-.2.2z"/><path fill="#adad8f" d="M22.6 14.5 20 18.8l-1.2-5.2 5.9-1.1z"/><path fill="none" stroke="#000" stroke-linecap="round" stroke-linejoin="round" stroke-opacity=".6" stroke-width="__RESOLUTION__" d="m57.4.3-.2-.1.1 2.1v.2L33 13.8 20.9 8 8.1 1.8m54.2 10.5 2.8-1.4q1.1-2.4.5-5.6M29.2 26.1h5.4l.1-.3v.2h-.1m.1-.2 9.8-4.8 17.8-8.7" vector-effect="non-scaling-stroke"/><path fill="#98784d" d="m33.7 77.2-3.6 1.5-.2-.4v.2l-5-1.8v-.1l4-.8z"/><path fill="#594324" d="M29.9 78.5v-.2l.2.4 3.6-1.5.1 4.8-3.6 1.5z"/><path fill="#856437" d="m24.9 76.7 5 1.8.3 5-5.3-1.9-.1-4.5z"/><path fill="none" stroke="#000" stroke-linecap="round" stroke-linejoin="round" stroke-opacity=".6" stroke-width="__RESOLUTION__" d="m30.2 83.5 3.6-1.5-.1-4.8m-3.6 6.3L25 81.6" vector-effect="non-scaling-stroke"/></g><g id="k"><path fill="#503c21" d="m9.1.9.2.5L9 5.9 3.9 7.7l.2-5z"/><path fill="#5b482e" d="m9.1.9-5 1.8v-.2l-.2.5L.3 1.5 5.1 0z"/><path fill="#352816" d="m4.1 2.7-.2 5L.1 6.3l.1-4.7L3.9 3l.2-.5z"/><path fill="none" stroke="#000" stroke-linecap="round" stroke-linejoin="round" stroke-opacity=".6" stroke-width="__RESOLUTION__" d="m3.9 7.8 5.2-2M.3 1.5.2 6.2l3.7 1.5" vector-effect="non-scaling-stroke"/></g><g id="j"><path fill="#46351c" d="M12.8 32q.3-6-1-12.8-1.4-7-5.7-13.5L6 5.5 7 6l.1.2q4.7 5.7 6.1 13t1 13.5z"/><path fill="#4f3b20" d="m6 5.5.1.2q4.4 6.5 5.7 13.5 1.3 6.8 1 12.8l-2.5-1.1q.2-5.6-1-12-1-5.1-4-11.1l.4.4.5.5.3.2.5.3v-.3L6.5 8l-.7-.6-.1-.2-.4-.2h-.2q-.1 0 0 0L3.6 4.5l-.1-.3h.1zm4.5 22.9.1.3q.3.4.6.4l.6-.4.2-.9-.2-1-.1-.2-.5-.3q-.3 0-.6.3l-.2 1z"/><path fill="#332614" d="M14.3 32.7q.4-6.3-1-13.6T7.2 6.2V3.6h.2L15.9 8v24.4z"/><path fill="#634f35" d="m7 6-.9-.5L5.8 3l1.5.7L7.2 6z"/><path fill="#614c30" d="M6.1 5.6 3.6 4.3l.1-2.4 2 1z"/><path fill="#66543b" d="m3.6 4.3-.1-.1L0 2.5V0l3.7 1.9z"/><path fill="#564023" d="m3.5 4.2.1.3L5 7l.1.2.2.3v.2q3 6 4 11.1 1.2 6.4 1 12l-2.6-1.3q2.4-10.1-2.4-19.4V10L4.2 8H4l-.4-.7-.4-.7L0 2.5z"/><path fill="#2c2112" d="M5 7.1h.2l.4.2.1.2.7.6.5.8v.4L6.4 9l-.2-.2h-.1l-.5-.5-.4-.4v-.2L5 7.3zm6.6 19.5v.1l.3 1.1-.2 1-.6.3q-.3 0-.6-.5l-.1-.2-.1-.8.2-1q.3-.4.6-.3z"/><path fill="none" stroke="#000" stroke-linecap="round" stroke-linejoin="round" stroke-opacity=".6" stroke-width="__RESOLUTION__" d="m12.8 32 1.4.7 1.7-.2V8.1m-10-.7.5.6.6.8v.4l-.5-.3-.2-.2m4 22.2 2.5 1.1m-1.1-5.4v.1l.3 1.1-.2 1-.6.3q-.3 0-.6-.5l-.1-.2m-.2 2.5-2.6-1.3" vector-effect="non-scaling-stroke"/><path fill="#4b4a43" d="M10.4 26.8v-.2l.4-.5h.3l.3.2.3.3.4.6v.9l-.3-.1-.7-.4-.2-1 .2 1v.1l.7.3-.7-.4h-.9z"/><path fill="#2d2d27" d="m12.1 28.2-.2.7-.5.4h-.1q-.4 0-.7-.6-.3-.4-.4-1h.9l.7.3zm-.7 1.2-.2-1.6z"/><path fill="none" stroke="#22211c" stroke-linecap="round" stroke-linejoin="round" stroke-width="__RESOLUTION__" d="m12 27.4.2.4-.1.3-.2.8-.5.4h-.1q-.4 0-.7-.6-.3-.4-.4-1l.1-.9h0m.8.8-.2-1m.3 1.1h-.9m.9 0 .7.3m-.7-.2.3 1.5" vector-effect="non-scaling-stroke"/><path fill="#4b4a43" d="M5 7.2V7q0-.2.3-.2h.1l.4.2.5.3.5.5V8l.2.3.2.3-.4-.2-.7-.4H6l.8.4-.7-.4H6l-.8-.2zm.5 0L6 8z"/><path fill="#2d2d27" d="M7.2 8.6v.5q0 .3-.4.2l-.9-.6-.7-.9.8.2.8.4zm-.4.7-.7-1.2z"/><path fill="none" stroke="#22211c" stroke-linecap="round" stroke-linejoin="round" stroke-width="__RESOLUTION__" d="m6.9 8 .1.3.2.3v.5q0 .3-.4.2h0l-.9-.6-.7-.9-.2-.6M6 8l-.8-.2M6 8l-.5-.8M6 8l.8.4m-.7-.3.8 1.2" vector-effect="non-scaling-stroke"/></g><g id="i"><path fill="#41311a" d="M12.8 32q.3-6-1-12.8-1.4-7-5.7-13.5L6 5.5 7 6l.1.2q4.7 5.7 6.1 13t1 13.5z"/><path fill="#49371e" d="m6 5.5.1.2q4.4 6.5 5.7 13.5 1.3 6.8 1 12.8l-2.5-1.1q.2-5.6-1-12-1-5.1-4-11.1l.4.4.5.5.3.2.5.3v-.3L6.5 8l-.7-.6-.1-.2-.4-.2h-.2q-.1 0 0 0L3.6 4.5l-.1-.3h.1zm4.5 22.9.1.3q.3.4.6.4l.6-.4.2-.9-.2-1-.1-.2-.5-.3q-.3 0-.6.3l-.2 1z"/><path fill="#302313" d="M14.3 32.7q.4-6.3-1-13.6T7.2 6.2V3.6h.2L15.9 8v24.4z"/><path fill="#5c4a31" d="m7 6-.9-.5L5.8 3l1.5.7L7.2 6z"/><path fill="#5a472d" d="M6.1 5.6 3.6 4.3l.1-2.4 2 1z"/><path fill="#5f4e37" d="m3.6 4.3-.1-.1L0 2.5V0l3.7 1.9z"/><path fill="#503c21" d="m3.5 4.2.1.3L5 7l.1.2.2.3v.2q3 6 4 11.1 1.2 6.4 1 12l-2.6-1.3q2.4-10.1-2.4-19.4V10L4.2 8H4l-.4-.7-.4-.7L0 2.5z"/><path fill="#291f10" d="M5 7.1h.2l.4.2.1.2.7.6.5.8v.4L6.4 9l-.2-.2h-.1l-.5-.5-.4-.4v-.2L5 7.3zm6.6 19.5v.1l.3 1.1-.2 1-.6.3q-.3 0-.6-.5l-.1-.2-.1-.8.2-1q.3-.4.6-.3z"/><path fill="none" stroke="#000" stroke-linecap="round" stroke-linejoin="round" stroke-opacity=".6" stroke-width="__RESOLUTION__" d="m12.8 32 1.4.7 1.7-.2V8.1m-10-.7.5.6.6.8v.4l-.5-.3-.2-.2m4 22.2 2.5 1.1m-1.1-5.4v.1l.3 1.1-.2 1-.6.3q-.3 0-.6-.5l-.1-.2m-.2 2.5-2.6-1.3" vector-effect="non-scaling-stroke"/><path fill="#46453e" d="M10.4 26.8v-.2l.4-.5h.3l.3.2.3.3.4.6v.9l-.3-.1-.7-.4-.2-1 .2 1v.1l.7.3-.7-.4h-.9z"/><path fill="#2a2a24" d="m12.1 28.2-.2.7-.5.4h-.1q-.4 0-.7-.6-.3-.4-.4-1h.9l.7.3zm-.7 1.2-.2-1.6z"/><path fill="none" stroke="#1f1f1a" stroke-linecap="round" stroke-linejoin="round" stroke-width="__RESOLUTION__" d="m12 27.4.2.4-.1.3-.2.8-.5.4h-.1q-.4 0-.7-.6-.3-.4-.4-1l.1-.9h0m.8.8-.2-1m.3 1.1h-.9m.9 0 .7.3m-.7-.2.3 1.5" vector-effect="non-scaling-stroke"/><path fill="#46453e" d="M5 7.2V7q0-.2.3-.2h.1l.4.2.5.3.5.5V8l.2.3.2.3-.4-.2-.7-.4H6l.8.4-.7-.4H6l-.8-.2zm.5 0L6 8z"/><path fill="#2a2a24" d="M7.2 8.6v.5q0 .3-.4.2l-.9-.6-.7-.9.8.2.8.4zm-.4.7-.7-1.2z"/><path fill="none" stroke="#1f1f1a" stroke-linecap="round" stroke-linejoin="round" stroke-width="__RESOLUTION__" d="m6.9 8 .1.3.2.3v.5q0 .3-.4.2h0l-.9-.6-.7-.9-.2-.6M6 8l-.8-.2M6 8l-.5-.8M6 8l.8.4m-.7-.3.8 1.2" vector-effect="non-scaling-stroke"/></g><g id="h"><path fill="#6d522c" d="M12.8 32q.3-6-1-12.8-1.4-7-5.7-13.5L6 5.5 7 6l.1.2q4.7 5.7 6.1 13t1 13.5z"/><path fill="#7b5c32" d="m6 5.5.1.2q4.4 6.5 5.7 13.5 1.3 6.8 1 12.8l-2.5-1.1q.2-5.6-1-12-1-5.1-4-11.1l.4.4.5.5.3.2.5.3v-.3L6.5 8l-.7-.6-.1-.2-.4-.2h-.2q-.1 0 0 0L3.6 4.5l-.1-.3h.1zm4.5 22.9.1.3q.3.4.6.4l.6-.4.2-.9-.2-1-.1-.2-.5-.3q-.3 0-.6.3l-.2 1z"/><path fill="#503b20" d="M14.3 32.7q.4-6.3-1-13.6T7.2 6.2V3.6h.2L15.9 8v24.4z"/><path fill="#9a7c53" d="m7 6-.9-.5L5.8 3l1.5.7L7.2 6z"/><path fill="#97774b" d="M6.1 5.6 3.6 4.3l.1-2.4 2 1z"/><path fill="#9f835c" d="m3.6 4.3-.1-.1L0 2.5V0l3.7 1.9z"/><path fill="#856437" d="m3.5 4.2.1.3L5 7l.1.2.2.3v.2q3 6 4 11.1 1.2 6.4 1 12l-2.6-1.3q2.4-10.1-2.4-19.4V10L4.2 8H4l-.4-.7-.4-.7L0 2.5z"/><path fill="#44341c" d="M5 7.1h.2l.4.2.1.2.7.6.5.8v.4L6.4 9l-.2-.2h-.1l-.5-.5-.4-.4v-.2L5 7.3zm6.6 19.5v.1l.3 1.1-.2 1-.6.3q-.3 0-.6-.5l-.1-.2-.1-.8.2-1q.3-.4.6-.3z"/><path fill="none" stroke="#000" stroke-linecap="round" stroke-linejoin="round" stroke-opacity=".6" stroke-width="__RESOLUTION__" d="m12.8 32 1.4.7 1.7-.2V8.1m-10-.7.5.6.6.8v.4l-.5-.3-.2-.2m4 22.2 2.5 1.1m-1.1-5.4v.1l.3 1.1-.2 1-.6.3q-.3 0-.6-.5l-.1-.2m-.2 2.5-2.6-1.3" vector-effect="non-scaling-stroke"/><path fill="#757468" d="M10.4 26.8v-.2l.4-.5h.3l.3.2.3.3.4.6v.9l-.3-.1-.7-.4-.2-1 .2 1v.1l.7.3-.7-.4h-.9z"/><path fill="#47463d" d="m12.1 28.2-.2.7-.5.4h-.1q-.4 0-.7-.6-.3-.4-.4-1h.9l.7.3zm-.7 1.2-.2-1.6z"/><path fill="none" stroke="#34342c" stroke-linecap="round" stroke-linejoin="round" stroke-width="__RESOLUTION__" d="m12 27.4.2.4-.1.3-.2.8-.5.4h-.1q-.4 0-.7-.6-.3-.4-.4-1l.1-.9h0m.8.8-.2-1m.3 1.1h-.9m.9 0 .7.3m-.7-.2.3 1.5" vector-effect="non-scaling-stroke"/><path fill="#757468" d="M5 7.2V7q0-.2.3-.2h.1l.4.2.5.3.5.5V8l.2.3.2.3-.4-.2-.7-.4H6l.8.4-.7-.4H6l-.8-.2zm.5 0L6 8z"/><path fill="#47463d" d="M7.2 8.6v.5q0 .3-.4.2l-.9-.6-.7-.9.8.2.8.4zm-.4.7-.7-1.2z"/><path fill="none" stroke="#34342c" stroke-linecap="round" stroke-linejoin="round" stroke-width="__RESOLUTION__" d="m6.9 8 .1.3.2.3v.5q0 .3-.4.2h0l-.9-.6-.7-.9-.2-.6M6 8l-.8-.2M6 8l-.5-.8M6 8l.8.4m-.7-.3.8 1.2" vector-effect="non-scaling-stroke"/></g><g id="g"><path fill="#765e3c" d="M12.8 32q.3-6-1-12.8-1.4-7-5.7-13.5L6 5.5 7 6l.1.2q4.7 5.7 6.1 13t1 13.5z"/><path fill="#826641" d="m6 5.5.1.2q4.4 6.5 5.7 13.5 1.3 6.8 1 12.8l-2.5-1.1q.2-5.6-1-12-1-5.1-4-11.1l.4.4.5.5.3.2.5.3v-.3L6.5 8l-.7-.6-.1-.2-.4-.2h-.2q-.1 0 0 0L3.6 4.5l-.1-.3h.1zm4.5 22.9.1.3q.3.4.6.4l.6-.4.2-.9-.2-1-.1-.2-.5-.3q-.3 0-.6.3l-.2 1z"/><path fill="#5b4930" d="M14.3 32.7q.4-6.3-1-13.6T7.2 6.2V3.6h.2L15.9 8v24.4z"/><path fill="#9e835e" d="m7 6-.9-.5L5.8 3l1.5.7L7.2 6z"/><path fill="#9b7f57" d="M6.1 5.6 3.6 4.3l.1-2.4 2 1z"/><path fill="#a38967" d="m3.6 4.3-.1-.1L0 2.5V0l3.7 1.9z"/><path fill="#8c6d45" d="m3.5 4.2.1.3L5 7l.1.2.2.3v.2q3 6 4 11.1 1.2 6.4 1 12l-2.6-1.3q2.4-10.1-2.4-19.4V10L4.2 8H4l-.4-.7-.4-.7L0 2.5z"/><path fill="#51422d" d="M5 7.1h.2l.4.2.1.2.7.6.5.8v.4L6.4 9l-.2-.2h-.1l-.5-.5-.4-.4v-.2L5 7.3zm6.6 19.5v.1l.3 1.1-.2 1-.6.3q-.3 0-.6-.5l-.1-.2-.1-.8.2-1q.3-.4.6-.3z"/><path fill="none" stroke="#141414" stroke-linecap="round" stroke-linejoin="round" stroke-opacity=".6" stroke-width="__RESOLUTION__" d="m12.8 32 1.4.7 1.7-.2V8.1m-10-.7.5.6.6.8v.4l-.5-.3-.2-.2m4 22.2 2.5 1.1m-1.1-5.4v.1l.3 1.1-.2 1-.6.3q-.3 0-.6-.5l-.1-.2m-.2 2.5-2.6-1.3" vector-effect="non-scaling-stroke"/><path fill="#7d7c71" d="M10.4 26.8v-.2l.4-.5h.3l.3.2.3.3.4.6v.9l-.3-.1-.7-.4-.2-1 .2 1v.1l.7.3-.7-.4h-.9z"/><path fill="#53534b" d="m12.1 28.2-.2.7-.5.4h-.1q-.4 0-.7-.6-.3-.4-.4-1h.9l.7.3zm-.7 1.2-.2-1.6z"/><path fill="none" stroke="#43423b" stroke-linecap="round" stroke-linejoin="round" stroke-width="__RESOLUTION__" d="m12 27.4.2.4-.1.3-.2.8-.5.4h-.1q-.4 0-.7-.6-.3-.4-.4-1l.1-.9h0m.8.8-.2-1m.3 1.1h-.9m.9 0 .7.3m-.7-.2.3 1.5" vector-effect="non-scaling-stroke"/><path fill="#7d7c71" d="M5 7.2V7q0-.2.3-.2h.1l.4.2.5.3.5.5V8l.2.3.2.3-.4-.2-.7-.4H6l.8.4-.7-.4H6l-.8-.2zm.5 0L6 8z"/><path fill="#53534b" d="M7.2 8.6v.5q0 .3-.4.2l-.9-.6-.7-.9.8.2.8.4zm-.4.7-.7-1.2z"/><path fill="none" stroke="#43423b" stroke-linecap="round" stroke-linejoin="round" stroke-width="__RESOLUTION__" d="m6.9 8 .1.3.2.3v.5q0 .3-.4.2h0l-.9-.6-.7-.9-.2-.6M6 8l-.8-.2M6 8l-.5-.8M6 8l.8.4m-.7-.3.8 1.2" vector-effect="non-scaling-stroke"/></g><g id="f"><path fill="#332714" d="m58.6 18.3-.1 7.1-22.3 10.8v-7.4l21.7-10.2zl-.7.4-21.7 10.2-.1.1-1.6-.7.5-.3.1-15.6 22.7-11 .1 16.7h-1.4L35 27.9l21.4-9.7h2.2m-.7.4v-.4z"/><path fill="none" stroke="#000" stroke-linecap="round" stroke-linejoin="round" stroke-opacity=".6" stroke-width="__RESOLUTION__" d="M36.2 28.8v7.4l22.3-10.8v-7.1l-.6.3zm-.1.1v.1M58 18.2l-.2-16.7-22.6 10.8-.1 15.6 21.4-9.7zh.7M36 29l-1.6-.7.5-.3m22.9-9.7v.4" vector-effect="non-scaling-stroke"/><path fill="#664b22" d="m28.8 39.5-.4-26.1 3 .1.7 30.4z"/><path fill="#9a7438" d="m28.8 39.5 3.3 4.4.4 22.7-3.4-1.3z"/><path fill="none" stroke="#000" stroke-linecap="round" stroke-linejoin="round" stroke-opacity=".6" stroke-width="__RESOLUTION__" d="m31.5 13.5-3.1-.1.4 26.1.3 25.8 3.4 1.3" vector-effect="non-scaling-stroke"/><path fill="#4d381a" d="m31.4 13.5 3.9-1.1.3 53.5-3.4 1.3z"/><path fill="none" stroke="#000" stroke-linecap="round" stroke-linejoin="round" stroke-opacity=".6" stroke-width="__RESOLUTION__" d="m31.4 13.5 3.9-1.1.3 53.5-3.4 1.3" vector-effect="non-scaling-stroke"/><path fill="#98784d" d="m.2 54.2 4-.9L9 54.8l-3.6 1.5-.2-.4v.1z"/><path fill="#856437" d="m.2 54.2 5 1.8.2 5-5.2-1.9-.1-4.5z"/><path fill="#594324" d="M5.2 56v-.1l.2.4L9 54.8l.1 4.7-3.6 1.6z"/><path fill="none" stroke="#000" stroke-linecap="round" stroke-linejoin="round" stroke-opacity=".6" stroke-width="__RESOLUTION__" d="m9 54.8.1 4.7-3.6 1.6-5.3-2" vector-effect="non-scaling-stroke"/><path fill="#394024" d="m60.7 57.9 3.4-1.6.7 36.4-3.4 1.7z"/><path fill="none" stroke="#000" stroke-linecap="round" stroke-linejoin="round" stroke-opacity=".6" stroke-width="__RESOLUTION__" d="m60.7 57.9 3.4-1.6.7 36.4-3.4 1.7z" vector-effect="non-scaling-stroke"/><path fill="#664b22" d="m61.3.2.3 53.6-3.4 1.1-.5-53.5z"/><path fill="none" stroke="#000" stroke-linecap="round" stroke-linejoin="round" stroke-opacity=".6" stroke-width="__RESOLUTION__" d="m61.3.2.3 53.6-3.4 1.1-.5-53.5z" vector-effect="non-scaling-stroke"/></g><g id="e"><path fill="#42311b" d="m3 1.3 20.5 10v2.9q-7-6-20.3-9.4zm20.6 14v1.8L3.3 7.4v-.9q15.7 4.8 20.3 8.9M1.4.7V.5h.1z"/><path fill="#4a3a24" d="M23.6 14.2v1.2Q19 11.3 3.3 6.5l-.1-1.7q13.4 3.5 20.4 9.4M17 23.7q-.5-.2-.7.1l-1 .3q-.8.1-2.8-1.1t-1.2-1.2h2q1.2 0 3 1.4z"/><path fill="#3a2b18" d="M23.6 17.1v1.1q-3 .4-20.2-5.8l-.1-5zm0 3.1.1 3.1-20.2-9.7.1-.2q14.6 6.3 20 6.9"/><path fill="#3e2f19" d="M23.7 18.2v2q-5.6-.5-20.1-6.8l-.1.2v-1.2q17.1 6.2 20.2 5.8m.1 9v.7q-9.7-2.2-20-8.8l-.1-1.5q13.1 2.5 20.1 9.5m-6.7-3.5-.7-.4q-1.8-1.3-3-1.4h-2q-.8 0 1.2 1.2 2 1.3 2.8 1.1l1-.3q.3-.3.8-.2 1.1.8 1 .6t-.7-.4z"/><path fill="#342715" d="m23.7 23.3.1 3.8q-7-7-20.1-9.5l-.2-4zm.1 4.6v2.8l-20-10.1V19q10.3 6.6 20 8.9M1.5.5l1.5.8.1 3.5.1 1.7v1l-1.6-.8-.2-6zm15.7 23.2h.3q.5.2.7.5t-1-.6"/><path fill="#392b17" d="M23.9 30.7v1.2q-8.5 1.8-20-9.3l-.1-2z"/><path fill="#322514" d="M23.9 31.9v3.7L4.1 26.4l-.2-3.8q11.5 11 20 9.3"/><path fill="#291f11" d="M23.9 35.6v.9Q14 33.3 4.1 28v-1.6zm0 3.2v1.9l-19.6-8v-1q10.1 2.7 19.6 7.1"/><path fill="#2f2313" d="M23.9 36.5v2.3q-9.4-4.4-19.6-7.1L4 28q9.9 5.3 19.8 8.5M1.6 6.7l1.7.8.2 4.9v1.2l.2 4V19l.1 1.6.1 2 .1 3.8-2-1z"/><path fill="#2a2011" d="m4.3 32.8-2.2-1-.2-6.4 2.1 1 .1 1.6.2 3.6z"/><path fill="#21190d" d="m2 31.9-1.4-.3L0 0l1.4.7.2 6 .3 18.7z"/></g><g id="d"><path fill="#332714" d="m3.8 19.7 2.2-.1L5 4.1l22.7 10.5v15h.2l-.2.1-1.4.7-.1-.2zm2.2-.1 21.7 10v.1-.1z"/><path fill="#44331b" d="M26.2 30.4v7.3L3.9 26.9l-.1-7.2 22.4 10.5z"/><path fill="none" stroke="#000" stroke-linecap="round" stroke-linejoin="round" stroke-opacity=".6" stroke-width="__RESOLUTION__" d="m3.8 19.7 2.2-.1h0L5 4.1l22.7 10.5v15h.2l-.2.1-1.4.7h-.1v7.3L3.9 26.9zl22.4 10.5v.2m1.5-.7v-.1L6 19.6" vector-effect="non-scaling-stroke"/><path fill="#a48454" d="M1 53.6 0 0l3.6 2.1.7 52.8z"/><path fill="none" stroke="#000" stroke-linecap="round" stroke-linejoin="round" stroke-opacity=".6" stroke-width="__RESOLUTION__" d="m1 53.6 3.4 1.3-.8-52.7" vector-effect="non-scaling-stroke"/></g><g id="c"><path fill="#856437" d="m3 1.3 20.5 10v2.9q-7-6-20.3-9.4zm20.6 14v1.8L3.3 7.4v-.9q15.7 4.8 20.3 8.9M1.4.7V.5h.1z"/><path fill="#967649" d="M23.6 14.2v1.2Q19 11.3 3.3 6.5l-.1-1.7q13.4 3.5 20.4 9.4M17 23.7q-.5-.2-.7.1l-1 .3q-.8.1-2.8-1.1t-1.2-1.2h2q1.2 0 3 1.4z"/><path fill="#745730" d="M23.6 17.1v1.1q-3 .4-20.2-5.8l-.1-5zm0 3.1.1 3.1-20.2-9.7.1-.2q14.6 6.3 20 6.9"/><path fill="#7e5f34" d="M23.7 18.2v2q-5.6-.5-20.1-6.8l-.1.2v-1.2q17.1 6.2 20.2 5.8m.1 9v.7q-9.7-2.2-20-8.8l-.1-1.5q13.1 2.5 20.1 9.5m-6.7-3.5-.7-.4q-1.8-1.3-3-1.4h-2q-.8 0 1.2 1.2 2 1.3 2.8 1.1l1-.3q.3-.3.8-.2 1.1.8 1 .6t-.7-.4z"/><path fill="#6a502b" d="m23.7 23.3.1 3.8q-7-7-20.1-9.5l-.2-4zm.1 4.6v2.8l-20-10.1V19q10.3 6.6 20 8.9M1.5.5l1.5.8.1 3.5.1 1.7v1l-1.6-.8-.2-6zm15.7 23.2h.3q.5.2.7.5t-1-.6"/><path fill="#745630" d="M23.9 30.7v1.2q-8.5 1.8-20-9.3l-.1-2z"/><path fill="#644c29" d="M23.9 31.9v3.7L4.1 26.4l-.2-3.8q11.5 11 20 9.3"/><path fill="#543f23" d="M23.9 35.6v.9Q14 33.3 4.1 28v-1.6zm0 3.2v1.9l-19.6-8v-1q10.1 2.7 19.6 7.1"/><path fill="#5f4727" d="M23.9 36.5v2.3q-9.4-4.4-19.6-7.1L4 28q9.9 5.3 19.8 8.5M1.6 6.7l1.7.8.2 4.9v1.2l.2 4V19l.1 1.6.1 2 .1 3.8-2-1z"/><path fill="#554023" d="m4.3 32.8-2.2-1-.2-6.4 2.1 1 .1 1.6.2 3.6z"/><path fill="#43321c" d="m2 31.9-1.4-.3L0 0l1.4.7.2 6 .3 18.7z"/></g><g id="b"><path fill="#313025" d="M32.9 13.6 62 0l2.5 1v.1l-28 13.6-3.5 1.6-3.3-1.1 2.3-.9z"/><path fill="#a7a59b" d="m32.9 13.6-.8.7-2.3.9-.2-.1v.1L15.4 9.8 6.8 6l-.1-.6-.8.2.8.4v-.6l3.2-1.3zM6.8 7.5l4.1 2.5q1.6 18.7-3.3 9.8L7 14.5l-.2-3.1zl.2 7z"/><path fill="#3b3e29" d="m29.8 15.2 3.3 1.1.1 5.6-3.6-2.7v-4z"/><path fill="#2b301a" d="m33.2 16.3 3.3-1.6.2 8.2-3.5-1zM5.3 5.7h.5l.8.4.1 1.3v4l-1.4-.8z"/><path fill="#444234" d="m36.6 14.7 28-13.6.7 35.7.1 1-28.3 12.5-.4-27.4zM15 64.3l-5 2.3.3-8.9.4-10.9v-1.1q.1-.9 1.4-1.3l-.1-4.8v-.2q1.9-1 3.7-.6l3.3 4.8-3.1.8.1 4.9 4-1 .8 3.8-1.5.4.1 3.5h-.1l-2.3.5v.5l.1 3.4h-.3l-1.6.7H15zm45-46.8q.3-1.8-.7-2.3l-4.4-1.7q-3.2-1.2-4.4 1.7-1.1 2.8-.7 4.7.3 1.9 1.3 1.4t3.3-1.6 3.9-.7 1.8-1.5M51.9 31l-1.2-2.7q-1-2.5-1.8-3.2-.9-.9-3.9-.9-2.9 0-2.9 1.6v3.8q0 2.4 2 3.5t5-.4 2.8-1.7m6.7 2.8-2.7.4-3.3.1q-1.6.5-1.6 3.1 0 2.7 1.9 1.9 1.9-.7 3.5-.5 1.6.4 2.8-1 1-1.3.8-3-.2-1.5-1.4-1M42.4 43q-.5-.2-2 .7-1.4.9-.5 2.2.7 1.5 3.7.8 3-.9 5.3-2t1.4-2.2q-.8-1-2.7-.4l-3.4.8zM17 54.1v-2l-.8-1.5H16l-2.5.5.2 3.9z"/><path fill="#66624c" d="m65.3 36.8 3.5 2-18 8.2-7.3 3.2-10 4.5h-.2l-6.8-2.2-1.6-.6v-.6l1.5-.6 3.8.9v.7l3.3.9V53l3.6-1.8v-1l28.3-12.4z"/><path fill="#595443" d="m68.9 38.8.6 21.5-11 5.4Q56 61.1 50 58.5l-1-4 1.8-7.5zm-17-7.8q.3.3-2.7 1.8t-5 .3-2-3.5v-3.9q0-1.4 3-1.4 2.9 0 3.8.8.9.7 1.8 3.1zm6.8 2.8q1.1-.5 1.4 1 .3 1.7-.9 3t-2.7 1-3.5.5-1.9-1.9 1.6-3.1l3.3-.1zm.6 15 2.3 2.5 6.5.5v-4.7l-2-2.6-5.3.8z"/><path fill="#4d483a" d="m58.5 65.7-9.7 4.9q-1.3-4.3-3.5-7.8l4.7-4.3q6 2.6 8.5 7.2M60 17.5q-.2 1.7-1.7 1.5-1.5-.3-3.9.7T51 21.3t-1.2-1.4q-.4-2 .8-4.7 1-2.9 4.3-1.7l4.4 1.7q1 .5.8 2.3M42.3 42.9l1.9-.1 3.3-.8q1.9-.6 2.7.4t-1.4 2.2q-2.4 1.1-5.3 2-3 .6-3.7-.8-.9-1.3.6-2.2 1.4-1 1.9-.7m1.1 7.3 7.3-3.2-1.7 7.5-2 .8zM25 46.9l-.1 2.4L22 48zm-3 4.8 1.8.7-.1 2.7-4.4-2.7 1.5-.4zm1.5 6.5v2.5Q20.4 60 17 57v-.5l2.3-.4q2.5 1.9 4.3 2.2m-.3 5.7v.9l-1.7.4q-3.2-1.5-6.4-4.2l1.6-.7.2.2q3.3 2.3 6.3 3.4"/><path fill="#77705c" d="m48.8 70.6-8 3.9-7.3 2.2v-2.2l-.1-3-.1-10.2 5.2-1.6 5.5 1.2 1.3 1.9q2.2 3.5 3.5 7.8M68 47v4.7l-6.5-.5-2.2-2.5h-.1l1.5-3.5 5.3-.8z"/><path fill="#c2c1bd" d="M33.5 76.7 26 74.4l.4-3.1q4 .8 7 3.2zm-7-24.2 6.9 2.2v6.6l-3.1-1q-4.5-1.3-3.7-7.8"/><path fill="#afac92" d="m26 74.4-3-1.2v-1.9l.1-3 .2-2.5v-1l.1-.9.2-3.1v-2.6l.2-3.1.1-2.7v-.8l1 .3 1.6.6q-.8 6.5 3.7 7.8l-5.7.8q.4 1.6.6 3.3 0 2-.5 4.3 4.3 2.3 8.8 2.8v3q-3-2.4-7-3.2z"/><path fill="#a6a49c" d="M23 71.3q-2 3-9.1-2-1.7-1.6-1.4-2.7l8.3.7.8-2.1 1.7.6-.2 2.5zm-2.4-4 2.4 1z"/><path fill="#868170" d="M12.5 66.6q.2-.8 1.3-1.3l1.1-1h.1v-3.2l.3-.1q3.1 2.8 6.3 4.2l-.9 2.1Q18 66 15.2 64.2q2.8 1.8 5.7 3.1zm21-11.8 10-4.6 3.5 5 2-.7 1 4-4.7 4.3-1.2-1.9-5.6-1.2-5.2 1.6v-6.5zm-8.6-5.5v2l-1 .3v.8l-1.8-.7L22 48zm-5.5 3.2 4.4 2.7-.2 3q-1.7-.2-4.2-2l.1-.2zm4.2 8.4-.2 3.1q-3-1.1-6.3-3.4l.1-.2-.1-3.4q3.3 3 6.5 3.9"/><path fill="#b6b4a0" d="M10 66.5.3 61.2l-.1-4.9q3.5-2 2.5-13.8l2.3.8 1.8.8q-1.7 7 .2 8.7.7.6 1.8.5l.3.7-.6.4q-1.1.9-1.8 2.6-.3.8-.2 1.3.2 1.3 3.4-.7h.5zm19.6-51.2v3.9l.4 22-2.8-4.4-.1.1-.5-1-.5-.9-2.6-3.7q-2.3-2.6-5-3.4v-3.1l-2.2-.3-.3 3.1q-2 0-4.3.9.2-5.7-3.7-4.2l-.5 6.5L7 14.5l.6 5.3q4.9 8.9 3.3-9.8L6.8 7.5V6l8.6 3.6-2.8 1 .6 12.5 6.9-.6h.4q4.4.1 7.6 1.6l.5-4.9.2-.7v-.1zm-2.2 11-2.2-1.4q-1.5-1-3.5-.1t-2.4 1.4q-.2.3 0 .6l1.8 1.2q2.3 1.1 3.2 1.1l2.3.2q1.4.3 1.4-1.1t-.6-1.9m-20 7.2q1.7-1.1 3.2-1.5v3.3q-1.4-.6-3.2.7zm0 3.4q.8 1.6 3.2 2.3v1Q8.7 39 7.4 39zm19.2 7 1 .1-.6.1h-.4zM5.2 56.7l-2.7.7v3q3 .7 2.7-3.7m-.1-4.5q-1.9-.5-1.9 3.4 4.4-.1 1.9-3.4"/><path fill="#c8c8c4" d="m.2 56.3.2-14.6v-.4l2.3 1.2q1 11.8-2.5 13.8M33.5 53v.2zm-3.2-.7h-.1v-.7l-3.8-1 .2-6.4.4-.1q1.6 0 3.1 2.5l.1 5zm-.6-37.1h.2zM15.4 9.7l14.2 5.6-.8 3.2v.1l-.2.7-.5 4.9q-3.2-1.5-7.6-1.6h-.4l-6.9.6-.6-12.4zm4 17.1q-.3-.3-.1-.6.3-.6 2.4-1.4 2-.8 3.5 0l2.2 1.5q.6.5.6 1.9t-1.4 1.1l-2.3-.2q-.9 0-3.2-1.1zm-8.8 8.5v.5l-2.1.7 2 1.7v1q-2.2-.7-3.1-2.3v-1q1.8-1.2 3.2-.6M6.9 44l3.9 1.5q-.2.5 0 1.1l-.4 10.9H10q-3.2 2-3.4.7-.1-.5.2-1.3.7-1.7 1.8-2.6l.7-.4-.4-.7q-1.2.1-1.8-.5Q5.2 51 6.9 44M2.6 60.3v-2.9l2.7-.7q.3 4.4-2.7 3.6m.7-4.7q0-3.9 1.9-3.4 2.5 3.3-1.9 3.4"/><path fill="#c6c5bf" d="m.5 41.3 1.9-.6.7.3L5 43.3l-2.3-.8z"/><path fill="#84905e" d="M2.4 40.7 1.8 6.3l3.6 4.3.3 21.4q-.9 1.4-1.3 2.5v.3q-.2.5-.1.8l1.4-.9v7.5h-.1L3.1 41z"/><path fill="#556035" d="M1.8 6.3V3.7l3.5 1.2v.8l.1 4.9z"/><path fill="#394024" d="M37.2 50.3v.9L33.4 53l-.3-31.1 3.5 1zM7 14.5l.5 16.3L5.7 32l-.3-21.4 1.4.8zM5.7 34.9l1.8-1.3-.1 2.5V39l-.1 2.8h-.1l-1.5.3z"/><path fill="#585c3f" d="m33.5 53.2-3.2-.9-.1-.7v-5L30 43v-1.9l-.5-22 3.6 2.7.3 31.1z"/><path fill="#594324" d="m26.4 50.7-1.5.5V47l.1-3h1.6v.2zM10.6 38.2l1.5 1v.3l.1 4.8-1.6-.7z"/><path fill="#c2c2b1" d="m7.5 30.8.4-6.5q4-1.6 3.8 4.2l-1.9.9zm3 12.8-3.2-1.7v-2.8q1.4 0 3.3 1zm17 .4 2.5-1v3.6Q28.7 44 27 44z"/><path fill="#b17018" d="M11.7 28.5q2.3-.9 4.3-.9L13.9 29l2.6.6 2-1.7q2.7.8 5 3.4-2.6.8-6.1.6l-.1-.1Q16 31 15 30.6l-4 .1-1.2-1.3z"/><path fill="#a8885b" d="m16 27.6.3-3.1 2.2.3v3.1z"/><path fill="#865412" d="M23.6 31.3 26 35q-2.7.3-6.4-1l-2.3-2.1q3.5.2 6.2-.6"/><path fill="#623f0d" d="m26.2 35 .4 1 .5.9-.3.9-1.7 1.2-1.6.4q-1.8-3.3-3.7-5.4 3.6 1.3 6.3 1"/><path fill="#9b986c" d="m27.1 36.9 2.9 4.4v1.9l-2.5.9h-1l.2-6.2.4-.5z"/><path fill="#c1a886" d="m5.7 32 1.8-1.2 2.3-1.4 1.3 1.3q-1.8.4-3.6 1.6l-3.1 2.2q.4-1.1 1.3-2.5"/><path fill="#b49e7f" d="m16 27.6 2.4.3-1.9 1.7-2.6-.6z"/><path fill="#b69774" d="m11 30.7 4-.1q1.1.4 2.3 1.2l.1.1 2.4 2q1.9 2.2 3.8 5.5l-1 .1h-.2q-4-6.8-8.1-7.8H12z"/><path fill="#c8beb0" d="m12 31.7-1.4.3q-1.5.4-3.1 1.5l-1.8 1.3-1.4.8v-.9l.1-.2 3-2.2q1.9-1.2 3.7-1.6z"/><path fill="#2c2b23" d="m10.6 32 1.3-.3h2.4q4.1 1 8.1 7.8h.2l1-.1L25 39v7.9l-3 1.2.1 3.6-1.2.3-.8-3.8-4 1-.1-5 3.1-.7-3.4-4.8q-1.7-.4-3.6.5l-1.5-1zm1.4 1.5.1 5.8zm0-.7v-1.1zm4.9 21.3-3.3.9-.2-3.9 2.5-.5h.2l.8 1.5z"/><path fill="#a5a380" d="M10.6 35.8v2.4l-2.1-1.7zm-4.9 6.4 1.5-.4.1.1 3.3 1.7 1.6.7q-1.2.4-1.4 1.3l-4-1.5-1.8-.8L3 41z"/><path fill="#42311b" d="m26.8 37.8-.2 6.2-1.6-.2V39z"/><path fill="#b4b39d" d="m30.2 60.3 3.1 1 .1 10.2q-4.5-.5-8.7-2.8.4-2.2.4-4.3-.2-1.7-.6-3.3z"/><path fill="#66604c" d="m23.4 64.8-.1 1-1.7-.6z"/><path fill="none" stroke="#000" stroke-linecap="round" stroke-linejoin="round" stroke-opacity=".6" stroke-width="__RESOLUTION__" d="m29.8 15.2 3.3 1.1.1 5.6.3 31.1 3.6-1.8v-1l28.3-12.4-.1-1L64.6 1m.7 35.7 3.5 2 .7 21.5-11 5.4-9.7 4.9-8 3.9-7.3 2.2-7.5-2.3h0l-3-1.2v-1.9l.1-3-2.4-1q-2.7-1.2-5.5-3l-.1.1h0L10 66.6h0-.1L.3 61.2M1.8 3.7l3.5 1.2v.8m53.9 43v.1l2.3 2.5 6.5.5v-4.7M33.6 53v.2h-.1l-3.2-.9h-.1v-.7l-3.8-1-1.5.6v.7l1.6.6 6.8 2.2h.2l10-4.5 7.3-3.2 18-8.2m-39-23.6-.2-.1v.1h0m7.1 7.7-.2-8.2m.2 8.2.4 27.4M6.8 6l-.1-.6m.1 1.9.2 7 .5 16.4L5.7 32q-.9 1.4-1.3 2.5m7.3-6q2.3-.9 4.3-.9l.3-3.1 2.2.3v3.1q2.7.8 5 3.4l2.6 3.7.5 1 .5.9.1.4-.4.5.3-.9M6.8 7.4V6.1m.7 24.7 2.3-1.4 1.8-.9m6.9-.6-2.5-.3-2.1 1.4 2.6.6zm-8 4 1.4-.2h2.4q4.1 1 8.1 7.8h.2l1-.1L25 39l1.8-1.2-.2 6.2v.1h0l-.2 6.6m-22-16q-.2.5-.1.9l1.4-.9 1.8-1.2q1.6-1.1 3-1.5v11.6l1.7.7q-1.2.4-1.4 1.3-.2.5 0 1.1v-1.1m1.3-6.4-.1-5.7m0-1.8v1.1M7.4 36v3l-.1 2.8 3.3 1.7m-3.1-10L7.4 36m-1.8 6.2h.1zL3.1 41m4.2.9-1.5.3m6.4-2.8.1 4.8M25.1 39l-.1 4.8V47l-.1 2.4v2l-1 .3 1 .3M22 48.1l3-1.2m-.1 2.4L22 48l.1 3.6 1.8.7v-.8m.8 17.1q4.2 2.3 8.7 2.8M22.1 51.7l-1.2.3-1.5.4 4.4 2.7m-2.2 10q-3.2-1.3-6.4-4.1H15v3.3h0m6.6.9 1.7.6m-12.8-8.2.3-10.9m8.6 9.4V56l-2.3.4v.5q3.3 3 6.5 3.9M19.4 56q2.5 1.8 4.3 2m-4.4-2 .1-.1-.1-3.5m-2.5 8-1.6.6m1.9-.7h-.3l.2.2q3.3 2.3 6.3 3.4m-6.2-3.6-.1-3.4m-7 9.6.3-8.9" vector-effect="non-scaling-stroke"/><path fill="none" stroke="#000" stroke-linecap="round" stroke-linejoin="round" stroke-opacity=".4" stroke-width="__RESOLUTION__" d="m13.2 23.2 6.9-.6h.4q4.4.1 7.6 1.6l.5-4.9.2-.7m0-.1.8-3.2m-2.2 11q.6.5.6 1.9t-1.4 1.1l-2.3-.2q-.9 0-3.2-1.1l-1.7-1.2M10.9 10q1.6 18.7-3.3 9.8M6.5 58.3q.2 1.3 3.4-.7h.5M7 52.8q.7.6 1.8.5l.3.7-.6.4m-6 6q3 .7 2.7-3.7m-.1-4.5q2.5 3.3-1.9 3.4m-3 .7q3.5-2 2.5-13.8" vector-effect="non-scaling-stroke"/></g><clipPath id="a"><path d="M1 1h97v234H1z"/></clipPath></defs><g clip-path="url(#a)"><g transform="translate(23.1 209.75)"><use xlink:href="#b" width="69.7" height="76.9" transform="matrix(1.3777 0 0 1.3832 -21.4 -81.9)"/><use xlink:href="#c" width="23.9" height="40.6" transform="matrix(1.3777 0 0 1.3832 -10.25 -119.8)"/><use xlink:href="#d" width="28.1" height="55" transform="matrix(1.3777 0 0 1.3832 -15.4 -156.95)"/><use xlink:href="#e" width="23.9" height="40.6" transform="matrix(-1.3777 .0643 0 1.4308 60.5 -124.25)"/><use xlink:href="#f" width="65" height="94.6" transform="matrix(1.3777 0 0 1.3832 -20.5 -157.95)"/><use xlink:href="#g" width="16.1" height="32.9" transform="matrix(1.3777 0 0 1.3832 -22.1 -159.85)"/><use xlink:href="#h" width="16.1" height="32.9" transform="matrix(1.3777 0 0 1.3832 -3.15 -150.65)"/><use xlink:href="#i" width="16.1" height="32.9" transform="matrix(-1.3777 0 0 1.3832 68.3 -160.95)"/><use xlink:href="#j" width="16.1" height="32.9" transform="matrix(-1.3777 0 0 1.3832 50 -151.3)"/><use xlink:href="#k" width="9.3" height="8" transform="matrix(1.3785 -.1651 .0716 1.3738 21.95 -143.35)"/><use xlink:href="#l" width="66" height="83.7" transform="matrix(1.3777 0 0 1.3832 -21.9 -175.45)"/><use xlink:href="#k" width="9.3" height="8" transform="matrix(1.3777 0 0 1.3832 24.3 -70.5)"/><use xlink:href="#k" width="9.3" height="8" transform="matrix(1.3777 0 0 1.3832 57.85 -87.3)"/><use xlink:href="#m" width="52.8" height="138.7" transform="matrix(1.3777 0 0 1.3832 -11 -208.75)"/></g></g></svg>