<svg xmlns="http://www.w3.org/2000/svg" xmlns:xlink="http://www.w3.org/1999/xlink" width="78" height="171" viewBox="0 0 78 171"><defs><g id="I"><path fill="url(#a)" d="M-13.2 39.3Q-14.7 7-9.6 5.3q6.5-2 14.5-3.6.6-.7-.5 13.7l-.9 5.5-6.6-.5-1.6-.1q-.2 0-.9 2.2-.8 2.6-.8 4.9 0 .9.9 2.6.8 1.6.8 2.9 0 1-1.2 2.6t-2.4 1.7q-1.5 0-3.1-.8-.8 0-1.8 2.9" transform="translate(14 -1.15)"/><path fill="#d8c744" d="M.8 38.2q1-3 1.8-3 1.6.9 3.1.9 1.1 0 2.4-1.7t1.2-2.6q0-1.3-.9-3t-.8-2.6q0-2.2.8-4.8.7-2.3 1-2.3l1.4.1 6.8.6Q14.6 33.9 2 58.6 1 47.2.8 38.1"/><path fill="none" stroke="#47440f" stroke-linecap="round" stroke-linejoin="round" stroke-opacity=".3" stroke-width="1" d="m17.6 19.8.8-5.6Q19.6-.2 18.9.6 10.9 2 4.4 4.2q-5 1.6-3.6 34 .4 9 1.3 20.4Q14.6 34 17.6 19.9"/></g><g id="H"><path fill="#c0cb2e" d="M41 13.7h.1q17.3-8 23.7-8.6l6.7-.3-6.7 2-.6.1Q55 10.4 42.6 17.5h-1.9l-.1-1.9zq7.4-4.9 19.6-9.9-2.4-1.2-4.2-3.3Q50.9 2.6 45 6.1l-1.5 2.5q-1.7 2.7-2.5 5M18.3 27.2l3.6 2q-.1 1.3-2 2.6-2.7 1.7-11.6 5.5 5.2-5.4 10-10.1"/><path fill="#a7ad27" d="M64.8 5q-6.4.7-23.7 8.7 7.3-4.9 19.5-9.9 1.9.9 4.2 1.2"/><path fill="#c5ae4a" d="m41 13.7-.4 1.9.1 1.8 2 .1Q32.3 23.4 20 31.9l-.2-.2q2-1.2 2.1-2.6l-3.6-2Q32.6 13.5 45 6.1l-1.5 2.5q-1.7 2.7-2.5 5"/><path fill="#878a23" d="m64.9 6.7 6.6-1.9q7.3.6 21 12.2Q70.3 5.3 64.8 6.7"/><path fill="#c0a147" d="m19.8 31.7.2.2L.5 45.8l7.8-8.5v-.1q8.9-3.8 11.5-5.5"/><path fill="none" stroke="#44410d" stroke-linecap="round" stroke-linejoin="round" stroke-opacity=".3" stroke-width="1" d="M42.7 17.5Q55 10.3 64.2 7l.6-.3 6.7-1.9q7.3.6 21 12.2Q70.3 5.3 64.8 6.7M45 6.1q-12.5 7.5-26.7 21-4.8 4.7-10 10.1h0L.5 45.9l19.5-14q12.4-8.5 22.7-14.4M45 6.1Q50.9 2.6 56.4.5m15.1 4.3-6.7.2q-2.3-.3-4.2-1.2-2.4-1.2-4.2-3.3"/></g><g id="G"><path fill="url(#b)" d="M2-6q8-20 60.8 15.7Q9.8-8.4 2.1-6" transform="translate(1.8 13.65)"/><path fill="none" stroke="#3c390a" stroke-linecap="round" stroke-linejoin="round" stroke-opacity=".3" stroke-width="1" d="M3.9 7.6q-.6 1.3-.9 2.9L.5 13.6q.3-2.2 2.5-3.1-1.3-2.2.8-2.9 8-20 60.8 15.8Q11.6 5.2 3.9 7.6"/></g><g id="F"><path fill="url(#d)" d="M-13.2 39.3Q-14.7 7-9.6 5.3q6.5-2 14.5-3.6.6-.7-.5 13.7l-.9 5.5-6.6-.5-1.6-.1q-.2 0-.9 2.2-.8 2.6-.8 4.9 0 .9.9 2.6.8 1.6.8 2.9 0 1-1.2 2.6t-2.4 1.7q-1.5 0-3.1-.8-.8 0-1.8 2.9" transform="translate(14 -1.15)"/><path fill="#8f8536" d="M.8 38.2q1-3 1.8-3 1.6.9 3.1.9 1.1 0 2.4-1.7t1.2-2.6q0-1.3-.9-3t-.8-2.6q0-2.2.8-4.8.7-2.3 1-2.3l1.4.1 6.8.6Q14.6 33.9 2 58.6 1 47.2.8 38.1"/><path fill="none" stroke="#1b1c0c" stroke-linecap="round" stroke-linejoin="round" stroke-opacity=".3" stroke-width="1" d="m17.6 19.8.8-5.6Q19.6-.2 18.9.6 10.9 2 4.4 4.2q-5 1.6-3.6 34 .4 9 1.3 20.4Q14.6 34 17.6 19.9"/></g><g id="E"><path fill="#7c8824" d="M41 13.7h.1q17.3-8 23.7-8.6l6.7-.3-6.7 2-.6.1Q55 10.4 42.6 17.5h-1.9l-.1-1.9zq7.4-4.9 19.6-9.9-2.4-1.2-4.2-3.3Q50.9 2.6 45 6.1l-1.5 2.5q-1.7 2.7-2.5 5M18.3 27.2l3.6 2q-.1 1.3-2 2.6-2.7 1.7-11.6 5.5 5.2-5.4 10-10.1"/><path fill="#68701f" d="M64.8 5q-6.4.7-23.7 8.7 7.3-4.9 19.5-9.9 1.9.9 4.2 1.2"/><path fill="#7f713b" d="m41 13.7-.4 1.9.1 1.8 2 .1Q32.3 23.4 20 31.9l-.2-.2q2-1.2 2.1-2.6l-3.6-2Q32.6 13.5 45 6.1l-1.5 2.5q-1.7 2.7-2.5 5"/><path fill="#4e541b" d="m64.9 6.7 6.6-1.9q7.3.6 21 12.2Q70.3 5.3 64.8 6.7"/><path fill="#7c6739" d="m19.8 31.7.2.2L.5 45.8l7.8-8.5v-.1q8.9-3.8 11.5-5.5"/><path fill="none" stroke="#181a0b" stroke-linecap="round" stroke-linejoin="round" stroke-opacity=".3" stroke-width="1" d="M42.7 17.5Q55 10.3 64.2 7l.6-.3 6.7-1.9q7.3.6 21 12.2Q70.3 5.3 64.8 6.7M45 6.1q-12.5 7.5-26.7 21-4.8 4.7-10 10.1h0L.5 45.9l19.5-14q12.4-8.5 22.7-14.4M45 6.1Q50.9 2.6 56.4.5m15.1 4.3-6.7.2q-2.3-.3-4.2-1.2-2.4-1.2-4.2-3.3"/></g><g id="D"><path fill="url(#e)" d="M2-6q8-20 60.8 15.7Q9.8-8.4 2.1-6" transform="translate(1.8 13.65)"/><path fill="none" stroke="#121408" stroke-linecap="round" stroke-linejoin="round" stroke-opacity=".3" stroke-width="1" d="M3.9 7.6q-.6 1.3-.9 2.9L.5 13.6q.3-2.2 2.5-3.1-1.3-2.2.8-2.9 8-20 60.8 15.8Q11.6 5.2 3.9 7.6"/></g><g id="B"><path fill="#a38e43" d="m7.2 4.5 1.4-1.6q-1.1 7-.6 13.6l.2 2.6v.5h-.9l-.8-.4-.1-1-.2-2.3v-1.1l.7-.1-1.2-.4.2-2.5.3 1q.2-3.6.9-7.2zM5.8 14.6l.3.2V19l.1 1 .1 3.3v.6l-1.1.3.1-1.4V22l.3-.9v2q1-3.4.2-4.2l-.2-.3zm-4.5-6 1.4 1.9.8.8v2.2l-2-.9zm0 6.2 1.7 2 .4.4-.1 4.6-.6-.3h-.2L1 19.8z"/><path fill="#dbc273" d="M8.6 3 7.2 4.4 3.5 5l-.8-.2-2-1.7V3Q.8 1.6 2 1q1.9-1 4-.5 2.4.3 2.6 2.4M6.5 4q.8-.4.8-1t-.8-1l-1.9-.5-1.9.5q-.8.4-.8 1t.8 1l1.9.4q1.1 0 1.9-.4"/><path fill="#a99545" d="M7.2 4.5v1.1l-1-.3h-.9l-1 .1-.7 1.2-.1-1.2h.4l-.4-.2V5zm-.7-.6q-.8.4-1.9.4L2.7 4q-.8-.4-.8-1t.8-1l1.9-.5 1.9.5q.8.4.8 1t-.8 1"/><path fill="#dec465" d="M7.2 5.6q-.7 3.7-.9 7.3L6 11.8l-.2 2.4-1.3-2 .8-6.8.9-.2zm-.9 9.2v1.1l.2 2.3.1 1v.1l-.4-.3-.2-4.2zm-1 8-.1 1.4h-2l.1-2.4zm1 1.1v-.6l.2.3v.1l.3.1h-.2zm-.5-9.2-.2 3.9-2.2-1.4v-3.6zm-2.3-3.3.1-4.7.7-1.2.2 6.8z"/><path fill="#7d6b33" d="m5.8 14.3 1.2.4-.7.1H6l-.2-.2-2.3-1v-2.3l1 .9v.3-.3zm.4 4.8.4.3-.1 4.3-.3-3.6zm-.7-.4.3.3q.8.9-.2 4.2v-2l-.2 1-.2.2-1.8-.6h-.1l.1-4.4z"/><path fill="#927f3c" d="m6.6 19.2.8.3 1 .1v.9l.2.8q0 1-.4 1.6l-1 .7-.3.1-.1.1h-.2l-.1-.2z"/><path fill="#bca85c" d="m.6 3.1 2.1 1.7.8.4.4.2h-.4l-1.2.1H2l-1.1-1z"/><path fill="#fae4a7" d="m2.7 4.8.8.2v.2zm1.6.6h1l-.8 6.8v.3-.3z"/><path fill="#a3904a" d="m5.4 22-.1.8-2-1 2 .5zm1 1.3L6.2 20l.3 3.6z"/><path fill="#ffe7ab" d="m3.5 13.6-.1 3.7-.4-.5-1.6-2v-2.2zM2 5.4h.3l1.2-.1.1 1.2-.1 4.7-.8-.8-1.4-2v-.7L.9 4.5zM.9 19.8l1.7 1.6.1.1.6.3v2.3l-3-1.6.5-2z"/><path fill="none" stroke="#000" stroke-linecap="round" stroke-linejoin="round" stroke-opacity=".3" stroke-width="__RESOLUTION__" d="m8.4 19.6-.1-.5-.2-2.6Q7.5 9.8 8.6 3 8.4.7 6 .4 3.9 0 2 1 .8 1.6.7 3v0l.2 1.4.4 3.3v.7l.2 4.1-.1.8v1.4l-.5 5-.2.6-.4 2.1m8-2.9.1.8v.1l.2.8" vector-effect="non-scaling-stroke"/><path fill="none" stroke="#000" stroke-linecap="round" stroke-linejoin="round" stroke-opacity=".3" stroke-width="__RESOLUTION__" d="M6.5 4q.8-.5.8-1.1t-.8-1l-1.9-.5-1.9.5q-.8.4-.8 1t.8 1l1.9.4q1.1 0 1.9-.4M2.3 5.5H2" vector-effect="non-scaling-stroke"/></g><g id="A"><path fill="#cfb65c" d="M.5 8.1q.4-11.5.9-6 .5-4.1.8 6.5t1.2 20.6l.6 5.4v.7l.7 1.9-.3 1.3-.6.5zM3.8 39l.6-.5.8 7q.9 6.4 3 17.3v.8l-.8.4q-.8 0-1-.7z"/><path fill="#ffe7ab" d="M.5 8.1 3.8 39l-.5.4-1.2-1-.7-2.3.3-1.6-.3-3.1Q.2 18 .4 11.8zm1.6 30.3 1.2 1 .5-.4 2.6 24.3q-1.7 1-2.5-4.2V58z"/><path fill="none" stroke="#000" stroke-linecap="round" stroke-linejoin="round" stroke-opacity=".3" stroke-width="__RESOLUTION__" d="M4.4 38.6v-.1l.3-1.3-.6-1.9-.1-.7-.6-5.4q-1-10-1.2-20.6Q1.9-2 1.4 2.1q-.5-5.5-.9 6l-.1 3.7q-.2 6.2 1 19.6l.3 3.1-.3 1.6.7 2.3h0l1.2 1 .5-.4zl.8 7q.9 6.4 3 17.3l.3 1.2m-2.1-.7q.2.7 1 .7l.8-.4v-.9m-1.8.5q-1.7 1.1-2.5-4.1V58l-.5 2 .3 2.5 1.4 1.8m-3-25.9L3.9 58" vector-effect="non-scaling-stroke"/></g><g id="y"><path fill="#b4a552" d="m4.6 1.4 1.9.5q.8.4.8 1t-.8 1-1.9.4L2.7 4q-.8-.4-.8-1t.8-1zm2.6 3.1v1.1l-1-.3h-.9l-1 .1-.7 1.2-.1-1.2h.4l-.4-.2V5z"/><path fill="#e2cf7c" d="M4.6 1.4 2.7 2q-.8.4-.8 1t.8 1l1.9.4q1.1 0 1.9-.4t.8-1-.8-1zm4 1.5L7.2 4.5 3.5 5l-.8-.2-2-1.7V3Q.8 1.6 2 1q1.9-1 4-.5 2.4.3 2.6 2.4"/><path fill="#ae9f50" d="M7.2 5.6V4.5l1.4-1.6q-1.5 9.3 0 18.4 0 1-.4 1.6l-1 .7q-1.7-9.1 0-18M6.3 24l-1.1.2.8-12.4z"/><path fill="#e5d16f" d="M7.2 5.6q-1.7 8.9 0 18l-.9.3-.3-12-.8 12.4h-2l.4-17.5.7-1.3.2 7.1.8-7.1.9-.2z"/><path fill="#ffeead" d="M3.5 5v.2l-.8-.4zm.8.4h1l-.8 7.1z"/><path fill="#c5b767" d="m3.5 5.2.4.2h-.4l-1.2.1H2l-1.1-1-.3-1.4 2.1 1.7z"/><path fill="#fff1b0" d="m3.5 5.4.1 1.2-.4 17.6-2.9-1.7q1.9-9 .6-18l1.1 1h.3z"/><path fill="none" stroke="#171b12" stroke-linecap="round" stroke-linejoin="round" stroke-opacity=".3" stroke-width="__RESOLUTION__" d="M4.6 1.4 2.7 2q-.8.4-.8 1t.8 1l1.9.4q1.1 0 1.9-.4t.8-1-.8-1zM2.3 5.5H2" vector-effect="non-scaling-stroke"/><path fill="none" stroke="#171b12" stroke-linecap="round" stroke-linejoin="round" stroke-opacity=".3" stroke-width="__RESOLUTION__" d="M8.6 21.3Q7.1 12.2 8.6 3 8.4.7 6 .4 3.9 0 2 1 .8 1.6.7 3v0l.2 1.4q1.3 9-.6 18" vector-effect="non-scaling-stroke"/></g><g id="x"><path fill="#a99545" d="m4.6 1.4 1.9.5q.8.4.8 1t-.8 1-1.9.4L2.7 4q-.8-.4-.8-1t.8-1zm2.6 3.1v1.1l-1-.3h-.9l-1 .1-.7 1.2-.1-1.2h.4l-.4-.2V5z"/><path fill="#dbc273" d="M4.6 1.4 2.7 2q-.8.4-.8 1t.8 1l1.9.4q1.1 0 1.9-.4t.8-1-.8-1zm4 1.5L7.2 4.5 3.5 5l-.8-.2-2-1.7V3Q.8 1.6 2 1q1.9-1 4-.5 2.4.3 2.6 2.4"/><path fill="#a38e43" d="M7.2 5.6V4.5l1.4-1.6q-1.5 9.3 0 18.4 0 1-.4 1.6l-1 .7q-1.7-9.1 0-18M6.3 24l-1.1.2.8-12.4z"/><path fill="#dec465" d="M7.2 5.6q-1.7 8.9 0 18l-.9.3-.3-12-.8 12.4h-2l.4-17.5.7-1.3.2 7.1.8-7.1.9-.2z"/><path fill="#fae4a7" d="M3.5 5v.2l-.8-.4zm.8.4h1l-.8 7.1z"/><path fill="#bca85c" d="m3.5 5.2.4.2h-.4l-1.2.1H2l-1.1-1-.3-1.4 2.1 1.7z"/><path fill="#ffe7ab" d="m3.5 5.4.1 1.2-.4 17.6-2.9-1.7q1.9-9 .6-18l1.1 1h.3z"/><path fill="none" stroke="#000" stroke-linecap="round" stroke-linejoin="round" stroke-opacity=".3" stroke-width="__RESOLUTION__" d="M4.6 1.4 2.7 2q-.8.4-.8 1t.8 1l1.9.4q1.1 0 1.9-.4t.8-1-.8-1zM2.3 5.5H2" vector-effect="non-scaling-stroke"/><path fill="none" stroke="#000" stroke-linecap="round" stroke-linejoin="round" stroke-opacity=".3" stroke-width="__RESOLUTION__" d="M8.6 21.3Q7.1 12.2 8.6 3 8.4.7 6 .4 3.9 0 2 1 .8 1.6.7 3v0l.2 1.4q1.3 9-.6 18" vector-effect="non-scaling-stroke"/></g><g id="w"><path fill="url(#f)" d="M-13.2 39.3Q-14.7 7-9.6 5.3q6.5-2 14.5-3.6.6-.7-.5 13.7l-.9 5.5-6.6-.5-1.6-.1q-.2 0-.9 2.2-.8 2.6-.8 4.9 0 .9.9 2.6.8 1.6.8 2.9 0 1-1.2 2.6t-2.4 1.7q-1.5 0-3.1-.8-.8 0-1.8 2.9" transform="translate(14 -1.15)"/><path fill="#847b32" d="M.8 38.2q1-3 1.8-3 1.6.9 3.1.9 1.1 0 2.4-1.7t1.2-2.6q0-1.3-.9-3t-.8-2.6q0-2.2.8-4.8.7-2.3 1-2.3l1.4.1 6.8.6Q14.6 33.9 2 58.6 1 47.2.8 38.1"/><path fill="none" stroke="#191a0b" stroke-linecap="round" stroke-linejoin="round" stroke-opacity=".3" stroke-width="1" d="m17.6 19.8.8-5.6Q19.6-.2 18.9.6 10.9 2 4.4 4.2q-5 1.6-3.6 34 .4 9 1.3 20.4Q14.6 34 17.6 19.9"/></g><g id="v"><path fill="#727e21" d="M41 13.7h.1q17.3-8 23.7-8.6l6.7-.3-6.7 2-.6.1Q55 10.4 42.6 17.5h-1.9l-.1-1.9zq7.4-4.9 19.6-9.9-2.4-1.2-4.2-3.3Q50.9 2.6 45 6.1l-1.5 2.5q-1.7 2.7-2.5 5M18.3 27.2l3.6 2q-.1 1.3-2 2.6-2.7 1.7-11.6 5.5 5.2-5.4 10-10.1"/><path fill="#60671d" d="M64.8 5q-6.4.7-23.7 8.7 7.3-4.9 19.5-9.9 1.9.9 4.2 1.2"/><path fill="#766937" d="m41 13.7-.4 1.9.1 1.8 2 .1Q32.3 23.4 20 31.9l-.2-.2q2-1.2 2.1-2.6l-3.6-2Q32.6 13.5 45 6.1l-1.5 2.5q-1.7 2.7-2.5 5"/><path fill="#484e19" d="m64.9 6.7 6.6-1.9q7.3.6 21 12.2Q70.3 5.3 64.8 6.7"/><path fill="#725f35" d="m19.8 31.7.2.2L.5 45.8l7.8-8.5v-.1q8.9-3.8 11.5-5.5"/><path fill="none" stroke="#17180a" stroke-linecap="round" stroke-linejoin="round" stroke-opacity=".3" stroke-width="1" d="M42.7 17.5Q55 10.3 64.2 7l.6-.3 6.7-1.9q7.3.6 21 12.2Q70.3 5.3 64.8 6.7M45 6.1q-12.5 7.5-26.7 21-4.8 4.7-10 10.1h0L.5 45.9l19.5-14q12.4-8.5 22.7-14.4M45 6.1Q50.9 2.6 56.4.5m15.1 4.3-6.7.2q-2.3-.3-4.2-1.2-2.4-1.2-4.2-3.3"/></g><g id="u"><path fill="url(#g)" d="M2-6q8-20 60.8 15.7Q9.8-8.4 2.1-6" transform="translate(1.8 13.65)"/><path fill="none" stroke="#111207" stroke-linecap="round" stroke-linejoin="round" stroke-opacity=".3" stroke-width="1" d="M3.9 7.6q-.6 1.3-.9 2.9L.5 13.6q.3-2.2 2.5-3.1-1.3-2.2.8-2.9 8-20 60.8 15.8Q11.6 5.2 3.9 7.6"/></g><g id="q"><path fill="#333" d="M41.8 3.6q-.8-3.8-.1-2.4-.2-2 1 2l.4 1.4q.6 2.1 1.1 7l.1 1.1.4.6-.2.8.7 7.1v1l.4.7.1.2q-.3 3.8.4 7.4v.2l.1.5q-.3 4.4.5 8.5l-.1.8-.2.3q-.1 3.8.7 7.3v.7q-.5 4.5.3 8.7l-.2.8-.1.3q-.4 4 .4 7.9v.1l.1.4q-.7 5.3 0 10.4v.7q-.5 4.1-.2 8.2l.1 1.6v.3l.1.5v.2l.1.3.1.5q-.8 4.8-.6 9.5.9-2.3 1.6-2.7l1-.3.6-.6.5-1.2 1.9 1q2 1.5 4.6 4.8l1.8 2.5 1.5 2.2-3.4-3.1-3.8-3.1q-2-1.4-3.5-2h-.1q-.7-.1-2.7 3.2v.6q6-3.4 10.8 22.5-5-11.7-7.9-17.2l-.7 5.6-1 6.5-1.3-4.1.2 1.9v.2l.2.8q-1.4 6.7-.5 13.4l-.3 1q-1.1 6.6-.2 13l-.1.6v.3q-1.6 8-.8 16l-.4 1.5q-.4.6-.8.5l-.8.3-1 .2-1.5-.2-2.5-1.5q2-7.8 1.3-15.8l-.1-1.2v-.2q.2-1 .9-1.4 1.1-5.8.4-11.6v-.8l-.2-.1q1.7-6.5.9-13.1l-.1-1v-.2l-.1-.1q1.4-6.3.5-12.6v-.6H42v-.5q0-.4.2-.6 1.1-5.7.5-11.4l-.1-.9v-.1q.1-.8.6-1.2l.3-3v-4.3l-.1-.3-.1-.2-1.4-2.2h-.3l-.4-1-.1-.2-1.1-1.6q-1.7-2.4-3.4-4.2l-.9-1q-2.2-2.1-1.3-2-1.2-1.5 1.3 0l.7.5q1.3.9 4 4.7l.7.9.3-.1.5 1.2 1.4 2 .2-.3q.6-4.6 0-9l-.1-.8v-.1q0-.6.5-1 .4-3.7-.3-7.3l-.1-.6v-.1q0-.5.3-.8.5-3.8-.1-7.4l-.1-.6V49q.4-4-.5-7.7l-.1-.6v-.1q0-.6.5-1l.1-.1q.3-3.6-.4-7v-1l.1-.3q.4-3.6-.2-7l-.1-.6.1-.6.2-6.1-.1-2.5-.3-.5.2-.7v-.3l-.2-2q-.3-3.5-1.1-7.3m-9 63.7.3.2.3 1.8v.2l1.6 1.4.3.2.3-.1.3.3 1.2 2.9.4 1.3q.6 3.3-.8 9.2L33.8 80l-2.2-4.3q-2.5 5-6.2 15.6.2-12.4 3-17.3l-1.6.9-2-3.1v-.1l-3.4 2.9-3.7 3.3 1.4-2 1.8-2.5L24 70l-.3-1q-7 2.3-19 7.3Q18 64.2 31.5 67.1h-.9l1.5.2v-.1l-.4-.1q-5.1-2.2-7-2.2h-.1l-8.1.5-8.8 1L0 67.7l3.4-.9 4.3-1q6-1.2 10.8-1.7l4.2-.3 1 .6 1.3.3 2 .3h.1q2.1.3 5 2.2l.2.2zm.4 2.7-.5.8 2 .2-.3.3.7-.2-.1-.1h-.1z"/><path fill="none" stroke="#222e14" stroke-linecap="round" stroke-linejoin="round" stroke-opacity=".4" stroke-width="1" d="M41.8 3.6q-.8-3.8-.1-2.4-.2-2 1 2l.4 1.4q.6 2.1 1.1 7l.1 1.1.4.6-.2.8.7 7.1v1l.4.7.1.2q-.3 3.8.4 7.4v.2l.1.5q-.3 4.4.5 8.5l-.1.8-.2.3q-.1 3.8.7 7.3v.7q-.5 4.5.3 8.7l-.2.8-.1.3q-.4 4 .4 7.9v.1l.1.4q-.7 5.3 0 10.4v.7q-.5 4.1-.2 8.2l.1 1.6v.3l.1.5h0v.2l.1.3.1.5q-.8 4.8-.6 9.5.9-2.3 1.6-2.7l1-.3.6-.6.5-1.2 1.9 1q2 1.5 4.6 4.8l1.8 2.5 1.5 2.2-3.4-3.1-3.8-3.1q-2-1.4-3.5-2h-.1q-.7-.1-2.7 3.2v.6q6-3.4 10.8 22.5-5-11.7-7.9-17.2l-.7 5.6-1 6.5-1.3-4.1.2 1.9v.2l.2.8q-1.4 6.7-.5 13.4l-.3 1q-1.1 6.6-.2 13l-.1.6v.3q-1.6 8-.8 16l-.4 1.5q-.4.6-.8.5l-.8.3-1 .2-1.5-.2-2.5-1.5q2-7.8 1.3-15.8l-.1-1.2v-.2q.2-1 .9-1.4 1.1-5.8.4-11.6v-.8l-.2-.1q1.7-6.5.9-13.1l-.1-1v-.2l-.1-.1q1.4-6.3.5-12.6v-.6H42v-.5q0-.4.2-.6 1.1-5.7.5-11.4l-.1-.9v-.1q.1-.8.6-1.2l.3-3v-4.3l-.1-.3-.1-.2-1.4-2.2h0-.3l-.4-1-.1-.2-1.1-1.6q-1.7-2.4-3.4-4.2l-.9-1q-2.2-2.1-1.3-2-1.2-1.5 1.3 0l.7.5q1.3.9 4 4.7l.7.9.3-.1.5 1.2 1.4 2 .2-.3q.6-4.6 0-9l-.1-.8v-.1q0-.6.5-1 .4-3.7-.3-7.3l-.1-.6v-.1q0-.5.3-.8.5-3.8-.1-7.4l-.1-.6V49q.4-4-.5-7.7l-.1-.6v-.1q0-.6.5-1l.1-.1q.3-3.6-.4-7v-1l.1-.3q.4-3.6-.2-7l-.1-.6h0l.1-.6.2-6.1-.1-2.5h0l-.3-.5.2-.7v-.3l-.2-2q-.3-3.5-1.1-7.3"/></g><linearGradient id="a" x1="-819.2" x2="819.2" gradientTransform="matrix(0 -.01 .03 .01 -2.25 18)" gradientUnits="userSpaceOnUse" spreadMethod="pad"><stop offset=".5" stop-color="#e0ea35" stop-opacity="1"/><stop offset="1" stop-color="#aeb92a" stop-opacity="1"/></linearGradient><linearGradient id="b" x1="-819.2" x2="819.2" gradientTransform="matrix(.04 0 0 .01 31 4.85)" gradientUnits="userSpaceOnUse" spreadMethod="pad"><stop offset=".5" stop-color="#a7ad25" stop-opacity="1"/><stop offset="1" stop-color="#848a1d" stop-opacity="1"/></linearGradient><linearGradient id="d" x1="-819.2" x2="819.2" gradientTransform="matrix(0 -.01 .03 .01 -2.25 18)" gradientUnits="userSpaceOnUse" spreadMethod="pad"><stop offset=".5" stop-color="#95a12a" stop-opacity="1"/><stop offset="1" stop-color="#6d7a21" stop-opacity="1"/></linearGradient><linearGradient id="e" x1="-819.2" x2="819.2" gradientTransform="matrix(.04 0 0 .01 31 4.85)" gradientUnits="userSpaceOnUse" spreadMethod="pad"><stop offset=".5" stop-color="#68701d" stop-opacity="1"/><stop offset="1" stop-color="#4c5517" stop-opacity="1"/></linearGradient><linearGradient id="f" x1="-819.2" x2="819.2" gradientTransform="matrix(0 -.01 .03 .01 -2.25 18)" gradientUnits="userSpaceOnUse" spreadMethod="pad"><stop offset=".5" stop-color="#8a9527" stop-opacity="1"/><stop offset="1" stop-color="#65701f" stop-opacity="1"/></linearGradient><linearGradient id="g" x1="-819.2" x2="819.2" gradientTransform="matrix(.04 0 0 .01 31 4.85)" gradientUnits="userSpaceOnUse" spreadMethod="pad"><stop offset=".5" stop-color="#60681b" stop-opacity="1"/><stop offset="1" stop-color="#464e15" stop-opacity="1"/></linearGradient><linearGradient id="l" x1="-819.2" x2="819.2" gradientTransform="matrix(.2 0 0 .04 -30.8 -11)" gradientUnits="userSpaceOnUse" spreadMethod="pad"><stop offset="0" stop-color="#322d01" stop-opacity=".3"/><stop offset="1" stop-color="#2b2b00" stop-opacity="0"/></linearGradient><path id="o" fill="url(#h)" d="M7.9-.4q0 3-2.2 5.4Q3.5 7.3.3 7.5t-5.7-2q-2.3-2-2.4-5.1T-5.7-5t5.5-2.5 5.6 1.9T7.8-.4" transform="translate(7.85 7.5)"/><path id="z" fill="url(#i)" d="M7.9-.4q0 3-2.2 5.4Q3.5 7.3.3 7.5t-5.7-2q-2.3-2-2.4-5.1T-5.7-5t5.5-2.5 5.6 1.9T7.8-.4" transform="translate(7.85 7.5)"/><path id="t" fill="url(#l)" d="M66.2-20.9q20.3-4.7 26.9-6.5l14.5.3q122.4 3.5 89 19.2-26.2 12.3-88.1 21l-8.5 1.1q-24.8-3.4-46.6-1.4t-35.2 9.7l-13 1Q-44 13-78.5 28.6l-12.7.4q-7.2-7-38.9-9-31.6-2.1-71 8.9l-2.7-56.1q27.7 5.7 55.4 6t51.9-7.5l12.7-.1q38.8 11.2 79.6.2l13.3.1q36.8 12.4 57.1 7.7" transform="translate(203.8 28.9)"/><path id="s" fill="url(#m)" d="M25.5-25.5Q36-14.9 36 0T25.5 25.5Q15 36 0 36t-25.5-10.5T-36 0t10.5-25.5T0-36t25.5 10.5" transform="translate(36.05 36.05)"/><path id="r" fill="url(#n)" d="M25.5-25.5Q36-14.9 36 0T25.5 25.5Q15 36 0 36t-25.5-10.5T-36 0t10.5-25.5T0-36t25.5 10.5" transform="translate(36.05 36.05)"/><radialGradient id="h" cx="0" cy="0" r="819.2" gradientTransform="matrix(.01 0 0 .01 0 -.05)" gradientUnits="userSpaceOnUse" spreadMethod="pad"><stop offset="0" stop-color="#fff7aa" stop-opacity=".2"/><stop offset=".7" stop-color="#ffd" stop-opacity="0"/></radialGradient><radialGradient id="i" cx="0" cy="0" r="819.2" gradientTransform="matrix(.01 0 0 .01 0 -.05)" gradientUnits="userSpaceOnUse" spreadMethod="pad"><stop offset="0" stop-color="#ffffb0" stop-opacity=".2"/><stop offset=".7" stop-color="#ffffdf" stop-opacity="0"/></radialGradient><radialGradient id="m" cx="0" cy="0" r="819.2" gradientTransform="scale(.04)" gradientUnits="userSpaceOnUse" spreadMethod="pad"><stop offset=".2" stop-color="#332d01" stop-opacity=".3"/><stop offset="1" stop-color="#2b2b00" stop-opacity="0"/></radialGradient><radialGradient id="n" cx="0" cy="0" r="819.2" gradientTransform="scale(.04)" gradientUnits="userSpaceOnUse" spreadMethod="pad"><stop offset=".7" stop-color="#332d01" stop-opacity=".5"/><stop offset="1" stop-color="#2b2b00" stop-opacity="0"/></radialGradient><clipPath id="p"><path d="M1 1h76v169H1z"/></clipPath><use xlink:href="#o" id="C" width="15.7" height="14.9"/></defs><g clip-path="url(#p)"><g transform="translate(38 164.35)"><use xlink:href="#q" width="61.1" height="163.9" transform="translate(-35.9 -163.35)"/><use xlink:href="#r" width="72.1" height="72.1" transform="matrix(.1149 -.0575 .1149 .0575 -1.85 -2.2)"/><use xlink:href="#s" width="72.1" height="72.1" transform="matrix(.2123 -.1061 .2123 .1061 -8.15 -2.05)"/><use xlink:href="#t" width="407.6" height="57.8" transform="matrix(.0661 -.033 .1149 .0575 2.45 -3.15)"/><use xlink:href="#t" width="407.6" height="57.8" transform="matrix(.0713 -.0304 .1149 .0575 2.45 -3.3)"/><use xlink:href="#u" width="65.1" height="23.9" transform="matrix(.2393 .2734 -.211 .3499 11.55 -66.2)"/><use xlink:href="#v" width="93" height="46.3" transform="matrix(-.1445 .0573 .0379 .302 23.1 -72.4)"/><use xlink:href="#w" width="19.6" height="59.1" transform="matrix(-.2518 .0751 -.0357 .3111 15.05 -63.9)"/><use xlink:href="#x" width="8.9" height="24.2" transform="matrix(.8361 .0426 -.0448 .8773 3.5 -21.35)"/><use xlink:href="#o" width="15.7" height="14.9" transform="matrix(.2764 .2443 -.1569 .7533 3.2 -12.1)"/><use xlink:href="#y" width="8.9" height="24.2" transform="matrix(.7312 .0382 -.0206 .7321 4.7 -35.1)"/><use xlink:href="#z" width="15.7" height="14.9" transform="matrix(.2466 .2048 -.1212 .6283 4.6 -27.4)"/><use xlink:href="#x" width="8.9" height="24.2" transform="matrix(.7319 .0382 -.0298 .731 5.4 -49.15)"/><use xlink:href="#o" width="15.7" height="14.9" transform="matrix(.2444 .2045 -.1292 .6273 5.25 -41.45)"/><use xlink:href="#x" width="8.9" height="24.2" transform="matrix(.6973 .0365 -.0114 .6977 5.65 -62.85)"/><use xlink:href="#o" width="15.7" height="14.9" transform="matrix(.2373 .1952 -.1084 .5988 5.7 -55.5)"/><use xlink:href="#x" width="8.9" height="24.2" transform="matrix(.6553 .0229 -.0222 .6893 6.35 -75.85)"/><use xlink:href="#o" width="15.7" height="14.9" transform="matrix(.22 .1883 -.1118 .5934 6.25 -68.65)"/><use xlink:href="#A" width="8.8" height="64.6" transform="matrix(-.0186 1.1793 .2076 .1767 -1.95 -97)"/><use xlink:href="#B" width="8.9" height="24.2" transform="matrix(.5758 -.0158 -.0005 .609 6.8 -86.95)"/><use xlink:href="#C" width="15.7" height="14.9" transform="matrix(.3339 .1783 -.0005 .609 5.8 -83.3)"/><use xlink:href="#x" width="8.9" height="24.2" transform="matrix(.5293 -.0477 .0008 .5642 7.15 -97.6)"/><use xlink:href="#o" width="15.7" height="14.9" transform="matrix(.1826 .1312 -.0741 .4951 7.25 -91.7)"/><use xlink:href="#x" width="8.9" height="24.2" transform="matrix(.4602 -.0612 .0209 .4703 7.2 -106.35)"/><use xlink:href="#o" width="15.7" height="14.9" transform="matrix(.1641 .102 -.0469 .4157 7.5 -101.4)"/><use xlink:href="#D" width="65.1" height="23.9" transform="matrix(-.2466 .2776 .3525 .2152 -2.85 -95.1)"/><use xlink:href="#E" width="93" height="46.3" transform="matrix(.1997 .0055 .0201 .2453 -19.2 -96.7)"/><use xlink:href="#F" width="19.6" height="59.1" transform="matrix(.3424 -.0097 .1172 .2325 -6.8 -92.3)"/><use xlink:href="#x" width="8.9" height="24.2" transform="matrix(.4568 -.0791 .0119 .4744 7.3 -115.25)"/><use xlink:href="#o" width="15.7" height="14.9" transform="matrix(.1606 .0969 -.0542 .4218 7.5 -110.3)"/><use xlink:href="#x" width="8.9" height="24.2" transform="matrix(.4301 -.0983 .0375 .4508 6.7 -124)"/><use xlink:href="#o" width="15.7" height="14.9" transform="matrix(.1581 .0841 -.0283 .4041 7.15 -119.35)"/><use xlink:href="#x" width="8.9" height="24.2" transform="matrix(.3931 -.072 .0247 .462 6.9 -132.9)"/><use xlink:href="#o" width="15.7" height="14.9" transform="matrix(.142 .0961 -.0342 .4101 7.25 -128.05)"/><use xlink:href="#x" width="8.9" height="24.2" transform="matrix(.3463 -.0638 .022 .4069 6.75 -141)"/><use xlink:href="#o" width="15.7" height="14.9" transform="matrix(.1251 .0845 -.0299 .3612 7.05 -136.7)"/><use xlink:href="#A" width="8.8" height="64.6" transform="matrix(-.5782 .0874 .0888 .3545 6.35 -163.05)"/><use xlink:href="#G" width="65.1" height="23.9" transform="matrix(-.5573 .1039 .4486 .1843 -5.7 -98.1)"/><use xlink:href="#H" width="93" height="46.3" transform="matrix(.3204 .0411 -.107 .1373 -31.2 -102.1)"/><use xlink:href="#I" width="19.6" height="59.1" transform="matrix(.5601 .0601 .0576 .1488 -13.7 -97.3)"/></g></g></svg>