<svg xmlns="http://www.w3.org/2000/svg" xmlns:xlink="http://www.w3.org/1999/xlink" width="88" height="128" viewBox="0 0 88 128"><defs><clipPath id="b"><path d="M1 1h86v126H1z"/></clipPath><use xlink:href="#a" id="c" width="85.1" height="125"/><g id="a"><path fill="#747544" d="m67 8.9 3.4-1 3.3 5.1-3.8 1.3zM.6 24.6 3.8 23l2.6 1.4 1.1.6-3 1.6zm3.5-11.2 3.4.6 1.6 1.3-2.7-1zm6-1.3 2.5.1 2.2 1-2.9.1zm4.7 2.8 3.6-1.9 2.3 1.4-5.9 3zm5.9-3.1 3.7-2 2.4 1.4-3.7 2zm9.6-9.1 3-2.3 2.8 1.2L32.8 4zm9.3 2.2 2.8-1.6 13.7 7L67 16l.1 3-8.4-4.2-.2-.2-5.7-2.8 3.1-1.5-3.1 1.4-2.2-1-1.2-.7-4.6-2.3L39.7 5zm.6 36.7L37 43.1l-3.8-1.9 3-1.6zM20 24.2l2.3 1-4 1.3-4.9-2v-.1l4.4-1.1zm12.4 13.5 2.3 1.1-3 1.7-2.6-1.3zM7 27.9l3-1.6 2.1 1-3 1.7z"/><path fill="#636439" d="m67 8.9 3 5.4 11.8 4.4v7.7h-.2l-4.4-2.2-.6-.3-9.5-4.9zM1.8 92.6.5 88.9V24.6h.1l4 2q.7 43.7-2.7 65.9M3.8 23l.3-.3v-9.4l2.3.8v10.2zM24.4 9.8V7.1l2.5 1.2v2.9zm13.1 107-2.6-1.3Q36.3 83 33 41.3l3.8 1.9q-3.1 12.3 3 26l1 2.3q-.7 21.3-3.5 45.3m-6.5-3.3-2-1V39.3l.3-.1 2.5 1.3q2.5 38-.8 73M26 111l-1.5-.7-1.3-9.8-.7 8.8-4.6-2.4q4.3-13.5 5.8-76.7l4 3.2Q21.5 69.1 26 111m-14.4-7.3-4.4-2.2Q5 67.9 7 27.9L9.1 29q-2.8 43.9 2.5 74.7m1.8-79.2 4.9 2q2.1 31.6-4.9 50.2z"/><path fill="#81824a" d="m70 14.3 3.7-1.3 11 4.1-3 1.6z"/><path fill="#393a21" d="m84.7 17.2-.2 7.8.1.5v35.3l-2.7 1.5V35l-19 23.2 2.3 33L52 84.5l.6-29.3L62 41.1l19.8-10V18.8zm-5.4 43.7-.4.6-2.4 1.5q1-2.5 2.8-2.1m-3.5 2.3q-1.2 1.1-.3 2.8v.1q-2.7 3.5 1.3 5.3l-.1.1q-1 3.4 3 3.7.5 3 2 3h.1v.1q-3.4 3.1-4.5-1.5Q73 78 74 73l-.1-.2-.2-.1q-3.8-2.1-.6-5.2l2.4-1.4-2.4 1.4q-1-4 2.7-4.3m6.1 15 1.8-1 .9-.5v21.7l-2.7 1.4-.2-.1V78.2zm-5.2-6.7L74 72.8zm3 3.7-2.5 1.7z"/><path fill="#444527" d="M81.9 62.3q-1.5-1.2-2.6-1.5-1.9-.4-2.8 2l-.5.3h-.2q-3.7.3-2.7 4.3-3.2 3.1.6 5.2l.2.2h.1v.1q-1 5.1 3.3 3.8 1.1 4.6 4.5 1.5v21.4l-16.6-8.4-2.3-33L82 35zM14.8 13.2v4.2l5.8-3 .2 2.5-6.1 3.1v-2.6V20l-2.6 1.4q-.8-2.4-.2-8.1zM46 44.7V118l-3 1.6V46.3zM32.8 4l3.3-2.4v7.2l-3 1.6zm6.9 3.8V5l5.1 2.7zM6.4 24.4V14.3l2.7 1q-.5 5.3.8 7.3zM32.6 33l-.1 4.7-3.2 1.5-.3-.1-.2-4.9V34zm-9.2-17.5-.3-2.4 3.7-1.8v2.4z"/><path fill="#2f3e35" d="M84.6 98.3v5L43 124.7v-5.1l3-1.5 35.8-18.4zM46 100.5V87l6-2.5 13.2 6.7zm-21.5 9.8-2-1 .7-8.7z"/><path fill="#506759" d="M43 124.7.4 103v-5l4.3 2.2 2.4 1.3 4.4 2.2 1.8.9 4.5 2.3 4.6 2.3 2 1 1.5.8 2.9 1.5 2 1 3.9 2 2.6 1.3 5.5 2.8z"/><path fill="#76898f" d="m.5 98 2.8-1.6 1.5 3.8zm52.3-86.2 5.7 2.8-9 1.9 1.1-5.9zm7.7 25.5L46 44.7l-5.9-3.1-4-2-1.4-.7 2.4-11.1 10.2-6.9L65.1 23zm1-12.3-15.2 9.6q10-4.6 15.2-9.6m-3.6-1.6q-5.5 1.1-12 4 6.1-.9 12-4m-1.4 2.9q-7.7 1.7-15.1 6 3.8-.9 15.1-6"/><path fill="#575832" d="M3.3 96.4 2 92.6q3.4-22.2 2.6-66L7 28q-2 40 .2 73.6l-2.4-1.3zM37 43.1l6 3.1v73.4l-5.5-2.8q2.8-24 3.4-45.3l-1-2.2q-6-13.8-2.9-26.1m-2.1 72.3-3.9-2q3.3-35 .8-73l1.4.8q3.1 41.7 1.6 74.2m-5.8-3-3-1.5q-4.5-41.9 1.7-77.6l-4-3.2q-1.6 63.3-5.8 76.7l-4.5-2.3-1.8-1Q6.3 73 9.1 29l4.3 2.2v45.5q7-18.7 4.9-50.2l1.7.7 4.5-1.1h.1l7.8 6.9-3.7 1v.2l.2 4.9v73.4m-15.5-7.9v-28z"/><path fill="#7b7c47" d="m7.5 14 2.5-2 1.9 1.2-2.8 2zm10.8-1 2.3-1.2 2.4 1.3-2.4 1.3zm6-5.9 5.9-4.4L32.8 4l-6 4.3zm9-6.7 3.3.6 2.8 1.3-3.3-.7z"/><path fill="#3a3c22" d="m39.4 2.3.1 2.6.1.1v2l-1.7.9-1.7 1-.1-7.2zm-12.6 9V8.4l6-4.3.3 6.4-6.4 3.3zM23 13l.3 2.4-2.5 1.4-.2-2.5zM9.2 15.3l2.7-2q-.6 5.7.2 8.1L10 22.6q-1.3-2-.8-7.4"/><path fill="#687a80" d="M58.5 14.7h.2l8.4 4.3 9.5 4.9-11.5-.9-17.7-2.1L37 27.8l-2.4 11.1-2.3-1.2.1-4.7-7.9-6.9-2.3-.9-2.3-1 6.9-3-3.5-.7 8.8-4.5 2.5 1.3L49.5 10l1.2.6-1.2 5.9z"/><path fill="#536266" d="m44.8 7.7 4.6 2.3-14.6 7.3-2.6-1.3-8.8 4.5 3.5.7-6.9 3-2.2-.9-4.4 1.1h-.2l.2.1V28l-1.3-.7-2.1-1L7.5 25l-1-.6 3.4-1.8 2.2-1.2 2.6-1.4 6.1-3.1 2.5-1.4 3.4-1.8 6.3-3.3 3.1-1.7 1.8-.9h1.8z"/><path fill="#71848a" d="m76.6 23.9.6.3 4.4 2.3-21.1 10.8L65 23z"/><path fill="#4d5f66" d="m81.6 26.5.2-.1v4.7l-19.7 10L46 49.2v-4.6l14.4-7.4zm-35.3 8.1L61.5 25q-5.2 5-15.2 9.6m-.5-7.2q6.6-2.9 12.1-4-5.9 3.1-12 4m-4.5 4.9q7.4-4.2 15.1-6-11.3 5.1-15.1 6"/><path fill="#2f301b" d="M46 49.3 62 41l-9.4 14.1-.7 29.3-5.9-3.1z"/><path fill="#68693d" d="m46 44.7-3 1.5-6.1-3 3.2-1.6zM34.8 39l1.3.7-3 1.6-1.4-.7 3-1.6M4.6 26.7l3-1.7 2.5 1.3-3 1.6zm17.8-1.5 2.2.9-4.5 1.1-1.7-.7zM9.1 29l3-1.7 1.3.7v3.2z"/><path fill="#38493f" d="M46 118v-17.6l19.2-9.2 16.5 8.4h.1v.1z"/><path fill="#242f28" d="M46 87v-5.6l6 3z"/><path fill="none" stroke="#000" stroke-linecap="round" stroke-linejoin="round" stroke-opacity=".3" stroke-width="__RESOLUTION__" d="m73.7 13-3.3-5-3.4.9v7l-11-5.6-13.7-7-2.7 1.6-.2-2.7L36.6 1 33.3.4l-3.1 2.3-6 4.4.1 2.7-3.7 2-2.3 1.2-3.6 1.9.1-1.7-2.2-1-2.6-.1L7.5 14l-3.4-.6v9.4l-.3.2-3.2 1.6H.5h0v64.2l1.4 3.8 1.4 3.8L.5 98v4.9l-.1.1h.1l42.4 21.7 41.7-21.4V76.4M73.7 13l11 4.1-.2 7.9.1-.1v35.9M56 10.3l-3.2 1.4 5.7 3m.2 0 8.4 4.3v-3M44.8 7.7l4.6 2.3 1.2.6 2.1 1.2m24.5 12.4 4.4 2.3.2-.1h0v4.7l-19.7 10L46 49.2v-4.6l-5.9-3-4-2-1.4-.7h0l-2.3-1.2.1-4.7h0l-8-7h0l-2.3-.9-2.3-1-2.2-.9-4.4 1.1h-.2l.2.1v-.1m68.4 2v.5m-5.2-3L67.1 19M43 119.7l3-1.5V49.1m38.6-23.7V25M52 84.5l-6-3.1m35.8 18.2 2.8-1.3m-19.4-7.1 16.5 8.4m-16.5-8.4L52 84.5m-9 35.1-5.6-2.8-2.6-1.3-3.9-2-2-1L26 111l-1.5-.7m-2-1-4.6-2.4-4.5-2.3-1.8-1-4.4-2.1-2.4-1.3-1.5-3.8m23.4-85.2V11zl-2.5-1.4m8.6.6 3.1-1.7 1.8-.9h1.8v-.9l-1.8.9m1.8-.9V5m5.1 2.7-5.1.1M7.4 25l-1-.6h-.1L3.7 23m17.2-6 2.5-1.4 3.4-1.8v-2.4M29 39l.3.1 3.2-1.5m0-4.7h.1m-17.9-18V20l6.1-3.1M10 26.3 7.5 25m4.6 2.3-2.1-1m3.4 4.9V28l-1.3-.7m1.3 49.4v27.9m0-73.4v45.5m-1.3-55.3 2.6-1.4m-1.3 8v-3.5M29 39.1v.2l.3-.1m-2.5-25.5 6.3-3.3M.5 103.1v-.2m28.4 9.5v-73" vector-effect="non-scaling-stroke"/><path fill="none" stroke="#000" stroke-linecap="round" stroke-linejoin="round" stroke-opacity=".3" stroke-width="__RESOLUTION__" d="m84.6 60.8-2.7 1.5q-1.5-1.2-2.6-1.5l-.4.6-2.4 1.5h0l-.5.2h-.2q-1.2 1.1-.3 2.8v.1h0q-2.7 3.5 1.3 5.3l-.1.1q-1 3.4 3 3.7.5 3 2 3h.2l1.8-1 .8-.7h.1m-.8.6.8-.4m-8.1-13.7q1-2.5 2.8-2.1m-3.8 5.1-2.4 1.4q-3.2 3.1.6 5.2l.2.2h.1l2.7-1.4M74 72.8q-1 5.1 3.3 3.8l2.5-1.6m-2.5 1.7q1.1 4.5 4.5 1.4V78h.1m-6.1-15q-3.7.3-2.7 4.3" vector-effect="non-scaling-stroke"/><path fill="none" stroke="#3f4f54" stroke-linecap="round" stroke-linejoin="round" stroke-width="__RESOLUTION__" d="M46.3 34.6q10-4.6 15.2-9.6m-3.6-1.6q-5.9 3.1-12 4m-4.5 4.9q3.8-.9 15.1-6" vector-effect="non-scaling-stroke"/><path fill="none" stroke="#51522e" stroke-linecap="round" stroke-linejoin="round" stroke-width="__RESOLUTION__" d="M26 111q-4.5-41.9 1.7-77.6l-4-3.2q-1.6 63.3-5.8 76.7m.4-80.4q2.1 31.6-4.9 50.2M36.9 43q-3.1 12.4 3 26.2l1 2.2q-.7 21.3-3.5 45.3m-4.3-75.5q3.1 41.7 1.6 74.2m-23.1-11.8Q6.3 72.9 9.1 29m-1.9 72.5Q5 67.9 7 27.9M1.9 92.6q3.4-22.2 2.6-66m26.5 87q3.3-35 .8-73" vector-effect="non-scaling-stroke"/><path fill="#77724d" d="m51.8 107.8-.1 3.5-4.3-1.3zm22.7-11.5v3.5l-4.3-1.2zm-11.7 5.8v3.5l-4.2-1.3z"/><path fill="#817b52" d="m47.4 110 4.3 1.3.1-3.5 6.8-3.4 4.2 1.3v-3.5l7.4-3.6 4.3 1.2v-3.5l.4-.3 5.4 2.8-34 17.5v-5.8z"/><path fill="none" stroke="#413e29" stroke-linecap="round" stroke-linejoin="round" stroke-width="__RESOLUTION__" d="m46.3 116.3 34-17.5" vector-effect="non-scaling-stroke"/><path fill="#676343" d="m55.7 44.3-1 17.3-2.4 4.1-2.5-2.2V47.1q1.2-.1 5.9-2.8"/><path fill="#b0ab84" d="m49.8 63.5 2.5 2.2 2.4-4.2q-1.3 24.7 1 49.5-1.4.7-2.8.7l-2-.4-.7-.3q-1.6-18.6-.4-47.5M53 82v.8l-.6.3-.1-4.3.1 4.3.6-.3zm-.6 4.7V83zm1 3.8-.4-7.8z"/><path fill="none" stroke="#888257" stroke-linecap="round" stroke-linejoin="round" stroke-width="__RESOLUTION__" d="m54.7 61.6 1-17.3m0 66.7q-1.4.7-2.8.7l-2-.4-.7-.3" vector-effect="non-scaling-stroke"/><path fill="none" stroke="#928c5f" stroke-linecap="round" stroke-linejoin="round" stroke-width="__RESOLUTION__" d="M54.7 61.6q-1.3 24.6 1 49.4" vector-effect="non-scaling-stroke"/><path fill="none" stroke="#a59e74" stroke-linecap="round" stroke-linejoin="round" stroke-width="__RESOLUTION__" d="m52.3 78.8.1 4.3.6-.3V82m-.6 1v3.7m.6-4 .3 7.8" vector-effect="non-scaling-stroke"/><path fill="#676343" d="m61.2 59.2-.6-17.4q1.2-.1 5.9-2.8l-1 17.3-2.4 4.1z"/><path fill="#b0ab84" d="m61.2 59.2 1.9 1.2 2.4-4.1q-1.3 24.6 1 49.4-1.3.7-2.7.7l-2.1-.4-.7-.3q1.1-21.1.1-46.6m2.3 8.4.2-5 .9.1-.5 9.9h-.2.3l.4-9.9h-.9zm.8 14.8-.1-4.2h.4l-.1-5.7h-.3.3l.1 5.7h-.4zm-.7-4.1h.7zm1.2-18.3-.1 2.7zm-1 2.6v-.7z"/><path fill="none" stroke="#888257" stroke-linecap="round" stroke-linejoin="round" stroke-width="__RESOLUTION__" d="m65.5 56.3 1-17.3m0 66.7q-1.3.7-2.7.7l-2.1-.4-.7-.3" vector-effect="non-scaling-stroke"/><path fill="none" stroke="#a59e74" stroke-linecap="round" stroke-linejoin="round" stroke-width="__RESOLUTION__" d="M63.8 72.5h.3l.4-9.9h-.9l-.2 5m.6 4.9h.3l.1 5.7H64v4.1m0-4.1h-.7m1.1-15.6.1-2.7m-1 1.9v.8" vector-effect="non-scaling-stroke"/><path fill="none" stroke="#928c5f" stroke-linecap="round" stroke-linejoin="round" stroke-width="__RESOLUTION__" d="M65.5 56.3q-1.3 24.6 1 49.4" vector-effect="non-scaling-stroke"/><path fill="#676343" d="m77.6 33.4-.4 16.9-2 4.5-2-1.9-.4-17.1q.1.2 4.8-2.4"/><path fill="#b0ab84" d="m73.2 52.9 2 1.9 2-4.5.5 49.8-1 .4-.9.2h-1l-1.4-.1-.6-.2-.7-.4q1.8-20.1 1.1-47.1m1.6 38.6.1 5.1-1.2-.1-.3 4.1.3-4.1 1.2.1zm1.8 9-.3-2.1-.8.1.2 2.2-.2-2.2.8-.1z"/><path fill="none" stroke="#888257" stroke-linecap="round" stroke-linejoin="round" stroke-width="__RESOLUTION__" d="m77.2 50.3.4-17m0 66.8-1 .4-.8.2h-1l-1.4-.1-.6-.2-.7-.4" vector-effect="non-scaling-stroke"/><path fill="none" stroke="#928c5f" stroke-linecap="round" stroke-linejoin="round" stroke-width="__RESOLUTION__" d="m77.2 50.3.5 49.8" vector-effect="non-scaling-stroke"/><path fill="none" stroke="#a59e74" stroke-linecap="round" stroke-linejoin="round" stroke-width="__RESOLUTION__" d="m73.4 100.6.3-4.1 1.2.1v-5.1m.9 9.2-.2-2.2.8-.1.3 2" vector-effect="non-scaling-stroke"/><path fill="#6a6c4a" d="M74.7 23.5V27l-4.4-1.2zm-11.7 6v3.4l-4.2-1.3zM52 35l-.2 3.5-4.2-1.3z"/><path fill="#888a5e" d="m70.3 25.8 4.4 1.2v-3.5l.3-.3 5.4 2.8-35.3 18.2-5.5-3 8-4 4.2 1.3.1-3.5 6.9-3.4 4.2 1.3v-3.4z"/><path fill="none" stroke="#413e29" stroke-linecap="round" stroke-linejoin="round" stroke-width="__RESOLUTION__" d="M45.1 44.2 80.4 26" vector-effect="non-scaling-stroke"/><path fill="#b4ae8b" d="M53.6 1.1q2 3 2.7 3.7l.3.3q7.1 14.4 7.8 23.1l-1.2.2V28l-.4-2.5-.1-.5.1.5-.9.3.4 2.2-.6.1-.1 1-.9.1v-1.9q-.6-8-1.4-11.6-1.5-7.4-5.7-14.6M61 21.4q.7 2 1 4.1l-.2.3.1-.3q-.2-2-.9-4.1"/><path fill="#999362" d="M60.7 27.4v1.8h-.3V29l-.2-1.4z"/><path fill="#b0ab84" d="m60.8 29.2.8-.2v-.9h.6l-.3-2.3.9-.3.4 2.5v.4l1.2-.2q.2 3.2-.4 5.6-1.2.3-2.8 0l-.8-.2.1-.2-.5-.1.4-4.3v.3zm1.5-1.2h.9zm-.7 1v2.3zm-.4 4.8-.7-.4z"/><path fill="#7d7951" d="M64.4 28.2q-.7-8.7-7.8-23.1 6.2 8.7 8.2 17.8t1.4 9.8-2.2 1.1q.6-2.4.4-5.6"/><path fill="none" stroke="#555237" stroke-linecap="round" stroke-linejoin="round" stroke-width="__RESOLUTION__" d="m56.6 5.1-.3-.3L53.6 1m3 4q6.2 8.7 8.2 17.8t1.4 9.8-2.2 1.1" vector-effect="non-scaling-stroke"/><path fill="none" stroke="#a59e74" stroke-linecap="round" stroke-linejoin="round" stroke-width="__RESOLUTION__" d="m60.8 29.2.8-.2v-.9h.6l-.3-2.3.1-.3q-.2-2-.9-4.1m1.7 4.1.4 2.5v.4l1.2-.2m-3.9 5.2-.5-.1.4-4.3-.2-1.4.5-.2m2.4.6h-.8 0m-1.5 1.2h-.4V29m1.3 2.3-.1-2.3m-1.1 4.4.7.4m1.6-8.3-.1-.5m-.8.8.9-.3" vector-effect="non-scaling-stroke"/><path fill="#b4ae8b" d="m75.2 18.3 1-1.3H79v.1l-2.6 3-1-1.6zl.2.2 1 1.5-.5.3V20l-1.3-1.4-2 .2-.7 2 1.8 2.6q-1 1.6-.5 4.1l-.8-.4q0-2.2-.4-3.2-.2-1-.8-1.3l-1-2.1.7-2.1 2.3-1.2z"/><path fill="#7d7951" d="m76.4 20 2.6-2.9 1.3 3.1-.1.3-1.9 2.8q-.6 2.2-.5 3.5-2.5 1.6-4.6.8-.5-2.5.5-4.1L71.8 21l.9-2.1 1.9-.2 1.3 1.4v.1zl.2.4.2 1.3-.2-1.3zm.3 1.8.6.7-.9 4-1-3.1-.6.1.6-.1.3-.1z"/><path fill="#5a583a" d="m76.7 21.8.6.7-.9 4-1-3.1.3-.1z"/><path fill="none" stroke="#555237" stroke-linecap="round" stroke-linejoin="round" stroke-width="__RESOLUTION__" d="M79 17.1h-2.8l-1 1.2h0l.2.2 1 1.5.2.4.2 1.3m2.3-4.6 1.2 3.1-.1.3-1.9 2.8q-.6 2.2-.5 3.5h0m-5.4.4q0-2.2-.4-3.2-.2-1-.8-1.3l-1-2.1.7-2.1 2.3-1.2 2 1" vector-effect="non-scaling-stroke"/><path fill="none" stroke="#666342" stroke-linecap="round" stroke-linejoin="round" stroke-width="__RESOLUTION__" d="m76.8 21.7-.1.1.6.7m-1.9.9-.6.1m1.9-1.7-1 1.4-.3.2" vector-effect="non-scaling-stroke"/><path fill="#687a80" d="m40.8 49.9.5-.4-2.1-2.7-.3.1q1.5 1.6 1.9 3m-1.8-.7-.2-.4h-.1l-.2-.2q-.4-.7-.4-1.4 0-.9.6-1.1h1.4l1.4 1.3q.6.9.6 1.7t-.5 1l-.1.1-1.4-.1q-.7-.3-1.1-.9"/><path fill="#546367" d="m38.9 46.9.3-.1 2.1 2.7-.5.4q-.4-1.4-1.9-3"/><path fill="#000" fill-opacity=".3" d="M41.6 50.1v1.3q-.2-.9-.5-.1-.8-1.5-1.1 1.5-.1-2.1-1-3.6.4.6 1.1.9l1.4.1z"/><path fill="none" stroke="#3f4a4e" stroke-linecap="round" stroke-linejoin="round" stroke-width="__RESOLUTION__" d="m38.9 46.9.3-.1 2.1 2.7-.5.4" vector-effect="non-scaling-stroke"/><path fill="none" stroke="#3f4a4e" stroke-linecap="round" stroke-linejoin="round" stroke-width="__RESOLUTION__" d="m39 49.2-.2-.4m-.2-.2q-.5-.7-.5-1.4 0-.9.6-1.1h1.4l1.4 1.3q.6.9.6 1.7t-.5 1l-.1.1-1.4-.1q-.7-.3-1.1-.9m-.4-.5v-.1" vector-effect="non-scaling-stroke"/><path fill="#687a80" d="m21.4 40 .5-.4-2.1-2.6-.3.1q1.5 1.6 1.9 3m-2.2-1.3q-.5-.7-.5-1.4 0-.9.6-1.1h1.4l1.4 1.3q.6.9.6 1.7t-.5 1l-.1.1-1.4-.1-1.1-.9-.3-.4z"/><path fill="#546367" d="m19.5 37.1.3-.1 2.1 2.6-.5.4q-.4-1.2-1.9-2.9"/><path fill="#000" fill-opacity=".3" d="M22.2 40.3v1.3q-.2-.9-.5-.1-.8-1.5-1.1 1.5-.1-2.1-1-3.6l1.1.9 1.4.1z"/><path fill="none" stroke="#3f4a4e" stroke-linecap="round" stroke-linejoin="round" stroke-width="__RESOLUTION__" d="m19.5 37.1.3-.1 2.1 2.6-.5.4" vector-effect="non-scaling-stroke"/><path fill="none" stroke="#3f4a4e" stroke-linecap="round" stroke-linejoin="round" stroke-width="__RESOLUTION__" d="M19.2 38.8q-.5-.7-.5-1.4 0-.9.6-1.1h1.4l1.4 1.3q.6.9.6 1.7t-.5 1l-.1.1-1.4-.1-1.1-.9-.3-.4m0 0-.2-.2" vector-effect="non-scaling-stroke"/><path fill="#687a80" d="M1.8 30.2q-.5-.8-.5-1.4 0-.9.6-1.2l1.4.1q.8.4 1.4 1.3t.6 1.6-.5 1l-.1.1H3.3q-.7-.3-1.1-1l-.3-.3zM4 31.5l.5-.4-2.1-2.7-.3.2Q3.6 30 4 31.4"/><path fill="#000" fill-opacity=".3" d="M4.8 31.7V33q-.2-1-.5-.2-.8-1.5-1.1 1.5-.1-2.1-1-3.5.4.6 1.1.8l1.4.1z"/><path fill="#546367" d="m2.1 28.5.3-.2L4.5 31l-.5.4q-.4-1.3-1.9-3"/><path fill="none" stroke="#3f4a4e" stroke-linecap="round" stroke-linejoin="round" stroke-width="__RESOLUTION__" d="M1.8 30.2q-.5-.8-.5-1.4 0-.9.6-1.2l1.4.1q.8.4 1.4 1.3t.6 1.6-.5 1l-.1.1H3.3q-.7-.3-1.1-1l-.3-.3m0-.1-.1-.2" vector-effect="non-scaling-stroke"/><path fill="none" stroke="#3f4a4e" stroke-linecap="round" stroke-linejoin="round" stroke-width="__RESOLUTION__" d="m2.1 28.5.3-.2L4.5 31l-.5.4" vector-effect="non-scaling-stroke"/><path fill="#9d9766" d="m51.9 24.2 1.5.2.3-4.1.7.1.9-4.7.8.4-.5 3H55l-.7 5.9-.6.1-.2 1.4h-.2l-1.2-.2z"/><path fill="#b0ab84" d="m51.9 24.2.2 2 1.2.3-.1 5.6v.9l.5 1.1-.3 2.7.2 2.6q-2.3.6-3.8-1.6v-5.9l.2.2q.4-4.5.3-8.9l1.4-.5zm-1.3 8.1-.6-.2z"/><path fill="#7d7951" d="M53.4 26.5h.1l.1-1.4.7-.1.7-5.9h.6q-1 8.5.2 18.5-.7 1.4-2.2 1.8l-.2-2.6.4-2.6-.5-1.2-.1-.9zm1.7 9.3-.2-2-.5-5 .5 5zm-.2-2-1 .4z"/><path fill="none" stroke="#656241" stroke-linecap="round" stroke-linejoin="round" stroke-width="__RESOLUTION__" d="m55.6 19.2.5-3.1-.9-.4-.8 4.7-.7-.1-.3 4.1-1.5-.2.2 2 1.2.3h.3v-1.4l.7-.1.7-5.9zq-1 8.5.2 18.5m-6 .1q-.1.1 0-.2V32l.2.2q.4-4.5.3-8.9l1.4-.5.2 1.5M50 32.1l.6.2" vector-effect="non-scaling-stroke"/><path fill="none" stroke="#726d49" stroke-linecap="round" stroke-linejoin="round" stroke-width="__RESOLUTION__" d="m54.3 28.8.5 5 .2 2m-1.6 1 .4-2.6-.5-1.2m.5 1.1 1-.3" vector-effect="non-scaling-stroke"/></g></defs><g clip-path="url(#b)"><use xlink:href="#c" width="85.1" height="125" transform="translate(1 1)"/></g></svg>