<svg xmlns="http://www.w3.org/2000/svg" xmlns:xlink="http://www.w3.org/1999/xlink" width="82" height="44" viewBox="0 0 82 44"><defs><clipPath id="a"><path d="M1 1h80v42H1z"/></clipPath><g id="b"><path fill="#967c5f" d="m75 25.2 3.2 1.6-3.7 1.2-3.6 1-2.2.4-2.1.5-4 .4h-6.2l-3-.2-2.7-.3v-.1q-.9-4.7-2.7-3l-2.2 2.2-1.1-.3-2.9-.9-2.8-1-1.5-.6-.1-6L26.8 14v-3.5q23 20 48.3 14.7"/><path fill="#a4956a" d="M75 25.2q-25.2 5.3-48.2-14.7V.5z"/><path fill="#a79a6f" d="M26.8 10.5V14l-13.3 6.7L.5 14 26.8.5z"/><path fill="#c9b681" d="m26.8 14 10.6 6-11 7.3-12.9-6.7z"/><path fill="#8c7e57" d="m37.4 20.1.1 6-5.4 4.2-5.7-3z"/><path fill="#766249" d="m37.6 26 1.4.7 2.8 1 2.9.9 1 .3-1.5 1.9q-1.8 2.3-3.4 2l-3-.8zm13.1 3.8 2.7.3 3 .2h6.3l3.9-.4 2-.5L71 29l3.6-1 3.7-1.2 1.1.6-6.1 2.8-3.7 1.2-3.7 1.1-3.6 1-3.6.5-3.7.3h-2.4q-1 0-1.8-4.5"/><path fill="#433d2c" d="m45.8 28.9 2.2-2.2q1.8-1.7 2.7 3v.1q.8 4.4 1.8 4.4h2.4l3.7-.2 3.6-.5 3.6-1 3.8-1.1 3.6-1.2 6.1-2.8-26.8 13.4-14.7-7.6V32l3 .9q1.6.3 3.5-2.1z"/><path fill="#6b6143" d="m37.8 33.2-5.6-2.9 5.3-4.2.3 5.9z"/><path fill="none" stroke="#5f3e2c" stroke-linecap="round" stroke-linejoin="round" stroke-width="1" d="M78.2 26.8 75 25.2 26.8.5.4 14l13 6.7 13 6.7 5.6 2.9 5.7 2.9 14.7 7.6 26.8-13.4zM26.8 10.5V14m0-13.5v10m11 21.5-.2-6"/><path fill="none" stroke="#4a402d" stroke-linecap="round" stroke-linejoin="round" stroke-width="1" d="m26.8 14 10.6 6 .1 6m.3 5.9v1.2"/></g></defs><g clip-path="url(#a)"><use xlink:href="#b" width="79.8" height="41.3" transform="translate(1 1)"/></g></svg>