<svg xmlns="http://www.w3.org/2000/svg" xmlns:xlink="http://www.w3.org/1999/xlink" width="23" height="41" viewBox="0 0 23 41"><defs><clipPath id="a"><path d="M1 1h21v39H1z"/></clipPath><g id="b"><path fill="#e49614" d="m14.7 0-.5 3.6-.2-.1-.4-.6-1.1-.3zM18 12.9l.6.9 1.4 2.7v1.2l-.1.2-.4-.8q-.6-.9-2.1-.5l-.4.1-.6-2.1.3-.3q.8-.6 1.3-1.4M3.6 33v-.3q0-1.2-.2-2.2T4 29l-.1-.1-.2-.4v-2.9l.1-1.4q-.8 0-1-.7l-.6-2.1q-.4-1-.1-2l.1-.2-.3-.1Q.6 18.9.2 17.7t.1-2.3 1.6-1.7l.9-.2h.5l1 2.5-.6 3.1H4l.5-.1q1-.3 1.8-.9l.1 1v.8l-.3.4-.3.4q-.4.7-.4 1.7l.2 1v.3l.5.8q.7.7 2.4 0l1.8-.8 1.3-.2.1.1-.7.6-.4.3L9.2 26l-.2.2-.3.5H7.5l-2 .7-.2 2.2-.3-.2-1-.4 1 .4.3.2-.3 2.1.7 1h1.5L7 33.9l-1.7.3q-1.7-.1-1.8-1M6.3 3.4l-.8-2.1 1.7 1.6zm5.1 25.4 1.8-.4.4 3.8h-.2q-1.5-.1-1.8-.9v-.4zm.2 2.5q.3.8 1.8.8h.2l.2 2.1-1.5-.1-.2-.1q-1.3-.2-1.2-.8v-.3l.1-.3.4-.9zM2.2 19.2l1.5-.1zm3.4 4.6-.7.3-1.1.3 1.1-.3zm-2 1.9 1.4.8h.2l2.3.3-2.3-.3H5z"/><path fill="#efb14b" d="m14 3.5.8 1.5 2 .6v2.1L15 8l-2.2.4-4.2.9-1.9 3.9-.2.5h-.1l-.2-.2q-.5-.6-.4-1.8-.1 1.2.4 1.8l.2.3q.9 1.7 2.7 2.7v.1h.2v-.1L12 16l.3 1q-.6 0-1.1.3-.8.4-1 1.5l-.1.1h-.2l-2.2.5-1.2.4-.1-.7-.1-1.1.6-.5q.4-.5.4-1l-.1-.2-.7-1q-1.2-1.2-2.3-1.7h-.1l-.8-.2.8.2h.1q1 .5 2.3 1.7l.7 1v.2q.1.5-.3 1l-.6.5q-.8.6-1.8.9H4l-.3.1.7-3.1-1.1-2.5h-.6l.3-4q.7 1.4 2 2l.9.2V11l.2-1.5v-1q.1-1.2.8-2.2l.1-.2 1.2-1.8V4l.2-.1q.2-.7 0-1.5l-.2-.6h2l2.3.7 1.1.3zm2.7 6.6.5.2q1.7.6 1.2 1.9l-.4.7q-.5.8-1.3 1.4l-.3.3-.1-.5.3-.6zM16.3 28v1l-.6 2.2h.2l1.2.7q-1.1 1.7-2.2 2.4l-.2-2.2q.8-.2 1-.9-.2.7-1 .9l-.4-4.1.3-.1.7-.4.2 1zm-.7-6.5H17l-.5.5v-.3l-.2.4-1.2.6-.3.2v-.1q.7-.2 1-1.1zm-5.4 2.2.9-.4q.6-.2.7-1.1h.7l.1 1.6-1.7.4.7-.6.6-.4-.7.3zm.9-18.3-2.3-.2zm-4 11.2h2z"/><path fill="#343301" d="m15.1 8 1.6.6-.6 1.3-1 .8-.3 2q-.4 2-1.4 3-2-2.2-6.6-2.5l1.9-3.9 4.2-.9zm-10 3.5-.3-2.2.4-.2.4.2.5.3-.2 1.5v.6z"/><path fill="#f4d68e" d="M16.7 8.6v4.9l-.4.6-.8.9-.2.2-.8.4h-1.1q1-1 1.4-3l.3-1.8 1-1zm1.2 13v1.6l-.1 2.9-.2.4-.6.9-.7.6-.8.5-.2-1-.3-1.2-.2-.7-1-1.4v-1l.8-.3.4-.1 1.2-.7.2-.1.5-.4zM17 31.9q.9-1.6 1.8-4.1l.7 2.2-4.5 6-.1-1.7v-.1q1.1-.7 2.2-2.4m2.8.8-.5 3.4-3.1.8zM14 37.4l-5.5 1.3 3.6-4.4 1.7.3zm-6.7 0L7 35.7v-3l.7-2.5.3.5 2.5 2.7zm7.5-11.8h.3l1.3-.7.6-.5.9-1.2-1 1.2-.5.5-1.3.7z"/><path fill="#f8e2b1" d="m19.9 17.9.1 1.4q-.1 1.3-.6 1.8t-1.5.5h-1l-1-.1h-.2q-.6-.2-1-1.1.2-.8-.2-1.6l-.2-.3zm-5.3-2.1v-.2zm-3 4.8.1.3.3 1.3q-.1.9-.7 1.1l-1 .4-1.7.8q-1.7.7-2.4 0l-.5-.8v-.2l-.2-1.1q0-1 .4-1.7l5.7-.2"/><path fill="#fff" d="m19.6 30 .3 2.6-3.6 4.3-1.2.3v-1zM8.5 38.6l-.2.1-.7.1-.3-1.4 3.3-4q.8.6 1.5.9z"/><path fill="#482d00" d="m15.2 37.2-1.2.2-.2-2.8v-.4l-.2-2-.4-3.9-.5-4.6-.1-1.5-.2-1.7 1.1-.3.2 1.6v1.4l.2 1 .3 3.8.5 4.1.2 2.1v.1l.2 1.9z"/><path fill="#b16810" d="m7 35.7-.8.7q-1 .6-2 .5T2.9 36t-.1-1.6.9-1.3q.1.9 1.8 1l1.7-.2zM5 9l-.3-.3-1.3-1.1.7-.7q1-1 2.3-1.2l-.3-.1-1.1-1 .7-.8.6-.4.9-.5 1.2-.4q.2.8 0 1.5l-.2.1v.2L7 6l-.1.2q-.7 1-.7 2.2v.1l-.1 1-.5-.3z"/><path fill="#232001" d="M6.8 13.2q4.7.3 6.6 2.5l1-.1.1.2-.5.2-2 .1-2.6.4h-.2q-1.8-1-2.6-2.7v-.1z"/><path fill="#747401" d="m14.5 15.6.8-.4.2-.2-.1.2-.7.5h-.1z"/><path fill="#f1c767" d="m15.5 15 .8-.9.1.5.6 2.1-2.1.5q-.6.1-.7.9L14 18l-.9-.6-.7-.2L12 16l2-.1.5-.2.2-.1.7-.5zm-8 11.7h1.2l-.5.7-.7 1.8-.2.7-2-.3.3-2.2zm-2.2 2.9 2 .3.2-.7h.3q.4.7.3 1.5l-.3-.5-.6 2.5H5.7l-.7-1z"/><path fill="#fcf0d8" d="m17 16.7.4-.1q1.5-.4 2 .4l.5.9-5.6.6V18q0-.8.6-1zm-5.4 3.8-5.7.2.3-.4.4-.4 1.2-.4 2.2-.4.2-.1q.9 0 1.4 1.5"/><path fill="#3f3f01" d="m12.3 17.2.7.2.9.6.3.1v.3l.1.1.2.3q.4.8.2 1.6.4.9 1 1.1v.2q-.3.9-1 1.1-.5.2-1 0v-1l-.2-1.6-1.1.3.2 1.7h-.7l-.3-1.3-.1-.3v-.1Q11 19 10.1 19v-.1q.3-1.1 1.1-1.5.5-.3 1-.2m1.7.8.3.4zm.8 2.4-.1.3-1 1 1-1zm1.5 1.7.2-.4v.3zm-2.3 2 .8 1.5.3.6.3 1.3-.7.4-.3.1zm-3 0 1.8-.4.5 4.6-1.8.4-.8.2-2.8.2h-.3l.7-1.8.5-.7.3-.5.2-.2 1.4-1.5z"/><path fill="#fefe41" d="M13.8 23.2v-.4q.4.2.8 0z"/><path fill="#80a45b" d="m11.6 23.5.7-.2-.6.3z"/><path fill="#d3d301" d="M9.4 16.7h-.2v-.1z"/><path fill="#fefe16" d="m9.4 16.6-.2-.1h.2z"/><path fill="none" stroke="#5b4f3c" stroke-linecap="round" stroke-linejoin="round" stroke-width="__RESOLUTION__" d="m14.7 0-.5 3.6m-.2-.1.8 1.5 2 .6v2.1L15 8l1.6.6v1.5l.5.2q1.7.6 1.2 1.9l-.4.7.6.9 1.4 2.7v1.2m-.1.2.1 1.4q-.1 1.3-.6 1.8t-1.5.5v1.6h0l-.1 2.9-.2.4-.6.9-.7.6v1l-.6 2.2h.2l1.2.7q.9-1.6 1.8-4.1l.7 2.2.3 2.6-.5 3.5-3.1.8-1.2.3m-1.1.2-5.5 1.3m-.2 0-.7.1-.3-1.4-.2-1.7-1 .7q-.8.6-1.8.5T2.8 36t-.1-1.6q.2-.8.9-1.3v-.3q0-1.2-.2-2.2T4 29l-.1-.1-.2-.4v-2.9h0l.1-1.4q-.8 0-1-.7l-.6-2.1q-.4-1-.1-2l.1-.2-.3-.1Q.6 18.9.2 17.7t.1-2.3 1.6-1.7l.9-.2.2-4q.7 1.4 2 2l.9.2q-.1 1.2.4 1.8l.2.3v-.1h0q.9 1.8 2.7 2.8l.2.1H7.2q.1.5-.3 1l-.6.5q-.8.6-1.8.9H4l-.3.1H2.2m2.6-9.8.4-.2-.4-.3-1.3-1.1.7-.7q1-1 2.3-1.2M5 4.6l.7-.8.6-.4-.8-2.1 1.7 1.6 1.2-.4-.2-.6h2l2.3.7 1.1.3.4.6m-.6 12.2q1-1 1.4-3l.3-2 1-.8.6-1.3M15.1 8l-2.2.4-4.2.9-1.9 3.9-.2.5m6.8 2 1-.1q.5-.1.9-.4l.2-.2.8-.9.3-.6.1-3.4m.3 6.6-.6-2.1-.1-.5m.7 2.6.4-.1q1.5-.4 2 .4l.5.9h0m-1.9-5q-.5.8-1.3 1.4l-.3.3m-.9.4-.1.2-.7.5h-.2l-.5.3-2 .1-2.6.4h-.2m3 .7.8.2.9.6.3.1q.1-.8.7-1l2-.4m-2.6 1.8-.4-.4m.3.1v.3m.1.1.2.3q.4.8.2 1.6.4.9 1 1.1h1.2l1 .1m-6 .6-.3-1.3-.1-.3m-5.7.1q-.4.7-.4 1.7l.2 1v.3l.5.8q.7.7 2.4 0l1.8-.8.9-.4q.6-.2.7-1.1h.7m1-.4 1-1.1.1-.3m-1 2.8 1-.3.3-.1 1.2-.7.2-.1.5-.4m-2.2 1.2q-.5.2-1 0m2-1.3v.2q-.3.9-1 1.1m.6 4.7-.3-1.2-.2-.7-1-1.4m.4 3.8.4-.1.7-.4.2 1 .8-.5m1.6-4.8-1 1.2-.5.5-1.3.7h-.3m-3.2-2.1.7-.2-.6.3-.7.6-.4.3L9.2 26m2.4-2.5-1.3.2m2.8 4.7-1.7.4.2 2v.5q.3.8 1.8.8h.2m2.1-.9q-.2.7-1 .9m.2 2.1Q16 33.7 17 32m-6.1.7.4-.9.2-.4m.5 3 1.7.3m0-.4-1.5-.1-.2-.1q-1.3-.2-1.2-.8V33M7.1 3l-.9.5M6 9.7V8.5q.1-1.2.8-2.2l.1-.2 1.2-1.8V4l.2-.1q.2-.7 0-1.5M6 9.4l-.5-.2-.4-.2m3.7-4 2.3.3m-4 11.2v-.2l-.7-1q-1.2-1.2-2.3-1.7H4l-.8-.2m3 4.6.1 1v.8l1.3-.4 2.2-.4.2-.1v-.1q.3-1.1 1.1-1.5.5-.3 1-.2m-9-3.7h-.5M6 11.7V11l.2-1.5m-.3 11.1.3-.4.4-.4m2.2 6.8H7.5l-2.3-.3H5l-1.3-.8m1.6 4 2 .3.2-.7.7-1.8.5-.7.3-.5m-1.2 3h-.3m3.9-.4-.8.2-2.8.2q.4.7.3 1.5l2.5 2.7q.8.6 1.5.9m-8.3-10 1.1-.3.7-.3m-.3 5.9-.3-.2-1-.4m-.4 4q.1 1 1.8 1.1l1.7-.2v-1.1m0-.1.7-2.5.3.5m-1 5v-1.9M10 19q.9 0 1.4 1.5" vector-effect="non-scaling-stroke"/><path fill="none" stroke="#5b4f3c" stroke-linecap="round" stroke-linejoin="round" stroke-width="__RESOLUTION__" d="m14.2 3.6-.2-.1m-9 8-.2-2.2m7.7-6.7L14.7 0M6.8 13.2q4.7.3 6.6 2.5M12 16l.3 1" vector-effect="non-scaling-stroke"/><path fill="#fff" d="M12.5 5.5q.3-.3.8-.3t.8.3l.4.9q0 .5-.3.8-.4.4-.9.4t-.8-.4-.4-.8.4-.9m6.1 11.9.1.4-.1.3-.4.1-.3-.1-.1-.4.1-.3.4-.1zM17 23.2l.3.5-.2.4q-.2.2-.5.2l-.5-.2-.2-.4.2-.5.5-.2zM6 17.3q-.3.3-.7.3-.5 0-.8-.3l-.3-.7.3-.8.8-.3.7.3q.3.3.3.8t-.3.7"/></g></defs><g clip-path="url(#a)"><use xlink:href="#b" width="20.1" height="38.9" transform="translate(1 1)"/></g></svg>