<svg xmlns="http://www.w3.org/2000/svg" xmlns:xlink="http://www.w3.org/1999/xlink" width="49" height="125" viewBox="0 0 49 125"><defs><g id="d"><path fill="#364842" d="m2.1.4-.5.7H1L.9.5l.5-.5z"/><path fill="#1f232b" d="m.8.5.1.6h.7l.5-.7v2.1l-.7.4-.8-.1L.1 2z"/><path fill="#070b0b" d="m.1 2 .5.8h.9l.6-.3.1 3.5v.7l-.4.2-.5.2L1 7l-.4-.2-.3-1Q-.2 3.8.1 2"/></g><g id="c"><path fill="#070b0b" d="M3.6 0h.9l.5.2.8.4 1 1.2q.5 1 .5 2-.1 1.3-.9 2Q4.5 8 2 6.8 0 5.7 0 3.3v-.1l.1-.7.2-.5.3-.5.5-.6.3-.2.6-.4.5-.2h.2zm.7 1.7-.2-.1q-1-.3-1.8.3l-.8.8v.2q-.1.6.3 1.4t1.6 1.3L5 5l.7-1.2q-.1-1.6-1.5-2.1m-3-.6-.7.7L.4 3l.5.1.5-1.3 2.4-.7 1.3.4q.3-.3 0-.8l-1-.5-1.4.3-.9.1z"/><path fill="#1f232b" d="M2.7.5 4.2.2l1 .4q.1.6 0 .8l-.2.1-1.2-.4-2.4.7-.5 1.3L.4 3l.2-1.2.8-.7.5.4.8-.6z"/><path fill="#364842" d="m1.4 1.1.4-.5.9-.1v.4l-.8.6z"/></g><clipPath id="a"><path d="M1 1h47v123H1z"/></clipPath><path id="b" fill="#100805" fill-opacity=".4" d="M132.1 165.7v.6l-1.8.6z" transform="translate(-130.3 -165.7)"/></defs><g clip-path="url(#a)"><g transform="translate(20.35 239.65)"><use xlink:href="#b" width="1.8" height="1.3" transform="matrix(.3542 .0673 0 .6529 26.8 -129.7)"/><use xlink:href="#c" width="7.3" height="7.2" transform="matrix(1.5739 -.9923 0 3.8782 13.85 -216.5)"/><use xlink:href="#c" width="7.3" height="7.2" transform="matrix(1.5739 -.9923 0 3.8782 10.9 -186.65)"/><use xlink:href="#d" width="2.3" height="7" transform="matrix(1.5606 -.4942 -.1987 3.9708 18.05 -207.05)"/><use xlink:href="#c" width="7.3" height="7.2" transform="matrix(1.5739 -.9923 0 3.8782 4.3 -153.05)"/><use xlink:href="#d" width="2.3" height="7" transform="matrix(1.3597 1.0829 -.7874 3.8468 14.85 -174.65)"/><use xlink:href="#d" width="2.3" height="7" transform="matrix(1.5606 -.4942 -.1987 3.9708 19.3 -237.5)"/><use xlink:href="#c" width="7.3" height="7.2" transform="matrix(-1.5739 .9923 0 3.8782 -7.95 -202.35)"/><use xlink:href="#c" width="7.3" height="7.2" transform="matrix(-1.5739 .9923 0 3.8782 -5 -176.15)"/><use xlink:href="#d" width="2.3" height="7" transform="matrix(-1.5606 1.4736 .1987 3.7202 -12.2 -187.55)"/><use xlink:href="#c" width="7.3" height="7.2" transform="matrix(-1.5739 .9923 0 3.8782 1.6 -150.95)"/><use xlink:href="#d" width="2.3" height="7" transform="matrix(-1.3597 2.7974 .7874 2.854 -9 -159.15)"/><use xlink:href="#d" width="2.3" height="7" transform="matrix(-1.5606 1.4736 .1987 3.7202 -13.45 -216.35)"/><use xlink:href="#d" width="2.3" height="7" transform="matrix(.0617 3.824 -1.5677 1.1405 8.6 -146.65)"/></g></g></svg>