<svg xmlns="http://www.w3.org/2000/svg" xmlns:xlink="http://www.w3.org/1999/xlink" width="71" height="54" viewBox="0 0 71 54"><defs><g id="o"><path fill="#fff" d="M3.3 32.2q.5.5.5 1.3T3.3 35t-1.4.6T.6 35q-.6-.5-.6-1.4 0-.7.5-1.3t1.4-.6 1.4.6m6.7-8.7q.3.4.3.9l-.3.9q-.3.3-.8.3t-.9-.4-.4-.8.4-.9.8-.3.9.3m1.2-7q.6.6.6 1.4t-.6 1.3-1.3.6-1.4-.6-.6-1.3.6-1.4q.6-.5 1.3-.5t1.4.5m6 11.4q0 .8-.6 1.3t-1.4.6q-.7 0-1.3-.6-.5-.6-.5-1.3 0-.9.5-1.4t1.3-.5 1.4.5.5 1.4m5.7 3.9q-2.4-.6-2.4-1.3 0-.9 2.4-1.4l6-.6 6 .6q2.5.5 2.5 1.4t-2.5 1.3l-6 .6zm25-5.3q.6.5.6 1.4t-.6 1.3q-.5.6-1.3.6t-1.4-.6-.6-1.3q0-.9.6-1.4t1.4-.5 1.3.5"/><path fill="#cba756" d="m28 3.7 4-.2q5.2 0 9.5 1.2-8 8.9-27.8 12.5l-1-1.8q-.3-1-.3-2 0-1.6.8-3l.4.1zm19.4 3.6q4.2 2.6 4.3 6.1v.4l-12 8.9-7.7.8-2.1-.1-7-1-.3-.1q7.8-9.5 24.8-15"/><path fill="#d5bc72" d="m41.5 4.7.5.1 3.9 1.6 1.5.8q-17 5.6-24.8 15-2.5-.6-4.5-1.6-3-1.6-4.4-3.5 19.8-3.6 27.8-12.5"/><path fill="#c49a3c" d="m51.7 13.8-.4 1.6q-1.1 2.9-5.4 5.2-2 .9-4.1 1.5l-2.1.6zm-39 1.6 1 1.7h-.1z"/><path fill="#5e4b22" d="m51.3 15.4.4 2q-.1 4.1-5.9 7-1.9 1-4 1.6v-3.9q2.1-.6 4-1.6 4.4-2.2 5.5-5.1"/><path fill="#715a28" d="m41.8 26-.1.1q-4.4 1.3-9.7 1.3l-2.1-.1v-3.9H32l7.6-.7 2.1-.6z"/><path fill="#7c642e" d="m29.9 27.3-7-1v-4l7 1.1z"/><path fill="#896f32" d="M22.9 26.3q-2.6-.8-4.8-1.8-5.7-3-5.7-7.1 0-1 .3-2l.9 1.7h.1q1.4 1.9 4.4 3.4 2 1.1 4.4 1.8h.4z"/><path fill="#b08b35" d="M13.3 10.4q1.3-2.2 4.8-4 4.3-2.2 9.9-2.7l-14.4 6.8z"/><path fill="none" stroke="#68512f" stroke-linecap="round" stroke-linejoin="round" stroke-width="__RESOLUTION__" d="m28 3.7 4-.2q5.2 0 9.5 1.2l.5.1 3.9 1.6 1.5.8q4.2 2.7 4.3 6.2v.4l-.4 1.6.4 2q-.1 4.1-5.9 7-1.9 1-4 1.6m-.1.1q-4.4 1.3-9.7 1.3l-2.1-.1-7-1q-2.6-.8-4.8-1.8-5.7-3-5.7-7.1h0q0-1 .3-2-.3-1-.3-2 0-1.6.8-3 1.4-2.2 4.9-4 4.3-2.2 9.9-2.7" vector-effect="non-scaling-stroke"/><path fill="none" stroke="#9b885a" stroke-linecap="round" stroke-linejoin="round" stroke-width="__RESOLUTION__" d="m13.6 17 .1.1" vector-effect="non-scaling-stroke"/><path fill="#6a5526" fill-opacity=".6" d="m51.6 14.3-1.4.1-12.5 4-.3-1-.4-3.6v-.1.1h-.3q-13.1 2.1-12.3-.4l-.7-.2.9-3.8 22.3-1.8q2.5.6 3.1 2.2 1.5 1.6 1.5 4.5"/><path fill="#977646" d="m21.6 3.2.8-1.5L26.7 0h2.2l14 4.7v.4l-2.6 1.4-5 .9z"/><path fill="#7a6038" d="m21.6 3.2 13.7 4.2 1.9 2.2v1l-.2.2.2-.2.4 8.1-.1.1-3.6-1.4L33 10l-3.6-1.2L26 7.6l-.3 6.7-.5.5-4.7-1.9.2-1.3.3-.7.3-7z"/><path fill="#e5d6a8" d="m35.3 7.4 5-.9-2.7 3.6-.5-.5z"/><path fill="#68512f" d="m40.3 6.5 2.6-1.4.4 10.8h-.4l-5.2 2.8-.5-8H37l.2-.1v-1l.3.5zM29.6 8.8l.3 2.8-4.3 2.7.3-6.7z"/><path fill="none" stroke="#68512f" stroke-linecap="round" stroke-linejoin="round" stroke-width="__RESOLUTION__" d="M42.9 5.1v-.4L28.9 0h-2.2l-4.3 1.7-.8 1.5-.5.7-.2 7-.3.7-.2 1.3 4.8 1.9.4-.5 4.3-2.7-.4-2.7 3.6 1.2.8 7.3 3.6 1.4.1-.1 5.3-2.8h.4z" vector-effect="non-scaling-stroke"/></g><g id="n"><path fill="#2ec0b1" d="M47.4 13.8q-1.4-2.9-5.7-5-6.3-3.2-15.2-3.2h-1.7q-11-2.4 0-5.6h1.7Q34 0 39.7 2.3l2 .9Q48 6.4 48 10.9q0 1.5-.6 2.8"/><path fill="#93e3d2" d="M47.4 13.8q.6-1.4.6-2.9 0-4.5-6.3-7.7l-2-.9q3 .9 5.5 2.2Q53 8.4 53 14q0 4.6-5.4 8.1l-2.4 1.4q-3.7 2-8.2 3 8-5.9 2.9-7l1.8-.9q4.3-2.1 5.6-4.9"/><path fill="#28ac9e" d="M24.8 0q-11 3.2 0 5.6-7.9.3-13.5 3.2l-.3.1q8.1-6.4 0-5.6l.3-.1q1-.6 2.1-1 5-2 11.4-2.2"/><path fill="#259e92" d="M11 9q-4 2.1-5.2 4.8-.7-1.4-.7-2.9 0-4.4 6-7.5 8.1-1 0 5.5"/><path fill="#bfeae6" fill-opacity=".9" d="M5.7 13.8q1.4 2.7 5.6 4.8Q17.6 22 26.5 22q7.6 0 13.4-2.4 5.1 1.1-2.9 7l-10.5 1q-11 0-18.7-4l-2.4-1.3Q0 18.7 0 14q0-5.6 7.8-9.5L11 3l2.4-.8-2.1 1-.3.1Q5 6.6 5 11q0 1.4.7 2.8"/><path fill="#93dbd3" d="M37 26.5q4.5-1 8.2-3l2.4-1.4q-1.2 3.1-5.9 5.5-2.9 1.5-6.2 2.3-4.1 1-9 1-8.9 0-15.2-3.2-4.7-2.4-5.9-5.5l2.3 1.4q7.8 3.9 18.8 3.9z"/></g><g id="l"><path fill="#ff8d5e" d="M21 .5q2.8.8 5 3 3.5 3.6 3.6 8.7 0 2-.6 3.7h-.1q-.9 1.5-3 2.8-3.5 2.2-8.5 2.2t-8.6-2.2l-2.4-2q4 1.7 9.9 1.2 3.3.5 6.8-3.5 1.3-1.1 1.7-3.7.1-5.1-3.8-10.2"/><path fill="#ffa57d" d="m6.5 16.8-.6-.9h-.2q-.5-1.7-.5-3.7 0-5.1 3.6-8.6Q12.3 0 17.4 0l3.6.5q4 5.1 3.8 10.2-.4 2.6-1.7 3.7-3.5 4-6.9 3.5-5.7.5-9.7-1.1"/><path fill="#ff8d5e" d="M9.7 29q-.3-.6-.3-1.2t.3-1.3q.4-.5.9-.5t.8.5q.3.6.3 1.3 0 .6-.3 1.1t-.8.6-.9-.6m17.4-3L26 26q-.4-.3-.4-1 0-.8.6-1.6t1.2-1.1h1.1q.4.2.3 1l-.5 1.5zm-25.3-10q.5.5.8 1.5t0 1.8q-.1.7-.5.9-.5.1-1.1-.4L.2 18 0 16.4q.3-.8.8-1t1 .5"/><path fill="#fff" d="M7.4 14.8q.3-.5.8-.4.5-.1.8.4t.3 1.1q0 .7-.3 1.1t-.8.5q-.5 0-.8-.5T7 15.9t.3-1.1m5.5 1.4q.5 0 .8.5l.3 1.1-.3 1.2q-.3.4-.8.4T12 19q-.4-.5-.4-1.2t.4-1.1.8-.5"/></g><g id="j"><path fill="#98e7de" fill-opacity=".6" d="M74 37q0 15.4-10.9 26.2Q52.5 74 37 74q-15.3 0-26.2-10.8T0 37t10.8-26.2T37 0q15.4 0 26.2 10.8T74 37"/><path fill="none" stroke="#29cdac" stroke-linecap="round" stroke-linejoin="round" stroke-opacity=".7" stroke-width="__RESOLUTION__" d="M74 37q0 15.4-10.9 26.2Q52.5 74 37 74q-15.3 0-26.2-10.8T0 37t10.8-26.2T37 0q15.4 0 26.2 10.8T74 37" vector-effect="non-scaling-stroke"/><path fill="#acebe5" fill-opacity=".6" d="M10.4 26.4q-1.7 3.6-1.8 11t5.2 14.3q5.2 6.8 3.3 7t-6.5-4.4q-4.4-4.6-6.1-12t.2-13.1 4.7-6 1 3.2"/><path fill="#b8e9d9" fill-opacity=".3" d="M62.7 33.9q0-12.2-8.6-20.7T33.5 4.5q-6 0-11.1 2 6.9-3.4 15.2-3.4 14.1 0 24 9.9t10 24q0 14.2-10 24.1t-24 10-24-10-10-24q0-4.2.9-8-.3 2.3-.3 4.7 0 12.1 8.5 20.7t20.8 8.6q12-.1 20.6-8.7T62.7 34"/></g><g id="i"><path fill="url(#a)" d="M50.5 14q0-5.2-7.2-8.9Q36 1.5 25.8 1.5T8.4 5t-7.2 9 7.2 8.9 17.4 3.7q10.2-.1 17.5-3.7 7.2-3.7 7.2-8.9m-6.3 20.2q-7.6 7.5-18.3 7.5T7.6 34.2.1 16v-.2Q0 9.2 7.6 4.6T25.9 0t18.3 4.6 7.6 11.1v.2q0 10.7-7.6 18.2" transform="translate(-.05)"/><path fill="#31b1e8" d="M50.4 14q0 5.2-7.2 8.9-7.2 3.6-17.5 3.7-10.1-.1-17.3-3.7Q1 19.2 1 14t7.3-8.9q7.1-3.6 17.3-3.6T43.3 5t7.2 8.9"/></g><path id="d" fill="#166269" fill-opacity=".3" d="M55 39.2q5.7 2.3 5.7 6T55 51.9t-13.8 3.6-13.8-1.6-5.7-6 5.7-6.7 13.8-3.6T55 39.2" transform="translate(-21.7 -37.45)"/><path id="m" fill="url(#b)" d="M35.4-35.3q14.6 0 25 10.3T70.7 0 60.3 25t-25 10.4-25-10.4T0 0t10.4-25 25-10.4" transform="translate(0 35.35)"/><path id="h" fill="#24978b" fill-opacity=".6" d="M24.6 62.5q5.4-2 13-2t12.9 2 5.3 4.8-5.3 4.7q-5.4 2-12.9 2t-13-2q-5.3-2-5.2-4.7-.1-2.8 5.2-4.8" transform="translate(-19.35 -60.5)"/><path id="g" fill="url(#c)" d="M35.4-35.3q14.6 0 25 10.3T70.7 0 60.3 25t-25 10.4-25-10.4T0 0t10.4-25 25-10.4" transform="translate(0 35.35)"/><radialGradient id="b" cx="0" cy="0" r="819.2" gradientTransform="translate(35.35)scale(.04)" gradientUnits="userSpaceOnUse" spreadMethod="pad"><stop offset="0" stop-color="#fff" stop-opacity=".8"/><stop offset="1" stop-color="#fff" stop-opacity="0"/></radialGradient><radialGradient id="c" cx="0" cy="0" r="819.2" gradientTransform="translate(35.35)scale(.04)" gradientUnits="userSpaceOnUse" spreadMethod="pad"><stop offset="0" stop-color="#474717" stop-opacity=".5"/><stop offset="1" stop-color="#474717" stop-opacity="0"/></radialGradient><linearGradient id="a" x1="-819.2" x2="819.2" gradientTransform="matrix(.03 0 0 .03 25.9 20.85)" gradientUnits="userSpaceOnUse" spreadMethod="pad"><stop offset="0" stop-color="#31b1e8" stop-opacity="1"/><stop offset="1" stop-color="#1c6685" stop-opacity="1"/></linearGradient><clipPath id="f"><path d="M1 1h69v52H1z"/></clipPath><use xlink:href="#d" id="k" width="39" height="18.2"/></defs><g clip-path="url(#f)"><g transform="translate(28.1 26.75)"><use xlink:href="#g" width="70.7" height="70.7" transform="matrix(.4419 -.2133 .4368 .2007 -27.1 11.6)"/><use xlink:href="#g" width="70.7" height="70.7" transform="matrix(.4419 -.2133 .4368 .2007 -20.5 9.65)"/><use xlink:href="#g" width="70.7" height="70.7" transform="matrix(.2654 -.1281 .2623 .1205 -14.65 14.35)"/><use xlink:href="#g" width="70.7" height="70.7" transform="matrix(.2654 -.1281 .2623 .1205 -25.9 13.95)"/><use xlink:href="#h" width="36.5" height="13.5" transform="translate(-8.5 6.85)scale(.4835)"/><use xlink:href="#i" width="51.8" height="41.8" transform="translate(-12.4 -7.4)scale(.4835)"/><use xlink:href="#j" width="74" height="74" transform="translate(-17.85 -20.2)scale(.4835)"/><use xlink:href="#k" width="39" height="18.2" transform="translate(-8.4 -3.9)scale(.4835)"/><use xlink:href="#l" width="29.6" height="29.5" transform="translate(-11.7 -10.9)scale(.6891)"/><use xlink:href="#m" width="70.7" height="70.7" transform="matrix(.296 -.1416 .1341 .2935 -23.35 -4.45)"/><use xlink:href="#n" width="53" height="30.9" transform="translate(-12.75 -22.4)scale(.4835)"/><use xlink:href="#m" width="70.7" height="70.7" transform="matrix(.0881 -.0422 .0399 .0874 -15.1 -19.45)"/><use xlink:href="#m" width="70.7" height="70.7" transform="matrix(.1093 -.0523 .0495 .1084 -20.8 -11.15)"/><use xlink:href="#o" width="51.6" height="35.5" transform="translate(-15.3 -25.75)scale(.4835)"/></g></g></svg>