<svg xmlns="http://www.w3.org/2000/svg" xmlns:xlink="http://www.w3.org/1999/xlink" width="71" height="52" viewBox="0 0 71 52"><defs><clipPath id="a"><path d="M1 1h69v50H1z"/></clipPath><g id="b"><path fill="#795724" d="M32.4 8 43 3l6-3 5.8 3-8.9 4.4-12.5 6.4L6.8 27.3 0 24z"/><path fill="#58613d" d="m0 23.9 6.8 3.4-.5.3-.1 4.5L0 28.9z"/><path fill="#66491e" d="m6.8 27.4 26.6-13.6 12.4-6.4h.1L54.8 3l1.8 1h.2l4.8 2.4.2.2.5.3L37.8 19l-.4.3h-.2L13.8 30.9z"/><path fill="#876229" d="M37.2 19.3h.2l.4-.3L62.3 6.8l5.9 2.9-49 23.9H19l-5.2-2.7z"/><path fill="#4d5434" d="m13.8 30.9 5.2 2.6v5.1L15.8 37l-2.4-1.2v-.1z"/><path fill="#988340" d="M19 33.6h.1"/><path fill="#362710" d="m19.2 33.6 49-23.9v5l-5.8 2.8-4.1 2h-.1l-1.6.8-4.1 2-6.9 3.4-20.8 10.1-4.1 2v.1l-1.6.7zM22 43.7l.8.4.8.5-4.1 2-1.7-.9z"/><path fill="#553e1a" d="M52.5 22.3v1.3l2.3 3.4 2.2 1.3v3.2l-2.2-1.2-1-1.7-1-1.3-1.4-1.6L50 25l-.5-.2H48l-.8.6-1 .6-.6-.3zM19.4 49.8l-2.2-1.1-1-1.8-1.8-2.2-.6-.6-.8-.6-1-.4h-1l-.6.1-.8.6-1 .5-2.3-1.1V40l2.3 1 2.2-1.1v-4.4L9.9 34l3.4 1.7h.1l2.4 1.3-.9.6V42l2.2 3.3.6.4 1.7.9z"/><path fill="#63533a" d="M52.5 23.7v-1.4l4.1-2v1.3l2.2 3.4 1.1.6 1.2.6v3.3l-4.1 2v-3.2L54.8 27zM19.1 38.8V40l2.1 3.3.7.4-4.2 2-.6-.4L15 42v-4.4l1-.6 3.1 1.5zm4.5 5.8v3.2l-4.1 2v-3.2z"/><path fill="#482e1f" d="m47.2 25.5.8-.7h.5z"/><path fill="#fffeba" d="m58.3 19.5 4.1-2v.1zM24.8 35.8v.1l-4.1 2z"/><path fill="#975a2b" d="M60 25.6h-.1m-40.8 13v.1z"/><path fill="#ba8053" d="m11 43.2-1.4.6.8-.6z"/><path fill="#493e2c" d="m6.3 40 4.1-2 .4.1V40l-2.2 1z"/><path fill="#4e5535" d="m9.9 34-3.7-2 .1-4.5.5-.3 7 3.6-.5 4.8z"/><path fill="none" stroke="#271f0e" stroke-linecap="round" stroke-linejoin="round" stroke-width="__RESOLUTION__" d="M32.4 8 0 24v5l6.2 3.2L9.9 34l.9 1.5v2.6l-.4-.1-4 2v3.2l2.2 1.1 1-.5 1.4-.6.2-.1h.7l1.1.4.8.6.6.6 1.7 2.2 1 1.8 2.3 1.1 4.1-2v-3.2l-.8-.5h0l-.8-.4-.7-.4L19 40v-1.4h.1l1.5-.7h.1l4.1-2h0l-4.1 2h0m34-35L49 0l-6.1 3m25.3 6.7-5.9-3-.5-.2m-9.3 15.8-6.9 3.4.5.3 1.1-.6.8-.6h1.5l.5.1 1.4.9 1.4 1.5m0 0 1 1.3 1 1.7 2.2 1.2 4.1-2v-3.2l-1.2-.7h0l-1-.6-2.2-3.4v-1.3l-4.2 2m4.5 6L54.8 27l-2.3-3.4M54.8 3l1.8 1m.2 0 4.8 2.4m-3.3 13.2 4.1-2 5.8-2.8v-5m-10 9.9 4.1-2v-.1m-5.7 2.8 1.5-.8.1.1m-9.7 5.2-1.4.6M24.8 35.9l20.8-10.1M15.8 37l-2.4-1.2v-.1L9.8 34m7.8 11.7-.6-.4m.6.4 1.7.9M15.8 37l3.2 1.5m-9.4 5.3.8-.6h.6m-.2-5v1.7L8.6 41" vector-effect="non-scaling-stroke"/><path fill="none" stroke="#50381d" stroke-linecap="round" stroke-linejoin="round" stroke-width="__RESOLUTION__" d="m6.8 27.4 26.6-13.6m12.5-6.4L54.8 3M37.2 19.3 13.8 30.9M62.3 6.8 37.8 19m-24 11.9-.5 4.8m-7.1-3.6.1-4.5.5-.3" vector-effect="non-scaling-stroke"/><path fill="none" stroke="#271f0e" stroke-linecap="round" stroke-linejoin="round" stroke-width="__RESOLUTION__" d="M19 38.6v.1" vector-effect="non-scaling-stroke"/><path fill="#745c36" d="m12.3 5.3-.2 1.1v1L6 3.2Q4.4.8 6.5.8l6.4 4.1zM21 12l.2-1.3h.6l6 3.6-.1.3q-1.3.4-.5 1.5v.3l-.6-.4-.6-.3-3.2 1.8-.5-4.1 3.7 2.3-3.7-2.3-.4-.3-.6-.3z"/><path fill="#957644" d="m12.1 6.4.2-1.2 8.9 5.4-.2 1.3z"/><path fill="#a08f69" d="m22.3 13.3.5 4.1 3.2-1.8.6.3q-.4 2.6.2 4.1l.2.4v.1l.3.4.3.4q-2 1.2-3.6 1.1l-.7-.1q-.8-.3-1.4-.8-.7-.7-1.2-1.7-.8-1.5-1.2-3.7l.6-.2q1-.7 1.8-2.9z"/><path fill="#bfb699" d="M19.5 16.1q.4 2.2 1.2 3.7L19 21.3l-.2-.2-.2-.1q-.6-2.2-.4-5.4.6.5 1.3.5m2.4 5.4q.6.5 1.4.8V24l-.8-.4-.9.4.5-.7-.7-.4zm2.1.9q1.6.1 3.6-1.1l1 .6.5.2q-1.2 2.2-2.5 3.3l-.9-1.7-.1 1.8-.5-.2-.8-.6zm3.5-5.6-.3-.8q-.8-1.1.5-1.6l1.3-.7q-.6 2.2 1.2 3.3-1.7-.5-2 1.3z"/><path fill="#faeec5" d="M20.7 19.8q.5 1 1.2 1.7l-.5 1.4-2.4-1.6zm2.6 2.4.7.2.3 2.4-1-.7z"/><path fill="#79684f" d="m27.6 21.3-.3-.4-.3-.4-.2-.5q-.6-1.5-.2-4l.6.3V16l.3.8q-.7 2-.4 3.3l.1.4zl.8.6z"/><path fill="#795724" d="m18.6 21 .2.1-.2.1-4.3 2.3-.7-.6 4.5-2.2z"/><path fill="#66491e" d="m14.3 23.5 4.3-2.2.2-.2.2.2 2.4 1.6.7.5-.5.7 1-.4.6.4 1.1.6.8.6-5 2.3z"/><path fill="#876229" d="m25.6 25.5 1.3.8-5.3 2.4-1.6-1.1 5.1-2.3z"/><path fill="none" stroke="#423e22" stroke-linecap="round" stroke-linejoin="round" stroke-width="__RESOLUTION__" d="m12.1 6.4.2-1.2.6-.3L6.5.8q-2 0-.6 2.5l6.2 4zl8.9 5.5.2-1.3-8.9-5.3m15.4 9.1v-.2l-5.9-3.6h-.6m1.1 2.7.5 4.1 3.2-1.8zl-.4-.3q-.8 2.2-1.8 2.9l-.6.2q-.7 0-1.3-.5-.2 3.2.4 5.4m9 .3-.3-.4-.3-.4h0m-.4-4.6-.6-.3m-5-3.7.3.8.6.3m5.6 3.8-.3-.8v.3l-.6-.4m1.1-1.5 1.3-.7q-.6 2.2 1.2 3.3-1.7-.5-2 1.3l-.7-1.6q-.7 2.1-.4 3.4l.1.4.5.8.8.6.6.2q-1.2 2.2-2.5 3.3l-.9-1.7-.1 1.8m1.6-9.5q-.8-1.1.5-1.6m.8 7.5-.9-.6" vector-effect="non-scaling-stroke"/></g></defs><g clip-path="url(#a)"><use xlink:href="#b" width="68.2" height="49.8" transform="translate(1 1)"/></g></svg>