<svg xmlns="http://www.w3.org/2000/svg" xmlns:xlink="http://www.w3.org/1999/xlink" width="48" height="23" viewBox="0 0 48 23"><defs><clipPath id="a"><path d="M1 1h46v21H1z"/></clipPath><g id="b"><path fill="#c2883b" d="m15.5 12.6-1 .1q-3.5.1-9.7-2.5-.6-1-.5-2L3.8 8 0 8.6Q.8 7 2 6l.2-.5 1.3-.6q5.6-2.5 11.6-3.7L23 .9q5.5-.8 6.4.8.8 1.5.2 1.4H29v1.3l-2 1.7-2.4 1.6q-1.5 1-4.2 1.9t-5 3"/><path fill="#352415" d="m0 8.6 3.8-.7.5.3q-.1 1 .5 2 6.2 2.6 9.7 2.5l1-.1-.8.6h-.1l-.1.1v.1l-1.2 2v.1q.6-1 .8-2.1-6.8-.7-9.7-2.7L3.3 10Q1 10 0 8.7zM27.2 6l2-1.7V3h.6q.6.1-.2-1.4-1-1.6-6.6-.7l-7.9.3Q19.7 0 23.9 0t7.1.8l.9 1v.7q-.3 2 2.8 2.5l1.1.4h.1l1.2.3-3-.5h-3.4q0-.3-3.6.9m17 3.8q1-.3 0 .8l-1.6.8-7 3.4-2.5 1.7-3 1.7-3.2 1.5q-1.6.7-4.7.7-3.2 0-4.8-.7l-2-1 4.6.6q2.2.2 4.4-.5l1.8-.6.1-1.9.1.1 1 1.4 1.2-.2q1.9-.4 4-1.6l4-2.4 6.1-3.2z"/><path fill="#986b2e" d="M15.5 12.6q2.3-2.1 5-3 2.7-1 4.2-1.9l2.4-1.6q3.6-1.2 3.6-1l3 .2.5-.1 2.9.5 1.8.4 3.9.7 2.9.2q0 1.1-.5 2l-.2.3-.7.1-.3.3v.2q-.5.1-1.4.6-4.2 2-6.1 3.2l-4 2.4q-2.1 1.1-4 1.5l-1.1.3-1.1-1.4h-.1l-.1 1.8-1.8.6q-2.2.7-4.4.5l-4.5-.5-2-1-.3-2.2.2-.2v-.1l1.2-2v-.1l.2-.2z"/></g></defs><g clip-path="url(#a)"><use xlink:href="#b" width="45.6" height="20.5" transform="translate(1 1)"/></g></svg>