<svg xmlns="http://www.w3.org/2000/svg" xmlns:xlink="http://www.w3.org/1999/xlink" width="64" height="51" viewBox="0 0 64 51"><defs><radialGradient id="a" cx="0" cy="0" r="819.2" gradientTransform="matrix(.02 0 0 .01 19.9 9.95)" gradientUnits="userSpaceOnUse" spreadMethod="pad"><stop offset="0" stop-color="#000" stop-opacity=".8"/><stop offset="1" stop-color="#000" stop-opacity="0"/></radialGradient><clipPath id="c"><path d="M1 1h62v49H1z"/></clipPath><path id="b" fill="url(#a)" d="M5.9 17Q0 14.1 0 10t5.9-7q5.8-3 14-3 8.3 0 14 3 5.9 2.8 5.9 7 0 4.1-5.8 7-5.9 2.9-14.1 2.9T5.9 17"/><use xlink:href="#b" id="d" width="39.8" height="19.9"/><g id="e"><path fill="#000" fill-opacity=".2" d="m3.3 34.8-1-1.5 18 3.4q-6.4-3.9-7.2-9.9l17.4-3.7q8.8 7.5 18 12 3 1.5 10 1.3L38 46l-3-.6-1.9-.7-1.6-.9-8.5 2.9-2.1-1.1 6.9-2.5-12-5.5zm37.2 12.1.1.3-.1-.1z"/><path fill="#b8770a" d="M3.4 15.3h-.2V12h.3zm-1 2.1q.4.4.9.4t.8-.4l.7 1.5-1-.6-.4 1-.3-1-.7.8v-1.2l-1.1.6z"/><path fill="#6eadc2" d="M3 15.3h.4l.7.3.5.9q0 .6-.5.9-.3.4-.8.4t-.9-.4-.3-.9l.3-.9zm.1 1-.1-.4-.3-.2-.4.2-.1.4.1.4.4.2.3-.2z"/><path fill="#c4dde6" d="M3.3 16.3q0 .3-.2.4l-.3.2-.4-.2-.1-.4.1-.4.4-.2.3.2z"/><path fill="#b8770a" d="M28.9 39.3V36h.4v3.2zm1 2.2.6 1.4-.9-.5-.4 1-.3-1-.7.8V42l-1.1.6 1.1-1.1.9.3z"/><path fill="#6eadc2" d="M29.3 39.2q.4 0 .6.3.5.5.5 1t-.4.8v.1l-.9.3-.9-.3v-.1q-.3-.3-.3-.8t.3-1q.3-.2.7-.2l.2-.1zm-.3.6-.3-.1-.4.1-.1.5.1.4.4.1.3-.1.1-.5z"/><path fill="#c4dde6" d="m28.9 39.8.1.5-.1.4-.3.1-.4-.1-.1-.5.1-.4.4-.1z"/><path fill="#5b381e" d="m32.4 23.4 1.4-.2 1.7 3-2 .4-1.7-3.2h.2l.3.4z"/><path fill="#804f29" d="m35.5 26.2 5.9 11-1.8-.1-1-1-5.1-9.5zM32 23.5 19.5.6l1 .1.8-.1h.2L33 22l-.6 1.5-.1.4z"/><path fill="#c27841" d="m19.5.5-.2-.1.6-.4q1.3 0 1.4.6l-.7.1z"/><path fill="#804f29" d="M19.4 23.8v-.1l-.1-.7 6.8.6.9-1.4 1-.3-.2 1.5.7-.1 2.2.1h2v.1h11.7l-.2.9 1 .9z"/><path fill="#5b381e" d="m19.4 23.8 25.9 1.5.6.7-24.7-.7q-1.4-.6-1.8-1.6"/><path fill="#c27841" d="m45.3 25.3-1.1-1 .2-.7 1 .3 1.1 2.2-.6-.1z"/><path fill="#b8770a" d="M32.2 25.7h-.8q.1-4.2 1.6-4.2l.5.4q-1.2.2-1.3 3.8m2-3 .4.1-.9 1.4-.8 2.2-.2-.5-.2-.2q.8-2.6 1.8-3"/><path fill="#935f09" d="m33.5 21.9.4.7.4.1q-1 .4-1.7 3l-.2-.2-.2.2q0-3.6 1.3-3.8"/><path fill="#704807" d="m34.6 22.8.6.3-1.8 3.8-.4-.4v1.2l.1 1-.6-.8-.6.6.1-.9-1.1-.2.8-.2V27l-.5-.6 1 .4.4-1 .3.5.8-2.1z"/><path fill="#b8770a" d="M44 30v-3.3h.3V30zm1 2.1.6 1.4-.9-.5-.4 1-.3-1-.7.8v-1.1l-1.1.5 1.1-1q.5.3.9.3t.8-.4"/><path fill="#6eadc2" d="m44.3 30 .8.3q.4.4.4.9t-.5.8v.1q-.2.4-.8.4-.5 0-.9-.4-.3-.4-.3-.9t.3-.9l.7-.3zm-.3.6-.3-.2-.4.2-.1.4.1.4.4.2.3-.2.1-.4z"/><path fill="#c4dde6" d="m44 30.6.1.4-.1.4-.3.2-.4-.2-.1-.4.1-.4.4-.2z"/><path fill="#804f29" d="m20.6 1.5 1.7-.9.5.2.4.7-.4.7-1.7.9-.3-.8zm-17.8 11-1.4.8-.3-.8-.7-.4 2-1 1-.5.2.5.3.9z"/><path fill="#e45203" d="m21 3 2 5.3.2.4-7.7 4.3Q14 14 13 14.2l-2.2.6-5.2 1.7-1.4-3.3L4 12z"/><path fill="#fc6f23" d="M23.2 8.8q1.8 3.7 3.8 6.5l-6.7 3 .3-.1-5.9 2 .2.2-6.1 1.8q-1.7-2.6-3.1-5.7l5.1-1.7 2.3-.6q.9-.1 2.3-1.2z"/><path fill="#fc7f39" d="M27 15.3q1.6 2.3 3.8 4.3-7.3 6.8-17.9 7.8-2.3-2.4-4.1-5.2l6.1-1.8-.2-.2 5.9-2h-.4zm17.4 10.4q1.4-.5.9.6l-.3.5q-9.2 8.8-16.2 10h-.3l-.6.1h-.4q.6-.7-.6-1.2 8-1.1 17.5-10"/><path fill="#fd8a4d" d="M30.8 19.6q2.3 2.1 5 3.8-3 2.5-6.7 4.3-5.1 2.6-11.4 3.8-2.6-1.9-4.8-4.1 10.6-1 17.9-7.8"/><path fill="#fea06d" d="M35.9 23.4q4.1 2.4 8.3 2h.4l-.2.2q-9.4 8.9-17.5 10h-.3q-4.9-1.5-8.9-4.2 6.3-1.1 11.4-3.7l2.1.6 2.2-1.2-2.1 1.2-2.2-.6q3.6-1.8 6.8-4.3m-7.4 5.3 1 .3-3.5 1.2 3.5-1.2zm2.1.7-1-.4 1.6-.7 2.3.4q-1.9 1.1-5 1.7 3.1-.6 5-1.7l-2.2-.4-1.8.7zm4.9-.2-2-.5.6-.4-.6.4z"/><path fill="#704807" d="m27.6 36.8-1.3.4.2-.4-.3-.7-1.1-.3 1.5-.2h.2q1.3.5.7 1.2"/><path fill="#c27841" d="m26.3 37.2-.5.3-.3-.1-.7-1 .1-.6h.2l1.1.3.3.8z"/><path fill="#d6a40c" d="M4.3 13.2q-.9.3-1.5-.6L4 12zm-2-2.1q-.2-.5.5-1 .5 0 .6.5z"/><path fill="#c27943" d="m1.4 13.3-.8.4-.6-.4.1-1 .3-.2.7.4z"/><path fill="#fc8e54" d="m2.8 10.1 17.3-9q.4 0 .5.4l.2.8-17.2 8.8-.2-.5q-.1-.5-.6-.5"/><path fill="#d64d03" d="m20.8 2.3.3.8L3.9 12l-.3-.9z"/><path fill="none" stroke="#000" stroke-linecap="round" stroke-linejoin="round" stroke-opacity=".2" stroke-width="__RESOLUTION__" d="m29.1 27.7 2.1.6 2.2-1.2M26 30.3l3.5-1.2-1-.3m0 1.7q3.1-.6 5-1.7l-2.2-.4-1.8.7 1.1.4m3.5-1.1-.6.4 2 .4M5.5 8.8H7q.6.5.3 1.3-.3 1 .2 1.9l1-.5m0 .9-.6.2.3.3m-.8 0 .5-.3-.4-.6-.5.3m-.6-2.7q.3.4.1 1V12M4.6 9.3 5.9 9" vector-effect="non-scaling-stroke"/><path fill="#c27841" d="m1.4 10-.1-.1.5-.4q1.3 0 1.4.6l-.7.2z"/><path fill="#804f29" d="M3.2 10.1h.2L15 31.5l-.7 1.5v.4L14 33 1.4 10l1.1.3zm14.2 25.6 5.9 11-1.7-.1-1-1-5.2-9.5z"/><path fill="#5b381e" d="m14.3 32.9 1.4-.2 1.7 3-2 .4-1.7-3.1h.3l.2.3z"/><path fill="#c27841" d="m26.4 33.1 1 .4 1 2h-.5l-.7-.6-1.1-1z"/><path fill="#804f29" d="m26.4 33.1-.3.8 1.1 1-25.8-1.6v-.1q-.1-.4.5-.5L8 33l1-1.2 1-.4-.3 1.5h.8l2.2.1v-.1z"/><path fill="#5b381e" d="m27.2 34.9.7.6-24.8-.7q-1.3-.5-1.8-1.5z"/><path fill="#b8770a" d="m16.2 32.2.3.1-.9 1.5-.8 2-.3-.4v-.2q.7-2.6 1.6-3m-2 3h-.7q0-4.2 1.4-4.2l.5.4q-1.2.2-1.2 3.8"/><path fill="#704807" d="m16.5 32.3.6.4-1.8 3.6-.4-.3v1.2l.1 1-.6-.8-.7.6.2-.9-1.2-.2.9-.2v-.1L13 36l1 .4q.3-.3.4-1l.3.5.8-2.1z"/><path fill="#935f09" d="m14.5 35.2-.2-.2-.2.2q0-3.6 1.3-3.8l.3.6.4.2q-.9.4-1.7 3"/></g></defs><g clip-path="url(#c)"><g transform="translate(26.35 35)"><use xlink:href="#d" width="39.8" height="19.9" transform="translate(-25.35 -8.35)scale(1.1256)"/><use xlink:href="#e" width="58.5" height="47" transform="translate(-22.45 -34)"/></g></g></svg>