<svg xmlns="http://www.w3.org/2000/svg" xmlns:xlink="http://www.w3.org/1999/xlink" width="141" height="73" viewBox="0 0 141 73"><defs><g id="e"><path fill="#eaff00" d="m14.7 1.3.3.1 1 1Q10.9 6 9.3 14.9l.7-4.8.6-2.4.4-1.6q1.5-5.2 3.7-4.8m4.8 6 .3 2.3-5.1-1.2zm-3.4 10.2-1.5 1-.8-3.7zm-16-5.9L0 9.9h3.9z"/><path fill="#c6e400" d="M14.7 1.3Q12.5.9 11 6.1q.8-5.2-1.2-6L10 0zM10 10.1l-.7 4.8q-.5 4.9 1.1 4.9h-.8q-1.2-.7-.9-3.9l.7-3.7zm8-5.9 1.1 1.9-3.9.5zm.5 10.8-1.2 1.6-4.6-4.2zM3 17l-1-1.2 3.4-1.7zM.3 7.5l.9-2.3 3.5 3.1z"/><path fill="#d6fa00" d="m11 6.1-.4 1.6-.7 2.4-.6 2-.1.6v.1q-2 6.7-3.7 6Q4.2 18.1 3 17l2.4-2.8L2 15.8Q.6 14 .2 11.8l3.7-2H0l.3-2.4 4.4.9-3.5-3.1q1.2-2 3.2-3.4Q6.6.3 9.4 0l.4.1q2 .7 1.2 6m-1.7 8.8Q10.8 6 16 2.4l2 1.8-2.7 2.4L19 6l.4 1.3-4.8 1 5.1 1.2v.3q0 2.8-1.3 5l-5.8-2.5 4.6 4.2-1.2 1-2.4-2.7.9 3.7-4.2 1.2q-1.6 0-1.1-4.9"/><path fill="#c2d029" d="m10.6 7.7-.6 2.4h-.1zm-1.2 4.5-.2.5z"/><path fill="#cacf20" d="M9.4 0h.5v.1z"/><path fill="none" stroke="#80a301" stroke-linecap="round" stroke-linejoin="round" stroke-width="__RESOLUTION__" d="m16 2.4-1-1-.3-.1L9.9 0h-.5 0q-2.8.3-5 1.8-2 1.5-3.2 3.4L.3 7.5 0 9.8l.2 2q.4 2.2 1.8 4L3 17q1.2 1.1 2.5 1.8M16 2.4l2 1.8 1.1 1.9.4 1.3.3 2.2v.3q0 2.8-1.3 5l-1.2 1.7-1.2 1-1.5 1-4.2 1.2m-1.2-7.1" vector-effect="non-scaling-stroke"/></g><g id="a"><path fill="#b3ee00" d="m14.7 1.3.3.1 1 1Q10.9 6 9.3 14.9l.7-4.8.6-2.4.4-1.6q1.5-5.2 3.7-4.8m4.8 6 .3 2.3-5.1-1.2zm-3.4 10.2-1.5 1-.8-3.7zm-16-5.9L0 9.9h3.9z"/><path fill="#8fbf00" d="M14.7 1.3Q12.5.9 11 6.1q.8-5.2-1.2-6L10 0zM10 10.1l-.7 4.8q-.5 4.9 1.1 4.9h-.8q-1.2-.7-.9-3.9l.7-3.7zm8-5.9 1.1 1.9-3.9.5zm.5 10.8-1.2 1.6-4.6-4.2zM3 17l-1-1.2 3.4-1.7zM.3 7.5l.9-2.3 3.5 3.1z"/><path fill="#9fd500" d="m11 6.1-.4 1.6-.7 2.4-.6 2-.1.6v.1q-2 6.7-3.7 6Q4.2 18.1 3 17l2.4-2.8L2 15.8Q.6 14 .2 11.8l3.7-2H0l.3-2.4 4.4.9-3.5-3.1q1.2-2 3.2-3.4Q6.6.3 9.4 0l.4.1q2 .7 1.2 6m-1.7 8.8Q10.8 6 16 2.4l2 1.8-2.7 2.4L19 6l.4 1.3-4.8 1 5.1 1.2v.3q0 2.8-1.3 5l-5.8-2.5 4.6 4.2-1.2 1-2.4-2.7.9 3.7-4.2 1.2q-1.6 0-1.1-4.9"/><path fill="#8bab29" d="m10.6 7.7-.6 2.4h-.1zm-1.2 4.5-.2.5z"/><path fill="#93aa20" d="M9.4 0h.5v.1z"/><path fill="none" stroke="#497e01" stroke-linecap="round" stroke-linejoin="round" stroke-width="__RESOLUTION__" d="m16 2.4-1-1-.3-.1L9.9 0h-.5 0q-2.8.3-5 1.8-2 1.5-3.2 3.4L.3 7.5 0 9.8l.2 2q.4 2.2 1.8 4L3 17q1.2 1.1 2.5 1.8M16 2.4l2 1.8 1.1 1.9.4 1.3.3 2.2v.3q0 2.8-1.3 5l-1.2 1.7-1.2 1-1.5 1-4.2 1.2m-1.2-7.1" vector-effect="non-scaling-stroke"/></g><g id="f"><use xlink:href="#a" width="19.8" height="19.8"/><use xlink:href="#b" width="19.8" height="19.8"/></g><g id="h" transform="translate(34.35 21.55)"><use xlink:href="#c" width="19.8" height="19.8" transform="matrix(1.04 0 0 .64 3.1 -1.7)"/><use xlink:href="#c" width="19.8" height="19.8" transform="matrix(1.04 0 0 .64 -19.9 -15.2)"/><use xlink:href="#c" width="19.8" height="19.8" transform="matrix(1.04 0 0 .64 5.25 -10.85)"/><use xlink:href="#c" width="19.8" height="19.8" transform="matrix(1.04 0 0 .64 -10.35 -7.4)"/></g><g id="i" transform="translate(34.35 21.55)"><use xlink:href="#c" width="19.8" height="19.8" transform="matrix(1.04 0 0 .64 -12.75 -21.55)"/><use xlink:href="#c" width="19.8" height="19.8" transform="matrix(1.04 0 0 .64 6.65 -13)"/><use xlink:href="#c" width="19.8" height="19.8" transform="matrix(1.04 0 0 .64 -22.7 -4.95)"/><use xlink:href="#c" width="19.8" height="19.8" transform="matrix(1.04 0 0 .64 -14.85 -15.95)"/><use xlink:href="#c" width="19.8" height="19.8" transform="matrix(1.04 0 0 .64 -3.25 -1.2)"/></g><g id="j" transform="translate(34.35 21.55)"><use xlink:href="#c" width="19.8" height="19.8" transform="matrix(1.04 0 0 .64 -20.7 -9.9)"/><use xlink:href="#c" width="19.8" height="19.8" transform="matrix(1.04 0 0 .64 -5.15 -4.3)"/><use xlink:href="#c" width="19.8" height="19.8" transform="matrix(1.04 0 0 .64 .75 -17.15)"/></g><g id="k" transform="translate(34.35 21.55)"><use xlink:href="#c" width="19.8" height="19.8" transform="matrix(1.04 0 0 .64 -8.95 .55)"/><use xlink:href="#c" width="19.8" height="19.8" transform="matrix(1.04 0 0 .64 13.1 -9.4)"/><use xlink:href="#c" width="19.8" height="19.8" transform="matrix(1.04 0 0 .64 -34.35 -17.7)"/><use xlink:href="#c" width="19.8" height="19.8" transform="matrix(1.04 0 0 .64 -9.3 -16.05)"/></g><use xlink:href="#e" id="b" width="19.8" height="19.8"/><use xlink:href="#f" id="c" width="19.8" height="19.8"/><use xlink:href="#h" id="s" width="68" height="34.7"/><use xlink:href="#i" id="q" width="68" height="34.7"/><use xlink:href="#j" id="o" width="68" height="34.7"/><use xlink:href="#k" id="m" width="68" height="34.7"/><clipPath id="l"><path d="M1 1h69v35H1z"/></clipPath><clipPath id="n"><path d="M71 1h69v35H71z"/></clipPath><clipPath id="p"><path d="M1 37h69v35H1z"/></clipPath><clipPath id="r"><path d="M71 37h69v35H71z"/></clipPath></defs><g clip-path="url(#l)"><use xlink:href="#m" width="68" height="34.7" transform="translate(1 1)"/></g><g clip-path="url(#n)"><use xlink:href="#o" width="68" height="34.7" transform="translate(71 1)"/></g><g clip-path="url(#p)"><use xlink:href="#q" width="68" height="34.7" transform="translate(1 37)"/></g><g clip-path="url(#r)"><use xlink:href="#s" width="68" height="34.7" transform="translate(71 37)"/></g></svg>