<svg xmlns="http://www.w3.org/2000/svg" xmlns:xlink="http://www.w3.org/1999/xlink" width="62" height="123" viewBox="0 0 62 123"><defs><g id="i"><path fill="#c0bb81" d="m21.6.1.8.2 9.9 4.9-.4 1.7-7.8 3.6-9-.4-3.5-2.3 1.8 3.2 7 1.3-8.8 4.1H8l-8-3.8.3-1.3.5-.8.5-.4z"/><path fill="#858154" d="m32.3 5.2 1.2.6.4 1.9v13.7l-.6.5-6.5 3.2-.2.1-7.4 3.8-1.6.7-1.9 1-1 .5-1.5.8-1 .3-.8-.1L9.1 31V20.2L.3 15.7l-.2-.4v-2.7L8 16.4h3.6l8.8-4.1-7-1.3-1.8-3.2 3.5 2.3 9 .4L31.9 7z"/><path fill="none" stroke="#585536" stroke-linecap="round" stroke-linejoin="round" stroke-width="__RESOLUTION__" d="m21.6.1.8.2 9.9 4.9 1.2.6.4 1.9v13.7l-.6.5-6.5 3.2-.2.1-7.4 3.8-1.6.7-1.9 1-1 .5-1.5.8-1 .3-.8-.1L9.1 31V20.2L.3 15.7l-.2-.4v-2.7" vector-effect="non-scaling-stroke"/><path fill="none" stroke="#000" stroke-linecap="round" stroke-linejoin="round" stroke-width="__RESOLUTION__" d="m19.2 29-2.7 1.3-1.8.9m1.8-.9-.8.4m.8-.4 1.1-.6" vector-effect="non-scaling-stroke"/><path fill="none" stroke="#747445" stroke-linecap="round" stroke-linejoin="round" stroke-width="__RESOLUTION__" d="m.1 12.6.3-1.3.5-.8.5-.4L21.6.1" vector-effect="non-scaling-stroke"/></g><g id="e"><path fill="#00729b" d="M32.7 21.8 1.1 38.2 0 34.3l33.6-16.6z"/><path fill="#1f857d" d="m33.6 11.7-18.7 9.8q11.2-2.5 18.7-7v2.1L0 33.3V31l4.1-1.6 6.4-3.7L0 28.9v-5.6L32.7 7.1zm0-5.7L0 22.2v-5.4L33.7 0z"/><path fill="#005eba" d="M5.3 45H3.4l31.4-16.1-.2 1zm-5-4.4L33.6 24v3.5Q16.7 33.7 7.1 40.7q-6.2.3-7 0"/></g><g id="d" fill-opacity="1"><path fill="#c7d9e2" d="m17.9 9.9-.7.3-.2.6v.3q-1.7 2.2-6 4.3 3.1-3.2 2.7-5.5zm6.3-1.3V7.2q2.5-.9 3.6-2.2.4 1.5-3.6 3.6M7.1 16.5q.3 1.1-1 2.6l-1.6-2.4v-1.9q.8.2 1.3.5l-.2.5.3.6.6.3z"/><path fill="#b1cbd8" d="m17 11.2.2.2q.3.3.7.3l-2.6 1.4q1.7.6-9 6.9l-3.3.7q-6.6-5.7 1.5-7.5 3.1-.2 5.8-1.1l3.4-2.2L18 6.4q3.2-1.5 6.8-1.4 4-2.4 6.3-5 .1 2.6 5.3 3.2l-4.7 1.3q-1.4 2.8-6.2 4.6-3.6.7-7.2 2.3l.4-.6-.4-.7-.5-.2h-4.2q.4 2.3-2.7 5.5 4.3-2.2 6-4.2m7.2-2.6q4-2 3.6-3.6-1.1 1.3-3.6 2.2zm-17 7.9v-.1q.3-.2.3-.6t-.3-.7-.6-.2l-.7.3v.1q-.5-.3-1.3-.5v1.9l1.7 2.4q1.2-1.5.9-2.6"/><path fill="#fbfdfd" d="M5.8 15.3v-.2l.7-.2q.3 0 .6.3t.3.6-.3.6v.1l-.6.2-.7-.3-.2-.6zm11.8-5.1.5.2.3.5-.3.5-.4.3q-.3 0-.6-.3l-.1-.2-.1-.2.2-.6zM26.5 5l.7-.3.5.3.3.6-.2.6h-.1l-.5.3q-.4 0-.7-.3l-.1-.2-.2-.4z"/></g><g id="a"><path fill="#817954" d="M.1 17v-3l1-.5 9.7-4.8.3-.2 4-2 2.4-1.2.6-.5V4h.2l1 .4.8-.1L28.2.1v3.5l-13 6.2L1 16.5zm1-3.2v2.8zm14-7V10z"/><path fill="#9e9965" d="M28.3 3.6V15l-6.5 3.3v-9l-6.6 3.2-6.3 3v9.1l6.5-3.1v9L9 33.9 2.6 37l-.1-9.2L.1 29V16.9l1-.4 14-6.7.1 2.8V9.8zM1.1 19v-2.5zm20.7-9.4 6.5-3.2zM8.9 24.8 2.5 28zm0-9-8.9 4z"/><path fill="#95945e" d="M28.3 15.2V24l-1.7.8-4.8 2.5-6.4 3.2v-9l-6.5 3.1v-9l6.3-3.1 6.6-3.2v9l-6.4 3.2 6.4-3.2zm0 19.6v11l-12.9 6.5-13.5 6.8-1.8.9V48.9l1.8-.9L9 44.5V33.9l6.4-3.3 6.4-3.2V38l-6.5 3.3L9 44.5l6.3-3.2 6.5-3.2zM0 38.4V29l2.4-1.2.1 9.2zm15.2 2.9.1 11zM2 59.1V48z"/><path fill="#a6a271" d="M26.6 24.9h1.6v9.9l-6.4 3.3V27.4zM.1 48.9V38.4L2.6 37 9 33.9v10.6L1.9 48z"/><path fill="none" stroke="#585536" stroke-linecap="round" stroke-linejoin="round" stroke-width="__RESOLUTION__" d="M18.2 3.9h.1l1 .4.8-.1L28.2.1" vector-effect="non-scaling-stroke"/><path fill="none" stroke="#6c614f" stroke-linecap="round" stroke-linejoin="round" stroke-width="__RESOLUTION__" d="m28.3 24-1.7.9" vector-effect="non-scaling-stroke"/><path fill="none" stroke="#000" stroke-linecap="round" stroke-linejoin="round" stroke-opacity=".1" stroke-width="__RESOLUTION__" d="M1.1 16.5v-2.9m7.8 2v9.1l6.5-3.1m-.2-9V9.8L15 6.6M1 16.5v2.4m14.3 11.7L9 33.9M21.8 38V27.4M.1 38.4 2.6 37" vector-effect="non-scaling-stroke"/><path fill="none" stroke="#000" stroke-linecap="round" stroke-linejoin="round" stroke-opacity=".2" stroke-width="__RESOLUTION__" d="M21.8 18.4v-9l-6.6 3.2-6.3 3L0 20m15.3 1.7 6.4-3.2 6.5-3.2M9 44.5l6.3-3.2 6.5-3.2 6.5-3.3m-6.5-7.4 4.8-2.5m1.6-18.6-6.4 3.1m-6.4 42.9-.2-11M.2 29.1l2.4-1.2L9 24.7M2.6 37.1 9 33.9M2.6 37l-.1-9.2m12.9 2.7v-9m6.4 5.8-6.4 3.2M9 33.9v10.6L1.9 48v11m0-11-1.8.9" vector-effect="non-scaling-stroke"/></g><g id="f" transform="translate(19.35 33.5)"><use xlink:href="#a" width="28.4" height="60" transform="translate(-14.05 -33.5)"/><use xlink:href="#b" width="28.1" height="28.5" transform="translate(-14.2 -2.3)"/><use xlink:href="#d" width="36.5" height="20.7" transform="translate(-16.9 6.85)"/><use xlink:href="#e" width="34.8" height="45" transform="translate(-19.35 12.35)"/></g><g id="k" transform="translate(18.85 30.15)"><use xlink:href="#f" width="38.9" height="90.8" transform="translate(2.05 -7.15)"/><use xlink:href="#f" width="38.9" height="90.8" transform="translate(-10.4 -.8)"/><use xlink:href="#g" width="7.5" height="4.7" transform="translate(-8.55 51.35)"/><use xlink:href="#h" width="34" height="32.4" transform="translate(4.65 -30.15)"/><use xlink:href="#h" width="34" height="32.4" transform="translate(-18.85 -18.5)"/></g><path id="b" fill="#576c00" fill-opacity=".4" d="M16.8-15.5v14.4l-28.2 14V-.7Q-7.6-3-6.9-4.5q.7-1.6 1-3 .2-1.6 3.8-2.8l6.3-2.1q2.6-.9 6.1 2.5 2-1 3.7-3.2 1.2-1.6 2.8-2.5" transform="translate(11.4 15.55)"/><path id="g" fill="none" stroke="#fff" stroke-linecap="round" stroke-linejoin="round" stroke-width="__RESOLUTION__" d="M-8.4 56q2.3-2.7 7.2-4.5" transform="translate(8.55 -51.35)" vector-effect="non-scaling-stroke"/><clipPath id="j"><path d="M1 1h60v121H1z"/></clipPath><use xlink:href="#i" id="h" width="34" height="32.4"/></defs><g clip-path="url(#j)"><use xlink:href="#k" width="59.8" height="120.2" transform="translate(1 1)"/></g></svg>