<svg xmlns="http://www.w3.org/2000/svg" xmlns:xlink="http://www.w3.org/1999/xlink" width="31" height="279" viewBox="0 0 31 279"><defs><g id="c"><path fill="#fbfae6" d="M.5.4 2.3.1l11.2 5.6-4.9 2.6-7.3-3.9-.8.4zm2.9 1.8 2 2.5z"/><path fill="#faf9de" d="M13.5 5.7 16.4 7 22 9.9l.2.2 3 1.6 1.2 1.7-11.8 6-2.3-1.2L9 16.5l7.5-4-1.4-.7-2.7-1.5 5.9-.2 3.6-.2-3.6.2-6 .2-3.8-2zm4.9 4.4-2-3z"/><path fill="#f8f7d1" d="m14.6 19.4-4 2-.4.2-6 3-3.7.4v-4.2l.4.1 4.7-2.5.4-.2 3.2-1.7 3 1.7zm-2.2-1.2-2.7.1-3.6-.1 3.7.1zm-1.7 3.1-1-3z"/><path fill="#f5d681" d="M.5 20.8v-1.6l.4.3 14.3-7.7 1.4.7-7.5 4L6 18.2l-.4.2L.9 21z"/><path fill="#fae8b8" d="M.5 19.3V4.8l.8-.4 7.3 3.9 3.9 2 2.7 1.5L.9 19.5z"/><path fill="none" stroke="#000" stroke-linecap="round" stroke-linejoin="round" stroke-opacity=".3" stroke-width="__RESOLUTION__" d="m22 10 .2.1M5.5 4.7 3.3 2.2M22 9.9l-3.6.2-6 .2M6 18.2l-.4.2m.4-.2 3.7.1 2.6-.1m-2.7.1 1 3m5.8-14.2 2 3" vector-effect="non-scaling-stroke"/><path fill="none" stroke="#000" stroke-linecap="round" stroke-linejoin="round" stroke-opacity=".3" stroke-width="1" d="m26.4 13.4-11.8 6-4 2m-.4.2-6 3M8.6 8.4l-7.3-4-.8.4m14.7 7 1.4.7-7.5 4 3.2 1.7 2.2 1.2m-2-9 2.7 1.4m-2.7-1.5-3.9-2 4.9-2.6M5.6 18.4.9 21l-.4-.1m8.7-4.3L6 18.2"/><path fill="none" stroke="#000" stroke-linecap="round" stroke-linejoin="round" stroke-opacity=".3" stroke-width="__RESOLUTION__" d="M4.1 24.7.5 25v-4.2m0-1.6V.4" vector-effect="non-scaling-stroke"/></g><g id="b"><path fill="#f2f0d2" d="M1.1 11.8 2.3 10 23.6.1l1-.1v25.4z"/><path fill="#ede9bc" d="m1.1 11.8 23.5 13.6-1.7.1 1.7 1.7v248.2L0 261.2V13.4z"/><path fill="#e2dd96" d="M24.6 25.4v1.8l-1.7-1.7z"/><path fill="#6f633e" d="m24.6 112.5 18.8 8.8.2 20.1.8 1-19.8-10.2z"/><path fill="#8e7f52" d="m43.4 121.3.2.1 4.5 14.5v21L44 142.3l.5.1-.8-1z"/><path fill="#6f6340" d="m48.2 156.9.1.6-23.7-11.2v-14l19.8 10.1h-.5z"/><path fill="none" stroke="#000" stroke-linecap="round" stroke-linejoin="round" stroke-opacity=".3" stroke-width="__RESOLUTION__" d="m43.4 121.3.2.1 4.5 14.5v21" vector-effect="non-scaling-stroke"/><path fill="#f3f1d6" d="M11.8 39.3v-4.7l.8-1 7.4 3.6.6 1.1v5.9l-1 .6-6.8-3.3zm8.6 74.7.7 1.4v6.8l-1.2.8-7.9-4-1.3-2.6v-5.5l1-1.2zM2.3 175.4v-5l.9-1.2 7.9 4 .6 1.3v6.1l-1 .8-7.3-3.7zm10.9 46.3v-5l.8-1.1 8 4 .6 1.2v6.2l-1 .7-7.2-3.6z"/><path fill="#f0edc8" d="M4.2 49v-3.5l.5-.7L9.1 47l.5 1v3.5l-.4.7L4.6 50zm7.2 71.2.4 1.1v3.5l-.4.7-4.6-2.2-.4-1v-3.6l.5-.7zm11 35.3.4 1.1v3.5l-.4.7-4.6-2.3-.4-1V154l.6-.7z"/><path fill="none" stroke="#000" stroke-linecap="round" stroke-linejoin="round" stroke-opacity=".2" stroke-width="__RESOLUTION__" d="m20 37.3.6 1v5.9l-1 .6-6.8-3.3-1-2.2M4.2 49l.3 1 4.7 2.2.4-.7V48L9 47m11.4 67 .6 1.4v6.8l-1.2.8-7.9-4-1.3-2.6m-4.3 5.8.4 1 4.6 2.3.4-.7v-3.5l-.5-1.1m6 37.3.4 1 4.6 2.3.4-.7v-3.5l-.4-1.1m-11.1 17.8.6 1.1v6.2l-1 .8-7.3-3.7-1.1-2.3M22 219.6l.6 1.2v6.2l-1 .7-7.2-3.6-1.2-2.4" vector-effect="non-scaling-stroke"/></g><clipPath id="a"><path d="M1 1h29v277H1z"/></clipPath></defs><g clip-path="url(#a)"><g transform="translate(1.9 256.1)"><use xlink:href="#b" width="48.5" height="275.4" transform="matrix(-1.0548 0 0 1.0488 27.3 -254.9)"/><use xlink:href="#c" width="26.9" height="25.4" transform="translate(.15 -255.1)"/></g></g></svg>