<svg xmlns="http://www.w3.org/2000/svg" xmlns:xlink="http://www.w3.org/1999/xlink" width="195" height="183" viewBox="0 0 195 183"><defs><linearGradient id="f" x1="-819.2" x2="819.2" gradientTransform="matrix(0 0 0 0 6.15 11.05)" gradientUnits="userSpaceOnUse" spreadMethod="pad"><stop offset="0" stop-color="#938d46" stop-opacity="1"/><stop offset="1" stop-color="#33311e" stop-opacity="1"/></linearGradient><linearGradient id="e" x1="-819.2" x2="819.2" gradientTransform="matrix(0 0 0 0 15.4 11.8)" gradientUnits="userSpaceOnUse" spreadMethod="pad"><stop offset="0" stop-color="#938d46" stop-opacity="1"/><stop offset="1" stop-color="#33311e" stop-opacity="1"/></linearGradient><linearGradient id="d" x1="-819.2" x2="819.2" gradientTransform="matrix(0 0 0 0 9.95 4.75)" gradientUnits="userSpaceOnUse" spreadMethod="pad"><stop offset="0" stop-color="#938d46" stop-opacity="1"/><stop offset="1" stop-color="#33311e" stop-opacity="1"/></linearGradient><linearGradient id="c" x1="-819.2" x2="819.2" gradientTransform="matrix(-.01 0 0 0 16.1 7.7)" gradientUnits="userSpaceOnUse" spreadMethod="pad"><stop offset="0" stop-color="#938d46" stop-opacity="1"/><stop offset="1" stop-color="#33311e" stop-opacity="1"/></linearGradient><linearGradient id="b" x1="-819.2" x2="819.2" gradientTransform="matrix(0 0 0 0 4.9 6.1)" gradientUnits="userSpaceOnUse" spreadMethod="pad"><stop offset="0" stop-color="#938d46" stop-opacity="1"/><stop offset="1" stop-color="#33311e" stop-opacity="1"/></linearGradient><linearGradient id="a" x1="-819.2" x2="819.2" gradientTransform="matrix(0 0 0 0 11.35 13.9)" gradientUnits="userSpaceOnUse" spreadMethod="pad"><stop offset="0" stop-color="#938d46" stop-opacity="1"/><stop offset="1" stop-color="#33311e" stop-opacity="1"/></linearGradient><linearGradient id="l" x1="-819.2" x2="819.2" gradientTransform="matrix(0 0 0 0 6.15 11.05)" gradientUnits="userSpaceOnUse" spreadMethod="pad"><stop offset="0" stop-color="#787233" stop-opacity="1"/><stop offset="1" stop-color="#22200f" stop-opacity="1"/></linearGradient><linearGradient id="k" x1="-819.2" x2="819.2" gradientTransform="matrix(0 0 0 0 15.4 11.8)" gradientUnits="userSpaceOnUse" spreadMethod="pad"><stop offset="0" stop-color="#787233" stop-opacity="1"/><stop offset="1" stop-color="#22200f" stop-opacity="1"/></linearGradient><linearGradient id="j" x1="-819.2" x2="819.2" gradientTransform="matrix(0 0 0 0 9.95 4.75)" gradientUnits="userSpaceOnUse" spreadMethod="pad"><stop offset="0" stop-color="#787233" stop-opacity="1"/><stop offset="1" stop-color="#22200f" stop-opacity="1"/></linearGradient><linearGradient id="i" x1="-819.2" x2="819.2" gradientTransform="matrix(-.01 0 0 0 16.1 7.7)" gradientUnits="userSpaceOnUse" spreadMethod="pad"><stop offset="0" stop-color="#787233" stop-opacity="1"/><stop offset="1" stop-color="#22200f" stop-opacity="1"/></linearGradient><linearGradient id="h" x1="-819.2" x2="819.2" gradientTransform="matrix(0 0 0 0 4.9 6.1)" gradientUnits="userSpaceOnUse" spreadMethod="pad"><stop offset="0" stop-color="#787233" stop-opacity="1"/><stop offset="1" stop-color="#22200f" stop-opacity="1"/></linearGradient><linearGradient id="g" x1="-819.2" x2="819.2" gradientTransform="matrix(0 0 0 0 11.35 13.9)" gradientUnits="userSpaceOnUse" spreadMethod="pad"><stop offset="0" stop-color="#787233" stop-opacity="1"/><stop offset="1" stop-color="#22200f" stop-opacity="1"/></linearGradient><linearGradient id="r" x1="-819.2" x2="819.2" gradientTransform="matrix(0 0 0 0 6.15 11.05)" gradientUnits="userSpaceOnUse" spreadMethod="pad"><stop offset="0" stop-color="#716c30" stop-opacity="1"/><stop offset="1" stop-color="#201e0e" stop-opacity="1"/></linearGradient><linearGradient id="q" x1="-819.2" x2="819.2" gradientTransform="matrix(0 0 0 0 15.4 11.8)" gradientUnits="userSpaceOnUse" spreadMethod="pad"><stop offset="0" stop-color="#716c30" stop-opacity="1"/><stop offset="1" stop-color="#201e0e" stop-opacity="1"/></linearGradient><linearGradient id="p" x1="-819.2" x2="819.2" gradientTransform="matrix(0 0 0 0 9.95 4.75)" gradientUnits="userSpaceOnUse" spreadMethod="pad"><stop offset="0" stop-color="#716c30" stop-opacity="1"/><stop offset="1" stop-color="#201e0e" stop-opacity="1"/></linearGradient><linearGradient id="o" x1="-819.2" x2="819.2" gradientTransform="matrix(-.01 0 0 0 16.1 7.7)" gradientUnits="userSpaceOnUse" spreadMethod="pad"><stop offset="0" stop-color="#716c30" stop-opacity="1"/><stop offset="1" stop-color="#201e0e" stop-opacity="1"/></linearGradient><linearGradient id="n" x1="-819.2" x2="819.2" gradientTransform="matrix(0 0 0 0 4.9 6.1)" gradientUnits="userSpaceOnUse" spreadMethod="pad"><stop offset="0" stop-color="#716c30" stop-opacity="1"/><stop offset="1" stop-color="#201e0e" stop-opacity="1"/></linearGradient><linearGradient id="m" x1="-819.2" x2="819.2" gradientTransform="matrix(0 0 0 0 11.35 13.9)" gradientUnits="userSpaceOnUse" spreadMethod="pad"><stop offset="0" stop-color="#716c30" stop-opacity="1"/><stop offset="1" stop-color="#201e0e" stop-opacity="1"/></linearGradient><g id="s"><path fill="url(#a)" d="M12.7 10.5q1 2.9 1.6 6.9l-4.5-.2q-.6-4-1.5-7z" transform="translate(.5 .5)"/><path fill="none" stroke="#6a5433" stroke-linecap="round" stroke-linejoin="round" stroke-opacity=".5" stroke-width="1" d="M13.2 11q1 2.9 1.6 6.9l-4.5-.2q-.6-4-1.5-7"/><path fill="url(#b)" d="M7.9 10.2Q4.4 6.5 0 3.9l2.2-1.7Q6.5 4.8 10 8.5z" transform="translate(.5 .5)"/><path fill="none" stroke="#6a5433" stroke-linecap="round" stroke-linejoin="round" stroke-opacity=".5" stroke-width="1" d="M8.4 10.7Q5 7 .4 4.4l2.2-1.8Q7 5.4 10.6 9"/><path fill="url(#c)" d="M9.7 9.4q4.9-3.2 10.7-5.1l2.1 1.9q-5.6 1.3-10.8 5z" transform="translate(.5 .5)"/><path fill="none" stroke="#6a5433" stroke-linecap="round" stroke-linejoin="round" stroke-opacity=".5" stroke-width="1" d="M10.2 9.9Q15 6.7 20.9 4.8L23 6.7q-5.6 1.4-10.8 5"/><path fill="url(#d)" d="M8.7 9.1 6.9 0l4.3.7L13 9.8z" transform="translate(.5 .5)"/><path fill="none" stroke="#6a5433" stroke-linecap="round" stroke-linejoin="round" stroke-opacity=".5" stroke-width="1" d="M9.2 9.6 7.4.5l4.3.6 1.8 9.2"/><path fill="url(#e)" d="M12 9.4q4 1 7.9 3.2l-1.3 1.6q-3.9-2.4-7.9-3.2z" transform="translate(.5 .5)"/><path fill="none" stroke="#6a5433" stroke-linecap="round" stroke-linejoin="round" stroke-opacity=".5" stroke-width="1" d="M12.5 9.9q4 1 7.9 3.2L19 14.7q-3.9-2.4-7.9-3.2"/><path fill="url(#f)" d="M11.4 11.2q-4.6 0-7.8 1.9L1 10.8Q4.6 9 9 8.9z" transform="translate(.5 .5)"/><path fill="none" stroke="#6a5433" stroke-linecap="round" stroke-linejoin="round" stroke-opacity=".5" stroke-width="1" d="M11.9 11.7q-4.6 0-7.8 1.9l-2.5-2.3q3.5-1.7 7.9-1.9"/></g><g id="t"><path fill="url(#g)" d="M12.7 10.5q1 2.9 1.6 6.9l-4.5-.2q-.6-4-1.5-7z" transform="translate(.5 .5)"/><path fill="none" stroke="#543f22" stroke-linecap="round" stroke-linejoin="round" stroke-opacity=".5" stroke-width="1" d="M13.2 11q1 2.9 1.6 6.9l-4.5-.2q-.6-4-1.5-7"/><path fill="url(#h)" d="M7.9 10.2Q4.4 6.5 0 3.9l2.2-1.7Q6.5 4.8 10 8.5z" transform="translate(.5 .5)"/><path fill="none" stroke="#543f22" stroke-linecap="round" stroke-linejoin="round" stroke-opacity=".5" stroke-width="1" d="M8.4 10.7Q5 7 .4 4.4l2.2-1.8Q7 5.4 10.6 9"/><path fill="url(#i)" d="M9.7 9.4q4.9-3.2 10.7-5.1l2.1 1.9q-5.6 1.3-10.8 5z" transform="translate(.5 .5)"/><path fill="none" stroke="#543f22" stroke-linecap="round" stroke-linejoin="round" stroke-opacity=".5" stroke-width="1" d="M10.2 9.9Q15 6.7 20.9 4.8L23 6.7q-5.6 1.4-10.8 5"/><path fill="url(#j)" d="M8.7 9.1 6.9 0l4.3.7L13 9.8z" transform="translate(.5 .5)"/><path fill="none" stroke="#543f22" stroke-linecap="round" stroke-linejoin="round" stroke-opacity=".5" stroke-width="1" d="M9.2 9.6 7.4.5l4.3.6 1.8 9.2"/><path fill="url(#k)" d="M12 9.4q4 1 7.9 3.2l-1.3 1.6q-3.9-2.4-7.9-3.2z" transform="translate(.5 .5)"/><path fill="none" stroke="#543f22" stroke-linecap="round" stroke-linejoin="round" stroke-opacity=".5" stroke-width="1" d="M12.5 9.9q4 1 7.9 3.2L19 14.7q-3.9-2.4-7.9-3.2"/><path fill="url(#l)" d="M11.4 11.2q-4.6 0-7.8 1.9L1 10.8Q4.6 9 9 8.9z" transform="translate(.5 .5)"/><path fill="none" stroke="#543f22" stroke-linecap="round" stroke-linejoin="round" stroke-opacity=".5" stroke-width="1" d="M11.9 11.7q-4.6 0-7.8 1.9l-2.5-2.3q3.5-1.7 7.9-1.9"/></g><g id="u"><path fill="url(#m)" d="M12.7 10.5q1 2.9 1.6 6.9l-4.5-.2q-.6-4-1.5-7z" transform="translate(.5 .5)"/><path fill="none" stroke="#4f3c20" stroke-linecap="round" stroke-linejoin="round" stroke-opacity=".5" stroke-width="1" d="M13.2 11q1 2.9 1.6 6.9l-4.5-.2q-.6-4-1.5-7"/><path fill="url(#n)" d="M7.9 10.2Q4.4 6.5 0 3.9l2.2-1.7Q6.5 4.8 10 8.5z" transform="translate(.5 .5)"/><path fill="none" stroke="#4f3c20" stroke-linecap="round" stroke-linejoin="round" stroke-opacity=".5" stroke-width="1" d="M8.4 10.7Q5 7 .4 4.4l2.2-1.8Q7 5.4 10.6 9"/><path fill="url(#o)" d="M9.7 9.4q4.9-3.2 10.7-5.1l2.1 1.9q-5.6 1.3-10.8 5z" transform="translate(.5 .5)"/><path fill="none" stroke="#4f3c20" stroke-linecap="round" stroke-linejoin="round" stroke-opacity=".5" stroke-width="1" d="M10.2 9.9Q15 6.7 20.9 4.8L23 6.7q-5.6 1.4-10.8 5"/><path fill="url(#p)" d="M8.7 9.1 6.9 0l4.3.7L13 9.8z" transform="translate(.5 .5)"/><path fill="none" stroke="#4f3c20" stroke-linecap="round" stroke-linejoin="round" stroke-opacity=".5" stroke-width="1" d="M9.2 9.6 7.4.5l4.3.6 1.8 9.2"/><path fill="url(#q)" d="M12 9.4q4 1 7.9 3.2l-1.3 1.6q-3.9-2.4-7.9-3.2z" transform="translate(.5 .5)"/><path fill="none" stroke="#4f3c20" stroke-linecap="round" stroke-linejoin="round" stroke-opacity=".5" stroke-width="1" d="M12.5 9.9q4 1 7.9 3.2L19 14.7q-3.9-2.4-7.9-3.2"/><path fill="url(#r)" d="M11.4 11.2q-4.6 0-7.8 1.9L1 10.8Q4.6 9 9 8.9z" transform="translate(.5 .5)"/><path fill="none" stroke="#4f3c20" stroke-linecap="round" stroke-linejoin="round" stroke-opacity=".5" stroke-width="1" d="M11.9 11.7q-4.6 0-7.8 1.9l-2.5-2.3q3.5-1.7 7.9-1.9"/></g><g id="v"><path fill="#3f381d" d="M23.7 1.5v-.1l.4-1zl-3.9 17.6-.1.7q-.8 2-5 7.2-3.5 4.2-6.8 4.2l-2.5-.6-.2-.2-1.1-1.5-.2-.2-1.1-2 6.7.8q5.2.2 14.1-26"/><path fill="#312b16" d="M19.8 19.8 18.6 23l-2.4 5.1-.3.6-.2.3-.6 1-.2.2-2.3 2.3-2.2.9-1.9-.1-1.3-.5-.6-.8-.2-.4-1-1 2.6.6q3.4 0 6.9-4.2 4.1-5.2 4.9-7.2"/><path fill="#4d4424" d="m2.9 26.8-1.1-2.2 2.4-.1q4.5.6 5.9-.5 1.1-.8 2.7-3.1 2.5-3.1 7-11.6 1.9-1.9 2.4-4l.7-3.9.8.1q-8.9 26.2-14.1 26z"/><path fill="#80764c" d="M1.8 24.6 1 22.9l-.2-.3q2 1.3 6.6-.1 5.6-1.2 11.1-14L20 4.8l1.1-3.4V.7l.3.1h.1l.7.4.6.2-.6 3.9q-.6 2.1-2.5 4-4.5 8.5-7 11.6-1.6 2.3-2.7 3.1-1.4 1.1-5.9.5z"/><path fill="#968b49" d="m.9 22.6-.4-1 8.4-1.2Q18.1 9.3 20.8.5l.3.1.1.8-1.1 3.4-1.5 3.7q-5.5 12.8-11.2 14-4.6 1.4-6.5 0"/><path fill="none" stroke="#000" stroke-linecap="round" stroke-linejoin="round" stroke-opacity=".3" stroke-width="1" d="m.5 21.6 8.4-1.2Q18.1 9.3 20.8.5"/></g><g id="w"><path fill="#8d8344" d="M44.6 18.9q-1.1-2-1.2-2.9-.2-2 1.4-3.8l1.1.4-.4 1-.5 1q-.6 1.1-.6 1.5l.6 1.4.1.4v.1zm5 33.6v-.3q.7-3.7.3-8.5l-.4-2.7.5-.1h.2q0 1 .5 2.7v.7l-.4 3.8.2.5-.3 4v.2zM37 27.4l-1.4-.7Q33 25 32.7 22.2l-.4-1.6V20h.3l1.1-.3v1q.2 2.2 2.1 5.2l.5.7zm-9.5-9.1q3-3.1 4.6-7.5t1.4-9H36q-.7 6-3.1 10.7-1.6 2.8-4.8 6.6zm15.1 44.6q3.4-2.1 5.2-5.1l1.4 1-.8 1.4q-1.6 0-3.1 1.7l-1.6 1.7-.6-.5zm7 7q4.6 1.5 11.4 4.8v-.1l.5 2.3.2.8h-.1q-6.9-4.1-8.7-4.5-4.5-1-6.4-2.2l-.6-.6-1.5-.9H44v-.2h.4l3 .8zm-32.8-3.2 1.3.3q5.4 18.1 25 12.4h.4l1.5-1.5 1.4-.9.4-.2 1.1-.4h.5l.2.3q0 2.3-6.9 4.3-5.6 1.7-8.6 1.7-2.1 0-5.2-2.7l-.5.6-4.9-4.1-2.8-2.5-1.3-1.5q-1.4-2.5-1.6-5zm-6.2-28.4Q2 32.5 1.4 14.5v-.2Q-1 3.7 4 .5l.6.6-3.2 4.3.2 4q.1 1 1.2 2.2L2.3 15q0 8.8 3.7 16.4 2 4.1 4.4 6.6M4.8 10.9Q7.8 9.8 10 6l.8.6q-.2.9-1.8 3.3-1.9 2.6-2.8 2.7-.3 0-1.1-1.3l-.1-.2zm13.7 24.3q-.4-5.7 1.8-12 3-8.2 2.7-11.7-.7-6.5-2.5-10.2h.4l1.5-.3 1 2.2.6 3.9v1.6l.1.8v.5q-.4 6.1-1.3 9.1l-1.7 4.6q-.4 1.4-.9 5.5-.4 1-.4 3.8-.3 1.4-1.2 2.1"/><path fill="#6a5d32" d="m45.6 13.6-.1 1.3q0 1 .5 1.6l.3.2.2-.1.5 1q.3-1.4 2.2-2.3l.6-.2.8.6-.6.3q-1.9.1-3.6 4.6-1.6 3.8-.7 6.8.8 2.9 3.6 7.5t3.2 9.6l.3 4.4-.3 3.3-.2.9-.1.5-.1.5-.3-.1-.5-.2-.7-.5-.4-.2-.6-.6.6.3.8.5.6-7.5q0-3.1-1.9-8L46.3 32l-.2-.2-.9.1-.4-.4-.8-1-.2-.2-.6-.4q-2-.9-2.7-1.4v-.1q-.4-.3-2.5-1-1-.3-1.7-.8l-.6-.7q-1.9-3-2.1-5.2v-1l1.2-.4q-.2.5-.1 1.4.3 3.2 3.4 5.3 2.1 1.4 4.5 1.8h.4l1.6 1.1h.1v-.2l-1.2-4.8q0-1.6.8-3 .6-1 .8-1h.1q0-.7.8-1.1-.3 0-.8-.8l-.2-.4-.6-1.6q0-.3.6-1.4zm-6 50.6 2.9-1.5.5.3-2.3 1.5-.5.2zm10.9-4.9.8.5q-1.2 3-7 7.5L42 66q1.6-1 4.3-4.1.6.6 1.1.6 2.3-1.8 3-3.1m11.9 22v.2l1.3 3.7-.2-.2q-2.6-.2-3.4-.9-1.4-1.1-4.1-2.7l-1.4-.8-3-2.5h-.1l-.5-.7-1.4-1-1.2-.2-.4.1-1.2.4-.5.2-3.8-1v-.5l.5-.8q-1.8-.5-5.6-3.2L32 67.3l-1.7-1.7q.4-1 1.2-2.1l.3-.4.5.5q5.2 5.4 11 8 3.3 1.4 9.6 3.7l4.5 3.1q3 2.4 4.8 3"/><path fill="#a7a17c" d="m46.5 16.6 2.9-1.8.4.3-.6.2q-2 1-2.2 2.3zm-1.6 14.9.3.4-.6-.1Q43 30.3 41 29.2l-4-1.8h-.1l-.6-.8 1.8.8q2.1.7 2.5 1 .6.6 2.6 1.5l.6.4.3.2zm-.2-2.6L43 27.8l-.3-2.5q-.2-2.6.2-3.6l1.6-2.8.5-.8.1-.1q.5.8.8.8-.8.4-.8 1H45q-.2 0-.8 1.1-.7 1.4-.7 3l1.1 4.8z"/><path fill="#484022" d="m50.6 15.7.1.1.5.4q-1.7 1.1-2.9 3.4-1.5 2.6-1.3 4.6t1.4 4l2.5 4.3q3.6 6 4.3 13.2.4 4.5-.4 8.8h-.7l-1.6-.2-.4-.1.1-.6.1-.5.2-.9.3-3.3-.3-4.4q-.5-5.1-3.2-9.6t-3.6-7.5.7-6.8q1.8-4.5 3.6-4.7zm.7 44 1 .5q-.1 2.1-6.9 7.8l-1-.7q5.7-4.5 6.9-7.5m-2 23.5-.2-.1v.1q-9.1 4-18 1.3-6.6-2-10.6-6.1-5.6-5.8-6.1-12.5l2.3.5.1 1q.2 2.5 1.6 5 1.8 3.2 5.6 6.2 6.6 5.3 12.9 5 2.7-.2 7.5-1.7 5.2-1.7 7.2-3.7-.3 2.2-.8 3l-.4.7zM22.8 54l-.1-.4q-2-5-3-10l-.6-2.9.6-.1q1.5 0 2.3 1.9l.5 1.7-1.7-.4.5 1.5q0 4.3 1.8 8.1v.1l-.1.2z"/><path fill="#9b9363" d="M49.5 41q-1.1-5.4-4.2-8.6l-.6-.5h.5l.9-.1.2.1 3.4 5.9q1.9 4.9 1.9 8l-.6 7.5-.7-.5-.1-.2.3-4-.1-.5.4-3.8-.1-.4v-.3q-.6-1.7-.5-2.6l-.2-.1zM49 58.8l.1-.1 1.3.8q-.7 1.3-3 3.1-.5 0-1.1-.6-2.7 3.1-4.2 4l-1.9-1.1v-.1l.4-.2 2.3-1.5.6.5 1.6-1.7q1.5-1.7 3.1-1.7z"/><path fill="#786f48" d="M35.8 1.9 37 2l-.9 5.7q-1.3.1-2.3 2.6l-2.2 5.5-3.2 3.8-.4-.5-.7-.9-.4.6-.3.2-.1.3-.1.8v.8-.1l1.6-1.7q3.1-3.8 4.6-6.7Q35.2 7.9 35.9 2m25.6 75.8.4 1.5-.1-.1.1.7.5 1.7q-1.8-.7-4.8-3.1L53 75.2q-6.4-2.2-9.5-3.7-5.9-2.5-11.1-7.9l-.5-.5-.4-.4 1.3-1.1q-1.8-2.7-2.3-2.7-.7 0-1.4.6l-1.7-2.9-.6-1-1.7-3.8q-1-2.3-1.5-4.4V47l-1-2.7-.5-1.7q-.8-2-2.2-1.9h-.1l-.6.1H19l.1-.1q-.7-1-3.9-2.5-4.3-2-5.6-3.2-4.8-4-5.7-13.7-.5-5.4 0-9.9l-.8-3q-.2-1.7.3-4.1.5-2.1 1.2-3.1l.5.5Q3.9 6 3.9 7.3q0 1.5.8 2.5v.3l.1.8.1.2.1.2q.8 1.3 1.1 1.3.9-.1 2.8-2.7 1.6-2.4 1.8-3.3l1 .9q-2 4.8-5.2 7h-.2q-1.2-.8-1.5-1.4-.4 1.3-.4 4.8 0 2.9 1.4 7.9 1.3 4.6 2.1 5.8 1.7 2.4 5.5 4.3l5.6 2.6-.4-1.9h.1v.2l1.4.4q1-.1.8-2.4-.4-4.6.3-7.4.2-1.2 1.4-4 2-4.4 1.5-13.3V8.9l-.2-1.7-.5-4-1-2.2 1-.2q.6 1.4 1.5 4.7t.9 4.7q0 6.8-1.7 13.9-1.9 7-1.9 12.5 0 1.5.8 4.7l.7 2.7.1.3v.6q2.6 8.4 6.3 12.5l.8-.5.1-.2.3.3 5 6.9-.4.2-.7.6 4.3 3.3q4.3 3.2 5 3.2l1.1-1 .1.1.6.5q2 1.3 6.4 2.3 1.8.4 8.7 4.6m-13.1-1.4 1.2.2 1.4 1 .5.7v.1q-1.9 2-7.1 3.7-4.8 1.5-7.5 1.7-6.3.3-13-5-3.7-3-5.5-6.2l1.3 1.5 2.8 2.5 4.9 4.1.5-.5q3 2.6 5.2 2.6 3 0 8.6-1.7 6.9-2 6.9-4.3z"/><path fill="#63572e" d="m36.1 7.7-.6 2.6h-.1q-.9.3-1.9 2.8l-1.7 5q-.6 1.3-2.4 3.1v.1l-.6-1.2-.4-.5-.4-.5-1.6 1.7-.1 1.6q.4-1 1.1-1.8l1-1 3.2-3.8 2.2-5.6q1-2.3 2.3-2.5M46.9 69l2.5.8-2 .3-3-.9H44v.1l.2.1 1.4.8-1.1 1q-.7 0-5-3.2l-4.4-3.3.8-.6 2 1.9q.6 0 2.4-1.2L42 66l2.1 1.3 1.1.7zM5.1 1.7l1 .8Q4.4 6.8 4.7 9.8q-.8-1-.8-2.5 0-1.3 1.2-5.6m1.3 12.9h-.2Q3.6 22 8 29.4q4.1 7 10.3 7.3h.3l.4 1.8-5.6-2.6Q9.6 34 7.9 31.6q-.8-1.2-2.1-5.8-1.4-5-1.4-7.9 0-3.5.4-4.8.3.6 1.5 1.5M23.5.9l1.7.1v.9q1.5 5 1.8 8.3.4 4.6-.3 8.4l-.2.5.2-.1-.1.3-.9 1.6.6 2.5-.5.3h-.2v.2q-.4 1.3-1.1 5.9-.8 5.7-.8 7.4 0 6 2.8 11.7l4.5 8-.7.5q-3.7-4.1-6.4-12.5v-.6l-.1-.3-.7-2.7q-.7-3.1-.7-4.7 0-5.5 1.8-12.5 1.7-7.2 1.7-14 0-1.2-.9-4.6T23.4.9m4 55.7 1.7 3q.7-.7 1.3-.7t2.4 2.7l-1.3 1.1.4.4-.3.4q-.8 1-1.2 2l-.1.3q-.4-.5-2.7-6.1L26 58l1-1.1z"/><path fill="#514827" d="M35.4 10.4 34 14.6q-2 4.9-4.4 7.4-1.6 1.6-3.5 2.3v.5l-.2.5v.1l-.7 6.4q-.6 5.9-.2 9.8 0 1.1.6 2.6 1 3.3 4 8.4l.5.9.8 1.2-.2.1h.2q2.1 3.2 4.2 5.6 2.3 2.4 4.4 3.8l.6.5.1.1Q38.6 66 38 66l-2.1-1.9.4-.2-5-7-.3-.2-.1.1-4.4-7.9q-3-5.7-3-11.7 0-1.7.9-7.4.7-4.6 1.1-6l.2-.2.5-.2-.6-2.5.9-1.6-.1.8v.8l-.1 1.5q.4-1 1.1-1.8l1-1 .4.5.6 1.2v-.1q1.9-1.7 2.4-3.1l1.7-5q1-2.5 1.9-2.7m28.2 74.9 1.1 2.8.3.8q-1.1-1-3.4-2-3.2-1.4-4.9-2.5-.7-2-2.2-3.7l1.4.8q2.7 1.6 4 2.7.9.6 3.5.9zm4.2 9.2.3.7.3.6-1.5.4q-2.4-3.7-4.4-5.9zM51.6 84.1l-2.5-.8 1.3-1.3zM33.1 70.9q-1.7-1.9-3.2-4.1l.4-1 .1-.2 1.7 1.8 5.1 4q3.9 2.8 5.6 3.3l-.4.8v.5l3.9 1-1.4 1q-2.8-1-5-2.1-2.1-1.2-6.8-5"/><path fill="#3c341c" d="m52.3 60.2.9.3q-2.5 6-6.3 8.5l-1.5-1q6.7-5.7 6.9-7.8M65 88.8l.8 1.7.2.4 1.7 3.6-5.4-4.2q-2-2.1-3.7-3.1l-1.2-.7q-2.5-1.2-5.8-2.4L50.4 82l.3-.7q.5-.8.8-3l3 2.4q1.5 1.6 2.3 3.7 1.6 1.1 4.8 2.5 2.3 1 3.4 2m-21.6-9.6-.4.1q-5.2-2.9-9.9-8.5 4.7 3.8 6.9 5 2.1 1.1 4.9 2z"/><path fill="#5c502c" d="m30 66.8-2.4-3.6-2.2-4 .7-1.2 1.4 1.7q2.4 5.6 2.8 6.1z"/><path fill="#4e4425" d="M25.4 59.3Q24 56.7 23 54v-.3l.1-.2.8 1.4q.6 1.1 2.2 3z"/><path fill="#766c37" d="M19 40.8q-5-.3-8.6-2.7Q8 35.6 6 31.5q-3.6-7.6-3.6-16.4l.3-3.5q-1.1-1.2-1.2-2.2l-.2-4L4.5 1v.1q-.5 1.2-1 3.3-.5 2.4-.4 4l.9 3.1q-.5 4.5 0 9.9Q4.8 31 9.6 35q1.3 1.1 5.7 3.3 3.1 1.5 3.8 2.4zm-.3-4.1V36l-.1-.8q.9-.7 1.1-2.1.1-2.7.5-3.8.6-4.1 1-5.5l1.6-4.6q.9-3 1.3-9.1.5 8.9-1.5 13.3-1.2 2.8-1.5 4-.6 2.8-.2 7.5.2 2.2-.7 2.3z"/><path fill="#524826" d="M23.2 53.6q-1.8-3.9-1.8-8.2l-.5-1.5 1.8.4.9 2.8v.3q.5 2 1.4 4.4-1.2.5-1.9 1.8"/><path fill="#594e29" d="m25 51.8 1.8 3.9.6.9-.3.3-1 1.1q-1.7-1.9-2.2-3l-.7-1.5q.6-1.2 1.9-1.7"/><path fill="none" stroke="#000" stroke-linecap="round" stroke-linejoin="round" stroke-opacity=".3" stroke-width="1" d="M44.6 18.9q-1.1-2-1.2-2.9-.2-2 1.4-3.8l1.1.4-.4 1v1.3q0 1 .5 1.6l.3.2.2-.1 2.9-1.8h0l.4.3.8.6.1.1.5.4q-1.7 1.1-2.9 3.4-1.5 2.6-1.3 4.6t1.4 4l2.5 4.3q3.6 6 4.3 13.2.4 4.5-.4 8.8h0m-5.1-2-.1-.1v-.2q.7-3.7.3-8.5l-.4-2.7q-1.1-5.4-4.2-8.6l-.6-.5h.5m-.4-.4.4.4-.6-.1Q43 30.3 41 29.2l-4-1.8m0 0-1.4-.7Q33 25 32.7 22.2l-.4-1.6V20h.3l1.1-.3 1.2-.4q-.2.5-.1 1.4.3 3.2 3.4 5.3 2.1 1.4 4.5 1.8h.4l1.6 1.1h0m-1.5-1.1-.3-2.5q-.2-2.6.2-3.6l1.6-2.8.5-.8m-17.8.1q3-3 4.6-7.4t1.4-9h2.5L37 2l-.9 5.7-.6 2.6h-.1L34 14.7q-2 4.9-4.4 7.4-1.6 1.6-3.5 2.3v.5l-.2.5h0v.1l-.7 6.4q-.6 5.9-.2 9.8 0 1.1.6 2.6 1 3.3 4 8.4l.5.9.8 1.2-.2.1h.2q2.1 3.2 4.2 5.6h0q2.3 2.4 4.4 3.8l2.9-1.5q3.4-2 5.2-5h0m4.6 2.5 1 .3q-2.5 6-6.3 8.5l2.5.8m17.4 26.4q-2.4-3.7-4.4-5.9-2-2.1-3.8-3.1l-1.2-.7q-2.5-1.2-5.8-2.4l-2.5-.8v-.1l-.1.1q-9.1 4-18 1.3-6.6-2-10.6-6.1-5.6-5.8-6.1-12.5l2.3.5 1.3.3Q23.4 85.3 43 79.6l.1-.1h.3-.4q-5.2-2.9-9.9-8.5-1.7-1.9-3.2-4.1l-2.3-3.6-2.2-4Q24 56.7 23 54l-.2-.3q-2-5-3-10l-.6-2.9m-.2 0q-5-.3-8.6-2.7-8.6-5.8-9.2-23.8v-.2Q-1 3.7 4 .5l.6.6m.6.5 1 .9Q4.4 6.8 4.7 9.8v.3l.1.8Q7.8 9.8 10 6l.8.6 1 .9q-2 4.8-5.2 7h-.2v.1Q3.5 22 8 29.4q4.1 7 10.3 7.3h.3m.1 0V36l-.1-.8q-.4-5.7 1.8-12Q23.3 15 23 11.5 22.3 5 20.5 1.3h.4l1.5-.3 1-.3h0l1.7.2v.9q1.5 5 1.8 8.3.4 4.6-.3 8.4l-.2.5.2-.1.3-.2.4-.6m22 51.6q4.7 1.5 11.5 4.8v-.1"/></g><g id="x"><path fill="#5c512c" d="m57.6.7 1.5 1.1v.1q-1.7 1.5-1.8 3v.4l.5-.1q.4.5 1.6.8-2.1 1-4.6 3.2L51 12.7q-.2 2.6-1.4 5.4-2.6 5.5-8.2 5.9l-1.4-.1-.2-.1-1-.3-.1.1.8 3.1q.3 4.3-2.5 10-2.9 6-7.3 8l-1.3.5.5.8h.1l.8-.5.6 6.3q.3 3.8-.8 8.8l-1.9 8q-.9 3.6-4.8 7.9V76l-.2-.2q4.8-5.6 5.3-12.2l-.2-.1-1.4.1-1.3-.3h.1q2.2-.5 2.9-4.3.3-2.5.1-5.1-.1-1.3.1-6-.1-1.4-2.6-7.7l-1.9-4.5 2-1.9q2.6 4 3.4 8.3l1.3-.7.4-.3q1.9-.3 4.4-4.4 3-4.6 3-8.3 0-1.8-.9-3.6l-1.7-3.4 1.2-1 1.3 1.3q1.3.9 3 1h1.1v.1q3.5-.1 5.9-3.5 1.8-2.6 1.8-4.4 0-2.4-1.2-2.9l-.6-2.2-.7-1.6q-1.4-3.2-3.1-3h-1.6q-.4 0-1.4.6l-.2-.9v-.6l.7-.2q5.9-.4 8.5 5.3l.3.5.5 1.5.1-.1q3.4-4.3 4.5-5.2-.2-1.2.4-3.1.5-1.5 1.3-2.2m-45.3 76q3.6-1.7 8.6-9.5l.5.1 1.1.2h.3v.5q-.2 1.5-1.7 3.6-1.7 2.4-3.7 3.6l-4.5 2.5z"/><path fill="#7b723c" d="M57.8 5.2 59 5q1.2 0 1.9.5l-1.6.5q-1.2-.3-1.6-.8M17.3 63.7q-1.4-2-1.6-4l-.3-2.2V57l.7-.2v.2q0 3.6 1.1 6.6m8.1-.3Q29.4 50 23.6 36l-.6-1.4 2.3-1.4.5.8-1.9 1.8 1.9 4.4q2.5 6.4 2.6 7.8-.2 4.7 0 6 .1 2.6-.2 5-.7 3.9-2.9 4.4M31 41.1q2.1-1.6 3.9-4.6 2.4-4.4 2.7-6.9.3-2.4-.7-4.5l-.1-.2-1.9-3.2q0-.4 1.9-1.4l.2.1-1.2 1 1.8 3.4q.8 1.8.8 3.6 0 3.7-3 8.4-2.5 4-4.4 4.3m11.4-18.3q3.9-.4 7.3-8l-.9-2.8q1.3.5 1.3 2.9 0 1.8-1.9 4.4-2.3 3.4-5.9 3.5m6-13h-.1l-1.9-2.3q-1.1-.9-3-.8-1.4.1-1.6.4l-.4-1.4q1-.6 1.5-.6h1.6q1.8-.1 3.2 3.2zm2.5.1 1.5-1.7 2-1.8h.1v-.1l-.2-.8q-.2-1.6.9-3.2Q55.9 1 57 .7l.3-.1.3.2q-.8.7-1.3 2.2-.6 2-.4 3-1.1 1-4.5 5.3l-.1.1z"/><path fill="#3f371e" d="m61 5.6-.4.8-.5 1.4V8h-.2q-3 0-5.7 3.6-2.4 3.2-3 6.8-.6 2.5-4 4.8-2.8 1.8-5.5 2.3l.1.4q.3 2.5-1.2 6.8-1.6 4.6-3.7 7.2-2.8 3.1-7 5.6l-.8.5-.6-.8 1.3-.5q4.4-2 7.3-8 2.8-5.7 2.4-10l-.7-3.1.1-.1 1 .3.2.1 1.4.1q5.6-.4 8.2-5.9 1.2-2.8 1.4-5.5l3.6-3.4Q57.4 7 59.5 6q.8-.4 1.5-.5m-18.2 62-.2-.5q-6.9-2.1-7.6-10.5-.6-6.1 3.1-10.4l.2-.1.7.3q-3.4 5.5-3 10.7.3 2.9 2.1 5.2 1.4 1.9 3.6 3h.1l-.1-.4.3.9 1 2.5.3.3.7 1.5q-2.9 4.7-8.2 8-5.1 3.2-9.2 3.2-3 .2-6-1-2.9-1.3-3.3-1.3l-.4.1v-.3q.4-1 1.4-1.2h.2q1.3-.1 3 1.3 1.8 1.4 4.8 1.2 3.1-.2 9.2-3.7 5.3-3 8-7.1V69zm-26-10.8 2-.7q.4 3.5 3.1 5.7 1.7 1.4 3.1 1.6h.3l.8 3.3-.2.6-.2-.1q-1.7-1-4.4-3.5l-.2-.1-.7-.8q-3.5-3.5-3.7-6m50-19.4 1.1-1 1.9 2.7q.7 1.5 1 4.2l-.3 5.8-1.2.6.6-5q-.1-1.2-1.5-4.2zm9.9 4.7 1.3-.3v1q.9 3-1.8 6.3-2.7 3.1-6 3.4l-.2-.1q-1.2 4.6-6.4 10-5.4 5.5-12.7 6.2l-3.3.3-1.4-.1-.4-.1.2.3h-.1q-.6 0-1.2-2.3l.4.8 4 .1q9.5-.7 15.7-8.2 3-3.9 4.6-7.6l3.3-1.5q1.3 0 2.7-3.2l.2-.5.7-2z"/><path fill="#4b4323" d="M23 76.5q.3.8 1.3 1.5 1 1 2.1.9 1.6-.1 9.1-4 2.4-1.2 3.8-2.7l3.4-4.7.7 1.5.1.2q-2.7 4-8 7-6 3.5-9.2 3.8-3 .2-4.8-1.2t-3-1.3h-.2l-1-.2-3.6 2.1-.6-1.3-.2-.4-.7-1-1.7.5q-1.9.1-3.5-.9l-.1.8-.1.2v.1l-.1.4q.5 1.4 2.2 1.4 1 0 4-1.5l4.4-2.5q2-1.2 3.7-3.6 1.5-2.1 1.7-3.6v-.5h-.2q-.2-1.2-1.5-4l.2.1q2.8 2.6 4.4 3.6h.1l-.4.8q-3.4 5.6-3.3 6 .1 1 .8 1.8l.1.3.1.1zm16-30.1.4.3q-3 4.1-2.5 9.4l.1.8.3 1v.3q0 2.2 1.6 3.7l2.5 1.8.3 1.1.1.5v-.1q-2.2-1.1-3.7-3-1.9-2.4-2.1-5.2-.5-5.2 3-10.6M70.3 49l-.4 1h.2l3.5-1.4 1.5-1.6q-1.4 3.1-2.7 3.3l-3.3 1.4q-1.5 3.7-4.6 7.5-6.1 7.6-15.6 8.3l-4.1-.2-.4-.7-.7-2.2 1.7 1.1v.1l4.1.6q4.3 0 8.6-2.5 4-2.2 5.9-5 5-7.2 5-10.7l-.2-3.3q0-1-.6-1.9-.4-2.8-2.4-4.7l.7-.8 1.6 3.1q1.4 3 1.5 4.1l-.6 5.1z"/><path fill="#69613e" d="M37.3 57.9q.9 2.8 3.8 4.6l.2 1v.1L39 62q-1.6-1.5-1.6-3.7zm-16.5 9.4-.1-.1-.2-.2-1.6-1.3-1.6-2Q16 60.7 16 57v-.2l.5-.1q.2 2.5 3.6 6l.8.8q1.3 2.8 1.4 4l-1.1-.2zm23-2.9-.2-.6q4.2 1.8 7.7 1.6 6-.5 11.6-6.6 6.3-6.8 5.5-15.3l-.1-.6q.6.8.6 1.8l.2 3.3q0 3.5-5 10.8-2 2.8-5.8 5-4.4 2.4-8.7 2.4l-4-.6h-.1z"/><path fill="#38311a" d="m44 70 .5 1.2q-3.4 5.4-6.9 7.7-4.9 3.2-9.2 3.5-6.7.4-10.6-.8l-1.3-.4V81h-.1l.5-2 .4-.1q.4 0 3.3 1.3 3 1.2 6 1 4.1 0 9.2-3.2 5.4-3.3 8.2-8"/><path fill="#433b1f" d="m17.8 81.6-3.2 2.9-3 2.2-6 4.3Q2 93.9.5 96.3l2-3.6q0-.6 5-4.6 5.8-4.7 9-6.8zM4.3 85.1l.1-.2 2.3-7q.5 1.3 2.2 1.3 1 0 4-1.5l.2.4.7 1.3q-7.6 6.3-9.5 5.7m21.5-17.9.2-.6-.8-3.3 1.3.3 1.4-.1h.3v.1q-.6 6.6-5.4 12.2-.7-.8-.8-1.8 0-.4 3.3-6z"/><path fill="#342e18" d="M.5 96.2 1 93l.2-.4.9-1.5L4.4 85q1.9.6 9.5-5.7l3.4-2.1 1 .3q-1 .1-1.2 1l-.1.4-.4 2-.1.1h.1q-3.2 2.2-9 6.9-5 4-5 4.6z"/><path fill="#878056" d="M70.4 49h.5q2-.4 3.4-2.2 1.7-2.2 1.3-4.7l.9-.1-.4 2.5-.7 2-.2.5-1.5 1.6-3.5 1.4H70z"/><path fill="none" stroke="#000" stroke-linecap="round" stroke-linejoin="round" stroke-opacity=".3" stroke-width="1" d="m57.6.7 1.5 1.1v.1q-1.7 1.5-1.8 3v.4l.5-.1L59 5q1.2 0 1.9.5h0l-.4.8-.5 1.5V8h-.2q-3 0-5.7 3.6-2.4 3.2-3 6.8-.6 2.5-4 4.8-2.8 1.8-5.5 2.3l.1.4q.3 2.5-1.2 6.8-1.6 4.6-3.7 7.2-2.8 3.1-7 5.6l.6 6.3q.3 3.8-.8 8.8l-1.9 8q-.9 3.6-4.8 7.9.3.8 1.3 1.5 1 1 2.1.9 1.6-.1 9.1-4 2.4-1.2 3.8-2.7l3.4-4.7-.2-.4q-6.9-2.1-7.6-10.5-.6-6.1 3.1-10.4l.2-.1.7.3.5.3q-3 4.1-2.5 9.4l.1.8.3 1q.9 2.8 3.8 4.6m3.4 8.7q-3.4 5.4-6.9 7.7-4.9 3.2-9.2 3.5-6.7.4-10.6-.8l-3.2 2.9-3 2.2-6 4.3Q2 93.9.5 96.3m6.5-20q1.6 1 3.5 1l1.7-.5q3.6-1.7 8.6-9.5l-.1-.1-.2-.2-1.6-1.3-1.6-2q-1.4-2-1.6-4l-.3-2.2V57l.7-.2m.5-.1 2.1-.7q.4 3.5 3.1 5.7 1.7 1.4 3.1 1.6h.3m.1 0Q29.4 50 23.6 36l-.6-1.4 2.3-1.4.5.8q2.6 4 3.5 8.1l1.3-.6.4-.3q2.1-1.6 3.9-4.6 2.4-4.4 2.7-6.9.3-2.4-.7-4.5l-.1-.2-1.9-3.2q0-.4 1.9-1.4l.2.1 1.3 1.3q1.3.9 3 1h1.1q3.9-.2 7.3-7.9l-.9-2.8h0l-.5-2.2h-.1l-1.9-2.3q-1.1-.9-3-.8-1.4.1-1.6.4l-.4-1.4-.1-.9v-.6l.7-.2q5.9-.4 8.5 5.3l.3.5h0l1.5-1.7 2-1.8h.1v-.1l-.2-.8q-.2-1.6.9-3.2.8-1.3 1.9-1.6l.3-.1.3.2m9.1 36.6 1.1-1 1.9 2.7q.7 1.5 1 4.2l-.3 5.8m.1 0h.5q2-.4 3.4-2.2 1.7-2.2 1.3-4.7l.9-.1 1.3-.3v1q.9 3-1.8 6.3-2.7 3.1-6 3.4l-.2-.1q-1.2 4.6-6.4 10-5.4 5.5-12.7 6.2l-3.3.3-1.4-.1-.4-.1m-2-4.7q4.2 1.7 7.7 1.5 6-.5 11.6-6.6 6.3-6.8 5.5-15.3l-.1-.6q-.4-2.9-2.4-4.8l.7-.8"/></g><g id="z"><path fill="#000" fill-opacity=".1" d="m87.9 145.5 1.2 11.6 5 2.3 2-6.9.6 8.3 1 2 1.6-5.9-.6 8.2.7 1.5h-.1l-4.5 3.6-5.4 1.9-.4-5.6-2.7 6.7-5.9 2-9 1.4-.2-3.8-1 4-10.6 1.5L42 176l-3.1-9.4.8 9-2-.2-1.8-7.5-1 7-4.1-.5-7-6.6 2.6-5-1.6-19.4 4.4 14.4 1.5 2.5.1-11.1 2.4 6.6 9.9-4.9 21-1.1 17.7 4 4.9 2.3z"/><path fill="#000" fill-opacity=".1" d="m88.8 146.1-1.3 15.5 2.1 4L84 171l-3.3.5-.8-5.7-1.4 6-1.7.2.7-7.2-2.5 7.5-14.1 2.2-8.5-1.1-.7-3.2-.3 3-7.1-1-4.8-1.6-2.1-5.3-.4 4.5-4.3-1.5-3.6-2.7-.1-.1.6-1.2-.5-6.6 1.3 4.8.8-1.7.4-6.6 1.6 5.4 4-1.8 1-9.3 1 8.3 4-1.8 14-3.4 16.9.7 8 3.8 1.9-5.3v8.9l1.3-2z"/><path fill="#000" fill-opacity=".2" d="m80 159.1 1.1-1.8 3.2-10.6-1.1 14.2 1.9 3.6-5.2 4.9-3 .4-.7-5.1-1.3 5.4-1.5.3.5-6.7-2.2 7-12.9 1.9-7.7-1-.7-2.9-.2 2.8-6.6-1-4.4-1.5-1.9-4.7-.2 4-4-1.3-3.4-2.6.6-1-.6-6.1 1.3 4.3.7-1.5.4-6 1.4 5 3.8-1.7.9-8.5.8 7.6 3.7-1.7 12.9-3.1 15.3.7 7.3 3.4 1.8-4.9z"/><path fill="#c2b87c" d="m157.2 69.4.4-1.2.6-4.2.3-3.9q-.4-3.4-2-4.7l1.5-.6.5-.2-.7.8.6 1.9q.5 2.4.5 4.8 0 5-1.7 7.3m8.7-23.5 1-.1.3.8.8 3.4-.4 3.7v.2q-.2 3-1 5.6l-.4-.3 1.1-6.7zM44.2 152.1q.5-1.3.8-2.8l.8-1.3.3-.7 1-2.3q1.6-4.2 1.8-8.7v-2.4l-.1-1.9q-.6-6-1.8-7.5l-.5-.3-5.3-3.3-6.5-4.5h-.1l-.8-.6.4-.5q-1-.5-1.7-1.5l-.2-.3-.2-.4.6-.6.8 1.1.2.2.7-.5-.4-.5h-.1l-.2-.3.5-.3.6.5 1.2.7-.5.7q.9.6 4.6 1.3l4.6.6 1.3-.2.9 1.5.1 2-4-.5-4-2.6q1.8 3.1 4.6 5 2 1.2 4 1.5l.6 1.3.5 1.2v.4l.1.8.6 3.5.1.5v.6l.3 4-1.6 9.5q-.9 4-4 7.6m-19-41.7q-1.2-2.2-1.2-3.2-.1-.8 1.5-2l.3.5q-1.1.7-1.1 1.5zm37.4-63.3q-2.5-.8-6.1-3.3l-.7-.5-.8-1.9-1-2.6.7.7q1.5 1.3 3.6 1.8h.1l.3.3zm13.8 65.1q2.8 1.6 8 1.3 3.5-.3 6.6-1 1 .4 1.7 1.4l-2.1.3-8.9.8-3-.3-.4.1q-.3 0-.8-.5l-.2-.7zm28-7.1v-.2q-1.3-2.3-1.6-5v-.2l1.5-4.2q1.2-2.7 2.8-3.4l.3.3-1.3 2.8Q105 98 105 98.8q0 2.4.8 4.4 0 .7.9 2l1 1.1 1.8-.3v.1q-1 1.8-3.9 4-3.1 2.3-6.5 3.3l-.8.4-.6-1.2-.4-.5 5.2-3.2q2.7-1.8 3.5-2.8l-.5-.3zm11.9-32.7-.2-.2-1-2.5-.4-.9-.3-1.2v-.1l-.2-1-.4-2.2q-.3-3.4.7-5.8v-.2l.9.1.3.1q-.7 1.4-.7 3.7t.4 4.5l-.1.1q.8 4.4 1.4 5.5zm11.2 2 1.2.2.8.5q.8.9 1 1.7 0 .6-.5 1.6t-1.1 1.1l-1.3-.7-.2-.2.6-3.1q0-.9-.5-1.2m6.8 7.2h.7q7.4-.5 13.3-4.3v.1q0 .5-5.1 3.2-4.2 1.9-6.6 1.9l-1.5-.2-.4.1h-1.1v-.1q.1-.4.7-.7M63.2 35.4 63 29q0-2.9.4-4.6-.2 1.7 0 3.4.5 6 3 10zm62.6 46.3h.1l.9 4q.5 5.8-7.7 12.1l4-5.5q2.6-4.3 2.6-8.8z"/><path fill="#5b502b" d="m158.5 54.6.4-.1.9 5q.3 3.9 0 5.9l-.2.8-.2.5v.1l-1.6 2.8h.1l2.4-2.3 1.1-1.2.8-1.8q1.6-2 2.3-4.2.8-3.2.3-9.4-.2-1.2-1.3-4.4l1.5-.2 1.3 4.2.3 3q.3 3.6-2.4 9.6-3 6.2-6.9 8.9-15.3 12-19.9 12.4l-1.7.2-3.4-.2-3.3.4v.3q.1 2.2-1 6.4-1.2 4.1-2.9 6-1.7 1.7-3.2 5.6-.6 1.2-2.1 2.8l-.7-1.4 2.2-3.3 2.4-4 2.4-2.8q1.2-1.4 2.2-9.3-2.2 7.8-5.2 10.4l-4 3.5q-1.4 1.4-2.6 3.5l-3-.5q-1.7 0-2.7-.7h1.2q2.3-.2 4.7-2l-.1.4 1.2-.9 1.2-.9q8.2-6.4 7.7-12.1l-.9-4h-1q-2.3 0-6.1-5.2l-.8-1.1-.2-.3v.1q-.5-.9-.4-1.3l-.1.2-.8-1.6.1.1.3-.2q-.6-1.1-1.4-5.5l.1-.1q-.4-2.1-.4-4.5 0-2.3.7-3.7h.2l1.1-.2q-1 2.6-.6 8l.3 1.5.1.6.8 2.2q.5 2.3 1.1 2.3h.2v.1l.8 1.1.4.5.8 1q2.9 4.2 6.3 4.2.4 0 .4-.4l-.4-.8.2.1.2.1 1.3.8q.6-.1 1.1-1.1t.5-1.6q-.2-.8-1-1.7l1.3 1 .3.2.3.4.2.5q0 3.6-2.5 3.8h-.2l2.3.5 1.5-.2 1.6.2q-.6.3-.7.7v.1h1.4l1.6.1q2.5 0 6.6-1.9 5.1-2.7 5.1-3.2v-.1l4.2-3.2 3-2.7 1.6-2q1.7-2.3 1.7-7.3 0-2.4-.5-4.8l-.6-1.9zM77.3 164.4q-2.5.2-4.3.8-7-7.7-7-23.5l.5-4.7v-1.4l-.3-.1-1.9.2v1q-.6.2-1.1.7-.6.6-.8 1.2v.5q-.9 10.8-.8 12 .3 3.6 1.9 10.8 1.3 6 2 8h-1.9l-1.6-7.5q-1-4.4-1.2-7.9l.7-15.5q0-1.2-.5-1.2l-.5.5q-.4.7-1 3.3-.7 3-.7 4.6l.7 18.3q0 3.2.8 6.3l-.9.4q-1.4.8-2.1 1.4l-2.2-1.3-.1-.1q-.8-9.8 5.4-41.5l.6-1.7.3-1.2q2.4-7.9 2-11.4-.2-3-1.4-6l.3-.2 2.3-1.9q1.8 3.4 2.1 7.5.3 3-.8 7l-2.3 7.4v.2l1.5 1.5q.7 0 2.5-8t1.7-11.3q-.5-4.1-2.4-7.5 1.5-2.2 2.7-5.3 1.5-3.8 3.1-9.6l2-7.5.2-.7 2.5-10.2.3-1 .2-.1 1.5-.5-.5 3.5-1.8 8.1-2.5 8.7q-.6 3.4-2.4 7.7-1.8 4.2-1.8 5.7l.2 1.8-.1.4-.1 1q0 2.2 1.3 4.1 1.3 2 3.3 2l1.1-.2.5.3.8 1.4.3.8.3 1.6q.2 1.8 2.1 1.8l3.1-.4 2.3.1 1.5-.3q1.7 0 6.5-1.7h.1l.3 1.5q.1 1.5-.5 3.1l-1.2.1q-26.5 1.8-24.3 26.6.5 5.8 4.1 11.5 2.6 4.1 5.4 6M51.7 170H51q-1.6.1-3.3 1.3l-.9-.7 1.7-2.7 2-3.7 2.8-6.4q.1 2.1-.7 7.7-.1 1.7-.9 4.5m11.1-72.8 2.5-5.1 1.1-3.2.2-.7 3.9-17.6h1Q71 75.8 69.4 85q-.3 3.5-2.3 6.8-1.3 2-4.1 5.3m-7-84.7-.4.7q-.3 0-.2 6.3.3 3.7 2.4 8.2 1.3 2.6 2.5 4.1l-.3.5q.4.7 1.2 1.5l.4.3 1.4 1.3q1.4 1.2 3.4 2.5l.5.4 2.7 2 1.6 1.5.9 1 1.1 2.5q1.2 1.9 4.1 1.4l.4-.1h.5l-.5 1.4h.1l-.5 1.8q3.5-.9 6.1-3.2 3.7-3.3 3.3-7.8v-.3l-.8-2-.3-.7-1-1 .4-.2q1 .6 1.8 2.2t.8 2.6q0 5.7-5.7 9.8-5.7 3-5.7 3.5l.1.3-.5-.3-.3-.3.5 1.5.8 2.3 1.4 5.5v.4l-.5.2-2.9.4h-.1v-.4l-1.6-8.9q-.3-2.5-.9-4L71 45.8q-.8-1.9-2.9-4.2-7.7-7-9-9l-.4-.4q-5.1-7.3-5.1-12.5.9-4.3.9-6.9zM85.5.8l1.1-.3.9 1.6q.5 1 .7 2.7v3q-.5 4.6-3.5 9.2-4.5 6.8-11.2 7.2-.7 0-5.7-1.4l-.2-.1-.1.7q-.5 1-.4 2.2.4 5 4.6 11l3 4.4-1.2.9Q66 33.6 66 25q0-2.1.6-3.2l-.2-.4H68v.1h.2l2.5.6 2.1.3q1.4-.1 5.7-2.5 4.3-2.3 4.8-3.1l2.7-5 .3-1.5.5-2.4.2-2.1q-.3-3.3-1.5-5m22 91.6.4.3.2.2q-1.3 2.8-1.3 4.4 0 6.1 5.3 6.9l3.1.6q-3.5 3.5-16.5 10.7l-.5-1.7.9-.4q3.4-1 6.5-3.4 3-2.1 3.9-3.9l.1-.2-.1.1-1.8.3-1-1.2q-.9-1.2-.9-1.9-.8-2-.8-4.4 0-.8 1.2-3.6zm9.5 14 .3 1.6q-3 2.4-8 5.5-5.7 3.5-10.4 5.2v-1.1l10-5.1q3.2-1.7 4.7-3.2 2.7-2.8 3.4-2.9m-37.1 12.2-1.2.3-3.2.7-2.5.6q-2.7-7.9-3.1-9.7-.1 2.2.3 5 1 9.3-.9 11.2l-2.1 2.5-.4.8-2 4.3h1.7v-.7l4-7q3.8-5.5 10.4-6.9z"/><path fill="#514726" d="m159.5 66.7.3-.2 2.3-2.2q-.2 1.1-.7 1.8l-1 1.2-2.5 2.3zM73 165q-1.2.4-2 1-2-1.8-3.6-5.6-2.2-5-2.7-10.5-.3-3 .5-12.7l-.7-.8h-.2v-.9l1.9-.2.3.1v1.4l-.5 4.7q0 15.8 7 23.5m-9.4 4.7h-.1q-1.4 0-3.2.9-.8-3-.8-6.3l-.7-18.3q0-1.7.7-4.6.6-2.7 1-3.3l.5-.5q.5 0 .5 1.3l-.7 15.4q.2 3.5 1.2 8zM74.8 41q2.3 3.5 3.1 5.5l-.4.1q-2.9.5-4-1.4l-1.2-2.5-.9-1-1.6-1.5q-1.2-3.5-3-6-1.9-2.4-2.2-7-.2-.9.6-5.8h1.3l.2.4Q66 22.9 66 25q0 8.6 7.5 16.9zm7.5 26.5-.7 5.6-1.4 7.3-.2.6v.3l-.1.1-.1.4-2.2 7.1-.1.2-2.4 6.1-.8 1.4-.2.4-1 2.1-1.3 2.4q-1 1.6-1.3 3.1l-.2-1.8q0-1.5 1.8-5.7t2.4-7.7l2.5-8.7 1.8-8 .5-3.6q1.7-.7 3-1.6m35.4 7.6-.5-1 .1-.3q-.1.4.4 1.3m13.8 1.8q.7 1 .9 3.3l-.2 1.2h.6l-1.5.2-2.3-.5h.2q2.5-.2 2.5-3.7zM78 53.5l1.8.6v-1.2q1.2 2.6 1.5 7h-.1L79.9 61q-.9-5.4-1.9-7.6m20.7 62.1q13-7.2 16.5-10.7h.1l.4.2q.9.4 1.3 1.4-.7.1-3.4 3-1.5 1.4-4.6 3.1l-10.1 5.1v-.4zm20.4-11.2-.5-.5-2.1-1.5q1.2-2 2.6-3.5l4-3.5q3-2.6 5.2-10.4-1 8-2.2 9.3l-2.4 2.8-2.5 4zm-58.2 5.4 1-.4q1.2 3 1.5 6 .3 3.5-2.1 11.4-.6 1.4-1 3-1.5 4.3-3 6.4l-.8 1v.3l-.7.2q-1.2-.1-2-1.5t-.8-3v-.5q.6 0 .5-.3l-.1-.5q8.3-6 8.3-18.3zm19 8.9 1 1.1q-6.7 1.4-10.4 7-1.8 2.9-4 7v.6h-1.7l2-4.4.4-.7 2.1-2.5q2-1.9.9-11.2-.4-2.8-.3-5 .3 1.8 3.1 9.7l2.5-.6 3.3-.7z"/><path fill="#837a50" d="m165 46.1.9-.2 1.4 6.6-1.2 6.7.5.3v.1q-.7 2-1.7 3.7l-4.8 7q-3.6 4.8-11.5 10-8 5-12.7 5.5l-5.8.4h-.6l.4.6q-1.6 7.2-3.7 11-2 3.2-4.3 5.8l-2 2.2-2.3 2.4-.3.3-.1.1q-5.4 5.4-9.4 7.5-1 .6-6.9 2.8l-2.2.7.2-.9q4.7-1.7 10.4-5.2 5-3 8-5.5l2.5-2.3q1.5-1.6 2-2.8 1.6-3.9 3.3-5.7t2.8-5.9 1.2-6.5l-.1-.2 3.3-.4 3.4.2 1.7-.2q4.6-.4 19.9-12.4 3.8-2.7 6.8-8.9 2.8-6 2.5-9.7l-.3-2.9zm-72.2 75.4-7.1 1.7q-17.4 3.3-15.7 21.4 1.3 13.6 12.8 20.2l-4.5-.6-1 .1q-2.8-1.9-5.4-6-3.6-5.7-4.1-11.6-2.2-24.7 24.3-26.4l1.3-.2-.3.7zm-59.6-.2H33zm-1.7-1.7-3-4-3-4.6-.2-.5-.6-3.2q0-.8 1-1.5l.4.5q3 5.1 6.1 8.2l.3-.6q.7 1 1.7 1.5l-.4.5-1.2 1.4L31 116l-.3.5.4.6-.1.3 1.3 2.2-.2.3H32l-.1-.2zm89.4-44q2 2.3 3.7 2.6h.3l.8.1h.8l.7.3.4.8q0 .4-.5.4-3.3 0-6.2-4.3M40.9 97h1.5q1.2 0 2.2-1.6l.2.7.1.3q1.3 3.6 2.3 4.8l2.6 3.4.2.2-.1.1v.1q-1.8 3-4.9 3.3h-.3q-.5-1.5-.9-4.2l-1.3.1zm-7.4 16.6.5-.7.4.4-.6.5h-.1zm15.5 6.5v.8l.3 1.8.3 1.7.9 3.6q-.7-.6-1.2-1.6l-.4-.7-.2-.5-.5-1.2-.6-1.3-.4-1-.2-2.4-.1-2 1.1 2z"/><path fill="#978b5a" d="M130 86.2v.6l-.5-.7zm-85.8 26.1-.4-.7-.3-.7-1.7-3.6q1.1.9 2.8.9h.3l.4 1.3 2.5 7 4 4.1h-.3q-1.5.1-2.6-.6l-1-.8-1.1-2-.9-1.5zm-7.1-37-1 .5-1 .5q-1.4.6-2.7.7h-1.6l.1-.6v-.3q-4-.3-10.2-5l-3.1-4.8Q15.2 62 15.2 61q0-.4.8-.7 2 5.2 6 9.5 5.4 5.6 11 5.2 2.5-.2 4.3-1.5l.2-.2h.3l.4-.5zm5.3-12.9.7-2.1.3.8q2.3-1.3 2.3-7.5 0-3.6-2.5-7.8l-.8-2.6.4.1h.3l-5.7-12q-.4-1.3-1-2.5-1.3-2.2-3.9-4.1L29.2 22q-1.9-1.9-2.5-4.2t-1.9-8.4q-1.3-5-3.8-7.6l.7-.5L23.3 4 25 7v-.3l.5 1.7.3.2.2.1q-.1-1.3 2.5-3.8l.3.1-1.4 2.3-.2.6q-1.6 1.8-1.6 3.3l.5 3.3q.6 2.7 1 3.4l.4-.1q1 2 2.6 4 1.1 1.6 7.8 6.2v.2q.1 2.1 4.5 11.3 4.3 9.2 4.6 13.9.4 3.1-.5 6.4l-2.2 5.7-.7-1.3-.3-.4-.1-.3zM31 21l1.5 1 .7.3q1.7 1.1 2.3 1.1 1.3 0 3.7-2.1l-1 2.9v.3l-.5.1q-4.2 0-6.7-3.6m7-17.2.8-1.1.9 1-.7 1L40.8 7q1.7 2.7 2.2 5v.9l-.2.8.4-.3.5.4 3.6-2.4.2.3q-4 3.3-6 5.7l.4-3.2.3-.4.1-1.4q-.2-2.5-1.8-5zm24.5 93.9.4-.6q2.8-3.4 4-5.3 2.1-3.3 2.4-6.8 1.8-9.2 2.3-14.5l2.6-.2.2.7.1-.7h-.3l.2.7q-1 5.5-2.1 6.1l-1.6 9.5.9.3q-2.9 7.5-5.8 12.3l-.6-.9q-.7-.8-1.7-.8zm-4.8-48 .5-.3 1 2.1q1 1.8 1.4 1.8l.9.5q1 .6 2 .6 1.2 0 2.3-.9l1.2 1.3q-1.5.9-3.1 1-3 .2-4-1.4-.7-1-2.2-4.7m-6.4-15.2.6-.4 1.1-.9q4.3 5.9 5.4 8.1-2.1-.5-3.6-1.8l-.7-.7q-1.4-1.5-2.7-4.3m-.8-6.5-.4-2.2.2-3.4v-.3h.3l.1.1q1-.7 1.4-5.3l.4-2.9 1.9-4.4.6-1.5.5-.1h.1l2.7-.7-.6 1.4-.1.2-2.7.7q-1.4 2.7-1.9 4.7-.6 2.7-.3 6.3l.5 3.3.2.5q.8 3.9 2.2 6.4 1.5 3 5 6.7Q66.6 43.7 69 49l.2.3q2.3 7 2.8 12.2l-.2 1q-.9 0-2.3-.8v-.9q0-2.7-1.9-7.8t-3.9-7.8l-8.6-10.9Q53 31.6 52 27l-.8.2.3.8-.3.1zm9.8 3.8.7.7.2 1.2q-.8-.8-1.2-1.5zm13.2-21.3h.3l.5.7q-1.7 1-3.9 4.2-1.7 2.4-2.1 3.7l.3.1h-.2l-1-.2-1.5 1.5 1.3.1h.4l5.3 1.3h.1l.5-.4 9.2-4.7-.3-.7q1.7-.6 2.3-4.9l.5-.5.3-2.1.2-3.2q0-3.2-1-4.1l.7-.4q1.2 1.7 1.5 5L86.8 8l-.5 2.4-.3 1.5-2.7 5q-.5.8-4.8 3.1-4.3 2.4-5.7 2.5l-2-.3-2.6-.7h-3.1q-.7 5-.6 5.7.3 4.7 2.2 7.1 1.8 2.5 3 6l-2.7-2-.5-.4Q63.9 34 63.4 28q-.2-1.7 0-3.4l.3-1.8q.5-1.9 1.3-3.6 2.5-5.3 8.6-8.7m4.7 36.1q2.4-.3 4.8-2.3 1.3-1.2 2-2.4t.5-2.5q-.2-1.8-2-4l1-.5 1.3 1.5.8 2.1q-.2 1.5-1.4 3.4l-1.2 1.8q-3 3.9-5.9 4.3h-.5zM125 78.2h.2l.1-.4.5.5zm2.5-67.9h-.2l.1-.1zm-6.1 3.4.6 2.2zm-12 92.3h.2zM1.9 42l-.1-.2zM38 76.8q2.3 1 3.5 3.4v1.1q.1 2.5.7 4.8l-1 .2-3.7-.4v-1.4q0-2.9.5-7.7M37.5 88q1.5.7 3.7.5.6 0 1.3-.3l2.1 7.2q-1 1.5-2.2 1.6H40v-.7q-1.6-.1-2.3-4.3zm9.5 31.3.2 2.4.4 1q-2-.3-4-1.6-2.8-1.7-4.6-4.9l4 2.6z"/><path fill="#706234" d="m98.8 119.6-6 1.9.3-.7.3-.7q2.5-.4 5.5-1.4zm-56 47.7-.1-.2q-1.9-1.4-3.9-2.1 4.8-2.9 9.2-8.4.6 0 1.1.7 0 1.2-3 5.7zm10.9-25.9 1.1 1q-2.3 12.4-5 12.4-.2 0-.6-.5l-.1-.1.1-.2z"/><path fill="#3a331b" d="M71 166q-2.5 1.6-2.2 4.3l.4 1.8-1.2-1.2q-1.1-.9-2.5-1-.7-2.1-2-8-1.6-7.3-1.9-10.9-.1-1.2.8-12v-.5q.2-.6.8-1.2.4-.6 1-.8h.3l.7.8q-.8 9.7-.5 12.7.5 5.5 2.7 10.5 1.6 3.8 3.6 5.5"/><path fill="#6b5f34" d="M55 171h-.1q-1.6-1-3.2-1 .8-2.9.9-4.7.8-5.5.7-7.6l-2.7 6.4-2.1 3.7-1.6 2.7-2.5-2q5-5.9 8.4-14.3 3.3-8.4 3.7-16.7v-.5l.8-.9q1.5-2 3-6.5-6.1 31.7-5.3 41.4m-5.5-40q1 1.3 2.6 1.5l1 .1-.1.5q0 1.7.8 3t2 1.5l-.6.2q-2.2 0-4.2-2.3l-.2-.5-.3-.6-.7-2.2z"/><path fill="#85753f" d="m44.4 168.5-1.6-1.2L46 163q3-4.5 3-5.7-.5-.7-1.1-.7-4.4 5.5-9.2 8.4-1.5-.6-3.1-.7 8.1-4.4 11.7-10.1 4.1-6.6 4.3-17.8l-.6-.9q2 2.3 4.2 2.3l.6-.2.7-.2v.1q-.4 8.3-3.7 16.7t-8.4 14.3m14.9-67 2.3-2.4.1-.2q3 1.4 5 4.8l.1.3q-1.1 1.9-2.3 3.2l-1.1-1.8q-1.9-2.9-4.1-3.9m11.2-31 .2-1.2-.4 1.1 1.5-8 2.2.2h.8l-.6 7.7-2.7.2zm-19 58 1.1 2 .8 1.3.1.5q0 .3-.4.3h-1q-1.6-.3-2.6-1.6v-.6l-.1-.5-.5-3.5-.1-.8.1.1.4.7q.5 1 1.2 1.6.3.3.8.4zm-16.9-12 6.5 4.5 5.3 3.3.5.3q1.2 1.5 1.8 7.5l.1 1.9-1.1-3.4L46 127l-.1.2-.7.9.9 1.3q-.6.1-.7.4h-.1l-.4-.5q-.3-1.7-1.5-3l-2.7-2.6-1.8-1.8-1.4-.2q-4.6-1.2-5.5-1.8l.1-.3.5-.7-1.6-1.8-.4-.6.4-.5 1.5 1.2 1.2-1.4.8.6zm19 25L49.2 154l-.1.2.1.2q.4.4.6.4 2.7 0 5-12.4z"/><path fill="#9d8a4a" d="M35.6 164.3h-1.9v-.1q3.6-2 6.2-4.9l1.3-1.7 3-2.8q3.5-3.4 4.2-6.4l2.4-13.4.2.5.6.9q-.2 11.2-4.3 17.8-3.6 5.7-11.7 10.1m9.4-15q1-4 .8-8.7-.3-9.7-3.4-12.9l-.8-.8q-1.6-1.5-3.4-2.6 2.3.5 3.2 1t2.2 3.5q2.3 3.4 3.5 10 .8-.8-1 8.5l-.4.7z"/><path fill="#b1a456" d="m41.2 157.6.8-1q1.3-2 2.2-4.5 3.1-3.6 4-7.6l1.5-9.5-.2-4 .3 1.3.7 2.1.3.6-2.4 13.4q-.7 3-4.2 6.4zM68 57.6l-4.6-.1q-1.1-.3-2-.8-1.7-1.2-2.3-2.4-1.6-3-1.9-4.4l.5-.2q1.5 3.6 2.2 4.7 1 1.6 4 1.4 1.6-.1 3-1l.3-.1q.6 1 .8 2.9m24.8 56.3.7 1.6q-4.9 1.6-6.5 1.7l-1.7.3-2.2-.1-3 .4q-2 0-2.2-1.8l-.3-1.7q.5.5.8.5l.3-.1 3.1.3 8.9-.8z"/><path fill="#766838" d="m38.3 124.4-2.4-1.3-.4-.1q-1-.5-2.3-1.7H33l-1.4-.7v-1l.3.1.1.1.1.1q.9.6 5.5 1.8l1.4.2 1.8 1.8 2.7 2.5q1.2 1.4 1.5 3.1l.4.4v.2q.2-.4.8-.5l-1-1.3.8-.9.1-.2 1.6 3.5q.9 2.2 1.2 3.4v2.3q-.2 4.7-1.8 8.8l-1 2.3q1.8-9.3 1-8.6-1.2-6.4-3.5-10-1.4-2.8-2.2-3.3t-3.1-1"/><path fill="#f8ebc0" d="m25.5 105.2 3.2-2.3.5.1q1 4.3 5.5 7.5v.1l-.5.4.5.9-.5.3-2.5-2.6q-2.4-3-3-5.2l-.2.1-2.4 1.7-.4-.5zm12 7 .3.1v.1l-.2.1zM20.7 71.7q-4-4.5-6.4-11.7l1.4-.6.3.8q-.8.3-.8.7 0 1.1 2.5 5.5l3.1 4.8zm13.1-.9q1.9-.6 3.6-2.2l.8-7.6q-.2-2.2-1.3-5.6L35.6 52l.5-.2h.1q2.3 2.8 2.3 8.3l-.1 3.1-.2 2.6q0 1.9-.5 2.5l-1.7 2q-1 .5-2.3.4m-3.3-19.4-.8-.6q-1.4-1.3-1.5-2.3t1.6-1.7l.6.7v.1l-1.1 1.3 1 2zm4.5-1.9V49q0-.7-.9-2.3-1-1.7-1.7-1.9l.8-.9 1.2 1.8q1.3 2 1.4 2.7 0 .4-.9 1m2.7-16.5q-3-5-6-7.2-5.4-3.9-5.9-9.8-.4-3.7-2.4-7.2l-3.9-5.3 1.6-1.6q2.5 2.6 3.9 7.6 1.1 6 1.8 8.4.6 2.3 2.4 4.2l3.5 2.8q2.6 1.9 3.9 4.1.6 1.2 1 2.5zM25 6.6q.3-.8 2.4-2.5l1 .7Q26 7.3 26 8.6l-.2-.1-.3-.2zm16.5 7.8q.3-1.6.2-3.3-.2-1.8-1.2-3.2-.7-1.3-1.4-1.3l-2.6-.5L38 3.8l2.5 3.6q1.5 2.5 1.8 5l-.1 1.4-.3.4zm14.4 29q-5.2-3.9-5.5-7.7l1-1.2q1.4 2.8 2.7 4.3l1 2.6zm5.1-11-.2-1.6q-.7-7.6 4.8-15.1 1.8-2.6 3.8-4.5 1.7-1.6 1.8-1.3 0 .4 1 .5h1.3q-6 3.3-8.6 8.6-.8 1.7-1.3 3.6l-.3 1.8q-.4 1.8-.4 4.6l.1 6.2-1.5-1.3-.3-.3zm34 78.5 1.3-.5q8.4-4 8-5.4h.1l1 .7.5.3q-.8 1-3.5 2.8l-5.2 3.2q-.8-.8-2.1-1m7.6-11.5q-.2-2.6.8-4.2l2.9-3.9.7.6q-1.6.7-2.8 3.4zm13.8-.5q2.4-1.9 4.9-5.5 4.8-7.2 3.3-12h.8l-.1 1.8q0 4.5-2.6 8.8l-4 5.5-1.2.9-1.2.9zm8.6-21.3q.4-2.5 1.5-3.1l.8-.3q.5.3.5 1.2l-.6 3.1h-.2l-.7-.4h-.9zM0 26.6"/><path fill="#c9bf8b" d="m34.7 110.5-.2-.8.9-.4.1 1.3 1.5 1.3-.5-1.4.5-.1.5 1.7v.3h.5l.7.2q2.2.8 4.2.4l-.2-.3 1.5-.3 1.8 3.4-1.3.2-4.6-.6q-3.7-.7-4.6-1.3l.5-.7-1.2-.7-.6-.5.5-.3.1-.1.9.4-1-1z"/><path fill="#8e8557" d="m41.9 107.5-.2-.5-.8-1.6-.3-.8-1.1-2.8-1.2-3.7-.1-.1-.5-1.7-.1-.7v.1q1 .9 2.5 1.2l.8.1 1.6 7.2 1.3-.1q.4 2.8.9 4.2-1.7 0-2.9-.9m-5.6-20V85l1.3.9 3.7.4 1-.2.1.8.3 1v.2l-.1.1q-.7.3-1.3.3-2.2.2-3.7-.5h-.3l-.2-.2z"/><path fill="#a49968" d="m37.7 95.7-.4-1.5h.1l-.2-.9-.5-2.3v.1l-.1-.2-.4-3.6.8.5.2.1.3.1.3 4q.7 4.2 2.3 4.3v.6q-1.4-.3-2.4-1.2M36.2 85l.3-5.2.3-2 .3-1.3.9.3q-.5 4.8-.5 7.7v1.4z"/><path fill="#d1ca9c" d="M37.3 94.2h.1zm-6.4-17-1.7-.3-.1.1-1-.3-1-.4-.9-.4-1.2-.8-.1.1-1.3-1v-.1l-.5-.2-1-.9-1.2-1.2-.2-.2.1-.4q6.3 4.7 10.2 5v.3zm11.5-33.8q-1.1-3.1-2.9-6.7L37.7 33l-.1-.1-.1-1.5 5.6 12h-.2zM32.5 22q1.3.6 2.7.5 3-.1 5-4 1-2 1.3-4l.4-.2-.4 3.2-1 1.4-1.3 2.5q-2.5 2.1-3.7 2.1-.6 0-2.3-1zm10.7-8.5L47 11l.3.5-3.6 2.4zm25 56.5-.3-.2-.3-.1.2-.8q1.1-4 1-7.4l-.2-2.3-.3-1.1-.1-.3q-.2-2-.9-2.9l-.2.1-1.2-1.3h.2l.4-.2-.4.1-.2-.7q-.8-2.7-3-5.4l.2-.1H63l-.2-.1-4-5.5-.2-.3h-.1q-1.1-2.2-5.4-8-1.7-3-2.4-5.3h.8L51 27l.8-.2q1.1 4.7 3.3 7.4l8.5 10.9q2 2.8 3.9 7.8t1.9 7.8v1q0 3.3-.5 6.1zm-6.9-13.2q-3.3-1.7-5-6.3l.9-.5q.2 1.3 1.8 4.4.5 1.2 2.3 2.4m-11-34.6q.4-2.7 1.3-5.7l2.1-8.1 1.4-.2-.7 1.5-1.9 4.4-.4 2.9q-.4 4.6-1.4 5.3l-.1-.1zm18.3-3 1.6.5 2.1.5q.7 0 1.5.5h.3l.3-.2q1.1-.4 3.5-2 3.3-2.2 4-2.3h.5l.3.6-9.2 4.7-.5.4-5.3-1.4-.4.1-1.3-.1 1.5-1.5zm16.1-8 .5-4.4-.3-2.1q-.3-.8-1.7-2.3l1.5-1.1q1 1 1 4l-.2 3.3-.3 2.1zM.1 26.6H0m36.2 25.2.3-.3q2.9 4.2 3.5 10.9v.4l.1.8v.7l-.2.7-.4 1.1q-1.2 3.3-3.5 4.3l1.7-2q.5-.7.5-2.6l.1-2.6.2-3.1q0-5.5-2.3-8.3m-10.1 54.4 2.4-1.7.2-.1q.6 2.1 3 5.2l2.5 2.6-.5.3.2.3-.4.8-.7-1-.6.5H32l.3.4.2.3-.3.6q-3-3-6.1-8.2m8.6 5.7-.5-.9.5-.4v.5l1 1.1-.9-.4z"/><path fill="#847540" d="M37.1 76.5v-.2l.2-.9h-.1l-.1-.3 1-2.4-.4.5h-.2l-.2.2q-1.8 1.3-4.3 1.5-5.6.4-11-5.2-4-4.3-6-9.5l-.3-.8.7-.3q.7 4.3 6 9.6 5.4 5.4 9.3 5.4l4.6-.6q1.3-.4 2.4-2.3l.8.1q0 1.4-1 2.2l.9.6 3.9-10.4.3.4.7 1.3v.1q-2.9 7.1-2.6 14.2v.5q1.1-.6 2-1.7 1-1.2 1.3-2.4-.2 3.7.4 7.6v.1q-1.1 1.8-3.2 2.3-.6-2.2-.7-4.8v-1q-1.2-2.5-3.5-3.5zm-1.3-31.9q2 2.6 3.6 6.2l.8 2-1.2.7q-1.4-3.8-4-8.1zm4.4 18.1.1-1.9q0-1.7-.3-3.6.6 2.2.6 4.7 0 .3-.4.8"/><path fill="#665a31" d="m16.4 59.1 1.2-.6q2 4.6 5.5 8.3l2.1 1.8.2.1.1.2v.1l.6.6.4.3 1.5.8q1.3.4 2.8.4V71H32l1.7-.3q1.3.1 2.3-.4 2.3-.9 3.5-4.2L40 65l.2-.7v-.7l.1-.9q.4-.5.4-.8 0-2.5-.6-4.7l-.1-.1-1-3.6 1.3-.7q1.4 4.1 1.6 7.8l.2 2.2.4-.2v-.1l.8 1 .1.2-4 10.4-.8-.6q1-.8 1-2.2h-.8q-1.1 1.8-2.4 2.2l-4.6.6q-3.9 0-9.3-5.4-5.3-5.3-6-9.6m30 29.1.8 2.3.3 1 .2.4.7 1.6 1.1 2.2 1.1 2 .2.1.4 2q.1 2.5-1.2 5l-.2-.2-2.6-3.4q-1-1.2-2.3-4.8l-.1-.3-.2-.7q.9-1.4 1.6-4v-.2zM57 102.3q1.1-.2 2.1-.8 2.3 1 4.2 3.9l1 1.8-2.2 1.9-.4.2-.6-1.6q-1.9-3.7-4-5.3zm2.6 7.7.6 3q.4 3.9-2.5 9.5-3.1 5.6-5.5 5.8h-.7l-.4-.1-.7-.4-1-3.6-.2-1.7-.2-1.9q1 1.1 1.4 1.1 3.8 0 5.3-4.3 1.2-3.7 1.2-4.3 0-.8-.6-3l.8.1h1l1-.2z"/><path fill="#8b7b43" d="m35.6 52-.7-1.5q-.8 1.2-2.7 1.3-.8.1-1.8-.5l-.2-.5-1-2 1.2-1.3.6.9q1.3 1.5 2.5 1.5l1-.3q.3 0 .4-.2.8-.6.8-1-.1-.7-1.4-2.7L33.1 44l1.1-1.3 1.6 2-.8.8q2.6 4.3 4 8.1l.9 3.6v.1q.4 1.9.4 3.6l-.1 1.9-.1.9v-.8l-.1-.4q-.6-6.7-3.5-10.9l-.3.3h-.1zm10.2 33.6.7 2.6-.2 3-.1.1q-.7 2.7-1.6 4.1l-2.1-7.2h.1q1.4-.8 3.2-2.6m5 12.3 1.1 1.5.2.2.9 1 .3.4.5.7.7 1q.7.7.8 1.3l.5 4.5.1 1.3v.6q-1.4-.3-2.3-1.5-2.3-2.8-3.7-3.9v-.2q1.5-2.5 1.3-5zm10.1 12-1.2.4-2.6-7.8h.1q2.1 1.6 4 5.3l.6 1.6-.8.4z"/><path fill="#a89c6c" d="M43.1 60.4q1.4-5 1-10.1-.2-2-.9-4.4 2.5 4.2 2.5 7.8 0 6.2-2.3 7.5z"/><path fill="#786a3a" d="m27.2 7.8-.2.5q-.9 2.4-.7 3.6v.2l.3 1.7q.4 1.9 1.4 3.6l1.3 1.8L31 21q2.5 3.6 6.7 3.6h.5v-.4l1-2.9 1.3-2.5 1-1.4q2-2.4 6-5.7l.4.6v.1q-5.5 4.8-7 7.2v.1l-.5 1q-1.1 2.6-.8 6.3t5.5 12.8 5.3 13-3.7 14.7q-1.2 3.3-1.6 6.8v.7l-.1 1.1q-.3 1.2-1.3 2.4t-2 1.7v-.5q-.3-7 2.5-14.2l.1-.1 2.2-5.7q.9-3.3.5-6.4-.3-4.7-4.6-13.9-4.4-9.1-4.5-11.3v-.2q-6.6-4.6-7.8-6.1-1.6-2.2-2.6-4.1l-.3.1q-.4-.7-1-3.4l-.6-3.3q0-1.5 1.6-3.3m12.5-4.2Q42.6 7 43 10.8V12q-.5-2.3-2.2-4.9L39 4.6zm22 95.4.6-1 .2-.3 1-.2q1 0 1.7.8l.5.9q3-4.8 5.9-12.4l-.9-.2 1.6-9.5q1.2-.6 2.1-6.1l.1-.7 3-.6-.2 1-2.5 10.1-.2.8-2 7.5q-1.5 5.8-3.1 9.6-1.2 3.1-2.7 5.3l-.1-.3q-2-3.4-5-4.8m-4-90-1.6 3.5-1.5.4q0 2.6-1 6.9 0 5.2 5.2 12.6l.4.3q1.3 2 9 9 2 2.3 2.8 4.2l1.3 3.5q.6 1.5.9 4l1.5 8.9.1.3v.1H74l-2.2-.2.2-.9q-.5-5.3-2.8-12.2L69 49q-2.5-5.3-8.2-11.5-3.5-3.7-5.1-6.7-1.4-2.5-2.2-6.4l-.2-.5-.5-3.3q-.3-3.6.4-6.3.4-2 1.8-4.7zm27 25.9 1 1 .3.5zm-6.8 13.1h.4q3-.4 5.9-4.3l1.2-1.8q1.1-1.9 1.3-3.4l.1.3q.4 4.5-3.3 7.8-2.6 2.3-6.1 3.2zm-3.1 14.7"/><path fill="#6a5e33" d="m45.4 83.8.4 1.8q-1.7 1.8-3.2 2.5V88l-.3-1-.1-.8q2-.5 3.2-2.3"/><path fill="#564d29" d="m53.8 101.7 1.4.5 1.9.2 2.6 7.7-.5.1-1 .2h-1l-.9-.2q.7 2.3.7 3.1 0 .6-1.2 4.3-1.5 4.3-5.3 4.3-.3 0-1.5-1v-.8q1.1.7 2.6.6h.3q2.2-.5 3.3-5 .6-2.9.7-5.3v-.6l-.1-1.3-.5-4.5q-.1-.6-.8-1.3zm5.9 8.5 1.2-.5.8 3.8q0 12.3-8.4 18.3l-.6-1.3-1.1-2h.7q2.4-.2 5.5-5.8 2.9-5.6 2.6-9.5z"/><path fill="#4b4223" d="m74.1 97-.5 3.3-.4.7q-.7 1.5-.5 3l.3 2.2q.5 2.3 1.5 3.9l.2.3 1.1 1.3.3.2-1.2.2q-2 0-3.4-2-1.2-1.9-1.2-4.2l.1-.9v-.4q.4-1.5 1.4-3.1l1.4-2.4zm34.1-4.2 1 .9-1 2.3q-.4 1.3-.3 2.6.2 2 2.5 2.4h.5q1 .8 2.7.8l3 .4 2.1 1.5.5.5.7 1.4-2.5 2.3-.3-1.6q-.4-1-1.3-1.4l-.4-.2h-.1l-3.1-.6q-5.3-.8-5.3-6.9 0-1.6 1.3-4.4m-43.6 14.3q1.2-1.3 2.3-3.2 2 3.4 2.4 7.5.2 3.2-1.7 11.3-1.8 8-2.5 8l-1.5-1.5v-.2l2.3-7.5q1-3.9.8-6.9-.3-4.1-2.1-7.5"/><path fill="#968b49" d="m70.4 70.4-.9-.1-.5-.2-.7-.4.7-1.9q.5-2.8.5-6.2 1.4.7 2.3.7z"/><path fill="#6f6235" d="m58.2 49.4 1.5-.8q1.1 5.4 6.1 4.8v.1q-1.1.9-2.3.9-1 0-2-.6l-1-.5q-.4 0-1.3-1.8zm16.6 13.1h.1l2.9-.4v7.4l-.2.1-3.1.6h-.3z"/><path fill="#4b4323" d="m85.1 34.5.6-.4h.1q3 1.6 3.5 6.1.3 3.6-5.9 8.6l-3.2 2.8-.4.7V54l-1.8-.6-.5-.2q-.5 0-1.1-.3v-.3q0-.5 5.6-3.5 5.7-4 5.7-9.8 0-1-.8-2.6-.7-1.6-1.8-2.2"/><path fill="#655930" d="m80.3 51.6 1.8 7.2-.8 1q-.3-4.4-1.5-7v-.5zm-2 10.4v-.4l-1.5-5.5-.7-2.3-.5-1.5.4.3.4.3q.6.3 1 .3l.6.2q1 2.2 1.9 7.6v.1l-1 .6z"/><path fill="#433b1f" d="m82.1 58.9.2 1.3q.3 3.3 0 7.3-1.3 1-3 1.6l-1.5.5v-7.4l.5-.2.5-.3 1-.6h.1l1.3-1.3h.1z"/><path fill="#f4e09b" d="m91.1 112.5 4-1.5q1.4.3 2.2 1.1l-1 .5q-1.4.9-3.5 1.3-.6-1-1.7-1.5"/><path fill="#716335" d="m98.3 113.8.4 1.7.1 1.7.1.4v1.1q-3 1-5.6 1.4.6-1.6.5-3.1l-.3-1.5z"/><path fill="#f2db8a" d="m97.3 112.1.4.5.5 1.2-4.7 1.7-.7-1.6q2.1-.4 3.5-1.3z"/><path fill="#776939" d="M45 108.3q3.1-.3 4.9-3.3 1.4 1.1 3.7 3.9.9 1.2 2.3 1.5 0 2.4-.7 5.2-1.1 4.6-3.3 5.1l-4-4-2.5-7.1z"/><path fill="#6d6643" d="m31.2 117.2 1.6 1.7-.5.7-1.3-2.2z"/><path fill="none" stroke="#000" stroke-linecap="round" stroke-linejoin="round" stroke-opacity=".3" stroke-width="1" d="m157.2 69.4.4-1.2.6-4.2.3-3.9q-.4-3.4-2-4.7l1.5-.6.5-.2.4-.1.9 5q.3 3.9 0 5.9l-.2.8-.2.5.4-.2 2.3-2.2q1.7-2 2.3-4.2 1-3.2.4-9.4-.2-1.2-1.3-4.4l1.5-.2m.9-.2 1-.1.3.8.8 3.4-.4 3.7v.2q-.2 3-1 5.6v.1q-.7 2-1.7 3.7l-4.8 7q-3.6 4.8-11.5 10-8 5-12.7 5.5l-5.8.4m-.2.6q-1.6 7.2-3.7 11-2 3.2-4.3 5.8l-2 2.2-2.3 2.4-.3.3-.1.1q-5.4 5.4-9.4 7.5-1 .6-6.9 2.8l-2.2.7-6 1.9-7 1.7q-17.4 3.3-15.7 21.4 1.3 13.6 12.8 20.2m-49-.5-.1-.1q3.6-2 6.2-4.9l1.3-1.7.8-1q1.3-2 2.2-4.5.5-1.3.8-2.8 1-4 .8-8.7-.3-9.7-3.4-12.9l-.8-.8q-1.6-1.5-3.4-2.6l-2.4-1.2-.3-.1q-1-.5-2.3-1.7m-.2 0-1.4-.7v-1l-.1-.1-3-4-3-4.6-.2-.5q-1.3-2.2-1.3-3.2-.1-.8 1.5-2l3.2-2.3.5.1q1 4.3 5.5 7.5l-.2-.8.9-.4.1 1.3 1.5 1.3-.5-1.4.5-.1.5 1.7m.3.3h.2l.7.2q2.2.8 4.2.4l-.2-.3 1.5-.3m-6.8-18.3-.2-.7-.5-2.4v.1l-.1-.2-.4-3.6V85l.3-5.2.3-2 .3-1.3m0-1-.9.4-1 .5q-1.4.6-2.7.7h-1.6l-1.7-.2-.1.1-1-.3-1-.4-.9-.4-1.2-.8-.1.1-1.3-1v-.1l-.5-.2-1-.9-1.2-1.2-.2-.2q-4-4.4-6.4-11.6l1.4-.6m.7-.3 1.2-.6q2 4.6 5.5 8.3l2.1 1.8.2.1.1.2v.1l.6.6.4.3 1.5.8q1.3.4 2.8.4V71H32l1.7-.3q1.9-.6 3.6-2.2l.8-7.6q-.2-2.2-1.3-5.6L35.6 52m0 0-.7-1.5q-.8 1.2-2.7 1.3-.8.1-1.8-.5l-.8-.6q-1.4-1.3-1.5-2.3t1.6-1.7l.6.7v.1l.7.9q1.3 1.5 2.5 1.5l1-.3q.3 0 .4-.2V49q0-.7-.9-2.3-1-1.7-1.7-1.9l.8-.9 1.1-1.3 1.6 2q2 2.6 3.6 6.2l.8 2q1.4 4.1 1.6 7.8l.2 2.2.4-.2v-.1l.7-2.1q1.4-5 1-10.1-.2-2-.9-4.4l-.8-2.6h0q-1.1-3.1-2.9-6.7L37.7 33l-.1-.1q-3-5-6-7.2-5.4-3.9-5.9-9.8-.4-3.7-2.4-7.2l-3.9-5.3L21 1.8l.7-.5L23.3 4 25 7v-.3q.3-.8 2.4-2.5l1 .7.4.1-1.4 2.3-.2.6-.2.5q-.9 2.4-.7 3.6v.2l.3 1.7q.4 1.9 1.4 3.6l1.3 1.8L31 21l1.5 1q1.3.5 2.7.4 3-.1 5-4 1-2 1.3-4 .3-1.6.2-3.3-.2-1.8-1.2-3.2-.7-1.3-1.4-1.3l-2.6-.5L38 3.8l.8-1.1.9 1q2.9 3.2 3.3 7V13l-.2.8.4-.3L47 11l.3.5m.2.3.4.6v.1q-5.5 4.8-7 7.2v.1l-.5 1q-1.1 2.6-.8 6.3t5.5 12.8 5.3 13-3.7 14.7q-1.2 3.3-1.6 6.8v.7l-.1 1.1q-.2 3.7.4 7.6v.1h0l.4 1.8.7 2.6.7 2.3.3 1 .2.4.7 1.6 1.1 2.2 1.1 2 .2.1m17.5-28H68l-.3-.2-.3-.1.2-.8q1.1-4 1-7.4l-.2-2.3-.3-1.1-.1-.3h0l-4.7-.1q-1.1-.3-2-.8-3.3-1.7-5-6.3l.9-.5m.4-.2.5-.3 1.5-.8q1.1 5.4 6.1 4.8h.2m0 0-.2-.7q-.8-2.7-3-5.4l.2-.1h-.1l-.2-.1q-2.5-.8-6.1-3.3l-.7-.5q-5.2-3.8-5.5-7.6l1-1.2.5-.4 1.1-.9q-1.7-3-2.4-5.2h0l-.4-2.2.2-3.4v-.3q.4-2.7 1.3-5.7l2.1-8.1 1.4-.2.4-.1h.1l2.7-.7-.6 1.4-.1.2-1.6 3.5-.4.7q-.3 0-.2 6.3.3 3.7 2.4 8.2 1.3 2.6 2.5 4.1m.7.8-.2-1.6q-.7-7.6 4.8-15.1 1.8-2.6 3.8-4.5 1.7-1.6 1.8-1.3 0 .4 1 .5h1.3l.3-.2.5.8q-1.7 1-3.9 4.2-1.7 2.4-2.1 3.7l.3.1 1.6.5 2.1.5q.7 0 1.5.5h.3l.3-.2q1.1-.4 3.5-2 3.3-2.2 4-2.3h.5q1.7-.7 2.3-5l.5-4.4-.3-2.1q-.3-.8-1.7-2.3l1.5-1.1m.7-.4 1.1-.3.9 1.6q.5 1 .7 2.7v3q-.5 4.6-3.5 9.2-4.5 6.8-11.2 7.2-.7 0-5.7-1.4l-.2-.1-.1.7q-.5 1-.4 2.2.4 5 4.6 11l3 4.4q2.3 3.5 3.1 5.5m.5 0q2.4-.3 4.8-2.3 1.3-1.2 2-2.4t.5-2.5q-.2-1.8-2-4l1-.5m.4-.3.6-.4h.1q3 1.6 3.5 6.1.3 3.6-5.9 8.6L80 51.7l1.9 7.2.2 1.4q.3 3.3 0 7.3l-.7 5.6-1.4 7.3-.2.6v.3l-.1.1-.1.4-2.2 7.1-.1.2-2.4 6.1-.8 1.4-.2.4-.5 3.3-.4.7q-.7 1.5-.5 3l.3 2.2q.5 2.3 1.5 3.9l.2.3 1.1 1.3.3.2m.5.3q2.7 1.6 7.9 1.3 3.5-.3 6.6-1l4-1.5 1.3-.5q8.4-4 8-5.4h.1v-.2q-1.3-2.3-1.6-5v-.2h0q-.3-2.7.7-4.3l2.9-3.9.7.6m.3.3.4.3.2.2 1 .9-1 2.3q-.4 1.3-.3 2.6.2 2 2.5 2.4h1.7q2.3-.2 4.7-2t4.9-5.5q4.8-7.2 3.3-12-2.4 0-6.2-5.2l-.8-1.1-.2-.3v.1m-1.3-2.7-.2-.2-1-2.5-.4-.9-.3-1.2v-.1l-.2-1-.4-2.2q-.3-3.4.7-5.8v-.2l.9.1.3.1h.2l1.1-.2q-1 2.6-.6 8l.3 1.5.1.6.8 2.2q.5 2.3 1.1 2.3h.2v.1l.8 1.1.4.5.8 1q2 2.3 3.7 2.6h.3m.3-.4q.4-2.5 1.5-3.1l.8-.3 1.2.3.8.5 1.3 1 .3.2.3.4q.7 1.1.9 3.4l-.2 1.2h.6l1.6.2h.7q7.4-.5 13.3-4.3l4.2-3.2 3-2.7 1.6-2"/><path fill="none" stroke="#000" stroke-linecap="round" stroke-linejoin="round" stroke-opacity=".3" stroke-width="__RESOLUTION__" d="M74.8 62.6v-.4m-.6 8.1.2.7" vector-effect="non-scaling-stroke"/><path fill="none" stroke="#6f0" stroke-linecap="round" stroke-linejoin="round" stroke-width="__RESOLUTION__" d="m34 112.9-.1-.1" vector-effect="non-scaling-stroke"/></g><use xlink:href="#s" id="F" width="23.5" height="18.4"/><use xlink:href="#t" id="E" width="23.5" height="18.4"/><use xlink:href="#u" id="D" width="23.5" height="18.4"/><use xlink:href="#v" id="C" width="24.1" height="33.4"/><use xlink:href="#w" id="B" width="68.3" height="96.7"/><use xlink:href="#x" id="A" width="78.5" height="96.7"/><clipPath id="y"><path d="M1 1h193v181H1z"/></clipPath><path id="G" fill="none" stroke="#000" stroke-linecap="round" stroke-linejoin="round" stroke-opacity=".3" stroke-width="__RESOLUTION__" d="m106.9-114.1 1.1 4.5h.5l-.2 5.1m-43.5-41.8 1.3 3h0l3.6-5.5 3.6-1M14-138l1.7.4 5.5-2.6-.4-1.6m-11.4 4-2.6-.4-.7 3.9h2m-2 0v.1l1.3 7.6m0-7.7.3 2.7 1.2 2.6m-4-5.9 1.3.6m5.2 13.8-.6 2.8-2.2 2.1 1.3 3.2m-6.4-11 1.4 1.4.7-.7-4.4-5m2 12.2 2.4.5 2.8-.5.1-.1-4.5-5.7.9-.7M9-105.4l-2.4.4-.5 2.2m4.4-1.5-.7-1.4 2.6-.8.1.9.2.4 2.5-.3-.8-4.3 2.4-.7.7 1.8 3.8 1.8v-.1l.8-2.4-.1-2.3-.4.3m-6.4 5.9v.3m-1.4 4.4-1.1-4.4h-.1l-.1-.4m8.8-1.4.9 3.4m-.2-8.1 4.9-3.6 1.3-3m38-25-1.4 5.2M50-118.2l-.2.3.9.7 3.4-7.7v-6.2m-15 8.4 3 5.7 1.1 4m2.9-1 3.7-4m13.3 33.8L63-83l3.3 2.5 3.5.6.2-.9M63-83l-1.1.2m1-.2-.5-.5-3.1-4.1-.3-1.5m7.1 10 2.8.5.9-1v-.3m.8 1.5-.6 1.3.6 1.2 4-.4.5-1.4m-4.5 1.8.1.2 1.2 1.7m3.1-1-.5-1.3 3.3.3 7.4-2.7M71-85l1.2 1 .3 3-.5 1.8M17.3-66l12.6-10.5 3.4-.9 5.4 2 8-.7 8.3-5.3m2.2-20.4-.6 4.3h.6l.9 5.5M45.7-60l1.2.5 1.9-.8-.7-2.9 2-4.5m-.6 7.5-.4 1.2h0l4 3.1 1-3m-5.3-1.4.4 1.3m0 0-.1.1-1.7 1.1-1.3-.1M44-51.7l.9.6-1.3.9 1 1.4 4.3-2.9.9 1.3.4-.3m-.5.3-1.2.9 1 2.3-1.3.7m7.4-12.9-.9 3.4-1.6 1m-3.9.8 3.8-1.6m7.6-.6 3.6-4.6 1.2-2.9 2.3-2.3-1.2-.5-2.2 2.4-.2.2h-.2L61.8-62m2.1-2.2-1.2-.3m1.6.2-.4.1M37.5-79.6l-.5-3.1 2.4-4.1 2.6-4.7-3.4-.4-3.6-3M7.8-87.7l.6.1-.6 2.3m-6 11L4.4-78m9.7-5.6-.5 3.1 2.8.7 1.8 1.2 1.3 3m-19 17H2l2 2.4 1.9-1.3 2.3-3-.6-.7 2.4-4.2 3.4-8-.9-.3 1.2-6.8-2.7 1m4.7-3.7 1.7-.1 2.1.9M4.2-62.7l2 .2m1.9 2 .5 1.3m1 15.2-.1-5.4-1-3.9-.7 1-1.1.1.4.7 1.2 5.8-.2 3.9-2.5 9.2.6.2 2.6-8.7 1 .3.7 1.5m-6.6-17 1 1.3 1.8 2.8m-8-5.9L.2-57 3-52.5m11.8-.9-.4 1.3-1.2 1 .4 1.8m.6-15.2-2 5.9-.1 3.5.7 2.8.8-.6.8-2m-2.6 3.1 1-.6.3 1.3m-14-16.6.2 3.5 4.5-5.1 4-7.9m21.3 34 2.3-.5 1.6-.4v-.1l-1.7-1.4h-2.1l-5.4.1-.9-.3m8 3.3h.6l-.1-1.2m0 1.2 1.3-.1h.3m-.4 0-.2 2.5-1.5.1-.7 1-1.5.3-1 1.2m7.3-7.6.6 1.9-.4 2.7m-6-5.1-1.6-1.5-3.1.2m-13-2.5.9 6.4-.3 4.6.8 1.2 1.8-.4 1.4 1 .3 2m2.5-5.2.9.1 1.2 2.5-1 2.2m-1.6-6.1.6-2.5-.4-2.6-1.6-2.7M7.3-26.2l-.1-.5 1.7-4.7 3-3.6.1-2.1.1-1.3m-6.6 10-.4-2.5.5-1.7M.4-40.2l-.8 2.6-.2.1 1.3.5.3 1.5m11-1.6.7.9 1.4-.2.6.4.3 1m-3.4 6.3-1.4 4.1-.7 5.6h0l1 .4.8 1.9M9.4-19l-.2 2.4.2 3.2m-2.9-5.1 1.3-.8 1.7.1M.8-9v.9L2.1-.5h1l1.6-1-1.7-9 1.3-11.7L5.7-24M1.9 1h.5L2-.4h-.5m37.8-86.4 1.4.8-1.4 2.3M99-91.2l1.3-1.3.5-3.8-.1-3.1m-8.9 16.1 5.8-4.5m2.6-4.7 1.3-1.3M5.5 3.8 5 .1 3.9.9H2.4l.6 5M1 1.4.8-8.2M5 .2l-.3-1.7M-.5-151.3l-2.6.6-2.3 6.6 1.6 9.4v.3l1.5-1.2m-31-17.9.5 1.7M-49.2-132l-1.4 3.6.6.2.4.8m-7.2 8.5.8-3.3 3-2.5 2.4-3.7m-29.8 9 1-.8 1-.2 1 1m13.7 16.5 3 .6.9 2.8m47-46.3-.3-.8-2.6 1.8m2.4-2.2.2.3m-2.1-.6-.9 1.9m-1.5 18.6-1.4-3.5-.7.3.5 2.1m-.9-2 .4-.1-.7-2.2-.9-2-.4.6m17.8-1.1-2.8.1m-14.6.4 1.2-1.5.3-2.7m-2.8.4.9.7.2 1.3-1.4 1.7m-.1 1.2-1.4.2M-36-112.1l-1.2.3m-1.8-10.1 2.5.1.9 1.3m29.7-6.4 1.8 3.7h.2l.9-.6m1.2 1.6-2.1-1-.6 1 .8 2.5m-11.2.5-.8-1.8 1.7-1m.5 6.2-.8.3.7 2.5m-2.4-4 1.2-.1.5 1.5m4.1 4.1.7 4.5-.8 4.9-1.5 3.9 1.6-.6m-7.9 16.3-.1 1.5 3-.3-.1-6 3.5-10.9-1.6-1m-.1 17-1.7 1.9v-1M-38.1-94l-1.1-1.9-1.3 1 .9 1.2-1.1.3m8.3 15.4.3-2.5-.7-1m1.4-6.7 4 2 4-.3m-12.9 4.7 1.1.6 3.4-3.2M-21-65l-5.5-4.2-10.7-4.5-.4.7-9.2-6 .8-.8m9.1 5.5-.3.6m-13.7-7.1 3.8 3.6-1.1 1.4-.1 1.3 1.5 1.5 7.2 4-.5 1.5m6.6 7.2 1.9-1.7.5-3.2-.2-.3-4.2 2.6-10.3 2m13.6-5.9.9 1.3 4.4 3.2 4.2 3m-4.1-3 .6 2.9 2.5 1.4M-9-64.5l8.3.3M-17-70.4l-.2-1.5-1.3.3m1-2.4.3 2.1 1.7-.3h.2l-.5-2.2m3.2-.3-2.7 2.5.4 1.9 2 4 2 2.9.1.2m-.1-.2-1.2 1 5.5 7.8.3-.5 1.8 2 .4-.8-.2-2.6-2.3-2.4.1-1.4-.7-1.7m-10.4 7 .8-.5.5 1 .9-.2-.5-1.8h.3l-1.8-6.6m2.2 8.3-.2.1.2.9m-.4-2.7 2.1-.2.4 1.9h.9l.7-.7 5 9.6-1.1 1.3 1 2.1 1.5 1.7.6 1.1 1 1 .5 2.2.1 2.4 2.3-3.4-.2-.1m-5.8-17.1-.7 1 2.8 2.9.1 1.4-.6 1.1m-52.2-43.6-1 .1-.7 1.2m7 5.6-1.4.7m1.1 8.6 1-1.7 3 2.9-.1.5m-17.4-3.4.8 4.8 2.5 4.1m54.8 23.9-.5-1m.8 6.7-.4 1.4.6 4.1 1 1.4h0l1.4-.5M-21.3-48l3.3 1.5 3.3-.2-.3 1-.8 1.2 2.8.3v-.1l.5-.8m-7 0 3.7.6m-2.5 1.5 2.9 2.4 3.8 1-.4-1.5-1-1.3v-1.8m1.4 4.6.6.2m-5.9 1 1.7 1.4 1.2.8.2-1.2 2.3-1.7-.1-.5m-2.5 3.4 1.8 1.2m-1.8-.9v-.4m3.6 7.2-.3-.9-1.3-3.1-.7.6M-25-39.6l5.7 1.3 3.1 3 1-1.7m-1 1.7 1.1 1m5 15.3v-7.6l-.9.3-1.7-4.2M-3-11.6l1.4-.2L-.4-23l-.5-4-1.8-3 .3-2.1-.5-2v-.1M-13-6.6l1.8-2.6 1.5-3.3 1.7.3 2-5.1 1-5.7-1-1.2-.3-1.4.4-2.1-.2-1 .5-1.7-.4-1.3-.2-.2h0l-1.8-.5m2 .4-.2.1m-4.7 1.9 1-.7m-15.8-11.1 1.1 1 .8-.5m-1.1.7.3-.2m.3-4.3 1.6 1.1m-1.4-3.3 2.2 1.9 1.1.3m6.7 36.6 2.8-3.9.8-2.2.8.4.8-3.3m1 11.6v-1.3l3.3-8.5.5-.5m2.6 14.5.9-9.9-1.1-.2m-8 11.7h1.2V0l2.8-5.9 1.2.3.9-3.3M-8-12.2l-3 7.7-8 8.4M-38.8-99.4l-1.8 1 1.5 2.5M-8.4 0l1 1.6" transform="translate(80.45 153.5)" vector-effect="non-scaling-stroke"/></defs><g clip-path="url(#y)"><g transform="translate(83.45 161.45)"><use xlink:href="#z" width="168.5" height="178.3" transform="translate(-58.35 -160.45)"/><use xlink:href="#A" width="78.5" height="96.7" transform="translate(14.8 -156.45)"/><use xlink:href="#B" width="68.3" height="96.7" transform="translate(-82.45 -143.9)"/><use xlink:href="#C" width="24.1" height="33.4" transform="translate(-11.7 -91.45)"/><use xlink:href="#D" width="23.5" height="18.4" transform="rotate(-10.807 -49.644 180.897)scale(.9994)"/><use xlink:href="#E" width="23.5" height="18.4" transform="matrix(.955 .688 -.5556 1.3204 12.5 -23.75)"/><use xlink:href="#F" width="23.5" height="18.4" transform="rotate(-16.09 -5.743 62.332)scale(1.3989)"/><use xlink:href="#G" width="188.9" height="159.3" transform="translate(-80.45 -153.5)"/></g></g></svg>