<svg xmlns="http://www.w3.org/2000/svg" xmlns:xlink="http://www.w3.org/1999/xlink" width="104" height="122" viewBox="0 0 104 122"><defs><g id="h"><path fill="#e8bc52" d="M.7 2.5 0 1.2.6 1l1.6 1L1.5.7.7 0l3.9 2.6Q3.9.3 3.2.2l.2-.1 2.8 3.2L7.5 6l1.6 1.2-2.3-3.4 6.8 8 3.5 4.8-6.3-5.4L7 7.9l-.3-.2-3.2-2.9-2-1.6zM6.3 5 2.7 2.7l4.4 3.8z"/><path fill="#edc567" d="m6.2 3.3.5.6 2.4 3.4-1.6-1.2zm0 1.7.9 1.5-4.4-3.7z"/><path fill="#e1ac17" d="m17.1 16.7 4.3 5.9h-.2l-3.5-3.4-4.5-4.5-4.9-5L7 8l-.3-.3-3.2-2.9 4.8 5L7 7.9l3.8 3.4zm-6.3-5.4 2.4 3.4z"/><path fill="#dea517" d="m8.3 9.8 4.9 4.9 4.9 6.1.6 3.3z"/><path fill="#d09015" d="m18 20.8-4.8-6.1 4.5 4.5z"/><path fill="none" stroke="#cf8814" stroke-linecap="round" stroke-linejoin="round" stroke-width="__RESOLUTION__" d="m21.2 22.7.6.7M.7 2.5l.8.7 2 1.6 4.8 5 4.9 4.9 4.5 4.5 3.4 3.4" vector-effect="non-scaling-stroke"/><path fill="none" stroke="#dea517" stroke-linecap="round" stroke-linejoin="round" stroke-width="__RESOLUTION__" d="m3.5 4.9 3.2 2.8.3.3 3.8 3.3 6.3 5.4M7 8l1.3 1.8L18.7 24m-5.5-9.5-2.4-3.3" vector-effect="non-scaling-stroke"/></g><g id="g"><path fill="#f1c84a" d="M.7 2.5 0 1.2.6 1l1.6 1L1.5.7.7 0l3.9 2.6Q3.9.3 3.2.2l.2-.1 2.8 3.2L7.5 6l1.6 1.2-2.3-3.4 6.8 8 3.5 4.8-6.3-5.4L7 7.9l-.3-.2-3.2-2.9-2-1.6zM6.3 5 2.7 2.7l4.4 3.8z"/><path fill="#f6d15f" d="m6.2 3.3.5.6 2.4 3.4-1.6-1.2zm0 1.7.9 1.5-4.4-3.7z"/><path fill="#eab80f" d="m17.1 16.7 4.3 5.9h-.2l-3.5-3.4-4.5-4.5-4.9-5L7 8l-.3-.3-3.2-2.9 4.8 5L7 7.9l3.8 3.4zm-6.3-5.4 2.4 3.4z"/><path fill="#e7b10f" d="m8.3 9.8 4.9 4.9 4.9 6.1.6 3.3z"/><path fill="#d99c0d" d="m18 20.8-4.8-6.1 4.5 4.5z"/><path fill="none" stroke="#d8940c" stroke-linecap="round" stroke-linejoin="round" stroke-width="__RESOLUTION__" d="m21.2 22.7.6.7M.7 2.5l.8.7 2 1.6 4.8 5 4.9 4.9 4.5 4.5 3.4 3.4" vector-effect="non-scaling-stroke"/><path fill="none" stroke="#e7b10f" stroke-linecap="round" stroke-linejoin="round" stroke-width="__RESOLUTION__" d="m3.5 4.9 3.2 2.8.3.3 3.8 3.3 6.3 5.4M7 8l1.3 1.8L18.7 24m-5.5-9.5-2.4-3.3" vector-effect="non-scaling-stroke"/></g><g id="f"><path fill="#473518" d="m40.3 27.2.7 3-5 4.2 4-7.5zm-2.4-3.5h.1l-7.2 6-.1-5.6.7-.6 3.3-.4h.1l1.7.3zm-1.2 2.5-6 10.5v-5.6zm-9.2 7.6v5h-.1l-.6.3-2.9-2.3zm-6.1 5 3.7 3.1-.4 1.4-8.7 4.4v.1l1-5.2zm6.1-11v4.6L23 36.2l-1.6-1.4-.7-.7.3-.7v-.2l4.1-5 .2-.3.8-.6 1.4-1zm-7 10.4-2.7 2.3 1.4-3.4z"/><path fill="#614921" d="m39.9 17.2.3 4.6-2.3 1.9-1.4-.3.3-.6 1.4-3zm-9.1 12.7-3.3 2.7v-4.8l.8-2.4 7.9-6.6 1.2-.9-2.1 4-.4.5-.2.7-3.3.4-.7.6v5.8m-7.5 6.3-2.5 2.1-.2-.1-1.2-1-1.6 3.3-4.4 3.8q-.7-.6-1.6-.6-2.1 0-4.7 1.7v.1l-2.4 1.6-.2-1.8 5.4-4.4.2-.2.8-.7h.1l1.7-1.5.5.1q1.2 0 5.2-2l1.6-1 1.6-.9 1.5 1.4zM10.5 46.7 5 51.2l-.2-2.4H5l1.5-1.1.6-.4q1.4-.7 2.6-.7zm27-45.3v1q-1.1.7-2.9 3l-1 1.3-3.8 4-4.9 4.5-2.8 2.3-3.4 2.6q-4.8 3.2-8.5 6.3l-3.7 3.4-.6.6q-2.4 2.3-3.7 3.3v-1.5l3.6-2.9 3.1-2.8.8-.7 6-4.7q4.6-3.8 6.4-6.5l.5-.8.2-.2 1.6-1.4-.3.8.2.2q1.1 0 6.8-5.7l2.5-2.9zm.1 2 .1 1.3-3.9 2.7 1-1.4zm.2 3.2v.7l-.5.5-17.5 14.5q.1-1.7 2.4-3.7l.6-.6 3-2.2 2.1-1.5 5.7-4.6 1.8-1.2zm1.1 4.1v.7l-.8.5-1.6 1.1-.7 1 .1.1.9-.3 2.2-1 .1 1.1-2.1 1-.3.1-5.2 4.4-.9.6-4.6 4q-1.7 1.4-3.8 2.7l-.4.2-6.5 4.4-6 5.1L6.4 39l-2.9 2.6v-1.9L6.2 37l1.5-1.5 6.2-5.4q3.8-2.9 8.1-5.6l.6-.4q4.7-2.9 7.6-5.4 1.9-1.7 3-3.2l3-2.8.9-.7zm-14.4 9.8.3-.1 7.9-6.6-2.9 3.5-.6.6Q24.5 22 22.6 22l1.5-1.3zm-2.6 8.6-10.1 8.4.3-.7-.3.6-8 6.7-.1-1.5q1.8-1.2 2.5-1.9l.4-.4 4.7-4.2 4.8-4.2q4-3 5.8-2.8m-.8 4.2-2.2 1.3q-1.9.9-2.4.9h-.1l8.8-7.5-4 5.1zM2.2 35l3.7-3 3.5-3 1.8-1.5Q17.7 22 18 22q.8 0 .7 1.3L2.3 36.8z"/><path fill="#ad833d" d="m38 23.7-1.3 2.5-6 5v-1.5zM5 51.2l-1.6-.8-.1-2 1.5.4zm-1.8-4.7L3 44.4l.5-.4.3.1 8-6.7.3-.6-.3.7 10-8.4 13.3-11 3.5-3 1.3.9-2.4 1.9-1.1 1h-.1l-7.9 6.5-2.2 1.8-.8.6-.2.2-8.8 7.4-3.7 3.1L11 40l-.9.7-.2.2-5.4 4.4.2 1.8q-.5-.5-1.5-.6m-.4-3-.5-.3-.1-1.9q.7 0 1.3.4l.1-.1.1 1zm-.7-4v-.3l-.1-2 .4-.4-1.5-1v-1.4q.7-.2 1.3-.7l.1 1.2.1 1.9 16.4-13.6 1-.9L37.3 7.8l1.4 1-6 5-8 6.6-.2.1-.2.2-1.6 1.3-3.8 3.3.4-.4L3.4 38.1v1.6L3 40zM.6 31.8l-.1-2L35.9.5l1.5.9-3.9 3.2-9.2 7.6-1.6 1.4L1.9 30.7l.1 1.5z"/><path fill="#725527" d="M27.5 32.6v1.2l-3.6 3-.7-.6H23l4.5-3.8zm-6.8 5.7.7.5-4.4 3.8.2-.6.6-1.5 2.7-2.3z"/><path fill="#765929" d="m13.3 44.3-2.9 2.4-.8-.2q-1.2 0-2.6.8l-.6.4-1.5 1.1h-.2l-.1-1.7 2.3-1.6H7q2.6-1.8 4.8-1.8.8 0 1.5.6M39.8 16l.1 1.2-1.7 2.6-1.5 3-.2.6-1.6-.4-.2.1.2-.7.4-.6 2.1-3.9zm-11.5 9.4-.8 2.4v-1.6l-1.4 1zm-7.3 8-.4.6.8.7-1.4 1-1.7.8q-4 2.1-5.2 2.1h-.5l3.7-3.2.1.1q.5 0 2.4-1z"/><path fill="#987436" d="m3.3 48.4-.2-1.9q1 .1 1.4.6h.1l.2 1.7zm.1-4.4-.7-.5.9-.9.1 1.5zm-1.3-2.7L2 39.4l.9.6.5-.3.1 1.9-.1.1q-.6-.4-1.3-.4M.8 34.4l-.2-2.6 1.4.4.1 1.5q-.6.5-1.3.7"/><path fill="#6f5326" d="m37.4 2.4.1 1L34.6 6l-.9 1.4 3.9-2.7.1 1.9-2.5 1.9-1.7 1.2-5.7 4.6-2 1.5-3 2.2-.7.6q-2.3 2-2.4 3.7l-1 .9q.1-1.3-.7-1.3-.4 0-6.8 5.5l-1.7 1.5-3.6 3-3.7 3v-1.2l3.6-3.3.6-.6 3.7-3.4q3.7-3.1 8.5-6.3l3.4-2.6 2.8-2.3 4.9-4.6 3.8-3.9 1-1.3q1.8-2.3 3-3m1.1 6.3.2 2-1.6 1.3-.9.7-3 2.8q-1.1 1.5-3 3.2-2.9 2.5-7.5 5.4l-.7.4q-4.4 2.7-8 5.6l-6.3 5.4L6.3 37l-2.9 2.7v-1.6l15.9-13.2-.5.4 3.8-3.3q2 0 6.5-4l.6-.7 2.9-3.5zm.3 2.6v1.3l-2.2 1.1-.9.3h-.1l.7-1 1.6-1.2zm.1 2.5.1.9-.6.3-3.5 3-13.2 11q-1.8-.2-5.8 2.8L11.2 36l-4.7 4.2-.4.4q-.7.7-2.5 1.8v.1-1L6.3 39l3-2.7 5.9-5 6.5-4.5.4-.2q2.1-1.3 3.8-2.7l4.5-3.9.9-.6 5.2-4.4h.3zm-5.5-9.3-2.5 3q-5.7 5.6-6.8 5.6L24 13l.3-.8zm-10.8 9-.2.2-.5.8q-1.8 2.7-6.4 6.5l-6 4.7-.8.7-3.1 2.8q-2.3 2-3.7 2.9v-1.5z"/><path fill="none" stroke="#000" stroke-linecap="round" stroke-linejoin="round" stroke-opacity=".3" stroke-width="1" d="m39.9 17.2.3 4.6-2.3 1.9M5 51.2l-1.5-.8-.1-2-.2-1.9m0 0L3 44.4l.5-.4-.7-.5-.5-.3-.1-1.9-.1-1.9m0-.2-.1-2 .4-.4-1.5-1v-1.4l-.2-2.6-.1-2L35.9.5l1.5.9v1l.1 1 .1 1.3.1 1.9v.7l-.5.5 1.4 1 .2 2v.6l.1 1.3.1 1.2.1.9-.6.3 1.3.9.1 1.2"/><path fill="none" stroke="#462d04" stroke-linecap="round" stroke-linejoin="round" stroke-width="__RESOLUTION__" d="m24.7 20.4-.3.1-.2.2m14.3-5.6-3.5 3M3.7 44l-.3-.1M23.1 36l4.4-3.7m-7 5.8-2.7 2.3m9.7-6.7-3.6 3m-5.2-13.6 1-.9L37.3 7.8m-34.9 29 16.4-13.6m2.7 15.6L17 42.6" vector-effect="non-scaling-stroke"/><path fill="#3d2e14" d="m40.8 24.4.4.3v.2l-.7 1.1-.5 1-4 7.4-2.9 4.8-.1.3v.1l-.9-.2 4.3-8.4.4-.5zM42.2 35l1.4-.6.1-.1.3.1.9.7q-2.1 1-3.2 1-.5 0-.7-.5zm-11.5 2.5V39h.1l-1.1.9h-.1l-.2-2.2.1-4.2.3-3.7q.1-.8-.1-3.7-.1-1.5 1-2zM45.3 36v.7l-.1.4-1.1.6-2 1-1.1.6-6.5 3v.1l-.5-1q0-.5 4.1-2.1l1.5-.6 1.4-.6zm-4.8 14 .6.5v.1l.2.3v.5L37.1 49l-.5-.4q-3-2.1-3-2.7l.4-.9 4 3.2.8.6zm-.2-14v.6l-.3.5-.5.5-1.5.5q-3.4 2-4 2l-.7-.8zm-6.5 26-1.3 1.2-3.3 1.8-3.3 1-1.2-.2 2.2-1.3 1.7-1h.5v-.3l2-1.2 1.4.7zm-12.2 2.8-.1-.2-.6-.6q2.4-.2 5.3-1.2l1.3-.4v.4l.2.3.2.1-1.4.4zm0-4.7v-.5q0-3.4 2.8-7.5l2.3-2.8.5.7zM16 51.5v-2l6-2.7 5.3-2.1.1.2v.5l-.2.6h-.1l-1.8 1h-.2zm.1-3v-.7l10-4.8h.4l.1.1.3.3q-1.3 1.4-5 3-2.4 1-5.8 2.1M19.3 37l.3-.6 3.5 2.1.8.6q1.6 1.3 3.3 3.6l-.6.2zm.8-1.8.5-1.2 6.2 5.1 1.3 1.2h.1l.3.5-.2.1v.4l-.2.6-3.8-3.8-.5-.5q-2.3-2.2-3.7-2.4m20.3 17.6-.4.4h-.6l-2-1.7-5-3.9.4-.2q.7 0 3.2 1.7l.4.3q2.3 1.6 4 3.4"/><path fill="#967234" d="m40.6 26 .6-1.1v-.2l-.5-.3-.9-.5-4.6 8.2.1.1-.4.1-3.7 6.8-.4-.2v-1.4q2.1-3 3.8-5.8 2.8-4.7 4.1-8.5l.5.1 2.2 1.4 1.1 1.2q-.6 1-.6 2.8 0 .9 1.1 3.4l.1.1.5 2.2-1.4.6v-.3l-.1-2.2-.6-2.8q-.1-2.2-1-3.7m4.5 9.5-.1-.4-1-3.4q-.5-1.9-.5-3l.1-1.6 1.2 2.4.9 3.6.2 3.3-.3.4-.4-1.1zm-3.2 3.2 2.1-1q-.2 2.1-1.2 5.3l-1.6 4.1-.8 3-1.6-1.3q1.3-2.7 2.1-5.5l.9-3.5zm-.9 12 .6-1.7q1.1-3.8 2.3-6.3.9-1.8 1.8-3l-.1.7-2.3 8.2-4.1 7.6-2.5 3-1.9 1.6-1.1 1-1.3.8L31 62l4.5-2.8.2-.2q2.6-2.4 4.3-5.8l.4-.4.5-.3.3-.5v-1zM30.9 62h-.2v-2l3-3q2-2.4 3.8-5.4l2 1.6h.2q-.5 1.1-1.1 1.8L35 58.3z"/><path fill="#473518" d="m40.8 24.4-4 6.1-.4.5-4.3 8.4.8.2h.1l.1-.1.8.8q.6 0 4-2l1.5-.5.5-.5.3-.5v-.7l.8-.5q.2.5.6.5 1.1 0 3.3-1v.1l.1.3.1.1v.4L41 38.2l-1.4.6-1.5.6q-4.1 1.5-4.1 2l.5 1-.4 2.3v.3l-.4.9q0 .6 3 2.7l.5.4 4.1 2.5v.5l-.3.5-.5.3q-1.7-1.7-4-3.4l-.4-.3q-2.5-1.7-3.2-1.7l-.4.2h-.1l-1 .6-.7.2v13.5h.2l.2.1-2 1.2.1-15.1-.6-.6-.3-1.1v-1.5l.3-1.5.8-1.4 1-1.2.4-.4-1-.6 1.1-.9.4.2 3.7-6.8.4-.1-.1-.1 4.6-8.2zm1.7 1.5-1.1-1.2-2.2-1.4-.5-.1-1.3-.2.6.7-3-.7-3.5.5-.7.6q-1.1.4-1 2 .2 2.8 0 3.6l-.2 3.7v4.2l.1 2.2-.4.2h-.1l.1-14.9-1 .7-.2.1-.5.3-2.2 1.6-4.3 5.3-.4.9-.5 1.2-.5 1.2-.3.6-.2.1h.1l-1.4 3.4-.1.1-.5 1.4-.2.5-1 5-.1.3v1.7l-.1 2h-.1v.3l.3 3.3.8 3.2.9 1.8.5 1 .6.5L27 46.7l1.3 1 .1.1-.8 1.6-.4.6-.5-.7-2.3 2.8q-2.9 4.1-2.9 7.5v.5l-.2.5-1.2 2.1.8 1.3.6.6.1.2.3.4 2.8.6 1.2.3 3.3-1 3.3-1.9 1.4-1.2 1-1 2-1.8 2.4-2.9 4.1-7.6 2.3-8.2.1-.7.2-3-.1-.4-.2-3.3-.9-3.6-1.2-2.4-.2-.3zm-17.8-5.5 1.8-1 3.1-1.2 3.1-.3 3 .6.5.3 6.6 3.5 2.1 2.3 1.6 3.1.9 3.7.5 4.6-1.4 8.7-3.7 9-2.5 4.1-2.9 3.5-3.2 2.9-3.6 2.1-3.1 1.1-3.2.3-2.9-.7-1.6-.7-1-.8-2.2-2.3-1.6-3-.9-3.8-.3-3.9V52l.2-2.6V49l2.3-9.2 3.4-7.2 3.6-4.7 1.8-2.1 1.8-1.6.4-.4.3-.1v-.1L23 21.3l1.1-.6.4-.2zM35 21.5l-.6-.1-2.7.3-2.8 1.1-2 1.4 2-1.4 2.8-1.1 2.7-.3zM35 61l-1.2 1h-.1zm-10.2 4.8-2.8-.6-.3-.4 5-1.2 1.3-.4.4.3h.3l-1.7 1zM20.7 64l-.7-1.3 3.3-.1 3-1.2 1.1-.6v1.6l-1.2.4q-3 1-5.4 1.2m-5-14.6.1-.9q3.4-1 5.7-2 3.8-1.7 5-3l.3.5.3.7-5.4 2.1zm.1-1.6.1-.2zm3.7-11.4.5-1.2q1.4.2 3.7 2.4l.5.5 3.8 3.8v.1l-.7.6-.1.1h-.1q-1.7-2.3-3.3-3.6l-.8-.6zm5.5-10.6-1.8 2.1 1.1-1.5zm-5.4 6.8-3.5 7.2L14 49v.3l.1-1.5 1-5.1 1.5-4.3 2.3-4.7zm11.7 12 .1-.4.5-.7.3-.1v-.1l-1.3-.5-.2.1-.2.3-.4.7v1.7l1.5.6-.3-.2-.1-.6v-.3z"/><path fill="#ad833d" d="m33 39.6.1-.4 8.1-3.9.1-1-.2-3.7-.9-3.4-.2-.3.5-.9q.9 1.5 1 3.7l.6 2.8.1 2.2v.3l-1.2.6-.8.4-7 3.5zm10.6-5.1-.5-2.2v-.1q-1.2-2.5-1.2-3.4 0-1.9.6-2.8l.8.9.2.3-.1 1.5q0 1.2.5 3.1l1 3.4.1.4-.1-.3-.9-.8-.2-.1zm-4.9-11.2q-1.3 3.8-4.1 8.5l-3.9 5.8v-.8l7.3-13-.6-.7zm-15.7-2 4.6 2.3v.1l-.3.1-.4.4-1 .7-.7.9.7-.9 1-.7-1.7 1.6-.7.6-1.2 1.5-3.6 4.7.6-1.3 3-3.4-3 3.4-.6 1.3-.7 1.1-2.4 4.7-1.5 4.3-1 5.1v1.5l-.3 2.6v.6l.3 4 1 3.7 1.5 3 2.1 2.3 1.1.8-5.6-3-2.1-2.4-1.6-3-1-3.5-.2-5.4.2-3.7 1-4.5.3-.7 1.3-3.9 4.7-8.5 2.9-3.4zm22.1 14.4.4 1.1.3-.4v.3l.1.1-.2 3q-.9 1.2-1.8 3-1.2 2.5-2.3 6.3l-.6 1.6v-.1l-.6-.5.8-3 1.5-4.1q1.1-3.2 1.3-5.3l1.1-.6.1-.4v-.6zm-4.2 3.6 1-.6-.1 1.1-.9 3.5q-.8 2.8-2.1 5.5l-.7-.6.8-1.7 1.4-4zM40 53.2q-1.7 3.4-4.3 5.8l-.2.2L31 62h-.2l4.2-3.7 3.5-3.4q.6-.7 1.1-1.8zm-9.4 6.7v-1.6l1.5-1.2 2.5-3 2-3-4.3-3.4v-.2l.1.1 5 3.9q-1.8 3-3.7 5.3z"/><path fill="#725527" d="m27.5 49.4.8-1.6h-.1v-.2l-1.2-.9-8.2 15-.6-.7-.5-.9.1-.3L24.9 47h.2l1.8-1 .3-.6v-.7L27 44l-.4-.6-.2-.3-.1-.1h-.4l-10 4.8.1-.1 8.8-4.4.3-1.4-5.9-4.8.1-.2v.1l7.3 6 .6-.3h.2l.7-.7v-.1l.2-.6v-.4l.1-.1-.2-.5-1.4-1.2.6-.4h.1V26.2l.5-.3.2-.1 1-.7-.1 14.9h.1l.4-.2h.1l1 .6-.4.4-1 1.2-.8 1.4-.3 1.5v1.5l.3 1.1.6.6-.1 15.1v.3h-.8l-.4-.3-.2-.2-.2-.2v-2zM17.2 42l.5-1.4zm2.1-5v.1zm12.2 7.5-.1.6v.3l.1.6.3.2-1.5-.7V44l.3-.8.3-.3h.2l1.3.4v.1l-.2.1-.6.7z"/><path fill="none" stroke="#000" stroke-linecap="round" stroke-linejoin="round" stroke-opacity=".3" stroke-width="__RESOLUTION__" d="m33.1 39.2 2.8-4.8h.1l4-7.5.3.3.8 3.4.2 3.7-.1 1zm1.3 3 6.5-3-.6 3.1-1.4 4.1-.9 1.7-4-3.2v-.3h0zM35 61l-1.1 1-1.4 1.2-3.3 1.8-3.3 1-1.2-.2-2.8-.6-.3-.4m-.1-.2-.6-.6-.8-1.3 1.2-2m6-10.7.3-.6-.1 11.4-1.1.6-3 1.2-3.3.1m-2.3-2.6-.9-1.8-.8-3.2-.3-3.3.1-.3v-2l.1-1v-.7l.1-.2 1-5 .2-.6.5-1.4h0l1.6-3.5L25 42l-.4 1.4-8.7 4.4v.1M19.3 37l.3-.6.5-1.2.5-1.2.4-.9 4.3-5.3 2.2-1.6v12.2m3.2-14.3.7-.6 3.5-.5 3.1.7-7.2 13zm-3.9 15 .6-.4h.1m-.7.4L20.6 34m10 24.3v-9.9l.7-.2 1-.6v.1l4.3 3.4-2 3-2.5 3zM19.3 37.1l.1-.1m-3.5 14.5 9.1-4.6-7.1 12.9-.1.3m3.8 0L27 50" vector-effect="non-scaling-stroke"/><path fill="none" stroke="#000" stroke-linecap="round" stroke-linejoin="round" stroke-opacity=".3" stroke-width="1" d="m19.8 66.3 1.6.7 3 .7 3.1-.3 3.1-1.1 3.5-2.1 3.3-2.9 2.9-3.5 2.5-4 3.7-9 1.4-8.8-.5-4.6-.9-3.7-1.6-3-2.1-2.4-6.5-3.5-.5-.3-3-.6-3.2.3-3.2 1.1-1.7 1.1"/><path fill="none" stroke="#462d04" stroke-linecap="round" stroke-linejoin="round" stroke-width="__RESOLUTION__" d="m24.2 20.7-1.2.6-3.3 3-3 3.4-4.6 8.5-1.3 3.8-.3.8-1 4.5-.2 3.7.2 5.4 1 3.5 1.6 3 2.1 2.4 5.6 3M19.2 37l.1-.2v.1l7.3 6 .6-.3m.3-16.5.5-.3m.2-.1 1-.7-.1 14.9h.1l.4-.2h.1l1 .6-.4.4-1 1.2-.8 1.4-.3 1.5v1.5l.3 1.1.6.6-.1 15.1v.3h-.8l-.4-.3-.2-.2-.2-.2v-2m.8-18.9.1-.6v-.4l.1-.1-.2-.5h0L26.8 39m-1.9 8h.2l1.8-.9h0l.3-.6v-.7L27 44l-.4-.6-.2-.3-.1-.1h-.4l-10 4.8h0m11.4-5.1.7-.7" vector-effect="non-scaling-stroke"/><path fill="none" stroke="#333" stroke-linecap="round" stroke-linejoin="round" stroke-width="__RESOLUTION__" d="m26.9 24.2 2-1.4 2.8-1.1 2.7-.3.6.1m-9.9 4.3.8-.9 1-.7m-1.7 1.6-1.9 2.1-3 3.4-.6 1.3-3.4 7.2L14 49v.3l-.2 2.6" vector-effect="non-scaling-stroke"/><path fill="none" stroke="#462d04" stroke-linecap="round" stroke-linejoin="round" stroke-width="__RESOLUTION__" d="M15.7 51.8v-.2l.1-.1" vector-effect="non-scaling-stroke"/><path fill="#666" d="m24.7 20.4 1.8-1 3.1-1.2 3.1-.3 3 .6.5.3 6.6 3.5 2.1 2.3 1.5 3-.3.3-1.5-3-2.5-2.4-3.2-.7-3.9-.3-.6-.1-2.7.3-2.8 1.1-1.2.9h-.1v-.1L23 21.3l1.1-.6.4-.2zM14.6 57.9l.5 2.3 1.6 3 2.1 2.3 1.1.8-5.6-3-2.1-2.4-1.6-3-.6-2.3z"/><path fill="#999" d="m23 21.3 4.6 2.3v.1l-.3.1-.4.4-1 .7-.7.9-.7.6-1.6 1.9-3-.6-2.6-.6 2.4-2.8zm-7.9 21.8-1 4.7-.3 4.8.3 3.8.4 1.5-4.6-2.3-.4-1.2-.2-5.4.2-3.7.3-1q2.3-1.2 5.3-1.2"/><path fill="#473518" d="m27.6 23.7-.7.5.4-.4z"/><path fill="#b2b2b2" d="m22.9 28.3-2.6 3-.2.6q-2.3.7-3.5.7l-2.4-.3 2.6-4.6.4-.6 2.6.6zm-5.8 9.1-.5 1-1.5 4.3v.4q-3 0-5.3 1.1l.7-3.4.3-.7.8-2.3 3.6-.5z"/><path fill="#ccc" d="m20.1 31.9-.4.7-.7 1.1-1.9 3.7-1.9-.1-3.6.5.5-1.6 2.1-3.9 2.4.3q1.2 0 3.5-.7"/><path fill="none" stroke="#000" stroke-linecap="round" stroke-linejoin="round" stroke-opacity=".3" stroke-width="__RESOLUTION__" d="m27.7 23.7 1.2-.9 2.8-1.1 2.7-.3.6.1 3.9.3 3.2.7 2.5 2.4 1.5 3 .3-.3-1.5-3-2.1-2.3-6.5-3.5-.5-.3-3-.6-3.2.3-3.2 1.1-1.7 1.1m-.6.3-1 .6-3.4 3-2.4 2.8-.6.6-2.5 4.6-2.1 3.9-.5 1.6-.8 2.3-.3.7-.7 3.4-.3 1.1-.2 3.7.2 5.4.4 1.2.6 2.3 1.6 3 2.1 2.4 5.6 3-1-.8-2.2-2.3-1.6-3-.5-2.3-.4-1.5-.3-3.9.3-4.7 1-4.7v-.4l1.5-4.3.5-1 1.8-3.7.9-1.1.3-.7.2-.6 2.6-3 1.6-1.9.6-.6.8-.9 1-.7.4-.4.3-.1v-.1" vector-effect="non-scaling-stroke"/><path fill="none" stroke="#333" stroke-linecap="round" stroke-linejoin="round" stroke-width="__RESOLUTION__" d="m27.7 23.7-.8.5" vector-effect="non-scaling-stroke"/><path fill="#333" d="M22.6 23.2q-.4-.1-.4-.4l.4-.4.8-.2.8.2.4.4q0 .3-.4.4l-.7.2z"/><path fill="none" stroke="#000" stroke-linecap="round" stroke-linejoin="round" stroke-opacity=".3" stroke-width="__RESOLUTION__" d="M22.6 23.2q-.4-.1-.4-.4l.4-.4.8-.2.8.2.4.4q0 .3-.4.4l-.7.2z" vector-effect="non-scaling-stroke"/><path fill="#333" d="m26.7 22.6-.4-.4.4-.4.8-.2.8.2.4.4q0 .3-.4.4l-.8.2z"/><path fill="none" stroke="#000" stroke-linecap="round" stroke-linejoin="round" stroke-opacity=".3" stroke-width="__RESOLUTION__" d="m26.7 22.6-.4-.4.4-.4.8-.2.8.2.4.4q0 .3-.4.4l-.8.2z" vector-effect="non-scaling-stroke"/></g><g id="e"><path fill="#e8b44e" d="M.7 2.5 0 1.2.6 1l1.6 1L1.5.7.7 0l3.9 2.6Q3.9.3 3.2.2l.2-.1 2.8 3.2L7.5 6l1.6 1.2-2.3-3.4 6.8 8 3.5 4.8-6.3-5.4L7 7.9l-.3-.2-3.2-2.9-2-1.6zM6.3 5 2.7 2.7l4.4 3.8z"/><path fill="#edbd63" d="m6.2 3.3.5.6 2.4 3.4-1.6-1.2zm0 1.7.9 1.5-4.4-3.7z"/><path fill="#e1a413" d="m17.1 16.7 4.3 5.9h-.2l-3.5-3.4-4.5-4.5-4.9-5L7 8l-.3-.3-3.2-2.9 4.8 5L7 7.9l3.8 3.4zm-6.3-5.4 2.4 3.4z"/><path fill="#de9d13" d="m8.3 9.8 4.9 4.9 4.9 6.1.6 3.3z"/><path fill="#d08811" d="m18 20.8-4.8-6.1 4.5 4.5z"/><path fill="none" stroke="#cf8010" stroke-linecap="round" stroke-linejoin="round" stroke-width="__RESOLUTION__" d="m21.2 22.7.6.7M.7 2.5l.8.7 2 1.6 4.8 5 4.9 4.9 4.5 4.5 3.4 3.4" vector-effect="non-scaling-stroke"/><path fill="none" stroke="#de9d13" stroke-linecap="round" stroke-linejoin="round" stroke-width="__RESOLUTION__" d="m3.5 4.9 3.2 2.8.3.3 3.8 3.3 6.3 5.4M7 8l1.3 1.8L18.7 24m-5.5-9.5-2.4-3.3" vector-effect="non-scaling-stroke"/></g><g id="d"><path fill="#caa14d" d="M.7 2.5 0 1.2.6 1l1.6 1L1.5.7.7 0l3.9 2.6Q3.9.3 3.2.2l.2-.1 2.8 3.2L7.5 6l1.6 1.2-2.3-3.4 6.8 8 3.5 4.8-6.3-5.4L7 7.9l-.3-.2-3.2-2.9-2-1.6zM6.3 5 2.7 2.7l4.4 3.8z"/><path fill="#cfaa62" d="m6.2 3.3.5.6 2.4 3.4-1.6-1.2zm0 1.7.9 1.5-4.4-3.7z"/><path fill="#c39112" d="m17.1 16.7 4.3 5.9h-.2l-3.5-3.4-4.5-4.5-4.9-5L7 8l-.3-.3-3.2-2.9 4.8 5L7 7.9l3.8 3.4zm-6.3-5.4 2.4 3.4z"/><path fill="#c08a12" d="m8.3 9.8 4.9 4.9 4.9 6.1.6 3.3z"/><path fill="#b27510" d="m18 20.8-4.8-6.1 4.5 4.5z"/><path fill="none" stroke="#b16d0f" stroke-linecap="round" stroke-linejoin="round" stroke-width="__RESOLUTION__" d="m21.2 22.7.6.7M.7 2.5l.8.7 2 1.6 4.8 5 4.9 4.9 4.5 4.5 3.4 3.4" vector-effect="non-scaling-stroke"/><path fill="none" stroke="#c08a12" stroke-linecap="round" stroke-linejoin="round" stroke-width="__RESOLUTION__" d="m3.5 4.9 3.2 2.8.3.3 3.8 3.3 6.3 5.4M7 8l1.3 1.8L18.7 24m-5.5-9.5-2.4-3.3" vector-effect="non-scaling-stroke"/></g><g id="c"><path fill="#9d8854" d="M.7 2.5 0 1.2.6 1l1.6 1L1.5.7.7 0l3.9 2.6Q3.9.3 3.2.2l.2-.1 2.8 3.2L7.5 6l1.6 1.2-2.3-3.4 6.8 8 3.5 4.8-6.3-5.4L7 7.9l-.3-.2-3.2-2.9-2-1.6zM6.3 5 2.7 2.7l4.4 3.8z"/><path fill="#a29169" d="m6.2 3.3.5.6 2.4 3.4-1.6-1.2zm0 1.7.9 1.5-4.4-3.7z"/><path fill="#967819" d="m17.1 16.7 4.3 5.9h-.2l-3.5-3.4-4.5-4.5-4.9-5L7 8l-.3-.3-3.2-2.9 4.8 5L7 7.9l3.8 3.4zm-6.3-5.4 2.4 3.4z"/><path fill="#937119" d="m8.3 9.8 4.9 4.9 4.9 6.1.6 3.3z"/><path fill="#855c17" d="m18 20.8-4.8-6.1 4.5 4.5z"/><path fill="none" stroke="#845416" stroke-linecap="round" stroke-linejoin="round" stroke-width="__RESOLUTION__" d="m21.2 22.7.6.7M.7 2.5l.8.7 2 1.6 4.8 5 4.9 4.9 4.5 4.5 3.4 3.4" vector-effect="non-scaling-stroke"/><path fill="none" stroke="#937119" stroke-linecap="round" stroke-linejoin="round" stroke-width="__RESOLUTION__" d="m3.5 4.9 3.2 2.8.3.3 3.8 3.3 6.3 5.4M7 8l1.3 1.8L18.7 24m-5.5-9.5-2.4-3.3" vector-effect="non-scaling-stroke"/></g><g id="b"><path fill="#471f07" fill-opacity=".4" d="m94 84.4-70 22-3.2-1.5q7.2-4.5 17.2-8.2l-16.5-8.2-18.7 8.8L0 95l51-31.5z"/><path fill="#aaa273" d="M93 41v-1l2.9 1.5-1 .9-1.9-1zm-67.2 2.2v-.1h.1zM77.6 41l-.1.1-.5.3zm-4.7 46-.8-.4z"/><path fill="#8d865f" d="m95.9 41.5.5 2.3.3.4-1-1.2-2.7-1.6 1.8 1zm-23 45.6-.2-.2 1.6.8z"/><path fill="#f0b504" d="m52.9 3.3.4.1 4.9.3v.9l3.3-1L61 6l.4.3 2-2.8-1.3 3 2.1 1.1 1.3-.3-.9.5q3.9 2 7.7 4.7l2.7-.7-.5 2.4.4.3 1.9-2.8-1.2 3.1 1.4 1 2-.3-1.6.7q4.1 2.9 5.2 3.3.5.2-.5 1-2.4 1.7-12.2 6.4l-4.2 2 1.5-3.7-2.5 3.8.7-3.7-4.9 1.4-5.2-.4-5 2.2-4.5 5.1 2.5-6.2-5.5 7 2.7-6.2q-3.7 6.2-11.8 7.6l8.8 3.1 8.5-.2-5.3-.7 9.3-2.3q-2.7 2.1-5 4.4l-.8 1.1-.3 1-1 5v.5l-2.7-.1q2.8 3-1.7 2.2-7 1.8-7.7.3l.4-6.7-2.4 6.6.3-2v-1l.3-3.5v-.4l-5.1 8.3 5.1 3.9 5.9 3.1-3.8-3 8.4 1.3v.8l.5 4.7 1.5 4.7-4.1-.8.6.5-2.7-1L29.8 59l-.4-1-1.8-4-1.1-4.7-.3-5.4.8-.9.1-.1 1.8 4.4 4.6-4.4 1.9-3.4h-3l-.9-4.2 4.8-1 4.8-5.4-1.8.5.1-2.9-4.6 3.2-1.6-5.6 3.8-4.6-.2 2.4 5-7.5 2.3 2.6 1.3-2.8q5.3-6.1 14-5.4L58 6.2zm7.5 11-2.7.2h-.2l-.1.1-2.2 1.6-1.9 3.1.7-3.5v-.1L51.8 20l.6-2.7.1-.8-10 6.2 4.4-.2h5l4.4-1-2.7.2 8.6-4-3.1 1 6-4-2 .8.4-2.7-.9 2.2.1-2zM39.6 47.7l4.3-3.4.6-3.4-2.9.8-.6-1.6-1.7 4.9z"/><path fill="#de8e0c" d="m82 20.5 2.2 2.3.5 1.6-31.3 26.1.3 5.9 1.5 1-.4.5.3 6 1.2.8-.5.3.1 1.1-5.6 2.2-5.5-1.2-.5-.1-.9-.3-.6-.5 4.1.8-1.5-4.7-.6-4.7.1-.8-8.4-1.2 3.8 2.9-5.9-3.1-5.1-4 5.1-8.1v.3l-.3 3.5v.9l-.3 2 2.4-6.6-.5 6.6q.8 1.6 7.8-.2 4.5.8 1.7-2.2l2.7.1v-.6l1-4.9.3-1 .7-1.1q2.4-2.3 5.1-4.4L45.8 38l5.3.6-8.5.3-8.8-3.1q8.1-1.4 11.8-7.6l-2.7 6.3 5.5-7.1-2.5 6.2 4.5-5.1 5-2.2 5.2.4 5-1.4-.8 3.7 2.5-3.8-1.5 3.7 4.1-2q9.9-4.7 12.3-6.4m-21.8-6.2 2.4-1.3-.1 2 1-2.2-.6 2.7 2.1-.8-6 4 3.1-1-8.7 4 2.8-.2-4.4 1h-5l-4.5.2 10.1-6.2-.1.8-.6 2.7 2.1-4.3v.1l-.6 3.5 1.8-3.1 2.2-1.6.1-.1h.2z"/><path fill="#6b5125" d="m56 66.1.3 5 1.5.8 4.5-3.7v-.6l-.1 2-4.4 3.7-13-6.2 5.5 1.2zm6.5 8.7v.3l.5 1.5-2.6 2.1-.7-.5-.3-.1-1.4-.3h-.7l-.4-1.2v-.2q1-1.3 3-1.7l1.8-.1z"/><path fill="#765929" d="m62.2 69.7.2 5.1-.9-.2-1.7.2q-2 .3-3 1.5l-.4-1.7v-.1l1.4-1.2zm-1.9 9-2.5 2-.6-2.9h.7l1.4.3.3.1zm-2.9 2 .1.1-13.4 11.1-.3-1.5v-.1L56.2 80l.4.3zm-27.2 20.6L28 103l-.4-.8h-.4l2.1-1.7q.6 0 .8.8m-5.9 4.9-.7.5-.3-1.1h.1zM15 86.3 2.7 96.8l-.2-1.3.1-.1 12.1-10 .8-.5v.1zM26.6 75l-.3.3-.7.5zm15.3 15.2.5-.4v.4z"/><path fill="#ad833d" d="m57.9 80.8-.5-.1-.7-.5-.6-.2-.6-.3-.9-.5-1.6-.8-6.3-3.1q-2.8-2-3.9-3.4l-2-2.3q-2.7-2.8-4.9-2.8-.6 0-3 .8l-.5.1-.7.3.2.1-3.4 2.7-2.2 1.7-1.5 1q-2.3 2-3.3 3.3l.5.3.7.3 8.6 4.7 6.1 2.6 5.4 2.2-1.2 1h-.1q-1.3-.9-7-3.5l-1.2-.6Q27 81 20.4 77.3l-2.2.4 3.1 1.5v.5l-6.6 5.5-.7.5q-2.4 1.4-6 4.1-4.4 3.4-6.3 5.4l.9.1-.1.1.2 1.3-1.5-.7-.2-1.3 11.3-9.5 1.6-.9 2.6-1.6q3.1-2.1 3.3-3l-.7-.3v.1l-.7-.2-.3-1.5v-.1l1.4-1.2.5-.3q1.3-.7 2.3-1.7l3-2.5q4.9-3.5 5.7-4.3l-.6-.3-2.1-1.1V66q1 0 2.6-.5l3.8-1.6 5.6 2.8.9 1.5.7.8 2.5 2.5q4.5 3.7 12.8 6.3zm-34.2 26-1.5-.7-.3-1.2 3.4-2.8.9-.4 1.7-.9.8-.1.8-.2-2.1 1.8-1.2.4q-2.4 1-3.3 2.5l.6.3v.1zm4.4-7 11.9-10 .8-.7v-.4l.1-.2 1 .7.1.1-.6.7-.5-.2h-.2q-2 1.6-6.1 6l-.8.8q-3 2.6-5.7 3.2m-.2-35.4-.2-.7-.3-.4-1.5-3-1-3.7-.3-4.2 1-7.9-.2-.8.5-.5.1-.1h-.1L23.1 36l4.9-4-.2 1.5-3.4 2.9L27 43l-.8.9.3 5.4 1.1 4.7 1.8 4-2.6 2 5.8 2.9-2.2 1-.7.2zm-.2-.7-.8-3.7zm27 15.5 1 .4q-1.3 1.4-5.3 4.1l-.5.5-2 1.4q-3 2.3-4.4 4.5l-1.5-.9q2.4-1.9 3.9-3.8l2-2.2q1.5-1.3 3.8-2.5zm-28.3-6.1q0 .2-3.1 3.6l-.6.1 1.4-2 2-1.8zm-.8 2.6-1.1 1-.2.2 1.3.5 13.9 6.8-2.1-.5-5.2-2q-2.1-.7-5-2.4-3.4-1.9-3.4-2.6h.3zm1-.8 1.5-1.6 1.1-1.2 3.7-3.7.8.4zm30.2 1.7q-1.5-.3-3.7-1.2-4.5-1.8-6.8-3.6-1.7-2-3.2-3.4l-.9-.8 14.2 7 .4 1.8zm-8.4 6.8-.2.1-.1.1q-.8.6-.9 1l.1.1 1.9-.7q2.3-1.2 2.4-2h-.2l-1.5.5-1.5.8"/><path fill="#bb8d42" d="m44.1 91.9-1.7-.9-.1-.8v-.4l-.5.4-.5-.2.6-.7 1.5.9.4.2zm-4.2-2.1L21.6 81v-.2l-.3-1.5 19.3 9.4v.3z"/><path fill="#705527" d="m42.4 91-12.2 10.3q-.2-.8-.8-.8l12.4-10.3h.5zm-14.3 12-.1.1-3.7 3.1-.9-.7 3.9-3.2.4-.1zm-6.5-22.2L15 86.4l.5-1.4v-.1l-.8.5 6.6-5.6v-.5zm2.6-3.8.2-.2 1.1-1 .7-.5.3-.3 7.1-6.1.4.2.8.4v.3l-9.2 7.8z"/><path fill="#987436" d="m25.2 102.1 2.8-2.3q2.7-.6 5.7-3.2l.8-.7q4.1-4.5 6.1-6.1h.2l.5.2.5.2-12.4 10.3-.8.2-.8.1-1.7.9zM12.3 85.2l6.7-5.7.1-.1.6.3q-.1.9-3.2 3l-2.6 1.6zm7.7-9 10.4-8.8.6.3q-.8.8-5.7 4.3l-3 2.5q-1 1-2.3 1.7m22.8 10.7-5.4-2.2-6.1-2.6-8.6-4.7-.7-.3-.5-.3q1-1.3 3.3-3.2l1.5-1.1 2.2-1.7 3.4-2.7.9.5-3.6 3.6-1.2 1.2-1.5 1.5-1 .9-1.5 1h-.3q0 .7 3.4 2.6 2.9 1.6 5 2.4l5.2 2 2.1.5 4 2 1.8-1.5zl-1.2 1q-1.3-.9-7-3.5l-1.2-.6q-6.4-2.8-13-6.5l-2.2.4 3.1 1.5 19.3 9.5.2-.2.7-.5-.7.5 1 .7.1.1q2.4-1.9 3.9-3.8l2-2.2q1.5-1.3 3.8-2.5l3-1.5-1.6-.9-7.8 6.4zm12.8-7.2.6.3-12.3 10.3v.1l-.4-.2q1.4-2.2 4.4-4.5l2-1.5.5-.4q4-2.7 5.3-4.1m-29.3-6.5H26L24 75l-1.4 2 .6-.1q3.1-3.4 3.1-3.6zM2.6 95.3l-.9-.1q1.9-2 6.3-5.4 3.6-2.7 6-4.1l.7-.5zm45.8-12 1.5-.8 1.5-.5h.2q-.1.8-2.5 2l-1.8.7-.1-.1q.1-.4.9-1l.1-.1zm-25 22.3-.6-.3q1-1.6 3.3-2.6l1.2-.5z"/><path fill="#9d7737" d="m28.3 66-.5-1.7 1.9-.2.7-.2 2.3-1-5.9-2.9 2.6-2 .4 1 10.8 6.7 2.8 1 1 .3.4.1 13 6.2-1.5 1.2h.1l-14.2-6.9.9.8q1.5 1.4 3.2 3.4 2.3 1.8 6.8 3.5 2.2 1 3.7 1.3l.4 1.3q-8.3-2.7-12.8-6.4L42 69l-.7-.8-.9-1.5-5.6-2.8-3.8 1.6q-1.6.5-2.6.5m3.6 2.1-.2-.1.7-.3.5-.2q2.4-.7 3-.7 2.1 0 5 2.8l2 2.3q1 1.4 3.8 3.3v.1l-12-5.8-.7-.4-.4-.2-.8-.4z"/><path fill="#fbe02f" d="m28 32 .5-3q1.1-7.3 3-12.5l-.2-.1.2-.1q1.4-3.9 3.3-6.6l.1-.4v.1L37 6.8h.1Q40 4 43.8 3L46.1.8l.5 1.8h.2l.4-2.4.2 2.3 1.4.2.9-.9-.7.9 3.8.6L58 6.2l1.3 2.6q-8.6-.7-13.9 5.4L44.1 17l-2.3-2.6-5 7.5.2-2.4-3.9 4.6 1.7 5.6 4.6-3.2v2.9l1.6-.5-4.7 5.4-4.8 1 1 4.2h2.9l-1.9 3.4-4.6 4.4-1.8-4.4 1-1.1q-.7-3.4-.3-8.2zm11.5 15.7-.4-2.7 1.9-5 .6 1.6 2.9-.9-.6 3.6z"/><path fill="#473518" d="m27.1 42.9-.1.1-2.6-6.6 3.4-2.9q-.4 4.9.2 8.3z"/><path fill="none" stroke="#462d04" stroke-linecap="round" stroke-linejoin="round" stroke-width="__RESOLUTION__" d="M93 41v-1l-.2-1.2M63 76.6l-2.6 2.1-2.5 2h-.4l.1.1-13.4 11.1-1.7-.9m-20.3 15.1-.3-1.2 3.4-2.8 2.8-2.3 11.9-10L21.6 81M1.2 96 1 94.7l11.3-9.5 6.7-5.7-.6-.2-.3-1.5v-.1l1.4-1.2m.5-.3 10.4-8.8h0l-2.1-1.1V66l-.5-1.7-.2-.5-.3-.5-1.5-3-1-3.7-.3-4.2 1-7.9-.2-.8.5-.5v-.1L23.1 36l4.9-4m-2.2 11.2.1-.1h-.1m1 16.9.8 3.8m-.8-3.8 2.6-2m17.3 17.3 6.3 3.1 1.6.8 1 .5.5.3m.5.3.8.4m-31.8-3.2-1.4-.5m16.5 11.7.1-.2.7-.5m0-.1 1.3-1 2.4-2 7.8-6.5m-27.4-.9 9.2-7.7v-.3L34 69m6.6 19.6v.3l-.7.8m-5.1-20.3 11.9 5.8M72.9 87l1.4.6m-2.2-1.1.8.5" vector-effect="non-scaling-stroke"/><path fill="none" stroke="#925e07" stroke-linecap="round" stroke-linejoin="round" stroke-width="__RESOLUTION__" d="m52.9 3.3.4.1 4.9.3v.9l3.3-1L61 6l.4.3 2-2.8-1.3 3 2.1 1.1 1.3-.3-.9.5q3.9 2 7.7 4.7h0l2.7-.7-.5 2.4.4.3 1.9-2.8-1.2 3.1 1.4 1 2-.3-1.6.7q4.1 2.9 5.2 3.3.5.2-.5 1l2.1 2.3.5 1.6M28 32l.5-3q1.1-7.3 3-12.5l-.2-.1.2-.1q1.4-3.9 3.3-6.6h0l.1-.4v.1L37 6.8h.1Q40 4 43.8 3L46.1.8l.5 1.8h.2l.4-2.4.2 2.3 1.4.2.9-.9-.7.9 3.8.6" vector-effect="non-scaling-stroke"/><path fill="none" stroke="#462d04" stroke-linecap="round" stroke-linejoin="round" stroke-width="__RESOLUTION__" d="m42.4 91-12.2 10.3L28 103m-.1.1-3.7 3.1-.7.5m-2-25.9L15 86.4 2.7 96.8" vector-effect="non-scaling-stroke"/></g><clipPath id="a"><path d="M1 1h102v120H1z"/></clipPath></defs><g clip-path="url(#a)"><g transform="translate(93.8 104.8)"><use xlink:href="#b" width="96.8" height="106.9" transform="translate(-92.8 -90.75)"/><use xlink:href="#c" width="21.9" height="24.1" transform="matrix(-1.3609 -.2764 .4878 1.2282 -43.8 -43.2)"/><use xlink:href="#c" width="21.9" height="24.1" transform="matrix(-1.3609 -.2764 .4878 1.2282 -47.65 -46.45)"/><use xlink:href="#c" width="21.9" height="24.1" transform="matrix(-1.3609 -.2764 .4878 1.2282 -52.1 -48.45)"/><use xlink:href="#c" width="21.9" height="24.1" transform="matrix(-1.2905 -.0992 .4878 1.2282 -38.9 -43.8)"/><use xlink:href="#c" width="21.9" height="24.1" transform="matrix(-.9453 .0272 .2563 .9294 -54 -53.6)"/><use xlink:href="#c" width="21.9" height="24.1" transform="matrix(-.9453 .0272 .2563 .9294 -51.4 -53.25)"/><use xlink:href="#c" width="21.9" height="24.1" transform="matrix(-.9453 .0272 .2563 .9294 -45.1 -50.1)"/><use xlink:href="#c" width="21.9" height="24.1" transform="matrix(-.9695 -.0603 .2563 .9294 -46.65 -51.75)"/><use xlink:href="#c" width="21.9" height="24.1" transform="matrix(-.9695 -.0603 .2563 .9294 -35.55 -46.85)"/><use xlink:href="#c" width="21.9" height="24.1" transform="matrix(.2588 .9332 -.9646 -.0587 -52.65 -51.2)"/><use xlink:href="#c" width="21.9" height="24.1" transform="matrix(-1.3609 -.2764 .4355 1.2176 -45.4 -53.65)"/><use xlink:href="#c" width="21.9" height="24.1" transform="matrix(-.9695 -.0603 .2563 .9294 -51.35 -56.1)"/><use xlink:href="#c" width="21.9" height="24.1" transform="matrix(-1.1166 .0163 .3873 1.0829 -44.7 -48)"/><use xlink:href="#c" width="21.9" height="24.1" transform="matrix(-.9695 -.0603 .2563 .9294 -38.85 -47.25)"/><use xlink:href="#c" width="21.9" height="24.1" transform="matrix(-.9508 .0216 .338 .9232 -40.45 -49)"/><use xlink:href="#c" width="21.9" height="24.1" transform="matrix(-.9695 -.0603 .0386 .9159 -36.1 -46.65)"/><use xlink:href="#c" width="21.9" height="24.1" transform="matrix(-1.3609 -.2764 .4878 1.2282 -33.7 -39.6)"/><use xlink:href="#c" width="21.9" height="24.1" transform="matrix(-1.3609 -.2764 .4878 1.2282 -37.55 -42.85)"/><use xlink:href="#c" width="21.9" height="24.1" transform="matrix(-1.3609 -.2764 .4878 1.2282 -42 -44.85)"/><use xlink:href="#c" width="21.9" height="24.1" transform="matrix(-1.2905 -.0992 .4878 1.2282 -28.8 -40.2)"/><use xlink:href="#c" width="21.9" height="24.1" transform="matrix(-.9453 .0272 .2563 .9294 -43.9 -50)"/><use xlink:href="#c" width="21.9" height="24.1" transform="matrix(-.9453 .0272 .2563 .9294 -41.3 -49.65)"/><use xlink:href="#c" width="21.9" height="24.1" transform="matrix(-.9453 .0272 .2563 .9294 -35 -46.5)"/><use xlink:href="#c" width="21.9" height="24.1" transform="matrix(-.9695 -.0603 .2563 .9294 -36.55 -48.15)"/><use xlink:href="#c" width="21.9" height="24.1" transform="matrix(-.9695 -.0603 .2563 .9294 -25.45 -43.25)"/><use xlink:href="#c" width="21.9" height="24.1" transform="matrix(.2588 .9332 -.9646 -.0587 -42.55 -47.6)"/><use xlink:href="#c" width="21.9" height="24.1" transform="matrix(-1.3609 -.2764 .4355 1.2176 -35.3 -50.05)"/><use xlink:href="#c" width="21.9" height="24.1" transform="matrix(-.9695 -.0603 .2563 .9294 -41.25 -52.5)"/><use xlink:href="#c" width="21.9" height="24.1" transform="matrix(-1.1166 .0163 .3873 1.0829 -34.6 -44.4)"/><use xlink:href="#c" width="21.9" height="24.1" transform="matrix(-.9695 -.0603 .2563 .9294 -28.75 -43.65)"/><use xlink:href="#c" width="21.9" height="24.1" transform="matrix(-.9508 .0216 .338 .9232 -30.35 -45.4)"/><use xlink:href="#c" width="21.9" height="24.1" transform="matrix(-.9695 -.0603 .0386 .9159 -26 -43.05)"/><use xlink:href="#d" width="21.9" height="24.1" transform="matrix(-1.3609 -.2764 .4878 1.2282 -33.25 -47.65)"/><use xlink:href="#d" width="21.9" height="24.1" transform="matrix(-1.3609 -.2764 .4878 1.2282 -37.1 -50.9)"/><use xlink:href="#d" width="21.9" height="24.1" transform="matrix(-1.3609 -.2764 .4878 1.2282 -41.55 -52.9)"/><use xlink:href="#d" width="21.9" height="24.1" transform="matrix(-1.2905 -.0992 .4878 1.2282 -28.35 -48.25)"/><use xlink:href="#d" width="21.9" height="24.1" transform="matrix(-.9453 .0272 .2563 .9294 -43.45 -58.05)"/><use xlink:href="#d" width="21.9" height="24.1" transform="matrix(-.9453 .0272 .2563 .9294 -40.85 -57.7)"/><use xlink:href="#d" width="21.9" height="24.1" transform="matrix(-.9453 .0272 .2563 .9294 -34.55 -54.55)"/><use xlink:href="#d" width="21.9" height="24.1" transform="matrix(-.9695 -.0603 .2563 .9294 -36.1 -56.2)"/><use xlink:href="#d" width="21.9" height="24.1" transform="matrix(-.9695 -.0603 .2563 .9294 -25 -51.3)"/><use xlink:href="#d" width="21.9" height="24.1" transform="matrix(.2588 .9332 -.9646 -.0587 -42.1 -55.65)"/><use xlink:href="#d" width="21.9" height="24.1" transform="matrix(-1.3609 -.2764 .4355 1.2176 -34.85 -58.1)"/><use xlink:href="#d" width="21.9" height="24.1" transform="matrix(-.9695 -.0603 .2563 .9294 -40.8 -60.55)"/><use xlink:href="#d" width="21.9" height="24.1" transform="matrix(-1.1166 .0163 .3873 1.0829 -34.15 -52.45)"/><use xlink:href="#d" width="21.9" height="24.1" transform="matrix(-.9695 -.0603 .2563 .9294 -28.3 -51.7)"/><use xlink:href="#d" width="21.9" height="24.1" transform="matrix(-.9508 .0216 .338 .9232 -29.9 -53.45)"/><use xlink:href="#d" width="21.9" height="24.1" transform="matrix(-.9695 -.0603 .0386 .9159 -25.55 -51.1)"/><use xlink:href="#d" width="21.9" height="24.1" transform="matrix(-1.2654 -.2791 .112 1.239 -44.15 -55.45)"/><use xlink:href="#d" width="21.9" height="24.1" transform="matrix(-1.2654 -.2791 .112 1.239 -47 -58.75)"/><use xlink:href="#d" width="21.9" height="24.1" transform="matrix(-1.2654 -.2791 .112 1.239 -50.75 -60.8)"/><use xlink:href="#d" width="21.9" height="24.1" transform="matrix(-1.2493 -.1004 .112 1.239 -39.05 -56.05)"/><use xlink:href="#d" width="21.9" height="24.1" transform="matrix(-.9453 .0272 -.0272 .9376 -51.05 -65.95)"/><use xlink:href="#d" width="21.9" height="24.1" transform="matrix(-.9453 .0272 -.0272 .9376 -48.6 -65.55)"/><use xlink:href="#d" width="21.9" height="24.1" transform="matrix(-.9453 .0272 -.0272 .9376 -43.3 -62.4)"/><use xlink:href="#d" width="21.9" height="24.1" transform="matrix(-.9427 -.0611 -.0272 .9376 -44.35 -64.05)"/><use xlink:href="#d" width="21.9" height="24.1" transform="matrix(-.9427 -.0611 -.0272 .9376 -34.85 -59.1)"/><use xlink:href="#d" width="21.9" height="24.1" transform="matrix(-.0258 .9414 -.9385 -.0594 -50.5 -63.5)"/><use xlink:href="#d" width="21.9" height="24.1" transform="matrix(-1.2654 -.2791 .0634 1.2283 -42.55 -65.95)"/><use xlink:href="#d" width="21.9" height="24.1" transform="matrix(-.9427 -.0611 -.0272 .9376 -47.7 -68.45)"/><use xlink:href="#d" width="21.9" height="24.1" transform="matrix(-1.1118 .0162 .0564 1.0925 -43.6 -60.3)"/><use xlink:href="#d" width="21.9" height="24.1" transform="matrix(-.9427 -.0611 -.0272 .9376 -37.95 -59.5)"/><use xlink:href="#d" width="21.9" height="24.1" transform="matrix(-.949 .0215 .0558 .9313 -39.05 -61.3)"/><use xlink:href="#d" width="21.9" height="24.1" transform="matrix(-.9427 -.0611 -.2388 .9239 -35.45 -58.95)"/><use xlink:href="#d" width="21.9" height="24.1" transform="matrix(1.2654 -.2791 -.112 1.239 -44.35 -63.05)"/><use xlink:href="#d" width="21.9" height="24.1" transform="matrix(1.2654 -.2791 -.112 1.239 -41.5 -66.35)"/><use xlink:href="#d" width="21.9" height="24.1" transform="matrix(1.2654 -.2791 -.112 1.239 -37.75 -68.4)"/><use xlink:href="#d" width="21.9" height="24.1" transform="matrix(1.2493 -.1004 -.112 1.239 -49.45 -63.65)"/><use xlink:href="#d" width="21.9" height="24.1" transform="matrix(.9453 .0272 .0272 .9376 -37.45 -73.55)"/><use xlink:href="#d" width="21.9" height="24.1" transform="matrix(.9453 .0272 .0272 .9376 -39.9 -73.15)"/><use xlink:href="#d" width="21.9" height="24.1" transform="matrix(.9453 .0272 .0272 .9376 -45.2 -70)"/><use xlink:href="#d" width="21.9" height="24.1" transform="matrix(.9427 -.0611 .0272 .9376 -44.15 -71.65)"/><use xlink:href="#d" width="21.9" height="24.1" transform="matrix(.9427 -.0611 .0272 .9376 -53.65 -66.7)"/><use xlink:href="#d" width="21.9" height="24.1" transform="matrix(.0258 .9414 .9385 -.0594 -38 -71.1)"/><use xlink:href="#d" width="21.9" height="24.1" transform="matrix(1.2654 -.2791 -.0634 1.2283 -45.95 -73.55)"/><use xlink:href="#d" width="21.9" height="24.1" transform="matrix(.9427 -.0611 .0272 .9376 -40.8 -76.05)"/><use xlink:href="#d" width="21.9" height="24.1" transform="matrix(1.1118 .0162 -.0564 1.0925 -44.9 -67.9)"/><use xlink:href="#d" width="21.9" height="24.1" transform="matrix(.9427 -.0611 .0272 .9376 -50.55 -67.1)"/><use xlink:href="#d" width="21.9" height="24.1" transform="matrix(.949 .0215 -.0558 .9313 -49.45 -68.9)"/><use xlink:href="#d" width="21.9" height="24.1" transform="matrix(.9427 -.0611 .2388 .9239 -53.05 -66.55)"/><use xlink:href="#e" width="21.9" height="24.1" transform="matrix(-1.2166 -.4474 -.0561 1.2433 -40.3 -66.3)"/><use xlink:href="#e" width="21.9" height="24.1" transform="matrix(-1.2166 -.4474 -.0561 1.2433 -42.7 -69.9)"/><use xlink:href="#e" width="21.9" height="24.1" transform="matrix(-1.2166 -.4474 -.0561 1.2433 -46.15 -72.5)"/><use xlink:href="#e" width="21.9" height="24.1" transform="matrix(-1.2247 -.2681 -.0561 1.2433 -35.2 -66.25)"/><use xlink:href="#e" width="21.9" height="24.1" transform="matrix(-.9407 -.1005 -.1534 .9257 -45.8 -77.65)"/><use xlink:href="#e" width="21.9" height="24.1" transform="matrix(-.9407 -.1005 -.1534 .9257 -43.45 -76.95)"/><use xlink:href="#e" width="21.9" height="24.1" transform="matrix(-.9407 -.1005 -.1534 .9257 -38.6 -73.1)"/><use xlink:href="#e" width="21.9" height="24.1" transform="matrix(-.9262 -.1878 -.1534 .9257 -39.35 -74.9)"/><use xlink:href="#e" width="21.9" height="24.1" transform="matrix(-.9262 -.1878 -.1534 .9257 -30.55 -68.65)"/><use xlink:href="#e" width="21.9" height="24.1" transform="matrix(-.1526 .9297 -.9222 -.1855 -45.5 -75.15)"/><use xlink:href="#e" width="21.9" height="24.1" transform="matrix(-1.2166 -.4474 -.1029 1.2261 -37.35 -76.55)"/><use xlink:href="#e" width="21.9" height="24.1" transform="matrix(-.9262 -.1878 -.1534 .9257 -42.1 -79.65)"/><use xlink:href="#e" width="21.9" height="24.1" transform="matrix(-1.1042 -.1339 -.0915 1.0905 -39.1 -71.05)"/><use xlink:href="#e" width="21.9" height="24.1" transform="matrix(-.9262 -.1878 -.1534 .9257 -33.6 -69.5)"/><use xlink:href="#e" width="21.9" height="24.1" transform="matrix(-.9436 -.1067 -.0704 .9307 -34.45 -71.45)"/><use xlink:href="#e" width="21.9" height="24.1" transform="matrix(-.9262 -.1878 -.3613 .8836 -31.2 -68.65)"/><use xlink:href="#f" width="48.4" height="68.2" transform="translate(-39.9 -70.1)"/><use xlink:href="#e" width="21.9" height="24.1" transform="matrix(1.0943 -.6965 .3196 1.2037 -37.7 -69.95)"/><use xlink:href="#e" width="21.9" height="24.1" transform="matrix(1.0943 -.6965 .3196 1.2037 -36.1 -74)"/><use xlink:href="#e" width="21.9" height="24.1" transform="matrix(1.0943 -.6965 .3196 1.2037 -33.3 -77.25)"/><use xlink:href="#e" width="21.9" height="24.1" transform="matrix(1.1404 -.5229 .3196 1.2037 -42.6 -68.85)"/><use xlink:href="#e" width="21.9" height="24.1" transform="matrix(.8984 -.2986 .3471 .8725 -34.7 -82.25)"/><use xlink:href="#e" width="21.9" height="24.1" transform="matrix(.8984 -.2986 .3471 .8725 -36.8 -81)"/><use xlink:href="#e" width="21.9" height="24.1" transform="matrix(.8984 -.2986 .3471 .8725 -40.8 -76.25)"/><use xlink:href="#e" width="21.9" height="24.1" transform="matrix(.8657 -.3808 .3471 .8725 -40.4 -78.15)"/><use xlink:href="#e" width="21.9" height="24.1" transform="matrix(.8657 -.3808 .3471 .8725 -47.65 -70.2)"/><use xlink:href="#e" width="21.9" height="24.1" transform="matrix(.3472 .8765 .8622 -.3778 -34.4 -79.75)"/><use xlink:href="#e" width="21.9" height="24.1" transform="matrix(1.0943 -.6965 .3617 1.1769 -42.7 -79.3)"/><use xlink:href="#e" width="21.9" height="24.1" transform="matrix(.8657 -.3808 .3471 .8725 -38.75 -83.45)"/><use xlink:href="#e" width="21.9" height="24.1" transform="matrix(1.0512 -.3661 .3217 1.0468 -39.8 -74.35)"/><use xlink:href="#e" width="21.9" height="24.1" transform="matrix(.8657 -.3808 .3471 .8725 -44.85 -71.7)"/><use xlink:href="#e" width="21.9" height="24.1" transform="matrix(.8999 -.3053 .267 .895 -44.45 -73.7)"/><use xlink:href="#e" width="21.9" height="24.1" transform="matrix(.8657 -.3808 .5415 .787 -47 -70.3)"/><use xlink:href="#g" width="21.9" height="24.1" transform="matrix(1.0257 -.6528 .2996 1.1282 -45.65 -80.7)"/><use xlink:href="#g" width="21.9" height="24.1" transform="matrix(1.0257 -.6528 .2996 1.1282 -44.15 -84.5)"/><use xlink:href="#g" width="21.9" height="24.1" transform="matrix(1.0257 -.6528 .2996 1.1282 -41.5 -87.6)"/><use xlink:href="#g" width="21.9" height="24.1" transform="matrix(1.0689 -.4901 .2996 1.1282 -50.3 -79.7)"/><use xlink:href="#g" width="21.9" height="24.1" transform="matrix(.842 -.2799 .3253 .8177 -42.8 -92.25)"/><use xlink:href="#g" width="21.9" height="24.1" transform="matrix(.842 -.2799 .3253 .8177 -44.85 -91.1)"/><use xlink:href="#g" width="21.9" height="24.1" transform="matrix(.842 -.2799 .3253 .8177 -48.55 -86.6)"/><use xlink:href="#g" width="21.9" height="24.1" transform="matrix(.8114 -.3569 .3253 .8177 -48.2 -88.4)"/><use xlink:href="#g" width="21.9" height="24.1" transform="matrix(.8114 -.3569 .3253 .8177 -55 -80.95)"/><use xlink:href="#g" width="21.9" height="24.1" transform="matrix(.3254 .8215 .8081 -.3541 -42.55 -89.85)"/><use xlink:href="#g" width="21.9" height="24.1" transform="matrix(1.0257 -.6528 .339 1.1031 -50.3 -89.5)"/><use xlink:href="#g" width="21.9" height="24.1" transform="matrix(.8114 -.3569 .3253 .8177 -46.6 -93.35)"/><use xlink:href="#g" width="21.9" height="24.1" transform="matrix(.9853 -.3431 .3015 .9811 -47.6 -84.85)"/><use xlink:href="#g" width="21.9" height="24.1" transform="matrix(.8114 -.3569 .3253 .8177 -52.35 -82.35)"/><use xlink:href="#g" width="21.9" height="24.1" transform="matrix(.8435 -.2861 .2502 .8389 -51.95 -84.25)"/><use xlink:href="#g" width="21.9" height="24.1" transform="matrix(.8114 -.3569 .5075 .7376 -54.45 -81)"/><use xlink:href="#h" width="21.9" height="24.1" transform="matrix(.2486 .7503 -.7669 .1763 -52 -71)"/><use xlink:href="#h" width="21.9" height="24.1" transform="matrix(-.7887 .004 .0776 .7814 -52.75 -73.5)"/><use xlink:href="#h" width="21.9" height="24.1" transform="matrix(-.7624 -.2048 -.1317 .7748 -49.85 -74)"/><use xlink:href="#h" width="21.9" height="24.1" transform="matrix(-.7102 .346 .4093 .6716 -34.85 -70.6)"/><use xlink:href="#h" width="21.9" height="24.1" transform="matrix(-.7277 .308 .3732 .6925 -37.5 -70.6)"/><use xlink:href="#h" width="21.9" height="24.1" transform="rotate(165.51 -17.68 -43.58)scale(.787 -.787)"/><use xlink:href="#h" width="21.9" height="24.1" transform="matrix(-.7476 .2464 .2464 .7476 -48.6 -76.8)"/><use xlink:href="#h" width="21.9" height="24.1" transform="matrix(-.7476 .2464 .2464 .7476 -43.4 -75.55)"/><use xlink:href="#h" width="21.9" height="24.1" transform="matrix(-.7708 .176 .2464 .7476 -45.3 -76.1)"/><use xlink:href="#h" width="21.9" height="24.1" transform="matrix(-.7708 .176 .2464 .7476 -41.05 -85.8)"/><use xlink:href="#h" width="21.9" height="24.1" transform="matrix(.2486 .7503 -.7669 .1763 -53.3 -73.45)"/><use xlink:href="#h" width="21.9" height="24.1" transform="matrix(-.9937 .3118 .4019 .9558 -42.35 -75.6)"/><use xlink:href="#h" width="21.9" height="24.1" transform="matrix(-.7522 .2428 .3109 .7229 -40.6 -74.95)"/><use xlink:href="#h" width="21.9" height="24.1" transform="matrix(-.7708 .176 .0734 .7871 -38 -85.75)"/><use xlink:href="#h" width="21.9" height="24.1" transform="matrix(-1.0909 .0804 .4019 .9558 -35.8 -88.15)"/><use xlink:href="#h" width="21.9" height="24.1" transform="matrix(-.7708 .176 .2464 .7476 -36.7 -85.5)"/><use xlink:href="#h" width="21.9" height="24.1" transform="matrix(-.7277 .308 .3732 .6925 -40.4 -70.1)"/><use xlink:href="#h" width="21.9" height="24.1" transform="matrix(-.7522 .2428 .3109 .7229 -36.2 -83.2)"/><use xlink:href="#h" width="21.9" height="24.1" transform="matrix(-.7522 .2428 .3109 .7229 -39.55 -72.85)"/><use xlink:href="#h" width="21.9" height="24.1" transform="matrix(-.7277 .308 .3732 .6925 -36.55 -78.95)"/><use xlink:href="#h" width="21.9" height="24.1" transform="matrix(-.7277 .308 .3732 .6925 -36.5 -71.95)"/><use xlink:href="#h" width="21.9" height="24.1" transform="matrix(-.7522 .2428 .3109 .7229 -30.45 -86.35)"/><use xlink:href="#h" width="21.9" height="24.1" transform="matrix(-.7522 .2428 .3109 .7229 -32.5 -87.35)"/><use xlink:href="#h" width="21.9" height="24.1" transform="matrix(-.7887 .004 .0776 .7814 -53.25 -72.5)"/><use xlink:href="#h" width="21.9" height="24.1" transform="matrix(-.7206 .3236 .388 .6841 -31.75 -84.95)"/><use xlink:href="#g" width="21.9" height="24.1" transform="matrix(-1.1505 -.3236 -.0343 1.163 -39.3 -81.45)"/><use xlink:href="#g" width="21.9" height="24.1" transform="matrix(-1.1505 -.3236 -.0343 1.163 -41.65 -84.65)"/><use xlink:href="#g" width="21.9" height="24.1" transform="matrix(-1.1505 -.3236 -.0343 1.163 -44.9 -86.75)"/><use xlink:href="#g" width="21.9" height="24.1" transform="matrix(-1.1554 -.1559 -.0343 1.163 -34.55 -81.75)"/><use xlink:href="#g" width="21.9" height="24.1" transform="matrix(-.8859 -.0215 -.1305 .8745 -44.65 -91.55)"/><use xlink:href="#g" width="21.9" height="24.1" transform="matrix(-.8859 -.0215 -.1305 .8745 -42.4 -91.1)"/><use xlink:href="#g" width="21.9" height="24.1" transform="matrix(-.8859 -.0215 -.1305 .8745 -37.8 -87.85)"/><use xlink:href="#g" width="21.9" height="24.1" transform="matrix(-.8736 -.1039 -.1305 .8745 -38.6 -89.5)"/><use xlink:href="#g" width="21.9" height="24.1" transform="matrix(-.8736 -.1039 -.1305 .8745 -30.25 -84.35)"/><use xlink:href="#g" width="21.9" height="24.1" transform="matrix(-.1297 .8782 -.8698 -.1021 -44.35 -89.25)"/><use xlink:href="#g" width="21.9" height="24.1" transform="matrix(-1.1505 -.3236 -.0785 1.1506 -36.7 -91.15)"/><use xlink:href="#g" width="21.9" height="24.1" transform="matrix(-.8736 -.1039 -.1305 .8745 -41.2 -93.75)"/><use xlink:href="#g" width="21.9" height="24.1" transform="matrix(-1.0402 -.0401 -.0699 1.0233 -38.35 -85.95)"/><use xlink:href="#g" width="21.9" height="24.1" transform="matrix(-.8736 -.1039 -.1305 .8745 -33.1 -84.95)"/><use xlink:href="#g" width="21.9" height="24.1" transform="matrix(-.8887 -.0271 -.0523 .8728 -33.95 -86.65)"/><use xlink:href="#g" width="21.9" height="24.1" transform="matrix(-.8736 -.1039 -.3266 .8512 -30.8 -84.3)"/><use xlink:href="#g" width="21.9" height="24.1" transform="matrix(-.2486 .7503 .7669 .1763 -22.1 -79.55)"/><use xlink:href="#g" width="21.9" height="24.1" transform="matrix(.7887 .004 -.0776 .7814 -21.35 -82.05)"/><use xlink:href="#g" width="21.9" height="24.1" transform="matrix(.7624 -.2048 .1317 .7748 -24.25 -82.55)"/><use xlink:href="#g" width="21.9" height="24.1" transform="matrix(.7102 .346 -.4093 .6716 -39.25 -79.15)"/><use xlink:href="#g" width="21.9" height="24.1" transform="matrix(.7277 .308 -.3732 .6925 -36.6 -79.15)"/><use xlink:href="#g" width="21.9" height="24.1" transform="rotate(14.49 339.38 -156.648)scale(.787)"/><use xlink:href="#g" width="21.9" height="24.1" transform="rotate(18.242 253.061 -122.091)scale(.7872)"/><use xlink:href="#g" width="21.9" height="24.1" transform="rotate(18.242 246.568 -137.661)scale(.7872)"/><use xlink:href="#g" width="21.9" height="24.1" transform="matrix(.7708 .176 -.2464 .7476 -28.8 -84.65)"/><use xlink:href="#g" width="21.9" height="24.1" transform="matrix(.7708 .176 -.2464 .7476 -33.05 -94.35)"/><use xlink:href="#g" width="21.9" height="24.1" transform="matrix(-.2486 .7503 .7669 .1763 -20.8 -82)"/><use xlink:href="#g" width="21.9" height="24.1" transform="matrix(.9937 .3118 -.4019 .9558 -31.75 -84.15)"/><use xlink:href="#g" width="21.9" height="24.1" transform="matrix(.7522 .2428 -.3109 .7229 -33.5 -83.5)"/><use xlink:href="#g" width="21.9" height="24.1" transform="matrix(.7708 .176 -.0734 .7871 -36.1 -94.3)"/><use xlink:href="#g" width="21.9" height="24.1" transform="matrix(1.0909 .0804 -.4019 .9558 -38.3 -96.7)"/><use xlink:href="#g" width="21.9" height="24.1" transform="matrix(.7708 .176 -.2464 .7476 -37.4 -94.05)"/><use xlink:href="#g" width="21.9" height="24.1" transform="matrix(.7277 .308 -.3732 .6925 -33.7 -78.65)"/><use xlink:href="#g" width="21.9" height="24.1" transform="matrix(.7522 .2428 -.3109 .7229 -37.9 -91.75)"/><use xlink:href="#g" width="21.9" height="24.1" transform="matrix(.7522 .2428 -.3109 .7229 -34.55 -81.4)"/><use xlink:href="#g" width="21.9" height="24.1" transform="matrix(.7277 .308 -.3732 .6925 -37.55 -87.5)"/><use xlink:href="#g" width="21.9" height="24.1" transform="matrix(.7277 .308 -.3732 .6925 -37.6 -80.5)"/><use xlink:href="#g" width="21.9" height="24.1" transform="matrix(.7522 .2428 -.3109 .7229 -43.65 -94.9)"/><use xlink:href="#g" width="21.9" height="24.1" transform="matrix(.7522 .2428 -.3109 .7229 -41.6 -95.9)"/><use xlink:href="#g" width="21.9" height="24.1" transform="matrix(.7887 .004 -.0776 .7814 -20.85 -81.05)"/><use xlink:href="#g" width="21.9" height="24.1" transform="matrix(.7206 .3236 -.388 .6841 -42.35 -93.5)"/></g></g></svg>