<svg xmlns="http://www.w3.org/2000/svg" xmlns:xlink="http://www.w3.org/1999/xlink" width="187" height="88" viewBox="0 0 187 88"><defs><g id="i"><path fill="none" stroke="#32370b" stroke-linecap="round" stroke-linejoin="round" stroke-width="3" d="M69.3 2v24.5m52.5-15.7V26M14.8 1.5V26"/><path fill="#b0af28" d="M10.1 9q2.9 3 4.2 5.8 1.2 2.8.2 3.9-1.1 1-4-.2-2.7-1.3-5.6-4.2T.7 8.5.5 4.6t3.9.2 5.7 4.3"/><path fill="none" stroke="#660" stroke-linecap="round" stroke-linejoin="round" stroke-width="__RESOLUTION__" d="M10.1 9q2.9 3 4.2 5.8 1.2 2.8.2 3.9-1.1 1-4-.2-2.7-1.3-5.6-4.2T.7 8.5.5 4.6t3.9.2 5.7 4.3" vector-effect="non-scaling-stroke"/><path fill="#b0af28" d="M21.2 8.6q3.3-2.3 6.3-3.2 3-.8 3.9.5.9 1.2-.9 3.7-1.6 2.7-5 5-3.3 2.5-6.3 3.3-3 .9-4-.4-.8-1.2.9-3.9 1.8-2.5 5-5"/><path fill="none" stroke="#660" stroke-linecap="round" stroke-linejoin="round" stroke-width="__RESOLUTION__" d="M21.2 8.6q3.3-2.3 6.3-3.2 3-.8 3.9.5.9 1.2-.9 3.7-1.6 2.7-5 5-3.3 2.5-6.3 3.3-3 .9-4-.4-.8-1.2.9-3.9 1.8-2.5 5-5" vector-effect="non-scaling-stroke"/><path fill="#b0af28" d="M59.3 15.6q-2.9-2.9-4.2-5.7t-.2-4 3.9.2q2.9 1.4 5.8 4.3 2.8 2.9 4 5.8Q70 19 69 20q-1.2 1-4-.2-2.8-1.4-5.6-4.3"/><path fill="none" stroke="#660" stroke-linecap="round" stroke-linejoin="round" stroke-width="__RESOLUTION__" d="M59.3 15.6q-2.9-2.9-4.2-5.7t-.2-4 3.9.2q2.9 1.4 5.8 4.3 2.8 2.9 4 5.8Q70 19 69 20q-1.2 1-4-.2-2.8-1.4-5.6-4.3" vector-effect="non-scaling-stroke"/><path fill="#b0af28" d="M79.7 17q-3.3 2.4-6.3 3.2t-4-.3q-.9-1.3.9-4 1.8-2.5 5-4.9 3.4-2.4 6.4-3.2t3.8.4-.7 3.8q-1.7 2.6-5.1 5"/><path fill="none" stroke="#660" stroke-linecap="round" stroke-linejoin="round" stroke-width="__RESOLUTION__" d="M79.7 17q-3.3 2.4-6.3 3.2t-4-.3q-.9-1.3.9-4 1.8-2.5 5-4.9 3.4-2.4 6.4-3.2t3.8.4-.7 3.8q-1.7 2.6-5.1 5" vector-effect="non-scaling-stroke"/><path fill="#b0af28" d="M116.6 16q2.2 1.6 3.4 3.2t.6 2.4-2.5.4q-2-.4-4.1-2-2.3-1.4-3.5-3t-.7-2.5 2.6-.3 4.2 1.9"/><path fill="none" stroke="#660" stroke-linecap="round" stroke-linejoin="round" stroke-width="__RESOLUTION__" d="M116.6 16q2.2 1.6 3.4 3.2t.6 2.4-2.5.4q-2-.4-4.1-2-2.3-1.4-3.5-3t-.7-2.5 2.6-.3 4.2 1.9" vector-effect="non-scaling-stroke"/><path fill="#b0af28" d="M129.3 20.3q-2.3 1.6-4.3 2.1-2 .7-2.7-.2-.5-.8.6-2.6t3.4-3.4 4.3-2.2q2-.5 2.6.3t-.5 2.6-3.4 3.4"/><path fill="none" stroke="#660" stroke-linecap="round" stroke-linejoin="round" stroke-width="__RESOLUTION__" d="M129.3 20.3q-2.3 1.6-4.3 2.1-2 .7-2.7-.2-.5-.8.6-2.6t3.4-3.4 4.3-2.2q2-.5 2.6.3t-.5 2.6-3.4 3.4" vector-effect="non-scaling-stroke"/></g><g id="h"><path fill="#fc0" d="M93.4 2.9q-3.5 0-6 2.5t-2.5 6 2.5 6 6 2.5 6-2.5 2.5-6-2.5-6-6-2.5m0-2.9q4.7 0 8 3.3t3.3 8-3.3 8q-3.3 3.4-8 3.4t-8-3.3Q82 16 82 11.4q0-4.8 3.3-8.1Q88.8 0 93.4 0"/><path fill="#cbdc52" fill-opacity=".6" d="M41 36.7q-24.2-2.5-41 2.4-.1-7 3.8-12.9 5-7.3 13.3-8.7 8.5-1.3 15.4 4.1 7 5.5 8.5 14.5z"/></g><g id="e"><path fill="#ddc59b" d="m92.9 1.5.7-1.3L101 0l2.8.3.4 1.2h-1.9l-.7 2.5-1.7-2.2-2.3-.3-1.2 3.2-1.6-3.2z"/><path fill="#849c1f" d="M92.9 1.5h1.9l1.6 3.2 1.2-3.2 2.3.3 1.6 2.2.8-2.5h1.9V60h-3.6q1-9.5 1.5-21 .5-15.4-.5-29.7V4v5.4q1 14.3.5 29.7-.5 11.5-1.5 21H93z"/><path fill="#555814" d="M104.3 60v5.6H92.9v-5.5zm-3.7 0-.5 5.5z"/><path fill="none" stroke="#3c3213" stroke-linecap="round" stroke-linejoin="round" stroke-width="__RESOLUTION__" d="m104.2 1.5-.5-1.2L101 0l-7.4.2-.7 1.3h0v64.1h11.4z" vector-effect="non-scaling-stroke"/><path fill="none" stroke="#926c30" stroke-linecap="round" stroke-linejoin="round" stroke-width="__RESOLUTION__" d="M100.6 60q1-9.4 1.5-21 .5-15.3-.5-29.6V4M100 65.7l.5-5.5" vector-effect="non-scaling-stroke"/><path fill="#cbdc52" fill-opacity=".6" d="M109.8 52.9q14.6 2.3 14.6 5.6v.2q-37.8-6.3-100.1 0v-.2q0-3.3 14.6-5.6t35.4-2.3 35.5 2.3"/><path fill="#ddc59b" d="M147 8.6h-2l-.6 2-.1.6-1.7-2.3-2.2-.3-1.3 3.2-1.5-3.2h-2l1-2.3 7.9.2 2.1-.2z"/><path fill="#849c1f" d="m144.5 10.7.6-2.1h1.9v52l-2.1-.7-1.3.9-2.2 1q-1.5.9-3.4.7-1 1.1-2.4 1.5V8.6h2l1.5 3.2 1.3-3.2 2.2.3 1.7 2.3zm-.1.5q1.8 24.4-.7 49.6 2.5-25.2.7-49.6"/><path fill="#555814" d="m143.6 60.8 1.3-1 2.1.9v6.7h-11.4v-3.5q1.3-.3 2.4-1.4 1.9.2 3.4-.6zl-.8 6.6z"/><path fill="none" stroke="#3c3213" stroke-linecap="round" stroke-linejoin="round" stroke-width="__RESOLUTION__" d="m147 8.6-.4-2.3-2.1.2-7.9-.2-1 2.3v58.8H147z" vector-effect="non-scaling-stroke"/><path fill="none" stroke="#926c30" stroke-linecap="round" stroke-linejoin="round" stroke-width="__RESOLUTION__" d="m144.3 11.2.1-.5m-.8 50.1q2.5-25.2.7-49.6m-.7 49.6-.8 6.6" vector-effect="non-scaling-stroke"/><path fill="#cbdc52" fill-opacity=".6" d="M143.1 63.9H0v-.2q0-3.5 20.9-5.9 21-2.4 50.7-2.4t50.6 2.4 21 5.9z"/><path fill="#fc0" d="M6 20.4q0-4.7 3.3-8.1t8-3.3 8 3.3q3.4 3.4 3.4 8 0 4.8-3.4 8-3.3 3.4-8 3.4t-8-3.3-3.3-8m11.3-8.5q-3.5 0-6 2.5-2.4 2.5-2.4 6t2.4 6 6 2.5 6-2.5 2.5-6-2.5-6-6-2.5"/><path fill="#cbdc52" fill-opacity=".6" d="M100.4 32.2q10.5 0 18 8t7.4 19.4v.7q-29.2-7.8-50.7-5 1.3-8.6 7.2-15.1 7.5-8 18-8"/></g><g id="d"><path fill="#80552b" d="m91 83.4-8.4-14.1.8-16L91 65.9q.3 11.7.8 18.5h-.2z"/><path fill="#d6af83" d="m90.9 65.8 10.7 18.5h-9.8q-.6-6.8-.9-18.5m.6 18.5-.5-.9z"/><path fill="none" stroke="#855e2a" stroke-linecap="round" stroke-linejoin="round" stroke-width="__RESOLUTION__" d="m91 83.4-8.4-14.1m.8-16L91 65.9l10.7 18.5H91.6l-.5-.9" vector-effect="non-scaling-stroke"/><path fill="#849c1f" d="M63.9 24.1h2l.9.3 1.5-.4 2.6.4q1.3.2 1.8.6v.3l-.1 1 .3 2.5v6.5l.1 1.9.1 1.7q.4 7.6.2 15.3l-.3 6.2-.2 1.2-.2 10.5-.1 2-.2.2-.5 3.9-3.2.7-3.3-1.7-1 .4V55.4q2.5-.4 4.3-2.3 2.4-2.3 2.4-5.5T68.6 42q-1.8-1.9-4.3-2.2v-13H64l-.2-.9zm.2 2.7h.2v13H63l-1.5.1v-1l.1-10V28l.6-1.3zm.2 28.6v22.2l-3.4 1-3.1 1-3.6-1-1.4 1.8V26.7h2l1.6 2 1.2-2 2.3.2 1.7 1.4V40q-2.3.4-4 2.1-2.4 2.3-2.4 5.6t2.4 5.5q2 2.1 4.8 2.3h1.8m7.6 22.8.5-3.9.2-.2v-2l.3-10.5.2-1.2.3-6.2q.2-7.7-.2-15.3l-.1-1.7v-3.5l-.1-2.5v-2.4l-.3-2.5.1-1v-.8l.6-.4h2v54q-1.6-.2-3.5.1m-9.4-22.8-.2 5-.1 1.2-.3 10.5-.3 2v.2l-.6 4.3.6-4.3v-.2l.3-2 .3-10.5v-1.2z"/><path fill="#ddc59b" d="M72.7 25q-.5-.4-1.8-.6l-2.6-.4-1.5.4-1-.3H64l.6-1.7q3.8-1 10.6-.2l.2 2h-2l-.5.3zm-8.8.9.2.9h-1.8l-.6 1.3v11.4l-.1-.6V28.4L59.9 27l-2.3-.2-1.2 2-1.6-2h-2l.9-.9z"/><path fill="#555814" d="m64.3 77.6 1-.3 3.3 1.6 3.3-.7q1.8-.3 3.4 0v5.4H63.9v-.1h-11v-3.2l1.3-1.7 3.5 1 3.2-1zv5.9h-.4.4zM60 83.5l.8-4.9zm11 .1.8-5.4z"/><path fill="#776426" d="M61.6 38.9v.9z"/><path fill="#ad8a38" d="M61.7 39.5v.4h-.1v-.4"/><path fill="none" stroke="#3c3213" stroke-linecap="round" stroke-linejoin="round" stroke-width="__RESOLUTION__" d="M63.9 24.1V26l.2.9h.2v13m0 15.6v28.1h-.4v.1h11.4V24.1h0l-.2-1.9q-6.7-.8-10.6.2l-.6 1.7m-11 2.7.8-.9h10.2m-11 54.5V26.7m11 56.7h-11v-3.2" vector-effect="non-scaling-stroke"/><path fill="none" stroke="#926c30" stroke-linecap="round" stroke-linejoin="round" stroke-width="__RESOLUTION__" d="m71.9 78.2.3-3.9.3-.2v-2l.3-10.5.2-1.2.3-6.2q.2-7.7-.2-15.3l-.1-1.7v-3.5l-.1-2.5v-2.4l-.3-2.5h0l.1-1v-.8m-11.1 4v11.4m0-1v.9m-.7 38.8.6-4.3v-.2l.3-2 .3-10.5v-1.2l.3-5m-1.5 23.2-.8 4.9m11.7-5.3-.7 5.4" vector-effect="non-scaling-stroke"/><path fill="#849c1f" d="M20.4 1.4v76.4l-3.7-.7.9-16.2v-.7q.9-11 1-22 0-12.3-.9-24.4l.2-.5V3.4l.6-2zm-2.6 12.4q.8 12.1.8 24.3-.1 11.1-1 22.1v.7l-.9 16.2-.3-.1-4.2 2.6-.8-.5v-33q2.7-.4 4.6-2.4 1-.9 1.5-2t.8-2.7v-.9q0-3.3-2.3-5.6-2-2-4.6-2.2V10.6v19.6l-1-.1h-1l-.3-10v-1l-.4-5.9.1-1.2v-.9l.6-.5h2l-.2-2.4L9 8.1V1.4h2l1.6 3.2 1.2-3.2 2.3.3L17.7 4v9.8M0 80.3V10.7h2l.9.3 1.5-.5L7 11q1.3.3 1.8.8v.3l-.1 1.2.3 6 .1 1 .3 10q-2.7.2-4.6 2.2-2.3 2.3-2.4 5.8.1 3.2 2.4 5.4 1.8 2 4.4 2.3l1.2.1h1v33L9.5 78l-5.2 3-.7-.3zm7.2-4.1 1-15.3v-.7L9 48l.2-2-.2 2-.8 12.2v.7z"/><path fill="#ddc59b" d="M20.4 1.4h-1.9l-.6 2v10l-.1-3.5V4L16 1.7l-2.3-.3-1.2 3.2L11 1.4H9L9.9.1 20.2 0zM0 10.7l.5-2Q3.8 7.6 9 8.1l2.3.2v2.4H9.5l-.6.5v.6q-.5-.6-1.8-.8l-2.6-.5L3 11l-1-.3z"/><path fill="#776426" d="m17.9 13.3-.1.5V9.9z"/><path fill="#555814" d="m16.7 77 3.8.8v6H0v-3.5l3.6.3.7.3 5.2-3 1.9 1.2.7.5 4.3-2.6zl-.4 6.8zm-5.3 6.8V79z"/><path fill="none" stroke="#3c3213" stroke-linecap="round" stroke-linejoin="round" stroke-width="__RESOLUTION__" d="M20.5 77.8V1.4h-.1L20 0 9.8.1 9 1.4v6.7q-5.2-.5-8.5.6l-.5 2v73.1h20.4zm-9-67.1v19.6m0 15.7v38M9 8l2.3.2v2.4" vector-effect="non-scaling-stroke"/><path fill="none" stroke="#676618" stroke-linecap="round" stroke-linejoin="round" stroke-width="__RESOLUTION__" d="m17.9 13.3-.1.5q.8 12.1.8 24.3-.1 11.1-1 22.1v.7l-.9 16.2-.4 6.8m1.4-74 .2 3.4m-.1.5V4m-9.1 9.3.3 6 .1 1 .3 10M9.2 46 9 48l-.8 12.2v.7l-1 15.3" vector-effect="non-scaling-stroke"/><path fill="none" stroke="#563c1d" stroke-linecap="round" stroke-linejoin="round" stroke-width="__RESOLUTION__" d="M11.4 30.3q2.7.2 4.6 2.2 2.4 2.3 2.4 5.6l-.1 1q-.2 1.4-.8 2.6-.6 1.1-1.5 2-2 2-4.6 2.3l-1 .1-1.2-.1q-2.5-.4-4.4-2.3-2.3-2.2-2.4-5.4.1-3.5 2.4-5.8 2-2 4.6-2.2l1-.1z" vector-effect="non-scaling-stroke"/><path fill="none" stroke="#535313" stroke-linecap="round" stroke-linejoin="round" stroke-width="__RESOLUTION__" d="m8.9 11.2-.1.6v.3l-.1 1.2h0" vector-effect="non-scaling-stroke"/><path fill="#ddc59b" d="m20.5 16.4 1-2.3 7.9.2 2.1-.2.4 2.3h-2l-.6 2-.2.6-1.6-2.3-2.3-.3-1.2 3.2-1.6-3.2z"/><path fill="#849c1f" d="M20.5 16.4h1.9l1.6 3.2 1.2-3.2 2.3.3L29 19l.2-.6.6-2h2v60.2l-2.1-.8-1.4.9q2-20.2 1.2-39.7v-2.3l-.2-12.6-.1-1.5L29 19l.1 1.6.2 1.5.2 12.6V37q.9 19.5-1.2 39.7l-2.1 1q-1.6.8-3.4.6-1.1 1.2-2.4 1.5z"/><path fill="#555814" d="M31.9 76.6v6.7H20.5v-3.5q1.3-.3 2.4-1.5 1.9.3 3.4-.5l2.1-1.1 1.4-1zm-4.2 6.8.8-6.6z"/><path fill="none" stroke="#3c3213" stroke-linecap="round" stroke-linejoin="round" stroke-width="__RESOLUTION__" d="m31.9 16.4-.4-2.3-2.1.2-8-.2-1 2.3v66.8H32V37m0-20.6v18.3" vector-effect="non-scaling-stroke"/><path fill="none" stroke="#926c30" stroke-linecap="round" stroke-linejoin="round" stroke-width="__RESOLUTION__" d="m29.2 19 .1-.6m-.2.6.1 1.6.2 1.5.2 12.6V37q.9 19.5-1.2 39.7l-.7 6.5" vector-effect="non-scaling-stroke"/></g><g id="b"><path fill="#ddc59b" d="m62.2 17.9.5-2q2.8-1 6.8-.7l2.8.2 1.2.1v2.4h-1.8l-.6.5-.1.5q-.5-.5-1.8-.7l-2.6-.5-1.5.5-1-.3z"/><path fill="#849c1f" d="M73.6 17.9V78l-3.6.2h-.4q-2.8.2-5.6-.9l-1.8 1V17.9h2l.9.3 1.5-.5 2.6.5q1.3.2 1.8.7v-.5l.7-.5zm-2.3 20.8-.1-6.1-.1-10-.2-1.7v-.5l.1-1.1v-.4.4l-.1 1.1v.5l.2 1.7v10zm.2 0q.3 7.9 0 15.9-.2 11.6-1.5 23.6 1.3-12 1.6-23.6.2-8-.1-15.9"/><path fill="#555814" d="M73.6 78v5.2H62.2v-5l1.8-.9q2.8 1.1 5.6.9h.4l-.6 5 .5-5z"/><path fill="none" stroke="#3c3213" stroke-linecap="round" stroke-linejoin="round" stroke-width="__RESOLUTION__" d="m62.2 17.9.5-2q2.8-1 6.8-.7l2.8.2 1.2.1v2.4h.1v3m0 1.7v10m0 6.1v44.5H62.2V17.9" vector-effect="non-scaling-stroke"/><path fill="none" stroke="#926c30" stroke-linecap="round" stroke-linejoin="round" stroke-width="__RESOLUTION__" d="M71 18.9v-.5m0 .5v.4l-.1 1.1h0v.5l.2 1.7v10l.2 6.1M70 78.2q1.3-12 1.6-23.6.2-8-.1-15.9M70 78.2l-.6 5" vector-effect="non-scaling-stroke"/><path fill="#849c1f" d="M82.6 21.8v58h-3.8q1.4-12.5 1.8-24.9.2-8.5-.2-17v-2.2l-.1-.6-.2-8.1v-1.2l-.2-1.4v-.1l.1-1v-1l.7-.5zm-2.5 1v.4l-.1 1.1v.1l.1 1.4.1 1.2.2 8v.7l.1 2.3q.3 8.4.1 16.9-.3 12.4-1.7 25h-7.6V21.7h2l.9.4 1.5-.5 2.6.4q1.3.3 1.8.8"/><path fill="#ddc59b" d="M82.6 21.8h-2l-.5.5-.1.6q-.5-.5-1.8-.8l-2.6-.4-1.5.5-1-.4h-1.9l.5-2 10.8-.3z"/><path fill="#555814" d="M78.8 79.9h3.8v3.6H71.2v-3.7zl-.4 3.5z"/><path fill="none" stroke="#3c3213" stroke-linecap="round" stroke-linejoin="round" stroke-width="__RESOLUTION__" d="M82.6 35.7V21.8h0l-.1-2.3-10.7.3-.6 2v61.8h11.4V37.8" vector-effect="non-scaling-stroke"/><path fill="none" stroke="#926c30" stroke-linecap="round" stroke-linejoin="round" stroke-width="__RESOLUTION__" d="M80 22.3v1l-.1 1v.1l.1 1.4.1 1.2.2 8v.7l.1 2.3q.3 8.4.1 16.9-.3 12.4-1.7 25l-.4 3.4" vector-effect="non-scaling-stroke"/><path fill="#ddc59b" d="m125.4 24.8 1-2.3 7.8.2 2.2-.2.3 2.3h-1.9l-.6 2-.1.6-1.7-2.4-2.3-.2-1.2 3.2-1.6-3.2z"/><path fill="#849c1f" d="M125.4 24.8h1.9l1.6 3.2 1.2-3.2 2.3.2 1.7 2.4.1-.6.6-2h2v52l-2.2-.8-1.3 1-2.1 1q-1.5.8-3.4.6-1.1 1.2-2.5 1.5zm8.8 2.6q1.8 24.3-.8 49.6 2.5-25.3.8-49.6"/><path fill="#555814" d="M136.8 76.8v6.7h-11.4v-3.4q1.3-.3 2.3-1.5 2 .2 3.5-.6l2.1-1 1.3-1zm-3.5.2-.7 6.5z"/><path fill="none" stroke="#3c3213" stroke-linecap="round" stroke-linejoin="round" stroke-width="__RESOLUTION__" d="m136.8 24.8-.4-2.3-2.2.2-7.8-.2-1 2.3v58.7h11.4z" vector-effect="non-scaling-stroke"/><path fill="none" stroke="#926c30" stroke-linecap="round" stroke-linejoin="round" stroke-width="__RESOLUTION__" d="m134 27.4.2-.6m-1.6 56.7.7-6.5q2.5-25.3.8-49.6" vector-effect="non-scaling-stroke"/><path fill="#d6af83" d="M10.8 64q-.3 11.8-.9 18.5H0zM10 82.5l.5-.8z"/><path fill="#80552b" d="M9.9 82.5q.6-6.7.8-18.5l7.5-12.4.8 16-8.4 14.1-.5.8z"/><path fill="none" stroke="#855e2a" stroke-linecap="round" stroke-linejoin="round" stroke-width="__RESOLUTION__" d="M10.8 64 0 82.5h10.1l.5-.8L19 67.6m-.8-16L10.8 64" vector-effect="non-scaling-stroke"/><path fill="#849c1f" d="M17.1 19.3h2l1.6 2.1 1.2-2.1 2.2.2 1.7 1.5v10l.1-4.4v-5.9l.6-1.4h2V76l-1.9-.3-1.3.7-3.3 1.9-4.9.2zm9.4 31.9q.6 12.5-1.2 25.2 1.8-12.7 1.2-25.2m-.4 0V46l-.3-12.3V31v2.7L26 46z"/><path fill="#ddc59b" d="m25.8 21-1.7-1.5-2.2-.2-1.2 2.1-1.7-2.1h-1.9l.8-.9h10.3l.2.9h-1.9l-.5 1.4v3.7h-.1v2.2-2.2h-.1z"/><path fill="#555814" d="m17.1 78.5 4.9-.2 3.3-1.9-1 6.2h4.2V76l-1.9-.3-1.3.7-1 6.2h-7.2z"/><path fill="#776426" d="M25.9 26.6V31l-.1-6.6z"/><path fill="none" stroke="#3c3213" stroke-linecap="round" stroke-linejoin="round" stroke-width="__RESOLUTION__" d="M17.1 19.3v63.3h11.4V19.3h-.1l-.2-1-10.3.1z" vector-effect="non-scaling-stroke"/><path fill="none" stroke="#676618" stroke-linecap="round" stroke-linejoin="round" stroke-width="__RESOLUTION__" d="M25.3 76.4q1.8-12.7 1.2-25.2m-.6-24.6V31l-.1 2.8.2 12.3.1 5m-.3-26.7V31m.1-4.4v-2.2m-.1 0V21m-1.5 61.6 1-6.2" vector-effect="non-scaling-stroke"/><path fill="#849c1f" d="M37.9 1.4h2l1.6 3.2 1.2-3.2 2.2.3L46.6 4v9.8q.9 12.2.9 24.4-.1 11-1 22l-.1.7-.8 16.2-.4-.1-4.2 2.6-.7-.4V46q2.6-.4 4.6-2.4.9-.9 1.5-2t.8-2.6v-1q0-3.2-2.4-5.6-1.9-2-4.5-2.2V10.6h-.1l-.1-2.3-2.2-.3zm2.3 9.3v19.6l-1-.1h-1l-.2-10-.1-1-.3-5.9v-1.5l.1-.6.6-.5zm0 35.4v33L38.5 78l-5.2 2.9-.7-.3-3.6-.3V10.7h1.9l1 .3 1.4-.5 2.6.5q1.4.3 1.9.8v.4l-.1 1v.1l.3 6v1l.4 10q-2.7.2-4.7 2.2-2.2 2.3-2.3 5.9 0 3.1 2.3 5.4 1.9 1.9 4.4 2.2l1.3.1zm5.3 31 .8-16.2v-.6q1-11.1 1-22.1.1-12.2-.8-24.4l.1-.4V10h-.1V4h.1v-.5l.6-2.1h2v76.4zm-9.5-.9.9-15.3v-.6q.6-6.2.9-12.2L38 46l-.1 2-.8 12.3-.1.6z"/><path fill="#ddc59b" d="m46.6 4-1.7-2.3-2.2-.3-1.2 3.2-1.6-3.2h-2l.8-1.3L49 0l.2 1.4h-1.9l-.5 2V4zm-8.7 4.1 2.2.3.1 2.3h-1.9l-.6.5v.6q-.5-.6-1.9-.8l-2.5-.5-1.5.5-1-.3h-2l.6-2q3.3-1.1 8.5-.6m8.7 1.9h.1v3.4z"/><path fill="#555814" d="m40.3 79.2.7.4 4.3-2.6h.3l-.6 7h-4.9zL38.5 78l-5.2 2.9-.7-.3-3.6-.3v3.6h11.4zm4.8 4.7.5-6.8 3.7.7v6z"/><path fill="#776426" d="M46.6 13.8V10l.1 3.4z"/><path fill="none" stroke="#3c3213" stroke-linecap="round" stroke-linejoin="round" stroke-width="__RESOLUTION__" d="M37.9 1.4v6.7l2.2.3.1 2.3h0v19.6m0 15.8v37.8h9.1V1.4h-.1L49 0 38.7.1l-.8 1.3m0 6.7q-5.2-.5-8.5.6l-.5 2v73.2h11.4" vector-effect="non-scaling-stroke"/><path fill="none" stroke="#563c1d" stroke-linecap="round" stroke-linejoin="round" stroke-width="__RESOLUTION__" d="M40.3 30.3q2.6.2 4.6 2.2 2.3 2.4 2.3 5.7v.9q-.2 1.4-.9 2.6-.5 1.1-1.4 2-2 2-4.6 2.4h-1L38 46q-2.5-.3-4.4-2.2-2.2-2.3-2.3-5.4 0-3.6 2.3-5.9 2-2 4.6-2.2l1-.1z" vector-effect="non-scaling-stroke"/><path fill="none" stroke="#676618" stroke-linecap="round" stroke-linejoin="round" stroke-width="__RESOLUTION__" d="M45.6 77q.5-8 .8-16.1v-.6q1-11.1 1-22.1.1-12.2-.8-24.4V4m-9 9.3.3 6v1l.4 10m8.4-17-.1.5m.1-.4-.1-3.4m-1.5 73.9.5-6.8M38 46l-.1 2-.8 12.3-.1.6-1 15.3" vector-effect="non-scaling-stroke"/><path fill="none" stroke="#535313" stroke-linecap="round" stroke-linejoin="round" stroke-width="__RESOLUTION__" d="M37.7 11.8v-.6m0 .6v.4l-.1 1v.1" vector-effect="non-scaling-stroke"/><path fill="#ddc59b" d="m49.5 22.8.6-1.9 7.6-.6 3.3.2h1.3v2.3h-2.1l-.6.4-.1.5q-.6-.4-2.1-.7l-3-.4-1.6.4-1.1-.2z"/><path fill="#849c1f" d="M62.4 22.8V78l-4.1.2h-.5q-3.1.2-6.3-.8l-2 .8V22.8h2.2l1 .2 1.8-.4 2.9.4q1.5.3 2 .7l.2-.5.6-.4zM59.9 42l-.1-5.7-.1-9.2-.2-1.6v-1.8 1.8l.2 1.6v9.1zm.4 0q.2 7.2 0 14.5-.4 10.8-1.8 21.8 1.5-11 1.8-21.8.2-7.3 0-14.5"/><path fill="#555814" d="M62.4 78.1v4.8H49.5v-4.6l2-.8q3.2 1 6.3.8h.5l-.6 4.6.6-4.6z"/><path fill="none" stroke="#3c3213" stroke-linecap="round" stroke-linejoin="round" stroke-width="__RESOLUTION__" d="m49.5 22.8.6-1.9 7.6-.6 3.3.2h1.3v2.3h.1v2.7m0 1.6v9.1m0 5.8v40.9H49.5V22.8" vector-effect="non-scaling-stroke"/><path fill="none" stroke="#926c30" stroke-linecap="round" stroke-linejoin="round" stroke-width="__RESOLUTION__" d="M59.5 23.7v-.5m0 .5v.3l-.1 1.1v.4l.2 1.6v9.1l.1 5.8m-1.4 36.3q1.5-11 1.8-21.8.2-7.3 0-14.5m-1.8 36.3-.6 4.6" vector-effect="non-scaling-stroke"/></g><path id="g" fill="#fc0" d="M8.8-57.5q0-3.6-2.6-6Q3.9-66 .3-66q-3.4 0-6 2.5-2.4 2.4-2.4 6 0 3.5 2.4 5.9 2.6 2.5 6 2.5 3.6 0 6-2.5 2.6-2.4 2.6-6m2.8 0q0 4.7-3.3 8-3.4 3.4-8 3.4-4.7 0-8.1-3.4-3.3-3.3-3.3-8t3.3-8q3.4-3.4 8-3.4 4.8 0 8 3.3 3.4 3.4 3.4 8.1" transform="translate(11.1 68.95)"/><path id="f" fill="#474e18" d="M3.6-6q1.5 0 2.6 1.7 1 1.8 1 4.3t-1 4.3T3.6 6 1.1 4.3 0 0t1-4.3T3.7-6" transform="translate(0 6.05)"/><path id="c" fill="#fff" d="M3.6-7.6q1.5 0 2.6 3.3 1 3.3 1 8H0q0-4.7 1-8 1.1-3.3 2.6-3.3" transform="translate(0 7.6)"/><clipPath id="a"><path d="M1 1h185v86H1z"/></clipPath></defs><g clip-path="url(#a)"><g transform="translate(93.7 97.2)"><use xlink:href="#b" width="136.8" height="83.8" transform="translate(-92.7 -96.2)"/><use xlink:href="#c" width="7.2" height="11.3" transform="translate(-56.25 -76.4)scale(.7702)"/><use xlink:href="#c" width="7.2" height="11.3" transform="translate(-50.7 -39.65)scale(-.7702)"/><use xlink:href="#c" width="7.2" height="11.3" transform="rotate(-90 -63.55 8.3)scale(.7702)"/><use xlink:href="#c" width="7.2" height="11.3" transform="rotate(90 12.85 -47.95)scale(.7702)"/><use xlink:href="#c" width="7.2" height="11.3" transform="rotate(-45 -117.636 48.076)scale(.7702)"/><use xlink:href="#c" width="7.2" height="11.3" transform="rotate(135 -9.541 -31.484)scale(.7702)"/><use xlink:href="#c" width="7.2" height="11.3" transform="rotate(225 -41.201 -8.181)scale(.7702)"/><use xlink:href="#c" width="7.2" height="11.3" transform="rotate(45 66.919 -87.681)scale(.7702)"/><use xlink:href="#c" width="7.2" height="11.3" transform="rotate(25.018 146.464 -145.049)scale(.7687)"/><use xlink:href="#c" width="7.2" height="11.3" transform="rotate(205.018 -33.446 -13.485)scale(.7687)"/><use xlink:href="#c" width="7.2" height="11.3" transform="rotate(-64.982 -84.723 23.954)scale(.7687)"/><use xlink:href="#c" width="7.2" height="11.3" transform="rotate(115.018 -.808 -37.41)scale(.7687)"/><use xlink:href="#c" width="7.2" height="11.3" transform="rotate(-19.984 -241.029 138.221)scale(.7687)"/><use xlink:href="#c" width="7.2" height="11.3" transform="rotate(160.016 -18.378 -24.58)scale(.7687)"/><use xlink:href="#c" width="7.2" height="11.3" transform="rotate(250.016 -51.665 -.183)scale(.7687)"/><use xlink:href="#c" width="7.2" height="11.3" transform="rotate(70.016 29.232 -59.367)scale(.7687)"/><use xlink:href="#d" width="101.7" height="84.3" transform="translate(-10.1 -96.1)"/><use xlink:href="#c" width="7.2" height="11.3" transform="translate(-2.45 -76.4)scale(.7702)"/><use xlink:href="#c" width="7.2" height="11.3" transform="translate(3.1 -39.65)scale(-.7702)"/><use xlink:href="#c" width="7.2" height="11.3" transform="rotate(-90 -36.65 -18.6)scale(.7702)"/><use xlink:href="#c" width="7.2" height="11.3" transform="rotate(90 39.75 -21.05)scale(.7702)"/><use xlink:href="#c" width="7.2" height="11.3" transform="rotate(-45 -90.736 -16.866)scale(.7702)"/><use xlink:href="#c" width="7.2" height="11.3" transform="rotate(135 17.359 -20.342)scale(.7702)"/><use xlink:href="#c" width="7.2" height="11.3" transform="rotate(225 -14.301 -19.324)scale(.7702)"/><use xlink:href="#c" width="7.2" height="11.3" transform="rotate(45 93.819 -22.739)scale(.7702)"/><use xlink:href="#c" width="7.2" height="11.3" transform="rotate(25.018 173.364 -23.802)scale(.7687)"/><use xlink:href="#c" width="7.2" height="11.3" transform="rotate(205.018 -6.546 -19.454)scale(.7687)"/><use xlink:href="#c" width="7.2" height="11.3" transform="rotate(-64.982 -57.823 -18.285)scale(.7687)"/><use xlink:href="#c" width="7.2" height="11.3" transform="rotate(115.018 26.092 -20.28)scale(.7687)"/><use xlink:href="#c" width="7.2" height="11.3" transform="rotate(-19.984 -214.129 -14.463)scale(.7687)"/><use xlink:href="#c" width="7.2" height="11.3" transform="rotate(160.016 8.522 -19.841)scale(.7687)"/><use xlink:href="#c" width="7.2" height="11.3" transform="rotate(250.016 -24.765 -19.024)scale(.7687)"/><use xlink:href="#c" width="7.2" height="11.3" transform="rotate(70.016 56.132 -20.96)scale(.7687)"/><use xlink:href="#e" width="147" height="67.3" transform="translate(-71.1 -78.45)"/><use xlink:href="#f" width="7.2" height="12.1" transform="matrix(.5 0 0 .5 40.15 -32.2)"/><use xlink:href="#g" width="22.7" height="22.7" transform="translate(-11.1 -68.95)"/><use xlink:href="#c" width="7.2" height="11.3" transform="translate(49.3 -67.15)scale(.7702)"/><use xlink:href="#c" width="7.2" height="11.3" transform="translate(54.85 -30.4)scale(-.7702)"/><use xlink:href="#c" width="7.2" height="11.3" transform="matrix(0 -.7702 .7702 0 33.7 -46)"/><use xlink:href="#c" width="7.2" height="11.3" transform="rotate(90 61 9.45)scale(.7702)"/><use xlink:href="#c" width="7.2" height="11.3" transform="rotate(-45 -53.695 -74.709)scale(.7702)"/><use xlink:href="#c" width="7.2" height="11.3" transform="rotate(135 41.318 -4.999)scale(.7702)"/><use xlink:href="#c" width="7.2" height="11.3" transform="rotate(225 13.49 -25.416)scale(.7702)"/><use xlink:href="#c" width="7.2" height="11.3" transform="rotate(45 108.528 44.354)scale(.7702)"/><use xlink:href="#c" width="7.2" height="11.3" transform="rotate(25.018 178.392 97.45)scale(.7687)"/><use xlink:href="#c" width="7.2" height="11.3" transform="rotate(205.018 20.356 -20.57)scale(.7687)"/><use xlink:href="#c" width="7.2" height="11.3" transform="rotate(-64.982 -24.686 -54.29)scale(.7687)"/><use xlink:href="#c" width="7.2" height="11.3" transform="rotate(115.018 49.022 .824)scale(.7687)"/><use xlink:href="#c" width="7.2" height="11.3" transform="matrix(.7224 -.2627 .2627 .7224 43.8 -64.8)"/><use xlink:href="#c" width="7.2" height="11.3" transform="rotate(160.016 33.582 -10.657)scale(.7687)"/><use xlink:href="#c" width="7.2" height="11.3" transform="rotate(250.016 4.35 -32.523)scale(.7687)"/><use xlink:href="#c" width="7.2" height="11.3" transform="rotate(70.016 75.404 20.606)scale(.7687)"/><use xlink:href="#h" width="104.8" height="39.1" transform="translate(-40.25 -59.65)"/><use xlink:href="#f" width="7.2" height="12.1" transform="matrix(.5 0 0 .5 20.35 -46)"/><use xlink:href="#f" width="7.2" height="12.1" transform="matrix(.5 0 0 .5 13.7 -42.4)"/><use xlink:href="#f" width="7.2" height="12.1" transform="matrix(.5 0 0 .5 31 -35.7)"/><use xlink:href="#f" width="7.2" height="12.1" transform="matrix(.5 0 0 .5 -19.9 -43.95)"/><use xlink:href="#f" width="7.2" height="12.1" transform="matrix(.5 0 0 .5 23.1 -37.5)"/><use xlink:href="#f" width="7.2" height="12.1" transform="matrix(.5 0 0 .5 -25.1 -35.35)"/><use xlink:href="#f" width="7.2" height="12.1" transform="matrix(.5 0 0 .5 27.9 -50)"/><use xlink:href="#f" width="7.2" height="12.1" transform="matrix(.5 0 0 .5 -31.8 -39.85)"/><use xlink:href="#f" width="7.2" height="12.1" transform="matrix(.5 0 0 .5 -35.4 -33.1)"/><use xlink:href="#i" width="133.4" height="28" transform="translate(-69 -41.85)"/></g></g></svg>