<svg xmlns="http://www.w3.org/2000/svg" xmlns:xlink="http://www.w3.org/1999/xlink" width="42" height="54" viewBox="0 0 42 54"><defs><clipPath id="a"><path d="M1 1h40v52H1z"/></clipPath><g id="b"><path fill="#957440" d="m31.3 10.2-1.2.6V38l-.5-.1V35l-.4-.3H29l-.3-.1V15.4l1.2-1.9-1.2-.3v-3l1.3-.7zm-22.2 14 1.3.6v.9h-.1l-.6-.3-.6.4zM11.6.6l-1.2.7v3L9 3.4V.6l1.3-.6z"/><path fill="#7c6035" d="M30 38V10.8l1.3-.7v27.1zM10.4 24.7l.9.5-1 .4zm1.3-24v3.1l-.5-.3H11l-.5.8v-3z"/><path fill="#4dd095" d="M28.8 12.2v1.1l1.2.3-1.2 2-1.9 3-.1.2-2.5 4-.2.3-1.2 1.9-.5.8-.1.1v.1l-.8 1.3.1 2.6-.3.8-1.3-.8-2-1 .9-5.2 8.8-11.8z"/><path fill="#276347" d="M28.8 15.5v3.8l-1-.3-.9-.4zm2.5 4.6v-4.9l4.4 1.9 3.8 1.2-.5 1.3.2.5h-.4l.6.2.5.3v.5l-.4 1.2zm4-1.1 3.6 1.1z"/><path fill="#866e08" d="M28.8 25v.3l-4.7-2.2.2-.3zm0 2.4v.5L22.7 31l-.5-.3-.4-.1v.2l.1.1-1.6.8.3.1.3.2 1.3-.7v1.4l1 .5 1.3 3 2.8-1.5v-.9l.5-.2-1.6-.9-3.5-1.7-.5-.3zm2.5 6.8v-.6l5.6-2.8.6.2zm0-7.5v-.4l7.9 3.8-.6.2-.2 4-.8-.4.9-3.7zm-8.9-.8.5-.8 1.6-.8.5.2zm-.2 5-.3.1zm0 0 .5.2zm-.7 7.8 3.2-1.6.5.3-3.2 1.5v3.9l-.5-.3zm-7-2.9-.5-.2v-.7l2.7-1.4.3-.1.2-.1v.4l-.1.2H17l-2.5 1.3zm-10-7.2-2.3 1.1v-.5L9 25.7l.6-.4.6.3-1.4.7zm9.8-1.7.1.1zm2.8 6.9v-.2zm3.1 5.5-.1.1-.1-.1z"/><path fill="#57410f" d="M28.8 25.3v2.1l-6.6 3.3-.4-.1-.1-.6h-.1l-.1-2.7.8-1.3.1-.2 2.6-1.4-.4-.2h-.1l-1.6.8 1.2-1.9zm0 2.6v1.3l-1.6 1-1 2.5-3.5-1.7zm0 6v.6l.3.2.5.3-4.4 2.1-.5-.2-1-.4.5-.3.3-.1 2.8-1.5.5-.2zm2.5-.4v-.9l2.4-1.2 2.8-1.5-2.8 1.5-.5-1.6-1.9-.9v-2.4l7.2 3.4-.9 3.8-.1 1V31l-.6-.3zm-20-8.4 2.7 1.5.3.2-.3-.1-2-.9-.5.3v1.6V26l.6-.2 1.9.9.3.1.2.1 2 1.2-4.1 2.1-.2.1v-.2l.1-.9-1.3-1-2 1 .2.3.3.6.3.7-1.3-.5-.2.1-.5.2-.1.1-.7.3-1 .5-2.9-1.4L5.5 29l-1-.4 4.4-2.3 1.4-.7zm13.4 3.2-3 1.5zm-12.5 1.8.2.1z"/><path fill="#51760a" d="M28.8 29.2V34l-1 .5v-1l-1.6-.8 1-2.5zm2.5 3.5V29l1.9.9.5 1.6zm-16.1-.3 2.3-1.6.1.1 1.4.8-1.5 1.1h-.2v.2l-.3.4-.3.1-.6.3z"/><path fill="#9b7826" d="M29.6 35v2.8l.4.1 1.3-.6v-3.1l6.2-3.2v3.8L22 42.7v-3.9l3.2-1.5z"/><path fill="#e0c657" d="m31.3 15.3 4.4 2zm-10 15.3.3-.7v.1l.1.6.2.2v.1zM9.1 3v.1H9zM1 17.8l-.1.5zm13.8-12L16.5 7l-.7-.2z"/><path fill="#762e49" d="M31.3 15.2v-.7l8.2 4-3.7-1.3zM23.6 10l-3.2-1h-.3l-3.6-2.1 5 1.4 3.6 2.1z"/><path fill="#baa448" d="m23.6 10-.2.3-3-1.3zm4 2h.1m11.5 8.3.2.2-.5-.2z"/><path fill="#348767" d="m23.4 10.3.2-.3 1.4.4 2.7 1.5-.7-.1zm-1.9-2-5-1.4-1.8-1-3.6-2.4.5.3v-.4z"/><path fill="#33c68e" d="m20.4 9 3 1.3-8.2 12-1.2 4.4-2.7-1.5-1-.5-1.2-.6-.5-.3 9.7-15.4 1.8.5z"/><path fill="#c81e74" d="m23.4 10.3 3.6 1.5.7.1-8.8 11.8-.9 5.2-3.5-1.9h-.2l-.3-.3 1.2-4.4zm-6.9-3.4 3.6 2-1.8-.5-9.7 15.4-4-2-.5-.1 1.6-4 9-11.4 1 .3.9.7-.8-.6z"/><path fill="#fc0" d="M20 9h.4zm-5.4-2.7-.2-.5.4.3zl1 .3-.8-.5zM11 3.5"/><path fill="#6f5b06" d="m20 30 1.3.6.6.3-1.6.8-.7-.4-.6.4-1.4-.8h-.1l-2.3 1.5-.3-.5-.1-.2-3.2-.2-.3.6-.5 1-.4.6-1.8-.9v-.5l1.8-1 1.8-.9h.2l4.2-2.2 1.4.7zm7.8 3.6v1l-.5.3v-1zm-7-1.6 1.4-.7v1.4l-.7-.4-.3-.1zm-4.2 4.8-2.2-1v-.6l2.5-1.3h.1v.1l-.2 1.5zm22.5-6.7-.3 3.9-.5.2.2-4zm-29-4.4-1.3.7zM18 29l-.4 2zm2.1 10.6h.1l.3 3.6-.5.3-.3-3.6z"/><path fill="#aaa273" d="m14 35.5-.6-.2.6-.4z"/><path fill="#c25216" d="m20.3 31.7.3.1.3.2.3.1.3.2.7.4 1 .5 1.3 3-.3.1-1 .5-3.2 1.6-3.3-1.6.2-1.2q1.3 1.6 3.1 1 1.5-.5.5-2-1.5-1.4-3.4-.6v-.1l.1-.6V33l.3-.2 1.5-1 .6-.5z"/><path fill="#ddad40" d="m24.7 37-3.2 1.6-1.3.7-.2.1-18.7-9.2.9-.5 2.3-1.1 1 .4-2.4 1.2L6 31.6l2.6 1.2 1.8 1 3 1.5.6.3.5.2 2.2 1 3.3 1.6 3.2-1.6.5-.2z"/><path fill="#690" d="m13.4 35.3-3-1.5.4-.7 2 .6.4-1-1.9-.6.3-.6 3.2.2.1.2.3.5.9 1.4z"/><path fill="#775c20" d="M8.6 32.8 6 31.7l1-.6.6.8.9-.6-.7-.6.5-.2h.2l1.4.4h-.1l-.3-.7.7-.2.4-.6-1.4.3-.1-.4 1.9-1 1.3 1-.1 1v.1l-1.8 1-1.8.9zm1.8-1.4-.6-.5z"/><path fill="#bd922f" d="M1.3 30.2 20 39.4l.1.1-.4.3.3 3.6-17.8-8.6L.6 34l-.3-3.6.6-.4z"/><path fill="#8d865f" d="m20 39.4.2-.1v.1z"/><path fill="#674a1d" d="m20.2 39.3 1.3-.6v3.7l.5.3 15.5-7.9-1.9 8.9L20 51.5v-8l.5-.4-.3-3.7z"/><path fill="#9a7727" d="M20 51.6 4 43.8l-1.8-9L20 43.4z"/><path fill="#2dac73" d="m10.4 4.3.5-.9v.1l3.6 2.3.2.5-9 11.4-1.6 4-3.5-1.2-.5-.7v-.5l.7-1 .1-.5-.5-.8L9 3.3v.1z"/><path fill="#f9c" d="m10.9 3.4.2.1h-.2"/><path fill="#cd9b49" d="m9.2 29.7 1.4-.3-.4.6-.7.2zm-1.4 1.1.7.6-.9.6-.6-.7z"/><path fill="#9ad301" d="m10.8 33 .5-.9 1.9.5-.4 1.1z"/><path fill="#3e2e0b" d="M17.3 33v-.2h.2zl-.1.3-.2.1z"/><path fill="#e9821b" d="m16.9 35.6.2-1.6q1.9-.8 3.4.6 1 1.5-.5 2-1.8.6-3.1-1"/><path fill="none" stroke="#282002" stroke-linecap="round" stroke-linejoin="round" stroke-width="__RESOLUTION__" d="m31.3 10.2-1.2-.6-1.3.6v2m0 7.1V29m0 5v.6m2.5-19.3v-5.1m7.9 10 .2.2M27.9 19l.9.3m-4.3 4.9-1.6.8m5.9.3-4.7-2.2m4.7 1.9-4.5-2.2m3 12 .5-.3m-6.2-4.6 3-1.5m-3 1.6.1.6.5.1v.1l-.3.1h0l-1.6.8m4.2 4.4 2.8-1.5m-5.6-4.1.2.2v.1m.3-.2.5.3h0l3.5 1.7M22.7 31l-.5-.2m-5.5 6-2.2-1-.5-.2-.6-.4m-3-1.5-1.8-.9M6 31.7l-2.9-1.5m28.2-15.7 8.2 4m-27.9-15v-3L10.4 0 9 .6v2.6m1.9.2.1.1m4.7 3.2.8.5m-7.4-4-.1.1m5.7 2.6 1.1.9M.9 17.8l-.1.5h0M14 26.9l-2-.9-.5.3v1.6m2.5-1 .3.1.2.1 2 1.2 1.5.7 2 1m-3.4-1.7-4.2 2.1h-.2M14 35v.6m6.2 4-.2-.1m1.9-8.5-.6-.2" vector-effect="non-scaling-stroke"/><path fill="none" stroke="#1b4535" stroke-linecap="round" stroke-linejoin="round" stroke-width="__RESOLUTION__" d="M28.8 12.2v1.1l1.2.3-1.2 2-1.9 3-.1.2h0l-2.5 4-.2.3-1.2 1.9-.5.8-.1.1v.1l-.8 1.3.1 2.6-.3.8-1.3-.8-2-1-3.5-1.9h-.2l-.3-.3-2.7-1.5-1-.5-1.2-.6-.5-.3m22.7-3.6v-4.9l4.4 1.9 3.8 1.2-.5 1.3.2.5h-.4l.6.2.5.3v.5l-.4 1.2zM27 11.8l.7.1h0m0 0L25 10.4l-3.6-2-9.9-5v.4h0l-.5-.3M16.5 7l3.6 2h0l.3.1h-.3m8.7 3.2-1-.3m11 8.3-3.4-1.1m-25-14.8.5-.9v.1m-1.8-.2 1.3 1M9 3.1.4 17l.5.8-.1.5-.6 1-.1.5.5.7 3.5 1.2.5.1 4 2m6.1-18L16.5 7m.1.3-.9-.6-.8-.5" vector-effect="non-scaling-stroke"/><path fill="none" stroke="#7d6006" stroke-linecap="round" stroke-linejoin="round" stroke-width="1" d="M28.8 15.5v3.8"/><path fill="none" stroke="#304200" stroke-linecap="round" stroke-linejoin="round" stroke-width="__RESOLUTION__" d="M28.8 29.2V34l-1 .5v-1l-1.6-.8 1-2.5zm2.5 3.5V29l1.9.9.5 1.6zm-18 2.5-2.9-1.5.4-.6m0 0 .5-1 .3-.6 3.2.2.1.2.3.5 2.3-1.6.1.1 1.4.8m-1.7 1v.3l-.3.4-.3.1-.6.3-1-1.4m1 1.4-2.7 1.5" vector-effect="non-scaling-stroke"/><path fill="none" stroke="#432c05" stroke-linecap="round" stroke-linejoin="round" stroke-width="__RESOLUTION__" d="m29.6 37.8.4.1 1.3-.6v-4.6m0-3.7v-8.8m-9.1 10.5 6.6-3.3M4.5 28.6l-2.3 1.1-1 .5L1 30l-.6.4.3 3.6 1.6.8 1.9 9L20 51.6l15.6-8 1.9-8.8h0l.1-1 .8.4.5-.2.3-4-7.9-3.8m-9.8 16.2.5.3 15.5-7.9m1-4.7-7.2-3.5m2.4 4.9 2.8-1.5m-24.1.3-.2.1m-1.9-4.8-1.4.7-4.4 2.3m4.6-2.9v-1.6m.6 1.2-.6.4-7 3.5v.5M20 43.4l.5-.3m-.5.3L2.2 34.8m21.2-24.5.2-.3-3.2-1m4.7 1.5-1.6-.4m-2-1.7-5-1.4-.7-.2h-.1l-1-.4-.2-.5m.2.5.2-.2m3 22.8-.4 2m-.4 2.7-.1.3" vector-effect="non-scaling-stroke"/><path fill="none" stroke="#f09fc8" stroke-linecap="round" stroke-linejoin="round" stroke-width="__RESOLUTION__" d="m20 9-1.7-.6-9.7 15.4m5.4 3 1.2-4.5 8.2-12m4.3 1.6-8.8 11.8-.9 5.2M4.1 21.7l1.6-4 9-11.4" vector-effect="non-scaling-stroke"/><path fill="none" stroke="#1b4535" stroke-linecap="round" stroke-linejoin="round" stroke-width="__RESOLUTION__" d="m26.9 18.6 1 .4" vector-effect="non-scaling-stroke"/><path fill="none" stroke="#5b200b" stroke-linecap="round" stroke-linejoin="round" stroke-width="__RESOLUTION__" d="m20.3 31.7.3.1m1.6.9 1 .5 1.3 3-.3.1-1 .5-3.2 1.6-3.3-1.6.2-1.2m4.3-3.5.3.2.7.4m-3.2-1 .6-.4.7.4m-3 1.3.2-.2 1.5-1m-1.9 2.1.1-.6V33m-.1 1v-.1" vector-effect="non-scaling-stroke"/><path fill="none" stroke="#271b07" stroke-linecap="round" stroke-linejoin="round" stroke-width="__RESOLUTION__" d="M8.6 32.8 6 31.7l1-.6.7-.3m4.5-.4-1.8 1-1.8.9v.5m3.6-2.4v-.2l.1-.9-1.3-1-2 1 .2.3.3.6.3.7.6.4m-.6-.4-1.3-.5-.2.1-.5.2" vector-effect="non-scaling-stroke"/></g></defs><g clip-path="url(#a)"><use xlink:href="#b" width="40" height="51.5" transform="translate(1 1)"/></g></svg>