<svg xmlns="http://www.w3.org/2000/svg" xmlns:xlink="http://www.w3.org/1999/xlink" width="28" height="94" viewBox="0 0 28 94"><defs><g id="f"><path fill="#36330a" d="m10.2 2.2 3-1.4q.8 0 .8 1.4 0 1.7-.6 2.8l-.7.9q-1.7-1-2.5-3.7.8 2.7 2.5 3.7-.9.8-2.4 1L9 7.2 8 7q1.8-2 2.2-4.8"/><path fill="#323009" d="m12.7 5.9.7-1q.5.5.6 1.8l-.3 1-1 1-.7.4q-.8-.4-1.7-2.1 1.5-.3 2.4-1.1"/><path fill="#2d2b08" d="M13.7 7.8h1l1.9-.7h.1q0 .6-.6 1 .4 1.4 2.5 1.4-1 .2-1.6.5l-1.6.2.6 2.4-1.3-2.3Q14 9 13 8.7h-.3z"/><path fill="#000" fill-opacity=".3" d="m13 8.7-.2 2.7q-4.1 3.3-11 0h-.1l-.1-2.7.3.3q1.7 1.3 4.4 1.6h1.5q2-.2 3.9-1.2L12 9l.7-.4z"/><path fill="#524e0f" d="M1.7 8.7Q0 7 .1 5.6q.2-1 .6-1.7l.6-.6-.2-.2-.5-.8Q.2 1.6.4.8q.2-.7.9-.6h.4l2.4 1.2 1.3.5q-1.2 1.7-3 2.4l.3.3q1 .9 2.2 1.5-1.4.3-3 2.9zM1.3.2Q.9 2.1 2.4 4.3 1 2.1 1.3.2m0 3 1 1.1zM1.9 9Q.4 6 .7 3.9.4 6 1.9 8.9"/><path fill="#44410d" d="M5.4 1.9q1.9.8 2.3.8l2.5-.5Q9.8 5.1 8 7q-1.6-.2-3-.9-1.2-.6-2.3-1.5l-.3-.2v-.1q1.9-.7 3-2.4Q6 5.3 8 7 6 5.3 5.4 1.9m2.3 8.7H6.4Q3.6 10.4 1.9 9q1.6-2.6 3-2.9 2.6 1.7 2.8 4.5"/><path fill="#3c3a0b" d="M8 7h2.3Q11 8.7 12 9l-.3.3q-1.8 1-4 1.2Q7.6 7.8 5 6q1.5.7 3 .9m2.3 0q-.3 2-2.4 3.6Q9.9 9 10.3 7"/><path fill="none" stroke="#000" stroke-linecap="round" stroke-linejoin="round" stroke-opacity=".3" stroke-width="__RESOLUTION__" d="M13.4 5q.5-1.1.5-2.8 0-1.4-.7-1.4l-3 1.4q.8 2.7 2.5 3.7zq.5.5.6 1.8l-.3 1 1 .2 1.9-.8h.1q0 .6-.6 1 .4 1.4 2.5 1.4-1 .2-1.6.5l-1.6.2.6 2.4-1.3-2.3Q14 9 13 8.7h-.3L12 9q-.8-.4-1.7-2.1H8q1.8-2 2.2-4.8l-2.5.5q-.4 0-2.3-.8l-1.3-.5L1.7.1h-.4Q.6 0 .4.8t.2 1.5l.5.8.2.1-.6.7q-.4.7-.5 1.7Q0 7 1.5 8.6v.1L2 9q1.7 1.3 4.4 1.6h1.5q2-.2 3.9-1.2L12 9m-1.7-2q1.5-.3 2.4-1.1m0 2.8 1-1M2.3 4.5l.3.3q1 .9 2.2 1.5 1.5.7 3 .9-2-1.7-2.5-5.1-1.2 1.7-3 2.4Q1 2.1 1.3.2m1 4.1-1-1m-.6.6Q.4 6 1.9 8.9q1.6-2.5 3-2.8 2.6 1.7 2.8 4.5Q10 9 10.4 7" vector-effect="non-scaling-stroke"/><path fill="#000" fill-opacity=".3" d="M13 5.3q.3-.6.8.5t-.7 1.8q-4.4 1.9-7.7.8Q2 7.2.1 5.9.1 4 1 3.3L3.1 5l2.3 1.4Q7 7 7.7 7 10 7 12 6.3l.4-.2z"/></g><g id="e"><path fill="#333519" d="m11.8 1.9 5.8 6L9 12.4l-.7-4.6-.1-.4 2-3.9z"/><path fill="#494d24" d="M9 12.3Q4.7 10.5.3 7.9L2.9 4Q4 3.9 5.6 2.5l.3.1v.2l2.2 4.7.2.2z"/><path fill="#626938" d="m2.9 4 1.3-2 1.4.5Q4 3.9 2.9 4"/><path fill="#6b7645" d="M4.3 2 7.9.3l3.9 1.6-1.6 1.5H8.4l-2.3-.6-.2-.1-.3-.2z"/><path fill="#5c5e2c" d="m10.2 3.4-2 4H8L5.9 2.9h.2l2.3.6z"/><path fill="none" stroke="#000" stroke-linecap="round" stroke-linejoin="round" stroke-opacity=".3" stroke-width="__RESOLUTION__" d="m11.8 1.9 5.8 6M.3 8l2.6-4 1.3-2h0L8 .3l3.9 1.6M4.2 2" vector-effect="non-scaling-stroke"/><path fill="none" stroke="#000" stroke-linecap="round" stroke-linejoin="round" stroke-opacity=".2" stroke-width="__RESOLUTION__" d="M14.4 4.7q-.3 2.4-.3 14.8V34q.3 4 1.8 6.5M1.5 49q2.2-8.5 2.2-13.1 0-4-1.5-13.1l-1.5-9Q2 9.2 2 7.9l-.6-1.6m7.9 14.9q2-4 2-8.6 0-4.9-2-4.9l-.9.7-1.8-1-.5 3.4q0 11.5 3.2 21.3m-4.1 23q-.3-6.6 2.5-16l1.3.2m.1-5.9q2.4 1.4 3 4.8.3 1.1.3 6.2 0 10.3-1.4 15-2.1 6.9-2.4 9.4" vector-effect="non-scaling-stroke"/><path fill="#353c18" d="m13.4 44.4 16-8.1 2.8 5.7-11.4 6.1z"/><path fill="#4a5323" d="m29.4 36.3-16 8.1L8.7 42l16-8.1z"/><path fill="#2e3416" d="M20.8 48.2 32.2 42v8.3L28.5 52z"/><path fill="#2e3416" d="M36.2 42.9 34 48.2l-7.2 3-1.1-.6 7.7-5.7z"/><path fill="#3e421e" d="m25.7 50.7-2.2-1.2 8.8-6.6 1.1 2z"/><path fill="#4a5323" d="m32.3 42.9 1.5-1.2 2.5 1-.1.1-2.8 2.1z"/><path fill="none" stroke="#000" stroke-linecap="round" stroke-linejoin="round" stroke-opacity=".3" stroke-width="__RESOLUTION__" d="M36.2 42.9 34 48.2m-10.5 1.3 8.8-6.6 1.5-1.2 2.5 1h.1l-.2.1v-.1" vector-effect="non-scaling-stroke"/><path fill="#2e3416" d="m30.1 31.6-2.2 4-11.1 4.5z"/><path fill="#4a5323" d="M16.8 40.1h-.1l-2-.7 13-8.5 2.5.5-.1.2z"/><path fill="none" stroke="#000" stroke-linecap="round" stroke-linejoin="round" stroke-opacity=".3" stroke-width="__RESOLUTION__" d="m30.1 31.6-2.2 4m-13.2 3.8 13-8.5 2.5.5h.1l-.2.2.1-.2" vector-effect="non-scaling-stroke"/></g><g id="b"><path fill="#353c18" d="m12.2 31.3-7.5-3.8 20-10.1 2.7 5.7z"/><path fill="#4a5323" d="M4.7 27.5 0 25l20-10 4.6 2.4z"/><path fill="#2e3416" d="M27.4 23.1v8.3l-7.6 3.8-7.6-3.9z"/><path fill="#2e3416" d="m29.3 29.3-11.2 4.6L28.6 26l2.8-2z"/><path fill="#4a5323" d="m31.4 24-2.7 2-1.2-2 1.6-1.2 2.4 1z"/><path fill="#3e421e" d="M28.7 26 18 33.9l-2-1.1L27.5 24z"/><path fill="none" stroke="#000" stroke-linecap="round" stroke-linejoin="round" stroke-opacity=".3" stroke-width="__RESOLUTION__" d="m29.3 29.3 2.1-5.4.3-.1h-.2l-2.4-1-1.6 1.2L16 32.8M31.4 24l.1-.2" vector-effect="non-scaling-stroke"/><path fill="#4a5323" d="m25.5 12.5-.1.1L12 21.3l-2-.7L23 12z"/><path fill="#2e3416" d="m12 21.2 13.4-8.5-2.2 4z"/><path fill="none" stroke="#000" stroke-linecap="round" stroke-linejoin="round" stroke-opacity=".3" stroke-width="__RESOLUTION__" d="m25.5 12.5-.1.1zL23 12l-13 8.6m15.4-7.9-2.2 4.2" vector-effect="non-scaling-stroke"/><path fill="url(#a)" d="M19 14.7q3.6 2.5-.8 2.7-1 0-.8-1.1.2-1.5 1.6-1.6" transform="translate(0 -7.25)"/><path fill="none" stroke="#000" stroke-linecap="round" stroke-linejoin="round" stroke-opacity=".3" stroke-width="1" d="M27.3.5q-.5 15.7-.6 31v4M10.6.5q.6 15.5.7 31m0 9.2v.4L11 46m16 14.4v-2.6M10.6 63l-.1 2.8m16.2-22.5v-2.6"/></g><g id="r"><path fill="#000" fill-opacity=".3" d="m7.8 5.6 1-1.1.6-1Q10.1.6 10.8.6h.3l-1 2.4q-.5 1.9-1.9 3l-.1.1zm1.8 15.2q-.9 0-2.6-4.4l-.2-.6L6 14l.6-.2h.5q.7.8 2.5 7M1 15.6l-1-.5q2-1.8 3.2-3.5 1.2-1.8 1.2-3.5l-.8-1.6L2 2.7q0-.6.7-.6v.4q0 .7 1.4 3l.3.6q1.1 1.9 1.1 3t-1.6 3.4z"/><path fill="#4a1b12" d="m11.1.6.4-.5v2.1l-1 2.2-1.2 1.8-.4.2-.7-.5q1.4-1.1 2-2.9zm-1 18.5-.1.4-.2 1.6-.2-.2v-.2q-2-6.2-2.6-7l.7-.4.5 1.2.2.6zm-8.4-3.4H.9l.1-.1 2.9-3.2q1.6-2.1 1.6-3.3T4.4 6l-.3-.5Q2.7 3.2 2.7 2.4V2l2 3.4 2 3.9q.1 2.5-5 6.3m6.8-7.8.6.2.2.7-.2.6-.6.3q-.3 0-.5-.3l-.3-.6q0-.4.3-.7zm-.1 3.7-.3-.2-.2-.3.2-.5.3-.1.3.1.2.5-.2.3zm1.6-.2.5.3v.8l-.5.2-.4-.2-.1-.4.1-.4z"/><path fill="#642519" d="M11.5 2.2v6q0 1.6.4 1.6l1.5-.4v1q0 .3-1.3 2-1.2 1.7-2 6.7l-1.6-4-.2-.6-.6-1.2-.6.4h-.5l-.6.2-.7.2Q4 14.6 2 15.7h-.3q5.1-3.7 5-6.3l-2-3.9-2-3.4.4-.7Q6 3.4 7.3 5l.5.5.3.5.1-.1.7.5.3-.2 1.3-1.8zM9.9 8.7l-.3.6.3.4.4.3q.3 0 .5-.2l.2-.6-.2-.5q-.2-.2-.5-.1zm-1.4-.8L8 8q-.3.3-.3.7l.3.6q.2.3.5.3l.6-.3.2-.6-.2-.7zm-.1 3.7.3-.2.2-.3-.2-.5-.3-.1-.3.1-.2.5.2.3zm1.6-.2q-.2 0-.4.3l-.1.4.1.4.4.2.5-.2v-.8z"/><path fill="#743f2c" d="m9.9 8.7.4-.1q.3-.1.5.1l.2.6-.2.4q-.2.3-.5.3l-.4-.2-.3-.6z"/><path fill="none" stroke="#000" stroke-linecap="round" stroke-linejoin="round" stroke-opacity=".2" stroke-width="__RESOLUTION__" d="m11.1.6.4-.5v1.5m0 .6v6q0 1.6.4 1.6l1.5-.4v1q0 .3-1.3 2-1.2 1.7-2 6.7m0 .4-.2 1.6-.2-.2v-.2q-2-6.2-2.6-7h-.5l-.6.2-.7.2Q4 14.6 2 15.7h-.3m-.2 0H.9l.1-.1 2.9-3.2q1.6-2.1 1.6-3.3T4.4 6l-.3-.5Q2.7 3.2 2.7 2.4V2l.4-.7Q6 3.4 7.3 5l.5.5.3.5.1-.1q1.4-1.1 2-2.9l1-2.4" vector-effect="non-scaling-stroke"/></g><g id="q" clip-path="none" transform="translate(1.55 1.85)"><use xlink:href="#b" width="31.9" height="66.3" transform="translate(0 7.25)"/><use xlink:href="#c" width="8.8" height="52" transform="matrix(-.99 .51 0 1.5 27.2 7.65)"/><use xlink:href="#d" width="8.8" height="52" transform="matrix(.99 .51 0 1.5 9.95 7.65)"/><use xlink:href="#e" width="36.6" height="68.8" transform="translate(9.7 -.25)"/><use xlink:href="#f" width="18.8" height="13.1" transform="matrix(1.4 0 0 1.4 8.85 15.75)"/><use xlink:href="#g" width="23.6" height="15.6" transform="translate(18.45 36.35)"/></g><linearGradient id="h" x1="-819.2" x2="819.2" gradientTransform="matrix(0 .03 -.01 0 4.4 26.05)" gradientUnits="userSpaceOnUse" spreadMethod="pad"><stop offset=".5" stop-color="#494d24" stop-opacity="1"/><stop offset="1" stop-color="#22220b" stop-opacity="0"/></linearGradient><linearGradient id="m" x1="-819.2" x2="819.2" gradientTransform="matrix(0 .03 -.01 0 4.4 26.05)" gradientUnits="userSpaceOnUse" spreadMethod="pad"><stop offset=".5" stop-color="#333519" stop-opacity="1"/><stop offset="1" stop-color="#171707" stop-opacity="0"/></linearGradient><linearGradient id="a" x1="-819.2" x2="819.2" gradientTransform="matrix(0 0 0 0 18.95 16.05)" gradientUnits="userSpaceOnUse" spreadMethod="pad"><stop offset=".3" stop-color="#494d24" stop-opacity="1"/><stop offset="1" stop-color="#22220b" stop-opacity="0"/></linearGradient><path id="n" fill="url(#h)" d="M8.8 0v52H0Q2.6 24.8 0 0z"/><path id="o" fill="url(#m)" d="M8.8 0v52H0Q2.6 24.8 0 0z"/><path id="g" fill="#000" fill-opacity=".3" d="m42 45.3-.1 4.6-3.8 2q-10.7-5.4-19.7-10.2l10.4-5.4h3.1v1.3l3.6.6 5.5 5.3z" transform="translate(-18.45 -36.35)"/><use xlink:href="#n" id="d" width="8.8" height="52"/><use xlink:href="#o" id="c" width="8.8" height="52"/><clipPath id="p"><path d="M1 1h26v92H1z"/></clipPath></defs><g clip-path="url(#p)"><g transform="translate(13.95 51.85)"><use xlink:href="#q" width="48.1" height="91.7" transform="matrix(-1 0 0 1 12.15 -50.85)"/><use xlink:href="#r" width="13.5" height="21.2" transform="translate(-11.85 -42.3)"/></g></g></svg>