<svg xmlns="http://www.w3.org/2000/svg" xmlns:xlink="http://www.w3.org/1999/xlink" width="72" height="59" viewBox="0 0 72 59"><defs><radialGradient id="e" cx="0" cy="0" r="819.2" gradientTransform="matrix(.05 0 0 .05 38 13.15)" gradientUnits="userSpaceOnUse" spreadMethod="pad"><stop offset=".1" stop-color="#bcb87d" stop-opacity=".9"/><stop offset=".5" stop-color="#b5a35b" stop-opacity=".9"/><stop offset=".9" stop-color="#ac9134" stop-opacity=".9"/></radialGradient><radialGradient id="d" cx="0" cy="0" r="819.2" gradientTransform="matrix(.04 0 0 .04 24.2 2.1)" gradientUnits="userSpaceOnUse" spreadMethod="pad"><stop offset="0" stop-color="#c0c198" stop-opacity=".9"/><stop offset=".5" stop-color="#bbb687" stop-opacity=".9"/><stop offset=".9" stop-color="#b19e52" stop-opacity=".9"/></radialGradient><radialGradient id="c" cx="0" cy="0" r="819.2" gradientTransform="matrix(.05 0 0 .05 33.7 18.35)" gradientUnits="userSpaceOnUse" spreadMethod="pad"><stop offset=".4" stop-color="#b5a35b" stop-opacity=".9"/><stop offset=".7" stop-color="#ac9134" stop-opacity=".9"/></radialGradient><radialGradient id="b" cx="0" cy="0" r="819.2" gradientTransform="matrix(.04 0 0 .04 31.65 13.05)" gradientUnits="userSpaceOnUse" spreadMethod="pad"><stop offset=".7" stop-color="#b5a460" stop-opacity=".9"/><stop offset=".9" stop-color="#ac9134" stop-opacity=".9"/></radialGradient><radialGradient id="a" cx="0" cy="0" r="819.2" gradientTransform="matrix(.02 0 0 .02 57.55 7.45)" gradientUnits="userSpaceOnUse" spreadMethod="pad"><stop offset="0" stop-color="#c0c198" stop-opacity=".9"/><stop offset=".1" stop-color="#bbb687" stop-opacity=".9"/><stop offset=".9" stop-color="#b19e52" stop-opacity=".9"/></radialGradient><radialGradient id="h" cx="0" cy="0" r="819.2" gradientTransform="matrix(.04 0 0 .04 -7.6 -27.15)" gradientUnits="userSpaceOnUse" spreadMethod="pad"><stop offset=".2" stop-color="#416146"/><stop offset="1" stop-color="#283e33"/></radialGradient><radialGradient id="g" cx="0" cy="0" r="819.2" gradientTransform="matrix(.04 0 0 .04 -20 -22.6)" gradientUnits="userSpaceOnUse" spreadMethod="pad"><stop offset=".2" stop-color="#416146"/><stop offset="1" stop-color="#283e33"/></radialGradient><radialGradient id="f" cx="0" cy="0" r="819.2" gradientTransform="matrix(.03 0 0 .03 5.85 -31.55)" gradientUnits="userSpaceOnUse" spreadMethod="pad"><stop offset=".2" stop-color="#416146"/><stop offset="1" stop-color="#283e33"/></radialGradient><radialGradient id="m" cx="0" cy="0" r="819.2" gradientTransform="matrix(.05 0 0 .05 38 13.15)" gradientUnits="userSpaceOnUse" spreadMethod="pad"><stop offset=".1" stop-color="#bcb87d" stop-opacity=".3"/><stop offset=".5" stop-color="#b5a35b" stop-opacity=".3"/><stop offset=".9" stop-color="#ac9134" stop-opacity=".3"/></radialGradient><radialGradient id="l" cx="0" cy="0" r="819.2" gradientTransform="matrix(.04 0 0 .04 24.2 2.1)" gradientUnits="userSpaceOnUse" spreadMethod="pad"><stop offset="0" stop-color="#c0c198" stop-opacity=".3"/><stop offset=".5" stop-color="#bbb687" stop-opacity=".3"/><stop offset=".9" stop-color="#b19e52" stop-opacity=".3"/></radialGradient><radialGradient id="k" cx="0" cy="0" r="819.2" gradientTransform="matrix(.05 0 0 .05 33.7 18.35)" gradientUnits="userSpaceOnUse" spreadMethod="pad"><stop offset=".4" stop-color="#b5a35b" stop-opacity=".3"/><stop offset=".7" stop-color="#ac9134" stop-opacity=".3"/></radialGradient><radialGradient id="j" cx="0" cy="0" r="819.2" gradientTransform="matrix(.04 0 0 .04 31.65 13.05)" gradientUnits="userSpaceOnUse" spreadMethod="pad"><stop offset=".7" stop-color="#b5a460" stop-opacity=".3"/><stop offset=".9" stop-color="#ac9134" stop-opacity=".3"/></radialGradient><radialGradient id="i" cx="0" cy="0" r="819.2" gradientTransform="matrix(.02 0 0 .02 57.55 7.45)" gradientUnits="userSpaceOnUse" spreadMethod="pad"><stop offset="0" stop-color="#c0c198" stop-opacity=".3"/><stop offset=".1" stop-color="#bbb687" stop-opacity=".3"/><stop offset=".9" stop-color="#b19e52" stop-opacity=".3"/></radialGradient><g id="q"><path fill="url(#a)" d="M54 6.2q4 .3 8 2.4l1.8 1 .4.3.3-.1h.2l.9-.2q3 0 5.2 3.4.5 1 2.5 1.7 1.2.3 1.7 1-1.8.9-4.2.9-1.5 0-2.6-.6l-2.5-1.4q-1-.7-3.4-1.4l-3.1-1.1q-.7-.4-1.6-2.3l-.1-.3-.2-.2q-.7-1.5-1.4-2z" transform="translate(0 .25)"/><path fill="url(#b)" d="m54 6.2 1.9 1.1q.6.5 1.4 2l-2.7-.7q-3 0-5.4 1.4-1 .6-3.8 3-5.1 4.3-11.8 4.3l-5.1-.6q-3.8 0-9.2 2.4l-5.4 2.2-3.3-1-.9-.2-.7-.2H6q-2.4-.3-2.5-1.4v-.1l7.5-2.9 1.8-.7.3-.2q.4.2.5-.2l1.5-.6 1-.4 6-.6 1.3.2q8.2 0 13-1.2 3.5-.9 5.9-2.6L46 6.7q2.3-1.2 6.1-1.2l.3.1.4.1z" transform="translate(0 .25)"/><path fill="url(#c)" d="m57.3 9.3.2.2.1.3q.9 1.9 1.5 2.3l3.2 1.1q2.5.8 3.4 1.4l2.5 1.5q1.1.5 2.6.5 2.4 0 4.2-1l.3.9v.3l.8.3 1.6.2v.4q0 1.3-7 2.2-7 .8-7 2 0 .5 1 .5l1.3-.1h.6v.6q-.1.5-.8 1.2l-.6.4-.2.3.7.6q-1.7 1.4-4.6 1.7l-5.4.2v-.1q-9.3 0-14.6-1.1l-3.3-.9-4.8-.7q-3.4-.2-5.4-1.8l-5.8-.3-5.9-.5h-.2l-1.7-.6 5.3-2.2q5.4-2.4 9.2-2.4l5.1.6q6.7 0 11.8-4.4 2.8-2.3 3.8-2.9 2.3-1.3 5.3-1.3z" transform="translate(0 .25)"/><path fill="url(#d)" d="m12.9 14.8-5.8-.5-1.7-.4-.2-.1 2.8-1 .8-.2 1-.4-.9-.5q-1.6-.9-4.2-1.1Q.9 10.3 0 9.5q2-1.4 7.9-1.8l8.8-.5q2.6-.3 3.8-1.6l.2-.3 1.1-2.2.2-.4q.6-1.2 1.4-1.8 1.5-1 4.8-1l5.3.9 5 .8 2.4-.4q1.2 0 3.3 1.2l.6.5.5.3.2.1.5-.1 1.5-.2q1.9 0 3.2.9l1.8 1.5h-.1q-4 0-6.2 1.2l-3.7 2.6q-2.4 1.6-5.9 2.5-4.8 1.2-13 1.2l-1.4-.2-5.9.6-1 .4-1.5.6-.4.3h-.1z" transform="translate(0 .25)"/><path fill="#ad9339" fill-opacity=".9" d="m70 23-.5-.1-.6-.3q3.4-1.5 5.4-1.5l1.9.3q1.6.3 2 .9l-1.2.1-5.7.9-1-.2z"/><path fill="url(#e)" d="M13.7 14.5q-.1.3-.5.2z" transform="translate(0 .25)"/><path fill="#131d16" fill-opacity=".2" d="M25.9.2h.1l.1.2-.1.2h-.3l-.1-.2V.2zm1.4-.2.1.3-.1.1-.1.1-.2-.1-.1-.2V0zm1.4 0h.2v.4l-.2.1-.2-.1V0zm32.5 8.4h.2l.1.3-.1.1-.1.1-.2-.1-.1-.1zm1.5.7h.4l.1.2-.1.1-.1.2-.2-.2-.1-.1zm2.4 1.2.2.2-.2.2h-.3v-.4zM65 10l-.1.2h-.3l-.1-.2v-.2h.4zm3.1.2.1.2-.1.2h-.3l-.1-.2v-.2zm-.3.8.2.2-.2.2h-.3V11zm-1.2-1-.2.2-.1-.1-.1-.2v-.2h.4zm.1.9.1.2-.1.2h-.3l-.1-.2V11zm2.8.2v.3l-.2.1-.2-.1V11zm.7 1.1h.3l.1.2-.1.2H70l-.1-.2zm-5 8.9v.3l-.2.2-.2-.2v-.3zm.4 1.3h.3l.2.2-.2.1-.1.2-.2-.1zm-1.2-.1v.3l-.2.1-.2-.1v-.3l.2-.1zm1.5 2h.3l.2.2-.2.2h-.3zm5-4.3.2.2-.2.1-.1.2-.2-.1V20zm-1.7.2h.3l.1.2-.1.1-.1.2-.2-.2-.1-.1zm1.9 1.6h.2v.4l-.2.1-.2-.1v-.3zM68 20.4l.1.2-.1.1-.2.1h-.2v-.4zm-1.8.3h.4v.3l-.2.2-.2-.2zM67 23l.1.2v.1l-.2.2-.2-.1V23zm2.9.2h-.4v-.4h.4l.1.2zm-.5-.6v.2l-.2.1h-.1l-.2-.1v-.3l.2-.1h.3zm7.3-5.5.2.1v.4h-.4v-.4zm0 1.5h.2l.1.3-.1.1-.2.1-.2-.1v-.3zm1-1h.3l.1.2-.1.2h-.4v-.4M73.9 15l.2-.1h.2v.4l-.2.1-.2-.1zm-2.4-1.3.1.2-.1.1-.2.2-.2-.2v-.3zm.9.8.2-.1h.2v.4l-.2.1-.2-.1zm2.8 2h.4v.4l-.2.1-.2-.1zm-.3 2.8h.4v.4h-.4zm-1.1.5-.1.2h-.3l-.1-.2v-.2h.4zm.1 1.5-.1.2h-.4V21h.4zm1-.2h.3l.1.2-.1.2h-.3l-.1-.2zm-2.5-1-.2.1H72v-.4h.4v.4m-.4 1.2h.4l.1.2-.1.1-.2.1H72zm4.4-.1h.3l.2.2-.2.2h-.3zm1.8.5.1.2-.1.2h-.3l-.1-.2v-.2zm-1.2.8v-.2l.2-.1h.2v.4l-.2.1zM51.5 4.8h.1l.1.2-.1.1-.1.2-.2-.2-.1-.1v-.2zm-.5 1V6l-.2.1-.2-.1v-.4h.4zm1.4-.3.1.2-.1.1-.1.2-.2-.2-.1-.1v-.2zm3 .8.1.1.1.2-.1.2h-.3l-.1-.2v-.2zm-1.5-.2.1.3-.1.1-.1.1-.2-.1-.1-.1v-.2zm5.8 1.5h.3l.1.2-.1.2h-.3l-.1-.2zm-1.1-.5.1.1-.1.2-.1.1-.2-.1-.1-.2v-.1l.3-.1zM57.1 7H57l-.1.2-.2-.2-.1-.1v-.2h.4zm-8.3-3.7h.2v.4l-.2.1-.2-.1v-.3zm-1.7-.1h.3l.1.2-.1.2h-.3l-.1-.2zm.6 3 .2-.1h.2v.4l-.2.1-.2-.1V6m2.8-2.2v.4H50v-.4h.3m-1.2 1.9h.4V6l-.2.2-.2-.2zm-6-3.5.3-.1h.1l.1.3-.1.1-.1.1-.2-.1-.1-.1zm1.4.8h.4l.1.2-.1.1-.1.2-.2-.1-.1-.2zm-2.3-1.4.1.1-.1.2-.2.1-.1-.1-.1-.1v-.2l.3-.1zm-1.5.1-.1.1-.1.2-.2-.1-.1-.2v-.2h.4zm1.8 2.7v.4H42v-.4h.4m-1.6.4h.1l.1.3V5l-.2.1-.2-.1v-.3zm4.4-.9-.2-.1-.1-.2v-.1l.3-.1h.1l.1.3zm-1.6 0h.3l.1.3-.1.1-.1.1-.2-.1-.1-.2zm1 3.7h.4l.1.2-.1.2h-.3l-.1-.2zm-1.1.8h.3l.1.2-.1.2h-.3l-.1-.2zm-1.3 1 .1.1.1.2v.2H42v-.4zm-1.5.8.3-.1h.1l.1.3-.1.1-.1.1-.2-.1-.1-.2zM46 6.8h.3l.2.2-.1.1-.2.2L46 7zm-7-5h.1l.1.2-.2.1h-.2v-.4zm-1.2 0 .1.2-.1.1-.1.1h-.2l-.1-.2v-.2zM36 1.5h.3l.1.2-.1.2H36l-.1-.2zm1.9 4h.3l.1.2-.1.1-.1.2-.2-.2-.1-.1zm1.9-.3.1.1-.1.2-.1.1-.2-.1-.1-.2v-.1l.3-.1zm-5.1-3.9h.3l.1.2-.1.2h-.3l-.1-.2zm-1-.2-.1.1-.2.1h-.2V.7h.3zM31.9.8l-.2.1h-.2V.5h.3l.2.2zm1.6 11.5h.1l.1.3-.1.1-.1.1-.2-.1-.1-.2v-.2zm1.3-.2h.3l.1.2v.2h-.4zm1.5-.3.2-.1h.1l.1.3v.1l-.2.1-.2-.1zm1.8-.5.1.3-.1.1-.1.1-.2-.1-.1-.2v-.2zm1.5-.5.1.2v.2h-.4v-.4zM30.2.7 30 .6V.3l.2-.1h.1l.2.3-.1.1zm-6-.1.2-.1h.2V1l-.2.1-.2-.1zm-1 1-.1.1-.2.2-.2-.1v-.4h.4zm-2.7 3.9.2-.1h.1l.2.3-.1.1-.2.1-.2-.1zm.4 2.3V8l-.2.1-.2-.1v-.3l.2-.1zm-.2 3.5h.4v.4h-.4zm9.7 1.8v-.2h.4l.1.2-.1.2h-.3zM29 13h.3l.1.2-.1.2H29l-.1-.2zm-1.1.1.1.2-.1.2h-.3l-.1-.2V13zm-1.8 0h.3l.1.2v.2h-.4zm-1.6 0h.4l.1.3-.1.1-.2.1-.1-.1-.1-.2zm-1 0-.1.2-.2.1-.1-.1-.1-.2h.4zm-1.4-.3.1.2-.1.1-.2.1-.2-.1v-.3l.3-.1zm-1.4.3v.2l-.2.1-.2-.1v-.4h.4zM32 13l-.2-.1v-.4h.3l.1.3v.1zM20 6.3v.3l-.2.1-.2-.1v-.4h.4m-5 1.4.2-.1h.2v.4l-.2.1-.2-.1zm-1.4 0h.3l.1.2-.1.1-.2.2-.1-.2-.1-.1zm-1 .1V8H12v-.4h.3m-1.7.1h.3l.1.2-.1.2h-.4zm.3 4h.3l.1.2-.1.2h-.3l-.1-.2zm1.8-.5v.4h-.4v-.4zm2.4-1 .3-.1h.1l.1.3-.1.1-.2.1-.1-.1zm-1 .8h-.2v-.4h.4v.3m4-4h.4l.1.3-.1.1-.1.1-.2-.1-.1-.1zm.1 2.2-.1.1-.2.1-.1-.1-.1-.2zm.9-.8.2-.1h.1l.2.3-.2.1-.1.1-.2-.1zm-2.3-1 .1.1-.1.2-.2.1-.2-.1v-.4zm0 2.2v.4h-.4v-.4zm2.4 2.4h.4l.1.3-.1.1-.1.1-.2-.1-.1-.2zm-16-3.5.3-.1h.1l.1.3-.1.1-.1.1-.2-.1-.1-.2zM5 8.2l.2-.1h.1l.1.3-.1.1-.1.1-.2-.1-.1-.2zM.5 9H1l.1.2-.1.1-.2.2-.1-.2-.1-.1zm1.9-.5v.3l-.2.2-.2-.2v-.3h.3m7.3-.9V8h-.4v-.4zM8 7.7l.1.2-.1.2h-.3l.1-.1v-.2zm-1.3.1v.4h-.4v-.4zm1.9 4v-.2H9v.4h-.4zm.9.3h.3l.1.3-.1.1-.2.1-.1-.1-.1-.2zm-1.7.7h.4v.4h-.4zm-1.1.5.1.2-.1.2h-.4v-.4zm-1.2.8-.2.1-.2-.1v-.4h.4zm1 .1h.3l.2.2-.2.2h-.3zm1 2.6.1.3-.1.1-.1.1-.2-.1-.1-.2zm-1.7.6.3-.1h.1l.1.3-.1.1-.2.1-.2-.1zm-1.3.7.2-.1h.1l.1.3-.1.1-.1.1-.2-.1-.1-.1zM19 13v.3l-.2.2-.2-.2V13zm-1.1-.4h.3l.1.2v.2h-.4zm-.3.6.1.2-.1.2h-.3l-.1-.2v-.2zm-1.2.1h.1l.2.3-.2.1-.1.1h-.1l-.2-.1v-.4zm-1.6.7h.2v.3l-.2.2-.2-.2V14zm-1.2.8-.2.2H13v-.4h.4zm.4-.4.1.2v.2h-.4v-.4z"/></g><g id="p"><path fill="#5a8b6d" d="M44.2 1.2H44L41.3.8l-.1-.8q11.8.8 9.5 9-3.4 14.8 2 25.5-1.7-2-2.7-4.7-2.6-7.3-.1-19.8 1.4-4-1.9-6.9-1.7-1.4-3.8-1.9m-9.4 1.6q-1.6 1-2.6 2.6l-1.3.6-1.3.7q-6.2-1.7-9.7.1-2.7 1.4-3.8 4.7l-.4.9h-2q-3.5-.6-6.2.5l-.1.1Q5.2 14 4 15.7T4 19l.4.6-.4.3q.9 1 2.4 1.4l2.6 4 .3 4.1.6.1.3 2.5v.1l-.7.3.6 2.4.6-.1q.7 2.8 1.9 5.5l-.7 1.1q-.4.9-.3 1.9.1.8.7 1.2l1.3.1.9-.7q2.5 4 6.4 7.5l-2.6.4Q10 43.5 5.9 38.2l-.6-.7-1.8-6.2V31q.5-1.5.5-3.3 0-2.6-1-4.4V23l-.4-5.3h.2v-.2q-.1-3.9 5.6-5.9l6.9.1q1.1-3.5 4.5-5.4l6.5-1.7 3.4 1 2-1q1-1.4 2.1-2.4zM5.2 33.4q-.2 1.1.1 2.5t1.2 2.2q.7.8 1.4.6t.9-1.2q.3-1.2-.1-2.5t-1.1-2.2-1.5-.7-.9 1.3"/><path fill="url(#f)" d="m8.4-37.9 2.8.3h.2l2.1 2.6.1.5q1 5.9.6 12v.1q-.9 7.9.8 13.9l-1.4 2.9h-.2l-3.5.3Q3.4-3-.6-33.2.2-35 2-36q1.8-1.2 4.4-1.7z" transform="translate(32.85 38.8)"/><path fill="#2b4235" d="M44.2 1.2q2.1.5 3.8 1.9 3.4 2.9 2 6.8-2.5 12.5.1 19.8 1 2.7 2.7 4.7l-2.2 2.1h-2.7Q42 36.3 37 39q-1.8 1-3.4 2.2l-1.9 1.5q-2.1 1.8-4.1 4.2l-6.7 4.4q-3.9-3.5-6.4-7.5l-1.9-3.5q-1.2-2.7-2-5.6l-.4-2.6-.3-2.6q-.3-2.6-.2-5.3L7.5 21q-2-.2-3-1.2L4 19q-.9-1.5.1-3.3T7.4 13l1.3 1.6L11 17q1 1.3 1.5 4.3.7 4.3 3 12.7 1.3 4.4 6.9 9.5l3.8-.5-.4-3.2q-9.2-7.1-10-27.3l.3-.9q1.1-3.3 3.8-4.7-2.1 20.8 9.9 31.5h4l1.3-4.6Q32 23.3 30.9 6l1.3-.6q4 30.3 10.5 28.2l3.5-.4h.3l1.3-2.9q-1.6-6-.8-13.9.4-6.2-.5-12.1l-.1-.5zM37 39q-1.1-2.4-2-5.4.9 3 2 5.4"/><path fill="#c98c2f" d="M41.2.1V1l-2 .2q-2.6.5-4.4 1.7l-1-.6Q36.5 0 40.3.1z"/><path fill="#7dac8f" d="m26.2 4.6-6.5 1.7q-3.4 1.9-4.5 5.4h-7q-5.6 2-5.5 5.8v.1l-.2.1.4 5.3Q2 21.4.8 21.4l-.4.1q.2-1.8.9-3.6l1.6-3.7 2.8-2.7 1.1-.2q4-1 7.7-.2 2-3.9 5-5.5 2.8-1.6 6.7-1M3.5 31.4l1.8 6.2.6.8q4.1 5.3 12.4 13.4l-.8.1Q5.9 42.6 2 33.6l.6-.6.5-.7zm7.2 3.3-.6.2-.6-2.4.7-.2zm-.8-5-.6-.2-.3-4-2.6-4Q4.9 21 4 20l.4-.2q1 1 3 1.2l2.3 3.3q-.1 2.7.2 5.3"/><path fill="#cf4949" d="m2.9 23 .2.3q.9 1.8.9 4.4 0 1.8-.4 3.3l-.1.3-.4 1-.5.7-.6.6Q-.6 27.5.4 21.5h.4q1.2 0 2.1 1.5"/><path fill="#792020" d="m14.5 43.8-1 .7h-1.2q-.6-.5-.7-1.4t.3-1.8l.7-1z"/><path fill="url(#g)" d="M-25.3-25.8q2.7-1.2 6.1-.6h2.1q.9 20.2 10 27.3l.4 3.2-3.7.5h-.1q-5.6-5-6.8-9.4-2.4-8.5-3-12.7-.5-3.1-1.6-4.4l-2.3-2.2-1.3-1.6z" transform="translate(32.85 38.8)"/><path fill="url(#h)" d="M-13-32q3.5-1.8 9.7-.1l1.3-.6Q-.8-15.5 2.3-5.1L.9-.5h-4Q-15-11.1-13-31.8" transform="translate(32.85 38.8)"/><path fill="#872323" d="M5.2 33.4q.2-1.1.9-1.3t1.5.7q.7.8 1.1 2.2.4 1.3.1 2.5-.2 1-.9 1.3-.7.1-1.4-.7-.8-.9-1.2-2.2t-.1-2.5"/><path fill="none" stroke="#000" stroke-linecap="round" stroke-linejoin="round" stroke-opacity=".3" stroke-width="__RESOLUTION__" d="M48 3.1q3.4 2.9 2 6.8-2.5 12.5.1 19.8 1 2.7 2.7 4.7-5.4-10.7-2-25.5Q53 1 41.2.1h-1q-3.7-.1-6.5 2.1-1.1 1-2.2 2.4l-1.9 1-3.4-1q-3.9-.6-6.7 1-3 1.6-5 5.5-3.7-.8-7.7.2l-1.1.2-2.8 2.7-1.6 3.7q-.7 1.8-1 3.6-1 6 1.7 12.1 3.9 9 15.5 18.2l.8-.1 2.6-.5q-3.9-3.4-6.4-7.5l-1.9-3.5q-1.2-2.7-2-5.6l-.4-2.5m0 0-.3-2.6q-.3-2.6-.2-5.3L7.5 21M37 39.1q5-2.8 10.8-2.6h2.8l2-2.1M37 39q-1.8 1-3.4 2.2l-1.9 1.5q-2.1 1.8-4.1 4.2l-6.7 4.4m14.2-17.6q.8 3 1.9 5.3M17.5 51.9l-2.8.5" vector-effect="non-scaling-stroke"/><path fill="none" stroke="#000" stroke-linecap="round" stroke-linejoin="round" stroke-opacity=".2" stroke-width="__RESOLUTION__" d="M48 31.6q-7.4-2.2-13 3.2-7.8 1-9.1 5.6-8.7 2.2-8.3 6.2m11-20.6 4.3-.3h.3q7.6-5.7 13.3-1.9m-4.7-4q2 .2 4.3 1m-13 1.8q2.5-2.2 5.7-2.7m-16.2-9.4q3.6-1.6 8.6-1l1.4-.7q6.7-5.6 15.3-.9m-24.1 3.8q3.5-1.7 7.4-.6 8.5-5.7 16.3-1.5M11.2 32.3l-.1.2m-.7-14.8Q8.7 18 7 19.2m17 5.4q-3.2 1.7-5.4 5.3l-5 .3M21 11.4q-3 1.9-4.7 5.4H16q-5.5-2.6-10.1.8m15.9-4.8q-2.7 1.8-5.3 5.4-2-.8-3.7-.9m14.8 6 2.8-.2M25 27.2q-3.4 1.7-5.2 5.2-5.6-1.4-8.1 3.7" vector-effect="non-scaling-stroke"/></g><g id="o"><path fill="url(#i)" d="M54 6.2q4 .3 8 2.4l1.8 1 .4.3.3-.1h.2l.9-.2q3 0 5.2 3.4.5 1 2.5 1.7 1.2.3 1.7 1-1.8.9-4.2.9-1.5 0-2.6-.6l-2.5-1.4q-1-.7-3.4-1.4l-3.1-1.1q-.7-.4-1.6-2.3l-.1-.3-.2-.2q-.7-1.5-1.4-2z" transform="translate(0 .25)"/><path fill="url(#j)" d="m54 6.2 1.9 1.1q.6.5 1.4 2l-2.7-.7q-3 0-5.4 1.4-1 .6-3.8 3-5.1 4.3-11.8 4.3l-5.1-.6q-3.8 0-9.2 2.4l-5.4 2.2-3.3-1-.9-.2-.7-.2H6q-2.4-.3-2.5-1.4v-.1l7.5-2.9 1.8-.7.3-.2q.4.2.5-.2l1.5-.6 1-.4 6-.6 1.3.2q8.2 0 13-1.2 3.5-.9 5.9-2.6L46 6.7q2.3-1.2 6.1-1.2l.3.1.4.1z" transform="translate(0 .25)"/><path fill="url(#k)" d="m57.3 9.3.2.2.1.3q.9 1.9 1.5 2.3l3.2 1.1q2.5.8 3.4 1.4l2.5 1.5q1.1.5 2.6.5 2.4 0 4.2-1l.3.9v.3l.8.3 1.6.2v.4q0 1.3-7 2.2-7 .8-7 2 0 .5 1 .5l1.3-.1h.6v.6q-.1.5-.8 1.2l-.6.4-.2.3.7.6q-1.7 1.4-4.6 1.7l-5.4.2v-.1q-9.3 0-14.6-1.1l-3.3-.9-4.8-.7q-3.4-.2-5.4-1.8l-5.8-.3-5.9-.5h-.2l-1.7-.6 5.3-2.2q5.4-2.4 9.2-2.4l5.1.6q6.7 0 11.8-4.4 2.8-2.3 3.8-2.9 2.3-1.3 5.3-1.3z" transform="translate(0 .25)"/><path fill="url(#l)" d="m12.9 14.8-5.8-.5-1.7-.4-.2-.1 2.8-1 .8-.2 1-.4-.9-.5q-1.6-.9-4.2-1.1Q.9 10.3 0 9.5q2-1.4 7.9-1.8l8.8-.5q2.6-.3 3.8-1.6l.2-.3 1.1-2.2.2-.4q.6-1.2 1.4-1.8 1.5-1 4.8-1l5.3.9 5 .8 2.4-.4q1.2 0 3.3 1.2l.6.5.5.3.2.1.5-.1 1.5-.2q1.9 0 3.2.9l1.8 1.5h-.1q-4 0-6.2 1.2l-3.7 2.6q-2.4 1.6-5.9 2.5-4.8 1.2-13 1.2l-1.4-.2-5.9.6-1 .4-1.5.6-.4.3h-.1z" transform="translate(0 .25)"/><path fill="#ad9339" fill-opacity=".3" d="m70 23-.5-.1-.6-.3q3.4-1.5 5.4-1.5l1.9.3q1.6.3 2 .9l-1.2.1-5.7.9-1-.2z"/><path fill="url(#m)" d="M13.7 14.5q-.1.3-.5.2z" transform="translate(0 .25)"/><path fill="#131d16" fill-opacity=".1" d="M25.9.2h.1l.1.2-.1.2h-.3l-.1-.2V.2zm1.4-.2.1.3-.1.1-.1.1-.2-.1-.1-.2V0zm1.4 0h.2v.4l-.2.1-.2-.1V0zm32.5 8.4h.2l.1.3-.1.1-.1.1-.2-.1-.1-.1zm1.5.7h.4l.1.2-.1.1-.1.2-.2-.2-.1-.1zm2.4 1.2.2.2-.2.2h-.3v-.4zM65 10l-.1.2h-.3l-.1-.2v-.2h.4zm3.1.2.1.2-.1.2h-.3l-.1-.2v-.2zm-.3.8.2.2-.2.2h-.3V11zm-1.2-1-.2.2-.1-.1-.1-.2v-.2h.4zm.1.9.1.2-.1.2h-.3l-.1-.2V11zm2.8.2v.3l-.2.1-.2-.1V11zm.7 1.1h.3l.1.2-.1.2H70l-.1-.2zm-5 8.9v.3l-.2.2-.2-.2v-.3zm.4 1.3h.3l.2.2-.2.1-.1.2-.2-.1zm-1.2-.1v.3l-.2.1-.2-.1v-.3l.2-.1zm1.5 2h.3l.2.2-.2.2h-.3zm5-4.3.2.2-.2.1-.1.2-.2-.1V20zm-1.7.2h.3l.1.2-.1.1-.1.2-.2-.2-.1-.1zm1.9 1.6h.2v.4l-.2.1-.2-.1v-.3zM68 20.4l.1.2-.1.1-.2.1h-.2v-.4zm-1.8.3h.4v.3l-.2.2-.2-.2zM67 23l.1.2v.1l-.2.2-.2-.1V23zm2.9.2h-.4v-.4h.4l.1.2zm-.5-.6v.2l-.2.1h-.1l-.2-.1v-.3l.2-.1h.3zm7.3-5.5.2.1v.4h-.4v-.4zm0 1.5h.2l.1.3-.1.1-.2.1-.2-.1v-.3zm1-1h.3l.1.2-.1.2h-.4v-.4M73.9 15l.2-.1h.2v.4l-.2.1-.2-.1zm-2.4-1.3.1.2-.1.1-.2.2-.2-.2v-.3zm.9.8.2-.1h.2v.4l-.2.1-.2-.1zm2.8 2h.4v.4l-.2.1-.2-.1zm-.3 2.8h.4v.4h-.4zm-1.1.5-.1.2h-.3l-.1-.2v-.2h.4zm.1 1.5-.1.2h-.4V21h.4zm1-.2h.3l.1.2-.1.2h-.3l-.1-.2zm-2.5-1-.2.1H72v-.4h.4v.4m-.4 1.2h.4l.1.2-.1.1-.2.1H72zm4.4-.1h.3l.2.2-.2.2h-.3zm1.8.5.1.2-.1.2h-.3l-.1-.2v-.2zm-1.2.8v-.2l.2-.1h.2v.4l-.2.1zM51.5 4.8h.1l.1.2-.1.1-.1.2-.2-.2-.1-.1v-.2zm-.5 1V6l-.2.1-.2-.1v-.4h.4zm1.4-.3.1.2-.1.1-.1.2-.2-.2-.1-.1v-.2zm3 .8.1.1.1.2-.1.2h-.3l-.1-.2v-.2zm-1.5-.2.1.3-.1.1-.1.1-.2-.1-.1-.1v-.2zm5.8 1.5h.3l.1.2-.1.2h-.3l-.1-.2zm-1.1-.5.1.1-.1.2-.1.1-.2-.1-.1-.2v-.1l.3-.1zM57.1 7H57l-.1.2-.2-.2-.1-.1v-.2h.4zm-8.3-3.7h.2v.4l-.2.1-.2-.1v-.3zm-1.7-.1h.3l.1.2-.1.2h-.3l-.1-.2zm.6 3 .2-.1h.2v.4l-.2.1-.2-.1V6m2.8-2.2v.4H50v-.4h.3m-1.2 1.9h.4V6l-.2.2-.2-.2zm-6-3.5.3-.1h.1l.1.3-.1.1-.1.1-.2-.1-.1-.1zm1.4.8h.4l.1.2-.1.1-.1.2-.2-.1-.1-.2zm-2.3-1.4.1.1-.1.2-.2.1-.1-.1-.1-.1v-.2l.3-.1zm-1.5.1-.1.1-.1.2-.2-.1-.1-.2v-.2h.4zm1.8 2.7v.4H42v-.4h.4m-1.6.4h.1l.1.3V5l-.2.1-.2-.1v-.3zm4.4-.9-.2-.1-.1-.2v-.1l.3-.1h.1l.1.3zm-1.6 0h.3l.1.3-.1.1-.1.1-.2-.1-.1-.2zm1 3.7h.4l.1.2-.1.2h-.3l-.1-.2zm-1.1.8h.3l.1.2-.1.2h-.3l-.1-.2zm-1.3 1 .1.1.1.2v.2H42v-.4zm-1.5.8.3-.1h.1l.1.3-.1.1-.1.1-.2-.1-.1-.2zM46 6.8h.3l.2.2-.1.1-.2.2L46 7zm-7-5h.1l.1.2-.2.1h-.2v-.4zm-1.2 0 .1.2-.1.1-.1.1h-.2l-.1-.2v-.2zM36 1.5h.3l.1.2-.1.2H36l-.1-.2zm1.9 4h.3l.1.2-.1.1-.1.2-.2-.2-.1-.1zm1.9-.3.1.1-.1.2-.1.1-.2-.1-.1-.2v-.1l.3-.1zm-5.1-3.9h.3l.1.2-.1.2h-.3l-.1-.2zm-1-.2-.1.1-.2.1h-.2V.7h.3zM31.9.8l-.2.1h-.2V.5h.3l.2.2zm1.6 11.5h.1l.1.3-.1.1-.1.1-.2-.1-.1-.2v-.2zm1.3-.2h.3l.1.2v.2h-.4zm1.5-.3.2-.1h.1l.1.3v.1l-.2.1-.2-.1zm1.8-.5.1.3-.1.1-.1.1-.2-.1-.1-.2v-.2zm1.5-.5.1.2v.2h-.4v-.4zM30.2.7 30 .6V.3l.2-.1h.1l.2.3-.1.1zm-6-.1.2-.1h.2V1l-.2.1-.2-.1zm-1 1-.1.1-.2.2-.2-.1v-.4h.4zm-2.7 3.9.2-.1h.1l.2.3-.1.1-.2.1-.2-.1zm.4 2.3V8l-.2.1-.2-.1v-.3l.2-.1zm-.2 3.5h.4v.4h-.4zm9.7 1.8v-.2h.4l.1.2-.1.2h-.3zM29 13h.3l.1.2-.1.2H29l-.1-.2zm-1.1.1.1.2-.1.2h-.3l-.1-.2V13zm-1.8 0h.3l.1.2v.2h-.4zm-1.6 0h.4l.1.3-.1.1-.2.1-.1-.1-.1-.2zm-1 0-.1.2-.2.1-.1-.1-.1-.2h.4zm-1.4-.3.1.2-.1.1-.2.1-.2-.1v-.3l.3-.1zm-1.4.3v.2l-.2.1-.2-.1v-.4h.4zM32 13l-.2-.1v-.4h.3l.1.3v.1zM20 6.3v.3l-.2.1-.2-.1v-.4h.4m-5 1.4.2-.1h.2v.4l-.2.1-.2-.1zm-1.4 0h.3l.1.2-.1.1-.2.2-.1-.2-.1-.1zm-1 .1V8H12v-.4h.3m-1.7.1h.3l.1.2-.1.2h-.4zm.3 4h.3l.1.2-.1.2h-.3l-.1-.2zm1.8-.5v.4h-.4v-.4zm2.4-1 .3-.1h.1l.1.3-.1.1-.2.1-.1-.1zm-1 .8h-.2v-.4h.4v.3m4-4h.4l.1.3-.1.1-.1.1-.2-.1-.1-.1zm.1 2.2-.1.1-.2.1-.1-.1-.1-.2zm.9-.8.2-.1h.1l.2.3-.2.1-.1.1-.2-.1zm-2.3-1 .1.1-.1.2-.2.1-.2-.1v-.4zm0 2.2v.4h-.4v-.4zm2.4 2.4h.4l.1.3-.1.1-.1.1-.2-.1-.1-.2zm-16-3.5.3-.1h.1l.1.3-.1.1-.1.1-.2-.1-.1-.2zM5 8.2l.2-.1h.1l.1.3-.1.1-.1.1-.2-.1-.1-.2zM.5 9H1l.1.2-.1.1-.2.2-.1-.2-.1-.1zm1.9-.5v.3l-.2.2-.2-.2v-.3h.3m7.3-.9V8h-.4v-.4zM8 7.7l.1.2-.1.2h-.3l.1-.1v-.2zm-1.3.1v.4h-.4v-.4zm1.9 4v-.2H9v.4h-.4zm.9.3h.3l.1.3-.1.1-.2.1-.1-.1-.1-.2zm-1.7.7h.4v.4h-.4zm-1.1.5.1.2-.1.2h-.4v-.4zm-1.2.8-.2.1-.2-.1v-.4h.4zm1 .1h.3l.2.2-.2.2h-.3zm1 2.6.1.3-.1.1-.1.1-.2-.1-.1-.2zm-1.7.6.3-.1h.1l.1.3-.1.1-.2.1-.2-.1zm-1.3.7.2-.1h.1l.1.3-.1.1-.1.1-.2-.1-.1-.1zM19 13v.3l-.2.2-.2-.2V13zm-1.1-.4h.3l.1.2v.2h-.4zm-.3.6.1.2-.1.2h-.3l-.1-.2v-.2zm-1.2.1h.1l.2.3-.2.1-.1.1h-.1l-.2-.1v-.4zm-1.6.7h.2v.3l-.2.2-.2-.2V14zm-1.2.8-.2.2H13v-.4h.4zm.4-.4.1.2v.2h-.4v-.4z"/></g><clipPath id="n"><path d="M1 1h70v57H1z"/></clipPath></defs><g clip-path="url(#n)"><g transform="translate(36.75 39.8)"><use xlink:href="#o" width="78.2" height="27.6" transform="matrix(.6893 0 -.0985 .8624 -34.05 -9.9)"/><use xlink:href="#p" width="52.8" height="52.5" transform="translate(-32.85 -38.8)"/><use xlink:href="#q" width="78.2" height="27.6" transform="matrix(-.6137 .0898 .1208 .6333 30.9 -6.85)"/></g></g></svg>