<svg xmlns="http://www.w3.org/2000/svg" xmlns:xlink="http://www.w3.org/1999/xlink" width="36" height="41" viewBox="0 0 36 41"><defs><clipPath id="a"><path d="M1 1h34v39H1z"/></clipPath><g id="b"><path fill="#6c6448" fill-opacity=".3" d="M31.4 27.5q2.5 1.7 2.6 4-.1 3-4.9 5.3-3 1.4-6.9 1.9-.3-3-.7-3.5l-.9 3.6-3.1.2q-6.8 0-11.6-2.2t-4.8-5.3q0-3.2 4.8-5.3l3.8-1.3q3.5-1 7.8-.9 4.5 0 8 1l3.6 1.2v-.1l.8-3.4q.5.8.6 4l.6-.7.9-2v1z"/><path fill="#7c4501" d="m11.5 2.7.7.3 1.1.6.5.2 2.5 1.8 1 1.2.2.2 1 .9.4.2-1.2.8-.2-.3-2.4-3L13.7 4l-1.6-1H12zM8.2 34.2 7 33.8l-.8-.3v-.1l.8.1q1.1.2 1.2.6M23 5.8l-.1-1-.3-.5.9-.3h.1l.1-.1.9.6.1.2-1.6 1.2zm-2.7-.4.4.9.4.5-1.2.8-.3-.4-.7-1zm-5.1 5.3-.1-.3-.2-.3q-1-2-1-2.7l.3-1 2.2 3 .3.3zm-3 1 .3-.3.6-.7-.6-1.1.6-.2-1-2.6-.2-1.2.3 1 .1.1 1.8 4.4.5 1-1.1 1.2-1.3-.9-1.3-.6q-.8-.2-1.3-.6l-.5-.3.6.1 2.3.9v-.3zm1.6.1-.1-.2-.1-.2h-.1l-.2.1-.1.2v.1l.1.3h.4zm-1.7 3.5-.1.2-1.3-2 .2-.1 2 .8h-.2zM7 10.4q.3.8 1.4 2.3l.1.1.2.1L9.9 14l.3.3 1.2 2.4-.2.3v.3l-.1.2-2.4-.3.4-.9.1-.2-.4-.6-.3-.2v-.4L8 13.7l-1-1.2q-.3-1.2-.9-2.1zm3.4 9.4v.3l-.9.3h-1l-.3-.1-.1-.1h.4l.1-.5-.4-.1-.3-.1.4-1.1.1-.2zm-.4 1.8-.3 1.6-1.7-.6h-.7l.7.8q.5.4 1.5.6l-.1 1.2-1.5-1.4q-1.1-1-1.8-1.2-1.5-.7-2.3-1.4l-.1-.1-.6-.9.7-.1H5q.7.9 2 1l.9.1zm-.7 4.6v.2l-.1 1.2v1.1q-.8-.4-1.6-.5h-.9l.5-.3-.2-.5h-.1l-.6.1v-.7l1.4-.3zm1.2-10-.3.2-.2.1.2.3h.5l.2-.3-.2-.1zM9 19.9l-.5-.2zM8.7 22l-.1.3v.2l.3.2.3-.2.2-.2-.2-.3-.2-.1zm-5.1 7.3 1.7.6 2-.5.3-.3q.5 0 1.3.6V31H8l-.8.3-.5.2q0 .6.5.9h.5l1.3-.2v.8l-.4-.3q-.4.6-1 .6h-.5l-3.4-1.1L.8 31l.4-.7q.4-.4 2.4-1M8 30.6l.2-.4L8 30l-.3-.1-.3.1-.1.4v.3l.4.1zm-4.4 0h-.2l-.3-.2h-.5q-.5 0-.8.4l1.8.5 1 .3.4-.3z"/><path fill="#9a5501" d="M16.3 5.6q2.6-1.2 5.3-1.7l.5-.1 1.3-.2h.1l.3.2h-.2l-.1.1-.9.4.3.5v.9l-.1-.2-1.7 1.2-.4-.5-.4-.9 2.3-1-2.4 1-1.3.8.7 1 .3.4-1 .6-.4-.2-1-.9 1.4-.9-1.4.8-.1-.1zM9.1 34.4l-1-.2q0-.5-1-.7H7l-.8-.1-.4-.1-2.8-.9-2.2-.9v-.4l2.9 1L7 33.3l.6.1q.5 0 .9-.6l.4.3zm-4.9-12-.3-.3-.1-.2-.4-.4-.7-.8.4-.4.6.8v.1q.9.7 2.4 1.4.7.3 1.8 1.2l1.5 1.4-.1 1-1.6.3-1.3.3v-.4l.3-1.6-.2-.2-.8-.7.8.7.2.1-.3 1.8v.3l-.1.7-.6.2.1-.9v-1.1L5.7 24l-.2-.2-.2-.2-.4-.3zm3-9-1-1.4-.8-1.3.1-.2.7-.2q.6.8.9 2l1 1.3.5 1.2v.3l.3.3.4.6v.2H9l-.4.9 2.4.3-.7 2.3h-.2l-1.9-1.6-.1.2-.4 1.1-1-.2.7-2.2.7-1.9v-.4H8l-.4-.5-.3-.3zM12 3l1.7 1.1 1.4 1.5 2.3 3 .3.3-1 .7-.3-.3-2.2-3-.2 1q0 .6.9 2.7l.2.3.1.3-.3.2h-.1l.1.9-.3.4-.5-1.2-1.8-4.3v-.1l-.5-1-.2-1.9q0-.5.4-.6m9-.9 3-.5 2.8-.6 1.3.6q1 .3 1.1 1.5L28 4.8h-.3l-.5-.7-2-.8zm.6 5.1-1.1 1.5q-.3.4-1.8 4.4l-1 3.3q-.7 2.5-1.5 6.5L15 28.2 14 32l-1.3.3.7-3.6 1-7.7.7-4.2q.8-4.5 2-6.4l.5-.7.4-.2 1.6-1 .6-.4 1.3-.8zm-4.9 23.7.5-3.4Q18.3 19 19.4 16l.1-.3q.6-3.5 1.5-5.6l2.5-2.4.5-.5.5.8q-1 1.2-1 2.8l.2 1.7-.4 3-.3 1q-.9 2.5-.9 5.5l.4 3.6.3 2.4-1-.2-1.4.9v-.1l.7-2.5.2-2.4q0-2-1.1-2l-.1.1-.8.7-.4 1q-.6 1.7-.8 3.5l-.2 2.8v.4zM12.5 9.5l.6 1.1-.6.7-.3.3-.2-.1-1-.7.7-.5zm-3.4 1.3.5.3 1.3.7 1.3.5 1.3.9-.2.1.1.5v3.5l-1.3-2.1.7-1 .1-.1-2-.8-.2.1 1.3 2-.6 1.3-1.2-2.3-.3-.4-1.2-1-.2-.2Q7.2 11.2 7 10.4zm4.3 7.5-.2 5-1.1-.9v-1.2L12 19zm-.2 5.3v.1l-.4 5.3-.3 2-.3 1.2-.4-.3-.3.3 1-1.3-1-2.1-.2-.1.5-4zm8-9.3-.3 1.7-.1.3q0 .8.4.8.8 0 1.4-1.4.4-1 .4-1.6 0-1.9-.6-1.9t-1.1.7zm-11 6.7-.2.7-1.9-.4h-.8Q5.7 21 5 20l2.9.1.4.2h1l.8-.2zm-.5 2.3-.2.8q-1-.2-1.5-.6l-.7-.8H8zm-1.1-8-.2-.1zm.2 1.9-.4 1zm-2.1 7.6.7.4zm-3 4.5 2.9-1.1h.9q.8 0 1.6.5v.2l-.1.9q-.7-.7-1.3-.7l-.3.3-2 .5zm5.3 3-1.3.2h-.5q-.5-.3-.5-.9l.5-.2.8-.4 1 .1zm-5.5-1.7.2.1 1.4.7-.4.3-1-.3-1.8-.6q.3-.4.8-.4l.5.1z"/><path fill="#784201" d="m23.5 3.6-.2-.2-7-.5-.2-.1.1-.4.6-.2.6-.3h.1l1.6.3 1.9-.1 4 1.2 2.1.8.5.7-3-.4-.9-.6zm1.9 6Q24.3 12 24 15.5q-.4 3.8.2 8.9l.1.8.3 1.4h-.2l-.1.2q-.5 1-1.4 1.5l-.1-.2-.3-2.4-.4-3.6q0-3 .9-5.5l.3-1 .4-3-.2-1.7q0-1.6 1-2.8zM26.8 1l.9-.1q.7 0 2.4 1.1l-.9 1.1q0-1.2-1.1-1.5zm-3.6 4.8.9 1.5-.5.5-2.5 2.4q-.9 2.1-1.5 5.7l-.1.2q-1.1 3-2.2 11.3l-.4 3.5-2.7 1 .9-3.7 1.2-5.3q.8-4 1.5-6.5l1-3.3q1.5-4 1.8-4.3l1.1-1.6L23 5.9m-8 5.8.4-.4h.1L17 10l.6-.3-.5.6q-1.2 1.9-2 6.4l-.6 4.2-1.1 7.7-.7 3.6h-.2l-.3-.2.3-1.3.3-1.9.4-5.3v-.1l.3-.1-.2-.2.1-5 .4-.3-.4-.6v-3.5l1.8-1zm6.1 2.5.2-1.4q.4-.7 1-.7T23 14q0 .6-.4 1.6Q22 17 21.2 17q-.4 0-.4-.7v-.4zM18 30.3v-.4l.2-2.7q.2-1.9.8-3.7l.4-.9.8-.7.1-.1q1.1 0 1.1 2l-.2 2.4-.7 2.5v.1l-.6.4-.4.1zm-7.6-10.4 1.7-1 .1 2.3v1.1l-2-1.4.2-.7zm-1.1 6.5 2.6-1.9-.5 4.1-2.2-1z"/><path fill="#d5d0be" d="M16.2 2.4h.2l.4-.2zm1.4-.5.4-.1v.1zm.6-.1.2-.2v.1zm-12 31.8-.4-.2h.4zM23 5.7v.2zM9.4 20.4"/><path fill="#d67601" d="M17.5 2h.4l.2-.2h.1l.2-.1 2.6.4-1.9.1zm2.1-.6 3.3-.7 5.7-.6Q30-.2 30 2 28.5.9 27.8.9l-1 .1-1.1-.2zM.1 31v-.1l-.1-.1.1-.4.2-.2q1-.2 2.7-.9h.6q-2 .7-2.4 1.1l-.4.7-.3-.2zm2.7-11.8h1.7l.1.2.5.7H3.7l-.7.1-.2-.6zm2.5-9.7.6-.1 1.2.2-.2.3.1.5h-.9zm3 .4.6.1.8.3.3.1.2.1.8.4 1 .7v.3L9.7 11l-.6-.2-.2-.2zm3.5-1.6-.2-.6-.6-1.9-.5-2.1q.7.7 1.3 1.9l.3 1.2.9 2.6-.6.2-.2-.4-.3-.6v-.1zm-4 11.3.3.1.4.1-.1.6-.5-.1-.5-.3-.7-.5.1-.1zm-2.2 8.2.6-.2.6-.1h.1l.2.5-.5.3H5.5l-1.1-.1.3-.2z"/><path fill="#eb8201" d="m18.4 1.6 1.2-.3 6-.5 1.1.2-2.7.6-3 .5zM.8 31.5.1 31h.4l.3.1zm-.5-1.4q.6-.5 2.2-1.2l1.2-.6.3-.1.4-.1 1.1.1h1l-2.7 1-.1.1H3q-1.7.7-2.7.8m2.3-9.4-.5-.8v-.3l.5-.3.2-.1v.4l.2.6zm1.9-1.6.8.1 1.2.1.8.6.5.3-3-.1-.4-.7zm.8-8.4-.1-.2q-.4-.8-.2-1l.3-.2.8 1-.7.2zm1.8-1.2h.6l.7.2.5.7.2.3-2.1-.4-.1-.5zm3.5-6v-.3l.2-.5.7-.1.5.3q-.4 0-.4.6l.3 1.9q-.6-1.2-1.3-1.9"/><path fill="#502d01" d="m30.2 2-.4 2.8-.5 1.8-.1.3V3.1zm-2.3 8-.8.9-.5-3.6-1.2 2.3-.9-1.5q.8-.9 2-1.5l.1.7v-.7l-.1-.8-.7-.5-1.8 2-1-1.5 1.8-1.2-.2-.2 3 .4.4 2.3v.8zM9.8 34.6l-.2-.1H9v-5.8l.1-1.1 2.2 1-.1.8-.5 3.9zm15-30 1 .8zm-11.3 8.6 1.1-1.1.3-.4.3 1.1-1.8 1zm0 4 .4.7-.4.3zm.4-5.5-.1.3h-.4l-.1-.3v-.1l.1-.2h.4zm-1.7 10.6-.3 2.2-2.6 1.9v-.2l.1-1 .1-1.2.2-.8.3-1.6.2-.7zm-.7-5.6.1.4v.1l.2.4.3 1.3-1.7 1v-.1l.8-2.3v-.2l.2-.3zm-1-.4h.2l.2.2-.2.3h-.5l-.2-.3.2-.1zM8.7 22l.3-.1.2.1.2.3-.2.2-.2.2q-.2 0-.3-.2l-.1-.2zm-.5 8.6-.3.1-.3-.1-.1-.4V30l.4-.1.3.1.2.4z"/><path fill="#613601" d="m29.2 7-1.3 3 .2-2V7l-.5-2.3h.3L29.3 3v.2zm-3.4-1.6.7.5v.8q-1.2.6-2 1.5l-.5-.8zM13.3 23.2v.3l-1.5 1 .3-2.2zm.1-6v1L12 19l-.3-1.4-.1-.4-.1-.1-.1-.4.6-1.3.1-.2zm-2.1 11.4.3.1.9 2.1-1 1.3-.8 1.2.5-3.9z"/><path fill="#7b6302" d="M24.6 26.6q.4 3.3-.4 3.5.4.8-2 2.6l-.7.3q1.3-3 1.3-4.9l.1.2q.9-.5 1.4-1.5v-.2zm-8.1 7.8-3.1.3.8-2.8 2.7-1zm-4.4.3-.4-.1.6-2.5.3.2h.2zm-1.6-.2h-.6l.8-1.2zm7.5-4.2 1.5-1 .4-.1.6-.4q-.9 3.2-1.8 3.7-.7-.9-.7-2.2"/><path fill="#987a03" d="m21.5 33-.4.1-3.6 1-1 .3h-.1l.4-3.5 1-.6q.1 1.3.8 2.2.9-.5 1.8-3.7l1.4-.9 1 .3q0 1.9-1.3 4.8m-8.2 1.6H12l.7-2.4 1.4-.3zm-1.7-.1-1.2-.1.3-1.2.8-1.2.3-.3.4.3z"/><path fill="#cd7201" d="M4 28.2v-4.8l.1-1 .8.8.3.3-.2 1.6-.3 2.8-.3.2zm.6-9.1v-.2l.2-.4.4-1.1.3-.7L7 13.6l.3.4-.9 1.8-.3.8v.1L5.8 18l-.3 1.2h-.8zm5-8.9.7-.6.3-.3 1.3-1v.1l.1.1-1.3 1.3-.5.6H10z"/><path fill="#8f5001" d="m17.7 9 1.2-.9 1-.6 1.2-.8 1.7-1.2.2.2v.2l-1.4 1.3-.1.1-1.3.8-.6.3-1.6 1-.4.3-.6.4-1.5 1.2h-.1l-.5.4-.1-.9h.1l.3-.2 1.4-1z"/><path fill="#bdb59b" d="m17.5 7-.1-.2zm-4.2 16.2.2.2-.2.1zm-6.7-3.9h.1zM3.5 30.6h.2z"/><path fill="#b86601" d="m12 8.5.3.6.2.4-.8.8-.7.5-.8-.4.5-.6zM5.5 19.2l.3-1.2.4-1.2v-.2l.3-.8.9-1.8.3.3.4.5.2.2-.2.2-.6 1.9-.7 2.2h-.1zm0 4.7v.1l.3 1.7v.2l-.1 1-.1.8-.9.3.3-3 .2-1.6.2.2z"/><path fill="none" stroke="#333" stroke-linecap="round" stroke-linejoin="round" stroke-width="__RESOLUTION__" d="m11.5 2.7.7.3 1.1.6.5.2 2.5 1.8q2.6-1.2 5.3-1.7m.5-.1 1.3-.2h.1l-.2-.2-7-.5-.2-.1.1-.4h.2m3.2-1 3.3-.8 5.7-.6Q30-.2 30 2h0l-.3 2.8-.5 1.8-.1.3-1.3 3-.8 1-.5-3.6-1.2 2.3q-1 2.4-1.3 5.9-.4 3.8.2 8.9l.1.8.3 1.4q.4 3.3-.4 3.5.4.8-2 2.6l-.7.3-.4.1-3.6 1-1 .3h-.1l-3.1.3H12l-.4-.1-1.2-.1h-.6m-.2-.1H9l-1-.2-1.1-.4h0l-.8-.3-.4-.2-2.8-.9-2.2-.9L0 31m0-.1-.1-.1.1-.4m.2-.2q.6-.6 2.2-1.3l1.2-.6.3-.1v-4.8l.1-1-.3-.3-.1-.2-.4-.4-.7-.8-.5-.8v-.3m.5-.3.2-.1m.4 0h1.4v-.3l.2-.4.4-1.1.3-.7L7 13.6 6 12l-.8-1.3-.1-.2q-.4-.8-.2-1l.3-.2h.6l1.2.2h.6l.7.2.5.1.8.3.6-.6.3-.3 1.3-1V8l-.2-.5-.6-1.9-.5-2.1m0-.3.2-.5.7-.1m5.9 4.1-1.1-1.2m6.3-1.3-2.4 1-1.3.8-1.4.8-.1-.1m7.4-2.2-.2-.2-.9-.6h-.1l-.1.1-.9.4m1.1-.5-.2-.2m3 3 .1.7m-.8-2 .7.5v.8m-.7-1.3-1-.7m-12.2 5 .6 1.1h0l-.6.7-.3.3m.3-2.1-.2-.4-.3-.6m-1.8 2 .8.3m-.8-.4H10l-.3-.2M12 8.5l-.1-.2m-3.2 7.4.5.5v.2H9l-.4.9-.4 1-.1.2-.4 1.1.3.1.4.1.5.2m-1.5-6-.3-.4m.3.4.3.3.4.5h0m.2.2.1.2h.1m-3 3.9 1.2.1h.1l1 .2M4.7 19l.8.1m-.8 4-.7-.7m2.2 4.3v-.4l.3-1.6-.2-.2-.8-.7m0 3.8.6-.2v-.7m1-1.6-.6-.4m-1.2-1.1-.2-.2m-.5 4.4.9-.2m-1.2.4-.4.1m2.8-.8-.6.1m-1.8.6.3-.2m3.5 6.3q-.1-.5-1.1-.7h0l-.8-.1h0v.1m-.4-.2h.4" vector-effect="non-scaling-stroke"/></g></defs><g clip-path="url(#a)"><use xlink:href="#b" width="34" height="39" transform="translate(1 1)"/></g></svg>