<svg xmlns="http://www.w3.org/2000/svg" xmlns:xlink="http://www.w3.org/1999/xlink" width="108" height="98" viewBox="0 0 108 98"><defs><clipPath id="a"><path d="M1 1h106v96H1z"/></clipPath><g id="b"><path fill="#b1ab81" d="M106 6v3l-4.1 2.2-4.5-2.5-6.2-3.4-31.4 26.3h-.1l-1.6-.9-.1-.1v3.1l-4.1 2.1-4.5-2.5-1.9-1-.3 4.4v2.9l.2 5.4.1 1.5-3.5-2v-2.3l.3-1.8V40l.2-.7.5-4 .1-1.9-.4-.9h-.1l-.6-1.9.1-.2-.1-.1-.8-.4-31.5 26.3-1.6-.9-2.3-1.2-.2 4.2v.3q-.3 4.8.2 9.6l-3.6-2 .3-3.5q.7-2.3.8-4.7v-1.8l-.2-.4-.1-.2-.2-.3-.5-2-.1-1.2-2.6-1.4Q.4 49.6.1 47.8L0 46.7l11.7 6.4 2-1.7 1.1-.9 28.4-23.7 10.7 5.9 4.1-2.1L48 25v-3l11.7 6.5 3.2-2.7L91.3 2.1l10.6 6zM24 47.2l-.1-.9 3.5-3-.1 3.6-.2 1.9q-.4 4.7.2 9.3l-3.4 2.8v-2l.2-1 .1-2.6q1-2.7.7-5.6V49l-.1-.3zm10.4-8.7-.2-.9 3.6-3-.3 3.6-.1 5.4.3 5.8-3.3 2.7-.1-.8-.1-2.9q1.4-3.7.9-7.3l-.1-.3-.2-1.1zM14.8 54.7l-.2-.6 3.6-3v3.1L18 65.9l-3.3 2.8-.2-.2v-2q.1-1.4.6-2.7.6-2 .7-3.9 0-2.6-1.1-5.2M4.2 52.1l3.6 2zM44 30.4l3.4 1.9z"/><path fill="#847c51" d="m97.4 8.7-.2.6v3l.3 1.1.8 2 .2 1.1v3.8L92 16.7l.4-1.6q1-3 .5-6.3l-.2-1L92 6l-3.1 2.6v4.3l-1.4 3.2v2.4l-3.8 2-.6.3.5-1.7v-3l-.2-.6-.8-1.7-4.1 3.4h-.1v5l-.3.8-.4.6-2.5 1.2-.1-.2-.1.3-1.8 1V25l-.4-1-.1-.2-.2-.3-.3-.6-.1-.3-2.8 2.3h-.1v3l-6 3.1-.2-.5-.2-.5-3 1.6L91.3 5.3z"/><path fill="#dad8b8" d="M98.6 19.8 106 24l-4.1 2.1v-3.7l-3.5-2zM0 64.8l4.2-2.1.3.1-.3 3.5 3.6 2q-.5-4.8-.2-9.6v-.2l.1.1 2.2-2.3q-.4 3.1 0 6.3l.5 2 .4 1.8v.4l-3 1.5 3-1.5.2-.4 3.6 2 .2.3-3.1 2.5zm0-18 4.2-2.1 4.6 2.5q-.5.7 1.2.7l4.8 2.7-1.1 1-2 1.6zM57.4 49l-3.5 1.8-10.7-5.9-2.6 2.2-1-2.6 3.1-1.5 1.3.6v1l3.5 2-.1-1.5-.2-5.4v-2.4l2.1-2.2v2l.2 1.1.1.1v.1l.1.3q.5 1.1.6 2.4l-.1.1v.5l.2.9V45zm-30.1-2 3-3.2v1q-.1 1.8-1.2 6.3l.3 2.1.3 1.2.3 1.5-2.7 2.2q-.6-4.6-.2-9.3zm10.3-8.7 3.3-3.2-.1 3-.2.5-.4 1.2-.4 1.8-.1 3 .9 2.5-2.8 2.4-.3-5.8zm-19.4 16 3-3.2q0 2.1-1.4 6.5v1.3l.9 4.8-2.6 2.2z"/><path fill="#777053" d="M106 24v45.3L53.9 95.8V50.7l3.5-1.8v-3.8l7-3.6h.3v-.1l4.4-2.3 22.4-11.5 3.3-1.7 7.1-3.6V26zM51.9 94.8 11.7 74.3l-4.4-2.5q3.8.5 7.6 1.7h.3L19 72q5.1 4.3 10.7 9.3l7.8-.9q4.2 5.2 11 7l.6-4.2q2 2.8 3.3 7.2 0 2.6-.6 4.3M84 54.2h.5q2.3.3 5.5-.6l4.6-1q1.4-.3.3-.8l-.8-.7q-.5-.6-.7-1.3-.4-1.5-3.4-.6t-6 1.1-2.4 2q.4 1.5 2.4 1.9m-1.7 8.7q-4.2-1.5-5-.8l-1.7 1.3-.6.6 1.7.8h.1q1.8.6 4.3.6 2.4.1 2.2-1.4v-.8zm7.6-1.3q.4 1 .9.6t2-.6l2.3-.4q1-.3 1-.8t-1-.8h-.3l-2.1-.3-2.4.3q-1 .4-.5 1.7zm-53.1-2 3.3 2.2-1.6.4h-1.1l-2.1-.6zm1.5 9.1.7-.2q1.6-.3 2.6-1.1l-.5 2.6-1.1.8q-.6.3-1.3.3zm13.9-10.8-1 6.4-2-.6.4-6.2h.2z"/><path fill="#938a66" d="m53.9 95.8-2-1q.6-1.8.6-4.4-1.3-4.4-3.3-7.2l-.6 4.2q-6.8-1.8-11-7l-7.8 1q-5.6-5.1-10.7-9.4l-4 1.5H15q-3.8-1.2-7.6-1.7l-7.3-4v-3.1l11.7 6.4 3-2.5 3.4-2.7 2.6-2.3 1.2-1h.1l1.9-1.7 3.4-2.8 2.7-2.2 4.5-3.8 3.3-2.7 2.8-2.4 2.6-2.2L54 50.7zM94.2 51l.8.8q1 .5-.3.8l-4.6 1q-3.2.9-5.5.6H84q-2-.4-2.4-2-.5-1.8 2.5-1.9 2.9-.2 5.9-1 3-1 3.4.5.3.8.7 1.3M76.8 64.8l-1.7-.7.6-.7 1.7-1.3q.8-.7 5 .8l1 .3v.8q.2 1.5-2.2 1.4-2.5 0-4.3-.6zm18.1-5.2h.3q1 .4 1 .8t-1 .8l-2.3.4q-1.4.1-2 .6-.5.3-.9-.6l-.1-.3q-.5-1.3.5-1.7l2.4-.3zm-58 0-1.5 2 2 .6h1.2l1.6-.4zm1.5 9.1.4 2.4q.7 0 1.3-.3l1-.8.6-2.6q-1 .8-2.6 1.1zm13.9-10.8-2.4-.4h-.2l-.4 6.2 2 .5z"/><path fill="#d1cfa7" d="m43.2 26.8 2.7-1.4 1.5-.7.7.3 9.9 5.6-4.1 2.1zm4.9-4.8 4-2 8.9 4.8 1.9 1-3.2 2.7zM91.3 2.1l.6-.3L95.4 0l4.3 2.4v.4l-.1.5q.8.5 2.1.2l.3.3 4 2.1-4.1 2.1zm-7.5 18.4 3.8-2 4-2 .5.2 6.5 3.6 3.4 2-7.2 3.6zm-19.2 21-7 3.6-7.3-4 .1-.1q-.1-1.3-.6-2.5l-.1-.3-.1-.1 4.1-2.1 11 5.3zm-44.7 16 2.3-1 2 1.3L24 59l-.1 2-1.9 1.6h-.1l-1.2 1.1-.8-4.8zm-4 2.2q0 2-.6 4-.5 1.2-.5 2.6l-.1 2-3.6-2-.2-.2-.4-1.7-.4-2zm14-3.9-.2-1.5-.3-1.2-.3-2.1 2.6-1.4 2.7 1.6v.8z"/><path fill="#8a6b4f" d="M75 24.8v-.3l.2.2zm-64.2 42v-.5l.2.1zm47.3-36-.1.1zm-7.6 11.8-.1-.9v.9m-9.7-4 .2-.5v.2l-.1.2z"/><path fill="#b80101" d="m73.2 25.9 1.8-1h.2l2.5-1.3 2.5-1.3 2.9-1.5.6-.3 11 5.4-3.2 1.7-22.4 11.5-4.4 2.3h-.1l-11-5.4.3-.2 4.1-2 .2-.2 5-2.6 6-3v-.1zm18.3 1.7-11.2-5.3zM22.1 56.4l2.1-1.1-.1 2.5zM44 43.6l-1.3-.6 1.3-.7zm-12.3 6.2 2.6-1.3.1 2.9zM69 39.1l-11-5.5z"/><path fill="#eaecee" d="m64.7 41.4-.2.1v-.2z"/><path fill="#968e5c" d="m57.5 45.1-.1 3.8-7-3.9v-3.2l-.1-.2-.1-.5zM24 47.2l-2.9 2.4V51l-3 3.1v-3L14.6 54l.2.6-3.1 1.6L43.2 30l.8.4v.3l-3.1 2.6V35l-3.3 3.2.3-3.6-3.6 3 .2 1-4 3.3-.1 1.9-3.1 3.1.1-3.6-3.5 3zM10 56l-.1.1-2.2 2.3-.1-.2.2-4.2 2.3 1.2zm37.2-18.9v-.5l.3-4.4 1.9 1-.1 1v.7z"/><path fill="#ba7748" d="m49.6 38.2.1.3z"/><path fill="#d0d6d9" d="M44 30.6v-.3l.1.1zm14 0"/><path fill="#f2f0ec" d="M7.7 58.5v-.2z"/><path fill="none" stroke="#6b5b49" stroke-linecap="round" stroke-linejoin="round" stroke-width="__RESOLUTION__" d="M106 6.4V9l-4.1 2.2-4.5-2.5-.2.6v3l.3 1.1.8 2 .2 1.1v3.3L106 24v45.4L53.9 95.8h0l-2-1-40.2-20.5m0 0-4.4-2.5-7.3-4v-3.1l4.2-2.1.3.1q.7-2.3.8-4.7v-1.8l-.2-.4m-.1-.2-.2-.3-.5-2-.1-1.2-2.6-1.4Q.4 49.6.1 47.8m45.8-22.3 1.5-.8.7.3v-3h0M61 24.8l1.9 1L91.3 2.1l.6-.3m7.8 1-.1.5q.8.5 2.1.2l.3.3m-32.8 21v.1zl2.9-2.3.1.3.3.6.3.5.4 1v.9l1.8-1h.2l2.5-1.3.4-.6.3-.8v-5h0m.1 0 4-3.4.9 1.7.2.6v3l-.5 1.7.6-.3 3.8-2V16l1.4-3.2V8.6L92 6l.7 1.8.2 1q.5 3.3-.5 6.3l-.4 1.6-.5-.2-4 2m11 1.8v-.5M69.3 25v3h0l4-2m4.5-2.3 2.5-1.3 2.9-1.5M59.8 31.6 91.3 5.3l6.1 3.4M53.6 36l-4.1 2.1.1.1.1.3q.5 1.2.6 2.5l-.1.1v.5l.2.9V45m-29.1 6v-.3l-.1-1 2.9-2.5.7 1.5v.3l.1.7q.4 2.9-.7 5.6l-2.1 1.1-2.3 1.1q1.5-4.4 1.5-6.5m9-7.2.2-1.9 4-3.4.4 1.2.2 1.1m5.8-5.7v-1.9l3-2.6v-.3l-.7-.4-31.5 26.3 3-1.6q1.2 2.6 1.2 5.2-.1 2-.7 4-.5 1.2-.5 2.6l-.1 2 .2.1m-1.1-17-2 1.6M23.9 61v-2l.2-1 .1-2.6m-4.4 2.3v1.2l.9 4.8M9.9 56.2q-.4 3.1 0 6.3l6-2.7m-4.2-3.6-1.6-.9-.1.8m-2.2 12 3-1.5v-.5l-.4-1.7-.4-2m0-7.2L7.8 54l-3.6-2M11 66.3h-.2m-3 2-3.6-2 .3-3.6m10.1 5.6-3.6-2m52.3-35.2-.3-.6-.2-.5-3 1.6h-.1l-1.6-.9-.1.1v2.9h.2zl6-3M58 30.6 48 25m10 8.7-4.1 2.1-.3.2m4.4-5.2v-.2zM44.5 40v-.7l.6-4 .1-1.9-.4-.9m-.1 0-.6-1.9m.1-.2-.1-.1m0 14.1v-2.2l-1.3.7-3 1.5.9 2.6m8.7-12.4v-.1m0-.2v-1l-1.8-1-3.4-1.9m5.4 7.7-.2-1.2V35m0-1.7 4.6 2.5m-3.5 6.7v-.3m-9.8-3.7.2-.5v-3m-1.1 9.4v-2.9l.5-1.8.4-1.2h.1M29.1 51q1.1-4.5 1.2-6.3v-1M30 55.9l-.3-1.5-.3-1.2-.3-2.1 2.6-1.4 2.6-1.3q1.4-3.7.9-7.3m-.8 10.2v.8m0-.8-.1-2.9m9.7-6.2.3-1.8m15.4-11.9 3.2-2.7" vector-effect="non-scaling-stroke"/><path fill="none" stroke="#5e5842" stroke-linecap="round" stroke-linejoin="round" stroke-width="__RESOLUTION__" d="m94.2 51 .8.8q1 .5-.3.8l-4.6 1q-3.2.9-5.5.6H84m-1.7 8.7 1 .3v.8q.2 1.5-2.2 1.4-2.5 0-4.3-.6h-.1m18.1-5.2h.3q1 .4 1 .8t-1 .8l-2.3.4q-1.4.1-2 .6-.5.3-.9-.6" vector-effect="non-scaling-stroke"/><path fill="none" stroke="#fbe773" stroke-linecap="round" stroke-linejoin="round" stroke-width="__RESOLUTION__" d="m80.3 22.3 11.2 5.3m-33.3 6L69 39.1" vector-effect="non-scaling-stroke"/><path fill="none" stroke="#fff" stroke-linecap="round" stroke-linejoin="round" stroke-width="__RESOLUTION__" d="M58 33.6h.2" vector-effect="non-scaling-stroke"/></g></defs><g clip-path="url(#a)"><use xlink:href="#b" width="106" height="95.8" transform="translate(1 1)"/></g></svg>