<svg xmlns="http://www.w3.org/2000/svg" xmlns:xlink="http://www.w3.org/1999/xlink" width="168" height="172" viewBox="0 0 168 172"><defs><clipPath id="a"><path d="M1 1h166v170H1z"/></clipPath><g id="b"><path fill="#4d3926" d="M133.6 151.6v-28.7l8 6.9.2 21.8z"/><path fill="#553d2b" d="m141.8 151.6.2 14-3.4 4-.2-18z"/><path fill="#935922" d="m138.6 169.6-5.1-1 .1-17h4.8z"/><path fill="none" stroke="#000" stroke-linecap="round" stroke-linejoin="round" stroke-width="__RESOLUTION__" d="M133.6 151.6v-28.7l8 6.9.2 21.8.2 14-3.4 4-5.1-1z" vector-effect="non-scaling-stroke"/><path fill="#4d3926" d="m155.3 125.6.1-20.4 2.5-2.9h5.4l.3 23.3z"/><path fill="#935922" d="M155.3 125.6h4.8l.2 17.2-5.2-1z"/><path fill="#553d2b" d="M160.1 125.6h3.5l.1 13.2-3.4 4z"/><path fill="none" stroke="#000" stroke-linecap="round" stroke-linejoin="round" stroke-width="__RESOLUTION__" d="m163.6 125.6-.3-23.3h-5.4l-2.5 2.9-.1 20.4-.2 16.2 5.2 1 3.4-4z" vector-effect="non-scaling-stroke"/><path fill="#877c02" d="m120.8 76.3 3.4 2.2q20 12.7 41.7 23.9l-3.4 3.6-.7-.7Q140.6 93.7 122 82h-.1l-3.4-2.4zm33.4 51.5V126zM27.5 2.8 30.8 0zm75.9 66.9-1.7-1-1.6-1.3zm4.9 4 .2.2-1.7 2.6zm21.3 42.3.5-.7-.6 1-.3.3z"/><path fill="#7c6207" d="m162.5 106-.1.7-20 16q-1.6-5-3.4-8.4l3.6-.5.5-4.4 1.3 4 5.8-.8-2.5-9-11 1.8v5.4q-1.7-2.3-3.7-3l-2.9 7.6-.6 1-1 1.2 1.1-1.5.5-.7 11.3 8.3-4.1 3.2 2.2 3.9-4.5-2q-18.7-8.5-36.3-18.9l.3-2.7h-4.8Q54.1 82.6 19.1 47l2.5-2.6.9-.9 12-1.4q10.7 3.5 17.3 6.2l-6.3-7.5 17.4-1.9 8.5 7v.2l3.2-4 2.6 2.1 2.6 2.2q15 12.3 31.4 23.5l9.6 6.4-2.2 3.3-9.6-6.4-5.6-3.5-3.3-2.3-.6-.5.2.3 2 2.7 6.6 3.9-1.5 2.7 1.7-2.6 13.5 8 .1.1q18.5 11.7 39.7 23.3zm-58 .3q-28-13.3 24 5.6.5-.5.4-.7-1.4-3.3-3.4-6.3l-3 1Q85.1 84.3 64.1 69.1 43 53.9 39 51.2 35.4 52.3 52.5 67q31.5 26.9 33 28.9 8.3 6.2 18.4 10.2zm26.2-5.4-1.1-.7Q98 77.9 97.5 77.9q-1.5 1.6-7.4-.8l39.4 23.8zm-24-24.4q5 5.9 10.6 11.4l2.5-2.6z"/><path fill="#5b4b17" d="M162.4 106.7q-4.1 22.5-8.2 21.3v-1.9.9l-5.5 20.6q-.6-4.3-9-17.1l-2.4-3.6 4-3.2 1 .7.8.6-.6-2.3zM19 46.9l-3.6-3.7Q7.6 35 0 26.4L27.5 2.8 30.8 0q18.4 20.3 39.3 38.3l4.5 3.8-3.1 4-.1-.1-8.5-7.1-17.4 1.9 6.3 7.5q-6.6-2.7-17.3-6.2l-12 1.4-.9.9zm111.7 54h-1.2L90.1 77.1q5.9 2.4 7.4.8.5 0 32 22.3z"/><path fill="#c88f0d" d="m19 47 2.6-2.5zm110.5 69-.4.7.3-.3-1 1.2z"/><path fill="#716002" d="M118.6 79.6 122 82l-13.5-8.1-.2-.1-6.6-3.9-2-2.7-.2-.3.6.5 1.6 1.3 1.7 1 5.6 3.5zm18.1 31.2v3.9l2.3-.4q1.8 3.4 3.5 8.4l.7 2.3-.8-.6-1-.7-11.3-8.3 2.9-7.6q2 .7 3.7 3m-30-34.3 13 8.8-2.4 2.6q-5.6-5.5-10.5-11.4"/><path fill="#6a5a02" d="m104.5 106.3-.6-.2q-10.1-4-18.4-10.2-1.5-2-33-29Q35.4 52.4 39 51.3q4 2.7 25 17.9 21.1 15.2 58.5 36.8l3-1q2 3 3.4 6.3.1.2-.4.7-52-19-24-5.6"/><path fill="none" stroke="#000" stroke-linecap="round" stroke-linejoin="round" stroke-opacity=".8" stroke-width="__RESOLUTION__" d="m120.8 76.3 3.4 2.2q20 12.7 41.7 23.9l-3.4 3.6m-.1.7q-4.1 22.5-8.2 21.3v-.2m0-.8-5.5 20.6q-.6-4.3-9-17.1l-2.4-3.6 2.2 3.9-4.5-2q-18.7-8.5-36.3-18.9l.3-2.7h-4.8Q54.1 82.6 19.1 47h0m-.1-.1-3.6-3.7Q7.6 35 0 26.4M30.8 0q18.4 20.3 39.3 38.3l4.5 3.8 2.6 2.1 2.6 2.2q15 12.3 31.4 23.5h0l9.6 6.4" vector-effect="non-scaling-stroke"/><path fill="none" stroke="#f90" stroke-linecap="round" stroke-linejoin="round" stroke-width="__RESOLUTION__" d="M108.9 108.1Q55 76.3 22.5 43.5L22 43m110 78.2-4-2.1-.4-.3-9.1-5.1m-8-4.6-.4-.3" vector-effect="non-scaling-stroke"/><path fill="none" stroke="#8f4f01" stroke-linecap="round" stroke-linejoin="round" stroke-width="__RESOLUTION__" d="M22 43Q12 33 4 22.9" vector-effect="non-scaling-stroke"/><path fill="none" stroke="#f90" stroke-linecap="round" stroke-linejoin="round" stroke-width="__RESOLUTION__" d="m148.5 97.9-8.8-5.2m-2.9-1.7q-7.6-4.5-14.7-9h-.1l-4.8-3.1-8.3-5.5h-.1l-5.4-3.7-3.3-2.3-.4-.2-16.4-11.9-6.6-5.1-5.2-4.1h0l-.1-.1-.9-.7" vector-effect="non-scaling-stroke"/><path fill="none" stroke="#8f4f01" stroke-linecap="round" stroke-linejoin="round" stroke-width="__RESOLUTION__" d="m70.5 45.3-7.6-6.4q-21-18-35.4-36" vector-effect="non-scaling-stroke"/><path fill="none" stroke="#fff" stroke-linecap="round" stroke-linejoin="round" stroke-width="1" d="m113.1 98.5-.5-2m1.5 5.8-.5-2m3 2.9-2 .7m-2.2-8.3 1.9-.7m1.9-.8 1.9-.7m8.5-1.4 1.2 1.6m-4.2-2.5 1.8-.7m-5.5 2.2 1.9-.7m1 7.4-1.2-1.6m4.4 1.8-1.9.7m-2.8-1.6.1 2m-1.1 1.2-1.9.7m11.4-4.4-1.9.7m1-3.5 1.2 1.6"/></g></defs><g clip-path="url(#a)"><use xlink:href="#b" width="165.8" height="169.6" transform="translate(1 1)"/></g></svg>