<svg xmlns="http://www.w3.org/2000/svg" xmlns:xlink="http://www.w3.org/1999/xlink" width="33" height="63" viewBox="0 0 33 63"><defs><g id="g"><path fill="#9d8255" d="M1.7 19.8v-16l.3-.3.9 11.9z"/><path fill="#4d4520" d="m2 3.5-.4.3v30.9L0 34V3l.3-.2L5.6 0l1.7.9zM0 34l1.7.9V49L0 48zm1.7 4.5L0 37.7z"/><path fill="#786d32" d="m1.7 19.8 1.2-4.4-1-11.9L7.4 1v17.9l-.3 3-3.3 8.4L5.1 33l-3.4 1.8zm0 18.6 5.6-2.7-5.6 11.5zm0-3.6"/><path fill="#6c662d" d="m5 33-1.3-2.8L7 21.8l-.6 6.5.5 3.8zm2.2 2.6v10.6l-5.6 2.6v-1.6z"/><path fill="#897138" d="m6.9 32.1.3 2.4v1.2h-1l-1-2.7z"/><path fill="#97833e" d="m5 33 1.3 2.7h1l-5.6 2.7v-3.6z"/><path fill="none" stroke="#26210f" stroke-linecap="round" stroke-linejoin="round" stroke-width="__RESOLUTION__" d="M7.3.9 5.6 0 .3 2.7l-.3.2v31l1.7.9h0l3.4-1.7 1.8-1-.5-3.8.5-6.5.3-3M7 32.1l.3 2.4v.1m0 10.6v1.1l-5.5 2.6L0 48V34m1.7 4.5 5.6-2.7m-7.3 2 1.7.7" vector-effect="non-scaling-stroke"/><path fill="none" stroke="#aa9448" stroke-linecap="round" stroke-linejoin="round" stroke-width="__RESOLUTION__" d="M1.7 34.7v-1.5m0-2.2v-.7m0-5.4v-2m0-2.3v-.8m0 17.3v.6m0 2v2.4m0 4.7v.5" vector-effect="non-scaling-stroke"/></g><g id="f"><path fill="#5d4818" d="M3.6 1.2 5.4.6 5 2.2q1.5 1 2.8.2l.4 2.9v.4l-1 5.2-1.9 1h-.2l-1.9-.7-1-1.3 1.3-4.8 2.7.5 2-.3-2 .3-2.7-.5L2.7 4z"/><path fill="#665327" d="M7.4 10.9 7 12.2l-1.7-.3zm-.8 3.7-.3 2q-.5.8-2.5 1.1Q.9 17 .5 16.4l1-3.9L3 14.4l1.2.7zM3.5 5h-.6l-.2-1zm1.6 6.8h.2z"/><path fill="#6a5d32" d="m7.1 12.2-.5 2.4-2.5.4-1.1-.7-1.5-1.9.7-2.5 1.1 1.3 1.9.7h.2z"/><path fill="none" stroke="#31260c" stroke-linecap="round" stroke-linejoin="round" stroke-width="1" d="M7.9 2.4 7.5.5m.3 1.9.5 2.9v.4l-1 5.2-.2 1.3-.5 2.4-.3 2q-.5.8-2.5 1.1Q.9 17 .5 16.4l1-3.9.7-2.5 1.4-4.8-.7-.1-.2-1 .8-2.8m4.9 4.1-2.2.3-2.6-.5L2.7 4m4.7 6.9-2 1 1.7.3m-1.7-.3h-.2zm1.2 2.7-2.5.4-1.1-.7-1.5-1.9m3.7-.5-1.9-.7-1-1.3"/></g><g id="e"><path fill="#34210e" d="m3.2 9.8 20-9.2q1.3-.3 3.9.7 2.4 1-5 4.6l-17.3 8zm-.5 5.1-1.4.7.1-2.2v.1q.6 1.2 1.3 1.4"/><path fill="#513a06" d="M3.2 9.8h.1l1.4 4.1-.2.1q-1 1.1-1.8.9-.7-.2-1.3-1.4-.5-1.2-.9-3l.3-.2z"/><path fill="none" stroke="#140c05" stroke-linecap="round" stroke-linejoin="round" stroke-width="1" d="M4.7 14 22 5.9q7.5-3.6 5-4.6T23.3.6l-20 9.2"/><path fill="none" stroke="#100904" stroke-linecap="round" stroke-linejoin="round" stroke-width="1" d="M3.2 9.8h.1m-2.4.5 2.3-.5"/><path fill="none" stroke="#140c05" stroke-linecap="round" stroke-linejoin="round" stroke-width="1" d="M4.7 14h-.2q-1 1.1-1.8.9-.7-.2-1.3-1.4h0q-.5-1.2-.9-3l.3-.2"/><path fill="none" stroke="#31260c" stroke-linecap="round" stroke-linejoin="round" stroke-width="1" d="m23.2.6-.4-.1"/></g><g id="d"><path fill="#73591e" d="M3.6 1.2 5.4.6 5 2.2q1.5 1 2.8.2l.4 2.9v.4l-1 5.2-1.9 1h-.2l-1.9-.7-1-1.3 1.3-4.8 2.7.5 2-.3-2 .3-2.7-.5L2.7 4z"/><path fill="#7e6630" d="M7.4 10.9 7 12.2l-1.7-.3zm-.8 3.7-.3 2q-.5.8-2.5 1.1Q.9 17 .5 16.4l1-3.9L3 14.4l1.2.7zM3.5 5h-.6l-.2-1zm1.6 6.8h.2z"/><path fill="#83723d" d="m7.1 12.2-.5 2.4-2.5.4-1.1-.7-1.5-1.9.7-2.5 1.1 1.3 1.9.7h.2z"/><path fill="none" stroke="#3d2f0f" stroke-linecap="round" stroke-linejoin="round" stroke-width="1" d="M7.9 2.4 7.5.5m.3 1.9.5 2.9v.4l-1 5.2-.2 1.3-.5 2.4-.3 2q-.5.8-2.5 1.1Q.9 17 .5 16.4l1-3.9.7-2.5 1.4-4.8-.7-.1-.2-1 .8-2.8m4.9 4.1-2.2.3-2.6-.5L2.7 4m4.7 6.9-2 1 1.7.3m-1.7-.3h-.2zm1.2 2.7-2.5.4-1.1-.7-1.5-1.9m3.7-.5-1.9-.7-1-1.3"/></g><g id="c"><path fill="#402811" d="m3.2 9.8 20-9.2q1.3-.3 3.9.7 2.4 1-5 4.6l-17.3 8zm-.5 5.1-1.4.7.1-2.2v.1q.6 1.2 1.3 1.4"/><path fill="#644808" d="M3.2 9.8h.1l1.4 4.1-.2.1q-1 1.1-1.8.9-.7-.2-1.3-1.4-.5-1.2-.9-3l.3-.2z"/><path fill="none" stroke="#180f07" stroke-linecap="round" stroke-linejoin="round" stroke-width="1" d="M4.7 14 22 5.9q7.5-3.6 5-4.6T23.3.6l-20 9.2"/><path fill="none" stroke="#130c06" stroke-linecap="round" stroke-linejoin="round" stroke-width="1" d="M3.2 9.8h.1m-2.4.5 2.3-.5"/><path fill="none" stroke="#180f07" stroke-linecap="round" stroke-linejoin="round" stroke-width="1" d="M4.7 14h-.2q-1 1.1-1.8.9-.7-.2-1.3-1.4h0q-.5-1.2-.9-3l.3-.2"/><path fill="none" stroke="#3d2f0f" stroke-linecap="round" stroke-linejoin="round" stroke-width="1" d="m23.2.6-.4-.1"/></g><g id="b"><path fill="#6c662d" d="M18.8 5.4V3.6l1-.4L24.4.9v17.5l-5.5 11.8zm0 35.7v-3.2l2-1 3.5 2.8v5L19 47.3l-.1-.1V41"/><path fill="#40391a" d="m19.9 3.2-1.1.4v30.6l-8-4.1 6.3-25.5V2.8L22.7 0l1.7.9zM9.8 39.5v-5.2l.2-.9 8.8 4.5v7.2l-9-4.3z"/><path fill="#786d32" d="m18.8 30.2 5.5-11.8v12l-.2 1.1-5.2 2.8-.1-.1zm2 6.6 2.8-1.3-.2 1 .9 1.3v1.9z"/><path fill="#372c1e" d="m16.3 5 .8-.4-6.3 25.5-1-.6v-3.7l.1-.5zM9.8 34.3v-1l.2.1z"/><path fill="#66542b" d="m10.8 30.1 8 4.1V38L10 33.4z"/><path fill="#130f0b" d="m10 25.3-3 1.6-1 .5-2.6 1.3-3.1 1.6.5-17.5L16.4 5zM7 41.1l2.9-1.6v1.2l-.1.1-8.8 5-.2-1.2L3.4 43l2.7-1.5z"/><path fill="#2d1f15" d="m7 26.9 3-1.6-.2.4v13.8l-2.9 1.6z"/><path fill="#533f31" d="m.3 30.3 3.1-1.6V43L.7 44.6l-.7-5z"/><path fill="#5f4838" d="m3.4 28.7 2.7-1.3v14.2L3.4 43z"/><path fill="#634b3a" d="m6 27.4 1-.5v14.2l-1 .5z"/><path fill="#4d3f20" d="M9.8 33.3v-3.7l1 .5-.8 3.3z"/><path fill="#897138" d="M18.8 37.9v-2.7l2 1.6z"/><path fill="#97833e" d="M18.8 35.3v-1.1l5.3-2.7-.6 4-2.7 1.4z"/><path fill="#4f412b" d="m9.7 40.8.1-.1z"/><path fill="#55432f" d="m9.7 40.8 9 4.4h-.1L8.2 45 .9 48.3v-2.5z"/><path fill="#666" d="M18.8 45.2v2l-.4-.2.3-1.9z"/><path fill="#ab9258" d="m18.7 45.2-1.6.8-.2.1-16 8.1v-5.9L8.1 45z"/><path fill="#8c784d" d="M.8 54.2 17 46.1l.1-.1 1.6-.9-.3 1.9v.5l-17.5 9z"/><path fill="none" stroke="#aa9448" stroke-linecap="round" stroke-linejoin="round" stroke-width="__RESOLUTION__" d="M18.8 5.4v2m0 13.5v7.8M24.3.9l-4.4 2.3m-1.1 33.4v-2m0 6.5v-2.9m0 7v-1.5" vector-effect="non-scaling-stroke"/><path fill="none" stroke="#26210f" stroke-linecap="round" stroke-linejoin="round" stroke-width="__RESOLUTION__" d="M24.3 18.4V.9L22.6 0l-5.5 2.8v1.8M10.8 30l8 4.1h0l5.3-2.7.2-1.1v-12M9.8 29.6l1 .5m-.8 3.3 8.8 4.5 2-1 2.8-1.4.5-4M10 33.4l-.2-.1m14.5 6.4v-1.9l-.9-1.2.2-1.1M18.8 47l.1.2 5.4-2.5v-5.1M.8 56.5l17.6-9V47" vector-effect="non-scaling-stroke"/><path fill="none" stroke="#130f0b" stroke-linecap="round" stroke-linejoin="round" stroke-width="__RESOLUTION__" d="m7 26.9 3-1.6-.2.4v13.8l-2.9 1.6-.8.5V27.4l-2.7 1.3V43l2.7-1.5m0-14.2.8-.5" vector-effect="non-scaling-stroke"/><path fill="none" stroke="#372c1e" stroke-linecap="round" stroke-linejoin="round" stroke-width="__RESOLUTION__" d="m9.7 40.8 9 4.4h-.1" vector-effect="non-scaling-stroke"/></g><clipPath id="a"><path d="M1 1h31v61H1z"/></clipPath></defs><g clip-path="url(#a)"><g transform="translate(1.65 45.1)"><use xlink:href="#b" width="24.3" height="56.5" transform="translate(5.75 -44.1)"/><use xlink:href="#c" width="28.1" height="15.6" transform="matrix(-.0606 .3624 -.341 -.1198 22.8 -26.6)"/><use xlink:href="#d" width="8.8" height="18.3" transform="matrix(.2498 -.1487 .1582 .2921 16.75 -25.65)"/><use xlink:href="#e" width="28.1" height="15.6" transform="matrix(-.2515 .3088 -.2568 -.2959 11.95 -18.8)"/><use xlink:href="#f" width="8.8" height="18.3" transform="matrix(.315 -.006 -.0077 .36 5.7 -21.2)"/><use xlink:href="#g" width="7.3" height="48.9" transform="translate(-.65 -32.9)"/></g></g></svg>