<svg xmlns="http://www.w3.org/2000/svg" xmlns:xlink="http://www.w3.org/1999/xlink" width="30" height="60" viewBox="0 0 30 60"><defs><clipPath id="a"><path d="M1 1h28v58H1z"/></clipPath><g id="b"><path fill="#3d3812" d="M9.4 1.4Q16.4 4 26.6 12l.3 4.1v6.6l-4.3-5-1-1-5.5-2-.4-.2h-.3L14.6 34l-1-.5-5-2.5Q7.4 18.2 8.4 6l7.6 4.4v4.3-4.3L8.4 6.1zm-1 29.5 5.3 2.6-.4 9.6-1.1-.6-2-1L9 41zM16 10.5l6.5 3.4v3.9-3.9zm10.8 5.7-4.3-2.3z"/><path fill="#917a48" d="m26.9 22.8.1 17.7.3 10-.2-.1-2-1-1.3-.7-2-1.1-3-1.6-1.7-.9-1-.5-1.9-1-.9-.5.3-9.6 1 .5.7-19.4h.3l.4.2v20l-1.4-.7 1.4.7v-20l5.6 2 .9 1v20.4L16 34.8l6.5 3.4 4.5 2.3-4.5-2.3V17.8z"/><path fill="#8b7236" d="M8.4 6.1q-1 12.1 0 24.8l.8 10H9l-2.9 1.5-2.1 1-2.5 1.1-.8-.6q-1-15.3-.7-29.7v-1.1L.7.5q1.6-1.1 8.7.9z"/><path fill="none" stroke="#1f1710" stroke-linecap="round" stroke-linejoin="round" stroke-width="__RESOLUTION__" d="M9.4 1.4Q16.4 4 26.6 12l.3 4.1v6.6l.2 17.7.3 10M8.4 6q-1 12.1 0 24.8l.8 10H9m4.6-7.4.9.5M9.4 1.4 8.4 6" vector-effect="non-scaling-stroke"/><path fill="none" stroke="#63481d" stroke-linecap="round" stroke-linejoin="round" stroke-width="__RESOLUTION__" d="m27.3 50.5-1 7.3M.6.5q1.6-1.1 8.7.9M4 43.4l-2.5 1.1M9.1 41l-2.9 1.4" vector-effect="non-scaling-stroke"/><path fill="none" stroke="#000" stroke-linecap="round" stroke-linejoin="round" stroke-width="__RESOLUTION__" d="M16 14.8v-4.3L8.4 6.1m6.2 28 1.4.7v-20m6.5 3v-3.9L16 10.5m6.5 3.4 4.3 2.3m.2 24.3-4.5-2.3-6.5-3.4m6.5-17v20.4" vector-effect="non-scaling-stroke"/><path fill="none" stroke="#362e12" stroke-linecap="round" stroke-linejoin="round" stroke-width="__RESOLUTION__" d="m8.5 30.9 5.2 2.6m-1.5 9 1.1.6.9.5M9.1 41l1 .5m17.2 9-.2-.1m-2-1-1.3-.7m-2-1.1-3-1.6m-1.7-.9-1-.5" vector-effect="non-scaling-stroke"/></g></defs><g clip-path="url(#a)"><use xlink:href="#b" width="27.4" height="57.9" transform="translate(1 1)"/></g></svg>