<svg xmlns="http://www.w3.org/2000/svg" xmlns:xlink="http://www.w3.org/1999/xlink" width="77" height="85" viewBox="0 0 77 85"><defs><use xlink:href="#a" id="K" width="8" height="7.8"/><use xlink:href="#b" id="J" width="8" height="7.8"/><use xlink:href="#c" id="I" width="8" height="7.8"/><use xlink:href="#d" id="X" width="25.1" height="46.6"/><use xlink:href="#e" id="W" width="17.3" height="13.6"/><use xlink:href="#g" id="U" width="31.3" height="17.6"/><use xlink:href="#h" id="T" width="53.3" height="34.5"/><use xlink:href="#i" id="S" width="40.5" height="17.3"/><use xlink:href="#j" id="R" width="85.8" height="51.4"/><use xlink:href="#k" id="Q" width="89" height="72.5"/><use xlink:href="#l" id="P" width="89" height="72.5"/><use xlink:href="#m" id="O" width="6.3" height="47.5"/><use xlink:href="#n" id="N" width="5.5" height="7"/><use xlink:href="#o" id="M" width="85.8" height="51.4"/><use xlink:href="#p" id="L" width="130.3" height="71"/><linearGradient id="q" x1="-819.2" x2="819.2" gradientTransform="matrix(.01 0 0 .02 -.5 4.4)" gradientUnits="userSpaceOnUse" spreadMethod="pad"><stop offset="0" stop-color="#c30" stop-opacity="1"/><stop offset=".5" stop-color="#5c1301" stop-opacity="1"/><stop offset="1" stop-color="#c30" stop-opacity="1"/></linearGradient><linearGradient id="r" x1="-819.2" x2="819.2" gradientTransform="matrix(.02 .03 -.03 .01 -.45 -3.75)" gradientUnits="userSpaceOnUse" spreadMethod="pad"><stop offset="0" stop-color="#1f20a5" stop-opacity="1"/><stop offset=".1" stop-color="#241b4b" stop-opacity="1"/><stop offset=".8" stop-color="#1f1f96" stop-opacity="1"/><stop offset="1" stop-color="#221950" stop-opacity="1"/></linearGradient><linearGradient id="s" x1="-819.2" x2="819.2" gradientTransform="matrix(-.01 .01 0 0 2 -.95)" gradientUnits="userSpaceOnUse" spreadMethod="pad"><stop offset="0" stop-color="#bec1cb" stop-opacity="1"/><stop offset="1" stop-color="#6f7788" stop-opacity="1"/></linearGradient><linearGradient id="t" x1="-819.2" x2="819.2" gradientTransform="matrix(0 .01 -.03 .01 2.15 -2.25)" gradientUnits="userSpaceOnUse" spreadMethod="pad"><stop offset="0" stop-color="#bec1cb" stop-opacity="1"/><stop offset="1" stop-color="#8c92a2" stop-opacity="1"/></linearGradient><linearGradient id="y" x1="-819.2" x2="819.2" gradientTransform="matrix(-.03 .02 0 -.01 -2.7 -3.05)" gradientUnits="userSpaceOnUse" spreadMethod="pad"><stop offset="0" stop-color="#9f863c" stop-opacity="1"/><stop offset="1" stop-color="#8f6d15" stop-opacity="1"/></linearGradient><linearGradient id="x" x1="-819.2" x2="819.2" gradientTransform="matrix(0 -.01 .01 0 -33 20.6)" gradientUnits="userSpaceOnUse" spreadMethod="pad"><stop offset="0" stop-color="#785e12" stop-opacity="1"/><stop offset="1" stop-color="#856713" stop-opacity="1"/></linearGradient><linearGradient id="w" x1="-819.2" x2="819.2" gradientTransform="matrix(.03 -.02 0 .01 28.85 11.15)" gradientUnits="userSpaceOnUse" spreadMethod="pad"><stop offset="0" stop-color="#785e12" stop-opacity="1"/><stop offset="1" stop-color="#856713" stop-opacity="1"/></linearGradient><linearGradient id="v" x1="-819.2" x2="819.2" gradientTransform="matrix(-.03 .01 0 -.01 9.3 10.9)" gradientUnits="userSpaceOnUse" spreadMethod="pad"><stop offset="0" stop-color="#9f863c" stop-opacity="1"/><stop offset="1" stop-color="#8f6d15" stop-opacity="1"/></linearGradient><linearGradient id="u" x1="-819.2" x2="819.2" gradientTransform="matrix(.03 -.02 0 .01 6.7 2.05)" gradientUnits="userSpaceOnUse" spreadMethod="pad"><stop offset="0" stop-color="#785e12" stop-opacity="1"/><stop offset="1" stop-color="#856713" stop-opacity="1"/></linearGradient><linearGradient id="F" x1="-819.2" x2="819.2" gradientTransform="matrix(-.03 .02 0 -.01 -2.7 -3.05)" gradientUnits="userSpaceOnUse" spreadMethod="pad"><stop offset="0" stop-color="#e4ab56" stop-opacity="1"/><stop offset="1" stop-color="#cd871f" stop-opacity="1"/></linearGradient><linearGradient id="E" x1="-819.2" x2="819.2" gradientTransform="matrix(0 -.01 .01 0 -33 20.6)" gradientUnits="userSpaceOnUse" spreadMethod="pad"><stop offset="0" stop-color="#ac721a" stop-opacity="1"/><stop offset="1" stop-color="#bf7e1c" stop-opacity="1"/></linearGradient><linearGradient id="D" x1="-819.2" x2="819.2" gradientTransform="matrix(.03 -.02 0 .01 28.85 11.15)" gradientUnits="userSpaceOnUse" spreadMethod="pad"><stop offset="0" stop-color="#ac721a" stop-opacity="1"/><stop offset="1" stop-color="#bf7e1c" stop-opacity="1"/></linearGradient><linearGradient id="C" x1="-819.2" x2="819.2" gradientTransform="matrix(-.03 .01 0 -.01 9.3 10.9)" gradientUnits="userSpaceOnUse" spreadMethod="pad"><stop offset="0" stop-color="#e4ab56" stop-opacity="1"/><stop offset="1" stop-color="#cd871f" stop-opacity="1"/></linearGradient><linearGradient id="z" x1="-819.2" x2="819.2" gradientTransform="matrix(.03 -.02 0 .01 6.7 2.05)" gradientUnits="userSpaceOnUse" spreadMethod="pad"><stop offset="0" stop-color="#ac721a" stop-opacity="1"/><stop offset="1" stop-color="#bf7e1c" stop-opacity="1"/></linearGradient><g id="d"><path fill="#999" d="M18.5 6.1q0-1.3-1.9-2.2t-4.4-1-4.4 1T6 6.1q-.1 1.2 1.5 2.1l.3.1q1.8 1 4.4 1t4.4-1l.3-.2q1.6-.9 1.6-2M3.1 10.5Q0 8.6 0 6.1t3.7-4.4Q7.3 0 12.5 0t8.9 1.8T25 6.3q0 2.3-3.1 4.1l-.6.3q-3.7 1.8-8.9 1.8-5.1 0-8.8-1.8zm18.9 18q3 1.6 3 4 0 2.5-3.7 4.4-3.1 1.6-7.3 1.8h-1.6q-5.1 0-8.8-1.8T0 32.5q0-2.4 3-4.1v2.9l-.2 1v.3q.1 1.8 2.9 3.1 2.8 1.5 6.9 1.5l3-.2q2.1-.4 3.8-1.2 2.9-1.5 2.9-3.5V32l-.2-.6zm-7 9 .5-.4zl-1 1.2z"/><path fill="#000" d="M18.5 6.1q0 1.1-1.6 2l-.3.2q-1.8 1-4.4 1t-4.4-1l-.2-.1Q5.9 7.3 6 6.1q-.1-1.3 1.8-2.2 1.8-1 4.4-1t4.4 1 1.8 2.2"/><path fill="url(#q)" d="M9.5-9v20.9h.1l.2.6v.4q0 2-2.9 3.5-1.7.8-3.8 1.2l-3 .2q-4.1 0-7-1.4-2.7-1.4-2.8-3.2l.2-1.3V4.8l.2-11.6v-2.1l.5.2Q-5.1-6.9 0-6.9t8.9-1.8zm0 7.8q-13 .4-18.8-5.6 5.8 6 18.8 5.6M7.7 12.4Q6.6 14 4.9 15.6l-1.8 2 1.8-2q1.7-1.5 2.8-3.2Q-1.5 14-9.4 7.8q7.9 6.3 17.1 4.6l1.9-.5zq1.2-2 1.6-4.6-.4 2.6-1.6 4.6M-9.4 4.9q5.8 2 10.7 1.3 3.6 1.9 8 1.7-4.4.2-8-1.7-5 .8-10.7-1.3m18.7 3 .3-.1zL9.6 5zM1.3 6q4.5-.7 8.3-4-3.8 3.2-8.3 4" transform="translate(12.5 19.4)"/><path fill="#0c0" d="m3 31.3-.2 1.2v-.2z"/><path fill="none" stroke="#5c4138" stroke-linecap="round" stroke-linejoin="round" stroke-width="__RESOLUTION__" d="M3.2 10.5Q0 8.6 0 6.1t3.7-4.4Q7.3 0 12.5 0t8.9 1.8T25 6.3q0 2.3-3.1 4.1v20.9h.1l.1.6.1.4q0 2-2.9 3.5-1.7.8-3.8 1.2l-3 .2q-4.1 0-7-1.5-2.7-1.3-2.8-3.2v-.2l.2-1v-7.1l.2-11.6zl.5.3q3.6 1.8 8.8 1.8t8.9-1.8l.6-.3M15.6 37l-.4.4" vector-effect="non-scaling-stroke"/><path fill="none" stroke="#5c4138" stroke-linecap="round" stroke-linejoin="round" stroke-width="__RESOLUTION__" d="M22 28.5q3 1.6 3 4 0 2.5-3.6 4.4-3.1 1.6-7.3 1.8h-1.6q-5.1 0-8.8-1.8T0 32.5q0-2.4 3-4.1" vector-effect="non-scaling-stroke"/><path fill="none" stroke="#c00" stroke-linecap="round" stroke-linejoin="round" stroke-width="__RESOLUTION__" d="M14.1 38.7q-3.5 4.8-1.6 8m3.1-9.7 1.8-2q1.7-1.5 2.8-3.2 1.3-2.2 1.6-4.7l.3-2.9m-7 13.2-1 1.3" vector-effect="non-scaling-stroke"/><path fill="none" stroke="#63180c" stroke-linecap="round" stroke-linejoin="round" stroke-width="__RESOLUTION__" d="M3.2 12.6q5.7 6 18.8 5.6m-1.8 13.6Q11 33.5 3.1 27m19 4.2-1.9.4m1.6-4.6q-4.4.2-8-1.6-5 .8-10.7-1.4m19 3h-.3m.3-5.6q-3.8 3.3-8.4 4" vector-effect="non-scaling-stroke"/><path fill="none" stroke="#000" stroke-linecap="round" stroke-linejoin="round" stroke-width="__RESOLUTION__" d="m3 31.3-.2 1.2m19.3-1.2" vector-effect="non-scaling-stroke"/></g><g id="e"><path fill="#000" d="M9.4 7q-.7 1.3-6-.9-2.3-2-3.4-4zm0 0L5 0q3.8 2.1 4.3 3.4Q11 6.6 9.6 7z"/><path fill="none" stroke="#000" stroke-linecap="round" stroke-linejoin="round" stroke-width="1" d="m9.4 7 .2.1 2.1 1.1q1-.8 4.1-.5 2 2.1 0 2.7l-4.1-2.2M9.5 7.1l1.3 2 1.8 3q-2.2 2.3-3.7-.7 0-2 1.8-2.3"/></g><g id="H"><path fill="url(#r)" d="m-36.3-23.5 26.4-13.1.5-.1q2.6 0 4.8 4.7 13 26.7 29 38 15.7 11.2 11.8 17.2-12.9 8.6-26.6 15 3.2-5.7-2.2-11.7l-2.9-2.7-1.1-1-.2-.2-2.7-2.1-2-1.5q-5-3.6-9.5-8.4-8.7-9.4-16.3-23.4l-3.2-6.3-.2-.6q-2.6-4.8-5.6-3.9" transform="translate(37.2 36.7)"/><path fill="#000" fill-opacity=".5" d="M44.6 63.3q-2.7-1.5-5.8-1.2l3-1.5zM6.3 25.8q2.6-1.5.2-8.6l.2.5L9.9 24z"/><path fill="#000" fill-opacity=".3" d="M37.7 57.3q-11.9 6.5-24.6 12 9.9-5.2 4.4-9.7-5.8-4.6-14-1 11.8-5.4 22.7-11.2 4.5 4.9 9.5 8.5z"/><path fill="#000053" d="m3.5 58.6-1.1.5-1 .5q1.9-14.7 0-31.2v-.1l4.9-2.5L9.9 24q7.6 14 16.3 23.4-11 5.8-22.7 11.2"/><path fill="none" stroke="#000" stroke-linecap="round" stroke-linejoin="round" stroke-width="__RESOLUTION__" d="M.9 13.2 27.3.1l.5-.1q2.6 0 4.8 4.7 13 26.7 29 38.1Q77.3 54 73.4 60q-12.9 8.6-26.6 15 3.2-5.7-2.2-11.7l-2.9-2.7-1.1-1-.2-.2-2.7-2.1-2-1.4q-5-3.6-9.5-8.5Q17.5 38 9.9 24l-3.6 1.8-5 2.5h0q2 16.6.2 31.3l.9-.5m4-42Q4 12.3 1 13.2l-.9.4m6.5 3.6.2.5L9.9 24M3.5 58.6q11.8-5.4 22.7-11.2" vector-effect="non-scaling-stroke"/><path fill="none" stroke="#006" stroke-linecap="round" stroke-linejoin="round" stroke-width="__RESOLUTION__" d="m3.5 58.6-1.1.5" vector-effect="non-scaling-stroke"/></g><g id="g"><path fill="url(#s)" d="m-15.3 7.3-.3-1.7L14.7-8.8q.7 1 .8 1.8z" transform="translate(15.65 8.8)"/><path fill="#5f636e" d="M31.3 1.8q.1.9-.9 1.4L.6 17.6.3 16z"/><path fill="none" stroke="#523714" stroke-linecap="round" stroke-linejoin="round" stroke-width="__RESOLUTION__" d="M.3 16 0 14.5 30.5 0q.6 1 .8 1.8.1.9-.9 1.4L.6 17.6z" vector-effect="non-scaling-stroke"/></g><g id="h"><path fill="url(#t)" d="M-20.1 2h-2.7l38-18.7q2.2-1 5 0 1.3.6 2.4 1.5-1.4 0-1.4 1.1l.2.7q.3.6 1 .6 1.3 0 1.3-1.2v-.2l1.3 1.6 1 1.8-39.4 18.4-.7-1.1-.7-1q.6-.2.6-1-.2-1.2-1.2-1.2-.8 0-1.1.5-1.1-.9-2.4-1.4z" transform="translate(26.65 17.2)"/><path fill="#dadce0" d="M3.8 19.2h2.7l-.4 14.5q-2.7-1.2-4.4-4Q-.2 26.9 0 24q.3-2.7 2.1-4zl-1.7.8.4-.4zm8.1 3.6.7 1 .6 1.1q1.3 2.3 1 4.7-.2 2.3-1.4 3.5l-1 .8-1.3.5V22.8l.7.1z"/><path fill="#bec1cb" d="m6.5 19.2 1.3.4Q9 20.1 10 21l-.1.6.1.7.4.4v11.6q-1.7.5-4-.5l-.4-.1z"/><path fill="#fff" d="M10.1 21q.3-.5 1.1-.5 1 0 1.2 1.2 0 .8-.5 1l-.7.2-.7-.1-.4-.5-.1-.7zM50.4 3q0 1.2-1.2 1.2-.8 0-1.1-.5l-.2-.7q0-1.1 1.5-1.1.8 0 1 1"/><path fill="#8c92a2" d="M13.2 24.8 52.7 6.5q.9 2 .7 4-.2 2.3-1.5 3.5l-1 .8q-.8.4-1.7.5L12.8 33q1.2-1.2 1.4-3.5.3-2.4-1-4.7"/><path fill="none" stroke="#523714" stroke-linecap="round" stroke-linejoin="round" stroke-width="__RESOLUTION__" d="m52.6 6.5-1-1.9L50.4 3m-1-.9q-1.1-.9-2.5-1.4-2.8-1.2-5-.1l-38 18.7-1.7.8Q.4 21.3.2 24q-.3 2.9 1.6 5.9 1.7 2.7 4.4 3.8l.4.2q2.3 1 4 .5l1.2-.5 1-.7.1-.1 36.3-17.6q.9-.2 1.7-.7l1-.7q1.3-1.2 1.5-3.5.2-2-.7-4M3.8 19l-1.3.5-.4.3" vector-effect="non-scaling-stroke"/></g><g id="i"><path fill="#006" d="M34.2 15.6Q14 19.7 0 14.1L29.5 0q2.8 1.3 6.4 0l4.6 1.9z"/><path fill="none" stroke="#000" stroke-linecap="round" stroke-linejoin="round" stroke-width="__RESOLUTION__" d="M34.2 15.6Q14 19.7 0 14.1L29.5 0q2.8 1.3 6.4 0l4.6 1.9z" vector-effect="non-scaling-stroke"/></g><g id="j"><path fill="#c29b5a" d="M.6 23.3 44.2 0l12.3 6.3 20 10 8.8 4.5h-.1l-43.4 23h-2.5l-6.8-3.6 19.9-10.5-21.7 9.6-.2-.1L18.9 33l-12-6.3zm55.9-17Q29.7 15.5 7 26.7 29.7 15.5 56.5 6.3m20 10Q45.7 19 18.9 33q26.8-14 57.6-16.6"/><path fill="#8f7049" d="M85.2 20.9q1.1 3.7 0 6.1L40.5 51.4v-5.9l1.3-1.7z"/><path fill="#977c4c" d="m40.5 51.4-40-21q-1-3.6 0-7.1L7 26.7 18.9 33l11.6 6 .2.1 21.7-9.5-19.9 10.5 6.8 3.5 1.2 1.8z"/><path fill="#d7bd93" d="m41.8 43.8-1.3 1.8-1.2-1.9z"/><path fill="none" stroke="#4b2e1b" stroke-linecap="round" stroke-linejoin="round" stroke-width="__RESOLUTION__" d="M.6 23.3 44.2 0l12.3 6.3 20 10 8.8 4.5h-.1q1.1 3.8 0 6.2L40.5 51.4l-40-21q-1-3.6 0-7.1" vector-effect="non-scaling-stroke"/><path fill="none" stroke="#977c4c" stroke-linecap="round" stroke-linejoin="round" stroke-width="__RESOLUTION__" d="M7 26.7Q29.7 15.5 56.5 6.3M18.9 33q26.8-14 57.6-16.6" vector-effect="non-scaling-stroke"/><path fill="none" stroke="#c29b5a" stroke-linecap="round" stroke-linejoin="round" stroke-width="__RESOLUTION__" d="M41.8 43.8h-2.5" vector-effect="non-scaling-stroke"/></g><g id="k"><path fill="url(#u)" d="M37.9-24.6q.9 1.3 1.5 3 .9 6.6 5.1 10.8L-24 27.3l-.4-.6q-.9-1.7-1.5-4.3v-.1l-.1-.2v-.2q-.8-3-2.9-5.3Q6.7-1.9 37.9-24.6" transform="translate(39.85 29.4)"/><path fill="url(#v)" d="M44.6-10.8Q46.4-9 49-7.6 35.3 2.3 19.4 9.2 11 12 4.3 17.2q-10 6.7-25.3 12.7l-.1-.2-.5-.2-.5-.3q-1-.6-1.9-1.9z" transform="translate(39.85 29.4)"/><path fill="url(#w)" d="M49.1-7.6Q47.4 2 48.9 2.8q-10 10-22 14.7t-22 12.3q-10.8 8-22.6 13.2h-.2q-4-5.5-3.2-12.8v-.3h.1q15.4-6 25.3-12.7 6.8-5.2 15-8 16-7 29.8-16.8" transform="translate(39.85 29.4)"/><path fill="#000f00" fill-opacity=".5" d="M17.8 58.6H11q.8-.3 1.4-.8l3-1.7.4.6q.8 1.3 1.8 1.9"/><path fill="url(#x)" d="m-28.7 29.2-.6.2h-1.6q-2.7-.2-5.3-2.7-2.5-2.6-3.3-5.8-.9-3.4.6-5.5l.8-1q.6-.6 1.4-.8l2-.2q2.8.2 5.4 2.7l.4.5q2.1 2.3 2.8 5.3l.1.1v.3l.1.1q.6 3-.7 5.1l-.2.3-.5.6h-.1q-.6.6-1.4.8M-34 17.7h-.9l-.7.4-.4.5q-.7 1-.3 2.6t1.6 2.9 2.6 1.3q1 .1 1.7-.5l.3-.3v-.1q.8-1.1.4-2.7t-1.7-2.8-2.6-1.4" transform="translate(39.85 29.4)"/><path fill="url(#y)" d="m-36.7 13.6 63.6-41.2q1.4-2 4-1.7 2.8.2 5.4 2.7l1.6 2Q6.7-2-29 16.6l-.5-.5q-2.5-2.5-5.4-2.7z" transform="translate(39.85 29.4)"/><path fill="#53460c" d="M14 51.8q.6 2.6 1.5 4.3l-3 1.6.5-.5.2-.2v-.1q1.4-2 .8-5.1"/><path fill="#233223" d="M5.9 47q1.3.1 2.6 1.4 1.2 1.2 1.6 2.8t-.3 2.7l-.1.1-.2.3q-.7.6-1.7.5-1.4-.1-2.6-1.3t-1.6-2.9.3-2.6l.4-.5.7-.4z"/><path fill="none" stroke="#534604" stroke-linecap="round" stroke-linejoin="round" stroke-width="__RESOLUTION__" d="M77.7 4.8q1 1.3 1.5 3m-68.6 51H9q-2.8-.2-5.4-2.7-2.5-2.6-3.3-5.9t.7-5.5l.8-1M66.7 1.9q1.4-2 4-1.8 2.9.3 5.4 2.8l1.6 2M11 46q2 2.3 2.8 5.3M11 46l-.5-.5Q8 43 5.1 42.8l-2 .2m9.4 14.8q-.6.5-1.4.8m3-6.9q.6 3-.7 5.1h-.1" vector-effect="non-scaling-stroke"/><path fill="none" stroke="#534604" stroke-linecap="round" stroke-linejoin="round" stroke-width="__RESOLUTION__" d="M79.2 7.8q.9 6.6 5.2 10.7 1.9 1.9 4.5 3.3-1.7 9.6-.2 10.3M22.2 72.4H22q-4-5.6-3.3-12.9v-.4l-.5-.3-.4-.2q-1.1-.6-2-1.9l-.3-.6q-1-1.7-1.5-4.3l-.1-.1v-.3l-.1-.1m-2.7 7.3-.5.1m-8.8-15q.6-.5 1.3-.7L66.8 1.8M18.9 59.3h-.1M5.9 47.1q1.3 0 2.6 1.3 1.2 1.2 1.6 2.8t-.3 2.7l-.1.1-.2.3q-.7.6-1.7.5-1.4-.1-2.6-1.3t-1.6-2.9.3-2.6l.4-.5.7-.4zm6.6 10.7.5-.6.2-.2m-.6.8 2.9-1.7" vector-effect="non-scaling-stroke"/><path fill="none" stroke="#5f5312" stroke-linecap="round" stroke-linejoin="round" stroke-width="__RESOLUTION__" d="M88.7 32.2q-9.9 10-22 14.7T44.9 59.2q-10.8 8-22.6 13.2" vector-effect="non-scaling-stroke"/></g><g id="l"><path fill="url(#z)" d="M37.9-24.6q.9 1.3 1.5 3 .9 6.6 5.1 10.8L-24 27.3l-.4-.6q-.9-1.7-1.5-4.3v-.1l-.1-.2v-.2q-.8-3-2.9-5.3Q6.7-1.9 37.9-24.6" transform="translate(39.85 29.4)"/><path fill="url(#C)" d="M44.6-10.8Q46.4-9 49-7.6 35.3 2.3 19.4 9.2 11 12 4.3 17.2q-10 6.7-25.3 12.7l-.1-.2-.5-.2-.5-.3q-1-.6-1.9-1.9z" transform="translate(39.85 29.4)"/><path fill="url(#D)" d="M49.1-7.6Q47.4 2 48.9 2.8q-10 10-22 14.7t-22 12.3q-10.8 8-22.6 13.2h-.2q-4-5.5-3.2-12.8v-.3h.1q15.4-6 25.3-12.7 6.8-5.2 15-8 16-7 29.8-16.8" transform="translate(39.85 29.4)"/><path fill="#000" fill-opacity=".5" d="M17.8 58.6H11q.8-.3 1.4-.8l3-1.7.4.6q.8 1.3 1.8 1.9"/><path fill="url(#E)" d="m-28.7 29.2-.6.2h-1.6q-2.7-.2-5.3-2.7-2.5-2.6-3.3-5.8-.9-3.4.6-5.5l.8-1q.6-.6 1.4-.8l2-.2q2.8.2 5.4 2.7l.4.5q2.1 2.3 2.8 5.3l.1.1v.3l.1.1q.6 3-.7 5.1l-.2.3-.5.6h-.1q-.6.6-1.4.8M-34 17.7h-.9l-.7.4-.4.5q-.7 1-.3 2.6t1.6 2.9 2.6 1.3q1 .1 1.7-.5l.3-.3v-.1q.8-1.1.4-2.7t-1.7-2.8-2.6-1.4" transform="translate(39.85 29.4)"/><path fill="url(#F)" d="m-36.7 13.6 63.6-41.2q1.4-2 4-1.7 2.8.2 5.4 2.7l1.6 2Q6.7-2-29 16.6l-.5-.5q-2.5-2.5-5.4-2.7z" transform="translate(39.85 29.4)"/><path fill="#785012" d="M14 51.8q.6 2.6 1.5 4.3l-3 1.6.5-.5.2-.2v-.1q1.4-2 .8-5.1"/><path fill="#333" d="M5.9 47q1.3.1 2.6 1.4 1.2 1.2 1.6 2.8t-.3 2.7l-.1.1-.2.3q-.7.6-1.7.5-1.4-.1-2.6-1.3t-1.6-2.9.3-2.6l.4-.5.7-.4z"/><path fill="none" stroke="#775006" stroke-linecap="round" stroke-linejoin="round" stroke-width="__RESOLUTION__" d="M77.7 4.8q1 1.3 1.5 3m-68.6 51H9q-2.8-.2-5.4-2.7-2.5-2.6-3.3-5.9t.7-5.5l.8-1M66.7 1.9q1.4-2 4-1.8 2.9.3 5.4 2.8l1.6 2M11 46q2 2.3 2.8 5.3M11 46l-.5-.5Q8 43 5.1 42.8l-2 .2m9.4 14.8q-.6.5-1.4.8m3-6.9q.6 3-.7 5.1h-.1" vector-effect="non-scaling-stroke"/><path fill="none" stroke="#775006" stroke-linecap="round" stroke-linejoin="round" stroke-width="__RESOLUTION__" d="M79.2 7.8q.9 6.6 5.2 10.7 1.9 1.9 4.5 3.3-1.7 9.6-.2 10.3M22.2 72.4H22q-4-5.6-3.3-12.9v-.4l-.5-.3-.4-.2q-1.1-.6-2-1.9l-.3-.6q-1-1.7-1.5-4.3l-.1-.1v-.3l-.1-.1m-2.7 7.3-.5.1m-8.8-15q.6-.5 1.3-.7L66.8 1.8M18.9 59.3h-.1M5.9 47.1q1.3 0 2.6 1.3 1.2 1.2 1.6 2.8t-.3 2.7l-.1.1-.2.3q-.7.6-1.7.5-1.4-.1-2.6-1.3t-1.6-2.9.3-2.6l.4-.5.7-.4zm6.6 10.7.5-.6.2-.2m-.6.8 2.9-1.7" vector-effect="non-scaling-stroke"/><path fill="none" stroke="#89621b" stroke-linecap="round" stroke-linejoin="round" stroke-width="__RESOLUTION__" d="M88.7 32.2q-9.9 10-22 14.7T44.9 59.2q-10.8 8-22.6 13.2" vector-effect="non-scaling-stroke"/></g><g id="m"><path fill="#8f7049" d="M3.5 47.5Q.6 47.3 0 43.3V1.1Q1.4-.6 3.4.3z"/><path fill="#c29b5a" d="m3.4.3 2.9 2.1V47l-2.8.6z"/><path fill="none" stroke="#523714" stroke-linecap="round" stroke-linejoin="round" stroke-width="__RESOLUTION__" d="M3.5 47.5Q.6 47.3 0 43.3V1.1Q1.4-.6 3.4.3l2.9 2.1m0 44.5-2.8.6m2.8-45v44.4" vector-effect="non-scaling-stroke"/></g><g id="n"><path fill="#ff9" d="M.9 1q.7-1 1.9-1t1.9 1 .8 2.5T4.7 6l-.6.5Q4 0 .8 1.1z"/><path fill="url(#G)" d="M1.4 3 0 3.6q-1.1 0-2-1-.7-1-.7-2.5 0-1.4.8-2.4v-.1q3.1-1 3.3 5.6" transform="translate(2.75 3.5)"/><path fill="none" stroke="#523714" stroke-linecap="round" stroke-linejoin="round" stroke-width="__RESOLUTION__" d="M.9 1q.7-1 1.9-1t1.9 1 .8 2.5T4.7 6l-.6.5-1.3.5q-1.2 0-2-1T0 3.5t.8-2.4m0-.1" vector-effect="non-scaling-stroke"/></g><g id="o"><path fill="#a8874e" d="M.6 23.3 44.2 0l12.3 6.3 20 10 8.8 4.5h-.1l-43.4 23h-2.5l-6.8-3.6 19.9-10.5-21.7 9.6-.2-.1L18.9 33l-12-6.3zm55.9-17Q29.7 15.5 7 26.7 29.7 15.5 56.5 6.3m20 10Q45.7 19 18.9 33q26.8-14 57.6-16.6"/><path fill="#7c613f" d="M85.2 20.9q1.1 3.7 0 6.1L40.5 51.4v-5.9l1.3-1.7z"/><path fill="#836c42" d="m40.5 51.4-40-21q-1-3.6 0-7.1L7 26.7 18.9 33l11.6 6 .2.1 21.7-9.5-19.9 10.5 6.8 3.5 1.2 1.8z"/><path fill="#bba480" d="m41.8 43.8-1.3 1.8-1.2-1.9z"/><path fill="none" stroke="#412817" stroke-linecap="round" stroke-linejoin="round" stroke-width="__RESOLUTION__" d="M.6 23.3 44.2 0l12.3 6.3 20 10 8.8 4.5h-.1q1.1 3.8 0 6.2L40.5 51.4l-40-21q-1-3.6 0-7.1" vector-effect="non-scaling-stroke"/><path fill="none" stroke="#836c42" stroke-linecap="round" stroke-linejoin="round" stroke-width="__RESOLUTION__" d="M7 26.7Q29.7 15.5 56.5 6.3M18.9 33q26.8-14 57.6-16.6" vector-effect="non-scaling-stroke"/><path fill="none" stroke="#a8874e" stroke-linecap="round" stroke-linejoin="round" stroke-width="__RESOLUTION__" d="M41.8 43.8h-2.5" vector-effect="non-scaling-stroke"/></g><g id="V" clip-path="none" transform="translate(37.2 36.7)"><use xlink:href="#H" width="74.2" height="75" transform="translate(-37.2 -36.7)"/><use xlink:href="#I" width="8" height="7.8" transform="matrix(1.83 0 .55 1.83 -4.95 -16.9)"/><use xlink:href="#I" width="8" height="7.8" transform="matrix(1.83 0 .91 1.83 -10.6 7.45)"/><use xlink:href="#J" width="8" height="7.8" transform="matrix(1.83 0 .14 1.83 21.35 14.3)"/><use xlink:href="#I" width="8" height="7.8" transform="matrix(1.83 0 .25 1.83 -24.55 -30.55)"/><use xlink:href="#K" width="8" height="7.8" transform="matrix(1.29 -.71 .14 1.83 -30.95 2.65)"/></g><g id="Z" transform="translate(58.25 82.5)"><use xlink:href="#L" width="130.3" height="71" transform="matrix(1.07 .01 0 1.07 -57.3 -3.2)"/><use xlink:href="#M" width="85.8" height="51.4" transform="translate(-8.5 -12.3)"/><use xlink:href="#M" width="85.8" height="51.4" transform="translate(-53.85 11.7)"/><use xlink:href="#N" width="5.5" height="7" transform="translate(33.2 -73.2)"/><use xlink:href="#O" width="6.3" height="47.5" transform="matrix(1 0 0 1.26 73.95 -33.85)"/><use xlink:href="#P" width="89" height="72.5" transform="matrix(.75 0 0 .75 -25.35 -.35)"/><use xlink:href="#O" width="6.3" height="47.5" transform="matrix(1 0 0 1.85 30.55 -82.5)"/><use xlink:href="#Q" width="89" height="72.5" transform="matrix(.75 0 0 .75 -17.45 7.45)"/><use xlink:href="#R" width="85.8" height="51.4" transform="matrix(1.08 .03 0 1.08 -15.1 -47.45)"/><use xlink:href="#S" width="40.5" height="17.3" transform="translate(-46 10.5)"/><use xlink:href="#T" width="53.3" height="34.5" transform="matrix(.85 -.03 0 .85 -17.25 -1.4)"/><use xlink:href="#O" width="6.3" height="47.5" transform="matrix(1 0 0 1.26 -16.45 10.9)"/><use xlink:href="#T" width="53.3" height="34.5" transform="matrix(.85 0 0 .85 -56.95 -3.05)"/><use xlink:href="#U" width="31.3" height="17.6" transform="translate(-19.1 -69.55)scale(1.66)"/><use xlink:href="#T" width="53.3" height="34.5" transform="matrix(.85 0 0 .85 -57.3 -49.65)"/><use xlink:href="#O" width="6.3" height="47.5" transform="matrix(1 0 0 1.85 -55.75 -38.5)"/><use xlink:href="#N" width="5.5" height="7" transform="translate(-58.25 -29.6)"/><use xlink:href="#N" width="5.5" height="7" transform="translate(-56.95 16.55)"/><use xlink:href="#N" width="5.5" height="7" transform="translate(-18.4 18.25)"/><use xlink:href="#V" width="74.4" height="75" transform="translate(-49.9 -49.05)"/><use xlink:href="#W" width="17.3" height="13.6" transform="matrix(-1.58 .45 -1.16 -1.38 54.45 -15.9)"/><use xlink:href="#X" width="25.1" height="46.6" transform="matrix(.71 0 0 .71 31.9 -55.8)"/></g><path id="a" fill="#493e00" d="M0-4 1-.8h3L1.5 1l.8 2.9h-.1L-.1 2.1l-2.5 1.6 1-2.8-2.4-2 3 .1z" transform="translate(4 3.95)"/><path id="b" fill="#b19700" d="M0-4 1-.8h3L1.5 1l.8 2.9h-.1L-.1 2.1l-2.5 1.6 1-2.8-2.4-2 3 .1z" transform="translate(4 3.95)"/><path id="c" fill="#fed801" d="M0-4 1-.8h3L1.5 1l.8 2.9h-.1L-.1 2.1l-2.5 1.6 1-2.8-2.4-2 3 .1z" transform="translate(4 3.95)"/><path id="p" fill="#000" fill-opacity=".3" d="m20.3-35.4 44.9 23.7-85.4 47.2-45-23.7z" transform="translate(65.15 35.45)"/><radialGradient id="G" cx="0" cy="0" r="819.2" gradientTransform="matrix(0 0 0 0 .65 -.3)" gradientUnits="userSpaceOnUse" spreadMethod="pad"><stop offset="0" stop-color="#fc0"/><stop offset="1" stop-color="#c3a938"/></radialGradient><clipPath id="Y"><path d="M1 1h75v83H1z"/></clipPath></defs><g clip-path="url(#Y)"><use xlink:href="#Z" width="140.5" height="156.2" transform="translate(1 1)scale(.5296)"/></g></svg>