<svg xmlns="http://www.w3.org/2000/svg" xmlns:xlink="http://www.w3.org/1999/xlink" width="86" height="128" viewBox="0 0 86 128"><defs><g id="w"><path fill="#635b3b" d="M7.3 4.1q-1-.6-2.3-.5l-.8.1.8-.1q1.3-.1 2.3.5l.7.5.1.2q.6-3.1 3.8-3-1.3-1-3-1.4-2-.5-3.5 1.3-.9 1.1-1.2 2-1.4.3-2.5 1.1Q.3 5.8.3 6.6t1.3 1.5l1.9.5q-.2-4 3.8-4.5m7.5 8.5-.3-.1q-.9-.5-.9-1t1-1.2 2.1-.8l1.3.2q-3.1 1.2-3.2 3"/><path fill="#857a50" d="m7.3 4.1.7.5.1.2q.6-3.1 3.8-3l.4.4q1.3 1.3 1.3 2.7t-1.2 2.2-3.3.6h-.6l-.7.4q-1.3.7-3.1.7l-1.2-.2q-.2-4 3.8-4.5m.8.7q1 1 1 1.8 0 .5-.6 1.1.6-.6.6-1.1 0-.7-1-1.8M18 9.7l.7.5q.8.7.8 1.3 0 .5-1 1l-2 .4-1.7-.3q.1-1.7 3.2-2.9"/><path fill="none" stroke="#000" stroke-linecap="round" stroke-linejoin="round" stroke-opacity=".3" stroke-width="__RESOLUTION__" d="m4.2 3.7.8-.1q1.3-.1 2.3.5l.7.5.1.2q1 1 1 1.8 0 .5-.6 1.1h.6q1.9.2 3.3-.6 1.3-.7 1.3-2.2 0-1.4-1.4-2.7l-.5-.3Q10.7.8 9 .4 7-.1 5.5 1.7q-.9 1.1-1.2 2-1.4.3-2.5 1.1Q.3 5.8.3 6.6t1.3 1.5l1.9.5 1.2.2q1.8 0 3.1-.7l.7-.4m9.5 2 .7.5q.8.7.8 1.3 0 .5-1 1l-2 .4-1.7-.3-.3-.1q-.9-.5-.9-1t1-1.2 2.1-.8z" vector-effect="non-scaling-stroke"/></g><g id="t"><path fill="#2d190c" d="M77.4 34.3q0 .8.4 2l1-1.2q.4-.6.4-1.6 0-1.1-.6-1.4-.3-.1-.7.6-.5.5-.5 1.6m0-2q.7-1 1.4-.7.9.4.8 1.9 0 .9-.6 2l-1 1q.3.6.8.5l1.1.1q.5.3.6.8.2.8-.1 1.6-.5 1.1-1.5 2.2l-.3-.5 1.3-1.6.3-1.2q0-.5-.5-.8l-1-.1q-.6 0-1-.6-1 .9-2.2 1-.8 0-1.4-.5-.7-.7-.5-1.8.2-1 1.5-1 .9 0 1.4.6.6.6.7 1.6l.4-.3q-.5-1.4-.5-2.3 0-1.2.4-1.9M74 35.8q-.2.6.3 1 .5.6 1.4.6l1-.3q0-1-.5-1.6-.5-.5-1.1-.4-1 0-1.1.6M86.2 56l.4.8.4.4.3-.4.7-1.9 1.2-2.8 1-1.7.5-.3q.3 0 .1.4-.6.8-1.4 2.5l-1.7 4.5q-.2.7-.6.6l-.7-.4q-.8-1.1-1.3-2.9v-.3l.2-.2q.2-.1.3.2zm1 21.5q.6-.6 1.3-.7t1.6.6 1.7.7q.4-.1.9-.7l.4-.7.8.6-.8 1.2q-.6.6-1.4.7-.6 0-1.8-.7-.8-.5-1.3-.5t-1 .5l-.3.7-.8-.4zm3.2-1.9-2.3-2.8 1.4-.1 1.8 2.9zm-2.2 16.3v1.5l-.8.3-1.4 2.4 1.4 1.3.8-.3v1.5l-1.1.3v-1l-1.5-1.3-1.4 2.3v1.3l-1.1.4V99l.9-.4 1.5-2.4-1.4-1.2-1 .3v-1.5l1.3-.5v1.2l1.3 1.3 1.4-2.5v-1.1zm-64-42.5 2.2 1.2.6-3.5-.6-1.4 1.1-.9.7 1.8-.8.8-.5 3.4 2.1 1 .9-.6.7 1.8-1.1.9-.5-1.3-2.2-1.2-.6 3.3.6 1.5-1.1 1-.7-1.9.9-.7.5-3.4-2.2-1.2-.9.7-.7-1.9 1.2-.8zM10.8 74l1.8 2.9h-1l-2.2-2.8zm.3 5.8q-.8-.5-1.3-.5-.7 0-1 .5l-.4.7-.7-.5.7-1.2q.6-.6 1.3-.6t1.6.5 1.6.6q.5 0 .9-.6l.5-.7.7.6-.8 1.2q-.6.7-1.4.7-.6 0-1.7-.7m-10.3 25q.5.5 1.3.5l1.1-.2q-.1-1.1-.6-1.6t-1.1-.4q-.9 0-1 .6-.2.6.3 1m.7-2.2q.9 0 1.4.6.6.7.7 1.7l.4-.3-.5-2.3q0-1.2.4-2 .7-1 1.4-.6.8.3.7 1.8 0 1-.5 2l-1 1.1q.2.6.8.5h1q.6.3.7.8.2.8-.1 1.6-.5 1.2-1.5 2.2l-.3-.4 1.2-1.6q.3-.6.3-1.3 0-.5-.4-.7l-1-.2q-.6 0-1-.6-1 1-2.2 1-.8 0-1.4-.5-.8-.7-.5-1.7.2-1 1.4-1.1m2.4-.2.4 1.9.9-1.1q.4-.7.4-1.6 0-1.2-.5-1.4t-.8.5q-.4.6-.4 1.7m3.9 23.1.6-.4q.2 0 0 .4L7 128.3l-1.6 4.9q-.3.9-.7.9-.5 0-.7-.2-.8-1-1.3-2.6v-.3l.2-.2q.2-.2.3 0l.5 1.3.5.8.4.2q.2 0 .3-.4l.7-2.1 1.2-3.2z"/><path fill="#ff0" fill-opacity=".1" d="M45.6 0q4 .1 9.4 2.5l8.5 6.1q1.8 1 3.2 3.7Q72 20 69 20.8q-2.2 1-3.3 4.5-1.2 3.4-.1 7.2-.6 4-1.9 5.2t-3 1.9q-5.8 4.6-12.4 4.6l-11.2-.9q-13.3-1.7-13.8-4.1t-1-2.7L16.1 25l-.2-3.1q0-2.8.9-5.4 5-3.4 3.8-6.7-.5-3.2 2.3-4.6 2.9-1.5 6.8-2.3Q41.7-.2 45.6 0"/></g><g id="s"><path fill="none" stroke="#0d090d" stroke-linecap="round" stroke-linejoin="round" stroke-opacity=".6" stroke-width="1.5" d="M16.2 162.3q-1.7-9.5-1.8-19.1l2.2 1.1v-.7l-2.2-1.1v-14.3q-4.1-8.8-3.7-18.7v-.4q.6-2.5 1.8-4.5l1.8-2.7-.1-23.2-.5-.4-1-4.4-1.3-.6-.8-.5h0l-5-3.7L4 65.6l2-1.5-5.2-3.8L1 58l3.7-4.6-.2-4.5 3.9-1v-.1l2.6-1 .2.5.3-3.1h0l4.5-5.6 10 7.7-.2.3 3.2 7.8-.8 14.2-.5.5 3 14.2q5.1 4.3 10.4 8 1-10.4-.6-21.2l-.3-.2q-.5-4 .1-8l.3-1.1q3-8.4 8.6-12.9 1.8-1.3 2.6-.5l-.6-3.1V44l2.1-1.3 2.6-3.6-2-.1-.6-2.3h0l-.2-.6 15.2-9.8.3-4.6q-1.2-1.9-3.1-2.3h-1.2l1.3-1.2q1.6-1.3 3.3-1.8v-1.6l-3.7 1.6q.3-3.4 1.7-6.8l.7-1.9.9-1.8L71.9.8 82 6v.4l3.7 3.9-3.3 6v1.1q1.3 4 1.1 8.1l1.3 3h.2l-.7 2.6 2.5 3.5.2-.2 1.8 1.5 15 25.8-6.3.3-15-14q-2 4-3.2 9.8l-.2 1.6q-.9 5-1.1 11l1.8 1.1q5.4 3.4 8.7 7.6 2.8-3.5 5-9.5 1-3 2.7-.4 3.6 4.8 6 9.6 1.6 3.3 2.6 6.6-1.6 4-3.3 6.7-2.3 3.4-4.8 4.7-.8 8.5-.4 16.9l.2 1.9q0 2 .3 4 5.4 2.5 11.3 4.4h4.9l4.1-2.8-2.3-4.7 2.4-5.4.1-.7.1-.1 4.2-.1 2 .3 2.3-1.9v-5.7l-2.1 2.7-1.8-.2-1.5 2.6-1.2-.7-.9-3.6-.3-4.5v-.1l3.6-6.2 1.9 1 9.1 4.5-.1.4-.1 5.5 1.2 2.4 4.3-3.1 2.7 2v2.9l-1.2.9-.7.6-.9 2.5 1.5 2 3-1 .8 6.5-1.1 1.9h-1.8l-1.4 1.3-2.5 4.1h.1l-.4 17.6-.2 59.7-2.2-1.1v.7l2.2 1.1q-.4 42.4-33 47l-1.2-2q5.6-1.4 10.3-3.7l2-14.7-9.1-22.2-.7.3-1.2-2 2.3-1.2v-.1l1.2-21.8-8.5-28-2.3-.7-.6-1.3 4 .9 5.9-13.4-5.8-13.2q-.6 1.6 0 4 .3 1.3 1.1 3.1-9.2-4.4-10.7-12.9l-.2-.3h0l.2-1.5q2.2-13.5 0-27.5l-2.1 1.2-5.3 2.2-14.8 1.8-2.1-.7-.8.2-3 3.8-.7 4.5 1.5-.7 4 5.2.2.1q4.9 3.1 4.8 7.2l3 7.8-2.3 1.4.9 2.5-.6 1.6.1.9 3 .9 4 3-.9 4.3m-18.7-102h.2zm-7.3 11-.2-.5zq2 8.8 8.6 15.4v.1l5.5.5q1.2-3.3 1.7-8l-.6-8.8-3.5.5q-5.3 2.8-6 10.3-4.1-4.8-5.6-9.9m-33 .8-1.5 4-2.4-1.6-1.5-2.1.3-.5 1.8.6 2.9-2.6zM10 60.8l-.2-.1zm1 .5h.5l-.2-.2-.2-.2v.3zm39 34.5-.7 4.1-1.7-.8.3-.3q-.7-4.7-.9-9.4l1.6 1.8zM82.4 9.2l-.3-.3V9z"/><path fill="#8c574a" d="m82.8 7.2-3.9-.8L78 8l-10.2 4-1-2.2.8-1.9.9-1.8L71.9.8 82 6v.4zm.3 32.4.2-.2q2.2-2.9 4.5-2.6 5.7 8.9 9.3 18zM68.3 26.4l-2 5.2-13 5.1-.2-.5z"/><path fill="#5a322a" d="m66.9 9.7.8 2.2L78 8l.9-1.5 3.8.8 3 3.1-3.3 6v1.1l.9 3.5v.2l.2 4.4L83 29l-.1.3h.1l1.8-.7h.2l-.7 2.6 2.5 3.5.2-.2 1.8 1.5 15 25.8-3 .1-18.6-21.3-.7.8.5 1.3 1.2 2.2.6 1.5v.1l-30 .9-2.5-2.7-.1-.4V44l2.1-1.2 2.6-3.6q1.3-2.3 1.7-4.1l1.1 2.2-4.7 7 1.4.9 2.7-.9 1-.1q1.5-.5 2.6-1.2l1.3-1q1.5-1.7 1.5-4.1l1.9 3.7.6 1.3.6 1.2 7.9-1.5 5.2-6.1-5.1-8.1v-.5l-.3-5.5.2-4.5.2-1.9-2.5-1.5-2.6-.2-1.6.6-3.8 1.6q.3-3.4 1.7-6.8m9.8 12.1.1 1.2-1.5-.6 1.5.6zm5.6-12.7-.3-.3v.1l-1.2-.6.8 4.3 1.9-2.2zm-5.6 14 .7.2h2.2l1.5.8v1.8-1.8l-1.5-.8h-2.2zm2.9.3h1.5v.8-.9zm1.5 0h.2l2-2.2-2 2.1zm-5.1 4-.5.6zm6.6 4.7.4-2.9zM51.8 47.4v.1l.5 2.3.1.5h-2.1l-.8.8h-.8q-2.1 1.5-3.2 3.4L43.7 58l-.1.2h.1l1.9-1.5-1.5 1.9-.3.3.4-.3 1.1-.8-.6 1.5-.5-.7.5.7-.9 2.5v.1q.9 5.9 5.7 6.6l.8-.6-.5.8v.1l-.2-.2-.1-.1q-1.5 1.2-2.4 2.8l-.9 1.7q-5.3-4.5-5.9-11.2l.3-1 1.8-4.2v-.2q2.7-5.3 6.8-8.5 1.8-1.3 2.6-.5m31.5-8-.2.2 14 15.2q-3.6-9.1-9.3-18-2.3-.2-4.5 2.6l3.5-4.8zM68 45l-.5-.8zm28.3 68.8v1.9l.4 4-2-.9q-3.7 1-4.4 3-.4 1.1.1 2.4l-.1.2-.8-.9-.2-.4.2-1.5q2.2-13.4 0-27.4l.1-.2v.2l.1-.2 2.4 1 .4.2zm-54-57.1 1.3 1.4zm1.4 1.5.4.5zm10.1 8.4.1.3zm14.5-1.2.1-.1-.2 1.2z"/><path fill="#4a2924" d="m69 14.9 1.6-.7-.2 2.1-1.5.2q-1.7.5-3.4 1.8l-1.2 1.1 1.2.1q1.9.4 3 2.3l-.2 4.6-2 5.2L66 33l-1.5 2.1.7.2-.7-.2-1.9-.4q.7 1.4-.4 3v.1l-.6.5-1.6 1.3.4.8-.4-.8-.1-.2-1-2-4.8 7 1.4.8 2.7-.9.6-.2-2.2-1.2 2.3 1.1 2.9-1 1.3-1-2.1.2h.3l-1-1.8 4.9-5 .3-.4 3.4-7.7.6-3.9-.9-1.6.9 1.6.3 1 .1-3.4h-.4l.3-.3h.1l.9-.8q1.5-1.1 3-1.6l1.8-.4.2-1.9-2.5-1.5.5 3.8 1.8-.4-.2 4.5.3 5.5v.5l.2 1.2q.4 3.7 1.4 7.3l-.8 1.7-.6-.3-1.7 1.4-2-1.1 2-1.8 1-4.3-.8-8q-1.3-2.9-3.7-3.4h-1.2l.3-.4h.1v-.8l.6-3.6-1.5.2zm2.6 24.4q-.1 1.2-1.6 2.6l-.5.1-2.4.9-.6-1.3 2.7-.2z"/><path fill="#381f1d" d="m70.6 14.3 2.7.2.4 3.8q-1.5.5-3 1.6l-.9.7V20l.6-3.6zM82.4 9l1.2 1.3-2 2.2-.7-4.3L82 9zm1.1 16.4 1.3 3-1.8.6zM95 59.8 82.5 47.9l-.5-.4 2.3-.2-.5-.9zM69.8 21h.8q2.4.5 3.7 3.4l.8 8-1 4.3-2 1.8-.8-.6.2 1.3-2.4 2.1-2.7.2-1.9-3.7q0 2.4-1.5 4.1l-2.1.2h.3l-1-1.8 4.9-5 .3-.4 3.4-7.7.6-3.9.3 1zm-2.2 28.5 13.3-1.8-4 8.1-6.9 7.5v.1l-.5.5-.1-1 .5.5-.5-.5-1.7-11.1zm3-23.9V25zM49 102.4l-.6 3.2-1 4.8-.4-.7.6-3.7.3-1.8-.1-.6zm-.6 3.2-.8.5z"/><path fill="#b56f73" d="M84.8 28.5h.2zm-1.8.6.1-.3zm35.8 76.2-.4-1.6h.3zm4.9-11.3 2.4 1.2-.1.2zm15.9 15.5-.7.6zm-49.9 14-.2-.3zm-72-83.3 2.2 1.6-.1.2zm111.5 77.1h-.2zm5.5 3.6-.2-.1zm-72.5-83-.6.5zM12.6 59.3l.3.1h-.4zm0 .1h.4l-.4.2zm8 15.9.2.1zm31.6 28.4.1.8-.5 3.3-.5.2zM30.7 141h-.2zm-2.5-1h.2z"/><path fill="#814a3d" d="m100.9 61.9-3.5.1-.3-.4-2.1-1.9-11.1-13.3h-.1l-.6-1.6-1.2-2.2-.5-1.3.7-.8zM95 57.4 82 42.6z"/><path fill="#522e27" d="M82.5 48q-2 4-3.2 9.8l-.2 1.6-2.4 6.8-.7.4-3.7-.8 3.7.8.7-.4-2.7 7.6q5.4 2.9 7.4 6.1l-5.6-2q-1.6-1.6-3.7-2.8-3.8-2.3-5.7-1.7-.7.2-1.7.8.3-.8.1-1.4-.4-1.5-2.5-3l-.5-2.7 3.8 1.3.9-2.1.8-2.4 1 .2v-2.2l-.1-3.6q-.3 3.1-1 5.6l1.2.2-.2 1.3v1l-2.5 4 2.2.5 2-.8 3.3-6.7 3.7-7.6 4-8.1 1.1-.2zm-10.3-9.3 1.8 1.1 1.8-1.4.6.3.8-1.7q-1-3.6-1.5-7.3l-.1-1.2 5.1 8.1-5.2 6.1-7.9 1.5L67 43l2.5-.9.4-.1q1.5-1.4 1.6-2.6l-.2-1.2zm2.7 1.6-.9-.5zm-8 31.1 1-.4zm29.9 48.3q5.4 2.5 11.3 4.4l1.9.5-3.3.5 3.3-.5 2.8-.4.2-.1 4.1-2.8.6 1.1 5.8 1.9 3.4-1.3 2.7 1.2 1.3-.2 4.7 2.2 3.3-2.9-2.5 4.1-2.8 5q-24.5-1.8-43.2-10.6.7-2 4.4-3zm-88.4-72 2.6-1 .2.5v1.5l.1 1.5.2 2.3 1.1.8 1.5-1.9 1.5 2.1L18 55l1.5-3.9L19 49l1.5-1.3.7 1.4.6 1 .8 1.5-.8-1.5 3.4 3.3-1.8 4.2-1 2.4-.5 1.1-7.1 2.7-.2.3-.9.2-1 .1-.2-.5-1.3-.6-1.6-.2.4-2.3.9.7v-.2h.6l1.9.2-.7-1.2-.3-.7.4-.2-.3-.1-3.7-2zM27.7 69l3 14.2q5.1 4.3 10.4 8l-.4 4.1-25.1-17.9-1.6-3 1.8.9h4.8v.2l.2-.2 4.8-4.4zm38.7-37.4-.5 1.3-1.5 2.1-1.9-.4q.7 1.4-.4 3-1 .9-2.1 1.6h-.2l-1-2-1.2-2.2q-.4 1.8-1.7 4.1l-2-.1-.6-2.3zM45.7 56.7q3-1.6 6.1.2 1.8 1 2.7 2.9l-1.6-4.2q-1.1-2.6-3.3-4.5l.8-.8h2.1Q53.8 56 57 60.8l-1.6.8-8.4.2-2.2-2.5.6-1.5-1.1.8H44zm-1.5 1.9-.3.3zm.6.7 2.2 2.5 8.4-.2 1.6-.9q1.7 2.6 4.1 5v.1h-.7l-2.4.1-4 .6h-.1l-.6.2q-1.9 0-2.9 1.2l-.8.6q-4.8-.7-5.7-6.6v-.1zm20 10.5.8-1.4zM13.2 55.2l.4 4.7-.8.5.8-.5zm2.2 5.5 1-3 2.5-1.7-2.5 1.7zm-1.7 2 .1 1.6zm17.2 22-.3-1.3zM51 147.4q1.8 2 2.6 3.4l-2.9 2.6-.1.1q-2.5.3-2.9-1.4l.7-1.9 2.4-2.6z"/><path fill="#4b2924" d="m79 59.4-.7 5.6-.3 5.4 1.8 1.1q5.3 3.3 8.5 7.5l.2.1-1 1v.2l-3.6 5.5-11.5 1.5 1.1-.4q5.9-1.6 6.1-2.5.3-1.1-1.7-4.1l-2.1-2.5 5.6 2.1q-2-3.2-7.4-6.1l2.7-7.6 1.6-1.2-1.6 1.2zm-2-3.6-3.7 7.6-3.3 6.7-2 .8-2.2-.5 2.5-4 .2-1.2-.2.1.2-1.2v-2.2l1 1 .1 1 .5-.5h3.2H70zm19.8 41q-.8 8.5-.4 16.9l-3.7-18.6 2.4 2.2zm-31.4 1.8-.8.2-3 3.8-.6 4-.2.5 1.5-.7 4.2 5.2 3.9 5.1-2-.8-3.7-.5-8.2-.6 4.3-3.2v-4.5l-3 1.4-2.5 3.7-.5.2 2.5-11.6 4.4-3.7zm7 33.6.1.9 3 .9.8.6L59 152l-3 3.8-.1.1q-3.8 0-4.9-2.4l-.1-.2 2.9-2.6q.8 1.3.8 2l5.9-4.3q3.4-2.2 4.2-3.2 1.2-.7 5.1-8.6l.7.4zm-35.5 14.3.7-2 2.4-2.6.2-.2.1-.2 5.9-10.5q.3 3.7 1.1 7.2.9 3.3 2.3 6.6l-1.3 1.5-3.2 4H45q-3.3-.3-4.9-2.4l-.1-.2-.2.1q-2.5 0-2.9-1.4m4.3-55.1q1-10.4-.6-21.2l5 5-.3 1.2q-.7 2.7-.4 5.3l.5 3.6.2 2.5 1.6 1.7q.2 4.7.9 9.3l-.3.4q-1.6 2-3.2 2.2h-1.3q-1.5-.5-3.1-2.5l.6-3.4zm36.9-20v-.9zm6.8 11.2.9-.7 1.8-1.5-1.8 1.5zM68.2 58.3l-.5-6.5 1.7 11.1-1-1zm-14.3 8.2 4-.6 2.4-.1h.7l5.5.5-1 2.1-3.7-1.3.5 2.7-1.4-.9q-3.3-1.9-7-2.2zm14 2.4.3-2.3v-.2.2zM60.5 100l4-1.2zM44 144l-1.1 1-.4-2.2.4 2.2zm-1 1-3 2.7z"/><path fill="#98584b" d="m83.8 46.4.5.9-2.2.3-1.2.1-13.3 1.8-3.5.5q-5.3 2.8-6 10.3-4.1-4.8-5.6-9.9v-.1l-.2-.5-.4-2.2-.1-.2-.5-2.8 2.5 2.6z"/><path fill="#63372e" d="m88.5 79.1 2-2.8q1.6-2.9 3-6.7 1-3 2.7-.4 3.6 4.8 6 9.6l.4.6v.1l2.3 6q-1.7 3.9-3.5 6.6-2.5 2.1-5.7 2l-1.7-.2-7.3-2.5-6.5 2.6q6.3-.9 9.5-.1v.2l-2.2 1.2-2.1.9-9.5.6-1.5-2.2 1.8-.5-1.8.5-.2-.1-.3.1-2.6.4-6.6-3.9 2.6-.4 1.2-2.5 1.2-.3 2.5-.6h.2l11.5-1.5 3.5-5.5.1-.2 3.6 3.8 3.8-.5 1.3-.1 2.7-.4h.1l2.6-2.4-2.6 2.4h-.1l-2.7.4-1.3.1-3.8.5-3.5-3.8zm28.7 32 .1-.7.1-.1 4.2-.1 2 .3 2.3-1.9-.6 2.3-.1.4-.5.5-3.3 3 1.6.8 3.5-.5 2.6 2.1-.2.1-4.2 2.3-3.5-.7-5.3-2.7zm8.8-8.2-2.2 2.7-1.8-.2-.4-.9.1-1.4.6-1.5v-.1l3.6-6.2.1-.2 6.7 3.3-.1.4-.1 5.5 1.2 2.4 4.3-3.1 2.7 2v2.9l-1.2.9-.7.5-6 4.4-3.6-4.1-.1-.1 1.6-1.2-2.2-7.3-.5-.4-.4-.4zm13.4 11.6 3-1 .8 6.5-1.1 1.9h-1.8l-5 .1-.8-1.2h.1v-.1l-.1-4.6v-.2zM112 246.6l1.6-11.7q7.1-1.7 11.3-7.3 2.2-3.1 3.6-7.3 2.7-8.2 2.3-20.6v-10.5l.2-45.4 1.6.9-.2 45.3-1.6-.8 1.6.8v15.3-.5q.2 6.6-.7 12.4-1 6.9-3.4 12.4l-1.5 3-.1.2q-5.1 9-14.7 13.8m-6.7-39.9.7-11.7q8.9-2.9 12.5-13l1.4.8v.1l-.7 3.3v.4l-.5 2.7q-3.6 11.9-13.3 17.4m-6.2-77.5q-.6 1.6 0 4-7.4-1.8-6.9-7.4l5.9 1.1 2.1.5q-.8.8-1.1 1.8m-32.8-17.5q5 3.1 4.9 7.2l3 7.8-2.3 1.4.9 2.5-.6 1.6-1.8 4.8-.7-.4q-4.2 5-11.5 5.2-5.5 0-8-4.7-3-5.6-1.8-17.7l2-2.2.3-.1q1.4-1.2 3.2-2l1.2-.2.6-.1h.6l4.3-3.2v-4.5l-3 1.4-2.5 3.7-.5.2-5.1 2.7-2.2-4.7 1-4.8.6-3.2.2-1.6.1-.9.8-4.2-1.4-4.5.5.5-.2-.5q-.3-1.6 1.5-3.4 1-.7 2.8-.7 1.8-.2 3.6 1.8l.9 1.5q1 2.4.1 5.3l3.7 1.4-4.4 3.8-2.5 11.5-5.1 2.7-2.2-4.7-.4-.7.6-3.7.3-1.8-.1-.6 1.2-1.2.2-1.6-1.7 1.3-2.2 6.3v.1l-.2.6-.2 1.3.2 2.2q-7.5-4.8-15-7l.6.8.6 4.7.2 1-.1.3.4.1 2.8.8-2.7-.7-.1-.1-.4-.1v-.3l-.1-1-.6-4.7-.5-.8q-8.9-2.5-17.7-1-1.2 2-1.7 4.5l-.1.4h.2q3.3 17.4 12 17.4 4.3-2.2 9.5-2.7v-.4l-1.6-2.9 1.7 3-.1.3 8.2.3-1.9 1.6 6 1.5.9.3.3-1.2-.3 1.1.3.2v-2.7q.3-1.7 1-3.2l-1.6-1-11.8-1.5-1.2-2.2-1.5 3.5-.1.3-.4-.6-1.7-2.2-1.4-1.6 1.4 1.6 1.6 2.2.5.7.1-.4-.6-.3.6.3 1.5-3.5 1.2 2.2 11.8 1.5 1.6 1 1-1.8-.3-.7q-2-4.2-2.5-7 .6 2.8 2.5 7l.3.7.6-.9 2-2.2v3.8l.3 1.1q1.2 2.7 7.6 3h.4q6.7-.5 9.5-2.5l.7 7.3.4.8.6 2.5-.3 2.2v1l.1.1v.1-.2l-.1-1 .3-2.2-.6-2.5-.5-.8-.6-7.3q1.1-.8 1.7-1.8l-5.4-5.4 3.8.5 1.9.8zm-32.1 34-2.3 1.7-.7-2.8-.5-3.6-.7-4.3 1.2.3-.7-3-1.1-7.4-.9.3.5 3.5 1 6.3 1.2.3v.2q1.2 4.4 3 8.5M21 157l-2.5 2.6q-.7-6.1-.7-12.1l2 3-2-3V145l-2.6-.1v-.7h2.7l-.1-10.6 1 .9q-.2 8.3 1 16zM5.5 69.1 4 65.6l2-1.5-5.2-3.8L1 58l3.7-4.6.2 4.7H5l4.9 2.6.2.1-.2-.1L5 58.1l3.9-.9 3.7 2.1-.1.1v.2l.3.6.7 1.3-2-.2-.1-.2-.2-.2v.3l-.1.1-.1.2-1-.7-.3 2.3-2-.4L6 64l1.8-1.3 1.9.3 1.6.3 1.3.6.3.5.9-.2.9-.2.2-.2 7.1-2.7.5-1.1 1-2.4 1.8-4.2-3.4-3.3-.6-1-.7-1.4L19 49l-2.9 2.6-1.8-.6-.3.5-1.5 2-1.1-1-.2-2.2.5-3 .4-.2 2.3 1.7.8-1.4-.8 1.4-2.3-1.7-.4.1-.5 3.1-.1-1.5v-1.5l.3-3.1 3.9 3.1 4.3-5.4.1-.1 6.2 4.5-.2.3 3.2 7.8-.3 5.1-.5 9.1-.5.5-2.1 2-4.6 1 .1-1 1.8-3.7v-.2L20.2 65l-.4 1.5-2.5.5-6 1.3-.1.1-4.7-2.6-.5 2zm70.3 8.8 2 2.4q2 3 1.8 4.1t-6 2.5q-15.7 1.6-14.1-7.2H59l.8-1.1 1.1-1.2.8-.8 3-2.4q1-.6 1.7-.8 1.9-.6 5.7 1.7 2.1 1.3 3.7 2.8m-11-3.7-3.1 2.4-.8.8-1.1 1.2-.8 1q-8.1 5.2-10.3-2.2l-.1-.3q-.3-3.6.6-7l.5-1.3-.1-.2-.1-.1q-1.5 1.2-2.4 2.8l-.9 1.7-.7 2-.3 1.3q-.7 2.7-.4 5.3l.5 3.6q3.2-1.2 7-.6t6.7 3.7q1.4 1.6 2.3 3.3.8 1.4 1.1 2.8Q66 97 76 96.8l-1.6-2.2-.2-.1-.3.1-2.6.4-6.6-3.9 2.6-.4 1.2-2.5-7.5 1h-.5l-3.3-5 .4-1.9-1.6 1-6 .8q-1-2.9-1.3-6.7l-.1-.3q-.3-3.6.6-7l.5-1.3.1-.1.5-.8q1-1.2 2.9-1.2l.6-.2.1.3q3.7.2 7 2.1l1.4.9q2 1.5 2.5 3 .2.6 0 1.4m36.9 6.2q-4.2-10.3-5.9-6.6-1.1 2.3-4.4 6.3 6.4-5.5 10.2.4l.7 1.1zl.9-.9zM95 84.9l-.1-1.5zm4-2 .3.8-3-.4 3 .5zm-9.3 11-.1.2zm9.5-10.2.9 2.7-.3 2.5.3-2.5zm-25.3 11h.5zm16.8 30-.3-.3.1-.2zm37.5-25.8-.3 1.6-.3.4.3-.4zm1 3.6-.7-.7zm-10.5 11.1 2.7 1.4zm8 27.8 1 .6-6.7 35.6-.1.2-1.5.2zm7-34.5-3 2.2zM61.5 38.3l-1.6 1.3-.1-.2h.2l2-1.7zm-3.4 6 .6-.2 3-1.1q-1.1.7-2.6 1.2l-.4-.2.4.2zm6.6 46.8-3.4.5zM53.2 66.7h.7zm8 14.1 3.3 2.6q3.1 2.5 12.5-2.2-3-3.8-8.8-6.9-2.8 0-5.8 2.1l-2.1 2.5zm2.6-8.2q-4.5-4.2-10.3-5.1-4.2.8-4 6 2.3 8.8 14.3 0zM14.5 48.8l-.3 1.3.2 1-.2-1zm-2 10.6-2.5-.3 1.3 1.8-1.3-1.8zM10.7 65l2.2-.6zm11.8-5 3.4 1.5 2.8-2-2.8 2zm6.3 50.3 2.5.8zm2.7 2-.8 1.6-2 4.4 2-4.4zM49 91.2l.2.5-.5-.5-1.6-1.8-1.6-1.7zm3.2 12.6-.2-1.2zl-.9 4.2.5-.2.5-3.3zm-.5-1.6-1.4-.4-.6-2 .6 2zm18.6 14.3.2.1.8 2.1-.8-2.1zm1.4 10.8.3.6-1.1 1.3-.8 2.8-.7-1.5.7 1.5.8-2.7 1-1.4zm-40-15-1.1 1.5zm100.7 92.3v-1zm-.7 12.4-3.2 3.1zm-3.5 12.3-3.4-2zm-3.1-.9 1.6 3.9z"/><path fill="#a96252" d="M101.5 92.1q-2.3 3.4-4.8 4.7l-1.7.5-2.4-2.2-.4-.2-2.4-1h-.1q-3.2-.8-9.5.1l6.5-2.6 7.3 2.4 1.7.3q3.3.1 5.8-2m-16.1 4.1-3.2 1.3-5.3.6-9.5 1.2-1.7-.6-.4-.2-3.7-1.4-3.7-1.3q1-3-.1-5.4l1.5 1.5 2-.3q.8 1.4 1.1 2.8Q66 97 76 96.8l.9 1.3-1-1.2zm-45-26-.2-.3q-.5-4 .1-8 .6 6.6 6 11.1l-.8 2zm33 16.8-1.1.3-.2.1-2.5.6-1.2.3-7.5 1h-.5l-3.3-5 .4-1.9-1.6 1-6 .8q-1-2.9-1.3-6.7 2.1 7.4 10.3 2.2l.5.2q-1.6 8.7 14 7.1m-12.2 4.7-2 .3-1.5-1.5-1-1.5q-1.7-2-3.5-1.9t-2.8.8q-1.8 1.8-1.5 3.4l-3.5-3.5-.2-2.5q3.2-1.2 7-.6t6.7 3.7q1.4 1.6 2.3 3.3m-2.3-12-1.4 2.8z"/><path fill="url(#a)" d="M36.2-11.1H41l-.1.1-2.9.4zm5.5 110.9.5-3-6-14.6-.2-.4-1.4-3.3-1.5-3.9q2.1-1 4.1-2.3 7.1-4.9 11.2-14.9l.7-1.7.9-3-.2-.2.6-3.4.5.3L53 43v-8.4l.1-.5 4.9-26 1 .6V54l-8.1-4.7L53 43v-8.4l-2.7 14.5.5.3 8.1 4.7v10.5q.4 12.5-2.4 20.6L53 88.7h-6.2l-.6-.4.6.4h6.3l3.4-3.5q-1.4 4.2-3.5 7.3L50.7 91l-3.9-2.4 3.9 2.4 2.3 1.4q-4.2 5.6-11.4 7.3M34 59.9l.5-10.1-3.1-10.4-.1-.4-.8-2.5v-.1l3.8-3.6-.1-1.2 1.6-8.2q9 .6 12.2-4.1 2.3-3.5 4.2-11.5l.7-2.7 1.9 1-7.3 36.6-7.9.7-4.8-2.4-.5-8.2.5 8.3 4.9 2.3 6.8 3.5Q43 57 34 59.9m-1.2-52v-.2l.3-.4-2.7-6.1L27.2-6q.4-1 1.2-1.7Q34.9-6.2 41.3-4l7.4 3 .4.3 3.4.4-.8 3.5-.2.9q-1 4.6-2.2 7.8l-.1.3-1.7 3.5q-1 1.5-2.2 2.6l-.4-.8-1-3.9-4.1 1.2zm-64.6-1.4-5.9 4h-.1q-1.8-4-3-8.4v-.2l-.7-3-1.1-7.3 2-.7h.6l.3-.1q2.7-.5 5.6 0l.9.2 6 1.5 1.1 1.1.2 2.3-5.9 10.5-9-4.4 9 4.4zm-9.8 7q-4 3.1-7.5 6.6l-1.9 1.8-1.2-6.5q-1.2-7.7-.9-16 2.5 1.9 6 2.3l-.4-2.9q-.1-3.5 1.6-5.7l.1-.1.3-.1 1.2 7.6.7 4.5-.2-.2V5l.9 3.8.6 2.4zm72-12.3L41.3-4zm-75.7-46.3-.2-1-.4-2.1q4.6 3.2 8.7 7 4.4 6.2 2.1 10.7-3.7-1.6-7.5-2.8-1.5-5-2.7-11.7m-4.1-1.8 2.8 1.1.6 3.6 1.8 8.3-1.7-.5-1.6-.5zm-4.8-2.1 2.6 1.1 1.9 12.5-4.4-1zm5.1 69.2-3-4.8zM44 13.7l5.1-1.4zm6.6 36 .2-.4zm-7.7 30-3.7-3.2-1-2-1.1-2.2 1.1 2.3 1 1.9zM31.4 39.4l3.4 1.6zm6.9 35.2-3.7 3.9zm3.1-21.2.6-1.7-.8 1.5zM53 88.7l-2.3 2.4zm-6.9-.4-10-6.1zM-47.3-1.2l3.1 1.7z" transform="translate(71.95 135.1)"/><path fill="#c1715f" d="m117.1 121.2-2.3-4.7v-.2l4 4.3 8.4 1v.5l1.5.2-1.8.6-3.4 1.3-5.8-1.9zm-17.9 12q.3 1.3 1.1 3.1-9.2-4.4-10.7-12.9l.8.9.3.3.6 1 1 .2-1-.2-.6-1-.2-.5q-.5-1.3-.1-2.3 18.7 8.7 43.2 10.5l-2 3.3-7.1-.7-3.4-.5-.4-.2-7.5-3q-6.4-2.2-12.9-3.7l-2.1-.6-5.9-1.1q-.5 5.6 6.9 7.4m-41.7 29.6-5-2.6-4-1.8-.1-1-1-4.3.4-1q.4 1.6 2.9 1.3l.3.1q1.1 2.3 4.9 2.4h.1zm-11-5.5-5-2.5-4-2-1.1-5.2.4-1q.4 1.3 2.9 1.3l.3.1 1.5 6.8L40 148q1.6 2 4.9 2.3h.1zm-32.1-28.9q-4.1-8.8-3.7-18.7h.2q3.3 17.4 12 17.4 4.3-2.2 9.5-2.7l-.1 1.5-.4.2-.5.1-2 .6-.9.3-2 1-.3.1-.1.1q-1.8 2.3-1.6 5.8l.4 2.9q-3.5-.5-6-2.3l-1.1-.9q-1.8-1.7-3-4.4zm-.2-49.5-.5-.4-1-4.4-1.3-.6-.8-.5-5-3.7L6 68l.9 1 3.9 2.5 1.7 1H21v-.1l4.6-1.2-4.8 4.4h-5l-1.8-.9-1.3-.6 1.3.6 1.6 3 25 17.9-.5 3.3q1.6 2.1 3.1 2.5l-1 .2q-3.5-4.2-7.5-7.8-4.1-3.7-8.7-6.9l-1-.7zM46.9 122l1-1.7.6-.9q-1.2 12.1 1.8 17.7 2.5 4.7 8 4.7 7.3-.2 11.5-5.2-3.9 7.8-5.1 8.6-.8 1-4.2 3.2l-6 4.3q0-.7-.7-2-.9-1.4-2.7-3.4L50 146l-.5-1.2q-1.4-3.3-2.3-6.6-.9-3.5-1.1-7.2l-.2-2.3v-3.4q.3-1.7 1-3.2m-24 8.7 3.2-2.7zm9-4.9.4-.2.1-1.5 8.2.3-1.9 1.6-.9-.2q-2.8-.5-5.5 0zm.4-.2v.2zm20.2 34.6-1.5-6.8z"/><path fill="#8a4f42" d="m114.8 116.3 2.4-5.2-1.3 5.1 5.3 2.7 3.5.7 4.2-2.2.6 3 1.8.6v1.5l-2.6-.2-1.4-.2v-.1l-.1-.5-.2-1.9 2.5.8-2.5-.8.2 2-8.4-1zm7.2-11-1.5 2.8-1.2-.7-.5-2.2v-3.1l.4-.2 2.5 1.2-2.5-1.2-.4.2v1.6h-.4l-.3-4.5v-.1l4.3 2.4-.1.1-.6 1.5-.1 1.4zm16.8 4.6-5 4.8-4.4 2-2-2.8 1.8-3.8 3.7 4.1zm-4.3 10.8-2.7-.8.2-3 2.6-.8.1 4.6zM6 67.7l.5-2 4.7 2.6-.4 3-4-2.5z"/><path fill="url(#b)" d="m53.9-26.5.1-5.7 1.6-2 .4.3.5.4 2.3 7.4-1.6 1.1v.1l-1.8 3.8 2.1 2.8 4.4-2 5-4.7-.9 2.4 1.4 2-4.9 1.5v.1l-2.6.9-.1 3 2.7.7v.1l.9 1.2h5L66.9-12l-3.3 3-4.6-2.3-1.4.2-2.6-1.2 1.8-.7 2.5.3v-1.5l-1.7-.6-.6-3 .3-.1-.1-.1-2.7-2-3.5.4-1.5-.8 3.3-3 .5-.4v-.5z" transform="translate(71.95 135.1)"/><path fill="#875347" d="m118 99.1 3.7-6.2 1.9 1 2.3 1.4-3.6 6.2zm-106.6-55 4.5-5.5 1.6 1.5 2.1 1.8-4.3 5.4z"/><path fill="#7b463d" d="m136.5 127.4-.4 17.5-2.2.6-1.3-.8-1.6-1-1-.5-2.3-1.4-1-.6-1.9-1-1.3-.9.2-.9.8-3.6 7.1.8 2-3.3zM14.3 82.6l-.1-3.9L25 86l1 .7.4 2 .2 1.1-1.4-.5-2.7-1.2-2.2-1-2.6-1.1-1.3-.6z"/><path fill="#a35f4f" d="m136.1 145-.2 59.6-.8.7h-2.2 2.2q-1.3.8-2.2 0l-.5-.5v-14.9l.2-45.2 1.3.8zm-120.9-.7-.8-1.7v-14.3l.4 1q1.2 2.7 3 4.4v10.7zm112.5-2.5 2.2 1.3-4.8 26.2-.1.4-2.7 14.5-.7 3.4q-2.4.8-2.1-1.2l-.2-.2.6-3.2v-.2l1-5.2v-.2z"/><path fill="#c87462" d="M135 205.3h.9q-.4 42.4-33 47l-1.2-2q5.6-1.4 10.3-3.7 9.6-4.7 14.7-13.8l.1-.2 1.5-3q2.4-5.5 3.4-12.3.9-5.9.8-12.5v.5h.4q.8.8 2.2 0m-30.2 4.4-.7.3-1.2-2 2.3-1.2h.1q9.7-5.6 13.3-17.6l.8-2.8q-.3 2 2.1 1.2l.3.2-1 3-.7 1.7q-4 10-11.1 14.8-2 1.4-4.2 2.4m-73-62.3-1.5 1.1-.7-2.2-.6-2.5-1-3.7h.3q-.5 1.1 2 .9l.8 3.6zm-13.4 12.2-2.3 2.7q-1.7-9.5-1.8-19.1l.8 1.7h2.7l-.1 2.1v.5q0 6 .7 12.1"/><path fill="#7b463a" d="M102.4 171.5 98 156.8q5.5 1.4 9.8 1.7l-1.7 8.2.1 1.2z"/><path fill="#884e41" d="m98 156.9-2.3-.7-.6-1.3 4 .9q12.6 2.5 18.2-2.3 1.2-1.1 2.1-2.6l1.7-3.5.1-.3q1.2-3.2 2.3-7.8l1.3.8-.6 2.8q-2 8-4.3 11.5-3.2 4.6-12.2 4.1-4.2-.2-9.7-1.7M14.3 102V82.6l2 2.8 1.4.6v12.6q-2 1.5-3.4 3.3m12.3-12q1.1 6.7 2.6 11.6l-1.5-.5-1.8-8.2-.7-3.5zm-4.1-1.7 1.8 12-2.1-.5-2-12.5z"/><path fill="#60352c" d="m99.1 155.8 5.7-12.8 7 7 4.1-1.2 1 3.9.3.8q-5.5 4.8-18.1 2.3"/><path fill="#5d332b" d="m60.9 106.6-.1.5h-.1z"/><path fill="url(#c)" d="M4.3-.5 7.4 2l-.9 4.2-3-2.2v3.2l-.2-.1-8.3 9-5 5.4-.3.3v.9l-.1 5.6-3.7-.7h-.2l-1.5-6.7v-.1l3-3.9zm-27.9 22.9-1.6-.3-.2-.1-1.6-6.7V15l3.3-3.9 1.2-1.5.6 1.3 1 1.2-.2.3-2.4 2.5-.6 2-.4 1zm-27.7-82 .1-.1-.1.2zm5.9 52.5v-.2l2-.9.4 3.5L-41.4 6q-2.5.2-2.1-1l-.7-4.4zm4 13L-43-4.6l1 6.1.7 4.4zm14.3-13.4.8.3.3.3-.2-.3.3.1v.7zm15.6 30.8 1.2-1.2z" transform="translate(71.95 135.1)"/><path fill="#c2715f" d="m66.9 151.2-5.4 6.7v-.7l.3-.6-.3.6v-.3l.3-.3zm-9 11.6h-.3v-.1zm-11-5.5h-.3v-.1zm9.1-1.2h.1zm-5-2.7.1.3-.3-.1zm-5.9-2.8.1-.2v.2zm60.5 56.4"/><path fill="#7c4b43" d="m12.5 104.6 1.8-2.7q1.4-1.8 3.4-3.3l4.5 1 2.1.5 1.7.5 1.7.5 1.5.5q3.8 1.2 7.6 2.8l1.3.6q3.6 1.5 7.1 3.5l-.1.6-.2 1.3.2 2.2q-7.5-4.8-15-7l-2.1-3.3-2-1.7 2 1.7 2.2 3.3q-8.9-2.5-17.7-1m89.1-24.1q-3.8-5.9-10.2-.5 3.3-3.9 4.4-6.2 1.7-3.7 5.9 6.6l.5 1.2zl.1-.1zm-45.2 34.3 8.1.6h.1l5.4 5.4q-.6 1-1.7 1.8-2.8 2-9.5 2.5h-.4q-6.4-.3-7.6-3l-.2-1.1v-3.7l.1-.2q1.5-1.2 3.3-2l1.2-.2.6-.1zm-.6 0 8.6 3.5 3.8 3.5.1.8-.1-.8-3.8-3.5z"/><path fill="#7c473c" d="M4.7 53.4 4.5 49l2-.6 1.9-.5.5 9.5L5 58zm6.6 14.9 6-1.4 2.4-.5.5-1.5 2.7 2.3v.1L21 71.1l-.1 1v.2h-8.5l-1.7-1z"/><path fill="#774740" d="M49.5 51.1q2.2 2 3.3 4.5l1.6 4.2q-1-1.9-2.7-2.9-3.1-1.8-6.1-.2l-1.9 1.4 1.8-3.6q1-1.9 3.2-3.4zm-5.8 7-.1.1z"/><path fill="#824f45" d="m61.3 80.8-1-1.9 2.1-2.5q3-2 5.8-2 5.8 3 8.8 6.8-9.4 4.7-12.5 2.2zm2.6-8.2v.8q-12 9-14.3 0-.2-5 4-5.9 5.8.9 10.3 5"/><path fill="url(#d)" d="M-35.2-30.7q2.3-4.5-2.1-10.8 4 3.6 7.6 7.8l1-.1h1.2q-2.8 2.8-6.4 3.7z" transform="translate(71.95 135.1)"/><path fill="url(#e)" d="M-54.2-36.4v-.1m27.5 9.9q-3.6-2-7.2-3.5 3.6-.9 6.4-3.7 1.6-.2 3.2-2.2l1.7.9-.1.8-1.7 1.3zM-45.5-7.2v.1h-.3zm-.3.3h-.1zM-32 12.8l-.2-.1.1-.1z" transform="translate(71.95 135.1)"/><path fill="#73474b" d="m30.7 141 .5 3.6-.7-3.6zm-2.5-1h.3zm93.4 47.6.3.2zm-2.3-1.3.2.1-.8 2.8.5-2.6zm-5.9 2.1-.1-.2.8-1.6z"/><path fill="#7a4539" d="m111.6 178.5 7.8-.7-.7 3.6-.2.5z"/><path fill="#5d322b" d="m119.9 182.8-1.4-.9.2-.5.7-3.7 1.5-.1z"/><path fill="none" stroke="#150d0f" stroke-linecap="round" stroke-linejoin="round" stroke-opacity=".8" stroke-width="__RESOLUTION__" d="m82.8 7.2-.8-.8V6L71.9.8 68.5 6l-.9 1.8-.7 1.9q-1.4 3.4-1.7 6.8l3.8-1.6 1.6-.7 2.7.3 2.4 1.5-.2 1.9-.2 4.5.3 5.5v.5l.2 1.2q.4 3.7 1.4 7.3l-.8 1.7-.6-.3-1.7 1.4-2-1.1 2-1.8 1-4.3-.8-8q-1.3-2.9-3.7-3.4h-1.2l.3-.4h.1l.9-.8q1.5-1.1 3-1.6l1.8-.4m6.6-9 .3.3 1.2 1.3-2 2.2-.7-4.3zl.3.2m.3-1.9 3 3.1-3.3 6v1.1l.9 3.5m0 .2.2 4.4 1.3 3h.2l-.7 2.6 2.5 3.5.2-.2 1.8 1.5 15 25.8-3 .1-3.3.3-.4-.5M95 59.7 82.5 48q-2 4.1-3.2 9.9m-.2 1.6q-.5 2.6-.8 5.6l-.3 5.4 1.8 1.1q5.3 3.3 8.5 7.5l.2.1h0l2-2.8q1.6-2.9 3-6.7 1-3 2.7-.4 3.6 4.8 6 9.6l.4.6m-29.3-65 .4 3.8m1.8 9.6.5-.6m7 1.6-.1.3h.1zl.5-3.4m1.3 3-1.8.6-.4 2.9m-.5 15.5 2.2-.2-.5-.9h0m-32.5-1.8.5 2.8v.1l.5 2.3.2.5m0 .1q1.5 5.1 5.7 10 .5-7.6 5.8-10.4l3.6-.5 13.3-1.8 1.1-.2.5.4m.8-8.5-.2.2m.2-.2 3.5-4.8M74 39.7l.8.5m7.3.3-.7.8.5 1.3L95 57.3M67.6 44.1l.5.8m12.8 2.8-4 8.1-3.7 7.6-3.3 6.7-2 .8-1 .4M82 42.6l1.2 2.2m19.4 34.8 2.3 5.8q-1.7 4-3.5 6.7-2.2 3.4-4.7 4.7-.8 8.5-.4 16.9m.2 1.9q0 2 .3 4 5.4 2.5 11.3 4.4h4.9l4.1-2.8-2.3-4.7v-.2l2.4-5.2.1-.7.1-.1 4.2-.1 2 .3 2.3-1.9v-5.7l-2.1 2.7-1.8-.2-1.5 2.6-1.2-.7-.5-2-.4-1.6-.3-4.5v-.1l3.6-6.2 1.9 1 2.4 1.2 6.7 3.3-.1.4-.1 5.5 1.2 2.4 4.3-3.1 2.7 2v2.9l-1.2.9-.7.6-.9 2.5 1.5 2 3-1 .8 6.5-1.1 1.9h-1.8l-1.4 1.3-2.5 4.1h.1l-.4 17.6-.2 59.7-.8.7h.8q-.4 42.4-33 47l-1.2-2q5.6-1.4 10.3-3.7l1.6-11.7.5-3-6-14.6m-.2-.4-1.4-3.3-1.6-3.9-.7.3m-1.2-2 2.3-1.2v-.1l.7-11.7.5-10.2-3.2-10.4m0-.3-.8-2.5m-.1-.2L98 156.9l-2.3-.6-.6-1.3 4 .9 5.7-12.8m0-.2.2-.4-2.7-6.2-3.1-7q-.6 1.6 0 4 .3 1.3 1.1 3.1-9.2-4.4-10.7-12.9l-.2-.3h0l.2-1.5q2.2-13.5 0-27.5l-2.1 1.2-2.1.9-3.2 1.3-5.3.6-9.5 1.2-1.7-.6-.4-.2-.8.3-3 3.8-.6 4-.1.5 1.5-.7 4 5.2.2.1q4.9 3.1 4.8 7.2l3 7.8-2.3 1.4.9 2.5-.6 1.6.1.9 3 .9.8.6 3.2 2.4-.9 4.3m-3.1 1-.2-.1-8.3 9-5.1 5.4-.3.6v6.2l-3.7-.7h-.3l-5-2.4-4-2-.1-.9-1.6-.2h-.3l-5-2.5-4-2-1.1-5.2.4-1 .7-2 2.4-2.6.2-.2.1-.2 5.9-10.5-.2-2.3-1.2-1.1-6-1.5-.9-.2q-2.8-.5-5.5 0h-.4m-15.7 36.3q-1.7-9.3-1.8-19l.8 1.7v-.7l-.8-1.7v-14.3q-4.1-8.8-3.7-18.7v-.4q.6-2.5 1.8-4.5l1.8-2.7V82.6l-.1-3.9-.5-.4-1-4.4-1.3-.6-.8-.5h0l-5-3.7L4 65.6l2-1.5-5.2-3.8L1 58l3.7-4.6-.2-4.5 2-.6 1.9-.5h0l2.6-1 .2.5.3-3.1h0l4.5-5.6 1.6 1.5 2.2 1.6 6.2 4.6-.2.3 3.2 7.8-.3 5.1-.5 9.1-.5.5 3 14.2q5.1 4.3 10.4 8 1-10.4-.6-21.2l-.3-.2q-.5-4 .1-8l.3-1.1 1.8-4.2m0-.2q2.7-5.3 6.8-8.5 1.8-1.3 2.6-.5m26.2 23v.9m-2.2 6.5 2 2.5q2 3 1.8 4.1t-6 2.5l-1.2.3-.2.1-2.5.6-1.2.3-7.5 1h-.5l-3.3-5 .4-1.9-1.6 1-6 .8q-1-2.9-1.3-6.7l-.1-.3q-.3-3.6.6-7l.5-1.3.1-.1.5-.8-.8.6q-1.5 1.2-2.4 2.8l-.9 1.7-.7 2-.3 1.3q-.7 2.7-.4 5.3l.5 3.6.2 2.5 3.5 3.5q-.3-1.6 1.5-3.4 1-.7 2.8-.7 1.8-.2 3.6 1.8l.9 1.5q1 2.4.1 5.3l3.7 1.4 3.7 1.5m22.2-18.3-1.8 1.5-.9.7m-9-4.7q-1.6-1.5-3.7-2.7-3.8-2.3-5.7-1.7-.7.2-1.7.8l-3 2.4-.8.8-1.1 1.2-.8 1-1.4 2.8m30-2.3-.1.2m1-1.2-1 1m5 15 2.5 2.2 1.7-.5M80.2 94q6.3-1 9.5-.2h.1l2.4 1m-2.4-1-.1.2m2.6 31.7-1-.2-.6-1-.3-.3-.8-.9-.2-.4m1.1 1.1q-.5-1.3-.1-2.3.7-2 4.4-3.1l2 1m-6.3 4.4.2.5m9.6 2.8-2.1-.5-5.9-1.1m8 1.6q-.8.8-1.1 1.8m10.8-4.7-3.3.5m1.4-1 1.9.5 2.8-.4.2-.1m25.8-14 .7-.6m-.7.6-5 4.8-4.4 2-2-2.8 1.8-3.8-.1-.1 1.6-1.2 3-2.2m-5.7-5.5-.4-.4-1.6 2.1m-2.4-9 2.3 1.4m-4.2 7.8-2.5-1.2-.4.2v3.1m3.5-3.7-.6 1.5-.1 1.4.4.8m5.6-4.5.3-.4.3-1.7m.3 3 .7.6m-4 9-.5.5m-3.3 3 1.6.8 3.5-.5 2.6 2.1.1.1h-.2l.5 3.1 1.8.6v1.5l-2.6-.2-1.8.6 2.7 1.2 1.3-.2 4.7 2.2 3.3-2.9m-11.7-1.7v.6l1.5.2m.8-1.9-2.5-.8.2 2m7.2-.9-2.7-.8.2-3 2.6-.8v-.2l4.9-1.4m-18 .3-2.7-1.4m8.2 9.5-3.4 1.3-5.8-1.9-.6-1.1m3.6 13-7.5-3q-6.4-2.2-12.9-3.7m24.2 7.3-3.4-.4m13.3-13.7.8 1.2h5m-5.7-1.2-.2-.1m2 6.6-2.8 5-2 3.3-7.1-.7-.8 3.5-.2.8v.1l1.3.8 1.9 1.2 1 .5 2.2 1.3 1.1.7 1.6.9 1.3.8 2.2-.6m-10.2-36.3-.6 2.3m-57-84.5.3-4.6q-1.2-1.9-3.1-2.3h-1.2l1.3-1.2q1.6-1.3 3.3-1.8v-1.6m1.5 1.4-1.5.2m1.7-2.2-.2 2-.5 3.6m-.5 3.5-.9-1.6m-.2 4.6-2 5.2L66 33l-1.5 2.1.7.2.3-.3 3.4-7.7.6-3.9.3 1m-5.3 10.7-1.9-.4q.7 1.4-.4 3-1 .9-2.1 1.6l-.2.1.1.2 1.6-1.3.6-.6m-2.2 2 .4.7 4.8-5M70.7 25l-.1.6m.9 13.7q-.1 1.2-1.6 2.6l-.5.1-2.4.9.6 1.2m4.6-5.5-1-.6.3 1.3-2.4 2.1-2.7.2.6 1.3m-4-.9q1.5-1.7 1.5-4.1l1.9 3.7m-6.7-2.2-1-2-1.1-2.3q-.4 1.8-1.7 4.1l-2-.1-.6-2.3m5.5 7.3-2.3-1.2m3.5-3.6h-.2m1.4 2.8-1-1.7m-7-3.6-.1-.6 15.2-9.8M61.7 43l1.3-1-2.1.2m-1.8 2-.4-.2m.4.2q1.5-.5 2.6-1.2M58 44.3l1-.1m-7.9 0V44l2.1-1.2 2.6-3.6m1 21.5q-3.2-4.7-4.5-10.4l-.1-.5m15.9 8.5-.5-6.5-.1-2.3M50.3 67.9q1-1.2 2.9-1.2l.6-.2h0l4-.6 2.5-.1h.7l5.5.5.8-2.4q.6-2.5.9-5.6l.2 3.6v2.2l-.2 1.3v1.2l-.3 2.3M61 65.7q-2.4-2.4-4.1-5m-16.4 9.4 5 5m21-8.8-1 2.1-.7 1.3m0 4.5q.2-.8 0-1.4-.4-1.5-2.5-3l-1.4-.9q-3.3-1.9-7-2.2h-.7M19.7 41.9l-2.1-1.8m-6.3 10.2.5-3 .4-.2 2.3 1.7.8-1.4h0m3.8 1.6.4 2.2-1.5 4-2.4-1.6-1.5-2.1-1.5 2-1.1-1-.2-2.2-.1-1.5v-1.5m7.9 1.7-2.9 2.6-1.8-.6-.3.5m.3-.5-.2-.9.3-1.3m-1.6 10.6-.3-.1-3.7-2m3.6 2.1h.4l-.4.2.3.6.8-.4-.4-4.7m5.7.8-2.5 1.7-1 3m6.5-10.5.8 1.5m-8.9 12.6.9-.2.2-.2 7.1-2.7.5-1.1 1-2.4m-2.2-8.5-.7-1.4L19 49M8.4 47.8l-1.9.5M5 58.1l4.9 2.6.2.1h0l-.2-.1m-5-2.6-.2-4.7m5.4 7.4.9.7v-.2l.2-.1v-.3L10 59.1l2.5.3M9.7 63l-2-.3L6 64m19.6 7 2.1-1.9m-14.8-8.8.7 1.2-2-.2h-.4m.5 0-.2-.2-.2.1m.2-.2h-.2m-1.1-.2-.4 2.3 1.6.2 1.3.6.3.5.9-.2v-1.6m7.2 9.6v-.1m-.4 3.1h.2l4.8-4.4m-5 4.4v.2l.2-.2m-8.1-1.5 1.3.6 1.8.9h4.8m20 20 .5-4.1M17.7 86l-1.3-.6-2.1-2.8m16.4.7.3 1.3M10.6 72.8l.8.5m1.5-8.9-2.2.6m15.9 24.8q1.1 6.8 2.6 11.8 3.8 1.2 7.6 2.8 2.3-4.5-2.1-10.8-4.1-3.7-8.7-6.9l.4 2zm-1.4-.5L22.5 88l1.8 12 1.7.5 1.7.5-1.8-8.3zl1.4.5M25 86l-10.8-7.3m11.8 8-1-.7m-7.3 0 2.6 1.1 2.2 1m-4.8 10.5 4.5 1 2.1.5m-6.6-1.5V86m0 12.6q-2 1.5-3.4 3.3m13.4-.9 1.5.5m15.9 11.1-.2-2.2.2-1.3.1-.6q-3.5-2-7.1-3.5l-1.4-.6M20.3 87.1l2 12.5m8.6 21.3-.1.3-.4-.6-1.7-2.2-1.4-1.6m3.6 4.1 1.5-3.5 1.2 2.2 11.8 1.5 1.6 1 1-1.8-.3-.7q-2-4.2-2.5-7m-27.3 21 1 .9q2.6 1.8 6 2.3l-.3-2.9q-.2-3.5 1.6-5.7l-3.2 2.6m-8.5-2.6.4 1q1.2 2.7 3 4.4v10.7h-2.6M26.5 128v-.2l-.3.2-.1.2v-.1h0m.4-.1 1.2 7.5.7 4.5q-.5 1.2 2 1L29 130.4l-.5-3.5zm2-1 .9-.3 2-.5m13.3 1.5.9.3.3-1.2v-1.4q.3-1.7 1-3.2m2.1-31 .2.5-.5-.5 1.4 4.5-.7 4.2-.2.9-.2 1.5-.6 3.3-1 4.8 2.2 4.6v.1l5.1-2.7.5-.2 2.5-3.7 3-1.4h0m-8.7-4.5.2 1.3.1.7-.5 3.3-.5.2.9-4.2m4.2 10.9 8.1.6h.1l3.8.5 1.9.8-4-5m-1.8-12.9-4 1.2M47.2 89.4q.2 4.7.9 9.3l-.3.4 1.6.8m-.1.9-1.7 1.3-2.2 6.3v.1m3.7-6.2-1.2 1.3v.6l-.2 1.8.8-.4m-4-4.3h-1.2l-1 .1q-3.5-4.2-7.5-7.8m12.9 12.5-.6 3.6.4.7m-3-9.1q1.7-.2 3.3-2.2m-7-3.7-.6 3.3q1.6 2.1 3.1 2.5m-5.1 3.8q3.6-.9 6.4-3.7m6.1 15.7q1.5-1.2 3.3-2l1.2-.2m.6-.1h.6m-7.9 4.6 2-2.2m-2.6 3 .6-.8m21.3 17.2v-.2m-.4-5.7-.5-.8m-23-1.7-.3-.3.3.1v-1.3m0 1.5v-.2m0 .7v-.5m25.4-9.2-.8-2.2-.2-.1m-1 14 .8 1.5.8-2.7 1-1.4-.2-.6m-18 23.2q.9 1.3.9 2l5.9-4.3q3.4-2.2 4.2-3.2 1.2-.7 5.1-8.6l.7.4 1.8-4.8M56 155.9l3-3.9m2.5 5.2v-.3l.3-.3m-.3.6-1.2 1.2m-17.8-15.6.4 2.2 1-1m5.6.8q-1.4-3.3-2.3-6.6-.9-3.5-1.1-7.2m3.4 13.8.5 1.2 1.1 1.3q1.8 2 2.6 3.4l-2.9 2.6.2.2-.3-.1q-2.5.3-2.9-1.4l.7-1.9 2.4-2.6.2-.2m-9.6 7.3L40 148l-.3-.1q-2.5 0-2.9-1.4M40 148l-.1-.2-.2.1m11 5.6.1-.2m-3-1.2-.4 1.1 1 4.3m2.6-3.9 1.5 6.8m-7.4-10 3.2-4m-1.7 10.8-1.5-6.7m1.8 6.8-.3-.1m-6.6-9.4 3-2.7m14.6 17.7L56 156m1.8 6.7h-.3M30.7 141l.5 3.6.7 2.8m-3.7-7.4h.3m-.2 0 .9 3.8.6 2.4.7 2.2m0-7.5.8 3.6M17.8 147v-2l-2.6-.1m2.6 2.6q0 6 .7 12.1m106.4-19.4-.7 2.8q-2 7.9-4.3 11.4-3.2 4.6-12.2 4.1-4.2-.2-9.7-1.7m23.1-9.4-1.7 3.5q-.9 1.5-2.2 2.6-5.5 4.8-18.1 2.3m24.4-16.5q-1.1 4.6-2.3 7.8m-1.3 35.7 1-5.2m0-.2 6.8-35.6m-2.7 28-2.7 14.4-.7 3.4.3.2-1 3-.7 1.7q-4 10-11.1 14.8-2 1.4-4.2 2.4m25-66.5-4.8 26m7.9 36.1h2.2q-1.3.8-2.2 0h-.5v-.5q.2 6.6-.7 12.4-1 6.9-3.4 12.4l-1.5 3m-.1.2q-5.1 9-14.7 13.8m20.4-56.6.2-45.3m-13.4 41.9-.5 2.7.8-2.9q-.3 2 2.1 1.2m10.8 2.3v14.9l.5.5m-.5-.5v.5m0-1.5v1m-27 2q9.7-5.6 13.3-17.6m.5-3 .7-3.2" vector-effect="non-scaling-stroke"/><path fill="none" stroke="#150d0f" stroke-linecap="round" stroke-linejoin="round" stroke-opacity=".3" stroke-width="__RESOLUTION__" d="m75.3 22.4 1.5.6v-1.2m6.5-.9v.2l-1.9 2.1h-.2V26m-2.9 39.2.7-.5m2.3-40.5-1.6-.8h-2.2l-.7-.3m4.5.3h-1.6m22.9 56.1-.9.9-.1.1L99 83h-.1l-2.7.4-1.3.1-3.8.5-3.5-3.8m14.9 91.5-.1-.2 3.8-3.6-.1-1.2 1.7-8m-3-15.6v-.2M42.4 56.6v-.2m34.3 9.8-.7.4-3.7-.8m4.4.4 1.6-1.2m16.6 18.4L95 85m1.3-1.6 3 .5-.3-.9m.8 6 .3-2.5-.8-2.7m-30.8 4.5-1.2 2.5-2.6.4 6.6 3.9 2.6-.4.3-.1.2.1 1.8-.5M76 97l-1.6-2.3h-.5m3 3.5-1-1.2m-14.6-5.3-2 .3-1.5-1.5m55.4 40.8-10.9 5M44.1 58.7l.6.7 2.2 2.5 8.4-.2 1.6-.9M43.7 58v.1l.4.5m-.4-.6-1.4-1.4m19 35 3.4-.5m4.7-28.2-1-1m0 2.2-1.2-.2m2.2-1 .5.5m-41.2-3.9-2.8 2-3.4-1.5m7.7 45.6.5.8.6 4.7.2 1-.1.3.4.1h0l2.8.8m-4.4-7.7-2.2-3.3-2-1.7m6.4 23.7v-.5l-1.6-2.9-.6-.3m1.1-9.5-2.6-.7m-.1 8 2-4.4.8-1.6m0 13.6h.5l.4-.3.1-1.5M49.7 100l.6 2 1.4.4m3.5 12.5h.6l8.6 3.5 3.8 3.5.1.8.7 7.3m.8 6.5-.1-1 .3-2.2-.6-2.5M32.2 126v-.2M30.7 114l1.1-1.5m-12 38-1.9-3v-.5m2 3.4 3 4.8m83.4 12.7.5 8.2m4.9 2.4 7.8-.7 1.5-.2v-.2m.3-30.3-.1.3-5.2 1.4 1 3.9.3.8m-1.3-4.7-4.2 1.1-7-6.9m20.4 26.3-.1.4v8.4l-2.2 6.3-.2.4m-13.5 22.5 1.2 2.3.9 2 3.8 3.3m-8.5-1.3 3.8-4m16.5 23-.1.2m1.8-12.5 3.3-3m-13.7 6.1.7.4h6.2l3.5-3.5m-1.7 12.3-1.6-3.9m-2.5-2.5 2.3-2.4M70 63.3l3.2.1" vector-effect="non-scaling-stroke"/><path fill="none" stroke="#150d0f" stroke-linecap="round" stroke-linejoin="round" stroke-opacity=".4" stroke-width="__RESOLUTION__" d="m108 217.3-.2-.4m-4.5-42.5v-.3m-72.1-37 9 4.3m-9-4.4-1.2-.3m76.8 39.4 4.8 2.4 6.9 3.4 1.4.9v.1m2.8 1.5 8.1 4.8 1.6.8m-10.2-5.8.5.3m-16-8.4-3.4-1.7m21.6 53.2 3.4 2m-3.4-2-2.2-1.4-4-2.4m-10.6-6.5 10 6.1m-90.4-87.9-3.2-1.6" vector-effect="non-scaling-stroke"/></g><g id="r"><path fill="#443e28" d="m17 32.9 1.1-.2-1.4-1.1 12.5-21.1 3.5-1.8.3-2L36.3 2l16.9 8.3-2.4 3q-4.6 6-9.6 14l-2.5 4-3 5.3-.6 1-8-2.5 6.8 4.6-4.2 8.6-5-2.3-6.4 1.3-3.4 5.3 3 4.1 5.5-1.2 1.6 4.6q-1.7 4.9-2.9 9.7l-8.4-4.2v-.1l-.1.2h.1q-1.3 5.2-1.8 10.3l-.3 4.4q-.1 3.1-.6 7.6l7.9 4.3q-.1 5 .3 9.4l2.4 13.1q1.1 3 2.7 5.3l.5.8 1.3 1.5-17.2-8-.6-2-3-3.9-2.4-10L4 97l-1.6-1.7-.8-7.4 1.8-19.5 3.1-12.6 2.2-1.5-1-1.5 7.2-18z"/><path fill="#69603f" d="m16.7 31.6-1.2-.9 1.6-2.8 3.1-5.4 2.3-3.9q5.1-8.1 9.8-14.1l2.5-3.2 1.5.7-3.2 4.6-.4 2.1-3.5 1.8zm-7.8 82.9-1-.5-.3-.2-1.3-1.7-.5-.7Q4 109 3 106L.5 92.9q-.2-4.6 0-9.8l.5-5.8.7-6.2 2-10.5.1-.5Q6 51.5 9.9 42.4l4.2-8.9 3-.6-2.4 2-7.2 18 1.1 1.4-2.2 1.5-3.2 12.6L1.6 88l.8 7.4L3.9 97l-1 1.4 2.4 10.1 3 3.9z"/><path fill="#34301f" d="M34.8 1.3q1.6 0 2.4-.9l6.7 1.7 8.4 3 2.5 4.7 2.5 1.2L61 21.8q-1.6-.3-2.7 2.8l-.4-1v-.2l-4.5-13v-.2l-.1.1-17-8.3zm20 8.5q-.6.3-1.5.4.9-.1 1.5-.4m-18 30.4-2.9-.5-6.8-4.6 8 2.5z"/><path fill="#635b3b" d="m58.2 24.7-3.8 4.6Q50.8 33.8 47 40l-1.8 3-.8 1.3-3.7-1.7 1.4 5.8q-2.7 5-4.7 9.8-2.7 6-4.4 13.1l-.2 1.4-.9 3.7-.4 2.3-.9 4.9v.6l-.1.5-.5 4.4q-.1 4.2.2 7.6l1.9 10q.8 2.4 2 4l.4.6 1.1 1.4q1 1 2.2 1.6l1.6.9 1.2.4-14 7-.5-.2-1.3-1.6-.5-.7q-1.6-2.3-2.7-5.3l-2.5-13.1q-.4-4.4-.2-9.5l.2.1.8-.2v1.7l1.3 1.3 6.2-1.3 1.6-2.2.5-6.8 1.1-7.7 2-7.8-.5-1-3.9.8.4-1.4-6.5 2.1q1.2-4.8 2.9-9.7l1 .3-1.9 5.8.6 1.8 7.6-1.7 1.4-1.3.5-1.7L40.9 48l-1.2-5.4-2.8-1.5-2.7.4-3.6 7.1-.9-.4 4.2-8.5 2.9.4-1.7-2.6.6-1 3-5.3 2.4-4q5.1-8 9.7-14l2.4-3 .1.1 4.5 13v.2zm-5.1-11.2h-.8L46 22.4l-2.9 5 1.4 1.2H42l-5.1 9.1.8 1.6v.1l6.5 3.7 3-5.1 6.4-9.5 3.5-4.1zm-25.8 82-6.8 1.8-.6 1.1 2.6 15.6 1.5 4.2 2.1 2.8 11-5.6-2.3-1-2.9-4-1.7-5.9-1.5-7.9z"/><path fill="#797048" d="m53.1 13.4 4 10.9-3.6 4-6.5 9.6-2.9 5-6.5-3.5v-.2l-.8-1.6 5.1-9h2.4L43 27.2l2.9-5 6.4-8.9zM30.6 48.7l3.6-7.1 2.7-.4 2.8 1.5 1.2 5.3-6.7 15.3-.5 1.7-1.4 1.3-7.5 1.7-.7-1.8 2-5.8.2.1 4.8-2.9 1-6.3zm-2.4 20.4 4-.8.4 1-2 7.8-1.1 7.7-.5 6.8-1.6 2.2-6.2 1.3-1.3-1.3v-1.7l5.9-2q0-10.2 2.4-21m5.3-14h3l-.3-3.3-2.4 1.3zm-6.2 40.2 1.4 1.2 1.4 7.9 1.8 6 3 3.8 2.1 1.1-10.9 5.6-2-2.8-1.6-4.2L20 98.3l.6-1z"/><path fill="#696449" d="m30.7 48.7 1.3 2.6-.9 6.4-4.8 2.8-.3-.1 2.7-7.9zm2.8 6.4.3-2 2.4-1.3.3 3.3z"/><path fill="#58533d" d="m26 60.4-1-.3q1.5-4.5 3.5-9l1.2-2.8 1 .4-2 3.8z"/><path fill="#756b46" d="m22.1 69.8 6.5-2.1-.4 1.4q-2.4 10.8-2.4 21l-5.9 2-.8.3-.2-.2v-.5q.4-8.5 1.9-16L23 72l-1.4-.2z"/><path fill="#4b4734" d="m29.7 48.3-1.2 2.9q-2 4.4-3.5 8.9l-1.6-4.6-5.5 1.2-3-4.2 3.4-5.2 6.3-1.3z"/><path fill="#3e3824" d="m22.1 69.8-.5 1.9 1.4.2-2.2 3.8q-1.5 7.5-1.9 16v.5L11 88q.5-4.5.6-7.6L12 76q.5-5.1 1.8-10.3v-.2z"/><path fill="none" stroke="#000" stroke-linecap="round" stroke-linejoin="round" stroke-opacity=".3" stroke-width="__RESOLUTION__" d="m17 32.9 1.1-.2-1.4-1.1-1.2-.9 1.6-2.8 3.1-5.4 2.3-3.9q5.1-8.1 9.8-14.1l2.5-3.2q1.6 0 2.4-.9m17.6 9.4 2.5 1.2L61 21.8q-1.6-.3-2.7 2.8l-3.8 4.6Q50.8 33.9 47 40l-1.8 3-.8 1.3-3.7-1.7 1.4 5.8q-2.7 5-4.7 9.8-2.7 6-4.4 13.1l-.2 1.4-.9 3.7-.4 2.3-.9 4.9v.6l-.1.5-.5 4.4q-.1 4.2.2 7.6l1.9 10q.8 2.4 2 4l.4.6 1.1 1.4 5 2.9m-33-1.8L6.3 112l-.5-.7Q4 109 3 106L.5 92.9q-.2-4.6 0-9.8l.5-5.8.7-6.2 2-10.5.1-.5Q6 51.5 9.9 42.4l4.2-8.9 3-.6" vector-effect="non-scaling-stroke"/><path fill="none" stroke="#000" stroke-linecap="round" stroke-linejoin="round" stroke-opacity=".3" stroke-width="__RESOLUTION__" d="m37.2.4 6.7 1.7 8.4 3 2.5 4.7q-.6.3-1.5.4l-.1.1L36.3 2l-1.5-.7m-4.3 83.5-.3 4.4v7.5m10.4 18.9-14 7-.5-.2-17.2-8-1-.4h0l-.3-.2m-7-20.9Q0 88.4.2 83q.3-6 1.4-12m51.6-60.6v-.2m-.1.1.1.1 4.5 13m0 .2.4 1m-29.6 43-.4 1.5q-2.4 10.8-2.4 21l-5.9 2-.8.3-.2-.2L11 88q.5-4.5.6-7.6L12 76q.5-5.1 1.8-10.3h-.2.1v-.2h.2l8.3 4.3m14.7-29.6-1.7-2.6m.4 75.1q.9 1 2.1 1.6l1.6.9 1.2.4" vector-effect="non-scaling-stroke"/><path fill="none" stroke="#96885a" stroke-linecap="round" stroke-linejoin="round" stroke-width="__RESOLUTION__" d="m22.1 69.8 6.5-2.1" vector-effect="non-scaling-stroke"/></g><g id="q"><path fill="#a04545" d="M10.9 0q3.2.5 6.7 4.5l.7.9-.4.5q-2.4-4.1-5.7-4.8-.3.7.4 1.7l2.8 3.5Q9.5 7.5 7 4l.7-1.4Q9.2.4 10.8.1m8.7 7.3.6 1.5V9l-.6 2.5-2.6 1.2-1.1-.8-.5-2-1.4-.5-.9 1.2-1.7.6-1 1.5-2.6 1-.2-.1-2.5-2 .5-2.8q5.6 1.2 12-.2l1.9 2.8.1.1v-.3l-.6-3v-.1z"/><path fill="#672c2c" d="M10.9 0Q9.2.5 7.7 2.7L7 4q-1-1.2-2.1-.7l2-1.8Q9-.1 10.7 0zm-6 11.6L3.5 9.9l-2.6.6v-.3Q1.5 8.5 2.3 7l.5.6q.9.9 2.8 1.2z"/><path fill="#220d0d" d="M7 4q2.3 3.5 8.5 2.3l.8 1 1.1 1.3q-6.3 1.4-11.9.2-1.9-.3-2.8-1.2L2.2 7q.6-1.2 1.5-2.2l.7-.8.5-.7Q6 2.8 7 4m10.9 1.9.4-.5 1.2 2-.6.7z"/><path fill="#cd948c" d="m15.5 6.3-2.9-3.4q-.7-1.1-.4-1.8 3.3.6 5.7 4.8zm3.4 1.9v.2l.6 2.9v.3l-.1-.1-2-2.8z"/><path fill="#e2c2b9" d="m16.9 12.7-1.5.5h-.1l-2.2-1.5-2.8 1 1-1.5 1.7-.6.9-1.2 1.4.5.4 2z"/><path fill="#9a7e76" d="m17.5 8.6-1.2-1.3-.9-1 2.5-.4 1 2.2z"/><path fill="none" stroke="#000" stroke-linecap="round" stroke-linejoin="round" stroke-opacity=".3" stroke-width="__RESOLUTION__" d="m18.3 5.4-.7-.9Q14 .5 10.8.1l-.2-.1Q8.9-.1 7 1.5L4.9 3.3l-.5.7-.7.8L2.3 7Q1.5 8.5 1 10.2l-.2.3h.1l2.7-.7L5 11.7l2.5 2 .2.2h0l2.6-1.1 2.8-1 2.2 1.5h.1l1.5-.5 2.6-1.2.6-2.5V9l-.6-1.5z" vector-effect="non-scaling-stroke"/><path fill="none" stroke="#925e37" stroke-linecap="round" stroke-linejoin="round" stroke-opacity=".3" stroke-width="__RESOLUTION__" d="m10.3 12.7 1-1.5 1.7-.6.9-1.2 1.4.5.4 2 1.2.8" vector-effect="non-scaling-stroke"/><path fill="#a04545" d="M20.1 12.4v.3l.1.2.8 3.4q-2.2 0-4.4 2.9-.8 1-1.5 2.4-3.7 6.1-10.4.6L4 18.7q-.2-2 .2-3.3L7.5 17l.1.1L9.2 19l1.7.5 1.4-1v-1.8l1.2-1 1.7.7.2.1 4.2-1.6zm-1.7 13.7q-1.7 1.5-4.4 2.1-6 .3-7.2-1.3l-.6-.9-.5-.7 2.4.7 3.8 1q2.3.5 4.2 0l.4-.1z"/><path fill="#220d0d" d="M21 16.3v1.3l.1.4v1l-.2 2.3v.1q-.5 2.4-2 4l-.2.3-.3.2-1.8.9.7-.6.3-.3 1.6-2.1q.8-2 .8-3.2 0-1.4-.6-1.4-.4-.2-.8 1.2l-.7 2.4-1.3 3.1-.5.9v.1q-1.9.5-4.3 0l-3.7-1-2.4-.7q-4.1-1.7-4.6-1.1l-.5-1.4-.3-1.2q.6-2.6 4.4.6 6.7 5.5 10.4-.6.8-1.5 1.5-2.4 2.2-3 4.3-2.9"/><path fill="#756e50" d="m18.7 25.8-.2.2-.1.1z"/><path fill="#672c2c" d="m14 28.3-3.5.3-2.5-.2h-.3q-3.4-.5-5.2-2.4l-.3-.2-1-1.6q.4-.6 4.5 1l.5.8.6.9Q8 28.5 14 28.3M.3 21.6l-.2-1.9v-3.2l.6-2.7v.1l2.2-.6 1.4 2q-.4 1.2-.2 3.3l.6 3.6Q.9 19 .3 21.7"/><path fill="#63562e" fill-opacity=".3" d="m8 28.4.1.1z"/><path fill="#f8ebcf" d="M0 17.7q.1-2 .6-3.8l-.4 2.6z"/><path fill="#7b6c4d" d="m.7 13.9.2-.4z"/><path fill="#e2c2b9" d="M7.7 17H8l4.9-1.5.3.3-1 1v1.8l-1.5 1-1.7-.5z"/><path fill="#9a7e76" d="m16.2 27-.1-.1.5-.9 1.3-3.1.7-2.4q.3-1.4.8-1.2.6 0 .6 1.4 0 1.2-.8 3.2L17.6 26l-.3.3-.7.6z"/><path fill="none" stroke="#000" stroke-linecap="round" stroke-linejoin="round" stroke-opacity=".3" stroke-width="__RESOLUTION__" d="M20.1 12.4v.3l.1.2.8 3.4v1.3l.1.4v1l-.2 2.3m0 .1q-.5 2.4-2 4l-.2.3h0l-.2.2-.1.1q-1.7 1.5-4.4 2.1l-3.5.4-2.5-.2.1.1H8l-.3-.1q-3.4-.5-5.2-2.4l-.3-.2-1-1.6-.6-1.4-.3-1.2-.2-1.9v-2q0-2 .5-3.8h0l.3-.4m-.2.3-.5 2.7-.2 1.1m3-4.2 1.4 2L7.5 17m.6-.1 4.9-1.5m.3.3 1.8.7.2.1h0M8 28.4" vector-effect="non-scaling-stroke"/><path fill="none" stroke="#925e37" stroke-linecap="round" stroke-linejoin="round" stroke-opacity=".3" stroke-width="__RESOLUTION__" d="m13 15.4.3.3-1 1v1.8l-1.5 1-1.7-.5-1.4-2" vector-effect="non-scaling-stroke"/></g><g id="p" fill="#fff" fill-opacity=".1"><path d="M63.4 15.9q6.8 10.1 3 10.9-2.6 1.4-4 5.9-1.6 4.5-.2 9.3-.8 5.2-2.4 6.8-1.4 1.5-3.7 2.4-7.2 6-15.5 5.9l-14-1.1Q9.9 53.6 9.4 50.6T8.2 47l-8-14.7-.2-4q.1-3.7 1-7 6.4-4.4 4.9-8.7-.6-4 2.8-5.8 3.7-2 8.5-3 15-4 20-3.8t11.6 3.2q8.7 6.7 10.7 8 2.1 1.3 3.9 4.7"/><path d="M59.6 39.2q-.6 4.7-2.1 6.1-1.3 1.4-3.4 2.2-6.5 5.4-13.8 5.3l-12.6-1q-15-2.1-15.4-4.8-.6-2.7-1.2-3.2L4 30.5l-.1-3.6q0-3.2.9-6.2 5.6-4 4.3-7.8-.5-3.6 2.6-5.3Q15 5.9 19.3 5 32.8 1.4 37 1.6q4.5.1 10.5 2.8 7.8 6.1 9.6 7.2 2 1.2 3.5 4.2 6 9.1 2.7 9.8-2.3 1.3-3.7 5.3-1.3 4-.2 8.3"/><path d="M53.2 37.5q-.6 3.6-1.7 4.8-1 1-2.6 1.7-5 4-10.9 4l-9.9-.8q-11.6-1.6-12-3.7t-.9-2.6L9.6 30.7 9.4 28q.1-2.6.8-5 4.5-3 3.4-6-.4-2.9 2-4.2 2.6-1.3 6-2.1Q32 7.8 35.6 8t8.2 2.2l7.6 5.7q1.5.8 2.6 3.2 4.9 7.1 2.2 7.7-1.9 1-2.9 4.1-1 3.2-.1 6.6"/><path d="M56.3 25.5q-1.9 1-2.9 4.1-1.1 3.1-.1 6.5-.6 3.7-1.7 4.8L49 42.7q-5.1 4.1-10.9 4.1l-9.9-.8q-11.6-1.6-12-3.7t-.9-2.5L9.7 29.3q-.2-1.4-.1-2.7 0-2.7.7-5 4.4-3.1 3.4-6.1-.4-2.8 2-4.1 2.5-1.4 6-2.1 10.5-2.9 14-2.7 3.4.2 8.2 2.3 6 4.7 7.5 5.6t2.8 3.3q4.7 7.1 2.1 7.7"/></g><g id="l"><path fill="#ffc" fill-opacity=".3" d="M4.9 6.7q0-1.2 1-2 1.1-1 2.8-1t2.7.8 1.2 2q0 1.3-1.1 2.1-1 .9-2.7 1-1.6 0-2.8-.8-1-.9-1-2.1"/><path fill="none" stroke="#ffc" stroke-linecap="round" stroke-linejoin="round" stroke-width="__RESOLUTION__" d="M4.9 6.7q0-1.2 1-2 1.1-1 2.8-1t2.7.8 1.2 2q0 1.3-1.1 2.1-1 .9-2.7 1-1.6 0-2.8-.8-1-.9-1-2.1" vector-effect="non-scaling-stroke"/><path fill="#ffc" fill-opacity=".8" d="M9.7 5.9q-1.2-.7-.9-1t1-.4l1.4.4q.7.5.9 1.5.1 1-.7 1.6t-1.5.6.3-1q.8-1-.5-1.7"/><path fill="#ffc" fill-opacity=".8" d="m8.7 5.3.3.6-.3.5-.7.2q-.5.1-.7-.2-.4-.2-.4-.5t.3-.6l.7-.3zM7.3 7.6l.5.1.2.4-.2.4-.5.1-.5-.1-.3-.4.2-.4zm3 .3-.4.1-.5-.1-.2-.3.3-.3.3-.2.5.1.2.4q0 .2-.2.3"/><path fill="none" stroke="#ffc" stroke-linecap="round" stroke-linejoin="round" stroke-opacity=".8" stroke-width="__RESOLUTION__" d="M9.4 5.8q0 .5-.5.8-.3.3-.8.3-.7 0-1.1-.3t-.4-.7.3-.8l1-.3L9 5zm-2 1.6.6.2.3.5-.2.5q-.3.2-.7.2l-.6-.2-.4-.5.3-.5zm3.3.2-.2.4-.6.1h-.6L9 7.6l.2-.5.6-.2.5.2z" vector-effect="non-scaling-stroke"/><path fill="#ffc" fill-opacity=".2" d="M16.2 6.6q0 2.4-2.1 4.1-2.1 1.8-5.2 1.9T3.5 11 1.3 7t2-4.1q2.1-1.7 5.2-1.8 3.2-.1 5.4 1.5t2.3 4"/><path fill="#ffc" fill-opacity=".2" d="M17.6 6.5q0 2.8-2.5 4.8-2.4 2-6.1 2.1t-6.2-1.7Q0 9.7 0 7t2.3-4.8Q5 .1 8.6 0q3.7-.1 6.3 1.8t2.8 4.7"/></g><g id="k" fill-opacity=".1"><path fill="#feac29" d="M63.4 15.9q6.8 10.1 3 10.9-2.6 1.4-4 5.9-1.6 4.5-.2 9.3-.8 5.2-2.4 6.8-1.4 1.5-3.7 2.4-7.2 6-15.5 5.9l-14-1.1Q9.9 53.6 9.4 50.6T8.2 47l-8-14.7-.2-4q.1-3.7 1-7 6.4-4.4 4.9-8.7-.6-4 2.8-5.8 3.7-2 8.5-3 15-4 20-3.8t11.6 3.2q8.7 6.7 10.7 8 2.1 1.3 3.9 4.7"/><path fill="#feac29" d="M59.6 39.2q-.6 4.7-2.1 6.1-1.3 1.4-3.4 2.2-6.5 5.4-13.8 5.3l-12.6-1q-15-2.1-15.4-4.8-.6-2.7-1.2-3.2L4 30.5l-.1-3.6q0-3.2.9-6.2 5.6-4 4.3-7.8-.5-3.6 2.6-5.3Q15 5.9 19.3 5 32.8 1.4 37 1.6q4.5.1 10.5 2.8 7.8 6.1 9.6 7.2 2 1.2 3.5 4.2 6 9.1 2.7 9.8-2.3 1.3-3.7 5.3-1.3 4-.2 8.3"/><path fill="#feac29" d="M53.2 37.5q-.6 3.6-1.7 4.8-1 1-2.6 1.7-5 4-10.9 4l-9.9-.8q-11.6-1.6-12-3.7t-.9-2.6L9.6 30.7 9.4 28q.1-2.6.8-5 4.5-3 3.4-6-.4-2.9 2-4.2 2.6-1.3 6-2.1Q32 7.8 35.6 8t8.2 2.2l7.6 5.7q1.5.8 2.6 3.2 4.9 7.1 2.2 7.7-1.9 1-2.9 4.1-1 3.2-.1 6.6"/><path fill="#feac4d" d="M56.3 25.5q-1.9 1-2.9 4.1-1.1 3.1-.1 6.5-.6 3.7-1.7 4.8L49 42.7q-5.1 4.1-10.9 4.1l-9.9-.8q-11.6-1.6-12-3.7t-.9-2.5L9.7 29.3q-.2-1.4-.1-2.7 0-2.7.7-5 4.4-3.1 3.4-6.1-.4-2.8 2-4.1 2.5-1.4 6-2.1 10.5-2.9 14-2.7 3.4.2 8.2 2.3 6 4.7 7.5 5.6t2.8 3.3q4.7 7.1 2.1 7.7"/></g><g id="j"><path fill="#635b3b" d="m51.2 32.4 4.6-4 .5-2.6-1.4-2.6-3.4.3 1.9-3.6-3.5-5.1-6.7-3.5-1.8.5-3.5 12.9.6 2.1 3.8 2.5-1.1 1-1.2-.7q-2.1-1.4-4.1-2.3l4.5-19L51 13.9l3.9 6-1.7 2.4 2.9-.9 5.7 13.2 1.9 12.6-.7 1.3 1.5 5.9L63 69.2l-4 11.1-.7 4-2.2 3-1.2 3.8L44 96.6l2.1-6.4.6-1.1q3.4-6.3 5-13l1.4-.8q1.3-4.5 1.4-10.5l.1-4-1.3.6v-1.3l-.1-1.3-.5-4.4v-.1l-1-6.2 1-1.6.8 3.8 1.7 1.5 6.3-2 1-2.9-1.7-11.3-2.4-5.3-1.7-.4-5.4 4.5zm12 20.3-.7-.9-7 1.9-1.6 3 .3 2.6 1.3.6-.7 13 5.6-.2 1.7-4.7zm-8.6 22-1.8 2.8-6.7 15.8v1.3l8-4.6.4-3 3-3-.2-3.2 2.7-6.5z"/><path fill="#797048" d="m42.3 29.3-3.8-2.5-.6-2.1 3.5-12.9 1.8-.5 6.7 3.5 3.5 5-1.9 3.7 3.4-.3 1.4 2.6-.4 2.7-4.7 3.9-.2-.8-.4-.2-.4-2.1-1.5-.2-3.4-3.7-2.3.7zm9 5.1 5.4-4.5 1.6.4 2.5 5.3 1.8 11.3-1.1 2.9-6.3 2-1.7-1.5-.9-3.8 1.5-2.2-.7-8.3zm-6-16.1h-.1l-.9 3.6 1.9 1.6 2.6-2.5v-.1L47.5 18zm11.3 23.5 1.8-2.4-2.6-1.8zm6.5 10.9L62 68l-1.7 4.8h-5.6l.8-12.9-1.5-.5-.2-2.7 1.6-3 7-1.9zm-8.7 22 5.4-.5-2.7 6.6.2 3.2-3 3-.4 3-8 4.6v-1.3l6.7-15.8z"/><path fill="#5b5740" d="m51.2 32.4.1 2-1.1 1-.9 2.9 3 6.7.4 1.5-1 1.6q-1-3.8-2.3-6.9h-.2v-.5l-2.2-4-.4-.5q-1.7-2.6-3.9-4.5l-1.5-1.2 1-1.1.6.4 4.1 4.4 1.9.3z"/><path fill="#2f2b1c" d="m51.7 48 1 6.3.4 4.5.1 1.3.1 1.3 1.4-.6-.2 4q-.1 6-1.4 10.5l-1.4.8q-1.6 6.7-5 13l-.2.3-8.9 7.2-11.9-6.3 4-9.3 4.4-5.7-.6-2 2.1-5.5 1-1.5-.1-4.3 1.8-5.1 1.1.1-.4-3-2.2-1.2-.6-7.4.8-1.7-3-5.6-1.7-8-4.4-6.5 5.4 2.4-.1.2h.1q1.6-.9 2.6 1 2 1 4.1 2.4l1.2.8-1.5 1.4 4.9 7.4-.1 4.7zM21.5 20.7v.2zm31.8 40.7L39 54zm-1.5 14.7-16.1-8.2z"/><path fill="#867a51" d="M46.2 90.2 44 96.6h-6.4l8.9-7.2z"/><path fill="#95937b" d="m54.8 91.1 1.2-3.7 2.1-3.2.8-3.9 4.1-11 1.5-14.9-1.5-6 .6-1.2-1.8-12.6-5.7-13.2-2.9.9 1.7-2.4-4-6-10.5-5.4.4-1.6q3.7 1.5 7.5 3.9l3.5 2.6q3.2 2.8 5.6 6.6 1.6 2.5 3 5.4l-.1.7h.3q3.1 7.3 4.4 17.1v.1l.5 5.9.2 1.6v5.5q-.5 18-9.4 34.1z"/><path fill="#34301f" d="m40.4 8.4-4.5 18.9q-1-2-2.6-1.1V26l3.6-20.4q1.8 2.7 3.9 1.2z"/><path fill="#696449" d="m42.3 29.3.7-3.2 2.4-.7 3.4 3.7 1.5.2.3 2 .4.3.1.8-2.4 2L47 34l-4-4.4zm3.2-11 2-.2 1.4 2.8v.1l-2.6 2.5-1.9-1.6.9-3.6zm7.1 28.2-.2-1.5-3.1-6.7.9-2.9 1.1-1 2 1.6.8 8.3zm4.1-4.7-.7-4.2 2.6 1.8z"/><path fill="#282517" d="m15.7 5.9 2.6-1.7.6-1.9 3-2 15 5.3L33.3 26l-5.4-2.4-6.4-2.9-.9-.3-3.9-2.1-.3-3 .4-1.2-1.2-1.6z"/><path fill="#443e28" d="m21.5 20.7 6.4 2.9 4.4 6.5 1.7 8 3 5.6-.8 1.6.5 7.5-1-.5-1-.5v-.5l-.1-1.2-.4-4.4v-.1q-1-7.5-3.7-13.1l.1-.5-2.2-4.2q-1.9-2.8-4.3-5zm14.3 31.6 1 .5L39 54l.4 3-1.1-.1-1.8 5 .1 4.4-1 1.5-1.2-.6q1.3-5.5 1.4-11.1zm-2.4 14.4 1 .5 1.3.6-2.2 5.5.6 2-4.4 5.7-4 9.3-3-1.5 3.4-4.9.7-1q4.6-7.8 6.6-16.2"/><path fill="#454230" d="m41.2 30.4 1.5 1.2q2.2 1.9 4 4.5l.3.5 2.2 4.1v.5h.2q1.3 3.1 2.3 6.9l-7.2-4.2.1-4.7-4.9-7.4z"/><path fill="none" stroke="#000" stroke-linecap="round" stroke-linejoin="round" stroke-opacity=".3" stroke-width="__RESOLUTION__" d="m51.7 48 1 6.3h0l.4 4.5.1 1.3.1 1.3 1.4-.6-.2 4q-.1 6-1.4 10.5l-1.4.8q-1.6 6.7-5 13l-.6 1.1.4-.9.3-.2M44 96.6 54.8 91l1.5-.8m-15.9-82-4.5 19q2 .9 4.1 2.3l1.2.8 1.5 1.2q2.2 1.9 4 4.5l.3.5 2.2 4.1v.5h.2q1.3 3.1 2.3 6.9M36.8 5.6 21.9.4l-3 2-.6 1.9L15.6 6m0 6.6 1.2 1.6-.4 1.2.4 3 3.8 2 .8.4h.1l6.4 2.9 5.4 2.4 3.6-20.4h0m3.5 2.8.4-1.6m-5 45.5-1.1-.5v-.5l-.1-1.2-.4-4.4v-.1q-1-7.5-3.7-13.1l.1-.5-2.2-4.2q-1.9-2.8-4.3-5l-2.7-2-.7-.4-3.9-1.7v-.4m16.5 7.9q1.6-.9 2.6 1m-2.6-1V26m2.5 26.3 1 .5L39 54l14.3 7.4m-20 5.3 1.1.5 1.3.6 16 8.3m-26 14.2-3-1.5M44 96.6h-6.4l-11.9-6.3" vector-effect="non-scaling-stroke"/><path fill="none" stroke="#000" stroke-linecap="round" stroke-linejoin="round" stroke-opacity=".3" stroke-width="__RESOLUTION__" d="M40.8 6.8Q38.7 8.3 37 5.6m3.8 1.2q3.7 1.5 7.5 3.9l3.5 2.6q3.2 2.8 5.6 6.6 1.6 2.5 3 5.4l-.1.7h.3q3.1 7.3 4.4 17.1v.1l.5 5.9.2 1.6v5.5q-.5 18-9.4 34.1M34.4 67.2q1.3-5.5 1.4-11.1v-3.8m-13 36.5 3.3-4.9.7-1q4.6-7.8 6.6-16.2" vector-effect="non-scaling-stroke"/><path fill="#514b37" d="m12.8 5.7 1.3 1.1 1.2-.7 4.2 1.5 5.3-1.9-.7 2.6-5.9 2H18l-.3-.2-2.5-.7-.6-.3-7 2H7L2.2 9.5 0 7h.8l1.4 1.1L5 6.2l3.6 1.2z"/></g><linearGradient id="f" x1="-819.2" x2="819.2" gradientTransform="matrix(.01 -.03 .02 0 20 9.35)" gradientUnits="userSpaceOnUse" spreadMethod="pad"><stop offset="0" stop-color="#4e5b18" stop-opacity=".1"/><stop offset=".6" stop-color="#ff0" stop-opacity=".1"/><stop offset="1" stop-color="#5d7712" stop-opacity="0"/></linearGradient><linearGradient id="e" x1="-819.2" x2="819.2" gradientTransform="matrix(-.02 .04 -.02 -.01 80.6 69.4)" gradientUnits="userSpaceOnUse" spreadMethod="pad"><stop offset="0" stop-color="#db806c" stop-opacity="1"/><stop offset="1" stop-color="#552e26" stop-opacity="1"/></linearGradient><linearGradient id="d" x1="-819.2" x2="819.2" gradientTransform="matrix(0 0 .02 .01 -14.25 -28.15)" gradientUnits="userSpaceOnUse" spreadMethod="pad"><stop offset="0" stop-color="#db806c" stop-opacity="1"/><stop offset="1" stop-color="#552e26" stop-opacity="1"/></linearGradient><linearGradient id="c" x1="-819.2" x2="819.2" gradientTransform="matrix(.03 0 0 .02 -40.6 -17.4)" gradientUnits="userSpaceOnUse" spreadMethod="pad"><stop offset="0" stop-color="#db806c" stop-opacity="1"/><stop offset="1" stop-color="#552e26" stop-opacity="1"/></linearGradient><linearGradient id="b" x1="-819.2" x2="819.2" gradientTransform="matrix(.01 0 0 .02 20.75 -.2)" gradientUnits="userSpaceOnUse" spreadMethod="pad"><stop offset="0" stop-color="#db806c" stop-opacity="1"/><stop offset="1" stop-color="#552e26" stop-opacity="1"/></linearGradient><linearGradient id="a" x1="-819.2" x2="819.2" gradientTransform="matrix(.04 -.08 .02 .01 -77.8 18.65)" gradientUnits="userSpaceOnUse" spreadMethod="pad"><stop offset="0" stop-color="#db806c" stop-opacity="1"/><stop offset="1" stop-color="#552e26" stop-opacity="1"/></linearGradient><path id="h" fill="url(#f)" d="m31.5 3 3 5.5L24 5.3l-5.7-1.8L22.7.1q4.9.2 8.8 2.9m4.3 11.2L29 12.5 16.7 15 32 20l3.5.9-.9 4-1.2-.3q-5.2-1.1-10.4-3l-13.3-5-.2-.2-6.1 1.3 1.9-2.8 4.1 1.5 7.3-1.4-1-.3L7.6 12l5.7-5.3 3.9 1.5q5.2 2.2 10.8 4l1 .3 6.3-1.2.3 1.5zM1.6 22.4l1.2-2.9 3.2.8 10.5 2.6 9.9 2.6 7.6 1.4-1.1 2.8-.5-.1-7-1.2-6.7-1.7q-6.4-1.8-12.9-3.3zm12.3 10.1h-1.4q-.7-.6-.8 0l-1 .1-.7-1v.1l.5.9h-.1l-.5-.2-.5-.3.2.5H9l-.6-.7v.8H8l-.2-.2.2.2h-.5l-.2-.2-.1.1-.4.1-1 .1-.5-.5-.1-.2.3.7h-.3l-1-.8-.2.8h-.9l-.4-.4.1.5h-.7Q1 31.3.2 28v-.2l.5-2 3.3.3 5.9 1 6.4.8q5.4.4 10.6 1.6l5.2 1-1.3 1.4h-1.5l-.1-.1-.4-.3.2.4-.6.1q-.4-.4-1-.6l.5.6h-.1l-.5-.2-1.2.3-1-.8.2.6H25l-.6-.6v.5h-.7l-.6-.5-.1-.1.4.7q-.4 0-.8.3l-.9-.4-.4.4h-.2q-.7-.7-.7-.1l-.1-.2-.2-.1v.4l-.2-.1h-1.4l-.5-.7v.5l.2.3h-.8v.1h-2.2l-.5-.3.1.4h-.4l-.7-.8z" transform="translate(-.3 -.05)"/><path id="u" fill="url(#g)" d="M1.5-25.9H2q1.9 0 5-1 2.3-.8 3.3-1.6l1.2.3 3 .4q.7.4 1 .4h.2l4.1 5.5 2.1 5.4.5 1.7.5 2.1.8 6.9v1.4l.1 3.4-.2 5.3-.2 1.7-1 6.4-.1.2-1.6 3.7-2 1-.1-.3-.6-.1.4.6-.8.3-1.5-.2.9.5-.1.1h-.7l-1.5 1.1-1.5-.4.4.8-.6.1-.9-.4.3.6-1 .5-.9-.4-.2-.2.6.9-.9 1-1.2-.1-.4.9-.3.1q-1.1-.6-.8.2l-.2-.1-.4-.1.1.5h-.3l-1.7 1-.8-.8q-.1.6.1.8l.3.2-1 .6-.1.1-2.6 1.4-.8-.2.2.5-.5.3-1.1-.8.4 1.1-1.8.9q-1-.6-1 .6l-1.3.7-1.1-1.2.1.2.8 1-.1.1h-.8l-.6-.2.4.7h-.1l-.7.4-1-.7.1.2.1.9-.5.3-.2-.2.1.2-.7.3h-.2l-.1.1-.5.4-1.2.7-.8-.5.4.7-.4.1-1.4-.6v1.4l-1.3.6-.6-.5.2.7-.9.5-1.9-3-1.2-2.6v-.2q0-1.7-.3-4.1v-1.9l.1-2v-1l.2-.9.2-3.1v-.1l.6-3.6.1-1.1.3-.9.6-2.8.2-.6 1.8-5Q-13-2-11.7-5l-.5-1.7-.4-1.8.3-.2.5.5.9.5.3.1 5-7.9 1.6-2.8q.5 0 1.5-1.5l.8-1.4q.7-.1 1-.8v-.4q.3 0 .4-.4.2-.1.2-.6l-.2-1.2-.1-1z" transform="translate(19.65 28.5)"/><radialGradient id="g" cx="0" cy="0" r="819.2" gradientTransform="matrix(.04 -.02 .01 .04 .05 -.05)" gradientUnits="userSpaceOnUse" spreadMethod="pad"><stop offset="0" stop-color="#000" stop-opacity=".3"/><stop offset=".6" stop-color="#c00" stop-opacity=".4"/><stop offset="1" stop-color="#000" stop-opacity=".3"/></radialGradient><clipPath id="i"><path d="M1 1h84v126H1z"/></clipPath><use xlink:href="#h" id="v" width="35.5" height="32.8"/></defs><g clip-path="url(#i)"><g transform="translate(32.4 109.5)"><use xlink:href="#j" width="66.2" height="96.8" transform="translate(5.4 -75.9)scale(.6999)"/><use xlink:href="#k" width="67.8" height="57.1" transform="matrix(.3585 -.0108 .0132 .3405 1.15 -83.7)"/><use xlink:href="#l" width="17.6" height="13.4" transform="translate(7.55 -71.9)scale(.6999)"/><use xlink:href="#p" width="67.8" height="57.1" transform="matrix(-.0027 -.2358 -.5291 .0156 28.05 -65.7)"/><use xlink:href="#q" width="21.1" height="28.6" transform="matrix(1.0193 -.0306 .0372 .9657 1.9 -84.25)"/><use xlink:href="#r" width="61.4" height="123" transform="translate(-31.4 -69.25)scale(.6999)"/><use xlink:href="#s" width="143.9" height="253" transform="matrix(-.1772 0 0 .1772 23.55 -108.5)"/><use xlink:href="#t" width="93.8" height="134.1" transform="translate(-16.65 -85.1)scale(.6999)"/><use xlink:href="#u" width="43.5" height="63.7" transform="matrix(1.0855 0 0 1.0479 -10.4 -59.8)"/><use xlink:href="#v" width="35.5" height="32.8" transform="matrix(1.3966 -.64 .2715 1.6284 -18 -45.35)"/><use xlink:href="#w" width="19.8" height="13.3" transform="translate(20 -17.8)scale(.6999)"/></g></g></svg>