<svg xmlns="http://www.w3.org/2000/svg" xmlns:xlink="http://www.w3.org/1999/xlink" width="98" height="105" viewBox="0 0 98 105"><defs><radialGradient id="b" cx="0" cy="0" r="819.2" gradientTransform="matrix(.05 0 0 .02 6.45 .35)" gradientUnits="userSpaceOnUse" spreadMethod="pad"><stop offset="0" stop-color="#2d615f"/><stop offset="1" stop-color="#285c5a" stop-opacity="0"/></radialGradient><clipPath id="c"><path d="M1 1h96v103H1z"/></clipPath><path id="a" fill="#f8fbfb" fill-opacity=".6" d="M49.5 9.2q0 6.6-3.5 10.6t-3.5 9.6q0 1.4-1.2 3l-2.6 3.2q-3.8 4.9-3.8 11.9 0 3.1 2 7.1t2 4.9q0 .5-2.2 2.3-2.4 1.7-3.6 1.7-7.5 0-11.5-6-3.5-5.1-3.9-11.5t3.1-11.5q1.6-2.4 2.3-3.1-3.9-1-11.9-5.7Q1.1 19.8 0 17.8q.6-.6 2.2-1.2l2.3-.6q7.7 0 15.3 4.4l5.1 3.1q2.7 1.4 4.5 1.4 2.3 0 3.4-1.2l1.7-2.8q-2.1-5.5-2.1-8 0-7 5.8-10.6Q41.8 0 45 0q2.2 0 3.5 3.5 1 2.8 1 5.7m9.1 22q4.9 1.7 5.9 4.8 2 6.8 2 9.1 0 2.6-.5 5l-1 4.6q.2-.2.8-.2 2.2 0 2.9 4 0 1-2 2.7T63.5 63q-4.6 0-4.6-5l1.5-5.1q1.4-4.8 1.4-9.9 0-4.8-2.9-7l-2-1.3q-.9-.7-.9-1.6 0-2.1 2.6-1.9"/><use xlink:href="#a" id="e" width="68.7" height="63.5"/><g id="d"><path fill="url(#b)" d="M32.7-12.8Q43.5-7.3 43.5.4t-10.9 13Q22 19 6.5 19t-26.3-5.4T-30.6.3t10.8-13.2 26.3-5.4 26.2 5.4" transform="translate(49.95 83.55)"/><path fill="#dfe7ea" d="m2.7 33.4-1.5-3.6q6.5 2 10.6 6.8 15.3 5.5 23.9 15.1l.1.2q4.9-3.2 4.7.6L34.8 54q-9.8-11-23-13.6l-.3-.3q-3.3-4.2-8.7-6.5z"/><path fill="#c0cfd6" d="m1.2 29.8 1.5 3.6-.1.1Q1.3 38.6 2.5 45l-.8-.9q-2.8-7-1-14.4z"/><path fill="#ffe18b" d="M2.7 33.4v.2l-.1-.1z"/><path fill="#7aabbc" d="M2.8 33.6q5.4 2.3 8.7 6.5l.3.3Q25 43 34.8 54l5.7-1.5v.5l-.1.3v.3q-.2 2.8-1.6 5-6.7-5.8-14.7-8.3h-.3q-3.4-4.2-11-6l-.4-.4q-3.5-.7-6.7-4.6l-.2 1.4q2.7 4.1 6.9 5.1l.7.2q6.9 2.1 10 5.6l.7.3Q33.5 55 38 59.7q-1 1.2-2.5 2.1-4.9 2.4-7.1-3.8-8.8.5-13.5-8.7Q7.7 52 2.5 45q-1.2-6.4.1-11.5z"/><path fill="#38748b" d="M38 59.7q-4.5-4.7-14.2-7.8l-.6-.3Q20 48.1 13 46l-.7-.2q-4.2-1-6.9-5.1l.2-1.4q3.2 3.9 6.7 4.6l.5.4q7.5 1.8 10.9 6h.3q8 2.5 14.7 8.3z"/><path fill="#7aabbc" d="M80 79.6q1.3 1 2.8 2.9-3.6 3-8.8 1.6l-.3-.1q-1.4-.4-2.7-1 4.3-6.5 9-3.4"/><path fill="#eec062" d="m43.7 69.2.1.5-.1-.2z"/><path fill="#38748b" d="M75.4 55.8q-.7 2.6.1 4 .3.5 1 .8v.1q1.8 2.5-.3 6.8l.2.5q1.6 2.5-1.2 6v.2l.2 1q.4 3.3-2.3 6.5l-.3.3-.2 1.9-.6.5-.5.3h-.2l-.5 1 2.5 1.3 1.8-.7 2.6 1.2.2 1-2.3.5q-2 3.9-6.6.3-3.7 2.7-4.8-.6l-1.6.5-1.5-.2q-1.3 0-2.2.5-.7.5-.8 1l-7 .8-7-.2 5.2-1.4 3.2-3.2q-7-.2-7.7-8.7-6.6-4.1-1.1-8.1l-.1-.5q0-4.4 1.6-6.3l5.4-22.6 10.3 1.9 8.8 5.1 5 6.7zm-4 2 4.1 2zM67 60.6q.2-.8-.2-1.6l-.2-.2-2.4-.1q.8 1 .5 1.7l-.6 1.8q1.4 0 .9 1.3l.1.3q2.8 1.1.1 3.4 2 1.2 0 2.3-1 2.3 2.6 3.8 2.8.8 2.5-5.1.3-2.9-3.2-7.5zm2.2 0-.3 1.8-.5-.9.5.9 1.2 2 .1.3q2.4 5.2-.2 9.6l-1.3 1.2q-3.3 2.8-6.3-.4-1.3-1-2.1-3.5l-1.3.1q-1 .1-.8-1t1.5-1.3l.2.1-.4-4.6q-2.6-.9-1-3.8.6.8 2.1 1.4V65l.6 2.6.5 1.2q-3 .6-.4 2.6.7.6 1.5-.2l1.4 2.7q2.3 2.9 4.5 1.6l1.3-1.2q2.6-4.5.2-9.7l-.1-.2q.7-1.9-1-3.9 0-.7-.4-1.4.4.6.5 1.4m-8.6 2q0-.9-.2-1.5.3.6.2 1.5m3 8.6-.9.1zm-5.1-12.2q-.4.9-.3 1.6l.3.6-.3-.6q-.1-.7.3-1.6m9.7 18.6q.1 4.2-6.2 7.1 6.3-2.9 6.2-7.1m-22.1-24h-.8l-.1-.2.5-.6.5.5z"/><path fill="#7aabbc" d="m75.5 55.8 1.6.2q2.1 5.1 2.1 11.1 0 11.1-6.6 16.8l.2-1.9.3-.3q2.8-3.2 2.3-6.5l-.2-1V74q2.8-3.5 1.2-6l-.2-.5q2.1-4.2.4-6.7l-.1-.2q-.7-.3-1-.9-.7-1.3 0-3.9M50.6 40.3 45.2 63q-1.5 1.8-1.6 6.2v.3l.1.2q-5.5 4 1 8.1.8 8.5 7.8 8.7l-3.2 3.2-5.2 1.4h-.7q-7.5-1.1-13.5-5.5l-.3-.1v.1l-.1-1 2.3 1.7 1.5.3.5-1.3-3.9-3.2-3-6-1.2-10.7 1.6-4.2h-.6l-.1-.3q0-.5.6-.5l.3.4 1.9-4.9 6.4-9.5 14.5-6.1zm27.3 48.2-.2-1-2.6-1.2-1.8.8-2.5-1.5.5-1 .2.2.6-.3.5-.2q5.7-2.7 6 2.5.1 1.1-.7 1.7m-10.8-28v.2q3.6 4.6 3.4 7.5.2 6-2.6 5.1-3.5-1.5-2.5-3.8 1.9-1.1-.1-2.3 2.7-2.3-.1-3.5l-.1-.2q.5-1.4-.9-1.3l.5-1.8q.3-.7-.4-1.7l2.4.1.1.3q.5.7.3 1.4m-3 29.7v.3l.1.3q0 .7-.9 1.2l-2.2.5-1.3-.2h-.1l-.2-.9q1.3-2 4.5-1.2M46.3 53.3v-.2l-.4-.5-.5.5.1.3zM35 62.5q1.2 0 .1-.7l-.4.5q-.1.3.3.3m-4.6-1-.4.4q-.1.4.2.3 1.3 0 .2-.7M35 81.9q0 .3.2.3 1.4 0 .3-.9-.6 0-.5.6m5-12.4q-1.8.3-2.8 2.3-3.5-2.8-7.1.7 3.6-3.5 7-.7 1.1-2 2.9-2.3"/><path fill="#c0cfd6" d="m75.5 55.8-.7-1.8-5-6.7-8.8-5.1-10.3-1.9h-.3l-14.5 6.1-6.4 9.5-1.9 4.9-.3-.4q-.5 0-.6.5l.1.4h.6l-1.6 4.1L27 76.1l3 6 3.9 3.2-.5 1.3-1.5-.3-2.3-1.7-4.3-3.5-.3-.2q-4.1-5.7-4.1-13.8 0-12.1 8.6-20.6T50 37.8h1.2q11.3.4 19.5 8.5Q75 50.8 77 56zM25 57.7q-2.8 2.5-.6 5.5-2.2-3 .6-5.5"/><path fill="#e6ebee" d="M58 90.5q.2-.5.9-1 .9-.5 2.2-.5l1.5.3.7.3.8.6q-3.3-.9-4.6 1.2l.2.8-.8-.2q-.9-.5-.9-1.2z"/><path fill="#ede150" d="m24.9 80.9.3.2z"/><path fill="#2f6275" d="m69 62.3.3-1.9q1.6 2 .9 4zM58.6 61q.6.8 2.1 1.4v2.5l.6 2.6.5 1.2q-3 .6-.4 2.6.7.6 1.5-.2l1.4 2.7q2.3 2.9 4.5 1.6-3.3 2.8-6.3-.4-1.3-1-2.1-3.5l-1.3.1q-1 .1-.8-1t1.5-1.3l.2.1-.4-4.6q-2.6-.9-1-3.8"/><path fill="#e2d636" d="M35 62.6q-.3 0-.2-.4l.5-.4q1 .7-.2.8m-4.6-1q1 .7-.2.7-.3.1-.2-.2zM35 81.9q-.1-.6.5-.6 1 .9-.3.9-.2 0-.2-.3"/><path fill="#ffe18b" d="M29.6 85.6v.4z"/><path fill="none" stroke="#e1a533" stroke-linecap="round" stroke-linejoin="round" stroke-opacity=".3" stroke-width="__RESOLUTION__" d="m43.6 69.2.1.5" vector-effect="non-scaling-stroke"/><path fill="none" stroke="#7aabbc" stroke-linecap="round" stroke-linejoin="round" stroke-width="__RESOLUTION__" d="m75.5 59.8-4-2M62 84.5q6.3-2.9 6.2-7.1" vector-effect="non-scaling-stroke"/><path fill="none" stroke="#234856" stroke-linecap="round" stroke-linejoin="round" stroke-width="__RESOLUTION__" d="m69 62.3.3-1.9q-.1-.7-.5-1.4m.2 3.3-.5-.9m-6.7 7.3-.4-1.2q-.5-1.3-.6-2.6-.2-1.3-.1-2.5-1.5-.6-2.1-1.4l-.3-.6q-.1-.7.3-1.6m10.2 16.6q-2.2 1.3-4.5-1.7l-1.4-2.6.8-.1m-3.2-10q.3.5.2 1.4m9.5 2q2.4 5.3-.2 9.7l-1.3 1.2m1.4-11L69 62.1" vector-effect="non-scaling-stroke"/><path fill="none" stroke="#c0cfd6" stroke-linecap="round" stroke-linejoin="round" stroke-width="__RESOLUTION__" d="M30.1 72.5q3.6-3.5 7-.7 1.1-2 2.9-2.3" vector-effect="non-scaling-stroke"/><path fill="none" stroke="#f8fbfb" stroke-linecap="round" stroke-linejoin="round" stroke-width="__RESOLUTION__" d="M24.4 63.2q-2.2-3 .6-5.5" vector-effect="non-scaling-stroke"/><path fill="#38748b" d="m52.7 20.3 5.5-.2q6.8.9 11 6.2 4.1 5.4 3.4 12.2-.6 4.3-3 7.1-1.4 1.5-3.4 2.6-5.5 2.9-12.3 2.3-6-.6-9.8-4l-1-1q-1.6-1.7-2.5-3.7l.6.5q1.7 2.8 5.5 4 5.9 3 11.4 1.7h2.4l.2-.1q3.3-.6 4.5-3.9 2.1-1.6 2.5-3.5v-.2h-.1l-.5.3h-.3l-.1-.5q0-.6.7-.7l.3.4q0-1.5-.9-3 1.2-5.5-4-10.2l-4.4-4.5-3.9-1.2z"/><path fill="#000" fill-opacity=".1" d="M69.6 45.6q4 3.4 6 6.8.5 2.5-1.6 3-3.2-.4-5.7 2.4-2.9 1.5-10.8-.5-3.2-2.7-7.1-3.2-4.4-1.5-5.8-5.4l-.5-2.2q3.8 3.4 9.8 4 6.8.6 12.3-2.2 2-1.1 3.4-2.7"/><path fill="#c0cfd6" d="M40.6 41.8q-1.1-2.9-.9-6.4l.1-.9q.7-5.4 4.2-9.1l2-1.9q3.1-2.4 6.7-3.2l1.8.6-3.9 1.8-.4 1 4.4 2.4 2 4.2-.4 1.6-.5.6-1.4 1.8q-.3 1.1-3.2 2.8-.6-.6-2-.6l-3.8 1-2.2-.5q-.8 0-1 .4l-.6-.1-.4 1 .1 4z"/><path fill="#7aabbc" d="m54.5 21 3.9 1.1 4.4 4.5q5.2 4.7 4 10.2.9 1.5 1 3l-.4-.4q-.7.1-.7.8l.1.3.3.1.6-.1q-.4 2-2.5 3.5-1.2 3.3-4.5 4v-.1l-.2.1H58q-5.5 1.3-11.4-1.7-3.8-1.2-5.5-4l-.1-4 .4-1 .6.1q.2-.4 1-.4l2.2.5 3.8-1q1.4 0 2 .6 2.9-1.7 3.3-2.8l1.4-1.8.5-.6.3-1.6-2-4.2-4.4-2.5.4-.9z"/><path fill="#cabd1e" d="M66.8 40.6h.3l.5-.3h.2l-.1.2-.6.1z"/><path fill="#539db9" d="M58.8 31.4q0 1.3 1.2 1.5-1.7.5-.6 1.7-1.5-.8-2 .8-.2-2.3-2-2.4 1.7-.7.9-2 1.5 1.1 2.5.4m0 2.5q-.7-.6.3-.9-.7-.2-.7-.9-.6.4-1.4-.3.4.8-.6 1.2 1 0 1.2 1.4.3-1 1.1-.5m5.5.7q1.3 5.6-1.1 6.8-2.6 1.3-4.2.5-1.9 2.2-5 1.9h-.4q-3 1.5-5-.4-4 0-4.4-2.7l-.1-.3q-1.6-1.5-1-2.7-.9-1.6-.6-4.6h.3q-.3 3 .3 4.2l.3.5q-.3 2.1 1.3 2.6 1 2.5 2.8 2.3l.6-.2q2.5 2 4.5.8l.5-.2q3.9.4 5.4-1.4l.4-.5q4.8 1.1 5.4-6.6m-17.3-5.2q1 .1.7 1.5.5-.9 1.4-1-.8-.6-.6-1.4-.4.8-1.5.9m2.7.6q-1.4.3-2.4 1.8.6-2.4-1.1-2.6 1.9 0 2.6-1.3-.5 1.3.9 2.1"/><path fill="#38748b" d="M58.8 34q-.9-.6-1.2.4-.1-1.4-1.2-1.4 1-.4.6-1.2.8.7 1.4.3 0 .7.7.9-1 .3-.4 1m-16-.9h.4q-.4 2.6.2 3.9l.3.4q-.2 2.3 1.3 2.8.9 2.4 2.7 2.1l.5-.1q2.5 2 4.4.8l.4-.2q3.8.5 5.3-1.4l.3-.5q4.6 1.1 5.1-6.6h.5v.3q-.5 7.7-5.3 6.6l-.4.5Q56.9 43.6 53 43l-.5.3q-2 1.3-4.5-.8l-.6.1q-1.8.3-2.8-2.2-1.6-.5-1.4-2.6l-.2-.5q-.6-1.2-.3-4.2m4.1-3.7q1.2 0 1.6-.9-.2.8.6 1.3-.9.2-1.4 1.1.3-1.4-.7-1.5"/><path fill="#f8fbfb" d="M60.1 8.5q1.6-1.7 2.7-5 0 5.5-1.6 7.1-.3-1.9-1.1-2.1M54 17.8q1 3.3-4 5.1l-1.2-2.2.1-.4q1.6-5.8 5-8.9h.1q2.4 1.3.4 5.9zm-7.4 5.3-2.5 1q.1-2.2 2.4-4z"/><path fill="#7aabbc" d="M60.1 8.5q.8.2 1.1 2.1 1.5-1.6 1.6-7.1-1.1 3.3-2.7 5m-4-.5 1.3-1 1.5 1.2q2.5-4.1 2.9-8.2l1.6 1.1q2.2 6-.6 12 4.8 5.4 0 14-2.5-.8-6.6 2.1 2.9-5.8 1-10.2 2.5-4.9-1.1-11m9.5-4.5q3.1 4.1 3.5 11.5l2-.2q4 9.9 2.3 19.5-.7-11.1-2.7-17.9l-.1-.3-2.6-.3q-.2-6-2.4-12.3"/><path fill="#38748b" d="m63.4 1.1 2.2 2.4q2.2 6.3 2.4 12.3l2.6.3.1.3q2 6.8 2.6 17.9l-.1 1-.5 1.9Q70 32.6 66.8 33q-1-5.2-4-6 4.8-8.5 0-14 2.8-6 .6-11.9"/><path fill="#c0cfd6" d="M56.2 29.3h-.1q-1.1-4.7-6.7-2.8l-.3-.7q-2-3.4-6.4 1.1.7-6.1 3.9-8.3l.8 1.2q4.2-8 8.7-11.8 3.6 6.1 1 11 2 4.4-.9 10.3M54 17.8l.4-.5q2-4.6-.4-5.8v-.1q-3.5 3.1-5.1 9l-.1.3 1.2 2.2q5-1.7 4-5M46.6 23l-.1-3q-2.2 1.8-2.4 4zM30.9 83.6l4.3 3.5.1 1.4q-.1.9-1 1.5-1 .8-2.4.8-1.2 0-2.1-.5-.3-3 3-4.4-.4-.5-1.6-.4H31q-1.1-.2-2.3 1.7h-2.3q.2-3 2.5-3.7z"/><path fill="#e6ebee" d="m29.8 90.3-.3-.2q-1-.8-1-2l.2-.9q1.2-1.9 2.3-1.7h.2q1.2 0 1.6.4-3.3 1.4-3 4.3m-3.4-3-.5-.3q-1.3-1.3-1.5-1.1 1.9-5.5 5.8-2.7l.7.5h-2q-2.3.5-2.5 3.7"/><path fill="#38748b" d="M38.6 49.8q2.4 2.5 6.9 1-3 1.3-.3 4.4-3.2.7-3.2 3.6-1.6 1.4-1.6 3.8.4 2.1 3.3 2.1 2 .8 4.7.8-2.1 3.3-.9 7.3l-8.6-3h-1.3q-1.4 2.2-.5 6-.8 1.8-1 3.5-.3 1.5 1.1 3.1l1.6 5 1.4 2v1q-2.5-.6-5.1-2 .4-1.9-1.9-4.5.9-2.3-.9-5.3 1-3 .4-6.5l.2-1 1.2-1.1-.6-3.2-2.3-1.5q-.6-2.4-3-2v-.2q1.1-.7.6-2.1l.5-2q1.5 1.8 3.3.6 1 2.4 2.5 1 4.2-3 1.8-7.2 3.2-1.1 1.7-3z"/></g></defs><g clip-path="url(#c)"><g transform="translate(52.7 84.55)"><use xlink:href="#d" width="93.5" height="102.5" transform="translate(-49.95 -83.55)"/><use xlink:href="#e" width="68.7" height="63.5" filter="url(#filter-object-1)" style="mix-blend-mode:hard-light" transform="matrix(1.2452 0 0 1.2368 -51.7 -73.4)"/></g></g></svg>