<svg xmlns="http://www.w3.org/2000/svg" xmlns:xlink="http://www.w3.org/1999/xlink" width="104" height="181" viewBox="0 0 104 181"><defs><g id="h"><path fill="#ddd795" d="m53 5.5 1.5-.6 3 1.7-.5.4zm8.5-4.2 1.2-.3 1.8 1 1.5.8-.5.2h-.1zm3.1 0L66 .8l3 1.6-.5.4zM66 .6l1.3-.6 3.2 1.7-.5.4h-.2zm4.5 2 .2.1 1.2.8-.5.4h-.9zm-26.3 9.5 1.5-.6 3.1 1.8-.5.3H48zm1.5-3.4 1.5-.6 3.1 1.8-.6.3z"/><path fill="#527094" d="M54.5 5v-.2l3.8 1.6h.1v10.1h-.9V6.6zM66 .8V.6l3.8 1.5h.2v9.4h-1V2.4zm-6.2 15H59V8.3h.8z"/><path fill="#c0bb7a" d="m54.5 4.8 1.3-.7L59 5.9l-.6.5h-.1z"/><path fill="#2c3c4e" d="M59 6v9.8l-.2.5-.4.2V6.4z"/><path fill="#cea879" d="M59 7h.2l1.2.9-.6.3H59zm.2-.4 1.5-.6 3 1.8-.5.3zm6.3-1.1.2-.9 1.9 1-.5.4h-.2z"/><path fill="#592f1a" d="M59.2 7v-.5l4 1.5v7.6l-2.8-1V8zm7.8 6-2.8-1.1 1.3-6.5 1.4.5h.1z"/><path fill="#b64023" d="m60.7 5.9.8-4.6L65.3 3h.1l-1.7 9.4V7.7zM48.2 21.3l-1.2-.5-2.9-1.8.1-3.7v-3.2l3.9 1.5h.1z"/><path fill="#4d7d37" d="M64.5 2v-.7l4 1.5v9.5l-.9-.2V5.5l-2-1 .4-1.7z"/><path fill="#385065" d="M70.5 1.7v9.2l-.2.5-.3.1V2.1zm-10.1 13v.8l-.6.3V8.3l.6-.4z"/><path fill="#605f44" d="M71.9 3.5v7.1l-.6.3v-7h.1z"/><path fill="#83825c" d="M71.3 10.9h-.8v-7h.8z"/><path fill="#2c471f" d="m69 11.5-.1.5-.4.3V2.8l.5-.4z"/><path fill="#2e160e" d="m67.6 12.1-.2.6-.4.2V6l.6-.4zM63.8 14v1.3l-.6.4V8l.5-.3v6.2"/><path fill="#81442e" d="m64.2 11.9-.5 2v-1.5L65.5 3l.5-.1.1-.1-.3 1.7-.2.9z"/><path fill="#5c5f32" d="m57.6 16.5-.2.5-.4.3V7l.5-.4z"/><path fill="#a5a85b" d="m57 17.3-.9-.1V10L53 8.4V5.5L57 7z"/><path fill="#552e11" d="m56.1 17.2-.2.6-.4.2v-7.6l.6-.4z"/><path fill="#6c2e17" d="m55.5 18-2.4-.9v-6l-1.2-.8-.2-.2v-1h-.2v-.2l3.9 1.5h.1z"/><path fill="#15438e" d="M53.1 17.1v1.6l-.6.3v-7.6l.6-.3z"/><path fill="#1f3e4e" d="M52.5 19h-.8v-8.9l.2.2 1.2.8-.6.3z"/><path fill="#6f6f00" d="m51.7 19-.2.5-.4.3V9.5l.6-.4z"/><path fill="#330" d="m51.1 19.8-.8-.1V9.9l-3.1-1.8V8L51 9.5h.1z"/><path fill="#7a5476" d="m50.3 19.7-.2.6-.4.1V10.3l.6-.4z"/><path fill="#aa84a6" d="M49.7 20.4h-.9v-7.1l-3.1-1.8V8.7l4 1.6z"/><path fill="#8e321c" d="m48.8 20.4-.2.6-.4.3v-7.7l.6-.3z"/><path fill="#cbcf78" d="m47.2 8 1.3-.6 3 1.6.2.1-.6.4z"/><path fill="#8b8643" d="m51.5 8.9 1.5-.5 3.1 1.6-.6.4h-.1z"/><path fill="none" stroke="#2f1813" stroke-linecap="round" stroke-linejoin="round" stroke-opacity=".7" stroke-width="__RESOLUTION__" d="M54.5 5v-.2m1.3-.7L59 5.9v1l.2.1v-.5m1.5-.6.8-4.6m1.2-.3 1.8 1v-.7M66 .8V.6m1.3-.6 3.2 1.7v1h.2l1.2.8v7.1l-.6.3h-.8l-.2.5-.3.1h-1l-.1.5-.4.3-.9-.2-.2.6-.4.2-2.8-1-.5 2v1.3l-.5.4-2.8-1v.9l-.6.3H59l-.2.5-.4.2h-.9l-.1.5-.4.3-.9-.1-.2.6-.4.2-2.4-.9v1.6l-.6.3h-.8l-.2.5-.4.3-.8-.1-.2.6-.4.1h-.9l-.2.6-.4.3-1.2-.5m-1.3-9.3V8.7m2.8-1.2 3 1.6V9m1.5-.5v-3m4.5 1.1-3-1.7m11.2-.4-.2.9-1.3 6.5m3.4-6.4-2-1 .4-1.7h0m-2.2 9.6v1.5M69 2.4 66 .8M64.5 2l1.5.8m4.5-.2V11m-21.7 2.3-3.1-1.7m18-3.8-3-1.8m-.3 2-1.2-1M59 7v8.8m1.4-8v6.8m3.4-6.9v4.7M53 11l-1.2-.8-.2-.2v9m-.2-10 .2.1v1m1.4 1v6m4.4-10.5v9.9M56.2 10v7.2M53 8.4l3.1 1.6m-5.8-.1v9.8m-1.5-6.4v7.1M67.6 5.5v6.6m-20.4-4 3.1 1.8m18.8 1.6V2.4" vector-effect="non-scaling-stroke"/><path fill="none" stroke="#40261a" stroke-linecap="round" stroke-linejoin="round" stroke-width="__RESOLUTION__" d="M44.2 15.3v-3.2M70 2.1h.2m-22 11.5h.1m10-7.3h.1m-5.8 5.2" vector-effect="non-scaling-stroke"/><path fill="#9bbcff" d="M2 24.6v.1zM.4 33.7v-.2z"/><path fill="#837d3f" d="M2 24.8v-.2l1.5-.1v1.8l-1 .3.1-1.6zm.5 1.8 1-.4.1 1.6L5 29l.1 4.7-3-.5zm1.3 2.2-.4-.3-.3.2q-.1.8.6 1.3h.6q.1-.7-.5-1.2"/><path fill="#938c46" d="m2 24.8.6.2-.1 1.6-.3 6.5-1.8.4.2-4.6 1.3-1v-1.6l.6.3-.6-.3z"/><path fill="#84743e" d="m.4 33.5 1.8-.4 2.9.5v.4q-1.3 1.1-2.9.8l-1.8-1z"/><path fill="#faff8a" d="M3.8 28.8q.6.4.5 1.1l-.6.1q-.7-.5-.6-1.3l.3-.2z"/><path fill="#2b2717" d="M2.2 34.8q1.6.3 2.9-.8v-.2l-.1 6-1.3.9-1.4.2z"/><path fill="#494429" d="m2.3 40.9-1.1-.4q-.8-.4-.9-2.2v-4.5h.1l1.8 1z"/><path fill="none" stroke="#2b2717" stroke-linecap="round" stroke-linejoin="round" stroke-width="__RESOLUTION__" d="m2.5 26.7 1-.4M2.4 40.9l-1.1-.4q-.8-.4-.9-2.2v-4.5M2 26.4l.6.2M.4 33.5v.3" vector-effect="non-scaling-stroke"/><path fill="none" stroke="#494429" stroke-linecap="round" stroke-linejoin="round" stroke-width="__RESOLUTION__" d="m2 24.8-.1 1.5v1.5L.6 29l-.2 4.6" vector-effect="non-scaling-stroke"/></g><g id="f"><path fill="#7c0101" d="M29.6 23.5q-.7 2-1.7 3.6-2.6-.6-5.2-3-5.3-4.6-7.8-13.9l-.7-2.7q3.2-4.2 7.3-6l-3.9 3.2-1.2 2.6 1.5 6 4.2 7 4.2 3.4 1.5 1.5 1.4-2.6.3.6z"/><path fill="#a30101" d="m29.6 23.5-.1-.3-.2-.6-1.5 2.6-1.5-1.5-4.2-3.4-4.2-7-1.4-6 1.1-2.6 3.8-3.2 1-.5q3-1.1 6.6-1l.9 2.7q2.3 8.8.8 16.7l-.2.9-.9 1.6.2.9zm0-19.8L29 1.5l-2.2.2q2.8 7 3.7 14.4.9-5.9-.9-12.4m-3.1 1-.9-1.4 2.9 12.8q.6-2.8.2-5.7t-2-5.5zm-9.3 2.8.5 2.3q2 7.3 6.2 11.1l1.3 1q-.4-9.5-4-18.2-2.2 1.4-4 3.8"/><path fill="#950202" d="m30.5 20.3-.7 2.5-.2-1z"/><path fill="#fbe773" d="M29.6 3.7q1.7 6.5.8 12.4-.9-7.4-3.7-14.4l2.2-.2z"/><path fill="#e9460a" d="m26.4 4.7.2.2q1.6 2.5 2 5.5.4 2.9-.2 5.7L25.5 3.3z"/><path fill="#fef7cb" d="M17.1 7.5q1.8-2.4 4-3.8 3.6 8.7 4 18.2l-1.3-1q-4.2-3.8-6.2-11.1z"/><path fill="none" stroke="#000" stroke-linecap="round" stroke-linejoin="round" stroke-width="__RESOLUTION__" d="M21.5 1.5q-4.1 1.8-7.2 6l.6 2.7q2.5 9.3 7.7 14 2.7 2.3 5.3 2.9 1-1.5 1.6-3.6l.3-.7.7-2.5h0l.1-.9q1.5-8-.7-16.7L29 0q-3.6-.1-6.5 1" vector-effect="non-scaling-stroke"/><path fill="#65431b" d="M13 56.4q1-1 2.2-1.2h.4l9.8 2.8h-.1q-.7 0-1.4.5l-.2.2-.3.1-.3.3z"/><path fill="#9a6f27" d="M13 56.4 23 59l-.6.6-.2.5-.1.1-1.1 2.1-3.6-2.3 1 1q-1.9-1-3.7-1.4l.8.8-.4-.2-3.7-1.8 1-1.4zm10.5 2.5.3-.2.2-.2.2.8v.5l.4 1.8-1-2.4zm1.9-.8h.3zm.8.2 1 .7-2 2.8.5-1.6zm1.9 2.7v1.9l-.4-.2-1.3.8q1.4-1.1 1.7-2.5m-.5 4.2-.2.7-.7-.3-1.7-1zM26 68.1l-.3.3-.3.2q-.5-3.6-.1-2.4l.5 1.5zm-15.1-4-.3-.7 1.4 1h-.2zm-.1-3.3.3-.9 3.1 2.4-.5-.1q-1.4-.8-2.9-1.4m11.5-.4.6.4 1.3 1.6q.4.7-.2.1l-.8-.6zM17 64.9l-1.4-1 .9.5zm3.8-1.4-.2.4q-.2 1.3 0 2.4l-5.1-3.7zm.1 4.3 2.1-1.9q.8-.7-.4.9l-1.2 1.5q-.6 0-.9-.5L19 66.5l-.1-.1-.7-.7-.3-.2-.3-.2h.4q1.4.5 2.3 1.7zh.1l.3.5-.3-.5"/><path fill="#e6ca9d" d="m23 59 .4-.1.1.3 1 2.4-.4-1.9v-.4l-.2-.8q.8-.4 1.4-.5h.3l.5.2-.5 1.9-.5 1.6 2-2.8-.2-.2.7.9q.5 1 .4 1.2-.2 1.4-1.7 2.5l1.3-.8.4.2-.1.8-.4 1.5-2.6-.5 1.8.9.6.3-1.2 1.8-.2.4-.2-.4-.5-1.5q-.4-1.2.1 2.4-1 .8-2 .8h-1l-1-1 1.3-1.5q1.2-1.6.4-.9l-2 1.9-.4-1.5q-.2-1.1 0-2.5l.1-.4.3-.9 1-2 1.1 1.3.8.6q.6.6.3 0l-1.4-1.7-.6-.4.3-.5zm.5-.4.3-.2-.1.2z"/><path fill="#c93" d="m22.4 69.2-10.6-3.8q-.5-.4-.9-1l-.2-.5 1 .4.2-.1-1.4-1q-.2-1 .1-2.3v-.2q1.5.6 2.9 1.4l.5.1-3.2-2.4.5-1.3 3.8 1.8.3.2-.7-.8q1.8.4 3.7 1.4l-1-1 3.6 2.3-.2 1-5.3-.9 5 3.7.4 1.5-.6-.7q-.9-1.2-2.4-1.6h-.1l-.2-.2v.1l.3.2.3.3.7.6.1.1 1.5 1.2q.3.5.9.5zM17 64.7l-.5-.4-.9-.4z"/><path fill="none" stroke="#630" stroke-linecap="round" stroke-linejoin="round" stroke-width="__RESOLUTION__" d="m25.4 58-9.8-2.8h-.4q-1.1.1-2.2 1.1l-.7.8-1 1.4-.5 1.4-.2.8v.2q-.3 1.3-.1 2.3l.3.8.1.5q.4.5 1 .9h-.1l10.6 3.8h.9q1 0 2-.8l.3-.2.3-.3.2-.4 1.2-1.8.2-.7.4-1.5.2-.8-.1-1.9q.1-.2-.4-1.2l-.7-1 .2.3-1-.7-.5-.1zM23 59l.3-.1.3-.2.2-.2h0q.8-.4 1.4-.5h.3M21 62.5l1-2 .2-.2.3-.5.6-.6m-2.4 4.3v.4q-.3 1.3-.1 2.4l.3 1.5h.1l.3.5h0l1 1m-1.6-5.9.3-.9" vector-effect="non-scaling-stroke"/><path fill="#9a6f27" d="m25 65-.8.2q-.3-.2-.3-.7-.1-.4.1-.9l.6-.7q.3-.4.7-.2l.4.6-.2 1z"/><path fill="#e6ca9d" d="M.5 67.2q.4-1.2 1.3-1.8l.9-.4 1.3.4-.3 1.9q-.3 2 0 1l.9-2.6 1 1L6.9 69l.1.5.3.8.1 2.3-1.6-.6-1-.1q-.8-.2-.2.1l2 .8h.8v.5l-.2 1-.2.3-.3-.3q-2.5-2-2.1-1.5l1.3 1.4.3.4.5.7-1 1-.2.2h-.6l-.5-1.8-.3-1.7-.4 3.3q.6.3.3.3l-1-.5-1-.9q-.4-1.3.3-3l-.8 1.5H1l-.4-.8-.4-1.6 2.5-.7H.1l.1-2.1.1-.5.2.3 1.2 1q1 .8-1.2-2M6.7 75v-.2l.2-.1z"/><path fill="#c93" d="m2.7 65 11-2v.1l1.2.4.4.3-1 .2-.2.1 1.8.2 1 2 .2.2-3.3.2-.4.2 3.9.5.1 1.5-4.1.3H13l1 .3-3.8.6 1.3.4-4.3-.3-.3-.8 5-2-6.2-.7-1.1-1 1 .3 2.7.2.3-.2v.1h.2l-.4-.1-.5-.1-.8-.2h-.2L5 65.4H4zm7.4 1.3h1-1.5z"/><path fill="#9a6f27" d="m15.3 63.8.6.5L14 64l.2-.1zm1.8 2.7.1.9-3.8-.5.4-.2zm.3 2.4v1.6l-.2.9L7 74.2l.2-1v-.7l-.1-2.3 4.3.3-1.3-.4 3.8-.6-1-.3h.3zM5.6 76.2l-.2.2zm-.7.3-1.3-.2.4-3.4.3 1.7zM2 75l-1-1.5h.5l.8-1.5q-.7 1.7-.3 3M.3 71l-.1-.5.7-.1h1.9l-2.4.8zm0-3 .1-.4.1-.3q2.2 2.8 1.2 2l-1.2-1zM4 65.4l.4.3h.1-.1l-.3-.3zl-.3 1.9q-.3 2 0 1l.9-2.6 1 .3 2.7.2.3-.2v.1h.2l-.4-.1-.5-.1-.8-.2h-.2L5 65.4zm1.7 1.3 6.2.8-5 1.9-.1-.5zm4.4-.4h-.5H11zm-2.8 6.3h-.7l-2.1-.8q-.6-.4.3-.1l.9.1zm-.5 2.3-.1.3-.5-.6-.3-.4-1.3-1.3q-.5-.5 2.1 1.4l.3.3z"/><path fill="#65431b" d="M17.2 71.4q-.5 1.5-1.4 2.1l-.3.3-9.9 2.5v-.1l1-1V75l.2-.3.1-.3.2-.3z"/><path fill="none" stroke="#630" stroke-linecap="round" stroke-linejoin="round" stroke-width="__RESOLUTION__" d="M.5 67.2q.4-1.2 1.3-1.8l.9-.4 11-2v.1l1.2.4.4.3.6.5 1 2 .2.2.1.9.3 1.5-.1 1.6-.2.9q-.5 1.5-1.4 2.1l-.3.3-9.9 2.5h-.2l-.6.2-1.2-.2.3.2-1-.5-1-.9-1-1.5-.3-.8-.4-1.6-.1-.7.1-2.1.1-.5h0l.1-.4zm4.1-1.5-.3-.3H4L2.7 65m1.9.7 1 1L6.9 69l.1.5.3.8.1 2.3v.7l-.2 1-.2.3-.2.3v.3h-.1l-1 1-.2.3" vector-effect="non-scaling-stroke"/><path fill="#9a6f27" d="M2.6 69.9q.1-.4.4-.5t.7.4l.3 1-.2.9-.5.5-.5-.4-.3-.9z"/><path fill="#513515" fill-opacity=".7" d="M1.8 65.5q.5-.5.8-.5l5-.9q-.7 1-.3 4 .4 3.9 4 3.2 3.8-.6 5.4-3.2 1.7-2.5-3.7-4.4l-2.5-.3v-.1q-.2-1 0-2.3v-.3l.3-.8.5-1.4 1-1.4.6-.7q1.1-1 2.2-1.1l.5-.1 3.3 1h-.1q-3.2 5 2.6 5.9-.7 1.6-.8 3-.1 1.5 1.3 4.4l-4.7-2.1.2 1.4-.1 1.7-.2.9q-.5 1.5-1.4 2.1l-.2.3-10.2 2.5-.5.2-1.2-.2q.6.2.2.2l-1-.5-1-.9-.9-1.5-.4-.8-.4-1.6v-2.8l.1-.5.1-.4.2-.3q.4-1.2 1.3-1.7"/></g><g id="e"><path fill="#fff" d="M9.5.1v55.6h-3l.7-34.2.9-11.2z"/><path fill="#ffffae" d="M9.6 55.7V.1h-.1V0v.1L11 10.3l.9 11.2.7 34.2z"/><path fill="#c4c400" d="M6.6 55.7H19q-3.6 1.7-8.7 1.8H8.8q-5.1-.1-8.8-1.7v-.1z"/><path fill="#840000" d="M10.3 57.6v16H8.7v-16z"/><path fill="none" stroke="#000" stroke-linecap="round" stroke-linejoin="round" stroke-opacity=".3" stroke-width="__RESOLUTION__" d="M9.5.1 8.1 10.3l-1 11.2-.5 34.2H0h0q3.7 1.7 8.8 1.8v16h1.4v-16q5.2-.1 8.8-1.7v-.1h-6.4l-.7-34.2-.9-11.2zV0z" vector-effect="non-scaling-stroke"/></g><g id="c" fill="#000"><path d="M28.5 1v4.4L4 18l-2-1v-4.4L26.5 0z"/><path d="M3.4 15.5q1.7-.8 3.9.4 2.1 1 3.7 3.4 1 1.7 1.4 3.2l-2.2 1.1L9 23q-.3-1.1-1-2.1-1.2-1.8-2.8-2.6-.8-.5-1.5-.6l-.1.3-2.2 1-1.3-.6q.3-1.3 1.8-2.1zm19-9.6q1.7-.8 3.9.3 2.1 1.1 3.7 3.5 1 1.6 1.4 3.2l-2.1 1-1.4-.6q-.3-1-1-2.1-1.1-1.7-2.7-2.6l-1.6-.5-.1.2-2.1 1.1-1.4-.7q.3-1.2 1.9-2z"/></g><g id="b"><path fill="#353124" fill-opacity=".1" d="M46 61.7 32.2 161.9q15.6 23-32.2 15v-41.4l5.5-5.2 12.6-55.5V39.6l6.2-18.8 13.6 5z"/><path fill="#837d3f" d="m81.5 79.8 1.5-.2.1 1.8V83l1.4 1 .2 4.8-3-.5.3-6.5.2-1.6zm1.6 1.7-1 .4zm.3 2.5-.5-.3-.3.3q0 .7.7 1.3l.5-.1q.1-.7-.5-1.2"/><path fill="#84743e" d="M84.7 88.8v.2l-.1.1q-1.2 1.2-2.8.8h-.1l-1.8-1v-.3l1.8-.3z"/><path fill="#2b2717" d="m84.7 89-.2 5.9-1.3.9-1.4.3-.1-6.2q1.6.3 2.9-.8z"/><path fill="#494429" d="m81.9 96-1.2-.4q-.8-.3-.9-2.1t.1-4.6l1.8 1z"/><path fill="#9bbcff" d="M79.9 88.9v-.3zm1.6-9v-.2z"/><path fill="#938c46" d="m79.9 88.6.2-4.5 1.3-1.1v-1.5l.1-1.6.7.3-.2 1.5v.1l-.3 6.5zm2.1-6.8-.6-.3z"/><path fill="#faff8a" d="M83.4 84q.5.4.4 1.1l-.5.1q-.7-.6-.7-1.4l.3-.2z"/><path fill="none" stroke="#2b2717" stroke-linecap="round" stroke-linejoin="round" stroke-width="__RESOLUTION__" d="m81.9 96-1.2-.4q-.8-.3-.9-2.1t.1-4.6m2.1-7.1 1.1-.4" vector-effect="non-scaling-stroke"/><path fill="none" stroke="#494429" stroke-linecap="round" stroke-linejoin="round" stroke-width="__RESOLUTION__" d="m79.9 88.6.2-4.5 1.3-1.1v-1.5l.1-1.6" vector-effect="non-scaling-stroke"/><path fill="none" stroke="#2b2717" stroke-linecap="round" stroke-linejoin="round" stroke-width="__RESOLUTION__" d="m81.4 81.5.6.3m-2 7.1-.1-.3" vector-effect="non-scaling-stroke"/><path fill="#777053" d="M70.9 14 38.4 30.6l-.2-.1-14.7-7.9v-6l15 7.6 17.2-8.8 15-7.6-15-7.6L68.1 0l10.2 5.2-1 .9 1.9-.4 4 2H83zM38.7 37l32-16.4v2.8L38.6 40.6V37zm58.7 68-.4 1.9-.2 2.9-1 .5h-1.4l-1 .6.3.4-10.7 5.5-3.8 2q.5 6 3.5 14.2h.1l-3.2 9.5-10.7-5.4v-13l-14.2 7.3L31.9 143l-6.6-3.5-2.6-1.2q-.8 1.3-1.2 3l-.6 3-1.9 7.2.6 7.6-.2 6.6-1.2 5.2-.7-.4v-35l-1.7-.8q0-1.7-.2-2.8v-.2l-.4-1.8 16.5 8.5.3.1.8-.3zm-80.2 17.5 9.1-35.8q1.6-2.3 1.4-5.4l2-7.5V32.4l-1.4-.8v-.1l3.5 1.8v45.1l-11.7 43.3 10.7 7.7v.1l-10.5-5.4z"/><path fill="#d6cfc0" d="M70.9 14.1 83 7.7v2l-4 2.2-40.4 20.8h-.2l-.1-.2v-2l.3.1z"/><path fill="#332d22" d="m55.9.2 15 7.6-15 7.6z"/><path fill="#484131" d="m55.9 15.4-17.3 8.8-15-7.5L55.8.2z"/><path fill="#c5b9a7" d="m23.5 22.6 14.8 7.9v2L34 30.4l-6.4-3.5-4.1-2.1zm14.8 10h.1L79 11.9l-.5 2-.2 2.8-7.5 3.9-32 16.4h-.1z"/><path fill="#9d8a6c" d="M38.6 32.7h-.2z"/><path fill="#aa9a80" d="M38.4 32.6v.1l.3 4.3-6.9-3.7v-.2l2.2-2.9 4.3 2.3z"/><path fill="#938a66" d="M34 30.3 31.9 33v.2l-3.5-1.8-.1-2.7-.4-2zm-2.2 3.1 6.8 3.7v19.7h-2.7l1.3.5q.6.5 1.3.8v20.4l-2.2 18-1.6.7v.3h1.4l-.4 3.5-1.5 11.7-.9 6.9-1.8.4q-.4.4.3 1.4l1.2.6-1 7.3v.9l-.6-.3-.6-.4-10.7-7.7 11.7-43.3zm-.9 144L18.3 171l1.3-5.2.1-6.6-.6-7.6 1.9-7.2q-.2 1.8 0 3.9.1 2.7.9 5.8 1 5 3.6 11.3 2.2 5.6 5.6 12.1m-16.8-48-3.2-1.7v-2l6.1-3.2 3.1 1.6-5 2zm65.4 13.1 3.2-9.5q2.4 6.5 6.4 14.4l-7.7-3.9z"/><path fill="#958264" d="M31.9 33.1v.2h-.1z"/><path fill="#dad8b8" d="m49.7 46.4-3.2-3.9.5-2.8 7.4-1 1.1 3.3zm21.2-3.1v6.1l-5.1 1.4-.8-2.9 1.6-2.3zm0 18.7 8.8 18.4-1.4.8q1.1 1 2.5 1.5l4.6 9.8 4 8.4-38.6 19.7-2.4-4.4.5 5.3L32 130v-.7l1-7.4-1.2-.6q-.7-1-.3-1.4l1.8-.4.9-6.9 3.7 1 4.6-4 .5-6.6-7.3-2.1.4-3.5h-1.4V97l1.5-.7 2.3-18zM86 129.5q2.5 7.1 7 16l-3.8 2q-4-8-6.4-14.5zm-51.2 46-3.8 2q-3.4-6.6-5.6-12.2l3-4.3q1.9 5.3 5 11.5zM60.3 59.3l-3.9 3.5-2.4-2-.1-.2.9-2.3 1.3-1.4z"/><path fill="#cecca2" d="m49.7 46.4 5.8-4.4-1.1-3.4-7.4 1.1-.5 2.8zm21.2-23v12.8l-1.4 1.1 1.4 2.1v3.9l-4.2 2.3-1.7 2.3.8 2.9 5.1-1.4V62L38.6 78.4V58l-1.4-.7-1.4-.6h2.8V40.5zm30.8 77.3v2l-4.2 2.2-64.6 33.2-.8-1.7zM60.3 59.3l-4.2-2.4-1.4 1.4-.8 2.3.1.1 2.4 2zm-11.5 62.1-.5-5.3 2.4 4.4 1.8 1.8zM35.7 101l7.3 2-.5 6.6-4.6 4-3.7-1z"/><path fill="#eae9d7" d="m85.4 92.4 16.2 8.3v.1L32 136.5l-.4-.2-10.3-5.3 9.5-1.5.6.3.6.3 16.8-8.7 3.7.9-1.9-1.8 38.7-19.7z"/><path fill="#c6c493" d="M83 116.9q.3 4.1 2 9.3l-1 1v1.6l1.8-.2.2.9-3.2 3.5q-3.1-8.2-3.6-14.2zM25.6 152q.9 4.1 2.7 9l-2.9 4.3q-2.6-6.3-3.6-11.4-.8-3-1-5.7-.1-2.1.1-3.9l.6-3q.4-1.7 1.3-3l2.4 1.2q-1 3.7-.3 8.7z"/><path fill="#625a42" d="M89.2 147.5q-6 1.8-11.8 4l-3.3 1.3q-7.5 3-14.4 6.6l-5.7-1-1.5 3.3 1.1 1q-5.4 3.2-10.4 6.6l-8.8-4.1-2-9.7 6.8-6.3L66 142l15.5 1.5zm-10.1-1.7h-4l-4.8 3.2 3.6 1.3zm-18.2 9.1 4.9-3.8-5.2-3.8-10.1 2.3-14.7 6.4 2 2.6 6.2 2zm-20.1 8.4-3.5 1-.5 1.6 2.9.8 2.2-1.8z"/><path fill="#443e2f" d="M59.7 159.5q-3.2 1.5-6.1 3.3l-1.1-1.2 1.5-3.2zm-16.4 9.9q-4.4 3-8.4 6.2l-1.4-3q-3.1-6.2-5-11.5-1.9-4.9-2.8-9l29.1-14.9v-5.7l14.1-7.3.1 13 10.7 5.4 2 1L66 142l-26.8 7.2-6.9 6.3 2.1 9.7zm35.9-23.6-5.2 4.6-3.6-1.3 4.8-3.2zm-38.4 17.4 1.1 1.6-2.2 1.8-2.9-.8.5-1.6z"/><path fill="#a79f81" d="m15.2 129.9-1-.6 1-3.2 5-2 10.6 5.4-9.5 1.5 10.3 5.3v2.1z"/><path fill="#353124" d="M54.7 131.4v5.7L25.6 152l-.7-3.8q-.6-5 .4-8.7l6.6 3.5z"/><path fill="#ddd9cc" d="m32 136.5.8 1.7-.8.3-.4-.1v-2z"/><path fill="#4f4635" d="M60.9 154.8 44 160.5l-6.2-2-2-2.6 14.7-6.5 10-2.2 5.3 3.8z"/><path fill="#8a7b5b" d="m30.9 129.4.5.4-.6-.3z"/><path fill="none" stroke="#41382c" stroke-linecap="round" stroke-linejoin="round" stroke-width="__RESOLUTION__" d="m83.2 7.7-4-2-2 .4 1.1-.9L68.1 0M55.9.2l15 7.6-15 7.6-17.3 8.8-15-7.5v8l4.1 2.1.5 2 .1 2.7v.1l1.4.7V74l-2 7.4q.3 3.1-1.4 5.4l-9.2 35.8h0l-6.1 3.1v2.1l3.2 1.6 1 .5.4 2h0q.2 1.2.2 2.8l1.6.9v35l.8.4 12.8 6.5 3.8-1.9M55.8.2v15.2m15 5.2 7.5-3.9.3-2.9q.1-1 .4-1.9l4.2-2.1V7.7M70.8 23.4v12.8l-1.4 1.1 1.4 2.1v22.5l8.8 18.4-1.4.8q1.1 1 2.5 1.5l4.6 9.8 16.3 8.3v2.1l-4.2 2.2-.4 1.9-.2 2.9-1 .5h-1.4l-1 .6.3.4-10.7 5.5q.3 4.2 2 9.4l-1 1v1.6l1.8-.2.2.9q2.5 7.1 7 16l-3.8 2m-18.4-124v-2.9m18.5 80.2-4-8.4M25.6 152q.9 4.1 2.7 9" vector-effect="non-scaling-stroke"/></g><path id="g" fill="#070707" d="M41.9 0h1.3q1.2.8 3.4.5h.5q.6 1 2.6.9l.4-.1q1.3 1 3 1.2l.4.1q0 .7 1 .5h.4q.8.9 2.1 1.2h.5L69.3 13l.3.1q.8 1.3 3.4.7v-.2l.4-.2.1-.3h.2q.5-2.5-.2-3.9l-.1-.2q-.7-.3-.4-1.5 2.6.9 3.7 3.4h.3l.6 3 .3.1-.1.4q-.5 3.8-3.5 5.2H74q-2 .6-4-.4v.7q-.8.1-1.2.6v1.2q1 1.4 3 1.8H74l4.2.2v-.2q5 1.1 7.1 5.4 2 3.9 2.9 9.3 1.8 1 2.4 3.4l.2.1 1.7-3.5v-.4l4.5-3.4h5.1q.5.9 2.2.8h.4q3.8 2.6 5.1 8.1.5 1.7 1.4 3.1.6 4.8 0 9.6v.9q-2.2 8.9-10.4 11.7v.4h-.5l-4.3-.5v.9h-.4L90.8 68l-.1-.2q-11.2-7.3-18.5-18.4l1.2-1.4.1-.4q.7-.4.8-1.2V46l.3-.1q.4-3.4-1.1-1.7v.8l-.1.5-.4.5v.8l-.2.1q-1 2.1-3.2 2.9l-.4.1q-2 1.1-5.2.4l-.1-.3-.4-.2v-.2l-2.5-1-.4-.2-1.4-1.6v-.4l-1.3-2.6v-3l.4-.5v-.8q1-.5 1.5-1.3h.3q1.6-.5 1.3 1.3v.4q-.1 1.8.6 2.9l.3.1q1.3 1.2 4.2.3v-.7q2-1.4 2.6-4v-.4h.3q.6-4.7-1.6-4.7v.4l-.3.1-.5.4h-.4l-8.7.4v.4l-.4.1-1.4.3v.5h-4q-.8 5-3.7 7.8v.4H48l-8.7-1.7-.1-.4h-.4v-1q.8-.5.6-2.1l-.1-.5 1.4-1.1.3-.1q3.5.3 4.1-2.2H45l-.1-.4h-.3v-.2q-4.5-.1-7.8-1.1l-.1-.4q-2.1-1.6-3.4-4v-.4q-.6-2.7-.4-6 .7-.2.5-1.4l-.1-.4 3.1-3.8.4-.1 3-.2v-.2l3 .4h.5q4.6 3.8 6.8 10.3 1 2.9 2.3 5.5.3.5-.8.1l-.5-.3-.1-.3-3.4-2.8-.1-.3-1.2-1.4v-.3q-1.1-1.8-2.6-3.1l-.1-.4q-1.3-1-3.4-1.3v.3q-.2 0-.2.2-.5.8-1.5 1.1.2 2.3 1.5.2l.3-.1q1.6-.2 2.6.3l.4.1q1 1.9 2.3 3.4h.3l1 1.7.3.1 2.7 3h.3q.4 1 1.4 1.3h.4l3.8.3v-.2h.3Q50 26.2 45.8 16.5l-.4-.1q-1.4-.5-2.6-1.2h-.5l-6 .4v.5q-4 1-6.1 3.8-9 11-22.1 17.8h-.4l-2.7.4v.4q-1.8-.2-2.4-1.7l-.1-.4L0 38v-5q1.1-.6.8-1.6-.1-.2-.8-.3v-3.9Q2.4 27 4.1 26l.1-.3q3-1.4 4.6-4l.1-.4q6.2-3.6 10.7-8.8Q24.1 7 30.2 3q1.7-.5 2.9-1.4l.1-.3q2.3-.2 3.8-1l.1-.3zm-7 8.4.5.3q2.6-.6-.9-1.7-.3 1.1.4 1.4m1.9 3.6q1.7-4.4-.5-.7l.2.6zM31 9.1v-.2q-3 .7-5.2 2.4v.6q2.6-1 5.2-2.8m-7.9 5.7q0 1.3.8.5 3.1-4.1-.7-.6m-7.4 4 .1.4 2.5 6 .4-2.2q0-3.6-3-4.2m.9 10.1q2.3-1.9 0-.7zm-5.6 5.4q1.9-2.4-.4-4.9l-.1-.2q-2-.9-4.7-1h-.5V28l-4.3-.1v.3l-.4.1-.5.4q.6 1.3 3 .9h.5q6.1-.4 7.3 4.3zm36 4.4q2.9-3.2 0-.6-.3 1 0 .5m18.6-22.1.1.3q4.3 3.3-.1-.3m-7.8 3.4h.3q1.3-3.6-2-.4v.4h-.5l.3 3.5h.1q2.1 3.4 1.9.5l-.1-.5V20m-.4 10.8v-.2l-2.6-.2q0 .8.5 1.2h.4l1.7.4h.4l3.5.3v-.2l.5-.4h.4l4.2-.7v-.2q1.5-.3 2.5-1l.2-.4 1.2-.1V29l4.3-1.1.1-.2 1.3-.2v-.3l2.2-.4h.4q4.4 3.8 7.5 9h.3q-1.6-5.2-5.7-10.2l-.3-.1-.1-.2q-4.8-.3-8.2 1v.5h-.4q-5.3 2.5-11.7 3.9h-2.6M78.7 32h-.5v-.2l-3.4-.2h-.5q-.8 0-1.2.3l.8 1.9v.4q0 1.7.3 3.4h.1q2.3-2.2 4.2-.2 2.1 2.5 3.7 1.5.3-4.5-3.5-6.9m.3 8q-1.2-1-2-.5-.2 1.1.8 1.2h.5l.5.8.4.1q.5 1 1.5 1.4l.1.4q1.2 1 3 .2l.1-.2q.8-.1 1.2-.5l.1-.4.3-.1q1.8-3.5-.7-1.2v.4l-.3.1q-.6.5-1.5.8h-1.2v-.2q-1 0-1-.7v-.4q-.6-.7-1.6-.9zM2.5 31.2v.2q3 .7 0-.2m3 4.3v.3q6.4-1.1 0-.2M90 43.7q-.2-.9-.9-.2-3.6 3.1-8.6 2.9V46q1-2.7-1-1.8v.8h-.2q-1.5-1.9-3.6-.8 5.8 8.1 14.6 13.5l.1.3q2.5 1 6 .7v-.2l.4-.1q1.5-1.5 3.5-2.5l.1-.4q.8-2.4 2.1-4.4v-4.3l-.1-.3q-1.4-1.7-3.4-2.7v.3q-3.2 1.8-1.2 4.9l.5.2q.8.1 1.2.6 2 2.3-1.7 3.9h-.5q-2.8 0-5.6-2.2v-.4q-.4-1.7-1.3-3v-.5q.3-2.5-.5-3.9m-15.6-3.4.1.7q2.5-1 0-.7"/><path id="d" fill="#b0a78a" d="M32.5-78.2 30-68.7q2.5 1.5 4.1 3.5v.2L31-67l-.3 1.2.9 2.6q2.1 8 1 15.3l6 6-6.3-4.2-.1.5-.7 2.6-.2.6q-.7 2.1-1.6 3.6-2.7-.6-5.3-2.9l-.6-.4-2.5 7v.1l1.2-8.6q-3.8-4.5-5.8-12l-.7-2.8.2-.2-1.9-1.5L13-57h-.1q0-2.5 1-5L7-67.6l.3-.6 6.8 5.6q1-2.5 2.4-3.6h.1L15.3-63l2.7 2.3q2.3-2.4 5-3.6l1-.4 3-.8.8-3.2-3.3-1.9q2.1 0 4.7 1.5l2.3-9.5z" transform="translate(-7.05 78.65)"/><clipPath id="a"><path d="M1 1h102v179H1z"/></clipPath></defs><g clip-path="url(#a)"><g transform="translate(35.4 147.85)"><use xlink:href="#b" width="101.6" height="179" transform="translate(-34.4 -146.85)"/><use xlink:href="#c" width="31.4" height="23.6" transform="matrix(-.5 0 0 .5 17.2 2.9)"/><use xlink:href="#c" width="31.4" height="23.6" transform="matrix(-.5 0 0 .5 31.6 -4.1)"/><use xlink:href="#d" width="31.4" height="43.6" transform="translate(7.05 -78.65)"/><use xlink:href="#e" width="19" height="73.5" transform="matrix(-.5071 -.2927 .1481 -.5906 27.3 -33.85)"/><use xlink:href="#e" width="19" height="73.5" transform="matrix(-.1956 .4884 -.425 -.3539 41.65 -48.2)"/><use xlink:href="#f" width="31.3" height="76.5" transform="translate(3 -67.45)"/><use xlink:href="#g" width="111.5" height="69.3" transform="matrix(-.1608 .0354 0 .1608 18.9 5.55)"/><use xlink:href="#g" width="111.5" height="69.3" transform="matrix(.1332 -.0783 0 .1608 28.9 -1.6)"/><use xlink:href="#h" width="71.9" height="41.1" transform="translate(-8.3 -55.15)"/></g></g></svg>