<svg xmlns="http://www.w3.org/2000/svg" xmlns:xlink="http://www.w3.org/1999/xlink" width="55" height="49" viewBox="0 0 55 49"><defs><g id="g"><path fill="#787d35" fill-opacity=".4" d="m64.4 25.5 2 2.7q1.1 1.3 1.1 3 0 12.6-11 18-7.2 1.7-10.7 4.7-4.8 4-7.9 4-3.1.1-4.3 1t-2.2.5l-1 .2-1.4-.2q-3.3-1.6-4.1-1.6-1.2-.6-2.1-.5t-4.4 1.8q-3.6 1.6-4.2 1.6-.3 0-1.5-1.5l-.1.2-1.7-.4-2.7-1H7q-2 0-4.4-3L1 52.7H.5l-.3-3-.2-4.1.2-1.6q.4 2.2 2.8 5.5 3.1 4.1 6.8 4.1l2.6-.4 1.6-.6 5.8 1.5q1.9 0 3.7-2.1 1.9-2.2 3.4-2.2l1.9.3 4.5 1.3 3.8-1.3q3.4-1.4 4.5-1.4l2.8.3q2.7 0 6.4-2.2 3.1-1.4 4.4-4.6.4-.5 2.8-2l2.8-2.3q1.3-1.8 1.4-2.7l-.2-2 .1-1.6q2.1-4.6 2.1-5.9z"/><path fill="#787d35" d="M20.3 11.6q1.3-3.2 1.3-4.7 0-4.7-3.6-4.7-.7 0-1.4.7-.7.8-.7 1.2 0 1.2 1 1.2h.5l.1-.5.3.4-1 .5q-1.7 0-1.7-2.4 0-1.7 3.1-1.7 1.7 0 2.9 1.2 1.3 1.3 1.3 3L22.2 7l-.6 2.4-.2 2q0 .6.4 1.6 0 .6-1.2.7v-.1q-.4-1-.4-1.9"/><path fill="none" stroke="#1a1a00" stroke-linecap="round" stroke-linejoin="round" stroke-opacity=".3" stroke-width="__RESOLUTION__" d="M20.3 11.6q1.3-3.2 1.3-4.7 0-4.7-3.6-4.7-.7 0-1.4.7-.7.8-.7 1.2 0 1.2 1 1.2h.5l.1-.5.3.4-1 .5q-1.7 0-1.7-2.4 0-1.7 3.1-1.7 1.7 0 2.9 1.2 1.3 1.3 1.3 3L22.2 7l-.6 2.4-.2 2q0 .6.4 1.6" vector-effect="non-scaling-stroke"/><path fill="#787d35" d="m43.9 15.7 1.4-2.2.8-3.2.5-3.9.3-1.6q1-2.6 3.3-3.8 2.3-1.4 4.5-.6 4 1.4 3.1 4-1.2 3.4-3.5 2.6l-.9-1q.1-.3.5-.5l-.1.7.7.3q1.3.5 2-1.3.2-.7-.3-2-.6-1.6-1.5-1.9-4.8-1.6-7.3 5.4-.8 2.2-.7 7.7-.5 1.4-1.5 2.6-1.6-.6-1.3-1.4"/><path fill="none" stroke="#1a1a00" stroke-linecap="round" stroke-linejoin="round" stroke-opacity=".3" stroke-width="__RESOLUTION__" d="M46.7 14.5q-.1-5.6.7-7.8 2.5-7 7.3-5.4.9.3 1.5 1.9.5 1.3.2 2-.6 1.8-1.9 1.3l-.7-.3.1-.7q-.4.2-.5.5l1 1q2.2.8 3.4-2.6 1-2.6-3.1-4-2.2-.8-4.5.5-2.4 1.3-3.3 3.9l-.3 1.6-.5 3.9-.8 3.1-1.4 2.2" vector-effect="non-scaling-stroke"/><path fill="#886e17" d="m62 23.4-.4 2.4-.2.6-2.7.6v-.7l.8-1q.6-1 .6-1.7 0-1.7-1.4-3 .7-2.6 2.4-2.3.7.1 1 .6l.1.1q.5.8.2 2.8zm-3.3-2.7q1.4 1.3 1.4 2.9 0 .6-.6 1.6l-.8 1q0-1.3-.7-1.9-.4-.4-1-.4l-1 .6h-1l-.7-.1q-.9-.4-.9-1.6l.1-1-.8-.4q1.8-2 3.1-2 .9 0 1.8.5zm0 6.4 2.7-.6q-1.3 3.4-3.1 6.5l-1-.5-.5-3.2q1.6-.5 1.9-2.2M55 24.6q-.1-4.4 2.5-4.7-2.6.4-2.5 4.7"/><path fill="#6c5911" d="m62 23.4.4-1.6q.3-2-.2-2.8v-.1l6.5-6.6q-1.4 3.4-1.4 6.2 4.8.3 8.8 3-4.6.2-8.3 3.1 1.7 3.5 1.5 6.4z"/><path fill="#ab881d" d="M58.7 26.3v.7q-.3 1.7-2 2.2l-.9.2h-1.2q-1.6 0-2.9-1l-.6-.5q-1.5-1.4-1.5-3.2 0-3.6 2.1-3.6l1 .3.8.5v.9q0 1.2.8 1.6-2.4.1-2.5 4 .1-3.9 2.5-4l.7.2h.1l.8-.1h.1l1-.6q.6 0 1 .4.6.6.7 2M23 52.6q-6.1.8-9.7-2.8-3.1-1-4.6-3.5t-2-5.4q-1.2-3.1-1.6-6.2v-2.5q-.9-3.7.8-6.7l.7.2 1 2.9.2.3h-.3l-1.7 3.3-.2.1L8 35.1l.2.2.9-.5q1.5 2.1 2.3 4.2t1.6 3.3l6.9 4.5h.2l3.5.3 4.4.4q4.3-1.5 8.4-2.2l.2.8h.2l-.2.1V46v.3l-3.4 4v.1H33l-5-2.1-.1-.3v-.5.5l-.2.2-4.5 3.1-3.5-4.3-.1.1.2-.4-.2.4.1-.1 3.5 4.3zm18.3-5.3v.3l-.1-.1zm14.6-17.9q2.1-3.2.1-4.9 2 1.7-.1 4.9m-48.3-.5.1-.3zm-2.4 3.3h.4l.1.1-.1-.1zm.8 0h-.3zm2 3.1-.3.1V35v.4zm-1.4 5.6.3-.1H7l.2-.1 4.9 2.2 1.8 5.9v.1l-.7.9.7-.9v-.1l-1.7-5.9H12l-4.8-2.2H7v.1zm5.5 2 .7-.6zm1.8 5.9-.1.1zm13.7-.6.2-.2v.3zm-13.6.5 5.5-1.6zM7.8 35.5l-.7 5.4zm25.3 14.9-.1.1z"/><path fill="#917418" d="M58.3 32.9q-2.7 6.3-8.8 10l-3.7 3.4q-1.9 1.4-4.2 1.8l-.3-.6v-.2l2-5.1 5.4-.5-5.4.4-.4-.6q3.4-4.2 7.4-6.7 1.3-3.4 4.3-5.3h.1l1.1-.1 1-.2.5 3.2zm-1-.5-5.9 3.2-.2.1-.9-1 .9 1 .2-.1zm-8.6 9.4.8 1.1zl2.5-6.1z"/><path fill="#9e7e1a" d="M41.6 48.1q-3.7 3.3-8.4 3.4-5 2.5-7.5 1.8l-2.7-.7.2-1.3 4.5-3.1.3.1 5 2.1h.1v-.1l3.4-4 .2-.2h-.2l-.2-.8q2-2.1 3.6-2.8t3-1l.4.6-2 5.2-.1.2h.1zM5.8 25.5l.4-1.5q1.7-5 4.5-3.3-1 4.7-2.4 8.2.8 3 .6 5.9l-1 .5-.2-.2-2.2-2.8.2-.1 1.7-3.4.3.1h.6-.7v-.3l-1.1-3zm35.3 22-4.5-1.4zm-7.9 4v-1z"/><path fill="none" stroke="#1a1a00" stroke-linecap="round" stroke-linejoin="round" stroke-opacity=".3" stroke-width="__RESOLUTION__" d="m61.4 26.4.2-.6.4-2.4.4-1.6q.3-2-.2-2.8v-.1q-.4-.5-1-.6-1.8-.3-2.5 2.4 1.4 1.3 1.4 2.9 0 .6-.6 1.6l-.8 1v.8q-.3 1.7-2 2.2l-.9.2h-1.2q-3 2-4.3 5.4-4 2.5-7.4 6.7-1.3.3-3 1t-3.6 2.8q-4.1.8-8.4 2.3l-4.4-.6-3.5-.2h-.2l-7-4.5q-.7-1.2-1.5-3.3T9 34.8q.3-2.9-.6-5.9 1.5-3.5 2.4-8.2Q7.9 19 6.3 24l-.5 1.5q-1.6 3-.7 6.7v2.4q.4 3.2 1.6 6.3.6 2.9 2 5.4 1.5 2.5 4.6 3.5 3.6 3.6 9.7 2.8l2.7.7q2.6.7 7.6-1.8 4.6-.1 8.3-3.4 2.3-.4 4.2-1.8l3.7-3.4q6-3.7 8.8-10 1.8-3.1 3.1-6.5m-6.8 3q-1.6 0-2.9-1l-.6-.5q-1.5-1.4-1.5-3.2 0-3.6 2.1-3.6l1 .3q1.8-2 3.1-2 .9 0 1.8.5l1 .7h.1m-3.6 4 .8-.1m.1 0 1-.6q.6 0 1 .4.6.6.7 2m-4.5-1.9q-.8-.4-.8-1.6l.1-1-.8-.4m2.3 3.2-.7-.2" vector-effect="non-scaling-stroke"/><path fill="none" stroke="#1a1a00" stroke-linecap="round" stroke-linejoin="round" stroke-opacity=".1" stroke-width="__RESOLUTION__" d="m58.7 27 2.7-.6m-5.5-1.9h.1m-1.7-.1q-2.4.1-2.5 4m3.3-3.8H55m2.6-4.7q-2.6.4-2.5 4.7m1.6 4.6.6 3.2 1 .5m-8 1.9.9.9.2-.1 5.9-3.2m-8.6 9.4-5.4.4h0l-2 5.1v.3l.3.5m7.9-5.2-.9-1.1 2.5-6.1m-7.8 6.4-.4-.6m-1.7 6v-.2m14.6-22.8q2 1.7-.1 4.9m-48.1-.8-1.1-3-.7-.1m1.8 3.4h-.2l-1.7 3.3-.2.1L8 35.1l.2.2.9-.5m-.6-5.9h-.7v-.3l-.2.3m-1.9 3.4-.1-.1H5m.5 0h.3m2 2.8v.4l.3-.1m5.2 14.5.7-.9v-.1l-1.7-5.9H12l-4.8-2.2H7v.1l-.4.1m6.2 1.4-.7.5v.1m1.8 6 .1-.1h0m5.8-2-.2.3.1-.1 3.5 4.3h0l4.5-3.1.2-.2v-.5m-8.3-.4L14 48.7m-7-8 .7-5.3m15.4 15.9-.2 1.3m5-4.3-.1-.3m5.3 2.4H33l-5-2.1-.3-.1m8.6-2.9.2.8h.2l4.4 1.4m-4.6-1.2V46m.2 0-.2.1-3.4 4v.2l.1 1.1m-.2-1.1.1-.1" vector-effect="non-scaling-stroke"/><path fill="none" stroke="#1a1a00" stroke-linecap="round" stroke-linejoin="round" stroke-opacity=".3" stroke-width="1" d="m62.2 18.9 6.5-6.6q-1.4 3.4-1.4 6.2 4.8.3 8.8 3-4.6.2-8.3 3.1 1.7 3.5 1.5 6.4l-7.2-7.6"/><path fill="#1a1a00" fill-opacity=".1" d="m61.3 23 1.6 1.6-2 5.3-.1.5q-1.2 3.5-3 6.5-2.5 6.4-8.5 10-1.6 2-3.5 3.4-2 1.5-4.4 1.9-3.5 3.2-8.2 3.3-5 2.5-7.7 1.9l-2.7-.7q-6.2.7-10-2.9-3.2-1-4.7-3.5-1.6-2.5-2.3-5.3-1.5-3.2-1.8-6.3l-.2-2.5q-1-3.6.5-6.5l1.4 1.9 2.2 7.1v.1q1.6 2.2 2.5 4.3l1.7 3.2q3.9 2.2 7.2 4.5h.3l3.5.3 4.4.5q4.4-1.5 8.5-2.3 1.9-2 3.6-2.7t3-1q3.3-4.3 7.3-6.8.9-2.7 3-4.5zm-50.6-2.6q-.8 4.9-2.3 8l.3-7.9z"/><path fill="#8c4657" fill-opacity=".1" d="M48 12.5q-.1-3-4.4-5.1-4.3-2.2-10.3-2.2T23 7.3t-4.3 5.2q0 2.6 3.2 4.6l.6.3.4.3q4.3 2.1 10.4 2.1 4.8 0 8.5-1.4l1.9-.7q4.2-2.2 4.2-5.2m1.8 8.6-1 .5-.4.1-.9.5-.7.4-4.5 1.3-4 .7-1.4.1-3.5.1-4-.1-2-.3-3.2-.6q-2.7-.6-4.9-1.6h-.1l-1.1-.6q-3.3-1.7-4.8-3.6-1.6-1.9-1.6-4 0-4.6 6.4-7.7 2.2-1.1 4.6-1.8l2.8.6.8-1.4 7.1-.6q9 0 15.4 3.2Q55 9.4 55 14q0 4-5.3 7"/><path fill="#8c4657" fill-opacity=".3" d="m47.4 22.2 1-.4.3-.2 1-.6.3 1v.6q-.4 1-2 1-.4 0-.5-.7zM13.2 18q1.5 2 4.8 3.6l1.1.6h.1l-.2.3-.5.4-.5.3q-.8 0-2-1l-1.6-1.5q-1.2-.8-1.2-2.7m14.2 6.4 1.9.3 4 .1 3.5-.1-.2.9-.6.8-2.7.2L29 26l-1.2-.8-.3-.4zm10.8.2 4-.7 4.4-1.3q.5 2-1.5 2.4l-2.4.5-1.5.4-2.5-.2q-.5-.5-.6-1.1m7 8.8-2.5.3q-.8 0-1.7-.7-1-.7-1-1.6 0-.8.7-1.7l1-1.1.5-.2h.4l1.1.2q.6.1 1.4.6 1.9 1 1.9 2.4T45 33.4m-20.6-8v1.2q-2.5 10-3.1 10-2 0-2-3.6 0-.7 1.3-3.8l1.7-4.4zm-12.2.7q0-.4 1.2-.6l2-.6 1.4.7q.6.6.6 1.4 0 .6-.7 1.2-.8.7-1.7.7-2.8-1.8-2.8-2.8"/><path fill="none" stroke="#1a1a00" stroke-linecap="round" stroke-linejoin="round" stroke-opacity=".1" stroke-width="__RESOLUTION__" d="M58.5 39q-1 3.3-3.3 7.1l3.8.5m-8.7 6q2.9-3.3 4.8-6.4h.1M42.1 20.5l-1 .4.5.6M17.1 23v-2.2l1.3-.7m-.5 3.6v-2.5l2.2-1.2M.6 49.1l2.7-2.6-2.7-4.9m6.3 11.2-3.6-6.2m37-25.2.8-.3-1.9-1.7" vector-effect="non-scaling-stroke"/></g><g id="e"><path fill="#1a1a00" fill-opacity=".3" d="M35.5 21.8q16.7-5.2 30.2-3.6 13.5 1.8 16 9.4t-7.5 16.9q-10 9.1-26.7 14.4t-30.2 3.6-16-9.4 7.5-16.7q10-9.3 26.7-14.6"/><path fill="#a3d184" d="m63.3 21.1-.2.1v-.3z"/><path fill="#ab9a59" d="m63.1 21.2.1-.1 1.7 2.4 2.4 4.3q.8 3.6-1.2 9.4-2 5.6-11.4 10l-.2-.5Q53 44.6 49 44.6q-3.6 0-4.8 2.5-.6 1.4-1.1 5.7v.4q-2.5 2-6.2 2.1l-.3-.5q-.5-.4-1.1-.4t-1.1.5-.5 1.1v.1q-2 1.3-4.9 1l-.7-3q-.5-3.5-1.3-4.7-1.4-2.1-4.6-2.1-3 0-4.3 2-.8 1.3-1.4 4.4l-1 3.9q-2.2.7-2.9-1 .5.1.5-.4l-.3-1q-.3-.4-.7-.4t-.7.4-.3 1l.1.6Q9.3 55.1 8 55.5l-.2-.7q-1.4-5.4-4.1-5.4-1.5 0-2.3.6l-.8.7L.5 48v-1l.2-4.4q.9-11.3 7-20.2l-.5 1.8q0 3.3 2.9 3.3 1.5 0 4.3-1.4 2.7-1.2 4.7-1.4h.3q2.7 0 6.2 3t8.1 3q4.1 0 7.6-3.8 3.6-3.7 6.9-3.7 2.4 0 5.8 1.5 3.3 1.6 5 1.6 1.9 0 3-1.6.9-1.1 1.1-2.8z"/><path fill="#a1944a" d="m63 20.9.1.3v.7q-.2 1.7-1.1 2.9-1.1 1.4-3 1.4-1.7 0-5-1.5-3.4-1.6-5.8-1.6-3.3 0-6.9 3.8-3.5 3.8-7.6 3.8-4.6 0-8.1-3t-6.2-3h-.2q-2 .2-4.8 1.4-2.8 1.3-4.3 1.3-2.8 0-2.8-3.2l.4-1.7q1.4-2.2 3.1-4.2Q21.4 6.4 36 6.4t25 11.9l1 1.2z"/><path fill="#bcae63" d="M1.4 50q.9-.6 2.3-.6 2.7 0 4.1 5.4l.2.8q-3.1-.4-4.4-2.1Q2 51.6 1.3 50m10.1 6.7-.1-.6q0-.6.3-1t.7-.4.7.4l.3 1q0 .5-.5.4zm4.4.8.9-3.9q.6-3.1 1.4-4.5 1.4-2 4.4-2t4.5 2.2q.8 1.3 1.3 4.8l.8 2.9q-4.7-3-7.6-2-3 .9-5.8 2.5M34 56q0-.6.5-1.1t1.1-.5 1.1.5l.3.5q-1.9-.3-3 .8m9.1-3 .1-.4q.4-4.4 1.1-5.7 1.3-2.5 4.9-2.5 3.8 0 5.3 2.3l.2.4q-3.3.4-5.7 1.8t-6 4"/><path fill="none" stroke="#1a1a00" stroke-linecap="round" stroke-linejoin="round" stroke-opacity=".3" stroke-width="1" d="m63.3 21.1-.2-.2M7.6 22.5q-6.1 8.8-7 20.1L.5 47v1m66.8-20.2-2.4-4.3-1.7-2.4M62 19.5l-1-1.2Q50.6 6.4 36 6.4t-25.1 12q-1.8 2-3.2 4.1"/><path fill="none" stroke="#1a1a00" stroke-linecap="round" stroke-linejoin="round" stroke-opacity=".3" stroke-width="__RESOLUTION__" d="m7.3 24.2.4-1.7M63 20.8l-1-1.3" vector-effect="non-scaling-stroke"/><path fill="#1a1a00" fill-opacity=".3" d="M60.6 20.8q4.4 4.9 6.9 11.9-.1.9-1.5 5.1-1.5 4.2-6.1 7-4.7 2.7-5 2.6h-.4q-3.5.3-7 2.8-.1-11.7-1.7-20.1l-6 .4q-8.6 0-14.6-3-3.1-1.6-4.6-3.4-1.5-1.9-1.5-4 0-4.3 6-7.4 6.1-3 14.8-3 8.6 0 14.6 3 6.1 3.1 6.1 7.5z"/><path fill="#a19453" d="m46.3 19.9 1-.4 1.5-.7q6.3-3.2 6.3-7.6v-.5q.5 1.2.5 2.6 0 4.4-6.4 7.6-6.4 3.3-15.4 3.3T18.3 21t-6.4-7.7l.2-1.7q.2 3.3 4 5.9l2.3 1.3.9.4.8.4 2.3.8q4.4 1.4 9.9 1.6h1.3l3.8-.1q4.9-.5 8.9-2"/><path fill="#ccc283" d="M55.1 10.7v.5q0 4.5-6.4 7.6l-1.4.7-1 .4q-4 1.5-9 2l-3.7.1h-1.3q-5.5-.2-10-1.6l-2.2-.8-.9-.4-.8-.4-2.3-1.4q-3.8-2.5-4-5.7v-.5q0-4.4 6.3-7.6 2.1-1 4.5-1.7l2.8.6.8-1.4 7.1-.6q8.9 0 15.2 3.1 5.9 3 6.3 7.1M47.9 12l.5-1.8Q48.3 7 44 4.9T33.4 2.6 22.9 4.8l-2 1.2q-2.4 1.8-2.4 4.2 0 1.3.9 2.5l1.3 1.4.9.6 1.3.7 2.6 1.1q3.4 1.1 7.9 1.1 4.3 0 7.8-1l2.8-1.2 1.4-.7 1-.8z"/><path fill="url(#a)" d="M18.9 12.2Q18 11 18 9.7q0-2.4 2.4-4.2l2-1.2q4.3-2.1 10.5-2.1t10.6 2.1q4.3 2.3 4.4 5.4l-.5 1.8q-1.8-1.5-4.2-2.6t-6-1.6l-5-.4q-4.6 0-8.5 1.5-2 .8-3.2 1.8-1.1 1-1.6 2" transform="translate(.5 .5)"/><path fill="#42291e" d="M19.4 12.7q.5-1 1.6-2T24.3 9q3.8-1.5 8.4-1.5l5 .4q3.5.5 6 1.6 2.4 1.1 4.2 2.6l-1.5 1.8-1 .8-1.7-.8q-2.5-1.1-6-1.6l-5-.4q-4.6 0-8.5 1.5-1.5.6-2.6 1.4l-1-.6z"/><path fill="#55312d" d="m45.4 14.7-1.4.7-2.9 1.2-3.4-.8-5-.4q-3.9 0-7.2 1.1l-2.6-1.1-1.3-.7q1.1-.8 2.6-1.4 3.9-1.5 8.5-1.5l5 .4q3.5.5 6 1.6z"/><path fill="#67373b" d="M41.2 16.6q-3.5 1-7.8 1-4.4 0-7.9-1.1 3.3-1.1 7.2-1.1l5 .4z"/><path fill="none" stroke="#1a1a00" stroke-linecap="round" stroke-linejoin="round" stroke-opacity=".3" stroke-width="__RESOLUTION__" d="M55.1 10.7v.5q0 4.5-6.4 7.6l-1.4.7-1 .4m-9 2-3.7.1h-1.3m-10-1.6-2.2-.8-.9-.4m-3.1-1.7q-3.8-2.6-4-5.8l-.2 1.6q0 4.4 6.4 7.6 6.4 3.3 15.5 3.3T49.2 21t6.4-7.7q0-1.4-.5-2.6" vector-effect="non-scaling-stroke"/><path fill="none" stroke="#1a1a00" stroke-linecap="round" stroke-linejoin="round" stroke-opacity=".3" stroke-width="1" d="M55.1 10.7q-.4-4.1-6.4-7.1Q42.6.5 33.7.5l-7.2.6m-3.5.8q-2.4.6-4.5 1.7Q12 6.8 12 11.2v.5"/></g><linearGradient id="a" x1="-819.2" x2="819.2" gradientTransform="matrix(.02 0 0 .01 33.15 7.25)" gradientUnits="userSpaceOnUse" spreadMethod="pad"><stop offset="0" stop-color="#5f5526" stop-opacity="1"/><stop offset="1" stop-color="#786f34" stop-opacity="1"/></linearGradient><clipPath id="c"><path d="M1 1h53v47H1z"/></clipPath><path id="b" fill="#ffffe5" fill-opacity=".3" d="M19.2 42.7Q4.7 42 .5 37.3q-.7-5.5-.3-11.4 1-16 9.2-25.9.3 7.2 12.9 9.7-2 8.6-2.7 20.8-.5 6.3-.4 12.2"/><use xlink:href="#b" id="f" width="22.3" height="42.7"/></defs><g clip-path="url(#c)"><g transform="translate(24.45 24)"><use xlink:href="#e" width="82.2" height="62.9" transform="rotate(17.582 63.698 -53.716)scale(.5393)"/><use xlink:href="#f" width="22.3" height="42.7" filter="url(#filter-object-1)" style="mix-blend-mode:overlay" transform="matrix(.415 .1315 -.1629 .5141 -14.1 -13.6)"/><use xlink:href="#g" width="76.5" height="60.7" transform="rotate(17.582 68.015 -52.562)scale(.5393)"/></g></g></svg>