<svg xmlns="http://www.w3.org/2000/svg" xmlns:xlink="http://www.w3.org/1999/xlink" width="28" height="61" viewBox="0 0 28 61"><defs><radialGradient id="c" cx="0" cy="0" r="819.2" gradientTransform="matrix(-.02 0 .01 .03 7.2 2.25)" gradientUnits="userSpaceOnUse" spreadMethod="pad"><stop offset=".3" stop-color="#4f5530"/><stop offset="1" stop-color="#1e1e10"/></radialGradient><radialGradient id="j" cx="0" cy="0" r="819.2" gradientTransform="matrix(.01 0 0 .01 -8.95 -.7)" gradientUnits="userSpaceOnUse" spreadMethod="pad"><stop offset=".3" stop-color="#717a45"/><stop offset="1" stop-color="#2b2c18"/></radialGradient><radialGradient id="i" cx="0" cy="0" r="819.2" gradientTransform="matrix(-.01 0 0 .01 .75 -2.25)" gradientUnits="userSpaceOnUse" spreadMethod="pad"><stop offset=".3" stop-color="#717a45"/><stop offset="1" stop-color="#2b2c18"/></radialGradient><radialGradient id="h" cx="0" cy="0" r="819.2" gradientTransform="matrix(-.01 0 0 .01 3.25 -3.2)" gradientUnits="userSpaceOnUse" spreadMethod="pad"><stop offset=".3" stop-color="#717a45"/><stop offset="1" stop-color="#2b2c18"/></radialGradient><radialGradient id="g" cx="0" cy="0" r="819.2" gradientTransform="matrix(.06 0 0 .06 5 -34.55)" gradientUnits="userSpaceOnUse" spreadMethod="pad"><stop offset=".2" stop-color="#645f27"/><stop offset=".7" stop-color="#4f4520"/></radialGradient><radialGradient id="f" cx="0" cy="0" r="819.2" gradientTransform="matrix(.03 0 0 .03 1.6 -25.7)" gradientUnits="userSpaceOnUse" spreadMethod="pad"><stop offset=".2" stop-color="#988e3d"/><stop offset=".7" stop-color="#5a4f25"/></radialGradient><radialGradient id="e" cx="0" cy="0" r="819.2" gradientTransform="matrix(.06 0 0 .06 7.1 -46.2)" gradientUnits="userSpaceOnUse" spreadMethod="pad"><stop offset=".2" stop-color="#988e3d"/><stop offset=".7" stop-color="#5a4f25"/></radialGradient><radialGradient id="d" cx="0" cy="0" r="819.2" gradientTransform="matrix(.06 0 0 .06 8 -44.45)" gradientUnits="userSpaceOnUse" spreadMethod="pad"><stop offset=".2" stop-color="#645f27"/><stop offset=".7" stop-color="#4f4520"/></radialGradient><use xlink:href="#a" id="o" width="44.6" height="22.3"/><use xlink:href="#b" id="l" width="9.6" height="23.6"/><g id="b"><path fill="url(#c)" d="M5.9 22.9q-3.4-6.5-5.9-9Q1.2 3.9 2.7 0l6.1 1.6q-2.5 9.3-3 21.3" transform="translate(.4 .4)"/><path fill="none" stroke="#000" stroke-linecap="round" stroke-linejoin="round" stroke-opacity=".3" stroke-width="__RESOLUTION__" d="M6.3 23.3q.4-12 2.9-21.3L3.1.3Q1.4 4.4.3 14.3" vector-effect="non-scaling-stroke"/></g><g id="p"><path fill="#b7a973" d="m20 2.2.3-.5-1.5.3.3 1.1h2.3l1-1L21.3 1h-2.2l-1.7 1 .3.8-.3-.8 1.8-1h2.1l1 1.1-.9 1h-2.3L18.8 2l1.4-.3zm1.4 2-2.5.1-1.8-.9-.8-2L18.4.3l3-.2 2 2.3-.1.5-.7 1-.8.2zm-2.2-.3-1.3-.6zm2.3-.1-1 .2z"/><path fill="#645f27" d="m16.3 1.4.8 2 1.8.9 2.6-.1-1.4.4-1.7 3.5-.3.9V4.9l-.7-.2-1.2-2.5v-.7z"/><path fill="url(#d)" d="m11.7-49.5.4-.1.8-.3.7-1Q12-42.7 9.9-36.2l-.5 1.4L3-13.2l-1 .4-.4.2-.5.3.1-.5-.1.5-.1.1-.4 1.6v.3l-.2.9h.2v-.9l-.2.9h.2l-.1.7.6 1.9.7-2.4v-.1L-1.3 1.5l-1.1.9h-3l-.8-.7.8-1.5 1.7-.1 1.3-2.6.4-.9.7-2.9v-.5l.2-.5.6-2.9.5-.3 3.2-14.4 1-1.5 4-15 .6-4.2 1.7-3.5zM9.4-37.1l.1-1zM9-41l-.6 3.3-.9-.2.4-1.3-.3 1.3.8.2zM.1-7l.4-1.7zm6.8-24.1L6.8-30l.4-.2 1.1-5.4-2.1 4.8-.2 3 .2-3 2.1-4.8L7.1-30l-.3.2zm3-8 .7-3zM1.8-13.7l-.3 1zm.3-1.1-.1.5zM.4-9.5 0-8.2zM11-44l1-5.6zM-.3-5.5l.2-.8z" transform="translate(9.75 53.75)"/><path fill="url(#e)" d="M6.5-51.5 7.7-49l.7.1-.1 4.1.4-.9-.5 4.3-4 15L3-25 0-10.4l-.5.3-.7 2.9h-.2v1h-.2l-1 3.9L-3.7 0l-1.7.1 1-1.6.1-.4Q-2.6-7.2-1-13.6 1.7-23.9 4-36l.2-.9.3-1.6L5-41l.1-.9.2-1 .3-1.5v-.1l.5-2.4.3.7.1.2-.2 1 .3-1-.2-.2-.4-.6zM.4-14.8-.2-13l-.6-.3-.3-.4.3.4.5.3zm6.7-31-.5-.2.4-3-.4 3zm.5 4.5v-.3l.6-2.1-.5 2.1zm-.6 2 .3-1zm.6-2.2-.7-.3-1 5-.7-.2.3-1.1-.3 1.1.7.3 1-5.1zM6-36.7l-.3 1.5zm-1 .9-.5 2.4zm-1 5.4-.5 1.8zM1-18.6l.6-3zm2-8.2-.8 3.4zm-4 17 .9-3.2z" transform="translate(9.75 53.75)"/><path fill="#373015" d="m15 10.9-.2 1-.1.9-.4 2.4-.5-2.2.5-2zm-3.5 33.5-.7 2.5-.6-1.9v-1l3.1-1.8.1.2.5.3zm0 0-1.3.6z"/><path fill="url(#f)" d="m-1.2-7.3-.2.5v-.5zm-.2 1-.7 2.9-.4 1z" transform="translate(9.75 53.75)"/><path fill="url(#g)" d="m3-13.3 1-.3-.5 1.3.2.9L.5-9.6l.1-.8v-.3l.4-1.6.1-.1.5-.3.4-.2z" transform="translate(9.75 53.75)"/><path fill="#807733" d="M13.8 40.2h.8l.2 1.1-.7 1.4-.1.1-.5-.3v-.2l-.2-.9z"/><path fill="none" stroke="#000" stroke-linecap="round" stroke-linejoin="round" stroke-opacity=".3" stroke-width="__RESOLUTION__" d="m17.7 2.8-.3-.8 1.8-1h2.1l1 1.1-.9 1h-2.3L18.8 2l1.4-.3-.2.5m1.4 2 .4-.1.8-.2.7-1 .1-.5-2-2.3-3 .2-2.1 1.1h-.1v.8l-.4 4.7.3.6.2.2-.2 1m1.8-5.4 1.3.6m1.4 0 .9-.1m-5.7 3.1-.5 2.3h0v.2l-.2 1.5-.2 1-.2.9-.4 2.4-.4 1.7m-.2.8q-2.3 12.2-5 22.3l.4.5.5.2.5-1.8m6.7-34-.5 2.8.6.3M15 10.9l-.8.1-.5 2 .4 2.3m5 .4-.1.9m-1.6-2-.3 1.4.9.1.6-3.2m-.8-2.8-.5 2.2-.1.2m-.2 1-.3 1m-1.5 1.1-.2 1.2.7.2 1-5 .6.3M4.3 54l-.9 1.5m5-.2 3.2-11v.1l-1.3.6h0l-.5 1.8m13.5-44q-1.4 8.2-3.7 14.7l-.5 1.4v.1l-6.3 21.5 1-.4h0l.8.1.2 1.1-.7 1.4-.1.1-2.4 1.6m3.9-25.8.3-1.6m-1.6 3.4.6-2.5m-1.7 7.2.5-1.9m2.2 2.9.1-3.1 2.2-4.7-1.2 5.3-.3.2v-1.2m3.6-11-.7 3m-8.1 17.5-.7 3m.2 6.3.4-.4.3-1m-.2 1 .3-.1 1.1-.4m-1-1 .1-.5m-1 2.4.1-.6m-.7 3.3v.9h0m0-1.7-.2 1h.2m0-1v-.2l.4-1.6.2-.1m-.6 2.7v-.8m-.6 2.3.4-1.4m1.8-13.8.8-3.5m9.1-22.8-1 5.6M8.4 46.4v.6m-.2.5-1 3.8M4.3 54l1-1.7V52q1.8-5.6 3.5-12m.8 7.4-.2.8m.2-7.5-.8 3.1" vector-effect="non-scaling-stroke"/><path fill="#2b2711" d="m6.1 41.4.4.1-.2 7h1.3l.5 3.6 1.8-4.7 1.7.5L9.8 51l-1.5 4.7-.8.4h-.4l.4-1.7-.3-2.4-1.4-.9-.9-1.9v-1.5l-.3-.2.1-.6.4.3.5 1V48l.6 1zm-3.2 7.1h.5l.3-.4.5.5-1.8.4-.2-.5v-.2z"/><path fill="#483f1e" d="M7.1 56.1H4.5l-1.3-.7.2-.2 1.7-2.7-.2-3.3.9 2 1.4.8.3 2.4zM5.6 48v-4.8l.3-2 .2.1V49z"/><path fill="#6c5f2d" d="m4.6 47.6-.3-.3-1.5.5.1.7-.7-.2v-1.1l2.2-.6.3.3zm1-4.3-.1-2.1.3.1z"/><path fill="url(#h)" d="M-.7 0Q.8-3 1.8-4l2.2.7Q2-.6.5 3.2 0 .9-.7 0" transform="translate(9.75 53.75)"/><path fill="none" stroke="#000" stroke-linecap="round" stroke-linejoin="round" stroke-opacity=".3" stroke-width="__RESOLUTION__" d="M10.3 56.8q1.4-3.6 3.4-6.4l-2.1-.7q-1 1.1-2.5 4.1" vector-effect="non-scaling-stroke"/><path fill="url(#i)" d="M-2 .8q.9-3 1.6-4l1.7.8Q-.1.3-1 3.9q-.3-2.2-1-3.1" transform="translate(9.75 53.75)"/><path fill="none" stroke="#000" stroke-linecap="round" stroke-linejoin="round" stroke-opacity=".3" stroke-width="__RESOLUTION__" d="M8.9 57.7q.8-3.7 2.1-6.4l-1.7-.8q-.7 1-1.6 4" vector-effect="non-scaling-stroke"/><path fill="url(#j)" d="M-5.5 4.5q-2-3-3.8-5.1l1-1.4q1 .8 2.8 3.2-.3 1 0 3.3" transform="translate(9.75 53.75)"/><path fill="none" stroke="#000" stroke-linecap="round" stroke-linejoin="round" stroke-opacity=".3" stroke-width="__RESOLUTION__" d="M4.2 58.3Q2.3 55.2.4 53.2l1-1.5q1 .8 2.8 3.2" vector-effect="non-scaling-stroke"/><path fill="#fcd844" d="M17 28.9q1.1-.7 2.6-.7h1l.6.2q.8.7.8 2.2 0 1.1-1.1 2.4-1.2 1.4-2.5 1.4-2.8 0-3.6-1.9l.1-.9q.3-1.2 1.2-2.1zm2.7 9.1-.9-.6-.3-.1q.7-.6 1.8-.6l.4.3-.2.1zm1-7.7v-.1l.6-.2h-1.5l-.3 1zl-.4.6zm-.6 1.1 1-.1-.8-.4zm2 4 .6-.1-1 .9zm-3.9-6.1v.8zm1.5.8.5-1.4q-1.1.4-1.6 1.6.4-1.2 1.6-1.6z"/><path fill="#d1a703" d="M21.2 28.4q1 .4 1.9 1.1.7.8 1 1.6l.1.3.2.4v1q0 1.3-.6 2.4l-.7.8q-.8.8-1.7 1.1l-.3.1-.9 1.1-.6-.3.8-.9.2-.1-.5-.4q-1 0-1.7.6Q17 37 16.2 36l-.5-.5q-.6-.7-.8-1.5v-.2l-.2-.6v-.6q.9 1.8 3.7 1.8 1.3 0 2.5-1.4 1-1.3 1-2.4 0-1.6-.7-2.2m-.6 1.8-1.2.6.3-.9h1.6zm-.4.7.9.4-1 .1zm1.9 4.5-.4.8 1-1z"/><path fill="#b89403" d="M24.4 31.8q1 2.7.5 5l-1.1-1.6q.6-1.1.6-2.4zm-8.7 3.7q-.3 1.1-.5 3l-.3-.6-.2-.4.2-3.5q.2.8.8 1.5"/><path fill="#fbc904" d="M14.8 37.5q-.6-1.7 0-4.4v.6l.1.3z"/><path fill="none" stroke="#000" stroke-linecap="round" stroke-linejoin="round" stroke-opacity=".5" stroke-width="__RESOLUTION__" d="m15.8 26.2.6 1.3.4-.7m.1 2.1-.5-1.4h0-1.1m4.6-2.5q.6-1.2 1.4-1.6m-.7 1.7q.6-.6 1.3-.5m-.7 1.3.8-.3" vector-effect="non-scaling-stroke"/><path fill="none" stroke="#000" stroke-linecap="round" stroke-linejoin="round" stroke-opacity=".3" stroke-width="__RESOLUTION__" d="M17 28.9q1.1-.7 2.6-.7h1m.6.2q1 .4 1.9 1.1.7.8 1 1.6l.1.3.2.4q1 2.7.5 5l-1.1-1.6-.7.8q-.8.8-1.7 1.1l-.3.1-.9 1.1-.6-.3-.9-.6-.3-.1h0Q17 37 16.2 36l-.5-.6q-.3 1.1-.5 3l-.3-.6m-.2-.4q-.4-1.7 0-4.4v-.5m.2-1q.3-1.2 1.2-2.1l.8-.6m3.8 1.3-.1.1-.4.6-.1.5m4.3.4v1q0 1.3-.6 2.4M18 30l.1-.7m1.5.7-.3 1 1.2-.7m-5.8 3.4v-.6m.8 2.4q-.5-.7-.7-1.5m3.7-3.8q.4-1.2 1.6-1.6l-.5 1.4" vector-effect="non-scaling-stroke"/><path fill="none" stroke="#000" stroke-linecap="round" stroke-linejoin="round" stroke-opacity=".5" stroke-width="__RESOLUTION__" d="m21.7 36.2.4-.8h-.8m1.3-1.1-.5 1.1.6-.1m-6 .3.6.1-.5-1.1m1.3 1.1h-.8l.4.8" vector-effect="non-scaling-stroke"/><path fill="#714a31" d="m17 6.3 1.4 2 3.2.2v-.1l.8-2.5 1.5-1.2-.1 1.3H25l-.6.9 1.3.2-2.5.8-.3.1h-.1L22 9.5l-1.8.1-3.1-1-.1-.1-.6-1.6zm4.3 4.3q-3.3.4-5-.6l-.2-.7.8-.8 3.2 1.1H22zm.2-2.2 1.1-.4zm-2 9.5v-.3l1-3V19l-1-.5zm-1.7 9.6.7-.4v-1.2l1.1-.7h.4l.8.7v.2h-.1l.8.2.5 1-.1.6-.6.6-.9-.3-2 .1-.6-.7zm2.6.8-.6-1.2.4-1h.5-.5l-.4 1z"/><path fill="#b27c4d" d="M23.2 7.9q0 1-.6 1.5.3 1-1.1 1.2h-.1l.6-1v-.1l.8-1.5zM16.4 10q-1-.5-1.4-1.5l-.2-.7.8-.8v-.1l-.4-1.4V4.3L16.5 3 16 4.3l1 2-.7.6.6 1.6-.8.8zm5.6-.5h.1l.4-.1-.4.1zm-5-1-1.3-1.6zm2.7 10 1 .5.3 6.9-.8-.7h-.5.1l-1.1.8v1l-.7.3-.1-1.3.9-1h.9z"/><path fill="none" stroke="#000" stroke-linecap="round" stroke-linejoin="round" stroke-opacity=".3" stroke-width="__RESOLUTION__" d="m17 6.3 1.4 2 3.2.2v-.1l.8-2.5 1.5-1.2-.1 1.3H25l-.6.9 1.3.2-2.5.8q0 1-.6 1.5.3 1-1.1 1.2h-.1q-3.3.4-5-.6-1-.5-1.4-1.5l-.2-.7.8-.8v-.1l-.4-1.4V4.3L16.5 3 16 4.3zm-.2 2.2h.1l3.2 1.1H22l.4-.2m.3-1.4-1.2.4m1.6-.5-.3.1m-7.3-1.1 1.3 1.6m2.7 9.4v7.2h.1l.4.1.8.7-.2-6.9-.1-4.4m-1 10.5h-.9l-.9 1 .1 1.3v.3l.7.6 1.9-.1.9.3.6-.6.1-.6-.5-1-.8-.2h0v-.2m0 .2h-.5l-.4.8.6 1.3" vector-effect="non-scaling-stroke"/></g><clipPath id="k"><path d="M1 1h26v59H1z"/></clipPath><path id="a" fill="#000" fill-opacity=".3" d="M22.4 22.4Q13 22.4 6.6 19T0 11.2t6.6-7.9T22.4.1 38 3.3t6.5 7.9-6.5 7.9-15.7 3.3M5.9 6.2h.3z" transform="translate(0 -.05)"/></defs><g clip-path="url(#k)"><g transform="translate(10.75 54.75)"><use xlink:href="#l" width="9.6" height="23.6" transform="matrix(-.2884 .0293 .0293 .2884 -3.95 -4.25)"/><use xlink:href="#o" width="44.6" height="22.3" filter="url(#filter-object-2)" transform="matrix(.2448 0 0 .1894 -7 -.25)"/><use xlink:href="#p" width="25.9" height="58.6" transform="translate(-9.75 -53.75)"/></g></g></svg>