<svg xmlns="http://www.w3.org/2000/svg" xmlns:xlink="http://www.w3.org/1999/xlink" width="77" height="100" viewBox="0 0 77 100"><defs><clipPath id="a"><path d="M1 1h75v98H1z"/></clipPath><g id="b"><path fill="#2e1700" fill-opacity=".5" d="m58.6 44.8.1-2.8-48-24.5-.5 4.1-2.6-1.5V12l7.1 3.7v-9l6.8 3.5v2.5L61 33.1v-2.2l6.6 3.6v9l7 3.7v8.2l-3.5-1.8q3.4 12.7-.5 20.5l-.3-.9-.2 2.4q-1 2.3-2.5 4.1 1.8 7 5.6 1.6l.1 14.1q-2.6-9.6-5.7-7.5v9.8l-1.4-.8v-3.4h-2.7l.4 2.1-3-1.5v-9.7q-7.3-13.4-12.3.2-3.9-11.1-8.7-10.2-9-11.4-11.8 0-3.3-10.8-6.7-10.8-1.7 4 0 9.7l-6.8-3.5V60h-.1l-7-3.7v-6.4L57 75v-.9l.8.4v-2.8l4.7 2.5L67 61.6 66 48l-6.7-5.3z"/><path fill="#2e1700" fill-opacity=".7" d="m58.6 44.8.7-2.1L66 48l1 13.6-4.4 12.6-4.7-2.5V50.1l-.9-.4z"/><path fill="#0d1417" d="M16.6 19.3v-1.9l.6.7 2.7 2.9.5.5 2.3 2.7 2.8 3.3q-2.7-.3-4.6.6l-.5.1-.1.1-.1-.1-1.8-2.8-1.1-1.9-.7-1zm14.3 11h.9l3.4.7 1.6.4 1 .3 3.5 1.2 1.3.6.9.4-.8 1.4.3.8 7 2.1-6.1-.6h-7.1v-.1l-1-1.7-1.3-1.7q-1.6-2-3.6-3.8"/><path fill="#2c5b04" d="m19.9 21 29.3 15.4-5.7-2.5-1-.4-1.2-.6-3.5-1.2-1-.3-1.6-.4-3.4-.8h-.9L29 29l-.7-.4-1-.3-1.6-.7h-.3l-2.8-3.4-2.3-2.7zm31.6 16.6 5.6 3v30.8l-2.5-1.3q.3-1.8 0-4.2l-.3-1.4q-1.2-4.5-4-7.8l-1-1-.2-.3h2.1l1-3.3-.5-1.4.7-.2V50l-.1-1.3-1.1-1.5-1 .3.4-2.5v-2l-.9-1.9-1.1-.7-.1 1.4v2l-.4 2.5-1-.4v.5-.6H47v-.3q-.7-3-.8-4.9l-.1-1-1.3-1.3-.6 2.3.3 3 .4 2.5.2.8.1.6.1 1.1-.3.4v.7l-.1 1.9 1 1.2v1l-.3-.2-1.5-.5h-.2l-.4-.1-1.2.3-.8-.4.2-.7-.1-.3-1-.9v-1l3.6.9v-.1l-.4-1.8-1.2-.8-.3-2-5.5-2.3-.3-.9-.1-.5.4-4.8H44l6.1.6h.5l.5.1q1.3.1 3 1.5zm-32.3 14-5-2.7V18l2.4 1.3v3.2l.6 1 1.2 1.9 1.8 2.8v.1l-.3.3.4 5.4v.4l-.2-.1-.4.5-3.1-2v7.5l1.9.3.2 1.1.9.5-1.5.1v.3l.5.8h.1l.2.2-.1.1-.4.6q-1.1 1.4 0 5.3l.8 1.8z"/><path fill="#283f44" d="m49.2 36.4 1.5.7.8.5 2.5 2.2q-1.7-1.4-3-1.5h-.5l-.5-.1-7-2-.3-.9.8-1.4z"/><path fill="#c1a76c" d="m54.6 70.1-1-.5q0-2.1-1-4.7-1.1-2.8-3-4.8v-1.6l-.1.1-.2-.3-.1-1h-.1L49 57l.3-.9 1.3 2.7 1.3 1q1.2.6 2.4 4.6l.3 1.3q.3 2.5 0 4.3M49 67.2 46.8 66q.2-1.9 0-3.9-.4-2.7-1.6-5.6l.4.4q1.6 1.2 2.9 3.4l.3 2q.4 2.6.2 4.9m-8.7-4.6-.6-.4.5-1.1.1-.3zm-13.7-7.2-2.4-1.3.7-.6.4-.6q.3-.5 0-1.1l-.3-1.2.1-.3.6.7.7 2-.7 1.3.9 1zm-7.4-3.8v-.2zm-.3-8 .6 1.2 1.3.1.4 1.7q.2.5 1 .8l.5.5.2.4.6-.6h.2v.1h.2l1 2.2.1.2-.1.1h-1.2l-.2-.1h-.3q-1.6-.6-2.6-1.6-2.1-2.8-1.9-4.9zM44 53l1.5.5.3.1v.3l-1-.5-.5-.3zm-14 1.8v-.2zm-1.5.5h-.2v-1.2z"/><path fill="#8f4107" d="M53.7 69.6 49 67.2q.2-2.3-.2-4.9l-.3-2 1.1-.2q1.9 2 3 4.8 1 2.6 1 4.7m-14-7.4-5.2-2.7-.3-1.2q-.2-1.6 1.6-4.6l.3-.3 1 1 1.4-1.2v-.4l-.7-.6 1.4-.1 2.1 1.7.3-1 .8.4 1.2-.3h.4v.1q-2 .8-2.9 1.9t-1 2.3v2.9l.2 1zM29 56.7l-.7-.4v-.9h.3zm-2.2-1.1-.2-.2v-.1zm-2.6-1.5-5-2.5v-.2l-.7-1.8q-1.2-3.9-.1-5.3l.4-.6q-.3 2.1 1.8 4.9 1 1 2.6 1.5l.3.1h.2l1.2.1.1.3.3 1.2q.3.6 0 1.1l-.4.6zM49 55.4l.2.3 1 1q2.8 3.3 4 7.8-1.2-4-2.4-4.6l-1.3-1-1.3-2.7v-.4l-.3-.2zM30.4 55l-.2.5v-.6z"/><path fill="#f3ecc7" d="m46.8 66-6.5-3.4v-2.1l.1.2.7-1.5V59q.9-1.7 2-2l1-.3 1-.2q1.3 3 1.6 5.6.3 2 0 4m-2.9-13.2.3.1.3.1H44zm-21.7-5.5q-.8-.3-1-.8l-.4-1.7 1.2.2-.3 1-.3.5zm1.3.3.3-.3.1.4zm22.1 7.4-.3-.5-.4-1.3 1 .5zM49 57v-1.4l.3.2v.4z"/><path fill="#081410" d="m34.4 59.5-4.5-2.4.7.2-.5-1.8.2-.5 1.6 2.2.5-4.1h.2l.3-.6.5 1.4h1.8l-.4-1.6 1.2 1.1-.3.3q-1.9 3-1.6 4.6z"/><path fill="#a58c54" d="m29.9 57.1-1-.4-.3-1.3-.3-1.2v2.1l-1.5-.7-.2-.3-1-1 .8-1.3-.2-3.4 1.2 1 .6-.4-.2-3 .3.1h.2l.4.4-.2 2.7.6 1 1.2.3-.2 3.7v.1l.5 1.8zm-7.7-9.7-.8-.8.3-.6.3-.9 2.2.1-1.5 2.7zm1.6 0 .9-1.8.7 3.1-1.5-.9zm1.1 2.9.1-.1.1.1-.1.3zm6.9-1 .8 2.4-.4.5-1.1-.5z"/><path fill="#7b6139" d="M20.3 28.3h.1l.5-.2q1.9-.9 4.6-.6l.3.1 1.7.7.9.3.7.4 1.8 1.2v.1q2 1.8 3.6 3.8l1.3 1.7 1 1.7v.1l-.4 4.8v.5l-.7-.3-2.5-6-2.5-3-2.3-1.8-2.3-.6-2.5.3-2.9 3.6-.4-.4V34l-.4-5.4z"/><path fill="#614730" d="M16.6 33.3v-.5l3 2 .5-.5.1.1v.1l.1.2L20 36l1.8 1.8-.1.2-2.2-1.8v-.7zm11.8 13.9.4.3-.1-1.3.3 1.8 1.8.5-.3-.8.1-.2 6.4 6 .8-.7-2.9-3v-.4l2.6 1.5v-.2l-2.2-1.9-.1-.4.2-.1 5.5 4.7.4-1-4.7-4-.2-.5.3-.1 3 2.5.6.2v-.9l-.7-.4-.2-.1-1.1-.7 1 .4h.1l.1-.1 1.2.5v.3l3.1 1-.2-1-1.1-.7-.4-2.1-5.1-1.9v.7l-2-.3-.2-.3h1.7l-.2-1.2-3-.7v-.3l-.2-.2-1.4-.5-3.3-1.7h.2v-.3l-.2-.3 4.6 2 2.8 1.2.8.3.3.9 5.5 2.2.3 2.1 1.3.8.4 1.8-.1.1-3.5-1-.1 1.1 1 1 .1.2-.2.7-.3 1-2.1-1.7-1.2-.9-.2.5-.9-.4.9.9.6.6.1.4-1.4 1.1-1-.9-1.1-1 .3 1.5h-1.8l-.5-1.4-.3.6h-.2l-.2-.4v-.5l.4-.5-.8-2.4-.1-.1-.3-.3v.4l-.7-.1-1.6-.4-.3-.4-.1-.7z"/><path fill="#fbf3d9" d="M16.6 34.8v-1.5l3 2.1-.1.7 2.2 1.8.1-.2L20 36l.3-1.2.4.4 1.9 1.5.6.6v.2l2.4 2 .2-.2 5 2.7 2.2.4.2.1v.3l3 .7.2 1.1-1.7.1.1.3 2.2.3-.1-.7 5 1.9.5 2.1-.1.3-5-2.8 2 2.4-.1.1-1-.4 1.1.7.2.1.7.4v.9l-.6-.2-3-2.5-.3.1.2.4 4.7 4.1-.4 1-5.5-4.7-.2.1-.8-.5.5 1.5v.4l2.9 3-.9.7-6.3-6-.1.2.3.8-1.8-.5-.3-1.8.1 1.3-.4-.3-.5-.2V46l-.2 1.7v.1l-.2-.2-.2-.1-1.9-1.5 1.2-1-.7.5-1.3-.6-.2.3-3.6-.2h-1.2l-.6-1.3-.1-.2V43h2.8l.1-.3-.1-.3.5-.9-.8-.3-.2-.3-2.5-.5-.1.2-2-.3v-1.9h.2v.3l.2.1 3.1.6v-.3l-.1-.3-3-.6-.3-.3v-1l.4.3.1-.2 1.1.6-1.1-.8 2-.4-1.4-.6-.1-.4zm6.6 4.2-.1.1-.4 2.3.2.3 1.3.4.3.8.8.2v-.3l-.2-.4 1 .2v-.3l-2.9-1.1.3-1.4 1.2 1 .2-.3-.1-.1zm7.2 5.6v.3l.8.8-.1.2v.3l.9.7.3-.5 1.3.9.1-.2-.4-2.6v-.2l-1.7-.3.1.4.1.1 1.2.3.2 1.6z"/><path fill="#a78052" d="M16.6 36.9v-.5l.5.4 1.1.8-1.1-.6-.1.2zm0-1.7v-.4l1 .6.1.4zm0 2.7.3.3 3 .6.2.3-.1.3-3.1-.6-.1-.1-.1-.3v-.1h-.1zm1.9 2.7v-.2l2.6.5.2.3-.1.3-2.2-.4v.2l2.6 1.1.1.3-.1.3h-2.9v.4h-.1l-.5-.8v-.3h1.5l-.9-.6zm2.3 4.2 3.4.2.3-.3 1.3.6.7-.5-1.2 1 1.9 1.5-1.5-1.1-.5-.4.2-.2.2-.2h.1l-.4-.3h-.4l-.2.4-1 1.8-.2.3-.6.6-.2-.4 1.5-2.7L22 45l-.3 1 .3-1zm6.8 2.7.3-1.7-.1 1.2.5.2h-.5zm-1.8-8.4-.2.2-2.4-2v-.2l.1-.2 4.9 2.3.1.1.2.3v.3h-.2l-2.6-1zm-2.6-.2 1.6 1.4v.1l-.1.3-1.2-1-.2 1.4 2.8 1.1v.3l-1-.2.3.4-.1.3-.8-.2-.3-.8-1.3-.4-.1-.3.3-2.3zm7.2 5.5 2.8 1.8-.2-1.6-1.2-.3h-.1l-.1-.5 1.6.3.1.2.4 2.6-.1.2-1.3-.9-.3.5-.8-.7-.1-.3.1-.2-.8-.8z"/><path fill="#e1cfa8" d="M16.6 36.4v-1.2l1.1.6 1.4.6-2 .4zm4.7 4.8.8.3-.5 1-2.5-1.2-.1-.2 2.2.4zm13.5 8.3-.5-1.5.8.5.1.4 2.2 1.9v.2zm4.5-1-2-2.5 5 2.8v-.3l1.2.7.2 1-3.1-1v-.3l-1.2-.5zm-6.3-6-2.1-.5-5.1-2.7V39l2.5 1 3.3 1.7z"/><path fill="#c27b05" d="m27.2 47.4.2.1v2.2l-.6-.2-1.1-3.2zm-1.8-2 .2.1-.2.2zm3.7 3.4 1.6.4-1 1.8-.7-.4z"/><path fill="#985605" d="m27.4 47.5.2.2.2-.5.2 3-.6.4-1.2-1-.7-.5-.1-.4-.7-3 .2-.5h.4l.1.2v.3l-.2.2.5.4 1.1 3.2.6.2zm-1.6-.5-.3-.3.2 2.2h.2zm2.9.7.1.7.3.4-.1 1.8.7.4 1-1.8.7.1V49l.3.3v.1l-.6 2.4-.2.2-.6-.2-1.2-.3-.6-1zm2 2-.2 1.7.3.2.1-2z"/><path fill="#634f2e" d="M33.2 42.4H33l-1.4-.7 1.4.5zm-10-5.2-.6-.6h.1q2.3-.2 5.6 1.6l.2.1q2.5 1.2 4.4 3l-4.6-1.9h-.1L23.3 37zM25 32q1.7.2 3.4 1.1 1.6.8 3.4 2.4v.1l-.9.2-2.5-1.6-2.6-1z"/><path fill="#bdb284" d="m22.6 36.6-1.9-1.5 2.9-3.6 2.5-.3 2.3.6 2.3 1.8 2.5 3 2.5 6-2.8-1.3q-1.9-1.8-4.4-3h-.2q-3.3-1.9-5.6-1.7zm9.2-1v-.2Q30 33.8 28.4 33v.1q-1.7-.9-3.4-1.1v.1l-.3 3.1.8.1.9.3 2 .8 2 1.3.8.6.8.7z"/><path fill="#3d2e1d" d="m25 32 .8 1-.3 2.2-.8-.1zm5.9 3.6.9-.2.2 3.4-.8-.7z"/><path fill="#000" d="m25.8 33 2.6 1.1 2.5 1.6.3 2.5-.8-.6-2-1.3-2-.8-1-.3zm3.4 2.7v.5zm-1.6-.8v.6zm-2 10.6h-.2l-.1-.3z"/><path fill="#162525" d="M45.9 53.6v-.9l-1-1.2v-1.9l.8.3.7.9.4.8.2-1h2.4l-.1.4.8.4 1.6-.7.5 1.4-1 3.3H49v1.9l.1 1.7-1.1-.1q-1-.8-1.8-2l-.5-1-.2-.5.1-.2.3-1.3z"/><path fill="#2e484b" d="M45 49.6v-.7l.4-.4.9.1v.1h.4l.3-.1.8-.4 1 1v-.3l.6-.7-.8-.8-.1-3.7v-2l.1-1.4 1.1.7.9 2v1.9l-.4 2.5 1-.3 1.1 1.5v1.3l-2.8.1-.1.5-2.4.1-.2 1-.4-.8-.7-.9zm-.5-6.2-.3-2.9.6-2.3 1.3 1.3.1 1q.1 2 .8 5v.2l.1.6v1.2l-.9-.4H46z"/><path fill="#101b1b" d="m45.4 48.5-.2-1.1-.1-.6-.2-.8-.4-2.6 1.5 3.7h.2l.9.4v-1.7l1 .4.4-2.5.1 3.7.8.8-.5.7-.1.2-1-1v.1l-.8.4-.3.1h-.4v-.1zm7 1.3.1.6-.7.2-1.6.7-.8-.4.1-.5V50z"/><path fill="#e4a207" d="m25.8 47 .1 2-.2-.1-.2-2.2zm4.9 2.6h.2l-.1 2-.3-.2z"/><path fill="#c9a961" d="M25.4 48.7v.4l.8.5.2 3.4-.7-2-.6-.7-.1-.1-.1-.2-1-2.2zm6.8 3.5v.5l.2.4-.5 4.1-1.6-2.2-.1-.2H30v.6l.2-3.7.6.2.2-.2z"/><path fill="#f9eabb" d="m37.7 52.2-.9-.9.9.4.2-.5 1.2.9zm11.1-3.3v.2z"/><path fill="#e98103" d="m40.2 61.1-.1-1v-2.9q0-1.4.9-2.3 1-1.1 2.9-1.9h.1l.4.1.5.3.4 1.3.3.5-.1.2.2.5-.5.6-1.1.2-1 .2q-1.1.4-2 2.1v.2l-.7 1.5-.1-.2v.3z"/><path fill="#94723a" d="m45.2 56.5.5-.6.5 1q.8 1.2 1.8 2l1.1.1v-1.7h.1v1l.3.3h.1V60l-1.1.2q-1.3-2.2-3-3.4z"/><path fill="none" stroke="#280f06" stroke-linecap="round" stroke-linejoin="round" stroke-opacity=".5" stroke-width="__RESOLUTION__" d="M20.2 28.2v.1M37 37.6" vector-effect="non-scaling-stroke"/><path fill="none" stroke="#f3ecc7" stroke-linecap="round" stroke-linejoin="round" stroke-width="__RESOLUTION__" d="M29.2 36.2v-.5m-1.6-.2v-.6" vector-effect="non-scaling-stroke"/><path fill="#834a07" d="m16 10.5.8-1 1.3-.2 1.5 1.4-.1 1.6L19 14l32.6 17.2-.3-.9 1-1.5 1.5-.2.9 1v-4.3l1.3-.9 6.7 3.5v6.4l1.5-.2 1.4 1.4-.2 1.7-.5 1.5-2.5-.8-.4-1.3-.3-.9 1-1.4-1 1.4.3.9-.6-.3v.6l-6.7-3.5v.9l-5.4-2.8-29.1-15.3-5.1-2.7-6.7-3.6v-9L9.7 0l6.7 3.5V10zl-.4.4.6 1.6.2.6 2.5.8-2.5-.8-.2-.6-.6-1.6zM1 6.1l1.4-.8 3.1 1.6-.2.5 1 1.4zm53.5 19.1q3.6 0 6.7 3.5v7.5-7.5q-3.1-3.5-6.7-3.5M16.3 12.5l-1.2-.6V4.4v7.5zm-1.2.9v-1.5zm39.6 16 .5.5-.2 1.7-.3 1.1-.2.4-2.4-.8-.5-1.2.5 1.2 2.4.8.2-.4.3-1 .2-1.8zm0 3.3v.6z"/><path fill="#bb6906" d="m64.9 38.6.2-.5 4.6 2.4v8.3l-1.3.9q2-3.6 0-8.3l-7-3.7v-1.5l.6.3.5 1.3zm1 9.8-.2 1.4-.5 1.5-2.5-.8v-.2 20.1l-1 1.4.8 2.2 2.4.8.2-.5 4.6 2.4v8.2l-1.3.9q1.8-3.2 0-8.3l-7-3.6v-24l-6.7-3.6v-3.8l8 4.3v.5l.3-.4zm-.5 35.8-.1 1.2-.5 1.5-2.1-.7V91l-1.3.9v-5.8l-2.2-1.2q-.7-1.6-1.5-1.9h-.1l-1.1.2-.2.2-1.6-.9v-1.2l-.2.5-2.4-.8-.8-2.2 1-1.4 2.4 1.2 7.8 4.1zm-46-24.1-.1.7-.5 1.6-2.4-.8v5.1l-1.3.9v-5.9l-2.2-1.1-.9-1.4-.7-.6q-.6-.1-1.1.3l-.2.2-1.6-.9v-1l-2-.7h-.1l-.8-2.2.8-1.1 1.9 1 .2.1v2.8-2.8l.9.5 3.2 1.6.6.4 3.2 1.6-.7 1 .8 2.2-.8-2.2.7-1zM1.3 42.2l1.3-.8 3.3 1.7.4 1.1 2.2.7V46zm7.2-20.4v-.2l-.9-.3-.7-.2-.5-.2-.8-2.1 1-1.5h.1l1.8 1v3.3-3.4l4.1 2.2.6.4v-.1l2 1-.1 3.8v24l-1.5-.8V24.6zm0-12-2-1 2-.2zm54.3 40.6-.7-2 .7-1-.7 1zm-.2 32.3-1 1.2.9 2.2.3.1h-.4l-.7-2.3zM55 80.2l-.3 1.1v-2.7 2.8zM9.3 55.7v-.9z"/><path fill="#a55f0a" d="m68.4 49.7-2.5-1.3-2.9-1.5-.3-.1-8-4.3-39-20.4-.3-.2-.3-.1-2-1.1-.6-.4v.1l-4.1-2.1-1.8-1-5.4-3q-2.3-4.5 0-8.2l5.2 2.7-1-1.4.2-.5.5-1.2 1.5-.9.8.7v3.1l-2 .2 2 1 6.7 3.6 5 2.7 29.3 15.3 5.3 2.8v-.9l6.7 3.5v1l7 3.6q2 4.7 0 8.3M12.6 16.1v-.3l-.2-.6-.7-.8q-.8-.6-.7.2 0 3.6 1.6 1.7zm5.5 6.3H18v.2zM57 39.5q1.4 3.1 1.7.9v-.9q0-.4-.3-.7l-.4-.2h-.4q-.5 0-.6.7zm-2.2-.5v.2z"/><path fill="#e6b100" d="m62.7 70.4 1.5-.2 1.4 1.4-.2 1.7-.3 1-.2.5-2.5-.8-.7-2.2zm5.7 15.4-3-1.6-3-1.5-7.7-4-2.4-1.3-21.4-11.3q-2.5-3.2-2.3-5.3 0-1.9 2.3-3l20.6 10.9 3.2 1.6V58l6.7 3.4V74l7 3.6q1.8 5.1 0 8.3m-7 6.1q-3.4.1-6.7-3.5v-5.9l1.6.9.2-.2 1-.2h.2q.8.3 1.5 2l2.2 1.1zM20.9 61l-.7-.4-.5-.4-.1.1-.2-.1-3.1-1.7-3.2-1.6v-.1l-.6-.3-3.2-1.6-1-.5h-.1l-1.9-1.1-5.1-2.7q-2.2-4.8 0-8.3L8.4 46v-1.1l-2.2-.7-.4-1-.4-1.2 1-1.4 1.5-.2.5.4v-6.6l5 2.6v11.9l1.7.8 5 2.7.8.4q2.1 3.1 2.1 5.2-.1 2-2.1 3M15 67.6q-3.4 2.1-6.7-3.6v-5.8l1.6.9.2-.2q.5-.4 1-.3l.8.6.9 1.4 2.2 1.1zm-2.5-15.4V52l-.3-.8-.8-.9q-.6-.3-.6.4 0 3.5 1.7 1.7zM8.4 46l5 2.7zm0-5.2V45zM57 75.6q1.2 3.2 1.7.8v-.6q0-.5-.4-.8l-.6-.2h-.5l-.3.6zh-.1zm-37.4-18 .3.2zm35 12.3 6.8 3.5z"/><path fill="#ca820b" d="m30.9 66.1-3.5-1.7q-3-3.8-3.1-5.9-.2-2.3 3.1-2.5l3.5 1.8q-2.2 1.1-2.3 3-.2 2.1 2.3 5.3"/><path fill="#ffff2f" d="m27.4 64.4-6.5-3.6q2-1 2.1-3 0-2-2.1-5.2l6.5 3.4q-3.3.2-3.1 2.5 0 2.1 3.1 5.8"/><path fill="#584632" d="m20.2 60.5-.6-.3v-.1zm-7.6-8.1v-.2zm7 5.2.3.2zm-6.5-.8-.6-.4.7.3z"/><path fill="#e9a50a" d="M8.4 34.2v-5.4l5 2.8v5.2zm53 23.4v3.7l-6.7-3.5V54z"/><path fill="#cf8305" d="M8.4 28.8v-7l5 2.8v7zm46.3 17.5 6.7 3.6v7.7l-6.7-3.7z"/><path fill="#3f3121" d="M12.6 16.1v.2Q11 18.2 11 14.6q-.1-.8.7-.2l.7.8.2.6zm0 36.3q-1.7 1.8-1.7-1.7 0-.7.6-.4l.8.9.3.8zm44.3-12.9v-.1q.1-.7.6-.8l.4.1.4.2q.3.3.4.7v.3l-.1.6q-.3 2.2-1.6-.9zm0 36.1.3-.6h.5l.6.2q.4.3.5.8l-.1.6q-.5 2.4-1.7-.8z"/><path fill="#ae8e5b" d="m12.5 20.4.6.3zl.6.3zm5.6 2v.2l-.1-.2M54.8 39v.2zM57 75.6"/><path fill="#634e34" d="m15 21.8.4.1.3.2.6.4v26.2l-1.2-.7V25.5H15zM15 48l1.4.7 38.3 20.2v.1l-3.2-.3-20.6-10.9-3.5-1.8-6.5-3.4-.7-.4-5.1-2.7z"/><path fill="#6d5c41" d="m51.5 68.7 3.2.3v1.3z"/><path fill="none" stroke="#422800" stroke-linecap="round" stroke-linejoin="round" stroke-width="__RESOLUTION__" d="m16 10.5.8-1 1.3-.2h0l1.5 1.4-.1 1.6L19 14l32.6 17.2-.3-.9 1-1.5 1.5-.2.9 1v-4.3l1.3-.9 6.7 3.5v6.4h0l1.5-.2 1.4 1.4-.2 1.7-.5 1.5-2.5-.8-.4-1.3-.3-.9 1-1.4m2.4 4 4.6 2.3v8.3l-1.3.9q2-3.6 0-8.3m-2.5 7-.2 1.4-.5 1.5-2.5-.8v-.2 20.1h0l1.5-.2 1.4 1.4-.2 1.7-.3 1 4.6 2.4V85l-1.3.9-3-1.6-.1 1.2-.5 1.5-2.1-.7V91l-1.3.9q-3.4.1-6.7-3.5v-7.1l-.2.5-2.4-.8-.8-2.2 1-1.4-21.4-11.3-3.5-1.7-6.5-3.6-.7-.3-.6-.3-.2-.1-.1.7-.5 1.6-2.4-.8v5.1l-1.3.9q-3.4 2.1-6.7-3.6v-6.8l-2-.7h-.1l-.8-2.2.8-1.1-5.1-2.7q-2.2-4.8 0-8.3l1.3-.8 3.3 1.7-.4-1.1 1-1.4h0l1.5-.2.5.4V21.6l-.9-.3m-.7-.2-.5-.2h0l-.8-2.1 1-1.5h.1m-5.4-3q-2.3-4.5 0-8.2l1.3-.8 3.1 1.6.5-1.2 1.5-.9.8.7V.8L9.7 0l6.7 3.5V10m-.3.5-.4.4.6 1.6.2.6 2.5.8m43 22.6-.6-.3v.6l-6.7-3.5v.9l-5.4-2.8m-29-15.3L15 13.4 8.4 9.8V8.6l-2 .2m2-.2v-3m53 30.6v-7.5q-3.1-3.5-6.7-3.5M63 46.9l-.3-.1v.5zm-.3.4-.7 1 .7 2M61.4 74l7 3.6M65 74.3l-.2.5-2.5-.8-.7-2.2 1-1.4m-10.4 7 2.4 1.2 7.8 4.1 2.9 1.5m-2.7 2h-.4l-.7-2.3.9-1.2m-7.8-28.8v16.4l-3.2-1.6M15.1 4.4v7.5l1.2.6m-1.2-.6v1.5M5.6 6.9l-.2.5 1 1.4m2 12.8v-3.4m6.7 3.6.3.1m-2.9-1.5.6.3m2 26V48l1.3.7-.1-26.2m-1.2-.7-.1 3.7M8.4 46v-1.1l-2.2-.7-.4-1m9.3 4.8v1.5l5 2.7M54.8 69 16.4 48.7m-1.3.8-1.6-.8L8.4 46m0-1.1v-4M51.6 31l.5 1.2 2.4.8.2-.4.3-1 .2-1.8-.5-.5m0 3.9v-.6m0 13.6v-3.8m0 36.1v2.8l.3-1.2M16.4 61.6l-.8-2.2.7-1-3.2-1.6-.6-.4-3.2-1.6v1m-1-1.5v2.8m-.1-2.9-1.9-1m3 1.6-1-.5m8 4.1 3 1.7m35.4-6.2v-7.6m6.7 27.1L54.7 70" vector-effect="non-scaling-stroke"/><path fill="none" stroke="#e6b100" stroke-linecap="round" stroke-linejoin="round" stroke-width="__RESOLUTION__" d="m68.4 49.7-2.5-1.3-2.9-1.5M6.6 17.3l-5.4-3m7.2 4-1.8-1m1.8 1 4.1 2.1m.6.3 2 1m.3.2.3.2m0 0 39 20.4 8 4.3" vector-effect="non-scaling-stroke"/><path fill="none" stroke="#6f0" stroke-linecap="round" stroke-linejoin="round" stroke-width="__RESOLUTION__" d="M8.4 54.3h-.2" vector-effect="non-scaling-stroke"/><path fill="none" stroke="#ecd68c" stroke-linecap="round" stroke-linejoin="round" stroke-width="__RESOLUTION__" d="m4.4 43.8 1.9 1m2.1-12.2-.1 1.9m46.4 12.6v4M31.5 30.4l1.2.6m5.3 2.8 2.5 1.3m1.6 28.6 6.5 3.5m-15.3-8-1.5-1m4.2 2.4 1 .5m17.7-7.6v1.8" vector-effect="non-scaling-stroke"/><path fill="none" stroke="#3c0000" stroke-linecap="round" stroke-linejoin="round" stroke-width="1" d="m61.4 41.4 5.1 2.9M4 11.1l4.8 2.4M11.3 6v4.8M10.9 21v3.3m46.8 6v3.8m0 12.7v3M15.2 17.4 55 38.5M45 69.6 40 67"/><path fill="none" stroke="#a90101" stroke-linecap="round" stroke-linejoin="round" stroke-width="1" d="m60.7 77.6 6.2 3.5M9.4 50.4l-5.9-3.2M10.9 31v14.7m46.8 12.6v11.5M21.3 56.9l-6.4-3.4M34.4 64l-8.1-4.3m28.4 15.1-2-1m5 9.3v5.1M12 59.2l-.1 4.1"/><path fill="none" stroke="#7e0101" stroke-linecap="round" stroke-linejoin="round" stroke-width="1" d="M10.9 24.3V31m46.8 18.8v8.5M40.2 67l-5.9-3.1m18.4 9.7-7.6-4"/><path fill="none" stroke="#fe0505" stroke-linecap="round" stroke-linejoin="round" stroke-width="1" d="m26.3 59.6-5-2.7"/></g></defs><g clip-path="url(#a)"><use xlink:href="#b" width="74.7" height="97.7" transform="translate(1 1)"/></g></svg>