<svg xmlns="http://www.w3.org/2000/svg" xmlns:xlink="http://www.w3.org/1999/xlink" width="88" height="84" viewBox="0 0 88 84"><defs><clipPath id="b"><path d="M1 1h86v82H1z"/></clipPath><use xlink:href="#a" id="c" width="85.7" height="82"/><g id="a"><path fill="#9a8b6d" d="m50.3 35.8 8.8 4.6-5.1 9.8-7.6-4 5.5-2h-9.2l-14.2-7.6 6.3-2.6-.7 2zM.1 21.5l12-6 .3.2 5.6 3-5.1 7.6L28.2 24l8.6 4.5-2 5.4-6.3 2.6L22 33l6.8-1.1L22 33z"/><path fill="#a89b80" d="m59 40.4 9 4.7-12.2 6-1.8-1zM18 18.7 28.2 24 13 26.2zm18.8 9.9 13.5 7.1L34 36l.7-2z"/><path fill="#676147" d="M68 45.1v24.2l-1.4 1.9-1.1 1.3q-4.3 4.4-9.7 2.7v-24zm-25.3-1 9.1.1-5.4 2-2.4 9.4z"/><path fill="#4b422c" d="M68 69.3v6.6l-12.2 6v-6.7q5.4 1.7 9.7-2.7l1.1-1.3z"/><path fill="#67603f" d="M55.8 82h-.1L50 79l-1-.7-2.5-3.7-1.5 1.7-2.4-1.2-.4-3-1.7 1.8-8.1-4.2v-.1l-.6-2.9-1.5 1.8-1-.5.2-3-2.3 1.8-.9-.4-1.3-5.2-.7 1.4V62L22 64.1l-17-9-.3-2.2-1.2 1.4L0 52.5l-.1-.1v-7.1q2.6.9 7.6 6.4 4.5 5.1 6.8 5.3h.5q14.7.2 20 6.9 2.6 4.9 20.9 11.3z"/><path fill="#847b5b" d="M0 45.3V21.6l.1-.1L22 33.1l6.5 3.5 14.2 7.5L44 55.7l2.4-9.5 7.6 4 1.8 1v24Q37.5 68.9 35 64q-5.4-6.7-20.1-6.9h-.5q-2.3-.2-6.8-5.3-5-5.5-7.6-6.4m52.4 18.4.7.3zM22.9 43.6 22 33.1zm10 9.8 4 2.2zM9 48.4v-5.2zm11.7-1.6 8.3 4.4zm8.1.3-.3-10.5zm12 10.5 4.2 2.2z"/><path fill="none" stroke="#676147" stroke-linecap="round" stroke-linejoin="round" stroke-width="__RESOLUTION__" d="m50.3 35.8 8.8 4.6L68 45v23.7m-55.5-53 5.6 3L28 24l8.7 4.5 13.5 7.1M68 45.2l-12.2 6" vector-effect="non-scaling-stroke"/><path fill="none" stroke="#b1a68d" stroke-linecap="round" stroke-linejoin="round" stroke-width="__RESOLUTION__" d="M68 74.2v1.7" vector-effect="non-scaling-stroke"/><path fill="none" stroke="#e8e6b4" stroke-linecap="round" stroke-linejoin="round" stroke-opacity=".8" stroke-width="__RESOLUTION__" d="m12.2 15.6.3.1" vector-effect="non-scaling-stroke"/><path fill="none" stroke="#b1a68d" stroke-linecap="round" stroke-linejoin="round" stroke-width="__RESOLUTION__" d="m34.8 34-6.3 2.6M22 33.1l6.8-1.1" vector-effect="non-scaling-stroke"/><path fill="none" stroke="#a89b80" stroke-linecap="round" stroke-linejoin="round" stroke-width="__RESOLUTION__" d="m53.1 64-.7-.4M22 33.3l.9 10.3m14 12-4-2.2M9 43.2v5.2m20 2.8-8.3-4.4m7.8-10.2.3 10.4M45 59.8l-4.1-2.2" vector-effect="non-scaling-stroke"/><path fill="#000" fill-opacity=".3" d="m56 81.8 11.9-6V70l17.8 7.8z"/><path fill="#7b6d4a" d="M53.6 38q-.8 2.6 6 5.2l-.2.3Q53.6 42 54.1 48q-.6-5.4-7.5-3.7 6.2-2.5 1-5.2 4.4 2.1 6-1"/><path fill="#c9c6ab" d="M53.6 23v-.5l.6-.7 1.5-.4 1.5.4.5.6v.8l-.2.2-.3.4q-.6.3-1.5.4-1-.1-1.5-.4t-.6-.7"/><path fill="#b0ab84" d="M57.6 23.4q-2.4 5.5-2.2 13.6l-1.6.5-1.7-3.3.6-3.9.9-3v-4.2q.1.3.6.6.5.4 1.5.5.9-.1 1.5-.4z"/><path fill="#676343" d="M55.4 37v5.1q-2.1 3-4 .1l.6-8 1.8 3.3z"/><path fill="none" stroke="#e1dfd0" stroke-linecap="round" stroke-linejoin="round" stroke-width="__RESOLUTION__" d="m57.7 23.2-.2.2q-2.3 5.5-2.1 13.6v5.1" vector-effect="non-scaling-stroke"/><path fill="none" stroke="#8b855a" stroke-linecap="round" stroke-linejoin="round" stroke-width="__RESOLUTION__" d="m51.4 42.2.6-8 .8-3.9m.8-3v-4.2q.1.3.6.6.5.4 1.5.5.9-.1 1.5-.4l.3-.4" vector-effect="non-scaling-stroke"/><path fill="#7b6d4a" d="m22 23.7-.1.4q-5.8-1.6-5.4 4.4-.5-5.4-7.4-3.7 6.2-2.4 1-5.2 4.4 2.1 6-1-.9 2.6 5.9 5.1"/><path fill="#b0ab84" d="m12 1.7.7.7q.5.4 1.4.4t1.5-.4l.5-.6 1.8 15.7-1.7.5-2.4-4.4.3-5-1-3.3z"/><path fill="#c9c6ab" d="m16 1.8-.4.6q-.7.4-1.5.4t-1.4-.4l-.6-.7V1l.6-.7Q13.2 0 14 0t1.5.4l.5.6z"/><path fill="#676343" d="m13.8 13.6 2.4 4.4 1.7-.5v5.1q-2.1 3-4.1.1z"/><path fill="none" stroke="#8b855a" stroke-linecap="round" stroke-linejoin="round" stroke-width="__RESOLUTION__" d="m16 1.8-.4.6q-.7.4-1.5.4t-1.4-.4l-.6-.7 1 3.6m1 3.3-.3 5v9.2M12.1 1.6v.1" vector-effect="non-scaling-stroke"/><path fill="none" stroke="#e1dfd0" stroke-linecap="round" stroke-linejoin="round" stroke-width="__RESOLUTION__" d="M17.9 17.5 16 1.8m1.8 15.7v5.1" vector-effect="non-scaling-stroke"/><path fill="#7b6d4a" d="M27.4 34.5q6.1-2.5 1-5.2 4.4 2.1 5.9-1-.8 2.6 6 5.1l-.2.3q-5.8-1.5-5.3 4.5-.5-5.4-7.4-3.7"/><path fill="#b0ab84" d="M32.1 13.2V8.9q.1.4.6.7l1.4.5 1.5-.5.5-.6v18.2l-1.6.5-2.4-4.4z"/><path fill="#c9c6ab" d="M32.1 8.9v-.6l.6-.7q.6-.4 1.4-.4.9 0 1.5.4l.5.6V9l-.5.6-1.5.5-1.4-.5q-.5-.3-.6-.7"/><path fill="#676343" d="M36.1 27.2v5.1q-2.1 2.9-4 .1v-9.1l2.4 4.4z"/><path fill="none" stroke="#8b855a" stroke-linecap="round" stroke-linejoin="round" stroke-width="__RESOLUTION__" d="M32.1 13.2V8.9q.1.4.6.7l1.4.5 1.5-.5.5-.6m-4 23.4V17.5" vector-effect="non-scaling-stroke"/><path fill="none" stroke="#e1dfd0" stroke-linecap="round" stroke-linejoin="round" stroke-width="__RESOLUTION__" d="M36.1 9v23.3" vector-effect="non-scaling-stroke"/><path fill="#8b7c5f" d="m45.2 32.5 4.2 5.1-8.8 3.4-.2-.1-1.9-5.5 3.4-1.5zm-.3 5.5-3-4.1z"/><path fill="#a89b80" d="m45.2 32.5-3.3 1.4-3.4 1.5-5.2-3.1 7.5-3.7zm-6.5-.8 3.2 2.2z"/><path fill="#63583a" d="m40.4 40.9-9.3-3.2-1.7-2.6 3.9-2.8 5.2 3z"/><path fill="none" stroke="#7b6d4a" stroke-linecap="round" stroke-linejoin="round" stroke-width="__RESOLUTION__" d="m41.9 33.9 3 4m-3-4-3.1-2.2" vector-effect="non-scaling-stroke"/></g></defs><g clip-path="url(#b)"><use xlink:href="#c" width="85.7" height="82" transform="translate(1 1)"/></g></svg>