<svg xmlns="http://www.w3.org/2000/svg" xmlns:xlink="http://www.w3.org/1999/xlink" width="21" height="50" viewBox="0 0 21 50"><defs><g id="e"><path fill="#2a1f08" d="m22.7 7.2 4.6-2.4v34l-9.4 4.9 2.3-5.2.8-2.5 4.8-2.7-.4-2.1-3.6 1.9q1.3-5 1.7-10.5l.3-6z"/><path fill="#64522e" d="m27.3 4.8-4.7 2.4-6 3.1-8.7 4.5-1.8-.3q-1.1-.2-2-.7l-.8-.4-2-1.7-.8-1.1L19.9.5l.8 1.2-1.5.8L2.6 11l1.6 1.4v.1q1.3.8 3.1 1.3l16.6-8.7 1.6-.7zM.4 10.6l.9 1.2 1.9 1.6.8.4-.3 6.6-1.5-1.1-.5-.4-.4-.5-.9-1.2zM.5 22l.9 1.1v.2q.9.9 1.9 1.5l.2.1.6 23-.9-.5q-1.7-1-2.7-2.8z"/><path fill="#36270a" d="M22.7 7.2q0 2.2 1 9.4l-.2 6q-.4 5.5-1.7 10.5l-5.9 3.1q1.3-6.3 4.1-13.3 1.4-3.6 3.3-7.4L22 14.4l-6.2 3.7q.9-5 .7-7.8zM21 36l-.8 2.5-2.2 5.2L7.9 49v-6.3q3.1-4.9 5.7-14.2l1.3-5.1.8-4 5.8-3-3.2 6.7q-3.6 8-5.1 14.2l-.3 1 .1 2.2z"/><path fill="#180a07" d="m21.8 33.1 3.6-1.9.4 2L21 36l-8 4.5-.1-2.1.3-1.1q1.5-6.1 5.1-14.2l3.2-6.7-5.8 3-4.6 2.4V21l4.9-2.9 6.1-3.7 1.1 1.1L20 23q-2.8 6.9-4 13.2z"/><path fill="#9c966a" d="M23.9 5.2 7.3 13.9q-1.7-.5-3-1.3l16.6-8.7 2.1 1z"/><path fill="#988d46" d="m4.3 12.6-1.6-1.3 16.6-8.7L20.8 4h.2z"/><path fill="#2c140c" d="m19.2 2.5 1.5-.8v2.2z"/><path fill="#402e0c" d="m4 13.8 2.1.7 1.8.3v6.7l-1-.1-.8-.2-1.5-.6-.5-.1-.3-.1zm3.8 12.5v22.6q-2.2-.2-3.8-1L3.5 25l.4.2q1 .5 2.2.8z"/><path fill="#3c2b0c" d="m7.9 14.9 8.7-4.6q.2 2.8-.7 7.8L11.1 21v.8l4.6-2.4-.8 4-1.3 5.2Q11 37.9 7.9 42.8z"/><path fill="#a38200" d="M7.9 21.5v4.8L6.1 26q-1.2-.3-2.2-.8l-.1-1.6.3-2.8v-.3l.5.1 1.5.5.9.3zM.5 17.2l.9 1.2.4.5.2 1 .1.8-.7 2.7v-.1L.5 22z"/><path fill="#a38c2f" d="m1.5 23.4.6-2.6v-.1l-.1-.8-.2-1 .5.4q.7.6 1.5 1l.3.1v.4l-.3 2.8.1 1.6-.4-.2-.2-.1q-1-.6-1.8-1.5"/><path fill="none" stroke="#000" stroke-linecap="round" stroke-linejoin="round" stroke-opacity=".3" stroke-width="__RESOLUTION__" d="m27.3 4.8-4.7 2.4-6 3.1-8.7 4.5-1.8-.3q-1.1-.2-2-.7l-.8-.4-2-1.7-.8-1.1m23.4-5.4L7.3 13.9q-1.7-.5-3-1.3l-.1-.1-1.6-1.3 16.6-8.7 1.5-.8m-1.5.8 1.5 1.4m-12.8 11v2.3m0 3.2v9.1m0 11.6v4M1.8 18.9l-.4-.5-.9-1.2m0 4.9.9 1.1v.2q.9.9 1.9 1.5m-1.5-6 .5.4M4 20.5l.5.1m2.4.8.9.1M3.5 25l.4.2q1 .5 2.2.8l1.8.3m0 22.7v-2.1" vector-effect="non-scaling-stroke"/><path fill="none" stroke="#000" stroke-linecap="round" stroke-linejoin="round" stroke-opacity=".3" stroke-width="1" d="m18 43.7 9.3-4.9v-34m0 0-1.9-.3-1.5.7L23 5l-2.1-1.1h-.2V1.7L19.9.5.5 10.5v34.1q1 1.8 2.7 2.9l.9.5q1.7.7 3.8 1l10-5.3"/><path fill="#3f1b13" d="m15.2 11 .2-.1v15.3q-1.8-1.2-3 1.7V12.5z"/><path fill="#723023" d="m15.2 11-2.8 1.5-1.5-.5 2.7-1.4z"/></g><g id="c"><path fill="#8a385a" d="M8.3 4.2v4.7L7 9.3h-.5q-2.2 0-3.7-.7Q1.6 7.9 1.3 7l-.1-.5q0-1.2 1.6-1.8 1.5-.9 3.7-.8zm0 5.1v1.3l-.2-.2-.1-.5.2-.5zm-5 .4v-.3l.4-.2.3.2q.2 0 .2.3L4 10l-.3.1-.4-.1z"/><path fill="#65274d" d="M8.3 9v.3l-.2.1-.1.5.2.5.1.2v.5l-2 .4q-1 0-2.5-.7Q1.6 9.6 1.3 7q.2.8 1.5 1.3 1.5.8 3.7.8H7zm-5 .7v.3l.4.1.3-.1.2-.3q0-.2-.2-.3l-.3-.2-.4.2z"/><path fill="none" stroke="#3f3220" stroke-linecap="round" stroke-linejoin="round" stroke-opacity=".8" stroke-width="__RESOLUTION__" d="m1.3 7.1-.1-.5q0-1.2 1.6-1.8 1.5-.9 3.7-.8l1.8.2" vector-effect="non-scaling-stroke"/><path fill="#7a5d2d" fill-opacity=".5" d="m8.2 1.6-1.8-.3q-2.2 0-3.6 1.5-1.5 1.5-1.5 3.6 0 2 1.5 3.5t3.6 1.5l1.8-.2v.6l-2 .3q-2.4 0-4-1.7T.5 6.3t1.7-4.1Q3.8.5 6.2.5l2 .3z"/><path fill="#7a5d2d" fill-opacity=".3" d="m8.2 11.2-1.8.3q-2.2 0-3.6-1.6-1.5-1.5-1.5-3.5 0-2.2 1.5-3.6 1.5-1.5 3.6-1.5l1.8.3z"/><path fill="none" stroke="#5b5042" stroke-linecap="round" stroke-linejoin="round" stroke-opacity=".8" stroke-width="1" d="m8.2.8-2-.3q-2.4 0-4 1.7T.5 6.3t1.7 4q1.6 1.8 4 1.8l2-.3"/><path fill="#ccc" fill-opacity=".5" d="M8.3 1.7v5.7l-.5-.2q-1-.3-1.5-1.5-.5-1.3-.4-2.4t.9-1.5z"/></g><g id="a"><path fill="#857b57" d="M.7 26.3v-25l.8-.9 6 5.6v24.2L.6 33.6V28l2.1-1.3z"/><path fill="#746945" d="M1.5.4 2 0l4 2.3 3.2 1.4L12.6 8l.1 19.5-5.2 2.6V6z"/><path fill="#625a3b" d="m9.3 3.7 7 3.6v3.9l1.3 1-1.2.9h-.1v4.7h-.1v7.9l-3.5 1.8L12.6 8z"/><path fill="#6c6240" d="m17.6 12.1 1.3 1h-2.5zm-1.4 13.6v16L.8 33.6l6.7-3.5 5.3-2.6zM.7 28v-1.7l2.2.4z"/><path fill="#826d37" d="m2.6 32-2-1.1 5.7-3-1.7 1.9-1.7 1.6zm2.7 1.4q.6-.6 1.5-.6l2 .4L10 33l3.7-1.2 2.4-1v5l-.9.3q-2.7.6-2.7.9v.1zM16 29l-2.5.9q-4 1.4-4.5 1.4l-.3-.2q.3-1.4 4.4-3.7l2.9-1.5z"/><path fill="#685135" d="m.6 30.9 2 1-.8 2.6-.6-.4L1 34l-.6-.3v-2.9zm11.9 6.2v3l-8.4-4.5q.3-1.6 1.2-2.2z"/><path fill="#776433" d="m2.6 32 .2-.6 1.8-1.6 1.7-1.9 9.8-5.1v3l-2.9 1.6q-4 2.3-4.4 3.7l.3.2q.5 0 4.5-1.4l2.5-.9v2l-2.5.9L10 33l-1.2.2-2-.4q-.9 0-1.5.6zm9.9 5.1V37q0-.3 2.7-1l.9-.1V39z"/><path fill="#000" fill-opacity=".3" d="m1.2 34.1.6.4 2.3 1.1 8.5 4.5 3.4 1.8V43L1.2 35.4z"/><path fill="#604c31" d="m1.8 34.5.8-2.5 2.7 1.4q-.9.6-1.2 2.2zM16.1 39v2.9H16L12.6 40l-.1-3z"/><path fill="none" stroke="#000" stroke-linecap="round" stroke-linejoin="round" stroke-opacity=".3" stroke-width="__RESOLUTION__" d="m6.3 27.9-5.7 3m-.2-.1v2.9l.6.3m.2.1.6.4 2.3 1.1 8.5 4.5 3.4 1.8h.1m0-19.1-9.8 5.1" vector-effect="non-scaling-stroke"/><path fill="#bdb89e" d="M3 32.4v-.1L15.5 23h.7v13l-2.8 1.8-1-.5-1.1-.5-.7-.4L7 34.5l-1.7-.8-1.9-1zm7.3 5h.2q-1 1-2 1-1.4 0-2.4-1l-.5-1.7q1.8 1.8 4 1.8z"/><path fill="#c3c0b2" d="m3 32.4.5.3 2 1 1.6.8 3.5 1.9.7.4 1.1.5 1 .5-3 5-.7-.8.2 1.5-2 3.6zm7.3 5h-.7q-2.2 0-4-1.7l.5 1.7q1 1 2.4 1 1 0 2-1z"/><path fill="none" stroke="#000" stroke-linecap="round" stroke-linejoin="round" stroke-opacity=".3" stroke-width="__RESOLUTION__" d="M16.2 23h-.7L3 32.3v.1l.5.3m2 1 1.6.8m3.5 1.9.7.4m1.1.5 1 .5 2.8-1.8m-6.3 7.5-2 3.6-5-14.7h0v-.1m10.5 5.5-3 5" vector-effect="non-scaling-stroke"/><path fill="none" stroke="#6c5500" stroke-linecap="round" stroke-linejoin="round" stroke-opacity=".5" stroke-width="__RESOLUTION__" d="m6.9 31.6-2.2 1.7 1.1 3.3m1.7 5.6L8 44l2.1-3.7m6.1-16.1-4.7 3.7" vector-effect="non-scaling-stroke"/><path fill="#000" fill-opacity=".6" d="m13.1 24.2 3-1.6v3z"/><path fill="#000" fill-opacity=".3" d="M16.2 25.5v5.6L7.7 27l5.3-2.8z"/><path fill="#000" fill-opacity=".3" d="M14.9 26V12.9l1.3 1v14.6l-5 2.6-3.9-.4z"/></g><g id="g" transform="translate(16.25 7.35)"><use xlink:href="#a" width="18.9" height="47.2" transform="translate(-16.25 -7.35)"/><use xlink:href="#b" width="27.8" height="49.5" transform="matrix(.4 0 0 .4 -12.15 3.7)"/><use xlink:href="#c" width="8.7" height="12.6" transform="translate(-8.25 14.2)"/></g><clipPath id="f"><path d="M1 1h19v48H1z"/></clipPath><use xlink:href="#e" id="b" width="27.8" height="49.5"/></defs><g clip-path="url(#f)"><use xlink:href="#g" width="18.9" height="47.2" transform="matrix(-1 0 0 1 19.95 1)"/></g></svg>