<svg xmlns="http://www.w3.org/2000/svg" xmlns:xlink="http://www.w3.org/1999/xlink" width="59" height="54" viewBox="0 0 59 54"><defs><g id="f"><path fill="#ceba75" d="m9.6 4.2.1-.3q0-1-1.3-.3L7 4.7l-.5.3-2 3.3-3.6-.8.7-.5v-.2l.2-5.6L3.4.7l-.2.7 1.5.6q.8 2 3.5 1.5l1-2q.8.2 1 1t-.5 1.7"/><path fill="#bd9d42" d="M8.4 3.6q1.3-.7 1.3.3v.3l-4.4 4-.8.1 2-3.4.5-.2z"/><path fill="#e8dcbb" d="m9.1 1.6-1 1.9Q5.4 4 4.7 2L3 1.4l.2-.7 3-.7zm-7.2-.4-.2 5.6-.1.2-.8.5q-1-.2-.8-2 .3-1.9 1.8-4.3"/><path fill="none" stroke="#7d692d" stroke-linecap="round" stroke-linejoin="round" stroke-width="__RESOLUTION__" d="M8.4 3.6q1.3-.7 1.3.3v.3q.5-1 .4-1.7-.2-.8-1-1l-1 2M3 1.4l.2-.7-1.5.5m-1 6.3 3.7.8h.8l4.3-4.1m-3 .8.5-.3M1 7.5q-1.1-.2-.9-2t1.8-4.3" vector-effect="non-scaling-stroke"/></g><g id="g"><path fill="#bd9d42" d="m3.3.7.3-.2.4.7-1 2.1-1.4.8.6-2.2z"/><path fill="#ceba75" d="M1.6 4.1Q0 4.4 0 2.8L.1 2l.7.4 1.5-.5z"/><path fill="#e8dcbb" d="m.1 2 .5-1q.2-.6 1-.8t1.6 0l.1.5-1 1.2-1.5.5z"/><path fill="none" stroke="#7d692d" stroke-linecap="round" stroke-linejoin="round" stroke-width="__RESOLUTION__" d="m3.3.7.3-.2.4.7-1 2.1-1.4.8Q0 4.4 0 2.8L.1 2l.5-1q.2-.6 1-.8t1.6 0z" vector-effect="non-scaling-stroke"/></g><g id="h"><path fill="#bd9d42" d="M7.4 2.2q-.2 1.2-1.2 2.5-.9 1.1-1.2.5v.6L3.7 7.1 2.2 8q-.7-.6-.1-1.2l1-1q1.2-1 1.6-2.2zM0 5.8l1.6-3.3q.4 1.2-.5 2.9-.5 1.2-1.1.3"/><path fill="#e8dcbb" d="M7.4 2.2 4.6 3.6 5 1.4 4.1 0l2.6 1.3z"/><path fill="#ceba75" d="M4.7 3.6q-.5 1.2-1.6 2.2l-1 1q-.6.6.1 1.2-1 .4-1.7-.5T0 5.8q.6.8 1.2-.4.8-1.7.4-2.9L4.1 0l1 1.4z"/><path fill="none" stroke="#4f421c" stroke-linecap="round" stroke-linejoin="round" stroke-width="__RESOLUTION__" d="M2.2 8q-1 .4-1.7-.5T0 5.8" vector-effect="non-scaling-stroke"/><path fill="none" stroke="#eadfc4" stroke-linecap="round" stroke-linejoin="round" stroke-width="__RESOLUTION__" d="m0 5.8 1.6-3.3L4.1 0" vector-effect="non-scaling-stroke"/></g><g id="e"><path fill="#492205" fill-opacity=".5" d="M10.4 9.5 6.2 7.7l.5-2.1 22.9 9.6-.9 4.2-1-.5-.4-1.5-5.8-2.4-.1.2-.6.3h-.2l-3.3-1.7-.9-1.3-1.6-.5-.3.4-3.5-1.7z"/><path fill="#b0d62b" d="M13 0q2 1 3.6 1.6L20 3.3l-1.4-.6 1 .7.5.3 1 .6 1 .5L24.5 6q2.7 1 5.1 2.4l.9.5 1.9 1.1q.9.6 2 1l2.5 1-5.5 5.6-5.5-2.8-.5-.7-7.4-3.7-2.3-.5-.8.6L13.6 9l-1.3-.2-1 1h-.1v-.2l.2-.8q.2-.9 0-1.7v-.7l-.2-.3-1-.4L8.5 5l.2-.4-.4-.6v-.1l.4-.2q.3-.4-.3-.6l-1.1-.3-.7-1.5q.3.5.8.6.2.4.6.4l.1-.3.1.1.9-1.5v.2-.1l-.3.5-.2.6v.3q.2.6.7.2l.2-.2v-.4z"/><path fill="#8fb127" d="M9.6 1.7v.4l-.2.2q-.5.4-.7-.2v-.3l.2-.6.3-.5zM8.2 2l-.1.3h-.2q-.4 0-.6-.4-.5-.1-.8-.6L6.3.8l.2-.4 1.4 1.3.1.1z"/><path fill="#c1e752" d="m7.2 2.8 1 .3h.1q.6.2.3.6l-.3.2L8 4l.5.6q0 .3-.2.4l1.8.7 1 .4.2.3v.7q.2.8 0 1.7l-.2.8v.2l-.6-.1h-.2v-2l-.2-.1v-1q-1.4-.4-2.6-1.2L7.1 5 7 4.7l-.3.1-.1.1q-.6.6-1.5 1H5l-.1-.1.3-.5.8-1 .7-.5.3-.2v.1l-.6-.2h-.2l-.1-.4v-.2h.5l.4-.1zm-.6 0H7zm3.6 4.8.2.1z"/><path fill="#7e9b24" d="m27 25.5-9-6.1-5.2-1.7-.8.5V17l-1.5.9.2-.9.2-1.2-9.6-1.7v-.2L0 12.1l1.4-.2.4-3 2.7 1 .2 1.3 1-.2q.9 2.2 2.5 2.8l3.4 1.7-1.4-.6 1 .7.5.3 1 .6 1 .5 2.4 1.1q2.7 1 5.1 2.4l.9.5 1.9 1.1q.9.6 2 1l2.5 1z"/><path fill="#85b519" d="M6.2 3H6l.2.4h.1l.6.1v.1l-.3.1-.7.5.4-.5L6 3l-.1-.2zm-1 2.4-.3.5h.2Q6 5.6 6.6 5h.1l.3-.2.1.3.5.4q1.2.8 2.6 1.2v1L7.5 6.2l-.5.4q-.7.2-.7-.4v-.3l-1 .4-.5-.5zm5.4 4.4h.6z"/><path fill="none" stroke="#4d610e" stroke-linecap="round" stroke-linejoin="round" stroke-width="__RESOLUTION__" d="M13 0 9.7 1.7l-.3-1-.1-.1-.9 1.5-.1-.1-.2-.2m-1.5-.5.7 1.5h-.6l-.4.1H6v.2l.4.7-.4.5-.8 1-.5.5.5.5L6.4 6v.3q0 .6.7.4l.5-.4 2.7 1.4.2.1v2h.9l1-1 1.3.3 1.3 1.4.8-.6 2.3.4 7.4 3.8.5.7 5.5 2.8M7.9 1.7 6.5.4l-.2.4.2.5" vector-effect="non-scaling-stroke"/><path fill="#c1e752" d="m31.7 14.8.2-.6h.1l.5.9.1.4-.1.3q-.4.4-.6 0l-.1-.5zm-.4 1-.1.2-.1.1q-.5 0-.7-.3-.5 0-1-.3l-.3-.4q-.1-.1.1-.4zm-1 1.1q.7-.2 1.3 0h.1q.6 0 .4.5l-.2.2v.1l-.1.1.5.4v.4l.8.2-.8.8-.7-.2-.6-.4-.1-.2-.3.2-.1.1-1.2 1.3H29l-.6-1.1 1.4-.7.4-.6.3-.2h.1-.8l-.3-.3v-.2z"/><path fill="#85b519" d="m29.6 17.2-.1.2.3.3h.8-.1l-.2.2-.6.6.3-.5-.5-.6-.1-.1z"/><path fill="none" stroke="#86ad27" stroke-linecap="round" stroke-linejoin="round" stroke-width="__RESOLUTION__" d="m31.9 14.3-.2.5-.3 1h-.1m.6-1.6h.1m-2.6 1.3 1.2 1.2-.2.1m-2 2.4-.4.9m1.3-5.4q-.3.3-.2.4l.3.4m.4 3-1.4.7m4.1-4.1 3.5-2.3m-6.4 4.3-.2.1.1.2.5.6-.2.5" vector-effect="non-scaling-stroke"/></g><g id="l" transform="translate(20.3 10.95)"><use xlink:href="#a" width="21.6" height="20.2" transform="translate(-12.1 -6.5)"/><use xlink:href="#b" width="7.3" height="8.2" transform="matrix(.97 -.26 .57 .88 -17.5 -3.65)"/><use xlink:href="#c" width="4" height="4.2" transform="matrix(1.58 0 .27 1.01 -11.7 .5)"/><use xlink:href="#c" width="4" height="4.2" transform="matrix(1 0 .32 1 -6.55 -.85)"/><use xlink:href="#c" width="4" height="4.2" transform="matrix(.83 0 .23 1.22 -3.35 4.45)"/><use xlink:href="#d" width="10.1" height="8.3" transform="matrix(1 0 .32 1 -1.65 1.95)"/><use xlink:href="#e" width="36.9" height="25.6" transform="translate(-20.3 -10.95)"/></g><g id="k"><path fill="#9abe2c" d="m17 0-1.7 8.6-7.2-1.2-.3 3.6-3.2-1.7 1 1.9-3.3-1.8 1.6 2.3-2.1 4-1.1-.6.2-1.2 1.3-.7.3-.8.2-.4h-.8l-.5-.6v-.3l.4-.1.4-.2.1-.1L.6 8.8l-.5-.7v-.6l3 2L3 8.1v-.7l1 1.3 3-2.4zM2.6 12"/><path fill="#7e9b24" d="m15.4 8.6 3.3-3.2L6.2 18.2q-1.6.3-2-1.2l-.3-.2-.4-.4q-.5-.5-.7 0l-.6-.4-.5-.2 2.2-4-1.6-2.3 3.3 1.8-1-2L7.8 11l.3-3.6zm-10.7 6"/><path fill="#86ad27" d="M4.2 17q-1.7-.7-2-1l.7.3q.2-.5.7 0l.4.4zl-.2-.3z"/><path fill="#85b519" d="m1.4 11.4-.1-.2h.1zm1.3.6"/><path fill="#c1e752" d="m1.8 11 .4-.2zm3 3.5"/><path fill="#b89967" d="M3 8.1v-.7z"/><path fill="#997946" d="M3 7.4v-.2z"/><path fill="none" stroke="#70931c" stroke-linecap="round" stroke-linejoin="round" stroke-width="__RESOLUTION__" d="m4.2 17-.2-.3-.4-.4q-.5-.5-.7 0l-.6-.4-.5-.2-1-.6.2-1.2 1.3-.7.3-.8.2-.4H2l-.5-.6v-.3l.4-.1.4-.2.1-.1L.6 8.8l-.5-.7v-.6l3 2L3 8.1h0v-.7h0l1 1.3 3-2.4L17 0M4.2 17l-.3-.3" vector-effect="non-scaling-stroke"/></g><use xlink:href="#f" id="d" width="10.1" height="8.3"/><use xlink:href="#g" id="c" width="4" height="4.2"/><use xlink:href="#h" id="b" width="7.3" height="8.2"/><path id="a" fill="#ab823f" d="M7 13.7-12 3v-9.5L9.4 4.6l-2 8.6z" transform="translate(12.1 6.5)"/><path id="j" fill="none" stroke="#423717" stroke-linecap="round" stroke-linejoin="round" stroke-width="__RESOLUTION__" d="M-7.4-20.3-9.6-22m5 .2-2.6-3.4" transform="translate(9.55 25.25)" vector-effect="non-scaling-stroke"/><clipPath id="i"><path d="M1 1h57v52H1z"/></clipPath></defs><g clip-path="url(#i)"><g transform="translate(29.9 37.9)"><use xlink:href="#j" width="5" height="5" transform="translate(-9.55 -25.25)"/><use xlink:href="#k" width="18.7" height="18.2" transform="translate(-28.9 -18.4)"/><use xlink:href="#l" width="36.9" height="25.6" transform="translate(-28.1 -11.3)"/><use xlink:href="#k" width="18.7" height="18.2" transform="translate(-12.9 -36.9)"/><use xlink:href="#l" width="36.9" height="25.6" transform="translate(-19.05 -22.65)"/><use xlink:href="#l" width="36.9" height="25.6" transform="translate(-9.65 -34.3)"/></g></g></svg>