<svg xmlns="http://www.w3.org/2000/svg" xmlns:xlink="http://www.w3.org/1999/xlink" width="61" height="66" viewBox="0 0 61 66"><defs><clipPath id="a"><path d="M1 1h59v64H1z"/></clipPath><g id="b"><path fill="#8d794b" d="m53 13.6.4 1.2-14.4 7-.3-.2-.9-.6zM7 36.5l-4 1.2-1.6-2 1.3-5.8.7-1.9.3-1 .2 2-.4-.9v.5q.4 3.8 0 7.9zm13-9.7 3-1.5q.7.2.7 1v.8l-.6 1.5-4.4 2.1-4 2-3.2 1.6 8.6-5.2-4.8.2-8.8 4.4-1-2 1.1 1.7 1.6-.9 3.3-1.5 2.6-1.3zm-17 .7v.1z"/><path fill="#d3a456" d="M39 21.8q2.2 1.2 4.2 2.8l-.6.9-.3.2-5.8-3.2-11.1 1.9 2.2-1 .6-.4 3.1-1.5.4-.1 1-.3.3-.4 2.1-1.7 1.1.9 1.6 1 .9.8.1.2zm1.7 10.8 2.8-2 2.2 2-.9.9-1.8-1.1-2.9.8zm3.8 2.6 5.7 5.4-.3.3-6.5-.9.7-4zM28 17.5l3.3 2.5-5 .6-3.3-5.4 2.8.6zm11.4 5.4-.5-1z"/><path fill="#533c20" d="m42.7 25.5-.3.5-2.5 2.6h-.1l-.1-.1H39l-.4.8L38 32l2.3-1.5-.1-.6.6 2.7-.6.5-.9.9H39l-1.1-1.8-.1-.7v.7L39 34l-9.3 3.2-1.3.4-1.8-.7h-4.5l-5 3.9.2-.7.7-2.8.3-1.6-.3 1.6-1.2-.7 1.2.7-.7 2.8-2.9-2 .2-2.6q.3-1.8 0-2.7l4.2-2 4.3-2.2.6-1.5v-.5 5-.1 1.1l.1.3 1 .9.4-.1.6-.1 1.2-.4 2.4 2 5-1.8v-1.6l-1.1.2 3.8-2.7-1-1.5 3.3-.5 2.9-1.6zM39 28.1l-.1.4zm-2.8 3.3-1.8.4zm1.5.1v.2zv.3zl.1.5zm-20.1 1.3 1-2z"/><path fill="#eee2a2" d="m39.9 28.7.1.3v.5l.1.4.1.6-.7-1.9zm-.1 0h-.3v-.1h.2m-.1 0-.1.1-.9.7.4-.8z"/><path fill="#a07b3f" d="m44.8 33.5-.8.7h-.7l-6.7 3.5-6.9-.5L39 34h.3l.8-.9 2.9-.7zm5.1 7.5-.4.5-5 2.7-.3-.9.1-.4-.1.4-1.3 3.1-7.8-.2-5.4-3.3.5-2.4 5.6.9 6.5-1 1.8-4.3-.7 4zM31.3 20l1.3 1.1-.9.3-.4.1-3 1.5-.7.4-2.2 1 11-2 5.9 3.3-2.9 1.6-3.3.5 1 1.4-3.9 2.8-4.7 1-.8.1-.7.1-1.2.4-.6.1-.4.1-1-1v-1.2l-.1-.1v-5.3q0-.7-.7-.9l-3 1.4 2-3q1.6.3 3.9 0l.8-.2.9-.1-.9.1-8-.5-2.1-1.5 1-4 5.4-2.2 3.4 5.3zm9.5 13.4-1.5.6zm-16.1-5.5-.3.6-.7 3 .7-3z"/><path fill="#72572c" d="m44 34.2-.3.3.8.7-.4.8-1.8 4.4-6.5.9-5.6-.9-.5 2.4 5.4 3.3 7.8.2-.2.5-.6 1.4-2.5 1.9-1.4 1-9.7-2.1-6.2-1.5-5.7-4.5.1-.3.5-1.9L22 37l4.5-.1 1.8.8 1.3-.5 6.9.5 6.6-3.5zm5.5 7.1L46.8 46l-.3.3h-1l-.9-2.2zM41.8 37l1.9-2.5zm-13.6 2-.2-1.2.4-.1-.4.1z"/><path fill="#ddcc95" d="M46.7 46.3v.9l3.1 3.9 3 .6 5.3-1.8-5 3.1-1.6.8-.3-.1-4.5-4-2.5-.5-1.5-2.4.2-.5 1.3-3.1.3.9.9 2.1 1 .1zm-.6 1.9-.7-1.9z"/><path fill="#bba55b" d="m53 53 3.5 1.7-5-1zm-1.8.7-2.7-.4-2.2-1.9 1.2 3.5-4.2-4.2-3.7-.6 2.5-2 .6-1.3 1.5 2.4 2.5.4zm-8.5-6-.6.4z"/><path fill="#0b0500" fill-opacity=".5" d="M28.6 49q-8.1 19.3-12.9 12.8l-5-10.4-2-8.4 5.5.4 2.5-.7-.1.3 5.6 4.5z"/><path fill="#6d441d" d="M8.8 43H8v-.1l1-2.3h2.1l1.3-2.3-2.2-3v-.2l1.3-.7 3.2-1.6q.2.9-.1 2.7l-.2 2.6 2.9 2-.1.7-.5 1.9-2.5.6zM14 29.7 11.5 31l.4-1.4 1.6-2.5z"/><path fill="#3e2711" d="M8 42.9q-1.3-.2-2.9-1l1-2.4 2.1.1 1.3-2.4-1-1.2 1.6-.9.1.2 2.2 3-1.3 2.4-2-.1zM3.3 27.6 2 30l-1.4-.8L0 29q.8-6.4 4-13.5l2.4 1.8-.4.2.4-.2.1.1q-2.2 5.3-3.2 10.1m2.2 4.3L4 29l4.9-4.9q1.6 2.4-1.5 7.3l.8 1.1-1.6.9zM3 27.4l.3.1zv.1z"/><path fill="#c2ac61" d="M8.6 36h-.2l-.4.5H3.6q.4-4.1 0-7.9v-.5l.4.9 1.5 2.8 1 1.9 8.8-4.4 4.8-.2-8.6 5.3-1.2.6-.2.1zm27.7-16.1 13.2-6.6L51 7l2 6.6L37.8 21z"/><path fill="#996628" d="m3.5 28-.2-.5q1-4.9 3.2-10.1l.1-.2.6-1.2L9 12.3l1.8-3.2 1.5.5.3.1.4.1.8.3 3 .9-1 1.7-3.1 5.8-.4.9.4-1 6-4.7v.1l6-1.6L20.6 9l.3-.3 3.9-5.3.2-.3 1.4-1.8.2-.3 2.1 1.7L31 5.1q2.6 3.6 3.4 8.8l-6 .2q-.8 2-.4 3.4l-2.2-1.7-2.8-.6-5.3 2.3-1.8.7-2.9 6.5.5 2.4-1.6 2.5-.4 1.4-3.3 1.5-.8-1.1q3.1-4.9 1.5-7.3L4 29l-.2-2zm8.7-15 1.5 1.5zm-.1-.1-4 5.8 4.2.7-4.2-.7zm11.6-3.6 1.6-3.1 3.9 1.7-4.1 5 4.1-5-4-1.7zm1.4 3.6-.4-.7zM10.2 35.3l-.1-.1.2-.2z"/><path fill="#553617" d="m4 15.5.2-.3L6 11.5 7.9 8l5 1.6v.1l-.3-.1-.3-.1-1.5-.5L9 12.3 7.2 16l-.6 1.2-.2.1zm14-8L23.7 0l2.7 1.3L25 3l-.2.3-4 5.3z"/><path fill="#4b3014" d="m13 9.7.9.3-.2.1zm-6.4 7.5-.1.2-.1-.1z"/><path fill="#25160a" d="m15.8 12.7 6-1.5L17.7 8l.3-.5 2.9 1.2-.3.3 4.1 3.3-6 1.5v-.1l-6 4.8z"/><path fill="#6f573c" d="m38.7 21.7.3.1-.1.1z"/><path fill="#000" d="m39.5 28.7.7 1.8-2.3 1.5.8-2.7zM33.3 32l1.2-.2-.1 1.6-5 1.8-2.4-2 .7-.1.8-.1zm6.4-1.5-.1-.3-.7.3v.5zm-7.4 2.7-2 .6v.7l2.3-.7z"/><path fill="#ddd151" d="m39.7 30.6-.7.4-.1-.5.7-.3z"/><path fill="#634d27" d="m13 24.7 2.9-6.5 1.8-.7-1.1 4 2.1 1.5 8 .5-.8.2q-2.3.3-3.9 0l-2 3-6 3-.5-2.6z"/><path fill="#edd59c" d="M32.3 33.2h.1l.3.5-2.4.8v-.7z"/><path fill="none" stroke="#3e2c17" stroke-linecap="round" stroke-linejoin="round" stroke-width="__RESOLUTION__" d="M39 21.8q2.2 1.2 4.2 2.8l-.6.9-.2.5-2.5 2.6h-.4v-.1h.2m.3.5v.5h0l.1.4.6 2.7 2.8-2 2.2 2-.9.9-.8.7-.3.3.8.7 5.7 5.4-.3.3-.4.5-2.8 4.6v.3m-7.1 3.8-1.4 1-9.7-2.1-6.2-1.5-5.7-4.5.1-.3.5-1.9.1-.7.7-2.8-1.2-.7M28 17.4l3.3 2.5 1.3 1.1.4-.4 2.1-1.7 1.1.9 1.6 1 .9.8.3.1-.1.1.5 1m-.5-1-.2-.2m1.5 8.8-.1-.6m-.6-1.2-.9.6m1-.8H39l.1-.4m-5.9 4 1.3-.3 1.8-.4M39 34h.3l.8-.9.6-.5m3 2L41.8 37m-2.5-3 1.5-.6m5.6 12.9.3-.3M25.8 15.8l2.2 1.7m4.6 3.6-.9.3-.4.1m-3 1.5-.7.4-.9.1-.8.2q-2.3.3-3.9 0l-2 3 3-1.4q.7.2.7 1v.8l-.6 1.5m.6 2.9.7-3 .3-.6m8.6 4.1-4.8 1-.8.1-.7.1h0l-1.2.4-.6.1-.4.1-1-1v-1.2m-5-.9-1.1 2m.3 4.6.3-1.6m11.4 1.5-1.3.4-.4.2.2 1.3M13.5 27l-.5-2.5m1 5.1-.5-2.6m1.2 5.6q.2 1-.1 2.8l-.2 2.6 2.9 2M39 34l-9.3 3.1" vector-effect="non-scaling-stroke"/><path fill="none" stroke="#47290e" stroke-linecap="round" stroke-linejoin="round" stroke-width="__RESOLUTION__" d="M8.8 43H8v-.1l1-2.3h2.1l1.3-2.3-2.2-3-.1-.1M13.8 10l3 .9-1 1.7-3.1 5.8-.4.9m14.1-18 .2-.3 2.1 1.7L31 5.1q2.6 3.6 3.4 8.8l-6 .2q-.8 2-.4 3.4M13 9.8l.8.3m-.8-.3-.4-.1m-.3-.1-1.5-.5L9 12.3 7.2 16l-.6 1.2-.1.2q-2.2 5.3-3.2 10.1l-.3-.1m9-14.5.2.1M25 3.1l1.4-1.8m-5.5 7.4-.3.3 4.1 3.3.4.6m-6.4.8-6 4.8m12-6.2-6 1.5M21 8.7l3.9-5.3M8.2 32.6l-.8-1.2q3.1-4.9 1.5-7.3L4 29m12.7 13.7-2.5.6-5.4-.2" vector-effect="non-scaling-stroke"/><path fill="none" stroke="#000" stroke-linecap="round" stroke-linejoin="round" stroke-width="__RESOLUTION__" d="M8 42.9q-1.3-.2-2.9-1l1-2.4 2.1.1 1.3-2.4-1-1.2M.7 29.3 0 29q.8-6.4 4-13.5l.2-.3L6 11.5 7.9 8l5 1.6 1 .3-.2.1m2.1 2.6 6-1.5L17.7 8l.3-.5L23.7 0l2.7 1.3m11.4 30.2v.7L39 34m-1.2-2.5v-.1.3M6.4 17.2l-.4.2m.5-.1-.1-.1.2-.1M5.5 31.8l1.1 1.6m-3.6-6v.1" vector-effect="non-scaling-stroke"/><path fill="none" stroke="#000" stroke-linecap="round" stroke-linejoin="round" stroke-width="__RESOLUTION__" d="m38.7 29.3-.8 2.7-.1-.5v.2m1.2-3.2-.4.8" vector-effect="non-scaling-stroke"/><path fill="none" stroke="#917c4f" stroke-linecap="round" stroke-linejoin="round" stroke-width="__RESOLUTION__" d="m44.2 43.2.3.9.9 2.1 1 .1h.3m-2.5-3.1.1-.4M43 46.3l1.3-3.1m1.1 3 .1.1.7 1.9m-3.4-1.4-.6 1.4.6-.5m.2-1.4-.2.5m-.6 1.4L39.7 50" vector-effect="non-scaling-stroke"/><path fill="none" stroke="#65401b" stroke-linecap="round" stroke-linejoin="round" stroke-width="__RESOLUTION__" d="m12.2 13 1.4 1.5m-1.3 4.9-4.2-.7 4-5.8m13 0 4.1-5-4-1.7-1.5 3.1" vector-effect="non-scaling-stroke"/><path fill="none" stroke="#6d441d" stroke-linecap="round" stroke-linejoin="round" stroke-width="__RESOLUTION__" d="m13 24.7 2.9-6.5 1.8-.7 5.3-2.2m0 0 2.8.5" vector-effect="non-scaling-stroke"/><path fill="none" stroke="#1f1710" stroke-linecap="round" stroke-linejoin="round" stroke-width="__RESOLUTION__" d="M23.7 31.6v-.1" vector-effect="non-scaling-stroke"/></g></defs><g clip-path="url(#a)"><use xlink:href="#b" width="58" height="63.4" transform="translate(1 1)"/></g></svg>