<svg xmlns="http://www.w3.org/2000/svg" xmlns:xlink="http://www.w3.org/1999/xlink" width="271" height="129" viewBox="0 0 271 129"><defs><g id="O"><path fill="#fff0b9" fill-opacity=".2" d="M3.4 1.1q.3.8 0 1.4l-1 .8q-.7.3-1.3 0l-1-1Q-.1 1.8.2 1l1-.8q.6-.3 1.3 0 .6.2.9.9"/><path fill="#fff0b9" fill-opacity=".5" d="M2.2 1.7h1.3l-1.3.2zm-.4.5v1.3l-.2-1.3zm-.4-.3h-1l1-.2.1-.9.3.8h-.4z"/><path fill="#fcffbf" d="m2.2 1.9-.4.3h-.2l-.1-.3v-.2l.4-.1h.3z"/></g><g id="C"><path fill="#344b41" d="m8.6 11 4.1-7.5-1-3 3.8-.5-1.4 11.3.3-5-2.4 7.8-3.2 2.1z"/><path fill="#2e4137" d="m11.7.5 1 3L8.6 11l-2.2 4.2-1.7-3L7 7.6 9.8 7zm.4 13.6 2.3-7.8-.2 5zM4.4 17l-2-1.2q-2.1-1.3-2.4-2l3.7-2.3zm3.4 2.6.1-3.9 3.4 2.6-1.2 4.2-4.1-.2z"/><path fill="#938977" d="m9.9 101.6 2.9 1.5.2 3-4-1.1z"/><path fill="#463f39" d="m9.9 101.6-1 3.4 4.1 1-.2-3 .7 3.4-3.7 1.4-1.6-3.4-.3-3.1-2.2 1.4-.5 4.2L.5 100l.8-2.1zm8 .3-.3 2.4-2.7.3-2.8-2.7.2-2.1-2.5-2.3 2.5-.1 2.2 1.6q-.6.1-.8.5-.4.7-.5 1.5l2.7 1.5z"/><path fill="#787661" d="m17.8 101.9-2 .5-2.7-1.4q.1-.8.5-1.5.3-.4.8-.5z"/></g><g id="B"><path fill="#33302b" d="m7.4 3.7.8.9-1.3 7-.9.5-1 8.5 2 3.2 4-2.8 2.5 1.3-1.7 3.9-7.2-.6v-1.3l-2.9-4.6 1.7-8.6-3.5.6L.6 1l3.8-1 1 1.3H4.2l-.6 1.5 3.7 2zm-2.7 1 1 3.4.8-1.3L5.8 5zm-1.5.4-1.3-.4 1 3.4.8-1.3z"/><path fill="#344b41" d="M7.4 3.7v1.1l-3.8-2 .6-1.5h1.1zm-2.7 1 1.2.4.5 1.7L5.6 8zm-1.5.4.5 1.7L2.8 8l-1-3.4z"/><path fill="#2e4137" d="m11.1 21-4 2.8-2.2-3.2L6 12l.9-.5z"/></g><g id="A"><path fill="#5c5e57" d="M11.2 5.2 11 7.8H7.5L6 6.8 6.7 3l4 1.8z"/><path fill="url(#a)" d="m2.5-6.1-4-1.8-.6 3.8 1.6 1h3.3L3-5.7l1.1.8-.4 4.5 1.8 1.7-4.8-2-2.3 3 2.3 5 1.5-2.4.7 1.8 1-1.4.5.6-1.3 2.3 4-.1-.7 2.7-7.3.3-7.2-9.2 4-4.8.1-8z" transform="translate(8.15 10.95)"/><path fill="#69685f" d="m15.3 18.9-4 .1 1.3-2.2-.6-.7-1 1.4-.7-1.7-1.5 2.3-2.2-4.8 2.2-3 4.8 1.9 2.7 2.6z"/></g><g id="z"><path fill="#69685f" d="M10.4 13.2 8.1 12l.4-1L7 9.4 6.3 11 4.1 8.6l-.4-5.4L10 8.5l.8 4.3z"/><path fill="url(#b)" d="m-1.7-7.3.3 5.3L1 .4l.7-1.6L3 .5l-.4.9 2.1 1.2L0 5.9l.2 4.6-5.3-3.3 3-5.7-3.4-12z" transform="translate(5.5 10.55)"/></g><g id="y"><path fill="#938977" d="M6.4 6.8 4.3 1.9l3.6 1.9.3.3z"/><path fill="url(#c)" d="M3.8-.7.1-2.6l2.1 4.9L.8 4.6-4 2.8-4.1.4l4-4.9z" transform="translate(4.1 4.5)"/></g><g id="x"><path fill="#898171" d="m16 1.3 5.5 5.9-.1 3.7-.8 3-5 .9-5.6-1.7-2.2-3.7 1.8-2L11.9 9l-1.6-3.4 3.4-3.9z"/><path fill="url(#d)" d="m4.2-10.4-2.4.5L-1.5-6 0-2.6l-2.3-1.7-1.8 2L-2 1.5l5.7 1.7 5-1 .7-3 .8 3.4-5.4 1.9-.7 1.6 3.4 1.4 3.9-1.4-.7 4L5 11.7-.4 9.2v-.3l-10-6.5-1.4-3.3 1.5-4.8 13.4-6zm-2 15.8-1.6-1L0 6.2l2.9 1.2z" transform="translate(11.85 11.65)"/><path fill="#938977" d="m22.1 14.2 1.6 1.6-.3 2-4 1.3-3.4-1.4.8-1.6zm-8 2.8.6 2-2.8-1.2.6-1.7z"/></g><g id="w"><path fill="url(#g)" d="m1.5-2.2 1 .4L3 .3l-.4.4L1.3.3l.7 1-.6.7-1.9.5L-3 1.3-3.1 0l.6 1 1.9.8V1l1.3.4.5-.7L.7.4l-.9-.7L2 .3l.4-.7z" transform="translate(3.1 2.45)"/><path fill="#938977" d="m4.6.2.9 1.9-.5.7-2-.6.9.6.5.4-.4.6-1.4-.3v.7l-2-.7-.5-1 .6-1.3L4 0z"/></g><g id="v"><path fill="url(#h)" d="m6 1.6-.3 2.7L1 6.8l-1.2-.6.1-3.5-2 2.5L-4 4l-2-4 1.3-6.5 2.8-.2-2.2 1-.3 5 1.7-.5v3.4l1.9.6L.5-1 .3 4.3l2 .6z" transform="translate(6.1 6.8)"/><path fill="#938977" d="m12 8.4-3.6 3.3-2-.6.2-5.3-1.5 3.9L3.4 9V5.6l-1.7.5.3-5 2.2-1h.1L7.7 0l4.6 7z"/></g><g id="u"><path fill="#2e4137" d="m5 .1 1.3.1 2.6 5.6-2.1 3.8-1.5-2.5H3.9l-.6-4.2z"/><path fill="url(#i)" d="m.7-5.4-1.8 2.8.6 4.1H.8l1.5 2.6-.8 1.5-5.1-3.2-.9-8z" transform="translate(4.4 5.55)"/></g><g id="t"><path fill="#535751" d="m16 2.3.9-2.3L20 6.5z"/><path fill="#2b2524" d="m13 20.5.4.1-.1.5-.7 2.2 1.3 1.8-1.5 5.9-1.8.8-.1-.6-.8.6-.6 1.9-2.4-.8 3.8-13.8zM9.4 39.6l.4 1H6.9l-.5-5.2 2.8.7q-.4 1.8.2 3.5"/><path fill="#13110e" d="M13 20.5 10.5 19 6.7 32.9l2.4.8.6-2 .8-.5v.6l1.9-.8 1.5-6-1.3-1.7.7-2.2 3.4 6.8-3.8 8 2.3 4.2 2.7-1.8 1.7 4.3-5.5 3.6-.7-.4-1.4.2-1.4.5-.4 4.8-3.1-.9 2-6.4-3.3-2-2.3 4.5L0 45.4l2.8-14 2.2-.6-.5-6.5-4.4-.2.4-11.7 6-5.9 2.9 11.1 1.4-1.5zM9.4 39.6q-.7-1.7-.2-3.5l-2.8-.7.5 5.1 2.9.1z"/></g><g id="s"><path fill="#1a1511" d="m5.7 7.8 2-2.4-1.9.3-2.1 2-2.2-.1L0 3l3.5-3 4.4 1.5.7 2.6.5 7.7h-2z"/><path fill="#2e4137" d="m1.5 7.6 2.2.1 2.1-2 1.9-.3-2 2.4L3 8.9zm7.6 4.2L8.6 4l2.2 7.6z"/></g><g id="r"><path fill="#30453d" d="m4.1.5 2.6.6-1 7.1z"/><path fill="url(#j)" d="M.8-8.4 2.4-.7 1 8.9l-4.3-2.4 2-8.6-1.4-3.7L-1-9z" transform="translate(3.35 8.9)"/></g><g id="q"><path fill="#1a1511" d="m12.8 4.5-.9-1.8L10.4 5l-.4-.8L7 6l-.2 3.8 1-.1-2 2.6-1.4-.5L2 13.2l-1.4-.3L0 5.2 8.7 0l4.4 2zm-10 6.2L3.5 9l-1 .3-.4 1.4z"/><path fill="#2e4137" d="m1.8 13.2 2.6-1.3 1.2.5 2.1-2.6h-1l.1-3.7 3.1-2 .4.9L12 2.7l.8 1.8-.4 3.7-4.9 6.2zm1-2.5H2l.3-1.3 1.2-.5z"/></g><g id="p"><path fill="url(#k)" d="m23.5-97.5 2.7 1.5-4 14.3-8.8 1.4-2-3 3.1-9.7 7.4-.9zM9-53.3l1.7-4 3.5 5.9z" transform="translate(-9.05 97.55)"/><path fill="#344b41" d="M2.8 1.9q.3.2-.1 1.6-1.8-3 .1-1.6"/></g><g id="o"><path fill="#201c1a" d="m2.3 123.6 15.7-7.3 2-4.5 9.8-1.2 1.9 1-2.2 1.4-7 1-.4 2.3-1.9.5-1.8.5L8 124.2l-3 .8z"/><path fill="#2b2524" d="m29.8 110.6-9.9 1.3-2 4.4-15.5 7.3L0 122q0-4.1 4.3-7t10.3-3l4-3.7 4.4 1 2.1-1.5z"/><path fill="#474038" d="m5.1 125 2.9-.8 12.3-5.5-1.9-1.5 1.9-.4 3.9.3 4.2-2.1 1-2 2.3-1.4 2.6 1.5-26.5 13.4z"/><path fill="#322d27" d="m8 124.2 10.4-7 1.9 1.5zm12.4-7.4 1.8-.5.4-2.2 7-1.1-1.1 2-4.2 2.1z"/><path fill="url(#l)" d="M-8-54.2v-41.3l37.8-17.8.2 6.5-8.1 12.9-3.3.4v25.3L15.5-64H11L7.4-51.8l-8-2.7-1.8 5.2 2.2 4.1-3.2 5.7z" transform="translate(8 113.3)"/><path fill="#2b2524" d="M26.6 45.1V109L0 122.3V59.1l4.6 14.7 3.2-5.6L5.6 64l1.8-5.2 8 2.7L19 49.4l4.5-.1z"/><path fill="#423933" d="M0 59v-.2z"/></g><g id="I"><path fill="#344b41" d="M24.4.2q.8-.4 1 0 .9 1 1.2 2.5L28.9.3l-2.9 10-.9 2.6 1.3-5.6-3 1.9-1.2 6.5-4.2 1.8.9-6L25 3.7z"/><path fill="#2e4137" d="m25.1 12.9-3 2.8 1.4-6.5 2.9-1.9zm-6.2-1.4-3.4 4.3-1.4-3.6 3.6-5 3.3-.1 3.4-7 .6 3.6zM6.7 14.7l1 8.8L4 23 .7 17.7 3 16.5v-3l2.2-.5q.5 1.8 1.1 2.6zM12 28.4l-1.4-1.6 2.7-4.2 4.3 4.8-2.9 6.1-6-1.5z"/><path fill="#463f39" d="m17 58.1.4 2.5 2.1-1.6-3.2 14.4-3.9-2.2 2.3-3.1-1.3-.2q-1.2.5-2.2 1.6l.8-6.9zm10.1 32.6-3.3 3.9-4.6-2.4 1.2-2.9-3.1-5 2.7-3.1-1.7-6.9 4.3 2.9-.2 2.6 2.3 2.5-2.3-.6 1.6 4-3.9-1.5 3.1 5.4zm-9.8-3.3-2.4 6.4-7.8-1.6-1-10L8 84.7l3.4-2.7-.4-3-4.2-3.3-1 3.5-2.6 1.3.3 5.2-3.2-.2L0 68.9l3.9-2.7 6.2 9.2 1.1-2.1 6.1 7.1-2.7 2.3h-1.2q-.3 1.4.5 3.1l-1.7 2.5-1.6-4.7-1.7 2.8 3 6.7 2.5-.2z"/><path fill="#787661" d="m24.7 82.3 2.4 8.4-3.9-1.1-3-5.4 3.8 1.5-1.6-4z"/><path fill="#938977" d="m17.3 87.4-2.9 5.3-2.6.3L9 86.3l1.7-2.8 1.6 4.8 1.8-2.6q-1-1.7-.7-3.2h1.3z"/></g><g id="G"><path fill="url(#k)" d="m23.5-97.5 2.7 1.5-4 14.3-8.8 1.4-2-3 3.1-9.7 7.4-.9zM9-53.3l1.7-4 3.5 5.9zM15.6-42q0-2.5.9-4.5h1.1z" transform="translate(-9.05 97.55)"/><path fill="#344b41" d="M2.3 2.8 2 2q2.3-3.5.3.8"/></g><g id="M"><path fill="#2e4137" d="m21.3 0 2.6 1.1-1.7 2-4.2-.6z"/><path fill="#33302b" d="m25.5 47.6-.4 3.8-4.7-3.8-1.6-5.6 1.7-6 2.6.4-.3.5-1.6 2.5v3l2.4-1.5.3 4.4zM0 76l1.8-12-1.5-4 2.5-6.4q.9 5.9 2.8 11.5 3.6 10.7-.1 20.7z"/><path fill="#69685f" d="m25.5 47.6-1.6-2.3 2.3-3.6-.2 5.2-.2 1.2zm-9.2 26L8.5 71 7.2 56.4l4.2 8 3.4-.5v4.8zm4.2 6 1-1.9 2.3 2 1.7 6.4z"/><path fill="#535751" d="m24 45.3-.4-4.4-2.4 1.5v-3l1.6-2.5 1.1-1.8 3.7 4.7-1.6 7 .1-5.1z"/><path fill="#898171" d="m16.2 73.6 2.3 2.1.9 9.9-.4.5-1.2 1.9-3.5.6-1.6-4.6 1.9-1.5 2.2 2.6-.8-3.8-4.9-4.5.8-2.9zM9.1 90l1.8 4-3.4-1.1-3.2 1.5 1.2-6.9 4.4-1.6z"/><path fill="#463f39" d="m14.6 82.5 1.4-1.2.8 3.8zm1.8 26.1v2.2l-3.3 2.9-8.6-1.6v-10.8l6.6 2-4.1 1.6 2.6 5.1z"/><path fill="#938977" d="m11 103.3 5.4 2.9v2.4L9.6 110 7 104.9z"/></g><g id="L"><path fill="#1a1511" d="M26.7 4.5q-3 0-5.2 1.8t-2.2 4.4l-1.4-6L24.3 0z"/><path fill="#2e4137" d="M19.3 10.7q0-2.6 2.2-4.4 2.1-1.8 5.1-1.8 0 2.5-2.1 4.4-2.2 1.8-5.2 1.8"/><path fill="#535751" d="m14.8 53.5-4.1-4.3.9-2.2zM1.7 57.7l.9-2.2 6 13.7-3.6-6z"/><path fill="url(#m)" d="m8.6-37.4-5.3-1.9 1-2.3.7-1.7z" transform="translate(-.05 106.6)"/><path fill="url(#n)" d="M4.3-41.6 0-44.8l1.7-4L5-43.4z" transform="translate(-.05 106.6)"/></g><g id="K"><path fill="url(#k)" d="m23.5-97.5 2.7 1.5-4 14.3-8.8 1.4-2-3 3.1-9.7 7.4-.9zm-4.2 7 .3.7q1.9-4.2-.3-.7M9.1-53.3l1.7-4 3.5 5.9zm8.5 6.8-2 4.5-1.8-1 1.8-4z" transform="translate(-9.05 97.55)"/><path fill="#344b41" d="M10.3 7q2.1-3.5.3.8z"/></g><g id="ab" transform="translate(10.55 113.3)"><use xlink:href="#o" width="38" height="126.5" transform="translate(-8 -113.3)"/><use xlink:href="#p" width="17.1" height="46.1" transform="translate(9.05 -97.55)"/><use xlink:href="#q" width="13.1" height="14.4" transform="matrix(.84 0 0 .84 .75 -86.55)"/><use xlink:href="#r" width="6.7" height="17.8" transform="translate(-8.5 -72.3)"/><use xlink:href="#s" width="10.8" height="11.8" transform="translate(21.85 -112.1)"/><use xlink:href="#t" width="20.1" height="51.3" transform="translate(-5.2 -59.6)"/><use xlink:href="#u" width="8.8" height="11.1" transform="translate(-8.1 -64.8)"/><use xlink:href="#v" width="12.2" height="13.6" transform="matrix(.75 -.9 -.9 -.75 1.65 11.95)"/><use xlink:href="#w" width="6.1" height="4.9" transform="translate(16.5 -3.1)"/><use xlink:href="#x" width="23.7" height="23.3" transform="matrix(.46 0 0 .46 10.15 -12)"/><use xlink:href="#y" width="8.2" height="9.1" transform="translate(-5.85 -2.35)"/><use xlink:href="#z" width="10.9" height="21.1" transform="translate(12.75 -43.2)"/><use xlink:href="#A" width="16.3" height="21.9" transform="translate(5.55 -68.05)"/><use xlink:href="#B" width="13.7" height="26.2" transform="rotate(28.1 187.029 -2.877)"/><use xlink:href="#C" width="17.8" height="107.9" transform="translate(7.35 -104.8)"/><use xlink:href="#D" width="4" height="4" transform="rotate(35.5 34 10.989)scale(1.67)"/><use xlink:href="#D" width="4" height="4" transform="rotate(65.6 32.152 -17.117)scale(3.13)"/><use xlink:href="#D" width="4" height="4" transform="rotate(101.4 30.64 -24.729)scale(2.78)"/></g><g id="Z" transform="translate(10.55 113.3)"><use xlink:href="#o" width="38" height="126.5" transform="translate(-8 -113.3)"/><use xlink:href="#p" width="17.1" height="46.1" transform="translate(9.05 -97.55)"/><use xlink:href="#q" width="13.1" height="14.4" transform="matrix(.84 0 0 .84 .75 -86.55)"/><use xlink:href="#r" width="6.7" height="17.8" transform="translate(-8.5 -72.3)"/><use xlink:href="#s" width="10.8" height="11.8" transform="translate(21.85 -112.1)"/><use xlink:href="#t" width="20.1" height="51.3" transform="translate(-5.2 -59.6)"/><use xlink:href="#u" width="8.8" height="11.1" transform="translate(-8.1 -64.8)"/><use xlink:href="#v" width="12.2" height="13.6" transform="matrix(.75 -.9 -.9 -.75 1.65 11.95)"/><use xlink:href="#w" width="6.1" height="4.9" transform="translate(16.5 -3.1)"/><use xlink:href="#x" width="23.7" height="23.3" transform="matrix(.46 0 0 .46 10.15 -12)"/><use xlink:href="#y" width="8.2" height="9.1" transform="translate(-5.85 -2.35)"/><use xlink:href="#z" width="10.9" height="21.1" transform="translate(12.75 -43.2)"/><use xlink:href="#A" width="16.3" height="21.9" transform="translate(5.55 -68.05)"/><use xlink:href="#B" width="13.7" height="26.2" transform="rotate(28.1 187.029 -2.877)"/><use xlink:href="#C" width="17.8" height="107.9" transform="translate(7.35 -104.8)"/><use xlink:href="#E" width="4" height="4" transform="rotate(35.5 34 10.989)scale(1.67)"/><use xlink:href="#E" width="4" height="4" transform="rotate(65.6 32.152 -17.117)scale(3.13)"/><use xlink:href="#E" width="4" height="4" transform="rotate(101.4 30.64 -24.729)scale(2.78)"/></g><g id="X" transform="translate(10.55 113.3)"><use xlink:href="#o" width="38" height="126.5" transform="translate(-8 -113.3)"/><use xlink:href="#p" width="17.1" height="46.1" transform="translate(9.05 -97.55)"/><use xlink:href="#q" width="13.1" height="14.4" transform="matrix(.84 0 0 .84 .75 -86.55)"/><use xlink:href="#r" width="6.7" height="17.8" transform="translate(-8.5 -72.3)"/><use xlink:href="#s" width="10.8" height="11.8" transform="translate(21.85 -112.1)"/><use xlink:href="#t" width="20.1" height="51.3" transform="translate(-5.2 -59.6)"/><use xlink:href="#u" width="8.8" height="11.1" transform="translate(-8.1 -64.8)"/><use xlink:href="#v" width="12.2" height="13.6" transform="matrix(.75 -.9 -.9 -.75 1.65 11.95)"/><use xlink:href="#w" width="6.1" height="4.9" transform="translate(16.5 -3.1)"/><use xlink:href="#x" width="23.7" height="23.3" transform="matrix(.46 0 0 .46 10.15 -12)"/><use xlink:href="#y" width="8.2" height="9.1" transform="translate(-5.85 -2.35)"/><use xlink:href="#z" width="10.9" height="21.1" transform="translate(12.75 -43.2)"/><use xlink:href="#A" width="16.3" height="21.9" transform="translate(5.55 -68.05)"/><use xlink:href="#B" width="13.7" height="26.2" transform="rotate(28.1 187.029 -2.877)"/><use xlink:href="#C" width="17.8" height="107.9" transform="translate(7.35 -104.8)"/><use xlink:href="#F" width="4" height="4" transform="rotate(35.5 34 10.989)scale(1.67)"/><use xlink:href="#F" width="4" height="4" transform="rotate(65.6 32.152 -17.117)scale(3.13)"/><use xlink:href="#F" width="4" height="4" transform="rotate(101.4 30.64 -24.729)scale(2.78)"/></g><g id="V" transform="translate(10.55 113.3)"><use xlink:href="#o" width="38" height="126.5" transform="translate(-8 -113.3)"/><use xlink:href="#G" width="17.1" height="55.5" transform="translate(9.05 -97.55)"/><use xlink:href="#q" width="13.1" height="14.4" transform="matrix(.84 0 0 .84 -4 -98.55)"/><use xlink:href="#r" width="6.7" height="17.8" transform="translate(-8.5 -72.3)"/><use xlink:href="#s" width="10.8" height="11.8" transform="translate(21.85 -112.1)"/><use xlink:href="#H" width="4.1" height="6.5" transform="translate(10.75 -59.6)"/><use xlink:href="#u" width="8.8" height="11.1" transform="translate(-8.1 -64.8)"/><use xlink:href="#v" width="12.2" height="13.6" transform="matrix(.27 -.38 .38 .27 5.1 5.4)"/><use xlink:href="#w" width="6.1" height="4.9" transform="translate(16.5 -3.1)"/><use xlink:href="#x" width="23.7" height="23.3" transform="matrix(.46 0 0 .46 -6.1 -1.25)"/><use xlink:href="#y" width="8.2" height="9.1" transform="translate(-5.85 -2.35)"/><use xlink:href="#z" width="10.9" height="21.1" transform="translate(12.75 -43.2)"/><use xlink:href="#A" width="16.3" height="21.9" transform="translate(-7.95 -58.3)"/><use xlink:href="#B" width="13.7" height="26.2" transform="rotate(28.1 187.029 -2.877)"/><use xlink:href="#I" width="28.9" height="94.6" transform="translate(-5.6 -97.25)"/><use xlink:href="#J" width="4" height="4" transform="rotate(35.5 92.183 -28.229)scale(2.79)"/><use xlink:href="#J" width="4" height="4" transform="rotate(35.6 3.21 1.975)scale(1.9)"/><use xlink:href="#J" width="4" height="4" transform="matrix(.85 -.99 .99 .85 11.6 -17.65)"/></g><g id="T" transform="translate(10.55 113.3)"><use xlink:href="#o" width="38" height="126.5" transform="translate(-8 -113.3)"/><use xlink:href="#K" width="17.1" height="55.5" transform="translate(9.05 -97.55)"/><use xlink:href="#q" width="13.1" height="14.4" transform="translate(.85 -98.1)"/><use xlink:href="#r" width="6.7" height="17.8" transform="translate(-3.35 -68.4)"/><use xlink:href="#s" width="10.8" height="11.8" transform="translate(-3.75 -99.5)"/><use xlink:href="#L" width="26.6" height="69.2" transform="translate(.05 -106.6)"/><use xlink:href="#u" width="8.8" height="11.1" transform="translate(6.5 -76.8)"/><use xlink:href="#w" width="6.1" height="4.9" transform="translate(13 -4.35)"/><use xlink:href="#x" width="23.7" height="23.3" transform="translate(-1.35 -20.8)"/><use xlink:href="#y" width="8.2" height="9.1" transform="translate(.45 -6)"/><use xlink:href="#v" width="12.2" height="13.6" transform="translate(4.4 -15.95)"/><use xlink:href="#z" width="10.9" height="21.1" transform="translate(-.65 -38.95)"/><use xlink:href="#A" width="16.3" height="21.9" transform="translate(6 -52.95)"/><use xlink:href="#B" width="13.7" height="26.2" transform="rotate(11 450.6 -23.838)"/><use xlink:href="#M" width="27.6" height="113.7" transform="translate(-6.75 -103.65)"/><use xlink:href="#J" width="4" height="4" transform="rotate(35.7 62.77 -1)scale(2.31)"/><use xlink:href="#J" width="4" height="4" transform="matrix(1.3 .93 -.93 1.3 6.1 -54.8)"/><use xlink:href="#J" width="4" height="4" transform="rotate(35.8 14.618 3.411)scale(2.07)"/></g><g id="R" transform="translate(10.55 113.3)"><use xlink:href="#o" width="38" height="126.5" transform="translate(-8 -113.3)"/><use xlink:href="#N" width="14.8" height="17.3" transform="translate(11.45 -97.55)"/><use xlink:href="#q" width="13.1" height="14.4" transform="translate(10.6 -109.85)"/><use xlink:href="#r" width="6.7" height="17.8" transform="translate(15.15 -77.15)"/><use xlink:href="#s" width="10.8" height="11.8" transform="translate(-3.75 -99.5)"/><use xlink:href="#u" width="8.8" height="11.1" transform="translate(6.5 -76.8)"/><use xlink:href="#v" width="12.2" height="13.6" transform="translate(-.1 -12.6)"/><use xlink:href="#w" width="6.1" height="4.9" transform="translate(13 -4.35)"/><use xlink:href="#x" width="23.7" height="23.3" transform="translate(.7 -26.15)"/><use xlink:href="#y" width="8.2" height="9.1" transform="translate(-5.85 -2.35)"/><use xlink:href="#z" width="10.9" height="21.1" transform="translate(-6.9 -36.7)"/><use xlink:href="#A" width="16.3" height="21.9" transform="translate(-1.25 -52.2)"/><use xlink:href="#B" width="13.7" height="26.2" transform="translate(-2.6 -80.55)"/><use xlink:href="#J" width="4" height="4" transform="rotate(35.7 48.855 -10.41)scale(2.31)"/><use xlink:href="#J" width="4" height="4" transform="rotate(35.6 88.633 -34.713)scale(1.6)"/><use xlink:href="#J" width="4" height="4" transform="rotate(35.5 38.447 19.535)scale(2.79)"/></g><linearGradient id="a" x1="-819.2" x2="819.2" gradientTransform="matrix(-.01 -.02 .02 -.01 1.05 -34)" gradientUnits="userSpaceOnUse" spreadMethod="pad"><stop offset="0" stop-color="#463f39" stop-opacity="1"/><stop offset="1" stop-color="#0d130f" stop-opacity="1"/></linearGradient><linearGradient id="b" x1="-819.2" x2="819.2" gradientTransform="matrix(-.01 -.02 .02 -.01 9.35 -49.1)" gradientUnits="userSpaceOnUse" spreadMethod="pad"><stop offset="0" stop-color="#463f39" stop-opacity="1"/><stop offset="1" stop-color="#0d130f" stop-opacity="1"/></linearGradient><linearGradient id="c" x1="-819.2" x2="819.2" gradientTransform="matrix(-.01 -.02 .02 -.01 9.7 -77.4)" gradientUnits="userSpaceOnUse" spreadMethod="pad"><stop offset="0" stop-color="#463f39" stop-opacity="1"/><stop offset="1" stop-color="#0d130f" stop-opacity="1"/></linearGradient><linearGradient id="d" x1="-819.2" x2="819.2" gradientTransform="matrix(-.01 -.02 .02 -.01 -4.6 -60.75)" gradientUnits="userSpaceOnUse" spreadMethod="pad"><stop offset="0" stop-color="#463f39" stop-opacity="1"/><stop offset="1" stop-color="#0d130f" stop-opacity="1"/></linearGradient><linearGradient id="g" x1="-819.2" x2="819.2" gradientTransform="translate(-27.75 -8.35)scale(-.01)" gradientUnits="userSpaceOnUse" spreadMethod="pad"><stop offset="0" stop-color="#463f39" stop-opacity="1"/><stop offset="1" stop-color="#0d130f" stop-opacity="1"/></linearGradient><linearGradient id="h" x1="-819.2" x2="819.2" gradientTransform="matrix(-.01 -.02 .02 -.01 1.95 -69.45)" gradientUnits="userSpaceOnUse" spreadMethod="pad"><stop offset="0" stop-color="#463f39" stop-opacity="1"/><stop offset="1" stop-color="#0d130f" stop-opacity="1"/></linearGradient><linearGradient id="i" x1="-819.2" x2="819.2" gradientTransform="matrix(-.01 -.02 .02 -.01 -2.95 -4)" gradientUnits="userSpaceOnUse" spreadMethod="pad"><stop offset="0" stop-color="#463f39" stop-opacity="1"/><stop offset="1" stop-color="#0d130f" stop-opacity="1"/></linearGradient><linearGradient id="j" x1="-819.2" x2="819.2" gradientTransform="rotate(243.4 -7.438 -.24)scale(.02)" gradientUnits="userSpaceOnUse" spreadMethod="pad"><stop offset="0" stop-color="#463f39" stop-opacity="1"/><stop offset="1" stop-color="#0d130f" stop-opacity="1"/></linearGradient><linearGradient id="k" x1="-819.2" x2="819.2" gradientTransform="matrix(-.01 -.02 .02 -.01 7.95 -75.25)" gradientUnits="userSpaceOnUse" spreadMethod="pad"><stop offset="0" stop-color="#463f39" stop-opacity="1"/><stop offset="1" stop-color="#0d130f" stop-opacity="1"/></linearGradient><linearGradient id="l" x1="-819.2" x2="819.2" gradientTransform="matrix(-.01 -.02 .04 -.02 13.4 -84.4)" gradientUnits="userSpaceOnUse" spreadMethod="pad"><stop offset="0" stop-color="#27231d" stop-opacity="1"/><stop offset="1" stop-color="#000" stop-opacity="1"/></linearGradient><linearGradient id="n" x1="-819.2" x2="819.2" gradientTransform="rotate(243.4 -21.152 -33.05)scale(.02)" gradientUnits="userSpaceOnUse" spreadMethod="pad"><stop offset="0" stop-color="#463f39" stop-opacity="1"/><stop offset="1" stop-color="#0d130f" stop-opacity="1"/></linearGradient><linearGradient id="m" x1="-819.2" x2="819.2" gradientTransform="matrix(-.01 -.02 .02 -.01 2.2 -61.25)" gradientUnits="userSpaceOnUse" spreadMethod="pad"><stop offset="0" stop-color="#463f39" stop-opacity="1"/><stop offset="1" stop-color="#0d130f" stop-opacity="1"/></linearGradient><clipPath id="Q"><path d="M1 1h44v127H1z"/></clipPath><clipPath id="S"><path d="M46 1h44v127H46z"/></clipPath><clipPath id="U"><path d="M91 1h44v127H91z"/></clipPath><clipPath id="W"><path d="M136 1h44v127h-44z"/></clipPath><clipPath id="Y"><path d="M181 1h44v127h-44z"/></clipPath><clipPath id="aa"><path d="M226 1h44v127h-44z"/></clipPath><use xlink:href="#O" id="P" width="3.5" height="3.5"/><use xlink:href="#P" id="D" width="3.5" height="3.5" transform="rotate(114 .889 1.751)scale(.4)"/><use xlink:href="#P" id="E" width="3.5" height="3.5" transform="matrix(.53 .6 -.6 .53 2.05 0)"/><use xlink:href="#P" id="F" width="3.5" height="3.5" transform="matrix(.5 0 0 .5 1 1.1)"/><path id="H" fill="#535751" d="m10.8-57.3.8-2.3 3.3 6.5z" transform="translate(-10.75 59.6)"/><path id="N" fill="url(#k)" d="m21.9-93.9 1.6-3.6 2.7 1.5-4 14.3-8.8 1.4-2-3 3.1-9.7z" transform="translate(-11.45 97.55)"/></defs><g clip-path="url(#Q)"><use xlink:href="#R" width="43.2" height="126.5" transform="translate(1 1)"/></g><g clip-path="url(#S)"><use xlink:href="#T" width="43.2" height="126.5" transform="translate(46 1)"/></g><g clip-path="url(#U)"><use xlink:href="#V" width="43.2" height="126.5" transform="translate(91 1)"/></g><g clip-path="url(#W)"><use xlink:href="#X" width="43.2" height="126.5" transform="translate(136 1)"/></g><g clip-path="url(#Y)"><use xlink:href="#Z" width="43.2" height="126.5" transform="translate(181 1)"/></g><g clip-path="url(#aa)"><use xlink:href="#ab" width="43.2" height="126.5" transform="translate(226 1)"/></g></svg>