<svg xmlns="http://www.w3.org/2000/svg" xmlns:xlink="http://www.w3.org/1999/xlink" width="42" height="51" viewBox="0 0 42 51"><defs><g id="a"><path fill="#9b9893" d="m23 2.3.4.4q2.6 8.3-4.6 14l-.6-.6q-1.6-1.5-2.2-3.5l-.5-1.2 1-.8q.7-5.1-1-9.7l-.3-.3.5-.5q3.8.2 7.3 2.2l-5.4 5z"/><path fill="#52504b" d="m16 12.6.8 5.4q-6.5-1-12.4-4L.6 11.9v-1.7L0 9.5l2.4-.8q5.6 2.8 11.9 2.7h1.2z"/><path fill="#7b7871" d="m2.4 8.7-.2-.4L14.6 0l.6.6.3.3q1.7 4.6 1 9.7l-1 .8h-1.2q-6.3.1-12-2.7"/><path fill="none" stroke="#423837" stroke-linecap="round" stroke-linejoin="round" stroke-width="__RESOLUTION__" d="M23.4 2.7q2.6 8.3-4.6 14l-.6-.6q-1.6-1.5-2.2-3.5l.8 5.4q-6.5-1-12.4-4L.6 11.9v-1.7L0 9.5l2.4-.8-.2-.4L14.6 0m.6.6.5-.5q3.8.2 7.3 2.2" vector-effect="non-scaling-stroke"/><path fill="none" stroke="#70625f" stroke-linecap="round" stroke-linejoin="round" stroke-width="__RESOLUTION__" d="m23 2.3-5.4 5m-2.1 4-1.2.1q-6.3.1-12-2.7M15.2.6l.3.3q1.7 4.6 1 9.7l-1 .8" vector-effect="non-scaling-stroke"/></g><g id="e"><path fill="#fcf5e9" d="M9.2 9.8q0-1 .5-1.8h.2l1 .5.4-2.4 2.3-.1.8-.2.3-.3.8 2.9v.1h-.9l-.7-.3-.2 1.2h-.4l-.7-1.7q-.8.4-1.2 1.2-.3.6-.2 1.4v1.1q0 .3-.3.5l-.2.1h-.4l-.1-.2.2-.2.3-.8v-1l-.1-.6h-.4l-.5.6-.1.6-.1.4h-1l-.4-.1.4-.6-.1-.3-.8-.1-.7 1-.3.1-.8.3-.2-.2.3-.5q.4-.9.3-1.8V8q.1-1 1-1.6l.1.1h.4l.5.5v1q.2 1 .8 1.8l.2.2zm1.6 2.5q.9-.5.8-1.6 0-.6.3-1.2t.9-.3l.6.8.9.2h.3v-1h.3q.1.7.7 1l.7.2v.1q.1.4 0 .8l-.6.2q-.5 0-.9-.4l-.2-.4-.2 5 1.8.7h.4l.7-.1 1.1.1.6.5-.1.3-.7.2H18l-.1-.2-.5-.2H17q-.6-.3-1.2 0l-.1-.2-.4.2-1.1-.5-.4-.2-.6-.2-.1.4-.6.1-.2-.1q-.6-1-.5-2.3l-.5 1.2-.2.3-.4 1-.2.1-.1-.2v-3.3zm3.8 8.6q0 .8.6 1.1l.2.2v.5l-.5.2q-.3 0-.5-.2v-1.6z"/><path fill="#9e8447" d="m14.7 5.5-.3.3-.8.2-2.2.1-.5 2.4-1-.5h-.2q-.5.8-.5 1.8H9Q8.3 9 8.3 8l-.1-1.1-.5-.6v-.2l1.9-.7h1.7l3.4-.2zm-7.8 5.2.7-1 .8.1.1.3-.4.6h.3l.8.1h.3l.1-.4.1-.6.5-.7.4.1.1.6v1l-.3.8-.2.2.1.2h.5v.3l-1 .1v-.3l-.1-.4v-.5H8.3l-.1-.2-.3-.1-.3.2-.2.4-.5.6zm3.5-3.8.8-1.3.2-.2-.2.2zM1.3 23h-1l-.3-.2v-.4l.2-.6v-.2l.2-.1 1.2-.6h.1l.2-.4.2-.2.2-.7.2-.4v.1h.2l.7-.4 1.3-.1.4.1.2.1q.2.1.2.4v.6l-.1.3-.2.1L4 21l-1.4 1-.3-.2q.7-.9 1.8-1.4l.6-.4v-.5l-1.2-.1-.3.2-.4.4-.3-.1-.4.6q-.6 1-.8 2.3zm11.5-2.8-.1-.1-.1-.2h-.1l-.2-.4-.2-.3v-1l.4-.1h.1l.2-.1.8-.1h.1l.6.3.1.1.6.9v.2l.1.3v.3l-.4.7-.2.2-.1-.2-.2.4.3-.2-.1-.2.4-1-.7-1-1.4.2v.9l.7.3-.2.1-.1.1z"/><path fill="#fbf3dd" d="M9.2 9.8v.2L9 9.8zM7.7 6.3l-.4.1v-.1h.1l.3-.2zM15 19.2h.2l-.1.8v-.6zm-9.4 1.3-1.5 1-1.5.5L4 21l1.3-.6.1-.1zM7.4 6.4"/><path fill="#f5e1b4" d="M10.9 12q.3-.2.3-.5v-1.1q-.1-.8.2-1.4.3-.8 1.2-1.2l.7 1.6.3.1.3-1.2.7.3V9l-.2.1v1.1l-.1.1-.9-.2-.6-.8q-.6-.3-.9.3t-.3 1.2q.1 1.1-.8 1.6l-.4 1v3.3l.1.2.2-.2.4-.9.3-.3.3-1.2h.1q-.1 1.2.4 2.3l.2.1h.7l.2-.5.5.2.4.2 1 .5h-1q0 .6.3 1l.6.6v.6H15l-.6-.9-.1-.1-.6-.3h-.1l-.8.1h-.2l-.1.1-.3.1-.1.1v.9l.2.3.2.4.2.2v.1q-.5-.8-1.5-.9l-2-.2-2 .2-.7.1-1 1.1-.1-.2.1-.3v-.6l-.2-.4H5l-.4-.2-1.3.1-.7.3-.2.1V19l.3-.2q.8-.6 1.7-.6l.1.1.3-.1.1.2.8-.5.2-.2 1.4.1.5-.1.3-.3.4-.2h.8v-.3q-.6-.9-.6-2L9 14v-.6l.3-2.2h.6l-.1.5v.4l.2.3h.8zM2.5 22h-.3v-.2z"/><path fill="#f5f1e9" d="M14.4 10.1V9l.2-.1v1.3zm-1.9 6.5h-.2v-.2z"/><path fill="#cdc0a5" d="m18 17.3 1.3 1.1q-.9.3-1.6 1.1l-.2.3-1 1.1q-.6.7-.6 1.4v.4l-.1.4q0 .9-.4 1.6v.1q-4-3.2-9.1-3.2-.9 0-1.5.6l-.5 1.1-.3 1v-1.4l-.4 1.3-1 2.1.1.3.3.4 1-.5q.4-.4.3-.9l.1.3.6.8 2.2.5q.8 1.2 2.1 2l.1.1.7.3-.4.2.1.1q3.8 3.3 5.8 7.8l1.2-.5.6-.1h.6l.5-.6h.1l.2.3h.5l.3-.1.3-.2.8.3q.3-.6.9-1h.3l.7-1 .6 1 .3-2.6.7.3.4.8.5 1.7v.1l.1.4v.1l-.2.2-.1-.2-.2-.4L24 35l.4 1.8-.1.5-.2.6-.2-.2q-.7-.7-1.2-1.6l-.5.1v.5l-.1.7-.1.3-.5.7-.4-.1-.2.2-.3-.2-.9-1-.2.1q-1 .4-1.1 1.4h-.1l-.1.7q-.6-.4-.8-.9l-.1-.2v1.4l-1-.5v1.4q-1.4-1.3-2.2-2.9l-.1-.1q-.3 1 .4 1.9l1.3 1q3.6 1.8 7.5 3.2-1.1 1-2.6 1.2-1.8-.6-3.5-1.4-4.4-2.2-4.6-6.8h.1l-1.2-2.2-.6-1q-1.2-1.8-2.9-3.4l-.7-.7v-.1l-.6-.2-1.6-.4h-.7q0 2.9 2.4 4.6l.1.1-2.3.3H4l-.6-.1q-3.1-4-2.2-9.5l.1-1.2v-.2q.2-1.3.8-2.3l.4-.6.3.1.4-.4.3-.2 1.2.1v.5l-.7.4q-1 .5-1.7 1.4v.2h.3q.8-.2 1.5-.6l1.5-.9 1-1 .7-.2 2-.2 1.8.2q1.1.1 1.7 1h.4l.2-.2-.7-.3v-.9l1.4-.2.7 1-.4 1-.2.4.2 1.6q.1.2.4.2l.5-.2v-.5l-.2-.2q-.7-.3-.6-1l.2-.3.4-.7v-1.4l-.6-.6q-.3-.4-.3-1h1l.5-.2.2.1q.5-.2 1 0l.5.1.5.2zm-13.4.8.4-.2v.2zm3-1.6h.2zM20.9 32l.1.1.1 1.1v.1q-.3-.6-1-.6v2h-.9l-.2-.2-.3-.2h-.2l-.2-.1q-.4-.1-.6-.5l-1-.7-.2-.5v-.2l-.2-.7.1-.5-.1-.4V30l.6.3v.4l.1 1.4.3.5 1 1.1.5.4h.7v-1.5l.2-.2z"/><path fill="#eee8d2" d="m19.3 18.4.3.3q1.2 1.3 2 3.1l1.3 3.4q.4 2-.7 3.7l-.1.1.8 2.4.3.5v.1q4.3 5.3 9.8 2 1.1-.7 1.6-1.9.4-.9.1-1.9l.4 1.9-.1 1.8q-1.4 1.1-3 1.8-4 1.6-7.4-1.4l-.4-.8-.7-.3-.3 2.6-.6-1-.7 1h-.3q-.6.4-.9 1l-.8-.3-.3.1-.3.2h-.5l-.2-.2h-.1l-.5.4-.6.1-.6.1-1.2.4q-2-4.5-5.8-7.7h-.1l.4-.2 3.2-.2.5-.5.5-.6q.3-.7.1-1.7-.6-2.3-2.7-2.9-2.2-.9-4.3-.8l-.9.1-.2.4v.2q-.1 2 .9 3.5L5 26.6l-.6-.7-.2-.2-.1-.4-.1-1 .3-1 .5-1q.6-.7 1.5-.7 5 0 9 3.2h.1q.4-.8.4-1.7.1 1.6 1.6 3l.2.1q1 .8 2-.4 2.1-2.9.1-5.9l-.6-.7-1.4.4-.2.2.2-.3q.7-.8 1.6-1.1M16.6 41l.2.1h.1q4.2 2.3 8.3.3-.9 1.5-2 2.4-3.9-1.4-7.5-3.1l-1.3-1.1q-.7-.9-.4-1.9v.1q.9 1.6 2.3 2.9v.1zm-.2-20-.2.5-.3.8q0-.7.5-1.4m7 11.1.9 1.5zM17 30.2h-.1l-.6-.3v.9l.1.4v.5H16l.3.7v.2l.3.4.9.8q.2.4.6.5l.2.1h.2l.3.1.3.3q.3.1.8 0v-2q.7 0 1 .6l-.1-1.1-.1-.2V32q-.7-1.4-1.8-2.5l-.1 1.4-.3-.2q-.9-.6-1.7-.5m4.5-3.8L22 29zm-14 3.2-.5-.1-.2-.2.6.2z"/><path fill="#786743" d="M35 34q-.7 2-3.5 3.1-3.1 1.4-6.2-.5l-.2-.5V36l-.5-1.7q3.4 3 7.4 1.4 1.6-.7 3-1.8m-10.1 2.7-.4-.6v.3l-.1.5-.4-1.7.7 1.1zm-.7 1.3-.8 1-1-2.4-.2-.1v-.2l.4-.1q.6.9 1.3 1.6zm-2.1-.5-.2 1.2-.4-.2.5-.7zm-1.2 1.1-.4.3-.9-1.2-.7 2-.5-.8q0-1 1-1.4l.4-.1.8 1zm-2.7 1-.1.7-.9-.4v-1.4l.2.2q.3.5.8.9m2.4 5.5q-2.2.4-5-.9-2.2-1-3.5-3.3-2-3.1-2-6.7l-.3-.1q0-1-.5-1.9-1.2-2.3-3.4-2l.1.4q.7 1.7 1.7 3h-1q-2.4-1.8-2.4-4.7H5l1.6.3.2.3.5.1.6.7q1.7 1.6 2.9 3.4l.6 1 1.2 2.1-.1.1q.2 4.6 4.6 6.8 1.7.8 3.5 1.4m-3-18.8q.9-.9 1.3-2l.2-.9v-1.1l-.1-1.3q0-.5-.4-.7l-.9-.6 1.4-.5.6.8q2 3-.1 6-1 1.1-2 .3M6.3 23.7v-.2l.2-.4h.9q2-.2 4.3.7 2.1.6 2.7 2.9.3 1 0 1.7l-.6.6-.6.5-3.1.1-.7-.3q1.3.1 2.7-.4l.5-.2.3-.2.4-.3.3-.3.2-.6-.8-.8-1.8-1.3q-1.8-1-3.7-1.3zm5.1 10.8-1.2-.4z"/><path fill="#32291d" d="m9.8 34-2.2-.5q-1-1.3-1.6-3v-.4q2.2-.3 3.4 2 .4.8.4 1.9"/><path fill="#d9ca99" d="m4.9 17.9.1-.2.3-.3 1.1-.4.4-.2.7-.2h.2L7 14.4l-.2-2.3.5-.6.2-.4.3-.2.3.1.2.2H9v3.6q-.1 1.1.4 2v.2l-.7.1-.3.2-.4.3-.5.1-1.5-.1-.1.2-.7.5-.2-.2zm-1 6.4.2 1 .2.3q.1.5-.3.9L3 27l-.3-.4-.1-.3 1-2.1.4-1.3z"/><path fill="#1b1610" d="M15.8 23.2v-.5l.1-.4.2-.8.3-.6 1-1.1.4-.2.8.6q.4.2.4.7l.1 1.3v1.1l-.2.9q-.4 1.1-1.3 2l-.2-.2q-1.5-1.3-1.6-2.9m-8.6 4.1q-1-1.5-.9-3.5l1.2.2q1.9.3 3.7 1.3l1.8 1.3.8.8-.2.6-.3.3-.4.3-.3.2-.5.2q-1.3.5-2.7.4h-.1q-1.4-.9-2.1-2"/><path fill="#000" d="M16.9 30.2q.9 0 1.7.5l.3.2.1-1.4q1.1 1.1 1.8 2.5v.1l-1.2.2-.2.3v1.3l-.7.1-.6-.4-.9-1-.3-.6-.1-1.4z"/><path fill="none" stroke="#342b21" stroke-linecap="round" stroke-linejoin="round" stroke-width="2" d="m11.3 5.4.1-.8v-.2l.1-.5-.2-.9v-.4l-.5-1.3-.1-.3m.6 4.4-.2.2-.8 1.3"/><path fill="none" stroke="#f1dd98" stroke-linecap="round" stroke-linejoin="round" stroke-width="__RESOLUTION__" d="m14.7 5.5-.3.3-.8.2-2.2.1-.5 2.4-1-.5h-.2q-.5.8-.5 1.8v.2L9 9.8Q8.3 9 8.3 8l-.1-1.1-.5-.6-.4.1h.1l.3-.3 1.9-.7h1.7l3.4-.2zm-7.4.8q-1 .6-1 1.6v.7q0 1-.5 1.8l-.2.5.2.2.8-.3.3-.1.7-1 .8.1.1.3-.4.6h.3l.8.1h.3l.1-.4.1-.6.5-.7.4.1.1.6v1l-.3.8-.2.2.1.2h.5m.1-.1q.3-.2.3-.5v-1.1q-.1-.8.2-1.4.3-.8 1.2-1.2l.7 1.6.3.1.3-1.2.7.3h.8v-.1l-.7-2.9h0m-.1 3.4v-.4m0 .7V9m.3.3v-.7m0 .7q.1.7.7 1l.7.2v.1q.1.4 0 .8l-.6.2q-.5 0-.9-.4l-.2-.4-.2 5 1.8.7h.4l.7-.1 1.1.1.6.5-.1.3-.7.2H18l-.1-.2-.5-.2H17q-.6-.3-1.2 0M1.3 23h-1l-.3-.2v-.4l.2-.6v-.2l.2-.1 1.2-.6h.1l.2-.4.2-.2.2-.7.2-.4V19l.3-.2q.8-.6 1.7-.6l.1.1.3-.1V18l.1-.2.3-.3 1.1-.4.4-.2.7-.2h.2L7 14.4l-.2-2.3v-1.4m8.5 6.3.4-.2m-.5 2.4-.1-.6-.6-.6q-.3-.4-.3-1h1m0 2.2-.1.8-.4.7-.2.2q0 .8.6 1.1l.2.2v.5l-.5.2q-.3 0-.5-.2v-1.6l.1-.4.4-1-.7-1-1.4.2v.9l.7.3-.2.1-.1.1h-.4q-.5-.9-1.5-1l-2-.2-2 .2-.7.1-1 1.1-1.4 1-1.5.5h-.3 0v-.2q.7-.9 1.8-1.4l.6-.4v-.5l-1.2-.1-.3.2-.4.4-.3-.1m11.9.8.1.2-.2.2M3.9 24.3l.2 1 .2.3q.1.5-.3.9L3 27l-.3-.4-.1-.3 1-2.1.4-1.3zm-1.5-5" vector-effect="non-scaling-stroke"/><path fill="none" stroke="#8c7253" stroke-linecap="round" stroke-linejoin="round" stroke-width="__RESOLUTION__" d="m18 17.3 1.3 1.1.3.3h0q1.2 1.3 2 3.1l1.3 3.4q.4 2-.7 3.7m-.1.1.8 2.4.3.5v.1q4.3 5.3 9.8 2 1.1-.7 1.6-1.9.4-.9.1-1.9l.4 1.9-.1 1.8q-.7 2.1-3.5 3.3-3.1 1.3-6.2-.6h-.1l-.2.2-.1-.2-.4-.6v.3l-.1.5-.1.5-.2.6-.7 1-1-2.4-.2-.1v.3m-.1.7-.2 1.2-.4-.2-.4-.1-.2.2-.4.3-.9-1.2-.7 2-.5-.8h-.1l-.1.7-.1.7-.9-.4-.9-.5v1.4l.1.1.3.2.1.1h.1q4.2 2.3 8.3.3-.9 1.5-2 2.4-1.1 1-2.6 1.2-2.2.4-5-.9-2.2-1-3.5-3.3-2-3.1-2-6.7l-.3-.1-2.2-.5h-.4m-.4 0-2.3.3h-1l-.1-.1q-3.1-4-2.2-9.5l.1-1.2v-.2q.2-1.3.8-2.3l.4-.6m2-1.7.4-.3m19.3 15.6-1-1.5m-1.1-3-.7-2.6m3.2 7.9.5 1.7v.1l.1.4.1.1m-1-3.2.4.8m-8.3 6.4q-1.4-1.3-2.2-2.9l-.1-.1m2.6 3.3-.3-.2v-.1m-9-11.2.6.7q1.7 1.6 2.9 3.4h0l.6 1 1.2 2.1m-5.3-7.2-.1-.1m3 4.7 1.3.4" vector-effect="non-scaling-stroke"/></g><clipPath id="b"><path d="M1 1h40v49H1z"/></clipPath><path id="c" fill="#000" fill-opacity=".5" d="M21.4 3.9q-4.1 2.3-8.5-.4l-.7-.4Q7.7 4.7 2.8 4.8 3 8.3 6.3 9.4q1.1.4 1.8 1.3l-.5.8Q2.5 11.3.2 6.1q-6.4 2.1-12.4-.9l.3.3q-.2 1.2-1.7 1.3-.9.1-1.7-.5l-.5-.5.4-.5 2.8-.3-3.2-2.1q-1-8.4 7.2-7.8Q2.9-4.3 13.8 0q1.7 3.9 6.8 3.4h.8zm-9-2.4-1-.5-.3.6zM2.3 11.4v.3l-.1.2-.2.1-3.1.3-.4-.2v-.2l-.1-.3v-.3l.1-.2.5-.2q1.8-.3 3.2.3z" transform="translate(15.9 5)"/><use xlink:href="#a" id="d" width="24.1" height="17.9"/></defs><g clip-path="url(#b)"><g transform="translate(16.9 37.05)"><use xlink:href="#c" width="37.3" height="17.4" transform="translate(-15.9 -5)"/><use xlink:href="#d" width="24.1" height="17.9" transform="translate(-13.2 -4.05)scale(.2897)"/><use xlink:href="#e" width="35.1" height="45.1" transform="translate(-11.25 -36.05)"/><use xlink:href="#d" width="24.1" height="17.9" transform="matrix(.2897 0 0 .1513 -8.3 3)"/><use xlink:href="#d" width="24.1" height="17.9" transform="translate(-15.2 4.3)scale(.1026)"/><use xlink:href="#d" width="24.1" height="17.9" transform="translate(-1.35 9.05)scale(.1436)"/></g></g></svg>