<svg xmlns="http://www.w3.org/2000/svg" xmlns:xlink="http://www.w3.org/1999/xlink" width="57" height="52" viewBox="0 0 57 52"><defs><g id="c"><path fill="#663" d="m23.7 7.5-1.2.3L12.7.2l.8-.2zm-3.5.9L8.7 11.2 0 3.3 10.4.8zm1 1.8 1.1-.3q1.2 1.7.3 4.2L8.7 17.5 0 9.8l2.6-.6v.3l-.1.8L9 15.9l12.5-2.8.2-1.1-.2-1z"/><path fill="#38381d" d="m22.5 7.8 1.1-.3q2.3 3.7 0 8.3l-.4.1-.9-.5-1.4 1.1-12.2 2.9v-2l13.8-3.3q.9-2.5-.2-4.2l-1.2.3-11.5 2.7-.9.2v-2l11.4-2.7 1.8.4z"/><path fill="#77773c" d="m12.7.2 9.8 7.6-.6 1-10-8z"/><path fill="#55552b" d="m21.9 8.8-1.8-.4L10.3.8H12z"/><path fill="#494825" d="M8.7 11.2V13L2.1 6.7 0 4.7V3.3zm0 6.3v1.9L0 11.6V9.8z"/><path fill="#c4bfa2" d="m8.7 13 .9-.1q.3.5.3 1l-.2 1.2-.2.3-.4.5-6.6-5.6v-.8l.1-.2q0-1.3-.5-2.6zM2.6 9.5l6.9 5.9z"/><path fill="#7b745c" d="m9.6 12.9 11.5-2.7.5.9L10 14q0-.6-.3-1.1m.3 1 11.7-2.8.2.9-.2 1L9 16l.4-.5.2-.3L21.8 12 9.7 15z"/><path fill="none" stroke="#38381d" stroke-linecap="round" stroke-linejoin="round" stroke-opacity=".5" stroke-width="__RESOLUTION__" d="M23.7 7.5 13.5 0l-.8.2-.7.6h-1.7L0 3.3m8.7 16.1 12.2-2.9 1.4-1.1 1 .5.3-.1q2.3-4.6 0-8.3M12 .8l9.9 8m-19.3.4L0 9.9v1.8l8.7 7.8" vector-effect="non-scaling-stroke"/><path fill="none" stroke="#394730" stroke-linecap="round" stroke-linejoin="round" stroke-opacity=".3" stroke-width="__RESOLUTION__" d="m9.9 14 11.7-3m.2 1L9.7 15m-.2.4-7-5.9" vector-effect="non-scaling-stroke"/></g><g id="j"><path fill="#a79d7a" d="m21.2 2.5 5-2.4h1.9l25 12.4.4.7-4.1 2zM1.7 12l2.2-1 27.6 13-2 1h-4.2zm9.6-4.7 7.5-3.7 23 15.2-3.9 1.9z"/><path fill="#b5ac8e" d="m21.2 2.5 28.2 12.7-7.6 3.8-23-15.2z"/><path fill="#75694f" d="m49.4 15.2 4-2 .6 1.5v3l-1.4 1.9-3 1.4-7.8 3.9-3.7 1.8-6.7 3.3-4.3 2v-4.2l2.4-2.9 2-.9 6.4-3.1 3.9-2v6-6zl.2 5.9zM38 26.7l-.1-5.8zM31.4 30l.1-6z"/><path fill="#a49575" d="M27.1 32 1.3 19.4 0 17.8v-3.1l1.6-2.6L25.3 25l1.8 2.8z"/><path fill="#aaa280" d="m3.9 11.1 7.4-3.6 26.6 13.4-6.4 3.1z"/><path fill="#b8b094" d="M29.6 25 27 27.8l-1.9-2.9z"/><path fill="none" stroke="#1f2109" stroke-linecap="round" stroke-linejoin="round" stroke-opacity=".6" stroke-width="__RESOLUTION__" d="m53.5 13.2-.4-.7L28.1 0h-1.9l-5 2.4-2.4 1.3-7.5 3.6L3.9 11l-2.2 1-1.6 2.6v3l1.2 1.7L27 32l4.3-2 6.6-3.3 3.8-1.8 7.8-3.8 3-1.6 1.4-1.8v-3z" vector-effect="non-scaling-stroke"/><path fill="none" stroke="#75694f" stroke-linecap="round" stroke-linejoin="round" stroke-width="__RESOLUTION__" d="m21.2 2.5 28.2 12.7M41.8 19l-23-15.2M31.5 24 3.9 11.1m7.4-3.6 26.6 13.4" vector-effect="non-scaling-stroke"/><path fill="none" stroke="#5a523f" stroke-linecap="round" stroke-linejoin="round" stroke-width="__RESOLUTION__" d="m37.9 20.9.1 5.8m3.8-1.8v-6M31.5 24l-.1 6m18-14.8.2 5.9" vector-effect="non-scaling-stroke"/><path fill="#c23430" d="m4.6 14.7 27-13.2 16.4 8L21.5 23z"/><path fill="#9c2727" d="M21.5 23v11.8h-2L4.7 26.7v-12z"/><path fill="none" stroke="#9c2727" stroke-linecap="round" stroke-linejoin="round" stroke-width="__RESOLUTION__" d="m4.6 14.7 27-13.2 16.4 8L21.5 23v11.6h-2l-14.9-8zL21.5 23" vector-effect="non-scaling-stroke"/><path fill="none" stroke="#ecb5b5" stroke-linecap="round" stroke-linejoin="round" stroke-width="__RESOLUTION__" d="m9.2 15.4-.8.4m4.4-2.1-1.9.9m5.5-2.6-1.8.9m5.4-2.7-1.9 1m5.4-2.7-1.7.8M34 13.9l-1.9 1m5.4-2.7-1.7.8m5.4-2.7-1.9 1m5.5-2.7-1.8.8M30.8 4.9l-1.9 1M34.5 3l-1.9 1m-5.3 2.7-1.8.8m-5.8 13.3-.9.4m4.5-2.1-1.8.9m5.4-2.6-1.9.9m5.5-2.7-1.8 1" vector-effect="non-scaling-stroke"/><path fill="none" stroke="#cf4141" stroke-linecap="round" stroke-linejoin="round" stroke-width="__RESOLUTION__" d="M18.2 22.3V22m0 4.3v-2m-9.8-7.9v-.3m0 4.3v-2m0 6v-2m9.7 7.9v-2m0 6v-2m-9.7-3.9v-2" vector-effect="non-scaling-stroke"/></g><g id="i"><path fill="#605642" d="M.1 10.8V2l4 2 4-2v16.7l-4 1.9v-5z"/><path fill="#8a775b" d="m.1 10.8 4 5v4.9l-4-2z"/><path fill="none" stroke="#605642" stroke-linecap="round" stroke-linejoin="round" stroke-width="__RESOLUTION__" d="m4.2 20.7 4-2V2.1l-4 2-4.1-2v16.7zv-5M.2 2.2l4-2 4 2" vector-effect="non-scaling-stroke"/></g><g id="o" transform="translate(10.15 8.05)"><use xlink:href="#a" width="32" height="10.5" filter="url(#b)" transform="matrix(.85 0 0 1 -9.85 2.5)"/><use xlink:href="#c" width="24.8" height="19.4" transform="translate(-10.15 -8.05)"/></g><g id="n" transform="translate(27.55 15.85)"><use xlink:href="#d" width="54" height="26.5" filter="url(#g)" transform="translate(-27.55 6.9)"/><use xlink:href="#i" width="8.3" height="20.8" transform="translate(-4.45 6.45)"/><use xlink:href="#i" width="8.3" height="20.8" transform="translate(-19.25 -.15)"/><use xlink:href="#i" width="8.3" height="20.8" transform="translate(11.65 -1.05)"/><use xlink:href="#j" width="54.1" height="34.9" transform="translate(-27.05 -15.85)"/></g><filter id="b" filterUnits="userSpaceOnUse"><feConvolveMatrix divisor="121" in="SourceGraphic" kernelMatrix="1 1 1 1 1 1 1 1 1 1 1 1 1 1 1 1 1 1 1 1 1 1 1 1 1 1 1 1 1 1 1 1 1 1 1 1 1 1 1 1 1 1 1 1 1 1 1 1 1 1 1 1 1 1 1 1 1 1 1 1 1 1 1 1 1 1 1 1 1 1 1 1 1 1 1 1 1 1 1 1 1 1 1 1 1 1 1 1 1 1 1 1 1 1 1 1 1 1 1 1 1 1 1 1 1 1 1 1 1 1 1 1 1 1 1 1 1 1 1 1 1" order="11 11" result="filter1"/></filter><filter id="g" width="88.6" height="61.1" x="-17.3" y="-17.3" filterUnits="userSpaceOnUse"><feGaussianBlur in="SourceGraphic" result="filter1" stdDeviation="5.77 5.77"/></filter><path id="k" fill="#000" fill-opacity=".4" d="M11.3-3.7Q16-2.1 16 0q0 2.2-4.7 3.7Q6.7 5.2 0 5.2q-6.6 0-11.3-1.5Q-16 2.1-16 0t4.7-3.7Q-6.6-5.2 0-5.2t11.3 1.5" transform="translate(16 5.25)"/><path id="l" fill="#1e1a14" fill-opacity=".7" d="M0 13.3-27 0 0-13.2 27 0z" transform="translate(27 13.25)"/><use xlink:href="#k" id="a" width="32" height="10.5"/><use xlink:href="#l" id="d" width="54" height="26.5"/><clipPath id="m"><path d="M1 1h55v50H1z"/></clipPath></defs><g clip-path="url(#m)"><g transform="translate(28.6 34.9)"><use xlink:href="#n" width="54.6" height="49.3" transform="translate(-27.6 -33.9)"/><use xlink:href="#o" width="27.3" height="21.1" transform="translate(-11.7 -32.6)"/></g></g></svg>