<svg xmlns="http://www.w3.org/2000/svg" xmlns:xlink="http://www.w3.org/1999/xlink" width="113" height="152" viewBox="0 0 113 152"><defs><g id="j"><path fill="#8c7a46" d="m3.6 1.4.3-.1Q5 1.5 5 3l-.4.2-1.3.3 1.7.3-.1.7Q4.8 5.9 3.2 6q-1-.6-1.1-1.5v-.3Q2.2 2 3.6 1.4"/><path fill="#6b5b38" d="M3.6 1.4Q2.3 2 2 4.2.8 4.1.1 2.9v-.3l.8-.2zM5 3.8l-1.6-.2 1.3-.4z"/><path fill="#4e432a" d="M2.1 4.2v.3q0 .9 1.1 1.5Q1.6 5.8.5 4.9q-.4.1-.4-2 .7 1.2 2 1.3"/><path fill="#4a421e" d="m.9 2.4-.8.2L0 0z"/><path fill="none" stroke="#000" stroke-linecap="round" stroke-linejoin="round" stroke-opacity=".3" stroke-width="__RESOLUTION__" d="M4.7 3.2 5 3q0-1.5-1.2-1.7l-.3.1-2.7 1M3.2 6Q4.7 5.9 5 4.4v-.7l-.3-.6M0 2.6v.3Q0 5 .4 4.8q1.1.9 2.7 1.3" vector-effect="non-scaling-stroke"/></g><g id="i"><path fill="#1f1b14" d="M14.2 5.2Q1.7 6.8 0 3.2 0 1.7 1.5.9q2 4 12.7 4.4"/><path fill="#474321" d="M1.5.8q3-1.8 13 .6 5.4 2.9.3 3.7l-.6.1Q3.5 4.7 1.5.8"/><path fill="none" stroke="#000" stroke-linecap="round" stroke-linejoin="round" stroke-opacity=".4" stroke-width="__RESOLUTION__" d="M14.2 5.2Q1.7 6.8 0 3.2 0 1.7 1.5.9q3-1.8 13 .6 5.4 2.9.3 3.7z" vector-effect="non-scaling-stroke"/></g><g id="h"><path fill="#70491e" d="M11.6 1.4q.3-2.2 2.7-1l-1.2 1-.1 1.8q-.9 0-1.4-1.8m.4 10.9-.1.3-1.2 4.2-1-.7q.9-2.5 1.4-5.5-.3 1.8.9 1.7m-2 6.3-.8 1.6-.9-.8.8-1.4zm-1.9 3.2-1.3 1.6-.5-1.2 1.2-1.6zm-2.6 2.8-2.6 1.6q-1.7.5-1.7 2.8-.5-.5-1.1-2 .2-1.2 1.7-1.8H2l3-1.9zM1.9 36.1v16.4q-1.5.8-1.8-.2.5-8.2.6-14 .6-.2 1.2-2.2m13-27.5q.8.2 1.4-1-.9 13.2.4 23.6H15q-.8-10.6 0-22.6"/><path fill="#501a00" d="M11.6 1.4Q12 3.2 13 3.2q-.2 5-1 9.1-1.2.1-1-1.7v-.1l.1-.2q.5-3.7.3-8.3zM1.2 29q.9 1 2.2 1.1-1.1 1-1.8.8l.3 5.2q-.6 2-1.2 2.1 0-5.5-.4-9-.4-1.2-.2-2 .6 1.3 1.1 1.8M15 8.6q.1-1.9-.1-3.8h1.2q.3 1.1.2 2.8-.7 1.2-1.4 1M1.6 30.9q-.8-.3-1.3-1.6.5 1.3 1.3 1.6"/><path fill="#be9b74" d="m10.7 16.8-.7 1.8-1-.7.8-1.7zm-1.5 3.4L8 21.9l-.6-1.2.8-1.2zm-2.3 3.1-1.3 1.2-.5-1.2 1.3-1.2z"/><path fill="none" stroke="#000" stroke-linecap="round" stroke-linejoin="round" stroke-opacity=".3" stroke-width="__RESOLUTION__" d="M13 3.2V1.3l1.3-1q-2.4-1-2.7 1.1.5 1.8 1.4 1.8-.2 5-1 9.1l-.1.3-1.2 4.2-.7 1.8-.8 1.6L8 21.9l-1.3 1.6-1.3 1.2-2.6 1.6q-1.7.5-1.7 2.8.9 1 2.2 1.1-1.1 1-1.8.8l.3 5.2v16.4q-1.5.8-1.8-.2.5-8.2.6-14 0-5.5-.4-9v-.1q-.4-1.2-.2-2 .2-1.2 1.7-1.9H2l3-1.9 1.3-1.2 1.2-1.6.8-1.2.8-1.4.7-1.9q.8-2.5 1.3-5.5v-.3q.5-3.7.3-8.3l.2-.6m4.7 6.1q.1-1.6-.2-2.7h-1.2q.2 1.9 0 3.8.8.2 1.4-1-.9 13.2.4 23.6H15q-.8-10.6 0-22.6m-7.5 12 .6 1.2m1-1.6-.8-.8m.8-1.4.9.6m.7-1.8-1-.7m1.4-5.5q-.3 1.8.9 1.7M.1 27.1q.6 1.4 1.1 1.8m-.9.4q.5 1.3 1.3 1.6M5 23.4l.5 1.2M.7 38.3q.6-.2 1.2-2.2m4.4-13.9.5 1.2" vector-effect="non-scaling-stroke"/></g><g id="f"><path fill="#4a421e" d="M19.4 7.9 23 0v8.8z"/><path fill="#6b5b38" d="m19.4 7.9 3.6.8.1 1q-2.9 4.1-8.8 4.6-1.1-7.4-7.2-9.1zM.8 13.2l1.8-1.8 6 1z"/><path fill="#4e432a" d="M23.2 9.7q.3 7-1.4 6.3-4.9 3.4-12.1 4.6 4.5-2.2 4.7-5.3l-.1-1q5.9-.5 8.8-4.6"/><path fill="#8c7a46" d="M9.7 20.7q-7.1-.3-8.2-5.1l-.7-2.4 7.8-.8-6-1L.5 11Q.3 5.8 5.8 4.9l1.3.3q6.1 1.7 7.2 9.1l.1 1q-.2 3.1-4.7 5.3"/><path fill="none" stroke="#000" stroke-linecap="round" stroke-linejoin="round" stroke-opacity=".3" stroke-width="1" d="m23 8.8.1.8q.3 7.2-1.4 6.4-4.7 3.4-12 4.6-7.1-.2-8.2-5l-.7-2.4 1.8-1.8L.5 11Q.3 5.8 5.8 4.9l1.3.3 12.3 2.7"/><path fill="#6b5b38" d="m46.6 23.2 2.9-1 .4.6q-.2 4-4 7-3.9-4.7-8.8-3.2zM36.2 34.8l.5-2 4.5-1.9z"/><path fill="#4a421e" d="m49.5 22.3-2.9.9-1-7z"/><path fill="#8c7a46" d="M37.1 26.7q4.9-1.6 8.9 3l.4.7q1.3 2.2-.9 5.7-5 2.8-7.8 0l-1.5-1.4 5-3.8-4.5 1.9-1.6.7q-2.4-3.5 1-6.4z"/><path fill="#4e432a" d="M46 29.8q3.7-3 3.9-7 3.4 4.6 1.8 4.8-1.8 4.4-6.2 8.5 2.1-3.5.9-5.7z"/><path fill="none" stroke="#000" stroke-linecap="round" stroke-linejoin="round" stroke-opacity=".3" stroke-width="1" d="m46.6 23.2-9.5 3.4-1 .4q-3.4 3-1 6.5l1.6-.7-.5 2 1.5 1.4q2.8 2.7 7.8-.1 4.4-4 6.2-8.5 1.5-.2-1.8-4.9l-.4-.4"/><path fill="#501a00" d="M46.8 43.9q.6-5.2 1.5-10.4 1.9-2.5-1.2-6.2 3.5 3 4.5 1.3.4 1.8 0 3.7-1.7 13.9-2.5 27.5.1-10-2.4-15.9M42 24.7 39.2 26v-2zm-10-3q-4.8-2.1-8.2-5-1.9 5.3-6.5 3.9L19.1 36q-1-7.4-3.7-10.1l-.6-6.5 2.8-1.3q3-.9 3-4.8-2.2-2.7-3.6-5.9l3.2-.7q2.5 4.9 7.7 8.2-1.4 1.3 4.2 6.8m-14.7-1.1q-1.2-.4-2.5-1.2 1.2.8 2.5 1.2m6.5-3.9q-1.9-1.5-3.3-3.4 1.4 1.8 3.3 3.4"/><path fill="#70491e" d="M46.8 43.9q2.5 5.9 2.3 15.9-1.6 27.4.7 54.1-1.9 2.1-3.7-1.1-3.4-34.6.6-68.9m4.9-15.2q-1 1.7-4.5-1.4l-2-2.1-3-.5-3-.7q-3.7-1-7-2.3-5.7-5.5-4.2-6.8 4.3 2.8 10.5 4.5 11.6 3 13.2 9.3M19.1 36l.8 16.2q-1.7 1.1-3.4-1.6-.2-12-1.1-24.7 2.7 2.7 3.7 10.1m.9 22-.1 6q-1.6.6-3.4-2.6v-6.2q1.8 2.7 3.5 2.8m-.1 10.8-.6 8.9q-1.6.8-3.2-2.7l.3-9.2q1.7 3.8 3.5 3M17 7.4l-5.3-1.2q3.5-5.6 7.4-1.7l1 2.2z"/><path fill="#be9b74" d="M19.9 52.2 20 58q-1.7-.1-3.5-2.9v-4.5q1.6 2.8 3.4 1.5m0 11.9v4.8q-1.8.8-3.4-3v-4.4q1.8 3.2 3.4 2.6"/><path fill="none" stroke="#000" stroke-linecap="round" stroke-linejoin="round" stroke-opacity=".3" stroke-width="1" d="M47.1 27.3q3 3.7 1.1 6.2-.9 5.1-1.5 10.4-4 34.3-.7 68.9 1.9 3.3 3.8 1.1l.1 1.5m-.8-55.6q.8-13.6 2.5-27.5.4-1.9 0-3.6-1.6-6.2-13.2-9.3-6.2-1.7-10.5-4.5-5.2-3.3-7.7-8.2l-1-2.2q-3.9-4-7.4 1.8l5.3 1.1q1.3 3.3 3.5 5.9 0 4-3 4.8l-2.8 1.3.6 6.5q.8 12.7 1.1 24.7v15.2l-.4 9.3q1.6 3.4 3.2 2.6l.6-8.9V64l.1-6-.1-5.9-.8-16.1-1.7-15.4q4.6 1.3 6.5-3.9 3.4 2.9 8.2 5 3.3 1.3 7 2.3v2l3-1.3 3 .5 2 2.1m-32.2-7.9q1.2.8 2.5 1.2m3.2-7.3q1.4 1.8 3.3 3.4M39.2 24l2.8.7m4 88.1.1 1.2m3-54.2q-1.6 27.4.7 54.1"/></g><g id="e"><path fill="url(#a)" d="m38.4 98.2 8.8-3 4.2 9.5 1.6 13.5q2 7 5.9 13.6l-11-3.2-4.8-10.5q-.9-9.1-4.7-20" transform="translate(-20.4 -14.1)"/><path fill="#000" d="M27.6 114.5q-10.5-2.6-19.1 7.3.5-5.6 2.4-11.4l2.3-10.6 1.7-14.9 3-.8q3.9 10.8 4.8 19.9z"/><path fill="none" stroke="#000" stroke-linecap="round" stroke-linejoin="round" stroke-opacity=".3" stroke-width="__RESOLUTION__" d="m18 84 8.8-3 4.2 9.6 1.6 13.5q2 7 5.9 13.6m-30 4.1q-.6 5.8.5 11.7m9-49.4-3.1.8-1.7 14.9-2.3 10.6q-2 5.8-2.4 11.4" vector-effect="non-scaling-stroke"/><path fill="#807137" d="M75.8 23.8q.3 8-.1 8.5-11.1 9.1-25 13.3Q34 50.4 21.3 60.2q.4-4.4.4-9.1 13-9 26.1-11.9 14.4-4 27.9-15.4"/><path fill="#594f26" d="M75.8 23.8Q62.3 35.1 47.9 39.2q-13 2.8-26.1 11.9 0-7-.7-15l8.5-5.9 3.1-2.3q5.5 2.9 8.6 7.3-1.6-5-6.3-8.5L47.3 22l7.4-2.9q15.4-7.1 19.6-10 1.3 9.9 1.5 14.8M21.4 60.2Q34 50.4 50.7 45.6q13.9-4.2 25-13.3 0 18.2-3.8 24.8-9.9 6.8-20 12.3 2.8-8.8-2.3-20.6 3.3 14.4.2 21.8-18.3 9.6-36.9 14.8 6.9-9.3 8.5-25.2"/><path fill="#363018" d="M21.8 51.1q0 4.8-.4 9.1-1.6 15.9-8.5 25.2-8.7 2.5-12.7.7Q-.9 51.7 4 26.5l17 9.6q.8 8 .7 15"/><path fill="#000" d="m52 69.4-2.2 1.2q3.1-7.4-.2-21.8 5 11.8 2.3 20.6M35 26.7q4.7 3.5 6.4 8.5-3.1-4.4-8.6-7.3z"/><path fill="#231f10" d="M4 26.5 58.2 0l16.1 9q-4.2 2.8-19.6 10l-7.4 2.9q-5.4 2-12.3 4.9l-2.2 1.1-3.1 2.4L21 36z"/><path fill="none" stroke="#000" stroke-linecap="round" stroke-linejoin="round" stroke-opacity=".4" stroke-width="__RESOLUTION__" d="M12.9 85.4q-8.7 2.5-12.7.7" vector-effect="non-scaling-stroke"/></g><g id="d"><path fill="#241f11" d="M88.3 31.4q-12-2.4-17.7 0 1.1-4-20.1 3.6l-10.2 6.8q10.6-8.6 7.8-8.4l18.5-4.2 5.8.1 16.7.5zM22.5 42.7q5 3.9 18.5 3.1-12.8 2.2-12.9 1v-.1l.6-.2q-.5-.4-.6.2-.6.2-5.6-4"/><path fill="none" stroke="#271e17" stroke-linecap="round" stroke-linejoin="round" stroke-opacity=".2" stroke-width="1" d="m89 29.8-16.6-.5-5.8-.1-18.5 4.2q2.8-.2-7.9 8.4L50.6 35q21.2-7.7 20-3.8 5.8-2.3 17.8 0M52 52l6.8 15.6M18.4 8.8l10.1 22.7L52 52m-24-5.4.6-.2q-.5-.4-.6.2"/><path fill="none" stroke="#1c130e" stroke-linecap="round" stroke-linejoin="round" stroke-opacity=".2" stroke-width="1" d="m88.3 31.4.8-1.6m-16.7-.5 12.3-10.2 5.2-1.8V7L99.3.5m-4.2 15.1-5.2 1.7M51.9 52l22.8-11 6.3 2.4m-63-3.6 2.8 1.7 1 .6.7.5q5 3.9 18.5 3.1-12.8 2.2-12.9 1v5.6l9.5 5 4 7.5M28.2 52.3v5.8l-4.6 5.8m4.6-17.3q-.6.2-5.6-4m-18 13 1.6-10.2-5.6-3m5.6 3 14.7-3.9"/></g><g id="b"><path fill="#231f10" d="M0 27.1 53.4 0l25.8 13.9-53.4 27.3z"/><path fill="#363018" d="m0 27.1 25.8 14.1 53.4-27.3q-6.4 36.9-3.7 75.4L42.4 105l-19.8 12.7q-.4 2.8.3 10-9.2 1.3-19.1 0 9.9 2.4 19.3 1.6l1.1 8.9 1.5 10 .1.8L0 135.8z"/><path fill="#473f1f" d="M75.5 89.3q.7 10.9 2.2 22-4.3 9.5-13.2 9.3l-4.5.2q-1.9-8.2-1.1-12-1.4 5 0 12.1l-.5.1-4.3.8q-5.4 1.1-11.9 3.4l-3.7 1.5q-2.5 1-4.5 2.3l-3.4 2.2q-4.2 3.2-6.4 7.1l-1-8.9-.2-1.7q-.7-7.2-.4-10l19.8-12.6z"/><path fill="#4e4432" d="m77.7 111.3 1.5 10.5q-5.2 3.5-11.5 6.3l-4.7 2.6-3-9.9 4.5-.2q8.9.2 13.2-9.3m-18.8 20.5q-4.4-5-4.8-10l4.3-.8.5-.1zm-25-2.8-5.1 7.5v11.6l-.9.3-2.1.7-.1-.7-1.4-10.1q2.1-4 6.3-7.1zm-5.2 6.4v1.1l-.3.4.3-.4z"/><path fill="#000" d="m63 130.7-4.1 1.1v-10.9q-1.4-7.1 0-12-.7 3.6 1.1 11.9zm-40-3 .1 1.7q-9.5.8-19.3-1.7 9.9 1.4 19.2 0"/><path fill="none" stroke="#000" stroke-linecap="round" stroke-linejoin="round" stroke-opacity=".4" stroke-width="__RESOLUTION__" d="M58.9 131.8q-4.4-5-4.8-10M34 129l-5.2 7.5v11.6m-.3-11.2.3-.4v-1.1" vector-effect="non-scaling-stroke"/></g><g id="l"><use xlink:href="#b" width="79.2" height="149.1"/><use xlink:href="#d" width="99.8" height="68.1" transform="rotate(85.8 1.167 71.063)scale(.54)"/><use xlink:href="#d" width="99.8" height="68.1" transform="matrix(-.34 .89 -.31 -.36 62.65 59.3)"/><use xlink:href="#e" width="75.9" height="133.5" transform="translate(20.4 14.1)"/><use xlink:href="#d" width="99.8" height="68.1" transform="matrix(.14 .43 -.5 .1 74.9 30.7)"/><use xlink:href="#d" width="99.8" height="68.1" transform="matrix(.38 .24 .3 -.36 52.8 47.5)"/><use xlink:href="#f" width="52.7" height="115.9" transform="matrix(-.47 -.37 0 .52 69.55 63.7)"/><use xlink:href="#g" width="5.2" height="6.2" transform="matrix(1 1.21 0 1 71.85 62)"/><use xlink:href="#g" width="5.2" height="6.2" transform="matrix(.97 .91 .26 1.28 82.4 50.4)"/><use xlink:href="#h" width="16.7" height="52.8" transform="matrix(1 1.21 0 1 70.9 36.65)"/><use xlink:href="#i" width="17.3" height="5.7" transform="matrix(.39 .23 -.4 .7 70.7 119)"/><use xlink:href="#i" width="17.3" height="5.7" transform="translate(66.65 122.75)"/><use xlink:href="#i" width="17.3" height="5.7" transform="matrix(.45 0 0 .81 65.15 127.6)"/><use xlink:href="#i" width="17.3" height="5.7" transform="matrix(.36 0 0 .65 56.15 122.75)"/><use xlink:href="#i" width="17.3" height="5.7" transform="matrix(.25 0 0 .65 60.85 123.9)"/><use xlink:href="#i" width="17.3" height="5.7" transform="matrix(.36 0 0 .65 29.25 143.3)"/><use xlink:href="#i" width="17.3" height="5.7" transform="matrix(.25 0 0 .65 36.1 142.05)"/><use xlink:href="#i" width="17.3" height="5.7" transform="matrix(.25 0 0 .65 33.95 144.45)"/><use xlink:href="#i" width="17.3" height="5.7" transform="matrix(.45 0 0 .81 25.35 144.7)"/></g><linearGradient id="a" x1="-819.2" x2="819.2" gradientTransform="matrix(0 0 -.01 -.02 47.15 115.05)" gradientUnits="userSpaceOnUse" spreadMethod="pad"><stop offset="0" stop-color="#231f10" stop-opacity="1"/><stop offset="1" stop-color="#000" stop-opacity="1"/></linearGradient><clipPath id="k"><path d="M1 1h111v150H1z"/></clipPath><use xlink:href="#j" id="g" width="5.2" height="6.2"/></defs><g clip-path="url(#k)"><use xlink:href="#l" width="111" height="149.3" transform="translate(1 1)"/></g></svg>