<svg xmlns="http://www.w3.org/2000/svg" xmlns:xlink="http://www.w3.org/1999/xlink" width="56" height="65" viewBox="0 0 56 65"><defs><clipPath id="a"><path d="M1 1h54v63H1z"/></clipPath><g id="b"><path fill="#705b38" d="M53 14.5v34.2L50.7 50 27.5 62V27.7l2.8-1.4v30.5l-2.8 1.4 2.8-1.4L50.5 46h.1V19.5l2.4-1.2-2.4 1.1-8.7 4.7-1.1.5h-.2l-.3-3.7 1.1-.6 2.6-1.4 3.2-1.6 5.5-3zM50.7 50v-4zM30.3 30.2v-4l1.5-.8 2.5-1.3 1.8-1 .7 3.6-2.2 1.2z"/><path fill="#826a42" d="M27.5 62.2.3 48v-4L3 45.4l2.1 1.1 3.4 1.8 4.7 2.4 3.1 1.6 5 2.7 6.2 3.1zm-25-14.6-.8-1zm23.8 12-2.1-.9z"/><path fill="#9a7d4e" d="M3 45.4.3 40.8v-9q8.2 2.7 8.3-14l2.6 1.4q-.8 1.8-1.9 14.7-1 11-4.2 12.6zM.2 21.9v-8.4l.2.1L6 16.5Q1.6 25 .3 21.9m27.2 5.8v17.5q-4.3-13.5-3.9-19.3l.1-.2h.2zm-11.2-5.9 3 1.6q-3.2 3.9 2 31.6l-5-2.6q1.3-3 .8-5.5-.5-2.1-1.8-2.8t-2 .9q-.9 1.8-.1 5.7l-4.7-2.4q4.2-4.3 4.1-16V32q-1.3-7.3 3.7-10.2M16 33.4l-.6-5q-.3-3.2-.5 1.9l-.5 7.1q-.3 2 0 3.2.2 1.1.5 1.4.2.4 1.1-.2t.6-3.5z"/><path fill="#8c7246" d="M.3 31.8v-10q1.3 3.2 5.8-5.3l2.2 1.1.3.2q0 16.7-8.3 14m27.2 13.3v13L21.3 55q-5.2-27.7-2-31.6l4.4 2.3v.2q-.5 5.9 3.8 19.3m-16.2-26 1.2.7 3.8 1.9q-5 2.9-3.7 10.1v.5q.1 11.6-4 15.9L5 46.5q3.2-1.6 4.2-12.6 1.1-13 2-14.7M16 33.4l.6 4.9q.3 2.9-.6 3.5t-1.1.3-.5-1.5 0-3.2l.5-7.1q.2-5.1.5-2zm-2.8 17.3q-.7-3.9 0-5.7.8-1.5 2.1-.9t1.8 2.8q.5 2.6-.8 5.5z"/><path fill="#d1b67c" d="m.5 13.6 2.8-1.5 5.1 2.6-2.3 1.8zm29.8 12.6-2.8 1.4-3.6-1.9 2.8-1.4zm-2.8-.1-1-.1zm-11.2-4.2 3.1-1.3 2.9 1.5-3 1.4zM14 17.7q-2.8 1-2.8 1.5l-2.6-1.4q-.5-1.8 3-1.4zM4.4 14l-1.5-.4z"/><path fill="#d5bb86" d="m3.3 12.1 6.1-3.2Q19 19.5 31.9 25.4l-1.5.8-3.6-1.9-4.4-2.3-2.9-1.5-5.3-2.8-2.5-1.2-3.2-1.8zm9.3-5 3-1.5q2.7 2.9 13.2 1.3 9.8-.1 18.3 10.4L44 18.9q-4.8-8.7-11.3-7.1-4.6.2 1.1 4.2l7.6 4.3-1 .6h-.1l-.6-.7h-.1l-2 1-2.8-.1 1.3 1.7H36l.1.3-1.8 1q-4.4-10-12-10.6-7.1.1-9.6-6.4m8-4.1L25.9.3l6 3.1z"/><path fill="#ceb173" d="m9.5 8.9 3.2-1.8q2.5 6.5 9.6 6.4 7.5.6 12 10.6l-2.5 1.3Q18.9 19.5 9.5 8.9m6.2-3.3 5-2.6 11.1.4 21 10.9-5.6 3Q38.7 6.8 28.8 6.9 18.4 8.5 15.7 5.6m28.4 13.3-2.7 1.4-7.6-4.3q-5.7-4-1.1-4.2Q39.2 10 44 18.9"/><path fill="#695534" d="m40.3 20.9.3 3.7-4.5-1.8-1.3-1.7 2.8.1 2-1h.1z"/><path fill="#544529" d="M40.6 24.6h.1L42 24l.3 17.7-7.6-4-4.3 1.8v8l11.9-5.8-7.6-4V28l2.2-1.1-.7-3.7-.1-.4.1.1z"/><path fill="#655232" d="m41.9 24 8.7-4.6V46h-.1l-8.3-4.3z"/><path fill="#3e331e" d="M30.3 39.6v-9.4l4.3-2.3v9.9zm0-4.1 4.3 2.3z"/><path fill="#5e4d2f" d="M30.3 56.7v-9.2l11.9-5.8 8.3 4.3z"/><path fill="#c9a865" d="m26.7 24.3-2.8 1.4h-.2l-4.4-2.3 3-1.4zM6.1 16.5l2.3-1.8 3.2 1.8q-3.5-.5-3 1.3l-.3-.2zm10.2 5.3-3.8-2-1.3-.6q0-.4 2.8-1.5l5.4 2.8z"/><path fill="none" stroke="#000" stroke-linecap="round" stroke-linejoin="round" stroke-opacity=".3" stroke-width="__RESOLUTION__" d="m52.8 14.3.3-.2v34.6L50.6 50 27.5 62 .3 48v-4L3 45.4.3 40.8V13.5l.2.1 2.8-1.5 6.1-3.2 3.3-1.8 3-1.5 5-2.6L25.9.3l6 3.1zl.3.2m-2.5 5 2.4-1.2m-12.2 6.3 1.1-.6 8.7-4.6V46h0v4M30.3 39.5V26.2l-2.8 1.4v17.5m0 .5v12.5l2.8-1.4V39.5m4.3-1.7-4.3-2.3m0-5.3 4.3-2.3 2.2-1.1m-6.5-.6-3.6-1.9-4.4-2.3-2.9-1.5-5.3-2.8-2.5-1.2-3.2-1.8-5-2.6m31.2 25.7 7.6 3.9 8.3 4.3h.1m0 0L30.3 56.7m-2.8 1.4v4M3 45.5l2.1 1.1 3.4 1.8 4.7 2.4 3.1 1.6 5 2.7 6.2 3.1" vector-effect="non-scaling-stroke"/><path fill="none" stroke="#ae915e" stroke-linecap="round" stroke-linejoin="round" stroke-width="__RESOLUTION__" d="M41.4 20.3 33.8 16q-5.7-4-1.1-4.2Q39.2 10 44 18.9m3.2-1.6Q38.7 6.8 28.8 6.9 18.4 8.5 15.7 5.6m-3 1.5q2.5 6.5 9.6 6.4 7.5.6 12 10.6M20.8 3l11 .4M9.5 8.9q9.4 10.6 22.3 16.5" vector-effect="non-scaling-stroke"/><path fill="none" stroke="#000" stroke-linecap="round" stroke-linejoin="round" stroke-opacity=".3" stroke-width="__RESOLUTION__" d="m36.1 22.8 4.5 1.8m-3.8 2.1-.7-3.6" vector-effect="non-scaling-stroke"/><path fill="none" stroke="#b48d3f" stroke-linecap="round" stroke-linejoin="round" stroke-width="__RESOLUTION__" d="m26.7 24.3-2.8 1.4M6.1 16.6l2.3-1.8m7.9 7.1 3.1-1.3m-5.3-2.8q-2.9 1-2.9 1.5m-2.6-1.4q-.5-1.8 3-1.4m7.7 7 3-1.4" vector-effect="non-scaling-stroke"/><path fill="none" stroke="#826c41" stroke-linecap="round" stroke-linejoin="round" stroke-width="__RESOLUTION__" d="M26.5 26h1M2.8 13.7l1.5.4" vector-effect="non-scaling-stroke"/><path fill="none" stroke="#7a633d" stroke-linecap="round" stroke-linejoin="round" stroke-width="__RESOLUTION__" d="M6.1 16.5Q1.6 25 .3 21.9m8.3-4.1q0 16.7-8.3 14m4.8 14.7q3.2-1.6 4.2-12.6 1.1-13 2-14.7M16 33.4l.6 4.9q.3 2.9-.6 3.5t-1.1.3-.5-1.5 0-3.2l.5-7.1q.2-5.1.5-2zm7.7-7.7v.2q-.5 5.9 3.8 19.3M16.3 21.8q-5 2.9-3.7 10.1v.5q.1 11.6-4 15.9m4.6 2.4q-.7-3.9 0-5.7.8-1.5 2.1-.9t1.8 2.8q.5 2.6-.8 5.5m5 2.6q-5.2-27.7-2-31.6" vector-effect="non-scaling-stroke"/><path fill="none" stroke="#5e4d2f" stroke-linecap="round" stroke-linejoin="round" stroke-width="__RESOLUTION__" d="m1.7 46.6.7 1m21.7 11 2.1.9" vector-effect="non-scaling-stroke"/><path fill="#77724d" d="m44.1 45.8 2.5-1.3.1 2zm-13.3 6.8 2.6-1.3v2.2zm6.5-3.4 2.5-1.2.2 2z"/><path fill="#817b52" d="m46.7 44.5.3-.3 3.4 1.7-20 10.5v-3.5l.4-.3 2.7.9-.1-2.2 4-2 2.6.8-.2-2.1 4.3-2.2 2.6.7z"/><path fill="none" stroke="#545136" stroke-linecap="round" stroke-linejoin="round" stroke-width="__RESOLUTION__" d="m50.4 45.9-20 10.5" vector-effect="non-scaling-stroke"/><path fill="#676343" d="M33.6 28.7v6.9l-1.3 1.1-.9-.6v-6.4q.4 0 2.1-1"/><path fill="#b0ab84" d="m31.4 36.2.9.5 1.3-1.1v18.1l-1 .3-.9-.2-.2-.1z"/><path fill="none" stroke="#888257" stroke-linecap="round" stroke-linejoin="round" stroke-width="__RESOLUTION__" d="M33.6 35.6v-7m-2.3 1.1.1 6.5m2.2 17.5-1 .3-.9-.2-.2-.1" vector-effect="non-scaling-stroke"/><path fill="none" stroke="#928c5f" stroke-linecap="round" stroke-linejoin="round" stroke-width="__RESOLUTION__" d="M33.6 35.6v18.1" vector-effect="non-scaling-stroke"/><path fill="#b0ab84" d="M38.4 50V38.8h.8l.7 1.2.6.6V50l-1 .3-.9-.2z"/><path fill="none" stroke="#888257" stroke-linecap="round" stroke-linejoin="round" stroke-width="__RESOLUTION__" d="m38.4 50 .3.1.8.1 1-.2" vector-effect="non-scaling-stroke"/><path fill="none" stroke="#928c5f" stroke-linecap="round" stroke-linejoin="round" stroke-width="__RESOLUTION__" d="M40.5 50v-9.4" vector-effect="non-scaling-stroke"/><path fill="#676343" d="M46.5 21.6q.5-.1 2.2-1l1.4 7q-1.1 1.2-2.4.4z"/><path fill="#b0ab84" d="m47.3 46.2-1.1.3-.8-.2-.2-.1 2.4-12.7q.8-1.7 2.1-1.1z"/><path fill="none" stroke="#888257" stroke-linecap="round" stroke-linejoin="round" stroke-width="__RESOLUTION__" d="m46.5 21.6 1.3 6.4m2.4-.4-1.5-7M45.1 46l.3.2.8.2 1-.3" vector-effect="non-scaling-stroke"/><path fill="none" stroke="#928c5f" stroke-linecap="round" stroke-linejoin="round" stroke-width="__RESOLUTION__" d="m47.3 46.2 2.4-13.8" vector-effect="non-scaling-stroke"/></g></defs><g clip-path="url(#a)"><use xlink:href="#b" width="53.4" height="62.5" transform="translate(1 1)"/></g></svg>