<svg xmlns="http://www.w3.org/2000/svg" xmlns:xlink="http://www.w3.org/1999/xlink" width="49" height="203" viewBox="0 0 49 203"><defs><radialGradient id="c" cx="0" cy="0" r="819.2" gradientTransform="matrix(.01 0 0 .02 1.95 -40.5)" gradientUnits="userSpaceOnUse" spreadMethod="pad"><stop offset="0" stop-color="#fff"/><stop offset="1" stop-color="#fff" stop-opacity="0"/></radialGradient><radialGradient id="b" cx="0" cy="0" r="819.2" gradientTransform="matrix(.02 0 0 .02 6.05 -80.9)" gradientUnits="userSpaceOnUse" spreadMethod="pad"><stop offset="0" stop-color="#fff"/><stop offset="1" stop-color="#fff" stop-opacity="0"/></radialGradient><linearGradient id="a" x1="-819.2" x2="819.2" gradientTransform="matrix(0 -.1 .03 0 -.65 -121.3)" gradientUnits="userSpaceOnUse" spreadMethod="pad"><stop offset="0" stop-color="#c0ede8" stop-opacity="1"/><stop offset="1" stop-color="#245857" stop-opacity="1"/></linearGradient><clipPath id="d"><path d="M1 1h47v201H1z"/></clipPath><g id="e"><path fill="#14302d" d="m1 11 7-7.5L20 0l18 2.4.5.6 3 8.2-4.5 10L23 28l-4.1-.4 2.2 11.2L9.4 50l1.6 9.1-4.1-10.4-2.7 1 5.8-23h-.4l-7.9-8.2zm12.9 37.4 7.9-9.2 2.5 6-4.2 5-1.2 8.6-2.3-7.9-1.5 1.9z"/><path fill="url(#a)" d="m-22.8-207 .7 7.4 7.9 8.2h.3l-5.6 23.2 2.6-1 4 10.3-1.5-9.1 11.7-11.3-2.2-11.2 4.1.4 14-6.7 4.5-10-3-8.2 7.8 8.8-1 9.6-4.6 7.2.6 12.8 3.2 3.8-2 7.8-2.1-.2-1 1.1-3 1.4-9.5-.1 9.4 2v.1l.8.9.6 4.6-2.2 6.3 1 .7-.2 6.4h.3l2.7 2.7-1.3 8.4-1.8 2.1-1 9.3 2.9 3.8-.3 6.3-4.3 4 1.4 1.4-1.7 5.1-11 6.5-7-1.4-3 1.5 3.2 2.6-.9 1.8 6.5 1.9L3-87.6l1.8-2 5 5-4 18-2.2 3-.9 6.8H3l3.4 7.1-.7 5.8-3.5 5.6 2.3 6.1-4.1 6.8-3.4-.8-.5-6.8-1-1.4-4.4-4.4-1.4-1.4 1.1-5.2 3.9-9h.3l-.2-4.5-4.4-3.1-1.1-2.8 1.4-2.3 1.2 4.4.5-2.3v-1.5l-.6-6.1-3 1.1-1.2-9.1-1.2 2.1.3 7.3-1.7-4.4-.7-6.6.5-.7 5.6-2.1-1.5-2.9-2.4-2.7-.2-1.2-2.9-5.5 1.4-3.5h-.3l-.4-1.4-2-6.2v-.1l3.1-5.5-.2-12-2.9-8 2.8-4.7-.7 4 3.1 1.6 6.2-5.9.3-3.8.5.7 4-4.8 1.2-4.2-2.8 1.5-2.5-.4-.1-.1-2.8-1-5.3 1.1-2.6 1 .3-8.6-5.1-8.8-1.5-6 2.4-3.3 3.1-11.6-.5-.7-5.1-6.7-.8-1V-206zm28.1 20.3 1.4 9.3 2.4-3.5 6.7 1.2-4.3-4.3 6.9-12.2.2-9-3 8.1-12.3 8.6H-.3zm6.7 19.8 7-5.4-2-2-5.8 4.4-11.6 3.2zm-5.6 14-5 1-.7 10zm.3 28.1 2.9-4 .5-3.8-.3-1.2-.6-6.7.2-10.5-4 14.5-5.6 3L-2-128l-4.1-4.8 1.6 15.2 3.5-8.7 4.4 1.3 1.6 8 .5-3.5.5 1.8.9-3.9zm7.4 12.7q0-1.2-.9-2.3-1-1.3-2.2-1.3-1.7 0-4.2 1.3l-2.3 1q-1.1-.2-2.3-1.3l-.2.3-.7 1.1q-.9.8-1.6.9l-1.1-1v.3q.1 2.5-1.4 3.3l-2.4.5q-1.5.3-1.5 1.3 0 .8 1 1.6 1.2 1 3 1 2.4 0 4.6-1.4 2-1.4 4.2-1.4l2.8.2q1.4 0 3.1-1.1 2-1.4 2-3m-5.3 9.6-2.3-2.2-4.7 3.6h-5.4l1.5 3.2 7.2.6 3.8-2.2zM6-83.4 5.5-86 .8-83.2-5.8-82l5 2 3.2-1.2-1.6 8.8-2.3 1.8-1.9 10.1 3.2-1.1 3.9-5.2 1.8-4.8zM2.6-53 .5-57.5l.1 6-1.6 5.6-1.8-2.2L-3-43l1.4 5.2 1.5-.4 3.7-6.1-.7-7.9zm0 20v-.1L1-36.6H.9l-1.1.4L1-32.6l.1.1-1.9 4h.1l.7.6zm-12.8-136.6 1.3 4.4 1.5-1.9 2.3 7.9 1.2-8.6 4.1-5-2.4-6zm5.4 14.8-2.7-2.1-8.2 6 7.9-1.5 4.7 1.6 6.7-9zm-9.1 26.7.3 11.3 2-5 1.8 8.1-4.5 3.5 3.5 4.1 4.3-4-.8-13.4-2.7-6zm8.4 27.4-3-.6.7 2.7 3.2.9zm3.6 24-2.9 1.1.9 3.6 1.5-.4z" transform="translate(23.8 218)"/><path fill="#28605a" d="m39.4 53.9-3 3.3h-.1l-9.4-2 9.5.1zM8.7 79.3l.8-1.3.3-10 5.3-1.1 2.8 1h.1v.1l2.5.4 2.8-1.6-1.2 4.3-4 4.8-.5-.7-.2 3.8-6.3 5.9-3-1.7z"/><path fill="#b4e2df" d="m37.2 58.2 1.8 1.9.4 6.2-2.8 2.9v.6l-1.1-.7 2.3-6.3zM29 85.4l1-.1.2 2.8-1.4.1.3-2.6zm.3 12.1-.7-3.6.2-3.9 1.5-.2.2 3.4.1 2.2-.8 4zm3 18 .2 3-3.9 2.2-7.1-.6-1.5-3.2h5.4l4.6-3.7zm-2.7 19-.6 12-1.7 4.8-3.9 5.2-3.2 1.1 1.9-10.1 2.3-1.8 1.6-8.8-3.2 1.2-5-2 6.6-1.3 4.7-2.8zm-11.4-17.2.9 3-3.2-.9-.7-2.7zm3.6 24-.4 4.2-1.7.4-.7-3.6z"/><path fill="#84cecb" fill-opacity=".5" d="m37.8 108.9-.2 24-5.6-9.4 2.8-1.5 1-6.8-.9-1-1.4-1.4zm-29.9 7-5.2 7 3.2-13.2z"/><path fill="#2f706f" d="m32 123.5-4 2.1v2.2l.6.6-1.9 2-5.7 1.8-6.5-1.9.9-1.8-3.2-2.6 3-1.5 7 1.3 11-6.4 1.7-5.1 1 1-1.1 6.8zM19.2 63.3l8.3-5-6.7 8.9-4.7-1.6-7.9 1.5 8.2-6zM10 89.9l3.8-1.2v-.1l2.7 6 .8 13.3L13 112l-3.5-4.1 4.5-3.5-1.8-8-2 4.9z"/><path fill="#2f706f" fill-opacity=".5" d="m19.4 183.6-2.8 17.3q-.1-13.8-1.7-21.7z"/><path fill="#4ca9a7" d="m13.1 153.2-2.1 3.3-.4-9.7-.3-7.3 1-2.1 1.3 9.2 3-1.2.7 6v1.5l-.7 2.4-1.1-4.4zm-4.4-18.1 2.2-3-.6-4.7 2.4 2.7 1.5 2.9z"/><path fill="#245857" fill-opacity=".8" d="m6 30-3.7 5L.8 23.3z"/><path fill="#3a8f8e" d="m29.1 31.3-5.7-1.8h3.7l12.4-8.6 2.9-8-.2 8.9L35.3 34l4.3 4.3-6.7-1.2-2.4 3.6zm6.7 19.8-12.4.2L35 48.1l5.8-4.4 2 2zm-5.6 14-5.7 11 .7-10z"/><path fill="#83cfca" d="M29 85.4v.2l-.2 2.6 1.4-.1-.2-2.8zm.4 12.1-.6 3.5-1.6-8-4.4-1.3-3.5 8.6-1.6-15.1 4 4.8 1.9-5.5 5.6-3 4-14.5-.2 10.4.5 6.8.4 1.2-.5 3.8-2.8 4-.2-3.5-1.5.3-.2 3.9z"/><path fill="#dbf5f3" d="m26.4 165 .3.8.7 7.9-3.7 6.1-1.5.4-1.3-5.1.1-5.2 1.8 2.2 1.6-5.6-.1-6zm0 20-2.6 5.2-.7-.6-.1-.2 1.9-3.8-.1-.2-1.2-3.7 1.1-.3 1.7 3.4z"/><path fill="url(#b)" d="M18.7-80.9q0 5.2-3.7 8.9t-9 3.7-8.8-3.7-3.7-8.9 3.7-8.9T6-93.5t8.9 3.7 3.6 8.9" transform="translate(23.8 218)"/><path fill="url(#c)" d="M9.9-52.5q3.3 5 3.3 12t-3.3 12-8 5-7.9-5-3.3-12 3.3-12 8-5 7.9 5" transform="translate(23.8 218)"/><path fill="#eff6f5" d="M37 103.6q.9 1.1.9 2.3 0 1.6-2.1 3-1.7 1.1-3 1.1l-2.9-.2q-2.1 0-4.2 1.4-2.2 1.4-4.6 1.4-1.8 0-3-1-1-.8-1-1.6 0-1 1.4-1.3l2.5-.5q1.5-.8 1.4-3.3v-.3l1 1q.8 0 1.7-.9l.8-1.1.1-.3q1.2 1 2.3 1.4l2.3-1.1q2.4-1.3 4.1-1.3 1.3 0 2.3 1.3"/><path fill="#cee3e0" d="m8.5 117.6 1 .5q1.5.9 2.4 1 5.2.6 5.2 1.1 0 1.3-1.2 2.2-1.2.8-2.5.8-.7 0-1.5-1t-2.2-1q-.8.5-1.7.5-1 0-1-1.2 0-2 1-2.7z"/></g></defs><g clip-path="url(#d)"><use xlink:href="#e" width="46.3" height="200.9" transform="translate(1 1)"/></g></svg>