<svg xmlns="http://www.w3.org/2000/svg" xmlns:xlink="http://www.w3.org/1999/xlink" width="204" height="338" viewBox="0 0 204 338"><defs><g id="s"><path fill="#8d5c2c" d="M119.1 249.4v.6l-2 1h-.3v-.3l-2.5 1.2 2.5-1.9v-6.2h.1l3.8-1.8-3.5 2v6.5zm2.8 1h.6l-.3 2.8zm1.7-2.7v-1l2.5-1.5v-.4l1.2-.3v.5l-.2.4 4.6-2.6v.4l-4.8 2.7zm3-8.8-3.3 1.8 3-2.1.1-2.5.5 2.4h.1zm8.6 2 .9-.5v-2.5l.5 2.3v.2l.4 6.5-.4.6.2.2-1.4.6v-1.1l.3-.1q1.8-3.7.6-6.4l-1.1.6zm-6.1 10.8-2.4 1.2h-.3v-.3l-4 2 4-2.7.4-.2v.7l2.3-1.3z"/><path fill="#56381b" d="M119.1 250v-.6l4.5-2.7v1l-.8.4-.3 2.3h-.6l-.1-1.8zm7.5-11.1.4-.4.3 6-1.2.3zm5 4 3.6-2v.5l-3.5 1.9zm3.8 5.5-4.7 2.4-1.7 1v-.6l6.3-3.9z"/><path fill="#963" d="M127.6 237.4q2.5-2 5.7-3.2l3.4-1.1.4 1q.7 2.5-.6 5v.4q-3.7 3.2-8 3.7h-.2q-1.2-1.4-.8-5.4z"/><path fill="none" stroke="#000" stroke-linecap="round" stroke-linejoin="round" stroke-opacity=".3" stroke-width="__RESOLUTION__" d="m127.6 237.4-.1.3q-.4 4.1.8 5.5h.2q4.3-.5 8-3.7v-.4" vector-effect="non-scaling-stroke"/><path fill="#963" d="M121.4 256.8v.4q-4.5 4-9.7 4.6h-.2q-1.4-1.7-1-6.6l.1-.4q4.6-3.6 11-5.2 1.7 3.5-.2 7.2"/><path fill="none" stroke="#000" stroke-linecap="round" stroke-linejoin="round" stroke-opacity=".3" stroke-width="__RESOLUTION__" d="M110.6 254.8v.4q-.5 4.9.9 6.6h.3q5.1-.6 9.5-4.6v-.4" vector-effect="non-scaling-stroke"/><path fill="#85582c" d="M123 248.2q6.4-5 13-7.1 1 2.6 0 6.4l-1.9 1.4q-7.8 4.3-10.4 4.6h-.3q-.8-1-.3-5.3"/><path fill="none" stroke="#000" stroke-linecap="round" stroke-linejoin="round" stroke-opacity=".3" stroke-width="__RESOLUTION__" d="M123 248.2q-.4 4.3.4 5.3h.3q2.6-.3 10.4-4.6l1.9-1.4" vector-effect="non-scaling-stroke"/><path fill="#85582c" d="M126 245v.4q-3.3 2.8-7.3 3.3l-.3.1q-1.1-1.1-.8-4.6v-.2q3.4-2.6 8.4-4 1.3 2.4 0 5"/><path fill="none" stroke="#000" stroke-linecap="round" stroke-linejoin="round" stroke-opacity=".3" stroke-width="__RESOLUTION__" d="M117.6 244v.3q-.3 3.4.8 4.5h.3q4-.6 7.3-3.4v-.3" vector-effect="non-scaling-stroke"/><path fill="#85582c" d="M44 268.4q-1.4-2.7 0-5.1 5 1.4 8.4 4v.3q.3 3.4-.9 4.5h-.2q-4-.6-7.3-3.4z"/><path fill="none" stroke="#000" stroke-linecap="round" stroke-linejoin="round" stroke-opacity=".3" stroke-width="__RESOLUTION__" d="M52.4 267.3v.3q.3 3.4-.9 4.5h-.2q-4-.6-7.3-3.4v-.3" vector-effect="non-scaling-stroke"/><path fill="#ad864a" d="M43.1 280v.4q.5 5-.9 6.6H42q-5.2-.6-9.6-4.5v-.4q-2-3.8-.3-7.2 6.5 1.6 11 5.1"/><path fill="none" stroke="#000" stroke-linecap="round" stroke-linejoin="round" stroke-opacity=".3" stroke-width="__RESOLUTION__" d="M43.1 280v.4q.5 5-.9 6.6H42q-5.2-.6-9.6-4.5v-.4" vector-effect="non-scaling-stroke"/><path fill="none" stroke="#fff" stroke-linecap="round" stroke-linejoin="round" stroke-opacity=".4" stroke-width="__RESOLUTION__" d="M59.8 3.3q4.5 2.9 4.5 6.6 0 4.8-7.4 8.2-7.5 3.5-18 3.5T20.8 18q-7.4-3.4-7.4-8.2 0-3.1 3.1-5.6" vector-effect="non-scaling-stroke"/><path fill="none" stroke="#fff" stroke-linecap="round" stroke-linejoin="round" stroke-opacity=".4" stroke-width="__RESOLUTION__" d="M56.4.1q3.7 2.3 3.7 5.5 0 3.8-6 6.6T39.3 15t-14.7-2.8-6.1-6.6q0-2.6 2.6-4.7" vector-effect="non-scaling-stroke"/><path fill="#85582c" d="M128.3 263.6q3.3-2.6 8.3-4 1.4 2.4 0 5.1v.3q-3.3 2.9-7.3 3.4h-.2q-1.2-1-.9-4.5z"/><path fill="none" stroke="#000" stroke-linecap="round" stroke-linejoin="round" stroke-opacity=".3" stroke-width="__RESOLUTION__" d="m128.3 263.6-.1.3q-.2 3.5.9 4.6l.2-.1q4-.5 7.3-3.4v-.3" vector-effect="non-scaling-stroke"/><path fill="#ecd39b" d="M40 264.3v.3q.3 2.8-.5 3.8h-.2q-3.1-.3-5.7-2.6v-.2q-1.1-2.3-.1-4.4 3.8 1 6.5 3.1"/><path fill="none" stroke="#000" stroke-linecap="round" stroke-linejoin="round" stroke-opacity=".3" stroke-width="__RESOLUTION__" d="M40 264.3v.3q.3 2.8-.5 3.8h-.2q-3.1-.3-5.7-2.6v-.2" vector-effect="non-scaling-stroke"/><path fill="#ecd39b" d="M44 301.9q-1.4-2.9-.1-5.5 4.9 1.3 8.4 3.9v.4q.4 3.7-.7 5h-.2q-4-.5-7.3-3.4z"/><path fill="none" stroke="#000" stroke-linecap="round" stroke-linejoin="round" stroke-opacity=".3" stroke-width="__RESOLUTION__" d="M52.3 300.3v.4q.4 3.7-.7 5h-.2q-4-.5-7.3-3.4v-.4" vector-effect="non-scaling-stroke"/><path fill="#fc3" d="M25.2 272.5q-1.9-1-3.2-1.3v.7q-.8-1.6-1.7-2.5 1.1.3 1.7-.8v.8l2.8 2zm.3-.7 1.4.6.6 1.7-1.6-1.2zm3 .9h1.8v3.6l-.9-.7q-1.1-1.6-1-2.9"/><path fill="#ffdf7d" d="m25.2 272.5-.4-1.1.7.4.4 1.1zm1.7-.1 1.6.3q-.2 1.3.9 2.9l-1.9-1.5z"/><path fill="none" stroke="#000" stroke-linecap="round" stroke-linejoin="round" stroke-opacity=".3" stroke-width="__RESOLUTION__" d="m24.8 271.4-2.8-2v-.8q-.6 1.1-1.7.8.9.9 1.7 2.5v-.7q1.3.3 3.2 1.3l.7.4 1.6 1.2 1.9 1.4.9.8v-3.6h-1.8l-1.6-.3-1.4-.6z" vector-effect="non-scaling-stroke"/><path fill="#423c51" d="m22.3 270.2.2.4q0 .2-.2.3H22l-.4-.4-.1-.4.1-.3h.4z"/><path fill="none" stroke="#000" stroke-linecap="round" stroke-linejoin="round" stroke-opacity=".3" stroke-width="__RESOLUTION__" d="m22.3 270.2-.3-.3-.4-.1-.1.3.1.4.4.4h.3q.2-.1.2-.3z" vector-effect="non-scaling-stroke"/><path fill="#423c51" d="m29.8 274 .2.6-.2.3h-.4l-.5-.4-.2-.6.2-.3h.5z"/><path fill="none" stroke="#000" stroke-linecap="round" stroke-linejoin="round" stroke-opacity=".3" stroke-width="__RESOLUTION__" d="m29.8 274-.4-.4h-.5l-.2.3.2.6.5.4h.4l.2-.3z" vector-effect="non-scaling-stroke"/><path fill="#fc3" d="M24.7 289.2q-1.9-1-3.2-1.3v.7q-.8-1.6-1.7-2.5 1.1.3 1.7-.8v.9l2.8 1.9zm.3-.7 1.4.6.6 1.7-1.6-1.1zm3 .9h1.8v3.6l-.9-.7q-1.1-1.6-1-2.9"/><path fill="#ffdf7d" d="m24.7 289.2-.4-1.1.7.4.4 1.2zm1.7-.1 1.6.3q-.2 1.3.9 2.9l-1.9-1.5z"/><path fill="none" stroke="#000" stroke-linecap="round" stroke-linejoin="round" stroke-opacity=".3" stroke-width="__RESOLUTION__" d="m24.3 288.1-2.8-2v-.8q-.6 1.1-1.7.8.9.9 1.7 2.4v-.6q1.3.3 3.2 1.3l.7.5 1.6 1.1 1.9 1.4.9.8v-3.6H28l-1.6-.3-1.4-.6z" vector-effect="non-scaling-stroke"/><path fill="#423c51" d="m21.8 286.9.2.4-.2.3h-.3l-.4-.4-.1-.4.1-.3h.4z"/><path fill="none" stroke="#000" stroke-linecap="round" stroke-linejoin="round" stroke-opacity=".3" stroke-width="__RESOLUTION__" d="m21.8 286.9-.3-.3-.4-.1-.1.3.1.4.4.4h.3l.2-.3z" vector-effect="non-scaling-stroke"/><path fill="#423c51" d="m29.3 290.7.2.6-.2.4-.4-.1-.5-.4-.2-.5.2-.4h.5z"/><path fill="none" stroke="#000" stroke-linecap="round" stroke-linejoin="round" stroke-opacity=".3" stroke-width="__RESOLUTION__" d="m29.3 290.7-.4-.4h-.5l-.2.4.2.5.5.4h.4l.2-.3z" vector-effect="non-scaling-stroke"/><path fill="#fc3" d="M.8 265.1v-.2l-.4-.2v-.3l.2-.1q.4-1.6 1-1.2.6.3 1.1 2.4l.1.5-.4-.2v2.1l-.5-.6-.3-.5-.4-.6-.1-.4zm1.7 9.6q-.4.8-1 .5t-1-2.3l.3.1v-1.4q.8 1 1.7 3m-.1-8.6-.5 1.3z"/><path fill="#ffdf7d" d="M2.4 267.9v1.9q-.8-2.3-1.6-2.6V265l.3.6.1.5.4.6.3.5zm0 3.9v2.1l.2.2-.1.6q-.9-2.1-1.7-3.1v-2.3z"/><path fill="#e1a900" d="M2.4 269.8v2l-1.6-2.5v-2.1q.8.3 1.6 2.6"/><path fill="none" stroke="#000" stroke-linecap="round" stroke-linejoin="round" stroke-opacity=".3" stroke-width="__RESOLUTION__" d="M.8 265.1v-.2l-.4-.2v-.3l.2-.1q.4-1.6 1-1.2.6.3 1.1 2.4l.1.5-.4-.2v8.1l.2.2-.1.6q-.4.8-1 .5t-1-2.3l.3.1zm.5 1 .3.7m.3.5.5-1.2" vector-effect="non-scaling-stroke"/><path fill="#fc3" d="M2.8 269.2v.3q0 .7-.4.8l-1-.1-.8-.9-.4-1.2q0-.7.4-.9H1l-.4.6.4.9.6.8h.8z"/><path fill="#ffd75b" d="m1 267.2.5.2.9 1 .4.8-.3.3h-.7l-.7-.8-.4-.9z"/><path fill="none" stroke="#000" stroke-linecap="round" stroke-linejoin="round" stroke-opacity=".3" stroke-width="__RESOLUTION__" d="M2.8 269.2v.3q0 .7-.4.8l-1-.1-.8-.9-.4-1.2q0-.7.4-.9H1l.4.2.9 1z" vector-effect="non-scaling-stroke"/><path fill="#423c51" d="m1.9 264.3.2.4-.2.4-.4-.1-.4-.4-.2-.5.2-.3h.4z"/><path fill="none" stroke="#000" stroke-linecap="round" stroke-linejoin="round" stroke-opacity=".3" stroke-width="__RESOLUTION__" d="m1.9 264.3-.4-.4-.4-.1-.2.3.2.5.4.4h.4l.2-.3z" vector-effect="non-scaling-stroke"/><path fill="#423c51" d="m1.9 273.8.2.4-.2.4-.4-.1-.4-.4-.2-.5.2-.3h.4z"/><path fill="none" stroke="#000" stroke-linecap="round" stroke-linejoin="round" stroke-opacity=".3" stroke-width="__RESOLUTION__" d="m1.9 273.8-.4-.4-.4-.1-.2.3.2.5.4.4h.4l.2-.3z" vector-effect="non-scaling-stroke"/></g><g id="r"><path fill="#39240b" d="M78.8 41q1.4-4.6 1.5-10v-.5h-4.8V28h8v68.5h-3.2V96q-.1-9.6-4.6-16.9l-.2-31q2.2-3.3 3.3-7.1m4.7.5V28h-54v13.5h-7.4V28h68.6v13.5zM22.2 28v21.8L9.6 33.7v-9.9l3.6 3.8v.4h.3l.9.9-.9-.9H22M.4 83.2l9.5.1 12.2 12.8v.4h-8.9zm101.7 13.3H90.8V84.3z"/><path fill="#39a667" d="M75.5 30.6h4.8v.4q-.1 5.4-1.5 10l-3.3-1q-21.3-6.2-42 1-1.4-4.6-1.4-10v-.5z"/><path fill="#a8e1c4" d="M78.8 41q-1.1 3.8-3.2 7.1l-2.4 3.3q-5.8 6.9-13.5 8.1l.1 3.8-.1 4.2q2.6.4 5 1.5l.3.1q8 7.4 1.7 8.7-4.7-3.9-9.8-1.5l.4-2.1.2-2 .3-6.2q0-4.6-.5-8l-.2-1.1q9.5.6 13.5-8l-1.1-.5-1.1.5-.9.6q-10.7 3.5-22.3 0-1.7-.9-3.2-.8l-.5 1 1.4 1.7q3 3.6 7 4.9 2.5.7 5.4.6l-.2 1.1q-.5 3.4-.5 8l.2 4.7.3 3.5.4 2.1Q50 73.6 44 80.9l-3.2 4.5q-1.9 2.9-2 4.7-2.8 6.2-6.3 1.3 1.1-9 6.8-15.6 5.7-7 13.4-8.2l-.1-4.2.1-3.7q-4.4-.8-8.1-3.4-2.9-1.9-5.4-4.9-3.9-4.6-5.6-10.3 20.7-7.2 42-1z"/><path fill="#61c98c" d="M75.7 79.1q4.5 7.3 4.5 16.9v.5h-48V96l.3-4.7q3.5 4.9 6.3-1.3l.1 1q.8 2.8 8.3 2.1h18.7q7.4.7 8.5-2.1.7-2-1.5-5.7l-3.3-4.7q-1.5-1.7-2.8-2.8Q73 76.5 65 69q4.5 2.1 8.2 6.6z"/><path fill="#b77322" d="M80.3 96.5H103v4.3H13.3v-4.3z"/><path fill="#845918" d="M83.5 96.5v-55h7.3v55zM90.8 28H18.7q-8-7.6 2-10.2H103V28zM22.2 41.5h7.3v55h-7.4zm68-40.4 12.5 13.2h-89L.4.3zM103 102.3v8l-89.4.4H13v-.4l.4.4-.4-.4.2-9.5H103z"/><path fill="#fc0" d="m67.5 49.5.9-.6 1-.5 1.2.5q-4 8.6-13.5 8h-1.8q-2.9.1-5.3-.6-4.1-1.3-7.1-4.9l-1.4-1.7.5-1q1.5-.1 3.1.8l.9.6q1.8 1.4 3.1 3.1l-.1.5 7.5.5v.8q4.5.2 8.3-2 2.1-1.3 3.8-3.3l-3.3 2.1 1.1-1zM56.9 76.3q5-2.4 9.8 1.5 1.3 1.1 2.8 2.8l3.3 4.7q-17.4 11.2-32.1 0l3.2-4.5q6-7.3 11.6-4.5.4 1.2.7 1.2.4 0 .7-1.2"/><path fill="#ffcf00" d="m67.5 49.5-1.1 1.3-1.1 1 3.3-2.1q-1.7 2-3.8 3.3-3.8 2.2-8.2 2v-.7l-7.6-.5.1-.5Q47.9 51.5 46 50l-.9-.6q11.7 3.5 22.4 0m-10 22.8-.2 1.9-.4 2q-.3 1.3-.7 1.3t-.7-1.2l-.4-2.1-.3-3.5z"/><path fill="#c4950b" d="M55.3 56.9h1.8l.2 1.1q.5 3.4.5 8l-.3 6.3-2.7-1.6-.1-4.7q0-4.6.4-8zm17.5 28.4Q75 89 74.3 91q-1.1 2.8-8.5 2.1H47q-7.5.8-8.3-2.1l-.1-1q.1-1.8 2-4.7 14.7 11.2 32 0"/><path fill="#d98c31" d="M102.6 14.3h.4v3.4H20.8Q10.6 20.5 18.7 28h-5.4V14.3z"/><path fill="#000" fill-opacity=".3" d="M127.2 53.6v71.8l-22.9-21.8V30z"/><path fill="#623f13" d="m.4.4 13.3 13.9h-.4v13.3l-3.7-3.7-9.2-9.7zm12.7 109.9L.4 97V83.2l12.8 13.3v4.3zm-3.2-27-.2-49.6 12.5 16v46.4z"/><path fill="none" stroke="#408e5c" stroke-linecap="round" stroke-linejoin="round" stroke-width="3" d="M75.5 30.6h4.8v.4q-.1 5.4-1.5 10-1.1 3.8-3.2 7.1l-2.4 3.3q-5.8 6.9-13.5 8.1l.1 3.8-.1 4.2q2.6.4 5 1.5l.3.1q4.5 2.1 8.2 6.6l2.5 3.4q4.5 7.3 4.5 16.9v.5h-48V96l.3-4.7q1.1-9 6.8-15.6 5.7-7 13.4-8.2l-.1-4.2.1-3.7q-4.4-.8-8.1-3.4-2.9-1.9-5.4-4.9-3.9-4.6-5.6-10.3-1.4-4.6-1.4-10v-.5zM32.4 91.4l-.8.2"/><path fill="none" stroke="#333" stroke-linecap="round" stroke-linejoin="round" stroke-width="2" d="M80.3 96.5H103v5.5m0 .3v8l-89.4.4H13v-.4l.2-9.5v-4.3h67m3.2 0V28h-54v68.5m61.3-55V28H22.2v68.5m80.4-82.2h.4V28H90.8M13.7 14.3h88.9m-11.8 70v12.2m0-12.2V41.5M13.3 27.6V14.3h.4m0 13.7h-.4v-.4m.3.4h8.5"/><path fill="none" stroke="#000" stroke-linecap="round" stroke-linejoin="round" stroke-opacity=".3" stroke-width="__RESOLUTION__" d="M102.6 14.3 90 1M.4.4l13.3 13.9m-.6 96L.4 97m0-13.8 9.5.1-.2-49.6v-9.9L.3 14.3M102 96.6 90.8 84.3M13.3 27.6l-3.7-3.7m4.9 5-.9-.9m-.3 68.6L.4 83.1m13.1 27.5-.4-.4m9-14.2L10 83.3M90.1 1.1.4.4v13.8M.4 97V83.2" vector-effect="non-scaling-stroke"/><path fill="#845918" d="M84 31h1.8l.5.7.2 1.5v60.4l-.2 1.5-.5.7H84q-.3 0-.5-.7l-.2-1.5V33.2l.2-1.5q.2-.7.5-.7m-55 .8.3 1.4v60.5l-.2 1.5q-.2.5-.6.6h-1.7l-.5-.6-.2-1.5V33.3l.2-1.5.5-.7h1.8q.3 0 .4.6"/><path fill="#ffaf2b" d="M21 17.9q-.4-.6-.2-1.4.1-.9.7-1.3L23 15q.8.1 1.2.8.4.6.3 1.4t-.8 1.2-1.4.3q-.8-.2-1.3-.8m-4 82.9q-.5-.6-.3-1.5.2-.7.8-1.2t1.5-.2q.8.1 1.1.8.5.6.4 1.4-.2.8-.9 1.2-.6.5-1.4.3-.8-.1-1.2-.8"/><path fill="#fff" d="M43.4 41.4q-.9.9-2.1.9t-2.2-1q-.9-.8-.9-2 0-1.3.9-2.2t2.1-.9 2.1.9q1 .9 1 2.1t-1 2.1m8.3 38q-.4 2-2 3-1.7 1.2-3.7.8t-3.1-2-.7-3.6 2-3.2 3.6-.7 3.1 2q1.2 1.7.8 3.7"/></g><g id="q"><path fill="#e8cd7d" d="M1 7.2Q-.9 3.5.8 0q6.4 1.6 11 5.1v.5q.5 4.9-.9 6.6h-.3Q5.4 11.6 1 7.7z"/><path fill="none" stroke="#000" stroke-linecap="round" stroke-linejoin="round" stroke-opacity=".3" stroke-width="__RESOLUTION__" d="M11.8 5.1v.5q.5 4.9-.9 6.6h-.3Q5.4 11.6 1 7.7v-.5" vector-effect="non-scaling-stroke"/></g><g id="p"><path fill="#000" d="M16.4.1 17 0q.3.1.3.4v53.4q0 .3-.3.6-.2.4-.6.6L1.2 62H.6l-.3-.3V8.5l.3-.7.6-.5z"/><path fill="#1e160d" d="m48.9 85.4-.7-.2-47.9-23L0 62l.3-.4 11-8 .6-.2h.7l48 23 .2.5-.2.4-11 7.9z"/><path fill="#7c6035" d="m23.1 17.2 6.8-3.4 3.9 3.6v.2l-11.5 5.6-3.8-3.6zm14.4 14.5 1.2 1.6-11.3 5.8h-.2l-1.5-2zm7.2.2 2.7 5L36 43l-2.7-5.1v-.1zm1.1 17 .9 2.5L35 57.2l-2.4-6.9zm7.9 5.4.9 5.3-6.4 3.2-5 2.6-1-5.3zm-5.4 15 6.3 6.5-11 5-2.2-1-4.6-4.8zM2.5 20.5V18l.3-5.3 1 .4 1.5 6zM19 22.8l1 .9-.1.8-1.3 1.9-3.1 1.6zm-2.2-.8-2.1 3-1.8-1.1z"/><path fill="#44351e" d="m33.8 17.6-1.2 7.6-11.4 5.6 1.1-7.5v-.1zM47.4 37l-4.2 4.7-11.4 5.6L36 43zM16.7 5.5l2.2 9.1-11.4 5.9-.1-.1-2.2-9.1z"/><path fill="#705830" d="m32.6 25.2 4.9 6.5-11.8 5.5-4.6-6.2v-.2zm10.6 16.5 2.6 7.3-13.1 1.3-1-2.8.2-.1zm5 21.2v3.7L36.9 69v-3l6.4-.5zm6.3 12.9h.1l-1 4.5-5.4 2.8-4.6-2.2zM19 14.5l4.1 2.7-4.6 2.4-1.6 2.4-4 1.9-4.8-3.1-.6-.4z"/><path fill="#be9e69" d="m38.7 33.3 6-1.4-11.5 5.8h.1l-5.9 1.4z"/><path fill="#8e713e" d="m46.7 51.4 7 3-11.5 5.8-7-3zm1.5 15.3v2.6h.1L36.8 75v-6z"/><path fill="#b79357" d="M41.4 79.8 37 77.7l-.5-.3-1.8-1.8V63.7l6-.5-.2-1.4-6.6-2.7-4.6-12.8 4-4.4-.6-1.4-5.8 1.3-8-10.6 1-6.7.1-.8-1-1-3.5 5.3-7.3-4.7-.2-2.5 4.9 3 1.8 1.2 2-3 1.7-2.4 3.8 3.6-1.1 7.6-.1.2 4.6 6.2 1.5 1.9h.2l5.9-1.4 2.7 5.1-4.1 4.6-.2.1 1 2.8 2.4 6.9 7 3 1 5.3-6.3.5v9z"/><path fill="#8d6f3d" d="m36.6 77.4-3.9-1.8q-.2-18-6.7-30.8-6.8-13.2-16.5-13.2h-.7L10.9 65l-8.4-4.1V20.5l2.8-1.4.6 2.7 2.3 1.5 7.4 4.7 3.1-1.6 1.3-2-1 6.8 8 10.6 5.8-1.3.7 1.4-4.1 4.4L34 59l6.6 2.8.3 1.3-6.1.5v11.9z"/><path fill="url(#a)" d="m2.4 32.9-21.8-10.6-2.2-33.4h.8q9.6 0 16.4 13.2 6.6 12.8 6.8 30.8" transform="translate(30.35 42.7)"/><path fill="#957440" d="M2.5 18v-7.7l2.7.9 2.2 9.1.1.1.6.4.2 2.5-2.4-1.5-.7-2.7L4 13l-1.1-.4z"/><path fill="#594526" d="M2.5 10.3V7.4l.8 1.3L12.7 4l4 1.4-11.5 5.8zm0-1 .8-.5z"/><path fill="none" stroke="#573522" stroke-linecap="round" stroke-linejoin="round" stroke-width="__RESOLUTION__" d="m23.1 17.2 6.8-3.4 3.9 3.6v.2l-1.2 7.6 4.9 6.5 1.2 1.6 6-1.4 2.7 5v.2l-4.2 4.6 2.6 7.3.9 2.4 7 3 .9 5.3-6.4 3.2v6.3h.1l6.3 6.6h0l-1 4.5-5.4 2.8M37 77.7l-.5-.3-1.8-1.8V63.7l6-.5-.2-1.4-6.6-2.7-4.6-12.8 4-4.4-.6-1.4-5.8 1.3-8-10.6 1-6.7.1-.8-1-1M2.5 7.5l.8 1.3L12.7 4l4 1.4h0l2.2 9.1h0l4.2 2.7-4.6 2.4-1.6 2.4-2.1 3m33.5 37.9-5.1 2.6-6.4.5M3.3 8.7l-.8.5m.3 3.5 1 .4 1.5 6 .6 2.7 2.3 1.5 7.4 4.7 3.1-1.6M5.3 19l-2.8 1.4" vector-effect="non-scaling-stroke"/></g><g id="o"><path fill="#85582c" d="M8.7 5v.3q-3.2 3-7.2 3.6h-.2Q0 7.7.3 4.2V4q3.5-2.6 8.5-4 1.3 2.4-.1 5"/><path fill="none" stroke="#000" stroke-linecap="round" stroke-linejoin="round" stroke-opacity=".3" stroke-width="__RESOLUTION__" d="M.3 4v.3q-.3 3.4.9 4.5h.2q4-.6 7.4-3.5l-.1-.2" vector-effect="non-scaling-stroke"/></g><g id="m"><path fill="#938a62" d="M2.8 19.9 2.5 9.3l5.7-3.2-.7 4.3-.2 4.9z"/><path fill="#aaa273" d="m2.8 19.9 4.5-4.6-.2 4.3.8 15.2L4 33l-.6-7.3-3.4-3 3.1.8z"/><path fill="#827b57" d="m7.3 15.3.2-4.9.7-4.3 1.4-.8v.1l-1 8.5z"/><path fill="#8d865f" d="m9.6 5.3 1.1-.5zm-1 8.5v.3l.7 20-1.4.6-.8-15.2.2-4.4z"/><path fill="#592d00" d="m31.9 10.2 1.7 1.9v.5l.4 6.8v1.3l-2.5-2.9V10zm4.1 4.4.8.8v9.5l-1.6-2.6v-.6q.6-4.1.8-7.1m2 2.2 1 1 1 5 .6 9.5-.2 2.8q-.5-2.5-1.3-4.9zM8.4 14.2l1-7.9.6-1 .2-.4.4-.2-.3.1.2-.3.5-.2q0 1.9.6 6v2.6q-1.7.6-3.2 1.4m3.7-10.4 1.7-.6v9l-1.2.4v-.2Q12 8.8 12 5.3zM15 2.6V1.4v1h.1v.4l.9-.3v7.3l.1 2.1-.6.1v-1.3zm1.7-.4 1.5-.5v.6l.5 4.5-.3 5h-.7l-1.1.1q.3-.7.3-2.3 0-4.8-.2-7.3m2.8-1.1 2.2 1.1-.3 4.6-.2 5.3-1.7-.3zm3.3 1.7 1.2.6.7.6v9.1l-2-.7.3-6.2q0-2.1-.2-3.4M26.4 14l.1-4.7-.3-3.9 3 2.5.4 8.2z"/><path fill="#630" d="m33.6 12 .2.2 4.3-1.5-2.8 3.1.7.8q-.2 3-.8 7.1v.6l-.9-1.1-.3-.5v-1.3l-.4-6.8zm3.2 3.3 1.3 1.3 1 13.5q-1-2.8-2.3-5.3zm-25.7-11 1.1-.5-.2 1.5q0 3.5.7 7.1v.2l-1 .2v-2.6q-.6-4.1-.6-6m2.8-1h.2L13.3 0 15 2.6l.5 8.1V12l-1.6.3zm2.1-.7.7-.2q.2 2.5.2 7.3 0 1.6-.3 2.3h-.5L16 9.8zm2.2-.8 1.3-.5v10.7h-1l.2-5-.6-4.6zm3.5.6 1.1.6q.2 1.3.2 3.4 0 1.7-.4 6.2l-1.4-.3.2-5.3zM24 3.5h.2L29 7.3l2.9 3-.4-.3v8l-1.8-2-.4-8.2-3-2.5.3 3.9V14l-1.8-.8V4.1z"/><path fill="#984b01" d="m40.4 35.1-.3 3.6q-.6-3-.9-6.7v-1.8q.7 2.4 1.2 4.9m-.5 6.1-.8 8.5-1.7-.9q.1-9.5 1.1-9.5.3 0 1.4 2m-3.1 7.3-2.7-1.4q.8-7.2.5-16 0-4.1.6-8.9l1.6 2.6zm-3.7-2-1.6-.7v-28l2.5 2.8-1 12.6.2 11.5q0 1-.2 1.9M28 44l-2.4-1.2-.2-6.6q.2 2.2 1.1 2.2 1.3 0 2.3-3.8.8-3.3.8-6.5 0-5.1-2.1-5.1-.4 0-.8.5l-.9 5-.1.5v.2l-.3 2.9.4-7.1.1-1.4q.4-4 .5-9.7l3.2 2.1L31 28.6q-.8 8.1-1 8.6zm-3.3-1.7-1.4-.6q.5-7.4.5-11.5 0-2.9-.7-7.9t-.6-8l.1-1.9 2.1.7zM22 41.1l-2.5-1.3V11.9l1.7.3-.3 3.7q0 9.8 1.5 20.1 0 2.3-.4 5.1m-4.3-2.2-1.3-.6-.4-2.9-1.1-8 .2-3v-.7l.4-11.7h.6l.5-.1h1.8l-.6 7.1q.1 4.3-.5 12.2 0 5 .4 7.7M14 37l-1.3-.7-.1-2 .2-2.1q0-4.1.4-5.6L14 24zm-2.7-1.4-2.5-1.3.6-.3L9 23.8l2-5.1q.6-2.2.7-5.9l1.1-.2q0 3.7-1 10.2t-1 7.9q0 2.7.5 4.9m4.1-10.5q-.2 2.2.4 2.5.8-.4.8-3.6 0-1.2-.7-1.2l-.3.3zM27 27.5q1.4 0 1.4 1.7 0 5-1.5 5-1 0-1-2.1l.8-4.4zm-1.5 8.8-.1-2.1.1-2z"/><path fill="#834201" d="m40.1 38.7-.2 2.5q-1.1-2-1.4-2-1 0-1.1 9.6l-.6-.2V24.9q1.3 2.5 2.3 5.3l.1 1.8q.3 3.7 1 6.7M34 47.2l-1-.5q.2-.9.2-1.9l-.3-11.5L34 20.7l.3.5.9 1.1q-.7 4.8-.6 9Q35 40 34 47.2m-2.5-1.3L28 44.1l2.1-6.9q.2-.5 1-8.6l-1.4-12.5 2 1.7zm-6-3-.9-.5V13.2l1.7.8q0 5.7-.5 9.8V25l-.5 7.1.2-2.9.1-.2.1-.4 1-5.1q.3-.5.7-.5 2.1 0 2.1 5.1 0 3.2-.8 6.5-1 3.8-2.3 3.8-.9 0-1.1-2.2zm-2.3-1.1L22 41q.4-2.8.4-5.1Q21 25.7 21 16l.3-3.8 1.4.3-.1 2q0 2.9.6 7.9t.7 7.9q0 4.1-.5 11.5m-3.8-2-1.8-.9q-.4-2.7-.4-7.7.6-7.9.5-12.2l.6-7.2 1.1.1zm-3-1.5L13.8 37V24l-.8 2.6q-.4 1.5-.4 5.6l-.2 2.1.1 2-1.4-.7q-.5-2.2-.5-5 0-1.4 1-7.9t1-10.1l1.2-.3 1.6-.3q0 5.1-.4 11.7v.6l-.2 3.1 1.1 8zM9 23.8l-.4-9.5q1.5-.9 3.1-1.5-.1 3.7-.7 5.9zm6.4 1.3.2-2 .2-.3h.1q.7 0 .7 1.2 0 3.3-.8 3.6-.6-.3-.4-2.5M27 27.5l-.3.2-.8 4.4q0 2 1 2 1.5 0 1.5-4.9 0-1.7-1.4-1.7m-1.5 4.7-.1 2 .1 2.1z"/><path fill="none" stroke="#573522" stroke-linecap="round" stroke-linejoin="round" stroke-width="__RESOLUTION__" d="m40.4 35.1-.3 3.6-.2 2.5m-2.5 7.6-.6-.2-2.7-1.4-1-.5-1.6-.8-3.6-1.8-2.3-1.2-.9-.5-1.4-.6L22 41l-2.5-1.3m-1.8-.9-1.3-.6L14 37l-1.3-.7-1.4-.7-2.5-1.3.6-.3L9 23.8l-.4-9.5q1.5-.9 3.1-1.5l1.1-.2 1.2-.3 1.6-.3h.6l.5-.1h1.8m13.2 6 2.4 2.8.3.5.9 1.1 1.6 2.6q1.3 2.5 2.3 5.3.8 2.4 1.3 4.9M24.7 13.2l1.7.8 3.2 2.1 2 1.7m-10.4-5.6 1.4.3 2.1.7m-3.5-1-1.7-.3" vector-effect="non-scaling-stroke"/><path fill="none" stroke="#ba5e01" stroke-linecap="round" stroke-linejoin="round" stroke-opacity=".5" stroke-width="__RESOLUTION__" d="m39.9 41.3-.8 8.4-1.7-.9q.1-9.5 1.1-9.5.3 0 1.4 2m-20.3-1.5-1.9-.9q-.4-2.7-.4-7.7.6-7.9.5-12.2l.6-7.2 1.1.1zm-6.8-27.2q0 3.7-1 10.2t-1 7.9q0 2.7.5 4.9m20.3-17.8V46m-6.8-32.7v29.2m-1.4-.6q.5-7.4.5-11.5 0-2.9-.7-7.9t-.6-8l.1-1.9m3.8 1.5q0 5.7-.5 9.8V25l-.5 7.1.2-2.9.1-.2.1-.4 1-5.1q.3-.5.7-.5 2.1 0 2.1 5.1 0 3.2-.8 6.5-1 3.8-2.3 3.8-.9 0-1.1-2.2v-4.1M11.6 12.8q-.1 3.7-.7 5.9l-2 5.1m6.4 1.3q-.2 2.2.4 2.5.8-.4.8-3.6 0-1.2-.7-1.2h0l-.3.3zm.2-13.1q0 5.1-.4 11.7v.6l-.2 3.1 1.1 8 .4 2.9m-3.8-2-.1-2 .2-2.1q0-4.1.4-5.6L14 24v13m13-9.5q1.4 0 1.4 1.7 0 5-1.5 5-1 0-1-2.1l.8-4.4zm-5 13.6q.4-2.8.4-5.1Q21 25.7 21 16l.3-3.8m14 10.1q-.7 4.8-.6 9Q35 40 34 47.2M28 44l2-6.9q.2-.5 1-8.6L29.6 16m9.5 14.1.1 1.8q.3 3.7 1 6.7m-6.2-18-1 12.6.2 11.5q0 1-.2 1.9m3.8-21.8v23.7" vector-effect="non-scaling-stroke"/></g><g id="l"><path fill="#b87d1d" d="M2.8 28.6 0 0l1.9 1-.1.5q2 12.3 2 18.4v1.9q-.3 2.6-.9 5.6zM4 2l2.1 1 2.4 14.9.7 2.7 2 21.3L10 37v.5l.4 6 .1 2.6q.5 7 1.1 9.9l-2.2-1Q8 47.4 7.3 41l-.8-8L6 20l-.2-4.4Q5.3 7.4 4.1 2m2.2 51.6L5 53 3.4 35.3q1.7 1 2.4 4.6.3 1.9.3 4.6L6 48z"/><path fill="#c5861f" d="m1.9 1 2.2 1q1.2 5.4 1.7 13.5l.2 4.4.5 13.2.8 7.9q.7 6.4 2.2 14l-3.2-1.5L6 48l.2-3.5q0-2.7-.3-4.6-.7-3.6-2.4-4.6l-.6-6.7.1-1.2q.6-3 .9-5.6v-2q0-6-2-18.3zm4.3 2 1.4.7 1.7 16.9-.7-2.7zm6.4 53.5-.9-.5q-.6-2.8-1-9.9l-.2-2.6-.4-6V37l1.2 4.9z"/><path fill="#876214" d="m7.6 3.7 3 1.4q0 7.3-.2 11.3-.3 4.3-.9 4.9l-.2-.7zm5.2 52.8h-.2L11.3 42l.5 2.6 2.4 11zm2-1.4q-1.1-2.4-2-9.1v-.6q-.8-6.2-.8-9.2.7-7 .7-11.9l-.2-2.6.3-2.6 3.1 35.4z"/><path fill="#8f6816" d="m10.6 5.1 1 .4.4 4.9.8 8.6-.3 2.6.2 2.6q0 4.9-.7 11.9 0 3 .8 9.2v.6q.9 6.7 2 9.1l-.6.5-2.4-11-.6-2.6-2-21.3.3.6q.6-.5.9-4.8.2-4 .2-11.3"/><path fill="#000" fill-opacity=".3" d="m12 10.4 3.4 1.6 3.7 44.3-6.3.1 1.4-.9.6-.5 1.1-.6-3-35.4z"/></g><g id="k"><path fill="#927d41" d="m5.4 5.3-1.5-.7-1.3-3.4 2.5 3.5zm.8 5.2 1.2 1 .5.5 6 15.8-.8.7z"/><path fill="#a58e4a" d="m3.9 4.6 1.5.7L7.9 12l-.5-.4-1.2-1.1-.3-.7v-.2zL2.6 1.2 1.8 0 0 1l1.3 3.4.9-.4.2-.1z"/><path fill="#d9bf75" d="m2.3 4 .2-.1 1.4.7 2 5v.2l.3.7-.3-.3v.7q0 2.7 1.7 7.5.8 1.3 2 5.8l.4 1.3-5.1-12.7q-.1-2.6-1.6-6.4z"/><path fill="#d3b761" d="m2.3 4 1 2.4q1.5 3.8 1.6 6.4L1.4 4.4zM10 25.5 9.6 24q-1.2-4.5-2-5.7Q6 13.6 6 10.9v-.7l.3.3 6.9 18-2.3-1.3-.7-1.4z"/><path fill="none" stroke="#000" stroke-linecap="round" stroke-linejoin="round" stroke-opacity=".3" stroke-width="__RESOLUTION__" d="m5.4 5.3-.3-.6M2.6 1.2l1.3 3.4 2 5m-1 3.2L10 25.5l.1.3M6.2 10.5l-.3-.7M.1 1l1.3 3.3L5 12.8m3-.8L5.4 5.3m8.5 22.5L7.9 12m5.2 16.5-6.9-18" vector-effect="non-scaling-stroke"/><path fill="#a58e4a" d="M3.8 18.7q.5-.6 1.3-.8l.7-.2 1-.1.4 1.1h-.6l.5-.3-.7-.1h-1zm7.9.5q2.3 1.4 4 3.3 2 2 3.3 4.8l.3 1.2q-2.6-3.3-4.8-5.5l-.5-.5-.5-.3q-2-1.9-3.8-2.7z"/><path fill="#d2b55b" d="m7.2 18.7.5 1.3-1.5.3q-1.3.3-2.1 1.4l-.7-.9 2.4-1.6.8-.6zm12 9.7v.3l-3.4-3.3q-1-1-1.7-2.3l-.2-.7.5.5q2.2 2.2 4.7 5.5m-5.9-4.6-.2-.2q-1.3-1.1-2.5-1.6l-.6-1.4 1.7 1.2 1.5 1.7z"/><path fill="#d9bf75" d="m7.8 20 .5 1.3-1.6.1q-1.1.3-2.1 1.2l-.5-.9q.8-1 2.1-1.4zm-4.3.8-.6-.8q1.3-1 2.8-1.2l1-.2-.8.6zm15.9 7.8L20 31q-3.6-4.9-6.6-7.2l-.2-.3-1.5-1.7q-.8-.7-1.7-1.2l-.5-1.2h.2q1.8.9 3.9 2.7l.4.3.2.7q.7 1.4 1.7 2.3z"/><path fill="#927d41" d="m2.8 20 .9-1.2v-.2l1.7-.2 1-.1.7.1-.5.3h-1Q4 19 2.8 20m6.6-.6 1.1-.8.8.4.3.1-2 .3z"/><path fill="none" stroke="#000" stroke-linecap="round" stroke-linejoin="round" stroke-opacity=".3" stroke-width="__RESOLUTION__" d="M3.8 18.7q.5-.6 1.3-.8l.7-.2 1-.1m1.5 3.7-1.6.1q-1.1.3-2.1 1.2l-.5-.9-.7-.9-.6-.8.9-1.2v-.2m5.7.8 1.1-.8.8.4.3.1q2.3 1.4 4 3.3 2 2 3.3 4.8l.3 1.2v.3L20 31q-3.6-4.9-6.6-7.2l-.3-.2q-1.3-1.1-2.5-1.6l-.6-1.4z" vector-effect="non-scaling-stroke"/></g><g id="j"><path fill="#97442f" d="m9.3 2.2 7.9 3.7L16 7.3l-6.6 7.8Q3.6 14 .1 10.8z"/><path fill="#7f3b2e" d="m16 7.3-1 3.5-4.7 6.6H8.9l-8.4-4-.4-2.7q3.5 3.3 9.3 4.4z"/><path fill="none" stroke="#75372d" stroke-linecap="round" stroke-linejoin="round" stroke-width="__RESOLUTION__" d="m16 7.3-1 3.5-4.7 6.6h0m0 0H8.9l-8.4-4-.4-2.7 9.2-8.5L11.4.1" vector-effect="non-scaling-stroke"/></g><g id="i"><path fill="#cd6161" d="m9.3 19.8 1.3-1.1L30.3 5.9 40.5 0l2.7 1.6 1.5.5L13 21l-3.6 2-9.3 5.5L8.4 20l.8-.5zm-1.5 3 .2-.1z"/><path fill="#874343" d="m44.8 2.2 1.9.7.1.1v3.5l5.7 5.6 7.4 13 1.8.8v2.5L54.5 33l-14.8 9.4-7 5.3-19.8-26.8z"/><path fill="#6c5e31" d="m54.6 33-.9 2.7q-2.6 1.6-5.8 4l-6 4.3-10.6 7-.7-2 1.1-.5 1.1-.7 7-5.4z"/><path fill="#806631" d="m53.7 35.7-.2.5L53 38 31.9 52.5l-.6-1.6L42 44l5.9-4.2z"/><path fill="#957639" d="m53 38-.4 1.8-.4 1.6-.3.6-6.1 4-2.9 2-6.4 4.4-4 1.8-.1-.3-.5-1.2-.1-.2zM33.6 57q3-3.6 9.7-7.5l1.6-1 5-2.6-5 9.4-.2.1-2.5 1.2q-5.5 2.7-7.1 4.5z"/><path fill="#866215" d="m52.3 41.4-.5 2 .9.5L47.4 54v1.1l-12 8.5L16.3 53l.3-.5 19.1 10.4 8.1-6.1.4-.3.6-1.2 5-9.4L52 42zm-8.1 15.1 3.2-2.5z"/><path fill="#d9bf75" d="m16.6 52.5-1.9-1-12.4-20-1.7-.9-.6-2.1 1.7.9 2 1.7 4.7 7.8 7.2 12 17.3 9.4-1.4-4-2-5.5-2.2-6.5-10.7-14.5-2.5-3.5-.6-.9-.2-.2-1.7 1-5.2 3.3 5-3.6 2.3-1.6 15.7 21 1.7.9.5 2.2-1.2.5.8 2 .6 1.6v.1l.6 1.3v.3l1 2.8 1.6 4 .1.4.6 1.4zm-5-26.6.1.3z"/><path fill="#866b33" d="M49.9 45.9q-2.6 1.2-5.1 2.6l-1.6 1q-6.7 3.9-9.7 7.5l-1-2.9 4-1.7L43 48l2.9-2 6.1-4zM35 61q1.6-1.8 7.1-4.5l2.5-1.2.3-.1-.7 1.2-.4.3-8 6.1h-.1l-.6-1.4z"/><path fill="#633" d="M9.3 23v.4l2.8-2-2.8 2zL.1 28.5l1.5.9h.1l2 1.7.1-.1 1.8-1 .7-.5 5.1-3.6 2.3-1.6 15.7 21 1.7.9.5 2.2 1.1-.7-19.8-26.8zm3-1.7-.2.1h.2z"/><path fill="#84723c" d="m3.8 31 1.8-1 .8-.6 3.8 6.5-1.7 3z"/><path fill="#aaa273" d="m7.8 22.7.2-.1z"/><path fill="#718b9d" d="m15.8 36.6-3.9-.6-1.7-.1-3.8-6.4 5.2-3.3zm4 1.6-3.2-8.4 10.6 14.5 2.4 6.5q-2.3-5.7-5.6-9.3-2-2-4.2-3.3"/><path fill="#a2b2c0" d="M10.2 35.9h1.7l3.9.7L21.6 51 18 49zm19.4 14.9 1.9 5.5-6.1-3.3-5.6-14.8q2.3 1.3 4.2 3.3 3.3 3.5 5.6 9.3"/><path fill="#a58e4a" d="M10.2 35.9 18.1 49l3.5 2 .6 1.4 2.4 1.2.8-.6 6.1 3.3 1.4 4-17.3-9.4-7.1-12z"/><path fill="none" stroke="#45271b" stroke-linecap="round" stroke-linejoin="round" stroke-width="__RESOLUTION__" d="m9.3 19.8 1.3-1.1L30.3 5.9 40.5 0l2.7 1.6 1.5.5m2 .8.1.1v3.5l5.7 5.6m2 20.9-.8 2.7-.2.5h0L53 38l-.4 1.8m-.4 1.6-.5 2h.1l.9.5m-36.1 8.6-1.9-1-12.4-20-1.7-.9-.6-2.1m0 0L8.6 20l.8-.5M0 28.6l1.5.9h.1l2 1.7.1-.1 1.8-1 .8-.6 5.2-3.2 1.7-1 .2.3m18.2 22.9 1-.7 7-5.4L54.5 33m-37.8-3.2L14 26.3m15.5 24.5 1.9 5.5m-.3-5.4-.7-2 1.1-.5m.2 4.1-.6-1.6m1.2 3-.5-1.2m12 4.1-8.1 6.1h-.1L16.5 52.5m19.2 10.4-.6-1.4M47.5 54l-3.2 2.5" vector-effect="non-scaling-stroke"/><path fill="none" stroke="#ba5e01" stroke-linecap="round" stroke-linejoin="round" stroke-opacity=".5" stroke-width="__RESOLUTION__" d="m52.7 39.8-.5 1.6m-8 15.1-.4.3" vector-effect="non-scaling-stroke"/><path fill="none" stroke="#4d311e" stroke-linecap="round" stroke-linejoin="round" stroke-width="__RESOLUTION__" d="m12.2 21.4-2.9 2V23m3-1.7-.2.1" vector-effect="non-scaling-stroke"/><path fill="none" stroke="#000" stroke-linecap="round" stroke-linejoin="round" stroke-opacity=".3" stroke-width="__RESOLUTION__" d="m11.6 26.2-.2-.3m2.7.4-.6-.9M21.6 51l.6 1.4 2.4 1.2.8-.6" vector-effect="non-scaling-stroke"/></g><g id="h"><path fill="#000" fill-opacity=".3" d="m185.2 144.9-.6 10.3-85 41.1L10 153.4l-.6-10.2 90.2 43.1z"/><path fill="#936a17" d="m41.8 34.9 8.7-4.4v2.1L45 36.1zm-12.7 6.4 4 2.4-4.3 3.6-5.7-3zm56.2 10.8q5.1-.9 8.5-2.1l5 2 2 1q16.7 7.7 26.1 11.3l-11.5.9L89.2 54l-2.9-1.4zm13.9-5.9.7-1.3v-6.3l49.7 24.3-10.2.6-10.8-3.6q-11.5-4.1-20.1-8.2l-6.1-3.1zm-25.6 7.3 2.7-.2.5-.1 4 2.4 5.3 12.8-12.8-8 3-2V56l-1.7-.8zm-5.4 12.8.8-2.6q4.4 3 7 6.5z"/><path fill="#c5861f" d="m41.8 34.9 3.3 1.2-12 7.6-4-2.4zm35 18.3 3-.3 1 2.7zm-3.5 7.2 12.8 8-6.7 3.4-3.4-1.6q-2.6-3.5-7-6.5l.3-.7zm-1.5 15.8-3.4-3-.7-.6-.2-.1-.7-.7.8-3.6q.7 0 2.6 1.1 2.8 1.6 8.3 5.7l.8.7 1 .6 2.7 2 6.5 4.4 1.2.5.4.2q2.6.8 9.4 1.5l1.4.2h.4l5 .4 21.2 10.3v3.7l-.5-.2-.5-.1-3.3-1q-3.2-1-4.7-2-2.8-2.1-12.2-5.5L105 90l-1.4-.5-.7-.2-.7-.2-2.5-.7-4-.6-1.5-.7-.2-.1-5-2.5-13.7-6.7zm28.3 5.7-.7-.2q-4.7-1-9.6-3.5-2.7-1.4-4.9-2.9l-2.5-2zM.5 139.1v-4.7l12.1 5.9-1.3-.4H11q.4 4 12 9.8l3.6 1.9q9.3 4.2 15.4 4.2l1.6-.4 2 .9q.5 2.8 1.7 4.6.9 1.2 2.1 1.8 2.3 1 7.8 2.7 4.5 1.4 6.7 2.8l5.9 3.6q1.5.9 3.3 1.6 2.9 1.3 6.3 2.3 3.6 1 9 3.9 2.5.8 10.5 5.5v3.2q-1.5-.9-2.3-1.8l-2-1.8q-3.5-2.4-20.2-7.4l-12.4-6-10.6-6.4q-2.9-1.7-5.9-3-2.9-1.5-8.2-3l-1-.2-26.7-13.1-1.7-.7q-.7-1.2-2-2.3l-1.5-1.1zm115.6.9v-2.3l.8.4.3.2v2.2zm0-5v-1.3l1.1.7v1.2zm1.1-1.8v.6l-.2-.7z"/><path fill="#a6781a" d="m85.4 52.1.9.5-6 .3 4.6-.7zM127 64.3q-9.4-3.6-26.2-11.3l-2-1-5-2q4-1.6 5.5-3.7l3.2 2.3 6.1 3q8.6 4.2 20 8.3l11 3.6zM65.9 77.1l-2.3 5.3-2.9 6.3.6.3-.9.3-7.6 2.8.5-1.2 8.9-6.8zM62 88.8l2.8-6.5 2.3-5.1 3.9 2-3.2 6.8-.3.8zm12-4.4 1.5-3 4.1 2.1-1 1.8-3.1-1.5zm8.3 2.7 1-1.7 4.7 2.3-.7 1.8zm5 2.4.7-1.8.5.3-1 1.6zm-33.9 1.3-.5 1.3-2.3.9zm39.1-.8 4.4 2.2-1 1.4-4.8-2.2zm7.8 4 1.5.7.3.2-.6 1.5-.3-.1-1.9-.9zm-77 .7 5.9 2.9-1.4 4.1-5.9-2.8 1-3.5zm24.5 12 1.5.7-2.5 3.5-.4-.2-6.2-3 2.1-3.7zl-1.4 4zm6.7 3.3 4 2-1.5 1.8-1.2 1.6-4.2-2.1 1.5-1.7zM38 101.9l-.8 2-.6 2-6-2.8 1.5-4zM1.9 133.7q5.2 2.5 9.6 3.5l.5.2.8.4.5.3 2 1 1.9.8.7.2 1.4.3 2 .3 2.4 1.2 1.3.6 2.1 1 6.1 3 1 .5 1.5.8.2.1 3.7 2.5 2.2 1.5 2 1.3.1.2 1.1.8 1.7 1 4.3 2.2 1.3.6 1.4.6 1.3.5h.3v.1l4.5 2.2h.1l1 .5 3.2 1.7 1.2.5q3.3 1.8 8.8 3l.9.2 1.6.3.3.2 1 .5 1.5.8 2.7 1.3 3.3 1.5 2.4 1.2 3.5 1.7 8.3 4 .2-.4-.9 4.1v-.1l-53.4-26.1-1.9-.9.2-.2-4.7-3.6-3.9-2.5-1.5-1-.9-.4q-2.7-1.5-5.2-2.3l-1.3-.5-2.2-.7-1.3-.4-5.5-2-.5-.1-4.2-1.4-12.1-6zM66.5 116l3.5 1.6-2.6 3.4-3.2-1.5zm6.3 3 3 1.5-2.5 3.4-3.2-1.5zm-12.1-1.2.3-.6.2-.3.3.4-.2.8zm22.4 6.3 2.8 1.3-2.3 3.5-2.8-1.4zm5.9 3.8.4.2v1.3l-1.3.8zl-.9 2.2-.9.7-1-.6q1.8-2.2 2.8-2.3m27.1 4.9v-.3l.8.4-.8-3 .8-2 .3 5.5-.2-.1zM108 158l2.3-5.7-.2 5.3q0 3.5 1.5 11.8l-.2 4.8-3.4 1.7q-.2-.7-.2-1.8l.4-5.1q.6-7-.2-11m71.6-40.2 4.3 8.7v1.3q0 2.2-.8 7.2l-.7 4.3 11.7-5.7.7.3v6.8l-9.6 4.9-18.1 9.2q-.6-2-1.2-7.4l-.8-12.8-.8-13.1 4.2-2q.8 5.9 2.3 14l.8 11.2 4.5-2.3-2.2-17.3-1.2-7.6 3.5-1.7v.4q1.6 23.6 2 25.2l2.6-1.2.1-6.7-.5-9.1zm-4.9-19.5 5.8 2.9v6l-4.9 2.3zm-2.9 13-8.2 3.7q-.3-3.7-.7-5.3-1.6-5.7-2.5-15.1l8-4zm-13.9 6.3-5.5 2.5-1.2-21 4.3-2 1.4 11zm-8.8 4-2.6 1.2-1-20.8 4.3-2.2zm-4.5 2-14.8 6.8q-1.9-13.7-2.3-22.8l.4.3v1.5l1.3.8 13.6-6.9q2 16 1.9 17.7zm-19.6 8.9-4.2 1.9-1.7-13.5 4.8-13.6h.1v-.2l-4.5-2.1-4-2 .8-1.1 8.4 4.3-.5 2 .4 2.2-.3 5.4q0 4.8.6 16.2zm-13.3-31.3.6-1.2 1.7.8-.5 1.3zm-5.4-4.2-.7 1.4-1.4-.7.9-1.3zm-5.4-1 .5-1.5zm29.8 41.3 6-2.9v.3l1 26.3-4 2v-1q0-3.9-2.9-23.8zm11.1-5.3 3.3-1.5v1l.7 9.3.1.1q1-2.3 1-10.2l-.1-1 2.7-1.3.1 2.6.8 11.3.1.3-1 12.7-4.9 2.4q-.7-10.5-2.7-25.3zm11-5.2 5.8-2.7q.6 8.1.6 13.9 0 8.4.2 12.5l-5.3 2.6-.7-17.2zm-26.3 12.5.1.3.3 1q1.5 5.8 1.9 8.3l.8 9.1q.2 5 .5 6.8l-4.3 2.2-1.2-5.9q-.7-2.9-2.5-17.7l-.3-1.8zm-9.7 4.6.1 2.5q.5 4.6 1.6 8.8l.5 7.4q.2 5 .7 7.3l-2.5 1.2-2.2-14-1.5-8.7-.4-2.7z"/><path fill="#f2c566" d="m86.3 52.6 2.9 1.4q11.5 5.7 17.1 8.2 27.5 11.9 34.8 13.7h.2q9.2 2.3 12.6 4.4 1.4.9 2.8 1.3l-10.9 5.5-.9-.6q-3.8-2.6-12.6-7.2-11.2-5.7-22.7-10.9L87 58.4h-.2l.5-.2-.5.2q-3.2-1.4-5.9-2.8l-1-2.7h.5zm42.3 43.2-21.2-10.3-7.2-3.6-17.7-8.7-3-1.4 6.6-3.4 1.3.8q4.8 2.6 13.4 7.7 7.3 4.3 12 6.4l4 2q7.2 3.5 12.7 6.8l3.1 1.7zm8.7-4.4-16.6-7.6-12.4-5.7 1.1-.2q4.1 0 12.7 3.4l2.4 1 12 5.3 4.1 2.1zm2.1-27.9 13.6 4.3 5 1.6q7.3 2.5 11.6 5l.6.4-5.3 2.7q-4.6-2.2-14.1-5.3l-17-5.5-1-.2-5.9-2.2zm-6.3 2.7-.2.3zm38.6 9.5.2.2z"/><path fill="#f0bb4d" d="m89.2 54 26.2 11.2 11.5-.9 6 2.2.8.3 17.1 5.4q9.5 3.1 14.1 5.3l-8.2 4.1q-1.3-.4-2.7-1.3-3.5-2.1-12.7-4.4h-.2q-7.3-1.8-34.7-13.7-5.7-2.5-17.2-8.2m60.4 8.9 22.5 10.9-1.9 1-.6-.4q-4.3-2.5-11.7-5l-4.9-1.7-13.6-4.2zm-63.5 5.5-5.2-12.8q2.6 1.4 5.8 2.8h.1l22.8 10q11.5 5.2 22.7 10.9 8.8 4.6 12.6 7.2l.9.6-5.2 2.6-4.2-2.1-11.9-5.3-2.4-1q-8.6-3.5-12.7-3.5l-1.1.3 12.4 5.7 16.5 7.6-4.6 2.3q-1.2-.5-3.1-1.6-5.5-3.3-12.7-6.8l-4-2q-4.7-2.1-12-6.4l-13.4-7.7zm-1.2-9 1.8-1zm57.2 14.4 1.7-1zm-1.3-.4 2.5-1.5zm-10.7-4.3 2.8-2.6zm-18.5.5-2.3 1.6zm.3 1.4-1 .8zm21.9-3.3-1.5 1.4z"/><path fill="#b67c1d" d="m68.1 66.3 7.8 3.9 3.4 1.6 3.1 1.5 2.5 2q2.3 1.5 5 3 4.8 2.5 9.5 3.5l.7.1 7.2 3.5-5-.3h-.4l-1.4-.2q-6.8-.7-9.4-1.5l-.5-.2-1.1-.5-6.5-4.4-2.7-2-1-.6-.8-.7q-5.5-4.1-8.3-5.7-1.9-1.1-2.6-1.1v-.1zM67 71.8l.7.7h.2l.8.8 3.3 2.9-4.6-2.3-.9-.5zm28.8 15.9 4 .6 2.5.7.7.2.8.2 1.3.5 2.5.8q9.4 3.4 12.2 5.5 1.5 1 4.7 2l3.3 1 .5.1.5.2v4.3l-12.3-6-13.5-6.5zM8 144.9l-7.5-3.7v-2.1l3.9 2.4 1.5 1.1q1.3 1.1 2 2.3m35.7 10.5-1.6.3q-6.1 0-15.4-4.1l-3.7-1.8q-11.5-6-11.9-9.9h.3l1.3.4zm-7.3 3.3 1 .3q5.3 1.4 8.3 2.9 2.9 1.3 5.8 3l10.6 6.3zm38.1 18.6q16.6 5 20.2 7.4l2 1.8q.8 1 2.3 1.8l-.1.9zm24.5 7.8q-8-4.7-10.6-5.5-5.2-2.8-8.9-3.8-3.4-1-6.3-2.4-1.7-.7-3.3-1.6l-5.9-3.7q-2.2-1.3-6.7-2.7-5.5-1.7-7.8-2.7-1.2-.6-2.1-1.8-1.2-1.7-1.7-4.6l53.3 26.1zm17.2-47.4V135l1 .6h.1v2.6l-.3-.1zm0-4v-1.1l.9.5.2.7v.6z"/><path fill="#866215" d="m72 76.2 3.2 1.5 13.7 6.8 5 2.4h.2l1.5.8 7.3 3.5-1.4 3.4-1.4-.7-3.4-1.7-4.4-2.2-4-2-.5-.3-4.7-2.4-3.7-1.8-4.1-2-1.2-.7-3.3-1.6-4-2-.9-.5 1.4-2.8zm3.3 1.5L74 80.9zM89 84.4l-1.2 3.2zm12.6 10.1 1.3-3.3 13.5 6.5 12.3 6 16-8L168 84l2.2 5.8-1.7.8-8 4-5 2.5-4.2 2-1.4.8-4.2 2-2.8 1.4-13.6 6.9-1.2-.7v-1.6l-.5-.3-2.7-1.3-8.5-4.3-1.4-.7-.8-.4-1.7-.8-6-3-1.2-.6-3.3-1.7zm13.8 45 .8.4 1.1.5V136l3.6-1.6 4.3-2 4.7-2.1 14.8-6.7 1.9-.9 2.6-1.2 3.3-1.5 5.5-2.5 5.7-2.6 8.2-3.7 3.8-1.8 4.8-2.2v1.2l-4.3 2.2 2 4.2-1.9.9-3.4 1.7-4.3 2-4.2 2-5.7 2.8-5.7 2.7-3.4 1.6-2.7 1.3-1.7.8-3.3 1.5-5 2.4-6 2.9-4.3 2-4.7 2.3-5 2.3-3.6 1.8-.4.2zm-.4-38.3 1.3-3.5z"/><path fill="#8f6816" d="m65.9 76.8 1 .4-2.4 5.1-2.7 6.5-.6.2-.6-.3 2.9-6.3 2.3-5.3zm4.9 2.4 3.3 1.6 1.2.7-1.5 2.9-1.2.4 1.5-4-1.5 4-5.3 2 .3-.8zm7.5 6.1 1.1-1.8 3.7 1.8-1 1.8zm8.8 4.3 1-1.6 4.1 2-1.4 1.3zm9.5 2.6 3.4 1.7-1 1.4-3.5-1.7zm-76.8.9 3.1 1.5-.2.7-1.1 3.5-3-1.5zm9.1 4.4 2.1 1 1 .6-1.6 4-.7-.4 1.3-4.1-1.3 4-2.2-1zm20 9.8 5.2 2.5-1.4 1.6-1.5 1.7-4.7-2.3zm9.2 4.5 3.7 1.8 4.6 2.3-2.2 3.5-3-1.5.2-.7-.3-.5-.2.4-.3.6-.2-.2-5-2.3 1.2-1.6zM36.6 106l.6-2 .8-2.1 4 2-2 3.7zm-22.9 31 3.7 1.8.8.4 1.3.7 1.8.8-2-.3-1.4-.3-.7-.2-1.9-.8-2-1-.6-.3-.7-.4-.5-.2q-4.4-1-9.6-3.5l6.9-3.5-1.2 3.8 4.7 2.3zm22 10.8.3.2 3.9 1.8 2.3 1.2 2 1 3.1 1.5 1.6.8 4.5 2.2 1.4.7 1.5.7 4 1.9 1.1.6 3.4 1.6 6.3 3 3.2 1.7.8.3 1.5.8-1.6-.4-.9-.2q-5.5-1.2-8.8-3l-1.2-.5-3.2-1.7-1-.5-4.6-2.2-.2-.1-1.4-.5-1.4-.6-1.3-.6-4.3-2.2-1.7-1-1-.8-.3-.2-1.9-1.3-2.2-1.5-3.7-2.5zM70 117.7l2.8 1.3-2.7 3.3-2.7-1.3zm5.8 2.9-1.4 4-1.2-.6zm-13.8-7-1.5 4zm12.6 10.8 1.4-4 7.2 3.5-2.3 3.5zm11.3.9 3.5 1.7 2.1 1-2 1.3v-1.4l-.4-.2.3-.7-.3.7q-1 0-2.9 2.3l-2.5-1.2zm14.8 6.3.9 1.3 1.2.6-9.1 24.2-.6 1-1.8-1 .5-10.7.3-.7v-.1zm-57.1 23.8-31-15.1 4.2 1.4.5.2 5.5 1.8 1.3.5 2.2.7 1.3.5q2.4.8 5.2 2.3l.9.5 1.5.9 3.9 2.5 4.7 3.7zm50.1 2.3 9.1-24.2.6.3-2.4 6.3-2.7 7-.3 1zm13.9-21.8 4.8 2.3 3 1.4-2.6 6.5-2.5 6.2-2.3 5.7-.7 1.8-11.1 1.6 1.8-4.7q.8-1.9 2.6-5l1.1-1.8 1.6-3.2zm8.5-3.6v-2.6l.8 3zm-25.3 29.8.5-4.4 1.8 1-.3.5zm1.8-13v.5h.3zm-.2-1v.2l.1-.1zm23.8-46.2-.7 1.2-1.2-.6.5-1.3zm-1.4-.7-.5 1.3-.9-.4.6-1.3zm-5.6-1.1-2-1-1.5-.7.6-1.4 6 3-.7 1.2zm-7.4-5.4 3.3 1.7-.9 1.3-3-1.5z"/><path fill="#e0aa3a" d="m61.2 89 .6-.2-.2.4q-2 4.9-1.9 5.8v1.1l.7.1q1.9 0 4.9-5.3l2-4.2 5.3-1.9 1.2-.4-1.4 2.6-.6-.2.8-2-.7 2 .5.2-.5.8-.4-.1.3-1-.7-.2.8.3-.4.9.4.1-.2.3-.8 1 .6-1.4-.7-.4.8.4-.7 1.5-2.7 3.1-1.1 1.4q-4 4.4-5.4 6.4l-1.8 2.6-5.9-2.9 2.9-4.5q1.6-2.5 3.4-6zm5 12.8 5.9-7.5 4.2-5.7 2-3.3 3.7 1.8-5.1 9.5-6.1 11.5-5.9-2.9zl-.2.2-2 2.8 1 .4zm20.6-11.6.3-.6 3.7 1.8-.3.2-4.1 7.2-1 1.9q-1.7 3-5.5 8.5l-1.7 2.5L75 110l1.7-2.8 4.9-8.4zl-4.8 13 .7.4-.7-.4-.8-.5.8.5zM22.1 79.6l2-6.3 4.7 7.3-2.4 5.8-5.3-2.7zm11.5 4.2 1.9 1 1.7 1-1.9 4.9-1.5-.7-2-1zm8.9 4.9 5.6 3-1.8 4.4-5.4-2.6zm-7-3.9L33.8 90zm1.1 21.2 3.3 1.6-4.5 7.9-.6 1.4q-6.2 13-8.2 18.1l-2.9 6.9-2.4-1.2-1.8-.8q8.3-14.7 12.9-24.2 2.7-5.8 4.2-9.7m7.5 8.3.4-.6 1-1.3-.6 1.4-.2.7zl.6.2.2-.7-.4-.1.4.1.5.2-.5-.2.5-1.4 1.1-1.6 4.8 2.3-6.2 7.2-1 1.2-3.4 4.2 4-11.2.3.2-.3-.2-4 11.2q-9.4 11.5-13.6 17.9l-2-1.1q9-15.6 15-23l.3-.4zm-16.5-12.7 2.2 1 .7.5-3 7.3-.5 1 2.8-8.7-2.8 8.7-.6 1.3L24 119q-3 7.8-5.2 15l-1.3 4.9-3.7-1.9 1-3.5q2-6.4 3.1-9t3.3-6.9l3.1-6.2 1.9-5.3zm-4.3 17 .6.3zm-4.7-21.2 3.1 1.5-2.9 10.2-2.9 12-3.6 15.3-4.7-2.3 1.2-3.8zM34.2 147l2.3-4.6q3.4-6.2 11.2-17.5l1-1.2 6.8-8.5 5 2.3-.2.7-6.8 7.9-4.2 4.6q-8.7 9.7-13.3 17.2l-.3-.2zm26.1-28.8.2-.7.2.2zm-6.4 15.4q-9.5 12.7-11.7 17.3l-2.3-1.2q2.2-4.7 5.6-10.1l9.7-12.6 3.8-5.2 2.3-3.8 3 1.4-6.4 8.8-.5.6-2 2.8 3.6-9.8-3.7 9.9zm-9.7 18.3q1.7-4 6.2-10.9l3.2-4.7.7-1 1-1.2 4.2-5 2.7-2.7q2.5-2.3 5.2-5.5l2.7 1.3-7.1 8.5-.6.7q-4.9 6.1-13.5 22.8l-1.6-.8zM82 103.2l-2.1 6zm-.8 10 5.1-6.7 2.9-4 6.3-8.9 3.5 1.7-2.3 3.1-3.1 6.2-5.6 11.2-.3.5zm-27.9 43.2q4.5-7 14-23.4l2.1-3.6 3.8-5.6 1.2.6-9.8 27v.1q-3.4 4.8-4.4 8.2l-4-2 8.6-13.4q4.5-7.2 5.5-9.9l.2-1-.2-.5-.5 1.3q-1.5 3.7-4.9 8.6l-10.2 14.3zm2.4-22-.6-.3zm8.8 17.1 9.8-27 6.3 3-4.9 6.8-1.4 2.3-4.9 8.3q-2.8 3.6-4.9 6.6m27.7-32.9-1.9-1 .6-1q3.5-5.5 5.9-10.4l.7-1.5zl4.2 2 3.6-12.9.1-.5q1.5-5 3.2-8.1l.8-1.3-3-1.5-.2.7-3.4 7.8zm-1 9.4 3.7-2.2q-2.8 7.6-9.1 16.3l-2.7 3.7-2.2 2.9 5-13.3 2.1-3.2q.8-1.7 1.1-3zm8 .8v.6l1.3 2.2-8.6 14.6v.1l-.3.6-.5 10.8-.5 4.5q-3.7 5.9-5.4 9.8l-3.3-1.6q4.8-10 7.7-16.8l1.3-3.5-.2-1.2-7.4 9q-4.9 6.1-6.6 9.9l-.3-.2-1.5-.7.3-.6q1.3-3.2 2.1-4.2.6-.7 4.7-7.5 4.3-7.2 7.1-10.8v-.1q4.8-6.1 10-14.9m6.6-3.7-3.4-1.6 2.1-3.8 4.2-7.8 2.8-5.7 2-4 .8.4 1.2.6-.1.1q-1.9 2.7-2.2 4.4v.1l-.9 3.3-1-.6zl.9.3 2.8-6.6 2.1-5.7.7-2.2-1-.5zm-19.8 10.2-5 13.3q-7.6 10.2-10 16.3l-6.3-3.1q2.8-7 12.3-23l.6-.8 6-9.3L86 130q-2.3 2.9-6.1 9.2l-2.7 4.7-1.9 3.3 1 .5 5.8-7.4 2.1-2.6zm-31.2.1-.6-.2zm35.4 9.9 1.3 1.8v-.1zm25.7-15.7-.1.4-5.3-2.6 2.8-7.8 1.8-4.7 1.7-4.2 2.5-5.7 4.6 2.1v.2l-4.9 13.6-2.4 6.7zm-5.2-19.5.5.3zm-19.7 47.5-.8-.5zM78 168.3l.6-1.4 3.2-5.8q0 1-.4 2.5-.5 2.2-1.9 5.5zm13.4 6.5q2.1-3.2 2.9-8.2l2-5.2 11-1.6-7.3 18.3-.2.3-.1.5zm-37.7-38.6-6.3 17.2zm53.7-37-1 2.4-2.9 6.9q.5-.1 3.1-4l1.3-1.7 1.5-2.6 2.5 1.1-1.9 3.4-.4.5-2.9 5.6-1.6 3q-2.7 4.6-4.6 4.6-1.4 0-1.4-1.8 0-3.6 2.1-8.4l3.8-8 .8-1.7zm4.1 11.3 3-7.9z"/><path fill="#e4b450" d="m67.3 86.8-2 4.1q-3 5.3-4.9 5.3l-.7-.1V95q0-.9 2-5.8l.1-.5zm5.1.3 1.3-2.6 1.6-.6 3 1.5-1.9 3.3-4.2 5.7-5.9 7.5 4.6-12.6.8-1.1.2-.3zm.1 1-.6-.2zm-1.6 1-4.6 12.7-.2.2-2 2.8-4.2-2.1 1.8-2.6q1.4-2 5.4-6.4l1.2-1.4zm0 18.8L77 96.6l5.1-9.5 5 2.4-.2.7.2-.7h.2l-.4.7-5.3 8.6-4.9 8.4L75 110zM52.7 92.1l7.6-2.7q-1.7 3.3-3.4 5.9L54 99.8l-3.4-1.6-4.3-2.1 1.8-4.3 2.3 1.2zl-2.1 6zm27.3 17q3.8-5.3 5.5-8.4l1-2 4.1-7.1.3-.2 4.7 2.2-6.3 8.9-2.9 4-5.1 6.7-2.4-1.2zl-1.7 2.5.6.3zM28.8 80.6l.6.9 4.2 2.3-1.8 5.2-5.4-2.6zm8.4 5.2 5.3 2.9-1.6 4.8-5.6-2.8zm-6.7 17.4 6.1 2.9q-1.5 3.9-4.2 9.7-4.6 9.5-12.8 24.2l-1.4-.7-.8-.4 1.3-5q2.2-7.2 5.2-14.9l2.5-6.2.6-1.3.4-1zM23.8 142l2.7-6.9q2-5 8.3-18.1l.6-1.5 4.5-7.8 6.2 3-.7 1.8-.9 1.3-.4.5h-.3.3l-3.7 4.9-.3.4q-6 7.4-15 23zm21.7-29.5.7-1.9.4.3zm-17.9-10.8-1.5 4.4-1.9 5.3-3 6.3q-2.3 4.2-3.4 6.8t-3 9l-1.1 3.5-1.4-.6 3.6-15.3 3-12 2.8-10.2zm-3 17.7 2.4-8zl.5.3zl-6.3 19.9zl-.6-.3zm31-4-6.9 8.5-.9 1.2q-7.8 11.3-11.2 17.5l-2.3 4.6-1-.5 2.4-6.7 5.1-14.2 3.4-4.1 1-1.2 6.2-7.2zM40.8 126l-5.1 14.1.7.3-.7-.3-1-.3 1 .3-2.4 6.7-6-3q4.1-6.3 13.5-17.8M36 147.9q4.6-7.5 13.3-17.2l4.2-4.6 6.8-8 .4-.4.6.3-2.3 3.8 1.3-3.6-1.3 3.5-3.8 5.3-9.7 12.6q-3.4 5.3-5.6 10.2zM53.4 135l.6.2zm1.1-1.1-.5 1.3-.4 1 .4-1zl-.6-.3zl.8-2.2 2.1-2.9.5-.6 6.4-8.8 3.1 1.5q-2.7 3.2-5.2 5.5l-2.7 2.7-4.3 5zl.8-2.2-1.4 1.9q-9.5 12.7-11.7 17.3l2 1q1.7-4 6.2-10.9l3.2-4.7.7-1-.3-.1.3.1 1-1.2zm33.2-17.6.3-.5 5.6-11.2 3.1-6.2 2.3-3.1 1.9.9-3.3 8.5-.7 1.5q-2.5 4.8-5.9 10.5l-.5 1zm-17.7 6 3.3 1.5-3.9 5.6-2 3.6q-9.6 16.4-14.1 23.4l-4.5-2.2q8.6-16.7 13.5-22.8l.5-.7zM55 157l10-14.2q3.4-5 4.9-8.6l.5-1.3.2.5-.2 1q-1 2.7-5.5 9.8l-8.6 13.6zm5.5 2.6q1-3.4 4.3-8.2l.1-.1q2-3 5-6.6l4.8-8.3 1.4-2.3 4.9-6.8 2.8 1.4-5.9 9.3-.6.8q-9.5 16-12.3 23l-3.4-1.7zm34.8-33.9.5-.3 3.8 1.9v1.4q-5.4 8.8-10.1 14.9-2.7 3.7-7.1 10.9-4 6.8-4.7 7.6-.8 1-2.1 4.1l-.3.6-.8-.3 6.8-17.9 2.2-2.9 2.7-3.7q6.3-8.7 9.1-16.3m7.4-2.3-5.9-2.9 3.6-12.9.1-.5q1.5-5 3.2-8.1l.8-1.3 1.5.7-.9 1.8-3.8 7.9q-2 4.8-2 8.4 0 1.8 1.3 1.8 1.9 0 4.6-4.6l1.6-3 3-5.5.3-.6 1.8-3.4 1.8.9-1.9 4-2.8 5.7-4.2 7.8zm-13.2 5.8q-.2 1.2-1.1 2.8l-2.1 3.3-1.8 2.3-2 2.6-6 7.4-.9-.5 1.8-3.3 2.8-4.7q3.8-6.3 6.1-9.2l1.1.6 1-.7zm-23.9 22.3-.7-.1zm5.6 13.4q2.5-6 10-16.2l-6.7 17.9zm16.3-33.1.7-1.9zl.8.3zl-1-.6zl-1.3 3.6zm23.3-4.4-3.9-1.9 2.8-6.6 2.1-5.7.7-2.2.9-3.2v-.1q.3-1.7 2.2-4.4l.1-.1 4 1.9-2.6 5.7-1.7 4.2-1.8 4.7zM77 167.7q1.7-3.8 6.6-10L91 149l.2 1.2-1.3 3.5q-2.9 6.8-7.7 16.8l-2.7-1.3 2-5.5q.3-1.5.3-2.5l-3.2 5.8-.6 1.4zm8.5 4.1q1.7-3.8 5.4-9.7h.1l1.1-.2-4.2 11.1zm-20.8-20.4-3.1 8.8zM88 173.1l4-11.1 4.2-.5-2 5.2q-.8 5-2.9 8.2zm21.5-73-1.5 2.7-1.2 1.8q-2.7 3.8-3.2 3.9l3-7 1-2.3zm-8-3.9-.2.7-3.4 7.8 3.3-8.6z"/><path fill="#960" d="m28.8 47.4-3.5 1.4-1.4.9-.8.5v-5.9z"/><path fill="#b0811c" d="m93.1 158.7.6-1zm10.3-24.9 4.2 2-4.2 10.9-1.7 3.2-1.1 1.8q-1.8 3.1-2.6 5l-1.8 4.7-4.2.5-1.1.3 1.8-3 .4-.5.2.1.1.1v-.1h-.2l.5-1.2 4.3-9.5.3-1 2.8-7zm-10.2 25-1.2 3.1zm2.2 1.3"/><path fill="#9e7318" d="m107.3 159.8.7-1.8q.8 4 .2 11l-.4 5.1q0 1.1.2 1.8l3.4-1.7.2-4.7q-1.5-8.4-1.5-11.8l.2-5.4 2.5-6.2.4-.2.4 2.7 1.5 8.7 2.3 14 2.3-1.2q-.5-2.2-.7-7.3l-.4-7.4q-1.1-4.2-1.5-8.8l-.2-2.5 4.9-2.3.3 1.8q1.8 14.8 2.5 17.7l1.2 5.8 4.3-2.1q-.3-1.8-.5-6.8l-.8-9.1q-.4-2.4-1.9-8.3l-.3-1v-.3l4.2-2 .1.9q2.8 19.9 2.8 23.8v1l4.1-2-1-26.3v-.3l5-2.4v.4q2.1 14.8 2.8 25.3l5-2.4.9-12.7v-.3l-.9-11.3-.1-2.6 3.3-1.6.6 9.2.7 17 5.3-2.5q-.2-4.1-.2-12.5 0-5.7-.6-14l5.7-2.7.8 13 .8 13q.6 5.4 1.2 7.3l-68 34.4h-.2v-6.7l.8-4 .2-.4zm71-44.9 1.4 2.9.8 6.6.5 9-.2 6.8-2.4 1.2q-.5-1.6-2.1-25.2v-.4zm5.7 11.6 1.3 2.8 8.9 4.3-11.7 5.7.7-4.3q.8-5 .8-7.2zm-8.3-17-3.8 1.8-3.5-20.7 1.8-.8 2.9 7.7 1.7.8zm-12 5.5-5.7 2.5-1-9.4-1.5-11 5-2.5q1 9.4 2.4 15.1.4 1.6.8 5.3m-11.2 5.1-3.3 1.5.7-21.7 1.4-.7zm-5.9 2.7-1.9.9.1-2.7q0-1.7-1.9-17.7l2.8-1.3zm-16.7 7.6-4.7 2.2v-.5q-.7-11.4-.7-16.2l.3-5.5-.4-2.1.5-2 2.7 1.3q.4 9 2.3 22.8m-9 4.1-3.6 1.7V133l-.4-5.4 2.4-6.7zm52-17 1.1 7.6 2.2 17.3-4.5 2.3-.8-11.2q-1.5-8.1-2.3-14zM145 130.7l1.7-.8v1q0 7.8-.9 10.2l-.2-.2-.6-9.2z"/><path fill="none" stroke="#000" stroke-linecap="round" stroke-linejoin="round" stroke-opacity=".3" stroke-width="1" d="M50.5 32.6v-2.1l-8.7 4.4-12.7 6.4-6 3v5.9M100 38.6l49.7 24.3 22.5 10.9m-150 5.8 2-6.3m-5.5 24-9.9 32.9-6.8 3.5-1.4.7v6.8l7.4 3.7 1.6.7 3.3 56.5m5.8-104.8L20 93m160.6 14.2v1.2l-4.4 2.2 2 4.2 1.5 2.9 4.3 8.7 1.3 2.8 8.9 4.3m-8.9 12-3.3 56m-7.2-103.2 5.8 2.8v6M167.9 84l2.2 5.8 2.9 7.7 1.7.8"/><path fill="none" stroke="#45271b" stroke-linecap="round" stroke-linejoin="round" stroke-width="__RESOLUTION__" d="m59.5 32.2 1.9.8m10.5 43.2 3.3 1.5 13.7 6.8 5 2.4m.2 0 1.5.8 7.3 3.5 13.3 6.5 12.4 6.1M67.4 73.9l4.5 2.3M25.3 48.8l-1.4.9m-1.8 29.9-7.3 3.7v7.3l5.1 2.5m1.2-9.3 1-4.2M8.8 130.2 7.6 134m2 11.6 26.7 13L62 171.4m132.1-37.7.7.3v6.8l-9.6 4.9-18.1 9.2m-68 34.4 68-34.4m-68.3 34.4h.2m-.1-1-.1 1v8.9m.1-10.8v1" vector-effect="non-scaling-stroke"/><path fill="none" stroke="#573522" stroke-linecap="round" stroke-linejoin="round" stroke-width="__RESOLUTION__" d="M93.8 50q-3.4 1.3-8.5 2.1l-.4.1-4.6.6M93.8 50q3.9-1.6 5.4-3.7l.7-1.4v-6.3" vector-effect="non-scaling-stroke"/><path fill="none" stroke="#855634" stroke-linecap="round" stroke-linejoin="round" stroke-width="__RESOLUTION__" d="M172.1 73.8v6m-43.5 24 16-8" vector-effect="non-scaling-stroke"/><path fill="none" stroke="#414d1e" stroke-linecap="round" stroke-linejoin="round" stroke-width="__RESOLUTION__" d="m76.8 53.2 3-.3h.5m-3.5.3h-.5l-2.7.3" vector-effect="non-scaling-stroke"/><path fill="none" stroke="#010101" stroke-linecap="round" stroke-linejoin="round" stroke-opacity=".3" stroke-width="__RESOLUTION__" d="m86.8 58.4-1.9 1m1.8-1 .5-.2M71.9 86.8l.6.2m-1.3-.5.8.3m-.4.9.4.1.6.3m-1.7-.7.8.3M44 114.2h.2l.6.3.3.2m0-.9-.5-.1m.4.1.5.2M24 118.9l-.6-.4m1.2.8.5.3m-.5-.3-.6-.4m11.7 20.9.7.3m-1.7-.6 1 .3m18.4-4.6-.6-.2m1.1-1.1-.6-.3m.4 1.7-.3-.1m28.1-32 .7.4m-1.5-.9.8.5m-27.5 30.7.6.2.6.3m8.9 17 .7.1m22-19.7.8.3m-1.8-.8 1 .5m-33 3.5.5.2m56.5-25-.5-.3m32.8-37.4-1.6 1m1.2-1.8-2.5 1.4m-8-6.9.3-.3m-.2.3-2.8 2.6m-20.8 2.1 2.3-1.6m-.7 2.2 1-.8m20.4-2 1.5-1.3m-22.4 42.8 1 .5" vector-effect="non-scaling-stroke"/><path fill="none" stroke="#000" stroke-linecap="round" stroke-linejoin="round" stroke-opacity=".3" stroke-width="__RESOLUTION__" d="m74 80.8 1.2-3m-1.2 3-1.5 4-.7 2-.2.9-.7 1.5-4.6 12.6-1.2 3.4-3.1 8.4-1.5 4-.2.6-1.3 3.5-3.7 10-.7 2.2-.6 1.3-.4 1-6.3 17.2m39.8-63.9.7-1.8 1.1-3.2m-35.7 6.3-.5 1.3-2.1 6-3 8.5-1.5 4-.7 1.8-.5 1.4-.2.7-4 11.2-5.1 14.1-2.4 6.7m53.9-57-.2.7-4.8 13-2.1 6-1 2.8-3.1 8.4-1.4 4-9.8 27v.1l-3.3 8.8m40.2-65.7 1.3-3.3M31 98.6l2.7-8.6 1.7-5.2m-5.7 17.9 1.3-4.1m-1.3 4-2.8 8.8-2.5 7.8-6.3 20M89.3 127l3.1-8.4 5.3-13.8 3.3-8.6.5-1.6m1.3 38.9 3.1-8.3 5.5-14.7 3-7.9.5-1.3 1.3-3.5m-30.1 37.6-5 13.3-6.8 17.9M89 127.7l-.9 2.2-.7 1.9-1.3 3.6m2.9-7.7.3-.7m4.4 30.7 9.1-24.2m-9.5 25.3.4-1.2m-.5 1.2-1.2 3.1-4.2 11.2" vector-effect="non-scaling-stroke"/><path fill="none" stroke="#d68d21" stroke-linecap="round" stroke-linejoin="round" stroke-opacity=".5" stroke-width="__RESOLUTION__" d="m61.9 88.8-.3.4q-2 4.9-1.9 5.8v1.1l.7.1q1.9 0 4.9-5.3l2-4.2zM72.4 87l1.3-2.6 1.6-.6 3 1.5-1.9 3.3-4.2 5.7-5.9 7.5-.2.2-2 2.8-4.2-2.1 1.8-2.6q1.4-2 5.4-6.4l1.2-1.4 2.6-3.1.8-1.1.2-.3zm-1.5 21L77 96.6l5.1-9.5 5 2.4h.2l-.4.7-5.3 8.6-4.9 8.4L75 110zM52.7 92.1l7.6-2.7q-1.7 3.3-3.4 5.9L54 99.8l-3.4-1.6-4.3-2.1 1.8-4.3 2.3 1.2h0zm27.3 17q3.8-5.3 5.5-8.4l1-2 4.1-7.1.3-.2 4.7 2.2-6.3 8.9-2.9 4-5.1 6.7-2.4-1.2-.7-.3zM28.8 80.6l.6.9 4.2 2.3-1.8 5.2-5.4-2.6zm8.4 5.2 5.3 2.9-1.6 4.8-5.6-2.8zM23.7 142l2.8-6.9q2-5 8.3-18.1l.6-1.5 4.5-7.8m4.2 6.7.4-.6 1-1.3 1-1.6m-18.9-9.2-1.5 4.4-1.9 5.3-3 6.3q-2.3 4.2-3.4 6.8t-3 9l-1.1 3.5m3.7 1.9 1.3-5q2.2-7.2 5.2-14.9l2.5-6.2.6-1.3.4-1 3.1-7.3m-18.2 33.2 3.6-15.3 3-12 2.8-10.2M34.2 147l2.3-4.6q3.4-6.2 11.2-17.5l1-1.2 6.8-8.5m-4.2-2.1-6.2 7.2-1 1.2-3.4 4.2q-9.4 11.5-13.6 17.9m-2-1.1q9-15.6 15-23l.3-.4 3.7-4.8M36 147.9q4.6-7.5 13.3-17.2l4.2-4.6 6.8-8 .4-.4m-6.8 15.9q-9.5 12.7-11.7 17.3m2 1q1.7-4 6.2-10.9l3.2-4.7.7-1 1-1.2 4.2-5 2.7-2.7q2.5-2.3 5.2-5.5m-30.8-15q-1.5 4-4.2 9.8-4.6 9.5-12.8 24.2m68.2-23.6.3-.5 5.6-11.2 3.1-6.2 2.3-3.1 1.9.9.3.1-.2.7-3.4 7.8-.7 1.4q-2.5 4.8-5.9 10.5l-.5 1zm-23.5 3.1-6.4 8.8-.5.6-2 2.8-1.5 2m16.2-11.3-7.1 8.5-.6.6q-4.9 6.1-13.5 22.8m4.5 2.2q4.5-7 14-23.4l2.1-3.6 3.8-5.6m-14.3-2 2.3-3.8m-2.3 3.8-3.8 5.2-9.7 12.6q-3.4 5.3-5.6 10.2m15 7.3L65 142.8q3.4-5 4.9-8.6l.5-1.3.2.5-.2 1q-1 2.7-5.5 9.8l-8.6 13.6m4 1.9q1-3.4 4.3-8.2l.1-.1q2-3 5-6.6l4.8-8.3 1.4-2.3 4.9-6.8 2.8 1.4-5.9 9.3-.6.8q-9.5 16-12.3 23l-3.4-1.7zm34.8-33.9.5-.3 3.8 1.9v1.4q-5.4 8.8-10.1 14.9h0q-2.7 3.7-7.1 10.9-4 6.8-4.7 7.6-.8 1-2.1 4.1l-.3.6-.8-.3-3.2-1.7q2.4-6 10-16.2l2.2-2.9 2.7-3.7q6.3-8.7 9.1-16.3m7.4-2.3-5.9-2.9 3.6-12.9.1-.5q1.5-5 3.2-8.1l.8-1.3 1.5.7-.9 1.8-3.8 7.9h0q-2 4.8-2 8.4 0 1.8 1.3 1.8 1.9 0 4.6-4.6l1.6-3 3-5.5.3-.6 1.8-3.4 1.8.9-1.9 4-2.8 5.7-4.2 7.8zm-13.2 5.8q-.2 1.2-1.1 2.8l-2.1 3.3-1.8 2.3-2 2.6-6 7.4-.9-.5 1.8-3.3 2.8-4.7q3.8-6.3 6.1-9.2l1.1.6 1-.7zm3.8 29.5.6-1L98 148l.3-1 2.8-7 2.3-6.3 4.2 2-4.2 10.9-1.7 3.2-1.1 1.8q-1.8 3.1-2.6 5l-1.8 4.7-4.2.5-1.1.3 1.8-3zl.2.1.1.1v-.1h-.2zm17.6-31.1-3.9-2 2.8-6.6 2.1-5.7.7-2.2.9-3.2v-.1q.3-1.7 2.2-4.4l.1-.1 4 1.9-2.6 5.7-1.7 4.2-1.8 4.7zM76.9 168q1.7-3.8 6.6-10l7.5-9 .2 1.2-1.3 3.5q-2.9 6.8-7.7 16.8l-2.7-1.3 2-5.5q.3-1.5.3-2.5l-3.2 5.8-.6 1.4zm8.5 4.1q1.7-3.8 5.4-9.7h.1m-5.5 9.8 2.4 1.1 3.5 1.7q2.1-3.2 2.9-8.2l2-5.2m11.1-62.2-1 2.4-2.9 6.9q.5-.1 3.1-4l1.3-1.7 1.5-2.6h0zM95.6 160" vector-effect="non-scaling-stroke"/><path fill="none" stroke="#4d311e" stroke-linecap="round" stroke-linejoin="round" stroke-width="__RESOLUTION__" d="m115.4 139.6.7.4 1.1.5" vector-effect="non-scaling-stroke"/><path fill="none" stroke="#000" stroke-linecap="round" stroke-linejoin="round" stroke-opacity=".3" stroke-width="__RESOLUTION__" d="m99.8 178.5.1-.4m-1 4.4.8-4" vector-effect="non-scaling-stroke"/><path fill="#b67c1d" d="M99.4 128.4v-1l-3.9-1.9-1.5 1-8.4-2.8q-5-1.7-9.6-4.2l-6.2-4q-9.6-4.5-15-7.6-10.2-5.8-26.1-12.9-1-.5-4-1.3l-7.2-1.8-2.7-1.3v-4.5l8 4.6.9.5q7.5 4.3 14.7 7.3l16.7 6q8.7 3.3 13.5 7t12.3 7q4.2 1.7 9.2 3.3l8.6 2.4 17.4 8.4v1.1q-4.5-2.6-6.8-3.7-2-1-2.4-1l-.1.4q0 1.1 2.8 2.5l.3.2 6.2 2.9v2.7l-6.2-3.1q-4.6-2.5-6.2-4-.8-.7-4.4-2.2M14.8 84.6v-1.3l25.8 12.5-2.5.3q-1.4 0-17-8.2z"/><path fill="#c5861f" d="m94 126.5-2.6 1.5-71.5-35-2.4-1.1 7.1 1.8q3 .8 4.1 1.3 15.8 7.1 26.1 12.9 5.4 3 15 7.5l6.2 4q4.6 2.6 9.6 4.3zM14.8 86v-1.5l6.2 3.3Q36.7 96 38.1 96l2.5-.2 26 12.6 12.6 6.2 19.5 9.5-8.6-2.5q-5-1.5-9.2-3.2-7.6-3.2-12.3-7t-13.5-7l-16.7-6q-7.2-3-14.7-7.3l-1-.5zm101.3 47.6v1.3l-6.2-3-.4-.1q-2.7-1.4-2.7-2.5l.1-.3q.4 0 2.3.9 2.4 1.1 6.9 3.7m0 4v2.3l-.7-.4-13.8-6.7-2.2-3.5v-1q3.5 1.5 4.3 2.3 1.6 1.4 6.2 3.9z"/><path fill="#a6781a" d="m14.8 83.3 1.8-1 1.7 1.2 6.5 4 7 2.9q5.5 2.3 9.8 5.3l-1 .1zm32.6 13.3L96 120.3l-4-1-4.2-1.7-.7-.3q-3.2-1.2-7.9-2.6l-12.6-6.2zm68.7 35.8v.3l-17.4-8.4 4.8 1 .6.2q1.8.8 4.9 2.7l3.7 2.2z"/><path fill="#8f6816" d="m16.6 82.4 5.5-2.8-1 4.2 26.2 12.8 19.3 12-26-12.7 1-.2q-4.3-3-9.8-5.3l-7-2.9-6.5-4zm79.4 38 20 9.8.1-.3v2.5l-3.4-2-3.7-2.2-4.9-2.7-.5-.2-4.9-1-19.5-9.5q4.7 1.4 7.8 2.5l.8.3 4.3 1.8z"/><path fill="none" stroke="#45271b" stroke-linecap="round" stroke-linejoin="round" stroke-width="__RESOLUTION__" d="M91.4 128 19.9 93" vector-effect="non-scaling-stroke"/><path fill="none" stroke="#000" stroke-linecap="round" stroke-linejoin="round" stroke-opacity=".3" stroke-width="1" d="m19.9 93-2.4-1-2.7-1.3v-7.3l1.8-1 5.5-2.7"/><path fill="none" stroke="#4d311e" stroke-linecap="round" stroke-linejoin="round" stroke-width="__RESOLUTION__" d="m115.4 139.6-13.8-6.7" vector-effect="non-scaling-stroke"/><path fill="#8f6816" d="m193.1 133-1.7 1.2-6.6 4.2-7 3q-5.5 2.3-9.7 5.3l.9.2-26 13 19.3-12.2 26.3-13.1-1.1-4.2zm-94.2 48.1v-.6l.6-1.4 14.2-7.1 3.9-1.1 4.3-1.7.7-.4 7.9-2.7L111 176l-4.9 1.2-.5.1-4.9 2.8-.9.5z"/><path fill="#a6781a" d="m169 146.9-1-.2q4.3-3 9.8-5.3l7-3 6.5-4.2 1.8-1.1 1.8.8zm-6.7.8L143 160l-12.5 6.2-7.9 2.8-.7.3-4.3 1.7-3.9 1.1zM99 182v-.8l1-.6.8-.5 4.8-2.8.6-.1 4.9-1.2z"/><path fill="#c5861f" d="m143 160 26-13.1 2.5.2q1.4 0 17.1-8.4l6.3-3.4v1.5l-8 4.6-1 .6q-7.5 4.4-14.7 7.5l-16.6 6.3q-8.8 3.3-13.5 7.2-4.8 3.8-12.3 7-4.3 1.9-9.3 3.5L111 176l19.5-9.8zm49.1-17.3-2.3 1.1-71.6 36v-.1l-19.3 9.7v-2.3l.8-.5h.1q4.6-2.6 6.1-4 .8-.8 4.2-2.2h-.2l.4-.2q9-3.3 13.8-4.8 4.9-1.8 9.6-4.5l6.1-4 15-7.7q10.3-6 26.1-13.3 1.1-.5 4.2-1.4zM99 184.5v-1.7l1-.6.5-.2q1.9-1 2.3-1l.1.3q0 1.1-2.7 2.6l-.2.1h-.2z"/><path fill="#b67c1d" d="m169 146.9 25.8-13v1.4l-6.2 3.4q-15.7 8.4-17.1 8.4zm25.8-10.1v4.5l-2.7 1.3-7 1.9q-3.1.9-4.2 1.4-15.8 7.3-26 13.3l-15.1 7.7-6.1 4q-4.7 2.7-9.6 4.5-4.8 1.5-13.8 4.8l-.5.2h.3q-3.3 1.3-4.2 2.2-1.5 1.4-6 4h-.2l-.8.5v-2.7l.8-.3.1-.1.3-.1q2.8-1.5 2.8-2.6l-.2-.3q-.4 0-2.3 1l-.6.3-.9.4v-.7l12.1-6 8.5-2.5q5-1.6 9.3-3.4 7.5-3.3 12.3-7.1 4.7-3.8 13.5-7.2l16.6-6.3q7.3-3.1 14.8-7.5l.9-.6z"/><path fill="none" stroke="#45271b" stroke-linecap="round" stroke-linejoin="round" stroke-width="__RESOLUTION__" d="m189.8 143.8-71.6 36" vector-effect="non-scaling-stroke"/><path fill="none" stroke="#4d311e" stroke-linecap="round" stroke-linejoin="round" stroke-width="__RESOLUTION__" d="m118.2 179.7-19.3 9.7" vector-effect="non-scaling-stroke"/><path fill="#000" fill-opacity=".3" d="m180.1 140.4 1.5.8-4.1 1.7-3-.7-5.6-5.1-3.1 11.5-9.6 5.4-.7-.6v-.1h.3l.4-.2 4.7-3 .7-.5 1.5-1 .3-.2.7-.7.7-1.2.4-1.6 2.6-8.8.3-1.3 6 6 2.3 1.1.2.1h.6l.2-.1.5-.3zm-4.5-31.9 1 .8-5.7 20.8-1-1v-.2h-.1l3.3-11.6z"/><path fill="#9c6100" d="m155.5 153.3-.2-.4v-.2l.6-2 .7.3q1.3 0 2.2-3l.3-1 .4-1.3q.8-2.5 1.4-2.5.3 0 .4 1.5v2l-.4 3.4-4.7 3-.4.3zm20.1-46.5h.2l.1.2v.5l-.3 1-2.5 8.8.8-9.5 1.1-.7q.3-.3.6-.3m-4.7 23.3 5.8 6h-.1l-3-1.5-.1-.2-.2-.2-2.7-2-.3-.2-.8-.7.1-.4.3-1.8zm8.8 9.2.5.6.1.3-.2.2-.1.1-2.1 1q-2.3-3-2.5-3.6h.3q1.3 0 4 1.4m-2.3 2.6h-.2l-.5.1h-.1l-.2-.1-7.7-8 .4-1 .8.7 1.2 1.1 1.2 1 1.1 1.3.7.6 1.8 2zm-9.6-5.8-2.5 8.8v-.3l.2-2.2q.4-5.5 2.3-6.3m-4.3 12.3-.3.3-1.5.9.2-3.2.3-2.2.9-4.5 1.3-4.4 2-5.9.4-2.4 1.4-7.5.3-1.6q.7-3.5.7-6l-.1-.9 3.6-2.4-.5 6.3-1.3 6.8-1.2 3.7-.1.4-2.3 6.3-1.1 3q-1.9 5.3-2.4 8.3v.1l-.2 2zm4.1-36.2-.1.7-.4 2.8-1.2 9.6-.7 2.7q-1.3 4.6-2 6l-.8 1.4-1 1.6q-1.2 2.2-1.5 4.2-.5 3.2-1.2 5l-1.1 1.8-.4-1-.1-.1 4.3-15.2.7-1 .8-1.4.5-1.2.7-3 .4-3.6v-.5l2.1-7.3.2-.5.3-.5.1-.2z"/><path fill="#b77300" d="m155.3 153-2.2-1.1 11.8-40.2 2.1 1-.3.5-.2.5-2.1 7.3-3 10.8-4.4 15.1-1 3.8-.7 2z"/><path fill="#ce8100" d="m164.9 111.7 8.8-5.8 1.9.9-.6.3-1.1.7-1.3.8-3.6 2.4-.9.5-.5.5-.1.2-.4.3-.1.2z"/><path fill="#850" d="m176.7 136.2 3 3.1q-2.7-1.4-4-1.4h-.2q.1.5 2.4 3.7l-.6.3-1.4-2.3-1.8-2-.7-.7-1.2-1.2-1-1-1.3-1.1-.8-.7-.3 1-.4-.3-.3 1.2-.3 1.3q-2 .8-2.5 6.3l-.1 2.2v.3l-.4 1.6-.7 1.2-.7.7.1-2.9.1-2 .1-.1q.5-3 2.4-8.3l1.1-3 2.3-6.3.1-.4 1.2-3.7 1.3-6.8.5-6.3 1.3-.8-.8 9.5-3.3 11.6.1.2-.3 1.8-.1.3.8.8.3.2 2.7 2 .2.2.1.2q.8.6 3 1.5zm-15.1 13.5-.7.5.4-3.4v-2.1q0-1.4-.4-1.4-.6 0-1.4 2.5l-.4 1.4-.3 1q-1 2.8-2.2 2.8l-.7-.2 1.1-3.8.1.2.4.9 1-1.7q.8-2 1.3-5.1.3-2 1.5-4.2l1-1.6.8-1.4q.7-1.4 2-6l.7-2.7 1.2-9.6.4-2.8.1-.7.1-.2.5-.5.9-.5.1.9q0 2.5-.7 6l-.3 1.5-1.4 7.6-.4 2.4-2 5.8-1.3 4.5-1 4.6-.2 2.1zm2.8-28.6v.5l-.4 3.5-.7 3.2-.6 1-.7 1.5-.7 1z"/><path fill="#623e00" d="m176.4 141.9-2.3-1-6-6.1.3-1.2.3.3z"/><path fill="#000" fill-opacity=".3" d="m132.7 131.1.6.2 22.1 22.7-7.3 3.8-3.2-2.2 1.7.8.6.3h.9l.2-.1 2.8-1.5 1.3-.7.7-.3.5-.6-.2-.6-7.8-8.3-5.2-5.4zm8.7 21.1-4.3 11.2-6.7 3.8-1.2-1.8.9.4.1.1h.5l.7-.3 2-1.2 1.4-.7.7-.4.4-.6 4.7-11.3z"/><path fill="#623e00" d="m144.9 155.6-.5-.2-3-3.2-.8-.8.4-1 1 1 4.6 5zm-8.6-9-12.8-13.7 2.3 1.1q-.1.4.1.7l12.1 12.6z"/><path fill="#b77300" d="m129.2 165.4-.8-.4 8-18.4 1.5.7-.4.6-.6 1.3-2.2 5.3-4.6 11.2v.1z"/><path fill="#ce8100" d="m123.6 133 6.3-3.1 2 .9h-.4l-.4.1-.7.4-2.7 1.3-1.5.8-.2.2q-.2.1-.2.4z"/><path fill="#9c6100" d="m132 130.8.7.3 7.7 8.1-3-1.9-1.7-1.2q-3.3-2.4-5.3-4.8l.7-.4.4-.1zm13.7 13.8 7.8 8.3.2.6-.5.6-.7.3-.6-.9-1.3-1.1-.8-.9-.3-.2-2.8-2.1q-2.5-2.3-2.5-4 0-.6 1.3-.6zm5.5 10.5-2.8 1.5h-.2l-1.7-2-1-1.1q-5-6-6.8-7.8l-1.9-1.8-.2-.2-2.7-2.5q-2-2.7-4-4.5l-2.8-2.3-1-.8.2-.2 1.5-.7 2.9 2 5.5 5.5 1 1 1.8 1.5q2.3 2.2 3.8 4.9l5.2 4.6.7.6.5.3zm-14.2-5.9.7 2.4-.2 2.1-1 2.5q-.8 1.4-1.5 3.2-.8 2.3-1.5 5l-2 1.2q.4-2 1.8-4.3l.8-1.4q.9-2 .9-3.7l-.2-1.7zm-2.2 14.6q.3-1.6 1.5-4.4l.5-1 .8-2q1.3-3.2 1.9-5.7l.3-1.7.8 1 1.3 1.4-.9-1-.4 1-4.7 11.3-.4.6zm3.6-23.5q.9 0 2.2.8l.6.4q.8.5.8 1t-.4.5l-.7.1-.3-.1-1-.6q-1.7-1.1-1.8-2z"/><path fill="#850" d="m140.4 139.2 5.2 5.4h-.2q-1.3 0-1.3.6 0 1.7 2.5 4l2.8 2.1.3.2.8.9 1.3 1.1.5 1-1.2.6-2-2-.5-.3-.7-.7-5.2-4.5q-1.5-2.7-3.8-4.9l-1.8-1.4-1-1.1-5.5-5.4-2.8-2.2 2.6-1.3q2 2.4 5.3 4.8l1.8 1.2zm7.7 17.5h-.9l-.6-.3-4.7-5-1.3-1.3-.7-1.1-.4 1.7q-.7 2.5-1.9 5.7l-.8 2-.5 1q-1.2 2.8-1.5 4.3l-1.4.8q.7-2.8 1.5-5.1l1.4-3.2 1-2.5.3-2.1-.7-2.3v-.1l.6-1.3.4-.5v-.1h.1l-12-12.7q-.3-.2-.2-.6t.3-.4l.9.8 2.8 2.3q2 1.8 4 4.5l2.6 2.5.3.2 1.9 1.8q1.8 1.8 6.8 7.8l1 1.1zm-9.7-16.4h-.6q.1 1 1.8 2.1l1 .6.3.1h.7q.3-.2.3-.6 0-.5-.7-1l-.6-.4q-1.3-.8-2.2-.8m-3.7 14.3.2 1.7q0 1.7-1 3.8l-.7 1.3q-1.3 2.3-1.8 4.3l-.7.3h-.5l-.1-.1v-.2z"/><path fill="#8f6816" d="m179.1 100.6 1.3.6v.8l-8.5 4.2-.2-.1 6.4-4.8zM139 118.9l38.4-19.2.5.1-7.3 5.2q-2.9 1.9-6 3.3l-4 1.7q-1.4.5-10.2 5.2-4.1 2.1-11.4 3.7"/><path fill="#a6781a" d="m179.1 100.6-1 .7-6.4 4.8.3.1-2 1-53.4 26.7-.8-4 .1.4 23-11.5q7.3-1.5 11.4-3.6 8.8-4.7 10.2-5.2l4-1.7q3.1-1.4 6-3.3l7.3-5.2z"/><path fill="#b67c1d" d="m172 106.2 8.4-4.2v3.4l-2.3.6-4.6.5zm7.4 3.2-25.7 12.8L164 116l5.9-3.2q2.9-1.4 8-3h.3zm-38.1 19-24.4 12.3-.1-1 2.2-1.7q1.2-1.4 2-1.9 3.6-2.5 20.3-7.7m-24.6 8.2v-2.7l53.5-26.7q-.7 2.8-1.8 4.5-1 1.3-2.2 1.8-2.3 1.1-7.8 2.9-4.5 1.4-6.7 2.8l-5.8 3.7q-4.2 2.5-9.7 4.1-3.6 1-8.9 3.9-2.6.9-10.6 5.7"/><path fill="#c5861f" d="M180.5 105.4v3.4l-1.2.6-1 .3h-.2q-5.2 1.6-8.1 3l-5.9 3.2-10.5 6.3-12.4 6.2q-16.7 5.2-20.3 7.7-.8.5-2 1.8l-2.2 1.8-.1-3.1q8-4.8 10.6-5.7 5.3-2.9 8.9-3.9 5.5-1.6 9.7-4.1l5.8-3.7q2.2-1.4 6.7-2.8 5.5-1.8 7.8-2.9 1.3-.5 2.2-1.8 1.1-1.7 1.8-4.5l1.8-1 1.6.3 4.6-.5z"/><path fill="#ce8100" d="m139.8 92.5 9.2-4.7 1.7.8h-.3l-.4.1-1 .5-1.7.9-3.6 1.8-.6.3-.4.2q-.6.3-1 .8h-.1l-.1.1zm-11.4 10 3.7-1.8 1.5.8h-.4l-.3.2-1.5.8-1 .6q-.3 0-.3.2z"/><path fill="#9c6100" d="M150.7 88.6h.2v.5l-13.5 32.6-.7 1-1 .7-.2.1.2-.5.4-1 1.5-5.5 1.2-3.5q1.1-2.7 2.8-5l2.1-4.8.7-1.7 1.2-3.3.3-1.2q.2-1 .5-1.4l1.4-2.2q.8-1.6 1.3-4.2l.9-.5.4-.1zm-9.2 4.7q.5-.5 1.1-.8l.4-.2q-1 2.6-2.3 7.5l-.8 2.5-.4 1.4q-1.7 6-3.3 9.9l-.2.4-1 2-1.3 2-1.2 2.8-2.7 4.2-1.3 2.1-.2.2-.5.1h-.4l-.2-.2.1-.3 7.3-17.6v-.2l.3-.3v-.1l.6-1.7-1.2-1-.3-.3-1.5-1.5-.7-.9-.5-.7 1.5-.8.9 1.2.3.3.4.5.1.3 1.2 1.3.3.4.3-.7.2-.7.1.1 4.2-10.2q.2-.5.6-.9m2.2-1.4 3.6-1.8-1 2.4q-1.2 2.5-1.4 4.6v.4l-1.5 4.4-.1.4q-1.6 4-2.5 4.6v-.2l1-4 .6-3 .2-1zm-11.4 33.3q1.3-3.2 1.8-3.3v.8l-.3 1.7z"/><path fill="#000" fill-opacity=".3" d="m151 89 1.3.7-14.4 33.8-10.3 5.2v-.1l-1.7-2.2 1.4.6.2.3h.4l.4-.1.3-.2 3.7-1.8 1.5-.8 1.7-.9h.1l.2-.1 1-.7.6-1zm-18 19-3.8-4-.2-1 4.2 4.3z"/><path fill="#b77300" d="m126 126.4-.9-.4 7.8-18 .2-.6 1.7 1.6-.1.2-7.2 17.5-.2.3zm9.4-23.5 4.4-10.5 1.8.9-.6.9-4.2 10.2z"/><path fill="#623e00" d="m129 103-.6-.4 1.7.8v.2l4.8 5-.2.5-1.6-1.7z"/><path fill="#850" d="M133.6 101.5h.3l1.3 1.5 1.3 1.3-.2.7-.3.7-.3-.5-1.2-1.2-.1-.2-.4-.5-.3-.4-.9-1.2.3-.1zm9.5-9.3.6-.3-1.1 6.8-.2 1-.7 3-1 4 .2.2q.8-.6 2.4-4.6l.1-.4 1.4-4.4.1-.4q.2-2.1 1.4-4.6l1-2.4 1.8-.9q-.5 2.6-1.2 4.2l-1.5 2.2q-.3.4-.6 1.4l-.2 1.2-1.2 3.3-.7 1.7-2.1 4.8q-1.7 2.3-2.8 5l-1.2 3.5-1.5 5.5-.4 1-.2.5-1.7.9.3-1.7v-.8q-.5.1-1.8 3.3l-3.7 1.8 1.3-2.1 2.7-4.2 1.2-2.7 1.3-2.1 1-2 .2-.4q1.6-4 3.3-10l.4-1.2.8-2.6q1.3-4.9 2.3-7.5m-8.2 16.5-4.8-5.1v-.3q0-.2.3-.2l1-.6.5.7.7.9 1.5 1.5.3.3 1.2 1z"/><path fill="#9c6100" d="M154.9 85h.2q.5 0 .7.2l3.3 3.5 1.8 1.9 1.4-3.4.1-.1.2-.2.1-.1.5-.3.7-.3q-1.6 3.3-1.6 5.2 0 .7.8 1.4l.4.5.3.3 1.4 1.5 7.8 8.1.1.3v.2l-.4-.4-1.3-1.1-1.5-1.2-4.8-3.7-.7-.5-2.7-3.3-1.3-2.1-1.6-1.8-.5-.4-1.5-1.4-3.6-2.1 1.2-.6zm12.8-.7.2-.1.1.1v.1l-2.9 6.8q.1-3.5.5-5.9l1.8-.9zm-17.5 2.9 1.3-.7 2.3 2.6 1.7 1.5 1.4 1.5 2.1 2.5 1.2 1.3 4.5 4.3 3.7 2.9 1.6 1.3h.2l.8.7-2.2 1-2-1.6-.7-.6-.6-.5-.3-.2-4.3-3.1v1.2l-2.6-2.7-1.1-3.2q-.8-1.8-2-3.3l-.2-.4-.5-.6q-1.2-1.4-4.2-4"/><path fill="#623e00" d="m159.1 88.7 1-2.7 2.3 1-.1.2-1.4 3.4zm-12-.7-.7-.8 2.5 1.1.2.4 9.3 9.9 2.5 2.7 4.8 5-2.4-1.2z"/><path fill="#ce8100" d="m160 86 5.6-2.8 2.2 1-.2.1-.2.1-1.8.9-1.7.9-.7.3-.4.3h-.2l-.2.3zm-13.7 1.2 6.5-3.2 2 1-.6.1-1.1.6-1.5.8h-.1l-1.2.7-1 .5q-.4.1-.5.5v.1z"/><path fill="#000" fill-opacity=".3" d="m168 84.4 1 .6-.1.1-3.7 10-1.4-1.5.3-.2.3-.3.7-1.9zm5.1 19 1.2.4-1.2 1.4-.7-.4-4.3 2.8-5-.7-15.5-17-.5-2 16.2 17.2 2.4 1.2.4.4.7.3h.3l.5-.2 1.3-.6 2.2-1.1 1.5-.8.5-.5v-.3"/><path fill="#850" d="m153.2 85.7 3.7 2.1 1.4 1.4.5.4 1.6 1.8 1.3 2 2.7 3.4.7.5 4.8 3.7 1.5 1.2 1.3 1.1.4.4-.5.5-1.5.9-.8-.6-.2-.2-1.6-1.2-3.7-3-4.5-4.2-1.2-1.3L157 92l-1.4-1.5-1.7-1.5-2.3-2.6h.1zm-4.3 2.6q.1-.4.5-.5l1-.5q3 2.5 4.2 3.9l.5.6.3.4q1.1 1.5 1.9 3.3l1.1 3.2-9.3-9.9zm14.9 5.3-.3-.3-.4-.5q-.7-.7-.7-1.4 0-1.9 1.4-5.2l1.8-.9q-.4 2.4-.5 5.9l-.7 1.9-.3.3zm-2.9 7.7.1-1.2 4.3 3.1.3.2.6.5.7.5 2 1.8-1.3.6-.5.2h-.3q-.5-.1-.7-.3l-.3-.4z"/><path fill="#a6781a" d="M144.8 90.9v-3.3zl13.4-7.6v-2.5 2.5l4.2-2.3 9.2-5.2h.1l.4-.3v-1.7l-13.8 7-13.5 6.8-16.2 8.2v3.7q.5 0 15.2-8zm0 4.7 2.8-2.1q4.3-3.2 10.7-6.7v2.1-2.2q4-2.2 8.8-4.5l5-2.4v2l-4.2 2.2-9.7 4.9zl-.2.2z"/><path fill="#8f6816" d="m144.8 90.9 13.4-7.6v3.5q-6.2 3.5-10.6 6.7l-2.8 2.1zl-1 .6q-14.7 8-15.2 8v4.3l16-8 .2-.2zm13.4-4.2v-3.4l4.2-2.3 9.2-5.2.3.1-.2-.2.4-.2v4.3l-5 2.4q-4.8 2.3-8.8 4.5"/><path fill="none" stroke="#000" stroke-linecap="round" stroke-linejoin="round" stroke-opacity=".3" stroke-width="__RESOLUTION__" d="M144.8 87.6v8h0m13.4-12.2v-2.6L94.8 49.3m50.1 38.3L38.8 36m119.5 50.8v-3.5m0 3.5v2.1" vector-effect="non-scaling-stroke"/><path fill="none" stroke="#855634" stroke-linecap="round" stroke-linejoin="round" stroke-width="__RESOLUTION__" d="m158.3 88.9 9.6-4.9m4.2-2.2v-2m-27.3 15.9 13.4-6.8m-13.6 6.8h.2" vector-effect="non-scaling-stroke"/><path fill="#252525" d="m162.3 67.6-.2-5.7 1.2-.6-.3 6zm-4.4 2.2-.2-5.7 1.3-.6-.4 5.8zm8.4-4.1-.2-5.8 1.2-.6-.3 6zm5-2.6-.7.4-.2-5.7 1.2-.6q-.2 2.9-.2 5.9"/><path fill="#3f3f3f" d="m162.3 67.6.7-.3q-.1 5.6.3 11l-1.2.6q.3-5.6.2-11.3m-4.4 2.2.7-.5q0 5.8.3 11.3l-1.2.5zm8.3-4.1.7-.5q-.2 5.8.3 11.1l-1.2.7zm4.3-2.2.8-.4q-.2 5.6.2 11l-1.2.7z"/><path fill="none" stroke="#000" stroke-linecap="round" stroke-linejoin="round" stroke-opacity=".3" stroke-width="__RESOLUTION__" d="m163 67.3.3-6-1.2.6.2 5.7q.1 5.7-.2 11.3l1.2-.6q-.4-5.4-.3-11m-4.4 2 .3-5.8-1.2.6.3 5.7-.2 11.3 1.1-.5q-.3-5.5-.3-11.2m8.4-4.2.3-5.9-1.2.6.2 5.8-.2 11.3 1.2-.7q-.5-5.3-.3-11m4.3-2.2.3-6-1.2.6.2 5.8-.2 11.3 1.2-.6q-.4-5.5-.2-11.1" vector-effect="non-scaling-stroke"/><path fill="#3f3f3f" d="M157 66.7v-2.8l1.4-.6 2.2-1.1 2.8-1.4 1.2-.6 1.1-.5 5-2.6 1.5-.7.3-.1V59z"/><path fill="#535353" d="m157 63.9-1.2-.5 15-7.6 1.4.6-1.4.7-5.1 2.6-1.1.5-1.2.6-2.8 1.4-2.2 1z"/><path fill="none" stroke="#000" stroke-linecap="round" stroke-linejoin="round" stroke-opacity=".3" stroke-width="__RESOLUTION__" d="m157 64 1.4-.6m13.8-7h.3m0 2.7-15.4 7.7m7.5-6.5 1.1-.5m5-2.6 1.5-.7m-11.6 5.8 2.8-1.4" vector-effect="non-scaling-stroke"/><path fill="#252525" d="m152.1 72.7-.7.4-.3-5.8 1.3-.6q-.3 3-.3 6m-4.7 2.3-.2-5.7 1.2-.6-.3 6zm-4.3 2.2-.2-5.7 1.2-.7-.3 6zm13.3-6.7-.7.3-.1-5.6 1.1-.6q-.2 2.9-.2 5.9"/><path fill="#3f3f3f" d="m151.4 73 .7-.3q-.2 5.6.3 11l-1.3.6zm-4 1.9.7-.3q-.1 5.6.3 11l-1.2.6q.3-5.6.2-11.3m-4.3 2.2.7-.5q-.2 5.8.3 11.3l-1.2.5zm13.3-6.7q-.1 5.7.3 11l-1.1.7.1-11.4z"/><path fill="none" stroke="#000" stroke-linecap="round" stroke-linejoin="round" stroke-opacity=".3" stroke-width="__RESOLUTION__" d="M152.1 72.7q0-3 .3-6l-1.3.6.3 5.8-.3 11.3 1.3-.7q-.5-5.4-.3-11m-4 2 .3-6-1.2.6.2 5.7q.1 5.7-.2 11.3l1.2-.5q-.4-5.5-.3-11.1m-4.3 2 .3-5.9-1.2.7.2 5.7-.2 11.3 1.2-.5q-.5-5.5-.3-11.2m11.9-6-.1 11.4 1.1-.6q-.4-5.4-.2-11.1l.2-6-1.1.7z" vector-effect="non-scaling-stroke"/><path fill="#3f3f3f" d="m157.3 63.8.3-.1v2.6l-15.5 7.8v-2.8l1.4-.6 2.2-1.1 2.8-1.3 1.1-.7 1.2-.5 5-2.6z"/><path fill="#535353" d="m142.1 71.3-1.2-.5 15-7.6 1.4.5-1.5.8-5 2.6-1.2.5-1.2.7-2.7 1.3-2.2 1z"/><path fill="none" stroke="#000" stroke-linecap="round" stroke-linejoin="round" stroke-opacity=".3" stroke-width="__RESOLUTION__" d="m157.3 63.8.3-.1m0 2.6-15.5 7.8m0-2.7 1.4-.6m13.8-7-1.5.8m-5 2.6-1.2.5m-1.2.7-2.7 1.3" vector-effect="non-scaling-stroke"/><path fill="#252525" d="m142 77.9-.7.3-.2-5.6 1.2-.6zm-5.1 2.5-.2-5.7 1.1-.6-.2 6zm-4 1.9-.2-5.7 1.2-.6-.3 6zm-3.7 1.8-.7.4-.2-5.7 1.2-.7z"/><path fill="#3f3f3f" d="m141.3 78.3.8-.4q-.2 5.7.2 11l-1.2.7zm-3.6 1.8q-.1 5.7.3 11l-1.2.7.2-11.3zm-4.7 2.3.7-.3q-.1 5.6.3 11l-1.2.6q.3-5.6.1-11.3m-4.3 2.2.8-.4q-.2 5.6.2 11.1l-1.2.6z"/><path fill="none" stroke="#000" stroke-linecap="round" stroke-linejoin="round" stroke-opacity=".3" stroke-width="__RESOLUTION__" d="m142 77.9.3-6-1.2.7.2 5.7-.2 11.3 1.2-.6q-.4-5.4-.2-11.1m-5.1 2.5-.2-5.7 1.1-.6-.2 6q-.1 5.7.3 11l-1.2.7zm-3.3 1.6.3-6-1.2.6.1 5.7q.2 5.7-.1 11.3l1.2-.5q-.4-5.5-.3-11.1m-4.3 2 .2-5.8-1.2.6.2 5.7-.2 11.3 1.2-.6q-.3-5.5-.2-11.1" vector-effect="non-scaling-stroke"/><path fill="#3f3f3f" d="M143.2 71v2.8l-15.4 7.7v-2.8l1.3-.6 2.2-1.1 2.8-1.3 1.2-.7 1.1-.5 5-2.6 1.5-.7z"/><path fill="#535353" d="m127.8 78.7-1.2-.5 14.8-7.6 1.5.6-1.5.7-5 2.5-1.2.6-1.1.7-2.8 1.3-2.2 1z"/><path fill="none" stroke="#000" stroke-linecap="round" stroke-linejoin="round" stroke-opacity=".3" stroke-width="__RESOLUTION__" d="m143.2 73.8-15.4 7.7m0-2.7 1.3-.6m13.8-7h.3m-1.7.8 1.4-.7M131.3 77l2.8-1.3m1.2-.7 1.1-.5" vector-effect="non-scaling-stroke"/><path fill="#252525" d="m114 77.8-.2-6 1.1.6-.1 5.7zm12.7 6.2-.4-5.9 1.2.7-.2 5.7zm-4.3-2.1-.3-6 1.2.7-.2 5.7zm-4-2-.3-6 1.3.7q-.3 2.8-.3 5.7z"/><path fill="#3f3f3f" d="M114.8 78.1q-.1 5.7.1 11.4l-1.1-.7q.4-5.4.3-11zm12.6 6.4.2 11.3-1.2-.6q.4-5.5.3-11.2zm-4.3-2.2q-.1 5.7.2 11.3l-1.2-.6q.4-5.4.3-11.1zm-4.7-2.3.7.4q0 5.6.3 11.3L118 91q.5-5.4.3-11.1"/><path fill="none" stroke="#000" stroke-linecap="round" stroke-linejoin="round" stroke-opacity=".3" stroke-width="__RESOLUTION__" d="m114 77.8-.2-6 1.1.6-.1 5.7q-.1 5.7.1 11.4l-1.1-.7q.4-5.4.3-11m12.7 6.2-.4-5.9 1.2.7-.2 5.7.2 11.3-1.2-.6q.4-5.5.3-11.2m-4.3-2.1-.3-6 1.2.7-.2 5.7q-.1 5.7.2 11.3l-1.2-.6q.4-5.4.3-11.1m-3.3-1.6q0-2.9.3-5.7L118 74l.3 5.9q.1 5.7-.3 11.1l1.3.6q-.4-5.7-.3-11.3" vector-effect="non-scaling-stroke"/><path fill="#535353" d="m113.2 71 1.4-.5 15 7.6-1.2.5-1.4-.7-2.2-1-2.7-1.4-1.2-.7-1.2-.5-5-2.5z"/><path fill="#3f3f3f" d="M128.4 78.6v2.7l-15.5-7.7v-2.7l.3.1 1.4.8 5.1 2.5 1.1.5 1.3.7 2.7 1.3L127 78z"/><path fill="none" stroke="#000" stroke-linecap="round" stroke-linejoin="round" stroke-opacity=".3" stroke-width="__RESOLUTION__" d="m128.4 81.3-15.5-7.7m0-2.7.3.1 1.4.8m5.1 2.5 1.1.5m1.3.7 2.7 1.3M127 78l1.3.7" vector-effect="non-scaling-stroke"/><path fill="#fff" fill-opacity=".2" d="M100.1 0v7.8l-6.9 1.9-8.5 1.3-8.9.5L67 11l-8.6-1.3-7.7-2v1.5V0l7.7 2 8.5 1.2 8.9.4 8.8-.5 8.5-1.3z"/><path fill="#2e1c07" d="m95 4.3 3.8-1.8.5.3q-10.4 5.6-12.9 8l-.7.4-4.4 2.2v40.3l-2-.6V12.2l1.6-.8.1-.1.5.2q2 0 7.4-3.7zm-5.2 9v26.9l-3.4-.5 1 1.9-2.5 1V15.9l1.8-.8.5-.3h.1l.9-.5z"/><path fill="#40270b" d="M95 4.3Q92.4 6 89 7.8q-5.6 3.7-7.5 3.7l-.5-.2zm-8.6 6.5q2.5-2.4 12.8-8l1.5.9L91.9 8h-.1l-4.1 2z"/><path fill="#000" fill-opacity=".3" d="M79.4 12.3v40.8l-2.6.2-.2-.1.2-38.4z"/><path fill="#8c5b0b" d="M81.3 53.7v-19q1-3.7 1-4.7l.1-8.4-.3-3.7.1-.7 1.7-.8.1 3.6q0 5.7.9 12.3v9.6l-.9-2.8-1-3.2-.2.1-.2.8q-.5 1.6-.5 2.6 0 5.9.8 13.4z"/><path fill="#784f0a" d="M81.3 34.9V17.7l.9-.5v.7l.2 3.7-.1 8.4q0 1-1 4.7zm19.4-11.3v20.3l-1.2.5q-1-8.2-1-12.5l.9-3.5zm-3-14 1.1-.7-.2 1.8.2 8q0 4.5-.6 8.3l-.6 2.9V9.5m0 31.7.8 3.7-.4.2-.4-.5zM85 42.7v9l-2 1.1q-.8-7.5-.8-13.4 0-1 .5-2.6l.3-.8.1-.1 1 3.2.9 2.8zm-1-26.3.9-.4v16.4q-1-6.6-1-12.3z"/><path fill="#960" d="M81.3 17.7v-2.9q1.8-.4 3.5-1.9l.5-.4 2.4-2.3L91.8 8h.1q.4.4.8.4 2 0 8-3v.8q-3.4 1.9-8.6 4.3-4.5 2-6 2.9l-.6.6.4.9h.8l-1.8.8-.9.5-1.7.9z"/><path fill="#845900" d="M81.3 14.8v-1.4l4.4-2.2.7-.4 1.3-.6-2.5 2.3-.4.4q-1.7 1.5-3.5 1.9m19.4-11.1v1.8q-6 3-8 3-.4 0-.8-.4zm0 2.6v1.5l-1.7.9-.2.1-1.2.7-2.8 1.4-.4.2-4 2-.6.3-1.6.8-.9.5h-.1l-.5.3H86l-.4-.9.6-.6q1.5-.9 6-3 5.2-2.3 8.6-4.2"/><path fill="#98630c" d="M100.7 7.8v15.7l-1.3 4.8-1 3.5q0 4.3 1.1 12.5l-1.2.6-.7-3.7V29.8l.6-2.9q.6-3.8.6-8.2l-.2-8.1.2-1.8.3-.1z"/><path fill="#d3ac6b" d="M97.6 9.5V12l-1 3.4q-1.2 4.2-1.2 8.3v.5q0 4.2 1 19l-.8-.7v-.1l-.5-.3.2-.9-.9-5.3V20.7l.4-1.3q.3-1 .4-3.3l-.4-5.2z"/><path fill="#ca9c4f" d="M97.6 12.1v32.5l-.9-.9-.3-.4q-1-14.8-1-19v-.5q0-4.1 1.2-8.3zm-2.5 30-.7-.7v-5.8.4l.9 5.3zm-.7-21.5V11l.4-.2.4 5.2q0 2.4-.4 3.3z"/><path fill="#352100" d="m97.6 44.6.5.5-12.8 6.5-.4-.5v-8.4l2.5-1.1-1-1.9 3.4.5V13.4l.5-.3 4.1-2v30.3l.7.8.5.3.8.9.3.3zm-10.3.3v.1h.1z"/><path fill="none" stroke="#231b16" stroke-linecap="round" stroke-linejoin="round" stroke-width="__RESOLUTION__" d="m99.3 2.8-.5-.3L95 4.3l-14 7m-.2.1-1.6.8V53h0m20-50.3 1.4.9M84.9 15.9" vector-effect="non-scaling-stroke"/><path fill="none" stroke="#533e0d" stroke-linecap="round" stroke-linejoin="round" stroke-width="__RESOLUTION__" d="M81.3 53.8V13.4l4.4-2.2m15-7.5v42.1m-3-36.3 1.1-.7m.3-.1 1.6-.9m-3 1.7v.8m0 1.8v17.7m0 .6v8.7m.6 5.8 1.3-.6 1.1-.5M98 45v2.1m-.4-2.6.5.5.3-.2m-.8-.3-.9-.9m-.3-.4-.8-.7m0-.1-.5-.3-.7-.9m0-30.2-4 2-.6.3-1.6.8h0m-3.3 28.5v6.8m0 .3v1.9l-2 1.1-1.6.9m16.3-12.5v3.4M81.4 17.7l.9-.5 1.7-.8m.1-.1.9-.4v23m0-23.1 1.8-.8.5-.3h.1m7.1-3.6.4-.2 2.8-1.4M91.9 8l-4.1 2-1.3.7M85 41.8v-2.1m0 2.9v-.8m15.8-38.2L91.9 8" vector-effect="non-scaling-stroke"/><path fill="none" stroke="#95784a" stroke-linecap="round" stroke-linejoin="round" stroke-width="__RESOLUTION__" d="M94.4 41.4V11" vector-effect="non-scaling-stroke"/></g><g id="f"><path fill="#964950" d="m88.9 6 8.3-4.2L98 4l3.4 16.7.8 4-.5.1-2-5.3-4.5-7.2-6-5.6zM37.7 20.5 41 4l.3-.7 7.9 4-.4.7-4.8 4.5-4.6 7.3-1.9 5.3-.7-.1.8-4v-.5M96.2 31l-.3.4-9.2 18.5-2.5-1.2-.4-.2 2.5-6.4 1.1-5.1.3-1.9v-7l-.1-.8V27l.2-.2zm-58 8 3.1-8.4.9-.8 1.5 1.8L52.8 50l-10.5-5-4.5-2.2-1-.5zm.7 2.4 9 4.5L42 32.3z"/><path fill="#3073b4" d="m88.9 6 .3.7-.8-.5z"/><path fill="url(#b)" d="m-.3-110 6 5.5 4.6 7.2 1.9 5.3.1.5.6 2.8.7 5.6-.7 3.2-1.2 2.1-3.1-8.7-.7-.7-9.6-4.7-.2 1.9v8.4l-.2 1.8-1.2 5.1-2.4 6.5v.2l-1 .3-6.3 1-6.5.3-6.6-.3-4-.6-1.5-6.2-6-13.7-.1-1.4.1-.8-.2-2-.2-.4-1.2.6h-.1l-8.1 4.2-.8.7-3.1 8.5-1.2-1.8-.6-3.2 1.1-8.4v-.5l2-5.2 4.5-7.3 4.9-4.6.6-.5.5-.5.8-.5h-.1l8.5-4.3q9.7-3.2 20.3-.2h.3l2.9 1.2 5.8 3.1z" transform="translate(89.45 116.75)"/><path fill="#843842" d="m101.7 24.8.5-.1.1.3-.5.3zM41.3 3.3l.4-1.3 8.9 4.4h.1L50 7l-.6.5-.2-.1zM96.2 31l-8.3-4.2h-.2l.3-2 9.5 4.7zm-59.3-6 .7.1-.2.4-.6-.3z"/><path fill="#914800" d="m102.3 24.7-.9-4 5.4 3.2 4.3 3.9 2.7 4.2.9 4.4v5.3l-.5 3-13.7-1.7 1.8-1-1.1-3 1.2-2.2.6-3.1-.6-5.7-.7-2.7.6-.3zm3.9 34.6-4.5 2.7-6.8 2.8-.9.3v-4.4V65l-7 2-8.5 1.3-3.3.2V64h.3l3-.2 8.5-1.3 6.5-1.7.5-.2.5-.1.4-.1 6.8-2.9 4.5-2.6z"/><path fill="#804000" d="M114.7 41.7V46l-.8 4.4-2.5 4.2-4.1 4-1.1.6V55l.2-.2.9-.6 4.1-4 2.5-4.2.3-1.2z"/><path fill="#786131" d="M94 65v54.2q-2 5.9-19.6 8V71.8q-12 .5-22.7-4.8l.6.1 8.6 1.3 8.8.3 5.5-.2 3.3-.2L87 67z"/><path fill="#ad8b47" d="m74.4 127.2-4 .3-2.7.3-3.6-6.4-.3-.6v-.5l-.2-45.2q-12.4-2.2-19-9.2V65l7.1 1.9q10.6 5.3 22.7 4.8zm18.5 145.2v-8.8h.3v-.1l86.1-43.6-3.4 56-20.6 10.5-32.8 16.6-21.4 10.9-8.5 4.2.5-45.7zM44.7 60.8h-.1M69 306.6l-1.5-.7-1.1-.6-.1-3.7z"/><path fill="#d1bcbc" d="m63.8 120.9-.3-.6h.3z"/><path fill="url(#c)" d="m-26 3.6-2.2-4-5.6-5.5v-3.5l-.2-.1-3.5-1.3-2.6-1.6-4.7 2.6V-51q6.5 7 18.9 9.3l.3 45.2zm-3.7-32.3q-4.1.4-9-1.2v6.5q4.9 1.6 9 1.2z" transform="translate(89.45 116.75)"/><path fill="#c60" d="M44.6 65.1h-.2l-5.3-2.2v-4.4l1.8.8 3.5 1.4h.2v.1l.7.2 6 1.5 1 .3 8.6 1.2 8.8.4 5.5-.3v4.4l-5.5.3-8.9-.5-8.5-1.2-.5-.1zm61.8-10.3-.2.2-4.5 2.6-6.8 2.9-.5.1-.4.1-.5.1-6.5 1.8-8.5 1.3-3 .2L42.3 45l10.5 5 .6-.2zm-12.9 6 1-.2z"/><path fill="#e87400" d="m39 62.9-1.5-.6-5.2-3.1v-4.4l3.5 2.1 1.7 1 1.2.5.4.1z"/><path fill="#ff8409" d="m32.3 59.2-.5-.3-4.3-3.9-2.6-4.2-1-4.4V42l1 4.5 2 3.1.6 1 1.4 1.3 2.9 2.6v.1l.4.3z"/><path fill="#ec7600" d="M23.9 42v-5.2l.8-4.4 2.5-4.2 4.1-4 5.6-3.4.7.2-.9 4v.2l.6.3.2.1-1.2 8.4.7 3.2 1.1 1.7-1.2 3.4.9.5 4.5 2.2 33.2 19h-.3l-5.5.3-8.9-.4-8.5-1.2-1-.3-6-1.5-.6-.2h-.1l-.2-.1-3.5-1.5-1.8-.7-.4-.1-1.2-.5-1.7-1-3.5-2-.4-.3h-.1l-3-2.7-1.3-1.2-.6-1.1-2-3.1z"/><path fill="#8d865f" d="m36.9 20.8.8-.3v.3l-.1.2zM79.4 2l.4.1zm4.3 46.5.3.2h-.2zm9.3 215h.2zm-38.4 47.8h-.2v-3.6l3.3-2.2 8.5-4.4v.4l.1 3.8zm-50-75.1-4.6.7zM21 125.8l.2-.1zm-3-1.8 1.5-1-1.4 1.1zm68.6 100-.2-1.3.3.8z"/><path fill="#813f44" d="m95.8 31.4.3-.4 1.2-1.5.8.8 3.1 8.7 1.1 3-1.8 1-13.9 6.9zm4.5 10.1-3.1-9L91.3 46zM42.1 29.7l8-4.1h.1l1.3-.6.2.3.1 2v2.2l.1 5.7 1.4 6.9 2.5 6.4-.3.2-2.1 1-.6.3-9.2-18.5z"/><path fill="#8d073a" d="m87.7 26.8-.2.2v-.2zm-50.2-1.7v.5l-.2-.1z"/><path fill="#a85400" d="m84 48.7 2.6 1.2 13.9-7 13.7 1.9-.3 1.3-2.5 4.1-4.1 4-.9.6-53-5 2-1.1.3.1 1.5.4 2.2.3 4 .5 6.6.3 6.5-.3 6.2-1 1-.2z"/><path fill="#663233" d="m100.3 41.6-9 4.4 5.9-13.5zm-61.5-.2 3.2-9 5.8 13.5z"/><path fill="#aaa273" d="M93.2 263.5H93zm-37.4-215-.1.3-.2-.1zm4.8 99.3.9.4zm26.2 75.6.1.5-.2.1zm-.2-.7-2-3 2.2 2.9zm-2 8.8 3 1.7v.1z"/><path fill="#960" d="M93 263.6v-.1m-30.7-123"/><path fill="#c5861f" d="m93 263.5.1-2z"/><path fill="#be9b56" d="M92.9 263.5v8.9L4.4 231.8l-.7-11.9z"/><path fill="#eeda9f" d="m92.9 272.4-.4 45.7-2.1-1-2-1-15.3-7.5H73l-4.1-2-2.7-5v-.5l-8.5 4.3-7.9-.3.2.1-3.9-2-1.4-.6-4.1-2.2-1.9-.8-10.1-5.2-4.3-2.1-2.5-1.2-5.8-3 .9-.4 6.6-3.3-4.3-2.1-12.2-6-2.4-40.1v-.1l-.2-4.3zm-52.2-18.5h-.1"/><path fill="#000" fill-opacity=".3" d="m68.9 306.6-7.7 4.2-6.6.4 11.7-5.9 1.1.6z"/><path fill="#e8cd7d" d="m54.4 311.3-2.4-1.2-4.5-2.2-2.5-1.2-5-2.4-1.9-1-4.5-2.2-1.9-.8-5.4-2.7-1.4-.7-6.8-3.3-2.3-1.1v-4.3h.2l5.8 2.9 2.5 1.2 4.3 2.1 10.1 5.2 1.9.8 4.1 2.2 1.4.6 3.9 2 4.4 2.5z"/><path fill="#4a2427" d="m51.8 29.6 6 13.7 1.6 6.2-2.2-.3-1.5-.4v-.2L53.3 42 52 35z"/><path fill="#689fd7" d="m49.4 7.4-.5.6.3-.7z"/><path fill="#e1b859" d="M50.8 93.3v-6.5q4.9 1.7 9 1.3v6.5q-4.1.4-9-1.3"/><path fill="#8c865a" d="m15.2 133.8-.3.1zm-6.3-1"/><path fill="#dbcb9d" d="m86.7 222.6.4.7-.3.1z"/><path fill="#e4be67" d="m57.7 305.5-3.3 2.2-4.4-2.5-.2-.1z"/><path fill="none" stroke="#000" stroke-linecap="round" stroke-linejoin="round" stroke-opacity=".3" stroke-width="1" d="M101.4 20.7 97.9 4l-.7-2.2L88.9 6m12.5 14.7 5.4 3.2 4.3 3.9 2.7 4.2.9 4.4V46l-.8 4.4-2.5 4.2-4.1 4-1.1.6-4.5 2.8-6.8 2.8-.9.3m-49.4 0h-.2l-5.3-2.2-1.6-.6-5.2-3.1-.5-.3-4.3-3.9-2.6-4.2-1-4.4v-9.6l.8-4.4 2.5-4.2 4.1-4 5.6-3.4m.8-.3L41 4l.3-.7.4-1.3 8.9 4.4m0 0 8.6-4.2Q68.8-1 79.4 2m.4 0 2.9 1.2 5.7 3"/><path fill="none" stroke="#45271b" stroke-linecap="round" stroke-linejoin="round" stroke-width="__RESOLUTION__" d="m89.2 6.7 6 5.6 4.5 7.2 2 5.3v.4l.7 2.8.6 5.7-.6 3.1-1.2 2.2 1.1 3-1.8 1-13.9 6.9-2.5-1.2h-.3l-1.1.3-6.2 1-6.5.3-6.6-.2-4-.6-2.2-.3-1.5-.4-.2-.1-2.1 1-.6.3-10.5-5m60-20.3-.9-4m-64.5.1.8-.3v.3l-.1.2-.9 4v.2l.6.3.2.1-1.2 8.4.7 3.2 1.1 1.7-1.2 3.4.9.5M79.5 2l.4.1m8.6 4.3.5-.3m12.8 19.3.6-.3v-.3M50.7 6.5l-.1-.1m38.6.3-.8-.5" vector-effect="non-scaling-stroke"/><path fill="none" stroke="#000" stroke-linecap="round" stroke-linejoin="round" stroke-opacity=".3" stroke-width="__RESOLUTION__" d="M94 65v47.8m-49.4-8V65.1" vector-effect="non-scaling-stroke"/><path fill="none" stroke="#000" stroke-linecap="round" stroke-linejoin="round" stroke-width="__RESOLUTION__" d="m64.1 121.4-.3-.6-.3-.5" vector-effect="non-scaling-stroke"/><path fill="none" stroke="#4d311e" stroke-linecap="round" stroke-linejoin="round" stroke-width="__RESOLUTION__" d="m95.8 31.4.3-.4 1.2-1.5.8.8 3.1 8.7m-17.5 9.5.3.2m13.3-19.2-9.5-4.7m-72 267.7v-3.7m1.1-1 6.6-3.4M48.9 8l-5 4.5-4.5 7.3-1.9 5.3v.5m.6 13.3 3.1-8.4.9-.8 8-4.1h.1l1.3-.6.2.3M50 7l-.6.5-.5.6m6.9 40.6-.3.1" vector-effect="non-scaling-stroke"/><path fill="none" stroke="#45271b" stroke-linecap="round" stroke-linejoin="round" stroke-width="__RESOLUTION__" d="m114.2 44.8.5-3.1m-.5 3-.3 1.3-2.5 4.3-4.1 3.9-.9.6-.2.2-4.5 2.6-6.8 2.9-.5.1-.9.3-6.5 1.7-8.5 1.3-3 .2h-.3l-5.5.3-8.9-.4-8.5-1.2-1-.3M94 65l-7 2-8.5 1.3-3.3.2-5.5.3-8.9-.5-8.5-1.2-.5-.1-7.2-1.9m.7-4.1-.6-.2h-.1l-.2-.1-3.5-1.5m-14-9.6-2-3.1-1-4.5m8 12.6h-.1l-3-2.7m9.9 6.5-1.2-.5-1.7-1" vector-effect="non-scaling-stroke"/><path fill="none" stroke="#855634" stroke-linecap="round" stroke-linejoin="round" stroke-width="__RESOLUTION__" d="M94 60.7V65" vector-effect="non-scaling-stroke"/><path fill="none" stroke="#475e22" stroke-linecap="round" stroke-linejoin="round" stroke-width="__RESOLUTION__" d="m101.1 313.9 21.4-10.9m32.8-16.6 20.6-10.4M54.6 311.3h-.2m11.9-6-11.7 6" vector-effect="non-scaling-stroke"/><path fill="none" stroke="#688732" stroke-linecap="round" stroke-linejoin="round" stroke-width="__RESOLUTION__" d="m90.5 317-2-.9m-15.3-7.5H73m-18.6 2.7-2.4-1.2m-4.5-2.2-2.5-1.2m-5-2.4-1.9-1m-4.5-2.2-1.9-.8m-5.4-2.7-1.4-.7m-6.8-3.3-2.3-1.1m7.7-8.1-4.3-2.1m48.2 23.6-1.1-.6" vector-effect="non-scaling-stroke"/><path fill="none" stroke="#000" stroke-linecap="round" stroke-linejoin="round" stroke-opacity=".3" stroke-width="__RESOLUTION__" d="M59.9 88v6.5q-4.2.5-9.1-1.2" vector-effect="non-scaling-stroke"/><path fill="none" stroke="#d68d21" stroke-linecap="round" stroke-linejoin="round" stroke-opacity=".5" stroke-width="__RESOLUTION__" d="m24.3 292.3-2.5-1.2m22.9 11.4-4.1-2m-1.9-1-10.1-5M50 305.2l-3.9-2" vector-effect="non-scaling-stroke"/><path fill="#252525" d="m155.5 132.9-.3-6 1.2.6q-.2 2.8-.2 5.8zm-4.4-2.1-.2-6 1.1.6-.2 5.8zm9.1 4.5-.7-.3-.3-6 1.2.6zm4.3 2.2-.7-.5-.3-5.8 1.2.6z"/><path fill="#3f3f3f" d="m155.5 132.9.7.3q-.1 5.7.2 11.4l-1.2-.7q.4-5.3.3-11m-3.7-1.8.2 11.3-1.2-.7q.4-5.3.3-11zm7.5 3.8.8.3q-.1 5.7.2 11.3l-1.2-.6q.4-5.4.3-11m4.3 2 .7.5q0 5.7.2 11.3l-1.2-.5q.4-5.5.3-11.2"/><path fill="none" stroke="#000" stroke-linecap="round" stroke-linejoin="round" stroke-opacity=".3" stroke-width="__RESOLUTION__" d="M156.2 133.3q0-3 .2-5.8l-1.2-.6.3 6q.1 5.7-.3 11l1.2.7q-.3-5.7-.2-11.3m-5.1-2.6-.2-6 1.1.6-.2 5.8.2 11.3-1.2-.7q.4-5.3.3-11m8.3 4.2q.2 5.6-.2 11l1.2.6q-.3-5.6-.2-11.3l.2-5.7-1.2-.6zm4.3 2q.1 5.8-.3 11.3l1.2.5q-.2-5.6-.2-11.3l.2-5.7-1.2-.6z" vector-effect="non-scaling-stroke"/><path fill="#3f3f3f" d="m157.9 127.8 1.2.6 2.8 1.4 2.2 1 1.3.7v2.8l-15.5-7.8v-2.7l.3.2 1.5.7 5 2.5z"/><path fill="#535353" d="m159.1 128.5-1.2-.7-1.2-.5-5-2.6-1.4-.7 1.4-.6 14.9 7.6-1.2.5-1.3-.7-2.2-1z"/><path fill="none" stroke="#000" stroke-linecap="round" stroke-linejoin="round" stroke-opacity=".3" stroke-width="__RESOLUTION__" d="m157.9 127.8-1.2-.5m-5-2.6-1.4-.7-.4-.2m0 2.8 15.5 7.7m0-2.7-1.3-.7m-2.2-1-2.8-1.4" vector-effect="non-scaling-stroke"/></g><g id="e"><path fill="none" stroke="#fff" stroke-linecap="round" stroke-linejoin="round" stroke-opacity=".4" stroke-width="__RESOLUTION__" d="M75.4.1q7.4 4.7 7.4 10.8 0 5-5 9.1-2.9 2.3-7.1 4.2-12.1 5.6-29.3 5.6-17.1 0-29.2-5.6T.1 10.9q0-5 5.2-9.1" vector-effect="non-scaling-stroke"/><path fill="#68512d" d="m150.3 199.2 3.1 1.6-.8 2.9-2 6.3 5 4.3 6.7-5.7 1.8 3.5-5.4 8 .5 2 8.2 4.2v5l-6.8 4.8-1.9 1 .4-2 6.5-4.7v-1.3l-5.3 1.3-1.2.3-2.4-10.4 5.2-7.6-.5-.9-6.3 5.4-.3-.2-6.2-5.5 2.7-8.7-1-.3-4.6 7.7-.1.3h-3.2v-3.9l2.7 1.4 4.9-8.4zm-8 11.3h3.3l.2-.2 6.1 5.4 2.8 1.4-1 1.7L156 229l3 1.7.3.3-3.4 2.4-.9 5.4-12.7 6.2zm18.1 17.5-1.2-5.9z"/><path fill="#957440" d="m150.3 199.2-.3.4-7.7-3.8v-.6zm-4.7 11.3.2-.3zm13.5 20.3 1.2-.4-1 .7z"/><path fill="#372b17" d="m150 199.6-5 8.4-2.7-1.4v-10.8zm-4.2 10.6 4.5-7.7 1 .3-2.7 8.7 6.2 5.5v.1l-2.9-1.4zm9.3 7 6.3-5.4.5 1-5.2 7.5 2.4 10.4-3.2-1.6-2.2-10.3 1-1.7zm5.2 13.1 5.3-1.3v1.3l-6.5 4.7-.4 2-3.7 1.8 1-5.4 3.3-2.4zm2-21.8-6.7 5.7-5-4.4 2-6.2z"/><path fill="#7c6035" d="m154.8 217 .3.3z"/><path fill="none" stroke="#573522" stroke-linecap="round" stroke-linejoin="round" stroke-width="__RESOLUTION__" d="m152.6 203.7.8-2.9-3.2-1.6-7.8-4m0 15.3h3.2l.2-.3 4.5-7.7 1 .3m3.8 14.4 6.3-5.4m-2.3 19 1.2-.4 5.3-1.3m-5 7 6.8-4.8v-5l-8.2-4.2 1.3 5.9m-1.3-5.9-.5-2 5.5-8-2-3.5-9.6-4.9-2 6.3 5 4.3m-3.7 1.4 2.8 1.4.4.2m-.1 21.6 3.7-1.8m.4-6.3-3.2-1.7m-13.6 16 12.7-6.2" vector-effect="non-scaling-stroke"/></g><linearGradient id="a" x1="-819.2" x2="819.2" gradientTransform="matrix(0 -.02 .01 0 -10.3 10.2)" gradientUnits="userSpaceOnUse" spreadMethod="pad"><stop offset="0" stop-color="#8d6f3d" stop-opacity="1"/><stop offset="1" stop-color="#b79357" stop-opacity="1"/></linearGradient><linearGradient id="c" x1="-819.2" x2="819.2" gradientTransform="matrix(-.01 0 0 -.03 -35.3 -23.6)" gradientUnits="userSpaceOnUse" spreadMethod="pad"><stop offset="0" stop-color="#e1b859" stop-opacity="1"/><stop offset="1" stop-color="#eeda9f" stop-opacity="1"/></linearGradient><path id="n" fill="#ad864a" d="M2.3-6.6Q3.8-5.1 3.8-3v6q0 2-1.5 3.5Q.9 8.1-1.2 8.1h-2.7V-8h2.7q2 0 3.5 1.4" transform="translate(3.85 8.05)"/><path id="g" fill="#963" d="M2.3-6.6Q3.8-5.1 3.8-3v6q0 2-1.5 3.5Q.9 8.1-1.2 8.1h-2.7V-8h2.7q2 0 3.5 1.4" transform="translate(3.85 8.05)"/><radialGradient id="b" cx="0" cy="0" r="819.2" gradientTransform="matrix(.05 0 0 .05 -10.05 -82.1)" gradientUnits="userSpaceOnUse" spreadMethod="pad"><stop offset=".5" stop-color="#663233"/><stop offset="1" stop-color="#a65b62"/></radialGradient><clipPath id="d"><path d="M1 1h202v336H1z"/></clipPath></defs><g clip-path="url(#d)"><g transform="translate(78.35 281.2)"><use xlink:href="#e" width="167.3" height="245.1" transform="translate(-42.9 -253.95)"/><use xlink:href="#f" width="179.3" height="318.1" transform="translate(-70.95 -280.2)"/><use xlink:href="#g" width="7.7" height="16.1" transform="matrix(.8289 -.4055 -.0041 .542 22.65 28.15)"/><use xlink:href="#g" width="7.7" height="16.1" transform="matrix(.8289 -.4055 -.0041 .542 22.7 12.75)"/><use xlink:href="#g" width="7.7" height="16.1" transform="matrix(.8289 -.4055 -.0041 .542 23 -1.7)"/><use xlink:href="#g" width="7.7" height="16.1" transform="matrix(.8289 -.4055 -.0041 .542 23.15 -16.8)"/><use xlink:href="#g" width="7.7" height="16.1" transform="matrix(.2945 -.1441 -.0028 .3703 22.75 7.25)"/><use xlink:href="#g" width="7.7" height="16.1" transform="matrix(.2945 -.1441 -.0028 .3703 23.3 -7.55)"/><use xlink:href="#g" width="7.7" height="16.1" transform="matrix(.2945 -.1441 -.0028 .3703 22.9 21.7)"/><use xlink:href="#g" width="7.7" height="16.1" transform="matrix(-.8361 .412 -.0325 .5609 105.5 -13.3)"/><use xlink:href="#g" width="7.7" height="16.1" transform="matrix(-.8361 .412 -.0325 .5609 106.45 -29.25)"/><use xlink:href="#g" width="7.7" height="16.1" transform="matrix(-.8361 .412 -.0325 .5609 107.15 -44.05)"/><use xlink:href="#g" width="7.7" height="16.1" transform="matrix(-.8361 .412 -.0325 .5609 108.15 -59.45)"/><use xlink:href="#g" width="7.7" height="16.1" transform="matrix(-.297 .1463 -.0222 .3833 106.8 -35)"/><use xlink:href="#g" width="7.7" height="16.1" transform="matrix(-.297 .1463 -.0222 .3833 107.6 -49.95)"/><use xlink:href="#g" width="7.7" height="16.1" transform="matrix(-.297 .1463 -.0222 .3833 105.65 -19.8)"/><use xlink:href="#h" width="194.8" height="202.6" transform="translate(-76.85 -205.9)"/><use xlink:href="#i" width="61.6" height="63.6" transform="translate(-62.15 -175.75)"/><use xlink:href="#j" width="17.2" height="17.5" transform="matrix(-.8488 -.1051 -.0334 .9015 -10.05 -173.6)"/><use xlink:href="#j" width="17.2" height="17.5" transform="matrix(-.855 .0031 .0808 .8981 -35.55 -159.95)"/><use xlink:href="#j" width="17.2" height="17.5" transform="matrix(-.855 .0031 .0808 .8981 -5.35 -154.2)"/><use xlink:href="#j" width="17.2" height="17.5" transform="matrix(-.855 .0031 .0808 .8981 -19.55 -152.4)"/><use xlink:href="#k" width="20" height="31.1" transform="translate(-50.65 -150.6)"/><use xlink:href="#l" width="19.1" height="56.5" transform="translate(-16.15 -92.9)"/><use xlink:href="#i" width="61.6" height="63.6" transform="matrix(.62 0 -.0438 .6183 -5.7 -80.45)"/><use xlink:href="#j" width="17.2" height="17.5" transform="matrix(-.5217 -.065 -.0602 .5574 26.5 -79.1)"/><use xlink:href="#j" width="17.2" height="17.5" transform="matrix(-.5302 .0019 .0108 .5553 10.05 -70.7)"/><use xlink:href="#j" width="17.2" height="17.5" transform="matrix(-.5302 .0019 .0108 .5553 28.55 -67.1)"/><use xlink:href="#j" width="17.2" height="17.5" transform="matrix(-.5302 .0019 .0108 .5553 19.7 -66)"/><use xlink:href="#k" width="20" height="31.1" transform="matrix(.62 0 -.0438 .6183 .35 -64.9)"/><use xlink:href="#m" width="40.6" height="49.8" transform="translate(-49.85 -27.7)"/><use xlink:href="#n" width="7.7" height="16.1" transform="matrix(.8289 .3899 .0367 .5631 -64.5 -13.1)"/><use xlink:href="#n" width="7.7" height="16.1" transform="matrix(.8289 .3899 .0367 .5631 -65.55 -29.3)"/><use xlink:href="#n" width="7.7" height="16.1" transform="matrix(.8289 .3899 .0367 .5631 -66.35 -44.05)"/><use xlink:href="#n" width="7.7" height="16.1" transform="matrix(.8289 .3899 .0367 .5631 -67.35 -59.7)"/><use xlink:href="#n" width="7.7" height="16.1" transform="matrix(.2945 .1385 .025 .3847 -65.8 -34.9)"/><use xlink:href="#n" width="7.7" height="16.1" transform="matrix(.2945 .1385 .025 .3847 -66.7 -49.85)"/><use xlink:href="#n" width="7.7" height="16.1" transform="matrix(.2945 .1385 .025 .3847 -64.9 -19.7)"/><use xlink:href="#n" width="7.7" height="16.1" transform="matrix(-.8289 -.2642 -.0114 .5403 21.85 28.45)"/><use xlink:href="#n" width="7.7" height="16.1" transform="matrix(-.8289 -.2642 -.0114 .5403 22.1 12.9)"/><use xlink:href="#n" width="7.7" height="16.1" transform="matrix(-.8289 -.2642 -.0114 .5403 22.2 -1.45)"/><use xlink:href="#n" width="7.7" height="16.1" transform="matrix(-.8289 -.2642 -.0114 .5403 22.5 -16.55)"/><use xlink:href="#n" width="7.7" height="16.1" transform="matrix(-.2945 -.0939 -.0078 .3691 22.3 7.55)"/><use xlink:href="#n" width="7.7" height="16.1" transform="matrix(-.2945 -.0939 -.0078 .3691 22.15 -7.2)"/><use xlink:href="#n" width="7.7" height="16.1" transform="matrix(-.2945 -.0939 -.0078 .3691 21.9 21.9)"/><use xlink:href="#o" width="9.4" height="9.1" transform="translate(50.95 -20.25)"/><use xlink:href="#p" width="60.8" height="85.3" transform="translate(35.15 -29.6)"/><use xlink:href="#p" width="60.8" height="85.3" transform="translate(7.6 -195.65)scale(.6716)"/><use xlink:href="#q" width="12.2" height="12.4" transform="translate(-47.9 -37.35)"/><use xlink:href="#r" width="127.2" height="125.3" transform="matrix(.3045 -.1669 0 .3045 -77.35 -41.25)"/><use xlink:href="#s" width="137.3" height="305.9" transform="translate(-40.1 -274.8)"/></g></g></svg>