<svg xmlns="http://www.w3.org/2000/svg" xmlns:xlink="http://www.w3.org/1999/xlink" width="487" height="98" viewBox="0 0 487 98"><defs><g id="a"><path fill="#a19f1d" fill-opacity=".7" d="M13.9 11.6v.5l-.2 3.2-.1.3-.7.6-.4.4q-.2.3-.4.3h-.4l-.7.4-.2.3-.2.7v.1l-.8.5-.3.3-.3.3-.1.2-.1.2-.8.7-.3.3-.1.3-.2.5-.2.1-1.1-.4h-.2l-1.2-.7-.4-.3-.8-.5q.5-2-.7-1.7-1.2.1-.6-.2l-.1-.8-.1-.8q-.2-.9-.8-1.8L1 14l-.5-.6.8.6.5.3h.6l.1-.2.1-.2.1-.2q.2-.7 1.1-.6H4q.6 0 .9-.3.4-.6-.2-2.2l-.1-.3q-.3-.7-.2-1.2v-.3h.1l.2.1.2.1q.5.1.8 0v-.1q.5.3-.2-.3l-.2-.2-.5-.5-.6-.8-.4-.3-.5-.5Q3 5.9 3 5.4v-.2l.1-1.5v-.6q-.1-.7.4-.8.7-.2.7-1l.1-.2.5-.5L6 .8q.2.2.2-.4h.6l1.3.8L10 2l.2.1.5.6.1.4q.4.7.5 1.4v.6l.2.3q.6.7.7 1.4v.5l-.1 1 .4 1 .5.7.2.3.6.9zm4.3 11 .2 1.2v.7l-.1.4-.3.4-.3.4-.2.1-.3.3-.1.1-.2.1-.3.1-.2.1q-.2.5-.7.3l-.4-.2H15l-.3-.2h-.5l.6-.6.2-.3v-.2q0-.4-.3-.5l-.2-.3v-.8l-.2-.3-.2-.2v-.1l.1-.3 1.2-1.1.2-.2.1-.5.4-.6q.3-.4 1-.4h.5l.4.3v.2l.1.1v1.9m0 7.5.8.7q.5.8 1.2 1.2l.5.3q1.6.4 1.9 1.8-.2 1-.9 1.9l-.2.4v.2q-.1.9.2 1.6t.2 1.5v.8l.1.5.1.4v.2l-.1.4-.1.1-.1.3-.3.3v.4l.4.3.4.1.2.2-.6.5-.5.2H21l-.9.2q0-1.2-1.2-.6l-1.1-.6q-.2-1.3-2.9-1.5l-.7-.4q2-1.1-1.4-.8-2.1.1-1.9-1l-1.7-.9-1.2-.6-1.8-1q.7.1 1.2.4l.3.2.3.2q.4 0 .8-.3.5-.5.8 0 .5.8 1.5.6h.2l.7-.2.8-.4q-.2-.4-.6-.6l-.4-.4q-.8-.8-.7-2.2v-.3l1.5-.2.4-.1q.4 0 .7-.3.4-.4.3-1.1-.1-.5.1-.7l.2-.1 1-.2q.9-.2 1.4-.7l.2-.3q.4-.7 1.2-.4M3.4 32.4l.4.1.5.5.6.4.2.1.2.6q.3.6.3 1.4v.7l-.2.6-1.3-.6-.4-.2q-2 .5-1.6-.9l-1.2-.6L0 34l.4-.1.4-.1q.6-.2.8-.8v-.3q0-.5.3-.6h.8z"/><path fill="#8e862f" fill-opacity=".7" d="m3.7 20 .8.5.4.3 1.2.6.2.1 1.1.4.2-.1.2-.6.1-.2.3-.3.8-.7v-.2l.2-.2.3-.4.3-.2.8-.5v-.1l.2-.7.2-.3.7-.4h.4l.4-.2.4-.6.7-.5.1-.3.3-3.2-.1-.5v-.1l.3.9v.1q0 .7.3 1.5l.3.7v.1l.2 1 .3 1.1v.6l-.3.3-.5.4-.9.1-.2.1-.4.4q-.1.3-.5.3h-.4q-.7.1-1 .8l-.1.3v.3l-.1.5-.3.7v.1l-.3.4h-.1l-.2.3-.2.3-.2.2q0 .4-.3.4l-.5-.2-.2-.2-1.1-.5-.6-.3-.5-.3-.7-.5-.8-.1q-1-.1-1.2-1.2z"/><path fill="#7c6d29" fill-opacity=".7" d="m20.1 44.6.9-.1.5-.1.5-.1.6-.6-.2-.2-.3-.1-.5-.3v-.4l.3-.3.1-.2.1-.2.1-.4v-.2l-.1-.4-.1-.5v-.8q0-.8-.2-1.5t-.2-1.6v-.2l.2-.4q.7-.9.9-2l.1 1v.2q0 1 .2 1.9l.1.5v.1l.1.3.2.4.5.6.1.3v.8q-.6 1.1-.7 2.4l1 .1.7.7.1.5v1l-.1.9q-.2.8.1 1.2l.2.1-.2.3-.2-.2-.7-.4-1.8-.9-2-1.1z"/><path fill="none" stroke="#766420" stroke-linecap="round" stroke-linejoin="round" stroke-opacity=".7" stroke-width="__RESOLUTION__" d="m13.1 10.3-.2-.3-.5-.7-.4-1m0-1.5q0-.7-.6-1.4l-.2-.3v-.6m-.5-1.4-.1-.4-.5-.6m-1.8-.9L6.8.3l-.5.1M4.8.6l-.5.5-.1.2M3 5.3l-.1.1m2.5 3.2q.7.6.2.3V9m-.8 3.8q-.3.3-1 .3m-1.3.8-.1.2-.1.2H2m.1 2.2.1.8v.8q-.5.3.7.1t.7 1.8v.1q.2 1.2 1.2 1.3l.8.1.7.5m2.2 1.1.2.2.5.2m1-1.2.3-.4v-.1m.4-1.6V20q.4-.7 1-.8m1.4-.7h.2m.9-.2.5-.4.3-.3m-.6-2.7-.2-.8q-.3-.8-.3-1.5v-.1m4.3 11.6v.5m-.8 1.1-.2.2-.3.3-.1.1-.2.1m-1.6.3H15l-.3-.2h-.5l.6-.6.2-.3m-.5-1.8-.2-.3-.2-.2m1.5-1.7.1-.5.4-.6m1.5-.4.4.3v.2l.1.1m0 1v.9m.9 8.2-.8-.7h0m-1.6.6q-.5.6-1.4.8l-1 .2-.2.1m-1 2.1h-.4l-1.4.3-.1.3h0m.7 2.3.4.3.6.6-.8.3-.7.3h-.2q-1 .3-1.5-.6-.3-.5-.8 0-.4.3-.8.3m0 .2 1.2.6m1.7 1q-.2 1 1.8.9m1.5.8.7.4m2.9 1.5 1.1.6m3.8-10q-.3-1.3-1.9-1.7l-.5-.2m-15 2-.2-.6-.2-.1-.6-.4-.5-.5-.4-.1M1.9 32q-.2.1-.2.6l-.1.3q-.2.6-.8.8m0 .7 1.3.6m1.6.9.4.1m1.5.1v-.7M25 43.8l-.1-.5m-.7-.6-1-.2q.1-1.2.7-2.4v-.9m-.9-1.6-.1-.5m-.2-1.9V35l-.1-1 .1-.6m-2.4 11.3 2 1.1m1.8 1 .7.3m.3-.2q-.4-.4-.2-1.2l.1-.9" vector-effect="non-scaling-stroke"/></g><g id="b"><path fill="#715f1f" fill-opacity=".7" d="m15.3 4.3.5.2q-.2.3-.2 1.1l.1.8.2 2.4v.1l.2.5v.6l-.6 1.3-.2.6-.7.9-1.6-.1q-1.2-.4-2.1 1t-.2 1.8l.9.8v.3l-.2 1-.2.4-.2.1-.9.3-1.6.9-.5.3-.6.4-.3.3-.2.1V20l-1.7-.2h-.1l-.3-.2h-.2l-.3-.2-.3-.2h-.1q-.3 0-.4-.2l-.1-.1-1.2-.1.3-1 .3-.4.4-.6.3-.7.2-.2q.3-.7.3-1.5l-.2-1-.1-.4-.1-.3v-2q-.2-.9-.9-1.2l-.3-.2-.6-.7-.1-.3-.1-1q.1-.8-.2-1.3L1 5.5.3 4.3l-.2-1V.6L.3.1h1L3 .6v.8l.3.4q.5.7 1.3 1.1l.4.2q.6.3.5.8v.7l-.1 1.5v.5l-.1.4v.5q-.1.8.3 1.4h.1l.5.5q.3.3.8.3v.1h.2l-.1.4v.2l.3.1h.3q.8-.2.7-1v-.2l.1-.7.1-.8v-.7l.1-.2V6l-.1-1v-.3L8 3.8l-.8-1v-.2L8.5 2l1.6.7.8.2q2.2.5 4.4 1.4"/><path fill="#a19f1d" fill-opacity=".7" d="M6.9 20.5q-.9.4.3 3.3l.2.6.5 1.2 1 2.1q.3.7-1.1-.8l-1.4-1.5-.5-.6q-3.6-4-3.4-3.2l.1 1.1h-1l.2-.7.1-.2.1-.3.1-.1.3-.6v-.4l-.2-.7v-1l1.2.2.1.1.4.1.1.1.3.2.3.1.2.1.3.2h.1l1.6.2.1.3zm4 12.9q-.3-.5 0-1.4.2-1 .1-2 0-.6.3-.6l.4-.1q.4.1.6 1.4v1l.3 1.1q.3.7.9 1.3t1.4 1l.5.2 1.9 1 .6.4q.4.6 0 2v.1l-.1.8v.6l.1 1.8v.1l-.1-.1-.5-1.3v-.2l-.1-.2-.5-1v2.9l.3 1.1v.6l.3.4.3.4v2q-.2 1 .4 1.6l.3.2 1.1.8.5.3-.1.1-.2.1-.5.4-1.5 1.3-.6.6-.4.3h-.4q-.4 0-1.4-1.4t-5.5 1.6q-3.4 2.3-2.1 1l.7-.6-.3-.5v-.1q-.2-.5.2-.5l.5-.4.2-.4.3-.4h.4q.5.4 1 .4l2.7-2q.7-.4.4-1l-1-2.1q-.9-1.4-.8-2.6l.1-.1.8-.7.7-1 .2-.4v-2.7l-.3-1.2V37l-.4-.9-.1-.3-.2-.5-.2-.2-.1-.5q0-.6-.7-1zM7.9 53l.1.1-.1.3q-.2.4-.7.3.5 0 .7-.3l.1-.2zl.5-.4z"/><path fill="#7c6d29" fill-opacity=".7" d="M17.9 42v.1l.3.6.2.4.2.8.1.4v1l.1.8.4 1.4.8.9.4.4.4.4.2.3.1.1v.1h-1.5l.1-.1.2-.1-.4-.3-1.2-.8-.3-.2q-.6-.6-.5-1.6l.1-.4v-1.5l-.3-.5-.3-.5v-.4l-.2-1.2-.2-.2v-2.6h.1l.5.9v.2l.1.2.5 1.3zm-6.4 1.3h-.2l.3-.1zm-1.4 0v-.1l.3.1zM5.7 32.8"/><path fill="none" stroke="#544218" stroke-linecap="round" stroke-linejoin="round" stroke-opacity=".7" stroke-width="__RESOLUTION__" d="m15.3 4.3.5.2q-.2.3-.2 1.1l.1.8M16 9l.1.5v.6l-.6 1.3-.2.6m-.7.9-1.6-.1m-2.1 1q-1 1.3-.2 1.8l.9.8v.3m-.4 1.4-.2.1-.9.3m-1.6.9-.5.3-.6.4-.3.3m-4.9-1.6.3-1M3.8 16q.3-.8.3-1.6m-.2-1-.1-.4-.1-.3m0-1.1v-.9M2.4 9.3l-.6-.7-.1-.3m-.1-1q.1-.8-.2-1.3m-1-1.7-.3-1m0-1.9V.6L.3.1m2.6.5v.8m1.6 1.5.4.2q.6.3.5.8v.5M5.1 7v.5q-.1.8.3 1.4m2.8.6v-.2l.1-.7.1-.8v-.7l.1-.2m-.2-2.3L8 3.8l-.8-1v-.2L8.5 2m-.6 51-.3-.5m1.3-1.9.3.1q.5.4 1 .4m-3 2.5q.5.1.7-.2l.1-.2-.1-.2" vector-effect="non-scaling-stroke"/><path fill="none" stroke="#766420" stroke-linecap="round" stroke-linejoin="round" stroke-opacity=".7" stroke-width="__RESOLUTION__" d="m7.2 23.8.2.6m.5 1.2 1 2.1q.3.7-1.1-.8m-1.4-1.5-.5-.6M1.8 22l.1-.2.1-.3m.2-1.9v-.9m8.7 14.6q-.3-.5 0-1.4.2-1 .1-2 0-.6.3-.6m1.3 3.4q.3.7.9 1.3m2 1.2 1.8 1m.6 2.5-.1.8m.1 2.4v.1m1.7 7.8-.5.4m-1.5 1.2-.6.6m-.7.3q-.6 0-1.5-1.4m-5.5 1.6q-3.4 2.3-2.1 1l.7-.6.5-.4m4.4-3.5q.8-.4.5-1m-1-2.1q-.9-1.4-.8-2.6m.9-.8.7-1 .2-.4V41m0-2.6-.3-1.2m-.5-1.4-.2-.5m5.9 7.4.2.4.2.8m.2 2.2.4 1.4.8.9.4.4.4.4" vector-effect="non-scaling-stroke"/></g><g id="c"><path fill="#a19f1d" fill-opacity=".6" d="M23.7 18.7h.1l.3.3.2.3.2.6v.9l-.1.2-.1.6-.1.7.2 1.2-.1.2-.2 1.1v.8l.1.2-.3.6-.3.9v.2l-.1.8-.1 1.3-.4.8h-.2l-.4-.2-.9-.4-.2-.1-1 .1-.2.1h-.2l-.1-.3-.7-1.4-.6-.8.8.5-.2-.3-.2-.5q-.4-.6-.4-1.6v-.4l-.5-.8-.1.2.2.8.1.5v.4l-.6.2-.4.1h-.6l-.2.1v.4l-.3.9-.3.4-.2-.1-.6-.6-.6-.4-.4-.4v-.1l-.7-.5q-.4-.1.1-.7l.1-.2.4-.7.1-.2-.1-.2-.7-.9-.3-.4-.2-.2-.2-.4-.2-1v-1.6l.1-1.2v-.1l-.3-.7-.2-.2-.2-.2-.2-.6v-.4l.4-.6.4-.2.5-.2.3-.1.2-.3.3-.7.5-.8.2-.3v-.2l.1-.5.1-1.1v-.6l.1-.2.2-.1h1.3l.4-.5.4-.7.3-.1.6.2.2.1.7.4.4.3.1.3.4 1v.3l-.3 1.3-.3 1v.6l.5.3.4.3q.4.3.5.8l-.1.2v.3l1.2.6.3.1.1.2.2.2.6.4.4.2.4.3zm-8.6 22.2.2.5.1.3.2.4h-.3l-1.2-.6-1.8-.9-.7-.3-1.7-.9-1-.3-1.2-.6L7 38l-1.7-.7-.7-.4-1.9-.9-.5-.1L0 34.8v-.4l.4.1h.4l.7.1h.3l.6-.1.3-.5v-.3l-.2-.4q-.2-.5.2-.6l.3-.4.2-.2.7-.2h1.3l.5.1.1-.8v-.4l.2-1.2.3-.1.2-.2.5-.4h1.3l.2.2h.1l.3.4q.5.6.5 1.3l-.2.5v.3l-.3.8-.2.1h-.3q-.2.1-.2.5.1.5-.1.9l-.3.2-.2.1-.2.2-.2.1-.7.8H6l.8.5.2.2 1.2.9.2.1h.8q.5 0 .8-.2h.2v.2l.3.8q.3.8 1.5.9h.5l1 .1.8.4.6.8zM9 .8l1.3 1.5.5.9v.1l.2.3.3.1-.4.3-.2.2-.3.1q-.7.5-.8 1.4l-.2.4-.3.3-.3.2h-.6q-.9 0-1.2-.7v-.2q-.3-1 .7-1.1v-.3l-.4-.6-.2-.3-.2-.1-.3-.7-.2-.3q-.7-1 .2-1.3H7q.4 0 .7-.3L8 .2l.7-.1.3.5z"/><path fill="#7c6d29" fill-opacity=".6" d="m15.8 28.3.3-.4.3-.8v-.5h.2l.6-.1.4-.1.5-.2.1-.4-.1-.5-.2-.8.1-.2.4.8.1.4q0 1 .4 1.6l.3.5v.3l-.6-.5h-1.1q.6.3.6 1.2l-.2.2-.6.1H17l-1-.4-.1-.1zm4 1.6h.3l.3-.1.9-.1h.2l.9.5.4.2h.2l.4-.8.1-1.3v-1l.4-.9.4-.6-.2-.2v-.8l.2-1.1v-.2l-.1-1.2v-.7l.2-.6v.8q.2.8.7 1.6l.2.4.2.4.1 1.1v.1l-.1 1-.4 1.8-.1.2h-.1q-.7.3-.6 1.3v.2l-.2.4-.3.4q-.4.6-.4 1.4v.3h-.1l-.4.1q-.9-.2-1.8-.8l-.5-.3-.1-.1-.4-.4-.2-.7zM9.2 31.6v1l.2 1v.2l-.6.8q-1.2 1 0 1.6l.5.3.7.3-.8.3-.8-.1-.2-.1-1.2-1-.2-.1-.8-.5h.5l.8-.7.1-.2.2-.1.2-.2.3-.2q.2-.4.1-.9 0-.4.2-.5h.3l.2-.1zm-.3-25 .3-.2.3-.3.2-.4q.1-1 .8-1.4l.3-.1.2-.2.3-.3.3.4q.2.8-.2 1.6L11 6l-.4.3h-.2z"/><path fill="none" stroke="#766420" stroke-linecap="round" stroke-linejoin="round" stroke-opacity=".6" stroke-width="__RESOLUTION__" d="m23.7 18.7-.2-.2-.4-.3-.4-.2m-1-.8-.2-.1q-.6-.2-1.1-.6l-.1-.1m-1.2-1.8q-.2-.2-.1-.5l.3-1.2m-.1-2.5v-.3l-.5-.3M17 9.2l-.4.7-.6.5m-1.2 0h-.2l-.1.3v.6m0 1-.2.6m-.7 1.3-.3.7-.2.3-.3.1-.5.1m-.4 2 .2.3.3.7h0m-.1 1.3v.4m0 1.1.1 1.1.3.4.2.2m1.1 1.5v.2l-.5.7m.4 1.4.4.5m4.9.7-.7-.5.5.8.6 1.4m4.7-8.6v-.2m.1-.9-.2-.6M18 28.7v-.1q0-1-.6-1.2h1m-2.6 1 1 .5h.1m3.5 2.5.5.3m2.2.7.1-.2q0-.9.4-1.5m.4-1q0-1 .7-1.2l.1-.1m.5-2 .1-1m-.1-1.1-.2-.6m-.9-1.9V21m-9.1 21-1.2-.6m-1.8-.9-.7-.3m-1.7-.9-1-.3m-1.2-.6L7 38m-1.7-.7-.7-.4M2.8 36l-.5-.1m-.8-1.2h.3l.6-.2.3-.5v-.3m.5-1.6.7-.2m1.3 0 .5.1.1-.8v-.3m1.2-2h.5m1.9 1.9-.2.5v.1m0 1.2.2 1m-.6 1q-1.2 1 0 1.6l.5.3m1 .5.1.8m2.2.9 1 .1m1.3 1.2.2.8M9 .8V.6L8.6 0m-1 .6q-.3.2-.7.2l-.3.1m0 1.6.3.6.3.2m1 3.3h.4m2.2-3.5-.5-1m.2 4.2L11 6l.3-.4" vector-effect="non-scaling-stroke"/></g><g id="d"><path fill="#a19f1d" fill-opacity=".6" d="M13.4.1h.2l.1-.1h.2l.1.1v.6l.1.1.2.1.2.2h.3v.6l-.1.3-.4.1H14l-.4.1-.4.1-.2.3h-.4l.2-.2v-.2l-.2-.4q-.2-.5 0-1.1.3-.3.8-.4zm4 3.1h.3l1 .7.8.8.3.6.1.5.1.2.3.7.1.3.3.2.1.1v.3l-.2 1.3-.6 1.8-.1.3-.1.2v3l-.2.4-.5.6-.2.6v.8l.1.3.3.6-.1.9-.1.5v1.8l.4.4 1.4 1.1.5.4v.1l.2.4.1.6.4 1.8q.5.5.3 1.1v.3l-.2.2-.2.5q0 .6.3 1.2v.3l-.4.4-.7.3-3.7-2-.6-.4v-.2l-.1-.6v-.1l.1-.2h.2l.4-.4.2-.1V25h-.2l-.1-.1-.3-.6-.1-.3-.1-.7-.3-.3q-.9-.4-.9-1.2v-.2l-2.1-.2v.5h-.1v.3l.1.6-.1.5-.2.2-.1-.2q-.4-.3-.8-.1H12l-1.7.5h-.2l-.3.2-.7-.4L7 22.4q-2-2.1-2.2-1.1l-1-.5h-2v-1L.1 19v-.3l.8-.2.9-.3.3-.2h.2l.5-.4v-.1l.9-1h.1q.4-.4.5-.9v-1.9l.1-1.4V12l.1-.7.1-1.6V9l.1-.5.2-.2H5V8h.1v-.4L5 7.5v-.2L4.7 7l.3-.6.1-.5v-.6l.3-.2h.2l.5.4h.1l.4.1.7.1h.1l.2.6.2.1.4.2.4.4.2.2q.2.1.1.4l.3.3.3.4h.4l1-.4.3-.2.5-.5.3-.1.4-.3.3-.5.6-1.1q.1-.2.4-.3l.7-.2 1.4-1.4q.2-.3.6-.3z"/><path fill="#7c6d29" fill-opacity=".6" d="m21.2 29.8.7-.3.4-.4v-.3q-.4-.6-.3-1.2l.1-.5.3-.2v-.2q.2-.7-.2-1.2H22l-.4-1.7-.1-.7-.2-.4v-.1l-.5-.4-1.4-1-.4-.6V19l.1-.5.1-.9-.3-.6-.1-.2v-.9l.2-.6.5-.6.2-.4V11l.2-.3.6-1.8.2-1.3v-.3l1 .7.1.1-.1.6-.5 1.5v.2l-.3.6v.3l-.2.5-.2.3-.4 1.2V16q-.4.8-.2 1.9v.2l.5 1 .1.3.2 1.4.3.7.3.2.8.9.4 1 .3.4.1.2.2.4v1.2l-.2 1.6-.2.9.4.1.4.3.5.7.4.4.2.2.7 1.1v.5l-.1.3z"/><path fill="none" stroke="#766420" stroke-linecap="round" stroke-linejoin="round" stroke-opacity=".6" stroke-width="__RESOLUTION__" d="M13.4.1v.2q-.5.1-.8.4h0m0 1.1.2.4v.2l-.2.2h.4l.2-.3.4-.1h.4l.3-.1m.5-1h-.3l-.2-.2-.2-.1V.4m3.5 2.9-.2-.1m-1.4 0-1.5 1.4-.7.2q-.3 0-.4.3l-.6 1.1-.3.5-.4.3m-.8.6-.3.2-1 .4m-.4 0-.3-.4-.3-.2m-.7-1.1-.4-.2-.2-.1-.2-.5v-.1l-.8-.1h-.4l-.1-.1-.5-.3-.2-.1-.3.3v1m-.2 1v.2l.1.1V8h0l-.1.2h0-.1l-.2.2-.1.5v.8m0 1.6-.2.6v.3m-.2 1.4v.5m0 1.4q0 .5-.4.9h-.1m-.9 1v.1l-.5.4h-.2m-1.2.5-.8.2M9.8 24l.3-.1.2-.1 1.7-.4.3-.1q.5-.2.9.1l.2.2.1-.2.1-.5-.1-.6V22h0v-.4h.1v-.2l2.2.3v.2q0 .8.8 1.2l.3.3.1.7.1.3.3.6h0l.3.1v.7l-.2.1-.4.4h-.2v.2l-.1.1v.5l.1.3.6.5m3.1-20.7-.2-.2-.1-.3L20 6v-.2m-.6-1.1-.7-.8m3.1 4.8.1-.6V8m-.9 3 .3-.6v-.2m-1.4 7.7q-.1-1.1.3-2v-2.6l.4-1.2m2.6 16.3-.4-.1.1-.9.3-1.6m-.2-1.6-.1-.2-.3-.4-.4-1m-.8-.9-.2-.2q-.3-.3-.4-.7l-.2-1.4-.1-.3m4.8 12.8v-.3m0-.5-.6-1.1-.2-.2-.4-.4-.5-.7M9.1 23.5q.2.4.7.4h0" vector-effect="non-scaling-stroke"/><path fill="none" stroke="#988629" stroke-linecap="round" stroke-linejoin="round" stroke-opacity=".6" stroke-width="__RESOLUTION__" d="M10 8.3h-.4" vector-effect="non-scaling-stroke"/></g><g id="e"><path fill="#715f1f" fill-opacity=".7" d="M5.1.1h.8l14.7 7.1.1 1.6.1.1.1.5.1.6-.6 1.3-.3.6-.7 1-.5.8-1.4 1.6-.7.5-.4.5v.3l-.1 1-.2.4-.3.1-.8.3-1.6.9-.5.3-.6.4-.3.3-.2.1v-.1l-.1-.3-1.6-.2h-.2l-.3-.2h-.2l-.3-.2-.2-.2h-.2q-.2 0-.3-.2l-.2-.1-1.2-.1.4-1 .2-.4.4-.6.4-.7.1-.2q.4-.7.3-1.5l-.1-1-.2-.4v-.3l-.1-1.1v-.9q-.1-.9-.9-1.2l-.2-.2-.6-.7-.2-.3v-1q0-.8-.3-1.3L6 5.5l-.7-1.2-.3-1V.6z"/><path fill="#a19f1d" fill-opacity=".7" d="m11.8 20.5-2 .8-1 .1q-.7 0-1 .6l-.1.1-.6 1.6-.1.8V26l.1.3.1.2v.8q-.3 1 .1 1.8l.3.6.9 1.1.8.7.1.1.1.6.1.4.1 1.5.3.6.3.3.1.2.2.5.2 1.3v.4l.3.4.3.4.1.3v1.4l-.1.3q-.2 1 .5 1.6l.2.2 1.2.8.4.2v.1l-.1.1q-.5.3-.5 1l.2.4.1.5h.2l.3.2.5.4.5.4h.2q.4 0 .4.5l-.2-1.2.1-.5.3-.4.1-.1.2-.2V44l.4-.9.9-.6.7-1 .1-.4V41q.2-1.4 0-2.6l-.2-1.2-.1-.2-.3-.9-.1-.3-.3-.5-.2-.2v-.5q0-.6-.8-1l-.4-.4q-.3-.4 0-1.3t.2-2q-.1-.6.2-.6l.5-.1q.3.1.5 1.4v.5l.1.5.2 1.1q.3.7 1 1.3.5.6 1.4 1l.5.2 1.8 1 .6.4q.4.6.1 2v.1l-.2.8v.6l.1 1.8.2 2.1v.5l-.4 1.3-.1.3-.4.7v.3q0 1.4-.4 2.7l-.4.8-.2.1-1.7 1-.8.6v.2l-.1 1-.1.1-.3.5-.6.4-.4.2-1 .3h-.5q.8 0 1.3.3l.2.1.6-.2.8-.1h.1q.5-.1.5-.8h.3l1.4.1.2.1.1.1q.2 1 .8 2l.3.2.4.3.1.1v1l-.4.8v.3l.1 1.2v.8l-.1.8-.2.7-.1 1-.1 1.7h-.2l-.1.1-.1.9.1.8.2.5.2.2q.3.3.3 1l.2.7.3.3v.8l-1.1-.2q-1.2-.2-1.5 0l-.4.3v.6q.2.4-.3.5h-.5l-.2.2-.6-.3q.5-.9-2-1l-.9-.5q-1.8-.2-2-1l-.7-.4q-5.2-1.1-5.2-2.7l-.3-.1-1.8-1q-1.9.3-1-.5-.1-1.2-2-1 .6-.8-1.8-1v-.1l-.2-.7-.1-1.2q0-.9.4-1.5l.3-.5.5-.4.1-.1.8-.9.1-.1.1-.2q2.9-1.5 2.8.5l.1-.5.2-1 .1-.5v-.4q.3-.6.4-1.4v-5.5l-.1-.6-.2-1v-.1q0-.9.2-1.5l.5-.6 1.4-1.5v-.1q.6-.7-.2-1.7l-.1-.5-.1-.7-.4-.5-.8-.7-.2-.3-.3-.4-1-2-.5-1.6v-.6l.1-1.1v-4.9l-.1-1v-.5q0-.9.5-1.5l.4-.5.4-.5h.1l.3-.2q.5-.1.5-.5l.2-1 .1-.3.2-.3v-.1l.3-.6v-.4l-.2-.7v-1l1.3.2v.1l.4.1.2.1.2.2.3.1.2.1.3.2h.2l1.6.2v.4M3.4 57.3l-.9-.2.4.2z"/><path fill="#7c6d29" fill-opacity=".7" d="M9.5 31.6q1 .8 1.5 2.1l.1.2v.2l.5 1.3.2.2.2.6.3.4.1.8.1.4.1.7v1.1l.5 1.4.7.9.8.8.3.2.8.8.2-.3.5-.2-.4.8-.2.3-.1.1-.3.4v.5l.1 1.2q0-.5-.4-.5h-.2l-.5-.4-.6-.4-.2-.2h-.2l-.2-.5v-.4q0-.7.4-1l.1-.1-.4-.3-1.2-.8-.2-.2q-.7-.6-.5-1.6v-.4l.1-1.4v-.1l-.4-.5-.2-.5-.1-.4-.2-1.2-.2-.5-.1-.2-.3-.3-.3-.6-.1-1.5v-.4zM22 53.2l.3.4-.4.3-.3.5q-.2.4-.5.3l-.1-1.4h.4zm-19.5 4V57L4 56l.8-.4h.3l.4-.4.1-.1v.9l-.2 1-.2.5q.1-2-2.8-.5l.4.2h.5z"/><path fill="#908227" fill-opacity=".7" d="M23 44.5v2.1q.1.6.4.9l.3.2.3.3.3.3q0 .7-.7 1.1l-.1.1-.3.5-.2.9-.2.7v.7l-.2.3-.7.5h-.6l-.4.1.1 1.4-.1-.1-.1-.1-1.6-.1H19q0 .7-.5.8h-.1l-.8.1-.6.2h-.2q-.5-.4-1.3-.4h.5l1-.3.4-.2.6-.4.3-.5h.1l.1-1.1v-.2l.8-.6 1.7-1 .2-.2.4-.7q.4-1.3.4-2.7v-.3l.4-.7v-.4zm-.8 9 .1.5v.3l.3.3.3.4 1 1.8v.5l.2 1.8-.3.7-.4.9q-.2.7 0 1.6l.1.3.1.6.3 1.6V67l.2 1.1.2.4.2.7q.3 1 .8 1.8l.6.7-1-.2-1-.4-1.1-.2-.1-.5V70l-.2-.3h-.1l-.2-.7q0-.7-.3-1l-.2-.2-.2-.5-.1-.8.1-.9h.1l.1-.1.2-1.7.1-1 .2-.7.1-.9v-.7l-.1-1.2V59l.4-.7V57l-.5-.3-.3-.2q-.6-1-.8-2 .3 0 .4-.3h.1l.3-.5zm-2.1.2.2-.2q.2-.5.6-.4-.4 0-.6.4z"/><path fill="none" stroke="#544218" stroke-linecap="round" stroke-linejoin="round" stroke-opacity=".7" stroke-width="__RESOLUTION__" d="m20.8 9 .1.4.1.6-.6 1.3-.3.6m-.7 1-.5.8m-1.4 1.6-.7.5-.4.5v.3m-.3 1.4-.3.1-.8.3m-1.6.9-.5.3-.6.4-.3.3m-5-1.6.4-1M8.5 16q.4-.8.3-1.6m-.1-1-.2-.4v-.3m-.1-1.1v-.9m-1-1.4-.6-.7-.2-.3m0-1q0-.8-.3-1.3m-1-1.7-.3-1m0-1.9V.6l.1-.5" vector-effect="non-scaling-stroke"/><path fill="none" stroke="#766420" stroke-linecap="round" stroke-linejoin="round" stroke-opacity=".7" stroke-width="__RESOLUTION__" d="m9.9 21.3-1 .1q-.8 0-1.1.6m-.7 1.8-.1.7m.1 2.8q-.2.8.2 1.6m1.2 1.9.8.6m2.7 4.8.3.4.1.8m.2 2.2.5 1.4.7.9.8.8m2.7-.2.7-1 .1-.4V41m0-2.6-.2-1.2m-.5-1.4-.3-.5m-1.4-2q-.3-.5 0-1.4.3-1 .2-2-.1-.6.2-.6m1.3 3.4q.3.7 1 1.3m1.9 1.2 1.8 1m.7 2.5-.2.8m.1 2.4L23 44m.1 2.6q.1.6.4.9l.3.2m-.2 1.8-.3.5-.2.9-.2.7v.7m-.4 2 .2.3.3.4m1 1.8v.5l.2 1.8-.3.7-.4.9m.2 2.5.3 1.6m0 3.2.2.4.2.7q.3 1 .8 1.8m-.4.4-1-.2m-2.3-.5q-1.2-.2-1.5 0l-.4.3m-.3 1.1h-.5l-.2.2-.6-.3m-2-1-.9-.5m-2-1-.7-.4m-5.2-2.7-.3-.1m-1.8-1q-1.9.3-1-.5m-2-1q.6-.8-1.8-1v-.1l-.2-.7-.1-1.2m.4-1.5.3-.5M4 56l.8-.4M6 53.8V52m0-.5v-1.2h0m0-2.1-.1-.6-.2-1v-.1M6 45l.5-.6m1.4-1.5v-.1q.6-.7-.2-1.7l-.1-.5-.1-.7m-1.2-1.2-.2-.3-.3-.4m-1-2-.5-1.6v-.6m.1-1.1v-.5m0-1.8v-2.6m-.1-1.1v-.4m.5-1.5.4-.5.4-.5h.1m.3-.2q.5-.1.5-.5m.2-1 .1-.3.2-.3m.1-1.9v-.9M21 53.3q-.4 0-.6.4l-.2.2m1.2-.6H21" vector-effect="non-scaling-stroke"/></g><g id="l"><path fill="none" stroke="#261b0f" stroke-linecap="round" stroke-linejoin="round" stroke-width="__RESOLUTION__" d="m17.5 16.4 1.5-4.2-.1-.2L23.2.5l.1-.2M.3 67.2 5 53.4l-.4-.3" vector-effect="non-scaling-stroke"/><path fill="none" stroke="#48321e" stroke-linecap="round" stroke-linejoin="round" stroke-width="__RESOLUTION__" d="M23.2.5 49.4 12l2.6 2.5M5.3 51.3q1.6-2.8 1.9-5.5 6.4-14.5 10.3-29.3" vector-effect="non-scaling-stroke"/><path fill="#9d7e37" d="M40.4 28.2 47 10.8l1 .4-2.7 10.2-2.5 4.4-.6 2.4z"/><path fill="#e3c788" d="m42.2 28.3-2.2 8-1.7 2h1.1l-.2 1-1.7 4.7v-.3l-2.1 1.7h1.5l-.1.5 1.8-1.5-2.6 4-4.6 10-.9-.1v-.1l.1-5.3 3-2.1 1.7-5.4 1.7-5.2-4.6-4.1 5.9 2.6v-.4l.1-4.9 2-5.2zM30 59.3h1.1l-.3.8-.2.3-.1 6-3.5 4.5-2.2 6.7 3.8-15.2z"/></g><g id="j"><path fill="#070000" fill-opacity=".2" d="M11.2 17.9 14.1 4 17 0v9.4L15.8 17z"/><path fill="#420200" fill-opacity=".2" d="m11.2 17.9 4.7-.9-.7 4-3.8-2.1zm5.4 14.3-8.5-1L10.5 21l6.2 3.1z"/><path fill="#310000" fill-opacity=".2" d="m9.3 32.4 7.3 2.1v4.9l-3 4.9-8.5.1 2.4-10.5zm3.3 25.2 2.3-.6-.8 10.3-2.1.2zm-3-.1 2.3-.5-.7 10.2-2.1.2zM16 56l3.1-.6.4 11-4.2.4zm-7 0-6.5-.1 1.9-8.2 10.8-1.3zm-.7 1.6L8 67.4l-1 .2L1.9 69l.7-10zm-6.8 1.6L.5 69l-.7.1.4-4.1z"/><path fill="#1d0000" fill-opacity=".2" d="m15.5 49 1.9 1.6v3L13 52.4z"/><path fill="none" stroke="#020000" stroke-linecap="round" stroke-linejoin="round" stroke-opacity=".2" stroke-width="__RESOLUTION__" d="m12.6 57.6 2.3-.6m-3-.1-2.2.5m9.5-2L16 56m-7.5 1.6-6 1.4" vector-effect="non-scaling-stroke"/></g><g id="i"><path fill="#926f4e" fill-opacity=".4" d="m18.5 20.5-1.6-7.1-12.3 1.3-3.8-3.5 1.1-6 7.5-1.6 3.2.1L23 0l1.3 1.1V12l-1.1 7.6zm-14.9-.2-1.9-1.6v-3L6 17z"/><path fill="#cda456" fill-opacity=".4" d="m18.5 20.5 4.7-.9-.6 4-3.9-2.1zm-2.4.3v2l7.8 4v8l-13.5-1.6-7.5-7.7L4.6 23zM11 36.7l-5 5.9 3.1 4.6-2 2.5L2 46.8v-15l2.4-1.2z"/><path fill="#a37b50" fill-opacity=".4" d="m4.6 23 4.5-7.3 6.9.1.1 5z"/><path fill="#bc9654" fill-opacity=".4" d="m24 42-3 4.9-10.5.1q.1-3-.5-6.3l6.6-5.7 7.4 2zm-7.5 16.6-7-.1v-7.6l-.6-.4L22.7 49zM1.3 51.2l6 1.7v4.7l.4.1-5.3.4z"/><path fill="#c4a371" fill-opacity=".4" d="m20 60.2 2.3-.5-.9 10.1-2 .3zm3.4-1.4 3.1-.7.4 11-4.2.4zm-7.6 1.5-.5 9.8h-1l-5.1 1.5.6-10zM8.2 62l.9-.4-1 10.1-.7.1zm-7.5.7-.6.3.6-.5z"/><path fill="#f7cb75" fill-opacity=".4" d="m17 60 2.3-.5-.8 10.2-2.1.2z"/><path fill="#a88651" fill-opacity=".4" d="m22.8 51.6 1.9 1.6v3L20.4 55z"/><path fill="#e8be71" fill-opacity=".4" d="M7.4 62 6.2 72.5.4 74.1.5 73q-.4-5 .2-10.3v-.2q4-3 6.7-.5"/><path fill="none" stroke="#8d6b4d" stroke-linecap="round" stroke-linejoin="round" stroke-opacity=".4" stroke-width="__RESOLUTION__" d="m20 60.2 2.3-.5m-3-.2L17 60m9.5-2-3.1.7m-7.6 1.5-6 1.3m-1.6.5.9-.4m-8.4 1-.6.4.6-.5q4-3 6.7-.5" vector-effect="non-scaling-stroke"/><path fill="none" stroke="#926f4e" stroke-linecap="round" stroke-linejoin="round" stroke-opacity=".4" stroke-width="__RESOLUTION__" d="m22.8 51.6 1.9 1.6v3L20.4 55zm-21.5-.3 6 1.7v4.7l.4.1-5.3.4z" vector-effect="non-scaling-stroke"/></g><g id="h"><path fill="#a4894b" d="m24.9 24.8-.7-1-.2-.1zm-.9 4L.4 15.7v-4.2h.1L.3 0l9.6 4.6.3 6.5.8-6 16.5 8v16.3h-.6l-2.1-.3z"/><path fill="#e2cc9a" d="m24.9 24.8-1-1.1.3.1zm-10.6 7.8 3.5.6q5.3.7 6.2-4.5l.8.4 2 .3v9.3l-2.2-1.2-7.5-3.8z"/><path fill="#e8d38d" d="M24 28.7q-.9 5.2-6.2 4.5l-3.6-.6-.2-.1 10 5.1.6-.1 2.3 1.1v-9.2h.6v15.4l-.1.5v6.9l-.7.2.4-3.9L.6 44.7Q-.4 30 .4 15.8zM3.8 26.9l.7.8-.7-.3 6 3h.8zm7.4 4.1 1.4.7-1.3-.9z"/><path fill="#dec46d" d="m.6 44.6 26.5 4-.4 3.8.8-.2v14.1L7.7 55.5l-.5-.2L18.5 61 .5 50q-.4-2.9 0-5.3"/><path fill="#938141" d="M27.5 45.3h-.1v-.5z"/><path fill="#d8be83" d="m24.7 37.5-.6.1L14 32.5l.3.1 2.8 1.1zM10 4.7l1 .4-.7 6zM3.8 27l6.8 3.4h-.8l-6-2.9.7.3zm7.4 4.1.1-.2 1.3 1z"/><path fill="#776437" d="M27.5 66.4v12.2l-.8.3-3.6-1.8-3.2-1.6-2.6-1.3-5.6-2.9-2.3-1.2-1.2-.6-5.3-2.7-1.9-1-.8-.4V52l.4-.1 6.6 3.4.5.2z"/><path fill="#e0ca95" d="M.6 51.8v-1.9l17.9 11-11.3-5.7z"/><path fill="none" stroke="#665335" stroke-linecap="round" stroke-linejoin="round" stroke-width="__RESOLUTION__" d="m27.5 78.6-.8.3" vector-effect="non-scaling-stroke"/><path fill="none" stroke="#665235" stroke-linecap="round" stroke-linejoin="round" stroke-opacity=".7" stroke-width="__RESOLUTION__" d="m26.7 79-3.6-2m-3.2-1.6-2.6-1.3m-5.6-2.9L9.4 70m-1.2-.6-5.3-2.7m-1.9-1-.8-.4" vector-effect="non-scaling-stroke"/><path fill="none" stroke="#665135" stroke-linecap="round" stroke-linejoin="round" stroke-opacity=".4" stroke-width="__RESOLUTION__" d="m23 77.1-3-1.6m-2.6-1.3-5.6-2.9m-2.3-1.2-1.2-.6M3 66.8l-1.9-1" vector-effect="non-scaling-stroke"/><path fill="none" stroke="#66593b" stroke-linecap="round" stroke-linejoin="round" stroke-width="__RESOLUTION__" d="m27.5 66.4-19.8-11-.5-.2" vector-effect="non-scaling-stroke"/><path fill="none" stroke="#5c4f45" stroke-linecap="round" stroke-linejoin="round" stroke-width="__RESOLUTION__" d="M7.2 55.2.6 51.8" vector-effect="non-scaling-stroke"/></g><g id="g"><path fill="#795b2b" d="M23.1.8 27.4 3l-.3 9.4-.2 5.8q-2.1 1.7-3.4 4.1l-.4.2-2 .9-4.7 2.2h.2l3.7-1.7 3.1-1.5q-.4.9-.5 1.9l-.2 5.2-10.8 4.3zm-18.8 55 1.8-5 12.9-5-.6.7Q17 48.1 16.3 50z"/><path fill="#5f460e" fill-opacity=".5" d="m27.1 12.4 3.4 1.7 4.1 47.1-9.6-4.7.8-.4.3-10.9.4-14.5.4-12.5z"/><path fill="#804e11" fill-opacity=".4" d="M34.7 61.2v.1L1.4 67.7l9.7-4.6 9.7-4.5 4.2-2z"/><path fill="#403015" d="m1.4 67.6-1.3.6 4.3-12.4L16.3 50l-.1.2-.4 2-.4 2-.4 2.6-.7 1.8Q13 61 11.1 63z"/><path fill="#705427" d="m6 50.8 5.9-17 10.7-4.3v.4q0 1.3-.5 2.5-1.3 4.1-1.6 8.3l-.2 2.3-.5 1.4-.9 1.4z"/><path fill="#b69154" d="m23.1 22.5-2 1v-.1z"/><path fill="#c1a76c" d="m21.2 23.4-.9.5-3.7 1.8-.2-.1z"/><path fill="#6c4b24" d="m23.5 22.4 1.5-.8zq1.4-2.4 3.6-4.1l-.5 12.5Q25 32 24.5 34l-.2 1.3-.5 2.4-.7 2.8v2.2l.4 1.3.3 1-.2 1.1-.2.5-7.1 3.4q.6-2 2.1-3.5l.6-.7.8-1.4.5-1.4.2-2.3q.3-4.2 1.6-8.3.5-1.2.5-2.5v-.4l.3-5.2q0-1 .5-1.8z"/><path fill="#2d210f" d="m16.3 50 7.1-3.4q-.6 1.3-.7 2.9l-.2.5-.5 1-.5 1.4q-1.2 2.3-.7 4.9v1.2L11.1 63q1.9-2 3.3-4.4l.6-1.7.4-2.7.4-2 .4-2z"/><path fill="#604320" d="m23.4 46.6.2-.5.2-1.1-.3-1-.4-1.3v-2.2l.7-2.8.5-2.4.2-1.3q.5-2 2-3.3l-.4 14.5z"/><path fill="#20170b" d="M20.8 58.5v-1.2q-.5-2.6.7-5l.5-1.2.5-1.1.1-.5q.1-1.6.8-3l2.8-1.3-.4 10.9-.8.4z"/><path fill="none" stroke="#433f0c" stroke-linecap="round" stroke-linejoin="round" stroke-width="__RESOLUTION__" d="M23.1.8 21.7.1" vector-effect="non-scaling-stroke"/><path fill="none" stroke="#261b0f" stroke-linecap="round" stroke-linejoin="round" stroke-width="__RESOLUTION__" d="m27.4 3-.3 9.4-.2 5.8-.4 12.5-.4 14.5-.3 10.9" vector-effect="non-scaling-stroke"/><path fill="none" stroke="#4f3c1e" stroke-linecap="round" stroke-linejoin="round" stroke-width="__RESOLUTION__" d="m1.4 67.6-1.3.6m11-5.2 9.7-4.5 4.2-2 .8-.4M11.1 63l-9.7 4.5" vector-effect="non-scaling-stroke"/></g><clipPath id="f"><path d="M1 1h80v96H1z"/></clipPath><clipPath id="m"><path d="M82 1h80v96H82z"/></clipPath><clipPath id="o"><path d="M163 1h80v96h-80z"/></clipPath><clipPath id="q"><path d="M244 1h80v96h-80z"/></clipPath><clipPath id="s"><path d="M325 1h80v96h-80z"/></clipPath><clipPath id="u"><path d="M406 1h80v96h-80z"/></clipPath><use xlink:href="#a" id="v" width="25.4" height="47.3" transform="matrix(-.6 -.69 -.03 .72 24.3 56.1)"/><use xlink:href="#b" id="t" width="21.1" height="54" transform="matrix(-.81 -.75 0 1 24.45 15.85)"/><use xlink:href="#c" id="r" width="25.7" height="42" transform="translate(1.35 35.15)"/><use xlink:href="#d" id="p" width="25.4" height="31.9" transform="translate(2.15 51.05)"/><use xlink:href="#a" id="n" width="25.4" height="47.3" transform="translate(1.55 35.5)"/><use xlink:href="#e" id="k" width="25.9" height="72.3" transform="translate(0 6.1)"/></defs><g clip-path="url(#f)"><g transform="translate(32.1 71.15)"><use xlink:href="#g" width="34.6" height="68.3" transform="translate(1.35 -53.35)"/><use xlink:href="#h" width="27.7" height="79" transform="matrix(1.062 -.082 -.3522 1.0317 0 -64.05)"/><use xlink:href="#i" width="26.9" height="74" transform="matrix(.8444 .6317 -.3285 .9622 2.25 -69.35)"/><use xlink:href="#j" width="19.6" height="69.2" transform="matrix(-1.3331 .7999 -.3285 .9623 48.7 -65.45)"/><use xlink:href="#k" width="27.6" height="90.3" transform="matrix(1.062 -.082 -.3522 1.0317 .7 -67.9)"/><use xlink:href="#l" width="52.3" height="77.5" transform="translate(-23 -63.8)"/></g></g><g clip-path="url(#m)"><g transform="translate(113.1 71.15)"><use xlink:href="#g" width="34.6" height="68.3" transform="translate(1.35 -53.35)"/><use xlink:href="#h" width="27.7" height="79" transform="matrix(1.062 -.082 -.3522 1.0317 0 -64.05)"/><use xlink:href="#i" width="26.9" height="74" transform="matrix(.8444 .6317 -.3285 .9622 2.25 -69.35)"/><use xlink:href="#j" width="19.6" height="69.2" transform="matrix(-1.3331 .7999 -.3285 .9623 48.7 -65.45)"/><use xlink:href="#n" width="27.6" height="90.3" transform="matrix(1.062 -.082 -.3522 1.0317 .7 -67.9)"/><use xlink:href="#l" width="52.3" height="77.5" transform="translate(-23 -63.8)"/></g></g><g clip-path="url(#o)"><g transform="translate(194.1 71.15)"><use xlink:href="#g" width="34.6" height="68.3" transform="translate(1.35 -53.35)"/><use xlink:href="#h" width="27.7" height="79" transform="matrix(1.062 -.082 -.3522 1.0317 0 -64.05)"/><use xlink:href="#i" width="26.9" height="74" transform="matrix(.8444 .6317 -.3285 .9622 2.25 -69.35)"/><use xlink:href="#j" width="19.6" height="69.2" transform="matrix(-1.3331 .7999 -.3285 .9623 48.7 -65.45)"/><use xlink:href="#p" width="27.6" height="90.3" transform="matrix(1.062 -.082 -.3522 1.0317 .7 -67.9)"/><use xlink:href="#l" width="52.3" height="77.5" transform="translate(-23 -63.8)"/></g></g><g clip-path="url(#q)"><g transform="translate(275.1 71.15)"><use xlink:href="#g" width="34.6" height="68.3" transform="translate(1.35 -53.35)"/><use xlink:href="#h" width="27.7" height="79" transform="matrix(1.062 -.082 -.3522 1.0317 0 -64.05)"/><use xlink:href="#i" width="26.9" height="74" transform="matrix(.8444 .6317 -.3285 .9622 2.25 -69.35)"/><use xlink:href="#j" width="19.6" height="69.2" transform="matrix(-1.3331 .7999 -.3285 .9623 48.7 -65.45)"/><use xlink:href="#r" width="27.6" height="90.3" transform="matrix(1.062 -.082 -.3522 1.0317 .7 -67.9)"/><use xlink:href="#l" width="52.3" height="77.5" transform="translate(-23 -63.8)"/></g></g><g clip-path="url(#s)"><g transform="translate(356.1 71.15)"><use xlink:href="#g" width="34.6" height="68.3" transform="translate(1.35 -53.35)"/><use xlink:href="#h" width="27.7" height="79" transform="matrix(1.062 -.082 -.3522 1.0317 0 -64.05)"/><use xlink:href="#i" width="26.9" height="74" transform="matrix(.8444 .6317 -.3285 .9622 2.25 -69.35)"/><use xlink:href="#j" width="19.6" height="69.2" transform="matrix(-1.3331 .7999 -.3285 .9623 48.7 -65.45)"/><use xlink:href="#t" width="27.6" height="90.3" transform="matrix(1.062 -.082 -.3522 1.0317 .7 -67.9)"/><use xlink:href="#l" width="52.3" height="77.5" transform="translate(-23 -63.8)"/></g></g><g clip-path="url(#u)"><g transform="translate(437.1 71.15)"><use xlink:href="#g" width="34.6" height="68.3" transform="translate(1.35 -53.35)"/><use xlink:href="#h" width="27.7" height="79" transform="matrix(1.062 -.082 -.3522 1.0317 0 -64.05)"/><use xlink:href="#i" width="26.9" height="74" transform="matrix(.8444 .6317 -.3285 .9622 2.25 -69.35)"/><use xlink:href="#j" width="19.6" height="69.2" transform="matrix(-1.3331 .7999 -.3285 .9623 48.7 -65.45)"/><use xlink:href="#v" width="27.6" height="90.3" transform="matrix(1.062 -.082 -.3522 1.0317 .7 -67.9)"/><use xlink:href="#l" width="52.3" height="77.5" transform="translate(-23 -63.8)"/></g></g></svg>