<svg xmlns="http://www.w3.org/2000/svg" xmlns:xlink="http://www.w3.org/1999/xlink" width="130" height="79" viewBox="0 0 130 79"><defs><g id="o"><path fill="#5d4d33" d="M5.6 10.1 24.3.5l3.1-.4.2.1q-5 2.7-14.9 7zm23.7-9 2.5 1.2-.1.5-2 .8-6.3 2.9q-2 .8-5.2 3-3.3 2.1-3.7 3.3l-4.7 2.4-3.7.8-1.2-.7q1.5-1.5 5.2-3.8l1-.5.3-.2 2.2-1.3.4-.2.4-.3.2-.1 3-1.6zM10.9 11.7l-.3.7z"/><path fill="#655438" d="m27.6.2 1.7 1-11.7 6.2-3 1.6-.2.1-.4.3-.4.2-2.2 1.3-.3.2-1 .5q-3.7 2.4-5.2 4l-1.5-.8 3.2-2.4-3.8 2-2-1 2.3-1.9 2.5-1.3 7.1-3Q22.6 3 27.6.2m4.1 2.7L31.6 4l-17.1 8.9q.4-1.2 3.6-3.3 3.3-2.2 5.3-3l6.4-2.9zM12.7 7l-.3.8zm2.7.3-1 1.2zM12 8.7l-.7 1.6z"/><path fill="#928a69" d="m31.8 2.4 1.5 2.7L31.6 4l.1-1.1zm-22 12.9-2.6 2.2-1-1.4z"/><path fill="#827232" d="M33.3 5.1 7.2 18.5v-1l2.6-2.2 4.7-2.4L31.6 4zM3.5 15.7l-.7.7v-2l3.8-2-3.2 2.4z"/><path fill="#908150" d="m7.1 18.5-3.7-1.9v-1.9l1.5.8 1.2.6 1 1.4zm-4.3-2.2L0 14.9v-1l.7-.6 2 1z"/><path fill="none" stroke="#000" stroke-linecap="round" stroke-linejoin="round" stroke-opacity=".3" stroke-width="__RESOLUTION__" d="M5.6 10.1 24.3.5l3.1-.4.2.1 1.7 1 2.5 1.2h0l1.5 2.7h0L7.2 18.5l-3.8-1.9m-.6-.4L0 15v-1l.7-.6L3 11.5l2.5-1.3" vector-effect="non-scaling-stroke"/><path fill="none" stroke="#000" stroke-linecap="round" stroke-linejoin="round" stroke-opacity=".2" stroke-width="__RESOLUTION__" d="M3.4 16.6v-1l-.6.7m9.6-8.4.3-.8M14 9.5l-.4.2m.8-1 1-1.2m-4.8 5 .3-.8m-4.3.7-3.2 2.4v1m8-5.4.7-1.6" vector-effect="non-scaling-stroke"/><path fill="#656425" d="m26.4 6.7-3.6.5q1.1-1.5.5-2.5-1-.8-2.9-.8-2-.3-5.7 1.5L24.3.6l3.2-.5 4.3 2.4.6 1z"/><path fill="#434319" d="m32.4 3.5.9 1.6L24 9.9q2-1.5 2.4-3.2z"/></g><g id="n"><path fill="#645336" d="M5.6 10.1 24.3.5l3.1-.4.2.1q-5 2.7-14.9 7zm23.7-9 2.5 1.2-.1.5-2 .8-6.3 2.9q-2 .8-5.2 3-3.3 2.1-3.7 3.3l-4.7 2.4-3.7.8-1.2-.7q1.5-1.5 5.2-3.8l1-.5.3-.2 2.2-1.3.4-.2.4-.3.2-.1 3-1.6zM10.9 11.7l-.3.7z"/><path fill="#6c583b" d="m27.6.2 1.7 1-11.7 6.2-3 1.6-.2.1-.4.3-.4.2-2.2 1.3-.3.2-1 .5q-3.7 2.4-5.2 4l-1.5-.8 3.2-2.4-3.8 2-2-1 2.3-1.9 2.5-1.3 7.1-3Q22.6 3 27.6.2m4.1 2.7L31.6 4l-17.1 8.9q.4-1.2 3.6-3.3 3.3-2.2 5.3-3l6.4-2.9zM12.7 7l-.3.8zm2.7.3-1 1.2zM12 8.7l-.7 1.6z"/><path fill="#9c9370" d="m31.8 2.4 1.5 2.7L31.6 4l.1-1.1zm-22 12.9-2.6 2.2-1-1.4z"/><path fill="#8b7936" d="M33.3 5.1 7.2 18.5v-1l2.6-2.2 4.7-2.4L31.6 4zM3.5 15.7l-.7.7v-2l3.8-2-3.2 2.4z"/><path fill="#998a55" d="m7.1 18.5-3.7-1.9v-1.9l1.5.8 1.2.6 1 1.4zm-4.3-2.2L0 14.9v-1l.7-.6 2 1z"/><path fill="none" stroke="#000" stroke-linecap="round" stroke-linejoin="round" stroke-opacity=".3" stroke-width="__RESOLUTION__" d="M5.6 10.1 24.3.5l3.1-.4.2.1 1.7 1 2.5 1.2h0l1.5 2.7h0L7.2 18.5l-3.8-1.9m-.6-.4L0 15v-1l.7-.6L3 11.5l2.5-1.3" vector-effect="non-scaling-stroke"/><path fill="none" stroke="#000" stroke-linecap="round" stroke-linejoin="round" stroke-opacity=".2" stroke-width="__RESOLUTION__" d="M3.4 16.6v-1l-.6.7m9.6-8.4.3-.8M14 9.5l-.4.2m.8-1 1-1.2m-4.8 5 .3-.8m-4.3.7-3.2 2.4v1m8-5.4.7-1.6" vector-effect="non-scaling-stroke"/><path fill="#6c6927" d="m26.4 6.7-3.6.5q1.1-1.5.5-2.5-1-.8-2.9-.8-2-.3-5.7 1.5L24.3.6l3.2-.5 4.3 2.4.6 1z"/><path fill="#47471a" d="m32.4 3.5.9 1.6L24 9.9q2-1.5 2.4-3.2z"/></g><g id="m"><path fill="#898163" d="m31.6 4 .1-1.1v-.4L33.4 5zM7.1 17.6l-1-1.6 3.7-.7z"/><path fill="#5f4e35" d="M31.7 2.9 31.6 4l-17.1 8.9q.4-1.2 3.7-3.3 3.2-2.2 5.3-3l6.3-2.9zM27.6.1l1.7 1-11.6 6.1-3 1.7-.2.2-.5.2-.5.3-2 1.2-.4.1-.4.3-.6.3Q6.4 14 4.9 15.6l-2-1.1-.9.6-.6-.3-.6-.3 1-.6-1-.5 2.3-1.9 2.4-1.2 7.2-3-.3.7.3-.8Q22.6 3 27.6.2M12 8.7l-.6 1.6zm3.4-1.3L14.7 9zM3.5 16.7l1.1.6-1.6.8-1.5-.7z"/><path fill="#7a6a2f" d="m31.6 4 1.6 1.1-26 13.5v-1l2.6-2.3 4.7-2.5zM1.4 14.7l.6.3.9-.7v.1l.7 1.7-.7.2-.7-.4z"/><path fill="#584830" d="m31.8 2.5-.1.4-2 .8-6.2 2.8q-2.1.9-5.3 3.1-3.2 2.1-3.7 3.3l-4.7 2.4-3.7.8-1.2-.7q1.5-1.5 5.2-3.7l.6-.4.4-.3.3-.2 2.1-1.2.5-.2.4-.2.3-.2 3-1.7 11.6-6.1zM5.6 10.3 24.3.5l3.1-.4.2.1q-5 2.8-14.9 7zm5 2.2.1-1.1z"/><path fill="#87794b" d="m.8 13.3 1 .5-1 .5.6.4.8 1.3L0 14.9v-1zm2 1.1 2.1 1 1.1.7 1.1 1.4v1l-2.4-1.2-1.1-.6-.7-.4.7-.2z"/><path fill="none" stroke="#000" stroke-linecap="round" stroke-linejoin="round" stroke-opacity=".3" stroke-width="__RESOLUTION__" d="m33.3 5.1-1.5-2.6v-.1l-2.5-1.2-1.7-1-.2-.1-3.1.4-18.7 9.7L3 11.4.8 13.3l-.7.6v1l2 1 .8.4.7.4 1.1.6 2.4 1.3z" vector-effect="non-scaling-stroke"/><path fill="none" stroke="#000" stroke-linecap="round" stroke-linejoin="round" stroke-opacity=".2" stroke-width="__RESOLUTION__" d="m14 9.4-.5.3m-2.8 1.6-.2 1.1m1.8-4.5.4-.8m-1.2 3.2.5-1.6m2.7.3.7-1.6M3.5 16.7l-2 .7 1.5.7 1.6-.9" vector-effect="non-scaling-stroke"/><path fill="#5f5d22" d="M26.4 6.7q-1.8.2.2-.1-2.7-.8-9.7 1.4 5.4-4.1 3.5-4.1-2-.3-5.7 1.5L24.3.5l3.2-.4 4.3 2.4.6 1-5.8 3.1zm-.6-1.3 2.2-.9.9-1h-3l-2.4 1.9zM13.3 8.7h2.4L10.9 11z"/><path fill="#3f3f17" d="m32.4 3.5.9 1.6L24 9.9q2-1.5 2.4-3.2l.2-.1z"/></g><g id="l"><path fill="url(#a)" d="M37.7 6.2q1.7 10.4 5.5 15.7h-7.1Q33 15.4 32.7 5.8z" transform="translate(.25 .1)"/><path fill="#614f36" fill-opacity=".6" d="M33 2.2h2.5l2.6 4.6-2.7 1.5-2.7-3.7 1-1.5-1.6.8h-2.4z"/><path fill="#614f36" d="M29.8 3.9H32l-1.6.9-4 .8zm2.8.7 2.8 3.7-6.7 3.6q5.3-4.1 3.8-3.8h-3z"/><path fill="#766141" fill-opacity=".6" d="m32.2 3.9 1.5-.8-1 1.5z"/><path fill="#493f2a" fill-opacity=".6" d="m35.4 8.3 2.8-1.5-3.1 4.6-2.1 1.1z"/><path fill="#493f2a" d="M33 12.5 9.3 24.9l.3-.4 2.2-3.3L28.7 12l6.7-3.6zm-29.3 10-3 1.3-.4-2 3-1.6z"/><path fill="#b29759" d="M9.3 24.8h-.2l.5-.4-.5.4H5.7L3.8 23l-.1-.5-.4-2.3 3.1 3 .6-.5.5.6 2.7-2.1-.2-.7.2.7-2.6 2-.5-.5 2.9-2.2 1-.7.8 1.3-2.2 3.3z"/><path fill="#766141" d="M9 24.8 7.3 26H5l2.3-1.4zM32 4l.5.7-3.1 3.5h3q1.5-.3-3.8 3.9L11.8 21l-.7-1.4L8.9 16 30.6 4.8z"/><path fill="#b5a265" d="M3.4 20.2 3.2 19l3.1-3.3H9l2.2 4-1.1.7-3 2.2-.6.5zm3.6.3v-1.8l-1.8 1.8L7 22.7l-1.8-2.2L7 18.7zm1.8-4.6 1.2 4.6z"/><path fill="#846c49" d="m6.4 15.9 20-10.4 4.2-.7-21.8 11z"/><path fill="none" stroke="#000" stroke-linecap="round" stroke-linejoin="round" stroke-opacity=".3" stroke-width="__RESOLUTION__" d="m33 2.2-3.2 1.7-3.4 1.7-20 10.3L3 19l.3 1-3.1 1.6.5 2 2.9-1.2.1.5M35 11.4l-2.1 1L9.3 24.9H5.7m-2-2.3-.4-2.3" vector-effect="non-scaling-stroke"/><path fill="none" stroke="#000" stroke-linecap="round" stroke-linejoin="round" stroke-opacity=".2" stroke-width="__RESOLUTION__" d="M9 24.8 7.3 26H5l2.3-1.4m1.8 0 .5-.3" vector-effect="non-scaling-stroke"/><path fill="none" stroke="#000" stroke-linecap="round" stroke-linejoin="round" stroke-opacity=".1" stroke-width="__RESOLUTION__" d="m7 22.7-1.8-2.2L7 18.7v1.8m3 0 .2.7-2.6 2-.5-.5m2.9-2.2-1.2-4.6" vector-effect="non-scaling-stroke"/><path fill="#b5a265" d="m10.5 20.2-1.5.6-1.3-2.4 1.2-.8z"/><path fill="#766141" d="m9 17.6 3.3-1.6 1.1 2-3 2.2z"/><path fill="none" stroke="#000" stroke-linecap="round" stroke-linejoin="round" stroke-opacity=".3" stroke-width="__RESOLUTION__" d="m10.5 20.2-1.5.6-1.3-2.4 1.2-.8 3.4-1.6m1.1 2-3 2.2" vector-effect="non-scaling-stroke"/><path fill="none" stroke="#000" stroke-linecap="round" stroke-linejoin="round" stroke-opacity=".2" stroke-width="__RESOLUTION__" d="m12.3 16 1.4-.7m.6 2.2.8-.5m1.2-.6.8-.5" vector-effect="non-scaling-stroke"/><path fill="#54541f" d="m34.3 5.5 1.4 2.6-3.2 4.7-3.7 1.9q3-2.2 4.7-5.2-1.5-.7-4.4.5-2.6-.6-5.2 2.3 1-1.3-.7-1 1.4-1 2-2.1L29 7.6h3z"/><path fill="#7f7d2e" d="M25.2 9.2q.3-.7.2-1.6h-2.8L30 3.8l3-.4 1.1 2.1-2 2.1h-3.3zm-11.5 1.2h.9v1H16l1-1.5h.4l-.6 1.7 2-.7.5.6-2.2 2.4-5.3.3 1.8-2z"/><path fill="#766141" fill-opacity=".6" d="m37.8 5.8-1.1-2.4 1.8-.9L40 4.7z"/><path fill="#766141" d="m36.7 3.4 1.1 2.4L35 7l-1.5-2.3z"/><path fill="#b5a265" d="M33.6 4.8 35 7.1l-1.2.8-1.5-2.2zm-3.2-2.2.6 1.5h-2l-.2-1.5z"/><path fill="#493f2a" fill-opacity=".6" d="m34.3.9 1.3-.6v1.3l-1 .6z"/><path fill="#846c49" fill-opacity=".6" d="m35.6.3-1.3.6-2 .1 2-.9z"/><path fill="#493f2a" d="m34.3.9.3 1.3-3.7 1.9-.5-1.5z"/><path fill="#846c49" d="m32.3 1 2-.2-3.9 1.8h-1.6z"/><path fill="none" stroke="#000" stroke-linecap="round" stroke-linejoin="round" stroke-opacity=".2" stroke-width="__RESOLUTION__" d="m37.8 5.8 2-1.1m-1.2-2.2-2 .9-3 1.4-1.4 1 1.5 2.1 1.3-.8 2.8-1.3m-3.2-3.6 1-.6M34.3.1l-2 .9-3.5 1.6.3 1.5h1.8l3.6-1.9" vector-effect="non-scaling-stroke"/></g><g id="k"><path fill="#b7ad84" d="m31.6 4 .1-1.1v-.4L33.4 5zM7.1 17.6l-1-1.6 3.7-.7z"/><path fill="#7f6947" d="M31.7 2.9 31.6 4l-17.1 8.9q.4-1.2 3.7-3.3 3.2-2.2 5.3-3l6.3-2.9zM27.6.1l1.7 1-11.6 6.1-3 1.7-.2.2-.5.2-.5.3-2 1.2-.4.1-.4.3-.6.3Q6.4 14 4.9 15.6l-2-1.1-.9.6-.6-.3-.6-.3 1-.6-1-.5 2.3-1.9 2.4-1.2 7.2-3-.3.7.3-.8Q22.6 3 27.6.2M12 8.7l-.6 1.6zm3.4-1.3L14.7 9zM3.5 16.7l1.1.6-1.6.8-1.5-.7z"/><path fill="#a38f3f" d="m31.6 4 1.6 1.1-26 13.5v-1l2.6-2.3 4.7-2.5zM1.4 14.7l.6.3.9-.7v.1l.7 1.7-.7.2-.7-.4z"/><path fill="#766141" d="m31.8 2.5-.1.4-2 .8-6.2 2.8q-2.1.9-5.3 3.1-3.2 2.1-3.7 3.3l-4.7 2.4-3.7.8-1.2-.7q1.5-1.5 5.2-3.7l.6-.4.4-.3.3-.2 2.1-1.2.5-.2.4-.2.3-.2 3-1.7 11.6-6.1zM5.6 10.3 24.3.5l3.1-.4.2.1q-5 2.8-14.9 7zm5 2.2.1-1.1z"/><path fill="#b5a265" d="m.8 13.3 1 .5-1 .5.6.4.8 1.3L0 14.9v-1zm2 1.1 2.1 1 1.1.7 1.1 1.4v1l-2.4-1.2-1.1-.6-.7-.4.7-.2z"/><path fill="none" stroke="#000" stroke-linecap="round" stroke-linejoin="round" stroke-opacity=".3" stroke-width="__RESOLUTION__" d="m33.3 5.1-1.5-2.6v-.1l-2.5-1.2-1.7-1-.2-.1-3.1.4-18.7 9.7L3 11.4.8 13.3l-.7.6v1l2 1 .8.4.7.4 1.1.6 2.4 1.3z" vector-effect="non-scaling-stroke"/><path fill="none" stroke="#000" stroke-linecap="round" stroke-linejoin="round" stroke-opacity=".2" stroke-width="__RESOLUTION__" d="m14 9.4-.5.3m-2.8 1.6-.2 1.1m1.8-4.5.4-.8m-1.2 3.2.5-1.6m2.7.3.7-1.6M3.5 16.7l-2 .7 1.5.7 1.6-.9" vector-effect="non-scaling-stroke"/><path fill="#7f7d2e" d="M26.4 6.7q-1.8.2.2-.1-2.7-.8-9.7 1.4 5.4-4.1 3.5-4.1-2-.3-5.7 1.5L24.3.5l3.2-.4 4.3 2.4.6 1-5.8 3.1zm-.6-1.3 2.2-.9.9-1h-3l-2.4 1.9zM13.3 8.7h2.4L10.9 11z"/><path fill="#54541f" d="m32.4 3.5.9 1.6L24 9.9q2-1.5 2.4-3.2l.2-.1z"/></g><g id="j"><path fill="#6c593b" d="M5.6 10.1 24.3.5l3.1-.4.2.1q-5 2.7-14.9 7zm23.7-9 2.5 1.2-.1.5-2 .8-6.3 2.9q-2 .8-5.2 3-3.3 2.1-3.7 3.3l-4.7 2.4-3.7.8-1.2-.7q1.5-1.5 5.2-3.8l1-.5.3-.2 2.2-1.3.4-.2.4-.3.2-.1 3-1.6zM10.9 11.7l-.3.7z"/><path fill="#756041" d="m27.6.2 1.7 1-11.7 6.2-3 1.6-.2.1-.4.3-.4.2-2.2 1.3-.3.2-1 .5q-3.7 2.4-5.2 4l-1.5-.8 3.2-2.4-3.8 2-2-1 2.3-1.9 2.5-1.3 7.1-3Q22.6 3 27.6.2m4.1 2.7L31.6 4l-17.1 8.9q.4-1.2 3.6-3.3 3.3-2.2 5.3-3l6.4-2.9zM12.7 7l-.3.8zm2.7.3-1 1.2zM12 8.7l-.7 1.6z"/><path fill="#a89f7a" d="m31.8 2.4 1.5 2.7L31.6 4l.1-1.1zm-22 12.9-2.6 2.2-1-1.4z"/><path fill="#96833a" d="M33.3 5.1 7.2 18.5v-1l2.6-2.2 4.7-2.4L31.6 4zM3.5 15.7l-.7.7v-2l3.8-2-3.2 2.4z"/><path fill="#a6955c" d="m7.1 18.5-3.7-1.9v-1.9l1.5.8 1.2.6 1 1.4zm-4.3-2.2L0 14.9v-1l.7-.6 2 1z"/><path fill="none" stroke="#000" stroke-linecap="round" stroke-linejoin="round" stroke-opacity=".3" stroke-width="__RESOLUTION__" d="M5.6 10.1 24.3.5l3.1-.4.2.1 1.7 1 2.5 1.2h0l1.5 2.7h0L7.2 18.5l-3.8-1.9m-.6-.4L0 15v-1l.7-.6L3 11.5l2.5-1.3" vector-effect="non-scaling-stroke"/><path fill="none" stroke="#000" stroke-linecap="round" stroke-linejoin="round" stroke-opacity=".2" stroke-width="__RESOLUTION__" d="M3.4 16.6v-1l-.6.7m9.6-8.4.3-.8M14 9.5l-.4.2m.8-1 1-1.2m-4.8 5 .3-.8m-4.3.7-3.2 2.4v1m8-5.4.7-1.6" vector-effect="non-scaling-stroke"/><path fill="#75722a" d="m26.4 6.7-3.6.5q1.1-1.5.5-2.5-1-.8-2.9-.8-2-.3-5.7 1.5L24.3.6l3.2-.5 4.3 2.4.6 1z"/><path fill="#4d4c1c" d="m32.4 3.5.9 1.6L24 9.9q2-1.5 2.4-3.2z"/></g><g id="i"><path fill="url(#a)" d="M37.7 6.2q1.7 10.4 5.5 15.7h-7.1Q33 15.4 32.7 5.8z" transform="translate(.25 .1)"/><path fill="#54442e" fill-opacity=".6" d="M33 2.2h2.5l2.6 4.6-2.7 1.5-2.7-3.7 1-1.5-1.6.8h-2.4z"/><path fill="#54442e" d="M29.8 3.9H32l-1.6.9-4 .8zm2.8.7 2.8 3.7-6.7 3.6q5.3-4.1 3.8-3.8h-3z"/><path fill="#665438" fill-opacity=".6" d="m32.2 3.9 1.5-.8-1 1.5z"/><path fill="#3f3625" fill-opacity=".6" d="m35.4 8.3 2.8-1.5-3.1 4.6-2.1 1.1z"/><path fill="#3f3625" d="M33 12.5 9.3 24.9l.3-.4 2.2-3.3L28.7 12l6.7-3.6zm-29.3 10-3 1.3-.4-2 3-1.6z"/><path fill="#9b824d" d="M9.3 24.8h-.2l.5-.4-.5.4H5.7L3.8 23l-.1-.5-.4-2.3 3.1 3 .6-.5.5.6 2.7-2.1-.2-.7.2.7-2.6 2-.5-.5 2.9-2.2 1-.7.8 1.3-2.2 3.3z"/><path fill="#665438" d="M9 24.8 7.3 26H5l2.3-1.4zM32 4l.5.7-3.1 3.5h3q1.5-.3-3.8 3.9L11.8 21l-.7-1.4L8.9 16 30.6 4.8z"/><path fill="#9d8d57" d="M3.4 20.2 3.2 19l3.1-3.3H9l2.2 4-1.1.7-3 2.2-.6.5zm3.6.3v-1.8l-1.8 1.8L7 22.7l-1.8-2.2L7 18.7zm1.8-4.6 1.2 4.6z"/><path fill="#725d3f" d="m6.4 15.9 20-10.4 4.2-.7-21.8 11z"/><path fill="none" stroke="#000" stroke-linecap="round" stroke-linejoin="round" stroke-opacity=".3" stroke-width="__RESOLUTION__" d="m33 2.2-3.2 1.7-3.4 1.7-20 10.3L3 19l.3 1-3.1 1.6.5 2 2.9-1.2.1.5M35 11.4l-2.1 1L9.3 24.9H5.7m-2-2.3-.4-2.3" vector-effect="non-scaling-stroke"/><path fill="none" stroke="#000" stroke-linecap="round" stroke-linejoin="round" stroke-opacity=".2" stroke-width="__RESOLUTION__" d="M9 24.8 7.3 26H5l2.3-1.4m1.8 0 .5-.3" vector-effect="non-scaling-stroke"/><path fill="none" stroke="#000" stroke-linecap="round" stroke-linejoin="round" stroke-opacity=".1" stroke-width="__RESOLUTION__" d="m7 22.7-1.8-2.2L7 18.7v1.8m3 0 .2.7-2.6 2-.5-.5m2.9-2.2-1.2-4.6" vector-effect="non-scaling-stroke"/><path fill="#9d8d57" d="m10.5 20.2-1.5.6-1.3-2.4 1.2-.8z"/><path fill="#665438" d="m9 17.6 3.3-1.6 1.1 2-3 2.2z"/><path fill="none" stroke="#000" stroke-linecap="round" stroke-linejoin="round" stroke-opacity=".3" stroke-width="__RESOLUTION__" d="m10.5 20.2-1.5.6-1.3-2.4 1.2-.8 3.4-1.6m1.1 2-3 2.2" vector-effect="non-scaling-stroke"/><path fill="none" stroke="#000" stroke-linecap="round" stroke-linejoin="round" stroke-opacity=".2" stroke-width="__RESOLUTION__" d="m12.3 16 1.4-.7m.6 2.2.8-.5m1.2-.6.8-.5" vector-effect="non-scaling-stroke"/><path fill="#49481a" d="m34.3 5.5 1.4 2.6-3.2 4.7-3.7 1.9q3-2.2 4.7-5.2-1.5-.7-4.4.5-2.6-.6-5.2 2.3 1-1.3-.7-1 1.4-1 2-2.1L29 7.6h3z"/><path fill="#6e6d28" d="M25.2 9.2q.3-.7.2-1.6h-2.8L30 3.8l3-.4 1.1 2.1-2 2.1h-3.3zm-11.5 1.2h.9v1H16l1-1.5h.4l-.6 1.7 2-.7.5.6-2.2 2.4-5.3.3 1.8-2z"/><path fill="#665438" fill-opacity=".6" d="m37.8 5.8-1.1-2.4 1.8-.9L40 4.7z"/><path fill="#665438" d="m36.7 3.4 1.1 2.4L35 7l-1.5-2.3z"/><path fill="#9d8d57" d="M33.6 4.8 35 7.1l-1.2.8-1.5-2.2zm-3.2-2.2.6 1.5h-2l-.2-1.5z"/><path fill="#3f3625" fill-opacity=".6" d="m34.3.9 1.3-.6v1.3l-1 .6z"/><path fill="#725d3f" fill-opacity=".6" d="m35.6.3-1.3.6-2 .1 2-.9z"/><path fill="#3f3625" d="m34.3.9.3 1.3-3.7 1.9-.5-1.5z"/><path fill="#725d3f" d="m32.3 1 2-.2-3.9 1.8h-1.6z"/><path fill="none" stroke="#000" stroke-linecap="round" stroke-linejoin="round" stroke-opacity=".2" stroke-width="__RESOLUTION__" d="m37.8 5.8 2-1.1m-1.2-2.2-2 .9-3 1.4-1.4 1 1.5 2.1 1.3-.8 2.8-1.3m-3.2-3.6 1-.6M34.3.1l-2 .9-3.5 1.6.3 1.5h1.8l3.6-1.9" vector-effect="non-scaling-stroke"/></g><g id="e"><path fill="#9c9370" d="m31.6 4 .1-1.1v-.4L33.4 5zM7.1 17.6l-1-1.6 3.7-.7z"/><path fill="#6c583b" d="M31.7 2.9 31.6 4l-17.1 8.9q.4-1.2 3.7-3.3 3.2-2.2 5.3-3l6.3-2.9zM27.6.1l1.7 1-11.6 6.1-3 1.7-.2.2-.5.2-.5.3-2 1.2-.4.1-.4.3-.6.3Q6.4 14 4.9 15.6l-2-1.1-.9.6-.6-.3-.6-.3 1-.6-1-.5 2.3-1.9 2.4-1.2 7.2-3-.3.7.3-.8Q22.6 3 27.6.2M12 8.7l-.6 1.6zm3.4-1.3L14.7 9zM3.5 16.7l1.1.6-1.6.8-1.5-.7z"/><path fill="#8b7936" d="m31.6 4 1.6 1.1-26 13.5v-1l2.6-2.3 4.7-2.5zM1.4 14.7l.6.3.9-.7v.1l.7 1.7-.7.2-.7-.4z"/><path fill="#645336" d="m31.8 2.5-.1.4-2 .8-6.2 2.8q-2.1.9-5.3 3.1-3.2 2.1-3.7 3.3l-4.7 2.4-3.7.8-1.2-.7q1.5-1.5 5.2-3.7l.6-.4.4-.3.3-.2 2.1-1.2.5-.2.4-.2.3-.2 3-1.7 11.6-6.1zM5.6 10.3 24.3.5l3.1-.4.2.1q-5 2.8-14.9 7zm5 2.2.1-1.1z"/><path fill="#998a55" d="m.8 13.3 1 .5-1 .5.6.4.8 1.3L0 14.9v-1zm2 1.1 2.1 1 1.1.7 1.1 1.4v1l-2.4-1.2-1.1-.6-.7-.4.7-.2z"/><path fill="none" stroke="#000" stroke-linecap="round" stroke-linejoin="round" stroke-opacity=".3" stroke-width="__RESOLUTION__" d="m33.3 5.1-1.5-2.6v-.1l-2.5-1.2-1.7-1-.2-.1-3.1.4-18.7 9.7L3 11.4.8 13.3l-.7.6v1l2 1 .8.4.7.4 1.1.6 2.4 1.3z" vector-effect="non-scaling-stroke"/><path fill="none" stroke="#000" stroke-linecap="round" stroke-linejoin="round" stroke-opacity=".2" stroke-width="__RESOLUTION__" d="m14 9.4-.5.3m-2.8 1.6-.2 1.1m1.8-4.5.4-.8m-1.2 3.2.5-1.6m2.7.3.7-1.6M3.5 16.7l-2 .7 1.5.7 1.6-.9" vector-effect="non-scaling-stroke"/><path fill="#6c6927" d="M26.4 6.7q-1.8.2.2-.1-2.7-.8-9.7 1.4 5.4-4.1 3.5-4.1-2-.3-5.7 1.5L24.3.5l3.2-.4 4.3 2.4.6 1-5.8 3.1zm-.6-1.3 2.2-.9.9-1h-3l-2.4 1.9zM13.3 8.7h2.4L10.9 11z"/><path fill="#47471a" d="m32.4 3.5.9 1.6L24 9.9q2-1.5 2.4-3.2l.2-.1z"/></g><g id="c"><path fill="#766141" d="M5.6 10.1 24.3.5l3.1-.4.2.1q-5 2.7-14.9 7zm23.7-9 2.5 1.2-.1.5-2 .8-6.3 2.9q-2 .8-5.2 3-3.3 2.1-3.7 3.3l-4.7 2.4-3.7.8-1.2-.7q1.5-1.5 5.2-3.8l1-.5.3-.2 2.2-1.3.4-.2.4-.3.2-.1 3-1.6zM10.9 11.7l-.3.7z"/><path fill="#7f6947" d="m27.6.2 1.7 1-11.7 6.2-3 1.6-.2.1-.4.3-.4.2-2.2 1.3-.3.2-1 .5q-3.7 2.4-5.2 4l-1.5-.8 3.2-2.4-3.8 2-2-1 2.3-1.9 2.5-1.3 7.1-3Q22.6 3 27.6.2m4.1 2.7L31.6 4l-17.1 8.9q.4-1.2 3.6-3.3 3.3-2.2 5.3-3l6.4-2.9zM12.7 7l-.3.8zm2.7.3-1 1.2zM12 8.7l-.7 1.6z"/><path fill="#b7ad84" d="m31.8 2.4 1.5 2.7L31.6 4l.1-1.1zm-22 12.9-2.6 2.2-1-1.4z"/><path fill="#a38f3f" d="M33.3 5.1 7.2 18.5v-1l2.6-2.2 4.7-2.4L31.6 4zM3.5 15.7l-.7.7v-2l3.8-2-3.2 2.4z"/><path fill="#b5a265" d="m7.1 18.5-3.7-1.9v-1.9l1.5.8 1.2.6 1 1.4zm-4.3-2.2L0 14.9v-1l.7-.6 2 1z"/><path fill="none" stroke="#000" stroke-linecap="round" stroke-linejoin="round" stroke-opacity=".3" stroke-width="__RESOLUTION__" d="M5.6 10.1 24.3.5l3.1-.4.2.1 1.7 1 2.5 1.2h0l1.5 2.7h0L7.2 18.5l-3.8-1.9m-.6-.4L0 15v-1l.7-.6L3 11.5l2.5-1.3" vector-effect="non-scaling-stroke"/><path fill="none" stroke="#000" stroke-linecap="round" stroke-linejoin="round" stroke-opacity=".2" stroke-width="__RESOLUTION__" d="M3.4 16.6v-1l-.6.7m9.6-8.4.3-.8M14 9.5l-.4.2m.8-1 1-1.2m-4.8 5 .3-.8m-4.3.7-3.2 2.4v1m8-5.4.7-1.6" vector-effect="non-scaling-stroke"/><path fill="#7f7d2e" d="m26.4 6.7-3.6.5q1.1-1.5.5-2.5-1-.8-2.9-.8-2-.3-5.7 1.5L24.3.6l3.2-.5 4.3 2.4.6 1z"/><path fill="#54541f" d="m32.4 3.5.9 1.6L24 9.9q2-1.5 2.4-3.2z"/></g><g id="r" transform="translate(.1 .1)"><use xlink:href="#b" width="117" height="59.6" transform="translate(7.35 15.4)"/><use xlink:href="#c" width="33.4" height="18.6" transform="translate(-.1 7.45)"/><use xlink:href="#e" width="33.4" height="18.6" transform="matrix(1 -.03 0 1 9.75 6.85)"/><use xlink:href="#c" width="33.4" height="18.6" transform="translate(18.95 4.8)"/><use xlink:href="#e" width="33.4" height="18.6" transform="matrix(1 -.14 0 1 22.75 8.15)"/><use xlink:href="#c" width="33.4" height="18.6" transform="translate(30.65 4.8)"/><use xlink:href="#f" width="40" height="33.8" filter="url(#g)" transform="matrix(1.09 .31 0 .86 52.7 5.85)"/><use xlink:href="#i" width="43.5" height="26.2" transform="translate(35.9 -.1)"/><use xlink:href="#j" width="33.4" height="18.6" transform="translate(45 8)"/><use xlink:href="#k" width="33.4" height="18.6" transform="translate(52.1 12)"/><use xlink:href="#c" width="33.4" height="18.6" transform="translate(62.4 14.5)"/><use xlink:href="#l" width="43.5" height="26.2" transform="translate(65.4 14.4)"/><use xlink:href="#e" width="33.4" height="18.6" transform="matrix(1 -.14 0 1 74.25 30.3)"/><use xlink:href="#m" width="33.4" height="18.6" transform="matrix(.89 0 0 .89 92.35 51.7)"/><use xlink:href="#n" width="33.4" height="18.6" transform="translate(79.25 33.25)"/><use xlink:href="#o" width="33.4" height="18.6" transform="matrix(1 -.08 0 1 87.15 44.2)"/><use xlink:href="#m" width="33.4" height="18.6" transform="matrix(.89 0 0 .89 97.5 59.9)"/></g><path id="p" fill="#000" fill-opacity=".3" d="M39.3 23.7Q37 30 30 32.5t-15.1-.2T2.8 23q-4.2-6.4-2-12.8 2-6.4 9.2-9t15.1.3 12.1 9.3 2 12.8"/><path id="b" fill="#000" fill-opacity=".3" d="m119.6 45.8 4.8 19.4-22.9 9.8Q94 70 85.6 64.8l2-3.4-4.3 2-8.8-5.1 4.7-5.5-8.7 3.2q-8.1-4.5-16.9-9.1l4.8-4-7.1 2.8-3-1.5-1.9 1-2.9-.5-3-2.4 1-1.6-4.1-1.9-1.6.8-7.4-4.1.3-.9 1.1-1.6-3.2-1.4L23 34l-.6.4-7.4-3.1 1.3-2.5-9-4 33.2-9.5 58 6.5z" transform="translate(-7.35 -15.4)"/><radialGradient id="a" cx="0" cy="0" r="819.2" gradientTransform="matrix(.02 0 0 .02 35.4 8.4)" gradientUnits="userSpaceOnUse" spreadMethod="pad"><stop offset="0" stop-color="#000" stop-opacity=".3"/><stop offset="1" stop-color="#000" stop-opacity="0"/></radialGradient><clipPath id="q"><path d="M1 1h128v77H1z"/></clipPath><filter id="g" filterUnits="userSpaceOnUse"><feConvolveMatrix divisor="49" in="SourceGraphic" kernelMatrix="1 1 1 1 1 1 1 1 1 1 1 1 1 1 1 1 1 1 1 1 1 1 1 1 1 1 1 1 1 1 1 1 1 1 1 1 1 1 1 1 1 1 1 1 1 1 1 1 1" order="7 7" result="filter1"/></filter><use xlink:href="#p" id="f" width="40" height="33.8"/></defs><g clip-path="url(#q)"><use xlink:href="#r" width="127.2" height="76.5" transform="translate(1 1)"/></g></svg>