<svg xmlns="http://www.w3.org/2000/svg" xmlns:xlink="http://www.w3.org/1999/xlink" width="181" height="157" viewBox="0 0 181 157"><defs><g id="n"><path fill="#7e693e" d="M27.9.9v7.8Q25.3 4.3 25.8 2zm-4.1 24.7-3.4 1.7v-6.2q3-4.4 2.5-7.8t-1-3.6l-.6-.8-.5-1.3-.4-1V4.9L23.8 3q2.3 5.1 1.3 8.1-3 12.6-1.4 14.5m-6.1 3.1-.4.2-2.4 1.3q3-8.4 2.4-10.3L15.8 15q-1.1-3 1.1-8.4l1.6-.9-1.6 4.7q-.7 1.4.2 3t3.4 1.6v5q-2.3 2.4-2.8 8.6M11 32.2l-2.5 1.3Q7.8 20.7 6 22.9t.2 11.6l-2.1 1.1Q2 27 4 20.8q2.5-4.5-.1-7.5L8.5 11q.8 1.2.5 6.5t2 14.7M.2 36H0zM11.5 9.4l.2-.1 1.2-.6q0 1.8 1.4 4.5.3 6.6-.7 9-1.1 2.3-2 1.8v2.6l-.7-1.2q-1.6-2.8-.7-4.5.9-2.2 1.5-2.7v-9 .1zm.2 10.7v-2zm-10-5.6.6-.3q.3 4.2-.6 6.4z"/><path fill="#90784a" d="m26.3 0 1.6.9L25.8 2l-1.7-.8zM.1 13.7l.4-.3.3-.1 1.5.9-.6.3zm9.8-5.1 1.4-.8 1.5.9-1.2.6-.1.1z"/><path fill="#77633a" d="M27.9 8.7v14.8l-4.1 2.1Q22 23.7 25 11.1q1-3-1.3-8.1l2-1q-.5 2.3 2.1 6.7m-7.5 18.6-2.8 1.4q.5-6.2 2.8-8.5v-7.8 2.7q-2.5 0-3.4-1.5-.9-1.7-.2-3.1l1.6-4.6 1.9-1.1h.1v1.9l.4.8v.1l.5 1.3.6.8q.4.3 1 3.7T20.4 21v6.2m-5.6 2.9-.4.2-1.2.6-1.6.8-.5.3Q8.7 22.7 9 17.4T8.5 11l3-1.6h.2v8.8q-.6.5-1.5 2.7-.8 1.7.8 4.5l.7 1.2V24q.8.5 1.9-1.9 1-2.3.7-8.9-1.4-2.7-1.5-4.5l4-2q-2.2 5.5-1.2 8.4l1.7 4.8q.4 1.9-2.6 10.3m-6.1 3.2-2.3 1.1q-2-9.4-.2-11.6 1.7-2.2 2.5 10.5m-4.4 2.2-2.6 1.3V20.6q1-2.2.7-6.4l1.6-.8q2.6 2.9.1 7.4-2 6.2.2 14.8m16.2-15v-.5z"/><path fill="#6d5c33" d="M1.6 36.9.1 36H0V19.8q1.5 1 1.7.8z"/><path fill="#655530" d="M0 19.8v-6.1h.1l1.5.9v6q-.2.2-1.5-.9"/><path fill="#a98e5e" d="m.8 13.3 1.5-.8 1.6.8-1.6.9zm5.8-3 3-1.6.3-.1 1.6.8-3 1.5zm4.8-2.4L14.9 6l1.8.7-3.8 2zM16.9 5l1.8-1 .2-.1 1.5.9-2 1zm5.6-3 1.7-.8 1.7.8-2 1z"/><path fill="#977e4e" d="m2.3 12.5 4.3-2.2 1.9.6-4.6 2.4q-.1-.2-1.6-.8M14.9 6l1.9-1 1.6.8-1.6.9zm3.9-2.1 3.6-1.8 1.4.9-3.4 1.8h-.1z"/><path fill="none" stroke="#0e1200" stroke-linecap="round" stroke-linejoin="round" stroke-opacity=".3" stroke-width="__RESOLUTION__" d="m26.3 0-2.2 1.2-1.7.8-3.6 2m9.1-3v7.8m0 1v13.8l-4.1 2.1-3.4 1.7-2.8 1.4m-.4.2-2.4 1.3m-.4.2-1.2.6m-1.6.8-.5.3-2.5 1.3-2.3 1.1-2.1 1.1L1.6 37h0M.1 36H0h0V13.7m.1 0 .4-.3m.3-.1 1.5-.8 4.3-2.2 3-1.6m.3-.1 1.4-.8L15 6l1.9-1 1.8-1m1.8 18.5v4.8m0-22.5v1.9l.4.8v.1m-.4 4.8v2.7m0 1v4.5M11.7 9.3v3.3m0 2.2v2.4m0 1V20m-10-5.6" vector-effect="non-scaling-stroke"/></g><g id="m"><path fill="#614c36" d="M27.9.9v7.8Q25.3 4.3 25.8 2zm-4.1 24.7-3.4 1.7v-6.2q3-4.4 2.5-7.8t-1-3.6l-.6-.8-.5-1.3-.4-1V4.9L23.8 3q2.3 5.1 1.3 8.1-3 12.6-1.4 14.5m-6.1 3.1-.4.2-2.4 1.3q3-8.4 2.4-10.3L15.8 15q-1.1-3 1.1-8.4l1.6-.9-1.6 4.7q-.7 1.4.2 3t3.4 1.6v5q-2.3 2.4-2.8 8.6M11 32.2l-2.5 1.3Q7.8 20.7 6 22.9t.2 11.6l-2.1 1.1Q2 27 4 20.8q2.5-4.5-.1-7.5L8.5 11q.8 1.2.5 6.5t2 14.7M.2 36H0zM11.5 9.4l.2-.1 1.2-.6q0 1.8 1.4 4.5.3 6.6-.7 9-1.1 2.3-2 1.8v2.6l-.7-1.2q-1.6-2.8-.7-4.5.9-2.2 1.5-2.7v-9 .1zm.2 10.7v-2zm-10-5.6.6-.3q.3 4.2-.6 6.4z"/><path fill="#705840" d="m26.3 0 1.6.9L25.8 2l-1.7-.8zM.1 13.7l.4-.3.3-.1 1.5.9-.6.3zm9.8-5.1 1.4-.8 1.5.9-1.2.6-.1.1z"/><path fill="#5b4632" d="M27.9 8.7v14.8l-4.1 2.1Q22 23.7 25 11.1q1-3-1.3-8.1l2-1q-.5 2.3 2.1 6.7m-7.5 18.6-2.8 1.4q.5-6.2 2.8-8.5v-7.8 2.7q-2.5 0-3.4-1.5-.9-1.7-.2-3.1l1.6-4.6 1.9-1.1h.1v1.9l.4.8v.1l.5 1.3.6.8q.4.3 1 3.7T20.4 21v6.2m-5.6 2.9-.4.2-1.2.6-1.6.8-.5.3Q8.7 22.7 9 17.4T8.5 11l3-1.6h.2v8.8q-.6.5-1.5 2.7-.8 1.7.8 4.5l.7 1.2V24q.8.5 1.9-1.9 1-2.3.7-8.9-1.4-2.7-1.5-4.5l4-2q-2.2 5.5-1.2 8.4l1.7 4.8q.4 1.9-2.6 10.3m-6.1 3.2-2.3 1.1q-2-9.4-.2-11.6 1.7-2.2 2.5 10.5m-4.4 2.2-2.6 1.3V20.6q1-2.2.7-6.4l1.6-.8q2.6 2.9.1 7.4-2 6.2.2 14.8m16.2-15v-.5z"/><path fill="#52402c" d="M1.6 36.9.1 36H0V19.8q1.5 1 1.7.8z"/><path fill="#4c3a29" d="M0 19.8v-6.1h.1l1.5.9v6q-.2.2-1.5-.9"/><path fill="#866c51" d="m.8 13.3 1.5-.8 1.6.8-1.6.9zm5.8-3 3-1.6.3-.1 1.6.8-3 1.5zm4.8-2.4L14.9 6l1.8.7-3.8 2zM16.9 5l1.8-1 .2-.1 1.5.9-2 1zm5.6-3 1.7-.8 1.7.8-2 1z"/><path fill="#775d44" d="m2.3 12.5 4.3-2.2 1.9.6-4.6 2.4q-.1-.2-1.6-.8M14.9 6l1.9-1 1.6.8-1.6.9zm3.9-2.1 3.6-1.8 1.4.9-3.4 1.8h-.1z"/><path fill="none" stroke="#000" stroke-linecap="round" stroke-linejoin="round" stroke-opacity=".3" stroke-width="__RESOLUTION__" d="m26.3 0-2.2 1.2-1.7.8-3.6 2m9.1-3v7.8m0 1v13.8l-4.1 2.1-3.4 1.7-2.8 1.4m-.4.2-2.4 1.3m-.4.2-1.2.6m-1.6.8-.5.3-2.5 1.3-2.3 1.1-2.1 1.1L1.6 37h0M.1 36H0h0V13.7m.1 0 .4-.3m.3-.1 1.5-.8 4.3-2.2 3-1.6m.3-.1 1.4-.8L15 6l1.9-1 1.8-1m1.8 18.5v4.8m0-22.5v1.9l.4.8v.1m-.4 4.8v2.7m0 1v4.5M11.7 9.3v3.3m0 2.2v2.4m0 1V20m-10-5.6" vector-effect="non-scaling-stroke"/></g><g id="l"><path fill="#faf9de" d="m50.4 10.7-5.2.4L47 8.9l-1.8 2.2zL47 9l-7.1-3.6-2.3 1.1v2.8-2.8L35 8l2.6 1.3 3.5 1.9 4.1-.1-4 .1.9.6 1.4.7-7.4 4L41 19l12.8-6.7zM.9 12.5l5.4-2.7.3-.2 5.7-3-2.1 3.2 6 .2 4-2.2-5-2.6-3 1.5-2 3 6 .3-2.7 1.5-1.4.8 7.5 4-3.2 1.6-2.3 1.4zm9.3-2.7-3.6-.2z"/><path fill="#fbfae6" d="m39.9 5.4-2.3 1.1L35 8l-7.4-4.1-7.5 4-5-2.7L24.3.5l5.1-.5zM25.4 1.5l-2.1 2.6z"/><path fill="#fae8b8" d="m37.7 9.4 3.4 1.8 1 .6L28 19.4l-14.5-7.9 2.8-1.5L20 7.8 27.7 4l7.4 4z"/><path fill="#940700" d="M53.8 12.4v15.5L27.5 41.4V30.9l5.8-7.8 7.7-4zm0 101v19.4l-26.3 13.6v-19.5z"/><path fill="#dd6f00" d="M53.8 27.9q1.9 1.3 0 3L27.5 44.4v-3zm0 79.5q1.9 1.3 0 3l-26.3 13.5v-3zm-39.2 7-1.2 1.3.4 1.4-1.7-.9-.4-1.6 1-1.1z"/><path fill="#d2c291" d="M53.8 30.9v76.5l-26.3 13.5v-32l2.3-9-2.3-9.2V47.4L.8 34v-3l21.6 10.9 5 2.6v-.1z"/><path fill="#770600" d="M53.8 110.4v3l-26.3 13.5v-3zm-41.4 9-.3-2.7v-.5l1.8.9v.3l-.1 2.7-.3 7.7z"/><path fill="#ca2b05" d="m27.5 146.4-.2.1L.9 132.9v-19.5l11.5 5.8 1.1 8.5.3-7.7 13.7 6.9zM.9 28V12.5l13.2 6.8 4 2 3.8 1.9 5.6 7.7v10.5zm26.6 16.4v.1l-5-2.6z"/><path fill="#a42404" d="M.9 113.5v-3l11.2 5.6v.5l.3 2.7zm13 3.5 7.2 3.7 1.4.7 5 2.6v2.9l-13.7-7 .1-2.6z"/><path fill="#ff9528" d="M.9 110.5q-1.8-1.2 0-3l11.8 5.9-1 1.1.4 1.6zM.9 31q-1.7-1.4 0-3l26.6 13.4v3l-5-2.5zm23.2 91.3-3-1.5zl3.4 1.7v-3l-12.9-6.6-1.2 1.3.4 1.4 7.3 3.7 1.4.7z"/><path fill="#ede9bc" d="M.9 107.5V34l26.6 13.4v73.5l-12.9-6.6-1.3-9-.7 8.1zm23.2 14.8 3.4 1.7v.1l-5-2.6z"/><path fill="#f5d681" d="m42.1 11.8 1.4.7-7.4 4-8.1 4.4-4.8-2.6-.4-.2-3.2-1.8-7.5-4 1.3-.8L28 19.4z"/><path fill="#f8f7d1" d="m19.6 16.3 3.2 1.8.4.1L28 21l8.1-4.4L41 19l-7.7 4-11.4.1-3.8-2 1-3-2.7-.2 2.7.1-1 3.1-4-2 2.3-1.2zm-.6 1.8h3.8z"/><path fill="#f3f1c2" d="m33.3 23-5.8 8-5.6-7.7z"/><path fill="#dacca3" d="m27.5 70.7 2.3 9.1-2.3 9.1z"/><path fill="#f3c854" d="m14.6 114.4-2-1 .7-8z"/><path fill="none" stroke="#000" stroke-linecap="round" stroke-linejoin="round" stroke-opacity=".3" stroke-width="__RESOLUTION__" d="m47 9-1.8 2 5.1-.3M37.7 6.6v2.8m3.5 1.8 4.1-.1m-39-1.3.3-.2 3.6.2 2-3.2.7-1m9.9 12.5.4.1m.1-14 2.1-2.6M10.2 9.8l6 .2m1.9 11.3 1-3.2-2.7-.2m6.4.2h-3.7" vector-effect="non-scaling-stroke"/><path fill="none" stroke="#000" stroke-linecap="round" stroke-linejoin="round" stroke-opacity=".3" stroke-width="1" d="m39.9 5.4-2.3 1.1L35 8l2.6 1.3 3.5 1.9 1 .6 1.4.7-7.4 4-8.1 4.4-4.8-2.6M41 19l12.8-6.7m-40.3-.9-1.4.8 7.5 4 3.2 1.8m13.3-1.7L41 19l-7.7 4M35 7.9l-7.5-4-7.5 4-3.9 2.1-2.7 1.5m1.7-6.3 5 2.6M16.5 18 14 19.3l4 2 3.8 1.9m-2.3-6.9-3.2 1.6M1 12.5l13.2 6.8m13.4 25.2v-.1l-5-2.5L1 30.9m52.9 0L27.5 44.4m-6.4 76.3 3 1.5 3.4 1.7 26.3-13.6m-40 6.7 7.3 3.7m-7.3-3.7-1.7-.9-11.2-5.6M27.5 124"/><path fill="none" stroke="#ff9528" stroke-linecap="round" stroke-linejoin="round" stroke-width="1" d="m27.5 41.4 26.3-13.5m-26.3 93 26.3-13.6m-39.2 7-2-.9"/><path fill="none" stroke="#fb7" stroke-linecap="round" stroke-linejoin="round" stroke-width="1" d="M27.5 41.4.9 28m26.6 92.9-12.9-6.6M.9 107.6l11.8 5.9"/><path fill="#f3f1d6" d="m3 53.4.1-6.1 1-1.3 9.8 4.8.7 1.5v7.6l-1.2.9-8.9-4.4z"/><path fill="#f2f0d2" d="m23 70.3.6 1.3V75l-.7.5-6.9-3.7-.6-1.1v-3.5l.8-.5z"/><path fill="#d9d16f" d="m7.5 90.5-1.5-3v-6L7.2 80l9.8 4.9.7 1.5v.8L16 85.6l-8.1-3.7-.7.7-.1 5 1.6 3.6z"/><path fill="#e1db8e" d="m8.7 91.1-1.6-3.5.2-5.1.6-.7 8.1 3.7 1.6 1.8V94l-1.3.9-6.4-3.2zm2.3 0-1.1.6z"/><path fill="#f0edc8" d="M17.6 110.5V107l.5-.7 4.4 2.2.4 1v3.5l-.3.7-4.7-2.2z"/><path fill="none" stroke="#000" stroke-linecap="round" stroke-linejoin="round" stroke-opacity=".2" stroke-width="__RESOLUTION__" d="m13.9 50.8.7 1.5v7.6l-1.2.9-8.9-4.4-1.5-3m12.5 17.4.5 1.1 7 3.6.6-.5v-3.5l-.7-1.2m-5.3 16.2-.7-1.5L7 80l-1 1.4-.1 6 1.5 3m2.4 1.2v5.5m0-5.5 1-.6m6.7 19.4.3 1 4.7 2.2.3-.7v-3.5l-.4-1" vector-effect="non-scaling-stroke"/><path fill="#f3f1d6" d="m32.4 53.8 12-6.4.8 1v6.8L44 58.1l-11.6 6.1-.8-.7v-8.8zm9.4 41.9-8.1 4.1-.6-.7v-7.6l.5-.7 8.4-4.4.5 1v5.8zm7.8-27.2L43 72l-.5-.5v-4.9l.5-.5 6.8-3.6.5.5v4z"/><path fill="none" stroke="#000" stroke-linecap="round" stroke-linejoin="round" stroke-opacity=".2" stroke-width="__RESOLUTION__" d="m44 58.1-11.6 6.1-.8-.7v-8.8l.8-.9m9.4 41.9-8.1 4.1-.6-.7v-7.6l.5-.7m16-22.3L43 72l-.5-.5v-4.9l.5-.5" vector-effect="non-scaling-stroke"/></g><g id="j"><path fill="#7e693e" d="M27.9.9v7.8Q23.8 6 25.8 2zm-4.1 24.7-3.4 1.7v-6.2q7-5 4.8-8.1-2.2-3.2-3-3.3l-.9-.8-.5-1.3-.4-1V4.9L23.8 3q-1.9 7.5 1.3 8.1 4.1 2.2-1.4 14.5m-6.1 3.1-.4.2-2.4 1.3q3-8.4 2.2-10.2l-1.9-4.7q-1.2-2.9 1.7-8.6l1.6-.9-1.8 5.1q-.8 2 0 3.7t3.8.5v5q-4 3-2.8 8.6M11 32.2l-2.5 1.3q-1.7-11-2.3 1.1l-2.1 1.1Q7.7 25.4 4 20.8q-1.6-1.5-.1-7.5L8.5 11q-1 1.3-2 6.7-1.1 5.4 4.6 14.5m.6-22.9 1.2-.6q0 1.8 1.4 4.5l-1.9 7q-.8 2.7-.7 3.8v2.6q-5-3.6-3.1-5.7 1.9-2.2 3-2.7zm0 10.8v-2zm-10-5.6.6-.3q.3 4.2-.6 6.4z"/><path fill="#90784a" d="m26.3 0 1.6.9L25.8 2l-1.7-.8zM.1 13.7l.4-.3.3-.1 1.5.9-.6.3zm9.8-5.1 1.4-.8 1.5.9-1.2.6-.1.1z"/><path fill="#77633a" d="M27.9 8.7v14.8l-4.1 2.1q5.4-12.4 1.3-14.5-3.2-.6-1.3-8.1l2-1q-2 4 2.1 6.7m-7.5 18.6-2.8 1.4q-1.2-5.6 2.8-8.5v.4-8.2 2.7q-2.9 1.3-3.7-.5-.8-1.7-.1-3.6l1.8-5.1 1.9-1.1h.1v1.9l.4.8v.1l.5 1.3 1 .8q.7.2 2.9 3.3t-4.8 8.1zm-5.6 2.9-.4.2-2.7 1.4-.6.3Q5.4 23 6.5 17.6q1-5.4 2-6.7l3-1.5h.2v8.8q-1.2.5-3.1 2.7t3 5.7V24q0-1.1.8-3.8l1.9-7q-1.4-2.7-1.5-4.5l4-2q-2.9 5.7-1.7 8.6l1.9 4.6q.8 1.9-2.2 10.3m-6.2 3.2-2.3 1.1q.6-12 2.3-1.1m-4.4 2.2-2.6 1.3V20.6q1-2.2.7-6.4l1.6-.8q-1.5 5.9.1 7.4 3.7 4.6.2 14.8m7.5-3.9v-5.1z"/><path fill="#6d5c33" d="M1.6 36.9.1 36H0V19.8q1.5 1 1.7.8z"/><path fill="#655530" d="M0 19.8v-6.1h.1l1.5.9v6q-.2.2-1.5-.9"/><path fill="#a98e5e" d="m.8 13.3 1.5-.8 1.6.8-1.6.9zm5.8-3 3-1.6.3-.1 1.6.8-3 1.5zm4.8-2.4L14.9 6l1.8.7-3.8 2zM16.9 5l1.8-1 .2-.1 1.5.9-2 1zm5.6-3 1.7-.8 1.7.8-2 1z"/><path fill="#977e4e" d="m2.3 12.5 4.3-2.2 1.9.6-4.6 2.4q-.1-.2-1.6-.8M14.9 6l1.9-1 1.6.8-1.6.9zm3.9-2.1 3.6-1.8 1.4.9-3.4 1.8h-.1z"/><path fill="none" stroke="#0e1200" stroke-linecap="round" stroke-linejoin="round" stroke-opacity=".3" stroke-width="__RESOLUTION__" d="m26.3 0-2.2 1.2-1.7.8-3.6 2m9.1-3v7.8m0 1v13.8l-4.1 2.1-3.4 1.7-2.8 1.4m-.4.2-2.4 1.3m-.4.2-2.7 1.4-.6.3-2.5 1.3-2.3 1.1-2.1 1.1L1.6 37h0M.1 36H0h0V13.7m.1 0 .4-.3m.3-.1 1.5-.8 4.3-2.2 3-1.6m.3-.1 1.4-.8L15 6l1.9-1 1.8-1m2.2 3.6-.4-1V4.9m0 15.3v.5m0-4.5v4m0-7.7v2.7m-8.7-5.8v3.3m0 2.2v2.4m0 1V20m0 6.4v5.3m8.7-4.5v-4.9" vector-effect="non-scaling-stroke"/></g><g id="i"><path fill="#614c36" d="M27.9.9v7.8Q23.8 6 25.8 2zm-4.1 24.7-3.4 1.7v-6.2q7-5 4.8-8.1-2.2-3.2-3-3.3l-.9-.8-.5-1.3-.4-1V4.9L23.8 3q-1.9 7.5 1.3 8.1 4.1 2.2-1.4 14.5m-6.1 3.1-.4.2-2.4 1.3q3-8.4 2.2-10.2l-1.9-4.7q-1.2-2.9 1.7-8.6l1.6-.9-1.8 5.1q-.8 2 0 3.7t3.8.5v5q-4 3-2.8 8.6M11 32.2l-2.5 1.3q-1.7-11-2.3 1.1l-2.1 1.1Q7.7 25.4 4 20.8q-1.6-1.5-.1-7.5L8.5 11q-1 1.3-2 6.7-1.1 5.4 4.6 14.5m.6-22.9 1.2-.6q0 1.8 1.4 4.5l-1.9 7q-.8 2.7-.7 3.8v2.6q-5-3.6-3.1-5.7 1.9-2.2 3-2.7zm0 10.8v-2zm-10-5.6.6-.3q.3 4.2-.6 6.4z"/><path fill="#705840" d="m26.3 0 1.6.9L25.8 2l-1.7-.8zM.1 13.7l.4-.3.3-.1 1.5.9-.6.3zm9.8-5.1 1.4-.8 1.5.9-1.2.6-.1.1z"/><path fill="#5b4632" d="M27.9 8.7v14.8l-4.1 2.1q5.4-12.4 1.3-14.5-3.2-.6-1.3-8.1l2-1q-2 4 2.1 6.7m-7.5 18.6-2.8 1.4q-1.2-5.6 2.8-8.5v.4-8.2 2.7q-2.9 1.3-3.7-.5-.8-1.7-.1-3.6l1.8-5.1 1.9-1.1h.1v1.9l.4.8v.1l.5 1.3 1 .8q.7.2 2.9 3.3t-4.8 8.1zm-5.6 2.9-.4.2-2.7 1.4-.6.3Q5.4 23 6.5 17.6q1-5.4 2-6.7l3-1.5h.2v8.8q-1.2.5-3.1 2.7t3 5.7V24q0-1.1.8-3.8l1.9-7q-1.4-2.7-1.5-4.5l4-2q-2.9 5.7-1.7 8.6l1.9 4.6q.8 1.9-2.2 10.3m-6.2 3.2-2.3 1.1q.6-12 2.3-1.1m-4.4 2.2-2.6 1.3V20.6q1-2.2.7-6.4l1.6-.8q-1.5 5.9.1 7.4 3.7 4.6.2 14.8m7.5-3.9v-5.1z"/><path fill="#52402c" d="M1.6 36.9.1 36H0V19.8q1.5 1 1.7.8z"/><path fill="#4c3a29" d="M0 19.8v-6.1h.1l1.5.9v6q-.2.2-1.5-.9"/><path fill="#866c51" d="m.8 13.3 1.5-.8 1.6.8-1.6.9zm5.8-3 3-1.6.3-.1 1.6.8-3 1.5zm4.8-2.4L14.9 6l1.8.7-3.8 2zM16.9 5l1.8-1 .2-.1 1.5.9-2 1zm5.6-3 1.7-.8 1.7.8-2 1z"/><path fill="#775d44" d="m2.3 12.5 4.3-2.2 1.9.6-4.6 2.4q-.1-.2-1.6-.8M14.9 6l1.9-1 1.6.8-1.6.9zm3.9-2.1 3.6-1.8 1.4.9-3.4 1.8h-.1z"/><path fill="none" stroke="#000" stroke-linecap="round" stroke-linejoin="round" stroke-opacity=".3" stroke-width="__RESOLUTION__" d="m26.3 0-2.2 1.2-1.7.8-3.6 2m9.1-3v7.8m0 1v13.8l-4.1 2.1-3.4 1.7-2.8 1.4m-.4.2-2.4 1.3m-.4.2-2.7 1.4-.6.3-2.5 1.3-2.3 1.1-2.1 1.1L1.6 37h0M.1 36H0h0V13.7m.1 0 .4-.3m.3-.1 1.5-.8 4.3-2.2 3-1.6m.3-.1 1.4-.8L15 6l1.9-1 1.8-1m2.2 3.6-.4-1V4.9m0 15.3v.5m0-4.5v4m0-7.7v2.7m-8.7-5.8v3.3m0 2.2v2.4m0 1V20m0 6.4v5.3m8.7-4.5v-4.9" vector-effect="non-scaling-stroke"/></g><g id="h"><path fill="#940700" d="m50 17.6-.4-3zM41 19l8.6-4.4 4.2-2.2v15.5L27.5 41.4V30.9l5.8-7.8zm12.8 94.3v19.4l-26.3 13.6v-19.5z"/><path fill="#f8f7d1" d="M49.6 14.6 41 19.1l-5-2.7 7.4-3.9-1.4-.7-7-3.9 4.8-2.6 10 5.1 3.9 2zl-2.4-2.2-2.2 1.7 2.3-1.7zm-2.4-2.2 2.8-2zm-33.8-.9-1.4.8 7.5 4q-2.8 1.4-5.5 3L.9 12.5l6.5-3.3 4.4-2.3 3.4-1.7 5 2.6-5.2 2.9zm1.6-.8L13 9l-1.2-2.2L12.9 9zM13 9l-5.6.1z"/><path fill="#fbfae6" d="m41 19-7.7 4-11.4.2-3-1.5-2-1-.1-.1-2.7-1.4 5.5-2.9 3.2 1.8.4.1 1 .7h.3l3.5 2 8.1-4.4zm-16.7-.2-5.4 2.8z"/><path fill="#f3f1c2" d="m33.3 23-5.8 8-5.6-7.7z"/><path fill="#ca2b05" d="M27.5 30.9v10.5L.9 28V12.5l13.2 6.8 2.7 1.3h.1l2 1.1-.2 4 .2-4 3 1.5zm0 115.5-.2.1L.9 132.9v-19.5l11.5 5.8v.1l1.4.6 13.7 7zm-5-104.5 5 2.5v.1z"/><path fill="#dd6f00" d="m27.5 41.4 26.3-13.5q1.9 1.3 0 3L27.5 44.4zm26.3 66q1.9 1.3 0 3l-26.3 13.5v-3z"/><path fill="#f5d681" d="m42.1 11.8 1.4.7-7.4 4-8.1 4.4-3.6-2h-.1l-1.1-.6-.4-.2-3.2-1.8-7.5-4 1.3-.8L28 19.4z"/><path fill="#fae8b8" d="M42.1 11.8 28 19.4l-14.5-7.9 1.5-.8 5.1-2.8 7.5-4 2.6 1.4-2 .5-1.8 1.9 1.9-2 1.9-.4L35 8zM24 13l.4.9h3.7v-1.7 1.6l-3.7.1zm12.5-.3-3.1 1.7-4.5-.7.5-1.1-.5 1 4.5.8z"/><path fill="#d2c291" d="M53.8 30.9v76.5l-26.3 13.5V47.4L.8 34v-3l21.6 10.9 5 2.6v-.1z"/><path fill="#f0bb2f" d="M53.8 33.2v.7z"/><path fill="#770600" d="M53.8 110.4v3l-26.3 13.5v-3z"/><path fill="#a42404" d="M.9 113.5v-3l20.3 10.2 1.3.7 5 2.6v2.9l-13.7-7-1.4-.6z"/><path fill="#ff9528" d="M.9 110.5q-1.8-1.2 0-3l11.8 5.9.2.3 14.6 7.2v3l-3.4-1.7-3-1.5 3 1.5-1.6-.8-1.4-.7zM.9 31q-1.7-1.4 0-3l26.6 13.4v3l-5-2.5z"/><path fill="#ede9bc" d="M.9 107.5V34l26.6 13.4v73.5l-14.6-7.2-.2-.3zm21.6 14 1.6.8 3.4 1.7v.1z"/><path fill="#f9f8db" d="m15.2 5.2 9-4.7 5.1-.5 6.6 3.4 4 2L35 8l-4.8-2.7-2.6-1.4-7.5 4zM36 3.4 32.8 5zm-3.8.9-1.9 1z"/><path fill="none" stroke="#000" stroke-linecap="round" stroke-linejoin="round" stroke-opacity=".2" stroke-width="__RESOLUTION__" d="m49.6 14.6.4 3m-.4-3-2.4-2.2-2.2 1.7m5-3.6-2.7 1.9M32.9 5 36 3.4m-5.7 1.9-2 .5-1.8 1.9m3.8-2.4 1.9-1m-4 8v1.6l-3.7.1-.4-1m5.4-.4-.5 1 4.5.8 3-1.7M11.9 6.9 13 9.1l2.1 1.6m1.9 10-.1-.1M7.4 9.2l5.5-.1m6 12.6-.2 4m.2-4 5.4-2.8" vector-effect="non-scaling-stroke"/><path fill="none" stroke="#000" stroke-linecap="round" stroke-linejoin="round" stroke-opacity=".3" stroke-width="1" d="M49.6 14.6 41 19.1l-7.7 4m20.5-10.7-4.2 2.2m-13.5 1.8 7.4-3.9-1.4-.7-7-3.9 4.8-2.6m-26.4 6.2-1.4.8 7.5 4 3.2 1.8m.4.1 1 .7m.3 0 3.5 2 8.1-4.4L41 19M20.2 7.8 27.6 4l2.6 1.4L35 8m-14.8-.2-5.2 3-1.6.8M20.1 8l-5-2.7m1.7 15.4L14 19.2.9 12.6m18.7 3.8q-2.8 1.4-5.5 3m4.8 2.4-2-1m10.6 23.7-5-2.5L.9 31m26.6 13.6v-.1L53.8 31m-32-7.7L19 21.7m5.2 100.5-3-1.5L1 110.5m23.2 11.7 3.4 1.7v.1h0m26.3-13.7L27.5 124"/><path fill="none" stroke="#ff9528" stroke-linecap="round" stroke-linejoin="round" stroke-width="1" d="m27.5 41.4 26.3-13.5m-40.9 85.8-.2-.3m41.1-6-26.3 13.5"/><path fill="none" stroke="#fb7" stroke-linecap="round" stroke-linejoin="round" stroke-width="1" d="M27.5 41.4.9 28m26.6 92.9-14.6-7.2m-.2-.3-11.8-6"/><path fill="#f0edc8" d="m21.4 59.2.5 1.1v3.5l-.4.7-4.6-2.2-.4-1v-3.6l.5-.7z"/><path fill="#f3f1d6" d="m17.6 96.4.5 1.2v6.2l-1 .7-7.2-3.6-1.2-2.4v-5l.9-1.1z"/><path fill="none" stroke="#000" stroke-linecap="round" stroke-linejoin="round" stroke-opacity=".2" stroke-width="__RESOLUTION__" d="m16.5 61.3.4 1 4.6 2.2.4-.7v-3.5l-.5-1.1m-3.8 37.2.5 1.2v6.2l-1 .7-7.2-3.6-1.2-2.4" vector-effect="non-scaling-stroke"/><path fill="#dfdec8" d="m43.4 92.3-10.2 5.4-.7-.7v-7.7l.6-.8 10.6-5.7.8.9v6z"/><path fill="#f8f7d1" d="m47.4 78.5-6.6 3.3-.4-.6V75l.4-.5 6.8-3.5.4.7v4.8z"/><path fill="none" stroke="#000" stroke-linecap="round" stroke-linejoin="round" stroke-opacity=".2" stroke-width="__RESOLUTION__" d="m43.4 92.3-10.2 5.4-.7-.7v-7.7l.6-.8m14.3-10-6.6 3.3-.4-.6V75l.4-.5" vector-effect="non-scaling-stroke"/></g><g id="f"><path fill="#90784a" d="m25.8 2-1.7-.9L26.3 0l1.6.9zM.1 13.7l.4-.3.3-.1 1.5.9-.6.3zm9.8-5.1 1.4-.8 1.5.9-1.2.6-.1.1z"/><path fill="#a98e5e" d="m24 1.1 1.8.9-2 1-1.4-1zM.8 13.3l1.5-.8q1.5.7 1.6.9l-1.6.8zm5.8-3 3-1.6.3-.1 1.6.8-3 1.5zm4.8-2.4L14.9 6l1.8.6L13 8.8zM16.9 5l1.8-1 .2-.1 1.5.9-2 1z"/><path fill="#7e693e" d="M25.8 2 27.9.9v7.8Q25.3 4.3 25.8 2m-2 16.3L20.4 20v-2.2q2.6-3.6 2.5-4.4-.6-3.5-1-3.7l-.6-.8-.5-1.3-.4-1V4.8L23.8 3q2.3 5 1.3 8.1l-1.7 5.7q-.3.8.4 1.5m-6.2 3.1-.4.2-2.4 1.3q1-3 2.1-4.8.5-.9.4-1.6-1.4-.6-1.7-1.4-1-2.9 1.2-8.4l1.6-.8-1.6 4.6q-.7 1.4.2 3t3.4 1.6v1.8q-.7.8-1.8 1.3-.8.7-1 3.3M11 24.8l-2.5 1.3q-.4-6-1-7t-1.5.4q-.9 1.2-.8 2.1t1 5.6l-2.1 1.1Q3 24.1 3 22.3q0-1.6 1-4.9l1-1.8q0-.9-1.2-2.2l4.6-2.5q.8 1 .5 5.5-.1 1.7.3 3zM2.2 14.2q.1 1.3-.6 3v-2.7zm9.2-4.8.2-.1 1.2-.6q0 1.8 1.4 4.5.2 3.6-.7 5.7-1.1 2.4-2 1.8v2.6L11 22q-1.6-2.9-.7-4.6.3-.8.8-1l.7-.3V9.4zm.2 7.4v-.6z"/><path fill="#977e4e" d="m22.4 2 1.4 1-3.4 1.7-.1.1-1.5-.9zM2.3 12.5l4.3-2.2 1.9.6-4.6 2.5q-.1-.2-1.6-.9M14.9 6l1.9-1 1.6.9-1.6.7z"/><path fill="#77633a" d="m23.8 3 2-1q-.5 2.3 2.1 6.7v7.5l-4.1 2.1q-.7-.7-.4-1.6l1.7-5.6Q26 8 23.8 3m-3.4 17-2.8 1.4q.2-2.5 1-3.2 1-.5 1.8-1.3v-4.5 2.7q-2.5 0-3.4-1.5-.9-1.7-.2-3.1l1.6-4.6 1.9-1.1h.1v1.8l.4 1 .5 1.3.6.8q.4.3 1 3.7.1.8-2.5 4.4zm-5.6 2.9-.4.2-1.2.6-1.6.8-.5.3-1.7-5.4q-.5-1.3-.4-3 .3-4.4-.5-5.4l3-1.6h.2v6.8l-.7.3q-.5.2-.8 1-.8 1.7.8 4.6l.7 1.1v-2.5q.8.6 1.9-1.8.9-2.1.7-5.7-1.4-2.7-1.5-4.5l4-2q-2.2 5.5-1.2 8.4.3.8 1.7 1.5.1.6-.4 1.5-1 1.8-2.1 4.8m-6.2 3.2-2.3 1.1q-1-4.7-1-5.6-.1-.9.8-2 1-1.4 1.5-.5.6 1 1 7m-4.4 2.2-2.6 1.3V17.2q.8-1.7.7-3l1.6-.8Q5 14.7 5 15.6l-1 1.8q-1 3.3-1 4.9 0 1.8 1.1 6m16.2-10.5v-1z"/><path fill="#6d5c33" d="m1.6 29.6-1.5-.9H0V16.5q1.5 1 1.7.8z"/><path fill="#655530" d="M0 16.5v-2.8h.1l1.5.9v2.7q-.1.1-1.5-.9"/><path fill="none" stroke="#0e1200" stroke-linecap="round" stroke-linejoin="round" stroke-opacity=".3" stroke-width="__RESOLUTION__" d="m26.3 0-2.2 1.1-1.7 1-3.6 1.8m9.1 4.8V.9m0 8.8v6.5l-4.1 2.1-3.4 1.7-2.8 1.4m-.4.2-2.4 1.3m-.4.2-1.2.6m-1.6.8-.5.3-2.5 1.3-2.3 1.1-2.1 1.1-2.6 1.3h0m-1.5-.9H0h0v-15m.1 0 .4-.3m.3-.1 1.5-.8 4.3-2.2 3-1.6m.3-.1 1.4-.8L15 6l1.9-1 1.8-1m1.8.7v2l.4.8v.1m-.4 10.2V20m0-7.6v2.7m0 1v1.7m-8.8-8.4v3.3m0 2.2v2" vector-effect="non-scaling-stroke"/><path fill="none" stroke="#6cfe00" stroke-linecap="round" stroke-linejoin="round" stroke-width="__RESOLUTION__" d="M0 13.7h.1" vector-effect="non-scaling-stroke"/></g><g id="e"><path fill="#705840" d="m25.8 2-1.7-.9L26.3 0l1.6.9zM.1 13.7l.4-.3.3-.1 1.5.9-.6.3zm9.8-5.1 1.4-.8 1.5.9-1.2.6-.1.1z"/><path fill="#866c51" d="m24 1.1 1.8.9-2 1-1.4-1zM.8 13.3l1.5-.8q1.5.7 1.6.9l-1.6.8zm5.8-3 3-1.6.3-.1 1.6.8-3 1.5zm4.8-2.4L14.9 6l1.8.6L13 8.8zM16.9 5l1.8-1 .2-.1 1.5.9-2 1z"/><path fill="#614c36" d="M25.8 2 27.9.9v7.8Q25.3 4.3 25.8 2m-2 16.3L20.4 20v-2.2q2.6-3.6 2.5-4.4-.6-3.5-1-3.7l-.6-.8-.5-1.3-.4-1V4.8L23.8 3q2.3 5 1.3 8.1l-1.7 5.7q-.3.8.4 1.5m-6.2 3.1-.4.2-2.4 1.3q1-3 2.1-4.8.5-.9.4-1.6-1.4-.6-1.7-1.4-1-2.9 1.2-8.4l1.6-.8-1.6 4.6q-.7 1.4.2 3t3.4 1.6v1.8q-.7.8-1.8 1.3-.8.7-1 3.3M11 24.8l-2.5 1.3q-.4-6-1-7t-1.5.4q-.9 1.2-.8 2.1t1 5.6l-2.1 1.1Q3 24.1 3 22.3q0-1.6 1-4.9l1-1.8q0-.9-1.2-2.2l4.6-2.5q.8 1 .5 5.5-.1 1.7.3 3zM2.2 14.2q.1 1.3-.6 3v-2.7zm9.2-4.8.2-.1 1.2-.6q0 1.8 1.4 4.5.2 3.6-.7 5.7-1.1 2.4-2 1.8v2.6L11 22q-1.6-2.9-.7-4.6.3-.8.8-1l.7-.3V9.4zm.2 7.4v-.6z"/><path fill="#775d44" d="m22.4 2 1.4 1-3.4 1.7-.1.1-1.5-.9zM2.3 12.5l4.3-2.2 1.9.6-4.6 2.5q-.1-.2-1.6-.9M14.9 6l1.9-1 1.6.9-1.6.7z"/><path fill="#5b4632" d="m23.8 3 2-1q-.5 2.3 2.1 6.7v7.5l-4.1 2.1q-.7-.7-.4-1.6l1.7-5.6Q26 8 23.8 3m-3.4 17-2.8 1.4q.2-2.5 1-3.2 1-.5 1.8-1.3v-4.5 2.7q-2.5 0-3.4-1.5-.9-1.7-.2-3.1l1.6-4.6 1.9-1.1h.1v1.8l.4 1 .5 1.3.6.8q.4.3 1 3.7.1.8-2.5 4.4zm-5.6 2.9-.4.2-1.2.6-1.6.8-.5.3-1.7-5.4q-.5-1.3-.4-3 .3-4.4-.5-5.4l3-1.6h.2v6.8l-.7.3q-.5.2-.8 1-.8 1.7.8 4.6l.7 1.1v-2.5q.8.6 1.9-1.8.9-2.1.7-5.7-1.4-2.7-1.5-4.5l4-2q-2.2 5.5-1.2 8.4.3.8 1.7 1.5.1.6-.4 1.5-1 1.8-2.1 4.8m-6.2 3.2-2.3 1.1q-1-4.7-1-5.6-.1-.9.8-2 1-1.4 1.5-.5.6 1 1 7m-4.4 2.2-2.6 1.3V17.2q.8-1.7.7-3l1.6-.8Q5 14.7 5 15.6l-1 1.8q-1 3.3-1 4.9 0 1.8 1.1 6m16.2-10.5v-1z"/><path fill="#52402c" d="m1.6 29.6-1.5-.9H0V16.5q1.5 1 1.7.8z"/><path fill="#4c3a29" d="M0 16.5v-2.8h.1l1.5.9v2.7q-.1.1-1.5-.9"/><path fill="none" stroke="#000" stroke-linecap="round" stroke-linejoin="round" stroke-opacity=".3" stroke-width="__RESOLUTION__" d="m26.3 0-2.2 1.1-1.7 1-3.6 1.8m9.1 4.8V.9m0 8.8v6.5l-4.1 2.1-3.4 1.7-2.8 1.4m-.4.2-2.4 1.3m-.4.2-1.2.6m-1.6.8-.5.3-2.5 1.3-2.3 1.1-2.1 1.1-2.6 1.3h0m-1.5-.9H0h0v-15m.1 0 .4-.3m.3-.1 1.5-.8 4.3-2.2 3-1.6m.3-.1 1.4-.8L15 6l1.9-1 1.8-1m1.8.7v2l.4.8v.1m-.4 10.2V20m0-7.6v2.7m0 1v1.7m-8.8-8.4v3.3m0 2.2v2" vector-effect="non-scaling-stroke"/><path fill="none" stroke="#51cc00" stroke-linecap="round" stroke-linejoin="round" stroke-width="__RESOLUTION__" d="M0 13.7h.1" vector-effect="non-scaling-stroke"/></g><g id="d"><path fill="#7e693e" d="M27.9.9 25.8 2q-2 4.8 2.1 6.7zM26.3.1V0m-5.9 4.8L23.8 3q-3.3 4.6 1 8.4 4.3 5.2-1 14.2l-2.5 1.3-.9.4v-6.2q2.8-3 2.3-6.5l-.9-4.4-.5-1.3-.5-1.3-.4-1zm0 11.3v4l-.2.4q-1.6 3-2.6 8.3l-.4.1-2.4 1.3q4.8-10.6 3.4-11.6-1.6-1-2.8-5.3-1.3-4.4 1.4-6.6l1.6-.9q-2.2 3-2.2 3.5l1 2.3q1 1.8 3.2 3.5zm-7.5-7.4q0 1.8 1.4 4.5 2.8 6.7.8 9T11.7 24v2.6Q9 19.8 9.9 18q.9-1.9 1.8 0V9.5h-.2l.2-.1zM1.7 14.6l.6-.3q.3 4.2-.6 6.4zM0 36h.1zm4.2-.4q.5-7.2-.2-14.8-1-3.9-.1-7.5L8.5 11q1 1.8.3 6.1t2.3 15.1l-2.5 1.3q.1-8.6-1.4-8.8-1.7-.3-.9 9.9zm7.5-15.5v-2z"/><path fill="#90784a" d="m26.3 0 1.6.9L25.8 2l-1.7-.8zM12.9 8.8l-1.2.6-.2.1-1.6-.8 1.4-.8zm-12.7 5 .4-.3.3-.1 1.5.9-.6.3z"/><path fill="#a98e5e" d="m24 1.2 1.8.8-2 1-1.4-1zm-5.3 2.7 1.5.9-2 1-1.5-.8 1.8-1zm-3.9 2 1.8.8-3.8 2-1.6-.9zm-5 2.6 1.6.8-3 1.5-1.9-.7 3-1.5zm-9 4.8 1.5-.8 1.6.8-1.6.9z"/><path fill="#977e4e" d="m22.4 2 1.4 1-3.4 1.8h-.1l-1.5-.9zm-4 3.7-1.6.9-1.9-.7 1.9-1zM6.6 10.4l1.9.6-4.6 2.4q-.1-.2-1.6-.8z"/><path fill="#77633a" d="M20.3 4.8v1.9l.4.8v.1l.5 1.3.5 1.3.8 4.4q.5 3.5-2.2 6.5v6.2l-.5.3-2.3 1.1q1-5.2 2.6-8.2l.2-.4v-7.7 2.7q-2.2-1.7-3.2-3.4l-1-2.4q0-.5 2.2-3.5zM23.8 3l2-1q-2 4.8 2.1 6.7v14.8l-4.1 2.1q5.3-9 1-14.2-4.3-3.9-1-8.4m-7 3.7q-2.7 2.2-1.5 6.6t2.9 5.3q1.4 1-3.4 11.6l-.4.2-2.7 1.4V24q1.4.5 3.4-1.8t-.8-9q-1.4-2.7-1.5-4.5zm-5.1 19.8v5.3l-.6.3Q8 21.2 8.9 17t-.4-6l3-1.6h.2v8.8q-.9-2-1.8-.1-.9 1.7 1.8 8.5M2.3 14.2l1.6-.8q-1 3.5.1 7.4.8 7.6.2 14.8l-2.6 1.3V20.6q1-2.2.7-6.4m6.3 19.2-2.3 1.1q-.7-10.2.9-10 1.5.3 1.4 8.9"/><path fill="#655530" d="M0 13.7h.1l1.5.9v6q-.2.2-1.5-.9z"/><path fill="#6d5c33" d="M0 19.8q1.5 1 1.7.8l-.1 16.3L.1 36H0z"/><path fill="none" stroke="#0e1200" stroke-linecap="round" stroke-linejoin="round" stroke-opacity=".3" stroke-width="__RESOLUTION__" d="M27.9.9v7.8M26.3 0l-2.2 1.2-1.7.8-3.6 2M26.3.1V0m-5.9 22.5v1m.9 3.4 2.4-1.3 4.2-2.2V9.8m-7.5-5v2l.4.8v.1m-.4 8.5v4l-.2.4m-2.6 8.3 2.3-1.2m.5-15.2v2.7m-5.6 15.1 2.4-1.3m-.4-24 1.8-.9m-1.8 1-1.9 1-3.6 1.8-1.4.8m1.8 18v5.1l2.8-1.3m-7.9-20 3-1.6m-9.5 5 .4-.3m.3-.1 1.5-.8 4.3-2.2M.1 19.8 0 36h.1m11-3.9.6-.4M0 19.8v-6m11.5 1.1v2.4m0 1V20m0-10.7v3.2m-7.4 23-2.6 1.3h0m7-3.5-2.3 1.1-2.1 1.1m4.4-2.2L11 32" vector-effect="non-scaling-stroke"/></g><g id="c"><path fill="#614c36" d="M27.9.9 25.8 2q-2 4.8 2.1 6.7zM26.3.1V0m-5.9 4.8L23.8 3q-3.3 4.6 1 8.4 4.3 5.2-1 14.2l-2.5 1.3-.9.4v-6.2q2.8-3 2.3-6.5l-.9-4.4-.5-1.3-.5-1.3-.4-1zm0 11.3v4l-.2.4q-1.6 3-2.6 8.3l-.4.1-2.4 1.3q4.8-10.6 3.4-11.6-1.6-1-2.8-5.3-1.3-4.4 1.4-6.6l1.6-.9q-2.2 3-2.2 3.5l1 2.3q1 1.8 3.2 3.5zm-7.5-7.4q0 1.8 1.4 4.5 2.8 6.7.8 9T11.7 24v2.6Q9 19.8 9.9 18q.9-1.9 1.8 0V9.5h-.2l.2-.1zM1.7 14.6l.6-.3q.3 4.2-.6 6.4zM0 36h.1zm4.2-.4q.5-7.2-.2-14.8-1-3.9-.1-7.5L8.5 11q1 1.8.3 6.1t2.3 15.1l-2.5 1.3q.1-8.6-1.4-8.8-1.7-.3-.9 9.9zm7.5-15.5v-2z"/><path fill="#705840" d="m26.3 0 1.6.9L25.8 2l-1.7-.8zM12.9 8.8l-1.2.6-.2.1-1.6-.8 1.4-.8zm-12.7 5 .4-.3.3-.1 1.5.9-.6.3z"/><path fill="#866c51" d="m24 1.2 1.8.8-2 1-1.4-1zm-5.3 2.7 1.5.9-2 1-1.5-.8 1.8-1zm-3.9 2 1.8.8-3.8 2-1.6-.9zm-5 2.6 1.6.8-3 1.5-1.9-.7 3-1.5zm-9 4.8 1.5-.8 1.6.8-1.6.9z"/><path fill="#775d44" d="m22.4 2 1.4 1-3.4 1.8h-.1l-1.5-.9zm-4 3.7-1.6.9-1.9-.7 1.9-1zM6.6 10.4l1.9.6-4.6 2.4q-.1-.2-1.6-.8z"/><path fill="#5b4632" d="M20.3 4.8v1.9l.4.8v.1l.5 1.3.5 1.3.8 4.4q.5 3.5-2.2 6.5v6.2l-.5.3-2.3 1.1q1-5.2 2.6-8.2l.2-.4v-7.7 2.7q-2.2-1.7-3.2-3.4l-1-2.4q0-.5 2.2-3.5zM23.8 3l2-1q-2 4.8 2.1 6.7v14.8l-4.1 2.1q5.3-9 1-14.2-4.3-3.9-1-8.4m-7 3.7q-2.7 2.2-1.5 6.6t2.9 5.3q1.4 1-3.4 11.6l-.4.2-2.7 1.4V24q1.4.5 3.4-1.8t-.8-9q-1.4-2.7-1.5-4.5zm-5.1 19.8v5.3l-.6.3Q8 21.2 8.9 17t-.4-6l3-1.6h.2v8.8q-.9-2-1.8-.1-.9 1.7 1.8 8.5M2.3 14.2l1.6-.8q-1 3.5.1 7.4.8 7.6.2 14.8l-2.6 1.3V20.6q1-2.2.7-6.4m6.3 19.2-2.3 1.1q-.7-10.2.9-10 1.5.3 1.4 8.9"/><path fill="#4c3a29" d="M0 13.7h.1l1.5.9v6q-.2.2-1.5-.9z"/><path fill="#52402c" d="M0 19.8q1.5 1 1.7.8l-.1 16.3L.1 36H0z"/><path fill="none" stroke="#000" stroke-linecap="round" stroke-linejoin="round" stroke-opacity=".3" stroke-width="__RESOLUTION__" d="M27.9.9v7.8M26.3 0l-2.2 1.2-1.7.8-3.6 2M26.3.1V0m-5.9 22.5v1m.9 3.4 2.4-1.3 4.2-2.2V9.8m-7.5-5v2l.4.8v.1m-.4 8.5v4l-.2.4m-2.6 8.3 2.3-1.2m.5-15.2v2.7m-5.6 15.1 2.4-1.3m-.4-24 1.8-.9m-1.8 1-1.9 1-3.6 1.8-1.4.8m1.8 18v5.1l2.8-1.3m-7.9-20 3-1.6m-9.5 5 .4-.3m.3-.1 1.5-.8 4.3-2.2M.1 19.8 0 36h.1m11-3.9.6-.4M0 19.8v-6m11.5 1.1v2.4m0 1V20m0-10.7v3.2m-7.4 23-2.6 1.3h0m7-3.5-2.3 1.1-2.1 1.1m4.4-2.2L11 32" vector-effect="non-scaling-stroke"/></g><g id="b"><path fill="#f8f7d1" d="m40.7 14 .3-.2 2.1 1-4.8.5zm-2.4 1.3 4.8-.6-2-.9 2.4-1.3-1.4-.7-7-3.9 4.8-2.6 9.8 5 4.1 2.1-5.2 2.8L41 19l-5-2.6.6-.2zm4.8-.6 4.1-2.1 1.3 2.6-1.3-2.6zM.9 12.5l8.5-4.3 1.9-1 3.9-2 5 2.6-6.7 3.7-1.4.8 3.7 2 2 1 1.8 1-1.9 1v-.1l.2-1.8-.2 1.8v.1l-.8.4-2 1.2-.8-2.1 1.7-2.6-1.7 2.6.8 2-.8.4-3-1.5 3-.9-3 .9zm46.3 0 2.5-2.2zM13.3 8.9l-2-1.7zm4.3 8.4v.1zM12.2 10 9.5 8.1z"/><path fill="#f5d681" d="m41 13.8-.3.2-2.4 1.3-1.5.8-1.2-.9 6.5-3.4 1.4.7zm-5.4 1.4 1.1 1-.6.3-4 2.1-.2-1.4-3.9 2.2-14.5-7.9-1.4.8 3.7 2 2 1 1.8 1 .6.3 2.6 1.4.4.3 4.8 2.6 4.1-2.3-.2-1.4z"/><path fill="#fae8b8" d="m42.1 11.8-6.5 3.4-6.5.3-2.5.4-1.4.5 1.4-.4 2.5-.4 2.8 1.6-3.9 2.2-14.5-7.9L20 7.9l7.5-4 1.4.8 1.4.7L35 8zm-10.2 5.4-2.7-1.6-.1-.2 6.5-.2zM26.7 16l-1.2-1.2z"/><path fill="#940700" d="m41 19 7.5-3.8 5.3-2.8v15.5L27.5 41.4V30.9l5.8-7.8zm12.8 94.3v19.4l-26.3 13.6v-19.5z"/><path fill="#dd6f00" d="M53.8 27.9q1.9 1.3 0 3L27.5 44.4v-3zm0 79.5q1.9 1.3 0 3l-26.3 13.5v-3z"/><path fill="#d2c291" d="M53.8 30.9v76.5l-26.3 13.5v-32l2.3-9-2.3-9.2V47.4L.8 34v-3l21.6 10.9 5 2.6v-.1z"/><path fill="#f0bb2f" d="M53.8 33.2v.7z"/><path fill="#770600" d="M53.8 110.4v3l-26.3 13.5v-3z"/><path fill="#ca2b05" d="m27.5 146.4-.2.1L.9 132.9v-19.5l11.5 5.8v.1l1.4.6 13.7 7zM.9 28V12.5l10.2 5.2 3 1.6 2.7 1.3h.1l3.2 1.7 1.8.9 5.6 7.7v10.5zm26.6 16.5-5-2.6 5 2.5z"/><path fill="#a42404" d="M.9 113.5v-3l20.3 10.2 1.3.7 5 2.6v2.9l-13.7-7-1.4-.6z"/><path fill="#ff9528" d="M.9 110.5q-1.8-1.2 0-3l11.8 5.9.2.3 14.6 7.2v3l-3.4-1.7-1.6-.8-1.4-.7 3 1.5-3-1.5zM.9 31q-1.7-1.4 0-3l26.6 13.4v3l-5-2.5z"/><path fill="#ede9bc" d="M.9 107.5V34l26.6 13.4v72.9-.1.7l-14.6-7.2-.2-.3zm21.6 14 1.6.8 3.4 1.7v.1z"/><path fill="#f9f8db" d="m15.2 5.2 9-4.7 5.1-.5 4.1 2 .1.1.4.2 6 3L35 8l-4.6-2.6-1.3-.7 2-.7 2.3-2-2.3 2-2 .7-1.6-.8-7.4 4zM34 2.3l-3.5 3.1z"/><path fill="#fbfae6" d="m32.2 18.6 4-2.2 4.8 2.7-7.7 4-11.4.1-1.8-.9-1.4-2.9 1.6-2.7 2.5 1.4.4.1L28 21zm-11.9-2-1.5 2.8 1.4 2.9-3.2-1.7h-.1L14 19.2l.8-.3 2-1.1.8-.5 1.9-1zm-1.5 2.8-1-2.1zM17 17.8l-.1 2.8z"/><path fill="#f3f1c2" d="m21.9 23.2 11.4-.1-5.8 7.8z"/><path fill="#dacca3" d="m27.5 70.7 2.3 9.1-2.3 9.1z"/><path fill="none" stroke="#000" stroke-linecap="round" stroke-linejoin="round" stroke-opacity=".2" stroke-width="__RESOLUTION__" d="m41 13.8-.3.2m-2.4 1.3 4.8-.6-2-.9m-5.5 1.4 1.1 1m11.8-1-1.3-2.6-4.1 2.2M33.4 2h.1m16.2 8.3-2.5 2.2M29 4.7l2.1-.7 2.3-2M32 17.3l-3-1.7-2.5.3-1.4.5m4-.8-.1-.2 6.5-.2m-3.7 2 .3 1.4m-6.8-3.8 1.2 1.1m-6.4.7-1.5 2.8 1.4 2.9M30.4 5.4l3.5-3.1M11.3 7.2l2 1.6m4.6 6.5-.2 1.9v.1l1 2.1m-1-2.1v-.1m-1.9-3-1.7 2.6.8 2m1.8 1.8.2-2.9m-2.8-.9-3 .9M9.4 8.1l2.8 1.8" vector-effect="non-scaling-stroke"/><path fill="none" stroke="#000" stroke-linecap="round" stroke-linejoin="round" stroke-opacity=".3" stroke-width="1" d="m40.7 14-2.4 1.3-1.5.8-.6.3-4 2.2-4.2 2.3-4.8-2.6M41 13.8l2.5-1.3-1.4-.7-7-3.9 4.8-2.6m1 13.8 7.6-4 5.3-2.7M35.1 8l-4.7-2.6-1.3-.7-1.6-.8-7.4 4-6.7 3.6-1.3.8 3.7 2 2 1 1.8 1-1.9 1h0l-.8.4-2 1.2-.8.4 2.7 1.3m6-2.6-2.6-1.4-.6-.3m.5 6 1.8.9m11.4-.1 7.7-4-4.9-2.7M20.2 8l-5-2.7m-4 12.5 3 1.6m2.8 1.3 3.2 1.7m-9-4.6L.9 12.5m26.6 31.9 26.3-13.5M27.5 44.4v.1h0m-5-2.6L.9 30.9m21.6 11 5 2.5m-3.4 77.8-3-1.5L1 110.5m26.6 13.4 26.3-13.6M27.5 124l-3.4-1.7m3.3 1.8h.1"/><path fill="none" stroke="#ff9528" stroke-linecap="round" stroke-linejoin="round" stroke-width="1" d="m27.5 41.4 26.3-13.5m-26.3 93 26.3-13.6m-41.1 6.1.2.3"/><path fill="none" stroke="#fb7" stroke-linecap="round" stroke-linejoin="round" stroke-width="1" d="m.9 28 26.6 13.4m-26.6 66 11.8 6m.2.3 14.6 7.2"/><path fill="#f0edc8" d="m21.4 59.2.5 1.1v3.5l-.4.7-4.6-2.2-.4-1v-3.6l.5-.7z"/><path fill="#f2f0d2" d="m14 79.9.6 1.3v3.5l-.6.5-7-3.7-.5-1.1v-3.6l.8-.5z"/><path fill="#f3f1d6" d="M12.8 93.8v-6.1l1.1-1.4 9.7 4.9.8 1.5v7.5l-1.3 1-8.9-4.5z"/><path fill="none" stroke="#000" stroke-linecap="round" stroke-linejoin="round" stroke-opacity=".2" stroke-width="__RESOLUTION__" d="m16.5 61.3.4 1 4.6 2.2.4-.7v-3.5l-.5-1.1M6.5 80.4l.5 1.1 7 3.7.6-.5v-3.5l-.6-1.3m9.6 11.3.8 1.5v7.5l-1.3 1-8.9-4.5-1.4-2.9" vector-effect="non-scaling-stroke"/><path fill="#f3f1d6" d="M50.7 51.1 44 54.6l-.5-.5v-4.9l.5-.5 6.8-3.6.5.5v3.9zM39.5 81.3l-8.1 4.2-.6-.8V77l.6-.7 8.3-4.3.5 1v5.8zm-1 19.6 12-6.4.9 1v6.8l-1.2 2.9-11.7 6.1-.8-.7v-8.8z"/><path fill="none" stroke="#000" stroke-linecap="round" stroke-linejoin="round" stroke-opacity=".2" stroke-width="__RESOLUTION__" d="M50.7 51.1 44 54.6l-.5-.5v-4.9l.5-.5m-4.6 32.6-8.1 4.2-.6-.8V77l.6-.7m18.8 28.9-11.7 6.1-.8-.7v-8.8l.8-.9" vector-effect="non-scaling-stroke"/></g><clipPath id="a"><path d="M1 1h59v155H1z"/></clipPath><clipPath id="g"><path d="M61 1h59v155H61z"/></clipPath><clipPath id="k"><path d="M121 1h59v155h-59z"/></clipPath></defs><g clip-path="url(#a)"><g transform="translate(29.65 14.6)"><use xlink:href="#b" width="54.8" height="146.5" transform="matrix(1.0573 0 0 1.0526 -28.25 -13.6)"/><use xlink:href="#c" width="27.9" height="36.9" transform="matrix(1.0573 0 0 1.0526 .75 102.55)"/><use xlink:href="#d" width="27.9" height="36.9" transform="matrix(-1.0573 0 0 1.0526 .95 102.55)"/><use xlink:href="#e" width="27.9" height="29.6" transform="matrix(1.0573 0 0 1.0526 .85 -.7)"/><use xlink:href="#f" width="27.9" height="29.6" transform="matrix(-1.0573 0 0 1.0526 .85 -.7)"/></g></g><g clip-path="url(#g)"><g transform="translate(89.65 14.6)"><use xlink:href="#h" width="54.8" height="146.5" transform="matrix(1.0573 0 0 1.0526 -28.15 -13.6)"/><use xlink:href="#i" width="27.9" height="36.9" transform="matrix(1.0573 0 0 1.0526 .85 102.55)"/><use xlink:href="#j" width="27.9" height="36.9" transform="matrix(-1.0573 0 0 1.0526 1.1 102.55)"/><use xlink:href="#e" width="27.9" height="29.6" transform="matrix(1.0573 0 0 1.0526 .85 -.55)"/><use xlink:href="#f" width="27.9" height="29.6" transform="matrix(-1.0573 0 0 1.0526 .85 -.55)"/></g></g><g clip-path="url(#k)"><g transform="translate(149.65 14.6)"><use xlink:href="#l" width="54.8" height="146.5" transform="matrix(1.0573 0 0 1.0516 -28.4 -13.6)"/><use xlink:href="#m" width="27.9" height="36.9" transform="matrix(1.0573 0 0 1.0516 .75 102.5)"/><use xlink:href="#n" width="27.9" height="36.9" transform="matrix(-1.0573 0 0 1.0516 .95 102.6)"/><use xlink:href="#e" width="27.9" height="29.6" transform="matrix(1.0573 0 0 1.0516 .85 -.65)"/><use xlink:href="#f" width="27.9" height="29.6" transform="matrix(-1.0573 0 0 1.0516 .85 -.65)"/></g></g></svg>