<svg xmlns="http://www.w3.org/2000/svg" xmlns:xlink="http://www.w3.org/1999/xlink" width="33" height="62" viewBox="0 0 33 62"><defs><g id="e"><path fill="#999" d="M18.7 18.5q.5 0 .9.3.3.4.3.9t-.3.9-.9.4-.9-.4-.4-.9.4-.9zm.7.9-.5 1.2z"/><path fill="none" stroke="#676767" stroke-linecap="round" stroke-linejoin="round" stroke-width="__RESOLUTION__" d="M18.7 18.5q.5 0 .9.3.3.4.3.9t-.3.9-.9.4-.9-.4-.4-.9.4-.9z" vector-effect="non-scaling-stroke"/><path fill="none" stroke="#fff" stroke-linecap="round" stroke-linejoin="round" stroke-width="__RESOLUTION__" d="m18.9 20.6.5-1.2M5.4 2.8 13.6 0M0 22.9l13.5-3" vector-effect="non-scaling-stroke"/></g><g id="d"><path fill="#d7c08e" d="m27 8.4-1 1-.2.2-1.2-2.3-.1-.4L26.6 8zm-10.3 34v1.4l-.3.3-.2-.1-1.7-.9z"/><path fill="#57481e" d="m26 9.4 1-1L17.2 43l-.5.8v-1.4z"/><path fill="#ab8e3a" d="m24.5 6.9.1.3 1.2 2.4.1-.2-9.2 33-2.2.7-.4-.3-.4-.1L0 35.3 9.3.1l1.5-.1 7.6 3.8h.1zM10.8.3l13.8 7z"/><path fill="none" stroke="#45291b" stroke-linecap="round" stroke-linejoin="round" stroke-width="__RESOLUTION__" d="m27 8.4-.4-.4-2.1-1-6-3.2-.1.1h0L11 0H9.3L0 35.3l13.7 7.4.4.1.4.3 1.7.9.2.1.3-.3.5-.8z" vector-effect="non-scaling-stroke"/><path fill="none" stroke="#d7c08e" stroke-linecap="round" stroke-linejoin="round" stroke-width="__RESOLUTION__" d="m24.7 7.3-14-7" vector-effect="non-scaling-stroke"/><path fill="#ccc" d="M15.5 13q3.3-.8 6.9-.9l-.7 2.7q-2.4 1.7-4.9 2.8zm3.8-5q-2 2-4.4 3l-1.6-6zM7.1 17.3l1.6-1.1v3.6l-2.2-.1zM20 20.6 18.8 25l-1.2-4.4zm-15.1 15-2.3-1.2L5 25q2-1.4 3.8-2.3l.1 11-.8 1.4z"/><path fill="#ececec" d="M22.4 12.1q-3.6.1-6.9 1-3.7 1-6.8 3.1l-1.5 1L8.5 12q3.4.1 6.3-1 2.3-1 4.4-3L23 9.7zm-5.6 5.5q2.4-1.1 4.9-2.8L20 20.6l-2.4-.1q-4.2 0-8.8 2.3L5 25l1.5-5.3h2.3q4-.2 8-2m-.1 14.5-.6 2.2q-4.8-.2-8.6 2.4l-2.6-1.3 3.2-.3q5.2-.7 8.6-3"/><path fill="#c1c1c1" d="m15.5 13 1.3 4.6q-4 1.9-8 2.1l-.1-3.5q3.1-2.1 6.8-3.2m-.6-2.1q-2.9 1.1-6.3 1l2.2-8.1 2.5 1.1zm3.9 14-2.1 7.3q-3.4 2.3-8.6 3l.8-1.4-.1-11q4.6-2.4 8.8-2.3zm-2.7 9.5-1.7 6-6.9-3.6q3.8-2.6 8.6-2.4"/><path fill="none" stroke="#a6702f" stroke-linecap="round" stroke-linejoin="round" stroke-width="__RESOLUTION__" d="m21.7 14.8.7-2.7.6-2.3m-3 10.8L18.8 25l-2.1 7.3-.6 2.2-1.7 6-6.9-3.6-2.6-1.3-2.3-1.2M20 20.7l1.7-5.9" vector-effect="non-scaling-stroke"/><path fill="none" stroke="#533520" stroke-linecap="round" stroke-linejoin="round" stroke-width="1" d="m23 9.8-3.7-1.9-6-3-2.5-1.2L8.6 12m0 0-1.5 5.4-.6 2.4L5 25l-2.4 9.3"/><path fill="#ae913c" d="M16.2 52.8v-.6l.7-1.5 1.4.5-1.3-.8.4-.5 3 1.5-.5.8-.7 1.5-.1.4zm4.3-1.3-3-1.5.5-.7 1 .5 2 1z"/><path fill="#9e8436" d="m16.2 52.8 2.9 1.4q-.3 1.5-1 2.5L15 55.3q.8-.8 1.1-2.5m.9-2.4 1.3.8-1.4-.5z"/><path fill="#a28737" d="m19.1 54.2.1-.5.7-1.5.5-.8.5-.7.3-.4.8-.7.1-.1.3 1 .3-1-.3-.1.2-.1.3-.1.2-.2.5-.2h1.3l1 .5.6.9.3.8q.4 1.4 1.7 1v2l-11.4 5.6v-1.2l.5-1.1.5-.6q.7-1 1-2.5m6-3.7h-.4l-1.4.2h-.1l-.2.1-.2.1-.2.1q-1.2.7-2 2.3l-.6 1.3q-.3 2.1-1.6 3v.8l9.3-4.8v-.7h-.5q-.4 0-.7-.4l-.3-.3-.2-.7-.5-.7z"/><path fill="#57481e" d="M17.9 49.2q.8-1 1.8-1.5l.2-.1.3-.2 2.1 1.1-.5.6-.9-.2.8.5-.1.1-2.7.2zm-.7 10.4-3-1.5v-2l2.4 1.3.5 1z"/><path fill="#be9e41" d="M20.2 47.4h.2l1.6-.2.8.3 2.1 1.3h-1.3l-.5.2-.2.1-.3.1-.2.2-.6-.2.5-.7zm-1.3 2.2 2.7-.2v-.1l.4.2-.9.8-.2.3zm-.5 8 8.8-4.5.5.3v.1l-9.3 4.8z"/><path fill="#c5a854" d="m26.8 51 1.7 1q-1.2.4-1.7-1"/><path fill="#b1943d" d="m14.2 56 .8-.6 3.1 1.3-.5.5-1 .1z"/><path fill="#897230" d="m21.7 49.4-.8-.5.9.3.6.1v.1h.3l-.3 1.1-.2-1-.2.1z"/><path fill="#503d1d" d="M18.4 57.8v-.1q1.3-1 1.6-3.2l.6-1.2q.8-1.6 2-2.2l.2-.2.2-.1.2-.1 1.6-.3.3.1.4.6.2.7.8.7q.3.4.7.4v.3z"/><path fill="#7a6629" d="m27.3 53.3-.1-.1v-.3h.5v.6zm-.9-.8-.7-.7-.2-.6-.4-.7.4.3.5.7.2.7z"/><path fill="#cfb874" d="m17.6 57.3-.5 1.1-.5-1z"/><path fill="none" stroke="#c6a457" stroke-linecap="round" stroke-linejoin="round" stroke-width="__RESOLUTION__" d="m20.4 51.4-3-1.5" vector-effect="non-scaling-stroke"/><path fill="none" stroke="#57481e" stroke-linecap="round" stroke-linejoin="round" stroke-width="__RESOLUTION__" d="M17.9 49.2q.8-1 1.8-1.5l.2-.1.5-.2 1.6-.2.8.3 2.1 1.3h0l1 .5.6.9.3.8 1.7 1v2l-11.4 5.6-2.9-1.5v-2l.8-.7q.8-.9 1.1-2.6l.1-.6.7-1.5.1-.3z" vector-effect="non-scaling-stroke"/></g><g id="c"><path fill="#be9e41" d="M13.6 3.3 7.4 6.4V4.5l-.9 2.1L0 3.4 6.8 0z"/><path fill="#a98d3a" d="m7.4 6.4 6.2-3V117l-6.8 3.4.3-71.5h.1z"/><path fill="#79612b" d="m0 3.4 6.6 3.2.8-2v1.8L7.2 49h-.1l-.3 71.5-6.8-3.4V36.7L.7 38l-.7.7.7-.7-.7-1.3z"/><path fill="none" stroke="#57481e" stroke-linecap="round" stroke-linejoin="round" stroke-width="__RESOLUTION__" d="M13.6 3.3 6.8 0 0 3.4v33.3L.7 38l-.7.7V49m13.6 0V3.3M6.8 120.6l6.8-3.4V49M0 36.7v2M0 49v68.1l6.8 3.4" vector-effect="non-scaling-stroke"/></g><g id="b"><path fill="#000" fill-opacity=".2" d="m.3 11 9-5.4 4.4 1.2 15.7 7.4v1l-11.3 5.1z"/><path fill="#6a5526" d="m8.2 2.3.2-.2.3-.1.2-.1.5-.2 1.3-.1.6.2.3.3q.5.4.7.9l.3.9q.5 1.4 1.8 1v2L5 11.5l.7-1 7.7-4v-.8H13q-.4 0-.7-.3L12 5l-.2-.7-.5-.7-.4-.3-.3-.1h-.3l-1.2.3h-.3l-.2.1-.2.2-1.2 1-.8-1 .3-.4.3-.3.8-.7.2-.1.2 1 .3-1.1z"/><path fill="#57481e" d="M10.7 1.6H9.4l-.5.3-.2.1-.3.1-.2.1-1.5-.5 1.1.8-.8.7-.3.3-3-1.4L5.4.6l.3-.1.5-.3L7.8.1l.8.3zm-8.2 8.6.4 1.1v1.2L0 11V8.9z"/><path fill="#897230" d="M8.2 2.3h.3l-.3 1-.2-1-.2.2-1.1-.8z"/><path fill="#ae913c" d="m6.7 3.5-.3.4-.5.7L3 3l.2-.3.5-.6zM3 3l2.9 1.6-.2.5L5 6.6l-.1.4-3-1.4.2-.5.6-1.5 1.4.5-1.3-.8z"/><path fill="#a28737" d="m6.4 3.9.8 1-.9 1.3-.5 1.2q-.3 2.2-1.6 3.1v.8l1.5-.8-.6 1-2.2 1v-1.2l.5-1.2.5-.5q.7-1 1-2.5V7l.1-.4.7-1.5.2-.5z"/><path fill="#503d1d" d="m7.2 5 1.2-1.1.2-.1.3-.1.1-.1 1.3-.4-4 6.3-2.1 1.1v-.1q1.3-.9 1.6-3.1l.5-1.2z"/><path fill="#392815" d="M10.3 3.3h.3l.3.1.4.6.2.7.8.7q.3.3.7.3v.4L6.4 9.5z"/><path fill="#7a6629" d="m10.9 3.4.4.3.5.7.2.7.3.3-.8-.7-.2-.7zM13 5.8h.5v.6l-.4-.3H13z"/><path fill="#947634" d="m13.5 6.4-7.7 4 .5-.9L13 6.1zm.8-1.5q-1.2.3-1.7-1z"/><path fill="#9e8436" d="m2.8 3.3 1.3.8-1.4-.5zm-.9 2.4L5 7q-.3 1.6-1 2.6L.8 8.2q.8-.8 1.1-2.6"/><path fill="#be9e41" d="m4.2 10.6 2.1-1.1-.5 1-1.6.8z"/><path fill="#cfb874" d="m3.4 10.1-.5 1.2-.5-1.1z"/><path fill="#b1943d" d="m3.4 10.1-1 .1L0 8.9l.8-.7 3.1 1.4z"/><path fill="none" stroke="#c6a457" stroke-linecap="round" stroke-linejoin="round" stroke-width="__RESOLUTION__" d="m3 3 2.9 1.6" vector-effect="non-scaling-stroke"/><path fill="none" stroke="#57481e" stroke-linecap="round" stroke-linejoin="round" stroke-width="__RESOLUTION__" d="m7.8 0 .8.4 2.1 1.2h0l1 .5q.4.4.6.9l.3.9 1.8 1v2L2.8 12.5 0 11V8.9l.8-.7q.8-.8 1.1-2.6l.2-.5.6-1.5.1-.4.9-1.1L5.4.6l.3-.1.5-.3z" vector-effect="non-scaling-stroke"/></g><clipPath id="a"><path d="M1 1h31v60H1z"/></clipPath></defs><g clip-path="url(#a)"><g transform="translate(15.75 54.15)"><use xlink:href="#b" width="29.4" height="20.3" transform="translate(-14.75 -14.05)"/><use xlink:href="#c" width="13.6" height="120.5" transform="translate(-9.5 -39.3)scale(.2216)"/><use xlink:href="#d" width="28.6" height="59.6" transform="translate(-13.1 -53.15)"/><use xlink:href="#c" width="13.6" height="120.5" transform="translate(6.75 -30.55)scale(.2216)"/><use xlink:href="#e" width="19.9" height="22.9" transform="translate(-9 -45.45)"/></g></g></svg>