<svg xmlns="http://www.w3.org/2000/svg" xmlns:xlink="http://www.w3.org/1999/xlink" width="66" height="46" viewBox="0 0 66 46"><defs><radialGradient id="b" cx="0" cy="0" r="819.2" gradientTransform="matrix(.1 0 0 .1 54.5 45.3)" gradientUnits="userSpaceOnUse" spreadMethod="pad"><stop offset=".2" stop-color="#5b5d23"/><stop offset=".8" stop-color="#a1a648"/></radialGradient><clipPath id="d"><path d="M1 1h64v44H1z"/></clipPath><use xlink:href="#a" id="e" width="85.3" height="58.7"/><g id="a"><path fill="#959941" d="M57.6 3.2h.1l.8 6.9h.3l-.3.3-.5-.4h.5-.5l-1.7-1.7q-2.1-2.8 1.3-5.1m6.6 6q1.2-4.2 3.4-3.9.8 4.9-3.4 3.9m-22-9q5.4-.4 5 4.8-4.1 1-5-4.8M27.8 14.5q-2-.7-4.6-2.8 5.6-2.4 8.3-.1l.2.2.6.6-.2.4-.4.8q-1.3 1.8-3.9.8M47.4 12q-3.9.5-6.9-4.7 6.9-1.8 8.1 2.6l.2 1.4v.3l-.4.1zm-11.6 2.9q2.3.4 2.2 4.3-4 1.6-5.6-1.7l-.6-1.6q2.5-1.3 4-1m-3.4 2.6v.3zm-11-2.6q-5.6.3-4.7-2.4 4.3-2.2 4.8 2.3M.5 33q2.9-2.9 7.6-1.4Q3.4 35 .6 33M49.5 3q2.6 4.5-.6 5.5-1.4-2.7.6-5.4m12 0q3.9 1.4 1.5 6.1-4-3.2-1.5-6"/><path fill="#c7ca71" d="M57.7 3.3q3.7 2.2 1.7 5.9l-.6.9h-.3zM75 17q0 1.5-1.8 1.5h-.3q0-1 2-2.2zm-6.3 3.4.1-.1 1.6-.4.8-.3q-1 1.3-1.5 1.3zm1-4.7q2.3 0 2.6 2.2v.5l-.3-.2-3.5-2q0-.6 1.2-.6"/><path fill="url(#b)" d="m95.3 2 5.8.5 1.9.7-.9 1.2q1-.2 1.9-.8l3.1 1.2.7.3q2.6 1.3 3.6 2.5-.2-1.3 0-2.8l.3.1-.2-.1v-.1l.2.2 4.4 2.3.1.3 1 3.9 2-4.6q1-2.3 2.5-3l-1.2 5.1-1.3 2.8-.7 1.2q-1.1.8-2.8.8l-.2-.1-1.7-.8v-.1l-.2-.6-.3-.9.3.9.2.6v1.7q-.5 2.5-3.1 4.1l-.7.4-4.2 2.2q1.5-1.9 1.5-3.5 0-2.2-2.3-4.1-1.9 1.9-2 6.2l.2 2.6-1.7.8.5-2.9q.5-6.5-5.2-6.9-2.1 4.6 1 9l1.6 1.9-1.3.7q-2.1-.3-3.3-1-1-.6-1.5-1.5l-.1-.4-.1.3.2.6-.3 1.9h-.1l-.7 1.3h-1.5l-.9 2.3-.5 1-.7.4q-.4-1.4-1.1-2.4-1.3-1.7-3.5-1.6l-.2.1q-.5 1.7.2 3.4l.7 1.3-1.5-1q-2.2-1-3.9 1l.5.8q1.3 1.8 3.3 1.1l-3 1.6-1.7.2h-4l-.2-.2q-2.5-1-5.2-1.7l1.5.9q1.2.8 1.8 1.8.4.8.4 1.6l-1.4 1.9-.2.1-4.3 2.3-6.6 3.5-8.1 4.8q-.7 0-.7-4.4l-6.7 5.5-.2-.2v-.5l1.9-4 .1-.3 1.1-2.9q-1.4 0-3.7 1.9l-.2.2-3 2.5 1-3.2q1-2.6 2.6-4.6l-.1.1 3.9-4.5v.3l1.5-1.7q2.5-2.4 3.2-2.4-2.5-1.3-5-.7l-1.2.3-3.4.7q-2 .4-3.3 1.9 1.7-6.5 3.6-7.3l6.6-2.9q4-1.7 4.4-2.2-.5-1.1-5.5-1.6-5.4 0-6.6 2.6.8-4.3 6.4-5.4 5.3-1.1 6.7-2l.1-.1-.1-.2q-.3-.8-3.6-1.8l-1.7-.5q4.6-1.5 11.8-2.2l6.3-.6h.3l.4.4v-.2q1.5 3.3 5.5 1.7.1-3.9-2.2-4.3l-.3-.3q-2.4-1.5-3.8-1l.5-.7 1-.2-.9-.2-.1.4 1-.2 2-.5 6 .4.3.1.5.3h.3l.4.3q3.7 1.6 6 3.3l.2-.3-1.5-4.3 2.8-.2h.4l3.5.4q1.6 1 2 1.8v-.3q-.2-1.6-1.2-3.6l.8-.3 2.3.3.5.4zm16.3 6.9q0-.5-.2-.7-1.9 1.3-2 2.3h.3q1.9 0 1.9-1.6m1.1 1-.5-1.1zm-7.5 2.4 1.1.5q.5 0 1.5-1.2l-.9.3zm1-4.8q-1.2 0-1.2.6l3.4 2 .3.1v-.5q-.2-2.2-2.5-2.2M95.2 4q.1-1.6-.2-1.8.3.2.2 1.8m4.6 3.4L97.6 4l-.1 2.4q0 1 2.4 1m-17 3.4q1.4 1.7 2.9.3-2.1-2.4-2.9-.3M86.7 8q-.7 1.3.8 2.3.7-2.5-.8-2.3m.8 3.4L86.4 10zm1 3q-2.3-3-4.6-1 2.8 4 4.7 1zm-5 7.6h1.2zm8.3-3.7 1.4 3.6zM90 13.8q3.3-3.4 1-4.7-2.7 1.2-1 4.7m1.3 3.8-1.7-3zm-2.1 6.3 1.5 1.3.5.5.5.5-.5-.5-.5-.5zm-19-9.7-1.3-.4zM61.8 20q1.4 5.3 6.2 3.4.2-6.5-6.1-3.4m11.6 5.6h.2l.1.1.4-.4.2-.4.1-.2q4.8.1 6.2-5h-1q-2.3 0-3.7 2.1 1-3.6-1.8-5.4-.5-.8-1.6-1.5l-1-.6q-5.2 5.3-.3 9.2.8 1 2.3 2m-2.1-.6q-5.4-1.3-8.9 4 7.8 2.9 8.9-4M66.9 32l-4-.4zm-6.2-.5h-2.2zm3.7-18.4q-4.4-.2-9 1.4 4.6-1.6 9-1.4" transform="translate(-36.55 8.15)"/><path fill="#6b6e2b" d="m71.2 13.3 3.5-.4h.2q-.2 1.5 0 2.8-1-1.1-3.7-2.4m-45.7 4.5.3-1 2-2.4q2.6 1 3.9-.8 1.3-.5 3.7 1l.4.2q-1.5-.3-4 1l.6 1.6-.4-.1.5.3-.1-.2-.4-.1-.3-.1zM42.2 13l1.2-.7 4-.4 1.5 4.3-.3.4q-2.2-1.7-6-3.4zm12.6-3q1 2 1.3 3.7v.2q-.5-.8-2.1-1.7l-3.5-.4.9-.7z"/><path fill="#8b8f3c" d="m84 17-.3 2.4-.2 1.8.1.6-5.4 2.7-4 2.1q2.6-1.5 3-4v-1.7l1.7.8.3.2q1.7 0 2.8-.8l.6-1.2zm-5.8 7.4-.5-2.2-.5-1.3.5 1.3z"/><path fill="#70732e" d="m69.2 29.2-2.6 1.2-.1-2.5q0-4.3 1.9-6.2 2.4 1.9 2.4 4 0 1.7-1.6 3.5m-4.3 2.1-2 1-1.6-1.8q-3.1-4.5-1-9 5.7.4 5.1 6.9zM52 37.9l-3.2 1.7-.7-.9-.7-1.3q-.6-1.6-.1-3.3l.1-.2q2.3-.1 3.6 1.7.6.9 1 2.3"/><path fill="#6d702c" d="m61.6 33-3.4 1.8-2 1-3.5 1.8.6-1 .9-2.4.9.1h.5l.8-1.3v-.1l.3-1.9-.2-.6.2-.2.1.3q.5.9 1.5 1.5 1.2.7 3.3 1m-3.4 1.8-.7-2.4-.7-1.9.7 1.9zm-3.1-.5 1 1.5z"/><path fill="#5b5d23" d="m48.8 39.6-2 1-.2.1q-2.1.6-3.4-1.2l-.4-.8q1.7-1.9 3.9-.9l1.4 1zm-5.2 2.6-3 1.5-5.7 3 1.3-1.9q0-.8-.4-1.5-.5-1-1.8-1.9l-1.5-.9q2.8.7 5.3 1.8l.2.1h3.9zm-18.4-14q6.3-3.2 6.2 3.3-4.8 2-6.2-3.4m12.4-3.5-1.2-.6-.3.3.8 9.4q-1.5-1-2.2-2-5-3.9.2-9.2l1 .6q1.1.6 1.7 1.5m.3 8.3 1.4-3q1.5-2 3.8-2.1h.9q-1.3 5.2-6.1 5m-1.8-8.5q-3.8 4.1-1.5 7.3-2.3-3.2 1.5-7.3M35 33v.1q-1.1 6.8-8.9 4 3.4-5.4 8.9-4m5.5 10.6L38 42.5z"/><path fill="#4f501f" d="M9.8 53.8q-1.6 2.7-3.6 2.4-.6-1 1-3.5l.2-.2q2.3-1.8 3.7-1.8L10 53.5zm-2.2-6.2q-4.5 3-7.4.3 5-4.5 8.7-4-1.5-1.6-.4-2.4 1.1-.9 2.3-.7 1 .1.8 2.2zm5.5-5.8q-1.4-2.4-3.1-2.9l1.2-.2q2.5-.6 5 .6-.6.1-3.1 2.5M.8 52q1-2.2 3.7-1.3Q3 53.5.8 52"/><path fill="#acb04c" d="M67.5 11.7q-.9.7-1.9.9l1-1.2 1.9-2q.3 1.3-.9 2.3m-4.1 3.9q-2.4 0-2.4-1v-2.3z"/><path fill="#989b43" d="M46.4 19q.7-2 2.9.3-1.5 1.4-3-.3m3.8-2.7q1.6-.2.9 2.3-1.5-1.1-.9-2.4m1.8 6.3v.1q-1.9 3-4.6-1 2.3-2 4.6.9m1.6-.7q-1.8-3.5 1-4.7 2.2 1.3-1 4.7"/><path fill="#71742f" d="m36.2 24.3.3-.3 1.2.6q2.8 1.8 1.7 5.4L38 32.9l-.1.1-.3.5-.3.4-.1-.1-.2-.1z"/><path fill="none" stroke="#4f4e2c" stroke-linecap="round" stroke-linejoin="round" stroke-opacity=".3" stroke-width="__RESOLUTION__" d="M57.7 3.3q3.7 2.2 1.7 5.9l-.6.9 5.7.6-1.6-.5 1.3-1q1.2-4.2 3.4-3.9.8 4.9-3.4 3.9m-22-9q5.4-.4 5 4.8-4.1 1-5-4.8M74.9 13h.2l4.5 2.3v.4l1 3.9 2.1-4.6q1-2.3 2.5-3L84 17l-.3 2.4-.2 1.8.1.6-5.4 2.7-4 2.1M75 13h-.2l-3.5.3q2.7 1.4 3.7 2.6m.7 1.2.6 1m-2.8 9-4.2 2.2-2.6 1.2-1.7.9-2 1-1.4.7-3.3 1.8-2 1-3.5 1.8-.7.3-3.2 1.7-2 1m-.2.1-3 1.5-3 1.5-5.8 3m-.3.2-4.3 2.2-6.5 3.5-8.1 4.8q-.8 0-.8-4.4l-6.7 5.5-.1-.2V58l1.8-4.1m-2.6-1L4 55.3l1-3.2q1-2.7 2.7-4.7l-.2.1q-4.5 3-7.4.4 5-4.5 8.7-4-1.5-1.6-.4-2.4 1.1-.9 2.3-.7 1 .1.8 2.2l-.1.4 1.6-1.7q2.5-2.4 3.2-2.5-2.6-1.2-5.1-.7L10 39l-3.3.6q-2 .4-3.3 2Q5 35 6.9 34l6.7-2.8q4-1.8 4.3-2.2-.4-1.2-5.4-1.6-5.4-.1-6.6 2.5.8-4.2 6.4-5.4 5.3-1 6.7-2h0l-.1-.2q-.2-.9-3.5-1.8l-1.8-.5q4.7-1.5 11.9-2.3l.3-1 2-2.4q-2-.6-4.6-2.7 5.6-2.4 8.3-.1l.2.2.6.6.8.2 2-.4 6 .4.4.1.5.2.2.1 1.2-.7 4-.4h0q-3.9.5-6.9-4.7 6.9-1.8 8.1 2.6l.2 1.4v.3l-.4.1-1 .3M77.3 21v-.1l-.3-.7-.3-.8m.5 1.6.5 1.3.5 2.2m-7-11.2-.7-.4-3-1.2m-1-.3-2-.7m2.1 19.7-.1-2.5q0-4.3 1.9-6.2 2.4 1.9 2.4 4 0 1.7-1.6 3.5m-4.3 2.1.5-2.9q.5-6.5-5.1-7-2.1 4.6 1 9l1.6 2m12-19.5h-.2M58 10l.5.4.3-.3h-.3zl-2.3-.2-.9.3-3.4 1-.9.7-.3-.1-2.8.3m8.7 1.7v.2q-.5-.8-2.1-1.7m-5.4 4.4q-2.2-1.7-6-3.4l-.4-.2M58 10l-1.7-1.7q-2.1-2.8 1.3-5.1m.9 7.2q.4.3.2 1.8m-8.8 6 1 1.4m-2.8 10.6H47m9.8.3.7 1.9.7 2.4m-1.5-4.6-1.5-3.6m1.5 3.5.1.4m-3.7-7.8 1.6 2.9m1.5 10.2L55 34.3l-.4-.5-.5-.5-1.6-1.3M32.4 17.4q1.6 3.3 5.6 1.8 0-4-2.2-4.4-1.5-.3-4 1zv.3l-.4-.4-.3-.1m4.1-2.4-.4-.2q-2.4-1.5-3.7-1-1.3 1.8-3.9.8m4.3-1.6 1-.2m-1.4 1 .4-.8.1-.4m.2 5-.4-.1m.5.3-.1-.2m0 4.5 1.3.3m-8.4 6q1.4 5.3 6.2 3.3.1-6.5-6.2-3.4m12.4-3.5-1.2-.6-.3.3q-3.8 4.1-1.5 7.3-4.9-3.8.3-9.1l1 .6q1.1.6 1.7 1.5 2.8 1.8 1.7 5.4L38 32.9q4.8 0 6.1-5.1h-1q-2.2.1-3.7 2.2m-18-15.2q-5.6.3-4.7-2.4 4.3-2.2 4.8 2.3M10 53.6l1.1-2.8q-1.4 0-3.7 1.8l-.2.3M35 33q-5.5-1.4-8.9 4 7.8 2.8 8.9-4m2.9 9.3-.2-.1q-2.5-1.1-5.3-1.7m5.5 1.8 2.6 1.4m-14.1-4.1 4 .4m6.6-6.4q-1.5-1-2.2-2m-12.8 8h2.2m-5.2-17q4.6-1.6 8.9-1.5M.6 33q2.8 2 7.5-1.4Q3.4 30.2.6 33M49.5 3q-2 2.8-.6 5.5 3.2-1 .6-5.4m12 0Q59 6 63 9.3q2.4-4.7-1.5-6" vector-effect="non-scaling-stroke"/><path fill="#d7d36a" d="m41.7 7 2.5-.2 1.5.7q1.8.9 2.1 2.2v.6q0 1-.6 1-.8 0-3.1-1.5l-1.6-1.1v-.1q-.8-.7-.8-1.2zm42.8 5.8q-1.2 1.7-1.3 3.1v1.8l-1.2.9q-1.1.6-.3-.8l.3-.8.9-1.8q1.1-2.2 1.5-2.3zm-8.7 2.9q0-1-.3-1.7l2.7.8q.8.4 1 1.6l-.1.6-3.4-.6zm-9.1 0q-.7 0-5-3l-.9-.6-.1.4q-.4 1.2-.4 2-.3-.4-1.7-.8l-1.3-.2h-.5v-.2q-.3-.6-.3-1.6v-.1q0-.7.9-.7.4 0 1.1 1.1l.1.2.2-.1.7-.7 2-.2 3.5.3q.4.2.8 1.7.8 0 2.2-.9l4.1 1.7-.8.7q-1.5 1-4.6 1M47.9 17q-.8 0-2.1 1t-3 1l-.8-1-2.1-2.4-5.7-2.6.1-.2.4-.2 1.4.2 4.7 1 .9.3q5.1 1.4 6.4 2.9zm6.6-4.3 1.2 1.5H54l-4-.2-.2-1.3 2.2-.2zm-22 0 .1.5q0 .4-1.5.4h-.6l-4.4-.6-2.5-1q.3-.3 2.7-.7l.9-.2.7-.1h.7q3.5.4 4 1.8m-1.8 5.7-2.4 2q-1-1.1-5.8-1.1l-5.6.5-.7.2q3-1.4 7-1.9l4.4-.2q2.4 0 3.1.5M26.2 23v.6l-1.2-.2-2.4.2 1.8 1.6Q22.6 27 21.6 27l-3.1-.4-3.3-.4q-2.8 0-8 1.5.8-1.6 5.6-3.2 3.9-1.3 7.9-1.8l3.6-.2q1.3 0 1.8.5m-10.4 8.6 1.3-.1q2.8 0 3.3.9l-5.5 2.3 1.1 2-.2.1q-.5-.4-2.3-1h-.2l-2.3-.5q-3.4.4-6 3-.2-.6.7-2l.2-.5.3-.4q1.3-.8 4-2 3.4-1.5 5.7-1.8M11 44.2v-.1h.2l3.6-1.7q-.7 1.3-3 3.7L6 51.6z"/></g></defs><g clip-path="url(#d)"><use xlink:href="#e" width="85.3" height="58.7" transform="translate(1 1)scale(.7473)"/></g></svg>