<svg xmlns="http://www.w3.org/2000/svg" xmlns:xlink="http://www.w3.org/1999/xlink" width="59" height="69" viewBox="0 0 59 69"><defs><clipPath id="a"><path d="M1 1h57v67H1z"/></clipPath><g id="b"><path fill="#000" fill-opacity=".3" d="M56.7 53.9 30.9 66l-10.3-1 20.7-18.8z"/><path fill="#6b4549" d="M43.8 27.2V48q-3.3 2.9-5.6 3.6l-3 .7q-1.4-.1-2.5.7l-.7.6-3.3.6-.3-.1q-.3 0-.5.2-1.2-.2-2.7 0-1.3 1.4-3.4 1.6V41.6q3.3-3.6 3.3-5h.1l1.9-1 .3-.5.4.2.3-.1q1.8-2.7 4-3.5l5.6-2 .5.2 5.4-2.7z"/><path fill="#6c523c" d="M43.8 48v3.2q-3.3 1.6-5.1 1.6l-3.5-.5 3-.7q2.3-.7 5.5-3.6m-22 7.9q2.2-.2 3.4-1.6 1.6-.2 2.8 0-4.8 4.3-5.3 4.3l-.9-.2zm7-1.6 3.3-.7q-1.2 1-2.7 1.3z"/><path fill="#5c4532" d="M43.8 51.2v3.4q-2.2 2.2-5 2.6-3.7.5-7.9 4-4.5.5-8.6 4.5h-.6v-7.3l.9.2q.5 0 5.3-4.3.2-.2.5-.2l.3.1.6.7q1.5-.3 2.7-1.3l.7-.6q1.1-.8 2.5-.7l3.4.5q1.9 0 5.1-1.6"/><path fill="#7c5e45" d="M21.8 65.7q-3.4-3-6.4-3.2-8-3-14.9-7.7v-3.6q.9.4 2.1-1l1.9 2.9q1.3-2.5 1.8-2.4l.6.2.5.2q2 .6 5.7 2.1.5.3 2.5 2.4l1.3 1.5q.7.9.7 1.1.8.1 1.4-1l1.5.5q-.2.5.2.5l1 .2z"/><path fill="#8b694e" d="M.5 51.2v-1.9l2.1-.1q.8 0 3.7 1.2h.1l.6.3-.1.2-.6-.2q-.5-.1-1.8 2.4l-1.9-2.9q-1.2 1.4-2.1 1m21.3 4.6v2.6l-1.1-.2q-.4 0-.2-.5l-1.5-.5q-.6 1.1-1.4 1 0-.2-.7-1.1l-1.3-1.5q-2-2.1-2.5-2.4-3.7-1.5-5.7-2.1v-.2l4.1.5q.6.2 5.4 4l1.2.8 2.1-.1h.1q.3-.2 1.1-.2z"/><path fill="#7f4d4b" d="M.5 49.4V34.8l1.1-.2q.7-.1 3.3-1.5 2.3-1.4 2.7-2.2l11.5 5.9q1 3.6 2.4 5h.3v14h-.4q-.8 0-1.1.3l-2.2.1-1.2-.9q-4.8-3.7-5.4-3.9l-4-.5-.5-.2-.6-.2-.1-.1q-2.9-1.2-3.7-1.2zm5-5.6-.6-.4zv-7l10.1 5.1v-.6 8z"/><path fill="#a36663" d="M.5 34.8v-2.1l2.3-4.2 1.6-3 .5-.2 1-.5q0 2.3.5 5.5l1.2.6q-.3.8-2.7 2.2-2.6 1.4-3.3 1.5z"/><path fill="#e3e4b1" d="m5.9 24.8.3-.1 1.6-1 1.4-.6 6.6-3.4.4-.2L19 18l1.9.4 4.7.4h1.3L29 20l14.5 7.2-5.4 2.7-.5-.2-5.6 2q-2.2.8-4 3.5l-.3.1-.4-.2-.3.6-1.9.9-1.8.3-2.4.2-.8-.2-1.1-.2L7.6 31l-1.2-.6q-.5-3.2-.6-5.5"/><path fill="#734644" d="M25.2 36.7q-.1 1.3-3.4 4.9l-.2.2q-1.5-1.4-2.5-5h1.1l.8.3 2.4-.2z"/><path fill="#a2ac46" d="m7.5 50.9-.1.2-.5-.2.1-.2z"/><path fill="#8c5653" d="M5.4 43.7v-7l10.1 5.1v7.4z"/><path fill="none" stroke="#000" stroke-linecap="round" stroke-linejoin="round" stroke-opacity=".3" stroke-width="1" d="m43.6 27.2.1-.1h0v27.5m-43.2.1V44.4m0-5.7v-5.5m4.4-7.8 1-.5.3-.1m1.6-1 1.4-.6m6.6-3.4.4-.2m4.7-1.1 4.7.4m3.5 1.2 14.5 7.2"/><path fill="none" stroke="#000" stroke-linecap="round" stroke-linejoin="round" stroke-opacity=".3" stroke-width="__RESOLUTION__" d="m4.9 43.3.5.4 10.1 5.5v-8" vector-effect="non-scaling-stroke"/><path fill="#a36663" d="m16.7 61.2-.1 4.5-2.2-1.9z"/><path fill="#6b4549" d="m16.6 65.7.1-4.5q1 1.7 3.9 3z"/><path fill="#a36663" d="m25.6.8 1.7.7 1 .4 1.6.7L31 3l-1.9 1-.1-.2-.3-.2-.8.3-6.2 2L17 3.2l.5-1.5L21.2.4l2.9.2h1zM7 31l-4.4-2 4-7.1q1 4.5 1 6.2z"/><path fill="#6b4549" d="m31 3 3.5 6.8-.2 2.3q0 .3 1.9 4l.6 1.3 1.2 3q.6.7 2.7 1.3l2.8 5.5-21.3 11 .9-19.8v-.1q3.7-3.8 4.8-8 .4-4 1-6v-.2l.2-.1z"/><path fill="#82504d" d="m36.2 16.1 3.8 4.3.7 1.3q-2.1-.6-2.7-1.3l-1.2-3zM29 3.8l-.1.3v.3q-.6 2-1 5.9-1.1 4.2-4.8 8l-.2-.1q-.6-4.7-2.2-10.1.6-2.1 1-2.2l6.2-2 .8-.3z"/><path fill="#7f4d4b" d="m22.2 38.2-.4.1L7 31.2l.6-3q0-1.7-1-6.2l-.1-.3-.6-2.5 1.2-2.4 1.6-2.2 1-1.5 2.9-4.3 1.1-1.6 1.8-2.7.1-.2.9-1.2.4.3L21.7 6q-.4 0-1 2.2 1.6 5.4 2.2 10l.2.3zm-7-18.9q-1.1 4.8-1.1 6 0-1.2 1.2-6m-.9 13.3v-.7q.4-.8 1.5-5 1.2-4.4 1.2-6 0 1.6-1.2 6-1.1 4.2-1.5 5z"/><path fill="#e3e4b1" d="m28.9 4.1.1-.3.1.2z"/><path fill="#aca97d" d="m22.9 18.2.2.1z"/><path fill="none" stroke="#000" stroke-linecap="round" stroke-linejoin="round" stroke-opacity=".3" stroke-width="1" d="m27.3 1.5 1 .4m1.6.7L31 3l3.5 6.8-.2 2.3q0 .3 1.9 4l3.8 4.3.7 1.3 2.8 5.5M2.8 29l3.9-7.1-.1-.3-.6-2.5 1.2-2.4 1.6-2.2m3.9-5.8 1.1-1.6m1.8-2.7.1-.2M24.1.5h1l.4.3"/><path fill="none" stroke="#000" stroke-linecap="round" stroke-linejoin="round" stroke-opacity=".1" stroke-width="__RESOLUTION__" d="M14 25.3q0-1.2 1.3-6m1.8 1.6q0 1.6-1.2 6-1.1 4.2-1.5 5v.7" vector-effect="non-scaling-stroke"/></g></defs><g clip-path="url(#a)"><use xlink:href="#b" width="56.6" height="66.1" transform="translate(1 1)"/></g></svg>