<svg xmlns="http://www.w3.org/2000/svg" xmlns:xlink="http://www.w3.org/1999/xlink" width="78" height="48" viewBox="0 0 78 48"><defs><g id="e"><path fill="#db8a04" d="M34.4 36q0-.7.6-1.4l3.5-.6-.6-.9 1.6-.4 1.5-.2 2.4-.2h.7l5.5.7-.1.2q.9.6 2.1.5 1.8.8 2.1 1.8l-.2 1.3q-.5 1-2.5 1.8l-2.7.7-2.9.3-1.3.1-3.7-.2-1.4-.3-1.8-.6q-2.9-1.1-2.8-2.6"/><path fill="#ab6b03" d="m53.6 36.8-.6 4.1-.9.2.8.4-.1 1.3v.2l-.7.2.5.3-.2 2.5-.5.5-1.8.9-2.2.7.4-8.8 2.7-.7q2-.8 2.5-1.8"/><path fill="#87ab41" d="m52.8 42.8 1 .5-1.4 2.7-.5.5-1.8.9 1.4.2.1-.2.8-1.4.3-2.5-.6-.3.7-.2z"/><path fill="#fec27a" d="m53.9 43.3.9.5.4.4.5.5q.5.6.5 1.4l-.1.6q-.2.9-1.4 1.6v1.3l.5-.6q2.3 1.3 3.1 2.9V56Q56 72.6 55.8 83.5q0 5.3.4 9.3 1.4 12.2 1 13.2l-.9 2.3-7.2 3q-6.5-28.8-1-50-13.1-.6-15.6-1.8h-.1q-3.2-1.7-4.1-3.7v-3.5q.9-2.2 4.2-3.8l.1-.2.4-.1.7.5v3L32.1 53q-.5.6-.5 1.3v.1q0 2 3.6 3.3l2.1.6 4.9.7h1.7l3.1-.1 3.5-.6 2.1-.6q3.6-1.4 3.6-3.3v-.1q0-.7-.5-1.3-.9 1-3 1.8l-2.2.7h-.2l1.3-5 .1-3h-.2l.1-.1.8-1.4zm-.4 62.6q-4.6-20.2 0-43.4-4.6 23.2 0 43.4"/><path fill="#9ddc5f" d="m54.8 48.7.4.3-.5.6z"/><path fill="#f90" d="m56.2 108.3-1.9 2.9q-3 3.9-7 5.1l-3.9.5-4-.5q-3.9-1.2-7-5.1l-.1-.2q-2-2.5-2.6-4.3-.7-1.5.4-10.5l.6-3.8q1.8-12.5-2.5-36.7.8 2.1 4.1 3.8h.1q2.5 1.2 15.6 1.8-5.5 21.2 1 50z"/><path fill="#cd7101" d="m32.9 48.2-.2-.1q-.7-.6-1-1.4v-.6q-.1-.7.4-1.4l.5-.5 1-.6 1.6-.9h.1v.2l.6.6h-.4l.5 2.7v.1l1.5 8.4 2.9 1.4v.3h5.4l1.2-.3 3.3-.5.3-.1 2-.7Q55 54 55.8 53q.4.6.5 1.3v.1q0 2-3.6 3.3l-2 .5-3.6.7-3.1.1h-1.7l-4.9-.6-2.1-.7q-3.6-1.4-3.6-3.3v-.1q0-.7.5-1.3l1.5-1.2v-3.1z"/><path fill="#945e03" d="m35.3 42.8-.1-1.3q.6-.4.9-1l-.1-.1-1-.3-.7-4.1h.1q0 1.5 2.8 2.6l1.8.6 1.4.3.8 8.7-3.2-.8q-1.2-.5-1.9-1l-.1-.2-.5-2.6.4-.1-.6-.6z"/><path fill="#b87403" d="m40.4 39.5 3.7.3 1.3-.2.8 8.7-2.1.2-.6-.2-2.4-.1z"/><path fill="#c47b04" d="m45.4 39.6 2.9-.3-.4 8.8-.7.1-1 .1z"/><path fill="#b46301" d="M51.5 47.6h.3l-.2 3-1.3 4.9-3.3.6-1.2.3h-3.3l-.1-.5-1.2-7.7 2.3.1.6.2 2.1-.2 1-.1.7-.1 2.2-.7z"/><path fill="#90c447" d="m50.3 55.5-3.3.6z"/><path fill="#894b01" d="M42.4 55.9v.5h-2v-.3l-3-1.4-1.4-8.4h.1q.6.6 1.9 1.1l3.1.8z"/><path fill="#54561d" d="M42.4 56.4v-.5zm-6.3-10H36v-.2z"/><path fill="none" stroke="#960" stroke-linecap="round" stroke-linejoin="round" stroke-width="__RESOLUTION__" d="m54.8 48.7.4.3q2.3 1.3 3.1 2.9V56Q56 72.6 55.8 83.5q0 5.3.4 9.3 1.4 12.2 1 13.2l-.9 2.3-1.9 2.9q-3 3.9-7 5.1l-3.9.5-4-.5q-3.9-1.2-7-5.1l-.1-.2q-2-2.5-2.6-4.3-.7-1.5.4-10.5l.6-3.8q1.8-12.5-2.5-36.7v-3.4q.9-2.2 4.2-3.8l.1-.2.4-.1" vector-effect="non-scaling-stroke"/><path fill="none" stroke="#ffe0bb" stroke-linecap="round" stroke-linejoin="round" stroke-width="__RESOLUTION__" d="M53.5 62.5q-4.6 23.2 0 43.4" vector-effect="non-scaling-stroke"/><path fill="#ab6b03" d="m114.6 7 2.6-.7q2.1-.8 2.6-1.8l-.5 4.1-.9.2.8.4-.1 1.3v.2l-.7.2.5.3-.2 2.5-.5.5-1.8.9-2.2.7z"/><path fill="#db8a04" d="M119.9 4.5q-.6 1-2.7 1.8l-2.6.7-3 .3-1.2.1-3.7-.2-1.4-.3-1.8-.7q-2.8-1-2.8-2.5 0-.7.5-1.5l3.6-.5-.6-.9 1.5-.4 1.6-.2 2.4-.2h.6l5.6.7-.2.2q1 .6 2.2.5 1.8.8 2.1 1.8z"/><path fill="#c47b04" d="m114.6 7-.4 8.8-.7.1-1 .1-.8-8.7z"/><path fill="#649b9a" d="m114.2 15.8 2.2-.7 1.3.2h.3l-.1 3-1.4 4.9-3.2.6-1.2.2h-3.3l-.1-.5-1.3-7.6 2.4.1.5.2 2.2-.2 1-.1z"/><path fill="#87ab41" d="m116.4 15.1 1.8-1 .5-.4.3-2.5-.6-.3.7-.2v-.2l1 .5-1.4 2.7-.8 1.4-.2.2z"/><path fill="#945e03" d="M100.7 3.7q0 1.5 2.8 2.6l1.8.6 1.4.3.7 8.7q-1.7-.3-3.1-.8-1.3-.5-1.9-1l-.1-.2-.5-2.7h.4l-.6-.6v-.1l-.1-1.3.9-1-.1-.1-1.1-.3-.7-4.1z"/><path fill="#b87403" d="m106.7 7.2 3.6.2 1.4-.2.8 8.8-2.2.2-.5-.2-2.4-.1z"/><path fill="#94bab9" d="m120.2 11 .8.5.5.4.5.6q.5.5.5 1.3l-.1.7q-.3.8-1.4 1.5v.4q2.7 1.4 3.7 3.2v4.1q-3.2 21-2.6 32.9l.3 3.9q1.3 12.2 1 13.2l-.9 2.3-10.3 4.3-4.9-1.8-3-5V29q-3.1-.6-5.6-1.8h-.1q-3.2-1.7-4.1-3.8V20q.9-2.2 4.2-3.8l.1-.2.3-.1-.1-.2q-.7-.5-1-1.2v-.7q-.1-.8.4-1.3l.5-.6 1-.7 1.6-.7h.1v.1l.6.6h-.5l.6 2.7v.1l1.5 8.4 2.9 1.4v.2h5.3l1.3-.2 3.3-.6 1.3-5 .1-3h-.2l.1-.1.8-1.4zm-.5 62.6q-5.6-20.3 0-43.4-5.6 23.1 0 43.4"/><path fill="#669b9d" d="m122.5 76-1.8 2.8q-3.2 4-7 5.2-2 .5-4 .5l-4-.5q-3.9-1.2-7-5.2h-.1q-2-2.6-2.6-4.5-.7-1.5.5-11.2l.5-3q1.8-12.5-2.5-36.7.8 2.1 4.1 3.8h.1q2.5 1.2 5.6 1.8v44.6l3 4.9 4.9 1.8z"/><path fill="#90c447" d="m116.6 23.2-3.3.6z"/><path fill="#54561d" d="M108.8 24v-.5zm-6.4-10"/><path fill="#365453" d="M108.7 24h-2v-.2l-3-1.4-1.4-8.4h.1q.6.6 1.9 1.1 1.4.5 3.1.8l1.3 7.6z"/><path fill="none" stroke="#6f802b" stroke-linecap="round" stroke-linejoin="round" stroke-width="__RESOLUTION__" d="M121 16.4q2.7 1.4 3.7 3.2v4.1q-3.2 21-2.6 32.9l.3 3.9q1.3 12.2 1 13.2l-.9 2.3-1.8 2.8q-3.2 4-7 5.2-2 .5-4 .5l-4-.5q-3.9-1.2-7-5.2h-.1q-2-2.6-2.6-4.5-.7-1.5.5-11.2l.5-3q1.8-12.5-2.5-36.7V20q.9-2.2 4.2-3.8l.1-.2.3-.1" vector-effect="non-scaling-stroke"/><path fill="none" stroke="#ffd0ce" stroke-linecap="round" stroke-linejoin="round" stroke-width="__RESOLUTION__" d="M119.8 30.2q-5.7 23.1 0 43.4" vector-effect="non-scaling-stroke"/><path fill="#c29b5a" d="M89 66.8v-2.6l6.8-3.4v6zM22.3 97.5l7-3.5v3.5zM56 84.8v-4.1l6.8-3.5v7.5zm-20 41.6-.8-1.6 10.4-.7v.1l-7.2 7.2H38zm2.5 1.4-.1-.1z"/><path fill="#6d5836" d="M95.8 66.8v11.5q3.2 2.4 6.5 3.4H89v-15zm55.6 4.6 1.9 6.3v.9l-76.4 38.2v-.1l-38.4 19.2-.1-.1v-4.4l7.3-7.2 31.1-15.6h.2zM.5 111.2H0l3.5-4.3 18.9-9.5h7v9.5q4 3.1 8.1 4.3zm55.6-14V84.7h6.8V93q3.8 3 7.6 4.2z"/><path fill="#95734a" d="M102.3 81.7q4.9 1.6 9.9 0 4.5-1.5 9-5.5l3-20.5 26.6 13.4.6 2.2L77 108.6l-.2-.1L45.7 124v-.1l-10.5.7.8 1.6-30.3-15.1h31.8q4.8 1.4 9.9 0 4.3-1.2 8.6-4.2v-9.8h14.5q5.5 1.8 11 0l.8-.3q3.4-1.3 6.8-3.9V81.7z"/><path fill="#977c4c" d="M38.4 135.7.5 116.8v-5.6h5.2L36 126.3l2.1 5h.3z"/><path fill="none" stroke="#fff" stroke-linecap="round" stroke-linejoin="round" stroke-width="__RESOLUTION__" d="m123 24.3-5 2.4m-28.5 15-5.5 3m-26.5 14-8 2.5" vector-effect="non-scaling-stroke"/></g><g id="d"><path fill="#b6d084" d="m4.9 2.1.1.1h.1l.1.1.1.3v.1L5 3v.2l-.4.3h-.2v-.6l.1-.3z"/><path fill="#9ddc5f" d="m5 3.1.7.6v.8l-.2.3-.5.4-2.1.4-1-.1-1.1-.3-.8-.7v-.7q.2-.4.8-.7V3l.2.1v.6l-.2.2-.2.3q0 .3.7.6l.4.2h1.8l.7-.1.4-.1.7-.6-.1-.3-.2-.1V3"/><path fill="#b5e685" d="M5.7 4.5q-.7 4.6-.5 7l.3 2.4-.2.4-2 .9-.9-.3-.5-1V5.5l1 .1 2-.4.6-.5zm-1 9.4q-1-4.1 0-8.2-1 4.1 0 8.2"/><path fill="#8bd542" d="m5.3 14.4-.3.5-1.4 1-.7.1-.8-.1q-.7-.2-1.3-1l-.5-.8q-.2-.4.2-2.7.3-2.4-.5-7l.8.8 1 .3v8.4l.6 1 1 .3z"/><path fill="#87ab41" d="m.9 3-.2-.2v-.4l.2-.1.1-.1.3-.2.1.1v.5l.3 1-.4-.1-.3-.1zm3.9-1 .1.1-.2.5-.2.3h-.2l.3-.2v-.1l.1-.5h-.1z"/><path fill="#945e03" d="m1.4 2-.1-.2.2-.2-.2-.1L1 .7q0 .3.6.5l.3.1h.3L2.5 3l-.6-.1-.4-.2z"/><path fill="#db8a04" d="M1.2.7V.5L2 .3 1.8.2l.3-.1h.3l.5-.1H3l1 .2h.4l.4.4v.3l-.5.3-.5.2H2.3l-.2-.1-.4-.1Q1.2 1 1.2.7"/><path fill="#ab6b03" d="m4.8.9-.1.7h-.2l.2.1V2h-.2l.1.1v.5l-.1.1-.3.1-.5.2.1-1.6.5-.2z"/><path fill="#656d23" d="M4.4 2.9v.6l-.2.9-.7.1h-.8L2.4 3h1.2l.5-.1z"/><path fill="#90c447" d="m4.4 3.6.2-.1.4-.2v.5l.2.1-.6.4-.4.1-.7.1.7-.1z"/><path fill="#6e9737" d="m5.2 3.9.1.3-.7.6-.4.1-.7.1H1.7l-.4-.2q-.7-.2-.6-.6v-.3l.3-.2v-.4l.3.2.3.1.1.6.6.3h1.3l.6-.1.4-.2z"/><path fill="#54561d" d="M2.7 4.6h-.4v-.1l-.5-.2-.2-.7-.2-1h.1l.4.3.6.1z"/><path fill="#c47b04" d="M3.8 1.4 3.7 3h-.3l-.1-1.6z"/><path fill="#b87403" d="m3.3 1.4.1 1.7h-.5L2.5 3l-.2-1.6z"/><path fill="none" stroke="#6f802b" stroke-linecap="round" stroke-linejoin="round" stroke-width="__RESOLUTION__" d="m5 3.1.7.6v.8q-.7 4.6-.5 7l.3 2.4-.2.4-.3.6-1.4 1-.7.1-.8-.1q-.7-.2-1.3-1h0l-.5-.8q-.2-.4.2-2.7.3-2.4-.5-7v-.6q.2-.4.8-.7V3" vector-effect="non-scaling-stroke"/><path fill="none" stroke="#e7f4d2" stroke-linecap="round" stroke-linejoin="round" stroke-width="__RESOLUTION__" d="M4.8 5.7q-1.1 4.1 0 8.2" vector-effect="non-scaling-stroke"/></g><g id="c"><path fill="#c29b5a" d="M0 56.5 112.1 0h3.5l37.3 22.2L38 75.5l-.2 10.2V75.3z"/><path fill="#6d5836" d="M152.9 22.2V37l-115 57.3v-8.6l.1-10.2z"/><path fill="#a98356" d="M37.9 94.3 0 75.3V56.6l37.9 18.8z"/></g><g id="b"><path fill="#c29b5a" d="m56.8 5.9 2.5-1.3zM0 25.2l25.1-12.7L50 0l9.1 4.6 5.6 2.8 2 1-18.6 11.7L68.1 9l3.1 1.6 3.8 1.8v.1L26.4 37v-.2l-3.5-.2-2.2-1.1-.2-.1-3.5-1.8v-.1l-5.5-3.8-4.3-1.1-.1.1L5 27.6l-.1-.1h-.1L3.4 27zm37-9.4-1.4-.7-.8.7 1.5.3zm-1.2 2.6 1.5-.4-3.2.7-1.7-.4.8-2.4.2-.4-.1.2.1-.7-4.2 2.9-1.6-1.9-.3-.5v.2l-.4-.5-.1 3.5-5.3-1 .6.4 2.4 1.2.6.3.3.1-8 .8 5.7.7h.4v.1l-.7.4.7.8 1-1 .6.2-.5.8-1.4 1.6-.1.1-.4.4-1.3 1 4.5-2.3 1.5.2 1.9 3.5 1-4h7.1l-3.1-1.7 2.1-.8.8-.2h-.4L38 20l-4.7-.5zm2 .6.7-.3-.4-.4-.7.3zm-5 5.1-.4-.7-.6.1.3 1.2zm-7.2.9-.8.7.6.6v.1l1.1-.5-.2-1zm15.2-5.1-.2.2.3.5.5-.3zm-2 1.3-.4.1.2.6h.7zm-8.5-8.9 20.5-5.6-4.5 1-1 .1Q33.8 10 45.9 5l-7.3 2.8zm26.8-.6 7.6-4.1zm-7.7 9.9 2.5-1zM54 19l2.9-1.4zm5-2.4 12.3-6zM5 26.3l-1.6.7zm16.9-7.5h-.3l-.4.6h.9v-.5zm3-1.7-.2-.6-1.7.3.3.3zm13 9.8-17.2 8.6zm-30-1-3 1.5zm13-3.5.4.7 1.4-.4-1.4-.6zm-2.4-.8-1.1-.1.2.9.9-.3z"/><path fill="#d1b470" d="M66.9 8.4 68 9 48.2 20zm-36.4 3.7 8-4.4 7.4-2.8q-12.1 5.1-.3 2.7l.9-.2 4.5-1zm-4 24.9L25 39.3l-1.7-2.5-.4-.2 3.5.2zM7.2 28.6l4.3 1.1 5.5 3.8-1.6-.6-5.3-1.7zm18 9H25"/><path fill="#382c1d" d="m37 15.8-.7.3-1.5-.4.8-.6zm-2.8 2.8 3.2-.7-1.5.4-1.3.3q-3.6 1-3.6 2l5.9-.4h.4l-.8.2-5.7 1 6 1.2-7-.1-.3 2-.1 1.6-.5-4.3-.2-1.1-.1.2-1.5 1.3-1.5.8-2.4 1.3-.4.2.4-.4.1-.1 2-1.4.4-.2q.5-.6-.7-1.1l-.1-.1-1.5-.4h-.2l-2.2-.4-.8-.2h6.4l-1.1-.6-.3-.1-.6-.3-2.4-1.2 1 .2 4.2.7v-3.5l.3.5 1.4 3.2h.1l4.2-3.6.1-.1-.2.3-2.1 3.4zm-9.5 3-1.1 1-.7-.9.7-.4h.1zM37.9 19l-.4-.4.8-.3.3.4zm-12.2 6h.7l.2.9-1.1.5v-.1l-.6-.6zm12.2 12.3L49.2 31v-3l1.1 3-8.8 4.3-1.6.8zm13.5-6.7 1.6-2.4 15.7-6.5-6.6 3.5zM15.2 39v.1l-.5-.4.7-2.6zm9.7-21.7-1.6-.1-.3-.4 1.7-.2zm-4 5.3.4-.2 1.4.6-1.4.3zM2 39v-.1z"/><path fill="#81613a" d="m35.9 18.3-2.6 1.1 4.8.5-1.2.4-5.8.3q-.1-1 3.5-2zm.6 2.2-2.1.8 3.1 1.8-7-.1-1.1 4-1.9-3.5-1.5-.2-4.5 2.4 1.3-1.1.4-.2 2.4-1.3 1.5-.9 1.4-1.2.2-.2.2 1.1.5 4.3v-1.6l.5-2 7 .1-6.1-1.2zM23.3 24l1.4-1.6.5-.8-.5-.2-1-.2h-.1l-.4-.1-5.7-.7 8-.7 1 .4-6.3.1.8.2 2.2.4h.2l1.5.4h.1q1.2.6.7 1.2l-.4.3zm-1-6-.7-.4 5.3 1V15l.5.5V19l-4.2-.7zm5.5-2 1.6 1.8 4.2-2.9-.1.7-4.2 3.5h-.1zm5.6-.2-.8 2.6 1.7.3-3 .5zm-.4 8.3-.7.6-.4-1.2.7-.1zm8-4.3.6.4-.5.3-.3-.5zm-2 1.3.5.7h-.7l-.2-.6zm-17-2.2h.2v.6h-.9l.4-.6zm-3.3 2.8v.5l-1 .3-.1-.9z"/><path fill="#b79459" d="M23.6 21.3V21l.1.1zM26.4 37v-.2zM17 33.5v.1l-1.6-.7zm-12.1-6v.1z"/><path fill="#6d5836" d="m50.3 31-1-2.9-.1 3-11.4 6 2.1-.9L28.4 42 25 43.8v-4.4l1.3-2.3L75 12.5v6.1l-13.8 7 1-.5 6.5-3.5L53 28.2l-1.6 2.4z"/><path fill="#977c4c" d="M25 39.3v4.4L15.2 39l.2-2.9-.7 2.6-11-5.3v-.1l-3.7-2v-6.2L3.4 27l1.4.7H5l2 1 3 2.4 5.3 1.8 1.6.7 3.5 1.8h.2l2.2 1.1.4.3zM5 31v-3.4zm15.6 9.3v-4.7l.2-.1h-.2zm0-4.7v-.2z"/><path fill="#9b8126" d="m25 43.7 3.4-1.7v.2l-3.2 1.6zM7 38.9"/><path fill="#a68928" d="M25 37.7v-.1m-8.3 6 .1.2-.1-.1zm4.5 2.4.1-.2zM3.7 37.3v-.1z"/><path fill="none" stroke="#6f582d" stroke-linecap="round" stroke-linejoin="round" stroke-width="__RESOLUTION__" d="m59.3 4.6-2.5 1.3m14.4 4.7 1.1-.6m-7.5-2.6-7.6 4.1M37.9 37.2l2-1 1.6-.8m27.2-13.7L62.1 25l-.9.5M52 20.4l-2.5 1m7.4-3.7-3 1.3m17.3-8.4-12.4 6M3.5 27l1.6-.6m15.7 9.2L37.9 27m-33 .6V31m-.1-3.4.1-.1 3-1.6m12.8 9.6h-.2v4.8m0-5v.3" vector-effect="non-scaling-stroke"/><path fill="#81613a" d="m40 16.1-.1-.4 2.5 1.5 1-1.1-.9 1.8zm3.5-.3.3-.2v1.8l3.2-.7-.5.2q-2.5.8-3 .8zm1.7 1.8-.5.4h4.8l-3.6.7h-.1l-.6.2-.4.1 1.3 1.3-1.3-.7q-.6-.4.3-.8l.9-.3v-.1l1.4-.4h.3l-3.7.3zm1.1 2.9.9.5-2.7-1-1 .1-1 2h-.1l-.6-2.1-4.2.4 1.9-1.1-1.3-.4 3.4.3-3.6 1 4.1-.4.3 1.1v.9l.4-3.1q1 .8 1.9 1.1l1.4.6zM38 18.9l-.7-.1 2.8-.5-1.6-.5.8.1q2.2.4 2.1 1zm1.5-1 1-.3-.5-1.4 1.4 1.9zm-4 1.3h-.3V19l.4-.2h.1zm5.5 1.3-.2.7-.4-.3.2-.4zm-4.5-.6.3-.4.2.1-.1.3zm10.3-2.2-.1-.3.3-.1.2.3zm2.1 1.4v-.3l.6-.1v.5z"/><path fill="#382c1d" d="m40 16.1 2.5 1.8.9-1.8.1-.4v1.9q.5.1 3-.7l-1.3.8-1.2.7 3.7-.3h-.4l-1.3.4-1 .4q-.8.4-.2.8l1.3.7.2.2-.2-.1-1.4-.6q-.9-.2-1.9-1.1l-.3 3.1-.1-.9-.3-1.1-4.1.4 3.6-1-3.4-.4H38h3.4q0-.6-2.1-1l-.8-.1-.9-.2 2 .3 1.8.2zV16zm5.8 2.7.5.2-.4.5-.7-.5zm-8.2-.7-.2.2-.4-.2.2-.2zm1.7-1.8-.9.3-.5-.2.9-.5zm5.9-.2 1 .1-.1.2-1 .2zm-1 5.4.1-.6h.4l.5.4-.4.4zm3.3-2.3-.2.4h-.8l.8-.5z"/><path fill="#382c1d" d="m49.7 6 .3-.7v.3l.1 3.5q1 0 5.9-1.5l-3.3 2-1.6.8 7.4-.7-1 .3-2.7.8h-.1l-1.7.6q-1.7.9-.4 1.7l2.4 1.2.5.5-.5-.2-2.7-1.1q-1.7-.4-3.7-2.1-.6 3.9-.6 6l-.1-1.7-.5-2.2-8.1 1 7-2.2-6.7-.4h-.9.5l6.7-.5q.1-1-4.1-1.7l-1.5-.2-1.5-.2 3.5.3 3.5.3-2.6-3.5-.2-.3.2.1 5 3.4zm3.5.1 2 .2-.4.3-1.8.3zm-14.3.7 1.6-1 1 .7-1.7.6zm-1.2 2.8.8.3-.4.5-.8-.3zM57.3 13l-1.5-.2 1.5-.9.4.2zm-2.9-1.8 1.1.3-.8 1-1.2-1zM52.5 17l-1.3-.4.1-1 .9-.1 1 .7z"/><path fill="#81613a" d="m49.7 6-1.5 3.6-5-3.4-.3-.6 5 2.6zm-6.5.4 2.6 3.5-3.5-.3 1.9-.5zm-3 3.1 1.5.2q4.3.8 4.2 1.8l-6.7.4-1.4-.3 5.6-1.2zm-.7 2.4 6.7.4-7 2.1 8-.9.6 2.2v1.7q.1-2.1.7-6 2 1.7 3.6 2.1l2.8 1 .5.3 1.6 1-5.2-2-1.8.3-2 4h-.2l-1.2-4.2-8.2 1 3.6-2.3zM55 14.3l-2.4-1.2q-1.4-.8.4-1.7l1.7-.6h.1l2.7-.8 1-.2-7.4.6 1.6-.8-.4.2 9.3-.2q-3.2.3-7 1.6l-.2.1-1 .3-.7.3q1 1.3 2.3 2.4m1-6.7Q51 9 50.1 9L50 5.6l.5-.7.2 3.8 6.1-1.6zM37 13h.4l-.3.7h-.8zm8 1.7-.3 1.4-.9-.6.6-.9zm-10.2-2.8-.4.5-.6-.2.7-.4zm26.6 0-1-.3h-.1v-.5l1.3-.2zm-5-3.5h.4l.4.5-.9.1v-.6z"/><path fill="none" stroke="#382c1d" stroke-linecap="round" stroke-linejoin="round" stroke-width="__RESOLUTION__" d="m56.7 27.8-3.5 1.8M52 30l-1.5.8m23.3-11.6 1.3-.7-.1-6.2L50 0 25 12.5h.1L0 25.1v6.2l3.7 1.8v.2l1 .5M73 19.7l-2 1m-3.4 1.7-7.1 3.5M36.9 37.8l-2.1 1m5.9-3-3.5 1.8M44 34l-2.5 1.3m-8.1 4.1-1 .5m-4 2 2.7-1.4m18.5-9.2-2.4 1.1m-35.5 4.7 3 1.4m3 1.6 3.5 1.6m-6-2.9 2.2 1.1m7.7 3.7H25l-2.6-1.3M5 34l1.7.8m1.3.6 2.7 1.4" vector-effect="non-scaling-stroke"/><path fill="none" stroke="#443411" stroke-linecap="round" stroke-linejoin="round" stroke-width="__RESOLUTION__" d="m25 43.7 3.4-1.5V42" vector-effect="non-scaling-stroke"/></g><clipPath id="a"><path d="M1 1h76v46H1z"/></clipPath></defs><g clip-path="url(#a)"><g transform="translate(26.1 32.75)"><use xlink:href="#b" width="75" height="46" transform="translate(-25.1 -31.75)"/><use xlink:href="#c" width="152.8" height="94.3" transform="translate(-2.8 -9.85)scale(.1313)"/><use xlink:href="#d" width="5.7" height="16" transform="translate(5.25 -14.95)scale(.6949)"/><use xlink:href="#e" width="153.3" height="135.8" transform="translate(-2.85 -16.95)scale(.1313)"/></g></g></svg>