<svg xmlns="http://www.w3.org/2000/svg" xmlns:xlink="http://www.w3.org/1999/xlink" width="126" height="71" viewBox="0 0 126 71"><defs><clipPath id="d"><path d="M1 1h24v34H1z"/></clipPath><clipPath id="i"><path d="M26 1h24v34H26z"/></clipPath><clipPath id="j"><path d="M51 1h24v34H51z"/></clipPath><clipPath id="k"><path d="M76 1h24v34H76z"/></clipPath><clipPath id="l"><path d="M101 1h24v34h-24z"/></clipPath><clipPath id="m"><path d="M1 36h24v34H1z"/></clipPath><clipPath id="n"><path d="M26 36h24v34H26z"/></clipPath><clipPath id="o"><path d="M51 36h24v34H51z"/></clipPath><clipPath id="p"><path d="M76 36h24v34H76z"/></clipPath><clipPath id="q"><path d="M101 36h24v34h-24z"/></clipPath><use xlink:href="#a" id="h" width="7.25" height="14.95"/><use xlink:href="#b" id="g" width="5.5" height="7.85"/><use xlink:href="#c" id="e" width="21.1" height="14.6"/><g id="a"><path fill="#a89673" d="m2.45 6.45-1.85-2L3 .1l1.75 1.85L7 .25l.15 2.65-3.4 4.05v.25l.5 1.3v.1L3.6 9l-.95.65-.5-.3-.6-.3.85-2.45zl.85-2.4.45 2.9-.45-2.9zm1.6 2.75 1.35 2.3-.2 1.65-.4.55-.7-.95-1.7.85-.45 1.1-1.6-.2-.25-2 1.4-2.6-.1 2.2.7.05 1.7-.85zM3.2 7.55l.55-.6z"/><path fill="#eddcb8" d="m4.8 13.7-1 1.25-1.85-.25.45-1.1 1.7-.85z"/><path fill="#8d7758" d="m3.6 9 .45.2-.25 2.1-1.7.85-.7-.05.1-2.2.65-.55.5.3z"/><path fill="none" stroke="#000" stroke-linecap="round" stroke-linejoin="round" stroke-opacity=".4" stroke-width="__RESOLUTION__" d="m2.45 6.45-1.85-2L3 .1l1.75 1.85L7 .25l.15 2.65-3.4 4.05v.25l.5 1.3v.1l-.2.6 1.35 2.3-.2 1.65-.4.55m-2.85 1-1.6-.2-.25-2 1.4-2.6.05-.85.85-2.45m.05-.15.85-2.4.45 2.9M3.6 9l.45.2-.25 2.1-1.7.85-.7-.05.1-2.2.65-.55-.6-.3m2.7-.45L3.6 9l-.95.65-.5-.3" vector-effect="non-scaling-stroke"/><path fill="none" stroke="#000" stroke-linecap="round" stroke-linejoin="round" stroke-opacity=".2" stroke-width="__RESOLUTION__" d="m2.4 6.6.05-.15m1.3.5-.55.6" vector-effect="non-scaling-stroke"/></g><g id="b"><path fill="#8d7758" d="m1.55 1.95.05-.75L3.75.1l.5 1.3v.1l-.65.4-.95.65-.5-.3zm.6.3.5.3.95-.65.45.2-.25 2.1-1.7.85L1.4 5l.1-2.2z"/><path fill="#a89673" d="M4.05 2.1 5.4 4.4l-.2 1.65-.4.55-.7-.95-1.7.85-.45 1.1-1.6-.2-.25-2 1.4-2.6L1.4 5l.7.05 1.7-.85z"/><path fill="#eddcb8" d="m4.8 6.6-1 1.25-1.85-.25.45-1.1 1.7-.85z"/><path fill="none" stroke="#000" stroke-linecap="round" stroke-linejoin="round" stroke-opacity=".4" stroke-width="__RESOLUTION__" d="m1.55 1.95.05-.75L3.75.1l.5 1.3v.1l-.2.6L5.4 4.4l-.2 1.65-.4.55m-2.85 1-1.6-.2-.25-2 1.4-2.6.05-.85.6.3.5.3.95-.65.65-.4m-.65.4.45.2-.25 2.1-1.7.85L1.4 5l.1-2.2.65-.55" vector-effect="non-scaling-stroke"/></g><g id="c"><path fill="#9b927d" d="M15.75 5.75v-.1zm-7.3 6.4.2.15-.1-.05z"/><path fill="#acaea6" d="m12.25 6.55.15-.45 3.35-.35.85-.1-.15.45-.3 2.65-.6.05-2.9.15-.6.05.25-2.55zl.05-.1-.1.35zm3.05.6-1.95.1zM8.9 6.5l.05-.45-.1.7.1-.7zl.3-.75-3.85.4q-.1 1.5-.4 2.3l-.3.65.6-.05 2.9-.15.6-.05.1-2.1zM7.6 7.65H5.95z"/><path fill="#9c8141" d="m12.65 8.95 2.9-.15q-.2.6-.15 1.15l-.05-.05-.4.05-.15.1v.15l.6.1h.05l.4 1.7.1.15-3.8.1.15-1.9zm-7.4.1 2.9-.15L8 10.15v.3l.45 1.7.1.1-3.8.1.15-2.3z"/><path fill="#80755e" d="m12.25 6.55-.05.25h-.1zm-3.4.2.05-.25v.25z"/><path fill="#4e453a" d="m15.4 10.3-.6-.1v-.15l.6.1.05.15zm-.6-.1.6-.05z"/><path fill="#979892" d="m16.05 12.15.45 1.25-1.55.95-2.4-.85-.4-1.25 3.8-.1zm-7.4.15.45 1.2-1.55 1-2.45-.9-.35-1.25 3.8-.1z"/><path fill="#b6ae9e" d="M6 4.8h-.15l.25-.2zM1.3 6.45l-.7-.1v-.1z"/><path fill="none" stroke="#000" stroke-linecap="round" stroke-linejoin="round" stroke-opacity=".4" stroke-width="__RESOLUTION__" d="m12.25 6.55.05-.1L12.05 9l.6-.05 2.9-.15.6-.05.3-2.65m-3.1 1.15 1.95-.1m-3.05-.6-.05.25.1-.35m-.1.35h-.1m.05 5.45.15-1.9.35-1.4m2.75 1.35-.6-.1v-.15l.15-.1.4-.05.05.05q-.05-.55.15-1.15m-.1 1.5-.05-.15-.6.05m0-.15.6.1m0-.2h-.45m1.1 2.2.45 1.25-1.55.95-2.4-.85-.4-1.25 3.8-.1-.1-.15-.4-1.7m.5 1.85h.1l-.2-.15m-10-7.2H6m2.85 1.95.1-.7-.05.45zl-.1 2.1-.6.05-2.9.15-.6.05.3-.65q.3-.8.4-2.3m3.55.6h-.05m-2.9.9H7.6m.55 1.25L8 10.15v.3l.45 1.7.2.15.45 1.2-1.55 1-2.45-.9-.35-1.25.15-2.3.35-1M.6 6.35l.7.1m7.25 5.8.1.05m-.2-.15.1.1" vector-effect="non-scaling-stroke"/><path fill="#dacaa5" d="m12.25 3.4.1-1.5-.3-.35 1.8-.2.75 1.95zM8.2 1.05l.45.5.05 1-.05.95-2.7.15.1-1.5-.4-.8zm.6 4.3.25 1.35H6.1l.1-1.4zm4.45 1.45-.1-.4-.4-1 2.35.05.65 1.4z"/><path fill="#473816" d="m12.05 1.55.3.35-.1 1.5.5 2 .4 1 .1.4-4.2-.1-.25-1.35-.15-1.85.05-.95-.05-1-.45-.5q1.75-1.2 3.85.5"/><path fill="#dccfbc" d="m12.25 3.4 2.35-.1.5 2.15-2.35-.05zm-3.6.1.15 1.85-2.6-.05-.25-1.65z"/><path fill="#614c1e" d="m14.6 3.3-.75-1.95Q16.8-.35 20.05.3l.5 1.3q.9 2.8.05 5.7-2 .75-3.8-.05l-1.05-.4-.65-1.4z"/><path fill="#20170b" d="m9.05 6.7 4.2.1-.4 2.25-.45.05-.15.45-.15.25-1.2.05-2-.1V9.5l.3-.75-.8.05zm6.7 1.95v-1.8l1.05.4q1.8.8 3.8.05l-.65 2.4q-1.75.45-3.5-.6l.15-.45-.85.1zM.3 7.35q2.75.95 5.8-.65v.9l-.25.2-.65 1q-.55.7-3.9.65l-.7-.2z"/><path fill="#9c8141" d="M15.75 6.85v1.9l-2.9.3.4-2.25zM6.1 6.7h2.95L8.4 8.8l-3.05.35L6 7.8l.1-.2z"/><path fill="#3a2e12" d="M.3 7.35Q-.25 3.8.6.4l.8-.05q2.3-.3 4.25 1l.4.8-.1 1.5.25 1.65-.1 1.4Q3.05 8.3.3 7.35"/><path fill="none" stroke="#000" stroke-linecap="round" stroke-linejoin="round" stroke-opacity=".4" stroke-width="__RESOLUTION__" d="m12.05 1.55.3.35-.1 1.5.5 2 .4 1 .1.4-.4 2.25 2.9-.3v-1.9l-.65-1.4-.5-2.15-.75-1.95zq-2.1-1.7-3.85-.5l.45.5.05 1-.05.95.15 1.85.25 1.35-.65 2.1.8-.05-.3.75v.25l2 .1 1.2-.05.15-.25.15-.45.45-.05M20.6 7.3q.85-2.9-.05-5.7l-.5-1.3q-3.25-.65-6.2 1.05m1.9 7.3v.1l.85-.1-.15.45q1.75 1.05 3.5.6l.65-2.4M5.65 1.35Q3.7.05 1.4.35L.6.4Q-.25 3.8.3 7.35l.3 1.9M6.1 6.7l.1-1.4-.25-1.65.1-1.5-.4-.8 2.55-.3M6.1 6.7v.9l-.1.2-.65 1.35L8.4 8.8M6.1 7.6l-.25.2-.65 1q-.55.7-3.9.65" vector-effect="non-scaling-stroke"/></g><path id="f" fill="#9ead76" d="M6 16.95V17z" transform="translate(-6 -16.95)"/></defs><g clip-path="url(#d)"><g transform="translate(1 1)"><g transform="translate(10.55 27)"><use xlink:href="#e" width="21.1" height="14.6" transform="translate(-10.55 -27)"/><use xlink:href="#f" width="0" height=".05" transform="matrix(.7482 .0247 .1333 1.0264 7.1 -.1)"/><use xlink:href="#g" width="5.5" height="7.85" transform="matrix(.4803 .0655 -.0409 -.5388 -.65 -14.85)"/><use xlink:href="#g" width="5.5" height="7.85" transform="matrix(.3912 -.2227 -.2837 -.4964 1.2 -11.8)"/><use xlink:href="#g" width="5.5" height="7.85" transform="matrix(.4539 -.0769 -.1646 -.5381 .95 -9.9)"/><use xlink:href="#g" width="5.5" height="7.85" transform="matrix(.465 -.0343 -.1283 -.542 1.5 -7.5)"/><use xlink:href="#g" width="5.5" height="7.85" transform="matrix(-.2796 .2261 -.2219 -.3719 4.65 -6.95)"/><use xlink:href="#g" width="5.5" height="7.85" transform="matrix(.1365 -.3972 -.2924 -.2816 4.5 -4.25)"/><use xlink:href="#g" width="5.5" height="7.85" transform="matrix(.2117 -.3037 -.2431 -.38 5.05 -2.5)"/><use xlink:href="#g" width="5.5" height="7.85" transform="matrix(.23 -.2727 -.2255 -.4023 6 -.75)"/><use xlink:href="#h" width="7.25" height="14.95" transform="matrix(-.2074 .2917 -.2956 -.3266 10.7 1.25)"/></g></g></g><g clip-path="url(#i)"><g transform="translate(26 1)"><g transform="translate(10.55 27)"><use xlink:href="#e" width="21.1" height="14.6" transform="translate(-10.55 -25.75)"/><use xlink:href="#f" width="0" height=".05" transform="matrix(.7527 -.0005 .1035 1.0211 6.4 .25)"/><use xlink:href="#g" width="5.5" height="7.85" transform="matrix(.4817 .0493 -.025 -.537 -.95 -14.2)"/><use xlink:href="#g" width="5.5" height="7.85" transform="matrix(.4006 -.2357 -.2708 -.4865 .85 -11.2)"/><use xlink:href="#g" width="5.5" height="7.85" transform="matrix(.4593 -.0921 -.1496 -.5322 .5 -9.35)"/><use xlink:href="#g" width="5.5" height="7.85" transform="matrix(.4693 -.0499 -.1129 -.5373 1 -7)"/><use xlink:href="#g" width="5.5" height="7.85" transform="matrix(-.2883 .2354 -.2124 -.3641 4.1 -6.5)"/><use xlink:href="#g" width="5.5" height="7.85" transform="matrix(.1494 -.4015 -.2859 -.2716 3.95 -3.85)"/><use xlink:href="#g" width="5.5" height="7.85" transform="matrix(.2223 -.3106 -.2334 -.3715 4.4 -2.05)"/><use xlink:href="#g" width="5.5" height="7.85" transform="matrix(.2398 -.2802 -.215 -.3944 5.25 -.35)"/><use xlink:href="#h" width="7.25" height="14.95" transform="matrix(-.2176 .2985 -.2879 -.3164 9.95 1.45)"/></g></g></g><g clip-path="url(#j)"><g transform="translate(51 1)"><g transform="translate(10.55 27)"><use xlink:href="#e" width="21.1" height="14.6" transform="translate(-10.55 -24.5)"/><use xlink:href="#f" width="0" height=".05" transform="matrix(.7604 -.0841 .0239 1.0013 4.7 1.35)"/><use xlink:href="#g" width="5.5" height="7.85" transform="matrix(.4827 -.0046 .0171 -.5298 -1.6 -12.15)"/><use xlink:href="#g" width="5.5" height="7.85" transform="matrix(.4232 -.2782 -.2352 -.4524 -.05 -9.35)"/><use xlink:href="#g" width="5.5" height="7.85" transform="matrix(.4713 -.1424 -.1091 -.5112 -.5 -7.5)"/><use xlink:href="#g" width="5.5" height="7.85" transform="matrix(.478 -.1017 -.0716 -.5203 -.2 -5.2)"/><use xlink:href="#g" width="5.5" height="7.85" transform="matrix(-.3098 .2654 -.1857 -.3376 2.9 -5.1)"/><use xlink:href="#g" width="5.5" height="7.85" transform="matrix(.1826 -.4148 -.2674 -.2376 2.55 -2.4)"/><use xlink:href="#g" width="5.5" height="7.85" transform="matrix(.2491 -.3328 -.2064 -.3426 2.9 -.75)"/><use xlink:href="#g" width="5.5" height="7.85" transform="matrix(.2643 -.3045 -.186 -.3673 3.65 .9)"/><use xlink:href="#h" width="7.25" height="14.95" transform="matrix(-.2434 .3202 -.2658 -.2818 8.2 2.15)"/></g></g></g><g clip-path="url(#k)"><g transform="translate(76 1)"><g transform="translate(10.55 27)"><use xlink:href="#e" width="21.1" height="14.6" transform="translate(-10.55 -23.25)"/><use xlink:href="#f" width="0" height=".05" transform="matrix(.5568 -.0612 .0224 1.0013 3.4 2.65)"/><use xlink:href="#g" width="5.5" height="7.85" transform="matrix(.3537 .0099 .01 -.5289 -1.25 -11.05)"/><use xlink:href="#g" width="5.5" height="7.85" transform="matrix(.3088 -.2653 -.1745 -.4592 -.1 -8.2)"/><use xlink:href="#g" width="5.5" height="7.85" transform="matrix(.3447 -.1281 -.0824 -.5141 -.45 -6.4)"/><use xlink:href="#g" width="5.5" height="7.85" transform="matrix(.3498 -.0872 -.055 -.5221 -.2 -4.05)"/><use xlink:href="#g" width="5.5" height="7.85" transform="matrix(-.2258 .2559 -.1378 -.3429 2.1 -3.85)"/><use xlink:href="#g" width="5.5" height="7.85" transform="matrix(.1318 -.409 -.1971 -.2455 1.85 -1.2)"/><use xlink:href="#g" width="5.5" height="7.85" transform="matrix(.1809 -.325 -.1529 -.3485 2.05 .5)"/><use xlink:href="#g" width="5.5" height="7.85" transform="matrix(.1922 -.2964 -.1381 -.3726 2.65 2.15)"/><use xlink:href="#h" width="7.25" height="14.95" transform="matrix(-.1768 .3127 -.1962 -.2896 5.95 3.55)"/></g></g></g><g clip-path="url(#l)"><g transform="translate(101 1)"><g transform="translate(10.55 27)"><use xlink:href="#e" width="21.1" height="14.6" transform="translate(-10.55 -22)"/><use xlink:href="#f" width="0" height=".05" transform="matrix(.3537 -.0391 .0238 1.0013 2 3.8)"/><use xlink:href="#g" width="5.5" height="7.85" transform="matrix(.2251 .0239 .0013 -.5281 -1.15 -10.1)"/><use xlink:href="#g" width="5.5" height="7.85" transform="matrix(.1939 -.2529 -.1154 -.4657 -.35 -7.2)"/><use xlink:href="#g" width="5.5" height="7.85" transform="matrix(.218 -.1144 -.0573 -.5169 -.5 -5.35)"/><use xlink:href="#g" width="5.5" height="7.85" transform="matrix(.2217 -.0733 -.04 -.5238 -.35 -3.1)"/><use xlink:href="#g" width="5.5" height="7.85" transform="matrix(-.1412 .2468 -.0909 -.3481 1.05 -2.75)"/><use xlink:href="#g" width="5.5" height="7.85" transform="matrix(.08 -.4034 -.1277 -.253 .95 -.15)"/><use xlink:href="#g" width="5.5" height="7.85" transform="matrix(.112 -.3176 -.1006 -.3543 1.15 1.55)"/><use xlink:href="#g" width="5.5" height="7.85" transform="matrix(.1195 -.2885 -.0914 -.3778 1.5 3.25)"/><use xlink:href="#h" width="7.25" height="14.95" transform="matrix(-.1095 .3054 -.1275 -.2971 3.65 4.8)"/></g></g></g><g clip-path="url(#m)"><g transform="translate(1 36)"><g transform="translate(10.55 27)"><use xlink:href="#e" width="21.1" height="14.6" transform="matrix(-1 0 0 1 13 -27)"/><use xlink:href="#f" width="0" height=".05" transform="matrix(-.7364 -.2086 -.1479 .9957 -5.35 -1)"/><use xlink:href="#g" width="5.5" height="7.85" transform="matrix(-.4735 -.0838 .049 -.5318 2.5 -13.45)"/><use xlink:href="#g" width="5.5" height="7.85" transform="matrix(-.3811 -.3472 .2872 -.4131 .6 -10.95)"/><use xlink:href="#g" width="5.5" height="7.85" transform="matrix(-.4452 -.2194 .1706 -.4925 .85 -9)"/><use xlink:href="#g" width="5.5" height="7.85" transform="matrix(-.4568 -.1799 .135 -.5077 .25 -6.8)"/><use xlink:href="#g" width="5.5" height="7.85" transform="matrix(.2713 .3158 .2244 -.3065 -2.8 -7.2)"/><use xlink:href="#g" width="5.5" height="7.85" transform="matrix(-.1278 -.444 .2922 -.1933 -2.75 -4.45)"/><use xlink:href="#g" width="5.5" height="7.85" transform="matrix(-.2033 -.3731 .2453 -.3082 -3.3 -2.8)"/><use xlink:href="#g" width="5.5" height="7.85" transform="matrix(-.2218 -.3474 .2283 -.3362 -4.3 -1.35)"/><use xlink:href="#h" width="7.25" height="14.95" transform="matrix(.1993 .3596 .2961 -.2378 -8.85 -.75)"/></g></g></g><g clip-path="url(#n)"><g transform="translate(26 36)"><g transform="translate(10.55 27)"><use xlink:href="#e" width="21.1" height="14.6" transform="matrix(-1 0 0 1 13 -25.75)"/><use xlink:href="#f" width="0" height=".05" transform="matrix(-.676 -.1502 -.1226 .9965 -4.4 -.35)"/><use xlink:href="#g" width="5.5" height="7.85" transform="matrix(-.4341 -.0467 .0381 -.5299 2.65 -13.3)"/><use xlink:href="#g" width="5.5" height="7.85" transform="matrix(-.353 -.3144 .2574 -.4307 1 -10.65)"/><use xlink:href="#g" width="5.5" height="7.85" transform="matrix(-.4099 -.1831 .1498 -.5003 1.2 -8.75)"/><use xlink:href="#g" width="5.5" height="7.85" transform="matrix(-.42 -.1431 .117 -.5127 .65 -6.5)"/><use xlink:href="#g" width="5.5" height="7.85" transform="matrix(.2521 .2918 .2013 -.3204 -2.15 -6.65)"/><use xlink:href="#g" width="5.5" height="7.85" transform="matrix(-.1225 -.4296 .2647 -.2136 -2.05 -3.95)"/><use xlink:href="#g" width="5.5" height="7.85" transform="matrix(-.1907 -.3536 .2204 -.3236 -2.55 -2.25)"/><use xlink:href="#g" width="5.5" height="7.85" transform="matrix(-.2072 -.3268 .2046 -.3501 -3.35 -.7)"/><use xlink:href="#h" width="7.25" height="14.95" transform="matrix(.1868 .3406 .2677 -.2579 -7.6 .15)"/></g></g></g><g clip-path="url(#o)"><g transform="translate(51 36)"><g transform="translate(10.55 27)"><use xlink:href="#e" width="21.1" height="14.6" transform="matrix(-1 0 0 1 13 -24.5)"/><use xlink:href="#f" width="0" height=".05" transform="matrix(-.4753 -.0233 -.0489 .9964 -1.85 1.15)"/><use xlink:href="#g" width="5.5" height="7.85" transform="matrix(-.3034 .0336 .0071 -.5249 2.65 -12.75)"/><use xlink:href="#g" width="5.5" height="7.85" transform="matrix(-.2568 -.2429 .1632 -.468 1.5 -9.9)"/><use xlink:href="#g" width="5.5" height="7.85" transform="matrix(-.2915 -.1041 .0859 -.5164 1.75 -8.05)"/><use xlink:href="#g" width="5.5" height="7.85" transform="matrix(-.2971 -.0631 .0626 -.5225 1.45 -5.8)"/><use xlink:href="#g" width="5.5" height="7.85" transform="matrix(.1859 .2391 .1282 -.35 -.5 -5.45)"/><use xlink:href="#g" width="5.5" height="7.85" transform="matrix(-.1008 -.3975 .1762 -.2572 -.3 -2.75)"/><use xlink:href="#g" width="5.5" height="7.85" transform="matrix(-.1454 -.3108 .1414 -.3566 -.65 -1.1)"/><use xlink:href="#g" width="5.5" height="7.85" transform="matrix(-.1559 -.2816 .1294 -.3796 -1.1 .6)"/><use xlink:href="#h" width="7.25" height="14.95" transform="matrix(.1422 .2988 .1767 -.3009 -4.05 2.2)"/></g></g></g><g clip-path="url(#p)"><g transform="translate(76 36)"><g transform="translate(10.55 27)"><use xlink:href="#e" width="21.1" height="14.6" transform="matrix(-1 0 0 1 13 -23.25)"/><use xlink:href="#f" width="0" height=".05" transform="matrix(-.4805 .0233 .0482 .996 .25 2.3)"/><use xlink:href="#g" width="5.5" height="7.85" transform="matrix(-.302 .0631 -.0442 -.5228 3.35 -11.95)"/><use xlink:href="#g" width="5.5" height="7.85" transform="matrix(-.2821 -.2165 .1184 -.4815 2.55 -9)"/><use xlink:href="#g" width="5.5" height="7.85" transform="matrix(-.3035 -.0751 .0359 -.5221 2.95 -7.2)"/><use xlink:href="#g" width="5.5" height="7.85" transform="matrix(-.3051 -.0337 .0119 -.5259 2.9 -4.9)"/><use xlink:href="#g" width="5.5" height="7.85" transform="matrix(.2104 .2197 .0948 -.3607 .95 -4.3)"/><use xlink:href="#g" width="5.5" height="7.85" transform="matrix(-.1403 -.3856 .1521 -.273 1.35 -1.75)"/><use xlink:href="#g" width="5.5" height="7.85" transform="matrix(-.1767 -.295 .1074 -.3686 1.25 .05)"/><use xlink:href="#g" width="5.5" height="7.85" transform="matrix(-.1844 -.2648 .0931 -.3902 .85 1.7)"/><use xlink:href="#h" width="7.25" height="14.95" transform="matrix(.1723 .2833 .1483 -.3166 -1.9 3.65)"/></g></g></g><g clip-path="url(#q)"><g transform="translate(101 36)"><g transform="translate(10.55 27)"><use xlink:href="#e" width="21.1" height="14.6" transform="matrix(-1 0 0 1 13 -22)"/><use xlink:href="#f" width="0" height=".05" transform="matrix(-.4811 .0719 .1474 .9861 2.45 3.1)"/><use xlink:href="#g" width="5.5" height="7.85" transform="matrix(-.2975 .0934 -.0963 -.5157 4.2 -11.45)"/><use xlink:href="#g" width="5.5" height="7.85" transform="matrix(-.3052 -.1868 .0714 -.4911 3.65 -8.45)"/><use xlink:href="#g" width="5.5" height="7.85" transform="matrix(-.3128 -.0439 -.0157 -.5231 4.25 -6.6)"/><use xlink:href="#g" width="5.5" height="7.85" transform="matrix(-.3103 -.0026 -.0402 -.5245 4.4 -4.35)"/><use xlink:href="#g" width="5.5" height="7.85" transform="matrix(.2334 .1973 .0596 -.3685 2.5 -3.6)"/><use xlink:href="#g" width="5.5" height="7.85" transform="matrix(-.1794 -.3694 .1259 -.2871 3.2 -1.05)"/><use xlink:href="#g" width="5.5" height="7.85" transform="matrix(-.207 -.2755 .0715 -.3776 3.3 .7)"/><use xlink:href="#g" width="5.5" height="7.85" transform="matrix(-.2118 -.2448 .0549 -.3977 3.05 2.4)"/><use xlink:href="#h" width="7.25" height="14.95" transform="matrix(.2014 .2644 .1178 -.3301 .45 4.6)"/></g></g></g></svg>