<svg xmlns="http://www.w3.org/2000/svg" xmlns:xlink="http://www.w3.org/1999/xlink" width="81" height="103" viewBox="0 0 81 103"><defs><g id="c"><path fill="#1f1d0c" d="m83.8 15.6 6.5-2.2.4 2.3-9.5 5.7.1 1.8-4.2.1.1 1.1L65.6 28l-7.1 4.9-1.6 12.9 2.3 4.7L57 54l7.2 14.8-2.6 5.7 3.5 9.6 5.6-.4 4.1 10.7-3.7 3.7 4.2 10-3.2 1.1-.4 3.3v.1l3.4 1.5q-5.5 19.1-7.1 30.7l.7.3v4.5h7.6l9.9-1.9 5-1.9 1-1.3.6-.7 10.8-1.6 2.7-3 12.4 5-3.4 4.8 4.8 6.6v13l3.7 2.3v5.6l1.2.5.1 1.3q-1.8-.3-3.3 3.8-.9 2.3-1.5 6-.4 2.4-.6 5.4l-.5 5.3H118v-5.7l1.8-3.8v-23.9l-2-2.7h-1.2l-2.5-6.1-.8-.5-1.2-.6-3-3-2.1-7.7h-4.9l-7.2 2.5-1.5 4.9v1.5l.8 3.1-1.4 8 2 1.3 1 7.7q.4 2.6-.3 5.1l-.3 1.2h-2v-12.3h-4.4l1.7-9.1h1.2v-4.9h-.4V151h-9.6l-.2 1h-.8l-3.8 1.5H75v.7l-.2.8-2.4-2-6 2.3 1.2 1.9v2.5l-1.5 1.1-.3 1.8-8.7 3.7v-2.7l1.5-1.2 1.3-2 1.1-2 .4-1.5q.3-4.4 1-8.5l-2-1.6v-5.4l3-14.2 2.9-1.8v-2.7l1.9-1.3V106h-2.5v-2l-1.1-5 4-4.5-2.7-7.9h-5.1l-1.4-18.1-4.7-13.1v-15h-1.4v-.5l1.9-6.9 3.9-2.9.2-1 17.5-8.4v-.1l7.6-3.4zm-27.9-3.4 1.9 1.1L67.6.1V0l1.2.6-3 6.4.6.8-7.7 7.9-3.6 1.5-1-1 1.1-2.7zM69 8.6l5.8-4.8 1.5 2L72.8 9l1.2 2.8-10.5 7.3v.1l-1.1-1.4 7.3-7.9zm8.2 14.7-.3-2.6z"/><path fill="#392e13" d="m68.7 145.2 6.3 2 6.3-1 18-8.5 4.3 1 2-5 5.8 1.4q.8 1.8 3.4 3.2l.9.4q2.7 1.4 6.1 1.7l2.3 9.5-1.7 2.3 1.3 1.6v13.8h3.4l2.2 8.7h.4l2.4 3.3h3.1l2.1 12.4 1.4 1.3v1.2l1.4.3.4.3 12.3 8 4.4 3.6v2.5h-3.9l-1.6-3.2-13.7-8.8-.1-.2q-.8-1-2-1.2l-3-3.4-2.3-7.8-1.6.7q-1.1-4.9-2.9-6.4-.5-.5-1-.5l-.1-1.3-1.2-.5v-5.7l-3.7-2.2v-13l-4.8-6.5 3.4-5-12.5-4.9-2.6 3-10.8 1.6-.6.7-1 1.3-5 1.9-9.9 1.8h-7.6zm-14.4 22.3-2.2-.8.3-2.7 5-13.7h-1.5l-1.7-5.2-1.8 1.3v5.1H51l-1.9 5.7-5.9 6.2h-6l3.6-5.2 2.4-1.5V153l5.1-4.2v-.7l4.1-11.6h.9l3.3-3.1v-2.2l4.1-13.1v-1.7l-4-26.5-.7-.2h-3.5l-2-15.4 1.9-1.2L50.8 56l-3.4-1.9 1.6-20h2.1l3.3-6.2h2.5l2.2-2.7 3.8.2 3.9-4.1h3.9l6.9-6.2.9 1.5 5-1.8.3.8.6 1.7-7.6 3.3v.1l-17.5 8.4-.2 1-3.9 3-1.9 6.8v.5h1.4v15.1l4.7 13.1 1.4 18.1h5.1l2.8 7.8-4.1 4.7 1.2 4.8v2.1h2.4v15.4l-2 1.3v2.7l-2.9 1.8-2.9 14.2v5.4l2 1.6q-.7 4-1 8.5l-.4 1.5-1.1 2-1.3 2-1.6 1.2v2.7zm-20-7-.7-.8H32l-4.4.7v-1.8l5.5-3.3v-1.7h4.7zm31.5 2.2.3-1.8 1.5-1v-2.6l-1.2-1.9 6-2.3 2.3 2-1 3.2-2.3 2z"/><path fill="#332c11" d="m111.4 135 3 .8 7.3 3.9.1.7q-3.4-.3-6.1-1.7l-.9-.4q-2.5-1.5-3.4-3.2m12.7 14.8 2.1 8.7v5.4l.9 3.6h-3.3v-13.8l-1.4-1.6z"/><path fill="#4b461b" d="M153.3 209.2h-1.5v4.9h-2.1v-.7l-2.4-9.7-6.5-1.7-2.8-4.8 13.7 8.8zm-20.2-9.8-.6.5v1l-1.7-.5-.1-2.7-.2-3.4-.7-5.2-.3-1.7.3-1.3-.7-.6-.1-.2 1.6-.7 2.4 7.8 2.8 3.4h.2-.1l-2.8.3zm-96-36h-.2l-2.6-2.9 3.6-6.9h-4.7v1.7l-5.5 3.3v1.8l-5.1.9v1.3l-2.5 1.8h-1.3l-8.5-3.3 1.6-4.4-2.4-2 7-8.8q6.7-.8 12.3-4.6 3.1-2 5-4.8l8.6-2 3.5-14.7-1.5-3.7 1.1-7.1-.6-9.2-5.5-5.7v-.4l-4.8-1.5v-1.1L33 84.8l2.8-3.4.6 1 1.7-1.1 1.4-1.1-2.5-5.7V63.1l-4.9-7-2.2-7.1 2.9-1.1h.7l1.1-5.2h.6l2.4-1.4v-11h1V29l9.7-5.4q.3-4.2 3-7.4 1.8-1.9 4-2.7L54 16l1 1.1 3.6-1.5 7.7-7.9 1.3-1.3 1.2 2.1.8 1.3-7.3 7.9 1.1 1.4L74 11.8l1.9-1.4 4.7-1.9 1.2 2.4-4.5 3.6.3.5-6.9 6.2h-3.9l-4 4-3.7-.1-2.2 2.8h-2.5L51 34h-2l-1.7 20.2 3.4 1.8 1.5 17.2-1.9 1.2 2 15.3H56l.7.3 4 26.5v1.7l-4 13.1v2.2l-3.5 3h-.8l-4.1 11.7v.7l-5.1 4.2v3.6l-2.4 1.5z"/><path fill="#25220e" d="M149.7 214h-4v-9.7H139l-3.8-6.7-2.1 1.8v-3.3l2.8-.2q1.2.2 2 1.1l.1.2 2.8 4.8 6.4 1.7 2.5 9.8zm-19-13.7-4.1-1 2.9-12 .3 1.7.7 5.2.2 3.4zm-1.6-15-1.4-1.3-3.6-1.4-1.5 16.1h-3.3l.4-5.3q.2-3 .6-5.4.6-3.7 1.5-6 1.5-4.1 3.3-3.8.5 0 1 .5 1.8 1.5 2.9 6.4zm-11 7.7v-25.8h-2.3l-.2.3q-4.6 5.3-4.4 12 0 3.2 1.2 6.6l-1.6-.2-1.5-10.3q2.5-3.2 3.6-6.7 1.3-4.4.1-9.5l-.6-3.1h-2.1v5h-3.1v-12.8l-3.2-1.2-7.5 2.9-1.7 9.2v2l2 5.4h.5v1.9h1.3v9.2l-2.6 1.3v.8h-.7l.3-1.2q.7-2.5.4-5.1l-1-7.7-2.1-1.2 1.4-8-.7-3.2v-1.5l1.4-4.9 7.2-2.5h4.9l2.2 7.7 2.9 3 1.2.6.8.5 2.5 6h1.2l2 2.8v23.8zm-26.8-39h-9.2l-2.7 6.2v2.2l-11.2 4.3-10.9 2-3-1.1 2.8-1.2 8.7-3.7 5.6-2.3 2.3-2 1-3.2.3-.8v-.7h1.9l3.8-1.4h.8l.2-1.1h9.6z"/><path fill="#463717" d="m52 166.7-3.6-1.4-1.6-1.9h-3.6l5.8-6.2 1.9-5.7h1.5v-5.1l1.8-1.3 1.6 5.3h1.6l-5 13.5z"/><path fill="#7e762c" d="m9.5 154.7-.5-.5-1.1-.8H6.4l-6-1.3 8.9-1.1 7.6-7.9 13.6-7 8.9-5.8 3.4-9.4-1.4-3 .1-16-8-5.5-3.3-15.9 5.6-2.4-1-2.8-.1-6.6-.7-2.5L21 59l-.2-2.9L24 56l8.4 4.9-2.9-9.9-5.9-4.2-10-10.9 1.4-1.4 10 10.3-6-24.4 1.4-.5 6.9 24.3 3.5 2.4.4-5.7 2.8-1.4 1-10.9 8.4-5.5.6-5 4.4-.2 8.1-9.8.4-2.3h1.8l-2.9 6.4-.5 1.3q-2.2.8-4 2.8-2.7 3-3 7.3L38.6 29v1.3h-1v11l-2.4 1.4h-.6l-1.1 5.2h-.7L29.9 49l2.2 7 5 7.1v11.4l2.4 5.7-1.4 1.1-1.7 1-.6-.9-2.7 3.4 1.5 6.3v1.1l4.8 1.5v.3l5.5 5.8.6 9.2-1 7 1.4 3.8-3.5 14.7-8.6 2q-1.8 2.8-5 4.8-5.6 3.8-12.4 4.5z"/><path fill="none" stroke="#000" stroke-linecap="round" stroke-linejoin="round" stroke-opacity=".3" stroke-width="__RESOLUTION__" d="m77 23.3.2 1.1L65.6 28l-7.1 4.9-1.6 12.9 2.3 4.7L57 54l7.2 14.8-2.6 5.7 3.5 9.6 5.6-.4 4.1 10.7-3.7 3.7 4.2 10-3.2 1.1-.4 3.3v.1l3.4 1.5q-5.5 19.1-7.1 30.7l.7.3 6.3 2 6.3-1 18-8.5 4.3 1 2-5h0l5.8 1.4 3 .7 7.3 3.9.1.7 2.3 9.5 2.1 8.7v5.4l.9 3.6 2.2 8.7h.4l2.4 3.3h3.1l2.1 12.4 1.4 1.3v1.2l1.4.3.4.3 12.3 8 4.4 3.6v2.5h-5.4v4.9h-6.1v-9.7H139l-3.8-6.7-2.1 1.7-.6.5v1l-1.7-.5-4.2-1 2.9-12 .3-1.3-.7-.6-1.4-1.3-3.6-1.4-1.5 16.1H118v-31.5h-2.3l-.2.3q-4.6 5.3-4.4 12 0 3.2 1.2 6.6l-1.6-.2-1.5-10.3q2.5-3.2 3.6-6.7 1.3-4.4.1-9.5l-.6-3.1h-2.1v5h-3.1v-12.8l-3.2-1.2-7.5 2.9-1.7 9.2h0v2l2 5.4h.5v1.9h1.3v9.2l-2.6 1.3v.8h-2.7v-12.3h-4.4l1.7-9.1h1.2v-4.9h-9.6l-2.7 6.2v2.2M.4 152l8.9-1.1 7.6-7.9 13.6-7 8.9-5.8 3.4-9.4-1.4-3 .1-16-8-5.5-3.3-15.9 5.6-2.4-1-2.8-.1-6.6-.7-2.5L21 59l-.2-2.9L24 56l8.4 4.9-2.9-9.9-5.9-4.2-10-10.9 1.4-1.4 10 10.3-6-24.4 1.4-.5 6.9 24.3 3.5 2.4.4-5.7 2.8-1.4 1-10.9 8.4-5.5.6-5 4.4-.2 8.1-9.8.4-2.3h1.8l-2.9 6.4m10.6-4.4 1.3-1.3 1.2 2.1.8 1.3-7.3 7.9 1.1 1.4h0L74 11.8l1.9-1.4 4.7-1.9h0l1.2 2.4-4.5 3.6.3.5.9 1.5h0l5-1.8.3.8.6 1.7-7.6 3.3v.1l.3 2.6m-21.8-9.9L54 16.2l1 1.1 3.6-1.5 7.7-7.9m-11.2 5.6.6-1.2" vector-effect="non-scaling-stroke"/><path fill="none" stroke="#000" stroke-linecap="round" stroke-linejoin="round" stroke-opacity=".2" stroke-width="__RESOLUTION__" d="M58.3 32.9 53.4 36l-7.2.5-3.7-2.2m10.1 3.9-5-.2m-16.7 8.5 4.4 2.5 2-.9 2 1.9m-5.7 16.3 4.3 2.9.3 1.4 2.4.8M37 90.6l.5-.4-1.7-4.4.6-.2-.4-.5m4-.3-.2-.3-3.4 1.1m1.1 4.6 1.4.3-.6-3.2m9.4 3.8.4-.4-3.7-5.2-1.4-2.1-3.2 1m9.1 13.8.3-6.1-1-1.4m-3.8-5.2.6-.6m14.8 13.7 6.8-.7m8-3.7-11.5 2m-16.6 4.2 3.8-.9m-9.4 3 4.8-3.2 3.9-1m-7.2 18.5 4.3-2.3m11.5-3.1-1 9.2 2.2-.4.5-5.9m-.5 5.9.5-.1m-3 .6.3-.1-.7 5.8m-11.9-6.3 7.9-4m1.3 27.3 1.5.5 5.3-.7 6.5-3.4 2.9-5.3m-25.2 9.3 1.1-2.7.5-1m-9 14.3 1.5-3.3 4.4-3.5 1-2.6m7.6-2.7-1.9.3-4-1.4m13.4-21-1 10.2m-31.3 15.4 4-2.3 6.8-.7 2-3.5-2.5-2-3.1 1.2.3 1.3m-15.4 11.3 3.3-2.7 1-.5m-11.7 9 2.5-2m8.4 6.3 2.3-4.5 2.3-2.2m-7.8 9.8.8-6.7m.8-1.2 2.3-2.7m5.1-.1 1.9-1.3m22.2 4.8h-.7l-.2 1.8m5.7 10.1-.1-8.5 2.1-10.2m-7.9 3.2-.7 3.4 1 .2.5-3.7m-5.8 9.8 3.6-3.2.7-3m63-18.9-3.2 1 1.3 4.6 7.6 4.9 1.3-1.6-3.6-4.8-1.6.8m18.8 39-1.8-.1 1.8 9.8 1.1-.5" vector-effect="non-scaling-stroke"/><path fill="#c58f8f" d="m64.5 73.7-.6.5-1.2.3-1.3-.3q-.5-.2-.5-.5 0-.4.5-.7l1.3-.2 1.2.3q.6.2.6.6"/><path fill="#481211" d="M64.5 73.7q0-.4-.6-.7l-1.2-.2-1.3.3q-.5.2-.5.6t.5.5l1.3.3 1.2-.3zm-4 2.8v-.2l-.9-.7-2.2-.4-2.3.3q-1 .5-1 1t1 .9l2.3.4 2.3-.4.6-.5zm-13.6.3q15.5-3.7 16.1-8.2 7.1 7.6 2.9 9.6l-3.8.7q-5.2.2-15.2-2"/><path fill="#7b4040" d="m60.6 76.5-.2.5-.7.4-2.4.4-2.2-.4q-1-.4-1-.9t1-1l2.3-.3 2.3.3.7.8z"/><path fill="#322" d="M62.2 78.9q-4.5 1.8-11.6 1l-3.6-3q10 2.2 15.2 2"/><path fill="none" stroke="#000" stroke-linecap="round" stroke-linejoin="round" stroke-opacity=".3" stroke-width="__RESOLUTION__" d="M62.2 78.9q-4.5 1.8-11.6 1l-3.6-3q15.5-3.9 16.1-8.3 7.1 7.6 2.9 9.6z" vector-effect="non-scaling-stroke"/><path fill="#481211" d="m43.3 121.7-.9-.1-.9.1q-.3.2-.3.5t.3.3l.9.2.9-.2.3-.3zm4.3 1.7-1.5-.2-1.6.2-.5.5v.4l.5.4 1.6.3 1.5-.3.7-.7zm5.5.9q-6.8 1.5-10.3 1.4-1.7 0-2.6-.5-2.9-1.4 2-6.5.4 3 11 5.6"/><path fill="#c58f8f" d="m43.3 121.7.3.5-.4.3-.8.2-.9-.2q-.3-.1-.3-.3 0-.3.3-.5l.9-.1z"/><path fill="#7b4040" d="m47.6 123.4.6.6-.7.7-1.5.3-1.6-.3-.5-.4v-.4l.5-.5 1.6-.2z"/><path fill="#322" d="m53 124.3-2.5 2q-4.7.6-7.8-.6 3.5.1 10.3-1.4"/><path fill="none" stroke="#000" stroke-linecap="round" stroke-linejoin="round" stroke-opacity=".3" stroke-width="__RESOLUTION__" d="M42.7 125.7q3.1 1.2 7.8.6l2.5-2q-10.5-2.6-10.9-5.6-4.9 5.1-2 6.5.9.5 2.6.5" vector-effect="non-scaling-stroke"/></g><g id="g" transform="translate(11.75)"><use xlink:href="#a" width="52.5" height="26.5" filter="url(#b)" transform="matrix(1.61 0 0 .84 .65 148.25)"/><use xlink:href="#a" width="52.5" height="26.5" filter="url(#b)" transform="matrix(-1.07 0 0 .56 89.2 156.8)"/><use xlink:href="#a" width="52.5" height="26.5" filter="url(#b)" transform="matrix(-1.07 0 0 .56 44.25 147.3)"/><use xlink:href="#c" width="157.7" height="214.4" transform="translate(-.4)"/><use xlink:href="#a" width="52.5" height="26.5" filter="url(#b)" transform="matrix(1.3 .66 -.22 .43 88.1 169.45)"/></g><clipPath id="f"><path d="M1 1h79v101H1z"/></clipPath><filter id="b" filterUnits="userSpaceOnUse"><feConvolveMatrix divisor="49" in="SourceGraphic" kernelMatrix="1 1 1 1 1 1 1 1 1 1 1 1 1 1 1 1 1 1 1 1 1 1 1 1 1 1 1 1 1 1 1 1 1 1 1 1 1 1 1 1 1 1 1 1 1 1 1 1 1" order="7 7" result="filter1"/></filter><path id="e" fill="#304328" fill-opacity=".7" d="m18.4-.3 1.3.2.7.3 1.5-.2h2l3.9.2q3.1 1.1 7.2 1.2 6-1.3 5.9 1.3l-.2.8L44 4.8q5.3 2.3 4.5 4.8l-.3 1.3-.2 1-.5 1.8q7.7 4.9-2.1 4.4h-1.1q-2.6 0-4 1.1l-.5.4q-1 .9-1.5 1.8-3.3 4.2-10.4 2.3-2 .2-9.5 1.9l-6.7.3q-2.1-.6-3-2.2-2.3-3.6-2.8-3.9-10.4-2.1-5.9-7.6l-1.3-.7q-1.1-.5.9-1.7l.9-.4q-1.1-2 1.2-3l.5-.2L3 6q.1-2.3 3.5-2.2l2.8-.4Q11.6 3 14 1.1q1.6-1.6 4-1.5z" transform="translate(1.7 .35)"/><use xlink:href="#e" id="a" width="52.5" height="26.5"/></defs><g clip-path="url(#f)"><use xlink:href="#g" width="169" height="215.8" transform="translate(1 1)scale(.4659)"/></g></svg>