<svg xmlns="http://www.w3.org/2000/svg" xmlns:xlink="http://www.w3.org/1999/xlink" width="106" height="165" viewBox="0 0 106 165"><defs><radialGradient id="c" cx="0" cy="0" r="819.2" gradientTransform="matrix(0 0 0 0 -10.5 -68.1)" gradientUnits="userSpaceOnUse" spreadMethod="pad"><stop offset=".4" stop-color="#fff"/><stop offset="1" stop-color="#fff" stop-opacity="0"/></radialGradient><radialGradient id="f" cx="0" cy="0" r="819.2" gradientTransform="matrix(.01 0 0 .01 16.4 .9)" gradientUnits="userSpaceOnUse" spreadMethod="pad"><stop offset=".3" stop-color="#687c14"/><stop offset="1" stop-color="#9abf21"/></radialGradient><radialGradient id="e" cx="0" cy="0" r="819.2" gradientTransform="matrix(.06 0 0 .06 9.7 5.6)" gradientUnits="userSpaceOnUse" spreadMethod="pad"><stop offset="0" stop-color="#687c14"/><stop offset="1" stop-color="#9abf21"/></radialGradient><radialGradient id="g" cx="0" cy="0" r="819.2" gradientTransform="matrix(.04 0 0 .04 14 -129.25)" gradientUnits="userSpaceOnUse" spreadMethod="pad"><stop offset="0" stop-color="#687c14"/><stop offset="1" stop-color="#9abf21"/></radialGradient><radialGradient id="h" cx="0" cy="0" r="819.2" gradientTransform="matrix(.04 0 0 .04 13.3 15.7)" gradientUnits="userSpaceOnUse" spreadMethod="pad"><stop offset="0" stop-color="#5b6c11"/><stop offset="1" stop-color="#94b11f"/></radialGradient><radialGradient id="i" cx="0" cy="0" r="819.2" gradientTransform="matrix(.04 0 0 .04 13.3 15.7)" gradientUnits="userSpaceOnUse" spreadMethod="pad"><stop offset="0" stop-color="#4c5b0e"/><stop offset="1" stop-color="#7c951a"/></radialGradient><radialGradient id="k" cx="0" cy="0" r="819.2" gradientTransform="matrix(.01 0 0 .01 16.4 .9)" gradientUnits="userSpaceOnUse" spreadMethod="pad"><stop offset=".3" stop-color="#252c07"/><stop offset="1" stop-color="#37440b"/></radialGradient><radialGradient id="j" cx="0" cy="0" r="819.2" gradientTransform="matrix(.06 0 0 .06 9.7 5.6)" gradientUnits="userSpaceOnUse" spreadMethod="pad"><stop offset="0" stop-color="#252c07"/><stop offset="1" stop-color="#37440b"/></radialGradient><radialGradient id="n" cx="0" cy="0" r="819.2" gradientTransform="matrix(.01 0 0 .01 16.4 .9)" gradientUnits="userSpaceOnUse" spreadMethod="pad"><stop offset=".3" stop-color="#313b09"/><stop offset="1" stop-color="#495b0f"/></radialGradient><radialGradient id="m" cx="0" cy="0" r="819.2" gradientTransform="matrix(.06 0 0 .06 9.7 5.6)" gradientUnits="userSpaceOnUse" spreadMethod="pad"><stop offset="0" stop-color="#313b09"/><stop offset="1" stop-color="#495b0f"/></radialGradient><radialGradient id="o" cx="0" cy="0" r="819.2" gradientTransform="matrix(.04 0 0 .04 13.3 15.7)" gradientUnits="userSpaceOnUse" spreadMethod="pad"><stop offset="0" stop-color="#36400a"/><stop offset="1" stop-color="#576812"/></radialGradient><g id="q"><path fill="#9e7f1b" d="m76.3 14 .1-10.6.1-.2Q77.3.8 79.4.4l.1 7.8-.9-4.3-1.6.7v9.3zm1.4 38.4-.1 1.3v2L77 55l.2-3.1zm-5.2 6.3v-1.8l.5-2.4v-.9l.6-3.7 1-.1-.7 3.8-.5.5-.5 3.3.3.6z"/><path fill="#745415" d="m76.3 14 .7-.2V4.7l1.6-.7.9 4.3.2 9.6-.2 1.6-2.7-2.6-.6-.3zm1.4 41.7v3.6l.1.5-.1.1-1.6-1.7-2-.1-1.2 1.2-.3-.4v-.2l.7-.7-.3-.6.5-3.3.5-.6.7-3.7h.1l2.5 2.1L77 55zM10.9 44.3 8.3 40l3.7 1.6 3.6-.7.5 1.5-.8.5-.8.5-.4-1.6.4 1.6q-1.7.7-3.6.8"/><path fill="#4d3b0d" d="M79.5 19.5q-1.2 11.9-1 25.5-.6 3.9-.8 7.4l-.5-.5-2.5-2.1h-.1l-1 .1q2.3-16.5 2.6-33.3l.5.1zm-2 40.4-.5.4q-.4-.9-1.5-1h-.6l-1.2.3-.2.6-.7-.9 1.2-1.2h2zm-10.9 58.5.2-.2 2.8-3 .1-.2 1.1-.1 4.8-6.2-.5-.6.4-.6.9 1.5h-.1l-5.4 7.1-1.6 1-2.7 2.6zm-5 48.4-.2.8-1.4 1-.7 2.6-.9-1.1-5.1-1.1-2-.4-2.1-1.6-.1-.3-.1-.3-.7-1.2 2 1.4q1.8 1 3.5 1.6 3.9 1.2 7-.8zm-4.2-52.6-.1-.2h-.1l-.3-.2-.8-.3.1-.2q1.5.5 3.1.6 2 0 4.3-.7v1.6l-2 .3-1-.6zM18 61.1l-1.6-.6q-3.5-4.1-8.1-5.9l.9-1.4 5.5 2.7.8 2.4 2.1 1.4zm-6.1-16.3-.5-.4-.4-.2q2-.1 3.6-.9l.8-.4.8-.5q0 .4.2.6l-2.7 2zM8.3 40l-.6-.9q-.9-3.3-2.7-5.3l-4-3.4 1.5-2L5.2 30Q3.5 13.2.4 4.4l1.7-1.2L9.4 26l1.3-.7 3.4 10 .7 3.4.8 2.1-3.6.8zM43 45.9q-.1-1.1-.6-2.2l-2.5-8.9 3.5.4 4-.7 1-2.3L53 44l1 6-.7.3-1.6-2.1h-1.1l-.4-1H50l-3 .5zM54.9 54l.3 1.3-1 .4-2.9-5.3.6-.1zm-8.6-3.6.7-.2 1.4 2v3.1zm-19.4 6.1 1.3 1-.2.4-1.5-.9zm.8 3.5.8.4.5 2.4-.4.5-.6-2.4-.5-.4z"/><path fill="#5e4611" d="M77 60.3v.1l-.1.6-.4-.3-.1-.1-.4-.2h-.1l-.8-.1h-.8l-.2.1-.7.1v-.2l.3-.7 1.2-.3h.5q1.2.1 1.6 1m-1.8 18.4-.5.5-.1-.5v-.3l-.2.3-.4.5.1 1.2.7.5.2.6h-.5l-.8-.1-2-.5-1-.5-.4-.2h.1l.6-.2.9-.5-.5-1.1-.5-.5-.2-.7h.1q.6.6 1.3 1l1.7.5zm-13.7 88.9v.4l-.6.8.3 1.7 1.1-.2v.2l-.9.9-.6.5-.1.1q-2.4 1.6-6.2 2.2l-.6.1-1.4-.3q-1.5-.5-2.6-1.4l2.8.7 2.1.4 2.8-.9-.7-1 .3-1.2-3.5-.5-2.6-.3-1.9-2v-.8l2.2 1.6 2 .4q0 .7.3 1-.3-.3-.3-1l5.1 1.1.9 1 .8-2.5zm-3.9-52.8v-.6l3.1.2 1 .5 2-.2V113l.4-.2v1l1 1 .6.1-1.4 1.1-1 .6-2.7.4h-.3l-1.2-.1 1-.6.2-.5v-.2l-1.5-1.1-1.2-.3v.4M12 45.6l-.2-.7 1.8.1 2.7-1.9.7.2-1.3 1.5-.1.1q-.6.6-2 .8zM62.7 80h-.2zm-.3 1.3 1 5.9-1.4.4-.3-5.7zm9.5-7.4.5-.6-.1.4zm-17.1 8.6 1.3-.2 1.1 8.2 1.3-.2 2.3 8.8-.6.3.6 10-1.5.2.3 4.3q-1.6 0-3.1-.6l-.1-.1.9-.8-.7-5 .8.1-.6-4.5h-.7l-.2-.8-1.2-7.7v-.1l.4-.1-1.2-7.6h-.4l-.5-3.2.4-.4.1.7.5-.1.1.8.4-.1h.5zm1.6 9.4v2.5h.6l.5 1.5 1.3-.2-1-4.4zM57 97l-.3-1.6-.9.1.7 6.3.6.5 1.8-.1L58 97zm.8 17.3"/><path fill="#8b7316" d="M76.9 61q-.3 1.5.7 4.1l-2.3 12.2-.1 1.4h-.6v-.3l.8-5-.2-.2.8-4 .5-.5.6-3.1-.5-2.3-.2-.3.1-2.3zm-7.1 54 5.4-6.9.5.6-4.8 6.2zm-6.4 49.4-.1.2zm-8.8-22 .3-1 .1-.4.5-.4h.6l2.1-10.3-.4-.1-1 .6q.1-2.7-.2-5.2l-.2-1v-.6l.6.3-.2-7 .7-.7.4.1-.6 1.2v.2l.9 10.4.8.2-2.2 12.9zm1.6-29.3-.9-6.1v-.1l1.1-.6-.3-2.2-.7-1-1.7-10.4h.4l-.8-5.3h-.9l-1-7.6-.2-.3-1-2.2.5-.2.6 1 .6 1.5 1.4 3.4-.4.4.5 3.2h.4l1.2 7.6-.4.1 1.1 7.8.3.9h.7l.6 4.4-.8-.2.7 5.1zM65 86.3l.5-.3.5-.2h.7l.4.4 2.3-2.2-.2-1.7.4-2.1-.4-.1.2-.7.3.3.5.5-.4 1 .3 3-1.7 1.9.1.5-1.4 1-.4-.7zm5.8-9.1V77l-.3-.4.3-1.3q1.4-5.8 2-12.2l.7-2.4v-.2l.7-.2.1.4-.5.7V65l-.5.2-.3 3.1.3.2-1 4.6-.5.6z"/><path fill="#83691e" d="M74.7 79.2q-.3.5 0 1.7l-.6-.5-.1-1.2.4-.5h.2zm-9.8 33.4v.9l1.4 1-.5.5h-.5l-1.2-1.1.1-1h.2zM61.4 168q0 1.1.9 2.3l-1.1.2-.3-1.7zm-12.5.8.4-1 1.8 2 2.6.3-.5 2-.5 1.2-2.8-.7-.3-.3 2.6.5.6-1-2.6-.9zm7.8-52.3v-.2l.2-.1.4-.6.1-.1.1-.3.1-.3v-.5l1.2.3 1.5 1.2-.1.6-1.2.5h-.2l-1-.2-.4-.1zm12.8-37q1.4-.7 1.5-1.5l.4.5.5 1-.9.6-.6.2h-.2l-.4-.5zm-16.8 93.9.5-1.2.5-2 3.5.5-.3 1.3.7.9-2.8 1zm1.3-.7 1.5-.3-.4-.8-.9.3z"/><path fill="#614713" d="m75 81.5-.1.7v.6l-.1.6q-.7 6.5-7.8 9.5l-.5.4-.3.3Q65 95.1 65 97.5l-1.3-1.1v-.2l.5-1.5 1.1-1.1.4-.1.5-.7 4.6-2.8 1.4-2.3h.5l1-1.6.8-4.6z"/><path fill="#725c12" d="M65 97.5v.3l.2 1 .7 6.9q0 2.8-.4 6.3l-.3.4-.4-5.1-.4.1-.1-3.7.2-.1-.8-7.2zm1.7 28.9q-.9 8.2-1.2 14.3l-.1 5.5q0 3.7.3 6.2v.2q-.1 5.9-2.4 11.8v.1l-.7-.6 1.8-8.7-1-11.5 1.8-15.4z"/><path fill="#4f360d" d="m65.2 112.4-.3.2-.5.3H64l-.4.2q-2.3.8-4.3.7l-.2-4.3 1.4-.2-.6-10 .5-.3-2.2-8.8-1.3.2-1.1-8.2-1.3.2-.6-5.8-.5-1.3.8-.3 1.6 3.8.4-.2.5.8 2.4-1v.8l-.2.7.4-.2v.5h1l.1.7h1.8v.3l-.7.5.3 5.8-.5.2-1.1-4.4H59l-.9 3.1.5 1.2 1.3.3.6-.1.8-.1.5-.2 1.4-.4.6-.2 1.1-.6 1.8.6.4.7 1.4-1-.1-.5 1.7-2-.3-2.9.3-1h.1l.4.3 1 .4-.6 3.9-1.2 1 .3.8-2.4 2.6-2.3.3-1.8-.4h-1.2l-.2-.6-1.2.4h-.2l-.4 1.7-.3.9 1.9 3.6 1.6 1.3.8 7.2-.2.2.1 3.6.4-.1zM75 60.3l.9.1h.1l-.1 3 .6 2.3-.2 2.2-.5.3-1.5 5.5.5.5-1 4.5-1.7-.5v-1.8l.9-1 1.8-7.9-.5-.1.3-1.5.5-.4-.4-2.7zM56.3 91.7l1.3-.6 1 4.4-1.4.3-.4-1.6h-.6zm.6 5.1h1l.9 5.2h-1.9l-.5-.4-.7-6.3.9-.1z"/><path fill="url(#a)" d="M65.8 114h.4l-.7 2-.2 3.7.4.7.6-2v7.6l-1.5 1.8-1.8 15.5 1 11.5-1.9 8.7.8.6q-1.3 1.2-1.6 2.3l-.7.5q-3.2 2-7.1.8l.3-1.6 2.3-1v-.2l1.3-5.3-.4-4.7-3-.2v-2.5l.9-.5-1.6-4.4-.5.2-3.5-8.7-2-1.8q.7-.8 1.4-1.3.4-.4 1-.5l.5-.2h.1l1.2 2.3 2.2 8.1.2-.2.6 1.7.6.4 1.7-.2 2.7 1.8.1-3.8-1.1-.7-.2-1 .7-5h1.2l-.4-8.8.5-.5v-.2l-.2-1.5 1.5-1.7-.1-3.8-1.8-1.4.1 2.7.2.1-.5.7-.8.2.2-5.7 2.5.7-.1-2-1.1-.5 2.6-.5 1.1-.5 1.4-1.1z" transform="translate(.4 .4)"/><path fill="#5b4410" d="m66.6 114.5.1 3.9v.3l-.6 2.1-.4-.7.2-3.7zM47 138.4l.1-.2.5-.7 2 1.8 3.6 8.7.4-.2 1.6 4.4-.9.5v2.6h3v.1l.5 4.7-1.3 5.3v.2l-2.3 1-.3 1.7q-1.7-.5-3.5-1.6l2.4.3 1.3-4.9-.1-3h-.1l-.6-.1h-.1l-.4-7.4.6-.3-4-9.6-.5.4zm3.8-2.9h.5l.1.2q1.4 2.4 2.3 6.6l.1 1 .1.7h.1l.1-.6.3-.7.1-.2 2.1-.8 2.3-12.9-.8-.2-1-10.4.1-.2.6-1.2 1 .2h.3l1.2.2h.3l1.1.5.1 2-2.5-.7-.2 5.7.8-.2.5-.7-.2-.1-.1-2.7 1.8 1.4.1 3.8-1.6 1.8.4 1.4-.1.2-.5.5.4 8.8h-1.2l-.6 5h-.1l.2 1 1.1.7-.1 3.8-2.7-1.8-1.7.3-.6-.5-.6-1.7-.2.2-2.2-8.1zM54 144l.3 1.8zm-.3 12.3v2.2h.8l.1 2.8.8.1.8-2-.3-3.2z"/><path fill="#382c08" d="m75.6 107.5.6-.8 2 .9q0 2.2-1.5 4.5l-4 5.5q-2.5 3.3-5.3 7.6l-.7.9v-6.4l2.7-2.6 1.6-1 5.4-7v-.1z"/><path fill="#543e0e" d="m62.4 170.5.7.9-.1.7-.7-.2-2 8.8-.7 13.5 1.3 5.7-.6.4-1 .5-1.1.6-2.3-4.3 1-9.8 1.5-9.5 2.1-4.6.9-.9-.6-.4.6-.5zm-20.6 30.2.3-2.8q-.5 2.6-2.2 5.5l-1.4 1.4v-5.4q-.5 2.6-3 5.2l-2.2-.7 5.7-10.3q2.1-2.6 3.3-5.8l1.4-2.6 4.7-3.8.3-8.2.9-1 .3.4q1.1.9 2.6 1.4l-.2.6-1.3-.3-.2.9 1.3 1-1.6 9.3-1.4-.4-5.2 6.7 1.2 2.6v.2z"/><path fill="#655310" d="M63 172.1q-3 17.8-.8 26.3-.3.8-1.3 1.5l-1.3-5.7.7-13.5 2-8.8z"/><path fill="url(#b)" d="m57.8 201-.8.3q-1.5-1-2-3.4-.5-2.3 0-6-1.3 8-4.1 11.3-.7-1.9-.4-4.4l-1.2 4.8-5.1.3-2.5-.3q-.4-1.4-.3-3.3l3.4-6.2-.1-.1-1.2-2.7 5.3-6.6 1.4.4 1.5-9.3-1.4-1 .3-1 1.3.3.2-.5 1.4.3.6-.1q3.9-.7 6.2-2.2l.1-.1.6.4-.9.9-2.1 4.6-1.5 9.4-1 9.8z" transform="translate(.4 .4)"/><path fill="#6f5d10" d="m33.3 203.9-.2-.1q-1.1-1.2-1.5-2l-.3-1q-.2.8-1.2 1.4-.8-.2-1.4-1l3-3 .7.1 4-6.2.8-.7.1 1-.9 2.2.8.1 1.1-2.2.6-2.9-.2.3 5-9.3.6-.4.1-1.7 1.4-1.8 1.9-5.1 1-.6.6 1 .3.3-1 .9-.2 8.2-4.7 3.8-1.4 2.6q-1.1 3.2-3.3 5.8zm3.3-11-1 2.3zm9.8-16.2.7-.5.3 1.8h.4l-.3-3.2zm-2.4 6.5 3.4-2.3-.9-.7-3 2.3z"/><path fill="#b9931f" d="m28.8 201.2-.4-.6q10.5-13 15.2-21.4l.1-1.1.7-.7q1.6-3.2 2.3-5.7.2-1 1.4-2l.6 1.3-1 .6-2 5-1.3 1.9-.1 1.7-.6.4-5 9.3.2-.3-.6 2.9-1.1 2.2-.8-.1 1-2.2-.2-1-.8.7-4 6.2-.7-.2zM48.5 165l.9-3.1.6-7.6.1-1v-.6q.1-6.5-3.6-13.4l.3-.4 2.3 4.7.4-.4 2.4 6.6.4 4.1-.9.6h-.1l.1 5.4 1 .3-1.7 5zm6.5-24q1.3-4.4 1.7-8.3l.1-1.8v-.2l1-.5h.4l-2 10.4h-.7zm1.4-17v-7.2l.4-.4.7.2-.7.8.2 6.9zm-1.1-17.1-2.9-19.5h.9l.8 5.3h-.5l1.8 10.4.7 1 .4 2.2zm10.9-21.2 1.7-1.2.2-.2.1-.4.1-.2 1.1-3.6.4.1-.5 2.1.3 1.7-2.3 2.2-.5-.5zm-19.7 91 1.1-1.8.3 3.2h-.4l-.3-1.7zm-2.4 6.5-.5-.7 3-2.2.9.6z"/><path fill="#b3872c" d="m48.2 169.8.7-1 1.3 2.1 2.6.8-.5 1.1-2.7-.6-.2-.2-.7-1z"/><path fill="#7d6912" d="M48.4 165.2v-.3l2.2.2 1.7-5-1-.2-.1-5.4.1-.1.9-.6-.4-4.1-2.4-6.6-.4.4-2.3-4.7.1-.2.2-.3 1.9 3.7.5-.4 4 9.6-.5.3.3 7.4.7.1h.1l.1 3-1.3 4.9-2.4-.3z"/><path fill="#46350b" d="M53.7 156.2h2.2l.3 3.1-.8 2-.8-.1-.1-2.7-.7-.2z"/><path fill="#563e10" d="M50.2 77.3Q48.6 74 46.7 72l1 .1 3.6 4.4 2.7 6.9-.2.1-.4.1-.2-.7-1.4-3.4-.6-1.4-.6-1.1zM38 60l.3.1 2.6.9 1.3.1h.5l1 .5 2.7-.4-.2-1.7-2-3.6h-.7L41.8 52l.1-.1 2.3 3 .4.6 1.2.1.1.1 2.4 5.6-3.3.6-.6.8-1.3-.4-3.9.6-2.3-1.1-.1.5-5.4-1.4-.7-1.1-3-1.2.4-.7.2-.4-1.3-1 5.7 3.3.3.4 4 .6zm5.9-6.9-.4-3.3 1.6-.5 1.1 4.7-.9.1z"/><path fill="#3d3109" d="m46.7 72-.4-.3-.4-.5-2-.8-4.4-1.6L37 68q-4-1.2-8.2-2l-.9-.4-4.5-1 .6-.8.4-.6 3.2 1.1.3.1.8-1.2.4-.5-.5-2.4-.9-.2-.6-.2.6-1.3 3 1.2.7 1 5.3 1.5.2-.5 2.3 1.1 3.9-.6 1.3.4.6-.8 3.3-.6-2.4-5.6h-.1l-1.2-.2-.5-.6-2.1-3 .8-.5 1.2 2.1V53l1.4 1 1-.1-1.1-4.7.4-.1.6 1.2 2.2 4.9v-5.5l2.4-.4.5 1 2.9 5.3 1-.5.2-.1-.6 2.6 3.4 10 .3.2 1.6 5.8L60 75h-.1l.1 4.5-.5.2H59l.1-.6.1-.8-.3-2.2-1 .2.3 1.6-1.9.6-.4.2-1.6-3.8-.4-1-1 .3-.4-.8-.7.5q1 2.3 1.6 5.1l.5 3.4.1 1-2.7-6.9-3.5-4.4zm-15.9-6.7-3-1zm5.2-.6.2-.7-4.6-1.1-.1.4zm2.3.9 2.9 1 .2.8-1.5 1 6.4 2 3 2.1 1.1-.3-.4-.7 2.9-1.2 2.3 4 2-.2V71l-2.3-5.3h-1l-1.6-4.9-3 2.2-4 .3-.1 1.6-6.5-.3zM44.1 55l-.2-1.4z"/><path fill="#6a4e13" d="M24 63.8 18 61l-.4-1.4-2.1-1.4-.8-2.4v-.4l-2.7-10h1.7q1.3-.1 1.9-.7l.1-.1 1.3-1.5 4.7 9.5 1.9 2.6 3.1.8.3-.4 6.9 4.1 2.9-.2 1.2.4-1.1.8-4-.6-.3-.5-5.7-3.2-.4-.1.3-.4-.3.4.4.1-.4.5 1.5.9-.4.7-.6 1.3.6.1v.5l.4.4.6 2.4-.8 1h-.3.3v.1l-.3-.1-3.2-1.1zm18.8-2.6 1.7-.4.3-.2.7-.6-1.9-4h.7l2 3.6.2 1.8-2.7.3zm.8-11.3-.6-2.5V46l4 1.8 3.1-.5h.1l.4 1h1.1l1.6 2 .7-.3.6 2.5.3 1.3v.3L52 50.3l-.6.1-.5-1-2.4.4v2.4l-1.4-2-.7.2-.6-1.2-.6.1zm-3.6-15-3.5-13q1.9-2.4 4-3.1l6.5 9.4 1.5 4.1-1 2.3-4 .7zm15.5 20.3.3-.1-.2 1.9.6 2.4 1.5 5.3 3.1 8 .6 3.2 1.4 4.1h-.2l-.5.1-1.1.2-.5-5.1H60l.3-1.3-1.7-6h-.4l-3.4-10zm16.9 18 1-4.5-.4-.2.3-3.2.5-.1v-3.6l.5-.7-.1-.4h.2l.7-.1-.3 2.5.4 2.7-.5.4-.3 1.5.5.1-1.8 8-.8.9-.1 1.8q-.7-.4-1.3-1l1-3.4.4-.2zm1.6 5.5 1-4.5-.5-.5 1.5-5.5.5-.3.2-2.2-.6-2.3.1-3 .4.2.1.1-.1 2.3.2.3.5 2.3-.6 3.2-.5.5-.8 3.9.2.3-.8 4.9-.2.3z"/><path fill="#44340b" d="m62 80 .3 1-1.8-.1-.1-.7h-1v-.5l.5-.1-.1-4.5h.6l.5 5zm-8 3.5v-1l-.6-3.4q-.5-2.8-1.6-5.1l.8-.5.3.8 1-.2.4.9-.7.3.4 1.3.6 5.8.2 1.8-.4.1h-.5l-.1-.7zm2.3-4.9 1.9-.5V78l-.3-1.6 1-.2.3 2.2-2.5 1zm4.3 9.2-.6.1-1.2-.3-.5-1.2.8-3.2 1.1.1 1.1 4.4zm3.1 8.6-1.6-1.3-1.9-3.6.3-.9.4-1.7h.1l1.3-.4.2.7 1.2-.1 1.8.4 2.3-.3 2.4-2.6-.3-.7 1.2-1.1.7-3.9 1.9.5h.8l-.8 4.7-1 1.6h-.5L70.8 90l-4.6 2.8-.5.7h-.4l-1.1 1.2-.5 1.5z"/><path fill="#322906" d="m36 64.8-4.5-1.4.1-.5 4.6 1.2zm2.3.9.4-1.1 6.4.3.1-1.6 4.1-.3 3-2.2 1.6 4.9h1l2.3 5.3v3.3l-2 .1-2.3-4-2.9 1.2.4.7-1.1.3-3-2.1-6.4-2 1.5-1-.2-.8z"/><path fill="#906e22" d="m54 172.6.2-.8 1-.3.3.8z"/><path fill="none" stroke="#1a1a00" stroke-linecap="round" stroke-linejoin="round" stroke-opacity=".6" stroke-width="__RESOLUTION__" d="M79.5 8.2 79.4.4q-2.1.4-2.9 2.8l-.1.2-.2 10.6v2.5q-.3 16.9-2.6 33.4l-.5 3.8-.1.8-.4 2.4-.1 1.8v.2l.3.4.7 1m6-52.1.2 9.6-.2 1.6q-1.2 12-1 25.7-.6 3.8-.8 7.3l-.1 1.3v5.6l.1.5-.1.1-.6.4m-.1.8q-.3 1.4.7 4l-2.3 12.2-.1 1.4m-.5.5q-.3.5 0 1.7m.3.6-.1.7v.6l-.1.6q-.7 6.5-7.8 9.5h0l-.5.4-.3.3Q65 95.1 65 97.5m0 .3.2 1 .7 6.9q0 2.8-.4 6.3l-.3.4m-.3.3v.8l1.3 1m.4 0 .1 3.9.2-.2 2.8-3m.1-.2 5.4-6.9m.4-.6.6-.8 2 .9q0 2.2-1.5 4.5l-4 5.5q-2.5 3.3-5.3 7.6l-.7.9m0 .3q-.9 8.2-1.2 14.3l-.1 5.5q0 3.7.3 6.2v.2q-.1 5.9-2.4 11.8m0 .2q-1.3 1-1.6 2.3l-.2.7m0 .4q0 1.1.8 2.3m0 .2.8.9-.1.7q-3 17.8-.8 26.3m-33.8 2.2q10.5-13 15.2-21.4l.1-1.1.7-.7q1.6-3.2 2.3-5.7.2-1 1.4-2l.8-1 .4-1v-.7m-.1-.3-.1-.3-.7-1.2m0-.3.9-3.1.6-7.6.1-1v-.6q.1-6.5-3.6-13.4l.3-.4m.1-.2.2-.3m.1-.2.5-.7 1.5-1.3q.4-.4 1-.5l.5-.2m.1 0h.6l.1.2q1.4 2.4 2.3 6.6l.1 1 .1.7m.1 0 .1-.6.3-.7m.1-.2.3-1m.1-.4q1.3-4.4 1.7-8.3l.1-1.8m0-.2q.1-2.6-.2-5l-.2-1.1v-7.8l.4-.4m.6-.9.3-.7h0m-.3-.6v-.2h-.1l-.3-.2-.8-.3m0-.3-1-6.1m0-.1-2.9-19.5-1-7.6-.2-.3-1-2.2m0 0Q48.7 74 46.8 72m-.4-.4-.4-.5-2-.8-4.4-1.6L37 68q-4-1.2-8.2-2l-.9-.4-4.5-1 .6-.8-6-2.7-1.4-.6q-3.6-4.1-8.2-5.9l.9-1.4 5.5 2.7m0-.4-2.7-10-.2-.7m-.5-.4-.4-.2L8.3 40l-.6-.9q-.9-3.3-2.7-5.3l-4-3.4 1.5-2L5.2 30Q3.5 13.2.4 4.4l1.7-1.2L9.4 26l1.3-.7 3.4 10 .7 3.4.8 2.1.5 1.6m.2.6.7.2 4.7 9.5 1.9 2.6 3.1.8.3-.4 6.9 4.1 2.9-.2 1.2.4m.3.1 2.6.9 1.3.1m.5 0 1.7-.4.3-.2.7-.6-1.9-4-1.8-3.9.1-.1.9-.5 1.2 2.1m0-.4-.4-3.3-.6-2.5v-1.4q0-1.1-.5-2.2l-2.5-8.9-3.5-13q1.9-2.4 4-3.1l6.5 9.4 1.5 4.1L53 44l1 6 .6 2.4.3 1.3v.3l.4 1.3.2-.2m.4-.1-.2 1.9.5 2.4 1.5 5.3 3.1 8 .6 3.2 1.4 4.1m-.7.1.3 1m0 .2 1 5.9m.6-.2 1.1-.6m.1 0 .5-.3m.5-.2 1.7-1.3.2-.2.1-.4.1-.2 1.1-3.6.2-.7q1.4-.7 1.5-1.5l-.2-.7h-.1m0-.1-.3-.4.3-1.3q1.4-5.8 2-12.2l.7-2.4" vector-effect="non-scaling-stroke"/><path fill="none" stroke="#1a1a00" stroke-linecap="round" stroke-linejoin="round" stroke-opacity=".3" stroke-width="__RESOLUTION__" d="M77 60.3v.1l-.1.6-.4-.3m-1.3 18-.5.5M65 112.5l-.3.1-.5.3m1.9 1.5h.4m8.6-6.3.4-.6m-8.9 18.6v.3m-3.4 38v.2m-1.8 3v.4m.8 2.3v.2l-.9.9-.6.5m-12.4-6.7v-.3m5.5-21h.1m2.6-27.5.1-.2.2-.1h0l.4-.6m.4-.7-.2-.5h0v-.1h.1v.5m-1.4-1.3v-.3h.1q1.5.7 3.1.7 2 0 4.3-.7l.4-.2M50.1 77.3l.4-.2.6 1 .6 1.5 1.4 3.4.1.7.5-.1.2-.1h0v-1l-.6-3.4q-.5-2.8-1.6-5.1l.8-.5.3.8 1-.2.4.9 1.6 3.8.4-.2 1.9-.5V78l-.3-1.6 1-.2.3 2.2v.8l-.2.7.4-.2.5-.1-.1-4.5h.6l.5 5L62 80h.6v-.1m-48-24v-.4m1.5-13q0 .3.2.5m27.6 10.5V53m18.3 28 .1.2m1 5.9.6-.2m6.8-9.7V77m2.7-16.5v-.4l.3-.7 1.2-.2h.5q1.2.1 1.6 1M43.5 49.8l1.6-.5.5-.1.6 1.2 2.2 4.9v-5.5l2.4-.4.5 1 2.9 5.3 1-.5M14.4 43.4l.8-.4.8-.5m-1.6 1-.4-1.6m-2 3.6h1.7q1.3-.1 1.9-.7l.1-.1 1.3-1.5m-6.1 1q2-.1 3.6-.9m12.3 12.8-.3.3.4.1 1.3 1-.2.4-.4.7-.6 1.3.6.1 1 .4.4 2.4-.4.5-.8 1 3 1m-3.3-1h.3v.1zl-3.2-1.1-.4.5m48.3 14.6 1.7.5h1.4m.7-18.3-.8-.1m-.1 0h-.7m2.1.3-.4-.2m-5.2 16.9 1.3.9M43.9 53.4v.1l.1 1.4m16.6 32.9.8-.1.5-.2 1.4-.4h0m11.2-5.6-.8-.1-2-.5-1-.5-.4-.2h0l-.5-.5-.3-.3m5 2 .5.1m-14.4 35.6 2.6-.4 1.1-.6 1.4-1.1.5-.5m.5 4.3v-.4m0 1.3v-1m-9.3-3.3.1-.3.1-.3m-.2 1.8.4.1 1 .2m-1.4-.3-.7-.2m2.3.5 1.3.2m-9.9 49.5q1.8 1 3.5 1.6 3.9 1.2 7-.8l.8-.6m-7.4-21L54 144m12.7-17.8v-6.4m-18 51.3-.6-1.2m-12.5 25.4 1-2.2m13.8-26.4-2-1.4m1.2 7 .3.4q1.1.9 2.6 1.4l1.4.3.6-.1q3.9-.6 6.2-2.2m-8 1.3.5-1.2.5-2q-.3-.4-.3-1.1m-4.7 2 .6 1" vector-effect="non-scaling-stroke"/><path fill="none" stroke="#1a1a00" stroke-linecap="round" stroke-linejoin="round" stroke-opacity=".3" stroke-width="__RESOLUTION__" d="m75.8 47.9-.1 1.5m2.5-35v.7m-1-9.5.4-.1-.3-3.9m.3 3.9 1.2-.2-.3 5.8m-.1 1-.1 1.6m-39.4 5.8 1.4 2.3 1 1.6m-1-1.6-1.1 1.1q1.8 3.5 3.1 10.4M9.6 26.2l1.2 5.4.2 3.1 1.5 1.7.5-1.5-1.1-2M5.1 30l.4 2.4L3.8 31m10.3 17.6.2.8m1.3-4.6 2.1 4.2m-4-3.5.3 2.2m24.8-18h.6l-.2-.7m.2.6 1 3.2M42.7 62l-2-.6-2.4.1-.5-.9 2.9.8m-12.6-3.9 3.5 2.3.2.6 2.7.9m-11.6-1.1 4 1.8m-.2-2.9L22.3 58l-.6 1.5-3.2-1.7m-.6-8 1 2.3.8-.3 1.4 2.9L23 56m1.8.1.5.1.1-.5m-.1.5 1.2.1M40.4 67l-1.2-.3-.8.8-1.5.5m2.3-1.3-4.8-1.4M18.3 52.2l.6-.2m-4 .6.9 4.1.8-.2-.6-2.2m59.4-2-.3 2.8-1 .3m1.8 4.1.8-.6-.5-2.7.3-6.8m-.9.5-.1 1.2m-25 1 .9 4.1.8-.1m2-.5.4 1.4m-6.2-1.9-.2 1.8.6.6-.6 1.1v1.8m-3.6.1 2.6.1-2-4.5m3.2 11.4 2 1.1 1.5-3.2-5.1-.7v-1l4.9.1-4.5-3.1h0m-2.3 2.9-2.8-.1 1.4.6m8.3 7.3-1.4-2.8-3 1 .6 1.9m-1.7-1.4-2.4.3m3.5-.7-2.3-1m8-10.4 2.4 6.9h.4l3.5 6.7m-7.5-6.5-.2-1.6m5 9.9L54.2 67m.7-1.8h.8M71.3 86l1.7-4h1.2l-.6 1.2M50 49.6l.4 1.8m12.5 49.2-.5.1-.9.3.7 7.4 2.1-.9m-1 9.2.6.8-.2 3.9 1-3.7-.4-1.6m2.4 7.3 2.6-3.2m-5.7 3.8.1-2.6m8.8-5.3 1.2-1.8m.9-1.8.8-1.5m-16-6.5-.2-1.4.5-.2-.9-5.5m-.6 14.8v-.5M58 110l-.1-1.5h4.3m-2.9 26.3-.2 3.8h.8l-.2 4.1m-3 1.5 1.2-1.3.5-4.3h.6m-9-3 .6 2.7 1.6 4.2m-3.1-6.3 1.5 2.1m13-12.3v-1m-.2 4.3.1-1.9m-22.8 59.3-.6.8m21.2-32.4v-3.4m-6.8 10.8-1.1-.3-.7 2.5 1.8.9 2.8-6.5-.4-5.7h1l1 7.5 1.1-.1.5-3.5 1.8.2m-5.8-7.2q1-.1 1.1.8m-6.8 5 .1-3-.7.1m.2-4.4.6 2.5v1.8m8.2 20.6.8.8-1.2 4.7-.4 8.2m-.4-3.7h-1.5m-11.5-4 .1-1.2 1.6-1.2.5 2.4L43 183l-1 1.4m4.6-2.5 1 1.7m.3-5.6 1.4-.7M44 206l.6-1.7q2-5.5 3.3-12.8l.5-3.2m3.8 4.8v-.4l-.8-1.8-3.5.6m4.4 1.2.6-11.4m9-21.5-1 4.3m-6.4-18.5q1 1.7 1.3 4.3M62 96.6l.4 4.1m-1.7 100.8-.8-2.1m-29.3 3.8 1-1.4q2.1-2.3 3.6-5.3m24.7 6.3-2.5-7.7" vector-effect="non-scaling-stroke"/></g><g id="r" fill="#000" fill-opacity=".2"><path d="m46.8 3.6 4.4 1.3q5.5 3.3 6.4 7.5 0 .7-.8 1.7-.7 1 .3 2.8-1.5 3.6-6.6 6.4l-4 1-9.8 3.3-8.4.6q-4.9.2-9.7-1.3-2.5-2-7.6-3.5-5.2-1.6-7.4-4-4.3-2.9-3.4-5.6Q1 11 3.3 8.6q3.6 0 2.4-2.3Q7 4.7 9.2 3.5q2.2-1.3 5.4-1.5L24 0l7 .3 10.6.8q2.3 1.5 5 2.5"/><path d="M54.8 14q.8 2.8-3 5.6-2 2.3-6.5 3.8-4.6 1.6-6.7 3.6-4.2 1.4-8.5 1.3l-7.5-.7-8.5-3.2-3.6-1Q6 20.7 4.7 17.2q.9-1.8.2-2.8t-.7-1.6Q5 8.7 9.9 5.5l3.9-1.3q2.4-1 4.4-2.4l9.4-.9 6.1-.2 8.4 1.9Q45 2.8 47 4q1.9 1.3 3 2.8-1 2.2 2.1 2.3 2 2.3 2.8 5"/><path d="M52.8 14.3q-.8 2.4-2.6 4.5-2.9 0-1.9 2-1 1.4-2.8 2.6-1.7 1-4.3 1.3l-7.7 1.7-5.6-.2-8.5-.8q-1.9-1.2-4.1-2.1L11.7 22q-4.4-2.9-5.1-6.7 0-.6.6-1.5T7 11.5q1.2-3.2 5.2-5.6l3.3-1L23.4 2l6.8-.6Q34 1.3 38 2.6q1.9 1.7 6 3.1 4.2 1.4 6 3.5 3.5 2.6 2.8 5"/></g><g id="D"><path fill="url(#c)" d="M-10.8-71.3q1.4.2 2.4 1.4t1.1 2.5q.1 1.4-.7 2.2-.8.7-2.2.4-1.4-.4-2.4-1.5t-1.2-2.5q0-1.4.8-2.2.8-.7 2.2-.3" transform="translate(50.05 140.1)"/><path fill="#485209" fill-opacity=".5" d="M80 6.6q-.2.6-1 1.1-1 .5-2.2.5t-2-.5-.7-1.1v-.1q0-.7.9-1.2t2.2-.4 2 .4.8 1.2z"/><path fill="#485209" fill-opacity=".8" d="m76 9.5-.4.3-.8.1-.9-.1q-.2-.1-.2-.3l.3-.3.9-.2.8.2z"/><path fill="#485209" fill-opacity=".6" d="M79.7 8.6h.8l.5.2q.5.3.5.6 0 .4-.6.6l-.5.2-.9.1-1.3-.3q-.5-.2-.5-.6l.6-.6zm0 21.7 1 .2.4.4-.4.5-1.1.2h-.7l-.4-.2q-.4-.1-.3-.5l.4-.4.5-.1z"/><path fill="#485209" fill-opacity=".5" d="m80.2 32.3 1.5-.4 1.7.4q.6.4.6.9t-.8 1l-1.7.3q-1 0-1.6-.4t-.6-.9.9-.9"/><path fill="#485209" fill-opacity=".8" d="m84 30.7.3.2-.4.4h-1.2l-.2-.4.3-.2.6-.2z"/><path fill="url(#d)" d="M8.5 1.6Q8.3-1.8 9.8-9l1 .2q-.7 3.7 0 7.2 1.8-5.6 3.4-8.6l.6-.3.4.1q-2.7 8.9-2 10.4.9-2.6 1.7-3.6l.8.5Q14.6.3 16.4 1q-2.7.1-2 2-1.2-1.7-5.9-1.5" transform="translate(50.05 140.1)"/><path fill="none" stroke="#000" stroke-linecap="round" stroke-linejoin="round" stroke-opacity=".3" stroke-width="__RESOLUTION__" d="M58.6 141.7q-.3-3.4 1.3-10.5l1 .2q-.7 3.8-.1 7.2 1.9-5.6 3.5-8.7l.5-.2.5.1q-2.8 8.8-2.1 10.3 1-2.4 1.7-3.6l.8.7q-1 3.3.7 4" vector-effect="non-scaling-stroke"/><path fill="#485209" fill-opacity=".2" d="M3.7 1.5Q5.3.7 7.8.3l4.5-.2q2 .2 2.2 1.1l.1.1q.1.7-1.3 1.6-1.6.9-4.1 1.3l-4.5.1q-1.9-.3-2.3-1-.3-.9 1.3-1.8m4 4.5q.1.4-.9.9t-2.7.8l-1.7.2h-1Q0 7.7 0 7.2q-.2-.4.8-.9l1-.3 1.7-.4 2.8-.3q1.3.2 1.4.6m6-.3-1.7.1q-.7-.1-.8-.3l.5-.5 1.6-.5 1.7-.1q.8 0 .9.3t-.6.5z"/><path fill="#485209" fill-opacity=".1" d="m53.7 6.9 3.7-.8 3.7.2q1.5.5 1.5 1.2-.2.8-1.7 1.4t-3.7.8l-3.7-.2q-1.4-.4-1.4-1.1 0-.9 1.5-1.5m-1.4 5q-.6-.1-.6-.3l.7-.4 1.5-.3h1.4l.5.3q0 .3-.6.5l-1.4.2zm7.6-1.7 2.4-.4h2.4q1 .3 1 .6-.1.4-1.1.8l-.9.2-1.5.3-2.4-.2q-1-.2-.9-.5 0-.4 1-.8"/></g><g id="B"><path fill="url(#e)" d="M27 1.9Q34.1 4 41 8.2q-.3 1.8 5 3.2l.5.3 1 .8 4.2 2.8q-.2.5-2.7.4h-1l-.2-.2h-.1l-.6-.3.5.3q.7 2.8-13.4 1h-.8l-3.1-.5Q4.9 18.3.4 10.7q-.7-2.1 0-3.8l.5-.5L3.3 5q3.6-2 7-2.4l8-.3.5.1.2.2v-.1h.2Q25.3 3.8 32 6.6l1 .2 6 1.4-6-1.4-1.3-.3q-2.5-1.8-8.6-3.9l2.4.1 1.4-.2zm4.7 4.6 1.3.3-1-.2zm-7 4V7Q22.3 4.6 19 2.5q3.4 2 5.6 4.5zl-11.9 2.4zm-15-.4 3.1 2.8zl3.2-1.9zm6.9-1.2-3.7-.7zm23 2-.7-.3zl4.1.6zl4.5 2.6zm-5.1 2.4q-.6-2.9-4.4-6.6 3.8 3.7 4.4 6.6M9.6 3.3 8 3.6 4.6 6.3l-.3 1.1.3-1.1L8 3.6zm31.7 11.9q-1.2-2.7-2.5-4.5 1.3 1.8 2.5 4.5" transform="translate(.4 .4)"/><path fill="url(#f)" d="m27 1.9-.1.6-1.3.2-2.5-.1h-.3l-5.9-1.2-6.5-.1Q14.3 0 19.1 0v.1h.1q3.9.5 7.8 1.8m-7.4-1L18 .5l1-.4-1 .4z" transform="translate(.4 .4)"/><path fill="#5b6d12" d="M23.5 3q6.1 2 8.6 3.9l.3.1q-6.7-2.8-12.8-4.2h-.2l-.2-.1-.6-.1-7.9.3q-3.4.4-7 2.5l.5-.8q2.9-2 6.6-3l6.5.3 5.8 1V3zm-.4 0-3.5-.2z"/><path fill="#6f8415" d="m48.2 15.9.3.2h.9q2.5.1 2.7-.4l4.8 3.8q-9-1.5-20-1.2-1-1.1-2.2-1.4 14.1 1.8 13.4-1m-14.2 1q-1.9-.1-3.9 1.7l-21-1q-5.3-1.8-7.7-5.2l-.5-1.3q4.5 7.6 30 5.3z"/><path fill="#5c7f09" d="m19.4 2.8-.2-.1z"/><path fill="none" stroke="#000" stroke-linecap="round" stroke-linejoin="round" stroke-opacity=".5" stroke-width="__RESOLUTION__" d="m52.1 15.7-4.2-2.8-1-.8-.5-.3q-5.3-1.5-5-3.2-6.9-4.1-14-6.3Q23.5 1 19.6.5l-.2-.1q-4.7.2-8.6 1.3-3.7 1-6.5 2.9l-.6.8-2.4 1.5-.4.4Q0 9 .7 11.1l.6 1.3q2.4 3.4 7.7 5.1l21 1.1q2-1.8 3.9-1.8m18.2-1.1 4.8 3.8q-9-1.5-20-1.2-1-1.1-2.2-1.4" vector-effect="non-scaling-stroke"/><path fill="none" stroke="#000" stroke-linecap="round" stroke-linejoin="round" stroke-opacity=".3" stroke-width="__RESOLUTION__" d="m27.4 2.3-.1.6-1.4.2-2.4-.1m24.1 12.6.5.3h.1m.3.2h.9M32.4 7l1 .2m-1-.2q-6.7-2.8-12.8-4.2h-.2l-.2-.1-.6-.1-7.9.3q-3.4.4-7 2.5m15.7-2.6Q22.8 5 25 7.5l.1 3.4m14.1.2.7.3 4.5 2.6M19.6.5h-.1l-1 .4 1.4.5m-.7 1.3.2.1m.2 0 3.5.2" vector-effect="non-scaling-stroke"/><path fill="none" stroke="#000" stroke-linecap="round" stroke-linejoin="round" stroke-opacity=".2" stroke-width="__RESOLUTION__" d="m32.1 6.9 1.3.3 6 1.4m.5 2.8 4.3.5M30.4 7.1q3.8 3.7 4.4 6.6m4.4-2.7q1.2 1.8 2.5 4.5" vector-effect="non-scaling-stroke"/><path fill="none" stroke="#000" stroke-linecap="round" stroke-linejoin="round" stroke-opacity=".3" stroke-width="__RESOLUTION__" d="m25.1 10.9-11.9 2.3m0 .1-3.1-2.9" vector-effect="non-scaling-stroke"/><path fill="none" stroke="#000" stroke-linecap="round" stroke-linejoin="round" stroke-opacity=".2" stroke-width="__RESOLUTION__" d="m10 10.4 3.2-1.9" vector-effect="non-scaling-stroke"/><path fill="none" stroke="#000" stroke-linecap="round" stroke-linejoin="round" stroke-opacity=".1" stroke-width="__RESOLUTION__" d="m13.2 8.5 3.7.8" vector-effect="non-scaling-stroke"/><path fill="none" stroke="#000" stroke-linecap="round" stroke-linejoin="round" stroke-opacity=".3" stroke-width="__RESOLUTION__" d="M4.7 7.8 5 6.7l3.4-2.8 1.6-.2" vector-effect="non-scaling-stroke"/></g><g id="A"><path fill="url(#g)" d="m23.6-127-.7-1.2-3.8-2.7h-.9.9l3.8 2.7zm-2.2-3.6 2.5 1.3.4.4q.9 1 1.1 2.5-1 3.7-3.2 5l-2.6 1.3q-8.2 2.3-17.7 4.5l-1.1-.7q-3.6-3.1-6.5.9l-.1.2-13.6-.5 1.3-1.4.5-.3q1.2-1 2.1-2l2.3-2.6.4-.3q4-1.6 3.3-3.2 4.8-4 10.1-6.4 3-1.3 6.1-2.1h.1l6.6.4 1.1.7v.6h.3q3 .2 6.6 1.8M7.7-132l.4-.2 6.4-.2-6.4.3zl-.2.1q-2.3 2.2-3.5 4.5l.8 3-.8-3q1.2-2.3 3.6-4.4v-.1h-.1q-5.4 1.8-10.2 5.3-4.5 4.5-14.4 9.8 9.9-5.2 14.4-9.9 4.9-3.5 10.1-5.2h.1zm7.9 9-10.7-1.4zl1.8-2.7zm-1.3-4.2 3.1 1.5zl-3 .9zm-7.7-6 1.1-.4-1-.3 1 .3zm-6 1.3.3.5 1.1.2 5.1-1.1-5 1.1-1.2-.2zm-9.4 8q2.1-.7 4.4-1.7-2.3 1-4.4 1.6m-.1 5.2 1.1-2zm-2.7-2.9h1.2zm7.5 2q.6-3 2.3-5.5-1.7 2.5-2.4 5.5" transform="translate(22.05 134.35)"/><path fill="#697e14" d="M43.5 3.8Q39.9 2.2 36.9 2h-.4v-.6L35.4.8q4 .6 7.4 2.4zm4 4.1-.1 2q-1.1 3.2-5 5.1l-17.9 4.2-.5-.4q9.5-2.3 17.7-4.6l2.5-1.3q2.3-1.3 3.3-5M22.9 18q-3.8-2.1-6 2.1-11.4.5-16-1.1L4 17.3l-1.3 1.4 13.5.4.2-.2q2.9-4 6.5-.9"/><path fill="#516109" d="m29.8 2.3-.2.1z"/><path fill="none" stroke="#000" stroke-linecap="round" stroke-linejoin="round" stroke-opacity=".3" stroke-width="__RESOLUTION__" d="M40.3 3.4h.8L45 6.1l.7 1.3M36.5 2v-.6L35.4.8M17.7 8.7q-2.3 1-4.5 1.7m1 3.2-1.1 1.9m-1.4-2.8h-1.2m9.8-3.6q-1.7 2.5-2.4 5.5" vector-effect="non-scaling-stroke"/><path fill="none" stroke="#000" stroke-linecap="round" stroke-linejoin="round" stroke-opacity=".5" stroke-width="__RESOLUTION__" d="M47.5 7.9q-.2-1.5-1.1-2.5l-.5-.4-2.4-1.2-.7-.6Q39.4 1.4 35.4.8L28.9.3h-.1q-3.2.9-6.1 2.1-5.4 2.4-10.1 6.4.7 1.6-3.3 3.2l-.4.3L6.6 15q-1 1.1-2.2 2M24 18.8l.5.4L42.4 15q3.9-1.9 5-5V7.8M24 18.8l-1.1-.8q-3.8-2.1-6 2.1-11.4.5-16-1.1L4 17.3" vector-effect="non-scaling-stroke"/><path fill="none" stroke="#000" stroke-linecap="round" stroke-linejoin="round" stroke-opacity=".3" stroke-width="__RESOLUTION__" d="M43.5 3.8Q39.9 2.2 36.9 2h-.4l-6.4.2-.4.1-.1.1v.1Q27.2 4.6 26 6.9l.9 3M28.8.3v.1l1 .4-1.2.4m1 1.2h-.1q-5.3 1.8-10.1 5.3-4.6 4.6-14.4 9.8M29.8 2.3l-.2.1M29 2l-5 1.2-1.2-.3-.2-.5m4.2 7.5 10.7 1.5m.1 0 1.9-2.7" vector-effect="non-scaling-stroke"/><path fill="none" stroke="#000" stroke-linecap="round" stroke-linejoin="round" stroke-opacity=".2" stroke-width="__RESOLUTION__" d="m39.5 8.7-3.1-1.6" vector-effect="non-scaling-stroke"/><path fill="none" stroke="#000" stroke-linecap="round" stroke-linejoin="round" stroke-opacity=".1" stroke-width="__RESOLUTION__" d="m36.4 7.1-3 1" vector-effect="non-scaling-stroke"/><path fill="#b9e6f0" fill-opacity=".8" d="m1.4 69.1.1.2q.5 2 2.2 3.4 2.3 2 5.5 2.1 3.2 0 5.5-2 1.7-1.6 2.2-3.5V69l.1-1.1q0-2.9-2.3-5-1.6-1.4-3.7-1.7L9.7 61h-.6q-3.2 0-5.5 2t-2.3 5zm16.3-1.2q0 3.2-2.5 5.4T9 75.6t-6.1-2.2-2.5-5.5 2.5-5.4T9 60.3h.7l1.3.2q2.3.5 4.1 2 2.5 2.3 2.5 5.4"/><path fill="#9ad7ea" d="m1.4 69.4-.1-.2V68q0-2.9 2.3-5 2.3-2 5.5-1.9h.6l1.2.1q2.1.4 3.7 1.8 2.3 2.1 2.3 5l-.1 1.1v.3q-.4.5-2.2.9l-5.5.5-5.5-.5q-1.8-.4-2.2-.9m15.4-.3q-.2-.6-2.2-1L9 67.6l-2.6.1-.1-.2h-.6l-.1.3-2.1.3q-2.1.4-2.2 1 .1-.6 2.2-1l2.1-.3v-.2l.4-.2.3.1.1.2 2.6-.1 5.5.5q2 .4 2.2 1"/><path fill="#6bcae0" d="M16.8 69.4q-.6 2-2.2 3.4-2.3 2-5.5 2.1-3.2 0-5.5-2-1.7-1.6-2.2-3.5.4.5 2.2.9l5.5.5 5.5-.5q1.8-.4 2.2-.9M11 71.9q-.3-.3-.8-.3l-.7.3-.4.8q0 .5.4.8.3.3.7.3t.8-.4q.3-.2.3-.7T11 72"/><path fill="#b9e6f0" d="M11.1 71.9q.3.2.3.7t-.3.8-.8.3-.7-.4q-.4-.2-.4-.7l.4-.7.7-.4q.4 0 .8.3"/><path fill="none" stroke="#1f7c94" stroke-linecap="round" stroke-linejoin="round" stroke-opacity=".8" stroke-width="__RESOLUTION__" d="m1.4 69.4-.1-.2v-.1q.2-.6 2.3-1l2.1-.3v-.2l.4-.2.3.1.1.2 2.6-.1 5.5.5q2 .4 2.2 1v.3q-.6 2-2.2 3.4-2.3 2-5.5 2.1-3.2 0-5.5-2-1.7-1.6-2.2-3.5" vector-effect="non-scaling-stroke"/><path fill="none" stroke="#000" stroke-linecap="round" stroke-linejoin="round" stroke-opacity=".3" stroke-width="__RESOLUTION__" d="M17.6 68q0 3.1-2.5 5.3-2.5 2.3-6.1 2.3t-6.1-2.2Q.4 71 .4 67.9t2.5-5.4q2.5-2.2 6.1-2.2h.7l1.3.2q2.3.5 4.1 2 2.5 2.3 2.5 5.4" vector-effect="non-scaling-stroke"/><path fill="#d0ad22" d="m3.2 58.7.1.3.5.1q.3 0 .5-.2l.2-.5-.2-.5.6-.1 1.3.1v.4q.1.3-.4 1l-.1.1-.5.5-1.3 1-.4.2-1 .5-.5.1-.3.1q-.7.2-1 0l-.3-.3q-.2-.5.4-1.2l1.9-1.5zm-1.5 1.8v.6l.4.1.3-.2.1-.2-.1-.3-.3-.1z"/><path fill="#b7981e" d="m4.3 58 .2.4-.2.5q-.2.2-.5.2l-.5-.1-.1-.3q.7-.3 1.1-.8M.7 62h1l.3-.1.5-.2 1-.5.7 1.7-1.3.5H2v-.2l-.5-.5zm1-1.3.4-.1.3.1.1.3-.1.3-.3.1-.4-.1z"/><path fill="#8a7317" d="m3.5 61.1.4-.3 1.4-.9.4-.5.1-.1q.5-.7.5-1l.4 1 .2.7q.2.4-.3 1.1l-1.7 1.3-.7.4zm2.2.2.2-.1.2-.3-.2-.3h-.5l-.1.3.1.4z"/><path fill="#6bcae0" fill-opacity=".5" d="m6.7 59.3.8.1.2.5q0 .4-.5 1.1l-.6.6-1.4 1.1-1.6.8-.9.3H1.6l-.4-.4.2-.8.5.5v.2h1l1.3-.5.7-.4 1.7-1.3q.5-.7.4-1l-.1-.1z"/><path fill="#6bcae0" fill-opacity=".3" d="m7.7 60 1 1.8v.1q.2.4-.1.8l-1 1-1.5 1q-1 .5-1.8.7l-1 .1-.3-.1-1.4-1.7q.3.2 1.1 0l.9-.2 1.6-.8 1.4-1 .6-.7q.5-.7.5-1"/><path fill="#6d5a12" d="m5.7 61.4-.3-.1-.1-.4.1-.3h.5l.2.3-.2.3z"/><path fill="none" stroke="#000" stroke-linecap="round" stroke-linejoin="round" stroke-opacity=".3" stroke-width="__RESOLUTION__" d="M3.2 58.7h-.5l-2 1.6q-.5.8-.3 1.2l.3.3.7.8-.1.8.3.4L3 65.4m3.2-7.5-1.3-.1-.6.1m2 .4.4 1 .8.1.2.5 1 1.9m-8 0-.3-.2v-.1m5.8-3.6v.4m-4.3 5v-.2l-.5-.5" vector-effect="non-scaling-stroke"/><path fill="none" stroke="#000" stroke-linecap="round" stroke-linejoin="round" stroke-opacity=".3" stroke-width="__RESOLUTION__" d="m6.3 58.3-.1-.4m2.5 3.9q.2.4-.1.8l-1 1-1.5 1q-1 .5-1.8.7l-1 .1-.3-.1m3.7-6.2.2.8h0q.2.4-.3 1.1l-1.7 1.3-.7.4-1.3.5H2" vector-effect="non-scaling-stroke"/><path fill="#7b6615" d="M8.7 33H9l.6 1.4v.7l1 .3v-1.3l.4 1.2h.5l.3 1.6-.7.3-.4-.8v-.6h-.5l-.2-.1-.2.7.9.2v1l-.3.6.2 2.4v.3l-.9.9-2-.5-1.5-1.7v-.3h.1l.6-.3v-.4l1.6-.8h.7l.2.3h.5l-.2-.7-1.1-.5h-.1l-2.2 1.6-.4-.1.3.9h.1l.6-.3h.6l.1.6 2.1.2.3-.8-.1-.4-.5-.5h.5l-.2-.7-1.1-.5.4-1.4zm.3 9.3L8.8 44H7.6l-.2-2.4.5.6zm1.8-6.5v-.3zM9.9 38h.5v.1-.2zm-3.6 1.1v-.7z"/><path fill="#998019" d="m9 33 .4-.1.7.2.2.4.3-.2.8 1.1.1 1-.5-.1-.3-1.2h-.1v1.3l-1-.3v-.7zm.7 8.9-.5.5-.3-.1-1.2-.1-.5-.6-1.1-1.3-.2-.3-.7-1.6.7.1.3.9v.3l1.5 1.7zm-1 2.1v5.8l-1-.2-.2-5.6zm.5 17.7q.5-2.1.5-3.6l1 2.5q1.4-1.4 2.5-1.8L12 61.1l3.4-.4q-2 .7-3.6 2-1.2-.7-2.2-1zm1-28.2.3.6zm.4 2.9v.2l-1-.2.3-.7h.7zm-4.5 2.9-.3.1v.5-.5z"/><path fill="#5f4f10" d="M11.8 36.9v.6l-.3 2.1-1 1-.1-2.4.3-.6v-1.2l.4.8zm-5 2.1v-.4l1.7-.8h.7l.2.3.5.5v.4l-.2.8-2-.2h-.1l-.1-.6zm.6 0H9l.4-.9-.4.8z"/><path fill="#d0ad22" d="M8.7 49.7q0 5.2.6 12H8v-.2q0-6.2-.2-12z"/><path fill="#998019" fill-opacity="0" d="m9 61.8-1-.1.1-.2v.1z"/><path fill="none" stroke="#000" stroke-linecap="round" stroke-linejoin="round" stroke-opacity=".3" stroke-width="__RESOLUTION__" d="m9 33 .4-.1.7.2.2.4.3-.2.8 1.1.1 1M9.3 61.7v-.2q.5-2.1.5-3.6l1 2.5q1.4-1.4 2.5-1.8L12 61.1l3.4-.4q-2 .7-3.6 2-1.2-.7-2.2-1zM5.9 38.3l.3.1 2.3-1.7.1.1.4-1.4-.4-2.6h0m2 2.5V34l-.3-.6m.4 3.1v-1.2m0 1.2v1l-.3.6.2 2.4M9.4 38h.5l-.2-.7-1.1-.5m1.8 1.4V38h-.5m-2.4.9h-.6l-.6.3h-.1l-.3.1v.5M9.4 38 9 39l-1.5.1m-.2 2.5.5.6 1.1.1m-2.7-3.7.1.8" vector-effect="non-scaling-stroke"/><path fill="none" stroke="#000" stroke-linecap="round" stroke-linejoin="round" stroke-opacity=".5" stroke-width="__RESOLUTION__" d="m11.5 39.6-1 1v.3l-.8.9-.5.5-.3-.1-.2 1.7v5.8q0 5.2.6 12h0m-4-23.4.6 1.6.2.3 1.2 1.3.2 2.4m.3 5.6L7.5 44M8 61.6q0-6.3-.2-12m.2 12" vector-effect="non-scaling-stroke"/><path fill="#d0ad22" d="m1.7 65 .2-.7.3.3q3.1 0 5-2l.2-.2.6.2-.1.4-2.3 2-3.2.5z"/><path fill="#846d15" d="m1.7 65 .7.4 3.2-.5L7.9 63v-.4l-.5-.2.7-.9 1.1.3q0 1.3-2.1 2.8-2.2 1.7-3.8 1.5l-1.4-.2-.2-.7z"/><path fill="none" stroke="#000" stroke-linecap="round" stroke-linejoin="round" stroke-opacity=".3" stroke-width="__RESOLUTION__" d="M7.3 62.6q-2 2-5.1 2l-.3-.3-.2.7m0 0v.3l.2.6 1.4.2q1.6.2 3.8-1.5 2.1-1.5 2.1-2.8l-1.1-.2-.7.8" vector-effect="non-scaling-stroke"/></g><g id="z"><path fill="url(#h)" d="M22.8 2.5 34 3.8h.4Q40.3 4 45.3 0l.3 2.3-.4.8Q44 6.5 42.6 9l-5.3.3-1 1.3.4.5 1.8 3.7q-4.3 4.8-11.2 7.1-12.3 1-17.3-1.2-5-2.1-5.4-6-4 2.9-3.8-5l.1-.1q.6-1.3 1.9-2.4Q5.3 4 11 3q2.3.9 3.8 2.7l.1 1.1-.1-1.1Q13.3 3.9 11 3zq2.1 1.7 3.5 3.9-1.4-2.2-3.6-4m12.5 7.9-2.8-1.7q-1.9-.8-4-1.2 2.1.3 4 1.2zm-4.6 6.8-1.5-3.8Q26.2 9.6 20.9 8l-.5-.1-3 .4 3-.4.5.2q5.3 1.6 8.2 5.4zm8-11.7q-8.7 2-19.8 1.6-6.2.3-9.6 3.3-3.6 2.2-4.6 4.4 1-2.2 4.6-4.4 3.4-3 9.6-3.3 11.1.5 19.8-1.5M41.1 3q-.1.7-1.5 2.4 2.3.2 5.6-2.4-3.4 2.6-5.6 2.4Q41 3.8 41.1 3" transform="translate(.3 .3)"/><path fill="#4f5f0f" d="m36.9 11.4-.4-.5 1-1.3 5.3-.3q1.5-2.5 2.8-6l.2-.7q0 3-2.4 7.3l-5.6.3zm1.8 3.7.4.7q-9 9.5-21.3 7.8h-.1Q6.3 22.2 2 18q-2.8-4.2-1-7.8-.1 7.8 3.9 4.9.2 3.9 5.3 6 5 2.2 17.3 1.2 6.9-2.3 11.2-7.1"/><path fill="none" stroke="#000" stroke-linecap="round" stroke-linejoin="round" stroke-opacity=".5" stroke-width="__RESOLUTION__" d="M45.8 2.6 45.6.3q-5 4-10.9 3.8h-.3L23.1 2.8l-11.8.5Q5.6 4.4 3 7.5 1.8 8.6 1.1 9.9m35.8 1.5.9-1.2 5.5-.2.1-.1q2.4-4.3 2.4-7.3M38.7 15l-1.9-3.6.1-.1M17.8 23.6Q30 25.2 39 15.8l-.4-.7M1 10.1Q-.8 13.7 2 18q4.3 4.1 15.7 5.7h.4l-.4-.1" vector-effect="non-scaling-stroke"/><path fill="none" stroke="#000" stroke-linecap="round" stroke-linejoin="round" stroke-opacity=".2" stroke-width="__RESOLUTION__" d="M23 2.8q2.3 1.7 3.6 3.9m2.1 1q2.1.4 4 1.2l2.8 1.7M17.7 8.5l3-.4.5.2q5.3 1.6 8.2 5.4l1.6 3.7M15.2 7.1 15.1 6q-1.4-1.8-3.8-2.7m34.3 0Q42 6 39.8 5.9q1.4-1.7 1.5-2.4" vector-effect="non-scaling-stroke"/><path fill="none" stroke="#000" stroke-linecap="round" stroke-linejoin="round" stroke-opacity=".3" stroke-width="__RESOLUTION__" d="M4.9 15q1-2.2 4.6-4.4 3.4-3 9.6-3.3 11.1.5 19.8-1.5" vector-effect="non-scaling-stroke"/></g><g id="x"><path fill="url(#i)" d="M22.8 2.5 34 3.8h.4Q40.3 4 45.3 0l.3 2.3-.4.8Q44 6.5 42.6 9l-5.3.3-1 1.3.4.5 1.8 3.7q-4.3 4.8-11.2 7.1-12.3 1-17.3-1.2-5-2.1-5.4-6-4 2.9-3.8-5l.1-.1q.6-1.3 1.9-2.4Q5.3 4 11 3q2.3.9 3.8 2.7l.1 1.1-.1-1.1Q13.3 3.9 11 3zq2.1 1.7 3.5 3.9-1.4-2.2-3.6-4m12.5 7.9-2.8-1.7q-1.9-.8-4-1.2 2.1.3 4 1.2zm-4.6 6.8-1.5-3.8Q26.2 9.6 20.9 8l-.5-.1-3 .4 3-.4.5.2q5.3 1.6 8.2 5.4zm8-11.7q-8.7 2-19.8 1.6-6.2.3-9.6 3.3-3.6 2.2-4.6 4.4 1-2.2 4.6-4.4 3.4-3 9.6-3.3 11.1.5 19.8-1.5M41.1 3q-.1.7-1.5 2.4 2.3.2 5.6-2.4-3.4 2.6-5.6 2.4Q41 3.8 41.1 3" transform="translate(.3 .3)"/><path fill="#43500d" d="m36.9 11.4-.4-.5 1-1.3 5.3-.3q1.5-2.5 2.8-6l.2-.7q0 3-2.4 7.3l-5.6.3zm1.8 3.7.4.7q-9 9.5-21.3 7.8h-.1Q6.3 22.2 2 18q-2.8-4.2-1-7.8-.1 7.8 3.9 4.9.2 3.9 5.3 6 5 2.2 17.3 1.2 6.9-2.3 11.2-7.1"/><path fill="none" stroke="#000" stroke-linecap="round" stroke-linejoin="round" stroke-opacity=".5" stroke-width="__RESOLUTION__" d="M45.8 2.6 45.6.3q-5 4-10.9 3.8h-.3L23.1 2.8l-11.8.5Q5.6 4.4 3 7.5 1.8 8.6 1.1 9.9m35.8 1.5.9-1.2 5.5-.2.1-.1q2.4-4.3 2.4-7.3M38.7 15l-1.9-3.6.1-.1M17.8 23.6Q30 25.2 39 15.8l-.4-.7M1 10.1Q-.8 13.7 2 18q4.3 4.1 15.7 5.7h.4l-.4-.1" vector-effect="non-scaling-stroke"/><path fill="none" stroke="#000" stroke-linecap="round" stroke-linejoin="round" stroke-opacity=".2" stroke-width="__RESOLUTION__" d="M23 2.8q2.3 1.7 3.6 3.9m2.1 1q2.1.4 4 1.2l2.8 1.7M17.7 8.5l3-.4.5.2q5.3 1.6 8.2 5.4l1.6 3.7M15.2 7.1 15.1 6q-1.4-1.8-3.8-2.7m34.3 0Q42 6 39.8 5.9q1.4-1.7 1.5-2.4" vector-effect="non-scaling-stroke"/><path fill="none" stroke="#000" stroke-linecap="round" stroke-linejoin="round" stroke-opacity=".3" stroke-width="__RESOLUTION__" d="M4.9 15q1-2.2 4.6-4.4 3.4-3 9.6-3.3 11.1.5 19.8-1.5" vector-effect="non-scaling-stroke"/></g><g id="w"><path fill="url(#j)" d="M27 1.9Q34.1 4 41 8.2q-.3 1.8 5 3.2l.5.3 1 .8 4.2 2.8q-.2.5-2.7.4h-1l-.2-.2h-.1l-.6-.3.5.3q.7 2.8-13.4 1h-.8l-3.1-.5Q4.9 18.3.4 10.7q-.7-2.1 0-3.8l.5-.5L3.3 5q3.6-2 7-2.4l8-.3.5.1.2.2v-.1h.2Q25.3 3.8 32 6.6l1 .2 6 1.4-6-1.4-1.3-.3q-2.5-1.8-8.6-3.9l2.4.1 1.4-.2zm4.7 4.6 1.3.3-1-.2zm-7 4V7Q22.3 4.6 19 2.5q3.4 2 5.6 4.5zl-11.9 2.4zm-15-.4 3.1 2.8zl3.2-1.9zm6.9-1.2-3.7-.7zm23 2-.7-.3zl4.1.6zl4.5 2.6zm-5.1 2.4q-.6-2.9-4.4-6.6 3.8 3.7 4.4 6.6M9.6 3.3 8 3.6 4.6 6.3l-.3 1.1.3-1.1L8 3.6zm31.7 11.9q-1.2-2.7-2.5-4.5 1.3 1.8 2.5 4.5" transform="translate(.4 .4)"/><path fill="url(#k)" d="m27 1.9-.1.6-1.3.2-2.5-.1h-.3l-5.9-1.2-6.5-.1Q14.3 0 19.1 0v.1h.1q3.9.5 7.8 1.8m-7.4-1L18 .5l1-.4-1 .4z" transform="translate(.4 .4)"/><path fill="#202706" d="M23.5 3q6.1 2 8.6 3.9l.3.1q-6.7-2.8-12.8-4.2h-.2l-.2-.1-.6-.1-7.9.3q-3.4.4-7 2.5l.5-.8q2.9-2 6.6-3l6.5.3 5.8 1V3zm-.4 0-3.5-.2z"/><path fill="#272f07" d="m48.2 15.9.3.2h.9q2.5.1 2.7-.4l4.8 3.8q-9-1.5-20-1.2-1-1.1-2.2-1.4 14.1 1.8 13.4-1m-14.2 1q-1.9-.1-3.9 1.7l-21-1q-5.3-1.8-7.7-5.2l-.5-1.3q4.5 7.6 30 5.3z"/><path fill="#212d03" d="m19.4 2.8-.2-.1z"/><path fill="none" stroke="#000" stroke-linecap="round" stroke-linejoin="round" stroke-opacity=".5" stroke-width="__RESOLUTION__" d="m52.1 15.7-4.2-2.8-1-.8-.5-.3q-5.3-1.5-5-3.2-6.9-4.1-14-6.3Q23.5 1 19.6.5l-.2-.1q-4.7.2-8.6 1.3-3.7 1-6.5 2.9l-.6.8-2.4 1.5-.4.4Q0 9 .7 11.1l.6 1.3q2.4 3.4 7.7 5.1l21 1.1q2-1.8 3.9-1.8m18.2-1.1 4.8 3.8q-9-1.5-20-1.2-1-1.1-2.2-1.4" vector-effect="non-scaling-stroke"/><path fill="none" stroke="#000" stroke-linecap="round" stroke-linejoin="round" stroke-opacity=".3" stroke-width="__RESOLUTION__" d="m27.4 2.3-.1.6-1.4.2-2.4-.1m24.1 12.6.5.3h.1m.3.2h.9M32.4 7l1 .2m-1-.2q-6.7-2.8-12.8-4.2h-.2l-.2-.1-.6-.1-7.9.3q-3.4.4-7 2.5m15.7-2.6Q22.8 5 25 7.5l.1 3.4m14.1.2.7.3 4.5 2.6M19.6.5h-.1l-1 .4 1.4.5m-.7 1.3.2.1m.2 0 3.5.2" vector-effect="non-scaling-stroke"/><path fill="none" stroke="#000" stroke-linecap="round" stroke-linejoin="round" stroke-opacity=".2" stroke-width="__RESOLUTION__" d="m32.1 6.9 1.3.3 6 1.4m.5 2.8 4.3.5M30.4 7.1q3.8 3.7 4.4 6.6m4.4-2.7q1.2 1.8 2.5 4.5" vector-effect="non-scaling-stroke"/><path fill="none" stroke="#000" stroke-linecap="round" stroke-linejoin="round" stroke-opacity=".3" stroke-width="__RESOLUTION__" d="m25.1 10.9-11.9 2.3m0 .1-3.1-2.9" vector-effect="non-scaling-stroke"/><path fill="none" stroke="#000" stroke-linecap="round" stroke-linejoin="round" stroke-opacity=".2" stroke-width="__RESOLUTION__" d="m10 10.4 3.2-1.9" vector-effect="non-scaling-stroke"/><path fill="none" stroke="#000" stroke-linecap="round" stroke-linejoin="round" stroke-opacity=".1" stroke-width="__RESOLUTION__" d="m13.2 8.5 3.7.8" vector-effect="non-scaling-stroke"/><path fill="none" stroke="#000" stroke-linecap="round" stroke-linejoin="round" stroke-opacity=".3" stroke-width="__RESOLUTION__" d="M4.7 7.8 5 6.7l3.4-2.8 1.6-.2" vector-effect="non-scaling-stroke"/></g><g id="u"><path fill="url(#m)" d="M27 1.9Q34.1 4 41 8.2q-.3 1.8 5 3.2l.5.3 1 .8 4.2 2.8q-.2.5-2.7.4h-1l-.2-.2h-.1l-.6-.3.5.3q.7 2.8-13.4 1h-.8l-3.1-.5Q4.9 18.3.4 10.7q-.7-2.1 0-3.8l.5-.5L3.3 5q3.6-2 7-2.4l8-.3.5.1.2.2v-.1h.2Q25.3 3.8 32 6.6l1 .2 6 1.4-6-1.4-1.3-.3q-2.5-1.8-8.6-3.9l2.4.1 1.4-.2zm4.7 4.6 1.3.3-1-.2zm-7 4V7Q22.3 4.6 19 2.5q3.4 2 5.6 4.5zl-11.9 2.4zm-15-.4 3.1 2.8zl3.2-1.9zm6.9-1.2-3.7-.7zm23 2-.7-.3zl4.1.6zl4.5 2.6zm-5.1 2.4q-.6-2.9-4.4-6.6 3.8 3.7 4.4 6.6M9.6 3.3 8 3.6 4.6 6.3l-.3 1.1.3-1.1L8 3.6zm31.7 11.9q-1.2-2.7-2.5-4.5 1.3 1.8 2.5 4.5" transform="translate(.4 .4)"/><path fill="url(#n)" d="m27 1.9-.1.6-1.3.2-2.5-.1h-.3l-5.9-1.2-6.5-.1Q14.3 0 19.1 0v.1h.1q3.9.5 7.8 1.8m-7.4-1L18 .5l1-.4-1 .4z" transform="translate(.4 .4)"/><path fill="#2b3408" d="M23.5 3q6.1 2 8.6 3.9l.3.1q-6.7-2.8-12.8-4.2h-.2l-.2-.1-.6-.1-7.9.3q-3.4.4-7 2.5l.5-.8q2.9-2 6.6-3l6.5.3 5.8 1V3zm-.4 0-3.5-.2z"/><path fill="#353f0a" d="m48.2 15.9.3.2h.9q2.5.1 2.7-.4l4.8 3.8q-9-1.5-20-1.2-1-1.1-2.2-1.4 14.1 1.8 13.4-1m-14.2 1q-1.9-.1-3.9 1.7l-21-1q-5.3-1.8-7.7-5.2l-.5-1.3q4.5 7.6 30 5.3z"/><path fill="#2c3d04" d="m19.4 2.8-.2-.1z"/><path fill="none" stroke="#000" stroke-linecap="round" stroke-linejoin="round" stroke-opacity=".5" stroke-width="__RESOLUTION__" d="m52.1 15.7-4.2-2.8-1-.8-.5-.3q-5.3-1.5-5-3.2-6.9-4.1-14-6.3Q23.5 1 19.6.5l-.2-.1q-4.7.2-8.6 1.3-3.7 1-6.5 2.9l-.6.8-2.4 1.5-.4.4Q0 9 .7 11.1l.6 1.3q2.4 3.4 7.7 5.1l21 1.1q2-1.8 3.9-1.8m18.2-1.1 4.8 3.8q-9-1.5-20-1.2-1-1.1-2.2-1.4" vector-effect="non-scaling-stroke"/><path fill="none" stroke="#000" stroke-linecap="round" stroke-linejoin="round" stroke-opacity=".3" stroke-width="__RESOLUTION__" d="m27.4 2.3-.1.6-1.4.2-2.4-.1m24.1 12.6.5.3h.1m.3.2h.9M32.4 7l1 .2m-1-.2q-6.7-2.8-12.8-4.2h-.2l-.2-.1-.6-.1-7.9.3q-3.4.4-7 2.5m15.7-2.6Q22.8 5 25 7.5l.1 3.4m14.1.2.7.3 4.5 2.6M19.6.5h-.1l-1 .4 1.4.5m-.7 1.3.2.1m.2 0 3.5.2" vector-effect="non-scaling-stroke"/><path fill="none" stroke="#000" stroke-linecap="round" stroke-linejoin="round" stroke-opacity=".2" stroke-width="__RESOLUTION__" d="m32.1 6.9 1.3.3 6 1.4m.5 2.8 4.3.5M30.4 7.1q3.8 3.7 4.4 6.6m4.4-2.7q1.2 1.8 2.5 4.5" vector-effect="non-scaling-stroke"/><path fill="none" stroke="#000" stroke-linecap="round" stroke-linejoin="round" stroke-opacity=".3" stroke-width="__RESOLUTION__" d="m25.1 10.9-11.9 2.3m0 .1-3.1-2.9" vector-effect="non-scaling-stroke"/><path fill="none" stroke="#000" stroke-linecap="round" stroke-linejoin="round" stroke-opacity=".2" stroke-width="__RESOLUTION__" d="m10 10.4 3.2-1.9" vector-effect="non-scaling-stroke"/><path fill="none" stroke="#000" stroke-linecap="round" stroke-linejoin="round" stroke-opacity=".1" stroke-width="__RESOLUTION__" d="m13.2 8.5 3.7.8" vector-effect="non-scaling-stroke"/><path fill="none" stroke="#000" stroke-linecap="round" stroke-linejoin="round" stroke-opacity=".3" stroke-width="__RESOLUTION__" d="M4.7 7.8 5 6.7l3.4-2.8 1.6-.2" vector-effect="non-scaling-stroke"/></g><g id="t"><path fill="url(#o)" d="M22.8 2.5 34 3.8h.4Q40.3 4 45.3 0l.3 2.3-.4.8Q44 6.5 42.6 9l-5.3.3-1 1.3.4.5 1.8 3.7q-4.3 4.8-11.2 7.1-12.3 1-17.3-1.2-5-2.1-5.4-6-4 2.9-3.8-5l.1-.1q.6-1.3 1.9-2.4Q5.3 4 11 3q2.3.9 3.8 2.7l.1 1.1-.1-1.1Q13.3 3.9 11 3zq2.1 1.7 3.5 3.9-1.4-2.2-3.6-4m12.5 7.9-2.8-1.7q-1.9-.8-4-1.2 2.1.3 4 1.2zm-4.6 6.8-1.5-3.8Q26.2 9.6 20.9 8l-.5-.1-3 .4 3-.4.5.2q5.3 1.6 8.2 5.4zm8-11.7q-8.7 2-19.8 1.6-6.2.3-9.6 3.3-3.6 2.2-4.6 4.4 1-2.2 4.6-4.4 3.4-3 9.6-3.3 11.1.5 19.8-1.5M41.1 3q-.1.7-1.5 2.4 2.3.2 5.6-2.4-3.4 2.6-5.6 2.4Q41 3.8 41.1 3" transform="translate(.3 .3)"/><path fill="#2f3809" d="m36.9 11.4-.4-.5 1-1.3 5.3-.3q1.5-2.5 2.8-6l.2-.7q0 3-2.4 7.3l-5.6.3zm1.8 3.7.4.7q-9 9.5-21.3 7.8h-.1Q6.3 22.2 2 18q-2.8-4.2-1-7.8-.1 7.8 3.9 4.9.2 3.9 5.3 6 5 2.2 17.3 1.2 6.9-2.3 11.2-7.1"/><path fill="none" stroke="#000" stroke-linecap="round" stroke-linejoin="round" stroke-opacity=".5" stroke-width="__RESOLUTION__" d="M45.8 2.6 45.6.3q-5 4-10.9 3.8h-.3L23.1 2.8l-11.8.5Q5.6 4.4 3 7.5 1.8 8.6 1.1 9.9m35.8 1.5.9-1.2 5.5-.2.1-.1q2.4-4.3 2.4-7.3M38.7 15l-1.9-3.6.1-.1M17.8 23.6Q30 25.2 39 15.8l-.4-.7M1 10.1Q-.8 13.7 2 18q4.3 4.1 15.7 5.7h.4l-.4-.1" vector-effect="non-scaling-stroke"/><path fill="none" stroke="#000" stroke-linecap="round" stroke-linejoin="round" stroke-opacity=".2" stroke-width="__RESOLUTION__" d="M23 2.8q2.3 1.7 3.6 3.9m2.1 1q2.1.4 4 1.2l2.8 1.7M17.7 8.5l3-.4.5.2q5.3 1.6 8.2 5.4l1.6 3.7M15.2 7.1 15.1 6q-1.4-1.8-3.8-2.7m34.3 0Q42 6 39.8 5.9q1.4-1.7 1.5-2.4" vector-effect="non-scaling-stroke"/><path fill="none" stroke="#000" stroke-linecap="round" stroke-linejoin="round" stroke-opacity=".3" stroke-width="__RESOLUTION__" d="M4.9 15q1-2.2 4.6-4.4 3.4-3 9.6-3.3 11.1.5 19.8-1.5" vector-effect="non-scaling-stroke"/></g><linearGradient id="b" x1="-819.2" x2="819.2" gradientTransform="matrix(.01 -.02 .01 0 53.65 187.2)" gradientUnits="userSpaceOnUse" spreadMethod="pad"><stop offset="0" stop-color="#382c08" stop-opacity="1"/><stop offset="1" stop-color="#50370e" stop-opacity="1"/></linearGradient><linearGradient id="a" x1="-819.2" x2="819.2" gradientTransform="matrix(0 -.03 .01 0 55.95 143.1)" gradientUnits="userSpaceOnUse" spreadMethod="pad"><stop offset="0" stop-color="#46350b" stop-opacity="1"/><stop offset="1" stop-color="#50370e" stop-opacity="1"/></linearGradient><linearGradient id="d" x1="-819.2" x2="819.2" gradientTransform="matrix(0 -.01 0 0 12.65 -3.75)" gradientUnits="userSpaceOnUse" spreadMethod="pad"><stop offset=".4" stop-color="#485009" stop-opacity="1"/><stop offset="1" stop-color="#7dad0e" stop-opacity="1"/></linearGradient><use xlink:href="#q" id="y" width="80" height="206.1"/><use xlink:href="#r" id="v" width="57.6" height="28.3"/><clipPath id="s"><path d="M1 1h104v163H1z"/></clipPath><path id="C" fill="#485209" fill-opacity=".3" d="M-17.2-141.2q-.1.7-1.2 1.3-1.2.6-2.7.6-1.4 0-2.5-.6-1-.6-.9-1.3v-.2q0-.8 1.1-1.4t2.8-.6 2.5.6.9 1.5m-2.8 3.6.8-.8 1.6-.3 1.1.1.6.2q.7.3.6.8-.1.3-.8.7l-.6.2-1 .1-1.7-.3q-.7-.3-.6-.7m-4.6.4-.3-.4.4-.5h2l.4.5q0 .3-.4.4l-1.1.2z" transform="translate(24.95 143.4)"/></defs><g clip-path="url(#s)"><g transform="translate(52.6 152.2)"><use xlink:href="#t" width="46.1" height="24.1" transform="matrix(-.6567 0 0 .6499 22.4 -137.25)"/><use xlink:href="#u" width="57.4" height="19.9" transform="matrix(-.6004 .3551 .9341 -.0651 -37.95 -124)"/><use xlink:href="#v" width="57.6" height="28.3" transform="matrix(.5938 0 0 .5876 -19.95 -5.1)"/><use xlink:href="#w" width="57.4" height="19.9" transform="matrix(.5484 .191 -.4193 .5029 18.8 -131.15)"/><use xlink:href="#x" width="46.1" height="24.1" transform="matrix(.7816 0 0 .4932 15.25 -136.9)"/><use xlink:href="#y" width="80" height="206.1" transform="matrix(.7343 0 0 .7268 -36.65 -143.45)"/><use xlink:href="#u" width="57.4" height="19.9" transform="matrix(.7096 .1891 -.5139 .6161 -29.35 -136.6)"/><use xlink:href="#z" width="46.1" height="24.1" transform="matrix(.8819 0 0 .8728 -39.1 -151.2)"/><use xlink:href="#x" width="46.1" height="24.1" transform="matrix(-.6567 0 0 .6499 -36.15 -151.15)"/><use xlink:href="#A" width="47.8" height="75.8" transform="translate(-22.05 -134.35)"/><use xlink:href="#B" width="57.4" height="19.9" transform="matrix(.5593 .034 -.0343 .5535 20.2 -112.15)"/><use xlink:href="#C" width="9.7" height="6.7" transform="translate(-24.95 -143.4)"/><use xlink:href="#B" width="57.4" height="19.9" transform="matrix(-1.0093 .2546 .9427 1.2598 -30.7 -147.1)"/><use xlink:href="#D" width="84.3" height="143.3" transform="translate(-50.05 -140.1)"/></g></g></svg>