<svg xmlns="http://www.w3.org/2000/svg" xmlns:xlink="http://www.w3.org/1999/xlink" width="138" height="170" viewBox="0 0 138 170"><defs><linearGradient id="h" x1="-819.2" x2="819.2" gradientTransform="matrix(.01 0 0 .06 -.05 -1.7)" gradientUnits="userSpaceOnUse" spreadMethod="pad"><stop offset="0" stop-color="#d2c9b5" stop-opacity="0"/><stop offset=".5" stop-color="#fcf1c7" stop-opacity=".1"/><stop offset="1" stop-color="#000" stop-opacity="0"/></linearGradient><linearGradient id="g" x1="-819.2" x2="819.2" gradientTransform="matrix(.01 -.01 .03 .02 -4.2 -97.75)" gradientUnits="userSpaceOnUse" spreadMethod="pad"><stop offset="0" stop-color="#cecbb0" stop-opacity="1"/><stop offset="1" stop-color="#e9e7da" stop-opacity="1"/></linearGradient><linearGradient id="f" x1="-819.2" x2="819.2" gradientTransform="matrix(.01 -.01 .03 .02 -4.2 -97.75)" gradientUnits="userSpaceOnUse" spreadMethod="pad"><stop offset="0" stop-color="#bfb695" stop-opacity="1"/><stop offset="1" stop-color="#625c48" stop-opacity="1"/></linearGradient><linearGradient id="e" x1="-819.2" x2="819.2" gradientTransform="matrix(-.01 .01 -.07 -.04 51.95 55.1)" gradientUnits="userSpaceOnUse" spreadMethod="pad"><stop offset="0" stop-color="#4f4a28" stop-opacity=".8"/><stop offset="1" stop-color="#cfcf74" stop-opacity="0"/><stop offset="1" stop-color="#cfcf74" stop-opacity="0"/></linearGradient><linearGradient id="d" x1="-819.2" x2="819.2" gradientTransform="matrix(.01 -.01 .03 .02 -7.4 3.6)" gradientUnits="userSpaceOnUse" spreadMethod="pad"><stop offset="0" stop-color="#cecbb0" stop-opacity="1"/><stop offset="1" stop-color="#e9e7da" stop-opacity="1"/></linearGradient><linearGradient id="b" x1="-819.2" x2="819.2" gradientTransform="matrix(.01 -.01 .03 .02 .9 -12.9)" gradientUnits="userSpaceOnUse" spreadMethod="pad"><stop offset="0" stop-color="#a09a67" stop-opacity="1"/><stop offset="1" stop-color="#e9e7da" stop-opacity="1"/></linearGradient><g id="k" transform="translate(42.7 96.1)"><use xlink:href="#a" width="23.4" height="92.2" transform="matrix(3.24 -4.45 .11 .08 -42.7 48.4)"/><use xlink:href="#a" width="23.4" height="92.2" transform="rotate(-54 14.169 60.03)scale(5.5 .14)"/><use xlink:href="#a" width="23.4" height="92.2" transform="matrix(3.24 -4.45 .11 .08 -12.4 22.65)"/><use xlink:href="#a" width="23.4" height="92.2" transform="matrix(3.24 -4.45 .11 .08 -29.95 7.85)"/></g><g id="j"><path fill="url(#b)" d="m-44.1-13.8.3-13.4 21.9-10.3.2.4L61.1 6.4 35.8 29.9l-80-42.9v-.4l.1-.1z" transform="translate(73.9 123.2)"/><path fill="none" stroke="#000" stroke-linecap="round" stroke-linejoin="round" stroke-opacity=".3" stroke-width="1" d="M52 85.7 30.1 96l-.3 13.4m.2.3-.2.1-4 2m4-1.6 80 42.9 25.1-23.5-82.7-43.5v-.5l-.2.1m.2-.1.5-.2"/><path fill="#78734b" d="m135 146.3-26 12.9v-17.5l26-12.3z"/><path fill="none" stroke="#000" stroke-linecap="round" stroke-linejoin="round" stroke-opacity=".3" stroke-width="1" d="m135 146.3-26 12.9v-17.5l26-12.3z"/><path fill="#a39665" d="m77.8 63.9-2.9-1.5-4.8-2.7v14.5l7 3.6q-1.4 2-3.5 4L70 79.9v4.6q-3.1 3-6.5 5.2v-13l-9.9-5.5-4.6-2.4v14.5L61.6 90q-2 1.5-4.6 2.6l-3.1-1.7-4.8-2.6V95q-2.3 1.1-5.1 1.3V85.6l-9.4-5.2-5.1-2.8V92l.3.2 7.2 3.9q-3.5 1.1-7.3 1.5l-5.6-3.2v-10q2.1-27 0-58.5h.7q30.3 17.8 54.4 30.5.9 4.9-1.1 7zm15 7.4 5-5.9 9.4 6v1l-.1 5.3-.4 14.4-2.4-.2V77.5l-9.1-5zm16 38.9v.5h-.3zM106.2 99q-.5 5.8-1.2 8.8l-.3 1-.4 1V99zm-1.9 28.4.4.2-.4.8zm-40.2-21.5h-.5v-.6zM44 54.2v-9L34.6 40l-5.1-2.7v14.4l.2.2L44 59.6zm0 20.5V66l-9.6-5.2-5-2.8v14.5L44 80.3zM54 51l-4.9-2.7v14.5h.1l14.4 7.8V56.2z"/><path fill="#afa57a" d="m77.8 63.9.3-.5q2-2.1 1-7l18.7 9-5 5.8-3-1.6v8.1h-.3q-1.8 4.6-7.2 8.9l-7.1-3.9-1.6-.9q2.1-2 3.5-4l7.5 4.2V67.6zM29.7 97.6q3.8-.4 7.3-1.5l7 3.8v-3.6q2.8-.2 5.1-1.3v7.7l8 4.4-.1.2q-2.8 1.3-6.6 1.8l-.2-.2zm27.3-5q2.6-1.1 4.6-2.6l2 1.1v-1.4q3.4-2.2 6.5-5.2v9.8l.3.2 9.7 5.3-.2.4q-1.4 1.3-4.5 2l-.6-.2-4.7-2.6v4.1q-2.5 1.5-6 2.3l-.5-.6v-9z"/><path fill="#c5b58f" d="M79.2 56.4Q55 43.7 24.8 26l5-2.6q38.8 23.6 83.3 46l-.3.4v.7l-3.9 1.9-1.7-1-9.4-6zM37 96.1l-7.2-3.9 4.5-2.7 9.7 5.2v5.1zM61.6 90l-12.5-6.7v-.5l4.5-2.6 10 5.1v5.8zm15.5-12.2-7-3.6V74l4.8-3 9.7 5.3V82zm27.2 32v3.5l-12.5-6.8-2-1.1v-.3l4.7-2.7 9.8 5.1zm0-23.3v5.3l-14-7.6 4.7-2.7zm-19.7 9.9v5.7L80 99.8l-9.7-5.3 4.7-3zm0 19.8v5.4L70 113.9v-.1l4.5-2.7zm-21-10.5v4.8l-6.5-3.5-8-4.3v-.1l4.5-2.7 10 5.2zm38.7 25.9L90.1 125l4.6-2.9 9.6 5.1v5.4zM44 54.2v5.4l-14.3-7.7 4.8-3zm-9.7 15.3 9.7 5.2v5.6l-14.5-7.8v-.2zm29.3-4.2v5.3l-14.4-7.7 4.7-3z"/><path fill="url(#d)" d="m-49.8-28.8 5.6 3.2-1 .2 1-.2 20.5 11.3.1.2L23.7 12l10.9 6h.4v18l-1.7-1 1.7-.9-12-6.4-.8-3 .9 3-30-16.2L-28.1 0l-2-7.5-14.5-5-2.8 1-.2.5-.4-.2h-.9l-.8-.5zm61.3 49.3-14-7.8-4.3-1 4.4 1zM-18.3 4.9l-1.8-2.5z" transform="translate(73.9 123.2)"/><path fill="#4e472e" d="m29.8 92.2-.3-.2V77.5l5.1 2.8-.3 9.2zM49.1 95v-6.7l4.8 2.5-.3 9.2-4.5 2.7zm0-12.2v-14l4.6 2.5-.1 8.9zm21 1.7v-4.6l3.5 1.9 1.6.9-.1 8.8-4.7 3-.3-.2zM70 74V59.7l4.8 2.6v8.8zm19.7 3.7v-8.1l3 1.7 2.4 1.2-.2 9-4.7 2.8-.5-.2zm19.1-5.3 3.9-1.9q-1.5 41.8 0 86.8l-3.9 2v-18q-1.2-16.9 0-30.6zm-19.1 38 5 2.8-.1 9L90 125l-.3-.1zM70 113.8V99.4l4.7 2.6-.2 9.1zm19.7-8.7V91l4.8 2.6-.1 8.8zm-60-53.2-.2-.2V37.2l5.1 2.8-.1 9zm4.7 8.9-.1 8.7-4.8 2.8V58zm14.8 2V48.3l5 2.7-.2 9z"/><path fill="#756b47" d="M108.9 72.4v37.8l-.3.5-.4 3.3-.8 4.5q-1.1 5.1-2.7 9l-.4-.2v-9l-9.4-5.1-5.1-2.7 2-4 12.5 6.8v-3.4l.4-1 .3-1.1q.7-3 1.2-8.8l.5-6.9.4-14.4v-6.3zm0 38.3q-1.2 13.8 0 30.6h-.4l-10.8-6q2.8-.8 4.6-3.7l2 1.1v-4.4l.4-.8q1.6-3.9 2.7-9l.8-4.5.4-3.3z"/><path fill="#918559" d="m106.7 92.1-.5 6.9-1.9-.2-9.7-5.2-4.8-2.6v14.4l2 1.1-2 4v14.4l.3.1 12.2 6.7q-1.8 2.8-4.6 3.6L50.4 109q3.8-.4 6.6-1.7l.1-.2 6.5 3.5v-4.8h.5q3.5-.8 6-2.3v10.3l14.5 7.9v-14.5l-9.2-5q3.1-.7 4.5-2l.2-.4 4.5 2.4V87.8l-2.3-1.2q5.4-4.3 7.2-8.9h.3v6.4l.5.3 14 7.5z"/><path fill="url(#e)" d="m35 34.3-1.7.8-21.4 9.3L-73.9-2l23.4-10.7.5.8.2.1.8.4 16.1 8.8 4.7 2.5 21.4 11.6L23 27.8z" transform="translate(73.9 123.2)"/><path fill="#c8c4a6" d="m45.7 123.2-4.7-2.5-14.8-8.5.2-.5 2.8-1 14.5 5z"/><path fill="none" stroke="#000" stroke-linecap="round" stroke-linejoin="round" stroke-opacity=".3" stroke-width="1" d="m74.9 62.4 2.9 1.5 6.8 3.7v8.7l-9.7-5.2zl-4.8-2.7v14.5l7 3.6 7.5 4.2v-5.7m-5.4-19.9Q55 43.7 24.8 26l5-2.6q38.8 23.6 83.3 46l1 .5-1.3.6-3.9 1.9v38.3q-1.2 13.8 0 30.6v17.9l3.9-1.9q-1.5-45 0-86.8v-.7M24.1 26q2.1 31.5 0 58.5v10l5.6 3.2L50.2 109M37 96.1l-7.2-3.9-.3-.2V77.5l5.1 2.8 9.4 5.2v14.3zM49.1 95v-6.7l4.8 2.5 3 1.8 6.7 3.6v14.4l-6.5-3.5-8-4.3zm12.5-5-12.5-6.7V68.8l4.6 2.5 9.9 5.4v14.4zm8.5-5.5v-4.6l3.5 1.9 1.6.9 7.1 3.9 2.3 1.2v14.4L80 99.8l-9.7-5.3-.3-.2zm19.7-6.8v-8.1l3 1.7 2.4 1.2 9.1 5v14.4l-14-7.6-.5-.2zm8-12.3-18.6-9m28 15-9.4-6M24.8 26l-.7-.5v.4m80.2 84v3.3l-12.5-6.7-2-1.1V91l4.8 2.6 9.7 5.3zm-14.5.5 5 2.8 9.5 5.1v14.4l-2-1-12.2-6.6-.3-.2zm19.1-38-1.7-1m-12 1.1-.2 9 9.3 5.1m-14-2.2 4.7-2.8m-19.6 20.7 9.2 5v14.4L70 113.9V99.4l4.7 2.6zm-25 6.8 47.3 26.2 10.8 6M75.1 91.4l9.5 5m-9.5-5 .1-8.7m-.6 28.4 10 5.2m-10-5.2.2-9.1m29.5 5.5-9.8-5.2-4.7 2.8m4.9 17.1.2-9m-.5-10.9.2-8.7m12.6 64.7 1.7 1m-14.2-37.1 9.6 5.1m-14.2-2.2 4.6-2.9M34.6 40.1l9.4 5v14.5l-14.3-7.7-.2-.2V37.2zl-.1 9 9.5 5.2m-9.6 6.5-.1 8.8 9.7 5.2V66zl-5-2.8v14.3l4.9-2.8m14.9-6.6V48.3l5 2.7 9.5 5.2v14.4zl4.7-3 .2-8.9m-.2 9 9.7 5.3M44 74.7v5.6l-14.5-7.8v-.2m-5.4 12-.8-.3m2.9 28.2 14.8 8.5M25.8 112l.4.2m-2.1-.7V94.3m25-11.5 4.5-2.6.1-9M34.3 89.6l.3-9.2m-.3 9.2 9.7 5.2m5.1 8 4.5-2.7.3-9.2m-.3 9.2 10 5.2m-10-25 10 5.1m-33.8 6.9 4.5-2.7M29.7 52l4.8-3M70 113.9l4.5-2.7m-4.2-16.6 4.7-3m-5-17.5 4.8-3"/><path fill="none" stroke="#000" stroke-linecap="round" stroke-linejoin="round" stroke-opacity=".2" stroke-width="__RESOLUTION__" d="M78 63.4q2-2.1 1.2-7M29.7 97.6q3.8-.4 7.3-1.5m7 .3q2.8-.4 5-1.4m7.9-2.4q2.6-1.1 4.6-2.6m2-.3q3.4-2.2 6.5-5.2m3.5-2.7q2.1-2 3.5-4m15.8-6.5 4.9-5.9m9.4 6v1l-.1 5.3-.4 14.4-.5 6.9q-.5 5.8-1.2 8.8l-.3 1-.4 1m.4 17.7q1.6-3.9 2.7-9l.8-4.5.4-3.3.3-.5m-29-10q-1.4 1.3-4.5 2m-5.3 1.3q-2.5 1.5-6 2.3m-7.1 1.5q-2.8 1.3-6.6 1.8l-.2-.2m47.5 26.3q2.8-.7 4.6-3.5m-20-45.1q5.4-4.3 7.2-8.9m14.8 50.6.4-.8M96 148.1l.9 2.9M29.7 97.6l-1 .2m38.4 37 4.4 1 13.9 7.8m-31.6-18 1.8 2.5" vector-effect="non-scaling-stroke"/><path fill="none" stroke="#000" stroke-linecap="round" stroke-linejoin="round" stroke-opacity=".1" stroke-width="__RESOLUTION__" d="m45.7 123.2-2-7.5-14.5-5-2.8 1" vector-effect="non-scaling-stroke"/><path fill="#afa57a" d="m69.5 119.6-2.8 1.6-5.9-3.1-2-1 3.7-1.7 7.3 4z"/><path fill="#4e472e" d="m66.7 121.2 2.8-1.6v16.7l-2.8 1.4z"/><path fill="#918559" d="m58.8 117 2 1.1q.9 12.2 5.6 17.2h.3v2.4l-5.3-2.7q-1.6-3.9-2.6-10.1z"/><path fill="#a39665" d="m60.8 118.1 5.9 3v14.2h-.3q-4.7-5-5.6-17.2"/><path fill="#756b47" d="M58.8 124.9q1 6.2 2.6 10.1l-2.6-1.3z"/><path fill="none" stroke="#000" stroke-linecap="round" stroke-linejoin="round" stroke-opacity=".3" stroke-width="1" d="m66.7 121.2 2.8-1.6.3-.1-7.3-4.1-3.7 1.6 2 1.1zv16.6l2.8-1.4v-16.7M61.4 135l5.3 2.8m-5.3-2.8-2.6-1.3V117"/><path fill="none" stroke="#000" stroke-linecap="round" stroke-linejoin="round" stroke-opacity=".2" stroke-width="__RESOLUTION__" d="M66.4 135.3q-4.7-5-5.6-17.2m-2 6.8q1 6.2 2.6 10.1" vector-effect="non-scaling-stroke"/><path fill="#afa57a" d="m90.8 132.1-2.8 1.6-5.9-3.1-2-1 3.7-1.7 7.3 4z"/><path fill="#4e472e" d="m88 133.7 2.8-1.6v16.7l-2.8 1.4z"/><path fill="#918559" d="m80.1 129.6 2 1q.9 12.2 5.6 17.2h.3v2.4l-5.3-2.7q-1.6-4-2.6-10.1z"/><path fill="#a39665" d="m82.1 130.6 5.9 3v14.2h-.3q-4.7-5-5.6-17.2"/><path fill="#756b47" d="m82.7 147.5-2.6-1.3v-8.8q1 6.2 2.6 10.1"/><path fill="none" stroke="#000" stroke-linecap="round" stroke-linejoin="round" stroke-opacity=".3" stroke-width="1" d="m88 133.7 2.8-1.6.3-.2-7.3-4-3.7 1.7 2 1zv16.6l2.8-1.4V132m-8.1 15.4-2.6-1.3v-16.6m2.6 17.9 5.3 2.8"/><path fill="none" stroke="#000" stroke-linecap="round" stroke-linejoin="round" stroke-opacity=".2" stroke-width="__RESOLUTION__" d="M80.1 137.4q1 6.2 2.6 10.1m5 .3q-4.7-5-5.6-17.2" vector-effect="non-scaling-stroke"/><path fill="#918559" d="M37 113.5v-7.8l2 1q.9 12.2 5.6 17.2h.3v2.5l-5.3-2.8q-1.6-3.8-2.6-10.1"/><path fill="#afa57a" d="m37 105.7 3.7-1.7 7.3 4.1-.3.2-2.8 1.5-5.9-3.1z"/><path fill="#4e472e" d="M47.7 108.3v16.6l-2.8 1.5v-16.7z"/><path fill="#756b47" d="m39.6 123.6-2.6-1.3v-8.8q1 6.3 2.6 10.1"/><path fill="#a39665" d="m39 106.7 5.9 3V124h-.3q-4.7-5-5.6-17.2"/><path fill="none" stroke="#000" stroke-linecap="round" stroke-linejoin="round" stroke-opacity=".3" stroke-width="1" d="M37 113.5v-7.8l3.7-1.7 7.3 4.1-.3.2v16.6l-2.8 1.5-5.3-2.8-2.6-1.3zm7.9-3.7 2.8-1.5m-8.7-1.6 5.9 3v16.7M37 105.7l2 1"/><path fill="none" stroke="#000" stroke-linecap="round" stroke-linejoin="round" stroke-opacity=".2" stroke-width="__RESOLUTION__" d="M37 113.5q1 6.3 2.6 10.1m-.6-16.9q.9 12.2 5.6 17.2" vector-effect="non-scaling-stroke"/><path fill="#afa57a" d="m17.9 95 3.7-1.7 7.3 4.2-.3.2-2.8 1.5-5.9-3.1z"/><path fill="#918559" d="m17.9 95 2 1.1q.9 12.2 5.6 17.2h.3v2.5l-5.3-2.8q-1.6-3.9-2.6-10.2z"/><path fill="#a39665" d="m19.9 96.1 5.9 3v14.2h-.3q-4.7-5-5.6-17.2"/><path fill="#4e472e" d="m25.8 99.2 2.8-1.5v16.5l-2.8 1.5z"/><path fill="#756b47" d="m20.5 113-2.6-1.3v-8.9q1 6.3 2.6 10.2"/><path fill="none" stroke="#000" stroke-linecap="round" stroke-linejoin="round" stroke-opacity=".3" stroke-width="1" d="m28.6 97.7.3-.2-7.3-4.2-3.7 1.8 2 1 5.9 3zv16.5l-2.8 1.5-5.3-2.7-2.6-1.3V95m7.9 20.7V99.2"/><path fill="none" stroke="#000" stroke-linecap="round" stroke-linejoin="round" stroke-opacity=".2" stroke-width="__RESOLUTION__" d="M25.5 113.3q-4.7-5-5.6-17.2m-2 6.8q1 6.2 2.6 10" vector-effect="non-scaling-stroke"/><path fill="url(#f)" d="m-26.8-122 84.9 44.2-22.3 11.3v.5l-84.6-46.1 21.8-10.2z" transform="translate(73.9 123.2)"/><path fill="url(#g)" d="M-48.8-112.1 35.8-66l-.5 14.5-84.5-46.3v-.4l.2-.1-.2-.3.3-13.5zm79.6 57.2 4.4 3.4z" transform="translate(73.9 123.2)"/><path fill="none" stroke="#000" stroke-linecap="round" stroke-linejoin="round" stroke-opacity=".2" stroke-width="1" d="M109.7 57.2v-.5l22.2-11.3L47.1 1.3V.8h-.2L25.1 11.2zl-.5 14.5-84.5-46.3m0-.4.2-.1m-.2-.3.3-13.4.1-.1m84 60.6-4.4-3.4M47 .8l.5-.3"/><path fill="#78734b" d="m131.8 60.7-23.6 11.6V56.4l23.6-11z"/><path fill="none" stroke="#000" stroke-linecap="round" stroke-linejoin="round" stroke-opacity=".3" stroke-width="1" d="m131.8 60.7-23.6 11.6V56.4l23.6-11z"/><path fill="#afa57a" d="m30.3 17.3-5.9-3-2-1.1 3.7-1.7 7.3 4-.3.3z"/><path fill="#a39665" d="m24.4 14.3 5.9 3v14.1H30q-4.7-5-5.6-17.1"/><path fill="#4e472e" d="m30.3 17.3 2.8-1.6v16.7l-2.8 1.5z"/><path fill="#918559" d="m22.4 13.2 2 1q.9 12.2 5.6 17.2h.3v2.5L25 31q-1.6-3.9-2.6-10.1z"/><path fill="#756b47" d="m25 31.1-2.6-1.3V21q1 6.3 2.6 10.1"/><path fill="none" stroke="#000" stroke-linecap="round" stroke-linejoin="round" stroke-opacity=".3" stroke-width="1" d="m24.4 14.3 5.9 3 2.8-1.6.3-.2-7.3-4-3.7 1.7zm5.9 17.2V17.3M22.4 21v-7.8M25 31.1l5.3 2.8v-2.5m0 2.5 2.8-1.5V15.8M25 31l-2.6-1.3V21"/><path fill="none" stroke="#000" stroke-linecap="round" stroke-linejoin="round" stroke-opacity=".2" stroke-width="__RESOLUTION__" d="M24.4 14.3q.9 12.1 5.6 17.1M22.4 21q1 6.3 2.6 10.1" vector-effect="non-scaling-stroke"/><path fill="#afa57a" d="m39.5 22.9 3.6-1.6 7.3 4-.3.2-2.7 1.5-6-3z"/><path fill="#918559" d="m39.5 22.9 2 1q.9 12.2 5.6 17.3h.3v2.4L42 40.9q-1.5-3.9-2.5-10.1z"/><path fill="#a39665" d="m41.5 24 5.9 3v14.2H47Q42.4 36 41.5 24"/><path fill="#4e472e" d="m47.4 27 2.7-1.5v16.6l-2.7 1.5z"/><path fill="#756b47" d="m42 40.9-2.5-1.4v-8.7q1 6.2 2.5 10"/><path fill="none" stroke="#000" stroke-linecap="round" stroke-linejoin="round" stroke-opacity=".3" stroke-width="1" d="m50.1 25.5.3-.1-7.3-4.1-3.6 1.6 2 1 5.9 3.1zv16.6l-2.7 1.5-5.4-2.7-2.5-1.4V23m7.9 20.7V27"/><path fill="none" stroke="#000" stroke-linecap="round" stroke-linejoin="round" stroke-opacity=".2" stroke-width="__RESOLUTION__" d="M47 41.2Q42.5 36 41.6 24m-2 6.8q1 6.2 2.5 10" vector-effect="non-scaling-stroke"/><path fill="#afa57a" d="m61.6 34.8-2-1 3.7-1.6 7.3 4-.3.2-2.8 1.5z"/><path fill="#918559" d="m59.6 33.8 2 1q.9 12.2 5.6 17.3h.3v2.4l-5.3-2.7q-1.6-4-2.6-10.1z"/><path fill="#a39665" d="m61.6 34.8 5.9 3.1v14.2h-.3q-4.7-5.1-5.6-17.3"/><path fill="#4e472e" d="m67.5 37.9 2.8-1.5V53l-2.8 1.5z"/><path fill="#756b47" d="M59.6 41.7q1 6.2 2.6 10l-2.6-1.2z"/><path fill="none" stroke="#000" stroke-linecap="round" stroke-linejoin="round" stroke-opacity=".3" stroke-width="1" d="m59.6 33.8 2 1 5.9 3.1 2.8-1.5.3-.2-7.3-4zv16.7l2.6 1.3 5.3 2.7V37.9m0 16.6 2.8-1.5V36.4"/><path fill="none" stroke="#000" stroke-linecap="round" stroke-linejoin="round" stroke-opacity=".2" stroke-width="__RESOLUTION__" d="M59.6 41.7q1 6.2 2.6 10m5 .3q-4.7-5-5.6-17.2" vector-effect="non-scaling-stroke"/><path fill="#afa57a" d="m83.7 46.8-2-1 3.6-1.6 7.3 4-.3.2-2.7 1.5z"/><path fill="#918559" d="m81.7 45.8 2 1q.9 12.2 5.5 17.3h.4v2.4l-5.4-2.7q-1.5-4-2.5-10.1z"/><path fill="#a39665" d="m83.7 46.8 5.9 3v14.3h-.3q-4.7-5.1-5.6-17.3"/><path fill="#4e472e" d="m89.6 49.9 2.7-1.5V65l-2.7 1.5z"/><path fill="#756b47" d="M81.7 53.7q1 6.1 2.5 10l-2.5-1.2z"/><path fill="none" stroke="#000" stroke-linecap="round" stroke-linejoin="round" stroke-opacity=".3" stroke-width="1" d="m81.7 45.8 2 1 5.9 3 2.7-1.4.3-.2-7.3-4zv16.7l2.5 1.3 5.4 2.7V49.9m0 16.6 2.7-1.5V48.4"/><path fill="none" stroke="#000" stroke-linecap="round" stroke-linejoin="round" stroke-opacity=".2" stroke-width="__RESOLUTION__" d="M81.7 53.7q1 6.1 2.5 10m5 .4q-4.6-5.1-5.5-17.3" vector-effect="non-scaling-stroke"/></g><clipPath id="i"><path d="M1 1h136v168H1z"/></clipPath><path id="a" fill="url(#h)" d="M11.7-47.7v92.1h-23.4v-92.1z" transform="translate(11.7 47.75)"/></defs><g clip-path="url(#i)"><g transform="translate(74.9 124.2)"><use xlink:href="#j" width="135.6" height="167.6" transform="translate(-73.9 -123.2)"/><use xlink:href="#k" width="115.8" height="151.7" style="mix-blend-mode:lighten" transform="matrix(.4896 .019 0 .4917 -58.4 -94.1)"/></g></g></svg>