<svg xmlns="http://www.w3.org/2000/svg" xmlns:xlink="http://www.w3.org/1999/xlink" width="4" height="60" viewBox="0 0 4 60"><defs><radialGradient id="a" cx="0" cy="0" r="819.2" gradientTransform="matrix(.09 0 0 .09 9.55 18.65)" gradientUnits="userSpaceOnUse" spreadMethod="pad"><stop offset=".2" stop-color="#59613c"/><stop offset=".8" stop-color="#473822"/></radialGradient><clipPath id="b"><path d="M1 1h2v58H1z"/></clipPath><g id="c"><path fill="#696b54" d="M54.7 20.3q2.1 2 6.8 2.8.3 1.7 2.3 1.4 0 1.6.5 3-2.5 0-5.5-2.1-3.1-2.2-4.1-5.1m-1.7-3q.3 1.4 1.3 2.6-1.9-.6-3.3-1.8zM25.2 10l1.5.6q1.3.7 2 1.5-2.1.6-4.1.6-3.4 0-5.5-1.2.8-.6 2.3-1h.9zM1 34.8l.3-.2q2.5 4.6 8.5 8Q19.1 48 30.3 48L29 50.8l-.2.8-2.8-.2q-9-1.1-17.3-6.6-6.5-4.3-7.8-9.9"/><path fill="#797a74" d="M54.7 20.3q1 2.9 4 5 3.1 2.2 5.6 2.3.5 1.1 1.4 2.2Q62 31 56.5 31q-5 0-9.5-1.4-5-1.6-4.7-4.6.5-3.1 3.8-4.7l4.9-2.1q1.4 1.2 3.3 1.8z"/><path fill="url(#a)" d="m65.2 29.3.2.3q.4 3.6 4 6.4l2 1.3q-1.5 4.9-17 6.4l-13.1 2.1L30 47.7h-.2l.3-.5q1.6-3 1.6-6 0-8.7-24.4-8.7-3.7 0-6.6 1.7l-.3.2L0 33v-2q.1-7.6 6.4-14 4.7-4.7 10.6-7l.3-.2 3.5.4q-1.5.3-2.3.9-1 .7-1 1.7 0 2.2 7 2.2 4.1 0 4.1-1.8 0-.8-.6-1.5l2.4-1 3.5 2.7q2.9 1.5 7.9 1.5 3.3 0 6.1-.9l2 3.2.5.4-5 2.2q-3.2 1.6-3.7 4.7-.4 3.2 4.8 4.8 4.4 1.3 9.4 1.3 5.5 0 9.2-1.2" transform="translate(.5 .5)"/><path fill="#3c2f1d" d="M65.9 30q2 2.4 5.8 4.1 2.3 1 5.1 1.8.8 1.6.8 3.4v.3q-.2 3.9-3.4 4.8l-13.6 2.4-13.3 3q-8.6 1.8-15.7 1.8l-2.8-.1.2-.8 1.3-2.7h.1l11.4-1.6 13.1-2.2q15.5-1.5 17-6.5l-2-1.2q-3.6-2.7-4-6.4M53 14q-.4 1.8 0 3.3l-2 .7-.5-.5-2-3.2q-2.8 1-6.1 1-5 0-7.9-1.6L31.1 11l-2.5 1q-.6-.8-1.9-1.5l-1.6-.6q3.3-1.1 5-4.3.9 2.7 3 4.2 4.8 3.5 15.7.3.2 2.2 2.2 3.2z"/><path fill="#000" fill-opacity=".3" d="m76.9 35.9.8.4h.3l3.2 5.8q3 5.8 3 7.5 0 2-4 3.9-3.4 1.7-5.4 1.7l-2.6.5-6.1-.5-8.3-.5L46 53.5Q37.8 52 33.8 52l-2.2-.5q7 0 15.7-1.7l13.4-3 13.5-2.4q3.2-1 3.3-4.8v-.4q0-1.7-.7-3.3"/><path fill="#737568" d="M28.7 12q.6.8.6 1.6 0 1.8-4.2 1.8-7 0-7-2.2 0-1 1-1.7 2.1 1.2 5.5 1.2 2 0 4-.6"/><path fill="#7b7a77" d="M1.2 34.6q2.9-1.7 6.6-1.7 24.5 0 24.5 8.8 0 2.8-1.7 5.9l-.3.4q-11.2 0-20.6-5.4-6-3.4-8.5-8"/><path fill="none" stroke="#000" stroke-linecap="round" stroke-linejoin="round" stroke-opacity=".3" stroke-width="1" d="M64.4 27.6q-.6-1.5-.6-3.1-2 .3-2.3-1.4-4.7-.8-6.9-2.8l-.4-.4q-1-1.1-1.2-2.5-.4-1.5 0-3.3.2-1.2.8-2.6l.5-1.2m10 17.3q.5 1.1 1.4 2.2l.2.3q2 2.3 5.8 4 2.3 1 5.1 1.8l.9.4m.3 0 2.7 1M61.5 23.2q1.2-4.4 4-5.9m-1 5.4q-.5 1-.7 1.9M53 14.1l-2-.7q-2-1-2.2-3.2-10.9 3.2-15.7-.2-2.1-1.6-3-4.3-1.7 3.2-5 4.3l-2.8.6h-.9l-3.5-.3h-.3q-6 2.4-10.8 7.3-6.2 6.3-6.3 14l.1 1.9.3 1.3q1.3 5.6 7.8 9.9Q17 50.1 26 51.2l2.8.3h2.8q7 0 15.7-1.7l13.4-3 13.5-2.4q3.2-1 3.3-4.8v-.4q0-1.7-.7-3.3m-28-25.7 2.9-1M31.5.5q-.4 3-1.4 5.2m-12.2 4.6-.5-.2q-3.9-.7-8.7-2.8"/><path fill="none" stroke="#000" stroke-linecap="round" stroke-linejoin="round" stroke-opacity=".2" stroke-width="__RESOLUTION__" d="M62.5 38.8q-4.6-5.1-9.5-8m-5.2-2.2-2.2-1M48 49.3q1.9-1.5.3-4.5m14.3 1.7q3.3-2 .6-6.4M55 47.9l.9-2.6m-44.1-8q4.2-3.8 8.6-6.3M6.9 17.6q2.1-2.1 5.3-1.2M9.1 45q-2.6-3.1-.7-5.3m-3.6 1.6q-1.1-2.6 0-4M.9 27.8q.7-2 3-2.4m9.3-8.5q2-.1 4.4 1.8m31.8-6.3q-3.3 1-9.4 4.3" vector-effect="non-scaling-stroke"/></g></defs><g clip-path="url(#b)"><use xlink:href="#c" width="84.2" height="55.7" transform="matrix(-1.0025 -.1147 0 1 2.35 2.65)"/></g></svg>