<svg xmlns="http://www.w3.org/2000/svg" xmlns:xlink="http://www.w3.org/1999/xlink" width="66" height="140" viewBox="0 0 66 140"><defs><g id="o"><path fill="#faf0c0" d="M16.1 15.7V5.1L20.9.4h1.7L17.9 5H16h1.8L17 23.9l.1 22.4 1.6-10 .8-.5 1.5-1 .3.1.6.4.5.3-2.5 1.6-.4 2.2q-1.7 9-2 18l.1.5q.7 10.5 2 10.7l-2 1-2.3.7q-.7-13.2.4-25.1l.3-15.3V15.8m-3.9 54.7-1 .1-2.8-1.2-2.8-1.5Q4.1 57.5 1 47l5-3.3q-.5-7.3-1.9-14.5l-.5-2.7v-.1l-3.3-8 1.5-1.9h2.5l-1.9 2.1-2-.3 2 .3 3.2 6.2-.8.3 1.2.6L8.7 27l1.8 16.4-.3-10-.3-2.7v-.9h-.1l-.2-3.5v-.5l-.7-12.3-.1-2-3.5.9L6.9 14l2-.5-.1-2v-1.2l4-1 .9.8v1.1l1.1.8-1.1.3v-1.1 1.1l.2 18.3.7 9.3q-.8 19.9-2.5 28.8zm-.2-55v-4.9l1.7-.4-1.7.4zm5.6 12.7v-.9zm1.2 8.3 1.2.8zM9.6 25.9v.5l-.9.7L6 25.9l2.4-.5zm-3.5 6.3-1.3-7zm0 12.6v-1zl.2 4.6v.7H11v1.1l1 17.6-1-17.6V50H3.8l-1.5-2.7zM8.4 51v-.2zl2.8.1zh-1l-4.6-.2-1.9-3.9 1.9 3.9 4.6.2zm.7 4.9L7.4 51zm2.2 14.6-1.9-9.1zm-2.8-1.2Q6.6 60 2.8 50.8 6.6 60 8.4 69.3M8.8 11l3.1-.6z"/><path fill="#7a6844" d="m22.6.4-2.2 24.2-.1.7-.1.4-.3 4.8 3 1.5-1 3.3-.5-.4.6-2.3.9-.6-.9.6-2.2-1.4-.2 4.6-.8.6-1.6 9.9-.1-22.4.8-18.8zm-.1 35.2-.5 2.2q-1.2 6.8-1.7 13.5l.7 5.5 1.3 6.8q.1 2-.7 3.4-.7 1.5-2 1.6-1.2-.2-1.9-10.7v-.4q.2-9.1 1.9-18.1l.4-2.2zm-7.7-20.2 1.3.3v1l-1.3-.3zm5 15.1v.8zm-2.2-2.4v-.9zm2.7 23.1q-.2 2.3.7 5.5-.9-3.2-.7-5.5m-14-2v.7H3.8l-1.5-2.7z"/><path fill="#ad9f72" d="m15.4 70.3-4.1.2h.9l-.1-1.8q1.7-8.9 2.5-28.8l-.7-9.3 2.2-.7-.3 15.3q-1.1 11.9-.5 25m-11-53.7 1.5 4.3-.5-8.4L6.9 14l.3 10.9 1.2.4-2.4.4-1.2-.6.8-.3.7-.3.9.4q-.2-.8 0-.1v.1l-.9-.4-.7.3-3.2-6.2zm4.5-5V11zm1 18.4v.5zm-4-9 1.3 4zM6 44.7l.2 4.6-4-2zM8.4 51v-.2z"/><path fill="#615230" d="M14.8 12v4.4l1.3.4V30l-2.2.6-.2-18.3zm4.8 23.8.2-4.5 2.2 1.3-.6 2.3-.2-.1zm-4.8-19.4v7.7zm-5.9-2.9.7 12.3-1.2-.5-1.2-.4L6.9 14zm.7 12.8.2 3.5v.9l.4 2.7.3 10L8.7 27zm-2.4-1.6q-.2-.6 0 .2z"/><path fill="none" stroke="#000" stroke-linecap="round" stroke-linejoin="round" stroke-opacity=".3" stroke-width="__RESOLUTION__" d="M16.1 15.7V5.1L20.9.4h1.7l-2.2 24.2h0l-.1.7-.1.4-.3 4.8 3 1.5-1 3.3m.6.3-.5 2.2q-1.2 6.8-1.7 13.5-.2 2.3.7 5.5l1.3 6.8q.1 2-.7 3.4-.7 1.5-2 1.6-.9.6-1.9 1l-2.3.7-4.1.2h.9m-1 0-2.8-1.2-2.8-1.5Q4.1 57.5 1 47l5-3.3q-.5-7.3-1.9-14.5l-.5-2.7v-.1l-3.3-8 1.5-1.9h2.5l1.5 4.3-.5-8.4 3.5-1m0-.4v-.7l4-1 .9.8v1.1l1.1.8v3.4l1.3.3" vector-effect="non-scaling-stroke"/><path fill="none" stroke="#000" stroke-linecap="round" stroke-linejoin="round" stroke-opacity=".3" stroke-width="__RESOLUTION__" d="m22 35.3.5.3-2.5 1.6-.4 2.2q-1.7 9-2 18l.1.5q.7 10.5 2 10.7m.6-17.3.7 5.5M8.8 11.5V11zl.1 2.1.7 12.3v.5l.2 3.5v.9m6.3-15V27h0v3l-.3 15.2m2-40.1h-1.7M22.6.4 17.9 5 17 23.9l.1 22.4 1.6-10 .8-.5.2-4.5v-.8m-6.1-20.3-1.7.3v4.9m2.8 0v1l1.3.4m-2.4-4.5v-1.1m1.1.8-1.1.3.2 18.3 2.2-.7m5.3 5-.2-.1-1.6 1m3.3-3.7-.9.5-.6 2.3.6.4m-7.2-11.2v-7.7m5 14.9 2.2 1.3m-2 4.6-1.2-.9M12 68.7l.1 1.7M14.6 40l-.7-9.3m-3.4 12.8L8.7 27 6 25.7l-1.2-.6 1.3 7m2.8-18.6-2 .5.3 10.9 1.2.4 1.2.5M6.9 14l-1.6-1.6m-2.9 6.2 1.9-2.1M7 24.8l-.9-.4-.7.3-.8.3m3.9 2 .9-.8M7 24.6l-1.5-4m-3.3-2.1-2-.3m5.2 6.5-3.2-6.2m3.7 25v1.1l.2 4.6v.7H11V51l1 17.6m-6-24-3.8 2.6L3.8 50h2.5m2.1 1 2.8.1M.8 46.9l1.9 3.9 4.6.2h1m-1 0L9 55.9m.3 5.5 1.8 9.1M2.8 50.8Q6.6 60 8.4 69.3m3.5-58.8-3.1.5" vector-effect="non-scaling-stroke"/></g><g id="n"><path fill="#615230" d="M19 3.4q1.6.7 1.8 2 0 1.2-1.7 2.3t-4 1.2-4-.5q-1.8-.8-1.8-2Q9.2 5 10.9 4q1.6-1 4-1.2 2.3-.2 4 .6"/><path fill="#ad9f72" d="M19 3.4q-1.8-.8-4.1-.6-2.4.1-4 1.2T9.2 6.4q.1 1.2 1.9 2 1.7.7 4 .5 2.4-.2 4-1.2t1.6-2.3-1.7-2m-5.3 7.9-.8-.4v.3l-.6-.1h-.7q-3.3 0-4.4-1.2l-.5-2.8v-.5q.1-2.8 2.5-4.3 4-2.4 8.7-1.8 5 .2 5.5 4.8l-2.8 3.5H23q-3.6 15.4-2.2 29.5.5 5.6 1.9 11l-2 .9-2-25.7v5.4q-2 1-5 .9L13.4 14l-.4-2.7zm.2 19.5q2.9.1 4.9-.9V31l-5 .7h-2.4l.5-.9zm-2.2-20.5v.8zm5.2.6-1.2-2v17.4zm-3.9 0v-.5zM2 14.2l2.6-4.6q3.7 9 4.8 18L10.8 38l-.7-2.1Q6.9 25.2 5.4 21.2t-3.3-7m7.2 23.6q1.2 2.4.3 2.6 1.4 5.4.5 8.9l-2.1-1q1.8-5.1 1.6-7.9z"/><path fill="#bca85c" d="m12.9 11 .8.3h-.8v-.1h.4-.4z"/><path fill="#faf0c0" d="m13 11.3.3 2.7.6 16.8h-2l-.6.9h2.6l4.8-.7q-.1 10 2.1 19.4l-6.4.8-4.3-2q.9-3.4-.5-8.8.9-.2-.3-2.6l-.1-.2Q6.7 26 1.1 15.4l-.7-1.6 1.6.3L.4 14l2-4.4h2L2 14.2q1.8 3 3.3 7t4.9 14.7l.6 2-1.6-10.3q-.2-9-2-17.7 1 1.2 4.4 1.2h1.3l.4.2-.4-.1zm3.9-.5-1.2 15.4V8.9zm-5.2 15V11zm1.3-15v-.4zM12.7 48q-.2-8.3-1.5-16.3 1.3 8 1.6 16.3m-1.6-16.3"/><path fill="#7a6844" d="M18.7 29.9v-5.4l2 25.7v.2q-2.2-9.4-2-19.4zm4 19.4q-1.4-5.4-1.9-11-1.4-14.1 2.3-29.5h-2.5l2.8-3.6-.3 3.6q-.5 5.1-.4 10.1l.1 5.5 3-5.7q-2.3 5.5-2.6 12.1.7 6.7 2.1 13.4.2 2-.6 3.5t-2 1.5m-1.9-11 1-11.9 1-2-1 2zM18.6 31l2.1 19.2z"/><path fill="#6b5c3d" d="m22.8 24.4-.1-5.4 1.8-2.6 1.3 2.3z"/><path fill="none" stroke="#000" stroke-linecap="round" stroke-linejoin="round" stroke-opacity=".3" stroke-width="__RESOLUTION__" d="M19 3.4q-1.8-.8-4.1-.6-2.4.1-4 1.2T9.2 6.4q.1 1.2 1.9 2 1.7.7 4 .5 2.4-.2 4-1.2t1.6-2.3-1.7-2m-5.2 27.4q2.9.1 4.9-.9V31l2 19.2m-9-39.2v-.7m11.2 14-1 2-1 12M11.6 11v14.8M.4 13.9l1.6.3 2.5-4.6m4.6 28 .1.2q1.2 2.4.3 2.6m1.8-8.7q1.3 8 1.6 16.3M2 14.3q1.8 3 3.3 7T10.2 36l.6 2m.4-6.2.6-.9h2m-4 19.7.2-1.2" vector-effect="non-scaling-stroke"/><path fill="none" stroke="#000" stroke-linecap="round" stroke-linejoin="round" stroke-opacity=".3" stroke-width="__RESOLUTION__" d="m20.8 50.2 1.9-1q1.2 0 2-1.5t.6-3.5q-1.4-6.7-2-13.4.2-6.6 2.4-12.2l-1.2-2.2-1.8 2.6.1 5.4 3-5.7M23.4 5.2Q22.9.7 17.9.5q-4.7-.6-8.7 1.8-2.4 1.5-2.5 4.3v.5l.5 2.8q1.8 8.7 2 17.7-1-9-4.7-18h-2L.4 14l.8 1.5q5.5 10.6 7.9 22M22.7 19q0-5.1.4-10.2l.3-3.6M10 49.3l4.3 2 6.5-.8v-.2m-10.8-1-2.1-.9q1.8-5.1 1.6-7.9l-.3-2.6" vector-effect="non-scaling-stroke"/><path fill="none" stroke="#000" stroke-linecap="round" stroke-linejoin="round" stroke-opacity=".3" stroke-width="__RESOLUTION__" d="m18.7 31-5 .7h-2.5" vector-effect="non-scaling-stroke"/></g><g id="m"><path fill="#faf0c0" d="m3.3 4.1 1 1.8q1.8 3 4.2 9.9l.6 1.6.7.8v1.2l3.6 10.1.2.6q.6 2.7-1.1 2.6l-4-12.6zm6.5 15.4-.9.6h-.5.5z"/><path fill="#ad9f72" d="m10.8 32.8-1.9-9.2-1-3.6-.7-.7V18l-1-2.7Q4.4 10 1.9 4.6-.7-.7.9 1.3 0-1.6 3.4 4.1l5.1 16-.6-.1.6.1 4.1 12.6-.7.5H11z"/><path fill="none" stroke="#000" stroke-linecap="round" stroke-linejoin="round" stroke-opacity=".3" stroke-width="__RESOLUTION__" d="m3.3 4.1 1 1.8q1.8 3 4.2 9.9l.6 1.6.7.8v1.2h0l3.6 10.1.9 1 .3 1.3-.7 1.1m-3.1-.1-1.9-9.2-1-3.6-.7-.7V18l-1-2.7Q4.4 10 1.9 4.6-.7-.7.9 1.3 0-1.6 3.4 4.1m5.1 16H9l.9-.7m-1.4.7-.6-.1m4.7 12.7-.7.5H11l-.2-.4.1.7-1.3-2.9 1.2 2.2m1.7-.1q1.7.1 1.1-2.6l-.2-.6" vector-effect="non-scaling-stroke"/></g><g id="l"><path fill="#282d0c" d="M.5 6.6Q35.1-7.1 61.3 9.8 19.4 2 .5 6.5"/><path fill="none" stroke="#080803" stroke-linecap="round" stroke-linejoin="round" stroke-opacity=".3" stroke-width="1" d="M.5 6.6Q19.4 2 61.3 9.8 35-7 .5 6.5"/></g><g id="k"><path fill="url(#a)" d="M-13.2 39.3Q-14.7 7-9.6 5.3q6.5-2 14.5-3.6.6-.7-.5 13.7l-.9 5.5-6.6-.5-1.6-.1q-.2 0-.9 2.2-.8 2.6-.8 4.9 0 .9.9 2.6.8 1.6.8 2.9 0 1-1.2 2.6t-2.4 1.7q-1.5 0-3.1-.8-.8 0-1.8 2.9" transform="translate(14 -1.15)"/><path fill="#5c5623" d="M.8 38.2q1-3 1.8-3 1.6.9 3.1.9 1.1 0 2.4-1.7t1.2-2.6q0-1.3-.9-3t-.8-2.6q0-2.2.8-4.8.7-2.3 1-2.3l1.4.1 6.8.6Q14.6 33.9 2 58.6 1 47.2.8 38.1"/><path fill="none" stroke="#111207" stroke-linecap="round" stroke-linejoin="round" stroke-opacity=".3" stroke-width="1" d="m17.6 19.8.8-5.6Q19.6-.2 18.9.6 10.9 2 4.4 4.2q-5 1.6-3.6 34 .4 9 1.3 20.4Q14.6 34 17.6 19.9"/></g><g id="j"><path fill="#444813" d="m40.6 3.6.6-.4q2-1.1 3.9-1.7l2.7-.4q-2.5.6-5.1 2-1.2.7-2.4 2.2-.3-.1-1.1.4-.7.4 1.4-2.1m-9.3 18.3-1.7.8-.5.2 6-9.2 2.1-3.1-3 5.7-2.4 4.7z"/><path fill="#494f16" d="M40.6 3.6q-2.1 2.5-1.4 2t1.1-.3q1.2-1.5 2.4-2.1 2.5-1.5 5.1-2l-2.7.3q2.6-1 5.1-1Q43.9 2 39.2 12l-1.5 3-2.5 5.1-3.8 1.8.5-.9 2.4-4.7 3-5.7-2.1 3.1-6 9.2-.9.3q-5.5 2-7.1.6l-.4-.6.8-1.2 3-3.9 4.5-5Q35 6.8 40.6 3.7m-14 23.7h.6l1.1-.1-.7.9-4.5 6.8L7.3 60.1l17.4-30 .3-.5.5-.7z"/><path fill="#74743b" d="m35 20.1-1.4 2.8-2.4 4.6-2.9-.3 1.9-3.4.3-.5.8-1.4zM15.9 32.2l.2-.4 1.1-2.5q1.5-3.2 3.5-6.1l.4.6q1.6 1.4 7.1-.6l.9-.3-.5.8.5-.4q.5-.6-.2.5l-2.3 3.5-.8.2q-4.3 1-9.9 4.7"/><path fill="#576019" d="M31.2 27.5Q23 42.8.5 70.7l3.6-9.2.3-.6.2-.5 2.2-5.5 9.1-22.7q5.6-3.7 9.9-4.7l.8-.2 2.3-3.5q.7-1 .2-.6l-.5.4.5-.7.5-.2 1.7-.7-.8 1.3-.3.5-1.9 3.4-1.1.1h-.6L25.5 29l-.5.8-.3.4-17.4 30L23 34.8l4.5-6.8.7-.9z"/><path fill="none" stroke="#111207" stroke-linecap="round" stroke-linejoin="round" stroke-opacity=".3" stroke-width="1" d="M45.1 1.5q-2 .6-3.9 1.7h0l-.6.4Q35.1 6.7 29 13.2L24.5 18l-3 4-.8 1.1q-2 3-3.5 6.1l-1.1 2.6-.2.3-9.1 22.7-2.2 5.5-.2.5-.3.6-3.6 9.2Q23 42.8 31.2 27.5l2.4-4.6 1.5-2.8 2.5-5L39 12Q43.9 2 50.2.5q-2.5 0-5.1 1"/></g><g id="i"><path fill="#434a14" d="M41 13.7h.1q17.3-8 23.7-8.6l6.7-.3-6.7 2-.6.1Q55 10.4 42.6 17.5h-1.9l-.1-1.9zq7.4-4.9 19.6-9.9-2.4-1.2-4.2-3.3Q50.9 2.6 45 6.1l-1.5 2.5q-1.7 2.7-2.5 5M18.3 27.2l3.6 2q-.1 1.3-2 2.6-2.7 1.7-11.6 5.5 5.2-5.4 10-10.1"/><path fill="#393d11" d="M64.8 5q-6.4.7-23.7 8.7 7.3-4.9 19.5-9.9 1.9.9 4.2 1.2"/><path fill="#463e20" d="m41 13.7-.4 1.9.1 1.8 2 .1Q32.3 23.4 20 31.9l-.2-.2q2-1.2 2.1-2.6l-3.6-2Q32.6 13.5 45 6.1l-1.5 2.5q-1.7 2.7-2.5 5"/><path fill="#2b2e0f" d="m64.9 6.7 6.6-1.9q7.3.6 21 12.2Q70.3 5.3 64.8 6.7"/><path fill="#43381f" d="m19.8 31.7.2.2L.5 45.8l7.8-8.5v-.1q8.9-3.8 11.5-5.5"/><path fill="none" stroke="#0d0e06" stroke-linecap="round" stroke-linejoin="round" stroke-opacity=".3" stroke-width="1" d="M42.7 17.5Q55 10.3 64.2 7l.6-.3 6.7-1.9q7.3.6 21 12.2Q70.3 5.3 64.8 6.7M45 6.1q-12.5 7.5-26.7 21-4.8 4.7-10 10.1h0L.5 45.9l19.5-14q12.4-8.5 22.7-14.4M56.4.5Q50.9 2.6 45 6.1m26.5-1.3-6.7.2q-2.3-.3-4.2-1.2-2.4-1.2-4.2-3.3"/></g><g id="h"><path fill="url(#b)" d="M-13.2 39.3Q-14.7 7-9.6 5.3q6.5-2 14.5-3.6.6-.7-.5 13.7l-.9 5.5-6.6-.5-1.6-.1q-.2 0-.9 2.2-.8 2.6-.8 4.9 0 .9.9 2.6.8 1.6.8 2.9 0 1-1.2 2.6t-2.4 1.7q-1.5 0-3.1-.8-.8 0-1.8 2.9" transform="translate(14 -1.15)"/><path fill="#3e3a17" d="M.8 38.2q1-3 1.8-3 1.6.9 3.1.9 1.1 0 2.4-1.7t1.2-2.6q0-1.3-.9-3t-.8-2.6q0-2.2.8-4.8.7-2.3 1-2.3l1.4.1 6.8.6Q14.6 33.9 2 58.6 1 47.2.8 38.1"/><path fill="none" stroke="#0b0c05" stroke-linecap="round" stroke-linejoin="round" stroke-opacity=".3" stroke-width="1" d="m17.6 19.8.8-5.6Q19.6-.2 18.9.6 10.9 2 4.4 4.2q-5 1.6-3.6 34 .4 9 1.3 20.4Q14.6 34 17.6 19.9"/></g><g id="g"><path fill="#3c4211" d="M.5 6.6Q35.1-7.1 61.3 9.8 19.4 2 .5 6.5"/><path fill="none" stroke="#0c0c05" stroke-linecap="round" stroke-linejoin="round" stroke-opacity=".3" stroke-width="1" d="M.5 6.6Q19.4 2 61.3 9.8 35-7 .5 6.5"/></g><g id="f"><path fill="#30350e" d="M41 13.7h.1q17.3-8 23.7-8.6l6.7-.3-6.7 2-.6.1Q55 10.4 42.6 17.5h-1.9l-.1-1.9zq7.4-4.9 19.6-9.9-2.4-1.2-4.2-3.3Q50.9 2.6 45 6.1l-1.5 2.5q-1.7 2.7-2.5 5M18.3 27.2l3.6 2q-.1 1.3-2 2.6-2.7 1.7-11.6 5.5 5.2-5.4 10-10.1"/><path fill="#292c0c" d="M64.8 5q-6.4.7-23.7 8.7 7.3-4.9 19.5-9.9 1.9.9 4.2 1.2"/><path fill="#322c17" d="m41 13.7-.4 1.9.1 1.8 2 .1Q32.3 23.4 20 31.9l-.2-.2q2-1.2 2.1-2.6l-3.6-2Q32.6 13.5 45 6.1l-1.5 2.5q-1.7 2.7-2.5 5"/><path fill="#1e210a" d="m64.9 6.7 6.6-1.9q7.3.6 21 12.2Q70.3 5.3 64.8 6.7"/><path fill="#302816" d="m19.8 31.7.2.2L.5 45.8l7.8-8.5v-.1q8.9-3.8 11.5-5.5"/><path fill="none" stroke="#090a04" stroke-linecap="round" stroke-linejoin="round" stroke-opacity=".3" stroke-width="1" d="M42.7 17.5Q55 10.3 64.2 7l.6-.3 6.7-1.9q7.3.6 21 12.2Q70.3 5.3 64.8 6.7M45 6.1q-12.5 7.5-26.7 21-4.8 4.7-10 10.1h0L.5 45.9l19.5-14q12.4-8.5 22.7-14.4M56.4.5Q50.9 2.6 45 6.1m26.5-1.3-6.7.2q-2.3-.3-4.2-1.2-2.4-1.2-4.2-3.3"/></g><g id="c"><path fill="#615230" d="M8.6 2.8q2.3-.2 4 .6 1.8.7 1.8 2 .1 1.3-1.5 2.3T8.9 9t-4.1-.6-1.8-2Q2.9 5 4.6 4q1.6-1 4-1.2"/><path fill="#ad9f72" d="M8.6 2.8Q6.2 3 4.6 4T3 6.4q0 1.2 1.8 2 1.7.7 4 .6 2.3-.3 4-1.3t1.6-2.3-1.7-2q-1.8-.8-4.1-.6m.8 23.5 1-15.3-1-2.1zm7.7-21-2.8 3.5h2.4q-5 21.6-.3 40.5l-2 .9-2-25.7-.3 26.4-4.1.3L7 14l-.4-2.6.7-.1h.2l-.9-.3v-.5.7L6 11h-.7Q2 11 .8 9.9L.4 7.1v-.4q.1-3 2.5-4.4 4-2.4 8.7-1.8 5 .2 5.5 4.8m-11.9 5v.8z"/><path fill="#faf0c0" d="M9.4 26.3V8.9l1 2zM8 51.2l-4.3-2-2.1-.9Q4.7 28.8.9 9.9q1 1.2 4.4 1.2h1.3l.4.2-.4-.1v.2L7 14zM6.6 11v-.5zm.8.3h-.1m-2 9.4V11zm.4 16.8-2 11.8z"/><path fill="#7a6844" d="m17.1 5.3-.4 3.5h-2.4zm-.4 3.6q-1.3 18 2.3 35.4.1 2-.6 3.5-.8 1.5-2 1.5-4.7-18.8.4-40.4m-2.4 41.4-2.3.7.3-26.4z"/><path fill="#bca85c" d="m6.6 11 .9.3h-.9v-.1H7h-.4z"/><path fill="none" stroke="#000" stroke-linecap="round" stroke-linejoin="round" stroke-opacity=".3" stroke-width="__RESOLUTION__" d="M8.6 2.8Q6.2 3 4.6 4T3 6.4q0 1.2 1.8 2 1.7.7 4 .6 2.3-.3 4-1.3t1.6-2.3-1.7-2q-1.8-.8-4.1-.6m-5 46.5-.1 1.2M5.3 11v-.8m0 .8v9.6M3.7 49.3l2-11.8" vector-effect="non-scaling-stroke"/><path fill="none" stroke="#000" stroke-linecap="round" stroke-linejoin="round" stroke-opacity=".3" stroke-width="__RESOLUTION__" d="m16.8 8.8.3-3.6Q16.5.8 11.5.5 7-.1 3 2.3.5 3.8.4 6.7V7l.5 2.8q3.8 18.9.7 38.4l2 1 4.4 2 4.1-.3 2.3-.7 2-1q1.2 0 2-1.5t.6-3.5q-3.6-17.3-2.2-35.4" vector-effect="non-scaling-stroke"/></g><g id="r" transform="translate(34.4 69.3)"><use xlink:href="#c" width="19.4" height="51.5" transform="matrix(-.69 .11 .09 .85 3.6 18.9)"/><use xlink:href="#d" width="15.7" height="14.9" transform="matrix(-.48 .5 .32 1.57 5.45 36.65)"/><use xlink:href="#f" width="93" height="46.3" transform="matrix(-.23 -.02 .08 .27 18.6 -28.1)"/><use xlink:href="#g" width="61.8" height="10.3" transform="matrix(0 .32 .16 .21 1.6 -30.2)"/><use xlink:href="#h" width="19.6" height="59.1" transform="matrix(-.16 .12 .16 .28 5.05 -32.05)"/><use xlink:href="#i" width="93" height="46.3" transform="matrix(-.25 .15 .1 .34 21.5 -44.7)"/><use xlink:href="#j" width="50.8" height="71.2" transform="matrix(-.18 .12 .02 .18 9.95 -35.95)"/><use xlink:href="#k" width="19.6" height="59.1" transform="matrix(.17 -.14 .1 .16 -.15 -26.7)"/><use xlink:href="#l" width="61.8" height="10.3" transform="matrix(.18 .07 -.06 .23 4.9 -32.9)"/><use xlink:href="#f" width="93" height="46.3" transform="matrix(.1 -.2 .19 .19 -18.85 7.3)"/><use xlink:href="#g" width="61.8" height="10.3" transform="matrix(.27 .14 .09 .23 -11.75 -7.65)"/><use xlink:href="#h" width="19.6" height="59.1" transform="matrix(.18 -.08 .16 .26 -15.1 -5.7)"/><use xlink:href="#i" width="93" height="46.3" transform="matrix(.26 -.14 .24 .23 -34.4 2.3)"/><use xlink:href="#j" width="50.8" height="71.2" transform="matrix(.19 -.09 .14 .1 -21.1 -3.35)"/><use xlink:href="#k" width="19.6" height="59.1" transform="matrix(-.2 .08 .09 .15 -7.9 -7.5)"/><use xlink:href="#l" width="61.8" height="10.3" transform="matrix(-.03 .18 .23 .05 -15.8 -6.15)"/><use xlink:href="#m" width="15" height="33.8" transform="matrix(-.94 .04 -.03 .91 15.85 -6.15)"/><use xlink:href="#n" width="26.1" height="51.5" transform="matrix(-.72 .11 .1 .9 6.3 -20.55)"/><use xlink:href="#m" width="15" height="33.8" transform="matrix(-.57 .03 -.02 .6 5.3 -69.3)"/><use xlink:href="#m" width="15" height="33.8" transform="matrix(1.16 -.05 -.03 1 -19.1 -50.6)"/><use xlink:href="#o" width="23.2" height="70.8" transform="matrix(-.66 .1 .08 .79 -.3 -66.9)"/><use xlink:href="#f" width="93" height="46.3" transform="matrix(.08 -.15 .15 .14 -14.4 49.6)"/><use xlink:href="#g" width="61.8" height="10.3" transform="matrix(.21 .11 .07 .17 -8.95 38.1)"/><use xlink:href="#h" width="19.6" height="59.1" transform="matrix(.14 -.06 .12 .2 -11.55 39.65)"/><use xlink:href="#i" width="93" height="46.3" transform="matrix(.2 -.11 .19 .18 -26.4 45.7)"/><use xlink:href="#j" width="50.8" height="71.2" transform="matrix(.15 -.07 .11 .07 -16.15 41.45)"/><use xlink:href="#k" width="19.6" height="59.1" transform="matrix(-.16 .06 .07 .12 -6.05 38.2)"/><use xlink:href="#l" width="61.8" height="10.3" transform="matrix(-.03 .14 .18 .04 -12.1 39.25)"/><use xlink:href="#f" width="93" height="46.3" transform="matrix(-.09 -.14 -.14 .16 7.95 36.45)"/><use xlink:href="#g" width="61.8" height="10.3" transform="matrix(-.2 .13 -.06 .18 1.7 25.5)"/><use xlink:href="#h" width="19.6" height="59.1" transform="matrix(-.14 -.05 -.11 .21 4.45 26.75)"/><use xlink:href="#i" width="93" height="46.3" transform="matrix(-.2 -.09 -.17 .2 19.6 31.5)"/><use xlink:href="#j" width="50.8" height="71.2" transform="matrix(-.15 -.06 -.1 .08 9.05 28.15)"/><use xlink:href="#k" width="19.6" height="59.1" transform="matrix(.16 .04 -.06 .12 -1.2 25.85)"/><use xlink:href="#l" width="61.8" height="10.3" transform="matrix(.04 .13 -.17 .06 4.9 26.35)"/><use xlink:href="#f" width="93" height="46.3" transform="matrix(-.11 -.1 -.08 .17 20.05 4.1)"/><use xlink:href="#g" width="61.8" height="10.3" transform="matrix(-.14 .16 -.01 .17 12.05 -3.95)"/><use xlink:href="#h" width="19.6" height="59.1" transform="matrix(-.14 -.01 -.04 .21 14.7 -3.5)"/><use xlink:href="#i" width="93" height="46.3" transform="matrix(-.2 -.03 -.1 .21 29.1 -2.9)"/><use xlink:href="#j" width="50.8" height="71.2" transform="matrix(-.15 -.01 -.07 .1 19.1 -3.4)"/><use xlink:href="#k" width="19.6" height="59.1" transform="matrix(.15 0 -.02 .12 9.65 -2.95)"/><use xlink:href="#l" width="61.8" height="10.3" transform="matrix(.06 .11 -.14 .09 15.05 -3.95)"/></g><linearGradient id="a" x1="-819.2" x2="819.2" gradientTransform="matrix(0 -.01 .03 .01 -2.25 18)" gradientUnits="userSpaceOnUse" spreadMethod="pad"><stop offset=".5" stop-color="#61681b" stop-opacity="1"/><stop offset="1" stop-color="#474f15" stop-opacity="1"/></linearGradient><linearGradient id="b" x1="-819.2" x2="819.2" gradientTransform="matrix(0 -.01 .03 .01 -2.25 18)" gradientUnits="userSpaceOnUse" spreadMethod="pad"><stop offset=".5" stop-color="#414612" stop-opacity="1"/><stop offset="1" stop-color="#2f350e" stop-opacity="1"/></linearGradient><radialGradient id="p" cx="0" cy="0" r="819.2" gradientTransform="matrix(.01 0 0 .01 0 -.05)" gradientUnits="userSpaceOnUse" spreadMethod="pad"><stop offset="0" stop-color="#fff7aa" stop-opacity=".2"/><stop offset=".7" stop-color="#ffd" stop-opacity="0"/></radialGradient><clipPath id="q"><path d="M1 1h64v138H1z"/></clipPath><path id="d" fill="url(#p)" d="M7.9-.4q0 3-2.2 5.4Q3.5 7.3.3 7.5t-5.7-2q-2.3-2-2.4-5.1T-5.7-5t5.5-2.5 5.6 1.9T7.8-.4" transform="translate(7.85 7.5)"/></defs><g clip-path="url(#q)"><use xlink:href="#r" width="63.5" height="137.3" transform="matrix(1 0 0 1.0001 1 1)"/></g></svg>