<svg xmlns="http://www.w3.org/2000/svg" xmlns:xlink="http://www.w3.org/1999/xlink" width="108" height="277" viewBox="0 0 108 277"><defs><clipPath id="a"><path d="M1 1h106v275H1z"/></clipPath><g id="b"><path fill="#837549" d="M24.7 124.5h57.1l2.3 1.2 13.4 7.2 2.1 2.2H82.3l-5.5-2.4 1 2.3H28.9l-1.3-3-7.5 3h-14l2.3-2.5 8.9-4.4 2-1 2.8-1.4z"/><path fill="#b3a475" d="M6 135.2h14.2l7.4-3 1.3 3h48.9l-.1 6-1 3L83 139l-.6-3.8h17.3l2.1 2 2.2 8.3 1.5 5.5H.4l.7-2.5 1.7-6.3.9-3.3.4-1.6z"/><path fill="#a5935a" d="m77.8 135.2-1-2.4 5.5 2.3.6 3.8-6.2 5.3 1-3z"/><path fill="#dd6f00" d="M81.8 124.6h-57v-.1q-.6-.8 0-2.9h57q.8 1.8 0 3"/><path fill="#6b5e3f" d="M17.3 153.6h-3.7L.4 151h104.7l-12.2 2.6-4 .1z"/><path fill="#834100" d="M24.8 157.5v-.2h57v1.6h-57z"/><path fill="#4d432d" d="m24.8 157.3-7.5-3.8 71.7.1-7.2 3.5z"/><path fill="#928765" d="M24.8 159h57v24.6h-57z"/><path fill="#c6b58c" d="M81.8 183.6V275h-57v-91.4zm-57-62V12.9h57v108.7z"/><path fill="none" stroke="#000" stroke-linecap="round" stroke-linejoin="round" stroke-opacity=".3" stroke-width="__RESOLUTION__" d="m24.7 124.5-2.6 1.3m-2.8 1.4-2 1m66.8-2.4-2.3-1.2m0 0h-57m-7.4 29h-3.7L.4 151l.7-2.5m1.7-6.3.9-3.3m21 20h57m0-1.7h-57m0 .3-7.4-3.9 71.7.1h3.9l12.2-2.7H.4m103.5-5.5 1.5 5.5h-.3M89 153.7l-7.2 3.5" vector-effect="non-scaling-stroke"/><path fill="none" stroke="#de8732" stroke-linecap="round" stroke-linejoin="round" stroke-width="__RESOLUTION__" d="M81.8 121.6h-57" vector-effect="non-scaling-stroke"/><path fill="#fae8b8" d="m50.4 5.5 2.8-1.4L61 8.3l5.5 2.9.7.3-28.4.3 6.4-3.5zl2.2.5 1.9 2-1.9-2z"/><path fill="#f9f8db" d="M61 8.3 53.1 4l-2.7 1.4-5.2 2.8-5.1-2.7 4.2-2.1 7-3.5 5.5.5 9.5 4.9zm-13.3-3-3.4-1.7zm.6-.9 2 1.1z"/><path fill="#f8f7d1" d="m67.2 11.5-.7-.3-5.5-3 5.3-2.8 3.5 1.8 4.8 2.4L79 12l.8 1.3H69l.7-.3-1.5-.9zm-.7-.3 2.2-1.7 5.9.1h-6zm-27.7.6-1 .5-1.5.8.1.1h-4.3l.1-.2-2.7-2 2.8 2-.2.2h-5.4l.9-1.2 1.9-1L40 5.5l5.1 2.8zm29.9-2.3 1.1-2.3zM32.3 13l.2.2z"/><path fill="#f5d681" d="m68.2 12 1.5.8-.7.4h-3zm-30.4.3 1.6.9h-3l-.1-.1z"/><path fill="#e2c577" d="M68.2 12 66 13.2H39.4l-1.6-.8 1-.7 28.4-.2z"/><path fill="none" stroke="#000" stroke-linecap="round" stroke-linejoin="round" stroke-opacity=".3" stroke-width="1" d="M61 8.3 53.1 4l-2.7 1.4-5.2 2.8-5.1-2.7m27.1 6-.7-.4-5.5-3 5.3-2.8m2.7 7.8.7-.3-1.5-.9-1-.5m-28.4.3-1 .5-1.5.8.1.1m2.4-1.4 6.4-3.5"/><path fill="none" stroke="#000" stroke-linecap="round" stroke-linejoin="round" stroke-opacity=".2" stroke-width="__RESOLUTION__" d="m50.4 5.5 2.1.5 1.9 2M44.3 3.5l3.4 1.8m26.9 4.3h-6l-2.1 1.6m3.3-4-1.1 2.3M32 13.3l.1-.2-2.7-2m3 2.2-.2-.2m18-7.5-2-1" vector-effect="non-scaling-stroke"/><path fill="none" stroke="#000" stroke-linecap="round" stroke-linejoin="round" stroke-opacity=".3" stroke-width="__RESOLUTION__" d="M66 13.2h13.8m-40.4 0h26.7m-39.4 0h12.7m-13.9 0h1.2" vector-effect="non-scaling-stroke"/><path fill="#d2c291" d="M67.6 65.3v-4.5l1.3-1H76l1.6 1v3.7l-1.1.8zM59 77.5v4.1l-3.9 3H43v-7.1l2-1.7h11.5zm18.6 155v7h-16v-7l2.1-1.7h11.4zM57 233.8v4h-9v-4l1.1-1h6.5zM36 63.5V59l1.3-1h7.3l1.4 1v3.8l-1.1.7zm7 169.3v7.1H26.9v-7.1l2.2-1.8h11.4z"/><path fill="none" stroke="#000" stroke-linecap="round" stroke-linejoin="round" stroke-opacity=".3" stroke-width="__RESOLUTION__" d="M77.6 60.8v3.7l-1.1.8h-9M59 77.5v4.1l-3.9 3H43m34.6 147.9v7h-16m-4.6-5.7v4h-9M46 59v3.8l-1.1.7H36m7 169.3v7.1H26.9" vector-effect="non-scaling-stroke"/></g></defs><g clip-path="url(#a)"><use xlink:href="#b" width="105.8" height="275" transform="translate(1 1)"/></g></svg>