<svg xmlns="http://www.w3.org/2000/svg" xmlns:xlink="http://www.w3.org/1999/xlink" width="36" height="67" viewBox="0 0 36 67"><defs><clipPath id="a"><path d="M1 1h34v65H1z"/></clipPath><g id="b"><path fill="#fff" d="m33 15 .1-.2v.1m0 3.7v.3zM0 5.8l3.7 1.8h-.1zm29.8 14.7h-.3l-3.6-1.8v-.1l3.6 1.8zM0 5.6"/><path fill="#6b3c01" d="m33.2 15-.2 3.6v.3h.1v43.5l-3.6 1.9V20.5h.3v-4L0 1.6 3.3 0 33 15zm0 0-3.3 1.5z"/><path fill="#965e01" d="m29.5 64.3-3.6-1.9V18.7l3.6 1.7zm-25.8-13L0 49.6V5.7l3.5 1.7v43.8M0 5.7V1.5l29.8 15v3.8h-.3L26 18.7v-.1L7.3 9.3 3.7 7.5zm24 11.6"/><path fill="#6f4f28" d="M25.9 58.8 7.4 49.4h-.1V9.3l18.6 9.3zm-14.3-8.9V15.3zm3.2 2.5.1-36.5zm3.4 1v-34zm3.3 1.5V20.6z"/><path fill="#634400" d="m7.3 49.4-3.6 2v-6.7L3.5 7.5h.1l3.6 1.8z"/><path fill="none" stroke="#583c21" stroke-linecap="round" stroke-linejoin="round" stroke-width="__RESOLUTION__" d="m33 15 .1-.2v3.8h0v.3m0 43.4v.1l-3.6 1.9v-6.6M7.3 49.4l-3.6 2v-6.7M0 5.6V1.5L3.3 0h0L33 15h.1m-3.3 1.3v4h0m0 0h-.3m.3-4L0 1.6m29.8 14.9 3.2-1.6m-7 3.7h-.1L7.3 9.3 3.7 7.5M0 5.7" vector-effect="non-scaling-stroke"/><path fill="none" stroke="#583c21" stroke-linecap="round" stroke-linejoin="round" stroke-width="__RESOLUTION__" d="M33 18.6h.1V61m-3.6 3.4-3.6-1.9h0m0 0v-3.6L7.4 49.4h-.1 0m-3.6 2-3.7-2h0m.1 0V5.7H0h0l3.6 1.8h.1m25.8 12.9-3.6-1.8h0m3.6 1.8v37.2m-3.6-39v40M3.6 7.5v37.2M.1 49.4v.1M7.3 9.3v40.1" vector-effect="non-scaling-stroke"/><path fill="none" stroke="#d3c9a5" stroke-linecap="round" stroke-linejoin="round" stroke-opacity=".5" stroke-width="__RESOLUTION__" d="M11.6 15.3v34.5m3.3-34-.1 36.5m3.4-33v34m3.3-32.7v34.2" vector-effect="non-scaling-stroke"/></g></defs><g clip-path="url(#a)"><use xlink:href="#b" width="33.1" height="64.3" transform="translate(1 1)"/></g></svg>