<svg xmlns="http://www.w3.org/2000/svg" xmlns:xlink="http://www.w3.org/1999/xlink" width="90" height="56" viewBox="0 0 90 56"><defs><clipPath id="a"><path d="M1 1h88v54H1z"/></clipPath><g id="b"><path fill="#1b1510" d="m21 .4 1.4-.4 21 11.9q.3 3 2.2 7.9-4-1.1-12-6.9-5.2-4.6-5.2-5.1L23.3 6q-2-1.3-2.2-5.6m33.5 17.8.6.4Q88 37.3 87.9 37.9l-.2.4L74 42.9q-7.6-3.4-12.8-11.1Q53 22 54.6 18.2m7 28-1.8.4Q31.8 29.9 4 9.7q15.6 3.3 26 8.6l.3.6L44 26.7l-7-5.2v-.6l2.1.7.6.3 17.8 12-11.1-9.5 6.1 2.3 6.9 8.6q3.8 7.6 2.1 10.9"/><path fill="#1e1711" d="M21 .4q.4 4.3 2.3 5.6l5.1 1.8q0 .5 5.1 5.1 8.1 5.8 12.1 6.9-1.9-4.9-2.2-8l11.1 6.4Q53 22 61.2 31.8q5.2 7.7 12.8 11.1l-4 1.4-5.7-3.9 4 4-6.7 1.8q1.6-3.3-2.1-11l-6.9-8.6-6.1-2.2-3.4-2.9h-3.9v.1l-2.1-.7v-2.5l-5.1-2-7-7 5.2 8.9Q19.6 13 4 9.7L0 6.9zm4 14.2L19.8 2.9l1.6 7.4z"/><path fill="#16110e" d="m87.6 38.3-.3 3.9q-11.8 3.4-27.1 11.1Q4.8 13.5 0 12.7V6.9l4 2.8q27.8 20.2 55.7 36.9l1.8-.5 6.7-1.6-4-4.1 5.6 3.9 4.1-1.4z"/><path fill="#0b0906" d="m19.8 2.9 5.1 11.7-3.5-4.3zm19.9 19-.6-.4H43l3.4 2.9 11.1 9.5zm4.2 4.8-13.4-7.8-.4-.6-5.2-8.9 7 7 5.1 2v3.1z"/><path fill="#5c4d47" d="m39.2 21.5.5.4-.6-.3z"/><path fill="none" stroke="#010101" stroke-linecap="round" stroke-linejoin="round" stroke-opacity=".3" stroke-width="__RESOLUTION__" d="m19.8 2.9 1.6 7.4 3.6 4.3m43.2 29.9-4-4.1M39.7 21.9l17.8 12M44 26.7l-13.4-7.8-.4-.6L25 9.4" vector-effect="non-scaling-stroke"/></g></defs><g clip-path="url(#a)"><use xlink:href="#b" width="87.8" height="53.3" transform="translate(1 1)"/></g></svg>