<svg xmlns="http://www.w3.org/2000/svg" xmlns:xlink="http://www.w3.org/1999/xlink" width="152" height="159" viewBox="0 0 152 159"><defs><g id="g"><path fill="#394a41" d="m20.3 10.9-1.2-1.7 2-3.9 1.8 4.5 1.8-5.9 1.8-.1 1 3.5-2 2.5-2.7 1.3zm1.4 14-1.2-1.6 1.9-4 1.9 4.4L26 18l1.8-.2 1 3.4-2 2.6-2.7 1.3zm7.1 4.8 3.8 3-.3 5.4-2.6.4-4.6-7.8-1.2 7-4.1-5L21 30l3.4-1.3zm-13.3-1.5 3.4-1.5 1.3 1.2-2 3.1-2.9.1H15L12.3 30l-1.4-2 .1-.5-.6.2 2.6-5 .8-1.4-.9.4-6.2 2.6-1.3.5-1.9-1.9.1-.1.3-.5-.8.6-.7.3v.3l-1.6-.8 1.1-3.5 3.2-.9 1.3.2.1-.1 3.2-.1h1.8l4 1.8 2 3-.6 3-1.2.3-1 .1-1.1 2.3-.2.3h.2zM12.2 4.9l.3 4.4-.9 1.8.3.9-2.3.1v.8l-1.7.4-2-2.2-2.4-2.7h7.2l-.7-.6-6.4-5.2.8-2.5 5.5.5zm-2.8 8.9v.3h-.1zm4.2-1.4.5-1.5.7-2.2h1l.8-.1 1 3.4-1.6 2-.4.6-.4.2-.2-.5zM9.2 28.9v2L5.4 33l1-4.7L1.6 32l-1.5-.9 1.2-3.5 3.1-.9 3 .5z"/><path fill="#25312b" d="m20.3 10.9 2.4.2 2.8-1.3-.9 1 3.1-1 1.6 1.7-1.5 2-2-.2-4.3-.9zm1.4 14 2.4.3 2.7-1.3-.9 1 3.1-1 .3.3 1.7-.7 2.8 2.4-1.7 3-4.9-.4 1.6 1.2-4.4-1L21 30l1.2-2.7 1.3-.6-.6-.2zM17.4 23l-2-3-4-1.8h1.9l-.8-.6-.5-.2-.3-.1-.2-.3-.9-.6-1.5-.8.2-1.3.1-.4.1-1 .1-.8L12 12l-.3-.9 1-1.7-.4-4.5 1 1.7.3-4.8L16.8.6l1.8 3-1.3 2.8-1.5 2.2-.1.2h-.9l-.7 2.2-.5.8-.5.1h.1l.4.6 1.4 1.9.2.5.4-.2-.3.3.2.4.5-.1 1.8-.6 1.6 1.8-1.4 1.9-1-.1 1 1.9zm-7.7-4.8H6.3v.2L5 18.2l1.3-.3-3.2-1-.3-2.3 2.3-.8.3.3 1.3 1zm-7.4 5.3V23l.7-.3.5-.1v.1l1.8 1.9 1.3-.5 2.5 2.6.1 2-1.9-1.6-2.9-.4 1.3-.4-3.2-1zm8.5 4.4 1.4 2L15 31h-1.4l.1.1 1.6 1 1.1.6-.3 2.3-1 .1-1.1.1h-.3l-1.2-1.6-2-3.9z"/><path fill="#1a221d" d="m15.5 28.1-2 .8v-.2l1.1-2.2 1-.2zm-5.1-9.9h-.8l-2.9-3.1-1.3-1q-.2-1.7.5-3l2 2.2 1.6-.5-.1 1.1-.1.2v.2l-.2 1.3 1.5.8zm2.4 3.4.9-.4-.7 1.4zM15 31h.4v1l-1.6-.9zm.1 4.1v.5l-1 .1-.1-.5zm-2.6-17.6.8.6h-.8zM10 7.8l.7.6H8.8zm3.6 4.7-.4-.6.4-.1.5-.8zm2.1-3.7.1-.2zM16 14v1.2l-.5.1-.2-.4.3-.3z"/><path fill="none" stroke="#0f0b08" stroke-linecap="round" stroke-linejoin="round" stroke-opacity=".4" stroke-width="__RESOLUTION__" d="m25.5 9.8 2-2.6-1-3.4-1.9.1-1.6 6-2-4.6-1.9 4 1.2 1.5 1.2 1.6 4.3.9 2 .1 1.4-1.9-1.5-1.7-3.1 1zm1.4 14 2-2.6-1-3.4-1.8.1-1.7 5.9-1.9-4.5-1.9 4 1.2 1.5m5.1-1-.9 1 3.1-1 .3.3 1.7-.7 2.8 2.4-1.7 3-4.9-.4 1.6 1.2 3.8 3-.3 5.4-2.6.4-4.6-7.8-1.2 7-4.1-5 1.2-2.7M15.3 31h3l1.9-3.2-1.3-1.2-3.4 1.5-2 .8-.2.1.2-.3 1.1-2.2 1-.2 1.2-.4.6-2.9-2-3-4-1.8h-5v.2L5 18.2l-3.2.9-1.1 3.5 1.6.8h0v-.2l.7-.4.8-.6-.3.5v.1l1.8 1.9 1.3-.5 6.2-2.6.9-.4-.7 1.4-2.7 5 .6-.2v.4l1.3 2L15 31zm.5-22.4 1.5-2.2 1.3-2.8-1.8-3-3.3 1.2-.3 4.8-1-1.7L10 .6 4.4.1l-.8 2.5L10 7.8m-1.2.6H3.5l2.4 2.7q-.7 1.3-.5 3l-.3-.3-2.3.8.3 2.3 3.2 1-1.3.3m10.8-9.4.8-.1 1 3.4-1.6 2M6.6 24.3l2.5 2.6.1 2v2L5.4 33l1-4.7L1.6 32l-1.5-.9 1.2-3.5 3.1-.9" vector-effect="non-scaling-stroke"/></g><g id="f"><path fill="#33423b" d="m20.3 10.9-1.2-1.7 2-3.9 1.8 4.5 1.8-5.9 1.8-.1 1 3.5-2 2.5-2.7 1.3zm1.4 14-1.2-1.6 1.9-4 1.9 4.4L26 18l1.8-.2 1 3.4-2 2.6-2.7 1.3zm7.1 4.8 3.8 3-.3 5.4-2.6.4-4.6-7.8-1.2 7-4.1-5L21 30l3.4-1.3zm-13.3-1.5 3.4-1.5 1.3 1.2-2 3.1-2.9.1H15L12.3 30l-1.4-2 .1-.5-.6.2 2.6-5 .8-1.4-.9.4-6.2 2.6-1.3.5-1.9-1.9.1-.1.3-.5-.8.6-.7.3v.3l-1.6-.8 1.1-3.5 3.2-.9 1.3.2.1-.1 3.2-.1h1.8l4 1.8 2 3-.6 3-1.2.3-1 .1-1.1 2.3-.2.3h.2zM12.2 4.9l.3 4.4-.9 1.8.3.9-2.3.1v.8l-1.7.4-2-2.2-2.4-2.7h7.2l-.7-.6-6.4-5.2.8-2.5 5.5.5zm-2.8 8.9v.3h-.1zm4.2-1.4.5-1.5.7-2.2h1l.8-.1 1 3.4-1.6 2-.4.6-.4.2-.2-.5zM9.2 28.9v2L5.4 33l1-4.7L1.6 32l-1.5-.9 1.2-3.5 3.1-.9 3 .5z"/><path fill="#222c27" d="m20.3 10.9 2.4.2 2.8-1.3-.9 1 3.1-1 1.6 1.7-1.5 2-2-.2-4.3-.9zm1.4 14 2.4.3 2.7-1.3-.9 1 3.1-1 .3.3 1.7-.7 2.8 2.4-1.7 3-4.9-.4 1.6 1.2-4.4-1L21 30l1.2-2.7 1.3-.6-.6-.2zM17.4 23l-2-3-4-1.8h1.9l-.8-.6-.5-.2-.3-.1-.2-.3-.9-.6-1.5-.8.2-1.3.1-.4.1-1 .1-.8L12 12l-.3-.9 1-1.7-.4-4.5 1 1.7.3-4.8L16.8.6l1.8 3-1.3 2.8-1.5 2.2-.1.2h-.9l-.7 2.2-.5.8-.5.1h.1l.4.6 1.4 1.9.2.5.4-.2-.3.3.2.4.5-.1 1.8-.6 1.6 1.8-1.4 1.9-1-.1 1 1.9zm-7.7-4.8H6.3v.2L5 18.2l1.3-.3-3.2-1-.3-2.3 2.3-.8.3.3 1.3 1zm-7.4 5.3V23l.7-.3.5-.1v.1l1.8 1.9 1.3-.5 2.5 2.6.1 2-1.9-1.6-2.9-.4 1.3-.4-3.2-1zm8.5 4.4 1.4 2L15 31h-1.4l.1.1 1.6 1 1.1.6-.3 2.3-1 .1-1.1.1h-.3l-1.2-1.6-2-3.9z"/><path fill="#171f1a" d="m15.5 28.1-2 .8v-.2l1.1-2.2 1-.2zm-5.1-9.9h-.8l-2.9-3.1-1.3-1q-.2-1.7.5-3l2 2.2 1.6-.5-.1 1.1-.1.2v.2l-.2 1.3 1.5.8zm2.4 3.4.9-.4-.7 1.4zM15 31h.4v1l-1.6-.9zm.1 4.1v.5l-1 .1-.1-.5zm-2.6-17.6.8.6h-.8zM10 7.8l.7.6H8.8zm3.6 4.7-.4-.6.4-.1.5-.8zm2.1-3.7.1-.2zM16 14v1.2l-.5.1-.2-.4.3-.3z"/><path fill="none" stroke="#0e0a08" stroke-linecap="round" stroke-linejoin="round" stroke-opacity=".4" stroke-width="__RESOLUTION__" d="m25.5 9.8 2-2.6-1-3.4-1.9.1-1.6 6-2-4.6-1.9 4 1.2 1.5 1.2 1.6 4.3.9 2 .1 1.4-1.9-1.5-1.7-3.1 1zm1.4 14 2-2.6-1-3.4-1.8.1-1.7 5.9-1.9-4.5-1.9 4 1.2 1.5m5.1-1-.9 1 3.1-1 .3.3 1.7-.7 2.8 2.4-1.7 3-4.9-.4 1.6 1.2 3.8 3-.3 5.4-2.6.4-4.6-7.8-1.2 7-4.1-5 1.2-2.7M15.3 31h3l1.9-3.2-1.3-1.2-3.4 1.5-2 .8-.2.1.2-.3 1.1-2.2 1-.2 1.2-.4.6-2.9-2-3-4-1.8h-5v.2L5 18.2l-3.2.9-1.1 3.5 1.6.8h0v-.2l.7-.4.8-.6-.3.5v.1l1.8 1.9 1.3-.5 6.2-2.6.9-.4-.7 1.4-2.7 5 .6-.2v.4l1.3 2L15 31zm.5-22.4 1.5-2.2 1.3-2.8-1.8-3-3.3 1.2-.3 4.8-1-1.7L10 .6 4.4.1l-.8 2.5L10 7.8m-1.2.6H3.5l2.4 2.7q-.7 1.3-.5 3l-.3-.3-2.3.8.3 2.3 3.2 1-1.3.3m10.8-9.4.8-.1 1 3.4-1.6 2M6.6 24.3l2.5 2.6.1 2v2L5.4 33l1-4.7L1.6 32l-1.5-.9 1.2-3.5 3.1-.9" vector-effect="non-scaling-stroke"/></g><g id="e"><path fill="#3e5147" d="m20.3 10.9-1.2-1.7 2-3.9 1.8 4.5 1.8-5.9 1.8-.1 1 3.5-2 2.5-2.7 1.3zm1.4 14-1.2-1.6 1.9-4 1.9 4.4L26 18l1.8-.2 1 3.4-2 2.6-2.7 1.3zm7.1 4.8 3.8 3-.3 5.4-2.6.4-4.6-7.8-1.2 7-4.1-5L21 30l3.4-1.3zm-13.3-1.5 3.4-1.5 1.3 1.2-2 3.1-2.9.1H15L12.3 30l-1.4-2 .1-.5-.6.2 2.6-5 .8-1.4-.9.4-6.2 2.6-1.3.5-1.9-1.9.1-.1.3-.5-.8.6-.7.3v.3l-1.6-.8 1.1-3.5 3.2-.9 1.3.2.1-.1 3.2-.1h1.8l4 1.8 2 3-.6 3-1.2.3-1 .1-1.1 2.3-.2.3h.2zM12.2 4.9l.3 4.4-.9 1.8.3.9-2.3.1v.8l-1.7.4-2-2.2-2.4-2.7h7.2l-.7-.6-6.4-5.2.8-2.5 5.5.5zm-2.8 8.9v.3h-.1zm4.2-1.4.5-1.5.7-2.2h1l.8-.1 1 3.4-1.6 2-.4.6-.4.2-.2-.5zM9.2 28.9v2L5.4 33l1-4.7L1.6 32l-1.5-.9 1.2-3.5 3.1-.9 3 .5z"/><path fill="#29362f" d="m20.3 10.9 2.4.2 2.8-1.3-.9 1 3.1-1 1.6 1.7-1.5 2-2-.2-4.3-.9zm1.4 14 2.4.3 2.7-1.3-.9 1 3.1-1 .3.3 1.7-.7 2.8 2.4-1.7 3-4.9-.4 1.6 1.2-4.4-1L21 30l1.2-2.7 1.3-.6-.6-.2zM17.4 23l-2-3-4-1.8h1.9l-.8-.6-.5-.2-.3-.1-.2-.3-.9-.6-1.5-.8.2-1.3.1-.4.1-1 .1-.8L12 12l-.3-.9 1-1.7-.4-4.5 1 1.7.3-4.8L16.8.6l1.8 3-1.3 2.8-1.5 2.2-.1.2h-.9l-.7 2.2-.5.8-.5.1h.1l.4.6 1.4 1.9.2.5.4-.2-.3.3.2.4.5-.1 1.8-.6 1.6 1.8-1.4 1.9-1-.1 1 1.9zm-7.7-4.8H6.3v.2L5 18.2l1.3-.3-3.2-1-.3-2.3 2.3-.8.3.3 1.3 1zm-7.4 5.3V23l.7-.3.5-.1v.1l1.8 1.9 1.3-.5 2.5 2.6.1 2-1.9-1.6-2.9-.4 1.3-.4-3.2-1zm8.5 4.4 1.4 2L15 31h-1.4l.1.1 1.6 1 1.1.6-.3 2.3-1 .1-1.1.1h-.3l-1.2-1.6-2-3.9z"/><path fill="#1c251f" d="m15.5 28.1-2 .8v-.2l1.1-2.2 1-.2zm-5.1-9.9h-.8l-2.9-3.1-1.3-1q-.2-1.7.5-3l2 2.2 1.6-.5-.1 1.1-.1.2v.2l-.2 1.3 1.5.8zm2.4 3.4.9-.4-.7 1.4zM15 31h.4v1l-1.6-.9zm.1 4.1v.5l-1 .1-.1-.5zm-2.6-17.6.8.6h-.8zM10 7.8l.7.6H8.8zm3.6 4.7-.4-.6.4-.1.5-.8zm2.1-3.7.1-.2zM16 14v1.2l-.5.1-.2-.4.3-.3z"/><path fill="none" stroke="#110c09" stroke-linecap="round" stroke-linejoin="round" stroke-opacity=".4" stroke-width="__RESOLUTION__" d="m25.5 9.8 2-2.6-1-3.4-1.9.1-1.6 6-2-4.6-1.9 4 1.2 1.5 1.2 1.6 4.3.9 2 .1 1.4-1.9-1.5-1.7-3.1 1zm1.4 14 2-2.6-1-3.4-1.8.1-1.7 5.9-1.9-4.5-1.9 4 1.2 1.5m5.1-1-.9 1 3.1-1 .3.3 1.7-.7 2.8 2.4-1.7 3-4.9-.4 1.6 1.2 3.8 3-.3 5.4-2.6.4-4.6-7.8-1.2 7-4.1-5 1.2-2.7M15.3 31h3l1.9-3.2-1.3-1.2-3.4 1.5-2 .8-.2.1.2-.3 1.1-2.2 1-.2 1.2-.4.6-2.9-2-3-4-1.8h-5v.2L5 18.2l-3.2.9-1.1 3.5 1.6.8h0v-.2l.7-.4.8-.6-.3.5v.1l1.8 1.9 1.3-.5 6.2-2.6.9-.4-.7 1.4-2.7 5 .6-.2v.4l1.3 2L15 31zm.5-22.4 1.5-2.2 1.3-2.8-1.8-3-3.3 1.2-.3 4.8-1-1.7L10 .6 4.4.1l-.8 2.5L10 7.8m-1.2.6H3.5l2.4 2.7q-.7 1.3-.5 3l-.3-.3-2.3.8.3 2.3 3.2 1-1.3.3m10.8-9.4.8-.1 1 3.4-1.6 2M6.6 24.3l2.5 2.6.1 2v2L5.4 33l1-4.7L1.6 32l-1.5-.9 1.2-3.5 3.1-.9" vector-effect="non-scaling-stroke"/></g><g id="d"><path fill="#ad9f72" d="m81 14.1 1-.2zm5.7.4-.5-.6zl6.1 7.6 2.5 1-.2-.9.2.9.5 2.4 1.6 1.4-1.2 7.2 1.8 3.7-.8-3.5 3.3-10.3 2-1.7 2.5-7.9 5-8.4-.2-.1-8.2 12.7h-2.3L98 20.5l-5.7-1.1-4.5-6.7-5.8 1.2-5.7-2.6-.5 1 6.2 4zm11.6 25.1.7 2.5-1.5-2.8-2.7 1.5-2.6 1.5.3-1.7 1-4v2.9l1.7-2.2zm1.8 4.6 5 7.7-6.3-3.4-2-1.9-2.5 1.1-.2-.9-7.7 7.3-6.7 8.7q2.2 1 6.2 2.2l-4.2-.2 5 2-.5.6-.7-.2-.7.4-8-2 1.2-.5-1.7-.5-.5.3.5-.3.5-.3-4-1.5-2.2 1-.3 2.5 1 1.1 2 .2h2.2l1.7.2 2.5.5Q87.4 69.6 92 72h6l.5-.9 2.8-.9-10.7-2.7 3 2.5-6.9-3.2-.5.6-.3.6.3-.6-.7-.2-5.1-1.5-4-5H68l-2.8-2.2L59 57l-.1.6-2.4.9-5.1 3.1-.5 1.2 3.9 2 3.5-.5-.2.5h-.4L55 66.1l-1.9 3V66l-3.5-2-1.6-1.1-5.5 2.4L39 64l1.7-1.7.9-.2-.3-.4-.6.6.9-.2 2.7.6 11-4.7 3.2-2.2.4 1.3-.4-1.3 14 4.6.4-.4-1.1-.5.6-1.9-.1-.1h8.2l6.1-8 1.2.4 3.4-4.3.5-1.7 2.9-1.2zm10.7 28.6h1.6l1.3 4.1-1.2 1.6L109 80l-2.1-.8-5.7 3.8-.5-.1-6.7 3.6h.8l4.8-1.7 14.3-2.4 2.3 1.1-8.6 1.5-.5.6q-5 1.3-9.2 3.1l-.5.2L95 90l-10.2 4.6L75 103l-2.8-1.4-1.5-4.5.4-2.4.6 3.2 1.7 3 .5-4.4 4.4-2.4v1.1l.8 1 6.1-3.7-.4-.6 1.8-.9-.5-.8-6 2.5 21.1-11.5v-1.4h-1.8l2.2-2.9 2.4-1.4 4 1 1.9 1.1 2-1zM67 114.2l-1-.5-.6-.4 1-4.4-.9-.3-1.5 3.6-1.3-1.3 2.3-7-2.2.3.3-.9.9-.2.2-1.6.5-8.7 2.2.6 1.8-1.2-.2.9 3.6-2.7h3l-3.5 1.9-.3 2.3-.4 2.4v5l2 3.9-.2-.2-1.1-.8-1.2-.9 1.3 3.5-1.4 3.5-.9-.2-1.2 3zm-9.7 27.5-.8 4h-1l2.3-15.4 1 4.1zm-11.2 5-1.9 1.8-1.2-.7.6-.6.4-.8-.6-.1.6-2.9-1 .8q-1-1-3.1-1.7.2-.8 0-1.3l2.7-1.6 2.6-3 .6-2.6.8.7.4.3.7.6-1.2 6.3 2.3-2.5.7.4-2.3 6zm-3.2-15.3-1.4-2 .3-1.6.4.1h.6l.2.2 2.1-.1 1.9-.4h3.6q1.8-.5 3.6-1.3l.1-.1 1-1.5q1.5-2.6 1.7-5.2v-.9l.6-.7.2 1.3-.4 4.3-1.3 2.7v3.9l3.5-5.4 1.3-5-1.1-2.2-1.3 1.8.7-3.1 1.7-3.9-.9 3.3 1.5 1.4v.2l-.6 1.1.4 1.1-1.5 7.2-1.6 1.4-.3.4-3 4-1 .5.4-5.3-7.1 4.6zm-2.3-8.2.3-3.7q0-5.5-3-10l.2-3.8-1.6-.9v-.3h-.1l-.7-.1q-2.3-1.4-5-2.5l-4.7-1.5h9l3.4 1.3 1.4 1-.5 1.3h2v-2.6l1.5 1 .3 1.8-1.6 1.5-.8 1q-.5 6.4 7.8 9.5l.5.8.5.6 3.3-1h.8l.6-.5 2.6 1.7.2.8v.9q-.2 2.6-1.7 5.2v-5.5l-2.8-1.7-1 .4-2-.3.6.8.1 3.1-3.7 2.3-4.7-6L44 124zM22.5 99.8l-7.2-.7-1.8-.2-7 1.2v-1.2l3.5-1H6.4l.3-1-3.2-1.7.4-1q0-3.1-2.4-5.5l1.8-.4h.3l2-.4.4-1.2v-1l2.9-1.5 5-5.5v-2.9h-.1l-5 8.5.5 3.5v2.4l-2.6 6.7 2.6-6.8v-.9l1.7-2.3 1.9 1.9v1.8q.3 1.5-.2 3.2l1.7 1v-6.2l2.2.8-.9-2.5 3.8 3.7-.5 4.1 1.1 1 .5.4.2.2zm6-35L25.9 66l-10.4 3.2-4.2-2.5.4-.7 4.1 2h.4l.7-.3q6.1-2.2 11.6-4.5zm27.4-8.5-.6-.2 1-1.3 4.1-4.2q3.6-2.8 3.8 0l-4.3 2.3-1.6 2.3-2-.4 1.3.6zm36.7-15.7.9-1.1zM105 14.4l-1.3 2zm-4 8-.5 1.6zm-3.7-1 .7-.9zm4.4-.1-1.1-.3-4.8 4.5 4.8-4.5zM97 33.4l.2 1zm.7 12.9-.9.3zm9.6 35.8.9.3-3.3.8-1.1.1zm-2.4 3.5 2.8-.6zM93.7 43.8l.4 3zm-14 19-.2-.1.2.2zm-2-3.7 1.8 3.6zm3.8 5.4L79.7 63zm-8.2 3.2h.4zm5.5 0h-3.2zM70.3 104l-2.2-1.7 1.2-7.6-1.2 7.5zm-2.4 6.3 1.3.5zm-6.2 22.2-1.6 2.6v.5l4.1-5 1.8-5.7 2.3-.6-.7 3-8 12v-3.9zm-1.5-15.6.5 1.5zm-2.5 11.6.3-.4zm-4.1-62.4-.6-.2zm-5.2-4-.5.6zM19.1 94.8l-.9-.8-1.2-3.6-.4-.9.4 1 1.3 3.5zM6.2 90.1 6 85.6zm-.6-2.2-.3 1.4-1.7-1 1.7 1zm5.9 8.3 1.2-2.5zM10 97.9h.4zh.4zm1.6-.5-1.3.4L9 97l1.2.8zm23.9 4 .9 3.2zm3.3 4.7-.6-.3zM17 90.4l-.8 4v1.8-1.8zm.1 2.3 1.1 1.2zm-1 1.7 3.9 1.2.1 2-.1-2zm31.4 33q1.9-.7 3.8-2l.3-.4 3.3-4.7-2.5 5.6zm-7.8 15 5.3-4.3 1.8-3.1-1.8 3.1zm-36-48.2 1.5-4.9zm38.9 48.5 1.2.3.8-3.7-2 2.9zM44 146l-.1.3zl1.4-3zm1.5-4.8-1.6 2.1z"/><path fill="#faf0c0" d="M99.3 18.6 107 7.4l-7.5-4.9 1-2.4h.8v1.5l8.5 4.2-8.2 12.8zM98 37.8l.3 1.8-3.1-2.4-1.7 2.3v-2.9l.3-1.6 3.6-8.1-1.2 7.2zm1 4.3.1.7 1 1.4-5.4-1.5-3 1.2-.4 1.7-3.4 4.3-1.2-.5-6.1 8.1h-8.2l9.6-3.9 10.5-13-.3 1.6 2.5-1.4 2.8-1.5zm15.3 18.5 4.9 1.9.5 2-3.3-1zm7.1 2.8 2.2.8-.2 1.3-1.3-.4zM86 65q6.6 1.9 18.1 4.3l2.1-.7 4.6 4.2 1.3 3.8-2 1-1.8-1.2-4.1-1-2.4 1.4-2.2 2.9h1.8v1.4L80.2 92.6l6-2.5.5.8-1.8.9.4.6-6.1 3.7-.8-1V94L74 96.4l-.5 4.4-1.7-3-.6-3.2.3-2.3 3.5-1.9 1.8.1 4.2-2.1q8.2-2.7 17.2-9.9l1.3-.7v-2l5-3.5 2.4 2.3h3.3l-2-2.5-2.7-1-5.7 1.2-1.4 1.6L98 72l.5-.9 2.8-.9 2.7-.9-2.7.9-10.7-2.7 3 2.5-6.9-3.2-5-2zm24 16.9 2.4-.6 1.7 1-14.2 2.4-5 1.7h-.7l6.7-3.6.5.1.5.3.8-.2 3.3-1.5 1.4.5-3.5 1.2 1.1-.2 3.3-.7zm-66.6 64.4h-.5L42 145l1-.8.9-.7zm-3.5-5.2q-.4-1.8-3.3-2.7 4.3-1.2 6.7-6.5v-.1l2.5 2.2-.6 2.7-2.6 2.9zM26 100.6l-3.5-.7-1.6-3.7.4.4q4.4 3.5 8.8 3.3h.6q5.9-.4 7.6-1.1l1-.2 3.1 1.5.4 2.5-1.5-1.1v2.6h-2l.5-1.3-1.4-1-3.4-1.3zM1.4 88.8.1 87.5q5.4-.4 5.9-2.9 5.9-4.4 4-7.3l3.8-1.5-5 8.5L6 85.6v1.1l-.4 1.2-2 .4h-.3zm7.8-.9v-2.2h3.6l2.8 1.3 1 2.5-2.3-.9v6.3l-1.7-1q.5-1.7.2-3.2V87h2.8-2.8v1.9l-1.8-2-1.7 2.3zm39.2 28.6q3.6-4 5.1-6.3 1.9-2.7 2.4-5.2.5-2.7-.3-6.3-.6-3-2.6-9l2-4 .3 1-1.1 3.5 1 5.9 1.9 10.8-.8 4.6 1.4.3 2.2-8.9 2.4 1.4h.1l2.3-.3-2.3 7 1.3 1.3-2.3 4.9-1.5-1.3.9-3.4-1.7 3.9-.7 3 1.3-1.7 1.1 2.2-1.3 5-3.5 5.4v-3.9l1.3-2.7.4-4.3-.1-1.2-.7.6-.1-.8-2.7-1.7-.6.5h-.9l-3.2 1-.5-.7zm21.8-50L68 64.1l.2-.2 1.8-1.6.4-.4 1.2-.5 4.5.8.6 2.1-4-1.5-2.2 1zm-28.6-4.2 9.2-2.3 5-3.5 1.7-.9-1.4-.6 2.1.4 4 .3 9.6 4 1.1.5-.4.4-14-4.6-3.2 2.3-11 4.6zm66-55.8-.7 1.1zM85.5 67.1l-.7.4-8-2L78 65l2.4.7zm-17 25-1.8 1.2-2.2-.6-.5 8.7-.2 1.5-1 .3.6-1.6.2-4.9.3-4.8.6.1 1.8.5 2.5-1.3zm-.1 32.1-2.3.6-1.8 5.6-4.2 5.1v-.5l1.7-2.6.1-.2 1.9-3 1.8-5.6 2.2.3.7-.3zm25-81.9 1.3-1.6zM6 84.6v1zm48.2 31.6-1-.7L49 117l4.3-1.5zm-11.4 26.5v-.5l2-2.8-.8 3.5z"/><path fill="#7a6844" d="m105.2 51.9 5.4 7.5 1.5.3 2.3.9 2 3 3.3.9-.5-2 2.3.9.7 1.7 1.3.5.2-1.4 2 .7 3-2.6q4.2-7.8 6-15.5l1.5-1.4.2 1.1v.1l1.8 3.8 3.2 2.1 1 .6.3.1 4.5-4.2.6 1.3-.2.3-1.6.2-2.7 3-.4.9-1.7-.2v-.7l-4-3.5q-1.3-1.1-2-.7-3.5 6.8-5.1 13.7l-.2 2.5 1.2.3h.4l1.2-.5q1.5-1.2 2.2-2.5l.3-.8.1-2.5h.5l-.3 1.8q.9.6 3-1.2v.1l-.2.5-2.5 2.4-3.5 4.6 1.3 4.8 6 2-2.7-.2.7 2.2-.4.1-1.4-2.5-3.7-.3-3-6.5-18.5-3-2.1.6-3-1.9.9-1.7-2.6-8-5-5zM70 130.8l-.2.4zm-27.2-28.3 2.4-1.6.4 1.2-1.6 1.5v1.3l-2.5 1 1.5-1.6zm12.6-16 1.8 5.3.4-.3-2.3-11L58 87l3.1-1.6 4 .7.9-11 4.5.7.2-2.8 1.6.2-.1 2.9.1 1-.5 3.4 1.9.7-1 4 2.3.6-1.2 4.5h-1.9L68.3 93l.3-.9.3-1-2.6 1.4-1.7-.5-.7-.1-.3 4.8h-2.4l-2.6 6.4-3.3-7.2-1-5.9zm21.4 4 3.5-6.7 1.9 1.5-1.2 3zM39.2 64.2l-.5-.2-.5-2.9-1.9-.4-7.8 4.1v-1.4l2.2-.9 6.2-2.9 1.6-.8 2.9 3-.6.6zm21.2-13.5 1-1.1-.2-1.6-5.6-2.9-9.8 4.8-.7-.5 10.3-6.2 1.4.1 4.5 3.7 2.4.6 1.1 2.7-.6.3q-.2-2.7-3.8 0m74.9-.9.4-1zm-5.4 16.8v-.6zm-20.7-7.3 1.4.3zm3.4 4.8-2 .7zm-5.7-3.2-.5 1zM62 48.9l-.5.6zm-.8-1 .6.3zm9.3 28-.2 2zm-8.8 13.5H60l-.8.8-1.2-3 1.2 3 .8-.8zm9.9-7.1.2-1.7zm0 7.3 1-4.3zm9.1 12.2.3-.4-.9 4-5.7 4.7-1-1.7-2.2 5.1v-.9l1.2-6-.9-1.7 1 .8.3.2 1.1.6 4.5-1.8 1.3-1.8zm-22.1-.7-1-9.4zm6-9 .6-5.9zm76.7-38.4.2-1.3zm.6-.4.6-.3zM38.1 60.1l.1.9zm5.9 43.4-1 .8zm11-58.8.6.3z"/><path fill="#998858" d="m112.4 78.6-2.5 3.3-1.7.4-.9-.3-1.4-.5-3.3 1.5-.8.3-.5-.4 5.7-3.8 2.1.8zM94.9 90q-5.2 2.5-8.9 5.8l-1.1 1q-2.3 2.1-3.9 4.6l2.5-.5 1.8-.9 1.9-.8-1.2 2.6-4.3 3.4-7 6.8-1.2 4.4v.6l.1 1.9-1.4.2-.4-3.3-2.2 1.3-1.8-.7-.6 2.1-1.2-.6.9-3.7 1.2-.5 1.3-3 .8.3 1.4-3.5-1.2-3.5 1.1.9.9 1.6-1.2 6.1v.9l2.2-5.2 1 1.8 5.7-4.7.9-4-.3.3.3-.3-.3.3-1 1.2-1.2 1.8-4.6 1.8-1.1-.6-2-3.9v-5l1.5 4.5 2.8 1.4 9.6-8.3zm-15.5 40.3-4.5 9-3 2.1-.2 1.1-6.2 2.8.5.6-1.2.8-1-.7-1.8.8.9 2-1.5 1.4-3.1-8.9v-2.6l-1.1 3 1.5-7.2-1-4.2-2.4 15.3H54v-3h-2.1l-1.8 5.8q-.7-1-4-1.7l1.1-.8 2.3-6.1-.7-.4-2.4 2.5 1.3-6.3-.7-.6-.4-.3-.8-.7-2.5-2.2-.3-.3 4.3.8 7.1-4.6-.3 5.3.9-.5 3-4 .4-.4 1 2.2 2.7 2-.1.2-2.1 3v3.8l8-12-.7 3-.5 2.2-2.3 4.2 1.2 4q.5.6 1.8.6l2.5-.3 3.3-3h1.2zM42.2 128l.1-.6-1.7-1.9-.3-.7.3-1.5 3.4.8-2.2-6.2 4.7 6 3.8-2.3-.2-3-.6-.9 2 .3 1-.4 2.8 1.7v5.5l-1 1.5v.1q-1.9.8-3.7 1.3H47l-1.9.4H43zm56-49.5q-1.3-3.9-6.3-6.5H98l.4 2 1.4-1.7 5.7-1.2 2.8 1 2 2.5h-3.4l-2.5-2.3-4.9 3.5v2zM70 62.3l-2-1.6h8.5l3.9 5-2.5-.7-1.6-.4.5-.3-.6-2.1-4.5-.8-1.2.5zm27.5 10.6.5-.9zm-24.9 29.5-.3-.9zm-.8 13.4-.2-1.2zm1.8-5v5.6zm-28.6 16 3.1-.7 4.6-4.7-.3-3.7.3 3.8-4.6 4.6zm10.9 5.1-1.1.7zm3.2 4.4.6-.7zm8.8-20.9-.2 1zm2.4 27.1 1.3-1zm-8.5 4.3-1.6-4 3.9-6.1-4 6.1zm5.3-5.6-3 1v1.5l1.2 1.6-1.2-1.6v-1.4zm3.7-.6-1.2.3zm-24-13.1.6-.3zm4.6-2.7-.2.4q-2 1.3-3.8 2l4.9-1.5 2.5-5.6zM48.2 136l-.8-.6zm3 .1-1.1 3.9-.9-.4.9.4z"/><path fill="#615230" d="m86 95.8.5 1-1.2 3.3-1.7.8-2.6.5q1.6-2.5 3.9-4.6zm-20.2 17.9-2.2 6.3v.9l2.8 1.4 1-2.4 2 1.8.3-1.6 1.5 1.5-1 3.8-1.5 2.5.6 1.4L72 127l-2 3.8-.2.5-2.1 3h1l1 1.9-2.9 3.2 1.1-.4v.2l1.5-.7 4.3-1.8 4.7-6.4.6-1.7 1.2-1 .5-1.7.8.2-2 4.3-5.2 7.6h-1.2l-3.3 3-2.5.3q-1.3 0-1.8-.6l-1.2-4 2.3-4.2.5-2.2 1.6-2.4-1.6 2.4.7-3 .7-3 .1-.6-.7.3-2.2-.2-1.9 5.5-1.8 3-2.6-2-1.1-2.2h-.1l1.5-1.4 1.6-7.2-.4-1.1.6-1.2v-.1l2.3-4.9 1.5-3.6 1 .3-1.1 4.4zm-2.9-10.4-.2.9h-.2l-2.4-1.4-2.2 8.9-1.4-.3.8-4.6-2-10.8 3.3 7.2 2.6-6.4h2.4l-.2 4.9zm5.4 36.2-.3-.3z"/><path fill="none" stroke="#1c140f" stroke-linecap="round" stroke-linejoin="round" stroke-opacity=".5" stroke-width="__RESOLUTION__" d="m82 13.9-1 .2m5.2-.2.5.6 6.1 7.6 2.5 1-.2-.9m-8.4-7.7L82 16.3l-6.2-4 .5-1L82 14l5.8-1.2 4.5 6.7 5.7 1.1 1.3-1.9L107 7.4l-7.5-4.9 1-2.4m.8 0v1.5l8.5 4.2m0 .1.3.1-5 8.4-2.5 7.9-2 1.7-3.4 10.3.8 3.5.3 1.8.7 2.5.1.7 1 1.4 5 7.7 5.5 7.5 1.5.3 2.3.9 4.8 1.9 2.3.9 2.2.8 2 .7 3-2.6q4.2-7.8 6-15.5l1.5-1.4.2 1.1v.1l1.8 3.8 3.2 2.1 1 .6.3.1 4.5-4.2.6 1.3-.2.3-1.6.2-2.7 3-.4.9-1.7-.2v-.7l-4-3.5q-1.3-1.1-2-.7-3.5 6.8-5.1 13.7l-.2 2.5 1.2.3h.4l1.2-.5q1.5-1.2 2.2-2.5l.3-.8.1-2.5h.5l-.3 1.8q.9.6 3-1.2v.1l-.2.5-2.5 2.4-3.5 4.6 1.3 4.8 6 2-2.7-.2.7 2.2-.4.1h0l-1.4-2.5-3.7-.3-3-6.5-18.5-3-2.1.6-3-1.9.9-1.7-2.6-8-5-5-2-2-2.5 1.1-.2-.9-7.7 7.3-6.7 8.7q2.2 1 6.2 2.2 6.6 1.9 18.1 4.3l2.1-.7 4.6 4.2h1.6l1.3 4.1-1.2 1.6-2.5 3.4 2.4-.6 1.7 1 2.3 1.1-8.6 1.5-.5.6q-5 1.3-9.2 3.1l-.5.2L95 90q-5.2 2.5-8.9 5.8l.5 1-1.2 3.3 1.9-.9-1.2 2.6-4.3 3.4-7 6.8-1.2 4.4v.6l.1 1.9-1.4.2-.4-3.3-2.2 1.3-1.8-.7-.6 2.1-1.2-.6.9-3.7h-.1l-1-.5-2.2 6.3v.9l2.8 1.4 1-2.4 2 1.8.3-1.6 1.5 1.5-1 3.8-1.5 2.5.6 1.4L72 127l-2 3.8v.1l-.2.4-2.1 3h1l1 1.9-2.9 3.2 1.1-.4 1.5-.5 4.3-1.8 4.7-6.4.6-1.7 1.2-1 .5-1.7.8.2-2 4.3-4.5 8.8-3.2 2.3-.1 1-6.2 2.8.5.6-1.2.8-1-.7-1.8.8.9 2-1.5 1.4-3.1-8.9v-2.6l-1.1 3-.8 4h-2.5v-3.1h-2.1l-1.8 5.8q-.7-1-4-1.7l-1.9 1.8-1.2-.7.6-.6.4-.8-.6-.1h-.5L42 145l1-.8q-1.1-1-3.2-1.7.2-.8 0-1.3-.4-1.9-3.3-2.8 4.3-1.2 6.7-6.5l-.3-.4-1.4-2 .3-1.6m.4.1.1-.6-1.7-1.9-.3-.7.3-1.5.3-3.7q0-5.5-3-10l.2-3.8-1.6-.9-.1-.3-.7-.1q-2.3-1.4-5-2.5l-4.7-1.5-3.5-.7-7.2-.7-1.8-.2-7 1.2v-1.2l3.5-1H6.4l.3-1-3.2-1.7.4-1q0-3.1-2.4-5.5L.1 87.5q5.4-.4 5.9-2.9 5.9-4.4 4-7.3l3.8-1.5h0v3l-5 5.5.5 3.5v-2.2h3.6l2.8 1.3 3.8 3.7-.5 4.1 1.1 1 .5.4.2.2h0l.5.3q4.4 3.5 8.8 3.3h.6q5.9-.4 7.6-1.1l1-.2 3.1 1.5.4 2.5 2.4-1.7.4 1.2-1.6 1.5v1.3l-2.5 1-.8.9q-.5 6.4 7.8 9.5 3.6-3.9 5.1-6.2 1.9-2.7 2.4-5.2.5-2.7-.3-6.3-.6-3-2.6-9m0 0 2-4 .3 1 1.8 5.3.4-.3-2.3-11 2.7 6.5 3.1-1.6 4 .7.9-11 4.5.7.2-2.8 1.6.2-.1 2.9h.2l-.1 1-.5 3.4h0l1.9.7-1 4 2.3.6-1.2 4.5H75l1.8.1 3.5-6.6 1.9 1.5-1.2 3q8.2-2.7 17.2-9.9-1.3-3.9-6.3-6.5-4.6-2.4-12.2-3.7l-2.5-.5-1.7-.2h-1.8 0-.4l-2-.2-1-1L68 64m.2 0 1.8-1.7-2.1-1.6-2.9-2.2-6-1.5-.1.6-2.4.9-5.1 3.1-.5 1.2 3.9 2 3.5-.5-.2.5m-.4 0L55 66.1l-1.9 3V66l-3.5-2-1.6-1.1-5.5 2.4L39 64l-.4-.2-.5-2.8-1.9-.4-7.8 4.1-2.6 1.4-10.4 3.2-4.2-2.5.4-.7 4.1 2h.4l.7-.3q6.1-2.2 11.6-4.5l2.2-.9 6.2-2.9 1.6-.8 2.9 3 .3.4 9.2-2.3 5-3.5-.6-.2 1-1.3 4.1-4.2 1-1.1-.2-1.6-5.6-2.9-9.8 4.8-.7-.5 10.3-6.2 1.4.1 4.5 3.7 2.4.6 1.1 2.7-.6.3-4.3 2.4-1.6 2.3 4 .3 9.6 4 .6-1.9-.1-.1 9.6-3.9 10.5-13 1-4 .3-1.6 3.6-8.1-1.7-1.4-.4-2.4m-1.8 16.4-1 1.1m2.3.2 2.7-1.5 1.5 2.8m4.7-25.8 1.3-1.9m2-7 .8-1M100.6 24l.5-1.6M98 20.5l-.7.9m-1.5 4.1 4.8-4.5 1 .3m-4.4 13-.2-.9m38.8 15.2-.6 1M130 65.9l-.1.6m-33-19.8.8-.4m12.9 13.2-1.4-.3m1.3 5.5 2.1-.7m-6.2-2.3.5-.9m0 13.8-2.5-2.2-4.9 3.5v2l-1.3.7m5.8-9.2-2.7.9-2.7.9-.5.9H98l-.5.9m5.1 10.1 3.3-1.5 1.4.5.9.3 1.7-.4m-5 1.1 3.3-.7m-.5 2.6-2.8.6M94.1 46.8l-.4-3m-8.2 23.4-5.1-1.5-2.5-.7-1.6-.4-.5.3m3.7-2.2.2.2v-.1m-2.9 1.5-.6-2.1-4.5-.8-1.2.5-.5.4m6.3 2.3.5-.3m2.7-1.6L77.7 59m2 4 1.8 1.4m-20-14.9.5-.6m-.2-.7-.6-.3M59 57l-.4-1.2m-16.9 6.3-.9.2M73 60l-1.1-.5m-14.3-4.1-1.7.9m2.4-1.1-2-.4m17.4 12.8h-.4m-3 10.3.2-2m1.7.3.1 1M58 87.1l1.2 3 .8-.8h1.7m10.1-8.8-.2 1.7m1 3-1 4.3m2.2.8h-1.9L68.3 93l.3-.9.3-1-2.6 1.4-1.7-.5-.7-.1-.3 4.8-.2 4.9-.5 1.6-.4.9 2.3-.3m-1 8.3 1.5-3.6 1 .3-1.1 4.4.5.4M86 68l.3-.6-.7-.2m1.2-.4-.5.6m-10.7.1h3.3m-2 23 4.2-2.1m-8.7 13.1.3.9m12.8-2.4-1.9 1-2.5.4-.3.3m-9.2 3.2-1.2-.9-2.2-1.7 1.2-7.6m2.3 12.8-1.4 3.5-.9-.2-1.2 3-1.2.4m14-12.8q1.6-2.5 3.9-4.6l1.1-1m-13.2 10.1 1.1.6 4.5-1.8 1.3-1.8M75 90.4l-3.5 1.9-.3 2.3-.4 2.4 1.5 4.5m.5 4.4-.2-.2-1.1-.8M55.3 96l1.9 10.8-.8 4.6 1.4.3 2.2-8.9 2.4 1.4h.1m-4.9-12.6 1 9.5m2.9 16 2.3-4.9m5.5-1.5-1.2-.5m3.5 4.4.2 1.2m1.8 1.2-.1-.6h0v-5.6M62 132.5l-2.1 3-.6.8m8.5-9 .8-3 .1-.6-.7.3-2.2-.2m0 0-1.9 5.5-1.8 3-2.6-2-1.1-2.2h-.1l1.5-1.4 1.6-7.2-.4-1.1.6-1.2m-.6 1.2-.5-1.5m-6.2-.7 2.6 1.7.2.8v.9q-.2 2.6-1.7 5.2l-1 1.5v.1q-1.9.8-3.7 1.3m-3.6 0-1.9.4H43l-.7-.1m10.3-10.4.3 3.8-4.6 4.6-3.1.7m13.2 1.4-.4.4-3 4 1.1-.7m13.8-.5.2-.5m-2.9-.5-.5 2.2-2.3 4.2 1.2 4q.5.6 1.8.6l2.5-.3 1.2-.2m-3-1.6 1.4-.7m-1.5.7.4.3m-10.1-11.4-.3.4m9.2 1.8 1.6-2.4m-1-.6-.6 3m.7-13.9.3-1m-3-29.2-.5 6m76.8-39.7-.2 1.3m1.2-.7-.6.3m-47-12.6-1.3 1.6m-21.7 99-1.3 1.1m-6.2-5.8-4 6.1 1.7 4m3.5-1.6-1.2-1.5v-1.4l3-1m-10.1.4 1.5-7.2M38.3 61l-.1-.9m15 5.7.6.3M48 62.8l.5-.7M16.7 89.4l-1-2.5h-2.8v3.7q.3 1.5-.2 3.2l-1.2 2.4m5.1-6.8.4 1 1.3 3.5.7.8M3.3 88.3h.3l1.7 1 .3-1.4.4-1.2v-2m3.3 4.5v-1.4m0 1.4v1l-2.6 6.7M6 85.6l.2 4.5m3.8 7.8h.4zM9 97l1.2.8 1.3-.4m31.2 5.1.3 1.8.9-.7m-2.5 2.3 1.5-1.6m-6.5.3h-.1l-1-3.2m2.7 4.4.6.3m-22.5-9.9v-1.8l.8-4m1.3 3.5L17 92.7m3.1 4.9-.1-2-3.9-1.2m33.3 23.3 2 .3 1-.4m-3 .1-.5-.7-.5-.7m-.9 11.1-.6.3m4.6-2.7-.2.4q-2 1.3-3.8 2m1.9-9.7.6.8m-6.9 13.3-.3-.3m11 1.5 1-.5m-11.6-.7 2.4 2.2.8.7.4.3h0l.7.6.8.6m-1.5-1.2-1.8 3.1-5.3 4.3m8.9-3 .7.4.9.4 1.2-3.9m-4.6-1.3-.4-.3m2.5-17.6 4.3-1.5.9.6m-49-26.9-1.1 5m42 52.5 1-1 2.3-6m-5.4 6.3v.3h-.1zl1.4-3m-2.3 1.1.9-.7 1.6-2.2M55.6 45l-.6-.2m.3 51.2-1-5.9 1.1-3.5" vector-effect="non-scaling-stroke"/></g><g id="c"><path fill="#171e1b" d="m20.3 10.9-1.2-1.7 2-3.9 1.8 4.5 1.8-5.9 1.8-.1 1 3.5-2 2.5-2.7 1.3zm1.4 14-1.2-1.6 1.9-4 1.9 4.4L26 18l1.8-.2 1 3.4-2 2.6-2.7 1.3zm7.1 4.8 3.8 3-.3 5.4-2.6.4-4.6-7.8-1.2 7-4.1-5L21 30l3.4-1.3zm-13.3-1.5 3.4-1.5 1.3 1.2-2 3.1-2.9.1H15L12.3 30l-1.4-2 .1-.5-.6.2 2.6-5 .8-1.4-.9.4-6.2 2.6-1.3.5-1.9-1.9.1-.1.3-.5-.8.6-.7.3v.3l-1.6-.8 1.1-3.5 3.2-.9 1.3.2.1-.1 3.2-.1h1.8l4 1.8 2 3-.6 3-1.2.3-1 .1-1.1 2.3-.2.3h.2zM12.2 4.9l.3 4.4-.9 1.8.3.9-2.3.1v.8l-1.7.4-2-2.2-2.4-2.7h7.2l-.7-.6-6.4-5.2.8-2.5 5.5.5zm-2.8 8.9v.3h-.1zm4.2-1.4.5-1.5.7-2.2h1l.8-.1 1 3.4-1.6 2-.4.6-.4.2-.2-.5zM9.2 28.9v2L5.4 33l1-4.7L1.6 32l-1.5-.9 1.2-3.5 3.1-.9 3 .5z"/><path fill="#0f1411" d="m20.3 10.9 2.4.2 2.8-1.3-.9 1 3.1-1 1.6 1.7-1.5 2-2-.2-4.3-.9zm1.4 14 2.4.3 2.7-1.3-.9 1 3.1-1 .3.3 1.7-.7 2.8 2.4-1.7 3-4.9-.4 1.6 1.2-4.4-1L21 30l1.2-2.7 1.3-.6-.6-.2zM17.4 23l-2-3-4-1.8h1.9l-.8-.6-.5-.2-.3-.1-.2-.3-.9-.6-1.5-.8.2-1.3.1-.4.1-1 .1-.8L12 12l-.3-.9 1-1.7-.4-4.5 1 1.7.3-4.8L16.8.6l1.8 3-1.3 2.8-1.5 2.2-.1.2h-.9l-.7 2.2-.5.8-.5.1h.1l.4.6 1.4 1.9.2.5.4-.2-.3.3.2.4.5-.1 1.8-.6 1.6 1.8-1.4 1.9-1-.1 1 1.9zm-7.7-4.8H6.3v.2L5 18.2l1.3-.3-3.2-1-.3-2.3 2.3-.8.3.3 1.3 1zm-7.4 5.3V23l.7-.3.5-.1v.1l1.8 1.9 1.3-.5 2.5 2.6.1 2-1.9-1.6-2.9-.4 1.3-.4-3.2-1zm8.5 4.4 1.4 2L15 31h-1.4l.1.1 1.6 1 1.1.6-.3 2.3-1 .1-1.1.1h-.3l-1.2-1.6-2-3.9z"/><path fill="#0a0e0b" d="m15.5 28.1-2 .8v-.2l1.1-2.2 1-.2zm-5.1-9.9h-.8l-2.9-3.1-1.3-1q-.2-1.7.5-3l2 2.2 1.6-.5-.1 1.1-.1.2v.2l-.2 1.3 1.5.8zm2.4 3.4.9-.4-.7 1.4zM15 31h.4v1l-1.6-.9zm.1 4.1v.5l-1 .1-.1-.5zm-2.6-17.6.8.6h-.8zM10 7.8l.7.6H8.8zm3.6 4.7-.4-.6.4-.1.5-.8zm2.1-3.7.1-.2zM16 14v1.2l-.5.1-.2-.4.3-.3z"/><path fill="none" stroke="#060403" stroke-linecap="round" stroke-linejoin="round" stroke-opacity=".4" stroke-width="__RESOLUTION__" d="m25.5 9.8 2-2.6-1-3.4-1.9.1-1.6 6-2-4.6-1.9 4 1.2 1.5 1.2 1.6 4.3.9 2 .1 1.4-1.9-1.5-1.7-3.1 1zm1.4 14 2-2.6-1-3.4-1.8.1-1.7 5.9-1.9-4.5-1.9 4 1.2 1.5m5.1-1-.9 1 3.1-1 .3.3 1.7-.7 2.8 2.4-1.7 3-4.9-.4 1.6 1.2 3.8 3-.3 5.4-2.6.4-4.6-7.8-1.2 7-4.1-5 1.2-2.7M15.3 31h3l1.9-3.2-1.3-1.2-3.4 1.5-2 .8-.2.1.2-.3 1.1-2.2 1-.2 1.2-.4.6-2.9-2-3-4-1.8h-5v.2L5 18.2l-3.2.9-1.1 3.5 1.6.8h0v-.2l.7-.4.8-.6-.3.5v.1l1.8 1.9 1.3-.5 6.2-2.6.9-.4-.7 1.4-2.7 5 .6-.2v.4l1.3 2L15 31zm.5-22.4 1.5-2.2 1.3-2.8-1.8-3-3.3 1.2-.3 4.8-1-1.7L10 .6 4.4.1l-.8 2.5L10 7.8m-1.2.6H3.5l2.4 2.7q-.7 1.3-.5 3l-.3-.3-2.3.8.3 2.3 3.2 1-1.3.3m10.8-9.4.8-.1 1 3.4-1.6 2M6.6 24.3l2.5 2.6.1 2v2L5.4 33l1-4.7L1.6 32l-1.5-.9 1.2-3.5 3.1-.9" vector-effect="non-scaling-stroke"/></g><clipPath id="a"><path d="M1 1h150v157H1z"/></clipPath><path id="b" fill="#171005" fill-opacity=".2" d="M27.2-22.1Q21.6-9 43.2-7.3-2.6-2 9.8 23.1 2.5 9.4.2 27.5L0 30l-2.6 1.3q-4.9-19.9-13.4.8-1.3-10.6-3.4 0-6-22.1-7.5-24-1.7-2.1.6 18.2-5.1-5.7-11.3-5.7Q-18.8 4.4-43.2-16q3.6-2.5 7.5-10.1 4.7 18.3 4.9 0Q-8.9-7.4-3-21.9q.6.8 1.7-.2 1.3-1.4 6-9.8 1.6 41.3 3.4 0 7.8 34.3 19.1 9.8" transform="translate(43.15 31.95)"/></defs><g clip-path="url(#a)"><g transform="translate(57.25 142.6)"><use xlink:href="#b" width="86.3" height="63.9" transform="matrix(.4864 0 0 .278 -20.3 -6.6)"/><use xlink:href="#b" width="86.3" height="63.9" transform="matrix(-.4864 0 0 .278 19 -5.2)"/><use xlink:href="#b" width="86.3" height="63.9" transform="matrix(-.4864 0 0 -.278 17.55 10.7)"/><use xlink:href="#b" width="86.3" height="63.9" transform="matrix(.3973 0 0 -.2271 -17.9 8)"/><use xlink:href="#b" width="86.3" height="63.9" transform="matrix(.392 0 0 .224 -15.15 -4.7)"/><use xlink:href="#b" width="86.3" height="63.9" transform="matrix(-.392 0 0 .224 16.5 -3.6)"/><use xlink:href="#b" width="86.3" height="63.9" transform="matrix(-.392 0 0 -.224 15.3 9.2)"/><use xlink:href="#b" width="86.3" height="63.9" transform="matrix(.3202 0 0 -.183 -13.2 7.05)"/><use xlink:href="#b" width="86.3" height="63.9" transform="matrix(.4914 -.1364 .1182 .278 -19.35 -5.15)"/><use xlink:href="#b" width="86.3" height="63.9" transform="matrix(-.4914 .1364 .1182 .278 20.9 -14.8)"/><use xlink:href="#b" width="86.3" height="63.9" transform="matrix(-.4914 .1364 -.1182 -.278 26.2 1.5)"/><use xlink:href="#b" width="86.3" height="63.9" transform="matrix(.4014 -.1114 -.0965 -.2271 -10.8 8.7)"/><use xlink:href="#c" width="33.9" height="38.5" transform="rotate(163.677 49.531 -30.657)scale(1.065)"/><use xlink:href="#c" width="33.9" height="38.5" transform="rotate(163.677 38.426 -47.686)scale(1.065)"/><use xlink:href="#c" width="33.9" height="38.5" transform="rotate(-79.635 -9.168 -21.621)scale(.7537)"/><use xlink:href="#c" width="33.9" height="38.5" transform="rotate(235.367 -2.976 -38.609)scale(.7536)"/><use xlink:href="#c" width="33.9" height="38.5" transform="rotate(235.367 -23.696 -30.703)scale(.7536)"/><use xlink:href="#d" width="147.8" height="150.3" transform="translate(-55 -140.45)"/><use xlink:href="#e" width="33.9" height="38.5" transform="matrix(-.4687 -.63 .63 -.4687 43 -75.8)"/><use xlink:href="#f" width="33.9" height="38.5" transform="rotate(238.558 -28.146 -.385)scale(.778)"/><use xlink:href="#g" width="33.9" height="38.5" transform="rotate(233.348 -27.51 -30.702)scale(.9131)"/></g></g></svg>