<svg xmlns="http://www.w3.org/2000/svg" xmlns:xlink="http://www.w3.org/1999/xlink" width="16" height="27" viewBox="0 0 16 27"><defs><clipPath id="a"><path d="M1 1h14v25H1z"/></clipPath><g id="b"><path fill="#cfbd9b" d="M7.7 2q3.2.3 2.7 1.9H7.9L4.1 6V5l-2-1.2h1Q6 3 7.7 2m1.4 17.8 1 .7-4.6 1.7-.8-1.5h1.5l2.7-.8z"/><path fill="#a18a66" d="M4.1 6 8 4l2.4-.1q.5-1.6-2.7-1.9 1.7-.9 2.5-1.7l1.6.8q.5 1.4.5 2.8v.7H8.6l-.1-.1v.2l-2.1.7-2.3 1.8zm-2-2.2 2 1.2-2.9 1.8 1 1.5 1.9-1.1 2.3-1.8 2-.7-.2.8.4.9-2.7.7.2.4h2.8l.3.9q.8 2.6.6 4.2t-1 3.9l.7 3.2.8-.3 1.6-1.4 1 .6.3 1.4-.3 1.4-1.3.5-.3-.1h-3l-4 2h-.1l-2-1.2-.3-2 .6-4 .1-2.6-.5-1.9Q1.4 9.9.3 7.9V4.7l.9-.9zm4.4 4.6L6 7.5zm.8 4.1L8 12zm-1.9 6 .9-.4zm0 3.7 4.6-1.7-1-.7-.2.1-2.7.9-1.5-.1zl-1.2 1.6zM9 19.8l.3-.1h.1zm-4.3-3.3 3.3-2zm-.3-5L8.1 10z"/><path fill="#745f47" d="M4.1 5v2.2L2.2 8.3l-1-1.6z"/><path fill="#422f12" d="m8.6 6.4.8-.3.3 1.4H6.2L6 7.1z"/><path fill="none" stroke="#000" stroke-linecap="round" stroke-linejoin="round" stroke-opacity=".4" stroke-width="__RESOLUTION__" d="M7.7 2Q5.9 3 3.1 3.8h-1l2 1.2v2.2l2.3-1.8 2-.7.1-.2m.1.1h3.7V4q0-1.4-.5-2.8L10.1.3Q9.5 1 7.8 2m1 2.6-.2.1-.3.8.4.9.8-.3.3 1.4H9l.3.9q.7 2.6.4 4.2t-1 3.9l.8 3.2.8-.3 1.6-1.4 1 .6.3 1.4-.3 1.4-1.3.5h-.2l-.2-.1H8.5l-4.1 2h-.1l-2-1.2-.3-2 .6-4m0 0 .1-2.6-.5-1.9Q1.4 9.9.3 7.9V4.7l.9-.9h1m6.4 2.6-2.7.7.2.4h2.8m-2.8 0 .5.9M4 7.2 2.2 8.3l-1-1.6L4.1 5m7.2 16.8h.3m-6.1.4-1.2 1.6m4.6-3.9-2.7.9-1.5-.1.8 1.5m4-2.5-.4.1" vector-effect="non-scaling-stroke"/><path fill="none" stroke="#000" stroke-linecap="round" stroke-linejoin="round" stroke-opacity=".3" stroke-width="__RESOLUTION__" d="m8.1 12-.7.5m-1 5.6-.9.4m2.6-4-3.3 2m3.3-6.6-3.6 1.7" vector-effect="non-scaling-stroke"/></g></defs><g clip-path="url(#a)"><use xlink:href="#b" width="13.4" height="24.1" transform="translate(1 1)"/></g></svg>