<svg xmlns="http://www.w3.org/2000/svg" xmlns:xlink="http://www.w3.org/1999/xlink" width="27" height="36" viewBox="0 0 27 36"><defs><g id="g"><path fill="#f36530" d="m26.4 0 1.4 3.1.3 2 1 5.4-.3-.5Q9.6 13.9.1 11.8.2 8 .9 4.2q13.7-1 25.5-4.2M12.2 9.4H4.4zm11.4-7q-2.7 1.2-5.9 1.4 3.2-.2 5.9-1.4"/><path fill="#c62f1a" d="m29.2 10.5-1-5.4-.4-2L26.4 0l3.5 5.6q1 4 1.7 7.9zl2.4 3q1 6.3.8 12L30 22.8q0-5.9-.9-12.3M32 29.3l-.2 1.6-.1.4-.7 2.9-1.1-1.4-.2-.2-.1-.1q.8-3.4 2.4-3.2m-2.1 3.6q.2-1.7 1.8-1.6-1.6-.1-1.8 1.6"/><path fill="#f34830" d="M0 11.8q9.6 2.1 28.8-1.8l.3.5q1 6.4.8 12.3v.1l-1.6.5Q15 24.6.6 22.6q-.9-5.4-.6-10.8M24.8 17h-2zm0-1.7h-3.9zm-10.1-1.1q-4.6.7-9.8 0 5.2.7 9.8 0m10.5 7.1h-6.5z"/><path fill="#f4562f" d="M28.3 23.4h1.6q-.1 4.4-.8 8.6l-6.2 1q-9.3 1-18.3-1.4L3 31.2l-.3-.1q-1.3-4.2-2-8.5 14.4 2 27.6.8M8.6 28.3h-2zM26 31.5q-5.2.7-11.2 0 6 .7 11.2 0m-2.9-3.4h-3.5z"/><path fill="#d3c592" d="m30 23.5-1.7-.1 1.6-.5z"/><path fill="#7a1d10" d="m3 31.2 1.5.4h.1q9 2.4 18.3 1.4l6.2-1 .4.5h.1l.2.4 1.1 1.3v.2q-9.7 2.2-20.2.6l-4.9-1zm24.4 2.3-4.6-.5zM21 34.9q-4.7.7-10.4.1 5.7.6 10.5-.1"/><path fill="#f14f12" d="M29.1 32q.7-4.2.8-8.5v-.6l2.4 2.6L32 29l-.1.3q-1.6-.2-2.4 3.2z"/><path fill="none" stroke="#000" stroke-linecap="round" stroke-linejoin="round" stroke-opacity=".3" stroke-width="__RESOLUTION__" d="m29.2 10.5-1-5.4-.4-2L26.4 0Q14.6 3.3.9 4.2.2 8 .1 11.8q9.5 2.1 28.7-1.8zl2.4 3q-.6-4-1.6-8L26.4 0M30 23.5l-1.7-.1Q15 24.6.6 22.6q.7 4.3 2.1 8.5l.3.1 1.4.4h.1q9 2.4 18.3 1.4l6.2-1q.7-4.2.8-8.5v-.6l-1.6.5m4 2L30 22.8q0-5.9-.9-12.3m2.4 3q1 6.3.8 12L32 29m-.1.3-.2 1.6m-.1.4-.7 2.9v.2q-9.7 2.2-20.2.6l-4.9-1-2.7-2.8m1.7-17q5.3.7 9.9 0m-14 8.4q-.9-5.4-.6-10.8m6.6 16.5h1.9M22.9 33l4.6.5m2-1-.4-.5m1.8 2.2-1.1-1.4-.2-.2m-11-11.3h6.5M17.8 3.8q3.2-.2 5.9-1.4" vector-effect="non-scaling-stroke"/><path fill="none" stroke="#fff" stroke-linecap="round" stroke-linejoin="round" stroke-opacity=".3" stroke-width="__RESOLUTION__" d="M22.9 17h1.9m-3.9-1.7h3.9M31.9 29v.3q-1.6-.2-2.4 3.2h.1m2-1.6v.4q-1.6-.1-1.8 1.6M4.3 9.4h7.9M15 31.5q6 .7 11 0m-6.3-3.4h3.6M10.7 35q5.7.6 10.5-.1" vector-effect="non-scaling-stroke"/></g><g id="e"><path fill="#7d5a4d" d="M15.4.9v5.5h-.1v-1l-2 1.1-1-.8-.7-.5-.1-.2-.6-1.7zm-4.5 2.4.6 1.8-.7-.6-.8-.7.8.7-.8-.7zm.7 1.9.7.5-.3-.2zm1.1-1 2.7-1.4zM7.6 2.6l1.9 1-1.1.3-1.1.2V3zm7.6 11.5v-.4l.2-.1v.3zM7 3.4l.3-.4v1l1.1-.2-1.1.3V4h-.2v.1l.2-.1-.2.1-.5.1.5-.1zv.8h-.4zm-6.8 8v.4z"/><path fill="#d1c394" d="m11.5 5 .1.2.4.3.4 1.7-1 .5.1-.3zl-.7-.5-.8-.7-.2 4.5v.4l.6-.3-.6-.2.6.2q.7 0 1-.7l.1-.3zm.8.7 1 .8-.9.7-.4-1.7zm-2.8-2 .2 3.6v1l.1.4h-.1v1h-.2v-.9L4.9 6.9q-.1-1.7.8-2.4l1-.2q-.2.5-.2 1.3l.1 1q.7 1.5 3.2 1.7Q7.2 8 6.6 6.6l-.1-1 .1-1.3.5-.1h.2l1.1-.3zm-3.6.8q-1 .8-.9 2.4L2.2 5.7l-.1-.5 1.8-.4zm3.7 5.2h.2v8.5zM7.3 4.2l-.1 2.3L7 4.3l.2 2.3z"/><path fill="#a27369" d="m13.4 6.6 1.9-1.1v.9l-.1 7.3v1.6l-1.7.8q-2 1-3.8 2.2V8.7h.1l.6-.3q.7 0 1-.7l1-.5z"/><path fill="#6e4e46" d="m7.3 2.5.3.1-.3.4zV3l-.3.4-.1-1.1zm-.7 1.8-.8.2-1.9.3zm.3-2L7 3.4l-.4.9-2.7.5-1.8.4-2-1V2.9L6 1.7zm-1-.6L.2 2.9V0h2.6z"/><path fill="#858585" d="m4.9 6.9 4.6 1.9v.8l.2 8.6v.9q.3 23.6 0 46.9v.8l-.2 8.1q-5-1.7-9.5-4L.2 66q.6-23.8.2-48.1l-.2-6.1V4.9l2 .8zm3.8 12.2 1-.7zM2.9 37.8v-10zm3.4 1v-3zm.3 33L6.5 66q-.5-11.5-.2-8.5-.3-3 .1 8.5z"/><path fill="#bb9d6c" d="M9.7 18.2v.1z"/><path fill="#f4efe0" d="M9.7 18.3q1.8-1.2 3.8-2.2l1.7-.9v.9L15 20q-.3 23.2.1 46l.1 5.5q-2.7 2-5.6 3.3V66q.3-23.3 0-47zm2.8-.4 2.7-1.8zm1.1 20.3v-10zm-2 .8v-3zm-.2 33 .1-6 .2-8.3-.2 8.3z"/><path fill="#5f433d" d="m.2 4.2 1.9 1 .1.5-2-.8zm0 5.7v1.5zm0 1.9.2 6H.2z"/><path fill="none" stroke="#0d0d0d" stroke-linecap="round" stroke-linejoin="round" stroke-opacity=".3" stroke-width="__RESOLUTION__" d="m15.4.9-4.5 2.3-1 .5v.1l-.1 4.5v.4l-.1-1.3-.2-3.8-2-1-.2-.1v-.8l2.7 2 .8.8.7.5.1.2.7.5 1 .8m2-3.7-2.6 1.5M10 3.8l.8.7M9.7 18.3q1.8-1.2 3.8-2.2l1.7-.9M7.3 2.6v1.6L8.4 4l1-.2m-2-2 .9-.6 2-1.1m-3 2.5-.4-.2.1 1.1v.8l.3-.1h0l-.1 2.5L7 4.2h0-.4L4 4.9l-1.8.4h0l-2-1M6 1.7l1-.2-2-1-.8-.5M7 1.5v.8l-1-.6L.2 2.9m2 2.9-.1-.5v-.1m7.6 13.2-1 .7M.2 17.7l.2.2M5.9 1.7 2.7 0m12.4 20 .3-.2m-.2-3.6L12.5 18" vector-effect="non-scaling-stroke"/><path fill="none" stroke="#fff" stroke-linecap="round" stroke-linejoin="round" stroke-opacity=".2" stroke-width="__RESOLUTION__" d="m10.9 3.3.6 1.8v2.3l-.1.3m1-.5L12 5.5m-1.6 2.9-.6-.2m0 0q-2.6-.1-3.2-1.6l-.1-1 .1-1.3h0l.4-.9.3-.4.3-.4M5.8 4.5q-1 .8-.9 2.4m4.6 2.8h.2m3.9 18.6V38M2.9 28v9.9" vector-effect="non-scaling-stroke"/><path fill="none" stroke="#0d0d0d" stroke-linecap="round" stroke-linejoin="round" stroke-opacity=".2" stroke-width="__RESOLUTION__" d="m13.4 6.6 1.9-1.1v.9l-.1 7.3V16l-.2 4q-.3 23.2.1 46l.1 5.5q-2.7 2-5.6 3.3v-8l-.2 8.1q-5-1.7-9.5-4L.2 66q.6-23.8.2-48.1l-.2-6.1V9.9m11.2-2.2 1-.5 1-.7M9.8 8.8l.6-.3q.7 0 1-.7m-1.7 2v-1h.1M4.9 6.9l4.6 1.9v.8l.2 8.6V9.7M.2 4.9l2 .8L4.9 7m4.8 59.9V66q.3-23.3 0-47v-.8m5.7-4.6h-.2M11.6 36v3m-5.3-3v3m-.1 18.7q-.3-3 .1 8.4l.3 5.8m5-14.1-.1 8.3-.1 6" vector-effect="non-scaling-stroke"/></g><g id="d"><path fill="#6d4b3e" d="M15.4.9v5.5h-.1v-1l-2 1.1-1-.8-.7-.5-.1-.2-.6-1.7zm-4.5 2.4.6 1.8-.7-.6-.8-.7.8.7-.8-.7zm.7 1.9.7.5-.3-.2zm1.1-1 2.7-1.4zM7.6 2.6l1.9 1-1.1.3-1.1.2V3zm7.6 11.5v-.4l.2-.1v.3zM7 3.4l.3-.4v1l1.1-.2-1.1.3V4h-.2v.1l.2-.1-.2.1-.5.1.5-.1zv.8h-.4zm-6.8 8v.4z"/><path fill="#beb183" d="m11.5 5 .1.2.4.3.4 1.7-1 .5.1-.3zl-.7-.5-.8-.7-.2 4.5v.4l.6-.3-.6-.2.6.2q.7 0 1-.7l.1-.3zm.8.7 1 .8-.9.7-.4-1.7zm-2.8-2 .2 3.6v1l.1.4h-.1v1h-.2v-.9L4.9 6.9q-.1-1.7.8-2.4l1-.2q-.2.5-.2 1.3l.1 1q.7 1.5 3.2 1.7Q7.2 8 6.6 6.6l-.1-1 .1-1.3.5-.1h.2l1.1-.3zm-3.6.8q-1 .8-.9 2.4L2.2 5.7l-.1-.5 1.8-.4zm3.7 5.2h.2v8.5zM7.3 4.2l-.1 2.3L7 4.3l.2 2.3z"/><path fill="#916359" d="m13.4 6.6 1.9-1.1v.9l-.1 7.3v1.6l-1.7.8q-2 1-3.8 2.2V8.7h.1l.6-.3q.7 0 1-.7l1-.5z"/><path fill="#5e3f38" d="m7.3 2.5.3.1-.3.4zV3l-.3.4-.1-1.1zm-.7 1.8-.8.2-1.9.3zm.3-2L7 3.4l-.4.9-2.7.5-1.8.4-2-1V2.9L6 1.7zm-1-.6L.2 2.9V0h2.6z"/><path fill="#757575" d="m4.9 6.9 4.6 1.9v.8l.2 8.6v.9q.3 23.6 0 46.9v.8l-.2 8.1q-5-1.7-9.5-4L.2 66q.6-23.8.2-48.1l-.2-6.1V4.9l2 .8zm3.8 12.2 1-.7zM2.9 37.8v-10zm3.4 1v-3zm.3 33L6.5 66q-.5-11.5-.2-8.5-.3-3 .1 8.5z"/><path fill="#a98c5d" d="M9.7 18.2v.1z"/><path fill="#e0dccd" d="M9.7 18.3q1.8-1.2 3.8-2.2l1.7-.9v.9L15 20q-.3 23.2.1 46l.1 5.5q-2.7 2-5.6 3.3V66q.3-23.3 0-47zm2.8-.4 2.7-1.8zm1.1 20.3v-10zm-2 .8v-3zm-.2 33 .1-6 .2-8.3-.2 8.3z"/><path fill="#50342f" d="m.2 4.2 1.9 1 .1.5-2-.8zm0 5.7v1.5zm0 1.9.2 6H.2z"/><path fill="none" stroke="#000" stroke-linecap="round" stroke-linejoin="round" stroke-opacity=".3" stroke-width="__RESOLUTION__" d="m15.4.9-4.5 2.3-1 .5v.1l-.1 4.5v.4l-.1-1.3-.2-3.8-2-1-.2-.1v-.8l2.7 2 .8.8.7.5.1.2.7.5 1 .8m2-3.7-2.6 1.5M10 3.8l.8.7M9.7 18.3q1.8-1.2 3.8-2.2l1.7-.9M7.3 2.6v1.6L8.4 4l1-.2m-2-2 .9-.6 2-1.1m-3 2.5-.4-.2.1 1.1v.8l.3-.1h0l-.1 2.5L7 4.2h0-.4L4 4.9l-1.8.4h0l-2-1M6 1.7l1-.2-2-1-.8-.5M7 1.5v.8l-1-.6L.2 2.9m2 2.9-.1-.5v-.1m7.6 13.2-1 .7M.2 17.7l.2.2M5.9 1.7 2.7 0m12.4 20 .3-.2m-.2-3.6L12.5 18" vector-effect="non-scaling-stroke"/><path fill="none" stroke="#ebebeb" stroke-linecap="round" stroke-linejoin="round" stroke-opacity=".2" stroke-width="__RESOLUTION__" d="m10.9 3.3.6 1.8v2.3l-.1.3m1-.5L12 5.5m-1.6 2.9-.6-.2m0 0q-2.6-.1-3.2-1.6l-.1-1 .1-1.3h0l.4-.9.3-.4.3-.4M5.8 4.5q-1 .8-.9 2.4m4.6 2.8h.2m3.9 18.6V38M2.9 28v9.9" vector-effect="non-scaling-stroke"/><path fill="none" stroke="#000" stroke-linecap="round" stroke-linejoin="round" stroke-opacity=".2" stroke-width="__RESOLUTION__" d="m13.4 6.6 1.9-1.1v.9l-.1 7.3V16l-.2 4q-.3 23.2.1 46l.1 5.5q-2.7 2-5.6 3.3v-8l-.2 8.1q-5-1.7-9.5-4L.2 66q.6-23.8.2-48.1l-.2-6.1V9.9m11.2-2.2 1-.5 1-.7M9.8 8.8l.6-.3q.7 0 1-.7m-1.7 2v-1h.1M4.9 6.9l4.6 1.9v.8l.2 8.6V9.7M.2 4.9l2 .8L4.9 7m4.8 59.9V66q.3-23.3 0-47v-.8m5.7-4.6h-.2M11.6 36v3m-5.3-3v3m-.1 18.7q-.3-3 .1 8.4l.3 5.8m5-14.1-.1 8.3-.1 6" vector-effect="non-scaling-stroke"/></g><g id="c"><path fill="#745042" d="M15.4.9v5.5h-.1v-1l-2 1.1-1-.8-.7-.5-.1-.2-.6-1.7zm-4.5 2.4.6 1.8-.7-.6-.8-.7.8.7-.8-.7zm.7 1.9.7.5-.3-.2zm1.1-1 2.7-1.4zM7.6 2.6l1.9 1-1.1.3-1.1.2V3zm7.6 11.5v-.4l.2-.1v.3zM7 3.4l.3-.4v1l1.1-.2-1.1.3V4h-.2v.1l.2-.1-.2.1-.5.1.5-.1zv.8h-.4zm-6.8 8v.4z"/><path fill="#cabc8c" d="m11.5 5 .1.2.4.3.4 1.7-1 .5.1-.3zl-.7-.5-.8-.7-.2 4.5v.4l.6-.3-.6-.2.6.2q.7 0 1-.7l.1-.3zm.8.7 1 .8-.9.7-.4-1.7zm-2.8-2 .2 3.6v1l.1.4h-.1v1h-.2v-.9L4.9 6.9q-.1-1.7.8-2.4l1-.2q-.2.5-.2 1.3l.1 1q.7 1.5 3.2 1.7Q7.2 8 6.6 6.6l-.1-1 .1-1.3.5-.1h.2l1.1-.3zm-3.6.8q-1 .8-.9 2.4L2.2 5.7l-.1-.5 1.8-.4zm3.7 5.2h.2v8.5zM7.3 4.2l-.1 2.3L7 4.3l.2 2.3z"/><path fill="#9a695f" d="m13.4 6.6 1.9-1.1v.9l-.1 7.3v1.6l-1.7.8q-2 1-3.8 2.2V8.7h.1l.6-.3q.7 0 1-.7l1-.5z"/><path fill="#64433b" d="m7.3 2.5.3.1-.3.4zV3l-.3.4-.1-1.1zm-.7 1.8-.8.2-1.9.3zm.3-2L7 3.4l-.4.9-2.7.5-1.8.4-2-1V2.9L6 1.7zm-1-.6L.2 2.9V0h2.6z"/><path fill="#7c7c7c" d="m4.9 6.9 4.6 1.9v.8l.2 8.6v.9q.3 23.6 0 46.9v.8l-.2 8.1q-5-1.7-9.5-4L.2 66q.6-23.8.2-48.1l-.2-6.1V4.9l2 .8zm3.8 12.2 1-.7zM2.9 37.8v-10zm3.4 1v-3zm.3 33L6.5 66q-.5-11.5-.2-8.5-.3-3 .1 8.5z"/><path fill="#b49563" d="M9.7 18.2v.1z"/><path fill="#efeada" d="M9.7 18.3q1.8-1.2 3.8-2.2l1.7-.9v.9L15 20q-.3 23.2.1 46l.1 5.5q-2.7 2-5.6 3.3V66q.3-23.3 0-47zm2.8-.4 2.7-1.8zm1.1 20.3v-10zm-2 .8v-3zm-.2 33 .1-6 .2-8.3-.2 8.3z"/><path fill="#553732" d="m.2 4.2 1.9 1 .1.5-2-.8zm0 5.7v1.5zm0 1.9.2 6H.2z"/><path fill="none" stroke="#000" stroke-linecap="round" stroke-linejoin="round" stroke-opacity=".3" stroke-width="__RESOLUTION__" d="m15.4.9-4.5 2.3-1 .5v.1l-.1 4.5v.4l-.1-1.3-.2-3.8-2-1-.2-.1v-.8l2.7 2 .8.8.7.5.1.2.7.5 1 .8m2-3.7-2.6 1.5M10 3.8l.8.7M9.7 18.3q1.8-1.2 3.8-2.2l1.7-.9M7.3 2.6v1.6L8.4 4l1-.2m-2-2 .9-.6 2-1.1m-3 2.5-.4-.2.1 1.1v.8l.3-.1h0l-.1 2.5L7 4.2h0-.4L4 4.9l-1.8.4h0l-2-1M6 1.7l1-.2-2-1-.8-.5M7 1.5v.8l-1-.6L.2 2.9m2 2.9-.1-.5v-.1m7.6 13.2-1 .7M.2 17.7l.2.2M5.9 1.7 2.7 0m12.4 20 .3-.2m-.2-3.6L12.5 18" vector-effect="non-scaling-stroke"/><path fill="none" stroke="#fafafa" stroke-linecap="round" stroke-linejoin="round" stroke-opacity=".2" stroke-width="__RESOLUTION__" d="m10.9 3.3.6 1.8v2.3l-.1.3m1-.5L12 5.5m-1.6 2.9-.6-.2m0 0q-2.6-.1-3.2-1.6l-.1-1 .1-1.3h0l.4-.9.3-.4.3-.4M5.8 4.5q-1 .8-.9 2.4m4.6 2.8h.2m3.9 18.6V38M2.9 28v9.9" vector-effect="non-scaling-stroke"/><path fill="none" stroke="#000" stroke-linecap="round" stroke-linejoin="round" stroke-opacity=".2" stroke-width="__RESOLUTION__" d="m13.4 6.6 1.9-1.1v.9l-.1 7.3V16l-.2 4q-.3 23.2.1 46l.1 5.5q-2.7 2-5.6 3.3v-8l-.2 8.1q-5-1.7-9.5-4L.2 66q.6-23.8.2-48.1l-.2-6.1V9.9m11.2-2.2 1-.5 1-.7M9.8 8.8l.6-.3q.7 0 1-.7m-1.7 2v-1h.1M4.9 6.9l4.6 1.9v.8l.2 8.6V9.7M.2 4.9l2 .8L4.9 7m4.8 59.9V66q.3-23.3 0-47v-.8m5.7-4.6h-.2M11.6 36v3m-5.3-3v3m-.1 18.7q-.3-3 .1 8.4l.3 5.8m5-14.1-.1 8.3-.1 6" vector-effect="non-scaling-stroke"/></g><g id="b"><path fill="#7d5a4d" d="m11.6 10.4.3-.1q2-1 3.5-.9l.7 2.5-5.8-.7zM3 16.7l2.2 2.6H0q1.4-2 3-2.6"/><path fill="#a97961" d="M4.6 25.6 7.4 27l-.8 4.3L4 33.5z"/><path fill="none" stroke="#000" stroke-linecap="round" stroke-linejoin="round" stroke-opacity=".3" stroke-width="__RESOLUTION__" d="M12 10.3q1.3-1 2.5-1.3v-.5L14.3.1q-3 2-6 3.5h-.1L5.3 4.9l.4 9 4.8-2.9 1.1-.6" vector-effect="non-scaling-stroke"/></g><path id="h" fill="#a6ae99" d="m12.9-5.6.5 7L11.1 3v-6.7q1-1.3 1.8-1.8M.3 8.4 0 2.1Q1.3.5 2.1 0l.5 7z" transform="translate(0 5.6)"/><path id="f" fill="#a6ae99" d="m35.3 10-2.5.9-.5-8 3-2.9zM17.4 20.4V12l2.6.4-.1 7zm-6.5.7 2-21.8.8 1-.9 20zM3.6 6.7l-2 20.1-2.7 1.1 2-21.8z" transform="translate(1.1 .7)"/><clipPath id="a"><path d="M1 1h25v34H1z"/></clipPath></defs><g clip-path="url(#a)"><g transform="translate(11.8 28.6)"><use xlink:href="#b" width="16.1" height="33.5" transform="translate(-8.9 -20.8)scale(.506)"/><use xlink:href="#c" width="15.3" height="74.9" transform="matrix(.238 -.0272 .0071 .1953 7.05 -12.6)"/><use xlink:href="#d" width="15.3" height="74.9" transform="matrix(.2211 .0224 -.0176 .1938 -2.25 -15.65)"/><use xlink:href="#e" width="15.3" height="74.9" transform="matrix(.2497 0 -.0013 .2007 -.6 -8.8)"/><use xlink:href="#e" width="15.3" height="74.9" transform="matrix(.2346 0 -.0172 .1944 -8.45 -12)"/><use xlink:href="#f" width="36.4" height="28.6" transform="translate(-7.5 -11.95)scale(.506)"/><use xlink:href="#g" width="32.3" height="35.6" transform="matrix(.4209 .1851 -.3466 .2001 .6 -17.1)"/><use xlink:href="#g" width="32.3" height="35.6" transform="matrix(.4209 .1851 -.3466 .2001 .55 -17.65)"/><use xlink:href="#c" width="15.3" height="74.9" transform="matrix(.1959 .0003 .0063 .1533 -2.75 -26.05)"/><use xlink:href="#e" width="15.3" height="74.9" transform="matrix(.2365 -.0089 .0085 .2067 -8.85 -26)"/><use xlink:href="#h" width="13.4" height="14.1" transform="translate(-6.25 -22.2)scale(.506)"/><use xlink:href="#g" width="32.3" height="35.6" transform="matrix(-.0343 -.3638 -.3405 .2292 3.3 -23.85)"/><use xlink:href="#g" width="32.3" height="35.6" transform="matrix(-.0343 -.3638 -.3405 .2292 3.85 -23.7)"/></g></g></svg>