<svg xmlns="http://www.w3.org/2000/svg" xmlns:xlink="http://www.w3.org/1999/xlink" width="259" height="123" viewBox="0 0 259 123"><defs><g id="g"><path fill="#f60" fill-opacity=".2" d="M32.2 11.7q-.1 4.7-6.2 9.8-6.1 5.3-13.4 5.4t-9.7-5.5Q.4 15.9 0 11.7t3.4-7Q7.4 1.8 15 .4T27.5 3q4.8 4.1 4.7 8.7"/><path fill="#ffbd00" d="m13.7 6.5 3.2 4.3 1.2-1.2q2.1 2.7-2.4 5-1 .4-2.8.4-10.2-4.3.8-8.5m-.3 8.2q4.1-1.2 1.6-2.6l-2.3-3.4q-4.1 3 .6 6z"/><path fill="#ffeabb" d="M13.4 14.7h-.2q-4.6-3-.5-6l2.3 3.4q2.5 1.4-1.6 2.6"/><path fill="#ff6" d="M17.9 9.7q-.9-.4-.2-.8l.2-.1q1 .5 0 .9m1.3-1.1q-.9-.4-.2-.8l.1-.1q1.1.5.1.9m-4.4 4.2q-.9-.4-.2-.8l.2-.1q1 .5 0 .9m-4.9-1.3q-.9-.5-.2-1 1.2.4.3 1"/></g><g id="e"><path fill="#f60" fill-opacity=".3" d="M14.5.1q7-.8 10.9 3.2t3.6 8.2q-.2 4.3-3.5 7.6-3.3 3.4-10.6 3.4T3.3 19.1.3 11t4.3-7.4T14.5.1"/><path fill="#ffbd00" d="M13.7 6.5q1.6 0 2.7 1.3t1.2 3.1-1.2 3-2.7 1.3q-1.6 0-2.7-1.3-1.2-1.2-1.2-3T11 7.8t2.7-1.3m1.5 7.6-2-5.3.6 6z"/><path fill="#ffeabb" d="m15.2 14.1-1.4.7-.6-6z"/><path fill="#ff6" d="M16.9 4.6q1 .4 0 .8v.1q-.9-.4-.2-.9zm-1.3 1.1q1 .4 0 .8v.1q-.9-.4-.2-.8zM7.5 8.4q-.8-.5-.3-1h.1q1.2.3.3 1zm5 1.2q-.9-.4-.2-.9h.2q1 .4 0 .8"/></g><g id="c"><path fill="#f60" fill-opacity=".2" d="M26.3 3q5.1 3 5.1 7.3t-5.1 7.2-12.4 3-12.4-3l-.5-.3-1-.7V4l1-.6.5-.3q5.1-3 12.4-3Q21 0 26.3 3"/><path fill="#ffbd00" d="M16.5 12.3q-1.7 1-3.6.9t-3.6-.8q-1.7-.9-2-2.3-.2-1.3 2.9-4.3 3-2.9 4.4.6 1.2 3.6 2.1 2t1.2.7-1.4 3.2M13 8.8l-1-1.9q-.2-.4-1.1.8t-.8 2.5.9 2q.8.6 1.7.6t1.8-.7q1.2-.8.1-1.3t-1.6-2"/><path fill="#ffeabb" d="M13 8.8q.7 1.4 1.7 2 1 .5 0 1.3-1.1.7-2 .7t-1.6-.7-1-1.9.9-2.4q.9-1.3 1.2-.9z"/><path fill="#ff6" d="m11 3.4-.1.1q-1-.5 0-.9.8.4.1.8m5.1 1.4q-1.3-.3-.4-1h.2q.7.4.2 1M6.5 6.7q.9.4.1.8l-.1.1q-1-.5 0-.9m1.4-.3-.2.1q-1-.5 0-.8v-.1q.9.4.2.8"/></g><g id="b"><path fill="#f90" fill-opacity=".2" d="m1.4 7.9 1-1q8.9-8.4 14-6.6l1.4 76.9 3.4 1.4L20 96.1l-18.1 9.3V88h-.4z"/><path fill="#fc0" fill-opacity=".1" d="M59 94.6 77.5 106l-19 11.6.3.1-.1.4H20.4l-19-11.9 19.3-11.7z"/><path fill="#f60" fill-opacity=".1" d="m57.6 97 18.5 11.5-19 11.7.3.1-.1.4H19L0 108.8 19.3 97z"/><path fill="#f60" fill-opacity=".1" d="M28.1 97.4h38.4L85 108.9l-19 11.6.2.2-.1.3H27.9l-19-11.8z"/><path fill="none" stroke="#391700" stroke-linecap="round" stroke-linejoin="round" stroke-opacity=".4" stroke-width="2" d="M3.9 24.8 2 26.5l11 8.9m-11-9L1.4 28m12.3 8L1.5 30m0 3 12.2 3.7"/><path fill="none" stroke="#000" stroke-linecap="round" stroke-linejoin="round" stroke-width="2" d="M3.6 24.8 19 17h.1l1 .3M3.8 25q1.6.5 3.5.8l1.3.2 3.2.1h1.4l3.7-.4 1.8-.4 1.6-.5m3.3-1.8L22 24l-1.5.6-.3.1"/><path fill="none" stroke="#e27d03" stroke-linecap="round" stroke-linejoin="round" stroke-width="2" d="m20.2 17.3.4.2.3.2.9.3q1 .6 1.7 1.3h0m.6 2.7-.4.7"/><path fill="none" stroke="#653201" stroke-linecap="round" stroke-linejoin="round" stroke-width="2" d="M23.6 19.3q.8.9.8 1.8l-.2.9m-.5.7-.2.3"/><path fill="none" stroke="#653201" stroke-linecap="round" stroke-linejoin="round" stroke-width="1" d="m23.5 23-1.7 2.3m-2.2 3.3-.6.6M18 31l-3.7 5.3m7-17.2-2.7 6.3m1.6-.5 3.3-5.5"/><path fill="none" stroke="#e27d03" stroke-linecap="round" stroke-linejoin="round" stroke-width="1" d="m21.8 25.3-2.2 3.3m-.6.6L18 31m3.8-12.8-.5 1m2.1.2h.1"/><path fill="none" stroke="#000" stroke-linecap="round" stroke-linejoin="round" stroke-width="1" d="m14.3 36.2-.2.3H14v-.1h0-.1l.1.3L3.7 25l-.2-.1h.2m13.1.8 2.3-8.7m1.1 7.8h.1M14 36.3l6.2-11.5M14 36.5v-.2z"/><path fill="none" stroke="#2b1500" stroke-linecap="round" stroke-linejoin="round" stroke-width="1" d="m20.3 24.8-6 11.4m4.3-11L14 36.4m-.9-10.2.8 10.2 2.9-10.6m-8.3.3 5.4 10.5"/></g><clipPath id="a"><path d="M1 1h85v121H1z"/></clipPath><clipPath id="d"><path d="M87 1h85v121H87z"/></clipPath><clipPath id="f"><path d="M173 1h85v121h-85z"/></clipPath></defs><g clip-path="url(#a)"><g transform="translate(29 111)"><use xlink:href="#b" width="85" height="121" transform="translate(-28 -110)"/><use xlink:href="#c" width="31.4" height="20.5" transform="translate(-26.55 -102.85)"/></g></g><g clip-path="url(#d)"><g transform="translate(115 111)"><use xlink:href="#b" width="85" height="121" transform="translate(-28 -110)"/><use xlink:href="#e" width="29" height="22.5" transform="translate(-27.6 -104.85)"/></g></g><g clip-path="url(#f)"><g transform="translate(201 111)"><use xlink:href="#b" width="85" height="121" transform="translate(-28 -110)"/><use xlink:href="#g" width="32.2" height="26.9" transform="translate(-27.3 -104.7)"/></g></g></svg>