<svg xmlns="http://www.w3.org/2000/svg" xmlns:xlink="http://www.w3.org/1999/xlink" width="109" height="110" viewBox="0 0 109 110"><defs><g id="d"><path fill="#676343" d="m17.6 24.7 1.3 6-1.2 1.1-.9-.5-1.5-7.6z"/><path fill="#b0ab84" d="m16.8 31.3.9.5 1.3-1.1-1.4 16.1q-.6.3-1 .3l-.9-.2-.2-.1z"/><path fill="none" stroke="#888257" stroke-linecap="round" stroke-linejoin="round" stroke-width="__RESOLUTION__" d="m19 30.7-1.4-6m0 22.1q-.6.3-1 .3l-.9-.2-.2-.1" vector-effect="non-scaling-stroke"/><path fill="none" stroke="#928c5f" stroke-linecap="round" stroke-linejoin="round" stroke-width="__RESOLUTION__" d="m19 30.7-1.4 16.1" vector-effect="non-scaling-stroke"/><path fill="#676343" d="m8.9 29 1.4-7.6 2.3 1-1.5 6-1.3 1.1z"/><path fill="#b0ab84" d="m8.9 29 .9.5 1.3-1.1 1.5 16.1-1 .3-.8-.2-.3-.1z"/><path fill="none" stroke="#888257" stroke-linecap="round" stroke-linejoin="round" stroke-width="__RESOLUTION__" d="m11 28.4 1.6-6m-2.1 22 .3.2.8.2 1-.3" vector-effect="non-scaling-stroke"/><path fill="none" stroke="#928c5f" stroke-linecap="round" stroke-linejoin="round" stroke-width="__RESOLUTION__" d="m12.6 44.5-1.5-16.1" vector-effect="non-scaling-stroke"/><path fill="#676343" d="M5.8 30 1.7 17.4q.3 0 2.2 1l4 11-1.2 1.1z"/><path fill="#b0ab84" d="m5.8 30 .9.5 1.2-1.1-4 11.1-1 .3-.8-.2-.2-.1z"/><path fill="none" stroke="#888257" stroke-linecap="round" stroke-linejoin="round" stroke-width="__RESOLUTION__" d="m7.9 29.4-4-11m-2 22 .2.2.8.2 1-.3" vector-effect="non-scaling-stroke"/><path fill="none" stroke="#928c5f" stroke-linecap="round" stroke-linejoin="round" stroke-width="__RESOLUTION__" d="m4 40.5 3.9-11.1" vector-effect="non-scaling-stroke"/><path fill="#676343" d="m13.6 61.3-1.4-7.5q.3-.1 2.2.9l1.3 6-1.2 1.2z"/><path fill="#b0ab84" d="m13.6 61.3.9.6 1.3-1.1-1.4 16-1 .3-.8-.1-.3-.2z"/><path fill="none" stroke="#888257" stroke-linecap="round" stroke-linejoin="round" stroke-width="__RESOLUTION__" d="m15.8 60.8-1.5-6.1m-2 22.1.3.2.8.1 1-.2" vector-effect="non-scaling-stroke"/><path fill="none" stroke="#928c5f" stroke-linecap="round" stroke-linejoin="round" stroke-width="__RESOLUTION__" d="m14.4 76.9 1.3-16.1" vector-effect="non-scaling-stroke"/><path fill="#676343" d="M2.1 55.5 1 56.6l-.9-.5 1.6-7.6 2.2 1z"/><path fill="#b0ab84" d="m0 56 .9.6 1.2-1.1 1.7 16.1-1 .3-.9-.2-.2-.1z"/><path fill="none" stroke="#888257" stroke-linecap="round" stroke-linejoin="round" stroke-width="__RESOLUTION__" d="m2.1 55.5 1.7-6m-2.1 22 .2.2.9.2 1-.3" vector-effect="non-scaling-stroke"/><path fill="none" stroke="#928c5f" stroke-linecap="round" stroke-linejoin="round" stroke-width="__RESOLUTION__" d="M3.8 71.6 2.1 55.5" vector-effect="non-scaling-stroke"/><path fill="#676343" d="m26.9 66.3 1.5-7.6 2.2 1-1.6 6-1.2 1.1z"/><path fill="#b0ab84" d="m26.9 66.3.9.5 1.2-1.1 1.6 19.1-1 .3-.8-.2-.2-.2z"/><path fill="none" stroke="#888257" stroke-linecap="round" stroke-linejoin="round" stroke-width="__RESOLUTION__" d="m29 65.7 1.6-6m-2 25 .2.2.8.2 1-.3" vector-effect="non-scaling-stroke"/><path fill="none" stroke="#928c5f" stroke-linecap="round" stroke-linejoin="round" stroke-width="__RESOLUTION__" d="M30.7 84.8 29 65.7" vector-effect="non-scaling-stroke"/><path fill="#676343" d="m41.5 74.7 2.5-8.4 2.2 1-2.5 7.6-1.4.3z"/><path fill="#b0ab84" d="m41.5 74.7.9.5 1.3-.3-1 16.3-1 .3-.8-.2-.2-.1z"/><path fill="none" stroke="#888257" stroke-linecap="round" stroke-linejoin="round" stroke-width="__RESOLUTION__" d="m43.7 74.9 2.5-7.7m-5.6 24 .3.1.8.2 1-.3" vector-effect="non-scaling-stroke"/><path fill="none" stroke="#928c5f" stroke-linecap="round" stroke-linejoin="round" stroke-width="__RESOLUTION__" d="m42.8 91.2.9-16.3" vector-effect="non-scaling-stroke"/><path fill="#676343" d="m81.7 40.7 1.5-16 2.5-1.2-1.9 16.6-1.2 1.1z"/><path fill="#b0ab84" d="m81.7 40.7.8.5 1.3-1.1 1.7 37.1-1.1.3-.8-.2-.2-.1z"/><path fill="none" stroke="#888257" stroke-linecap="round" stroke-linejoin="round" stroke-width="__RESOLUTION__" d="m83.8 40.1 1.9-16.6m-2.4 53.7.3.1.8.2 1-.3" vector-effect="non-scaling-stroke"/><path fill="none" stroke="#928c5f" stroke-linecap="round" stroke-linejoin="round" stroke-width="__RESOLUTION__" d="m85.5 77.2-1.7-37.1" vector-effect="non-scaling-stroke"/><path fill="#676343" d="m93 35.6-1.9-14.9 2.5-1.2 1.6 15.6-1.3 1z"/><path fill="#b0ab84" d="m93 35.6.9.6 1.3-1.1-1.9 38.1-1 .3-.8-.2-.2-.1z"/><path fill="none" stroke="#888257" stroke-linecap="round" stroke-linejoin="round" stroke-width="__RESOLUTION__" d="m95.2 35-1.7-15.5m-2.2 53.7.2.1.8.2 1-.3" vector-effect="non-scaling-stroke"/><path fill="none" stroke="#928c5f" stroke-linecap="round" stroke-linejoin="round" stroke-width="__RESOLUTION__" d="m93.4 73.2 1.8-38.1" vector-effect="non-scaling-stroke"/><path fill="#ebce5c" d="m77.2 11.9.6-1 5.3.7q-9.2.9-12.6 4H70l2.4-2.6q1.3-1.7 4.2-2z"/><path fill="#dab41b" d="M83 11.6h.2q-2.5 2.7-5.4 3.6l-1.5-1.8-.3 2.2h-5.5q3.4-3.1 12.5-4"/><path fill="none" stroke="#000" stroke-linecap="round" stroke-linejoin="round" stroke-opacity=".3" stroke-width="__RESOLUTION__" d="m77.8 11 5.3.6h.1q1.9-.8 4.3-1m-17 5H70l2.4-2.6q1.3-1.7 4.2-2l.6.9m.6 3.3q2.9-1 5.4-3.6m-12.7 4H76l.3-2.2m6.8-1.8q-9.2.9-12.6 4" vector-effect="non-scaling-stroke"/><path fill="#57462b" d="M64.8 20.9v.3q1.8 9.2-1.8 19.4l-.2.5q-2.4 7.2-2.3 14.2l-3 1.5q.8-5.6-1.9-9.5-3.2-6.8-3.5-19.8l4.1-2.1q4.7 19.1 5.7-3zm4.6 29.7q-2.7-4-.7-10.5l.1-.4q2-6.1.5-20.1l-.1-1 8.2-4.3h.2v7l-3.3 9q-1.1 10.4.4 17.5zm-20.5-7.7q2.6 14.6 4.6 16L49 61.2z"/><path fill="#655232" d="M60.5 55.3q-.1-7 2.3-14.2l.2-.5q3.5-10.2 1.8-19.4v-.3l4.4-2.3.1 1q1.5 14-.5 20.1l-.1.4q-2 6.6.7 10.5zM62 22.4q-1 22.1-5.6 3zm-9.8 5.1q.3 13 3.5 19.8 2.7 3.9 1.9 9.5l-4 2q-2-1.3-4.5-15.9V29.1zm25.5-6.1V43l-2.9 4.8q-1.5-7.1-.5-17.4zM31 17.3l2.8 1.7h.3v6.4H34l-.4 18.5-8.7 4.5h-.2v-28l3.2 1.8 3.5-.4z"/><path fill="#c19d53" d="M64.8 20.9 62 19.2l5.8-3 1.4 2.4zm-5.8-.1q3 1 2.9 1.6l-5.6 3-1.2-2.5 1.9-1zm-9.2 4.9 2.3 1.8-3.1 1.6-3-1.5zm-.9 1.9 1.1-.1z"/><path fill="#c9a865" d="m64.7 20.9-2.8 1.5q0-.6-3-1.6l3.1-1.6zm-8.5 4.5-4.1 2.1-2.4-1.8 2-1.1 3.3-1.7zm12.9-6.8-1.4-2.4 6.6-3.4 3 1.5zm4.3-3.9 1.4-.3z"/><path fill="#54442a" d="m57.5 56.8 3-1.5 8.9-4.7 5.3-2.8 2.9-1.5v4.2L49 65.4v-4.2l4.5-2.3zm-7.1 5.9 2.1-1zM75.3 50l.8-1.1z"/><path fill="#ceb173" d="m62 19.2-3 1.6-2 1-3.2-.2q-4.1.2-9.1-4.3l3-1.1-3.5-1.1-1-2.5H43l-1.4 1.6q-2.5-2.8-5-6.5L42 4.8q21.2 5.5 25.7 11.4zm-10.4 5.4-2 1-3.7 2-2.6-1.4-.5-4.9v-.2q3.7 1.7 8.9 3.5m-29.4-9.5 11.3-5.9-.7 3.6-.1.5q-.1 1 .9 2.3l-3.5-1.7.6 3.4-.3-.2-2.9.8zm37.3.3q-19-8.7-17.1-6.7t2.8 4 11.8 4.5q6.4.8 3.1-1.4z"/><path fill="#d5ba84" d="m55 22.9-3.2 1.7q-5.2-1.8-8.9-3.5l1.4-1.5v-.4l.4-2q5 4.6 9.1 4.4l3.2.3zm19.4-10.1-6.6 3.4q-4.5-5.9-25.7-11.4l6-3.1q11.7 9.5 21 8.3zM36.7 7.7q2.5 3.7 5 6.5l-1 1-2.3-2.3-2.5 2.7h-2.1q-1-1.2-1-2.3l.2-.5.6-3.6zm23 7.7.6.4q3.4 2.2-3.1 1.4-11-2.4-11.9-4.5-.8-2.1-2.7-4-1.9-2 17 6.7"/><path fill="#866d44" d="M49 29.1v32.1l-3-1.5V31.8l-4.4-2.3.4-4h.1l.8-4.2.5 4.9 2.6 1.4zm-6-16.4 1.1 2.5-1.5 3.5-.3-1.7zm6 52.7L24.7 52.6 22 51.2V15.3l.3-.2 5.3 2.8 2.9-.8.3.2.4 4.5-3.5.4-3.2-1.7-2.5-1.2 2.5 1.2v28l.2-.1L46 59.7l3 1.5zm-3-37.8v4.2zm-21.3 25v-4.1z"/><path fill="#9a7d4e" d="M77.6 14.3h-.2z"/><path fill="#705b38" d="m41.7 14.2 1.4-1.5-.7 4.2-1.7 1.5h-.1l-2.1-1.5-2.7 2h-2.1l-2.9-1.6-.6-3.4 3.6 1.7h2.1l2.5-2.7 2.4 2.3zm2.5.9 3.4 1.1-2.9 1-.4 2-1.5-.6zm-2.1 10.4"/><path fill="#544529" d="m34 19 1.8-.1 2.7-2 2.1 1.5 1.8-1.5.4 1.7 1.5.6v.4l-1.4 1.5v.2l-.8 4.2-.5 4-.1-.1v10.3l-8 4.2.4-18.5zm12 22.7V50l-12.5-6.2 8-4.2z"/><path fill="#dcc698" d="M48 1.7 50.8.3 69.1 10q-9.3 1.2-21-8.3"/><path fill="#3e331e" d="m41.7 29.5 4.3 2.3v9.9l-4.5-2V29.4zm-.1 10.3 4.5-2.3z"/><path fill="#5e4d2f" d="M46 50v9.7L24.8 48.4l8.7-4.5z"/><path fill="none" stroke="#4b3e25" stroke-linecap="round" stroke-linejoin="round" stroke-width="__RESOLUTION__" d="M60.5 55.3q-.1-7 2.3-14.2l.2-.5q3.5-10.2 1.8-19.4v-.3m-2.9 1.5q-1 22.1-5.6 3M52 27.5q.3 13 3.5 19.8 2.7 3.9 1.9 9.5m11.9-6.2q-2.7-4-.7-10.5l.1-.4q2-6.1.5-20.1l-.1-1M49 42.9q2.5 14.6 4.5 16m24.1-37.5-3.3 9q-1.1 10.3.4 17.4" vector-effect="non-scaling-stroke"/><path fill="none" stroke="#000" stroke-linecap="round" stroke-linejoin="round" stroke-opacity=".3" stroke-width="__RESOLUTION__" d="m57.6 56.8 3-1.5 8.9-4.7 5.3-2.8h0l2.9-4.8V14.2l-.2.1-3-1.5-6.6 3.4-5.7 3-3.1 1.6-2 1-2 1-3.2 1.8-2 1-3.7 2H46h0v4.2l-4.4-2.3-.1-.1m7.5-.3v32.1l-3-1.5V31.8m7.5 27 4-2m-15.4-52-5.4 2.9-3 1.5-11.3 5.9-.3-.2v36.3l2.5 1.4L49 65.4l28.6-14.9v-4.2l-2.9 1.5M69.1 10l5.3 2.8m-52 2.3-.3.2m0 4 2.5 1.2 3.2 1.7M48 1.7 50.8.3 69.1 10m-21-8.3-6 3.1m4 22.8 2.9 1.5M33.5 43.9l8-4.2 4.5-2.3m-21.3 11v.1l.1-.1zv-28m.2 28 8.7-4.5M49 61.2l4.5-2.3M49 65.4v-4.2m-3-1.5L24.8 48.4m-.2.1v4" vector-effect="non-scaling-stroke"/><path fill="none" stroke="#ae915e" stroke-linecap="round" stroke-linejoin="round" stroke-width="__RESOLUTION__" d="M67.9 16.2Q63.1 10.3 42 4.8m-5.4 2.9q2.5 3.7 5 6.5m3 3q5 4.6 9.1 4.4l3.2.3m-23.2-6.3q-1-1.2-1-2.3l.2-.5.6-3.6M69 10q-9.3 1.2-21-8.3m-5.2 19.4q3.7 1.7 8.9 3.5m7.9-9.2q-19-8.7-17.1-6.7t2.8 4 11.8 4.5q6.4.8 3.1-1.4z" vector-effect="non-scaling-stroke"/><path fill="none" stroke="#826c41" stroke-linecap="round" stroke-linejoin="round" stroke-width="__RESOLUTION__" d="m74.9 14.4-1.5.3M50 27.4h-1" vector-effect="non-scaling-stroke"/><path fill="none" stroke="#000" stroke-linecap="round" stroke-linejoin="round" stroke-opacity=".3" stroke-width="__RESOLUTION__" d="m30.9 17.3 2.8 1.7h.3l1.8-.1 2.7-2 2.1 1.5h0l1.8-1.5.4 1.7 1.5.6v.4l-1.4 1.5m-15.1 1 3.5-.3-.4-4.5m12 4-.8 4.2h0l-.5 4" vector-effect="non-scaling-stroke"/><path fill="none" stroke="#5e4d2f" stroke-linecap="round" stroke-linejoin="round" stroke-width="__RESOLUTION__" d="m52.6 61.8-2.2.9M76 49l-.8 1" vector-effect="non-scaling-stroke"/><path fill="#77724d" d="m31.5 48.1-2.8.8.1-2.1zm14 7.3-2.8.9V54z"/><path fill="#817b52" d="m28.8 46.8-.1 2 2.8-.7L42.8 54l-.1 2.3 2.8-1 .5.4-.1 3.7-21-11.1 3.5-1.8z"/><path fill="none" stroke="#413e29" stroke-linecap="round" stroke-linejoin="round" stroke-width="__RESOLUTION__" d="m24.9 48.3 21 11" vector-effect="non-scaling-stroke"/><path fill="#b0ab84" d="m43.8 37.6.1 1 2.1-.8q.3 9.9-1.2 18.7l-.3.1-.9.2-1-.3q1.4-9.8 1.1-18.9"/><path fill="#676343" d="m46 37.8-2.1.8-.1-1-1.2-7.4q1.9 1 2.3 1z"/><path fill="none" stroke="#928c5f" stroke-linecap="round" stroke-linejoin="round" stroke-width="__RESOLUTION__" d="M43.8 37.6q.2 9-1.2 18.9" vector-effect="non-scaling-stroke"/><path fill="none" stroke="#888257" stroke-linecap="round" stroke-linejoin="round" stroke-width="__RESOLUTION__" d="m42.6 56.5 1 .3.9-.2.3-.1M46 37.8l-1.1-6.5m-2.3-1.1 1.1 7.4" vector-effect="non-scaling-stroke"/><path fill="#676343" d="m25.1 33.8-2.5 1.5-.7-.4q-.8-.1-.6-.8l3.9-2.7 2.2 3-1 .5z"/><path fill="#b0ab84" d="m27.4 34.4 3 14.2-.2.1-.9.2-1.1-.3-3.1-14.8 1.3 1.1z"/><path fill="none" stroke="#888257" stroke-linecap="round" stroke-linejoin="round" stroke-width="__RESOLUTION__" d="m25.1 33.8-2.5 1.5" vector-effect="non-scaling-stroke"/><path fill="none" stroke="#928c5f" stroke-linecap="round" stroke-linejoin="round" stroke-width="__RESOLUTION__" d="m28.2 48.6-3.1-14.8" vector-effect="non-scaling-stroke"/><path fill="#676343" d="m37.9 69.5-1.2 1-1-.5-1.4-8.5 2.2.9z"/><path fill="#b0ab84" d="m35.8 70 .9.6 1.2-1.1-1.4 18-1 .3-.8-.1-.2-.2z"/><path fill="none" stroke="#888257" stroke-linecap="round" stroke-linejoin="round" stroke-width="__RESOLUTION__" d="m37.9 69.5-1.4-7.1m-2 25.1.2.2.8.1 1-.2" vector-effect="non-scaling-stroke"/><path fill="none" stroke="#928c5f" stroke-linecap="round" stroke-linejoin="round" stroke-width="__RESOLUTION__" d="m36.6 87.6 1.3-18.1" vector-effect="non-scaling-stroke"/></g><g id="c"><path fill="#c9ac36" d="m9.8 3.4.7-.6.2-.1-.2.1zm2.6 1.7-.5-.1.6.3q1 .8 1.3 1.5.6 1-.7 1.5h-.4q-.6 0-1.3-.4-.6-.4-1.2-.4l-.1 1.8q.7-.6 1.6-.5l.9.1.7.3.6.7.6.9q.6 1.1-.6 1.3l-2.2-.1-1.1-.2h-.1l-.7-.4-.3-.3-.2-.8q0-.7.8-1-.7.3-.8 1l.2.8-.8 1.5-1.6.2q-2.4 0-4.1-1.6H.8Q-.4 11.1.2 10q.6-1.2 1.2-1.6l-.1-1.2q0-.9.3-1.7-1.3-2-.5-2.9.6-.8 2.2.4l.4-.3Q4 .8 5 .4q1-.5 2.6.8 4.2-3 3.1 1.5 4-.5 3.3 2.3l-1.4.1zM6.7 2.5l.2-.4.3-.4.4-.5-.4.5-.3.5zM11.9 5h-.5zm-.5 0H9.5l.6 1.5zM3.7 2.7v.6L3.3 3l.4.4zM3 11.2Q1.7 10 1.4 8.3q.3 1.5 1.6 2.8m6.2-3.5 1-.2z"/><path fill="#c89604" d="m12.5 5.4-.6-.4.5.1zm-2.2-.5h1.1l-1.3 1.6L9.5 5zm-.1 2.5q.6 0 1.2.4t1.3.4l-.1.6-.9-.1q-1 0-1.6.4zm.3 4.3-.4.2-1.4.6.8-1.5.3.3z"/><path fill="none" stroke="#784d08" stroke-linecap="round" stroke-linejoin="round" stroke-width="__RESOLUTION__" d="m10.7 2.7-.2.1-.7.6m2.6 1.7-.5-.1.6.3q1 .8 1.3 1.5.6 1-.7 1.5h-.4q-.6 0-1.3-.4-.6-.4-1.2-.4l-1 .2M12.4 5H14q.8-2.8-3.3-2.3 1-4.5-3.1-1.5l-.4.5-.3.5-.2.3M11.4 5h.4m-.5 0h-1.1m2.3 3.9.7.3.6.7.6.9q.6 1.1-.6 1.3l-2.2-.1-1.1-.2h-.1l-.7-.4-.3-.3-.2-.8q0-.7.8-1 .7-.6 1.6-.5zM3 11.2H.7Q-.4 11.1.2 10q.6-1.2 1.2-1.6h0m.2-2.9Q.3 3.5 1 2.6q.6-.8 2.2.4l.4.4v-.7Q4 .8 5 .4q1-.5 2.6.8" vector-effect="non-scaling-stroke"/><path fill="none" stroke="#784d08" stroke-linecap="round" stroke-linejoin="round" stroke-width="__RESOLUTION__" d="m10.5 11.8-.4.2-1.4.6-1.6.2q-2.4 0-4.1-1.6h0Q1.7 10 1.4 8.4l-.1-1.2q0-.9.3-1.7" vector-effect="non-scaling-stroke"/><path fill="none" stroke="#ccc" stroke-linecap="round" stroke-linejoin="round" stroke-width="1" d="M5.6 8.7h1.3M3.6 8l-1.2-.7"/><path fill="none" stroke="#000" stroke-linecap="round" stroke-linejoin="round" stroke-width="1" d="M5.2 8h1.3m-2.6-.4-1.3-.7"/></g><g id="b"><path fill="#ceb173" d="m78.7 5.5-1 .2zm-4.5.7L78.4 4l2.8 1.5-3 1.5-1.4.8zm11.4 1.5 3.9 1.9-3.3 1.4-.4-.1-3.1-1.6zm15.6 7.8 4.4 2.3-2.8 1.4-.2.2-3.8-2-1-.4zM2.1 18.3l.6-1.6 2-1 2.2 1.2 2.6-1.2 3.4-1.7q5.8 1.5 9.3-4.3l4.6-2.2 3.4-1.7-2.9-1.5-2.8 1.4 2.3 1.8 3.4-1.7 1.9 1 4.2-1.2 3.4 1.8-3.1 1.7-2.9-1.5Q20.4 19.4 6.3 20.4L3 18.8l3.9-1.9L3 18.8l-.1-.1zm48.4-5.1 4.7 2.4-.1.2-3.4 1.6-9.1 4.6-1.7-1.8q-2.1-2.1 3.8-6.9l3.5 1.8zm11.6-.9 3-1.5 2.4 1.7 2-1q5 7.9 20.3 10.6l1.1-.6 3.8 2-9 4.5-3-2.3 3 2.3-.9.4-2.7-1.6-.8-.4 1.4-.7 3.1-1.6 4-2-4 2q-10.2-.6-20.5-10.5l-1.8.9zm8.9-1.5 1.3-.7q16.1 2.7 21.8 9.9l-.6.2Q84 12.3 71 10.7m1 13.9q0-.4 2-2l1.7 1-2.5 1.6zm-1.4-3.7-2 1.9-2.7-1.4-.9-.5 2.5-1.7zm5.5 5.9q-.1-.5 1.6-2l3.2 1.6.3-.1.8.4-3.6 1.4zm26-9.2-1-.5zm-93 4.2q15.3.4 26.4-9.5l1.1-1 2.2-1 2.3 1.2-5.3 5.6q-5 4.8-2.3 6.8l2.5 1.4-7 3.4.4-2.7q2.6-10.5-11.3.4zM33.7 7.6l-1.6-.8zM49.2 16l2.5 1.4zl.1-.2-1.1-.7 1.1.7h.2zm8.6 1 3.2-1.3 5 2.7-2.5 1.6zm-32 40.3.2-.1 6.1.4-3.3 1.6-3-1.5zM40 58l3.9.3q-4 2-7.8 4.6l-3.9-2-.2-.1zm14.3.9 4.6.2 5.8-2.9q1.5 0 .5 2.1-1.5 2.9-4 3.2l-8.4 1.6q-6 1.1-7 .1-1.1-1-.1-2t3.5-1.4zm-3.9 11.3-3-1.5Q69 63.3 74.6 56.6l4.1 2.2-21.1 10.7zm17-57.7-2.2 1zm-63 4.4-1 .5z"/><path fill="#d5ba84" d="m74.2 6.2 2.6 1.5 1.4-.7 3-1.5 4.4 2.2-2.9 1.6 3.1 1.6.4.1 3.3-1.4 11.7 6-3.5 1.4 1 .5 3.9 1.9-7.9 4-3.8-2-1.2.6q-15.1-2.7-20.1-10.6l-2.1 1-2.4-1.7zM4.8 15.7l19.8-10 2.3 1.8-4.6 2.2Q18.8 15.5 13 14l-3.4 1.7L7 16.9zM27.3 4.3l3.3-1.7 3.3 1.8 2.4 1.2-4.2 1.2-1.9-1zm12.4 3.1L44 9.7l.3.2 6.2 3.3-2.3 1.9-3.5-1.8-3.7-1.8 3.7 1.8q-6 4.8-3.8 6.9l1.7 1.8-6.6 3.3-2.5-1.4q-2.6-2 2.3-6.8l5.3-5.6-2.3-1.2-2.2 1-1.1 1q-11.1 9.9-26.4 9.5l-2.8-1.4q14-1 27.4-12.8l2.9 1.5 2.2 1.2L36.6 9zm15.7 8.1 5.7-2.8 1-.5 1.5 2.2-2.4 1.2H61L57.9 17l-2.6-1.3zM78.2 7l4.5 2.3zM71 10.7l-1.4.7zl1.3-.7 4.5-2.2-4.5 2.2q16.1 2.7 21.8 9.9l-.6.2-2.6 1.3 2.6-1.3Q84 12.3 71 10.7m3 12q-2 1.6-2 1.9l-3.3-1.9 2-1.8zl-3.3-1.8-3.1-1.7-2.5 1.7-1.6-.9 2.6-1.6-5.1-2.7v-.1l2.5-1.2 1.8-1q10.3 10 20.5 10.6l-3.1 1.6-1.4.6-.3.2-3.2-1.6q-1.7 1.5-1.6 2l-3-1.6 2.5-1.6zm1.7 1 2.1 1.1zm6.4 3.1 2.8 1.6-.3.1-2.8 1.4-3.3-1.7zm12-6.8 4.7-2.4zm3.7-3-11.6-6zm-79.6 9.4Q32 15.5 29.4 26l-.4 2.8-3.1 1.5zm48-7.9 1.5.8zM59.5 15l-1.4 1zm13 37 2.5 1.4 6.9 3.7v.2L79 58.6l-.2.1-4.1-2.2q-5.6 6.7-27.2 12L36.2 63q3.8-2.6 7.8-4.6l10.4.6-5.1.9q-2.5.4-3.5 1.4t0 2 7-.1l8.5-1.6q2.5-.3 4-3.2 1-2.1-.5-2.1l5-2.5-.5-.2zm-40.2 8.9-3.2-1.5 3.4-1.7 7.8.4zm45.6-4.2 1.7 1zm-3-.1-5-2.7zM22.2 9.7 12.9 14z"/><path fill="#544529" d="m105.6 17.8.3-.1v63l-3.2 1.5V62.6l3.2-2.1-3.2 2.1q-4.9-9.5 0-19.1.4-.6 3.2-2.3-2.8 1.7-3.2 2.3v-20L99.6 25l-1.4.7-8 4-3.4 1.7-2.1 1v-4.1l.3-.1.8-.4 9-4.5 7.9-4h.2v4-4.1zM99.3 84l-1.9.9-.4-3.4 2.1-1 3.6-1.8-2.5-1.2-2.1-1 2.1 1q-4.3-31.4-.7-52.4l-1.4.7q-5.6 35.5 0 50.7l-8.5-4.3-5-2.5V50l-2.8-.2v-20l2.8-1.4v4.1l2-1 3.6-1.7q2 35.5-.6 42.4l-5-2.5v4.7l-2.8.5 2.8-.5v13.4l-2.8 1.4V74.9v14.3l2.8-1.4 2.2-1.1 5-2.5 1 3-11 5.6-24.5 12.4-4 2 .1-32v-2l4.3-3.8 21.1-10.7h.2v3.5l-3.2 1.6-2.7 1.4-5.5 2.8-3.6 1.8-4.6 2.3-2.2 1.1-3.8 2 3.8-2V82v-1.3q5.6 1.3 4.5 18.6l1.2-.5 2.8-1.5 4.9-2.4 5.9-3 1.5-.7 1-.6 2.8-1.4v3.6-3.6L79 90.6l-1 .6q-6.8-19.4-2.2-27.3l3.2-1.7v-3.6l2.8-1.4v-7.4l2.8.2V34.7l-2.8 1.6 2.8-1.6v-2.2 40.9q8.6 1.8 14.5 7.1zm5-62 .1-2zM29 28.9l7-3.6q.3.2.7 2.5L29.5 31q-.6-1.8-.5-2.4l-3.1 1.6v8.5q14.3-14 26-12.2v-1.9 7.8l-.1 5v-5q-5-9.7-25.8 10.4v7.6q2.7 3.8 25.9-11.1v-1.7l3.3-1.6-3.3 1.6V44h.2l3-1.6V28.7l.1-6.2v-6.7l-3.4 1.6-9.1 4.6-6.6 3.3q.3.1.7 2.4L29.5 31q-.6-1.8-.5-2.4M8.9 25l7.2 3.6 1.9.9 5.3 2.7v3.5L2.9 46V21.9l2.9 1.5zm34-.3-6.2 3zl-.3-2.7zl9-4.3v.2L55 19l-3.2 1.6v-.2zm9.3-6 1.5-.5zm1.8 5.5-2.1.5zm-2.1.5v-4.1zm1.3 15.6v1.8zm-10.5-1.1q-3.2 1-4.9 1-1.6 0-2.9.6-1.3.8-4 4.1-2.7 3.4 1.3 1.3t5.6-2.1 5.8-2.9q4.1-2.7 3.3-2.9-.9-.1-4.1.9m-6.4 27.4 2.8 1.4 5.1 2.7 3 1.4 2.2 1.1.5.3v1.9q-3.5 5-21.1 13.8V62.8l3.8 2zm2.9 1.4q-7.9 5.5-10.3 2.4 2.4 3 10.3-2.4m-16 10.9v9.5l-4-2q3-2.6 4-7.5m0-12.8V68l-3.6 1.8-8.8 4.5-1 .5-6.8 3.4-.2-.1V53.4l10 5h.2l2.4 1.3 2.8 1.4 1.6.8 3.4 1.8zm21 4.6q-6.1-.2-15.4 6.2 9.3-6.5 15.5-6.2M28.9 82.2q12.6-.4 20.6-9-8 8.6-20.6 9m0 7Q46.6 80.4 50 75.4v5.4L29.3 91.4l-.4-.2zM59.4 72l4.6-2.3q3.6 17.4 1.7 27.5l-2.8 1.5q2-20.1-3.5-26.7m8.2-4.1 5.5-2.8q-6.4 19.6 3.4 26.7l-5.9 3q-5.2-16-3-26.9M79 65.8v-3.6zl2.8-1.3zv17.6l2.8-1.2-2.8 1.2v7.3-24.8m2.8-8.6v7.2zm0 17.7V64.4zm23 4.8-.3-1.3zm-2-36.2v19.1zm-16.1-12q3.5 29.2-2.1 36.2 5.6-7 2-36.2m-57.1-.4-3.6 1.6zm53.6 1.3-.1-1.8zm-55.3-1.7-.7.6zm29.5 70.9 4.5-2.2zv3.6zv-7.2zm23.6-10.1-1 .5zm3.4-2.1-1.4.7zm-29 15 .1-2.2zm2-22.5v12.4q4.4-10.5 0-12.4m-34-42.5v4.4q-9.4-2.3-10.3 7.3l-3.6-1.8q-2.3-6.3 13.9-9.9M21 49.8l-2.8 1q-1.9.8-2-.2l-.1-1.3q0-.2.9-.4l3.7-1.2q2.7-1.1 1.9.1l-.7 1.5q0 .2-1 .5m2.4-17q-8.9 3.8-20.4 4.8 11.5-1 20.4-4.9m0 .9q-12.8 7-20.4 6.6 7.6.4 20.4-6.6M10.9 74.3l8.8-4.5q2.3 2.4-8.8 4.5m-2.4 6.6q9.7-8.4 14.8-7.4v2.7q-7-.7-12.1 6zm7-21.2q-6.5.9-12.6 6.1 6.1-5.2 12.6-6.1m2.8 1.4q-4.2-.7-15.4 8.8 11.2-9.6 15.4-8.8m-15.4 15q3.6 2.6 17-14.2-13.4 16.8-17 14.2m10-17.7q-3.1 0-10 4.7 6.9-4.6 10-4.7m-10-25.3q7.6-5.2 13.2-4.5-5.6-.7-13.2 4.5"/><path fill="#635130" d="M102.8 82.2 99.3 84l-.2-3.5 3.6-1.8V62.6q-4.9-9.5 0-19.1v-20L99.6 25q-3.6 21 .7 52.4l2.5 1.2zm-5.3 2.7-4.7 2.3-.9-3 5.2-2.7zm-7.2-55.1 7.9-4q-5.6 35.5 0 50.7l-8.5-4.3q2.6-7 .6-42.4m-33 43.4 2.2-1.1q5.4 6.6 3.5 26.7l-1.2.5q1.1-17.2-4.5-18.6zm6.8-3.4 3.6-1.8q-2.2 11 3 26.9l-4.9 2.4q1.9-10.1-1.7-27.5m9-4.6 2.8-1.4q-4.6 8 2.2 27.4l-1.4.7h-.1q-9.8-7.1-3.4-26.7m11.5 22.6v-2.9l2.2 1.8zm0-7.7v-3.4Q92 74.4 97 81.5l-5.2 2.7q-6.1 2.2-7.2-4.1M57.2 94.4V82q4.4 2 0 12.4"/><path fill="#8d7347" d="m53.3 107.2-3.4-1.8.1-3.5V73.5l3.4 1.7zm-10.5-5.4-5.1-2.5-.9-4 6.3 3.1zM31.3 96 26 93.3v-3.6l3 1.5.4.2 2.7 1.4zM19 89.9l-8-4v-3.7l8.2 4.2zM7.9 84.2l-5-2.5v-3.4l.2-.1 5.4 2.7zM.3 75.4v-6.5l2.6 1v6.3zm0-10.7V62l2.6 1v2.8zM.3 52v-7.2l2.6 1.3 6.5 3.3-.1 3.6h.2l3.7 1.9-.2-3.7 5 2.5.3 3.8-5-2.5-.1-.1 5.1 2.6 5 2.6V49.9l2.6.5v10.9l-2.6-1.2 2.6 1.3v-3.7l3 1.5v11.2l-3-1v-8.1 6L23.3 66v-2.4l-3.4-1.8-1.6-.8-2.8-1.4-2.4-1.2-.2-.1-10-5zm.1-13v-3L3 37.7v2.6zm.1-6.3.2-11.1 1.4-3.3.8.4v14.4zm68.2-9.9 3.4 1.8.2 5q0 1.5-.2 1.9-.3.5-.9-.9-.9-2-2.5-7.9m4.5 2.5 3 1.6q.1 5 .6 9 1.3 11.1 5 13.6V57L75 53.3l.3-2.2q.8-8.3-.5-17zm8.6 4.6v6.6Q78 33.6 78.5 28zM35.6 0h.1v.1zM6.3 20.3 9 21.8 8.9 25l-3.1-1.6zM18 29.5l.1-3.1 7.8 3.9v3.2l-2.6-1.3zM57.9 17l5.6 3-.7 2.9q-1 3.7-1.4 7l-3.5-7.4zv1.3L55 15.7h.2zm7.2 3.9.9.5 2 6.3q5.8 19 2.8 22L64 35.4q-1.4-8.1-.5-11.7.5-2 1.6-2.7M25.9 38.8v4q-.5.5-2.6-.3v-4.6q2.2 1.4 2.6.9m1.8 21.9-1-.4zm-1.8 15.2 3 1v5.3l-3-1.5zv-5l-2.6-.5v5.8l1.4-.7zM23.3 86l2.6.8v1.3l3 1v2.2l-3-1.6v-1.5 1.5l-2.6-1.3zm28.4 19.2-.5-1.5zM28 91.7l-.8.8zM2 47.9l-.6-.8zm21.3 12.2v3.6zm1.2-1.2-.3-.9zm-15.2-6-9-4.5zm13.8-22.3 1.4.7z"/><path fill="#9a7d4e" d="m49.9 105.4-7.1-3.6.3-3.4 6.9 3.5zm-12.2-6.2L31.2 96l.8-3.2 4.9 2.5zm-11.8-6-6.8-3.4.2-3.5 4 2 2.6 1.3zm-14.7-7.4-3.3-1.7.6-3.3 2.7 1.3zm-8.3-4.2L.3 80.4v-5.1l2.6.8v5.6M.3 68.8v-4.2l2.6 1.2v4zm0-6.8V52l2.6 1.4V63zm0-17.2L.4 39l2.5 1.2v5.9zm.2-8.7v-3.4l2.4.4v4.5zM72 24.6l1.1.6 1.6 8.9q1.3 8.7.5 17l-.3 2.2-2.7-1.4-.6-.3-.9-1.9q3-3-2.8-22l-2-6.3 2.7 1.4q1.6 5.9 2.5 7.8.6 1.4.9.9.2-.4.2-1.8zm6.4 3.5q-.5 5.5 3.3 8.3v13q-3.7-2.5-5-13.6-.5-4-.6-9zM9.1 21.8l9 4.6-.1 3.1-1.9-1L8.9 25zm52.3 8.1q.5-3.3 1.4-7l.7-2.9 1.6.9q-1.1.7-1.6 2.7-.9 3.6.5 11.7zM3 18.8l3.3 1.6-.5 3-2.9-1.5zm22.9 14.7v5.3q-.4.5-2.6-.9v-5.7zm0 9.3v7.6l-2.6-.5v-7.4q2 .8 2.6.3m-2.6 13.6v3.7l-5-2.6-.3-3.7zm24 15.7-3-1.4-5.1-2.7-2.9-1.4-.1-3.7 11.3 5.6zl.2-3.5 3 1.5h-.2l3.1 3.1v2L50 73.5l-.5-.3zm-11.1-9.2.1 3.7-3.6-1.8-3.8-2v-3.5l3.2 1.5.3.2zm-3.5 1.9-.4-3.8zm-3.8 12.1-3-1v4.8l3 1.5v7l-3-1v-1.4l-2.6-.8v-9.8l1.4-.7 1.2.4v-6.5l3 1zm-3-7.5V71l-2.6-.5v-4.3l2.6 1.2zm0 11.2v6.1zM9.3 53l.1-3.6 3.6 1.8.2 3.7-3.7-1.8zM1.8 79.8l-.5-1zM23.7 90l1 1.6z"/><path fill="#645231" d="m55.1 15.8 2.8 2.5v4.2l3.5 7.4q-1.6 10.5.9 16.5l-2.4-1.3-2-1.1V23.7L55 22.5v-6.7m0 6.7 2.8 1.2v-1.2V44l2 1.1 2.4 1.3q-2.5-6-.9-16.5l2.6 5.4 6.8 14.5q-.5.5-1.4.5L67 49.1l-.1-.1q-2.1-8-3-13.7.9 5.7 3 13.7l2.4 1.3q.9 0 1.4-.5l.9 1.8.6.3-3 1.6-2.9-1.6-3.7-2 3.1-1.5-3 1.5-3.4-1.8-3-1.7 3 1.7 3.4 1.8 3.6 2 2.8 1.6.5.3-4.9 2.4-5.8 2.9-4.6-.2 1.5-.4 7.5-2 1.4-.3-1.4.3-7.5 2-1.5.4-10.4-.6L40 58l-7.9-.4 2.5-1.3-2.5 1.3-6.1-.4-.2.1v-7q2.7 3.9 25.9-11V44h.2l3-1.6V28.7zm-3.2 4.1v5.9q-5.2-9.8-26 10.3v-4q14.3-14 26-12.2m6 3.3L55 28.8zm0 14.1L55 42.5zM52 44l3.3 1.9-9.2 4.6 9.1-4.6zm10.3 2.3 3.5 2zm-6 0 3.6-1.3zl-1.1-.5zm-25.7 8.5-4.5 2.3zl.4-.2zM51.8 44l-9.7 5-3.7 1.9-7.4 3.7 7.4-3.7 3.7-2zm-9-5q3.2-1 4-.8.9.2-3.2 3T37.9 44q-1.7 0-5.7 2-4 2.1-1.4-1.2 2.8-3.3 4.1-4t3-.7 4.9-1m-.9 13.5L38.4 51zl3.9-2zl-7.2 3.6-3.7-1.6 3.7 1.6zm.2-3.6 3.7 1.6zm24.3 2.8q-11.6.7-22.5 6.4 11-5.7 22.5-6.4M40.1 58q12.6-4.7 19.3-9.9-6.7 5.1-19.3 9.9m6-7.5-.3.2zm23.3-.2 2.3 1.3zM66.9 49l-1.1-.6z"/><path fill="#5e4d2f" d="M23.3 35.7v3.8Q7.1 43.1 9.4 49.4l-6.5-3.3V46zm0 14.2v6.5L18 53.8l-5-2.6q.9-9.6 10.3-7.3zm0 26.3v2.7q-1 4.9-4 7.5l-8.1-4.2q5-6.7 12.1-6m0-8.2v5.5q-5.1-1-14.8 7.4L3 78.2l6.8-3.5 1-.5q11-2 8.8-4.4zm61.3 16.9v-4.8q1.1 6.3 7.3 4l-5.2 2.6zm0-8.2v-3.3q8.6 1.8 14.5 7.1l-2.1 1q-5-7.1-12.4-4.8M50 80.8v21.1l-6.9-3.5-6.2-3.2-.1-.3q9.9-7 13.2-6.9-3.3 0-13.2 6.9v.3L32 92.9l-2.7-1.4zm0 2.6q-7.6 6.2-18 9.4 10.4-3.2 18-9.4m0 11.5q-2 2.6-6.9 3.5 4.9-.9 6.9-3.5M21 49.8q.9-.2.9-.4l.7-1.4q.8-1.3-2-.2L17 48.9q-1 .2-1 .4l.2 1.3q.1 1 2 .1zm-3 4q3.2-.5 5.3-2.8-2.1 2.3-5.3 2.9"/><path fill="#c49f55" d="m50.5 70.1 7.2-.7-4.3 3.8-3.1-3.1z"/><path fill="none" stroke="#000" stroke-linecap="round" stroke-linejoin="round" stroke-opacity=".3" stroke-width="__RESOLUTION__" d="m77.7 5.7 1-.2m2.5 0L78.5 4l-4.2 2.2-9.1 4.5-3 1.5-1 .5m15.7-5 1.4-.7 3-1.5 4.4 2.2 3.9 1.9 11.7 6 4.4 2.2.3-.1v63l-3.2 1.5-3.5 1.8-1.8.9-4.7 2.3-10.9 5.6-24.5 12.4-4 2h0l-3.4-1.8-7.1-3.6-5.1-2.5-6.5-3.3-5.3-2.7-6.8-3.4-8-4L8 84.2l-5-2.5-2.6-1.3V36l.1-3.3.2-11.1 1.4-3.3.6-1.6 2-1 19.8-10 2.8-1.5 3.3-1.6m3.3 1.8 2.4 1.2 3.4 1.8L44 9.7m.3.2 6.2 3.3 4.7 2.4h0l5.8-2.9m24.8-1.8-3.1-1.6L78.2 7m-10.7 5.4 2-1 1.5-.7 1.3-.7 4.5-2.2M74 22.7l-3.3-1.8-3.1-1.7-1.5-.8-5.1-2.7h0L57.9 17l5.6 3 1.6.9.9.5 2.7 1.4 3.4 1.8 1.1.6 3 1.6 2.3 1.3 3.3 1.7 2.8-1.4.3-.1-2.8-1.6-.8-.4 1.4-.7 3.1-1.6 4-2 1.1-.6 2.6-1.3.6-.2 4.7-2.4-1-.5-11.6-6M75.7 23.7l-1.7-1m3.8 2.1-2.1-1.1m9.1 4.7 1-.4 8.9-4.5 7.9-4-3.8-2m-14.2 11v4.1l2-1 3.6-1.7 7.9-4 1.4-.7 3.3-1.6v-4.2h-.2M81.8 29.9v20m2.8-15.1v-2.2m-6.7-7.7 3 1.6.4-.1M84.6 50V34.7M101.2 17l1 .5m.5 1.6 2.9-1.4m-1.2 2.3-.2 2M27.3 4.3l3 1.5 1.8 1 1.6.8 2.9 1.5 2.2 1.2 2.3 1.2 3.6 1.8 3.5 1.8 1.1.7m-40.2 6 9 4.6 7.8 3.9 3.1-1.6 7-3.4 6.6-3.3 9.1-4.6-2.5-1.4.3-.2M6.3 20.4 9 21.8M8.9 25l7.2 3.6 1.9.9 5.3 2.7 2.6 1.3v23.7M29.5 31l7.2-3.4 6.2-3 9-4.3v.2L55 19v-3.2l.2-.1 2.6 1.3v27l2 1.1 2.4 1.3 3.5 2 1.2.6m-9-33 1.4-1m4.1-.5L61 15.7m4.2-2.1-1.8.9m-11.7 3.1 3.4-1.6m0 3.2v9.7m-1.4-10.5-1.5.5m-.4 6v19.4h.2l3-1.6V28.8m-3-8.2v4.1m15 24.4 2.3 1.2 2.3 1.3.6.3 2.7 1.4 6.8 3.7v.2L79 58.6l-.2.1-21.1 10.7M30.3 5.8l-3.5 1.7-4.6 2.2-9.3 4.3m-3.4 1.7-2.6 1.2L3 18.8l3.3 1.6m-.5 3L8.9 25m44.3 17v-1.7m1.8 2.2 2.9 1.5M46 50.5l9.1-4.6L52 44m4.4 2.3 3 1.7 3.4 1.8 3.6 2 2.8 1.6.5.3 5 2.7 4.1 2.2M56.5 46.4l-1.1-.5M25.9 57.2v.1l.2-.1 4.5-2.3m.4-.2 7.4-3.7 3.7-2 9.7-4.9M23.3 32.2v27.9l2.6 1.3v-4.1m0-23.8v-3.2m16 22.4 3.9-2m-9.4 15.9 2.8 1.4 5.1 2.7 3 1.4 2.2 1.1.5.3v28.4l-.1 3.5m-2.4-36.9L36.2 63l-3.9-2-.2-.1-3.2-1.5V63l3.8 1.9 3.6 1.8M29 62.9v28.3l.4.2 2.7 1.4 4.9 2.5 6.2 3.1 6.9 3.5M32.3 57.6l2.4-1.3 7.2-3.6m-16 5 3 1.5 3.4-1.6m-5.6 2.7 1 .4m-1.8 6.5v-5.9m0 14.6V88m0-18.6v6.4m-2.6.3v12.2l2.6 1.3 3 1.5m-3-21.7v-2.2M23.3 66v10.1m24.2-7.7 3 1.6m-.5 3.4 3.4 1.7h0v-2m0 2 3.8-2m2.2-1.1 4.6-2.3m3.6-1.8 5.5-2.8 2.7-1.4 3.2-1.6v-3.6m.4-1-1.7-1m1.3 5.6v28.4l2.8-1.4V82m0-17.6v-7.2m0 17.7v7m0 7.3 2.8-1.4v-2.9m0-.4v-10m0-.1V50m-2.8 14.4v10.5m21 3.8v3.5m1.8-3.8.3 1.3m-4.6-2.2-2.1-1-8.5-4.3-5-2.5m18 9-3.5 1.8-2.1 1-5.2 2.7-5 2.5-2.2 1.1m15.6-10.3 2.5 1.2m0 0V23.5M81.9 57v-7.2M65.3 13.5l2.2-1.1M25.9 32.8l3.6-1.7m53.5-.5v1.8m-56-1.1.7-.6m54.1 62.1v-3.6M79 90.6l-1 .6-1.4.7m-.1 0-5.9 3m-4.9 2.4-2.8 1.5m-5.7 2.8v3.6M79.8 92l1.1-.5m2-1.4 1.4-.7m-33 14.3.5 1.5m3.6-3-.1 2.3m2-10.1V82M26 89.7v3.6m0-5.1v1.5m-2.6-1.3-4-2-8.1-4.2L8.5 81 3 78.2l-.2-.1v.2l.2-.1 6.8-3.5m17.3 17.8.8-.8m1.3-.3L50 80.8m3.3 26.4.1-32M2.9 18.8v3.1l2.9 1.5m-2.9-4.7-.8-.4m.8.4H3m.5-1.3.9-.5m5.1 36.2 3.7 1.8m-.2-3.7-3.6-1.8-6.5-3.3h0L.3 44.8m13 10.2 5 2.5 5 2.6v3.6l-3.4-1.8M18 53.8l-5-2.6m5 2.5 5.3 2.7M2.9 33.1v13m0-13V21.9M1.4 47.1l.6.8M.3 52l2.6 1.4 10 5m.2 0 2.4 1.3 2.8 1.4M2.8 46l20.4-10.3M2.9 65.8V53.4m0 24.7v-2m-1.6 2.7.5 1m9.1-5.5 8.8-4.5 3.6-1.8M2.9 69.9v-4.1m20.4-2.1V66m.9-8.1.3.9M.3 48.4l9 4.6m15.3-21.6-1.5-.7m1.6 60.9-1-1.6M2.9 81.7v-3.4" vector-effect="non-scaling-stroke"/><path fill="none" stroke="#ae915e" stroke-linecap="round" stroke-linejoin="round" stroke-width="__RESOLUTION__" d="m74.2 6.2 2.6 1.5m5.9 1.6 2.9-1.6M72.1 24.6q-.1-.4 1.9-2M70.7 21l-2 1.9m4.5 2.4 2.5-1.6m.5 3.2q-.1-.5 1.6-2m8 3-3.1-2.2m12-2.2-3.8-2m-12.4 6.7 3.6-1.4m19.1-11.2L97.7 17m-4.1 3Q84 12.3 71 10.7m23 9.2q-5.6-7.2-21.7-10m17.2-.3L86.2 11m-16.6.4q5 7.9 20.2 10.6M32 6.8l4.2-1.2m11.9 9.5 2.3-2m-11.7-2.8-2.2 1-1.1 1Q24.3 22.2 9 21.8m9 4.6q14-10.9 11.4-.4l-.4 2.8m7-3.6L33.5 24q-2.6-2 2.3-6.8l5.3-5.6m-7.4-3.9Q20.4 19.4 6.3 20.4M42.6 22l-1.7-1.8q-2.1-2.1 3.8-6.9m-5-5.9-3.1 1.7M63.5 20l2.6-1.6m-1 2.5 2.5-1.7m-4.1-4.8-1.4-2.2M22 9.7q-3.2 5.8-9 4.3l-3.4 1.7m59.8 37.8 3-1.6M44 58.3q-4 2-7.8 4.6m3.9-4.9-8 2.8m22.3-2-5.1 1q-2.5.4-3.5 1.4t0 2 7-.1l8.5-1.6q2.5-.3 4-3.2 1-2.1-.5-2.1m9.9.3q-5.6 6.7-27.2 12M85.8 24q-10.2-.6-20.5-10.5m2.2-1.1L65 10.7m-60.4 5 2.2 1.2m19.9-9.4-2.3-1.8" vector-effect="non-scaling-stroke"/><path fill="none" stroke="#6f0" stroke-linecap="round" stroke-linejoin="round" stroke-width="__RESOLUTION__" d="m44 9.7.3.2m42 1.1-.4-.1M35.7.1h-.1M30.7 55l.4-.2m14.8-4 .3-.2m38.5 34.3v-.4M26 88.4V88M9.3 53h.2m3.4 5.4h.2" vector-effect="non-scaling-stroke"/><path fill="none" stroke="#705b38" stroke-linecap="round" stroke-linejoin="round" stroke-width="__RESOLUTION__" d="M68.7 22.8q1.6 5.9 2.5 7.8.6 1.4.9.9.2-.4.2-1.8l-.2-5.1m6.4 3.5q-.5 5.5 3.3 8.3M9.1 21.8 8.8 25m9.1 4.5.1-3.1m43.3 3.5q.5-3.3 1.4-7l.7-2.9m1.6.9q-1.1.7-1.6 2.7-.9 3.6.5 11.7m6.8 14.5q3-3-2.8-22.1l-2-6.3m9 31.9.3-2.2q.8-8.3-.5-17l-1.6-8.9m-67-4.8-.4 3M47.3 72l.2-3.5m-11.3-5.7.1 3.7m-4-5.6.4 3.8m-3.8 12.1-3-1-1.2-.5-1.4.8m2.6 4.5 3 1.5m0-11.8-3-1M23.3 86l2.6.8m0-19.5L23.3 66m0 4.3 2.6.5m55.9-21.5q-3.7-2.5-5-13.6-.5-4-.6-9M28.9 89.2l-3-1m-6.6-1.8-.2 3.5m23.7 11.9.3-3.4m-6.2-3.2.8 4M31.2 96l.8-3.2M9.4 49.4 9.3 53m3.9 1.9-.2-3.7m5.3 6.3-.3-3.7M2.9 37.6.5 36m0-3.4 2.4.4M.4 39l2.5 1.2m0 22.9L.3 62m0 2.6 2.6 1.2m0 4-2.6-1m2.6 7.3-2.6-.8m8.2 5.6-.6 3.3m3.3-2V86" vector-effect="non-scaling-stroke"/><path fill="none" stroke="#3d321d" stroke-linecap="round" stroke-linejoin="round" stroke-width="__RESOLUTION__" d="m81.8 36.4 2.8-1.7m-2.8 15.1 2.8.2M29 28.8q-.1.5.5 2.3m7.2-3.4q-.5-2.3-.7-2.4m6.9-.6-.3-2.7m12.5.5 2.8 1.2m-6.1 13.9 3.3-1.6m-3.2-11.3 2.1-.5m8.3 22.2q-2.5-6-.9-16.5m2.6 5.4q.9 5.7 3 13.7m2.4 1.3q.9 0 1.4-.5m-15.7-21 2.8 1.1m4.9 20 3-1.5m-6-3.3-3.4 1.3m-4.6-7.1q-23.2 14.9-25.9 11m16.9-11.1q3.2-1 4-.9.9.2-3.2 3T37.9 44t-5.7 2-1.4-1.2q2.8-3.3 4.1-4t3-.7 4.9-1m-16.9 3.5q20.8-20 26-10.2m-26 6.3q14.3-14 26-12.2M38.4 51l3.5 1.7m3.9-2L42.1 49m1.9 9.1q10.9-5.6 22.4-6.3M28.9 70.4q2.4 3 10.3-2.4m-4.5-11.7L31 54.7m-2.1 22.2q9.3-6.5 15.5-6.2m10-11.9 1.5-.3 7.5-2 1.4-.3m-15.3 17q-8 8.6-20.6 9m0 7Q46.6 80.4 50 75.4m7.2-2.2 2.2-1.1q5.4 6.6 3.5 26.7l-1.2.5-4.5 2.3v-7.2q4.4-10.5 0-12.4zm6.8-3.4 3.6-1.8q-2.2 11 3 26.9l-4.9 2.4q1.9-10.1-1.7-27.5m-4.6-21.7q-6.7 5.1-19.3 9.9m62.7-14.5q.3-.6 3.1-2.3M79 65.7l2.8-1.3m2.8 10-2.8.5m21-12.3 3.1-2.1m-6.8 20 .2 3.5m3.5-21.4q-5-9.5 0-19.1M84.6 73.4q8.6 1.8 14.5 7.1m-2.1 1 .4 3.4M84.6 67.7q5.6-7 2-36.2m12.9-6.4q-3.6 21 .7 52.4m-2.1-1q-5.6-15.2 0-50.7m-8 4q2.1 35.5-.5 42.4m2.3 12 .8 3M81.9 82 79 83.4m7.8 3.4L84.6 85m-27.4-4.2q5.6 1.3 4.5 18.6m-24.8-4-.1-.4q9.9-7 13.2-6.9m-18 4.8q10.4-3.2 18-9.4m-6.9 15Q48 97.6 50 95m41.8-10.7q-6.1 2.2-7.2-4.1M76.5 92q-9.8-7.1-3.4-26.7m11.5 11.5Q92 74.4 97 81.5m-19 9.7q-6.8-19.4-2.2-27.3M13 51.2q.9-9.6 10.3-7.3M21 49.8l-2.8 1q-1.9.8-2-.2l-.1-1.3q0-.2.9-.4l3.7-1.2q2.7-1.1 1.9.1l-.7 1.5q0 .2-1 .5m2.4 1.1q-2.1 2.3-5.3 2.9m-8.6-4.4q-2.3-6.3 13.9-9.9m-20.4-2q11.5-1 20.4-4.7M2.9 40.2q7.6.4 20.4-6.6m-5 27.5 1.6.8Q6.5 78.7 2.9 76.1v-6.2q11.2-9.6 15.4-8.8M8.5 80.9q9.7-8.4 14.8-7.4M2.9 65.9q6.1-5.2 12.6-6.1m7.8 16.5q-7-.7-12.1 6m8.1 4.2q3-2.6 4-7.5m-12.4-4.7q11-2 8.8-4.4M2.9 63.1q6.9-4.6 10-4.7m3.2-29.8q-5.6-.7-13.2 4.5" vector-effect="non-scaling-stroke"/><path fill="none" stroke="#665333" stroke-linecap="round" stroke-linejoin="round" stroke-width="__RESOLUTION__" d="M23.3 37.9q2.2 1.4 2.6.9m0 11.6-2.6-.5m0-7.4q2 .8 2.6.3" vector-effect="non-scaling-stroke"/><path fill="#77724d" d="m49.4 97.9-2.6.8v-2.1zm-13.2-6.7-2.7.7.2-2z"/><path fill="#817b52" d="m46.9 96.6-.1 2.2 2.6-.9.5.3v3.5L29.5 91.2l3.3-1.7.9.4-.2 2 2.7-.7z"/><path fill="none" stroke="#413e29" stroke-linecap="round" stroke-linejoin="round" stroke-width="__RESOLUTION__" d="m29.5 91.2 20.4 10.5" vector-effect="non-scaling-stroke"/><path fill="#817b52" d="m3 78 3.3-1.7.9.4-.2 2 2.7-.7 10.7 5.4-.1 2.1 2.6-.8.5.3v3.5z"/><path fill="#77724d" d="m22.9 84.7-2.6.8v-2.1zM9.7 78l-2.7.7.2-2z"/><path fill="none" stroke="#413e29" stroke-linecap="round" stroke-linejoin="round" stroke-width="__RESOLUTION__" d="m3 78 20.4 10.5" vector-effect="non-scaling-stroke"/><path fill="#77724d" d="m7.2 44.5 2.5 1.3-2.7.7zm13.2 6.7 2.5 1.3-2.6.9z"/><path fill="#817b52" d="m9.7 45.8 10.7 5.4-.1 2.1 2.6-.8.5.3v3.5L3 45.8l3.3-1.7.9.4-.2 2z"/><path fill="none" stroke="#413e29" stroke-linecap="round" stroke-linejoin="round" stroke-width="__RESOLUTION__" d="M23.4 56.3 3 45.8" vector-effect="non-scaling-stroke"/><path fill="#817b52" d="m95.8 78.6 2.6.7v-2l.8-.3 3.3 1.6-17.9 9V84l.5-.3 2.6.9-.1-2.2z"/><path fill="#77724d" d="M98.4 77.3v2l-2.6-.7zm-10.7 5.2v2.2l-2.5-.9z"/><path fill="none" stroke="#413e29" stroke-linecap="round" stroke-linejoin="round" stroke-width="__RESOLUTION__" d="m84.6 87.6 17.9-9" vector-effect="non-scaling-stroke"/></g><clipPath id="a"><path d="M1 1h107v108H1z"/></clipPath></defs><g clip-path="url(#a)"><g transform="translate(26.6 81.7)"><use xlink:href="#b" width="106.2" height="107.5" transform="translate(-25.6 -80.7)"/><use xlink:href="#c" width="14.7" height="13.1" transform="translate(-17 -48.25)"/><use xlink:href="#d" width="95.3" height="91.5" transform="translate(-21.5 -74.15)"/></g></g></svg>