<svg xmlns="http://www.w3.org/2000/svg" xmlns:xlink="http://www.w3.org/1999/xlink" width="18" height="17" viewBox="0 0 18 17"><defs><clipPath id="b"><path d="M1 1h16v15H1z"/></clipPath><use xlink:href="#a" id="c" width="24.1" height="17.9"/><g id="a"><path fill="#9b9893" d="m23 2.3.4.4q2.6 8.3-4.6 14l-.6-.6q-1.6-1.5-2.2-3.5l-.5-1.2 1-.8q.7-5.1-1-9.7l-.3-.3.5-.5q3.8.2 7.3 2.2l-5.4 5z"/><path fill="#52504b" d="m16 12.6.8 5.4q-6.5-1-12.4-4L.6 11.9v-1.7L0 9.5l2.4-.8q5.6 2.8 11.9 2.7h1.2z"/><path fill="#7b7871" d="m2.4 8.7-.2-.4L14.6 0l.6.6.3.3q1.7 4.6 1 9.7l-1 .8h-1.2q-6.3.1-12-2.7"/><path fill="none" stroke="#423837" stroke-linecap="round" stroke-linejoin="round" stroke-width="__RESOLUTION__" d="M23.4 2.7q2.6 8.3-4.6 14l-.6-.6q-1.6-1.5-2.2-3.5l.8 5.4q-6.5-1-12.4-4L.6 11.9v-1.7L0 9.5l2.4-.8-.2-.4L14.6 0m.6.6.5-.5q3.8.2 7.3 2.2" vector-effect="non-scaling-stroke"/><path fill="none" stroke="#70625f" stroke-linecap="round" stroke-linejoin="round" stroke-width="__RESOLUTION__" d="m23 2.3-5.4 5m-2.1 4-1.2.1q-6.3.1-12-2.7M15.2.6l.3.3q1.7 4.6 1 9.7l-1 .8" vector-effect="non-scaling-stroke"/></g></defs><g clip-path="url(#b)"><g transform="translate(14.85 9.5)"><use xlink:href="#c" width="24.1" height="17.9" transform="matrix(-.2656 .0117 .0117 .2656 -.35 -8.5)"/><use xlink:href="#c" width="24.1" height="17.9" transform="matrix(-.2656 .0117 .0061 .1387 -4.6 -1.9)"/><use xlink:href="#c" width="24.1" height="17.9" transform="matrix(-.0941 .0041 .0041 .0941 1.8 -.95)"/><use xlink:href="#c" width="24.1" height="17.9" transform="matrix(-.1317 .0058 .0058 .1317 -10.7 4)"/></g></g></svg>