<svg xmlns="http://www.w3.org/2000/svg" xmlns:xlink="http://www.w3.org/1999/xlink" width="26" height="14" viewBox="0 0 26 14"><defs><clipPath id="a"><path d="M1 1h24v12H1z"/></clipPath><g id="b"><path fill="#e3edf0" d="M3.9 7.3q-.6-3.6 5-7.3l.3.2q4.2 3.1 2.3 6Q9.4 9 3.9 7.3"/><path fill="#7aabbc" d="M3.9 7.3Q9.4 9 11.5 6.2q1.9-2.9-2.2-6 4.9.3 5.5 8-.8-.8-3.5 1T3.9 7.7z"/><path fill="#e3edf0" d="M15.8 11v-.2l-.2-.8q0-1.3 1.3-2.6T20 6l.8.2q3.7 5.4-4.9 4.8"/><path fill="#7aabbc" d="M20.7 6.2q1.3.1 2.2 1.2 1 1.3 1.1 2.6-.1 1.3-1.1 1.6l-3 .4-3-.4q-.7-.2-1.1-.6 8.6.6 4.9-4.8"/><path fill="#e3edf0" d="M.3 11v-.2L0 10q0-1.3 1.5-2.6Q2.7 6 4.4 6l.8.2Q8.9 11.6.3 11"/><path fill="#7aabbc" d="M5.2 6.2q1.3.1 2.2 1.2 1 1.3 1.1 2.6-.1 1.3-1.1 1.6l-3 .4-3-.4q-.6-.2-1-.6 8.6.6 4.9-4.8"/></g></defs><g clip-path="url(#a)"><use xlink:href="#b" width="24" height="12" transform="translate(1 1)"/></g></svg>