<svg xmlns="http://www.w3.org/2000/svg" xmlns:xlink="http://www.w3.org/1999/xlink" width="224" height="691" viewBox="0 0 224 691"><defs><g id="bc"><path fill="url(#a)" d="M-8 13.4Q-1.3-.7-.5 1.3q5.2.5 4 14.9T-12 59.8q-3-32.4 4-46.4" transform="translate(13.35 -.55)"/><path fill="none" stroke="#363c0d" stroke-linecap="round" stroke-linejoin="round" stroke-opacity=".3" stroke-width="1" d="M5.3 12.8q-6.8 14-3.9 46.5Q15.8 30 17 15.7T12.9.6q-.7-2-7.6 12.1"/></g><g id="bb"><path fill="#546215" d="M48.1.5q6.8 2 17.2.6L58.6 3l-.6.2Q35.8 11.3.5 41.8 26 6.1 48.1.5"/><path fill="#374a10" d="M65.3 1q7.2.7 21 12.3Q64 1.6 58.6 3z"/><path fill="none" stroke="#34390c" stroke-linecap="round" stroke-linejoin="round" stroke-opacity=".3" stroke-width="1" d="M48.1.5q6.8 2 17.2.6"/><path fill="none" stroke="#34390c" stroke-linecap="round" stroke-linejoin="round" stroke-opacity=".3" stroke-width="1" d="M65.3 1q7.2.7 21 12.3Q64 1.6 58.6 3l-.6.2Q35.8 11.3.5 41.8 26 6.1 48.1.5m17.2.6L58.6 3"/></g><g id="ba"><path fill="#455110" d="M.5 4.2Q41.3-7.4 65.1 17.7 26.1 3.2.5 4.2"/><path fill="none" stroke="#2d3209" stroke-linecap="round" stroke-linejoin="round" stroke-opacity=".3" stroke-width="1" d="M.5 4.2q25.6-1 64.6 13.5Q41.3-7.4.5 4.2"/></g><g id="aZ"><path fill="#6f6231" d="M1.3 7.9q1.5-11 1.7-6 1.1-4.1.7 5.8t.1 18.8l.5 4.9v.6l.8 1.5-.5 1.4-1 .7z"/><path fill="#897c5c" d="m1.3 7.9 2.4 27.7-.8.5-1.7-.4H1l-.7-1.9.5-1.6-.2-2.8q-.7-12.1 0-18z"/><path fill="none" stroke="#000" stroke-linecap="round" stroke-linejoin="round" stroke-opacity=".3" stroke-width="__RESOLUTION__" d="m3.7 35.6.9-.7h0l.5-1.4-.8-1.5v-.6l-.4-4.9q-.7-9-.2-18.8T3 1.9q-.2-5-1.7 6l-.5 3.4q-.8 6-.1 18.1l.2 2.8-.5 1.6.7 1.9h0l1.8.4z" vector-effect="non-scaling-stroke"/></g><g id="aY"><path fill="#6f6231" d="m3.5 13.7.9-.7.6 6.2q.8 5.7 3.2 15.1l-.2.8-1.2.6q-1.1.3-1.4-.2z"/><path fill="#897c5c" d="M5.4 35.5Q2.9 37 2.1 32.4v-1L1 13.9.4.3l3.1 13.3z"/><path fill="none" stroke="#000" stroke-linecap="round" stroke-linejoin="round" stroke-opacity=".3" stroke-width="__RESOLUTION__" d="m4.4 13 .6 6.2q.8 5.7 3.2 15.1l.4-4.2-.2 5.3-.2-1.1-.2.8-1.2.6q-1.1.3-1.4-.2-2.5 1.6-3.3-3.1v-1l-1 2.2.4 2.1 1.9 1.1m-1.3-5.3L1 13.8.4.3l3.1 13.3" vector-effect="non-scaling-stroke"/></g><g id="aX"><path fill="#b9a352" d="M.5 8.1q.4-11.5.9-6 .5-4.1.8 6.5t1.2 20.6l.6 5.4v.7l.7 1.9-.3 1.3-.6.5zM3.8 39l.6-.5.8 7q.9 6.4 3 17.3v.8l-.8.4q-.8 0-1-.7z"/><path fill="#e5cf99" d="M.5 8.1 3.8 39l-.5.4-1.2-1-.7-2.3.3-1.6-.3-3.1Q.2 18 .4 11.8zm1.6 30.3 1.2 1 .5-.4 2.6 24.3q-1.7 1-2.5-4.2V58z"/><path fill="none" stroke="#000" stroke-linecap="round" stroke-linejoin="round" stroke-opacity=".3" stroke-width="__RESOLUTION__" d="M4.4 38.6v-.1l.3-1.3-.6-1.9-.1-.7-.6-5.4q-1-10-1.2-20.6Q1.9-2 1.4 2.1q-.5-5.5-.9 6l-.1 3.7q-.2 6.2 1 19.6l.3 3.1-.3 1.6.7 2.3h0l1.2 1 .5-.4zl.8 7q.9 6.4 3 17.3l.3 1.2m-2.1-.7q.2.7 1 .7l.8-.4v-.9m-1.8.5q-1.7 1.1-2.5-4.1V58l-.5 2 .3 2.5 1.4 1.8m-3-25.9L3.9 58" vector-effect="non-scaling-stroke"/></g><g id="aV"><path fill="#93803d" d="M8.6 3 7.2 4.4 3.5 5l-.8-.2-2-1.7V3Q.8 1.6 2 1q1.9-1 4-.5 2.4.3 2.6 2.4M7.3 3q0-.6-.8-1l-1.9-.5-1.9.5q-.8.4-.8 1t.8 1l1.9.4q1.1 0 1.9-.4t.8-1"/><path fill="#9b8e47" d="m7.2 4.5 1.4-1.6q-.8 4.8-.7 8.2l-1.6.2q.1-1.7.9-5.7zm-3.7 6v1.6l-.5-.8.1-1.1zM8 12.4q.3 7.6.6 9 0 1-.4 1.6l-1 .7-.3-2.4V21q-.5-3.6-.6-9.2zM3.3 24.1l-3-1.6.5-4.2.8 1.1 1.7.9zM1 15.8l.3-2.6 2 1.4h.1v4.2l-.5-.4zm.3-9.6Q1.2 5.6 1 6V4.5l1.1 1h.3l1.2-.1.1 1.2v2.6L3 8.8z"/><path fill="#806f37" d="m.6 3.1 2.1 1.7.8.4V5l3.7-.5v1.1l-1-.3h-.9l-1 .1-.7 1.2-.1-1.2-1.2.1H2l-1.1-1zM7.4 3q0 .6-.8 1t-1.9.4l-2-.4q-.8-.4-.8-1t.8-1l1.9-.5 1.9.5q.8.4.8 1"/><path fill="#e4d59a" d="m2.7 4.8.8.2v.2z"/><path fill="#958745" d="M7.2 5.6q-.8 4-.9 5.7L6 11v-.7l-.1.6-1.3-1 .7-4.6h.9zM4.5 10l-1-.7.1-2.5.7-1.3zm-1 1 2.3.7-.2 3.2-1-.7L3.5 12zm2 4-.2 5.3-2-1.4.1-4zm.7 5.9L6 11.6l.2.1q.1 5.6.5 9.3zm1 2.9-1 .3v-2.7h.6zm-2 .6h-2l.1-4 1.3.7.7.1z"/><path fill="#a9a156" d="m6.4 11.3 1.4-.2.2 1.2-1.7-.6zm-1 8.8 1 .6.5.3v.1l.1.1h-.7l-.9-.2z"/><path fill="#e5d97b" d="m5.9 11-.2.5-2.2-.7V9.2l1 .7V11l.1-1zm-.4 3.7-2.1-.2V12l1.3 2zm.5-3.1V11l.3.3v.4zM5.3 21l-.7-.1-1.3-.6v-1.6l2 1.4z"/><path fill="#86763f" d="m5.8 11.5.1-.6v-.6l.1.7v.6l.3 9.1-1-.6.3-5.3v-.1zM4.6 9.9 4.5 11zl-.2-4.4h1zm1.7 14-1.1.3.1-3.2 1 .1z"/><path fill="#e8e0a2" d="m3.6 9.2-.1 1.3-.4-.3-.1 1.1.5.8-.1 2.5-2.1-1.4.2-2.9-.2-4.1L3 8.8zM.8 18.3l.2-2.5 1.9 2.6.5.4-.1 1.4-1.6-.8z"/><path fill="none" stroke="#141810" stroke-linecap="round" stroke-linejoin="round" stroke-opacity=".3" stroke-width="__RESOLUTION__" d="M8.6 3Q8.4.7 6 .4 3.9 0 2 1 .8 1.6.7 3v0l.2 1.4L1 6q.2-.4.3.2l.2 4.1-.2 2.9-.3 2.6-.2 2.5-.5 4.2M8 11.1q-.1-3.4.7-8.1m-.8 8v1.2q.4 7.6.7 9" vector-effect="non-scaling-stroke"/><path fill="none" stroke="#141810" stroke-linecap="round" stroke-linejoin="round" stroke-opacity=".3" stroke-width="__RESOLUTION__" d="M7.3 2.9q0-.6-.8-1l-1.9-.5-1.9.5q-.8.4-.8 1t.8 1l1.9.4q1.1 0 1.9-.4t.8-1m-5 2.6H2" vector-effect="non-scaling-stroke"/></g><g id="aU"><path fill="#897031" d="M8.6 3 7.2 4.4 3.5 5l-.8-.2-2-1.7V3Q.8 1.6 2 1q1.9-1 4-.5 2.4.3 2.6 2.4M7.3 3q0-.6-.8-1l-1.9-.5-1.9.5q-.8.4-.8 1t.8 1l1.9.4q1.1 0 1.9-.4t.8-1"/><path fill="#927f3c" d="m7.2 4.5 1.4-1.6q-.8 4.8-.7 8.2l-1.6.2q.1-1.7.9-5.7zm-3.7 6v1.6l-.5-.8.1-1.1zM8 12.4q.3 7.6.6 9 0 1-.4 1.6l-1 .7-.3-2.4V21q-.5-3.6-.6-9.2zM3.3 24.1l-3-1.6.5-4.2.8 1.1 1.7.9zM1 15.8l.3-2.6 2 1.4h.1v4.2l-.5-.4zm.3-9.6Q1.2 5.6 1 6V4.5l1.1 1h.3l1.2-.1.1 1.2v2.6L3 8.8z"/><path fill="#755e2b" d="m.6 3.1 2.1 1.7.8.4V5l3.7-.5v1.1l-1-.3h-.9l-1 .1-.7 1.2-.1-1.2-1.2.1H2l-1.1-1zM7.4 3q0 .6-.8 1t-1.9.4l-2-.4q-.8-.4-.8-1t.8-1l1.9-.5 1.9.5q.8.4.8 1"/><path fill="#e0cc96" d="m2.7 4.8.8.2v.2z"/><path fill="#8c7839" d="M7.2 5.6q-.8 4-.9 5.7L6 11v-.7l-.1.6-1.3-1 .7-4.6h.9zM4.5 10l-1-.7.1-2.5.7-1.3zm-1 1 2.3.7-.2 3.2-1-.7L3.5 12zm2 4-.2 5.3-2-1.4.1-4zm.7 5.9L6 11.6l.2.1q.1 5.6.5 9.3zm1 2.9-1 .3v-2.7h.6zm-2 .6h-2l.1-4 1.3.7.7.1z"/><path fill="#a1944c" d="m6.4 11.3 1.4-.2.2 1.2-1.7-.6zm-1 8.8 1 .6.5.3v.1l.1.1h-.7l-.9-.2z"/><path fill="#e2d073" d="m5.9 11-.2.5-2.2-.7V9.2l1 .7V11l.1-1zm-.4 3.7-2.1-.2V12l1.3 2zm.5-3.1V11l.3.3v.4zM5.3 21l-.7-.1-1.3-.6v-1.6l2 1.4z"/><path fill="#7b6633" d="m5.8 11.5.1-.6v-.6l.1.7v.6l.3 9.1-1-.6.3-5.3v-.1zM4.6 9.9 4.5 11zl-.2-4.4h1zm1.7 14-1.1.3.1-3.2 1 .1z"/><path fill="#e5d89e" d="m3.6 9.2-.1 1.3-.4-.3-.1 1.1.5.8-.1 2.5-2.1-1.4.2-2.9-.2-4.1L3 8.8zM.8 18.3l.2-2.5 1.9 2.6.5.4-.1 1.4-1.6-.8z"/><path fill="none" stroke="#000" stroke-linecap="round" stroke-linejoin="round" stroke-opacity=".3" stroke-width="__RESOLUTION__" d="M8.6 3Q8.4.7 6 .4 3.9 0 2 1 .8 1.6.7 3v0l.2 1.4L1 6q.2-.4.3.2l.2 4.1-.2 2.9-.3 2.6-.2 2.5-.5 4.2M8 11.1q-.1-3.4.7-8.1m-.8 8v1.2q.4 7.6.7 9" vector-effect="non-scaling-stroke"/><path fill="none" stroke="#000" stroke-linecap="round" stroke-linejoin="round" stroke-opacity=".3" stroke-width="__RESOLUTION__" d="M7.3 2.9q0-.6-.8-1l-1.9-.5-1.9.5q-.8.4-.8 1t.8 1l1.9.4q1.1 0 1.9-.4t.8-1m-5 2.6H2" vector-effect="non-scaling-stroke"/></g><g id="aT"><path fill="url(#b)" d="M-8 13.4Q-1.3-.7-.5 1.3q5.2.5 4 14.9T-12 59.8q-3-32.4 4-46.4" transform="translate(13.35 -.55)"/><path fill="none" stroke="#181a0a" stroke-linecap="round" stroke-linejoin="round" stroke-opacity=".3" stroke-width="1" d="M5.3 12.8q-6.8 14-3.9 46.5Q15.8 30 17 15.7T12.9.6q-.7-2-7.6 12.1"/></g><g id="aS"><path fill="#414b16" d="M39 1Q32.6.7 27.8 9.4L26.3 12l-4 6.7Q13.5 33.5.9 50.7q-1.5-18 5.2-30 1.8-3.2 4.2-6l3-3.2Q28-1.8 39 1"/><path fill="none" stroke="#181a0a" stroke-linecap="round" stroke-linejoin="round" stroke-opacity=".3" stroke-width="1" d="M39 1Q28-1.8 13.3 11.5l-3.1 3.2q-2.4 2.8-4.2 6-6.7 12-5.2 30 12.6-17.2 21.6-31.9l3.9-6.7 1.5-2.7Q32.6.7 39 .8"/></g><g id="aR"><path fill="#343d12" d="M48.1.5q6.8 2 17.2.6L58.6 3l-.6.2Q35.8 11.3.5 41.8 26 6.1 48.1.5"/><path fill="#1b280e" d="M65.3 1q7.2.7 21 12.3Q64 1.6 58.6 3z"/><path fill="none" stroke="#181a0a" stroke-linecap="round" stroke-linejoin="round" stroke-opacity=".3" stroke-width="1" d="M48.1.5q6.8 2 17.2.6"/><path fill="none" stroke="#181a0a" stroke-linecap="round" stroke-linejoin="round" stroke-opacity=".3" stroke-width="1" d="M65.3 1q7.2.7 21 12.3Q64 1.6 58.6 3l-.6.2Q35.8 11.3.5 41.8 26 6.1 48.1.5m17.2.6L58.6 3"/></g><g id="aQ"><path fill="url(#d)" d="M-13.2 39.3Q-14.7 7-9.6 5.3q6.5-2 14.5-3.6.6-.7-.5 13.7l-.9 5.5-6.6-.5-1.6-.1q-.2 0-.9 2.2-.8 2.6-.8 4.9 0 .9.9 2.6.8 1.6.8 2.9 0 1-1.2 2.6t-2.4 1.7q-1.5 0-3.1-.8-.8 0-1.8 2.9" transform="translate(14 -1.15)"/><path fill="#4d481d" d="M.8 38.2q1-3 1.8-3 1.6.9 3.1.9 1.1 0 2.4-1.7t1.2-2.6q0-1.3-.9-3t-.8-2.6q0-2.2.8-4.8.7-2.3 1-2.3l1.4.1 6.8.6Q14.6 33.9 2 58.6 1 47.2.8 38.1"/><path fill="none" stroke="#0e0f06" stroke-linecap="round" stroke-linejoin="round" stroke-opacity=".3" stroke-width="1" d="m17.6 19.8.8-5.6Q19.6-.2 18.9.6 10.9 2 4.4 4.2q-5 1.6-3.6 34 .4 9 1.3 20.4Q14.6 34 17.6 19.9"/></g><g id="aP"><path fill="#2f3710" d="M.5 5.7q45.3-17.1 65.6 22.5Q29.8.4.5 5.7"/><path fill="none" stroke="#121307" stroke-linecap="round" stroke-linejoin="round" stroke-opacity=".3" stroke-width="1" d="M.5 5.7Q29.8.4 66.1 28.2 45.9-11.4.5 5.7"/></g><g id="aO"><path fill="#181c08" d="M.5 4.2Q41.3-7.4 65.1 17.7 26.1 3.2.5 4.2"/><path fill="none" stroke="#0b0c05" stroke-linecap="round" stroke-linejoin="round" stroke-opacity=".3" stroke-width="1" d="M.5 4.2q25.6-1 64.6 13.5Q41.3-7.4.5 4.2"/></g><g id="aN"><path fill="#2d340f" d="M.5 5.7q45.3-17.1 65.6 22.5Q29.8.4.5 5.7"/><path fill="none" stroke="#111207" stroke-linecap="round" stroke-linejoin="round" stroke-opacity=".3" stroke-width="1" d="M.5 5.7Q29.8.4 66.1 28.2 45.9-11.4.5 5.7"/></g><g id="aM"><path fill="url(#f)" d="M2-6q8-20 60.8 15.7Q9.8-8.4 2.1-6" transform="translate(1.8 13.65)"/><path fill="none" stroke="#0e0f06" stroke-linecap="round" stroke-linejoin="round" stroke-opacity=".3" stroke-width="1" d="M3.9 7.6q-.6 1.3-.9 2.9L.5 13.6q.3-2.2 2.5-3.1-1.3-2.2.8-2.9 8-20 60.8 15.8Q11.6 5.2 3.9 7.6"/></g><g id="aL"><path fill="#5b641a" d="M.5 6.6Q35.1-7.1 61.3 9.8 19.4 2 .5 6.5"/><path fill="none" stroke="#121308" stroke-linecap="round" stroke-linejoin="round" stroke-opacity=".3" stroke-width="1" d="M.5 6.6Q19.4 2 61.3 9.8 35-7 .5 6.5"/></g><g id="aK"><path fill="url(#g)" d="M2-6q8-20 60.8 15.7Q9.8-8.4 2.1-6" transform="translate(1.8 13.65)"/><path fill="none" stroke="#0b0c05" stroke-linecap="round" stroke-linejoin="round" stroke-opacity=".3" stroke-width="1" d="M3.9 7.6q-.6 1.3-.9 2.9L.5 13.6q.3-2.2 2.5-3.1-1.3-2.2.8-2.9 8-20 60.8 15.8Q11.6 5.2 3.9 7.6"/></g><g id="aJ"><path fill="#3f4512" d="M.5 6.6Q35.1-7.1 61.3 9.8 19.4 2 .5 6.5"/><path fill="none" stroke="#0c0d05" stroke-linecap="round" stroke-linejoin="round" stroke-opacity=".3" stroke-width="1" d="M.5 6.6Q19.4 2 61.3 9.8 35-7 .5 6.5"/></g><g id="aI"><path fill="#414c17" d="M48.1.5q6.8 2 17.2.6L58.6 3l-.6.2Q35.8 11.3.5 41.8 26 6.1 48.1.5"/><path fill="#223211" d="M65.3 1q7.2.7 21 12.3Q64 1.6 58.6 3z"/><path fill="none" stroke="#1e200d" stroke-linecap="round" stroke-linejoin="round" stroke-opacity=".3" stroke-width="1" d="M48.1.5q6.8 2 17.2.6"/><path fill="none" stroke="#1e200d" stroke-linecap="round" stroke-linejoin="round" stroke-opacity=".3" stroke-width="1" d="M65.3 1q7.2.7 21 12.3Q64 1.6 58.6 3l-.6.2Q35.8 11.3.5 41.8 26 6.1 48.1.5m17.2.6L58.6 3"/></g><g id="aH"><path fill="url(#h)" d="M-13.2 39.3Q-14.7 7-9.6 5.3q6.5-2 14.5-3.6.6-.7-.5 13.7l-.9 5.5-6.6-.5-1.6-.1q-.2 0-.9 2.2-.8 2.6-.8 4.9 0 .9.9 2.6.8 1.6.8 2.9 0 1-1.2 2.6t-2.4 1.7q-1.5 0-3.1-.8-.8 0-1.8 2.9" transform="translate(14 -1.15)"/><path fill="#605a24" d="M.8 38.2q1-3 1.8-3 1.6.9 3.1.9 1.1 0 2.4-1.7t1.2-2.6q0-1.3-.9-3t-.8-2.6q0-2.2.8-4.8.7-2.3 1-2.3l1.4.1 6.8.6Q14.6 33.9 2 58.6 1 47.2.8 38.1"/><path fill="none" stroke="#121308" stroke-linecap="round" stroke-linejoin="round" stroke-opacity=".3" stroke-width="1" d="m17.6 19.8.8-5.6Q19.6-.2 18.9.6 10.9 2 4.4 4.2q-5 1.6-3.6 34 .4 9 1.3 20.4Q14.6 34 17.6 19.9"/></g><g id="aG"><path fill="#3b4514" d="M.5 5.7q45.3-17.1 65.6 22.5Q29.8.4.5 5.7"/><path fill="none" stroke="#161709" stroke-linecap="round" stroke-linejoin="round" stroke-opacity=".3" stroke-width="1" d="M.5 5.7Q29.8.4 66.1 28.2 45.9-11.4.5 5.7"/></g><g id="aF"><path fill="#1e230a" d="M.5 4.2Q41.3-7.4 65.1 17.7 26.1 3.2.5 4.2"/><path fill="none" stroke="#0e0f06" stroke-linecap="round" stroke-linejoin="round" stroke-opacity=".3" stroke-width="1" d="M.5 4.2q25.6-1 64.6 13.5Q41.3-7.4.5 4.2"/></g><g id="aE"><path fill="#464d14" d="M.5 6.6Q35.1-7.1 61.3 9.8 19.4 2 .5 6.5"/><path fill="none" stroke="#0e0f06" stroke-linecap="round" stroke-linejoin="round" stroke-opacity=".3" stroke-width="1" d="M.5 6.6Q19.4 2 61.3 9.8 35-7 .5 6.5"/></g><g id="aD"><path fill="#505e1b" d="M39 1Q32.6.7 27.8 9.4L26.3 12l-4 6.7Q13.5 33.5.9 50.7q-1.5-18 5.2-30 1.8-3.2 4.2-6l3-3.2Q28-1.8 39 1"/><path fill="none" stroke="#1e200d" stroke-linecap="round" stroke-linejoin="round" stroke-opacity=".3" stroke-width="1" d="M39 1Q28-1.8 13.3 11.5l-3.1 3.2q-2.4 2.8-4.2 6-6.7 12-5.2 30 12.6-17.2 21.6-31.9l3.9-6.7 1.5-2.7Q32.6.7 39 .8"/></g><g id="aC"><path fill="#333b12" d="M48.1.5q6.8 2 17.2.6L58.6 3l-.6.2Q35.8 11.3.5 41.8 26 6.1 48.1.5"/><path fill="#1a270d" d="M65.3 1q7.2.7 21 12.3Q64 1.6 58.6 3z"/><path fill="none" stroke="#17190a" stroke-linecap="round" stroke-linejoin="round" stroke-opacity=".3" stroke-width="1" d="M48.1.5q6.8 2 17.2.6"/><path fill="none" stroke="#17190a" stroke-linecap="round" stroke-linejoin="round" stroke-opacity=".3" stroke-width="1" d="M65.3 1q7.2.7 21 12.3Q64 1.6 58.6 3l-.6.2Q35.8 11.3.5 41.8 26 6.1 48.1.5m17.2.6L58.6 3"/></g><g id="aB"><path fill="url(#i)" d="M-8 13.4Q-1.3-.7-.5 1.3q5.2.5 4 14.9T-12 59.8q-3-32.4 4-46.4" transform="translate(13.35 -.55)"/><path fill="none" stroke="#141509" stroke-linecap="round" stroke-linejoin="round" stroke-opacity=".3" stroke-width="1" d="M5.3 12.8q-6.8 14-3.9 46.5Q15.8 30 17 15.7T12.9.6q-.7-2-7.6 12.1"/></g><g id="aA"><path fill="#242a0d" d="M48.1.5q6.8 2 17.2.6L58.6 3l-.6.2Q35.8 11.3.5 41.8 26 6.1 48.1.5"/><path fill="#131c0a" d="M65.3 1q7.2.7 21 12.3Q64 1.6 58.6 3z"/><path fill="none" stroke="#111207" stroke-linecap="round" stroke-linejoin="round" stroke-opacity=".3" stroke-width="1" d="M48.1.5q6.8 2 17.2.6"/><path fill="none" stroke="#111207" stroke-linecap="round" stroke-linejoin="round" stroke-opacity=".3" stroke-width="1" d="M65.3 1q7.2.7 21 12.3Q64 1.6 58.6 3l-.6.2Q35.8 11.3.5 41.8 26 6.1 48.1.5m17.2.6L58.6 3"/></g><g id="az"><path fill="#807139" d="M1.3 7.9q1.5-11 1.7-6 1.1-4.1.7 5.8t.1 18.8l.5 4.9v.6l.8 1.5-.5 1.4-1 .7z"/><path fill="#9e8f6a" d="m1.3 7.9 2.4 27.7-.8.5-1.7-.4H1l-.7-1.9.5-1.6-.2-2.8q-.7-12.1 0-18z"/><path fill="none" stroke="#000" stroke-linecap="round" stroke-linejoin="round" stroke-opacity=".3" stroke-width="__RESOLUTION__" d="m3.7 35.6.9-.7h0l.5-1.4-.8-1.5v-.6l-.4-4.9q-.7-9-.2-18.8T3 1.9q-.2-5-1.7 6l-.5 3.4q-.8 6-.1 18.1l.2 2.8-.5 1.6.7 1.9h0l1.8.4z" vector-effect="non-scaling-stroke"/></g><g id="ay"><path fill="#807139" d="m3.5 13.7.9-.7.6 6.2q.8 5.7 3.2 15.1l-.2.8-1.2.6q-1.1.3-1.4-.2z"/><path fill="#9e8f6a" d="M5.4 35.5Q2.9 37 2.1 32.4v-1L1 13.9.4.3l3.1 13.3z"/><path fill="none" stroke="#000" stroke-linecap="round" stroke-linejoin="round" stroke-opacity=".3" stroke-width="__RESOLUTION__" d="m4.4 13 .6 6.2q.8 5.7 3.2 15.1l.4-4.2-.2 5.3-.2-1.1-.2.8-1.2.6q-1.1.3-1.4-.2-2.5 1.6-3.3-3.1v-1l-1 2.2.4 2.1 1.9 1.1m-1.3-5.3L1 13.8.4.3l3.1 13.3" vector-effect="non-scaling-stroke"/></g><g id="ax"><path fill="#b9a352" d="M.5 8.1q.4-11.5.9-6 .5-4.1.8 6.5t1.2 20.6l.6 5.4v.7l.7 1.9-.3 1.3-.6.5zM3.8 39l.6-.5.8 7q.9 6.4 3 17.3v.8l-.8.4q-.8 0-1-.7z"/><path fill="#7d6b33" d="M.5 8.1 3.8 39l-.5.4-1.2-1-.7-2.3.3-1.6-.3-3.1Q.2 18 .4 11.8zm5.9 55.2q-1.7 1-2.5-4.2V58L2 38.4l1.2 1 .5-.4z"/><path fill="none" stroke="#000" stroke-linecap="round" stroke-linejoin="round" stroke-opacity=".3" stroke-width="__RESOLUTION__" d="M4.4 38.6v-.1l.3-1.3-.6-1.9-.1-.7-.6-5.4q-1-10-1.2-20.6Q1.9-2 1.4 2.1q-.5-5.5-.9 6l-.1 3.7q-.2 6.2 1 19.6l.3 3.1-.3 1.6.7 2.3h0l1.2 1 .5-.4zl.8 7q.9 6.4 3 17.3l.1-4.5.2 5.7-.2-1.2-.1.8-.8.4q-.8 0-1-.7-1.7 1-2.5-4.2V58l-.5 2 .3 2.5 1.4 1.8m-3-25.9L3.9 58" vector-effect="non-scaling-stroke"/></g><g id="aw"><path fill="#7d6b33" d="M8.6 3 7.2 4.4 3.5 5l-.8-.2-2-1.7V3Q.8 1.6 2 1q1.9-1 4-.5 2.4.3 2.6 2.4M7.2 5.6q-.6 3-.8 6l-1.7-1 .6-5.2.9-.2zM6.5 4q.8-.4.8-1t-.8-1l-1.9-.5-1.9.5q-.8.4-.8 1t.8 1l1.9.4q1.1 0 1.9-.4m-.8 12v.4L3.5 16v-2.2zM3.5 9.8l.1-3.2.7-1.2.1 5z"/><path fill="#927f3c" d="m7.2 4.5 1.4-1.6q-1.5 9.3 0 18.4 0 1-.4 1.6l-1 .7q-.7-3.3-.8-6.5v-.5q-.2-2.6 0-5 .2-3 .8-6zm-1.5 12V16l.3-4.2.3 12.1-1.1.3zm-2.2-2.7v2.1h-.1l-2-1.6v-3.6zM1.2 7.2.9 4.5l1.1 1h.3l1.2-.1.1 1.2v3.2z"/><path fill="#a89652" d="m.6 3.1 2.1 1.7.8.4.4.2h-.4l-1.2.1H2l-1.1-1z"/><path fill="#e0cc96" d="m2.7 4.8.8.2v.2z"/><path fill="#97853d" d="m3.5 5 3.7-.5v1.1l-1-.3h-.9l-1 .1-.7 1.2-.1-1.2h.4l-.4-.2z"/><path fill="#c7b05a" d="M6.4 11.6q-.2 2.4 0 5v.5q.1 3.2.8 6.5l-.9.3-.3-12-.3 4.1-2.2-2.2V9.9l.9.5v2.1l.3-2zm-3 4.4 2.3.4-.5 7.8h-2z"/><path fill="#5b4b26" d="M6.5 4q-.8.3-1.9.3L2.7 4q-.8-.4-.8-1t.8-1l1.9-.5 1.9.5q.8.4.8 1t-.8 1"/><path fill="#7b6633" d="m5.3 5.4-.6 5.1-.2 2-.1-2.1-.1-5z"/><path fill="#e5cf99" d="m1.2 7.1 2.3 2.7v3.9l-2.1-3zM.3 22.5q.9-4.1 1.1-8.2l2 1.6-.1 8.2z"/><path fill="none" stroke="#000" stroke-linecap="round" stroke-linejoin="round" stroke-opacity=".3" stroke-width="__RESOLUTION__" d="M8.6 3Q8.4.7 6 .4 3.9 0 2 1 .8 1.6.7 3v0l.2 1.4.3 2.6.2 3.7v3.5q-.2 4.1-1 8.2m8.2-1.2q-1.5-9 0-18.2" vector-effect="non-scaling-stroke"/><path fill="none" stroke="#000" stroke-linecap="round" stroke-linejoin="round" stroke-opacity=".3" stroke-width="__RESOLUTION__" d="M6.5 4q.8-.5.8-1.1t-.8-1l-1.9-.5-1.9.5q-.8.4-.8 1t.8 1l1.9.4q1.1 0 1.9-.4M2.3 5.5H2" vector-effect="non-scaling-stroke"/></g><g id="au"><path fill="#927f3c" d="m7.2 4.5 1.4-1.6q-1.1 7-.6 13.6l.2 2.6v.5h-.9l-.8-.4-.1-1-.2-2.3v-1.1l.7-.1-1.2-.4.2-2.5.3 1q.2-3.6.9-7.2zM5.8 14.6l.3.2V19l.1 1 .1 3.3v.6l-1.1.3.1-1.4V22l.3-.9v2q1-3.4.2-4.2l-.2-.3zm-4.5-6 1.4 1.9.8.8v2.2l-2-.9zm0 6.2 1.7 2 .4.4-.1 4.6-.6-.3h-.2L1 19.8z"/><path fill="#c4ae67" d="M8.6 3 7.2 4.4 3.5 5l-.8-.2-2-1.7V3Q.8 1.6 2 1q1.9-1 4-.5 2.4.3 2.6 2.4M6.5 4q.8-.4.8-1t-.8-1l-1.9-.5-1.9.5q-.8.4-.8 1t.8 1l1.9.4q1.1 0 1.9-.4"/><path fill="#97853d" d="M7.2 4.5v1.1l-1-.3h-.9l-1 .1-.7 1.2-.1-1.2h.4l-.4-.2V5zm-.7-.6q-.8.4-1.9.4L2.7 4q-.8-.4-.8-1t.8-1l1.9-.5 1.9.5q.8.4.8 1t-.8 1"/><path fill="#c7b05a" d="M7.2 5.6q-.7 3.7-.9 7.3L6 11.8l-.2 2.4-1.3-2 .8-6.8.9-.2zm-.9 9.2v1.1l.2 2.3.1 1v.1l-.4-.3-.2-4.2zm-1 8-.1 1.4h-2l.1-2.4zm1 1.1v-.6l.2.3v.1l.3.1h-.2zm-.5-9.2-.2 3.9-2.2-1.4v-3.6zm-2.3-3.3.1-4.7.7-1.2.2 6.8z"/><path fill="#70602d" d="m5.8 14.3 1.2.4-.7.1H6l-.2-.2-2.3-1v-2.3l1 .9v.3-.3zm.4 4.8.4.3-.1 4.3-.3-3.6zm-.7-.4.3.3q.8.9-.2 4.2v-2l-.2 1-.2.2-1.8-.6h-.1l.1-4.4z"/><path fill="#837235" d="m6.6 19.2.8.3 1 .1v.9l.2.8q0 1-.4 1.6l-1 .7-.3.1-.1.1h-.2l-.1-.2z"/><path fill="#a89652" d="m.6 3.1 2.1 1.7.8.4.4.2h-.4l-1.2.1H2l-1.1-1z"/><path fill="#e0cc96" d="m2.7 4.8.8.2v.2zm1.6.6h1l-.8 6.8v.3-.3z"/><path fill="#928142" d="m5.4 22-.1.8-2-1 2 .5zm1 1.3L6.2 20l.3 3.6z"/><path fill="#e5cf99" d="m3.5 13.6-.1 3.7-.4-.5-1.6-2v-2.2zM2 5.4h.3l1.2-.1.1 1.2-.1 4.7-.8-.8-1.4-2v-.7L.9 4.5zM.9 19.8l1.7 1.6.1.1.6.3v2.3l-3-1.6.5-2z"/><path fill="none" stroke="#000" stroke-linecap="round" stroke-linejoin="round" stroke-opacity=".3" stroke-width="__RESOLUTION__" d="m8.4 19.6-.1-.5-.2-2.6Q7.5 9.8 8.6 3 8.4.7 6 .4 3.9 0 2 1 .8 1.6.7 3v0l.2 1.4.4 3.3v.7l.2 4.1-.1.8v1.4l-.5 5-.2.6-.4 2.1m8-2.9.1.8v.1l.2.8" vector-effect="non-scaling-stroke"/><path fill="none" stroke="#000" stroke-linecap="round" stroke-linejoin="round" stroke-opacity=".3" stroke-width="__RESOLUTION__" d="M6.5 4q.8-.5.8-1.1t-.8-1l-1.9-.5-1.9.5q-.8.4-.8 1t.8 1l1.9.4q1.1 0 1.9-.4M2.3 5.5H2" vector-effect="non-scaling-stroke"/></g><g id="at"><path fill="#c4ae67" d="M8.6 3 7.2 4.4 3.5 5l-.8-.2-2-1.7V3Q.8 1.6 2 1q1.9-1 4-.5 2.4.3 2.6 2.4m-4-1.5L2.7 2q-.8.4-.8 1t.8 1l1.9.4q1.1 0 1.9-.4t.8-1-.8-1z"/><path fill="#927f3c" d="m7.2 4.5 1.4-1.6Q7.6 9 8 15v.4q.1 3 .6 5.9 0 1-.4 1.6l-1 .7-.5-3.5-.1-.5q-.3-2.7-.3-5.4V14q0-4.1.9-8.2zm-1.9.8-.8 7.2-.2-7zm.5 8.2.2-1.7v1.8l.2 5.8-.7-.5zM2 5.5h.3l1.2-.1.1 1.2-.1 5-2.2-2.9-.4-4.2zm1.4 12.3-.1 6.3-3-1.6q.8-3.7 1-7.5z"/><path fill="#a89652" d="m.6 3.1 2.1 1.7.8.4.4.2h-.4l-1.2.1H2l-1.1-1z"/><path fill="#e0cc96" d="m2.7 4.8.8.2v.2z"/><path fill="#97853d" d="m3.5 5 3.7-.5v1.1l-1-.3h-.9l-1 .1-.7 1.2-.1-1.2h.4l-.4-.2zm1.1-3.6 1.9.5q.8.4.8 1t-.8 1-1.9.4L2.7 4q-.8-.4-.8-1t.8-1z"/><path fill="#8c7839" d="M7.2 5.6q-.9 4.2-.9 8.3l-.3-.3v-1.8l-.2 1.7-1.3-1 .8-7.1.9-.2zm-.6 14v.5l.7 3.5-1 .3-.1-4.5zm-3.1-8 .1-5 .7-1.2.2 7-1-.7m-.1 5.7.3.4 1.8 1.1-.3 5.3h-2l.2-6.4z"/><path fill="#c7b05a" d="M6.3 13.9v.3q0 2.7.3 5.4l-.4-.2-.2-5.7zm-1.8-1.5 1.3 1.1-.3 5.4-1.8-1.1-.3-.4.1-5.6z"/><path fill="#e5cf99" d="m1.3 8.7 2.2 3-.1 5.7v.4l-2-2.9v-.4q.1-2.9-.1-5.8"/><path fill="#7b6633" d="m5.2 24.2.3-5.3.7.5.1 4.6z"/><path fill="none" stroke="#000" stroke-linecap="round" stroke-linejoin="round" stroke-opacity=".3" stroke-width="__RESOLUTION__" d="M8.6 3Q8.4.7 6 .4 3.9 0 2 1 .8 1.6.7 3v0l.2 1.4.4 4.2q.2 2.9 0 5.9v.3q-.2 3.9-1 7.6m8.3-1.2q-.5-2.9-.6-5.9V15q-.4-6 .6-12" vector-effect="non-scaling-stroke"/><path fill="none" stroke="#000" stroke-linecap="round" stroke-linejoin="round" stroke-opacity=".3" stroke-width="__RESOLUTION__" d="M4.6 1.4 2.7 2q-.8.4-.8 1t.8 1l1.9.4q1.1 0 1.9-.4t.8-1-.8-1zM2.3 5.5H2" vector-effect="non-scaling-stroke"/></g><g id="as"><path fill="#806f37" d="m4.6 1.4 1.9.5q.8.4.8 1t-.8 1-1.9.4L2.7 4q-.8-.4-.8-1t.8-1zm2.6 3.1v1.1l-1-.3h-.9l-1 .1-.7 1.2-.1-1.2-1.2.1H2l-1.1-1-.3-1.4 2.1 1.7.8.4V5z"/><path fill="#93803d" d="M4.6 1.4 2.7 2q-.8.4-.8 1t.8 1l1.9.4q1.1 0 1.9-.4t.8-1-.8-1zm4 1.5L7.2 4.5 3.5 5l-.8-.2-2-1.7V3Q.8 1.6 2 1q1.9-1 4-.5 2.4.3 2.6 2.4"/><path fill="#9b8e47" d="M7.2 5.6V4.5l1.4-1.6q-1.5 9.3 0 18.4 0 1-.4 1.6l-1 .7q-1.7-9.1 0-18M.8 4.5l1.2 1h.3l1.2-.1.1 1.2-.4 17.6-2.9-1.7q1.5-6.7 1-13.4L1 6z"/><path fill="#958745" d="M7.2 5.6q-1.7 8.9 0 18l-.9.3-.3-12-.8 12.4h-2l.4-17.5.7-1.3.2 7.1.8-7.1.9-.2z"/><path fill="#e4d59a" d="M3.5 5v.2l-.8-.4z"/><path fill="#86763f" d="M4.3 5.4h1l-.8 7.1zm2 18.5-1.1.2.8-12.4z"/><path fill="none" stroke="#141810" stroke-linecap="round" stroke-linejoin="round" stroke-opacity=".3" stroke-width="__RESOLUTION__" d="M4.6 1.4 2.7 2q-.8.4-.8 1t.8 1l1.9.4q1.1 0 1.9-.4t.8-1-.8-1zM2 5.4l.3.1" vector-effect="non-scaling-stroke"/><path fill="none" stroke="#141810" stroke-linecap="round" stroke-linejoin="round" stroke-opacity=".3" stroke-width="__RESOLUTION__" d="M8.6 21.3Q7.1 12.2 8.6 3 8.4.7 6 .4 3.9 0 2 1 .8 1.6.7 3v0l.2 1.4L1 6l.4 3.1q.4 6.7-1 13.4" vector-effect="non-scaling-stroke"/></g><g id="ar"><path fill="#755e2b" d="m4.6 1.4 1.9.5q.8.4.8 1t-.8 1-1.9.4L2.7 4q-.8-.4-.8-1t.8-1zm2.6 3.1v1.1l-1-.3h-.9l-1 .1-.7 1.2-.1-1.2-1.2.1H2l-1.1-1-.3-1.4 2.1 1.7.8.4V5z"/><path fill="#897031" d="M4.6 1.4 2.7 2q-.8.4-.8 1t.8 1l1.9.4q1.1 0 1.9-.4t.8-1-.8-1zm4 1.5L7.2 4.5 3.5 5l-.8-.2-2-1.7V3Q.8 1.6 2 1q1.9-1 4-.5 2.4.3 2.6 2.4"/><path fill="#927f3c" d="M7.2 5.6V4.5l1.4-1.6q-1.5 9.3 0 18.4 0 1-.4 1.6l-1 .7q-1.7-9.1 0-18M.8 4.5l1.2 1h.3l1.2-.1.1 1.2-.4 17.6-2.9-1.7q1.5-6.7 1-13.4L1 6z"/><path fill="#8c7839" d="M7.2 5.6q-1.7 8.9 0 18l-.9.3-.3-12-.8 12.4h-2l.4-17.5.7-1.3.2 7.1.8-7.1.9-.2z"/><path fill="#e0cc96" d="M3.5 5v.2l-.8-.4z"/><path fill="#7b6633" d="M4.3 5.4h1l-.8 7.1zm2 18.5-1.1.2.8-12.4z"/><path fill="none" stroke="#000" stroke-linecap="round" stroke-linejoin="round" stroke-opacity=".3" stroke-width="__RESOLUTION__" d="M4.6 1.4 2.7 2q-.8.4-.8 1t.8 1l1.9.4q1.1 0 1.9-.4t.8-1-.8-1zM2 5.4l.3.1" vector-effect="non-scaling-stroke"/><path fill="none" stroke="#000" stroke-linecap="round" stroke-linejoin="round" stroke-opacity=".3" stroke-width="__RESOLUTION__" d="M8.6 21.3Q7.1 12.2 8.6 3 8.4.7 6 .4 3.9 0 2 1 .8 1.6.7 3v0l.2 1.4L1 6l.4 3.1q.4 6.7-1 13.4" vector-effect="non-scaling-stroke"/></g><g id="aq"><path fill="#695426" d="m4.6 1.4 1.9.5q.8.4.8 1t-.8 1-1.9.4L2.7 4q-.8-.4-.8-1t.8-1zm2.6 3.1v1.1l-1-.3h-.9l-1 .1-.7 1.2-.1-1.2-1.2.1H2l-1.1-1-.3-1.4 2.1 1.7.8.4V5z"/><path fill="#7b642c" d="M4.6 1.4 2.7 2q-.8.4-.8 1t.8 1l1.9.4q1.1 0 1.9-.4t.8-1-.8-1zm4 1.5L7.2 4.5 3.5 5l-.8-.2-2-1.7V3Q.8 1.6 2 1q1.9-1 4-.5 2.4.3 2.6 2.4"/><path fill="#837235" d="M7.2 5.6V4.5l1.4-1.6q-1.5 9.3 0 18.4 0 1-.4 1.6l-1 .7q-1.7-9.1 0-18M.8 4.5l1.2 1h.3l1.2-.1.1 1.2-.4 17.6-2.9-1.7q1.5-6.7 1-13.4L1 6z"/><path fill="#7d6b33" d="M7.2 5.6q-1.7 8.9 0 18l-.9.3-.3-12-.8 12.4h-2l.4-17.5.7-1.3.2 7.1.8-7.1.9-.2z"/><path fill="#c9b786" d="M3.5 5v.2l-.8-.4z"/><path fill="#6f5b2d" d="M4.3 5.4h1l-.8 7.1zm2 18.5-1.1.2.8-12.4z"/><path fill="none" stroke="#000" stroke-linecap="round" stroke-linejoin="round" stroke-opacity=".3" stroke-width="__RESOLUTION__" d="M4.6 1.4 2.7 2q-.8.4-.8 1t.8 1l1.9.4q1.1 0 1.9-.4t.8-1-.8-1zM2 5.4l.3.1" vector-effect="non-scaling-stroke"/><path fill="none" stroke="#000" stroke-linecap="round" stroke-linejoin="round" stroke-opacity=".3" stroke-width="__RESOLUTION__" d="M8.6 21.3Q7.1 12.2 8.6 3 8.4.7 6 .4 3.9 0 2 1 .8 1.6.7 3v0l.2 1.4L1 6l.4 3.1q.4 6.7-1 13.4" vector-effect="non-scaling-stroke"/></g><g id="ap"><path fill="#746633" d="m3.5 13.7.9-.7.6 6.2q.8 5.7 3.2 15.1l-.2.8-1.2.6q-1.1.3-1.4-.2z"/><path fill="#8f8160" d="M5.4 35.5Q2.9 37 2.1 32.4v-1L1 13.9.4.3l3.1 13.3z"/><path fill="none" stroke="#000" stroke-linecap="round" stroke-linejoin="round" stroke-opacity=".3" stroke-width="__RESOLUTION__" d="m4.4 13 .6 6.2q.8 5.7 3.2 15.1l.4-4.2-.2 5.3-.2-1.1-.2.8-1.2.6q-1.1.3-1.4-.2-2.5 1.6-3.3-3.1v-1l-1 2.2.4 2.1 1.9 1.1m-1.3-5.3L1 13.8.4.3l3.1 13.3" vector-effect="non-scaling-stroke"/></g><g id="al"><path fill="#505e1b" d="M.5 5.7q45.3-17.1 65.6 22.5Q29.8.4.5 5.7"/><path fill="none" stroke="#1e200d" stroke-linecap="round" stroke-linejoin="round" stroke-opacity=".3" stroke-width="1" d="M.5 5.7Q29.8.4 66.1 28.2 45.9-11.4.5 5.7"/></g><g id="ak"><path fill="#2a310f" d="M.5 4.2Q41.3-7.4 65.1 17.7 26.1 3.2.5 4.2"/><path fill="none" stroke="#131408" stroke-linecap="round" stroke-linejoin="round" stroke-opacity=".3" stroke-width="1" d="M.5 4.2q25.6-1 64.6 13.5Q41.3-7.4.5 4.2"/></g><g id="aj"><path fill="#384113" d="M.5 5.7q45.3-17.1 65.6 22.5Q29.8.4.5 5.7"/><path fill="none" stroke="#151609" stroke-linecap="round" stroke-linejoin="round" stroke-opacity=".3" stroke-width="1" d="M.5 5.7Q29.8.4 66.1 28.2 45.9-11.4.5 5.7"/></g><g id="ai"><path fill="url(#j)" d="M-8 13.4Q-1.3-.7-.5 1.3q5.2.5 4 14.9T-12 59.8q-3-32.4 4-46.4" transform="translate(13.35 -.55)"/><path fill="none" stroke="#1e200d" stroke-linecap="round" stroke-linejoin="round" stroke-opacity=".3" stroke-width="1" d="M5.3 12.8q-6.8 14-3.9 46.5Q15.8 30 17 15.7T12.9.6q-.7-2-7.6 12.1"/></g><g id="ah"><path fill="#3c4615" d="M48.1.5q6.8 2 17.2.6L58.6 3l-.6.2Q35.8 11.3.5 41.8 26 6.1 48.1.5"/><path fill="#1f2e10" d="M65.3 1q7.2.7 21 12.3Q64 1.6 58.6 3z"/><path fill="none" stroke="#1c1d0c" stroke-linecap="round" stroke-linejoin="round" stroke-opacity=".3" stroke-width="1" d="M48.1.5q6.8 2 17.2.6"/><path fill="none" stroke="#1c1d0c" stroke-linecap="round" stroke-linejoin="round" stroke-opacity=".3" stroke-width="1" d="M65.3 1q7.2.7 21 12.3Q64 1.6 58.6 3l-.6.2Q35.8 11.3.5 41.8 26 6.1 48.1.5m17.2.6L58.6 3"/></g><g id="ag"><path fill="#2d3510" d="M.5 4.2Q41.3-7.4 65.1 17.7 26.1 3.2.5 4.2"/><path fill="none" stroke="#151609" stroke-linecap="round" stroke-linejoin="round" stroke-opacity=".3" stroke-width="1" d="M.5 4.2q25.6-1 64.6 13.5Q41.3-7.4.5 4.2"/></g><g id="af"><path fill="url(#k)" d="M-13.2 39.3Q-14.7 7-9.6 5.3q6.5-2 14.5-3.6.6-.7-.5 13.7l-.9 5.5-6.6-.5-1.6-.1q-.2 0-.9 2.2-.8 2.6-.8 4.9 0 .9.9 2.6.8 1.6.8 2.9 0 1-1.2 2.6t-2.4 1.7q-1.5 0-3.1-.8-.8 0-1.8 2.9" transform="translate(14 -1.15)"/><path fill="#5c5623" d="M.8 38.2q1-3 1.8-3 1.6.9 3.1.9 1.1 0 2.4-1.7t1.2-2.6q0-1.3-.9-3t-.8-2.6q0-2.2.8-4.8.7-2.3 1-2.3l1.4.1 6.8.6Q14.6 33.9 2 58.6 1 47.2.8 38.1"/><path fill="none" stroke="#111207" stroke-linecap="round" stroke-linejoin="round" stroke-opacity=".3" stroke-width="1" d="m17.6 19.8.8-5.6Q19.6-.2 18.9.6 10.9 2 4.4 4.2q-5 1.6-3.6 34 .4 9 1.3 20.4Q14.6 34 17.6 19.9"/></g><g id="ae"><path fill="#434813" d="m40.6 3.6.6-.4q2-1.1 3.9-1.7l2.7-.4q-2.5.6-5.1 2-1.2.7-2.4 2.2-.3-.1-1.1.4-.7.4 1.4-2.1m-9.3 18.3-1.7.8-.5.2 6-9.2 2.1-3.1-3 5.7-2.4 4.7z"/><path fill="#494e16" d="M45.1 1.5q2.6-1 5.1-1Q43.9 2 39.2 12l-1.5 3-2.5 5.1-3.8 1.8.5-.9 2.4-4.7 3-5.7-2.1 3.1-6 9.2-.9.3q-5.5 2-7.1.6l-.4-.6.8-1.2 3-3.9 4.5-5Q35 6.8 40.6 3.7q-2.1 2.5-1.4 2t1.1-.3q1.2-1.5 2.4-2.1 2.5-1.5 5.1-2zM26.6 27.4l.6-.1 1.1-.1-.7.9-4.5 6.8L7.3 60.1l17.4-30 .3-.5.5-.7z"/><path fill="#74743b" d="m35 20.1-1.4 2.8-2.4 4.6-2.9-.3 1.9-3.4.3-.5.8-1.4zM15.9 32.2l.2-.4 1.1-2.5q1.5-3.2 3.5-6.1l.4.6q1.6 1.4 7.1-.6l.9-.3-.5.8.5-.4q.5-.6-.2.5l-2.3 3.5-.8.2q-4.3 1-9.9 4.7"/><path fill="#575f19" d="M31.2 27.5Q23 42.8.5 70.7l3.6-9.2.3-.6.2-.5 2.2-5.5 9.1-22.7q5.6-3.7 9.9-4.7l.8-.2 2.3-3.5q.7-1 .2-.6l-.5.4.5-.7.5-.2 1.7-.7-.8 1.3-.3.5-1.9 3.4-1.1.1h-.6L25.5 29l-.5.8-.3.4-17.4 30L23 34.8l4.5-6.8.7-.9z"/><path fill="none" stroke="#111207" stroke-linecap="round" stroke-linejoin="round" stroke-opacity=".3" stroke-width="1" d="m40.6 3.6.6-.4h0q2-1.1 3.9-1.7 2.6-1 5.1-1Q43.9 2 39.2 12l-1.5 3-2.5 5.1-1.5 2.8-2.4 4.6Q23 42.8.5 70.7l3.6-9.2.3-.6.2-.5 2.2-5.5 9.1-22.7.2-.4 1.1-2.5q1.5-3.2 3.5-6.1l.8-1.2 3-3.9 4.5-5q6-6.3 11.6-9.4"/></g><g id="ad"><path fill="#575f19" d="M41 13.7h.1q17.3-8 23.7-8.6l6.7-.3-6.7 2-.6.1Q55 10.4 42.6 17.5h-1.9l-.1-1.9zq7.4-4.9 19.6-9.9-2.4-1.2-4.2-3.3Q50.9 2.6 45 6.1l-1.5 2.5q-1.7 2.7-2.5 5M18.3 27.2l3.6 2q-.1 1.3-2 2.6-2.7 1.7-11.6 5.5 5.2-5.4 10-10.1"/><path fill="#494e16" d="M64.8 5q-6.4.7-23.7 8.7 7.3-4.9 19.5-9.9 1.9.9 4.2 1.2"/><path fill="#594f29" d="m41 13.7-.4 1.9.1 1.8 2 .1Q32.3 23.4 20 31.9l-.2-.2q2-1.2 2.1-2.6l-3.6-2Q32.6 13.5 45 6.1l-1.5 2.5q-1.7 2.7-2.5 5"/><path fill="#373b13" d="m64.9 6.7 6.6-1.9q7.3.6 21 12.2Q70.3 5.3 64.8 6.7"/><path fill="#574828" d="m19.8 31.7.2.2L.5 45.8l7.8-8.5v-.1q8.9-3.8 11.5-5.5"/><path fill="none" stroke="#111207" stroke-linecap="round" stroke-linejoin="round" stroke-opacity=".3" stroke-width="1" d="M42.7 17.5Q55 10.3 64.2 7l.6-.3 6.7-1.9q7.3.6 21 12.2Q70.3 5.3 64.8 6.7M45 6.1q-12.5 7.5-26.7 21-4.8 4.7-10 10.1h0L.5 45.9l19.5-14q12.4-8.5 22.7-14.4M45 6.1Q50.9 2.6 56.4.5m15.1 4.3-6.7.2q-2.3-.3-4.2-1.2-2.4-1.2-4.2-3.3"/></g><g id="ac"><path fill="url(#l)" d="M-13.2 39.3Q-14.7 7-9.6 5.3q6.5-2 14.5-3.6.6-.7-.5 13.7l-.9 5.5-6.6-.5-1.6-.1q-.2 0-.9 2.2-.8 2.6-.8 4.9 0 .9.9 2.6.8 1.6.8 2.9 0 1-1.2 2.6t-2.4 1.7q-1.5 0-3.1-.8-.8 0-1.8 2.9" transform="translate(14 -1.15)"/><path fill="#373314" d="M.8 38.2q1-3 1.8-3 1.6.9 3.1.9 1.1 0 2.4-1.7t1.2-2.6q0-1.3-.9-3t-.8-2.6q0-2.2.8-4.8.7-2.3 1-2.3l1.4.1 6.8.6Q14.6 33.9 2 58.6 1 47.2.8 38.1"/><path fill="none" stroke="#0a0b04" stroke-linecap="round" stroke-linejoin="round" stroke-opacity=".3" stroke-width="1" d="m17.6 19.8.8-5.6Q19.6-.2 18.9.6 10.9 2 4.4 4.2q-5 1.6-3.6 34 .4 9 1.3 20.4Q14.6 34 17.6 19.9"/></g><g id="ab"><path fill="#404612" d="M.5 6.6Q35.1-7.1 61.3 9.8 19.4 2 .5 6.5"/><path fill="none" stroke="#0c0d05" stroke-linecap="round" stroke-linejoin="round" stroke-opacity=".3" stroke-width="1" d="M.5 6.6Q19.4 2 61.3 9.8 35-7 .5 6.5"/></g><g id="aa"><path fill="url(#m)" d="M2-6q8-20 60.8 15.7Q9.8-8.4 2.1-6" transform="translate(1.8 13.65)"/><path fill="none" stroke="#080803" stroke-linecap="round" stroke-linejoin="round" stroke-opacity=".3" stroke-width="1" d="M3.9 7.6q-.6 1.3-.9 2.9L.5 13.6q.3-2.2 2.5-3.1-1.3-2.2.8-2.9 8-20 60.8 15.8Q11.6 5.2 3.9 7.6"/></g><g id="Z"><path fill="#3c4211" d="M.5 6.6Q35.1-7.1 61.3 9.8 19.4 2 .5 6.5"/><path fill="none" stroke="#0c0c05" stroke-linecap="round" stroke-linejoin="round" stroke-opacity=".3" stroke-width="1" d="M.5 6.6Q19.4 2 61.3 9.8 35-7 .5 6.5"/></g><g id="Y"><path fill="#83733a" d="m3.5 13.7.9-.7.6 6.2q.8 5.7 3.2 15.1l-.2.8-1.2.6q-1.1.3-1.4-.2z"/><path fill="#a2936c" d="M5.4 35.5Q2.9 37 2.1 32.4v-1L1 13.9.4.3l3.1 13.3z"/><path fill="none" stroke="#000" stroke-linecap="round" stroke-linejoin="round" stroke-opacity=".3" stroke-width="__RESOLUTION__" d="m4.4 13 .6 6.2q.8 5.7 3.2 15.1l.4-4.2-.2 5.3-.2-1.1-.2.8-1.2.6q-1.1.3-1.4-.2-2.5 1.6-3.3-3.1v-1l-1 2.2.4 2.1 1.9 1.1m-1.3-5.3L1 13.8.4.3l3.1 13.3" vector-effect="non-scaling-stroke"/></g><g id="X"><path fill="#52601c" d="M39 1Q32.6.7 27.8 9.4L26.3 12l-4 6.7Q13.5 33.5.9 50.7q-1.5-18 5.2-30 1.8-3.2 4.2-6l3-3.2Q28-1.8 39 1"/><path fill="none" stroke="#1f210d" stroke-linecap="round" stroke-linejoin="round" stroke-opacity=".3" stroke-width="1" d="M39 1Q28-1.8 13.3 11.5l-3.1 3.2q-2.4 2.8-4.2 6-6.7 12-5.2 30 12.6-17.2 21.6-31.9l3.9-6.7 1.5-2.7Q32.6.7 39 .8"/></g><g id="W"><path fill="#52601c" d="M.5 5.7q45.3-17.1 65.6 22.5Q29.8.4.5 5.7"/><path fill="none" stroke="#1f210d" stroke-linecap="round" stroke-linejoin="round" stroke-opacity=".3" stroke-width="1" d="M.5 5.7Q29.8.4 66.1 28.2 45.9-11.4.5 5.7"/></g><g id="V"><path fill="url(#n)" d="M2-6q8-20 60.8 15.7Q9.8-8.4 2.1-6" transform="translate(1.8 13.65)"/><path fill="none" stroke="#0e0f06" stroke-linecap="round" stroke-linejoin="round" stroke-opacity=".3" stroke-width="1" d="M3.9 7.6q-.6 1.3-.9 2.9L.5 13.6q.3-2.2 2.5-3.1-1.3-2.2.8-2.9 8-20 60.8 15.8Q11.6 5.2 3.9 7.6"/></g><g id="U"><path fill="#3a4313" d="M.5 5.7q45.3-17.1 65.6 22.5Q29.8.4.5 5.7"/><path fill="none" stroke="#151709" stroke-linecap="round" stroke-linejoin="round" stroke-opacity=".3" stroke-width="1" d="M.5 5.7Q29.8.4 66.1 28.2 45.9-11.4.5 5.7"/></g><g id="T"><path fill="url(#o)" d="M-13.2 39.3Q-14.7 7-9.6 5.3q6.5-2 14.5-3.6.6-.7-.5 13.7l-.9 5.5-6.6-.5-1.6-.1q-.2 0-.9 2.2-.8 2.6-.8 4.9 0 .9.9 2.6.8 1.6.8 2.9 0 1-1.2 2.6t-2.4 1.7q-1.5 0-3.1-.8-.8 0-1.8 2.9" transform="translate(14 -1.15)"/><path fill="#625b25" d="M.8 38.2q1-3 1.8-3 1.6.9 3.1.9 1.1 0 2.4-1.7t1.2-2.6q0-1.3-.9-3t-.8-2.6q0-2.2.8-4.8.7-2.3 1-2.3l1.4.1 6.8.6Q14.6 33.9 2 58.6 1 47.2.8 38.1"/><path fill="none" stroke="#121308" stroke-linecap="round" stroke-linejoin="round" stroke-opacity=".3" stroke-width="1" d="m17.6 19.8.8-5.6Q19.6-.2 18.9.6 10.9 2 4.4 4.2q-5 1.6-3.6 34 .4 9 1.3 20.4Q14.6 34 17.6 19.9"/></g><g id="S"><path fill="url(#p)" d="M-8 13.4Q-1.3-.7-.5 1.3q5.2.5 4 14.9T-12 59.8q-3-32.4 4-46.4" transform="translate(13.35 -.55)"/><path fill="none" stroke="#1f210d" stroke-linecap="round" stroke-linejoin="round" stroke-opacity=".3" stroke-width="1" d="M5.3 12.8q-6.8 14-3.9 46.5Q15.8 30 17 15.7T12.9.6q-.7-2-7.6 12.1"/></g><g id="R"><path fill="#3d4816" d="M48.1.5q6.8 2 17.2.6L58.6 3l-.6.2Q35.8 11.3.5 41.8 26 6.1 48.1.5"/><path fill="#202f10" d="M65.3 1q7.2.7 21 12.3Q64 1.6 58.6 3z"/><path fill="none" stroke="#1c1e0c" stroke-linecap="round" stroke-linejoin="round" stroke-opacity=".3" stroke-width="1" d="M48.1.5q6.8 2 17.2.6"/><path fill="none" stroke="#1c1e0c" stroke-linecap="round" stroke-linejoin="round" stroke-opacity=".3" stroke-width="1" d="M65.3 1q7.2.7 21 12.3Q64 1.6 58.6 3l-.6.2Q35.8 11.3.5 41.8 26 6.1 48.1.5m17.2.6L58.6 3"/></g><g id="Q"><path fill="#2f3610" d="M.5 4.2Q41.3-7.4 65.1 17.7 26.1 3.2.5 4.2"/><path fill="none" stroke="#151709" stroke-linecap="round" stroke-linejoin="round" stroke-opacity=".3" stroke-width="1" d="M.5 4.2q25.6-1 64.6 13.5Q41.3-7.4.5 4.2"/></g><g id="P"><path fill="#bea754" d="M.5 8.1q.4-11.5.9-6 .5-4.1.8 6.5t1.2 20.6l.6 5.4v.7l.7 1.9-.3 1.3-.6.5zM3.8 39l.6-.5.8 7q.9 6.4 3 17.3v.8l-.8.4q-.8 0-1-.7z"/><path fill="#816e34" d="M.5 8.1 3.8 39l-.5.4-1.2-1-.7-2.3.3-1.6-.3-3.1Q.2 18 .4 11.8zm5.9 55.2q-1.7 1-2.5-4.2V58L2 38.4l1.2 1 .5-.4z"/><path fill="none" stroke="#000" stroke-linecap="round" stroke-linejoin="round" stroke-opacity=".3" stroke-width="__RESOLUTION__" d="M4.4 38.6v-.1l.3-1.3-.6-1.9-.1-.7-.6-5.4q-1-10-1.2-20.6Q1.9-2 1.4 2.1q-.5-5.5-.9 6l-.1 3.7q-.2 6.2 1 19.6l.3 3.1-.3 1.6.7 2.3h0l1.2 1 .5-.4zl.8 7q.9 6.4 3 17.3l.1-4.5.2 5.7-.2-1.2-.1.8-.8.4q-.8 0-1-.7-1.7 1-2.5-4.2V58l-.5 2 .3 2.5 1.4 1.8m-3-25.9L3.9 58" vector-effect="non-scaling-stroke"/></g><g id="O"><path fill="#857139" d="m4.6 1.4 1.9.5q.8.4.8 1t-.8 1-1.9.4L2.7 4q-.8-.4-.8-1t.8-1zm2.6 3.1v1.1l-1-.3h-.9l-1 .1-.7 1.2-.1-1.2-1.2.1H2l-1.1-1-.3-1.4 2.1 1.7.8.4V5z"/><path fill="#97823f" d="M4.6 1.4 2.7 2q-.8.4-.8 1t.8 1l1.9.4q1.1 0 1.9-.4t.8-1-.8-1zm4 1.5L7.2 4.5 3.5 5l-.8-.2-2-1.7V3Q.8 1.6 2 1q1.9-1 4-.5 2.4.3 2.6 2.4"/><path fill="#a09149" d="M7.2 5.6V4.5l1.4-1.6q-1.5 9.3 0 18.4 0 1-.4 1.6l-1 .7q-1.7-9.1 0-18M.8 4.5l1.2 1h.3l1.2-.1.1 1.2-.4 17.6-2.9-1.7q1.5-6.7 1-13.4L1 6z"/><path fill="#9a8a46" d="M7.2 5.6q-1.7 8.9 0 18l-.9.3-.3-12-.8 12.4h-2l.4-17.5.7-1.3.2 7.1.8-7.1.9-.2z"/><path fill="#eadb9e" d="M3.5 5v.2l-.8-.4z"/><path fill="#8b7940" d="M4.3 5.4h1l-.8 7.1zm2 18.5-1.1.2.8-12.4z"/><path fill="none" stroke="#151810" stroke-linecap="round" stroke-linejoin="round" stroke-opacity=".3" stroke-width="__RESOLUTION__" d="M4.6 1.4 2.7 2q-.8.4-.8 1t.8 1l1.9.4q1.1 0 1.9-.4t.8-1-.8-1zM2 5.4l.3.1" vector-effect="non-scaling-stroke"/><path fill="none" stroke="#151810" stroke-linecap="round" stroke-linejoin="round" stroke-opacity=".3" stroke-width="__RESOLUTION__" d="M8.6 21.3Q7.1 12.2 8.6 3 8.4.7 6 .4 3.9 0 2 1 .8 1.6.7 3v0l.2 1.4L1 6l.4 3.1q.4 6.7-1 13.4" vector-effect="non-scaling-stroke"/></g><g id="N"><path fill="url(#q)" d="M-8 13.4Q-1.3-.7-.5 1.3q5.2.5 4 14.9T-12 59.8q-3-32.4 4-46.4" transform="translate(13.35 -.55)"/><path fill="none" stroke="#17180a" stroke-linecap="round" stroke-linejoin="round" stroke-opacity=".3" stroke-width="1" d="M5.3 12.8q-6.8 14-3.9 46.5Q15.8 30 17 15.7T12.9.6q-.7-2-7.6 12.1"/></g><g id="M"><path fill="#2d3510" d="M48.1.5q6.8 2 17.2.6L58.6 3l-.6.2Q35.8 11.3.5 41.8 26 6.1 48.1.5"/><path fill="#17230c" d="M65.3 1q7.2.7 21 12.3Q64 1.6 58.6 3z"/><path fill="none" stroke="#151609" stroke-linecap="round" stroke-linejoin="round" stroke-opacity=".3" stroke-width="1" d="M48.1.5q6.8 2 17.2.6"/><path fill="none" stroke="#151609" stroke-linecap="round" stroke-linejoin="round" stroke-opacity=".3" stroke-width="1" d="M65.3 1q7.2.7 21 12.3Q64 1.6 58.6 3l-.6.2Q35.8 11.3.5 41.8 26 6.1 48.1.5m17.2.6L58.6 3"/></g><g id="L"><path fill="#22280c" d="M.5 4.2Q41.3-7.4 65.1 17.7 26.1 3.2.5 4.2"/><path fill="none" stroke="#101107" stroke-linecap="round" stroke-linejoin="round" stroke-opacity=".3" stroke-width="1" d="M.5 4.2q25.6-1 64.6 13.5Q41.3-7.4.5 4.2"/></g><g id="K"><path fill="#78602c" d="m4.6 1.4 1.9.5q.8.4.8 1t-.8 1-1.9.4L2.7 4q-.8-.4-.8-1t.8-1zm2.6 3.1v1.1l-1-.3h-.9l-1 .1-.7 1.2-.1-1.2-1.2.1H2l-1.1-1-.3-1.4 2.1 1.7.8.4V5z"/><path fill="#8d7332" d="M4.6 1.4 2.7 2q-.8.4-.8 1t.8 1l1.9.4q1.1 0 1.9-.4t.8-1-.8-1zm4 1.5L7.2 4.5 3.5 5l-.8-.2-2-1.7V3Q.8 1.6 2 1q1.9-1 4-.5 2.4.3 2.6 2.4"/><path fill="#96823d" d="M7.2 5.6V4.5l1.4-1.6q-1.5 9.3 0 18.4 0 1-.4 1.6l-1 .7q-1.7-9.1 0-18M.8 4.5l1.2 1h.3l1.2-.1.1 1.2-.4 17.6-2.9-1.7q1.5-6.7 1-13.4L1 6z"/><path fill="#8f7b3b" d="M7.2 5.6q-1.7 8.9 0 18l-.9.3-.3-12-.8 12.4h-2l.4-17.5.7-1.3.2 7.1.8-7.1.9-.2z"/><path fill="#e6d299" d="M3.5 5v.2l-.8-.4z"/><path fill="#7f6934" d="M4.3 5.4h1l-.8 7.1zm2 18.5-1.1.2.8-12.4z"/><path fill="none" stroke="#000" stroke-linecap="round" stroke-linejoin="round" stroke-opacity=".3" stroke-width="__RESOLUTION__" d="M4.6 1.4 2.7 2q-.8.4-.8 1t.8 1l1.9.4q1.1 0 1.9-.4t.8-1-.8-1zM2 5.4l.3.1" vector-effect="non-scaling-stroke"/><path fill="none" stroke="#000" stroke-linecap="round" stroke-linejoin="round" stroke-opacity=".3" stroke-width="__RESOLUTION__" d="M8.6 21.3Q7.1 12.2 8.6 3 8.4.7 6 .4 3.9 0 2 1 .8 1.6.7 3v0l.2 1.4L1 6l.4 3.1q.4 6.7-1 13.4" vector-effect="non-scaling-stroke"/></g><g id="J"><path fill="#6c5627" d="m4.6 1.4 1.9.5q.8.4.8 1t-.8 1-1.9.4L2.7 4q-.8-.4-.8-1t.8-1zm2.6 3.1v1.1l-1-.3h-.9l-1 .1-.7 1.2-.1-1.2-1.2.1H2l-1.1-1-.3-1.4 2.1 1.7.8.4V5z"/><path fill="#7e672d" d="M4.6 1.4 2.7 2q-.8.4-.8 1t.8 1l1.9.4q1.1 0 1.9-.4t.8-1-.8-1zm4 1.5L7.2 4.5 3.5 5l-.8-.2-2-1.7V3Q.8 1.6 2 1q1.9-1 4-.5 2.4.3 2.6 2.4"/><path fill="#867537" d="M7.2 5.6V4.5l1.4-1.6q-1.5 9.3 0 18.4 0 1-.4 1.6l-1 .7q-1.7-9.1 0-18M.8 4.5l1.2 1h.3l1.2-.1.1 1.2-.4 17.6-2.9-1.7q1.5-6.7 1-13.4L1 6z"/><path fill="#816e35" d="M7.2 5.6q-1.7 8.9 0 18l-.9.3-.3-12-.8 12.4h-2l.4-17.5.7-1.3.2 7.1.8-7.1.9-.2z"/><path fill="#cfbc8a" d="M3.5 5v.2l-.8-.4z"/><path fill="#725e2f" d="M4.3 5.4h1l-.8 7.1zm2 18.5-1.1.2.8-12.4z"/><path fill="none" stroke="#000" stroke-linecap="round" stroke-linejoin="round" stroke-opacity=".3" stroke-width="__RESOLUTION__" d="M4.6 1.4 2.7 2q-.8.4-.8 1t.8 1l1.9.4q1.1 0 1.9-.4t.8-1-.8-1zM2 5.4l.3.1" vector-effect="non-scaling-stroke"/><path fill="none" stroke="#000" stroke-linecap="round" stroke-linejoin="round" stroke-opacity=".3" stroke-width="__RESOLUTION__" d="M8.6 21.3Q7.1 12.2 8.6 3 8.4.7 6 .4 3.9 0 2 1 .8 1.6.7 3v0l.2 1.4L1 6l.4 3.1q.4 6.7-1 13.4" vector-effect="non-scaling-stroke"/></g><linearGradient id="a" x1="-819.2" x2="819.2" gradientTransform="matrix(0 .01 -.04 0 -1.15 9)" gradientUnits="userSpaceOnUse" spreadMethod="pad"><stop offset="0" stop-color="#566717" stop-opacity="1"/><stop offset="1" stop-color="#657c1d" stop-opacity="1"/></linearGradient><linearGradient id="b" x1="-819.2" x2="819.2" gradientTransform="matrix(0 .01 -.04 0 -1.15 9)" gradientUnits="userSpaceOnUse" spreadMethod="pad"><stop offset="0" stop-color="#323c12" stop-opacity="1"/><stop offset="1" stop-color="#3e4d17" stop-opacity="1"/></linearGradient><linearGradient id="d" x1="-819.2" x2="819.2" gradientTransform="matrix(0 -.01 .03 .01 -2.25 18)" gradientUnits="userSpaceOnUse" spreadMethod="pad"><stop offset=".5" stop-color="#515716" stop-opacity="1"/><stop offset="1" stop-color="#3b4212" stop-opacity="1"/></linearGradient><linearGradient id="f" x1="-819.2" x2="819.2" gradientTransform="matrix(.04 0 0 .01 31 4.85)" gradientUnits="userSpaceOnUse" spreadMethod="pad"><stop offset=".5" stop-color="#4e5416" stop-opacity="1"/><stop offset="1" stop-color="#393f11" stop-opacity="1"/></linearGradient><linearGradient id="g" x1="-819.2" x2="819.2" gradientTransform="matrix(.04 0 0 .01 31 4.85)" gradientUnits="userSpaceOnUse" spreadMethod="pad"><stop offset=".5" stop-color="#414612" stop-opacity="1"/><stop offset="1" stop-color="#2f350e" stop-opacity="1"/></linearGradient><linearGradient id="h" x1="-819.2" x2="819.2" gradientTransform="matrix(0 -.01 .03 .01 -2.25 18)" gradientUnits="userSpaceOnUse" spreadMethod="pad"><stop offset=".5" stop-color="#646c1c" stop-opacity="1"/><stop offset="1" stop-color="#495216" stop-opacity="1"/></linearGradient><linearGradient id="i" x1="-819.2" x2="819.2" gradientTransform="matrix(0 .01 -.04 0 -1.15 9)" gradientUnits="userSpaceOnUse" spreadMethod="pad"><stop offset="0" stop-color="#2a320f" stop-opacity="1"/><stop offset="1" stop-color="#334013" stop-opacity="1"/></linearGradient><linearGradient id="x" x1="-819.2" x2="819.2" gradientTransform="matrix(.2 0 0 .04 -30.8 -11)" gradientUnits="userSpaceOnUse" spreadMethod="pad"><stop offset="0" stop-color="#2c2800" stop-opacity=".3"/><stop offset="1" stop-color="#262600" stop-opacity="0"/></linearGradient><linearGradient id="j" x1="-819.2" x2="819.2" gradientTransform="matrix(0 .01 -.04 0 -1.15 9)" gradientUnits="userSpaceOnUse" spreadMethod="pad"><stop offset="0" stop-color="#3e4b17" stop-opacity="1"/><stop offset="1" stop-color="#4d601d" stop-opacity="1"/></linearGradient><linearGradient id="k" x1="-819.2" x2="819.2" gradientTransform="matrix(0 -.01 .03 .01 -2.25 18)" gradientUnits="userSpaceOnUse" spreadMethod="pad"><stop offset=".5" stop-color="#60681b" stop-opacity="1"/><stop offset="1" stop-color="#464e15" stop-opacity="1"/></linearGradient><linearGradient id="l" x1="-819.2" x2="819.2" gradientTransform="matrix(0 -.01 .03 .01 -2.25 18)" gradientUnits="userSpaceOnUse" spreadMethod="pad"><stop offset=".5" stop-color="#393e10" stop-opacity="1"/><stop offset="1" stop-color="#2a2f0c" stop-opacity="1"/></linearGradient><linearGradient id="m" x1="-819.2" x2="819.2" gradientTransform="matrix(.04 0 0 .01 31 4.85)" gradientUnits="userSpaceOnUse" spreadMethod="pad"><stop offset=".5" stop-color="#2c300c" stop-opacity="1"/><stop offset="1" stop-color="#20240a" stop-opacity="1"/></linearGradient><linearGradient id="n" x1="-819.2" x2="819.2" gradientTransform="matrix(.04 0 0 .01 31 4.85)" gradientUnits="userSpaceOnUse" spreadMethod="pad"><stop offset=".5" stop-color="#505616" stop-opacity="1"/><stop offset="1" stop-color="#3a4112" stop-opacity="1"/></linearGradient><linearGradient id="o" x1="-819.2" x2="819.2" gradientTransform="matrix(0 -.01 .03 .01 -2.25 18)" gradientUnits="userSpaceOnUse" spreadMethod="pad"><stop offset=".5" stop-color="#666f1d" stop-opacity="1"/><stop offset="1" stop-color="#4b5417" stop-opacity="1"/></linearGradient><linearGradient id="p" x1="-819.2" x2="819.2" gradientTransform="matrix(0 .01 -.04 0 -1.15 9)" gradientUnits="userSpaceOnUse" spreadMethod="pad"><stop offset="0" stop-color="#404d17" stop-opacity="1"/><stop offset="1" stop-color="#4f621e" stop-opacity="1"/></linearGradient><linearGradient id="q" x1="-819.2" x2="819.2" gradientTransform="matrix(0 .01 -.04 0 -1.15 9)" gradientUnits="userSpaceOnUse" spreadMethod="pad"><stop offset="0" stop-color="#2f3911" stop-opacity="1"/><stop offset="1" stop-color="#3a4816" stop-opacity="1"/></linearGradient><linearGradient id="A" x1="-819.2" x2="819.2" gradientTransform="matrix(.2 0 0 .04 -30.8 -11)" gradientUnits="userSpaceOnUse" spreadMethod="pad"><stop offset="0" stop-color="#2e2900" stop-opacity=".3"/><stop offset="1" stop-color="#272700" stop-opacity="0"/></linearGradient><path id="D" fill="url(#v)" d="M7.9-.4q0 3-2.2 5.4Q3.5 7.3.3 7.5t-5.7-2q-2.3-2-2.4-5.1T-5.7-5t5.5-2.5 5.6 1.9T7.8-.4" transform="translate(7.85 7.5)"/><path id="aW" fill="url(#w)" d="M7.9-.4q0 3-2.2 5.4Q3.5 7.3.3 7.5t-5.7-2q-2.3-2-2.4-5.1T-5.7-5t5.5-2.5 5.6 1.9T7.8-.4" transform="translate(7.85 7.5)"/><path id="ao" fill="url(#x)" d="M66.2-20.9q20.3-4.7 26.9-6.5l14.5.3q122.4 3.5 89 19.2-26.2 12.3-88.1 21l-8.5 1.1q-24.8-3.4-46.6-1.4t-35.2 9.7l-13 1Q-44 13-78.5 28.6l-12.7.4q-7.2-7-38.9-9-31.6-2.1-71 8.9l-2.7-56.1q27.7 5.7 55.4 6t51.9-7.5l12.7-.1q38.8 11.2 79.6.2l13.3.1q36.8 12.4 57.1 7.7" transform="translate(203.8 28.9)"/><path id="an" fill="url(#y)" d="M25.5-25.5Q36-14.9 36 0T25.5 25.5Q15 36 0 36t-25.5-10.5T-36 0t10.5-25.5T0-36t25.5 10.5" transform="translate(36.05 36.05)"/><path id="am" fill="url(#z)" d="M25.5-25.5Q36-14.9 36 0T25.5 25.5Q15 36 0 36t-25.5-10.5T-36 0t10.5-25.5T0-36t25.5 10.5" transform="translate(36.05 36.05)"/><path id="I" fill="url(#A)" d="M66.2-20.9q20.3-4.7 26.9-6.5l14.5.3q122.4 3.5 89 19.2-26.2 12.3-88.1 21l-8.5 1.1q-24.8-3.4-46.6-1.4t-35.2 9.7l-13 1Q-44 13-78.5 28.6l-12.7.4q-7.2-7-38.9-9-31.6-2.1-71 8.9l-2.7-56.1q27.7 5.7 55.4 6t51.9-7.5l12.7-.1q38.8 11.2 79.6.2l13.3.1q36.8 12.4 57.1 7.7" transform="translate(203.8 28.9)"/><path id="H" fill="url(#B)" d="M25.5-25.5Q36-14.9 36 0T25.5 25.5Q15 36 0 36t-25.5-10.5T-36 0t10.5-25.5T0-36t25.5 10.5" transform="translate(36.05 36.05)"/><path id="G" fill="url(#C)" d="M25.5-25.5Q36-14.9 36 0T25.5 25.5Q15 36 0 36t-25.5-10.5T-36 0t10.5-25.5T0-36t25.5 10.5" transform="translate(36.05 36.05)"/><path id="F" fill="red" d="M71.8 5v20H-78.7V5z" transform="translate(78.75 -5)"/><radialGradient id="v" cx="0" cy="0" r="819.2" gradientTransform="matrix(.01 0 0 .01 0 -.05)" gradientUnits="userSpaceOnUse" spreadMethod="pad"><stop offset="0" stop-color="#e5dd98" stop-opacity=".2"/><stop offset=".7" stop-color="#e5e5c6" stop-opacity="0"/></radialGradient><radialGradient id="w" cx="0" cy="0" r="819.2" gradientTransform="matrix(.01 0 0 .01 0 -.05)" gradientUnits="userSpaceOnUse" spreadMethod="pad"><stop offset="0" stop-color="#e8e59d" stop-opacity=".2"/><stop offset=".7" stop-color="#e8ecc7" stop-opacity="0"/></radialGradient><radialGradient id="y" cx="0" cy="0" r="819.2" gradientTransform="scale(.04)" gradientUnits="userSpaceOnUse" spreadMethod="pad"><stop offset=".2" stop-color="#2d2800" stop-opacity=".3"/><stop offset="1" stop-color="#262600" stop-opacity="0"/></radialGradient><radialGradient id="z" cx="0" cy="0" r="819.2" gradientTransform="scale(.04)" gradientUnits="userSpaceOnUse" spreadMethod="pad"><stop offset=".7" stop-color="#2d2800" stop-opacity=".5"/><stop offset="1" stop-color="#262600" stop-opacity="0"/></radialGradient><radialGradient id="B" cx="0" cy="0" r="819.2" gradientTransform="scale(.04)" gradientUnits="userSpaceOnUse" spreadMethod="pad"><stop offset=".2" stop-color="#2f2900" stop-opacity=".3"/><stop offset="1" stop-color="#272700" stop-opacity="0"/></radialGradient><radialGradient id="C" cx="0" cy="0" r="819.2" gradientTransform="scale(.04)" gradientUnits="userSpaceOnUse" spreadMethod="pad"><stop offset=".7" stop-color="#2f2900" stop-opacity=".5"/><stop offset="1" stop-color="#272700" stop-opacity="0"/></radialGradient><clipPath id="E"><path d="M1 1h222v689H1z"/></clipPath><use xlink:href="#D" id="av" width="15.7" height="14.9"/></defs><g clip-path="url(#E)"><g transform="translate(115.85 339.9)"><use xlink:href="#F" width="150.6" height="20" transform="translate(-78.75 5)"/><use xlink:href="#G" width="72.1" height="72.1" transform="matrix(.1145 -.0491 .1146 .0662 52.25 28.85)"/><use xlink:href="#H" width="72.1" height="72.1" transform="matrix(.2116 -.0906 .2117 .1222 45.95 28.45)"/><use xlink:href="#I" width="407.6" height="57.8" transform="matrix(.0658 -.0282 .1146 .0662 56.5 28.25)"/><use xlink:href="#I" width="407.6" height="57.8" transform="matrix(.0711 -.0252 .1146 .0662 56.5 28)"/><use xlink:href="#J" width="8.9" height="24.2" transform="matrix(.997 .0743 .0652 1.0074 54.05 7.3)"/><use xlink:href="#K" width="8.9" height="24.2" transform="matrix(.997 .0743 -.0296 1.0003 55.7 -11.8)"/><use xlink:href="#L" width="65.6" height="18.2" transform="matrix(.2616 .4855 -.4068 .4105 65.7 -53.8)"/><use xlink:href="#M" width="86.8" height="42.3" transform="matrix(-.2242 .0223 -.0357 .444 81 -56.15)"/><use xlink:href="#N" width="17.6" height="59.8" transform="matrix(-.3834 .0039 -.1439 .4269 68.3 -49.4)"/><use xlink:href="#O" width="8.9" height="24.2" transform="matrix(.9483 .0161 .055 .9577 55.05 -30.25)"/><use xlink:href="#O" width="8.9" height="24.2" transform="matrix(.8936 .0901 -.0239 .9412 56.8 -48.9)"/><use xlink:href="#K" width="8.9" height="24.2" transform="matrix(.7871 .0789 -.0205 .8291 57.85 -65)"/><use xlink:href="#O" width="8.9" height="24.2" transform="matrix(.6885 .0699 -.0014 .6926 58.6 -78.2)"/><use xlink:href="#K" width="8.9" height="24.2" transform="matrix(.6885 .0699 -.0224 .6905 59.25 -91.35)"/><use xlink:href="#J" width="8.9" height="24.2" transform="matrix(.6561 .0667 -.0013 .66 59.35 -104.35)"/><use xlink:href="#K" width="8.9" height="24.2" transform="matrix(.617 .079 -.0183 .6497 60.1 -117.05)"/><use xlink:href="#K" width="8.9" height="24.2" transform="matrix(.5435 .0692 -.0158 .5724 60.85 -128.05)"/><use xlink:href="#K" width="8.9" height="24.2" transform="matrix(.5275 .0664 -.0278 .5544 61.65 -139)"/><use xlink:href="#O" width="8.9" height="24.2" transform="matrix(.4613 .0587 -.0127 .4635 62.4 -147.75)"/><use xlink:href="#K" width="8.9" height="24.2" transform="matrix(.4613 .0587 -.0267 .4617 63.05 -156.5)"/><use xlink:href="#K" width="8.9" height="24.2" transform="matrix(.4392 .0559 -.0191 .4412 63.5 -165.25)"/><use xlink:href="#K" width="8.9" height="24.2" transform="matrix(.4116 .0634 -.0448 .4329 64.75 -173.6)"/><use xlink:href="#P" width="8.8" height="64.6" transform="matrix(-.0112 .7473 .1311 .1218 55.15 -138.25)"/><use xlink:href="#K" width="8.9" height="24.2" transform="matrix(.3616 .0555 -.0512 .3805 66.15 -181)"/><use xlink:href="#K" width="8.9" height="24.2" transform="matrix(.3347 .0394 -.0562 .3508 67.4 -187.7)"/><use xlink:href="#K" width="8.9" height="24.2" transform="matrix(.2924 .0348 -.0471 .2927 68.65 -193.25)"/><use xlink:href="#K" width="8.9" height="24.2" transform="matrix(.292 .0348 -.0647 .291 69.95 -198.8)"/><use xlink:href="#K" width="8.9" height="24.2" transform="matrix(.278 .0331 -.0604 .2777 71.25 -204.2)"/><use xlink:href="#K" width="8.9" height="24.2" transform="matrix(.2577 .0378 -.1003 .2708 73.65 -209.5)"/><use xlink:href="#K" width="8.9" height="24.2" transform="matrix(.2271 .0332 -.0882 .2386 75.45 -214.15)"/><use xlink:href="#P" width="8.8" height="64.6" transform="matrix(.3308 .2946 -.2323 .1532 77.7 -182.85)"/><use xlink:href="#P" width="8.8" height="64.6" transform="matrix(.2198 .2269 -.1216 .1995 81.9 -226.6)"/><use xlink:href="#Q" width="65.6" height="18.2" transform="matrix(.6365 .4475 -.208 .8067 65.15 -61.1)"/><use xlink:href="#R" width="86.8" height="42.3" transform="matrix(-.2514 .1817 .2554 .5968 81.75 -74.45)"/><use xlink:href="#S" width="17.6" height="59.8" transform="matrix(-.4529 .2665 .1154 .6485 71.1 -57.1)"/><use xlink:href="#T" width="19.6" height="59.1" transform="matrix(.3165 -.0045 -.0797 .3892 73.65 -181)"/><use xlink:href="#U" width="66.6" height="28.7" transform="matrix(.2377 .2043 .0023 .31 76.95 -184.7)"/><use xlink:href="#V" width="65.1" height="23.9" transform="matrix(.1274 .2735 -.3009 -.0209 80.25 -179.25)"/><use xlink:href="#W" width="66.6" height="28.7" transform="matrix(.0836 .2697 -.485 .6187 79.95 -185.5)"/><use xlink:href="#X" width="39.5" height="51.2" transform="matrix(-.1158 .1806 .3041 .3945 81.75 -189.55)"/><use xlink:href="#S" width="17.6" height="59.8" transform="matrix(.0948 .1499 -.1108 .104 76.65 -185.35)"/><use xlink:href="#Q" width="65.6" height="18.2" transform="matrix(-.4392 .2253 .3541 .4843 53.55 -140.25)"/><use xlink:href="#R" width="86.8" height="42.3" transform="matrix(.2527 .1209 -.0841 .3347 36.45 -149.05)"/><use xlink:href="#S" width="17.6" height="59.8" transform="matrix(.4418 .1821 .0457 .373 49.35 -138.3)"/><use xlink:href="#Y" width="8.9" height="37.2" transform="matrix(-.3219 -.0729 -.0584 .386 66.3 17.95)"/><use xlink:href="#Z" width="61.8" height="10.3" transform="matrix(-.2564 -.0773 -.312 .2779 -26.85 15.85)"/><use xlink:href="#aa" width="65.1" height="23.9" transform="matrix(-.3023 .107 .0857 .3128 -30.9 17.6)"/><use xlink:href="#ab" width="61.8" height="10.3" transform="matrix(-.4395 .5894 .301 .2557 -28.9 12.75)"/><use xlink:href="#ac" width="19.6" height="59.1" transform="matrix(.4262 -.2443 -.1471 .695 -34.55 22.15)"/><use xlink:href="#ad" width="93" height="46.3" transform="matrix(.2787 .0947 -.2509 .628 -46.4 5.3)"/><use xlink:href="#ae" width="50.8" height="71.2" transform="matrix(.3559 .0787 -.1256 .6493 -43.45 14.3)"/><use xlink:href="#af" width="19.6" height="59.1" transform="matrix(-.3559 -.0787 -.0844 .3776 -20.05 21.15)"/><use xlink:href="#ag" width="65.6" height="18.2" transform="matrix(-.3935 .2917 .4381 .3881 -45.6 -128.6)"/><use xlink:href="#ah" width="86.8" height="42.3" transform="matrix(.2719 .0666 -.0224 .3287 -64.1 -133.75)"/><use xlink:href="#ai" width="17.6" height="59.8" transform="matrix(.47 .0892 .113 .3407 -49.4 -126)"/><use xlink:href="#aj" width="66.6" height="28.7" transform="matrix(-.778 .4771 -.135 .5412 -68.15 -95.6)"/><use xlink:href="#ak" width="65.6" height="18.2" transform="matrix(-.4588 .5366 .8524 -.1513 -66.4 -96.35)"/><use xlink:href="#al" width="66.6" height="28.7" transform="matrix(-.2314 .298 .4439 .7639 -63.85 -101.2)"/><use xlink:href="#am" width="72.1" height="72.1" transform="matrix(-.212 -.107 -.2159 .107 -7.45 95.65)"/><use xlink:href="#an" width="72.1" height="72.1" transform="matrix(-.3915 -.1975 -.3988 .1975 4.3 95.9)"/><use xlink:href="#ao" width="407.6" height="57.8" transform="matrix(-.1218 -.0615 -.2159 .107 -15.35 93.95)"/><use xlink:href="#ao" width="407.6" height="57.8" transform="matrix(-.1317 -.0565 -.2159 .107 -15.35 93.55)"/><use xlink:href="#ap" width="8.9" height="37.2" transform="matrix(-.7579 .189 .2113 .9095 -30.35 59.65)"/><use xlink:href="#aq" width="8.9" height="24.2" transform="matrix(-1.8431 -.0457 -.0539 1.6832 -12.35 58.75)"/><use xlink:href="#ar" width="8.9" height="24.2" transform="matrix(-1.8431 -.0457 .0236 1.6851 -14.8 26.3)"/><use xlink:href="#as" width="8.9" height="24.2" transform="matrix(-1.7524 -.1351 -.1134 1.5995 -13.95 -4.6)"/><use xlink:href="#as" width="8.9" height="24.2" transform="matrix(-1.6536 .0122 .0001 1.5838 -16.35 -36.45)"/><use xlink:href="#at" width="8.9" height="24.2" transform="matrix(-1.4565 .0274 .0192 1.3945 -17.8 -63.9)"/><use xlink:href="#D" width="15.7" height="14.9" transform="matrix(-1.0729 .569 .0192 1.3945 -12.25 -59.95)"/><use xlink:href="#au" width="8.9" height="24.2" transform="matrix(-1.2732 .0719 .0539 1.1602 -19.95 -85.8)"/><use xlink:href="#av" width="15.7" height="14.9" transform="matrix(-.7221 .3987 .0539 1.1602 -17.3 -79.1)"/><use xlink:href="#aw" width="8.9" height="24.2" transform="matrix(-1.2726 .0824 .0267 1.1619 -21 -108.75)"/><use xlink:href="#D" width="15.7" height="14.9" transform="matrix(-.6696 .3718 .0172 .7486 -18.35 -104.85)"/><use xlink:href="#D" width="15.7" height="14.9" transform="matrix(-.5085 .2824 .0172 .7486 -19.25 -92.3)"/><use xlink:href="#aq" width="8.9" height="24.2" transform="matrix(-1.2124 .0887 .0212 1.1075 -22.45 -129.8)"/><use xlink:href="#ar" width="8.9" height="24.2" transform="matrix(-1.1371 .134 .0792 1.0891 -25.4 -150.8)"/><use xlink:href="#ar" width="8.9" height="24.2" transform="matrix(-1.0023 .1175 .0552 .9603 -27.05 -169.5)"/><use xlink:href="#ar" width="8.9" height="24.2" transform="matrix(-.9743 .1128 .0444 .9324 -28.1 -187.85)"/><use xlink:href="#as" width="8.9" height="24.2" transform="matrix(-.8529 .0719 .0326 .7779 -29.05 -202.5)"/><use xlink:href="#ar" width="8.9" height="24.2" transform="matrix(-.8522 .0788 .0207 .7793 -29.6 -217.95)"/><use xlink:href="#ar" width="8.9" height="24.2" transform="matrix(-.8084 .1013 .0369 .7431 -30.65 -232.6)"/><use xlink:href="#ar" width="8.9" height="24.2" transform="matrix(-.7676 -.0152 .046 .729 -32 -246.75)"/><use xlink:href="#ax" width="8.8" height="64.6" transform="matrix(-.1213 1.2542 .2244 .218 -42.7 -126.15)"/><use xlink:href="#ar" width="8.9" height="24.2" transform="matrix(-.6725 -.0327 .026 .6458 -33.15 -259.05)"/><use xlink:href="#ar" width="8.9" height="24.2" transform="matrix(-.6176 -.0501 .0098 .5987 -33.9 -270.6)"/><use xlink:href="#ar" width="8.9" height="24.2" transform="matrix(-.5436 -.0232 .0328 .4965 -35 -280.2)"/><use xlink:href="#ar" width="8.9" height="24.2" transform="matrix(-.5403 -.0232 .0306 .4995 -35.6 -290.3)"/><use xlink:href="#ar" width="8.9" height="24.2" transform="matrix(-.5128 -.0221 .0121 .4771 -35.7 -299.75)"/><use xlink:href="#ar" width="8.9" height="24.2" transform="matrix(-.4756 -.0088 .0351 .4779 -36.7 -309.3)"/><use xlink:href="#ar" width="8.9" height="24.2" transform="matrix(-.4177 -.0081 .008 .422 -37.05 -317.5)"/><use xlink:href="#ax" width="8.8" height="64.6" transform="matrix(-1.2198 .7633 .6824 .5514 -60.5 -95.9)"/><use xlink:href="#ax" width="8.8" height="64.6" transform="matrix(-.5114 .3165 .093 .325 -41.55 -338.9)"/><use xlink:href="#ax" width="8.8" height="64.6" transform="matrix(-.02 1.2539 -.2488 .2001 -11.55 -168.05)"/><use xlink:href="#ax" width="8.8" height="64.6" transform="matrix(.1559 1.2507 -.2222 .1952 -7.7 -77.45)"/><use xlink:href="#ay" width="8.9" height="37.2" transform="matrix(-.7783 0 -.0172 .9384 -11.65 67)"/><use xlink:href="#az" width="5.4" height="36.5" transform="matrix(-.8798 .3403 .1884 .5074 -34 79.2)"/><use xlink:href="#aj" width="66.6" height="28.7" transform="matrix(.5119 .1527 .179 .333 -7.3 -74.6)"/><use xlink:href="#ak" width="65.6" height="18.2" transform="matrix(.3521 .2607 -.4879 .081 -8.4 -74.7)"/><use xlink:href="#al" width="66.6" height="28.7" transform="matrix(.183 .1497 -.0884 .6056 -10.8 -77.4)"/><use xlink:href="#ag" width="65.6" height="18.2" transform="matrix(-.4455 .5374 .6358 .3005 -55.25 -95.15)"/><use xlink:href="#ah" width="86.8" height="42.3" transform="matrix(.3604 -.0332 .0358 .4241 -88.3 -96)"/><use xlink:href="#ai" width="17.6" height="59.8" transform="matrix(.6179 -.0901 .0705 .4014 -68.15 -92.65)"/><use xlink:href="#aA" width="86.8" height="42.3" transform="matrix(.5275 -.2389 .1281 .5143 -61 13.2)"/><use xlink:href="#aj" width="66.6" height="28.7" transform="matrix(.3694 .521 -.151 .4836 -28.4 -7.75)"/><use xlink:href="#aB" width="17.6" height="59.8" transform="matrix(.5098 .0522 -.0643 .6126 -36.45 -6.45)"/><use xlink:href="#aC" width="86.8" height="42.3" transform="matrix(.7685 .0156 .1622 .6512 -85.45 -9.25)"/><use xlink:href="#aD" width="39.5" height="51.2" transform="matrix(.5592 .0362 .1541 .306 -47.05 -7.8)"/><use xlink:href="#ai" width="17.6" height="59.8" transform="matrix(-.5565 -.0704 -.0434 .3508 -18.75 -2.25)"/><use xlink:href="#aE" width="61.8" height="10.3" transform="matrix(-.3429 .2714 .4182 .3215 -37.5 -7.6)"/><use xlink:href="#aj" width="66.6" height="28.7" transform="matrix(.3183 -.2431 .4341 .0658 -13.6 -166.9)"/><use xlink:href="#aF" width="65.6" height="18.2" transform="matrix(.4001 -.0939 -.0703 .3602 -9.2 -164.55)"/><use xlink:href="#aG" width="66.6" height="28.7" transform="matrix(.6363 .2852 -.3529 .4456 -12 -170.95)"/><use xlink:href="#aH" width="19.6" height="59.1" transform="matrix(-.5759 .0416 .2755 .5793 -3.35 -165.9)"/><use xlink:href="#aI" width="86.8" height="42.3" transform="matrix(-.3446 .2745 .3998 .4462 9.15 -186.65)"/><use xlink:href="#aD" width="39.5" height="51.2" transform="matrix(-.4454 .3096 .2422 .5489 2.05 -176.1)"/><use xlink:href="#ai" width="17.6" height="59.8" transform="matrix(.4454 -.3096 .1554 .3118 -21.7 -157.85)"/><use xlink:href="#am" width="72.1" height="72.1" transform="matrix(.2205 -.1102 .2205 .1102 -34.7 334.55)"/><use xlink:href="#an" width="72.1" height="72.1" transform="matrix(.4072 -.2036 .4072 .2036 -46.85 334.8)"/><use xlink:href="#ao" width="407.6" height="57.8" transform="matrix(.1267 -.0634 .2205 .1102 -26.5 332.8)"/><use xlink:href="#ao" width="407.6" height="57.8" transform="matrix(.1368 -.0583 .2205 .1102 -26.45 332.35)"/><use xlink:href="#aj" width="66.6" height="28.7" transform="matrix(-.5469 .2052 -.1819 .4023 -30.35 132.7)"/><use xlink:href="#ak" width="65.6" height="18.2" transform="matrix(-.3709 .3252 .5286 .0723 -29.2 132.55)"/><use xlink:href="#al" width="66.6" height="28.7" transform="matrix(-.1923 .1859 .1153 .7117 -26.75 129.25)"/><use xlink:href="#aJ" width="61.8" height="10.3" transform="matrix(-.2555 .2286 -.0196 .3239 -18.4 153.95)"/><use xlink:href="#aK" width="65.1" height="23.9" transform="matrix(-.1369 .2931 .3 -.0201 -19.5 154.2)"/><use xlink:href="#aL" width="61.8" height="10.3" transform="matrix(-.0588 -.2923 .5148 .4541 -18.8 168.1)"/><use xlink:href="#aH" width="19.6" height="59.1" transform="matrix(-.3524 .004 .0979 .4238 -16 41.3)"/><use xlink:href="#aj" width="66.6" height="28.7" transform="matrix(-.2599 .2304 .0047 .3395 -19.8 37.3)"/><use xlink:href="#aM" width="65.1" height="23.9" transform="matrix(-.1354 .3031 .3344 -.0314 -23.35 43.4)"/><use xlink:href="#al" width="66.6" height="28.7" transform="matrix(-.0867 .2977 .5543 .6637 -23.2 36.5)"/><use xlink:href="#aD" width="39.5" height="51.2" transform="matrix(.1331 .1945 -.3292 .4406 -25.3 32.1)"/><use xlink:href="#ai" width="17.6" height="59.8" transform="matrix(-.102 .1668 .1258 .1108 -19.5 36.6)"/><use xlink:href="#aN" width="66.6" height="28.7" transform="matrix(-.293 .0094 -.1987 .4226 -48.5 17.75)"/><use xlink:href="#aO" width="65.6" height="18.2" transform="matrix(-.2614 .2301 .2197 .314 -49.6 23.75)"/><use xlink:href="#aP" width="66.6" height="28.7" transform="matrix(-.1959 .8141 .4139 .1712 -51.4 14.9)"/><use xlink:href="#aQ" width="19.6" height="59.1" transform="matrix(.3288 -.4277 .1456 .8226 -53.45 27.2)"/><use xlink:href="#aR" width="86.8" height="42.3" transform="matrix(.323 .0014 .0119 .787 -70.7 15.95)"/><use xlink:href="#aS" width="39.5" height="51.2" transform="matrix(.3946 -.0447 .1481 .7641 -61.5 21.05)"/><use xlink:href="#aT" width="17.6" height="59.8" transform="matrix(-.3946 .0447 .0746 .4486 -39.55 20.45)"/><use xlink:href="#ag" width="65.6" height="18.2" transform="matrix(.3655 .4016 -.5415 .3858 12.7 -.3)"/><use xlink:href="#ah" width="86.8" height="42.3" transform="matrix(-.3031 .0359 -.0381 .3875 33.3 -3.5)"/><use xlink:href="#ai" width="17.6" height="59.8" transform="matrix(-.5191 .0317 -.185 .3807 16.3 3.3)"/><use xlink:href="#aj" width="66.6" height="28.7" transform="matrix(-.653 -.577 -.6889 .0916 -51.35 .1)"/><use xlink:href="#ak" width="65.6" height="18.2" transform="matrix(-.7056 -.2335 .2491 .7876 -50.3 1.55)"/><use xlink:href="#al" width="66.6" height="28.7" transform="matrix(-.3902 -.1064 -.9284 .7625 -44.05 2.15)"/><use xlink:href="#aq" width="8.9" height="24.2" transform="matrix(1.9895 -.054 .0249 1.9903 -28.75 291.25)"/><use xlink:href="#ar" width="8.9" height="24.2" transform="matrix(1.9895 -.054 -.1321 1.9945 -24.35 252.85)"/><use xlink:href="#aU" width="8.9" height="24.2" transform="matrix(1.8934 -.1597 .0907 1.8913 -25.7 216.35)"/><use xlink:href="#D" width="15.7" height="14.9" transform="matrix(1.1464 .1528 .0733 1.5276 -29.6 224.2)"/><use xlink:href="#D" width="15.7" height="14.9" transform="matrix(.5125 -.7886 1.1342 .4011 -32.35 254.7)"/><use xlink:href="#at" width="8.9" height="24.2" transform="matrix(1.784 -.0016 -.0145 1.873 -23.25 178.9)"/><use xlink:href="#D" width="15.7" height="14.9" transform="matrix(1.3177 .7358 -.0145 1.873 -30 184.4)"/><use xlink:href="#ar" width="8.9" height="24.2" transform="matrix(1.5714 -.0024 -.0117 1.6498 -21.75 146.8)"/><use xlink:href="#ar" width="8.9" height="24.2" transform="matrix(1.3749 .0237 -.0199 1.3743 -20.1 121.3)"/><use xlink:href="#ar" width="8.9" height="24.2" transform="matrix(1.3746 .0362 .0095 1.3751 -19.7 93.95)"/><use xlink:href="#aq" width="8.9" height="24.2" transform="matrix(1.3099 .0466 .0137 1.3105 -18.85 69)"/><use xlink:href="#ar" width="8.9" height="24.2" transform="matrix(1.2324 .0761 -.0204 1.2923 -17.5 43.7)"/><use xlink:href="#ar" width="8.9" height="24.2" transform="matrix(1.0862 .0663 -.0022 1.1385 -16.85 21.6)"/><use xlink:href="#ar" width="8.9" height="24.2" transform="matrix(1.0558 .0628 .0077 1.1048 -16.8 -.2)"/><use xlink:href="#aV" width="8.9" height="24.2" transform="matrix(.9226 .0232 .0605 .9226 -17.85 -17.6)"/><use xlink:href="#aW" width="15.7" height="14.9" transform="matrix(.5608 .1351 .0489 .7452 -19.7 -14)"/><use xlink:href="#aW" width="15.7" height="14.9" transform="matrix(.2433 -.3554 .5569 .255 -20.8 .7)"/><use xlink:href="#ar" width="8.9" height="24.2" transform="matrix(.9223 .0315 .0241 .9222 -17.7 -35)"/><use xlink:href="#ar" width="8.9" height="24.2" transform="matrix(.8778 .0379 .0278 .8803 -17.75 -52.05)"/><use xlink:href="#ar" width="8.9" height="24.2" transform="matrix(-.8269 -.0687 .0077 .8652 -9.7 -69.2)"/><use xlink:href="#aX" width="8.8" height="64.6" transform="matrix(-.1071 1.4841 -.281 .22 8.95 2.65)"/><use xlink:href="#ar" width="8.9" height="24.2" transform="matrix(-.7233 -.0831 -.009 .7655 -10.25 -83.95)"/><use xlink:href="#ar" width="8.9" height="24.2" transform="matrix(-.6632 -.1 -.0238 .7088 -10.35 -97.75)"/><use xlink:href="#ar" width="8.9" height="24.2" transform="matrix(-.5854 -.0634 .0174 .59 -11.8 -109.45)"/><use xlink:href="#ar" width="8.9" height="24.2" transform="matrix(-.5825 -.0632 .0297 .5943 -12.6 -120.9)"/><use xlink:href="#ar" width="8.9" height="24.2" transform="matrix(-.5529 -.0601 .0099 .5665 -12.85 -132.1)"/><use xlink:href="#ar" width="8.9" height="24.2" transform="matrix(-.5133 -.0419 .0552 .5703 -14.4 -143.5)"/><use xlink:href="#ar" width="8.9" height="24.2" transform="matrix(-.4507 -.0372 .0238 .502 -14.9 -153.15)"/><use xlink:href="#ax" width="8.8" height="64.6" transform="matrix(-1.3401 .8438 .7175 .6848 -52.3 1.85)"/><use xlink:href="#ax" width="8.8" height="64.6" transform="matrix(-.5535 .3416 .1106 .4412 -20.35 -181.4)"/><use xlink:href="#ax" width="8.8" height="64.6" transform="matrix(.0961 1.48 .2798 .2184 -32.65 -68.95)"/><use xlink:href="#ax" width="8.8" height="64.6" transform="matrix(-.1268 1.4863 .246 .2201 -33.05 131.75)"/><use xlink:href="#aY" width="8.9" height="37.2" transform="matrix(.8293 0 0 1 -30.65 302.45)"/><use xlink:href="#aZ" width="5.4" height="36.5" transform="matrix(1.5492 -.1988 .0859 .6694 -28.3 316.3)"/><use xlink:href="#aZ" width="5.4" height="36.5" transform="matrix(.7042 -.0904 -.1502 .4616 -9.5 321.35)"/><use xlink:href="#ba" width="65.6" height="18.2" transform="matrix(-.7225 .7153 .2772 .5656 -32.2 131.85)"/><use xlink:href="#bb" width="86.8" height="42.3" transform="matrix(.3008 .0182 -.272 .637 -52.15 129.5)"/><use xlink:href="#bc" width="17.6" height="59.8" transform="matrix(.5393 -.0183 -.1065 .6056 -39 138.45)"/><use xlink:href="#aA" width="86.8" height="42.3" transform="matrix(.5644 -.2825 .1484 .6082 -86.7 25.4)"/><use xlink:href="#aj" width="66.6" height="28.7" transform="matrix(.4088 .6161 -.1533 .5718 -51.95 .6)"/><use xlink:href="#aB" width="17.6" height="59.8" transform="matrix(.551 .0618 -.0573 .7244 -60.55 2.15)"/><use xlink:href="#aC" width="86.8" height="42.3" transform="matrix(.8295 .0184 .1879 .77 -113.5 -1.2)"/><use xlink:href="#aD" width="39.5" height="51.2" transform="matrix(.604 .0428 .1723 .3618 -72 .55)"/><use xlink:href="#ai" width="17.6" height="59.8" transform="matrix(-.6018 -.0833 -.0399 .4148 -41.45 7.1)"/><use xlink:href="#aE" width="61.8" height="10.3" transform="matrix(-.3646 .3208 .4575 .3801 -61.8 .75)"/><use xlink:href="#aj" width="66.6" height="28.7" transform="matrix(-.3572 -.2641 -.4634 .1091 -30.2 -67.65)"/><use xlink:href="#aF" width="65.6" height="18.2" transform="matrix(-.4364 -.082 .0972 .4204 -34.85 -64.55)"/><use xlink:href="#aG" width="66.6" height="28.7" transform="matrix(-.6681 .383 .4065 .501 -32.25 -72.25)"/><use xlink:href="#aH" width="19.6" height="59.1" transform="matrix(.6225 .0075 -.2621 .7043 -41.25 -65.75)"/><use xlink:href="#aI" width="86.8" height="42.3" transform="matrix(.3874 .2993 -.404 .5561 -55.95 -89.35)"/><use xlink:href="#aD" width="39.5" height="51.2" transform="matrix(.498 .3335 -.2281 .666 -47.65 -77.4)"/><use xlink:href="#ai" width="17.6" height="59.8" transform="matrix(-.498 -.3335 -.1487 .3797 -20.95 -57.5)"/></g></g></svg>