<svg xmlns="http://www.w3.org/2000/svg" xmlns:xlink="http://www.w3.org/1999/xlink" width="33" height="50" viewBox="0 0 33 50"><defs><g id="e"><path fill="#d38525" d="m4 9 1.1.6L6.4 9 5 8.1h-.1V8l-.3-.2 1.3.4H6l2.3 1.6q-.6-.4-1.4 0h-.1l-.5.1Q5 10.6 4 12.1q-2.4-.2-2.9-1.8Q2 9 3 8.3z"/><path fill="#968f7a" d="m4.9 8.1 1.5 1-1.3.5-1-.7z"/><path fill="#514e40" d="m4 9-1-.7.2-1.8h1.1l.2 1.3.1.2h.2l.1.1zm.7-1h-.2z"/><path fill="#e3bf46" d="M1.1 10.3q.5 1.5 2.9 1.8l-.2.3-.5 1Q2 11.7.5 11.5l.5-1z"/><path fill="#34200e" d="M4 12q.9-1.4 2.3-2l.4-.2h.1v.8q0 1.7-1 3.4l-.5.7q-.8 1.2-1.9 1.7l-.5.2-.1-.9q0-1.1.5-2.3l.5-1z"/><path fill="#6c441e" d="M6.8 9.8q.8-.4 1.5 0l.3.1q1 .8 1.1 2.5 0 1.7-1 3.4T6.2 18q-1.5.8-2.5 0l-.2-.2-.6-.8-.1-.5.5-.2q1.1-.5 2-1.7l.4-.7q1-1.7 1-3.4z"/><path fill="#865424" d="m2.9 16.6.1.4.5.9-2.3-1.4-.2-.1q-.6-.4-.8-1.1L0 13.9q0-1.2.5-2.3 1.4.2 2.8 1.8-.5 1.2-.5 2.3z"/><path fill="#960" d="m3.2 6.5-.6-5.1Q2.3-.2 4.9.1l-.5 6.4z"/><path fill="none" stroke="#865424" stroke-linecap="round" stroke-linejoin="round" stroke-width="__RESOLUTION__" d="M3 8.4Q2 9 1.1 10.3l-.1.3-.5 1q-.6 1.2-.5 2.3l.2 1.3q.2.8.8 1.2l.2.1M6 8.2l-1.4-.4" vector-effect="non-scaling-stroke"/><path fill="none" stroke="#533e0d" stroke-linecap="round" stroke-linejoin="round" stroke-width="__RESOLUTION__" d="M4.8 0Q2.2-.2 2.6 1.4l.6 5.1L3 8.3M4.6 8h.2m-.5-.2-.2-1.3M4.6 8l-.1-.2zm-.2-.2.1.2" vector-effect="non-scaling-stroke"/><path fill="#ffff73" d="M4.2 12.8 4 13q-.2.3-.4.3l-.5-.2-.1-.4.1-.5.5-.2.4.2z"/></g><g id="d"><path fill="#9f7746" d="M1.7.9q.5-.9.7-.6 1-1 2 1.2l-.6 5.6 2.4 1v10.4l-.8.2L0 16.2V5.9l.8-.3 1.4.7zM3 2.6V1.1h-.7v1.5z"/><path fill="#653701" d="M2.9 2.6h-.7V1.1h.7z"/><path fill="none" stroke="#7c5938" stroke-linecap="round" stroke-linejoin="round" stroke-width="__RESOLUTION__" d="M1.7.9q.5-.9.7-.6 1-1 2 1.2l-.6 5.6m2.4 1v10.4l-.8.2L0 16.2" vector-effect="non-scaling-stroke"/></g><g id="c"><path fill="#724701" d="m.7.6.7-.6.6.6v8.3h-.8z"/><path fill="none" stroke="#34200e" stroke-linecap="round" stroke-linejoin="round" stroke-width="__RESOLUTION__" d="M2 8.9h-.8L.7.6" vector-effect="non-scaling-stroke"/><path fill="none" stroke="#514e40" stroke-linecap="round" stroke-linejoin="round" stroke-width="__RESOLUTION__" d="M1.6 8.9v7l1.5-1v4.2m-1.5-3.2h-.1v4.6m-1.5 0v-3.8l1.5-.8" vector-effect="non-scaling-stroke"/></g><g id="b"><path fill="#724701" d="M1.3 5.1V.3l.5-.3.3.3-.3 4.8z"/><path fill="#968f7a" d="M2.4 9.4Q3 10 3 11t-.5 1.6-1 .7-1-.7Q0 12 0 11t.4-1.6L.7 9l.3-.2.4-.1h.2z"/><path fill="none" stroke="#34200e" stroke-linecap="round" stroke-linejoin="round" stroke-width="__RESOLUTION__" d="M1.3 5.1h.5L2.1.3" vector-effect="non-scaling-stroke"/><path fill="none" stroke="#865424" stroke-linecap="round" stroke-linejoin="round" stroke-width="__RESOLUTION__" d="m2.4 9.4-.8-.7h-.2l-.4.1-.3.2-.3.4Q0 10 0 11t.4 1.6 1 .7 1-.7Q3 12 3 11t-.5-1.6" vector-effect="non-scaling-stroke"/><path fill="none" stroke="#514e40" stroke-linecap="round" stroke-linejoin="round" stroke-width="__RESOLUTION__" d="M1.6 8.7V5.1" vector-effect="non-scaling-stroke"/></g><clipPath id="a"><path d="M1 1h31v48H1z"/></clipPath><path id="f" fill="#e4f3f3" d="m-20.8-35.7-.2.5-.4.2q-.4 0-.6-.2l-.1-.5.2-.4.4-.2.5.1z" transform="translate(22.15 36.35)"/></defs><g clip-path="url(#a)"><g transform="translate(33.3 72.65)"><use xlink:href="#b" width="2.9" height="13.3" transform="translate(-21.9 -45.2)"/><use xlink:href="#c" width="3.1" height="20.6" transform="matrix(-1 0 0 1 -4.6 -44.95)"/><use xlink:href="#c" width="3.1" height="20.6" transform="matrix(-.5806 0 0 .5806 -9.8 -41.05)"/><use xlink:href="#d" width="6.2" height="18.7" transform="translate(-26.35 -68.95)scale(.7784)"/><use xlink:href="#e" width="9.7" height="18.5" transform="matrix(-1 0 0 1 -15 -65.65)"/><use xlink:href="#e" width="9.7" height="18.5" transform="matrix(-.9027 0 0 .9027 -7.7 -62.25)"/><use xlink:href="#e" width="9.7" height="18.5" transform="matrix(-.6794 0 0 .6794 -1.65 -58.9)"/><use xlink:href="#c" width="3.1" height="20.6" transform="matrix(-.5806 0 0 .5806 -15 -42.95)"/><use xlink:href="#f" width="1.4" height="1.4" transform="translate(-22.15 -36.35)"/><use xlink:href="#d" width="6.2" height="18.7" transform="translate(-32.3 -71.65)scale(.7784)"/></g></g></svg>