<svg xmlns="http://www.w3.org/2000/svg" xmlns:xlink="http://www.w3.org/1999/xlink" width="56" height="71" viewBox="0 0 56 71"><defs><g id="a"><path fill="#171201" fill-opacity=".5" d="m24.9 8.7-.2 5.9L1 24.8l-.4-5zM1.5 41.2V41l6.4-3.2q-.4 7.5-2.8 11.5-2.3-.2-3.6-8.1"/><path fill="#171301" fill-opacity=".4" d="M24.7 14.6q-.6 17.1.8 34.7-3 4.2-6 3.2v-6l-14 6v7.3q-3 4.9-5.1 2.7 1-10.8 1-21.3 1.4 7.8 3.7 8.1 2.5-4 2.8-11.5L1.4 41q.1-8.2-.4-16.2z"/><path fill="#171101" fill-opacity=".7" d="M.6 19.9 0 13.8 25.5 0q-.4 4.3-.6 8.7z"/></g><g id="k"><path fill="#857836" d="m30.4 2.6-3.5 1.8-4.2-2.2L26.2.6zm-12.5 2L22.3 7l-9.7 4.9v-.2L8.4 9.3zm-14.4 7 4.2 2.2v.3l-2.9 1.3-.1.2L.5 13z"/><path fill="#4b4b2e" d="m26.9 4.4 3.5-1.8v5.1l-3.5 1.8zm-4.6 2.4-.2 5-9.5 4.9v-5zM.4 13l4.2 2.6.1-.2 2.9-1.3v5l-2.9 1.4-.1.1L.5 18z"/><path fill="#bda860" d="m22.7 2.3 4.2 2.1L22.3 7l-4.4-2.3zm-14.3 7 4.2 2.3v.2l-5 2.3v-.3l-4.1-2.2z"/><path fill="#97833e" d="M26.9 4.4v5.1L22 11.9l.1-5zM7.7 14.2l4.9-2.3v5L7.9 19z"/><path fill="none" stroke="#28271a" stroke-linecap="round" stroke-linejoin="round" stroke-width="1" d="M30.4 2.6 26.2.5l-3.6 1.8M27 9.5l3.5-1.8v-5M18 4.7 8.4 9.2m4.3 7.5 9.4-4.9m-18.6-.3L.5 13v5l4.2 2.6.1-.1 3-1.4"/><path fill="none" stroke="#595837" stroke-linecap="round" stroke-linejoin="round" stroke-width="1" d="m22.7 2.3 4.2 2.1m-9 .2L22.3 7m.3-4.6L18 4.6M8.4 9.3l4.2 2.3v.2m-9.1-.2 4.2 2.2v.3m.7-4.8-4.9 2.3"/><path fill="none" stroke="#3c3a24" stroke-linecap="round" stroke-linejoin="round" stroke-width="1" d="M26.9 4.4v5.1L22 11.9l.1-5m-9.6 4.9v5L7.9 19l-.1-5"/></g><g id="j"><path fill="#c09532" d="M8.4 5.3v.4l-1 5.2-2 1h-.2l-1.9-.7-1-1.3 1.3-4.8 2.7.5zl-2 .3-2.7-.5-1-1.1.8-2.8 2-.6-.4 1.6q1.5 1 2.8.2z"/><path fill="#dabf67" d="m2.2 9.9 1.1 1.3 1.9.7h.2l1.7.3-.5 2.4-2.5.4-1.1-.7-1.5-1.9z"/><path fill="#d2ab51" d="M5.2 11.9h.2l2-1-.3 1.3-1.7-.3zm1.4 2.7-.3 2q-.5.8-2.5 1.1Q.9 17 .5 16.4l1-3.9L3 14.4l1.2.7zM2.6 4l1 1h-.7z"/><path fill="none" stroke="#664f1a" stroke-linecap="round" stroke-linejoin="round" stroke-width="1" d="M7.9 2.4 7.5.5m-.2 10.4 1-5.2v-.4l-2 .3-2.7-.5-1.4 4.8 1.1 1.3 1.9.7h.2zL7 12.2l-.5 2.4-.3 2q-.5.8-2.5 1.1Q.9 17 .5 16.4l1-3.9.7-2.5m5.6-7.5.5 2.9m-1.2 6.9L5.4 12h0-.2M3.6 5l-.9-1 .2 1zm-.9-1 .8-2.8m3.1 13.4-2.5.4-1.1-.7-1.5-1.9"/></g><g id="i"><path fill="#c1b468" d="m14.7 4.4 3-1.6L21.5 6l-2.9 1.6-.1.6-2.1.8-2.6 1.1-.8.4-3.9-2.9 4.7-2.1 1.3.8-1.9 1 1.4.6 2.8-1.6zM6.1 8.9l1.3-.7 5 3.8h.3l-.7 1.6z"/><path fill="#6b0101" d="m14.7 4.4 2.8 1.9-2.9 1.6-1.4-.6 1.9-1-1.3-.8-4.7 2.1 3.9 3 .8-.5-1.3 1.9-5-3.7zm4 3.2L21.5 6l-3.7-3.2L22 .5q5 4.3 10.8 7.6l-9.3-.6h-.1l-.1-.1-.7-.4-.9.4-.4.1zm-6.5 12.5q-6.3-3.8-11.6-8l5.7-3.2 6 4.7z"/><path fill="#ad0101" d="m13.8 10.1 2.6-1.2 4.2 2.8 5.2-2.6-.7-.3-3.6 1.2-3-1.8.1-.6 2.7-.1.1.1-.4.3.9.7 1.5-1v-.1l9.4.6 5.9 3.2h.1l.9 1.8-5 1.2-5.9-3.3-1.6-1-6.5 3.1-4.6-2.7-3.3 1.6h-.3zm16 5.8h-.2l-.4.2-1.2.4-.5.1 1.3-1.5-2.4-1.4-3.6 1.8 3.4 1.9-3.8 2.4.8.3-.8.9q-1.3 1.5-2 3.2h-.1q-3.7-1.6-7.2-3.6l-1-.5v-6.5l.8.6 4-1.6 2.9 2-3 2 4 2.4 2.9-1.4-3.4-2 6.3-3.3 4.6 2.6-.5.5zm-14.3 0 2.1-1.2-1-.7-2.2 1.1z"/><path fill="#fff" d="m16.4 9 2.1-.8 3 1.8 3.6-1.2.7.3-5.2 2.6zm18.3 5.3-5 1.6 1-.5.6-.5-4.7-2.6-6.3 3.3 3.4 2-2.8 1.4-4.1-2.4 3-2-2.9-2-4 1.6-.7-.6.7-1.6 3.2-1.6 4.6 2.7 6.5-3.1 1.7 1zM29.2 16q-3.7 1.7-6 4l-.8-.3 3.8-2.4-3.4-2 3.6-1.7 2.4 1.4-1.3 1.5h.5zm-7.9-8.6h.4zm2 0L22 8.6 21 8l.4-.3zM15.5 16l-1.2-.8 2.3-1 1 .6z"/><path fill="#bebd89" d="m21.4 7.6.3-.2 1-.4.6.4v.1z"/><path fill="#9bc2c4" d="m23.3 7.4.1.1z"/><path fill="#748307" d="M23.4 7.5h-.1z"/><path fill="none" stroke="#3a0101" stroke-linecap="round" stroke-linejoin="round" stroke-width="1" d="m17.7 2.8-3 1.6-7.1 3.9m10-5.5L22 .5q5.3 4.3 10.9 7.6m-20.7 12q-6.3-3.8-11.6-8l5.7-3.2"/><path fill="none" stroke="#6b0101" stroke-linecap="round" stroke-linejoin="round" stroke-width="1" d="m32.8 8.1 5.9 3.2h.1l.9 1.8-5 1.2-5 1.6h-.1l-.4.2q-3.7 1.7-6 4l-.8.9q-1.3 1.5-2 3.2m-.1 0q-3.7-1.6-7.2-3.6l-1-.5M6.2 8.9l1.3-.7"/></g><g id="h"><path fill="#73591e" d="M8.4 5.3v.4l-1 5.2-2 1h-.2l-1.9-.7-1-1.3 1.3-4.8 2.7.5zl-2 .3-2.7-.5-1-1.1.8-2.8 2-.6-.4 1.6q1.5 1 2.8.2z"/><path fill="#83723d" d="m2.2 9.9 1.1 1.3 1.9.7h.2l1.7.3-.5 2.4-2.5.4-1.1-.7-1.5-1.9z"/><path fill="#7e6630" d="M5.2 11.9h.2l2-1-.3 1.3-1.7-.3zm1.4 2.7-.3 2q-.5.8-2.5 1.1Q.9 17 .5 16.4l1-3.9L3 14.4l1.2.7zM2.6 4l1 1h-.7z"/><path fill="none" stroke="#3d2f0f" stroke-linecap="round" stroke-linejoin="round" stroke-width="1" d="M7.9 2.4 7.5.5m-.2 10.4 1-5.2v-.4l-2 .3-2.7-.5-1.4 4.8 1.1 1.3 1.9.7h.2zL7 12.2l-.5 2.4-.3 2q-.5.8-2.5 1.1Q.9 17 .5 16.4l1-3.9.7-2.5m5.6-7.5.5 2.9m-1.2 6.9L5.4 12h0-.2M3.6 5l-.9-1 .2 1zm-.9-1 .8-2.8m3.1 13.4-2.5.4-1.1-.7-1.5-1.9"/></g><g id="g"><path fill="#402811" d="m3.2 9.8 20-9.2q1.3-.3 3.9.7 2.4 1-5 4.6l-17.3 8zm-.5 5.1-1.4.7.1-2.2v.1q.6 1.2 1.3 1.4"/><path fill="#644808" d="M3.2 9.8h.1l1.4 4.1-.2.1q-1 1.1-1.8.9-.7-.2-1.3-1.4-.5-1.2-.9-3l.3-.2z"/><path fill="none" stroke="#3d2f0f" stroke-linecap="round" stroke-linejoin="round" stroke-width="1" d="m23.2.6-.4-.1"/><path fill="none" stroke="#180f07" stroke-linecap="round" stroke-linejoin="round" stroke-width="1" d="M4.7 14 22 5.9q7.5-3.6 5-4.6T23.3.6l-20 9.2"/><path fill="none" stroke="#130c06" stroke-linecap="round" stroke-linejoin="round" stroke-width="1" d="M3.2 9.8h.1m-2.4.5 2.3-.5"/><path fill="none" stroke="#180f07" stroke-linecap="round" stroke-linejoin="round" stroke-width="1" d="M4.7 14h-.2q-1 1.1-1.8.9-.7-.2-1.3-1.4h0q-.5-1.2-.9-3l.3-.2"/></g><g id="f"><path fill="#33280d" d="M8.4 5.3v.4l-1 5.2-2 1h-.2l-1.9-.7-1-1.3 1.3-4.8 2.7.5zl-2 .3-2.7-.5-1-1.1.8-2.8 2-.6-.4 1.6q1.5 1 2.8.2z"/><path fill="#3a331b" d="m2.2 9.9 1.1 1.3 1.9.7h.2l1.7.3-.5 2.4-2.5.4-1.1-.7-1.5-1.9z"/><path fill="#382e15" d="M5.2 11.9h.2l2-1-.3 1.3-1.7-.3zm1.4 2.7-.3 2q-.5.8-2.5 1.1Q.9 17 .5 16.4l1-3.9L3 14.4l1.2.7zM2.6 4l1 1h-.7z"/><path fill="none" stroke="#1b1507" stroke-linecap="round" stroke-linejoin="round" stroke-width="1" d="M7.9 2.4 7.5.5m-.2 10.4 1-5.2v-.4l-2 .3-2.7-.5-1.4 4.8 1.1 1.3 1.9.7h.2zL7 12.2l-.5 2.4-.3 2q-.5.8-2.5 1.1Q.9 17 .5 16.4l1-3.9.7-2.5m5.6-7.5.5 2.9m-1.2 6.9L5.4 12h0-.2M3.6 5l-.9-1 .2 1zm-.9-1 .8-2.8m3.1 13.4-2.5.4-1.1-.7-1.5-1.9"/></g><g id="e"><path fill="#1c1207" d="m3.2 9.8 20-9.2q1.3-.3 3.9.7 2.4 1-5 4.6l-17.3 8zm-.5 5.1-1.4.7.1-2.2v.1q.6 1.2 1.3 1.4"/><path fill="#2d2003" d="M3.2 9.8h.1l1.4 4.1-.2.1q-1 1.1-1.8.9-.7-.2-1.3-1.4-.5-1.2-.9-3l.3-.2z"/><path fill="none" stroke="#1b1507" stroke-linecap="round" stroke-linejoin="round" stroke-width="1" d="m23.2.6-.4-.1"/><path fill="none" stroke="#0b0703" stroke-linecap="round" stroke-linejoin="round" stroke-width="1" d="M4.7 14 22 5.9q7.5-3.6 5-4.6T23.3.6l-20 9.2"/><path fill="none" stroke="#080502" stroke-linecap="round" stroke-linejoin="round" stroke-width="1" d="M3.2 9.8h.1m-2.4.5 2.3-.5"/><path fill="none" stroke="#0b0703" stroke-linecap="round" stroke-linejoin="round" stroke-width="1" d="M4.7 14h-.2q-1 1.1-1.8.9-.7-.2-1.3-1.4h0q-.5-1.2-.9-3l.3-.2"/></g><g id="d"><path fill="#4b4b2e" d="M15.3 8.7v16.5l-1.4-.7-4.1-2-9.3 3.9v-3.1l5.4-2.7v-4.2z"/><path fill="#92843d" d="M15.3 25.2.4 32.7v-3.5L14 24.6z"/><path fill="#6c662d" d="M.5 29.3v-2.9l9.3-4 4.1 2.1z"/><path fill="#15150f" d="M.5 23.3V8.1L15.3.5v2.6l-9.4 8.6v8.9z"/><path fill="#343425" d="M15.3 3.1v5.6l-9.4 7.7v-4.7z"/><path fill="none" stroke="#6c868c" stroke-linecap="round" stroke-linejoin="round" stroke-width="1" d="M15.3 8.7v3m0 3.5V17m0 3v.5m0 1.2v3.5"/><path fill="none" stroke="#15150f" stroke-linecap="round" stroke-linejoin="round" stroke-width="1" d="M.5 32.7V8.1L15.3.5"/></g><clipPath id="b"><path d="M1 1h54v69H1z"/></clipPath><use xlink:href="#a" id="c" width="25.4" height="63.1"/></defs><g clip-path="url(#b)"><g transform="translate(17 27.75)"><use xlink:href="#c" width="25.4" height="63.1" transform="translate(-15.25 -21.7)"/><use xlink:href="#d" width="15.8" height="33.2" transform="translate(-8.45 -13.1)"/><use xlink:href="#e" width="28.1" height="15.6" transform="matrix(-.0728 .8467 .982 -.0827 10.5 -8.65)"/><use xlink:href="#f" width="8.8" height="18.3" transform="matrix(-.567 -.4703 -.6081 .5693 25.95 -3.25)"/><use xlink:href="#g" width="28.1" height="15.6" transform="matrix(-.0958 .9948 .98 -.0748 -10.35 -3.65)"/><use xlink:href="#h" width="8.8" height="18.3" transform="matrix(-.5516 -.5665 -.6212 .656 4.95 3.1)"/><use xlink:href="#i" width="40.2" height="24.8" transform="translate(-12.3 -19.35)"/><use xlink:href="#j" width="8.8" height="18.3" transform="rotate(-61.519 2.718 5.087)scale(.9965)"/><use xlink:href="#j" width="8.8" height="18.3" transform="rotate(-75.784 7.34 -12.547)scale(.9972)"/><use xlink:href="#k" width="30.9" height="21.1" transform="translate(-16 -26.75)"/></g></g></svg>