<svg xmlns="http://www.w3.org/2000/svg" xmlns:xlink="http://www.w3.org/1999/xlink" width="36" height="46" viewBox="0 0 36 46"><defs><path id="d" fill="none" stroke="#000" stroke-linecap="round" stroke-linejoin="round" stroke-width="__RESOLUTION__" d="M19 7v29m1-26.6-.9-2.2-1 3.2M32.6 0v28.9m.9-26.6-1-2.3-.9 3.3m-24.4 21-2.8.5v.1l4.5.4 1.6.6.1.1.2.1 4.5 2 2.8 2.5 1.6 1.6M4.3 25l1.2.8M2.3 29H.1l3.2 1.5 2.4-2.3.2-.2.4-.4.5-.4 2-1.9m-3 2.8.4-.3.3-.3-.2.1m.2-.1.3-.2 1.6-1 2-.2.3.1q.6.3.4 1.3-.3 1-1.4 2-1.2 1.1-2.5 1.7l-1.7.2H5l-.2-.2-1.6-.7M.1 29H0l.8 1.4M5.7 28q-.9.9-1.1 1.8t.3 1.2l.6.2m12.5-.7L12.5 36l1.6 1.6" vector-effect="non-scaling-stroke"/><path id="c" fill="none" stroke="#000" stroke-linecap="round" stroke-linejoin="round" stroke-width="__RESOLUTION__" d="M11.8 15.2q2.8.3 5 2.4 2.5 2.5 2.5 6t-2.5 6-6 2.5-6-2.5-2.5-6 2.5-6q2.2-2.1 5-2.4m0 0H2.6m7.4 0h9.3m-9 0h2M2.5 62.5h16.6M2.4 0v73.5M4.8 7 2.4 0 0 7m19.4-7v73.5M21.8 7l-2.4-7L17 7" vector-effect="non-scaling-stroke"/><path id="b" fill="none" stroke="#000" stroke-linecap="round" stroke-linejoin="round" stroke-width="__RESOLUTION__" d="M6.6-28.4 5-29.8h0l1.7 3.6 3-1.6h.1l.3-.2.5-.2 2.8-1.5m-8.4 0v1.8m4.7.1-.5.4-.5.4-1 1.1v.1l-.4.6q-.5.8-.6 1.7v1.2q.2.9 1 1.3t2.3-.3q1.3-.7 2.3-2.2t1-2.9-1-1.9l-1.9.2-.6.3m.6-.3.2-.1m-4.9 3.5-2 .1-.6.3-.1.1q-1.2.7-2 2-1 1.5-1 2.8 0 1.4 1 1.9t2.4-.2T5.7-20q.9-1.4 1-2.6v-.5q-.2-1.2-1-1.6m1 1.2v15.9l6.6-3.5M3.8-24.6l.1-.1-.4.1-.4.3m-.1.1-3 1.5M6.7-3.3v-4.4L.1-4m6.6-19.4v-2.7l-2.8 1.5" transform="translate(0 29.8)" vector-effect="non-scaling-stroke"/><clipPath id="a"><path d="M1 1h34v44H1z"/></clipPath></defs><g clip-path="url(#a)"><g transform="translate(20.05 36.75)"><use xlink:href="#b" width="13.3" height="26.5" transform="translate(0 -29.8)"/><use xlink:href="#c" width="21.8" height="73.5" transform="matrix(.3929 -.2073 0 .3929 -14.15 -21.15)"/><use xlink:href="#d" width="33.4" height="37.5" transform="translate(-19.05 -35.75)"/></g></g></svg>