<svg xmlns="http://www.w3.org/2000/svg" xmlns:xlink="http://www.w3.org/1999/xlink" width="244" height="173" viewBox="0 0 244 173"><defs><g id="e"><path fill="#988b36" d="M109.9 2.9q4.5 1.2 10.3 3.7 8.6 3.7 15.4 5.4l.8.1 25 13.1V31z"/><path fill="#d3be2c" d="m136.4 12.1 4.8 1q8.4 1.1 19.7-12.5l.5-.3 14.8 7.6-14.7 16v1.3zm25 18.9v6.1l-13 6.8-.2-4q-.7-7.2-5.4-7.1h-.5l-.7.1h-.4q-4.5.4-10 .1l-9.2-.6-1.8-.2-9-.7h-2.1l-8.1.6-.7.1Q94.6 8.8 78.9 7.4l1.8-1q9-4.6 20.3-5l5.8.7 3 .8z"/><path fill="#a39e76" d="m160.9.6.2-.5h.1l.1.1.1-.2v.3z"/><path fill="#d9cc31" d="m100.3 32.2-4.2 1q-5.8 1.3-11 3.5L59.4 23.5l1.3-1.3q10-10 18.3-14.7 15.7 1.4 21.4 24.8"/><path fill="#dcd043" d="m31.9 58.8 8.9-12q11.9-16.3 18.5-23.4l25.9 13.4-4.5 2-2.1 1.2-3.8 2.2q-4.9 3.1-10.4 7.4l-3.9 3.1-8.8 8-2.3 2.2q-24.7 7.3-17.5-4.1"/><path fill="#d8c541" d="M49.4 62.9q-3.4 3.4-6.2 7-3.7 4.6-7.7 20L16 78.3l2.9-3.1.9-1 12-15.3Q24.7 70.3 49.4 63"/><path fill="#a4963c" d="m35.5 90 2.5-3.2q-1.6 12.2-5.2 6.5-3.7-5.7-6.5 1.7-2.7 7.3-5.5 1.3t-3.6-5.6q-2 1-3.9 1.5Q7 94 .1 91L0 82.6q8.5 2.4 16-4.4z"/><path fill="none" stroke="#6c6728" stroke-linecap="round" stroke-linejoin="round" stroke-width="__RESOLUTION__" d="m85.2 36.8 17.5 9.2" vector-effect="non-scaling-stroke"/><path fill="none" stroke="#8b8034" stroke-linecap="round" stroke-linejoin="round" stroke-width="__RESOLUTION__" d="m136.4 12.1 25 13.1m0 5.8L110 2.9M59.3 23.4l25.9 13.4" vector-effect="non-scaling-stroke"/></g><g id="d"><path fill="#a38821" d="M131.3 20.6q9.2 8 16.4 13.1 3.3 2.3 6.1 4 9.2 5.5 21.8-2.7v43.1h-14q.2-6.8-.2-10-.8-7.6-5.9-9.9l-.5-.2-1.2-.5q-4.9-2-10.9-5-4.6-2.3-9.9-5.3l-2-1.1-9.5-5.3-2.4-1.1q-5.2-2.5-8.8-3.6l-5.2-1.4q7.7-10.9 10.7-22.3 4.1-1.2 15.3 8zM1.3 43.3V35q11 8 20.5 2.2l.7.1-1.6 9.1-1 5.4 1.9-.1q3.4-.5 7.4-1.6l6.3-1.9 6.7-2.5 3.1-1.4 11.9-4.8 9.5-3.4 4.1-1.1q6-1.6 11.3-2.1-1.1-3.1-2.4-6.1l3.3 6 3.2-.3h2.3q7.5 0 16.5 2.2 7.8-10.9 10.8-22.3l.8-3.3q-3.6-2.4-6.3-3.6l-4.5-1.9Q82.5.8 70.6 7.6l3.5 9.3q3.2 4.8 5.6 9.9-2.4-5.1-5.7-9.9-3.7-5.5-8.7-10.8-7.1 3.7-20 13.9l-10.7 8.3-2.5 1.8-11.2 16.3-1 5.4-4.2-.4q-6.9-1.5-14.4-8.1m146.5-9.6q-10.8 6.9-26.4 7.1 15.6-.2 26.3-7.1"/><path fill="#2e2612" d="M161.6 78.1h-.3Q159 65 155.5 63.3l-.5-.2-.8-.3-.4-.2q-4.9-2-10.9-5l-9.9-5.4-2-1-9.5-5.3-2.4-1.1q-5.2-2.5-8.8-3.6l-5.2-1.5q-9-2.1-16.6-2.1h-2.3l-4.1.4q-5.3.5-11.2 2l-4.2 1.2-9.6 3.4-11.8 4.9-3.1 1.3-6.7 2.5-6.3 1.9q-4 1.1-7.4 1.5l-1.9.2-4.2-.4Q8.8 55 1.3 48.4v-5.1q7.5 6.6 14.4 8.1l4.2.4 1.9-.1q3.4-.5 7.4-1.6l6.3-1.9 6.7-2.5 3.1-1.4 11.9-4.8 9.5-3.4 4.1-1.1q6-1.6 11.3-2.1l1-.1 3.1-.3h2.3q7.5 0 16.5 2.2l5.3 1.4q3.6 1 8.8 3.6l2.4 1.1 9.6 5.3 1.9 1q5.3 3 10 5.4 6 3 10.8 5l.4.2.8.3.5.2q5 2.3 5.9 9.9.4 3.2.2 10M83.4 33.6l-.4-.9z"/><path fill="#635436" d="M161.3 78.1h-13.8V63.7l-8.8-3.2-3.3-1.1-1.9-.6-2.6-4.7-1.6 3.5-1.1-.4q-6-1.7-11.9-3l-12.3-2-4-.5-11.5-.9-15 1.2-11.9 2-1.2-2.8L45 52.8v6.1q-4.1 1.5-8 3.3v9.9h-3.5l-9-10.4H1.3V48.4q7.5 6.6 14.4 8.1l4.2.4 1.9-.1q3.4-.5 7.4-1.6l6.3-1.9 6.7-2.5 3.1-1.3 11.9-5 9.5-3.3 4.1-1.1q6-1.6 11.3-2.1l4.1-.4h2.3q7.5 0 16.5 2.1l5.3 1.5q3.6 1 8.8 3.5l2.4 1.2 9.6 5.3 1.9 1q5.3 3 10 5.4 6 3 10.8 5l.4.2.8.3.5.2q3.6 1.7 5.8 14.8"/><path fill="#928038" d="m21.8 37.2.9-.6-.2.7zm132 20.3 1.2.5-.8-.3z"/><path fill="#bea55a" d="M22.7 36.6 32 30 20.9 46.4l1.6-9.1zM65.3 6l.9-.4.5-.2.7-.3Q79 0 88.5 0q7.8 0 17.3 3.6-23.3-2.8-35.2 4l3.5 9.3q-3.8-5.5-8.7-10.8m51.2 3q6 4 14.5 11.3-11.2-9.2-15.3-8zm-37 17.7 3.5 6h-1z"/><path fill="#a48a40" d="m131 20.4.3.2z"/><path fill="none" stroke="#51511e" stroke-linecap="round" stroke-linejoin="round" stroke-width="__RESOLUTION__" d="M131.3 20.6q9.2 8 16.4 13.1 3.3 2.3 6.1 4 9.2 5.5 21.8-2.7v43.1h-14M1.4 43.3V35q10.9 8 20.4 2.2l.9-.6L32 30l2.5-1.9L45.3 20q12.9-10.2 20-13.9l.9-.4q.5-.7 1.2-.5Q79 0 88.5 0q7.8 0 17.3 3.6l4.5 1.9q2.7 1.2 6.3 3.6 6 4 14.5 11.3l.2.2m-15.5-8.2q-3 11.5-10.7 22.3m16.4 6.1q15.5-.2 26.3-7.1M22.5 37.3l.2-.7m-2.8 15.2 1-5.4 1.6-9.1m94.1-28.2-.8 3.3M66.2 5.7l.5-.2.7-.3m12.3 21.6 2.4 6m1 0 .3.8m-3.7-6.9q-2.4-5-5.7-9.8-3.7-5.5-8.7-10.8" vector-effect="non-scaling-stroke"/><path fill="none" stroke="#4e471d" stroke-linecap="round" stroke-linejoin="round" stroke-width="__RESOLUTION__" d="M161.3 78.1h-13.8V63.7l-8.8-3.2-3.3-1.1-1.9-.6-2.6-4.7-1.6 3.5-1.1-.4q-6-1.7-11.9-3l-12.3-2-4-.5-11.5-.9-15 1.2-11.9 2-1.2-2.8L45 52.8v6.1q-4.1 1.5-8 3.3v9.9h-3.5l-9-10.4H1.3V48.4" vector-effect="non-scaling-stroke"/><path fill="#6cac2d" d="M161.4 68v.8z"/><path fill="#47711e" fill-opacity=".5" d="M117.2 33.6q.6.3 1.5 1.5t3.5 2.8 5.5 1.6q2.8 0 3 1.8.1 1.7 9.8 6.8l2.4 1.5 7.3 4 3.6 1.8.4.2.8.3.5.3q5 2.6 5.9 11.8-.9-7.5-5.9-9.8l-.5-.2-.8-.3-.4-.2q-4.9-2-10.9-5-4.6-2.3-9.9-5.3l-2-1.1-9.5-5.3-2.4-1.1q-5.2-2.5-8.8-3.6l-5.2-1.4q-9-2.2-16.6-2.2h-2.3l-4.1.4q-5.3.5-11.2 2l-4.2 1.2-9.6 3.4-1.6.7-.5.1-9.7 4-3.1 1.4-4.2 1.5q-.8.5-2.2.9l-.3.1-6.3 1.9q-4 1.1-7.4 1.6l-1.9.1-4.2-.4q-6.9-1.5-14.4-8.1V41q7.5 7.8 14.4 9.5l4.2.4 1.9-.2q3.2-.6 7.2-2h.2q3-1 6.3-2.5l4.5-2 1.3-.6.9-.5.6-.3.9-.3.8-.5.8-.5 11.9-6q5.7-2.8 9.5-4.2l2.5-1 1.6-.4q6-2 9.1-1.1t5.1-.3 4.3-1.6q2.4-.4 1.8-.5 8.7 1 14 2.5l5.2 1.7q1.4.4 6.9 3"/><path fill="#517e21" fill-opacity=".3" d="M140.5 48.1q.3-.5 1 .2 1.3 1.1 4.3-1.6t4.7-1.1 1.8 3.9-1.8 3.9l-.3.2-7.2-4zm-84.9-8-.3.4H55v-.1zM29 48.7l1.5-1.2q3.3-2.3 4.2-4.4t2.2-2.1 2.2.9q1 1 1 2.3l-4.6 2q-3.3 1.5-6.3 2.5zm12.3-5.1 1.5-.8-.6.3zm3.3-1.6q1.3-1.4.5-5.2-1-4.7 3-1.2l-.2-1.6q0-2.7 2.1-4.6 2.2-2 4.4-1.3 2.1.6 3.1 3.1t9 0l2.8-.8-2.5.9q-3.8 1.4-9.6 4.2l-11.8 6zm46.6-15.6 3.9.2q0-1.9 1.7-3.1t5.8-.5q4.2.9 7-5.5 3-6.4 1.9 3.3-1 9.7 5.8 12.8-5.5-2.6-6.9-3l-5.2-1.7q-5.3-1.4-14-2.5m12.7-14q1.6 0 2.8 1.2 1.2 1 1.2 2.6t-1.2 2.7-2.8 1q-1.7 0-2-1.2L101 16q-.5-1.5.3-2.5t2.5-1"/><path fill="#517e21" fill-opacity=".5" d="M69.8 25.7q0 1-.8 1.8-.7.7-1.7.7-1.1 0-1.8-.7t-.7-1.8.7-1.8 1.8-.7 1.7.7q.8.8.8 1.8"/><path fill="#646455" d="m131.6 51.4 1.3-2.3q.4-.6 1.3-.6l3.7 1.9q1.7 1 3 2.5t-.5 3.3q-4.9-5.5-6.5-5zm-12.9-6.8q.1-1.8 1-2.8.3-.4.5-.2 5.5 1.9 10.6 4.9 1.1.6 1.1 1.8l-1.2 2.6zm22.6 12.2 1.8-2.5q.3-.4.8-.2l8 3.3q.8.4.8 1.2l-.3.9-2 1.7q-3.5-4-5.8-4.5zm12.5 4q.3-1 1.4-1.2 1.2-.4 2.2.5 1.8 1.6 1.8 3.5 0 .8-.7 1.1l-.8.1-2.4-1.5q-2-.6-1.5-2.5M42.7 50.5l-1.9-1q-1.6-.8-3.7 1.5-2.1 2.4-2.6 2.5l1.8-5 3.9-1.5q1.3-.4 1.6.7zM59 43.8l-.6-3.2q-.1-.9.8-1.2 4.8-2 9.7-3.2 1.5-.4 1.8 1 .6 2.5-2.2 3.4l-4.2-.4q-3.4-.7-5.3 3.5m13.1-4.3v-.2l-.4-2.5q-.2-1.3 1.1-1.7 5.6-1.3 11.6-1.8l.9.5q1.5 1.4.6 3.5l-.6.4q-6.6.5-13.2 1.8M43.6 49.9q-1-1.9-.2-3.6.6-1.2 2.1-1.5l10.2-4.1q.6-.2 1 .4 1 1.4 1.3 3-.9-2.5-5.3-.9-4.7 1.8-6.9 3.9t-2.2 2.8m61.7-10.2q-.5-1.9.5-3.4.3-.5 1-.3 5.5 1 10.7 3.6.8.3.7 1l-.5 3.5zm-17.9-2.2-.3-3.2q.2-1.1 1-1.2 7.8-.1 15.3 1.6 1 .3 1.2 1.1v.6q.3 1.9-1 2.9-8.1-1.8-15-1.8z"/><path fill="#9a9a85" d="m131.6 51.4 2.3-.2q1.6-.5 6.5 5-.8 1.5-1.8 2.9l-.8.5q-1.6-.1-2.2-1.1-2.2-3.1-4.2-6.3zm18.8 9.8q-1.5.9-3 .3-3.2.5-6.3-.7-.7-.2-1-1.2l1.2-2.8 3.3-.1q2.3.5 5.8 4.5M28.6 55.3l4.8-1.4q-.6 1.8-1.6 3.4-.7 1.1-2 1.5l-.6-.2q-1.7-1.2-.7-3.3m-11.3 1.4 2.7.1q1 0 1-2 .1-1.9 6.6.8l-1.3 5.2q-.5.7-1.5.5l-5.5-.1q-.8 0-1-.8zm25.5-6.2 1.5 6.8q.1 1.3-1 1.8-2.7 1.1-5.6 1.9-2.3.6-3.9-1.4-.3-.4-.2-.9l1-5.2q.5-.1 2.5-2.5 2.2-2.3 3.8-1.4zM59 43.8q1.9-4.3 5.3-3.6l4.2.4-7.3 4.1q-1.6 1-2.2-1m13.1-4.3q6.6-1.3 13.3-1.8-4.4 3-9 5.4h-3q-.5-.2-.6-.6zm2.3 5 1.8.4 9.6 2q1.9.5 1.2 2.6-.2.6-.8.9l-11.9.9-.6-.9q-.7-2-.9-4.2-.1-1.6 1.5-1.6m-4.1-2.2q1.6.4 1.5 2.4l.8 6.3q0 .6-.2.7-4.3 2-9.1 2.5-1.3.1-1.7-1.1-.7-2.4-1-4.4-.1-.5.3-.7l8.5-5.6zm35-2.6 12.5 4.4-.3 1q-.2.7-.8.6-5.2-1.1-10.3-2.6l-.7-.6q-.8-1.3-.3-2.8m-18-2.2h1.2q6.9 0 15 1.8l-14.8 1.6-.4-.4q-1-1.2-1-3m3 12.8-.7-.5q-1.3-2.8-1.4-6.2 0-1.3 1.3-1.7l6-.3.5.8q1.3 3.4 2.2 7 .3 1.1-.8 1.1z"/><path fill="#a7a783" d="m118.7 44.5 12 6.4-.7 1.3-2 3.6-.7.7-8.9-2.4-.6-.6q-.5-4.5.9-9m-75.1 5.4q0-.7 2.2-2.8t6.9-3.9q4.4-1.6 5.3.9l.9 2.9.3 1.8q.1 1.2-1.2 1.4l-13.2 1.5-.4-.4q-.6-.5-.8-1.4"/><path fill="#85845f" d="M150.7 62.2h1.7q4.2 3.1 6.8 7.3 1.7 2.6 1.8 6.3l-.3 1.1q-.4.5-1.1.5l-10.6-.8q-1 .2-1-.8V64.5zM85 39.7q1.3-.7 1.8.9l.2 3q.1 1.7-1.6 1.6-2.1-.4-4-1.2-1.6-.7-.2-2 1.8-1.4 3.8-2.3m30.8 6.9q.4.1.9.5v1q-.3 2-1 4-.2.4-.7.1l-9.1-.9q-.9-.1-1-1l.1-5.1.3-.7q.5-.5 1-.4z"/><path fill="#80806a" d="M.3 45.4q0-.8 1-1l.9.5q5.3 4.6 12.1 6.7.7.3.9.9l1.3 7q.2 1.3-1 1.8L1.3 61Q0 61 0 59.7q0-7.2.3-14.3m28.2 9.9q.5-2.1 1.5-4 .8-1.7 2.7-1.5.8 0 1 .9.6 1.6-.3 3.1zm-11.3 1.4q-1-1.8-.3-3.5l.6-.5 4.3-.5 5-.7q.8 0 1 .8.4 1.7-.3 3.3-6.5-2.7-6.5-.7-.2 1.9-1.1 1.9z"/><path fill="#9d9c77" d="M27.8 59.9q.7-.7 1.7-.4l6.4 3 .4.5.1 7.1-.1.9-.5.4-3.2.5q-.6.1-.9-.2-2.7-2.6-4.2-5.9-1.3-2.7.3-6M97.6 43l-.2-.8q.3-.7.9-1l4.3-.6q1.5.2 1.4 1.6l-.3 8.3-.8.8h-1.6q-.7-.1-.9-.6z"/><path fill="#568613" fill-opacity=".4" d="M127 56.4q.7-1.7 2.3-3.2l.4-.3-1.2 2.7-.7.6zm-8.7-2.2q-.7-.1-1-.6t-.2-1.1l.5-3.1q1.5 2.2 2.3 5.2zm13.1-2v-.4q2.2-1.1 4.8-1.1l2.9.4 1.8 1 .8.8q.2.6-.1 1.2l-2.5 4.7-.8.7q-.5.2-1 0l-1.1-.3q-.5-.2-.8-.6l-3.7-5.7zm12.3 1.5q2.3 2.3 2.3 5.5 0 1.7-.7 3.1l-4.2-1.5-.7-.5q-.3-.3-.3-.8-.1-.4.2-.8l2.2-4.2q.3-.6.8-.7zM14.5 61.2l2.1-2.1.1.4-.1.8-.5.7-.9.2zm3.9-.4q-.5-.3-.6-.8l-.3-1.7h.1q2-1.7 9.5-1.6h.3v.3l-.8 3.1q0 .4-.3.7l-.7.5h-.8l-.2-.1h-5.3q-.5 0-1-.4M32.6 57l-.2.6-.5.4-1.5.6-1.1.1-.9-.7-.1-1v-.2h4.4zm-3.1 2.5 6.1 2.5.6.6.3.8v6.7q0 .6-.5 1t-1 .5h-1.5q-.2 0-.3.2l-6.6-7.6.1-.4.8-3.2.3-.7.8-.4zm4.5.4-.7-.7v-1l.3-1.4 10.5.1.1.4q.1.6-.2 1l-.7.8-5.6 2.3H37l-.7-.1zm21.3-19.1.8-.1q.4 0 .8.3l.4.7.7 2.4.8 2.6v.1l.1.2.4 1.3v.9l-.5.6q-.3.4-.8.4l-10.8 1.3q.6-2 1.3-5.4.3-1.9 1.3-3.1zm3.8 3.3-.9-3v-.4q2.3.9 5 3.1L61.4 45l-.8.2q-.5 0-.9-.4zm1.9 3.3 3.7-2.3q5.8 5.5 6.7 7.1L62 53.9l-.5-.8-.5-1.6-.1-.3-.6-2.1v-1zm35.8 3.4 1.7-1.1q-.2.5-.7.8t-.9.3zm20.1-2.5-.6 3.4q-.2.5-.7 1l-1.1.1-8.5-1.4q-.6-.1-1-.5l-.3-1.1.2-2 6-.9q4-.4 6 1.4m-17.1.9 1.8-.6 2.3-.5-.1 1.9-.4.7-.5.5-.8.1-.8-.1-.7-.3-.5-.6z"/></g><g id="c"><path fill="#353124" d="M105.8 53q-2.5-11 19.2-5.3 5.7-5.7 7.7 7.7v9.1z"/><path fill="none" stroke="#142930" stroke-linecap="round" stroke-linejoin="round" stroke-width="1" d="m105.8 53 26.9 11.4m9-63.9 16.5 8M.6 96.9q-.2-.2 0-.4"/></g><g id="b"><path fill="#0d6036" d="m51.4 83.8 2-22.7 62.2-29.2 50.6 21.6q-12.6 9.5-34.4 23.9T69.2 95.2l-1.3-.5-1.6-.7-.2.2z"/><path fill="#2b1e1a" fill-opacity=".4" d="m51.4 83.8 14.7 10.4 1.7 2.4-38.2 18.6L0 111.5l20.8-22.8L47 79.6l4.5 3zm123.9-54-5.2-8.7 12-8.4 9.7-5v14.8l29.6-14.3V0L242 6.9l-25.3 13.5-.3 9.5H207v-3.6l-2.8 3.6zM69 95.4l.5.2z"/><path fill="#1e5f7f" d="m67.9 94.8 1.3.4-.1.2H69l-.1-.1z"/><path fill="#0d6c3d" d="M69.2 95.2q40.9-3.4 62.6-17.8t34.3-23.9V29.9h25.4l-.5 21.3-8.8 2q-8.7 8.1-31.9 33.5-14.9 16.3-30 21.1l-1.7.5-21.8 6.5-17.4-11q-6.8-2.9-11.7-7.2L66 94.2h.1l1.6.5 1.2.6h.1l.5.3-.4-.2zM184 36.9v-.2l-.2.1z"/><path fill="#0b4f2d" d="m166.2 53.5-50.6-21.6 19.6-9.2 31 7.2z"/><path fill="#0e7642" d="M216.4 29.9v13.9l-22.3 14-12-4.5 8.9-2.1.5-21.3z"/><path fill="#0b4a2b" fill-opacity=".6" d="M207 29.9h-2.8l2.8-3.6z"/><path fill="#19426f" d="m66.1 94.2.3-.2 1.3.7z"/></g><clipPath id="a"><path d="M1 1h242v171H1z"/></clipPath></defs><g clip-path="url(#a)"><g transform="translate(39.9 143.5)"><use xlink:href="#b" width="242" height="115.2" transform="translate(-38.9 -90)"/><use xlink:href="#c" width="158.7" height="97.4" transform="translate(-5.95 -107.4)"/><use xlink:href="#d" width="175.7" height="78.1" transform="matrix(.9261 -.4738 0 1 -25.8 -59.3)"/><use xlink:href="#e" width="176.3" height="99" transform="translate(-24.1 -106.55)"/><use xlink:href="#d" width="175.7" height="78.1" transform="matrix(.9261 -.4738 0 1 -10.3 -50.3)"/></g></g></svg>