<svg xmlns="http://www.w3.org/2000/svg" xmlns:xlink="http://www.w3.org/1999/xlink" width="34" height="35" viewBox="0 0 34 35"><defs><clipPath id="a"><path d="M1 1h32v33H1z"/></clipPath><g id="b"><path fill="#fdedc1" d="M.1 11.4v-.5l1.4-1.3q2.1-1.8 4.7-3l.3-.2.1-.1 2.1-1h.6L11.8 4 14 2.4h.1l2-1.1h1.3L20 .1l.1-.1h2.8l2.8 1.4v.1l2.8 2.7v.1l2.8 5.1v14.3l-.1.2-.1.1-16.9 8.3v-.7l16.5-8.1V9.7L28 4.6l-1.7-1.7-1-1L22.7.7h-2.5l-1.4.7h.1l-1.4.5h-1.1L14.5 3v.3l-.1.2-2.2 1-1.5.8h1l2.7 1.4h.1l.1.2L16 8.2l1.3 1.4h.1v.1l2.8 5.1-.7.3V15l-2.4-4.3-1.8-2.1-1-1L11.5 6H8.9l-1.8.8V7l-1 .5-.2.1-1 .5q1.8.6 3.4 1.7L10 11q1 .9 1.6 1.9 1.6 2.4 2.3 5.1h-.2l-2.6-4.7-.7-.8q-1.8-2.2-4.2-3.3t-3.9.6L.9 11.7z"/><path fill="#392300" d="M14.2 32.3h-.5L.3 25.6l-.2-.1v-14l.8.3-.1.3-.1 13 13.2 6.7.2-.1zM3.8 14.9l-.1-.1h-.1v8.8h-.2l.2.1h.1l1 .6 6.2 3.2v-8.8l-6.2-3.4zm-.7-1 8.1 4.4.1.1.1.1v9.7h-.6V28h.1l-.1-.1-7.2-3.7h-.1l-.5-.3z"/><path fill="#c49406" d="m.9 11.7 1.4-1.8q1.4-1.7 3.9-.6 2.4 1 4.2 3.3l.7.8 2.6 4.8h.1l.1-.1h.1l.1 13.5-.2.1L.7 25l.1-13zl2.3 1.2q.4-2.3 3.3-1.5 4.3 2.8 4.5 5.5l2.7 1.3-2.7-1.3-7.8-4zm2.3 2.2-.2 10h.1l.5.3h.1l7.2 3.7v.1l.3.1h.3v-9.8l-.2-.1zM11.5 28v.3zm0 1.1v.4z"/><path fill="#f9d23c" d="M13.9 18.1q-.7-2.7-2.3-5.1-.6-1-1.6-1.9l.7-.3.8-.4 1.9 1.7 2 5v.1L14 18zm6.2-3.3-2.7-5.1v-.1L16 8.2l4.5-2.3 1.6 1.6.2.1h.2l1.8 5zl.1.2v.2l-.2.1h-.3l-.2-.1-4 2-1.5.8v.1l.1 13.5 16.5-8.1V9.7L28 4.6l-1.7-1.7-1.5.9L26.5 5l2.5 5.2 1.6-.7-1.6.7-1.5.8v.3l-.1.3H27l-.2-.3-2.5 1.2zm4.3-.6-.2.2H24v.1h.1L24 19l-2.4 1.3.2-4.7 2.3-1.1-2.3 1-.2.1-2.1 1-4.1 2-.2.1v10.2l2.5-1.4h.1l1.6-.8 9.3-4.9.4-9.2h.1l-.2-.4v-.1zm-.6 3.2h-.1zm-.6.7.1-1.9-1 .4-.1 1.9zM3.7 14.7l.8.5v7.9l6.3 3.2v.9L4.5 24l-.9-.4z"/><path fill="#c89706" d="M10 11.1 8.4 9.8Q6.7 8.6 5 8l1-.5.2-.1L10 9l1.5 1.4-.8.4zm6-2.9-1.4-1.3-.1-.2h-.1l-2.7-1.3-.1-.1h-.9l1.4-.7h.1l2.1-1.1h.1l.1-.2 5 1-.2.3.1.2 1.1 1.1zm2.8-6.8 1.4-.7h2.6l2.5 1.2 1 1-1.5.9-2.9-2.2-2.7-.2z"/><path fill="#6c757d" d="m6.1 7.5 1-.5v-.3L8.9 6h2.6l2.7 1.6h.1l1 1-3.8 1.9L10 9zm8.5-4.2v-.2l-.1-.1 1.9-1.1h1.1l1.4-.5h.3l2.8.2 2.8 2.2-3.6 1.9-1.3-1.3v-.1h-.4z"/><path fill="#85642a" d="M18.8 1.4h-.1zM22.6 7l-1.1-1.1 1 .8zM27 22l-8 4.2-.4.2v-.1l.3-.1 2.9-1.5zm-13-3.9h-.2l.1-.1z"/><path fill="#a6acb3" d="m15.3 8.5 1.8 2 2.4 4.4v.3l-4 2-2.1-5.1-1.9-1.7zm3.8-7H19zm2.1 4.3 3.6-2 1.7 1.4 2.5 5.2-1.5.8-.7.3-2.5 1.2-1.8-5 .1-.1.1-.1v-.1l-.1-.2-.2-.1v-.2l-1-.9zm3.4-.1h.1zm-6 20.9-3.4 1.8.4-9.2 5.1-2.4v3.8l.1.1.5.3h.1l2.6-1.2.3-.2.2-.1V17l.1-1.2v-.9l3.8-1.8-.4 8.7-.9.4-5.3 2.7-2.9 1.5zm-3.6-15 .1-.1"/><path fill="#000" d="m19.5 15.2.6-.4.1.2v.2l-.2.1h-.3zm-.3-13.8h-.4zm.3 3 .1-.2.2.1zm3.1 3.3.1-.5.1.2zm2 6.6-.4.3v-.1zm-1.1 4-1 .4.1-1.9 1-.4zm3.5-6.7.7-.3v.3l-.1.3H27zM11.5 28v.3z"/><path fill="#960" d="m19.8 4.3 1.3 1.4.2.2 1 1 .2.2-.1.5h-.2l-.2-.1-1.6-1.6-1-1.1-.2-.2.1-.2z"/><path fill="#5f3a01" d="m24.2 14.5.3-.3 4.4-2.1v.1l.1.4-.4 9.2-9.4 4.9-1.4.8h-.2l-2.5 1.4V18.7l.1-.1 4.1-2h.1l2-1 .3-.1-.2 4.8 2.4-1.3zm3 7.5.8-.4.4-8.7-3.8 1.8v2.1l-.1 2.5-.2.1-.3.2-2.6 1.3-.1-.1-.5-.3h-.2l.1-4-5 2.5-.5 9.2 3.4-1.8.4-.2z"/><path fill="#ff7810" d="M23.9 17.4h-.1z"/><path fill="#5c451d" d="m3.8 14.8.9.4v.1z"/><path fill="#474e52" d="m4.7 15.3 6.1 3.3.1 7.8-6.3-3.2zm-1.5-2.4q.4-2.3 3.3-1.5 4.3 2.8 4.5 5.5z"/><path fill="#535b31" d="M3.6 23.7v-8.9h.1v9m7.2 4.3V28z"/><path fill="#973d00" d="M15.2 11.3H15"/><path fill="none" stroke="#4b3718" stroke-linecap="round" stroke-linejoin="round" stroke-width="__RESOLUTION__" d="m.1 11.4.8.3 2.3 1.2q.4-2.3 3.3-1.5 4.3 2.8 4.5 5.5l2.7 1.3m.1 0 .1-.1 1.4-.8h0l-2-5.1-1.9-1.7L10 9 6.1 7.5l-.2.1m13.6 7.6.6-.4 4.2-2.2-1.8-5 .1-.5m-8.3-3.6.1-.2 5 1h.3M14 31.6l.1.6m5-30.8H19h0-.2M29 10.3l1.6-.7m-6.5 4.9.3-.3m-.2.3H24l-2.3 1m5.1-4.1.7-.3 1.5-.8m-2.2 1-2.5 1.3m-21.1.3 7.8 4m3 1.2V18m1.4-.9 4-2m-5.2 16.5L14 18m5.2-16.7 2.8.2 2.8 2.2L26.5 5l2.5 5.2" vector-effect="non-scaling-stroke"/></g></defs><g clip-path="url(#a)"><use xlink:href="#b" width="31.3" height="32.4" transform="translate(1 1)"/></g></svg>