<svg xmlns="http://www.w3.org/2000/svg" xmlns:xlink="http://www.w3.org/1999/xlink" width="25" height="23" viewBox="0 0 25 23"><defs><clipPath id="a"><path d="M1 1h23v21H1z"/></clipPath><g id="b"><path fill="#aaa273" d="m9.2.4.1-.2h.1-.1z"/><path fill="#8d865f" d="M10.7.3h.2l.1.2zm2.6 1.3.8.7-.1-.1zm-5-.2.4-.1zm2.5.7"/><path fill="#d9be93" d="m9.5.1.4-.1.7 1 .3 1v.1l1.3 2 1.6-.6-.2-1.2-2.3-1.2-.2-.2 2.3.7.7.6.2 1-1.8 2.7-.6.2-2 .2-1.8-.2-1.4-.7-.6-.3-.5-.4-.3-1 .6-1.5 3-1.4.3-.4.1-.2h.1zM9 .8l-.1.4zm-.1.5-.4.1zm-2 2.4.2.5q.3.3.5.3t.6-.3l.2-.5-.2-.5-.5-.2-.6.2z"/><path fill="#c29854" d="M9.9 0h.4l.2.1.3.2.2.2.1.4.2.2 2.3 1.2.2 1.2-1.6.7L11 2l-.3-1zm4.3 2.3.5 1.6-.3.8-1.1.9-.8.3 1.8-2.7z"/><path fill="#3872ab" d="M14.7 3.9v.2l-.3.6zM12 6.1l.5-.2.8-.3-1 .6z"/><path fill="#345276" d="M14.8 4.1 14 6.2l.5 2.3v1.7l-.7 1.6-1.3 1.2-2 .8.5-.7 1-1.8.2-1-.2-2-.2-.9h-1.6l2-.6v-.6l1-.6 1.1-.9zm-.6 2.1L12 7.4z"/><path fill="#517db3" d="m10.6 13.8-2-.5-1.1-.8-.6-.7-.6-1.7V8.4l.5-2.2L6 5.1l.6.3 1.4.7 1.8.2 2-.2h.3l.2.7-2 .7 1.5-.1.2 1 .2 2-.2.9-1 1.8z"/><path fill="#fff3ce" d="m6.8 3.7.2-.5.5-.2.6.2.2.5-.2.5q-.2.3-.5.3T7 4.2z"/><path fill="none" stroke="#1a334d" stroke-linecap="round" stroke-linejoin="round" stroke-width="__RESOLUTION__" d="M14.6 4v.2L14 6.3l.5 2.3v1.7l-.7 1.6-1.3 1.2-2 .8-2-.5-1.1-.8-.6-.7-.6-1.7V8.4l.5-2.2L6 5.1M9.3.3l.1-.1M11.9 6h.3l1.1-.5m-1.4 1.8L14 6.2m.7-2.1-.4.6" vector-effect="non-scaling-stroke"/><path fill="none" stroke="#976b37" stroke-linecap="round" stroke-linejoin="round" stroke-width="__RESOLUTION__" d="m9.5.1.4-.1h.4l.2.1.3.2.2.2-.1-.1m.1 0 .1.5 2.3.7.7.6.1.1.5 1.6-.3.8-1.1.9-.8.3-.6.2-2 .2-1.8-.2-1.4-.7-.6-.3-.5-.4-.3-1 .6-1.5 3-1.4.3-.4.1-.2h.1m-.6 1V1L9 .8m-.5.6.4-.1h0m2.3-.4.2.2m-.4 1-.3-1L10 0" vector-effect="non-scaling-stroke"/><path fill="#dfd293" d="m.6 13.1-.3-.3-.3-1V11l.3-1h.1l1-.6 1.4-.6 1.6-.2L6 9l2.3 1.1.3 1-.3.9-1.5.9.2.7-4.2.6h-.2zl2 1 .2.1h3l.5-.1.4 1v2L6.3 19l-1 1.6H3L2 20q-.8-.5-1.3-1.4L.2 17v-1.7zm1.7-.8 2 .4 1.1-.3 1.7-.7v-1.4l-.4-.3-3.5-.4h-.7l-.4.2-.7.5.3 1.4q.3.6.6.6"/><path fill="#cca462" d="M2.6 14.2h.2l4.2-.6-.2-.7 1.5-1 .3-.8.2.8-.8 1.2.6 4v1.1q-.3.9-1.2 1.7-1 .7-2.2.7l1-1.6.5-2v-2l-.4-.9-.5.2-3-.1zM8 13l-2.2 1.2z"/><path fill="#8080be" d="M8.6 11v.2z"/><path fill="#bb8b3e" d="m3.2 9.6 3.5.4.3.3.1 1.3-1.7.8-1.2.3-1.9-.4.2-2.7z"/><path fill="#885f2d" d="m2.5 9.7-.2 2.6q-.3 0-.5-.6l-.4-1.4.8-.6z"/><path fill="none" stroke="#684522" stroke-linecap="round" stroke-linejoin="round" stroke-width="__RESOLUTION__" d="m8.6 11-.2-.9L6 9l-1.6-.3-1.7.1-1.4.6-.9.6h0L0 11v.8l.3 1 .3.3 2 1h.2m5.8-3 .2.8-.8 1.2.6 4m0 0v1.1q-.3.9-1.2 1.7-1 .7-2.2.7H3L2 20q-.8-.5-1.3-1.4L.2 17v-1.7L.5 13M3 14.3h-.3m3.2 0L8 13.2" vector-effect="non-scaling-stroke"/><path fill="none" stroke="#684522" stroke-linecap="round" stroke-linejoin="round" stroke-width="__RESOLUTION__" d="m6.8 12.9 1.5-1M3.2 9.7h-.7l-.4.2" vector-effect="non-scaling-stroke"/><path fill="#5b331e" d="M13.5 12q-.4-.5-.4-1.1l.3-.8.8-.7.8-.2V9v.1l-.2 3.2-.2.2q-.6 0-1-.5zm1.2.6.2-.2v.2z"/><path fill="#c97a41" d="m15 9.2-.7.3-.9.7-.3.8q0 .6.3 1-.6-.2-.7 1-.4-.6-.4-1.3l.1-.7.4-.9 1-.8 1.4-.6 1.9-.1 1.7.1-.7.7H18zm4.7-.2.6.3 1 .7.4 1-1.5 1.8-1 .3.3.3-.7.4 1.4-.4-1.6.6-3.4-.1-1-.3h-.1q-.2-1 .5-1h.2l.6.3h1.5l1.5-.2 2.2-1 .2-.6q-.5-1-1.6-1.5z"/><path fill="#f2cea4" d="M13.5 12q.4.5 1 .5-.7 0-.5 1-.7-.1-1.2-.6l-.2-.1q.1-1.2.8-1M18 9.3l.7-.6.9.4-.4.6z"/><path fill="#884d2d" d="m14.8 12.4.3-3.2h3l1.1.4q1.1.5 1.6 1.5l-.2.7-2.2.9-1.5.2h-1.5l-.7-.3zm-2.5-.8q0 .7.4 1.3l.2.1q.5.5 1.2.6h.1l1 .3 3.4.1 1.6-.5v-.1l-1.4.4.7-.4-.3-.3 1-.3 1.5-1.8v.6l.4 1.7q.1.9-.1 1.8t-.9 1.8L19.7 18l-1.3.5-1.5.2-1.7-.2v-.1q2 0 3.5-1.5.8-.9 1.2-1.9l-8.2-.8v-1.1zm9.4 0-.4 1-1.1.8 1.1-.8z"/><path fill="#ad6138" d="m15.2 18.6-1.3-.6-1.3-1.1-.5-.7-.4-2 8.2.9q-.4 1-1.2 1.9-1.4 1.5-3.5 1.5"/><path fill="#9a9ae5" d="M15.3 13.9H15l-.9-.3z"/><path fill="none" stroke="#5b331e" stroke-linecap="round" stroke-linejoin="round" stroke-width="__RESOLUTION__" d="m14.7 12.6.1-.2M18 9.2h.1m.7-.6-1.7-.1h-1.9l-1.4.7-1 .8-.4.9-.1.7q0 .7.4 1.3l.2.1q.5.5 1.2.6h.1l1 .3m6.5-3-.4-1-1-.7-.6-.2-.8-.4h-.1m2.9 2.9v.1l.4 1.7q.1.9-.1 1.8t-.9 1.8L19.7 18l-1.3.5-1.5.2-1.7-.2-1.3-.6-1.3-1.1-.5-.7-.4-2v-1l.6-1.6m9.4-.1V11m-2.9 2.8 1.4-.4 1.1-.8.4-1m-1.5 1.8-1.6.6m-3.4-.1-1-.3" vector-effect="non-scaling-stroke"/></g></defs><g clip-path="url(#a)"><use xlink:href="#b" width="22.1" height="20.6" transform="translate(1 1)"/></g></svg>