<svg xmlns="http://www.w3.org/2000/svg" xmlns:xlink="http://www.w3.org/1999/xlink" width="31" height="33" viewBox="0 0 31 33"><defs><clipPath id="a"><path d="M1 1h29v31H1z"/></clipPath><g id="b"><path fill="#000" fill-opacity=".3" d="M25.3 23q3.2 1.2 3.2 3 0 1.7-3.2 2.9-3.3 1.3-7.9 1.3t-7.8-1.3-3.3-3 3.3-3q3.2-1.1 7.8-1.1t7.9 1.1"/><path fill="#4b3450" d="m20.2 14.4-.2 2-.7.6q-3.6 3.1-8.6 2.3-3.6-.7-8-3.3l-1-.7-.1-1 1.8 1.2q3 1.5 7.4 1.6h.1q4.4 0 7.5-1.6l1.2-.6zM5 15.5l-1-.4Q1.8 14 1.3 12.6l-.1-.8v-.1Q1 9.7 4 8.2z"/><path fill="#a37daa" d="m20 16.5-1.2 9.3v.2q-.2.6-.7 1.3L19.3 17zm-9.4 13.1q-3-.1-5.1-1.2l-1.4-1q-.8-.7-.8-1.5L1.7 15.3l1 .7q4.4 2.6 8 3.3zM4.4 17.8q-.7-.1-1.7-1.2l1.2 9.6q1 1.1 1.6 1.1-.7-3.8-1.1-9.5"/><path fill="#795380" d="m18 27.3-1.5 1q-2.3 1.2-5.5 1.2h-.4l.1-10.2q5 .8 8.6-2.3zm-8-10.8q-2.9-.1-5.1-1L4 8.3Q6.5 7 9.6 6.8z"/><path fill="#c5abc9" d="M1.6 14.3q-.9-.7-1.1-1.5l-.2-.9v-.1q0-2.3 3-3.8Q6.6 6.4 11 6.4T18.4 8t3.2 3.8q-.4 1.6-1.4 2.6l-.6.5-1.2.6q-3.1 1.6-7.5 1.6h-.2q-4.3 0-7.3-1.6zm8.6 2.2h.7q4 0 6.8-1.4 2.4-1.2 2.8-2.9v-.5q0-2-2.8-3.5-2.8-1.4-6.8-1.4H9.5Q6.4 7 4.1 8.2H4q-3 1.4-2.8 3.5v.1l.1.8Q1.8 14 4 15.1l1 .4q2.2.9 5.2 1m-5.8 1.3q.4 5.7 1.1 9.5-.6 0-1.6-1.1l-1.2-9.5q1 1 1.7 1.1"/><path fill="#8c6194" d="M9.5 6.8h1.3q4 0 6.9 1.4t2.9 3.5l-.1.3v.2q-.4 1.7-2.8 2.9-2.8 1.4-6.8 1.4h-.7z"/><path fill="none" stroke="#000" stroke-linecap="round" stroke-linejoin="round" stroke-opacity=".3" stroke-width="__RESOLUTION__" d="m20.2 14.4-.2 2h0L18.8 26v.1q-.2.6-.7 1.3l-1.6 1q-2.3 1.2-5.5 1.2h-.4q-3-.1-5.1-1.2l-1.4-1q-.8-.7-.8-1.5L1.7 15.3l-.1-1q-.9-.7-1.1-1.5l-.2-.9v-.1q0-2.3 3-3.8Q6.6 6.4 11 6.4T18.4 8t3.2 3.8q-.4 1.6-1.4 2.6" vector-effect="non-scaling-stroke"/><path fill="#00c" d="m12 9 2-8.7h.8V.2l-2 9z"/><path fill="#000064" d="m15 .2.8.6-1.9 8.9-1-.5z"/><path fill="none" stroke="#000" stroke-linecap="round" stroke-linejoin="round" stroke-opacity=".3" stroke-width="__RESOLUTION__" d="m12 9 2-8.7h.8V.2l.8.6L14 9.7" vector-effect="non-scaling-stroke"/><path fill="#e8a61c" d="M12.7 9.8q-.2 0-.3.2l.2.2q.7 0 .1-.4m-3-3q3.6 2.7 9.7 4.3.7.6.6 2.2-.7 1-2.3 1.8-1.8.9-4 1.2-3.4-6-4-9.5m-2.3 9.4L5 15.5l-1-.4q-1.5-.8-2.2-1.6-.4-1.3.3-2.3l1.1-.5q-.8 2.1 4.2 5.5m7-1.7-.2.2.1.2q.8 0 .1-.5m1.7-2.8-.3.3.2.2q.8-.1.1-.5M9 9.7l-.1-.2.3-.3q.7.5-.2.5m-2.2 1.4q.6.4-.2.5l-.1-.2zm2.6 3.4.3-.3q.6.5-.2.4zm-4.9-1 .3-.3q.6.4-.1.5z"/><path fill="#bf8713" d="M12.7 9.8q.6.4-.1.4l-.2-.2q0-.2.3-.2m1.8 4.6q.6.4-.2.5l-.2-.2zm1.7-2.9q.7.4-.1.5l-.2-.2z"/><path fill="#ecb646" d="m13.7 16.3-2.9.2h-.7l-2.7-.3q-5-3.4-4.2-5.5 3.4-1.5 6.2-4l.3.1q.6 3.4 4 9.5M9 9.7q.8 0 .2-.5l-.3.3zm-2.2 1.4-.3.3.1.2q.8 0 .2-.5m2.6 3.4q.9.1.3-.4zm-5-1 .2.2q.7 0 0-.5z"/><path fill="none" stroke="#000" stroke-linecap="round" stroke-linejoin="round" stroke-opacity=".3" stroke-width="1" d="M19.9 16.7q.7 3.3-.2 5.7-1 2.3-3 2.9-2.1.7-4.6-.6-2.8-1.2-5.4-4.6l-.5.1q-.6 0-1-.3-.3-.4-.3-.9t.3-.9 1-.4.9.4.3.9-.3.9l-.4.3"/></g></defs><g clip-path="url(#a)"><use xlink:href="#b" width="28.5" height="30.1" transform="translate(1 1)"/></g></svg>