<svg xmlns="http://www.w3.org/2000/svg" xmlns:xlink="http://www.w3.org/1999/xlink" width="95" height="176" viewBox="0 0 95 176"><defs><linearGradient id="a" x1="-819.2" x2="819.2" gradientTransform="matrix(0 -.02 .02 0 33.4 -139.05)" gradientUnits="userSpaceOnUse" spreadMethod="pad"><stop offset="0" stop-color="#fff" stop-opacity="0"/><stop offset="1" stop-color="#000" stop-opacity=".5"/></linearGradient><clipPath id="b"><path d="M1 1h93v174H1z"/></clipPath><g id="c"><path fill="#a9a27a" d="m90.8 6.8 1.4 3.8-5.9 3-9 4.6v-4.4zm.3 147.6 1.3 3.7-14.7 7.6v-4.4z"/><path fill="#816b58" d="M86.4 13.5v1.8l-1.2 1.5-3.7 1.8-3.7.3-5-.9-4.3-3v-1.1l.8.4 8 3.9z"/><path fill="#ae9d8c" d="M86.4 15.3v2.5L84 20l-4.2.5-6.1-.6-5.2-2.9v-2l4.3 3.1 5 1 3.7-.4 3.8-1.8z"/><path fill="#c6baac" d="m86.4 17.8.5 79.6-.7.6-.1.2.8 1.3.3 37.2v.7l.1 15.2v1q-.1 2.1-3 3.5l-.5.3L83.2 23l-1.3 1-2.4.8q-4.2-1.4-9.2-3.7l-1.9-1.5V17l5.3 3 6.1.5L84 20z"/><path fill="#e3dfd7" d="m87.3 152.6 3.8 1.8-13.4 6.9-13.4-6.5 3.2-1.6v.4q0 2.1 3 3.5 1.4.8 3.2 1.2l3.7.3h1.7q2.6-.2 4.7-1.2l.5-.3q2.9-1.4 3-3.6zm0 1"/><path fill="#dfdcce" d="M77.6 165.8 63 158.6l1.3-3.8 13.4 6.5v4.4zM68.5 14l-6-2.9 1.4-3.7 13.4 6.5v4.4l-8-3.9z"/><path fill="#eeebe6" d="m67.5 153.2.6-83.8.4-.4.5-1.2-.5-.7-.4-.7.3-46.8 1.9 1.5 3.4 21.7v115.5q-1.8-.4-3.2-1.2-3-1.4-3-3.5zm6.2 5.1v-.9z"/><path fill="#f2f0ec" d="m63.9 7.3 13.7-7 13.2 6.5-13.5 7z"/><path fill="#dad1c9" d="m79.6 24.8 2.3-.9 1.3-.9.6 134.4q-2.1 1-4.7 1.2L79 24.9z"/><path fill="#e1dad2" d="m79.6 24.8-.6.1.1 133.7h-1.7l-3.7-.3V42.8l-3.4-21.7q5 2.3 9.3 3.6"/><path fill="#d8d8dc" d="M73.7 158.3v-.9z"/><path fill="none" stroke="#856d65" stroke-linecap="round" stroke-linejoin="round" stroke-width="__RESOLUTION__" d="M86.4 13.5v4.3l.5 79.6-.7.6-.1.2.8 1.3.3 37.2v.7l.1 15.2m-19.8.6.6-83.8.4-.4.5-1.2-.5-.7-.4-.7.3-46.8V17m0-.2V15m0-.2V14l.8.4m-1.7 139.3q0 2.1 3 3.5 1.4.8 3.2 1.2v-.9.9m-6.2-4.7v-.4" vector-effect="non-scaling-stroke"/><path fill="none" stroke="#b7b091" stroke-linecap="round" stroke-linejoin="round" stroke-width="__RESOLUTION__" d="m87.3 152.6 3.8 1.8 1.3 3.7-14.7 7.6h0-.1l-14.6-7 1.3-3.8 3.2-1.6m19.8.3v-.9m0 1" vector-effect="non-scaling-stroke"/><path fill="url(#a)" d="m48.3-149.7-5.8 3 .3 52.4H24.2l.4-52.1-6-2.9L20-153l13.7-7 13.2 6.5z" transform="translate(43.75 159.95)"/><path fill="#3a160e" fill-opacity=".6" d="m78.5 165.4-.7.3v.1h-.1l-9.5-4.7.6-2.2q2.8 1.4 7.4 3.2l-3.1-2.2-4.2-1.6.5-1.3h.4v-7.8l.5-2-.3-.1-.2-.1v-3.2l1 1.4 1.4-.5q1.7.8 3.5 1l1.4 1.2 1.4-.8q3.5 10.8 0 19.3"/><path fill="#3a160e" fill-opacity=".7" d="M78.5 165.4q3.5-8.5 0-19.3h.2v-.5l.8-.2.8-.1v3.5q1.2-.5 2-4l.3-.3 1.8-.9q2.7 9.3 0 18.8z"/><path fill="#3a160e" fill-opacity=".8" d="m84.4 143.6.1.2.9 1.4V143l1.6-1.2.3-.2.1 11 3.8 1.9 1.3 3.7-8.2 4.2q2.8-9.5 0-18.8"/><path fill="#dcd6cd" d="M79.1 95.3v2l-6 3.4-2.3 1.2v-2.2z"/><path fill="#c0b6a5" d="M73 100.9q-1.1 1.6-1.2 3.6l.1-1.6-1.2.6V102l2.3-1.2z"/><path fill="#bcbcd8" d="m71.8 104.5-.1.4-.1.9-.8.5v-2.8l1.1-.6q-.2.7-.2 1.6"/><path fill="#f2f0ec" d="M70.8 99.7v-5.8l3 .9.9.1 4.4.4z"/><path fill="#c17b4b" d="M.3 106.5H0zM0 117.9h.1z"/><path fill="#bcaf9c" d="M68.3 82v1.5q-1 2.3-1.7.8v-1.5zm-24.9 37-.1-11.4h.2l2.8 1.4 1.6.9 1.9.9v2q-4-1.1-4.6 4.1l-.2 2.9zm2.9-24.3v-1.4l1.8-.9v1.5q-1.1 2.3-1.8.8m13.5-6.9v-1.4l1.8-.9V87q-1.1 2.3-1.8.8m-5 1.1v1.6q-1 2.3-1.7.8v-1.5z"/><path fill="#e9e4de" d="m68.4 83.5-.1 11.2v1.5l-.1.3q-.9 1.5-1.7.7v-13q.8 1.5 1.8-.8m1.5 23.3v36l-26.5 13.5.1-37.4 1.6.8zm-23.5-.8V94.6q.7 1.5 1.8-.7v12.6l-.2.3q-.8 1.6-1.6.6zm0-12.8-3 1.5v-3l27.3-13.9v3l-2.3 1.1-1.7 1-5 2.5-1.8.9-5 2.5-1.7 1-5 2.5zm13.5-5.5q.7 1.5 1.8-.8v12.7l-.2.3q-.8 1.5-1.6.7zm-5 2.7V103q-.8 1.8-1.6 1.1l-.2-.2V91.2q.8 1.5 1.9-.8"/><path fill="#f2f0ec" d="m68.3 94.7 2.1-1 6.1 3.1-8.3 4.3v-4.6l.1-.3zm-24.8 12.7 2.8-1.4v2.9zm11.3-5.9 5-2.5v6.4l-5 2.6zm-6.7 3.5 4.9-2.5v1.4l.2.2v4.7l-3.5 1.8-1.8-.9v-3l.1-.3zm13.4-5.2.1-.3v-1.4l5-2.5v6.3l-5.1 2.6z"/><path fill="#dcd6cd" d="M76.5 96.9v2l-4.2 2.1-22.5 11.7v-2l3.4-1.8 1.6-.8 5-2.6 1.6-.9 5.1-2.6 1.7-.9z"/><path fill="#c0b6a5" d="M72.4 101q-.4.8-.5 2l-26.8 13.8q.8-5.2 4.6-4z"/><path fill="#d5cdc1" d="m71.9 103-.2 2.8-2 1-24.7 13 .1-2.9z"/><path fill="#e3ddd7" d="M69.8 142.9v6.7L43.3 163v-6.7z"/><path fill="#ded7cf" d="M69.8 149.6v10.3l-26.5 13.5V163z"/><path fill="#c17b4b" d="M43.3 107.5h.2z"/><path fill="#ddd7d0" d="M53.2 104.2q.8.6 1.6-1v4.9l-1.6.8zm-7 4.7v-1.5q.9 1 1.7-.6v3zm13.5-8.3q.8.8 1.6-.7v4.7l-1.6.9zm6.8 1.4v-4.8q.8.8 1.6-.7v4.6z"/></g></defs><g clip-path="url(#b)"><use xlink:href="#c" width="92.5" height="173.4" transform="translate(1 1)"/></g></svg>