<svg xmlns="http://www.w3.org/2000/svg" xmlns:xlink="http://www.w3.org/1999/xlink" width="85" height="104" viewBox="0 0 85 104"><defs><clipPath id="a"><path d="M1 1h83v102H1z"/></clipPath><g id="b"><path fill="#abb250" fill-opacity=".4" d="m80.5 47.5-5.2 2.9q-8.5 6.4-10.1 11.1-1 3 .6 6.6 5-1.8 4.4 2.9l-.1.2q2.8-.5 1.4 1.9 3.6 4.2-.7.6-1-3-4.5-1.7-4.9-5.8-7.7-3.7 0-2-.6-3.2l-1-2.3q-.4-1.1-2.3-2 2-1.7 2.4.7h.2q4.3-.8 5-7.6.8-9.3-.6-10.2-1.3-1.4-1.1-4.2.2-2.6 1.4-3.5h1.8q.4.7-.6 1.8-1.7 1.9-1.3 3.4.4 1.4 1.6 1.8 3.8-.6 6.7-3.2l1.3-.1q.3.6-.7 1.3-2.6 2.4-5.5 3.9-2.9 2 .5 7.8l1.6 2q1 .4 2.1-1.2 2.4-3.1 4.7-5l5.2-4.2q3.3-2 3.6-.7.3 1.2-2.5 3.9"/><path fill="#8d952b" d="M79.8 45q1.3-.8 1.3-.3.2.5-1 1.6l-2 1.2-2 1.6-.3-.2.1-.2 1.8-2zM61 39.1q.6-1.7 1.5-2.1.9-.2 1.1.3t-.6 1q-1.4 1-1.4 2.1 0 .8.4 1.3l-.4.4-.1-.1q-1-1.1-.5-2.9m6.4 2.9 1-.1q.2.4-.5.9-1.8 1.6-3.7 2.6-.9.6-.9 1.7l-.2.3q0-2.2-.8-2.8l.4-.5h.3q2.5-.3 4.4-2.1m-4 10.2.1.1.2-.3q.3 1.3 1.3 2.9l1.2 1.7.7-.1-.7 1.7q-2 2.5-2.5 4.5t.8 4.9q1.7 1.7 2.3 1.5l1.6-.5q1-.3.8 2.2 2.7 3.2-.6.5L65.2 70q-3.8-4.5-6-2.8 0-1.6-.4-2.5l-.7-1.8q-.3-.8-1.8-1.5 1.5-1.4 1.9.5h.1q3.3-.7 4.8-5.5z"/><path fill="#bea969" d="m50 83.4-2.7-2.1 3.3-8.1 9.7-7.2-5.8 11.7z"/><path fill="#705b2c" d="M60.4 66 71 73.3l1.2 3.5-4.8.9q-5.1 3.8-12.4 7.1l-.5-7.1z"/><path fill="#b59e55" d="m55 84.8-5-1.4 4.5-5.7z"/><path fill="#c9bc67" d="M59.7 22.5q5.4 1 11.1 4.4 3.1 1.6 2.8 6.9 0-2-1.1-2.5-3-1.3-7.7-1.2-11.8.3-15.6 7.4Q46 25 34.3 36l-2.4 2.3q-2.9 3-6.2 7.3l-1.3 1.6-.2.3-1.9 2.6 1.6-3 .1-.2 1.1-1.8Q32.3 33 40.3 27.3l3-1.9Q51 21 59.7 22.5"/><path fill="#bea969" d="m22.3 50 2-2.5.1-.3 1.3-1.6q3.3-4.3 6.2-7.3l2.4-2.3-18.1 42.9-5.3 3.5-4.1 11.8q-3 1.3-6.4-.7l7.1-14.2 4.1-1.9-.8-4.5z"/><path fill="#b59e55" d="M34.3 36q11.8-11 14.9 1.5l-3 6.2H46l-9.9 5.5-.3 4.1-6.6 7 .8 3.5 7.2-2-9.1 18.4-8.7-2 7.9 3.5-10.5 20.2q-5.8-2.5-10-7.7l4.1-11.7 5.3-3.6zm17.5 12.9.4.3L50 66.5l-3.7 1.2.2-13.9z"/><path fill="#705b2c" d="M49.2 37.5Q53 30.4 64.8 30q4.7-.1 7.7 1.2 1 .5 1 2.5l-1.3 6.4-.5 1.2-.2.6-21.7 43.2q-5.5 3.7-11.2 2.7-11.8 10.6-21.7 14l10.5-20.2-7.9-3.5 8.7 2 9.1-18.4 5.4 7h.1l3.5-1.1 3.8-1.2L52 49l-.3-.3-5.6-5v-.1z"/><path fill="#7e6732" d="m46.3 67.7-3.5 1.1h-.1l-5.4-7-7.1 2-.9-3.5 6.6-7 .3-4.1 1.7 2.5 8.6 2.1-.4-10 5.7 5-5.3 5z"/><path fill="#897136" d="M46.2 43.8H46l.4 10-8.6-2.1-1.7-2.5 9.9-5.5"/><path fill="none" stroke="#000" stroke-linecap="round" stroke-linejoin="round" stroke-opacity=".3" stroke-width="__RESOLUTION__" d="M73.6 33.8q.3-5.3-2.8-7-5.7-3.3-11.1-4.3m13.8 11.3-1.3 6.4-.5 1.2-.2.6-21.7 43.2M.4 93.5l7.1-14.2m4.1-1.9-.8-4.5" vector-effect="non-scaling-stroke"/><path fill="#9ba42f" fill-opacity=".6" d="m60.6 23.3 1.2.2q.5-1.1 1-1.1 1.7 0 2.3 1.2l-.8-2.4q-1-3.7-2.2-4.6h1.4q2 5.2 4.4 2.6v-.8q.2-6.1 1.9-6.7 1.8-.6.7 3.4-1.2 4.6-1 6t2.1 1.4l2.8-.1q1.4-.5 2.3-3.2.5-1.1 1.2-.6.8.5.6 1.9-.2 3-6 3.6-2.6 0-3.3 1.5 2.6-.7 2.7 2.2-4 .2-8.5-1.3l-3.2.5-.6-.6q1.2-.1 1.4-.9l-3-1.4q.5-2.2 2.5-.8"/><path fill="#8d952b" d="m68 20.5.1-.7q.2-5 1.4-5.4.5-.2-.2 2.3-.9 3.5-.6 4.7 0 1.6 1.8 1.7l4.6-.3q.8-.5 1.7-2.9.3-.7.9-.3v1.2q-.2 2.3-4 2.8-4.3 0-4.9 1.4 2-.6 2 1.7-2.9.2-6.2-1l-2.4.4-.4-.4q1-.1 1-.7l-2.1-1.1q.3-1.7 1.8-.6l.9.2q.4-1 .8-.9 1.2-.1 1.6.9l-.5-1.8q-.3-1 .7-.8 1.4.2 2-.4"/><path fill="#abb250" fill-opacity=".4" d="M37.3.3q1.4 1 1.6 4 .3 3.3-1.3 5-1.6 1-.7 11.7.9 7.9 5.8 8.8h.3q.4-2.8 2.7-.8-2.2 1-2.6 2.3L41.9 34q-.6 1.3-.6 3.6-3.3-2.4-9 4.4-4-1.5-5.1 2-5 4.1-.9-.8-1.6-2.8 1.6-2.2v-.2q-.7-5.5 5-3.4 1.9-4.1.7-7.6Q31.7 24.4 22 17l-6.1-3.4q-3.2-3.1-2.9-4.5t4.1.8l6.1 5q2.7 2 5.3 5.6 1.4 2 2.4 1.5.5-.2 2-2.4 3.9-6.7.7-9.1-3.5-1.7-6.4-4.4-1.2-.8-.9-1.5l1.6.1q3.3 3 7.6 3.7Q37 8 37.4 6.3t-1.5-4q-1.1-1.2-.6-1.9z"/><path fill="#8d952b" d="M36.7 1.4q1 .5 1.7 2.6.6 2-.6 3.4l-.6-.5q.4-.5.5-1.5 0-1.2-1.6-2.4-.8-.7-.7-1.2.3-.5 1.3-.4m-18 12.2-2.4-1.4Q15 11 15.2 10.4q.1-.5 1.6.3l2.3 2q1 .9 2.1 2.3l.2.2-.4.3zm17.2-.3q0-1.3-1-2-2.4-1.2-4.3-3-.9-.6-.6-1h1q2.4 2.1 5.1 2.6l.4-.1.5.6q-.8.6-.9 3.2zM32.4 24q.4-.2 1.4-1.9 1.1-1.9 1.5-3.3l.3.3.1-.2.4 4.9q1.7 5.6 5.5 6.4h.1q.4-2.2 2.1-.6-1.6.8-2 1.7l-.8 2q-.5 1.2-.5 3-2.6-1.9-6.9 3.2L29.7 41q-3.9 3.2-.7-.5-.2-3 .9-2.7l1.8.6q.7.3 2.6-1.7 1.7-3.3 1-5.6T32.4 26l-.8-2z"/><path fill="#9ba42f" fill-opacity=".6" d="m42.2 57.9-.5.7q.5 3.5 5 .4 1.2-1 1.3.8-1.5 0-4.5 2.5l-1.9 1.5q1.2-.7 2.4.3.6.2.3 1.4l1.2.6q2.4-.1 1.6 2l-3.2-.4q-.4.6.6 1.5l-.8.1q-.5-.9-2.4-2.2-4.5-1.3-7.7-3.7 1.6-2.3 3.4-.3.3-1.6-1.8-3-4.4-3.9-3-6.4.7-1.2 1.6-1.2t.7 1q-.8 2.8 0 4 .3.6 2.3 1.7h2.5q1-1 2.6-5.5 1.4-3.8 2.4-2.4 1.1 1.5-2.1 6.6"/><path fill="#8d952b" d="M41.9 55.7q.9-2.4 1.3-2 .7 1-2 5.3l-.3.5q.1 1 1.5 1.6.9.3.1 1L41 63.3l1.8.1q.5.3.3 1.2l.7.4q1.9 0 1.3 1.6l-2.5-.4q-.2.5.5 1.2h-.6q-.3-.6-1.7-1.7-3.4-.8-5.7-2.6 1.2-1.9 2.5-.3.4-1.5-3.2-4-2.8-2.5-1.7-4.4l.7-1q.8 0 .6.7-.7 2.5-.2 3.4.6 1.1 3.5 2.9 1.6.9 2.5-.4 1-1 2.1-4.3"/></g></defs><g clip-path="url(#a)"><use xlink:href="#b" width="83" height="101.9" transform="translate(1 1)"/></g></svg>