<svg xmlns="http://www.w3.org/2000/svg" xmlns:xlink="http://www.w3.org/1999/xlink" width="50" height="54" viewBox="0 0 50 54"><defs><g id="d"><path fill="#666" d="m35.9 42.5.1-.8q.1-.4.4-.3l.3.3.1.8-.1.7-.4.4-.2-.4z"/><path fill="none" stroke="#000" stroke-linecap="round" stroke-linejoin="round" stroke-opacity=".3" stroke-width="__RESOLUTION__" d="m35.9 42.5.1-.8q.1-.4.4-.3l.3.3.1.8-.1.7-.4.4-.2-.4z" vector-effect="non-scaling-stroke"/><path fill="#666" d="m14.2 43.5-.1.8q-.1.3-.3.3l-.4-.4-.2-.7.2-.7.3-.3q.3-.1.4.3z"/><path fill="none" stroke="#000" stroke-linecap="round" stroke-linejoin="round" stroke-opacity=".3" stroke-width="__RESOLUTION__" d="m14.2 43.5-.1-.7q-.1-.4-.3-.3l-.4.3-.2.7.2.8.3.3q.3 0 .4-.4z" vector-effect="non-scaling-stroke"/><path fill="#595333" fill-opacity=".9" d="m38 34.4-2.6-3.7-1.6-4.1zM11.7 22.7l.6 4.4-.5 4.5zM11 34.6l-.5-4.5.7-4.4z"/><path fill="#4f4a28" fill-opacity=".9" d="m23 44.6 1.8.3q1.8 0 4-1.6.8-.7 1.6-1.1.4-.2 1 .5l1 .9q.4 0 .7-.9.4-.9 1-.9.8 0 2.5.6 1.8.3 2.3-.5l.9-2.2q.3-1.5 1.2-1.9l2.8-1v2.9l-4.1 4.1-7.3 3.6h-2l-2.4.9-5-.2z"/><path fill="#7b7540" fill-opacity=".8" d="m23 48.1-2.6.6L2.9 40l-1-3.4v-2.9l4.5 2.6 3.2-1.1q.9 0 1.9 1.2.4-.3.5-1l1.3 1.2h-.1l.6.5-1 .5 1.3.8-.1.1.7.4-1 .8q1.5 2 3 2.6l6.3 2.3zm-8.2-25 3 2.4-.9 1.6-1.2-.9v1.7h-1.8V26l-.6.2-.7-1.2zm-5.1 8.8-1.9.6-.8-1.2-.8 1.2-1.8-2.3 2-.8-1-1.2 1.3-1q0 2 3 3.1z"/><path fill="#666" d="m38 23.1.1-.7q.1-.4.3-.3l.4.3.1.7-.1.8-.4.3q-.2 0-.3-.3z"/><path fill="none" stroke="#000" stroke-linecap="round" stroke-linejoin="round" stroke-opacity=".3" stroke-width="__RESOLUTION__" d="m38 23.1.1-.7q.1-.4.3-.3l.4.3.1.7-.1.8-.4.3q-.2 0-.3-.3z" vector-effect="non-scaling-stroke"/><path fill="#666" d="m22 28.7-.1.7q-.1.4-.3.4l-.4-.4-.1-.7.1-.8.4-.3q.2 0 .3.3z"/><path fill="none" stroke="#000" stroke-linecap="round" stroke-linejoin="round" stroke-opacity=".3" stroke-width="__RESOLUTION__" d="m22 28.7-.1-.8q-.1-.3-.3-.3l-.4.3-.1.8.1.7.4.4q.2 0 .3-.4z" vector-effect="non-scaling-stroke"/><path fill="#666" d="M7.8 20.6q0 .5-.2.8-.1.3-.3.3l-.3-.3-.2-.8.2-.7.3-.3q.2-.1.3.3.2.3.2.7"/><path fill="none" stroke="#000" stroke-linecap="round" stroke-linejoin="round" stroke-opacity=".3" stroke-width="__RESOLUTION__" d="M7.8 20.6q0-.4-.2-.7-.1-.4-.3-.3l-.3.3-.2.7.2.8.3.3q.2 0 .3-.3.2-.3.2-.8" vector-effect="non-scaling-stroke"/><path fill="#609fa6" d="m28.9 4.6-.4.3zl-2.2-1.8-.6-.1-1.9 1L23 2.3l-1.6.7-.4 1 .2.6 1.8-.1V3.3v1l-1.8.2.3 1H20L19.2 7l-.6-1.6h-1.5l.1 1.5 1.7.5q-.8.7-1.6.4.8.3 1.6-.4L17.2 7V5.5q-.8.7-.6 2l.6.4-.3 1.5q.9.2 1.7 1l1.8-1.1-.2-1 1.3-.8.9-2.4.6-.4v-.3l1.1.5q.8-.5 2-.8h.8l1.6.8 1.4.8.9 1.2.4-.4q-.8-1.7-2.3-1.9m-7.5 9.7.3.5.6.7-.9 1-1.6.3q-2 0-3.2-2h-.1v-.1.2-.2l-.1-.1-.8.8.6 1.2-.1.1h-.2l-2.3 1-2.5 1L9 17.6q1.4-.3 2.5-1.8 1.2-1 2.2 0-1 .9-1.8.4.3.7.3 1.3 0-.6-.3-1.3.8.5 1.8-.4-1-1-2.2 0l-.4-.9-.8-1.2v-2.4l.8-.4-.1 1.5 1.7-1-1 1.6H14l-1.2-1.6-.2-1 .7.1q.8 1 2.2.8l.3.9q-.1 1.2 1 1.9-.7-.1-1.2.3l-.6-.1-1.2-1v1l-2.6.6-.8-1.2q-1.2-1-2.6 1 1.7 1 3.8 1l-.4-.8 2.6-.6v-1l1.2 1 .6.1q.5-.4 1.3-.3-1.2-.7-1-1.9l-.4-1q1-.5 1.5-1.8.9.2 1.7 1l1.8-1.1.3 1-1.2 1.5-.4-.8-.6-.6.6.6.4.8-.6.7-.5.9h-.8l-.5.3-.4.4 2.2.6q.4-.7 1.2-1.1l.2.1h.2l.1.1zm-4.5 3.2q1 1.2 2.5 1.5l-2 1q.2.7-.6 1.6l-2.6.3-.7-.2q-1.2-.4-.3-2l.9-1.5h1.6zM35.5 11l-3.9-3 .5-.9L34 8.7zm-13.8 3.8-1.1-1zm14.9-4.2q0-1.5 1.3-2.1-.5.9-.4 1.7zm-1.7 9.5-.5.1q-.9.4-.4 1.2-2.2.9-3.9.6 1.7-2 3.5-2.7zM18 4V3q-1.9.3-2.8-.6 1-.4 2.6 0 0-1.8 1-2.4.4 1.4-.4 2.5l.7.8zm-4.8 6.4-.7-.1h-.2l.1-.2.2-.1.1-.6.7-1 .2-.1 1.2-.6 1.8-.3v.7q-.7 1.4-2.1 1.4-.3.8-1.3.9m7.4 3.4-.1-.1zm-5.1.6-.8 1q.4.2.9 0-.5.2-.9 0zm-.6-.1h-1.2zm3-5.1h1.2l.1-1.3zm-1.4 5.5.1-.6zm.8-2.4q.2-1 1.7-1.3-1.5.4-1.7 1.3m-2.9-2.7q.1-1.1-1.1-1.1 1.2 0 1.1 1.1m1.3 2.6 1.3 1.5zm4.9 7.3 1-.5.3 2.4-.7 1-1.4-.5zm-7-1.8-1.4-.2zm-1.4-.2-.3.6q-1.2-.7-.4-2.3-.8 1.6.4 2.3zm4.6 2.8q-.3-1-2.2-1.4 1.9.4 2.2 1.4m-1 .6q-2.2.3-1.6 1-.6-.7 1.6-1m-4.7 16.2-4 1.6q1.6-2.1 4-1.6.7 2 .7 3.5l-.2 1 .4.6v2.1l-1.8 1-1.8 1.3-2.4-.7q-.3-1.1 1.9-2l1-1.4 1.3-3.1.8 1.3q0 1.9.3 1.8.2-.2.3-.8l-.3.8q-.3.1-.3-1.8zm8.7-22.2q-.8 1.3 0 1.9-.8-.6 0-2M10 43q1.5.1 1.3 1-.6-.6-2.4-.4 1.8-.2 2.4.5.2-1-1.3-1.1m0 2.4q.3-1.2-2.2-1.4 2.5.2 2.3 1.4"/><path fill="#cfebd5" d="m26 2.7-1.8 1L23 2.3l-1.6.7-.4 1 .2.6.3 1H20L19.2 7l-.6-1.6h-1.5l-.9-.2-1.2.9q-1.4.1-1.5 1h-.1l1.4.6 1.8-.3q-.2-1.3.5-2L18 4l1.1-.8 2-1.4 1.9.3z"/><path fill="#396468" d="M28.5 4.9q-1.2 1.1-1 3h.9-.9q-.2-1.9 1-3l-1.6-.7L26 4q-1.2.3-2 .8 1.1.1 1.6.9-.5-.8-1.6-.9l-1.2-.5v1.5q.1 2.7 1.6 3l1.2 1.6 1.6-.7-.6-3.6-1-.4q.7.9.6 2.6L26 9.7l-1.7-.8q-1.4-.3-1.4-3l-.8 1.4-.4 2.4 1.9 1.4-.5.1.5-.1-2-1.4-.3 3.3 1.5-1 .3-.8h.8l-.6 1.7-2 1.4.3.5.6.7-.6 2.3h-2.1l-.8.7v-1.2q-1.1-.2-1.8-1.5l-.4-1 .4 1q.7 1.3 1.8 1.5v1.2l.8-.7.8-.7 1-.5-1.6.2.6.3-1.6.2 1.6-.2-.6-.3q-2 0-3.2-2h-.1l-.9.7.9-.7-.1-.2-.8.8.6 1.2.7.9q1 1.2 2.5 1.5l2.1-.7v.7h.6l1.4-.9.4.9h.7-.7l-.3-.9-1.5.9h-.6l.4 2.4-.7 1H23l1.4-.9 2.5.4-.2-.5-.3-1-.4-1.3q.8 0-.1-.8h-.2l-.1-.3-1 1 1.1.6.7.9 1-1.3q-.1-1.5-2-1.7l.2.5-.2-.5-2.4-.7.6-1.1h1.7l.9-.5-.1-.8.1.8-.9.5 1.3.2q.2.3.6.4l.5-.5 1-1.6q-.6-1.6-2-1.2-.4-1.5.6-2.3.3.5.3 1 0-.5-.3-1-1 .8-.6 2.3-1.4-1-2.6-.5l.8.8 1.2 1v-1h-1.2l-.8-.8q1.1-.5 2.6.5.9-.7.9-1.3l1.5 2.7.6.3.8-.2q0-1.6 1.5-2-1 1-.8 2 .9.8 2 0l-.2.6.2-.6q-1.1.8-2 0-.2-1 .8-2-1.5.4-1.5 2l-.8.2-.6-.3-.5-.2-.9 1.6-.5.5-.8 1.2h.7l2.3-.3-.1-.6h2.1L31 16q.4-.3.5-.8L33 15l.2.6 3 .4-.9-1.1q1.5-.8 3 0-1.5-.8-3 0l1 1-1.2.5q-.7.4-1.1.9t-.8 1.4q.3-.8.8-1.4t1.1-.9H34v.9q-2.4-.1-3.4.7l-.7.7 2.5.4.8-.4 3.1-.6.9-1 .8-1 .9-.4-.6-.8-1.8-2.6-1.6 1v-.8l-1.6-1.1 2.2-.5-2.2.5 1.6 1 1.2-.7 1-.4q.4 1.2 1.9.7-1.5-.7-1.5-2l-.9.5-1.1.4L31.6 8H30l-1.6 2V8q1.1-.2 2.4-1.1l-.9-1.2zM31.6 8l-.9-1.2.5-.4.9.7zm-10.1 5v1.3l-.8-.5-.6-.7zm7.3-1.2 1.6.6q.6-1.3 1.7-1.1l-1.4-1.1q-.6 1.3-2 1.6m-3.1-3.6-1 .7zM7.8 17l-1.2-.6 1-1.7q1 1.2 2.1 1.4zM33 13v.9l1.3-.8zm3.3 3 .9 1zm-3.8 3.1 1.2.1q-1.8.7-3.5 2.7-.6-.1-1.2-.5-1-.2-1.2-1 .7-.7.9-1.7H30zm-3.8-.4q-.2 1-.9 1.8l-1 .8-.3-1 1-1.2q.6-.4 1.2-.4m.7-2.2q1.1-.1 1.7-.6-.6.5-1.7.6m-3.1-1.4q.1.5.4.7-.3-.2-.4-.7M23.9 19H22zm1.8.6-1.3 1.9zm4-4.8q-1.2.3-2 1 .8-.7 2-1"/><path fill="#22393c" d="m25.8 5.8.9.5.6 3.5-1.6.7-1.2-1.6 1.6.8.1-1.3q.2-1.7-.4-2.6m-2.6 5.4h.8l-.6 1.7-2 1.4V13l1.5-1zm-.9 4.3-.6 2.3h-2.1l.8-.7 1-.5v-.1zm2.3 3.5 1-1v.4l-.4.4q0 .3.2.3h.6l.4 1.4-.7-1zm.8-1.5-2.4-.7.6-1.1h1.7l1.3.2q.2.3.6.4l-.8 1.2h.7l2.3-.3-.1-.6h2.1L31 16q.4-.3.5-.8L33 15l.2.6 3 .4-1.1.4H34v.9q-2.4-.1-3.4.7l-1.2-.9 1.2.9-.7.7h-1.3q-.6 0-1.1.4-.2-1.5-2.1-1.7m.7-3.1-1.2-1.1H26zm1.5-2.6 1.5 2.7-.5-.2q-.6-1.6-1.9-1.2.9-.7.9-1.3m8.9.7-1.6 1v-.8l1.2-.8zM31.6 8H30l-1.6 2V8q1.1-.2 2.4-1.1zm-3 3.7q1.4-.3 2-1.6l1.4 1.1q-1.1-.2-1.7 1.1zm-6 12.7-2.2-1.1.8-1H23l1.4-.9 2.5.4-.2-.5 1-.8q.3.7 1.2.9l-1.2 1H26l-1.8 1zm-4.1-2.1-1-.4-.7-.4q1.3 0 2.4-.8zM33 13.1h1.3l-1.3.8zm-6.1 8.8v.7zm-2.5-.4q-.5 1.2-.1 2-.4-.8.1-2"/><path fill="#497d83" d="m23 5.9-.8 1.4-.4 2.4-1.4-.4-.2-1 1.3-.8.9-2.4.6-.4zM19.3 19l2.1-.7v.7l-1 .5-.7 2.4 1.4.5-.7 1-2-1 .7-1.6q-1.1.8-2.4.8.8-.9.6-1.6zm-6.2.8L11 18.7l2.5-1 2.4-1-.2.2-1.7 1.3zM9 17.6 7.8 17l1.9-.9q.9.2 1.8-.3-1.1 1.5-2.5 1.8m6.4-6.3q-1.4.3-2.2-.8l2.2-.2q1.1-.6 1.2-2.1v-.7l.6.4-.3 1.5q-.5 1.3-1.5 1.9m5-2 1.4.4-.4 3.3-1.3.1.5.7h-.1l-.1-.1h-.1l-.2-.1-.3-.1-1.4-.1.6-.9.5-.7 1.2-1.5zm-7.3 1.2 2.2-.2q1.1-.6 1.2-2.1-.7 1.4-2.1 1.4-.3.8-1.3.9m6.9 2.6-.5-1.3zm.3.6-.2-.1zm-.5-.2-.9-1 1.1.6-1-.6zm-8.3 2.3q-1 .5-1.8.3-1-.2-2-1.4 1.7 1 3.8 1m-.4 21.4 1 1.3.6 1.5q.6 2.2 0 5l-1.3 1-1.3.6H8.4l1.8-1.2 1.8-1v-2.1l-.3-.5v-1.1q0-1.5-.6-3.5l-1 2.3.9 1.3z"/><path fill="#92bec2" d="m16.2 16.6.7.9-1.2.7H14l1.7-1.3.2-.1v-.1zm-8.5-1.9q-.3-.5 0-1.8.7-1.2 1.5-.5l2.3-3.8 1.9-1.3 1.4.5-1.2.6h-.2l-.7 1-.3.8-.1.2h.2l.2 1 1.2 1.6h-2.2l1-1.6-1.7 1 .2-1.5-.9.4v2.4q-1.2-1-2.6 1m4.7-4.5.3-.7-.1.6zm-3.2 2.2 1.1 1.3zm8.6-3.2 1.3-1.3-.1 1.3zm2.2 4.4q-.8.4-1.2 1.1l-2.1-.6.3-.4.4-.3h.9l1.4.1z"/><path fill="#000" fill-opacity=".3" d="m38.3 15-1.8-2.6 5.4 2.8v1.4l-3.4 1.3-1.6 1.3-2 .9-1.3-.8-1.2-.1.8-.4 3.1-.6.9-1 .8-1 .9-.4zm-4 5.2.7 2.3h-3.5l-3.9 2h-5l1.7-1 1.8-1h1.6l1.2-1q.6.4 1.3.5 1.6.3 3.8-.6-.5-.8.4-1.2M17.6 22l-2 .8-2.1-1.1.7.2 2.6-.3zm-5 17.9 2.8 6.6H10l1.3-.6 1.3-1q.6-2.8 0-5"/><path fill="none" stroke="#000" stroke-linecap="round" stroke-linejoin="round" stroke-opacity=".3" stroke-width="__RESOLUTION__" d="m28.5 4.9.4-.3m-7.7-.1 1.8-.1V3.3M28.4 8l-.9-.1q-.2-1.9 1-3m-4.4 0q1.1.1 1.6.9.7.9.6 2.6L26 9.7l-1.7-.8q-1.4-.3-1.4-3v-.2m-1.2 4 1.9 1.4-.5.1-.3.8-1.5 1-1.3.1.5.7h0l1.1 1m-2.1 3-.8.7v-1.2q-1.1-.2-1.8-1.5l-.4-1v-.1h-.1l-.9.8h-.9l.8-1.1-.6-.1-1.2-1v1l-2.6.6m10.5 4h.5l1.4-.8.4.9h.7l1-1-.2-.5q1.9.2 2 1.7.6-.4 1.2-.4h1.3l2.5.4m-7.1-3.5.9-.5-.1-.8v-1l-1.2-.1-.8-.8q1.1-.5 2.6.5-.4-1.5.6-2.3.3.5.3 1t-.9 1.3q1.4-.4 2 1.2l.4.2.6.3.8-.2q0-1.6 1.5-2-1 1-.8 2 .9.8 2 0l-.2.6h-1.5q-.1.6-.5.9l.4.6h-2.1q1.1-.1 1.7-.6m5.3 0-1-1q1.5-.8 3 0m-3.4-2.4-1.6-1.1 2.2-.5m-7.1-3q1.1-.2 2.4-1.1l.4-.4M23 4.7v-.3m1.4 4.5 1.1-.7m9.4 4.4 1.2-.8m.1 4.3-1.1.4q-.7.4-1.1.9t-.8 1.4m4-1.6-1-1.1m-5.7 2q1.1-.8 3.5-.7v-1l1.1.1m-6.5 2.3q-.2 1-.9 1.8.3.7 1.2.9m.4-4.9v.6l1.3.9-.7.7m-2.7-2.5.5-.5 1-1.6m-2.3 3.3.8-1.2q-.4-.1-.6-.4l-1.3-.2m1.3.2q-.3-.2-.4-.7M22.1 19h1.8m2 .1.5 1.4 1-1.3m-1.7-.8-.1-.4m-1 1 1.1.6.7.9.3.9 1-.8m-.8 1.3-.2-.5m.2 1.2v-.7m-2.6 1.6q-.4-.8.1-2l1.3-2m2-3.7q.8-.8 2-1.1m-14.2-.3q.5-.4 1.3-.3-1.2-.7-1-1.9l-.4-1m-2.2-.7-.7-.1h-.2l.1-.2.3-.7.7-1 .2-.1 1.2-.6 1.8-.3q-.2-1.3.5-2l.1 1.5 1.7.5q-.8.7-1.6.4l-.7-.4v.7q-.1 1.5-1.2 2zm3.7-1.1q.9.2 1.7 1l1.8-1.1 1.4.4m-1.3 4 .1.2m-7 .4H15m3.7-4 .4.7.5.8.5 1.3h0m-3.2 1-.2.6m1.8-1.3h-.8l-.5.3-.4.4m3.4-.5-.3-.1-1.4-.1m1.7.2.2.1h.2m-.5-.6-1-.6.8 1m-.7-2.5q-1.5.4-1.7 1.3m-4-3.8q1.2 0 1.1 1.1m2.6 4-1.4-1.4m5.7 4.3-1 .6-.8.7m-.8-.5 1.6-.2-.6-.3q-.8-.6 0-2m1.8 4.2-1 .5m-8.5-2 1.5.2m1 1.2q1.9.4 2.2 1.4m-2.6 1.6q-.6-.7 1.6-1m-4.7 16.2-4 1.6q1.6-2.1 4-1.6l-1 2.3m0 7-1.7.2-2.4-.7q-.3-1.1 1.9-2 2.5.2 2.3 1.4M11 37q.7 2 .7 3.5l-.2 1-.3.9q-.3.1-.3-1.8zm-1 9.4 1.3-.6 1.3-1q.6-2.8 0-5M9 43.5q1.8-.2 2.4.5.2-1-1.3-1.1" vector-effect="non-scaling-stroke"/><path fill="none" stroke="#000" stroke-linecap="round" stroke-linejoin="round" stroke-opacity=".2" stroke-width="__RESOLUTION__" d="m10.3 13.7.8 1.2.4.9q1.2-1 2.2 0-1 .9-1.8.4.3.7.3 1.3l-.3.6q-1.2-.7-.4-2.3-1 .5-1.8.3-1-.2-2-1.4m2.6-1-1-1.3" vector-effect="non-scaling-stroke"/><path fill="#fff" d="m14.8 19.8.2.2-.2.2-.5.1-.5-.1-.2-.2.2-.2.5-.1zm18.6-.2.2.2-.2.2h-1l-.2-.2.2-.2.5-.1zm-12.3-4.2.1.3-.1.2-.4.1-.4-.1-.1-.2.1-.3.4-.1zm-7.2-6 .1.3-.1.2-.4.1-.4-.1-.1-.2.1-.3.4-.1zm14.4 7v.3l-.3.1-.2-.1-.2-.1.1-.1.3-.1zm-20 28.4.2.2-.2.2-.5.1-.5-.1-.2-.2.2-.2.5-.1z"/><path fill="#b3ab74" d="m43.4 39 4.1.3q-4.3 2.3-4.5 5.5-3 .8-5 4.1l-10 2.5-.9-.1-3.4-3-.4-1.1q1.6 1.4 3 1.4l4.7-.8q3.5-.8 4.8-1.5 3.8-2 5.2-4.4 1-1.6 2.4-3"/><path fill="#b8ad6b" fill-opacity=".8" d="M43.4 39Q42 40.3 41 41.9q-1.5 2.4-5.2 4.4-1.3.7-4.8 1.5l-4.7.8q-1.4 0-3-1.4V47l-.4-1.8q2.3 2 5 2.4 2.8-.8 2.5-3.4l2 1.8 7-6.1v-2z"/><path fill="#d2b58a" d="M23.4 47.2v-.1m-18-8.6q.7 2.9 2 4.2-3-.6-7.3.7z"/><path fill="#f1dca3" fill-opacity=".8" d="m23.3 47.2.4 1.1q0 1.5-2.3 1.5-4.3 0-6-2.5 2.2-.4 3.2-1.3l.8 2.5q2-.4 3.5-3.2l.4 1.8z"/><path fill="#f1dca3" d="m23.8 48.3 3.3 3-9.6-1.4-3.4-2.4 1.3-.2q1.7 2.5 6 2.5 2.4 0 2.4-1.5M0 43.4l1.2-3.1 4.1-1.8z"/></g><g id="c"><path fill="#b59c59" d="m12.3 1.5 2 1.1-7.2 3.7-2-1.1z"/><path fill="#937c3a" d="m5.2 5.2 1.9 1v23.4l-2-1z"/><path fill="#7a6b3e" d="m7.1 6.3 7.2-3.7v23.3l-7.2 3.7z"/><path fill="none" stroke="#111a09" stroke-linecap="round" stroke-linejoin="round" stroke-opacity=".3" stroke-width="__RESOLUTION__" d="m14.3 2.6-2-1.1m2 1.1v23.3l-7.2 3.7-2-1V5.2" vector-effect="non-scaling-stroke"/><path fill="#5b532e" d="M42 19.1v14.3l-4.4 2.2v-.4q0-2.7 1-6.6l1-3.8q1.1-3.4 2.5-5.7M36 36.4l-4.6 2.4q-.2-2.1-.2-7.3l-.4-3.7q-.7-8.7-.7-11.7l2-1q-.3.7-.2 2.2l-.2 5.8q0 3.5.8 4.8l.4.6.2-.4q.9-2.3 1.9-8.9l1-6.1 2.5-1.3.2 1.5-1.6 9.9-.6 5.2q-.6 5-.5 8m-7.5 3.9-2.3 1.1v-.2l-.8-6.6-1.6-7.5-.2-1.2q0-2.9.7-5.6l.5-1.5 2.8-1.5-.3 5.8.6 4.4.7 5.9zM25 42h-3.7l-2.6.5h-.2l1.3-3.4 1.5.8 3.8 2zm-3.7-23.9-.4.2-5.2-2.6L8.4 12l-3.6-1.9L21 1.5h.1z"/><path fill="#716138" d="m37.6 35.6-1.6.8q-.1-3 .5-8l.6-5.2 1.6-9.8-.2-1.6 3.6-1.8v9.1q-1.4 2.3-2.4 5.7l-1.1 3.8q-1 3.9-1 6.6zm-6.2 3.1-3 1.5.2-6.9-.7-5.8-.6-4.4.3-5.8 2.5-1.2q0 3 .7 11.7l.3 3.6q0 5.3.3 7.4m-5.2 2.6-1.3.7V42l-3.7-2V21.5l1.4-1.6 2.2-1.1-.5 1.5q-.7 2.7-.7 5.6l.2 1.2 1.6 7.5.8 6.6zm5.9-26.3.1-.1 3.8-1.9-1 6.1q-1 6.6-1.9 8.9l-.2.4-.4-.6q-.9-1.2-.9-4.8l.3-5.9q0-1.4.2-2.1"/><path fill="#7a6b3e" d="m18.4 42.6-2.5-1.3q1-3.3 4.4-8.6l.9-1.7v9l-1.6-.8zm-6.3-3.2-3.2-1.6.5-6.4.1-5.8v-2.5l-.2-6.5v-2l2.6 1.3q-.5 2.1-.4 7l.1 2.9.2 4.5zm-7.3-3.7L2 34.3q0-4.1-1.2-8.4l-.2-1.2-.5-1.4v-9.6l2.3-2.6.2.2 1.7.7-.9 2.3q-.8 2.3-.8 3.8 0 1.8.7 6.9l.3 1.9q.9 5.6 1 8.7m32.5-26-16 8.5V1.5zm-18.5 9.8 1 .6h.1l.1.1-.3 5.5-.2 1q-.6 3.4-1.8 3.9-.4-.7-.4-1.2l.1-2.9q.3-3.2 1.1-7.2zM6.4 15.9v14.2q-.5-.8-1.3-3.6l-.3-1.4q-.6-2.5-.6-4.2 0-3.1 2-5zm7.2.8 2.5 1.4.5 4.2-.2 4q-.3 2.4-1.2 4l-1.6 2.8z"/><path fill="#907b4b" d="m15.9 41.3-2.3-1.2-1.5-.7-.3-9-.2-4.6-.1-2.9q-.1-4.9.4-7l1.7.8v16.4l1.6-2.8q.9-1.6 1.2-4l.3-4-.6-4.2 2.3 1.1q-.8 4-1 7.2l-.2 2.9q0 .5.4 1.2 1.2-.4 1.8-3.9l.2-1 .3-5.5 1.3 1.4v9.6l-.9 1.6q-3.5 5.3-4.4 8.6m-7-3.5-2.5-1.3-1.7-.9q-.1-3.1-1-8.7L3.4 25q-.7-5-.7-7 0-1.4.8-3.7l.9-2.3v.1l2 1v2.8-2.8l3 1.5-.2 2 .3 6.5v2.5l-.1 5.8zm-6.8-3.5-1-.5L.2 31v-7.7l.5 1.4.3 1.1q1 4.3 1.1 8.5m4.3-4.2V15.9h-.2q-2 1.8-2 5 0 1.8.5 4.3l.4 1.3q.8 2.8 1.3 3.6v6.4zm7.2 10v-7z"/><path fill="#c8bc8e" d="m.2 13.7 3-5.2-.7 2.6z"/><path fill="#cbc093" d="m3.3 8.5 13.5-7 6-1.3.4.2-2 1-16.4 8.8-2.1 1-.2-.1z"/><path fill="#b39953" d="m23.2.4 16 8.1-2 1.1-16-8.1z"/><path fill="#ae9243" d="m39.2 8.5 2.9 1.5-3.6 1.8-2.5 1.3-3.8 1.9-.1.1-2 1-2.5 1.2-2.8 1.5-2.2 1.1h-2.8l-1-.5 2-1 .4-.3 16-8.5z"/><path fill="#b59c59" d="m20.8 18.3-2 1.1-.4-.2-2.2-1.1-2.6-1.4-1.7-.7-2.6-1.4-2.9-1.5-2-1-1.7-.8 2-1.2L8.5 12l7.2 3.7zM8.4 12l-2 1.1zm5.2 4.8 2-1.1z"/><path fill="#bba669" d="M19.8 20h2.8l-1.4 1.5-1.2-1.4z"/><path fill="none" stroke="#111a09" stroke-linecap="round" stroke-linejoin="round" stroke-opacity=".3" stroke-width="__RESOLUTION__" d="M42 19.1v14.3l-4.4 2.2-1.6.8-4.6 2.4-3 1.5-2.2 1.1-1.3.7m-6.3.5h-.2l-2.5-1.3-2.3-1.2-1.5-.7-3.2-1.6-2.5-1.3-1.7-.9-2.6-1.3-1-.5m-.9-3.2V13.7l3-5.2h0l13.6-7 6-1.3.4.2 16 8.1 2.9 1.5v9.1m-35.7-6 2-1.1m-2 1.1v23.4m7.2-3.4v7m2-24.4-2 1v16.4" vector-effect="non-scaling-stroke"/><path fill="#a99465" d="m30.6 23.1-1-5.7 1-.2 1.8 2.8z"/><path fill="#937c3a" d="m29.6 17.5 1 5.6v18.2l-2-1V16.9z"/><path fill="#8c7848" d="m30.6 23.1 1.8-3.2q.2 6.5.6 9.1.3 1.9.7 1.9.5 0 1.5-1.6l2.5-5v6q-2.5 4.3-3 9L30.9 41l.3-7.4-.4-4.9-.2-3.9z"/><path fill="#a18956" d="m32.4 20-1.7-3 4-1.3z"/><path fill="#b59c59" d="m30.7 17.2-1.1.3-1-.6 7.1-3.7 2 1.1-3 1.5z"/><path fill="#7a6b3e" d="M30.6 41.3V24.9l.2 3.9.4 4.9L31 41zM32.4 20l2.4-4.1 3-1.6v10l-2.5 5q-1.1 1.6-1.6 1.6T33 29q-.4-2.7-.6-9m2.3 19.3q.5-4.7 3-9v7.4z"/><path fill="none" stroke="#111a09" stroke-linecap="round" stroke-linejoin="round" stroke-opacity=".3" stroke-width="__RESOLUTION__" d="M28.6 16.9v23.4l2 1 .3-.2 3.8-1.9 3-1.5V14.3l-2-1.1" vector-effect="non-scaling-stroke"/></g><clipPath id="b"><path d="M1 1h48v52H1z"/></clipPath><path id="a" fill="#c5e98d" fill-opacity=".4" d="m0 13.6.8-3.3L15.2 0h1.6l-3.2 21z"/><use xlink:href="#a" id="e" width="16.8" height="21.1"/></defs><g clip-path="url(#b)"><g transform="translate(22.8 40.7)"><use xlink:href="#c" width="42.3" height="42.8" transform="translate(-20.05 -33.55)"/><use xlink:href="#d" width="47.5" height="51.4" transform="translate(-21.8 -39.7)"/><use xlink:href="#e" width="16.8" height="21.1" filter="url(#filter-object-2)" style="mix-blend-mode:hard-light" transform="translate(-12.4 -37.6)scale(.6688)"/></g></g></svg>