<svg xmlns="http://www.w3.org/2000/svg" xmlns:xlink="http://www.w3.org/1999/xlink" width="202" height="205" viewBox="0 0 202 205"><defs><g id="ac"><path fill="#040000" d="m0 1 2-1 1.6 1-1.8.9z"/><path fill="#2a251e" d="m0 1 1.8.9V12L0 10.8z"/><path fill="#191414" d="M1.8 1.9 3.6 1v10.2l-1.8.8z"/><path fill="none" stroke="#040000" stroke-linecap="round" stroke-linejoin="round" stroke-width="__RESOLUTION__" d="M3.6 1 1.9 0 0 1" vector-effect="non-scaling-stroke"/></g><g id="ab"><path fill="#332b21" d="M4.1 2 4 1.7v-.1q.7-.4 1.3 0l.1 1.3-.2.2q.4 2.2-1.8 2.5 1.8-1.3 1-3.3zm-1.5-.9q.3-.1.6.2-.5 1-1.3.3l.1-.1q.3-.5.8-.5z"/><path fill="url(#a)" d="m.8-1.3.3.3q.8 2-1 3.3Q2.4 1.9 2-.4v-1.4q-.6-.3-1.2 0l-.2.1q0 .3.2.4m-4 2-.1-.7q0-1.3 1-2.3t2.3-1 2.4 1 1 2.3-1 2.4l-.1.1v-.3L2.2 2h-.1v.1l-.1.1v.2l-.4.1-.1.1-.1.1-2.9-.7-.1-.5-.3-.2h-.5Q-2.5.7-3 .5zm2.5-3 .2-.1q-.5.1-.8.5v.2Q-.7-1-.2-2q-.2-.4-.6-.2m-1.3.9-.5.8v.1l1 .2q.1-.5-.3-.9H-2z" transform="translate(3.3 3.35)"/><path fill="#0a0b09" d="M5.6 5.9h-.2l-.2.3-.4.1-1 .4h-.5Q2 6.7 1 5.7L.3 5 0 4.1l.3-.2q.5.1.6.8h.4l.4.1.1.5 2.9.8.1-.1.1-.2h.4v-.3h.1v-.1h.1v.5"/><path fill="#0d130f" d="M1.3 2.2h.2q.4.4.3 1L.7 3z"/></g><g id="aa"><path fill="url(#b)" d="M3.3 11.4.8 13.3l-4-1.4-.8-2.7 2.6-.6 3.3.8z" transform="translate(4 -1.55)"/><path fill="url(#c)" d="m4.7 1.6 3.3.8 1.3 2-2.5 1.8L3 5l-.8-2.7z" transform="translate(4 -1.55)"/></g><g id="Z"><path fill="url(#d)" d="m94.6-95.8.1 7-117.9 163-.1-6.6z" transform="translate(27.1 97.7)"/><path fill="url(#e)" d="M94.6-95.8-23.3 67.5l-3.7-1.8L91-97.7z" transform="translate(27.1 97.7)"/><path fill="#373130" d="m3.8 165.2.1 6.6-3.9-2v-6.4z"/></g><g id="X"><path fill="#040000" d="m0 1 2-1 1.6 1-1.8.9z"/><path fill="#817864" d="m0 1 1.8.9V12L0 10.8z"/><path fill="#4b4442" d="M1.8 1.9 3.6 1v10.2l-1.8.8z"/><path fill="none" stroke="#040000" stroke-linecap="round" stroke-linejoin="round" stroke-width="__RESOLUTION__" d="M3.6 1 1.9 0 0 1" vector-effect="non-scaling-stroke"/></g><g id="W"><path fill="#a28e6f" d="M4.1 2 4 1.7v-.1q.7-.4 1.3 0l.1 1.3-.2.2q.4 2.2-1.8 2.5 1.8-1.3 1-3.3zm-1.5-.9q.3-.1.6.2-.5 1-1.3.3l.1-.1q.3-.5.8-.5z"/><path fill="url(#f)" d="m.8-1.3.3.3q.8 2-1 3.3Q2.4 1.9 2-.4v-1.4q-.6-.3-1.2 0l-.2.1q0 .3.2.4m-4 2-.1-.7q0-1.3 1-2.3t2.3-1 2.4 1 1 2.3-1 2.4l-.1.1v-.3L2.2 2h-.1v.1l-.1.1v.2l-.4.1-.1.1-.1.1-2.9-.7-.1-.5-.3-.2h-.5Q-2.5.7-3 .5zm2.5-3 .2-.1q-.5.1-.8.5v.2Q-.7-1-.2-2q-.2-.4-.6-.2m-1.3.9-.5.8v.1l1 .2q.1-.5-.3-.9H-2z" transform="translate(3.3 3.35)"/><path fill="#17261e" d="M5.6 5.9h-.2l-.2.3-.4.1-1 .4h-.5Q2 6.7 1 5.7L.3 5 0 4.1l.3-.2q.5.1.6.8h.4l.4.1.1.5 2.9.8.1-.1.1-.2h.4v-.3h.1v-.1h.1v.5"/><path fill="#233e31" d="M1.3 2.2h.2q.4.4.3 1L.7 3z"/></g><g id="V"><path fill="url(#g)" d="M3.3 11.4.8 13.3l-4-1.4-.8-2.7 2.6-.6 3.3.8z" transform="translate(4 -1.55)"/><path fill="url(#i)" d="m4.7 1.6 3.3.8 1.3 2-2.5 1.8L3 5l-.8-2.7z" transform="translate(4 -1.55)"/></g><g id="U"><path fill="#040000" d="m0 1 2-1 1.6 1-1.8.9z"/><path fill="#6a6251" d="m0 1 1.8.9V12L0 10.8z"/><path fill="#3e3736" d="M1.8 1.9 3.6 1v10.2l-1.8.8z"/><path fill="none" stroke="#040000" stroke-linecap="round" stroke-linejoin="round" stroke-width="__RESOLUTION__" d="M3.6 1 1.9 0 0 1" vector-effect="non-scaling-stroke"/></g><g id="T"><path fill="#85735a" d="M4.1 2 4 1.7v-.1q.7-.4 1.3 0l.1 1.3-.2.2q.4 2.2-1.8 2.5 1.8-1.3 1-3.3zm-1.5-.9q.3-.1.6.2-.5 1-1.3.3l.1-.1q.3-.5.8-.5z"/><path fill="url(#j)" d="m.8-1.3.3.3q.8 2-1 3.3Q2.4 1.9 2-.4v-1.4q-.6-.3-1.2 0l-.2.1q0 .3.2.4m-4 2-.1-.7q0-1.3 1-2.3t2.3-1 2.4 1 1 2.3-1 2.4l-.1.1v-.3L2.2 2h-.1v.1l-.1.1v.2l-.4.1-.1.1-.1.1-2.9-.7-.1-.5-.3-.2h-.5Q-2.5.7-3 .5zm2.5-3 .2-.1q-.5.1-.8.5v.2Q-.7-1-.2-2q-.2-.4-.6-.2m-1.3.9-.5.8v.1l1 .2q.1-.5-.3-.9H-2z" transform="translate(3.3 3.35)"/><path fill="#141f18" d="M5.6 5.9h-.2l-.2.3-.4.1-1 .4h-.5Q2 6.7 1 5.7L.3 5 0 4.1l.3-.2q.5.1.6.8h.4l.4.1.1.5 2.9.8.1-.1.1-.2h.4v-.3h.1v-.1h.1v.5"/><path fill="#1d3228" d="M1.3 2.2h.2q.4.4.3 1L.7 3z"/></g><g id="S"><path fill="url(#k)" d="M3.3 11.4.8 13.3l-4-1.4-.8-2.7 2.6-.6 3.3.8z" transform="translate(4 -1.55)"/><path fill="url(#l)" d="m4.7 1.6 3.3.8 1.3 2-2.5 1.8L3 5l-.8-2.7z" transform="translate(4 -1.55)"/></g><g id="R"><path fill="#040000" d="m0 1 2-1 1.6 1-1.8.9z"/><path fill="#5b5446" d="m0 1 1.8.9V12L0 10.8z"/><path fill="#352f2e" d="M1.8 1.9 3.6 1v10.2l-1.8.8z"/><path fill="none" stroke="#040000" stroke-linecap="round" stroke-linejoin="round" stroke-width="__RESOLUTION__" d="M3.6 1 1.9 0 0 1" vector-effect="non-scaling-stroke"/></g><g id="Q"><path fill="#72624d" d="M4.1 2 4 1.7v-.1q.7-.4 1.3 0l.1 1.3-.2.2q.4 2.2-1.8 2.5 1.8-1.3 1-3.3zm-1.5-.9q.3-.1.6.2-.5 1-1.3.3l.1-.1q.3-.5.8-.5z"/><path fill="url(#m)" d="m.8-1.3.3.3q.8 2-1 3.3Q2.4 1.9 2-.4v-1.4q-.6-.3-1.2 0l-.2.1q0 .3.2.4m-4 2-.1-.7q0-1.3 1-2.3t2.3-1 2.4 1 1 2.3-1 2.4l-.1.1v-.3L2.2 2h-.1v.1l-.1.1v.2l-.4.1-.1.1-.1.1-2.9-.7-.1-.5-.3-.2h-.5Q-2.5.7-3 .5zm2.5-3 .2-.1q-.5.1-.8.5v.2Q-.7-1-.2-2q-.2-.4-.6-.2m-1.3.9-.5.8v.1l1 .2q.1-.5-.3-.9H-2z" transform="translate(3.3 3.35)"/><path fill="#111a15" d="M5.6 5.9h-.2l-.2.3-.4.1-1 .4h-.5Q2 6.7 1 5.7L.3 5 0 4.1l.3-.2q.5.1.6.8h.4l.4.1.1.5 2.9.8.1-.1.1-.2h.4v-.3h.1v-.1h.1v.5"/><path fill="#1a2a22" d="M1.3 2.2h.2q.4.4.3 1L.7 3z"/></g><g id="P"><path fill="url(#n)" d="M3.3 11.4.8 13.3l-4-1.4-.8-2.7 2.6-.6 3.3.8z" transform="translate(4 -1.55)"/><path fill="url(#o)" d="m4.7 1.6 3.3.8 1.3 2-2.5 1.8L3 5l-.8-2.7z" transform="translate(4 -1.55)"/></g><g id="O"><path fill="#040000" d="m0 1 2-1 1.6 1-1.8.9z"/><path fill="#3e382e" d="m0 1 1.8.9V12L0 10.8z"/><path fill="#251f1f" d="M1.8 1.9 3.6 1v10.2l-1.8.8z"/><path fill="none" stroke="#040000" stroke-linecap="round" stroke-linejoin="round" stroke-width="__RESOLUTION__" d="M3.6 1 1.9 0 0 1" vector-effect="non-scaling-stroke"/></g><g id="N"><path fill="#4d4233" d="M4.1 2 4 1.7v-.1q.7-.4 1.3 0l.1 1.3-.2.2q.4 2.2-1.8 2.5 1.8-1.3 1-3.3zm-1.5-.9q.3-.1.6.2-.5 1-1.3.3l.1-.1q.3-.5.8-.5z"/><path fill="url(#p)" d="m.8-1.3.3.3q.8 2-1 3.3Q2.4 1.9 2-.4v-1.4q-.6-.3-1.2 0l-.2.1q0 .3.2.4m-4 2-.1-.7q0-1.3 1-2.3t2.3-1 2.4 1 1 2.3-1 2.4l-.1.1v-.3L2.2 2h-.1v.1l-.1.1v.2l-.4.1-.1.1-.1.1-2.9-.7-.1-.5-.3-.2h-.5Q-2.5.7-3 .5zm2.5-3 .2-.1q-.5.1-.8.5v.2Q-.7-1-.2-2q-.2-.4-.6-.2m-1.3.9-.5.8v.1l1 .2q.1-.5-.3-.9H-2z" transform="translate(3.3 3.35)"/><path fill="#0d120e" d="M5.6 5.9h-.2l-.2.3-.4.1-1 .4h-.5Q2 6.7 1 5.7L.3 5 0 4.1l.3-.2q.5.1.6.8h.4l.4.1.1.5 2.9.8.1-.1.1-.2h.4v-.3h.1v-.1h.1v.5"/><path fill="#121d16" d="M1.3 2.2h.2q.4.4.3 1L.7 3z"/></g><g id="M"><path fill="url(#q)" d="M3.3 11.4.8 13.3l-4-1.4-.8-2.7 2.6-.6 3.3.8z" transform="translate(4 -1.55)"/><path fill="url(#r)" d="m4.7 1.6 3.3.8 1.3 2-2.5 1.8L3 5l-.8-2.7z" transform="translate(4 -1.55)"/></g><g id="L"><path fill="#040000" d="m0 1 2-1 1.6 1-1.8.9z"/><path fill="#1b1612" d="m0 1 1.8.9V12L0 10.8z"/><path fill="#110c0c" d="M1.8 1.9 3.6 1v10.2l-1.8.8z"/><path fill="none" stroke="#040000" stroke-linecap="round" stroke-linejoin="round" stroke-width="__RESOLUTION__" d="M3.6 1 1.9 0 0 1" vector-effect="non-scaling-stroke"/></g><g id="K"><path fill="#201913" d="M4.1 2 4 1.7v-.1q.7-.4 1.3 0l.1 1.3-.2.2q.4 2.2-1.8 2.5 1.8-1.3 1-3.3zm-1.5-.9q.3-.1.6.2-.5 1-1.3.3l.1-.1q.3-.5.8-.5z"/><path fill="url(#s)" d="m.8-1.3.3.3q.8 2-1 3.3Q2.4 1.9 2-.4v-1.4q-.6-.3-1.2 0l-.2.1q0 .3.2.4m-4 2-.1-.7q0-1.3 1-2.3t2.3-1 2.4 1 1 2.3-1 2.4l-.1.1v-.3L2.2 2h-.1v.1l-.1.1v.2l-.4.1-.1.1-.1.1-2.9-.7-.1-.5-.3-.2h-.5Q-2.5.7-3 .5zm2.5-3 .2-.1q-.5.1-.8.5v.2Q-.7-1-.2-2q-.2-.4-.6-.2m-1.3.9-.5.8v.1l1 .2q.1-.5-.3-.9H-2z" transform="translate(3.3 3.35)"/><path fill="#070705" d="M5.6 5.9h-.2l-.2.3-.4.1-1 .4h-.5Q2 6.7 1 5.7L.3 5 0 4.1l.3-.2q.5.1.6.8h.4l.4.1.1.5 2.9.8.1-.1.1-.2h.4v-.3h.1v-.1h.1v.5"/><path fill="#090b08" d="M1.3 2.2h.2q.4.4.3 1L.7 3z"/></g><g id="J"><path fill="url(#t)" d="M3.3 11.4.8 13.3l-4-1.4-.8-2.7 2.6-.6 3.3.8z" transform="translate(4 -1.55)"/><path fill="url(#u)" d="m4.7 1.6 3.3.8 1.3 2-2.5 1.8L3 5l-.8-2.7z" transform="translate(4 -1.55)"/></g><g id="I"><path fill="url(#v)" d="m95-68.6.2 9.6-117.9 160.2-.4.4.3-.3.1-.1-.2-6.5 118-163.4z" transform="translate(26.65 74.75)"/><path fill="#040000" d="M3.8 176 0 174.2v-6.5l3.8 1.8.1 6.4z"/><path fill="url(#w)" d="M-26.6 92.9 92-71.5l1.8 1.5 1.1.7h.2v.7-.1L-23 94.7z" transform="translate(26.65 74.75)"/><path fill="none" stroke="#040000" stroke-linecap="round" stroke-linejoin="round" stroke-opacity="0" stroke-width="__RESOLUTION__" d="M121.8 15.8 133.3 0m-11.5 15.8L4 175.9l-.4.4" vector-effect="non-scaling-stroke"/></g><g id="H"><path fill="#0a0707" d="M.7 8.9v-.2l-.1-.4L8.9 4q1.5 0 2.4-1h.2l.1-.4L16.8 0l1.5.1 3.2 1.7-.1.2-.1.3q1 .6 2.2.5l1.6.8-16.3 8.7-1.2-.2-2.9-1.3.3-.3.5-.2.2-.4q-.5-.3 0-.5Q6.5 9 7 8.3q-1.3 0-2.4.8-.7.7-.5.8l-.2-.1-.1.2v.3z"/><path fill="#0b0807" d="m25.1 3.6.2.1v.1l-3.4 1.8L19.3 7l-.3.5-1.1 1-1.2-.1-5.8 3.1-.6.3-1.7 1-.6 2.7-.6-3.1h.1l-3-1.6h-.2l-.5-.3L.6 9h.1l3 1.4 1 .4 3 1.4 1 .2z"/><path fill="#090304" d="M25.3 3.9v.4l.1.1v5.9l-.6.7-4.8 2.4h-.5l-.6.6-2.3 1.2h-.2l-.3-.2-.1.1-.2.3h-.6l-1.3.8-.8.6-.7.5-3.8 2h-.4l-.1.1v-3.8l.5-2.8 1.8-1 .3-.1.2-.2 5.8-3.1 1.2.1 1.1-1 .3-.5 2.6-1.4z"/><path fill="#090404" d="M8.1 19.4h-.2L.8 16q-.2-1-.8-1.5V9.6l.6-.7 3.2 1.6.5.3h.1l3 1.6h.1l.5 3.1zm-2.2-4.3q.3-.3 0-1.5-.9-.8-1.9-1.2l-.2.5q-.2-.2-1-.2-.9.2-1.2 1 1.2 2 4 1.2z"/><path fill="#0a0606" d="m3.8 10.3-.1-.1v-.4l.3.1q-.2-.2.5-.8 1.1-.8 2.4-.8-.4.7-1.2 1.1-.5.2 0 .5l-.2.4-.5.2-.3.3z"/><path fill="#090405" d="m10.9 11.5-.2.2-.3.1zM6 15.2l-.4-.2q-2.7.7-3.9-1.2.3-.8 1.2-1 .8 0 1 .3l.2-.7q1 .5 1.9 1.3.3 1.2 0 1.5"/><path fill="none" stroke="#090304" stroke-linecap="round" stroke-linejoin="round" stroke-width="__RESOLUTION__" d="M0 14.6v-5" vector-effect="non-scaling-stroke"/></g><g id="G"><path fill="#526158" d="M.7 8.9v-.2l-.1-.4L8.9 4q1.5 0 2.4-1h.2l.1-.4L16.8 0l1.5.1 3.2 1.7-.1.2-.1.3q1 .6 2.2.5l1.6.8-16.3 8.7-1.2-.2-2.9-1.3.3-.3.5-.2.2-.4q-.5-.3 0-.5Q6.5 9 7 8.3q-1.3 0-2.4.8-.7.7-.5.8l-.2-.1-.1.2v.3z"/><path fill="#57665c" d="m25.1 3.6.2.1v.1l-3.4 1.8L19.3 7l-.3.5-1.1 1-1.2-.1-5.8 3.1-.6.3-1.7 1-.6 2.7-.6-3.1h.1l-3-1.6h-.2l-.5-.3L.6 9h.1l3 1.4 1 .4 3 1.4 1 .2z"/><path fill="#3f2c2f" d="M25.3 3.9v.4l.1.1v5.9l-.6.7-4.8 2.4h-.5l-.6.6-2.3 1.2h-.2l-.3-.2-.1.1-.2.3h-.6l-1.3.8-.8.6-.7.5-3.8 2h-.4l-.1.1v-3.8l.5-2.8 1.8-1 .3-.1.2-.2 5.8-3.1 1.2.1 1.1-1 .3-.5 2.6-1.4z"/><path fill="#443939" d="M8.1 19.4h-.2L.8 16q-.2-1-.8-1.5V9.6l.6-.7 3.2 1.6.5.3h.1l3 1.6h.1l.5 3.1zm-2.2-4.3q.3-.3 0-1.5-.9-.8-1.9-1.2l-.2.5q-.2-.2-1-.2-.9.2-1.2 1 1.2 2 4 1.2z"/><path fill="#4c4f4a" d="m3.8 10.3-.1-.1v-.4l.3.1q-.2-.2.5-.8 1.1-.8 2.4-.8-.4.7-1.2 1.1-.5.2 0 .5l-.2.4-.5.2-.3.3z"/><path fill="#46403e" d="m10.9 11.5-.2.2-.3.1z"/><path fill="#453c3b" d="m6 15.1-.5-.2q-2.7.7-3.9-1.2.3-.8 1.2-1 .8 0 1 .3l.2-.7q1 .5 1.9 1.3.3 1.2 0 1.5"/><path fill="none" stroke="#3f2c2f" stroke-linecap="round" stroke-linejoin="round" stroke-width="__RESOLUTION__" d="M0 14.6v-5" vector-effect="non-scaling-stroke"/></g><g id="E"><path fill="#414d47" d="M.7 8.9v-.2l-.1-.4L8.9 4q1.5 0 2.4-1h.2l.1-.4L16.8 0l1.5.1 3.2 1.7-.1.2-.1.3q1 .6 2.2.5l1.6.8-16.3 8.7-1.2-.2-2.9-1.3.3-.3.5-.2.2-.4q-.5-.3 0-.5Q6.5 9 7 8.3q-1.3 0-2.4.8-.7.7-.5.8l-.2-.1-.1.2v.3z"/><path fill="#45514b" d="m25.1 3.6.2.1v.1l-3.4 1.8L19.3 7l-.3.5-1.1 1-1.2-.1-5.8 3.1-.6.3-1.7 1-.6 2.7-.6-3.1h.1l-3-1.6h-.2l-.5-.3L.6 9h.1l3 1.4 1 .4 3 1.4 1 .2z"/><path fill="#312024" d="M25.3 3.9v.4l.1.1v5.9l-.6.7-4.8 2.4h-.5l-.6.6-2.3 1.2h-.2l-.3-.2-.1.1-.2.3h-.6l-1.3.8-.8.6-.7.5-3.8 2h-.4l-.1.1v-3.8l.5-2.8 1.8-1 .3-.1.2-.2 5.8-3.1 1.2.1 1.1-1 .3-.5 2.6-1.4z"/><path fill="#352b2d" d="M8.1 19.4h-.2L.8 16q-.2-1-.8-1.5V9.6l.6-.7 3.2 1.6.5.3h.1l3 1.6h.1l.5 3.1zm-2.2-4.3q.3-.3 0-1.5-.9-.8-1.9-1.2l-.2.5q-.2-.2-1-.2-.9.2-1.2 1 1.2 2 4 1.2z"/><path fill="#3c3e3b" d="m3.8 10.3-.1-.1v-.4l.3.1q-.2-.2.5-.8 1.1-.8 2.4-.8-.4.7-1.2 1.1-.5.2 0 .5l-.2.4-.5.2-.3.3z"/><path fill="#373131" d="m10.9 11.5-.2.2-.3.1z"/><path fill="#362d2e" d="m6 15.1-.5-.2q-2.7.7-3.9-1.2.3-.8 1.2-1 .8 0 1 .3l.2-.7q1 .5 1.9 1.3.3 1.2 0 1.5"/><path fill="none" stroke="#312024" stroke-linecap="round" stroke-linejoin="round" stroke-width="__RESOLUTION__" d="M0 14.6v-5" vector-effect="non-scaling-stroke"/></g><g id="D"><path fill="#313a35" d="M.7 8.9v-.2l-.1-.4L8.9 4q1.5 0 2.4-1h.2l.1-.4L16.8 0l1.5.1 3.2 1.7-.1.2-.1.3q1 .6 2.2.5l1.6.8-16.3 8.7-1.2-.2-2.9-1.3.3-.3.5-.2.2-.4q-.5-.3 0-.5Q6.5 9 7 8.3q-1.3 0-2.4.8-.7.7-.5.8l-.2-.1-.1.2v.3z"/><path fill="#343d38" d="m25.1 3.6.2.1v.1l-3.4 1.8L19.3 7l-.3.5-1.1 1-1.2-.1-5.8 3.1-.6.3-1.7 1-.6 2.7-.6-3.1h.1l-3-1.6h-.2l-.5-.3L.6 9h.1l3 1.4 1 .4 3 1.4 1 .2z"/><path fill="#25181b" d="M25.3 3.9v.4l.1.1v5.9l-.6.7-4.8 2.4h-.5l-.6.6-2.3 1.2h-.2l-.3-.2-.1.1-.2.3h-.6l-1.3.8-.8.6-.7.5-3.8 2h-.4l-.1.1v-3.8l.5-2.8 1.8-1 .3-.1.2-.2 5.8-3.1 1.2.1 1.1-1 .3-.5 2.6-1.4z"/><path fill="#282021" d="M8.1 19.4h-.2L.8 16q-.2-1-.8-1.5V9.6l.6-.7 3.2 1.6.5.3h.1l3 1.6h.1l.5 3.1zm-2.2-4.3q.3-.3 0-1.5-.9-.8-1.9-1.2l-.2.5q-.2-.2-1-.2-.9.2-1.2 1 1.2 2 4 1.2z"/><path fill="#2d2f2c" d="m3.8 10.3-.1-.1v-.4l.3.1q-.2-.2.5-.8 1.1-.8 2.4-.8-.4.7-1.2 1.1-.5.2 0 .5l-.2.4-.5.2-.3.3z"/><path fill="#292525" d="m10.9 11.5-.2.2-.3.1z"/><path fill="#282223" d="m6 15.1-.5-.2q-2.7.7-3.9-1.2.3-.8 1.2-1 .8 0 1 .3l.2-.7q1 .5 1.9 1.3.3 1.2 0 1.5"/><path fill="none" stroke="#25181b" stroke-linecap="round" stroke-linejoin="round" stroke-width="__RESOLUTION__" d="M0 14.6v-5" vector-effect="non-scaling-stroke"/></g><g id="C"><path fill="#252924" d="M.7 8.9v-.2l-.1-.4L8.9 4q1.5 0 2.4-1h.2l.1-.4L16.8 0l1.5.1 3.2 1.7-.1.2-.1.3q1 .6 2.2.5l1.6.8-16.3 8.7-1.2-.2-2.9-1.3.3-.3.5-.2.2-.4q-.5-.3 0-.5Q6.5 9 7 8.3q-1.3 0-2.4.8-.7.7-.5.8l-.2-.1-.1.2v.3z"/><path fill="#272b26" d="m25.1 3.6.2.1v.1l-3.4 1.8L19.3 7l-.3.5-1.1 1-1.2-.1-5.8 3.1-.6.3-1.7 1-.6 2.7-.6-3.1h.1l-3-1.6h-.2l-.5-.3L.6 9h.1l3 1.4 1 .4 3 1.4 1 .2z"/><path fill="#1c1112" d="M25.3 3.9v.4l.1.1v5.9l-.6.7-4.8 2.4h-.5l-.6.6-2.3 1.2h-.2l-.3-.2-.1.1-.2.3h-.6l-1.3.8-.8.6-.7.5-3.8 2h-.4l-.1.1v-3.8l.5-2.8 1.8-1 .3-.1.2-.2 5.8-3.1 1.2.1 1.1-1 .3-.5 2.6-1.4z"/><path fill="#1e1716" d="M8.1 19.4h-.2L.8 16q-.2-1-.8-1.5V9.6l.6-.7 3.2 1.6.5.3h.1l3 1.6h.1l.5 3.1zm-2.2-4.3q.3-.3 0-1.5-.9-.8-1.9-1.2l-.2.5q-.2-.2-1-.2-.9.2-1.2 1 1.2 2 4 1.2z"/><path fill="#22211e" d="m3.8 10.3-.1-.1v-.4l.3.1q-.2-.2.5-.8 1.1-.8 2.4-.8-.4.7-1.2 1.1-.5.2 0 .5l-.2.4-.5.2-.3.3z"/><path fill="#1f1a19" d="m10.9 11.5-.2.2-.3.1z"/><path fill="#1e1817" d="m6 15.1-.5-.2q-2.7.7-3.9-1.2.3-.8 1.2-1 .8 0 1 .3l.2-.7q1 .5 1.9 1.3.3 1.2 0 1.5"/><path fill="none" stroke="#1c1112" stroke-linecap="round" stroke-linejoin="round" stroke-width="__RESOLUTION__" d="M0 14.6v-5" vector-effect="non-scaling-stroke"/></g><g id="B"><path fill="#181a17" d="M.7 8.9v-.2l-.1-.4L8.9 4q1.5 0 2.4-1h.2l.1-.4L16.8 0l1.5.1 3.2 1.7-.1.2-.1.3q1 .6 2.2.5l1.6.8-16.3 8.7-1.2-.2-2.9-1.3.3-.3.5-.2.2-.4q-.5-.3 0-.5Q6.5 9 7 8.3q-1.3 0-2.4.8-.7.7-.5.8l-.2-.1-.1.2v.3z"/><path fill="#1a1c18" d="m25.1 3.6.2.1v.1l-3.4 1.8L19.3 7l-.3.5-1.1 1-1.2-.1-5.8 3.1-.6.3-1.7 1-.6 2.7-.6-3.1h.1l-3-1.6h-.2l-.5-.3L.6 9h.1l3 1.4 1 .4 3 1.4 1 .2z"/><path fill="#130b0c" d="M25.3 3.9v.4l.1.1v5.9l-.6.7-4.8 2.4h-.5l-.6.6-2.3 1.2h-.2l-.3-.2-.1.1-.2.3h-.6l-1.3.8-.8.6-.7.5-3.8 2h-.4l-.1.1v-3.8l.5-2.8 1.8-1 .3-.1.2-.2 5.8-3.1 1.2.1 1.1-1 .3-.5 2.6-1.4z"/><path fill="#140f0e" d="M8.1 19.4h-.2L.8 16q-.2-1-.8-1.5V9.6l.6-.7 3.2 1.6.5.3h.1l3 1.6h.1l.5 3.1zm-2.2-4.3q.3-.3 0-1.5-.9-.8-1.9-1.2l-.2.5q-.2-.2-1-.2-.9.2-1.2 1 1.2 2 4 1.2z"/><path fill="#161513" d="m3.8 10.3-.1-.1v-.4l.3.1q-.2-.2.5-.8 1.1-.8 2.4-.8-.4.7-1.2 1.1-.5.2 0 .5l-.2.4-.5.2-.3.3z"/><path fill="#151110" d="m10.9 11.5-.2.2-.3.1z"/><path fill="#140f0f" d="m6 15.1-.5-.2q-2.7.7-3.9-1.2.3-.8 1.2-1 .8 0 1 .3l.2-.7q1 .5 1.9 1.3.3 1.2 0 1.5"/><path fill="none" stroke="#130b0c" stroke-linecap="round" stroke-linejoin="round" stroke-width="__RESOLUTION__" d="M0 14.6v-5" vector-effect="non-scaling-stroke"/></g><g id="A"><path fill="#100e0c" d="M.7 8.9v-.2l-.1-.4L8.9 4q1.5 0 2.4-1h.2l.1-.4L16.8 0l1.5.1 3.2 1.7-.1.2-.1.3q1 .6 2.2.5l1.6.8-16.3 8.7-1.2-.2-2.9-1.3.3-.3.5-.2.2-.4q-.5-.3 0-.5Q6.5 9 7 8.3q-1.3 0-2.4.8-.7.7-.5.8l-.2-.1-.1.2v.3z"/><path fill="#110f0d" d="m25.1 3.6.2.1v.1l-3.4 1.8L19.3 7l-.3.5-1.1 1-1.2-.1-5.8 3.1-.6.3-1.7 1-.6 2.7-.6-3.1h.1l-3-1.6h-.2l-.5-.3L.6 9h.1l3 1.4 1 .4 3 1.4 1 .2z"/><path fill="#0d0606" d="M25.3 3.9v.4l.1.1v5.9l-.6.7-4.8 2.4h-.5l-.6.6-2.3 1.2h-.2l-.3-.2-.1.1-.2.3h-.6l-1.3.8-.8.6-.7.5-3.8 2h-.4l-.1.1v-3.8l.5-2.8 1.8-1 .3-.1.2-.2 5.8-3.1 1.2.1 1.1-1 .3-.5 2.6-1.4z"/><path fill="#0d0807" d="M8.1 19.4h-.2L.8 16q-.2-1-.8-1.5V9.6l.6-.7 3.2 1.6.5.3h.1l3 1.6h.1l.5 3.1zm-2.2-4.3q.3-.3 0-1.5-.9-.8-1.9-1.2l-.2.5q-.2-.2-1-.2-.9.2-1.2 1 1.2 2 4 1.2z"/><path fill="#0f0b0a" d="m3.8 10.3-.1-.1v-.4l.3.1q-.2-.2.5-.8 1.1-.8 2.4-.8-.4.7-1.2 1.1-.5.2 0 .5l-.2.4-.5.2-.3.3z"/><path fill="#0e0908" d="m10.9 11.5-.2.2-.3.1z"/><path fill="#0e0808" d="m6 15.1-.5-.2q-2.7.7-3.9-1.2.3-.8 1.2-1 .8 0 1 .3l.2-.7q1 .5 1.9 1.3.3 1.2 0 1.5"/><path fill="none" stroke="#0d0606" stroke-linecap="round" stroke-linejoin="round" stroke-width="__RESOLUTION__" d="M0 14.6v-5" vector-effect="non-scaling-stroke"/></g><g id="y" fill="#040000"><path d="M149.5 23.3q-1 3-3.4 4.4l-.7.5 3.3 1.1q2.6.8 3.8 3.4l.1.3q1 2.6.2 5.3-1 3-3.4 4.5-2.5 1.6-5 .9-1-.4-4.7-2.5l1.2 2 .1.2q1 2.5.2 5.4-1 3-3.4 4.5-2.5 1.5-5 .8-1.2-.4-5.4-2.9v.1l.3 1.1.9.3.3.1q1.5.5 2.5 1.5l.1.1 1.2 1.9v.2l.2.3q.8 2.4 0 5-.9 3-3.4 4.5l-.9.5q-2 1-4.1.4-1.2-.5-6.5-3.5l-.2 1q-1 3-3.4 4.5-.5.4-1 .5-2 1-4 .4-1.9-.7-12-6.8l-10-6.1Q67.8 45 69.1 42.2q-.9-1.2-.5-1.9 1.1-2.6 19.5 4.2-3-2.4-3.8-3.9l-.5-.4q-5.7-4.5-5-6h.1q1.5-2.7 21.6 5l3 1.1q-4.2-2.5-8.8-6.5-4.8-4-8.6-9.2-3.9-5.4 6.7-1.7l15.2 5.4 2.6 1 3 1.1.7.4 2.6.9 3 1 .3.1q1.5.5 2.5 1.6l.1.1 2 .7-14.2-8.5-4.2-2.5Q87.1 12 88.3 9.2q1.3-2.8 21.7 5l1.2.4 3.5 1.3v5.2l35.1-.2zM100.9.8q1-2.2 13.9 2V13Q99.7 3.2 100.8.8m-3.9 63q1.5.5 2.5 1.5l.1.1.8 1.1 1.5.6 3.1 1 .3.2q1.3.4 2.3 1.4l2.5.9 3 1 .3.1q1.5.5 2.5 1.5l.1.1 1.2 1.9.1.2.3 1 .9.3.3.1q1.5.5 2.5 1.6l.1.1 1.1 1.8.1.3.2.3q.8 2.3 0 5-.9 3-3.4 4.5l-.9.5-.7.3-.4 2.1q-.9 3-3.3 4.5l-1 .5q-2 .9-4 .3-1.7-.5-9.8-5.4l.5 1v.2l.4 1 .8.3.3.1q1.5.5 2.5 1.6l.1.1 1.2 1.8.1.3.2.3q.7 2.3 0 5-1 3-3.4 4.5l-1 .5q-2 .9-4 .3-1-.3-4.2-2.2.1 1.8-.4 3.5-.9 3-3.4 4.5l-.9.5q-2 .9-4.1.3-1.8-.6-12-6.7l-5.9-3.6-4.1-2.6q-8.7-5.4-13.2-9-4-3-4.9-4.7l-.5-.4q-5.7-4.4-5-6h.1q1-1.9 11 1.3l-3.8-2.8q-3.9-3.1-4.8-4.7l9.9 2.3q10 2.5-.6-2.4t-12-7q-1.2-2 18.8 5.6l10.8 4 3.7 1.4.5.2-.5-.3-4-2.6Q58.6 73.4 54 70q-3.9-3-4.8-4.7l5.2 1.8q5.4 2 2.4-.4-3.2-2.4-1-1t3.3-4.2l4.6 1-1.2-1q-3.9-3-4.8-4.6l3 1.5q3.2 1.8 2.6.3-.7-1.4-5.1-6.2-4.4-4.7 15.6 2.9l10.8 4 3.7 1.4 1.8.7.8.3 2.5 1 3.1 1zm-40.5 43.7 3.8 1.4 1.7.7.9.3 2.5 1 3 1 .4.1q1.5.5 2.5 1.5v.2l1.2 1.8.1.2.3 1 .9.3.3.2q1.5.4 2.5 1.5l.1.1 1.2 1.8v.3l.2.3q.8 2.3 0 5l-.7 1.6.9 1.4v.2l.2.3q.8 2.4 0 5-.9 3-3.3 4.6l-1 .4q-2 1-4.1.4-1.8-.7-12-6.8l-5.9-3.6-4.1-2.5q-8.7-5.5-13.2-9-4-3-4.9-4.7l-.5-.5q-5.7-4.3-5-5.9h.1q.5-.9 2.9-.7-1-1.3-.6-2 .3-.6 1.2-.7-4.6-3.7-4-5.2h.1q1.5-2.7 21.6 5zm-42.2 18.8q-8.3-7.2 18.5 2.4t12.6 2-15.9-10.5v-.1q1.2.9 3.6 1.8l3.8 1.3 1.8.8.8.3 2.5.9 3 1 .4.1q1.5.5 2.5 1.6v.1l1.2 1.8.1.3.3 1 .9.3.3.1q1.5.4 2.5 1.6h.1l1.1 1.8.1.3.2.3.3 1.5h.1l3 1.1.4.1q1.5.5 2.5 1.6l.5.6.7 1.3.1.2q1 2.5.1 5.3l-.9 2.2-.5.8.8 1.4.1.3.1.3q.9 2.4 0 5-.8 3-3.3 4.5l-1 .5q-2 .9-4 .3-1.8-.6-12-6.7l-6-3.7-4-2.5q-8.7-5.4-13.3-9-3.9-3-4.8-4.7l-.5-.4q-5.7-4.4-5-6 1-1.8 10.6 1.2-3.5-2.7-4.5-4.3L11 124zm116.3-89 .8.3 2.6 1 3 1-4.5-2.7q-.9.4-1.9.4"/><path d="m132.7 20.9.3.1q1.4.4 2.4 1.6h.1q.8.7 1.2 1.8l.1.3.3 1 .9.4h.3q1.5.5 2.5 1.6l.1.1 1.1 1.8.2.2.1.4q.8 2.4 0 5l-.7 1.6.8 1.4.1.2.2.3q.8 2.4 0 5-.9 3-3.3 4.5l-1 .5q-2 1-4.1.4l-.6-.3-.2 1-.7 1.6.8 1.4.1.2.2.3q.8 2.4 0 5-1 3-3.4 4.5l-1 .5q-2 1-4 .4-1.8-.6-12-6.8l-6-3.6-4-2.5q-8.7-5.5-13.3-9-3.9-3-4.8-4.7l-.6-.4q-5.6-4.5-4.9-6 .5-.9 3-.7-1-1.3-.7-2t1.2-.7q-4.6-3.7-3.9-5.1V22Q81 19.7 97 25.6q-2.2-1.9-2.7-3.1l-.6-.4q-5.7-4.4-5-6h.1q.5-.9 2.9-.7-1-1.3-.6-2 .3-.6 1.2-.7-4.6-3.8-4-5.1l.1-.1q1.5-2.7 21.6 5l10.7 4 3.7 1.4 1.8.7.8.3 2.6 1zM99.3 59l1.8.7.8.3 2.5 1 3.1 1 .3.1q1.5.5 2.5 1.6h.1l1.1 1.9.1.2.4 1 .8.4h.3q1.5.5 2.5 1.6l.2.1 1.1 1.8.1.2.1.3q.8 2.5 0 5.1l-.6 1.6.8 1.3.1.3.1.3q.8 2.4 0 5-.9 3-3.3 4.5l-1 .5q-2 1-4 .4-1.8-.6-12-6.8l-6-3.6-4-2.5q-8.7-5.5-13.3-9-3.9-3-4.8-4.7l-.6-.4q-5.6-4.5-4.9-6 .5-.9 3-.7-1-1.3-.7-2t1.3-.7q-4.6-3.7-4-5.1v-.1q1.6-2.7 21.7 5l10.6 4zM74.4 89.7l1.8.7.8.3 2.6 1 3 1 .3.1q1.5.5 2.5 1.5l1.7.7.8.3 2.5 1 3.1 1 .3.1q1.5.4 2.5 1.5l.1.1 1.1 1.8.2.3.3 1 .8.4h.4q1.5.5 2.5 1.6v.1l1.2 1.8.1.3.2.3q.7 2.4 0 5l-.7 1.6.8 1.3.1.3.1.3q.8 2.4 0 5-.8 3-3.3 4.6l-1 .5q-2 .8-4 .3-1-.4-4.6-2.4v.2l.2.3q.8 2.4 0 5-1 3-3.4 4.5l-1 .5q-2 .9-4 .3-1.6-.5-8.7-4.7l-.3 1.6-.7 1.6.9 1.3v.3l.2.3q.8 2.4 0 5-.9 3-3.4 4.5l-.9.5q-2 1-4.1.3-1.8-.5-12-6.7l-5.9-3.6-4.1-2.6q-8.7-5.3-13.2-8.9-4-3-4.8-4.7l-.6-.4q-5.7-4.5-5-6h.1q.5-.9 2.9-.7-1-1.3-.7-2h.1q.3-.5 1.2-.7-4.6-3.7-4-5.1l.1-.1q1.5-2.6 21.6 5l2.5 1-1.3-1.7-.5-.5q-5.7-4.4-5-6 .5-.9 3-.7-1-1.2-.7-2 .3-.5 1.3-.6-4.6-3.8-4-5.2.7-1.2 5-.3-3.2-3-2.7-4.2.5-.9 3-.7-1-1.3-.7-2 .3-.5 1.3-.7-4.6-3.7-4-5.2 1.6-2.6 21.7 5l10.7 4zM.2 124.9q1.4-2.7 21.6 5l4.7 1.8 7.8 2.8 10.4 3.9h.1l.2.1.2.1 3.6 1.3 1.8.7.8.3 2.5 1 3 1 .4.1q1.5.4 2.5 1.6l1.2 1.8.1.3.3 1 .9.4h.3q1.5.5 2.5 1.6l.1.1 1.1 1.8.1.3.2.3q.8 2.4 0 5l-.7 1.6.8 1.3.1.3.2.3q.8 2.4 0 5-.9 3-3.4 4.6l-.9.4q-2 1-4.1.4-1.5-.5-8.7-4.8l-3.8.1q-1.8-.6-12-6.7l-6-3.6-4-2.5q-8.7-5.4-13.3-9-3.9-3-4.8-4.7l-.5-.5q-5.7-4.3-5-5.9.5-.9 3-.7-1-1.3-.7-2t1.3-.7q-4.6-3.7-4-5.1z"/></g><radialGradient id="a" cx="0" cy="0" r="819.2" gradientTransform="matrix(.01 0 0 .01 -1.75 1.8)" gradientUnits="userSpaceOnUse" spreadMethod="pad"><stop offset="0" stop-color="#09050c"/><stop offset=".7" stop-color="#1d1f1f"/><stop offset="1" stop-color="#252821"/></radialGradient><radialGradient id="c" cx="0" cy="0" r="819.2" gradientTransform="matrix(.01 0 0 .01 4.65 3.3)" gradientUnits="userSpaceOnUse" spreadMethod="pad"><stop offset="0" stop-color="#040000"/><stop offset=".8" stop-color="#130f0d" stop-opacity="0"/></radialGradient><radialGradient id="b" cx="0" cy="0" r="819.2" gradientTransform="matrix(.01 0 0 .01 -1.4 10.35)" gradientUnits="userSpaceOnUse" spreadMethod="pad"><stop offset="0" stop-color="#040000"/><stop offset=".8" stop-color="#130f0d" stop-opacity="0"/></radialGradient><radialGradient id="e" cx="0" cy="0" r="819.2" gradientTransform="matrix(.25 0 0 .25 -24 63.4)" gradientUnits="userSpaceOnUse" spreadMethod="pad"><stop offset="0" stop-color="#4e4845"/><stop offset="1" stop-color="#040000"/></radialGradient><radialGradient id="d" cx="0" cy="0" r="819.2" gradientTransform="matrix(.25 0 0 .25 -22.35 69.55)" gradientUnits="userSpaceOnUse" spreadMethod="pad"><stop offset="0" stop-color="#3c3733"/><stop offset="1" stop-color="#040000"/></radialGradient><radialGradient id="g" cx="0" cy="0" r="819.2" gradientTransform="matrix(.01 0 0 .01 -1.4 10.35)" gradientUnits="userSpaceOnUse" spreadMethod="pad"><stop offset="0" stop-color="#040000"/><stop offset=".8" stop-color="#34302d" stop-opacity="0"/></radialGradient><radialGradient id="f" cx="0" cy="0" r="819.2" gradientTransform="matrix(.01 0 0 .01 -1.75 1.8)" gradientUnits="userSpaceOnUse" spreadMethod="pad"><stop offset="0" stop-color="#161027"/><stop offset=".7" stop-color="#576569"/><stop offset="1" stop-color="#73846d"/></radialGradient><radialGradient id="i" cx="0" cy="0" r="819.2" gradientTransform="matrix(.01 0 0 .01 4.65 3.3)" gradientUnits="userSpaceOnUse" spreadMethod="pad"><stop offset="0" stop-color="#040000"/><stop offset=".8" stop-color="#34302d" stop-opacity="0"/></radialGradient><radialGradient id="j" cx="0" cy="0" r="819.2" gradientTransform="matrix(.01 0 0 .01 -1.75 1.8)" gradientUnits="userSpaceOnUse" spreadMethod="pad"><stop offset="0" stop-color="#130d20"/><stop offset=".7" stop-color="#485255"/><stop offset="1" stop-color="#5e6b59"/></radialGradient><radialGradient id="l" cx="0" cy="0" r="819.2" gradientTransform="matrix(.01 0 0 .01 4.65 3.3)" gradientUnits="userSpaceOnUse" spreadMethod="pad"><stop offset="0" stop-color="#040000"/><stop offset=".8" stop-color="#2b2724" stop-opacity="0"/></radialGradient><radialGradient id="k" cx="0" cy="0" r="819.2" gradientTransform="matrix(.01 0 0 .01 -1.4 10.35)" gradientUnits="userSpaceOnUse" spreadMethod="pad"><stop offset="0" stop-color="#040000"/><stop offset=".8" stop-color="#2b2724" stop-opacity="0"/></radialGradient><radialGradient id="m" cx="0" cy="0" r="819.2" gradientTransform="matrix(.01 0 0 .01 -1.75 1.8)" gradientUnits="userSpaceOnUse" spreadMethod="pad"><stop offset="0" stop-color="#110b1b"/><stop offset=".7" stop-color="#3e4649"/><stop offset="1" stop-color="#515b4c"/></radialGradient><radialGradient id="o" cx="0" cy="0" r="819.2" gradientTransform="matrix(.01 0 0 .01 4.65 3.3)" gradientUnits="userSpaceOnUse" spreadMethod="pad"><stop offset="0" stop-color="#040000"/><stop offset=".8" stop-color="#26221f" stop-opacity="0"/></radialGradient><radialGradient id="n" cx="0" cy="0" r="819.2" gradientTransform="matrix(.01 0 0 .01 -1.4 10.35)" gradientUnits="userSpaceOnUse" spreadMethod="pad"><stop offset="0" stop-color="#040000"/><stop offset=".8" stop-color="#26221f" stop-opacity="0"/></radialGradient><radialGradient id="p" cx="0" cy="0" r="819.2" gradientTransform="matrix(.01 0 0 .01 -1.75 1.8)" gradientUnits="userSpaceOnUse" spreadMethod="pad"><stop offset="0" stop-color="#0c0712"/><stop offset=".7" stop-color="#2b2f30"/><stop offset="1" stop-color="#373e32"/></radialGradient><radialGradient id="r" cx="0" cy="0" r="819.2" gradientTransform="matrix(.01 0 0 .01 4.65 3.3)" gradientUnits="userSpaceOnUse" spreadMethod="pad"><stop offset="0" stop-color="#040000"/><stop offset=".8" stop-color="#1a1615" stop-opacity="0"/></radialGradient><radialGradient id="q" cx="0" cy="0" r="819.2" gradientTransform="matrix(.01 0 0 .01 -1.4 10.35)" gradientUnits="userSpaceOnUse" spreadMethod="pad"><stop offset="0" stop-color="#040000"/><stop offset=".8" stop-color="#1a1615" stop-opacity="0"/></radialGradient><radialGradient id="s" cx="0" cy="0" r="819.2" gradientTransform="matrix(.01 0 0 .01 -1.75 1.8)" gradientUnits="userSpaceOnUse" spreadMethod="pad"><stop offset="0" stop-color="#070307"/><stop offset=".7" stop-color="#131212"/><stop offset="1" stop-color="#181813"/></radialGradient><radialGradient id="u" cx="0" cy="0" r="819.2" gradientTransform="matrix(.01 0 0 .01 4.65 3.3)" gradientUnits="userSpaceOnUse" spreadMethod="pad"><stop offset="0" stop-color="#040000"/><stop offset=".8" stop-color="#0d0908" stop-opacity="0"/></radialGradient><radialGradient id="t" cx="0" cy="0" r="819.2" gradientTransform="matrix(.01 0 0 .01 -1.4 10.35)" gradientUnits="userSpaceOnUse" spreadMethod="pad"><stop offset="0" stop-color="#040000"/><stop offset=".8" stop-color="#0d0908" stop-opacity="0"/></radialGradient><radialGradient id="w" cx="0" cy="0" r="819.2" gradientTransform="matrix(.24 0 0 .24 -20.2 87.7)" gradientUnits="userSpaceOnUse" spreadMethod="pad"><stop offset="0" stop-color="#403d37"/><stop offset="1" stop-color="#040000"/></radialGradient><radialGradient id="v" cx="0" cy="0" r="819.2" gradientTransform="matrix(.25 0 0 .25 -15.85 107.4)" gradientUnits="userSpaceOnUse" spreadMethod="pad"><stop offset="0" stop-color="#302c28"/><stop offset="1" stop-color="#040000"/></radialGradient><path id="Y" fill="url(#g)" d="M3.3 11.4.8 13.3l-4-1.4-.8-2.7 2.6-.6 3.3.8z" transform="translate(4 -8.6)"/><path id="F" fill="none" stroke="#0b0605" stroke-linecap="round" stroke-linejoin="round" stroke-width="__RESOLUTION__" d="m-61.6-34.8.5-.2 4.3-1.9h-6.5m2.1 2 5.9 8.5 44.5 22.5m-44.5-22.5.3.6m6.1-11.1h-8l2.1-1m43.6 33.4 7.4-4.6L-49-37.4M-3.8-9.1l.5-.4" transform="translate(63.25 37.85)" vector-effect="non-scaling-stroke"/><path id="z" fill="none" stroke="#040000" stroke-linecap="round" stroke-linejoin="round" stroke-width="__RESOLUTION__" d="m-61.6-34.8.5-.2 4.3-1.9h-6.5m2.1 2 5.9 8.5 44.5 22.5m-44.5-22.5.3.6m6.1-11.1h-8l2.1-1m43.6 33.4 7.4-4.6L-49-37.4M-3.8-9.1l.5-.4" transform="translate(63.25 37.85)" vector-effect="non-scaling-stroke"/><clipPath id="x"><path d="M1 1h200v203H1z"/></clipPath></defs><g clip-path="url(#x)"><g transform="translate(13.25 160.8)"><use xlink:href="#y" width="153.2" height="171.3" transform="rotate(.287 30224.656 -2281.36)scale(1.058)"/><use xlink:href="#z" width="60" height="34" transform="rotate(.284 24933.301 15560.337)scale(1.0885)"/><use xlink:href="#A" width="25.4" height="19.4" transform="matrix(-1.0885 -.0054 -.0054 1.0885 87.55 -125.1)"/><use xlink:href="#A" width="25.4" height="19.4" transform="matrix(-1.0885 -.0054 -.0054 1.0885 107.3 -115.15)"/><use xlink:href="#A" width="25.4" height="19.4" transform="matrix(-1.0885 -.0054 -.0054 1.0885 127.1 -105.3)"/><use xlink:href="#A" width="25.4" height="19.4" transform="matrix(-1.0885 -.0054 -.0054 1.0885 146.9 -95.25)"/><use xlink:href="#A" width="25.4" height="19.4" transform="matrix(-1.0885 -.0054 -.0054 1.0885 95.15 -136.95)"/><use xlink:href="#A" width="25.4" height="19.4" transform="matrix(-1.0885 -.0054 -.0054 1.0885 114.9 -126.85)"/><use xlink:href="#A" width="25.4" height="19.4" transform="matrix(-1.0885 -.0054 -.0054 1.0885 135.3 -116.95)"/><use xlink:href="#A" width="25.4" height="19.4" transform="matrix(-1.0885 -.0054 -.0054 1.0885 154.75 -106.95)"/><use xlink:href="#z" width="60" height="34" transform="rotate(.284 20308.802 12175.243)scale(1.0885)"/><use xlink:href="#B" width="25.4" height="19.4" transform="matrix(-1.0885 -.0054 -.0054 1.0885 70.7 -102.2)"/><use xlink:href="#B" width="25.4" height="19.4" transform="matrix(-1.0885 -.0054 -.0054 1.0885 90.45 -92.25)"/><use xlink:href="#B" width="25.4" height="19.4" transform="matrix(-1.0885 -.0054 -.0054 1.0885 110.25 -82.4)"/><use xlink:href="#B" width="25.4" height="19.4" transform="matrix(-1.0885 -.0054 -.0054 1.0885 130.05 -72.35)"/><use xlink:href="#B" width="25.4" height="19.4" transform="matrix(-1.0885 -.0054 -.0054 1.0885 78.3 -114.05)"/><use xlink:href="#B" width="25.4" height="19.4" transform="matrix(-1.0885 -.0054 -.0054 1.0885 98.05 -103.95)"/><use xlink:href="#B" width="25.4" height="19.4" transform="matrix(-1.0885 -.0054 -.0054 1.0885 118.45 -94.05)"/><use xlink:href="#B" width="25.4" height="19.4" transform="matrix(-1.0885 -.0054 -.0054 1.0885 137.9 -84.05)"/><use xlink:href="#z" width="60" height="34" transform="rotate(.284 15684.202 8749.834)scale(1.0885)"/><use xlink:href="#C" width="25.4" height="19.4" transform="matrix(-1.0885 -.0054 -.0054 1.0885 53.65 -79.3)"/><use xlink:href="#C" width="25.4" height="19.4" transform="matrix(-1.0885 -.0054 -.0054 1.0885 73.4 -69.35)"/><use xlink:href="#C" width="25.4" height="19.4" transform="matrix(-1.0885 -.0054 -.0054 1.0885 93.2 -59.5)"/><use xlink:href="#C" width="25.4" height="19.4" transform="matrix(-1.0885 -.0054 -.0054 1.0885 113 -49.45)"/><use xlink:href="#C" width="25.4" height="19.4" transform="matrix(-1.0885 -.0054 -.0054 1.0885 61.25 -91.15)"/><use xlink:href="#C" width="25.4" height="19.4" transform="matrix(-1.0885 -.0054 -.0054 1.0885 81 -81.05)"/><use xlink:href="#C" width="25.4" height="19.4" transform="matrix(-1.0885 -.0054 -.0054 1.0885 101.4 -71.15)"/><use xlink:href="#C" width="25.4" height="19.4" transform="matrix(-1.0885 -.0054 -.0054 1.0885 120.85 -61.15)"/><use xlink:href="#z" width="60" height="34" transform="rotate(.284 11089.614 5233.64)scale(1.0885)"/><use xlink:href="#D" width="25.4" height="19.4" transform="matrix(-1.0885 -.0054 -.0054 1.0885 36.15 -56.55)"/><use xlink:href="#D" width="25.4" height="19.4" transform="matrix(-1.0885 -.0054 -.0054 1.0885 55.9 -46.6)"/><use xlink:href="#D" width="25.4" height="19.4" transform="matrix(-1.0885 -.0054 -.0054 1.0885 75.7 -36.75)"/><use xlink:href="#D" width="25.4" height="19.4" transform="matrix(-1.0885 -.0054 -.0054 1.0885 95.5 -26.7)"/><use xlink:href="#D" width="25.4" height="19.4" transform="matrix(-1.0885 -.0054 -.0054 1.0885 43.75 -68.4)"/><use xlink:href="#D" width="25.4" height="19.4" transform="matrix(-1.0885 -.0054 -.0054 1.0885 63.5 -58.3)"/><use xlink:href="#D" width="25.4" height="19.4" transform="matrix(-1.0885 -.0054 -.0054 1.0885 83.9 -48.4)"/><use xlink:href="#D" width="25.4" height="19.4" transform="matrix(-1.0885 -.0054 -.0054 1.0885 103.35 -38.4)"/><use xlink:href="#z" width="60" height="34" transform="rotate(.284 6394.587 1858.8)scale(1.0885)"/><use xlink:href="#E" width="25.4" height="19.4" transform="matrix(-1.0885 -.0054 -.0054 1.0885 19.35 -33.3)"/><use xlink:href="#E" width="25.4" height="19.4" transform="matrix(-1.0885 -.0054 -.0054 1.0885 39.1 -23.35)"/><use xlink:href="#E" width="25.4" height="19.4" transform="matrix(-1.0885 -.0054 -.0054 1.0885 58.9 -13.5)"/><use xlink:href="#E" width="25.4" height="19.4" transform="matrix(-1.0885 -.0054 -.0054 1.0885 78.7 -3.45)"/><use xlink:href="#E" width="25.4" height="19.4" transform="rotate(.284 9114.6 5409.88)scale(-1.0885 1.0885)"/><use xlink:href="#E" width="25.4" height="19.4" transform="matrix(-1.0885 -.0054 -.0054 1.0885 46.7 -35.05)"/><use xlink:href="#E" width="25.4" height="19.4" transform="matrix(-1.0885 -.0054 -.0054 1.0885 67.1 -25.15)"/><use xlink:href="#E" width="25.4" height="19.4" transform="matrix(-1.0885 -.0054 -.0054 1.0885 86.55 -15.15)"/><use xlink:href="#F" width="60" height="34" transform="matrix(1.0885 .0054 -.0054 1.0885 -8.45 -9)"/><use xlink:href="#G" width="25.4" height="19.4" transform="matrix(-1.0885 -.0054 -.0054 1.0885 1.6 -10.6)"/><use xlink:href="#G" width="25.4" height="19.4" transform="matrix(-1.0885 -.0054 -.0054 1.0885 21.35 -.65)"/><use xlink:href="#G" width="25.4" height="19.4" transform="matrix(-1.0885 -.0054 -.0054 1.0885 41.15 9.2)"/><use xlink:href="#G" width="25.4" height="19.4" transform="matrix(-1.0885 -.0054 -.0054 1.0885 60.95 19.25)"/><use xlink:href="#G" width="25.4" height="19.4" transform="matrix(-1.0885 -.0054 -.0054 1.0885 9.2 -22.45)"/><use xlink:href="#G" width="25.4" height="19.4" transform="rotate(-179.716 14.46 -6.21)scale(1.0885 -1.0885)"/><use xlink:href="#G" width="25.4" height="19.4" transform="matrix(-1.0885 -.0054 -.0054 1.0885 49.35 -2.45)"/><use xlink:href="#G" width="25.4" height="19.4" transform="matrix(-1.0885 -.0054 -.0054 1.0885 68.8 7.55)"/><use xlink:href="#z" width="60" height="34" transform="rotate(.284 29527.74 19016.057)scale(1.0885)"/><use xlink:href="#H" width="25.4" height="19.4" transform="matrix(-1.0885 -.0054 -.0054 1.0885 104.75 -147.85)"/><use xlink:href="#H" width="25.4" height="19.4" transform="matrix(-1.0885 -.0054 -.0054 1.0885 124.5 -137.9)"/><use xlink:href="#H" width="25.4" height="19.4" transform="matrix(-1.0885 -.0054 -.0054 1.0885 144.3 -128.05)"/><use xlink:href="#H" width="25.4" height="19.4" transform="matrix(-1.0885 -.0054 -.0054 1.0885 164.1 -118)"/><use xlink:href="#H" width="25.4" height="19.4" transform="matrix(-1.0885 -.0054 -.0054 1.0885 112.35 -159.7)"/><use xlink:href="#H" width="25.4" height="19.4" transform="matrix(-1.0885 -.0054 -.0054 1.0885 132.1 -149.6)"/><use xlink:href="#H" width="25.4" height="19.4" transform="matrix(-1.0885 -.0054 -.0054 1.0885 152.5 -139.7)"/><use xlink:href="#H" width="25.4" height="19.4" transform="matrix(-1.0885 -.0054 -.0054 1.0885 171.95 -129.7)"/><use xlink:href="#I" width="133.3" height="176.3" transform="translate(53.65 -133.5)"/><use xlink:href="#J" width="13.3" height="11.8" transform="rotate(-.972 -7373.44 -9541.15)scale(1.1727)"/><use xlink:href="#K" width="6.7" height="6.7" transform="rotate(89.025 143.782 23.97)scale(.8988)"/><use xlink:href="#L" width="3.6" height="12" transform="rotate(-.972 -7624.242 -9499.082)scale(1.1727)"/><use xlink:href="#K" width="6.7" height="6.7" transform="rotate(89.025 150.572 17.244)scale(.8988)"/><use xlink:href="#K" width="6.7" height="6.7" transform="rotate(89.025 151.228 23.15)scale(.8988)"/><use xlink:href="#L" width="3.6" height="12" transform="rotate(-.972 -8107.139 -9883.266)scale(1.1727)"/><use xlink:href="#K" width="6.7" height="6.7" transform="rotate(89.025 157.993 16.399)scale(.8988)"/><use xlink:href="#M" width="13.3" height="11.8" transform="rotate(-.972 -5264.933 -8020.592)scale(1.1727)"/><use xlink:href="#N" width="6.7" height="6.7" transform="rotate(89.025 112.723 29)scale(.8988)"/><use xlink:href="#O" width="3.6" height="12" transform="rotate(-.972 -5515.734 -7978.524)scale(1.1727)"/><use xlink:href="#N" width="6.7" height="6.7" transform="rotate(89.025 119.513 22.275)scale(.8988)"/><use xlink:href="#N" width="6.7" height="6.7" transform="rotate(89.025 120.169 28.18)scale(.8988)"/><use xlink:href="#O" width="3.6" height="12" transform="rotate(-.972 -5998.63 -8362.708)scale(1.1727)"/><use xlink:href="#N" width="6.7" height="6.7" transform="rotate(89.025 126.934 21.43)scale(.8988)"/><use xlink:href="#P" width="13.3" height="11.8" transform="rotate(-.972 -4258.018 -7237.143)scale(1.1727)"/><use xlink:href="#Q" width="6.7" height="6.7" transform="rotate(89.025 97.4 30.912)scale(.8988)"/><use xlink:href="#R" width="3.6" height="12" transform="rotate(-.972 -4508.819 -7195.075)scale(1.1727)"/><use xlink:href="#Q" width="6.7" height="6.7" transform="rotate(89.025 104.19 24.187)scale(.8988)"/><use xlink:href="#Q" width="6.7" height="6.7" transform="rotate(89.025 104.846 30.093)scale(.8988)"/><use xlink:href="#R" width="3.6" height="12" transform="rotate(-.972 -4991.716 -7579.26)scale(1.1727)"/><use xlink:href="#Q" width="6.7" height="6.7" transform="rotate(89.025 111.611 23.342)scale(.8988)"/><use xlink:href="#S" width="13.3" height="11.8" transform="rotate(-.972 -3174.426 -6461.883)scale(1.1727)"/><use xlink:href="#T" width="6.7" height="6.7" transform="rotate(89.025 81.491 33.55)scale(.8988)"/><use xlink:href="#U" width="3.6" height="12" transform="rotate(-.972 -3425.228 -6419.816)scale(1.1727)"/><use xlink:href="#T" width="6.7" height="6.7" transform="rotate(89.025 88.281 26.825)scale(.8988)"/><use xlink:href="#T" width="6.7" height="6.7" transform="rotate(89.025 88.937 32.731)scale(.8988)"/><use xlink:href="#U" width="3.6" height="12" transform="rotate(-.972 -3908.124 -6804)scale(1.1727)"/><use xlink:href="#T" width="6.7" height="6.7" transform="rotate(89.025 95.702 25.98)scale(.8988)"/><use xlink:href="#V" width="13.3" height="11.8" transform="rotate(-.972 -2099.724 -5680.806)scale(1.1727)"/><use xlink:href="#W" width="6.7" height="6.7" transform="rotate(89.025 65.609 36.063)scale(.8988)"/><use xlink:href="#X" width="3.6" height="12" transform="rotate(-.972 -2350.525 -5638.738)scale(1.1727)"/><use xlink:href="#W" width="6.7" height="6.7" transform="rotate(89.025 72.399 29.338)scale(.8988)"/><use xlink:href="#W" width="6.7" height="6.7" transform="rotate(89.025 73.055 35.244)scale(.8988)"/><use xlink:href="#X" width="3.6" height="12" transform="rotate(-.972 -2833.422 -6022.922)scale(1.1727)"/><use xlink:href="#W" width="6.7" height="6.7" transform="rotate(89.025 79.82 28.493)scale(.8988)"/><use xlink:href="#V" width="13.3" height="11.8" transform="rotate(-.972 -963.501 -4857.957)scale(1.1727)"/><use xlink:href="#W" width="6.7" height="6.7" transform="rotate(89.025 48.842 38.745)scale(.8988)"/><use xlink:href="#X" width="3.6" height="12" transform="rotate(-.972 -1214.303 -4815.89)scale(1.1727)"/><use xlink:href="#W" width="6.7" height="6.7" transform="rotate(89.025 55.632 32.02)scale(.8988)"/><use xlink:href="#W" width="6.7" height="6.7" transform="rotate(89.025 56.288 37.926)scale(.8988)"/><use xlink:href="#X" width="3.6" height="12" transform="rotate(-.972 -1697.2 -5200.073)scale(1.1727)"/><use xlink:href="#W" width="6.7" height="6.7" transform="rotate(89.025 63.053 31.175)scale(.8988)"/><use xlink:href="#Y" width="7.3" height="4.7" transform="rotate(-.972 58.373 -4448.575)scale(1.1727)"/><use xlink:href="#W" width="6.7" height="6.7" transform="rotate(89.025 40.714 39.785)scale(.8988)"/><use xlink:href="#X" width="3.6" height="12" transform="rotate(-.972 -678.625 -4401.794)scale(1.1727)"/><use xlink:href="#W" width="6.7" height="6.7" transform="rotate(89.025 47.504 33.06)scale(.8988)"/><use xlink:href="#V" width="13.3" height="11.8" transform="rotate(-.972 749.446 -3597.093)scale(1.1727)"/><use xlink:href="#W" width="6.7" height="6.7" transform="rotate(89.025 23.391 42.613)scale(.8988)"/><use xlink:href="#X" width="3.6" height="12" transform="rotate(-.972 498.645 -3555.025)scale(1.1727)"/><use xlink:href="#W" width="6.7" height="6.7" transform="rotate(89.025 30.181 35.888)scale(.8988)"/><use xlink:href="#W" width="6.7" height="6.7" transform="rotate(89.025 30.837 41.794)scale(.8988)"/><use xlink:href="#X" width="3.6" height="12" transform="rotate(-.972 15.748 -3939.209)scale(1.1727)"/><use xlink:href="#W" width="6.7" height="6.7" transform="rotate(89.025 37.602 35.043)scale(.8988)"/><use xlink:href="#Z" width="121.8" height="171.8" transform="translate(53.2 -156.45)"/><use xlink:href="#aa" width="13.3" height="11.8" transform="rotate(-.972 -6389.72 -8802.094)scale(1.1727)"/><use xlink:href="#ab" width="6.7" height="6.7" transform="rotate(89.025 129.038 26.063)scale(.8988)"/><use xlink:href="#ac" width="3.6" height="12" transform="rotate(-.972 -6640.522 -8760.026)scale(1.1727)"/><use xlink:href="#ab" width="6.7" height="6.7" transform="rotate(89.025 135.828 19.337)scale(.8988)"/><use xlink:href="#ab" width="6.7" height="6.7" transform="rotate(89.025 136.483 25.243)scale(.8988)"/><use xlink:href="#ac" width="3.6" height="12" transform="rotate(-.972 -7123.418 -9144.21)scale(1.1727)"/><use xlink:href="#ab" width="6.7" height="6.7" transform="rotate(89.025 143.249 18.493)scale(.8988)"/></g></g></svg>