<?xml version="1.0"?>
<svg xmlns="http://www.w3.org/2000/svg" xmlns:xlink="http://www.w3.org/1999/xlink" width="150.75px" height="196.2px"><g transform="matrix(1, 0, 0, 1, 72.05, 138.2)"><use xlink:href="#object-0" width="98.45" height="106.85" transform="matrix(1, 0, 0, 1.4015, -47.85, -138.1)"/></g><defs><g transform="matrix(1, 0, 0, 1, 47.65, 98.4)" id="object-0"><path fill-rule="evenodd" fill="url(#gradient-L9929ff72b880da8e85f694e32b250018)" stroke="none" d="M-47.65 -98.4L-47.65 -98.25L-46.05 -85.45L-46.05 -85.3Q-42.85 -85.35 -37.35 -84.6L-30.1 -82.65L-27.55 -82Q-22.15 -80.4 -17.5 -82.65Q-8.05 -83.4 -5.8 -72.95L-5.55 -71.95Q-3.7 -63.5 -6.55 -51.4Q-8.9 -41.45 -11.65 -31.35L-12.3 -28.85L-14.95 -18.5Q-17.8 -6.15 -15.95 -1.4Q-15.5 1.65 -13.65 3.5Q-12.6 4.8 -11 5.7Q-8.7 7 -6 7.6Q-1.45 8.65 3.4 8.2Q6 7.9 8.35 7.1Q11.7 5.95 14.15 3.4Q14.6 2.85 14.85 2.15L15.35 0.5L16.45 -0.8Q16.85 -1.35 17.1 -1.95L17.85 -3.4Q18.6 -4.4 19.2 -5.4Q19.9 -6.75 19.6 -9.1L19.45 -10.45Q19.15 -12.1 19 -15.5Q18.1 -20.9 15.5 -28.65L13.5 -34.2L12 -38.35Q6.6 -53.95 9.65 -67.45Q11.25 -74.75 15 -78.1Q19.3 -83.15 24.9 -80.75Q32.8 -76 39.75 -68.4L40.2 -68.1Q43.3 -65.85 45.9 -64.75L46.95 -64.05L47.95 -68.7L48.35 -71.05L49.55 -78.25L49.85 -80.35Q50.95 -89.1 50.8 -97.8L49.5 -98.4L-47.65 -98.4"/></g><linearGradient gradientTransform="matrix(-0.0001, -0.0635, 0.0602, -0.0001, 3.3, 43.45)" gradientUnits="userSpaceOnUse" spreadMethod="pad" id="gradient-L9929ff72b880da8e85f694e32b250018" x1="-819.2" x2="819.2"><stop offset="0" stop-color="#ffffff" stop-opacity="1"/><stop offset="1" stop-color="#ffffff" stop-opacity="0"/></linearGradient></defs></svg>
