<?xml version="1.0"?>
<svg xmlns="http://www.w3.org/2000/svg" xmlns:xlink="http://www.w3.org/1999/xlink" width="150.75px" height="196.2px"><g transform="matrix(1, 0, 0, 1, 72.05, 138.2)"><use xlink:href="#object-0" width="98.45" height="106.85" transform="matrix(1, 0, 0, 1.3696, -47.85, -134.95)"/></g><defs><g transform="matrix(1, 0, 0, 1, 47.65, 98.4)" id="object-0"><path fill-rule="evenodd" fill="url(#gradient-L9e4abecd7a965ed459108729823a0120)" stroke="none" d="M-47.65 -98.4L-47.65 -98.3L-46.05 -85.4L-46.05 -85.25Q-43.7 -82.9 -39.8 -80.05L-34.5 -75.1L-32.65 -73.65Q-28.7 -70.3 -24.1 -75.85Q-16.5 -80.5 -9.85 -73.25L-9.15 -72.55Q-3.4 -66.25 -6.35 -53.05Q-8.55 -43.1 -11.3 -32.85L-11.95 -30.35L-14.6 -20.05Q-17.55 -8.2 -16.35 -2.9Q-16 0.35 -14.35 2.25Q-13.6 3.8 -12.15 4.9Q-10.15 6.45 -7.45 7.2Q-2.85 8.5 2 8.25Q4.6 8.05 7 7.5Q10.55 6.6 13.2 4.25Q13.65 3.75 14 3.2L14.85 1.75L15.95 0.4Q16.35 -0.1 16.6 -0.8L17.1 -2.4Q17.9 -3.4 18.3 -4.45Q18.85 -5.95 18.15 -8.15L17.8 -9.45Q17.2 -11.35 17.85 -14.45Q18.05 -18.8 14.9 -27.65L12.8 -33.25L11.25 -37.45Q6.15 -52.35 9.4 -66.65Q11.3 -75.05 15.55 -76.65Q19.6 -79.45 25.05 -75.2Q34.15 -66.3 39.9 -61.8L40.45 -61.7Q43.65 -61.3 45.9 -62.95L46.75 -63.45L47.8 -68.1L48.25 -70.45L49.45 -77.65L49.75 -79.8Q50.9 -88.55 50.8 -97.3L50 -98.4L-47.65 -98.4"/></g><linearGradient gradientTransform="matrix(-0.0001, -0.0635, 0.0602, -0.0001, 2.25, 25.4)" gradientUnits="userSpaceOnUse" spreadMethod="pad" id="gradient-L9e4abecd7a965ed459108729823a0120" x1="-819.2" x2="819.2"><stop offset="0" stop-color="#ffffff" stop-opacity="1"/><stop offset="1" stop-color="#ffffff" stop-opacity="0"/></linearGradient></defs></svg>
