<svg xmlns="http://www.w3.org/2000/svg" xmlns:xlink="http://www.w3.org/1999/xlink" width="38" height="48" viewBox="0 0 38 48"><defs><g id="e"><path fill="#390" d="M.2 0q.3-.1.9.4L2 1.6 2.6 3q.3.8-.1.8-.3.2-.8-.3l-1-1.2L.1.9Q-.2.2.2 0m.2.4.1.4.6 1.3.8 1.1.4.3-.1-.4-.6-1.3-.8-1z"/><path fill="#9c0" d="m.4.4.4.4.8 1 .6 1.3.1.4-.4-.3-.8-1.1L.5.8z"/><path fill="#ff8484" d="M2.5 19.7q0 .3-.3.6l-.5.1-.5-.1-.3-.6.3-.6.5-.2q.3 0 .5.3z"/></g><g id="d"><path fill="red" d="M10.7 6.8q1.3-1.6 4.2-1.3t3.9 5.6q.9 5.2-2 8-2.8 2.8-6.9 2.8-4 0-6.8-2.8-2.9-2.9-1.8-6.8T4 8t3.5 0 3.2-1.2"/><path fill="#960" d="M12.3 1.2q-1.2 2.9-3 5.5L9 7v.3l.2.2h-.3l-.2-.2-.2-.1Q8.1 3.3 10.8.3l.4-.3q1 .1 1.1 1z"/><path fill="none" stroke="#c00" stroke-linecap="round" stroke-linejoin="round" stroke-width="2" d="M10.7 6.8Q9.4 8.4 7.5 8.1 5.6 7.6 4 8t-2.7 4.4T3 19t7 2.8 6.9-2.8 1.9-8-3.9-5.6-4.2 1.3"/></g><g id="c"><path fill="#fff" d="M10.7 6.8q1.3-1.6 4.2-1.3t3.9 5.6q.9 5.2-2 8-2.8 2.8-6.9 2.8-4 0-6.8-2.8-2.9-2.9-1.8-6.8T4 8t3.5 0 3.2-1.2"/><path fill="#fff" d="M12.3 1.2q-1.2 2.9-3 5.5L9 7v.3l.2.2h-.3l-.2-.2-.2-.1Q8.1 3.3 10.8.3l.4-.3q1 .1 1.1 1z"/><path fill="none" stroke="#fff" stroke-linecap="round" stroke-linejoin="round" stroke-width="2" d="M10.7 6.8Q9.4 8.4 7.5 8.1 5.6 7.6 4 8t-2.7 4.4T3 19t7 2.8 6.9-2.8 1.9-8-3.9-5.6-4.2 1.3"/></g><g id="b"><path fill="#7c6035" d="M26.8 33.8V9.6l1-.6v24.1zM9.8 3.1l.4.2V.6l-1 .6V4zl.2.1M9.3 22l.8.4-.8.4z"/><path fill="#957440" d="m27.9 9.1-1.1.5v24.2l-.4-.2V31h-.5l-.3-.1v-17l1.1-1.7-1.1-.3V9.1l1.1-.6zM9.3 3.9 8 3V.5L9.3 0l1 .5-1 .6zM8 21.4l1.2.6v.8h-.1l-.5-.2-.6.3z"/><path fill="#6f5b06" d="m26.8 33.8 1-.6v-2.9l5.5-2.7v3.3l-13.7 7v-3.4l2.9-1.4 3.9-2v2.4zm-9-7.2 1.2.6.5.3-3 1.5-1.2-2.6-.9-.7-.3-.2.6-.4zm7 3.2v.8l-.4.3V30zm-11.8 2v-.6l6.8-3.4v3.4l-4 2zm22-5.1-.3 3.5-.4.2.1-3.5zM18 35l.3 3.3-.6.3-.2-3.2.4-.2zM9.2 22.8l-1 .4zm-1.6 6.4v-.5l2.2-1.6.1-.1v.1l-.5 1.3.2 1.3.7.3 1.2.6-.5.3z"/><path fill="#866e08" d="M27.9 30.4v-.5l5-2.5.4.2zm0-6.8v-.3l7 3.4-.5.2-.2 3.5-.7-.3.7-3.4zm-2.2-1.4v.4l-4.2-2.1.2-.2zm0 2.2v.4l-5.4 2.8-.5-.2h-.2l-.1-.2.3.2h-.2v.1l-3 1.5-2 1-.6.4-1.4.7v.5l.4.2v-.6l6.8-3.4v3.4l2 1 2.6-1.4v-.7l.4-.3-1.1-.6-3.4-1.6-.5-.2.5.2-.5-.2zm-13-.4h.2zm7.3-1.1.4-.7 1.4-.7.4.3zm2 10 .5.2-3 1.4V38l-.4-.3v-3.4zM1.9 26.5V26l6.2-3.1.6-.3.5.1-1 .6-.3.1-3.9 2zM18 35l-.1.1-.1-.1z"/><path fill="#57410f" d="M27.9 29.9v-6.3l6.3 3.1-.7 3.4-.1.8-.1-3.3-.4-.2zm-2.3-7.3v1.8l-5.9 3-.3-.2-.1-.6-.2-2.3.7-1.2.2-.2 2.3-1.1-.4-.3h-.1l-1.4.7.3-.4.7-1.3zm0 2.3v3.4l-2 1-3.4-1.6zm0 5.4v.6l.3.1.5.3-4 1.9-.4-.2-1-.4.8-.4 2.5-1.2.4-.2zm-15.5-7.8 2.6 1.6-2-1-.4.3v1l-2.1 1.3-.3-.5-2.8-.2-.3.5-.1.3-.7-.3 3.9-2 .3-.1 1-.5zM22 25.3l-2.7 1.3zm10.5 1.5-4.6 2.4zm-22.2-2.4v-1l.4-.3 2 1h.2l1.8 1.1-.6.3-2-.6-.5.3zM9 27l.9-.4.2-.4V26h.2l-.2.2-.1.8h-.1l-.1.1-2.2 1.6v.5l-4.8-2.3 1.7-.9-.2.3-.3.6 2.6 1.3z"/><path fill="#b48314" d="M27.9 18v-4.4l3.9 1.7 3.4 1.1-.5 1.2.1.4h-.2l.4.1.5.3v.4l-.4 1.1zm-2.3-4.2v3.4l-.9-.2-.7-.4zm5.9 3.1 3.1 1z"/><path fill="#e0c657" d="m27.9 13.6 3.9 1.8zm-10-5.7-3-1.5L13 5.2zM8 2.9v-.1m-7.2 13v.5zM19 27.2l.3-.6v.6l.2.2v.1z"/><path fill="#baa448" d="M27.9 13.5v-.6l7.3 3.5-3.4-1.1zm-3.1-2.9-.6-.2L17.9 8 13 5.2l-2.8-1.8-.4-.3.4.2V3L17 6.2zM10.3 3.4l-.4-.3zM35 18.1l-.5-.2.3.1z"/><path fill="#fc0" d="M25.6 10.9v.9l1.1.3-1.1 1.7-1.6 2.8-.1.1h-.1l-2.2 3.6-.2.2-.7 1.3-.3.4-.4.7-.1.2h-.1l-.7 1.2.1 2.3-.2.6-1.2-.6-4.9-2.6h-.2l-2.6-1.6-.8-.4-1.2-.6-4-2-3.5-1.1-.5-.7v-.5l.7-.8v-.5l-.4-.7L8 3l1.3.9.4-.9.2.1.4.3 4.5 3 3 1.5h.1l6.2 2.5.6.2z"/><path fill="#3e2e0b" d="M25.6 28.2v2l-.9.4v-.8l-1.1-.6zm-3.9 4-.6.3-3.4 1.7-2-1 4-2zm-10.2-1.6 1 .4-.6.3-1-.4z"/><path fill="#aaa273" d="m21 32.6 1 .3-2.9 1.5-1.2.6h-.1L1.1 26.9l.8-.4L4 25.3l.7.3-.2.3-1.7.9 4.8 2.3 3.4 1.7.9.4.6-.2v.5l.4.2 2.9 1.4 2 1zm-8.6-.9-.6-.3z"/><path fill="#7a1d1d" d="m16.5 29-2 1h-4.2l1.2.6 1 .4 1.4-.6.1-.3.9-2.2-.5-2.2.9.7z"/><path fill="#ac2828" d="m14.5 30-.6.4.1-.3.9-2.2-.5-2.2-.3-.2-2-.7-.5.3-1.3 1-.2.1-.1.8h-.1v.1l.9-.2h.4q1 0 1.8.8.9 1.4-.5 1.7-1.6.6-3.1-1l.2 1.3.7.3z"/><path fill="#61431f" d="m33.3 31-.5 2.6-.6 2.9-.6 2.3-13.8 7v-7.2l.4-.3-.2-3.2-.1-.1 1.2-.6v3.3l.4.3zm-2.7 3.9 2.1-1.2zm-5.6 5 7.2-3.3zM20.9 42l-2.6 1z"/><path fill="#876327" d="M17.8 45.8 3.6 38.9l-1-4.6-.6-3.4 15.8 7.7zm-9.5-8.6-5.6-3zm5.9 4.4 3.6 1.5z"/><path fill="#c6ac51" d="m2 30.9-1.4-.7L.3 27l.5-.3.3.2L17.8 35l.1.1-.4.3.3 3.2z"/><path fill="#8d865f" d="M17.9 35h.1z"/><path fill="#a9a812" d="M4.7 25.7v-.3l1.7.5-.3.9-1.8-.6.2-.2z"/><path fill="#89890e" d="m4.8 25.4.3-.5 2.8.2.3.5L9 27l-2.4 1.2L4 26.9l.3-.6 1.8.5.3-.9z"/><path fill="#474707" d="m8.2 25.7 2-1.4 1.4.8-1.3 1-.2-.1v.2l-.2.4-.9.4z"/><path fill="#d13f3f" d="m9.9 27.2.9-.3h.4q1 0 1.8.8.9 1.4-.5 1.7-1.6.6-3.1-1z"/><path fill="none" stroke="#432c05" stroke-linecap="round" stroke-linejoin="round" stroke-width="__RESOLUTION__" d="m26.8 33.8 1-.6V18m-1.4 15.5.4.3m-7.1-6.4 5.9-3m8.6 6 .4-.2.3-3.5-7-3.4m6.3 7.1-.7-.3-.1.8h-.1l-.5 2.8-.6 2.8-.6 2.3-13.8 7-14.2-6.9-1-4.6-.6-3.4-1.4-.7L.3 27l.5-.3.3.2.8-.4V26l6.2-3.1v-1.5m26.1 5.3-6.4-3.1m0 5.4 4.7-2.3m.8 4.3-13.7 7-.5-.3m-.9.6-.4.3L2 30.9m7.2-8.1-1 .4-.3.2-3.9 2-2.1 1M8.1 23l.6-.3m-1.1 6.6v-.5l2.2-1.6m2.7 4-.6.2-1-.4.6-.3" vector-effect="non-scaling-stroke"/><path fill="none" stroke="#7d6006" stroke-linecap="round" stroke-linejoin="round" stroke-width="__RESOLUTION__" d="M27.9 18v-4.4l3.9 1.7 3.4 1.1-.5 1.2.1.4h-.2l.4.1.5.3v.4h0l-.4 1.1zm6.7 0-3.1-1" vector-effect="non-scaling-stroke"/><path fill="none" stroke="#282002" stroke-linecap="round" stroke-linejoin="round" stroke-width="__RESOLUTION__" d="M27.9 13.6V9.1l-1.1-.6-1.2.6v1.8m0 6.3v13.6M9.9 3.2 9.8 3m10.6 19.2.3-.4M34.9 18l.1.1m-11-1.6.8.4.8.3m-5.2 5 1.4-.7m-.2-1.2 4 1.9m0 .4-4.2-2.1m3.4 10.1.8-.4m-.9-.4v.8l-.4.3-2.6 1.3-.6.3-3.4 1.7-2-1-2.8-1.4-.4-.2V31m6.9-3.8v.2h.3zl-.1-.6h0l2.7-1.4m-2.5 2.3-3 1.5m3.2 2.2 2 1m-2-4.8.5.2zm.5.2 3.4 1.6 1.1.6m-1.1-.6 2-1m9.6-11.8-7.4-3.5M10.5.6 9.3 0 8 .5v2.3m2.3.2V.5m4.4 6L13 5.1m-2.8 19.1v-1l.4-.3 2 1h.2l1.8 1.1 3 1.5M.9 15.8v.5m2 10.6 4.8 2.3 3.4 1.7m.9.4.6.3m5.3 3.4h.2m-3.3-9.9-.6.3m5.6 5.8-4 2m3.8-5.8-.5-.2" vector-effect="non-scaling-stroke"/><path fill="none" stroke="#af860a" stroke-linecap="round" stroke-linejoin="round" stroke-width="__RESOLUTION__" d="M25.6 10.9v.9l1.1.3-1.1 1.7-1.6 2.8-.1.1h-.1l-2.2 3.6-.2.2-.7 1.3m4-11.2-.6-.2L17.9 8h0l-3.1-1.5-4.5-3-.4-.3h0l.4.2h0V3L17 6.2zl.9.3M9.8 3l-.4.9L8 3v0h0L.4 15l.4.7v.5l-.6.8-.1.5.5.6L4 19.5l4 2 1.2.6.8.4 2.6 1.6h.2l4.9 2.6 1.2.6.3-.6-.2-2.3.7-1.2h0l.2-.2.4-.7M9.9 3.2l.4.2L13 5.2l4.8 2.7M9.8 3l.1.1" vector-effect="non-scaling-stroke"/><path fill="none" stroke="#7d6006" stroke-linecap="round" stroke-linejoin="round" stroke-width="1" d="M25.6 13.8v3.4"/><path fill="none" stroke="#5b200b" stroke-linecap="round" stroke-linejoin="round" stroke-width="__RESOLUTION__" d="m16.5 29-2 1-.6.4-1.4.7h0l-1-.5-1.2-.6-.7-.4-.2-1.2m.9-2.3 1.3-1 .5-.4 2 .8.3.1.9.8 1.2 2.6m-6.7-1.9.1-.1h0l.2-.8.2-.1" vector-effect="non-scaling-stroke"/><path fill="none" stroke="#523007" stroke-linecap="round" stroke-linejoin="round" stroke-width="__RESOLUTION__" d="m32.8 33.7-2.2 1.1m1.6 1.7L25 39.8M2.8 34.3l5.6 2.9m9.5 6-3.6-1.6m4.1 1.5 2.5-1.1" vector-effect="non-scaling-stroke"/><path fill="none" stroke="#304200" stroke-linecap="round" stroke-linejoin="round" stroke-width="__RESOLUTION__" d="M4.7 25.7v-.3l.4-.5 2.8.2.3.5 2-1.3 1.4.8m-3.4.5L9 27l.9-.4.2-.4V26m-5.8.3.2-.3.2-.4M9 27l-2.4 1.2L4 26.9l.3-.6" vector-effect="non-scaling-stroke"/></g><clipPath id="a"><path d="M1 1h36v46H1z"/></clipPath></defs><g clip-path="url(#a)"><g transform="translate(20.35 38.25)"><use xlink:href="#b" width="35.6" height="45.8" transform="translate(-19.35 -37.25)"/><use xlink:href="#c" width="20" height="22.9" transform="matrix(.4317 .271 -.2493 .4192 -8.4 -31.3)"/><use xlink:href="#d" width="20" height="22.9" transform="matrix(.3504 .22 -.2023 .3402 -8.25 -29.6)"/><use xlink:href="#e" width="2.8" height="20.4" transform="translate(-8.7 -29.9)"/></g></g></svg>