<svg xmlns="http://www.w3.org/2000/svg" xmlns:xlink="http://www.w3.org/1999/xlink" width="54" height="51" viewBox="0 0 54 51"><defs><clipPath id="a"><path d="M1 1h52v49H1z"/></clipPath><g id="b"><path fill="#516239" d="m41.9 35.4-1.3 2q-2.5-2-8-.4-3.6-4.9-5.6 3.3-2.2-17.2-4.5 7.9-.1-11.9-.9-20.8 4.2 3.8 8 6l.2.1q6 2.8 12 2m-22.1-10q-1.4 0-2.1 2 .3-2.6-1.4-5.7z"/><path fill="none" stroke="#516239" stroke-linecap="round" stroke-linejoin="round" stroke-width="__RESOLUTION__" d="m41.9 35.4 3-.6-2.3-.4zl-1.3 2q-2.5-2-8-.4-3.6-4.9-5.6 3.3-2.2-17.2-4.5 7.9-.1-11.9-.9-20.8l-1.9-1.9-3.5-3.7m29.3 12.8 3-1.2q-2.6 0-3 1.2h-.1l-.5.2m3.6-1.4 2.6-1.4M13.9 19l-1.2-1.4v1.1zl.2-.2 1 1.8.8.8m-2-2.4.7.9.6.7-.5.6q.3 14-2.7 11.2m2.6-12.5v1.3m-2-3.6q.3-1.2-3.3-4.4zm9 9.8q4.1 3.8 7.8 6l.3.1q6 2.8 12 2M.1 0q4.8 7.3 9.2 13.2" vector-effect="non-scaling-stroke"/></g></defs><g clip-path="url(#a)"><use xlink:href="#b" width="51.2" height="48.3" transform="translate(1 1)"/></g></svg>