<svg xmlns="http://www.w3.org/2000/svg" xmlns:xlink="http://www.w3.org/1999/xlink" width="73" height="91" viewBox="0 0 73 91"><defs><clipPath id="a"><path d="M1 1h71v89H1z"/></clipPath><g id="b"><path fill="#80552b" d="m10.8 69.4.4-.7h2.2v13.6l-2.8 4.8-.5.8h-.2q.6-6.7.9-18.5"/><path fill="#d6af83" d="m10.6 87.1-.4.8H10zm-.7.8H0l10.8-18.5q-.3 11.8-.9 18.5"/><path fill="none" stroke="#855e2a" stroke-linecap="round" stroke-linejoin="round" stroke-width="__RESOLUTION__" d="m10.8 69.4.4-.7h2.2m0 13.6-2.8 4.8-.4.8H0l10.8-18.5" vector-effect="non-scaling-stroke"/><path fill="#ddc59b" d="M32.4 0h3l1.1 1.4h-5l-.6 2v10l-.1-3.4V4L29 1.7l-2.3-.3-1.2 3.2L24 1.4h-2l1-1.3 9-.1zM13 10.7l.6-2q3.2-1.1 8.5-.6l2.1.2.2 2.4h-2l-.5.5-.1.6q-.5-.6-1.8-.8l-2.6-.5-1.5.5-1-.3z"/><path fill="#d6af83" d="M36.6 1.4h.4v76.4l-4.6-.3H32v-.1l-2-.4h-.3l.9-16.1v-.6q1.9-23.4.1-46.5l.2-.5V3.5l.6-2.1zM13 80.3V10.7h2l.9.3 1.5-.5 2.6.5q1.3.3 1.8.8v-.6l.7-.5h1.9v19.6-19.6l-.1-2.4-2.2-.2V1.4H24l1.6 3.2 1.2-3.2 2.3.3L30.7 4v9.8q1.8 23.1-.1 46.5v.6l-.9 16.2-.3-.1-4.2 2.6-.8-.4V46q2.7-.2 4.6-2.2 1-1 1.5-2 .7-1.3.8-2.7v-1q0-3.2-2.3-5.6-2-2-4.6-2.2l-1-.1h-1l-.3-10v-1l-.4-5.9.1-1.1v-.4.4l-.1 1.1.4 6v1l.3 10q-2.6.2-4.6 2.2-2.3 2.3-2.3 5.9 0 3.1 2.3 5.4 1.9 1.9 4.4 2.2l1.2.1h1v33L22.6 78l-5.3 2.9-.6-.3zm7.2-4.1 1-15.3v-.6q.6-6.2.9-12.2V46v2l-.9 12.3v.6z"/><path fill="#555814" d="M37 77.8v10.3H13v-7.8l3.7.3.6.3 5.3-3 1.8 1.3.8.4 4.2-2.6h.6l2.1.4v.1h.3zm-7.7 10.3v-6.4l.4-4.7-.3 4.7v.5zm-4.9-9v9z"/><path fill="#776426" d="m30.9 13.3-.1.5V10z"/><path fill="none" stroke="#3c3213" stroke-linecap="round" stroke-linejoin="round" stroke-width="__RESOLUTION__" d="M32.4 0h3l1.1 1.4h.5v80.3m0 .5v5.9H13V10.7l.6-2q3.2-1.1 8.5-.6V1.4l.8-1.3L32 0m-7.7 10.7v19.6m0 15.7v42.1M22 8.1l2.1.2.2 2.4" vector-effect="non-scaling-stroke"/><path fill="none" stroke="#676618" stroke-linecap="round" stroke-linejoin="round" stroke-width="__RESOLUTION__" d="m30.9 13.3-.1.5q1.7 23.1-.2 46.5v.6l-.9 16.2-.3 4.6v.5l-.1 5.9m1.6-74.7-.1-3.4v3.8m0-3.8V4m-9.1 9.3.4 6v1l.3 10M22.2 46l-.1 2-.9 12.3v.6l-1 15.3" vector-effect="non-scaling-stroke"/><path fill="none" stroke="#563c1d" stroke-linecap="round" stroke-linejoin="round" stroke-width="__RESOLUTION__" d="M24.4 30.3q2.7.2 4.6 2.2 2.4 2.4 2.4 5.6l-.1 1q-.1 1.4-.8 2.6-.5 1.1-1.5 2-2 2-4.6 2.3l-1 .1-1.2-.1q-2.5-.4-4.4-2.2-2.3-2.3-2.3-5.4 0-3.6 2.3-5.9 2-2 4.6-2.2l1-.1z" vector-effect="non-scaling-stroke"/><path fill="none" stroke="#535313" stroke-linecap="round" stroke-linejoin="round" stroke-width="__RESOLUTION__" d="m21.9 11.2-.1.6v.4l-.1 1v.1" vector-effect="non-scaling-stroke"/><path fill="#d6af83" d="M60 86.3V68.8l10.6 18H60.4z"/><path fill="#80552b" d="M60 68.9v17.4l-2.9-5V67.6h2.3z"/><path fill="none" stroke="#855e2a" stroke-linecap="round" stroke-linejoin="round" stroke-width="__RESOLUTION__" d="m60 86.3.4.5h10.2L60 68.9l-.7-1.2h-2.2m0 13.7 2.9 5" vector-effect="non-scaling-stroke"/><path fill="#d6af83" d="M37.3 16.3h3l.9.4 1.5-.5 2.6.5q1.3.2 1.8.7v-.6l.6-.5h2v1.4h-1.5l-.9 1.3h2l1.6 3.3 1.2-3.3 2.3.3 1.7 2.4v3.1h.1v-3.7l.6-2h1.9v58l-3.5-.8h-.5l-4.2 2.5-.8-.4-1.9-1.2-5.2 3-.6-.4-2.1-.2h-1.5v-.2h-1.1zm12.4 28.9v33.1zh-2.2l-.1 2-.9 12.2v.6l-1 15.4 1-15.3v-.7l.9-12.2v-2Q45 44.9 43 43q-2.2-2.2-2.2-5.4 0-3.6 2.3-5.9 2-1.9 4.6-2.2h2q2.6.3 4.6 2.3 2.4 2.3 2.4 5.6l-.1.9q-.1 1.5-.8 2.7-.5 1.1-1.5 2-2 2-4.6 2.3M47 18.9l.1-1.1z"/><path fill="#ddc59b" d="M49.7 16.3h-2l-.5.5-.1.6q-.5-.5-1.8-.7l-2.6-.5-1.5.5-1-.4h-3v-1.5l.5-.5 1.8-.1.3-.1 7.6-.3 2.1.2zm9 2.7h-1.9l-.6 2.1v3.7h-.1v-3.1l-1.7-2.4L52 19l-1.2 3.3-1.6-3.3h-2l.9-1.2h1.5l8.7-.1zm-18.9-4.9-.2.1z"/><path fill="#c08143" d="M37.3 16.3v63H36v-63l1.3-1.5z"/><path fill="#676618" d="M37.3 79.4h1.1v9.1H36v-9.2z"/><path fill="#555814" d="M38.4 79.6h1.5l2 .3.7.3 5.3-3 1.8 1.2.8.4 4.2-2.5h.6l3.5.8v11.4H38.3zm11.3 9V78.4zm4.8 0 .1-4V81l.4-4.7-.3 4.7v.5l-.1 1.8v5.2"/><path fill="none" stroke="#3c3213" stroke-linecap="round" stroke-linejoin="round" stroke-width="__RESOLUTION__" d="M49.7 78.4V45.3m0-27.5v-1.5h0l-.2-2.3-2.1-.2-7.6.3-.2.1-1.9.1-.5.5-1.2 1.5v72.2h22.8v-7m-9.1-63.7 8.7-.1.3 1.3h0v5.7m0 .1V81M39.6 14.2l.3-.1m9.9 64.3v10.1" vector-effect="non-scaling-stroke"/><path fill="none" stroke="#563c1d" stroke-linecap="round" stroke-linejoin="round" stroke-width="__RESOLUTION__" d="M49.7 45.3h-2.2Q45 44.9 43 43q-2.2-2.2-2.2-5.4 0-3.6 2.3-5.9 2-1.9 4.6-2.2h2q2.6.3 4.6 2.3 2.4 2.3 2.4 5.6l-.1.9q-.1 1.5-.8 2.7-.5 1.1-1.5 2-2 2-4.6 2.3" vector-effect="non-scaling-stroke"/><path fill="none" stroke="#676618" stroke-linecap="round" stroke-linejoin="round" stroke-width="__RESOLUTION__" d="m47.5 45.3-.1 2-.9 12.2v.6l-1 15.4m9.5.8-.3 4.7v.5l-.1 1.8v5.2" vector-effect="non-scaling-stroke"/><path fill="#589220" d="m15.2 11.3.2-.3q.8-.8 2.1-.8h12q1.3 0 2.1.8.9 1 .9 2.2v12q-.8-.7-1.9-.7-1.4 0-2.3 1t-.9 2.3v.4h-9.9q-1.2 0-2.1-.9t-.9-2.1v-4.4q1.6-.1 2.7-1.3 1.5-1.5 1.5-3.5t-1.5-3.5q-.9-.9-2-1.2m12.4 1.8q-1.6 0-2.8 1l-.4.3Q23 15.7 23 17.7q0 1.8 1.3 3.1l.4.4q1.2 1 2.8 1 1.9 0 3.2-1.4t1.4-3.1q0-2-1.4-3.3t-3.2-1.3m-4.1-.1.2-.6-.2-.6q-.2-.2-.6-.2l-.6.2-.2.6.2.6.6.2q.4 0 .6-.2m-4.2 7.8q-.7 0-1.2.5t-.6 1.2.6 1.3 1.2.5q.7 0 1.2-.6.6-.4.6-1.2t-.6-1.2-1.2-.5"/><path fill="#ff9" d="M15.2 11.3q1.1.3 2 1.2 1.5 1.5 1.5 3.5t-1.5 3.5q-1.1 1.2-2.7 1.3v-7.6q0-1.1.7-1.9m12.3 16.9-.1-.4q0-1.4.9-2.3 1-1 2.3-1 1.1 0 1.9.7 0 1.3-.9 2.1t-2.1.9zm.1-15.1q1.9 0 3.2 1.3t1.4 3.3q0 1.8-1.4 3.1t-3.2 1.4q-1.6 0-2.8-1l-.4-.4Q23 19.5 23 17.7q0-2 1.3-3.3l.4-.4q1.2-.9 2.8-.9m-4.1-.1q-.2.2-.6.2l-.6-.2-.2-.6.2-.6.6-.2q.4 0 .6.2l.2.6zm-8.6 37.4q1.1.3 2 1.1 1.5 1.5 1.5 3.5 0 2.1-1.5 3.5-1.1 1.2-2.7 1.4v-7.6q0-1.1.7-2m12.3 17-.1-.5q0-1.3.9-2.3t2.3-.9q1.1 0 1.9.6 0 1.3-.9 2.1-.8 1-2.1 1zm-3.8-15.8-.2.5q-.2.3-.6.3T22 52l-.2-.5.2-.6.6-.2.6.1zm1.4 1.4q1.1-.7 2.5-.7 1.9 0 3.2 1.3t1.4 3.2-1.4 3.2q-1.3 1.4-3.2 1.4-1.4 0-2.5-.7l-.7-.7q-1.4-1.3-1.4-3.2t1.4-3.2zm-5.5-32.1q.7 0 1.2.5t.6 1.2-.6 1.3q-.5.5-1.2.5t-1.2-.6q-.6-.4-.6-1.2t.6-1.2q.5-.5 1.2-.5m.9 39.6q.6.5.6 1.2t-.6 1.2q-.5.6-1.2.6t-1.2-.6-.6-1.2.6-1.2 1.2-.5 1.2.5"/><path fill="#f30" fill-opacity=".8" d="m29.3 32.8-.1-.1q-1.9-1.9-4.4-2.2l-.2-.1h-2.1q-2.6.3-4.6 2.3-2.2 2.3-2.3 5.8v.8l-.7-.1h-.5v-7q0-1.3.9-2.2.9-.8 2.1-.8h12q1.3 0 2.1.8t.9 1.9l-.5-.1q-1.5 0-2.6.9m-10.6 12q1.6 1.3 3.6 1.5l1 .1h1.5q2.5-.4 4.4-2.3.9-.9 1.5-2l.6-1.6h1.1v3.9q0 1.2-.9 2-.8 1-2.1 1h-12l-1-.2q.7-.4 1.3-1t1-1.4m-1.2 42.2h-.4q-1.2 0-2.2-1-.8-.8-.8-2v-12q0-1.3.9-2.2.9-.8 2.1-.8h12q1.3 0 2.1.8l.2.3.4.4q.3.7.3 1.5v12q0 1.2-.9 2-.8 1-2.1 1h-7l.1-.9q0-1-.7-1.7t-1.7-.7-1.7.7-.7 1.7zm11.4-11-3 3zm-1.1 7.5-.6.1-.2.7.2.5q.3.3.6.3.4 0 .6-.3l.2-.5-.2-.7zm-11-53-.6.2-.2.6.3.6q.2.3.6.3t.6-.3l.2-.6-.2-.6zm5 39.6-.5.3-.2.5.2.5q.2.2.5.2l.5-.2.2-.5-.2-.5zm0 4.4q-1.2-1.2-2.9-1.2T16 74.4t-1.2 2.9 1.2 2.9 2.9 1.2 2.9-1.2 1.2-2.9-1.2-2.9"/><path fill="#fc8b70" fill-opacity=".9" d="M29.3 32.8q1.1-.9 2.6-.9h.5v8.5h-1.1l.2-1.1v-.9q0-3.2-2.2-5.5m-14.9 6.4h1.3Q16 42 17.9 44l.8.7q-.3.8-1 1.4t-1.3 1l-1.1-.7q-.9-.9-.9-2.1zm3.1 47.6-.1-.9q0-1 .7-1.7t1.7-.7 1.7.7q.8.7.8 1.7l-.2.8zm10.3-3.5.6.1.2.7-.2.5q-.2.3-.6.3t-.6-.3L27 84l.2-.7zm-11-53 .7.2.2.6-.2.6q-.3.3-.6.3-.4 0-.6-.3L16 31l.3-.6zm5 39.6.5.3.2.5-.2.5-.5.2q-.3 0-.5-.2l-.2-.5.2-.5zm0 4.4q1.2 1.2 1.2 2.9t-1.2 2.9-2.9 1.2-2.9-1.2-1.2-2.9 1.2-2.9 2.9-1.2 2.9 1.2m-4.3 1.4 3.1 3.1z"/><path fill="#fc0" d="m14.9 50.4.2-.3q.9-.9 2.1-.9h12q1.3 0 2.1.9t.9 2.1v12q-.8-.6-1.9-.6-1.3 0-2.3.9t-.9 2.3v.5h-9.9q-1.2 0-2.1-1-.9-.8-.9-2v-4.4q1.6-.2 2.7-1.4 1.5-1.4 1.5-3.5 0-2-1.5-3.5-.9-.9-2-1.1m8.5 1-.2-.5-.6-.2-.6.1-.2.7.2.5q.3.3.6.3.4 0 .6-.3zm1.4 1.4-.7.6q-1.4 1.3-1.4 3.2t1.4 3.2l.7.6q1.1.8 2.5.8 1.9 0 3.2-1.4t1.4-3.2-1.4-3.2Q29.2 52 27.3 52q-1.4 0-2.5.8m-4.6 7.5q-.5-.5-1.2-.5t-1.2.5-.6 1.2.6 1.2q.5.6 1.2.6t1.2-.6q.6-.5.6-1.2t-.6-1.2"/><path fill="none" stroke="#9f0" stroke-linecap="round" stroke-linejoin="round" stroke-width="__RESOLUTION__" d="M32.5 25.2v-12q0-1.2-.9-2.2-.9-.8-2.1-.8h-12q-1.2 0-2.1.8l-.2.3q1.1.3 2 1.2 1.5 1.5 1.5 3.5t-1.5 3.5q-1.1 1.2-2.7 1.3v4.4q0 1.3.9 2.1t2.1.9h10l-.1-.4q0-1.4.9-2.3 1-1 2.3-1 1.1 0 1.9.7 0 1.3-.9 2.1t-2.1.9h-2m.1-15.1q1.9 0 3.2 1.3t1.4 3.3q0 1.8-1.4 3.1t-3.2 1.4q-1.6 0-2.8-1l-.4-.4Q23 19.5 23 17.7q0-2 1.3-3.3l.4-.4q1.2-.9 2.8-.9m-4.1-.1q-.2.2-.6.2l-.6-.2-.2-.6.2-.6.6-.2q.4 0 .6.2l.2.6zm-8.3-1.7q-.7.8-.7 1.9v7.6m4.8 0q.7 0 1.2.5t.6 1.2-.6 1.3q-.5.5-1.2.5t-1.2-.6q-.6-.4-.6-1.2t.6-1.2q.5-.5 1.2-.5" vector-effect="non-scaling-stroke"/><path fill="none" stroke="red" stroke-linecap="round" stroke-linejoin="round" stroke-width="__RESOLUTION__" d="m15.7 39.3-.1-.8q0-3.5 2.3-5.9 2-1.9 4.7-2.2h2.2q2.5.4 4.4 2.3h.1q1.1-.9 2.6-.9h.5q-.1-1-.9-1.8t-2.1-.8h-12q-1.2 0-2.1.8t-.9 2.1v7.1zQ16 42 17.9 44l.8.7q1.6 1.3 3.6 1.5l1 .1h1.5q2.5-.4 4.4-2.3.9-.9 1.5-2l.6-1.6.2-1.1v-.9q0-3.2-2.2-5.5m3.1 7.5v-8.5m-1.1 8.5h1.1v3.9q0 1.2-.9 2-.8 1-2.1 1h-12l-1-.2-1.1-.7q-.9-.9-.9-2.1v-5m7.7 47.6h7q1.3 0 2.1-1 .9-.8.9-2v-12q0-.8-.4-1.5l-.3-.5-.2-.2q-.8-.8-2.1-.8h-12q-1.2 0-2.2.8-.8.9-.8 2.2v12q0 1.2.9 2 .9 1 2.1 1h.4l-.1-.9q0-1 .7-1.7t1.7-.7 1.7.7q.8.7.8 1.7zh-4.6m10.3-3.5.6.1.2.7-.2.5q-.2.3-.6.3t-.6-.3L27 84l.2-.7zm-11-53 .7.2.2.6-.2.6q-.3.3-.6.3-.4 0-.6-.3L16 31l.3-.6zM16.4 47q.7-.4 1.3-1t1-1.4m3.2 25.2.5.3.2.5-.2.5-.5.2q-.3 0-.5-.2l-.2-.5.2-.5zm0 4.4q1.2 1.2 1.2 2.9T21.9 80 19 81.2 16.1 80t-1.2-2.9 1.2-2.9T19 73t2.9 1.2" vector-effect="non-scaling-stroke"/><path fill="none" stroke="#563c1d" stroke-linecap="round" stroke-linejoin="round" stroke-width="__RESOLUTION__" d="m23.3 46.3-.9-.1q-2-.4-3.6-1.6l-.8-.7q-2-2-2.2-4.6l-.1-.8q0-3.5 2.3-5.9 2-1.9 4.7-2.2h.4" vector-effect="non-scaling-stroke"/><path fill="none" stroke="#fc0" stroke-linecap="round" stroke-linejoin="round" stroke-width="__RESOLUTION__" d="M32.2 64.2v-12q0-1.2-.9-2.1t-2.1-.9h-12q-1.2 0-2.1.9l-.2.3q1.1.3 2 1.1 1.5 1.5 1.5 3.5 0 2.1-1.5 3.5-1.1 1.2-2.7 1.4v4.4q0 1.2.9 2 .9 1 2.1 1h10l-.1-.5q0-1.3.9-2.3t2.3-.9q1.1 0 1.9.6m-8.8-12.7-.2.5q-.2.3-.6.3T22 52l-.2-.5.2-.6.6-.2.6.1zm1.4 1.4q1.1-.7 2.5-.7 1.9 0 3.2 1.3t1.4 3.2-1.4 3.2q-1.3 1.4-3.2 1.4-1.4 0-2.5-.7l-.7-.7q-1.4-1.3-1.4-3.2t1.4-3.2zm-10-2.5q-.6.8-.6 1.9v7.6m6 .5q.6.5.6 1.2t-.6 1.2q-.5.6-1.2.6t-1.2-.6-.6-1.2.6-1.2 1.2-.5 1.2.5" vector-effect="non-scaling-stroke"/><path fill="none" stroke="#7c1b03" stroke-linecap="round" stroke-linejoin="round" stroke-width="2" d="m25.9 78.8 3-3.1m-8.2 3.1-3.1-3.1"/><path fill="#f30" fill-opacity=".8" d="M42.8 67.3h-.4q-1.2 0-2.1-1-.9-.8-.9-2v-12q0-1.3.9-2.2t2.1-.9h12q1.3 0 2.1.9l.2.3.4.4q.3.7.3 1.5v12q0 1.2-.9 2-.9 1-2.1 1h-7l.1-.9q0-1-.7-1.7t-1.7-.7-1.7.7-.7 1.7zm4.4-16.8-.5.1-.2.5.2.5.5.3q.3 0 .5-.2l.1-.6-.1-.5zm0 4.4q-1.2-1.2-2.9-1.2t-2.9 1.2-1.2 2.9 1.2 2.9 2.9 1.2 2.9-1.2 1.2-2.9-1.2-2.9m5.9 8.9-.6.1-.2.7q0 .3.2.5t.6.3.6-.3l.2-.5-.2-.6zm-.7-4 .2-3.9z"/><path fill="#fc8b70" fill-opacity=".9" d="m42.8 67.3-.1-.9q0-1 .6-1.7.8-.7 1.8-.7t1.7.7.8 1.7l-.2.8zm4.4-16.8.5.1.1.5-.1.5q-.2.3-.5.3l-.5-.2-.2-.6.2-.5zm0 4.4q1.2 1.2 1.2 2.9t-1.2 2.9-2.9 1.2-2.9-1.2-1.2-2.9 1.2-2.9 2.9-1.2 2.9 1.2m5.9 8.9.6.1.2.7-.2.5q-.2.3-.6.3t-.6-.3-.2-.5l.2-.6zm-8.6-4.4-.2-2.3z"/><path fill="none" stroke="red" stroke-linecap="round" stroke-linejoin="round" stroke-width="__RESOLUTION__" d="M47.4 67.3h7q1.3 0 2.1-1 .9-.8.9-2v-12q0-.8-.3-1.5l-.4-.4-.2-.3q-.9-.9-2.1-.9h-12q-1.2 0-2.1.9t-.9 2.1v12q0 1.3.9 2.1.9 1 2.1 1h.4l-.1-.9q0-1 .6-1.7.8-.7 1.8-.7t1.7.7.8 1.7zh-4.6m4.4-16.8.5.1.1.5-.1.5q-.2.3-.5.3l-.5-.2-.2-.6.2-.5zm0 4.4q1.2 1.2 1.2 2.9t-1.2 2.9-2.9 1.2-2.9-1.2-1.2-2.9 1.2-2.9 2.9-1.2 2.9 1.2m5.9 8.9.6.1.2.7-.2.5q-.2.3-.6.3t-.6-.3-.2-.5l.2-.6z" vector-effect="non-scaling-stroke"/><path fill="none" stroke="#7c1b03" stroke-linecap="round" stroke-linejoin="round" stroke-width="2" d="m44.3 57 .3 2.3m8-3.5-.2 4"/><path fill="#ff9" fill-opacity=".8" d="m40 70.6.3-.3q.9-.8 2.1-.8h12q1.3 0 2.1.8t.9 2.2v11.9q-.8-.6-1.9-.6-1.3 0-2.3.9t-.9 2.3v.5h-9.9q-1.2 0-2.1-1-.9-.8-.9-2V80q1.6-.2 2.7-1.4 1.4-1.4 1.4-3.5 0-2-1.4-3.5-.9-.9-2-1.2m2.9 10q-.5.6-.5 1.3T43 83t1.2.5 1.2-.5q.6-.5.6-1.2t-.6-1.2-1.2-.5-1.2.5m14-3.7q0-1.9-1.3-3.2t-3.2-1.4-3.2 1.4Q48 75 48 76.9t1.3 3.2q1.3 1.4 3.2 1.4t3.2-1.4q1.4-1.3 1.4-3.2m-8.5-5.2-.2-.7-.6-.2-.6.3-.2.6.2.5q.3.3.6.3.4 0 .6-.3z"/><path fill="#ff9" d="M40 70.6q1.2.3 2.1 1.2 1.4 1.4 1.4 3.5 0 2-1.4 3.4-1.1 1.2-2.7 1.4v-7.6q0-1.2.6-2m12.4 17-.1-.5q0-1.3.9-2.3t2.3-.9q1.1 0 1.9.6 0 1.3-.9 2.1-.9 1-2.1 1zm-9.4-7q.5-.5 1.2-.5t1.2.5q.6.6.6 1.3t-.6 1.2-1.2.5T43 83t-.5-1.2.5-1.2m14-3.7q0 1.9-1.3 3.2t-3.2 1.4-3.2-1.4Q48 78.8 48 76.9t1.3-3.2 3.2-1.4 3.2 1.4q1.4 1.3 1.4 3.2m-8.5-5.2-.2.5q-.2.3-.6.3t-.6-.3l-.2-.5.2-.7.6-.2.6.3z"/><path fill="none" stroke="#fc0" stroke-linecap="round" stroke-linejoin="round" stroke-width="__RESOLUTION__" d="M57.4 84.4v-12q0-1.2-.9-2.1-.9-.8-2.1-.8h-12q-1.2 0-2.1.8l-.2.3q1.1.3 2 1.2 1.4 1.4 1.4 3.5 0 2-1.4 3.4-1.1 1.2-2.7 1.4v4.4q0 1.2.9 2 .9 1 2.1 1h10l-.1-.5q0-1.3.9-2.3t2.3-.9q1.1 0 1.9.6M43 80.5q.5-.5 1.2-.5t1.2.5q.6.6.6 1.3t-.6 1.2-1.2.5T43 83t-.5-1.2.5-1.2m-3-10q-.6.8-.6 1.9V80m17.7-3.2q0 1.9-1.4 3.2t-3.2 1.4-3.2-1.4Q48 78.8 48 76.9t1.3-3.2 3.2-1.4 3.2 1.4q1.4 1.3 1.4 3.2m-8.5-5.2-.2.5q-.2.3-.6.3t-.6-.3l-.2-.5.2-.7.6-.2.6.3z" vector-effect="non-scaling-stroke"/><path fill="#aad025" d="m42.5 29.5-.6-.2-.6.2-.3.6q0 .4.3.6l.6.3q.3 0 .6-.3l.2-.6zl.2.6-.2.6q-.3.3-.6.3l-.6-.3q-.3-.2-.3-.6l.3-.6.6-.2zm-3.1 8.8v-7q0-1.3.9-2.2t2.1-.9h12q1.3 0 2.1.9t.9 1.9l-.5-.1q-1.5 0-2.6.9h-.1q-2-2-4.7-2.3h-2q-2.6.3-4.6 2.3-2.2 2.2-2.3 5.8v.8l-.7-.1zh1.3q.3 2.8 2.2 4.7l.8.7-1 1.4q-.6.6-1.4 1l1.1.1h12q1.3 0 2.1-.9t.9-2V31l-.5-.1q-1.5 0-2.6.9 2.2 2.3 2.2 5.6v.9l-.2 1.1-.6 1.6q-.6 1.1-1.5 2-2 2-4.7 2.3h-2.2q-2-.3-3.6-1.6l-1 1.4q-.6.6-1.4 1-.5-.2-1-.7-.9-.9-.9-2.1zm16.9 1.1h1.1z"/><path fill="none" stroke="#9f0" stroke-linecap="round" stroke-linejoin="round" stroke-width="__RESOLUTION__" d="m42.5 29.5.2.6-.2.6q-.3.3-.6.3l-.6-.3q-.3-.2-.3-.6l.3-.6.6-.2zM57.4 31q-.1-1.1-.9-1.9-.9-.9-2.1-.9h-12q-1.2 0-2.1.9t-.9 2.1v7.1h1.3l-.1-.7q0-3.6 2.3-5.9 2-1.9 4.6-2.2h2q2.7.3 4.7 2.3h.1q1.1-.9 2.6-.9zv12.4q0 1.2-.9 2-.9 1-2.1 1h-12l-1-.2q-.6-.2-1.1-.7-.9-.9-.9-2.1v-5m8.9 7h-.9q-2-.3-3.6-1.6L43 43q-2-2-2.2-4.6l-.1-.8q0-3.6 2.3-5.9 2-1.9 4.7-2.2h.4m-6.7 16.6q.7-.4 1.3-1l1-1.4-.8-.7q-2-2-2.2-4.6m7.5 7h.7l.6-.1q2.7-.3 4.7-2.3.9-.9 1.4-2l.7-1.6.2-1.1v-.9q0-3.2-2.2-5.5M43.7 43.7q1.6 1.3 3.6 1.5l1 .1m9.1-5.9h-1.1" vector-effect="non-scaling-stroke"/><path fill="#fff" d="M27.4 20.4q-1.1 0-1.8-.7-.8-.8-.8-1.8v-.1q0-1.1.8-1.8.7-.8 1.8-.8t1.9.8.7 1.8-.7 1.9-1.9.7m1.8-2.2V17zM42 77.1q.7-.8 1.8-.8t1.9.8.7 1.8-.7 1.8q-.8.8-1.9.8t-1.8-.7-.8-1.9.8-1.8m0 1.6v-1.2zm12 1.6q-.8.8-1.9.8t-1.9-.8-.7-1.6v-.2q0-1.2.8-1.9.7-.7 1.8-.7t1.9.7.7 1.9-.7 1.8M17.3 15.6q.7-.8 1.8-.8t1.9.8.7 1.9-.7 1.8q-.8.7-1.9.7t-1.9-.7q-.7-.8-.7-1.8 0-1.2.8-1.9m3.4 2.4v-1z"/><path fill="none" stroke="#535313" stroke-linecap="round" stroke-linejoin="round" stroke-width="2" d="M29.2 17v1.2M42 77.5v1.2m6.9-1.2.2 1.2M20.8 17v1"/><path fill="none" stroke="#535313" stroke-linecap="round" stroke-linejoin="round" stroke-width="1" d="M25.2 56.6q0-1 .7-1.6t1.6-.7 1.6.7q.6.6.6 1.5m-13 0q0-.9.6-1.5t1.6-.7 1.6.7.7 1.5"/></g></defs><g clip-path="url(#a)"><use xlink:href="#b" width="70.5" height="88.5" transform="translate(1 1)"/></g></svg>