<svg xmlns="http://www.w3.org/2000/svg" xmlns:xlink="http://www.w3.org/1999/xlink" width="47" height="26" viewBox="0 0 47 26"><defs><radialGradient id="a" cx="0" cy="0" r="819.2" gradientTransform="matrix(.1 0 0 .1 19.25 12.2)" gradientUnits="userSpaceOnUse" spreadMethod="pad"><stop offset=".2" stop-color="#8f9c60"/><stop offset=".8" stop-color="#725a37"/></radialGradient><clipPath id="b"><path d="M1 1h45v24H1z"/></clipPath><g id="c"><path fill="#aead8a" d="M95.8 26q-3.3-.2-4.7-1.1-1.8-1-2-4.4l-4 .6q-7 0-13.8-3.9-3.8-2-5.8-4.7l1.3-.2q6.8 4.8 22.4 6-.1 1.3.3 2.1 1.1 2 5.6.9-.1 2.6.7 4.7m-3.6 5.6q2.3-2.4 3.8-5 .7 1.1 1.7 2.1-2.2 1.6-5.5 2.9m-76 5-3.7 1-2.7-2.3q-2.5-2.3-4-5.2l3 2.1q2.5 1.8 5.3 3.3z"/><path fill="#c2c3b9" d="M65.5 12.5q2 2.7 5.8 4.8Q78 21 85 21l4-.6q.2 3.4 2 4.4 1.4.9 4.7 1.1l.3.6q-1.6 2.6-3.9 5H92q-5.3 2-8.8 2-35.4-2.2-35.4-12.2 0-3 6.5-5.8 5-2.2 11.2-3.1m-62.2 9q2.3-1 6.1-2.1 7.9-2.6 10.4-2.6 3.3 0 6.3 2.1 3.4 2.3 3.4 5.3 0 5.7-7.7 10.1-2.7 1.5-5.6 2.4l-2.1-1.1q-2.7-1.5-5.3-3.2l-3-2.2q-2.1-3.9-2.5-8.7"/><path fill="url(#a)" d="m66.4 11.8-1.5.2q-6.1.9-11.1 3.1-6.5 2.8-6.5 5.9 0 9.9 35.4 12.1 3.5 0 8.8-2h.2q-4.3 4.2-11.5 7.1-12.4 5-31 5-19 0-33.4-7 2.8-1 5.4-2.5 7.9-4.4 7.9-10 0-3.1-3.5-5.4-3-2.1-6.4-2.1-2.4 0-10.3 2.6-3.8 1.1-6.1 2.1l-.1-2.6q0-1.9.4-3.2l1.9.2q9.9 0 17.6-3.8 6.3-3.1 8.5-7.5 1.5.8 7.4 2.5 7 2 9.5 2 3.6 0 6.7-2.4l2.1.5 3.9.4H62l1 1.6q1.2 1.8 3.2 3.2m-19.6 22-6.5-.6-.2-.1h-.7q-.7-.1-5.2 1.3-4.7 1.4-2.7 2.5 5.3 4 11.6 4 9.4 0 9.4-3.7 0-2.3-5.7-3.4" transform="translate(.5 .5)"/><path fill="#604c2e" d="M97.7 28.8Q99 30 101.2 31q-.4 7.9-9.9 11.8t-34.7 4.8-44.1-10.1l3.8-1q14.3 7.1 33.5 7.1 18.5 0 31-5 7.1-2.9 11.4-7.2 3.3-1.2 5.5-2.7M61.9 4.9q.2 1.3.8 2.6H61L57.5 7l-2.2-.4Q52.2 9 48.5 9 46 9 39 7q-6-1.7-7.4-2.5Q29.4 8.9 23 12q-7.7 3.8-17.7 3.8l-1.8-.2.2-.4q18.8-3.7 24.8-13L32 3.7q11.9 5 23.8-1z"/><path fill="#000" fill-opacity=".3" d="M101.3 31.1q3.5 1.5 9.1 1.8-.6 4-3.7 7.8l-7.9 7.8Q87.1 60 58 60q-17.5 0-32.1-8.2-12.3-7-16.1-16.6l2.7 2.3q18.8 10.9 44.1 10Q81.9 47 91.3 43t10-11.8"/><path fill="#b8bba6" d="M47.2 34.3q5.7 1.1 5.7 3.4 0 3.8-9.4 3.8-6.4 0-11.6-4.1-2-1.1 2.6-2.5t5.3-1.2l.8-.1h.1z"/><path fill="none" stroke="#000" stroke-linecap="round" stroke-linejoin="round" stroke-opacity=".3" stroke-width="1" d="M95.8 26q-.8-2-.7-4.7-4.5 1.1-5.6-.9-.4-.8-.3-2-15.7-1.2-22.4-6.1-2-1.5-3.2-3.2l-1-1.6q-.5-1.3-.7-2.6-.2-1.5-.1-3M96 26.6l-.3-.6m1.9 2.8Q99 30 101.2 31q3.5 1.5 9.2 1.8h4.1M96 26.7q.7 1.1 1.7 2.1m-85.2 8.9q18.8 10.9 44.1 10Q81.9 47 91.3 43t10-11.8M3.7 15.6Q3 16.9 3 18.8l.2 2.6q.4 4.8 2.5 8.7 1.5 2.9 4 5.2l2.7 2.3M55.7 2.7l1-.5m5.2 2.7-6.2-2.2q-12 6-23.8 1l-3.2-1.5q-6.1 9.3-24.9 13l-.1.4m25-13.4.9-1.7M.5 15.8l2.3-.5 1-.2"/><path fill="none" stroke="#000" stroke-linecap="round" stroke-linejoin="round" stroke-opacity=".2" stroke-width="__RESOLUTION__" d="M94.1 43q4.4-5.5-5.1-11M55 48.8q1.2-1.4.8-4.8m-.7-2.4-.9-4.5m18-12.1-.7-.1m.9 22.9q2.6-2.2 2.4-4.5m-.2-1.4q-2.8-6.7-5.7-8.9M11 37.5q-1.3-2.7.6-5m.7-1 3-2.8m7.5-4.3 1.9-1.3M3 22q.8-3.1 3.9-3.8M45 6.7q-3.5 1.3-7 5.6m44.6 16.6-8.2-3" vector-effect="non-scaling-stroke"/></g></defs><g clip-path="url(#b)"><use xlink:href="#c" width="115" height="60.1" transform="translate(1 1)scale(.3909)"/></g></svg>