<svg xmlns="http://www.w3.org/2000/svg" xmlns:xlink="http://www.w3.org/1999/xlink" width="76" height="126" viewBox="0 0 76 126"><defs><g id="e"><path fill="#7b5e1a" d="m22.2 29.9-.5-3.6.4-.7Q23.7 27 25 29l.7 1.3-3.5-.1zv.2l3.5.1.1.3q.8 2.5-1.9 3.8-.7-2.2-2.1-3.9zm1.7 4.3 1.9-3.7z"/><path fill="#614914" d="m22 25.6-.3.6v.1l.5 3.6-.4.5-5-3.5-2.5-.9 1.1-3.9.7.1q3.6.7 6 3.4m-.4.6H17l-1-4 1 4zm-4.9.7.3-.8z"/><path fill="none" stroke="#000" stroke-linecap="round" stroke-linejoin="round" stroke-opacity=".2" stroke-width="__RESOLUTION__" d="m22 25.6-.3.6v.1l.5 3.6v.2l3.5.1h.1v.3l-1.9 3.7m-7.8-12 1 4h4.6m-4.6 0-.3.7m5 3.5.4-.5" vector-effect="non-scaling-stroke"/><path fill="none" stroke="#000" stroke-linecap="round" stroke-linejoin="round" stroke-opacity=".3" stroke-width="__RESOLUTION__" d="m25.7 30.2-.7-1.3q-1.3-1.9-3-3.3-2.2-2.7-6-3.4h-.6l-1 3.8 2.4.9 5 3.5q1.4 1.7 2.1 3.8v.1q2.7-1.3 1.9-3.8z" vector-effect="non-scaling-stroke"/><path fill="#7b5e1a" d="m29.2 15.8-.7 1.2q-1.3 2-3 3.3l-.3-.6.5-3.6-.4-.5q1.4-1.7 2.1-3.8v-.2q2.7 1.4 1.9 3.9l-1.9-3.7 1.9 3.7zl-3.5.1v.2-.2z"/><path fill="#614914" d="M25.6 20.3q-2.4 2.8-6 3.4l-.7.1-1-3.8 2.4-.9 5-3.5.4.5-.5 3.6zm-6 3.4 1-3.9h4.6-4.6zm.7-4.7.3.7z"/><path fill="none" stroke="#000" stroke-linecap="round" stroke-linejoin="round" stroke-opacity=".2" stroke-width="__RESOLUTION__" d="M29.3 15.5v.3h-.1l-3.5.1v.2l-.5 3.6h0l.4.6m3.7-4.8-1.9-3.7M25.7 16l-.4-.5m-.1 4.2h-4.6l-1 4m1-4-.3-.7" vector-effect="non-scaling-stroke"/><path fill="none" stroke="#000" stroke-linecap="round" stroke-linejoin="round" stroke-opacity=".3" stroke-width="__RESOLUTION__" d="m29.2 15.8-.7 1.2q-1.3 2-3 3.3-2.3 2.8-6 3.4l-.6.1-1-3.8 2.4-.9 5-3.5q1.4-1.7 2.1-3.8v-.2q2.7 1.4 1.9 3.9z" vector-effect="non-scaling-stroke"/><path fill="#725718" d="m22.1 6.3-.2.1-1.1-.7 1.1.7zl-.3-1.5q-.1-.8-.6-1l-.4 1.9-.6 3.3-.3 1.3h.2l1.8-3.9-1.8 3.9h-.2L17.8 14l-1.5 2.8.1.6 2.8-1.5.3.2 1.6-2.6.4-1q.5-.9.6-1.9l.1-2.2v-1zm-3 9.5 1-5.5zl.4.2-1.4 2.3q-1.3 2-4.2 4.1v-1.1l2.5-4z"/><path fill="#000" fill-opacity=".3" d="m21.6 12.4-.1.4q-.1 1.5-.9 2.8L19.1 18l-1.4 2.3q-1 2-3.7 3.8-1.6 2.4-2.7 2.8l-1.6.4q-2.8 3-4.9 2l-2.3-.2q-.7-.2-1-1.3h.1L4 28q2.3 1 5.4-2.2l1.7-.5q1.2-.4 2.8-2.9 3-2.1 4.2-4l1.4-2.4 1.6-2.6z"/><path fill="#a27b21" d="M1.5 27.8q-1.1-.5-1.2-3v-1.7l.3-2.9q.5-1.7 1.5-3.3l.1 2.8q-.3.4-.6 1.6l-.8 3 .5-.2q1-.2 2 .6l.5-1q-1-1.4-1-2.5l-.1-1.7-.5.2q-.3.4-.6 1.6l-.8 3 .5-.2q1-.2 2 .6l.5-1h1.4l2.4-.2-.2.4-2.8 2.4-1.3-1.6 1.3 1.6L4 28l-2.4-.2m-1.3-3 .5-.5z"/><path fill="#82631c" d="m2.1 16.9.4-.8 1-1.3-1 2.3.2 2.4-.5.2zm9.5 4.4 4.7-4.6.1.6-2.5 4v1.1q-1.6 2.5-2.8 2.9l-1.7.5.2-1.2 2-2.9 2.3-.4-2.3.4z"/><path fill="#8b6a1d" d="m7.6 23.5 2.6-1.7 1.4-.6v.6l-2 2.8-.2 1.2Q6.4 29 4 28l.6-1.7 2.8-2.4zm-.2.4 2.2.7z"/><path fill="none" stroke="#000" stroke-linecap="round" stroke-linejoin="round" stroke-opacity=".2" stroke-width="__RESOLUTION__" d="m20.8 5.7 1.1.7.2-.1m-2.2 4h.2l1.8-3.9M2.3 19.7q-.4.4-.7 1.6l-.8 3 .5-.2q1-.2 2 .6l.5-1M2 16.9l.1 2.8.5-.2M.8 24.3l-.5.5m4.3 1.5 2.8-2.4.2-.4m-3 2.8-1.3-1.6M4 28l.6-1.7m15.5-16-1 5.5.4.2m-3.2.7.1.6 2.8-1.5m-7.6 6-2 2.8-.2 1.2m4.5-3.4v-1.1l-2.3.4v-.4m4.8-4-2.5 4m-4.3 3.3-2.2-.7" vector-effect="non-scaling-stroke"/><path fill="none" stroke="#000" stroke-linecap="round" stroke-linejoin="round" stroke-opacity=".3" stroke-width="__RESOLUTION__" d="m22.1 6.3-.3-1.5q-.1-.8-.6-1m-1 5.2-.3 1.3-2.1 3.6-1.5 2.8-4.7 4.6-1.4.5-2.6 1.7-2.4.1-1.5.1q-.9-1.4-1-2.5v-1.7M22.1 6.3l.1 1v1l-.1 2.2q-.1 1-.6 2l-.4.9-1.6 2.6-1.4 2.3q-1.3 2-4.2 4.1-1.6 2.5-2.8 2.9l-1.7.5Q6.4 29 4 28l-2.4-.2h0q-1.2-.5-1.3-3v-1.7l.3-2.9q.5-1.7 1.5-3.3l.4-.8 1-1.3" vector-effect="non-scaling-stroke"/><path fill="#725718" d="M22.2.3q.6.1.8 1l.2 1.4-.1.1-1.2-.7zM22 2l1.2.7.1-.1.2 1v.9l-.2 2.1q0 1-.5 2l-.5.8-1.6 2.6-.3-.2-2.7 1.5-2.5 4v1q3-2.1 4.2-4l1.3-2.3-.3-.2-2.7 1.5-.1-.6q.3-.9 1.4-2.7l2-3.4.3-1.3zm1.2.7-1.9 3.8H21h.2zm-1.9 3.8-.9 5.3z"/><path fill="#000" fill-opacity=".3" d="M22.7 8.6V9q-.1 1.4-1 2.7l-1.4 2.4-1.4 2.2q-1 1.9-3.7 3.8-1.6 2.3-2.7 2.7l-1.6.5q-2.8 2.9-5 2l-2.2-.2Q3 25 2.7 24h.1l2.5.1q2.2.9 5.3-2.2l1.7-.6q1.2-.4 2.8-2.8 3-2.1 4.2-4l1.3-2.3 1.6-2.6z"/><path fill="#a27b21" d="M2.7 24q-1.2-.5-1.3-2.9v-1.7q.1-1.9.4-2.8.4-1.6 1.4-3.3l.2 2.8q-.4.4-.6 1.6L2 20.5l.4-.2q1-.1 2 .6l.5-1q-.9-1.3-1-2.4v-1.6l-.5.2q-.4.4-.6 1.6L2 20.5l.4-.2q1-.1 2 .6l.5-1h1.4l2.4-.2-.1.4-2.8 2.3-.5 1.6zm-1.3-3 .6-.6zm3-.2 1.4 1.5z"/><path fill="#82631c" d="m3.2 13.3.4-.7 1-1.3-.9 2.3.1 2.3-.4.2zm9.6 4 4.7-4.5v.6l-2.4 4v1q-1.6 2.4-2.8 2.9l-1.7.5.1-1.2 2-2.8 2.4-.5-2.3.5z"/><path fill="#8b6a1d" d="m8.7 19.7 2.6-1.8 1.5-.6v.5l-2.1 2.8-.1 1.2Q7.5 25 5.3 24l.5-1.6 2.8-2.3zm-.1.4 2.1.5z"/><path fill="none" stroke="#000" stroke-linecap="round" stroke-linejoin="round" stroke-opacity=".3" stroke-width="__RESOLUTION__" d="M23.2 2.7 23 1.2q-.2-.8-.8-1m1 2.5.2 1v.9l-.2 2.1q0 1-.5 2l-.5.8-1.6 2.6-1.4 2.3q-1.1 1.9-4 4-1.7 2.4-2.9 2.9l-1.7.5Q7.5 25 5.3 24H2.7q-1.2-.5-1.3-2.9v-1.7q.1-1.9.4-2.8.4-1.6 1.4-3.3l.4-.7 1-1.3M3.8 16v1.6q.1 1.1 1 2.4h1.4l2.4-.2 2.6-1.8 1.5-.6 4.7-4.5q.3-.9 1.4-2.7L21 6.6l.3-1.3" vector-effect="non-scaling-stroke"/><path fill="none" stroke="#000" stroke-linecap="round" stroke-linejoin="round" stroke-opacity=".2" stroke-width="__RESOLUTION__" d="m21.9 2.1 1.2.7.1-.1m-8.1 14.6 2.5-3.9-.1-.6M21 6.6h.2l1.9-3.8m-2.5 9.3-.3-.2-2.7 1.5m2.7-1.5 1-5.3m-18 9.5q-.4.4-.6 1.6L2 20.5l.4-.2q1-.1 2 .6l.5-1m.9 2.5 2.8-2.3.1-.4m-6.7.8-.6.6m1.8-7.8.2 2.8.4-.2M5.4 24l.5-1.6-1.4-1.5m10.7-2.5v-1l-2.3.4-2.1 2.8-.1 1.2m2.2-4.5v.5m-2.1 2.8-2.1-.5" vector-effect="non-scaling-stroke"/><path fill="#a27b21" d="m14.2 28.2-.6.3q-1.6.7-2.8-.7L10 27l-.5-1-.1-.1q-.7-1.6-.6-3.5l.2-.9q.5-2.4 2-3.4 3.1-2.2 4.1 0l.1 1.1.1 1.1-.8.5q-1 .7-1 1.7v.1l.2.8v.1l.1.1.4.7.1.1.9.7q.3.6.3 1.3-.3 1-1.4 1.8m-4-1.2q3.7.3 4.2-2.7-.5 3-4.2 2.7m-1.2-4.6q3.4-2.1 4.7.1-1.3-2.2-4.6-.1"/><path fill="#7b5e1a" d="M15.3 19.3q2.6.6 3.3 2l.4 2V25q-.4 2.2-1.8 3.2-.6.4-1.7.4l-1.3-.3q1.1-.9 1.4-1.8 0-.7-.3-1.3l-.9-.7v-.1l-.5-.7v-.1h-.1l-.2-.9q0-1 1-1.8l.8-.5zm3.7 4q-1.6-2.4-5.3.2 3.7-2.6 5.3-.2"/><path fill="none" stroke="#000" stroke-linecap="round" stroke-linejoin="round" stroke-opacity=".3" stroke-width="__RESOLUTION__" d="m14.2 28.2-.6.3q-1.6.7-2.8-.7L10 27l-.5-1-.1-.1q-.7-1.6-.6-3.5l.2-.9q.5-2.4 2-3.4 3.1-2.2 4.1 0l.1 1.1q2.6.7 3.3 2.1l.4 2V25q-.4 2.2-1.8 3.2-.6.4-1.7.4zq1.1-.9 1.4-1.8 0-.7-.3-1.3l-.9-.7m1-5.1v1l-.8.5q-1 .7-1 1.7m0 .1.2.8m0 .1.4.7" vector-effect="non-scaling-stroke"/><path fill="none" stroke="#000" stroke-linecap="round" stroke-linejoin="round" stroke-opacity=".1" stroke-width="__RESOLUTION__" d="M14.4 24.4v-.1q-.6 3-4.3 2.7m3.7-3.7q3.7-2.6 5.3-.2m-5.5-.8q-1.3-2.2-4.6-.1" vector-effect="non-scaling-stroke"/><path fill="#a27b21" d="m14 48.4-.7-1q-.5-2 2.8-2.4 1.6-.2 3.4 1.2l.6.5q-3.5.5-3 2.8-.6-.7-1.7-.6l-.8.2zm3.2 1.1q-.5-2.3 3-2.8 1.3 1.1 1.8 2.7v.1l.3 1v1q0 1.7-1.5 2.1l-.6.2q-1.4.1-2-.5-.5-.4-.6-1 .3-.4.1-1v-.8l-.1-.2zm5.1 1q-2.4 2.3-4.6.6 2.2 1.7 4.6-.7"/><path fill="#7b5e1a" d="m14 48.4.6.7.8-.2q1.2 0 1.7.6v.1l.4.7v.2l.1.7v.1q.1.6-.1 1 .1.6.6 1 .6.6 2 .4l-.7 1q-.8.7-1.4.7-1.5.2-3.1-1l-.1-.1-.9-1q-.7-.8-1-1.7-.3-1.3 1-3.2m3.6 2q-4 .3-3.6 2.9-.4-2.6 3.6-3"/><path fill="none" stroke="#000" stroke-linecap="round" stroke-linejoin="round" stroke-opacity=".3" stroke-width="__RESOLUTION__" d="m20.2 46.7-.6-.5Q17.7 44.8 16 45q-3.3.4-2.8 2.4l.6 1 .7.7.8-.2q1.2 0 1.7.6m3-2.8q1.3 1.1 1.8 2.7v.1l.3 1v1q0 1.7-1.5 2.1l-.6.2h0l-.7.9q-.8.7-1.4.7-1.5.2-3.1-1l-.1-.1-.9-1q-.7-.8-1-1.7-.3-1.3 1-3.2m3.6 2 .1.7m-.1-.9-.4-.7m.5 1.7q.1.6-.1 1 .1.6.6 1 .6.6 2 .4" vector-effect="non-scaling-stroke"/><path fill="none" stroke="#000" stroke-linecap="round" stroke-linejoin="round" stroke-opacity=".1" stroke-width="__RESOLUTION__" d="M17.1 49.6q-.5-2.4 3-2.9m-2.5 4.5q2.2 1.7 4.6-.7m-5-.9H17m-3.2 3.6q-.4-2.6 3.6-3" vector-effect="non-scaling-stroke"/><path fill="#a27b21" d="m10 53.7-.1.1-.6-.2q-1.5-.4-1.5-2v-1l.3-1v-.2q.5-1.6 1.8-2.7l.6-.5q1.8-1.4 3.4-1.2 3.4.4 2.8 2.4l-.6 1-.6.7-.9-.2q-1.1 0-1.7.6.5-2.3-3-2.8 3.5.5 3 2.8v.1l-.3.7-.1.2-.1.7v.1q-.1.6.2 1l-.6 1q-.7.6-2 .4m-2.2-3.2q2.5 2.4 4.6.7-2.2 1.7-4.6-.7"/><path fill="#7b5e1a" d="M16.1 48.4q1.3 1.9 1 3.2l-1 1.7-.9 1q-1.6 1.3-3.1 1.1-.7 0-1.5-.7l-.6-1q1.3.2 2-.4l.6-1q-.3-.4-.2-1v-.1l.1-.7v-.2l.4-.7q.6-.8 1.7-.7l.9.2zm0 4.9q.4-2.6-3.6-3 4 .4 3.6 3"/><path fill="none" stroke="#000" stroke-linecap="round" stroke-linejoin="round" stroke-opacity=".3" stroke-width="__RESOLUTION__" d="m10 53.7-.1.1-.6-.2q-1.5-.4-1.5-2v-1l.3-1v-.2q.5-1.6 1.8-2.7l.6-.5q1.8-1.4 3.4-1.2 3.4.4 2.8 2.4l-.6 1q1.3 1.9 1 3.2l-1 1.7-.9 1h0q-1.6 1.3-3.1 1.1-.7 0-1.5-.7zq1.3.2 2-.4l.6-1q-.3-.4-.2-1m.2-1-.1.2-.1.7m.5-1.6-.3.7m3.5-1.9-.6.7-.9-.2q-1.1 0-1.7.6" vector-effect="non-scaling-stroke"/><path fill="none" stroke="#000" stroke-linecap="round" stroke-linejoin="round" stroke-opacity=".1" stroke-width="__RESOLUTION__" d="M12.4 51.3v-.1q-2.2 1.7-4.6-.7m5.1-1q.5-2.3-3-2.8m2.7 3.5q4 .4 3.5 3" vector-effect="non-scaling-stroke"/><path fill="#f2c204" d="M20.1 52q2.1.7 3.8 2.4 1.6 1.5 2.4 3.2l.3.3q.7 2 .7 4.1 0 3.1-1.6 5.5l-1.2 1.6-.6.5q-2 2-4.6 2.8L17.6 74q-1.6-.5-2.6-1.3-4.1-.4-7-3.2l-.2-.2L6.6 68l-.7-1q2.4 1 4.8 1.3l.4.8 2.6-.8q2.9-.5 5.6-2.7 3.8-3.1 3.8-7.1l-2-5.3zm-.9 20.3.7-1.1zm-5-.4.8.8z"/><path fill="#9e7e03" d="M26.6 58q3.6 6.8 1.6 13-1.5-4.1-2.5-3.5 1.6-2.4 1.6-5.5 0-2.2-.7-4"/><path fill="#c79f05" d="M6.6 68q-.9 1.8-.8 6.3-2.8-3.5-2.1-8.4.2-1.9.9-3.9h.1q0 2.7 1.2 5z"/><path fill="#fcd844" d="M4.7 61.9q0-4.3 3-7.4H8l2.7-2q2.5-1.3 5.5-1.2 2.1 0 4 .8l1 1.1 2 5.3q0 4-3.8 7-2.7 2.3-5.6 2.8l-2.6.8-.4-.8q-2.4-.4-4.7-1.4-1.3-2.2-1.3-4.9z"/><path fill="none" stroke="#000" stroke-linecap="round" stroke-linejoin="round" stroke-opacity=".3" stroke-width="__RESOLUTION__" d="M20.1 52q2.1.7 3.8 2.4 1.6 1.5 2.4 3.2l.3.3q3.6 6.9 1.6 13-1.5-4-2.5-3.4l-1.2 1.6-.6.5q-2 2-4.6 2.8L17.6 74q-1.6-.5-2.6-1.3-4.1-.4-7-3.2l-.2-.2L6.6 68q-.9 1.8-.8 6.3-2.8-3.5-2.1-8.4.2-1.9.9-3.9l.1-.2q0-4.2 3-7.2l.2-.2 2.7-1.9q2.5-1.3 5.5-1.2 2.1 0 4 .8M5.9 66.9l.7 1.1m20-10q.7 1.8.7 4 0 3.1-1.6 5.5m-21-5.7v.2q0 2.7 1.2 5m14 4.2-.6 1.1m-4.2.5-.8-.9" vector-effect="non-scaling-stroke"/><path fill="none" stroke="#000" stroke-linecap="round" stroke-linejoin="round" stroke-opacity=".3" stroke-width="__RESOLUTION__" d="m14.6 58.4 1 1.3q.9-2.4 2.2-2.2l1 1.3q-1.5.6-2 3.3l2.3-.6v1.3l-2 .6v1.3m-2-3.9.5-1.1" vector-effect="non-scaling-stroke"/><path fill="none" stroke="#000" stroke-linecap="round" stroke-linejoin="round" stroke-opacity=".5" stroke-width="__RESOLUTION__" d="m19.3 68 2.5.4 1.3-2m-13.1.7 1.1 2 2.6-.8M12.5 71 11 69l-2.3.5m15.7-.4-2.7-.7-1.2 1.9" vector-effect="non-scaling-stroke"/><path fill="none" stroke="#000" stroke-linecap="round" stroke-linejoin="round" stroke-opacity=".2" stroke-width="__RESOLUTION__" d="m8.2 65.9-1.1-2.1m.2 2.7-1-1.2m18.1-1 .7-3.7m0 3.6.7-1.8" vector-effect="non-scaling-stroke"/></g><g id="d"><path fill="#000" fill-opacity=".3" d="m19.9 169.6 7.1-1 8.6-1 9.1-.7q12.2-.9 15.4 1.7l3 2.3.5.4 3.2 2.3q4.8 3.5 5 6.8.5 4.1-1.2 6.4l-.3.3q-2.5 2.7-9.7 4.3-7.6 1.5-19.1 5l-8.9 1q-7 .5-14.8-4.2l-1.6-1q.4-.3-4-2.9t-5.1-6q-.7-3.6 0-5.2l.1-.3v-.2q.8-5.1 5.6-6.2l5.3-1.3z"/><path fill="#000" fill-opacity=".3" d="m7.4 161.5 3.8-2.9.7-.7 3.5-3.1q3.9-3.4 18.5-2.2l11 1 10.3 1.3 8.6 1.3 2.1.7 6.3 1.7q5.7 1.5 6.7 8.3l.1.3v.5q1 2.2.1 6.9-.8 4.6-6 8t-5 3.8l-1.8 1.3q-9.5 6.5-17.9 5.8l-10.6-1.3q-13.8-4.7-23-6.8-8.7-2.2-11.6-5.7l-.4-.4q-2-3.1-1.5-8.7.4-4.3 6-9.1"/><path fill="#596237" d="M9.2 167.3q-2.4-7-7.3-13.9l1.6-.9q7 7.7 12 18.1l-1.5 1.8-2.5-5.6zm7.7.4 1.4-8.6 1.4.5q2.7 10.3 3.3 17.5l3.6 1.3q-.4-3 1.9-5.2l4.3 2q-2.3 2.4-.2 5.4l-3 3.7-1.2-2.7-7-.3-2-12.5zm-16 7-.9-4.9 5.3.3 1.8 5.5v.2l2.3-1.4-2.5 2.2z"/><path fill="#3c4125" d="m9.2 167.3 2.3-.5 2.5 5.6 1.5-1.8.5 1 .3.2.6-4.1 2.5 1.2 2 12.4 7 .3 1.2 2.7-.4.3-8.7 2-14.7-3-5-3.5.2-5.2v-.2l5.9 1.9 2.5-2.2 1.4-.7q-.5-3.2-1.6-6.4"/><path fill="#563d18" d="M94.6.5q6.4 0 11.3 2.2-6.5 11.6-8.4 19.7l-5.8-.5q.4-9.2 2.8-21.4"/><path fill="none" stroke="#000" stroke-linecap="round" stroke-linejoin="round" stroke-opacity=".3" stroke-width="1" d="M94.6.5q6.4 0 11.3 2.2-6.5 11.6-8.4 19.7l-5.8-.5q.4-9.2 2.8-21.4"/><path fill="#563d18" d="m82.6 31-5.5 19.7q-3.3-36-13-41.9 1-2.6 4.9-3h.2Q80.4 11.9 82.6 31"/><path fill="none" stroke="#000" stroke-linecap="round" stroke-linejoin="round" stroke-opacity=".3" stroke-width="1" d="M82.6 31Q80.4 11.8 69.4 5.8H69q-3.8.5-5 3 9.8 5.9 13.2 41.9zl.3-1.1zm-5.3 19.8-.2.8-.1.5"/><path fill="#563d18" d="M91.6 32.4q8.5-15.8 21.6-16.8l.1.1q3.8 1.9 4 4.6-11.7 1.3-26.7 31.4z"/><path fill="none" stroke="#000" stroke-linecap="round" stroke-linejoin="round" stroke-opacity=".3" stroke-width="1" d="M91.6 32.4q8.5-15.8 21.6-16.8l.1.1q3.8 1.9 4 4.6-11.7 1.3-26.7 31.4l-.2 1.1m1.2-20.4v-1.1zl-1 19.4"/><path fill="#a8762d" d="m92.1 17.6 5.5-.2 9.1 4.2-.7 3.8-1.4 1.3zm-19.5 4.3 6.8-3.6 7.5-.4L99 27.6l-4.4.7q-2.5 2.9-2.8 4.7z"/><path fill="#bf9131" d="m92.1 17.6 12.5 9.1-3.2 3.1.1-.2h.1l1-2.7-3.5.7-12.2-9.7zM70.6 27.8l.5-5.1 1.5-.7 19.2 11-4.2 1.5-.6-.1-11-1.8-.9-.7z"/><path fill="#503816" d="M101.4 29.8Q80.7 72.6 66.7 109q-15.5 40.1-23 72.6l-2.1 2.3-14.6 3.8 4.5-11.7q6.3-16.2 7.2-16.2t2 .7q-.4-4 12-32.7l8.1-18.8q4.4-10.5 4.4-11.2l-1.7-2q0-.8 7.4-14 7.4-13 7.4-14.8 0-1.2-.9-2.7l-.8-1.3q0-6 5.4-18.2l5-10.4h.6l4.2-1.4q.3-1.8 2.8-4.7l4.5-.7 3.5-.7-1 2.7z"/><path fill="#745620" d="m27 187.7-2 .5L8 186l12.4-17.7 4 1q13.3-16.6 23-43.7l-2.5-.8 6.2-14.1 1 .1 16.1-39 3.2-.3 2.1-8.2-3.7-1.4q4.5-11.1 5.2-30l.8.7L87 34.4l-5 10.4Q76.6 57.1 76.6 63l.8 1.3q.9 1.5.9 2.7 0 1.8-7.4 14.8-7.4 13.2-7.4 14l1.7 2q0 .7-4.4 11.2l-8.1 18.8q-12.4 28.7-12 32.7-1.1-.7-2-.7-1 0-7.2 16.1z"/><path fill="url(#a)" d="M9 185.5h-.2L7.1 181q22.2-29.6 36.7-57.4l6.7-13.7.7-1.5q19.3-42.6 20.3-81v-.1l4.5 4q-.7 18.9-5.2 30l3.8 1.4-2.2 8.2-3.2.3-16.1 39-1-.1-6.2 14.1 2.5.8q-9.7 27.1-23 43.7l-4-1z" transform="translate(-.9 .5)"/><path fill="none" stroke="#000" stroke-linecap="round" stroke-linejoin="round" stroke-opacity=".3" stroke-width="1" d="m104.6 26.7 1.4-1.3.7-3.8-9.2-4.2-5.4.2-5.2.3-7.5.4-6.9 3.6-1.4.8-.5 5.1h0v.1q-1 38.5-20.3 81l-.7 1.6-6.7 13.7Q28.4 152 6.2 181.6m98.4-154.9-3.2 3.1Q80.7 72.6 66.7 109q-15.5 40.1-23 72.6m27-153.7"/><path fill="#596237" fill-opacity=".6" d="M37.4 148.9v1q-.6 1-.6 2.1 0 1.3.9 1.8l2 1.4q2.3-1.3 8.7-4.1l.3 1.3-.7 6h-.7l-.1-4.6q-5.4 2.3-5.6 2.6-.5.7-1.5 3t-1 2.7q0 2 4.4 5.4 1.3-1.1 4.5-2.7-3 12-4.2 20.3l-17.3 3.4-18.7-2.8-1.7-4.2 8.2-11.2 1 3q7.8-6 7.8-6.4l-.4-4.4q-1 .4-2.7 2.2l-.1-.5q2.9-2.9 5-4.1l-1 5.8 2.6-2.5.2-.1q0 .8.5 1.6-1.6.1-3.2 2.3-1.4 1.8-1.4 2.8 0 .6 2.3 4.6 4.4-1.4 5.6-2.5.8-.9 4.4-6.7l2.6-3.7q2-3.1 2-4 0-.7-1.8-2l-1.8-1.4.2-1.9q.3-1.9 1-2.3l-1.9-.9q-.5.8-.1 1.8l-.6.3H34v-1.9l2.3-.7zm-3.6 11.7q-1.2 0-2.1.6l3.4-2.4.3 2.8-.1.8z"/><path fill="#745620" d="M75.8 34q1.8-5-1.9-15.1l12.3 2.7q1.7 7.3.6 14.8z"/><path fill="none" stroke="#000" stroke-linecap="round" stroke-linejoin="round" stroke-opacity=".3" stroke-width="1" d="m86.3 38.3-1.5 7m-9-11.2q1.8-5.1-1.9-15.2l12.3 2.7q1.7 7.3.6 14.8m-11-2.4-.3 2.5M84.3 48v1m-9.1-10.7-.8 2.9"/><path fill="#8d9e47" d="M47.7 162.5q4.6-11.4 11.8-20.2l2 1.1q-4.6 4.8-7.9 10.4l-4.9 9.6-.3-.1zm11.3 10 1.3-7 6-.4zm-31.3 9.8-3.1-3q2.4-4-1.4-7l.1-.1 3-1.4.8.5q2 2.3 2 7 0 1-1.4 3.8zm9.3-7.5.3-.2q-.6-9.3 1-22.8l2-.7.2.6q-2 7-2 18.4 0 6.3.5 6.8z"/><path fill="#596237" d="m61.5 143.4.3.2q-5.5 9-7.4 18.1l-3.4-.6-2.4 7.3-2.2-2.4 1.3-3.6.7.9.3.1q2.8-5.7 5-9.6 3.1-5.6 7.8-10.4m-6.1 27.7 3.4 1.7.2-.5 7.3-7.3h1.2l-.5 6.3-7.7 2.5zm-25.8 12.8-1.8-1.8v-.2q1.4-2.7 1.4-3.8 0-4.7-2-7l-.7-.5 2.5-1.2q3.6 2.8 3.6 6.8l4.5-1.6 2 2q-.4-.4-.4-6.7 0-11.4 1.9-18.4l3.3 10.7-3.3 1.5-.4 16.3-9.6.3z"/><path fill="#3c4125" d="M54.4 161.7q-1 4.2-1 8.4l2 1 3.9 2.8 7.8-2.6-.1.3 1.3 6.8-6.1 4.6-19.8 3.8-12.5-2.5-.4-.5 1-3.5 9.6-.4.4-16.2 3.3-1.5 1.7 5.3.4-.2.5-1.3 2.2 2.4 2.4-7.3z"/><path fill="none" stroke="#000" stroke-linecap="round" stroke-linejoin="round" stroke-opacity=".3" stroke-width="__RESOLUTION__" d="m102.7 20.8 2.2 2.5-.8 1.4m11.2-7.6q-4.7 0-6.7 1.7m-21 8.8 3.2.8 8.6-5-2-2.7-10.9-.9-2.2 1m3.1 3.5 4.5.3 1.7-1.9m3-13.2.7-3.3m-2.8 32.1-1 3.4m4.8-14.1q-2.8 4.8-3.7 9m-12.2.5-.7 3.8m21.7-15.7-1 .7m-.8-24.3q-2.7 6.2-3.1 10M81.8 21q1.6 7.6.8 13.5m-9.3-13.4q-1.2-5-3.5-8.2m8.1 6.6.5 5m-5 39-4-1.3-2.2.7-1.1 7.3 3.8-.5.7-4.1-2-1.4-.3 1.5m.8-13.4.5-2.4-1.2-1m-3.8 49.8-1.8-2.3-5.4 11.2M69.5 50l1-5m-25.8 79.7 4.7.8-7.7 19.1m9.4 2 1.3 1.8M64.8 99l-5.4 12.8 2.5 2.2m-2.5-2.2-.5 1m-6.1-2.9-3 1.1m-29 54.9 3.4-5.2-2.4-1m-11.3 27.4 2.1-1 8.8-13.6 5.4.6-2.3 6.6m-.2-19q3.4-4.8 7-11m-8.6 34.2-1.6 3.8-.4 2.1M45 163.7l10-30.3m-14.5 13.3-1.6 2.5" vector-effect="non-scaling-stroke"/></g><g id="c"><path fill="#1d1505" d="m5.9 8.8 3.5-4.3zL8.7 13h.7q.7-4.5 0-8.5L4.9.5l4.5 4v-4H4.7q-.7 4.2 0 8.3z"/><path fill="#35280b" d="M5.9 8.8 8.7 13h.7q.5 4.5 0 9.3h-.7L6 17.5H4.8q-.6-4 0-8.7zM8.7 13 6 17.5z"/><path fill="#47360e" d="M4.8 17.5H6l2.8 4.8L5.7 26h-1q-.8-4.2 0-8.6m1 8.6 3-3.9h.7q.5 3.6 0 8H9z"/><path fill="#5f4712" d="M4.8 26.1h.9L9 30.2l-2.9 4.2H4.8q-.9-3.7 0-8.3M6 34.4l3-4.1h.4q.4 3.4 0 7.6h-.6z"/><path fill="#755917" d="M4.8 34.4H6l2.7 3.5-2.2 4.6H4.8q-.9-4 0-8.1m1.8 8.1 2.2-4.6h.6q.3 4.4-.1 9h-.6z"/><path fill="#85651b" d="M4.8 42.5h1.8L8.8 47h.5q.6 3.7 0 7.9h-.5l-3.1-3.4 3-4.5-3 4.5h-1q-.6-5 0-9"/><path fill="#93701e" d="m5.7 51.5 3.1 3.4h.5q.8 3.2 0 6.9.9 3.4 0 7.1h-.6L6 65.3l2.9-3.5-3.2-3.4h-.8q-1.2-3 0-7zm3.1 10.4h.5zm-3.2-3.4L8.8 55z"/><path fill="#a27b21" d="M4.8 58.4h.8l3.2 3.4-2.9 3.5H4.7q-.6-3.6 0-7m0 7H6l2.8 3.6h.6q.8 3.7 0 7.5H4.8q-.9-1.6 0-4-.8-3.3 0-7.1m0 7h.8l3.6 4.2-3.6-4.2zm.8 0L8.8 69z"/><path fill="none" stroke="#000" stroke-linecap="round" stroke-linejoin="round" stroke-opacity=".1" stroke-width="__RESOLUTION__" d="M9.4 4.5 5.9 8.8 8.7 13h.7m0-8.5L4.9.5m-.2 8.3H6m-1.2 8.7H6L8.8 13m-4 13.1h.9l3-3.9L6 17.6m2.8 4.8h.6m-4.6 12H6l2.9-4L5.7 26M9 30.2h.4M4.8 42.6h1.8L8.8 38l-2.7-3.5M8.8 38h.6m-.1 9h-.6l-3 4.6L8.8 55h.5m-4.6-3.4h1m.2 13.8 2.9-3.5-3.2-3.4h-.8m0 6.9h1.1L8.7 69h.6m0-7.2h-.5m0-6.8-3.2 3.5m3.6 18-3.6-4h-.8m4-3.5-3.2 3.4M8.8 47l-2.2-4.5" vector-effect="non-scaling-stroke"/><path fill="none" stroke="#000" stroke-linecap="round" stroke-linejoin="round" stroke-opacity=".3" stroke-width="1" d="M9.4 13q.7-4.5 0-8.5v-4M4.9.5h-.2q-.7 4.2 0 8.3-.5 4.7 0 8.7-.8 4.4 0 8.6-.8 4.6 0 8.3-.8 4 0 8.1-.6 4 0 9-1.1 3.9 0 6.9-.6 3.3 0 6.9-.7 3.8 0 7-.8 2.5 0 4.2m4.7-54.2q.5-4.8 0-9.3m0 17.3q.5-4.6 0-8m0 15.6q.4-4.1 0-7.6m-.1 24.6q.6-4.2 0-8 .4-4.6 0-9m0 31q.9-3.7 0-7.2.8-3.6 0-6.8m0 14q.8 3.7 0 7.5h-.1"/><path fill="none" stroke="#a85a0d" stroke-linecap="round" stroke-linejoin="round" stroke-width="1" d="m1.6 48.3 1.3 2.9L4.4 48m1.3 7-2.8-3.8H.5"/></g><radialGradient id="a" cx="0" cy="0" r="819.2" gradientTransform="matrix(.19 0 0 .19 13.5 173.75)" gradientUnits="userSpaceOnUse" spreadMethod="pad"><stop offset="0" stop-color="#91672b"/><stop offset="1" stop-color="#a87935"/></radialGradient><clipPath id="b"><path d="M1 1h74v124H1z"/></clipPath></defs><g clip-path="url(#b)"><g transform="translate(28.45 110.5)"><use xlink:href="#c" width="10.3" height="77" transform="translate(18.7 -96.45)"/><use xlink:href="#d" width="117.8" height="197.4" transform="translate(-27.45 -109.5)scale(.6265)"/><use xlink:href="#e" width="29.9" height="74.5" transform="translate(11.3 -89.6)"/></g></g></svg>