<svg xmlns="http://www.w3.org/2000/svg" xmlns:xlink="http://www.w3.org/1999/xlink" width="86" height="146" viewBox="0 0 86 146"><defs><clipPath id="a"><path d="M1 1h84v144H1z"/></clipPath><g id="b"><path fill="#ad8136" d="m30.7 1.5 6.6-1 .6 1 .6 6-6.7 1.3zm20.6 0 5.4-.3v2.4l-5.5.3zM16 8.2l4.9-2.9 1.3 2-4.7 3.1z"/><path fill="#5c441d" d="m30.7 1.5 1.1 7.3-1.5 10.8-.4 2.5-.5 4.6L28 38q-3.1 26.8-4.7 54.3-1.3 22.7-1.6 46l-3-4.7q1.1-27.6 2.2-44.1 1.4-21 3.7-41.5l1.1-10 1.9-14 .8 1.4.8-7.5-.6-1zm20.7 0v2.4L37.2 18.2l.3-2.1v-.4z"/><path fill="#8c682d" d="m31.8 8.8 6.7-1.3-1 8.2v.4l-.3 2.1v.3l-.7 6.5-.1.4L35 38l-1 11q-2 21.6-3.1 43.4-1 19.3-1.4 39l-.1 5.9-7.7 1.1q.3-23.3 1.6-46 1.6-27.5 4.6-54.2l1.5-11.4.6-4.6.3-2.5z"/><path fill="#c1af6c" d="m38.6 7.5-.7-6h13.4L37.5 15.7zm18.2-5.9H84V22L65.5 32.3h-11l-4.3 18.8-11 3.4-5.2-5.6L35 38l1.4-12.6V25L56.8 3.6zM12.5 36.8 16 8.1l1.5 2.2L27.6 24l-1.9 14-1.1 10h-6.8zm8.2-31.5 9.9-3.8-2 15.5L22 7.3z"/><path fill="#dcc278" d="M84 22v109.3H29.5q.4-19.7 1.4-39Q32 70.5 34 48.9l5.1 5.6L50.3 51l4.3-18.8h11zM18.7 133.6 0 143.3 12.6 36.8 17.8 48h6.8q-2.4 20.6-3.7 41.5-1.1 16.5-2.2 44.1"/><path fill="#7c5d27" d="m28.6 17 .6.9-.7 7.5-1-1.4-10.1-13.6 4.8-3.2zM51.3 3.9l5.4-.3L36.5 25l.6-6.5.1-.3z"/><path fill="none" stroke="#000" stroke-linecap="round" stroke-linejoin="round" stroke-width="1" d="m37.9 1.5-.6-1-6.6 1L28.6 17m10-9.5-.7-6m13.4 0 5.4-.3v2.4L36.5 25l.6-6.5.1-.3.3-2.1v-.4zM29.5 131.3l-.1 5.9M15.9 8.2l4.9-2.9 1.3 2m6.3 18-.8-1.3-1.9 14M34 49q-2 21.6-3.1 43.4-1 19.3-1.4 39m7-106.3-.1.4L35 38l-1 11m3.5-33.2 1-8.2m-21.1 2.9-1.5-2.2m1.5 2.2L27.6 24m-1.9 14-1.1 10q-2.4 20.6-3.7 41.5-1.1 16.5-2.2 44.1"/><path fill="none" stroke="#816f38" stroke-linecap="round" stroke-linejoin="round" stroke-width="1" d="m37.2 18.2 14-14.3m-29 3.4 6.4 9.7"/><path fill="none" stroke="#ae954a" stroke-linecap="round" stroke-linejoin="round" stroke-width="1" d="m31.8 8.8-1.5 10.8-.4 2.5-.5 4.6L28 38q-3.1 26.8-4.7 54.3-1.3 22.7-1.6 46"/></g></defs><g clip-path="url(#a)"><use xlink:href="#b" width="84" height="143.3" transform="translate(1 1)"/></g></svg>