<svg xmlns="http://www.w3.org/2000/svg" xmlns:xlink="http://www.w3.org/1999/xlink" width="55" height="29" viewBox="0 0 55 29"><defs><path id="b" fill="#876123" d="M0-13.5 26.5 0 0 13.5-26.5 0z" transform="translate(26.5 13.55)"/><path id="a" fill="#693525" d="m34.7 9.6-5.3-2.9L8 17.5l-1.3-.7 25.7-13L26.8 1l-25 13.4-1.8-1L26.6 0l7.8 4-3.5 1.8 5.4 2.8L40 6.8l1.3.6-11.5 5.7 4.9 2.6 11.1-5.9 1.5.7-17.6 9 5.3 3-1.1.5-5.3-2.9-7.7 4-1.4-.7 13.9-7-4.7-2.6-13.5 7.4-1.9-.9z"/><use xlink:href="#a" id="e" width="47.3" height="24.1"/><use xlink:href="#b" id="d" width="53" height="27"/><clipPath id="c"><path d="M1 1h53v27H1z"/></clipPath></defs><g clip-path="url(#c)"><g transform="translate(27.5 14.55)"><use xlink:href="#d" width="53" height="27" transform="translate(-26.5 -13.55)"/><use xlink:href="#e" width="47.3" height="24.1" transform="translate(-26.5 -13.45)"/></g></g></svg>