<svg xmlns="http://www.w3.org/2000/svg" xmlns:xlink="http://www.w3.org/1999/xlink" width="49" height="58" viewBox="0 0 49 58"><defs><g id="f" fill="#813a26" fill-opacity=".1"><path d="M117.8 8.7q.3 1.3-7.9 5.5-2.2 1.3-6 2.3l-12.2.8q-8.9-.5-18 1.3l-14.3.2h-8.1l-30.6-2.4-7.4-.3q-6.3-.2-11-4.8Q.2 9.6 0 7.4t12.2-4.3q1.8-.6 5-1l14-.7q9.8.5 19.1 0l12.2-1 22.5.9 9.6 1 16.6 3q6.1 2 6.5 3.4"/><path d="M114.6 8.7q.3 1.2-7 4.9-2 1.2-5.4 2.1l-11 .7q-7.9-.4-16 1.2l-13 .2-7.2-.1-27.4-2-6.7-.3q-5.6-.2-9.8-4.4-2-1.4-2.2-3.5 0-2 11-3.8 1.7-.6 4.5-1L37 2.3q8.8.3 17.1 0l10.9-1 20.2.8 8.6 1 15 2.7q5.5 1.7 5.8 3"/><path d="M101.4 9q.2 1-5.6 3.9-1.5.9-4.2 1.7L83 15q-6.2-.3-12.6.9l-10.2.1h-5.7L33 14.5l-5.2-.2q-4.4-.2-7.7-3.5-1.5-1.1-1.6-2.7t8.6-3l3.5-.7 9.9-.5q6.9.4 13.4 0l8.6-.7 15.8.6 6.8.8 11.7 2.1Q101 8 101.3 9"/><path d="M99.6 6.7q4.4 1.4 4.7 2.3.2 1-5.6 3.9-1.5 1-4.2 1.6l-8.6.6q-6.2-.3-12.6.9l-10.1.1h-5.7L36 14.6l-5.2-.2q-4.4-.2-7.8-3.4-1.5-1.2-1.6-2.7Q21.3 6.5 30 5l3.5-.7 9.9-.5q6.9.3 13.4 0l8.5-.7 15.9.6 6.8.8z"/></g><g id="e"><path fill="#c29d5f" d="M1.3 11.5V9.8q.5-1.4 2.8-2.6l2.5-.8 4.2-.5h1.3v.4l-5.2.4q-4.6.8-4.6 3.2 0 1.6.9 2.7l1.4 1-1 .2-.4-.2q-1.5-1-1.9-2.1M12.2 10l1-.8q1 .1 1 .7t-2.6.8h-.3l.3-1.3H11l-.8.1-2 .5q.1.7 2.3.7h.7zm2-1.6.8-.7q3.2 1.5 3.2 2.4 0 1.9-4.3 2.6l-4.8.2H8l.5-.4-1.2.3q-3.4-.4-3.4-2.6 0-1.2 1.4-2 1.3-.7 2.5-.7h.1q.9-.1 1.1 1v.1h2.6l.3-1.3H9.1v1.3H9q-3.4.2-3.4 1.4 0 1.5 3.6 1.6l3.2-.2q3.8-.3 3.8-1.5 0-.6-1.1-1.2zM15.8 7l.4-.4 1.4.5q2.2 1.2 2.6 2.7v1.5q-.2.9-1.2 1.7l-.6.5-.8.4-1.2.5-.3.1-1.5.5-3.2.3H9.8l-1.5-.1-2.8-.6.8-.6 2.6.2 1.4-.2 1.7.1 2.4-.1h.1l.8-.2q4-.8 4-4 0-.7-.8-1.5-.7-.8-1.9-1h-.2z"/><path fill="#a07b3d" d="M1.3 11.5q.5 1.1 1.9 2l.7 5.2v.8q0 6.7-.8 12l-.5-.3q-.9-.8-1.3-1.7zm13.3 3.6 1.5-.5.3-.1 1.2-.5.8-.4.6-.5v5l-.3 6.4.3 4h-.2l-1 .7h-.2v.1l-1.4.6v3.6l-.6.2v-.1l-.2-1.1q-1.2-9.1-1.3-11.1l.3-2.9zm2.3 9.4V24zm0-1.5v-2.3z"/><path fill="#7e6130" d="m3.2 13.6.4.2 1.3 7.4v4.4-4.4l.6-6.5 2.8.6 1.4.1.2 2.1v1.4l-.4 7.9.2 4.3v1.4l-1.4-.1-1.9-.4v3.7l-2-.7-.4-.2-.8-.5v-2.7l-.1-.1q.7-5.3.8-12v-.8zm1.7 16.6v-3.4z"/><path fill="#967338" d="m3.6 13.8 1-.2 2.7-.8 1.2-.3-.6.4-1.6 1.2-.8.6-.6 6.5zm8.5-7.5v-.4V10l-.9.7.3-1.3.1-.8.3-1.3z"/><path fill="#c9a872" d="m4.6 13.6-1.4-1q-.9-1.1-.9-2.7 0-2.4 4.6-3.2l5.2-.4-.2 1H9.1v1.3H9q-3.4.2-3.4 1.4 0 1.5 3.6 1.6l3.2-.2q3.8-.3 3.8-1.5 0-.6-1.1-1.2l-1-.3-.2.2-.8.6q1 .1 1 .7t-2.6.8h-1q-2.2 0-2.2-.7l1.9-.5.8-.1h.4l.2-.8H9v-.1q-.2-1.1-1-1h-.2q-1.2 0-2.4.7-1.5.8-1.6 2 0 2.2 3.5 2.6zM15 7.7l.8-.6.6.3h.3q1 .2 1.8 1t.8 1.5q0 3.2-4 4l-.8.2-2.5.1-1.7-.1-1.5.2-2.5-.2L8 12.9h1l4.8-.2q4.3-.7 4.3-2.6 0-.9-3.2-2.4"/><path fill="#b08742" d="M20.3 11.4v18.1q-.4 1-1.5 1.8v-2.8h.1l-.2-4L19 18v-5q1-.8 1.3-1.7"/><path fill="#5e4823" d="m20.3 21.7 1.1.6-1.1 6.6zM10.7 51l-1.5-.1v-1.3q0-2.5.5-2.5.8 0 1 3zm-2.6-.2-2-.5h-.3l.5-1.2.3-1.1.7-4.8v-.3l1-10.5 1.4.1h.1v.2q0 3.8-1 9.4l-.1.9-.6 6.5zm-5.3-1.9-.8-.7-.6-.9V47q.4-1.2.7-3.1.6-3.7.6-10v-2.6l.4.3h.1v2.8l.8.5.4.2v4.1q.1 1.3-.5 4.5l-.4 2-.4 2-.2.7zm-1.5-7.7L.2 31.3l1.1.9zm1.9.1v-6.9z"/><path fill="#775b2b" d="M20.3 29.5v2.2q-.8.9-.8 2.5l.3 7.5v.9l-.1 3.5V48q-.6.7-1.7 1.3v-.9l-.4-6.5-.1-1.2-.1-3.5.3-4.7-.1-2.3v-1h.1l1.1-.7v2.8q1.1-.8 1.4-1.8m-2.9 20.2-1 .4-1.1.4q1.2-6 1.4-6.3.5 1.4.7 4.6zm-4.1 1.1h-.4v-3.6l-.2-4.7-.2-1.2q-.3-2.4-.3-4v-3l1.3-.1q-.2 3.6.6 4.5l.6-4.7 1-.2q0 3.4-1 8.5l-.2 1.1q-.8 4.1-1.1 6.8v.5zm-1.4.1h-1.1v-.8q-.2-3-1-3-.5 0-.5 2.5v1.2H8.1v-1.3l.6-6.5.2-1q1-5.5 1-9.3l-.1-.2h.8l-.2 2.6.5 5.9.3 1.7.6 7.6zm-10.5-4V29.5q.4.9 1.3 1.7l.1 2.6q0 6.3-.6 10-.3 1.9-.8 3.1m17.5-11.2v-4.4zm0 6v-2.9z"/><path fill="#8d6c34" d="M20.3 31.7V47l-.4.6-.2.4v-2l.1-3.4v-1l-.3-7.4q0-1.6.8-2.5M18 49.3l-.4.3h-.3V49q-.2-3.3-.7-4.7-.2.3-1.4 6.3h-.3l-1.2.3h-.5v-.1l.1-.5 1-6.8.3-1.1q1-5.1 1-8.5v-.1l.7-.2V30l1.3-.6v.9l.1 2.3-.3 4.7.1 3.5V42l.4 6.5zm-5.2 1.6h-1v-.6l-.7-7.6L11 41q-.5-4.7-.5-6l.3-2.5h.4v1.9l1-.1v3q0 1.6.3 4l.2 1.2.2 4.8zm3.4-15.1v-2.3zm-5.1.3v-1.7zm2.3-1.9 1.2-.2-.6 4.7q-.7-.9-.7-4.5"/><path fill="#6a5126" d="m5.8 50.3-1.7-.7-.3-.2-1-.6.1-.5.2-.7.4-2 .4-2q.6-3.2.5-4.5V35l2 .7V32l1.9.4-1 10.5v.3L6.6 48l-.3 1zM6.4 40v-4.4z"/><path fill="#8c6b35" d="M9.8 15.4h1.5l3.3-.3-.2 3.4-.3 2.9q.1 2 1.3 11l.2 1.2v.1l-1 .3-1.2.2-1.3.1h-1v-1.8H9.8v-.2L9.7 31l-.2-4.3.3-7.9.1-1.4z"/><path fill="none" stroke="#000" stroke-linecap="round" stroke-linejoin="round" stroke-opacity=".3" stroke-width="__RESOLUTION__" d="M12.1 5.9h-1.3l-4.3.5-2.4.8Q1.8 8.5 1.3 9.9v1.7q.4 1.1 1.8 2l.4.3 1.3 7.4v4.4M12 6.3v-.4V10l1-.8.8-.6m.2-.2.8-.7.9-.6.4-.4 1.4.5q2.2 1.2 2.6 2.7v11.8l1.3.6-1.2 6.6V47l-.4.6m-3.6 2.5-1.1.4h-.3M11 51h-.4l-1.5-.1H9m-3-.6h-.2l-1.7-.7-.3-.2m-2.4-2.1V41L.1 31.3l1.1.9V11.5m5 2.6-.8.6 2.8.6m3 .1 3.3-.3m3.8-1.5.6-.5q1-.8 1.3-1.7M7.9 12.9l-1.6 1.2m2.2-1.6-.6.4m3.3-2.2.9-.7m6.7 18.5v2.8q1.1-.8 1.4-1.8m0-.6v-7.2M17 24v.5m0-3.8V23m.8 6.3h-.1l-1.4.6v5.9m2.6-7.3-1 .7m-1.6 4.3-.6.2h0l-1 .3-1.2.2-1.3.1h-1v-1.8H9.8h0l-1.5-.1-1.9-.4v8.1m12.4-8.8v4.4m-7.7-1.4v1.8m7.7 2.7v3M5 26.8v3.4M4.4 35l-.4-.2-.8-.5v7m-.1-9.8-.5-.3q-.9-.8-1.3-1.7m1.9 4.8v-2.7l-.1-.1m3.3 4.2-2-.7m-3 6.1v-9m4.1-17.4-.6 6.5" vector-effect="non-scaling-stroke"/><path fill="url(#a)" d="M10.8 3.7q-1.3 4-9.4 4.1t-9.5-4v-15.2h18.8z" transform="translate(9.6 43.2)"/><path fill="#49532f" fill-opacity=".6" d="M15.6 41.6q.8 0 1.8 1.6 1 1.5 1.3 1.5.7 0 .8-2.5.2-2.6.6-2.6l.3.6v6.7Q19 50.9 11 51t-9.5-4v-7.4l.8-.3q.8 0 1.3 1.5.4 1.4 1.8 1.4l2.2-.9q.5 0 1.4 1.1.9 1 1.4 1z"/><path fill="#000" fill-opacity=".3" d="M13.8 8.5q1.8.9 1.8 2.3 0 1.2-1.8 2.2-1.9.9-4.5.9h-.6l-1.3-.1-3.6.2v.2l-2.4-1.4v-1l1.7-.4-.1-.7q0-1.3 1.9-2.2t4.4-.9 4.4.9M4.2 19.7v-.3z"/><path fill="#8fa392" d="M15.5 5v5.7q-.1.8-1.3 1.4V6.4q1.2-.7 1.3-1.4m-8.3 6.9q-.9-.6-1-1.2V5q.1.7 1 1.2z"/><path fill="#566959" d="M14.2 12q-1 .6-2.3.7h-1l-1.7-.1-.3-.1-.9-1.3V8.5l1-1.6h.3l1.6.2 1.3-.1q1.2-.1 2-.6h.1zm-6.7 0-.3-.1V6.2l.3.2.5 2.1v2.7z"/><path fill="#242d25" d="m8.9 12.5-.9-.2-.4-.2-.2-.1.6-.8zm0-5.6L8 8.5l-.5-2.1.3.1.2.1z"/><path fill="none" stroke="#000" stroke-linecap="round" stroke-linejoin="round" stroke-opacity=".3" stroke-width="__RESOLUTION__" d="M6.1 5v-.6q.3-.8 1.4-1.3V3q1.4-.6 3.3-.6 2 0 3.3.7t1.4 1.4v6.2q-.1.8-1.3 1.4-1 .5-2.3.6h-1l-1.7-.1-.3-.1-.9-.2-.4-.2h0l-.2-.1-.2-.1q-.9-.6-1-1.2V4.4m8 2q-1 .5-2.1.6H9.2L9 6.9 8 8.5v2.7l.9 1.3M15.5 5q-.2.8-1.2 1.4h-.1m-5.3.5L8 6.6l-.2-.1-.3-.1.5 2.1m-.5-2.1-.3-.2q-.9-.5-1-1.2m0 5.7V10M8 11.2l-.6.8" vector-effect="non-scaling-stroke"/><path fill="#242d25" d="m9.9 9.8-.2.7-.4.3q-.3 0-.5-.3l-.2-.7.3-.7.3-.3q.3 0 .5.3z"/><path fill="none" stroke="#000" stroke-linecap="round" stroke-linejoin="round" stroke-opacity=".3" stroke-width="__RESOLUTION__" d="m9.9 9.8-.2-.7q-.2-.3-.4-.3l-.5.3-.2.7.3.7q.1.3.3.3l.5-.3z" vector-effect="non-scaling-stroke"/><path fill="#242d25" d="m6.6 9.4.1-.7.3-.3q.3 0 .4.3t.2.7l-.2.7q-.1.3-.4.3l-.3-.3z"/><path fill="none" stroke="#000" stroke-linecap="round" stroke-linejoin="round" stroke-opacity=".3" stroke-width="__RESOLUTION__" d="m6.6 9.4.1.7.3.3q.3 0 .4-.3t.2-.7-.2-.7q-.1-.3-.4-.3l-.3.3z" vector-effect="non-scaling-stroke"/><path fill="#392c15" d="M33.9 17.6v5.7q-.1.8-1.3 1.4V19q1.1-.6 1.3-1.4m-3.6 7.7h-1l-1.8-.1v-1.6l.1-4h2.9zm-4.3-.6q-1.2-.6-1.4-1.4v-5.7q.1.8 1.3 1.4l.3.1q.2 2.7-.2 5.6"/><path fill="#503d1d" d="M32.6 24.7q-1 .5-2.4.6l.3-5.7q1.1-.1 2-.6h.1zm-5 .5-1.6-.5q.4-2.9.2-5.6l1.4.5-.1 4z"/><path fill="none" stroke="#000" stroke-linecap="round" stroke-linejoin="round" stroke-opacity=".3" stroke-width="__RESOLUTION__" d="M24.5 17.6V17q.3-.8 1.4-1.3v-.1q1.4-.6 3.3-.6 2 0 3.3.7T34 17v6.2q-.1.8-1.3 1.4-1 .5-2.4.6h-1l-1.7-.1-1.5-.5h0q-1.2-.6-1.4-1.4V17m3 2.6-1.4-.5-.3-.1q-1.1-.6-1.4-1.4m6 2h-2.9m-3 3v.7m8-4.3q-1 .5-2.1.6m2.1-.6q1.1-.6 1.3-1.4" vector-effect="non-scaling-stroke"/><path fill="#49532f" fill-opacity=".6" d="m24.8 19.7.3-.2q.4 0 .6.8.3.7 1 .7l1-.4.7.5.8.5 2.4-1q.5 0 1 .8l.5.8q.4 0 .5-1.2.1-1.3.3-1.3l.1.3v3.3q-.6 2-4.6 2t-4.6-2z"/><path fill="#000" fill-opacity=".3" d="M24.2 19.4q0-1.1 1.4-2 1.5-.7 3.5-.7t3.5.7q1.4.9 1.4 2 0 1-1.4 1.9-1.5.7-3.5.8-2-.1-3.5-.8-1.4-.8-1.4-2"/><path fill="#566959" d="m23.5 7.1 2.3 1.2q-.4 0-.4.4 0 1.1 1.6 1.1h.5l-.1.6q0 .6.9 1.3t1.7.7q1.6 0 2-1l.5.3.5 1-.1.4q-.4 2.3.4 6.7-1.6.8-4 .8l-.8-.1v-7l-.4-1.1L22 8.9l.9-1.3z"/><path fill="#6c8470" d="M33.3 19.8q-.7-4.4-.4-6.7v-.4l-.4-1-.5-.2q-.4.9-2 .9-.9 0-1.7-.7-1-.7-1-1.3l.2-.7-.5.1q-1.6 0-1.6-1.1 0-.3.4-.4L23.5 7l1.1-.4 2.5.3h.1l.2.1 6.6 3.3.6 1.2v.3q-.1 2.8.4 5.6l-.1.6q-.2.9-1.6 1.7"/><path fill="#616134" d="m23.5 7.1-.6.5-5.1-2.7q-1.6-1.5-3.6-2.4l-1.8-.8-2.7-1-1-.5h3l12.9 6.5z"/><path fill="#4f4f2b" d="M22.9 7.6 22 8.9l-.3.7-5.2-2.2q-2.1-1-4.1-3.3L10.3 3Q9 2.4 8.2 2.4l-1.8.3v-.5l1.2-2h1.2l.9.5 2.7 1 1.8.8q2 .9 3.6 2.4z"/><path fill="#39463c" d="m22 8.9 6.1 3.5.4 1.1v7l-1.1-.1v-7.1l-5.9-3.2.2-.5zM24.4 19l-.6-1v-3l-.9-.4q-.9-.6-1.2-1.4l-.3-.6 2.4 1 .6.3zm-.6-5.3v1.4z"/><path fill="#414123" d="m6.4 2.7 1.8-.3q.8 0 2.1.6l2.1 1q2 2.3 4.1 3.3l5.2 2.2-.2.5q-.4 1.5-.1 2.6l.3.6-15-7.5-.3-.8z"/><path fill="#2c362e" d="m21.5 10.1 5.9 3.2v7.1q-1.1-.2-2-.6l-1-.7V14l-.6-.2-2.4-1.1q-.3-1.1.1-2.6"/><path fill="none" stroke="#000" stroke-linecap="round" stroke-linejoin="round" stroke-opacity=".3" stroke-width="__RESOLUTION__" d="m23.5 7.1-.6.5-.9 1.3h0l-.3.7-.2.5q-.4 1.5-.1 2.6l.3.6q.3.8 1.2 1.4l.9.5V18l.6 1 1 .7q.9.4 2 .6l1.1.1h.8q2.3 0 4-.7h0q1.4-.8 1.6-1.7v-.6q-.4-2.8-.2-5.6v-.3l-.7-1.2L27.4 7H27l-2.5-.3zm-1.9 6.2L6.7 5.8 6.4 5V2.2l1.2-2h4.1l12.9 6.5m-.8 8.5v-1.4" vector-effect="non-scaling-stroke"/><path fill="#392c15" d="M33.8 17.3q-.2.5-.6.5t-.6-.5-.2-1.2.2-1.2l.6-.5q.3 0 .6.5l.3 1.2z"/><path fill="none" stroke="#000" stroke-linecap="round" stroke-linejoin="round" stroke-opacity=".3" stroke-width="__RESOLUTION__" d="m33.8 17.3.3-1.2-.3-1.2q-.2-.5-.6-.5l-.6.5q-.2.5-.2 1.2t.2 1.2.6.5.6-.5" vector-effect="non-scaling-stroke"/><path fill="#392c15" d="M31.1 18.3q-.2.5-.6.5t-.6-.5-.2-1.2.2-1.2l.6-.5.6.5.3 1.2z"/><path fill="none" stroke="#000" stroke-linecap="round" stroke-linejoin="round" stroke-opacity=".3" stroke-width="__RESOLUTION__" d="m31.1 18.3.3-1.2-.3-1.2-.6-.5-.6.5q-.2.5-.2 1.2t.2 1.2.6.5.6-.5" vector-effect="non-scaling-stroke"/></g><g id="d" fill="#000" fill-opacity=".1"><path d="M117.8 8.7q.3 1.3-7.9 5.5-2.2 1.3-6 2.3l-12.2.8q-8.9-.5-18 1.3l-14.3.2h-8.1l-30.6-2.4-7.4-.3q-6.3-.2-11-4.8Q.2 9.6 0 7.4t12.2-4.3q1.8-.6 5-1l14-.7q9.8.5 19.1 0l12.2-1 22.5.9 9.6 1 16.6 3q6.1 2 6.5 3.4"/><path d="M114.6 8.7q.3 1.2-7 4.9-2 1.2-5.4 2.1l-11 .7q-7.9-.4-16 1.2l-13 .2-7.2-.1-27.4-2-6.7-.3q-5.6-.2-9.8-4.4-2-1.4-2.2-3.5 0-2 11-3.8 1.7-.6 4.5-1L37 2.3q8.8.3 17.1 0l10.9-1 20.2.8 8.6 1 15 2.7q5.5 1.7 5.8 3"/><path d="M101.4 9q.2 1-5.6 3.9-1.5.9-4.2 1.7L83 15q-6.2-.3-12.6.9l-10.2.1h-5.7L33 14.5l-5.2-.2q-4.4-.2-7.7-3.5-1.5-1.1-1.6-2.7t8.6-3l3.5-.7 9.9-.5q6.9.4 13.4 0l8.6-.7 15.8.6 6.8.8 11.7 2.1Q101 8 101.3 9"/><path d="M99.6 6.7q4.4 1.4 4.7 2.3.2 1-5.6 3.9-1.5 1-4.2 1.6l-8.6.6q-6.2-.3-12.6.9l-10.1.1h-5.7L36 14.6l-5.2-.2q-4.4-.2-7.8-3.4-1.5-1.2-1.6-2.7Q21.3 6.5 30 5l3.5-.7 9.9-.5q6.9.3 13.4 0l8.5-.7 15.9.6 6.8.8z"/></g><g id="c"><path fill="#813a26" d="M2.3 12V.3H3V12q.3 4.1 1.5 6.6.4.6.4 1.3 0 1-.6 1.6-.8.8-1.8.8T1 21.5Q.3 20.8.3 20q0-.7.3-1.3l.3-.3q1-2.5 1.4-6.3m1.3 6.3-.7.2-.3.6.3.7q.2.2.7.2.3 0 .5-.2l.3-.7-.3-.6z"/><path fill="#d68876" d="m3.6 18.3.5.2.3.6-.3.7q-.2.2-.5.2-.5 0-.7-.2l-.3-.7.3-.6z"/><path fill="none" stroke="#d68876" stroke-linecap="round" stroke-linejoin="round" stroke-opacity=".5" stroke-width="__RESOLUTION__" d="M2.3 12q-.4 3.8-1.4 6.3l-.3.3q-.3.5-.3 1.3 0 1 .6 1.6.7.8 1.7.8t1.8-.8q.6-.7.6-1.6 0-.7-.4-1.2Q3.4 16 3.1 12V.3h-.8z" vector-effect="non-scaling-stroke"/></g><linearGradient id="a" x1="-819.2" x2="819.2" gradientTransform="matrix(0 -.02 -.01 0 .95 5.15)" gradientUnits="userSpaceOnUse" spreadMethod="pad"><stop offset="0" stop-color="#000" stop-opacity="1"/><stop offset="1" stop-color="#000" stop-opacity="0"/></linearGradient><clipPath id="b"><path d="M1 1h47v56H1z"/></clipPath></defs><g clip-path="url(#b)"><g transform="translate(18.05 44.2)"><use xlink:href="#c" width="5.3" height="22.5" transform="translate(17.5 -21.65)"/><use xlink:href="#d" width="117.8" height="18.8" transform="matrix(.3004 -.0055 0 .758 -17.05 -2.9)"/><use xlink:href="#e" width="35.1" height="51.1" transform="translate(-9.6 -43.2)"/><use xlink:href="#f" width="117.8" height="18.8" transform="matrix(-.1523 -.0028 0 .3843 29 4.8)"/></g></g></svg>