<svg xmlns="http://www.w3.org/2000/svg" xmlns:xlink="http://www.w3.org/1999/xlink" width="108" height="277" viewBox="0 0 108 277"><defs><clipPath id="a"><path d="M1 1h106v275H1z"/></clipPath><g id="b"><path fill="#dd6f00" d="M81.8 121.6q.8 1.8 0 3h-57v-.2q-.6-.7 0-2.8z"/><path fill="#837549" d="m81.8 124.5 2.3 1.3 13.4 7.2 2.1 2.1H82.3l-5.5-2.3 1 2.3H28.9l-1.3-3-7.4 3H6l2.3-2.5 8.9-4.4 2-1 2.8-1.4 2.6-1.3v.1z"/><path fill="#b3a475" d="m99.6 135.1 2.1 2.2 2.2 8.2 1.5 5.5H.4l.7-2.5 1.7-6.3.9-3.3.4-1.6 2-2.2h14l7.5-3 1.3 3h48.9l-.1 6.1-1 3L83 139l-.6-3.9z"/><path fill="#6b5e3f" d="m105.1 151-12.2 2.6-4 .1H13.7L.4 151z"/><path fill="#4d432d" d="m89 153.7-7.2 3.5h-57v.3l-7.5-3.9z"/><path fill="#834100" d="M81.8 157.3v1.6h-57v-1.7z"/><path fill="#928765" d="M81.8 159v24.6h-57V159z"/><path fill="#c6b58c" d="M81.8 183.6V275h-57v-91.4zm-57-62V12.9h57v108.7z"/><path fill="#a5935a" d="m77.8 135.1-1-2.3 5.5 2.3.6 3.8-6.2 5.3 1-3z"/><path fill="none" stroke="#000" stroke-linecap="round" stroke-linejoin="round" stroke-opacity=".3" stroke-width="__RESOLUTION__" d="m81.8 124.5 2.3 1.3m19.8 19.7 1.5 5.5h-.3l-12.2 2.6-4 .1-7.2 3.5m-57 .3-7.4-3.9h-3.7L.4 151l.7-2.5m1.7-6.3.9-3.3m13.6-10.7 2-1m2.8-1.4 2.6-1.3h0m0 .1h57M.5 151h104.7m-87.8 2.6 71.7.1M24.8 159h57m-57-1.7h57" vector-effect="non-scaling-stroke"/><path fill="none" stroke="#de8732" stroke-linecap="round" stroke-linejoin="round" stroke-width="__RESOLUTION__" d="M81.8 121.6h-57" vector-effect="non-scaling-stroke"/><path fill="#f9f8db" d="m44.3 3.5 7-3.5 5.5.5 9.6 4.9L61 8.2l-7.8-4.1-2.9 1.4-2-1 2 1-5.1 2.8-5.1-2.7zl3.4 1.8z"/><path fill="#f8f7d1" d="m66.4 5.4 3.4 1.8 4.8 2.4 4.4 2.2.8 1.4H69l.7-.4-1.5-.8-1-.5-.7-.3 2.2-1.7 5.9.1h-6l-2.1 1.6-5.5-3zm-30 7.8h-9.7l.9-1.3 1.9-1L40 5.6l5.1 2.7-6.4 3.4-1 .6-1.5.8zm32.3-3.7 1.1-2.2zm-36.2 3.7-.2-.2-2.8-2 2.8 2zm-.4 0 .1-.2z"/><path fill="#f5d681" d="M69 13.2h-3l2.2-1.2 1.5.8zm-29.6 0h-3l-.1-.1 1.5-.8z"/><path fill="#e2c577" d="M66 13.2H39.4l-1.6-.9 1-.6 28.4-.2 1 .5z"/><path fill="#fae8b8" d="m66.5 11.2.7.3-28.4.3 6.4-3.5 5.1-2.8 2.9-1.4L61 8.3zM54.4 8l-1.9-2-2.1-.5 2.1.5z"/><path fill="none" stroke="#000" stroke-linecap="round" stroke-linejoin="round" stroke-opacity=".2" stroke-width="__RESOLUTION__" d="m44.3 3.5 3.4 1.8m26.9 4.3h-6l-2.1 1.6M50.4 5.5l2.1.5 1.9 2m15.4-.7-1.1 2.2m-18.3-4-2-1m-19 6.4 2.9 2.1.2.2m-.2-.2-.2.2" vector-effect="non-scaling-stroke"/><path fill="none" stroke="#000" stroke-linecap="round" stroke-linejoin="round" stroke-opacity=".3" stroke-width="__RESOLUTION__" d="M79.9 13.2H25.4" vector-effect="non-scaling-stroke"/><path fill="none" stroke="#000" stroke-linecap="round" stroke-linejoin="round" stroke-opacity=".3" stroke-width="1" d="m66.5 11.2.7.3 1 .5 1.5.8-.7.4m-2.5-2-5.5-3-7.8-4.1-2.9 1.4-5.1 2.8-6.4 3.4-1 .6-1.5.8.1.1m24.6-5 5.4-2.8m-21.2 3-5.1-2.8"/><path fill="#d2c291" d="M67.6 65.3v-4.5l1.3-1H76l1.5 1v3.7l-1.1.8zM43 84.5v-7l2-1.7h11.5l2.5 1.7v4.1l-3.8 3zm34.6 147.9v7h-16v-7l2.1-1.7h11.4zM57 233.8v4h-9v-4l1.2-1h6.4zM36 63.4V59l1.3-1h7.3l1.5 1v3.8l-1.2.6zm7 169.5v7.1H26.9v-7.1l2.2-1.8h11.4z"/><path fill="none" stroke="#000" stroke-linecap="round" stroke-linejoin="round" stroke-opacity=".3" stroke-width="__RESOLUTION__" d="M77.6 60.8v3.7l-1.1.8h-9M59 77.5v4.1l-3.8 3H43m34.6 147.9v7h-16m-4.6-5.7v4h-9M46.2 59v3.8l-1.2.6h-8.9M43 232.9v7.1H26.9" vector-effect="non-scaling-stroke"/></g></defs><g clip-path="url(#a)"><use xlink:href="#b" width="105.8" height="275" transform="translate(1 1)"/></g></svg>