<svg xmlns="http://www.w3.org/2000/svg" xmlns:xlink="http://www.w3.org/1999/xlink" width="85" height="45" viewBox="0 0 85 45"><defs><clipPath id="a"><path d="M1 1h83v43H1z"/></clipPath><g id="b"><path fill="#e7e0d3" d="m25.8 1 16 8.5q21 7.7 33.4 15.1l1.3 1.1 1 .6 4.5 1.3.3.6-2.3 1.4-3.8 1.4-.2.1v-.3l-1.2-.7q-.3.2-.7-.3l-.3-.5 1.5-1.6-1.8 1.4q-2.3-1.1-4-1.6l-12.2-5.7-.1-.1q-2.2-3.1-5.5-2.5L40 13.5q-.1-.1.3-.1l-2.3-.8-5.1-2.5 2.8.2-.6-.1L30.6 9q-.7 0-5.4-2.3l2.9-1-5-.7q-1.6 0-2.7-.6L20 4l-.5-.1 1.7-1-3 .5L22 1.9l3.8 1.3-2.1-1.6z"/><path fill="#928c7f" d="m25.8 1-2.1.6 2.1 1.6L22 1.9l-3.8 1.5h-.4l-.6-.1-2.8-.8L22.3.1l2-.1zm53.9 34.3-1.6.8h-4.3l.9-.8-.5-3.4H76v-.6l.7 2.2zm-3.8-4.2"/><path fill="#615b48" d="m18.2 3.4 3-.5-1.7 1h.5l.4.5q1.1.7 2.7.6l5 .8-2.9.9Q30 9.1 30.7 9l4.5 1.2.6.1-2.9-.2 5.2 2.5 2.3.8q-.4 0-.3.1l11.8 5.7q3.3-.6 5.4 2.5l.1.1 12.2 5.7q1.7.5 4 1.6l1.8-1.4-1.5 1.6.3 2.5h.2l.4 3.5-14.9-7.8q-.5-1.2-.7-2.6l-1 .4-3.6-.6-8.3-4.4-.5-1.2-.2-.9-1 1.2L33 13.2l-.2-.4-.4-.3-7.6-2.6-1.7-.3-2.8-1.7-3-.4-.5-3.1.5-1.2.6.2z"/><path fill="#f1ede7" d="m73.8 29.4.3.4q.4.5.8.3l1.1.7v.3h-.1l.1.2v.5h-2z"/><path fill="#bdb9b1" d="m76 31.1.2-.1 3.8-1.4 2.3-1.4.4 1-.7 3-.3.7-1 .8-1 1.6-3-1.8-.7-2.2z"/><path fill="#4e473d" d="M73.8 36.1 32.2 14.4v.3l-4.4-2-.8-.5-6.3-2.5-3.2-1-.2-1.2 2.9.4L23 9.6l1.7.3 7.6 2.6.4.3.1.4 11.7 6.2 1-1.2.2.9.5 1.1 8.3 4.5 3.6.6 1-.4q.1 1.4.7 2.6l14.9 7.8z"/><path fill="#564f41" d="m17.5 8.8-2.2-.6.1-1-.2-1.5-.8-3.2 2.8.8-.5 1 .6 3.2z"/><path fill="#e7e0d3" d="m18.1 4.4 16 8.5q21 7.7 33.4 15.1l1.3 1.1 1 .7 4.5 1.2.3.6-2.3 1.4-3.8 1.4-.2.1v-.2l-1.1-.8q-.4.2-.8-.3l-.4-.5 1.7-1.6-2 1.4-4-1.6-12-5.6-.2-.2Q47.4 22 44 22.6l-11.7-5.7-.4-1.3-1.6.4-5.2-2.5 1.3-1.8h-.1l-3.3.8-.1-.1q-.7 0-5.3-2.3l2.8-1-5-.7q-1.6 0-2.7-.6l-.4-.4-.5-.2 1.7-.9-3 .5 3.8-1.5 3.8 1.3L15.9 5z"/><path fill="#bdb9b1" d="m74.6 31.6.4 1-.7 3-.3.7-1 .8-1 1.6-3-1.9-.7-2-.1-.2v-.1h.1l.2-.1 3.8-1.4z"/><path fill="#928c7f" d="m72 38.7-1.6.8h-4.3l.9-.7-.5-3.5h1.8v-.5l.7 2zM6.7 5.9l7.9-2.4 2-.1 1.5 1-2.2.6 2.2 1.6-3.8-1.3-3.8 1.5H10l-.6-.1zm61.5 28.7v-.1"/><path fill="#4e473d" d="M66.1 39.5 24.5 17.8v.3L20 16l-.8-.5-6.3-2.5-3.2-1-.2-1.2 2.9.3 2.8 1.8 1.7.3 7.6 2.6.3.3.3.4 11.6 6.2 1-1.2.2.8.5 1.3 8.3 4.4 3.6.6q.6-.4 1-.4.1 1.5.8 2.6l14.9 8z"/><path fill="#564f41" d="m9.8 12.2-2.2-.6.1-1-.1-1.5-.9-3.2 2.8.8-.5 1 .6 3.2z"/><path fill="#615b48" d="m10.5 6.8 3-.5-1.7 1h.5l.4.5q1.1.6 2.7.6l5 .8-2.8.9q4.6 2.3 5.3 2.3h.1l3.3-.7-1.2 1.8 5.2 2.5 1.6-.4.4 1.3L44 22.6q3.3-.6 5.4 2.4l.2.3 12 5.6 4 1.6 2-1.4-1.7 1.6.3 2.5h.3l.4 3.5L52.2 31q-.7-1.1-.9-2.6-.3 0-.9.4l-3.6-.6-8.3-4.4-.5-1.2-.2-.9-1 1.2-11.6-6.2-.2-.4-.4-.3-7.6-2.7-1.7-.2-2.8-1.7-3-.4L9 7.7l.5-1 .6.1z"/><path fill="#f1ede7" d="m66 32.8.4.4q.4.5.8.3l1.1.8v.2h-.1l.1.3v.5h-1.9z"/><path fill="#e7e0d3" d="m11.4 7.3 16 8.5q21 7.6 33.4 15L62 32l1 .7 4.6 1.2.1.7-2.2 1.3-3.8 1.5h-.2v-.2l-1.1-.8q-.4.2-.8-.2l-.4-.5L61 34l-2 1.3-4-1.5L43 28l-.2-.2q-2.1-3-5.4-2.4l-11.8-5.7-.5-1.4-1.5.5-5.2-2.5q.8-.9 1.3-1.9h-.1l-3.3.8h-.1q-.7 0-5.3-2.4l2.8-.9-5-.7q-1.6 0-2.6-.6l-.5-.5-.5-.1 1.7-1-3 .5L7.6 8l3.8 1.3L9.2 8z"/><path fill="#928c7f" d="m11.4 7.3-2.2.6 2.2 1.5-3.8-1.3-3.8 1.5h-.4l-.6-.1L0 8.8l7.9-2.5h2zm53.9 34.3-1.6.7h-4.3l.9-.7-.5-3.5h1.8v-.5l.7 2.1zm-3.8-4.1"/><path fill="#615b48" d="m3.8 9.6 3-.4L5 10l.5.1.5.5q1 .6 2.6.6l5 .7-2.8 1q4.6 2.3 5.3 2.3h.1l3.3-.8q-.4 1-1.2 1.9l5.2 2.5 1.5-.4.4 1.3 11.9 5.6q3.3-.6 5.4 2.5l.2.2 12 5.6 4 1.6 2-1.3-1.7 1.6.4 2.5h.1l.5 3.5-14.8-7.9q-.6-1.1-.8-2.5l-1 .3-3.7-.6-8.2-4.4-.6-1.2-.1-.9-1 1.2-11.7-6.2-.1-.3-.4-.4-7.6-2.6-1.7-.2L5.8 14l-3-.3-.5-3.2.5-1.1.6.2z"/><path fill="#f1ede7" d="m59.4 35.6.3.4q.4.5.8.3l1.2.8-.1.2h-.1v.1l.1.2v.5h-1.9z"/><path fill="#bdb9b1" d="M61.6 37.3h.2l3.8-1.5 2.3-1.3.3 1-.5 3-.5.7-.9.7-1 1.6-3-1.8-.7-2.1-.1-.2z"/><path fill="#4e473d" d="M59.4 42.3 17.8 20.6v.3l-4.4-2-.8-.4-6.3-2.6-3.2-.9-.2-1.2 2.9.3 2.8 1.8 1.7.2 7.6 2.6.4.4.1.3 11.7 6.2 1-1.2.1.9.6 1.2 8.2 4.4 3.7.6 1-.3q.1 1.4.8 2.6l14.8 7.8z"/><path fill="#564f41" d="m3 15-2-.6.1-.9-.1-1.6-1-3.1 2.8.8-.5 1.1.6 3.2z"/><path fill="#e7e0d3" d="m69 22.8 3-1 1.8.2 1.7-2.4 3 5-3.3 4.2-6.2 1.5v-3l3.5-2.5H69z"/><path fill="#777737" d="M75.5 19.6 73.8 22l-1.7-.2-3.1 1v-1l1.2-.9.8-.3h.5l3.3-2.2zM69 24.8h3.5L69 27.4z"/><path fill="#9e998d" d="M69 22.8v7.6l-3.7-.2-.8-2-2.9.5-1.8-1.6-2.8-.7 7-6.5h4.5l.3.4V22l.2-.3z"/><path fill="#a2a04a" d="m69 30.4 6.2-1.6 3.3-4.2 1.6 2.8L69 33.5zm5.8-12-3.3 2.2h-.6l-2.4-.7H64v-.1l5.1-2.5 5.7.8z"/><path fill="#d5bd97" d="m71 20.6-.8.3-1.2 1-.2.2v-1.9l-.2-.3 2.3.7z"/><path fill="#888840" d="m57 26.5 2.8.6 1.8 1.6 2.9-.5.8 2 3.7.3v2.9l-.5.1-11.7-6.8z"/><path fill="#c5ae89" d="M69 33.5h-.5zm-12.2-6.8.3-.2z"/><path fill="none" stroke="#30210b" stroke-linecap="round" stroke-linejoin="round" stroke-opacity=".6" stroke-width="__RESOLUTION__" d="m64 19.8 5.1-2.5 5.7.8v.3M64.6 31.3l1.6.9m2.5 1.3h.3l.8-.5m.9-.4.6-.4m-9.1-2.3.5.3m10.4 1 .7-.3m2.2-1.2.7-.4m2.6-1.5.8-.4-4.6-7.8m-17.1 8 1.8 1.1m.5.3.5.3m2.8-9.4-7.2 6.8" vector-effect="non-scaling-stroke"/></g></defs><g clip-path="url(#a)"><use xlink:href="#b" width="82.7" height="42.4" transform="translate(1 1)"/></g></svg>