<svg xmlns="http://www.w3.org/2000/svg" xmlns:xlink="http://www.w3.org/1999/xlink" width="30" height="152" viewBox="0 0 30 152"><defs><g id="c"><path fill="#281e0d" d="M20.3 1.6 21.8 0v16l-1.5-1.1z"/><path fill="#684e22" d="m21.8 0-1.5 1.6L.7 11.5v13.3L0 26.9V11z"/><path fill="#382912" d="M20.3 1.6v13.3L.7 24.8V11.5z"/><path fill="#181207" d="m20.3 14.9 1.5 1.1L0 27l.7-2.2z"/></g><g id="b"><path fill="#483717" d="M25.6 3.6v-.1l-21.8 11v11l21.8-11zm1.6 21.3V27L1.8 40.1v21.8l25.6-13.1V51L1.6 64.1v9.8l25.6-13.1V63L1.6 76.1v9.8l25.6-13.1V75L1.6 88.1v9.8l25.6-13.1V87L1.6 100.1v9.8l25.6-13.1V99L1.6 112.1v14.2l25.6-12.7V136L0 149.5V14L27.3 0v15L1.6 28.1v9.8z"/><path fill="#684e22" d="M3.8 25.5v-11l21.8-11L24 5.2 4.6 15v8.3z"/><path fill="#281e0d" d="M25.6 3.6v10.9L24 13.4V5.1z"/><path fill="#181207" d="m25.6 14.5-21.8 11 .7-2.2L24 13.4z"/><path fill="#382912" d="M4.5 23.3V15L24 5v8.4z"/><path fill="#000" d="M15.3 22.3 13 23.4v6l2.2-1zm2.6-1.3-2.1 1v6.1l2.1-1zm2.7-1.4-2.1 1.1v6l2-1zm-10 5.2v6l2.1-1v-6.1zm-.6.3-2 1v6.1l2-1zm-5.3 2.7-2.1 1V35l2.1-1zm2.7 4.7v-6.1l-2.1 1.1v6zm13-1.4-2.1 1.1v19.1l2-1.1zm-2.6 1.4-2.1 1.1v19.1l2.1-1.1zM14.9 34l-2 1v19.2l2-1.1zm-2.6 1.4-2.1 1v19.2l2.1-1.1zm13.6-18.5-2.1 1V24l2-1zm-2.6 1.4-2.1 1v6.1l2.1-1zm4 8.7v21.8L1.8 61.9V40.1zm0 24v9.8L1.6 73.9v-9.8zm0 12v9.8L1.6 85.9v-9.8zm0 12v9.8L1.6 97.9v-9.8zm0 12v9.8L1.6 109.9v-9.8zm0 12v14.6L1.6 126.3V112zm0-84v9.8L1.6 37.9v-9.8zm-1.7 13.3-2.1 1.1v19.1l2-1.1zM23 29.7l-2.1 1.1v19.1l2.1-1.1zm1 23.7-1.2.6v6.8l1.2-.6zm-1.5.8-1.3.7v6.8l1.3-.7zM4.3 39.6l-2.1 1.1v19.1l2.1-1.1zM7 38.2l-2.1 1v19.2L7 57.3zM7.5 57l2.2-1.1V36.8l-2.1 1zm5.3 2.1-1.2.7v6.8l1.2-.7zm1.6-.8-1.2.6v6.8l1.2-.6zm4.8-2.5-1.3.7v6.8l1.3-.7zm-1.6.9-1.3.6v6.8l1.3-.6zm-1.6.8-1.3.6v6.8l1.3-.6zm4.8 4.3V55l-1.3.7v6.8zm-9.6-1.9-1.3.7v6.8l1.3-.7zm7.4 8.4-1.3.6v6.8l1.3-.6zm1.6-.8L19 68v6.8l1.3-.6zm.3-.2V74l1.3-.7v-6.8zM8.9 74.6l-.7 1.1 6.6 1.8.7-1.1zm-4 6.3.9.7 7.3-3.3-.9-.8zm11.4-4.4.7-1-6.3-2.6-.7 1zm5.8-3.2 1.3-.7v-6.8l-1.3.7zm2 16.5-1.2.6v6.8l1.3-.6zm-1.6.8-1.2.7V98l1.2-.7zm-1.6 7.6v-6.8l-1.2.7v6.8zm4.4 2.8-2 1v10.2l2-1.1zM13 95.5l-1.3.7v6.8l1.3-.7zm1.6-.8-1.3.6v6.8l1.3-.6zm3.1-1.6-1.2.6v6.8l1.2-.6zm1.6-.9-1.2.7v6.8l1.2-.7zm-3.2 1.7-1.3.6v6.8l1.3-.6zm-6.6 15.3-2.1 1v10.2l2-1.1zm10.7-5.5-2.1 1.1V115l2-1.1zm-5.2 2.7-2.2 1.1v10.2l2.1-1.1zm2.7-1.3-2.1 1v10.2l2.1-1.1zm-5.3 2.7-2.1 1.1v10.2l2.1-1.1zm-2-10.8v6.8l1.2-.7v-6.8zM5 111.6v10.2l2.1-1.1v-10.2zM2.2 113v10l2.1-1.1v-10.1zm20.7-10.5-2.1 1v10.2l2.1-1.1z"/><path fill="#9f582f" d="M15.3 22.3v6.1l-2.2 1v-6zm-8 10.2-2.1 1v-6l2.1-1.1z"/><path fill="#c6851a" d="M17.9 21v6l-2.1 1.1v-6zm2.7-1.4v6.1l-2.1 1v-6zm-10 5.2 2.1-1.1v6.1l-2.1 1zm-.6.3v6l-2 1.1v-6zm-5.3 2.7v6L2.5 35v-6zM20.3 31v19.1l-2.1 1.1v-19zm5.4-2.8v19.1l-2.1 1.1v-19zm-1.5 25v6.9l-1.2.6V54zm-1.5.8v7l-1.3.7v-6.8zM7.5 57V37.9l2.2-1.1v19zm5.3 2.1v6.8l-1.2.7v-6.8zm1.6-.8V65l-1.2.6v-6.8zm4.8-2.5v6.8l-1.3.7v-6.8zm-1.6.9v6.8l-1.3.6v-6.8zm-1.6.8v6.8l-1.3.6v-6.8zm4.8 4.3-1.3.7v-6.8l1.3-.7zm-9.6-1.9v6.8l-1.3.7v-6.8zm14.3 41v10.2l-2.1 1.1v-10.1zm-10.7-6.3v6.8l-1.3.6v-6.8zm3.1-1.6v6.8l-1.2.6v-6.8zm2.4 10.6v10.2l-2.1 1v-10.1zm-5.2 2.7v10.2l-2.2 1v-10.1zm-2.6 1.4V118l-2.1 1v-10zm-2-10.8 1.2-.7v6.8l-1.2.7zm-5.4 14.6 2.1-1.1v10.2l-2.1 1zM2.2 113l2.1-1.1V122l-2.1 1.1zm20.7-10.6v10.1l-2.1 1.1v-10.1z"/><path fill="#b06233" d="M17.6 32.5v19.1l-2.1 1.1V33.6z"/><path fill="#a46d15" d="M15 34v19l-2.2 1.2V35zm-2.6 1.4v19l-2.1 1.2V36.5zM26 16.9v6L23.8 24v-6zm-2.6 1.4v6l-2.1 1.1v-6zM4.3 39.6v19.1l-2.1 1.1V40.7zm16.3 27.7 1.3-.7v6.8l-1.3.7zm1.6 6v-6.8l1.3-.7v6.8z"/><path fill="#e4a234" d="M22.9 29.7v19.1l-2.1 1.1V30.8zM7 38.2v19l-2.1 1.2V39.3zm15.7 52.4v6.8l-1.2.7v-6.8zm-13 18.6v10.1l-2.1 1.1v-10.1zm8-4.1v10.1l-2.1 1.1v-10.1z"/><path fill="#e9af50" d="M18.7 68.3V75l-1.3.6v-6.8zm1.6-.8v6.8l-1.3.6v-6.8zM5 80.9l7.2-3.4.8.8-7 3.3zm19.3 8.9v6.8l-1.3.6v-6.8zm-4.8 2.4V99l-1.2.7v-6.8z"/><path fill="#e29921" d="m9 74.6 6.5 1.8-.7 1-6.6-1.7zm7.4 1.9-6.2-2.6.6-1 6.3 2.6z"/><path fill="#c7703d" d="m21.1 98.2-1.2.7V92l1.2-.7zm-8-2.7v6.8l-1.2.7v-6.8zm3.1-1.6v6.8l-1.3.6v-6.8z"/><path fill="none" stroke="#000" stroke-linecap="round" stroke-linejoin="round" stroke-width="__RESOLUTION__" d="M27.3 136 0 149.6" vector-effect="non-scaling-stroke"/></g><clipPath id="a"><path d="M1 1h28v150H1z"/></clipPath></defs><g clip-path="url(#a)"><g transform="translate(1.6 137.05)"><use xlink:href="#b" width="27.3" height="149.5" transform="translate(-.6 -136.05)"/><use xlink:href="#c" width="21.8" height="26.9" transform="translate(3.15 -19.05)"/></g></g></svg>