<svg xmlns="http://www.w3.org/2000/svg" xmlns:xlink="http://www.w3.org/1999/xlink" width="112" height="80" viewBox="0 0 112 80"><defs><clipPath id="a"><path d="M1 1h110v78H1z"/></clipPath><g id="b"><path fill="#564735" d="m48.2 14.2 2.3-1.1 5.5 2.8 52.7 27.9v.5l-3.5 2.3-3.5-1.9-1-1.7.5.1-1.6-.4h-.1l-2.7-3.9-14.5-7-23.4-12.6V19l-4.5-2zm51.2 28.6"/><path fill="#3c3430" d="m56 15.9 53.2 28-.5 7.1v-6.7l.5-.4-.5-.1zm7.7 13.7v.9l-.6-.2-.4-.2zM4.3.6 3.5 0l1.2.4-.1.2z"/><path fill="#000" d="M108.8 51 58.2 77.4V32.9l1.8-1.2 1.5-.8 1.3-.8.3.2.6.2v2.3l.1 7.7 6.2-4.1 4.2-2.7v9.7l5-3.3 5.1-3.4v8.1l3.5-2.2.4-2 4.5-1.2v3.1l.1 4.7 4-2.7 2.6-1.7h.1v-.1l1.7.4-.5-.1 1 1.7.1 4 3.4-2.2 3.5-2.2zm-7.5-8-.5-.1-1.2-.2 1.3.2z"/><path fill="#b69874" fill-opacity=".5" d="m58.2 32.9-.8.4L24.7 17v-.1L1.9 5.5l3.3-1.6 8 4 10 5.1 5 2.6L40 21.5l5.5 2.8L60 31.7z"/><path fill="#b69874" fill-opacity=".2" d="M57.4 33.3 54.6 35 0 6.4l1.9-.9 22.8 11.4z"/><path fill="#ab8765" d="m5.2 3.9 4.3-2.2 4.3 2 1.5 3.9-2.1.3zM34 13.8l4.3 1.9 8.8 5 .4 3.6h-2.1L40 21.5l-1-2.9-5.5-.8zm25 12.6 4.6 2v1.2l-1 .5-1.2.8H60zM26 10.9l-3.7-1-.5-2 8 4z"/><path fill="#b69874" d="m13.8 3.8 1.3.7L21.9 8l.5 1.9.8 3.1-10-5.1 2.1-.3zM34 10l3.4 1.7 23.8 12-19.9-8zm4.7 1 1.8-.8 7.8 3.9 6.1 2.9.9.9z"/><path fill="#8f7556" d="m15.1 4.5 1.6-.8L26 8.2l14.2 7.2.2.1 17.3 7.7 26.6 13.4v.1l-5.1 3.4-5-2.7v-3.8l-10.5-4v-1.1L59 26.4l-4.5-2.1-6-2.8-1.4-.8-8.8-5-4.3-1.9-4.2-1.9-8-4zm48.6 25 10.5 4v.2L70 36.4l-6.3-3.6z"/><path fill="#715c44" d="m26 8.2 2-1 5.9 2.9 7.3 5.8 19.9 7.9L92.7 39v.4l-4.5 1.1-.4 2-3.5-1.7v-4l.2-.2h-.2L57.7 23.2l-17.3-7.7-.2-.1z"/><path fill="#564634" d="m37.3 11.8 1.3-.7L55.2 18l-.9-1 4.7 2.1h-.1l23.4 12.6L96.8 39l2.6 3.9-2.7 1.8-4-2v-3.2l.4-.2-.4-.2-31.6-15.2zM59 19l-3.2-.4-.6-.7.5.7z"/><path fill="#372c22" d="m101.8 44.7 3.4 1.8-3.4 2.3zm-17.5-3.9 3.5 1.8-3.5 2.3zm-10.1-3.4 5 2.7-5 3.3zm-10.5-4.6 6.3 3.6-6.2 4.1zm33 11.8-3.9 2.6-.1-4.7z"/><path fill="#bd9e6c" d="m34.1 13.8-.6 4 5.6.8.9 2.9-11.7-6-2.1-4.6 3.7 1zm11.4 10.5h9.1l4.5 2L60 31h1.5l-1.5.8z"/><path fill="#b6a261" d="m47.6 24.3-.4-3.6 1.5.8 5.9 2.8zm-19.3-8.7L23.2 13l-.8-3.1 3.8 1z"/><path fill="none" stroke="#22170d" stroke-linecap="round" stroke-linejoin="round" stroke-width="__RESOLUTION__" d="m48.2 14.2 2.3-1.1h0l5.5 2.8 52.7 27.9v.5l-3.5 2.3-3.4 2.1v-4l-1-1.7.4.1-1.6-.4h-.1 0l-2.7-3.9-14.5-7-23.4-12.6m-.7 13.7-.8.4M1.9 5.5l3.3-1.6 4.3-2.2 4.3 2 1.3.8 1.6-.8L26 8.2l2-1 5.9 2.9 3.4 1.7 1.3-.7 1.8-.8 7.8 3.9 6.1 2.9.9.9.5.7 3.3.4m-18.6-3.6 17.3 7.7 26.6 13.4v.1l-5.1 3.4-5 3.3v-9.8h0l-10.5-4v-1.1L59 26.4l-4.5-2.1-6-2.8-1.4-.8-8.8-5-4.3-1.9-4.2-1.9-8-4L15 4.6M92.7 39 61.1 23.7l-23.8-12m26.4 18.7v-1l-1 .6-1.2.8-1.5.8-1.8 1.2m5.5-2.4v2.3l.1 7.7 6.2-4.1 4.2-2.7v-.1m25.2 9.1 1.3.3.4.1m7.5 1.1.5-.3-.5-.1m0 7.3v-6.9m-9.3-1.5-2.7 1.8-3.9 2.7-.1-4.7v-3.1l.4-.2-.4-.2M4.3.5h.3M26 8.3l14.2 7.2" vector-effect="non-scaling-stroke"/></g></defs><g clip-path="url(#a)"><use xlink:href="#b" width="109.3" height="77.3" transform="translate(1 1)"/></g></svg>