<svg xmlns="http://www.w3.org/2000/svg" xmlns:xlink="http://www.w3.org/1999/xlink" width="106" height="36" viewBox="0 0 106 36"><defs><g id="g"><path fill="#d6c503" fill-opacity=".8" d="m2.4 11-.4-.6.1-.2 1.2 1.4.5-.4-.3.4-.4.8zm5.8-2.7-.7-1.4v-.3l1.2 1.5v-.8l.6.8.7-1-.1.4-.4 1.4h-1zm7.5-3.2-.2 1.1h-1.1l-.1-.3-.9-1.8.1-.1 1.1 1.3v-.7l.6.8.8-1z"/><path fill="#d6dca3" d="m2.4 11 .7 1.4.4-.8h.1l1.4-.3 1.2 1.6-1 1h-.7v2.7q-1.5.7-2.9 0V14H1l-1-1.1 2-2zm7.9 1v1.4l-1 .6q-1 .3-2.1-.6v-3h-1V9.3l1-1h1l.3.6h1l.4-1.4.4-.2 2 3-1 1h-1l-1-.5.4 2zm5.3-.7h-.3q-.9.2-1.8-.3V9l-1 .8.5-3.3 1.3-.6.1.3h.6q.3.4.2.5l.3.2-.3-.7h.3l.2-1 1.7-.9.3.8Q17 6.8 16 7.6zm-13 3.1 1.4-.1v-.5l-2.2.3z"/><path fill="#ee1" fill-opacity=".8" d="m3.8 11.2-.5.4L2 10.2l1-1.9v-1l1 2v1zm3.7-4.6 2-2.8V2.7l1.1 2.1-.6 2.3-.7 1-.6-.8V8zm6-2.6 2-3V0l1 2-.6 2.4-.7 1-.6-.8v.7z"/><path fill="#b9c565" d="M10.3 11.4v.6l-.6.8-.4-2zm5.3 0 .4-3.8q1-.8 1.7-2.5l.5 1.3-1.2.8-.5 3.9zm-13 3.1-.8-.2 2.2-.4v.5z"/><path fill="#000" d="m15.2 6.2.3.7-.3-.2-.2-.5z"/></g><g id="e"><path fill="#d6c503" fill-opacity=".8" d="M2.4 10 2 9.2l.1-.2 1.2 1.4.5-.4-.3.4-.4.8z"/><path fill="#d6dca3" d="m2.4 10 .7 1.3.4-.8h.1l1.4-.2 1.2 1.5-1 1.1h-.7v2.6q-1.5.8-2.9 0V13H1l-1-1 2-2.1zm7.9 1.1v1.3l-1 .6q-1 .3-2.1-.6v-3h-1v-1l1-1h1l.3.5H9V8l.2.1-.1-.3h.4l.4-1.4.4-.2 2 3.1-1 1h-1l-1-.6.4 2zm4.6-6.5 2.5-1.2.3.7Q17 5.7 16 6.6l-.4 3.7-.3.1q-.9.1-1.8-.4V7.9l-1 .8.5-3.3 1.7-.8q.6 1 .5 1.1l.3.1zm-12.4 9 1.5-.2v-.5l-2.2.4z"/><path fill="#ee1" fill-opacity=".8" d="m3.8 10.1-.5.4L2 9.1l1-1.8V6.2l1 2v1.1zm10.8-5.8h-.2l-1-1.4.9-1.9V0l1 2v1.1l-.4.8-.2.2z"/><path fill="#000" d="M9 7.8 8.5 7l-.7-1-.3-.4v-.2L8 6l.6.9zl.1.3L9 8zm5.5-3.5.2-.2.2.4.5 1.3-.2-.1q.1-.2-.5-1.1z"/><path fill="#b9c565" d="M10.3 10.3v.7l-.6.7-.4-2zM17.7 4l.5 1.3-1.2.9-.5 3.8q-.5.3-.9.3l.4-3.7q1-.9 1.7-2.6M2.5 13.4l-.7-.2 2.2-.4v.5z"/></g><g id="c"><path fill="#d6c503" fill-opacity=".8" d="M2.4 8.3 2 7.6l.1-.1 1.2 1.4.5-.4-.3.4-.4.8zm5.8-2.7-.7-1.5V4l1.2 1.5v-.9l.6 1 .7-1-.1.3-.4 1.4h-1z"/><path fill="#d6dca3" d="m2.4 8.3.7 1.4.4-.8h.1L5 8.6l1.2 1.6-1 1h-.7V14q-1.5.7-2.9 0v-2.7H1l-1-1 2-2zm7.9 1v1.4l-1 .6q-1 .3-2.1-.6v-3h-1V6.5l1-1h1l.3.6h1l.4-1.4.4-.3 2 3.1-1 1h-1l-1-.5.4 2zm4.6-6.5 2.5-1.3.3.8Q17 4 16 4.9l-.4 3.8h-.3q-.9.2-1.8-.3V6.2l-1 .8.5-3.2 1.7-.9q.6 1 .5 1.1l.3.2zM4 11.6v-.4l-2.2.3.7.3z"/><path fill="#ee1" fill-opacity=".8" d="m3.8 8.5-.5.4L2 7.5l1-1.9v-1l1 2v1zm3.7-4.6 2-2.9V0l1.1 2.1-.6 2.3-.7 1-.6-.9v.9z"/><path fill="#b9c565" d="M10.3 8.6v.6l-.6.7L9.3 8zm7.4-6.2.5 1.2-1.2 1-.5 3.8-.9.3.4-3.8q1-.9 1.7-2.5M4 11.6l-1.5.2-.7-.3 2.2-.3z"/><path fill="#000" d="m14.7 3-.6-1-.3-.4v-.2l.5.6.6.9.5 1.3-.2-.2q.1-.1-.5-1"/></g><g id="b"><path fill="#fce59a" fill-opacity=".1" d="m20 5.5-5.9.8-6.3 6 1.8 6.9-2.7-.5 7.2 6.4 1-2.8 7.3-2.2 6.4-9.2-5.6.5zm-8.2-2.3L23.7.5 26 6.8l7.3 3.2-5 6.8-3.7 8.7-5-1.3-1 .3-2.2 1-.4 4.2-8.7-.5-1-4.6L0 21 5 8.2 7.3 0zm6.7 20.9v.4z"/><path fill="#fce469" fill-opacity=".2" d="m20 5.5 3.3 5.9 5.4-.5-6.3 9.2-7.3 2.2-1 2.8L7 18.7l2.7.5-1.8-6.9 6.3-6zm-7.4 9.1 1.4 2.7 1.8.5 1.5-1.9 1.3 1 3.9-4.2-1-2.4-.8.8-.7-3.3-1.7 6.8-2.4-2.3-1.4 1.4-.9-3.7z"/><path fill="#fad51b" fill-opacity=".4" d="m12.8 14.6.9-4.6.9 3.7 1.3-1.4 2.5 2.3 1.7-6.8.7 3.3.8-.8 1 2.3-3.9 4.2-1.3-.9-1.4 1.9-1.9-.5z"/><path fill="none" stroke="#706f0a" stroke-linecap="round" stroke-linejoin="round" stroke-width="__RESOLUTION__" d="M18.6 24.5v-.4" vector-effect="non-scaling-stroke"/><path fill="#585807" d="m20.2 21-.4-.3-.4-1.3 1.2-.1v.5q1 1 2.1.6l.2 5.5q-3.3 1-7.3-.1l.3.9 2 1-2.2 4-.7-.3-.7-6.2 1-.4-.2-.6-1.2-1 .2-1.2.9-.1V23q1.4.8 2.9 0v-1.5h.7l.7 1-.6 1 1.8-.7.6.3v-1.5zm4.2 3.3.6-.5 1.9-1.6.3-3.4-1.4-.9v-1l1.2-.3v1q.9.5 1.8.4l-.1 1.3-.2 2.8-4 3.9zm-3.7.7-2.4.3v-.9.8z"/><path fill="#4f4f06" d="M22.7 20.4q.4-.1 1-.6V19h1v1l-1 1 .4 3.4.2-.1.1 1.7 4-3.9.2-2.8.1-1.3h.3l.9-.4.2-1.6.8-.2 1 1.1-2 1.6-.8 3.9q-3.2 4.3-6.2 6.2l-.9.1q-2 0-4.1-.9l-2-1-.3-.9q4 1.1 7.3.1z"/><path fill="#3d3d05" d="M22 28.6v.9l-1.4 3.6-1 .5-3.9-1.9 2.2-4q2 .8 4.1.9"/><path fill="none" stroke="#706f0a" stroke-linecap="round" stroke-linejoin="round" stroke-width="__RESOLUTION__" d="m25 23.7 1.8-1.6m-5.7-.5-1-.7m8.3 1.1.2-2.8m-10.4 5.1v.8l2.4-.2" vector-effect="non-scaling-stroke"/></g><clipPath id="a"><path d="M1 1h34v34H1z"/></clipPath><clipPath id="d"><path d="M36 1h34v34H36z"/></clipPath><clipPath id="f"><path d="M71 1h34v34H71z"/></clipPath></defs><g clip-path="url(#a)"><g transform="translate(42 70.05)"><use xlink:href="#b" width="33.3" height="33.6" transform="translate(-41 -69.05)"/><use xlink:href="#c" width="18.2" height="23.9" transform="translate(-27.65 -59.9)"/></g></g><g clip-path="url(#d)"><g transform="translate(77 70.05)"><use xlink:href="#b" width="33.3" height="33.6" transform="translate(-41 -69.05)"/><use xlink:href="#e" width="18.2" height="25.6" transform="translate(-27.65 -61.55)"/></g></g><g clip-path="url(#f)"><g transform="translate(112 70.05)"><use xlink:href="#b" width="33.3" height="33.6" transform="translate(-41 -69.05)"/><use xlink:href="#g" width="18.2" height="26.6" transform="translate(-27.65 -62.6)"/></g></g></svg>