<svg xmlns="http://www.w3.org/2000/svg" xmlns:xlink="http://www.w3.org/1999/xlink" width="43" height="82" viewBox="0 0 43 82"><defs><clipPath id="a"><path d="M1 1h41v80H1z"/></clipPath><g id="b"><path fill="#000" d="m38.6 64.1-.9 1.7v-.1zm-4.4-8.4 1.8 8.9-4-2.7-1.5-8.7z"/><path fill="none" stroke="#000" stroke-linecap="round" stroke-linejoin="round" stroke-width="__RESOLUTION__" d="M27.2 28q-.7.7-.4 2.4.3 1.8 1.3 3.5 1 1.8 2.1 2.6h1.9l-.1-3.8-1-2q-1-1.8-2-2.7zm-2.1-7.4.8 4.9 6 4-1.2-7.8-7-12.2q-3-1.8-5.7-3.1l-2-.8 8.5 15m7.3 8.9.1 3.2.4 1.5q.2 1.5-.2 2.3.4 9.6 2 19.2l2 1.3m-9.8-26.7q-.2-1.8-1.2-3.5-1-1.8-2.2-2.6l-1.7-.1q-.6.7-.3 2.4.3 1.8 1.3 3.5 1 1.8 2.1 2.6h1.8q.6-.6.3-2.3M38.6 64l1.5-2.6M38.7 64l-1 1.6h.1m-3.5-10-3.7-2.5 1.4 8.6 4.1 2.8zM40 79.9l-1.8-5.6-5.1-3.6.8 5m3.6-9.9 1.5 8.9-.8-.4-2.3-9.6zM28 71.6l-.9-5.1-5.9-4 .8 5m11.2 3.1-7.3-45.1-6-4.1-.1 2.5.5 2q.3 1.8-.3 2.5l-.3.2q8.8 27.3 7.5 37.9zM7.5 0l3 5.2q1.6-1.2 5.6.4l-2.3-4m7.7 4.2 2.2 3.7 1.7 1M5 4.9l3.8 6.8q.4-1.4.4-3.5.1-2.2 1.3-3l8.1 14.4m-9.8-8q-1 3.6-4.4 1.6l.1.2 7.6 4zm2.7 6.5q-1.7-1.6-3-2.4l-.3-.1-1.4-.1v.2l-.1.8m6.4 1.8 1 2.4v-2.3l-2-1 .6.9m1.7 3.5-.3-1.1.1 3.3q.4-.7.2-2.2m.2-3.1-.5-.3m5.7 5.5-.7-1.4q-1-1.8-2.2-2.6l-1.7-.1q-.6.7-.3 2.4.2 1.8 1.2 3.5 1 1.8 2.2 2.6.8.5 1.4.3M8.5 16.2l6.8 42.3 6 4q-8.8-18-7-38.5l-.2.2-1.8-.1q-1.2-.7-2.1-2.5T8.9 18v-1.6m7 2.2 4 2.7-.4-2M4.4 13.2Q2.5 12 0 9m4.4 4L1.1 7.3m5.2 9-1.8-3m10.8 45.2.8 5" vector-effect="non-scaling-stroke"/></g></defs><g clip-path="url(#a)"><use xlink:href="#b" width="40.1" height="79.8" transform="translate(1 1)"/></g></svg>