<svg xmlns="http://www.w3.org/2000/svg" xmlns:xlink="http://www.w3.org/1999/xlink" width="109" height="164" viewBox="0 0 109 164"><defs><g id="d"><path fill="#757359" d="m46.2 0 2.3.7q2.6 2 4.8 5.3l-.1 73.8L.1 107 0 37.7q2.6-11.9 9.8-19.3Q22.6 1.6 43.6 0z"/><path fill="none" stroke="#000" stroke-linecap="round" stroke-linejoin="round" stroke-width="__RESOLUTION__" d="m46.2 0 2.3.7q2.6 2 4.8 5.3l-.1 73.8L.1 107 0 37.7q2.6-11.9 9.8-19.3Q22.6 1.6 43.6 0z" vector-effect="non-scaling-stroke"/></g><g id="c"><path fill="#8d8a6b" d="m82.4 53.5-3-.5-2.2-.7v-3l2.5-3.7 8.5.4h.3v.1q2 .5 3.5 2.4-3 3.5-9.6 5"/><path fill="#817e63" d="m79.5 53 2.9.5q3.2.3 7-.7v56.9q-4.7 1.7-10 .4zm18.7 53.9v10.6L83.4 125v-10.6z"/><path fill="#5c5a47" d="M82.4 53.5q6.6-1.5 9.6-5-1.5-1.9-3.5-2.4V46q2.1-2.7 4.8-4.8 2.1 2.6 1.7 5.8-.5 3.3-3 4.7l-2.6 1.1v56.9q2.8-1.4 2.5-2.9V51.7l-2.5 1.1q-3.8 1-7 .7"/><path fill="#8d865f" d="m88.6 46.1-.2-.1h.3zM10.3 93.6l.2-.1v.1z"/><path fill="#66634f" d="m88.3 46-8.5-.4q-3.2-8-16.5-13.2l43.7 1.7q-7.8 2.2-13.7 7.1-2.7 2.1-4.7 4.8zM16 88.4v-8.6q3.9-12.3 10.6-19.7 6.8-7.4 13-11.6t15-5.5l7.6-.8q.9 1.2 1 3.7l.3 66.9z"/><path fill="#757359" d="m79.8 45.6-2.5 3.6v3.1l2.2.7v57.1l-1.7 1v10.3l-5.2 2.7.1-73.7q-1.1-8-10.6-8.3l-7.6.8q-8.6 1.4-14.8 5.6-6.4 4.2-13 11.6-6.8 7.4-10.7 19.7v73.3l-16 8.1V64.9l63.3-32.5q13.3 5.2 16.5 13.2m-69.5 48h.2v-.1z"/><path fill="#aba894" d="M79.5 110.1q5.3 1.3 10-.4 2.7-1.4 2.5-2.9v-3.6l6.1 3.7-14.7 7.5-5.6-3.3zm27.5-76-43.7-1.7L0 65V55L107 0z"/><path fill="#a5a289" d="M62.2 42.1q9.4.3 10.5 8.2l-.1 73.8-9.2-5.7v-5.8L63 46q0-2.6-.9-3.8m15.7 79.4V111l5.5 3.3V125z"/><path fill="none" stroke="#000" stroke-linecap="round" stroke-linejoin="round" stroke-width="__RESOLUTION__" d="m79.5 53 2.9.5q3.2.3 7-.7l2.5-1q2.6-1.5 3-4.7.5-3.3-1.7-5.9-2.6 2.1-4.7 4.8h-.2l-8.5-.4m-2.5 6.7 2.2.7m0 57.1q5.3 1.3 10-.4 2.7-1.4 2.5-2.9V51.7m1.3-10.5q5.9-4.9 13.7-7l-43.7-1.8L0 65v96.3l16-8.1V79.8q3.9-12.3 10.6-19.7 6.8-7.4 13-11.6t15-5.5l7.6-.8q.9 1.2 1 3.7l.3 66.9v5.7l9.2 5.7 5.3-2.7 5.4 3.6 14.8-7.5V107l-6.1-3.7M107 0 0 54.9m16 33.5 47.4 24.2m14.4-1.5 1.7-1" vector-effect="non-scaling-stroke"/><path fill="url(#a)" d="M8.7-38.4q.8 1.1.9 3.6l.3 66.9v3.3h-47.4V-.7q3.9-12.4 10.6-19.8 6.8-7.4 13-11.5 6.3-4.2 14.9-5.7z" transform="translate(53.5 80.6)"/></g><linearGradient id="a" x1="-819.2" x2="819.2" gradientTransform="matrix(0 -.07 .04 0 -11.45 -18.45)" gradientUnits="userSpaceOnUse" spreadMethod="pad"><stop offset="0" stop-color="#000" stop-opacity="0"/><stop offset="1" stop-color="#000" stop-opacity="1"/></linearGradient><clipPath id="b"><path d="M1 1h107v162H1z"/></clipPath></defs><g clip-path="url(#b)"><g transform="translate(81.1 119.6)"><use xlink:href="#c" width="107" height="161.2" transform="translate(-80.1 -118.6)"/><use xlink:href="#d" width="53.3" height="107" transform="translate(-64.25 -76.45)"/></g></g></svg>