<svg xmlns="http://www.w3.org/2000/svg" xmlns:xlink="http://www.w3.org/1999/xlink" width="40" height="59" viewBox="0 0 40 59"><defs><clipPath id="a"><path d="M1 1h38v57H1z"/></clipPath><g id="b"><path fill="#37221a" fill-opacity=".5" d="M32.5 49.1q1 1 3.9 2.1-2.9 1.1-2.3 2.7h-.4q-3.1-.2-3.9 1.4h-2.9q-8-5-12-3.4-.7-3-9.5-4.6l2.6-.1-.6-.9Q5.4 43.8 0 42q5.9 1.3 8.2-1.6z"/><path fill="#7c774e" d="m14.3 7.4 1 17.7q-1 2.2-4.1.5l.3-3.5.3-4.2 1.2.3.1-1.2zM6.8 5.7 7.6 20v.1l1.9.3v.1l.3 4.5q-2.6-2.7-4.7-2.7l-.1-2-1.2.2v-2.7 2.7l.2 2-1.1.5L1.4 3.1l1-.4 2.4 9.8V4.8l1.8.8zM4 22.5l-.2-2 1.2-.2.1 2zm3.6-2.3v-.1zv1.4zm-2.9-4.1.3 4.2zm.1-3.6v1.3z"/><path fill="#2e2c1d" d="m14.3 7.4 3-2.2 1 18.5q-1.4-.2-3 1.3zm-2.9 14.7-.2 3.5-.2 2-.2 2.3-.1.4-.7-.5-.1-2.7-.1-2-.2-4.6 1.7-1.6zm7 2.8.4 6.3-3 2.8-.4-5.7q2-3 3-3.4M19 36l.8 9.8h-.1l-3 2.3-.6-10.5zM8.9 3.6l.8 14.9L7.6 20 6.8 5.7l-.1-.1zM5.7.3l.6 3-1.5 1.4v7.7L2.4 2.8z"/><path fill="#4e3327" d="m13.1 17-.1 1.1-1.2-.2z"/><path fill="#839eb8" d="M11.2 25.7q3.1 1.6 4-.7l.3 3.3q-2.2 1.4-4.5-.7zM2.8 23l1.1-.5.3 2.8H3v-.1zm1.4 2.3L4 22.5l1.1-.2q2.2 0 4.7 2.7l.1 2.1q-2.2-1.7-4.6-1.9l-.2-2.9.2 3zm9 10 2.5-1.2.2 3.5-2.7 1.3h-.4l-1.3.3.3-3.5zl-.1 2.6zm-1.4.5-.3 3.4q-4 .4-7.7-2.6L3.4 30q1.4 1 2.6 3.5l-.1.1.1.3q1.5 3.3 6 2"/><path fill="#5183b3" d="M18.4 23.7v1.2q-1 .4-3 3.4l-.2-3.3q1.8-1.5 3.2-1.3m.4 7.5V36L16 37.7l-.2-3.6z"/><path fill="#403c27" d="m16.6 48-.2.1-2.3-1-6.9-3L5 43l-.5-.3h-.2v-.2l-.4-6q3.7 3 7.7 2.6l1.3-.3h.4l2.7-1.3zM13 42l-2.5-.4q-1.6-.5-1.2 1.1.3 1.6 1.5 1.8l2.2.1q.9-.1 1.8-.7t1.1-1.6-.8-.6z"/><path fill="#37221a" d="m9.7 18.5 1.6.4-1.7 1.6h-.1L7.6 20zm1.1 11.8.1-.4z"/><path fill="#5c3c2e" d="m8.9 3.5-2.2 2v.2l-.1-.1-1.7-.8 1.4-1.3.5-.5zM5.6.4 2.5 2.8l-1 .3L4.8.4z"/><path fill="#555135" d="M3 25.3h1.3l.2 2.1-.2-2.1h1q2.4.1 4.6 1.8l.1 2.7.7.4v.1l.1-.4.2-2.2q2.3 2 4.4.6l.4 5.7-2.6 1.3.2-2 .2-1.8-.2 1.8-.2 2-1.2.5.2-2.6 1.2.1-1.2-.1.4-3.6-.4 3.6-.2 2.5q-4.5 1.4-6-1.9v-.1l-.1-.2q-1.1-2.6-2.5-3.6zm7.4 9.2.3-4.2zm-.4-4.7-.8-.5zm-4.4-.4-.3-4.1z"/><path fill="#395e82" d="m13 42 2-.4q1.1-.2.9.7t-1.1 1.6-1.8.8l-2.2-.2q-1.2-.2-1.5-1.7-.4-1.6 1.2-1.1z"/><path fill="none" stroke="#000" stroke-linecap="round" stroke-linejoin="round" stroke-opacity=".3" stroke-width="__RESOLUTION__" d="m13 17-.1 1.1-1.2-.2h0m-.4 4.2-.2 3.5-.2 2-.2 2.3-.1.4h0l.1-.4m4.4-4.9-.9-17.6m4 16.3.1 1v.2l.4 6.3V36l.9 9.8h-.1l-3 2.3h-.2l-2.3-1-2.7.9-.8 1.9M8.9 3.5h.2zm2.3 15.4.2-.1v3.3M9 3.6l-2.2 2h-.1.2L7.6 20l2-1.5h0m-3.2-15 .4-.5M5.7.4 2.4 2.8l2.4 9.7V4.8l1.5-1.3m.3 2.1-1.7-.8M1.4 3h-.1 0l1-.4M3 25.5l1.3-.1-.3-2.8-.2-2v-2.7M5 22.3l-.1-2-1.2.2m5.7 0 .3 4.5.1 2.1q-2.2-1.7-4.6-1.9L5 22.3m4.5-1.9-1.9-.3v1.5M5 20.2 4.7 16m10.6 9 .1 3.1q2-2.9 3-3.3M5 13.8v-1.3m4.7 8 1.7-1.6m2.3 12.6-.2 1.8h0l-.2 2-.1 2.6m2.7-3.9-.4-5.7q-2 1.4-4.4-.7m1.6 2-.4 3.6 1.2.1M12 35.8l.3-2.6m-.2 2.5-.4 3.5m4.4-1.6-.2-3.6m-5.1-3.7-.3 4.2m-.5-7.4.1 2.7.7.4m-1.5-.9.8.5m-4.7-4.6.3 4.2m-1.3-4.1.2 2.1m-.2-2.1h1M5 43l-1 .3 1.5 1.3 1.7-.6zm-1.6 3 2.1-1.3M4 43.2l-3 .5M16.6 48 16 37.7M11.4 48l-2.6 1.2m5.3-2.1-6.9-3" vector-effect="non-scaling-stroke"/><path fill="none" stroke="#000" stroke-linecap="round" stroke-linejoin="round" stroke-opacity=".3" stroke-width="__RESOLUTION__" d="M14.3 7.4 13 17l-1.2.9m-.1 0-.4 4.2m2.9-14.7 3-2.2 1 18.5M9 3.6l.8 14.9 1.6.4M6.8 3.1l2 .3m-2.5 0-.6-3-1 .2L1.5 3m1.4 20 .1 2.1v.1l.4 4.6.5 6.8.4 5.9v.1l.2.1.5.3M2.9 23 1.4 3" vector-effect="non-scaling-stroke"/><path fill="#4e3327" d="m21.9 10.4 1.8.4v.2l-2.1 1.6h-.2l-1.7-.2h-.1zm-2.7 12.2v1.3h-2.6l2.4-2.3zm-.7-7.3-2.4 2-1.2.1 2.7-2.1zm9.5 14v-.1z"/><path fill="#2e2c1d" d="m21.5 12.5 2.2-1.7.1 5.3-2.2 1.9zm3.7 4L25 20l-1.5 1.5v-3.1zm5.4.5.5 9q-.9 1.1-3.1.8l-.4-7.7zm.6 10.5.6 9.7v.2q-1.6.1-3.1 2L28 29.2q2.6 0 3.1-1.6m.8 12.4.6 11.7v.3l.1.6-.1.1-1 .7-2 1.5-.7-12.8q.3-1.2 3-2.1M16 17.3l2.4-2 .4 4.3v.2l.3 1.8-2.5 2.3v-.3z"/><path fill="#482f24" d="m23.8 16.1 1.3.4-1.6 1.9-1.9-.4zM25 20l1.7.4v1.9l-3.2-.8zm1.6-1.2 3-2.1.9.3-3 2.1z"/><path fill="#7c774e" d="m26.7 20.5-.1-1.7.8.2v.1l.5 7.7h-.3q-1.5.3-3.7-2.3-2.2-2.2-4.7-1.1v-.8l-.1-1.1v-1.7h1l-.5-7.3v-.2l1.8.2.3 5.5 1.8.4v3.1l3.1.8zm-11.8-3H16l.6 6.2-1.2.7z"/><path fill="#5183b3" d="m31 26 .1 1.6q-.5 1.6-3 1.6l-.1-.1-.1-2.3q2.3.3 3.1-.9m.7 11.6.2 2.4v.1q-2.8.9-3.1 2.1l-.2-2.6q1.5-1.9 3.1-2"/><path fill="#5c3c2e" d="m19.7 12.4-.1-.1h-.1zm7 41.5"/><path fill="#839eb8" d="M19.2 23.4q2.4-1.1 4.8 1.1 2.1 2.6 3.6 2.3h.3l.1 2.3q-2.1-.4-4.4-3-2.9-2-5.4.2l-.1-.7.1.7-.4.2-.9.1v.3l.1.1-1.3.8-.3-3.2v-.3l1.2-.7v.3l.3 2.7-.2-2.7H19zm-2.7 14.2-.3-3.7q2.9-3 5 .6 1.4 2.5 3 3.8l.1 1.7-1.3-1.4q-2.7-3.4-6.5-1m12.2 1.9.1 2.6q-1.5.6-4.4-2.1l-.2-1.7q2.1 1.7 4.5 1.2"/><path fill="#37221a" d="m19.7 12.5-.1-.1z"/><path fill="#555135" d="M15.7 27.9 17 27v-.4l.8-.1h.4l.4 4.2-.4-4.2v-.2q2.6-2.3 5.4-.2 2.3 2.6 4.4 3v.1l.6 10.3q-2.4.5-4.5-1.2-1.6-1.2-3-3.8-2.1-3.7-5-.6l-.2-1.7V32zm1.4.6L17 27zm6.8 6.4.3 3.5zM20.5 27"/><path fill="#875743" d="m17.8 26.5.4-.2v.2z"/><path fill="#403c27" d="m19 40.6-.2-.2zm0 4.2h.6q.2 1 1.2.7l2-.5q.9-.4-.2-1.2t-1.9-.9-1.2.4-.4.9zm-1.5 5-.1-.3-.1-.5-.8-11.4q3.8-2.2 6.5 1.1l1.4 1.4.6 8v1-1l1.6.4.2 5.4-6.4-2.8-1.7-.8zm9.3 4.1-.2-5.4-1.6-.2-.6-8.1q2.9 2.8 4.4 2.1l.8 12.8-.1.1zm-.3-8.9.1 3.5z"/><path fill="#395e82" d="M18.9 44.7v-.6q0-.6.5-1t1.2-.2 1.9.8.1 1.1l-1.9.6q-1 .3-1.2-.7z"/><path fill="#b05334" d="M17.3 49.4v.3z"/><path fill="none" stroke="#000" stroke-linecap="round" stroke-linejoin="round" stroke-opacity=".3" stroke-width="__RESOLUTION__" d="M22 10.3h-.1v.1zm-.4 2.2 2.2-1.7h.1-.1m8.8 40.9v.3M21.7 18l2.2-1.9m-.3 2.3 1.6-1.9m-1.6 1.9-1.9-.4-.2-5.5-1.7-.2h-.1v.1h-.1l.1.1v-.2m-.5 9.2v2.4h-2.5v-.3l-.6-6.3 2.4-2h.2-.2m9 3.8-.8-.3m-3.1 2.7L25 20m-1.5 1.5 3.1.8.1-1.9m-3.2 1.1v-3.1m4 .8 3-2.2m-15.6.4H16m.6 6.6 2.4-2.4-.1-1.8-.1-.2.3.2h-.2m.2 1.8v-.1m-3.7 3.1.3 3.2.3 4.2v.2l.1 1.6.3 3.8.8 11.3v.7h.2l1.2.6 1.7.8 6.3 2.8h.1l-.2-5.4-1.6-.4v1m-8-22.1v-.3l-.2-2.7m-1.3.4-.6-6.9m4.3 5.2v-1m-.9 4.7-.1-.7m.1.9.4 4.2m-.8-4.2h.4v-.2m-1.2.3.8-.1m-.8.5.1 1.4m7 9.9-.2-3.5m.4 5.2-.2-1.7m2.4 10-.1-3.4M24.9 48l-.6-8m5.2 14.9 2-1.5 1-.7h.1m-5.9 1.1 2.7 1.2.1-.1M24 55l-1.1 2" vector-effect="non-scaling-stroke"/><path fill="none" stroke="#000" stroke-linecap="round" stroke-linejoin="round" stroke-opacity=".3" stroke-width="__RESOLUTION__" d="m23.7 10.8-1.7-.5m1.7.5.1 5.3 1.3.4L25 20l1.7.4-.1-1.6 3-2.1.9.3.5 9 .1 1.6.6 9.7m0 .2.2 2.4m0 .1.6 11.7m0 .3 1.8 1.4.8.5 2.1-.8M19.7 12.5l.4 7.3h-1l.1 1.7m.5-9.1 2.3-2m-3.4 4.9h-1l-2.7 2.1m4 2.2-.4-4.3M17.3 49h-2.6m1.4 0-.8-1m17.4 4.8V52m-1.1 1.4h2.8m.8.5.9.5M24 55l-2 .8m4.6-2L24 55.1M20.3 51l-2.1.4-4.1.9m4.5-2.1-.4 1.2" vector-effect="non-scaling-stroke"/></g></defs><g clip-path="url(#a)"><use xlink:href="#b" width="37.6" height="57" transform="matrix(-1 0 0 1 38.65 1)"/></g></svg>