<svg xmlns="http://www.w3.org/2000/svg" xmlns:xlink="http://www.w3.org/1999/xlink" width="47" height="78" viewBox="0 0 47 78"><defs><clipPath id="a"><path d="M1 1h45v76H1z"/></clipPath><g id="b"><path fill="#1e140d" d="M42.5 14.4V9.1l-9.5 2L18.3 17l-1.1-.5 16.4-6.6 10.6-2.2v6zm0 0 1.7-.7.1 25.8h.1l.2 25.3-6.2 3.3-1.4.7-1.5-18.1h-.2l-.3-1.3-7.2 4.3V21zM18.7 6.7V3.5l4.8 2zm19.7 61.5 2.2-4.7zm2.2-4.6-.2-.1z"/><path fill="#9e6947" d="M18.3 17 33 11l9.5-1.9v5.3L27.8 21zm15.3-7.1-16.4 6.6-14-3.7 15.5-6 4.8-1.3z"/><path fill="#b17a56" d="M44.2 7.8 33.6 9.9 23.5 5.5l-4.8-2 4.7-2.1 12-1.3 4.8 4.1zM29 4.3l-5.6-2.9z"/><path fill="#0b0d0c" d="m17.2 16.5 1.1.5 9.5 4h-5.9l-11-3 11 3h5.9v32.7l7.2-4.3.3 1.3h.2l1.5 18-9.3 5-2.6-1.2-2.9-1.5-.9-.4-18-8.9V12.8zm-6.4 1.4-7.5-.7zm10.6 39.2.6-36zl.2 8.2.6 5.8-.6-5.7zl-.1 13.6zm10.3 0-.1-.1-.1.2zm-6.9 8.2.4 7.2z"/><path fill="#232c27" d="m31.7 57.1-.2.1.1-.2z"/><path fill="#65826f" fill-opacity=".4" d="M30.3 75v-.5z"/><path fill="none" stroke="#000" stroke-linecap="round" stroke-linejoin="round" stroke-opacity=".5" stroke-width="__RESOLUTION__" d="m42.5 14.5 1.7-.8v-6L40 4.4v-.1L35.3.1 23.5 1.4m-4.8 5.4V3.5l4.7-2.1M22 21.1h5.8l14.7-6.7M37 68.9l-9.3 5-2.6-1.3-2.9-1.5-.9-.4-18-8.9v-49m0 4.3 7.5.8M21.9 21l-.4 36-.2 13.6m23.1-31.1.2 25.3-6.2 3.3-1.4.7m-9.2-15.1V21m16.4-7.3.1 25.8" vector-effect="non-scaling-stroke"/><path fill="none" stroke="#000" stroke-linecap="round" stroke-linejoin="round" stroke-opacity=".2" stroke-width="__RESOLUTION__" d="M44.2 7.8 33.6 9.9l-16.4 6.6 1.1.5 9.5 4M23.4 1.4 29 4.3M3.3 12.8l13.9 3.7m-6.4 1.4L21.9 21m11.8-11L23.5 5.5" vector-effect="non-scaling-stroke"/><path fill="none" stroke="#000" stroke-linecap="round" stroke-linejoin="round" stroke-opacity=".4" stroke-width="__RESOLUTION__" d="m18.8 6.8 4.7-1.3-4.8-2m0 3.3-15.4 6m37.3 50.6L38.4 68m-17-11 .2 8.3.6 5.8M37 68.8l-1.5-18.1M25 72.5l-.4-7.2" vector-effect="non-scaling-stroke"/></g></defs><g clip-path="url(#a)"><use xlink:href="#b" width="44.7" height="75" transform="translate(1 1)"/></g></svg>