<svg xmlns="http://www.w3.org/2000/svg" xmlns:xlink="http://www.w3.org/1999/xlink" width="38" height="30" viewBox="0 0 38 30"><defs><path id="d" fill="url(#a)" d="M3.4-3.4Q4.8-2 4.8 0T3.5 3.4 0 4.8t-3.4-1.4Q-4.8 2-4.8 0t1.3-3.4Q-2-4.8 0-4.8t3.4 1.3" transform="translate(4.85 4.85)"/><path id="e" fill="url(#b)" d="M3.4-3.4Q4.8-2 4.8 0T3.5 3.4 0 4.8t-3.4-1.4Q-4.8 2-4.8 0t1.3-3.4Q-2-4.8 0-4.8t3.4 1.3" transform="translate(4.85 4.85)"/><path id="m" fill="url(#c)" d="M7.2-10.5q0 2.7-2 4.5Q3.5-4.1.8-4.1T-3.8-6q-1.9-1.8-1.9-4.5t1.9-4.6 4.6-1.8q2.6 0 4.5 1.8 1.9 2 1.9 4.6" transform="translate(5.65 16.9)"/><path id="i" fill="none" stroke="#999662" stroke-linecap="round" stroke-linejoin="round" stroke-width="__RESOLUTION__" d="m10.7 6.7.3.1M8.3 5.7 7 5.2l-1.3.6m.2-1 1.2.4L9 4.3m-.4 1.5 1.3.5m-5.2.1-.7.3M2.8 3.5l2.3.9m6-1.2L9.8 4m-8-.2L0 4.7m16.8-.2.9.4m-6.2-2.6 3.4 1.5m-4-1.8L7.9.8 4.6 2.5M5.8 0 8 .8 9.6 0" vector-effect="non-scaling-stroke"/><radialGradient id="a" cx="0" cy="0" r="819.2" gradientTransform="scale(.01)" gradientUnits="userSpaceOnUse" spreadMethod="pad"><stop offset="0" stop-color="#3ff" stop-opacity=".5"/><stop offset="1" stop-color="#fff" stop-opacity="0"/></radialGradient><radialGradient id="b" cx="0" cy="0" r="819.2" gradientTransform="scale(.01)" gradientUnits="userSpaceOnUse" spreadMethod="pad"><stop offset="0" stop-color="#3ff" stop-opacity=".6"/><stop offset="1" stop-color="#fff" stop-opacity="0"/></radialGradient><radialGradient id="c" cx="0" cy="0" r="819.2" gradientTransform="matrix(.01 0 0 .01 .75 -10.5)" gradientUnits="userSpaceOnUse" spreadMethod="pad"><stop offset="0" stop-color="#fff" stop-opacity=".4"/><stop offset="1" stop-color="#fff" stop-opacity="0"/></radialGradient><use xlink:href="#d" id="l" width="9.7" height="9.7"/><use xlink:href="#e" id="k" width="9.7" height="9.7"/><use xlink:href="#f" id="j" width="27.9" height="23.6"/><g id="f" fill="none" stroke="#3ff" stroke-linecap="round" stroke-linejoin="round" stroke-width="__RESOLUTION__"><path d="M21.9 9.7h6l-8.6 8.7-5.4 5.3-5.3-5.3L0 9.7h6m13.3 8.7q-2.4-1.7-5.4-1.7t-5.3 1.7m10.4-4-5-4.7-5 4.9" vector-effect="non-scaling-stroke"/><path d="m6 9.7-.2-1.6q0-3.3 2.4-5.7Q10.5 0 13.8 0h.6q3 .2 5.2 2.4Q22 4.8 22 8v1.7q-.4 2.4-2.2 4.2l-.7.6q-2.2 1.7-5 1.7-2.9 0-5-1.6l-.8-.7Q6.4 12 6 9.7" vector-effect="non-scaling-stroke"/></g><g id="h"><path fill="#999371" d="m17.7 12.5 1.6-.9-2.6-1.5 3.3 1.1 1.3-.6-.7-1.1 2.4.1 5.2-2.7v2.2q-2.7 1.2-5.1 2.8h-.4v.2l-.9.6-2.7.2v1.4l-4.5 2-.7-.5v-.3.3l1.4-2.1z"/><path fill="#bab69e" d="M28.2 6.9 23 9.6l-2.4-.1.6 1-1.2.7-3.2-1.1 2.5 1.5-1.7.9-6.3.5-2.1-1.2q-2.2-.7-2.4-1.3-.8-.4-2-1.5l-2.1-.4L.4 7.5l.3-.4L5 4.8l5.8-1.9.4-1.5L13.6.2l1.5-.1L20.8 3q-.8.5-1.4 1.1l-.3.1 2.7-.7 6.5 3.3zM4.8 9.3l.6.7-.9-.5z"/><path fill="#edebe7" d="m17.7 12.5-2.4 1.2-1.4 2v-.2L13 14l-.5-.5-1.2-.6z"/><path fill="#605a44" d="M13.9 15.5v.3l-1-.2-3-1-3.3-1.8Q4 11.2 1.3 10.5l-1.2-.3.1-2.3.2-.4 2.3 1 2 .5 2.1 1.5q.2.6 2.4 1.3l2.2 1.2zm-9-6.2-.3.2.9.5z"/><path fill="#523f21" d="m11.4 13 1.2.6.5.5.8 1.4z"/><path fill="none" stroke="#576560" stroke-linecap="round" stroke-linejoin="round" stroke-width="__RESOLUTION__" d="M28.2 9.1V6.7l-6.4-3.2-2.7.7.3-.1q.6-.6 1.4-1.1L15.2.1h-1.5l-2.4 1.3-.4 1.5L5 4.8.8 7.1l-.4.4-.2.4v2.3" vector-effect="non-scaling-stroke"/><path fill="#9c9f37" d="M14 15.2q2.9-.8 5.4-2.3 1.7-1 3.5-1.7L25 10l1.3-.9 1.3-.8.6-.1v1.5l-14 7.5-.2-.7z"/><path fill="#999371" d="m27.6 8.3.6-.5v.4z"/><path fill="#745530" d="M28.3 9.7H28zm-14 7.5-.5-.2.3-.5z"/><path fill="#79792b" d="m13.7 17-.7-.4-1.7-.9-1.4-.6-4-2-.6-.3-.2-.1-1.4-.7-3-1.4-.6-.4V8.9h1.5l.4.3 3.2 1.6.2.8 1.2-.2 2.1 1 3.3 1.4q.6 1 1.8 1.3l.1.2v-.1 1.3z"/><path fill="#605a44" d="M.1 8.9v-1l1.5 1zm5 1.8 1.5.7-1.2.2z"/><path fill="none" stroke="#576560" stroke-linecap="round" stroke-linejoin="round" stroke-width="__RESOLUTION__" d="M28.3 7.8v1.9M13.7 17l-.7-.4m-1.7-.9-1.4-.6m-4-2-.6-.3m-.2-.1L3.7 12m-3-1.4-.6-.4V7.9M27 10.5l-1.3.7m2.5-1.4-1 .4M20.3 14l-.7.4M16.7 16l-1.1.6m2.6-1.4-.7.4m6.8-3.7-1.9 1" vector-effect="non-scaling-stroke"/></g><clipPath id="g"><path d="M1 1h36v28H1z"/></clipPath></defs><g clip-path="url(#g)"><g transform="translate(18.15 17.9)"><use xlink:href="#h" width="28.4" height="17.1" transform="matrix(1.2611 0 0 1.2658 -17.15 -10.6)"/><use xlink:href="#i" width="17.7" height="6.8" transform="matrix(1.3014 .048 -.0954 1.3387 -8.95 -8.65)"/><use xlink:href="#j" width="27.9" height="23.6" transform="matrix(.5181 .2638 -.5181 .2638 -1.05 -8.2)"/><use xlink:href="#k" width="9.7" height="9.7" transform="translate(2.05 -6.85)"/><use xlink:href="#l" width="9.7" height="9.7" transform="translate(-10.85 -6.65)"/><use xlink:href="#m" width="12.8" height="12.8" transform="translate(-5.65 -16.9)"/></g></g></svg>