<svg xmlns="http://www.w3.org/2000/svg" xmlns:xlink="http://www.w3.org/1999/xlink" width="46" height="25" viewBox="0 0 46 25"><defs><clipPath id="a"><path d="M1 1h44v23H1z"/></clipPath><g id="b"><path fill="#352415" d="m30.7 3.3.6.4-.6 3.1-.7.2zm11.6 8.6.8.8q-4 3.6-8.9 6.4-6.2 3.5-13.5 3.5l-2.8-.5q-3.1-1.3-3.1-4.6-2.4 1.2-5 .5-4.9-1.4-8.7-4.4-1.5-1.4-1-2.8l.6-.7.8-.7q-.4 3.2 4.6 5.7 5 2.4 9.4.5l1.9-.7.6-.7-.6.7.8-.1q-2.5 2.7 0 5l1.2.8q7.4 1.3 13.9-2.9L38 15q2-1 2.9-2.6zM10.8 5.3V3.9l5.1-3q-.7.6-1.5 1-2.2 1.3-3.2 3.6zM26.1 9l-3.8 2.1-.9.2-4.2-.8-1.6-2 1 .3h.1l1 .2 6 .4 2-.3z"/><path fill="#c2883b" d="M30.7 3.3 30 7l.8-.2h2.1l-5.4 1.9L26 9h-8.4l-1-.2q-2-2-4.5-2.8l-1-.5q1-2.3 3.2-3.5l1.5-1L22 0q4.7.4 8.6 3.3"/><path fill="#986b2e" d="m32.9 6.8 1.5.4q4.4 1.5 8 4.7l-1.5.5Q39.9 14 38 15l-4.7 2.7q-6.5 4.2-13.9 2.9l-1.2-.8q-2.5-2.3 0-5h-.7l.5-.7-.6.8-2 .7q-4.3 1.9-9.3-.5-5-2.5-4.6-5.7l.3-.3q4.1-2.6 9-3.8l.4.2 1 .5q2.4.8 4.4 2.8l-1-.3 1.5 2 2.2 2.1 3-1.5L26.2 9l1.3-.3zm-7.2 2.4-2 .3-6-.4z"/></g></defs><g clip-path="url(#a)"><use xlink:href="#b" width="43.1" height="22.6" transform="translate(1 1)"/></g></svg>