<svg xmlns="http://www.w3.org/2000/svg" xmlns:xlink="http://www.w3.org/1999/xlink" width="417" height="431" viewBox="0 0 417 431"><defs><g id="b"><path fill="#897920" fill-opacity=".8" d="m83.9 45.3 3.6 2.4q-6.1 1.9-16.5 8.8l1.2-.1-8.4 3.4-3.7 1.2 2.1-1.5q12.1-8.7 21.6-14.2m15 9.8 2.4 1.4-5 1q-5.8 1-11.2 2.5l-8.5 2.4-3.2 1q-5 1.8-9.7 3.9-6.9 3-13 6.8l-4.5 3q-3 2-5.9 4.4L37.3 84q-4 3.5-7.7 7.6L25.7 96q-3.6 4.3-6.8 9l-1.3 1.8L16 109l-2 3.2Q7.7 122.8.6 137.6v-7.3l11-20.9Q22 94.1 37.5 79.7q10.6-10 35.9-18 11.3-3.5 25.5-6.7M51.6 24.4l2.9 1.8q-.2 1.9 0 4.2h-.2v.5l.1 2.9-.1 5.9-.2 3.8-.1.3-.4 2.9-.7 7q0 1.8.3 2.3L52 57.3q-1 1-2.4 3-2.7 3.8-5.2 9.7l-.4-.7v-1.6q3-20.4 7.6-43.3"/><path fill="#734d01" fill-opacity=".8" d="m72.2 56.4 10.3-2.2q4.9-1.3 11.3-2.5l5 3.3q-14.2 3.2-25.5 6.8-25.3 7.9-36 17.9Q22 94.1 11.6 109.4l-11 20.8V41Q5.5 54.6 12 64.8l.2.3 1.8 2.7q7.9 11 10.5 14.3l2.3-1.5 2.2-2.1.6.2.1-.4q3.5-8.4 7.5-20.3l.3-.9 3.4-10.5L44 36.2l-1 .3.3-.5q2.8-6.3 2.8-12.4l-.1-2.8 5.5 3.6Q47 47.3 44 67.7v1.6l.4.7q2.5-6 5.3-9.7 1.3-2 2.3-3l1.2-1.3q6.3-6.5 15.3-17-3.2-4-5.8-6-2.7-2.1-3.9-2.5l-2.5-.4-1.8.3q-.2-2.3 0-4.2l29.3 19.1q-9.5 5.5-21.5 14.2L60 61l3.7-1.2zm-29-19.8-.2.4zM6.4 67.9q-.2-1.1-1.6-3-1.7-2.4-2.3.5v8.5l2-2.1 3.8 10q1 3.2 1.4 5.6l-7.2 13.1.4.4 1.4-.7q2.6-.6 6.4-4.4 3.7-3.7 3.7-4.8-1-4.5-1.2-7.1v-2.4l-.1.1q-.3-3.2-1.7-5.9-.8-1.7-5-7.7"/><path fill="#896c0e" fill-opacity=".8" d="M.5 40.9v-9.1l3.1 7.8.2.6 1 2 .4.8.3 1L7 48.4l.7 1.8.8 2q1.6 3.8 4.7 9.3l.1.3 1.9 3.2q2.7 4.2 4.8 6v.1l.7.4q1 .5 1.6 1.5l2.8 2.5 3.8 2.9-2.2 2.1-2.3 1.5Q21.8 78.8 14 67.7L12 65l-.2-.3Q5.4 54.5.5 40.9"/><path fill="#282000" fill-opacity=".8" d="M5.5 44q16.2-18.7 16.3-22.2l1.8 7.6-.1.1Q11.1 54 12.4 54l2.3 2 1.7-1.1Q29 44.6 29 41.4l4.4 7.1h-.1q-1.9 2.6-3.6 5.4L20 71.1q-2.1-1.9-4.8-6.1l-1.9-3.2-.2-.3q-3-5.5-4.6-9.2l-.8-2.1-.7-1.9zm27.6-14q1.2 2.3 1.7 2.3 3 0 6.2-11.8l-.5-3.2v-.1l5.6 3.6.1 2.8q0 6.1-2.8 12.4l-.2.5-.3.1-2 2.1-2.9 3.7zm7.9 8.6.3-.4-.7.7z"/><path fill="#4c3600" fill-opacity=".8" d="m21.8 21.8-3.2-6.5Q7.1 22.1.5 26.3v-9.2q3.7-1.6 9-4.9 7-4.2 7-5.6 0-.9-1-3.5L14 0l16.6 10.8-1.9.5-3 1.1q.8 3 4.3 11l3 6.7 5 12.3h.1l2.6 4.1L37.5 57l-.3.9-3.6-9.1v-.3L29 41.4l-.2-.3q-3.7-8.9-5.1-11.2l-.2-.4zM4.6 71.7q1.9-2.3 1.9-3.4l-.1-.5q4.2 6.1 5 7.8 1.3 2.8 1.7 5.9l-.7.7-2.7 5.1q-.4-2.4-1.4-5.6z"/><path fill="#593d00" fill-opacity=".8" d="M23.5 29.5h.1l.2.4z"/><path fill="none" stroke="#593d00" stroke-linecap="round" stroke-linejoin="round" stroke-opacity=".8" stroke-width="1" d="m71 56.5 1.2-.1 10.3-2.2q4.9-1.3 11.3-2.5m7.4 4.8-5 1M85 60l-8.5 2.4-3.2 1m-9.7 3.9q-6.9 3-13 6.8m-4.5 3q-3 2-5.9 4.4L37.3 84m-7.7 7.6L25.7 96m-6.8 9-1.3 1.8L16 109m-2 3.2Q7.7 122.8.6 137.6m0-105.8 3.1 7.8q.6.8 1.2 2.6l.4.8.3 1L7 48.4m14.8-26.6-3.2-6.5Q7.1 22.1.5 26.3m30.1-15.5-1.9.5-3 1.1m28.8 18 1.8-.3 2.5.4q1.3.4 3.9 2.5 2.6 2 5.8 6-9 10.5-15.3 17h0q-.4-.5-.4-2.3m1.7-23.3h-.2v.5l.1 2.9-.1 5.9m-.2 3.8-.1.3-.4 2.9M43.1 36.5l1-.3M29.4 78.6l-.5-.2-3.8-2.9m18-39-.2.1-2 2.1-2.9 3.7h.1M3.6 39.8l.2.5 1 2m18.7-12.7.3.4-.2-.4-1.8-7.7m2 8.1q1.3 2.4 5.1 11.2l.2.3 4.4 7.1v.3l3.6 9.1m3.8-19.1-.4.2.7-.7zm-7.5 9.8.1.1m-20.2 13-.2-.2q-3-5.5-4.6-9.2m6.2 3.8-2.3-2q-1.3 0 11.1-24.6m-19 42.2q2-2.3 2-3.4l-.1-.5q-.2-1.1-1.6-3-1.7-2.4-2.3.5v8.5zm5.3 15.6 2.6-5.1.7-.7.1-.1v.7m6.8-11q-2.1-1.9-4.8-6.1m-2 18.8q.2 2.6 1.2 7.1 0 1.1-3.7 4.8-3.8 3.8-6.4 4.4l-1.4.7-.4-.4 7.3-13M20 71l9.8-17q1.7-2.8 3.6-5.4M.5 26.4V17"/></g><g id="e"><path fill="#483b02" d="M117.4.5h33.3Q139 20.8 218 173.8l-21.5-29.3q-52.2-102.1-79-144"/><path fill="url(#a)" d="m137.8-270 21.5 29.3 11.8 16q10.5 19.1 21.8 37 17.1 26.6 40.4 56.8 16.1 20.9 48.6 60l28.7 34.7q1.6 4.5 10.5 17.9 6.3 11.6 13.6 22.4l-7.1-2q-4.2-7.5-6.9-11-3.6-2 2.9 9.9l-3-.8Q116.3-255.8-58.6-414h11.4q3 4.9 9.5 11l17.8 15.6q8 7.5 12 10 3.6 2.3 9.4 4l.3.1.6.3h.5l-17.7-24.9q-7.7-10.2-13.3-16.1h68q38.2 61.8 97.9 144m0 41.7v-.2q0-4.3-1.9-9.7-2-5.4-6-11.8l-1.3-2.2-5.3-7.9q-10.6-13.8-25.8-25.3l-2-1.3.6 1-1.8-1.7-5.3-4.8-.3.2q14 24.1 27.1 41.3 9.4 13.4 12.4 17.3 4.6 6.1 9.5 7.9l.6-1.2z" transform="translate(58.55 414.5)"/><path fill="#846604" d="m154.6 128.8 1.5 2.3q4.8 7.3 20 28 17.5 23.7 20.3 27h.1l.4 1.8-.7 1.1q-4.9-1.8-9.4-7.8-3-4-12.4-17.3-13.1-17.3-27.2-41.4l.3-.2 5.3 4.8z"/><path fill="#aa8007" d="m369.2 378.3-28.7-34.7q-32.5-39.2-48.6-60-23.3-30.2-40.4-56.9-11.4-17.7-21.8-37 77 103.5 184.8 238.8l-13.2-7.6-10-15.7-2.7-4.3q-9.4-14.6-19.6-24.8-.6.3.2 2.1"/><path fill="#5e4a03" d="M11.3.5h7.5Q27 11.1 34 19.1q14.6 16.3 26 22-5.9-1.7-9.5-4-4-2.5-12-10L20.8 11.4q-6.5-6-9.5-10.9"/><path fill="none" stroke="#483b02" stroke-linecap="round" stroke-linejoin="round" stroke-opacity=".5" stroke-width="1" d="M117.4.5q26.8 41.9 79 144l21.5 29.3q-79-153-67.1-173.3M98.4.5q38.2 61.8 98 144m172.8 233.8q-.7-1.9-.1-2.2 10.1 10.1 19.4 24.8l2.8 4.3 10 15.7m13.2 7.6Q306.8 293.1 229.7 189.8l-11.8-16m175.4 244.8q-7.3-10.8-13.6-22.4-9-13.4-10.5-18m17 38.4q-4.3-7.6-7-11-3.6-2 2.9 9.9"/></g><radialGradient id="a" cx="0" cy="0" r="819.2" gradientTransform="matrix(.63 0 0 .63 297.7 -41.75)" gradientUnits="userSpaceOnUse" spreadMethod="pad"><stop offset="0" stop-color="#856705"/><stop offset="1" stop-color="#483b02"/></radialGradient><clipPath id="c"><path d="M1 1h415v429H1z"/></clipPath><use xlink:href="#b" id="d" width="101.7" height="138.1"/></defs><g clip-path="url(#c)"><g transform="translate(28.5 427.05)"><use xlink:href="#d" width="101.7" height="138.1" transform="matrix(.3433 -.0294 .2306 -.3556 7.25 -12.4)"/><use xlink:href="#e" width="415" height="429" transform="matrix(-1 0 0 1 387.5 -426.05)"/></g></g></svg>