<svg xmlns="http://www.w3.org/2000/svg" xmlns:xlink="http://www.w3.org/1999/xlink" width="87" height="114" viewBox="0 0 87 114"><defs><radialGradient id="e" cx="0" cy="0" r="819.2" gradientTransform="matrix(.05 0 0 .05 38 13.15)" gradientUnits="userSpaceOnUse" spreadMethod="pad"><stop offset=".1" stop-color="#bcb87d" stop-opacity=".8"/><stop offset=".5" stop-color="#b5a35b" stop-opacity=".8"/><stop offset=".9" stop-color="#ac9134" stop-opacity=".8"/></radialGradient><radialGradient id="d" cx="0" cy="0" r="819.2" gradientTransform="matrix(.04 0 0 .04 24.2 2.1)" gradientUnits="userSpaceOnUse" spreadMethod="pad"><stop offset="0" stop-color="#c0c198" stop-opacity=".8"/><stop offset=".5" stop-color="#bbb687" stop-opacity=".8"/><stop offset=".9" stop-color="#b19e52" stop-opacity=".8"/></radialGradient><radialGradient id="c" cx="0" cy="0" r="819.2" gradientTransform="matrix(.05 0 0 .05 33.7 18.35)" gradientUnits="userSpaceOnUse" spreadMethod="pad"><stop offset=".4" stop-color="#b5a35b" stop-opacity=".8"/><stop offset=".7" stop-color="#ac9134" stop-opacity=".8"/></radialGradient><radialGradient id="b" cx="0" cy="0" r="819.2" gradientTransform="matrix(.04 0 0 .04 31.65 13.05)" gradientUnits="userSpaceOnUse" spreadMethod="pad"><stop offset=".7" stop-color="#b5a460" stop-opacity=".8"/><stop offset=".9" stop-color="#ac9134" stop-opacity=".8"/></radialGradient><radialGradient id="a" cx="0" cy="0" r="819.2" gradientTransform="matrix(.02 0 0 .02 57.55 7.45)" gradientUnits="userSpaceOnUse" spreadMethod="pad"><stop offset="0" stop-color="#c0c198" stop-opacity=".8"/><stop offset=".1" stop-color="#bbb687" stop-opacity=".8"/><stop offset=".9" stop-color="#b19e52" stop-opacity=".8"/></radialGradient><radialGradient id="j" cx="0" cy="0" r="819.2" gradientTransform="matrix(.05 0 0 .05 38 13.15)" gradientUnits="userSpaceOnUse" spreadMethod="pad"><stop offset=".1" stop-color="#bcb87d" stop-opacity=".3"/><stop offset=".5" stop-color="#b5a35b" stop-opacity=".3"/><stop offset=".9" stop-color="#ac9134" stop-opacity=".3"/></radialGradient><radialGradient id="i" cx="0" cy="0" r="819.2" gradientTransform="matrix(.04 0 0 .04 24.2 2.1)" gradientUnits="userSpaceOnUse" spreadMethod="pad"><stop offset="0" stop-color="#c0c198" stop-opacity=".3"/><stop offset=".5" stop-color="#bbb687" stop-opacity=".3"/><stop offset=".9" stop-color="#b19e52" stop-opacity=".3"/></radialGradient><radialGradient id="h" cx="0" cy="0" r="819.2" gradientTransform="matrix(.05 0 0 .05 33.7 18.35)" gradientUnits="userSpaceOnUse" spreadMethod="pad"><stop offset=".4" stop-color="#b5a35b" stop-opacity=".3"/><stop offset=".7" stop-color="#ac9134" stop-opacity=".3"/></radialGradient><radialGradient id="g" cx="0" cy="0" r="819.2" gradientTransform="matrix(.04 0 0 .04 31.65 13.05)" gradientUnits="userSpaceOnUse" spreadMethod="pad"><stop offset=".7" stop-color="#b5a460" stop-opacity=".3"/><stop offset=".9" stop-color="#ac9134" stop-opacity=".3"/></radialGradient><radialGradient id="f" cx="0" cy="0" r="819.2" gradientTransform="matrix(.02 0 0 .02 57.55 7.45)" gradientUnits="userSpaceOnUse" spreadMethod="pad"><stop offset="0" stop-color="#c0c198" stop-opacity=".3"/><stop offset=".1" stop-color="#bbb687" stop-opacity=".3"/><stop offset=".9" stop-color="#b19e52" stop-opacity=".3"/></radialGradient><g id="n"><path fill="url(#a)" d="M54 6.2q4 .3 8 2.4l1.8 1 .4.3.3-.1h.2l.9-.2q3 0 5.2 3.4.5 1 2.5 1.7 1.2.3 1.7 1-1.8.9-4.2.9-1.5 0-2.6-.6l-2.5-1.4q-1-.7-3.4-1.4l-3.1-1.1q-.7-.4-1.6-2.3l-.1-.3-.2-.2q-.7-1.5-1.4-2z" transform="translate(0 .25)"/><path fill="url(#b)" d="m54 6.2 1.9 1.1q.6.5 1.4 2l-2.7-.7q-3 0-5.4 1.4-1 .6-3.8 3-5.1 4.3-11.8 4.3l-5.1-.6q-3.8 0-9.2 2.4l-5.4 2.2-3.3-1-.9-.2-.7-.2H6q-2.4-.3-2.5-1.4v-.1l7.5-2.9 1.8-.7.3-.2q.4.2.5-.2l1.5-.6 1-.4 6-.6 1.3.2q8.2 0 13-1.2 3.5-.9 5.9-2.6L46 6.7q2.3-1.2 6.1-1.2l.3.1.4.1z" transform="translate(0 .25)"/><path fill="url(#c)" d="m57.3 9.3.2.2.1.3q.9 1.9 1.5 2.3l3.2 1.1q2.5.8 3.4 1.4l2.5 1.5q1.1.5 2.6.5 2.4 0 4.2-1l.3.9v.3l.8.3 1.6.2v.4q0 1.3-7 2.2-7 .8-7 2 0 .5 1 .5l1.3-.1h.6v.6q-.1.5-.8 1.2l-.6.4-.2.3.7.6q-1.7 1.4-4.6 1.7l-5.4.2v-.1q-9.3 0-14.6-1.1l-3.3-.9-4.8-.7q-3.4-.2-5.4-1.8l-5.8-.3-5.9-.5h-.2l-1.7-.6 5.3-2.2q5.4-2.4 9.2-2.4l5.1.6q6.7 0 11.8-4.4 2.8-2.3 3.8-2.9 2.3-1.3 5.3-1.3z" transform="translate(0 .25)"/><path fill="url(#d)" d="m12.9 14.8-5.8-.5-1.7-.4-.2-.1 2.8-1 .8-.2 1-.4-.9-.5q-1.6-.9-4.2-1.1Q.9 10.3 0 9.5q2-1.4 7.9-1.8l8.8-.5q2.6-.3 3.8-1.6l.2-.3 1.1-2.2.2-.4q.6-1.2 1.4-1.8 1.5-1 4.8-1l5.3.9 5 .8 2.4-.4q1.2 0 3.3 1.2l.6.5.5.3.2.1.5-.1 1.5-.2q1.9 0 3.2.9l1.8 1.5h-.1q-4 0-6.2 1.2l-3.7 2.6q-2.4 1.6-5.9 2.5-4.8 1.2-13 1.2l-1.4-.2-5.9.6-1 .4-1.5.6-.4.3h-.1z" transform="translate(0 .25)"/><path fill="#ad9339" fill-opacity=".8" d="m70 23-.5-.1-.6-.3q3.4-1.5 5.4-1.5l1.9.3q1.6.3 2 .9l-1.2.1-5.7.9-1-.2z"/><path fill="url(#e)" d="M13.7 14.5q-.1.3-.5.2z" transform="translate(0 .25)"/><path fill="#131d16" fill-opacity=".2" d="M25.9.2h.1l.1.2-.1.2h-.3l-.1-.2V.2zm1.4-.2.1.3-.1.1-.1.1-.2-.1-.1-.2V0zm1.4 0h.2v.4l-.2.1-.2-.1V0zm32.5 8.4h.2l.1.3-.1.1-.1.1-.2-.1-.1-.1zm1.5.7h.4l.1.2-.1.1-.1.2-.2-.2-.1-.1zm2.4 1.2.2.2-.2.2h-.3v-.4zM65 10l-.1.2h-.3l-.1-.2v-.2h.4zm3.1.2.1.2-.1.2h-.3l-.1-.2v-.2zm-.3.8.2.2-.2.2h-.3V11zm-1.2-1-.2.2-.1-.1-.1-.2v-.2h.4zm.1.9.1.2-.1.2h-.3l-.1-.2V11zm2.8.2v.3l-.2.1-.2-.1V11zm.7 1.1h.3l.1.2-.1.2H70l-.1-.2zm-5 8.9v.3l-.2.2-.2-.2v-.3zm.4 1.3h.3l.2.2-.2.1-.1.2-.2-.1zm-1.2-.1v.3l-.2.1-.2-.1v-.3l.2-.1zm1.5 2h.3l.2.2-.2.2h-.3zm5-4.3.2.2-.2.1-.1.2-.2-.1V20zm-1.7.2h.3l.1.2-.1.1-.1.2-.2-.2-.1-.1zm1.9 1.6h.2v.4l-.2.1-.2-.1v-.3zM68 20.4l.1.2-.1.1-.2.1h-.2v-.4zm-1.8.3h.4v.3l-.2.2-.2-.2zM67 23l.1.2v.1l-.2.2-.2-.1V23zm2.9.2h-.4v-.4h.4l.1.2zm-.5-.6v.2l-.2.1h-.1l-.2-.1v-.3l.2-.1h.3zm7.3-5.5.2.1v.4h-.4v-.4zm0 1.5h.2l.1.3-.1.1-.2.1-.2-.1v-.3zm1-1h.3l.1.2-.1.2h-.4v-.4M73.9 15l.2-.1h.2v.4l-.2.1-.2-.1zm-2.4-1.3.1.2-.1.1-.2.2-.2-.2v-.3zm.9.8.2-.1h.2v.4l-.2.1-.2-.1zm2.8 2h.4v.4l-.2.1-.2-.1zm-.3 2.8h.4v.4h-.4zm-1.1.5-.1.2h-.3l-.1-.2v-.2h.4zm.1 1.5-.1.2h-.4V21h.4zm1-.2h.3l.1.2-.1.2h-.3l-.1-.2zm-2.5-1-.2.1H72v-.4h.4v.4m-.4 1.2h.4l.1.2-.1.1-.2.1H72zm4.4-.1h.3l.2.2-.2.2h-.3zm1.8.5.1.2-.1.2h-.3l-.1-.2v-.2zm-1.2.8v-.2l.2-.1h.2v.4l-.2.1zM51.5 4.8h.1l.1.2-.1.1-.1.2-.2-.2-.1-.1v-.2zm-.5 1V6l-.2.1-.2-.1v-.4h.4zm1.4-.3.1.2-.1.1-.1.2-.2-.2-.1-.1v-.2zm3 .8.1.1.1.2-.1.2h-.3l-.1-.2v-.2zm-1.5-.2.1.3-.1.1-.1.1-.2-.1-.1-.1v-.2zm5.8 1.5h.3l.1.2-.1.2h-.3l-.1-.2zm-1.1-.5.1.1-.1.2-.1.1-.2-.1-.1-.2v-.1l.3-.1zM57.1 7H57l-.1.2-.2-.2-.1-.1v-.2h.4zm-8.3-3.7h.2v.4l-.2.1-.2-.1v-.3zm-1.7-.1h.3l.1.2-.1.2h-.3l-.1-.2zm.6 3 .2-.1h.2v.4l-.2.1-.2-.1V6m2.8-2.2v.4H50v-.4h.3m-1.2 1.9h.4V6l-.2.2-.2-.2zm-6-3.5.3-.1h.1l.1.3-.1.1-.1.1-.2-.1-.1-.1zm1.4.8h.4l.1.2-.1.1-.1.2-.2-.1-.1-.2zm-2.3-1.4.1.1-.1.2-.2.1-.1-.1-.1-.1v-.2l.3-.1zm-1.5.1-.1.1-.1.2-.2-.1-.1-.2v-.2h.4zm1.8 2.7v.4H42v-.4h.4m-1.6.4h.1l.1.3V5l-.2.1-.2-.1v-.3zm4.4-.9-.2-.1-.1-.2v-.1l.3-.1h.1l.1.3zm-1.6 0h.3l.1.3-.1.1-.1.1-.2-.1-.1-.2zm1 3.7h.4l.1.2-.1.2h-.3l-.1-.2zm-1.1.8h.3l.1.2-.1.2h-.3l-.1-.2zm-1.3 1 .1.1.1.2v.2H42v-.4zm-1.5.8.3-.1h.1l.1.3-.1.1-.1.1-.2-.1-.1-.2zM46 6.8h.3l.2.2-.1.1-.2.2L46 7zm-7-5h.1l.1.2-.2.1h-.2v-.4zm-1.2 0 .1.2-.1.1-.1.1h-.2l-.1-.2v-.2zM36 1.5h.3l.1.2-.1.2H36l-.1-.2zm1.9 4h.3l.1.2-.1.1-.1.2-.2-.2-.1-.1zm1.9-.3.1.1-.1.2-.1.1-.2-.1-.1-.2v-.1l.3-.1zm-5.1-3.9h.3l.1.2-.1.2h-.3l-.1-.2zm-1-.2-.1.1-.2.1h-.2V.7h.3zM31.9.8l-.2.1h-.2V.5h.3l.2.2zm1.6 11.5h.1l.1.3-.1.1-.1.1-.2-.1-.1-.2v-.2zm1.3-.2h.3l.1.2v.2h-.4zm1.5-.3.2-.1h.1l.1.3v.1l-.2.1-.2-.1zm1.8-.5.1.3-.1.1-.1.1-.2-.1-.1-.2v-.2zm1.5-.5.1.2v.2h-.4v-.4zM30.2.7 30 .6V.3l.2-.1h.1l.2.3-.1.1zm-6-.1.2-.1h.2V1l-.2.1-.2-.1zm-1 1-.1.1-.2.2-.2-.1v-.4h.4zm-2.7 3.9.2-.1h.1l.2.3-.1.1-.2.1-.2-.1zm.4 2.3V8l-.2.1-.2-.1v-.3l.2-.1zm-.2 3.5h.4v.4h-.4zm9.7 1.8v-.2h.4l.1.2-.1.2h-.3zM29 13h.3l.1.2-.1.2H29l-.1-.2zm-1.1.1.1.2-.1.2h-.3l-.1-.2V13zm-1.8 0h.3l.1.2v.2h-.4zm-1.6 0h.4l.1.3-.1.1-.2.1-.1-.1-.1-.2zm-1 0-.1.2-.2.1-.1-.1-.1-.2h.4zm-1.4-.3.1.2-.1.1-.2.1-.2-.1v-.3l.3-.1zm-1.4.3v.2l-.2.1-.2-.1v-.4h.4zM32 13l-.2-.1v-.4h.3l.1.3v.1zM20 6.3v.3l-.2.1-.2-.1v-.4h.4m-5 1.4.2-.1h.2v.4l-.2.1-.2-.1zm-1.4 0h.3l.1.2-.1.1-.2.2-.1-.2-.1-.1zm-1 .1V8H12v-.4h.3m-1.7.1h.3l.1.2-.1.2h-.4zm.3 4h.3l.1.2-.1.2h-.3l-.1-.2zm1.8-.5v.4h-.4v-.4zm2.4-1 .3-.1h.1l.1.3-.1.1-.2.1-.1-.1zm-1 .8h-.2v-.4h.4v.3m4-4h.4l.1.3-.1.1-.1.1-.2-.1-.1-.1zm.1 2.2-.1.1-.2.1-.1-.1-.1-.2zm.9-.8.2-.1h.1l.2.3-.2.1-.1.1-.2-.1zm-2.3-1 .1.1-.1.2-.2.1-.2-.1v-.4zm0 2.2v.4h-.4v-.4zm2.4 2.4h.4l.1.3-.1.1-.1.1-.2-.1-.1-.2zm-16-3.5.3-.1h.1l.1.3-.1.1-.1.1-.2-.1-.1-.2zM5 8.2l.2-.1h.1l.1.3-.1.1-.1.1-.2-.1-.1-.2zM.5 9H1l.1.2-.1.1-.2.2-.1-.2-.1-.1zm1.9-.5v.3l-.2.2-.2-.2v-.3h.3m7.3-.9V8h-.4v-.4zM8 7.7l.1.2-.1.2h-.3l.1-.1v-.2zm-1.3.1v.4h-.4v-.4zm1.9 4v-.2H9v.4h-.4zm.9.3h.3l.1.3-.1.1-.2.1-.1-.1-.1-.2zm-1.7.7h.4v.4h-.4zm-1.1.5.1.2-.1.2h-.4v-.4zm-1.2.8-.2.1-.2-.1v-.4h.4zm1 .1h.3l.2.2-.2.2h-.3zm1 2.6.1.3-.1.1-.1.1-.2-.1-.1-.2zm-1.7.6.3-.1h.1l.1.3-.1.1-.2.1-.2-.1zm-1.3.7.2-.1h.1l.1.3-.1.1-.1.1-.2-.1-.1-.1zM19 13v.3l-.2.2-.2-.2V13zm-1.1-.4h.3l.1.2v.2h-.4zm-.3.6.1.2-.1.2h-.3l-.1-.2v-.2zm-1.2.1h.1l.2.3-.2.1-.1.1h-.1l-.2-.1v-.4zm-1.6.7h.2v.3l-.2.2-.2-.2V14zm-1.2.8-.2.2H13v-.4h.4zm.4-.4.1.2v.2h-.4v-.4z"/></g><g id="m"><path fill="#176b59" fill-opacity=".5" d="M52.3 7.5 53 6q.2-.8 0-.9l-.2-.3-2.4-.8q-3 1.3-3.8 2.1-1.3 1.1-1.9 3.1-.4 1.3-.9 5.4-.2 1.6 1 5v.2q.9-3.3 7.6-4.3 6.3-.9 10 .9l2.1 1.5.1-.2.1.1q.1.4.1.1 1.3.8 2.5 5.6-1.9 6.3-4.8 4.9l-1.2-1.1 1.7-1.7 1.5-2q.3-1-1-2.9l-2-2.1-2.9-1q-1-.5-7.3 1.2-.8.2-2 1.5-1.4 1.4-2 3.1l-.3 1.7q-.6 1.7-.2 4.6l.9 5.3q1.3 7.7-.3 12.9-1.5 4.9-9.9 7l-5.8 1.4q-2.7.9-3.2 2.4l-.5 1.8q0 .6.5 1.5l9.1.4 8 .8 1.6 1 .3.2v.1q.5 1.2 1.6 3.1 1.9 2.8 3.3 3.5 7.2 3.4 9.2 2.8 1-.4 1.8-1.9l1.4-4q.5-1.7.1-3.4v-.1q-.5-2-2.1-2.7-3.2-1.6-4.4-1.8-2.2-.5-2.9 1.5 0 .3 1.1 1.7l.1.4q-.7 0-1.9-.6-.4-.1-.5-1.6l-.1-1.5q.4-1.4 2.9-1.6 2.1-.2 3.5.4l2.9 1.5q1.8.8 2.4 3.5l.2 1.7q.3 3-.1 4.6-1.8 5.5-3.4 6.5l-.1.1q-2.4 1.1-8.6-1.8-6.1-6.7-9.3-8.3l-11.7-1.1-4.4.4q-1.8.5-2.4 1.7l-.2.3-.2.3q-1.3 1.7-3.1 2.7l-3.5 1.4q-2.1.6-3.1 1.5-1.5 1.2-2.2 3.6l-.2.9q.8-.5 6.2-1l8.6-.4 5.9-.7q2.5-.1 8.5 2.8 1.9.8 2.4 1.8.4.8.2 2.6l-.7 5.7q-.4 1.3-3.7 1l-3.3-.7-.2-.1q-.7-.7-1.1-3.3-.4-2.7-.1-3.5l2.2-.2H40q.7.3 1.1 2.6h-2.3q.5 1 .2 2.1l4.6-.7q-.1-2.7.1-4.4l-2-1q-4.7-2.5-8.8-2.6l-9.6.3q-3.4.1-8.4 1.7l-2 .5-.4.1L9.8 88q-.6 2-.4 5.5.3 5 2.8 7.3v.3l-1.7-1.2q-2.3-1.1-3.6-1.2L3 99q-.3-3-2.4-6.2 3.1 1.1 5.8-2.6 1.4-2.2 2.3-5L11 74.8q1.1-3.8 5.3-5.7l7.2-3h.1q1.9-2.5 2.6-4.6.5-1.9 0-4-.5-2.3-.4-2.6.3-1.1 7-2.5l8.9-2.1V50l.9-2.1.7-2.4q1.8-5.7 1-14.5-.8-7.7-2.6-10.7l-.2-.3q-1-1.5-2.4-4.3-1.7-2.9-5.2-4.5h-.2q-2.2-1.1-4.7 1.3-2 2-2.9 4.8-.1.3.8 1.7.9 1.6 1.7 2h2.9l1-2 .1.3.8.1-.4 2.8q-.5 1.6-5-.4-2.7-1.5-3.5-2.3l-.2-.2q-.7-1.1-.2-2.8.4-1.5 1.9-3.8 1.4-2.2 1.6-2.2 6.1-1.5 6.9-1 1.9.8 4.7 3.7 2.6 2.6 3.4 4l.1.4q-.5-2.4-.5-6.7t.6-6.5q.7-2.4 4-3.4 3.3-1.1 6 .3l.5-.2q1.8.9 3.2 5.2-.7 2.1-1.4 2.4t-2.2-.6l-.7-.4zm-28 58.4-.7.1z"/><path fill="none" stroke="#155944" stroke-linecap="round" stroke-linejoin="round" stroke-opacity=".5" stroke-width="1" d="M52.3 7.5 53 6q.2-.8 0-.9l-.2-.3-2.4-.8q-3 1.3-3.8 2.1-1.3 1.1-1.9 3.1-.4 1.3-.9 5.4-.2 1.6 1 5m-5.7-4q-1.9-2.8-5.4-4.4h-.1q-2.2-1.1-4.7 1.3-2 2-2.9 4.8-.1.3.8 1.7.9 1.6 1.7 2h2.9l1-2m.9.4-.4 2.8q-.5 1.6-5-.4-2.7-1.5-3.5-2.3l-.2-.2m32.3-13q-.7 2.1-1.4 2.4t-2.2-.6"/><path fill="none" stroke="#60dbb6" stroke-linecap="round" stroke-linejoin="round" stroke-opacity=".5" stroke-width="1" d="M44.8 19.6v.2q.9-3.3 7.6-4.3 6.3-.9 10 .9l2.1 1.5.1-.2.1.1q.1.4.1.1 1.3.8 2.5 5.6-1.9 6.3-4.8 4.9l-1.2-1.1m-14-3.9-.3 1.7M28.5 62l9.1.4 8 .8 1.6 1 .3.2v.1q.5 1.2 1.6 3.1 1.9 2.8 3.3 3.5 7.2 3.4 9.2 2.8 1-.4 1.8-1.9l1.4-4q.5-1.7.1-3.4v-.1m-8.3-1.3.1.4q-.7 0-1.9-.6-.4-.1-.5-1.6l-.1-1.5q.4-1.4 2.9-1.6 2.1-.2 3.5.4l2.9 1.5q1.8.8 2.4 3.5l.2 1.7q.3 3-.1 4.6-1.8 5.5-3.4 6.5l-.1.1m-48.8 1.6q.7-.5 6.1-1l8.6-.4 5.9-.7q2.5-.1 8.5 2.8 1.9.8 2.4 1.8.4.8.2 2.6m-7.9 5.9q-.7-.7-1.1-3.3-.4-2.7-.1-3.5l2.2-.2H40q.7.3 1.1 2.6m-2.3 0q.5 1 .2 2.1l4.6-.7q-.1-2.7.1-4.4M.5 92.8q3.1 1.1 5.8-2.6 1.4-2.2 2.3-5l2.3-10.4q1.1-3.8 5.3-5.7l7.2-3h.1q1.9-2.5 2.6-4.6.5-1.9 0-4-.5-2.3-.4-2.6.3-1.1 7-2.5l8.9-2.1V50l.9-2.1.7-2.4q1.8-5.7 1-14.5-.8-7.7-2.6-10.7l-.2-.3q-1-1.5-2.4-4.3M32.4 19l.1.3.8.1m-9.1-.1q-.7-1.1-.2-2.8.4-1.5 1.9-3.8 1.4-2.2 1.6-2.2 6.1-1.5 6.9-1 1.9.8 4.7 3.7 2.6 2.6 3.4 4l.1.4q-.5-2.4-.5-6.7t.6-6.5Q43.5 2 46.8 1q3.3-1.1 6 .3l.5-.2q1.8.9 3.2 5.2m-3.6 1.8-.7-.4v-.2M23.6 66l.7-.2"/><path fill="none" stroke="#104535" stroke-linecap="round" stroke-linejoin="round" stroke-opacity=".5" stroke-width="1" d="m61.3 27.3 1.7-1.7 1.5-2q.3-1-1-2.9l-2-2.1-2.9-1q-1-.5-7.3 1.2-.8.2-2 1.5-1.4 1.4-2 3.1m17.6 41q-.5-1.9-2.1-2.7-3.2-1.5-4.4-1.7-2.2-.5-2.9 1.5 0 .3 1.1 1.7m5.9 13.4q-2.4 1.1-8.6-1.8-6.1-6.7-9.3-8.3l-11.7-1.1-4.4.4q-1.8.5-2.4 1.7l-.2.3-.2.3q-1.3 1.7-3.1 2.7l-3.5 1.4q-2.1.6-3.1 1.5-1.5 1.2-2.2 3.6l-.2.9m31.8 5.1-.7 5.7q-.4 1.3-3.7 1l-3.3-.7-.2-.1m3.6-4.4h-2.3m5-3-2.1-1q-4.7-2.5-8.8-2.6l-9.6.3q-3.4.1-8.4 1.7l-2 .5-.4.1L9.8 88q-.6 2-.4 5.5.3 5 2.8 7.3"/><path fill="none" stroke="#16614a" stroke-linecap="round" stroke-linejoin="round" stroke-opacity=".5" stroke-width="1" d="M47 25.1q-.6 1.7-.2 4.6l.9 5.3q1.3 7.7-.3 12.9-1.5 4.9-9.9 7l-5.8 1.4q-2.7.9-3.2 2.4l-.5 1.8q0 .6.5 1.5"/></g><g id="l"><path fill="url(#f)" d="M54 6.2q4 .3 8 2.4l1.8 1 .4.3.3-.1h.2l.9-.2q3 0 5.2 3.4.5 1 2.5 1.7 1.2.3 1.7 1-1.8.9-4.2.9-1.5 0-2.6-.6l-2.5-1.4q-1-.7-3.4-1.4l-3.1-1.1q-.7-.4-1.6-2.3l-.1-.3-.2-.2q-.7-1.5-1.4-2z" transform="translate(0 .25)"/><path fill="url(#g)" d="m54 6.2 1.9 1.1q.6.5 1.4 2l-2.7-.7q-3 0-5.4 1.4-1 .6-3.8 3-5.1 4.3-11.8 4.3l-5.1-.6q-3.8 0-9.2 2.4l-5.4 2.2-3.3-1-.9-.2-.7-.2H6q-2.4-.3-2.5-1.4v-.1l7.5-2.9 1.8-.7.3-.2q.4.2.5-.2l1.5-.6 1-.4 6-.6 1.3.2q8.2 0 13-1.2 3.5-.9 5.9-2.6L46 6.7q2.3-1.2 6.1-1.2l.3.1.4.1z" transform="translate(0 .25)"/><path fill="url(#h)" d="m57.3 9.3.2.2.1.3q.9 1.9 1.5 2.3l3.2 1.1q2.5.8 3.4 1.4l2.5 1.5q1.1.5 2.6.5 2.4 0 4.2-1l.3.9v.3l.8.3 1.6.2v.4q0 1.3-7 2.2-7 .8-7 2 0 .5 1 .5l1.3-.1h.6v.6q-.1.5-.8 1.2l-.6.4-.2.3.7.6q-1.7 1.4-4.6 1.7l-5.4.2v-.1q-9.3 0-14.6-1.1l-3.3-.9-4.8-.7q-3.4-.2-5.4-1.8l-5.8-.3-5.9-.5h-.2l-1.7-.6 5.3-2.2q5.4-2.4 9.2-2.4l5.1.6q6.7 0 11.8-4.4 2.8-2.3 3.8-2.9 2.3-1.3 5.3-1.3z" transform="translate(0 .25)"/><path fill="url(#i)" d="m12.9 14.8-5.8-.5-1.7-.4-.2-.1 2.8-1 .8-.2 1-.4-.9-.5q-1.6-.9-4.2-1.1Q.9 10.3 0 9.5q2-1.4 7.9-1.8l8.8-.5q2.6-.3 3.8-1.6l.2-.3 1.1-2.2.2-.4q.6-1.2 1.4-1.8 1.5-1 4.8-1l5.3.9 5 .8 2.4-.4q1.2 0 3.3 1.2l.6.5.5.3.2.1.5-.1 1.5-.2q1.9 0 3.2.9l1.8 1.5h-.1q-4 0-6.2 1.2l-3.7 2.6q-2.4 1.6-5.9 2.5-4.8 1.2-13 1.2l-1.4-.2-5.9.6-1 .4-1.5.6-.4.3h-.1z" transform="translate(0 .25)"/><path fill="#ad9339" fill-opacity=".3" d="m70 23-.5-.1-.6-.3q3.4-1.5 5.4-1.5l1.9.3q1.6.3 2 .9l-1.2.1-5.7.9-1-.2z"/><path fill="url(#j)" d="M13.7 14.5q-.1.3-.5.2z" transform="translate(0 .25)"/><path fill="#131d16" fill-opacity=".1" d="M25.9.2h.1l.1.2-.1.2h-.3l-.1-.2V.2zm1.4-.2.1.3-.1.1-.1.1-.2-.1-.1-.2V0zm1.4 0h.2v.4l-.2.1-.2-.1V0zm32.5 8.4h.2l.1.3-.1.1-.1.1-.2-.1-.1-.1zm1.5.7h.4l.1.2-.1.1-.1.2-.2-.2-.1-.1zm2.4 1.2.2.2-.2.2h-.3v-.4zM65 10l-.1.2h-.3l-.1-.2v-.2h.4zm3.1.2.1.2-.1.2h-.3l-.1-.2v-.2zm-.3.8.2.2-.2.2h-.3V11zm-1.2-1-.2.2-.1-.1-.1-.2v-.2h.4zm.1.9.1.2-.1.2h-.3l-.1-.2V11zm2.8.2v.3l-.2.1-.2-.1V11zm.7 1.1h.3l.1.2-.1.2H70l-.1-.2zm-5 8.9v.3l-.2.2-.2-.2v-.3zm.4 1.3h.3l.2.2-.2.1-.1.2-.2-.1zm-1.2-.1v.3l-.2.1-.2-.1v-.3l.2-.1zm1.5 2h.3l.2.2-.2.2h-.3zm5-4.3.2.2-.2.1-.1.2-.2-.1V20zm-1.7.2h.3l.1.2-.1.1-.1.2-.2-.2-.1-.1zm1.9 1.6h.2v.4l-.2.1-.2-.1v-.3zM68 20.4l.1.2-.1.1-.2.1h-.2v-.4zm-1.8.3h.4v.3l-.2.2-.2-.2zM67 23l.1.2v.1l-.2.2-.2-.1V23zm2.9.2h-.4v-.4h.4l.1.2zm-.5-.6v.2l-.2.1h-.1l-.2-.1v-.3l.2-.1h.3zm7.3-5.5.2.1v.4h-.4v-.4zm0 1.5h.2l.1.3-.1.1-.2.1-.2-.1v-.3zm1-1h.3l.1.2-.1.2h-.4v-.4M73.9 15l.2-.1h.2v.4l-.2.1-.2-.1zm-2.4-1.3.1.2-.1.1-.2.2-.2-.2v-.3zm.9.8.2-.1h.2v.4l-.2.1-.2-.1zm2.8 2h.4v.4l-.2.1-.2-.1zm-.3 2.8h.4v.4h-.4zm-1.1.5-.1.2h-.3l-.1-.2v-.2h.4zm.1 1.5-.1.2h-.4V21h.4zm1-.2h.3l.1.2-.1.2h-.3l-.1-.2zm-2.5-1-.2.1H72v-.4h.4v.4m-.4 1.2h.4l.1.2-.1.1-.2.1H72zm4.4-.1h.3l.2.2-.2.2h-.3zm1.8.5.1.2-.1.2h-.3l-.1-.2v-.2zm-1.2.8v-.2l.2-.1h.2v.4l-.2.1zM51.5 4.8h.1l.1.2-.1.1-.1.2-.2-.2-.1-.1v-.2zm-.5 1V6l-.2.1-.2-.1v-.4h.4zm1.4-.3.1.2-.1.1-.1.2-.2-.2-.1-.1v-.2zm3 .8.1.1.1.2-.1.2h-.3l-.1-.2v-.2zm-1.5-.2.1.3-.1.1-.1.1-.2-.1-.1-.1v-.2zm5.8 1.5h.3l.1.2-.1.2h-.3l-.1-.2zm-1.1-.5.1.1-.1.2-.1.1-.2-.1-.1-.2v-.1l.3-.1zM57.1 7H57l-.1.2-.2-.2-.1-.1v-.2h.4zm-8.3-3.7h.2v.4l-.2.1-.2-.1v-.3zm-1.7-.1h.3l.1.2-.1.2h-.3l-.1-.2zm.6 3 .2-.1h.2v.4l-.2.1-.2-.1V6m2.8-2.2v.4H50v-.4h.3m-1.2 1.9h.4V6l-.2.2-.2-.2zm-6-3.5.3-.1h.1l.1.3-.1.1-.1.1-.2-.1-.1-.1zm1.4.8h.4l.1.2-.1.1-.1.2-.2-.1-.1-.2zm-2.3-1.4.1.1-.1.2-.2.1-.1-.1-.1-.1v-.2l.3-.1zm-1.5.1-.1.1-.1.2-.2-.1-.1-.2v-.2h.4zm1.8 2.7v.4H42v-.4h.4m-1.6.4h.1l.1.3V5l-.2.1-.2-.1v-.3zm4.4-.9-.2-.1-.1-.2v-.1l.3-.1h.1l.1.3zm-1.6 0h.3l.1.3-.1.1-.1.1-.2-.1-.1-.2zm1 3.7h.4l.1.2-.1.2h-.3l-.1-.2zm-1.1.8h.3l.1.2-.1.2h-.3l-.1-.2zm-1.3 1 .1.1.1.2v.2H42v-.4zm-1.5.8.3-.1h.1l.1.3-.1.1-.1.1-.2-.1-.1-.2zM46 6.8h.3l.2.2-.1.1-.2.2L46 7zm-7-5h.1l.1.2-.2.1h-.2v-.4zm-1.2 0 .1.2-.1.1-.1.1h-.2l-.1-.2v-.2zM36 1.5h.3l.1.2-.1.2H36l-.1-.2zm1.9 4h.3l.1.2-.1.1-.1.2-.2-.2-.1-.1zm1.9-.3.1.1-.1.2-.1.1-.2-.1-.1-.2v-.1l.3-.1zm-5.1-3.9h.3l.1.2-.1.2h-.3l-.1-.2zm-1-.2-.1.1-.2.1h-.2V.7h.3zM31.9.8l-.2.1h-.2V.5h.3l.2.2zm1.6 11.5h.1l.1.3-.1.1-.1.1-.2-.1-.1-.2v-.2zm1.3-.2h.3l.1.2v.2h-.4zm1.5-.3.2-.1h.1l.1.3v.1l-.2.1-.2-.1zm1.8-.5.1.3-.1.1-.1.1-.2-.1-.1-.2v-.2zm1.5-.5.1.2v.2h-.4v-.4zM30.2.7 30 .6V.3l.2-.1h.1l.2.3-.1.1zm-6-.1.2-.1h.2V1l-.2.1-.2-.1zm-1 1-.1.1-.2.2-.2-.1v-.4h.4zm-2.7 3.9.2-.1h.1l.2.3-.1.1-.2.1-.2-.1zm.4 2.3V8l-.2.1-.2-.1v-.3l.2-.1zm-.2 3.5h.4v.4h-.4zm9.7 1.8v-.2h.4l.1.2-.1.2h-.3zM29 13h.3l.1.2-.1.2H29l-.1-.2zm-1.1.1.1.2-.1.2h-.3l-.1-.2V13zm-1.8 0h.3l.1.2v.2h-.4zm-1.6 0h.4l.1.3-.1.1-.2.1-.1-.1-.1-.2zm-1 0-.1.2-.2.1-.1-.1-.1-.2h.4zm-1.4-.3.1.2-.1.1-.2.1-.2-.1v-.3l.3-.1zm-1.4.3v.2l-.2.1-.2-.1v-.4h.4zM32 13l-.2-.1v-.4h.3l.1.3v.1zM20 6.3v.3l-.2.1-.2-.1v-.4h.4m-5 1.4.2-.1h.2v.4l-.2.1-.2-.1zm-1.4 0h.3l.1.2-.1.1-.2.2-.1-.2-.1-.1zm-1 .1V8H12v-.4h.3m-1.7.1h.3l.1.2-.1.2h-.4zm.3 4h.3l.1.2-.1.2h-.3l-.1-.2zm1.8-.5v.4h-.4v-.4zm2.4-1 .3-.1h.1l.1.3-.1.1-.2.1-.1-.1zm-1 .8h-.2v-.4h.4v.3m4-4h.4l.1.3-.1.1-.1.1-.2-.1-.1-.1zm.1 2.2-.1.1-.2.1-.1-.1-.1-.2zm.9-.8.2-.1h.1l.2.3-.2.1-.1.1-.2-.1zm-2.3-1 .1.1-.1.2-.2.1-.2-.1v-.4zm0 2.2v.4h-.4v-.4zm2.4 2.4h.4l.1.3-.1.1-.1.1-.2-.1-.1-.2zm-16-3.5.3-.1h.1l.1.3-.1.1-.1.1-.2-.1-.1-.2zM5 8.2l.2-.1h.1l.1.3-.1.1-.1.1-.2-.1-.1-.2zM.5 9H1l.1.2-.1.1-.2.2-.1-.2-.1-.1zm1.9-.5v.3l-.2.2-.2-.2v-.3h.3m7.3-.9V8h-.4v-.4zM8 7.7l.1.2-.1.2h-.3l.1-.1v-.2zm-1.3.1v.4h-.4v-.4zm1.9 4v-.2H9v.4h-.4zm.9.3h.3l.1.3-.1.1-.2.1-.1-.1-.1-.2zm-1.7.7h.4v.4h-.4zm-1.1.5.1.2-.1.2h-.4v-.4zm-1.2.8-.2.1-.2-.1v-.4h.4zm1 .1h.3l.2.2-.2.2h-.3zm1 2.6.1.3-.1.1-.1.1-.2-.1-.1-.2zm-1.7.6.3-.1h.1l.1.3-.1.1-.2.1-.2-.1zm-1.3.7.2-.1h.1l.1.3-.1.1-.1.1-.2-.1-.1-.1zM19 13v.3l-.2.2-.2-.2V13zm-1.1-.4h.3l.1.2v.2h-.4zm-.3.6.1.2-.1.2h-.3l-.1-.2v-.2zm-1.2.1h.1l.2.3-.2.1-.1.1h-.1l-.2-.1v-.4zm-1.6.7h.2v.3l-.2.2-.2-.2V14zm-1.2.8-.2.2H13v-.4h.4zm.4-.4.1.2v.2h-.4v-.4z"/></g><clipPath id="k"><path d="M1 1h85v112H1z"/></clipPath></defs><g clip-path="url(#k)"><g transform="translate(26.15 99.5)"><use xlink:href="#l" width="78.2" height="27.6" transform="matrix(.591 .166 -.0844 .7156 -22.85 -20.6)"/><use xlink:href="#m" width="67.8" height="101.2" transform="translate(-8.85 -98.5)"/><use xlink:href="#n" width="78.2" height="27.6" transform="matrix(-.4341 -.1219 .062 .5605 20.55 -2.6)"/></g></g></svg>