<svg xmlns="http://www.w3.org/2000/svg" xmlns:xlink="http://www.w3.org/1999/xlink" width="174" height="452" viewBox="0 0 174 452"><defs><g id="ab"><path fill="#2a310e" d="M.5 4.2Q41.3-7.4 65.1 17.7 26.1 3.2.5 4.2"/><path fill="none" stroke="#131408" stroke-linecap="round" stroke-linejoin="round" stroke-opacity=".3" stroke-width="1" d="M.5 4.2q25.6-1 64.6 13.5Q41.3-7.4.5 4.2"/></g><g id="aa"><path fill="#464e14" d="M.5 6.6Q35.1-7.1 61.3 9.8 19.4 2 .5 6.5"/><path fill="none" stroke="#0d0e06" stroke-linecap="round" stroke-linejoin="round" stroke-opacity=".3" stroke-width="1" d="M.5 6.6Q19.4 2 61.3 9.8 35-7 .5 6.5"/></g><g id="Z"><path fill="#333b11" d="M48.1.5q6.8 2 17.2.6L58.6 3l-.6.2Q35.8 11.3.5 41.8 26 6.1 48.1.5"/><path fill="#1a260d" d="M65.3 1q7.2.7 21 12.3Q64 1.6 58.6 3z"/><path fill="none" stroke="#171909" stroke-linecap="round" stroke-linejoin="round" stroke-opacity=".3" stroke-width="1" d="M48.1.5q6.8 2 17.2.6"/><path fill="none" stroke="#171909" stroke-linecap="round" stroke-linejoin="round" stroke-opacity=".3" stroke-width="1" d="M65.3 1q7.2.7 21 12.3Q64 1.6 58.6 3l-.6.2Q35.8 11.3.5 41.8 26 6.1 48.1.5m17.2.6L58.6 3"/></g><g id="Y"><path fill="url(#a)" d="M-8 13.4Q-1.3-.7-.5 1.3q5.2.5 4 14.9T-12 59.8q-3-32.4 4-46.4" transform="translate(13.35 -.55)"/><path fill="none" stroke="#131508" stroke-linecap="round" stroke-linejoin="round" stroke-opacity=".3" stroke-width="1" d="M5.3 12.8q-6.8 14-3.9 46.5Q15.8 30 17 15.7T12.9.6q-.7-2-7.6 12.1"/></g><g id="X"><path fill="#232a0c" d="M48.1.5q6.8 2 17.2.6L58.6 3l-.6.2Q35.8 11.3.5 41.8 26 6.1 48.1.5"/><path fill="#121b09" d="M65.3 1q7.2.7 21 12.3Q64 1.6 58.6 3z"/><path fill="none" stroke="#101107" stroke-linecap="round" stroke-linejoin="round" stroke-opacity=".3" stroke-width="1" d="M48.1.5q6.8 2 17.2.6"/><path fill="none" stroke="#101107" stroke-linecap="round" stroke-linejoin="round" stroke-opacity=".3" stroke-width="1" d="M65.3 1q7.2.7 21 12.3Q64 1.6 58.6 3l-.6.2Q35.8 11.3.5 41.8 26 6.1 48.1.5m17.2.6L58.6 3"/></g><g id="W"><path fill="#3c4614" d="M48.1.5q6.8 2 17.2.6L58.6 3l-.6.2Q35.8 11.3.5 41.8 26 6.1 48.1.5"/><path fill="#1f2d10" d="M65.3 1q7.2.7 21 12.3Q64 1.6 58.6 3z"/><path fill="none" stroke="#1b1d0b" stroke-linecap="round" stroke-linejoin="round" stroke-opacity=".3" stroke-width="1" d="M48.1.5q6.8 2 17.2.6"/><path fill="none" stroke="#1b1d0b" stroke-linecap="round" stroke-linejoin="round" stroke-opacity=".3" stroke-width="1" d="M65.3 1q7.2.7 21 12.3Q64 1.6 58.6 3l-.6.2Q35.8 11.3.5 41.8 26 6.1 48.1.5m17.2.6L58.6 3"/></g><g id="V"><path fill="#2d3510" d="M.5 4.2Q41.3-7.4 65.1 17.7 26.1 3.2.5 4.2"/><path fill="none" stroke="#141608" stroke-linecap="round" stroke-linejoin="round" stroke-opacity=".3" stroke-width="1" d="M.5 4.2q25.6-1 64.6 13.5Q41.3-7.4.5 4.2"/></g><g id="U"><path fill="url(#b)" d="M-8 13.4Q-1.3-.7-.5 1.3q5.2.5 4 14.9T-12 59.8q-3-32.4 4-46.4" transform="translate(13.35 -.55)"/><path fill="none" stroke="#1e200d" stroke-linecap="round" stroke-linejoin="round" stroke-opacity=".3" stroke-width="1" d="M5.3 12.8q-6.8 14-3.9 46.5Q15.8 30 17 15.7T12.9.6q-.7-2-7.6 12.1"/></g><g id="T"><path fill="#505e1b" d="M39 1Q32.6.7 27.8 9.4L26.3 12l-4 6.7Q13.5 33.5.9 50.7q-1.5-18 5.2-30 1.8-3.2 4.2-6l3-3.2Q28-1.8 39 1"/><path fill="none" stroke="#1e200d" stroke-linecap="round" stroke-linejoin="round" stroke-opacity=".3" stroke-width="1" d="M39 1Q28-1.8 13.3 11.5l-3.1 3.2q-2.4 2.8-4.2 6-6.7 12-5.2 30 12.6-17.2 21.6-31.9l3.9-6.7 1.5-2.7Q32.6.7 39 .8"/></g><g id="S"><path fill="#505e1b" d="M.5 5.7q45.3-17.1 65.6 22.5Q29.8.4.5 5.7"/><path fill="none" stroke="#1e200d" stroke-linecap="round" stroke-linejoin="round" stroke-opacity=".3" stroke-width="1" d="M.5 5.7Q29.8.4 66.1 28.2 45.9-11.4.5 5.7"/></g><g id="R"><path fill="url(#d)" d="M2-6q8-20 60.8 15.7Q9.8-8.4 2.1-6" transform="translate(1.8 13.65)"/><path fill="none" stroke="#0d0e06" stroke-linecap="round" stroke-linejoin="round" stroke-opacity=".3" stroke-width="1" d="M3.9 7.6q-.6 1.3-.9 2.9L.5 13.6q.3-2.2 2.5-3.1-1.3-2.2.8-2.9 8-20 60.8 15.8Q11.6 5.2 3.9 7.6"/></g><g id="Q"><path fill="#374112" d="M.5 5.7q45.3-17.1 65.6 22.5Q29.8.4.5 5.7"/><path fill="none" stroke="#141608" stroke-linecap="round" stroke-linejoin="round" stroke-opacity=".3" stroke-width="1" d="M.5 5.7Q29.8.4 66.1 28.2 45.9-11.4.5 5.7"/></g><g id="P"><path fill="url(#e)" d="M-13.2 39.3Q-14.7 7-9.6 5.3q6.5-2 14.5-3.6.6-.7-.5 13.7l-.9 5.5-6.6-.5-1.6-.1q-.2 0-.9 2.2-.8 2.6-.8 4.9 0 .9.9 2.6.8 1.6.8 2.9 0 1-1.2 2.6t-2.4 1.7q-1.5 0-3.1-.8-.8 0-1.8 2.9" transform="translate(14 -1.15)"/><path fill="#605923" d="M.8 38.2q1-3 1.8-3 1.6.9 3.1.9 1.1 0 2.4-1.7t1.2-2.6q0-1.3-.9-3t-.8-2.6q0-2.2.8-4.8.7-2.3 1-2.3l1.4.1 6.8.6Q14.6 33.9 2 58.6 1 47.2.8 38.1"/><path fill="none" stroke="#111208" stroke-linecap="round" stroke-linejoin="round" stroke-opacity=".3" stroke-width="1" d="m17.6 19.8.8-5.6Q19.6-.2 18.9.6 10.9 2 4.4 4.2q-5 1.6-3.6 34 .4 9 1.3 20.4Q14.6 34 17.6 19.9"/></g><g id="O"><path fill="#6f6131" d="M1.3 7.9q1.5-11 1.7-6 1.1-4.1.7 5.8t.1 18.8l.5 4.9v.6l.8 1.5-.5 1.4-1 .7z"/><path fill="#897b5b" d="m1.3 7.9 2.4 27.7-.8.5-1.7-.4H1l-.7-1.9.5-1.6-.2-2.8q-.7-12.1 0-18z"/><path fill="none" stroke="#000" stroke-linecap="round" stroke-linejoin="round" stroke-opacity=".3" stroke-width="__RESOLUTION__" d="m3.7 35.6.9-.7h0l.5-1.4-.8-1.5v-.6l-.4-4.9q-.7-9-.2-18.8T3 1.9q-.2-5-1.7 6l-.5 3.4q-.8 6-.1 18.1l.2 2.8-.5 1.6.7 1.9h0l1.8.4z" vector-effect="non-scaling-stroke"/></g><g id="M"><path fill="#897031" d="M8.6 3 7.2 4.4 3.5 5l-.8-.2-2-1.7V3Q.8 1.6 2 1q1.9-1 4-.5 2.4.3 2.6 2.4M7.3 3q0-.6-.8-1l-1.9-.5-1.9.5q-.8.4-.8 1t.8 1l1.9.4q1.1 0 1.9-.4t.8-1"/><path fill="#927f3c" d="m7.2 4.5 1.4-1.6q-.8 4.8-.7 8.2l-1.6.2q.1-1.7.9-5.7zm-3.7 6v1.6l-.5-.8.1-1.1zM8 12.4q.3 7.6.6 9 0 1-.4 1.6l-1 .7-.3-2.4V21q-.5-3.6-.6-9.2zM3.3 24.1l-3-1.6.5-4.2.8 1.1 1.7.9zM1 15.8l.3-2.6 2 1.4h.1v4.2l-.5-.4zm.3-9.6Q1.2 5.6 1 6V4.5l1.1 1h.3l1.2-.1.1 1.2v2.6L3 8.8z"/><path fill="#755e2b" d="m.6 3.1 2.1 1.7.8.4V5l3.7-.5v1.1l-1-.3h-.9l-1 .1-.7 1.2-.1-1.2-1.2.1H2l-1.1-1zM7.4 3q0 .6-.8 1t-1.9.4l-2-.4q-.8-.4-.8-1t.8-1l1.9-.5 1.9.5q.8.4.8 1"/><path fill="#e0cc96" d="m2.7 4.8.8.2v.2z"/><path fill="#8c7839" d="M7.2 5.6q-.8 4-.9 5.7L6 11v-.7l-.1.6-1.3-1 .7-4.6h.9zM4.5 10l-1-.7.1-2.5.7-1.3zm-1 1 2.3.7-.2 3.2-1-.7L3.5 12zm2 4-.2 5.3-2-1.4.1-4zm.7 5.9L6 11.6l.2.1q.1 5.6.5 9.3zm1 2.9-1 .3v-2.7h.6zm-2 .6h-2l.1-4 1.3.7.7.1z"/><path fill="#a1944c" d="m6.4 11.3 1.4-.2.2 1.2-1.7-.6zm-1 8.8 1 .6.5.3v.1l.1.1h-.7l-.9-.2z"/><path fill="#e2d073" d="m5.9 11-.2.5-2.2-.7V9.2l1 .7V11l.1-1zm-.4 3.7-2.1-.2V12l1.3 2zm.5-3.1V11l.3.3v.4zM5.3 21l-.7-.1-1.3-.6v-1.6l2 1.4z"/><path fill="#7b6633" d="m5.8 11.5.1-.6v-.6l.1.7v.6l.3 9.1-1-.6.3-5.3v-.1zM4.6 9.9 4.5 11zl-.2-4.4h1zm1.7 14-1.1.3.1-3.2 1 .1z"/><path fill="#e5d89e" d="m3.6 9.2-.1 1.3-.4-.3-.1 1.1.5.8-.1 2.5-2.1-1.4.2-2.9-.2-4.1L3 8.8zM.8 18.3l.2-2.5 1.9 2.6.5.4-.1 1.4-1.6-.8z"/><path fill="none" stroke="#000" stroke-linecap="round" stroke-linejoin="round" stroke-opacity=".3" stroke-width="__RESOLUTION__" d="M8.6 3Q8.4.7 6 .4 3.9 0 2 1 .8 1.6.7 3v0l.2 1.4L1 6q.2-.4.3.2l.2 4.1-.2 2.9-.3 2.6-.2 2.5-.5 4.2M8 11.1q-.1-3.4.7-8.1m-.8 8v1.2q.4 7.6.7 9" vector-effect="non-scaling-stroke"/><path fill="none" stroke="#000" stroke-linecap="round" stroke-linejoin="round" stroke-opacity=".3" stroke-width="__RESOLUTION__" d="M7.3 2.9q0-.6-.8-1l-1.9-.5-1.9.5q-.8.4-.8 1t.8 1l1.9.4q1.1 0 1.9-.4t.8-1m-5 2.6H2" vector-effect="non-scaling-stroke"/></g><g id="L"><path fill="#b9a352" d="M.5 8.1q.4-11.5.9-6 .5-4.1.8 6.5t1.2 20.6l.6 5.4v.7l.7 1.9-.3 1.3-.6.5zM3.8 39l.6-.5.8 7q.9 6.4 3 17.3v.8l-.8.4q-.8 0-1-.7z"/><path fill="#7d6b33" d="M.5 8.1 3.8 39l-.5.4-1.2-1-.7-2.3.3-1.6-.3-3.1Q.2 18 .4 11.8zm5.9 55.2q-1.7 1-2.5-4.2V58L2 38.4l1.2 1 .5-.4z"/><path fill="none" stroke="#000" stroke-linecap="round" stroke-linejoin="round" stroke-opacity=".3" stroke-width="__RESOLUTION__" d="M4.4 38.6v-.1l.3-1.3-.6-1.9-.1-.7-.6-5.4q-1-10-1.2-20.6Q1.9-2 1.4 2.1q-.5-5.5-.9 6l-.1 3.7q-.2 6.2 1 19.6l.3 3.1-.3 1.6.7 2.3h0l1.2 1 .5-.4zl.8 7q.9 6.4 3 17.3l.1-4.5.2 5.7-.2-1.2-.1.8-.8.4q-.8 0-1-.7-1.7 1-2.5-4.2V58l-.5 2 .3 2.5 1.4 1.8m-3-25.9L3.9 58" vector-effect="non-scaling-stroke"/></g><g id="K"><path fill="#5e4b22" d="m4.6 1.4 1.9.5q.8.4.8 1t-.8 1-1.9.4L2.7 4q-.8-.4-.8-1t.8-1zm2.6 3.1v1.1l-1-.3h-.9l-1 .1-.7 1.2-.1-1.2-1.2.1H2l-1.1-1-.3-1.4 2.1 1.7.8.4V5z"/><path fill="#6e5a27" d="M4.6 1.4 2.7 2q-.8.4-.8 1t.8 1l1.9.4q1.1 0 1.9-.4t.8-1-.8-1zm4 1.5L7.2 4.5 3.5 5l-.8-.2-2-1.7V3Q.8 1.6 2 1q1.9-1 4-.5 2.4.3 2.6 2.4"/><path fill="#756630" d="M7.2 5.6V4.5l1.4-1.6q-1.5 9.3 0 18.4 0 1-.4 1.6l-1 .7q-1.7-9.1 0-18M.8 4.5l1.2 1h.3l1.2-.1.1 1.2-.4 17.6-2.9-1.7q1.5-6.7 1-13.4L1 6z"/><path fill="#71612d" d="M7.2 5.6q-1.7 8.9 0 18l-.9.3-.3-12-.8 12.4h-2l.4-17.5.7-1.3.2 7.1.8-7.1.9-.2z"/><path fill="#b5a579" d="M3.5 5v.2l-.8-.4z"/><path fill="#635229" d="M4.3 5.4h1l-.8 7.1zm2 18.5-1.1.2.8-12.4z"/><path fill="none" stroke="#000" stroke-linecap="round" stroke-linejoin="round" stroke-opacity=".3" stroke-width="__RESOLUTION__" d="M4.6 1.4 2.7 2q-.8.4-.8 1t.8 1l1.9.4q1.1 0 1.9-.4t.8-1-.8-1zM2 5.4l.3.1" vector-effect="non-scaling-stroke"/><path fill="none" stroke="#000" stroke-linecap="round" stroke-linejoin="round" stroke-opacity=".3" stroke-width="__RESOLUTION__" d="M8.6 21.3Q7.1 12.2 8.6 3 8.4.7 6 .4 3.9 0 2 1 .8 1.6.7 3v0l.2 1.4L1 6l.4 3.1q.4 6.7-1 13.4" vector-effect="non-scaling-stroke"/></g><g id="J"><path fill="#816f37" d="m4.6 1.4 1.9.5q.8.4.8 1t-.8 1-1.9.4L2.7 4q-.8-.4-.8-1t.8-1zm2.6 3.1v1.1l-1-.3h-.9l-1 .1-.7 1.2-.1-1.2-1.2.1H2l-1.1-1-.3-1.4 2.1 1.7.8.4V5z"/><path fill="#94803d" d="M4.6 1.4 2.7 2q-.8.4-.8 1t.8 1l1.9.4q1.1 0 1.9-.4t.8-1-.8-1zm4 1.5L7.2 4.5 3.5 5l-.8-.2-2-1.7V3Q.8 1.6 2 1q1.9-1 4-.5 2.4.3 2.6 2.4"/><path fill="#9c8e47" d="M7.2 5.6V4.5l1.4-1.6q-1.5 9.3 0 18.4 0 1-.4 1.6l-1 .7q-1.7-9.1 0-18M.8 4.5l1.2 1h.3l1.2-.1.1 1.2-.4 17.6-2.9-1.7q1.5-6.7 1-13.4L1 6z"/><path fill="#968745" d="M7.2 5.6q-1.7 8.9 0 18l-.9.3-.3-12-.8 12.4h-2l.4-17.5.7-1.3.2 7.1.8-7.1.9-.2z"/><path fill="#e5d59b" d="M3.5 5v.2l-.8-.4z"/><path fill="#87763e" d="M4.3 5.4h1l-.8 7.1zm2 18.5-1.1.2.8-12.4z"/><path fill="none" stroke="#141810" stroke-linecap="round" stroke-linejoin="round" stroke-opacity=".3" stroke-width="__RESOLUTION__" d="M4.6 1.4 2.7 2q-.8.4-.8 1t.8 1l1.9.4q1.1 0 1.9-.4t.8-1-.8-1zM2 5.4l.3.1" vector-effect="non-scaling-stroke"/><path fill="none" stroke="#141810" stroke-linecap="round" stroke-linejoin="round" stroke-opacity=".3" stroke-width="__RESOLUTION__" d="M8.6 21.3Q7.1 12.2 8.6 3 8.4.7 6 .4 3.9 0 2 1 .8 1.6.7 3v0l.2 1.4L1 6l.4 3.1q.4 6.7-1 13.4" vector-effect="non-scaling-stroke"/></g><g id="I"><path fill="#755e2b" d="m4.6 1.4 1.9.5q.8.4.8 1t-.8 1-1.9.4L2.7 4q-.8-.4-.8-1t.8-1zm2.6 3.1v1.1l-1-.3h-.9l-1 .1-.7 1.2-.1-1.2-1.2.1H2l-1.1-1-.3-1.4 2.1 1.7.8.4V5z"/><path fill="#897031" d="M4.6 1.4 2.7 2q-.8.4-.8 1t.8 1l1.9.4q1.1 0 1.9-.4t.8-1-.8-1zm4 1.5L7.2 4.5 3.5 5l-.8-.2-2-1.7V3Q.8 1.6 2 1q1.9-1 4-.5 2.4.3 2.6 2.4"/><path fill="#927f3c" d="M7.2 5.6V4.5l1.4-1.6q-1.5 9.3 0 18.4 0 1-.4 1.6l-1 .7q-1.7-9.1 0-18M.8 4.5l1.2 1h.3l1.2-.1.1 1.2-.4 17.6-2.9-1.7q1.5-6.7 1-13.4L1 6z"/><path fill="#8c7839" d="M7.2 5.6q-1.7 8.9 0 18l-.9.3-.3-12-.8 12.4h-2l.4-17.5.7-1.3.2 7.1.8-7.1.9-.2z"/><path fill="#e0cc96" d="M3.5 5v.2l-.8-.4z"/><path fill="#7b6633" d="M4.3 5.4h1l-.8 7.1zm2 18.5-1.1.2.8-12.4z"/><path fill="none" stroke="#000" stroke-linecap="round" stroke-linejoin="round" stroke-opacity=".3" stroke-width="__RESOLUTION__" d="M4.6 1.4 2.7 2q-.8.4-.8 1t.8 1l1.9.4q1.1 0 1.9-.4t.8-1-.8-1zM2 5.4l.3.1" vector-effect="non-scaling-stroke"/><path fill="none" stroke="#000" stroke-linecap="round" stroke-linejoin="round" stroke-opacity=".3" stroke-width="__RESOLUTION__" d="M8.6 21.3Q7.1 12.2 8.6 3 8.4.7 6 .4 3.9 0 2 1 .8 1.6.7 3v0l.2 1.4L1 6l.4 3.1q.4 6.7-1 13.4" vector-effect="non-scaling-stroke"/></g><g id="H"><path fill="#695426" d="m4.6 1.4 1.9.5q.8.4.8 1t-.8 1-1.9.4L2.7 4q-.8-.4-.8-1t.8-1zm2.6 3.1v1.1l-1-.3h-.9l-1 .1-.7 1.2-.1-1.2-1.2.1H2l-1.1-1-.3-1.4 2.1 1.7.8.4V5z"/><path fill="#7b642c" d="M4.6 1.4 2.7 2q-.8.4-.8 1t.8 1l1.9.4q1.1 0 1.9-.4t.8-1-.8-1zm4 1.5L7.2 4.5 3.5 5l-.8-.2-2-1.7V3Q.8 1.6 2 1q1.9-1 4-.5 2.4.3 2.6 2.4"/><path fill="#837235" d="M7.2 5.6V4.5l1.4-1.6q-1.5 9.3 0 18.4 0 1-.4 1.6l-1 .7q-1.7-9.1 0-18M.8 4.5l1.2 1h.3l1.2-.1.1 1.2-.4 17.6-2.9-1.7q1.5-6.7 1-13.4L1 6z"/><path fill="#7d6b33" d="M7.2 5.6q-1.7 8.9 0 18l-.9.3-.3-12-.8 12.4h-2l.4-17.5.7-1.3.2 7.1.8-7.1.9-.2z"/><path fill="#c9b786" d="M3.5 5v.2l-.8-.4z"/><path fill="#6e5b2d" d="M4.3 5.4h1l-.8 7.1zm2 18.5-1.1.2.8-12.4z"/><path fill="none" stroke="#000" stroke-linecap="round" stroke-linejoin="round" stroke-opacity=".3" stroke-width="__RESOLUTION__" d="M4.6 1.4 2.7 2q-.8.4-.8 1t.8 1l1.9.4q1.1 0 1.9-.4t.8-1-.8-1zM2 5.4l.3.1" vector-effect="non-scaling-stroke"/><path fill="none" stroke="#000" stroke-linecap="round" stroke-linejoin="round" stroke-opacity=".3" stroke-width="__RESOLUTION__" d="M8.6 21.3Q7.1 12.2 8.6 3 8.4.7 6 .4 3.9 0 2 1 .8 1.6.7 3v0l.2 1.4L1 6l.4 3.1q.4 6.7-1 13.4" vector-effect="non-scaling-stroke"/></g><g id="G"><path fill="#6f6131" d="m3.5 13.7.9-.7.6 6.2q.8 5.7 3.2 15.1l-.2.8-1.2.6q-1.1.3-1.4-.2z"/><path fill="#897b5b" d="M5.4 35.5Q2.9 37 2.1 32.4v-1L1 13.9.4.3l3.1 13.3z"/><path fill="none" stroke="#000" stroke-linecap="round" stroke-linejoin="round" stroke-opacity=".3" stroke-width="__RESOLUTION__" d="m4.4 13 .6 6.2q.8 5.7 3.2 15.1l.4-4.2-.2 5.3-.2-1.1-.2.8-1.2.6q-1.1.3-1.4-.2-2.5 1.6-3.3-3.1v-1l-1 2.2.4 2.1 1.9 1.1m-1.3-5.3L1 13.8.4.3l3.1 13.3" vector-effect="non-scaling-stroke"/></g><g id="C"><path fill="#5a631a" d="M.5 6.6Q35.1-7.1 61.3 9.8 19.4 2 .5 6.5"/><path fill="none" stroke="#111208" stroke-linecap="round" stroke-linejoin="round" stroke-opacity=".3" stroke-width="1" d="M.5 6.6Q19.4 2 61.3 9.8 35-7 .5 6.5"/></g><g id="B"><path fill="url(#f)" d="M2-6q8-20 60.8 15.7Q9.8-8.4 2.1-6" transform="translate(1.8 13.65)"/><path fill="none" stroke="#0b0b04" stroke-linecap="round" stroke-linejoin="round" stroke-opacity=".3" stroke-width="1" d="M3.9 7.6q-.6 1.3-.9 2.9L.5 13.6q.3-2.2 2.5-3.1-1.3-2.2.8-2.9 8-20 60.8 15.8Q11.6 5.2 3.9 7.6"/></g><g id="A"><path fill="#3e4511" d="M.5 6.6Q35.1-7.1 61.3 9.8 19.4 2 .5 6.5"/><path fill="none" stroke="#0c0d05" stroke-linecap="round" stroke-linejoin="round" stroke-opacity=".3" stroke-width="1" d="M.5 6.6Q19.4 2 61.3 9.8 35-7 .5 6.5"/></g><g id="z"><path fill="#3d4614" d="M.5 5.7q45.3-17.1 65.6 22.5Q29.8.4.5 5.7"/><path fill="none" stroke="#161809" stroke-linecap="round" stroke-linejoin="round" stroke-opacity=".3" stroke-width="1" d="M.5 5.7Q29.8.4 66.1 28.2 45.9-11.4.5 5.7"/></g><g id="v"><path fill="#1f240a" d="M.5 4.2Q41.3-7.4 65.1 17.7 26.1 3.2.5 4.2"/><path fill="none" stroke="#0e0f06" stroke-linecap="round" stroke-linejoin="round" stroke-opacity=".3" stroke-width="1" d="M.5 4.2q25.6-1 64.6 13.5Q41.3-7.4.5 4.2"/></g><g id="u"><path fill="#2a310e" d="M.5 5.7q45.3-17.1 65.6 22.5Q29.8.4.5 5.7"/><path fill="none" stroke="#101106" stroke-linecap="round" stroke-linejoin="round" stroke-opacity=".3" stroke-width="1" d="M.5 5.7Q29.8.4 66.1 28.2 45.9-11.4.5 5.7"/></g><g id="bp"><path fill="#96963e" d="M7.9 2.4 5.1 4.3q-2.3 1.4-3.6.4t-1.2-2Q.3 1.5 1.8.8 3 .2 5 .3q1.8.2 2.8.8 1 .5.7.7z"/><path fill="none" stroke="#141400" stroke-linecap="round" stroke-linejoin="round" stroke-opacity=".2" stroke-width="__RESOLUTION__" d="M7.9 2.4 5.1 4.3q-2.3 1.4-3.6.4t-1.2-2Q.3 1.5 1.8.8 3 .2 5 .3q1.8.2 2.8.8 1 .5.7.7z" vector-effect="non-scaling-stroke"/></g><g id="bo"><path fill="#8e8e38" d="M7.9 2.4 5.1 4.3q-2.3 1.4-3.6.4t-1.2-2Q.3 1.5 1.8.8 3 .2 5 .3q1.8.2 2.8.8 1 .5.7.7z"/><path fill="none" stroke="#171700" stroke-linecap="round" stroke-linejoin="round" stroke-opacity=".2" stroke-width="__RESOLUTION__" d="M7.9 2.4 5.1 4.3q-2.3 1.4-3.6.4t-1.2-2Q.3 1.5 1.8.8 3 .2 5 .3q1.8.2 2.8.8 1 .5.7.7z" vector-effect="non-scaling-stroke"/></g><g id="bn"><path fill="url(#g)" d="M-1.2-22.6h2.5Q.3-11 1.3-.4l-2.5.3q1-11.5 0-22.5" transform="translate(1.6 23.25)"/><path fill="none" stroke="#1d1d00" stroke-linecap="round" stroke-linejoin="round" stroke-opacity=".3" stroke-width="__RESOLUTION__" d="m.4.6 2.5.1q-1 11.5 0 22.2" vector-effect="non-scaling-stroke"/><path fill="none" stroke="#1d1d00" stroke-linecap="round" stroke-linejoin="round" stroke-opacity=".1" stroke-width="__RESOLUTION__" d="M.4 23.1Q1.4 11.6.4.6" vector-effect="non-scaling-stroke"/></g><g id="bl"><path fill="#83733a" d="m3.5 13.7.9-.7.6 6.2q.8 5.7 3.2 15.1l-.2.8-1.2.6q-1.1.3-1.4-.2z"/><path fill="#a2936c" d="M5.4 35.5Q2.9 37 2.1 32.4v-1L1 13.9.4.3l3.1 13.3z"/><path fill="none" stroke="#000" stroke-linecap="round" stroke-linejoin="round" stroke-opacity=".3" stroke-width="__RESOLUTION__" d="m4.4 13 .6 6.2q.8 5.7 3.2 15.1l.4-4.2-.2 5.3-.2-1.1-.2.8-1.2.6q-1.1.3-1.4-.2-2.5 1.6-3.3-3.1v-1l-1 2.2.4 2.1 1.9 1.1m-1.3-5.3L1 13.8.4.3l3.1 13.3" vector-effect="non-scaling-stroke"/></g><g id="bk"><path fill="#52601c" d="M39 1Q32.6.7 27.8 9.4L26.3 12l-4 6.7Q13.5 33.5.9 50.7q-1.5-18 5.2-30 1.8-3.2 4.2-6l3-3.2Q28-1.8 39 1"/><path fill="none" stroke="#1f210d" stroke-linecap="round" stroke-linejoin="round" stroke-opacity=".3" stroke-width="1" d="M39 1Q28-1.8 13.3 11.5l-3.1 3.2q-2.4 2.8-4.2 6-6.7 12-5.2 30 12.6-17.2 21.6-31.9l3.9-6.7 1.5-2.7Q32.6.7 39 .8"/></g><g id="bj"><path fill="#52601c" d="M.5 5.7q45.3-17.1 65.6 22.5Q29.8.4.5 5.7"/><path fill="none" stroke="#1f210d" stroke-linecap="round" stroke-linejoin="round" stroke-opacity=".3" stroke-width="1" d="M.5 5.7Q29.8.4 66.1 28.2 45.9-11.4.5 5.7"/></g><g id="bi"><path fill="url(#h)" d="M2-6q8-20 60.8 15.7Q9.8-8.4 2.1-6" transform="translate(1.8 13.65)"/><path fill="none" stroke="#0e0f06" stroke-linecap="round" stroke-linejoin="round" stroke-opacity=".3" stroke-width="1" d="M3.9 7.6q-.6 1.3-.9 2.9L.5 13.6q.3-2.2 2.5-3.1-1.3-2.2.8-2.9 8-20 60.8 15.8Q11.6 5.2 3.9 7.6"/></g><g id="bh"><path fill="#3a4313" d="M.5 5.7q45.3-17.1 65.6 22.5Q29.8.4.5 5.7"/><path fill="none" stroke="#151709" stroke-linecap="round" stroke-linejoin="round" stroke-opacity=".3" stroke-width="1" d="M.5 5.7Q29.8.4 66.1 28.2 45.9-11.4.5 5.7"/></g><g id="bg"><path fill="url(#i)" d="M-13.2 39.3Q-14.7 7-9.6 5.3q6.5-2 14.5-3.6.6-.7-.5 13.7l-.9 5.5-6.6-.5-1.6-.1q-.2 0-.9 2.2-.8 2.6-.8 4.9 0 .9.9 2.6.8 1.6.8 2.9 0 1-1.2 2.6t-2.4 1.7q-1.5 0-3.1-.8-.8 0-1.8 2.9" transform="translate(14 -1.15)"/><path fill="#625b25" d="M.8 38.2q1-3 1.8-3 1.6.9 3.1.9 1.1 0 2.4-1.7t1.2-2.6q0-1.3-.9-3t-.8-2.6q0-2.2.8-4.8.7-2.3 1-2.3l1.4.1 6.8.6Q14.6 33.9 2 58.6 1 47.2.8 38.1"/><path fill="none" stroke="#121308" stroke-linecap="round" stroke-linejoin="round" stroke-opacity=".3" stroke-width="1" d="m17.6 19.8.8-5.6Q19.6-.2 18.9.6 10.9 2 4.4 4.2q-5 1.6-3.6 34 .4 9 1.3 20.4Q14.6 34 17.6 19.9"/></g><g id="bf"><path fill="url(#j)" d="M-8 13.4Q-1.3-.7-.5 1.3q5.2.5 4 14.9T-12 59.8q-3-32.4 4-46.4" transform="translate(13.35 -.55)"/><path fill="none" stroke="#1f210d" stroke-linecap="round" stroke-linejoin="round" stroke-opacity=".3" stroke-width="1" d="M5.3 12.8q-6.8 14-3.9 46.5Q15.8 30 17 15.7T12.9.6q-.7-2-7.6 12.1"/></g><g id="be"><path fill="#3d4816" d="M48.1.5q6.8 2 17.2.6L58.6 3l-.6.2Q35.8 11.3.5 41.8 26 6.1 48.1.5"/><path fill="#202f10" d="M65.3 1q7.2.7 21 12.3Q64 1.6 58.6 3z"/><path fill="none" stroke="#1c1e0c" stroke-linecap="round" stroke-linejoin="round" stroke-opacity=".3" stroke-width="1" d="M48.1.5q6.8 2 17.2.6"/><path fill="none" stroke="#1c1e0c" stroke-linecap="round" stroke-linejoin="round" stroke-opacity=".3" stroke-width="1" d="M65.3 1q7.2.7 21 12.3Q64 1.6 58.6 3l-.6.2Q35.8 11.3.5 41.8 26 6.1 48.1.5m17.2.6L58.6 3"/></g><g id="bd"><path fill="#2f3610" d="M.5 4.2Q41.3-7.4 65.1 17.7 26.1 3.2.5 4.2"/><path fill="none" stroke="#151709" stroke-linecap="round" stroke-linejoin="round" stroke-opacity=".3" stroke-width="1" d="M.5 4.2q25.6-1 64.6 13.5Q41.3-7.4.5 4.2"/></g><g id="bc"><path fill="#bea754" d="M.5 8.1q.4-11.5.9-6 .5-4.1.8 6.5t1.2 20.6l.6 5.4v.7l.7 1.9-.3 1.3-.6.5zM3.8 39l.6-.5.8 7q.9 6.4 3 17.3v.8l-.8.4q-.8 0-1-.7z"/><path fill="#816e34" d="M.5 8.1 3.8 39l-.5.4-1.2-1-.7-2.3.3-1.6-.3-3.1Q.2 18 .4 11.8zm5.9 55.2q-1.7 1-2.5-4.2V58L2 38.4l1.2 1 .5-.4z"/><path fill="none" stroke="#000" stroke-linecap="round" stroke-linejoin="round" stroke-opacity=".3" stroke-width="__RESOLUTION__" d="M4.4 38.6v-.1l.3-1.3-.6-1.9-.1-.7-.6-5.4q-1-10-1.2-20.6Q1.9-2 1.4 2.1q-.5-5.5-.9 6l-.1 3.7q-.2 6.2 1 19.6l.3 3.1-.3 1.6.7 2.3h0l1.2 1 .5-.4zl.8 7q.9 6.4 3 17.3l.1-4.5.2 5.7-.2-1.2-.1.8-.8.4q-.8 0-1-.7-1.7 1-2.5-4.2V58l-.5 2 .3 2.5 1.4 1.8m-3-25.9L3.9 58" vector-effect="non-scaling-stroke"/></g><g id="bb"><path fill="#857139" d="m4.6 1.4 1.9.5q.8.4.8 1t-.8 1-1.9.4L2.7 4q-.8-.4-.8-1t.8-1zm2.6 3.1v1.1l-1-.3h-.9l-1 .1-.7 1.2-.1-1.2-1.2.1H2l-1.1-1-.3-1.4 2.1 1.7.8.4V5z"/><path fill="#97823f" d="M4.6 1.4 2.7 2q-.8.4-.8 1t.8 1l1.9.4q1.1 0 1.9-.4t.8-1-.8-1zm4 1.5L7.2 4.5 3.5 5l-.8-.2-2-1.7V3Q.8 1.6 2 1q1.9-1 4-.5 2.4.3 2.6 2.4"/><path fill="#a09149" d="M7.2 5.6V4.5l1.4-1.6q-1.5 9.3 0 18.4 0 1-.4 1.6l-1 .7q-1.7-9.1 0-18M.8 4.5l1.2 1h.3l1.2-.1.1 1.2-.4 17.6-2.9-1.7q1.5-6.7 1-13.4L1 6z"/><path fill="#9a8a46" d="M7.2 5.6q-1.7 8.9 0 18l-.9.3-.3-12-.8 12.4h-2l.4-17.5.7-1.3.2 7.1.8-7.1.9-.2z"/><path fill="#eadb9e" d="M3.5 5v.2l-.8-.4z"/><path fill="#8b7940" d="M4.3 5.4h1l-.8 7.1zm2 18.5-1.1.2.8-12.4z"/><path fill="none" stroke="#151810" stroke-linecap="round" stroke-linejoin="round" stroke-opacity=".3" stroke-width="__RESOLUTION__" d="M4.6 1.4 2.7 2q-.8.4-.8 1t.8 1l1.9.4q1.1 0 1.9-.4t.8-1-.8-1zM2 5.4l.3.1" vector-effect="non-scaling-stroke"/><path fill="none" stroke="#151810" stroke-linecap="round" stroke-linejoin="round" stroke-opacity=".3" stroke-width="__RESOLUTION__" d="M8.6 21.3Q7.1 12.2 8.6 3 8.4.7 6 .4 3.9 0 2 1 .8 1.6.7 3v0l.2 1.4L1 6l.4 3.1q.4 6.7-1 13.4" vector-effect="non-scaling-stroke"/></g><g id="ba"><path fill="url(#k)" d="M-8 13.4Q-1.3-.7-.5 1.3q5.2.5 4 14.9T-12 59.8q-3-32.4 4-46.4" transform="translate(13.35 -.55)"/><path fill="none" stroke="#17180a" stroke-linecap="round" stroke-linejoin="round" stroke-opacity=".3" stroke-width="1" d="M5.3 12.8q-6.8 14-3.9 46.5Q15.8 30 17 15.7T12.9.6q-.7-2-7.6 12.1"/></g><g id="aZ"><path fill="#2d3510" d="M48.1.5q6.8 2 17.2.6L58.6 3l-.6.2Q35.8 11.3.5 41.8 26 6.1 48.1.5"/><path fill="#17230c" d="M65.3 1q7.2.7 21 12.3Q64 1.6 58.6 3z"/><path fill="none" stroke="#151609" stroke-linecap="round" stroke-linejoin="round" stroke-opacity=".3" stroke-width="1" d="M48.1.5q6.8 2 17.2.6"/><path fill="none" stroke="#151609" stroke-linecap="round" stroke-linejoin="round" stroke-opacity=".3" stroke-width="1" d="M65.3 1q7.2.7 21 12.3Q64 1.6 58.6 3l-.6.2Q35.8 11.3.5 41.8 26 6.1 48.1.5m17.2.6L58.6 3"/></g><g id="aY"><path fill="#22280c" d="M.5 4.2Q41.3-7.4 65.1 17.7 26.1 3.2.5 4.2"/><path fill="none" stroke="#101107" stroke-linecap="round" stroke-linejoin="round" stroke-opacity=".3" stroke-width="1" d="M.5 4.2q25.6-1 64.6 13.5Q41.3-7.4.5 4.2"/></g><g id="aX"><path fill="#78602c" d="m4.6 1.4 1.9.5q.8.4.8 1t-.8 1-1.9.4L2.7 4q-.8-.4-.8-1t.8-1zm2.6 3.1v1.1l-1-.3h-.9l-1 .1-.7 1.2-.1-1.2-1.2.1H2l-1.1-1-.3-1.4 2.1 1.7.8.4V5z"/><path fill="#8d7332" d="M4.6 1.4 2.7 2q-.8.4-.8 1t.8 1l1.9.4q1.1 0 1.9-.4t.8-1-.8-1zm4 1.5L7.2 4.5 3.5 5l-.8-.2-2-1.7V3Q.8 1.6 2 1q1.9-1 4-.5 2.4.3 2.6 2.4"/><path fill="#96823d" d="M7.2 5.6V4.5l1.4-1.6q-1.5 9.3 0 18.4 0 1-.4 1.6l-1 .7q-1.7-9.1 0-18M.8 4.5l1.2 1h.3l1.2-.1.1 1.2-.4 17.6-2.9-1.7q1.5-6.7 1-13.4L1 6z"/><path fill="#8f7b3b" d="M7.2 5.6q-1.7 8.9 0 18l-.9.3-.3-12-.8 12.4h-2l.4-17.5.7-1.3.2 7.1.8-7.1.9-.2z"/><path fill="#e6d299" d="M3.5 5v.2l-.8-.4z"/><path fill="#7f6934" d="M4.3 5.4h1l-.8 7.1zm2 18.5-1.1.2.8-12.4z"/><path fill="none" stroke="#000" stroke-linecap="round" stroke-linejoin="round" stroke-opacity=".3" stroke-width="__RESOLUTION__" d="M4.6 1.4 2.7 2q-.8.4-.8 1t.8 1l1.9.4q1.1 0 1.9-.4t.8-1-.8-1zM2 5.4l.3.1" vector-effect="non-scaling-stroke"/><path fill="none" stroke="#000" stroke-linecap="round" stroke-linejoin="round" stroke-opacity=".3" stroke-width="__RESOLUTION__" d="M8.6 21.3Q7.1 12.2 8.6 3 8.4.7 6 .4 3.9 0 2 1 .8 1.6.7 3v0l.2 1.4L1 6l.4 3.1q.4 6.7-1 13.4" vector-effect="non-scaling-stroke"/></g><g id="aW"><path fill="#6c5627" d="m4.6 1.4 1.9.5q.8.4.8 1t-.8 1-1.9.4L2.7 4q-.8-.4-.8-1t.8-1zm2.6 3.1v1.1l-1-.3h-.9l-1 .1-.7 1.2-.1-1.2-1.2.1H2l-1.1-1-.3-1.4 2.1 1.7.8.4V5z"/><path fill="#7e672d" d="M4.6 1.4 2.7 2q-.8.4-.8 1t.8 1l1.9.4q1.1 0 1.9-.4t.8-1-.8-1zm4 1.5L7.2 4.5 3.5 5l-.8-.2-2-1.7V3Q.8 1.6 2 1q1.9-1 4-.5 2.4.3 2.6 2.4"/><path fill="#867537" d="M7.2 5.6V4.5l1.4-1.6q-1.5 9.3 0 18.4 0 1-.4 1.6l-1 .7q-1.7-9.1 0-18M.8 4.5l1.2 1h.3l1.2-.1.1 1.2-.4 17.6-2.9-1.7q1.5-6.7 1-13.4L1 6z"/><path fill="#816e35" d="M7.2 5.6q-1.7 8.9 0 18l-.9.3-.3-12-.8 12.4h-2l.4-17.5.7-1.3.2 7.1.8-7.1.9-.2z"/><path fill="#cfbc8a" d="M3.5 5v.2l-.8-.4z"/><path fill="#725e2f" d="M4.3 5.4h1l-.8 7.1zm2 18.5-1.1.2.8-12.4z"/><path fill="none" stroke="#000" stroke-linecap="round" stroke-linejoin="round" stroke-opacity=".3" stroke-width="__RESOLUTION__" d="M4.6 1.4 2.7 2q-.8.4-.8 1t.8 1l1.9.4q1.1 0 1.9-.4t.8-1-.8-1zM2 5.4l.3.1" vector-effect="non-scaling-stroke"/><path fill="none" stroke="#000" stroke-linecap="round" stroke-linejoin="round" stroke-opacity=".3" stroke-width="__RESOLUTION__" d="M8.6 21.3Q7.1 12.2 8.6 3 8.4.7 6 .4 3.9 0 2 1 .8 1.6.7 3v0l.2 1.4L1 6l.4 3.1q.4 6.7-1 13.4" vector-effect="non-scaling-stroke"/></g><g id="aS"><path fill="#414c17" d="M48.1.5q6.8 2 17.2.6L58.6 3l-.6.2Q35.8 11.3.5 41.8 26 6.1 48.1.5"/><path fill="#223211" d="M65.3 1q7.2.7 21 12.3Q64 1.6 58.6 3z"/><path fill="none" stroke="#1e200d" stroke-linecap="round" stroke-linejoin="round" stroke-opacity=".3" stroke-width="1" d="M48.1.5q6.8 2 17.2.6"/><path fill="none" stroke="#1e200d" stroke-linecap="round" stroke-linejoin="round" stroke-opacity=".3" stroke-width="1" d="M65.3 1q7.2.7 21 12.3Q64 1.6 58.6 3l-.6.2Q35.8 11.3.5 41.8 26 6.1 48.1.5m17.2.6L58.6 3"/></g><g id="aR"><path fill="url(#o)" d="M-13.2 39.3Q-14.7 7-9.6 5.3q6.5-2 14.5-3.6.6-.7-.5 13.7l-.9 5.5-6.6-.5-1.6-.1q-.2 0-.9 2.2-.8 2.6-.8 4.9 0 .9.9 2.6.8 1.6.8 2.9 0 1-1.2 2.6t-2.4 1.7q-1.5 0-3.1-.8-.8 0-1.8 2.9" transform="translate(14 -1.15)"/><path fill="#605a24" d="M.8 38.2q1-3 1.8-3 1.6.9 3.1.9 1.1 0 2.4-1.7t1.2-2.6q0-1.3-.9-3t-.8-2.6q0-2.2.8-4.8.7-2.3 1-2.3l1.4.1 6.8.6Q14.6 33.9 2 58.6 1 47.2.8 38.1"/><path fill="none" stroke="#121308" stroke-linecap="round" stroke-linejoin="round" stroke-opacity=".3" stroke-width="1" d="m17.6 19.8.8-5.6Q19.6-.2 18.9.6 10.9 2 4.4 4.2q-5 1.6-3.6 34 .4 9 1.3 20.4Q14.6 34 17.6 19.9"/></g><g id="aQ"><path fill="#3b4514" d="M.5 5.7q45.3-17.1 65.6 22.5Q29.8.4.5 5.7"/><path fill="none" stroke="#161709" stroke-linecap="round" stroke-linejoin="round" stroke-opacity=".3" stroke-width="1" d="M.5 5.7Q29.8.4 66.1 28.2 45.9-11.4.5 5.7"/></g><g id="aP"><path fill="#1e230a" d="M.5 4.2Q41.3-7.4 65.1 17.7 26.1 3.2.5 4.2"/><path fill="none" stroke="#0e0f06" stroke-linecap="round" stroke-linejoin="round" stroke-opacity=".3" stroke-width="1" d="M.5 4.2q25.6-1 64.6 13.5Q41.3-7.4.5 4.2"/></g><g id="aO"><path fill="#464d14" d="M.5 6.6Q35.1-7.1 61.3 9.8 19.4 2 .5 6.5"/><path fill="none" stroke="#0e0f06" stroke-linecap="round" stroke-linejoin="round" stroke-opacity=".3" stroke-width="1" d="M.5 6.6Q19.4 2 61.3 9.8 35-7 .5 6.5"/></g><g id="aN"><path fill="#333b12" d="M48.1.5q6.8 2 17.2.6L58.6 3l-.6.2Q35.8 11.3.5 41.8 26 6.1 48.1.5"/><path fill="#1a270d" d="M65.3 1q7.2.7 21 12.3Q64 1.6 58.6 3z"/><path fill="none" stroke="#17190a" stroke-linecap="round" stroke-linejoin="round" stroke-opacity=".3" stroke-width="1" d="M48.1.5q6.8 2 17.2.6"/><path fill="none" stroke="#17190a" stroke-linecap="round" stroke-linejoin="round" stroke-opacity=".3" stroke-width="1" d="M65.3 1q7.2.7 21 12.3Q64 1.6 58.6 3l-.6.2Q35.8 11.3.5 41.8 26 6.1 48.1.5m17.2.6L58.6 3"/></g><g id="aM"><path fill="url(#p)" d="M-8 13.4Q-1.3-.7-.5 1.3q5.2.5 4 14.9T-12 59.8q-3-32.4 4-46.4" transform="translate(13.35 -.55)"/><path fill="none" stroke="#141509" stroke-linecap="round" stroke-linejoin="round" stroke-opacity=".3" stroke-width="1" d="M5.3 12.8q-6.8 14-3.9 46.5Q15.8 30 17 15.7T12.9.6q-.7-2-7.6 12.1"/></g><g id="aL"><path fill="#242a0d" d="M48.1.5q6.8 2 17.2.6L58.6 3l-.6.2Q35.8 11.3.5 41.8 26 6.1 48.1.5"/><path fill="#131c0a" d="M65.3 1q7.2.7 21 12.3Q64 1.6 58.6 3z"/><path fill="none" stroke="#111207" stroke-linecap="round" stroke-linejoin="round" stroke-opacity=".3" stroke-width="1" d="M48.1.5q6.8 2 17.2.6"/><path fill="none" stroke="#111207" stroke-linecap="round" stroke-linejoin="round" stroke-opacity=".3" stroke-width="1" d="M65.3 1q7.2.7 21 12.3Q64 1.6 58.6 3l-.6.2Q35.8 11.3.5 41.8 26 6.1 48.1.5m17.2.6L58.6 3"/></g><g id="aK"><path fill="#807139" d="M1.3 7.9q1.5-11 1.7-6 1.1-4.1.7 5.8t.1 18.8l.5 4.9v.6l.8 1.5-.5 1.4-1 .7z"/><path fill="#9e8f6a" d="m1.3 7.9 2.4 27.7-.8.5-1.7-.4H1l-.7-1.9.5-1.6-.2-2.8q-.7-12.1 0-18z"/><path fill="none" stroke="#000" stroke-linecap="round" stroke-linejoin="round" stroke-opacity=".3" stroke-width="__RESOLUTION__" d="m3.7 35.6.9-.7h0l.5-1.4-.8-1.5v-.6l-.4-4.9q-.7-9-.2-18.8T3 1.9q-.2-5-1.7 6l-.5 3.4q-.8 6-.1 18.1l.2 2.8-.5 1.6.7 1.9h0l1.8.4z" vector-effect="non-scaling-stroke"/></g><g id="aJ"><path fill="#807139" d="m3.5 13.7.9-.7.6 6.2q.8 5.7 3.2 15.1l-.2.8-1.2.6q-1.1.3-1.4-.2z"/><path fill="#9e8f6a" d="M5.4 35.5Q2.9 37 2.1 32.4v-1L1 13.9.4.3l3.1 13.3z"/><path fill="none" stroke="#000" stroke-linecap="round" stroke-linejoin="round" stroke-opacity=".3" stroke-width="__RESOLUTION__" d="m4.4 13 .6 6.2q.8 5.7 3.2 15.1l.4-4.2-.2 5.3-.2-1.1-.2.8-1.2.6q-1.1.3-1.4-.2-2.5 1.6-3.3-3.1v-1l-1 2.2.4 2.1 1.9 1.1m-1.3-5.3L1 13.8.4.3l3.1 13.3" vector-effect="non-scaling-stroke"/></g><g id="aI"><path fill="#7d6b33" d="M8.6 3 7.2 4.4 3.5 5l-.8-.2-2-1.7V3Q.8 1.6 2 1q1.9-1 4-.5 2.4.3 2.6 2.4M7.2 5.6q-.6 3-.8 6l-1.7-1 .6-5.2.9-.2zM6.5 4q.8-.4.8-1t-.8-1l-1.9-.5-1.9.5q-.8.4-.8 1t.8 1l1.9.4q1.1 0 1.9-.4m-.8 12v.4L3.5 16v-2.2zM3.5 9.8l.1-3.2.7-1.2.1 5z"/><path fill="#927f3c" d="m7.2 4.5 1.4-1.6q-1.5 9.3 0 18.4 0 1-.4 1.6l-1 .7q-.7-3.3-.8-6.5v-.5q-.2-2.6 0-5 .2-3 .8-6zm-1.5 12V16l.3-4.2.3 12.1-1.1.3zm-2.2-2.7v2.1h-.1l-2-1.6v-3.6zM1.2 7.2.9 4.5l1.1 1h.3l1.2-.1.1 1.2v3.2z"/><path fill="#a89652" d="m.6 3.1 2.1 1.7.8.4.4.2h-.4l-1.2.1H2l-1.1-1z"/><path fill="#e0cc96" d="m2.7 4.8.8.2v.2z"/><path fill="#97853d" d="m3.5 5 3.7-.5v1.1l-1-.3h-.9l-1 .1-.7 1.2-.1-1.2h.4l-.4-.2z"/><path fill="#c7b05a" d="M6.4 11.6q-.2 2.4 0 5v.5q.1 3.2.8 6.5l-.9.3-.3-12-.3 4.1-2.2-2.2V9.9l.9.5v2.1l.3-2zm-3 4.4 2.3.4-.5 7.8h-2z"/><path fill="#5b4b26" d="M6.5 4q-.8.3-1.9.3L2.7 4q-.8-.4-.8-1t.8-1l1.9-.5 1.9.5q.8.4.8 1t-.8 1"/><path fill="#7b6633" d="m5.3 5.4-.6 5.1-.2 2-.1-2.1-.1-5z"/><path fill="#e5cf99" d="m1.2 7.1 2.3 2.7v3.9l-2.1-3zM.3 22.5q.9-4.1 1.1-8.2l2 1.6-.1 8.2z"/><path fill="none" stroke="#000" stroke-linecap="round" stroke-linejoin="round" stroke-opacity=".3" stroke-width="__RESOLUTION__" d="M8.6 3Q8.4.7 6 .4 3.9 0 2 1 .8 1.6.7 3v0l.2 1.4.3 2.6.2 3.7v3.5q-.2 4.1-1 8.2m8.2-1.2q-1.5-9 0-18.2" vector-effect="non-scaling-stroke"/><path fill="none" stroke="#000" stroke-linecap="round" stroke-linejoin="round" stroke-opacity=".3" stroke-width="__RESOLUTION__" d="M6.5 4q.8-.5.8-1.1t-.8-1l-1.9-.5-1.9.5q-.8.4-.8 1t.8 1l1.9.4q1.1 0 1.9-.4M2.3 5.5H2" vector-effect="non-scaling-stroke"/></g><g id="aG"><path fill="#927f3c" d="m7.2 4.5 1.4-1.6q-1.1 7-.6 13.6l.2 2.6v.5h-.9l-.8-.4-.1-1-.2-2.3v-1.1l.7-.1-1.2-.4.2-2.5.3 1q.2-3.6.9-7.2zM5.8 14.6l.3.2V19l.1 1 .1 3.3v.6l-1.1.3.1-1.4V22l.3-.9v2q1-3.4.2-4.2l-.2-.3zm-4.5-6 1.4 1.9.8.8v2.2l-2-.9zm0 6.2 1.7 2 .4.4-.1 4.6-.6-.3h-.2L1 19.8z"/><path fill="#c4ae67" d="M8.6 3 7.2 4.4 3.5 5l-.8-.2-2-1.7V3Q.8 1.6 2 1q1.9-1 4-.5 2.4.3 2.6 2.4M6.5 4q.8-.4.8-1t-.8-1l-1.9-.5-1.9.5q-.8.4-.8 1t.8 1l1.9.4q1.1 0 1.9-.4"/><path fill="#97853d" d="M7.2 4.5v1.1l-1-.3h-.9l-1 .1-.7 1.2-.1-1.2h.4l-.4-.2V5zm-.7-.6q-.8.4-1.9.4L2.7 4q-.8-.4-.8-1t.8-1l1.9-.5 1.9.5q.8.4.8 1t-.8 1"/><path fill="#c7b05a" d="M7.2 5.6q-.7 3.7-.9 7.3L6 11.8l-.2 2.4-1.3-2 .8-6.8.9-.2zm-.9 9.2v1.1l.2 2.3.1 1v.1l-.4-.3-.2-4.2zm-1 8-.1 1.4h-2l.1-2.4zm1 1.1v-.6l.2.3v.1l.3.1h-.2zm-.5-9.2-.2 3.9-2.2-1.4v-3.6zm-2.3-3.3.1-4.7.7-1.2.2 6.8z"/><path fill="#70602d" d="m5.8 14.3 1.2.4-.7.1H6l-.2-.2-2.3-1v-2.3l1 .9v.3-.3zm.4 4.8.4.3-.1 4.3-.3-3.6zm-.7-.4.3.3q.8.9-.2 4.2v-2l-.2 1-.2.2-1.8-.6h-.1l.1-4.4z"/><path fill="#837235" d="m6.6 19.2.8.3 1 .1v.9l.2.8q0 1-.4 1.6l-1 .7-.3.1-.1.1h-.2l-.1-.2z"/><path fill="#a89652" d="m.6 3.1 2.1 1.7.8.4.4.2h-.4l-1.2.1H2l-1.1-1z"/><path fill="#e0cc96" d="m2.7 4.8.8.2v.2zm1.6.6h1l-.8 6.8v.3-.3z"/><path fill="#928142" d="m5.4 22-.1.8-2-1 2 .5zm1 1.3L6.2 20l.3 3.6z"/><path fill="#e5cf99" d="m3.5 13.6-.1 3.7-.4-.5-1.6-2v-2.2zM2 5.4h.3l1.2-.1.1 1.2-.1 4.7-.8-.8-1.4-2v-.7L.9 4.5zM.9 19.8l1.7 1.6.1.1.6.3v2.3l-3-1.6.5-2z"/><path fill="none" stroke="#000" stroke-linecap="round" stroke-linejoin="round" stroke-opacity=".3" stroke-width="__RESOLUTION__" d="m8.4 19.6-.1-.5-.2-2.6Q7.5 9.8 8.6 3 8.4.7 6 .4 3.9 0 2 1 .8 1.6.7 3v0l.2 1.4.4 3.3v.7l.2 4.1-.1.8v1.4l-.5 5-.2.6-.4 2.1m8-2.9.1.8v.1l.2.8" vector-effect="non-scaling-stroke"/><path fill="none" stroke="#000" stroke-linecap="round" stroke-linejoin="round" stroke-opacity=".3" stroke-width="__RESOLUTION__" d="M6.5 4q.8-.5.8-1.1t-.8-1l-1.9-.5-1.9.5q-.8.4-.8 1t.8 1l1.9.4q1.1 0 1.9-.4M2.3 5.5H2" vector-effect="non-scaling-stroke"/></g><g id="aF"><path fill="#c4ae67" d="M8.6 3 7.2 4.4 3.5 5l-.8-.2-2-1.7V3Q.8 1.6 2 1q1.9-1 4-.5 2.4.3 2.6 2.4m-4-1.5L2.7 2q-.8.4-.8 1t.8 1l1.9.4q1.1 0 1.9-.4t.8-1-.8-1z"/><path fill="#927f3c" d="m7.2 4.5 1.4-1.6Q7.6 9 8 15v.4q.1 3 .6 5.9 0 1-.4 1.6l-1 .7-.5-3.5-.1-.5q-.3-2.7-.3-5.4V14q0-4.1.9-8.2zm-1.9.8-.8 7.2-.2-7zm.5 8.2.2-1.7v1.8l.2 5.8-.7-.5zM2 5.5h.3l1.2-.1.1 1.2-.1 5-2.2-2.9-.4-4.2zm1.4 12.3-.1 6.3-3-1.6q.8-3.7 1-7.5z"/><path fill="#a89652" d="m.6 3.1 2.1 1.7.8.4.4.2h-.4l-1.2.1H2l-1.1-1z"/><path fill="#e0cc96" d="m2.7 4.8.8.2v.2z"/><path fill="#97853d" d="m3.5 5 3.7-.5v1.1l-1-.3h-.9l-1 .1-.7 1.2-.1-1.2h.4l-.4-.2zm1.1-3.6 1.9.5q.8.4.8 1t-.8 1-1.9.4L2.7 4q-.8-.4-.8-1t.8-1z"/><path fill="#8c7839" d="M7.2 5.6q-.9 4.2-.9 8.3l-.3-.3v-1.8l-.2 1.7-1.3-1 .8-7.1.9-.2zm-.6 14v.5l.7 3.5-1 .3-.1-4.5zm-3.1-8 .1-5 .7-1.2.2 7-1-.7m-.1 5.7.3.4 1.8 1.1-.3 5.3h-2l.2-6.4z"/><path fill="#c7b05a" d="M6.3 13.9v.3q0 2.7.3 5.4l-.4-.2-.2-5.7zm-1.8-1.5 1.3 1.1-.3 5.4-1.8-1.1-.3-.4.1-5.6z"/><path fill="#e5cf99" d="m1.3 8.7 2.2 3-.1 5.7v.4l-2-2.9v-.4q.1-2.9-.1-5.8"/><path fill="#7b6633" d="m5.2 24.2.3-5.3.7.5.1 4.6z"/><path fill="none" stroke="#000" stroke-linecap="round" stroke-linejoin="round" stroke-opacity=".3" stroke-width="__RESOLUTION__" d="M8.6 3Q8.4.7 6 .4 3.9 0 2 1 .8 1.6.7 3v0l.2 1.4.4 4.2q.2 2.9 0 5.9v.3q-.2 3.9-1 7.6m8.3-1.2q-.5-2.9-.6-5.9V15q-.4-6 .6-12" vector-effect="non-scaling-stroke"/><path fill="none" stroke="#000" stroke-linecap="round" stroke-linejoin="round" stroke-opacity=".3" stroke-width="__RESOLUTION__" d="M4.6 1.4 2.7 2q-.8.4-.8 1t.8 1l1.9.4q1.1 0 1.9-.4t.8-1-.8-1zM2.3 5.5H2" vector-effect="non-scaling-stroke"/></g><g id="aE"><path fill="#806f37" d="m4.6 1.4 1.9.5q.8.4.8 1t-.8 1-1.9.4L2.7 4q-.8-.4-.8-1t.8-1zm2.6 3.1v1.1l-1-.3h-.9l-1 .1-.7 1.2-.1-1.2-1.2.1H2l-1.1-1-.3-1.4 2.1 1.7.8.4V5z"/><path fill="#93803d" d="M4.6 1.4 2.7 2q-.8.4-.8 1t.8 1l1.9.4q1.1 0 1.9-.4t.8-1-.8-1zm4 1.5L7.2 4.5 3.5 5l-.8-.2-2-1.7V3Q.8 1.6 2 1q1.9-1 4-.5 2.4.3 2.6 2.4"/><path fill="#9b8e47" d="M7.2 5.6V4.5l1.4-1.6q-1.5 9.3 0 18.4 0 1-.4 1.6l-1 .7q-1.7-9.1 0-18M.8 4.5l1.2 1h.3l1.2-.1.1 1.2-.4 17.6-2.9-1.7q1.5-6.7 1-13.4L1 6z"/><path fill="#958745" d="M7.2 5.6q-1.7 8.9 0 18l-.9.3-.3-12-.8 12.4h-2l.4-17.5.7-1.3.2 7.1.8-7.1.9-.2z"/><path fill="#e4d59a" d="M3.5 5v.2l-.8-.4z"/><path fill="#86763f" d="M4.3 5.4h1l-.8 7.1zm2 18.5-1.1.2.8-12.4z"/><path fill="none" stroke="#141810" stroke-linecap="round" stroke-linejoin="round" stroke-opacity=".3" stroke-width="__RESOLUTION__" d="M4.6 1.4 2.7 2q-.8.4-.8 1t.8 1l1.9.4q1.1 0 1.9-.4t.8-1-.8-1zM2 5.4l.3.1" vector-effect="non-scaling-stroke"/><path fill="none" stroke="#141810" stroke-linecap="round" stroke-linejoin="round" stroke-opacity=".3" stroke-width="__RESOLUTION__" d="M8.6 21.3Q7.1 12.2 8.6 3 8.4.7 6 .4 3.9 0 2 1 .8 1.6.7 3v0l.2 1.4L1 6l.4 3.1q.4 6.7-1 13.4" vector-effect="non-scaling-stroke"/></g><g id="aD"><path fill="#695426" d="m4.6 1.4 1.9.5q.8.4.8 1t-.8 1-1.9.4L2.7 4q-.8-.4-.8-1t.8-1zm2.6 3.1v1.1l-1-.3h-.9l-1 .1-.7 1.2-.1-1.2-1.2.1H2l-1.1-1-.3-1.4 2.1 1.7.8.4V5z"/><path fill="#7b642c" d="M4.6 1.4 2.7 2q-.8.4-.8 1t.8 1l1.9.4q1.1 0 1.9-.4t.8-1-.8-1zm4 1.5L7.2 4.5 3.5 5l-.8-.2-2-1.7V3Q.8 1.6 2 1q1.9-1 4-.5 2.4.3 2.6 2.4"/><path fill="#837235" d="M7.2 5.6V4.5l1.4-1.6q-1.5 9.3 0 18.4 0 1-.4 1.6l-1 .7q-1.7-9.1 0-18M.8 4.5l1.2 1h.3l1.2-.1.1 1.2-.4 17.6-2.9-1.7q1.5-6.7 1-13.4L1 6z"/><path fill="#7d6b33" d="M7.2 5.6q-1.7 8.9 0 18l-.9.3-.3-12-.8 12.4h-2l.4-17.5.7-1.3.2 7.1.8-7.1.9-.2z"/><path fill="#c9b786" d="M3.5 5v.2l-.8-.4z"/><path fill="#6f5b2d" d="M4.3 5.4h1l-.8 7.1zm2 18.5-1.1.2.8-12.4z"/><path fill="none" stroke="#000" stroke-linecap="round" stroke-linejoin="round" stroke-opacity=".3" stroke-width="__RESOLUTION__" d="M4.6 1.4 2.7 2q-.8.4-.8 1t.8 1l1.9.4q1.1 0 1.9-.4t.8-1-.8-1zM2 5.4l.3.1" vector-effect="non-scaling-stroke"/><path fill="none" stroke="#000" stroke-linecap="round" stroke-linejoin="round" stroke-opacity=".3" stroke-width="__RESOLUTION__" d="M8.6 21.3Q7.1 12.2 8.6 3 8.4.7 6 .4 3.9 0 2 1 .8 1.6.7 3v0l.2 1.4L1 6l.4 3.1q.4 6.7-1 13.4" vector-effect="non-scaling-stroke"/></g><g id="aC"><path fill="#746633" d="m3.5 13.7.9-.7.6 6.2q.8 5.7 3.2 15.1l-.2.8-1.2.6q-1.1.3-1.4-.2z"/><path fill="#8f8160" d="M5.4 35.5Q2.9 37 2.1 32.4v-1L1 13.9.4.3l3.1 13.3z"/><path fill="none" stroke="#000" stroke-linecap="round" stroke-linejoin="round" stroke-opacity=".3" stroke-width="__RESOLUTION__" d="m4.4 13 .6 6.2q.8 5.7 3.2 15.1l.4-4.2-.2 5.3-.2-1.1-.2.8-1.2.6q-1.1.3-1.4-.2-2.5 1.6-3.3-3.1v-1l-1 2.2.4 2.1 1.9 1.1m-1.3-5.3L1 13.8.4.3l3.1 13.3" vector-effect="non-scaling-stroke"/></g><g id="aB"><path fill="#2a310f" d="M.5 4.2Q41.3-7.4 65.1 17.7 26.1 3.2.5 4.2"/><path fill="none" stroke="#131408" stroke-linecap="round" stroke-linejoin="round" stroke-opacity=".3" stroke-width="1" d="M.5 4.2q25.6-1 64.6 13.5Q41.3-7.4.5 4.2"/></g><g id="aA"><path fill="#384113" d="M.5 5.7q45.3-17.1 65.6 22.5Q29.8.4.5 5.7"/><path fill="none" stroke="#151609" stroke-linecap="round" stroke-linejoin="round" stroke-opacity=".3" stroke-width="1" d="M.5 5.7Q29.8.4 66.1 28.2 45.9-11.4.5 5.7"/></g><g id="az"><path fill="#3c4615" d="M48.1.5q6.8 2 17.2.6L58.6 3l-.6.2Q35.8 11.3.5 41.8 26 6.1 48.1.5"/><path fill="#1f2e10" d="M65.3 1q7.2.7 21 12.3Q64 1.6 58.6 3z"/><path fill="none" stroke="#1c1d0c" stroke-linecap="round" stroke-linejoin="round" stroke-opacity=".3" stroke-width="1" d="M48.1.5q6.8 2 17.2.6"/><path fill="none" stroke="#1c1d0c" stroke-linecap="round" stroke-linejoin="round" stroke-opacity=".3" stroke-width="1" d="M65.3 1q7.2.7 21 12.3Q64 1.6 58.6 3l-.6.2Q35.8 11.3.5 41.8 26 6.1 48.1.5m17.2.6L58.6 3"/></g><g id="ay"><path fill="#2d3510" d="M.5 4.2Q41.3-7.4 65.1 17.7 26.1 3.2.5 4.2"/><path fill="none" stroke="#151609" stroke-linecap="round" stroke-linejoin="round" stroke-opacity=".3" stroke-width="1" d="M.5 4.2q25.6-1 64.6 13.5Q41.3-7.4.5 4.2"/></g><g id="ax"><path fill="url(#q)" d="M-13.2 39.3Q-14.7 7-9.6 5.3q6.5-2 14.5-3.6.6-.7-.5 13.7l-.9 5.5-6.6-.5-1.6-.1q-.2 0-.9 2.2-.8 2.6-.8 4.9 0 .9.9 2.6.8 1.6.8 2.9 0 1-1.2 2.6t-2.4 1.7q-1.5 0-3.1-.8-.8 0-1.8 2.9" transform="translate(14 -1.15)"/><path fill="#5c5623" d="M.8 38.2q1-3 1.8-3 1.6.9 3.1.9 1.1 0 2.4-1.7t1.2-2.6q0-1.3-.9-3t-.8-2.6q0-2.2.8-4.8.7-2.3 1-2.3l1.4.1 6.8.6Q14.6 33.9 2 58.6 1 47.2.8 38.1"/><path fill="none" stroke="#111207" stroke-linecap="round" stroke-linejoin="round" stroke-opacity=".3" stroke-width="1" d="m17.6 19.8.8-5.6Q19.6-.2 18.9.6 10.9 2 4.4 4.2q-5 1.6-3.6 34 .4 9 1.3 20.4Q14.6 34 17.6 19.9"/></g><g id="aw"><path fill="#434813" d="m40.6 3.6.6-.4q2-1.1 3.9-1.7l2.7-.4q-2.5.6-5.1 2-1.2.7-2.4 2.2-.3-.1-1.1.4-.7.4 1.4-2.1m-9.3 18.3-1.7.8-.5.2 6-9.2 2.1-3.1-3 5.7-2.4 4.7z"/><path fill="#494e16" d="M45.1 1.5q2.6-1 5.1-1Q43.9 2 39.2 12l-1.5 3-2.5 5.1-3.8 1.8.5-.9 2.4-4.7 3-5.7-2.1 3.1-6 9.2-.9.3q-5.5 2-7.1.6l-.4-.6.8-1.2 3-3.9 4.5-5Q35 6.8 40.6 3.7q-2.1 2.5-1.4 2t1.1-.3q1.2-1.5 2.4-2.1 2.5-1.5 5.1-2zM26.6 27.4l.6-.1 1.1-.1-.7.9-4.5 6.8L7.3 60.1l17.4-30 .3-.5.5-.7z"/><path fill="#74743b" d="m35 20.1-1.4 2.8-2.4 4.6-2.9-.3 1.9-3.4.3-.5.8-1.4zM15.9 32.2l.2-.4 1.1-2.5q1.5-3.2 3.5-6.1l.4.6q1.6 1.4 7.1-.6l.9-.3-.5.8.5-.4q.5-.6-.2.5l-2.3 3.5-.8.2q-4.3 1-9.9 4.7"/><path fill="#575f19" d="M31.2 27.5Q23 42.8.5 70.7l3.6-9.2.3-.6.2-.5 2.2-5.5 9.1-22.7q5.6-3.7 9.9-4.7l.8-.2 2.3-3.5q.7-1 .2-.6l-.5.4.5-.7.5-.2 1.7-.7-.8 1.3-.3.5-1.9 3.4-1.1.1h-.6L25.5 29l-.5.8-.3.4-17.4 30L23 34.8l4.5-6.8.7-.9z"/><path fill="none" stroke="#111207" stroke-linecap="round" stroke-linejoin="round" stroke-opacity=".3" stroke-width="1" d="m40.6 3.6.6-.4h0q2-1.1 3.9-1.7 2.6-1 5.1-1Q43.9 2 39.2 12l-1.5 3-2.5 5.1-1.5 2.8-2.4 4.6Q23 42.8.5 70.7l3.6-9.2.3-.6.2-.5 2.2-5.5 9.1-22.7.2-.4 1.1-2.5q1.5-3.2 3.5-6.1l.8-1.2 3-3.9 4.5-5q6-6.3 11.6-9.4"/></g><g id="av"><path fill="#575f19" d="M41 13.7h.1q17.3-8 23.7-8.6l6.7-.3-6.7 2-.6.1Q55 10.4 42.6 17.5h-1.9l-.1-1.9zq7.4-4.9 19.6-9.9-2.4-1.2-4.2-3.3Q50.9 2.6 45 6.1l-1.5 2.5q-1.7 2.7-2.5 5M18.3 27.2l3.6 2q-.1 1.3-2 2.6-2.7 1.7-11.6 5.5 5.2-5.4 10-10.1"/><path fill="#494e16" d="M64.8 5q-6.4.7-23.7 8.7 7.3-4.9 19.5-9.9 1.9.9 4.2 1.2"/><path fill="#594f29" d="m41 13.7-.4 1.9.1 1.8 2 .1Q32.3 23.4 20 31.9l-.2-.2q2-1.2 2.1-2.6l-3.6-2Q32.6 13.5 45 6.1l-1.5 2.5q-1.7 2.7-2.5 5"/><path fill="#373b13" d="m64.9 6.7 6.6-1.9q7.3.6 21 12.2Q70.3 5.3 64.8 6.7"/><path fill="#574828" d="m19.8 31.7.2.2L.5 45.8l7.8-8.5v-.1q8.9-3.8 11.5-5.5"/><path fill="none" stroke="#111207" stroke-linecap="round" stroke-linejoin="round" stroke-opacity=".3" stroke-width="1" d="M42.7 17.5Q55 10.3 64.2 7l.6-.3 6.7-1.9q7.3.6 21 12.2Q70.3 5.3 64.8 6.7M45 6.1q-12.5 7.5-26.7 21-4.8 4.7-10 10.1h0L.5 45.9l19.5-14q12.4-8.5 22.7-14.4M45 6.1Q50.9 2.6 56.4.5m15.1 4.3-6.7.2q-2.3-.3-4.2-1.2-2.4-1.2-4.2-3.3"/></g><g id="au"><path fill="url(#r)" d="M-13.2 39.3Q-14.7 7-9.6 5.3q6.5-2 14.5-3.6.6-.7-.5 13.7l-.9 5.5-6.6-.5-1.6-.1q-.2 0-.9 2.2-.8 2.6-.8 4.9 0 .9.9 2.6.8 1.6.8 2.9 0 1-1.2 2.6t-2.4 1.7q-1.5 0-3.1-.8-.8 0-1.8 2.9" transform="translate(14 -1.15)"/><path fill="#373314" d="M.8 38.2q1-3 1.8-3 1.6.9 3.1.9 1.1 0 2.4-1.7t1.2-2.6q0-1.3-.9-3t-.8-2.6q0-2.2.8-4.8.7-2.3 1-2.3l1.4.1 6.8.6Q14.6 33.9 2 58.6 1 47.2.8 38.1"/><path fill="none" stroke="#0a0b04" stroke-linecap="round" stroke-linejoin="round" stroke-opacity=".3" stroke-width="1" d="m17.6 19.8.8-5.6Q19.6-.2 18.9.6 10.9 2 4.4 4.2q-5 1.6-3.6 34 .4 9 1.3 20.4Q14.6 34 17.6 19.9"/></g><g id="at"><path fill="#404612" d="M.5 6.6Q35.1-7.1 61.3 9.8 19.4 2 .5 6.5"/><path fill="none" stroke="#0c0d05" stroke-linecap="round" stroke-linejoin="round" stroke-opacity=".3" stroke-width="1" d="M.5 6.6Q19.4 2 61.3 9.8 35-7 .5 6.5"/></g><g id="as"><path fill="url(#s)" d="M2-6q8-20 60.8 15.7Q9.8-8.4 2.1-6" transform="translate(1.8 13.65)"/><path fill="none" stroke="#080803" stroke-linecap="round" stroke-linejoin="round" stroke-opacity=".3" stroke-width="1" d="M3.9 7.6q-.6 1.3-.9 2.9L.5 13.6q.3-2.2 2.5-3.1-1.3-2.2.8-2.9 8-20 60.8 15.8Q11.6 5.2 3.9 7.6"/></g><g id="ar"><path fill="#3c4211" d="M.5 6.6Q35.1-7.1 61.3 9.8 19.4 2 .5 6.5"/><path fill="none" stroke="#0c0c05" stroke-linecap="round" stroke-linejoin="round" stroke-opacity=".3" stroke-width="1" d="M.5 6.6Q19.4 2 61.3 9.8 35-7 .5 6.5"/></g><g id="aq" transform="translate(57.3 435.35)"><use xlink:href="#u" width="66.6" height="28.7" transform="matrix(-.22 .68 .26 .47 27.75 -160.05)"/><use xlink:href="#v" width="65.6" height="18.2" transform="matrix(.04 .59 .48 -.45 28.55 -161.35)"/><use xlink:href="#z" width="66.6" height="28.7" transform="matrix(.04 .32 .81 .41 27.15 -166.05)"/><use xlink:href="#A" width="61.8" height="10.3" transform="matrix(-.3 .28 0 .4 9.1 -198.85)"/><use xlink:href="#B" width="65.1" height="23.9" transform="matrix(-.15 .36 .37 -.01 7.75 -198.65)"/><use xlink:href="#C" width="61.8" height="10.3" transform="matrix(-.09 -.37 .67 .58 9.6 -181.25)"/><use xlink:href="#D" width="72.1" height="72.1" transform="matrix(.19 -.1 .19 .1 -11.65 -8.7)"/><use xlink:href="#E" width="72.1" height="72.1" transform="matrix(.36 -.18 .36 .18 -22.35 -8.5)"/><use xlink:href="#F" width="407.6" height="57.8" transform="matrix(.11 -.06 .19 .1 -4.4 -10.25)"/><use xlink:href="#F" width="407.6" height="57.8" transform="matrix(.12 -.05 .19 .1 -4.4 -10.7)"/><use xlink:href="#G" width="8.9" height="37.2" transform="matrix(-.31 .1 .13 .37 -8.1 -27.2)"/><use xlink:href="#H" width="8.9" height="24.2" transform="matrix(1.65 0 .11 1.65 -8.5 -44.5)"/><use xlink:href="#I" width="8.9" height="24.2" transform="matrix(1.65 0 -.02 1.65 -6.5 -76.2)"/><use xlink:href="#J" width="8.9" height="24.2" transform="matrix(1.56 -.09 .16 1.57 -9.15 -106.45)"/><use xlink:href="#J" width="8.9" height="24.2" transform="matrix(1.48 .04 .07 1.55 -8.8 -137.35)"/><use xlink:href="#I" width="8.9" height="24.2" transform="matrix(1.3 .03 .06 1.36 -8.95 -163.9)"/><use xlink:href="#I" width="8.9" height="24.2" transform="matrix(1.14 .03 .06 1.14 -9.6 -185.3)"/><use xlink:href="#H" width="8.9" height="24.2" transform="matrix(1.14 .03 .1 1.14 -11.65 -207.9)"/><use xlink:href="#K" width="8.9" height="24.2" transform="matrix(1.09 .03 .11 1.08 -12.6 -228.65)"/><use xlink:href="#K" width="8.9" height="24.2" transform="matrix(1.03 .05 .08 1.07 -13.35 -249.65)"/><use xlink:href="#H" width="8.9" height="24.2" transform="matrix(.9 .05 .08 .94 -14.35 -267.9)"/><use xlink:href="#I" width="8.9" height="24.2" transform="matrix(.88 .04 .09 .91 -15.9 -285.95)"/><use xlink:href="#J" width="8.9" height="24.2" transform="matrix(.77 .01 .12 .76 -18.05 -300.4)"/><use xlink:href="#I" width="8.9" height="24.2" transform="matrix(.77 .01 .09 .76 -19.5 -315.05)"/><use xlink:href="#I" width="8.9" height="24.2" transform="matrix(.73 .01 .1 .73 -21.45 -329.35)"/><use xlink:href="#I" width="8.9" height="24.2" transform="matrix(-.69 0 .12 .71 -17.85 -344.15)"/><use xlink:href="#L" width="8.8" height="64.6" transform="matrix(.02 1.23 -.22 .18 12.3 -199.5)"/><use xlink:href="#I" width="8.9" height="24.2" transform="matrix(-.6 0 .11 .63 -20.55 -356.45)"/><use xlink:href="#I" width="8.9" height="24.2" transform="matrix(-.56 -.02 .09 .59 -22.4 -367.85)"/><use xlink:href="#I" width="8.9" height="24.2" transform="matrix(-.49 0 .11 .48 -25 -377.25)"/><use xlink:href="#I" width="8.9" height="24.2" transform="matrix(-.49 0 .12 .49 -27.65 -386.6)"/><use xlink:href="#M" width="8.9" height="24.2" transform="matrix(-.46 0 .1 .47 -29.85 -395.75)"/><use xlink:href="#N" width="15.7" height="14.9" transform="matrix(-.26 .06 .08 .38 -28.4 -393.9)"/><use xlink:href="#N" width="15.7" height="14.9" transform="matrix(-.17 -.18 -.24 .12 -25.85 -386.5)"/><use xlink:href="#I" width="8.9" height="24.2" transform="matrix(-.43 .01 .13 .46 -32.9 -405)"/><use xlink:href="#I" width="8.9" height="24.2" transform="matrix(-.37 .01 .1 .41 -34.8 -412.9)"/><use xlink:href="#L" width="8.8" height="64.6" transform="matrix(1.05 .71 -.64 .56 36.35 -171.3)"/><use xlink:href="#L" width="8.8" height="64.6" transform="matrix(-.4 .33 .16 .35 -43.65 -435.35)"/><use xlink:href="#L" width="8.8" height="64.6" transform="matrix(.27 1.22 .26 .16 -26.7 -264.7)"/><use xlink:href="#G" width="8.9" height="37.2" transform="rotate(9.7 242.714 71.194)scale(-.83 1)"/><use xlink:href="#O" width="5.4" height="36.5" transform="matrix(-1.55 -.2 -.09 .67 10.25 -27.05)"/><use xlink:href="#O" width="5.4" height="36.5" transform="matrix(-.7 -.09 .15 .46 -8.55 -22)"/><use xlink:href="#P" width="19.6" height="59.1" transform="matrix(-.4 -.18 -.07 .55 -21.85 -262.95)"/><use xlink:href="#Q" width="66.6" height="28.7" transform="matrix(-.39 .14 -.14 .4 -24.5 -269.6)"/><use xlink:href="#R" width="65.1" height="23.9" transform="matrix(-.28 .29 .39 .13 -31.1 -264.3)"/><use xlink:href="#S" width="66.6" height="28.7" transform="matrix(-.22 .31 .35 1.07 -27.95 -272.3)"/><use xlink:href="#T" width="39.5" height="51.2" transform="matrix(.07 .3 -.56 .35 -28.55 -278.55)"/><use xlink:href="#U" width="17.6" height="59.8" transform="matrix(-.19 .14 .1 .2 -23.85 -270.25)"/><use xlink:href="#V" width="65.6" height="18.2" transform="matrix(.5 .5 -.63 .49 -3 -250.7)"/><use xlink:href="#W" width="86.8" height="42.3" transform="matrix(-.37 .05 0 .48 22.45 -254.8)"/><use xlink:href="#U" width="17.6" height="59.8" transform="matrix(-.64 .05 -.19 .48 1.9 -246.2)"/><use xlink:href="#X" width="86.8" height="42.3" transform="matrix(-.5 -.27 -.19 .56 67.45 -149.75)"/><use xlink:href="#Q" width="66.6" height="28.7" transform="matrix(-.43 .57 .1 .53 37.3 -172.95)"/><use xlink:href="#Y" width="17.6" height="59.8" transform="matrix(-.51 .05 -.01 .67 45.1 -171.45)"/><use xlink:href="#Z" width="86.8" height="42.3" transform="matrix(-.77 .01 -.24 .71 94.4 -174.1)"/><use xlink:href="#T" width="39.5" height="51.2" transform="matrix(-.56 .03 -.19 .33 55.85 -172.85)"/><use xlink:href="#U" width="17.6" height="59.8" transform="matrix(.56 -.07 0 .38 27 -167)"/><use xlink:href="#aa" width="61.8" height="10.3" transform="matrix(.31 .3 -.45 .35 46.35 -172.7)"/><use xlink:href="#Q" width="66.6" height="28.7" transform="matrix(.64 .31 .16 .51 13.45 -199.05)"/><use xlink:href="#ab" width="65.6" height="18.2" transform="matrix(.4 .44 -.66 .04 12.05 -199.4)"/><use xlink:href="#S" width="66.6" height="28.7" transform="matrix(.21 .25 -.26 .87 9.5 -203.7)"/></g><g id="ap"><path fill="#6f6f25" d="M7.9 2.4 5.1 4.3q-2.3 1.4-3.6.4t-1.2-2Q.3 1.5 1.8.8 3 .2 5 .3q1.8.2 2.8.8 1 .5.7.7z"/><path fill="none" stroke="#212100" stroke-linecap="round" stroke-linejoin="round" stroke-opacity=".2" stroke-width="__RESOLUTION__" d="M7.9 2.4 5.1 4.3q-2.3 1.4-3.6.4t-1.2-2Q.3 1.5 1.8.8 3 .2 5 .3q1.8.2 2.8.8 1 .5.7.7z" vector-effect="non-scaling-stroke"/></g><g id="ao"><path fill="#7b7b2c" d="M7.9 2.4 5.1 4.3q-2.3 1.4-3.6.4t-1.2-2Q.3 1.5 1.8.8 3 .2 5 .3q1.8.2 2.8.8 1 .5.7.7z"/><path fill="none" stroke="#1d1d00" stroke-linecap="round" stroke-linejoin="round" stroke-opacity=".2" stroke-width="__RESOLUTION__" d="M7.9 2.4 5.1 4.3q-2.3 1.4-3.6.4t-1.2-2Q.3 1.5 1.8.8 3 .2 5 .3q1.8.2 2.8.8 1 .5.7.7z" vector-effect="non-scaling-stroke"/></g><g id="an"><path fill="url(#ac)" d="M-1.2-22.6h2.5Q.3-11 1.3-.4l-2.5.3q1-11.5 0-22.5" transform="translate(1.6 23.25)"/><path fill="none" stroke="#1a1a00" stroke-linecap="round" stroke-linejoin="round" stroke-opacity=".3" stroke-width="__RESOLUTION__" d="m.4.6 2.5.1q-1 11.5 0 22.2" vector-effect="non-scaling-stroke"/><path fill="none" stroke="#1a1a00" stroke-linecap="round" stroke-linejoin="round" stroke-opacity=".1" stroke-width="__RESOLUTION__" d="M.4 23.1Q1.4 11.6.4.6" vector-effect="non-scaling-stroke"/></g><g id="am" fill="#2b290f" fill-opacity=".2"><path d="M4.4 3.9 4 3.8l4.1-2.3-2.8 3-.5.3.8.5-3.7 1-1-1.4 1.4-.7L3.7 4z"/><path d="m4 3.8 1.1-.2-.6-.1 6-3.5-4.1 4.5-.8.5 1.2.8-5.4 1.4L0 5.1l2-1z"/></g><g id="al"><path fill="#99993f" d="M7.9 2.4 5.1 4.3q-2.3 1.4-3.6.4t-1.2-2Q.3 1.5 1.8.8 3 .2 5 .3q1.8.2 2.8.8 1 .5.7.7z"/><path fill="none" stroke="#141400" stroke-linecap="round" stroke-linejoin="round" stroke-opacity=".2" stroke-width="__RESOLUTION__" d="M7.9 2.4 5.1 4.3q-2.3 1.4-3.6.4t-1.2-2Q.3 1.5 1.8.8 3 .2 5 .3q1.8.2 2.8.8 1 .5.7.7z" vector-effect="non-scaling-stroke"/></g><linearGradient id="a" x1="-819.2" x2="819.2" gradientTransform="matrix(0 .01 -.04 0 -1.15 9)" gradientUnits="userSpaceOnUse" spreadMethod="pad"><stop offset="0" stop-color="#2a320f" stop-opacity="1"/><stop offset="1" stop-color="#333f13" stop-opacity="1"/></linearGradient><linearGradient id="b" x1="-819.2" x2="819.2" gradientTransform="matrix(0 .01 -.04 0 -1.15 9)" gradientUnits="userSpaceOnUse" spreadMethod="pad"><stop offset="0" stop-color="#3e4b17" stop-opacity="1"/><stop offset="1" stop-color="#4d601d" stop-opacity="1"/></linearGradient><linearGradient id="d" x1="-819.2" x2="819.2" gradientTransform="matrix(.04 0 0 .01 31 4.85)" gradientUnits="userSpaceOnUse" spreadMethod="pad"><stop offset=".5" stop-color="#4e5415" stop-opacity="1"/><stop offset="1" stop-color="#393f11" stop-opacity="1"/></linearGradient><linearGradient id="e" x1="-819.2" x2="819.2" gradientTransform="matrix(0 -.01 .03 .01 -2.25 18)" gradientUnits="userSpaceOnUse" spreadMethod="pad"><stop offset=".5" stop-color="#646c1b" stop-opacity="1"/><stop offset="1" stop-color="#495216" stop-opacity="1"/></linearGradient><linearGradient id="ad" x1="-819.2" x2="819.2" gradientTransform="matrix(.2 0 0 .04 -30.8 -11)" gradientUnits="userSpaceOnUse" spreadMethod="pad"><stop offset="0" stop-color="#2c2800" stop-opacity=".3"/><stop offset="1" stop-color="#262600" stop-opacity="0"/></linearGradient><linearGradient id="f" x1="-819.2" x2="819.2" gradientTransform="matrix(.04 0 0 .01 31 4.85)" gradientUnits="userSpaceOnUse" spreadMethod="pad"><stop offset=".5" stop-color="#404611" stop-opacity="1"/><stop offset="1" stop-color="#2e350e" stop-opacity="1"/></linearGradient><linearGradient id="g" x1="-819.2" x2="819.2" gradientTransform="matrix(0 -.01 .01 0 -.05 -15.1)" gradientUnits="userSpaceOnUse" spreadMethod="pad"><stop offset=".5" stop-color="#64681a" stop-opacity="1"/><stop offset="1" stop-color="#525613" stop-opacity="1"/><stop offset="1" stop-color="#626618" stop-opacity="0"/></linearGradient><linearGradient id="h" x1="-819.2" x2="819.2" gradientTransform="matrix(.04 0 0 .01 31 4.85)" gradientUnits="userSpaceOnUse" spreadMethod="pad"><stop offset=".5" stop-color="#505616" stop-opacity="1"/><stop offset="1" stop-color="#3a4112" stop-opacity="1"/></linearGradient><linearGradient id="i" x1="-819.2" x2="819.2" gradientTransform="matrix(0 -.01 .03 .01 -2.25 18)" gradientUnits="userSpaceOnUse" spreadMethod="pad"><stop offset=".5" stop-color="#666f1d" stop-opacity="1"/><stop offset="1" stop-color="#4b5417" stop-opacity="1"/></linearGradient><linearGradient id="j" x1="-819.2" x2="819.2" gradientTransform="matrix(0 .01 -.04 0 -1.15 9)" gradientUnits="userSpaceOnUse" spreadMethod="pad"><stop offset="0" stop-color="#404d17" stop-opacity="1"/><stop offset="1" stop-color="#4f621e" stop-opacity="1"/></linearGradient><linearGradient id="k" x1="-819.2" x2="819.2" gradientTransform="matrix(0 .01 -.04 0 -1.15 9)" gradientUnits="userSpaceOnUse" spreadMethod="pad"><stop offset="0" stop-color="#2f3911" stop-opacity="1"/><stop offset="1" stop-color="#3a4816" stop-opacity="1"/></linearGradient><linearGradient id="ah" x1="-819.2" x2="819.2" gradientTransform="matrix(.2 0 0 .04 -30.8 -11)" gradientUnits="userSpaceOnUse" spreadMethod="pad"><stop offset="0" stop-color="#2e2900" stop-opacity=".3"/><stop offset="1" stop-color="#272700" stop-opacity="0"/></linearGradient><linearGradient id="o" x1="-819.2" x2="819.2" gradientTransform="matrix(0 -.01 .03 .01 -2.25 18)" gradientUnits="userSpaceOnUse" spreadMethod="pad"><stop offset=".5" stop-color="#646c1c" stop-opacity="1"/><stop offset="1" stop-color="#495216" stop-opacity="1"/></linearGradient><linearGradient id="p" x1="-819.2" x2="819.2" gradientTransform="matrix(0 .01 -.04 0 -1.15 9)" gradientUnits="userSpaceOnUse" spreadMethod="pad"><stop offset="0" stop-color="#2a320f" stop-opacity="1"/><stop offset="1" stop-color="#334013" stop-opacity="1"/></linearGradient><linearGradient id="q" x1="-819.2" x2="819.2" gradientTransform="matrix(0 -.01 .03 .01 -2.25 18)" gradientUnits="userSpaceOnUse" spreadMethod="pad"><stop offset=".5" stop-color="#60681b" stop-opacity="1"/><stop offset="1" stop-color="#464e15" stop-opacity="1"/></linearGradient><linearGradient id="r" x1="-819.2" x2="819.2" gradientTransform="matrix(0 -.01 .03 .01 -2.25 18)" gradientUnits="userSpaceOnUse" spreadMethod="pad"><stop offset=".5" stop-color="#393e10" stop-opacity="1"/><stop offset="1" stop-color="#2a2f0c" stop-opacity="1"/></linearGradient><linearGradient id="s" x1="-819.2" x2="819.2" gradientTransform="matrix(.04 0 0 .01 31 4.85)" gradientUnits="userSpaceOnUse" spreadMethod="pad"><stop offset=".5" stop-color="#2c300c" stop-opacity="1"/><stop offset="1" stop-color="#20240a" stop-opacity="1"/></linearGradient><linearGradient id="ac" x1="-819.2" x2="819.2" gradientTransform="matrix(0 -.01 .01 0 -.05 -15.1)" gradientUnits="userSpaceOnUse" spreadMethod="pad"><stop offset=".5" stop-color="#6b6f1d" stop-opacity="1"/><stop offset="1" stop-color="#565a16" stop-opacity="1"/><stop offset="1" stop-color="#696d1b" stop-opacity="0"/></linearGradient><path id="N" fill="url(#add)" d="M7.9-.4q0 3-2.2 5.4Q3.5 7.3.3 7.5t-5.7-2q-2.3-2-2.4-5.1T-5.7-5t5.5-2.5 5.6 1.9T7.8-.4" transform="translate(7.85 7.5)"/><path id="F" fill="url(#ad)" d="M66.2-20.9q20.3-4.7 26.9-6.5l14.5.3q122.4 3.5 89 19.2-26.2 12.3-88.1 21l-8.5 1.1q-24.8-3.4-46.6-1.4t-35.2 9.7l-13 1Q-44 13-78.5 28.6l-12.7.4q-7.2-7-38.9-9-31.6-2.1-71 8.9l-2.7-56.1q27.7 5.7 55.4 6t51.9-7.5l12.7-.1q38.8 11.2 79.6.2l13.3.1q36.8 12.4 57.1 7.7" transform="translate(203.8 28.9)"/><path id="E" fill="url(#af)" d="M25.5-25.5Q36-14.9 36 0T25.5 25.5Q15 36 0 36t-25.5-10.5T-36 0t10.5-25.5T0-36t25.5 10.5" transform="translate(36.05 36.05)"/><path id="D" fill="url(#ag)" d="M25.5-25.5Q36-14.9 36 0T25.5 25.5Q15 36 0 36t-25.5-10.5T-36 0t10.5-25.5T0-36t25.5 10.5" transform="translate(36.05 36.05)"/><path id="bm" fill="none" stroke="#23240f" stroke-linecap="round" stroke-linejoin="round" stroke-opacity=".5" stroke-width="1.5" d="M11.2-65.4q-1-.6-1.8-.2-.5.2-.7.8h0q-.7-.7-1.1-.4l-.5-.3q-4.2 4.8-8.9 9.3l-.6-1.6q-.9-1.7-2.2-2.6-1.2-.7-2.2-.3l-.5-1.1 1.8.3 4.1-.3q2.4-.5 3.9-1 1.5-.7-2.1-.7h-6.1L-7-63q-.7.4-.6 1l.3.2-.5.1.6 1.2q-.5.5-.7 1.3-.2-.4-.5-.4.4-.6.3-1.4 0-1.1-1.5-1.8l-.7-.2q.5-1-.3-1.4h-.1q1-.2 1.3-1 .6-1-.2-2.3t-2.5-2.2-2.8-1-1 .3l.3.9 1.3 3q.9 1.8 2 2.3l-.8.1q-1.7.5-2.8 1.2-1.2.6-1 .8l.3.4 1.3 1.3q.5.4 1 .4l1 .7-.5.3-2.9 2.4q-1 1-.7 1l.8-.1 2.7-.5q2-.5 3.2-1.6l-1.3 2-.6 1.9q0 .5.3.3l.6-.6.1-.1.3.3.6-.2 2.1-1q1-.6 1.4-1.2l1.5.9.9.5.3.9h-.2l.4 1.8-1.9.6-2.7 1.3-.8.4q-.4 0 0 .5.3.3 1.4.5l2.5-.4 1.7-1q.7 5.5.6 11.1l-.5.2q1 8.5-.3 17.2l.2.2h0q1 10.3 0 21.1L-6 .2l1.5 2.1L.8.9-.4 0l.8-.5L4.6-5l-6 3.5-.3.2q-.8-10 0-20.7l-.6-.2h.6q-.9-8.3.2-17h0v-.1Q-2.8-46.4-2.6-54l.2-.4.6.3q.4.1.3-1v-.2l8.9-9.2.1 1.4q.4 1.8 1.4 4 1 2.1 2 3.3 1 1.4.1-2.1l-1.2-4.5.4.3 2.2 1 .7.3q.2 0 .2-.7l-.7-2.1q-.5-1.2-1.4-1.9m-.2-5.8-.8 2.6q-.8 2.1-2.1 1.8t-1.8-1.4 0-2.1 2-1.6l2.2-.4q.8.1.8.5zM-3.4-54.6l-.8-.4.3.5h.4zm-6.7 11.3.2.6.9 2q.8 1.8 2 1.7 1 0 1.4-.7t-.2-1.6q-.5-1-1.7-1.6t-2-.6zm3.4 4.8-3.6-.4-3.3.5q-1.2.4-.7.5l.8.5 3 1.2 1.7.5-1.3 1.3q-.4.5-.2.5h.6l1.9-.2q1.6-.2 2-1.1.3-.7.2-1 .6-.6.6-1-.1-.9-1.7-1.4" transform="translate(18.2 73.15)"/><path id="aV" fill="url(#ah)" d="M66.2-20.9q20.3-4.7 26.9-6.5l14.5.3q122.4 3.5 89 19.2-26.2 12.3-88.1 21l-8.5 1.1q-24.8-3.4-46.6-1.4t-35.2 9.7l-13 1Q-44 13-78.5 28.6l-12.7.4q-7.2-7-38.9-9-31.6-2.1-71 8.9l-2.7-56.1q27.7 5.7 55.4 6t51.9-7.5l12.7-.1q38.8 11.2 79.6.2l13.3.1q36.8 12.4 57.1 7.7" transform="translate(203.8 28.9)"/><path id="aU" fill="url(#ai)" d="M25.5-25.5Q36-14.9 36 0T25.5 25.5Q15 36 0 36t-25.5-10.5T-36 0t10.5-25.5T0-36t25.5 10.5" transform="translate(36.05 36.05)"/><path id="aT" fill="url(#aj)" d="M25.5-25.5Q36-14.9 36 0T25.5 25.5Q15 36 0 36t-25.5-10.5T-36 0t10.5-25.5T0-36t25.5 10.5" transform="translate(36.05 36.05)"/><radialGradient id="af" cx="0" cy="0" r="819.2" gradientTransform="scale(.04)" gradientUnits="userSpaceOnUse" spreadMethod="pad"><stop offset=".2" stop-color="#2d2800" stop-opacity=".3"/><stop offset="1" stop-color="#262600" stop-opacity="0"/></radialGradient><radialGradient id="ag" cx="0" cy="0" r="819.2" gradientTransform="scale(.04)" gradientUnits="userSpaceOnUse" spreadMethod="pad"><stop offset=".7" stop-color="#2d2800" stop-opacity=".5"/><stop offset="1" stop-color="#262600" stop-opacity="0"/></radialGradient><radialGradient id="ai" cx="0" cy="0" r="819.2" gradientTransform="scale(.04)" gradientUnits="userSpaceOnUse" spreadMethod="pad"><stop offset=".2" stop-color="#2f2900" stop-opacity=".3"/><stop offset="1" stop-color="#272700" stop-opacity="0"/></radialGradient><radialGradient id="aj" cx="0" cy="0" r="819.2" gradientTransform="scale(.04)" gradientUnits="userSpaceOnUse" spreadMethod="pad"><stop offset=".7" stop-color="#2f2900" stop-opacity=".5"/><stop offset="1" stop-color="#272700" stop-opacity="0"/></radialGradient><clipPath id="ak"><path d="M1 1h172v450H1z"/></clipPath><use xlink:href="#N" id="aH" width="15.7" height="14.9"/></defs><g clip-path="url(#ak)"><g transform="translate(60.6 432.7)"><use xlink:href="#al" width="8.9" height="5.3" transform="matrix(.5704 .3056 .0792 .4545 22.25 -43.6)"/><use xlink:href="#al" width="8.9" height="5.3" transform="matrix(-.5578 .5771 .0738 -.8689 25.9 -30.5)"/><use xlink:href="#am" width="10.6" height="7.2" transform="translate(24.45 -7)"/><use xlink:href="#an" width="3.3" height="23.4" transform="rotate(1.037 1056.9 1407.51)scale(1 .7685)"/><use xlink:href="#ao" width="8.9" height="5.3" transform="matrix(-.11 .8604 -.6497 -.0831 28.7 -33.75)"/><use xlink:href="#an" width="3.3" height="23.4" transform="matrix(.474 -.4145 .1546 .3426 21.9 -40.65)"/><use xlink:href="#ap" width="8.9" height="5.3" transform="matrix(1.0143 .9162 -.3246 .3594 40.4 -31.95)"/><use xlink:href="#an" width="3.3" height="23.4" transform="matrix(.8123 -.0603 .0512 .6892 25 -33.8)"/><use xlink:href="#an" width="3.3" height="23.4" transform="matrix(.2846 .2739 -.4784 .4972 38.55 -30.1)"/><use xlink:href="#ao" width="8.9" height="5.3" transform="matrix(-.828 .7863 .1671 .4236 25.5 -19.3)"/><use xlink:href="#al" width="8.9" height="5.3" transform="matrix(-.3678 .6749 .6272 -.1535 20.85 -41.2)"/><use xlink:href="#al" width="8.9" height="5.3" transform="matrix(-.8917 .1149 -.5702 .6138 26.9 -18.5)"/><use xlink:href="#al" width="8.9" height="5.3" transform="matrix(1.0948 .2525 .1549 -.6715 39.1 -29.3)"/><use xlink:href="#al" width="8.9" height="5.3" transform="matrix(.2665 .6347 .5712 -.2399 37.7 -28.9)"/><use xlink:href="#al" width="8.9" height="5.3" transform="matrix(-.3064 -.2339 2.0297 -.3698 23.6 -41.15)"/><use xlink:href="#aq" width="151.7" height="439.8" transform="translate(-59.6 -427.35)"/><use xlink:href="#ar" width="61.8" height="10.3" transform="matrix(.2579 -.0774 .3069 .2779 14 -76.85)"/><use xlink:href="#as" width="65.1" height="23.9" transform="matrix(.3004 .107 -.0914 .3129 18.1 -75.1)"/><use xlink:href="#at" width="61.8" height="10.3" transform="matrix(.4287 .5896 -.3057 .2558 16.2 -79.95)"/><use xlink:href="#au" width="19.6" height="59.1" transform="matrix(-.4218 -.2443 .1344 .6951 21.65 -70.55)"/><use xlink:href="#av" width="93" height="46.3" transform="matrix(-.2804 .0947 .2394 .6282 33.9 -87.4)"/><use xlink:href="#aw" width="50.8" height="71.2" transform="matrix(-.3574 .0788 .1137 .6494 30.75 -78.4)"/><use xlink:href="#ax" width="19.6" height="59.1" transform="matrix(.3574 -.0788 .0775 .3777 7.25 -71.55)"/><use xlink:href="#ay" width="65.6" height="18.2" transform="matrix(.3882 .2918 -.4452 .3882 35.5 -221.35)"/><use xlink:href="#az" width="86.8" height="42.3" transform="matrix(-.2731 .0667 .0164 .3288 54.05 -226.5)"/><use xlink:href="#U" width="17.6" height="59.8" transform="matrix(-.4716 .0892 -.1192 .3408 39.3 -218.75)"/><use xlink:href="#aA" width="66.6" height="28.7" transform="matrix(.7693 .4772 .1251 .5414 57.45 -188.35)"/><use xlink:href="#aB" width="65.6" height="18.2" transform="matrix(.4489 .5368 -.8496 -.1513 55.7 -189.1)"/><use xlink:href="#S" width="66.6" height="28.7" transform="matrix(.226 .298 -.4579 .7641 53.2 -193.95)"/><use xlink:href="#D" width="72.1" height="72.1" transform="matrix(.2139 -.107 .2139 .107 -6.8 2.95)"/><use xlink:href="#E" width="72.1" height="72.1" transform="matrix(.3951 -.1976 .3951 .1976 -18.55 3.2)"/><use xlink:href="#F" width="407.6" height="57.8" transform="matrix(.123 -.0615 .2139 .107 1.15 1.25)"/><use xlink:href="#F" width="407.6" height="57.8" transform="matrix(.1328 -.0566 .2139 .107 1.2 .85)"/><use xlink:href="#aC" width="8.9" height="37.2" transform="matrix(.7544 .189 -.2279 .9097 16.8 -33.05)"/><use xlink:href="#aD" width="8.9" height="24.2" transform="matrix(1.844 -.0457 .023 1.6835 -1.2 -34)"/><use xlink:href="#I" width="8.9" height="24.2" transform="matrix(1.844 -.0457 -.0545 1.6855 1.9 -66.4)"/><use xlink:href="#aE" width="8.9" height="24.2" transform="matrix(1.7549 -.1351 .0841 1.5998 1.55 -97.35)"/><use xlink:href="#aE" width="8.9" height="24.2" transform="matrix(1.6534 .0122 -.0291 1.5842 4.55 -129.2)"/><use xlink:href="#aF" width="8.9" height="24.2" transform="matrix(1.456 .0274 -.0447 1.3949 6.5 -156.6)"/><use xlink:href="#N" width="15.7" height="14.9" transform="matrix(1.0625 .5692 -.0447 1.3949 .9 -152.65)"/><use xlink:href="#aG" width="8.9" height="24.2" transform="matrix(1.2719 .0719 -.0752 1.1604 9.05 -178.55)"/><use xlink:href="#aH" width="15.7" height="14.9" transform="matrix(.7148 .3988 -.0752 1.1604 6.25 -171.85)"/><use xlink:href="#aI" width="8.9" height="24.2" transform="matrix(1.2711 .0824 -.048 1.1622 10.5 -201.5)"/><use xlink:href="#N" width="15.7" height="14.9" transform="matrix(.6628 .3719 -.0309 .7488 7.85 -197.6)"/><use xlink:href="#N" width="15.7" height="14.9" transform="matrix(.5034 .2824 -.0309 .7488 8.45 -185.05)"/><use xlink:href="#aD" width="8.9" height="24.2" transform="matrix(1.2108 .0887 -.0415 1.1078 12.3 -222.55)"/><use xlink:href="#I" width="8.9" height="24.2" transform="matrix(1.1347 .134 -.0992 1.0893 15.7 -243.55)"/><use xlink:href="#I" width="8.9" height="24.2" transform="matrix(1.0002 .1175 -.0728 .9605 17.7 -262.25)"/><use xlink:href="#I" width="8.9" height="24.2" transform="matrix(.9723 .1128 -.0615 .9326 19.1 -280.6)"/><use xlink:href="#aE" width="8.9" height="24.2" transform="matrix(.8516 .0719 -.0469 .7781 20.3 -295.25)"/><use xlink:href="#I" width="8.9" height="24.2" transform="matrix(.8508 .0788 -.035 .7795 21.1 -310.7)"/><use xlink:href="#I" width="8.9" height="24.2" transform="matrix(.8065 .1013 -.0506 .7433 22.45 -325.35)"/><use xlink:href="#I" width="8.9" height="24.2" transform="matrix(.7678 -.0153 -.0593 .7291 24.05 -339.5)"/><use xlink:href="#L" width="8.8" height="64.6" transform="matrix(.0983 1.2545 -.2284 .218 32.55 -218.9)"/><use xlink:href="#I" width="8.9" height="24.2" transform="matrix(.6731 -.0328 -.0379 .646 25.45 -351.8)"/><use xlink:href="#I" width="8.9" height="24.2" transform="matrix(.6185 -.0501 -.0208 .5989 26.4 -363.35)"/><use xlink:href="#I" width="8.9" height="24.2" transform="matrix(.544 -.0232 -.0419 .4966 27.65 -373)"/><use xlink:href="#I" width="8.9" height="24.2" transform="matrix(.5407 -.0232 -.0397 .4996 28.4 -383.1)"/><use xlink:href="#I" width="8.9" height="24.2" transform="matrix(.5133 -.0221 -.0208 .4772 28.7 -392.55)"/><use xlink:href="#I" width="8.9" height="24.2" transform="matrix(.4758 -.0088 -.0439 .478 29.85 -402.1)"/><use xlink:href="#I" width="8.9" height="24.2" transform="matrix(.4178 -.0081 -.0157 .422 30.4 -410.3)"/><use xlink:href="#L" width="8.8" height="64.6" transform="matrix(1.2058 .7635 -.6925 .5515 49.8 -188.65)"/><use xlink:href="#L" width="8.8" height="64.6" transform="matrix(.5056 .3166 -.099 .325 35.25 -431.7)"/><use xlink:href="#L" width="8.8" height="64.6" transform="matrix(-.003 1.2542 .2451 .2001 2.1 -260.85)"/><use xlink:href="#L" width="8.8" height="64.6" transform="matrix(-.1788 1.251 .2186 .1952 -3.35 -170.2)"/><use xlink:href="#aJ" width="8.9" height="37.2" transform="matrix(.7783 0 0 .9386 -2.05 -25.7)"/><use xlink:href="#aK" width="5.4" height="36.5" transform="matrix(.8736 .3403 -.1977 .5076 20.05 -13.5)"/><use xlink:href="#aA" width="66.6" height="28.7" transform="matrix(-.5148 .1527 -.1851 .3331 -3.75 -167.35)"/><use xlink:href="#aB" width="65.6" height="18.2" transform="matrix(-.3568 .2608 .4864 .0811 -2.65 -167.45)"/><use xlink:href="#S" width="66.6" height="28.7" transform="matrix(-.1857 .1498 .0773 .6057 -.25 -170.15)"/><use xlink:href="#ay" width="65.6" height="18.2" transform="matrix(.4357 .5375 -.6413 .3005 44.55 -187.9)"/><use xlink:href="#az" width="86.8" height="42.3" transform="matrix(-.3598 -.0332 -.0436 .4242 77.65 -188.8)"/><use xlink:href="#U" width="17.6" height="59.8" transform="matrix(-.6163 -.0902 -.0778 .4015 57.4 -185.4)"/><use xlink:href="#aL" width="86.8" height="42.3" transform="matrix(-.5231 -.2389 -.1376 .5145 48.3 -79.5)"/><use xlink:href="#aA" width="66.6" height="28.7" transform="matrix(-.3789 .5211 .1421 .4837 16.1 -100.5)"/><use xlink:href="#aM" width="17.6" height="59.8" transform="matrix(-.5107 .0522 .0531 .6128 24.1 -99.15)"/><use xlink:href="#aN" width="86.8" height="42.3" transform="matrix(-.7688 .0156 -.1742 .6513 73.1 -102)"/><use xlink:href="#T" width="39.5" height="51.2" transform="matrix(-.5598 .0362 -.1597 .3061 34.75 -100.5)"/><use xlink:href="#U" width="17.6" height="59.8" transform="matrix(.5578 -.0704 .0369 .3509 6.3 -94.95)"/><use xlink:href="#aO" width="61.8" height="10.3" transform="matrix(.3379 .2714 -.4241 .3216 25.2 -100.3)"/><use xlink:href="#aA" width="66.6" height="28.7" transform="matrix(-.3138 -.2431 -.4353 .0658 4.2 -259.65)"/><use xlink:href="#aP" width="65.6" height="18.2" transform="matrix(-.3984 -.094 .0638 .3602 -.25 -257.3)"/><use xlink:href="#aQ" width="66.6" height="28.7" transform="matrix(-.6415 .2853 .3447 .4457 2.65 -263.7)"/><use xlink:href="#aR" width="19.6" height="59.1" transform="matrix(.5751 .0416 -.2861 .5794 -6.15 -258.65)"/><use xlink:href="#aS" width="86.8" height="42.3" transform="matrix(.3396 .2745 -.408 .4464 -18.2 -279.45)"/><use xlink:href="#T" width="39.5" height="51.2" transform="matrix(.4397 .3096 -.2523 .5491 -11.25 -268.85)"/><use xlink:href="#U" width="17.6" height="59.8" transform="matrix(-.4397 -.3096 -.1611 .3119 12.15 -250.6)"/><use xlink:href="#aT" width="72.1" height="72.1" transform="matrix(.1167 -.0571 .1132 .0571 8.6 6.85)"/><use xlink:href="#aU" width="72.1" height="72.1" transform="matrix(.2155 -.1055 .2091 .1055 2.3 7)"/><use xlink:href="#aV" width="407.6" height="57.8" transform="matrix(.067 -.0328 .1132 .0571 12.9 5.95)"/><use xlink:href="#aV" width="407.6" height="57.8" transform="matrix(.0722 -.0302 .1132 .0571 12.9 5.7)"/><use xlink:href="#aW" width="8.9" height="24.2" transform="matrix(1 0 .0345 .9941 11.05 -14.55)"/><use xlink:href="#aX" width="8.9" height="24.2" transform="matrix(1 0 -.0605 .9941 13.3 -33.65)"/><use xlink:href="#aY" width="65.6" height="18.2" transform="matrix(.2481 .4621 -.4216 .4371 24.65 -76.1)"/><use xlink:href="#aZ" width="86.8" height="42.3" transform="matrix(-.2261 .0387 -.0495 .4429 40.1 -79.5)"/><use xlink:href="#ba" width="17.6" height="59.8" transform="matrix(-.3856 .0322 -.1578 .434 27.05 -71.9)"/><use xlink:href="#bb" width="8.9" height="24.2" transform="matrix(.9528 -.0541 .0258 .9456 13.2 -51.95)"/><use xlink:href="#bb" width="8.9" height="24.2" transform="matrix(.8956 .0233 -.0529 .935 15.55 -70.55)"/><use xlink:href="#aX" width="8.9" height="24.2" transform="matrix(.7889 .0201 -.0461 .8236 17.1 -86.55)"/><use xlink:href="#bb" width="8.9" height="24.2" transform="matrix(.69 .0185 -.0227 .6869 18.3 -99.7)"/><use xlink:href="#aX" width="8.9" height="24.2" transform="matrix(.69 .0185 -.0437 .6864 19.35 -112.8)"/><use xlink:href="#aW" width="8.9" height="24.2" transform="matrix(.6575 .0176 -.0217 .6546 19.85 -125.65)"/><use xlink:href="#aX" width="8.9" height="24.2" transform="matrix(.6179 .0327 -.0384 .6456 21 -138.35)"/><use xlink:href="#aX" width="8.9" height="24.2" transform="matrix(.5443 .0284 -.0335 .5687 22.1 -149.35)"/><use xlink:href="#aX" width="8.9" height="24.2" transform="matrix(.5282 .0268 -.045 .5518 23.2 -160.25)"/><use xlink:href="#bb" width="8.9" height="24.2" transform="matrix(.462 .0241 -.027 .4605 24.3 -168.95)"/><use xlink:href="#aX" width="8.9" height="24.2" transform="matrix(.462 .0241 -.0411 .4598 25.1 -177.75)"/><use xlink:href="#aX" width="8.9" height="24.2" transform="matrix(.4399 .0229 -.0328 .4389 25.85 -186.35)"/><use xlink:href="#aX" width="8.9" height="24.2" transform="matrix(.4118 .0324 -.0583 .4326 27.4 -194.8)"/><use xlink:href="#bc" width="8.8" height="64.6" transform="matrix(-.0342 .7418 .128 .1111 16.65 -159)"/><use xlink:href="#aX" width="8.9" height="24.2" transform="matrix(.3618 .0283 -.0632 .3811 29 -202.2)"/><use xlink:href="#aX" width="8.9" height="24.2" transform="matrix(.3353 .0143 -.0673 .352 30.5 -208.95)"/><use xlink:href="#aX" width="8.9" height="24.2" transform="matrix(.2929 .0129 -.0563 .2937 31.95 -214.5)"/><use xlink:href="#aX" width="8.9" height="24.2" transform="matrix(.2925 .0129 -.074 .2933 33.45 -220.15)"/><use xlink:href="#aX" width="8.9" height="24.2" transform="matrix(.2784 .0123 -.0693 .2799 34.9 -225.6)"/><use xlink:href="#aX" width="8.9" height="24.2" transform="matrix(.2579 .0185 -.1092 .2759 37.45 -231.05)"/><use xlink:href="#aX" width="8.9" height="24.2" transform="matrix(.2272 .0161 -.0961 .2431 39.4 -235.8)"/><use xlink:href="#bc" width="8.8" height="64.6" transform="matrix(.3235 .2676 -.2382 .1691 40.75 -204.9)"/><use xlink:href="#bc" width="8.8" height="64.6" transform="matrix(.214 .2087 -.1284 .2068 46.3 -248.6)"/><use xlink:href="#bd" width="65.6" height="18.2" transform="matrix(.6261 .3967 -.234 .8152 24.25 -83.25)"/><use xlink:href="#be" width="86.8" height="42.3" transform="matrix(-.2584 .1988 .2384 .5729 41.45 -97.8)"/><use xlink:href="#bf" width="17.6" height="59.8" transform="matrix(-.4635 .2977 .096 .6346 30.2 -79.8)"/><use xlink:href="#bg" width="19.6" height="59.1" transform="matrix(.3183 -.0278 -.0921 .3918 36.55 -202.75)"/><use xlink:href="#bh" width="66.6" height="28.7" transform="matrix(.2327 .185 -.0072 .3072 40 -206.65)"/><use xlink:href="#bi" width="65.1" height="23.9" transform="matrix(.1197 .2618 -.3018 .0015 43.2 -201.55)"/><use xlink:href="#bj" width="66.6" height="28.7" transform="matrix(.0757 .2612 -.5066 .6494 43.1 -207.7)"/><use xlink:href="#bk" width="39.5" height="51.2" transform="matrix(-.1219 .1877 .2935 .3687 45 -211.85)"/><use xlink:href="#bf" width="17.6" height="59.8" transform="matrix(.0907 .1416 -.1146 .1114 39.8 -207.35)"/><use xlink:href="#bd" width="65.6" height="18.2" transform="matrix(-.4485 .2559 .3411 .454 15.1 -160.85)"/><use xlink:href="#be" width="86.8" height="42.3" transform="matrix(.2503 .1012 -.0949 .3381 -1.8 -168.35)"/><use xlink:href="#bf" width="17.6" height="59.8" transform="matrix(.4385 .1479 .0345 .3665 10.8 -158.55)"/><use xlink:href="#bl" width="8.9" height="37.2" transform="matrix(-.3214 -.0485 -.0706 .3871 23 -4.95)"/><use xlink:href="#bm" width="32.2" height="76.2" transform="translate(-23.2 -61.5)"/><use xlink:href="#ao" width="8.9" height="5.3" transform="matrix(.5704 .3056 .0792 .4545 -6.75 -42)"/><use xlink:href="#ao" width="8.9" height="5.3" transform="matrix(-.6549 -.0002 .5518 -.6769 -10.1 -37.4)"/><use xlink:href="#am" width="10.6" height="7.2" transform="translate(-10.95 6.75)"/><use xlink:href="#bn" width="3.3" height="23.4" transform="translate(-9.5 -10.9)"/><use xlink:href="#bn" width="3.3" height="23.4" transform="rotate(1.037 1550.39 -530.589)scale(1 .7685)"/><use xlink:href="#bn" width="3.3" height="23.4" transform="matrix(.8123 -.0603 .0512 .6892 -10 -43.05)"/><use xlink:href="#ao" width="8.9" height="5.3" transform="matrix(.1493 -.3545 .8651 1.8679 1.55 -52.3)"/><use xlink:href="#bn" width="3.3" height="23.4" transform="matrix(.2846 .2739 -.4784 .4972 2.2 -54.25)"/><use xlink:href="#ao" width="8.9" height="5.3" transform="matrix(-1 .6517 0 .6939 -13.8 -51.05)"/><use xlink:href="#ao" width="8.9" height="5.3" transform="matrix(-.3678 .6749 .6272 -.1535 -15.35 -47.75)"/><use xlink:href="#ao" width="8.9" height="5.3" transform="matrix(-.8412 .1749 -.5379 .9343 -13.7 -53.8)"/><use xlink:href="#bn" width="3.3" height="23.4" transform="matrix(.1961 -.0885 .1546 .3426 -12.95 -50.15)"/><use xlink:href="#bo" width="8.9" height="5.3" transform="matrix(.6369 -.3653 .4962 .8651 -.2 -58.75)"/><use xlink:href="#bo" width="8.9" height="5.3" transform="rotate(59.612 51.137 -22.338)scale(.727)"/><use xlink:href="#bp" width="8.9" height="5.3" transform="matrix(-1 0 0 1 -12.8 -51.95)"/><use xlink:href="#ao" width="8.9" height="5.3" transform="rotate(120.388 6.745 -28.41)scale(.727 -.727)"/><use xlink:href="#bp" width="8.9" height="5.3" transform="matrix(-.8412 -.5379 -.5379 .8412 -12.7 -55.85)"/><use xlink:href="#ao" width="8.9" height="5.3" transform="matrix(-.514 .3538 .2843 .413 -11.35 -26.1)"/><use xlink:href="#bp" width="8.9" height="5.3" transform="matrix(-1.1257 0 0 .6904 -9.7 -27.55)"/><use xlink:href="#ao" width="8.9" height="5.3" transform="matrix(-.5808 -.3714 -.3714 .5808 -9.45 -29.55)"/><use xlink:href="#bp" width="8.9" height="5.3" transform="rotate(58.172 40.601 -34.179)scale(.9985)"/><use xlink:href="#bp" width="8.9" height="5.3" transform="matrix(-.3064 -.2339 2.0297 -.3698 -11.65 -49.15)"/></g></g></svg>