<svg xmlns="http://www.w3.org/2000/svg" xmlns:xlink="http://www.w3.org/1999/xlink" width="50" height="64" viewBox="0 0 50 64"><defs><radialGradient id="g" cx="0" cy="0" r="819.2" gradientTransform="matrix(.01 0 0 .01 .9 -28.35)" gradientUnits="userSpaceOnUse" spreadMethod="pad"><stop offset="0" stop-color="#3e4811"/><stop offset="1" stop-color="#454f1a" stop-opacity="0"/></radialGradient><radialGradient id="f" cx="0" cy="0" r="819.2" gradientTransform="matrix(.01 0 0 .01 .3 -21.9)" gradientUnits="userSpaceOnUse" spreadMethod="pad"><stop offset="0" stop-color="#3e4811"/><stop offset="1" stop-color="#454f1a" stop-opacity="0"/></radialGradient><radialGradient id="e" cx="0" cy="0" r="819.2" gradientTransform="matrix(.01 0 0 .01 1.3 -15.85)" gradientUnits="userSpaceOnUse" spreadMethod="pad"><stop offset="0" stop-color="#3e4811"/><stop offset="1" stop-color="#454f1a" stop-opacity="0"/></radialGradient><radialGradient id="d" cx="0" cy="0" r="819.2" gradientTransform="matrix(.02 0 0 .01 -.15 -7.55)" gradientUnits="userSpaceOnUse" spreadMethod="pad"><stop offset="0" stop-color="#3e4811"/><stop offset="1" stop-color="#454f1a" stop-opacity="0"/></radialGradient><radialGradient id="c" cx="0" cy="0" r="819.2" gradientTransform="matrix(-.02 0 0 .01 .15 -.95)" gradientUnits="userSpaceOnUse" spreadMethod="pad"><stop offset="0" stop-color="#3e4811"/><stop offset="1" stop-color="#454f1a" stop-opacity="0"/></radialGradient><radialGradient id="b" cx="0" cy="0" r="819.2" gradientTransform="matrix(.03 0 0 .02 2.45 1.65)" gradientUnits="userSpaceOnUse" spreadMethod="pad"><stop offset="0" stop-color="#3e4811"/><stop offset="1" stop-color="#454f1a" stop-opacity="0"/></radialGradient><clipPath id="h"><path d="M1 1h48v62H1z"/></clipPath><path id="a" fill="#fff" d="M15.5 1.9Q16.1.6 17 .1l.4-.1.7.2q2.6 1 2.6 4-.6 5.3-1.2 6.1L16 11.7q-.4-1-.8-1-1.1 1-1.8 1-1.1 0-1.1-1.3 0-1 1.3-2.2t1.8-3.3q-.5-1.6.1-2.9m-4.1 11.9h.3l1 .1q1.4.2 1.4.9 0 .8-1 1.5t-2.2.7q-2 0-2-1.5 0-1.2 2.4-1.7m3 13.9q0 1.4-2.7 1.4-2.4 0-2.4-1.7 0-1.2 1-1.2h.4l1-.2q2.7 0 2.7 1.7m-7.8 4.4q0 2-1.5 2-2.7 0-2.7-2.3 0-.6 1.1-1.6L5 29.1q1.5.3 1.5 3M8 43.3q0-.7.8-1.3.5-.4 1.2-.6l.6-.1.4-.2.8-.1 1.4.5q1 .5 1 1.4 0 .4-.7 1.1-.8.9-2 .9Q8 44.8 8 43.4m-5-4.7h.6q1.4 0 1.4.6 0 1.4-2.2 1.4-1.7 0-1.7-.8 0-1.1 1.9-1.2M.9 42.6H2q1.5 0 1.5 1-.5 1.6-1.8 1.6Q0 45.2 0 44t.9-1.4m2.9 6q-2.3 0-2.3-1 0-1.5 2.8-1.5l.1.1.8-.4q1.5 0 1.5 1.4t-2.9 1.4m5 1.2.9.1q2.2.3 2.2 1.4 0 1.6-2.2 1.6l-2.1-.6Q6 51.8 6 51.5q0-1.1 2.8-1.7"/><use xlink:href="#a" id="j" width="20.7" height="52.9"/><g id="i"><path fill="url(#b)" d="M-2.5-10.6Q11.3-7 24.7-2q.6.6 0 2t-2.9 1.4q1.6.3 2.9 1.3.6 1.3-.4 3-.8.7-2.4 1l-5-.1q1 1.5.7 3.6-.5.8-2.1 1.4l-2.8.3q-3.1-.7-5.4-2.7.2 1.1-.7 2.1-1 0-1.3-.7Q3.2 12 0 12.9q-1.2.3-2.3-.5-1.1-.7-1.4-2.2-2.2 1.6-5.2 2.2-1.9 0-1.9-2.2.2-1.6-.7-2.8-1.2-1-3.2-1.5l-3.5-.4q-2 0-.3-2.1l.8-1.3q.9-.7.4-1.2-1.6-1.4-4.9-2 2.2-4.2 7.3-6.5t12.3-3" transform="translate(22.05 48.35)"/><path fill="#57661a" d="M11.9 40.4q-.1.9-1 2.2T9.4 44q3.9.7 5.3-2h.2q.3 1.1-.8 2.7t-2.8 2.6q1 .5 4.8-1.3.3-1.1 0 1.1t-1.7 5.3l.4.8q3.7-3 4.5-5.8l2.2 4.9-.2-.7.2-4.1.5-.2.5 1q1 2.2 3.6 2.8-1-1.9-1.3-3l.7-.6h.6q2.6 2.1 5.4 3l-1.7-1.4-.6-.6q0-1.2 2.8-1.2h.5l4.1 1.1Q30 46 31.7 45.1q3.2.4 8.7.1-3.5-.8-4.9-1.6Q34 43 33 41.5T32 39h1.6q.9 3.7 8 5.6l.3.1.7.2.9.9q0 .5-1 .5h-6.2q-1.1 0-2 .4v.1l4.3 1 .6.2h.1l.8.6.2.1 1.5 1.3q-1.6.8-2.5 1.9-6.7-3-7.7-3l3.5 2h.1v.1l-1.5-.4 1.5 1.2v.8l.9 1.3-4.4 1.6-2-2.4-2.6-2.9.1.3q.5.8.5 1.6-.9 2.6-2.1 2.4l-1.8-1.2v.4l.2.9.1.5v.6l-1.6.8q-1.9 0-2.5-1.3l-1-2.9q-2.1 3.1-2 4.5h-1.6q-.4 0-.6-.4l-.6-.2q-.5 0-1.1-.7L12 54.3V54l-.3-1.4v-.2h-.1l.2-.6-.3.1-.1-1.2-.2-.7q-1.5.5-2.9 2.5Q6.9 51 6.5 51t-.3-.4 1.4-2l.4-.5h.1l1.6-1.6.3-.4.2-.1 1.3-.9-.3-.3L9 46.1h-.4l-2-.2-2.2-.4.5-1 .3-.1 1-.2.5-.3q3.5-1.7 5.2-3.5m11.7 11.8q-1.4-1.3-1.2-2.6l-.5.1q-.1 1.5.5 2.5v.1zm-15-2.5q2.8 0 5.4-1.1l-1-.5q-2 1-4.3 1.3z"/><path fill="#3a4310" d="M31.9 39q.1 1 1.1 2.5t2.4 2.2 4.9 1.6q-5.5.3-8.6-.1-1.8.9 4.8 3.3l-4.1-1-.4-.1h-.1q-2.8 0-2.8 1.3l.5.5 1.8 1.4q-2.7-.9-5.4-3h-.6l-.7.5q.3 1.3 1.3 3.1-2.6-.6-3.6-2.8l-.5-1-.5.2-.2 4 .2.8-2.2-5q-.8 3-4.4 5.9l-.6-.8q1.6-3 1.8-5.2.3-2.3 0-1.2-3.8 1.8-4.8 1.3 1.6-1 2.8-2.6 1.2-1.5.8-2.7h-.2q-1.4 2.7-5.2 2h-.1q.8-.1 1.7-1.5t.9-2.2q.8-.9 1.2-1.9z"/><path fill="#3e4811" d="m5 44.5-.6 1 2.2.4 2 .2H9l2.2-1.2.3.3-1.3.9-.2.1-.3.4L8 48l-.1.1-.4.4q-1.4 1.6-1.4 2.1t.3.4q.4 0 1.7 1.4 1.4-2 3-2.5l.1.7.1 1.2-3.2 1.5-3.5-2.5 3.2-2.7-3.6.3-.5-3.5zm6.6 7.9.1.2.3 1.4v.3l1.1 1.2q.6.6 1.1.6l.7.3q0 .4.5.4H17q-.1-1.4 2-4.5l1 2.9q.6 1.3 2.5 1.3l1.6-.7.4 1.9-4.4.6H20l-.8-3.3-2.2 2.6-6.7-2.4zm12.5 3v-.2l-.1-.5-.2-1v-.3l1.8 1.2q1.2.2 2.1-2.4 0-.8-.5-1.6v-.2l2.5 2.8 2 2.4 4.4-1.6-.9-1.3v-.8l2.5 2.2-6.2 2.7-3.2-2.9-.2 1.7-3.4.5zm11-4.4v-.1l-3.6-2q1 0 7.8 3 .8-1.1 2.5-2l-1.6-1.2 3.3 1.2-3.5 2.7zm4.1-3h-.1l-.6-.1-4.2-1.1-.1-.1q.9-.4 2-.4h6.2q1 0 1-.5l-.9-.9 2 .8v1.9z"/><path fill="#4b5816" d="m23.6 52.2-1.2.1v-.1q-.6-1-.5-2.5h.5q-.1 1.2 1.2 2.4m-15-2.4v-.4q2.4-.2 4.4-1.2l1 .5q-2.6 1.1-5.4 1.1"/><path fill="none" stroke="#000" stroke-linecap="round" stroke-linejoin="round" stroke-opacity=".3" stroke-width="__RESOLUTION__" d="M11.9 40.4q-1.7 1.8-5.2 3.5l-.5.3-1 .2-.3.1-1.2.5.6 3.5 3.6-.3-3.2 2.6 3.5 2.6 3.2-1.5m23.7 0-1.5-1.2 1.5.4h0l4.9 1.6 3.5-2.7-3.3-1.2-.2-.1-.8-.5 5.3-.5v-2l-2-.7-.7-.2h-.2q-7.2-2-8-5.7h-1.7M24 55.3l.6.7 3.4-.5.2-1.6 3.2 2.8 6.3-2.7-2.6-2.2m-23.6.6-1.3 2.9 6.7 2.3L19 55l.8 3.3h0l4.6-.6-.5-1.9h0" vector-effect="non-scaling-stroke"/><path fill="url(#c)" d="M.1-7q7.5 0 12.7 1.8T18-1t-5.2 4.4Q7.5 5.3.1 5.3t-12.5-1.8q-5.3-1.8-5.3-4.4t5.3-4.3Q-7.2-7 0-7" transform="translate(22.05 48.35)"/><path fill="#3e4811" d="M36 39.1h.1l1.4 1.1-2.5.4h-1.5l2.4 1.3-2.4-.7q-2.1-.9-4.2-1h-.4q2 1.4 3.8 1.8l-.7.1-2.5-.5-1.9-.8 1 3.2v.1q-1-1.1-1.7-2.2l-1 .7-.3-3.2.9-.4 1.8-1 4.6.4 1.8.4z"/><path fill="#63741d" d="m25.6 39.4.3 3.2 1-.7q.7 1.1 1.8 2.2l-.1-.1-1-3.2 1.9.8 2.5.5.6-.1q-1.7-.4-3.7-1.7h.4q2 0 4.2.9l2.4.7-2.4-1.3H35l2.5-.4-1.4-1V39l2 .6.6.2.1.1 1 1-2.5.3q-.6 0-1.7-.5h-.1l1.1 1.1.3.2.1.2.4.3q0 .9-1 1.5l-.9.4q-1.6-1-6.4-1.6.3 0 .6 1.1.4 1.3 2 2.4l-.2.6h-.3q-2 0-4.3-2.4l-1 .5q-.2 0-.6-1-.6-1.4-.6-3.3l.2-.8z"/><path fill="#434f13" d="m36 39.1-1.3-.3 6.1 1.1-.8 2.6-2.7-.2 1.5 1.1-2.8 2.3-4.6-2 1.6 3.1-1.5.2.2-.6q-1.6-1.1-2-2.4-.3-1-.6-1.1 4.8.6 6.4 1.6l.9-.4q1-.6 1-1.5l-.4-.3-.1-.2-.2-.2-1.2-1v-.1q1.1.5 1.8.5l2.5-.2-1-1.1-.1-.1-.5-.2zM25 40l-.1.8q0 1.9.4 3.3.5 1 .8 1l.9-.5q2.3 2.4 4.3 2.5l-3 .4-1.3-1.7-.2 1.2-3.2-.2v-3.1l-.2-1.4v-.9z"/><path fill="none" stroke="#000" stroke-linecap="round" stroke-linejoin="round" stroke-opacity=".3" stroke-width="__RESOLUTION__" d="m34.7 38.8-1.9-.4-4.5-.4-1.8 1-.9.4m-.7.6-1.6 1.4v1l.2 1.3v3.1l3.2.2.2-1.2 1.4 1.7 2.9-.4m.3-.1 1.5-.2-1.6-3.1 4.6 2 2.8-2.3-1.5-1.1 2.7.2.8-2.6-6.1-1.1" vector-effect="non-scaling-stroke"/><path fill="#63741d" d="m23.5 42.1.5.6.4.3.9.9.3.3v.2l.2.6.8.5q-.9.8-1.6 1l-.7-1.3q-1.6 0-2.4-.5l.4 2.6q0 1-.7 1l-1 .4q-.9-1.4-3-2.9.4 3.5-.8 3l-2.7-.3q-1.4.3-1-3h-.5q-2.2.6-3.3 1.5l-1.7-1.5 3-1.9H8.3L7 43.5l-.7-.9q-.3-.8.2-1.3l1.3-.5.4-.2 2.5-.6q-.6.6-2.5 1.1l-.1.1.9.1h.5l.4.3-2.3.6 3 .5 2.4-.4q-.3.9-.9 1.1l.6-.1-2.2 1.4 2.9.3 2.3-.2q-.1.3-.9.7l.4.1q.6 0 1.8-.4v.9l.5-1 .3-1 1.7 1.9-.5-1.7q.8 1 1.1 1l-.7-1.5.9-.8.9 1.4-.2-.9q1.3 1.4 2.6 1.4l-1.2-2.4 1.9 1.5z"/><path fill="#434f13" d="m25.6 44.2.3.3 1.6 1-2.1 1.5-2.3-1H23l-.1.1.2 2-3 1.3v-.1l-1.6-1.8-.3 2.1-6.1-.5v-2.8l-2.7 1.2h-.1l-3.6-2 3-1.2-2.1.2-2.2-3.2 6.3-1.2-2.5.5-.4.2-1.3.5q-.5.5-.2 1.4l.7.8 1.3.1h2.3l-3 1.9L9.3 47q1.1-.9 3.3-1.5h.5q-.4 3.3 1 3l2.7.3q1.2.5.8-3 2.1 1.6 3 2.9l1-.5q.6 0 .6-.9l-.2-2.6q.7.5 2.3.5l.8 1.3q.6-.2 1.5-1l-.8-.5-.1-.6z"/><path fill="#3e4811" d="m10.7 40 1.9-.3 9 .3 1.8 2.1.9 1.9-1.9-1.5 1.2 2.4q-1.4 0-2.6-1.4l.2.9-.9-1.4-1 .8.8 1.5q-.3 0-1.1-1l.6 1.7h-.1l-1.7-2-.3 1.1-.5 1v-.9q-1.2.4-1.7.4h-.6l.1-.1q.8-.4.8-.7l-2.2.2-3-.3 2.3-1.5-.6.2q.6-.2.9-1l-2.4.3-3-.5 2.3-.6-.4-.4-.5.1-.9-.1h.1q1.9-.6 2.5-1.2"/><path fill="none" stroke="#000" stroke-linecap="round" stroke-linejoin="round" stroke-opacity=".3" stroke-width="__RESOLUTION__" d="m25.6 44.2.3.3 1.6 1-2.1 1.5-2.3-1H23l-.1.1.2 2h0l-3 1.3v-.1l-1.6-1.8-.3 2.1h0l-6.1-.5v-2.8l-2.7 1.2h-.1l-3.6-2 3-1.2-2.1.2-2.2-3.2 6.3-1.2" vector-effect="non-scaling-stroke"/><path fill="#63741d" d="m36.7 32.7-.4.1.2.5.9-.1.4-.2.2-.3-.7-.3zM32 39.5v.9q-.2.2.1.8l-1.6 1q-.4.1-1.4-1.5-1.1-1.5-1.7-3v-.2l3 .5.8-3.3 3-.5 2-1.8-.9-1.1 3.6 1.2h.2q.1.9-.2 2l-1.1-.1-2.2.1 2.1.7.7.2.1.1.2.7-.6.7-3.2-.8.6.6.6.5.4.4.5.4q-.8 1.5-1.6 1.8l-1.1.9-1.4-1.8-1.4-1.4v.5l.4.7.1.5zm3.2-4 1.4.2.4-.4h-.1l-1.5-.2zm-4.2 4-.1-.2-.5.4-.2.5v.4l.2.7h.2q.3-.1.4-1zm4.7-1.2v-.4q-.7-1.7-2.3-1.5l-.2.8v.3q1.3 1.3 2.3 1z"/><path fill="#708321" d="m36.7 32.7.5-.3.8.3-.2.3-.4.2h-.9l-.1-.4zm-1.5 2.8.2-.4 1.5.3-.3.3zm-4.2 4v.9q-.1.8-.4.9h-.2l-.2-.6v-.5l.2-.5.5-.5zm4.8-1.2-.2.2q-1 .3-2.2-1l-.1-.1v-.2l.2-.9q1.6-.1 2.3 1.6z"/><path fill="#3f4a11" d="m32.1 39.6.5 2-3.2 1.1L28 40l-1-1.3-.8-1.7-.2-.5q-.7-1.6-1.2-3.6l6-2.5 4.2.8.3.1.9 1.1-2 1.8-3 .5-.8 3.3-3-.5v.2q.6 1.5 1.7 3 1 1.6 1.4 1.4l1.6-.9q-.3-.6-.1-.9v-.8z"/><path fill="#4a5715" d="M32.1 39.6v-.4l-.2-.5-.3-.7-.1-.5 1.4 1.4 1.4 1.8 1.1-.9q.8-.3 1.6-1.7l-.5-.5-.4-.4-.6-.5-.6-.6 3.2.8.6-.7-.2-.7-.1-.1-.6-.2 1.9-.6-.6-2q.1.8-.2 1.9l-1.1-.1-2.2.1 2.1.7h.5l1.3.2-1.1 1.9-1.4.1.1.1.7.5-3.6 3.3-1.7-1.4-.1-.1z"/><path fill="none" stroke="#000" stroke-linecap="round" stroke-linejoin="round" stroke-opacity=".3" stroke-width="__RESOLUTION__" d="m35.3 31.3-.3-.1-4.1-.8-6.1 2.5q.5 2 1.2 3.6l.2.5.9 1.7.9 1.3 1.4 2.6v.1l3.2-1-.5-2.1.3.1.1.2 1.6 1.4 3.7-3.2-.7-.6v-.1l1.3-.1 1.1-1.9-1.3-.1m-2.9-4 3.6 1.2h.2l.6 2.1-2 .6" vector-effect="non-scaling-stroke"/><path fill="#718422" d="m10.5 32-.5.5-.3.6.8.2 1.8-.3q0 .6-1.7 3.2 3-2 3.8-3.4v1l1.7-1.7.9 1.1q1-1.5 1.2-2.7h.3v.2l.1 1.2q0 3.4-1.6 7.5v-1.6q-.7-3.5-1.1-4h-.1q-.4 2-4.3 4.9l.8-1.4 1.3-3.1-2.1 2.1q-1.5 1.4-2.7 1.4l1.1-1.5q1-1.3 1.1-2l-1.5 1Q8 36 7 36q-1.2.2-.4-1.6l.3-.2L9 33z"/><path fill="#3f4a11" d="M18.2 30.5q-.2 1.2-1.2 2.8L16 32l-1.7 1.8v-1.1q-.8 1.4-3.8 3.4 1.7-2.6 1.7-3.2l-1.8.3-.8-.2.3-.6.5-.5.2-.1 2.5-1.5z"/><path fill="#445113" d="m9 33-2 1.3-.3.3q-.3.3-.8.4l-.1.3.7 1.8 1.3-.4 1.2-.2-1 1-.4.6-.1.2q.1.5.4.5 1.9 0 3.3-1.6l-.7 1.3-.2.3-.1.2-.2.2-.5.7-.1.3-.2.8-.7-.3 1-1.7-.4.2-.4.3h-.1l-1.7-1.1 1-.9-.3-.1-1.2.3-.3-1-.2-.2-.6-1.8zm7.5 8.4q.4 0 2-3.4.6-2.1.6-3.1l-.2-4.4h.8q.4 4.8-.3 7.5l-.4 1-.1.2-.4 2.3zM15.2 39h-.4l-2.7 3-1.6-.5q1-.4 3.3-2.1 1.6-1.4 1.7-3.2l-.3 2.6z"/><path fill="none" stroke="#000" stroke-linecap="round" stroke-linejoin="round" stroke-opacity=".3" stroke-width="__RESOLUTION__" d="M10.5 32 9 33l-3.6 1.7h-.1l.6 1.8.2.2.3 1h0l1.2-.3.4.1-1.1.9 1.7 1.1h0l.5-.3.4-.2-1 1.7.8.3 1.2.5 1.6.6 2.7-3h.4m3.7-8.6h.8q.4 4.8-.3 7.5l-.4 1-.1.2-.4 2.3-2-.1-1.9-.1.6-1.8" vector-effect="non-scaling-stroke"/><path fill="url(#d)" d="M14.8-7.5q-.1 2.8-4.5 4.9Q6-.7 0-.7t-10.5-2q-4.3-2-4.3-4.9 0-2.8 4.3-4.8 4.4-2 10.5-2t10.5 2 4.4 4.8" transform="translate(22.05 48.35)"/><path fill="#3f4a11" d="m13.9 34.9.3-.2.9-.7h.1l3.6-3.1 2.6.5 4.7.3q.4 1 1.3 1.8l2.4 2.5q-.7 0-.4.5l.3.5.4.5q-2-.6-2.9-1.1-1-.5-2.1-2V34l-.2.3q-.3.8-1.1 4.6v.1l-.6-3.8V35l-.3.9q-.2.9-1.6 2.1h-.1q1.4-2.8 1-3.4l-1 .8q-.7 1.3-2.2 2.1l.4-1-1.9.9-.1.1q2-2.4 2.4-3.5l-2 .4q-.6 0-1.8.6t-3.1.7z"/><path fill="#708321" d="m29.8 36 .3.3.1.2 1.2.9q-.1 1-1.3 1.6l-.6-.2-1.1-1 .4.9-1.1-.5v.1l1.3 1 .6.9-1.5.9-1-.9q-.5-.2-1.3-1.9l.3 1.4q-.5.7-.4 1.9l-2.3-.1-1 .1q-.2-1-1-2.4l-2.3 2.4-1.6-.8.8-.6.4-.6.5-.4h.1q1-1.2 1-1.9h-.1q-.6 1-1.8 1.1-1.1 0-1.6.5l-1 .6q-.7.2-.7-.3l-.9-1.2.8-.8.3-.4v-.1h-.1l.2-.2 1.3-1.1-2.2.6-1.4.4-.7-.2.5-.5q1.8-.2 3-.7 1.3-.6 1.8-.6l2-.4q-.3 1.1-2.3 3.5l.1-.1 2-1-.5 1.1q1.5-.8 2.3-2.1l.9-.8q.4.6-1 3.4h.1q1.4-1.2 1.6-2.1l.3-.9v.2l.6 3.8v-.1q.8-3.9 1.1-4.6l.2-.2v.3q1.1 1.5 2.1 2t2.9 1.1l-.5-.5-.2-.5q-.3-.5.4-.5m-1.7 3.5-2-2.2-.3.2L28 40zM25 37l-.1-1.1q-.4 0-.4.9 0 1.6.6 2.9.3-.4.7-.2l-.7-2zm-1.7 2.3q0-.6-.6-1.1l-.4 1.8q0 .4.8.6zm-5.2-4-.5-.4q-.1.5-.9 1.5-.7 1-1.2 1.3v.3l.2-.1q1.9-1.2 2.5-2.5z"/><path fill="#4a5715" d="m31.4 37.4.3.3-1.1 1.8-1.3-.2h-.2l1.3.9-2.6 1.4-1.7-1V42l-4.2.2-.5-1.7-.3.1-1 1.1-.9.5-2.5-1 1.6-2h-.4l-2.3 1-2.1-2 1.7-1.5-2.8.9-1.2-1.4.6-.2 2-1.1-.9.8-.5.5.7.1 1.4-.3 2.3-.6-1.4 1.1-.2.2.1.1-.3.4-.8.8.9 1.2q0 .5.7.3l1-.6q.4-.4 1.6-.5t1.8-1l.1-.1q0 .7-1 1.9h-.1l-.4.4-.5.6-.8.6 1.6.8 2.3-2.4q.8 1.4 1 2.4l1-.1h2.3q-.1-1.1.4-1.8l-.3-1.4q.8 1.8 1.3 1.9l1 .9 1.5-1-.6-.7v-.1l-1.3-1 1 .4-.3-1 1.1 1.1.6.3q1.2-.7 1.3-1.7"/><path fill="#859c27" d="m28.2 39.5-.2.5-2.2-2.5.3-.2zM25 37v.5l.8 2q-.4-.1-.7.2-.6-1.3-.6-3 0-.8.4-.8zm-1.7 2.3-.1 1.3H23q-.7-.2-.7-.6l.3-1.8q.6.5.6 1.1m-5.2-4v.1q-.5 1.3-2.4 2.5h-.1l-.1-.2q.5-.3 1.2-1.4.8-1 .9-1.4z"/><path fill="none" stroke="#000" stroke-linecap="round" stroke-linejoin="round" stroke-opacity=".3" stroke-width="__RESOLUTION__" d="m29.8 36 .3.3.1.2 1.2.9.3.3-1.1 1.8-1.3-.2h-.2l1.3.9-2.6 1.4-1.7-1V42l-4.2.2-.5-1.7-.3.1-1 1.1-.9.5-2.5-1 1.6-2h-.4l-2.3 1-2.1-2 1.7-1.5-2.8.9-1.2-1.4.6-.2 2-1.1" vector-effect="non-scaling-stroke"/><path fill="#5f701d" d="m31 30.2-.5-.2-.1-5.1 5.2.4h.6l.4-.2.3.4.3.8-2.5 1-3 .3v.4q0 .9.3 1l.1.1zm4.9-1.1.3.2.5.3 2.2.9-1.1 1.5q-3.5-1.2-3.8-2.2v-.1z"/><path fill="#4b5816" d="m37.2 26.3.4 1.2-.7.6-2 .4 1 .5-1.9.6v.1q.3 1 3.8 2.2l-.1.2-.5.2-1.3-.3h-.4l-.1-.1-4.4-1.7 1.1-1.1H32q-.4-.2-.4-1.1l.1-.4 3-.2z"/><path fill="none" stroke="#000" stroke-linecap="round" stroke-linejoin="round" stroke-opacity=".3" stroke-width="__RESOLUTION__" d="m36.3 25.3.3-.2.3.4.3.8.4 1.2-.7.6-2 .4h0l1 .5.3.2.5.3 2.2.9-1.1 1.5-.1.2-.5.2-1.3-.3h-.4l-.1-.1" vector-effect="non-scaling-stroke"/><path fill="#5f701d" d="M15.5 26.5h1l-.2 4.2-5 1.7h-.2l-1.7.3v-1q0-.7 3.6-1.8l-1-.4-.4-.3q-1 .3-2.1 0l-.2-1.5q.8-.3 1.5-.8h.1l-.2.4q0 1.2 3.1 1.2.4 0 1-.6t.7-1.3z"/><path fill="#4b5816" d="m9.4 32.7-.7.3v-.1l-.1-.4-.2-1.5 2-.8.7-.3.9-.4 1 .4Q9.5 31 9.5 31.8z"/><path fill="#738723" d="M10.9 26.9h.3l.1-.1h.2l.3-.1 3.7-.2q0 .8-.6 1.4t-1.1.6q-3.1 0-3.1-1.2z"/><path fill="none" stroke="#000" stroke-linecap="round" stroke-linejoin="round" stroke-opacity=".3" stroke-width="__RESOLUTION__" d="m9.4 32.7-.7.3v-.1l-.1-.4-.2-1.5 2-.8.7-.3.9-.4-.4-.3q-1 .3-2.1 0l-.2-1.5q.8-.3 1.5-.8h.4l.1-.1h.2l.3-.1 3.7-.2" vector-effect="non-scaling-stroke"/><path fill="url(#e)" d="M9.7-21.7q3.5 2.4 3.5 5.9t-3.5 6-8.3 2.5q-5 0-8.5-2.5-3.5-2.4-3.5-6 0-3.5 3.5-6 3.5-2.4 8.5-2.4t8.3 2.4" transform="translate(22.05 48.35)"/><path fill="#515f18" d="M27.9 18.6q.2 3.1 1.4 5h-.1q-.7-.5-1.3-1.4-1-1.5-1-3.8v-.2zm-2.1-.7q-.3 1.2-.3 3.3l.3 3-.8-1.5-1.1-2.4q0 1.6.5 4.6l-.1.6-1.6-3.4h-.1l-.5 2.3v-.2L22 23l.3-4.8 2-.5h.2zm-5.9.8q-.9 1.4-2.4 2.4V21l1.7-2.1z"/><path fill="#708321" d="M26.9 18.2v.2q0 2.3 1 3.9.6.8 1.3 1.3h.1q-1.2-1.9-1.4-5l1.9 1.4q1.1 2.7 2.7 4.9h-1l-2.6-.5q-1.5-.6-2.5-1.4v.4q-.1 1.2 1 2.9h-.3q-2-1-2-1.5l-.1.1-.2 1.9q-.2.8-1.1.8-1.1 0-1.7-1.6-.6-2.1-1.1-3.2l-.7 1H20v-3.4q-2 2.2-3.4 2.2-.4 0-.4-.7l.6-1.5.4-.5.8-.7 1.2-.3-1.7 2.1v.1q1.5-1 2.4-2.4l2.4-.5L22 23v1.2l.1.2.5-2.2V22l1.7 3.4v-.6q-.4-3-.4-4.6l1.1 2.4.8 1.5-.3-3q0-2.1.3-3.3zm5.8 12.2.1.2-.4.2 1 1.2q-.2.6-.6.6L31 32q-.3 0-.7 1h-.1l-.5.2.4.6v.3-.1l.3.4-1.4 1.1-.4-.2.1-.1.2-1.2v-1.7l1-.5 1-1-1.5-2.6-1-1.7 2.9 2.6zm-9.4-.4-1.1.3L22 29l-.5-2.4.3-.3.3 2.1q.4 1.3 1.1 1.5z"/><path fill="#859c27" d="m16.8 20.4-.6 1.5q0 .7.4.7 1.4 0 3.4-2.2v3.5h.2l.7-1v-.1q.6 1.1 1.1 3.3.6 1.5 1.7 1.5.9 0 1-.8l.3-1.9v-.1q.2.4 2.1 1.5h.4q-1.2-1.7-1.1-2.9V23q1 .8 2.5 1.4l2.7.6 1-.1.5.7q-1.2.6-1.9.3l-.1.7 2.7 1.7q.7 0 .7-.8l-.1-.5.6.7.5.4-.6 1.4q-.5.3-1.4.3l-2-1.1q-.2 0-.2.4l-2.9-2.6 1 1.8v.1l.5 1.6q-1 .6-1.6.7l-1.1-1.2q.5 2 0 2.3l-2.3.9q-.5-1.1-2-1.7l1 1.3-.2-.1.2.2.3.4v.1l.7 2.4-1 .4H23l-.1.1q-.8.4-1.5-2l-1.2-3.3v-.9.1l-.2.1v.4q-.2 1.9-1.1 3.1l-1 2.2-2-.6.2-.1.6-2.5.3-.3.1-.3H17v-.2l1-2.3h-.1l-4 3.2-1.3-.9.4-.2.3-.1q.3 0 .4-.2v-.1l-.2.2.2-.2 1.9-1.3.3-.2 1.3-2.1q-1.3 1.5-3.5 1.5-.4 0-1-1.2l-.1-.2.1.1h.1l.3-.4.6-.7.1-.1.3-.3 2.2-1.9-2 1.1-.7.6q-.6-.6-.5-1.6h.1l.3-.1.4-.6-.2.7v.3l1.5-.5q.5-1.3.5-1.7 0-.6-.2-.6zM30 25.9v-.2l-1.2-.3q-1-.2-1.5-1h-.1q.4 1.5 2.9 2.1zm-2 1.2-.8 1 .7.1.3 1 .8-.1v-.8zm-1.9 1.6-1 .9-.9-.4-.7.9 1 1.3 1.1-.3q.7-.3.7-1.5zm-3 1.3-.1-.1q-.7-.2-1.2-1.5l-.2-2.1-.3.3.5 2.4.2 1.3zm0 4 .6-.5.1-.3q0-.4-1-1.6l-1.2-1.2v.3l.2 1.8q.3 1.5 1.4 1.5M20 25l-2 1.4-.6 2 .8.2v-.2l1.1-1.8.6-.6zm0 4.3.6-1.3-.7.1zm-6-2.7-.5.5q0 1 .3 1l1.4-.1 1.8-2.2.6-1.9-2 2-1.2.7zm4.9 3.9-.1-1-1.3 1.8-.5 2.3h.4q1.5-2.5 1.5-3.1"/><path fill="#99b52d" d="m33.1 25.6 1.2 1.2.1.2v.5q0 .8-.6.8l-2.7-1.7.1-.7q.7.3 1.9-.3m-19.2-2 .1-.2.2-.2.2-.3v-.1l1-1 .1-.1q.2 0 .2.6 0 .4-.5 1.7l-1.4.5zm16.3 2.3.1.2v.4q-2.5-.6-2.9-2.1.6.8 1.6 1l1.3.3zm-2 1.2 1 1.2v.8l-.8.1-.3-1-.7-.1zm-1.9 1.6.2.9q0 1.2-.7 1.4l-1 .4q-.2 0-1.1-1.3l.8-.9.8.4zm-3 5.3q-1.1 0-1.4-1.5l-.2-1.8v-.3l1.3 1.3q.9 1.1.9 1.5v.3zM20 25v.1l.1.9-.6.6-1.1 1.8v.2l-.7-.2.5-2zm0 4.3-.1-1.2.7-.1zm-6-2.8h.3l1.3-.6 2-2.1-.6 1.9-1.7 2.2-1.6.1q-.2 0-.2-1zm4.9 3.9q0 .6-1.5 3.1H17l.5-2.3 1.3-1.8z"/><path fill="#4b5816" d="M35.5 28.1v.1l.2.1.9.9-1.5 2.1H35l-1.1-.6-1-.2-.2-.1-1.4-1.3q0-.4.3-.4l1.9 1.1q.9 0 1.4-.3zM33.4 32l.5.4 1 .4.2.1-2.1 1.5-1-.2-1.5-1-.2-.2q.4-1 .7-1l1.8.6q.4 0 .6-.6m-3 2.4v.3l.6.3-2.4.9-.1-.1-.4-.2-.7-1.4-1.5.2-.5-.6q-.6-.2-1.2-.9l.3.5.1.3.1.3h.3l.2.4q-.1.1.5.8l-.5.5-.2.1-.2.2-2.8 1-.4-.6-1.8-4-.2.5v.1l-1.3 3-2.8-.4.4-.8 1.9.6 1-2.2q.9-1.2 1.1-3.1l.2.3 1.2 3.3q.7 2.4 1.5 2h.1l1-.1.9-.4-.7-2.4v-.1l-.3-.4-.2-.2.2.1-1-1.3q1.5.6 2 1.7l2.4-.9q.4-.2-.1-2.3l1 1.2q.8-.1 1.7-.7l-.5-1.6v-.1l1.5 2.6-1 .9-1 .5V34l-.1 1.2-.2.1.4.2zM17 31.8h-.1l-1 .2-1.9 1.4h-1.3l-1.2-1.2 1.1-.7 1.4.9 3.9-3.2-.9 2.3zm-3.3-1-.9-1.2-.2-.1-.8-1 .8-.8v-.3.2q.7 1.2 1 1.2 2.3 0 3.6-1.5l-1.3 2.1-.3.2zm.1-4.6h-.6l-.5-.1V26l-.2-1.4.2-.3.3-.1.1-.1q-.1 1 .5 1.6l.7-.6 2-1.1-2.3 2z"/><path fill="#90aa2b" d="M19.9 32.6v-.1m.1-2.3v-.4h.2v-.2.9z"/><path fill="none" stroke="#000" stroke-linecap="round" stroke-linejoin="round" stroke-opacity=".3" stroke-width="__RESOLUTION__" d="m33.1 25.6 1.2 1.2.1.2.6.7.5.4v.1h0l.2.1.9.9-1.5 2.1H35l-1.1-.6-1-.2h0l-.2-.1.1.2-.4.2 1 1.2.5.4h0l1 .4.2.1-2.1 1.5-1-.2-1.5-1-.2-.2h-.1 0l-.5.2.4.6v.3-.1l.3.4v.3l.6.3-2.4.9-.1-.1-.4-.2-.7-1.4-1.5.2-.5-.6q-.6-.2-1.2-.9l.3.5.1.3.1.3h.3l.2.4q-.1.1.5.8l-.5.5-.2.1-.2.2h0L22 37l-.4-.6-1.8-4m0 0-.2.5v.1l-1.3 3-2.8-.4.4-.8v-.1l.8-2.5.2-.3.1-.3h-.2l-1 .3-1.9 1.4h-1.3l-1.2-1.2 1.1-.7.4-.2.3-.1.2-.1h0l.2-.2v-.1l-.9-1.2-.2-.1-.8-1 .8-.8v-.3l.1.1h.1l.3-.4.6-.7.1-.1h-.6l-.5-.1V26l-.2-1.4.2-.3.3-.1.1-.1h.1l.3-.1.4-.6m-.4 7.6.3-.2h0q-.2.3-.6.3m3.9.5-.1.3" vector-effect="non-scaling-stroke"/><path fill="url(#f)" d="M8-17.7Q4.9-16.1.5-16.1q-4.6 0-7.8-1.6t-3.2-4.2q0-2.4 3.2-4t7.8-1.7q4.4 0 7.7 1.7 3.1 1.6 3.2 4-.1 2.4-3.2 4.2" transform="translate(22.05 48.35)"/><path fill="#798e24" d="M30 27.3v-.1q-.4-1.7-1.7-4.3l-.4-.2q0 1.3.7 3.2-2.6-2.1-2.8-2.7l.1 1q-2-4.8-1.9-6.1-.3 1-.2 1.6l-.1-.2-.4-3.4v-.9.2Q22.2 17 21.8 17q1-1 1-7.1l-.2-2.6h.1l1.7.4-.2-.5-.8-1L23 6l1.3-.1q1.3.8 2 2.8 0 2.1.4 4.3l-.7-.5v.1q0 1.9.9 4.1l1.3 3.3h.1l.2-.9h.3l1.1.4 1.7 2.7.6.8.3.5.5.5-.8.3q-.4 0-1.6-1.7l.1.6-2.7-1.8q.4 1.3.9 1.6l.5.8.4.9v.1l.2.4.3.7.1.4.2.5zm-13.2-.7q.8-1.6 2.1-2.9h.1l-1 .3q3.5-3.4 3.6-4.1v-.1.3q-1.4 3.3-1.6 4.7v-.2l-.1-.1v-.2h-.2l.5-1.7-1 .6.7.1-.7 1.3-.3.7-1 .9q-.9.5-1.1.4m5.1 1.9-.4-.6v-.2l2.1-.4-.2-1.9.2-.3q.4-1.4.3-2.3l-.3-1.7.7 3.1.4-1q0 1.1.2 1.9l-.1.2-.1.3-.6-.6v.2l.3 2.8-1.1.2-1 .3.1.1zm3.3-4.2-.1-.3v-.5l2.5 3 .2-.6q.4 1 .9 1.5h.8l-.7.7-.8-1-.6-.6-.4-.4-1.6-1.6zM18 21q2-1.4 3-3.5-.2 2.3-2.8 3.9z"/><path fill="#90aa2b" d="m23 6 .4.2.8 1 .2.5-1.7-.3-.1-.1.1 2.6q0 6.2-1 7.1h.1q.4 0 1.5-1.6v-.2 1l.4 3.3v.2L24 18q-.1 1.3 2 6.1l-.2-1q.2.6 2.8 2.7-.6-2-.7-3.2l.4.2q1.3 2.6 1.7 4.3v.1l-.3.1h-.8q-.6-.5-.9-1.5l-.1.6h-.1l-2.5-3v.5l.1.3h-.1l-.3.8-.1-1.9-.5 1-.7-3.1.3 1.7q.2 1-.3 2.3l-.2.3.2 1.9-2.1.4v.2l.4.6q-.8-.3-1.3-1.8l-.6-1.9q.3-1.4 1.6-4.7v-.3q-.1.8-3.6 4.2l1-.3q-1.4 1.4-2.2 2.9l-.2.1-1.4-.8.2-.4.3-.4.4-1.1 1.4-2.1-.3-.1-.4.2-.6.2h-1.7q-1.6.9-1.7-.5.8-.2 1.4-.9v.3q-1.1.8.4.7t3.2-1.6 2.4-4.3l.5-3 .5-3.3-1 2 .3-1-.7.5.1-1 .5-1.5q.5-1.6 1.3-2.1l.2-.1zm6.9 13.6-1.1-.5h-.3l-.2 1-.1-.1-1.3-3.3q-1-2.2-1-4.1v-.1l.8.5q.3 1.1 3.2 6.6m-7.3 1.1-.7 1-.4-.7q-.7 1.5-.7 3.5 0 .6.6 1.3 1.4-.8 1.4-2.2zM18 21l.2.4q2.6-1.6 2.8-4-1 2.2-3 3.6m1.9-.1-2.5 1.8-.9 1v.3q1.1-.4 3.4-3z"/><path fill="#5f701d" d="m30 27.3.6-.5-.2-.5-.1-.4 1 1.3-2.2 1.3q-2.2-1.9-4.2-2.5l.3 2.5-4.7.3-.6-4.2.2.2.4 1.9q.6 1.5 1.4 1.8l.5.1-.1-.1 1-.3 1.1-.2-.3-2.8V25l.6.6.1-.3.1-.2.3-.9.1.1.3.2 1.4 1.6.5.4.6.6.8 1 .7-.7h.3zm-.2-2.5-.4-.9-.5-.8q-.5-.3-.8-1.5l-.1-.1 2.6 1.8h.1v-.6q1.2 1.7 1.5 1.7l.8-.2V24v.2h.1l.2.7-1.3 1zm-15.7-4q-.6.7-1.4.9 0 1.4 1.7.6l1.7-.1.6-.2.4-.2.3.1L16 24l.5-1.1H15l-1.8.3H13l-.7-1.4L15 20l-.3.3zm1.5 4.3-.3.4-.2.4 1.4.8.1-.1h.1q.2.1 1-.4l1-.9.4-.7.7-1.3h-.7l1-.7-.5 1.8.2-.1v.2l-2.3 3.2-3-1.5z"/><path fill="#a6c431" d="m19.8 11.1.6-.5-.1 1 .9-2-.5 3.4-.5 2.9q-.7 2.7-2.4 4.3t-3.2 1.6-.4-.7v-.3l.6-.6.3-.2.1-.2q3.7-3.2 4.6-8.7m2.8 9.6.2 2.9q0 1.4-1.4 2.1-.6-.6-.6-1.2 0-2 .7-3.5l.4.7zm-2.7.2v.1q-2.3 2.6-3.4 3v-.3l.9-1z"/><path fill="none" stroke="#000" stroke-linecap="round" stroke-linejoin="round" stroke-opacity=".3" stroke-width="__RESOLUTION__" d="m30.3 25.9-.3-.6-.1-.5 2.1 1 1.3-1-.2-.6H33V24l-.5-.5-.2-.5-.7-.8-1.7-2.6q-3-5.5-3.2-6.6M16.1 24l-.4 1-1 1.2 2.9 1.5 2.3-3.2m10.4 1.4 1 1.3-2.2 1.3q-2.2-1.9-4.2-2.5l.3 2.5-4.7.3-.6-4.2M15.2 20l.1-.2q3.7-3.2 4.6-8.7M16.1 24l.5-1.1H15l-1.8.3h0-.1l-.7-1.4L15 20h0" vector-effect="non-scaling-stroke"/><path fill="url(#g)" d="M8.2-32.8q3 1.8 3 4.4t-3 4.5-7.2 2q-4.4 0-7.3-2-3-1.8-3-4.5 0-2.6 3-4.5T1-34.6t7.2 1.9" transform="translate(22.05 48.35)"/><path fill="#798e24" d="M26.3 4.6H26l.3.9-.1.1-.7.4q0 .5.7 2.8.8 2.3 1 2.3h.3q.9 2 1.2 2l.6.5.4-.4q.6.6 1.3 1l-.8.3q-1.3-.2-2.3-1.4l-1.5-2q.3 1.3 1.3 2.5.8 1 1.9 1.2h-.1l3.5 1.5.1 1-.6.1-2.2-.4-3-1.4h-.1.1l2.2 1.9-.5-.3 2.6 3-1.9 1.2q-2-2.7-3.5-5.2V16l.4-.5q-1.5-1.3-1.8-4.1l.6-.4q-.6-1.8-.6-4.6v-.2l-.1-.4v-.7l-.1-1.6.2-1.2-.7-.4-.9-.4-1.6.4.3-1 .9-.1 3.1.9V3z"/><path fill="#9fbb2f" d="m29.8 13.2-.4.4-.6-.5q-.3 0-1.2-2h-.4l-.9-2.3q-.7-2.3-.7-2.8l.6-.4.2-.1-.2-.9.3 1.4v.1l-.4.2 1.1 3.8.6-.3.2.3.4.9q.5 1.3 1.4 2.2M21.8 2l1.5-.4.9.4.7.4-.2 1.2.1 1.6v1.3q.1 2.8.7 4.6l-.6.4q.3 2.8 1.9 4l-.6.6-.7-1.4.4 1.9.2 1.4v.9l.4 2q-1.6.6-2.4.6H24q-.6-2-.6-3.7l.1-1.2q0-1.7-.2-1.9 0 3.3-.4 4.2l-1.1 2.6q-.2.5-1.6.5l-.2-.1.3-.6.7-3.5-.2.3V18l.4-3q-.5 2-3.3 5.5l-.4-.2.5-.7.5-1.2h-.1l.9-2.6q-.6 1-2.4 2.4-2 1.5-3 1.5l-1.2-1 .8-.2.5-.2.4.4 3-1.7 1-2-.8-.2v-.3l.2-.5 1.1-1 .1-.9V12l-1 1-.1.1-.7.6-.6.3 1.2-1.4 1.1-1.7.6-.2q.2.7-.3 1.8h.6q.6-1.4 1-3.4l1.1-.2v-.1l.8-4.2h-.9L21.1 7l-.9-.1zm2.1 8h-1.5v2h.6v-.9h1zm-1.1 3.4h-.7l-.1-1.7h-.7q-.6 0-.6.7l-1 2h-.6l-.2.7h1.4q.9-1.7.9-2.1l.3-.1.3 1.4q1.9-.2 1.5-1.4l-.4.1zm1.1 2.7-.1 1.5.4 2.9.7-.3-.5-4.3zm-2.1-.7h-.2q-.1 2.4-.9 5.1l.3.1.6-.4q.8-2.4 1-5z"/><path fill="#5f701d" d="m26.3 16.1 3.5 5.3 1.9-1.1.4.4-.7.9q-1.5.9-2.6 1-.4-1-1.3-1.9-1-.7-1.4-2.6l-.2-1.5-.4-1.9zm3.3 1.4-2.2-1.9 3 1.4 2.3.4.5-.1.1.6h-1.4zm.1-2.7q-1-.2-2-1.2-.9-1.2-1.2-2.5l1.5 2q1 1.2 2.3 1.4zm-6.9-1.5v-.4h.1l.4-.2q.4 1.3-1.6 1.5l-.2-1.4h-.3q0 .5-1 2.3L19 15l.1-.7h.6l1-2q0-.7.6-.7h.7l.1 1.8zm-2.9 8.6.3.1q1.4 0 1.6-.5l1-2.6q.5-1 .5-4.2.2.2.2 1.9l-.1 1.2q0 1.7.6 3.7h.1q.8 0 2.4-.5l.5 1.3h-1.3l-.7.2-1.1-.1-.6-4-1.7 4.2-1.9-.2zM18 13l1-1v1l-1.2 1zm-5.3 5.8 1.2.9q1 0 3-1.5 1.8-1.3 2.4-2.4l-.9 2.7-.7.5q-2.1 1.1-4.4 1.2l-1-1.3zm4.9 1.5.4.2q2.8-3.5 3.4-5.4l-.6 2.9-1.7 2.4-1 .8-1-.3z"/><path fill="#a6c431" d="m27.8 9.8-.6.3-1.1-3.8.4-.2.6 1.7z"/><path fill="#b1ce3e" d="M23.9 9.9v1.3h-.8l-.1 1h-.6V9.8zm0 6 .5-.1.5 4.3-.7.3-.4-2.9zm-3.6-9.1h.8l.7-2.3h.9l-.8 4.2-1.1.3q-.4 2-1 3.5l-.6-.1q.5-1.1.3-1.8l-.6.2.3-.5zm-2.6 7.9.8.3-1 1.9-3 1.7-.4-.4q2.5-1.7 3.5-3.3zm4.3.5.8-.2q-.2 2.6-1 5l-.7.4-.2-.1q.8-2.7.9-5.1z"/><path fill="none" stroke="#000" stroke-linecap="round" stroke-linejoin="round" stroke-opacity=".3" stroke-width="__RESOLUTION__" d="M26.3 4.6 26 3V1.8l-3.1-1-.9.3-.2.9-1.6 4.9-1 3.5-.2.5-1.2 1.7-1.2 1.4.5-.3.8-.6V13m13.8 7.3-2.6-3.1.4.3 2.4.4h1.4v-.6l-.1-1-3.7-1.6h.2m.6-.2.8-.4q-.7-.3-1.3-.9h0q-1-1-1.4-2.2l-.4-.9-.2-.3v-.1l-.7-1.9-.6-1.7V6l-.2-1.4m.3 16.4-.6-2.1.1-.8q.4 1.9 1.4 2.6.9.9 1.3 1.9 1.1-.1 2.6-1l.7-.9-.4-.4M20 21.9l-.3.5 1.9.2 1.6-4.1.7 3.9h1.8l1.3-.1-.4-1.3m-8.8-7-.2.5v.3l-.1.2q-1 1.6-3.5 3.3l-.5.2-.8.3-.4.1 1 1.3q2.3-.1 4.4-1.2l.7-.5.1-.1-.5 1.2-.5.7-.4.6 1 .3.8-.8 1.9-2.3.2-.3-.7 3.4-.4.7" vector-effect="non-scaling-stroke"/><path fill="#c2e2e7" d="m25.6 13.2-.4-3 .1-.5-.4.2q-2 0-2.1-3.3.2 1.5 1.9 1.5l.8-.1.3-3.3q0-4.2-2.6-4.2h-1.8l.7-.5h.8l2 .2q1.9.1 2.2 1.9v.5l.5 4.2q.3 2.8.8 3.8.2.4 1.4 1.5l.8 1q-.4.4-1.1.4l-.7-.2h-.2l1.5 1v.1l1.7.6.6.3.2.2v.1q0 .8-.9.8l-1.6-.4q-.6 0-.9.4l.7.4q2 1.4 2 3.2l-.5.1q-1.6 0-3-2.4-1.9-3.6-2.8-4.5m-5.2 11.3q1.3 0 2 .5.8-1.2 1.1-1.3l.6.9 3.6-.2-.1-1v-.2q.8 0 1.9.9l.1.1.3.3q0 .4.6.7 0 .6-.9.6l-3.5-.9q-.9 0-2 1t-1.7 1L21 26l-.7-.9v-.4zm10-.9q1.1-.9 2.1-1.1h.1l.7.8q-.1.7-1.9.7-.6 0-1-.4m5.2 1 .1.1.5.1.5.2.1.6q0 .3-1.2 1.4-1.4 1.3-2 1.3l-2.1-.4q.5-.5 1.6-1.1l.6.4zm1 6.6.5-.4.4-.3q.7 0 1.3.6v.1l.2.2.1.4q0 .4-.6 1.3l.3.6q0 .3-.7.3-.8-.1-.8.4 0 .7.9.7h.1l.3.5.2.4v.1q0 .8-2.3.9l-2.4 1.4q-.9 0-1.4-1.4l-.8-.6q-.5-.2-.6-.6l-.1-.4 2.3 1 3-2.7-1.1-.3zm-15 0 4.8-.7-.2-2.1.3-.2 1.5 1.3 1.1-.6.1.4q0 1-.7 1.3l-1 .1-3.6 1.4q-.7 0-2.3-.7m5.8 12.8.5-.4-.3-.8 2 1.2 1.7-1 1.2-.6-.5-.4q1-.2 1-.6l.1-.5 1.9 1.8 2.8-2.9h.1l.6.3.1.2q0 .5-1.5 2-.2 1-2.4 1l-2.7.3q-1.4 1.8-2 1.6l-2.3-1zm5.7 1.4 3.5 1.4 1.5-1.1 1.5-1.1h.3l.4-.1q2.3 0 2.6 1.1-.4.6-1.6.9-2 .5-2 1l.4.4h.3l.4.4.1.2.2.1v.2q0 .3-1 .3l-2.8-.5q-3.1-.7-3.1-1.4t-.3-1l-.5-.5z"/><path fill="#f5faf8" d="M21.5.5h1.7q2.6 0 2.6 4.2L25.5 8l-.8.1q-1.7 0-1.9-1.5.1 3.3 2.1 3.3l.4-.2v.4l.3 3.1-.4-.3q-.8 0-1.2 1-.5 1.1-1.2 1.1-.9 0-1.2-.9l-.7-.8q-.6 1.3-1.5 1.3-.6 0-.5-.7 0-.8-.4-.8-1.6.7-2.1.7L16 13l1.5-1.6q1.3-1.4 1.8-2.8h.5q1.9 0 1.9-2-.3.5-1.6 1l-.5-.1q-.2-.1-.2-.8l.9-3.1.6-2zm3 42.8.1.3q0 .4-.7.4l-.7-.2-.5.4h-.2v.1l-.4 1q-.7.4-1.3.4l-2.3-.3q-1 0-2 1-1.1.9-2.1.9-.8 0-1.2-.3v-.1l-.1-.5-.1-.4v-.7q0-.7-.5-.7-2 1-3.2 1-.6 0-.8-.4l1.6-1.5.1-.3q0-1-1.7-1l-2.2.2q-1.8 0-1.8-1.2l.2-.3q.5-.5 2.2-.6H7l.8 1 1-.5.2.1.6.4-.4 1q2.4.4 4.6 1.8l1.5-1.6 2.8.5-.3.9 1.6.2 1.6.6q.5 0 .5-2.8.2.8.6.8l1.1-.2 1.1.4h.1zm-5-26.8.4-.3.3.4q0 .5-.6 1.4-.6 1-1.2 1l-.1-.1.6-1.2zm-6.8 1.9.3-.4q.5-.5 1.7-.8.6-.2 2.4-1.9h.6l.8.2h.2q0 1.3-2 2.6t-3.2 1.3q-.9 0-.9-.8zm4.3 4.4.3-.3.8.5 1-1.3.2.1v.6q0 .8-.9 1.6t-2 .9q-.6 0-.7-.7l.2-.2.2-.3h.1zm.3-.9-.2.4q-.3.3-.8.3l-2 .3-1.6-.8q0-.7.6-1h.1q.1.9.8.9 1.2 0 2.4-.6zm1.4 6.8.4.3h.1q.4.3.4.7 0 .8-1.4 1.4L17 31q-1 0-1.8.6t-1.1.5h-.6l-.1-.1-.5-.5-.1-.3.6-.7q.6-.3.6-.5-1-1.2-1-1.7t.7-.8l.7-.1 1 .3-.7 1 1.2.4q.7.2 2.1 1.2l.6-1.2zm-6.8 6.6-.2.1-1 .9.4.1.3.2.3.3.8 1 .7-.1.3.1-.2.5.2.5.2.1q-.5 1.3-2.1 1.3-1 0-1.2-1.2-.3-1.3-.9-1.3l-.7.1-.5-.1q.7-.5.7-1l-.1-.5V36q0-.7-1-.7l-.7.2q-1.5 0-1.7-1 .3-2 2.9-2.5l-.1-.5q0-.7.5-1.1l.5 2.9.9-.3zm-5.5 11 .2.1q.2 1-1.7 1-.7 0-1.2-.5l-.1-.3v-.4q.1-1.3 1.8-1.7l.6 1.9zM7.7 48 9 49.7l2.2-.6 1.2.8h1.3q-.3.6-.9.6l-1.2-.4-3.9.9-1.5-.2-.7-1v-.1l1.3-1.1.8-.5z"/><path fill="#8dc8d0" d="M25.6 13.2q.9.9 2.9 4.5 1.3 2.4 2.9 2.4l.6-.1q0 1.1-1 1.1t-2-1L27.3 17q-1-1.4-1-2.1l-.2-.7-.4-.4-.7-.2q-.7 0-.7 1-.1 1-1 1t-1-.2l-1.1-1.3-1.2 1.2q-1 0-1.3-.5l-.2-1.4h-.1l-2.1 1q-.7 0-.7-.9l.4-.4.4.7q.5 0 2-.7.5 0 .5.8-.1.7.5.7.9 0 1.5-1.3l.7.8q.3.9 1.2.9.7 0 1.1-1 .5-1.1 1.3-1.1zm4.3 3.6-.7-.4q.3-.4.9-.4l1.6.4q.9 0 .9-.7v-.2l.4 1q0 .7-.7.7zm.3-2.4-1.5-1 .1-.1.8.2q.8 0 1-.4l.2.5q0 .6-.6.8m-4.9 5.9q-.1.7-.8.7-.3 0-1.1-2.1l.5.4q.6 1 1.1 1zM23 18.9q-.6 2.8-1.6 2.8-.4 0-.4-.7l.4-.1q.3-.2 1-1.4zm7.5 6.3.3.8q0 1-.9 1t-2.1-.8l-1.7-.9q-1.2 0-1.9 1.4t-1.7 1.4-1.8-1.8l-.4-.8v-.3l.6.9 1.5.8q.6 0 1.7-1t2-1l3.5.9q.9 0 .9-.6m-.7-2.4q.2.5.6.8t1 .4q1.8 0 1.9-.7l.1.4q0 1-1 1-.4 0-1.5-.5l-.7-.4q-.6-.4-.6-.7zm1.7 5.2 2 .4q.8 0 2.1-1.2t1.3-1.5l-.1-.6q.7.3.7 1L36 27.7q0 .9-.5 1.1l-1.6.3-1.8-.5-.9-.4q-.6-.4-.6-.7l.1-.2zm7.5 3.6.4.8-.4.9.4.9-1 .8-.1.1v.2h-.1q-.9 0-.9-.7 0-.5.8-.5.6 0 .6-.2l-.2-.6q.6-.9.6-1.3zm-.1 4.8.3.4q0 .7-1.2.6t-1.3.8q-.5 1.4-2.3 1.4-2 0-2-1.7l-.6-.9q-.4-.4-.6-1 .2.4.7.6l.9.6q.5 1.4 1.3 1.4l2.4-1.4q2.4 0 2.4-.9m-10.3-8 .8.6q.3.4.3 1.3t-1.6 1L27 32q-1 .8-2.9.8-2.4 0-2.5-1.4 1.6.7 2.3.7l3.6-1.4 1-.1q.7-.3.7-1.4V29zm.8 9.1.3.6q-1.9 1.8-2.3 1.8-1.2 0-2 .6t-1.7.6l-2.7-.8q-1 0-1.6.4t-1.4.5q-.9 0-1-.9t-.5-1l-.7.3h-.2q-1-.1-1-.7h.4l1-.1q.6 0 1.1 1t.9.9q.2 0 .9-.6t1.5-.7l3.2.8q5.1-1.9 5.8-2.7m-3.5 5.7q.2.4 1.2 1l.3.1.3.2 2.3 1q.6.2 2-1.6l2.7-.3q2.1 0 2.4-1 1.5-1.5 1.5-2v-.2q.4.2.4.6t-.8.8-.8.9l.1.5q0 1.1-2.7 1.1l-1.4-.1q-1.2 0-1.4 1-.2 1.1-1.8 1.1-.3 0-1.9-1-2.6-.6-2.6-1.4zm-3.3 1.1.5-.5.7.3q.7 0 .7-.4v-.4l.5.9q0 .5-1 .5zM4.4 41.3q0 1.3 1.8 1.3l2.2-.1q1.7 0 1.7.9l-.1.3q-.1-.4-.5-.4l-1.4.1q-3.8.1-3.8-1.6zm4 3.8q.3.4.8.4 1.3 0 3.3-1 .5 0 .5.7h-.4q-2 .9-3 .9-1.4 0-1.4-.7zM13 47q.4.3 1.2.3 1 0 2-1 1.1-.9 2-.9l2.4.3q.6 0 1.3-.4l.4-1 .2 1.3q0 1-1.3 1l-3.1-.5-1.1 1q-.6 1.1-1.5 1.1-1.9 0-2.5-1.2m2.3 3.8h-1.8l-.9.1q-.5-.3-1-.3-1.9 1-3.1 1-3.2 0-3.2-1.6l.1-.1.8.9 1.4.2 3.9-.9 1.2.4q.6 0 .8-.5 1.5.1 1.8.8m20.2.8.1.6q0 1.5-2 1.5l-5-1q-3 1.7-5 1.7-.7-.3-.7-.8l.1-.1q.4 0 1 .3 1.4 0 3-.8 1.4-.9 2.1-.9l2.2.5 2.1.4q1.8 0 2.1-1.4m-12 3.2-.5.8q-.7.8-1.3.8-.9 0-1.7-1.4-.9-1.5-1.2-1.5-2.2 2.2-3.8 2.2-4.8 0-4.8-2.5l.3-.7q.2 2.5 3 2.5H15q2.7 0 3.8-2.4.7 0 1.6 1.6t1.3 1.6h.7zm9.5-9.3v.4l.4.5q.3.3.3 1t3.1 1.4l2.8.5q1 0 1-.3h.1l.2.3q0 .9-1.7.9l-3.4-1q-3-1.1-3-1.7l.4-.6q-.5-.7-.5-1.1l.1-.2zm9.7.4v.5q0 .5-1.1.9l-2 .7h-.1l-.4-.2q0-.5 2-1.1 1.2-.3 1.6-.9M18.6 15.5q.4.3.6 1.1l.2-.1-.5 1.2h-.1v-.3q-3.8 2.5-5.2 2.5-1.2 0-1.2-.9l.2-.6-.1.2q0 .8 1 .8 1.2 0 3.1-1.3t2-2.6m1.1.7.6-.2q.4 0 .4.7 0 .5-.3 1l-.4.4q-1.3 1.6-1.8 1.6-.3 0-.3-.2l.3-.6.1.2q.6 0 1.3-1.1.4-.9.4-1.3zm-3 6.6-.4-.1-2.5.4q-1.4 0-1.4-1l1.7.8 1.9-.3q.4 0 .8-.3l.2-.4.1.1.4-.1-.5.6zm-1.2 1.4q0 .6.8.6 1 0 2-.8.8-.8.8-1.6v-.6l.2.6q.4.8.4 1.3t-.6.9l-.4.3q-1 .7-2 .7-1.4 0-1.4-.8zM13.3 32h.6q.3 0 1-.5.9-.6 1.8-.6l1.3.1q1.4-.6 1.4-1.4 0-.4-.3-.6.8.4.8 1.4 0 1.4-.8 1.4l-2.1-.4-2.8 1-.5-.1zm-.7 2.3.3.2.2.2-2.1 1.6-.3-.1.9-.9.2-.1q.7-.5.8-.9m1 4.6.3.3q0 .5-1 1.1-.8.6-1.5.6-.3 0-.9-.5l-.5-.9q0-1.2-.8-1.2h-1q-.5 0-.5-.4l.5-.2.5.1.7-.1q.6 0 .8 1.3.4 1.2 1.3 1.2 1.6 0 2-1.3m-4.7-2.7q-.2-.4-.7-.4l-1.7.5q-1.1 0-1.1-1.3v-.5q.3 1 1.8 1l.7-.2q1 0 1 .8m1.9-6.1q1 0 1 .7 0 .8-1 1.6 0 .3.5.9-.8-.6-.8-1 .8-.8.8-1.3zm4.9 5.6.5.2.6.5q0 .8-1.2 1h-.8l-2-.6-.1-.4q.7.5 1.7.5 1.7 0 1.7-.7zm-9.2 8.9q.3.1.3.5T6 46l-.1-.4q.5-.7.5-1.2m.2 2q.6.3.6.6l-.1.4q-.3.5-1.6.5-1.6 0-1.8-1 .5.6 1.2.6 1.9 0 1.7-1.1"/><path fill="#d9edf0" d="m19.6 7.6.4.2q1.4-.5 1.7-1.2 0 2.2-1.9 2.2l-.6-.1.3-.3z"/><path fill="#dceff1" d="M21 21v-.3q.1-.8.7-2l.9-1.6q.3-.7.8-.7t1.2 1.3l.6 1.8v.7l-.3.1q-.5 0-1.1-1l-.6-.4-.1-.4-.1.4-.6.6q-.7 1.2-1 1.4zm-5.6 17q.8.7 4.4.7l.6-1 1.4 1.5 4-1L25 37l2-.5.3.9L29 37l.3.4q-.7.8-5.8 2.6l-3.2-.7q-.8 0-1.5.7t-1 .6-.8-1q-.5-1-1-1l-1 .4-.4-.1.2-.4zm6 4.1q0 2.8-.5 2.8l-1.6-.6-1.6-.2.3-.9-2.8-.5-1.5 1.5Q11.5 43 9 42.6l.4-1 .3.1q1.5 1 2.2.9t1.2-.8l.8-.7h.1q-.2.9.4.9l.7-.4 3.4 1.2q.6 0 1.2-.7t1.1-.7l.4.4zM8.7 41l-1 .5-.8-1 .8-.1.7.5zm3.8 10q0 1.6.2 1.6h2l3.9-.4.3-1.2q1 0 2 1 .7-.6 2.5-.9 1.7-.2 2-.5-.8-.2-.8-1.1v-.1l1.3.4 2.4-2h.2q.5.8 1.8 1.8l1.4-.3 1.6-.2 1.8 1.5.5 1q-.3 1.4-2.1 1.4l-2.1-.4-2.2-.5q-.7 0-2.1.9-1.6.8-3 .8-.6-.3-1-.3l-.2.1q0 .5.8.9l-.1.3-1.3 1h-.7q-.4 0-1.3-1.5-.9-1.6-1.6-1.6-1.1 2.3-3.8 2.3h-1.2q-3 0-3-2.5l.3-.4.4-.5.2-.3.4-.2zM17 22.4l.5-.6 1-.4.1.1h.2l-1 1.4zM13.2 21l.7-.1h.2l.6-.1 1.7.4q-1.2.6-2.4.6-.7 0-.8-.8m5.4 7.5-.2.4-.6 1.2q-1.4-1-2.2-1.1l-1.1-.5.7-1 2.5.7zm-6 5.7q-.1.5-.8.9L10.1 33l-.9.3-.5-3h.1L10 30h.7l.5.9q0 .5-.8 1.4 0 .3.8.9l1.2 1zM5.4 44.5l.3-.1.4-.1h.1l.2.1q0 .5-.5 1.2l.1.4.2.1.2.2-.4.1zM7.7 48l.8-.2q1.3 0 2.4 1l.3.3-2.2.6z"/><path fill="#add8de" d="M20.4 24.5q.4-1.2 2.3-1.2l2.8.3 1.9-.5h.2v.3l.1 1-3.6.2-.6-1q-.3.1-1 1.4-.8-.5-2.1-.5m9.4-1.7q.3-.3 1.3-.7h.4l1 .4q-1 .3-2.1 1.1-.4-.3-.6-.9m5.8 2-1.9 2.5-.6-.4-1.6 1.1-.8-.6 1.2-.9.4-.2.3-.2.5-.6q.5-.8 1-.8zm-4.4 10.9q0-.6.8-.6l.8.1q.6 0 2.8-2.1l-.4-.4H35q-.4-.2-.4-.5t.6-.4h.9l.5-.4-1.2 2.3 1.1.3-3 2.7zm-9.6-4.3q0-1.4 1.3-1.4h.4q1.2 0 2.1-.8l.8-.6.2 2zm4.9-3 .6-.2 1.5.3.5.6-1.1.6zM15.4 38l2-.6q.7-.1 1.5-1.1.8-.8 1.4-.8l.6.9q.4.8 1 .8 2.4 0 4.6-1.7l1.6.9.7.5.3.1-1.7.4-.3-.9-2 .5.6 1.2-3.9 1-1.4-1.5-.6 1q-3.6 0-4.4-.7m10.5 5 .3-.4.6-.5.3-.1h.3l.2-.1.9.4q.5.4 1.3.4l1.9-.4h.3l.5.3-1.2.5-1.7 1.1-2-1.2.3.8-.5.4-.3-.1q-1-.6-1.2-1m7.2-2 .4-.1 1.4.4.6-.7q.7-.8 1.3-.8l1 .1-2.8 2.9zm-17.7 9.7h.7q2 0 2.6-.7l.5-.7.9.4 3.4-1.5-.1-.6v-.2h1.4l1.7.1.7-.5q.4 0 1 .6L26 49.9l-1.3-.4h-.1q0 1 .8 1.3-.3.2-2 .4-1.8.3-2.4 1-1-1.1-2.1-1.1-.1 1.1-.3 1.3l-3.9.3h-2q-.2 0-.2-1.6l.2-.1.5.3.4-.4zm13.1-3 1-.2q1.3 0 3.5 1.3l.3.2-1.5.2-1.5.3q-1.3-1-1.8-1.8m4.6-2.3.3-.1.5-.1 1-.1h1.5l3.2-.4-1.5 1.1-1.5 1.1zM13.3 35l.2-.2q.8-1 1.6-1l.5.4-1.3 1.5q-.5 0-1-.7"/><path fill="#e3f2f4" d="M13.2 35q.5.7 1 .7l1.3-1.5.1.5-.1.6.1.3.4.4q0 .7-1.7.7-1 0-1.7-.5V36z"/></g></defs><g clip-path="url(#h)"><g transform="translate(23.05 49.35)"><use xlink:href="#i" width="47" height="61.4" transform="translate(-22.05 -48.35)"/><use xlink:href="#j" width="20.7" height="52.9" filter="url(#filter-object-1)" transform="translate(-18.5 -47.2)"/></g></g></svg>