<svg xmlns="http://www.w3.org/2000/svg" xmlns:xlink="http://www.w3.org/1999/xlink" width="106" height="56" viewBox="0 0 106 56"><defs><clipPath id="a"><path d="M1 1h104v54H1z"/></clipPath><g id="b"><path fill="#fff" d="M14.4 14.4q1.2 1.4 3.4 2.5 6.2 3.2 14 3.2 4.5 0 14.2-1.7 9.3-1.6 14.4-1.5 8.1.1 15 3.7 6.1 3.1 7.6 6.8 1 2.6-.1 6.5-1.4 4.6-1.4 5.7 0 1.8 1.5 3.2l-9.2 4.8-.1-.1q-.2-1.9 0-8.4.3-5.6-.5-8.5Q72 26 68 24q-7-3.6-15.1-3.7-5.8 0-13.9 1.9l-6.4 1.6-5.8 1.3q-6.2.9-9.8-1t-4.8-5l-.8-2.7-.2-.5zM48.8 29q4.9 1.8 8.1 4.5L49 35.4l-6 1.3-1.5-.8 1-.1 3.1-.7q.9-.5 1.1-1.4l.1-1.6q0-2 2-3.2"/><path fill="#5e1018" d="M83 42.8q-1.5-1.4-1.5-3.2 0-1 1.4-5.7 1.1-3.9.1-6.5-1.5-3.7-7.5-6.8-7-3.6-15.1-3.7-5.1-.1-14.4 1.5-9.7 1.7-14.1 1.7-7.9 0-14.1-3.2-2.2-1.1-3.4-2.5l1.8-1q1.3 1.5 3.4 2.5 6.3 3.2 14.1 3.2 4.4 0 14.2-1.7Q57.2 16 62.3 16q8.1 0 15 3.6 6.1 3.1 7.6 6.8 1 2.7-.2 6.5-1.4 4.7-1.4 5.8.1 1.8 1.5 3.1zM11.3 16l.1.5.8 2.6q1.2 3.3 4.8 5.1 3.6 1.9 9.8 1l5.8-1.3 6.4-1.6q8.1-1.9 13.9-1.9 8.1.1 15 3.7 4 2 5.3 6.5.8 3 .5 8.5-.2 6.5 0 8.4L71.3 49q-.2-2 .1-8.2.3-5.7-.6-8.7-1.2-4.4-5.2-6.4-7-3.7-15.1-3.7-5.7 0-13.9 1.9l-6.4 1.6-5.7 1.2q-6.2 1-9.8-.9t-4.9-5L8.9 18l-.2-.7zm36.6 12.6.9.3q-2 1.2-2 3.3l-.1 1.5q-.2.9-1.1 1.3l-3.1.8-1 .1-.8-.4 1-.1 3.1-.7q.9-.6 1.1-1.4l.1-1.5q0-2.1 1.9-3.2m9 4.9.8.7-7.5 1.8-6 1.3-1.2-.6 6-1.3z"/><path fill="#fc7f39" d="M84.8 41.9q-1.4-1.4-1.5-3.2 0-1.1 1.5-5.8 1.1-3.8.1-6.4-1.5-3.7-7.6-6.9-6.9-3.6-15-3.7-5.1 0-14.4 1.5-9.7 1.7-14.2 1.7-7.8 0-14-3.2-2.2-1-3.4-2.5l10-5.1 2 1-2-1L28.6 7 41.5.5l61.9 31.9-5.9 3-2.5-1.1 2.5 1.1-2.7 1.4-4.7-2.5 4.7 2.5zM30.6 8.4l-2-1.2zm-21.8 9 .1.7.8 2.6q1.2 3.2 4.9 5.1 3.6 1.9 9.8.9l5.8-1.2 6.3-1.6q8.1-2 13.9-1.9 8.1 0 15 3.7 4 2 5.3 6.4.8 3 .6 8.6-.3 6.3-.1 8.3l-8.9 4.5L.6 21.6zm32.7-2.6-1.2.6zm10.2-5.4-2.2 1.1-3-1.5 3 1.5zM48 12.5l-1.2-.6 2.7-1.5 2.4 1.2-2.4-1.2-2.7 1.5zm.8 16.5-1-.4-5.1-1.5q.9 4.8-3.9 7.4l1.9 1 .8.4 1.5.8 1.2.6 1.8.9q5-2.4 13-2.7l-1.3-1.3-.8-.7q-3.2-2.7-8.1-4.6m6.9-15.2-2.1-1.1zm-11-2.7 2 1-3.8 2 3.9-2zm14.8 31-6.3-3.5zm5.8 1-10-5.9zM40 38l-3-.1.1-1.5-.1 1.5zm-2.8 1.3-.2-1.4zm-.2-1.4-2.7-.2z"/><path fill="#cf4f25" d="m57.7 34.2 1.3 1.3q-8 .3-13 2.7l-1.8-.9 6-1.2zm-17 1.3-1.9-1q4.8-2.6 3.9-7.4l5.1 1.5q-1.7 1.1-1.7 3.1l-.2 1.7q-.2.8-1.1 1.3l-3.1.6z"/><path fill="none" stroke="#000" stroke-linecap="round" stroke-linejoin="round" stroke-opacity=".3" stroke-width="__RESOLUTION__" d="M83 42.8q-1.5-1.4-1.5-3.2 0-1 1.4-5.7 1.1-3.9.1-6.5-1.5-3.7-7.5-6.8-7-3.6-15.1-3.7-5.1-.1-14.4 1.5-9.7 1.7-14.1 1.7-7.9 0-14.1-3.2-2.2-1.1-3.4-2.5M11.2 16l.2.5.8 2.6q1.2 3.3 4.8 5.1 3.6 1.9 9.8 1l5.8-1.3 6.4-1.6q8.1-1.9 13.9-1.9 8.1.1 15 3.7 4 2 5.3 6.5.8 3 .5 8.5-.2 6.5 0 8.4h0m21-10.7L99 39m-1.6-3.7-2.5-1.1M28.7 7l1.8 1.2m59.5 26 4.7 2.5m2.7-1.4 2.9 1.3m-60-21.4 1.2-.6M26.3 8.3l2 1m.3-2.2-2-1.4m20 3.2 2.9 1.5 2.2-1.1m.1 2.3-2.3-1.2-2.7 1.5 1.2.6m-.1 16.1Q46 29.7 46 31.7l-.1 1.7q-.2.8-1.1 1.3l-3.1.6-1 .2m12.9-23 2.1 1.1m-12.8.3 3.9-2-2.1-1M26.3 8.3l-2-1m28.9 31.2 6.3 3.6M55.4 37l10 5.9" vector-effect="non-scaling-stroke"/><path fill="none" stroke="#000" stroke-linecap="round" stroke-linejoin="round" stroke-opacity=".3" stroke-width="1" d="M14.4 14.4 11.2 16l-2.4 1.3-8.3 4.3m73.3 26 9.2-4.8 1.8-1 9.9-5 2.7-1.4 5.8-3m-87-19-1.8 1M41.4.5 28.7 7.1l-2.4 1.2-10 5.1M71.2 49l2.5-1.4m-11.4 5.9 8.9-4.5m-34-12.5-.1 1.5 3 .1m-3-.1.2 1.4m-2.9-1.6 2.7.1"/></g></defs><g clip-path="url(#a)"><use xlink:href="#b" width="103.8" height="53.9" transform="translate(1 1)"/></g></svg>