<svg xmlns="http://www.w3.org/2000/svg" xmlns:xlink="http://www.w3.org/1999/xlink" width="65" height="34" viewBox="0 0 65 34"><defs><clipPath id="b"><path d="M1 1h63v32H1z"/></clipPath><path id="c" fill="#000" fill-opacity=".3" d="M31.8 3 4 16.7H.6l.2-1.3L28.2 3z" transform="translate(-.6 -2.95)"/><use xlink:href="#a" id="d" width="40.5" height="22.8"/><g id="a"><path fill="#960" d="m25.7 1.9.8-.5.2.2 9.8 5.2h.2-.2l-1.2.5q-.5-1-6-3.6zM1.4 14.5l2.7-1.4q4.8 1 8.6 2.7l2.6 1.1-2.6 1.3-.4-.2-4-1.8Q5.4 15 4.8 15l-1.2.3zm5.7-2.9 1.6-.9 3.8 1.9.5.3.3.1 5.4-2.2 4.8-1.9-2.1-1 .8-.5-1.3-.4-1.4-.7-1-.5 3.7-2.1q3 1.8 5.5 2.9l1.3.6 2.5 1.2.7.5-4 2h-.1l-9.8 4.5-.2.1-1.4.8Q8.6 12.7 7 11.6m10.4 3.5q2.9-1 3.1-1.5l.4-.4q1-.8 4.5-2.4l.9-.5-1.5-.7q-.6-.1-3 1.3l-2 1.2-4.5 2zl.8.3zm-2.1-1-2-1.1zm-5.7 5.7L4 16.9h.3q4.2 0 6.3 1.3l.8.7zM28 11l-5.9-3.5z"/><path fill="#7d5500" d="m26.7 1.6 3-1.6 10.8 4.8-4 2zM.4 15.2.2 15l1.2-.6 2 .8 1.4-.4q.6 0 3.6 1.3l3.9 1.8.4.2-1.3.7-.8-.7q-2.1-1.3-6.3-1.3H4zM4 13l2.8-1.4.2-.1q1.5 1.2 9.6 4.7l-1.4.6-2.6-1.1Q8.9 14 4 13m8.4-.5 8.9-4.7 2.1 1-4.8 1.8-5.4 2.3-.3-.2zm9.7-8.9 3.5-1.8 3.6 1.8q5.4 2.6 6 3.6l-3 1.8-.7-.5L29 7.2l-1.3-.6q-2.4-1.1-5.5-2.9m-6.8 10.4 4.5-2 2-1.2q2.4-1.4 3-1.3l1.5.7-1 .4q-3.3 1.7-4.3 2.5l-.5.4q-.2.5-3.1 1.5z"/><path fill="#b37800" d="M40.5 4.8V7l-4 2V7l.2-.1h-.2zm-5.3 4.9-2.7 1.4-.2-2.2h-.1l3.1-1.6v.1l-.1 1.5zm-7 3.4-1.8 1-1.1-.3-1.6.2-1.3.6-1.4.8q-1.1.7-1.7 1.6l-.5.8-.7.4v-2.7h.2l9.8-4.6h.1zM17 18.9l-1.4.7v-2l-.2-.7 1.4-.6.2 1zm-4 1.9-1.2.6-.3-2.3-.2-.2 1.3-.7q.3.2.4 2.6"/><path fill="#ce8b00" d="m36.6 9.2-1.4.5V9l.1-1.6 1.3-.6zM32.4 11l-4.2 2v-2.2l3.9-2zm-6.1 3-7.6 3.7.4-.8q.7-.9 1.8-1.7l1.4-.7 1.3-.6 1.6-.2zM18 18.1l-1.2.7v-1.5l-.2-1.1 1.4-.8zm-2.7 1.4L13 20.6q-.1-2.3-.4-2.5l2.6-1.2.2.6zm-3.6 1.8-2.3 1.2v-2.9l1.8-.8.2.2z"/><path fill="#664500" d="M9.6 22.6v.1L0 18.2l.4-3L4 17l5.6 2.8z"/><path fill="none" stroke="#2d1e0f" stroke-linecap="round" stroke-linejoin="round" stroke-width="__RESOLUTION__" d="m8.7 10.7 3.8 1.9 8.9-4.7.8-.5h0L20.9 7m-1.4-.7-1-.5m-3.1 8.3 2.1 1 .8.3M13 12.9l-.5-.2m.8.4 2.1 1m-5.8 5.7" vector-effect="non-scaling-stroke"/><path fill="none" stroke="#664500" stroke-linecap="round" stroke-linejoin="round" stroke-width="2" d="M22.2 7.5 20.9 7l-1.4-.7m2.7 1.2 5.9 3.4"/></g></defs><g clip-path="url(#b)"><g transform="translate(31.45 15.9)"><use xlink:href="#c" width="31.2" height="13.8" transform="translate(.6 2.95)"/><use xlink:href="#d" width="40.5" height="22.8" transform="matrix(-1 0 0 1 28.45 -14.9)"/><use xlink:href="#d" width="40.5" height="22.8" transform="matrix(-1 0 0 1 19.3 -10.45)"/><use xlink:href="#d" width="40.5" height="22.8" transform="matrix(-1 0 0 1 10.1 -5.95)"/></g></g></svg>