<svg xmlns="http://www.w3.org/2000/svg" xmlns:xlink="http://www.w3.org/1999/xlink" width="70" height="80" viewBox="0 0 70 80"><defs><clipPath id="a"><path d="M1 1h68v78H1z"/></clipPath><g id="b"><path fill="#9d7126" d="M66.7 7.5 54.2 13l12.5-3.4.5 7.6-27.3 9.6L0 41V28.4h.2L66.5 1.3z"/><path fill="#58421d" d="M66.8 9.6 54.3 13l12.4-5.5zM40 26.8l27.3-9.6-18.8 9.3L0 48v-2.4zM0 64.2l66-28.5 1.5 1.1L0 64.8z"/><path fill="#c59430" d="M66.5 1.3.2 28.3v-3.8L62.6 0z"/><path fill="#a67c28" d="m48.4 26.5 18.8-9.3L66 35.7 0 64.2V50.5z"/><path fill="#ce973c" d="M48.4 26.5 0 50.5V48z"/><path fill="#956a24" d="m67.5 36.9.3 8.4L0 78V64.7z"/><path fill="none" stroke="#41342e" stroke-linecap="round" stroke-linejoin="round" stroke-width="__RESOLUTION__" d="m66.7 7.5-.2-6.2-4-1.3L.3 24.5v3.9H0V41l39.9-14.2 27.3-9.6-.5-7.6zM0 50.4v13.7l66-28.5 1.2-18.5m.3 19.7L66 35.7m-66 29V78l67.8-32.7-.3-8.4zv-.5m0-16.1v-2.4l39.9-18.9M0 48.1v2.4" vector-effect="non-scaling-stroke"/></g></defs><g clip-path="url(#a)"><use xlink:href="#b" width="67.8" height="78" transform="translate(1 1)"/></g></svg>