<svg xmlns="http://www.w3.org/2000/svg" xmlns:xlink="http://www.w3.org/1999/xlink" width="128" height="373" viewBox="0 0 128 373"><defs><g id="r"><path fill="#000" fill-opacity=".3" d="M33.1 206.6q0-2.8-.5-6.4 5.8 1.8 6.7 2.6t1 4.9q0 3.3-.7 7.5-.8-.6-1-1.5-.3-1.1-.9-2-2.2 12-2.4 16.9-.7-5.3-.6-14.9 0-5-1.6-7.1"/><path fill="#85501b" d="m33.6 184.9.7-.7.6-.1h.2l1.2.1.3.1h.1l1.1 1 .1.1.6.8.3.5.3.5.4.7.3.8q1.5 3.7 1.5 8l-.1 1.6-.2 1.8-1.7-.6v1.3l-.8-.3v-1.7l1.3.4.1-1.4.1-1.1q0-3.2-1-5.9-1-2.4-2.4-3.2l-.3-.1q-1.5-.6-2.5 1.2-.7 1.2-1 3l-.1 2 .2 2.7 1.2.6v1.7l-.8-.2V197l-1.6-.6-.2-.7v-.4l-.1-2.6q0-2.6.5-4.5l.9-2.3.4-.5zm6 17.1 1.5.6q-.4 2-1.2 3.4v.1q-1.5 2.4-3.5 1.6t-3.5-4.5q-.8-2-1.1-4.3l1.4.5.6 2.1h.1q1 2.7 2.5 3.3t2.6-1.2q.4-.7.6-1.6"/><path fill="#131c1c" d="m39.3 200.8.5.2-.2 1-.4-.1zl-.7-.3v-1.8l1.4-.9.1-1.1q0-3.2-1-5.9-1-2.4-2.4-3.2v.1q-.8 1.3-1 3.4l-.1 1.7.3 2.6 1.1.5v1.8h-.1l-1 .4.1.1.6 2.3h.1q1 2.4 2.3 3.2v-.1q.4-.7.6-1.6l-.2-.1z"/><path fill="#3d240c" d="m33.1 199.4-.2-1.1.4.2v1zm-.3-7.7 2.8-.6-.1 1.7.3 2.6 1.1.5v1.8h-.1l-1 .4.1.1-1.8.5V197l-1.2-.5v-.1l-.2-2.7zm7.1 6.1-.1 1.4-1.3-.5zm-1 5.8q-1.1 1.8-2.6 1.2t-2.5-3.3l2.8-1q1 2.4 2.3 3.2"/><path fill="#321e0a" d="M32.8 191.7q.3-1.8 1-3 1-1.8 2.5-1.2l.3.1v.1q-.8 1.3-1 3.4zm1 9.8-.7-2.1h.2v-1l.8.3 1.8-.5.6 2.3h.1z"/><path fill="none" stroke="#896645" stroke-linecap="round" stroke-linejoin="round" stroke-width="__RESOLUTION__" d="m33.6 184.9.7-.7m2.3.1 1.1 1m1.7 2.6.3.8q1.5 3.7 1.5 8l-.1 1.6-.2 1.8-1.7-.6v1.3l-.8-.3v-1.7l1.3.4.1-1.4.1-1.1q0-3.2-1-5.9-1-2.4-2.4-3.2l-.3-.1q-1.5-.6-2.5 1.2-.7 1.2-1 3l-.1 2 .2 2.7h0l1.2.6v1.7h0l-.8-.2V197l-1.6-.6m7.8 5.6 1.5.6q-.4 2-1.2 3.4v.1q-1.5 2.4-3.5 1.6t-3.5-4.5q-.8-2-1.1-4.3l1.4.5.6 2.1h.1q1 2.7 2.5 3.3t2.6-1.2h0q.4-.7.6-1.6l-.2-.1v-1.1m-6.2-1.4h.2v-1" vector-effect="non-scaling-stroke"/><path fill="#000" fill-opacity=".3" d="M65.1 249.2q1-.8 6.7-2.6-.4 3.6-.5 6.4-1.5 2-1.5 7.1l.1 12.3q-.9-2.3-3.1-14.2-.7.8-.9 1.9-.2.9-1 1.4-.8-4.1-.8-7.4 0-4.1 1-5"/><path fill="#85501b" d="m70.4 232.5.4.5.4.5.9 2.3q.5 1.9.5 4.6l-.1 2.5v.4l-.2.7-1.6.6v1.5l-.8.3v-1.8l1.2-.5v-.1l.2-2.6-.1-2.1q-.3-1.8-1-3-1-1.8-2.6-1.2l-.2.1q-1.4.8-2.4 3.2-1 2.7-1 5.9v1.1l.2 1.4 1.3-.4v1.7l-.7.3v-1.3l-1.8.6-.2-1.8v-1.6q0-4.3 1.4-8l.3-.8.4-.7.2-.6.4-.4.6-.8v-.1l1.2-1h.2l.2-.1 1.2-.2.2.1.6.2zM71 247l1.4-.5q-.3 2.3-1.1 4.3-1.5 3.7-3.5 4.4-2 .9-3.5-1.5v-.1q-.8-1.4-1.2-3.4l1.5-.6.5 1.6h.1q1.1 1.8 2.5 1.2 1.6-.6 2.6-3.3z"/><path fill="#131c1c" d="m64.8 248.4.7-.3v-1.8l-1.5-.9v-1.1q0-3.2 1-5.9 1-2.4 2.4-3.2v.1q.8 1.3 1 3.3l.1 1.8-.2 2.6-1.2.5v1.9l.2-.2.8.5v.1l-.6 2.3h-.1q-1 2.4-2.3 3.2v-.2l-.6-1.5-.2-1zv1l-.3.2.3-.1z"/><path fill="#3d240c" d="m64.2 246.8-.2-1.4 1.5.9zm7-7.5.1 2-.2 2.7-1.2.6v1.7l-1.8-.5v-.1l-.8-.4H67v-1.8l1.2-.4v-.1l.2-2.6-.1-1.7zm-.5 6.8.4-.2-.2 1.1h-.2zm-5.6 5.3q1.4-.8 2.3-3.2l2.8 1q-1 2.7-2.6 3.3-1.4.6-2.5-1.2"/><path fill="#321e0a" d="m67.4 235.2.2-.1q1.6-.6 2.7 1.2.6 1.2.9 3l-2.8-.7q-.2-2-1-3.3zm2.5 11v.2l.8-.3v1l.2-.1-.7 2.1-2.8-1 .7-2.3z"/><path fill="none" stroke="#896645" stroke-linecap="round" stroke-linejoin="round" stroke-width="__RESOLUTION__" d="m70.4 232.5-.7-.6m-2.2 0h-.2l-1.2 1m-1.6 2.6-.3.8q-1.5 3.7-1.5 8l.1 1.6.2 1.8 1.8-.6v1.3l.7-.3v-1.7l-1.3.4-.2-1.4v-1.1q0-3.2 1-5.9 1-2.4 2.4-3.2l.2-.1q1.6-.6 2.7 1.2.6 1.2.9 3l.1 2-.2 2.7h0l-1.2.6v1.7h0l.8-.2v-1.5l1.5-.6m-1.5 2v1h.2l1.4-.5q-.3 2.3-1.1 4.3-1.5 3.7-3.5 4.4-2 .9-3.5-1.5v-.1q-.8-1.4-1.2-3.4l1.5-.6.3-.1v-1.1m-.3 1.2.5 1.6h.1q1.1 1.8 2.5 1.2 1.6-.6 2.6-3.3h0l.7-2.1" vector-effect="non-scaling-stroke"/><path fill="none" stroke="#edd192" stroke-linecap="round" stroke-linejoin="round" stroke-opacity=".5" stroke-width="4" d="M12 275.6q1.6 10.3 18.7 14.6"/><path fill="none" stroke="#f1c52c" stroke-linecap="round" stroke-linejoin="round" stroke-opacity=".5" stroke-width="4" d="M30.7 290.2q10 2.5 25.1 3"/><path fill="#58412c" d="m60.5 39.8 1.4 1.4-1 1.1q-.4.5-.4 1 0 1 3.5 1h1l.5.6.3.5.3 1.2-.3-.2-1.2-.3-4-.3q-3.8-.4-3.8-1.4l.3-1.6.2-.1h.2l.6-.2.7-.3.8-.5q.9-.6.9-1.5zm-14.6 9.8-.6-.7.1-.3q.8-1 1.4-2.6l.8-2.1.3-2.3 1.5-1.7v.3l.2.7.8 1 .4.2h.2l.3.2-1.6 5 2.7-3.7.1-.1.5-.7.9.1v.2q-.5 1-.5 2t.7 5.3q0 .9-.6 1.8-3.4-.3-6-1.6z"/><path fill="#493625" d="m61.9 41.2 2.6 2.7.5.4h-1q-3.5 0-3.5-1 0-.5.3-1zm4.2 5.4v.3q-.1 2.2-3.2 3.7l-1.5.6-3.2-4.2 1 4.8-4 .4h-1.7q.6-.9.6-1.8-.8-4.4-.7-5.3 0-1 .4-2l.1-.2.4.1h1l1.8-.2-.3 1.6q0 1 3.8 1.4l4 .3 1.2.3zm-20.8 2.3-.6-.8-.4-1.4.3-1.1.2-.5.9-1 .1-.1 2.1-2.4-.4 2.3-.7 2.1q-.6 1.6-1.4 2.6z"/><path fill="#000" fill-opacity=".3" d="m66.1 46.9 1.5 1.7q1.1 1.6 1.1 2.9 0 1-2.5 2.3Q64 54.9 63 55l-3.7.4q-2.1 1.2-3.5 1.2-.5 0-.6-1l-.5-1.5L51 53q-4.1-1.3-4.5-2.2l-.5-1.2 1.6 1q2.6 1.3 6 1.6h1.8l4-.4-1.1-4.8 3.2 4.2 1.4-.6q3.2-1.5 3.3-3.7"/><path fill="#7a5a3d" d="m49.4 39.9.4-.7 1.2-1q1.6-.8 4-.8 2.3 0 3.8.8 1.4.7 1.6 1.6l.1.4q0 .9-1 1.5l-.7.5-.7.3-.6.2h-.4l-1.8.3H54l-.9-.2-.5.7-2.8 3.8 1.6-5-.3-.1-.2-.1-.4-.2-.8-1-.2-.7z"/><path fill="none" stroke="#000" stroke-linecap="round" stroke-linejoin="round" stroke-opacity=".3" stroke-width="__RESOLUTION__" d="m60.5 39.8 1.4 1.4 2.6 2.7.5.4.5.6.3.5.3 1.2v.3q-.1 2.2-3.2 3.7l-1.5.6-3.2-4.2 1 4.8-4 .4h-1.7q-3.4-.3-6-1.6l-1.6-1-.6-.7-.6-.8-.4-1.4.3-1.1.2-.5.9-1 .1-.1 2.1-2.4 1.5-1.7.4-.7 1.2-1q1.6-.8 4-.8 2.3 0 3.8.8 1.4.7 1.6 1.6l.1.4q0 .9-1 1.5l-.7.5-.7.3m-2.8.5h-.9m-4.8-2-.2-.8v-.3" vector-effect="non-scaling-stroke"/><path fill="#432c05" d="m74.6 2.6-.4.8-2.3 1.4 5.2-.5-.5 2.8L59.2 12l-1.6 1.8 25.8-2-3.5-6.1 7.3 6.6-6.8 5.8 1.4-3.1-19.5 1.4q-3.9 6.9-10.6 2.1-1.6-1.1-2.5-2.7l-3.7-6.4-8.8-1.8V5.2l6.7-2.4 9 9.3 1.8-.5L64.5.4l.9-.4 1 .5.2 2.3z"/><path fill="none" stroke="#432c05" stroke-linecap="round" stroke-linejoin="round" stroke-width="5" d="M55.2 16.7v23.7"/><path fill="#432c05" d="m32 12.4-1.4 3.1q4.7 1.7 19.4-.6.5-2 1.3-3.3v5.3l-22.2 1.8 2.3 3.5 1.1 2.7-7.3-6.7zm40.6 11 .2-3.9.5-2.8 1.8 8.7-7.7 2.2 2.5-2.1q-2.5-3.3-14-7.4-1.4 1.5-2.6 2.1l2.7-4.5z"/><path fill="none" stroke="#37291c" stroke-linecap="round" stroke-linejoin="round" stroke-opacity=".8" stroke-width="__RESOLUTION__" d="M87.6 152.1q.3 3.9 1.8 12.9 1 6.4 2.7 9.3 2.3-.2 4.6-3.6 2.5-3.6 3.5-9 2.7-13.8 2.7-18.8-.9-5.3-.9-9.3 0-1.7.4-2.1m-10.3 42.8q1.3 2.3 3 2.3 3.3 0 6.5-8.7 3-8.2 3-14.8 0-2.4-1.1-7.4t.3-14m-16.9 16q-6 1.4-8.2 2.9l-2 2-7.1 15.6q-1.1 1.8-2.6 3-1.8 1.8-3.7 1.8h-.2l-.9.2.5 8.6m-42.9-35q9.6 1.2 19.4 8.1 8.2 5.8 13.6 13.3 3.1 5.1 7.1 5.1l2.4-.2-.1-.3-.5-.3v-.3h.3l.2.6.9.2q2.1-.6 3.9-1.8 1-1.1 2-2.8 1-1.8 4.3-9.6 1.6-4 3.4-6.2l.4-1q3-4.4 4.3-4.9t3.6 0l1.4.7m-.2 5-.7 11.2q0 3.6 1.9 7 2 3.7 4.3 3.7h.4M44.7 16.9l-.8 1.2v.3l.8.2.1-.7zl-5.3-.4h-.2q-3.1-.5-4 1.7-.4.7-.5 5.3v7.2m10-13.7 1-1q1.6-1.5 3.3-1.5.3 0 1.7 2.5l.1-.6M21.8 175q-2.8-2.6-7.2-18.6-1.1.9-2.3.9-3.8 0-5.5-7.4l-.5-5.2q-.5-4.3-.3-5.8.1-1.6-.6-4.1-.7-2.6-5.2-2.5m10.6 9.5 3.8 14.6q1.3-1.1 2.5-3.5M1.3 131q37-38.8 49.4-114.2" vector-effect="non-scaling-stroke"/></g><g id="q" fill-opacity=".4"><path fill="#6b4d07" d="m90.8 11.6 14.1-5.2 1.3 1.3-1.2-1.3.3-.1 7.4 5.8 1.8 1.6q-2.1 3.2-4.9 6.3-6-5.6-1.5 1.1Q99 13.8 83.4 18l11.6-.3-.4.3q-4.6 3.1-9.5 5.5l8.5-.5-7 4-1.9.3-5.7 2.1q-31.2-8.5-4.9-10.8 4.9-2.7 16.7-7m-12.4 18L53.6 39l4 4.2-2 1q-8.2-4.9-11-2.2-1 0-1.6-.5l-2.2-1.9q-3-2.6-4.6 16.9Q34.7 43.7 16 44.3l10.7-5.8q10.3-5.6 51.7-8.9m23.7-25 .5-.2.3.3.3.1v.1l.2.3L98 7.7q1.3-1.9 4.1-3.1"/><path fill="#990" d="M108 21.1q-9.7-4.6-9.4-4.1l-3.6.7-11.6.3q15.6-4.1 24.7 3.1M79 29.4h2.4l-3 .3Q37 32.9 26.7 38.5L16 44.3l-.8.5q2.3-5-5.6-4.8L0 41q27.2-11.2 27.3-12.3v-.1l-20.8 8 20.9-8.9V27L48 16.8q.1-1.5 1.3-2.5 1.3-1 2.4-1l3 .1 4.4-2 .1-.7q.5-1.6 2.3-2.1l1.2-.3q1 0 23-8.3h11.9l2.4 2h-.8l-.2.4 1.3.4 1.6 1 .3.8Q99.3 5.8 98 7.7l-2.2 1-5 2.9Q79 16 74 18.6q-26.2 2.3 5 10.8m-40 4.8 6.2-2-6.3 1.8zm-17.3-14V20zM18.5 43l5-2.8-2 .9q.6-.2-3 1.9"/></g><g id="p"><path fill="#723310" d="m9.3 2.2 7.9 3.7L16 7.3l-6.6 7.8Q3.6 14 .1 10.8z"/><path fill="#4e260e" d="m16 7.3-1 3.5-4.7 6.6H8.9l-8.4-4-.4-2.7q3.5 3.3 9.3 4.4z"/><path fill="none" stroke="#40200d" stroke-linecap="round" stroke-linejoin="round" stroke-width="__RESOLUTION__" d="m16 7.3-1 3.5-4.7 6.6h0m0 0H8.9l-8.4-4-.4-2.7 9.2-8.5L11.4.1" vector-effect="non-scaling-stroke"/></g><g id="o"><path fill="#78340f" d="m9.3 2.2 7.9 3.7L16 7.3l-6.6 7.8Q3.6 14 .1 10.8z"/><path fill="#51260d" d="m16 7.3-1 3.5-4.7 6.6H8.9l-8.4-4-.4-2.7q3.5 3.3 9.3 4.4z"/><path fill="none" stroke="#42200c" stroke-linecap="round" stroke-linejoin="round" stroke-width="__RESOLUTION__" d="m16 7.3-1 3.5-4.7 6.6h0m0 0H8.9l-8.4-4-.4-2.7 9.2-8.5L11.4.1" vector-effect="non-scaling-stroke"/></g><g id="n"><path fill="#86380e" d="m9.3 2.2 7.9 3.7L16 7.3l-6.6 7.8Q3.6 14 .1 10.8z"/><path fill="#58270b" d="m16 7.3-1 3.5-4.7 6.6H8.9l-8.4-4-.4-2.7q3.5 3.3 9.3 4.4z"/><path fill="none" stroke="#46200a" stroke-linecap="round" stroke-linejoin="round" stroke-width="__RESOLUTION__" d="m16 7.3-1 3.5-4.7 6.6h0m0 0H8.9l-8.4-4-.4-2.7 9.2-8.5L11.4.1" vector-effect="non-scaling-stroke"/></g><g id="m"><path fill="#9b3d0b" d="m9.3 2.2 7.9 3.7L16 7.3l-6.6 7.8Q3.6 14 .1 10.8z"/><path fill="#632908" d="m16 7.3-1 3.5-4.7 6.6H8.9l-8.4-4-.4-2.7q3.5 3.3 9.3 4.4z"/><path fill="none" stroke="#4c2007" stroke-linecap="round" stroke-linejoin="round" stroke-width="__RESOLUTION__" d="m16 7.3-1 3.5-4.7 6.6h0m0 0H8.9l-8.4-4-.4-2.7 9.2-8.5L11.4.1" vector-effect="non-scaling-stroke"/></g><g id="l"><path fill="#903b0d" d="m9.3 2.2 7.9 3.7L16 7.3l-6.6 7.8Q3.6 14 .1 10.8z"/><path fill="#5d280a" d="m16 7.3-1 3.5-4.7 6.6H8.9l-8.4-4-.4-2.7q3.5 3.3 9.3 4.4z"/><path fill="none" stroke="#492008" stroke-linecap="round" stroke-linejoin="round" stroke-width="__RESOLUTION__" d="m16 7.3-1 3.5-4.7 6.6h0m0 0H8.9l-8.4-4-.4-2.7 9.2-8.5L11.4.1" vector-effect="non-scaling-stroke"/></g><g id="k"><path fill="#632e10" d="m9.3 2.2 7.9 3.7L16 7.3l-6.6 7.8Q3.6 14 .1 10.8z"/><path fill="#47240f" d="m16 7.3-1 3.5-4.7 6.6H8.9l-8.4-4-.4-2.7q3.5 3.3 9.3 4.4z"/><path fill="none" stroke="#3b200e" stroke-linecap="round" stroke-linejoin="round" stroke-width="__RESOLUTION__" d="m16 7.3-1 3.5-4.7 6.6h0m0 0H8.9l-8.4-4-.4-2.7 9.2-8.5L11.4.1" vector-effect="non-scaling-stroke"/></g><g id="j"><path fill="#562b12" d="m9.3 2.2 7.9 3.7L16 7.3l-6.6 7.8Q3.6 14 .1 10.8z"/><path fill="#402310" d="m16 7.3-1 3.5-4.7 6.6H8.9l-8.4-4-.4-2.7q3.5 3.3 9.3 4.4z"/><path fill="none" stroke="#381f10" stroke-linecap="round" stroke-linejoin="round" stroke-width="__RESOLUTION__" d="m16 7.3-1 3.5-4.7 6.6h0m0 0H8.9l-8.4-4-.4-2.7 9.2-8.5L11.4.1" vector-effect="non-scaling-stroke"/></g><g id="i"><path fill="#472713" d="m9.3 2.2 7.9 3.7L16 7.3l-6.6 7.8Q3.6 14 .1 10.8z"/><path fill="#392213" d="m16 7.3-1 3.5-4.7 6.6H8.9l-8.4-4-.4-2.7q3.5 3.3 9.3 4.4z"/><path fill="none" stroke="#332012" stroke-linecap="round" stroke-linejoin="round" stroke-width="__RESOLUTION__" d="m16 7.3-1 3.5-4.7 6.6h0m0 0H8.9l-8.4-4-.4-2.7 9.2-8.5L11.4.1" vector-effect="non-scaling-stroke"/></g><g id="h"><path fill="#402514" d="m9.3 2.2 7.9 3.7L16 7.3l-6.6 7.8Q3.6 14 .1 10.8z"/><path fill="#352113" d="m16 7.3-1 3.5-4.7 6.6H8.9l-8.4-4-.4-2.7q3.5 3.3 9.3 4.4z"/><path fill="none" stroke="#311f13" stroke-linecap="round" stroke-linejoin="round" stroke-width="__RESOLUTION__" d="m16 7.3-1 3.5-4.7 6.6h0m0 0H8.9l-8.4-4-.4-2.7 9.2-8.5L11.4.1" vector-effect="non-scaling-stroke"/></g><g id="g"><path fill="url(#a)" d="M18.8-182h-.1l-.3-1.6q-2.2-36.3-4.6-57.2L12.3-252q-1.4-9.7-2.9-13.9l-1.7-10.8-.3-2-1.4-6.2h2.4q31 36.5 42.2 77.9v2.7q-.9 8.1-11.1 14.4l-3.6 2h-.1l-.3.2-4 1.8q-5.9 2.4-12.6 3.8z" transform="translate(55.55 285.1)"/><path fill="url(#b)" d="m6-284.8 1.4 6.3.3 1.9 1.7 10.8q1.5 4.2 3 13.9l1.4 11q2.3 21 4.6 57.4l.3 1.4v.1h-.1l-1.6.3-12.2 1.3H2.7l-2.7.1h-3.3l-5.2-.3q-5.7-.5-11-1.6-3-.6-5.8-1.5-3.2-.9-6.2-2.1l-4.2-2-.3-.1-3.5-1.9q-10.2-6.2-11-14.4v-2.7q3.5-17.2 8-27.7t5.6-8.9 4.5-6.2 28.7-35.1z" transform="translate(55.55 285.1)"/><path fill="#2c2016" d="M74.3 103.1q6.8-1.4 12.6-3.8 2.1-.8 4-1.8l.3-.1.1-.1 3.6-2v6.8q-.6 5.6-6.9 10.1l-2.3 1.5-1.8 1-.6.3q-5.2 2.6-11.2 4l-1.6.4q-5.1 1-11 1.3l13-17.3 1.6-.2zm13.4-2.4-.7-1.4z"/><path fill="#37291c" d="m16 95.3 3.5 1.9.3.2 4.2 1.9q3 1.2 6.2 2.2l-7.2 1-3.2.2h-3.7v-7.4m31 9.2 5.1.3h6.1l2-.1-.2.2q-2 1.2-4.1 3-2 2.5-4.4 4.7l-2.9 2.4q-2.7 2-6.3 3.8l-10.9-2.1-3.9-1.7-.8-.4q7.4-.7 12.6-4.9l1.3-1 4.5-3.2h.1zm2.1 15.8 3.5-2.3 5.2-3.2 1.9-.9v1.2l-.1.4q-1 1.9-4.2 4.7l-.6.6-4.4-.2zm-25.8-19.8.5-1.2z"/><path fill="#3c2d1e" d="M30.2 101.5q2.8.8 5.8 1.4 5.3 1.1 11 1.6l-1.7 1h-.1l-4.5 3.3-1.3.9q-5.2 4.2-12.6 4.9l-.5-.3-1.9-1.1-1.4-1q-6-4.2-6.9-9.5h3.7l3.2-.2zm30.1 3.2 12.3-1.3-13 17.3h-4.7l.6-.5q3.3-2.8 4.1-4.7l.2-.4v-1.2l-1.9.9-5.2 3.2-3.5 2.3-6.8-1.5q3.6-1.8 6.3-3.8l2.9-2.4q2.4-2.2 4.4-4.7 2.1-1.8 4-3z"/><path fill="#ad8d58" d="m88.1 112.2-.4 3.3-1.5-.2q-.3 1.3-.4 3.8l-.3-1.5q-1.5 4.8-8.7 8.4-9 4.5-21.7 4.5-12.8 0-21.8-4.5t-9.1-10.9l.2-2 2 1.2.4.3.8.4 3.9 1.7 10.9 2.1 6.9 1.5 1.3.3 4.3.2h.6l4.1-.1q5.9-.3 11-1.3l1.6-.4q6-1.4 11.2-4l.6-.3 1.8-1z"/><path fill="#c2ab83" d="m85.8 119.1-.1 2.8q-1.2 5.2-8.9 9.1-9 4.5-21.7 4.5-12.8 0-21.8-4.5t-9.1-10.9H24l-.6-4.6-.1-.8-.3-2.5 1.4 1-.2 1.9q0 6.4 9 10.9t21.8 4.5 21.8-4.5q7.2-3.6 8.7-8.4z"/><path fill="#d7c7ac" d="m85.7 121.9-.1 2.8v7.2q-4.7 7.1-2.2 54.3v.8q-1 29.9 4.7 31.3v5.7l-.3 2.3-.7 1.7q-2.1 4-8.5 7.3-9.5 4.8-23 4.8h-2l-1.3-1q-6.5 1-11.4-3.4l-2.5 1.3q1-6.3 5.3-9.7l1-.3q7.4.8 10.2 7.7 2.8-7.4 1.4-21.4l-1-7.2q-1.5-9.1-4.2-20.3l2.3-6.3q18.8-46.2-.6-38.2-18.1-8.9-28-14.7l-.2-1.4-.6-5.1h.2q0 6.4 9 10.9t21.8 4.5 21.8-4.5q7.8-3.9 8.9-9.1m-8.5 31.8q-1.5-1-2.4-1h-1.5l-1.2.6-.7.4q-1.6.9-1.6 2.2t3.1 6l1 6.7.2.3q0-1 1.2-4.4t1.8-3.5l1.1.9q.7-2.6.7-5.6 0-1.4-1.7-2.6m3.5-7.8q0-.8-.8-1.5-.7-.7-1.6-.7l-1.9.3-1.9 1.3-1.8 1.5 2.9 2q1 .5 2.3.5 2.8 0 2.8-3.4m-14.2 2q-.7 0-1 .3l-.5 1.7v1.1l2.5.5 1-1 2-1.5-.4-1.3zm9.5 45.3-3.7-6.3h-5q-4.1 8.6-3 19.2.3 3.4 1.3 7.2.8 3.5 2.2 7.2 0 .2.7.2 3.5-3.1 5.4-7.4 1.5-3.3 2.1-7.2.7-4.8.2-10.4zm-36.4-53.5q3.4 1 6.3 3.4v22.5l-5 1.3q-.6 0-1.1-.3-4.6-2.3-6.4-7.3-1.7-13.3 3.8-20zm-12.1 56.9 3.5.3q4.2 3.9 4.5 9.2.3 3.3-1 7.2l-1 2.4 1.3 11.3-3.8-11.3-2.9-2.4-2-2.3zm22.3 15.3.1 1.3q.3 5.3-2.6 7.5l-2.6 1q-5.1 1.1-6.2-3.5l2.5-7.5z"/><path fill="#e9ddcb" d="M85.6 131.9q0 9.4.4 23.7l1.7 54.6.4 6.9v1.2q-5.7-1.4-4.7-31.3v-.8q-2.6-47.2 2.1-54.3m-61.3 76.6.2-2.4 1-8.6 1-.6 1-.3q1.5-17.5.8-25.2v-.2q2.2-4.3 1.8-24l-.1-2.2q-1.7-8.4-5-10.5l-.1-7.9q9.8 5.8 28 14.7 19.4-8 .6 38.2l-2.4 6.3q2.8 11.2 4.3 20.3l1 7.2q1.4 14-1.4 21.4-2.8-6.9-10.2-7.7l-1 .3q-4.4 3.4-5.3 9.7l2.5-1.3q5 4.4 11.4 3.5l1.3.9-1-.1-2.1-.1H50l-7.2-1.1q-4.6-1.8-10-3.4l-.3-.1q-4.3-2.1-6.6-4.7l-1-1.1-1-1.6 2-17 2.1 2.4 3 2.4 3.7 11.3-1.3-11.3 1-2.4q1.3-4 1-7.2-.3-5.3-4.5-9.2l-3.5-.3-1.5 14.4zm15.3-68.8-2.3-.4q-5.5 6.7-3.8 20 1.8 5 6.4 7.3.5.3 1.1.3l5-1.3v-22.5q-2.9-2.4-6.4-3.4m10.2 72.2-8.8-1.2-2.5 7.5q1.1 4.6 6.3 3.5l2.5-1q2.8-2.2 2.6-7.4v-.1z"/><path fill="url(#c)" d="m32.6-61.1 1.2-3.4Q46.5-59 45-41.2L49 0l-1.5 1.1V.4q0-7.7-2.5-16.7-2.6-9.4-2.9-25-.1-5.9-3.7-11.3-2.8-4.1-6.2-6.2z" transform="translate(55.55 285.1)"/><path fill="#574902" d="m104.6 285.2.2 1.9v1l-7.6 4.9-9.1 11.6-3.2 1.1-1.6 1.8-3.9.7-2.3 5 .1 5.4-2.7.6L71 312l3-2.5 4.5-3.8 8.8-2.5q4-5.8 8.8-10.6 2.7-2.8 5.7-5.3l1.3-1.1z"/><path fill="#463a02" d="m104.9 288 .8 8.2q-.3 10.1-14.7 17.4-6.3 3.1-13.8 5l-.1-5.4 2.3-5 3.9-.7 1.6-1.8 3.2-1.1 9-11.6z"/><path fill="#696201" d="m74.6 319.2-3.7.6-15.4 1.1q-20.7 0-35.4-7.3-7.9-4-11.5-8.7l2.2-1.6L22 311l1.2 1.4 7 .4 6.2-14.3 1.9-.3 11.5 9.7 9.8-.4 5.9 5.8 7.5-4 1 .3-3 2.4z"/><path fill="#877c02" d="m8.6 304.9-1.3-2 1.6-9.8q7.7 7.5 14.4 15.2 2.2 2.7 6.4 2.5 5.7-14.8 5.7-16.4t15.5 12.7l8.9-1.3 6.2 6.3 4.1-2.7 6.7-4.3 19.3-12.4q-4.8 4.8-8.8 10.6l-8.8 2.5-4.6 3.8-.9-.4-7.5 4.1-5.9-5.8-9.8.4-11.5-9.7-1.9.3-6.2 14.3-7-.4L22 311l-11.2-7.7z"/><path fill="#990" d="M7.3 302.9q-1.8-3.2-1.9-6.7l.7-5.8 2.8 2.7z"/><path fill="#dc9e10" d="m6.1 290.4 5.7-45.8q-2-11.6 7.4-23.1H23v2.5q0 1.7.6 3.2h-1.3q-5.7 0-7.3 8.2-.9 4.3-.9 16.4 0 12.2-5.2 41.3z"/><path fill="#efe7da" d="M23 221.5V217l.5-3.8.6-4.8L26 211l-2 16.9-.2-.7q-.7-1.5-.7-3.2zm2.3-24-.5-63q3.4 2 5.1 10.5l.1 2.2q.4 19.7-1.8 24v.2q.7 7.7-.8 25.2l-1 .3z"/><path fill="#c5a989" d="M77.2 153.7q1.7 1.2 1.7 2.6 0 3-.7 5.6L77 161q-.5 0-1.7 3.5-1.2 3.4-1.2 4.4l-.2-.3-1-6.7q-3-4.6-3-6 0-1.3 1.4-2.2l.8-.4 1.2-.5 1.5-.1q1 0 2.4 1m3.5-7.8q0 3.4-2.8 3.4-1.3 0-2.3-.5l-2.9-2 1.8-1.5 2-1.3 1.8-.3q.9 0 1.6.7t.8 1.5m-14.2 2 3.6-.2.5 1.3-2 1.5-1 1-2.6-.5v-1.1l.5-1.7q.3-.3 1-.3m9.5 45.3.2 2.5q.5 5.6-.2 10.4-.6 3.9-2.1 7.2-1.9 4.3-5.4 7.4-.7 0-.7-.2-1.4-3.7-2.2-7.2-1-3.8-1.3-7.2-1.1-10.6 3-19.2h5z"/><path fill="#6b4d07" d="m87.1 228 .7-1.7q3.4 2.1 6.1 6.2 3.6 5.5 3.8 11.3.2 15.6 2.9 25 2.5 9 2.5 16.7v.8l-1.3 1q-.9-4.6-2.8-11.5-2.3-8.5-1.6-17 1-11.4-2-18.7-2.2-5.5-8.3-12.1m-17 81.4q1.2-5.7 1.5-11.7l.2-7.3q-.3-7.6-1.7-15.6-1-5.6-2.6-11.2l-.9-3v-1l.7-.1q-1.7-4.6-5.4-8.5-3.7-4.1-9.6-7.6-4.2-2.5-9.5-4.6l7.2 1 .5.1q9 2.5 14.3 10.5 3.3 4.8 7.6 15.3l-1-.2-1.6-.5-.3.5 3.7 16q3.6 17 3.6 23.6zm-44.2-78.8-2.5-1.7 1.5.6z"/><path fill="#4e3805" d="M53.6 240h2q13.4 0 23-4.7 6.4-3.2 8.5-7.3 6 6.6 8.3 12.1 3 7.3 2 18.7-.7 8.5 1.6 17 1.9 7 2.8 11.6-3 2.5-5.7 5.3l-19.3 12.4q0-6.6-3.6-23.6l-3.7-16 .3-.5 1.5.5 1.1.3q-4.4-10.6-7.6-15.4-5.4-8-14.3-10.5l2 .1z"/><path fill="url(#d)" d="M-12.7-46.3q5.2 2.1 9.5 4.6 5.8 3.5 9.6 7.6 3.6 3.9 5.3 8.5l-.7.1.1 1 .8 3q1.6 5.6 2.6 11.2 1.4 8 1.7 15.6l-.1 7.3q-.4 6-1.6 11.7l-4 2.6-6.3-6.2-8.8 1.3Q-20.2 7.8-20.1 9.3t-5.7 16.4q-4.2.2-6.5-2.5-6.6-7.7-14.3-15.2 5.1-29.1 5.1-41.3t1-16.5Q-39-58-33.2-58l1.3.1.3.6 1 1.6-1.5-.5 2.5 1.7q2.3 2.5 6.6 4.7l.2.1q5.4 1.6 10.1 3.4m14 26h-6l-1 .2q0 1.5-.5 5.4 0 .5 2.2 1.1l4.9 1.3h2l.5-3.7q0-1.6-1.1-3.3zM2.9 6.5q3.3-1.6 4-4.3l-3.7.1Q.8.2 1.8-4.1l-10 5-2.5-1.2 1 1.4q3 6 9 6 1.8.3 3.5-.6M-27-29.1l1.3 13.8h12.5q3.5-4.5 3.8-12.6l-16.3-3.7zM-37-5.3l-3.8 1.2q-4 8.9 8.8 7.5h1.3l1.2-8.7zm11.3 8.7q-10.4 2.3 0 6.1l1.2.2-1-6.3-.2-1.2z" transform="translate(55.55 285.1)"/><path fill="#93690b" d="m56.9 264.8.9 1q1.1 1.8 1.1 3.3l-.5 3.8h-2l-4.9-1.4q-2.2-.6-2.2-1.1.5-3.9.5-5.4l1-.2zm1.4 26.8q-1.7.9-3.5.6-5.9 0-9-6l-1-1.4 2.5 1.2 10-5q-1 4.3 1.4 6.4l3.6-.1q-.6 2.7-4 4.3M30 288.5h-.2v-1.2z"/><path fill="#b27f0c" d="m28.6 256 1.2-2.5 16.3 3.7q-.3 8.1-3.8 12.6H29.8z"/><path fill="#775507" d="M18.5 279.8H26l-1.2 8.7h-1.3q-12.7 1.4-8.7-7.5zm11.3 8.7h.2l1 6.3-1.2-.2q-10.4-3.8 0-6.1"/><path fill="none" stroke="#271e14" stroke-linecap="round" stroke-linejoin="round" stroke-width="__RESOLUTION__" d="m87 99.3.7 1.4m-63.6-1.4-.6 1.2" vector-effect="non-scaling-stroke"/><path fill="#3d240c" d="M41.7 147.9q1.1 3.1 1.1 6.9l-.1 2.8-1.6-.6v2.2l1.5.6q-.3 1.6-1 2.9-1.2 2-3 1.4-1.7-.7-2.9-3.8-.7-1.8-1-3.7l1.4.5V155l-1.4-.5-.3-3.1q0-3.7 1.3-5.8 1.2-2.2 3-1.5 1.7.7 3 3.8m26.1 47.7q1.3-3.1 3-3.8 1.8-.7 3 1.4T75 199l-.2 3.1-1.5.6v2l1.5-.5q-.4 2-1 3.7-1.2 3.1-3 3.9-1.7.6-3-1.5-.7-1.2-1-2.9l1.5-.6v-2.1l-1.5.6-.2-2.9q0-3.7 1.2-6.8"/><path fill="#74400c" d="m76.2 106.4 7.7 4h.1q.2 3.2-2.1 4.2l-.5.2-2.7.2-.7-3v2.9l-1.9-.2v-8.3z"/><path fill="#896645" d="m83.9 110.4-7.7-4 7.7-4 7.8 3.9z"/><path fill="#000" d="M78 114.9v-2.8l.8 2.9z"/><path fill="#2b1704" d="M81.9 114.6q2.3-1 2.1-4.2v-.1l7.7-4q.5 4.3-9.8 8.3"/><path fill="#896645" d="m95 91.3 7.7-4 7.8 4-7.6 4h-.2z"/><path fill="#2b1704" d="M110.6 91.3q.5 4.2-9.9 8.2 2.3-1 2.2-4.2z"/><path fill="#74400c" d="m100.7 99.5-.4.2q-2 .6-5.4-.1v-8.2l.1-.1 7.7 4h.2q.1 3.2-2.2 4.2"/><path fill="#896645" d="m17.8 107.2 7.8-4 7.7 4-7.6 4h-.2z"/><path fill="#2b1704" d="m17.8 107.2 7.7 3.9q-.2 3.3 2.1 4.3-10.3-4-9.8-8.2"/><path fill="#74400c" d="m25.7 111.2 7.6-4h.1v8.3l-1.9.2v-2.8l-.7 2.9-2.7-.2-.5-.2q-2.3-1-2.1-4.2z"/><path fill="#000" d="m31.6 115.7-.8.1.7-3z"/><path fill="url(#e)" d="m6.7-284.8 1.4 6.2.3 2 .5 2.9-4-11.1zm-7.8 0h.2z" transform="translate(55.55 285.1)"/><path fill="#4d3626" d="m64.5 11.4-.6-2.9-.3-2L62.2.3h.5Q90 36 106.3 83.9q-2.2 6.3-10.5 11.4l-.5.3Q84.6 52.7 64.5 11.4"/><path fill="#58412c" d="m60.4.3 4 11.1q20.2 41.3 30.8 84.2l-3 1.7H92l-4.2 2q-6 2.4-12.8 3.8h-.2l-1.5.3q-6.8 1.2-14.4 1.4h-2.6q-14.6 0-26.1-3.6Q32.7 48.2 54.7.4V.3z"/><path fill="#896645" d="M106.2 83.9Q90 36 62.8.3h1.8q31 36.4 42.2 77.9v2.6q-.1 1.6-.6 3.1M9.5 89.3q-3.4-4-3.8-8.5v-2.6Q9.2 61 13.8 50.6t5.5-9q1.1 1.5 4.5-6.2T52.5.3h2q-29.4 39.8-45 89"/><path fill="#856343" d="M30.2 101.2q-2.9-.9-5.5-2-2.2-.8-4.3-1.9l-.1-.1-3.6-1.9q-4.6-2.8-7.2-6Q25 40.1 54.5.3h.1q-21.9 48-24.5 100.9"/><path fill="#74400c" d="M16 91.3v8.3q-3.4.7-5.4.1l-.4-.2q-2.3-1-2.2-4.2h.2z"/><path fill="#896645" d="m16 91.3-7.7 4h-.2l-7.6-4 7.8-4z"/><path fill="#2b1704" d="M8.1 95.3q-.1 3.2 2.2 4.2Q0 95.5.5 91.3z"/><path fill="none" stroke="#2c2016" stroke-linecap="round" stroke-linejoin="round" stroke-width="1" d="M103.9 302.8q1.6-3 1.8-6.4l-1-9.1-.1-2-4.1-41.2q1.5-17.7-11.2-23.3l-1.2 3.4v-6.9l-.4-7-1.7-54.5q-1-34.2.2-40.3l1.5.2.4-3.3q6.3-4.5 6.9-10.1v-2.5q3.4.7 5.3 0l.5-.1q10.4-4 9.8-8.2h0l-6.5-3.3q1.3-2 2.1-4.1l.6-3v-2.7Q95.7 37 64.6.5H51.9Q26.5 27.9 23.2 35.6q-2.5 5.5-3.7 6.3l-.1-.1q-.3-.3-.7 0-1.1-1.4-5.6 9Q8.8 60.5 5.5 76L5 78.4v2.7l.5 2.6q.6 2.1 2 4.2l-7 3.6h0q-.6 4.2 9.8 8.2l.4.2q2 .6 5.3-.1v2.5q.3 2.6 1.9 5-.5 3.2 5.3 6.2l.2 2.2 1.4 11.1.5 70.9-.9 8.6-.2 2.4-.7 4.8-.5 3.8v4.4h-3.7q-9.4 11.5-7.5 23.1l-6.4 51.6.1 1 .8 3.6M103 95.5l-.2.1zM56 321.1h3.6m25.8-4.9 5.7-2.4.9-.5m1.8-1 2.6-1.6M8.3 95.4h-.2zM22.8 315l4.4 1.8M16.8 312l1.4.8m16 6 3.5.8m9.3 1.2 4 .2"/><path fill="#6b4d07" d="m51.3 323.9 1 2.5q-3.4.7-5.2 2.2-8.5-4.1-9.2-4l-.6-.4-.5-.9-1.5-2.7-3.5.1h-.7q1.2-1.1 2.1-2.4v-.1h.1l3.6 1.6q1.6 4.2 14.4 4.1m-.9-2 .8 1.8q-12.5-3.2-.8-1.8m-13.6-.3 1.8.4z"/><path fill="#990" d="m33.3 318.3.1-.3.1-.2 2.6-1.4 6-1 .1.4-1.9.4 2-.1 5 1.4-3 .9q1.3.7 5.2 1.4l.9 2.1q-11.6-1.4.8 1.8v.2q-12.7 0-14.3-4.1z"/><path fill="#6b4d07" d="m104.7 310.8 2.1 1.6q-2.5 2.4-3.3 4.6l-9.9 1.2-.7-.1-1-.5q-1.4-.7-2.6-1.6l-2.9 1.9-.7.3q.6-1.5.6-3.2h.1l4-.5q3.4 2.8 14.3-3.7m-1.8-1.3 1.6 1.2q-12.3 3.5-1.6-1.2m-11.8 6.7.7-.2z"/><path fill="#990" d="M86.4 315v-.5l1.5-2.5 4.6-3.8.3.2-1.5 1.3q1-.8 1.8-1.1l5-1.4-2.2 2.4q1.5 0 5.2-1.4l1.8 1.3q-10.7 4.7 1.6 1.2l.2.1q-10.9 6.4-14.4 3.7z"/></g><linearGradient id="e" x1="-819.2" x2="819.2" gradientTransform="matrix(.03 0 0 .06 -4.4 -232.6)" gradientUnits="userSpaceOnUse" spreadMethod="pad"><stop offset="0" stop-color="#896645" stop-opacity="1"/><stop offset="1" stop-color="#58412c" stop-opacity="1"/></linearGradient><linearGradient id="d" x1="-819.2" x2="819.2" gradientTransform="matrix(0 .05 -.04 0 -15.2 -14.5)" gradientUnits="userSpaceOnUse" spreadMethod="pad"><stop offset="0" stop-color="#c78e0e" stop-opacity="1"/><stop offset="1" stop-color="#6b4d07" stop-opacity="1"/></linearGradient><linearGradient id="c" x1="-819.2" x2="819.2" gradientTransform="matrix(0 .03 -.01 0 41 -31.9)" gradientUnits="userSpaceOnUse" spreadMethod="pad"><stop offset="0" stop-color="#c78e0e" stop-opacity="1"/><stop offset="1" stop-color="#6b4d07" stop-opacity="1"/></linearGradient><linearGradient id="b" x1="-819.2" x2="819.2" gradientTransform="matrix(.03 0 0 .06 -5.1 -232.55)" gradientUnits="userSpaceOnUse" spreadMethod="pad"><stop offset="0" stop-color="#896645" stop-opacity="1"/><stop offset="1" stop-color="#58412c" stop-opacity="1"/></linearGradient><linearGradient id="a" x1="-819.2" x2="819.2" gradientTransform="matrix(-.01 0 -.02 -.06 22.9 -236.6)" gradientUnits="userSpaceOnUse" spreadMethod="pad"><stop offset="0" stop-color="#896645" stop-opacity="1"/><stop offset="1" stop-color="#58412c" stop-opacity="1"/></linearGradient><clipPath id="f"><path d="M1 1h126v371H1z"/></clipPath></defs><g clip-path="url(#f)"><g transform="translate(62.5 328.3)"><use xlink:href="#g" width="111.1" height="328.6" transform="translate(-55.55 -285.1)"/><use xlink:href="#h" width="17.2" height="17.5" transform="matrix(-1.2083 .0661 -.7815 1.332 63.8 -221.1)"/><use xlink:href="#h" width="17.2" height="17.5" transform="matrix(-1.2083 .0661 -.5607 1.3199 60 -234.15)"/><use xlink:href="#h" width="17.2" height="17.5" transform="matrix(-1.1274 .0617 -.263 1.2173 52.15 -246.85)"/><use xlink:href="#h" width="17.2" height="17.5" transform="matrix(-1.1274 .0617 -.0444 1.2053 40.95 -259.15)"/><use xlink:href="#i" width="17.2" height="17.5" transform="matrix(-1.1815 -.2673 -.6776 1.273 51.45 -212.2)"/><use xlink:href="#j" width="17.2" height="17.5" transform="matrix(-1.1815 -.2673 -.4897 1.3155 46.95 -226.6)"/><use xlink:href="#j" width="17.2" height="17.5" transform="matrix(-1.1815 -.2673 -.4897 1.3155 42.55 -241.75)"/><use xlink:href="#j" width="17.2" height="17.5" transform="matrix(-1.1815 -.2673 -.2863 1.3615 36.1 -257.05)"/><use xlink:href="#k" width="17.2" height="17.5" transform="matrix(-1.1274 -.1396 -.0444 1.1974 31.05 -270.7)"/><use xlink:href="#k" width="17.2" height="17.5" transform="matrix(-1.1274 -.1396 .2605 1.2352 19.6 -283)"/><use xlink:href="#l" width="17.2" height="17.5" transform="matrix(1.2083 .0661 .7815 1.332 -61.5 -219.85)"/><use xlink:href="#l" width="17.2" height="17.5" transform="matrix(1.2083 .0661 .5607 1.3199 -57.7 -232.9)"/><use xlink:href="#l" width="17.2" height="17.5" transform="matrix(1.1274 .0617 .263 1.2173 -49.85 -245.6)"/><use xlink:href="#l" width="17.2" height="17.5" transform="matrix(1.1274 .0617 .0444 1.2053 -38.65 -257.9)"/><use xlink:href="#m" width="17.2" height="17.5" transform="matrix(1.1815 -.2673 .6776 1.273 -49.7 -209.3)"/><use xlink:href="#m" width="17.2" height="17.5" transform="matrix(1.1815 -.2673 .4897 1.3155 -45.2 -223.7)"/><use xlink:href="#m" width="17.2" height="17.5" transform="matrix(1.1815 -.2673 .4897 1.3155 -40.8 -238.85)"/><use xlink:href="#m" width="17.2" height="17.5" transform="matrix(1.1815 -.2673 .2863 1.3615 -34.35 -254.15)"/><use xlink:href="#n" width="17.2" height="17.5" transform="matrix(1.1241 -.4682 .8328 1.1523 -37.1 -202.75)"/><use xlink:href="#n" width="17.2" height="17.5" transform="matrix(1.1241 -.4682 .654 1.2267 -34.6 -217.85)"/><use xlink:href="#n" width="17.2" height="17.5" transform="matrix(1.1241 -.4682 .654 1.2267 -32.35 -233.7)"/><use xlink:href="#n" width="17.2" height="17.5" transform="matrix(1.1241 -.4682 .4605 1.3073 -28.05 -250.1)"/><use xlink:href="#m" width="17.2" height="17.5" transform="matrix(1.1274 -.1396 .0444 1.1974 -29.5 -269.55)"/><use xlink:href="#n" width="17.2" height="17.5" transform="matrix(1.1274 -.1396 -.2605 1.2352 -18.05 -281.85)"/><use xlink:href="#n" width="17.2" height="17.5" transform="matrix(1.0886 -.2634 .9334 1.0836 -24.1 -202.6)"/><use xlink:href="#n" width="17.2" height="17.5" transform="matrix(1.0886 -.2634 .9334 1.0836 -25.1 -214.5)"/><use xlink:href="#n" width="17.2" height="17.5" transform="matrix(1.0886 -.2634 .8057 1.1145 -24.7 -225.1)"/><use xlink:href="#n" width="17.2" height="17.5" transform="matrix(1.0886 -.2634 .7213 1.1349 -23.65 -239)"/><use xlink:href="#n" width="17.2" height="17.5" transform="matrix(1.0886 -.2634 .7213 1.1349 -23.15 -251.65)"/><use xlink:href="#n" width="17.2" height="17.5" transform="matrix(1.0344 -.4308 .273 1.2657 -19.5 -265.45)"/><use xlink:href="#k" width="17.2" height="17.5" transform="matrix(-1.1241 -.4682 -.8328 1.1523 39.6 -203.75)"/><use xlink:href="#k" width="17.2" height="17.5" transform="matrix(-1.1241 -.4682 -.654 1.2267 37.1 -218.85)"/><use xlink:href="#o" width="17.2" height="17.5" transform="matrix(-1.0886 -.2634 -.9334 1.0836 28.3 -203.8)"/><use xlink:href="#o" width="17.2" height="17.5" transform="matrix(-1.0886 -.2634 -.9334 1.0836 27.6 -215.4)"/><use xlink:href="#k" width="17.2" height="17.5" transform="matrix(-1.1241 -.4682 -.654 1.2267 34.85 -234.7)"/><use xlink:href="#o" width="17.2" height="17.5" transform="matrix(-1.0886 -.2634 -.7001 1.1401 23.1 -226.1)"/><use xlink:href="#k" width="17.2" height="17.5" transform="matrix(-1.1241 -.4682 -.4605 1.3073 30.55 -251.1)"/><use xlink:href="#o" width="17.2" height="17.5" transform="matrix(-1.0874 -.2682 -.7262 1.1318 24 -238.95)"/><use xlink:href="#o" width="17.2" height="17.5" transform="matrix(-1.0874 -.2682 -.7262 1.1318 23.8 -251.6)"/><use xlink:href="#k" width="17.2" height="17.5" transform="matrix(-1.0344 -.4308 -.273 1.2657 22 -266.45)"/><use xlink:href="#n" width="17.2" height="17.5" transform="matrix(1.0344 -.4308 .8905 1.0085 -16.55 -261.95)"/><use xlink:href="#p" width="17.2" height="17.5" transform="matrix(-1.0072 -.4195 -.2658 1.2324 16.85 -275.95)"/><use xlink:href="#n" width="17.2" height="17.5" transform="matrix(1.0072 -.4195 .2658 1.2324 -15.15 -276.95)"/><use xlink:href="#q" width="114.5" height="56.5" transform="matrix(.0398 .9001 -1.1189 .1187 51.15 -296.95)"/><use xlink:href="#r" width="104.8" height="295.1" transform="translate(-52.8 -327.3)"/></g></g></svg>