<svg xmlns="http://www.w3.org/2000/svg" xmlns:xlink="http://www.w3.org/1999/xlink" width="43" height="105" viewBox="0 0 43 105"><defs><clipPath id="a"><path d="M1 1h41v103H1z"/></clipPath><g id="b"><path fill="#c17b4b" d="m40.9 36.4.1-.1z"/><path fill="none" stroke="#ffea97" stroke-linecap="round" stroke-linejoin="round" stroke-width="__RESOLUTION__" d="M31.9 16v81l.3.2m-.3 5.7V97l-13-6.7v4.2M6 35.8l13 6.7V28.8L6 22.1zV70l13 6.7V42.5l13 6.7M6.1 28.8q0-2.7 1.8-3.7t4.4.4 4.6 4.2q1.8 2.9 1.8 5.6T16.9 39t-4.6-.4T8 34.4t-1.8-5.6m12.9 0V16m2 16q1.8-1 4.4.3t4.5 4.3q1.8 2.8 1.9 5.6-.1 2.7-1.9 3.7t-4.4-.3-4.6-4.2q-1.8-3-1.7-5.7Q19 32.9 21 32M6 8.4V22m-.4 61.3.3.2V70l-.4-.3M19 90.3 6 83.6v4.9m0-11.8q0-2.8 2-3.7t4.4.3q2.7 1.4 4.6 4.3 1.8 2.8 1.8 5.6T17 86.9t-4.6-.5T8 82.3q-1.8-2.8-1.8-5.5m19.4 3.5q2.6 1.3 4.4 4.2 1.8 2.8 1.9 5.6-.1 2.8-1.9 3.8t-4.4-.4-4.6-4.2-1.7-5.7q-.1-2.7 1.8-3.7 1.8-1 4.4.4m-6.5 10V76.7l12.9 6.6m0-47.8-13-6.7" vector-effect="non-scaling-stroke"/><path fill="#bcaf9c" d="M33 13.8h.3L33 25.3l-1.6.8v-1.5l-.1-1.4q-.7-5.2-4.6-4V17z"/><path fill="#f2f0ec" d="M33 13.8 26.9 17 0 3.2 6.1 0z"/><path fill="#dcd6cd" d="M26.8 17v2L4.1 7.4l-4-2.2-.1-2z"/><path fill="#c0b6a5" d="M26.8 19q3.8-1.1 4.6 4.1L4.7 9.3l-.5-2z"/><path fill="#d5cdc1" d="m31.4 23.1.1 1.4V26L5.8 12.5l-.9-.3q0-1.7-.2-3z"/></g></defs><g clip-path="url(#a)"><use xlink:href="#b" width="41" height="102.9" transform="translate(1 1)"/></g></svg>