<svg xmlns="http://www.w3.org/2000/svg" xmlns:xlink="http://www.w3.org/1999/xlink" width="4" height="173" viewBox="0 0 4 173"><defs><radialGradient id="z" cx="0" cy="0" r="819.2" gradientTransform="matrix(-.02 0 0 .02 21.7 139.2)" gradientUnits="userSpaceOnUse" spreadMethod="pad"><stop offset="0" stop-color="#4d110b"/><stop offset=".7" stop-color="#9a423b"/><stop offset="1" stop-color="#b5705d"/></radialGradient><radialGradient id="y" cx="0" cy="0" r="819.2" gradientTransform="matrix(-.01 0 0 .01 39.2 61.05)" gradientUnits="userSpaceOnUse" spreadMethod="pad"><stop offset="0" stop-color="#250000"/><stop offset="1" stop-color="#4d110b"/></radialGradient><radialGradient id="x" cx="0" cy="0" r="819.2" gradientTransform="matrix(-.07 0 0 .07 30.7 90.55)" gradientUnits="userSpaceOnUse" spreadMethod="pad"><stop offset="0" stop-color="#250000"/><stop offset="1" stop-color="#4d110b"/></radialGradient><radialGradient id="w" cx="0" cy="0" r="819.2" gradientTransform="matrix(-.02 0 0 .02 21.85 39.95)" gradientUnits="userSpaceOnUse" spreadMethod="pad"><stop offset="0" stop-color="#974039"/><stop offset="1" stop-color="#dc9a80"/></radialGradient><radialGradient id="v" cx="0" cy="0" r="819.2" gradientTransform="matrix(-.05 0 0 .05 22.3 58.1)" gradientUnits="userSpaceOnUse" spreadMethod="pad"><stop offset="0" stop-color="#974039"/><stop offset="1" stop-color="#dc9a80"/></radialGradient><radialGradient id="u" cx="0" cy="0" r="819.2" gradientTransform="matrix(-.02 0 0 .02 26.95 41.1)" gradientUnits="userSpaceOnUse" spreadMethod="pad"><stop offset="0" stop-color="#974039"/><stop offset="1" stop-color="#dc9a80"/></radialGradient><radialGradient id="t" cx="0" cy="0" r="819.2" gradientTransform="matrix(0 0 0 0 34.45 24.55)" gradientUnits="userSpaceOnUse" spreadMethod="pad"><stop offset="0" stop-color="#4d110b"/><stop offset=".6" stop-color="#974039"/><stop offset="1" stop-color="#dc9a80"/></radialGradient><radialGradient id="s" cx="0" cy="0" r="819.2" gradientTransform="matrix(-.02 0 0 .02 19.15 34.9)" gradientUnits="userSpaceOnUse" spreadMethod="pad"><stop offset="0" stop-color="#974039"/><stop offset="1" stop-color="#dc9a80"/></radialGradient><radialGradient id="r" cx="0" cy="0" r="819.2" gradientTransform="matrix(-.02 0 0 .02 25.2 21.95)" gradientUnits="userSpaceOnUse" spreadMethod="pad"><stop offset="0" stop-color="#4d110b"/><stop offset=".6" stop-color="#974039"/><stop offset="1" stop-color="#dc9a80"/></radialGradient><radialGradient id="q" cx="0" cy="0" r="819.2" gradientTransform="matrix(-.01 0 0 .01 32.75 14.25)" gradientUnits="userSpaceOnUse" spreadMethod="pad"><stop offset="0" stop-color="#4d110b"/><stop offset=".6" stop-color="#974039"/><stop offset="1" stop-color="#dc9a80"/></radialGradient><radialGradient id="p" cx="0" cy="0" r="819.2" gradientTransform="matrix(-.12 0 0 .12 26.2 131.3)" gradientUnits="userSpaceOnUse" spreadMethod="pad"><stop offset="0" stop-color="#974039"/><stop offset="1" stop-color="#dc9a80"/></radialGradient><radialGradient id="o" cx="0" cy="0" r="819.2" gradientTransform="matrix(-.08 0 0 .08 10.3 140)" gradientUnits="userSpaceOnUse" spreadMethod="pad"><stop offset="0" stop-color="#974039"/><stop offset="1" stop-color="#dc9a80"/></radialGradient><radialGradient id="n" cx="0" cy="0" r="819.2" gradientTransform="matrix(-.06 0 0 .06 14.2 89)" gradientUnits="userSpaceOnUse" spreadMethod="pad"><stop offset="0" stop-color="#974039"/><stop offset="1" stop-color="#dc9a80"/></radialGradient><radialGradient id="m" cx="0" cy="0" r="819.2" gradientTransform="matrix(-.08 0 0 .08 35.15 95.45)" gradientUnits="userSpaceOnUse" spreadMethod="pad"><stop offset="0" stop-color="#4d110b"/><stop offset="1" stop-color="#9a423b"/></radialGradient><radialGradient id="l" cx="0" cy="0" r="819.2" gradientTransform="matrix(-.06 0 0 .06 9.05 118.2)" gradientUnits="userSpaceOnUse" spreadMethod="pad"><stop offset="0" stop-color="#974039"/><stop offset="1" stop-color="#dc9a80"/></radialGradient><radialGradient id="k" cx="0" cy="0" r="819.2" gradientTransform="matrix(-.01 0 0 .01 54.65 28.35)" gradientUnits="userSpaceOnUse" spreadMethod="pad"><stop offset="0" stop-color="#4d110b"/><stop offset=".6" stop-color="#974039"/><stop offset="1" stop-color="#dc9a80"/></radialGradient><radialGradient id="j" cx="0" cy="0" r="819.2" gradientTransform="matrix(-.01 0 0 .01 51.6 13.9)" gradientUnits="userSpaceOnUse" spreadMethod="pad"><stop offset="0" stop-color="#4d110b"/><stop offset=".6" stop-color="#974039"/><stop offset="1" stop-color="#dc9a80"/></radialGradient><radialGradient id="i" cx="0" cy="0" r="819.2" gradientTransform="matrix(-.01 0 0 .01 32.5 13.15)" gradientUnits="userSpaceOnUse" spreadMethod="pad"><stop offset="0" stop-color="#4d110b"/><stop offset=".6" stop-color="#974039"/><stop offset="1" stop-color="#dc9a80"/></radialGradient><radialGradient id="h" cx="0" cy="0" r="819.2" gradientTransform="matrix(-.13 0 0 .13 13.35 145.3)" gradientUnits="userSpaceOnUse" spreadMethod="pad"><stop offset="0" stop-color="#974039"/><stop offset="1" stop-color="#dc9a80"/></radialGradient><radialGradient id="g" cx="0" cy="0" r="819.2" gradientTransform="matrix(-.03 0 0 .03 21.85 152.9)" gradientUnits="userSpaceOnUse" spreadMethod="pad"><stop offset="0" stop-color="#dc9a80"/><stop offset=".3" stop-color="#85342e"/><stop offset=".7" stop-color="#4d110b"/><stop offset="1" stop-color="#250000"/></radialGradient><radialGradient id="f" cx="0" cy="0" r="819.2" gradientTransform="matrix(-.01 0 0 .01 29.15 143.6)" gradientUnits="userSpaceOnUse" spreadMethod="pad"><stop offset="0" stop-color="#250000"/><stop offset=".7" stop-color="#4d110b"/><stop offset="1" stop-color="#9a423b"/></radialGradient><radialGradient id="e" cx="0" cy="0" r="819.2" gradientTransform="matrix(-.02 0 0 .02 28.95 149.1)" gradientUnits="userSpaceOnUse" spreadMethod="pad"><stop offset="0" stop-color="#250000"/><stop offset=".5" stop-color="#4d110b"/><stop offset="1" stop-color="#974039"/></radialGradient><radialGradient id="d" cx="0" cy="0" r="819.2" gradientTransform="matrix(-.1 0 0 .11 48.15 49.45)" gradientUnits="userSpaceOnUse" spreadMethod="pad"><stop offset="0" stop-color="#4d110b"/><stop offset=".5" stop-color="#250000"/><stop offset=".8" stop-color="#4d110b"/><stop offset="1" stop-color="#9a423b"/></radialGradient><radialGradient id="c" cx="0" cy="0" r="819.2" gradientTransform="matrix(-.01 0 0 .01 44.25 113.95)" gradientUnits="userSpaceOnUse" spreadMethod="pad"><stop offset="0" stop-color="#dc9a80"/><stop offset=".3" stop-color="#85342e"/><stop offset=".7" stop-color="#4d110b"/><stop offset="1" stop-color="#250000"/></radialGradient><radialGradient id="b" cx="0" cy="0" r="819.2" gradientTransform="matrix(-.01 0 0 .01 44.25 113.95)" gradientUnits="userSpaceOnUse" spreadMethod="pad"><stop offset="0" stop-color="#dc9a80"/><stop offset=".5" stop-color="#9a423b"/><stop offset="1" stop-color="#4d110b"/></radialGradient><clipPath id="B"><path d="M1 1h2v171H1z"/></clipPath><use xlink:href="#a" id="C" width="57.2" height="170.8"/><g id="a"><path fill="#dc9a80" d="M47.1 2.1 53 4.9l.5 5.9 1.6 7.4-1.4-3.8-1.4-8.5zl1.3 2.2 3.9 6.4 1.4 3.7 1.4 3.8 1.2 3.2.9 7.2-1-.5-.4-4.2-.1-1.5-4.9-8.9 3.3 4.6-2.6-6.5-.2-.7L47 2.2zm3.2 47-1.7 60.5-1.4.7L49 60.9zm-13.2 78.7v2.9l-1.6 4.2-.9 5.2 1.9 1.3v1.9l-.9 1.4.8.7v1.3h.9l2.4 2v1.5L45 154l.3 1-7.5-4.2V149l-1.9-1.2h-2.8l1.5-1.1V145l-1 .4 1.5-2.2v-1.3l-1.3.4v-.9l2-10.8-.5-2zm-22.2 20-.9-.1zM10.2.3 23.4 5l1 .7 1 .8 5.5 4.6.7 2.3L23.2 6 11.4 1.3zm11.4 2 3.8 1.6 2.4 1.9h-.1l-3.4-1.6zM28.1 6l3.5 3.4v2.1L28 6.1zm1.1-.7-1.9-2.8 4.1 4.3 4.6 3.8.9 2.8-2-3zm8.2 7.9.8-3-.4 8.2.1.3v.7l-.9 2.4.4 1.5 1.4.5 5.3-4.7-.2 1-4.7 4.4-.6-.2-1.5-.6-.4.7v-1.5l.4-.2-.4-.7 1-3v-.1l-1.6-3.1-.7 1-.5.3.4-2.4-.2-.8-.6-2.6 1.6 4.4 1.6 2.7zm-5.7 45.9L27 72.5l-.7-.2zm9.3-30-7.6 17.4-.3-.2zM29.5 76.8 41 43.7 30.6 76.3l-.2.7zm-8.4-50 .8-.3.6.2 2.9 1-.1.3-5.4-.6zM32 23.7h1.5l1.1 2.3-1.1-.4-1.1-.3zm4-7.9.1-.1zm1.3 7.5-.2.4zm-7.2 53.6"/><path fill="#9a423b" d="m47.1 2.2 5.3 3.6 1.3 8.6-1.5-3.7.1-.1-1.1-4.3-2.8-2zm.1 108-.8.5-1.6 1.1-1.6 1.2L49 60.9zM24.4 5.7l1.1.5-.1.3zm3.4 0 .3.3-.1.1 3.6 5.4.9 1.7.1 4.1-.6-2-4.8-5.1-.3-.3.3.3 4.4 7.6-.4-.4-2.4-2.3.3 1.7-1-.6v1l-2.9-7.3-6.1-5.5 1.1 4.1-8.8-7.2L23.2 6l8.4 7.5-.7-2.4-3.6-4.8-3-2.1 3.4 1.6m3.9 3.6.4.4-.4.3zm5.3 4 .5-1.5v1.7l.1-.4.4 5.2-1.7-2.7-1.6-4.3.3-1zM44.2 1l.6-.8h1l1.3 2-.1.1 4.3 8.7.3.7-.9.3-4-6.5L45.6 1zm6.6 12.7 4.9 8.9.1 1.6H55l-3.7-5.4-1.6-4.7zm-7.4 9.4-1.1 3.8-1.1 2.4-8 17.2L15 85.4l3.4-10 3.1-6.2L34.6 38l1.1-1.7zm4.8 8.9.1 3.7-.8 3.9-1.6 1.5zM9 136.2l3.6-15.4 8.3-23 24.2-72.3L41 43.7l-11.4 33zM34.4 14.1l.8-.2.1.8-.9 2.7zm-6 .8.4.2zm-2.9 12.7-.1.3-5.4-.5-3.3 5.7.6.7 3-3.6 1.6-1.3h2.7l.8-1zm1.1-2-1-1h3.6l1.3-.4.4 2.8-9 12.9-.2-1.5 3.8-6 .7-1v-1.3L20 36.8l-.9-1 8.8-8.5 3-.2-3.6-1.7zm7 0 1.1.3-9.6 18.5 11-19-2 5.4L27.3 44l-1.5 3-4.6 8.9-1.3 2.1 3.3-9.4-.4-2.7zM30.4 77l.2-.7-.2.5z"/><path fill="#4d110b" d="m57.2 28.6-3.2 3-1.5-1v-2.7L49 30.5V19.9l2.7.9-1.4-1.4-3-10 .4 8.9-.6 5.4-1 3.5.9-20.3.2.8.1.8v.9l1.5.3-1.6-2-.2-.8-.3-1.6 4 6.6-2.2-1.3 1.1 3.4 1.7 4.6L55 24l-3.1-2.6-.7 5.5 1.8-2 .8 4.4 2.4-1.2zm-4.5 4.2L50.5 45l-.2 4L49 61l-5.8 52-5 3.7-1.9 1.9.9-2.3q5.8-17.9 11-52.5L50 39.7l.3-4.6zm-36.9 115-.9-.2zm-3.6-2.9-1.5.8H6.8l-4.3-1L21.2 90l-.3-.2 2.4-6.5.5.3 4.8-12.8 16.5-48.6 1 5-6.5 22.6 1.4-6.1 4-18.3-24 72.5-8.3 23-3.5 15.4-.3 8.7 21.5-68v-.2l.2-.5v.1l-7.2 28.3-2.9 10.4zm-9-10.7H3l3.3-19.7L21 75.7l.1-.2v-.1l1.9-4.2Q28.4 59 33.5 46.5L41.1 29l1.1-2.5-30.8 79-1.2 5.5-3 13.2-2.7 6.5zM5.4 99l3.4-10.9 5.9-12.6 6.8-14.7 2-4.3 2.3-4.1L15.4 76zm9-23.7-1.7-2.5-.6-1.1 3.3-5.8-2-3.8-3.5-4.5 2.4-3-1-1.4v-1.7L9 48l2.4-4.3-4.2-5.5v-6.4l1.4-2.6 3.8-2.9 3 .9-3.6.4-3.9 4.3v6.2l4 4.7.3.1-2.2 5.3 2.2 3.3v1.1l.7 1.3 1.9-2.5.3.1-4.3 6.4 2.5 2.9 2.3-2.4-1.4 3.8 1.6 3-.4.7.3.1-3 5.7 1.9 3.5zm3.9-47.1 1.6-.8-1.4-1-3.6-3.1-1.2-4.2-1.2-1.7 2 2 1.1 3.8 3.7 2.9-1.4-2.9-1-.5.5-.4 4.2 1.9 1 1-.2-1.2-.5-.5.1-.4.6-.9v-.9l.7-.7 1.1-1.2.6-.5v-.7l1.2-.4 1.3-.4.6-.2-2.9-7.3-6.1-5.5 1.1 4.1-8.8-7.2-1.2-1-.8-.3 5 6 .7 1.8v3.9l.6 1.4 1.6 2-1.4-4.7-.6-3.6-5-6.1L15 5.1l1.7 2.8 1 2.4 4.9 5.7v-5.6l2.8 4.7.9 2.7 1.3-.4-2.2 4.6-.8-.1-1.2 1 2.3 1.9 1 .8-1 2h-.1l-3-.9v-.4l-.5-.6-1-1-1.1-.6-1.1-.6v.6l1 1.9h1.3l.8.5-.6.3-.4-.2h-.7l-.8-.5h-.1l.9.5h.8l.3.2-1.4.6-3.2 5.7.6.7 3-3.6 1.6-1.3h2.7l-2.9 3-.2-.3-10.2 7.2-1.3-2.7 2.8-6 2.4-.6zM14.9 18l-.3-.6-1.6-1.1.2-.2 2.2 1.4 2.2 2.9zm.3-2-.7-.9-.8-1.3-.9-2.9h.1l1.5 3.2 3.2 3.7zm10.3-9.7-3.9-4 2.6 1.9 3.1 2.1 3.6 4.8-5.5-4.6zm22.9-2 2.8 2 1.1 4.3zm-7.6 2.3h1l1.7-.8h.9L46.2 7l-.5 3.3-1-2.8V9h-2.5zM44 20.2l-.6 2.7-7.7 13.4-1.1 1.7-2.7 3.9 5.4-11.4.6-1.9.8-2.2zm4 7.8.2 3.8-2.3 9-3.9 16 2-14 .6-5zm-14.7-9.9 1.1-4v3.3l.6-.3.4-2.4-1 2.7v.5l-1.2 1.4-1.6-1.5-4.4-7.6 4.8 5.1.6 2 .6 2zm-4.2-1.3-.4-1.7 2.5 2.3h-1.1zm-4.7 2.6-1.1 1.2-3.9-5.7zM22 23.1l-.1.4h-.1zm6-.5 4.1 1.1.4 1.6h-.6l-1 1.8-.4-2.8zm8.4-2.3 1.4-1.4-1 3 .4.8-.5.2-.8.4.9-1.1v-1.6zm-.2 5.3.6-1.2.5-.6 1.4.4-17.1 34.4-7.4 13.9-.4-1.1L21.4 56h-.2l4.6-9 1.5-2.9 6.8-13.2zM32 41.9l2.7-4-13.1 31.4-3.1 6-3.3 10.1-3.4 10.1-2.4 4.8-4 7.9-1.5-.8H4l25-60.3zM31 27l1-1.8h.6l1.1.3-11 20.5.4 2.7-3.2 9.4-3.2 5.6-.2-2.7 4.2-11.6-7 8.9-.7-.6 11.1-19.2 1.5-2zm-11.7 8.7.8 1-.4.5-6 4.7.3-2.5 4.4-4.6zm.4 1.5.5-.5 6.2-6.6v1.3l-.7 1-12.7 14-.9-1.2zm2 1.2L22 40l.2 1.4L21 43l-5.3 4.5 1.5-1.9zM12 42.8l-.5.9zm1 11.1-.6.6zm-4 91.8v-.8z"/><path fill="#250000" d="m54 31.6-1.3 1.2-2.4 2.4V35l-3.7 8 .9-3.7.8-3.9-.1-3.7L48 28l-.3-9.7-.4-8.9 3 10 1.4 1.4-2.7-.9v10.6l3.5-2.6v2.7zM25.8 145l.5 1.3-1.9 3.8v2.7H22l-2 4.4-4.4 5.5v3.6L9.4 168v-4.7l5.2-11.4 1.2-3.4v-.6l4.3.7 2.8-.7.4-2.4zm-23.3-.4-2.5-3 3.2-7.5 1.3-3.3 2.8-6.6q7-17 13.6-34.4h.3zm.5-10.5-2.6-1.8v-4.7l5-19.4v-.1l3.9-7.9 2.4-4.8 8.7-18.3.6-1.5-14.7 38.8zm.6-26.8v-2.9l2-5.4 9.8-23L26 52.4l3-5.3-25 60.4zm11-31.9-.4-.2h.2l-1.9-3.6 3-5.7-.3-.1.3-.7-1.5-3 1.4-3.8-2.2 2.4-2.7-3 4.4-6.2-.3-.2-2 2.5-.7-1.2v-1.2L10 48l2.3-5.2-.4-.1-4-4.7v-6.2l3.9-4.3 3.5-.4 3 1-3 1.3-2.5.6-2.8 6 1.3 2.7 10.1-7.2.3.3-3.4 3-4.5 4.6-.2 2.5 6-4.7-7.7 8 .9 1.2 12.7-14-3.9 6-4.5 7.1-1.5 1.9 5.3-4.5-6.1 8.4 6-8.4 1.3-1.6 2-2.9L13 57.8l.7.6 7-9L16.5 61l.2 2.7-1 1.5 1-1.5 3.2-5.6 1.3-2.1h.2l-7.6 15.4.4 1.1 7.4-13.9v2.1zm-2.2-58.1 2.8 1.2-.4-.6 2.7 2.4-2.3-2.8L13 16l-1.1-.5 1 .7.2-.2 1 .5 1.8.3-.7-.9 2.3 1.8-3.2-3.7-1.5-3.2-.2-.3.1.3h.1l1.7 2.2 1.3.6-.2-.6 1.6 2-1.4-4.7-.6-3.6-4.9-6L15 5.1l1.7 2.8 1 2.4 4.9 5.7v-5.6l2.8 4.7.9 2.7-1.2.3v.8l-.6.5-5-4.4 3.9 5.6-.7.7v.9l-.6.9-.2.3v.1l.6.5.2 1.2-1-1-4.2-2-.5.5 1 .6 1.4 2.8-3.7-2.9-1.1-3.8zM44.1 19l1.3-7-.7-.7v-1.2l-2.6-.3-1.7-1L39 7.2 41.4.8l.7-.7 2.1.8 1.4.2 1.1 4.3.3 1.5-.9 20.3-1-5-16.5 48.6-4.8 12.8-.5-.2 2-5.4 1.8-5.5 4.7-13.4 2.6-7.5v-.1l4.1-12.8v-.1l3.8-12 1.1-3.7.6-2.7zm1.1-13.3h-.9l-1.6-1.2V2.2v2.4l1.6 1.2zm-.9 0h-1l-1.5.8h-1.1l1.4 2.3h2.5V7.5l1 2.8L46 7zm-2.9-.9 2 .9zm3.3 4v1.3zm2.6.4v-.8l-.2-.8 1.6 2zm-1.6.8-.3 1.9zm4.7 21.5-.2 3.3zm-28.4-5-1-.5h-1l-1.1-1.9v-.6l1 .6 1.1.6 1.1 1 .4.6.2.4zm-1.3-3.8 1.1.8zm-6.8 16.8L12 42.8zM20.7 26l-.8-1v-1 .8zm-1-4.6 2.3 1.7zM33 129.9l2.3-1.3.5 2-2 10.8h-1.6z"/><path fill="url(#b)" d="m44.8 111.8.1 1.1-1.7.1z"/><path fill="url(#c)" d="m44.9 112.9.6 10-8-3-1.1-1.3 1.9-1.9 4.9-3.7z"/><path fill="url(#d)" d="m45.6 122.9-.6.6-8 4.2-1.7.9-2.3 1.3-5.4 3.1L43 66l7-26.3-1.7 24Q43 98.5 37.2 116.4l-.9 2.3 1.2 1.3z"/><path fill="url(#e)" d="m45.3 154.9.4 1v.8l-5.7.6-6-3.7h-4l-2.6-1.6v-5.9l.9-1.4 1.8-.4 1.9-.8.1-2.2 1.7.1v.9l1.3-.5v1.3l-1.6 2.3 1.1-.4v1.7l-1.5 1.1h2.8l1.9 1.2v1.7z"/><path fill="url(#f)" d="m28.3 144.7-2.5.4-2.6.3-2.4.5 1.1-5.9 2.5 1 5.4.8 2.2 1.7-2 .8z"/><path fill="url(#g)" d="M24.5 152.9v2.7l-1.2 2.8-3.3 2.4-1 3.5-2.9 5.2-4.8 1.3-1.7-.6-.2-.1v-2.2l6-1.5v-3.6l4.5-5.5 2-4.4z"/><path fill="url(#h)" d="m14 147.5-.9-1.3L43.7 41.5l-.5 2.1L40.8 54l-2.1 7.9-23.8 85.7z"/><path fill="#772b25" d="m13.1 146.2-.9-1.3 8.3-29.8 2.9-10.3 7.2-28.4v-.2L41 43.7l-1.4 6.1 6.5-22.5 1-3.5.6-5.4.3 9.7-3.4 9.9-.6 5-.8.7.5-2.1zM42.3 26.7l-3.7 11.9-4.2 12.9v.1l-2.6 7.5-5.4 13.2L10.3 111l1.1-5.4zM39 52.3l.6-2.5z"/><path fill="url(#i)" d="m32 9.9-.8-1.7-2-2.9 5.7 5.1-.2 1 .5 2.5-.8.2-1.1 4 .3-3.5-1.1-1.4-.9-1.7v-1.3z"/><path fill="url(#j)" d="M51.6 11.6 54 18l-3-4.5-1.2.4-1.2-3.3 2.3 1.3z"/><path fill="url(#k)" d="m55.9 24 .3 4.1-2.4 1.1L53 25l-1.9 2 .8-5.4L55 24z"/><path fill="url(#l)" d="M27.2 72.6 25.3 78l-2 5.3-2.4 6.5q-6.5 17.5-13.6 34.5l3-13.2 16-38.8z"/><path fill="url(#m)" d="m47.5 39.4-.9 3.8 3.6-8-24.8 99.1-5.9 3.9q12.4-37 20-76l1.4-8.2 2.3-10.4.8-.7-2 13.9 3.9-16z"/><path fill="url(#n)" d="M33.5 46.5Q28.4 59 23 71.2l-1.9 4.2v.1l-.1.2-.6 1.5-8.7 18.3 3.4-10.1 18.1-39.1z"/><path fill="url(#o)" d="m9 136.2 20.6-59.4.8.2-21.6 67.9z"/><path fill="url(#p)" d="m50.3 35.2-.3 4.5L43 66l-15.4 67-2.2 1.3z"/><path fill="url(#q)" d="m32.5 13.2 1 1.4-.2 3.5-.1 1.1-.6-1.9z"/><path fill="url(#r)" d="M28.2 17.2v-1l.9.6 1 .6h1.1l.4.4 1.6 1.4 1.2-1.3v-.5l.6-.3.5-.4.6-.9 1.7 3.1-1.4 1.4-1.6 1.6-1.1 1.9-1.6-.1-4.1-1-.6-.4-2.1-.4 2.1-4.5z"/><path fill="url(#s)" d="m25.6 27.7 1-2 .6-.3L31 27l-3 .1-8.7 8.6-1-1 3.5-2.9 2.9-3 .8-1z"/><path fill="#000" d="m25.7 24.8-2.4-1.9 1.2-1h.8l2 .4.7.3 2.5 1.7-1.2.4zm8-1 1.2-1.7 1.6-1.7.4.3v1.6l-.9 1.1-1.6.4z"/><path fill="url(#t)" d="m33.7 23.8.5-.1 1.7-.4.9-.4v1.5l-.6 1.2-1.5.4z"/><path fill="url(#u)" d="m34.8 26 1.4-.4-11 18.9z"/><path fill="url(#v)" d="m38.7 24.3.5.2 4.8-4.4-5.4 6.3-.7 2.2-1 1.7.4.1L32 42l-3 5-3 5.3-2.4 4.1-2 4.3v-2.2z"/><path fill="#c9816c" d="m37.9 28.6-.6 1.8-.3-.1z"/><path fill="url(#w)" d="M30.9 27v.1l-5.3 9.4-1.5 2-2 2.9-.2-1.4z"/><path fill="url(#x)" d="m38.7 61.9.8.3q-7.6 39-20 76v.8l2.4 1-1.1 5.9 2.1 1.9-2.8.7-4.3-.7-.9-.2z"/><path fill="url(#y)" d="m39.5 62.2-.9-.3L41 54z"/><path fill="#ae5d50" d="m22.9 147.8-2.1-1.9 2.4-.5z"/><path fill="url(#z)" d="m22 140-2.5-1v-.8l6-3.9 2.1-1.3 5.4-3.1-.9 11.4-.1 2.2-2.2-1.7-5.4-.8z"/><path fill="none" stroke="#000" stroke-linecap="round" stroke-linejoin="round" stroke-opacity=".5" stroke-width="__RESOLUTION__" d="m55.2 18.2-1.7-7.4-.5-5.9-6-2.8h0l1.3 2.2 3.9 6.4 1.4 3.7zl1.2 3.2.9 7.2-3.2 3-1.3 1.2L50.5 45l-.2 4-1.7 60.6-1.4.7-.8.4-1.6 1.1.1 1.1.6 10-.5.6-8 4.2v2.9l-1.5 4.2-.9 5.2 1.9 1.3v1.9l-.9 1.4.8.7v1.3h.9l2.4 2v1.5l5.3 3.8.3 1 .4 1v.8l-5.7.6-6-3.7h-4l-2.6-1.6v-5.9l.9-1.4-2.5.4.5 1.3-1.9 3.8v5.4l-1.1 2.8-3.3 2.4-1 3.5-2.9 5.2-4.8 1.3-1.7-.6-.2-.1v-6.9l5.2-11.4 1.2-3.4v-.6l-.9-.2-.9-.1-.9-1.3-.9-1.3-1.5.8H6.8l-4.3-1-2.5-3 3.2-7.5 1.3-3.3 2.8-6.6q7-17 13.6-34.4l2.4-6.6 2-5.3M3.1 134.2l-2.7-1.8v-4.7l5-19.4-1.7-.9v-2.9L5.6 99 9 88.1l5.9-12.6 6.8-14.7 2-4.3m-9.2 18.8-1.7-2.5-.6-1.1 3.3-5.8-2-3.8-3.5-4.5 2.4-3-1-1.4v-1.7L9 48l2.4-4.3-4.2-5.5v-6.4l1.4-2.6 3.8-2.9 3 .9 2.9 1 1.6-.8-1.4-1-3.6-3.1-1.2-4.2-1.2-1.7 2.8 1.2-.4-.6-.3-.6-1.6-1.1-1-.7 1.2.5 1 .5 1.8.3-.7-.9-.9-.9-.7-1.3-.9-2.9-.2-.3.3.3 1.7 2.2 1.3.6-.2-.6-.6-1.4V7.8l-.7-1.7-5-6.1.8.4L23.4 5l1 .7 1.1.5-3.9-4L25.4 4l2.4 1.9.3.2 3.5 3.4.4.4-.8-1.7-2-2.8-1.9-2.8 4.1 4.3 4.6 3.8.9 2.8.5-1.5v1.7l.1-.4.8-3-.4 8.2.1.3v.7l-.9 2.4.4 1.5 1.4.5 5.3-4.7 1.3-7-.7-.7v-1.2l-2.6-.3-1.7-1L39 7.2 41.4.8l.7-.7 2.1.8.6-.8h1l1.3 2M44.2.9l1.4.2 1.1 4.3.3 1.5.2.8.1.8v.9l.4 8.9.3 9.7.2 3.8.1 3.7M42.8 2.2v2.4l1.6 1.2h.9m-.9 0h-1l-1.5.8h-1.1m4 2.3V7.5m1 2.8.4-3.3m-2.7-1.2-2-.9m3.3 5.3V8.9M46 27.2l1-3.5m-1.6-11.6.3-1.8M44.2 19l-.2 1-.6 2.8-7.7 13.4-1.1 1.7-2.7 3.9m2.5 9.8L31.8 59l-4.7 13.4m19-45.3-6.5 22.6-.6 2.5m11.3-17.1V35l.2-3.3m-17 14.7Q28.4 59 23 71.2l-1.9 4.2m0 0-.1.2-.6 1.5-8.7 18.3-2.4 4.8-4 7.9v.1m45-73.1-.3 4.5-1.7 24Q43 98.5 37.2 116.4l-.9 2.3 2-1.9 4.9-3.7 1.6-1.2M33.6 14.6l-.3 3.5-.1 1.1 1.2-1.3v-.5l.6-.3.5-.4.6-.9.1-.1 1.6 2.7m-9.6-1.2v-1l.9.6 1 .6h1.1l-2.4-2.3-.4-.2m-1.2-4.7-.3-.3m.6 7.5.6-.2m-.7.2-1.2.4-1.2.3v.8l-.6.5-1.1 1.2-.7.7v.9l-.6.9-.1.4.5.5.2 1.2-1-1-4.2-2-.5.5 1 .6 1.4 2.8h0l.9.5h.8l.3.2.6-.3.7.2 2.9 1h0l1.1-2 .6-.3L31 27h0l1-1.8h.6l1.1.3 1.1.4 1.4-.4.8-1.2.4-.6.3-.5m-18.8.8v-.6l1 .6 1.1.6 1.1 1m-.2-2.2-1.2-.8m12.6-3.4-1.6-1.5-.4-.4m3.2 0 1-2.7m-8.2-4.5 4.8 5.1.6 2 .6 2M12.8 30l2.4-.6 3.1-1.4m1.6-.7 1.4-.6m-1.7 10.5.4-.5 6.2-6.6v1.3l-.7 1-3.9 6-4.5 7.1m-5.2-2.8 2-3.3m-1 14.4 1.9-2.5 6-8.4 1.3-1.6 2-2.9 1.5-2 5.3-9.4m-19 18.2 7.7-8m-8.2 6.4.5-.9m24.3-17.2L34 30.9l-6.8 13.2m-1.5 3L21.2 56l-1.3 2-3.2 5.6-1 1.5-.3.7m10-38 .2-.2m-3.9 4.2 2.9-3 .8-1M19.9 24v.8l.8 1.1m1.3-3-2.2-1.6m-4 126.4 4.3.7 2.8-.7-2.1-1.9 1.1-5.9-2.4-1v-.8q12.4-37 20-76m-27.1-7.7.4-.6m-.6 91 8.3-29.8 2.9-10.3 7.2-28.4v-.2m-3 56.8 5.4-3.1 2.3-1.3 1.8-1m8.4-4.7-8-3-1.1-1.3M27.6 133l-2.2 1.3-5.9 3.9m12.5 5.3-2.2-1.7-5.4-.8-2.4-1m1.3 5.4-.4 2.4m-2.1-1.9 2.4-.5 2.6-.3m2.4-.4 1.9-.4 1.9-.8.1-2.2.9-11.4" vector-effect="non-scaling-stroke"/></g></defs><g clip-path="url(#B)"><use xlink:href="#C" width="57.2" height="170.8" transform="matrix(-1 0 0 1 2.2 1)"/></g></svg>