<svg xmlns="http://www.w3.org/2000/svg" xmlns:xlink="http://www.w3.org/1999/xlink" width="32" height="23" viewBox="0 0 32 23"><defs><clipPath id="a"><path d="M1 1h30v21H1z"/></clipPath><g id="b"><path fill="#cab895" d="m18 3.3-1.8-1-3.1.5.9 3.7.6-1.9.6-.4zm-8.2 8.9-.3-9 4-1.9 1.9.5q1.2.4 2.3 1l.9 1.2q.7 2.6 1 5.6l.3 1.2-5.5 3L12.2 4 12 9l.3 3.7zm10.4.5.5-8.2 4 .3L29 9.6v3.1zM.5 9.7q3.7-2.8 4.2-4.5l.7-2 1.9-.9.7.6q.4 3.3.3 6.6-.1 1.3-.5 2.7l-.9.5H.5zm4.9-5.5.4.3q2.4.8 1.2-1z"/><path fill="#d6c6ad" d="m18 3.3-2.8.9-.6.4-.6 1.9-.9-3.7 3-.5zm-12.5.9L7 3.5q1.2 1.8-1.2 1z"/><path fill="#b89d72" d="m12 9 .2-4.9 2.2 9.7 5.5-3-.2-1.2q-.4-3-1.1-5.6l-.9-1.2q-1.1-.6-2.3-1l-2-.5-3.9 1.9.3 9-1.2-.7-.7.7q.3-1.4.3-2.7Q8.5 6.1 8 3l-.7-.7-2 .9-.6 2Q4.2 6.9.5 9.7V5.9q2.2-.1 3.4-1.7T7 2h.6l.5.6.3 2 .2 2.8.8-4.5 4-2.9 6.7 3.7.1.1.5.4 3-.7-.8.4 3.6.3 1.1 1.5-.4-1.5 1.8.1v5.3l-4.4-4.7-4-.4-.5 8.2-5.6 1.4-2.1-1.4zM7.2 2H7z"/><path fill="#1560b9" d="m9.8 12.2 2.6.5 2.1 1.4 5.6-1.4H29l-9.3 5.4-6.2.3 4.7.5-3.4 1.7L.5 12.7h6.4l1-.5.7-.7z"/><path fill="#a28453" d="m29 4.4-1.8-.2.4 1.5-1.1-1.5-3.6-.3.8-.4.8-.3 4.5.5zM13.5 0 9.4 3l-.8 4.4-.2-2.8-.3-2-.5-.6h-.4l1-.2q2.2 0 3.9-1.6l.3-.2zM7 2q-1.9.6-3.1 2.3Q2.7 5.8.5 5.8V3.7q2 0 3.7-.8z"/><path fill="#367ae9" d="m19.7 18.2-1.5.7-4.7-.4z"/><path fill="none" stroke="#c2e1fe" stroke-linecap="round" stroke-linejoin="round" stroke-width="1" d="m9.8 12.2 2.6.5 2.1 1.4 5.6-1.4H29m-21.1-.5.7-.7 1.2.7m-9.3.5h6.4l1-.5"/><path fill="none" stroke="#360" stroke-linecap="round" stroke-linejoin="round" stroke-width="__RESOLUTION__" d="M12.4 12.7 12 9m11.6-5.5-3 .7-.5-.4-.1-.1L13.5 0h-1.1l-.3.2q-1.7 1.6-4 1.6l-.9.1L7 2l-2.8.9q-1.7.8-3.7.8m23.2-.2.8-.3 4.5.5" vector-effect="non-scaling-stroke"/></g></defs><g clip-path="url(#a)"><use xlink:href="#b" width="29.4" height="20.6" transform="translate(1 1)"/></g></svg>