<svg xmlns="http://www.w3.org/2000/svg" xmlns:xlink="http://www.w3.org/1999/xlink" width="50" height="66" viewBox="0 0 50 66"><defs><clipPath id="a"><path d="M1 1h48v64H1z"/></clipPath><g id="b"><path fill="#43402c" d="M46.5 11.2h.1l.9 1.1-.3 1.6-.5.5-7.3 4.2L39 16l2.3-2.1zM1 16.8v-1.3l.1-.2 2.2 1.2 1.9 1 .3 1.6zm28.8 3.1-.1 3.7-5.9 3.5q.6-1.3 0-3.3zm-10.8 6-5-2.5-.6-.7-.7-.4h-.8L9 20.9l1.4-.7 2 1 7.2 3.7z"/><path fill="#252318" d="M46.7 14.4v3.5l-19.5 8.9-3.4 1.5v-1.2l5.9-3.5 9.7-5z"/><path fill="#4a452f" d="M46.7 17.9v.3l-.7 1.7.7 1.4v5.1L40 34.7l-12.8-8zm0 23.5v9.1q-3.7 2.8-8.9 4l-.3.2q-4.7-1.4-6.4 2.5H31q-2 3-7.2 4.9v-9.9l14.3-9.5zm-8.2-17 2.8-1.5-3 .7-4.3 2.7z"/><path fill="#423e2b" d="M46.7 26.4v1.5l-1.2 6.3 1.2 6.4v.8l-8.6 1.4 2-8v-.1z"/><path fill="#2c351e" d="M46.7 50.5V52L23.8 63.8v-1.7q5.2-1.9 7.2-4.9h.1q1.6-3.9 6.4-2.5l.3-.1q5.3-1.4 8.9-4.1m-8.2-26L34 26.3l4.4-2.7 2.9-.7z"/><path fill="#374325" d="m23.8 63.8-19-9.7q.7-.3 1.6-5 .7-4.6 4.2 4.3l1.5-3.1 1.6 6.6q2.4.8 4.4 1.7 3.5 1.6 5.7 3.5zM4.6 53.9 1 52.1v-2.8q.7 1.9 3.3 3.6z"/><path fill="#76633d" d="m4.9 54-.3-.1-.3-1L5 40.1l1-17.6-.5-3.4L1 16.8v.7l.7 2-.7 1.7v16.2L5 40l8.7.4L18 58.6q-2-.9-4.5-1.7L12 50.3l-1.5 3q-3.5-8.7-4.1-4-.9 4.6-1.5 4.9m23.5-41.5.2.5 1.1 6.8-5.9 3.9L12 17.7l5.4-4.7z"/><path fill="#867246" d="M1 49.3v-12l4 2.8-.7 12.8Q1.7 51.2 1 49.3m22.8-21v.5l-1.2 3.1 1.2 2v18.7l-9.4-12.1.5-11 .2.1q.8.9 2 .9t2.8 1.2q1.2.9 1.2 0l-.2-.6q-.5-1.6-1.8-2.6l-1.3-1L19 26zM9 20.9l-3 1.6-.5-3.4z"/><path fill="#705f3a" d="M1 15.5.3 15l-.2-2.3.8-.6h.2l3.1 1.6-.9 2.8-2.2-1.2H1z"/><path fill="#7e6b43" d="m1 12 7.6-3.4.7 1.3 1.5 3.1-6.6.7zm35.8-5.8 4 2v1l.4 4.6L39 16l-8.1-2.8-.4-1.5.1-.2z"/><path fill="#947d4e" d="M9.3 9.9 9.5 8l10.1-6.5 1.8 5.7-3.4.1-7.2 5.6zM41 9.2l.7-.5 4.8 2.5-5.2 2.7zm-12 3.5 1.4-1 .4 1.5z"/><path fill="#6d5c3a" d="M19.7 1.6v-.1l4-1.4 3.3 1 5 2.6.1.7-10.7 2.8zM18 7.4l-.6 5.6-5.4 4.7-7.8-4 6.6-.7z"/><path fill="#8b7649" d="m32.2 4.4.7-.2 4 2-6.2 5.3-.2-.1-9.1-4.1zm-3.7 8.7.6-.4 1.8.5 8 2.8-9.1 3.9z"/><path fill="#4d4931" d="m39 16 .4 2.6-9.7 5v-3.7zM5.5 19l-.3-1.5 5.2 2.7-1.4.7zm18.3 8v1.2L19 25.9l.6-1z"/><path fill="#655636" d="m29.1 12.7-.7-.1-11 .4.6-5.6 3.4-.2 9 4.2.1.3z"/><path fill="#7b6840" d="M23.8 23.8q.6 2 0 3.3l-4.2-2.2-7.2-3.7-.4-3.5zM7.5 25.6l-.1-.9.5-.1h1q.5 0 1 .5l.1.1.3 1q0 .8-.4.5t-1.4-.4-1-.7m7.5 3.9-.6-.9-.2-1q0-1 .9-1.2t1.7.5l1 .7 1.3.9q1.3 1 1.8 2.6l.2.6q0 .9-1.2 0-1.6-1.2-2.8-1.2t-2-.9zm-1-6.1.3.5q.3.8-.4.8h-1.3q-.4 0-1-.4l-.9-1.1-.1-.2v-.4l.3-.2.4-.1h1.5l.7.4z"/><path fill="#3d3927" d="m40 34.7-1.9 8-14.3 9.5V34l-1.2-2 1.2-3.1v-.5l3.4-1.5z"/><path fill="#635434" d="m5.2 17.5-1.9-1 .9-2.8 7.8 4 .4 3.5-2-1z"/><path fill="#6d5c38" d="m10 25.2-.1-.1q-.5-.4-1-.4l-1-.1-.5.1v.9q.2.7 1.1.7t1.4.4q.4.3.4-.4zm-4-2.7 3-1.6 2.9 1.4h-.7l-.4.1-.4.2.1.4.1.2 1 1q.5.5.9.5h1.3q.6 0 .4-.8l-.2-.5 5 2.5-1.2 1.7-1-.7q-.9-.7-1.7-.5-.9.2-.9 1.3l.2.9.5.9-.5 11 9.4 12v9.6q-2.2-2-5.7-3.5l-4.5-18.1L5 40z"/><path fill="none" stroke="#000" stroke-linecap="round" stroke-linejoin="round" stroke-opacity=".3" stroke-width="__RESOLUTION__" d="M46.5 11.2h.1l.9 1.1-.3 1.6-.5.5v3.8l-.7 1.7.7 1.4V27m0 13.6V52M1 52V21.3l.7-1.7-.7-2v-2L.3 15l-.2-2.3.8-.6h.2l7.5-3.5.7 1.3.2-1.8 10.1-6.5.1-.1 4-1.4 3.3 1 5 2.6.1.7.8-.2 4 2 4 2.1v1l.8-.6 4.8 2.5M10 25.3l.3 1q0 .8-.4.5t-1.4-.4-1-.7m7.5 3.9-.6-.9m-.2-4.7q.3.8-.4.8h-1.3q-.4 0-1-.4m9.6 7.4q0 .9-1.2 0-1.6-1.2-2.8-1.2t-2-.9l-.2-.1m-2.8 20.8-1.5 3" vector-effect="non-scaling-stroke"/><path fill="#450c07" fill-opacity=".3" d="m11.6 17.9 10.3-6.4.5-.3q4.3-2-1-2.5 5-2.7-3.6-3.1 6.2-2 .8-5 4.3 2 9.3 2.4h.4l1.7-.3L40.5 8l2.5 2.5q-6.9-3.1-7.2 2l.9.7-.2 1.2-.7-1.7q0 1.7.6 4.2l-.6.3-.1-.2q-5-8-9.4.5.6-6.8-2.2-6.4l-7.3 5.6-3.7 1.6zm13.8 2.5-.2 2.7-1.2-.4zm15-7-1.5.6-1.5-2.3zM17.3 5.9l.2.7h-1.8zm-3.4 4.5q-1.3.6-2.3.6l.2-.7zm-2.4 5.3-.5-1.9 9.6-2.5zm8.6 2.4-.7-.8 3.8-3z"/><path fill="#450c07" fill-opacity=".8" d="m11.6 17.9 1.5.5v3l.5.3-.4 18.6.5 13.2-1.1-3 .3 7.8-1.3-.6-.2-7.2-.7 2.7V55q-.4-3.4-1.4-4.3l.3 5.5-1.5-.9.5-5q-.7 0-1.3.5-1 .6-2.1 1.8l1.2-3.4q5-14.1 1.5-8.6 4.5-8.3 4.3-19.2v-.2l-.8-.5V18z"/><path fill="#450c07" d="m35.8 17.3.6-.3v3.3l-.6.4zm-1.4 4.2v-.1l.4-.3q.1 21 1.1 36.4l-1.6.9q.8-16.5 0-36.9M3.6 45l2.8-2.2-2.2 3.5zm13-.2-1-.3-.5-7zm.8 8.9-1 3.8-1.1-8.8z"/><path fill="#262816" d="m19.9 6.7-.7-.6h-.1l-.3-.3.3-.1q1.2.8 1.8 1.7h-.2l-.2.1-.1-.1.2-.1zm-4.9.6.7.6.7.7.4.3h-.3l-.4-.2-.7-.7.3-.1h-.3l-.7-.5-.3-.4.2-.1z"/><path fill="#364021" d="M19 6h.2l.7.7q-1.7.9-4.2 1.2l-.7-.6z"/><path fill="#212714" d="m19.9 6.7.7.6h-.2l-4 1.3-.7-.7q2.4-.3 4.2-1.2"/><path fill="#000" fill-opacity=".3" d="m20.4 7.4.1.1h.1l.7.6-16 4.6-.8-.7 3-.7 4.2-1.2L16 8.7l.4.3.3-.1-.4-.3z"/><path fill="#b5a88a" d="m15.4 8 .7.7-4.5 1.4.4-1.4-1.7 1q-1.3.7-2-.5l.3-.1q3.8-.9 6.2-1.7zM5.3 9.9 7 9.5q-1.2 1.4-1.8.4m-1.8 1.7-2.3-1 .5-.1 2-.3q1.2 1-.1 1.4"/><path fill="#4d1b10" d="m11.7 10-4.2 1.3-3 .7-.3-.1-.7-.3q1.3-.4.1-1.4l.8-.1.3-.1.5-.1q.7 1 1.9-.4l.2-.1.5-.1.5-.1q.7 1.2 2 .5l1.7-1z"/><path fill="none" stroke="#000" stroke-linecap="round" stroke-linejoin="round" stroke-opacity=".3" stroke-width="__RESOLUTION__" d="M19 6h.2l.7.7.7.6h-.2l.1.2h.1l.3-.1q-.6-1-1.7-1.7l-.4.1zl-4 1.3.7.6.7.7 4-1.2m-5.6 0-.5-.4.3-.1.4.4m1.1 1.4.4.3.3-.1-.4-.3m-1-.6.7.7-4.5 1.4-4.1 1.2-3 .7-.3-.1-.7-.3M15.4 8l.3-.1m-1-.5.7.6M7.3 9.4l.5-.1m.5-.1.3-.1q3.8-.9 6.2-1.7M3.6 10.2l.8-.1.3-.1m.5-.1 1.9-.4m-6 1.1.5-.1 2-.3" vector-effect="non-scaling-stroke"/><path fill="#85835c" d="m33.1 8.2.7-.5.2-.6h.3v.4h.7V8l-.7.2-.6.4z"/><path fill="#d3b387" d="M33.7 8.6v.2l-1.4 1.1.4 1.8h-.4V11l-.2-.2H32l-.1-.3-1.2 1.9h-.4l1-1.4-.3-.5-.2.2v-.5l-2.2 1.3-.2-.2 2-1.1-.1-.1-.1-.5-2.2.6v-.4l2.4-.8-1.2-.5.3-.4h2.1l.6-.1.8.2h.1z"/><path fill="#9d6448" d="m33.8 8.8.3.5-1.3.9.2 1.6h-.4l-.2-1.9zm-1.8 2-1 1.7-.3-.1 1.2-1.9zm-1.2-.1-.2.1-1.7 1.1-.3-.4 2.2-1.3zm-.5-.6-.4-.2-1.9.6V10l2.2-.6z"/><path fill="none" stroke="#000" stroke-linecap="round" stroke-linejoin="round" stroke-opacity=".3" stroke-width="__RESOLUTION__" d="M33.7 8.6v.2l.3.5-1.2.9.2 1.6h-.6v-.9l-.4-.2h0l-1 1.7-.3-.1h-.4l1-1.4-.3-.5-.2.2m-.2.1-1.7 1.1-.3-.4-.2-.2 2-1.1-.1-.1-.4-.2-1.9.6v-.7l2.4-.8-1.2-.5.3-.4h2.1l.6-.1.8.2m.1 0 .5.5" vector-effect="non-scaling-stroke"/><path fill="#000" fill-opacity=".3" d="M33.9 5q2 .7 2 1.7t-2 1.7-4.5.7q-2.8 0-4.7-.7-1.8-.7-1.8-1.7T24.7 5t4.7-.7q2.6 0 4.5.7"/><path fill="#b6b07d" d="m28.7.2 2.6.6q1.4.5 1.7 1.2v.4l-.2.5q-.4-.5-1.5-.9L29 1.5z"/><path fill="#615a36" d="m28.7.2.3 1.3-2-.1-4.4.6-1.5.9-.2-.5V2q.2-.7 1.8-1.2L27 0zm4.2 4-1.7 2.4-1.2.8-3 .3h-1q2-.7 2.8-2.1l1.3-.2 1-.4q1.2-.3 1.6-.8"/><path fill="#450c07" d="m29 1.5 2.3.5q1 .4 1.5.9l-.8.6-.7-.2-2.3-.6-2-.1q-2.6 0-4.4.6l-.7.3-.8-.6 1.5-.9 4.3-.6zm-8.1 1V2v.4"/><path fill="#726b41" d="m32.8 2.9.3-.5v1.3L33 4l-.2.2q-.4.5-1.5.8l-1.2.4-1.2.2.4-1.3 2-.5.6-.3z"/><path fill="#938b53" d="m26 7.8-2-.4q-1-.4-1.2-.9L21 4.2q.5.5 1.5.8l1 .3 3.3.4 2-.1Q28 7 26 7.8"/><path fill="#a29a5b" d="m21.2 4.2-.2-.3V2.4l.2.5.8.6.8.3q1.7.7 4.3.7l2.3-.2-.4 1.3-2 .1-3.3-.4-1-.3q-1-.3-1.5-.8"/><path fill="#84150d" d="m22 3.5.6-.2q1.8-.7 4.3-.7l2.1.1 2.3.5.6.3-.6.3-2 .5-2.4.2q-2.5 0-4.2-.7z"/><path fill="none" stroke="#000" stroke-linecap="round" stroke-linejoin="round" stroke-opacity=".3" stroke-width="__RESOLUTION__" d="M33 2.3V2q-.3-.7-1.7-1.2L28.6.2 27 .1l-4.2.7q-1.8.5-2 1.2m12.1.5V4l-.2.2L31 6.6l-1.2.8-3 .3H26l-2.2-.3q-1-.4-1.2-.9L21 4.2h0l-.2-.3V2.5" vector-effect="non-scaling-stroke"/><path fill="none" stroke="#3f4a2b" stroke-linecap="round" stroke-linejoin="round" stroke-width="__RESOLUTION__" d="m28.9 5.6 1.3-.2 1-.4q1.2-.3 1.6-.8m-4 1.4-1.9.1-3.3-.4-1-.3q-1-.3-1.5-.8" vector-effect="non-scaling-stroke"/></g></defs><g clip-path="url(#a)"><use xlink:href="#b" width="47.5" height="63.8" transform="translate(1 1)"/></g></svg>