<svg xmlns="http://www.w3.org/2000/svg" xmlns:xlink="http://www.w3.org/1999/xlink" width="109" height="117" viewBox="0 0 109 117"><defs><g id="f"><path fill="#676343" d="M1.4 45.9 0 38.4q.3-.1 2.2.9l1.4 6-1.2 1.2z"/><path fill="#b0ab84" d="m1.4 45.9 1 .6 1.2-1.1-1.3 16-1.1.3-.8-.2-.2-.1z"/><path fill="none" stroke="#888257" stroke-linecap="round" stroke-linejoin="round" stroke-width="__RESOLUTION__" d="m3.6 45.4-1.4-6.1m-2 22.1.2.1.8.2 1-.2" vector-effect="non-scaling-stroke"/><path fill="none" stroke="#928c5f" stroke-linecap="round" stroke-linejoin="round" stroke-width="__RESOLUTION__" d="m2.3 61.5 1.3-16.1" vector-effect="non-scaling-stroke"/><path fill="#676343" d="m9.8 51.6 1.6-7.6 2.2 1-1.6 6-1.3 1.1z"/><path fill="#b0ab84" d="m9.8 51.6.9.5 1.3-1 1.6 16-1 .3-.8-.2-.3-.1z"/><path fill="none" stroke="#888257" stroke-linecap="round" stroke-linejoin="round" stroke-width="__RESOLUTION__" d="m12 51 1.6-6m-2.1 22.1.3.2.8.1 1-.2" vector-effect="non-scaling-stroke"/><path fill="none" stroke="#928c5f" stroke-linecap="round" stroke-linejoin="round" stroke-width="__RESOLUTION__" d="M13.6 67.2 12 51" vector-effect="non-scaling-stroke"/><path fill="#676343" d="m24.8 55.9 1.5-7.5 2.2.9-1.6 6-1.2 1.2z"/><path fill="#b0ab84" d="m24.8 55.9.8.6 1.3-1.1 1.7 19-1.1.3-.8-.2-.2-.1z"/><path fill="none" stroke="#888257" stroke-linecap="round" stroke-linejoin="round" stroke-width="__RESOLUTION__" d="m26.9 55.4 1.6-6.1m-2 25.1.2.1.8.2 1-.2" vector-effect="non-scaling-stroke"/><path fill="none" stroke="#928c5f" stroke-linecap="round" stroke-linejoin="round" stroke-width="__RESOLUTION__" d="m28.6 74.5-1.7-19.1" vector-effect="non-scaling-stroke"/><path fill="#676343" d="m33.1 61 2.6-8.4 2.1 1-2.4 7.6-1.4.3z"/><path fill="#b0ab84" d="m33.1 61 .9.5 1.4-.2-1 16.3-1 .2-.9-.1-.2-.2z"/><path fill="none" stroke="#888257" stroke-linecap="round" stroke-linejoin="round" stroke-width="__RESOLUTION__" d="m35.4 61.3 2.5-7.7m-5.6 23.9.3.2.8.1 1-.2" vector-effect="non-scaling-stroke"/><path fill="none" stroke="#928c5f" stroke-linecap="round" stroke-linejoin="round" stroke-width="__RESOLUTION__" d="m34.4 77.6 1-16.3" vector-effect="non-scaling-stroke"/><path fill="#676343" d="m43.9 65.6-2.1 3.2-1.3.3-1-.6 4.3-6.7v1.6q.3 1.3 0 2.1"/><path fill="#b0ab84" d="m39.6 68.5.9.5 1.3-.2-1 12.3-1 .2-.8-.1-.2-.2z"/><path fill="none" stroke="#888257" stroke-linecap="round" stroke-linejoin="round" stroke-width="__RESOLUTION__" d="m41.8 68.8 2-3.2m-3 15.5-1 .2-.8-.1-.2-.2" vector-effect="non-scaling-stroke"/><path fill="none" stroke="#928c5f" stroke-linecap="round" stroke-linejoin="round" stroke-width="__RESOLUTION__" d="m41.8 68.8-1 12.3" vector-effect="non-scaling-stroke"/><path fill="#676343" d="m87.6 26.4 1.5-16 2.5-1.2-2 16.8-1.2 1z"/><path fill="#b0ab84" d="m87.6 26.4.9.6 1.2-1.1 1.6 37-1 .3-.8-.2-.2-.1z"/><path fill="none" stroke="#888257" stroke-linecap="round" stroke-linejoin="round" stroke-width="__RESOLUTION__" d="m89.7 25.9 1.8-16.6m-2.2 53.6.2.1.8.2 1-.2" vector-effect="non-scaling-stroke"/><path fill="none" stroke="#928c5f" stroke-linecap="round" stroke-linejoin="round" stroke-width="__RESOLUTION__" d="m91.4 63-1.7-37.1" vector-effect="non-scaling-stroke"/><path fill="#676343" d="m83.7 28.7-1.9-15 2.5-1.2 1.5 15.6-1.2 1.1z"/><path fill="#b0ab84" d="m83.7 28.7.9.5 1.3-1.1L84 66.3l-1 .2-.8-.2-.2-.1z"/><path fill="none" stroke="#888257" stroke-linecap="round" stroke-linejoin="round" stroke-width="__RESOLUTION__" d="m85.9 28.1-1.7-15.6M82 66.3l.2.1.8.2 1-.2" vector-effect="non-scaling-stroke"/><path fill="none" stroke="#928c5f" stroke-linecap="round" stroke-linejoin="round" stroke-width="__RESOLUTION__" d="M84 66.3 85.9 28" vector-effect="non-scaling-stroke"/><path fill="#ebce5c" d="M68.4 5.2h-.5l2.4-2.6q1.4-1.6 4.2-2l.5 1 .7-1 5.3.6q-9.2.9-12.6 4"/><path fill="#dab41b" d="M81 1.2q-2.5 2.7-5.4 3.7L74.2 3l-.3 2.3h-1.7l-3.8-.1q3.4-3.1 12.5-4"/><path fill="none" stroke="#000" stroke-linecap="round" stroke-linejoin="round" stroke-opacity=".3" stroke-width="__RESOLUTION__" d="M68.4 5.2h-.5l2.4-2.6q1.4-1.6 4.2-2l.5 1m.7-1 5.3.6h.1Q83 .4 85.4.3m-9.7 4.6q2.8-1 5.4-3.7m-12.7 4 3.8.1h1.7l.3-2.3M81 1.2q-9.2.9-12.6 4" vector-effect="non-scaling-stroke"/></g><g id="e"><path fill="#676343" d="m16.6 14.4-1.5-7.6 2.2 1 1.4 6-1.2 1.1z"/><path fill="#b0ab84" d="m16.6 14.4.9.5 1.3-1.1-1.4 16.1-1 .3-.8-.2-.3-.1z"/><path fill="none" stroke="#888257" stroke-linecap="round" stroke-linejoin="round" stroke-width="__RESOLUTION__" d="m18.8 13.8-1.5-6m-2 22 .2.2.9.2 1-.3" vector-effect="non-scaling-stroke"/><path fill="none" stroke="#928c5f" stroke-linecap="round" stroke-linejoin="round" stroke-width="__RESOLUTION__" d="m17.4 29.9 1.4-16.1" vector-effect="non-scaling-stroke"/><path fill="#676343" d="M0 7.6 1.4 0l2.2 1-1.5 6L1 8.1z"/><path fill="#b0ab84" d="m0 7.6.9.5L2.1 7l1.6 16.1-1 .3-.9-.2-.2-.1z"/><path fill="none" stroke="#888257" stroke-linecap="round" stroke-linejoin="round" stroke-width="__RESOLUTION__" d="m2.1 7 1.5-6m-2 22 .2.2.8.2 1.1-.3" vector-effect="non-scaling-stroke"/><path fill="none" stroke="#928c5f" stroke-linecap="round" stroke-linejoin="round" stroke-width="__RESOLUTION__" d="M3.7 23.1 2.1 7" vector-effect="non-scaling-stroke"/><path fill="#676343" d="m12.1 15.9-4-12.6 2.2 1 4 11-1.3 1.1z"/><path fill="#b0ab84" d="m12.1 15.9 1 .5 1.2-1.1-4 11.1-1 .3-.8-.2-.2-.1z"/><path fill="none" stroke="#888257" stroke-linecap="round" stroke-linejoin="round" stroke-width="__RESOLUTION__" d="m14.3 15.3-4-11m-2 22 .2.2.8.2 1-.3" vector-effect="non-scaling-stroke"/><path fill="none" stroke="#928c5f" stroke-linecap="round" stroke-linejoin="round" stroke-width="__RESOLUTION__" d="m10.4 26.4 3.9-11.1" vector-effect="non-scaling-stroke"/></g><g id="d"><path fill="#817b52" d="m.3 34 3.4-1.8.8.4-.1 2L7 34l10.6 5.5v2.1l2.6-.9.4.3v3.5z"/><path fill="#77724d" d="m4.5 32.6 2.6 1.3-2.7.8zm13.2 6.8 2.6 1.3-2.6.8z"/><path fill="none" stroke="#413e29" stroke-linecap="round" stroke-linejoin="round" stroke-width="__RESOLUTION__" d="M20.7 44.4.3 34" vector-effect="non-scaling-stroke"/><path fill="#817b52" d="m4.5.4-.1 2L7 1.8l10.6 5.5v2.1l2.6-.8.4.2v3.5L.3 1.8 3.7 0z"/><path fill="#77724d" d="m7 1.7-2.6.8.1-2.1zm13.2 6.8-2.6.8V7.2z"/><path fill="none" stroke="#413e29" stroke-linecap="round" stroke-linejoin="round" stroke-width="__RESOLUTION__" d="m.3 1.8 20.4 10.4" vector-effect="non-scaling-stroke"/><path fill="#817b52" d="m95.7 33.2.8-.2 3.3 1.6L82 43.5l-.1-3.5.5-.2 2.6.8v-2.1l8.2-4 2.6.8z"/><path fill="#77724d" d="m95.7 33.2.1 2-2.6-.7zM85 38.5v2.1l-2.6-.9z"/><path fill="none" stroke="#413e29" stroke-linecap="round" stroke-linejoin="round" stroke-width="__RESOLUTION__" d="m82 43.5 17.8-9" vector-effect="non-scaling-stroke"/></g><g id="c"><path fill="#c9ac36" d="m9.8 3.4.7-.6.2-.1-.2.1zm2.6 1.7-.5-.1.6.3q1 .8 1.3 1.5.6 1-.7 1.5h-.4q-.6 0-1.3-.4-.6-.4-1.2-.4l-.1 1.8q.7-.6 1.6-.5l.9.1.7.3.6.7.6.9q.6 1.1-.6 1.3l-2.2-.1-1.1-.2h-.1l-.7-.4-.3-.3-.2-.8q0-.7.8-1-.7.3-.8 1l.2.8-.8 1.5-1.6.2q-2.4 0-4.1-1.6H.8Q-.4 11.1.2 10q.6-1.2 1.2-1.6l-.1-1.2q0-.9.3-1.7-1.3-2-.5-2.9.6-.8 2.2.4l.4-.3Q4 .8 5 .4q1-.5 2.6.8 4.2-3 3.1 1.5 4-.5 3.3 2.3l-1.4.1zM6.7 2.5l.2-.4.3-.4.4-.5-.4.5-.3.5zM11.9 5h-.5zm-.5 0H9.5l.6 1.5zM3.7 2.7v.6L3.3 3l.4.4zM3 11.2Q1.7 10 1.4 8.3q.3 1.5 1.6 2.8m6.2-3.5 1-.2z"/><path fill="#c89604" d="m12.5 5.4-.6-.4.5.1zm-2.2-.5h1.1l-1.3 1.6L9.5 5zm-.1 2.5q.6 0 1.2.4t1.3.4l-.1.6-.9-.1q-1 0-1.6.4zm.3 4.3-.4.2-1.4.6.8-1.5.3.3z"/><path fill="none" stroke="#784d08" stroke-linecap="round" stroke-linejoin="round" stroke-width="__RESOLUTION__" d="m10.7 2.7-.2.1-.7.6m2.6 1.7-.5-.1.6.3q1 .8 1.3 1.5.6 1-.7 1.5h-.4q-.6 0-1.3-.4-.6-.4-1.2-.4l-1 .2M12.4 5H14q.8-2.8-3.3-2.3 1-4.5-3.1-1.5l-.4.5-.3.5-.2.3M11.4 5h.4m-.5 0h-1.1m2.3 3.9.7.3.6.7.6.9q.6 1.1-.6 1.3l-2.2-.1-1.1-.2h-.1l-.7-.4-.3-.3-.2-.8q0-.7.8-1 .7-.6 1.6-.5zM3 11.2H.7Q-.4 11.1.2 10q.6-1.2 1.2-1.6h0m.2-2.9Q.3 3.5 1 2.6q.6-.8 2.2.4l.4.4v-.7Q4 .8 5 .4q1-.5 2.6.8" vector-effect="non-scaling-stroke"/><path fill="none" stroke="#784d08" stroke-linecap="round" stroke-linejoin="round" stroke-width="__RESOLUTION__" d="m10.5 11.8-.4.2-1.4.6-1.6.2q-2.4 0-4.1-1.6h0Q1.7 10 1.4 8.4l-.1-1.2q0-.9.3-1.7" vector-effect="non-scaling-stroke"/><path fill="none" stroke="#ccc" stroke-linecap="round" stroke-linejoin="round" stroke-width="1" d="M5.6 8.7h1.3M3.6 8l-1.2-.7"/><path fill="none" stroke="#000" stroke-linecap="round" stroke-linejoin="round" stroke-width="1" d="M5.2 8h1.3m-2.6-.4-1.3-.7"/></g><g id="b"><path fill="#ceb173" d="M70 6.4 67 8zl-7.7-3.9L60 4.4l2.3-1.9L59 .9 52.3.5 48.1.3 44.6 2l11.4.5.5.2 3.3 1.6.2.1L67 8l8.4 4.2 3-1.5-3 1.5-1.2.6 2.6 1.5 1.4-.6 3-1.6-2.8-1.4zm4.3 3.9 1.4.4zm4.4 1.7-1 .3zm-6.4 4.5q16.1 2.8 21.8 10l-.6.2Q84 18.9 71 17.3zM98.8 24l-1-.5 3.4-1.4 4.4 2.3-2.8 1.5h-.2zm-12.6-6.3-.4-.2-3.1-1.6 2.9-1.6 3.9 1.9zm-13.9-4-3.7 1.8Q62.3 6 35.8 6.6L38 5.4q16-2.7 34.2 8.3M65 17.3l2.4 1.7 2-1q5 7.9 20.3 10.6l1.1-.6 3.8 2-9 4.5-.9.4-2.7-1.6-3.6 1.4-2.3-1.3q-.1-.5 1.6-2L81 33l.3-.1 1.4-.7 3.1-1.7Q75.6 30 65.4 20l-1.8 1-1.5-2.2zm2.5 8.6 3.1 1.7-2 1.9L66 28l-.9-.5zm6.4 3.4 1.7 1-2.5 1.6-1.2-.6q0-.3 2-2m-13-6.9 5 2.7-2.5 1.6-5.6-3zM81.2 33l.8.4zm1.4-.7 3 2.3zm3.1-1.6 4-1.9zm16.4-6.5-1-.5zM2.1 25l.6-1.6 2-1 2.2 1.2 2.5-1.2 3.5-1.6q5.7 1.4 9.2-4.4l4.7-2.3 3.4-1.6 1.8 1 1.7.8 2.9 1.5 3-1.7-3.3-1.8-4.2 1.1 1.6.9Q20.4 26 6.3 27L3 25.4l3.9-1.9L3 25.4l-.1-.1zm22.3-12.6 2.9-1.5 3 1.6-3.5 1.6zm6.2-3.1 3.1-1.6 1.9-1 .1.1 6 1.5q14.9 4.2 19.3 11l-3 1.5-3.4-2-.9 1.1-.1.1-.8 1 2.4 1.2-.1.2-3.4 1.6-9.1 4.6-1.7-1.9q-2.1-2 3.8-6.8l3.4 1.8 2.4-2-6.2-3.2 3.3-1.5 4.2 2.3 2.9 1.5-2.9-1.5q-4-5.9-9.8-5.3l-4.3-2.2-3.8 1.2-.3-.2zm23 .1 4.4.7q1.9.5 2.4.8l1.2 1.5q.8 1 .6 1.7h-1.9q-1.8-.8-2.3-1.2l-3.7-2.1q-3.1-1.7-.6-1.4M52.3.5l3.8 2zM33.7 7.6l4 2.2zM9 28.4q15.4.4 26.5-9.6l1.1-1 2.2-1 2.3 1.2-5.3 5.6q-5 4.9-2.3 6.9l2.5 1.4-7 3.5.4-2.9Q32 22.2 18 33zm40.2-6-.1.1.3-.1zl-1.1-.7zm1.2-2.6 2.3 1.2zm-1.3 2.7 2.5 1.5zM44 64.9l-7.8 4.7-3.9-2-.2-.1 8-2.8zm3.5 10.3Q69.1 69.8 74.7 63l4.1 2.3L57.7 76l-7.2.7zm17.3-12.4q1.5 0 .5 2.1-1.5 2.8-4 3.2l-8.4 1.6q-6 1.1-7 .1-1.1-1-.1-2t3.5-1.4l5.1-1 4.6.3zm-38.7 1 6.1.4-3.3 1.6-3-1.5v-.4zM67.5 19l-2.2 1zM4.4 23.5l-1 .5z"/><path fill="#d5ba84" d="M60 4.4 67 8l8.4 4.2-1.2.6-1.9.9-3.7 1.8-3.5 1.8 3.5-1.8Q62.3 6 35.8 6.6l-.1.1 6 1.5Q56.6 12.5 61 19.3l-3 1.5-2.7 1.3 2.7-1.3-3.4-2-.9 1.1-.1.1-.8 1 2.4 1.2h.1l2.6 1.4 3.1-1.4 2.5-1.2 1.8-1q10.3 10 20.5 10.5l-3.1 1.6-1.4.8-.3.1-3.2-1.6-2.1-1.2-1.7-1-3.3-1.7-3.2-1.7-2.4 1.7-1.6-.9L66 25l-5-2.7v-.1l2.5-1.2-1.5-2.2-1 .5 1-.5 3.1-1.6 2.4 1.8 2-1 1.5-.7 1.3-.8 4.5-2.2 1.4-.6 4.5 2.2 3.1 1.6.4.2 11.5 5.8 1 .5-4.7 2.5q-5.6-7.2-21.7-10l4.5-2.2-2.6-1.6-1.9 1q-18.1-11-34.2-8.3L44.6 2l11.4.5.5.2 3.3 1.6zm34 22 4.8-2.4 3.8 2-7.9 4-3.8-2-1.2.6Q74.6 25.9 69.6 18l1.5-.7q13 1.6 22.5 9.4zm3.8-3-11.6-5.8 3.3-1.5 11.7 6zm-15-7.6-4.5-2.2 3-1.6 4.4 2.2zm-14 13.5 2-1.9 3.3 1.8q-2 1.6-2 1.9zm7 .8 2.1 1.2q-1.7 1.5-1.6 2l-3-1.6zm-8.2-4.3L66 25zm4.8 32.7 2.7 1.4 6.8 3.7v.2L79 65.2l-.2.1-4.1-2.2q-5.6 6.7-27.2 12l-11.3-5.6 7.8-4.7 10.4.7-5.1.9q-2.5.3-3.5 1.3t0 2.1 7-.1l8.5-1.6q2.5-.3 4-3.2 1-2.2-.5-2.1l5-2.4 4.9 2.6-5-2.6-.5-.4zm6.2-23.8 3.6-1.4 2.8 1.6-.3.1-2.8 1.4zM90.9 28l2.6-1.3zM4.7 22.3l19.8-10 2.3 1.7-4.7 2.3Q18.7 22 13 20.7l-3.5 1.6L7 23.5zm22.6-11.5 3.3-1.6 3 1.6.3.2 3.8-1.2L42 12l5.6 3-3.3 1.5-.3-.2.3.2 6.2 3.3-2.4 1.9-3.5-1.8L41 18l-2.2-1.2-2.2-1.1 2.2 1.1-2.2 1-1.1 1q-11.1 10-26.4 9.6L6.3 27q14-1 27.4-12.8l2.9 1.5 3-1.7-3.3-1.8-4.2 1.1-1.9-.9zm26.4-1.5q-2.6-.3.6 1.4l3.7 2q.5.5 2.3 1.3h2q0-.7-.7-1.7l-1.2-1.5q-.5-.3-2.4-.8zm-6 5.7L42 12q5.8-.6 9.8 5.3zM44 16.3 39.6 14zM41 18l3.6 1.9q-5.9 4.8-3.7 6.9l1.7 1.8-6.6 3.3-2.5-1.4q-2.6-2 2.3-6.9zM18 33q14-11 11.4-.5l-.4 2.9-3.1 1.5zm15.8-22 2.4 1.3zm25.5 10.5-1.4 1zM40 64.6l-8 2.8-3.2-1.6 3.4-1.6zm37.6-1.4 1.7 1zM12.9 20.7l9.2-4.4z"/><path fill="#8d7347" d="m65.1 27.5.9.5 2 6.3q5.8 19 2.8 22L64 42q-1.4-8.1-.5-11.7.5-2 1.6-2.7m7 3.7.2 5q0 1.4-.2 1.8-.3.6-.9-.8-.9-2-2.5-7.9zm1.2.6 3 1.6q.1 5 .6 9 1.3 11.1 5 13.6v7.6L75 59.9l.3-2.2q.8-8.3-.5-17zm-19.9 82-3.4-1.8.1-3.5V80.1l3.4 1.7zm-10.5-5.4-5.1-2.6-.9-4 6.3 3.2zm-11.6-5.9L26 100v-3.6l3 1.5-3-1.5v-1.5 1.5L23.3 95v-2.4l2.6.8v1.3l3 1v2.1l.4.2 2.7 1.4zm-12-6-8-4v-3.7l8.2 4.2zM7.9 90.8l-5-2.5v-3.4l.2-.1 5.4 2.7zM.3 82v-6.5l2.6 1v6.3zm0-10.7v-2.7l2.6 1.2v2.7zm0-12.6v-7.2l2.6 1.3L9.4 56l-.1 3.5.2.1 3.7 1.9-.2-3.7 5 2.6.3 3.7 5 2.6V56.5l2.6.5v7.3l3 1.5V77l-3-1V64.4v9.5l-2.6-1.1v-2.5l-3.4-1.7-1.6-.8-2.9-1.5-2.3-1.2h-.2l-10-5zm.1-13v-3L3 44.2v2.7zm.1-6.4.2-11L2.1 25l.8.4v14.3zM35.6 6.8l.1-.1v.1zM6.3 27 9 28.4l-.2 3.1-3-1.5zm49-4.7 2.6 1.3 5.6 3-.7 2.9q-1 3.6-1.4 7L57.9 29v-4L55 22.4zm2.6 1.3v1.3zm-32 15.8v.6l-2.6-1.2L18 36l.1-3.1 7.8 3.9zm0 6v4q-.5.5-2.6-.4v-4.5q2.1 1.4 2.6.9m1.8 21.9-1-.4zm-1.8 15.2 3 1v5.3l-3-1.5zv-5l-2.6-.5v5.7l1.3-.7zm55.9-46.1V43q-3.8-2.8-3.3-8.4zM28 98.3l-.9.8zm23.7 13.5-.5-1.5zM23.2 37.3l1.4.7zM.3 55l9 4.5zm25.6 13-2.6-1.3zm-24-13.5-.5-.9zm22.6 11-.4-.9zm-1.2 4.8v-3.6zm-5-6.1-5-2.5z"/><path fill="#9a7d4e" d="m66 28 2.7 1.4q1.6 5.9 2.5 7.8.6 1.4.9.8.2-.4.2-1.7l-.2-5.1 1.1.6 1.6 8.8q1.3 8.8.5 17L75 60l-2.7-1.4-.6-.4-.9-1.7q3-3-2.8-22.1zm10.2 5.4 2.3 1.3q-.5 5.5 3.3 8.3v13q-3.7-2.5-5-13.6-.5-4-.6-9M49.9 112l-7.1-3.6.3-3.4 6.9 3.5zm-12.2-6.2-6.6-3.2.9-3.2 4.9 2.4zM25.9 100l-6.8-3.5.2-3.4 4 2 2.6 1.3zm-14.7-7.4-3.3-1.7.5-3.3 2.8 1.3zm-8.3-4.2L.3 87v-5.1l2.6.8v5.6M.3 75.4v-4.2l2.6 1.2v4zm0-6.9v-9.9L2.9 60v9.7zm0-17.1.1-5.9 2.5 1.3v5.9zm.1-8.7.1-3.5 2.4.4v4.5zM3 25.5 6.3 27l-.5 3-2.9-1.5v-3.1zm5.9 6.1.2-3.1 9 4.6L18 36l-1.9-1zm54.6-4.9 1.6.9Q64 28 63.5 30q-.9 3.7.5 11.8l-2.6-5.4q.5-3.4 1.4-7zM25.9 40v5.4q-.4.5-2.6-.9v-5.7zm0 9.3V57l-2.6-.5V49q2 .9 2.6.4m10.3 20.1 11.3 5.7-.2 3.5-3-1.5-5.1-2.6-2.9-1.4zl-3.9-2-.2-.1-3.2-1.6v3.7l3.8 1.8-.4-3.7.4 3.8 3.6 1.8zm11.1 9.2.2-3.5 3 1.5h-.2l3.1 3.1v2L50 80l-.5-.3zm-21.4-4.9v2.3l3 .9v6.5l-3-1v4.8l3 1.5v7l-3-1v-1.4l-2.6-.8v-9.8l1.3-.7 1.3.4V76v1.5l-2.6-.5v-4.3zm0 19.6v-6.2zM9.4 56l3.6 1.8.2 3.7-3.7-1.9h-.2zm13.9 7v3.7l-5-2.6-.3-3.7zm.3 33.6 1.1 1.6zm-22-10.1-.4-1z"/><path fill="#645231" d="m70.9 56.4.8 1.8.6.3-3 1.5-2.9-1.5-3.7-2-3.3-1.8-3-1.7-1.1-.5-3.3-1.9 3-1.6V35.3l.1-6.2v-6.7l2.8 2.5v5.4L55 29l2.8 1.1V29l3.5 7.5 2.6 5.4zq-.5.5-1.4.5.9 0 1.4-.5m.9 1.8-2.3-1.3zM67 55.5q-2.1-7.9-3-13.6.9 5.7 3 13.7l-1.2-.6-3 1.5-3.4-1.8-3-1.7-1.1-.5L46 57l9.1-4.6-3.2-1.9-.2.1-9.7 5 9.7-5v-4.9Q28.6 60.9 25.9 57v6.9l.2-.1 4.5-2.3.3-.2 7.5-3.7 3.7-2 3.7 1.6-3.7-1.6-3.7 2-7.4 3.7 3.6 1.6-3.7-1.6-.3.2-4.5 2.3 6.1.4 2.4-1.3 7.3-3.6-3.5-1.7 3.5 1.6 3.9-2 .3-.1-.3.1-3.9 2-7.2 3.7-2.5 1.3 7.9.4 3.9.3 10.4.5 4.6.3 5.8-2.9 5-2.4-.5-.4-2.9-1.5-3.7-2 3.1-1.5-3.5-2-2.4-1.3-3.5 1.3 3.5-1.3-2-1.1L55 49l2.9 1.6 2 1.1 2.4 1.3 3.5 2zm2.4 1.4L67 55.7zM57.8 36.5l-2.7-1.1zv-6.2zv14.1zm3.5 0Q59.8 47 62.3 53q-2.5-6-.9-16.5m-18.6 9.3q3.2-1 4-.9.9.1-3.2 3-4.1 2.8-5.7 2.8t-5.7 2-1.4-1.2 4.1-4q1.3-.7 3-.7t4.9-1m-16.9-.4q14.3-14 26-12.2V39q-5.2-9.7-26 10.4zm33.5 9.3q-6.7 5.1-19.3 9.9 12.5-4.7 19.3-9.9m-5 10.8 1.5-.4 7.5-2 1.4-.3-1.4.3-7.5 2zM44 64.8q10.9-5.6 22.4-6.3-11.6.6-22.5 6.3"/><path fill="#544529" d="m84.9 34.9.8-.4 9-4.5 7.8-4h.3v-.1l2.8-1.5.3-.1v63l-3.2 1.5V69.2q-4.9-9.6 0-19.1V26v4l-3.2 1.7-1.5.7 1.5-.7q-3.5 21 .7 52.4l-2.1-1q-5.6-15.2 0-50.7l-8 4-3.4 1.7-2.1 1V35l-2.8 1.4V43l2.8-1.7-2.8 1.7v13.4l2.8.2-2.8-.2v7.4L79 65.2v3.6l-3.2 1.7-2.7 1.3-5.5 2.8-3.6 1.8-4.6 2.3 4.6-2.3q3.5 17.4 1.7 27.5l-2.8 1.4q2-20-3.5-26.6l-2.2 1.1-3.8 2v-2l4.3-3.8 21.1-10.7h.2v3.5l-3.2 1.7q-4.6 7.9 2.2 27.3l1-.6V68.8v3.5l2.8-1.3-2.8 1.3v24.9l-1 .5-1.5.8-5.9 3 5.9-3q-9.8-7.1-3.5-26.7l-5.5 2.8q-2.2 11 3.1 26.9l-4.9 2.4-2.8 1.4-1.2.7-4.5 2.2V101v7.2l4.5-2.2q1.1-17.3-4.5-18.7v1.3-8.8l-3.8 2-.1 32 4-2 24.5-12.4 11-5.6-1-3-5 2.5-2.2 1.1-2.8 1.4V81.5l2.8-.5-2.8.5V63.8v32l2.8-1.4V35zm19.3-6.2.3-2zm-5 61.9-1.9.9-.4-3.3 2.1-1.1q-5.9-5.3-14.5-7.1V39.1l2-1 3.6-1.7q2 35.4-.6 42.4l8.5 4.3 2.1 1 2.5 1.2-3.6 1.8zm6.6-42.8q-2.9 1.7-3.2 2.3.3-.6 3.2-2.4M5.8 30l3.1 1.5 7.2 3.6q-5.7-.6-13.2 4.5v4.5q11.5-1 20.4-4.7v2.9L2.9 52.6v-5.8q7.6.4 20.4-6.6-12.8 7-20.4 6.6v-2.6q11.5-1 20.4-4.9v-.5L18 36l-1.9-1q-5.7-.6-13.2 4.5V28.6zM29 35.4l7-3.5 6.6-3.3.3 2.7-.3-2.7 9.1-4.6 3.4-1.6v3.1l-3.2 1.7V27l-9 4.3-6.2 3q-.5-2.3-.7-2.4.3.1.7 2.4l6.2-3 9-4.3v.2l3.2-1.7v17l-3.3 1.6 3.3-1.6L55 49l-3 1.6h-.2V39v7Q28.6 60.9 25.9 57v-7.5q20.8-20.1 26-10.4v-7.7l2.1-.6-2.1.6v-4.1 6q-11.7-1.9-26 12.2v-6l3.6-1.7 7.2-3.5-7.2 3.4-3.6 1.8V37zq-.1.5.5 2.3-.6-1.8-.5-2.4m23.2-10 1.4-.5zm1 21.6v1.8zm-10.4-1.1q-3.2 1-4.9 1-1.6 0-2.9.7-1.4.6-4 4-2.7 3.4 1.3 1.3t5.6-2.1 5.8-2.9q4.1-2.7 3.3-2.9-.9-.1-4.1.9m-15.1-8.5-.7.6zm-4.3 8.8v4.4q-9.4-2.3-10.3 7.3L9.4 56q-2.3-6.4 13.9-9.9m13 27.1 2.9 1.4 5.1 2.7 3 1.4 2.2 1.1.5.3v7.3L29.3 98l-.4-.2V69.6l3.8 1.8zm8 4q-6-.2-15.3 6.4 9.3-6.5 15.5-6.2m-21.1 2.9v2.5q-7-.5-12.1 6.1l-2.7-1.3q9.7-8.4 14.8-7.3m5.6-3.2q2.4 3 10.3-2.4-7.9 5.5-10.3 2.4m54.2-38-.1-1.8zm1.6 37.3 5 2.5zm18.2-7.1V50.1zl3.1-2.1zm-18.1 5q5.6-7 2-36.1 3.6 29.2-2 36.2M84.2 96l-1.4.7zM79 89.9l2.8-1.2zm2.8 9.5v-3.6L79 97.2l2.8-1.4zm-1-1.4-1 .5zm-23.6-9.4V101q4.3-10.5 0-12.4m0 23.2v-3.6zM23.4 92.6V95l-4-2q3-2.6 4-7.5zm26.2-12.8q-8 8.6-20.6 9 12.6-.4 20.6-9m5.6 31.3.3-2.3zm49.6-24.8-.3-1.3zm-75.9 9.5Q46.6 87 50 82q-3.5 5-21.1 13.8m-6.3-41.3-.7 1.4q0 .2-1 .5l-2.7 1q-1.9.8-2-.2l-.1-1.3q0-.2.9-.4t3.6-1.2 2 .2M2.9 72.4v-2.7q6.9-4.7 10-4.7h.2l2.3 1.3Q9 67.2 3 72.4q6.1-5.2 12.5-6.2l2.8 1.5Q14.2 67 3 76.5zm10-7.4q-3.1 0-10 4.7V60zm-10 11.5q11.2-9.5 15.4-8.8l1.6.8Q6.5 85.3 2.9 82.7zm0 6.2q3.5 2.5 17-14.2l3.4 1.8v4.2l-3.7 1.9q2.3 2.3-8.7 4.4l-1 .5-6.8 3.5-.2-.1zm16.8-6.3-8.8 4.4z"/><path fill="#635130" d="m102.8 88.8-3.5 1.8-.2-3.5 3.6-1.8-2.5-1.2q-4.2-31.4-.7-52.4l3.3-1.7v20.1q-5 9.5 0 19.1v16l-.1.1zm-5.3 2.7-4.7 2.3-.9-3q-6.1 2.2-7.2-4.1v-3.5Q92 81 97 88.3zM64 76.4l3.5-1.8q-2.2 11 3.1 26.9l-4.9 2.4q1.8-10.1-1.7-27.5m9-4.6 2.8-1.3q-4.6 7.9 2.2 27.3l-1.5.7q-9.8-7.1-3.5-26.7m-15.8 8 2.2-1.1q5.4 6.6 3.5 26.6l-1.2.7q1.1-17.3-4.5-18.7zm33-43.4 7.8-4q-5.5 35.5.1 50.7l-8.5-4.3q2.6-7 .6-42.4m-5.6 58v-2.9l2.2 1.8zM97 88.2l-5.2 2.5zM57.2 101V88.6q4.3 2 0 12.4"/><path fill="#5e4d2f" d="M23.3 44.5v1.6Q7.1 49.6 9.4 56l-6.5-3.3v-.2l20.4-10.2zm0 32.5v3.2Q18.2 79 8.5 87.5L3 84.8l6.8-3.5 1-.5q11-2 8.7-4.4l3.7-1.9zM50 87.4v21.1l-6.9-3.5-6.2-3.2-.1-.3q9.9-7 13.2-6.9-3.3 0-13.2 6.9v.3L32 99.4 29.3 98zM84.6 81v-1q8.6 1.8 14.5 7.1l-2.1 1q-5-7.1-12.4-4.8zm0 10.4v-4.8q1.1 6.3 7.3 4l-5.2 2.6zm-34.6 10q-2 2.6-6.9 3.5 4.9-.9 6.9-3.5M50 90q-7.6 6.2-18 9.4 10.4-3.2 18-9.4M13 57.8q.9-9.6 10.3-7.3v7q-2.2 2.3-5.3 2.9 3.1-.6 5.3-2.9V63L18 60.4zm9.6-3.3q.8-1.3-2-.2L17 55.5q-1 .2-1 .4l.2 1.3q.1 1 2 .1l2.8-1q.9-.2.9-.4zm.7 31q-1 4.9-4 7.5l-8.1-4.2q5-6.6 12.1-6z"/><path fill="#c49f55" d="m50.5 76.7 7.2-.7-4.3 3.8-3.1-3.1z"/><path fill="none" stroke="#ae915e" stroke-linecap="round" stroke-linejoin="round" stroke-width="__RESOLUTION__" d="m67 8 3-1.6m-7.7-3.9L60 4.4m12.3 12.1q16.1 2.8 21.8 10M82.6 15.9l2.9-1.6m-14.6 3q13 1.6 22.5 9.4M65 17.3l2.4 1.7m4.8-5.3Q54.1 2.7 38 5.4m-2.4 1.2q26.6-.7 32.8 9m-1 10.2L65 27.5m3.6 1.9 2-1.9m15.1 3Q75.6 30 65.4 20m6.8 11.2q-.1-.3 1.9-2m1.7 1-2.5 1.6m3 1.6q-.1-.5 1.6-2m.7 3.3 3.6-1.4m3.7 1.2L82.7 32m-5.9-17.8-2.6-1.6m27 9.5-3.5 1.3m-11.5-5.8 3.3-1.5M90.9 28l3.8 2m-59-23.3 6 1.5Q56.6 12.5 61 19.3m28.8 9.3Q74.6 25.9 69.6 18m-16-8.7 4.4.7q1.9.5 2.4.8l1.2 1.5q.8 1 .6 1.7h-1.9q-1.8-.8-2.3-1.2l-3.7-2.1q-3.1-1.7-.6-1.4M56 2.5 44.7 2M34 11l3.8-1.2m6.6 6.7 3.3-1.5m-13.9-.8Q20.4 26 6.3 27M9 28.4q15.3.4 26.4-9.6l1.1-1 2.2-1m9.4 4.9 2.3-2M39.6 14l-3 1.7m-14.5.6Q18.7 22 13 20.7l-3.5 1.6M18.2 33q13.8-11 11.2-.5l-.4 2.9m7-3.5-2.5-1.4q-2.6-2 2.3-6.9l5.3-5.6m-9-4.7 4.2-1.1m6.3 16.4-1.7-1.9q-2.1-2 3.8-6.8M63.5 21 62 18.8m1.5 7.8L66 25m-11.4-6.2-.9 1.1m-.1.1-.8 1m-1-3.7q-4-5.9-9.8-5.3m2 53-7.8 4.6m11.3 5.7Q69.1 69.8 74.7 63m-9.9-.2q1.5 0 .5 2.1-1.5 2.8-4 3.2l-8.4 1.6q-6 1.1-7 .1-1.1-1-.1-2t3.5-1.4l5.1-1m-14.3-.8-8 2.8M69.3 60l3-1.5M4.8 22.3 7 23.5M26.8 14l-2.4-1.7" vector-effect="non-scaling-stroke"/><path fill="none" stroke="#000" stroke-linecap="round" stroke-linejoin="round" stroke-opacity=".3" stroke-width="__RESOLUTION__" d="m70 6.4-7.7-3.9L59 .9m.9 3.5L67 8l8.4 4.2 3-1.5-8.5-4.3m5.7 4.4-1.3-.5m3.4 2 1-.3m-.5 1.7-1.4.6-4.5 2.2-1.3.8-1.5.7-2 1-2.2 1-1.8 1-2.5 1.2h0v.1l5 2.7 1.5.8 3.2 1.7 3.3 1.8 1.7.8 2.1 1.3L81 33l.3-.1 1.4-.7 3.1-1.7 4-1.9 1.1-.6 2.6-1.3.5-.2 4.8-2.5-1-.5-11.6-5.8m-.4-.2-3.1-1.6-4.5-2.2 3-1.6-2.8-1.4m7.2 3.6-4.3-2.2m-9 1.6-3.7 1.8-3.5 1.8-3 1.5-1 .5m13-6.5 1.3-.6m-1.2.6-1.9.9M38.1 5.4l-2.4 1.2h-.1l-1.9 1-3.1 1.6-3.3 1.6-2.9 1.5-19.7 10-2 1-.6 1.6-1.4 3.3-.2 11v3.4l-.1 3-.1 5.8V87l2.6 1.3 5 2.5 3.3 1.7 7.9 4 6.8 3.4 5.3 2.6 6.5 3.3 5 2.6 7.1 3.6 3.5 1.8h0l4-2 24.5-12.4 11-5.6 4.6-2.3 1.8-.9 3.5-1.8 3.2-1.5v-63l-.3.1-2.8 1.5h0v59.4h-.1L99 87.1l-2.1 1-5.2 2.7-5 2.5-2.2 1.1-2.8 1.4v-7.1M65.1 27.5l.9.5 2.7 1.4 3.3 1.8 1.2.6 3 1.6 2.3 1.3 3.3 1.7 2.8-1.4.3-.1.8-.4 9-4.5 7.8-4-3.7-2M71.7 58.3l.6.3L75 60l6.8 3.7v.2L79 65.2l-.2.1L57.7 76m24.4-42.7-.8-.4m3.5 2-2.7-1.6m7.4-17.1-3.9-1.9m15.6 9.3 1 .5m2.3 2.5-.2 2m1.3-4.2-4.4-2.2-11.7-6m13 9.8.3-.1M98 32.4l1.4-.7 3.3-1.7m-43-25.7-3.3-1.6M44.6 2 38 5.4m18-3L52.4.6M30.6 9.2l3 1.6m4.1-1-4-2.2M47.6 15 42 12l-4.3-2.2m-1.4 2.4 3.4 1.8 4.3 2.3m-5.2.5-2.2-1.1-2.9-1.5-1.7-.9-1.7-.9-3.5 1.6-4.7 2.3-9.2 4.4M6.3 27 9 28.4l9 4.6 7.8 3.9v2.5l3.6-1.7 7.2-3.5 6.2-2.9 9-4.3v.2l3.2-1.7v-3.1L51.7 24l-9.1 4.6-6.6 3.3-7 3.5-3.1 1.5m12.9-20 2.3 1.1 3.5 1.9 3.5 1.8 1.2.7m1.2-2.6-6.2-3.3M9.5 22.3l-2.6 1.2L3 25.4 6.3 27m-.5 3 3.1 1.5 7.2 3.6 1.9 1 5.3 2.6v.1l2.6 1.3v-.7m10.4-27.2L33.9 11m24 11.5 1.5-1m-1.5 2.1 3.1-1.4m0-2.9-3 1.5-2.7 1.3-.1.1-2.4-1.2-2.3-1.2m4.8 2.4 2.6 1.4 5.6 3 1.6.9m-15.9-5 .3-.1m5.6 0 .2-.1-.1-.1m2.6 2.7v-1.3m-3.1-4.8-2.9-1.5-4.2-2.3m7.5 10.5v9.7m2.8-5V25m-4.2-.1-1.6.5m-.2 7.9v-6M69.4 57l2.3 1.3M51.7 24l-2.5-1.5m8.8-1.7-3.4-2M44.7 2 48.2.3M27.3 10.8l3 1.6M67 55.7l2.3 1.2M55 42.6v-7.2m2.9 1.1v-6.2m-6 8.7-.1 5.1v6.6h.2l3-1.7v-6.5m-8.9 14.6 9.1-4.6-3.2-1.9m-.2.1-9.7 5-3.7 1.8-7.4 3.8m28.4-6.6-3-1.7-1.1-.5m4.6-.8-2-1.1L55 49m4.4 5.7 3.4 1.8 3.6 2 2.8 1.5.5.4 5 2.6 4.1 2.3M65.9 55l-3.5-2-2.4-1.3m-2-1.1V36.5m-4.7 12.1V47m-27.4-7v23.8m26-30.6V39m-25-1.1.8-.6m-4.4 7.2v22.2l2.6 1.3v-4.2m10.3 5.7 11.3 5.7 3 1.5M32 67.4l.4.1 3.8 2m.1 3.7 2.9 1.4 5.1 2.7 3 1.4 2.2 1.1.5.3v28.4l-.1 3.5M30.6 61.5l-4.5 2.3-.2.1m6.4.3 2.4-1.3 7.2-3.6 3.9-2m-19.9 7 3 1.5 3.4-1.6m.4 7.1 3.6 1.9M29 65.8v3.7l3.8 1.8m-6-4.4 1 .4m4.3.1L29 65.8M26 68v26.7M29 77v-7.5m0 7.5v20.8l-3-1.5v-1.5M23.3 77v18l2.6 1.3v3.6M50 80.1l3.4 1.7h0v-2m6-1.1 4.6-2.3m3.5-1.8 5.5-2.8 2.8-1.3 3.2-1.7v-3.6m-16.1 40.1 2.8-1.4m-8.5-24.1-3.8 2-.1 32M84.6 35v4.1l2-1 3.6-1.7 7.8-4m.1 50.7 2.1 1 2.5 1.2h0M81.9 43v13.4m2.8.2V39.1m-2.8-2.7V43m1.2-5.8V39M67 55.5l-1.2-.5m13.6 9.2-1.7-1m1.3 5.6v28.4l-1 .5-1.5.8M81.9 71v-7.2M84.6 81V56.6m0 26.7V81m-2.8-10v17.5m2.8 5.9v-2.9m0-.3v-8m13.5-.2-8.5-4.2-5-2.5m18.2 9v3.5m-21-32.4v7.2m1 33.1 1.4-.7M79 97.2l2.8-1.4v3.6m-2-.9 1-.5m-4.3.5-5.9 3m-13.4-.5V88.6m0 19.6v3.6M32 99.4 29.3 98l-.4-.2m-1.7 1.3.8-.8m8.9 3.5L43 105l6.9 3.5m-13.1-6.7L32 99.4m19.2 11 .4 1.3M29.4 98 50 87.4m5.4 21.4-.2 2.3M104.5 85l.3 1.3M2.9 25.3H3m-.1 0v3.2L5.8 30m-2.9-4.7-.8-.4m1.3-.8 1-.5M24.6 38l-1.5-.7m.2 7.2v-2.2L2.9 52.6v.1L9.4 56l3.6 1.8 5 2.6 5.3 2.6m0-20.7v-3.5m-20.4 8v5.8m0-8.5v2.7m6.4 12.8L.3 55m2.6-10.9V28.6m0 24.2L.3 51.4M2.9 60 .3 58.6m1-5 .6.9m1 15.2v6.7m12.5-10.2L13.2 65m5.2 2.7-2.9-1.5M3 84.8v-2m0 2v.2l.2-.1zm20.4-12v-2.5L20 68.6m4.3-3.9.3.9m-6.2-1.4 5 2.6v3.5m-10-8.7 5 2.6M9.9 81.4l-6.8 3.4 5.4 2.7 2.7 1.3q4 2.2 8.1 4.2l4 2m0-20.5-3.7 1.9-8.7 4.4M23.3 77v-4.3m-20.4-3V60l10 5m.3-3.5-3.7-1.9m15.2 38.6-1-1.7M2.8 85v3.4m-1.6-2.9.5 1" vector-effect="non-scaling-stroke"/><path fill="none" stroke="#6f0" stroke-linecap="round" stroke-linejoin="round" stroke-width="__RESOLUTION__" d="m86.2 17.7-.4-.2M56.6 2.7l-.5-.2m4 1.9-.2-.1m-26.2 6.5.3.2m1.7-4.3h.1m8.3 9.6.3.2m10.8 18.9v-.1m-9.4 21.9.3-.1m-15.2 4.2-.3.2m51.2 27.1v.2m2.8 2.8v-.3m-75-31.4-.2-.2m3.8 5.5H13m.3-3.5" vector-effect="non-scaling-stroke"/><path fill="none" stroke="#705b38" stroke-linecap="round" stroke-linejoin="round" stroke-width="__RESOLUTION__" d="m72 31.2.3 5q0 1.4-.2 1.8-.3.6-.9-.8-.9-2-2.5-7.9M66 28l2 6.3q5.8 19 2.8 22M75 60l.3-2.2q.8-8.3-.5-17l-1.6-8.9M6.2 27l-.4 3m3.1 1.5.2-3.1m56-1q-1.1.8-1.6 2.8-.9 3.6.5 11.7m-2.6-5.4q.5-3.4 1.4-7l.7-2.9M18 33v3m18.2 33.4.1 3.7m11 5.5.2-3.5m-15.1-7.7.3 3.8M25.9 76l3 .9m0 6.5-3-1-1.2-.5-1.4.8m2.6 4.5 3 1.5m-3-11.2-2.6-.6m58.5-34q-3.8-2.8-3.3-8.4m-2.3-1.2q.1 5 .6 9 1.3 11.1 5 13.6M28.9 95.8l-3-1m0-1.4-2.6-.8m8.7 6.8-.9 3.1m5.8-.7.8 4m5.4-.8-.4 3.4M3 46.8.4 45.6m8.9 14 .1-3.6m-9-13.3L3 44m0-4.5-2.4-.4M3 69.6.3 68.5m0 2.7 2.6 1.2m0 10.3-2.6-.8m0-6.5 2.6 1m15.4-12.3-.3-3.7m5.3 12.3 2.6 1.1M13 57.9l.2 3.7M19.3 93l-.2 3.5m-10.7-9L8 90.8m3.3 1.7v-3.7" vector-effect="non-scaling-stroke"/><path fill="none" stroke="#3d321d" stroke-linecap="round" stroke-linejoin="round" stroke-width="__RESOLUTION__" d="M102.8 50.1q.3-.6 3.1-2.4m-63-16.4-.3-2.7M36 31.9q.3.1.7 2.4M55.1 29l2.8 1.1m-6 1.1 2.1-.6m16.8 25.7q-.5.5-1.4.5m-5.5-15q1 5.7 3 13.7M51.9 44l3.3-1.6m0-7.1 2.8 1.1M42 55.7l3.7 1.5M56.4 53l3.5-1.3m2.9 4.8 3-1.5m-3.5-2q-2.5-6-.9-16.5m-18.6 9.3q3.2-1 4-.9.9.1-3.2 3-4.1 2.8-5.7 2.8t-5.7 2-1.4-1.2 4.1-4q1.3-.7 3-.7t4.9-1m-16.9-.4q14.3-14 26-12.2m0 5.8q-5.2-9.7-26 10.4m0 7.6q2.7 3.8 25.9-11.1m-9.9 13.4-3.5-1.7m-3.7 5.3-3.8-1.6m9.2 3.3q12.5-4.7 19.3-9.9M28.9 83.5q9.3-6.5 15.5-6.2m-5.2-2.7q-7.9 5.5-10.3 2.4m35.9-14.2-1.4.3-7.5 2-1.5.4M64 76.4l3.5-1.8q-2.2 11 3.1 26.9l-4.9 2.4q1.8-10.1-1.7-27.5m-6.8 3.4 2.2-1.1q5.4 6.6 3.5 26.6l-1.2.7-4.5 2.2V101q4.3-10.5 0-12.4zM98 32.4q-5.5 35.5.1 50.7m2.1 1q-4.2-31.4-.7-52.4m-14.9 9.6L81.8 43m0 13.4 2.8.2M79 72.3l2.8-1.3m0 10.5 2.8-.5m0 2.3Q92 81 97 88.2l.4 3.3m1.7-4.4q-5.9-5.3-14.5-7.1m18.2-10.8q-5-9.6 0-19.1m0 19.1 3.1-2.1M90.2 36.4q2 35.4-.6 42.4m-3-40.7q3.6 29.2-2 36.2M66.4 58.5q-11.6.6-22.5 6.3M29 35.4q-.1.5.5 2.3m69.8 52.9-.2-3.5m-7.2 3.7.8 3m-.9-3q-6.1 2.2-7.2-4.1m-2.8 2L79 89.9m5.6 1.6 2.2 1.8M61.7 106q1.1-17.3-4.5-18.7m-28.3 1.5q12.6-.4 20.6-9M43.1 105q4.9-.9 6.9-3.5m0-6.9q-3.3 0-13.2 6.9v.3M32 99.4q10.4-3.2 18-9.4m0-8q-3.5 5-21.1 13.8m46.9-25.3q-4.6 7.9 2.2 27.3m-1.5.7q-9.8-7.1-3.5-26.7M9.4 56q-2.3-6.4 13.9-9.9m0-5.9q-12.8 7-20.4 6.6m20.4-7.4q-8.9 3.8-20.4 4.8M13 57.8q.9-9.6 10.3-7.3m-.7 4-.7 1.4q0 .2-1 .5l-2.7 1q-1.9.8-2-.2l-.1-1.3q0-.2.9-.4t3.6-1.2 2 .2M18 60.4q3.1-.6 5.3-2.9M2.9 72.4q6.1-5.2 12.5-6.2M13 65q-3.1 0-10 4.7m0 6.8q11.2-9.5 15.4-8.8l1.6.8Q6.5 85.3 2.9 82.7zm5.5 11q9.8-8.4 14.9-7.3m-3.7-3.8q2.3 2.3-8.7 4.4M3 39.7q7.5-5.2 13.2-4.6m7.2 50.4q-1 4.9-4 7.5m-8.1-4.2q5-6.6 12.1-6" vector-effect="non-scaling-stroke"/><path fill="none" stroke="#665333" stroke-linecap="round" stroke-linejoin="round" stroke-width="__RESOLUTION__" d="M25.9 45.4q-.4.5-2.6-.9m0 4.5q2 .9 2.6.4m-2.6 7 2.6.6" vector-effect="non-scaling-stroke"/><path fill="#77724d" d="m46.9 103.2 2.5 1.3-2.6.8zm-13.1-6.7 2.5 1.3-2.7.7z"/><path fill="#817b52" d="m49.4 104.5.5.3v3.5L29.5 97.8l3.3-1.7.9.4-.2 2 2.7-.7 10.6 5.4v2.1z"/><path fill="none" stroke="#413e29" stroke-linecap="round" stroke-linejoin="round" stroke-width="__RESOLUTION__" d="M49.9 108.3 29.5 97.8" vector-effect="non-scaling-stroke"/></g><clipPath id="a"><path d="M1 1h107v115H1z"/></clipPath></defs><g clip-path="url(#a)"><g transform="translate(26.25 86.5)"><use xlink:href="#b" width="106.2" height="114" transform="translate(-25.25 -85.5)"/><use xlink:href="#c" width="14.7" height="13.1" transform="translate(10.05 .95)"/><use xlink:href="#d" width="100.2" height="44.7" transform="translate(-22.6 -34.85)"/><use xlink:href="#c" width="14.7" height="13.1" transform="translate(-16.65 -49.25)"/><use xlink:href="#c" width="14.7" height="13.1" transform="translate(-17.4 -42.65)"/><use xlink:href="#e" width="18.9" height="30.1" transform="translate(-20.95 -55.45)"/><use xlink:href="#c" width="14.7" height="13.1" transform="translate(-20.45 -13.55)"/><use xlink:href="#c" width="14.7" height="13.1" transform="translate(-16.1 -9.75)"/><use xlink:href="#f" width="91.5" height="81.3" transform="translate(-19.05 -62)"/></g></g></svg>