<svg xmlns="http://www.w3.org/2000/svg" xmlns:xlink="http://www.w3.org/1999/xlink" width="66" height="146" viewBox="0 0 66 146"><defs><radialGradient id="b" cx="0" cy="0" r="819.2" gradientTransform="matrix(.05 0 0 .05 43.45 43.3)" gradientUnits="userSpaceOnUse" spreadMethod="pad"><stop offset=".1" stop-color="#fefecb" stop-opacity=".8"/><stop offset=".8" stop-color="#ca8eba" stop-opacity=".8"/></radialGradient><radialGradient id="a" cx="0" cy="0" r="819.2" gradientTransform="matrix(.07 0 0 .07 39.95 36.75)" gradientUnits="userSpaceOnUse" spreadMethod="pad"><stop offset=".1" stop-color="#fefecb" stop-opacity=".8"/><stop offset=".8" stop-color="#ca8eba" stop-opacity=".8"/></radialGradient><radialGradient id="d" cx="0" cy="0" r="819.2" gradientTransform="matrix(.04 0 0 .04 3.4 56.75)" gradientUnits="userSpaceOnUse" spreadMethod="pad"><stop offset=".1" stop-color="#fefecb" stop-opacity=".8"/><stop offset=".8" stop-color="#ca8eba" stop-opacity=".8"/></radialGradient><radialGradient id="c" cx="0" cy="0" r="819.2" gradientTransform="matrix(.07 0 0 .07 7.4 52.9)" gradientUnits="userSpaceOnUse" spreadMethod="pad"><stop offset=".1" stop-color="#fefecb" stop-opacity=".8"/><stop offset=".8" stop-color="#ca8eba" stop-opacity=".8"/></radialGradient><radialGradient id="h" cx="0" cy="0" r="819.2" gradientTransform="matrix(.04 0 0 .04 14.35 -136.9)" gradientUnits="userSpaceOnUse" spreadMethod="pad"><stop offset=".1" stop-color="#373c22"/><stop offset="1" stop-color="#6c7645"/></radialGradient><radialGradient id="g" cx="0" cy="0" r="819.2" gradientTransform="matrix(.05 0 0 .05 -5.7 -109.9)" gradientUnits="userSpaceOnUse" spreadMethod="pad"><stop offset=".1" stop-color="#373c22"/><stop offset="1" stop-color="#6c7645"/></radialGradient><radialGradient id="f" cx="0" cy="0" r="819.2" gradientTransform="matrix(.05 0 0 .05 26 -2.45)" gradientUnits="userSpaceOnUse" spreadMethod="pad"><stop offset=".4" stop-color="#373c22"/><stop offset="1" stop-color="#6c7645"/></radialGradient><g id="x"><path fill="url(#a)" d="m41 35.4.1 2.4v.1l-1 .5H40q-7.2 2.9-11.7 7.3Q2 33.5 0 0q32.7 3.9 41 35.4M19 22.6l.8-.1q.8 0 .8 1.1t-1.5 1-1.5-2q0-1.3 1.3-2.2 1-.7 1.8-.7 2.5.2 3.8 3 .8 1.6 1.8 5.1.4 1.6 4 5.2 4.8 4.9 9.7 5.4-4.9-.5-9.7-5.4-3.6-3.6-4-5.2-1-3.6-1.8-5.1-1.3-2.8-3.9-3-.7 0-1.7.7-1.2.9-1.2 2.2 0 1.8 1.4 2 1.5.1 1.5-1 0-1-.9-1.1z" transform="translate(.5 .5)"/><path fill="url(#b)" d="M28.3 45.7q4.4-4.4 11.7-7.4l1.9.1 3 2.9.1.1q1 28.4-22.9 32.1-4.3-17.7 6.1-27.8m2.6 13q.6 0 .6-.6v-.6h-.7q-1 .3-1 1.8 0 1.6 1.9 1.8 1.2 0 3.1-1.4Q37 58 37 56q-1.6-5.4-1.6-7 0-2.8 3-4.5l4.7-3-4.7 3q-3 1.7-3 4.5 0 1.6 1.6 7 0 2-2.2 3.7-2 1.4-3.2 1.3-1.9-.1-1.9-1.7t1-1.8h.7v.6q0 .6-.6.6" transform="translate(.5 .5)"/><path fill="none" stroke="#fff" stroke-linecap="round" stroke-linejoin="round" stroke-opacity=".4" stroke-width="__RESOLUTION__" d="M41.7 38.4v-.1l-.2-2.4m-1 3q-4.9-.5-9.7-5.4-3.6-3.6-4-5.2-1-3.6-1.8-5.1-1.3-2.8-3.9-3-.7 0-1.7.7-1.2.9-1.2 2.2 0 1.8 1.4 2 1.5.1 1.5-1 0-1-.9-1.1l-.7.1m22.9 15.8 3 2.9m-3-2.9-.7-.6m1.9 3.6-4.7 3q-3 1.8-3 4.6 0 1.6 1.6 7 0 2-2.2 3.7-2 1.4-3.2 1.3-1.9-.1-1.9-1.7t1-1.8h.7v.6q0 .6-.6.6m9.2-20.3h1.9" vector-effect="non-scaling-stroke"/><path fill="none" stroke="#fff" stroke-linecap="round" stroke-linejoin="round" stroke-opacity=".4" stroke-width="1" d="M41.6 35.9Q33 4.4.4.5q2 33.5 28.3 45.7 4.4-4.4 11.7-7.4m4.9 3 .1.1q1 28.4-22.9 32.1-4.3-17.7 6.1-27.8m11.8-7.4 1.1-.4"/></g><g id="z"><path fill="url(#c)" d="M3.2 54.6Q7 52 9.4 45.1q1.8-5 1.7-6.7-.4-3.9-.2-5.7.2-3.3 2.2-4.6l1.7-.1q1.3.3 1.6 1.5.7 1.9-.5 2.6-1.2.9-1.6-.2-.3-1 .4-1.5l.7-.2-.7.2q-.7.5-.3 1.5t1.5.3q1.2-.9.5-2.7-.3-1.2-1.6-1.5l-1.7.1q-2 1.3-2.2 4.6-.2 1.8.2 5.6.1 1.8-1.7 6.9Q7 52 3.2 54.6q6.8-.4 11.9 1.8Q32.7 33.1 23.8 0-1.7 18.3 1.4 52.3l.6 2.3v.1h1.1z" transform="translate(.5 .5)"/><path fill="url(#d)" d="M3.2 54.7q6.8-.5 11.9 1.7 11.8 5 13.9 24-20.9 7-29-20.7l.1-.2 1.5-4.1 1.5-.9m14 15.4q-.6.3-.7-.2l-.1-.6.5-.4q.9-.1 1.4 1.3.5 1.6-1 2.6h-3q-2.3-.7-3-2.5-.4-5.9-1-7.5-.8-2.6-3.7-3l-5-.6 4.9.8q2.9.4 3.8 3 .5 1.5 1 7.5.5 1.8 2.9 2.5l3-.1q1.5-1 1-2.6-.5-1.4-1.4-1.2l-.5.3.1.5q.2.6.7.3" transform="translate(.5 .5)"/><path fill="none" stroke="#fff" stroke-linecap="round" stroke-linejoin="round" stroke-opacity=".4" stroke-width="__RESOLUTION__" d="m15.9 30.7-.7.2q-.7.5-.3 1.5t1.5.3q1.2-.9.6-2.7-.4-1.2-1.7-1.5l-1.7.1q-2 1.3-2.2 4.6-.2 1.8.2 5.6.1 1.8-1.7 6.9-2.4 6.8-6.2 9.4h-.1l-1.5.9.4-1-.6-2.2m.2 3.1L.6 60m1.5-.5 4.9.8q2.9.4 3.8 3 .5 1.5 1 7.5.5 1.8 2.9 2.5l3-.1q1.5-1 1-2.6-.5-1.4-1.4-1.2l-.5.3.1.5q.2.6.7.3" vector-effect="non-scaling-stroke"/><path fill="none" stroke="#fff" stroke-linecap="round" stroke-linejoin="round" stroke-opacity=".4" stroke-width="1" d="M3.7 55.2q6.8-.5 11.9 1.7Q33.2 33.6 24.3.5-1.2 18.8 1.9 52.8m.6 2.4h1.1M.6 60l-.1.3q8.2 27.7 29 20.5Q27.4 62 15.6 57"/></g><g id="w" fill-opacity=".1"><path fill="#fefe37" d="M117.8 8.7q.3 1.3-7.9 5.5-2.2 1.3-6 2.3l-12.2.8q-8.9-.5-18 1.3l-14.3.2h-8.1l-30.6-2.4-7.4-.3q-6.3-.2-11-4.8Q.2 9.6 0 7.4t12.2-4.3q1.8-.6 5-1l14-.7q9.8.5 19.1 0l12.2-1 22.5.9 9.6 1 16.6 3q6.1 2 6.5 3.4"/><path fill="#fefe37" d="M114.6 8.7q.3 1.2-7 4.9-2 1.2-5.4 2.1l-11 .7q-7.9-.4-16 1.2l-13 .2-7.2-.1-27.4-2-6.7-.3q-5.6-.2-9.8-4.4-2-1.4-2.2-3.5 0-2 11-3.8 1.7-.6 4.5-1L37 2.3q8.8.3 17.1 0l10.9-1 20.2.8 8.6 1 15 2.7q5.5 1.7 5.8 3"/><path fill="#fefe37" d="M101.4 9q.2 1-5.6 3.9-1.5.9-4.2 1.7L83 15q-6.2-.3-12.6.9l-10.2.1h-5.7L33 14.5l-5.2-.2q-4.4-.2-7.7-3.5-1.5-1.1-1.6-2.7t8.6-3l3.5-.7 9.9-.5q6.9.4 13.4 0l8.6-.7 15.8.6 6.8.8 11.7 2.1Q101 8 101.3 9"/><path fill="#fefea3" d="M99.6 6.7q4.4 1.4 4.7 2.3.2 1-5.6 3.9-1.5 1-4.2 1.6l-8.6.6q-6.2-.3-12.6.9l-10.1.1h-5.7L36 14.6l-5.2-.2q-4.4-.2-7.8-3.4-1.5-1.2-1.6-2.7Q21.3 6.5 30 5l3.5-.7 9.9-.5q6.9.3 13.4 0l8.5-.7 15.9.6 6.8.8z"/></g><g id="v"><path fill="#ff9" d="M12.8 13.5q-2.1 2.3-5.1 2.3t-5.1-2.3T.5 8.2t2.1-5.4T7.7.5t5 2.3 2.1 5.4-2 5.3"/><path fill="none" stroke="#fff" stroke-linecap="round" stroke-linejoin="round" stroke-opacity=".5" stroke-width="1" d="M12.8 13.5q-2.1 2.3-5.1 2.3t-5.1-2.3T.5 8.2t2.1-5.4T7.7.5t5 2.3 2.1 5.4-2 5.3"/><path fill="#fff" d="M5.7 6.8q.5-.5 1.2-.6t1.3.3.7 1.3q0 .7-.5 1.2l-1.1.8q-.7 0-1.3-.5t-.6-1.1q-.2-.7.3-1.4m7.9.4q.1.6-.3 1.3-.5.5-1.2.7-.8 0-1.3-.4T10 7.6t.3-1.3 1.3-.7L13 6q.5.4.6 1.2"/></g><g id="s"><path fill="#554111" d="M46.5 125q3.8-1.7 7.2-4.1l-1.5 5.8-5.4-.8v-.1zl.3.8 5.5 1 1.4-5.9q3.3-2.6 2.8 3-1.6 2.1-3.6 3.8-2.7 4.4-8.8 5-2.7 2-6.6 1.7l-.1-1.2 2-4.5-.2-1.3q3.6-2.2 7.3-2.5m.3.9-3 5.7-4.4-2.8 4.4 2.8zm6.1 1.9-.6-1zm-9.1 3.8.3 1.2z"/><path fill="#614914" d="M37.6 134.4q-3.1 2.1-7.5.6v-1.1l2.7-4.1v-1.3q3.4-1.5 6.4-1.1l.1 1.3-1.9 4.6zm-4.7-4.5 4.6 3.4z"/><path fill="#715617" d="M30.2 135q-2.1 1.2-4.3.8l-4.3-1.1v-1.1l3.9-3.5 4.6 3.8zm-4.6-6.2q1.4-.7 3.3-.7l4 .4v1.3l-2.6 4-4.7-3.7z"/><path fill="#81621b" d="M21.6 134.7q-5.4.9-9.2-1.2l.3-1.2 4-3.5.4-.9q4.2-.5 8.4 1v1.2l-3.9 3.5zm-4.9-5.8 4.9 4.7z"/><path fill="#8a691c" d="M12.5 133.5q-4.7.3-7.1-2.4l.5-.9 4.1-3.3.6-1q3.4.2 6.5 2l-.4 1-4 3.4-2.7-5.5 2.8 5.5z"/><path fill="#a27b21" d="M5.4 131.1q-3.7-2-4.7-4.7L.5 125q-.1-3.3 3.9-3.3l1.7 1.5.6.3q1.9 1.3 4 2.3l-.7 1-4.1 3.3.8-6.6L.5 125l6.2-1.5-.8 6.6z"/><path fill="none" stroke="#000" stroke-linecap="round" stroke-linejoin="round" stroke-opacity=".3" stroke-width="1" d="M53.7 120.9q-3.4 2.3-7.2 4-3.7.3-7.3 2.5-3-.4-6.4 1.1l-4-.4q-1.9 0-3.3.8-4.2-1.5-8.4-1-3.1-1.8-6.5-2-2-1-3.9-2.3l-.6-.3-1.7-1.5q-4 0-3.9 3.3l.2 1.3q1 2.8 4.6 4.7 2.5 2.7 7.2 2.4 3.7 2.1 9.1 1.2l4.3 1.1q2.2.4 4.3-.8 4.3 1.5 7.3-.6 3.9.3 6.6-1.7 6-.6 8.8-5 2-1.7 3.6-3.7.5-5.7-2.8-3.1"/><path fill="none" stroke="#000" stroke-linecap="round" stroke-linejoin="round" stroke-opacity=".1" stroke-width="__RESOLUTION__" d="m46.5 125 .3.8h0l5.5 1 1.4-5.9m-14.3 7.8-2 4.6.1 1m1.7-7 .1 1.4 4.5 2.8 3-5.7m5.5 1 .6.9m-8.8 5-.3-1.2M.5 125.1l6.2-1.5-.8 6.6 4.1-3.3.6-1m-.6 1 2.8 5.4 4-3.5.3-.9m-4.4 4.4-.2 1.2m-6.6-3.3-.6.9m24.8 3.9v-1.1l-4.6-3.8-3.9 3.5v1.1m3.9-4.6v-1.2m4.6 5 2.7-4.1v-1.3m-11.2 5.1-4.9-4.7m20.7 4.3-4.6-3.4" vector-effect="non-scaling-stroke"/><path fill="#614914" d="m38.7 122.7.1 1.3-1.8 4.3-4.5-3.2.1-1.3q3.1-1.5 6.1-1.1m-6.2 2.4 4.5 3.3.1 1q-3 2-7.1.6v-1.1z"/><path fill="#554111" d="m37 128.4 1.9-4.5-.2-1.2q3.4-2.1 7-2.3l.3.8 5.2.9 1.4-5.6-1.4 5.6-5.2-.8v-.1l-.3-.8q3.6-1.7 6.9-3.9 3.1-2.5 2.6 2.9-1.6 2-3.4 3.7l-.6-1 .6 1q-2.6 4.1-8.4 4.7-2.6 2-6.3 1.6zm1.9-4.5 4.2 2.8.3 1.1-.3-1.1zm7-2.8-2.8 5.5z"/><path fill="#715617" d="m32.6 123.8-.1 1.3-2.5 3.8v1.1q-2 1.2-4.1.8l-4.1-1.1v-1l3.7-3.4.1-1.2q1.3-.6 3-.7zm-7.1 1.5 4.5 3.6z"/><path fill="#81621b" d="m17.2 124.2.4-1q4-.4 8 .9l-.1 1.2-3.7 3.4zl4.7 4.5v1q-5.2.9-8.7-1.1l.3-1.1z"/><path fill="#8a691c" d="m17.6 123.3-.5.9-3.7 3.3-2.7-5.3.6-1q3.2.3 6.3 2m-6.9-1 2.7 5.3-.3 1q-4.5.3-6.8-2.2l.5-.9z"/><path fill="#a27b21" d="m11.3 121.3-.6.9-4 3.2.9-6.3-.6-.3-1.7-1.4q-3.8-.1-3.7 3.2l.1 1.2q1 2.7 4.6 4.5l.5-.9.8-6.3zm-9.7-.7 6-1.5z"/><path fill="none" stroke="#000" stroke-linecap="round" stroke-linejoin="round" stroke-opacity=".1" stroke-width="__RESOLUTION__" d="m37 128.4 1.9-4.5-.2-1.2m-6.1 1.1-.1 1.3 4.5 3.3.1 1m6.3-1.6-.3-1.1-4.2-2.7m6.8-3.6.3.8h0l5.2.9 1.4-5.6m-1.4 5.6.6 1m-8.7 3.6 2.9-5.5m-28.4 2-.5 1 4.7 4.5 3.7-3.4.1-1.2m-14.3-2.8-.6.9 2.7 5.3 3.7-3.3m-10.4 1.2.9-6.3-6 1.5m5.2 4.8 3.9-3.2m-4 3.2-.5.9m6.9 2.3.3-1.1M30 130v-1.1l-4.5-3.6m-3.7 3.4v1m10.7-4.6-2.5 3.8" vector-effect="non-scaling-stroke"/><path fill="none" stroke="#000" stroke-linecap="round" stroke-linejoin="round" stroke-opacity=".3" stroke-width="1" d="M38.7 122.7q-3-.4-6.1 1.1l-4-.4q-1.7 0-3 .7-4-1.3-8-.8-3.1-1.8-6.3-2L7.6 119l-.6-.3-1.7-1.4q-3.8-.1-3.7 3.2l.1 1.2q1 2.7 4.6 4.5 2.3 2.5 6.8 2.3 3.5 2 8.7 1.1l4 1q2.2.5 4.2-.7 4.1 1.5 7.1-.6 3.7.4 6.3-1.6 5.8-.6 8.4-4.7 1.9-1.7 3.4-3.7.5-5.4-2.6-2.9-3.3 2.3-6.9 3.9-3.6.2-7 2.3"/><path fill="#000" fill-opacity=".3" d="m56.7 122.2-.1 1q-1 2-4.5 3.7-2.2 2-6.9 2-3.6 1.8-8.9 1.5l-4.1 1-4.4-.2q-4.2 1.4-7.3 0-3.8.6-6.5-.7-6.1-.1-9-3-2-1.1-3.7-2.4-.8-4 2.6-2.4 3.5 1.5 7.2 2.4 3.8 0 7.5 1.3 3-.5 6.3.4 2.1-.6 4-.6l3.2.3q4.1-1.2 8.3-1.1 3-1.6 6.3-2l3.8-1.8.5-.3 1.8-1.1q3.8-.4 3.9 2"/><path fill="#614914" d="M33.3 163.2v-1.3q3.2-1.5 6-1l.2 1.2-1.9 4.3zl4.4 3.2.1 1q-2.9 2-6.9.6v-1z"/><path fill="#715617" d="m33.4 161.9-.1 1.3-2.4 3.8-4.5-3.6v-1.2q1.3-.6 3-.7zm-7 1.5 4.5 3.5-.1 1.1q-2 1.2-4.1.8l-4-1.1v-1z"/><path fill="#554111" d="m37.7 166.4 1.8-4.3-.1-1.2q3.4-2.2 6.9-2.4l.2.9 5.1.8 1.4-5.5-1.4 5.6-5.1-.9-.2-.9q3.5-1.6 6.8-3.8 3-2.4 2.5 2.9l-3.4 3.6-.6-1 .6 1q-2.5 4-8.2 4.7-2.6 1.9-6.2 1.5zm1.8-4.3 4.2 2.6.3 1.2-.3-1.2zm4.2 2.6 2.8-5.3z"/><path fill="#81621b" d="m26.5 162.2-.1 1.2-3.7 3.3-4.6-4.4.4-1q4-.4 8 .9m-8.4 0 4.6 4.6v.9q-5 .9-8.6-1.1l.3-1.1z"/><path fill="#8a691c" d="m18.6 161.4-.5.8-3.7 3.3-.3 1.1q-4.5.3-6.7-2.2l.5-.9 3.9-3.1 2.6 5.1-2.6-5.1.6-1q3.1.2 6.2 2"/><path fill="#a27b21" d="M7.4 164.4q-3.5-1.8-4.5-4.5l-.1-1.2q-.1-3.2 3.6-3.1l1.8 1.3.5.4q1.7 1.1 3.7 2.1l-.6 1-3.9 3.1zm-4.6-5.7 5.9-1.4-.8 6.2.8-6.2z"/><path fill="none" stroke="#000" stroke-linecap="round" stroke-linejoin="round" stroke-opacity=".1" stroke-width="__RESOLUTION__" d="m33.4 161.9-.1 1.3 4.4 3.2 1.8-4.3-.1-1.2m-13 1.3v1.2l4.5 3.5 2.4-3.7m-14.7-1.8-.5.8 4.6 4.6 3.7-3.4m-3.7 3.3v1m8.1.3v-1m-16.7-.4.3-1.1-2.6-5.1-3.9 3.1-.5.9m7 1.1 3.7-3.2M8 163.5l.8-6.2-5.9 1.4m9.6.7-.6 1m34.5-1.9.2.9h0l5.1.8 1.4-5.5m-1.4 5.6.6.8m-14.5 6.3v-1m6.3-.5-.3-1.2-4.2-2.6m7-2.7-2.8 5.3" vector-effect="non-scaling-stroke"/><path fill="none" stroke="#000" stroke-linecap="round" stroke-linejoin="round" stroke-opacity=".3" stroke-width="1" d="M39.4 160.9q-3-.5-6 1l-4-.5q-1.7.2-3 .8-4-1.3-7.8-.8-3.1-1.8-6.2-2-2-1-3.7-2.1l-.5-.4-1.8-1.3q-3.7-.1-3.6 3.1l.1 1.2q1 2.7 4.5 4.5 2.2 2.5 6.7 2.2 3.5 2 8.6 1.1l4 1q2.2.5 4.1-.7 4 1.4 7-.6 3.6.4 6.2-1.5 5.7-.7 8.3-4.7l3.3-3.6q.5-5.3-2.6-2.9-3.2 2.3-6.7 3.8-3.5.3-7 2.4"/><path fill="#000" fill-opacity=".3" d="M28.6 169.3q-3.6 1.1-6.5 0-3.2.4-5.7-.7-5.3 0-8-2.7-1.9-.9-3.5-2.2-1-3.4 2.1-2t6.5 2.2q3.3-.1 6.5 1.1l5.6.4q1.9-.6 3.4-.6l2.9.3q3.5-1 7.1-1 2.6-1.4 5.4-1.7l3.1-1.7.5-.2 1.4-1q3.4-.3 3.6 1.9v.8q-.6 1.8-3.6 3.2-1.8 1.8-5.8 1.9-3 1.6-7.7 1.3l-3.6 1z"/><path fill="none" stroke="#000" stroke-linecap="round" stroke-linejoin="round" stroke-opacity=".3" stroke-width="1" d="M26.6 5.2v1.5q0 2.5-.8 4.3t-1.9 1.8T22 11t-.8-4.3q0-2.6.8-4.4T23.9.5q.5 0 1 .4"/></g><g id="o"><path fill="none" stroke="#000" stroke-linecap="round" stroke-linejoin="round" stroke-opacity=".3" stroke-width="1" d="M72.3 195.7h1"/><path fill="#47502e" d="m19.8 192.3.8-.1q1.4 0 2.5 1 1.3 1.2 1.3 2.7 0 1.1-.9 1.1l-1.3-.2q-1.8 0-3.2 1.3-1.4 1-1.6 2.5-1.9-1.7-1.9-4 0-3.7 3.3-4l.2-.1h.4z"/><path fill="#30361f" d="m17.4 200.6 2 1.3q2.8 1.4 3 1.7 1 1 1 3.5 0 3.8-6.2 3.8-2.7 0-2.7-2.3 2-1.4 3-2.8l.2.4q0 .9-1.6 2.5l1.5 1q1.4 0 2.5-1 1.1-.8 1.1-2 0-.8-2-2.1-1.9-1.3-1.9-3.1z"/><path fill="none" stroke="#000" stroke-linecap="round" stroke-linejoin="round" stroke-opacity=".3" stroke-width="1" d="m19.8 192.3-.4.2h-.6q-3.3.3-3.3 4.2 0 2.2 1.9 3.9.3-1.5 1.6-2.5 1.4-1.2 3.2-1.2l1.3.1q.9 0 .9-1.1 0-1.6-1.2-2.7-1.2-1-2.6-1zl-.7.2m-1.6 8.1-.1.9q0 1.8 2 3.1 1.9 1.3 1.9 2.2t-1.1 2q-1.1.8-2.5.8l-1.6-.9q1.7-1.6 1.7-2.4l-.2-.5q-1 1.3-3 2.8 0 2.3 2.7 2.3 6.2 0 6.2-3.8 0-2.5-1-3.5l-3-1.7z"/><path fill="#2c210a" d="m28.4 159.4 1.5-4.9 3.3-2.3-.5 2.3q.9-.6 2-1l.5-.3.2-2.1v-.1l4.9-1.4-.2 1.8q4.6-1.2 10.3-1.2 6 0 10.8 1.4V149l5.3 2.5-.2 2 1.5.9v-1.8l3.5 2.7 1 4-.1-.4.2.8.2 1.5-1.5-2.7-.6 2.1-.5 1.6 1.3 2.8-.1.3-.2-.2-1.5-2.3-5 2.8-1.7.9.6 3v.3l-3.1-6.6-2 .7-2.4.8-1.4.5.4 6.4h-.1l-1-4.4-3 .3-4.3.3-4 .4-.4 3.4-.9-.2-.4-4.6-1-.3-2-.7-1.7-.5-1.2 3.8q-2.4 5.3-3.4 12.2-.7 4.4-.8 9.5v5.8l-.6-5.9q-.4-4.8.1-9.2.8-6.9 3.6-12.9l.6-2.9-2.1-2.1-1.7-1.7-1.1-1-1.2 1.4-.2-1q0-1.3.5-2.4zm17.9 60.9-.7-.1-1.4-4.7-.2-1q-2.5-10-3.2-21.2v-1.1l-.1-1.7-.1-5.3v-1.7l.1-4 .5-8.2 1 .3-.6 7.8-.1 8.7.1 5.3q.6 12.3 3.4 22.7z"/><path fill="#806231" d="M72.4 159.3q3.8 6.6 5.5 13.4 3.6 14.3-1.5 29l-1.7 4.6-.1-.1q0-2 .7-4.8l.9-3.2q1.5-4.9 1.5-11.8 0-7.6-1.3-13.3-1.8-7.7-6-12.5l.6-2.1 1.6 2.7-.2-1.5zm-18.5 61-3.4.1h-1.3l.6-2q1.3-4 1.3-8.5 0-6.3-1.4-14.6l-1-5.6q-1.1-6-1.7-11.3-.5-5.2-.5-9.8v-.7l4.3-.5-.1 3.3q0 3.4.6 6.9.9 4.1 2.5 8.3l2.8 6.5.2 4.6v1.8l-1.4-.8q-.5 0-1.2 5.9l-.4 4.1-.2 5.3q0 4.7.3 7m-8.9-4.2q-2.7-10.4-3.4-22.7l-.1-5.3q1.3-3.5 2.7-3.5 1.3 0 2.4 9.3l.1.7q.8 6.8.8 10.2 0 11.3-2.5 11.3"/><path fill="#5a4412" d="m39.9 166.6 1 .3.5 4.5-.6 8.3-.1 3.8-.6-3.7-.3-1.2q-.6-2.7-.6-5.2 0-3.6.6-6.8m1 24v1.7l-.2-1.3z"/><path fill="#44341a" d="m74.6 206.3-2.7 5.6-.9 1.3-1.3 1.5-.9.8.4-1q2.9-6.9 4.5-13.5 3.3-14.4.1-27.5-1-4.2-2.7-8.2l.3-.4-1.5-2.7.5-1.6q4.2 4.8 6 12.5 1.3 5.8 1.3 13.3 0 6.9-1.5 11.8l-.9 3.2q-.7 2.8-.7 4.8z"/><path fill="#4f3d1e" d="m68.8 215.5-3 1.8-.5.3-.1-.7q0-1.2 1.3-3.6 1-1.9 2.8-4.6 2.8-4.3 3.7-7.8l.3-3.1q0-6.9-2.8-14.6l-3.1-8.5q-1.9-5.5-2.9-9.1l5-2.8 1.5 2.3.1.2q1.7 4 2.7 8.2 3.2 13-.1 27.5-1.6 6.6-4.5 13.5zm-5.4 2.8-2 .7q.5-2 2.9-6.6v-.2l1.3-2.4-.6 2.9zm3.3-28.5 2 1.8q1 3.4 1 4.8 0 1.9-.5 3.5-.7 3.3-3 5.5l.5-6z"/><path fill="#5b4622" d="m65.3 217.6-1.9.7 1.6-5.6.5-3 .7-3.6-.7 3.7-1.2 2.3v.3q-2.4 4.5-3 6.6l-2.6.7q1-3.8 1.6-9 .7-5.5.9-12.6l.1-7.9q0-5-1.6-12.8l-.2-1.2q-1.5-6.9-3.6-11.4l2.4-.9-.1 1q0 2.9 3.5 10.8l1.5 3.4 3.1 6.6q-.5-5.2-1.6-10.5l-1.2-5-.1-.7-.6-3 1.7-1q1 3.7 2.9 9.2l3 8.6q2.9 7.6 2.9 14.5l-.3 3q-1 3.6-3.7 7.9-1.8 2.7-2.8 4.7-1.3 2.3-1.3 3.5zm1-12.2q2.3-2.2 3-5.5.5-1.6.5-3.6 0-1.3-1-4.7l-2-1.7v9.4zm.1-19.7.4 4.2z"/><path fill="#6a5228" d="m58.7 219.7-2.2.4.5-10.8-.1-10.2v-.3l-.1-1.8-.2-4.6q-.4-7.6-1.2-15.6l-.5-4.7v-.5l-.4-6.4 1.4-.4q2 4.5 3.6 11.3l.2 1.3q1.6 7.8 1.6 12.8l-.1 7.9q-.2 7-.9 12.6-.6 5.2-1.6 9m-.4-55.8 2-.7 3.1 6.7.1.3 1.2 5q1.1 5.3 1.6 10.5l-3-6.6-1.6-3.4q-3.5-7.9-3.5-10.8z"/><path fill="#8d6c36" d="m56.6 220-2.7.3q-.3-2.3-.3-7l.3-5.3.3-4.1q.6-5.9 1.2-5.9l1.5.8v10.5zm-7.3.3-2.9-.2-1.2-4.1q2.4 0 2.4-11.3 0-3.4-.8-10.2l-.1-.7q-1.1-9.3-2.4-9.3-1.4 0-2.7 3.5l.1-8.7.5-7.8.4-3.4 4-.3v.7q0 4.6.5 9.8t1.8 11.3l1 5.7q1.3 8.2 1.3 14.5 0 4.4-1.2 8.5zm-6.5-.6q-2.6-.5-5-1.4-5.2-11.6-7-21.7v-5.8q0-5.2.8-9.7 1-6.8 3.4-12l1.1-3.9 1.9.5-3.5 14.9-.4 1.4q-.9 5-1.2 9.3l-.1 3.3q0 5 2.6 11.9 2.7 7 7.5 13.2m8-52.4 3-.2 1 4.4v.3l.1.2.5 4.8q.8 8 1.2 15.5l-2.8-6.5q-1.6-4.2-2.4-8.3-.7-3.5-.7-6.8zm-16.2 24.3-.1-.8q0-2.5.3-4.9.4-4.8 1.8-4.8l.4.7.6 1.4q1.4 3.2 2 9.6.5 5 .5 12 0 2.5-.6 2.5-1.8 0-3.4-6.2-1.5-5.2-1.5-9.5"/><path fill="#a07b3d" d="m45.6 220.2-2.9-.4q-4.7-6.2-7.4-13.2-2.6-7-2.6-12l.1-3.2q.3-4.3 1.3-9.3l.3-1.4 3.5-14.8 1.9.6q-.7 3.3-.7 6.8 0 2.4.6 5.1l.3 1.3.6 3.8v1.7l.1 5.3-.2.4.3 1.3v1q.7 11.3 3.2 21.3l.2 1zm-7.7-1.7-2.9-1.2-1.1-.7v-.6q0-2.5-3.2-11.7-2.9-8.2-3.2-14.2l-.1-1.7q0-2.8.4-6.5l1.3-7.7q1.6-8 3.3-10.6l2.1 2.1-.6 2.9q-2.8 6-3.6 12.8-.5 4.5-.1 9.3.1 2.9.6 6 1.8 10.1 7 21.8m-6.2-3.4-.8-.7-.8-1-.4-.6v-.1l-.2-.3-.1-.2-.2-.4q-6.5-11.7-7.4-23.2-.3-2.7-.2-5.5.4-12 7-23.7l.2-.5q-.5 1.1-.5 2.3l.1 1.2 1.3-1.6 1 1.1q-3.1 3.8-5 9.8-1.7 5.6-1.7 10.2v.8q0 3.3.3 6.6.9 7.8 3.5 14.8l2.7 6.5q1.2 2.8 1.2 3.9zm-3.2-52.7-.9.8zm6.2 29.3q0 4.3 1.5 9.5 1.6 6.2 3.4 6.2.6 0 .6-2.5 0-7-.5-12-.6-6.4-2-9.6l-.6-1.5-.4-.6q-1.4 0-1.9 4.8l-.2 4.8z"/><path fill="#b08742" d="m33.8 216.7-2.3-1.6v-.6q0-1.1-1.2-4l-2.7-6.3q-2.6-7.1-3.5-14.9-.3-3.3-.4-6.7v-.7q0-4.6 1.8-10.2 1.9-6 5-9.8l1.8 1.7q-1.7 2.7-3.3 10.6-.8 4.3-1.2 7.7-.5 3.7-.5 6.5v1.7q.4 6 3.3 14.2 3.2 9.2 3.2 11.7z"/><path fill="none" stroke="#000" stroke-linecap="round" stroke-linejoin="round" stroke-opacity=".3" stroke-width="1" d="m28.4 159.4 1.5-4.9 3.3-2.3-.5 2.3q.9-.6 2-1l.5-.3.2-2.1v-.1l4.9-1.4-.2 1.8q4.6-1.2 10.3-1.2 6 0 10.8 1.4V149l5.3 2.5-.2 2m1.5.9v-1.8l3.5 2.7 1 4q3.9 6.6 5.6 13.4 3.6 14.3-1.5 29l-1.7 4.6h-.1l-2.7 5.6-.9 1.3-1.3 1.5-.9.8-3 1.8-.5.3-1.9.7-2 .7-2.7.7-2.2.4-2.6.2-3.4.1h-1.3l-2.9-.2m-.7 0-2.9-.4q-2.6-.5-5-1.4l-2.8-1.2-1.1-.5-2.3-1.6-.8-.7-.8-1-.4-.6v-.1l-.2-.3-.1-.2-.2-.4q-6.5-11.7-7.4-23.2-.3-2.7-.2-5.5.4-12 7-23.7"/><path fill="none" stroke="#000" stroke-linecap="round" stroke-linejoin="round" stroke-opacity=".3" stroke-width="__RESOLUTION__" d="m66.3 153.6 1.5.8m-21.5 65.9-.7-.1-1.4-4.7m-15.8-56.1.2-.5q-.5 1.1-.5 2.3l.1 1.2 1.3-1.6m4.9 4.9-.6 2.9q-2.8 6-3.6 12.8-.5 4.5-.1 9.3.1 2.9.6 6v-5.8q0-5.2.8-9.7 1-6.8 3.4-12l1.1-3.9m5.3 6 .9.3-.6 7.8-.1 8.7.1 5.3q.6 12.3 3.4 22.7l1.3 4.2m17.1-50.5v-.3l.1.7zl.1.3 1.2 5q1.1 5.3 1.6 10.5l.4 4.2v9.4l-.5 6.1m4.8-40.2.2.1.1-.4m1.3-3.7-.2-1.5-.2-.8.1.3.1.5m-1.4 5.5.1.1q1.7 4 2.7 8.2 3.2 13-.1 27.5-1.6 6.6-4.5 13.5l-.4 1m-12.2-23.1.2 4.6v1.8m0 .3.2 10.2-.5 10.8M55 172l.5 4.8q.8 8 1.2 15.5M55 171.8v.2zl-.1-.3m.1 0v.5m0-.2v-.3m-27.4-8.3.8-1m12.3 22.9.1 5.3v1.7l.1 1q.7 11.3 3.2 21.3m-2.7-43.2-.6 8.3-.1 3.8m25 26.3.6-3.6m-.7 3.7-.5 2.9-1.6 5.6m-25.6.1q-5.3-11.6-7-21.7" vector-effect="non-scaling-stroke"/><path fill="none" stroke="#ffffcd" stroke-linecap="round" stroke-linejoin="round" stroke-opacity=".3" stroke-width="1" d="m29.5 160.9 1 1 1.8 1.7 2.1 2.1m1.6-.4 1.9.5 1.9.7 1 .3.5 4.5m.9.3.3-3.4 4-.3 4.3-.5 3-.2 1 4.4m.1 0-.4-6.4 1.4-.4 2.4-.9 2-.7 3.1 6.7m0-.4-.6-3 1.7-1 5-2.7 1.5 2.3m.3-.2-1.3-2.7.5-1.6.5-2.1 1.6 2.7"/><path fill="#000" fill-opacity=".3" d="m67 185.7-.3.4-.2.1q-1.9 2.8-1.2 6.2.4 2.3 1.5 4.2v.3h.4l2.3-.8-2.8 6.5v-.2q-.5-7.2-3.7-8v-.3l.6-3.6q0-3.4-1.3-3.2v-.1q3.4-1.2 3.4-5.3l-.1-1.2q1.6 1.7 3.2 4.4-1.5.1-1.8.6"/><path fill="url(#e)" d="M50.8 42.9q-.7-3.4 1.2-6.2l.1-.2.4-.3q.4-.5 1.8-.7h1.4q3.7 0 8.8 3.4l2.3 1.7 3.6-1q0 .6-1.2 3.8 1.4 2.1 1.4 4.6 0 3-2 5.6-2.1 2.6-2.1 5 0 3.3 2.5 3.3 2.4 0 2.4-1.7l-.8-2v-.1l3.1 1.6Q71.2 64 67.3 64q-3.1-1.3-3.1-5.7l.6-3.6q2-3.2 2-5.3l-.5-3.6h-.8l-1.9.3v-.9L64 44q0-.4-1.5-.7-2.8-1.2-4-1.2-1.2 2-2.2 2l-1-2.4q-.9 0-4.5 1.1m17.9 1.8.5-1.2zm-1.9-4-1.1.3z" transform="translate(14.5 149.5)"/><path fill="#292f1c" d="m69.6 196.1-2.4.8h-.4v-.3q-1.1-1.8-1.5-4.2 3.6-1.2 4.5-1.2l1 2.4q1 0 2.2-2 1.2 0 4 1.2 1.5.3 1.5.8l-.5 1.1v.8h.2l1.8-.2h.8l.5 3.6q0 2.1-2 5.3l.1-1.6q0-2.4-1-4.3-1.4-2.7-4-2.6H73l-.5-.1H72zm12.3 17.5q4-.1 6.4-4.3l2.1 1.1-1.5 2.3q-1.3 1.5-3.5 1.5-2 0-3.5-.6"/><path fill="none" stroke="#000" stroke-linecap="round" stroke-linejoin="round" stroke-opacity=".3" stroke-width="1" d="M67 185.7q.3-.5 1.8-.6l1.4-.2q3.7 0 8.8 3.4l2.3 1.8 3.6-1q0 .7-1.2 3.8 1.4 2.2 1.4 4.7 0 2.8-2 5.5-2.1 2.7-2.1 5 0 3.3 2.5 3.3 2.4 0 2.4-1.7l-.8-2v-.1l3.1 1.7 2.1 1.1-1.5 2.3q-1.3 1.5-3.5 1.5-2 0-3.5-.6-3.1-1.4-3.1-5.8l.6-3.6.1-1.6q0-2.4-1-4.3-1.4-2.7-4-2.6H73l-.5-.1H72l-2.5.5-2.3.8h-.4v-.3m16.9-3.7-.5 1.2m-3-3.7 1.1-.3"/><path fill="#000" fill-opacity=".3" d="M68.3 176.2q3.6-1.5 6.9-3.6 3-2.4 2.8 2.7l-3.2 3.3q-2.5 4-8.5 4.5-2.5 1.9-6.3 1.5-3 2-7.4.6-2 1.1-4.2.7l-4.3-1q-5.2.8-9.1-1.1-4.6.3-7.1-2.1-3.8-1.7-5-4.2l-.2-1.2q-.3-3 3.6-3l1.8 1.3.6.3 4 2.1q3.3.2 6.6 1.8 4.2-.4 8.4.8 1.3-.5 3.1-.7l4.2.4q3.1-1.4 6.2-1 3.4-2 7-2.2"/><path fill="url(#f)" d="m30.4-18.8-.5 13-.3 10h-.1q-6 0-8.8-6.4l-2.2-5.5q-1.3-3-2.8-4.5 2.3-1.2 5.4-.8-2.5-1.9-5.6-3.3-2.7-14.4-10.4-19.2 15.5 3.4 25.3 16.7M18.1-26q7.1 6 11.8 20.1Q25.3-20 18.1-26" transform="translate(14.5 149.5)"/><path fill="none" stroke="#000" stroke-linecap="round" stroke-linejoin="round" stroke-opacity=".3" stroke-width="1" d="m44.9 130.7-.5 13-.4 10h0q-6 0-8.8-6.4l-2.2-5.5q-1.3-3-2.8-4.6 2.3-1.1 5.4-.7-2.5-1.9-5.6-3.3-2.7-14.4-10.4-19.2 15.5 3.4 25.3 16.7"/><path fill="none" stroke="#000" stroke-linecap="round" stroke-linejoin="round" stroke-opacity=".3" stroke-width="__RESOLUTION__" d="M44.4 143.7q-4.6-14.1-11.9-20.1" vector-effect="non-scaling-stroke"/><path fill="url(#g)" d="M-4.7-140q3.3 6.8 3.3 12.3 0 5.7-3.3 11.8-3.4 6.2-3.4 10.8l.1 1.4.3 1.1-.2-1.1-.2-1.5q0-4.5 3.4-10.7 3.3-6.1 3.3-11.8 0-5.5-3.3-12.2m-3 37.3-.1 1q-3-1.2-4.7-6.3-1.5-4.5-1.5-9.2 0-8.9 2.3-14.5t2.3-9q0-4.7-1.7-6.2l1.8.8q2.9 1.2 5.4 3 7.6 5.5 7.6 13.8 0 4.8-5.7 14.7-5 8.3-5.7 11.9" transform="translate(14.5 149.5)"/><path fill="none" stroke="#000" stroke-linecap="round" stroke-linejoin="round" stroke-opacity=".3" stroke-width="__RESOLUTION__" d="m6.8 46.9-.2-1.1-.2-1.5q0-4.5 3.4-10.7 3.3-6.1 3.3-11.8 0-5.5-3.3-12.2" vector-effect="non-scaling-stroke"/><path fill="none" stroke="#000" stroke-linecap="round" stroke-linejoin="round" stroke-opacity=".3" stroke-width="1" d="M6.8 46.9q.8-3.6 5.6-11.9 5.8-9.8 5.8-14.7 0-8.3-7.6-13.8-2.5-1.8-5.4-3l-1.9-.7q1.8 1.4 1.8 6.1 0 3.4-2.3 9T.5 32.3q0 4.8 1.5 9.3 1.7 5 4.7 6.4z"/><path fill="url(#h)" d="M34.2-142.1q-3.3 1.9-10.8 3.1l-15.3 2.7 15.4-2.7q7.5-1.2 10.7-3.1m-.7 4.2-7.5 1.8-7.4.6-6.2-.4-4.3-.4q.2-.4 6-3.6l5.3-3 4.6.9q.6 0 .6-2 0-.6 1.3-1l7.4-.6q4 .1 7.8-1.3l1.8-.8 2-1.3q-1.6 3.6-4.5 6.7-3.5 3.7-6.9 4.4" transform="translate(14.5 149.5)"/><path fill="none" stroke="#000" stroke-linecap="round" stroke-linejoin="round" stroke-opacity=".3" stroke-width="1" d="M22.6 13.2 38 10.5q7.5-1.2 10.7-3.1m-.7 4.2-7.5 1.8-7.5.6-6-.4-4.4-.4q.1-.4 6-3.6l5.3-3 4.6.9q.6 0 .6-2 0-.6 1.3-1l7.4-.6q4 .1 7.8-1.3l1.8-.8 2-1.3q-1.6 3.6-4.5 6.7-3.5 3.7-6.9 4.4"/><path fill="url(#i)" d="M28.4-6q6.9-23.6-26-61.1l-.4-.7Q-16.3-94-6.9-120.7-1.5-130.1 4-134q4.7-3.3 13.4-4.9 15.4-2.8 25.3 9.8 4 5.1 4.6 11.9.7 6.3-1.6 11.8-2.5 5.5-7 7.5-2.9 1.3-6 1-.7-2.5 1.1-3.8 1.5-.4 2.9-1.3 8.2-8.3 4.6-18.2-8.7-22.3-29.2-12.6-23.8 21.4-8.1 56.2 11.4 16.7 26.3 32 10 12.4 10.3 29-.5-2.7-2.2-2.7-1.1 0-2 8.6T32.8-1q-1.1 0-2.2-2.4-.9-2.1-2.1-2.4m-4-100.3q.9-1.5 2.6-3 5.3-4.8 9 2.8l-5.4 2.6q-1.1-1.3-2.2-1.5l-.9-.2z" transform="translate(14.5 149.5)"/><path fill="url(#j)" d="M28.4-6q1.3.4 2.2 2.5 1 2.4 2 2.4 3 0 3.9-8.6t1.9-8.7q1.7 0 2.2 2.7l.1.8v.8q.3 5 .8 5.5.6-.5 1.1-2.6.4-1.6 2-1.6 1 0 1 3 0 1.4-1.1 5.4t-1.1 6.2 1.3 5q1 2.3 2.3 3.8-5 2.2-9.9 2.2l-7-.9-5.3-1.1q1.4-2 2-3.8.4-1.5.4-4.9 0-3.8-.5-6.2 0-2 1.2-2z" transform="translate(14.5 149.5)"/><path fill="#3c4125" d="M48.4 48.7q-1.9 1.3-1.2 3.8-2.5-.3-5-1.5-5.6-3.7-3.2-7.7l3 .8-.5.1q-1.6.6-.4 2.3 3.6 3 7.3 2.2"/><path fill="none" stroke="#000" stroke-linecap="round" stroke-linejoin="round" stroke-opacity=".3" stroke-width="1" d="M47.2 52.5q3.1.3 6-1 4.5-2 7-7.5 2.3-5.5 1.6-11.8-.6-6.7-4.6-11.9-10-12.6-25.3-9.8-8.7 1.6-13.4 4.9Q13 19.3 7.6 28.8q-9.5 26.7 8.9 52.9l.4.7q32.8 37.5 26 61.2 1.3.3 2.1 2.3 1.1 2.5 2.1 2.5 3 0 3.9-8.7t1.9-8.6q1.7 0 2.2 2.7-.4-16.7-10.4-29-14.8-15.3-26.3-32Q2.8 38 26.7 16.6 47 6.9 55.9 29.2q3.5 9.9-4.7 18.2-1.5 1-2.9 1.3-3.6.8-7.2-2.2-1.2-1.7.4-2.3l.5-.2m5.1 8.5q-2.4-.3-4.9-1.5-5.6-3.7-3.2-7.7.8-1.5 2.5-3 5.3-4.8 9 2.8l-5.4 2.6Q44 44.4 43 44.2m-.1 99.4-.5-.2q-1.2 0-1.2 2 .5 2.4.5 6.3 0 3.3-.5 4.9-.5 1.8-1.9 3.7m22.2-.2q-1.4-1.5-2.4-3.7-1.2-2.8-1.2-5.2 0-2.1 1.1-6.1t1.1-5.4q0-3-1-3-1.6 0-2 1.6-.5 2.1-1.1 2.6-.5-.5-.7-5.5l-.1-.8-.1-.8m7 26-.6.3.7.7"/><path fill="none" stroke="#000" stroke-linecap="round" stroke-linejoin="round" stroke-opacity=".1" stroke-width="__RESOLUTION__" d="M17.5 22.1q3.7-4.3 7.8-6.5m34.4 15.7q1 5.6-.6 10l2.1.4M56 40l1.7.5q1.3-2.7.8-5.3m-2.7 11.6q2.3-2.6 3.4-5.5m-20.8 72.3 2.7-1.7-3.5-4.5m5.3.4 2.2 3m6.6 6q-2.6-1-3.6.3l1.2 4.5m-1.7-5.5.5 1m-7-5.2q4 5.6 4.6 13.5M11 35q-2.7 7.8-2.3 15.5 3 .8 4.2-.7m-4-20.5q1.7-3.1 2.8-4.5l-.9-1.5M8.6 50.6q.3 6.3 2.9 12.6m6.4-44.8-6.2 6.5" vector-effect="non-scaling-stroke"/></g><g id="B" transform="translate(0 .35)"><use xlink:href="#m" width="53.1" height="26.6" transform="matrix(.64 0 0 .64 22.35 126.1)"/><use xlink:href="#n" width="29.9" height="82.8" transform="matrix(.64 0 0 .64 32.7 4.1)"/><use xlink:href="#o" width="90.8" height="220.9" transform="matrix(.64 0 0 .64 5.45 -.35)"/><use xlink:href="#q" width="46.5" height="113.3" filter="url(#r)" transform="matrix(.64 0 0 .64 13.45 7.4)"/><use xlink:href="#s" width="57" height="169.8" transform="matrix(.64 0 0 .64 19.1 30.4)"/><use xlink:href="#u" width="46.1" height="74.5" transform="matrix(.64 0 0 .64 5.95 15.9)"/><use xlink:href="#v" width="15.3" height="16.3" transform="matrix(.64 0 0 .64 29.35 36.75)"/><use xlink:href="#w" width="117.8" height="18.8" transform="matrix(.54 -.1 0 2.88 0 20.15)"/><use xlink:href="#w" width="117.8" height="18.8" transform="matrix(.35 -.06 0 1.88 14.5 26.9)"/></g><linearGradient id="j" x1="-819.2" x2="819.2" gradientTransform="matrix(0 -.01 .01 0 36.3 -1.85)" gradientUnits="userSpaceOnUse" spreadMethod="pad"><stop offset="0" stop-color="#2c210a" stop-opacity="1"/><stop offset="1" stop-color="#47502e" stop-opacity="1"/></linearGradient><linearGradient id="i" x1="-819.2" x2="819.2" gradientTransform="matrix(0 -.05 .03 0 17.15 -59.3)" gradientUnits="userSpaceOnUse" spreadMethod="pad"><stop offset="0" stop-color="#47502e" stop-opacity="1"/><stop offset="1" stop-color="#6c7645" stop-opacity="1"/></linearGradient><linearGradient id="e" x1="-819.2" x2="819.2" gradientTransform="matrix(.01 .01 -.01 .01 65.25 47.7)" gradientUnits="userSpaceOnUse" spreadMethod="pad"><stop offset="0" stop-color="#292f1c" stop-opacity="1"/><stop offset="1" stop-color="#47502e" stop-opacity="1"/></linearGradient><use xlink:href="#x" id="u" width="46.1" height="74.5"/><use xlink:href="#y" id="q" width="46.5" height="113.3"/><use xlink:href="#z" id="n" width="29.9" height="82.8"/><path id="y" fill="#ffff7e" fill-opacity=".5" d="m44.6 32.8 2 1q-5.4 7-12 6.4v-1.4l5.7-2 3.8-5.7 1.4.1zM34.6 2l-.9.6.1 1.1Q17.8-3 7.1 12l-.2.2-2.2 3.6-1.6-1.2-.9 1.2L0 14.2l1.5-1.6-1-.8 2.8-3.2 1.5 1.2 6-5.5L17.3 1l9.1-1zm-6.2 88.6 1.3-.7q3.3 3 6.8 8.3 3.4 5.3 4.9 13.8-1.6-.8-3.5.3l-1.2-4.6-4 1.8-.6.8-1.5-3.7 1.5-1.7-.1-.2q-2-5.2-5.7-8.4l2.6-1.5 1.4 1.7 1.6-1.2zm5.3 19.7 1.9-.6.7 3-1.6.6z"/><path id="m" fill="#000" fill-opacity=".3" d="M11.8 60.7q0-5.6 7.8-9.4 7.8-4 18.8-4t18.8 4q7.7 3.9 7.7 9.4T57.1 70q-7.7 4-18.7 4t-18.8-4q-7.8-3.8-7.8-9.4" transform="translate(-11.8 -47.35)"/><clipPath id="A"><path d="M1 1h64v144H1z"/></clipPath><filter id="r" filterUnits="userSpaceOnUse"><feConvolveMatrix divisor="25" in="SourceGraphic" kernelMatrix="1 1 1 1 1 1 1 1 1 1 1 1 1 1 1 1 1 1 1 1 1 1 1 1 1" order="5 5" result="filter1"/></filter></defs><g clip-path="url(#A)"><use xlink:href="#B" width="63.8" height="143.6" transform="translate(1 1)"/></g></svg>