<svg xmlns="http://www.w3.org/2000/svg" xmlns:xlink="http://www.w3.org/1999/xlink" width="34" height="23" viewBox="0 0 34 23"><defs><clipPath id="a"><path d="M1 1h32v21H1z"/></clipPath><g id="b"><path fill="#000" fill-opacity=".3" d="M2.6 1.8 23.3 14l5.1-2.7h3.4l-.6 1.5-9.7 6.6h-3.6l3.6-3.9L.5 3z"/><path fill="#3c2f22" d="m16.7 8.5-.9 1.4-8.4-3.6-2-1.1-3-1.6L.3 2.5l-.1-.7q2.9 1.9 6.8 3v.6q4.4 1.9 7.8 2.6zM2.4 3.7l2.8 1.1 1.8.5-1.8-.5z"/><path fill="#584730" d="m.2 1.7.1-1 3.3 1.4 4.1 1.7q0-.4.8-.7l1.3.5 2.7 1.2-1 .8L15 7.1l.7-.8 1.9.8-.9 1.4-1.9-.6Q11.4 7.2 7 5.3V4.2L3.6 2.1 7 4.2v.5Q3.1 3.6.2 1.7m10.4 2.8L9 3.9l.8-.3-.8.3zm-.2 1L14.9 8z"/><path fill="#6d543d" d="M.3.8Q.5.3.9.3 1.3-.2 8.5 3q-.9.3-.8.6L3.6 2.2zm12.2 4 3.2 1.5-.7.8-3.5-1.5z"/><path fill="none" stroke="#000" stroke-linecap="round" stroke-linejoin="round" stroke-opacity=".3" stroke-width="__RESOLUTION__" d="m16.7 8.5-.9 1.4-8.4-3.6-2-1.1-3-1.6L.3 2.5l-.1-.7.1-1Q.5.4.9.4 1.3-.2 8.5 3l1.3.5 2.7 1.2 3.2 1.5 1.9.8z" vector-effect="non-scaling-stroke"/><path fill="none" stroke="#000" stroke-linecap="round" stroke-linejoin="round" stroke-opacity=".2" stroke-width="__RESOLUTION__" d="m7 5.3-1.8-.5-2.8-1.1M3.6 2 7 4.2v1.1m2.8-1.7-.8.3 1.5.6m4.3 3.4-4.5-2.4" vector-effect="non-scaling-stroke"/><path fill="#555" d="m26 7.9-.1.4q-1.2.3-1.8 1.1v-.5q1-.7 1.8-1m-5.5 4q-1.3.4-1.6 1.2l-.2-.5q1.2-1.2 2-1.2z"/><path fill="#ccc" d="M25.9 8.3v-.5q2.3 1 .6 5.8l-.5-.4q1.3-3.9-.1-4.9M22 17l-.6-.3q1.5-4.2-1-4.7l.2-.6q3 .8 1.4 5.6m-4.6 2.9-.6-.1q1.8-5.3-2.5-4.9v-.8q4.9-.3 3.1 5.8"/><path fill="#666" d="M26 7.9q-1 .3-1.9 1v.5q2 1 .5 5.6L22 17q1.5-4.8-1.4-5.6-.8 0-2 1.2l.1.5q2.3.8 1 5.1l-2.3 1.7q1.8-6.1-3.1-5.8l3.6-2.4q.5-.7-2.2-1.8 0-1.7 1-2.6l.8-.5q4.1 2 5.3 1.5l2.8-2 .7-.1q4.3-.4 2.5 5.6l-2.3 1.8q1.7-4.8-.6-5.7M20.4 9q-1.8-.7-3.7-1.7 1.9 1 3.7 1.7"/><path fill="none" stroke="#000" stroke-linecap="round" stroke-linejoin="round" stroke-opacity=".3" stroke-width="__RESOLUTION__" d="M25.9 8.3v-.5q-.9.4-1.8 1.1v.5q.5-.7 1.8-1.1 1.4 1 .1 4.9l.5.4 2.3-1.7q1.8-6.1-2.5-5.7l-.7.1-2.9 2q-1.1.5-5.2-1.6l-.9.6q-.9.9-.9 2.6 2.7 1.1 2.2 1.8L14.3 14v.8q4.3-.4 2.5 4.9l.6.1h0l2.3-1.7q1.3-4.3-1-5.1.4-.7 1.7-1.2 2.5.6 1 4.8l.6.3 2.6-2q1.5-4.6-.5-5.6m-3.5 2q-.8 0-2 1.2l.1.5m1.7-1.2.2-.5m-4-4q1.9 1 3.7 1.7" vector-effect="non-scaling-stroke"/><path fill="#555" d="m16.7 8.3.1-.2.4-.1.3.2.1.2-.2.1h-.3z"/><path fill="none" stroke="#000" stroke-linecap="round" stroke-linejoin="round" stroke-opacity=".3" stroke-width="__RESOLUTION__" d="m16.7 8.3.1-.2.4-.1.3.2.1.2-.2.1h-.3z" vector-effect="non-scaling-stroke"/><path fill="#555" d="M19.4 9.3h-.2l-.3.1-.4-.2v-.1l.1-.2h.4l.3.1z"/><path fill="none" stroke="#000" stroke-linecap="round" stroke-linejoin="round" stroke-opacity=".3" stroke-width="__RESOLUTION__" d="M19.4 9.3h-.2l-.3.1-.4-.2v-.1l.1-.2h.4l.3.1z" vector-effect="non-scaling-stroke"/><path fill="#605928" fill-opacity=".6" d="M29.3 8.4q.1 1.6-.4 3.5l-2.4 1.8-.5-.4.6-3 1.1-.5.9-.9zm-5.2 1.7-.2.2-1.4.3-.3.1q-1.1.1-1.1-.3l.4-.6.8-.2h.7zm.9 1.2h.3q.1 1.5-.6 3.8L22 16.9l-.6-.2q.8-2.2.5-3.4l.1-.2h.4l.9-.4.7-1q.2-.2 1-.4m-7.7 5.1.4-.3.3.1.4.2q.9-.4 1.8-1.3l-.6 3.1-2.2 1.8-.6-.3q.6-2 .4-3.2zm-.2-4.3.4.6q0 .4-1.8.7l.7-.7z"/></g></defs><g clip-path="url(#a)"><use xlink:href="#b" width="31.8" height="20.1" transform="translate(1 1)"/></g></svg>