<svg xmlns="http://www.w3.org/2000/svg" xmlns:xlink="http://www.w3.org/1999/xlink" width="31" height="29" viewBox="0 0 31 29"><defs><clipPath id="a"><path d="M1 1h29v27H1z"/></clipPath><g id="b"><path fill="#d4d4bd" d="m22.3 10.2.3.2 3 1.5 1.3 1.8-11.5 5.9-.6.3-2.4-1.3-3.1-1.7 7.6-4-1.4-.8-2.8-1.5 6-.2zl-5.7-3-2.9-1.5-5 2.8 4 2.1 6-.2zm-7 9.4-.5.3zm3.3-9.2-2-3.2z"/><path fill="#d3d2b1" d="m14.8 19.9-.6.3-3.3 1.7-1.2.6-5.4 2.8-3.8.3v-4.4l.4.3 4.8-2.6.4-.2h3.7l1 3.2-1-3.1-3.7-.1 3.2-1.8 3.1 1.7zl-.6.3zm-5-1.1 2.6-.2z"/><path fill="#d0b66d" d="M.5 21.3v-1.6l.4.3 14.6-8 1.4.8-7.6 4-3.2 1.8-.4.2-4.9 2.6z"/><path fill="#d4c59c" d="M.5 19.8V4.9l.8-.4 7.4 4 4 2.1 2.8 1.5L.8 20z"/><path fill="#d5d4c3" d="M.5 4.9V.4L2.3 0l11.5 5.8-5.1 2.7-7.4-4zm3-2.7 2 2.6z"/><path fill="none" stroke="#000" stroke-linecap="round" stroke-linejoin="round" stroke-opacity=".3" stroke-width="__RESOLUTION__" d="m22.3 10.2.3.2m-.3-.2-3.7.2-6 .2m4-3.3 2 3m-13-5.5L3.5 2.2m7.4 19.7-1.1-3.1-3.7-.1-.4.2m6.7-.3-2.6.1" vector-effect="non-scaling-stroke"/><path fill="none" stroke="#000" stroke-linecap="round" stroke-linejoin="round" stroke-opacity=".3" stroke-width="1" d="m26.9 13.7-11.5 5.9-.6.3-2.4-1.3-3.1-1.7 7.6-4-1.4-.8-2.8-1.5-4-2.1-7.4-4-.8.4m13.8 15.3-3.5 1.7m-1.1.6-5.4 2.8m1.4-6.4L.8 21.5l-.3-.2m8.8-4.4-3.2 1.8m8.7 1.2-.6.3M8.8 8.5l5-2.7"/><path fill="none" stroke="#000" stroke-linecap="round" stroke-linejoin="round" stroke-opacity=".3" stroke-width="__RESOLUTION__" d="m4.3 25.3-3.8.3v-4.4m0-1.4V.4" vector-effect="non-scaling-stroke"/></g></defs><g clip-path="url(#a)"><use xlink:href="#b" width="27.4" height="25.9" transform="matrix(1.1006 0 0 1.0588 1 1)"/></g></svg>