<svg xmlns="http://www.w3.org/2000/svg" xmlns:xlink="http://www.w3.org/1999/xlink" width="56" height="50" viewBox="0 0 56 50"><defs><clipPath id="a"><path d="M1 1h54v48H1z"/></clipPath><g id="b"><path fill="#000" fill-opacity=".3" d="M1 34.7q13.8-5 26-13.7l25 13.2q-13 5.3-26 13.6z"/><path fill="#4d4f31" d="m41.7 24.9 3.5-1.9v2.5l-1.4 1-.5 1.6-1.6-.5z"/><path fill="#5e613d" d="M41.7 24.9v2.7l-1.6.1H40l-1-1.6-1.6-.3v-3.3zm0 5v.1L40 31.9l-.7-1.5.5-1z"/><path fill="#473a2e" d="m41.7 27.6 1.5.5.6-1.6 1.5-1V35l-3.6 1.9z"/><path fill="#684f36" d="m41.7 36.9-4.3-2.4v-8.7l1.6.3 1 1.6h.1l1.5-.1v2.3l-1.7-.6-.5 1 .8 1.4 1.4-1.7z"/><path fill="none" stroke="#000" stroke-linecap="round" stroke-linejoin="round" stroke-opacity=".3" stroke-width="__RESOLUTION__" d="M45.3 25.5V23l-3.6 1.9-4.3-2.4v12l4.3 2.4 3.5-1.9z" vector-effect="non-scaling-stroke"/><path fill="#5e613d" d="m26 35.2-1.5.1h-.2l-.9-1.6-1.6-.3v-3.2l4.2 2.3z"/><path fill="#684f36" d="m21.8 33.4 1.6.3 1 1.6h.1l1.5-.1v9.3l-4.2-2.4z"/><path fill="#4d4f31" d="M26 35.2v-2.7l3.6-1.9v2.5l-1.4 1-.6 1.6z"/><path fill="#473a2e" d="M26 44.5v-9.3l1.6.5.6-1.6 1.4-1v9.5z"/><path fill="none" stroke="#000" stroke-linecap="round" stroke-linejoin="round" stroke-opacity=".3" stroke-width="__RESOLUTION__" d="m26 32.5-4.2-2.4v12.1l4.2 2.3 3.6-1.9v-12z" vector-effect="non-scaling-stroke"/><path fill="#4d4f31" d="m10 24.8 3.6-2v2.6l-1.4 1-.6 1.6-1.6-.6z"/><path fill="#5e613d" d="M10 24.8v2.6l-1.5.2h-.2l-.9-1.7-1.6-.2v-3.3zm0 5-1.5 1.7-.7-1.4.5-1.1z"/><path fill="#473a2e" d="m10 27.5 1.6.4.6-1.5 1.4-1v9.5L10 36.8v-9.4"/><path fill="#684f36" d="m10 36.8-4.2-2.4v-8.7l1.6.3 1 1.6h.1l1.5-.2v2.4L8.3 29l-.6 1.1.8 1.4 1.5-1.7z"/><path fill="none" stroke="#000" stroke-linecap="round" stroke-linejoin="round" stroke-opacity=".3" stroke-width="__RESOLUTION__" d="M13.6 25.4v-2.6l-3.6 2-4.2-2.4v12l4.2 2.4 3.6-2z" vector-effect="non-scaling-stroke"/><path fill="#826344" d="m48.8 15.6-4.4-2.9-2.4-1.3Q31.9 6.3 18.5 4.8l6-3.4 6.2 1.1 18.8 9.4 1.5 2.5zM14.5 6.8q11.9 3.6 19.8 8.2 3.6 2.1 6.5 4.4l-4.3 2.2-8.4-3.6Q18 13.3 11.5 8.5l-.5.3.5-.3h.1-.1.1l.6-.2-.1-.1zm-8.9 4.8q12.6 2.7 20.5 7.4 3.6 2.1 6.2 4.8l-5.6 2.7q-2.6-2.6-6.2-4.8Q13.2 17 2 13.5l3.3-1.7z"/><path fill="#785b3f" d="M18.5 4.8Q31.9 6.3 42 11.4l2.4 1.3 4.4 2.9-3 1.4-4.9 2.4Q38 17.2 34.4 15q-7.9-4.6-19.8-8.2zM51 14.4l-1.6-2.5 3.3 1.6zM30.7 2.5l-6.2-1.1 2-1zm1.7 21.3Q29.8 21 26.2 19q-7.9-4.7-20.5-7.3v-.1l.3-.1 4.9-2.7.5-.3q6.5 4.8 16.9 9.5l8.3 3.6zM2 13.6q11.2 3.5 18.5 8.2 3.6 2.3 6.2 4.8l-1.4.6-4.8-2.4-3.1-1.6-7.3-3.7-5.8-3-4-2z"/><path fill="#4c3928" d="m48.8 15.6 2.3-1.2 1.6-.8v5.2l-6 3.2-.9-5zm-22 10.9 5.6-2.7q-.4.5.3 5.6l-7.3 3.9v-6.1z"/><path fill="#413123" d="m40.9 19.5 5-2.5.9 5-14.1 7.5q-.7-5.2-.4-5.7l4.3-2.2z"/><path fill="#8a6948" d="m11.5 8.5.6-.3z"/><path fill="#624a33" d="m.4 14.4 4 2 .2 6-4.1-2zm9.8 5 7.3 3.7v.1q.1 4-3 4.4l-4.4-2.3zm10.4 5.3 4.8 2.4v6.2l-4.9-2.5q-1.2-2.7.1-6.1"/><path fill="#684f36" d="m4.4 16.5 5.8 2.9-.1 5.9-5.5-2.9zm13.1 6.7 3.1 1.6q-1.3 3.4 0 6l-6.1-3.1q3.1-.4 3-4.4z"/><path fill="none" stroke="#684f36" stroke-linecap="round" stroke-linejoin="round" stroke-width="__RESOLUTION__" d="M18.5 4.8Q31.9 6.3 42 11.4l2.4 1.3 4.4 2.9m.8-3.7L30.7 2.5 26.5.4m-12 6.4q12 3.6 20 8.2 3.5 2.1 6.4 4.4m8.6-7.5 3.3 1.6m-47.1-2v.2q12.6 2.6 20.5 7.3 3.6 2.1 6.2 4.8m4.2-2.2L28.2 18Q18 13.3 11.5 8.5m-9.3 5q11.2 3.5 18.5 8.2 3.6 2.3 6.2 4.8" vector-effect="non-scaling-stroke"/><path fill="none" stroke="#000" stroke-linecap="round" stroke-linejoin="round" stroke-opacity=".3" stroke-width="__RESOLUTION__" d="m24.5 1.4-6 3.4-4 2L12 8.2l-.5.3h-.1l-.5.3-5 2.7M46.8 22l6-3.2v-5.3M5.6 11.7l-3.3 1.7-1.7.9v6l4.2 2 5.5 2.9 4.4 2.3 6 3.1 5 2.6 7.2-3.8 14-7.5M26.5.4l-1.9 1" vector-effect="non-scaling-stroke"/><path fill="#a74343" d="m42.3 7.8 1.5.7 2.8 1.4-27.1 14.3h-.2L17 22.8l-1.5-.8zm-25.1 24-.4-.3-1.6-.9q.7-1.6.5-5.6.8 1.5 1.1 3.7zm-4.8-2.6-3.5-1.8-.2-.1.2-.7q.5-1.7 1.8-3.2-.4 2.3 1.7 5.8M7 17.8l15.7-8.3 2 .8 1.7.6-16.1 8.6-1.4-.7zm18.3-9.5L34 3.5l1.8 1 1.4.7-10 5.4-.9-1.1zm18.6.2-27 14.4zm-17.5 1 9.4-5zm-9.4 22v-2.8zm-7.9-4.2v-.8zm0-8.5L25 10.3z"/><path fill="#b55" d="M19.3 24.2v8.7l-2.1-1.1-.4-3.1.1-5.8-1.5-.8-5.1-2.6-1.4-.7v7.7-7.7l-2-1v8.5l1.8.9.2-.7q.5-1.7 1.8-3.2-.4 2.3 1.7 5.8l2.8 1.5q.7-1.6.5-5.6.8 1.5 1.1 3.7l.1-5.8zm3.3-14.7 1.2-1 1.6 1.1-.6.7zm2.1.8.8-.7 1.3 1.1-.4.2z"/><path fill="#893636" d="m23.8 8.6 1.3-.2 1.1 1.1-.7.1zm13.3-3.4 5.2 2.6-27 14.3-5-2.6 16.1-8.6.4-.2-1.4-1.1.9-.1.8 1z"/><path fill="none" stroke="#000" stroke-linecap="round" stroke-linejoin="round" stroke-opacity=".3" stroke-width="__RESOLUTION__" d="M46.6 9.9 19.4 24.2h-.2v8.7l-2.1-1.1-.4-.3-1.6-.9-2.8-1.5-3.5-1.8-.2-.1-1.7-1" vector-effect="non-scaling-stroke"/><path fill="none" stroke="#684f36" stroke-linecap="round" stroke-linejoin="round" stroke-width="__RESOLUTION__" d="M16.9 22.9 43.8 8.5m-19 1.8.6-.7.9-.1 9.4-5m-11 5.8L9 18.8" vector-effect="non-scaling-stroke"/><path fill="none" stroke="#785b3f" stroke-linecap="round" stroke-linejoin="round" stroke-width="__RESOLUTION__" d="M16.9 22.9v5.8l-.1 2.8M8.9 18.8v8.5" vector-effect="non-scaling-stroke"/></g></defs><g clip-path="url(#a)"><use xlink:href="#b" width="53.1" height="47.7" transform="translate(1 1)"/></g></svg>