<svg xmlns="http://www.w3.org/2000/svg" xmlns:xlink="http://www.w3.org/1999/xlink" width="26" height="77" viewBox="0 0 26 77"><defs><clipPath id="a"><path d="M1 1h24v75H1z"/></clipPath><g id="b"><path fill="none" stroke="#000" stroke-linecap="round" stroke-linejoin="round" stroke-width="1" d="m10.5 71.7 2.9.8-.2 1.4"/><path fill="none" stroke="#a85a0d" stroke-linecap="round" stroke-linejoin="round" stroke-width="1" d="m10.8 71.6 2.8.8-.1 1"/><path fill="#fcd844" d="m4.6 70.5-1.3.2H.8q-1.2-.1-.6-.8l.6-.7.7-.5.8-.2h1l1.8.3q.8.3.9.7t-.4.5l-.3.3z"/><path fill="none" stroke="#96610a" stroke-linecap="round" stroke-linejoin="round" stroke-width="__RESOLUTION__" d="m4.6 70.5.7-.2.3-.2q.4-.3.4-.6-.1-.5-.9-.7h0l-1.8-.3h-1l-.8.3-.7.4-.6.7q-.6.7.6.8h2.5z" vector-effect="non-scaling-stroke"/><path fill="#fabc05" d="M4.3 66.2q1.7-1 3.9-1h.3l1.7.1q1.5.3 2.7 1l.8.6q1 1 1 2.3v.7q-.3 1.1-1.8 2.1-1.2.7-2.7 1 3.2-2.8.9-4.5z"/><path fill="#fcd844" d="m10.3 73-1.8.2q-2.4 0-4.1-1L4 72q-1.8-1.2-1.8-2.8 0-1.7 1.8-2.8l.3-.2 6.8 2.3q2.3 1.7-.8 4.5"/><path fill="none" stroke="#96610a" stroke-linecap="round" stroke-linejoin="round" stroke-width="__RESOLUTION__" d="M13.7 66.9q1 1 1 2.3v.7m0 0q-.3 1.1-1.8 2.1-1.2.7-2.7 1l-1.7.2q-2.4 0-4.1-1L4 72q-1.8-1.2-1.8-2.8 0-1.7 1.8-2.8l.3-.2" vector-effect="non-scaling-stroke"/><path fill="none" stroke="#000" stroke-linecap="round" stroke-linejoin="round" stroke-width="__RESOLUTION__" d="m8.8 71.4-1.6-1 1.7-.9m-5.3.5 1.4-.2-1.2-1.2" vector-effect="non-scaling-stroke"/><path fill="#fcd844" d="M2.7 67.5h-.9q-2-1.1 1.6-1.7-2-.9-.3-1.4l2.7-.1q4.9-1.6 4.1.7l2.3-.3q2.9-.5.1 1.5 2.2.2 2.8 1.3t-1.4.7l-2-.1-1.1.1zM7 64.9l-1-.6zm4.5 2 .9-.7zm-3-1.7L10 65z"/><path fill="none" stroke="#96610a" stroke-linecap="round" stroke-linejoin="round" stroke-width="__RESOLUTION__" d="M2.7 67.5h-.9q-2-1.1 1.6-1.7-2-.9-.3-1.4l2.7-.1q4.9-1.6 4.1.7l2.3-.3q2.9-.5.1 1.5 2.2.2 2.8 1.3t-1.4.7l-2-.1-1.1.1m-4.7-3.9 1 .6m5.4 1.3-.9.7m-1.5-2-1.5.3" vector-effect="non-scaling-stroke"/><path fill="#fcd844" d="m14.5 70 .9.2.7.4.6.7q.6.7-.6.8h-2.6l-1.2-.2-.7-.2-.4-.2q-.3-.3-.3-.6 0-.5.8-.7h.1l1.8-.3z"/><path fill="none" stroke="#96610a" stroke-linecap="round" stroke-linejoin="round" stroke-width="__RESOLUTION__" d="m14.5 70 .9.2.7.4.6.7q.6.7-.6.8h-2.6l-1.2-.2h0l-.7-.2-.4-.2q-.3-.3-.3-.6 0-.5.8-.7h.1l1.8-.3z" vector-effect="non-scaling-stroke"/><path fill="#9d8026" d="m17.9 17 .4-3.6 1.2.2-1.2 7.6 1.2-7.6-1.2-.2zm.4-3.7v-1zm2.4-13v1.8q.5-.1.6.8.1 1.6-.4 2.7l-.3.5.2 4.7-6.2 33.7-3.3 12.3-.7-.2q3.2-9.5 5-25.7l2.8-27.5q.3-2.5 2.3-3M20 6.8l.6-.6zm0-4.3.7-.3zm-.2 8.1-.4 3z"/><path fill="#836a20" d="M20.7 2.2V.5l.4-.1Q23.4-.1 23 3q-4.7 30.7-10.8 54.2l-.5-.1-.4-.2 3.3-12.3 6.2-33.7-.2-4.7.3-.5q.6-1.1.4-2.7-.1-.9-.6-.8"/><path fill="#b0ab84" d="m10.6 56.7.7.2.3.2h.1l-1.1 4.6 1.7-.4 3 .5q1.6 1.1 1.8 2.3-.2 4.2-5.6 10l-.7-.3.7-1 .6-.7V72l.5-.7q3-4.1 2.6-6.1-.2-2.4-2.2-2.5-2.3-.5-3.8 1l-1 3-.7-.3h-.1l.3-2.9v-.3l-.2-.1-.3-1.4q-2.3-1-3.2.3-1 1.7-1.4 4l-.8.4q.1-1.9.5-3.5 1.5-4 5.7-2.7l1.5-3.9zm0 5q-.8.3-1.6 1 .1-2-1-2.5 1.1.5 1 2.5.8-.7 1.6-1"/><path fill="#7d7851" d="m12.2 57.2 1 .4-.9 3.8-1.7.3 1.1-4.6zm3 4.5q2.9.8 2.8 3-.3 3.8-6 9.7l-.5-.2Q16.9 68.3 17 64q-.2-1.1-1.9-2.2M7.7 63q-3-3-4 2.5l-1 .4q.3-2.3 1.4-4 .9-1.4 3.2-.2zM9 66.7l-.6-.1 1-3q1.5-1.5 3.8-1 2 .1 2.2 2.5-.4-2-4.4-1.2-1-.1-1.9 2.7z"/><path fill="#000" fill-opacity=".3" d="m12.1 72-.7.8q-.7-3.4-4-6.4l.8.3.6.1.1-.1q3 1.5 3.7 4.6zl.5-.8z"/><path fill="none" stroke="#836a20" stroke-linecap="round" stroke-linejoin="round" stroke-width="__RESOLUTION__" d="m18.3 21.2 1.2-7.6-1.2-.2-.4 3.7m.5-4.6-.1.9m1.2.2.4-3" vector-effect="non-scaling-stroke"/><path fill="none" stroke="#000" stroke-linecap="round" stroke-linejoin="round" stroke-opacity=".3" stroke-width="__RESOLUTION__" d="M20.7.5q-2 .5-2.3 3L15.7 31q-2 16.2-5.1 25.7M20.6.5l.5-.1Q23.4-.1 23 3q-4.7 30.7-10.8 54.2" vector-effect="non-scaling-stroke"/><path fill="none" stroke="#000" stroke-linecap="round" stroke-linejoin="round" stroke-opacity=".3" stroke-width="__RESOLUTION__" d="m10.6 56.7.7.2.3.2m9-51-.6.7m.9-1.1q.6-1.1.4-2.7-.1-.9-.6-.8l-.6.3m-7.9 54.7 1 .4-.9 3.8 3 .4q2.8.7 2.6 3-.2 3.8-5.9 9.6l-.5-.2-.7-.4.7-1 .6-.7.5-.8q3-4.1 2.6-6.1T10.8 64q-1-.1-1.9 2.7l-.1.1m-1.4-.4.3-2.9v-.3l-.2-.1q-2.9-3-4 2.5m-1.7.8q.1-1.9.5-3.5 1.5-4 5.7-2.7h0l1.5-3.9 1.1.4m1.6.5-.5-.1" vector-effect="non-scaling-stroke"/><path fill="none" stroke="#c7c2a7" stroke-linecap="round" stroke-linejoin="round" stroke-width="__RESOLUTION__" d="m10.6 61.7 1.7-.4m-4.2-1q1 .4.9 2.5.8-.8 1.6-1.1" vector-effect="non-scaling-stroke"/></g></defs><g clip-path="url(#a)"><use xlink:href="#b" width="23.4" height="74.6" transform="translate(1 1)"/></g></svg>