<svg xmlns="http://www.w3.org/2000/svg" xmlns:xlink="http://www.w3.org/1999/xlink" width="39" height="24" viewBox="0 0 39 24"><defs><clipPath id="b"><path d="M1 1h37v22H1z"/></clipPath><use xlink:href="#a" id="c" width="36.5" height="21.1"/><g id="a"><path fill="#2e1f00" fill-opacity=".3" d="M28.5 20.2q-10.2 1.9-18.4-.3L30.9 10q6.5 2.9 5.4 5-1.1 2.5-7.8 5.2"/><path fill="#585134" d="m28.5 3.7.5 1.5-.7 1.5-.5.4q-2.3.3-3.7-.5-3.6-1.2-7.7-1.5l-.2-.2Q11.9 1.4 13.8.5l2.4-.2 4.8.3 1.5.4q1.4.3 2.7.8h.1l.2.1 2 1 .3.3zm-.7.2-.9-.7-.3-.2h-.1q-1.1-.7-2.7-1.1L21 1.2q-1-.2-.9.2.1.2 1 .4l2.1.3q1.2.3 2.8 1.1t1.5.6"/><path fill="#706d51" d="m29 5.3.9 1.8v.2q1.2 2.6 1.8 5.7l.3.8v.4q0 .8-.7 1.7-.4-3.6-2.6-8.4l-.2-.5-.2-.3zM3 17.7Q.8 16.5.4 15l-.2-.8V14l.4-1.2.2-1.3.2-.6.1-.7.7-2 .5-1 .3-.8.3-.6.5-1.2v.5q0 .5.3 1.1.7 1.1 2.6 2l.9.3 1.4.4q2.6.8 5.8 1h3.9l-.9.6h-2.6l-3.6-.5q-5.4-1.1-6-.4v.2Q3.8 12.5 3 17.6"/><path fill="#656145" d="M31.4 15.9q-1.1 1.4-4.1 2.5l-2 .7q-1.5-.4-1.7-1.6 0 1.4-.9 2.1l-6.6.6q-6.6 0-11.2-1.8L3 17.6q.8-5 2.2-7.8v-.2q.5-.7 6 .4l3.6.5q1.4.6 2.3 3 .5-2.7 2.8-3.8h.4q2.4 2.6 3.2 6-.4-5.7 3.2-5.5.6-2.8 1.6-2l.4-.6q2.2 4.8 2.6 8.3m-4.5-2.1h1.5q-.1-1.7-1.5-2.4-.7 1.2-.4 1.5zm-20.2.4h-.2L5.7 16h.1l1.3 2 .3.3q1.5 1.2 3.5.4l.3-.2 1.9-2-.3-1.1Q9.9 14 6.6 14.3m.3-.8q1.1-1.2-.9-2-.1 1.2.8 2m4.5-.4v.8q3 .2 2.5-2.6-2.5-1-2.5 1.8m-1.6-2.5q-1.4 1.4-.5 3 1.9-.8.6-3"/><path fill="#5c5538" d="m25.3 19.1-2.6.5q.8-.7 1-2.1.1 1.2 1.6 1.6m-2-10.3h.5l1.4-.4q1.7-.7 2.6-1.4l.5-.4.1.3.3.5-.4.7q-1-.8-1.6 2-3.6-.2-3.2 5.6-.7-3.6-3.2-6.1l1.6-.2v-.2zm3.6 4.9-.4-.9q-.2-.3.4-1.5 1.4.7 1.5 2.4zm-8.5-4h.2l1.4-.1q-2.2 1.1-2.8 3.8-.9-2.4-2.4-3h2.7z"/><path fill="#50472a" d="m3.5 4.6.1-.3q.6-1.4 3.6-2.5Q10 .6 13.6.5h.2q-1.9.9 2.4 4.4l.2.1q-5.6-.9-9.1.6-2.1 1.4-3.5.7l-.1-.1q-.3-.6-.3-1.1z"/><path fill="#8c896d" d="M27.7 3.8q0 .3-1.6-.6t-2.8-1l-2.2-.4q-.8-.2-.9-.4-.1-.4.9-.2l2.5.6q1.6.3 2.8 1l.1.1.3.2z"/><path fill="#624722" d="M27.9 7.2q-1 .6-2.7 1.3l-1.4.4h-.5l-2-.4h-.1l-4.7-3.4q4 .3 7.6 1.5 1.4.8 3.7.5"/><path fill="#79441b" d="M23.3 8.9h-.1l-1.9-.4z"/><path fill="#56330f" d="m23.2 8.9-1.4.4.1.1-1.6.3H20l-1.4.1h-.2l-2.1.1h-1.8q-3.2-.2-5.8-1l7.5-.7 5 .3h.2zM6.6 14.2q3.3-.3 6.2 1l.3 1.2-2 2-.2.2q-2 .8-3.5-.4l-.3-.3-1.3-2 .6-1.7zm.3-.8q-1-.8-.8-2 2 .8.9 2m4.4-.4q0-2.7 2.5-1.8.5 2.8-2.5 2.6zm-1.6-2.5q1.4 2.2-.5 3-.9-1.6.6-3"/><path fill="#59401b" d="m16.5 5 4.7 3.5-5.1-.2-7.5.6-1.4-.4-1-.3q-1.8-.9-2.4-2 1.4.8 3.5-.6 3.5-1.5 9.1-.5"/><path fill="#653a14" d="M21.2 8.5h.1z"/><path fill="none" stroke="#2e1f00" stroke-linecap="round" stroke-linejoin="round" stroke-opacity=".3" stroke-width="__RESOLUTION__" d="m28.5 3.7.5 1.5.9 1.8m0 .3q1.2 2.6 1.8 5.7l.3.8v.4q0 .8-.7 1.7-1 1.4-4 2.5l-2 .7-2.6.5-6.6.6q-6.6 0-11.2-1.8L3 17.6Q.8 16.5.4 15m2.5-9.2.5-1.2" vector-effect="non-scaling-stroke"/><path fill="none" stroke="#8c896d" stroke-linecap="round" stroke-linejoin="round" stroke-width="__RESOLUTION__" d="m3.5 4.6.1-.3q.6-1.4 3.6-2.5Q10 .6 13.6.5h.2l2.4-.2 4.8.3m6.8 2.6.6.4M23.3 9l-1.4.4.1.1-1.6.3H20l-1.4.1h-.2l-2.1.1h-1.8q-3.2-.2-5.8-1l-1.4-.4-1-.3q-1.8-.9-2.4-2m-.1 0q-.3-.6-.3-1.1v-.5" vector-effect="non-scaling-stroke"/><path fill="none" stroke="#2e1f00" stroke-linecap="round" stroke-linejoin="round" stroke-opacity=".3" stroke-width="__RESOLUTION__" d="m28.4 6.7-.6.4M29 5.4l-.7 1.4" vector-effect="non-scaling-stroke"/></g></defs><g clip-path="url(#b)"><use xlink:href="#c" width="36.5" height="21.1" transform="translate(1 1)"/></g></svg>