<svg xmlns="http://www.w3.org/2000/svg" xmlns:xlink="http://www.w3.org/1999/xlink" width="123" height="158" viewBox="0 0 123 158"><defs><clipPath id="a"><path d="M1 1h121v156H1z"/></clipPath><g id="b"><path fill="#000" fill-opacity=".3" d="M104.8 134.4h-.3q-8-.3-4.7 4.4l-.7.2q-10.4 3-10.8 6.5-8-1-2.1 4.9-9.5-4.2-18 5-4.5-3.8-8-.7-.4-4.8-6.1-4.1 2.3-3.8-1-4.2-3.6-.5-5.4-1.6-1.8-1-5.2 1.1l-.2-.2q-4.5-4.4-11.4-3.4l5.4-3.8q-6.3-5.2-11.2-3.2-1.7-6.1-11.5-6.2 1-3.7-4.3-4.1 7.1-.7 9.1-3.4l56.4-6.5 36 5.4q.8 2 9.6 1.4-5.6 3.4-5.7 6.3l-.2.2q-7.3 2-9.7 6m-17.5 8 1.1.2 1.1-.2.5-.4-.5-.5-1-.2-1.2.2q-.5.2-.5.5zm-40 4.5 1.9-.3 1.7.3q.8.3.8.8t-.8.8l-1.7.4-1.9-.4q-.7-.3-.7-.8t.7-.8"/><path fill="#87783a" d="m80.7 12 .6.3 1.9-1.3-.6-.3q4.3-3.5 1.5-7.6l.8-.2q.8 1 1 2.4v.6q.8 4.9-7 7.9l-.9-.3-.4-.1zM91 5.2l-.2-.3-1-1.8-1.5-2q1.8 1.3 2.9 3l.2.3zm-1.4 11.4-.2.1q-3.8 2.9-7.5 4.8v-.1l.1-.4.1-.4h.1q4-2 6.9-4.6l.5-.4zm.8-2.2.2-.3q1.4-2.3 1.3-5v-.2L91.2 6l.9 2.5-.5 3.6-1 2.1z"/><path fill="#b7a455" d="m82.6 10.7.6.3-1.9 1.3-.6-.3zM91.2 6l-.4-.8.5-.8q.7 1.3 1 3 .9 4.5-2.2 8.7l-.7.5v-1l.1-.2.1-.2.7-.8.4-.2.9-2.1.5-3.6z"/><path fill="#416289" d="m78 13.5 1 .3.8.4h-1.7l-2.5-.3q-1.6 0-3.1.6 1.3-1.6 5.5-1m-9.4 3.3q1.7-1.1 3.4-1h1.8l1.9.7h-1.8l-1.7-.3q-1.7-.1-3.6.6"/><path fill="#5f5429" d="M79 13.8q7.8-3 6.9-7.9v-.6q-.2-1.3-1-2.4L84 3l1-2.1 2-.5.8.5h-1.1l-1 1.5 1.2 1.2.6 1.4q.2 1 0 2.4l-.1.1-.2.6q-1 4-6.5 6.7l-.5-.4 3.2-1.9L86 9.7l.8-1.7h.5-.5L86 9.7l-2.6 2.8-3.2 1.9-.4-.2zm6.8-8.5 1.8-.3z"/><path fill="#524823" d="M87.3 8h.8l.3-1.1-.4-2 1.1-.5.4-.3.3-1-.3 1-.4.3-1 .5.3 2-.3 1zq-1.1 4-6.5 6.7l.1.2.7.8 3.3-2.3.6.6 1.6-1.6.8-2-.8 2-1.6 1.6-.6-.6-3.3 2.3.3.8q6.1-2.4 6.8-7.1l.1-.3q.3-2.6-.3-3.7l.7-.4q2 2 1 7.4-1.5 4.5-8.2 7.3l-.1.8h.1q4-2 6.9-4.6l.5-.4.1-.2.1-.2.7-.8.1-.3q1.4-2.3 1.3-5v-.2L91.2 6l-.4-.8v-.3l-1-1.8-1.6-2L88 1l-.2-.1h-1.1l-1 1.5 1.2 1.2 1 .5.1.8-.5.1.5-.1V4l-1-.5.6 1.4q.2 1 0 2.4l-.1.1zm1.2-5 .7 1.3z"/><path fill="#122236" d="m80.8 14.8.1.2q1 1-4.4 2 1.4 2.4-4 2.7Q73.6 21 68 22q.4 1.7-1.5.8-.5-1.3-1.4-2.6.5-.8 1.7-.7v-.2q.8-1.1 2.8-1.6.3-.8 2.7-1.5l1.6.4 1.8-.1-1.9-.6q-.5-1 1.8-2l2.5.3h1.8l.3.2zm-8.4 4-1-1-1.7-.1 1.7.1z"/><path fill="#0a131f" d="m80.9 15 .7.8.3.8.1.1q.4 1.3 0 3l-.1.9-.1.4-1.3 1.6-1.5.6-1.7-.3-.4 1.5-.7.7-2.2.5-.7-.2-1 1.6-3.3 2-2 .2-.5-.8q1.1-2.8 0-5.6 1.9.9 1.5-.8 5.6-.9 4.5-2.3 5.4-.3 4-2.6Q82 16 81 15"/><path fill="#314966" d="M81.7 21.5q-.9 2.4-4.2 2.1.1 2-3.8 2.6l-.4.3q-2.7 3-5.8 3.2h-.2l-.3-.5 2-.2 3.3-2 1-1.6.7.2 2.3-.5.6-.7.4-1.5 1.8.3 1.4-.6 1.3-1.6zM65 20.2l-.2-.1q-.2-1.4 1.7-1.7l.2-.2h.1l1.5-1.3.2-.1q1.9-.7 3.7-.6-2.5.7-2.7 1.5-2 .5-2.7 1.6l-.2.2q-1.1-.1-1.6.7m6.9-4.4q.1-.7.5-1.3 1.5-.6 3-.6-2.2 1-1.7 2zm-2.5 1.9-.7-.1-1.9.6 1.8-.6z"/><path fill="#383118" d="M82 16.6q6-2.4 6.8-7.1v-.3q.3-2.6-.3-3.7l.7-.4q2 2 1 7.4-1.5 4.5-8.2 7.3.4-1.8 0-3.1z"/><path fill="none" stroke="#000" stroke-linecap="round" stroke-linejoin="round" stroke-opacity=".3" stroke-width="__RESOLUTION__" d="m82.6 10.7.6.3-1.9 1.3-.6-.3m9-9-.2 1-.4.4-1 .5.3 2-.3 1-.8.2-.5-.1-.8 1.7-2.6 2.8-3.2 1.9m1.4 1.3 3.3-2.2.6.6 1.6-1.6.8-2m-1-7 1 .6.1.8-.5.1-1.7.3m3.3-1-.7-1.1" vector-effect="non-scaling-stroke"/><path fill="none" stroke="#000" stroke-linecap="round" stroke-linejoin="round" stroke-opacity=".3" stroke-width="__RESOLUTION__" d="m80.7 12-3 1.4.3.1q-4.2-.6-5.5 1-.4.6-.5 1.3h0q-1.7-.1-3.4 1h-.1l-1.6 1.4h-.1l-.2.2q-1.9.3-1.7 1.7l.2.1m19-17.1q2.8 4.1-1.5 7.6l-2 1.3m10.6-8q-1-1.7-3-3m3.2 3.3q.7 1.3 1 3 .9 4.5-2.2 8.7l-.7.5m-.2.1q-3.8 2.9-7.5 4.8-.9 2.4-4.2 2.1.1 2-3.8 2.6l-.4.3q-2.7 3-5.8 3.2h-.2l-.3-.5M84 3.1V3l1-2.1 2-.5.8.5" vector-effect="non-scaling-stroke"/><path fill="none" stroke="#88909a" stroke-linecap="round" stroke-linejoin="round" stroke-opacity=".5" stroke-width="__RESOLUTION__" d="m69.6 17.7 1.7.1 1 1m-5.4-.6 1.8-.6h.8" vector-effect="non-scaling-stroke"/><path fill="#a48d48" d="m65.5 8 1.3 2.4v1l-3.3-1.2zM82 64.2l1.1 2h-.9zm-59 43.5 1.7-1.1 13 6.4-3.5 1.7-4.3 2-2.2 1.2-5.5-2.7zM17.9 85v-.4l1.1-1 .8-2.2 1 1.8 1 2.1-1.9-.1h-.1zM45.7 9.2l1.6-.8 13.2 4-.5.3-3.4 2.3-.2-.1-8.9-4.7zm12 83.2h.4l1 .2-3.2.2-13.7-6.1 1.5-.3h.1l12 5.7zm15.4 38.4-6.2 3.8-8.5-1.9-10.3-5h-.5l10-4.7zm26.9-25.5 2.3 4.8-7.5.6-1.7-2.2 6.6-3.3zM45.7 91.2l1.3 4.5-4.7 3.3-1.1 1.2.6-3.5z"/><path fill="#8c6b35" d="M66.8 11.4v13.8l-4.6-2.7.6-2.5-2.7-7.3.3-.3 3.1-2.2z"/><path fill="#816330" d="M66.8 25.2V31l-6.5-8.5v-5L56.6 15l3.4-2.3 2.8 7.3-.6 2.5z"/><path fill="#785c2e" d="m66.8 31 .8 1L51 40.6 49.6 39V21.3l6.8-6.4.1.1h.1l3.7 2.5v5zm45.6 49.2h.2v14.4l-6.8 4.3V114l5.5-1.4 3.1 2.6v.9q-3.8 1.8-4.2 4.3l-.1.2v.1q-1.7 4.6-7.7 9.7V94.7l3.3-2 4.2-2.4v-4l-5.2 3.1h-.2v-2.7l2-2.9 3.8-2.3zM57.8 67.7v24.7l-2-.3-12-5.7L43 85l-3.8-2.4v-8.7l11.3-5.5 5-2.5zM74 105.3l-4.4 2.7v4.3l7.8-4.9.3-.2v29.7q-1.6-2.8-3.8-1.5l-.3.2q-2.7 1.5-.2 4.6 1.6 1.9-3.2 5.5l-1.3.3v.1l-2 .4q-1.7.3-2.5-.5v-5.2l2.8-6.1 6.1-3.8v-14.5l-3.6 2.4H66V110q.1.2 1.8-5.5L75 100v4.5zm-7.1 33.4v7.8zm43.3-21.7v3.8zm-4.2 3q-.6 0-.9.7-.2.6-.2 1.3t.3 1.4.8.6 1.3-1.2.5-1.5l-.9-.8q-.5-.5-1-.5m-37 24.7v1.3z"/><path fill="#6d5429" d="m67.6 32 1.2 1.5-.4 11-1.2 1.2v.2l1 1.3-.1 9.7v2.3l-2 1.1-5.1 2.9-5.4 2.7-5 2.5-11.3 5.5v-2.2q3.1-4 3.9-12v-.8q-1.2-9.2-3.7-11.3l-.2.4V37.2l3.3-9.2 7-6.7V39l-1.8 3.2 3.3-1.6zM52 60l.2 6.4-1.6 2 1.6-2zm1.9-5.7-.5 7.6zm2.1-1.1-1 3.4zm6.9-3.8 4.4-3.5z"/><path fill="#b49c54" d="M68.1 56.9 82 64.2l.2 2h.9l2.6.1 4.5 2.4-2.7 1.4v1.3l3.3 2.7 4.7-.3 1.4-1.7 15.5 8-2 1.4-9.5 1.3L68.1 66v-4.2l-2-1.5 2-1.1zm20 16.5-1-.7-.8.3.3.9zm16.3 13.3-2.8-3.5 4.8.6z"/><path fill="#b8a25c" d="m90.3 68.7 6.6 3.4-1.4 1.7-4.7.3-3.2-2.7v-1.3zm-3.7 5.2-.3-1 .8-.2 1 .7z"/><path fill="#574320" d="m105.8 104 6 5.4-.5 3.2-5.5 1.4zm-81.2-1.5v-2.4l21.9 11 1.6.8 14.1 7 3.8-.2h3.6l3.6-2.4v10.4l-26.4-13.1zm36.3-39.3-3.1 4.5-2.2-1.8zm7.2 13v-5.7l32.8 17 .2.1 3.5 1.8h.2l5.1-3v3.9l-4.2 2.5-5.2-3L89.2 87zm9.5 39.6 9.6-4.5 7.7-.6.1 13-3.7 2.4-13.7 5zM49.6 39l1.4 1.6-3.2 1.6z"/><path fill="#8a6a35" d="m111.8 109.5 2.6 5.7-3-2.6zm-9.3.6v9l-7.4 4.7v-13.1zM89.2 86.9l11.3 3 5.3 2.8-3.4 2z"/><path fill="#5f5429" d="M114.4 116.1v9.9q-9.6 5.7-18 8.3-4.1 3-9.2 5.5l-1.1-8.5-.4 9.3-5.3 3q-2.5 1.3-3.6 1.2-6.2 4.3-12.5 7.3v-6.2q.8.8 2.5.5l2-.4 1.3-.4q4.8-3.6 3.2-5.5-2.5-3.1.2-4.6l.3-.2q2.2-1.3 3.8 1.4 3.2 2.9 4.8-.1 1.4-5.4 3.5-6.2 6.5-3.2 11.4 0 2.9 1.7 5.1 0 6-5.1 7.6-9.7l.1-.1.1-.2q.4-2.5 4.2-4.3m-8.6 3.9q.5 0 1 .4l.9.8q.2.4-.5 1.5-.9 1.2-1.4 1.2t-.7-.6-.3-1.4q0-.7.3-1.3t.8-.6"/><path fill="#413218" d="M87.2 139.9q-.9-1-1.5.8l.4-9.4zm-9.9-32.5-7.8 4.9V108l4.4-2.7zm25.1 11.8v.6l-4.6 4.2-1.2 4.7-2.4-2.7-.1-.1-2.8.3 3.7-2.3z"/><path fill="#998843" d="M64.3 152.1q-18.8-9-35.4-19.2-5.9-1.6-8.3-5-1.8.4-5-1v-6q1.9-1.5 5 2.9v2.7-2.7l1.5 2.2q1.4 2.7 5.5 4.4l1.8-.3q.6-.8 2.5-1.3l3.9-.7h.2q3-.3 4.8 2.7 2.1-1 5.3 2.2.8.3 1.6 3.4.8 4.3 4.8 5.3 1.5-.9 3.5.2l.5.3h.5q3.3.7 3.6 3.8h3.6zM51 135q.9-.5 1.4.5l1.2 2.6q.7 1.8-.5 1.5l-1.6-.3-.6-.7-.6-1.3q-.5-.6-.2-1.2.1-.6 1-1.1m-19.2-1.7v-4.6z"/><path fill="#b59e55" d="M15.6 120.9v-1.2l6.6-4.5 5.5 2.7h-.1v12.5q-4.1-1.7-5.5-4.5l-1.5-2.1q-3.1-4.3-5-2.9m5.2-22.6L17.9 97v-8.6l.5-1.2 1.4.8v-2.8h.1l1.9.1 17.1 8.8 1.4 3.9-11.5-5.6-9-4.5v8.5zm26.5-90 9.1-5.1L65.5 8l-2 2.3-3 2zM66 110v.8L42.3 99l4.7-3.2 15.5 7.6q1.4 4 3.5 6.5m-1.7 30.8v5.3h-3.6q-.5-3.1-3.7-3.8h-.5l-.5-.3q-2-1.1-3.5-.2-4-1-4.8-5.3v-8.7h.5l10.2 5h.1zm28.9-32.2L72 96.8l16.7 1.9 3.5 2-2.1.9 2.2-.8 7.5 4.4zM56.4 14.9l-6.8 6.4-9-4.6 6.9-6.5zM39.4 76v6.5l-9-4.2v-6.6zm-11 14.4v1.4l.4.5-.4-.5zM51.1 135q-.9.5-1 1.1-.3.7.2 1.2l.6 1.3.6.7 1.6.3q1.2.3.5-1.5l-1.2-2.6q-.5-1-1.4-.5m-30.3-14.1v2.9z"/><path fill="#937e40" d="m15.6 119.8 7.3-12.1h.1l-.8 7.5zm9.1-13.1h-.1v-4.1l22.2 11.1v4l-9.1-4.6zM68.1 66l32.8 16.8.8.4 2.8 3.5v2.7l-3.4-1.8-.2-.1-32.8-17zm-10 26.5 8.8-4.3.7-.5 21.1 11-16.7-2 21.2 11.8-6 2.8-9.6 4.5v-8.7l-.2.2-3.5-2.1 1.1-.8v-4.5l-14.6-7.3H59zm9 42.1-2.8 6-5.8-7.8v-.1zm35.4-40v15.5l-2.3-4.7-.1-.3-.2.1-7.5-4.5-3.6-2 .5-11.8zM39 94l6.6-3.4.1.5-3.8 5.5-.6 3.5H41l-.7-2.2z"/><path fill="#b39a51" d="m24.6 100-3.8-1.7-1-1.8V88l9 4.4.3.4-.4.5v3-3l.4-.5-.3-.4L40.3 98l.8 2.3v-.1l1.1-1.2L66 110.8v8l-3.8.1-14.1-7v-4.1 4l-1.6-.7v-5.3 5.3z"/><path fill="#bca765" d="m18.4 87.3-.5-.4V85l1.9.2V88zm19.4-70.8-.1-1.3 1.6.9zm63.1 66.3 9.4-1.3-3.7 2.3-4.9-.6zM75 99.9l-7.2 4.5-5.3-1L47 95.7l-1.4-4.5-.1-.5-6.6 3.4-17.1-8.8-1-2 8.7-5.3 1 .4 8.8 4.2 3.8 2.4-1 1.6v.1L56 92.8l3.1-.2h1.4zm-32.4-72-3.3 9.3-8.9-5.8 3.4-8zm-6.8 60.3 3.4-1.3 2.9-.4-2.9.4zm1.4-2 2 .7zM58 96.7l-.8-2.8-1.4-1.1 1.4 1zm2.7-1.2 2.8 1.4-2.3.5-2.3-.3-.3-1.5zl-2.1.1.3 1.5 2.3.4 2.3-.6z"/><path fill="#c6b47b" d="m19.8 81.4 7.8-4.3 2 .9-8.8 5.3zm48 23.2-1.8 5.3q-2.1-2.5-3.5-6.5z"/><path fill="#cbbc89" d="m27.6 77.1.4-.3v-5.9l.2-.2 2.2 1.1v6.6l-.9-.4zm1.7-7.7-1.3-.7-.2-27.6 2.6 1.3v27.5z"/><path fill="#a28b46" d="m28.2 70.7 1.1-1.3 1.1.5 8.9 4.2v-.2 2.2l-8.9-4.3zm15-11.7v.7q-.8 8-3.9 12-1-1.4-5.5-13.8l5.8-1.2z"/><path fill="#d2c69b" d="m27.8 41.1-.2-11.5 2.8 1.8v11zm9.9-25.9 6.8-6.5 1.2.5 1.8 1-6.9 6.6-1.3-.7z"/><path fill="#c9ba87" d="M27.7 29.6v-2.4l3.1-5.4 3 1.6-3.4 8z"/><path fill="#beac6d" d="m30.8 21.8 5.1-4.8 1.9-.4 1.5-.4 1.4.6-7 6.7z"/><path fill="#72572c" d="m66.1 60.3 2 1.5v14.4l-.5 11.5-.7.5-8.8 4.3-.4-.1V67.7l3.2-4.5zM43.1 85l.6 1.4-1.6.3v-.1z"/><path fill="#7b6a35" d="m67.6 87.7.5-11.5 21.1 10.7-.5 11.8z"/><path fill="#8c793e" d="M73.2 126.7v4L57.6 123l-10.8-5.4v-4zM36 122.1l8.6 2.3-1 2.5-1.4.8z"/><path fill="#7c6b36" d="m87.2 111.3 6-2.8 1.7 2.2z"/><path fill="#6b5329" d="M102.4 119.7v10.7q-2.2 1.7-5 0-5-3.2-11.5 0-2.1.8-3.5 6.2-1.7 3-4.8.2V131l13.7-5 2.8-.2h.1l2.3 2.7 1.3-4.7z"/><path fill="#9f8946" d="m57.7 123-10 4.7-5.4.1-.1-.1 1.4-.8 1-2.5-8.6-2.3-.2-.2-.1-.2-8-3.8 2.2-1.2 3.1-.3 1.3-1.7 3.4-1.7 9.1 4.6zm-13.1 1.4 3.1 3.3zm-10.4-9.7-1.2 1.7-3 .3z"/><path fill="#b49b52" d="m33.8 23.4 6.9-6.6 8.9 4.4-7 6.8zm5.6 13.8v9.3l-8.9-4.1v-11z"/><path fill="#b1994e" d="M39.3 46.5V48l-5.7 9.5.1.4q4.6 12.4 5.6 13.8v2.4l-8.9-4.2V42.4z"/><path fill="#9d8744" d="m39.3 48 .3-.4q2.4 2.1 3.6 11.3v.1l-3.6-2.3-5.9 1.2-.1-.4z"/><path fill="#b9a360" d="M47.7 127.7v8.7q-.8-3.1-1.7-3.4-3.1-3.2-5.2-2.2-1.9-3-4.8-2.7h-.2l-3.9.7q-1.9.5-2.5 1.3l-1.8.3v-12.5h.1l8 3.8.1.2.2.2 6.2 5.6.1.1zm-15.8-3.4v4.5z"/><path fill="none" stroke="#000" stroke-linecap="round" stroke-linejoin="round" stroke-opacity=".3" stroke-width="__RESOLUTION__" d="m65.5 8 1.3 2.4v1m.8 20.6 1.2 1.5-.4 11-1.2 1.2v.2l1 1.3-.1 9.7L82 64.2l1.1 2 2.6.1 4.5 2.4L97 72l15.5 8 .2.2v14.3l-6.8 4.3v5.1l6 5.4h0l2.6 5.8V126m-98.8.9v-7.2l7.3-12h.1l1.7-1.1h-.1v-6.5l-3.8-1.8L18 97v-8.6l.5-1.2-.5-.3v-2.3l1.1-1 .8-2.2 7.8-4.3.4-.3v-5.9l.2-.2 1.1-1.3-1.3-.7-.2-27.6-.2-11.5v-2.4l3.2-5.4v-.1l5.1-4.8 1.9-.4m-.1-1.3 6.8-6.5 1.2.5 1.6-.8 9.1-5.2 9 4.8" vector-effect="non-scaling-stroke"/><path fill="none" stroke="#000" stroke-linecap="round" stroke-linejoin="round" stroke-opacity=".3" stroke-width="__RESOLUTION__" d="m87.6 71.4 3.2 2.7 4.7-.3 1.4-1.7m-10.4 1.8 1.7-.5m-21.4 73v-7.8m43.3-17.9v-3.8m-17.8-16.2-2.2.9M68.8 146v-1.4M50.6 68.4l1.6-2L52 60m1.4 1.9.5-7.6m1.1 2.3 1-3.4M28.9 92.4l-.4-.5v-1.5m13.7-3.8-2.9.4-3.4 1.3m3.4-1.3-2-.7m-8.4 6.1.3.4-.4.5v3M56 92.9l1.4 1 .8 2.9m2.7-1.2-2.1.1.3 1.5 2.3.4 2.3-.6zM48.1 112v-4.1m-1.6 3.3v-5.3m-14.6 23v4.5m15.8-5.6-3.1-3.3m-10.4-9.7-1.2 1.7-3 .3m5.8 5.2.2.2m-4.1 6.7v-4.5m-11.2-.5V121m0 2.9v2.7M67.3 46l-4.4 3.5" vector-effect="non-scaling-stroke"/><path fill="#304865" d="m66.8 23.9.8-.5.1 7.3.1.1v.1l-1-.5-.2-2.6.3-1.9-.3-1.8.2-.1zm.8 10 .4-2.3-.2-.7h.1l.7 1-.3 1.4z"/><path fill="#0a131f" d="m67.6 23.4-.8.5V23zm-1 .7.3 1.8-.4 1.9.3 2.6 1 .5v-.1l.1.2-.1-.1.2.7-.4 2.3L43 56l-3-8.6 22.8-21.1zm-4.8 5-2.4 2.5-7.7 7.1Q48 42.2 44 45.3q4-3.1 7.7-6.5l7.7-7.1zm.8 2.9-2.7 2q.4-1.9-.5-2.4 1 .5.5 2.4zM60 34l-8 6.6q.3-1-.3-1.7.6.7.3 1.7zm-8 6.5-6.7 6.4z"/><path fill="#122236" d="m39.6 48 .4-.6 2.9 8.6-8.4.2 5-8.2"/><path fill="#1c3453" d="m34.6 56.2-6.8-4.7V41.1L39.5 48z"/><path fill="none" stroke="#304865" stroke-linecap="round" stroke-linejoin="round" stroke-width="__RESOLUTION__" d="M44 45.3q4-3.2 7.7-6.5l7.7-7.2 2.4-2.4m-2.4 2.4q1 .5.5 2.4l2.6-1.9m-10.8 6.6q.6.8.3 1.8l7.8-6.4.1-.1M45.3 46.9l6.8-6.4" vector-effect="non-scaling-stroke"/><path fill="#416289" d="M14.5 48q-.2-1.5.3-2.5v-.2q1.1-2.1 4.9-3l.2-.5q.7-1.3 3.4-2.1l.8-.3 1.3-.4h.1l.5-.9q3.8-1.2 5.3-2.7h.1q1.2-1.2 2.5-.3l.3.2.1.2-1.5.4q-4.5 1.5-4.6 2.6l1.1.9q.9.8 1.5 2.3h-.9v-.1l-1.5-1.4-.1-.1-1-.7-.2-.1q-2.4.3-3.5 1l-1 .9-.2.5 1 .5q1.9 1 2.1 3.7l-.6.1q-.9-2.4-2.1-3.3l-.5-.2-.3-.2-2.6.6q-1.6.5-1.9 1.3 3.6 0 4.1 3.6h-.4q-1.4-3.4-4.3-3-2.2.9-1.4 2.5h-.2z"/><path fill="#314966" d="m34.3 35.5 1 1-1 .5h-.1l-.3-.3-1.1-.8q-4.5 1.5-4.6 2.6l1.1.9q1.4-2.7 4.9-2.4l-.3-.3-1.1-.8zM36.8 46l-.2.9-.3.1q-3 3.9-5.8 2l-.6 1.2q-2.7 3.7-5 2.7-1.6 3.4-4.7 2.6l.6-.5.7-.1q1.3-.3 2.3-1.1l.8-1.7 1.2.3 1.6-.6 1.8-1.5 1-2 1.6.7 2.3-.5zm-15.1 1.8q-.6-3.5-4.2-3.6.3-.8 1.9-1.3l2.6-.6.3.2.5.2q-1.4-.1-1.7.7l-1.7-.5 1.7.5q-1.2-.3-1.6.5l1.3.6 1 .9.5 2.4h-.7m1.8-5.6-1-.5.1-.5 1.1-.9q1.1-.7 3.5-1l.2.1 1 .7q-1.5 0-2.2.9l-.8-.4-1.7-.3 1.7.3.8.4q-1.7-.2-1.8.8zm-.9-1 1.3.4.5.2-.5-.2z"/><path fill="#122236" d="M35.3 36.5q1.1 1.5 1.6 3-.2 1.7-2.5 2.2-1.6.4-3.6 0-.6-1.5-1.5-2.3 1.4-2.7 4.9-2.4zM15.6 47.3q-.8-1.6 1.4-2.5 3-.4 4.3 3h-1l-.9-1-.5-.4-1.3-.4-.7.5zm7.3-4.6q1.2.9 2.1 3.3l-.1-.2q-.3 1.6-2.5 2l-.5-2.4-1-1-1.3-.5q.4-.8 1.6-.5l.4.1.9 1-.9-1-.4-.1q.3-.8 1.7-.7m2.7 3.2q-.2-2.6-2.1-3.7l.9-.3v-.1l1.2.8-1.2-.7v-.1q.1-1 1.8-.8.7-1 2.2-1l.1.2 1.5 1.4.2.6q.1 1.8-1.9 3-1.4.9-2.6.7m10-6.9-.9-1.5-.5-.5.5.5zM28 43.7l-.4-1.2q-.6-1-1.4-1.5.8.5 1.4 1.5z"/><path fill="#0a131f" d="m37 39.5.3 1q.4 2.2-.4 5.1v.4l-2.7 2.5-2.4.5-1.6-.7-1 2-1.8 1.5-1.6.6-1.2-.3-.9 1.7q-1 .8-2.2 1.1l-.7.1h.1q.5-.9.7-1.8v-1.4q0-1.1-.5-2.3l-.3-.6-.6-1.1h2.1q2.2-.4 2.5-2l.1.2.6-.1h.1q1.2.2 2.6-.7 2-1.2 1.9-3l-.2-.6.9.1q2 .4 3.6 0 2.3-.5 2.5-2.2"/><path fill="#6c602f" d="m20.2 55.5-.5-.1-.2.2q-2.7 2.2-5.2 3.7l-3.7.6-1 1-1.2.2-.6.2-2 .5-1.9-1-1.8-3.5h-.4.4l1.8 3.5 2 1 1.9-.5-.2.3L6 62l-2.6-1.2-1.6-3.4h-.4l.1.5 1.3 2.4-.4-.1L1.1 58l-.4-2.5.4-.5v.8l.2.9.1.8-.1-.8.6-3.3 1.8-4.2-1 .2 2.9-4 1.2.3q-6 7.2-2.5 12.8l.1.2 2 1-.7 1 .7-1q1.9.5 4.4 0l1.9-.6.1-.1q4.8-2.3 8.8-5.8-.2.9-.7 1.8h-.1z"/><path fill="#b7a455" d="M14.3 59.3q-4.2 2.6-7.2 3-3.6.5-5.4-2.1h-.1l-.1-.2q-2-3.1-.3-7.5l1.6-3.1.9-.2-1.8 4.2-.6 3.3-.2-1V55l.1-2.5V55l-.4.5L1 58l1.3 2.2.4.1-1.3-2.4-.1-.4.4-.1 1.6 3.4L6 62l1.6-.4.2-.3.6-.2 1.1-.2 1.1-1zm-6.1-7.9q.8-.2 2.1-1l.5-.2 2.6-.5h.2l-.5.5-2.5 1.3-.3-.1zm-5.8 8.8-.9-.2z"/><path fill="#524823" d="m6.8 45.7.8.5q-.6 3.3-.3 5.2l.1.9q.3 1 1 1.6 1.8 1.5 7-1.6l1-.6q3-2 3.2-3.7 0-.6-.3-1.1l1 .9.5 1.1.3.6-3.3 2.9-.2 1-3.5.8L12 56l-4.6-.3L6 52l.5-2.7-.6-.1-1.6 3.2.5 4 2 1.6.6.5 5.4-1.3.4.2.7-1 4.4-2 3.3-2.4v1.2q-4 3.5-8.8 5.8l-.1.1-1.9.6q-2.5.5-4.4 0l-2-1-.2-.2Q.9 52.9 6.9 45.7m9.9 6.6-.4-.6zM6.7 58l-.2 1.4-.1.3.1-.3z"/><path fill="#958440" d="M7.3 51.4h3.3l2.5-1.2.5-.4-.2-.1-2.6.5 3.7-2.2.8-.6.2-.1 1.3-.8.4 1.3q-1.4 1.3-2.7 2.2l-.9-.2.9-.6-.9.6 1 .2q-5.3 4-7.2 2.3z"/><path fill="#807137" d="m16.8 46.5.7-.5 1.3.4.5.5q.3.5.3 1.1-.3 1.7-3.3 3.7l-.9.6q-5.2 3.1-7 1.6-.7-.6-1-1.6Q9.2 54 14.5 50l2.6-2.1.1-.1zm-.1 3.8-.8.5-.3-.4-1-.4 1 .4.3.4zm-1.9 1.3 1.1-.8.4.9-.4-.9z"/><path fill="#383118" d="M21.1 49.5q.4 1.2.5 2.3v.2l-3.3 2.4-4.4 2-.7 1-.4-.2-5.4 1.3-.7-.5-1.9-1.6-.5-4L6 49.2l.6.1L6 52l1.3 3.7 4.6.3 2.2-1.8 3.5-.8.2-1zm-9.8 7.3-3.3.5-1.2-.4V58v-1.2l1.2.4z"/><path fill="none" stroke="#000" stroke-linecap="round" stroke-linejoin="round" stroke-opacity=".3" stroke-width="__RESOLUTION__" d="M14.5 48q-.2-1.5.3-2.5v-.2q1.1-2.1 4.9-3h0l.2-.5q.7-1.3 3.4-2.1l.8-.3 1.3-.4h.1l.5-.9q3.8-1.2 5.3-2.7h.1q1.2-1.2 2.5-.3l.3.2.1.2M36.8 46l-.2.9-.3.1q-3 3.9-5.8 2l-.6 1.2q-2.7 3.7-5 2.7-1.6 3.4-4.7 2.6l-.5-.1-.2.2q-2.7 2.2-5.2 3.7-4.2 2.6-7.2 3-3.6.5-5.4-2.1h-.1l-.1-.2q-2-3.1-.3-7.5l1.6-3.1 2.8-4 1.2.3.8.5q-.6 3.3-.3 5.2h.9q.8-.2 2.1-1m.5-.2 3.7-2.2" vector-effect="non-scaling-stroke"/><path fill="none" stroke="#000" stroke-linecap="round" stroke-linejoin="round" stroke-opacity=".3" stroke-width="__RESOLUTION__" d="m10.3 50.5.5-.3 2.6-.5h.2l-.5.5-2.5 1.3-.3-.1H8.2m-7 3.6v-2.5m1.2 7.7.4.1-1.3-2.4-.1-.4-.1-.8-.2-1V55m.6 2.4.4-.1 1.8 3.5 2 1 1.9-.5m.6-.2 1.1-.2m-8.1-3.4.4-.1M1.5 60l1 .2m11.1-10.4.9-.6m-.9.6 1 .2 1 .4.3.4.8-.5m-.4 1.4.4.6M6.7 58l.1-1.2 1.2.4 3.3-.5m-4.9 3-.7 1m.7-1 .1-.3.3-1.4m9.5-6.3-.4-.9-1 .8" vector-effect="non-scaling-stroke"/><path fill="none" stroke="#88909a" stroke-linecap="round" stroke-linejoin="round" stroke-opacity=".5" stroke-width="__RESOLUTION__" d="m34.2 37 .5.5.9 1.5m-2.9-3.1 1.2.8.3.3m-10.6 3.3 1.7.3.8.4q.8.5 1.4 1.5l.4 1.2m-3.6-1.9-.5-.2-1.3-.4m1.8.6 1.2.8m-4.4.8.4.1.9 1m-3-1.6 1.7.5" vector-effect="non-scaling-stroke"/><path fill="#304865" d="M67.4 13.6V20l-.5.2-.4-5.8z"/><path fill="#122236" d="m67 20.2-5.4 2.9q-1.6-1.5-1.5-4.4l.2-.2v-.8l6.5-3.5v-1l.6.4-.9.8zM39.3 38l-.2.1-3.3-.4q-1.5-3.7-4.4-2.4l-4-1.4V29l12 8.1z"/><path fill="#0a131f" d="M61.6 23.1h-.1v.5l-12.8 9.7-9.4 4.7v-.8l.6-1.5.6-1.8.7-2.1 18.9-13.1q0 2.9 1.5 4.4M43.1 33.6l-3.2 2zm2.8-3.3-5.4 3.6z"/><path fill="#1c3453" d="M27.4 29.1v-2h.6l13.2 4.7-.7 2-.6 1.9L38 35l2 .7-.7 1.5zm10 3.6 3.1 1.2z"/><path fill="none" stroke="#88909a" stroke-linecap="round" stroke-linejoin="round" stroke-opacity=".5" stroke-width="__RESOLUTION__" d="m40.5 33.9-3.1-1.2m2.5 3L38 35m2 .7 3.1-2.1m-2.6.3 5.4-3.6" vector-effect="non-scaling-stroke"/><path fill="#c9bc67" d="M30.4 142.6q2.9-6.5-.4-8.3 6.5-.6 10.8-5.2l.1.2q-3.2 8.3-10.5 13.3"/><path fill="#bfb14d" d="m40.9 129.3 4 8.3q2.6 5 4.4 6.8l-9-1.6q-5.9-1-9.9-.2 7.3-5 10.5-13.3"/><path fill="#aa9c3e" d="M67.8 82.7v-.3q1.3 5.9 7.2 9.1-7.2-2.1-9.6.5l.1-.2.2-.6q1.4-1.4 2-8.5"/><path fill="#bfb14d" d="M65.7 91.2q.3-1.6-3.8-.7 3.4-2 5.9-7.8-.7 7.1-2.1 8.5"/><path fill="#d9cea9" d="M25.7 74.9v-.2l3.5-2v-.2l1.3.7-3.8 2.2z"/><path fill="#bca765" d="m30.5 73.2 6.9 3.5-3.6 2.2-7.1-3.5z"/><path fill="#574320" d="M37.4 76.8v4.8l-5.5 3.2-.2.2 2-2.6 1.3.2.1-.1 1.3-1.4-.2-1.4h-1.1v.4h.8v.7l-.9.6-1-.7h-.1l-.1-1.8z"/><path fill="#000" fill-opacity=".3" d="m37.4 76.8 2 2.2v3.7l1.4.8-4.1 1-.2-.9-4.6 1.2 5.5-3.1z"/><path fill="#b59e55" d="m31.7 85-7.2-3.6 2.2-2.6 7 3.6zm-4-7.3-1-.5v-1.7l7.1 3.5.1 1.8z"/><path fill="#cbbc89" d="m24.5 81.4-.8-.5 1.9-2.7 1.1.6zm2.1-4.3-.8-.5-.1-1.7 1 .5z"/><path fill="#9d793c" d="m25.7 78.2 1.2.2h.1l8.1 4-.1.2-1.4-.2-6.9-3.6z"/><path fill="#7e6130" d="m27 78.4.7-.8 6.2 3v.1l1.1.7.8-.5.6.2-1.3 1.4z"/><path fill="#6a5228" d="m35.8 80.9.1-.1v-.6l-.1-.1-.7-.3v-.1h1.1l.2 1.4z"/><path fill="#564221" d="m35.8 80-.7.1v-.3z"/><path fill="#574320" d="M68.3 59.8h.2v2l-.2.2-1.5-1.3zm3.3 2.7L68 64.7v-1.8z"/><path fill="#795c2d" d="m68.5 61 3.1 1.5-3.5.4v-.8l.2-.1.3-.2zm-1.7-.3-.7-.3 1.3-.7.9.1z"/><path fill="#000" fill-opacity=".3" d="m71.7 62.5-2 4.2L68 66v-1.3z"/><path fill="#a48d48" d="M33.6 94.2v5l14.7 7.4.9-.4v-4l8.1 12.3-32.2-16.1z"/><path fill="#85733a" d="M33.6 94.2 25 98.4l32.3 16 .9 1.3-34.5-17.2 9.9-5zm15.5 8v4l-.9.4v-5.8z"/><path fill="#4b4321" d="m104.9 127.6 1.3.7-33 16.6 4.8-7.3q3.7 3.2 4.7-1l13.8-7q4.5 1.5 8.3-2"/><path fill="#383218" d="m73.1 144.9 33.2-16.7-1.5-.6-7.3-3.6v-.8l10.2 5-35.4 18z"/><path fill="#574320" d="M104.9 127.6q-3.9 3.5-8.4 2l1-.4V124zm-22.1 9q-1 4.2-4.7 1l3.5-5.4v4.2l1 .3z"/><path fill="#3d2f16" d="m82.5 136.8-1-.4v-4.2l1-1.4z"/></g></defs><g clip-path="url(#a)"><use xlink:href="#b" width="120.4" height="155.3" transform="translate(1 1)"/></g></svg>