<svg xmlns="http://www.w3.org/2000/svg" xmlns:xlink="http://www.w3.org/1999/xlink" width="4" height="131" viewBox="0 0 4 131"><defs><clipPath id="a"><path d="M1 1h2v129H1z"/></clipPath><g id="b"><path fill="#604924" d="m39.2 14.7 1.3 2.3v14.2L38.6 35l-10.4 5.5-.1.1-1.9.7-2.2-1.1 2.4-1.3V21.5zm-1 87 2.3 3.2v2.6l-5.5-.4-1 3.7-7.6 7.5v-7.5l-3.5-4.3.4.1.2-.1 2.9-.2 3.4-.2zM11.3 33.6l3.7 1.9-1.9 1.4zm1.8 19 3.2-1.3v.1L18 55l-3.2 1.3.2.3-4.2-2.2 2-1.6zm13.3 7 2.2 1.8-2.2 2.9-3.1-3h.6zM14.9 81 13 83.3l-1.3-2.4-1.2-2.2 1.8 1zm11.8 7-2.5-2.2 2.3-1.2 2.2 1.3zM12.1 98.8l1-.9.6 1.6.8 2.3L11 100z"/><path fill="#705f28" d="m38.6 35 1.9 2.3v15.4L38.4 56l-9.8 5.2-2.2-1.8.6.3 2.5-1.6V41.6l-1-1.2-.4.3.1-.2zm.4 45.3 1.5 2.5V99l-2.4 2.7-8.3 4.4-3.4.3.3-18.4 1.9-2.2z"/><path fill="#78642a" d="m38.4 56.1 2.1 1.5V77L39 80.3l-10.4 5.5-2.2-1.2V64.2l2.2-2.9z"/><path fill="#4c4320" d="M40.5 107.6v13.9q-3.1 2.1-5.9 1.6-3.2 3.9-8.2 5.9v-10.7l7.6-7.5 1-3.7z"/><path fill="#7a6c35" d="M26.4 129q-4.6-1.5-8.4-9.9-5.6.9-18-3.9v-10.5l6 .1L9.3 99l.9-1.7 3-.2 5.5-.3 3.8 4.7v10.6l4 6.4zM13 97.9l-1 1-1.1 1 3.4 1.8-.7-2.2zv-.8zm7 6.8 2.3 1.2z"/><path fill="#968550" d="M0 104.8v-6.5l3-2.5L9.2 99l-3.1 5.8zm1.4-55.4L0 45.8v-15l1.8-2.1 3.1 1.6 6.4 3.2L13 37v15.8l-.2.1-2 1.6-3.3-1.7-3.8-2zm21 56.5.9.7-.4-.1 3.5 4.3v7.7l-4-6.4z"/><path fill="#b8a775" d="m3 95.8-3-4.2V76.2l2-2 2.9 1.5L9.2 78l1.4.7 1.2 2.2 1.3 2.3v13.9l-3 .2-.9 1.7zm-1.8-88 1-1.6L14.1.3l24 12.5 1 1.9-12.7 6.8V21l-4.6-2.4-1.2-3.8L11 13z"/><path fill="#b9ab7f" d="m2 74.3-2-5.7V51.5l1.4-2.1 2.4 1.3 3.8 2 3.3 1.7 4.2 2.1.9.5 7.9 4.2h-.6l3 3v20.4l-2.2 1.2-8.2-4.3-1-.5-2.6-1.4-1.7-.9-1.4-.7-4.3-2.2z"/><path fill="#917e46" d="M1.8 28.7 0 24V9.6l1.2-1.8L11 13l-1.6-.3 5.7 5 6.6.9 4.6 2.4v17.9L24 40.2l-2.5-1.3-.6-.2-.5-.3-.6-.4-3.5-1.8-1.3-.7-3.7-2-6.4-3.2zm15.3-7.4-7.7-3.4zm-6.2 7.5L7.1 22z"/><path fill="#b8a671" d="m24 40.2 2.3 1.1 1.8-.6.4-.3 1 1.2v16.5L27 59.9l-.6-.3-4.2-2.2-.5-.2-.8-18.5.6.3z"/><path fill="#a4976f" d="m11 13 9.6 1.8 1.2 3.8-6.6-.9-5.7-5z"/><path fill="#765b2c" d="m15 35.5 1.3.7v15L13 52.5V36.9zm7.2 21.8-6.2-.2-1-.6v-.2l3-1.3.1.2 3.5 1.8z"/><path fill="#88753b" d="m20.4 38.4.5.3.8 18.3-3.5-1.8-.1-.2-1.9-3.7V36.2z"/><path fill="#9a8a5a" d="m22.2 57.3 4.2 2.2-2.5 1.7L16 57zm-9.1 26 1.8-2.3 1 .5 8.2 4.3 2.5 2.2-.2 18.3-2.9.2-.2.1-.9-.7v-4.4l-3.7-4.7-5.6.3z"/><path fill="none" stroke="#000" stroke-linecap="round" stroke-linejoin="round" stroke-opacity=".3" stroke-width="__RESOLUTION__" d="m39.2 14.7 1.3 2.3v14.2L38.6 35l1.9 2.3v15.4L38.4 56l2.1 1.5V77L39 80.3l1.5 2.5V99l-2.4 2.7 2.4 3.2v16.6M38 12.8l1.1 1.9m-26 22.9v3.5m0 6.1v5.5l-.2.1-2 1.6m4 2 .2.1m-4.5 22.2 1.2 2.2m1.3 7.3v9.7l-1 1m1-1 .6 1.6M14.1.3l24 12.5m-9.9 27.7L38.6 35m-18.8 3 .6.4.5.3.6.2M4.9 30.3l-3.1-1.6m26.8 32.6 9.8-5.2m-27.5-1.7 4.2 2.1m-7.5-3.9 3.3 1.8m1.4 25.2-1.7-.9-1.4-.7m13.2 27.9.9.7m.8-20.8L16 81.5m23-1.2-10.3 5.5M2 74.4l2.9 1.5M1.4 49.4l2.4 1.3m26 55.4 8.3-4.4m-15.7 4.2-2.3-1.2" vector-effect="non-scaling-stroke"/><path fill="none" stroke="#7b6a35" stroke-linecap="round" stroke-linejoin="round" stroke-width="__RESOLUTION__" d="m9.4 17.9 7.7 3.4M7 22l3.8 6.6" vector-effect="non-scaling-stroke"/><path fill="#8f9974" d="M24.1 67q-3.7 2.6 1 6-4.1-1.9-4.9-.5l-.3 6.2q0-8.1-9.3-4.5 8.1-6 6-9l.5.3q2.8 3.3 7 1.5"/></g></defs><g clip-path="url(#a)"><use xlink:href="#b" width="40.8" height="129" transform="matrix(-1 0 0 1 2.8 1)"/></g></svg>