<svg xmlns="http://www.w3.org/2000/svg" xmlns:xlink="http://www.w3.org/1999/xlink" width="47" height="34" viewBox="0 0 47 34"><defs><radialGradient id="c" cx="0" cy="0" r="819.2" gradientTransform="matrix(.03 0 0 .03 1.15 -13.45)" gradientUnits="userSpaceOnUse" spreadMethod="pad"><stop offset=".1" stop-color="#7b714a"/><stop offset=".5" stop-color="#564d30"/></radialGradient><radialGradient id="b" cx="0" cy="0" r="819.2" gradientTransform="matrix(.02 0 0 .02 4.3 -17.55)" gradientUnits="userSpaceOnUse" spreadMethod="pad"><stop offset=".1" stop-color="#918b73"/><stop offset=".5" stop-color="#837a59"/></radialGradient><radialGradient id="a" cx="0" cy="0" r="819.2" gradientTransform="matrix(.01 0 0 .01 6.5 -18.1)" gradientUnits="userSpaceOnUse" spreadMethod="pad"><stop offset=".1" stop-color="#918b73"/><stop offset=".5" stop-color="#837a59"/></radialGradient><radialGradient id="i" cx="0" cy="0" r="819.2" gradientTransform="matrix(.01 0 0 .01 -6.5 -5.9)" gradientUnits="userSpaceOnUse" spreadMethod="pad"><stop offset=".1" stop-color="#cbc2a0"/><stop offset=".5" stop-color="#b7aa7c"/></radialGradient><radialGradient id="h" cx="0" cy="0" r="819.2" gradientTransform="matrix(.03 0 0 .03 -12 -1.4)" gradientUnits="userSpaceOnUse" spreadMethod="pad"><stop offset=".1" stop-color="#ac9e68"/><stop offset=".8" stop-color="#786c43"/></radialGradient><radialGradient id="g" cx="0" cy="0" r="819.2" gradientTransform="matrix(.01 0 0 .01 4.7 -4.75)" gradientUnits="userSpaceOnUse" spreadMethod="pad"><stop offset=".1" stop-color="#ac9e68"/><stop offset=".8" stop-color="#786c43"/></radialGradient><radialGradient id="e" cx="0" cy="0" r="819.2" gradientTransform="matrix(.01 0 0 .01 4.15 -6.9)" gradientUnits="userSpaceOnUse" spreadMethod="pad"><stop offset=".1" stop-color="#ac9e68"/><stop offset=".8" stop-color="#786c43"/></radialGradient><radialGradient id="d" cx="0" cy="0" r="819.2" gradientTransform="matrix(.02 0 0 .02 -4.75 -7)" gradientUnits="userSpaceOnUse" spreadMethod="pad"><stop offset=".1" stop-color="#cbc2a0"/><stop offset=".5" stop-color="#b7aa7c"/></radialGradient><radialGradient id="l" cx="0" cy="0" r="819.2" gradientTransform="matrix(.03 0 0 .03 1.15 -13.45)" gradientUnits="userSpaceOnUse" spreadMethod="pad"><stop offset=".1" stop-color="#ac9e68"/><stop offset=".5" stop-color="#786c43"/></radialGradient><radialGradient id="k" cx="0" cy="0" r="819.2" gradientTransform="matrix(.02 0 0 .02 4.3 -17.55)" gradientUnits="userSpaceOnUse" spreadMethod="pad"><stop offset=".1" stop-color="#cbc2a0"/><stop offset=".5" stop-color="#b7aa7c"/></radialGradient><radialGradient id="j" cx="0" cy="0" r="819.2" gradientTransform="matrix(.01 0 0 .01 6.5 -18.1)" gradientUnits="userSpaceOnUse" spreadMethod="pad"><stop offset=".1" stop-color="#cbc2a0"/><stop offset=".5" stop-color="#b7aa7c"/></radialGradient><g id="p"><path fill="#544d13" d="M15.8 2.5q-.9-.6-2.3-.5l-1.7.4q-.4.5-.2.7.3.3 2.2.6h2.8q.3-.3.3-.5zm-1 3-3.6-.4q-1.1-.5-1.6-1.5Q9 3 9.4 2.4q1.3-1.3 3-1.4 2.4-.2 5 1.4 1.5 1 1.9 1.5.2.3-1 1.2-.9.6-3.5.5"/><path fill="#2f3a0c" d="m15.8 2.5 1.1.8-.3.3-2.9.1q-1.7-.3-2-.6t0-.7l1.8-.4q1.4-.1 2.3.5"/><path fill="url(#a)" d="M11.5-14.2q2.6.1 3.5-.5 1.1-.9.9-1.2-.4-.5-1.9-1.5-2.5-1.6-4.9-1.4-1.7.2-3 1.5-.4.4.1 1.2.5.9 1.6 1.4zm4.5-.1q-1.2.8-4.2.7l-4.4-.7q-1.3-.5-1.9-1.6-.5-1-.1-1.5 1.5-1.5 3.5-1.7 3-.2 5.9 1.7l2.3 1.7q.2.4-1.1 1.4" transform="translate(3.35 19.75)"/><path fill="url(#b)" d="M16-14.3q1.3-1 1-1.3l-2.2-1.8q-3-1.9-5.9-1.7-2 .2-3.5 1.8-.5.4.1 1.4t2 1.7l4.3.5q3 .2 4.2-.6m-18.7 1.5q-1.2-.5 1.9-1.1.6-2.2 3.4-3.7 2.9-1.8 6.7-1.8 3.3-.2 5.1.5l3.5 1.8 2.7 1.7q.1 1.7-.7 2.1-1.5 2-6.9 3.3-5.3 1.3-11-3.1L.9-14.3l-1.3 1.1z" transform="translate(3.35 19.75)"/><path fill="url(#c)" d="m-2.7-12.8 2.2-.4 1.3-1L2-13.1q5.7 4.4 11 3 5.4-1.2 7-3.2.8-.4.6-2.1 1.6 1.3 1.9 2.8h.1q3.3 0 .8 1.2l-1 .5q-2 2.5-4.8 3.8-2.2 1-4.7 1.3 1.2 3.7-2 .3Q6-6.2.3-11l-1.5-1.3-.2-.2zM17.9-9l1.3-.8-.1 1q-.4.8-1.5 1.7 1.1-.9 1.5-1.7v-1zm.7-2 .5 1.2zm2.4.6-1.9 1.6z" transform="translate(3.35 19.75)"/><path fill="none" stroke="#646d13" stroke-linecap="round" stroke-linejoin="round" stroke-width="__RESOLUTION__" d="M19.4 5.4q-1.2.8-4.2.7l-4.4-.6q-1.4-.6-2-1.7-.5-1 0-1.4Q10.2.9 12.3.7q2.9-.3 5.9 1.6l2.2 1.8q.3.4-1 1.3" vector-effect="non-scaling-stroke"/><path fill="none" stroke="#000" stroke-linecap="round" stroke-linejoin="round" stroke-opacity=".3" stroke-width="__RESOLUTION__" d="m24 4.4-2.7-1.8L17.7.9q-1.7-.7-5-.6-3.8 0-6.8 1.8-2.8 1.6-3.4 3.7Q-.6 6.5.7 7l1.3.3.1.1 1.5 1.4q5.6 4.8 10.7 5.6 3.1 3.3 2-.4 2.5-.2 4.7-1.2 2.7-1.4 4.8-3.8l1-.6q2.4-1.1-.8-1.2h-.1q-.3-1.4-2-2.7" vector-effect="non-scaling-stroke"/><path fill="none" stroke="#000" stroke-linecap="round" stroke-linejoin="round" stroke-opacity=".2" stroke-width="__RESOLUTION__" d="M21 12.7q1.1-1 1.5-1.8v-1l-1.2.8m1.2-.7L22 8.8m.5 2.1 1.9-1.6M3.2 6.7l.4.5.5-1m5.7 3.4-.2 1.6 1.8.6v-1.3m2.3 2.8v-1l-2.2-.5v1m-2-1V11l-1.7-.8v.5M5.7 9.5l.2-.4-1.4-1-.2.3m2.2-.6-.6 1.3 1.9 1.2v-1m7.2 3.1-1.3-.1v-1.7m-8.3-4-.9 1.5-.8-.9-.4.7" vector-effect="non-scaling-stroke"/></g><g id="u"><path fill="url(#d)" d="m-1.8-15.6.9 2.7-1.1 1.6v.7q4 .3 5.9 1.8 2.4 1.5 3.6.7.8-.9-.5-3.2Q4-13.1.3-13l-.6-.7q5.7.3 9.4 2.7.8 2.2.3 3.9-.5 2.5-3 4.1l-.5 1Q5.3-.1 2.4 1l-4.1 1.3q-2.4.1-10.5-4.5l-3.6 1q-.6-.5 2.8-2h.3l.2-.2q1.2-2 2.4-2.4l2.3-1q1.1-.5 3.1-.5 5-.3 10.9 3.9l-1-1.5q-5.6-3-9.2-3l1.1-.4Q0-8.3 6-5.4q-1.2-1 .8-1.2-9.4-2.2-10-4Q-3-12-1.8-13l.1-.2q-1.6-4-.1-2.5m4 14.2q2.3.4 1.9-1t-2-2.1T-2.2-6l-4.5-.3q-2 .2-1.7 1.6.2 1.4 1.9 2l3.9.7z" transform="translate(16.3 16.3)"/><path fill="#c1b78f" d="m16 2.5.6.7q3.7-.1 6.8 1.9 1.3 2.2.4 3-1.2.9-3.6-.6-2-1.5-6-1.8V5l1.2-1.6-.9-2.7z"/><path fill="url(#e)" d="M-3.2-10.6q.6 1.8 10 4-2 .1-.7 1.2-6.2-3-9-2.7-.6-1.4-.4-2.6" transform="translate(16.3 16.3)"/><path fill="url(#g)" d="M-4.1-7.8q3.6 0 9.3 3L6-3.3Q.2-7.5-4.8-7.3l.5-.4z" transform="translate(16.3 16.3)"/><path fill="url(#h)" d="m-15.9-1.1 3.6-1q8 4.6 10.5 4.5L2.3 1Q5.2-.1 6-2.1l.3-1q2.6-1.6 3-4.1.6-1.7-.2-3.9 1.1.8 2 1.7l.2.2q6.3-1.1 1.2.8h-.3q.7 3.4-3 7.5L9-.5q-.7 4-8.1 6.8H.7l-.8 2.2-.7.8q-.4 0-.8-1.8l-.1-.1-.2-.9h-.2l-3.3-.8-1.9-.7-3.3-2.4-1.2-1.3-.5-.7-.8-1.3q-2.5 0-2.8-.4" transform="translate(16.3 16.3)"/><path fill="url(#i)" d="m2.2-1.4-4.8-.5-4-.6q-1.6-.7-1.8-2.1t1.7-1.7l4.5.4q2.6.6 4.3 1.4t2 2.1-2 1M.8-2q1.9.3 1.6-.8Q2-3.9.8-4.5l-3.3-1-3.5-.3q-1.6.1-1.3 1.3.1 1 1.4 1.5t3 .6z" transform="translate(16.3 16.3)"/><path fill="#766c1b" d="m17.1 14.3-3.6-.4q-1.9-.1-3.1-.5T9 11.8t1.3-1.3l3.4.3 3.4 1q1.3.6 1.6 1.7t-1.6.8m-1.2-2.2-2-.6-2.1-.2q-.9 0-.8.8.1.6.9.9l1.8.3 2.3.3q1.1.2.9-.5t-1-1"/><path fill="#425111" d="M16 12.1q.7.3.9 1t-1 .5l-2.2-.3L12 13q-.8-.3-.9-1t.8-.7l2.1.2z"/><path fill="none" stroke="#000" stroke-linecap="round" stroke-linejoin="round" stroke-opacity=".3" stroke-width="__RESOLUTION__" d="M14.5.7q-1.5-1.4.1 2.6l-.1.1q-1.2 1-1.4 2.3-.3 1.1.3 2.5 2.8-.3 9 2.7m-9-2.7-1.2.3M22.4 13q-5.9-4.2-10.9-4-2 .1-3 .7t-2.3.9T3.7 13l-.1.2h-.4q-3.4 1.5-2.8 2 .4.4 2.8.4l.8 1.3.5.7 1.2 1.3L9 21.3M25.4 5.1Q21.7 2.8 16 2.5L14.5.7m10.9 4.5q1.1.8 2 1.7l.2.2q6.3-1.1 1.2.8h-.3q.7 3.4-3 7.5l-.2.4q-.7 4-8.1 6.8H17l-.8 2.2-.7.8q-.4 0-.8-1.8m-.1-.1-.2-.9M11.5 9.1l.5-.5" vector-effect="non-scaling-stroke"/><path fill="none" stroke="#8c981b" stroke-linecap="round" stroke-linejoin="round" stroke-width="__RESOLUTION__" d="m18.5 14.9-4.8-.5-4-.7q-1.6-.6-1.8-2t1.7-1.6l4.5.3q2.6.6 4.3 1.3t2 2.2-2 1" vector-effect="non-scaling-stroke"/><path fill="none" stroke="#000" stroke-linecap="round" stroke-linejoin="round" stroke-opacity=".2" stroke-width="__RESOLUTION__" d="m27.2 11.6-.6-.4-1 2 .7.5m-2.8.5.9.4 1.2-1.4-.4-.3m-.8 1.7.7.4M23 16l.5.4.3-1.2.6-.6m1.6-3.9.6.5.1-2.1m-5 8.8.6.5q.8-.8 1.2-2l.8.6m-1.4 2-.6-.6q-1 1-2.5 1.7l.3.5m-2.9-.6.2.6 2.4-.6-.3-.7m-2 2-.1-.7-2.2.2v.7M3.5 15l1 .9.4-.7m7.7 4.1-.2 1 2.4.5h.3v-1.4m-2.8 2.1.1-1.1-1.8-.6-.3 1.2m.3-1.2-2-1-.1.8M8 16.9 7.3 18l1.4.8.3-1.1m-2.1 1 .4-.7-1.6-1.2-.3.6m5.2 2.3v-.6m-6.1-3.3 1.2 1 .5-.8" vector-effect="non-scaling-stroke"/></g><g id="t"><path fill="#766c1b" d="M15.8 2.5q-.9-.6-2.3-.5l-1.7.4q-.4.5-.2.7.3.3 2.2.6h2.8q.3-.3.3-.5zm-1 3-3.6-.4q-1.1-.5-1.6-1.5Q9 3 9.4 2.4q1.3-1.3 3-1.4 2.4-.2 5 1.4 1.5 1 1.9 1.5.2.3-1 1.2-.9.6-3.5.5"/><path fill="#425111" d="m15.8 2.5 1.1.8-.3.3-2.9.1q-1.7-.3-2-.6t0-.7l1.8-.4q1.4-.1 2.3.5"/><path fill="url(#j)" d="M11.5-14.2q2.6.1 3.5-.5 1.1-.9.9-1.2-.4-.5-1.9-1.5-2.5-1.6-4.9-1.4-1.7.2-3 1.5-.4.4.1 1.2.5.9 1.6 1.4zm4.5-.1q-1.2.8-4.2.7l-4.4-.7q-1.3-.5-1.9-1.6-.5-1-.1-1.5 1.5-1.5 3.5-1.7 3-.2 5.9 1.7l2.3 1.7q.2.4-1.1 1.4" transform="translate(3.35 19.75)"/><path fill="url(#k)" d="M16-14.3q1.3-1 1-1.3l-2.2-1.8q-3-1.9-5.9-1.7-2 .2-3.5 1.8-.5.4.1 1.4t2 1.7l4.3.5q3 .2 4.2-.6m-18.7 1.5q-1.2-.5 1.9-1.1.6-2.2 3.4-3.7 2.9-1.8 6.7-1.8 3.3-.2 5.1.5l3.5 1.8 2.7 1.7q.1 1.7-.7 2.1-1.5 2-6.9 3.3-5.3 1.3-11-3.1L.9-14.3l-1.3 1.1z" transform="translate(3.35 19.75)"/><path fill="url(#l)" d="m-2.7-12.8 2.2-.4 1.3-1L2-13.1q5.7 4.4 11 3 5.4-1.2 7-3.2.8-.4.6-2.1 1.6 1.3 1.9 2.8h.1q3.3 0 .8 1.2l-1 .5q-2 2.5-4.8 3.8-2.2 1-4.7 1.3 1.2 3.7-2 .3Q6-6.2.3-11l-1.5-1.3-.2-.2zM17.9-9l1.3-.8-.1 1q-.4.8-1.5 1.7 1.1-.9 1.5-1.7v-1zm.7-2 .5 1.2zm2.4.6-1.9 1.6z" transform="translate(3.35 19.75)"/><path fill="none" stroke="#8c981b" stroke-linecap="round" stroke-linejoin="round" stroke-width="__RESOLUTION__" d="M19.4 5.4q-1.2.8-4.2.7l-4.4-.6q-1.4-.6-2-1.7-.5-1 0-1.4Q10.2.9 12.3.7q2.9-.3 5.9 1.6l2.2 1.8q.3.4-1 1.3" vector-effect="non-scaling-stroke"/><path fill="none" stroke="#000" stroke-linecap="round" stroke-linejoin="round" stroke-opacity=".3" stroke-width="__RESOLUTION__" d="m24 4.4-2.7-1.8L17.7.9q-1.7-.7-5-.6-3.8 0-6.8 1.8-2.8 1.6-3.4 3.7Q-.6 6.5.7 7l1.3.3.1.1 1.5 1.4q5.6 4.8 10.7 5.6 3.1 3.3 2-.4 2.5-.2 4.7-1.2 2.7-1.4 4.8-3.8l1-.6q2.4-1.1-.8-1.2h-.1q-.3-1.4-2-2.7" vector-effect="non-scaling-stroke"/><path fill="none" stroke="#000" stroke-linecap="round" stroke-linejoin="round" stroke-opacity=".2" stroke-width="__RESOLUTION__" d="M21 12.7q1.1-1 1.5-1.8v-1l-1.2.8m1.2-.7L22 8.8m.5 2.1 1.9-1.6M3.2 6.7l.4.5.5-1m5.7 3.4-.2 1.6 1.8.6v-1.3m2.3 2.8v-1l-2.2-.5v1m-2-1V11l-1.7-.8v.5M5.7 9.5l.2-.4-1.4-1-.2.3m2.2-.6-.6 1.3 1.9 1.2v-1m7.2 3.1-1.3-.1v-1.7m-8.3-4-.9 1.5-.8-.9-.4.7" vector-effect="non-scaling-stroke"/></g><g id="s" transform="translate(.3 .3)"><use xlink:href="#m" width="9.7" height="25.8" filter="url(#n)" transform="matrix(-1.26 .8 -.77 -.27 32.1 10.2)"/><use xlink:href="#p" width="28.1" height="16.2" transform="translate(-.3 -.3)"/></g><clipPath id="r"><path d="M1 1h45v32H1z"/></clipPath><filter id="n" filterUnits="userSpaceOnUse"><feConvolveMatrix divisor="49" in="SourceGraphic" kernelMatrix="1 1 1 1 1 1 1 1 1 1 1 1 1 1 1 1 1 1 1 1 1 1 1 1 1 1 1 1 1 1 1 1 1 1 1 1 1 1 1 1 1 1 1 1 1 1 1 1 1" order="7 7" result="filter1"/></filter><path id="q" fill="#000" fill-opacity=".3" d="M4.9 25.8q-2 0-3.5-3.8Q0 18.3 0 12.9t1.4-9.1Q2.9 0 4.9 0t3.4 3.8 1.4 9.1T8.3 22t-3.5 3.8"/><use xlink:href="#q" id="m" width="9.7" height="25.8"/></defs><g clip-path="url(#r)"><g transform="translate(17.3 20.75)"><use xlink:href="#m" width="9.7" height="25.8" filter="url(#filter-object-0)" transform="matrix(1.5029 .96 .9197 -.3236 -9.6 2.25)"/><use xlink:href="#s" width="32.4" height="18.3" transform="translate(-6.1 -12.4)"/><use xlink:href="#t" width="28.1" height="16.2" transform="translate(-3.35 -19.75)"/><use xlink:href="#m" width="9.7" height="25.8" filter="url(#filter-object-7)" transform="matrix(1.4813 .9462 .7329 -.4299 -14.4 1.05)"/><use xlink:href="#u" width="31.4" height="25.9" transform="translate(-16.3 -16.3)"/></g></g></svg>