<svg xmlns="http://www.w3.org/2000/svg" xmlns:xlink="http://www.w3.org/1999/xlink" width="24" height="50" viewBox="0 0 24 50"><defs><clipPath id="a"><path d="M1 1h22v48H1z"/></clipPath><g id="b"><path fill="#b9ae84" d="M4.6 13.4q3.7.1 6.7-2.3Q14 9 14 6.3V6h-.2l1.4-2 .2.1 1.2.4 2-1.2.1.1.3.4.6 1q1.6 2.5 1.5 5.7 0 4.5-3.5 6.6-2.7 1.6-4.6-1.1 4.1-1.9 1.7-3.3h-.1Q11 14.5 7.3 14q-1.3-.2-2.7-.7m13-2.5q-1.5 1.1-3 1.8 1.5-.7 3-1.8m1-9.2-3.1 1.7-.2-.1L10.7 0h6.6zM2.4 5 .3 3.4l4.5-1.8L10 2.7zM6 21.7q1 .9 2.3 1.4v-2.6l.5-.2 7.3.4 3.4 1.7.8 2.2-3.7 1.9-1.7.8-2.3 1.2-.8.4v-2.5L4 22.7z"/><path fill="#cec7aa" d="M15.4 4.2h-.2L13.8 6h.2v.2q0 2.6-2.7 4.8-3 2.4-6.7 2.3h-.1q.9 3.1 2.3 6.4l.5 1.2 1 2.1q-1.3-.5-2.4-1.4Q3.8 19.8 2 16-.2 11.2 0 6l.2-2.6 2.3 1.5v.4q.2 1.5.9 2.5.9 1.3 2.2 1.3 1.2 0 2.1-1.3l1.5-1.5h4.6v-.2l-3.7-3.5.5-2.6h.1l4.6 3.3zM2.9 12.7l1.8.7zM16 20.8l-7.3-.4 3.2-1.6zM11.7 8v1.8z"/><path fill="#897d4e" d="M4.6 13.4q1.4.5 2.7.7l.1.5q.7 3 .9 5.6v2.9l-1-2-.5-1.3q-1.4-3.3-2.3-6.4zm10.8-9.2-.1-.9.2.1 3-1.7.2 1.8v-.1l-2 1.2zm-.5 23.2 1.7-.9v13q0 1-1.5 1.5l-.2.2zM20.4 40l.9 2.4-9.5 4.9v-2.9z"/><path fill="#afa474" d="m10 2.6 3.8 3.5v.2H6.7L2.8 5.1h-.3V5z"/><path fill="#ecece1" d="M9.2 6.3 7.7 7.8q-.9 1.3-2.1 1.3T3.4 7.8q-.7-1-.8-2.5L2.5 5v.1h.3l3.9 1.2z"/><path fill="#a3955c" d="M14.9 27.4v13.8l-2.3.5V28.5z"/><path fill="#ada06d" d="m14.9 41.2.3-.2q1.4-.6 1.4-1.5v-1.4l3.8 1.8-8.6 4.4-8.6-4.1L7 38.3v1.3q0 .8 1.4 1.4l1.6.5-.2-8.9L7 26.8l4.7 2.2.8-.4v13.2z"/><path fill="#d7d0b9" d="m11.8 47.2-9.5-4.6.9-2.5 8.6 4.2zM7 26.6l-3.7-1.8.8-2.2 7.7 3.8v2.5z"/><path fill="#d0c9ae" d="M7 38.3V26.7h.1l2.7 6 .2 8.8-1.6-.5Q7 40.4 7 39.6z"/><path fill="none" stroke="#6b5b49" stroke-linecap="round" stroke-linejoin="round" stroke-width="__RESOLUTION__" d="M4.6 13.4q1.4.5 2.7.7 3.7.5 7.3-1.3h0q1.5-.8 3-1.9m1-7.5.1.1.3.4.6 1q1.6 2.5 1.5 5.7 0 4.5-3.5 6.6-2.7 1.6-4.6-1.1 4.1-1.9 1.7-3.3h-.1M.2 3.4 0 5.9Q-.2 11.2 2 16q1.7 3.8 4 5.7 1 .9 2.3 1.4h0v-2.6l.5-.2 3.2-1.6 4 2 3.5 1.7.8 2.2-3.7 1.9-1.7.8-2.3 1.2-.8.4L7 26.7h0l-3.7-1.9.8-2.2 1.9-.9m-1.4-8.3-1.7-.8m13.7 26.9v-13m0 11.6 3.8 1.8.9 2.4-9.5 4.9-9.5-4.6.9-2.5L7 38.4m4.6-28.5V8m-4.3 6.1.1.5q.7 3 .9 5.6v.3" vector-effect="non-scaling-stroke"/><path fill="#897d4e" d="M10.2 14.5Q8.3 16 7 14q1.6-2.7 3.4-.9v.1q2-1.8 4.4-.4-1 3.1-3.3 1.6 2.2 2.4-.1 3.5-2.3-.9-1.2-3.4"/><path fill="none" stroke="#5f5636" stroke-linecap="round" stroke-linejoin="round" stroke-width="__RESOLUTION__" d="M10.4 13.2q.2-1.3-.7-2.7m.5 4Q9 17 11.4 17.9q2.3-1.1 0-3.5 2.4 1.5 3.4-1.6-2.5-1.4-4.4.4h0q-1.9-2-3.4.8 1.3 2 3.2.5" vector-effect="non-scaling-stroke"/></g></defs><g clip-path="url(#a)"><use xlink:href="#b" width="21.3" height="47.2" transform="translate(1 1)"/></g></svg>