<svg xmlns="http://www.w3.org/2000/svg" xmlns:xlink="http://www.w3.org/1999/xlink" width="80" height="76" viewBox="0 0 80 76"><defs><g id="l"><path fill="#6c5537" d="M20.9 31.7q.4.7.4 1.8-.1 1.1-.7 2-.5 1-1.2 1.1t-1-.5V36q-.5-.7-.4-1.9t.6-2 1.2-1q.5-.1.9.3zm-.2-.3-2.3 4.8z"/><path fill="none" stroke="#000" stroke-linecap="round" stroke-linejoin="round" stroke-opacity=".3" stroke-width="__RESOLUTION__" d="M20.9 31.7q.4.7.4 1.8-.1 1.1-.7 2-.5 1-1.2 1.1t-1-.5V36q-.5-.7-.4-1.9t.6-2 1.2-1q.5-.1.9.3zM18.4 36l2.3-4.7" vector-effect="non-scaling-stroke"/><path fill="#6c5537" d="m62.9 8.7.2.3q.4.6.4 1.8-.1 1.1-.6 2-.6 1-1.2 1.1t-1.1-.5v-.1q-.5-.7-.4-1.9t.6-2 1.2-1q.5-.2.9.3l-2.3 4.8z"/><path fill="none" stroke="#000" stroke-linecap="round" stroke-linejoin="round" stroke-opacity=".3" stroke-width="__RESOLUTION__" d="m62.9 8.7.2.3q.4.6.4 1.8-.1 1.1-.6 2-.6 1-1.2 1.1t-1.1-.5v-.1q-.5-.7-.4-1.9t.6-2 1.2-1q.5-.2.9.3l-2.3 4.8" vector-effect="non-scaling-stroke"/><path fill="#000" fill-opacity=".2" d="M44.9 27V8.3q6.7 21.3 20.7 24h.1v3.3q-1.2 4.2-8.2 4.3-7.1.5-12.6-12.8"/><path fill="none" stroke="#000" stroke-linecap="round" stroke-linejoin="round" stroke-opacity=".3" stroke-width="__RESOLUTION__" d="m45 34.3-1.5-.4m-.1 4.4 2.5-.3 3 2.5.9-.7 5 .6-.1 1.4M65 36.6l1-.1M22.6 57.8l1.6.2m-.4-3 2.6-1.1.8-.1 1.1-.6m-1.1.5h2.3M3.3 54l-.9-.4m-.7 3 1.1-.1-2.8-1m8.2 4.2-1 1.2m-3.5-4.6-.9.2M58 39.9l.3.6m-9.3 0-.8.5" vector-effect="non-scaling-stroke"/><path fill="#896207" d="M65.6.5v5.2q-2.8.3-8.5 9l-9.4 3Q63.5 5.8 65.5.4"/><path fill="url(#a)" d="m52 27.4 9.4-3 5.9-2.2 2.5-1v6.3l-2.5.4q-24 4.5-49.1 11.3V39l-.4.1q-2.4 1-3.6 2l-.3.2-3.2 2.9-.7.7q-2.1 1.9-2.6 3.4v-5.2q.8.3 2.5-.7l4-2.8.8-.6-.8-.2-2.8-1.4-1.2-.9-.9-.9-1.4-2V30q.9 1.6 2.3 2.6 1.7 1.1 4 1.6l3.7.4 3.6-.4 1-.1q16.5-3 29.8-6.8" transform="translate(-4.3 -9.75)"/><path fill="none" stroke="#f3b525" stroke-linecap="round" stroke-linejoin="round" stroke-opacity=".5" stroke-width="1" d="M65.6.5q-2.1 5.4-17.9 17.2"/><path fill="none" stroke="#ec9f2d" stroke-linecap="round" stroke-linejoin="round" stroke-opacity=".5" stroke-width="1" d="m47.7 17.7 9.4-3 5.9-2.2 2.5-1M3.3 20.4Q4.2 22 5.6 23q1.7 1.1 4 1.5l3.7.4 3.6-.3 1-.1q16.5-3 29.8-6.9"/></g><g id="j"><path fill="#c29d5f" d="m51.4.3 1.5-.1 4.6.6q1.5.3 2.7.9 2.3 1.2 2.9 2.8v1.8q-.4 1.3-2 2.3l-.4.2-1.1-.2 1.5-1.2q1-1 1-2.8 0-2.7-5-3.5L51.5.5zm-8.8 6V4.6q.5-1.7 2.9-2.9l1.5-.6.5.4-.7.4h-.3q-1.1.1-2 1t-.9 1.7q0 3.5 4.4 4.4l.9.1 2.6.2 1.9-.2 1.6.2 2.7-.2.9.7-3.1.6-1.5.2h-1.7l-3.5-.4h-.1L47 9.7l-.3-.1-1.3-.5-.8-.5-.7-.5q-1.1-.8-1.4-1.8m5.8-4.1.8.7-1 .4Q47 4 47 4.6q0 1.3 4.1 1.7h3.5q4 0 4-1.6 0-1.3-3.7-1.6h-.1V3q.3-1.1 1.2-1.1h.1q1.4 0 2.7.8 1.6.9 1.6 2.2 0 2.4-3.7 2.8l-1.4-.3.7.4h-1.2l-5.2-.2q-4.7-.7-4.7-2.8 0-1 3.5-2.6m2 1.6 1.1.9.9.8h.8q2.4 0 2.4-.8l-2.1-.5-.9-.2h-.5l.3 1.5H52q-2.6-.2-2.6-1 0-.5 1-.7m4.4-.6H52l-.3-1.5h3z"/><path fill="#a07b3d" d="M63.1 6.3v19.6q-.4 1-1.4 1.8l-.5.4q-.8-5.8-.9-13.2v-.8l.8-5.5q1.6-1 2-2.3M44.7 8.6l.8.5 1.3.5.3.1 1.5.5.3 3.7.3 3.1q0 2.2-1.3 12.1l-.2 1.2v.2l-.7-.2v-4l-1.5-.7h-.1l-1.2-.8H44l.3-4.4-.2-7-.1-5.3zm1.5 10.2v-2.5zm0 1.6V20z"/><path fill="#775b2b" d="M63.1 25.9v18.9q-.5-1.3-.8-3.4-.6-4-.6-10.8v-3q1-.7 1.4-1.7m-7.3 23-1 .1-.2.1v-1.4q0-2.7-.6-2.7-.8 0-1 3.2v1h-1.2v-.7l.7-8.3.2-1.9.6-6.4-.2-2.7h.9l-.1.1q0 4.2 1 10.2l.3 1q.4 3.4.6 7V49m-5 0h-.5l-.1-.1v-.5L49 41l-.2-1.2q-1.1-5.6-1.1-9.3l1 .3.7 5q.8-.8.7-4.8l1.4.1-.1 3.3-.4 4.2V40l-.2 5.1zm-2.6-.4-1.1-.4-1.2-.5V47q.2-3.5.8-5 .3.3 1.5 6.7m-3-1.2q-1.3-.7-1.9-1.5v-2l-.1-3.9v-1l.3-8.1q0-1.6-.8-2.6V26q.4 1 1.5 1.9v-3l1.3.8.1 1-.1 2.5.4 5-.2 3.9v1.4l-.5 7zm-1-14.8v-4.8zm0 6.6V36z"/><path fill="#5e4823" d="m63.1 28.8 1.3-1-1.3 10.7zm0 16v.1l-.1.3-.6.8-.9.9-.1-.6-.1-.8-.5-2.1-.4-2.2q-.6-3.5-.6-4.9v-4.4l.4-.2.9-.6v-3h.1l.5-.5v3q0 6.8.6 10.8.3 2 .8 3.4m-4.8 3.6-.2.1-2.3.5v-1.4q-.1-3.7-.6-7l-.2-1.1q-1.1-6-1.1-10.2v-.2h.1l1.6-.1 1 11.4v.3l.9 5.2.3 1.2zm-3.7.7H53v-.9q.2-3.2 1-3.2.6 0 .6 2.7zm-12-23.9L41.3 18l1.3-.6zm18.5 13.5V31z"/><path fill="#6a5126" d="m61.6 46.9-1.1.6-.3.1-1.9.8-.5-1.3-.3-1.2-.9-5.2v-.3l-1-11.4 2-.4v4l2.1-.7v4.4q0 1.4.7 4.9l.4 2.2.5 2 .1.9zm-3.8-9.5v-4.8z"/><path fill="#8d6c34" d="m51.8 49.2-1-.2v-.7l-.1-3.1.2-5.2.1-1.4.4-4.2V31h1.1v-2h.5l.3 2.8-.6 6.4-.2 1.9q-.5 4-.6 8.3v.1zm-1.5-.1h-.5l-1.3-.3-.4-.1q-1.2-6.5-1.6-6.7-.5 1.5-.7 5v.9l-.3-.1-.5-.3.1-1 .4-7 .1-1.4.1-3.9-.4-5 .2-2.6v-.9l1.5.6v6.4-2.4l.6.3h.1q0 3.6 1 9.3L49 41l1.1 7.4.1.5zm-7-3.1-.2-.4-.4-.6V28.3q.8 1 .8 2.6l-.2 8.1-.1 1 .1 3.9zm5.5-15.1 1.4.2q.1 4-.7 4.8zm3.8.3v2z"/><path fill="#b08742" d="M42.6 25.9V6.3q.3 1 1.4 1.8v5.4l.3 6.9-.2 4.4v3q-1.1-.9-1.5-2m6-15.6h.2z"/><path fill="#c9a872" d="m47.5 1.5.9.7q-3.5 1.6-3.5 2.6 0 2.1 4.7 2.8l5.2.3H56L57.7 9l-2.7.2-1.6-.2-1.9.2L49 9l-1-.2q-4.3-.8-4.3-4.3 0-.8.9-1.7t2-1h.3zm1.7 1.4.3.3.9.6q-1 .2-1 .7 0 .8 2.6 1h1.2q2.4 0 2.4-.8l-2.1-.5-.9-.2h-.5l-.1-.8h2.8V3q.3-1.1 1.2-1.1h.1q1.4 0 2.7.8 1.6.9 1.6 2.2 0 2.4-3.7 2.8l2.9.9 1.5-1.2q1-1 1-2.8 0-2.7-5-3.5L51.5.5l.2 1.2h3V3h.1q3.8.3 3.8 1.6 0 1.6-4 1.6h-3.5Q47 5.8 47 4.6q0-.6 1.2-1.3z"/><path fill="#967338" d="M51.5 4.7 51.4.3v.3l.3 1.2L52 3l.1.9.3 1.5zm8.1 3.9 1 .2-1.4 8-.6-7-.9-.7L56 7.9l-.6-.5 1.3.3z"/><path fill="#7e6130" d="m60.7 8.8.4-.2-.8 5.5v.8q.1 7.4 1 13.2H61v3l-.9.5-.5.3-2 .7v-4l-2.1.4-1.6.1v-1.5l.2-4.7q-.3-5.3-.3-8.5v-1.6l.1-2.2 1.5-.2 3.1-.7.6 7.1.1 4.8v-4.8zm-1.5 17.8V23z"/><path fill="#8c6b35" d="m48.8 10.2 3.5.4H54l-.1 2.3v1.4q0 3.3.3 8.6l-.2 4.7v1.6h-1.5v2l-1-.1L50 31l-1.4-.2-1-.3v-.2l.2-1.2q1.3-9.9 1.3-12.1l-.3-3.1-.2-3.7z"/><path fill="none" stroke="#000" stroke-linecap="round" stroke-linejoin="round" stroke-opacity=".3" stroke-width="__RESOLUTION__" d="m51.4.3 1.5-.1 4.6.6q1.5.3 2.7.9 2.3 1.2 2.9 2.8v24.3l1.3-1-1.3 10.7v6.4l-.1.3m-2.5 2.3-.3.1-1.9.8-.2.1m-3.2.5-.3.1h-2.1m-4-.4-.4-.1-1.1-.4m-4-2.7-.4-.6V25.2L41.3 18l1.3-.6V4.6q.5-1.7 2.9-2.9l1.5-.6.5.4.9.7.8.7m.3.3.9.6 1.1.9-.1-4.4v.3m9.3 8.2.4-.2q1.6-1 2-2.3m-7.6 4.1 3.1-.7-.9-.6L56 7.9l-.6-.5m3.9 9.4v4.8m2 6.5.5-.5q1-.7 1.3-1.7M60.7 8.8l-1.5 8-.6-7m-9.8.4 3.5.4M54 29.1l1.6-.1 2-.4v4l2.1-.7.5-.2.9-.6v-3h.1m-13.5 2.4 1 .3 1.4.2 1.4.1h1v-2H54m-10-21 .7.5m7.7-3.1-.9-.8m-5.2 11.6v2.5m0 1v.6M44 8.1q-1.1-.8-1.4-1.8m1.5 18.5v7.8m1.3-7-1.2-.8m2.8 5.4v-4l-1.5-.6h0m1.5 4.6v2.4m.7-2.1-.7-.2m5.5 2.7v-1.9M44.2 36v3.2m0-11.4q-1.1-.9-1.5-2m18.5 5.3v7.5m2-9.9v9.8m-5.4-5.9v4.8M59.2 23v3.6m-16.6-1.4v-7.8" vector-effect="non-scaling-stroke"/><path fill="url(#b)" d="M69.8 45.5q-1.5 4.4-10.4 4.4-8.7 0-10.1-4.4V29h20.4z" transform="translate(-6.75 -.75)"/><path fill="#c29d5f" d="m17.6 21.8-2.4-.4-2.7-.3-3.5-.5-.6.3-.6.2q-5.4 1.1-5.4 3.7 0 2.8 3.9 3.9l-1.2 1H5L3.8 29l-.4-.2h-.1q-2-1.2-2.4-2.6v-1.7q.5-1.7 2.9-2.9 3.1-1.4 7.4-1.4h1.5q3 .2 5.4 1.3zM8 27.7q-3.3-.6-3.3-2.3 0-1.4 2-2.4 1.6-1 3.7-1.1l1.2-.2h.9l3 .5.9.3-2.7 1.3 3.9-.7q1.3.8 1.3 2 0 2.8-6.3 2.9h-1.8L9 27.7l1.5-2h1.2q2.8 0 2.8-1.1 0-.6-1.2-1l-1.1-.4H12l-1-.1-2 .1q-1.1.3-1.1.9 0 1.3 2.6 1.5zm4.9 1.8 2-.2q3-.4 4.3-1.8.9-1.1.9-2.9 0-1-.8-1.7l.8-.2q1.2.8 1.5 2v1.8q-.4 1.2-2 2.2l-.9.5Q17 30 15 30.5l-2 .2zh-.3l-2-.1-2.5-.2-.7 1.1 2.2.4h3.5zm-.3-2.4.1.9z"/><path fill="#cbab76" d="M6.3 28.7q-3.9-1-3.9-3.9 0-2.6 5.4-3.7l.6-.2.6-.2 3.5.4 2.8.3 2.3.4-1.3.6-1-.3-3-.5h-.8l-1.2.1Q8 22 6.6 23q-2 1-2 2.4 0 1.7 3.3 2.3zM17.5 23l.5-.1 1.1-.1q.8.7.8 1.7 0 1.8-1 2.9-1.2 1.4-4.1 1.8l-2.1.2-.2-1.5q6.3-.1 6.3-2.8 0-1.3-1.3-2.1m-5 4.9.2 1.5h-.3l-2-.1-2.5-.2 1-1.4 1.8.2zm-2.1-2.2q-2.6-.3-2.6-1.6 0-.7 1.1-.9l2-.1h1l.2.1 1.1.4q1.3.4 1.3 1 0 1.1-2.9 1.1z"/><path fill="#967338" d="m17.6 21.8.4-.2v1.3l-.5.1-3.9.7 2.7-1.3zM5 29.6l1.2-.9 1.5-1.1 2.6-2-1.5 2.1-1 1.4-.7 1.1-1.4 9.3z"/><path fill="#b08742" d="M.9 26.3q.4 1.4 2.4 2.6h.1l-.1 1.3.3 5.6.2 5v2.4l-.5-.2-.6-.5V44l-1.3-1.1-.4-.7-.1-.3z"/><path fill="#a07b3d" d="m3.4 28.9.4.2 1.2.5.8 9.9 1.4-9.2 2.2.3v.3l.3 5.2.4 4.8-.1 2.7.2 6.1H10l-1.7-.2-1.6-.3-1.3-.4-.2-4.8-.8-.2v-.3l-.6-.3v-2.4l-.2-5-.3-5.6zm16-.3q1.6-1 2-2.2v15.5q-.3 1-1.3 1.8-.7-3.8-.8-7.1v-2.4l.2-4.8z"/><path fill="#8c6b35" d="m12.9 30.6 1.8-.2.3 3.4-.1 2.6q-.2 3.8-.9 8.1h-.1l-.9.1-1.6.1v5h-1.2l-.2-6.1.1-2.7-.4-4.8-.3-5.2v-.3zv6.9z"/><path fill="#7e6130" d="M14.8 30.4q2-.4 3.7-1.3l.9-.5.1.8-.2 4.9v2.3q.1 3.3.8 7.1l-.2.1-1 .7-.3-2.5-.9.3V41l-2 .6-.8.2v2.5l-.9.1q.7-4.4.9-8.1v-2.6z"/><path fill="#554120" d="m21.4 40.9.9.4-.9 6.8zM.9 53.5l-.7-13 .7.3zm3.5-5v-4.7l.8.2.1 4.9zm13.3-6.2.9-.3.3 2.5h-.1l-.3.2-.4.2-.4.1z"/><path fill="#695127" d="M21.4 48.1v5.3l-.2-.6-.6-2.1-.6-5.4-.1-1.4.2-.2q1-.8 1.3-1.7zm0 11V65q-.2.8-1 1.5l-1.4 1h-.2l.3-6.1v-.1q-.2-1.2.3-2.8.3-1.4.5-1.4.4 0 1.5 2m-3.8 9-1.8.6v-.5l-.2-.5q-.2-.7-.2-1.9l-.1-3 .1-1.6.2-3.3-.6-6.1-.2-1.3-.9-5.5v-.5h.1l.9-.1v-2.5l.7-.1v.2q0 1.9.6 6 .2 2.3.4 2.3.4 0 1-1.6l.3-1 .3-1.5-.1-1.3.4-.2.3-.2v.4l.1.3-.1.9.3 5.9v.5q0 2.5-.7 6.1l-.5 2.8q-.4 2.7-.4 5.5zM15 47.4v-3zm3 8.4v-5z"/><path fill="#7b5e2d" d="M21.4 53.4v5.7q-1.1-2-1.5-2-.2 0-.5 1.4-.5 1.5-.3 2.8v.1l-.4 6.1-.1.2h-.1l-.7.3-.2.1-.1-.3v-.9q0-2.8.4-5.6l.5-2.6q.7-3.7.8-6.2V52l-.4-5.9.1-1V45l-.1-.4 1-.6.2 1.4.6 5.4.6 2.1zm-5.6 15.3-3.5.5q.8-3.2 1-8.1l.2-7-.2-2.6-.2-1.9v-2.5l-.1-2.5h.9v.4l.8 5.5.3 1.3.6 6.1-.2 3.3-.1 1.6v3q0 1.3.3 2l.2.4zm-6.5.5L8 69l-.5-.1.4-2 .2-6.1.2-7.2-.1-4.1 1.7.1-.1 1.4v4.2L9.7 67l-.3 1.7zM4.5 68l-.6-.3-1-.6v-.6l-.2-4.7v-1.2q-.2-3.4-.7-3.4l-1 2v-6.9l.4-.9.3-1.8v-1.4l-.2-3 .2-1.5-.2-.8L2.7 44v-1.5l.6.5.2 1.3L4 50l.2 2.8v.1l.5 7.8.1 3.5q0 2.1-.3 3.3zM2.7 48.4v-1.5zm0-2.3V44zm2.7 2.8 1.3.3.1 1.3L7 55q0 2.1-.7 2.9-.7-2-.8-5.2zm12.2-6.6V45l.2 2.6-.3 1q-.6 1.6-1 1.6-.2 0-.4-2.2-.6-4.2-.6-6.1v-.2l2.1-.7zM2.7 55v-.7z"/><path fill="#8d6c34" d="M12.3 69.2h-3l.1-.5.3-1.7.2-11.8V51l.1-1.4.2.1h1.2v-5H13l.1 2.4v2.5l.2 1.9.2 2.6-.1 7q-.3 4.9-1.1 8zm-4.7-.3-1.8-.5-1.4-.5.1-.4q.3-1.2.3-3.3l-.1-3.6-.5-7.7v-.1L4 50l-.5-5.7-.2-1.3.5.2.6.3v5l-.2 4.3.2-4.3 1 .4v.6l.1.8v2.4q0 3.1.8 5.2.7-.8.7-2.9l-.2-4.5-.1-1.3 1.6.3v4.1l-.1 7.2-.2 6.1zm-4.8-1.8-1.4-1.2-.5-1v-5.8l1-1.9q.5 0 .7 3.3v1.3l.2 4.7zM.9 41.9l.1.3.4.7.2.8-.2 1.5.2 3v1.4l-.4 1.8-.3.9zM17.7 45l.4-.1v1.3l-.2 1.5zm-6.3 8v-3.3zm.1 6v10.2z"/><path fill="none" stroke="#000" stroke-linecap="round" stroke-linejoin="round" stroke-opacity=".3" stroke-width="__RESOLUTION__" d="M18 21.6q-2.3-1.1-5.3-1.3h-1.5q-4.3 0-7.4 1.4-2.4 1.3-2.9 3v1.7q.4 1.4 2.4 2.6m14.2-6 .5-.1v-1.3m-4.4 2.1 3.9-.7m-5 4.9.2 1.5.2 1.2v6.9M19 22.8l-1.1.1m3.4 3.5v-1.8q-.3-1.2-1.5-2l-.8.1m-8.7 3-1.5 2-1 1.4-.7 1.1 2.2.4m3.1-2.7-.1-1m7 1.7q1.6-1 2-2.2v14.5l.9.4-.9 6.8V65q-.2.8-1 1.5m-1.4 1h-.2m-.2.2h-.1l-.7.3m-5.6 1.2H10M8 69l-.5-.1-1.8-.5m-4.4-2.6L.9 65V53.5l-.7-13 .7.3V26.3m9.3 23.4h1.2v-5H13l.9-.2h.1l.9-.1v-2.5l.7-.1 2.1-.7v1.3M7.2 30.3l-1.4 9.2m-4.4 3.4-.4-.7-.1-.3v11.6m.5-10.6L2.7 44v-1.5l.6.5.5.2h0l.6.3v.2M1 41.9v-1.1m1.8 6v1.6m0-4.4v2.1m1.7 2.4v-4.7m1 5 1.3.4 1.6.3 1.7.1.2.1m-6 3.1.2-4.3 1 .4M20 43.7q1-.8 1.3-1.7v-1.1m-3.7 1.9v2.3l.4-.2.4-.2.3-.2h0l1-.6.3-.2m-2.2 4-.2-2.7m-2.8-.6v3m6.5.7V42m-3.5 8.8v5m-6.5-6.1V53m-8.7 1.3v.8m8.8 14.1V59" vector-effect="non-scaling-stroke"/><path fill="#8d6c34" d="m16.3 35.7 3.6-.7q.5.4.7 1.5l-3.5.8q-.2-1.2-.8-1.6"/><path fill="#554120" d="M16.3 35.7q.6.4.8 1.6v1.5L15 40.2q.2-4.8 1.4-4.5"/><path fill="#695127" d="m17.1 37.3 3.4-.7v2.6l-1.6.4.1-2-.8 2-.3.1-.8.3v-1.2.5q-.4.3-1 1.3-.7 1.1-.7 1.4v.1l-.5.1v-2l2.2-1.5z"/><path fill="#7b5e2d" d="M17.9 39.7v1.8l-2.4.6-.1-.1q0-.3.7-1.4l1-1.4v.8z"/><path fill="none" stroke="#000" stroke-linecap="round" stroke-linejoin="round" stroke-opacity=".3" stroke-width="__RESOLUTION__" d="M20.6 36.6q-.2-1.2-.7-1.6l-3.6.7q.6.4.8 1.6h0V40l.8-.3.3-.1.8-2v2l1.5-.4zM18 39.8v1.8m-3 .8v-2.1q.2-4.8 1.4-4.5" vector-effect="non-scaling-stroke"/><path fill="url(#c)" d="m28.1 49.2.1 16.4Q26.8 70 17.9 70T7.7 65.5V49.3z" transform="translate(-6.75 -.75)"/></g><g id="i" fill="#002e00" fill-opacity=".2"><path d="M117.8 8.7q.3 1.3-7.9 5.5-2.2 1.3-6 2.3l-12.2.8q-8.9-.5-18 1.3l-14.3.2h-8.1l-30.6-2.4-7.4-.3q-6.3-.2-11-4.8Q.2 9.6 0 7.4t12.2-4.3q1.8-.6 5-1l14-.7q9.8.5 19.1 0l12.2-1 22.5.9 9.6 1 16.6 3q6.1 2 6.5 3.4"/><path d="M114.6 8.7q.3 1.2-7 4.9-2 1.2-5.4 2.1l-11 .7q-7.9-.4-16 1.2l-13 .2-7.2-.1-27.4-2-6.7-.3q-5.6-.2-9.8-4.4-2-1.4-2.2-3.5 0-2 11-3.8 1.7-.6 4.5-1L37 2.3q8.8.3 17.1 0l10.9-1 20.2.8 8.6 1 15 2.7q5.5 1.7 5.8 3"/><path d="M101.4 9q.2 1-5.6 3.9-1.5.9-4.2 1.7L83 15q-6.2-.3-12.6.9l-10.2.1h-5.7L33 14.5l-5.2-.2q-4.4-.2-7.7-3.5-1.5-1.1-1.6-2.7t8.6-3l3.5-.7 9.9-.5q6.9.4 13.4 0l8.6-.7 15.8.6 6.8.8 11.7 2.1Q101 8 101.3 9"/><path d="M99.6 6.7q4.4 1.4 4.7 2.3.2 1-5.6 3.9-1.5 1-4.2 1.6l-8.6.6q-6.2-.3-12.6.9l-10.1.1h-5.7L36 14.6l-5.2-.2q-4.4-.2-7.8-3.4-1.5-1.2-1.6-2.7Q21.3 6.5 30 5l3.5-.7 9.9-.5q6.9.3 13.4 0l8.5-.7 15.9.6 6.8.8z"/></g><g id="h"><path fill="#362205" d="M27.5 11.2q2.4 1 13.3 3.5l-.2 2.9q-7.9-3.3-15.3-3.3l-6.3.3z"/><path fill="url(#e)" d="M32.1 28.9q-7 2.9-14 6.1l-2.7-3.4Q38.8 24.4 53 14.8v6.3q-6.1 2-12.4 4.4z" transform="translate(-13.1 -14.3)"/><path fill="none" stroke="#ec9f2d" stroke-linecap="round" stroke-linejoin="round" stroke-opacity=".5" stroke-width="1" d="M2.3 17.3Q25.5 10 40 .4"/><path fill="#172f00" fill-opacity=".3" d="M44.8 29.5q-20.3 8-39.9 20.8L0 47.8q22.5-9.5 41.7-21.1z"/><path fill="#172f00" fill-opacity=".3" d="M49.8 34.2Q26.9 41 10 54.3l-5.6-3.5Q23.5 43.4 44 29.4z"/></g><radialGradient id="a" cx="0" cy="0" r="819.2" gradientTransform="matrix(.05 0 0 .05 43 31.2)" gradientUnits="userSpaceOnUse" spreadMethod="pad"><stop offset=".5" stop-color="#b07e08"/><stop offset="1" stop-color="#4e3107"/></radialGradient><radialGradient id="e" cx="0" cy="0" r="819.2" gradientTransform="matrix(.03 0 0 .03 36 25.9)" gradientUnits="userSpaceOnUse" spreadMethod="pad"><stop offset=".3" stop-color="#7f520c"/><stop offset=".7" stop-color="#362205"/></radialGradient><linearGradient id="c" x1="-819.2" x2="819.2" gradientTransform="matrix(0 -.02 .01 0 18.35 67.15)" gradientUnits="userSpaceOnUse" spreadMethod="pad"><stop offset="0" stop-color="#000" stop-opacity="1"/><stop offset="1" stop-color="#000" stop-opacity="0"/></linearGradient><linearGradient id="b" x1="-819.2" x2="819.2" gradientTransform="matrix(0 -.02 .01 0 59.9 47.05)" gradientUnits="userSpaceOnUse" spreadMethod="pad"><stop offset="0" stop-color="#000" stop-opacity="1"/><stop offset="1" stop-color="#000" stop-opacity="0"/></linearGradient><clipPath id="g"><path d="M1 1h78v74H1z"/></clipPath><path id="f" fill="#fff" fill-opacity=".2" d="M36.9 3.2q6.4 3.1 6.4 7.6t-6.4 7.6q-6.3 3.3-15.2 3.3-9 0-15.3-3.2T0 10.8t6.4-7.6Q12.6 0 21.5 0q9 0 15.3 3.2"/><use xlink:href="#f" id="k" width="43.3" height="21.6"/></defs><g clip-path="url(#g)"><g transform="translate(38.6 53.95)"><use xlink:href="#h" width="49.8" height="54.3" transform="matrix(-1 0 0 1 26.9 -38.65)"/><use xlink:href="#i" width="117.8" height="18.8" transform="matrix(.3004 -.0055 0 .758 -37.6 -13.95)"/><use xlink:href="#i" width="117.8" height="18.8" transform="matrix(.3004 -.0055 0 .758 4.6 6.2)"/><use xlink:href="#j" width="64.6" height="69.4" transform="matrix(-1 0 0 1 33.25 -52.2)"/><use xlink:href="#k" width="43.3" height="21.6" filter="url(#filter-object-4)" style="mix-blend-mode:hard-light" transform="matrix(-.4466 0 0 .4466 31.95 -33.5)"/><use xlink:href="#k" width="43.3" height="21.6" filter="url(#filter-object-6)" style="mix-blend-mode:hard-light" transform="matrix(-.4466 0 0 .4466 -10.15 -52.95)"/><use xlink:href="#l" width="66" height="61" transform="matrix(-1 0 0 1 35.7 -43.2)"/></g></g></svg>