<svg xmlns="http://www.w3.org/2000/svg" xmlns:xlink="http://www.w3.org/1999/xlink" width="137" height="72" viewBox="0 0 137 72"><defs><g id="g"><path fill="#3c3a2f" d="m63.6 16.2-4.7 2.4-18.5-9.7L45 6.4l8.8 4.6z"/><path fill="#484637" d="m58.9 18.6-.6.3-4.1 2.1L26.9 6.8l4.7-2.5 8.8 4.6zm-13.8-3.1"/><path fill="#4e4b3d" d="m54.2 21-4.7 2.5-36-18.9 2.1-1.1 2.5-1.3L27 6.7z"/><path fill="#595746" d="m49.6 23.5-4.7 2.4L0 2.5l2.3-1.2L4.7 0l8.8 4.6z"/><path fill="#292821" d="m53.8 11 4.7-2.4 9.8 5.2-4.7 2.4z"/><path fill="none" stroke="#000" stroke-linecap="round" stroke-linejoin="round" stroke-width="__RESOLUTION__" d="m63.6 16.2-4.7 2.4-.6.3-4.1 2.1-4.7 2.5-4.6 2.4L0 2.5l2.3-1.2L4.7 0l8.8 4.6 2.1-1.1 2.5-1.3L27 6.7l4.7-2.4 8.8 4.6L45 6.4l8.8 4.6 4.7-2.4 9.8 5.2zL53.8 11m.4 10L26.9 6.8m32 11.8L40.4 8.9m-27-4.3 36.1 18.9" vector-effect="non-scaling-stroke"/></g><g id="f" fill-opacity=".5"><path fill="#333" d="M19.6 2.8q1.8-2-2.6-1-2.8.6-4.7 3.3-1.4 2-1.2 4 1.1-.8 1-.1-.1.4 0 .8l.1.1v2q3.5 1.5 6.2-2.8.9-1.4 2.8-1.4 2.3 0 3.9-1.8zm1.6 9v-.6l-1.5.9v.5q-.1 1.6.1 3t.6 1.7 1-2.6l2 .6q1.6-2.4-.5-3.8zM9 11.2Q4.1 8.7 2 14l-.2 1.7 7.1.4zm-9 2.5L4.5 10l4.4-.8-2-.6H10Q11.9.5 20.8 0L28 4.1l-2.9 5.5q2.8 3.6.1 7.6 1 1 1.1 2.5.4 8.2-6.5 6.3l-.1.2-1.3-.7.1-.7-1.9-.7-.6.1-1.6-.9 2.2-1.3 1.8-.7.1-4.1-3.2 3.2q-2 2.3-.5 1.5h.1l-1.2 1-1.5-.8h.4l.3-.6.3-.5q-.3-.7-1.1-.6h-.4l-.7.2-.2.8-5-2.8L9 19.7l1.5-.7.8 1.4 1-2.1 3.2.8 1.2-1.6-.2-1.7-2.3-.6h-.5l-.2.1-2.2 1.1-.7 1.7-5.3.3L0 15.5zm16.5 10.5-.2.2-.1-.1zm4.5-1.6q1.5 2.8 3.3-1l.3-.6q-1.2-3.6-3.4-1.7l-1.3 2.6z"/><path fill="#999" d="M12.2 11.9v-2l-.1-.1q-.1-.4 0-.8.1-.7-1 .1-.2-2 1.2-4 1.9-2.7 4.8-3.2 4.3-1.1 2.5.9l-3.4 2.9-.8.6-1.1 4q-.5 2.1-2.1 1.6m9.2 2.8q-.7 2.9-1 2.6-.4-.4-.6-1.7-.2-1.4-.1-3V12l1.6-.9-.1.6-.1 1.3zM2 14q2.1-5.3 7-2.8zm-2-.3v-1.2L5.7 9l1.1-.4 2.1.6-4.4.8zM16.6 24h-.2l-.2.2-.2-.1zm-1.3-3.7L17 20l-2 1.8h-.2q-1.5.8.5-1.5M10.6 19v-.9l.8-1.7 2.2-1.1h.3l.4-.1-1.9 3.1-1 2zm10.6.3.5-.1q1.5 2.4-.7 3.4l-1.1-.7z"/></g><g id="d" fill-opacity=".2"><path fill="#333" d="M21.3 2.8q1.8-2-2.6-1-2.8.6-4.7 3.3-1.4 2-1.2 4 1-.8.9-.1v.8l.2.1v2q3.4 1.5 6.1-2.8.9-1.4 2.8-1.4 2.3 0 4-1.8zm1.6 9 .1-.6-1.6.9v.5l.1 3q.3 1.3.6 1.7t1-2.6l2 .6q1.6-2.4-.5-3.8zm-12.1-.6q-5-2.5-7 2.8l-.3 1.7 7.2.4zm-9 2.5L6.3 10l4.4-.8-2.1-.6h3.2Q13.6.5 22.4 0l7.3 4.1-2.9 5.5q2.7 3.6.1 7.6 1 1 1 2.5.5 8.2-6.4 6.3-2.8 5.8-8.2 5.4L12 32l-1.7-1.2 1.2-1.7.7-2.6.5 1.9q1.3-4.5 5.6-6.4l1.7-.7.1-4.1-3.1 3.2q-2 2.3-.5 1.5h.1l-2.7 2.3-.6-1.8-1.1 1.8-.2-.1v.1l-2.5 3.6.3 1.6q-1.2 3-5.2 3.7l-1.4-.4-1.6.8.3-.7q.2-.3.6-.4L0 28l1.7-4.5 2.5-2.2L4 21q-1.2-.9-2.4 0zM5 22.9l2.2-1.5-2.5.8L3.5 25l-1.1 2.9 1.8 2.8 2.1-.3 1.5-6zm7.4-4.8-5.5.3 3.9 1.3 1.6-.7.8 1.4 1-2.1 3.1.8 1.2-1.6-.1-1.7-2.3-.6h-.5l-.2.1-2.3 1.1zm2.3 3.4.3-.5q-.3-.7-1.2-.6h-.3l-.7.2q-.4.4-.1 1l.2.5h1.4zm3 3.1.1-.2.4-.2zm.6-.5q-1.3 0-2.2 1.4-1 1.5-1 3.6l4.7-2.6.4-1.7zm4.4-1.5q1.5 2.8 3.3-1l.3-.6q-1.2-3.6-3.4-1.7l-1.3 2.6z"/><path fill="#999" d="M13.9 11.9v-2l-.2-.1V9q.2-.7-1 .1-.1-2 1.3-4 1.8-2.7 4.7-3.2 4.4-1.1 2.6.9l-3.5 2.9-.8.6-1 4q-.5 2.1-2.2 1.6m9.2 2.8q-.7 2.9-1 2.6-.4-.4-.6-1.7V12l1.5-.9v.6l-.2 1.3zM3.7 14q2-5.3 7-2.8zm-2-.3v-1.2L7.3 9l1.2-.4 2.1.6-4.4.8zm8.6 17.1-8.6 7v-4.3l1.5-.7 1.4.3q4-.7 5.2-3.7l-.3-1.6 2.5-3.6h.2l1.2-1.8.5 1.8-1.7 2.4-.7 2.5zm-8.6-7.3V21q1.1-.9 2.4 0v.1zM3.5 25l1-2.8 2.6-.8-2.2 1.5zm13.2-3.1h-.1q-1.5.8.5-1.5l1.6-.3zm-4.3-3.8.7-1.7 2.3-1.1h.2l.5-.1-1.9 3.1-1 2-.8-1.3zm5.8 6-.4.3v.2l-1.1 1.1-.1.1-1.5 3.3q0-2.1 1-3.6.9-1.4 2.3-1.4zm4.7-4.9h.5q1.5 2.4-.7 3.4l-1-.7z"/></g><g id="c" fill-opacity=".5"><path fill="#333" d="M21.3 2.8q1.8-2-2.6-1-2.8.6-4.7 3.3-1.4 2-1.2 4 1-.8.9-.1v.8l.2.1v2q3.4 1.5 6.1-2.8.9-1.4 2.8-1.4 2.3 0 4-1.8zm1.6 9 .1-.6-1.6.9v.5l.1 3q.3 1.3.6 1.7t1-2.6l2 .6q1.6-2.4-.5-3.8zm-12.1-.6q-5-2.5-7 2.8l-.3 1.7 7.2.4zm-9 2.5L6.3 10l4.4-.8-2.1-.6h3.2Q13.6.5 22.4 0l7.3 4.1-2.9 5.5q2.7 3.6.1 7.6 1 1 1 2.5.5 8.2-6.4 6.3-2.8 5.8-8.2 5.4L12 32l-1.7-1.2 1.2-1.7.7-2.6.5 1.9q1.3-4.5 5.6-6.4l1.7-.7.1-4.1-3.1 3.2q-2 2.3-.5 1.5h.1l-2.7 2.3-.6-1.8-1.1 1.8-.2-.1v.1l-2.5 3.6.3 1.6q-1.2 3-5.2 3.7l-1.4-.4-1.6.8.3-.7q.2-.3.6-.4L0 28l1.7-4.5 2.5-2.2L4 21q-1.2-.9-2.4 0zM5 22.9l2.2-1.5-2.5.8L3.5 25l-1.1 2.9 1.8 2.8 2.1-.3 1.5-6zm7.4-4.8-5.5.3 3.9 1.3 1.6-.7.8 1.4 1-2.1 3.1.8 1.2-1.6-.1-1.7-2.3-.6h-.5l-.2.1-2.3 1.1zm2.3 3.4.3-.5q-.3-.7-1.2-.6h-.3l-.7.2q-.4.4-.1 1l.2.5h1.4zm3 3.1.1-.2.4-.2zm.6-.5q-1.3 0-2.2 1.4-1 1.5-1 3.6l4.7-2.6.4-1.7zm4.4-1.5q1.5 2.8 3.3-1l.3-.6q-1.2-3.6-3.4-1.7l-1.3 2.6z"/><path fill="#999" d="M13.9 11.9v-2l-.2-.1V9q.2-.7-1 .1-.1-2 1.3-4 1.8-2.7 4.7-3.2 4.4-1.1 2.6.9l-3.5 2.9-.8.6-1 4q-.5 2.1-2.2 1.6m9.2 2.8q-.7 2.9-1 2.6-.4-.4-.6-1.7V12l1.5-.9v.6l-.2 1.3zM3.7 14q2-5.3 7-2.8zm-2-.3v-1.2L7.3 9l1.2-.4 2.1.6-4.4.8zm8.6 17.1-8.6 7v-4.3l1.5-.7 1.4.3q4-.7 5.2-3.7l-.3-1.6 2.5-3.6h.2l1.2-1.8.5 1.8-1.7 2.4-.7 2.5zm-8.6-7.3V21q1.1-.9 2.4 0v.1zM3.5 25l1-2.8 2.6-.8-2.2 1.5zm13.2-3.1h-.1q-1.5.8.5-1.5l1.6-.3zm-4.3-3.8.7-1.7 2.3-1.1h.2l.5-.1-1.9 3.1-1 2-.8-1.3zm5.8 6-.4.3v.2l-1.1 1.1-.1.1-1.5 3.3q0-2.1 1-3.6.9-1.4 2.3-1.4zm4.7-4.9h.5q1.5 2.4-.7 3.4l-1-.7z"/></g><g id="b"><path fill="#333" d="M101.1 18q-4.3-.9-7.8 1.6Q88 23.3 88 32.5v19.7l-6 3v.1l-.8.5V0l53.7 28-1.5.7h-.2l-12.8 6.8-1.5-2.6q-5.3-9.3-12.8-13.1-2.6-1.4-5-1.9"/><path fill="#252525" d="M88 52.2V32.5q0-9.2 5.3-12.9 3.5-2.5 7.8-1.7-3.2 3.9-3.2 11V47z"/><path fill="#666" d="M81.2 0v55.8l-.4.2-1.5.7h-.1L77 58l-9.8-5.1-4.7 2.4-8.7-4.6-4.7 2.4-8.7-4.5-4.7 2.4-8.8-4.6-2.5 1.3-2.2 1.1-8.7-4.6-2.5 1.3-2.2 1.2L0 42z"/><path fill="none" stroke="#000" stroke-linecap="round" stroke-linejoin="round" stroke-width="__RESOLUTION__" d="M88 52.2V32.5q0-9.2 5.3-12.9 3.5-2.5 7.8-1.7 2.4.5 5 1.9 7.5 3.8 12.9 13l1.3 2.7 13-6.7.1-.1 1.5-.7M81.2 0v55.8l.8-.5h0l6-3.1 9.9-5.2V29q0-7.1 3.2-11" vector-effect="non-scaling-stroke"/><path fill="none" stroke="#000" stroke-linecap="round" stroke-linejoin="round" stroke-width="__RESOLUTION__" d="m97.9 47 8.3-4.2.1-.1 1.5-.7 1.3-.7h0l11.3-5.8M81.1 55.8l-.4.2-1.5.7h-.1L77 58M8.8 46.6 0 42" vector-effect="non-scaling-stroke"/></g><clipPath id="a"><path d="M1 1h135v70H1z"/></clipPath><path id="e" fill="#000" d="m80.9 0-1.6.7h-.1l-8.3 4.4v-18.2q0-7.1 3.2-11 2.4.5 5 1.9 7.5 3.8 12.9 13l1.3 2.6-11.2 6z" transform="translate(-70.9 24.05)"/></defs><g clip-path="url(#a)"><g transform="translate(28 43)"><use xlink:href="#b" width="134.9" height="70" transform="translate(-27 -42)"/><use xlink:href="#c" width="29.6" height="37.9" transform="translate(28.15 -16.85)"/><use xlink:href="#c" width="29.6" height="37.9" transform="translate(26.75 -40.35)"/><use xlink:href="#d" width="29.6" height="37.9" transform="matrix(-1 0 0 1 83.95 -38.35)"/><use xlink:href="#e" width="22.4" height="29.1" transform="translate(70.9 -24.05)"/><use xlink:href="#f" width="28" height="26.3" transform="translate(-21.3 -13.6)"/><use xlink:href="#f" width="28" height="26.3" transform="translate(4.3 -3.65)"/><use xlink:href="#c" width="29.6" height="37.9" transform="translate(1.25 -27.15)"/><use xlink:href="#g" width="68.3" height="25.9" transform="translate(-18.25 2.15)"/></g></g></svg>