<svg xmlns="http://www.w3.org/2000/svg" xmlns:xlink="http://www.w3.org/1999/xlink" width="116" height="59" viewBox="0 0 116 59"><defs><clipPath id="a"><path d="M1 1h114v57H1z"/></clipPath><g id="b"><path fill="#fff" fill-opacity=".5" d="m112.6 55.6 11.3 1.6q19.9 3.4 25.1 7.1 1.1 3.1 2.9 6l.4.9q14.8 3.4 29.4 5.7 7.9 1.3 11.8 7.2l-.9 1.1q-.3.3-.8.4-5.5-3.1-11.6-5l-28.6-5.4-4.5-.8q-9.2 2-18.2 2.4 9.3 3.9 18 9.3l-.2-.2.2-.7.6-.9 1.2-.3v-.2q3 2.9 6.2 5l1.8-.2h.6l10.9.3 9-.8-6 1.8q4 1.7 7.4 5.1l.8.8 4.7-.4 16.8-2h.3l3.6-1-2.1 1.5q-2.4 1.7-5.1 2.8l15.4.1 17.3-.7-10.6 2.5q-19.2 3.8-38.9 2.3-3-.3-5.4-1.5h-.4q14.8 11.2 32.8 11.9 5.8.2 11.2-1.7-2.1 2.1-5.5 3l-.2.8-.3.7q-18.2 5-34.2-5.8l-4.4-2.7q-4.2-2.2-5.1-6.7l-3.4-.4-2.3-.4-7.5-.7q-5.7-.7-10.1-4.7l-2.5-2q-5.2-1-10.4-3-5.4-2-9.8-5.9l-3.3-3.3-3.9-2.1-1-.1-3.9-.5q-9.3-1.5-11.4-8 2.8 1.2 5.8 2h.1v-.2l6.9 1.7 4.8.5.3-2v-.7l4.3-4.2h1.3l.7.7q-1.8 2.8-2 6v.3h.8q5.2-.2 10.3.1l-5.6-.2-3.2-.2q6-.1 11.5-2.2l3.1-.1 4.8-.2 7.6 1.9q-4.6-6.8-13.7-9l-1.5-.3q-1.2-1.9-11-3.9zM43.2 22.4h-6.4q-76.6-44.7 6.4 0m18.3 14.4-8-4.7H57v-2.3l16.2 8.8zm12.2 2.1.3-.1.7-.2v-.1l1.5.6.1.1h-.1v.1h.4l.4.4-.3.6v.1l-.5.5zq-1.1.5-1.7 1.6l-1 1.9 3.5 3q.4-2 1.3-4.2l.4-.3zm4.6 3.5.5-1.4 1.7-1 1.4.4.6.6q.7 1.4.7 3v.7l-.4 1.4q-.9 2.7-1.2 5.5l-.1.3-.2 1.9V55q7 7.3 15.5 11.4-16.8-.7-23.5-10.2-1.7-2.4-2.7-5.3-1.6-4.5.4-8.7l3.5 3q-1.2 6.4 2.5 11.4-1.1-2.5-.8-5.4V49l.6-.7.4-.7 4.4 3.8-1.5.2 1.4.1-1.4-.1 1.5-.2-4.4-3.8v-.1q-.2-2.7 1-5.1zl1 1 3.5 2.8-3.5-2.8zm46.8 15.5q9.8 2 11 3.9-5.8-1.5-11-3.9M76.3 39.2l.4 1zm21-1.6q1.1-1.9 3.5-1.4v-.1q9.6 2.5 18.1 7.6l.4.4q-10.3-3-21.3-5l-.6-.8zm-18 5.7-1.1-.8zm41 8 .2.8-10.3.3q0-2 2.3-2.6l1.3-.4 4.9.9 1.3.3zm48.9 43.5-1.4-.5-3.4-.8z"/><path fill="none" stroke="#fff" stroke-linecap="round" stroke-linejoin="round" stroke-opacity=".5" stroke-width="10" d="M151.6 75.2q23.6 10.5 49.3 18.2m1.8.5 10.3 3m6.7 1.7 1 .3M61.6 36.7l-8-4.7m19.7 6.5.3.1.2.1 2.5 2 2 1.7 1.1.8-1-1-1.6-2.1-.4-1-.1-.2M81.5 52l31.1 3.7 12.5 2.2q9.8 2 11 3.9 2.1 3.4 2.8 7.6M61.5 36.8h.1l9.4 5.5 3.5 3 2.7 2.4 4.4 3.8-1.5.2 1.4.1m-2.2-8.5 3.5 2.8"/></g></defs><g clip-path="url(#a)"><use xlink:href="#b" width="230.3" height="115.7" transform="translate(1 1)scale(.491)"/></g></svg>