<svg xmlns="http://www.w3.org/2000/svg" xmlns:xlink="http://www.w3.org/1999/xlink" width="49" height="41" viewBox="0 0 49 41"><defs><g id="g"><path fill="#885b2d" d="M3 6.5h-.2q-1.4 0-2.1-.7l-.1-.2Q.1 5.1 0 4.4v-.7l.3-1q.2-.7.9-1.5l.7-.6L3.3.4l2.1.8.4.2h-.5q-.6.1-1.5 1.4T2.6 5 3 6.5"/><path fill="#db8383" d="m5.8 1.4.6.2q.5.3.5 1.2t-.7 2L4.8 6.3q-.9.5-1.6.3L3 6.5Q2.4 6 2.6 5t1.2-2.2 1.5-1.4z"/><path fill="none" stroke="#2b1e12" stroke-linecap="round" stroke-linejoin="round" stroke-opacity=".6" stroke-width="__RESOLUTION__" d="M.6 5.8q.8.8 2.2.7h.3q.7.3 1.6-.2l1.5-1.5q.7-1.1.7-2 0-1-.5-1.2l-.6-.2-.4-.2-2-.8-1.5.1" vector-effect="non-scaling-stroke"/><path fill="none" stroke="#000" stroke-linecap="round" stroke-linejoin="round" stroke-opacity=".5" stroke-width="__RESOLUTION__" d="m5.8 3.4-.1.6M4 4.2v.6" vector-effect="non-scaling-stroke"/></g><g id="h"><path fill="#9e927a" d="M10.1 2.3q1.4 1.5 1.4 3.5 0 2.2-1.6 3.8T6 11.2Q3.8 11 2.2 9.6T.5 6.2L.7 6q1.4 1.8 3 2.3h2.8q1.2-.3 3.1-2 1.9-1.8.4-4z"/><path fill="#dbdbdb" d="M10.1 2.3q1.5 2.3-.4 4T6.5 8.5H3.7Q2 7.9.7 6H.5v-.3Q.5 3.5 2.2 2 3.7.4 6 .4T9.9 2z"/><path fill="none" stroke="#1d2c2f" stroke-linecap="round" stroke-linejoin="round" stroke-opacity=".3" stroke-width="1" d="M.5 6.2Q.7 8 2.2 9.6T6 11.2t3.9-1.6 1.6-3.8q0-2-1.4-3.5l-.1-.1-.1-.2Q8.2.5 6 .5T2.2 2 .5 5.9v.4"/><path fill="none" stroke="#2b1e12" stroke-linecap="round" stroke-linejoin="round" stroke-opacity=".6" stroke-width="1" d="M8.9 6.6 5.2 3.8m3.1-.7L5.8 7.4"/></g><g id="i"><path fill="none" stroke="#2b1e12" stroke-linecap="round" stroke-linejoin="round" stroke-opacity=".6" stroke-width="1" d="m4.8 6-.3.5q-.7 1.2-1.6 1.2T1.2 6.5Q.7 5.8.6 4.8L.5 4q0-1.6.7-2.6l.7-.8"/><path fill="#885b2d" d="M5.2 3.9v1l-.2.5-.2.6-.3.5q-.7 1.2-1.6 1.2T1.2 6.5Q.7 5.8.6 4.8L.5 4q0-1.6.7-2.6l.7-.8.5-.2.3-.1h.1q.7 0 1.3.4l.4.7.3.4z"/></g><g id="a" fill="none" stroke="#2b1e12" stroke-linecap="round" stroke-linejoin="round" stroke-width="__RESOLUTION__"><path stroke-opacity=".4" d="M.3 4 1 2.5l1-1.2Q4-.4 6.1.5q2 1 3.5 2.4 1 1.2 1.3 2.4" vector-effect="non-scaling-stroke"/><path stroke-opacity=".6" d="M10.9 5.4v1l-.3 1.2q-.5 1.2-1.5 2-1.7 1.2-3.7.7-2.2-.6-3.5-1.9Q.6 7 .3 5V4" vector-effect="non-scaling-stroke"/></g><g id="j"><path fill="none" stroke="#2b1e12" stroke-linecap="round" stroke-linejoin="round" stroke-opacity=".6" stroke-width="1" d="M2.3.6Q-.5 2.9 1 7l1 2.8 1.4-1.3 1.1 1.3Q8.9 4.6 6.4.4"/><path fill="#684023" d="M2.3.6h4q2.6 4-1.7 9.3L3.5 8.5 2.1 9.8 1.1 7Q-.5 2.9 2.3.6"/></g><g id="w"><path fill="#c2af61" d="M24.7 4.2 28.8 0l1.8.7L25 6.4l-3.9 4H21l-1.7-.6 4-4 .4.1.1-.7.3-.2zM.1 27.1 0 25.2l3.6-2.9 1.6-.4h1.4zm5.7-6.5 2.5-2 1.5.8-2.4 1.9h-.1zm6.3-4.8 5.8-4.7.7.3.9.2-5.2 4.2v.1l-.6.4-.1.1zM25 6.4 23.7 6z"/><path fill="#795e2f" d="M30.7.7V15l-5.8 3-2.5 1.3h-.1L21 20l-.8.5H20l-.1.1-.1-7.9 1.1-2.3h.1l3.9-4zM17.5 21.8h-.1l-3.8 2-6.3 3-7.2 3.4q.3-1.3 0-3V27l6.5-5.2v-.1l.7 1v-1.5l2.4-2 .2.1q-.8 5.2.9 5t2.8-1.3q1.6-1 1.6-3.6t-1.7-3.2v-.1l.6-.4 5.2-4.3v9.4h-.1l-1 .5-.3.2zM12 16.1v-.3l1.4.5v.4l-.3-.2zM24.9 18V6.5zm-11.3 5.8V23zm-6.3 3.1v-4z"/><path fill="#7d1d04" d="M21 20q.4.7 1.4.8 1.1-.3.9 1-2.5 2.5-5.8 0l.4-.2.4-.2.9-.4.1-.1v-7.4l.4-.8.2 7.9.3-.1zm-8-3.5.3.2.2.3v6q-1.1 1-2.8 1.3-1.7.2-1-5h-.1l.3-.3 3.1-2.4m.5 6.5v-6.2l-.2-.2v-.4h.1q1.7.6 1.7 3.2 0 2.5-1.6 3.6"/><path fill="#685128" d="M5.8 21.9v-1.2l1.4.6h.1v1.5l-.7-1z"/><path fill="#ca2c07" d="M8.2 18.7v-.2l.2.1 3.1-2.6h.1l1.5.6-3 2.4-.1.1-.3.3zm11.1-6.3.4.3-.4.8z"/><path fill="#9c783d" d="m18.4 11.3.8-1.5 1.7.5-1.1 2.3-.1.1-.4-.3v-.9z"/><path fill="none" stroke="#e2e3a6" stroke-linecap="round" stroke-linejoin="round" stroke-width="__RESOLUTION__" d="M24.7 4.2 28.8 0M0 25.2l3.6-2.9 1.6-.4h.5m5.9-5.9.4.1m-.1-.4 5.8-4.7m.7.3.8-1.5 4-4m.4.1.1-.7.3-.2m0 0 .6-.7" vector-effect="non-scaling-stroke"/><path fill="none" stroke="#000" stroke-linecap="round" stroke-linejoin="round" stroke-opacity=".3" stroke-width="__RESOLUTION__" d="m28.8 0 1.8.7h.1V15l-5.8 3-2.5 1.3m-.1 0L21 20m-3.5 1.8h-.1l-3.8 2-6.3 3-7.2 3.4q.3-1.3 0-3V27H0h.1L0 25.2m5.8-3.3v-1.2l1.4.6h.1-.1m4.8-5.2v-.3M30.7.7l-5.8 5.7V18m0-11.5L21 10.4h-.1l-1.1 2.3h-.1 0m1.2-2.3-1.7-.6m.1 2.6v1l.4-.7m-.4-1.2v.9m0-.9-.9-.2M.1 27.1l6.5-5.2h-.8m13.5-8.4v7.4h-.1l-1 .5-.3.2-.4.2m-4-5.6.6-.4h0l5.2-4.3m-6 5.2-.2-.2h0v.1M10 19l-.1.1-.3.3-2.4 1.9m6.3 1.8V17l-.2-.3v-.4h.1m.2 6.9v.6m-.2-7 .2.2h0m-6.3 4.5v5.4m-.7-5 .7 1M23.6 6l1.3.4" vector-effect="non-scaling-stroke"/><path fill="#7d1d04" d="m17.6 20.4-.5.5q-.4.1-.5-.1l-.2-.8.2-.8q.1-.4.5-.5.3-.1.5.2l.1.6z"/></g><g id="o" transform="translate(5.55 5.35)"><use xlink:href="#a" width="11.2" height="10.7" transform="translate(-5.55 -5.35)"/><use xlink:href="#b" width="10.7" height="10.2" transform="translate(-5.35 -5.2)"/><use xlink:href="#c" width="10.7" height="6.5" transform="translate(-5.3 -1.35)"/><use xlink:href="#d" width="8.3" height="5.8" transform="translate(-4.85 -3.95)"/></g><g id="m"><path fill="#f70000" d="M4.3 1 5.8.5l.7-.1q2.6 0 4.3 1.8l.8 1q1 1.4 1 3.2v20.8q0 1.4-.7 2.7l-1 1.5h-.3q-1.8 0-3.3-.7l-.3-.2-1.6-1.2q-1.9-1.9-2-4.4l-.1-.7V4.5l.1-1.2.6-1.9z"/><path fill="#c00101" d="M10.8 31.6q-1.7 1.7-4.3 1.7-1.8 0-3.2-1l-1-.7Q.6 29.7.5 27.2V6.5l.1-1.4 1-2 .7-.7v-.1l2-1.4-.3.5-.6 2-.1 1.1V25q.3 2.5 2.1 4.4L7 30.8l.3.1q1.5.7 3.3.7z"/><path fill="#d9a986" d="m1.6 3.1.6-.8.1.1z"/><path fill="none" stroke="#fff" stroke-linecap="round" stroke-linejoin="round" stroke-width="1" d="m4 1.4-.6 2-.1 1.1V25q.3 2.5 2.1 4.4L7 30.8l.3.1"/><path fill="none" stroke="#a30000" stroke-linecap="round" stroke-linejoin="round" stroke-width="1" d="M11.6 3.3q1 1.4 1 3.2v20.8q0 1.4-.7 2.7l-1 1.5h-.1l-.1.2Q9 33.3 6.6 33.3q-1.9 0-3.3-1l-1-.7Q.6 29.7.5 27.2V6.5l.1-1.4.1-.6.9-1.4.7-.7q.9-1 2-1.5L5.8.6l.7-.1h0q2.6 0 4.3 1.8z"/></g><g id="l"><path fill="#c2af61" d="m45.2 9.3-.2-.1-12.6-6.9-.2-.3-.1-1.9.1-.1 16 8.8-1.2 1.3zM32 .1l.1 1.9v.2L27 7.4l-.9-.3-.7-.3v-.1zm-24 30 1 .5zm3.9 2.1 4.4 2.3v.1l.1 1.9h-.1L9 32.7h-.1l-.2-.1zm8.4-20.4 4.4-4.5.6-.1.7-.1.9.4-5 5-.1.1zM15 17.1l1 .5v.1l-6.3 5-.1.1-1.7-.8 1.7.8-6 4.8-3.1.3L7.9 22l6.5-5.2zM.5 28l3.1-.2h.2l1.4.8.5 2.4-1.6-1z"/><path fill="#9c783d" d="m45 9.2.1.1.1.1-5.1 5.3v.7l-.5-.2-.6.6-1.4-.9v-.3q-3-6.6-5.2-6.5V2.3zM7.3 34.8.3 31q-.5-1 0-3h.1l3.7 2 1.7.9v3q.5-.8 1.5-1.1z"/><path fill="#685128" d="m47 10.1 1.3-1.2.2 5.5-.4 4 .4.3-.2 5.1-1.2.6zM32 2.2l.3.1v5.8q-1.9-.3-3.7 4.4-7.2-.5-6.3 5.9l-.3.3-.2-3.4v-2.8l5.1-5v-.1zM16 17.7v.2l.1 2v2.5H16q-1.8-.7-4.7-.4l-1.5 3.6v-2.8zm-12.4 10 .2.1zm10.8-7 .1.5.4.2.4-.2.1-.5-.1-.5-.4-.2-.4.2q-.2.2-.2.5m15.5 5v.4l-.3-.1-1.2-.4v-.4z"/><path fill="#795e2f" d="m32.2 2.2.2.1zm5.4 12.5v.2l-.4-.2zm-5.1-2.5h.1zM9 27.2 6.2 29h-.1l-.9-.5-1.4-.7-.1-.2 5.9-4.8v2.8zm12.4-13.4.1 2 .4-.4.2 3.3-.2.3q-.5-3.6-3-2.2-2.6 1.8-2.5 5.3l-.3.4-.1-2.2V18z"/><path fill="#ca2c07" d="M32.4 8q2.2 0 5.2 6.6h-.4l-4.6-2.5V12h.1z"/><path fill="#b88d47" d="M37.6 14.6h-.4zm-9.7 10.9.3-.4.1.1v.4z"/><path fill="#7d1d04" d="m37.6 14.9 1.4.8-3.4 3.6-.8 1.4-.7-.2-5.9 4.6-.3.3L22 30v1.3h-.5l-1.7.4-3.4 2.9-.1-.1-4.4-2.3-1.7-.9-.6-.2L9 31l.1-.4-1-.5-1.9-1v-.2L9 27.3l.6-.4 2.1-1.3.1.1.1-.2 4-2.5.2-.2v-.1l6-3.9v.2l10.4-6.7.1-.1 4.5 2.6h.1zm-21.2 7.6h.3v-.1z"/><path fill="#a31d04" d="m32.4 8 .3 3.9v.1l-.2.1.1-.1h-.1l-10.4 7v-.1l-6 3.8v.1l-.2.2-4 2.5-.2.1-2 1.4-.1-.1-.6.3.7-1.5 1.5-3.6q2.9-.3 4.7.4h.2l.3-.4q-.1-3.6 2.6-5.3 2.4-1.4 2.9 2.2l.2-.2.3-.3q-.9-6.4 6.3-6 1.8-4.6 3.7-4.3M16.1 22.6v-.2zm-1.8-1.9q0-.3.2-.5l.4-.2.4.2.1.5-.1.5-.4.2-.4-.2zm-4.6 6.2v-1.3z"/><path fill="#c4e9ff" d="M16.4 34.5v.1z"/><path fill="#97adc4" d="m11.9 25.4-.1.2-.1-.1zm4.5-2.9.3-.1z"/><path fill="#c9330a" d="m6.2 29 2 1.1.9.5-.2.3v.1h.8l.6.4 1.8.8h-.2l-1.7-.9 1.8.9-3.3.3-1.4.3q-1 .3-1.5 1v-3l-.6-2.3.8.4zm1.1 2.7v1.1zm-1.5-.8 1.5.8zm3.1.1-1.6.8zm-1.6.8 1.4.7z"/><path fill="#ad9843" d="m21.4 13.7.1-.1-1.1-.9 1.1.9zl.1 2 .4-.4v-2.7l-1.5-.8v.9h-.1l-.9.8L15 17l1 .5v.3z"/><path fill="#a99441" d="M8.7 32.5h.2v.1l7.5 4q.3 1.6 0 3l-9.1-4.9v-1.9z"/><path fill="none" stroke="#000" stroke-linecap="round" stroke-linejoin="round" stroke-opacity=".3" stroke-width="__RESOLUTION__" d="m45 9.2.1.1h.2l-.1.1m1.8.7 1.3-1.2v-.1h0l.2 5.6-.4 4 .4.3-.2 5.1-1.2.6m1-15.6L32.3 0l-.1.1.1 1.9.2.3-.2-.1h0L27 7.4h0l-.9-.3-.7.1-.6.1m23.3 1.5h.2m-15.9-1V8m-.2-5.8V2M16 22.6l-.1.2M6.2 29l2 1 .9.5h0m0 0-.2.3v.1h.8l.6.4 1.8.8h-.2l4.5 2.3v.1m4.1-21.8 1.1.9-.1.1.1 2m.4-.5v-2.7.2m-1.5 0-.9.8L15 17l1 .5v.3l5.4-4.2m.6-1.2 5-5m-11 15v.2m-6.4.2L7.9 22M.4 27.9l3.1-.2v-.1l6-4.8h0l6.4-5.1m-6.3 5.1v4.1m6.4-4.5-.1-2.2m0-.3v-2m-1.7-1.1.7.3m-4.7 14.3 1.6.8m4.5 7.4-9.1-4.9-7-3.8q-.5-.9 0-3h.2l-.1.1h0m4.8.5-1.4-.7-.2-.2m1.6.9.8.4M.5 28H.3h0m7 3.8v-.1h0m0 1.1v-1m0 0v-.1m0 0L9 31m-1.6 3.8v-2M28 25l.2.1 1.4.6m-1.4-.6v.4" vector-effect="non-scaling-stroke"/><path fill="none" stroke="#e2e3a6" stroke-linecap="round" stroke-linejoin="round" stroke-width="__RESOLUTION__" d="M32.4 2.3 45 9.2m-5.4 6 .4.2m-6 5 .8.4m-14.4-9 4.4-4.5m.6-.1v-.4l.7.3m-.7-.4L32.2.1M21.9 12.6l-1.5-.8v.9M7.9 22 .4 27.9M7.9 22l6.5-5.2M8.9 32.5v.1l7.5 4M.4 28l3.7 2" vector-effect="non-scaling-stroke"/><path fill="none" stroke="#685128" stroke-linecap="round" stroke-linejoin="round" stroke-width="__RESOLUTION__" d="M22 18.9v-.3l-.1-3.4" vector-effect="non-scaling-stroke"/><path fill="none" stroke="#fcb8a7" stroke-linecap="round" stroke-linejoin="round" stroke-width="__RESOLUTION__" d="M8.7 32.5h.2M4.1 30l1.7 1 1.5.8m1.4.8-1.3-.7" vector-effect="non-scaling-stroke"/></g><use xlink:href="#e" id="d" width="8.3" height="5.8"/><use xlink:href="#f" id="b" width="10.7" height="10.2"/><use xlink:href="#g" id="v" width="7.2" height="6.9"/><use xlink:href="#h" id="q" width="12" height="11.7"/><use xlink:href="#i" id="p" width="5.3" height="8.2"/><use xlink:href="#j" id="n" width="7.8" height="10.3"/><path id="e" fill="none" stroke="#b1851e" stroke-linecap="round" stroke-linejoin="round" stroke-width="__RESOLUTION__" d="M-3.9-1.3q.7 4.7 7.8 3.9m-6.7-5.2Q-.6-2.8 3.7.6" transform="translate(4.15 2.9)" vector-effect="non-scaling-stroke"/><path id="f" fill="#885b2d" d="M4-2.4Q5-1.3 5.4 0v1l-.2 1.3q-.5 1.1-1.6 1.9Q1.8 5.5-.2 5q-2.1-.6-3.4-2Q-5 1.7-5.2-.2v-1l.6-1.5L-3.5-4q2-1.7 4-.8 2.1.9 3.6 2.4" transform="translate(5.3 5.1)"/><path id="c" fill="#000" fill-opacity=".3" d="M-5.2-1.3q.4 1.1 1.3 2 1.8 2 4.3 2T4.7.8l.6-.8v1l-.2 1.3q-.5 1.1-1.6 1.9Q1.8 5.5-.2 5q-2.1-.6-3.4-2Q-5 1.7-5.2-.2z" transform="translate(5.3 1.35)"/><clipPath id="k"><path d="M1 1h47v39H1z"/></clipPath></defs><g clip-path="url(#k)"><g transform="translate(23.55 24.1)"><use xlink:href="#l" width="48.5" height="39.6" transform="matrix(.9648 0 0 .9613 -22.55 -23.1)"/><use xlink:href="#m" width="13.1" height="33.9" transform="matrix(.1563 .2502 -.2396 .1346 7.3 -12.1)"/><use xlink:href="#m" width="13.1" height="33.9" transform="matrix(.0024 .2947 -.2749 -.0097 15.2 -11.15)"/><use xlink:href="#m" width="13.1" height="33.9" transform="matrix(-.2934 .0374 -.0219 -.259 4.35 -.55)"/><use xlink:href="#m" width="13.1" height="33.9" transform="matrix(-.18 .2339 -.2109 -.1761 9.2 -3.85)"/><use xlink:href="#m" width="13.1" height="33.9" transform="matrix(.1021 .2766 -.2621 .0833 12.6 -9.05)"/><use xlink:href="#m" width="13.1" height="33.9" transform="matrix(.0096 .2946 -.2751 -.0031 10.9 -3.65)"/><use xlink:href="#n" width="7.8" height="10.3" transform="matrix(-.2554 -.0547 -.0894 .2676 -1.6 6.7)"/><use xlink:href="#n" width="7.8" height="10.3" transform="matrix(-.2707 .0451 .0083 .2697 -3.85 7.35)"/><use xlink:href="#n" width="7.8" height="10.3" transform="matrix(-.2554 -.0547 -.0894 .2676 .95 7.05)"/><use xlink:href="#n" width="7.8" height="10.3" transform="matrix(-.2707 .0451 .0083 .2697 -1.15 7.75)"/><use xlink:href="#o" width="11.2" height="10.7" transform="matrix(-.753 .1023 0 .7533 2 1.1)"/><use xlink:href="#p" width="5.3" height="8.2" transform="matrix(.4227 .0963 -.0966 .4212 -4.8 .3)"/><use xlink:href="#p" width="5.3" height="8.2" transform="matrix(.2553 .3502 -.4204 .1597 -1.45 1.85)"/><use xlink:href="#q" width="12" height="11.7" transform="matrix(-.2714 .2209 .184 .2466 -5.05 2.1)"/><use xlink:href="#v" width="7.2" height="6.9" transform="matrix(-.753 .1023 0 .7533 -2.8 4.35)"/><use xlink:href="#q" width="12" height="11.7" transform="matrix(-.3106 .1476 .1054 .2964 -2.4 2.65)"/><use xlink:href="#w" width="30.7" height="30.2" transform="matrix(.9648 0 0 .9613 -6.75 -14.05)"/></g></g></svg>