<svg xmlns="http://www.w3.org/2000/svg" xmlns:xlink="http://www.w3.org/1999/xlink" width="36" height="98" viewBox="0 0 36 98"><defs><g id="d"><path fill="#fbfb53" d="M0 1.7V1Q0 .6.3.3L.9 0l.7.3.3.7v1.5Q.3 3.7 0 1.7"/><path fill="#e9be16" d="M2 2.6v2.9l-.4.7-.7.3-.6-.3q-.4-.4-.3-.7V1.7q.1 1.9 2 .8"/><path fill="none" stroke="#960" stroke-linecap="round" stroke-linejoin="round" stroke-width="__RESOLUTION__" d="M0 1.7V1Q0 .6.3.3L.9 0l.7.3.3.7v4.5l-.2.7-.7.3-.7-.3q-.4-.4-.3-.7z" vector-effect="non-scaling-stroke"/></g><g id="c"><path fill="#442d11" d="M0 1.7V1Q0 .6.3.3L.9 0l.7.3.3.7v1.5Q.3 3.7 0 1.7"/><path fill="#442d11" d="M2 2.6v2.9l-.4.7-.7.3-.6-.3q-.4-.4-.3-.7V1.7q.1 1.9 2 .8"/><path fill="none" stroke="#442d11" stroke-linecap="round" stroke-linejoin="round" stroke-width="__RESOLUTION__" d="M0 1.7V1Q0 .6.3.3L.9 0l.7.3.3.7v4.5l-.2.7-.7.3-.7-.3q-.4-.4-.3-.7z" vector-effect="non-scaling-stroke"/></g><g id="b"><path fill="#a99a54" d="m23.4 5.1 1.7-.8v1.5q-1 2.3-1.7.8zM3 15.5l1.7-.9.1 1.5q-1.1 2.3-1.8.8zM9.9 12l1.7-.9v1.7q-1 2.2-1.7.7zm6.7-3.4 1.8-.9v1.5q-1.1 2.3-1.8.8zm-12 20.7h.1V32L3 31.2v-1.4h.1q.8.8 1.5-.6m5.4 2v-4.7q.8.6 1.6-1v4.9zm6.6-8.3q.8.9 1.6-.6v4.6l-1.6.9zm6.8 1.4v-4.8q.8.8 1.6-.7v4.6z"/><path fill="#e2dcc5" d="m25.1 4.3-1.7.8-5 2.6-1.8.9-5 2.5-1.7 1-5 2.5-1.8.9-3 1.5v-3L27.4.1v3zm-1.7 2.3q.7 1.5 1.8-.8L25 17v1.5l-.2.3q-.7 1.5-1.5.7h-.1v-13m-11.6 6.2-.1 11.1v1.5q-.8 1.8-1.6 1.1l-.2-.2V13.5q.8 1.5 1.8-.7m5 8.6V10q.7 1.5 1.8-.7v12.6l-.2.4q-.8 1.4-1.6.6zM3 17q.7 1.5 1.8-.8v10.3l-.3 2.9q-.7 1.3-1.5.5v-13M.2 41.2l1.6.8 24.8-12.8v36L0 78.6zm13.2 8.7q.5 1.6 3.2 1.4 3.4-.2 4.2-1l1.6-1.5q.8-.9.8-1.8t-1.3-1.7l-.4-.1q-1.7-1-4-1.4-2.2-.2-3.2 1-1 1.3-1 4-.1.6.1 1.1m-6 5.8.8.4 2.2.2q1.2-.1 2-.7.7-.6.7-1l-.7-1.1-1.1-.6-.7-.1q-1.2-.1-2.3.6-1.2.7-1.1 1.5zm3.6-8.4H9.5q-1 0-1 .3t-.3.5.2.5l.3.1 1.7.2 1-.2.4-.7q.4-.5-.5-.7zm-5.2 21 3.3-.7-1.4 4.2 1.4-4.2zm3.3-.7 8-1.6 2.8-.6-2.8.6zm8-1.6.7-2.6z"/><path fill="#ebe7d8" d="m11.6 24 5-2.6v6.4l-5 2.6v-6.5m-6.7 2.5v1l1.3-.7h.2l1.8.7.5-2 1.1-.5v1.4l.2.2v4.7L6.6 33l-1.9-.9v-2.9zM.3 29.8 3 28.3v-.9 3.8zm17.9-7.5.2-.4v-1.4l4.9-2.5v6.3l-5.1 2.6zm6.8-3.5.1-.3V17l2.1-1 6.1 3.1-8.3 4.3z"/><path fill="#b9ac73" d="M4.7 29.3V29zm-1.7.6"/><path fill="#c17b4b" d="M.3 29.8H0z"/><path fill="#c4ba8a" d="M.3 29.8 3 31.2l1.6.9 1.8.9v2l22.7-11.7-.5 2L2 39l-.3 3-1.6-.8L0 29.8zm26.3 42.1v10.3L9.4 91 .1 95.7V85.3zm-14.8 13-.4-.4.4-2.5-.4 2.5zM10 83.3l1.4 1.3q-.8 3.4-2 6.4 1.2-3 2-6.5z"/><path fill="#d1c9a5" d="m1.8 42 .1-2.9 26.8-13.8-.2 2.8-2 1zm27.4-18.7L6.6 35v-2l3.4-1.8 1.6-.8 5-2.6 1.6-.9 5.2-2.6 1.6-.9 8.3-4.2v2zm-2.6 41.9v6.7L0 85.3v-6.7z"/><path fill="#dcd6ba" d="M21.9 45.3q1.3.9 1.3 1.7 0 .9-.8 1.8l-1.6 1.5q-.8.8-4.2 1-2.7.2-3.2-1.4l-.2-1q.1-2.8 1.1-4 1-1.4 3.2-1t4 1.3zM11.3 53l1 .6.8 1q0 .5-.7 1.1-.8.6-2 .7l-2.2-.1-.7-.6-.3-.7q0-.8 1.1-1.5t2.3-.6zm-2.9-4.2q-.5-.3-.2-.6.4-.3.3-.6 0-.2 1-.2h1.8q.9.2.5.7l-.4.7-1 .2-1.7-.2z"/><path fill="none" stroke="#b9ac73" stroke-linecap="round" stroke-linejoin="round" stroke-width="__RESOLUTION__" d="M25.1 4.3 27.4 3M0 17l3-1.5m1.7-.9 5-2.6m1.8-.9 5-2.5m1.8-.9 5-2.6m-11.7 7.7-.1 11.1v1.5m-6.7-9.3v10.3l-.3 2.9m13.6-7 .2-.4V9.3m6.6 9.5.1-.3V5.8" vector-effect="non-scaling-stroke"/><path fill="none" stroke="#f9f8f2" stroke-linecap="round" stroke-linejoin="round" stroke-width="__RESOLUTION__" d="M27.4.1 0 14m11.5 10 5-2.6V10M4.8 27.4l1.4-.7h.2l1.8.7.5-2 1.1-.5V13.5M3 27.5l.1-10.6M23.3 18l-5 2.5m5-2.5V6.6" vector-effect="non-scaling-stroke"/><path fill="none" stroke="#d1c9a5" stroke-linecap="round" stroke-linejoin="round" stroke-width="__RESOLUTION__" d="M21.9 45.3q1.3.9 1.3 1.7 0 .9-.8 1.8l-1.6 1.5q-.8.8-4.2 1-2.7.2-3.2-1.4m-2.1 3 1 .6.8 1q0 .5-.7 1.1-.8.6-2 .7l-2.2-.1-.7-.6m3.6-8.3h.2q.9.2.5.7l-.4.7-1 .2-1.7-.2h-.3m-.6 23 1.4-4.1-3.3.7m14-2.9-2.7.6-8 1.6m8.7-4.1-.7 2.5" vector-effect="non-scaling-stroke"/><path fill="none" stroke="#b9ac73" stroke-linecap="round" stroke-linejoin="round" stroke-width="__RESOLUTION__" d="m11.8 82-.4 2.5.3.4m-2.2 6q1.1-3 1.9-6.4L10 83.4" vector-effect="non-scaling-stroke"/><path fill="#b3a868" d="m17.4 40.4 1.9.2 1.8.8q2.9 1.9 3 6.7v.5l-5 13.2-.1-.1V45.3q-.2-3-1.6-4.9"/><path fill="#bdb37d" d="M24.2 48.7v35.8l-2.6-1.3-2.6-1V61.8z"/><path fill="#b7ab84" d="M24.2 84.6 2.9 95.4v-5l1.7-.8 1.6-.8 2.3-1.2h.1l2.5-1.3 1.9-1h.1l2-1 .3-.2 2.2-1.1 1.4-.7v-.1l2.6 1zm-2.6-1.3h-.1l-1 .5z"/><path fill="#442d11" d="M2.9 90.5V59.8q0-5.2 3.1-10.5t7.6-7.6q2-1.1 3.8-1.3 1.4 1.9 1.6 5v.6l-1.4.3v-.9.9q-1.1.2-2.2.9v-1.5 1.4l-.1.1-2.2 1.3-2.1 1.9-2 2.5-.4.5-.8 1.4-1.6 3q-1.6 3.8-1.6 7.5v24.3zM11 49.4v1zm2.1-1.9v1zm-6.9 8.3v2z"/><path fill="#69481a" d="M19 46v36.3l-1.4.7V46.3zM8.6 53.4l.4-.5 2-2.5 2.1-1.9 2.2-1.3q1.2-.7 2.3-1V83l-2.2 1.1-.2.2-2.1 1H13l-1.9 1-2.5 1.3h-.1l-2.3 1.2v-31l1.5-3zv34.2zm-2.4 4.4v31l-1.6.8V65.3q0-3.7 1.6-7.5m9.2-10.6v37zM13 48.4v36.8zm-2 1.9.1 35.9z"/><path fill="#bcaf9c" d="M19 61.7v.1z"/><path fill="#edeffc" d="m21.6 83.2-1 .5.9-.5"/><path fill="none" stroke="#442d11" stroke-linecap="round" stroke-linejoin="round" stroke-width="__RESOLUTION__" d="m8.6 53.4.4-.5m2-2.5v-1m-4.8 8.4v31m2.3-1.2V53.4m9-7.1v-.9m-2.2 1.8v-1.5m2.2.5V83M13 48.6v-1M6.2 57.8v-2m9 28.5.2-.2v-37M13 85.4V48.6m-2 37.7V50.4" vector-effect="non-scaling-stroke"/></g><clipPath id="a"><path d="M1 1h34v96H1z"/></clipPath></defs><g clip-path="url(#a)"><g transform="translate(1.05 83.05)"><use xlink:href="#b" width="33.3" height="95.7" transform="translate(-.05 -82.05)"/><use xlink:href="#c" width="1.9" height="6.5" transform="translate(14.65 -20)scale(1.3125)"/><use xlink:href="#d" width="1.9" height="6.5" transform="translate(15.75 -21.3)"/></g></g></svg>