<svg xmlns="http://www.w3.org/2000/svg" xmlns:xlink="http://www.w3.org/1999/xlink" width="59" height="62" viewBox="0 0 59 62"><defs><g id="d"><path fill="#835927" d="M39.9 37.3q0-3.6-2.5-6.1-2.4-2.4-5.9-2.4t-6 2.4-2.4 6 2.4 6q2.5 2.5 6 2.5t5.9-2.5q2.5-2.4 2.5-6M0 84V25L49.7 0v59.2z"/><path fill="#c28447" d="M39.9 37.3q0 3.5-2.5 5.9-2.4 2.5-5.9 2.5t-6-2.5q-2.4-2.4-2.4-6 0-3.5 2.4-6 2.5-2.4 6-2.4t5.9 2.4 2.5 6"/><path fill="none" stroke="#441515" stroke-linecap="round" stroke-linejoin="round" stroke-width="__RESOLUTION__" d="m0 84 49.7-24.8V0L0 24.8z" vector-effect="non-scaling-stroke"/></g><g id="c"><path fill="#795422" d="M39.9 37.3q0-3.6-2.5-6.1-2.4-2.4-5.9-2.4t-6 2.4-2.4 6 2.4 6q2.5 2.5 6 2.5t5.9-2.5q2.5-2.4 2.5-6M0 84V25L49.7 0v59.2z"/><path fill="#b87f42" d="M39.9 37.3q0 3.5-2.5 5.9-2.4 2.5-5.9 2.5t-6-2.5q-2.4-2.4-2.4-6 0-3.5 2.4-6 2.5-2.4 6-2.4t5.9 2.4 2.5 6"/><path fill="none" stroke="#3a1010" stroke-linecap="round" stroke-linejoin="round" stroke-width="__RESOLUTION__" d="m0 84 49.7-24.8V0L0 24.8z" vector-effect="non-scaling-stroke"/></g><g id="b"><path fill="#a86f37" d="M1.4 18 36.8 0l6.4 3.6-35.4 18zM50 16.8l3.4 1.8.9 1.3-24.4 12.4-10.3 5.2-5-2.7z"/><path fill="#955c26" d="m43.2 3.6 3.5 4.8 3.1 4.9L31 22h-.1l-16.5 8.5q-.2-.5-3.2-4.5l-3.4-4.4z"/><path fill="#7c4823" d="m49.9 13.3.1 2.2v1.3l-35.4 18v-1.3l-.2-3L30.9 22l-.1.1-.2.5.1.5.6.1.4-.1q.2-.2.2-.5l-.2-.5-.4-.2-.3.1z"/><path fill="#865028" d="M54.3 19.9 55 21v14.8l-9.2 4.5h-.1l-.3-.1v-9.9L38 33.9l-7.9 3.9-.3.1v10.5l-10.3 5.1v-16l10.3-5.2v.4-.4zM30.2 37.8H30l-.1.1h.1z"/><path fill="#925e29" d="m55 35.8 1.2-.5v5.5l-10.4 5.5-.3-.8v-5.3l.3.1zM31 48.7v5.2l-11.2 5.9-.1-5.8 10.2-5.1 1.1-.5z"/><path fill="#58301b" d="m45.8 46.3-5.2-2.5-10.7-5.2v-.7l.3-.1 7.9-3.9 7.4 6.3v5.3l-1-.5z"/><path fill="#2e130e" fill-opacity=".5" d="M40.6 43.8 31 48.7v-.4l-1.1.6V38.6zm-10.4 4.6-.3.1z"/><path fill="#764827" d="M19.8 59.8 0 50.2v-5.4l.1-.1 19.6 9.2z"/><path fill="#633721" d="M0 44.8v-.1h.1z"/><path fill="#a4672b" d="m.1 44.7 1.3-1V45l18.2 8.5 10.3-5v.4l-10.2 5z"/><path fill="#52321b" d="M1.4 43.7V18l6.4 3.6 3.4 4.4q3 4 3.2 4.5.3 1.5.3 3l-.1 1.3 5 2.7v16L1.4 45z"/><path fill="#c28447" d="M30.9 22h.4l.4.1.2.5q0 .3-.2.5l-.4.1-.6-.1-.1-.5.1-.5z"/><path fill="#4e2218" d="M45.5 30.3v9.9l-7.4-6.3z"/><path fill="#411f14" d="m44.6 45 .9.5.3.8z"/><path fill="none" stroke="#441515" stroke-linecap="round" stroke-linejoin="round" stroke-width="__RESOLUTION__" d="M1.4 18 36.8 0l6.4 3.6m6.6 9.7.2 2.2v1.3l-35.4 18h0m35.4-18 3.4 1.8.9 1.3.8 1.1v14.8l1-.5v5.5l-10.3 5.5-5.2-2.5-10.7-5.2v-.7l.3-.1h0l7.9-3.9 7.4 6.3v-9.5M31 48.7v5.2l-11.2 5.9L0 50.2v-5.5h.1l1.3-1V18m28.5 20h.1l.1-.1M30 48.4v-9.8m0 10.3 1.1-.5v.3m-1.1-.3.3-.1m15.3-8.1.3.1h0l9.3-4.5m-9.6 9.7-1-.5m1.3 1.3-.3-.8m-7.4-11.6 7.4-3.6M1.4 45v-1.3M0 44.8l.1-.1 19.6 9.2h0l10.2-5M19.7 54" vector-effect="non-scaling-stroke"/><path fill="none" stroke="#533120" stroke-linecap="round" stroke-linejoin="round" stroke-width="__RESOLUTION__" d="m43.2 3.6 3.5 4.8 3.1 4.9m-42 8.3 3.4 4.4q3 4 3.2 4.5" vector-effect="non-scaling-stroke"/><path fill="none" stroke="#6f3628" stroke-linecap="round" stroke-linejoin="round" stroke-width="__RESOLUTION__" d="M29.9 32.7v-.4m15.6-2v.4" vector-effect="non-scaling-stroke"/></g><clipPath id="a"><path d="M1 1h57v60H1z"/></clipPath></defs><g clip-path="url(#a)"><g transform="translate(20.55 54.9)"><use xlink:href="#b" width="56.1" height="59.8" transform="translate(-19.55 -53.9)"/><use xlink:href="#c" width="49.7" height="84" transform="translate(2.05 -16.3)scale(.1083)"/><use xlink:href="#d" width="49.7" height="84" transform="translate(28.5 -29.6)scale(.1083)"/></g></g></svg>