<svg xmlns="http://www.w3.org/2000/svg" xmlns:xlink="http://www.w3.org/1999/xlink" width="51" height="181" viewBox="0 0 51 181"><defs><g id="d" fill="none" stroke-linecap="round" stroke-linejoin="round"><path stroke="#fff" stroke-width="__RESOLUTION__" d="m29.6 7.6.8 3.7M28.3 0l1 4.3" vector-effect="non-scaling-stroke"/><path stroke="#624f3c" stroke-opacity=".4" stroke-width="1" d="M13.8 7.2h2"/><path stroke="#ab9172" stroke-width="__RESOLUTION__" d="M.6 1.8 0 1" vector-effect="non-scaling-stroke"/></g><g id="c"><path fill="none" stroke="#7f7f2b" stroke-linecap="round" stroke-linejoin="round" stroke-opacity=".4" stroke-width="__RESOLUTION__" d="M14.5 5.3 7.4 17.1q1.1 3.4.9 8.6m-1.3-8 .4-.6q-2-5.3-7.4-5.6m0-2.8 14.8-7.3" vector-effect="non-scaling-stroke"/><path fill="#907d50" d="M16 26q.2.8 1.2.9t2.1-.7l1.8-1.8q.6-1 .4-1.8l1.2 3.6q.1.9-.4 2-.7 1.1-1.9 1.8t-2.1.6-1.2-.9l-.1-.4z"/><path fill="#615036" d="M21.6 22.6q.1.8-.5 1.8l-1.8 1.8q-1.1.7-2.1.7-1-.1-1.2-1h-.1q-.2-.9.4-2t1.8-1.8 2.2-.6 1.2 1"/><path fill="none" stroke="#7f7f2b" stroke-linecap="round" stroke-linejoin="round" stroke-opacity=".4" stroke-width="__RESOLUTION__" d="M21.6 22.6q.1.8-.5 1.8l-1.8 1.8q-1.1.7-2.1.7-1-.1-1.2-1l1 3.4v.4q.3.8 1.3 1 1 0 2.1-.7t1.9-1.8q.5-1.1.4-2zl-.1-.1q-.2-1-1.2-1-1-.1-2.2.6t-1.8 1.8-.4 2h0" vector-effect="non-scaling-stroke"/><path fill="#907d50" d="m16.3 19 1.6-.7q1.9-1.2 2.9-2.8.9-1.7.6-2.9l1.8 5.7q.3 1.3-.7 3-1 1.8-2.7 2.8l-1.9.9z"/><path fill="#615036" d="M21.5 12.6q.2 1.3-.7 2.9-1 1.6-2.9 2.8l-1.6.7-1.7.3-.8-.3q-.9-.4-1.1-1.2v-.1q-.4-1.3.6-3 1-1.8 2.8-2.9t3.3-1 2 1.5z"/><path fill="#816a47" d="m16.3 19 1.6 6-1.6.1-.6-.1-2-6 .9.3z"/><path fill="#e0cab6" d="M12.7 17.8q.3.8 1 1.2l2 6q-1-.4-1.3-1.4l-.1-.5z"/><path fill="none" stroke="#7f7f2b" stroke-linecap="round" stroke-linejoin="round" stroke-opacity=".4" stroke-width="__RESOLUTION__" d="M21.5 12.6q.2 1.3-.7 2.9-1 1.6-2.9 2.8l-1.6.7-1.7.3-.8-.3q-.9-.4-1.1-1.2v-.1q-.4-1.3.6-3 1-1.8 2.8-2.9t3.3-1 2 1.5zl1.8 5.7q.3 1.3-.7 3-1 1.8-2.7 2.8L18 25l-1.6.1-.6-.1q-1-.4-1.3-1.4l-.1-.5-1.6-5.3" vector-effect="non-scaling-stroke"/><path fill="#907d50" d="m14.3 9.7 1.5-.7q2.1-1.4 3.3-3.5 1.2-1.9.8-3.4L22 9q.5 1.5-.6 3.7-1.3 2-3.4 3.4l-1.7.8z"/><path fill="#e3d0ac" d="M20 2.1q.3 1.5-.9 3.4-1.2 2.1-3.3 3.5l-1.5.7-2.6.5-.4-.1-.4-.1q-1.2-.4-1.5-1.5v-.2q-.5-1.6.7-3.7t3.4-3.4Q15 .2 16.3 0h1.1q1.8.2 2.3 1.8z"/><path fill="#816a47" d="m14.3 9.7 1.9 7.2-2.4.4-.4-.1-2-7.1h.3z"/><path fill="#e0cab6" d="M9.4 8.5q.3 1.1 1.5 1.5l.4.1 2.1 7.1q-1.6-.3-2-1.7v-.7z"/><path fill="none" stroke="#7f7f2b" stroke-linecap="round" stroke-linejoin="round" stroke-opacity=".4" stroke-width="__RESOLUTION__" d="M20 2.1q.3 1.5-.9 3.4-1.2 2.1-3.3 3.5l-1.5.7-2.6.5-.4-.1-.4-.1q-1.2-.4-1.5-1.5v-.2q-.5-1.6.7-3.7t3.4-3.4Q15 .2 16.3 0h1.1q1.8.2 2.3 1.8zL22 9q.5 1.5-.6 3.7-1.3 2-3.4 3.4l-1.7.8-2.4.4-.4-.1q-1.6-.3-2-1.7v-.7l-2-6.3" vector-effect="non-scaling-stroke"/><path fill="#a58a5f" d="m23 38.5-3-4.1-.4-5.8q1-1.7 2.4-3.5l1.7 7.7L28 39q-2.7-2.4-5.1-.5"/><path fill="#b7a07d" d="m19.6 28.6.3 5.8 3.1 4.1q-.9.7-1.7 2l-4.1-4.7q.1-3.4 2.4-7.2"/><path fill="#f2eae1" d="m17.2 35.8 4 4.7q-.8 1.1-1.6 2.9-2.6-3.6-2.4-7.6"/><path fill="none" stroke="#7f7f2b" stroke-linecap="round" stroke-linejoin="round" stroke-opacity=".4" stroke-width="__RESOLUTION__" d="M23 38.5q2.4-1.9 5 .5l-4.3-6.2-1.7-7.6q-1.4 1.7-2.4 3.4-2.3 3.8-2.4 7.2-.2 4 2.4 7.6.8-1.7 1.7-3 .8-1.2 1.7-1.9" vector-effect="non-scaling-stroke"/><path fill="#947858" d="M8.8 26.2q-1 1.4-2.2 2.2-1.2.7-2.1.2-.8-.5-.8-2 0-1.4 1-2.9.9-1.6 2.2-2.2l2-.2q.8.5.8 2 0 1.3-1 2.9"/><path fill="none" stroke="#7f7f2b" stroke-linecap="round" stroke-linejoin="round" stroke-opacity=".4" stroke-width="__RESOLUTION__" d="M8.8 26.2q-1 1.4-2.2 2.2-1.2.7-2.1.2-.8-.5-.8-2 0-1.4 1-2.9.9-1.6 2.2-2.2l2-.2q.8.5.8 2 0 1.3-1 2.9" vector-effect="non-scaling-stroke"/></g><g id="b"><path fill="#282413" d="m72.2 237.2-2.9-.1.5-1.8 2.4-.9z"/><path fill="#7b6540" d="M72.2 237.2v-2.7l-2.4.8-.5 1.8zM60 239.4l.4.1v-9.9l30.9-15.4v4.4l-1 1.9 1 .4v1.4l-3 2.7-4-1.4-2.2 1.3-2.3 4.7 2.9 2.5 2.8-4.1 5.8 3v2.1l-3.1 5.7-2.5 2.3-.7 4.1-.5.3-.7.3-.5.3h-.1l-.4.1-3.6-7.3-2 1.9.8 1.6-3 3.6-2-1.3-8 5.8 1 4.2-.8.4-3 1.5-1.8.9-.4-.2z"/><path fill="#8d7847" d="m91.3 214-30.9 15.5v10l-.4-.2q-13.3 0-23.7-8.6l-6.8-8.6v-8l30.9-15.5z"/><path fill="#c5b789" d="m29.5 222 6.8 8.7q1.5 3.9 3.3 7.3l-3.8-1.6v3.8-3.8l3.8 1.6q2 3.8 4.3 6.9l1.5 1.8-4.3-.7-.2 1.7-2.1-1.1-1.1-.6.9-1-.4-2.3-2.9.4-2.2-4.2-3.5.2v-1.7l2-2.8-.1-.5-.3-3.1-1.6-1-.1-3.2 1 .1q-.1-.8-.9-1.6l-.1-.1zm4.5 12.7-2.5-.7zm-2.5 3.2 2.7 1zm4.4 1.3.6 1.1 1.1-.2-.4-1.3zm-.1-2.8v-5.3zm8 9.4v-.9z"/><path fill="#a28e51" d="M36.3 230.7q10.4 8.6 23.7 8.6V257l-4.4-2.1.7-.6-.2-2.7-6.1-6.4-3.8 1.6-.9-.2L44 245v-3.8 3.8q-2.3-3.2-4.3-6.9-1.9-3.4-3.4-7.3m21 15.7-2.7.5.9 2.3h.1l2.5.3zm-2.5-1.4L39.7 238z"/><path fill="#4e4425" d="m66 254.6-1-4.2 8-5.8 2 1.3 3-3.7-.7-1.5 1.9-1.9 3.6 7.3-.3.2-1 .5-.7.3-2 1.1-.7.3-.7.3-4 2.1-3.6 1.8-2.9 1.4zm19-9.5.7-4.1 2.5-2.3 3-5.6v4l-.9 1.5h.4l.3.3v1q0 .4.3.6v1.4l-1.4.8-1.7.8zm6.3-14.2-5.8-3-2.8 4.1-2.9-2.5 2.3-4.7 2.3-1.3 3.9 1.4 3-2.7z"/><path fill="#887d40" d="M29.6 237.4V230l1.6 1 .3 3.1-1-.2 1 .2v.5zm6.4 1.8 1.3-.3.4 1.3-1.1.2zm-6.3-.1 3.5-.2 2.2 4.2 2.9-.4.4 2.3-1 1-2-1-2.8-1.4-3.2-1.7zm11.3 8.6.2-1.7 4.3.8 1.7 4-2.5-1.4-3.2-1.6z"/><path fill="#776d37" d="m51.7 253-1.7-.8-2.7-1.3-.2-.2-1.7-4 .8.2 3.8-1.6 6 6.4.3 2.8-.7.5-.5-.3-.7-.3zm5.5-6.7.8 3.1-2.5-.2h-.1l-.9-2.3z"/><path fill="none" stroke="#615530" stroke-linecap="round" stroke-linejoin="round" stroke-opacity=".8" stroke-width="__RESOLUTION__" d="m91.3 214-31-15.4-30.8 15.5v11.1l.1.1q.8.8.9 1.6l-1-.1v3.2M60 257.1l.4.3h0l1.8-.9m3-1.5.8-.4.9-.5m16.3-8.2.5-.2m.7-.3.5-.3 3.3-1.7m3-10.4v-12.2l-1-.4 1-1.9v-4.4m0 19v4l-1 1.5h.4l.3.3v1q0 .4.3.6v1.4l-1.4.8m-7.4 3.6-1 .5m-.7.3-2 1.1m-.7.3-.7.3m-4 2.1-3.6 1.8m12.7-6.4.7-.4m-53.6-6.8v-1.7m8 8.6 1.2.6m11.2 5.6-2.7-1.3m-2.7-1.5-3.2-1.6m14.2 7.2 4.4 2.1m-4.4-2.1-.5-.3m-.7-.3-2.7-1.4m-14-7-2.1-1m-2.8-1.4-3.2-1.7v-2.8" vector-effect="non-scaling-stroke"/><path fill="none" stroke="#857143" stroke-linecap="round" stroke-linejoin="round" stroke-width="__RESOLUTION__" d="m31.5 234.1 2.5.7m-2.5-.7-1-.2m3.7 5-2.7-.9m8 0-3.7-1.6v3.8m0-9.1v5.3m8 8.5v1m0-4.8v3.8m-4.2-6.9 15.2 7" vector-effect="non-scaling-stroke"/><path fill="#a28951" d="M72.5 183.3q5.8 1 10.8 3.3l2.2 1 1.7.8-25.8 5.7-12.1-4.8zm21.7 12.5 1 .3q.8 2 .9 4l-2.5 3.4q-.6 2.2-3 4l-.4.3-.6.3-1.8 1q-3.5 1.5-8.8 2.6l-8 1.3-2.6.3.1-9.7zm-36.4 36q-8-.2-14.6-1.9l-3.4-1-2.2-.8v-12.7l2.2.8 3.4 1q4.4 1.1 9.4 1.6l5.1.3zm-5.1-7.8v-5.2zm3.1.8v.3l-9.5-1.5-.2-.1h.3l9.5 1.6zm-9.6 4.4v-5.7zm9.5-4.2v6zm-18.1-3.4 8 2z"/><path fill="#c5b789" d="m87.2 188.5 2.4 1.4q3.1 2.3 4.8 4.8l-2 .5 1.8.7-25.7 7.7-.1 9.7 2.6-.3 8-1.3v2.2l-8 1.7-5 1H49.4L38 213.2l-9.8-6.3-4.8-8.4q1.2-5.6 8.3-9.7l3.2 1.6-1-2.8q4.2-2.2 9.2-3.5 6.2-1.7 13.5-1.9h3l8.2.4 4.5.7-23.1 6 12 4.8zm-63.8 13.2-.1-.9v-.8zm38.4 8-1.5-6.2-7.7-1.5-7.6 5 7.6 6.1zm-27.3-8.5-5 .3-.1 3 6 1z"/><path fill="#b8a372" d="M96.1 200.2v1.6l-.2 1.5q-.6 2-1.7 3.7l-1.1 1.3q-1.4 1.6-3.5 3.1v-3.3l.6-.3.4-.4q2.4-1.7 3-3.9z"/><path fill="#b19a65" d="M96.1 201.8v11.6q0 6-6.5 10.7l-1.8 1.2v-12.7l1.8-1.2q2-1.5 3.5-3l1-1.4q1.3-1.7 1.8-3.7zm-58.5 26.5-3.6-1.7q-10.7-5.4-10.7-13.1v-.2l2-.4v-.4q-1-.6-2-.9v-9.9q.2 2.8 2 5.4 2.7 3.8 8.7 6.8 1.7 1 3.6 1.7v6.3l-.4-.2-6-3.2-4.5-3.4 4.5 3.4 6 3.3h.4zm57.6-15.7V207zm-4.5 4v-5.2zm4-2.4-6.5 5.6zm-.6 4v-3zm-69.7-7.6v-2.9zm3.3 3.7v-3.7zm1.7 8.2v-4.8zm5-2.8v-4.8zm-9.2-1.2v-4z"/><path fill="#99824d" d="m87.8 225.3-2.3 1.2-4.5 2-2 .7h-.2v-12.6h.2l2-.7 1.4-.6 3-1.5 1.3-.6h1.1zm-17.7 6-6 .6-3.6.1h-2.8v-12.7l2 .1h.8l3.7-.2 5.8-.5h.1zm17.1-11-8 2.7zm-20 4.9-8.5.2z"/><path fill="#857143" d="M78.8 229.3q-3.7 1.1-7.7 1.8v-12.7q4-.7 7.7-1.8zm-1.1-6-5.8 1.4z"/><path fill="#beaa7c" d="m71 231.1-.9.1v-12.6l-6 .6-3.6.1v-2.7H66l5-1z"/><path fill="#d2c5a6" d="M23.4 199.9v-.5l.1-.9 4.8 8.4 9.8 6.3 11.3 3.4h11v2.7h-2.7l-5.1-.4q-5-.5-9.4-1.6l-3.4-1-2.2-.8q-1.9-.7-3.6-1.7-6-3-8.7-6.8-1.8-2.6-2-5.4zm66.3 11.5-1.8 1.2v-3.5l1.8-1zM71 215.7l7.9-1.7v2.7h-.2q-3.7 1.2-7.7 1.8z"/><path fill="#c0ad81" d="M87.8 212.6v.7h-1.1l-1.2.5-3.1 1.5-1.4.5-2 .8v-4.9q5.3-1.1 8.8-2.6z"/><path fill="#a39c56" d="m61.7 209.7-9.2 3.3-7.6-6 7.6-5.1 7.8 1.5zm-27.3-8.5 1 4.4-6.1-1 .2-3.1z"/><path fill="none" stroke="#615530" stroke-linecap="round" stroke-linejoin="round" stroke-opacity=".8" stroke-width="__RESOLUTION__" d="M72.5 183.3q5.8 1 10.8 3.3l2.2 1 1.7.8 2.4 1.5q3.1 2.3 4.8 4.8l-2 .5 1.8.7 1 .3q.8 1.9.9 4v13.2q0 6-6.5 10.7l-1.8 1.2-2.3 1.2-4.5 2-2 .7h-.2q-3.7 1.2-7.7 1.9l-1 .1-6 .6-3.6.1h-2.8q-7.9-.2-14.5-1.9l-3.4-1-2.2-.8-3.6-1.7q-10.7-5.4-10.7-13.1v-.2l2-.4v-.4q-1-.6-2-.9v-12.1l.2-.9q1.2-5.6 8.3-9.7l3.2 1.6-1-2.8h0q4.2-2.2 9.2-3.5 6.2-1.7 13.5-1.9h3l8.2.4zm-49 16.5v1.8" vector-effect="non-scaling-stroke"/><path fill="none" stroke="#857143" stroke-linecap="round" stroke-linejoin="round" stroke-width="__RESOLUTION__" d="M95.2 207v5.5m-23.3 12.3 5.8-1.5m13-12v5.1m-2.5 3.2 6.5-5.6m-.6 1v3m-14.9 5 8-2.7m-62.8-12.7v3m3.3 0v3.7m9.9 7.6-.4-.2-6-3.2-4.5-3.4m2.7 2.6v4.8m23.2-3.5v5.2m-6.6-.5h.3l9.5 1.6v-.3m-9.5-1.2-.1 5.7m9.5 1.8v-6m-10.1-1.4-8-2m-3.1-7v4.8m-9.3-5.2v4m33.6 6.9 8.5-.2" vector-effect="non-scaling-stroke"/><path fill="#cabaa8" d="M60.2 7.5q.8 2.2 1.3 5-5-2-7.1 1l-.4-1.2-.8-1.6q2.6-4.1 7-3.2M47.6 3.9q-.3-2.7 4-3.9 3.6.3 6 2.8-5.2 1.4-5.8 5.9l-1.3-1-1.4-.5Q47.7 5.4 47.6 4"/><path fill="#b8a389" d="m61.5 12.6 1 .5.9 4.6q-4.6-1.4-8.3 2l-1.6-4.4.9-1.7q2.2-3 7-1"/><path fill="#c1b09d" d="m63.4 17.7.6 6.8q-4.2-2.2-7.6 1.2-.5-3.1-1.3-6 3.7-3.4 8.3-2"/><path fill="#998271" d="M64 24.5q.4 5.6.2 12.4-5-3.4-6.9.5 0-6.3-1-11.7 3.5-3.4 7.8-1.2"/><path fill="#a68a6a" d="m64.2 36.9 1.9 1.5q-.2 21.3-5.5 38.3l-3 5.2q2.7-17.6-.5-36.2l-.1-.3-.7-4q.3-2.6 1-4 1.9-3.9 6.9-.5"/><path fill="#d8c5b1" d="m57.7 81.9-1.1.2-1.7-9.6-.8-4.7.8 4.7.6.4-.6-.4-7.6-5.7-6.8.3h-1.2l6.6-14.5q4.5-18.3 4.2-35.3 1.4-7.4 3.9-5l.4 1.3-.9 1.7 1.6 4.4q.8 2.9 1.3 6 .9 5.4.9 11.7-.7 1.4-1 4l.7 4v.3q3.3 18.6.7 36.2M44.9 65.1l2.4 1.7zm12-17.8.1-1.6z"/><path fill="#ebdecf" d="M47.6 4q.1 1.3 1.5 3.3l1.4.4q-3.4 2.7-3.9 6.6l-.1-.7-1.3 2.7q-1-9.6 2.4-12.4m-2.7 21.7h.4Q45 31 44.2 37.2L43 28.6zM46 38.2q-.3 7-2.4 13.4l.3-.1q-1.7 6.3-5.2 10.9l-2.5 2.9-2.2 2-2 1.5-3.8-.6q5.9-4 9.3-8.9l1.1-2.1 1-2.3Q42 50 43 45l.6-4.8zm-2.4 2L43 45l-.6.7zm0 11.5L41 52q-1.2 3.8-3.5 7.3 2.3-3.5 3.5-7.3z"/><path fill="#836f5c" d="m50.5 7.7 1.3 1 1.4 2 .8 1.6q-2.5-2.4-4 5 .4 17-4.1 35.3l-6.6 14.6H38l-4.1.1 2.2-2 2.5-2.9q3.5-4.6 5.2-10.9h-.3q2-6.2 2.5-13.3l.9-6q.9-9-.3-18 .5-3.8 3.9-6.5"/><path fill="#dbd1c8" d="M51.8 8.7q.6-4.5 5.8-5.9 1.6 1.8 2.6 4.7-4.4-1-7 3.2z"/><path fill="#e4ddd6" d="M45.3 25.7v-.1q0-4.5-.5-8.7l.4-.6 1.3-2.7.1.7q1.2 9 .3 17.9l-.9 6-2.4 1.9.6-3q.9-6.1 1-11.4"/><path fill="#987b5a" d="m39.3 67.2 1.2-.1-2.2 4.6-2.2.3 2-4.8z"/><path fill="#f0ebe8" d="m39.7 55-1.1 2.2h-3.7l.2-1.5z"/><path fill="#e7d3c7" d="M57 45.4v.3z"/><path fill="none" stroke="#7f7f2b" stroke-linecap="round" stroke-linejoin="round" stroke-opacity=".4" stroke-width="__RESOLUTION__" d="M60.2 7.5q.8 2.2 1.3 5l1 .6.9 4.6.6 6.8q.4 5.6.2 12.4l1.9 1.5q-.2 21.3-5.5 38.3m-4 5.4 2.6 15.5M57.6 2.9Q55.2.2 51.6 0q-4.3 1.2-4 4 .1 1.3 1.5 3.3l1.4.4 1.3 1 1.4 2 .8 1.6.4 1.3q2.2-3 7-1m-3.8-9.8q1.6 1.8 2.6 4.7m-15 18.2v-.1q.1-4.5-.4-8.7l.4-.6q-1-9.6 2.4-12.4m-2.4 12.4 1.3-2.7.1.7q.5-3.9 3.9-6.6m4.6 12-1.6-4.4.9-1.7M39.3 67.2l1.2-.1 6.8-.3-2.4-1.7m11.5-39.4q-.5-3.1-1.3-6m-10.2 5.9-1.8 3 1 8.5q1-6.1 1.1-11.4m1.4-11.4q1.2 9 .3 17.9l-.9 6h0q-.3 7-2.4 13.4l.3-.1q-1.7 6.3-5.2 10.9l-2.5 2.9-2.2 2 4-.1h1.3M43.6 40l.6-3m1.8 1-2.4 2-.6 4.8q-1.1 5-3.3 10l-1.1 2.3-1.1 2.1q2.3-3.5 3.5-7.3l2.6-.4M57 45.4l-.7-4q.3-2.6 1-4 0-6.3-1-11.7m.7 19.7v.3q3.3 18.6.7 36.2M57 45.7v-.3m0 .3-.1 1.5m-14-2.3-.5.7 1.2-5.5m-5 17h-3.7l.2-1.4 4.6-.8M38 67.2 36 72l2.1-.3 2.3-4.6m-6.5.3-2 1.4-3.8-.6q5.9-4 9.3-8.9m17.4 13.2-.8-4.7m1.4 5.1-.6-.4 1.7 9.6m-9.4-15.3 7.7 5.7m2.4-35.1q1.9-3.9 6.9-.5" vector-effect="non-scaling-stroke"/><path fill="#e8dfd9" d="M125.1 40.2q-.2-2.3-3-3.1 4.6-2.8 10.6-4.2l1.3-.3.1 4-5.7.8z"/><path fill="#dad0c2" d="M122 37.1q2.9.8 3.1 3l-3.4 3q-1.2-2.6-4.5-2.4 2.2-2 4.9-3.6m12-.5-.2-4h.1q6.8-1.8 13-.5-2.7.4-4.3 3.6l-1.7-.1zm19.6-2.4.9.5 4.5 2.9 1.4 1.1-.2.2-2.7 2.8v-.1l-7.5-3.8q1.4-3.2 3.6-3.5"/><path fill="#c1af9d" d="m125.1 40.2 3.3-2.8 5.7-.8.1 3.3v1.4q-10.1 1.5-17.5 11.9h-.1q-.1-1.9-1.2-2.9l1.2-3 5.1-4.2z"/><path fill="#ebdecf" d="m134 32.6-1.3.3zm20.6 2.1 2.3.7 2.2 2.2zm5.9 4-.2.2q9.3 10.5 1.8 20.4l-.4-2 .5 2-1.1-.5-5.3 15-1.4 10.8-1.2-1.7v.1-.2q.9-13.5 6.2-23.9l.3-.6 1.6-2.7.3 1.1-.3-1.1-1.7 2.7-.2-2.7q.7-1.2.7-2.7h1.5l-.5-5.1-3.5-6.1v-.1.1l2.7-2.8zm5.9 94.9-3.2-1.8v-.1q-10.9-16.2-11.5-32.1l.4.4 1.4 1.3-.6-6.2 1.5-10.5-1.2-1.7v.1q-1.9 8-1.1 17l1.4 1.3.6 6.9 4.8 13.8zm-49.8-80.2v-.2h.1zm-5.5 9.5.3-.4-.5 1.2z"/><path fill="#e4ddd6" d="M117.3 40.7q3.2-.2 4.4 2.4l-5.1 4.2-1.2 3q-1.3-1.1-4.2-1.3l-2 3.5q2.9-7.1 8-11.8"/><path fill="#eae3dd" d="M147 32q3.4.7 6.7 2.3-2.2.3-3.6 3.5-2.7-1.5-7.4-2.1 1.6-3.2 4.3-3.6"/><path fill="#9f8760" d="m162.2 59.3.4 1.7-.3.5q-2 3.7-3.4 8.4v6.8l-2.7 10-.4.2-1.4-2.3 1.3-10.8 5.4-15zm-5.9 27.4q.6-9.6 2.7-16.8-2.2 7.2-2.7 16.8"/><path fill="#d0a995" d="M156.2 86.7v.9l-.4-.7zm0 1q-.2 3.5-.1 7.2l-.7-1.2q.2-3.1.8-6m-.2 15.7.1.8q.8 5.2 2.4 11.2-2.1-6-2.6-11.2l-.1-.8z"/><path fill="#947d58" d="M156.2 87.6v.2q-.6 2.8-.7 5.9-.2 4.5.4 9.7h-.1l-2.3-2.1-.6-6.2 1.5-10.5 1.4 2.3zm-.1 16.7 5.4 13.4v4.6q2.4 5 6 10.5l1.6 2.4-2.7-1.6-7.5-11.6-4.8-13.8-.6-6.9 2.3 2.1v.8q.6 5.2 2.7 11.2-1.6-6-2.4-11.2m5.4 18.1q-1.8-3.5-3-6.9 1.2 3.3 3 7m-85.9-18.7 3.5-.4v8.3l-3.1-1.7z"/><path fill="#c7ac8d" d="m163.2 131.7-4.1-2.1-5.8-3-1.4-.7-2.3-6.7q-2.2-24.6-3.3-28.5l3-19.6 8.9-14.7 1.2 2.5q-5.3 10.4-6.2 24v.1q-1.9 8-1.1 17l-.4-.4q.6 15.9 11.5 32.1"/><path fill="#c4b49b" d="m159 129.6 1.1 8.3-3.8-1.9-3-9.4zm-18.9-18.8-1.6 5.4-2.4-1.7v-7.2z"/><path fill="#dacec2" d="m149.6 119.2-9.4-8.4-4-3.5-3.2-3V88.9l7.2-21.8 16.2-14.7 1.8 4.1-9 14.7-3 19.6q1.3 3.9 3.4 28.5m-13.4-12.9v1z"/><path fill="#cab8a8" d="m133 102.7-2-.1-23.2-1.1.3-.8 12-32-1.7-8q2.2-7.1 10-12 8.1-6.4 13.8-5.6l11.4 3.3 2.8 6L140.2 67 133 88.8l-.5 1.4.4-1.4zm-2.5-.7.5.6z"/><path fill="#8a7562" d="M116.7 53.2q7.3-10.4 17.5-11.9V40l4.5-.6h.3q4.9-.2 9.1 1 3.9 1.2 7.2 3.8l.8-.8q2.3 3.5 3.3 6.3l-3 2.7-2.8-5.9-11.4-3.3q-5.7-.8-13.7 5.6-8 4.9-10.2 12l-1.5-7.4z"/><path fill="#836f5c" d="m116.8 53.3 1.5 7.4-6.6 7.9L95 83.4 93.5 77q9.1-6.4 17.6-14.2l-.2.8.5-1.2 3-2.7q2.1-3.9 2.2-6.4z"/><path fill="#a08463" d="m156.4 52.4 3-2.8q.7 1.8.7 3.3t-.7 2.7l.3 2.7-.3.6-1.2-2.5.7-1-.7 1z"/><path fill="#ebd9cf" d="M159.4 49.6q-1-2.8-3.3-6.3l1.5-1.6 3.5 6.1.5 5-1.5.1q0-1.5-.7-3.3"/><path fill="#cdbeb1" d="m156 43.3-.7.8q-3.3-2.6-7.2-3.8-4.2-1.2-9.2-1h-.2l-4.5.6-.1-3.3 6.8-1 1.8.1q4.7.5 7.4 2.1l7.5 3.8v.1z"/><path fill="#bba793" d="M116.6 53.2v.1q-.1 2.5-2.2 6.4l-3 2.7-.3.4q-8.5 7.8-17.6 14.2l-6.2 4.1q.2-2-.3-3.3l12.6-8.6 13.3-12.8 2.4-6q1.2 1 1.3 2.8"/><path fill="#d2c5b7" d="m115.4 50.3-2.5 6.1-13.3 12.8L87 77.8q-1.2-3-5.7-2.7 17.4-5.5 27.9-22.6l2-3.5q2.9.2 4.1 1.3"/><path fill="#857150" d="M87 77.8q.5 1.3.3 3.3l-8.5 5-.5.2-15.9-7 14.9-3.1 4-1.1q4.5-.3 5.7 2.7"/><path fill="#756453" d="m87.3 81.1 6.2-4.1 1.6 6.4-5.3 6.4-.3 10.8-1 1.9-9.4.8-3.5.4-9.1.8-1-.2-4.6-1.4q-15.7-6 17.4-16.6l.5-.1zm-8.2 21.8v.4zm3.3-2.5 7.1.3z"/><path fill="#b7a08a" d="m118.4 60.7 1.8 8-12.1 32-5.8.5-12.8-.6.3-10.7 5.3-6.5 16.6-14.8z"/><path fill="none" stroke="#7f7f2b" stroke-linecap="round" stroke-linejoin="round" stroke-opacity=".4" stroke-width="__RESOLUTION__" d="m134.1 36.6-.2-4-1.2.3q-6 1.4-10.6 4.2-2.7 1.6-4.8 3.6-5.2 4.7-8.1 11.8l2-3.5q2.9.2 4.1 1.3 1.2 1 1.3 2.9v.1l.1-.1q7.3-10.4 17.5-11.9V40l4.5-.6m-6-6.4 1.3-.3h0q6.8-1.8 13-.5 3.4.6 6.7 2.1l.9.5 2.3.7 2.2 2.2 1.4 1.1-.2.2q9.3 10.5 1.8 20.4l.5 1.7-.3.5q-2 3.7-3.4 8.4-2.2 7.2-2.7 16.8v.9h0v.2q-.2 3.4-.1 7.1l-.7-1.2q-.2 4.5.5 9.7h0l.2.8q.8 5.2 2.4 11.2-2.1-6-2.6-11.2l-.1-.8-2.3-2.1-1.4-1.3-.4-.4q.6 15.9 11.5 32.1h0l3.2 1.9 2.7 1.7-1.6-2.5q-3.6-5.5-6-10.5-1.8-3.5-3-6.9m4.7 16.3-4.1-2.1-5.8-3-1.4-.7-2.3-6.7-9.4-8.4-4-3.5-3.2-3v-1.6l-2-.1-23.2-1.1-5.5-.3-13.8 1.3-.8 1.7m29-51v.1l1.6 7.4 1.9 8-12.1 32-.3.8m48.6-49.2 3-2.7q-1-2.8-3.3-6.3l-.8.8q-3.3-2.6-7.2-3.8-4.2-1.2-9.2-1m-4.7.6-.1-3.3m23.5 5.1 2.7-2.8m-5.7-4.2 4.5 2.9m3 21.7-.4-2m-2 1 1.6-2.7.3 1.1M160 53q0-1.5-.7-3.3m.3 8.7-.3.6q-5.3 10.4-6.2 24v.1-.2l1.2 1.8 1.4 2.3.4.7m-10 3q1.3 4 3.4 28.6M160 52.9q0 1.5-.7 2.7l.3 2.7M152 100q-.8-9 1.2-17m2.9 4.8q-.6 2.8-.7 5.9M87.2 81.1l6.2-4.1q9.1-6.4 17.6-14.2l.3-.4 3-2.7q2.1-3.9 2.2-6.4m-5.2 9.1-.5 1.2.2-.9m21.8 26.1-.4 1.4m23.9-37.9L140.2 67 133 88.8v13.9M87.2 81l-8.5 5-.5.2m-12.8 18 1 .2 9.1-.8 3.5-.4 9.4-.8 1-1.9.3-10.7 5.3-6.5h0L93.5 77m-12.2-2-4 1.2-14.9 3m19-4.1q17.3-5.5 27.8-22.6m-19.7 48.1 12.8.6 5.8-.5m-18.6-.1-7.2-.3m48.6 2.3-.5-.6m27.2-60.3-1.5 1.6" vector-effect="non-scaling-stroke"/><path fill="none" stroke="#7f7f2b" stroke-linecap="round" stroke-linejoin="round" stroke-opacity=".4" stroke-width="__RESOLUTION__" d="M158.9 69.9v6.8l-2.7 10m-.1 17.5 5.4 13.5v4.6m-2.4 7.3 1 8.3-3.8-1.9-3-9.4m-13.1-15.8-1.6 5.4-2.4-1.7v-8.2m22-49.9-9 14.7-3 19.6m12-34.3.7-1m-79.8 48v-.6m0 .5v8.3l-3.1-1.7-.4-6.2" vector-effect="non-scaling-stroke"/><path fill="#7e6350" d="m67.4 205 2.5-4.6-.3-4 4-2 6 3.5-.2 6.5.3.5q-5.6-5.7-12.3 0"/><path fill="#8d7965" d="M67.4 205q6.7-5.8 12.3 0 2 3 .4 7.3l-8.1 2q-6.8-1.9-6.3-6z"/><path fill="none" stroke="#7f7f2b" stroke-linecap="round" stroke-linejoin="round" stroke-opacity=".4" stroke-width="__RESOLUTION__" d="m79.8 205-.5-.6.4-6.5-6.1-3.6-4 2.1.3 4-2.5 4.5-1.7 3.4q-.5 4.1 6.3 6l8-2q1.7-4.4-.2-7.4" vector-effect="non-scaling-stroke"/><path fill="#65523f" d="M69 181.3q1.3-.7 3.3-.6 2 .2 3.5 1 1.5.7 1.7 1.7v.1l1 12.5q.2 1-1.2 1.6-1.2.7-2.2.6-.9-.1-2.4-.8-1.6-.8-1.7-1.7v-.4q.2-6.4-2.7-11.6l-.4-.7v-.2q-.2-1 1.1-1.6m-.7 2.5 1.2.9q1.5.7 3.5.8t3.3-.5 1.2-1.4q0 .8-1.2 1.4-1.3.6-3.3.5t-3.5-.8z"/><path fill="none" stroke="#7f7f2b" stroke-linecap="round" stroke-linejoin="round" stroke-opacity=".4" stroke-width="__RESOLUTION__" d="M69 181.3q1.3-.7 3.3-.6 2 .2 3.5 1 1.5.7 1.7 1.7v.1l1 12.5h0q.2 1-1.2 1.6-1.2.7-2.2.6-.9-.1-2.4-.8-1.6-.8-1.7-1.7v-.4q.2-6.4-2.7-11.6l-.4-.7v-.2q-.2-1 1.1-1.6m8.5 2.3q0 .8-1.2 1.4-1.3.6-3.3.5t-3.5-.8l-1.2-.9" vector-effect="non-scaling-stroke"/><path fill="#6a5b4a" d="M56 182.9q.6-4 3.8 6.3l-.9 4.1-15 2.9q-7.2 1.6-9.1-3l3.9-3.2 7.6-3.7 4-2.5z"/><path fill="none" stroke="#7f7f2b" stroke-linecap="round" stroke-linejoin="round" stroke-opacity=".4" stroke-width="__RESOLUTION__" d="m56 182.9-5.6 1-4.1 2.4-7.6 3.7-3.9 3.2q1.9 4.6 9 3l15.1-2.9.9-4.1q-3.2-10.3-3.7-6.3" vector-effect="non-scaling-stroke"/><path fill="#6b5643" d="m49.7 174.5 1 .8q1.4.8 3.3.9t3.4-.5q1.3-.5 1.5-1.4-.2.8-1.5 1.4-1.5.6-3.4.5-2-.1-3.3-.8zl-.3-.7v-.2q0-1 1.5-1.5 1.4-.7 3.4-.5 1.9 0 3.2.8t1.4 1.8v.1l-1.7 12.5q-.1 1-1.5 1.6-1.5.6-2.4.5t-2.3-.7q-1.3-.8-1.3-1.7l.1-.4q1.9-5.8-.1-11.6"/><path fill="none" stroke="#7f7f2b" stroke-linecap="round" stroke-linejoin="round" stroke-opacity=".4" stroke-width="__RESOLUTION__" d="M58.9 174.3q-.2.8-1.5 1.4-1.5.6-3.4.5-2-.1-3.3-.8l-1-.9q2 5.8.1 11.6l-.1.3q0 1 1.3 1.8 1.4.7 2.3.8.9 0 2.4-.6 1.4-.6 1.5-1.6h0zv-.2q.1-1-1.3-1.7-1.3-.7-3.2-.8t-3.4.5-1.5 1.5v.2l.3.7" vector-effect="non-scaling-stroke"/><path fill="#d6b0a3" d="m54.9 115.7 10-6.5 1.7 3.5 10.7 33.7-6.5 15-8.1 10z"/><path fill="#6a5b4a" d="m62.7 171.5-28.3-6.7q5.8-31.1 3-48.6l1.9-3.4 5-4.4 10.6 7.3z"/><path fill="#d1c6a0" d="m34.4 164.8-1.9-.5q-5.8-26.9 4.9-48.1 2.8 17.5-3 48.6"/><path fill="none" stroke="#7f7f2b" stroke-linecap="round" stroke-linejoin="round" stroke-opacity=".4" stroke-width="__RESOLUTION__" d="m54.9 115.7 10-6.5 1.7 3.5 10.7 33.7-6.5 15-8.1 10-28.3-6.7-1.9-.4q-5.8-26.9 4.9-48.1l1.9-3.4 5-4.4zl7.8 55.7" vector-effect="non-scaling-stroke"/><path fill="#d2c5b7" d="m69.8 118.7 1-1.1 1.9 3.4 8 7.3q8.6 5.7 11.9 14.2-1.5 1.3-2.7 3-6.3-14.2-20.1-26.8"/><path fill="#c8b7a4" d="M89.9 145.5q-5.5 7.6-5.7 23.7L79.7 180l-15.5-55 5.7-6.4q13.8 12.6 20.1 26.8"/><path fill="#ebdecf" d="m79.6 180-24.8-4.3-8.3-51.5-.3-7.7L64 125z"/><path fill="none" stroke="#7f7f2b" stroke-linecap="round" stroke-linejoin="round" stroke-opacity=".4" stroke-width="__RESOLUTION__" d="m69.8 118.7 1-1.1 1.9 3.4 8 7.3q8.6 5.7 11.9 14.2-1.5 1.3-2.7 3-5.5 7.6-5.7 23.7L79.7 180l-24.8-4.4-8.3-51.5-.3-7.7L64 125zm-5.7 6.3 15.5 55" vector-effect="non-scaling-stroke"/><path fill="#756453" d="m68.8 112.8 1.6 3.5 1.8 5.7-1 7.7-2.3.9-10.2 6.3v-17.6l3-1.9z"/><path fill="#7d7337" d="m58.8 137-19.2-10.5-.7-2.6 6.2-11.6 13.6 7z"/><path fill="#baa98d" d="m38.9 123.9-2-7.5 1.3-7.6 6.9 3.5z"/><path fill="#ebdecf" d="m38.2 108.8 2.4-3.3.4-.9 5.7-3.7 3.3 3 6.7 1.8-2.5 1.4-5.6 4.3q8.9 4.3 13 6l-2.9 2-13.6-7zm2.5-3.3 9.4-1.6z"/><path fill="#6d6430" d="m56.7 105.8 12 7-7 4.6q-4.2-1.7-13.1-6l5.6-4.3z"/><path fill="none" stroke="#7f7f2b" stroke-linecap="round" stroke-linejoin="round" stroke-opacity=".4" stroke-width="__RESOLUTION__" d="m68.8 112.8 1.6 3.5 1.8 5.7-1 7.7-2.3.9-10.2 6.3-19.1-10.4-.7-2.6-2-7.5 1.3-7.6 2.4-3.3 9.4-1.6 6.7 1.8zl-7 4.6-3 2v17.5m-20.5-28.1 6.9 3.5 13.6 7" vector-effect="non-scaling-stroke"/><path fill="#624f3c" d="M63.4 103q-1.1 5 3.3 9.2l-8.9 5.1-.3-.2V96.5l1.6-.8v5.3l.3-.2v2.2z"/><path fill="#c5b789" d="M57.5 96.5v20.6l-6.2-3.6-1.1.5-8.8-4.4 2-3q3.9-6.3 3.5-11.7l2.2 3.4v-1.7l3.8 2.2zm-8.4 15.7 2.1 1.3z"/><path fill="none" stroke="#7f7f2b" stroke-linecap="round" stroke-linejoin="round" stroke-opacity=".4" stroke-width="__RESOLUTION__" d="m57.5 117.1.4.2 8.8-5.1q-4.4-4.3-3.4-9.2m-4.2-2v-5.3m-1.6 21.4-6.2-3.6-1.1.5-8.8-4.4 2-3q3.9-6.3 3.5-11.7m4.4 18.6-2.2-1.3" vector-effect="non-scaling-stroke"/><path fill="#d6b0a3" d="m61 125.7 10-6.5 1.7 3.5 10.7 33.7-6.5 14.8-8.1 10.2z"/><path fill="#a48466" d="M68.8 181.4q-7.8 1-15.2-1.8-3.9-29.9 0-57.6l7.4 3.7z"/><path fill="#e3d0ac" d="M53.6 179.6q-7.7-3-15-10-3-20.2.6-46.8l1.2-7.6 13.2 6.8q-3.9 27.7 0 57.6"/><path fill="none" stroke="#7f7f2b" stroke-linecap="round" stroke-linejoin="round" stroke-opacity=".4" stroke-width="__RESOLUTION__" d="m61 125.7 10-6.5 1.7 3.5 10.7 33.7-6.5 14.8-8.1 10.2q-7.8 1-15.2-1.8-7.7-3-15-10-3-20.2.6-46.8l1.2-7.6 13.2 6.8zl7.8 55.7" vector-effect="non-scaling-stroke"/><path fill="#9e8261" d="m59.9 133.1 10.9 4.6 7.5-6.2 1.5 2.7 11 27.1-4.1 12.8-.6 1h-2.5q-8.4-.3-13.8-3.2-14-36.5-10-38.8"/><path fill="#af997e" d="m86.1 175.1-5 8-24.5-3.5-.4-4.4 3.3 2.8 20.9 3.1 3.2-6z"/><path fill="#af977a" d="m56.3 175.2-3-38.2.4-6.4 6.1 2.5q-4 2.3 10 38.8 5.4 2.9 13.8 3.2l-3.2 6-20.9-3.1z"/><path fill="none" stroke="#7f7f2b" stroke-linecap="round" stroke-linejoin="round" stroke-opacity=".4" stroke-width="__RESOLUTION__" d="m59.9 133.1 10.9 4.6 7.5-6.2 1.5 2.7 11 27.1-4.1 12.8-.6 1-5 8-24.5-3.5-.4-4.4-3-38.2.5-6.4z" vector-effect="non-scaling-stroke"/><path fill="#c99d7e" d="m13.6 64.8.9.5v4.5l-.8-1z"/><path fill="#624f3c" d="m14.6 69.8-1.6.6-1.1-1 1.8-.6z"/><path fill="#ebdecf" d="m11.9 69.4.7-4.5 1-.2v4.1z"/><path fill="none" stroke="#7f7f2b" stroke-linecap="round" stroke-linejoin="round" stroke-opacity=".4" stroke-width="__RESOLUTION__" d="m13.6 64.8.9.5v4.5l-1.5.6-1.1-1" vector-effect="non-scaling-stroke"/><path fill="#ebdecf" d="m2.9 63.9 1-1L6.5 65l-1.2.7z"/><path fill="#c99d7e" d="m2.9 63.9 2.3 1.9 1.2-.7.4 1-.7 1-1.6-1.2zM6 67.1l-1-1.3z"/><path fill="none" stroke="#7f7f2b" stroke-linecap="round" stroke-linejoin="round" stroke-opacity=".4" stroke-width="__RESOLUTION__" d="m6.4 65 .4 1.1m-2.3-.2-1.6-2m2.3 1.9L6 67" vector-effect="non-scaling-stroke"/><path fill="#c99d7e" d="M10.6 67.9 11 69l-.8 1.2L7 68.6l-2-2.2 4.2 2.3z"/><path fill="#ebdecf" d="m10.6 67.9-1.4.8L5 66.5l1.3-1.2z"/><path fill="none" stroke="#7f7f2b" stroke-linecap="round" stroke-linejoin="round" stroke-opacity=".4" stroke-width="__RESOLUTION__" d="m5 66.4 2 2.2 3.3 1.7.8-1.2-.5-1.2" vector-effect="non-scaling-stroke"/><path fill="#c99d7e" d="m3.4 67.8.3 1-.8.9-1.5-1.4L0 66.2l2.2 2.1z"/><path fill="#ebdecf" d="m0 66.2 1.2-.9 2.2 2.5-1.2.5z"/><path fill="none" stroke="#7f7f2b" stroke-linecap="round" stroke-linejoin="round" stroke-opacity=".4" stroke-width="__RESOLUTION__" d="m3.4 67.8.3 1-.8.9-1.5-1.4L0 66.2" vector-effect="non-scaling-stroke"/><path fill="#ebdecf" d="m1.9 68.6 1-1.4 6.7 2.7-1.1 1.2z"/><path fill="#c99d7e" d="m1.9 68.6 6.6 2.5 1.1-1.2.7 1.1-.6 1.3-5.5-1.9z"/><path fill="none" stroke="#7f7f2b" stroke-linecap="round" stroke-linejoin="round" stroke-opacity=".4" stroke-width="__RESOLUTION__" d="m9.6 69.9.7 1.1-.6 1.3-5.5-1.9-2.3-1.8" vector-effect="non-scaling-stroke"/><path fill="#c99d7e" d="m3.9 70.6.4 1-.7 1L2 71.4l-1.6-2 2.3 2z"/><path fill="#ebdecf" d="m.4 69.4 1-1L4 70.6l-1.2.8z"/><path fill="none" stroke="#7f7f2b" stroke-linecap="round" stroke-linejoin="round" stroke-opacity=".4" stroke-width="__RESOLUTION__" d="m3.9 70.6.4 1-.7 1L2 71.4" vector-effect="non-scaling-stroke"/><path fill="#c99d7e" d="M8.8 75.2 4.6 74l-2.3-1.7L7.5 74zL7.5 74l1.2-1.2.7 1z"/><path fill="#ebdecf" d="m7.5 74-5.2-1.7.9-1.6 5.5 2.1z"/><path fill="none" stroke="#7f7f2b" stroke-linecap="round" stroke-linejoin="round" stroke-opacity=".4" stroke-width="__RESOLUTION__" d="m4.6 74 4.2 1.2L7.5 74m1.3 1.2.6-1.4-.7-1" vector-effect="non-scaling-stroke"/><path fill="#624f3c" d="m16.6 70.7.8 1.7-4.5 4.8-1.2-2.7z"/><path fill="#af9f7a" d="m12.9 77.2-7.1-2.9.2-2.1 5.7 2.3z"/><path fill="#ebdbc2" d="m6 72.2 5.7-3.1 4.9 1.6-5 3.8z"/><path fill="none" stroke="#7f7f2b" stroke-linecap="round" stroke-linejoin="round" stroke-opacity=".4" stroke-width="__RESOLUTION__" d="m16.6 70.7.8 1.7-4.5 4.8-7.1-2.9.2-2.1 5.7-3.1zl-5 3.8 1.3 2.7m-1.2-2.7L6 72.2" vector-effect="non-scaling-stroke"/><path fill="#d8c8a3" d="M33.4 74.9q-.7-.1-1.4.6-1 .8-1.4 2.3l-.2 1-17.4-5v-.5q.2-.7 1.2-1.6t1.8-.6l.3.2q6.7 2.5 17.1 3.5"/><path fill="#ebdecf" d="m30.4 78.8.2-1q.4-1.5 1.4-2.3.7-.7 1.4-.7h.3q.9.3 1.2 1.5t-.1 2.7-1.4 2.3q-1 .9-1.7.6h-.2q-.8-.3-1-1.5-.2-.7-.1-1.6"/><path fill="#af9f7a" d="m13 73.8 17.4 5q-.1.9.1 1.6.2 1.2 1 1.4l-17.1-5.1h-.1q-.7-.3-1.1-1.2l-.1-.3z"/><path fill="none" stroke="#7f7f2b" stroke-linecap="round" stroke-linejoin="round" stroke-opacity=".4" stroke-width="__RESOLUTION__" d="m30.4 78.8.2-1q.4-1.5 1.4-2.3.7-.7 1.4-.7-10.4-1-17.1-3.5L16 71q-1-.2-1.8.6-1 .9-1.1 1.6l-.1.5.1 1.4.1.3q.4 1 1.1 1.2h0l17.2 5.1q-.8-.2-1-1.4-.2-.7-.1-1.6m1 3 .3.1q.8.3 1.7-.6h0q.9-.9 1.4-2.3.4-1.5.1-2.7t-1.2-1.5h-.3" vector-effect="non-scaling-stroke"/><path fill="#af9f7a" d="m46.2 82.9-14.9-1.3h-.1q-1.1 0-2-1.4l-.6-1Q41.5 81 42 73.4l3.5-.2q-1 .1-1.7 1.4-.7 1.4-.5 3.4t1 3.4q.9 1.3 1.9 1.4"/><path fill="#d8c8a3" d="m28.6 79.2-.4-1.4q-.1-.9.6-2.4.8-1.3 1.9-1.3h.4l10.9-.7q-.5 7.7-13.4 5.8"/><path fill="#ebdecf" d="M45.5 73.3h.2q1.1 0 2 1.4t1 3.4q.2 2-.5 3.3-.6 1.4-1.8 1.4h-.2q-1-.1-1.9-1.4-.8-1.5-1-3.4-.2-2 .5-3.4.7-1.2 1.7-1.3"/><path fill="none" stroke="#7f7f2b" stroke-linecap="round" stroke-linejoin="round" stroke-opacity=".4" stroke-width="__RESOLUTION__" d="m46.2 82.9-14.9-1.3h-.1q-1.1 0-2-1.4l-.6-1-.4-1.4q-.1-.9.6-2.4.8-1.3 1.9-1.3h.4l10.9-.7 3.5-.2h.2q1.1 0 2 1.5.9 1.4 1 3.4.2 2-.5 3.3-.6 1.4-1.8 1.4zq-1-.1-1.9-1.4-.8-1.5-1-3.4-.2-2 .5-3.4.7-1.2 1.7-1.3" vector-effect="non-scaling-stroke"/><path fill="#d8c8a3" d="M40.8 77.3q.3-2.7 2.2-4.7 2.3-2.2 5.5-2.2 1.8 0 3.2.7l2.3 1.5q1.9 2 2.2 4.7-10 7.5-15.4 0"/><path fill="#745c47" d="M56.2 77.3v.8q0 3.2-2.2 5.5t-5.5 2.3-5.5-2.3q-1.1-1.2-1.7-2.7-.5-1.2-.5-2.8v-.8q5.4 7.5 15.4 0"/><path fill="none" stroke="#7f7f2b" stroke-linecap="round" stroke-linejoin="round" stroke-opacity=".4" stroke-width="__RESOLUTION__" d="M40.8 77.3q.3-2.7 2.2-4.7 2.3-2.2 5.5-2.2 1.8 0 3.2.7l2.3 1.5q1.9 2 2.2 4.7v.8q0 3.2-2.2 5.5t-5.5 2.3-5.5-2.3q-1.1-1.2-1.7-2.7-.5-1.2-.5-2.8z" vector-effect="non-scaling-stroke"/><path fill="#d1c4b8" d="m71 78.2.5.5.5 3 .3 5.1-2.4 6.8-.4.3q-6.8 4.8-4.7 12.7l-2.6 1.9q-.9-5.7.7-11.8 1.9-5.3 6.7-7.9l.2-7.8z"/><path fill="#9f8760" d="m62.2 108.5-4.5 3.3 2.6-8.3-.4-3.4.5-3 .4-1.5 4.6-6-7.4-7.2 4.1-1.2-4.9.4-2.1-2.2-3.7-7.5 11.9-2 7.8 8.3-1.3 2.8-.2 7.8q-4.8 2.6-6.7 7.9-1.6 6.1-.7 11.8"/><path fill="#e3d0ac" d="m57.8 111.8-14.1-7.7q1.4-4.7 1.7-8.3.2-1.6 0-3.6 2 6.3 14.5 7.9l.5 3.4zM44.6 86.9 47 75.1l2.8-3 1.6-.2 3.7 7.5 2.1 2.2-2.9.2L51 78l2.2 5.6 4.9-1.4 7.4 7.3-4.6 6L45 88.3z"/><path fill="#baae7a" d="m45.4 92.2-.5-3.8 15.9 7.2-.4 1.5-.5 3q-12.5-1.6-14.5-8"/><path fill="#ebdecf" d="m44.9 88.4-.5-.2.2-1.3z"/><path fill="#b49981" d="m57.2 81.6 4.9-.3-4.1 1-4.9 1.4-2.2-5.6 3.5 3.7z"/><path fill="none" stroke="#7f7f2b" stroke-linecap="round" stroke-linejoin="round" stroke-opacity=".4" stroke-width="__RESOLUTION__" d="m71 78.2.5.5.5 3 .3 5.1-2.4 6.8-.4.3q-6.8 4.8-4.7 12.7l-2.6 1.9-4.5 3.3-14-7.7q1.4-4.7 1.7-8.3.2-1.6 0-3.6l-.5-3.8-.3-1.5L47 75.1l2.8-3 1.6-.2 11.9-2z" vector-effect="non-scaling-stroke"/><path fill="#9f8760" d="m54.8 128.4-2.7-8.8 14 2.8 4.6-3 4.3 8.8.2.2z"/><path fill="#af977a" d="M75.2 128.4q6.6 6 14.4 23.3l1.6 13.4-1 9.4-18.7-3.7-16.7-42.4z"/><path fill="none" stroke="#7f7f2b" stroke-linecap="round" stroke-linejoin="round" stroke-opacity=".4" stroke-width="__RESOLUTION__" d="m54.8 128.4-2.7-8.8 14 2.8 4.6-3 4.3 8.8.2.2q6.6 6 14.4 23.3l1.6 13.4-1 9.4-18.7-3.7z" vector-effect="non-scaling-stroke"/><path fill="#80674f" fill-opacity=".3" d="m68.8 135-7.7.2-3.8 9.2-7.8-12.3-4.5-1.2-2.4 4.9-5-13.3 9.5-10.8 1.5.6 7.6 9.5z"/><path fill="#7b604d" d="M64.9 87.3q0-3.2 2.1-5.5 2.4-2.3 5.5-2.3 3 0 5 1.8l.2.3.3.2q1.4 1.4 2 3.1v.2l.3 2.2q0 1.3-.4 2.4l-.3.8-1.4-3.2q1.1-3.6-4-5.6-5.7.7-9.3 5.6"/><path fill="#9f8760" d="M64.9 87.3q3.6-4.9 9.3-5.6 5.1 2 4 5.6-5.6 6.8-11.2 5.3-2.1-2.2-2.1-5.3"/><path fill="#725749" d="m78.2 87.3 1.4 3.2q-.5 1.2-1.6 2.2l-.5.5q-2.1 1.7-5 1.7-3.1 0-5.5-2.2v-.1q5.6 1.5 11.2-5.3"/><path fill="#d8c8a3" d="m78 81.8-.3-.2-.1-.2.2.2z"/><path fill="none" stroke="#7f7f2b" stroke-linecap="round" stroke-linejoin="round" stroke-opacity=".4" stroke-width="__RESOLUTION__" d="M77.6 81.4q-2.1-1.9-5-1.9-3.2 0-5.5 2.3t-2.2 5.5h0q0 3 2 5.3h.1v.1q2.4 2.2 5.5 2.2 2.9 0 5-1.7l.5-.5q1-1 1.6-2.2l.3-.8q.4-1.1.4-2.5l-.3-2.1v-.2q-.6-1.7-2-3.2l-.2-.1z" vector-effect="non-scaling-stroke"/><path fill="#9f8760" d="m73.6 91 .5-.5q1.4-1.6 3.1-2.3 1.8-.8 2.3-.4l2.8 2.7q.9.9 2.5 2-3.8 1 2.7 5.7l-.2.1v.1l-.5.6q-9.1-3.6-13.2-8"/><path fill="#d8c8a3" d="M84.8 92.5q2.7 1.7 7.2 3.9l-2.4.3q-1 .4-2.1 1.5-6.5-4.8-2.7-5.7"/><path fill="#866b53" d="m92 96.4.3.2q1.4.8 1.1 2.2t-1.2 2.4-2.6 1.7l-2.8.1-.3-.2q-.4-.5-.4-1v-1l.8-1.8.3-.6h.1l.2-.2q1.1-1.1 2.1-1.5z"/><path fill="#81694e" d="m86.5 102.8-1.7-.6q-7.5-2.8-11.8-6.5-1-.6-.7-2.1.2-1.3 1.3-2.7 4 4.5 13.3 8.1l-.8 1.8v1q0 .5.4 1"/><path fill="none" stroke="#7f7f2b" stroke-linecap="round" stroke-linejoin="round" stroke-opacity=".4" stroke-width="__RESOLUTION__" d="m73.6 91 .5-.5q1.4-1.6 3.1-2.3 1.8-.8 2.3-.4l2.8 2.7q.9.9 2.5 2 2.7 1.7 7.2 3.9l.3.2h0q1.4.8 1.1 2.2t-1.2 2.4-2.6 1.7l-2.8.1-.3-.2-1.7-.6q-7.5-2.8-11.8-6.5-1-.6-.7-2.1.2-1.3 1.3-2.7M86.9 99l.3-.6h.1l.2-.2q1.1-1.1 2.1-1.5l2.4-.3m-5.5 6.3q-.4-.4-.4-.9v-1l.8-1.8" vector-effect="non-scaling-stroke"/><path fill="#b79c73" d="m115.8 107.2 4.5-1.2v1.1l-5 1.3z"/><path fill="#ebdecf" d="m120.3 106-4.5 1.2-1.8-1.8 5.4-.3z"/><path fill="#624f3c" d="m115.8 107.2-.5 1.2-1.8-1.5.5-1.5z"/><path fill="none" stroke="#7f7f2b" stroke-linecap="round" stroke-linejoin="round" stroke-opacity=".4" stroke-width="__RESOLUTION__" d="m115.8 107.2-.5 1.2m5-1.3V106m-6.8.9.5-1.5" vector-effect="non-scaling-stroke"/><path fill="#d8c8a3" d="M88 99.6q.9-1.5 2.2-2.3t2.3-.5l.1.1q6.8 4.2 17 7.2-.8-.2-1.9.5-.8.4-1.6 1.7-12-1-18.1-6.7"/><path fill="#ebdecf" d="m109.6 104 .3.2q1.3.5 1.3 1.6 0 1.3-.5 2.3-.5.8-2 1.7-1.2.7-2.2.4l-.3-.3q-.6-.3-.6-1.4 0-1.2.5-2.2.8-1.3 1.6-1.7 1-.7 1.9-.5"/><path fill="#9f8264" d="M106.2 110Q96 108 88 104q-1-.3-1-1.7t1-2.7q6 5.7 18 6.7-.4 1-.4 2.2 0 1 .6 1.4"/><path fill="none" stroke="#7f7f2b" stroke-linecap="round" stroke-linejoin="round" stroke-opacity=".4" stroke-width="__RESOLUTION__" d="M88 99.6q.9-1.5 2.2-2.3t2.3-.5l.1.1q6.8 4.2 17 7.2h.3q1.3.6 1.3 1.8t-.5 2.2q-.5.8-2 1.7-1.2.7-2.2.4l-.3-.3Q96 108.2 88 104.2h0q-1-.4-1-1.7 0-1.4 1-2.8zm18 6.7q.8-1.3 1.6-1.7 1-.7 1.9-.5m-3.4 5.8q-.6-.3-.6-1.4 0-1.2.5-2.2" vector-effect="non-scaling-stroke"/><path fill="#e3ceac" d="m105.7 110.1 7.5-5 6.6 6.4-6.1 3.8z"/><path fill="#b49769" d="m119.8 111.5-.2 3.4-6.1 3.8.2-3.4z"/><path fill="#af9f7a" d="m113.5 118.8-8-5.3.2-3.4 8 5.3z"/><path fill="none" stroke="#7f7f2b" stroke-linecap="round" stroke-linejoin="round" stroke-opacity=".4" stroke-width="__RESOLUTION__" d="m105.7 110.1 7.5-5 6.6 6.4-.2 3.4-6.1 3.8-8-5.2zl8 5.3 6.1-3.9m-6.1 3.8-.2 3.5" vector-effect="non-scaling-stroke"/><path fill="#c99d7e" d="m123.7 111.4-1.6-.8 1-1.5 1 1.2z"/><path fill="#af9f7a" d="m122 110.6 1.7.8-4.5 2.8-1.5-1.2z"/><path fill="#ebdecf" d="m123.2 109-1.1 1.6-4.4 2.4 2-2.3z"/><path fill="none" stroke="#7f7f2b" stroke-linecap="round" stroke-linejoin="round" stroke-opacity=".4" stroke-width="__RESOLUTION__" d="m123.7 111.4.5-1.1" vector-effect="non-scaling-stroke"/><path fill="#ebdecf" d="m125.5 114.8-1.8.5-7.4-1.3 3-.5z"/><path fill="#dcc4ad" d="m123.7 115.3 1.8-.5v1.5l-1.1.7z"/><path fill="#cfc2af" d="m116.3 114 7.4 1.3.7 1.7-7.7-1.2z"/><path fill="none" stroke="#7f7f2b" stroke-linecap="round" stroke-linejoin="round" stroke-opacity=".4" stroke-width="__RESOLUTION__" d="m124.4 117 1.1-.7" vector-effect="non-scaling-stroke"/><path fill="#ebdecf" d="m112.9 115.6 2.8-1 4.8.1-1.7.8z"/><path fill="#dcc4ad" d="m120.5 114.7.2 1.5-1 .8-1-1.5z"/><path fill="#cfc2af" d="m119.8 117-6.3.3-.7-1.7 6-.1z"/><path fill="#ebdecf" d="m125.5 108.4-1.5-.2-1.8 2.5 1-2.4 1.2-1.6 1.1.6z"/><path fill="#af9f7a" d="m122.2 110.7 1.8-2.5 1.5.2-1.8 2.8z"/><path fill="none" stroke="#7f7f2b" stroke-linecap="round" stroke-linejoin="round" stroke-opacity=".4" stroke-width="__RESOLUTION__" d="M125.5 108.4v-1.1l-1.1-.6-1.2 1.6-1 2.4" vector-effect="non-scaling-stroke"/><path fill="#cfc2af" d="m127.4 115.8-3.2 1-.8-1.3 2.9-.9z"/><path fill="#ebdecf" d="m123.4 115.5 2.3-1.2 1.9-.5-1.3.8z"/><path fill="#dcc4ad" d="m127.6 113.8.5 1.2-.7.8-1.1-1.2z"/><path fill="none" stroke="#7f7f2b" stroke-linecap="round" stroke-linejoin="round" stroke-opacity=".4" stroke-width="__RESOLUTION__" d="m123.4 115.5 2.3-1.2 1.9-.5.5 1.2-.7.8" vector-effect="non-scaling-stroke"/><path fill="#dcc4ad" d="m122.6 115.7-1.1-1 1.2-1 .5 1.1z"/><path fill="#cfc2af" d="m121.5 114.7 1.1 1-3 1.4-1-1.3z"/><path fill="#ebdecf" d="m122.7 113.7-1.2 1-2.8 1 2.1-1.4z"/><path fill="none" stroke="#7f7f2b" stroke-linecap="round" stroke-linejoin="round" stroke-opacity=".4" stroke-width="__RESOLUTION__" d="m122.6 115.7.7-.9" vector-effect="non-scaling-stroke"/><path fill="#ebdecf" d="M59.9 65.1q.2-.7 1.3-1t2.5 0 2.3 1 .6 1.5-1.3 1q-1.2.3-2.6 0t-2.2-1-.6-1.5"/><path fill="#66523e" d="M66.6 66.7 63.7 76q-.2.8-1.4 1.1-1.1.2-2.5 0t-2.3-1-.5-1.5v-.3l2.9-9.3q-.2.8.6 1.5t2.2 1 2.5 0 1.4-1"/><path fill="none" stroke="#7f7f2b" stroke-linecap="round" stroke-linejoin="round" stroke-opacity=".4" stroke-width="__RESOLUTION__" d="M59.9 65.1q.2-.7 1.3-1t2.5 0 2.3 1 .6 1.5h0l-2.9 9.5h0q-.2.8-1.4 1.1-1.1.2-2.5 0t-2.3-1-.5-1.5v-.3zq-.2.8.6 1.5t2.2 1 2.5 0 1.4-1" vector-effect="non-scaling-stroke"/><path fill="#564534" d="m51.7 58.4.4 5.4q-1.3-4.1-6.7-.4-.7-7 8-10.2z"/><path fill="none" stroke="#7f7f2b" stroke-linecap="round" stroke-linejoin="round" stroke-opacity=".4" stroke-width="__RESOLUTION__" d="m51.7 58.4 1.6-5.2q-8.6 3.1-7.9 10.2 5.4-3.7 6.7.4z" vector-effect="non-scaling-stroke"/><path fill="#fff" fill-opacity=".7" d="M51.8 53.3q.4.9 1.5 1t2.5-.7 2.2-2.2q.7-1.2.5-2.1.2.9-.5 2.1-.8 1.4-2.2 2.2t-2.5.7-1.5-1v-.1q-.3-1 .4-2.4.8-1.2 2.1-2.1t2.6-.8 1.5 1.2v.1l1.3 4.4q.3 1-.4 2.3-.8 1.4-2.1 2.2t-2.6.7-1.5-1.1v-.5z"/><path fill="none" stroke="#7f7f2b" stroke-linecap="round" stroke-linejoin="round" stroke-opacity=".4" stroke-width="__RESOLUTION__" d="M58.5 49.3q.2.9-.5 2.1-.8 1.4-2.2 2.2t-2.5.7-1.5-1l1.3 4v.4q.3 1 1.5 1.1t2.6-.7 2.1-2.2.4-2.3zl-.1-.1q-.3-1-1.5-1.2-1.2 0-2.5.8t-2.2 2.1-.5 2.4l.1.1" vector-effect="non-scaling-stroke"/><path fill="#b78859" d="m59.2 39.4 1.5 5.3q.3 1.1-.5 2.8-1 1.6-2.6 2.6t-3.1.9q-1.5-.2-1.8-1.4l-.1-.5-1.5-4.9q.4 1.2 1.8 1.4 1.4 0 3-1t2.6-2.5q.9-1.5.7-2.7"/><path fill="#e3d0ac" d="M59.2 39.4q.2 1.2-.7 2.7T56 44.7q-1.7 1-3.1.9-1.4-.2-1.8-1.4-.4-1.3.5-2.9t2.6-2.5q1.6-1.1 3.1-1 1.4.1 1.8 1.5z"/><path fill="none" stroke="#7f7f2b" stroke-linecap="round" stroke-linejoin="round" stroke-opacity=".4" stroke-width="__RESOLUTION__" d="m51.1 44.3 1.5 4.8.1.5q.3 1.2 1.8 1.4 1.5 0 3.1-.9t2.6-2.6q.8-1.7.5-2.8l-1.5-5.3q.2 1.2-.7 2.7T56 44.7q-1.7 1-3.1.9-1.4-.2-1.8-1.4-.4-1.3.5-2.9t2.6-2.5q1.6-1.1 3.1-1 1.4.1 1.8 1.5v.1" vector-effect="non-scaling-stroke"/><path fill="#ded4ca" d="m64.4 38.8 5.5.5.1.1h.4q2 .7 3.7 1.8l1.8 1.2q1.5 1.5 2.7 3.4 4 6.7.6 13.8Q76 66 72.7 68q-3.5 2-5.7 2.7l-1 .2.3-1.3q4.3-3.6 4.5-7.1 4.5-.6 6-9.6.3-6.6-5-10.2-5.3-3.8-7.4-4"/><path fill="#947858" d="m66 71-8 .6h-1.4q-1-.2-1.6-.7l-.5-.7-.8-1.3 7.5.3q7.3-4.4 1.4-7.6 7-1.1 7-13-6.1-7.4-16.8-2.1 1.5-3.2 4.7-5.2l1.4-.7.1-.2q2.2-1.1 4.5-1.5l.9-.1q2.1.2 7.4 4 5.3 3.6 5 10.2-1.5 9-6 9.6-.2 3.5-4.5 7zM51.3 57.3l.5-1-.2-1.3q3 3.4 4.9 4-3.1.1-5.2-1.7"/><path fill="#e3d0ac" d="M53.7 69q-2.2-3.7-3.5-6.7-.7-1.5 1.1-5 2.1 1.8 5.2 1.8-1.9-.7-5-4.1l-.1-1.3q-.2-1.6 0-3.1l.6-2.1.8-2q10.7-5.3 16.9 2.2-.1 11.8-7.1 12.9 6 3.2-1.4 7.6z"/><path fill="#ebdecf" d="m57.5 41.3 1.3-.7.2-.2-.1.2z"/><path fill="none" stroke="#7f7f2b" stroke-linecap="round" stroke-linejoin="round" stroke-opacity=".4" stroke-width="__RESOLUTION__" d="m64.4 38.8 5.5.5.1.1h.4q2 .7 3.7 1.8l1.8 1.2q1.5 1.5 2.7 3.4 4 6.7.6 13.8Q76 66 72.7 68q-3.5 2-5.7 2.7l-1 .2-8 .6h-.8m-.2 0h-.4q-1-.2-1.6-.7l-.5-.7-.8-1.3q-2.2-3.6-3.5-6.7-.7-1.4 1.1-5l.5-.9-.2-1.3-.2-1.3q-.2-1.6 0-3.1l.6-2.1.8-2q1.5-3.2 4.7-5.2l1.3-.7.2-.2q2.2-1.1 4.5-1.5l.9-.1" vector-effect="non-scaling-stroke"/><path fill="none" stroke="#917c4f" stroke-linecap="round" stroke-linejoin="round" stroke-opacity=".5" stroke-width="4" d="M68.4 67.6q2.3-2.5 2.4-5 4.5-.6 6-9.6.2-5.4-3.3-8.8"/><path fill="none" stroke="#917c4f" stroke-linecap="round" stroke-linejoin="round" stroke-opacity=".5" stroke-width="2" d="m73.5 44.2-.2-.3-1.5-1.1-2.7-1.9m-4.6 29.2 1.8-.4 1.9-1.9.2-.2"/><path fill="#e7dfd3" d="m46.5 113.7-3.5-2 3.3-1.8 3.4 2z"/><path fill="#e3d0ac" d="m43 111.8 3.5 1.9-.2.1v6l-3.4-2v-6z"/><path fill="#6d6430" d="m46.5 113.7 3.2-1.9v6l-3.5 2v-6z"/><path fill="none" stroke="#7f7f2b" stroke-linecap="round" stroke-linejoin="round" stroke-opacity=".4" stroke-width="__RESOLUTION__" d="m49.7 111.9-3.5-2-3.2 1.8-.1.1v6l3.4 2 3.4-2z" vector-effect="non-scaling-stroke"/><path fill="#403426" d="M69.2 133.3v1.8l-3.5 3.2-5.9-7.5 1-.4q2.9-.8 8.4 2.9"/><path fill="#eee0cc" d="m59.9 130.9-1.2 1.2-11-14.3-.1-3.1 13.3 15.7z"/><path fill="#e3d0ac" d="M58.7 132.1q-1.9 2.5-2.4 8.3l-8.2-16.2-.4-6.4z"/><path fill="#866b53" d="m47.6 114.7-.1-1.6 21.7 20v.2q-5.5-3.7-8.4-2.9z"/><path fill="none" stroke="#7f7f2b" stroke-linecap="round" stroke-linejoin="round" stroke-opacity=".4" stroke-width="__RESOLUTION__" d="m59.9 130.9-1.2 1.2q-1.9 2.5-2.4 8.3l-8.2-16.2-.4-6.4-.1-3.1-.1-1.6 21.7 20m0 .2q-5.5-3.7-8.4-2.9l-1 .4" vector-effect="non-scaling-stroke"/><path fill="#866b53" d="M41.5 115.9q0-.7 1.2-2.4l1.5 8.1 3.5 5.5v.5-.1q-1.9-1.3-3.5-.2l-.5.4q-2.8-4.9-2.2-11.9"/><path fill="#eee0cc" d="M41.5 115.9q-.6 6.9 2.2 11.8-1 .8-2.1 2.7l-1.4-12z"/><path fill="#403426" d="M44.2 127.3q1.6-1.1 3.5.2l-.4 2.5h-1z"/><path fill="#e3d0ac" d="m41.6 130.4-1.1 2.4q-4-6.3-.3-14.4z"/><path fill="none" stroke="#7f7f2b" stroke-linecap="round" stroke-linejoin="round" stroke-opacity=".4" stroke-width="__RESOLUTION__" d="m47.7 127-3.5-5.4-1.5-8q-1.2 1.7-1.2 2.3l-1.3 2.5q-3.7 8.1.3 14.4l1.1-2.4q1-1.9 2.1-2.7l.5-.4q1.6-1.1 3.5.2h0" vector-effect="non-scaling-stroke"/><path fill="#a39c56" d="m48.4 169.6 2.4.6 1.3 2.5-2 1.5-3-2.5zm-5.8-2.5 1.4-.5 1.6 8-6.1-5-.3-8.2zm.6-25.9v-.6l-3-.4 1.2-2.1 2.4.6z"/><path fill="#776d37" d="m66.7 172.9 6 4-8.1 2-2-3.5 1.2-2zm21 .3q-1.4-12-8.2-22.8 9 10.9 10 17.8z"/><path fill="#f2eae1" d="m62.1 63.3 1.3.6.5.9q-.1.4-.7.5l-1.3-.1-1.3-.7q-.5-.4-.4-.8t.5-.5zM51 59.9l.5-.6 1.3.1 1.3.8q.5.5.5 1t-.5.5h-1.4l-1.2-.9q-.5-.5-.5-.9"/><path fill="none" stroke="#624f3c" stroke-linecap="round" stroke-linejoin="round" stroke-opacity=".4" stroke-width="1" d="m60.7 60.6 4.8 1.7m-13-5.5 4 1.8"/><path fill="none" stroke="#9f8760" stroke-linecap="round" stroke-linejoin="round" stroke-opacity=".6" stroke-width="__RESOLUTION__" d="m62.8 55.1 6.5 3.6m-17.4-6.5 7.2 1" vector-effect="non-scaling-stroke"/><path fill="none" stroke="#624f3c" stroke-linecap="round" stroke-linejoin="round" stroke-opacity=".6" stroke-width="1" d="m56.2 61.2 1.8.7"/></g><path id="f" fill="none" stroke="#564534" stroke-linecap="round" stroke-linejoin="round" stroke-opacity=".1" stroke-width="__RESOLUTION__" d="m97.3-204.7-3.6 2.1m10.6 10.7h-4.8m-6.7 6.7-10.6-6.2-16.5.5m19.5 64.4L84-138.1m13.3 26.2L92-123m-31.5-49.3 10.2-3.1h8.5m-25.8 24 11.5-.9m7.6 11.1-21.8-.9m2.6-17.3-16.8 4.8M5.7-91.5 23.1-98m7 17.8L20-75.5l-8.4.5m66.2-85.7 8 4.8m-94.2-56.4 4.9 7.1m2.3-31q-2.5-.2-4.5 2.1m-4 47.2h-5.8m-6.2 89.2 8.5 6.7 4.4.9m-13.8 9.8L-16-75l7.6 1.3M4.4-218.8q-2.3-2-4.9 0" transform="translate(22.7 236.25)" vector-effect="non-scaling-stroke"/><path id="e" fill="none" stroke="#29260c" stroke-linecap="round" stroke-linejoin="round" stroke-opacity=".6" stroke-width="__RESOLUTION__" d="m208.9 49.3 1.9 1.5-.2.3q12.2 13.7 2.3 26.7l.7 2.3-.4.7q-2.7 4.8-4.5 11v8.9l-3.5 13.1v1.2h0v.2q-.3 4.5-.2 9.5l-.8-1.7q-.3 6 .7 12.8l.1 1 7.1 17.8v6q3.3 6.6 7.9 13.8l2.2 3.2-7.8-4.6h0l-5.5-2.8 1.3 10.9-5-2.5-3.8-12.3-1.9-1-3-8.8-12.3-11-2.2 7.1-3.1-2.2v-9.6l-4.2-3.7v-2.3l-33.1-1.6.3-1-9 .3 11.4 4.3h.1q1.7.8 1.7 2.3v.7l2.5-1.7.9.8.2-.4 7.2-.5 1.1 1.3v1.4l-5.2 1.4 4 3.8.4-.5 4-1.9.6-1.2 1.5-2.2 1.5.8v1.5l-2.2 3.7-.2.3-4.8 2.9 2.3.4 1.3-.4.4.8 2.4.5 1-.5 2.6-.7.6 1.6-1 1.1-3 1-.9.5-4.4-.6-1.8.8-.1-.1-4.8.3-3.1 2-10.5-7 .3-4.4.3-.2q-12.5-2.7-23.5-7.7h-.1l-.3-.2q-.6-.3-.8-1l-.5-.2-.5-.4-.2-.1-9.5.9v10.8l-4-2.3-.5-8.1-12 1.2-1.3-.4-1.5-.3q.1 1.6.5 3.4l-1.5 1.2 1.2 2.6 1.3 1.8 4.3 2.6 2.2 4.6.5 1.8 2.5 4.3 10.5 9.6q11.3 7.5 15.5 18.7-3.5 3-5.8 7.9l2 4.2 2 17.5-1.2 12.4-4.5-.9-.1.3-7.5 11.9-5.2-.8q.4.5.5 1.1v.2l1.4 16.4v.1q.1.7-.4 1.3l2 1.2-.5 8.6.5.6q2.6 4 .5 9.6l-10.7 2.8q-9-2.6-8.3-8l5.5-10.4-.3-5.2 1.8-1v-.5q.3-8.3-3.5-15.2l-.5-1v-.2h0q-.2-1.1 1-1.8-7.7 1-14.2-1.1l-.3 3.4q1.1 2.4 2.8 7.9l-1.1 5.3-19.8 3.9q-9.5 2-11.9-4l5-4.1 10.1-4.8 5.4-3.3q.7-3.7.3-7.3-8.1-4-15.8-11.4l-.7-5.2-7.3-1.8q-7.5-34.7 6-62.2l-.2-.7 1.6-10 3.3-4.3.4-1.2 4.1-2.7q1.4-5 1.8-8.8.3-4.2-.7-9.8l-.7-.3.3-1.6.5-2.5-2.6-2-1.1-1.3-12.3-1-1.6.2h-.1l-22.5-6.8-.1-.1-.8-.5-1.1 1.1-9.3-3.6-1.5-.5L3 95l.3-.7-.7-.5-2.1-2.5L1.9 90l3.2 2.8.3.5 3 1.3 1.1-.7-4-1.4-3.1-2.3-.5-.5L0 87l1.6-1.2 2.2 2.4 8.5 3.5-3-1.5-2.7-3h.1l-.8-.7L3.7 84l1.5-1.4 3.2 2.9.1.3 5.4 3.4.7 1.5-.5.7 1.3-.7.3.1.9-5.5 1.2-.2 1.2.7.1 5.9-.4.1 3 1 .6 1q8 2.8 17.3 3.6l.6-.1h.6l14.8-.8.9-1.1q3-3 7.2-3 2.3 0 4.2 1l1.4.8 1.2-.2-8.5-6.2-8.8.3-3 6-2.9.5 2.7-6.3-5.4.2-2.6 1.8-5-.8q7.8-5.2 12.3-11.7l1.5-2.7h-5l.3-1.9 6-1q3-6.7 4.3-13.2l-.7.8 1.6-7.2.7-4-1.5-11 2.4-4h.6q0-6-.6-11.4l.5-.8Q58.2 8.7 62.5 5.2q-.4-3.6 5.3-5.2 10.5.7 12.9 16.5l1.4.6q2.8 11.8 2.2 31.4l2.5 1.9v.5q2.5 0 5 .8h.2l.5.1q2.7.9 4.8 2.3l2.3 1.7q2.1 1.9 3.6 4.5l1.4 2.7 1.1-.2h1.1q1.9.1 2.4 1.8v.2l2 6.9q.5 1.5-.5 3.5v.1l1.8 5.7q.3 1.3-.7 3l-.9 1.3 1 3.7-.1 1.3 1.2 5.2.3.6Q131.8 88 143.5 69q8.3-20.5 30.8-25.8l1.8-.5q14.6-3.7 27 2.8l3 1zm-115.1 42-.5-.6Q90.2 92.3 88 93l-2.4.5-.3.8 7.1 7.6 9-1.9 5-1.3v-.2q.1-2.5 1.3-5.2h-.2q-1-.1-1.2-.9l-.1-.4-1.1-3.5v-.7l-.2-.1q-1-.4-1.3-1.4l-.1-.5-1.3-4.3q-1.6 2.8-3.3 4.7-.1 1.3-1 2.7T96 91t-2.1.3m59.5-21.5-.2.3.3-.1zM12.9 92l-.1-.2zm47.5-41.9" vector-effect="non-scaling-stroke"/><clipPath id="a"><path d="M1 1h49v179H1z"/></clipPath></defs><g clip-path="url(#a)"><g transform="translate(6.7 168.15)"><use xlink:href="#b" width="169.1" height="257.4" transform="matrix(-.6956 0 0 .6956 42.95 -167.15)"/><use xlink:href="#c" width="28.1" height="43.4" transform="matrix(-.5297 0 0 .5297 -4.35 -133.95)"/><use xlink:href="#d" width="30.4" height="11.3" transform="matrix(-.6956 0 0 .6956 6.95 -128.9)"/><use xlink:href="#e" width="222.2" height="281.6" transform="matrix(-.5297 0 0 .5297 42.95 -167.1)"/><use xlink:href="#f" width="127" height="162.6" transform="matrix(-.6956 0 0 .6956 17.05 -164.05)"/></g></g></svg>