<svg xmlns="http://www.w3.org/2000/svg" xmlns:xlink="http://www.w3.org/1999/xlink" width="56" height="145" viewBox="0 0 56 145"><defs><radialGradient id="a" cx="0" cy="0" r="819.2" gradientTransform="matrix(.17 0 0 .17 -2.3 -71.3)" gradientUnits="userSpaceOnUse" spreadMethod="pad"><stop offset="0" stop-color="#210900" stop-opacity=".6"/><stop offset=".4" stop-color="#210900" stop-opacity=".6"/><stop offset="1" stop-color="#217f75" stop-opacity="0"/></radialGradient><radialGradient id="ar" cx="0" cy="0" r="819.2" gradientTransform="matrix(.04 0 0 .04 -25.5 48.35)" gradientUnits="userSpaceOnUse" spreadMethod="pad"><stop offset="0" stop-color="#4e4a4e"/><stop offset="1" stop-color="#57575b"/></radialGradient><radialGradient id="aq" cx="0" cy="0" r="819.2" gradientTransform="matrix(.03 0 0 .03 -20.1 40.6)" gradientUnits="userSpaceOnUse" spreadMethod="pad"><stop offset="0" stop-color="#4e4a4e"/><stop offset="1" stop-color="#57575b"/></radialGradient><radialGradient id="ap" cx="0" cy="0" r="819.2" gradientTransform="matrix(.03 0 0 .03 -17.75 34.8)" gradientUnits="userSpaceOnUse" spreadMethod="pad"><stop offset="0" stop-color="#4e4a4e"/><stop offset="1" stop-color="#57575b"/></radialGradient><radialGradient id="am" cx="0" cy="0" r="819.2" gradientTransform="matrix(.03 0 0 .03 -19.25 22.9)" gradientUnits="userSpaceOnUse" spreadMethod="pad"><stop offset="0" stop-color="#4e4a4e"/><stop offset="1" stop-color="#57575b"/></radialGradient><radialGradient id="al" cx="0" cy="0" r="819.2" gradientTransform="matrix(.03 0 0 .03 -18.5 10.3)" gradientUnits="userSpaceOnUse" spreadMethod="pad"><stop offset="0" stop-color="#4e4a4e"/><stop offset="1" stop-color="#57575b"/></radialGradient><radialGradient id="aj" cx="0" cy="0" r="819.2" gradientTransform="matrix(.03 0 0 .03 -16.75 -2.45)" gradientUnits="userSpaceOnUse" spreadMethod="pad"><stop offset="0" stop-color="#4e4a4e"/><stop offset="1" stop-color="#57575b"/></radialGradient><radialGradient id="ag" cx="0" cy="0" r="819.2" gradientTransform="matrix(.03 0 0 .03 -18.75 -15.5)" gradientUnits="userSpaceOnUse" spreadMethod="pad"><stop offset="0" stop-color="#4e4a4e"/><stop offset="1" stop-color="#57575b"/></radialGradient><radialGradient id="af" cx="0" cy="0" r="819.2" gradientTransform="matrix(.03 0 0 .03 -18.15 -28.5)" gradientUnits="userSpaceOnUse" spreadMethod="pad"><stop offset="0" stop-color="#4e4a4e"/><stop offset="1" stop-color="#57575b"/></radialGradient><radialGradient id="ae" cx="0" cy="0" r="819.2" gradientTransform="matrix(.03 0 0 .03 -21.65 -45.05)" gradientUnits="userSpaceOnUse" spreadMethod="pad"><stop offset="0" stop-color="#4e4a4e"/><stop offset="1" stop-color="#57575b"/></radialGradient><radialGradient id="ad" cx="0" cy="0" r="819.2" gradientTransform="matrix(.01 0 0 .01 24.6 49.1)" gradientUnits="userSpaceOnUse" spreadMethod="pad"><stop offset="0" stop-color="#7c8192"/><stop offset="1" stop-color="#57575b"/></radialGradient><radialGradient id="ac" cx="0" cy="0" r="819.2" gradientTransform="matrix(.03 0 0 .03 17.9 46.35)" gradientUnits="userSpaceOnUse" spreadMethod="pad"><stop offset="0" stop-color="#5b5d61"/><stop offset="1" stop-color="#484245"/></radialGradient><radialGradient id="ab" cx="0" cy="0" r="819.2" gradientTransform="matrix(.03 0 0 .03 1.8 53.8)" gradientUnits="userSpaceOnUse" spreadMethod="pad"><stop offset="0" stop-color="#545056"/><stop offset="1" stop-color="#484245"/></radialGradient><radialGradient id="aa" cx="0" cy="0" r="819.2" gradientTransform="matrix(.01 0 0 .01 18.1 41.15)" gradientUnits="userSpaceOnUse" spreadMethod="pad"><stop offset="0" stop-color="#7c8192"/><stop offset="1" stop-color="#57575b"/></radialGradient><radialGradient id="Y" cx="0" cy="0" r="819.2" gradientTransform="matrix(.01 0 0 .01 6.5 46.35)" gradientUnits="userSpaceOnUse" spreadMethod="pad"><stop offset="0" stop-color="#7c8192"/><stop offset="1" stop-color="#57575b"/></radialGradient><radialGradient id="X" cx="0" cy="0" r="819.2" gradientTransform="matrix(.02 0 0 .02 14.35 39.65)" gradientUnits="userSpaceOnUse" spreadMethod="pad"><stop offset="0" stop-color="#5b5d61"/><stop offset="1" stop-color="#484245"/></radialGradient><radialGradient id="V" cx="0" cy="0" r="819.2" gradientTransform="matrix(.01 0 0 .01 14.5 35.25)" gradientUnits="userSpaceOnUse" spreadMethod="pad"><stop offset="0" stop-color="#7c8192"/><stop offset="1" stop-color="#57575b"/></radialGradient><radialGradient id="U" cx="0" cy="0" r="819.2" gradientTransform="matrix(.01 0 0 .01 14.05 23.55)" gradientUnits="userSpaceOnUse" spreadMethod="pad"><stop offset="0" stop-color="#7c8192"/><stop offset="1" stop-color="#57575b"/></radialGradient><radialGradient id="S" cx="0" cy="0" r="819.2" gradientTransform="matrix(.02 0 0 .02 12.85 27.75)" gradientUnits="userSpaceOnUse" spreadMethod="pad"><stop offset="0" stop-color="#5b5d61"/><stop offset="1" stop-color="#484245"/></radialGradient><radialGradient id="R" cx="0" cy="0" r="819.2" gradientTransform="matrix(.01 0 0 .01 3.2 27.75)" gradientUnits="userSpaceOnUse" spreadMethod="pad"><stop offset="0" stop-color="#7c8192"/><stop offset="1" stop-color="#57575b"/></radialGradient><radialGradient id="O" cx="0" cy="0" r="819.2" gradientTransform="matrix(.01 0 0 .01 3.95 15.15)" gradientUnits="userSpaceOnUse" spreadMethod="pad"><stop offset="0" stop-color="#7c8192"/><stop offset="1" stop-color="#57575b"/></radialGradient><radialGradient id="M" cx="0" cy="0" r="819.2" gradientTransform="matrix(.01 0 0 .01 13.75 10.75)" gradientUnits="userSpaceOnUse" spreadMethod="pad"><stop offset="0" stop-color="#7c8192"/><stop offset="1" stop-color="#57575b"/></radialGradient><radialGradient id="L" cx="0" cy="0" r="819.2" gradientTransform="matrix(.01 0 0 .01 14.8 10.95)" gradientUnits="userSpaceOnUse" spreadMethod="pad"><stop offset="0" stop-color="#7c8192"/><stop offset="1" stop-color="#57575b"/></radialGradient><radialGradient id="K" cx="0" cy="0" r="819.2" gradientTransform="matrix(.01 0 0 .01 15.5 -2)" gradientUnits="userSpaceOnUse" spreadMethod="pad"><stop offset="0" stop-color="#7c8192"/><stop offset="1" stop-color="#57575b"/></radialGradient><radialGradient id="J" cx="0" cy="0" r="819.2" gradientTransform="matrix(.01 0 0 .01 5.7 2.4)" gradientUnits="userSpaceOnUse" spreadMethod="pad"><stop offset="0" stop-color="#7c8192"/><stop offset="1" stop-color="#57575b"/></radialGradient><radialGradient id="I" cx="0" cy="0" r="819.2" gradientTransform="matrix(.02 0 0 .02 13.95 -23.65)" gradientUnits="userSpaceOnUse" spreadMethod="pad"><stop offset="0" stop-color="#545056"/><stop offset="1" stop-color="#484245"/></radialGradient><radialGradient id="H" cx="0" cy="0" r="819.2" gradientTransform="matrix(.01 0 0 .01 3.7 -10.65)" gradientUnits="userSpaceOnUse" spreadMethod="pad"><stop offset="0" stop-color="#7c8192"/><stop offset="1" stop-color="#57575b"/></radialGradient><radialGradient id="F" cx="0" cy="0" r="819.2" gradientTransform="matrix(.01 0 0 .01 4.3 -23.65)" gradientUnits="userSpaceOnUse" spreadMethod="pad"><stop offset="0" stop-color="#7c8192"/><stop offset="1" stop-color="#57575b"/></radialGradient><radialGradient id="E" cx="0" cy="0" r="819.2" gradientTransform="matrix(.01 0 0 .01 14.1 -28.05)" gradientUnits="userSpaceOnUse" spreadMethod="pad"><stop offset="0" stop-color="#7c8192"/><stop offset="1" stop-color="#57575b"/></radialGradient><radialGradient id="D" cx="0" cy="0" r="819.2" gradientTransform="matrix(.01 0 0 .01 4.95 -39.3)" gradientUnits="userSpaceOnUse" spreadMethod="pad"><stop offset="0" stop-color="#7c8192"/><stop offset="1" stop-color="#57575b"/></radialGradient><radialGradient id="C" cx="0" cy="0" r="819.2" gradientTransform="matrix(.03 0 0 .03 .25 -41.9)" gradientUnits="userSpaceOnUse" spreadMethod="pad"><stop offset="0" stop-color="#545056"/><stop offset="1" stop-color="#484245"/></radialGradient><radialGradient id="B" cx="0" cy="0" r="819.2" gradientTransform="matrix(.01 0 0 .01 16.55 -44.5)" gradientUnits="userSpaceOnUse" spreadMethod="pad"><stop offset="0" stop-color="#7c8192"/><stop offset="1" stop-color="#57575b"/></radialGradient><radialGradient id="A" cx="0" cy="0" r="819.2" gradientTransform="matrix(.03 0 0 .03 -21.65 -45.05)" gradientUnits="userSpaceOnUse" spreadMethod="pad"><stop offset="0" stop-color="#3b2d2f"/><stop offset="1" stop-color="#4f4950"/></radialGradient><radialGradient id="z" cx="0" cy="0" r="819.2" gradientTransform="matrix(.03 0 0 .03 -18.15 -28.5)" gradientUnits="userSpaceOnUse" spreadMethod="pad"><stop offset="0" stop-color="#3b2d2f"/><stop offset="1" stop-color="#4f4950"/></radialGradient><radialGradient id="y" cx="0" cy="0" r="819.2" gradientTransform="matrix(.03 0 0 .03 -18.75 -15.5)" gradientUnits="userSpaceOnUse" spreadMethod="pad"><stop offset="0" stop-color="#3b2d2f"/><stop offset="1" stop-color="#4f4950"/></radialGradient><radialGradient id="x" cx="0" cy="0" r="819.2" gradientTransform="matrix(.03 0 0 .03 -16.75 -2.45)" gradientUnits="userSpaceOnUse" spreadMethod="pad"><stop offset="0" stop-color="#3b2d2f"/><stop offset="1" stop-color="#4f4950"/></radialGradient><radialGradient id="w" cx="0" cy="0" r="819.2" gradientTransform="matrix(.03 0 0 .03 -18.5 10.3)" gradientUnits="userSpaceOnUse" spreadMethod="pad"><stop offset="0" stop-color="#3b2d2f"/><stop offset="1" stop-color="#4f4950"/></radialGradient><radialGradient id="v" cx="0" cy="0" r="819.2" gradientTransform="matrix(.03 0 0 .03 -19.25 22.9)" gradientUnits="userSpaceOnUse" spreadMethod="pad"><stop offset="0" stop-color="#3b2d2f"/><stop offset="1" stop-color="#4f4950"/></radialGradient><radialGradient id="u" cx="0" cy="0" r="819.2" gradientTransform="matrix(.03 0 0 .03 -17.75 34.8)" gradientUnits="userSpaceOnUse" spreadMethod="pad"><stop offset="0" stop-color="#3b2d2f"/><stop offset="1" stop-color="#4f4950"/></radialGradient><radialGradient id="t" cx="0" cy="0" r="819.2" gradientTransform="matrix(.03 0 0 .03 -20.1 40.6)" gradientUnits="userSpaceOnUse" spreadMethod="pad"><stop offset="0" stop-color="#3b2d2f"/><stop offset="1" stop-color="#4f4950"/></radialGradient><radialGradient id="s" cx="0" cy="0" r="819.2" gradientTransform="matrix(.04 0 0 .04 -25.5 48.35)" gradientUnits="userSpaceOnUse" spreadMethod="pad"><stop offset="0" stop-color="#3b2d2f"/><stop offset="1" stop-color="#4f4950"/></radialGradient><radialGradient id="r" cx="0" cy="0" r="819.2" gradientTransform="matrix(.03 0 0 .03 24.35 55.95)" gradientUnits="userSpaceOnUse" spreadMethod="pad"><stop offset="0" stop-color="#5b5d61"/><stop offset="1" stop-color="#484245"/></radialGradient><radialGradient id="q" cx="0" cy="0" r="819.2" gradientTransform="matrix(.02 0 0 .02 13.6 15.15)" gradientUnits="userSpaceOnUse" spreadMethod="pad"><stop offset="0" stop-color="#5b5d61"/><stop offset="1" stop-color="#484245"/></radialGradient><radialGradient id="p" cx="0" cy="0" r="819.2" gradientTransform="matrix(.02 0 0 .02 15.35 2.4)" gradientUnits="userSpaceOnUse" spreadMethod="pad"><stop offset="0" stop-color="#5b5d61"/><stop offset="1" stop-color="#484245"/></radialGradient><radialGradient id="o" cx="0" cy="0" r="819.2" gradientTransform="matrix(.01 0 0 .01 16.55 -1.8)" gradientUnits="userSpaceOnUse" spreadMethod="pad"><stop offset="0" stop-color="#7c8192"/><stop offset="1" stop-color="#57575b"/></radialGradient><radialGradient id="n" cx="0" cy="0" r="819.2" gradientTransform="matrix(.02 0 0 .02 13.35 -10.65)" gradientUnits="userSpaceOnUse" spreadMethod="pad"><stop offset="0" stop-color="#5b5d61"/><stop offset="1" stop-color="#484245"/></radialGradient><radialGradient id="m" cx="0" cy="0" r="819.2" gradientTransform="matrix(.01 0 0 .01 13.5 -15.05)" gradientUnits="userSpaceOnUse" spreadMethod="pad"><stop offset="0" stop-color="#7c8192"/><stop offset="1" stop-color="#57575b"/></radialGradient><radialGradient id="l" cx="0" cy="0" r="819.2" gradientTransform="matrix(.01 0 0 .01 14.55 -14.85)" gradientUnits="userSpaceOnUse" spreadMethod="pad"><stop offset="0" stop-color="#7c8192"/><stop offset="1" stop-color="#57575b"/></radialGradient><radialGradient id="k" cx="0" cy="0" r="819.2" gradientTransform="matrix(.02 0 0 .02 13.95 -23.65)" gradientUnits="userSpaceOnUse" spreadMethod="pad"><stop offset="0" stop-color="#5b5d61"/><stop offset="1" stop-color="#484245"/></radialGradient><radialGradient id="j" cx="0" cy="0" r="819.2" gradientTransform="matrix(.01 0 0 .01 15.15 -27.85)" gradientUnits="userSpaceOnUse" spreadMethod="pad"><stop offset="0" stop-color="#7c8192"/><stop offset="1" stop-color="#57575b"/></radialGradient><radialGradient id="i" cx="0" cy="0" r="819.2" gradientTransform="matrix(.03 0 0 .03 16.35 -39.3)" gradientUnits="userSpaceOnUse" spreadMethod="pad"><stop offset="0" stop-color="#5b5d61"/><stop offset="1" stop-color="#484245"/></radialGradient><radialGradient id="h" cx="0" cy="0" r="819.2" gradientTransform="matrix(.01 0 0 .01 17.8 -44.25)" gradientUnits="userSpaceOnUse" spreadMethod="pad"><stop offset="0" stop-color="#7c8192"/><stop offset="1" stop-color="#57575b"/></radialGradient><radialGradient id="g" cx="0" cy="0" r="819.2" gradientTransform="matrix(.03 0 0 .03 19.6 -50.8)" gradientUnits="userSpaceOnUse" spreadMethod="pad"><stop offset="0" stop-color="#5b5d61"/><stop offset="1" stop-color="#484245"/></radialGradient><radialGradient id="f" cx="0" cy="0" r="819.2" gradientTransform="matrix(.01 0 0 .01 5.9 -50.85)" gradientUnits="userSpaceOnUse" spreadMethod="pad"><stop offset="0" stop-color="#7c8192"/><stop offset="1" stop-color="#57575b"/></radialGradient><radialGradient id="e" cx="0" cy="0" r="819.2" gradientTransform="matrix(.04 0 0 .04 -26.05 -57.75)" gradientUnits="userSpaceOnUse" spreadMethod="pad"><stop offset="0" stop-color="#4e4a4e"/><stop offset="1" stop-color="#57575b"/></radialGradient><radialGradient id="d" cx="0" cy="0" r="819.2" gradientTransform="matrix(.04 0 0 .04 -26.05 -57.75)" gradientUnits="userSpaceOnUse" spreadMethod="pad"><stop offset="0" stop-color="#3b2d2f"/><stop offset="1" stop-color="#4f4950"/></radialGradient><radialGradient id="c" cx="0" cy="0" r="819.2" gradientTransform="matrix(.01 0 0 .01 21.3 -56.75)" gradientUnits="userSpaceOnUse" spreadMethod="pad"><stop offset="0" stop-color="#7c8192"/><stop offset="1" stop-color="#57575b"/></radialGradient><radialGradient id="b" cx="0" cy="0" r="819.2" gradientTransform="matrix(.01 0 0 .01 19.8 -57.1)" gradientUnits="userSpaceOnUse" spreadMethod="pad"><stop offset="0" stop-color="#7c8192"/><stop offset="1" stop-color="#57575b"/></radialGradient><clipPath id="as"><path d="M1 1h54v143H1z"/></clipPath><path id="av" fill="url(#a)" d="m15.3-62.3 5.4 2.8.4.1v.7l.6.5v8.4q-.6.5-.8 1l-.1.1-3.9 2 .4.2.3.1v.6l.5.3v7q-.6.5-.7 1l-3 1.5.6.3v.5l.4.3v10.4q-.5.5-.5.8h-.1l-1.1.6.7.4v.5l.4.3v2.8l-2.2.7-1 2.1 3.2 1.3v3.5l-.5.8 2.1 1v.5l.5.3V1.6q-.6.4-.6.8h-.1l-1.5.8v.4l.4.3v10.4q-.5.5-.5.8h-.2l-.7.5h.2v.6l.4.3V27l1.1.6v.5l.4.3v9.1l3 1.6.3.1.1.6.5.4v3.2l5.9 3 .4.3v.7l.7.4V57q-.7.6-.9 1.2l-5.7 2.9h-.2l-.1-.1-.2-.1q-.5.2-.9.8l-.2.3-10.9 5.6h-.9l-1 .9-.4.3-4.9 2.5-4-2-1.5-1.5h-.1l-.8.3-11.2-5.7-.4-.4-.5-.2-.6-.2-6.7-3.4q-.2-.8-.7-1.2v-2.2l.5-.8v-.1q0-1.4-.5-2.4V49l.6-.4-.1-1.6 5.4-2.8q0-.7-.4-1.3v-1.8l.5-.3-.1-1.2 2.3-1.3-.2-.5v-1.4l.3-.5v-4.7l-.4-.6v-1.5l.4-.2v-.6l-1.3-.7q-.2-1.4-.5-1.7v-1.4l.3-.6v-4.6l-.4-.6v-1.4l.4-.3v-1.1l1.3-.7-.4-.1q-.2-1.5-.5-1.8v-1.4l.3-.6V6.8l-.3-.5V4.7l.3-.3V3.3l2-1q-.2-1.4-.5-1.7V-.8l.3-.6V-6l-.4-.6v-1.5l.4-.2v-1.1l.4-.2-2.2-1.2q-.2-1.4-.5-1.7v-1.4l.3-.5v-4.7l-.4-.5v-1.5l.4-.3v-1.1l1.6-.9-.8-.4q-.2-1.4-.6-1.7v-1.4l.4-.6V-32l-.4-.5V-34l.4-.3v-1.1l.3-.2-3.7-1.9q-.1-.6-.5-.9V-40l.4-.7v-.1q0-1-.4-1.9v-1.7l.4-.4V-46l.4-.3-4.6-2.4q-.2-.7-.7-1.1v-2l.5-.7v-.1q0-1.3-.5-2.2V-57l.6-.4v-.1l-.1-1.4 23.8-12.3.6.3 6.4 3.3 8.6 4.4z" transform="translate(26.65 71.3)"/><g id="at"><path fill="#28140f" d="m37.8 18.1-1.6.4-3.7 1.9-1.8.9-.8 1-.8-.2-5.1 2.6-1.2-.6-9-4.6L.5 12.8v-.5L24.4 0l23 11.8.3.2.1.6h-.1l-6.9 3.5-.1.4.2-.1-.4.6.2-.5-.5.3-.4.2-.3.4zm5.8 6.5.4.1.3.2v.6h-.1l-5.7 2.9-.1.3.1-.1-.2.5.1-.4-.5.3-.3.1-.2.3-1.4.6-1.3.4-3.2 1.6-1.4.7-.7.8-.7-.1-4.2 2.1-1-.5-7.6-3.8-11-5.6v-.4l.5-.3 1.4.8.6.1.5.2.3.4 3.4 1.6 1.2.6.4.3 1.4.7 1.7.8 1.9 1 .3.1.7-.1h.1l1.3 1.3 2.7 1.3.8.5v-3.6l.6-1.5V28l-.5-.1v-3.2l1 .3v9l3.7-1.9.3-.2.9-.8h.8l2.7-1.4 2.9-1.5 2.9-1.5 1.4-.8.3-.3.9-.7v.1h.2l.1.1h.1zm-2.5 10.6.6.3v.5l-.1.1-4.8 2.4-.1.3.1-.1-.2.4.1-.3-.7.3-.1.3-1.2.5-1.1.3-2.7 1.3-1.2.6-.6.8-.6-.1-3.5 1.8-.9-.5-6.4-3.2-9.3-4.7v-.4l.4-.2 1.4.7.4.2.5.1.2.3 2.9 1.4.9.5.4.2 1.2.6 1.3.7 1.6.8.3.1.6-.1 1.2 1 2.2 1.2.7.4v-3l.4-1.3v-1l-.4-.2v-2.6l.9.3v7.5l3-1.6.3-.2.7-.6.1-.1h.7l2.1-1.1 2.5-1.3 2.4-1.2 1.2-.6.2-.4.7-.5h.1l.2.1h.1zm-.7 12.9.6.3.1.5-.1.1-4.8 2.4-.1.3.1-.1-.2.4.1-.3-.6.3-.2.3-1.2.5-1.1.3-2.7 1.3-1.2.6-.6.8-.6-.1-3.5 1.8-.9-.5-6.4-3.2-9.3-4.7v-.4l1.7-.8 3.4 1.8.3.1.4.1.2.3 2.4 1.2.8.4.4.1 1 .5 1 .6 1.5.7.2.2.5-.2 1 .9 1.9 1 .5.3v-2.5l.4-1.1v-.9l-.3-.1v-6.8l.7.3v10.8l2.6-1.3.2-.2.6-.5h.6l1.9-1 2-1.1 2.1-1 1-.6.2-.2.5-.4h.4zm.6 12.3 2 1.1.1.5H43l-4.8 2.5-.1.2h.1l-.2.4.1-.4-.6.4-.2.2-1.2.5-1.1.3-2.7 1.4-1.2.6-.6.7-.6-.1-3.5 1.8-.9-.4-6.4-3.2-9.3-4.8v-.4l.4-.1 2 1 .4.2.4.1.2.3 2.4 1.2.8.4.4.1 1 .5 1 .7 1.4.6.3.2.5-.2 1 .9 1.9 1 .5.3v-2.5l.4-1.1v-.9l-.3-.2v-6.7l.7.3v10.8l2.6-1.3.2-.2.6-.5h.6l1.9-1 2-1.1 2.1-1 1-.6.1-.2.7-.4h.3l3.6-1.8m.4 13.9v.4l-4.8 2.4-.1.3.1-.1-.2.4v-.3l-.6.3-.2.3-1.1.5-1.2.3-2.7 1.3-1.2.7-.6.7-.5-.2-3.6 1.8-.9-.3-6.3-3.3L8 75v-.4l2-1 4.2 2.2.3.2h.4l.2.3 2.4 1.2.8.5.4.1 1 .5 1 .6 1.4.6.3.2.5-.2.6.5.4.5 1.9 1 .5.3v-2.5l.4-1.1v-1l-.3-.1v-6.7l.7.2v10.8l2.6-1.2.2-.2.6-.5.1-.1h.5l1.9-1 2-1 2.1-1.1 1-.5.1-.2.7-.5.2.1h.1zm-1 12.3.3.2v.5h-.1L35.7 90l-.1.2.1-.1-.2.4.1-.3-.6.3-.2.3-1.2.5-1.1.3-2.7 1.4-1.2.5-.6.8-.6-.1-3.5 1.8-.9-.5-6.4-3.2-9.3-4.7v-.4l1.4-.7 3.8 2 .4.2.4.1.2.3 2.4 1.2.8.4.3.1 1 .5 1.1.7 1.4.6.2.2.6-.2.9.9 1.9 1 .6.3v-2.5l.4-1.1v-.9l-.4-.1v-6.8l.8.3v10.8l2.5-1.3.3-.2.6-.5h.6l1.8-1 2-1.1 2.2-1 1-.6.1-.2.6-.4h.3zm.6 11.5 1.1.5.1.5-.1.1-4.8 2.4-.1.3.1-.1-.2.4.1-.3-.6.3-.2.3-1.2.5-1.1.3-4 2-.5.7-.6-.2-3.5 1.8-.9-.3-.2-.2-.2.2-.2-.1v-2.5l.4-1.1v-.9l-.3-.2V96l.7.3V107l2.6-1.3.2-.2.6-.5h.6l1.9-1 2-1.1 2.1-1 1-.5.1-.3q.3-.4.7-.5l.2.1h.1l3.6-1.8zm1.6 10.5 3 1.6.3.1v.6l-5.7 3-.1.2h.1l-.3.5.2-.5-.5.3-.3.2-.2.3-1.5.6-1.3.3-3.1 1.6-1.5.8-.7.8-.6-.2-4.2 2.2-1.1-.5-7.5-3.9-11-5.5v-.5l2.3-1.2.3 1.3 4.2 2.1.3.2.4.1.2.3 2.4 1.2.8.4.4.1 1 .5 1 .7 1.4.6.3.2.5-.2 1 .9 1.9 1 .5.3v-2.5l.4-1.1v-.9l-.3-.1v-6.8l.7.3V119l2.6-1.3.2-.2.6-.5h.6l1.9-1 2-1.1 2.1-1 1-.6.1-.2q.3-.3.7-.4h.3l3.6-1.8q0-.3.6-.8zm3.9 5.8 5.9 3 .4.3v.7l-7.6 3.8-.1.3h.2l-.5.6.3-.5-.6.3-.4.3-.3.3-1.9.9-1.7.4-6 3-1 1.1-.9-.1-5.5 2.8-1.3-.7-9.9-5-14.4-7.4-.1-.5 5.5-2.8v.7l-.4.6v1.7q.4.3.5.8l5.1 2.7.5.1.4.2.3.2 2.8 1.5 1 .5.4.2 1.1.5 1.4.8 1.6.8.2.1.7-.2 1.1 1.1 2.3 1.1.6.4v-3l.4-1.2.1-1.1-.4-.2V121l.9.3v7.5l3-1.5.3-.3.7-.6h.7l2.2-1.2 2.4-1.2 2.5-1.3 1.1-.6.3-.3.7-.5h.2l.1.1 4.3-2.2q.1-.5.7-1zm-18.2 27.4-1 .6-.2-.2v-3.8l.5-1.7v-1.4l-.5-.2V132l1.2.3zm-7.9-36.8.3-.1.7.5z"/><path fill="#7c8192" d="m32.5 20.4 3.7-1.9 1.6-.4.7.2-4.5 2.3zM41.7 36v.1m-.3 38.7v.1h-.1M36 30l.5.2-3.7 2-1.2-.2 3-1.6zm-1.3 9.9.4.1-3.1 1.7-1.1-.2 2.7-1.4zm-.2 13.2-3.1 1.6-1.1-.2 2.7-1.4 1-.1zm-1.1 14.8-1.1-.2 2.7-1.4 1-.3.4.1zm1 10.9.4.1-3.2 1.7-1-.2 2.6-1.3z"/><path fill="url(#b)" d="m11.2-53.1 1.7-.8.3-.4.4-.2.5-.2-.2.4.4-.6-.2.1.2-.3 6.8-3.5-.2 3.5v-2.4l-9 4.5z" transform="translate(26.6 71.25)"/><path fill="url(#c)" d="m21.1-58.6.6.4v8.4l-.9 1.1V-55z" transform="translate(26.6 71.25)"/><path fill="url(#d)" d="m-26.1-58.4 13.3 6.6-.6.5-12.6-6.3zM-3.8-47l1.2.6h.1v3h.1v.2l.5.1v1.3l-.6 1.5v3.6l-.8-.4.1-9-.6-.3z" transform="translate(26.6 71.25)"/><path fill="url(#e)" d="m-12.8-51.7 9 4.6v.6l-9.6-4.8z" transform="translate(26.6 71.25)"/><path fill="url(#f)" d="m-2.6-46.5 5-2.6.9.1.8-1 1.8-.9 1.4.3-8.6 4.5z" transform="translate(26.6 71.25)"/><path fill="url(#g)" d="m7.4-50.6 4.4-2.4 9-4.5v8.9l-3.8 2-1.2.6-.2-.1h-.2v-.1l-1 .7-.2.3-1.4.8q0-1-.2-1.7h-1.4l-.3 1-1 2.1-3 1.5-.5-1.1h-.8q-.5-.1-.4-.5l-.2-.2q-1.4.3-2-.8l-.7 1.4q-.6 1.4-1 3.2l-.4 1 1.7-.8-.4.3-3.5 1.9v-9zm7.4-1-.3 1-.9 2q1.6-1.4 3.5-2.1h.3q.6-.2 1.2-.9.8-.9.6-2.2 0-.6-.7-.8l-.1.3q-1.5.9-2.9 2l-.6.5zM10-48.8q-1.3 1.1-2.1 2.4l1.8-.1.8-.4.2-.3.1-.5v-.9L10-49z" transform="translate(26.6 71.25)"/><path fill="#484245" d="m41.3 19.6.1-.1.6-.5 2.9-2.1.1-.2q.7.2.8.7.1 1.4-.7 2.3-.6.6-1.2.9l-.3-.1q-2 .8-3.5 2.1l.9-2zM33.9 139l-.5-.1h-.1l-1 .8-1.7 1 .4-1.2q.4-2 1-3.4.4-1 .9-1.5.6 1.1 2.1.8l.2.2q-.2.4.5.5h.8l.6 1.3zm-19.4-2.7-1.3-.6.9-1.7v-.1q.6 1.3.4 2.4m16.1-105h-.5l-1 .8-1.6.8.4-1.1q.4-1.8 1-3.2l.8-1.4q.5 1.1 2 .8v.2q0 .4.5.5h.8l.5 1.1zm-17.8-2.6-1.2-.6.9-1.5q.5 1.1.3 2.1M38 33.8l.6-1.6.4-.9.6-.5 2.4-1.7.1-.2.5.7q.2 1-.5 1.9l-1 .7-.2-.1q-1.5.6-2.8 1.7m-9.2 7.8-1.3.7.2-.9.8-2.6.7-1.1q.5.9 1.7.6v.1q-.1.4.4.5h.7l.4.9L30 41l-.4-.1h-.1zm8.8-1q.3-.2 1 1.6t1 1.5l.1-.1q.5 0 .5.5.1.9-.4 1.6l-.9.6h-.1l-1.3.5-1.2.9.5-1.2v-.2l.4-5.2V41zM28 67.2l-1.1.5.2-.7.6-2.2.7-1q.3.8 1.4.5v.2q-.1.3.3.3h.6l.4.9-2.1 1h-.4zm1.6-13.5h-.4l-.6.5-1.1.5.2-.7.7-2.2.6-1q.3.8 1.4.6v.1q-.1.3.3.4h.6l.4.8zM40 68.2q.7 1.8 1 1.5l.2-.2.4.5q.1 1-.4 1.7l-.9.5h-.1q-.9.3-1.6.8l-.9.7.4-1 .1-.5.3-5.2.1-.1.4-.4q.3-.2 1 1.7m-9 11.5h-.4l-.6.5-1.1.6.2-.7.6-2.2q.3-.7.7-1 .3.7 1.4.5v.1q-.1.3.3.4h.6l.4.8zm.3 11.8-2.1 1h-.3l-.6.5-1.2.5.2-.7q.3-1.3.7-2.2l.6-1q.4.8 1.4.6v.1q-.1.3.4.4h.6zM28.5 105H28l-.6.5-1.1.6.2-.7.6-2.3.7-1q.3.8 1.4.5v.2q-.1.3.3.3h.6l.4.8zm10.5.3q.7 1.8 1 1.5l.2-.2q.3.1.4.6v.6l-.1.5-.3.5-.9.6h-.1q-1.4.5-2.5 1.4l.5-1.4.3-5.2.1-.1.4-.5q.3-.2 1 1.7m-10 12.1-1.1.5.2-.7.6-2.2.7-1q.3.8 1.4.6v.1q-.1.3.3.4h.6l.4.8-2.1 1h-.4zm-11.6-2.3-.8-.5.6-1q.4.8.2 1.5m23.1 1.6.5-.5 2.5-1.6v-.2q.5.1.6.6.1 1.1-.5 1.9l-1 .8-.2-.1q-1.7.6-3 1.7l.7-1.7zm-9 9.8h-.4l-.7.6-1.4.6.3-.8q.3-1.5.8-2.7l.6-1q.5.8 1.7.5v.2q0 .3.5.4h.7l.4 1zm-14.8-2.1-1-.5.8-1.3q.4.9.2 1.8m32.8-1.2.2-.2q.6.2.8.8.2 1.4-.7 2.4-.6.8-1.4 1h-.3q-2.1.9-3.8 2.3l.9-2.2.4-1.2h.1l.6-.7zM15.3 21.3l.4.3h.3l.2.1.1.3q.2.3 0 .4l-.1.2h-.1q-1.4.5-2.2 1.8v-.2q-.6-1.8.7-3.2zm-4.4.3.3.1.3.1q.2.3.2.8l-.1 1.2q-.5 1.3-1.7 1.6l-.2-.4-1.4-1.4v-.1l1.2-1zm5.2 13.7L16 35q-.5-1.5.6-2.6l.6.2.4.2.2.1h.2v.6l-.1.1v.1q-1.1.4-1.8 1.4zm-2 3.1.7-1.2V37q.4 1 .2 1.8zm5.3 4h.2v5.1l-.1.1-1 2-.3.5-1 .1V50l.7-1.1v-.2q-.3-.7-.1-3.5l.1-1.6q.2-1.5.5-1.7zm-3.2 9 .7-1q.3.9.1 1.5zm-.6 13 .7-1.1q.3.9.1 1.5zm5.2 4h.2v5l-.1.2-1 2-.3.4-1 .2V76q.1-.7.7-1.1v-.2q-.3-.7-.1-3.4l.3-2.5.3-.9zm-3.2 9.1.6-1v-.1q.4.9.2 1.5zm-1.7 12.8.6-1.1q.4.8.2 1.5zm0 13.1-.8-.5.7-1q.3.7.2 1.3zm3.9 2.4h.2v5l-.1.1-1 2-.3.5-1 .1v-.1q.1-.7.7-1.1v-.2q-.3-.7-.1-3.5.2-2.9.6-3.3zm-2.1 15.1q-.5-1.5.6-2.7l.6.3.3.2h.2l.3.1v.5l-.1.2h-.1q-1.1.5-1.7 1.5zm.6 7.7.1.3q.2.3 0 .3l-.2.3q-1.5.6-2.4 2l-.1-.2q-.6-2 .8-3.5l.8.3.4.3.3.1zm-7.1 3.6q-.7-.9-1.6-1.6l1.4-1.2 1.5-.9.3.1q.6.2.6.9l-.1 1.3q-.6 1.5-2 1.8z"/><path fill="url(#h)" d="m17.7-45.7.5.3v7q-.6.4-.7.9h-.1v-5.4z" transform="translate(26.6 71.25)"/><path fill="url(#i)" d="M17.4-37.5 14.5-36l-1.3.7H13l-.2-.1h-.1l-.7.5-.2.3-1.2.6-.2-1.4-1.2.1-.2.8-.8 1.8-2.5 1.2-.4-1h-.7q-.5-.1-.4-.4v-.1q-1.2.2-1.7-.6l-.7 1-.8 2.7-.3.8 1.4-.6-.3.3-3 1.5v-7.5L6.2-39l3.7-2 7.5-3.8v7.4m-6 0q1.3-1.1 2.8-1.7h.2l1-.7q.7-.8.5-1.9l-.5-.7-.1.3-2.5 1.7-.5.4v.1l-.4.9-.6 1.5zm-3-.3-.3.2.2-.1q-1.1 1-1.8 2H8q.3-.3.7-.3l.2-.4v-1.1z" transform="translate(26.6 71.25)"/><path fill="url(#j)" d="m15.1-35.1.4.2v10.5q-.6.4-.6.8v-4.6z" transform="translate(26.6 71.25)"/><path fill="url(#k)" d="m14.9-23.6-1.2.6-2.4 1.2h-.2l-.2-.1-.6.4-.1.3-1 .5-.2-1.1H8l-.2.8-.7 1.4-2 1-.4-.8h-.6q-.4 0-.3-.4v-.1q-1.1.2-1.4-.5l-.6 1-.7 2.2-.3.7 1.2-.6-.2.3-2.6 1.3v-10.9l6.1-3.2 3.2-1.6 6.4-3.3zM11-30.8l-.4.4v.1l-.3 5.3-.1.1-.5 1.3 1.2-.9 1.3-.6h.1l.9-.5q.6-.7.4-1.6 0-.5-.4-.6l-.1.2q-.4.3-1.2-1.5t-.9-1.7m-3.8 7L5.7-22h1.2q.3-.3.6-.3l.1-.2.1-.4v-.7zl-.1.1" transform="translate(26.6 71.25)"/><path fill="url(#l)" d="m14.5-22.1.4.2v2.8l-.6.3zm.3 7.2v3.6l-.6.7V-15z" transform="translate(26.6 71.25)"/><path fill="url(#m)" d="M14.4-18.8h-.2v-2.6L8-18.2l-.4-.2 1.2-.5.2-.2.6-.3-.1.3.3-.4h-.2l.1-.2 4.8-2.4z" transform="translate(26.6 71.25)"/><path fill="url(#n)" d="m14.3-18.8-1.7.4-.9 2.1-.2.5-.2-.3-.1-.3q-.6-1.6-.8-1.4l-.4.4v.1L9.6-12 9-10.7q1.1-.9 2.5-1.4h.1l.9-.6q.6-.7.4-1.6 0-.4-.4-.5l-.2.2q-.2.2-.6-.5h2.4v4.4l-3.5 1.9h-.1l-.2-.1-.7.5-.1.2-1 .5-.2-1.1h-1l-.2.8-.7 1.3-2 1.2v-.1L4-6.4h-.6q-.5 0-.4-.3V-7q-1 .2-1.3-.5l-.7 1q-.4.8-.7 2.2l-.2.7L1.5-4l-.2.1-2.6 1.4v-10.9l6.2-3.2L8-18.2l6.4-3.2zm-7.7 8L5-9h1.3l.6-.3.1-.2.1-.4v-.7z" transform="translate(26.6 71.25)"/><path fill="#3b2d2f" d="m38.3 55 3.2 1.3-.6-.1h-2.5l-.6-.1.3-.6zM8.8 35.6l-3.7-1.9q-.1-.6-.5-.9v-1.6l.4-.7v-.1q0-1-.5-1.9v-1.7l.5-.3v-.2l10.5 5.3 8 4 .5.3-.1 7.4-2.2-1.1-1.1-1.1h-.1l-.6.1-.3-.1v-.7l.3-.4q.3-.1.3-.5v-.4l-.2-.4-.3-.5.4-1.5-.1-.2-.3-.3-.8-.2-.3 1.6-.6 2.7-1.3-.7q.2-.7 0-1.6-.8.3-1.2 1l-.4-.2q.2-.8-.2-1.8l-.7 1.3-2.9-1.4-.2-.3-.5-.1-.4-.2zM5.4 24.9.7 22.5q-.1-.7-.6-1.1v-2l.5-.7v-.2q0-1.2-.5-2.1L0 14.2l.6-.4v-.2L13.2 20l9.6 4.8.6.2-.1 9-2.7-1.4-1.3-1.2h-.1l-.7.1h-.3v-1l.3-.4.4-.6V29l-.3-.5-.4-.5.6-1.9-.2-.3-.3-.3-1-.2-.3 1.8-.7 3.3-1.7-.8q.4-.9 0-1.9-1 .3-1.4 1.2l-.4-.2q.2-1-.3-2.2l-.9 1.5-3.4-1.6-.3-.4-.5-.2-.6-.2zm-1-6.6.2-.3-.5.3zL3.1 20l-.1.3q.7 1.4 2.5 1.9l1.8.6h.2q0-1.9-1-3.3-.3-.4-.9-.5l-.4-.5-.6-.2zm11 2.9-.7-.3q-1.3 1.4-.7 3.3v.1q.8-1.3 2.2-1.8l.2-.2q.2-.2 0-.4l-.1-.2-.2-.2h-.3zm-4.4.3-1.4.9-1.1 1h-.1L9.7 25l.3.4q1.2-.3 1.7-1.6l.1-1.2q0-.5-.2-.7l-.3-.2zM16.2 35q.7-1 1.8-1.4l.1-.2q.1-.1 0-.4l-.2-.1-.2-.1-.4-.2-.6-.2q-1.1 1.1-.6 2.6v.2q-.7.4-.8 1.4v.1q1 .2 1.5-.8l-.4-.5H16l.4-.4zM13 26q1.2.3 1.8-1l-.5-.6h-.5q-.6.5-.8 1.5zm-5 4h.2L7 31.7l-.1.3q.5 1.1 2 1.6l1.6.4h.1q.1-1.5-.8-2.7l-.7-.4-.4-.4-.5-.2h-.1l.1-.2zm11.7 88.5h-.3l-.2-.1-.3-.2v-.1z"/><path fill="url(#o)" d="m16.5-9.1.4.3V1.6q-.5.5-.5.8h-.1v-4.5l.1-7z" transform="translate(26.6 71.25)"/><path fill="url(#p)" d="m16.3 2.4-1.6.8-2 1h-.3l-.7.4-.1.3-1 .4-.2-1h-1l-.2.7-.7 1.4-2 1.1-.4-.8h-.6q-.5-.1-.3-.4v-.1q-1.1.1-1.5-.5l-.6.9q-.4.9-.6 2.3l-.2.7L3.4 9l-.2.2-2.6 1.3V-.3l6.2-3.2 3.1-1.7 6.4-3.2zm-3-5.5q-.7-1.8-.9-1.6l-.4.4-.3 5.3-.2.5-.4.9.9-.6 1.6-.8h.1l.9-.6q.6-.7.4-1.6l-.4-.5-.2.1q-.3.3-1-1.5M8.6 2.2 7 4l1.3-.1q.3-.3.6-.2l.1-.3.1-.4v-.6z" transform="translate(26.6 71.25)"/><path fill="#858f97" d="m41.4 74.9.4.3v10.4q-.6.5-.6.8h-.1v-4.9l.1-6.6zm-.7 12.6.4.3v10.4l-.1.1-.4.7h-.1q-1-4.5 0-10-3.4 2.2-9.5 4.1h-.1l-1-.1 2.7-1.5 1.1-.2 1.1-.5.3-.3.6-.3-.1.3.3-.4h-.2l.1-.1 4.8-2.5zm1.5 11.9.4.3V110q-.5.5-.5.8H42v-4.6l.1-6.9zm3.8 11.8.5.3v3.2l-.1 3.8q-.5.5-.6.9h-.2l.2-6.9v-1.3zm-10.7-8 .4.1q-3.8 3-9.3 4.9l-.7-.3h-.1l3.5-1.9.6.2.6-.7 3.9-2zm-2 14.4 3.1-1.6 1.3-.3.5.1q-.4 1.4-3 1.8zm8.7 7h2.6q-6.4 4.4-16.3 7.8l-1.2-.5h-.2l5.6-2.8.8.1 1-1 6-3.1z"/><path fill="url(#q)" d="m14.5 15.2-.8.4L11 17h-.2l-.2-.1q-.3.1-.6.5l-.2.2-1 .5-.2-1.1h-1l-.1.8-.7 1.3-2.1 1.1-.4-.8h-.5q-.5 0-.4-.3v-.2q-1 .2-1.4-.5l-.6 1q-.4.8-.7 2.2l-.2.7 1.2-.6-.3.3-2.5 1.3V12.4L5 9.2l3.2-1.6 6.3-3.2zm-3-5.8 2.8-.2h.2-.2zl.1.3q.7 1.8 1.1 1.5l.1-.2q.4.1.4.6.2.8-.3 1.6l-1 .6-.1-.1-1 .5-1.5 1 .6-1.4.3-4.4L7 11l-3.7 4.9L7 11l3.2-1.6v-.2l-.2.2-3.2 1.5-3.5 5 3.6-5L10 9.3h.2v-.9l.5-.4.5.7 1-.5 2.3-2.1-2.3 2.1-1 .5.1.2.1.2zm3-3.2-2.2 2.1-1 .5 1-.5zM10 9.5h.2zm4.4-.2-3 .1zm-7.5 5.6q-1 .8-1.5 1.7h1.3q.3-.3.6-.3v-.2l.1-.4V15z" transform="translate(26.6 71.25)"/><path fill="#7c8b92" d="m52.7 118.7.6.4v9.2q-.6.6-.8 1.2h-.1v-8l.1-1-8.1 4.2h-2.6l1.9-.9.3-.3.4-.3.6-.3-.2.5.4-.7-.2.1.1-.3z"/><path fill="url(#r)" d="m25.8 58.3-5.6 2.9-.2-.1h-.1l-.2-.1q-.6.1-1 .7l-.2.3-1.6.9q.1-1-.2-1.8h-1.6l-.3 1.1-1 2.3-3.2 1.7-.1-.1-.6-1.2h-.8q-.7-.2-.5-.6l-.2-.2q-1.5.4-2.1-.8-.5.6-.9 1.5-.7 1.5-1 3.5L4 69.4l1.8-.9-.4.3-4 2v-9.7q10-3.4 16.4-7.7l8-4.1zm-2.9-6.2-3.1 2.2-.7.6-.1.1-.4 1.1-.9 2.2q1.7-1.4 3.8-2.3l.3.1q.8-.3 1.3-1 1-1 .8-2.5-.1-.6-.8-.8zm-9 5.8-.4.3zq-1.5 1.3-2.4 2.6h2q.4-.4.9-.5l.2-.3.2-.5-.1-1v-.1z" transform="translate(26.6 71.25)"/><path fill="#5b5a62" d="m43.5 134.2-3.1 1.6 1-2.3.3-1.1h1.6q.3.8.2 1.8m-6.9-112h-.1zm-.1 6.1 1-2.1.3-1h1.4q.3.7.1 1.6zM35 33.5l-.2.1zm-.1 5 .8-1.7.2-.8 1.2-.1.2 1.4zM33 64.6l.8-1.4.1-.7h1l.2 1zm.6-13 .8-1.4.1-.7h1l.2 1zm-.5 8.8H33m2 17.3.8-1.5.1-.7h1l.2 1.1zm.1-4.1H35zm-1.7 12.8h-.1m0 4.2L34 89l.1-.7h1l.3 1zm1.3 11.5-2.1 1.1.8-1.4.1-.7h1zm-2-3.2h-.1zm1.5 11.9H34m0 4.2.8-1.4.1-.7h1l.2 1zm2.4 4.3-.1.1.2-.2zm2.4 3.7-2.5 1.3.9-1.7.2-.9h1.2zm1.6 6.3-.3.2z"/><path fill="#545056" d="m37.2 137.5-3 1.4H34l3.2-1.6zm-.5-115.1h-.1zm-3 7.5L31 31.2l-.3.1 2.9-1.4m-1.1 9.9L30.3 41H30zm-1.3 26-1.9 1H29zM34 47.5v.1zm-2.1 5.3-1.9 1h-.2zm1.5 7.7h.1v.1zM33 78.8l-1.9.9H31zm-1.7 12.8-1.8 1h-.3zm-.7 12.6-1.9 1h-.2zm1.6 11.9-1.9 1H30zm2 9.4-2.2 1.1-.3.1z"/><path fill="url(#s)" d="m.3 71.3-1-.5.1-9.8-.6-.4V60l1.3.6.2.1v3.5l.6.1-.1 1.4-.5 1.7zm-25.8-22.7v-.9l14.4 7.4-.6.5z" transform="translate(26.6 71.25)"/><path fill="#2a211b" d="m26 142-3-1.4-1.4-1.4h-.1l-.8.2-.3-.2-.1-.8v-.2l.4-.4q.4-.2.4-.7v-.5l-.3-.5-.4-.7.6-2-.2-.3-.3-.3-1.2-.3-.3 2-.8 3.6-1.8-.9q.4-.9 0-2-1 .3-1.5 1.3l-.4-.3q.2-1.1-.3-2.4H14l-1 1.8-3.7-2-.3-.3-.6-.2-.6-.2-6.6-3.4q-.2-.8-.7-1.2V126l.5-.8v-.1q0-1.4-.6-2.5v-2.4l.6-.3v-.2l13.8 6.9 10.5 5.2.7.3zM6.5 115.5q-.1-.7-.4-1.3v-1.8l.4-.3v-.1l10.6 5.3 1.8.9-.6-.2q-1.1 1.2-.6 2.7v.1q-.7.5-.9 1.5 1 .3 1.6-.7v-.1l-.5-.5h-.3l.3-.3-.1.1q.6-1 1.7-1.5l.2-.2v-.5l5.3 2.6.6.3-.1 7.4-2.3-1.1-1.1-1-.7.1-.2-.2v-.7l.2-.3q.3-.2.4-.5v-.5l-.2-.4-.4-.4.5-1.6-.2-.2-.2-.2-.9-.2-.2 1.5-.6 2.8-1.4-.7q.3-.7 0-1.6-.8.3-1.1 1l-.4-.2q.2-.9-.2-1.8l-.8 1.3-2.8-1.5-.3-.2-.4-.2-.5-.1-5.1-2.7q-.1-.5-.5-.8v-1.7l.4-.6zm2.3-5.9-.3-.5v-1.4l.4-.5v-4.7l-.4-.5v-1.5l.4-.3v-.2l8.9 4.5 6.7 3.3.5.3-.1 10.9-2-1-.8-.9H22l-.5.2-.2-.2v-.6l.2-.2.3-.5v-.3l-.5-.8.4-1.3-.2-.2-.2-.2-.7-.2-.7 3.7-1.1-.7q.2-.5 0-1.2-.7.1-1 .8l-.4-.2q.2-.7-.1-1.5l-.7 1-2.4-1.2-.2-.2-.4-.1-.3-.2-4.2-2.2zm0-10L7.6 99q-.2-1.5-.6-1.8v-1.4l.4-.5v-4.7l-.4-.5v-1.5l.4-.3v-.1l8.9 4.5L23 96l.5.2-.1 10.9-2-1-.2-.3-.6-.6h-.3l-.3.1-.2-.1v-.6l.2-.2.3-.5v-.4l-.5-.7.4-1.3-.2-.2-.2-.2-.7-.2-.7 3.6-.4-.2-.7-.3v-1.3q-.6 0-1 .6v.2l-.4-.2v-.2q.2-.6-.1-1.3l-.7 1-2.4-1.1-.2-.3-.4-.1-.3-.1zm-.1-13.1-.4-.2q-.2-1.4-.6-1.7v-1.4l.4-.5V78l-.4-.5V76l.4-.3v-.2L17 80l6.8 3.3.4.3-.1 10.9-1.9-1-.9-.9-.6.2-.2-.2V92l.2-.2.3-.5V91l-.4-.8.3-1.3-.1-.2-.2-.2-.7-.2L19 92l-1.1-.7q.2-.5 0-1.2-.6.1-1 .8l-.3-.2q.2-.7-.2-1.5l-.6 1-2.4-1.2-.2-.2-.4-.1-.4-.2zM10 73.6q-.2-1.4-.6-1.7v-1.5l.4-.5v-4.7l-.4-.5v-1.5l.4-.2v-.2l8.9 4.5 6.7 3.3.5.3-.1 10.8-2-1-.3-.4-.6-.5-.5.2-.2-.2v-.5l.2-.3.3-.5v-.3l-.5-.7.4-1.3-.2-.2-.2-.2-.7-.2-.7 3.6-1.1-.6q.2-.6 0-1.3-.7.2-1 .8l-.4-.1q.2-.7-.1-1.6l-.7 1.1-2.4-1.2-.2-.2-.4-.1-.3-.2zm.1-12-2.1-1q-.2-1.5-.6-1.8v-1.4l.4-.5v-4.7l-.4-.6v-1.5l.4-.2v-.1l8.9 4.5 6.7 3.3.5.2-.1 10.9-2-1-.8-.9-.5.2-.2-.2v-.6l.2-.2.3-.5v-.3l-.5-.8.4-1.3-.2-.2-.2-.2-.7-.2-.7 3.7-1.1-.7q.2-.5 0-1.2l-1 .8-.4-.2q.2-.7-.1-1.6v.1l-.7 1-2.4-1.2-.2-.2-.4-.1-.3-.1zM9.5 48l-.8-.5q-.2-1.4-.6-1.7v-1.4l.4-.5v-4.7l-.4-.6v-1.5l.4-.2v-.1l8.9 4.5 6.7 3.3.4.2v10.9l-2-1-.8-.9h-.1l-.6.2-.1-.2v-.6l.2-.2.3-.5V52l-.5-.7.4-1.3-.2-.2-.2-.2-.7-.2-.7 3.6-1.1-.6q.2-.5 0-1.2l-1 .8-.4-.2q.2-.6-.1-1.5l-.7 1-2.4-1.1-.2-.3-.4-.1-.3-.1zm.7-3.2v.2q.5 1.4 1.2 2 .2.3.5.4l1.3.4h.1q0-1-.2-1.7l-.4-.7-.7-.3-.3-.4-.4-.2h-.1.1-.3zm9.2-2.4-1-.5q-.3.3-.5 1.7l-.1 1.6q-.2 2.8 0 3.5l.1.1-.7 1.2v.1l1-.1.3-.5 1-2v-.1q.2-.1.1-.3v-4.7zm-8.7 15.2.1-.1h-.3l-.8.3v.2q.8 2.1 1.7 2.4l1 .2.3.1.1.1v-.4q0-1.1-.6-2l-.7-.3-.3-.4zm2 13.1-.3.1-.8.3v.1l.7 1.5 1 .9 1.3.4h.1q.1-1.3-.6-2.3l-.7-.3-.3-.4zm8-2.2-1-.5-.2.8-.3 2.6q-.2 2.8 0 3.5l.1.1q-.6.4-.7 1.1v.2l1-.2.3-.5 1-1.9v-.2q.2 0 .1-.2v-4.8zm-9.4 15.1-.4-.2h-.2.2-.4l-.7.3-.1.2.9 1.7.9.7 1.3.3v.1q.1-1.2-.4-2l-.2-.4-.6-.3zM10 96l.1-.2-.3.2-.8.2v.2q.5 1.4 1.1 2l.6.3 1.3.5h.1q0-1-.2-1.7l-.4-.7-.7-.3-.3-.3zm9.7 9.7-1-.5q-.4.4-.6 3.3-.2 2.8 0 3.5l.1.2q-.6.4-.7 1.1v.1l1-.2.3-.4 1-2v-.1q.2-.1.1-.3v-4.7zm-9.2 2.4v.4l.1.2q.8 1.8 1.6 2l1.3.3.1.1q.1-1.4-.6-2.4-.2-.2-.5-.2l-.2-.1-.3-.4-.4-.2h-.1.1-.3zm.1 8.3-.3-.4-.5-.2h-.2l.2-.1-.4.1h.2l-1.1 1.5-.1.2q.6 1.2 2.1 1.6.7.1 1.5.5h.2q0-1.6-.8-2.8zm7.6 12.1-.3-.1-.2-.1-.5-.3-.8-.3q-1.4 1.5-.8 3.5v.2q1-1.4 2.5-2l.2-.2q.2-.1 0-.4zm-1.6 3.8-.6-.7h-.6q-.7.6-.9 1.7v.1q1.4.3 2-1zm-9-6.1q-.3-.3-1-.5l-.5-.5-.6-.3h-.2l.2-.2-.5.2h.3l-1.5 1.9-.1.3q.8 1.6 2.8 2.1l1.9.7h.2q.2-2.1-1-3.7m3.6 6 .2.4q1.3-.3 1.9-1.7v-1.4q.1-.7-.5-.9l-.3-.1-1.5.9-1.4 1.2q.9.7 1.6 1.6m4.6-.7-.2.2.5-.3z"/><path fill="#342525" d="m20.4 139.2-2.2-1.1.8-3.5.3-2.1 1.2.3.3.3.2.3-.6 2 .4.7.3.5v.5q0 .5-.4.7l-.3.4-.1.2zm-3.9-2-1.5-.7q.5-1 1.5-1.3.4 1.1 0 2m1.8-105.7-2-1.1.8-3.2.3-1.9 1 .2.3.3.1.3-.4 1.9.3.5.3.5v.5l-.4.6-.3.4zm-3.6-1.9-1.4-.7q.5-.9 1.4-1.2.4 1 0 1.9m6.7 87.5-1.4-.6.7-3.7.7.2.2.2.2.2-.4 1.3.4.8v.3l-.2.5-.2.2zm-2.6-1.2-1-.6q.4-.6 1-.7.3.7 0 1.3m2.5 10.8-1.6-.7.6-2.7.2-1.6.9.1.2.3.2.3-.4 1.5.3.4.1.5v.4q0 .3-.3.5l-.2.3zm-3-1.5-1.1-.6q.3-.7 1.1-1 .3.8 0 1.5M4.4 18.3h-.3l.5-.2zh.2l.6.2.4.5q.6.1.9.5 1 1.4 1 3.4l-.2-.1-1.8-.6q-1.8-.5-2.5-2V20zm11.8 16.9.2-.2-.4.4h.4l.4.5q-.5 1-1.5.8v-.1q.2-1 .9-1.4M13 26.1V26q.2-1 .8-1.5h.5l.5.5v.1q-.6 1.3-1.8 1m-5 4 .4-.1-.1.1h.1l.5.3.4.4.7.3q.9 1.3.8 2.9l-.1-.1-1.5-.4Q7.5 33 7 31.9v-.3l1.2-1.5zm7.5 8.9q.4-.7 1.2-1 .2.9 0 1.6zm2.5 1.3.6-2.7.3-1.6.8.2.3.3.1.2-.4 1.5.3.5.2.4v.4q0 .4-.3.5l-.2.4h-.1v.7zm-7.8 4.5.8-.2.3-.1h-.1.1l.4.3.3.3.7.3.4.7q.3.8.2 1.7h-.1l-1.3-.4q-.3-.1-.5-.4-.7-.6-1.2-2zm7.2 7.3 1-.9q.2.8 0 1.3zm2 1.1.8-3.6.7.2.2.2.1.2-.3 1.3.5.8v.3l-.3.5-.2.2v.6zm-8.8 4.3.4.3.3.3.7.3q.6.9.6 2v.4h-.1l-.3-.2-1-.2q-.9-.2-1.7-2.4v-.2l.8-.2zh-.1zm6 7.5 1-.7q.3.7 0 1.3zm2.2 1 .7-3.6.7.2.2.2.2.2-.4 1.3.4.8v.3l-.2.5-.2.2v.6zm-6.2 4.4.4.2.3.4q.4 0 .7.3.7 1 .6 2.3h-.1l-1.3-.4-1-1-.7-1.4v-.2l.8-.2zl-.1.1zm8.2 8.6.7-3.7.7.3.2.2.2.2-.4 1.3.4.7v.3l-.2.5-.2.3v.5zm-2.1-1.1q.3-.6 1-.8.2.7 0 1.3zm-7.4 5.5.3.3.6.3.2.3q.5.9.5 2.1h-.1l-1.3-.4-.9-.7-.9-1.7v-.2l.8-.2.4-.2-.2.1h.2zM10 96l.4.2.3.3.7.3.4.7q.3.8.2 1.7l-1.3-.5-.6-.3q-.6-.6-1.1-2v-.2l.8-.2.3-.2zm6.9-5.2q.4-.6 1-.7.2.7 0 1.3zM19 92l.8-3.7.7.2.1.2.2.2-.3 1.3.4.8v.3l-.3.5-.2.2v.6zm-.7 12.5.7-3.6.7.2.2.2.2.2-.4 1.3.4.8v.3l-.2.4-.2.3v.6zm-2.1-1v-.2q.4-.5 1-.6v1.3zm-5.7 4.6.8-.2.3-.2-.1.1h.1l.4.3.3.3h.2l.5.3q.7 1 .6 2.4h-.1l-1.3-.4q-.8-.2-1.6-2l-.1-.2zm.1 8.3q.5.1.8.4.9 1.2.8 2.8H12q-.8-.4-1.5-.5-1.5-.4-2.1-1.6l.1-.2 1.1-1.5h-.2l.4-.1-.2.1h.2l.5.2zm7 4.4.2-.1-.3.3h.3l.5.5q-.5 1-1.5.8h-.1q.2-1 .9-1.5m-1 11.5q-.6 1.3-2 1.1v-.2q.2-1 1-1.6h.5zm-9-6.3q1.2 1.6 1 3.7h-.2l-2-.7q-2-.5-2.7-2.1l.1-.3 1.5-1.9H5l.5-.2-.2.2h.2l.6.3.5.5q.7.2 1 .5m8.2 5.3.3-.2-.6.4z"/><path fill="url(#t)" d="M-20.1 40.7V40l11 5.6-.5.4zM-.4 50v2.6l.4.1v1.1l-.4 1.3-.1 3-.6-.4v-7.5l-.5-.2v-.5l1 .5z" transform="translate(26.6 71.25)"/><path fill="url(#u)" d="m-17.7 28.8-.1-.4 3 1.5.3.2h.4l.2.3 2.4 1.2.8.4.3.2 1 .5.8.4-.2.2zM-1 36.6v6.8l.4.1-.1 1-.3 1-.1 2.5-.5-.2v-11l-.4-.2v-.4l.9.4" transform="translate(26.6 71.25)"/><path fill="url(#v)" d="m-19.2 16.9-.1-.6 9.3 4.8-.3.3zm16.6 7.8v6.8h.1l.4.1-.1 1-.4 1v2.5l-.5-.2v-11l-.4-.2v-.4z" transform="translate(26.6 71.25)"/><path fill="url(#w)" d="M-18.5 4.3v-.6l9.3 4.7-.4.4zM-2 12.1h.1V19l.4.2v.8l-.4 1.2v2.4l-.6-.2.1-11-.5-.2v-.4z" transform="translate(26.6 71.25)"/><path fill="url(#x)" d="m-16.7-8.4-.1-.7 9.3 4.8-.3.3zM-.1-.6v6.7H0l.4.2-.1.9L0 8.3l-.1 2.5-.5-.3V-.4L-1-.6v-.5z" transform="translate(26.6 71.25)"/><path fill="url(#y)" d="m-18.7-21.5-.1-.6 9.3 4.8-.3.3zm16.6 7.8V-7h.1v.1l.4.2-.1.9-.3 1-.1 2.6-.5-.3v-11l-.4-.2v-.4z" transform="translate(26.6 71.25)"/><path fill="url(#z)" d="m-18.1-34.5-.1-.6 9.3 4.8-.3.3zm16.6 7.8v6.8h.1l.4.1-.1 1-.4 1v2.6l-.5-.4v-10.8l-.4-.3v-.4z" transform="translate(26.6 71.25)"/><path fill="url(#A)" d="m-21.6-45-.1-.6 11 5.6-.4.4zm19.5 9.3v2.6l.5.2-.1 1-.4 1.3v3l-.7-.3.1-7.5-.5-.3v-.5z" transform="translate(26.6 71.25)"/><path fill="url(#B)" d="m17.6-45.7-.2 2.8v-2L9.9-41l-.5-.2 1.4-.6.2-.4.3-.1.5-.2-.2.4.3-.5h-.1l.1-.2z" transform="translate(26.6 71.25)"/><path fill="#6a6c77" d="m36.6 22.2.6.3v.1l.1.9-.1.5-.2.3-.8.3-1.8.1q.8-1.2 2.1-2.3zm3.8 107h.1l.7.3v1l-.1.6-.2.3q-.4 0-.9.4l-2 .1q1-1.4 2.4-2.6"/><path fill="#4f4950" d="M27 135.4h-.1m-2.7-32.5"/><path fill="url(#C)" d="m10-49-.1.1" transform="translate(26.6 71.25)"/><path fill="url(#D)" d="m-2.1-35.7 4.2-2.1h.6l.8-.7 1.5-.8 1.2.2-7.3 3.8-.9-.4z" transform="translate(26.6 71.25)"/><path fill="#514e52" d="M34.9 33.6v-.1l.6.2V35l-.2.3q-.3 0-.7.3h-1.5q.7-1 1.8-1.9m-1.1 13.8.5.1v.7l-.1.4-.1.3q-.2-.1-.6.2h-1.2l1.5-1.6zm-.6 13 .4.1v.1l.1.6-.1.4-.1.3q-.2-.1-.6.2h-1.2l1.4-1.6zm2 13.2v-.2l.5.2v.7l-.1.4-.1.2-.6.3h-1.2q.5-.9 1.5-1.7m-1.7 12.7.4.1v1.1l-.1.3q-.3-.1-.6.2h-1.3q.6-.9 1.5-1.6zM32.8 99l.4.2.1.7-.1.3-.1.3q-.2-.1-.6.2h-1.2q.5-.8 1.4-1.6m1.6 11.8.5.1v.7l-.1.4-.1.3q-.2-.1-.6.2h-1.2q.5-.9 1.4-1.6zm2.3 8.5.5.3.1.8-.1.3-.1.3q-.4 0-.7.4h-1.5z"/><path fill="url(#E)" d="m8.5-31.2-.4-.2 1.2-.5.1-.2.7-.4-.1.4.3-.4H10l.1-.2 4.8-2.4-.2 6.9v-6.3z" transform="translate(26.6 71.25)"/><path fill="url(#F)" d="m4.3-29.7 1 .1-6.1 3.2-.7-.2-.1-.1 3.5-1.8.6.1.5-.7z" transform="translate(26.6 71.25)"/><path fill="url(#H)" d="m4.8-16.5-6.2 3.1-.7-.2-.1-.1 3.5-1.8.6.1.6-.7 1.2-.6z" transform="translate(26.6 71.25)"/><path fill="#545356" d="M38.4 56.2q.4.6.6.4l.2-.1q.3 0 .4.5.1.9-.4 1.6l-.9.6h-.1q-1.4.4-2.5 1.4l.5-1.4.3-5.2.1-.1.4-.4q.2-.2.8 1.3l.2.3.1.4-.4.6zm-.3 24.6.1.2q.7 1.8 1.1 1.5l.1-.2q.4.1.5.6.1.9-.4 1.6l-1 .6h-.1l-1 .4-1.4 1 .5-1.4.3-4.3zh-1.4l.3-.1h-.2v-.9l.5-.5.5.8-1 .5 1-.5.1.1-1 .5h-.1v.1l.2-.1.9-.5.1.3v.1zm-1.1-.1h1zm-1 11.6.4-.5q.3-.1 1 1.7t1 1.5l.2-.2q.3.2.4.6.1.9-.4 1.6l-.1.1-.8.5h-.1q-1.4.5-2.5 1.4l.5-1.4z"/><path fill="url(#I)" d="m7.2-23.7-.1-.1" transform="translate(26.6 71.25)"/><path fill="url(#J)" d="m-.2-.6 3.5-1.9.6.1.6-.6 1.2-.6 1 .1-6 3.2z" transform="translate(26.6 71.25)"/><path fill="url(#K)" d="m9.5-5.3 1.2-.5.2-.3.6-.3-.1.3.3-.4h-.2l.1-.2L16.4-9l-.1 7v-6.3L9.9-5.1z" transform="translate(26.6 71.25)"/><path fill="url(#L)" d="M14.8 3.7h-.2l.1-.1" transform="translate(26.6 71.25)"/><path fill="url(#M)" d="m14.7 3.7-.2 6.5V4.4L8.2 7.7l-.4-.1L8.9 7l.2-.2.7-.4-.2.4.3-.5-.2.1.2-.2z" transform="translate(26.6 71.25)"/><path fill="url(#O)" d="m4 9.1 1 .2-6.1 3.1-.8-.2-.1-.1 3.6-1.8.5.1.6-.7z" transform="translate(26.6 71.25)"/><path fill="url(#R)" d="m-2.7 24.7 3.5-1.8.6.1.6-.7 1.2-.6 1 .1-6.1 3.2z" transform="translate(26.6 71.25)"/><path fill="url(#S)" d="m-1.9 25 6.1-3.1q6.1-2 9.6-4.1-1 5.4 0 10l-3.6 1.8h-.1l-.2-.1q-.4.1-.7.4l-.1.3-1 .5-.2-1.1h-1l-.2.8-.7 1.4-2 1-.4-.8H3q-.5 0-.4-.4v-.1q-1 .2-1.3-.5l-.6 1q-.4.8-.7 2.2l-.2.7 1.1-.5-.2.1L-2 36zm11.4-4v.1l-.3 5.3-.6 1.4q1.1-1 2.5-1.5h.1l.8-.4.1-.1q.6-.7.4-1.7 0-.4-.4-.5l-.2.2q-.3.3-1-1.6-.7-1.8-1-1.6zm-3.4 6.6q-1 .8-1.5 1.7h1.2q.4-.4.6-.3l.1-.2.1-.4v-.7z" transform="translate(26.6 71.25)"/><path fill="url(#U)" d="M13.9 16.3v-.1z" transform="translate(26.6 71.25)"/><path fill="url(#V)" d="m15.4 28.2-.2 6.9v-6.2q-3 2.5-6.2 3.1l-.4-.2 1.2-.5.2-.2.6-.3-.1.3.3-.4h-.2l.1-.2z" transform="translate(26.6 71.25)"/><path fill="url(#X)" d="M15.3 35.1v4.5l-3.6 1.9h-.1l-.2-.1q-.4.1-.7.5l-.1.2-1 .5-.2-1.1h-1l-.2.8-.7 1.4-2 1-.4-.8h-.6q-.5 0-.3-.4v-.1q-1.1.2-1.5-.5l-.6 1q-.4.8-.7 2.2l-.1.7 1.1-.5-.2.2-2.6 1.3V36.9q5.5-1.8 9.3-4.8 3.2-.7 6.4-3.2zm-3-1q-.7-1.8-.9-1.6l-.4.4v.1l-.3 5.3-.6 1.4q1.1-1 2.5-1.5h.1l.9-.6.3-.4.1-.6V36q0-.4-.4-.5l-.2.2q-.3.3-1-1.6m-4.9 5.4q-.9.8-1.5 1.7h1.3q.4-.4.6-.3l.1-.2.1-.4v-.7l-.5-.2z" transform="translate(26.6 71.25)"/><path fill="url(#Y)" d="m-.5 50 4.2-2.2.6.1.7-.8 1.5-.7h1.8Q5.1 49 .5 50.3z" transform="translate(26.6 71.25)"/><path fill="url(#aa)" d="m11 44.4 1.3-.6.3-.3.3-.1.4-.3-.1.4.3-.5h-.2l.1-.2 5.7-2.9v1.4l-7.7 3.3z" transform="translate(26.6 71.25)"/><path fill="url(#ab)" d="M9.9 48v-.1z" transform="translate(26.6 71.25)"/><path fill="url(#ac)" d="m9.9 47.9-.2.1zl-1.7 2 1.5-.1q.3-.3.7-.3l.1-.3.1-.4V48zm-1.6-1.5q2.7-.4 3.1-1.8l7.7-3.3-.2 6.9-4.1 2.1h-.4v-.1l-.7.5-.2.3-1.2.6-.2-1.3h-1.2l-.2.9-.9 1.7-2.5 1.3V54L7 53h-.7q-.5 0-.5-.4v-.1q-1.2.3-1.6-.6-.5.4-.7 1.1-.5 1.1-.8 2.6l-.3.9 1.4-.6-.3.2-3 1.5v-7.4q4.6-1.3 7.9-4m5.5-.7-.4.9-.7 1.6q1.3-1 3-1.7l.1.1 1.1-.7q.6-.8.5-2 0-.4-.6-.6v.3L14.4 45z" transform="translate(26.6 71.25)"/><path fill="url(#ad)" d="m25.9 49.3-.1 1z" transform="translate(26.6 71.25)"/><path fill="url(#ae)" d="m-11.1-39.6.4-.4 7.5 3.8v.5z" transform="translate(26.6 71.25)"/><path fill="url(#af)" d="m-9.2-30 .3-.4 6.4 3.3v.4z" transform="translate(26.6 71.25)"/><path fill="url(#ag)" d="m-9.8-17 .3-.4 6.4 3.3v.4z" transform="translate(26.6 71.25)"/><path fill="url(#aj)" d="m-7.8-4 .3-.3L-1.1-1v.4z" transform="translate(26.6 71.25)"/><path fill="url(#al)" d="m-9.6 8.8.3-.4 6.5 3.3v.4z" transform="translate(26.6 71.25)"/><path fill="url(#am)" d="M-3.6 24.3v.4l-6.7-3.3.3-.3z" transform="translate(26.6 71.25)"/><path fill="url(#ap)" d="m-3.2 35.9.5.3h.2l.2-.1.2.1v.4l-6.7-3.3.2-.2.3.2 1.5.7.1.1.4-.1.8.5.3.4z" transform="translate(26.6 71.25)"/><path fill="url(#aq)" d="m-9.5 46 .3-.4 7.6 3.9v.5l-5.3-2.7-.8-.4z" transform="translate(26.6 71.25)"/><path fill="url(#ar)" d="m-1.2 60.7-10.5-5.2.6-.5 9.9 5z" transform="translate(26.6 71.25)"/><path fill="none" stroke="#7c8192" stroke-linecap="round" stroke-linejoin="round" stroke-width="__RESOLUTION__" d="M41.1 80.5H41l-2.9.2h-1.4l-3.1 1.5-3.7 4.9m7-6.5 1-.5 1-.5 2.2-2.2M37 80.6l-.2.1" vector-effect="non-scaling-stroke"/><path fill="none" stroke="#3b2d2f" stroke-linecap="round" stroke-linejoin="round" stroke-width="__RESOLUTION__" d="m29.9 87.1 3.6-5 3.1-1.5.1-.1 1.1-.5 1-.5 2.3-2.2m-4.4 3.3H38l3-.1m-4.2.1h-.2" vector-effect="non-scaling-stroke"/></g></defs><g clip-path="url(#as)"><g transform="translate(28.4 129.7)"><use xlink:href="#at" width="53.4" height="142.7" transform="translate(-27.25 -128.55)"/><use xlink:href="#av" width="53.4" height="142.7" transform="translate(-27.4 -128.7)"/></g></g></svg>