<svg xmlns="http://www.w3.org/2000/svg" xmlns:xlink="http://www.w3.org/1999/xlink" width="78" height="52" viewBox="0 0 78 52"><defs><clipPath id="a"><path d="M1 1h76v50H1z"/></clipPath><g id="b"><path fill="#000" fill-opacity=".3" d="M50.7 17.3q13.6-2.2 20.1 2.9 13.8 8.8-9 11.9 15 3.8-7.7 17.2-29.1-.1-43.3-5.5z"/><path fill="#92852e" d="m31.1 8.4-2.2-.6h-.8l-3.4-.1q-3 .4-4.8 2.4-.9 1-1.4 2.2 2.6-7.5 10.5-11l.6-.3 6.1-.4q5.8 1.2 11 6 4.2 3.8 6 8.3-.2 7-5.2 7H47l-1.2-.2-.7-1.5q-1.9-3.4-5.1-6.4l-.3-.3-2.1-1.7-1-.8-1-.6-1.1-.6z"/><path fill="#7a7025" d="m28.1 7.7.8.1 2.2.6 3.4 1.4 1.1.6 1 .6 1 .8 2.1 1.7.3.3q3.2 3 5 6.4l.8 1.5.8 2.2.1.4.3 1.6.1.7v2.1q-.1 2.3-1.4 4l-.6.8-.4.4q-.9.8-1.9 1.3h-.1q-2.7 1.2-6.6.5-5.9-1-11-5.9-5.2-4.8-6.7-10.6-.9-3.1-.3-5.5l.4-1.4q.5-1.2 1.4-2.2 1.9-2 4.8-2.4z"/><path fill="#827728" d="m45.8 21.7 1.3.2h.4q5 0 5.3-7l.7 2.2q1.2 4.6-.3 8.3-2.5 6.3-8.7 9.1l-1.6.6-.2.1h.1q1-.5 1.9-1.3l.4-.4.6-.7q1.3-1.8 1.5-4.1l-.1-2.1v-.7l-.4-1.6-.2-.4z"/><path fill="none" stroke="#c2b341" stroke-linecap="round" stroke-linejoin="round" stroke-width="__RESOLUTION__" d="m31.1 8.4 3.4 1.4m3.1 2 2.1 1.7m-21.2-1.2q.5-1.2 1.4-2.2 1.9-2 4.8-2.4h3.4m14.8 27.5h-.2" vector-effect="non-scaling-stroke"/><path fill="none" stroke="#000" stroke-linecap="round" stroke-linejoin="round" stroke-opacity=".3" stroke-width="__RESOLUTION__" d="M52.8 14.9q-1.9-4.5-6-8.3-5.2-4.8-11.1-6l-6.1.4-.7.3q-7.7 3.5-10.4 11l-.4 1.4q-.6 2.4.3 5.5Q19.9 25 25 29.8t11 6q3.9.6 6.6-.5l.2-.1 1.6-.7q6.3-2.9 8.7-9 1.5-3.8.3-8.4z" vector-effect="non-scaling-stroke"/><path fill="#a59734" d="m1 24.5.6-1.9q1-2.2 4.5-3.9 2.8-1.5 6.5-2l5.8-.6q7.2 0 12.3 2.6 4.9 2.5 5 6v.2q0 2.9-3 5l-.4.3-1.6 1-2.9 1.1q-3.5 1.3-7.8 1.5h-1.8l-4.8-.4-3-.6q-1.9-.5-3.6-1.3l-.7-.4-1.7-.9-.9-.7Q2 28.4 1.4 27q-.5-1-.5-2zm16.3 3.1Q11.7 29 8.2 27q3.5 1.9 9.1.6M21 21q-2.8.9-5.3.1 2.5.8 5.3 0m8.8 2.8-9.6.5z"/><path fill="#857929" d="M35.8 25q1 5.1 0 10.3v.1q0 3.7-5.1 6.3t-12.3 2.5h-2Q25 39 27.8 32.3l2.9-1.1 1.7-1 .3-.3q3-2.1 3-5z"/><path fill="#92852e" d="M16.4 44.2q-6-.3-10.3-2.6Q2.8 40 1.6 38q-.7-1.1-.7-2.5-.7-3.5-.4-7L.7 27l.2-2q0 1.1.5 2.1.6 1.3 2.1 2.5l.9.7 1.7 1 .7.3q1.7.8 3.6 1.3l3 .6 4.8.4H20q4.3-.2 7.8-1.5-2.9 6.8-11.4 11.9"/><path fill="none" stroke="#000" stroke-linecap="round" stroke-linejoin="round" stroke-opacity=".3" stroke-width="__RESOLUTION__" d="m1 24.5.6-1.9q1-2.2 4.5-3.9 2.8-1.5 6.5-2l5.8-.6q7.2 0 12.3 2.6 4.9 2.5 5 6l.1.2q1 5.3 0 10.4v.1q0 3.7-5.1 6.3t-12.3 2.5h-2q-6-.3-10.3-2.6Q2.8 40 1.6 38q-.7-1.1-.7-2.5-.7-3.5-.4-7M35.8 25v-.2" vector-effect="non-scaling-stroke"/><path fill="none" stroke="#c2b341" stroke-linecap="round" stroke-linejoin="round" stroke-width="__RESOLUTION__" d="M35.8 25q0 2.8-3.1 5l-.4.2-1.6 1-2.9 1.1q-3.5 1.3-7.8 1.5M8.2 27q3.5 1.9 9.1.6m-6.9 5.2q-1.9-.5-3.6-1.3m11.4 2.3-4.8-.4m2.3-12.2q2.5.7 5.3-.2m-.8 3.4 9.6-.5" vector-effect="non-scaling-stroke"/><path fill="#a59734" d="m25.9 16.2 1.8-.8q2.4-.8 6 .4 3.2 1 6.3 3.1l4.5 3.7q5 5 6.9 10.3 1.6 5.1-.9 7.6l-.1.1q-2.1 2-5.9 1.3h-.4l-2-.6-2.9-1.1q-3.4-1.7-6.6-4.5l-1.2-1.1v-.1q-1.9-1.8-3.2-3.6l-1.7-2.5-1.6-3.4-.3-.7-.5-1.8-.1-1q-.2-1.9.4-3.3.4-1 1.1-1.7zm3.5 7.1q2.2 5.2 5.6 6.9-3.4-1.7-5.6-6.9m18.8 12.2q-2.5.3-7.2-8 4.8 8.3 7.2 8"/><path fill="#857929" d="M50.4 40.7q-3.1 4.2-7.6 7l-.1.1q-2.7 2.5-8.2.7-5.6-1.7-10.8-6.7l-1.4-1.5q10 2.5 17-.1l2.9 1.1 1.9.5.4.1q3.8.7 5.9-1.2"/><path fill="#92852e" d="M22.3 40.3q-4-4.3-5.4-8.8-1.2-3.5-.4-5.7.4-1.2 1.3-2.1 2-2.9 4.8-5.1l1.3-1 1.6-1q-.7.6-1.1 1.6-.6 1.4-.4 3.2l.1 1.1.5 1.8.3.7 1.6 3.4 1.7 2.5q1.3 1.8 3.2 3.6v.1l1.3 1.1q3.1 2.8 6.5 4.5-7 2.6-16.9.1"/><path fill="none" stroke="#000" stroke-linecap="round" stroke-linejoin="round" stroke-opacity=".3" stroke-width="__RESOLUTION__" d="m25.9 16.2 1.8-.8q2.4-.8 6 .4 3.2 1 6.3 3.1l4.5 3.7q5 5 6.9 10.3 1.6 5.1-.9 7.6l-.1.2q-3.1 4.2-7.6 7l-.1.1q-2.7 2.5-8.2.7-5.6-1.7-10.8-6.7l-1.4-1.5q-4-4.3-5.4-8.8-1.2-3.5-.4-5.7.4-1.2 1.3-2.1 2-2.9 4.8-5.1m28 22h-.2" vector-effect="non-scaling-stroke"/><path fill="none" stroke="#c2b341" stroke-linecap="round" stroke-linejoin="round" stroke-width="__RESOLUTION__" d="M31.4 34.5q-1.9-1.8-3.2-3.6m-1.7-2.5L24.9 25m25.5 15.7q-2.1 1.9-5.9 1.2h-.4l-2-.6-2.9-1.1q-3.4-1.7-6.6-4.5" vector-effect="non-scaling-stroke"/><path fill="none" stroke="#92852e" stroke-linecap="round" stroke-linejoin="round" stroke-width="__RESOLUTION__" d="M35 30.2q-3.4-1.7-5.6-6.9M41 27.6q4.8 8.3 7.2 8" vector-effect="non-scaling-stroke"/></g></defs><g clip-path="url(#a)"><use xlink:href="#b" width="76" height="49.6" transform="translate(1 1)"/></g></svg>