<svg xmlns="http://www.w3.org/2000/svg" xmlns:xlink="http://www.w3.org/1999/xlink" width="108" height="191" viewBox="0 0 108 191"><defs><g id="c"><path fill="#825917" d="M11 6.8 24.3 0l-2.7 10.6-13 6.4z"/><path fill="#593e11" d="M11 6.8 8.5 17 4.9 32.3 2 30.9 0 12.4z"/><path fill="#ae7820" d="m8.6 17 13-6.4-4 15.5L5 32.2z"/><path fill="none" stroke="#39270b" stroke-linecap="round" stroke-linejoin="round" stroke-width="__RESOLUTION__" d="M21.6 10.6 24.2 0 11 6.8 8.5 17 4.9 32.3 17.7 26zM4.9 32.3 2 30.9 0 12.4l11-5.6" vector-effect="non-scaling-stroke"/></g><g id="b"><path fill="#bac9c2" d="m74.3 18.2 7.4-3.2.8-.5 1-.5 3.7-1.8 1.6-.9L95.4 8l1.4-.7 2-1q1.8-.2 2.5 1.5v13.5l2.8 2.7v11.9l-8.6 3.9L92 38l-7.8-4.1-7.9-4.2-2-2.1z"/><path fill="#c6974a" d="m98.9 6.3-2.1 1-1.4.7-6.6 3.3-1.6.9-3.7 1.8-1 .5-.8.5-7.5 3.2v9.4l2.1 2.1 7.9 4.2 7.8 4 3.5 1.9 2.3 1.2-2 2q-2 1.8-4.7 3.1-2.5 1.2-5.6 2L65.8 38 42.5 27.5v-8.3L80 2.2l3-1.6 4.1-.6zM84.1 33.9"/><path fill="#e3eae7" d="m42.5 27.5 23.3 10.4 19.7 10.3 1.6 3.8v13.7l4 6.3v3.2h-.3q-.9 0-2.1.5L86.5 77l-1 .7H79l-1.3-.5q-1.9-.7-5.8-8.8-14.3-5.5-32.7-15.9l.2-1.4.8-6V45l.1-1.1.1-.4V43l.8-5.6z"/><path fill="#9b7044" d="M85.5 48.2q3.1-.9 5.6-2.1 2.7-1.4 4.7-3l2-2.1 2 2.4v1.7l-2.2.5q-3.4 1-6.5 3.2L87.2 52h-.1z"/><path fill="#64482d" d="m99.8 45.1.6 8.1-1.4 6.3-11.9 6.2V52h.1l3.9-3.2q3.1-2.2 6.5-3.2z"/><path fill="#bb975b" d="M99 59.6v11.1l-8 4V72l-3.9-6.2v-.1z"/><path fill="#5b4228" d="M99 70.8V84l6 8.5-2.6-1.4L90.7 85l.3-10v-.3z"/><path fill="#442d20" d="M102.5 91.2 90.9 100v81l-14 7.4 5.5-71.9-68.2-35.2.8-10.8 53.8 27.8v-1.5l17.8-9.5 4.2-2.2zm-33.7 7.1 15.8-8.2-2 26.5 2-26.5z"/><path fill="#7b5733" d="M76.9 188.5h-.2v.1l-8.7-4.4q-.3-1.4-1-2.2l-.3-.2h1.5q2.5 0 0-2.6-2.5-2.7-2.5-4.8t3.4-2.9q1.8-.4 2.5-1-2.6-1.3-4.3-3.7-1.5-2-3.7-1.9-3.3.1-2.6 3.6-3.4-.6-7-2l-.8-.7q-.3-1.2-1.1-1.4l-.6-.4q.2-3.8-3-5.5l-1-.3q-4.5-1-8 1.7l-2.9 2.5q-2.4 2.2-4.7 1.3t-3.9-3l-2-3.6q-.5-.8-.5-1.7-.2-1.8-1.9-3-3.6-2.2-6.5-5l-1.7-1.2q-1.9-1.4-2.7-3.7-1.3-4-.2-8 .9-3.2 1-6.5 0-2-.8-4-.7-1.7-1.7-2.7l3.2-40 68.3 35.3z"/><path fill="#928818" d="m68 184.2-36.9-18.7-22.6-11.4 2.5-32.8q1 1 1.7 2.7.8 2 .7 4 0 3.3-.9 6.5-1 4 .3 8 .7 2.3 2.6 3.7l1.7 1.3q3 2.7 6.5 5 1.7 1.1 1.9 3 0 .8.5 1.6l2 3.6q1.6 2 3.9 3t4.8-1.2l2.8-2.6q3.5-2.7 8-1.7.5 0 1 .3 3.2 1.7 3 5.5l.6.4q.8.3 1.1 1.4l.8.8q3.6 1.3 7 1.9-.7-3.5 2.5-3.6 2.3 0 3.8 2 1.7 2.3 4.3 3.6-.7.6-2.5 1-3.3.8-3.3 2.9t2.4 4.8 0 2.6h-1.5l.3.2q.7.8 1 2.2"/><path fill="#d89d27" d="M80.5 79.9 90.7 85l-4.1 2.3-17.8 9.5-6.2-3.1zM42.7 60.6l10.8 5.6 16.3 8.2-23.2 11-7.1-3.7-17.5-9zM32.3 43.3l8.9-5.9-.7 5.6-.1.5v.4l-.2 1v.1zm7.1 7.8-.2 1.4zm14.1 15-14 15.7z"/><path fill="#eff3f1" d="M39.2 52.5Q57.6 63 71.9 68.4q4 8 5.8 8.8l1.3.5h6.5l1-.7 2.2-1.2q1.2-.6 2-.6h.3l-.2 9.9h-.1l-10.2-5.2-1-.6-7-3.5-4.3-2.3-29.6-15.8V54zl-.6-.3V54zh-.6z"/><path fill="#c28b32" d="m79.5 79.4 1 .5-17.9 13.8-16-8.3 23.2-11 2.7 1.4zM38.4 54.7l-1.1 3.1-28.1 8.3L0 61.4l18.7-10.5 20 1.6v-.3l.5.3-.6 1.5zm1.8-9.7-.8 6.1-.2 1.4-.6 1.5v-1.5l-20-1.6 13.7-7.6z"/><path fill="#09f" d="m90.7 85-4.1 2.2z"/><path fill="#614518" d="m62.6 93.7 6.1 3.1v1.5L15.2 70.5l-7.6-3.9L0 62.7v-1.4l9.2 4.8-1.7.5 1.7-.5L22 72.8l17.5 9 7 3.6z"/><path fill="#e0af1f" d="m37.3 57.9 5.4 2.7L22 72.7 9.2 66.2zm3.1-14-.1 1z"/><path fill="none" stroke="#603e2b" stroke-linecap="round" stroke-linejoin="round" stroke-width="__RESOLUTION__" d="m98.9 6.3-2.1 1-1.4.7-6.6 3.3-1.6.9-3.7 1.8-1 .5-.8.5-7.5 3.2m-31.7 9.3 23.3 10.4 19.7 10.3 1.6 3.8m0 0v13.7h0l4 6.3h0v2.8M38.7 54l-.3.7m2-10.8-.2 1m-1 7.6-.6 1.5M9.3 66.1 0 61.4l18.7-10.5M7.5 66.6l1.7-.5" vector-effect="non-scaling-stroke"/><path fill="none" stroke="#603e2b" stroke-linecap="round" stroke-linejoin="round" stroke-width="__RESOLUTION__" d="M74.3 18.2v9.4l2 2.1 7.9 4.2h0m7.8 4 3.5 1.9 2.3 1.2m1-34.7L87.1 0 83 .6l-3 1.6-37.5 17v8.3l-1.3 9.9-.7 5.6-.1.5v.4l-.2 1v.1l-.8 6.1-.2 1.4-.6 1.5-.2.7-1.1 3.1M87.2 52H87" vector-effect="non-scaling-stroke"/><path fill="none" stroke="#856525" stroke-linecap="round" stroke-linejoin="round" stroke-width="__RESOLUTION__" d="m84.2 33.9 7.8 4m3.5 1.9 8.5-3.9M72.5 75.8l7 3.5m7.1 8 4-2.2m-10.1-5.2L62.6 93.7l6.1 3.1 17.9-9.5M69.8 74.4l2.7 1.4m-35.2-18 5.4 2.8 10.8 5.6 16.3 8.2-23.2 11 16 8.3M39.4 51.1l-.2 1.4h-.6l-20-1.6 13.7-7.6 7.9 1.7m-31 21 28-8.2m2.3 23.9 7 3.6M22 72.7l17.5 9 14-15.5m-31.4 6.5 20.5-12.1M9.3 66.1 22 72.8" vector-effect="non-scaling-stroke"/><path fill="none" stroke="#7d998a" stroke-linecap="round" stroke-linejoin="round" stroke-width="__RESOLUTION__" d="m104 24-2.7-2.7V7.8" vector-effect="non-scaling-stroke"/><path fill="none" stroke="#5c593d" stroke-linecap="round" stroke-linejoin="round" stroke-width="__RESOLUTION__" d="M101.4 7.8q-.9-1.7-2.6-1.5m-19.3 73 1 .6L90.7 85v.1" vector-effect="non-scaling-stroke"/><path fill="none" stroke="#000" stroke-linecap="round" stroke-linejoin="round" stroke-width="__RESOLUTION__" d="m97.8 41 2 2.4v1.7l.6 8.1m4.6 39.3-2.6-1.3L91 100v81m-14 7.4-.2.2h0m9.9-101.3 4.2-2.2 11.6 6.1m-30-15.4-4.3-2.3m-53.1-3 53.7 27.8v-1.5m8.1 91.6 5.5-71.9 2.1-26.4-15.7 8.2m-54.6-17-3.2 40-2.5 32.8M32.3 43.3l8.9-5.9M15 70.5l-.8 10.8" vector-effect="non-scaling-stroke"/><path fill="none" stroke="#92a921" stroke-linecap="round" stroke-linejoin="round" stroke-width="__RESOLUTION__" d="m91 181-14.1 7.4m-.2.2-8.7-4.4-36.9-18.7v.1l1.5.8q1.4.8 1.4 2.1M8.5 154.1l22.6 11.4" vector-effect="non-scaling-stroke"/></g><clipPath id="a"><path d="M1 1h106v189H1z"/></clipPath></defs><g clip-path="url(#a)"><g transform="translate(19 165.2)"><use xlink:href="#b" width="105" height="188.6" transform="translate(-18 -164.2)"/><use xlink:href="#c" width="24.3" height="32.3" transform="matrix(-1 0 0 1 41.4 -82)"/></g></g></svg>