<svg xmlns="http://www.w3.org/2000/svg" xmlns:xlink="http://www.w3.org/1999/xlink" width="288" height="183" viewBox="0 0 288 183"><defs><g id="t"><path fill="#6a690f" d="m38.1 12.6.1-.7.3.5z"/><path fill="#848313" d="m38.2 11.9-.1.7-4.1 3.8V20l3.7 3.3v1.6l-6.2-3.2-.8-6.2 5.6-7.3zM17 11.1 25.9 0l2.4.6-2.2 16.8-11.4 6-3.3-5.4 1.4-1.8 3.6 3.8 7.2-5.1q-4.4-2-6.6-3.8"/><path fill="#777344" d="m38.1 12.6.4-.2 6.4 12.5 2 6-1.6 12.7-4 3.3 4.7 7-1.5.8-2-3.1-1.1 3.9h-.2q-3.7 0-7-1l-2.3-2.7-2.1-.5.5-3.2 1.8-1.9V33l-8.5-9.4-4.4 3.7-1-1.3-8.7 4.4-3.8 12.4-1.4 8.5-3.7-1.7 3-16.5 3.7.1 1.9-6.1-2.4-2.9.4-1.1 4.2-5.1 3.3 5.4 11.4-6L28.3.6 33 1.8l3.3 6.4-5.6 7.3.8 6.2 6.2 3.2v-1.6z"/><path fill="#959515" d="M37.7 23.3 34 20v-3.6l4.1-3.8zm-31 .9 2.5 2.9-2 6.1-3.6-.1zM17 11.1q2.3 1.8 6.6 3.8L16.4 20l-3.6-3.8z"/><path fill="#565642" d="m29.8 51.3 2.1.5 2.3 2.8q3.3.9 7 .9H43l1.5-.8L46 54l.9-.6q2-3 3.5-6.9l.6 2.6q-.8 3.1-4 6.5l-1.4-.6q.8.5-.1 1.1l-.1-.2q-.8 1.7-4.5 1.3-5.9 1.1-11.6-3.4zM.6 49.6l3.7 1.6.8.4 8.2-1.7.3.9q-.8 2.8-3.6 3.6l-.2.1-6 .2q-1 .9-3.8-2.2z"/><path fill="#616036" d="m41.4 55.5 1.1-4 2 3.2-1.5.8zM46 54l-4.7-7.1 4-3.3L47 30.9l3.4 15.6q-1.4 3.9-3.5 6.9z"/><path fill="#62673d" d="m4.3 51.3 1.4-8.5 3.8-12.4 8.7-4.4 1 1.3-4.7 3.8-3.1 13 1.9 5.8-8.2 1.7z"/><path fill="none" stroke="#314c0b" stroke-linecap="round" stroke-linejoin="round" stroke-width="__RESOLUTION__" d="m38.5 12.4-.3-.5-1.9-3.7L33 1.8 28.3.6 25.9 0l-9 11-4.1 5.2-1.4 1.8-4.2 5-.4 1.1L3.6 33l-3 16.5-.6 2.9m19.2-25.2 4.4-3.7L32 33v13.2l-1.8 1.9M47 30.9l-2.1-6-6.4-12.5M19.2 27.3l-4.7 3.8-3.1 13 1.9 5.8.3.9m36.8-4.3.6 2.6m-.6-2.6L47 30.9" vector-effect="non-scaling-stroke"/></g><g id="b"><path fill="#848313" d="M15.6 8.6 21 9.8 23.5 5l-1.6-3L23.3.5l1.6 4-.4 1.7-3.9 4.7-.6.1-5.4-1.3zm14.5 8-.3 1-.5-.1-4.5 1.3q-1.4 1.7-1 3.2l2.3 4-.4.8q-2.6-1.6-4.1-5l1-3.8 3.8-2.1z"/><path fill="#959515" d="m21.9 2 1.6 3-2.4 4.8-5.6-1.2 2.9-3zm7.9 15.6-.2.7-3.5 7.7-2.4-4q-.2-1.5 1.1-3.2l4.5-1.3z"/><path fill="#8c8353" d="M14.6 9.7 20 11l.5-.1-3.1 3.3-.6-1.4-4-1.1v.2l-.3-.2.1-.1zm9.9-3.4.4-1.6L23.3.5l.4-.5 2 .2 1.9 3.3-.4.4-.1.2-2.9 3 1-1.6.2-.4-.2.3zm-23 26.3L2.8 29l.1-.1 3.9-7.3L9.6 23l.1-.1.2-.1 2.3.7-2.2 5-2.2 5.4v1.4l-.3 1.9.1-2-.2-.1H5.3q-.5 1.5-3.7-2.5"/><path fill="#777344" d="m20.6 10.9 3.8-4.7h.2l.6-.7.2-.4-.2.3-1 1.7 2.9-3L31 6l.5 4.2-1.5 6.4-3.7-.7-3.8 2-1 3.9q1.5 3.4 4.1 5l-2.3 5h-.2l-4 .4v-.5l-.2.3-3 4.2H10l-.3-.1-2-.9v-1.5l2.2-5.3 2.3-5 2.3.8 4.5-5.8-1.6-4.2zM9.8 22.7l1.2-1h.1l2.8-2.3h.2l-.1.1zM25.5.2l4.9.4.2 1.7-3.4 1.6.3-.4z"/><path fill="#aa9d73" d="m30.7 2.3.4 3.7-4-1.9.1-.2zm-5.6 3.1-.6.9-.2-.1z"/><path fill="#575233" d="m29.7 18.3-4 16.3-14.4 6.2-5.6.3 1.9-6-.1 2 .3-1.9 2 .9.3.1 1.2.5v-.5h4.6L19 32l.3.2 3.8-.4.1.4.2-.4 2.3-5 .4-.8zM14 19.5l.3 1.4-1.4-9v-.2l4 1.1.6 1.4 1.6 4.2-4.6 5.8-2.2-.8-2.5-.7z"/><path fill="#63593a" d="m5.7 41.1-2.4.1L0 36.7l1.6-4.2q3.2 4 3.7 2.6l2-.1.3.2z"/><path fill="#686f3c" d="m19 32 .2-.3v.4zm4.1-.2h.3l-.2.4zm-11.9 4.4v.5l-1.2-.5z"/><path fill="none" stroke="#314c0b" stroke-linecap="round" stroke-linejoin="round" stroke-width="__RESOLUTION__" d="m15.6 8.6-1 1-1.9 2h-.1l.3.3 1.3 9-.2-1.4h0v-.1l-3 2.3h0l-1.2 1-.1.1-.1.1-2.8-1.4-3.9 7.3h-.1l-1.2 3.7L0 36.8M23.3.5 21.9 2l-3.5 3.7-2.8 2.9m15.1-6.3.4 3.7.5 4.2-1.5 6.4h0l-.3 1-.2.7-4 16.3m5.1-32.3L30.5.6 25.6.2 23.8 0l-.4.5" vector-effect="non-scaling-stroke"/></g><g id="l"><path fill="#959515" d="m56 .7-8.9 6.8-5.6-3.6L44.9.3l9.4-.3zM26 11.2l2.4-3.5 6.1-.4-2.5 5.3zm21.6 5.1-1.5 5.3-9.3 2.1-4.4-.8v-3l8.4-4.1z"/><path fill="#7e7e12" d="m44.9.3-3.4 3.6L47 7.5l9-6.8.6.2-1.7 3.9-7.3 4.5L42 7.5l-2.6-4L43.6.4zM7.4 27.4v-.2l.2-.2.8-1 1.2-1.2q2.7-2.1 8.4-5.2l3.5-1.8 1-1.4 9.3 1.8 9.6-4.7 8.2.8.5 5.5-1.7 3L30 27l-.3-6.1-12.5 12.5zm18-15.5.6-.7 6 1.4 2.5-5.3-6.1.4 1-1.5 6.2-.2-1.2 6.6-3.2 1.9zm22.1 4.4-6.9-.6-8.3 4.3v2.9l4.4.9 9.3-2.2zm-34 13.2-.1.2zm6.8 3.8 6.8-.1 1.6 6L16 43.4l3-2.7-1.4-2.4 2-4.5z"/><path fill="#797811" d="m43.6.4-4.2 3 2.6 4 5.6 1.9 7.3-4.5 1.7-4 12.1 4.7 10.5 19.7v.3l-4.9-.5 2.3 3.2-.3.2-7.5-4.7-12.3-9.4-5 13.2-19.6 16.6.5 6.1-18.6-3 1.3-4.9-1.4 2.6 1-2.2.8-1.3 1-1.6.1-.3h-.2L9.8 41l-.1-.3v-.1l-.4 1.2v.2L7.9 31.9q-.5-3-.5-4.1v-.4l9.8 6 12.5-12.5.3 6 18.4-4.1 1.7-3.1-.5-5.5-8.2-.8-9.6 4.7-9.3-1.9 1.9-2.7 1-1.6 5.8 2.6 3.2-1.9L35.6 6l-6.2.2.6-.8 6.8-4.2.3-.7q.8 0 .5-.1l1.6-.2zM20.3 33.3l-.7.5-2 4.4 1.4 2.4-3 2.7 12.7-4-1.6-6.1z"/><path fill="#78834b" d="M79.2 25.5q-.5 1-.8 2.2l-1.6.4-.2.1-2.2-3.2zm-7.5 5.4-3-7.2 7.5 4.7q-2.4 1-4.5 2.5"/><path fill="#54552f" d="m78.4 27.7-.3 1.3-5.5 4q-9.8 7-19.7 12.5l-2.3 1.2-.3-1.3-4.1 1.4L44 50q-3.1 1.5-11 6.5-11.7.8-24.1-5l-.4.4Q1 51.9 0 49.6l2.4-6.8q4.2 3.4 8.4 4.6v.1l4-4.8-1.1 2.2 1.4-2.6-1.3 5 18.6 2.9 4.8.5q2.4-1.9 5-2.4l.5-.8 4.6-1.8.5-.6 1.3-.4 1.4-7.4 1.8 6.2q7.9-3.3 14.7-9.1 2.2-2 4.7-3.5 2.1-1.4 4.5-2.5l.4-.2.3-.1z"/><path fill="#697342" d="m2.4 42.8 4.9-15.1.1.1q0 1 .5 4.1l1.3 10 .1-.1.3-1.2h.1v.4l6.7-1.5v.3l-.9 1.6-.7 1.3-4 4.8v-.1q-4.2-1.2-8.4-4.6m66.4-19.1 2.9 7.2q-2.5 1.6-4.7 3.5-6.8 5.8-14.7 9.1l-1.8-6.2-1.4 7.4-1.3.4-.5.6-4.5 1.8-.5.8q-2.7.5-5.1 2.4l-4.8-.5-.5-6.1 19.6-16.6 5-13.2z"/><path fill="#a5a862" d="m7.3 27.7.1-.3zm9.3 12-.1-.2h.2z"/><path fill="#949755" d="m37.6.4-.4-.2h2z"/><path fill="#cacba0" d="m13.5 29.5-.2.2z"/><path fill="none" stroke="#686f3c" stroke-linecap="round" stroke-linejoin="round" stroke-width="1" d="M9.6 24.7q2.7-2.1 8.4-5.2l3.5-1.8"/></g><g id="p"><path fill="#333" d="M77.4 80.8q1.5-2.7 11.3.6 9.7 3.3 21.8 10.6 12.2 7.4 19.7 14.4t5.9 9.6-11.3-.7-21.9-10.6-19.6-14.4-5.9-9.5"/><path fill="none" stroke="#000" stroke-linecap="round" stroke-linejoin="round" stroke-width="7" d="m73.4 143.9-7.7 7.2m12.8-33.7-2.1 24.4m1.4 1.2.4 5.3m-2.3-7.5-17.8 3.6"/><path fill="none" stroke="#fc0" stroke-linecap="round" stroke-linejoin="round" stroke-width="5" d="m74 141.6-7.6 7.2m12-8.1.3 5.3M80 96.7l-3 42.9m-.5-1.1-17.8 3.6"/><path fill="none" stroke="#000" stroke-linecap="round" stroke-linejoin="round" stroke-width="7" d="m84 126.8-2 24.3m-3 2.1-7.5 7.3m11.9-8.2.4 5.3m-2.3-7.5-17.7 3.8"/><path fill="none" stroke="#fc0" stroke-linecap="round" stroke-linejoin="round" stroke-width="5" d="m85.3 106-2.7 42.8m1.5 1.1.4 5.3m-4.8-4.3L72 158m10-10.4-17.7 3.8"/><path fill="#333" d="m70.3 102 1.1.4q1 1.4 1.3 2.9l.1-.1.2-.7v-.7l.8-.6 1-.4.1-.1 1.2.5.6 1.1v-.5l.8-.6 1-.4.1-.1 1.2.5.5 1.8.3-.7.3-.5q1.7-.7 3.1-.9l-.1-.5.9-1.2q.5-.4 1.2-.6 2 1.5 3.2 3.3l.4-.1.1-.2h.5l.4-.1v-.2l.7.3v-.2l.3-.2.9-.2v-.1l.6.3.6-1 .4-.2 1.2-.2q6.4 2.9 6.5 10.9v.6l.3.6.6.8.3.7v.7l.2.7.9 1.4.7 1.4-6-4.5-.7-.6v-1.4l-3-4-.3.5.4 1.3v.1q.5 2 .5 4.2l.3 1.3-.4 1.5-.1.6-1-.3-1.3-.5-.2.6-.6.6-.8.6q-1.6-2.1-2.1-4.6l-1.5 1.2-1 .6-1.2-.5-.2.3-.4.5-1 .7-1.2-.5-.6-2.7-.1-.1v-.4l-.5-2.4-1.8 2.5-.2.8 1.1.9-1.6.4-.3.8-.1.7-1.2-1.1-.5.1-.2-.6q-1-.3-1.9-1l-.2-.5-.8.7-2.4 2.1-.5.5-1 .2-.9-.6-.4.5v.3l-.4.1-.5.1q-.2-1 0-2V115l-.5-1.2.2-.7.3-.7q-1-1.7-.1-3.5v-.7l.3-.3.2-.4-.8-1.4-.1-.7.1-.6.6-.7.5-.2.2-1.2.5-.4zm15.4 4.6-.6-1 .6 1.3zm-18.3 1q0 5-2.1 9.7l-.2.7-1.7.6-.6-.6-.5-.7q.6-3.8.6-7.7v-1.3q1.3-1.5 2.9-1.9l1 .5z"/><path fill="#333" d="m93.4 56.7 3.2 2.8q8 8.1 8 19.5t-8 19.4-19.4 8.1q-11.5 0-19.5-8.1t-8-19.4q-.1-11.4 8-19.5 1.5-1.6 3.2-2.8z"/><path fill="#dfdfdf" d="M60.9 56.7q7-5.3 16.3-5.2 9.1 0 16.2 5.2z"/><path fill="#333" d="M87.3 99.6q-8 8-19.4 8t-19.5-8q-8-8.1-8-19.4 0-11.5 8-19.6l3.3-2.8H84l3.2 2.9q8.1 8 8.1 19.5 0 11.3-8.1 19.3"/><path fill="#dfdfdf" d="M44.3 56.7q-.4-2-.3-4.3-.1-3.4.7-6.5-1.1-1.6-1-3.6-.1-2.8 2-4.8 1.7-1.7 4-2l1.9-2.2q0-2.8 2-4.8t9.3-6.9 9.9-4.9-1 3.6q-1.7 1.7-3.5 4.8l3.2-.2q11.3 0 19.4 8 7.8 8 8 19.5v.6l-.2 3.7q-30.6 21.5-54.4 0"/><path fill="#ccc" d="M98.7 56.7q-1.3 8.6-7.8 15.1Q82.8 80 71.4 80T52 72q-6.4-6.6-7.6-15.2 23.8 21.5 54.4 0"/><path fill="#fff" d="M73.1 47.2q0 2.8-2 4.8t-4.8 2-4.9-2-2-4.8 2-4.9 4.9-2 4.8 2 2 4.9"/><path fill="#000" d="M64 46.3q1.1 1.1 1.1 2.6t-1 2.6q-1.1 1-2.6 1t-2.5-1-1.1-2.6 1-2.6 2.6-1 2.6 1"/><path fill="#fc0" d="M38.8 62.9q5 .4 7.2 3.1t.4 6.1q-1.8 3.5-6.6 5.7-4.9 2.1-9.9 1.7-5-.3-7.2-3t-.4-6.2 6.7-5.5q4.8-2.2 9.8-1.9"/><path fill="#fc0" d="M45.8 54.7q6-.2 8.3 2.6 2.2 2.7-.7 6.6-3 4-9.3 6.9-6.3 2.8-12.4 2.9t-8.4-2.5q-2.2-2.8.8-6.7 2.9-4 9.3-6.8 6.3-2.9 12.4-3"/><path fill="none" stroke="#be8e01" stroke-linecap="round" stroke-linejoin="round" stroke-width="3" d="M54.1 61.3q-.2 1.5-1.6 3.3-2.2 2.9-6.1 5.3 0 1.3-.9 3-1.8 3.4-6.6 5.5-4.9 2.2-9.8 1.8-5-.3-7.2-3t-.4-6.2l.2-.4"/><path fill="#999" d="M76.6 28.9q8.9 0 15.1 6.1Q98 41.3 98 50.3t-6.3 15-15.1 6.3q-7.8 0-13.6-4.9 4 2.3 9 2.3 7.8 0 13.3-5.5 5.4-5.4 5.4-13.1t-5.5-13.2-13.1-5.4q-5.6 0-10 2.8 6-5.7 14.5-5.7"/><path fill="#999" d="M95.8 44.7q-1.7-6.1-6.2-10 8 4.8 10.7 14 2.7 9.5-2.2 18.2-4.8 8.6-14.4 11.3-9.5 2.7-18.2-2.1T54.2 61.7q-2.4-8.5 1.1-16.2-1.3 5 .3 10.5 2.3 8.3 9.9 12.6 7.5 4.2 15.9 1.9 8.3-2.5 12.5-10 4.3-7.6 1.9-15.8"/><path fill="#999" d="M79.4 45.6q1.2 4-.5 7.7.6-2.4-.2-5-1.2-4-4.8-5.9-3.7-1.9-7.6-.7-4 1.2-6 4.8-1.8 3.7-.6 7.6.9 3 3 4.7-3.9-2.1-5.2-6.5t.8-8.7q2.2-4.2 6.8-5.6t8.7.8q4.2 2.3 5.6 6.8"/><path fill="#ccc" d="M88.9 32.1Q98 41.3 98 54.3t-9.2 22.1q-9.2 9.3-22.2 9.3t-22.2-9.3q-9.1-9.1-9.1-22.1t9.1-22.2 22.2-9.2 22.2 9.2"/><path fill="#fc0" d="M46.4 70.4q-1.2 9.6-17.6 9.5-8-.9-11.2 11.4Q4.3 89.4 1.4 77.7q-2.8-11.9 20-19l3.7-.4q23-1.7 21.3 12"/><path fill="#ccc" d="M49.8 42.6q-2-.7-1.2-6.9.6-6.1 3.5-14.2 2.8-8 6.1-13.3t5.2-4.6 1.2 6.8q-.6 6.2-3.5 14.3-2.8 8-6.1 13.3t-5.2 4.6m25.3-31q-.6 6.2-3.5 14.3-2.8 8-6.1 13.3-3.3 5.2-5.2 4.6T59 36.9q.6-6.1 3.5-14.2 2.8-8 6.1-13.3t5.2-4.6 1.2 6.8"/><path fill="#ccc" d="M69.6 40.3q-2-.7-1.2-6.9.6-6.1 3.5-14.1Q74.7 11 78 5.9t5.2-4.6q1.9.7 1.2 6.8-.7 6.2-3.5 14.3-2.8 8-6.2 13.3-3.2 5.2-5.1 4.6"/><path fill="#000" d="M67 51q0 1.6-1.1 2.8T63 54.9t-2.8-1.1Q59 52.6 59 50.9q0-1.2.8-2.3l.4-.5Q61.5 47 63 47t2.8 1.1l.3.5q.9 1 .9 2.3"/><path fill="#666" d="m123.4 85.4 4.6 6.8.4.6 5.8.5q1.6-2.5 2.7-1.5l-1.3 1.5-.7.8-.3 1.4-.2.8-2.5 1.3q4 4.8 5.8 4.9 2.8 0-13.7 3.3l-14.5 1.9q13.9-12 13.9-22.3"/><path fill="#999" d="M109.5 107.7q-1.7 1-16.7-5.7 3-.4 6.4-1.7l.2-.5.3-.7 5.5-1.3-5.5-.2q-5.5-2.8-11.8-3-.7-.7-1.6-1l-2.9-1.3q-.5-6.1-3-11.9-.5-1.1-1.5-1.4l-1.5-.5q1.8-5 6.5-8.6 7.5-5.6 16.7-4.2 9.3 1.3 14.9 8.7l7.9 11q0 10.3-13.9 22.3"/><path fill="#333" d="M92.8 102q-9.4 1.3-16.6-6-.5-1.8-.3-3.7.2-1.2-.2-2.2l-2.2-3q-.6-1-.6-2-5.5-.8-10.9-2.6l-.6-.5-.4-1.5-.1-.7q.7-1.6 2.2-2.4l.8-.6 1.8-.5q6.1.8 11.7 2.3l1.5.4q1 .3 1.5 1.4 2.5 5.8 3 11.9l2.9 1.3q.9.3 1.6 1 6.3.2 11.8 3l5.5.2-5.5 1.3-.3.7-.2.5q-3.3 1.3-6.5 1.8"/><path fill="#333" d="M122.9 83q2.5 1.1 3 4l.3.7-.4.6-.6.8-1.3-.2-1.5-.3q-1.2-1.6-1.5-3.4l-.1-.8h.2-.4l-6.9-5-4.5-1-3.7-1.2q-6.7 2-11.8-1.8v-.7q0-1.3 1.4-1.9h.9v-.1q8.1.2 15 4.7l-5.7-4.1q-2.3.1-3.7-1.9-.5-1.4.3-2.7l.4-.7q1.3-1.4 3-1.4 8 5.7 14.8 13.5l.5.7.1 1.3.4 1.4.1.5v.1l.9-.7zM93.7 67.3q-.1 1.4-.8 2.7l-.4.8v.6l.3.8q-13 15.6-32.3 6.7l-.9-1q0-2.2 2.4-2.5 15.8 4.1 29.4-4.4.6-2.4 2.1-3.7z"/><path fill="none" stroke="#000" stroke-linecap="round" stroke-linejoin="round" stroke-width="1" d="m79.1 24.9 3 1.6q4.5 2 8.2 5.7 3.5 3.6 5.6 7.8 2.5 3.4 3.8 7.9 2.1 7.6-.5 14.7l1.5 2.4 3.5.9h.5l.7.4q5.6 2.3 9.5 7.4l2.1 2.8 2.5 2.8.5.7v.8l1.4 1.9h0l.9-.4q2.5 1 3 4l.3.6-.4.7-.2.3 2.4 3.5.5.7 5.7.5q1.6-2.5 2.7-1.5l-1.3 1.4-.7.8-.3 1.5-.2.8-2.4 1.3q3.8 4.8 5.8 4.8 2.3.1-9.3 2.4l1.7 1.6q7.4 7 5.8 9.6-1.5 2.6-11.2-.7-7.6-2.5-16.6-7.5-2.5-.4-8.9-3 2.4 3 2.5 7.8v.7l.3.6.6.7.3.8v.6l.2.8.9 1.3.7 1.4-6-4.5-.7-.5v-1.4l-3-4-.3.4.4 1.4h0v.1q.5 2 .6 4.1l.2 1.4-.4 1.5-.1.6-1-.4-1.3-.5-.2.6-.6.7-.8.5q-1.6-2-2.1-4.5l-1.5 1.1-1 .6v1l-.3 6.7q.9 1 .8 2.5l-.5 6.5v.2l-1.2 14.4h0q.7.7.8 1.6v1l.5 1.3.3 5.4q.1 1.3-.8 2.5t-2.4 1.2q-1.4.1-2.5-.9t-1.3-2.3v-1l-6.3 6.1q-1.1 1-2.5 1t-2.4-1-1.1-2.5 1-2.5l.7-.6.6-1 .4-.3-6.2 1.3q-1.4.3-2.6-.5t-1.5-2.2.5-2.7l1-1 .3-.7.3-.4.8-1.1.6-.6q.1-.7.7-1.2l.4-.3-6.3 1.2q-1.4.3-2.6-.5t-1.5-2.2.5-2.6l1-1.1.4-.6q.6-1 1.6-1.2l15.2-3 1.7-19.5q0-.9.6-1.6l-.6-.4-.2-.4-.8.7-2.4 2.1-.5.4-1 .2-.9-.5-.4.5v.2l-.4.2-.5.1q-.2-1.1 0-2.1v-1.6L67 113l.2-.7.3-.6q-1-1.7-.2-3.5l.2-.3v-.4l.3-.3.1-.3h-1.1q0 5-2.1 9.6l-.2.7-1.7.7-.6-.7-.5-.7q.6-3.7.6-7.7v-1.3l1-.9q-8.8-1.2-15.4-7.8-8-8-8-19.4v-2.1l-1.7.6q.2.6-.1 1.1-.2.5-.8.8-4.4 1.5-8.8 1.2l-2.6-.4q-.6-.2-1-.7l-.1-.4q-5.3 1.7-7.7 11Q3.7 88.8.9 77q-3-11.8 20-19l3.6-.4q4-.2 7.3-.1l1-.5 2-.8v-2.6q0-13 9.1-22.2 2.7-2.6 5.7-4.5l1.9-6q2.8-8.1 6.1-13.4 3.3-5.2 5.2-4.5 1.9.6 1.2 6.8-.5 5.2-2.6 11.8l.9-.7h.1q2.7-7.3 5.7-12.2 3.3-5.2 5.2-4.5 1.8.6 1.3 6.2 1.4-2.9 2.8-5.2Q80.7 0 82.6.6t1.2 6.8q-.6 6.1-3.5 14.2z"/></g><g id="F" transform="translate(41.8 37.45)"><use xlink:href="#a" width="79.7" height="80.8" transform="matrix(.3 .05 -.14 .46 -10.95 -9.85)"/><use xlink:href="#b" width="31.6" height="41.2" transform="translate(-14.25 -37.45)"/><use xlink:href="#c" width="140.7" height="28.1" transform="matrix(.25 0 0 .48 -19.5 -4)"/><use xlink:href="#d" width="140.7" height="28.1" transform="matrix(.32 0 0 .63 -19.55 -4.1)"/><use xlink:href="#e" width="140.7" height="28.1" transform="matrix(.51 0 0 .99 -41.8 -5.85)"/><use xlink:href="#f" width="25.4" height="7.3" transform="translate(-14.05 -2.05)"/></g><g id="E"><path fill="#930" d="M167.9 32v-.9l11 1.7-.9-.6q-4.4-3.5-4.5-6.9v-2.5q3.5 1.8 9.8 6.5l-.2-.3q-.2-.2.7 0 .4.3-.8-2.7 19.2 8.6 15.3 10.3-4 1.8-4.8 1.8l-1 .3-.2.2-1 .4-.2-.2.2.6.2.8-1.2 1.3-1 .7-2.5-2.6v.4l-.4.4-.2.2-1 .4q-10.6-8-17.3-9.3"/><path fill="none" stroke="#651c01" stroke-linecap="round" stroke-linejoin="round" stroke-width="1" d="M183 26.4q1.3 3 .8 2.6-.9-.2-.7 0l.2.3q-6.3-4.7-9.8-6.5v2.5q.1 3.4 4.5 6.8l.9.7-11-1.6v.8m18.9 8 2.4 2.5"/><path fill="#930" d="m16.3 26.3 1-1q2.8-3.2 6.9-6.5Q38 7.8 55.4 2.4L62.3.5l3.5.5.6.8.3.7Q43.3 7.8 26.8 19z"/><path fill="none" stroke="#930" stroke-linecap="round" stroke-linejoin="round" stroke-width="1" d="m16.3 26.3-1.1 1.3-1.7 2-6 7L2 45.2.5 48.6m16.8-23.2-1.6 1.4.6-.4zq2.8-3.2 6.9-6.5Q38 7.8 55.4 2.4L62.3.5l3.5.5.6.8.3.7Q43.3 7.8 26.8 19l-10.4 7.3m-.6.4q-2.4 2.6-2.2 2.9"/></g><g id="D"><path fill="#b87301" d="m68.3 30.4.8-.4q1.1.2 2 .9l.3.3q-.2 4.6-4.5 2.6l-.2-.2q-.5-2.3 1.5-3.2"/><path fill="#c79c56" d="M20 37.4q-.6-.4-1.6-.4t-1.5.4q-.7.4-.7 1t.7 1l1.5.5q1 0 1.7-.4t.6-1q0-.7-.6-1.1m3.9 4.3q-3.4 3-6.3 4.6l-.5-.4q-1.2-1-3-1-1.7 0-3 1-1.2 1-1.2 2.4-3.1-.3-5.6-2.8Q10.3 34.2 22.1 26z"/><path fill="#b67e3d" d="M20 37.4q.7.4.7 1t-.6 1q-.7.5-1.7.5l-1.5-.4q-.7-.5-.7-1 0-.7.7-1.1t1.5-.4 1.7.4m-15.7 8Q7 48 10 48.5v-.1q0-1.4 1.3-2.4 1.2-1 3-1 1.7 0 3 1l.4.4q3-1.6 6.3-4.6L25.4 53l-2.3.9-7.5-.6q-2.7.5-5.3 1.4l-7.1-2.8v-.7H1.9q1.1-3 2.5-5.6"/><path fill="#885f2d" d="m3.2 51.8 7.1 2.8q2.6-1 5.3-1.4l7.5.6 2.4.3.6 4.4-10.5.1z"/><path fill="#985f01" d="m23.1 53.8 2.3-.9.1 1.2z"/><path fill="none" stroke="#753d00" stroke-linecap="round" stroke-linejoin="round" stroke-width="1" d="M24 41.7 22.1 26m3.3 26.8L24 41.7M25.5 54l-.1-1.2"/><path fill="none" stroke="#653201" stroke-linecap="round" stroke-linejoin="round" stroke-width="1" d="m25.5 54.1.6 4.4"/><path fill="#000" fill-opacity=".5" d="m54 17 5.6 39.8-12.2 1-5.7-39.7z"/><path fill="#a87537" d="M46.4 16.9q3.3-1.7 6.7-2.4v.2h3.3V18l1.8-.3.2.8 2 7.5-2.8.5 3.2 1.2 1 5.4-.3 5.2 1.1 1.5.5 7q.2 4.4-1 15.6l-10.7.5q1-27.1-5-46m8 2.7 4-1.1zm-1.1 6.8 4.5-.6zm5.1 21.4 4.8-1z"/><path fill="none" stroke="#723f01" stroke-linecap="round" stroke-linejoin="round" stroke-width="__RESOLUTION__" d="m63.2 46.8.2-.1m-5-28.2-4 1.1m3.4 6.2-4.5.6m9.9 20.4-4.8 1" vector-effect="non-scaling-stroke"/><path fill="none" stroke="#723f01" stroke-linecap="round" stroke-linejoin="round" stroke-width="3" d="M51.5 62.9q.9-27.1-5.1-46"/><path fill="none" stroke="#c79c56" stroke-linecap="round" stroke-linejoin="round" stroke-width="3" d="M33.6 15.2Q51.9 4.5 77.4 1.5"/><path fill="none" stroke="#ac7839" stroke-linecap="round" stroke-linejoin="round" stroke-width="3" d="m9.2 36.5 1.9-2.3q9.5-11.5 22.5-19"/><path fill="none" stroke="#926530" stroke-linecap="round" stroke-linejoin="round" stroke-width="3" d="M1.5 48.5q3.4-6.5 7.7-12"/><path fill="#37ccc5" fill-opacity=".8" d="m26.2 54.5-1.6-6.2 5.1-.3 3.6-.3L48 52.9l.6 1.7 2.6-1.8 5 1.7h6.7l2.8-.5 1.1-2.3-2.6-3.2 1.5.3 1 .2 10.2 2.1q-.6 4.6 2.2 9.6l-4.6.5.5 1.3q.4.8.5 2l.4.6.4 1.2v.7q-.2.7-.8 1.2l-.2.4-.9.8-6.6.5-5.9 1.3.2-.1h-4l-1-.2h-.2l-9.2-.7-9.5-.5-6.7-1.6-6.5-2.9-8.2-5.8-1 .6-1.3-.3v.1l-2.1-.6-.6.7-1.6-1.1v.2l-.9-.5-.2-1.1-.4-2.7-1.8-1q-1.7-.7-3.4-1.8h-.1q-1.9-.6-1.7-1.9L0 49.2l.3-.4 6.9 3.3 2.5 1 4.1 2 3.5.7 1.1.3.5.1h7.9l-.4-1.7zm-.5-4 .8 4z"/><path fill="#218780" fill-opacity=".6" d="m33.3 47.7 2.6-.2 11.4-.7.4 4.9 1.7.1 2.7.3-.2.2-.7.5-2.6 1.8-.6-1.7zm16.2 4.1 1.7 1z"/><path fill="#37ccc5" fill-opacity=".9" d="m52.1 52.1 8.2.7 4.3-.5-1.2-4 .8.2 2.6 3.2-1.1 2.3-2.8.5h-6.7l-5-1.7.7-.5zm-33.6 4-1-.3L15 55l11.1-.5h.3l.4 1.7H19zM15.1 55l2.3.8-3.5-.7z"/><path fill="none" stroke="#99e4e4" stroke-linecap="round" stroke-linejoin="round" stroke-width="1" d="m29.7 48 3.6-.3 2.6-.2m29.9 1.3.9.2 6.3.5m-55.5 6.3 1 .3m.5.1h7.9l-.4-1.7-.8-4M15.1 55l2.3.8m-7.6-2.6L7.3 52m7.8 3-5.3-1.8m41.4-.4 5 1.7h6.7l2.8-.5m1.1-2.3-2.6-3.2"/><path fill="none" stroke="#0b2b2b" stroke-linecap="round" stroke-linejoin="round" stroke-width="1" d="m51.2 52.9-1.8-1"/></g><g id="C"><path fill="#bf8f40" d="m36.2 28.2 2.3-.3 3-.4-.2 12.2-21.7 2.8-1.4.2q8.2-8.1 18-14.5m61-8.1 1.9-.2 1.5 11.9-8 1-27.8 3.8q-1.1-6.4-3.6-11.7zm6.1 38.4 19-2.5.5-.3q4.3 2.5 0 12.1l-.5.3-26.5 3.6L69 75.2q-.7-4-1.8-8.1l-.8-3.7zM41 54.7l-.1 5.3v6.8l-23 3-1.5-11.5v-.4z"/><path fill="#960" d="m38.5 27.9 2.7-1.6.1.6h.2v.6zm59-8.4-.4.6-35.9 4.8-.3-.6zm-4.8 13.4-.5 2.2-27 3.6-.3-2.1zm-1.8 14.5v.7l-25.3 3.3v-.6zm5 24.3.1.3-26.7 3.5v-.3zm5.5 10.7 2.3 3.5 1 1.3H98l-6.2-2.5 9.5-1.3zm-90.7 3L8.8 84l-2.7-7.3-5.6-7.4 17.5 1v-.4l22.8-3v.9L15.6 82.6l-2.3.3.1.3-4.5.6zm30.5-43.6-3.7.5v-.5l-20 2.7 2-2.1 21.8-2.8zm-3 12v.5L41 54v.7l-24.6 3.2-1.1.2v.3L4.8 59.8l1.1-1.6zM8.8 83.9"/><path fill="#b87301" d="m41.2 26.3-.1-1.1.5-.3-.1 2h-.2zm64.2-20.4 9.8-5.4 1.2 11.5-7 3.9-1.8 1-.3.1-.2.2-.6.3-1.1.6q11.2-9.4 0-12.2m7 25.8 10.8-7.1 1.5 11-12.3 8.3q15-18.4 0-12.2M90.9 48.1l11-1.5 1.5 11.9-36.8 4.9q-1.2-6-1-12zm32 7.6 5.8-4.7 1.5 10.9-7.3 5.9q4.3-9.5 0-12.1M95.9 72l4-.5 1.4 10.9.1 1-9.5 1.3 6.2 2.5 2.1 8.9q-18 4.7-54.9 1.1-5.8-2.9-16.4-3-6.3-3.9-10-8.5h-4.4l-.3-2.3-3.5 2-1.8-1.6 4.5-.6.7-.1.1.3v-.3l-.8.1v-.3l2.2-.3-1.4.8 1.4-.8 25.2-3.3-25.2 3.3 25.2-15v18.2h29.8q-.5-5.1-1.4-10.3zM.5 69.2v-3.7l3.6-5.6.7-.1 10.5-1.4v-.3l1.1-.2v.4L18 69.8l.1.4zm4.6-10.9q5.2-7.3 11.2-13.6l1.1-.1 20-2.7.1.5 3.7-.5L41 54l-2.7.4-.1-.4.8-.1-1.5-11.5L39 53.9h-.8L5.9 58.3zm104.2-42.4-1.7 1zm-37.7 70L92 84.7zM15.3 58.4l1.1-.1z"/><path fill="#8e4f02" d="M41.6 24.9q7.1-4.2 15-7.5 2.5 3.2 4.3 6.9l.3.6-19.7 2.6v-.6l19.4-2.6-19.4 2.6zm0 2.6 19.7-2.6q2.5 5.3 3.6 11.7l-23.5 3zm-.2 12.2 23.5-3.1.3 2q.7 5.5.5 11.5v.6L41 54l.2-12.1 24-3.2-24 3.2zM41 54l24.6-3.2-.1.6L41 54.7zm0 .7 24.5-3.3q-.2 6 1 12l-24.4 3.2-1.3.2.1-6.8zm-.2 12.1 1.3-.1v-.1l24.4-3.2.8 3.7q1.1 4 1.8 8l.1.4L42.8 79l-1.5-11.4h-.5zm0 .9.5-.1L42.8 79l26.4-3.5q1 5.2 1.4 10.4l-29.8-.1zm1.3-1 1.5 11.8 25.5-3.3-25.5 3.3zm.7 12.3-2 .3z"/><path fill="#c79c56" d="M56.6 17.4Q68.8 12.3 83 9.3l19.7-2.6v-.1l2.4-.3v-.1l.4-.3q11.2 2.8 0 12.2l-.4.1v.2l-2.4.4-5.2.7L61 24.3q-1.8-3.7-4.3-6.9m35.5 17.7 19-2.5 1.3-.9q15-6.2 0 12.2l-1.3.8-20.3 2.7-25.2 3.4V50q.2-6-.5-11.4z"/><path fill="#844801" d="m100.2 96.1.5 2q-3.1 5.5-5.8 3.2l-16.3 3.3-32.3-2.7q-10.4-3.4-17.4-7.7 10.6.1 16.4 3 37 3.6 54.9-1.1"/><path fill="none" stroke="#630" stroke-linecap="round" stroke-linejoin="round" stroke-width="1" d="m36.2 28.2 2.3-.3 3-.4 19.7-2.6 36-4.8 1.9-.2 1.5 11.9-8 1h0l-27.8 3.8-23.5 3-21.7 2.9-1.4.2m23-16.5-.1-1m41.8-16 19.7-2.5M92.1 35l19-2.5M90.8 48.1l11-1.5 1.5 11.9 19-2.5M96 72l4-.5 1.4 10.9.1 1-9.5 1.3-20.3 1.2m-57.1-.2-.3-2.3-3.5 2M61 24.3l-19.4 2.6h-.2l-.1-.6m24 12.4L92 35h0m-27 3.6-23.9 3.2-3.7.5L39 53.9h-.8v.5L41 54l24.6-3.2M41 54.7l24.5-3.3 25.3-3.3m-53.3-5.7v-.5l-20 2.7-1.2.1m24.7 10-24.6 3.2-1.1.2v.3L4.8 59.8l-.7.1m12.3-1.6L18 69.8l23-3 1.2-.1v-.1l24.4-3.2 36.8-4.9m-62.5 9.2.5-.1L42.8 79l26.4-3.5L95.9 72m-26.8 3.2-25.5 3.3-1.5-11.8M5.9 58.2l-.8.1M.5 69.2l17.5 1v-.4m-1.6-11.5-1.1.1m-1.1 25v-.3l-.8.1-4.5.6h0m31.9-4.5-25.2 3.3-1.4.8m-.8-.2v-.3l2.2-.3 25.2-15m0 11.7 2-.3m-4.6-25L5.9 58.2m96.7-51.6 2.4-.3m0-.1.4-.3 9.8-5.4 1.2 11.5m-8.8 4.9-.3.1-.2.2-.6.3-1.1.6-.4.1m6.1 14.4 1.3-.9 10.8-7.1 1.5 11M112.5 44l-1.3.8M122.3 56l.5-.3 5.8-4.7 1.5 10.9m-7.3 5.9-.5.3m-14.7-51.2 1.7-1"/><path fill="none" stroke="#630" stroke-linecap="round" stroke-linejoin="round" stroke-width="2" d="m116.5 12-7.2 3.9m0 0-1.7 1m-2.6 1.5-2.4.4m22.2 16.9-12.4 8.2m17.7 18-7.3 5.9"/><path fill="none" stroke="#653201" stroke-linecap="round" stroke-linejoin="round" stroke-width="2" d="m102.6 18.8-5.2.7L61 24.3m4.7 26.5 25.2-3.4m5 24.3L69 75.2"/><path fill="none" stroke="#630" stroke-linecap="round" stroke-linejoin="round" stroke-width="2" d="m111.1 44.8-20.3 2.6m31.5 20.7-26.5 3.6"/><path fill="none" stroke="#f93" stroke-linecap="round" stroke-linejoin="round" stroke-width="1" d="m4 59.9 1.1-1.6m11.2-13.6 2-2M8.9 83.8l1.8 1.7"/></g><g id="B"><path fill="#694201" d="M69.6 3.6 56 5.1q-33.6 13.2-8.7 8.4L31.5 18 0 41.3l14.2-20.5 26-15.5Q58.6-.5 70.6 0l.6 2.5z"/><path fill="#673901" d="M47.3 13.5Q22.5 18.3 56 5.1l13.6-1.5-1.2.8 2.5 2.3z"/></g><g id="A"><path fill="#930" d="m10.1 3.2 4.2 4.2zm16.4 4.2q2 3.1 4.1 7.1l3 6 3.1 7.1q5.4 14.2 2.9 22.3-3.2 10.2-12 16.1L0 16.4Q2.9 8.2 9.9 0h10.9q2.7 2.6 5.7 7.4m-2.9 13.5 3.5 6.8zq-4.4-7.8-9.4-13.5 5 5.6 9.4 13.5m3.5 6.8Q32.4 39 36.7 54q-4.3-15-9.6-26.3"/><path fill="none" stroke="#e39f5e" stroke-linecap="round" stroke-linejoin="round" stroke-width="__RESOLUTION__" d="M14.3 7.4 10 3.2m17 24.5-3.5-6.8" vector-effect="non-scaling-stroke"/><path fill="none" stroke="#f3d7ba" stroke-linecap="round" stroke-linejoin="round" stroke-width="__RESOLUTION__" d="M23.6 20.9q-4.4-7.8-9.4-13.5" vector-effect="non-scaling-stroke"/><path fill="none" stroke="#bf7020" stroke-linecap="round" stroke-linejoin="round" stroke-width="__RESOLUTION__" d="M36.7 54.1Q32.4 39 27.1 27.7" vector-effect="non-scaling-stroke"/></g><g id="z"><path fill="#999" d="m64 62 .7-.1-.6.3z"/><path fill="url(#i)" d="m37 24 5.5-.1-3.1 2q-4 4.9-10.6 6.2l-7.2 1.1-9.1.4q-.3 0-.7-.4L3 33l8.6-1.4q-15.9-1.4-8.8-2t18.5-3.5q9.2-2.3 15.5-6l-.1-.4v-.4l.2-.2.4.7.6 1.7v.1q.1.4 3.2-2.1l-4.5 4.8z" transform="translate(41.45 48.1)"/><path fill="url(#j)" d="m18.2 34.5.2.2 4.4-.2-4.3.9q11.8 0 4 .8T9.5 38t-21.6.1l15.4-3L17 34z" transform="translate(41.45 48.1)"/><path fill="#c5c5c5" d="m64.3.4.8-.4q-1.6 1.4-4.6 3.2-8.4 6.2-17.7 12.2-8.5 5.6-18 8.3-5.7 1.7-10.2-.5-.8-.4 2.5-8t3.4-8.8 1.8-.4l.5 1v.4Q20.5 12.6 19 18l-.2 1q14.4 1.4 24-7.6T61.5 1l.5.2zM19.8 5.8l.3-.2.6-.1v-.1h.5q-2.4 1.2-1.8.7z"/><path fill="#828282" d="M44 44.5q-6.3 2.6-13 .2-9 6.4-19.1 4.5-4.2-.7-7.4-3.5l-1.6-1.1Q1.2 43.5 0 41.8q.3-6.1 5.3-2.9.5.4.5 1.1 4.3 3.6 9.7 5.5 8.8-2.1 17-6.3 1.9-1 2.8 1 13.3-.1 25-7.7 3.5-2.3 16.6-15.5-8.5 11.8-7.6 12.6l.7.3q-3.4 4.3-8.2 7.6l-2 1.4q-8.1 2.4-15.8 5.6m33-11.4q-.7 2.7-1.9 5.3l-.3.5q.3 1 4-6.4-8.9 20.4-20.6 27l-1.3 1.8-4.5 1.3q-1.4-.1-2.1-1.3-.2-.7-.1-1.4l.1-.5q6.9-5 13.4-10.7 4.8-4.4 9.1-9 .5-.5 1.2-.8l1-2.5q-1.2 1.4-3.1 2.3l.8-1.2 2.3-1.1.1-.1zm-59 23-.1-.9.2-1q10.6-1.1 21.2-4.4 14.8-4.5 28.9-11Q51.7 51.6 37 56.2q-9.6 2.9-19 0"/></g><g id="x"><path fill="#366" fill-opacity=".5" d="M1.8 88.7v-.2L1.6 87Q.6 79.3 0 71.7v-.2l.6-1.9 1.3.5Q5 73.3 10.4 76q13 6.4 31.2 6.5 18.2-.1 31.2-6.5 5.1-2.6 8.2-5.7l2-.8.4-.2L83 87l-.1 1.7q-42.2 15.6-81.1 0"/><path fill="#366" fill-opacity=".2" d="m82.9 88.7-.7 10.1q-44.7 22.4-78.1 0-1.7-4.8-2.4-10 38.9 15.6 81.1 0"/><path fill="#366" fill-opacity=".1" d="M81.4 115.8q-44.8 22.3-78.2 0-1.6-5-2.3-10.2 39 15.6 81.1 0z"/><path fill="#999" d="M62.5 0q9.8 7.5 11.7 9.7 7.5 8.8 9.1 46.8-1.2-2.4-3.5-4.5 3 3.5 3 7.9 0 8.6-12.1 14.7-10.8 5.4-25.4 6h-3.9q-17.1 0-29.2-6l-.7-.3Q3.1 69.9 1 64.2l.1-1.7-.7-.2.1-5.3q1-3.8 4.5-7-2.7 2-4.3 4.1 1.7-18.7 13.7-33.8Q22 10.8 34.2 5.8z"/></g><g id="w" transform="translate(57.85 13.65)"><use xlink:href="#k" width="140.7" height="28.1" transform="matrix(.31 -.05 .39 .21 -5.65 27.9)"/><use xlink:href="#k" width="140.7" height="28.1" transform="matrix(.38 0 0 .36 -45.05 34.85)"/><use xlink:href="#a" width="79.7" height="80.8" transform="matrix(.42 -.06 -.14 .65 2.8 16.85)"/><use xlink:href="#a" width="79.7" height="80.8" transform="matrix(.55 -.08 -.15 .72 -38.35 18.45)"/><use xlink:href="#l" width="79.3" height="56.6" transform="translate(-44.1 -11.3)"/><use xlink:href="#m" width="95" height="52.5" transform="matrix(.81 -.05 0 .81 -42.7 -8.75)"/><use xlink:href="#n" width="140.7" height="28.1" transform="matrix(.75 -.03 .03 1.14 -57.85 26.65)"/><use xlink:href="#o" width="60" height="27" transform="translate(-28.3 20.3)"/></g><g id="v" transform="translate(46.75 35.55)"><use xlink:href="#p" width="138.2" height="163.9" transform="matrix(-.07 0 0 .07 3.8 -35.55)"/><use xlink:href="#a" width="79.7" height="80.8" transform="matrix(.16 0 -.08 .37 -27.05 22.8)"/><use xlink:href="#a" width="79.7" height="80.8" transform="matrix(.28 -.03 -.11 .49 2.25 23.5)"/><use xlink:href="#q" width="51" height="57.4" transform="translate(-27.9 -25.3)"/><use xlink:href="#c" width="140.7" height="28.1" transform="matrix(.13 0 0 .26 -32.25 25.8)"/><use xlink:href="#d" width="140.7" height="28.1" transform="matrix(.17 0 0 .33 -32.2 25.75)"/><use xlink:href="#e" width="140.7" height="28.1" transform="matrix(.27 0 0 .52 -46.75 28.05)"/><use xlink:href="#c" width="140.7" height="28.1" transform="matrix(.21 0 0 .41 -3.65 27.65)"/><use xlink:href="#d" width="140.7" height="28.1" transform="matrix(.27 0 0 .53 -3.65 27.65)"/><use xlink:href="#r" width="49.4" height="5.9" transform="translate(-29.45 27.4)"/></g><path id="o" fill="none" stroke="#99e4e4" stroke-linecap="round" stroke-linejoin="round" stroke-width="1" d="M41.5 12.5q10.9-5.7 18-12M24.3 23.2l5.1-2.7m-28.9 4 8.6 2"/><path id="r" fill="none" stroke="#99e4e4" stroke-linecap="round" stroke-linejoin="round" stroke-width="1" d="m48.9 3.9-3.2 1.5M31.4 2.1l3.8 2.1M.5.5l2.6 1.7M13.3 2l-3.6.7"/><path id="f" fill="none" stroke="#99e4e4" stroke-linecap="round" stroke-linejoin="round" stroke-width="1" d="M10.9-1.5 3.1 2.3M-9.3 4.8l5.5-.5m-9.7-1.7 1.7 1.9" transform="translate(14.05 2.05)"/><path id="e" fill="#fff" fill-opacity=".2" d="M70.4-4.1q0 7.6-20.7 12.9T0 14.1t-49.7-5.3-20.6-12.9q0-5.6 11.3-10-7.7 3.7-7.7 8.3 0 7.2 19.6 12.3 19.7 5 47.5 5t47.5-5T67.6-5.8q0-3.6-4.8-6.6 7.5 3.7 7.5 8.3" transform="translate(70.35 14.05)"/><path id="d" fill="#fff" fill-opacity=".3" d="M70.4-4.1q0 7.6-20.7 12.9T0 14.1t-49.7-5.3-20.6-12.9q0-5.6 11.3-10-7.7 3.7-7.7 8.3 0 7.2 19.6 12.3 19.7 5 47.5 5t47.5-5T67.6-5.8q0-3.6-4.8-6.6 7.5 3.7 7.5 8.3" transform="translate(70.35 14.05)"/><path id="c" fill="#fff" fill-opacity=".5" d="M70.4-4.1q0 7.6-20.7 12.9T0 14.1t-49.7-5.3-20.6-12.9q0-5.6 11.3-10-7.7 3.7-7.7 8.3 0 7.2 19.6 12.3 19.7 5 47.5 5t47.5-5T67.6-5.8q0-3.6-4.8-6.6 7.5 3.7 7.5 8.3" transform="translate(70.35 14.05)"/><path id="a" fill="url(#s)" d="M76 8.8q.5 5.1 1.5 5.6l-.5.6q-1.2 2 .3 3.9l-1.1 1.5q-2.5 2.7.8 5 0 1.3-.7 2.4-3 4.4 1.3 6.1-1.8 1.8-1.4 3.1.3 1.3 1.3 3-.7 1-1.1 2-1.2 3.8.9 7.3-.2 4.9 0 9.8l.2 3.2q0 2.7 2.2 3.8v8.6q-41.9 28.1-79.1 0 1-.4 1-1.2.7-6-1.6-11.9v-.5q.9-1 1-2 .2-1.6-.9-3v-.5l.4-.6.1-.5q1.3-.7 1.5-1.9.4-2.3-1.2-4.4.9-.7 1.1-1.7.7-2.6-2-4.7V41q.6-.8.5-1.6 0-1-.4-1.9l1-1.8q1.1-3.2-.8-6.1 5.7-.8 1.9-5.1l.1-.4.1-1.9v-.6l.2-.4q2.8-4.1-2.6-5v-.3q.9-.7 1.2-1.6.6-1.5-.3-2.8v-.2q1-2 .5-3.4Q34 31.8 76 8.8" transform="translate(0 -7.95)"/><path id="n" fill="#fff" fill-opacity=".3" d="M70.4-4.1q0 7.6-20.7 12.9T0 14.1t-49.7-5.3-20.6-12.9q0-5.6 11.3-10-7.7 3.7-7.7 8.3 0 7.2 19.6 12.3 19.7 5 47.5 5t47.5-5T67.6-5.8q0-3.6-4.8-6.6 7.5 3.7 7.5 8.3" transform="translate(70.35 14.05)"/><path id="m" fill="none" stroke="#314d0b" stroke-linecap="round" stroke-linejoin="round" stroke-width="__RESOLUTION__" d="m48 0 14.9 1h6l17.8 7.9 12.5 24M4 52.6l7.2-22q1.9-2.1 2.8-2.7 3.2-2.3 10.3-5.7l4.3-2 3.6-5L39 5.8 47.9.3" transform="translate(-4.1)" vector-effect="non-scaling-stroke"/><path id="k" fill="#fff" fill-opacity=".4" d="M70.4-4.1q0 7.6-20.7 12.9T0 14.1t-49.7-5.3-20.6-12.9q0-5.6 11.3-10-7.7 3.7-7.7 8.3 0 7.2 19.6 12.3 19.7 5 47.5 5t47.5-5T67.6-5.8q0-3.6-4.8-6.6 7.5 3.7 7.5 8.3" transform="translate(70.35 14.05)"/><path id="G" fill="none" stroke="#f3d7ba" stroke-linecap="round" stroke-linejoin="round" stroke-width="1" d="m62.5-15.1 2.3 2.8M72-6.2l-5-4.5" transform="translate(-61.95 15.65)"/><path id="y" fill="#828282" d="M70.4-4.1q0 7.6-20.7 12.9T0 14.1t-49.7-5.3-20.6-12.9q0-5.6 11.3-10-7.7 3.7-7.7 8.3 0 7.2 19.6 12.3 19.7 5 47.5 5t47.5-5T67.6-5.8q0-3.6-4.8-6.6 7.5 3.7 7.5 8.3" transform="translate(70.35 14.05)"/><radialGradient id="j" cx="0" cy="0" r="819.2" gradientTransform="matrix(.02 0 0 .02 6.6 37.75)" gradientUnits="userSpaceOnUse" spreadMethod="pad"><stop offset="0" stop-color="#366"/><stop offset=".7" stop-color="#366" stop-opacity="0"/></radialGradient><radialGradient id="i" cx="0" cy="0" r="819.2" gradientTransform="matrix(.03 0 0 .03 17.55 30.2)" gradientUnits="userSpaceOnUse" spreadMethod="pad"><stop offset="0" stop-color="#366"/><stop offset=".7" stop-color="#366" stop-opacity="0"/></radialGradient><linearGradient id="s" x1="-819.2" x2="819.2" gradientTransform="rotate(90 1 38.85)scale(.03 .05)" gradientUnits="userSpaceOnUse" spreadMethod="pad"><stop offset="0" stop-color="#082f82" stop-opacity=".5"/><stop offset="1" stop-color="#082f82" stop-opacity="0"/></linearGradient><clipPath id="u"><path d="M1 1h286v181H1z"/></clipPath><use xlink:href="#t" id="q" width="51" height="57.4"/></defs><g clip-path="url(#u)"><g transform="translate(159.25 82.8)"><use xlink:href="#v" width="81.5" height="98.3" transform="translate(-158.25 -81.8)"/><use xlink:href="#w" width="107.5" height="89.8" transform="translate(-54.35 -61.3)"/><use xlink:href="#x" width="83.5" height="126.9" transform="matrix(-.4151 0 0 .4151 76.85 -3.45)"/><use xlink:href="#y" width="140.7" height="28.1" transform="matrix(-.246 0 0 .4496 76.6 15.25)"/><use xlink:href="#y" width="140.7" height="28.1" transform="matrix(-.2365 0 0 .4496 76.05 10.85)"/><use xlink:href="#y" width="140.7" height="28.1" transform="matrix(-.246 0 0 .4496 76.55 17.65)"/><use xlink:href="#z" width="84" height="86.7" transform="matrix(-.4151 0 0 .4151 76.1 -1.4)"/><use xlink:href="#c" width="140.7" height="28.1" transform="matrix(-.466 0 0 .9062 92.7 18.25)"/><use xlink:href="#c" width="140.7" height="28.1" transform="matrix(-.2841 0 0 .5524 79.95 19.35)"/><use xlink:href="#A" width="40.4" height="66" transform="translate(60.95 -10.2)"/><use xlink:href="#B" width="71.2" height="41.3" transform="translate(-108.9 -38.35)"/><use xlink:href="#C" width="131.2" height="104.6" transform="matrix(.714 0 0 .6068 -111.25 -34.2)"/><use xlink:href="#D" width="79" height="71.2" transform="translate(-115.2 -41.55)"/><use xlink:href="#B" width="71.2" height="41.3" transform="matrix(-.6085 -.2255 0 1 92.2 3)"/><use xlink:href="#C" width="131.2" height="104.6" transform="matrix(-.4345 -.161 0 .6068 93.6 7.7)"/><use xlink:href="#D" width="79" height="71.2" transform="matrix(-.6085 -.2255 0 1 96 1.2)"/><use xlink:href="#E" width="198.9" height="49" transform="translate(-115.5 -42.15)"/><use xlink:href="#p" width="138.2" height="163.9" transform="matrix(-.0902 0 0 .0902 -56.35 -51.55)"/><use xlink:href="#F" width="71.3" height="69.2" transform="translate(55.5 29.2)"/><use xlink:href="#G" width="10.6" height="9.9" transform="translate(61.95 -15.65)"/></g></g></svg>