<svg xmlns="http://www.w3.org/2000/svg" xmlns:xlink="http://www.w3.org/1999/xlink" width="60" height="142" viewBox="0 0 60 142"><defs><clipPath id="a"><path d="M1 1h58v140H1z"/></clipPath><g id="b"><path fill="#000" d="M25 2.4v-.5q0-.7.9-1.2t2.3-.5h.7l1.3.2.3.2q.9.4 1 1.2V2l-.1.6-.6.5-.2.1-.6.3-1.7.4-2.2-.4z"/><path fill="#181612" d="m31.5 2 .3 8.5q-.1.8-1 1.3-.4.3-1 .4l-1.2.3q-1.5 0-2.5-.5-.8-.5-.9-1.1V9.7L25 2.5l.3.5.5.4h.1l.3.2 2.1.4 1.8-.4.5-.2.1-.2.7-.5z"/><path fill="#352f24" d="m31.8 10.5.3.5.3 1-.1.1q-.2.9-1.4 1.2l-1.1.1-1.7-.2q-1.6-.4-2.5-1.3-.7-.7-.7-1.5l.2-.4v-.2l.1 1.1q.1.6 1 1 1 .6 2.4.6l1.2-.2 1-.5q.9-.6 1-1.3m-1 22.7.3.6v.3l-.2.9-.7.9-.2.1-.7.5q-1.1.6-2.6.8l-3.1-.2-1.8-1.5v.1l.5.6.8.5.3.2h.2l-1.8-1.4-.1-.6q0-.6.4-1.1.2.6.9 1l.3.2q1.3.7 3.1.7l1.1-.1 1.1-.3 1-.4.1-.2 1-1zm2 13.1.7.8q.4.6.4 1.2l-.1.3q-.2 1.2-1.8 1.9h-.1l-1.5.4-2.4-.1q-2.4-.4-3.7-1.5-1.3-1-1.3-2l.1-.7.1-.4.2 1.7q.3.9 1.6 1.4l3.4.3 1.9-.4 1.3-.8q1.3-1 1.2-2zM25 2.4l1.1 1H26l-.1-.1-.6-.4zm-3.2 33.2v.1z"/><path fill="#a2a78c" d="m32.3 12.1-2.1 8.2-.4 1.4q-.2.7-1 1 2-4.8 2.1-9.4Q32 13 32.3 12m-1.8 9.1.3 11.9v.1l-.2.5-.9 1.1.2-2.3q.4-5-.1-10 .6-.5.6-1.3m3.4 27.4-1.8 12-.3 2.1q-.2 1-1.2 1.6 2-7.1 1.4-13.8 1.6-.7 1.9-2M32.6 62l1.7 12.8.5 3.9V80q-.3.8-1.3 1.7v-4l-.2-3.1q-.4-5.3-1.4-10.6.7-1 .6-2"/><path fill="#534a37" d="m30.2 20.3.3.7v.2q0 .8-.7 1.3l-.6.5-1.1.5-1.9.4q-2 0-3.2-.7-1.1-.6-1.2-1.4l-.1-.7q.1-.7.8-1.2l-.1.1q-.1.8.7 1.5.9.9 2.4 1.3l1 .2 1.8-.1.4-.1.2-.1q.7-.3.9-1zM32 60.7l.5 1v.3q.1 1-.6 2l-.9.8q-.6.5-1.5.9-1.1.5-2.6.8h-.1q-2.7.3-4.7-.5-1.7-.8-2-2l-.2-.8q0-1 .9-2v.3q0 1 1.3 2 1.3 1.1 3.6 1.5l1.4.1 2.6-.4.6-.2.1-.2q1-.6 1.3-1.5z"/><path fill="#544f3d" d="m31.1 34 1.7 12.3q0 1.2-1.2 2l-1.4.9-1.8.4-3.4-.4q-1.3-.5-1.6-1.3l-.2-1.6-1.4-10.6.5.6.8.5.3.2h.2l3.1.3q1.5-.2 2.6-.7l.7-.6.2-.1.8-.9zm-9-.1-.1-.2-.1-7v.3l-.1-5.2q.1.8 1.2 1.4 1.3.7 3.1.7h.1l1.9-.4 1.1-.5.6-.5q.5 5 .1 10l-.2 2.3-.1.2-1 .4-1.1.3-1 .1q-1.9 0-3.2-.7l-.3-.2q-.7-.4-.9-1m-4.4 67.8v.2z"/><path fill="#c26b16" d="m34.3 74.8 2.9 1.2 1.8 1q1.6 1.3 2.3 2.8-3.1-1.3-6 .2l-.5-1.3zm-18 3.7q.8-1.4 3.1-2.5l2.2-.9.3 3.4-.4.8zM35 76.8q.6-1 2.2-.8-1.6-.2-2.2.8M6.7 99l1.6-.3 2.9 3.9-.6.2-.5 1.5-.3-.2-.2-.2-.3-.3-.7-.6-.2-.2-1.8-2.2v-1.3zm7.2 1 1.2-1.4 2 1.1.6-.3v2.5q-.1 1.5-.7 2.2l-.4-.3h-.1l-.8-.5-1.1-.5q-.5-1.1-.7-2.5zm10.9 7.5q.3 1.1.2 2.5h-.7l-.7.2h-1.2q-.8 0-1.6-.5l-.1-.2-.2-.5-.9-2-.2-.2.7-.8.3.8z"/><path fill="#c2b178" d="m39 77 3.1 1.3q4 1.8 7.3 5.4h-2q-1.6 0-2.4 2h-.1q1.6 2 1.8 4-2.5.1-5.1 2.2.8-1.3.7-3.7 0-5-.8-7.8l-.2-.6q-.6-1.5-2.3-2.7m18.3 22.7.2 3q-.1 4.5-2.6 8.8l-1 1.5q-.4 1.6-2.4 2.2l-1 .9h-.1l-7 3.6q-1.7 1.9-4.1 2.5l-.4-.2-7 3.6q-1.4.8-3.2 1h-3.3l-1.5-1.5q-1.1-3.2-.4-5.9l.2-.7q.7-.5.9-1.7l.3 4.6 6.4.4 2.4-.5 5.8-2.2h-3.8q2.1-.8 3-2.1l.5.5q.3.6.3 1.6l.8-.4q8.4-3.7 12-7l1.5-1.6q-1.5.8-2.4-.4 2.6-1.1 3.1-3.6.5 1.9-.5 3.8 3-4 3.2-10.2zm-15.2 9q.1 1.2-.1 2.5v.2q-.2.7-1 1l-.2.2h-.3l-2 1-.7.4h-.2l3.5-3.6zm8.1 6.7 1.3-.2z"/><path fill="#e4ddb1" d="M49.4 83.7 52 87q.6.1 1.6 1.6l.4.7-3.4 1.9-.6 1-1.5-1.5q3.1-1.4 3.5-2.6V87v1q-.4 1.3-3.5 2.7l-.7.3.8-.3 1.4 1.4 1 2.5-1-2.5h.1l.9 2.5.3.8.3 1.8.3 1.8-.4.3-11.8 4.8v-.8l-.3-.6.3.6v.8l-5 2-5-.4-2.1-5.2-9.5-8-1-.1-1.3-.5-.4.2v.2l-4.9-.3-3.4 1.6-1.3-.5.7-2 1.3-1 1-.5H9l.3-.2.8-.7.3-.5 1.3-1.5 1.8-1.8-.2.6q0 2 3.9 3.2l7.6 2.5 2.4 1 .7-.4q1.3.3 2.4 1.3 2.8 1.4 5.6.5l3.4-.1.9-.3q1-.4 1.5-1.4 2.6-2 5-2.2-.1-2-1.7-4h.1q.8-2 2.4-2zm6.1 13.5-2.3-.1 2.5-2.4.5 1.3zm-11.4-4.4-3.2 1.8-.8-1.3.8 1.3zm-5.9 3q1.3-1.2 2.6-1.3-1.3.1-2.6 1.4m-16.5-1 1.4-1.1 4-1.7-4 1.7zm23.9 5.5-2.1 1.1zm1.1-.4-.4.1zm-12.6 4.3.5-.2zm2.1-.7 1-.4zM18.1 90.4 15.8 92zm-5.5-1-3.6.3z"/><path fill="#d0c18e" d="m54 89.3 1.4 3.7 1 1.1q1 1.8.8 5v.7Q57 106 54 110q1-2 .5-3.8-.5 2.5-3.1 3.6.9 1.2 2.4.4l-1.5 1.7q-3.6 3.2-12 6.9l-.8.4h-1.7l-1.3.5 1.3-.5h-2.1q2.1-.8 3-2.1l.5.5q.3.6.3 1.6l-5.8 2.3-2.5.4 1-.8 1.3-.3-1.2.3.8-4.2-.7-1h.6l.2-.1 2.8-1.4 1.5-.2.3-.1.7-.4 2-1h.3l.2-.2q.8-.3 1-1v-.2q.3-1.3.1-2.5l-.5-2.2-2.2 1 .4-.8-.1-2.6 11.8-4.9.4-.2-.3-1.7-.3-1.9-.3-.8-.9-2.5.5-1zM4.4 109.4l-1.2-3.9q-.5-2.4-.5-4.7l.2-2.2q-.5-1.8 1.2-4.2L5 93l1.5-1.7-.7 2 1.3.5 3.4-1.6 4.9.3v-.2l.4-.2 1.3.5 1 .1 9.5 8 2 5.3 5.1.3 5-2 .1 2.5-.4.9-1.3.6-2.1 1-1 .4 1-.4 2.1-1 1.3-.6 2.3-1 .4 2.2-1 1.7-3.6 3.7-1.5.2-2.8 1.4 1.2.7L39 115h-2.9l-2.9.8H33l-.6.2.6.9-.7 4.2-1 .8-6.4-.4-.3-4.6-.9-1.5-.5-.2v-.2q.8-.3.8-1.5l-.2-1.1-.6-1.1-.2-.4-.6-.7h1.2l.6-.2h.8q.1-1.4-.2-2.5L24 106l-1-1.1-2 .3-.1.1-.2-1-.5-1q-.6-1-1.6-1.5l-.9-.2v-2.9l-.9-1.1q-.4-.7-1.2-.6H14v3.3l-1.3-.3-.8.3-.6.5v.2l-.3-.5-.1-.2-.2-.1-1-1.4-.9-1q-1.6-.3-2 1.2v.3l-.1.3v1l1.8 2.3.2.1.7.6-.2.1-.2.2q-.4.5-.4 1.6v.5l.5 1.8-.8-.5zm51-16.3v.9q-1 1.3-3.1 2.5l-.7.8.7-.8q2.1-1.2 3.1-2.5zm.1 4.2.7-1.2-.5-1.3-2.5 2.4zm-41.1-1.5.1-2 .8-1.2-.8 1.2zm23.7 12.6-1.4 1.5 4.5-.8-.2-1.5zm5.4-2.5-1.9.9zm-7 4.9-.5-1.5zm-8.4 4.8 2.3.7 2-.2-2 .2zm26-12.8 2.6-2 .4-.9-.4.9zm-17.9 9q.2 1.3-.4 2.7.6-1.4.4-2.7m13.7-.7.4-1.5q.4-2-.1-3.7v-.1l2.6-2-2.5 2h-.1q.5 1.9 0 3.8zm-.6-4.4 1-.9zM21 96.6V96zm-16.1-2-.8-.3zm-.2 5.3q-1.1-.5-1.8-1.4.7.9 1.9 1.4"/><path fill="#a79a70" d="M57.2 99.1v.5l.1.2h-.1v-.2.2zm-31.8 27.7h2.2zm0 0h.1z"/><path fill="#ceb173" d="m50.5 116.2 4.1 2.2-3.5 1.8-3.5 1.8-4.1-2.2h-.1l7-3.6zm-11.2 6 3.8 2-1.7 1-5.3 2.7-4.2-2.2 7-3.7zm-.1 1.7 2.1 1.2zm8.8-5.7 3.1 1.9z"/><path fill="#917a48" d="m54.6 118.4 1.5 10.5-2.6 1.4-1.8 1-2.6 1.5-1.5-10.8 3.5-1.8zm-10.4 14.4.4 2-7 3.9-1.5-10.8 5.3-2.7.6 2.7-.6-2.7 1.7-1 .6 5.6zm6.2-5 1.3 3.5zm3.1 2.6-2.4-10.2z"/><path fill="#55452b" d="m49.1 132.8-1.9-1-3.5-2-.6-5.6-3.9-2q2.4-.5 4.2-2.4l4.2 2.2zm-11.5 5.9-6.1-3.3-3.4-1.8-.7-.3.7.3-.7-.3-20.8-11.1-3.8-2 .4-4 9.1 4.8q2.7 2.5 5.8 4 3.3 1.5 7.3 1.8h2.7l.5-.1q1.8-.2 3.3-1l4.2 2.2z"/><path fill="#062835" fill-opacity=".4" d="m47.2 131.8-3 1-.5-3zm-15.7 3.6-6.7 1.2-8.6 2.8q-11.6-3.5-14.9-8.2l6.6-5.2-1.3-3.8 20.8 11 .7.5v-.1z"/><path fill="#867d4f" d="m3.2 116.3-1.8-1-.6-.3q-.9-1-.7-2v-.3l.6-1.2 2.8 1.5 1.6.9 4.3 2.3.8.5 4 2.2h2.9l6.6-3.5.9 1.5q-.2 1.2-.9 1.7l-6.5 3.4q-1.2.3-2.6 0l-.6-.1-1.7-.9zm14.7-11.5.6.7 1 1.3.1.3.9 1.9.2.5.1.2.2.8.1 1.6v.4H21q-1.9-5-10.3-3.9z"/><path fill="#b3ab79" d="m.7 111.5.9-.7 2.8-1.5 3.8-2 .8.5 1.6.8h.1q8.5-1.1 10.3 4l.1-.1v.2l-.2 1.3 2.2 1.2h.1l.5.3-6.6 3.4h-2.9l-4-2.2-.8-.5-4.3-2.3-1.6-.9z"/><path fill="#aa6117" d="m13.5 85 .6-1.8q1-2.6 1.3-4.1l.3 1.4q0 1.2.8 2.3l.1.2 1.6 1.3.4.3.8.4q3.8 1.8 9 1.9h1.8v6.3q-1-1-2.4-1.3l-.7.3-2.4-.9-7.6-2.5q-3.9-1.1-3.9-3.2zm4 1.7.3-1.4.8-.7-.9.7zm3.4 18.7"/><path fill="#f39536" d="M15.4 79q.3-.4.8-.5l5.3.8-.2.8v.2q0 1.2 1.6 2-2.5-.2-4.6 2h-.1L16.6 83l-.1-.2q-.8-1.1-.8-2.3zm25.9.8.2.5h-.1l-.2.1q0 1.2-.8 2.3l-.1.1q-1 1.2-2.8 2.1l-1.5.6-.5-.4-1-.8-2-1.5.8-.3q1-.5 1.6-1.2.5-.6.5-1.3 2.8-1.5 5.9-.2M40 82.4l.4.5zm-4-.8-1.1-.1zM6.8 99q.4-1.5 2-1.2l.9 1 1 1.4.2.1v.2l.3.5.8 1.4.2.7-.1.1-.7.6-.2.3-.3.6-.6-.4.4-1.5.6-.2-2.9-3.9zm7.2-1.4V97h1.8q.7 0 1.1.7l.9 1.1v.6l-.6.3-2-1.1L14 100zm7 7.8 2-.4 1.1 1.1.8 1.4-4.4-.7-.3-.8.6-.5z"/><path fill="#938660" d="m21.6 75.1-.6-4v.5L20 64q.4 1.1 2.1 1.9 2 .8 4.6.5h.2q1.5-.3 2.6-.8.9-.4 1.5-1l.9-.7q1 5.3 1.4 10.6l.2 3.1v4l-.2.1-1.3.9-1.5.5-1.5.4h-.5q-2.4.2-4.1-.6H24l-.2-.2q-1.3-.7-1.6-1.7l-.4-2.6z"/><path fill="#635c47" d="m20.8 61.3 2.2-14q0 1 1.3 2 1.3 1.1 3.6 1.5h2.5l1.5-.3q.6 6.7-1.4 13.8l-.2.2-.6.2-2.6.4-1.4-.1q-2.2-.4-3.6-1.5-1.3-1-1.4-2zm10.1-48"/><path fill="#373228" d="m22.5 19.9 2.4-9.5q0 .8.8 1.5.9.8 2.4 1.3l1.7.2 1-.1h.1q-.1 4.6-2 9.4h-.2l-.4.2-1.7.1-1-.2q-1.6-.4-2.5-1.3-.8-.7-.7-1.5z"/><path fill="#948658" d="M33.5 81.7q1-.9 1.3-1.7v-1.3l.6 1.3v.1q0 .7-.5 1.3t-1.6 1.2l-.8.3q-1.7.7-4 .7h.5l1.5-.3 1.5-.6 1.3-.9zm-12-2.5.4-.7.4 2.6q.3 1 1.6 1.7l.3.2-.9-.4-.4-.2q-1.5-1-1.6-2.2v-.1z"/><path fill="#995715" d="M41.5 80.4q.8 2.8.8 7.8 0 2.4-.7 3.7-.6 1-1.5 1.4l-1 .3h-3.4v-5.3 5.4q-2.7.9-5.5-.5v-6.4q3-.2 5.4-1l.4-.2 1.5-.6q1.9-1 2.8-2.1l.1-.2q.8-1 .8-2.2l.2-.1m-.6 2.8-.4-.5zm-5 3-.2-.5zm5.7.7v5z"/><path fill="#e18528" d="m36 85.6-.4.2q-2.4.8-5.4 1h-.1l-1.7.1q-5.2 0-9-1.9l-.8-.4-.4-.3q2.2-2.2 4.7-2l.4.3.8.4h.2q1.8.8 4.2.6 2.3 0 4-.7l2 1.5 1 .8.1.5-.1-.5zm-6.1 0 .2 1.3z"/><path fill="#edeac7" d="m38.1 108.2 2.9-.8.3 1.5-4.5.8zm-4.9 7.6 2.9-.8H39l-4.6 1.5z"/><path fill="#c9cdab" d="m18.2 84.3.4.3z"/><path fill="#806335" d="M10.1 104.3h.2l.5.4-.2.6-.1 1.4v.4l.2 1.5h-.1l-1.6-.8-.4-1.8-.1-.5q0-1 .4-1.6l.2-.2.2-.1.3.3.2.2zm2-1.2-.2-.7-.8-1.4.2-.2.5-.5.8-.3 1.3.3q.2 1.4.7 2.5h-1.4zm10.3 7.2.4.6.4.4.4 1 .3 1.3q0 1-.7 1.5H23l-2.2-1.1.2-1.3v-.6l-.1-1.5-.2-.9q.8.5 1.6.5m-1.6-4.7h-.1l-.6.5-.7.8-1-1.3-.5-.7-.9-.7q.6-.7.7-2.2v-.2l1 .3q.9.4 1.5 1.4l.5 1z"/><path fill="#443e28" d="m10.8 104.7.3-.6.2-.2.7-.7.1-.1 1-.3h1.5l1 .5.9.5h.1l.4.3.9.8-7.2 3.7-.2-1.5v-.4l.1-1.4z"/><path fill="#cdc4a5" d="m23.3 115-.1.2h-.1z"/><path fill="#a68c53" d="m12.4 121 1.6.9.6.1q1.4.3 2.6 0l6.5-3.4-.2.7q-.7 2.8.4 6l1.5 1.4q-4-.2-7.2-1.7t-5.8-4m10.2 1.2 1.3 3z"/><path fill="none" stroke="#26231c" stroke-linecap="round" stroke-linejoin="round" stroke-width="__RESOLUTION__" d="M25 2.4v-.5h0q0-.7.9-1.2t2.3-.5h.7l1.3.2.3.2q.9.4 1 1.2V2l.3 8.5h0q-.1.8-1 1.3-.4.3-1 .4l-1.2.3q-1.5 0-2.5-.5-.8-.5-.9-1.1V9.7l-.1.3-.2.4-2.4 9.5q-.7.5-.8 1.2v.6m9.1 11.5.3.6v.3l1.7 12.2h0q0 1.2-1.2 2l-1.4.9-1.8.4-3.4-.4q-1.3-.5-1.6-1.3l-.2-1.6-.1.3-.1.6-2.2 14q-.9 1-.9 2l.2.9m3.1-17.8-1.4-10.6v-.1l-.1-.6h0q0-.6.4-1.1m3-24.1L25 2.3h0l1.1 1M22.5 20v.1q-.1.8.7 1.5.9.9 2.4 1.3l1 .2 1.8-.1.4-.1m-7.9 38.5v.2q0 1 1.3 2 1.3 1.1 3.6 1.5l1.4.1 2.6-.4.6-.2M23 36.8l-.8-.5-.5-.6v-.1l1.8 1.4" vector-effect="non-scaling-stroke"/><path fill="none" stroke="#544f3d" stroke-linecap="round" stroke-linejoin="round" stroke-width="__RESOLUTION__" d="m31.8 10.5.3.5m-6-7.5 2.2.4 1.8-.4.5-.2.1-.2.7-.5.1-.6m-.6 11.3Q32 13 32.3 12m-1.4 1.2-1.1.1-1.7-.2q-1.6-.4-2.5-1.3-.7-.7-.7-1.5m1.3-7H26l-.2-.1-.6-.4-.2-.5" vector-effect="non-scaling-stroke"/><path fill="none" stroke="#e3e3ca" stroke-linecap="round" stroke-linejoin="round" stroke-width="__RESOLUTION__" d="m32.2 11 .1 1v.1m1.2 35q.4.6.4 1.2l-.1.3" vector-effect="non-scaling-stroke"/><path fill="none" stroke="#726956" stroke-linecap="round" stroke-linejoin="round" stroke-width="__RESOLUTION__" d="m32.3 12.1-2.1 8.2-.4 1.4q-.2.7-1 1m1.6-1.5.4 11.9v.1l-.2.5-.9 1.1-.1.2-1 .4-1.1.3-1 .1q-1.9 0-3.2-.7h0l-.3-.2q-.7-.4-.9-1l-.1-.2-.1-7v.3l-.1-5.2q.1.8 1.2 1.4 1.3.7 3.1.7h.1l1.9-.4m5.7 25L32 60.8l-.3 2q-.2 1-1.2 1.6m2-2.3 1.8 12.8.5 3.9V80q-.3.8-1.3 1.7l-.2.1-1.3.9-1.5.5-1.5.4h-.5q-2.4.2-4.1-.6H24l-.2-.2q-1.3-.7-1.6-1.7l-.4-2.6-.3-3.4-.6-4v.5L20 64" vector-effect="non-scaling-stroke"/><path fill="none" stroke="#a2a78c" stroke-linecap="round" stroke-linejoin="round" stroke-width="__RESOLUTION__" d="m32.8 46.3.7.8m-3-25.9q0 .8-.7 1.3l-.6.5-1.1.5M31.9 64l-.9.8q-.6.5-1.5.9m3-3.7q.1 1-.6 2" vector-effect="non-scaling-stroke"/><path fill="none" stroke="#5b3d1e" stroke-linecap="round" stroke-linejoin="round" stroke-width="__RESOLUTION__" d="m34.3 74.8 2.9 1.2q-1.6-.2-2.2.8M13.5 85l.6-1.8q1-2.6 1.3-4.1.3-.5.8-.6 1-1.4 3.2-2.5l2.2-.9m19.9 5.3h-.1l-.2.1m-.8 2.3.4.4m-5.2 2.5.3.5m4.5-3.5-.4-.4M35.4 80q0 .7-.5 1.3l1 .1m-.5-1.5q2.8-1.5 5.9-.2m-12.8 3.8q2.3 0 4-.7l.8-.3q1-.5 1.6-1.2M30 86.8l-.2-1.2m.2 1.3v6.3m5.4-7.5-.1-.5m-1-.8-2-1.5m3.3 10.8v-5.4m5.8 3.6v-5m-18.7-4.6q-1.5-.8-1.6-2V80l.1-.8-5.1-.8m2 5.8q2.1-2.2 4.6-2l.4.3.8.4M18 84.2l.4.3zm.4.3-.9.7-.2 1.4" vector-effect="non-scaling-stroke"/><path fill="none" stroke="#7a6a47" stroke-linecap="round" stroke-linejoin="round" stroke-width="__RESOLUTION__" d="m37.2 76 1.8 1m13 10q.6.1 1.6 1.6l.4.7 1.4 3.7m1.8 6.1v.5l.1.2m0-.2-.1.2M34.8 78.7l.6 1.3m-14-.7.6-.8m1.1 36.7.1-.2m2.4 11.8" vector-effect="non-scaling-stroke"/><path fill="none" stroke="#624a2f" stroke-linecap="round" stroke-linejoin="round" stroke-width="__RESOLUTION__" d="m39 77 3.1 1.3q4 1.8 7.3 5.4L52 87m3.4 6 1 1.1q1 1.8.8 5v.7h.1l.2 3q-.1 4.5-2.6 8.8l-1 1.5q-.4 1.6-2.4 2.2l-1 .9m-46.1-6.9-1.2-3.9q-.5-2.4-.5-4.7l.2-2.2q-.5-1.8 1.2-4.2l.9-1.4 1.5-1.7 1.3-1 1-.5H9l.3-.2.8-.7.3-.5 1.3-1.5 1.8-1.8-.2.6q0 2 3.9 3.2l7.6 2.5 2.4 1 .7-.4q1.3.3 2.4 1.3 2.8 1.4 5.6.5l3.4-.1.9-.3q1-.4 1.5-1.4.8-1.3.7-3.7 0-5-.8-7.8l-.2-.6q-.6-1.5-2.3-2.7m12.5 38.2-1.3.2m-40-11.2.6.4.3-.6.2-.2.7-.7.1-.1-.2-.7-.8-1.4-.2-.5-.1-.2h0l-.2-.1-1-1.4m4.3-1.2v2.7l-1.3-.3m5.1-.6v-.6m5.9 11.4h-1.2l.6.7m.8 1.5.1 1.1q0 1.2-.6 1.5l-.1.2m-2.5-9.7-.6.5-.7.8m1.3-2.3-.5-1.1q-.6-1-1.6-1.5l-.9-.2h0v.2q-.1 1.5-.7 2.2l.9.8m2.9 4.8q.8.5 1.6.5m-11.1-9.4-.2.2m1 2.1 1-.3h1.5q-.5-1.1-.7-2.5m3.1 3.8-.4-.3h-.1l-.8-.5-1.1-.5m-6 3.2.4 1.8m1.7.8-.2-1.5v-.4l.1-1.4.2-.6m14.6 22h2.7M17.7 99.5v2.3" vector-effect="non-scaling-stroke"/><path fill="none" stroke="#3d2918" stroke-linecap="round" stroke-linejoin="round" stroke-width="__RESOLUTION__" d="m50.5 116.2 4.1 2.2 1.5 10.5m-7 3.9-1.9-1-3.5-2 .5 3 .4 2m-1.5-10.6-3.9-2-.3-.2h0l-7 3.7m7.4-3.4q2.4-.6 4.1-2.5l7-3.6h.1M12.4 121q2.6 2.5 5.7 4 3.3 1.5 7.3 1.8m0-.1-1.5-1.5m3.6 1.5h-2m18.2 3.1-.6-5.6" vector-effect="non-scaling-stroke"/><path fill="none" stroke="#34281b" stroke-linecap="round" stroke-linejoin="round" stroke-width="__RESOLUTION__" d="m37.6 138.7-6.1-3.3-3.4-1.8-.7-.3.7.3M6.6 122.3l-3.8-2m24.6 13-20.8-11" vector-effect="non-scaling-stroke"/><path fill="none" stroke="#211c14" stroke-linecap="round" stroke-linejoin="round" stroke-width="__RESOLUTION__" d="m2.8 120.2.4-4m24.9 17.5" vector-effect="non-scaling-stroke"/><path fill="none" stroke="#5a5236" stroke-linecap="round" stroke-linejoin="round" stroke-width="__RESOLUTION__" d="m3.2 116.3-1.8-1-.6-.3q-.9-1-.7-2v-.3l.6-1.2.9-.7 2.8-1.5 3.8-2 .8.5 1.6.8h.1m12.5 6.6.5.3.9 1.4q-.2 1.2-.9 1.7l-6.5 3.4q-1.2.3-2.6 0l-.6-.1-1.7-.9-9.1-4.7m14.7-11.5.6.7 1 1.3h0l.1.3.9 1.9.2.5.1.2.2.8.1 1.6v.6l-.2 1.3 2.2 1.2h.1" vector-effect="non-scaling-stroke"/><path fill="none" stroke="#7d8165" stroke-linecap="round" stroke-linejoin="round" stroke-width="__RESOLUTION__" d="m23.6 37 3.1.3q1.5-.2 2.6-.7l.7-.6.2-.1.8-.9.1-1m.8 16.5q1.6-.7 1.9-2M23 47.3q0 1 1.3 2 1.3 1.1 3.6 1.5h2.5l1.5-.3h0M23.7 37h-.2l-.3-.2" vector-effect="non-scaling-stroke"/><path fill="none" stroke="#d8cfa7" stroke-linecap="round" stroke-linejoin="round" stroke-width="__RESOLUTION__" d="M29.5 65.7q-1.1.5-2.6.8h-.1q-2.7.3-4.7-.5-1.7-.8-2-2" vector-effect="non-scaling-stroke"/><path fill="none" stroke="#8d7347" stroke-linecap="round" stroke-linejoin="round" stroke-width="__RESOLUTION__" d="m47.8 91 .8-.2q3-1.5 3.4-2.7V87m-1 7.7-1-2.5-1.5-1.5m3.4 8.4-.3-1.7-.3-1.9-.3-.8m.6 2.6.7-.7q2.1-1.2 3.1-2.5V93m-15.3.3.8 1.3 3.2-1.7m-3.2 1.7q-1.4.1-2.7 1.4M27 92.3l-4 1.6-1.2 1.1m21.7 6.6 2.1-1.1m.8-.3.3-.1m-7 4v-.7l-.3-.6m-4.4 6.8 1-.4 2.1-1 1.3-.6.4-.8-.1-2.6M17.1 92.5l-1.3-.5-.4.2v.2l-.9 1.2-.1 2m27.7 13.2-.5-2.2-2.2 1m2.7 1.2q.1 1.2-.1 2.5v.2q-.2.7-1 1m-3.5 1.7-1.5.2-2.8 1.4H33l-.6.2.6.9-.7 4.2 1.2-.3m8.1-14.2 1.9-.8m-8.9-1.5-.5.1m3.1-1.1-1 .4m-.2 5.5.5 1.5m-4.1 5.3-2 .2-2.2-.7m4 5.6-1 .8m6.6-2.7-1.3.5m20.7-19.9-.4.9-2.5 2M36 114.4q.6-1.4.4-2.7m16.7-8-2.6 2h-.1q.5 1.9 0 3.8L50 111m.5-5.3-1.1.9M15.8 92l2.3-1.6m-9.2-.7 3.8-.2M21 96v.7M4 94.2l.8.4m-2 3.9q.7.9 1.9 1.4m19 25.3-1.2-3" vector-effect="non-scaling-stroke"/><path fill="none" stroke="#483d2b" stroke-linecap="round" stroke-linejoin="round" stroke-width="__RESOLUTION__" d="m6.7 99.2-.1.4v1l1.8 2.3.2.1.7.6.3.3m.2.2.3.2m13.9 1.8.8 1.4q.3 1.1.2 2.5h-.7m-15-6.4-.2.1-.2.2" vector-effect="non-scaling-stroke"/><path fill="none" stroke="#211c14" stroke-linecap="round" stroke-linejoin="round" stroke-width="__RESOLUTION__" d="M28.1 126.7h.5q1.8-.2 3.3-1" vector-effect="non-scaling-stroke"/><path fill="none" stroke="#917a48" stroke-linecap="round" stroke-linejoin="round" stroke-width="__RESOLUTION__" d="m41.4 125.2-2.2-1.2m11.9-3.8-3-1.9" vector-effect="non-scaling-stroke"/><path fill="none" stroke="#695534" stroke-linecap="round" stroke-linejoin="round" stroke-width="__RESOLUTION__" d="m51.7 131.4-1.3-3.7m-9-2.5.6 2.7m9.1-7.7 2.4 10.1" vector-effect="non-scaling-stroke"/></g></defs><g clip-path="url(#a)"><use xlink:href="#b" width="57.5" height="139.3" transform="translate(1 1)"/></g></svg>