<svg xmlns="http://www.w3.org/2000/svg" xmlns:xlink="http://www.w3.org/1999/xlink" width="141" height="197" viewBox="0 0 141 197"><defs><g id="i"><path fill="#ceb173" d="m4.5 2.1-.1-.5h-.2v.6l-.2.1-1.3-.9.4 1.1H1.6l-.8-.3-.8-.8v-.3L.8.4l.8-.3h.3l.6-.1 1.8.4q.7.4.7.9v.1z"/><path fill="#42341e" d="M4.2 2.3v-.7h.2l.1.5zM0 1.3v.2zm0 .3.8.8.8.3h1.5l-.4-1.1 1.3.9h.1q-.6.5-2.2 6v18.1h-.3L.8 26l-.7-.7H0Q2 12.6 0 1.4"/><path fill="#796437" d="m4.5 2.1.5-.7q.4 5.4-.6 8.2t-1 6 .7 6.7q.9 3.4.2 3.7l-1.8.4h-.6V8.3q1.6-5.5 2.2-6h.1zm-2.6.4h.3z"/><path fill="none" stroke="#3d301d" stroke-linecap="round" stroke-linejoin="round" stroke-width="__RESOLUTION__" d="M5 1.4v-.1h0q0-.5-.7-.9L2.5 0h-.6l-.3.1-.8.3-.8.7v.3h0q2 11.2 0 23.9h0l.8.7.8.3.3.1h.6l1.8-.4q.7-.3-.2-3.7t-.7-6.7q0-3.2 1-6T5 1.5" vector-effect="non-scaling-stroke"/></g><g id="h"><path fill="#55401e" d="M0 6.4v-5l26.2 13v5.1l-7.6-3.9-1.4-1.7-.7.7z"/><path fill="#ceb173" d="M0 1.5 3 0l8.5 4.4V5l2.5.6 8.6 4.4-.3.6 1.6.2v-.1l4.5 2.4-2 1.5-.2-.1z"/><path fill="#664e31" d="m28.4 13 .5.3V18l-2.7 1.5v-4.9l.2-.1z"/><path fill="none" stroke="#58412c" stroke-linecap="round" stroke-linejoin="round" stroke-width="__RESOLUTION__" d="m3 0 8.5 4.4V5l2.5.6 8.6 4.4-.3.6 1.6.2v-.1l4.5 2.4.5.2V18l-2.7 1.5-7.6-3.9-1.4-1.7h0l-.7.7L.1 6.4" vector-effect="non-scaling-stroke"/></g><g id="g"><path fill="#8b733f" d="m49.3 2 1.1.5L52.7 5 31.4 16l8.3-10q2.1-3.4-1-4.9L41 0h3.6l3.7 1.5L42 6.1zM.6 21.5l.5-1L12 14.9q2.5 2.2.1 3.9l-8 3.9zm20.8-10.6 13.7-7.8q2 .9-.4 4.4l-8.1 11-1.3.8q.2-2.7 0-3.2-.5-2-3.9-5.2"/><path fill="#35281a" d="M52.7 5 54 6.5v2.8l-1.2 2.3-40.1 20.7h-1.4v-4.5l.1.2q1.8-1.7 9.8-6.1l4.1-2.3v-.3l1.3-.8 4.8-2.5z"/><path fill="#463820" d="m11.3 32.3-1.6-.1-8.7-4-1-1.4v-4.2l.6-1.2L4 22.8h.1l1.3.9 2.1.9 2 1 1.8 2.3z"/><path fill="#9f804f" d="m12 14.9 9.4-4q3.4 3.2 4 5.2.1.5 0 3.2l-.1.3-4.1 2.3-11.6 3.6-2-1L18.7 19 5.4 23.6l-1.3-.9 8-3.9q2.4-1.7 0-3.9"/><path fill="#9c7c48" d="m35 3 3.8-1.9q3 1.5.9 4.9l-8.3 10-4.8 2.5 8.1-11q2.4-3.5.3-4.4"/><path fill="#58422a" d="m48.2 1.5 1 .5L42 6.1zm-40.7 23-2-.9L18.7 19z"/><path fill="#b9a687" d="m11.3 27.8-1.8-2.3h.1l11.6-3.6q-8 4.4-9.8 6.1z"/><path fill="none" stroke="#342718" stroke-linecap="round" stroke-linejoin="round" stroke-width="__RESOLUTION__" d="m49.3 2 1.1.5L52.7 5 54 6.5v2.8l-1.2 2.3-40.1 20.7h-1.4l-1.6-.1-8.7-4m-1-1.4v-4.2l.6-1.2.6-.9L12 14.9l9.4-4 13.7-7.8 3.6-2L41 0h3.6l3.7 1.5 1 .5" vector-effect="non-scaling-stroke"/></g><g id="f"><path fill="#7f693a" d="m49.3 2 1.1.5L52.7 5 31.4 16l8.3-10q2.1-3.4-1-4.9L41 0h3.6l3.7 1.5L42 6.1zM.6 21.5l.5-1L12 14.9q2.5 2.2.1 3.9l-8 3.9zm20.8-10.6 13.7-7.8q2 .9-.4 4.4l-8.1 11-1.3.8q.2-2.7 0-3.2-.5-2-3.9-5.2"/><path fill="#312418" d="M52.7 5 54 6.5v2.8l-1.2 2.3-40.1 20.7h-1.4v-4.5l.1.2q1.8-1.7 9.8-6.1l4.1-2.3v-.3l1.3-.8 4.8-2.5z"/><path fill="#40331d" d="m11.3 32.3-1.6-.1-8.7-4-1-1.4v-4.2l.6-1.2L4 22.8h.1l1.3.9 2.1.9 2 1 1.8 2.3z"/><path fill="#917548" d="m12 14.9 9.4-4q3.4 3.2 4 5.2.1.5 0 3.2l-.1.3-4.1 2.3-11.6 3.6-2-1L18.7 19 5.4 23.6l-1.3-.9 8-3.9q2.4-1.7 0-3.9"/><path fill="#8e7242" d="m35 3 3.8-1.9q3 1.5.9 4.9l-8.3 10-4.8 2.5 8.1-11q2.4-3.5.3-4.4"/><path fill="#503c26" d="m48.2 1.5 1 .5L42 6.1zm-40.7 23-2-.9L18.7 19z"/><path fill="#a8977b" d="m11.3 27.8-1.8-2.3h.1l11.6-3.6q-8 4.4-9.8 6.1z"/><path fill="none" stroke="#2f2416" stroke-linecap="round" stroke-linejoin="round" stroke-width="__RESOLUTION__" d="m49.3 2 1.1.5L52.7 5 54 6.5v2.8l-1.2 2.3-40.1 20.7h-1.4l-1.6-.1-8.7-4m-1-1.4v-4.2l.6-1.2.6-.9L12 14.9l9.4-4 13.7-7.8 3.6-2L41 0h3.6l3.7 1.5 1 .5" vector-effect="non-scaling-stroke"/></g><g id="e"><path fill="#9b8147" d="m49.3 2 1.1.5L52.7 5 31.4 16l8.3-10q2.1-3.4-1-4.9L41 0h3.6l3.7 1.5L42 6.1zM.6 21.5l.5-1L12 14.9q2.5 2.2.1 3.9l-8 3.9zm20.8-10.6 13.7-7.8q2 .9-.4 4.4l-8.1 11-1.3.8q.2-2.7 0-3.2-.5-2-3.9-5.2"/><path fill="#3c2d1e" d="M52.7 5 54 6.5v2.8l-1.2 2.3-40.1 20.7h-1.4v-4.5l.1.2q1.8-1.7 9.8-6.1l4.1-2.3v-.3l1.3-.8 4.8-2.5z"/><path fill="#4f3f24" d="m11.3 32.3-1.6-.1-8.7-4-1-1.4v-4.2l.6-1.2L4 22.8h.1l1.3.9 2.1.9 2 1 1.8 2.3z"/><path fill="#b18f58" d="m12 14.9 9.4-4q3.4 3.2 4 5.2.1.5 0 3.2l-.1.3-4.1 2.3-11.6 3.6-2-1L18.7 19 5.4 23.6l-1.3-.9 8-3.9q2.4-1.7 0-3.9"/><path fill="#ae8b51" d="m35 3 3.8-1.9q3 1.5.9 4.9l-8.3 10-4.8 2.5 8.1-11q2.4-3.5.3-4.4"/><path fill="#624a2f" d="m48.2 1.5 1 .5L42 6.1zm-40.7 23-2-.9L18.7 19z"/><path fill="#ceb997" d="m11.3 27.8-1.8-2.3h.1l11.6-3.6q-8 4.4-9.8 6.1z"/><path fill="none" stroke="#3a2c1b" stroke-linecap="round" stroke-linejoin="round" stroke-width="__RESOLUTION__" d="m49.3 2 1.1.5L52.7 5 54 6.5v2.8l-1.2 2.3-40.1 20.7h-1.4l-1.6-.1-8.7-4m-1-1.4v-4.2l.6-1.2.6-.9L12 14.9l9.4-4 13.7-7.8 3.6-2L41 0h3.6l3.7 1.5 1 .5" vector-effect="non-scaling-stroke"/></g><g id="d"><path fill="#796437" d="m49.3 2 1.1.5L52.7 5 31.4 16l8.3-10q2.1-3.4-1-4.9L41 0h3.6l3.7 1.5L42 6.1zM.6 21.5l.5-1L12 14.9q2.5 2.2.1 3.9l-8 3.9zm20.8-10.6 13.7-7.8q2 .9-.4 4.4l-8.1 11-1.3.8q.2-2.7 0-3.2-.5-2-3.9-5.2"/><path fill="#2e2317" d="M52.7 5 54 6.5v2.8l-1.2 2.3-40.1 20.7h-1.4v-4.5l.1.2q1.8-1.7 9.8-6.1l4.1-2.3v-.3l1.3-.8 4.8-2.5z"/><path fill="#3d311c" d="m11.3 32.3-1.6-.1-8.7-4-1-1.4v-4.2l.6-1.2L4 22.8h.1l1.3.9 2.1.9 2 1 1.8 2.3z"/><path fill="#8a6f44" d="m12 14.9 9.4-4q3.4 3.2 4 5.2.1.5 0 3.2l-.1.3-4.1 2.3-11.6 3.6-2-1L18.7 19 5.4 23.6l-1.3-.9 8-3.9q2.4-1.7 0-3.9"/><path fill="#876c3f" d="m35 3 3.8-1.9q3 1.5.9 4.9l-8.3 10-4.8 2.5 8.1-11q2.4-3.5.3-4.4"/><path fill="#4c3924" d="m48.2 1.5 1 .5L42 6.1zm-40.7 23-2-.9L18.7 19z"/><path fill="#a09075" d="m11.3 27.8-1.8-2.3h.1l11.6-3.6q-8 4.4-9.8 6.1z"/><path fill="none" stroke="#2d2215" stroke-linecap="round" stroke-linejoin="round" stroke-width="__RESOLUTION__" d="m49.3 2 1.1.5L52.7 5 54 6.5v2.8l-1.2 2.3-40.1 20.7h-1.4l-1.6-.1-8.7-4m-1-1.4v-4.2l.6-1.2.6-.9L12 14.9l9.4-4 13.7-7.8 3.6-2L41 0h3.6l3.7 1.5 1 .5" vector-effect="non-scaling-stroke"/></g><g id="c"><path fill="url(#a)" d="M-.5 34.1q20.7.9 42.4 1l6.1.1-26.2-2.9h-4.6l-15.6-.1H-.6v-2.4l22.4 2.5h25.1-1.1l6.3.7-.2 2.2H48l3.9.4v.8l-17.3.8-1.4.3 1.7.3 2.3.1h2.4l-2.1.4-.7.1H11.2l-11.7-.1zm-.2 12.4v-2.9h11.9l39.5.1h1v2.2h-4.2q-24.1.1-48 .7zm0-3.3.1-3.8h2.2l18.5.1 8 .1-2.5.6 1.3.5 24.8.8V43l-2.4.1-30.6.1zM52.1 28v2.3L37.4 30l-27.1-.8-11-.4v-48.7h53.9L52 26.8l-22-.3q1.2 1.4 8.4 1.4zM6.8 55.2v-.1q21.5-.6 43.1-.2h1.6v.9h-4.7l-27.6-.2zm1.9-2.7H4.5l-1.7-2 18.1.4 30.7.6q-.2.1 0 .4H49zm6.6 12.6h1.4l24.4-.4 10.2-.2-.4 13.8L27 79zm-.8-1-4.2-4.8 41.2.2-.2 4.9h-6.6l-22.8-.1zM31.2 80l19.8.5-.2 3.9-10.2.3-8.4.3-4.3-5.1zm9.2 14.6-5.2-6 15.4.3-.2 5.2zm10 4.7-.1 6.9L44 99z" transform="translate(1.25 54.15)"/><path fill="#ceb173" d="M1.3 13.7v-.4Q1.4 7.9 9 3.9 16.8 0 27.8 0t18.7 4q7.4 3.7 7.8 9l-.1 1.4-.1.6-.6 1.7q-1.6 3.6-7 6.3-7.8 4-18.7 4-11 0-18.8-4-5.4-2.7-7-6.3l-.4-1z"/><path fill="#272518" d="M54.1 15q-1 7-.7 16.5-.6 1.3-.4 3.1-12.2 29-41.2 34L9 67.4Q1.5 63.5 1.3 58q-2.7-19.6.3-42.3l.3.9Q3.7 20.3 9 23q7.8 4 18.8 4t18.7-4q5.4-2.7 7-6.3z"/><path fill="#3a3525" d="M53 34.7q0 1.4 1.2 3.3-4.5 21.9-21.8 33.2l-4.6.1q-9.2 0-16-2.7 29-5 41.2-34"/><path fill="#927443" d="M54.2 38v20.7q-.6 5-7.7 8.6-6 3.2-14.1 3.9Q49.8 59.8 54.2 38"/><path fill="none" stroke="#000" stroke-linecap="round" stroke-linejoin="round" stroke-opacity=".3" stroke-width="__RESOLUTION__" d="m54.2 14.4-.1.6-.6 1.7q-1.6 3.6-7 6.3-7.8 4-18.7 4-11 0-18.8-4-5.4-2.7-7-6.3l-.4-1q-3 22.8-.4 42.4m.4-42.3-.4-2.1" vector-effect="non-scaling-stroke"/><path fill="#55401e" fill-opacity=".4" d="M1.3 79.9V57.4q0 1.6.7 3 1.6 3.6 7 6.4 7.8 4 18.8 4t18.7-4q5.5-2.8 7.1-6.4l.6-2.2v21.6Q31 93 1.4 79.9"/><path fill="#55401e" fill-opacity=".3" d="M1.3 79.9q29.7 13.1 53 0v8.5q-27.1 19-53 0z"/><path fill="#55401e" fill-opacity=".1" d="M54.3 88.4v12.3q-27.1 21.5-53 0V88.4q25.9 19 53 0"/><path fill="#55401e" fill-opacity=".1" d="M54.3 100.7v1.7q-.6 5-7.7 8.7-6.1 3.1-14.2 3.8l-4.6.1q-11 0-18.7-3.9-7.5-3.8-7.8-9.2v-1.2q25.9 21.5 53 0"/><path fill="#55401e" fill-opacity=".4" d="M1.1 76.3V53.9q0 1.5.7 3 1.6 3.5 7 6.3 7.8 4 18.8 4t18.8-4q5.4-2.8 7-6.4l.6-2.2v21.7q-23.2 13.1-52.9 0"/><path fill="#55401e" fill-opacity=".3" d="M1.1 76.3q29.7 13.1 53 0v8.5q-27.1 19-53 0z"/><path fill="#55401e" fill-opacity=".1" d="M54 84.8v12.3q-27 21.5-52.9 0V84.8q25.9 19 53 0"/><path fill="#55401e" fill-opacity=".1" d="M54 97v1.8q-.5 5-7.6 8.7-6.1 3.1-14.2 3.8l-4.6.1q-11 0-18.7-3.9-7.5-3.8-7.8-9.2V97q25.9 21.5 53 0"/><path fill="#55401e" fill-opacity=".4" d="M1 73.6V51.2q.1 1.5.8 3 1.6 3.5 7 6.3 7.8 4 18.8 4t18.7-4q5.4-2.7 7-6.3.6-1.1.7-2.3v21.7q-23.2 13.2-53 0"/><path fill="#55401e" fill-opacity=".3" d="M1 73.6q29.8 13.2 53 0v8.6q-27 18.9-53 0z"/><path fill="#55401e" fill-opacity=".1" d="M54 82.2v12.2q-27 21.5-53 0V82.2q26 18.9 53 0"/><path fill="#55401e" fill-opacity=".1" d="M54 94.4v1.8q-.6 5-7.7 8.6-6 3.1-14.1 3.9l-4.7.1q-11 0-18.7-4-7.5-3.7-7.8-9.2v-1.2q26 21.5 53 0"/><path fill="#353c24" d="m24.6 51 .3 1.1-.3 1.1q-.4.5-.9.5t-.8-.5-.4-1 .4-1.2.8-.4.9.4M40 45.8q-.5.8-1.3.8-.7 0-1.3-.8-.5-.6-.5-1.6t.5-1.7q.6-.7 1.3-.7t1.3.7q.5.6.5 1.6t-.5 1.7m-3.7 2.9q.5 0 .9.5.3.5.3 1.2 0 .8-.4 1.3-.3.5-.8.5t-.8-.6q-.4-.5-.4-1.2t.4-1.2zm-3.7 3.6q-.3-.2-.3-.5 0-.4.3-.6l.8-.3.8.3.3.5-.4.6q-.2.3-.7.3zM44 39q-.4 0-.7-.4-.3-.3-.3-.8t.3-.7.8-.4q.4 0 .7.3l.4.8q0 .5-.4.8-.3.4-.7.4m6.6-1-.2.3-.5.2-.5-.2-.2-.2.2-.4.5-.1.5.1zm-2.4 4.8q.5.5.5 1.1t-.5 1.1-1.2.5T46 45t-.5-1.1q0-.6.5-1.1t1.2-.5 1.1.5m-4.6 3.9q.3.3.3.9 0 .5-.3 1-.4.3-.9.3t-.8-.4q-.4-.4-.4-.9t.4-1 .9-.4.8.4m2.4 3.1q.5-.6 1.1-.6t1 .6l.4 1.5q0 .8-.4 1.4t-1 .6-1-.6-.5-1.4q0-.9.4-1.5m1.4.5-.2.4.2.5q.1.2.4.2l.5-.2.1-.5-.1-.4-.5-.2zm-4 9.7q-.7.5-1.7.5-1.1 0-1.8-.5t-.7-1.3.7-1.3 1.8-.5 1.7.5q.8.6.8 1.3t-.8 1.3m-7-3.7q1.2 1 1.2 2.4 0 1.5-1.2 2.5t-2.7 1-2.7-1-1.2-2.5q0-1.4 1.2-2.5 1.1-1 2.7-1t2.8 1m-4.2 9.7-.8-.2q-.4-.2-.4-.5t.4-.5l.8-.2.9.1.3.6-.4.5zm-3.1-6.5q.4.6.4 1.4t-.4 1.3-.9.5-1-.6q-.3-.5-.3-1.2 0-.8.3-1.4.5-.5 1-.5t.9.5m-4.8 4q-.6.5-1.4.5t-1.4-.6q-.5-.5-.5-1.1 0-.8.6-1.3t1.3-.5 1.4.5.6 1.3q0 .6-.6 1.1"/><path fill="#707948" d="M53.5 41.3q0 .5-.5 1t-.9.4-1-.5-.4-.9q0-.5.4-1 .4-.3 1-.3t1 .3.4 1m-2.1 2.4q.4-.4 1-.4t1 .4.4 1-.4 1-1 .4-1-.4-.4-1 .4-1m-.7 7.1q.6 0 1.1.7t.5 1.6-.5 1.6q-.4.7-1.1.7t-1.2-.6-.5-1.6.5-1.7q.5-.6 1.1-.6m2 .5q.5-.5 1.1-.5t1 .5l.4 1q0 .6-.4 1t-1 .5-1-.5-.5-1q0-.6.4-1m-5 8.1-.4.6-.4.3.3.3q.6.7.6 1.8 0 1-.6 1.8-.6.7-1.6.7l-.9-.2q-.4.4-.8.4t-.8-.4q-.3-.2-.3-.7t.3-.8l.4-.2v-.6q0-1 .6-1.8.6-.7 1.5-.7h.4l-.1-.5.2-.6.6-.2q.4 0 .6.2zM38 69.4l-1-.4q-.4-.3-.4-.8t.4-.9.9-.3.8.3.3.9-.3.8-.9.3"/><path fill="#88985a" d="m44.8 53.6.3-.1.3.1.1.3-.1.4-.3.1-.4-.1v-.7m2.8-3.4q.1-.2.4-.2l.5.2.1.4-.1.5-.5.2-.4-.2-.2-.5zm7.3-3q.3.4.3 1t-.4 1.1q-.3.5-.8.5t-.9-.4q-.3-.5-.3-1.1t.3-1.1.9-.5.9.4m-1.2 11.7q-.4.4-.7.4-.4 0-.7-.4-.4-.3-.4-.7 0-.5.4-.9.3-.3.6-.3.5 0 .8.4l.3.8zm-6-2q0 .8-.4 1.2-.4.5-.9.5t-1-.5q-.3-.5-.3-1.1t.4-1.2.9-.5q.5 0 .9.4t.4 1.3m-5.4 8.9-.1.4-.5.1-.4-.1-.1-.5.1-.4.4-.1.5.1zm8.1-4.1q.4 0 .8.3l.3.7-.3.7-.7.3q-.4 0-.7-.3-.4-.3-.4-.7t.3-.7q.4-.3.8-.3M41 63.2l-.5-.2-.2-.4.2-.5.5-.2.4.3.2.4-.2.4zm.4 4.4-.2.5-.6.3-.5-.3-.2-.5.2-.5.5-.2.5.2z"/></g><linearGradient id="a" x1="-819.2" x2="819.2" gradientTransform="matrix(0 .08 -.03 -.01 19.5 -2.35)" gradientUnits="userSpaceOnUse" spreadMethod="pad"><stop offset=".7" stop-color="#2f2f25" stop-opacity=".4"/><stop offset="1" stop-color="#5f5338" stop-opacity="0"/></linearGradient><clipPath id="b"><path d="M1 1h139v195H1z"/></clipPath></defs><g clip-path="url(#b)"><g transform="translate(30.15 37.7)"><use xlink:href="#c" width="55.1" height="160.3" transform="translate(-6.85 -2.15)"/><use xlink:href="#d" width="54" height="32.3" transform="translate(-29.15 -15.05)scale(.7946)"/><use xlink:href="#e" width="54" height="32.3" transform="translate(-19.85 -10)scale(.7946)"/><use xlink:href="#f" width="54" height="32.3" transform="translate(-10.55 -5.75)scale(.7946)"/><use xlink:href="#e" width="54" height="32.3" transform="translate(-.9 -.55)scale(.7946)"/><use xlink:href="#g" width="54" height="32.3" transform="translate(7.7 5.2)scale(.7946)"/><use xlink:href="#d" width="54" height="32.3" transform="translate(16.65 9.2)scale(.7946)"/><use xlink:href="#e" width="54" height="32.3" transform="translate(25.95 14.25)scale(.7946)"/><use xlink:href="#f" width="54" height="32.3" transform="translate(35.25 18.5)scale(.7946)"/><use xlink:href="#e" width="54" height="32.3" transform="translate(44.9 23.7)scale(.7946)"/><use xlink:href="#g" width="54" height="32.3" transform="translate(53.5 29.45)scale(.7946)"/><use xlink:href="#d" width="54" height="32.3" transform="translate(62.85 33.85)scale(.7946)"/><use xlink:href="#h" width="28.9" height="19.6" transform="translate(1.85 -34.1)"/><use xlink:href="#h" width="28.9" height="19.6" transform="translate(28.15 -20.6)"/><use xlink:href="#h" width="28.9" height="19.6" transform="translate(54.45 -7.15)"/><use xlink:href="#h" width="28.9" height="19.6" transform="translate(80.5 6)"/><use xlink:href="#i" width="5.1" height="26.4" transform="matrix(-1 0 0 1 31.4 -26.95)"/><use xlink:href="#i" width="5.1" height="26.4" transform="matrix(-1 0 0 1 56 -14.25)"/><use xlink:href="#i" width="5.1" height="26.4" transform="matrix(-1 0 0 1 80.6 -1.55)"/><use xlink:href="#i" width="5.1" height="26.4" transform="matrix(-1 0 0 1 105.2 11.15)"/><use xlink:href="#i" width="5.1" height="26.4" transform="matrix(-1 0 0 1 3.65 -36.7)"/></g></g></svg>