<svg xmlns="http://www.w3.org/2000/svg" xmlns:xlink="http://www.w3.org/1999/xlink" width="69" height="37" viewBox="0 0 69 37"><defs><clipPath id="a"><path d="M1 1h67v35H1z"/></clipPath><g id="b"><path fill="#aa9b7d" d="m21 5.4 4.4-2.2 27.1 14-25 13L23 28l20.8-10.8zm-15 14 4.4-2.3L4.3 14l4.4-2.3 10.4 5.4-8.6 4.5z"/><path fill="#5f5e42" d="m21 5.4 22.8 11.8L23 28l-12.4-6.3 8.6-4.4-10.4-5.5zm6.5 24.9 25-13.2-27-14 6-3.1 34.8 17.7L35 34zM6.1 19.4l-6.2-3L4.4 14l6.1 3.1z"/><path fill="none" stroke="#91825f" stroke-linecap="round" stroke-linejoin="round" stroke-width="__RESOLUTION__" d="m21 5.4 22.8 11.8m-33.3 0-6.1-3.1m14.8 3.2-8.6 4.4" vector-effect="non-scaling-stroke"/><path fill="none" stroke="#998864" stroke-linecap="round" stroke-linejoin="round" stroke-width="__RESOLUTION__" d="m27.5 30.3 25-13.2" vector-effect="non-scaling-stroke"/><path fill="none" stroke="#000" stroke-linecap="round" stroke-linejoin="round" stroke-opacity=".3" stroke-width="__RESOLUTION__" d="M66.4 17.7 35 34" vector-effect="non-scaling-stroke"/></g></defs><g clip-path="url(#a)"><use xlink:href="#b" width="66.8" height="34.5" transform="translate(1 1)"/></g></svg>