<svg xmlns="http://www.w3.org/2000/svg" xmlns:xlink="http://www.w3.org/1999/xlink" width="26" height="14" viewBox="0 0 26 14"><defs><clipPath id="b"><path d="M1 1h24v12H1z"/></clipPath><use xlink:href="#a" id="c" width="23.3" height="11.8"/><g id="a"><path fill="#f4c833" d="M18.5 4.4q.8.8.8 2t-.9 1.8q-.7.9-1.8.9t-2-.8-.8-2 .8-2q.8-.7 2-.7t1.8.8m-10.1-2q1.6 0 2.7 1.2t1.2 2.7T11 8.9q-1.1 1.2-2.7 1.2T5.6 8.9Q4.5 8 4.5 6.2q0-1.5 1-2.6 1.3-1.1 2.8-1.1"/><path fill="none" stroke="#fcd85e" stroke-linecap="round" stroke-linejoin="round" stroke-width="__RESOLUTION__" d="M18.5 4.4q.8.8.8 2t-.9 1.8q-.7.9-1.8.9t-2-.8-.8-2 .8-2q.8-.7 2-.7t1.8.8m-10.1-2q1.6 0 2.7 1.2t1.2 2.7T11 8.9q-1.1 1.2-2.7 1.2T5.6 8.9Q4.5 8 4.5 6.2q0-1.5 1-2.6 1.3-1.1 2.8-1.1" vector-effect="non-scaling-stroke"/><path fill="#fff" d="M11.3 5.5q.4.4.4 1t-.4.9q-.3.5-.9.5t-1-.5q-.3-.3-.3-.9l.3-1 1-.3q.6 0 .9.3m5.3 0 .4 1q0 .6-.4.9-.4.5-1 .5t-1-.5q-.3-.3-.3-.9t.3-1q.5-.3 1-.3.7 0 1 .3"/><path fill="#f8dc7f" fill-opacity=".4" d="M18.2 2.3q2.1 0 3.6 1.2t1.5 2.8T21.8 9t-3.6 1.2q-2 0-3.5-1.2t-1.5-2.8 1.5-2.8q1.4-1.2 3.5-1.2M6.5 0q2.7 0 4.6 1.8Q13 3.5 13 6q0 2.4-2 4.1-1.8 1.8-4.5 1.8T1.9 10 0 6t1.9-4.2T6.5 0"/></g></defs><g clip-path="url(#b)"><use xlink:href="#c" width="23.3" height="11.8" transform="translate(1 1)"/></g></svg>