<svg xmlns="http://www.w3.org/2000/svg" xmlns:xlink="http://www.w3.org/1999/xlink" width="46" height="34" viewBox="0 0 46 34"><defs><clipPath id="a"><path d="M1 1h44v32H1z"/></clipPath><g id="b"><path fill="#a28453" d="M28.4 7q.4 1 1.9 2.8 1 1.3 3 2.2l.5.2q4.1 1.7 9 2.3v.3l-4 .7q-1.1-.2-2-.7l-1.2-.5-2.4 1.8 1.6-3.4q-2.5-.2-4.3-1.9-.7-.6-1-1.4zm-14-6V0L20 1.9v1l-2.6-.6-2.3-1zm7 1.5Q23 2 24.7 3l1.7 1.4L28 5.6l.1.3-1.5-.5-1.3.6-.5-2.5-.8.2-1.1.4-.7 1.7-.4 1-.7-3z"/><path fill="#b89d72" d="M42.8 14.8v.8l-2-.4-5 3.5-8.4-2.5.8-7.7-.7-2.4-1.6-.1-1.7 2.7-.2-5 .8-.2.5 2.5 1.3-.6 1.5.5.1.7.2.4 1.1 2.4q.3.8 1 1.4 1.8 1.7 4.4 1.9L33.3 16l2.3-1.8 1.2.5q.9.5 2 .7zM13.5 8.2V6.4l.3-.6 3.4-.3.7-1.2-.4-2 2.5.6V3l-1.2 1.8q-.7.5-.9 1.1l-.1.3H17q-2.3 0-3.5 1.9m.8-6.7V1l.8.3zm15.8 9.9.6 4.1 2.6-2.6zm-12.4.7q2.6-3.8 3.4-8.2l.7 2.9q-1 3.5-1 7.3-1 .5-1.9.4-.9-.2-1.3-.6-.5-.5.1-1.8m4.6 2.7 1.3-4.3-.8 4.4z"/><path fill="#cab895" d="M42.8 15.6v7.8q-2.6-.4-5-2.2-2.5-1.9-2-2.4v-.1l5-3.5zM13.6 6.4l.7-5 .8-.1 2.3 1 .5 2-.6 1.2-3.5.3zm.8-6.3V0h.1M20 3l.3-.3.9-.2-.2 1.4q-.8 4.4-3.4 8.2-1.7 0-3-1.1-1.2-1.2-1.2-2.8 1.2-1.8 3.5-1.8l.7-.1.3-.3-.2 1q.7.5 1.2-.3l.3-.6q.5-1-.3-1.4h-.2V5zm10.1 8.3 3.2 1.5-2.5 2.6zm-6-7.7.1 5L26 6l1.4.1.8 2.4-.8 7.7q-4.5.9-4.5-1.3l.7-4.4-1.3 4.3-1.5-.7q0-3.8 1-7.3l.4-1 .7-1.7z"/><path fill="#1560b9" d="m42.8 23.4-10.4 6.3L10 17.6l-4.7-4.4 8.2-5q0 1.6 1.2 2.8 1.3 1 3 1-.6 1.4-.1 1.9t1.3.6 2-.4l1.4.7h.6q0 2.3 4.5 1.4l8.4 2.6q-.5.5 2 2.4 2.4 1.8 5 2.2M9.3 12.8l4.2 4-1.7-2.5zm6.5 5H15q8.1 5.5 15.7 8.2-3.6-3.6-8.7-6-3.7-1.6-6.3-2.1"/><path fill="#367ae9" d="M32.4 29.7 28.7 32 0 16.3l5.3-3.1 4.6 4.4zm-23.1-17 2.5 1.6 1.7 2.5zm6.4 5q2.6.6 6.3 2.2 5.1 2.4 8.6 6-7.5-2.7-15.6-8.1z"/><path fill="#d6c6ad" d="m18.8 4.9.2-.1q.8.5.3 1.4l-.3.6q-.5.8-1.2.3l.1-1q.3-.6.9-1.1"/><path fill="none" stroke="#360" stroke-linecap="round" stroke-linejoin="round" stroke-width="__RESOLUTION__" d="M28.4 7q.4 1 1.9 2.8 1 1.3 3 2.2l.5.2q4.1 1.7 9 2.3M14.4 0 20 1.9v1.2l.1-.1.3-.3.9-.2Q23 2 24.7 3l1.7 1.4L28 5.6l.1.3.1.7.2.4" vector-effect="non-scaling-stroke"/><path fill="none" stroke="#c2e1fe" stroke-linecap="round" stroke-linejoin="round" stroke-width="1" d="M13.5 8.2q0 1.6 1.2 2.8 1.3 1 3 1-.6 1.4-.1 1.9t1.3.6 2-.4l1.4.7h.6q0 2.3 4.5 1.4l8.4 2.6h0q-.5.5 2 2.4 2.4 1.8 5 2.2"/></g></defs><g clip-path="url(#a)"><use xlink:href="#b" width="43.3" height="31.9" transform="translate(1 1)"/></g></svg>