<svg xmlns="http://www.w3.org/2000/svg" xmlns:xlink="http://www.w3.org/1999/xlink" width="59" height="42" viewBox="0 0 59 42"><defs><clipPath id="a"><path d="M1 1h57v40H1z"/></clipPath><g id="b"><path fill="#c2b596" d="m.8 13.7.6-.7L26.7 0h3L56 13.5l-.1.3-24.3 12.1h-7.1z"/><path fill="#6d6454" d="m56 13.8-.1 11.8h-.1Q43.5 34.9 31 38.8l-2.9.8-1-.5.5-11.4h.2l3.8-1.8z"/><path fill="#786043" d="M55.9 25.6h-.1zm-28 2.1h-.2v-.2z"/><path fill="#2e2e07" d="m27.2 39.1-1.1-.4-.5-.1-1.7-10-2.6-1.5-21-11.3v-1.4l.5-.7 23.8 12.2 3.1 1.6v.2z"/><path fill="#57560f" d="M25.7 38.6 21 37l-1.2-7.6 1.4-2.2 2.6 1.4zm-8-2.9Q8 31.5 0 25.4l.3-7.6Q5 31 12 26.4z"/><path fill="#3e3e0b" d="M21.1 37 18 35.8l-.3-.1-5.6-9.4Q5 31 .3 17.9v-2l21 11.3-1.4 2.3z"/><path fill="#91836f" d="M24.6 25.9h7L28 27.7l-.2-.2z"/><path fill="none" stroke="#453f35" stroke-linecap="round" stroke-linejoin="round" stroke-opacity=".2" stroke-width="__RESOLUTION__" d="m.8 13.7.6-.7L26.7 0h3L56 13.5l-.1.3-.1 11.8h-.1Q43.5 34.9 31 38.8l-2.9.8-1-.5-1.1-.4-.5-.1L21 37l-3.1-1.2m-.3-.1Q8 31.5 0 25.4l.3-7.6v-3.4l.5-.7m30.9 12.2L56 13.8M27.7 27.7h.2l3.8-1.8m-4 1.8-.5 11.4" vector-effect="non-scaling-stroke"/><path fill="none" stroke="#453f35" stroke-linecap="round" stroke-linejoin="round" stroke-opacity=".1" stroke-width="__RESOLUTION__" d="m47.7 12.5-1.7.8.9.4m-8.7-1.2-8-4-7 3.2L30 15m-4.4-8.7 4.7 2.3 5.1-2.3m-11.6-.9 1.8.8m-6.8 3.3 4.6 2.2-6.2 2.8m-.9-6.2 2.5 1.2m15.8 9.6L46 13.3l-9.5-4.6m-11-2.4 4.4-2.1m-4.4 2-6.8 3.3-6.2 3" vector-effect="non-scaling-stroke"/></g></defs><g clip-path="url(#a)"><use xlink:href="#b" width="56" height="39.6" transform="translate(1 1)"/></g></svg>