<svg xmlns="http://www.w3.org/2000/svg" xmlns:xlink="http://www.w3.org/1999/xlink" width="33" height="40" viewBox="0 0 33 40"><defs><linearGradient id="a" x1="-819.2" x2="819.2" gradientTransform="matrix(0 .01 -.02 0 -11.35 10.2)" gradientUnits="userSpaceOnUse" spreadMethod="pad"><stop offset="0" stop-color="#b6a785" stop-opacity="1"/><stop offset="1" stop-color="#857550" stop-opacity="1"/></linearGradient><linearGradient id="f" x1="-819.2" x2="819.2" gradientTransform="matrix(-.01 0 0 0 2.15 -2.35)" gradientUnits="userSpaceOnUse" spreadMethod="pad"><stop offset="0" stop-color="#6d7337" stop-opacity="1"/><stop offset="1" stop-color="#535728" stop-opacity="1"/></linearGradient><linearGradient id="d" x1="-819.2" x2="819.2" gradientTransform="matrix(.03 .02 0 0 15.3 10.8)" gradientUnits="userSpaceOnUse" spreadMethod="pad"><stop offset="0" stop-color="#6d7337" stop-opacity="1"/><stop offset="1" stop-color="#535728" stop-opacity="1"/></linearGradient><linearGradient id="b" x1="-819.2" x2="819.2" gradientTransform="matrix(0 0 -.01 -.01 -4.2 4.5)" gradientUnits="userSpaceOnUse" spreadMethod="pad"><stop offset="0" stop-color="#535728" stop-opacity="1"/><stop offset="1" stop-color="#3d401e" stop-opacity="1"/></linearGradient><g id="n"><path fill="#423f26" d="m2 11.5-.3.1Q1 11.6.5 9.9T0 5.8t.5-4.1T1.7 0l.3.1q-.5.2-1 1.6Q.7 3.3.7 5.8T1 9.9q.3 1.3.9 1.6"/><path fill="none" stroke="#444229" stroke-linecap="round" stroke-linejoin="round" stroke-opacity=".7" stroke-width="__RESOLUTION__" d="m2 11.5-.3.1Q1 11.6.5 9.9T0 5.8t.5-4.1T1.7 0l.3.1" vector-effect="non-scaling-stroke"/><path fill="none" stroke="#36341d" stroke-linecap="round" stroke-linejoin="round" stroke-opacity=".3" stroke-width="__RESOLUTION__" d="M2 .1q-.5.2-1 1.6Q.7 3.3.7 5.8T1 9.9q.3 1.3.9 1.6" vector-effect="non-scaling-stroke"/></g><g id="m"><path fill="#38351d" d="M32.2 4.2 32 6.5 29.5 9l-3.2 3.2q-1.2 2.8-1 5.3l.2 1.6 5.8-5.1-.2 1.9-5 4.6h-.6l-.7 1.2-1 .8q-1.6-5.1 1-11.2l1-1 .9.1.3-1.1z"/><path fill="#7b745c" d="m29.5 9-.4 4.5v.6l-3.9 3.3q-.1-2.4 1-5.3z"/><path fill="#4d4d33" d="m29.1 13.5 2.2.3-5.8 5.1-.2-1.5 3.8-3.3z"/><path fill="url(#a)" d="m0 14.6-22.1-5q-3.2-4.8-.3-11L1.1 3.4q-2.6 6.1-1 11.2" transform="translate(23.8 7.8)"/><path fill="#bfb695" d="m1.4 6.4 1.5-1 1.2.3 21.8 4.6-1 .9zm3.2-2L11.2 0l21 4.2-5.3 5z"/><path fill="#675b43" d="m4 5.7.6-1.4 22.4 5-.3 1.1h-.8z"/><path fill="none" stroke="#38381d" stroke-linecap="round" stroke-linejoin="round" stroke-opacity=".5" stroke-width="__RESOLUTION__" d="M32.2 4.2 32 6.5 29.5 9l-.4 4.6 2.2.3-.2 2-5 4.6h-.6l-.7 1.2-1 .8-22.1-5q-3.3-4.8-.3-11l1.5-1 1.2.3.5-1.4L11.2 0zl-5.3 5-.2 1.1h-.8l-1 .9q-2.6 6.1-1 11.2m1.4-5 .2 1.6 5.8-5.1m-1.8-5-3.2 3.2q-1.2 2.8-1 5.3m-.4-6.2L1.4 6.4m24.5 3.9L4 5.7" vector-effect="non-scaling-stroke"/></g><g id="k"><path fill="#62694c" d="m2 11.5-.3.1Q1 11.6.5 9.9T0 5.8t.5-4.1T1.7 0l.3.1q-.5.2-1 1.6Q.7 3.3.7 5.8T1 9.9q.3 1.3.9 1.6"/><path fill="none" stroke="#6c7559" stroke-linecap="round" stroke-linejoin="round" stroke-opacity=".7" stroke-width="__RESOLUTION__" d="m2 11.5-.3.1Q1 11.6.5 9.9T0 5.8t.5-4.1T1.7 0l.3.1" vector-effect="non-scaling-stroke"/><path fill="none" stroke="#343c29" stroke-linecap="round" stroke-linejoin="round" stroke-opacity=".3" stroke-width="__RESOLUTION__" d="M2 .1q-.5.2-1 1.6Q.7 3.3.7 5.8T1 9.9q.3 1.3.9 1.6" vector-effect="non-scaling-stroke"/></g><g id="j"><path fill="#535728" d="M3 4.5 12 0l14.2 7.3-9.2 4.5zm9.4-3-6.7 3 10.5 5.4 6.7-3z"/><path fill="#3d401e" d="M26.3 7.3v.9l-1.7.8-8.9 4.4-.4 1.2-.2.6v1l.2.6.6 1 10.4-5v.7L15 19q-1.7-2.7 0-6.2l1-.5L2 5h.7l14 7.4.4-.6z"/><path fill="#9c9478" d="m24.7 9-.4 1-.1.9.2.8.2.6v.2l-9.4 4.3v-1.6l.1-.6.4-1.2zm-.1 3.3-9.5 4zM15 15l9.1-4.2zm9.1-5.1-9 4.5z"/><path fill="#696f33" d="m24.4 11.7 1.9 1-10.4 5-.7-.9 9.5-4.3-.1-.2z"/><path fill="url(#b)" d="m3 10.9-14-7.2q-1.8-2.8 0-6.2L3 4.8q-1.7 3.4 0 6.1" transform="translate(12.05 8.05)"/><path fill="url(#d)" d="m-11.1-2.5 1-.5L4.1 4.3l-1 .5z" transform="translate(12.05 8.05)"/><path fill="#696f35" d="m2.7 5 .3-.5 14 7.3-.4.6z"/><path fill="url(#f)" d="m.4-6.5 10.5 5.4-6.7 3-10.5-5.4z" transform="translate(12.05 8.05)"/><path fill="none" stroke="#394730" stroke-linecap="round" stroke-linejoin="round" stroke-opacity=".6" stroke-width="__RESOLUTION__" d="M3 4.5 12 0l14.2 7.3M24.6 9l-.3 1-.1.9.2.8 1.9 1v.8L15 19 .9 11.7Q-.8 9 .9 5.5l1-.5m.8 0 .3-.5m21.4 7.2.2.6v.2l-9.4 4.3.7 1" vector-effect="non-scaling-stroke"/><path fill="none" stroke="#394730" stroke-linecap="round" stroke-linejoin="round" stroke-opacity=".3" stroke-width="__RESOLUTION__" d="m15.2 16.3 9.4-4m-.4-1.4-9 4.3m.1-.6 9-4.5" vector-effect="non-scaling-stroke"/></g><radialGradient id="g" cx="0" cy="0" r="819.2" gradientTransform="scale(.01)" gradientUnits="userSpaceOnUse" spreadMethod="pad"><stop offset=".3" stop-color="#524b3f" stop-opacity=".5"/><stop offset="1" stop-color="#aba284" stop-opacity="0"/></radialGradient><clipPath id="i"><path d="M1 1h31v38H1z"/></clipPath><path id="h" fill="url(#g)" d="M7.2-7.2q3 3 3 7.2t-3 7.2-7.2 3-7.2-3-3-7.2 3-7.2 7.2-3 7.2 3" transform="translate(10.15 10.15)"/><use xlink:href="#h" id="l" width="20.3" height="20.3"/></defs><g clip-path="url(#i)"><g transform="translate(14.95 30.2)"><use xlink:href="#j" width="26.3" height="18.9" transform="translate(-12.95 -11)"/><use xlink:href="#k" width="2" height="11.6" transform="matrix(.875 0 0 .5999 -11.65 -5)"/><use xlink:href="#k" width="2" height="11.6" transform="matrix(.875 0 0 .5999 -8.55 -3.4)"/><use xlink:href="#k" width="2" height="11.6" transform="matrix(.875 0 0 .5999 -5.35 -1.8)"/><use xlink:href="#k" width="2" height="11.6" transform="matrix(.875 0 0 .5999 -1.55 .1)"/><use xlink:href="#j" width="26.3" height="18.9" transform="translate(-11.95 -18.2)"/><use xlink:href="#k" width="2" height="11.6" transform="matrix(.875 0 0 .5999 -10.65 -12.2)"/><use xlink:href="#k" width="2" height="11.6" transform="matrix(.875 0 0 .5999 -7.55 -10.6)"/><use xlink:href="#k" width="2" height="11.6" transform="matrix(.875 0 0 .5999 -4.35 -9)"/><use xlink:href="#k" width="2" height="11.6" transform="matrix(.875 0 0 .5999 -.55 -7.1)"/><use xlink:href="#j" width="26.3" height="18.9" transform="translate(-12.95 -24.65)"/><use xlink:href="#k" width="2" height="11.6" transform="matrix(.875 0 0 .5999 -11.65 -18.65)"/><use xlink:href="#k" width="2" height="11.6" transform="matrix(.875 0 0 .5999 -8.55 -17.05)"/><use xlink:href="#k" width="2" height="11.6" transform="matrix(.875 0 0 .5999 -5.35 -15.45)"/><use xlink:href="#k" width="2" height="11.6" transform="matrix(.875 0 0 .5999 -1.55 -13.55)"/><use xlink:href="#l" width="20.3" height="20.3" style="mix-blend-mode:hard-light" transform="matrix(-.6129 .0675 .176 .2603 -1.5 -21.45)"/><use xlink:href="#l" width="20.3" height="20.3" style="mix-blend-mode:hard-light" transform="matrix(-.6129 .0675 .176 .2603 1.15 -20.5)"/><use xlink:href="#l" width="20.3" height="20.3" style="mix-blend-mode:hard-light" transform="matrix(-.8589 .1786 .176 .2603 10.6 -22.75)"/><use xlink:href="#l" width="20.3" height="20.3" style="mix-blend-mode:hard-light" transform="matrix(-.8589 .1786 .176 .2603 9.45 -22.2)"/><use xlink:href="#l" width="20.3" height="20.3" style="mix-blend-mode:hard-light" transform="matrix(-.8589 .1786 .176 .2603 13.3 -22.85)"/><use xlink:href="#l" width="20.3" height="20.3" style="mix-blend-mode:hard-light" transform="matrix(-1.2361 .1158 .3175 .4696 3.1 -24.95)"/><use xlink:href="#m" width="32.1" height="22.4" transform="matrix(-.5782 0 0 .5782 9.5 -29.2)"/><use xlink:href="#n" width="2" height="11.6" transform="matrix(-.5791 .0645 .021 .5746 6.85 -25.2)"/><use xlink:href="#n" width="2" height="11.6" transform="matrix(-.5791 .0645 .021 .5746 3.3 -24.45)"/><use xlink:href="#n" width="2" height="11.6" transform="matrix(-.5791 .0645 .021 .5746 -.7 -23.5)"/><use xlink:href="#n" width="2" height="11.6" transform="matrix(-.5791 .0645 .021 .5746 -2.25 -23.15)"/><use xlink:href="#n" width="2" height="11.6" transform="matrix(-.5791 .0645 .021 .5746 8.15 -25.55)"/></g></g></svg>