<svg xmlns="http://www.w3.org/2000/svg" xmlns:xlink="http://www.w3.org/1999/xlink" width="67" height="52" viewBox="0 0 67 52"><defs><g id="f"><path fill="#3c2c12" d="M48.6 1v23.4L24 35V11.6z"/><path fill="#674f1f" d="m3.4 14.9-3-1.5H.2v-.8l1.5.6.3.2h.2l1 .5zm1.4 7.4L.5 20H.3v-3.7l.1.1v.1l.2.1 1.7 1.3.6.6.5.3.7.6h.2l.3 2z"/><path fill="#8b6d25" d="m.3 13.5 3.1 1.3.2 1-3.3-1.4z"/><path fill="#d0b86e" d="M3.4 14.9v-1l.4.3.3.2 8.5 4.1.5.3h.2l.2.1 2.3 1.2 1.2.7 1.4.7 1.4.6.1.1v1.6l-.1-.1-2.5-1.4V22l-1.5-.7-1.2-.7-2.5-1.2-.2-.1-1-.5-1.3-.6-.7-.2-.4-.2-.2-.2-.7-.2-.7-.3-.4-.1-.7-.4-2.2-.8z"/><path fill="#785825" d="m.3 14.4 3.3 1.4.2 1.3h-.3l.1.1.3.4.1.1.3 1.7h-.2l-.7-.6-.5-.4-.6-.4-1.7-1.4-.2-.1z"/><path fill="#9f7d2f" d="M20 23.8v3.8h-.3l-.3-.2-3.3-1.1-3.2-1.4-1.3-.7L7 21.4l-.6-.5-.8-.5-.5-.4-.5-.2-.1-.2-.2-.2h-.2.2L4 17.7h.1l.2.2.5.3.5.3.3.3.4.3.5.3.4.3 1.1.8.4.3.6.3 2.1 1.4 1 .6.2.1 1.2.8q2.8 1.5 3.8 1.5.8 0 .5-.9l-.5-.7-1.2-1.2-1.2-.9-1-.7q-1.2-.7-2.7-1.3l-1.1-.4-1.3-.6-.8-.3-2.5-1h-.1l-1.6-.4-.2-1.3 2.2 1 .7.3.4.1.7.3.7.2.2.2q.3 0 .4.2l.7.2 1.3.6 1 .5.2.1 2.5 1.2 1.3.7 1.3.8h.1l2.5 1.5z"/><path fill="#c09143" d="M20 27.6v.6l-1.9-.8-5.2-2.5 3.2 1.4 3.3 1.1.3.1zm0 1.5v.7l-6-3 3.7 1.5zM9.5 24.6l-4.7-2.4-.2-.7.7.4z"/><path fill="#cbab60" d="M20 28.2v.9l-2.3-.8-3.7-1.5-.3-.2-.6-.2-.5-.2-3-1.6-4.3-2.7-.7-.4-.3-2h.1l.1.1.1.1.5.3.5.4.8.5.6.5 4.6 2.8 1.3.7 5.2 2.5z"/><path fill="#ab8a41" d="m3.8 17 1.6.5h.1l2.5 1 .8.3 1.3.6 1 .4h.1q1.5.6 2.7 1.3l1 .7 1.2.9 1.2 1.2.5.7q.3.8-.5.9-1 0-3.8-1.6l-1.2-.7H12l-1-.6-2-1.5-.7-.3-.4-.4-1.1-.7-.4-.3L6 19l-.4-.3-.3-.3-.5-.3-.5-.3-.2-.2-.2-.1-.3-.4-.1-.1z"/><path fill="none" stroke="#000" stroke-linecap="round" stroke-linejoin="round" stroke-opacity=".5" stroke-width="__RESOLUTION__" d="m.3 13.5 3.1 1.3m0-.9-1-.5H2l-.3-.2h0l-1.5-.6v1.8m3-.5h.1l.4.3.3.2 8.5 4.1.5.3h.2l.2.1 2.3 1.2 1.2.7 1.4.7 1.4.6.1.1v1.6m0 3.8v2.2l-6-3-.2-.2-.6-.2-.5-.2-3-1.6-4.8-2.4-4.3-2.1m0-.1H.3v-4.3M20 23.8v3.8M4 17.7l.3 1.7h0-.2.2m-.4-1.8.1.1m-.4-1.8.2 1.2m-3.4-.7" vector-effect="non-scaling-stroke"/><path fill="#e4ce7b" d="M28 8h.1l.6-.2.1-.2.4-.2h.2l1.2-.7 6.4-3 1.6-.9 1.4-.5 2-1 .8-.4 1-.6h.2l.8.3-17 9.4-.6-.2-6.8 2.6-.3-.2 1.5-.7 3.7-2 2.6-1.4m-7.8 4.2.3.1-.2.1v1.7l-.1.4-1.7-.8-.6-.4h-.1l-.1-.1-1.5-.7-1.2-.7-2.9-1.4-.8-.4-1.3-.7-.3-.1-.2-.2-1.2-.5-.3-.2-4.4-2.2-.8-.4-1.5-.6-1-.5q-.2-.2 0-.3l1.7-1.2 1.9.8.5.3 1.4.7 1.8.8 1.8.9 1.1.6.2.1 1.3.7h.1l.3.1 1.2.7.8.3 2.8 1.5 1.2.7 1.6.7v.1zm7.7-2.2 17-9.4 1.5.7-3.9 2-1 .5-7.2 4.5h-.5v.1l-.7.2-2.7.9-.7.3-1 .4zm-7 27.6-.6-.2v-1.8l-.1-3.9-.1-1.5V16.1l-2.2-1.4-.6-.2-.6-.4-.1-.1h-.1l-1.4-.8-1.2-.6-2.9-1.5-1-.4-1.4-.6-.2-.2h-.4l-1.4-.6-.5-.2-.2-.1-4.5-2v-.9l-.1-1 1.5.8.8.3 4.4 2.2.3.2 1.3.5.1.2.3.1 1.3.7.8.4 2.9 1.4 1.2.7 1.5.7.1.1h.1l.6.3 1.7.9v-1.1l.1-1 2.7 1.5zM42.5 4.3v-.9L45 4.8l-.5 5.6-1.4-3.6zM8 9.1l-6.8-3zm3.3-.7.2.1 1.1.8.8.4 2.7 1.5.6.3.3.2.3.1 1.7.7v.1h.2q1.4.7.2-.1l-.1-.1-1.4-.9-1.3-.6-1.7-1-1-.4L13 9l-1.3-.5zm8.8 6.2v1.5z"/><path fill="#d1bb6f" d="m20.4 12.4 6.9-2.6.5.1.6.3h.1l.5 1.6-.6.3-3.6 1.3-1.4.8V14l-.5-.1-2.7-1.5zm9.4-1.1-.8.5-.4-1.6 1.1.3.9.3zm12.8-7.9 3.8-2h.2l1.3-.7.1-.1 1.5-.5.6.3 2.3 1.2-.7.4-1.1.3h-1.2l.6.2-3.5 1.8-1 .5H45zm2.5-.2h-.2z"/><path fill="#ac8733" d="M42.4 3.3v.9l-6.8 4.1v.1l-5 2.7v-.5l-.5-.1-.3-.1h-.1v.1l-1.1-.3 1-.4.7-.3 2.7-.9.6-.2-.7.5 1.3-.6 7.1-4.5h.1zm3 1.5v7.9q-.2-2.6-.9-2.2l.5-5.7z"/><path fill="#674f1f" d="M30.6 11.1v3.4h-.2l.1.1-.1.3v.1l-.1.2.1.2h.1v1.8l-.1.2h.1v1.1-.1h.1v5l-.5.3.3.2h-.1.1v1.8-.4 1h-.1v.4l-.9 6.1v.2l-.2 1.4v.1l-.4 2-1.9.8.5-1.9 1.5-10v-.1l.3-4.7V19l-.1-.2-.7-6.7.6-.3.8-.5zM.2 6.5v-.8l1 .4.1 1zm30.6 7.9-.1.1v-3.3l5-2.7.2-.2h2q2.9-1.2 1.1 0h2.7l.5-.3v1.8l-.3.2v1.3l.3-.1v.3h-.3l-.2.3-2.5 1.1-1 .5-.2.4v.4l-.5.5h-.1l-.5.2-.2.1-.4.1h-.1l-.1.1-1 .3-4.2 1.6-.1-1.5-.1 1v-2zm4.8-6.1 6.7-4v1zm12.8 17.8L45.8 28l.2-13.6-.1-.6v-2.3l2.3-3.6h.8L46.6 12v1.7l.4 3.9v.1l.2 2.5q.1 1.2.3 1.6l.1.5.2-.1.2-.2.8-5.2v-.6l.1-.3v-.3l.6-6.7V7.3q-.1-2.5-1.2-1.8l-.1.2H48l-.4.7v.3l-1.2-2.4 3.5-1.8.7 5.3.1 2.1-.6 6.3L50 18l-1 6zm-3.1 2-1.6-.7.8-17q.5-.3.7 2.3V15l-.1.9.1.9-.1.9.1.8zm-14.6 1.7v-2.9.2-2.7.4l.1-.7-.1-.8v-1.2L42 15.3v-1.1l-4.4 1.9-6.7 4-.1.3v-2.1h.1q4.1-2.2 9-4.1l2.1-1v.2l.1-.1.1-.1v4.5l-.2.1v.8l-5.1 3-2.2 1.3-3 2.8-.6 1 6.9-3.2 4-1.7V23l-10.9 6.6zm11.6-12.9-1 .5-9 5-1.4.9h-.1l1.6-.9 8.9-5zm-11.9.5-.2-.2.2.4zm-2.4-.8v1l-.6 8.3v.3l-.2 1.5-.7 4.7-.1.5q-.2.6-.4 0l-.6-4.2v-.1l-.2-3.4q-.2-.2 0-.7v-4.2l.2-1.5.4-1.7q.3-1 .8-1.5 1-.7 1.3 1m3.2 10.1-.2.8z"/><path fill="#63521f" d="M30.5 23.9v.6h.1v1.3l-.2-.2v.9h.2V30l-.3.2.2.2-.1.4-.1.2.3.3v1.1l-.2.1v.1h.1l.1.1v3l-1.8.8.3-2 .1-.1.3-1.4v-.2l.8-6.1v-1.4l.1.3zM52.4 1.6v5.7q0-1.8-.7-5.3zm0 11.6v11.1l-2 .8 1.1-4.4.5-3.8zm-9.8 13.4-.4.3-7 3.5 7-4.1v-.8l.3-.2zm7.5-24 .6-.4.2 5.5v2.2l-.1-2.2zm-7.6 15.2V19l-.2.1v.1l-5 2.5-.2-.2 5.1-3v-.8z"/><path fill="#785825" d="m27 37.3-1.9.8-.9.4-.8.3v-1.3l-.1-1.6V14.2h.1l1.4-.8 3.6-1.3.7 6.7v1.8l-.2 4.7v.1l-1.5 10zM1.4 9.7l-1.2-1V6.4l1.1.5zm34.4-1.3h-.2l6.6-3-.1 2.7-.5.3H39q1.8-1.2-1.1 0h-2m16.4-1v5.9l-.4 3.7-.5 3.8-1.1 4.4-1.8 1L49 24l1-6 .1-1.8.6-6.3V7.7l-.2-5.4 1.1-.3q.6 3.5.7 5.3m-6.5 20.6-.3.3-.1-.1-.1-9.7-.1-.8.1-.9-.1-.9.1-1v-4.4l.1-5.2v-.4l1-.5 1.2 2.4v-.3l.4-.7h.1l.1-.2q1.2-.7 1.3 1.8v1.5l-.5 6.7-.1.3v.3l-.1.3v.3l-.8 5.2-.2.2-.1.1-.2-.5q-.2-.4-.3-1.6l-.2-2.5v-.1l-.4-3.8v-1.8l2.4-4h-.9L46 11.4v.9l-.1 1V28m-13.6 3.5-.6.4-.4.2-.4.1v-.7l-.1-.4v-1 .1-.3l.3-.2 11-6.6v-1.2L38 23.5l-6.9 3.2.5-1Q36.3 23.3 42 21l.1-.1h.3l.1 4.4-.2.2H42q-5.5 3.6-9.7 5.9m-1.5-9.3v-1.9l6.8-4.1 4.4-1.9v1.1zm.1-3.8.1-1.2 5-1.9h.2l.1-.1h.4V15l.3-.2h.3l.5-.3.4-.2 1.8-1 2.3-1v.9l-.2.1v-.1l-2.1 1q-5 2-9.1 4.1m-3-1.7q-.3-1.7-1.3-1-.5.5-.8 1.5l-.4 1.7-.2 1.5v4.2q-.2.5 0 .8l.3 3.3v.1l.5 4.2q.2.6.4 0l.1-.5.7-4.6v-.1l.3-1.6V26l.5-8.2zm-3.2 13.8-.2-1.3v-.5l-.1-1v-.4l-.1-4.3v-1.4 1.4l.1 4.3v.3l.1 1.1v.5zm.1.6.3 7zm-1-2.5.4 10z"/><path fill="#a2833e" d="m23.3 38.8-2.5-1.2L23 14l.4.1z"/><path fill="#c09143" d="M20 22.2 13.5 19l4.8 1.9 1.7.5zM9.3 16.9 1.8 13l-.2-1.5.2.1 6.7 4.7.5.3zm1.9-8.4h.3l1.3.6.8.5 1 .4 1.8 1 1.3.6 1.4.9h.1v.1q1.3.8-.2.2l-.2-.1-1.7-.7-.3-.2-.2-.2-.7-.3-2.7-1.5-.8-.5-1.1-.7zM20 20v.6l-.9-.5-3.9-1.7-2.3-1.2 2.5 1.1 1.5.6z"/><path fill="#9f7d2f" d="m13.6 19-.2-.1h-.2v-.1h-.1l-.5-.3-3.3-1.6-.3-.2-.5-.3-6.7-4.7-.2-.1-.1-2 1.1.9.5.4.8.5.5.5.3.2.9.6 5 3.2.5.2 1.8 1.1 2.3 1.2 3.9 1.8.9.4v.8l-1.7-.5z"/><path fill="#8b6d25" d="M.2 5.7v-1l1 .5V6zm41.5 6 .3-.1.1-.1h.1l.3-7.2.6 2.5 1.4 3.6-.7 17-1.3-.8-.1-1.3-.1-4.4v-9.5.7L40 13.3l-1.8.8v-.3q-.2-.2.1-.4l1-.5zM35 30.5l-2.7 1q4.2-2.2 9.8-5.9v.8zm7.1-11.2v.8l.1 1h-.4q-5.7 2.4-10.2 4.8l3-2.8 2.3-1.1 5-2.5zm-4.4 2.8 4.5-2z"/><path fill="#ab8a41" d="m5 9.6.5.2 2.4.9 1.1.4 1.2.5 2.8 1.3 1.1.6v.1l1 .6.3.2.1.1.6.4 1 .8.4.6.3.4v.3l.1.4-.2.3-.8.1-1.3-.5-.9-.4-1.2-.6-.6-.4q-.2 0-.3-.2l-.6-.3-.6-.4-.2-.1-.9-.6-2-1.4-1.1-.7-1.2-.8-.2-.2-.5-.3-.8-.6-.4-.4q-1.7-1.2.8-.3"/><path fill="#b99646" d="M5 9.6q-2.6-.8-1 .3l.5.4.8.6.5.3.2.2 1.2.8 1.1.8 2 1.3 1 .6.1.1.6.4.6.3.3.2.6.4 1.2.6.8.4 1.4.5.8-.1.2-.3V17l-.1-.3-.3-.4-.5-.6-.9-.7-.6-.5v-.1l-.4-.2-1-.6-1.1-.7-2.8-1.3-1.2-.5-1-.4-2.5-.9zm-2.3.9-1.1-.9-.2-2.5L5.8 9l.2.1.5.2 1.4.5.3.1.3.2 1.4.6 1 .4 2.8 1.5 1.3.6 1.4.8h.1l.1.1.6.3.6.3 2.3 1.4v.5l-.1 3.3-3-1-1.6-.6-2.5-1.1-1.8-1-.5-.3-5-3.2-.8-.6-.4-.2-.5-.5-.8-.5z"/><path fill="none" stroke="#000" stroke-linecap="round" stroke-linejoin="round" stroke-opacity=".5" stroke-width="__RESOLUTION__" d="M44.8.6 44 .3h-.2l-1 .6-.8.4-2 1-1.4.5-1.6.9-6.4 3h0l-1.2.7h-.2l-.4.2-.1.2-.6.2H28m0 .1-2.6 1.5-3.7 1.8-1.6.8.4.2M44.8.6l1.5.7-3.9 2v.9m-11.8 6.9v3.4m-.1.1-.1.3v.1l-.1.2h0l.1.2h.1v1.8m0 .2v1.1h0v-.1h.1v5l-.5.3.3.2h0-.1.2v.6h.1v1.3m-.2-.2v.9h.2V30m0 .4q-.2.1-.2.4l-.1.2m.3.3v1.1l-.2.1v.1h.1l.1.1v3l-1.8.8-1.9.8-1.7.8-1 .4-.8.3m0 0-2.6-1.2-.6-.2h0v-1.8l-.1-3.9-.1-1.5v-2.5m0-3.8v-1.7L13.5 19m-.2-.1H13l-.5-.3L9.2 17l-7.4-4m-.3-3.5L.3 8.7H.2v-4q-.2-.2 0-.3l1.7-1.2 1.9.8.5.3 1.4.7 1.8.8 1.8.9 1.1.6m.2.1 1.3.7h.5l-.2.1 1.3.7.8.3 2.8 1.5 1.2.7 1.6.7 1.6-.7-1.6.8h.2m8.3-.1.6-.3.8-.5.8-.5h0v-.2l-.5-.1-.3-.1h-.1m-1.8-.4.8.2 1.1.3.9.3h0v.3m-7.3 3.1h.1m7.3.3v-3.3l5-2.7m0-.2 6.6-4v1L42.2 8v1.8m-.3 1.5.3-.1v.3h-.3m-.2.3.3-.1m0 0 .1-.1h.1l.3-7.2v-.9l3.8-2h.2l1.3-.7.1-.1 1.5-.5.6.3 2.3 1.2v22.7l-2 .8-1.8 1-2.7 1.8-.3.3m-.1-.1-1.6-.7h0l-1.3-.8-.4.3-7 3.5-2.9 1-.5.4-.4.2-.4.1v-.7l-.1-.4h0m0-1v.1-2m0-1.2v.2-2.7.4h0l.1-.7-.1-.8v-5h.1l.1-1.2 5-1.9-.9.3-4.2 1.6-.1-1.5-.1 1v-2l.1-.2m10.9-6.1.5-.3m-3 5-1 .4-.2.4v.4l-.5.5h-.1l-.5.2-.2.1h0l.3-.2h.3l.5-.3.4-.2 1.8-1-1.8.8v-.3q-.2-.2.1-.4zl2.4-1.2M52.3 1.7l-.7.4-1.1.3h-1.2l.6.2.6-.2m-2.9 19.9.2-.1M46.4 4.3l-1 .5h0-.4l-2.5-1.4h0m2.8 9.4v2l-.1 1 .1.9-.1.9.1.8.1 9.7m-3.1-16v7h0v1.8l.1 4.4v1.3m-.1-13.4-.2.1h0m0-.1-2.1 1q-5 2-9.1 4.1m11.4-6.9v.7L40 13.3l2.3-1m7.6-9.8-3.5 1.8m-4.4 15 .3-.1m0 0-.2.1h0m0 .1-5 2.5-2.5 1.1-3 2.8Q36.3 23.3 42 21l.1-.1h.3m-.2 4.6q-5.6 3.6-9.9 5.9M36 15.2h.1m.1 0h.4m-5.9 8.2 1.6-.9 8.9-5 1-.5m-11.9.5-.1.2-.2-.4zM29.2 19v1.6zm1.2 7.3v-1 .3m0 .6-.1.5m.6.8.2-.7.5-1M42.2 20l-4.4 2M.2 4.7l1 .5m18.9 9.4v-1.1l.1-1m-19-6.4-1-.4M1.3 7 .2 6.6m11.9 1.6.2.1m-1 .3h-.1m8.8 3.7h-.1M20 20v-4l.1-1.5m-.1 6v-.7m0 .7v1.6" vector-effect="non-scaling-stroke"/><path fill="none" stroke="#000" stroke-linecap="round" stroke-linejoin="round" stroke-opacity=".5" stroke-width="__RESOLUTION__" d="m20.4 12.4 6.9-2.6.5.1 17-9.3M20 27.7v-3.8m2.9-9.9.4.1h.1l1.4-.7 3.6-1.3.7 6.7v.2m-.7-8.8-.6-.2m-4.5 4.2v24.6M30.7 11l-.9.2m6-2.9.2-.1m9.5-3.5v7.9M50 2.5l.7 5.2.1 2.1-.6 6.3L50 18l-1 6-.5 2.1m-19.3-5.5-.3 4.7v.1l-1.5 10-.4 1.9m-2.6-15.8v1.4l.1 4.3v.3l.1 1.1v.5l.1 1.3m.4 7.6-.3-7m-.6 7.5-.4-10M1.2 5.2l1.5.6.8.5 4.4 2.1.3.2 1.3.5.1.2.3.1 1.3.7.8.4 2.9 1.4 1.2.7 1.5.7.1.1h.1l.6.3 1.7.9m.1-2.1.2-.1M1.3 6.1l6.7 3m-5.4 1.4-1.1-.9M22.9 14l-2.7-1.5" vector-effect="non-scaling-stroke"/></g><g id="e"><path fill="#aba693" d="M11 18.8q3.4-5.5 6.5-5.5 3 0 4.5.6l.3-1.4q.4-1.3 1.4-2.3 1.7-1.7 4-1.7 1.8 0 3.1.9.6-2.4 2.4-4.1 1.2-1.2 2.6-1.9 1.9-.9 4.1-.9 3.7 0 6.3 2.4l1.5-1.8 1-.7L51 1.1q1.8-.7 4-.8h.6Q60 .3 63.3 3l.2.1q1.2 1 1.9 2.2l.1.1q1.3 2.1 1.3 4.7v.3l-.3 2.1.3-2.1q2.9-1 4.3 3l1.2-.1 1.5.1q1.5.4 2.9 1.4 2.3 6.9-5.1 6.4l4.3.6q-3.9 6.5-10.7 5.5l-1.9-1.8 1.5 2 .1.3q-.5 8-7.7 10.8 2.4 4.1.2 8-4.8 2.4-6.5.2-.6 1.7-2.4 2.9-8 5.5-14.4.5l-1.8 1.5q-9 5.6-17.2.9l-.8-1.6.1-1.2.9-2.8q-4.5 1-8-1.4l-.2-.2q-2.6-3.1.6-5.2l-.5-.1 2.2-.5Q4 38.2 2.4 34L2 32.8l.7-2q.6-1.2 1.8-2.2 1.6-1.5 3.8-2l2.6-.4h.1l.7.1h.3l-.1-.2-.1-.2-1-1.9q-.3-1.2-.3-2.5 0-1.2.4-2.5zm59-5.2 1.1-.2zM46.2 5q-.7 1-1.1 2.2.4-1.2 1.1-2.2m19.1 57.6q-2.5 1.7-3.6.3t-.6-3.9q.2-1.3.8-2.1l.2-.1q.5-.7 1.3-1 1.7-.7 3-.7t2.3.8q1 .9 1 2 0 1.3-1 2.1zm-22-5.1.6 1-1.1 1.3q-2.9 2.8-6.8 2.6-3.6-.2-6.1-2.9l-.2.3v-2.1q.7-2 2.7-2.8 4.5 3.8 11 2.6M33.3 12.6q-.4-1.3-1.5-2.4l-1-.8 1 .8q1 1 1.4 2.4m-25.8 19-1.4.1q-.7.4-.8 1.2t.2 1.5l1.3 1.5 1 .4h.1l1.4-.2q1.5-.6 1.9-1.6t-1.3-1.8zm6.8-5-.7-.2-1.5-.2 1.5.2zM24.9 16l-.3-.4Q23.4 14.5 22 14q1.4.5 2.6 1.7zm6.5 28.2q-.3-1.7-3.3-1.5l-4.2.5q-1.3.2-2 1.3-.5 1-.1 2.2t1.6 1.9 3 1l1.6-.2.3-.1L30 48q1.7-2 1.4-3.7"/><path fill="#9b8a68" d="M65.5 5.4h.3q3.3 0 5.6 2.5l1.1 1.5.1.2q1 1.8 1.2 4l-1.5-.2-1.2.1q-1.4-4-4.3-3v-.3q0-2.6-1.3-4.7m11.2 9.4 1.2 1.2.2.2q2 2.6 2.2 6.3l.4 4.1q.1 2-.8 3.6l-1.4 1.6-.1.1-.5.3-.2.1.2.1.3.1 2.3 1.3 1.8 1.5.5.4.9 1 1 1.3.2.4q2.4 6.4.4 8l-1.6 1-1.9.6 1.1 1.4.8 1.8-.1.9q-.6 2.3-2.7 3.5-1.5.9-3 .8.5 2.3-.1 4.8-.5 1.6-1.3 2.8-1.2 1.8-3.2 2.8-2.5 1.5-5.1 1.4l-.5.3q-5.9 2.8-16.5 1.1l-1.7-.3-7.8 5.3v-.1q-1.2.8-2.5 1.3-2 .8-4.5.8H34q-2.7-.2-4.8-1.2l-1.6-.9q-2.5-1.7-2.8-4.1-2.6 1.4-6 1.4h-.5q-3.9-.1-6.7-2.2-2.5-1.8-2.9-4.3Q6 65 4 63.3q-2.3-2-2.3-4.9l.1-1.4.2-.6q.5-1.6 2-2.9 1-.9 2.3-1.4l1.2-.8L9.8 50q-3.2 1.6-8.2-.5-1-1-1.2-2.2l-.2-1.1q0-2.6 2.4-4.4l1.6-1 .5-.1.3-.2v.1l.4-.2h.3l1.5-.3.5.1q-3.2 2-.6 5.2l.2.2q3.5 2.4 8 1.4l-.9 2.8-.1 1.2.8 1.6q8.2 4.7 17.2-.9l1.8-1.5q6.4 5 14.4-.5 1.8-1.2 2.4-2.9 1.7 2.3 6.5-.1 2.2-4-.1-8.1 7.2-2.8 7.6-10.9l-.1-.2-1.5-2 1.9 1.8q6.8 1 10.7-5.5l-4.3-.6q7.4.5 5-6.4M76 33l.7-.1 1.1-.5-1.1.5zm2.2 14.7.6.1 3.1.3-3.1-.3zM65.4 62.5l3.4-2.6q1-.9 1-2t-1-2.1-2.2-.8q-1.4 0-3.1.6-.8.4-1.3 1l-.2.2q-.6.8-.8 2.1-.6 2.6.6 3.9 1.1 1.4 3.6-.3m8.7-7.7q1 1 2.5 1.4l1.3.2-1.3-.2q-1.5-.4-2.5-1.4m-30.6 2.6q-6.5 1.1-11-2.6-2 .8-2.6 2.8l-.1 2.1.2-.3q2.5 2.7 6.1 2.9 3.9.2 6.8-2.6l1.1-1.3zM7.4 31.7l2.3 1q1.8.8 1.4 1.8T9.2 36l-1.4.3h-.1l-1-.4-1.3-1.5q-.4-.7-.2-1.5.1-.8.8-1.1zm24 12.7Q31.7 46 30 48l-1.7 1.4H28l-1.6.3q-1.9-.4-3-1t-1.6-1.9q-.4-1.2.2-2.2t1.9-1.4l4.2-.4q3-.2 3.3 1.5m-22.6 21h1.1l2.8-.4-2.8.4zM27 68.8l-1 .8-1.1.8 1.2-.8zm17.4 2q-.5 2-2.7 3.6 2.1-1.6 2.7-3.6"/><path fill="none" stroke="#2e220d" stroke-linecap="round" stroke-linejoin="round" stroke-opacity=".5" stroke-width="__RESOLUTION__" d="M11 18.8q3.4-5.5 6.5-5.5 3 0 4.5.6l.3-1.4q.4-1.3 1.4-2.3 1.7-1.7 4-1.7 1.8 0 3.1.9.6-2.4 2.4-4.1 1.2-1.2 2.6-1.9 1.9-.9 4.1-.9 3.7 0 6.3 2.4l1.5-1.8 1-.7L51 1.1q1.8-.7 4-.8h.6Q60 .3 63.3 3l.2.1q1.2 1 1.9 2.2l.1.1q1.3 2.1 1.3 4.7v.3l-.3 2.1m-1-7.2h.3q3.3 0 5.6 2.5l1.1 1.5.1.2q1 1.8 1.2 4 1.5.3 2.9 1.3l1.2 1.2.2.2q2 2.6 2.2 6.3l.4 4.1q.1 2-.8 3.6l-1.4 1.6-.1.1-.5.3-.2.1.2.1.3.1 2.3 1.3 1.8 1.5.5.4.9 1 1 1.3.2.4q2.4 6.4.4 8l-1.6 1-1.9.6 1.1 1.4h0l.8 1.8-.1.9q-.6 2.3-2.7 3.5-1.5.9-3 .8.5 2.3-.1 4.8-.5 1.6-1.3 2.8-1.2 1.8-3.2 2.8-2.5 1.5-5.1 1.4l-.5.3q-5.9 2.8-16.5 1.1l-1.7-.3m-7.8 5.2q-1.2.8-2.5 1.3-2 .8-4.5.8H34q-2.7-.2-4.8-1.2l-1.6-.9q-2.5-1.7-2.8-4.1-2.6 1.4-6 1.4h-.5q-3.9-.1-6.7-2.2-2.5-1.8-2.9-4.3Q6 65 4 63.3q-2.3-2-2.3-4.9l.1-1.4.2-.6q.5-1.6 2-2.9h0q1-.9 2.3-1.4l1.2-.8L9.8 50q-3.2 1.6-8.2-.5-1-1-1.2-2.2l-.2-1.1q0-2.6 2.4-4.4l1.6-1 .5-.1.3-.2v.1l.4-.2h.3l1.5-.3 2.2-.5Q4 38.2 2.4 34L2 32.8l.7-2q.6-1.2 1.8-2.2 1.6-1.5 3.8-2l2.6-.4h.1l.7.1h.3l-.1-.2-.1-.2-1-1.9q-.3-1.2-.3-2.5 0-1.2.4-2.5l.1-.3m62.8-5.2-1.5-.2-1.2.1-1 .2M45 7.1q.4-1.2 1.1-2.2m31.5 27.5-1.1.5-.7.1m5.9 15-3.1-.2-.6-.1m-.2 8.7-1.3-.2q-1.5-.4-2.5-1.4M30.8 9.4l1 .8q1 1 1.4 2.4M12 26.3l1.5.2.7.2M22 14q1.4.5 2.6 1.7l.3.4M12.7 64.9l-2.8.4H8.8m16 5.1 1.3-.8.9-.7m14.7 5.6q2.1-1.6 2.7-3.6" vector-effect="non-scaling-stroke"/></g><g id="d"><path fill="#f5eed3" d="M11 18.8q3.4-5.5 6.5-5.5 3 0 4.5.6l.3-1.4q.4-1.3 1.4-2.3 1.7-1.7 4-1.7 1.8 0 3.1.9.6-2.4 2.4-4.1 1.2-1.2 2.6-1.9 1.9-.9 4.1-.9 3.7 0 6.3 2.4l1.5-1.8 1-.7L51 1.1q1.8-.7 4-.8h.6Q60 .3 63.3 3l.2.1q1.2 1 1.9 2.2l.1.1q1.3 2.1 1.3 4.7v.3l-.3 2.1.3-2.1q2.9-1 4.3 3l1.2-.1 1.5.1q1.5.4 2.9 1.4 2.3 6.9-5.1 6.4l4.3.6q-3.9 6.5-10.7 5.5l-1.9-1.8 1.5 2 .1.3q-.5 8-7.7 10.8 2.4 4.1.2 8-4.8 2.4-6.5.2-.6 1.7-2.4 2.9-8 5.5-14.4.5l-1.8 1.5q-9 5.6-17.2.9l-.8-1.6.1-1.2.9-2.8q-4.5 1-8-1.4l-.2-.2q-2.6-3.1.6-5.2l-.5-.1 2.2-.5Q4 38.2 2.4 34L2 32.8l.7-2q.6-1.2 1.8-2.2 1.6-1.5 3.8-2l2.6-.4h.1l.7.1h.3l-.1-.2-.1-.2-1-1.9q-.3-1.2-.3-2.5 0-1.2.4-2.5zm59-5.2 1.1-.2zM46.2 5q-.7 1-1.1 2.2.4-1.2 1.1-2.2m19.1 57.6q-2.5 1.7-3.6.3t-.6-3.9q.2-1.3.8-2.1l.2-.1q.5-.7 1.3-1 1.7-.7 3-.7t2.3.8q1 .9 1 2 0 1.3-1 2.1zm-22-5.1.6 1-1.1 1.3q-2.9 2.8-6.8 2.6-3.6-.2-6.1-2.9l-.2.3v-2.1q.7-2 2.7-2.8 4.5 3.8 11 2.6M33.3 12.6q-.4-1.3-1.5-2.4l-1-.8 1 .8q1 1 1.4 2.4m-25.8 19-1.4.1q-.7.4-.8 1.2t.2 1.5l1.3 1.5 1 .4h.1l1.4-.2q1.5-.6 1.9-1.6t-1.3-1.8zm6.8-5-.7-.2-1.5-.2 1.5.2zM24.9 16l-.3-.4Q23.4 14.5 22 14q1.4.5 2.6 1.7zm6.5 28.2q-.3-1.7-3.3-1.5l-4.2.5q-1.3.2-2 1.3-.5 1-.1 2.2t1.6 1.9 3 1l1.6-.2.3-.1L30 48q1.7-2 1.4-3.7"/><path fill="#dec696" d="M65.5 5.4h.3q3.3 0 5.6 2.5l1.1 1.5.1.2q1 1.8 1.2 4l-1.5-.2-1.2.1q-1.4-4-4.3-3v-.3q0-2.6-1.3-4.7m11.2 9.4 1.2 1.2.2.2q2 2.6 2.2 6.3l.4 4.1q.1 2-.8 3.6l-1.4 1.6-.1.1-.5.3-.2.1.2.1.3.1 2.3 1.3 1.8 1.5.5.4.9 1 1 1.3.2.4q2.4 6.4.4 8l-1.6 1-1.9.6 1.1 1.4.8 1.8-.1.9q-.6 2.3-2.7 3.5-1.5.9-3 .8.5 2.3-.1 4.8-.5 1.6-1.3 2.8-1.2 1.8-3.2 2.8-2.5 1.5-5.1 1.4l-.5.3q-5.9 2.8-16.5 1.1l-1.7-.3-7.8 5.3v-.1q-1.2.8-2.5 1.3-2 .8-4.5.8H34q-2.7-.2-4.8-1.2l-1.6-.9q-2.5-1.7-2.8-4.1-2.6 1.4-6 1.4h-.5q-3.9-.1-6.7-2.2-2.5-1.8-2.9-4.3Q6 65 4 63.3q-2.3-2-2.3-4.9l.1-1.4.2-.6q.5-1.6 2-2.9 1-.9 2.3-1.4l1.2-.8L9.8 50q-3.2 1.6-8.2-.5-1-1-1.2-2.2l-.2-1.1q0-2.6 2.4-4.4l1.6-1 .5-.1.3-.2v.1l.4-.2h.3l1.5-.3.5.1q-3.2 2-.6 5.2l.2.2q3.5 2.4 8 1.4l-.9 2.8-.1 1.2.8 1.6q8.2 4.7 17.2-.9l1.8-1.5q6.4 5 14.4-.5 1.8-1.2 2.4-2.9 1.7 2.3 6.5-.1 2.2-4-.1-8.1 7.2-2.8 7.6-10.9l-.1-.2-1.5-2 1.9 1.8q6.8 1 10.7-5.5l-4.3-.6q7.4.5 5-6.4M76 33l.7-.1 1.1-.5-1.1.5zm2.2 14.7.6.1 3.1.3-3.1-.3zM65.4 62.5l3.4-2.6q1-.9 1-2t-1-2.1-2.2-.8q-1.4 0-3.1.6-.8.4-1.3 1l-.2.2q-.6.8-.8 2.1-.6 2.6.6 3.9 1.1 1.4 3.6-.3m8.7-7.7q1 1 2.5 1.4l1.3.2-1.3-.2q-1.5-.4-2.5-1.4m-30.6 2.6q-6.5 1.1-11-2.6-2 .8-2.6 2.8l-.1 2.1.2-.3q2.5 2.7 6.1 2.9 3.9.2 6.8-2.6l1.1-1.3zM7.4 31.7l2.3 1q1.8.8 1.4 1.8T9.2 36l-1.4.3h-.1l-1-.4-1.3-1.5q-.4-.7-.2-1.5.1-.8.8-1.1zm24 12.7Q31.7 46 30 48l-1.7 1.4H28l-1.6.3q-1.9-.4-3-1t-1.6-1.9q-.4-1.2.2-2.2t1.9-1.4l4.2-.4q3-.2 3.3 1.5m-22.6 21h1.1l2.8-.4-2.8.4zM27 68.8l-1 .8-1.1.8 1.2-.8zm17.4 2q-.5 2-2.7 3.6 2.1-1.6 2.7-3.6"/><path fill="none" stroke="#423213" stroke-linecap="round" stroke-linejoin="round" stroke-opacity=".5" stroke-width="__RESOLUTION__" d="M11 18.8q3.4-5.5 6.5-5.5 3 0 4.5.6l.3-1.4q.4-1.3 1.4-2.3 1.7-1.7 4-1.7 1.8 0 3.1.9.6-2.4 2.4-4.1 1.2-1.2 2.6-1.9 1.9-.9 4.1-.9 3.7 0 6.3 2.4l1.5-1.8 1-.7L51 1.1q1.8-.7 4-.8h.6Q60 .3 63.3 3l.2.1q1.2 1 1.9 2.2l.1.1q1.3 2.1 1.3 4.7v.3l-.3 2.1m-1-7.2h.3q3.3 0 5.6 2.5l1.1 1.5.1.2q1 1.8 1.2 4 1.5.3 2.9 1.3l1.2 1.2.2.2q2 2.6 2.2 6.3l.4 4.1q.1 2-.8 3.6l-1.4 1.6-.1.1-.5.3-.2.1.2.1.3.1 2.3 1.3 1.8 1.5.5.4.9 1 1 1.3.2.4q2.4 6.4.4 8l-1.6 1-1.9.6 1.1 1.4h0l.8 1.8-.1.9q-.6 2.3-2.7 3.5-1.5.9-3 .8.5 2.3-.1 4.8-.5 1.6-1.3 2.8-1.2 1.8-3.2 2.8-2.5 1.5-5.1 1.4l-.5.3q-5.9 2.8-16.5 1.1l-1.7-.3m-7.8 5.2q-1.2.8-2.5 1.3-2 .8-4.5.8H34q-2.7-.2-4.8-1.2l-1.6-.9q-2.5-1.7-2.8-4.1-2.6 1.4-6 1.4h-.5q-3.9-.1-6.7-2.2-2.5-1.8-2.9-4.3Q6 65 4 63.3q-2.3-2-2.3-4.9l.1-1.4.2-.6q.5-1.6 2-2.9h0q1-.9 2.3-1.4l1.2-.8L9.8 50q-3.2 1.6-8.2-.5-1-1-1.2-2.2l-.2-1.1q0-2.6 2.4-4.4l1.6-1 .5-.1.3-.2v.1l.4-.2h.3l1.5-.3 2.2-.5Q4 38.2 2.4 34L2 32.8l.7-2q.6-1.2 1.8-2.2 1.6-1.5 3.8-2l2.6-.4h.1l.7.1h.3l-.1-.2-.1-.2-1-1.9q-.3-1.2-.3-2.5 0-1.2.4-2.5l.1-.3m62.8-5.2-1.5-.2-1.2.1-1 .2M45 7.1q.4-1.2 1.1-2.2m31.5 27.5-1.1.5-.7.1m5.9 15-3.1-.2-.6-.1m-.2 8.7-1.3-.2q-1.5-.4-2.5-1.4M30.8 9.4l1 .8q1 1 1.4 2.4M12 26.3l1.5.2.7.2M22 14q1.4.5 2.6 1.7l.3.4M12.7 64.9l-2.8.4H8.8m16 5.1 1.3-.8.9-.7m14.7 5.6q2.1-1.6 2.7-3.6" vector-effect="non-scaling-stroke"/></g><g id="c"><path fill="#e4ce7b" d="m30.6 1.2-.7.3-.7.3-.1.1-1 .1.5.2-.7.3-.5-.2-3.8 1.8-.2.1-2-.9L27.9.1zm-9.2 2.1 2 1 .2-.2 3.8-1.8.5.2.6.3 1 .5h-.1l-4.2 2.1-1.6.8-.3.2-13.4 6.7-.3.2-1 .5-.3.1-.4.2-.4.2-.5-.2-1.6-.8.3-.2L8 11.9l.5-.2.8-.4.4-.3-3.3-.8-6.1 3L.2 27v3.7q.6-.9 1.2-3.7.4-3.2.7-8.9V14h1.3l2-1L8 11.7l-.7-.2h1.1l.7-.4h.7V11L21 5.4l.4-.2zm8.6-1 .6-.3h.4l17 8.4h-.5l-.4.3-.6.2h-.2zm-.4 1.1 1 .4.4.3 2.4 1 .5.2v.1l.5.2 8.7 4.2 2.6 1.3.2.2-.7.4-2.1-1-.2.1h-.1l-1.5-.9L34.4 7l-.8-.3-3.1-1.3-.9-1.9m13.3 7.3h.1l.8.2 1.3.7-3.4 1.8 2.1 1.2-.2 5.1h-.1l-1.3-3.3-.5-2.2v-.8l-1 .4-6.5 4h-.4v.1l-.6.2-2.5.8-.5.2-1 .4-.7-.2L43.8 11l-15.3 8.4.7.3h-.1l-.6-.3-.4-.1-6.2 2.3-.3-.1 3.8-2 3.3-1.7.2-.1.5-.3.4-.2h.2l1-.7 1.4-.6 1.3-.6 2.1-1 1-.5 1.5-.8 1.1-.5 1.8-.9.8-.3.8-.5zm.5-2 2.3 1h.3q-.5-.5-4.6-2.5-7.7-3.5 1.7 1.3zM21.6 21.5l.3.1-.2.1v1.5l-.1.4V25l-2.1-1.3-.5-.2-.5-.3-.1-.1h-.1l-1.3-.8-1.1-.5-2.5-1.3-1-.4-1.2-.5-.2-.2h-.3l-1.3-.6H9l-.3-.2-3.9-1.8-.1-.8v-.9l-.9-.4q-.2-.1 0-.3l1.5-1 1.6.7.5.2 1.3.7 1.6.7 1.6.8 1 .5.2.1 1.2.6v.1l.3.1 1 .5.8.4 2.5 1.3 1.2.6 1.3.7h.2l.9-.5-1 .5zm7.6-1.9h.1v.1zM24 23l-1.9 21.2-.4-.2h-.1v-1.6l-.1-3.5V23.6l-1.4-.8-.7-.3h-.1l-1.3-.7-1.1-.6-2.6-1.3-.8-.4-1.1-.6h-.3l-.1-.2-1.2-.5-.2-.2-4-1.9-.8-.4-1.2-.6 1.2.6.8.4 4 2 .2.1 1.2.5.1.1.3.1 1.1.6.8.4 2.6 1.3 1 .6 1.4.6v.1h.1l.7.3 1.4.8v-1l.1-.9zm-.7-18.9-1.1.6-.7.3.7-.3zm-23 9 1.8.8zm13.3 5 .2.1 1 .6.7.4 2.5 1.3.5.4.2.1.3.1 1.5.6v.1h.2q1.3.6.2 0v-.1h-.1l-1.3-.8-1.1-.6-1.6-.9-.9-.4-.7-.4-1.2-.5zm-2.8.6L4.7 16zm10.8 2.7"/><path fill="#8b6d25" d="M29.1 2v-.2l.8-.3.7-.3V2l-.6.3-1.5.5.2-.4zm-1.2.5.8-.3L28 2h1l-.5.2.1.2-.2.4zm2-1 .7.3zM10.4 15.7l.2-.2q2.6-2.7 12.7-7.3h.3l2.3-1.1 2.9-1.2V6l-5.2 3.5-.3.1q-8.5 5.6-11.1 6.8l-.2.1zm6.5-.5.9-.5.7-.3 5-2.8.4-.2 3.6-2q.7-.5 1-.3l.3.1-1.4 1.1-.7.6-.8.5-2.3 1.3-.5.3-.7.4-.2.2-3.1 1.8-.9.4-.7.4-1.5.7-1.4.6v.1l-.2.1-1.2-.6.2-.1zM29.5 9l-.1-.2h-.2l-.4.2V7.5l.6-.7.1-1.7 1 .3q1.1 1.7 1.4 3.3V9l.9 2.2zV5.1zm-1.3-2 .6-.6v.2zm13.5 7.3.5 2.2 1.3 3.2v.1l-.7 15.5-.7-.5-.4-.2-.1-1.3-.1-4-.1-.9V17.7l.2-2.4zM33.8 18h.6l-1.3.5zm-1.4-2-1.3.5H31l-1.5-1.2v-1.6l1 .7h.1l1.8 1.4zm-2.1 4 .3.1zm11.2.8v.8l-2.1.9-1.6 1V23l.1-.4L41 21l.2-.1.1-.1zm0 6.9v1.7h-.3q-5.2 2.1-9.3 4.3l2.7-2.6 2.2-1 4.5-2.2v-.1zm.3 6.8.4.3v.1l-.4-.2zM33.2 12l-.5 1-3.2-1.3v-1.4zm0 2 .5 1.2-1.3-.9q-1.4-.9.9-.3M31 23.4h.1zh-.2v.1zm-.1.8-.1-.1zm0 1.8v.2zl-.2-.2.1.4zv.2zm0 0 .1-.1zm.2.2v.8H31zm0 5.7H31zv-.1zm0-.4.1.3zm10.2-9.3v.2zm.2-1-2.1 1.1-1.6.8 1.6-.8zM31 37.4v.3h-.2zm0 1.1.1.2v.8zl-.2-.3zv-.9zm1.4.4 8.8-5.3v.6L35 38zm5-8.7 4-1.8zM29.4 7l-.2 1.7zM31 38.7v1.2zm-27.3-23v-.9l.9.4v.9zm0 7.6v-.7h.1l2.8 1.3.2.9-3-1.3zm0 7.2v-.9l.1.1v.1L9 31.9l.3 1-.6-.2-4.8-2.2z"/><path fill="#d1bb6f" d="M29 2h.1m-.6.8 1.5-.5 16.3 8.5h-.1l.2.2-.5.3-.2-.2-2.6-1.3-8.7-4.2-.5-.2-.5-.3-2.4-1-.4-.3-1-.4v-.2l-.1.1zm17.4 8.5.5-.3h.1l.2-.1 1.1-.4h-.2l-.5.2-.4.2 1.1-.4.7.3h-.1l2.1 1-.6.4-1 .2-1.2.1.6.2-3.1 1.6-1 .5-.4-.1-2.1-1.2 3.4-1.8h.1zm2.5 1.4-.7-.2h1.1zm-4.7.5.1.1zm-21.8 8.3 6.2-2.3.4.1.6.3h.1l.2.5-.2-.6 1 .3.8.3-.7.4-.7.5-.6.2-3.1 1.2-1.3.7h-.1l-.4-.1-2.4-1.4zm8.7-1.8.2.1zm17.3-9.5.5.3zm-40 1.2-.7-.2h1.2z"/><path fill="#c09143" d="m29 2-.3.4v-.2zM13.3 16.9l.8-.4 2.8-1.3-3.4 1.8zM29 10.1l.4.2-.2.2zm14.3-1.3-.3-.2q-9.5-4.8-1.7-1.3 4.1 2 4.6 2.5h-.3zm-10.5 2.4 4 2.5-3.6-1.7zM30.9 26v.2zm-1.1 1.6V29zm1.2 4v-.8zv.2zm0 .3v.6zm5.6-2 .1.1-2.2 1zm-5.9 8.3.1-.1.2-.5-.2.5zm.2 1.3v.3zM9.1 11.1h.7l-.6.2zm-.6.6-.5.2v-.2l.4-.3zm-.6 18.8-.1-.7.6.4 3.8 2.5zM16 17l-1.3.7h-.1zm-1.4.7-.2.2h-.2l.2-.1zm-.9.5.3.1 1.2.5.7.4.9.4 1.6.9 1.1.6 1.3.7v.1h.1q1.1.7-.2.1h-.2l-1.5-.7-.3-.1-.2-.1-.5-.4-2.5-1.3-.7-.4-1-.6zm1.5 7.8 2.2 1 1.4.6 2.8 1v.4l-.9-.3-3.5-1.6zm-2.3-9h.4l-.2.1h-.3M17 28.2l-1.4-.7 4.4 1.8 1.4.4v.7zm-5.2-2.6-4.6-2.3-.7-.3h-.1l-1.3-.7-.2-1.4.2.1 6 4.2.5.2zm4 8.8q1.7.9 3.6 1.5l2 .8v.6zm5.7 1.4-1.7-.7-4.7-2.3 2.9 1.3 2.9 1 .3.1.3.1zM19.3 42l-4.2-2.2 4.2 1.9 1.6.5.7.3v.4l-1-.4h-.2zm1.3.5 1 .4h-.1z"/><path fill="#cbab60" d="M29.5 3.3v1.8l-.8.3h-.6l-4.6 2-.2.1q-6.6 3-13.4 6.8l-.2.1-.6.4-.3.1-1.3-.6.4-.2.4-.2.3-.1 1-.5.3-.2 13.4-6.7.3-.2 1.6-.8 4.2-2zM32 9l2.4 1.6q1.9 1.3 3.9 2.4h-.1.1l-1.5.8h-.1v-.1h.1l-4-2.5zm7.4 3.5h-.1zl-.2-.2q-1.9-1-4.8-3l-1-.8h-.2l-.2-.2-.9-.6q-1.6-1.1 1.3-.2l2.1.8q3.5 1.2 5.8 2.6l.6.4h-.1l.2.1-.8.3zM30 17l-.2.1h-.2l.1-.1h-.2v-.3l.4.2zm-4.4 2.4-4 2 1-.6.3-.2h.1zm15.9 8.1-.1.1h-.1zm-16.9-4.4h.1zM31 34v.4zM8.4 11.4l.7-.3.2.2-.8.4zm-5 10 .2-.1v.1h.1v.2zm.3.2 1.4.7.2.1.2.1.9.4-1.3-.6H5zm5 9.5h-.2l-1-.5h-.2l-1.1-.7H6l-.2-.2-1.7-.8h-.3v-.2h-.1v-.3l.1.1v.1l3.9 2 4.3 2.1-3.8-2.5-.6-.4-.3-1.8.1.1.2.1.5.3.4.3.7.5.6.4 4.1 2.6 1.2.6 4.7 2.3 1.7.7v.9l-2.1-.7q-1.9-.7-3.6-1.6l-.6-.2-.4-.2-2.8-1.4 2.8 1.4.4.2.6.3 5.7 2.8v.3l-.4-.2-2.1-1.2-5.9-3H13l-1.2-.6-.2-.1-1.3-.7q-.6.1-.7-.2zm12.8-.6h-.2l-1.2-.7-1.3-.6-1.1-.6-.7-.4zM7.4 23.3l-.4-.1-.3-.2zm12.1 18.8 1 .4z"/><path fill="#d0b86e" d="M29.5 3.3h.1v.2l.9 2-1-.4zl.1.2v.7l-.1.5v-.5l.1-.7zm7.2 10.5-1 .4-3-1.2.4-1 3.5 1.7m-6.9 3.5-.4.2v-.2h.1V17zh-.2zm-1 .5h-.2zm.4-7.2h-.3v-.1zm-4.6 34.7-.1.1v-.1m-21-30.8h.4zM9 31.9l-.2-.7 1 .4q0 .4.6.3l1.3.7.2.1 1.2.6h.1l5.9 3 2.1 1.2.4.1V39l-2.1-1.2q-3.9-2.3-7.5-3.9h-.2l-1.2-.6h-.3l-1-.5zm12.6 0h-.2l-2.2-1.4H19l-1.4-.8-1-.6-2.2-1-.3-.2-.8-.4-1.2-.6-.6-.2-.4-.2-.3-.1-.5-.2-.7-.3-.3-.1-.7-.3-1.9-.8-.2-.9-.1-.9.1.1.3.2.3.1 4.7 2.3 3 1.5.4.2.2.1.2.1 1.4.7.6.4 1.2.6 1.3.6 1.2.6.2.1zm-5.9-4.4h-.2z"/><path fill="#674f1f" d="m8.8 15 .3-.2.6-.4h.2q6.8-3.9 13.4-6.9l.3-.1 4.5-2h.6l.8-.3-.1 1.7-.6.7V9l.4-.3.2.1.1.2v1.4l-.4-.2q-1.4.2-2.4.8l.8-.6 1.3-1.1-.2-.1q-.4-.2-1.1.2l-3.6 2.1-.3.2-5.1 2.8-.7.3-1 .5-2.7 1.3-.8.4-.3.1-1-.5.2-.1q2.6-1.2 11.1-6.7l.3-.2L28.7 6v-.1L26 7.1l-2.3 1.1h-.3q-10.1 4.6-12.7 7.3l-.2.2zm18-4q1-.6 2.4-.8l.1.4H29l.3.1.3-.3V8.9l3.3 2.3.4.8-3.7-1.7v3.4-2l3.3 1.3.5 1q-2.3-.6-.9.3l1.3 1h-.1l-1.2.6v-.1l-1.8-1.4-1.1-.7v1.6l1.6 1.1-.1.1-1 .6H30V17l-.4-.2v.4h-.1v.2l-.5.3-.1-.1v.1h-.2v.1l-3.2 1.7-2.5 1.2h-.1l-.3.2-1 .5-1.3-.7L19 20l-2.5-1.3-.7-.4h-.2l-1-.5.3-.1 1 .5-.2.1h.2v-.1l-1-.6 4.2-2.3 3-1.8.3-.2.7-.4.4-.3 2.4-1.3zm1.4-4 .6-.4v-.2zM5.4 36l-1.2-.5-.1-.1H4v-.7l.3.8-.3-.7-.1-.3.1.3v.6l-.1.1-1.5.2v-.1q1 .4 1.1-3.2v-2.1l.3.2-.4-.2v-.9l.4.2v2.8l-.3-.3v.3-3h-.1v1l.1 1.7.3.3.1.1v.4l.1.1 1 1.8.9.8.6.5.6.4 1.6 1.1q-1.2-.7-3.3-1.6m39.8-21.5 3.1-1.7.7 4.7v2l-.4 5.7-.2 1.5-1 5.5-.4 2-2.4 1.6.1-12.4v-2.6l2-3.2h.8l-2.1 3.7v1.5l.2 3.5v.1l.3 2.3q0 1.1.3 1.5v.4l.3-.1v-.2l.8-4.7V25l.1-.3v-.3l.6-6V17q-.1-2.3-1.1-1.6l-.1.1-.1.1-.5.6v.2zm-15 5.5.4.1zh.3zh.3l.1.1h.3v.5l4.5-2.5 6.2-3.7-.1.9-6.1 2.7h.3l-.2.1h1.6l.3-.1q2.8-1 1.1 0H41l.5-.2v1.6l-.3.1v1.2l.2-.1v.3h-.2l-.2.2-3.2 1.5-.1.4v.3l-.6.4v.1l-.4.1-.4.2-1.2.4-3.9 1.4-.1-1.3-.1.9v-1.9h.1-.1v-3l-.7.1-.7.5-.6.2.6 6 .1.3h.1V29l-.3 4.3-1.3 9-.4 1.7 1.6-.7.4-1.8v-.2l.2-1.2v-.2l.7-5.4v-.3l.1-.1v-.9.3L31 32h-.1.1l-.3-.2.4-.3-.4.3.3.1h-.1v.1h.1v-.4l.1-.8v-.4 1.1h.1l1.4-.8 8-4.6.9-.4v-3.4l-.1.1-.1.1v-.2l-1.9 1Q35 25 31.2 27H31v-.6l-.1-.5v-2.4.1l-.2.3v.2-.2l.2-.3h-.2l.2-.1v-3l-.7.1.7-.4-.1-.1h-.1.2-.4.4zm11.1 5.8v.7l-.2.1v.7L36.6 30l-2 1.1-2.8 2.5-.5 1q2.3-1.2 6.2-2.9l3.7-1.6v1.1l-9.9 6.1-.3.1V36l.1-.6v-.5.2l-.1-1.4v.6l-.1-.5v-.2l.1.1v.6-3.4.7h.1l1.4-.8 8-4.6zm1.4 9.6.8-15.4q.4-.4.6 2l-.1 2v3l.1 8.9zm-23.6-20L15 17.7l-.3-.1 1.3-.7 1.5-.7.8-.4zm9.6-3.1-5.1 2.3q-3.8 1.7-7.6 3.7 3.8-2 7.6-3.7zm.1 4.2v-.2zm.7.2v-1.5zm-.3 2.9.2.5zm1.8 5.7v-.9h.1l.1 1.3V27H31v-.6l-.1-.5zv-1l-.1-.2h-.1v.1-.1l.2.1zm5.7-1.6.4-.1-.1.1zm.4-.2.6-.4v.1zM30.9 26l-.2-.2.1.4zm.1-.1v.2zv.8zv-1.6zm0 .3v.8-.1h.1zm0-.4v.3zm0 3v1.5l10.2-6.2v-1l-4 1.7-6.1 3.8zV27zm-4.2-3q.2-.9.6-1.4 1-.6 1.3.9v1l-.5 7.4v.2l-.2 1.4-.6 4.1-.1.5q-.2.5-.4 0l-.4-3.7v-.1l-.3-3q-.2-.3-.1-.7v-3.8l.3-1.3zM31 27v-.6l-.1.5zv-.6zm0 4.7v1.2-.3.3zm0 1.2h.1v-1.3H31l.1.7v.6m-.1-1-.1.1m0 0v-.4zm.1 5.8v.8zm.3-3-.2.6zm-.2-2.2v.3zM3.4 14l2-1 .3.1-.3.2-.2.1-1.5 1h-.3zm2-1L8 11.7v.2l-2.2 1.2zm-2 1.5h.4q-.2.1 0 .2v.9l-.4-.2v-.2zm0 .9.4.2v.8l-.4-.2v-.4.4l.4.2v-.8l.9.4.1.8-1-.4v3.5l.5.4.5.4.2.2.2 1.4H5l-1.3-.6v-.1l-.3-.2v-1.7l-.1-3.9zm.2 5.9-.2.1v1.8h.4-.4v3.2-3.2 5l.2.1-.2-3.4.4.3-.4-.3.2 3.4h-.2v.2l.4.2v-6.2l-.4-.2v.8-.8l.4.2 2.8 1.3-.1-.9-.9-.4h-.2l-.2-.2-1.5-.8zl-.2-5zm-.2.1v.9zm.4 7h-.2l-.2.1.2-.2zv-3.2.1l.1.1 1.6 1.3.7.4.4.3.7.5v.1l.4 1.8.1.7-3.9-1.9v-.1zm11-10.7-.2.1-.2-.1.2-.2zm-11 4.8v-.8zm0-1v-1.6zm0 12.5v-1.6 1.8zv.1-1.7zm-.3-1.6.3 1.5z"/><path fill="#c7a961" d="M28.8 16.4v-.2zm-21.7 10v-.1z"/><path fill="#63521f" d="M50.6 11.8V17q-.1-1.6-.7-4.8zm0 10.5v10.1l-1.8.8 1-4 .5-3.6zm-9-3-.1 1.2-.2.1v-1.2zm-.1 7.1v1.3l-.2.1v.1l-4.5 2.3-.1-.2 4.6-2.8v-.7zm.2 7v1.2l-.4.2-6.2 3.1 6.2-3.6v-.7h.1zm-4.5-9.6.1-.1h.1l.4-.2-.5.2h.1zM41 21l.2-.2v.1zM29.4 43.3l.4-1.8v-.2l.2-1.2v-.2l.7-5.4v-.3l.1-.1v-.9.3L31 32v.5h.1v1.1H31v.6l.1.1v-.6 2.2-.9l.1.3v-.5 1l-.1.1v1.5l-.2.3h.2v.9l-.2-.3.2.3v1l-.2.1.1.1.1.1v2.7zm19-30.5.5-.3.1 5v2-2zm-6.7 21.8-.5.3zM31 34.2h-.1v-.5.5m.1.8v-.7zm-.3-.6.1-.4zm.3 3.3-.2.4v.1-.1zm0 1.7v-.8zm0 .4h-.1l-.1-.1.2-.1zm0-.9v-.3zM3.4 28.6l.4.2v.8l-.4-.2zv.8zm.4 1v-.8H4v.1l.1.1h.2l1.7.8.2.1.2.1 1.1.6.2.1 1 .5h.2l.2.8L4 29.8v-.1zm6.3 5.9-.5-.4-.4-.2-.8-.6-.3-.2-.9-.6q-1.6-1.2 1.3-.2l1 .4z"/><path fill="#785825" d="M50.6 17v5.3l-.4 3.3-.5 3.5-1 4.1-1.7 1 .5-2 .9-5.6.2-1.5.4-5.7v-2l-.1-5 1-.2q.6 3.2.6 4.8M2.4 35.6l-.3-.2V14h1.3v.5h-.1v.7l.1.2V32l.1.3q0 3.6-1.1 3.2m41.8-20.7 1-.5 1 2.1v-.2l.5-.6.1-.2q1-.7 1.2 1.6v1.3l-.5 6.1-.1.3v.3l-.1.2v.3l-.7 4.7-.1.2-.2.1-.1-.4-.4-1.5-.1-2.3h-.1l-.2-3.6v-1.5l2.1-3.8-.7.1-2.1 3.2v2.6l-.1 12.4-.4.2-.1-8.9v-7.2l.1-4.7zm-2.6.4-.1 2.4-.5.3h-2.4q1.6-1-1 0h-2.1zm-.2 6.3v.8l-.1.1h-.1l-1.9.8Q35 25 31.2 27v-1.2l3.8-1.4 1.4-.4.3-.2h.3l.3-.2.4-.2 1.6-1zm0 7.8.2 4-.3.3h-.1l-8.9 5.3-.4.3-.4.2-.4.1v-1.9l-.1.1v-.3l.4-.1 9.8-6V30l-3.7 1.6q-3.9 1.7-6.2 3l.5-1q4.1-2.2 9.3-4.3zm-16.9-6.2 1.3-.7 3.2-1.2.5 6 .1.3V29l-.2 4.3-1.3 9-.4 1.7-1.7.7-.7.3-.8.3h-.1v-3l-.1-10.7v-1.3l.1-7zm6.4 7.2V29l.1-.2 6.1-3.8 4-1.7v1zM26.8 26l-.4 1.5-.2 1.3v.4l-.1.3v3.1q-.2.4 0 .7l.3 3v.1l.5 3.8q.2.4.4-.1l.1-.5.6-4v-.1l.2-1.4v-.2l.6-7.4-.2-1q-.2-1.5-1.2-.9-.4.5-.6 1.4m-1 12-.2-2.6V35l-.2-3.9v-1.2V31l.2 4v.3zm.2.5.2 6.4zm-1-2.1.5 8.8zm-21.2-11v-1.7l3 1.3.1 1.1h-.2v.2l.4.3v.1l.3 1.5h-.2l-.6-.5-.4-.3-.7-.5-1.6-1.2v-.2zm0 7v-1.8h.1v.1l4.8 2.1.6.2.3.9-1.1-.4q-2.9-1-1.3.2l.9.6.3.2.8.6.4.3.5.3.4 1.7.4 1.5-.2-.1-1-.5-1-.6L7 36.4l-.6-.4-.6-.5-.8-.8-1-1.8-.1-.1v-.3zm0-14v-1.9l1 .4.1 2.4zl1.1.9L5 21l-.2-.2-.5-.4-.5-.4z"/><path fill="url(#a)" d="m26.8-6.7.9.4q10.1 4 12.3 9.8 2.1 5.7-4.9 9.8-7 4-19.2 4-12 0-22.1-4-10-4.1-12.2-9.9 2.1.9 3.2 1.6l1 .5 1 .5.3.2 8.5 3.4 1 .4.3.1.9.3.1.9v.2l.6.3 2.2 1 .9-.3.7-.3 1.7-.7 1.6-.7 1.6-.7V6v1.3l.1-.3.4-.2.4-.1.5-.4 2.6-.9 6.3-3.2.4-.1.4.3v-.1l.6.4h.1l1.4.6v.1l.4-.2 2.4-1.6 1.7-1 1.9-.7zm-41 12.3.3.2.8.3-.7-.3z" transform="translate(23.8 32.55)"/><path fill="#a48848" d="m2 35.3-1.6-.9-.2-1.9v-1.8q.6-.9 1.2-3.7.4-3.2.7-8.9zm-.4-9.4v-1.1z"/><path fill="#ac8733" d="m30.5 5.4 3.1 1.3.8.3 6.9 3 1.5.7-.1.1h.1l-.8.5h-.2l.1-.1-.6-.4Q39 9.4 35.5 8.2l-2.1-.8q-2.8-.9-1.3.2l.9.6.2.2h.1l1.1.8q2.9 2 4.8 3l.2.2h-.1l.1.1-1.1.5h-.1.1q-2-1.1-3.9-2.4L32 9l-.1-.3q-.2-1.6-1.4-3.3m11.2 8.1v.8l-6.2 3.6v.1L31 20.5V20h-.4l-.3-.2v.1l-1.1-.2 1-.5.6-.2 2.4-.8.5-.2-.7.5 1.3-.6 6.4-4zm1.8 6.3.4-5.1.3.1v7.1q-.2-2.4-.7-2M36 14.2l-2.2 1.1h-.1l.1-.1-.5-1.2-.5-1 3.1 1.1v.1"/><path fill="#a2833e" d="m24.5 23.2-.1 7.1v12.4l.1 1.4v1.2l-2.2-1L24 23.1zm-14 14-.4-1.7.3.3q8 5.5 9 4.6.3-.1.2-.6l-.1-.2q-1.3-2.5-8.3-5.3l-.3-.1h-.2l-1.1-.5-.3-.9 1 .5h.3l1.2.5.2.1q3.6 1.6 7.5 3.9l2 1.3.2 3.4-.7-.2-1.6-.5-4.2-1.9-4.1-2.4z"/><path fill="#9f7d2f" d="M7.4 27.9 7 26.4h.1l.2.2.4.2.5.3.3.3.4.3.3.2.4.3 1 .7.4.3.6.3 1.9 1.3.9.5.1.1 1.1.7q2.5 1.4 3.4 1.4.7 0 .4-.8L19 32l-1-1-1-1-1-.6-2.4-1.2-1-.4-1.2-.6-.7-.2-2.2-.9h-.1l-1.5-.4-.1-1.1 1.9.8.7.3.3.1.7.3.5.2.3.1.4.2.6.2 1.2.6.8.4.3.1 2.2 1.1 1 .6 1.4.7v.1l2.3 1.3.2.1v3.5h-.3l-.3-.1-3-1.1-2.8-1.3-1.2-.6-4.1-2.6-.7-.4-.6-.5-.4-.3-.5-.3h-.1l-.1-.1zh-.2zm-2.4-7-.1-1.7 1 .7.5.4.7.5.5.4.3.1.7.6 4.6 2.9.4.2 1.6 1 2 1 3.5 1.6.9.3v.8l-1.6-.4-4.3-1.8h-.2v-.1h-.2l-.4-.2-3-1.6-.2-.2-.5-.2-6-4.2zm5.9 17.7-.4-1.5.6.3 4 2.4 4.3 2.2z"/><path fill="#ab8a41" d="m7 26.3-.2-.3-.1-.2h.2l1.5.4h.1l2.2.9.7.2 1.2.6 1 .4 2.4 1.2 1 .6 1.1.8 1 1.1.4.7q.3.7-.4.8-.9 0-3.4-1.4l-1.1-.7h-.1l-1-.6-1.8-1.3-.6-.3-.4-.3-1-.7-.4-.3-.3-.2-.4-.3-.3-.2-.5-.4-.4-.2-.2-.2zm.5-6.6-.4-.3q-1.5-1 .8-.2h.5v.1l2.2.8 1 .4 1 .4 2.6 1.3 1 .5.8.5.3.2.1.1.6.4.8.8.4.4.2.4v.2l.1.4-.1.3-.8.1-1.2-.5-.7-.3-1.1-.6-.5-.3-.2-.2h-.1l-.5-.3-.6-.3-.2-.1-.8-.6-1.8-1.2-1-.7-1-.7-.2-.2-.4-.2z"/><path fill="#b99646" d="m4.8 16.8 3.9 1.8.3.1.4.1 1.3.5.3.1.3.2 1.2.5.9.4 2.5 1.3 1.1.5 1.3.7v.1h.1v.1l.6.3.5.2 2 1.3v3.4l-2.7-.9-1.4-.6-2.2-1-1.6-.9q-.3 0-.4-.2l-4.6-2.9-.7-.6-.3-.1-.5-.4-.7-.5-.5-.4-1-.7zm2.8 3 .8.5.3.2.3.2 1 .7 1 .8 1.8 1.1.8.6.2.1.6.3.5.3.3.2.5.3 1 .6.8.3 1.2.5.8-.1.1-.2v-.5l-.1-.2-.2-.4-.4-.5-.8-.7-.6-.4h-.1l-.3-.3-.8-.5-1-.6-2.6-1.2-1-.4-1-.4-2.1-.8h-.1L8 19q-2.2-.8-.8.3zm2 14 1.1.4.2.1.3.1q7 2.9 8.3 5.3v.1q.2.5 0 .7-1.1.9-9.1-4.6l-.3-.3z"/><path fill="none" stroke="#000" stroke-linecap="round" stroke-linejoin="round" stroke-opacity=".5" stroke-width="__RESOLUTION__" d="M29.1 2v-.2l.8-.3.7-.3L27.7.1l-6.2 3.2 1.9 1 .2-.2 3.8-1.8.5.2.8-.3L28 2zl-.4.4-.2.4 1.5-.5.6-.3v-.2l-.7-.3m-2 1 .6.3 1 .5h.1v.9l-.1.5V5h0v.1m16.4 6.1.5-.3h.1l.2-.1 1.1-.4h-.2l-.5.2-.4.2m-18-8.5v-.2L29 2M8.8 15l.3-.2.6-.4h.2q6.8-3.9 13.4-6.9l.3-.1 4.5-2m1.4-.7V3.3h0l.1.2m-.1-.2h-.1M13 17l.3-.1.8-.4 2.8-1.3.9-.5m8.9-3.8q1-.6 2.4-.8l.4.2V5.1l-.1 1.7-.2 1.8M30.6 2h.4l17 8.4m-.1.1.6.3m-.1 0 2.1 1v20.6l-1.8.8-1.7 1-2.4 1.5-.4.2h0l-.1-8.9v-5M5.5 36l-1.2-.5-.1-.1h0l-.2.1m0 0-1.5.2v-.1l-.3-.2-1.7-.9-.2-1.9V31m0-.3V27l.1-13.8 6-3 3.5.8h0L21 5.4m0 0 .4-.2h0v-2M43 10.8h.1l.8.2 1.3.7-3.4 1.8h0l2.1 1.2.4.1h0l1-.5 3.1-1.6-.6-.2h1.1l1-.3.8-.4m-5.4-.1.7-.4m-7.6 1.8 1.1-.6 1.8-.9.8-.3.8-.5h.1m-3.5 1.6-.2-.2m-5.9-3.8-.2-.2m-2.4-7v.6m11 11.7v1.7l-.1 2.4v1.7l-.1 1.2v7.2h0v1.7l.2 4v1.1l.5.3.6.5h.1l1.4.6M28.5 19.4l.7.3h-.1.1l1 .2.8.3V20h-.4l-.3-.2v.1h.3l.1.1h.1m6-6.2 1.5-.8m-1.6.7-1 .4-2.1 1.1-1.3.6-1.3.6h0l-1 .6-.2.1-.4.2-.5.3h0-.2m0 .1-3.2 1.7-4 2 .4.1M31 20v3.3h.1m5.6-9.8L33.3 12l-3.7-1.7-.2.2-.1.1h0-.3v-.1h.3l-.1-.4m12.4 7.5-.5.3m.2 2.7.2-.1m-11.9-6.8v-3.4m-2.8.6-.8.5-2.3 1.3-.5.3-.7.4-.2.2-3.1 1.8-4.1 2.3m1 .6q3.8-2 7.6-3.7l5.1-2.3m.1 4.2v-.2zm-.2 1.1.1.1h.2m1-.7-.4-.2v.2l.3.1m-.2 0 .2.1m-.3-1.9v1.5m0 .4V17m1.1 3 .4.1h-.2m-.2 0-.4-.2m.8.1-.1.1m-1.8 1.2.4-.2.8-.5.7-.4h0m-1-3L30 17m-.4-1.7v-1.6m1.5 9.8v1.9-.9h.1l.1 1.3 3.8-1.4 1.4-.4.3-.2.4-.1h0l.6-.5v-.3l.1-.4L41 21l.2-.1m0 0 .1-.1h.1M30.8 24v-.2l.2-.3h0m-.1.7-.1-.1h0zv2l.1.6h0l.1-1.2m-.4.5v-.2l-.2-.2zl.1-.2h0l.1.1h0zm.1-.3v-1.6M31 27v-.8h0zh-.1v-.8m0-.3v.2m0 0V26zm.2.1V26m-1.2 1.7V29zm-2 16.4 1.6-.7 1.6-.7v-4.1h0m-.2-4.3v-1 .6l.2.4v-.6.7h0V34m-.1-1.9h-.1zl-.3-.2.4-.3V27m-8.7 17.3 2.2 1v.1h0l.9-.4.7-.3 1.6-.7m3.3-17H31v-.6zm0 3.8v.7h.1l1.4-.8 8-4.6.9-.4M31 31.5v.3-.2h0v-.9m0 .8v.3h0v1-1.2m0 0v-.2l.1.8v.6m-.1-1-.1.1zh.1v-.2m.1-.2-.1.3m10.4-9.5h.1m-.2 0-1.9.8q-4.5 2-8.3 4m10.2-5.6-2.1.9-1.6 1-.4.2-.3.2h-.3m1-.6 1.6-.8 2.1-1.1m-3.6 2v-.1M34.5 31l2.2-1 4.5-2.3m0-.1.2-.2m-.2.2.2-.1m-9.6 6q4.1-2.2 9.3-4.3h.4m-10.5 8v.3h0m0 .9.1.2v.8l.4-.2.4-.2.5-.3 8.8-5.3h.1m.1-5.2-4 1.8m11-19.4-.5-.3m-2.7 1.2h-.1m3.8.7-.5.3m-2.1 17.8.2-.1m-4.8 4.1.4.3m-7.1 3 6.3-3.1.4-.2m0 0-.5.2m-10.2-2V32m0 1.6v-1m-.1 1.1v.5h0m.2 1.1V35H31v2.4m.1-2.6v.2l-.1-1.4m.1 1.7.2-.6.5-1 2.7-2.6M31 34.4v.8m-.2-1-.1.4m.3 3.3v-.1m0 .9-.2-.3v-.1l.2-.5m0 0v.9l.1 1v.2m0-1.2-.1.3v.5m0 .5v-.1h-.1l-.1-.1.2-.1v.2m0-1.2v.3m4-1-2.6 1m-1.3-6v-.4M21.4 5.2l.8-.4 1.1-.6h0M5.4 13l-1.9 1h0v.4h0m0 0h.4l1.5-1 1.6.7.5.2 1.3.7 1.6.7 1.6.8 1 .5m-7.5-4L8 11.7l-.7-.2h1.1l.7-.4h.7l-.6.2-.7.4-.5.2-2.2 1.2-.4.2m-2 1.9v.2l.4.2v-.9q-.2-.1 0-.3m-.4 1.3v.4l.4.2v-.8l.9.4m0-.9-.9-.4h0m-.4.7v6l.2-.1-.2-5m0 6.8h.4v-.7h0l-.4-.2zv-1.7h.1l.3.2h0v-.2h-.2v-.1m-.2 1v-.9m0 5v-3.2zv1.8l.2.1-.2-3.4.4.3v-.6m-.4 3.9v.8l.4.2v-.8zl.2-.2.2.1v-3.2m-.4 3.2v.8h0v1l.4.1v-.9m5 1.6h-.2l-1-.5h-.2l-1.1-.7h-.2l-.2-.2-1.7-.8h-.3m0-.2v-.3l.1.1m0 .1 3.9 2 4.3 2.1 2.8 1.4.4.2.6.3 5.7 2.8v-2m-18.3-7v.2m-1 7.1q1 .4 1.1-3.2v-2.1l-.1-.9m.1 3V32h0m0-1.8V32l.3.3v-1.9m15.3-15-.9.4-.7.4-1.5.7-1.3.7m1 .8h.2m-1-.6-.3.1 1 .5.8.4 2.5 1.3 1.2.6 1.3.7h.2l.9-.5.3-.2m-8.5-3 .3-.2m-.1.2.2.1M8 12v-.3l.4-.3v.3M21.7 25v-2.4l.1-.9m-17-4.9-1-.4v1.9h0l1.1.9m-1.2-.9v3.1m17.9 7V25m-8.2-8 3.5-1.8M13.4 17l-.2.1m-.1 0 1.2.6M21.6 32v-1.4h-.2l-1.2-.7-1.3-.6-1.1-.6-.7-.4-1.4-.7h-.2v-.1h-.2l-.4-.2-3-1.6-4.6-2.3-.4-.1-.3-.2h-.1l-.9-.5h-.2l-.2-.2H5l-1.3-.6v.8m0 0 2.8 1.3m-1.4-1.5 1.3.6m-2.7-1.4 1.4.8m2 1-.6-.3m-2.8 9.3v1.8zm4.9 5.3 1 .5 1 .5.2.1 8.5 3.4 1 .4-1-.4-4.2-2.2 4.2 1.9 1.6.5.7.3v.4l-1-.4h-.2m1-3.6v-1.4l-.3-.1-2.1-1.2-5.9-3H13l-1.2-.6-.2-.1-1.3-.7q-.6.1-.7-.2l-.9-.6M22.5 21l-1 .5v.1m0 8.2v-1.3m0 2v.1m0 0v-.8m-4.4-1.5 4.4 2.2m0 7v.3m.8 6.6-.6-.2h0V43h-.1l-.9-.4m.9-3.6v3.5m-11-3.9-.6-.3-.3-.2m-5.8-3.7.1.3.3.7m-.3-.7v.6h.1m4.6 2.3q-1.2-.8-3.3-1.7m-1.6-2.1-.3-1.5m22-12.8-2.6 1.2" vector-effect="non-scaling-stroke"/><path fill="none" stroke="#000" stroke-linecap="round" stroke-linejoin="round" stroke-opacity=".5" stroke-width="__RESOLUTION__" d="m25.3 5.4-1.7.8-.3.2-13.4 6.7-.3.2-1 .5-.3.1-.4.2-.4.2m21.9-11-4.2 2.1M.2 31.1v-.4m33.4-24 .8.3 6.9 3 1.5.7m1 .3-15.2 8.4-.4-.1-6.2 2.3-.2.1 2.4 1.4.4.1h.1l1.3-.7 3.2-1.2.5 6 .1.3m-1.2-8.2.6.3m15 2.2v-2.1l.1-4.7v-.3M35.5 18h.3m-5.5 2.6.7-.1M29.8 29l-.3 4.3h0l-1.3 9-.4 1.7m-3.3 1.3v-3l-.1-10.7v-1.3l.1-7m1 6.5v5.5l.3 2.5m22.6-25.1.6 4.7v2l-.4 5.7-.2 1.5-1 5.5-.4 2M26.2 44.8l-.2-6.4m-.5 6.8-.4-9M3.3 14H2v21.3M2 14l-1.8-.8m7.1 14.7L7 26.4v-.1m-.2-.5-.1-1.1m-3 4.8.1.1M7.4 28h-.2zv-.1m-3.6 2.5h.1m0 .1 4.8 2.1.6.2m12.3-9.2-1.4-.8-.7-.3h0-.1l-1.3-.7-1.1-.6-2.6-1.3-.8-.4-1.1-.6h-.3l-.1-.2-1.2-.5-.2-.2-4-1.9-.8-.4-1.2-.6m.2 4.1 1 .7M4.7 16l6 2.7M3.9 32.3l.1.1m17.7 3v-3.5" vector-effect="non-scaling-stroke"/></g><radialGradient id="a" cx="0" cy="0" r="819.2" gradientTransform="matrix(.01 .02 -.04 0 10.8 3.4)" gradientUnits="userSpaceOnUse" spreadMethod="pad"><stop offset="0" stop-color="#000" stop-opacity=".9"/><stop offset="1" stop-color="#000" stop-opacity="0"/></radialGradient><clipPath id="b"><path d="M1 1h65v50H1z"/></clipPath></defs><g clip-path="url(#b)"><g transform="translate(24.8 33.55)"><use xlink:href="#c" width="64.3" height="49.9" transform="translate(-23.8 -32.55)"/><use xlink:href="#d" width="86.5" height="76.8" transform="matrix(.0309 -.1384 .1335 .0454 1.5 -17.7)"/><use xlink:href="#d" width="86.5" height="76.8" transform="matrix(.18 -.0354 0 .18 -16.35 -28.55)"/><use xlink:href="#d" width="86.5" height="76.8" transform="matrix(.1492 -.1279 .1313 .1462 -14.1 -18.25)"/><use xlink:href="#e" width="86.5" height="76.8" transform="rotate(192.385 6.797 -2.635)scale(.2373)"/><use xlink:href="#d" width="86.5" height="76.8" transform="matrix(.141 -.0153 0 .141 -1.35 -30.2)"/><use xlink:href="#f" width="52.4" height="38.9" transform="matrix(.8977 0 0 .8981 -20.35 -22.05)"/></g></g></svg>