<svg xmlns="http://www.w3.org/2000/svg" xmlns:xlink="http://www.w3.org/1999/xlink" width="56" height="67" viewBox="0 0 56 67"><defs><clipPath id="a"><path d="M1 1h54v65H1z"/></clipPath><g id="b"><path fill="#000" fill-opacity=".3" d="M0 51.4 26.5 38l27.3 13.5-27.4 13.3z"/><path fill="#75633d" d="m35.5.3 2.8.4 7.6 4.1 1 2-7.9 4-2.5-1.3-6.7-3.6v-.1q-.8-.6-.8-1.2v-.4l.4-.8zm-24.1 4 3.7-2L22 3.8l.8 3.3-4 2-3.9 2-4.3-2.4z"/><path fill="#2e2c18" d="m47 6.8 1.5 2.9v10.7l-1 1.7-6.9 3.5-1.6-1V10.9zM27.6 47.3l5.8-3 1.9-1 1.2 1.1v8.3h-3l-7.2 7V49.5z"/><path fill="#36331d" d="m47.5 22 1 1.6v11L47 37.2l-10.6 5.5-1.2.6-1.9 1-5.8 3-2.4-.1-.4-.3-.2-.1-3.7-2h.4l4.8 2 .1-14v-.1l2-1 9.1-4.4 3.3-1.7zM31 15l-4.7 6-2.5-5.1z"/><path fill="#433f23" d="m47.2 37.2 1.3 1.2v6.3l-5.6 6.5-3.2 1.4h-3.2v-9.9zm-8.1-24v11.4l-1.7 2.7-9.1 4.5h-2V21.1L31 15l6.9-3.5zM15 11l3.8-2-2.6 2.7-1.2 5.6z"/><path fill="#232b17" d="M48.5 44.7v4.8L47 52.4 37.7 57l-1.2-.7-.9 1.8-7.5 3.9-1.9-.1v-2.3l7.3-7h3l3.2-.1 3.2-1.4z"/><path fill="#374325" d="M26.3 62h-1.4l-6.8-3.7-.7-2.2-.7-2.7 1.9 2 3.3-.7 4 5.3.4-.3zm-10.9-5.2-7.6-4.2-.9-2.7V46l3 1 .7 3.6v.1h3.5l.2.2 2.2 2.3z"/><path fill="#282615" d="m17.5 56-2 .8 1-3.5v-.1l.1.2zM39 13.3l-1.1-1.8-1.4-2 2.5 1.4zM26.3 31.9h1.9l-2 .9-1.5-.9zm11-4.5 1.7-2.7 1.6 1zm-2 16 1.2-.6v1.7zM15 24.8l1.9 2.8L14 26zm6.3 20h-.4l-.7-.4zm3.9 2.4 2.4.1-1.4 2.2-1.3-2.3z"/><path fill="#615236" d="M6.9 46.1v-9l1.2.6 2.9 1.8 1.3-3.6v4.3l4.2 2.2v10.9L14.3 51l-.2-.2h-3.5L9.9 47zm1.2-23.4-1.2-2V10.3l3.7-1.7L15 11v13.8L14 26zm14-19 2.7 2.2-.4.3-1.6.8z"/><path fill="#927b4b" d="m6.9 37 .9-.3.3 1zm0-26.8 4.5-6-.8 4.4z"/><path fill="#4d412b" d="M7.8 36.7 6.9 34V23.9l1.2-1.2L14 26l2.9 1.6 7.8 4.3 1.5.8-.1 14-4.8-1.9-1.2-.4-3.6-2-4.1-2.2-.1-4.3-1.3 3.6-2.9-1.7z"/><path fill="#675736" d="m25 5.9 1.1-.2 2.7-.1 1 .3 6.7 3.6 1.4 2L31 15l-7.2.9-7.5-4.2L18.8 9l4-2 1.4-.8.6-.2z"/><path fill="#4a3f26" d="m28.8 5.6.2-1q0 .6.8 1.2z"/><path fill="#55482f" d="M26.3 21v10.8h-1.6l-7.8-4.2-2-2.8v-7.5l1.3-5.6 7.6 4.2z"/><path fill="#51442d" d="m21 44.8 3.6 2 .1.1.2.3 1.4 2.3v10.2l-.4.3-4-5.3-3.3.8-2-2.1v-11l3.5 2z"/><path fill="none" stroke="#000" stroke-linecap="round" stroke-linejoin="round" stroke-opacity=".3" stroke-width="__RESOLUTION__" d="m35.5.3 2.8.4 7.6 4.1 1 2 1.6 2.9v10.7l-1 1.7 1 1.5v3.6m0 3.9v3.5L47 37.2l1.4 1.2v11.1L47 52.4m-39.2.2L7 49.9m0-39.6v-.1m17.8-4.3h.4l1-.2 2.7-.1 1 .3v-.1q-.8-.6-.8-1.2m0-.4.4-.8m-3.1 28.4h1.9l-2 .9h0M39 10.9l8-4.1M33.4 44.4l1.9-1 1.2-.7v1.7l-1.2-1m-11-37.2.5-.2h.1l.2-.1m-.9.3.5-.3m-1 10h.1m-8.9 8.9 2 2.8m7.8 4.3 1.6-.1m-1.7 15 .1.1.5.3 2.4.1-1.4 2.2-1.3-2.3h.3m1-14.5-1.5-.9m-16.5 6-.4-1.1m-.9.4 1.2.6m12 6.6.8.5m3.9 2.1.1.3M14 26l1-1.2" vector-effect="non-scaling-stroke"/><path fill="none" stroke="#635f34" stroke-linecap="round" stroke-linejoin="round" stroke-width="__RESOLUTION__" d="M6.9 49.9V37l.9-.4-.9-2.7v-10l1.2-1.2-1.2-2V10.3m0-.1 4.5-6 3.7-1.8m0 0L22 3.7m7.5-.3 6-3.1" vector-effect="non-scaling-stroke"/><path fill="#450c07" fill-opacity=".4" d="m16.2 6.2.2-.2q6.4 2.2 5.5-.9 1.7 3.4 8.5 1.9-7 1.7-2.1 4.8-6.1-3-9.8.5 3.5-4.7-2.3-6.1"/></g></defs><g clip-path="url(#a)"><use xlink:href="#b" width="53.8" height="64.9" transform="translate(1 1)"/></g></svg>