<svg xmlns="http://www.w3.org/2000/svg" xmlns:xlink="http://www.w3.org/1999/xlink" width="24" height="33" viewBox="0 0 24 33"><defs><clipPath id="a"><path d="M1 1h22v31H1z"/></clipPath><g id="b"><path fill="#4e3f27" d="M2.9 8.5V3.1h15q-.6 4.2.2 13.7.8 9.3.4 9.7l-1 .8V24q-.1-2.6-1-5.6-.9-2.8-2.3-5.8-.4-1.3-2.5.2-1-1.4-1.5-.9l-2.6.2-.3-.2q-1.7-.7-3.2-2z"/><path fill="#8a6b42" d="m2.9 8.5 1.2 1.3q-.5 10-2 15.5l.5-7q.4-5.9.3-9.8m7.3 3.3q.5-.5 1.5 1 2.1 4.4 3.5 10.2-1.6 2.8-1.7 6.1l-.5.1q.7-6.4-3.2-16.6zm5.8 15-.1 1.5-.2.1q-.6-1.8-.4-4.9z"/><path fill="#9b794a" d="M4.1 9.8q1.5 1.3 3.2 2v.2Q3.5 23.5 5.7 28.2q-1.8-.9-3.4-2.3l-.1-.6Q3.6 19.8 4 9.8m6 19.5-1.5-.2q-2.2-4.5-.2-9.2 1.9 3.8 1.7 9.4"/><path fill="#785e3a" d="m7.3 11.8.3.2 2.6-.2-.3.8q3.8 10.2 3.1 16.6h-.3q-.7-.7-1.1-2.4-1.2 1.1-1.3 2.5h-.2q.2-5.7-1.7-9.4-2 4.8.2 9.2l-2.8-.9h-.1Q3.5 23.5 7.2 12z"/><path fill="#634e30" d="M11.7 12.7q2-1.5 2.5-.2 1.4 3 2.3 5.8-.3 3.8 0 6.9-.4.6-.6 1.6l-.7-3.3V23q-1.4-5.8-3.5-10.3"/><path fill="#58462c" d="M16.5 18.3q.9 3 1 5.6v3.4l-.4.3q-.2-1.3-.2-3.1l-.4.7q-.3-3.1 0-6.9"/><path fill="#a48151" d="m17.8 1 .6.1 1 1.4-.7 1-2.1.8-6.3.6-5.5-.4v.2q-2.2-.2-4-2v-.2l.2-.3q.3-.9 2.7-1.5l3-.4 1.4.5-.2-.7h2.4l6.8.7z"/><path fill="#725938" d="M18.4 1.1q1.4.6 1.5 1.3v.1q0 .3.2.2.9 1.4 1 3.4-1.7-2.4-2.4-.3-1.2-1.3-3.2 2.6-1.7-3.4-2.3-.9-3.7-2.3-7.3 0-.7-1.9-1.5-1.3l.3-1.5.1-.2 5.6.4 6.2-.6 2.1-.8.7-1z"/><path fill="#8a6c44" d="m4.4 6.2-.3.4-.5.8-.1-.2q-1.9-2-3.4-.7 0-1.8.6-3.7v-.1q1.9 1.8 4 2z"/><path fill="none" stroke="#c6ab88" stroke-linecap="round" stroke-linejoin="round" stroke-width="__RESOLUTION__" d="M18.4 1.1q1.4.6 1.5 1.3v.1q0 .3.2.2M0 6.5q0-1.8.6-3.7v-.1l.1-.2.2-.3q.3-.9 2.7-1.5l3-.4M8 0h2.4l6.8.7.7.1" vector-effect="non-scaling-stroke"/><path fill="none" stroke="#b39162" stroke-linecap="round" stroke-linejoin="round" stroke-width="__RESOLUTION__" d="m16.6 4.3-6.3.6-5.5-.4" vector-effect="non-scaling-stroke"/><path fill="#690" fill-opacity=".3" d="m11.8 20.7 1.3 1.4.4 1.1.8-.7 1.1 2 .8-1.5.9 1.3.2 1.1 2.2-1.9.1 2.3h.7l1.2.9-2.2.6L18 29l-3.2-.5-1.6 1-1.4-1.3-1.1 1.1-1-2.2-.7 3.2-.7-1.1-2.7-.3v-2.7l-1.4 2.6-1.3-.2-2-3.3 1.8-2.9.9.9 2-2-.5 2.1.7-.1.8.5 1.5-.9 1.5.9z"/></g></defs><g clip-path="url(#a)"><use xlink:href="#b" width="21.5" height="30.4" transform="translate(1 1)"/></g></svg>