<svg xmlns="http://www.w3.org/2000/svg" xmlns:xlink="http://www.w3.org/1999/xlink" width="237" height="298" viewBox="0 0 237 298"><defs><g id="c"><path fill="#959275" d="M12.6 18.7q6.2-3.8 12.5-7.1 6-3.2 12.1-5.8L50.3.3l2.1.8 7.4 3-4.4 1.5v.9H53l1.7.6q-8.9 0-16.7 4l-2.4 1.6q-4.3 3.6-4.7 9.3-.7 8.8 2.7 16.9l.6.2.8 1.1q-5.9-2.4-11.4-5.8-6.4-3.7-11.4-9.2l-.2-.6h.1v-.2l.3-5.1z"/><path fill="#c2bfaf" d="M52.5 1.2 53.7.1h.1l25.6 10.4 24.1 17 .1.1.1 1.4-2 4.1-7 1.5-4.5-10.7-4-3.2-.7-1.5-16-11.1L60 4.2z"/><path fill="#898669" d="m35 40.3-.8-1.1-.6-.2q-3.3-8.1-2.6-17 .4-5.7 4.7-9.3l2.3-1.6q8-4 16.8-4l-1.7-.6h2.2l.1-.8 4.4-1.6L69.6 8l6.3 9-7 15.7 17.3-.3 2.6 2.6q-.2-.1-2.2 1.3l-4 2.2-1.4.8Q73.9 43 66 45q-8 2-16.2 0l-8.2-2.4z"/><path fill="#9a937c" d="m103.8 29 1.8 19.4-12.7 5v-19l-6.6-13.6 4 3.2 4.5 10.7 7-1.5z"/><path fill="#4a4739" d="M92.9 53.5V55q-17 6.3-29.8 15.2l-.3-.4q.3.2-.7-3.8t4.4-11.3q5.3-7.4 13.3-9.9 3.8-1.1 11.1 1l1.3.4.7 2.5zM54.7 71.8Q43.6 68 35.5 62.2q-10-7.2-18.1-9Q4.2 50 .1 44.5L.4 42l.2-1.6q.2-1.4.2-3l.1-.4q1.1-1.9 3-2.7l1.2-.9q7.1 1.9 14 4.9l1.4.6Q27.7 42 34.6 46q7.8 4.5 14.4 10.3 5 4.3 6.3 10.8l-.1 1.4v.1q-.1 1-.2.5z"/><path fill="#a20" d="m63.1 70.2-.3-.4zM.8 37.5V37h.1zm11.4-13v.3h-.1zM57.5 73h-.3l-.2-.2z"/><path fill="#595544" d="M63 70.2 57.5 73l-.6-.2-2.1-1L55 69q.1.5.2-.5v-.1l.1-1.5Q54 60.6 49 56.4 42.4 50.5 34.6 46q-6.9-4-14.1-7.2l-1.4-.6q-6.9-3-14-4.9l-1.2.9Q2 35 1 37H.8l-.4-2.9-.3-1.4.5-.2H0l.4-3q1.2-2.9 3.1-4.6l3.6-2.6 5.1-3.4.3.5-.3 5-.1.4.2.5q5 5.4 11.4 9.2 5.5 3.4 11.4 5.8l6.5 2.4 8.2 2.4q8.3 2 16.2 0 8-2 15.2-5.7l1.4-.8 4-2.2q2-1.4 2.2-1.3l.6 1.9 2.8 9.2-1.3-.5q-7.3-2-11-.9-8.1 2.6-13.4 9.9T62.1 66t.7 3.8zm-6.3 1.4-.1-.1v.2zm-.2-1.3v.2z"/><path fill="#f30" d="M.1 32.8v-.3h.5z"/><path fill="#694a3a" d="m12.2 18.9.4-.2v.7zm44.8 54-.2-.1.6.2z"/><path fill="#918a6f" d="m88.8 35.1-2.5-2.6-17.5.3L76 17.2 69.6 8l16 11.1.7 1.5 6.6 13.6-2 2.5-1.5.2z"/><path fill="#ffa791" d="m107.4 25.9-.1-.3.3.1z"/><path fill="#db8059" d="M107.6 25.8h-.2z"/><path fill="#6d6754" d="m89.4 37 1.4-.2 2.1-2.5v14.5l-.7-2.6z"/><path fill="none" stroke="#283d44" stroke-linecap="round" stroke-linejoin="round" stroke-width="__RESOLUTION__" d="M12.6 18.7q6.2-3.8 12.5-7.1 6-3.2 12.1-5.8L50.3.3M93 55q-17 6.3-29.8 15.2h0L57.4 73l-.4.2h-.1v-.4l-2.2-1Q43.6 68 35.5 62.2q-10-7.2-18.1-9Q4.2 50 .1 44.5L.4 42l.2-1.6q.2-1.4.2-3V37l-.4-2.9-.3-1.4v-.2l.3-3q1.2-2.9 3.1-4.6l3.6-2.6 5.1-3.4.4-.2M57.4 73h-.3l-.2-.2h0M111 45.6v-.1l.4 1zm-3.5-19.7" vector-effect="non-scaling-stroke"/><path fill="none" stroke="#4a4739" stroke-linecap="round" stroke-linejoin="round" stroke-width="__RESOLUTION__" d="m50.3.4 2.1.8L53.9.1h.1l25.6 10.4 24.1 17 .1.1.1 1.4 1.8 19.4-12.7 5V55M60 4.2l-7.5-3m17.2 6.9L60 4.2m28.9 30.9-2.5-2.6-17.5.3L76 17.2 69.6 8l16 11.1.7 1.5 6.6 13.6v14.5l-.7-2.6-2.8-9.2zM93 48.8v4.7" vector-effect="non-scaling-stroke"/></g><g id="b"><path fill="#937587" d="M25.2.5h.7q.3-.4 2.3-.6Q30 0 35 2t11 9.7l-1 1.1-2.2 2.4q-.9-2.1-3.1-3.6l-.7-.4-.7-.4q-2.7-1.5-6.1-2.5l-1.7-.4-1.6-.2-5.8.4q-3.2-.6-5.4 1.1l-1.2 1q1.9.6 7.3 8.4 5.4 7.6 7.5 6 1.9-1.7 2.9-5.6.8.8 1.7 1.3l.8.9q-7 6-12 6.3-11.8-5-19-13.2l-1.9-1.9 3.4-3L8.7 8Q15.1 2.8 21.6.8zm5.4 7.3 1.6-1 .5.4-.5-.4zm1.1-1.4.5.4 1-.7 2 1 .9.4 1.7.8 1 1.7-.5.7.5-.7-1-1.7-1.7-.8-.9-.4-2-1-1 .7zm2.1-.7-.6.4zm2.1.1-.6 1.3zm1.4.5L36 7.5zm2.1 3.1-.5.6.9 1.5-1-1.5z"/><path fill="#bc9fa9" d="m46 11.6 2.3 3.1q-5.1 5.8-9.4 9.8-8.2 7.3-13.8 7.7-14-5.9-25-17.7 2.5-2.8 3.7-2.2l1.8 1.9q7.3 8.1 19.2 13.2 4.9-.4 11.9-6.3l.6.7q3.3-2.7 6.7-6.4l-.7.1-.5-.4 2.3-2.4zM29.9 8.3l.5.3zl-2.1 1.4 1.8 1 .3-.6-.2.5 1.7.8.1.2.8-.5-.8.5 2.8 3.7.4-.4-.5.4.6.8-.1.3 1.8.3 1.4-1.2 1.4-1.2-.5-.4.5.4 1.4-1.2-1-1.6-.7-.4-.7-.4q-2.7-1.5-6.1-2.5l-1.7-.4zm-3.1 4.9.3 1.2.2 1 .2 1h-3.8l-.4-2.3V14l2-.5zm-.7 1.5 1-.3zm1.2.6-.6.2z"/><path fill="#e6c9c8" d="m29.9 8.3-2.1 1.4 1.8 1 1.8.8.1.1 2.8 3.7.6.8-.2.3 1.8.3 1.4-1.2 1.4-1.2 1.4-1.2-1-1.6q2.2 1.5 3.1 3.6l.5.4h.7q-3.5 3.6-6.6 6.3l-.7-.7 6.1-6-6.1 6-.8-.9q-.9-.5-1.7-1.3-1 3.9-3 5.6t-7.4-6-7.4-8.4l1.4-1q2-1.7 5.3-1l5.8-.5 1.6.2zl-1-.7zM28.3 15l-1 .4zm-.8 1.5-.2-1-.2-1-.3-1.2.5-.2-.5.2-.2-.9.2.9-1.6.3-.1-1 .1 1-1.9.5.3 2.4h-.5 5.3zl.2 1zm3.2-4.2.8-.6zm-1.7-.4.6-1.2zm10.4 4.8-1.5-1.2zm1-1.3-1.1-1zm-7.7 1.1 1.5-1.1zm.8 1.4 1-1.4zm-8.4.3-.3-1.7zm1.3-.9-.4-.8zm-3.5-4.7.2 1.4z"/><path fill="none" stroke="#706f95" stroke-linecap="round" stroke-linejoin="round" stroke-width="__RESOLUTION__" d="M25.9.6q.3-.4 2.3-.6Q30 0 35 2t11 9.7l2.3 3.1h0q-5.1 5.8-9.4 9.8-8.2 7.3-13.8 7.7-14-5.9-25-17.7 2.5-2.8 3.7-2.2l3.4-3L8.7 8Q15.1 2.8 21.6.8l3.5-.3m11.6 20.6q-7 6-12 6.3-11.8-5-19-13.2l-1.9-1.9m42.3-.7-1 1.1-2.3 2.4-6.1 6" vector-effect="non-scaling-stroke"/><path fill="none" stroke="#463b1f" stroke-linecap="round" stroke-linejoin="round" stroke-opacity=".4" stroke-width="__RESOLUTION__" d="m30.4 8.6-.5-.3-2.1 1.4 1.8 1 .3-.6m0-1.8.6-.5 1.6-1 .5.4m-3.7.4 1 .7m8.4 2.4.5-.7-1.1-1.7-1.7-.8h0l-.9-.4-2-1-1 .7-.5-.4m1.5-.3.6-.4m-6.4 9.6 1-.4m-1.5-1.7.3 1.2.2 1 .2 1h.9m-1.3-2-1 .3m-.9-1.2-.1-1m1.5-.2.2.9.5-.2m-.6 2.5.6-.2m-2-1.8 1.5-.3m5.4-2.1-.7.5 2.8 3.7.4-.4m-3.2-3.3-.8.6m.8-.6-.1-.2-1.7-.8-.7 1.2m6.1-4.7.8-1.3m.1 1.7 1.2-1.2m2 8-.5-.4m.5.4L38 15.4l1.5 1.2m.3-5.1-1-1.5.6-.6m.4 2.1 1 1.6-1.5 1.2 1.3 1m-5.9 1.1.3-.3-.6-.8-1.5 1.1m5.1-1-1.4 1.2-1.9-.2-1 1.4m-7.4-1.4H25l.4 1.7m2.2-1.7h-1.2l.3.9m.9-.9.2 1m-4-1-.4-2.3V14l-.2-1.4m.5 3.8h-.5m1.8 0h-1.2m-.4-2.4 2-.5" vector-effect="non-scaling-stroke"/></g><g id="a"><path fill="#9e8b49" d="M75 12.8h4.2l-1.6-1.3 3.8-1.9 4 .5 5.8 3 .5.3.2 1.7.1 1.3-7.2 3.5h-.1l-2.2-.7-.2-.6 4.9-2.2h1.5l2.5-3.3-2.5 3.3h-1.5l-4.9 2.3.2.5 2.2.7h.1-.1l-2.6 1.4-.1-.1L71.5 16l1.1-2v-.1zm20 8.7.8-.2.7-.2q2-.3 4.1 0l1.2.3h.2l1.9.6q2.3.9 4.8 2.5h.2l.7.5 1.3 1q3.9 2.9 8.2 7.6l1.4-.6 5-2.5.8.5h.1l8.6 4.4.4.8.6 1.1-.8.4-.3.2-1.5-1.9-4.3-.7v-.9l.8-.5-1-.8h-5.3l-3.2 1.8 1 .8-3 1.9 2.4 2.5-2.2-.2-6-3V39l-1 1.2h1v3.5q-9-11.2-16.4-15.2l2.4-1.7.2-.2h.3l2.4-.5.2-1.1-1-.1 2-2.7 1.3-.4-1.3.4-2 2.7 1 .1-.2 1.1-2.4.4-.3.1-.2.2-2.4 1.7H96q-7.6-4-13.5-.7h-.1l-.1-.1-.1-.2 3.8-1.9zm17.5 18.9h-1l1-1.2zm.4-3.7-.4.2zl-.1-1.2-3 .2-.7-3.1-6.3-3.7 2.4-2.4 2.3-1.3 1.2-.6-1.2.6-2.3 1.3-2.4 2.4 6.3 3.7.7 3.1 3-.2zl6.2-3zm-11-15.3.7.9zm-1.2 3.7-1.6-.1-.1 1.8.1-1.8zm6.9 0v1.6l-2.3-.3 2.4.3zm-25.3-6.4-.6-2.2h5.5-5.5zm-3.1-5.8 2 1.8.5 1.7-.5-1.7zm5.5 7"/><path fill="#6c4e20" d="m77.2 12.8.3-1.3h.1l1.6 1.4zm17.8 8v.6l-8.9 4.4-1.1-1.5-.3-4.3.3 4.3 1.1 1.4-3.8 1.9-.2.1-.1-6.4 2.7-1.3.1-.1 7.2-3.5zm.6 17.2v.1q-2.3-.9-6.1-1-3.8-.3-4.4 2.5l1 .2 1.5 2.7.5.5.2.1 1.3.8 4.4 2.9-8.4-3.1h-.1l-2.6-1.4.2-8.8q5.4-2.6 12.9 1.3 3.7 1.9 7.9 5.9 4.1 3.9 8.7 10v7.5l-.5-.2q-.3-.4 0-.7l-2.2-1.1V56l-.1-1.2-.3-2.9-.4-1.4q-.7-2.2-2.5-4.3l-4.2-4.6q-2.2-2.1-6-3.3h-.2l-.5-.2z"/><path fill="#b7a462" d="m91.7 13.4 2.7 5.8.5 1.2v.3l-2.8-4.4H92l-.1-1.2z"/><path fill="#776937" d="m136 37.3 1.9 3.6v12.6l-2.8 5.8-.1 3.9v5.5l-.1.5-1 3.7.3.2 2.3 1.3 1.4.5v3.6l-11 5.3-1.2-.8-.1-.1-1-2.5v-3l-8.9 4.3-61.1 29.9-.1-.1-27.2-13.7v-.1L0 84V70.8l27.2 13.8 27.3 13.9 45.2-22.2.8-.3.7-.3 1.3 8 12.7-6.5.3 2.9.1 1.7-.1-1.7 3.1-4.6.2-.1 5.7-2.8V43.9l.4-.4.2 3.7.8-4.4 3-2.1 1.2 6.5.8-7.5.7 2.2.2-2.4 1.2.1.5 1.3 1.6-3.2zm-40.3.9.5.1.3.1q3.8 1.2 5.9 3.4l4.2 4.5q1.8 2.1 2.5 4.3l.4 1.4.3 2.9.1 1.2-.2.1-10.6-5.5-.7-.3-4.4-3.5-4.4-2.9-1.3-.8-.2-.1-.5-.5-1.5-2.7-1-.2q.6-2.8 4.4-2.6 3.8.3 6 1.1zm23 37.4-3.1 4.6-.3-2.8zm13.4.8.3-.4.3-.1-.3.1zm-4.7 2.7 1.5-2.1 3.5-1 1.8-2.8-1.8 2.8-3.5 1zm2.2-2.8-.7.8z"/><path fill="#362710" d="m137.9 54-.9 6.9-2 2.3v-4l2.9-5.7zm-3 15.3 1.5 3.3v1.8l-2.2-1.3-.2-.2zM125.6 83l-5.8-3 4.8-2.5v3zM70.1 36.6v-18l1.4-2.6L82 21.2l.1 6.5.3.1.2.1q5.9-3.4 13.5.6v.1q7.5 4 16.5 15.2v-7.1l6 3.1 2.3 1.6V46l.6-4.2.2.1 2.9 2v20.4l-12-6.1v-8q-4.6-5.7-8.7-9.6-4.3-4.2-8.2-6.5-7.5-4.4-13.2-1.6h-.1l-.5.2v9.5l-3.5-1.5-1.6-.7z"/><path fill="#dfe3cc" d="m0 70.8 60-29.2 3.8-1.9 2.7 1.4.3.1.7.4 3.3 1.4q3.7 1.2 6.9 3.1t6.7 3.4q3.3 1.5 6.4 3.5 2.1 1.5 4.4 2.8-2.2 4.2-2 9.6l3 2.9q1.9.2 3.5-.6l2-1.2 4.7-3.7.5.2 7.5 3.6h.7l.2.1 2 1.1-.3.2-4.2 2-.1.1-.6-.4.4-.4-.4.4-1.7-1.2 1.6-.7-1.6.8-1-.8 1 .8-.5.2.5-.2 1.7 1.1-.4.3.4-.3.6.4-10.3 5-1 .6-1.1.5-.4.1-45.2 22.2-27.3-13.9zm92 6.1v-.5l-.4.2zM66.7 41.2l-.3.1v-.1.1zm-.6 1.6.3-1.6zm-6.2-1.3 3.3-.1-.5.9.5-1zm6.5-.3-3.2.2.4-.7-.4.7z"/><path fill="#bac291" d="m63.7 39.7 6.4-3 6.7 3.3 1.3.7 3.9 2v-.5l.5.3.4-.2 2.6 1.4 8.5 3 4.4 3.6.7.4 10.6 5.4.2.1 2.2 1.1q-.3.4 0 .7l.5.2 12 6-7.3 3.6-2.1-1.1-.2-.1h-.7l-7.5-3.6-.5-.2-4.7 3.8-2 1q-1.6.9-3.4.7H96l-3-2.9q-.2-5.5 2-9.7-2.3-1.2-4.4-2.7-3.1-2-6.4-3.5-3.5-1.5-6.7-3.4T70.7 43l-3.3-1.4-.7-.4 4.7-.2 3.3-.1-.2-.7.3.6-3.4.3-.2-1 .2 1 .1.9-.1-1-4.7.3-.3-.1zm13.1.3 1.3.7 3.9 2v-.5l-3.6-1.5zM75 41.8l-.2-1 3.3-.1-3.3.1zm-8.5-1.2-.1.5z"/><path fill="#975a2b" d="M112.6 43.8v-1.1zm4.7 24-.4.2zM138 36.4h-.2zm-36.7 39.3-.6.3-.4.2zl1.1-.6z"/><path fill="#834d25" d="M95.6 38v.1M109.9 56v.2l-.2-.1z"/><path fill="#000" d="M112.6 50.7q-4.6-6.1-8.7-10v-.1q4.1 3.9 8.7 9.6z"/><path fill="#341810" d="M103.9 40.7q-4.2-4-8-6-7.5-3.9-12.8-1.2l-.2 8.8-.4.2-.5-.3v-9.5l.4-.2.7 1-.6-1q5.7-2.7 13.2 1.6 3.9 2.3 8.2 6.5"/><path fill="#918d6f" d="m117.3 67.8 7.3-3.5v8.3l-5.7 2.8-.2.1-3.4 1.8V77v.3l-12.7 6.4-1.3-8 1-.6 10.3-5 .1.1-.1-.1.1.1V70l4.2-2zm4 1.6V71l-3.4 2.2-.2-1.3.2 1.3 3.5-2.2zm.3 3.2-.1-1.6 3.2-2-3.2 2zm-7.3-.8-1.2.5-.1-.7.5-.3-.5.3.1.7zm-1.5.6.3-.2.1 1.1-.1-1zm.2-.8-.1-1.4zm3.1 3.8-.5-.8 2.5-1.4.2 1-.2-1-2.5 1.4zm-2 .1 1.5-.9-.5-.9.5.9z"/><path fill="#75311e" d="m120.8 40-2.4-2.5 3-1.9-1-.8 3.2-1.8h5.3l1 .8-.7.5-.1.9 4.3.7 1.5 1.9-4 1.9-1.8 1-1.1-.2h-.2l-6.9-.5z"/><path fill="#b39e59" d="M120.8 40v1.4l-2.3-1.6zm7 .5h.2l1 .1-3 2.2.4-1.2zm-2.8 3-.4.3-3-2 1-.9 2.6 1.6z"/><path fill="#923e25" d="m120.9 40 6.9.5-1.4 1.1-.3 1.2h-.1l-1 .8.2-1-2.5-1.6-1 .9-.2-.1-.5-.4z"/><path fill="#5e2717" d="m129 40.7 2-1 3.9-1.9.3-.1-1.6 3.2-.5-1.2-1.2-.2-.2 2.4-.7-2.2-.8 7.5zm-4.1 3 1-.7-.8 4.3zm-4-2.1.5.4-.6 4.2z"/><path fill="#039" d="m92 76.9-.4-.3.5-.2z"/><path fill="#88aeff" d="M50.9 113.9v.2zm.4 2.5-.1-1.3v.1z"/><path fill="none" stroke="#6c4e20" stroke-linecap="round" stroke-linejoin="round" stroke-width="__RESOLUTION__" d="M75 12.8h2.2l.3-1.3m24.3 9.8h.2l.7.9h0l1.3-.3m4.8 2.5q0 0 0 0M77.3 12.8h2l-1.6-1.3m25 10.8-1.8 2.7.9.1-.2 1.1-2.4.4-.3.1-.2.2-2.4 1.7H96m16.5 11.6-1 .1 1-1.2m.4-2.6-.1-1.2-3 .2-.7-3.1-6.3-3.7 2.4-2.4 2.3-1.3 1.2-.6M99 26.7l.1-1.8 1.5.1m4.6 1.3 2.4.3-.1-1.6M91.3 13.1l-2.5 3.3h-1.6l-4.9 2.3.2.5 2.2.7h.1m2.4-3.5h-5.5l.6 2.3m-.6-2.3-.5-1.7-2-1.8" vector-effect="non-scaling-stroke"/><path fill="none" stroke="#362710" stroke-linecap="round" stroke-linejoin="round" stroke-width="__RESOLUTION__" d="m94.4 19.3.5 1.2m-3-5.4.1 1.3m0 0 3 4.4m-8.9 5L85 24.3l-.3-4.3v-.1" vector-effect="non-scaling-stroke"/><path fill="none" stroke="#341616" stroke-linecap="round" stroke-linejoin="round" stroke-width="__RESOLUTION__" d="M95 20.5v.9h0l-8.9 4.4-3.8 1.8-.2.1.3.1m55.5 13.1V54m0 20.9v3.6m0 0-11 5.3-1.2-.8-.1-.1-1-2.5v-3l-8.9 4.3-61.1 29.9-.1-.1-27.2-13.7v-.1L0 84V70.8l27.2 13.8h0l27.3 13.9 45.2-22.2.8-.3.7-.3M70 36.7V18.5l1.4-2.5 1.1-2m40 28.7v-6m0 21.5v-8q-4.6-5.7-8.7-9.6-4.3-4.2-8.2-6.5-7.5-4.4-13.2-1.6h-.1l-.5.2v9.9L78 40.7l-1.3-.7-6.7-3.4m26-1.8q-7.5-3.9-12.9-1.2l-.2 8.8m.2-8.8-.6-1m42 31.8-12-6.1M138 36.4h-.2m-13.1 27.9v8.3l-5.7 2.8m-.2.1-3.4 1.8-12.7 6.4M95 21.4l.7-.2m15.1 4.7q3.9 2.9 8.2 7.6l1.4-.6m14.8 3.2.6 1.1 1.9 3.7m-25.3 2.9v-1.1m0-6 .4-.2 6-3" vector-effect="non-scaling-stroke"/><path fill="none" stroke="#1d2e20" stroke-linecap="round" stroke-linejoin="round" stroke-opacity=".4" stroke-width="__RESOLUTION__" d="m137.9 53.5.1-.2-.1.7-.9 6.9-2 2.3v5.5l-.1.5 1.5 3.4v1.8h.2l1.3.5M71.2 40.1l.2 1 3.3-.2-.2-.7m3.6.5-3.3.1.2 1m-3.5.2-.1-1-4.7.3h-.3v-.1l.1-.7m52.4 34.9-.2.1-3.1 4.6.1 1.7m22.2-28.3-2.8 5.8-.1 3.9m-.1 6-1 3.7.3.2 2.3 1.3m-3.8 1.4-.3.1-.3.4m2.2-3.2-2 2.8-3.4 1-1.5 2m-9.7-7 .2 1.3 3.5-2.2-.2-1.6m3.4-.4-3.2 2v1.6m-12.2-4.8 1.1.8 1.6-.8m-2.1 1 .5-.2 1.7 1.1.4-.4m.2.8-.6-.4-.4.3m1.6 1.4-.5.3.1.7 1.2-.5m-1.1 1.5-.1-1-.3.1m.1-2.2.1 1.4m5.3 2.7-.2-1.1-2.5 1.4.5.8m-1-1.7.5.9-1.5 1m1.4 1.7V77m0 .3.3 2.8m13.3-3.2.7-.8M66.4 41.3l-.3 1.6m-3.4-.5.5-1-3.3.2m3.7-.8-.4.7 3.2-.2" vector-effect="non-scaling-stroke"/><path fill="none" stroke="#7c6c2e" stroke-linecap="round" stroke-linejoin="round" stroke-width="__RESOLUTION__" d="m0 70.8 60-29.2 3.8-1.9 6.4-3" vector-effect="non-scaling-stroke"/><path fill="#c4c4ae" d="m128 34.3-.3.1-.1.1-.2.8.2.8q.1.3.4.3l.4-.4.1-.7-.1-.7zm2.1 5.8v-.4l-1.8-.9-2.4-3 1.8-2.7 6 8.7-.6 1.4-.7 1.3-1-1.2.3-.8-.8-1.7z"/><path fill="#75311e" d="m130.1 40 .8.8.8 1.7-.2.8-1.4-1.9z"/><path fill="#d06f28" d="m133 43.2.8-1.4 2.4 3.7-1 .9z"/><path fill="none" stroke="#878665" stroke-linecap="round" stroke-linejoin="round" stroke-width="__RESOLUTION__" d="m128 34.3-.3.1-.1.1-.2.8.2.8q.1.3.4.3l.4-.4.1-.7-.1-.7zm-.2-1.2-1.8 2.8 2.3 3 1.8.9v.3m1.3 3.2 1 1.2" vector-effect="non-scaling-stroke"/><path fill="none" stroke="#411f0e" stroke-linecap="round" stroke-linejoin="round" stroke-width="__RESOLUTION__" d="m136.3 45.5-1.2.9-2-3.2" vector-effect="non-scaling-stroke"/><path fill="#fff596" fill-opacity=".5" d="m74 1.9-.4 2.8-.3.3-.8 2.3 1.9 2.7 1.4-2.3v-2l-.6-1zm2.2 9.6.3-.5-.6-.7-1.5-.3-1.5.3q-.5.3-.5.7t.5.7l.3.2-1.5-.5q-1-.4-1.8-1.3Q68 8.5 68 6t1.8-4.2T74 0t4.2 1.8T80 6t-1.7 4.1L77 11.2zm-3 .4.6.1z"/><path fill="#fff" d="m74 1.9 1.2 2.9.6.8v2.1L74.4 10l-2-2.7.9-2.3.3-.3zm.4 5.1v.5zm-1.2 4.9-.2-.2q-.6-.3-.6-.7t.5-.7l1.5-.3 1.5.3.6.7-.3.5-.3.2-1.1.3h-1zm1.2-3.6V10zm0 2.4V10zM78.9 25v.2z"/><path fill="#ccb89f" d="m76.2 11.5.8-.3q.5 1.8 0 3.6l-.1.2-.4.4V15l-.3-.7h-.1q-.3-.2-1.1.4L74 16q-.6 1-1.1.4l-.8-.7q-.5-.6-.5-1-.3-1.7 0-3.3l1.5.5h.1l.5.1h1l1-.3z"/><path fill="#edd585" d="m76.5 18.2 2.9 1.8-.1.1-2 2.5-2.8.7-3.5-.8-1-.5-.8-1h-.1l1.7-2.4 1.4-.2v1.8q0 .4.6.8l1.6.3 1.5-.3q.6-.4.6-.8z"/><path fill="#63563a" d="m79.3 20.2-.4 4.8v.3l-1.2 1.2h-.1l-1.2.3h-.1l-2 .4h-.1l-3.5-.9-1.2-1.2-.3-4 .8.9 1 .5 3.5.8 2.8-.7z"/><path fill="#c2a98b" d="M72.2 18.4v-2.7l.8.7q.5.6 1.1-.4l.9-1.2q.8-.6 1.1-.4h.1l.3.7v5.1q0 .4-.6.8l-1.5.3-1.6-.3q-.6-.4-.6-.8z"/><path fill="none" stroke="#2b1700" stroke-linecap="round" stroke-linejoin="round" stroke-width="__RESOLUTION__" d="M74.4 7.5V7m0 3V8.3m0 1.7v.8" vector-effect="non-scaling-stroke"/><path fill="none" stroke="#2b1500" stroke-linecap="round" stroke-linejoin="round" stroke-opacity=".5" stroke-width="__RESOLUTION__" d="m76.5 18.2 2.9 1.8-.1.1-.4 4.9v.2l-1.2 1.3h-.1l-1.2.3h-.1l-2 .4m-4.8-2.1-.3-4-.1-.1 1.7-2.4 1.4-.2v-2.7q-.5-.6-.5-1-.3-1.7 0-3.3m7.2 13.9V25m-2.4-9.6v4.8q0 .4-.6.8l-1.5.3-1.6-.3q-.6-.4-.6-.8v-1.8m4.3-3 .4-.4v-.2q.5-1.8 0-3.6m-4.7 4.4.8.8q.5.6 1.1-.4l.9-1.2q.8-.6 1.1-.4h.1l.3.7v.3" vector-effect="non-scaling-stroke"/><path fill="none" stroke="#1d2e20" stroke-linecap="round" stroke-linejoin="round" stroke-opacity=".4" stroke-width="__RESOLUTION__" d="m74.2 27.2-3.5-.9-1.2-1.2" vector-effect="non-scaling-stroke"/><path fill="#fff596" fill-opacity=".5" d="m114.4 33.6-1.8-1.2q-1.8-1.8-1.8-4.2t1.8-4.2 4.2-1.8T121 24t1.7 4.1-1.7 4.3l-1.3 1-.8.4.3-.5v-.1l-.6-.7-1.4-.3h-.1l-1.4.3q-.6.3-.6.7t.6.7l.2.1q-.8 0-1.5-.4m4.1-5.7-.6-1-1.2-2.9-.5 2.9-.2.3-.8 2.3L117 32l1.4-2.2zm-2 6.3-.5-.1h-.1z"/><path fill="#ccb89f" d="M114.4 33.6q.7.4 1.5.4l.1.1.5.1h1q.6 0 1-.3l.4-.1.8-.4q.5 1.8 0 3.6l-.1.1-.4.4v-.1l-.3-.8h-.1l-1.1.4-.9 1.1q-.6 1-1.1.5l-.8-.7q-.5-.6-.5-1-.3-1.7 0-3.3"/><path fill="#fff" d="m115.9 34-.2-.1q-.6-.3-.6-.6v-.1q0-.4.6-.7l1.4-.3 1.5.3.6.7-.3.5-.3.2q-.5.3-1.1.4h-.4l-.6-.1zm5.7 13.2v.3zm-3.1-19.3v2l-1.4 2.3-2-2.7.9-2.3.3-.3.4-2.9 1.2 3zm-1.4 2.6V32zm0-1.3v.6zm0 3v.8z"/><path fill="#c2a98b" d="M119.2 37.6v4.8q0 .4-.6.8l-1.5.3-1.6-.4q-.6-.3-.6-.7v-4.5l.8.7q.5.5 1.1-.5l.9-1.1 1.1-.5.1.1.3.8z"/><path fill="#edd585" d="m119.2 40.4 2.9 1.9h-.1l-2 2.5-2.8.7-3.5-.8-1-.6-.8-.9h-.2l1.8-2.4 1.4-.2v1.8q0 .4.6.8l1.6.3 1.5-.4q.6-.3.6-.7z"/><path fill="#63563a" d="m122 42.4-.4 4.8v.3l-1.1 1.1h-.2l-1.2.4h-.1l-2 .5-.1-.1-3.5-.9-1.2-1.2-.3-4 .8.9 1 .5 3.5.8 2.8-.7z"/><path fill="none" stroke="#2b1500" stroke-linecap="round" stroke-linejoin="round" stroke-opacity=".5" stroke-width="__RESOLUTION__" d="M119.7 33.4q.5 1.8 0 3.6l-.1.1-.4.4v2.9l2.9 1.9h-.1l-.4 4.9v.3l-1.1 1.1h-.2l-1.2.4h-.1l-2 .5m-4.8-2.2-.3-4-.2-.1 1.8-2.4 1.4-.2v-2.7q-.5-.6-.5-1-.3-1.7 0-3.3m.5 4.3.8.7q.5.5 1.1-.5l.9-1.1 1.1-.5.1.1.3.8v.1m0 2.9v2q0 .4-.6.8l-1.5.3-1.6-.4q-.6-.3-.6-.7v-1.8m6.7 6.9v-.3" vector-effect="non-scaling-stroke"/><path fill="none" stroke="#1d2e20" stroke-linecap="round" stroke-linejoin="round" stroke-opacity=".4" stroke-width="__RESOLUTION__" d="m116.9 49.4-3.5-.9-1.2-1.2" vector-effect="non-scaling-stroke"/><path fill="none" stroke="#2b1700" stroke-linecap="round" stroke-linejoin="round" stroke-width="__RESOLUTION__" d="M117 32.2v-1.7m0-.7v-.6m0 3.8v-.8" vector-effect="non-scaling-stroke"/></g><g id="e"><path fill="#694a3a" d="m12.2 20.3.3-.2v.6zm44.7 54 .5.1z"/><path fill="#538199" d="M12.5 20Q22 14.2 33.3 9q9-4.1 14.8-6.3L55 .1q7.3.3 18.2 5.5-5-2.1-9-1.2L49 9.2q-13 4.4-14.4 5.2-1.3 1.3-2.7 7.5-1.4 6.5-.9 9.5 1.1 6 2.6 9l1.5 1.3-6.2-2.7q-5.5-2.9-10.5-6.5l-5.1-4.4-.6-3.2q-.4-3-.2-4.1z"/><path fill="#52798d" d="M73.2 5.6q14 6.7 34 21.4l.1.3-26.2 13.5Q74 44.5 66 46.5t-16.2 0l-8.2-2.4-6.5-2.4-1.5-1.4q-1.5-2.8-2.6-9-.5-2.9 1-9.4 1.3-6.1 2.6-7.5 1.4-.8 14.5-5.2l15-4.8q4.1-.9 9.1 1.2"/><path fill="#ffa791" d="m107.3 27 .2.1-.2.1z"/><path fill="#db8059" d="M107.5 27.2h-.2z"/><path fill="#405f6f" d="M107.5 27.2q2 4.6 2 7-.3 8.8 1.4 12.8-1.3 4.8-11.3 7-.7-1.1-1.2-2.9-.6-1.9-7.6-4-7.2-2-11-.9-8 2.5-13.3 9.9Q61 63.4 62 67.4t.7 3.8l.2.4-5.7 2.8-.5-.2-2.1-1 .6-4.7q-1.4-6.5-6.4-10.8-6.6-5.9-14.3-10.2-3.6-2.1-14.7-6.9Q8.4 35.7 5 34.8l-1.2.9q-1.9.8-3 2.7H.7L.5 31q1.2-2.9 3.1-4.6l3.6-2.7 5.1-3.3.3.4q-.2 1.1.3 4.3l.5 3.1 5.1 4.4q5 3.6 10.5 6.5l6.2 2.7 6.5 2.4 8.2 2.4q8.2 2 16.2 0T81 40.8l26.3-13.5zm-51 44.7v-.2zm.3 1.1-.1-.1v.2z"/><path fill="#38555f" d="M99.6 54q-21.2 7-36.5 17.5l-.3-.2q.2.1-.7-3.9-1-4 4.4-11.3 5.3-7.4 13.3-9.9 3.8-1.2 11 1 7 2 7.6 3.9.4 1.8 1.2 3m-45 19q-11-3.7-19.1-9.5-10-7.3-18.2-9Q4.1 51.4 0 46l.8-7.2.1-.4q1.1-1.9 3-2.7l1.2-.9q3.4.9 14.8 5.8 11.1 4.8 14.7 6.9 7.7 4.3 14.3 10.2 5 4.3 6.4 10.8z"/><path fill="#a20" d="M63.1 71.6H63l-.2-.3zM.8 38.8v-.4l.1-.1zm56.6 35.6h-.2l-.2-.2z"/><path fill="none" stroke="#283d44" stroke-linecap="round" stroke-linejoin="round" stroke-width="__RESOLUTION__" d="m12.2 20.3.3-.2Q22 14 33.3 8.8q9-4 14.8-6.2L55 .1q7.3.3 18.2 5.5 14 6.7 34 21.4l.3.1v.1q2 4.6 2 7-.3 8.8 1.4 12.8v-.2l.5 1-.5-.8q-1.3 4.8-11.3 7-21.2 7-36.5 17.5l-.1.1-5.7 2.8-.4.1h0l-.1-.3-2.1-1q-11.2-3.9-19.2-9.6-10-7.3-18.2-9Q4.1 51.4 0 46l.8-7.2v-.3l-.4-7.6q1.2-2.9 3.1-4.6l3.6-2.7zm45.1 54H57l-.1-.1" vector-effect="non-scaling-stroke"/></g><g id="d"><path fill="#6a688a" d="M25.2.5h.7q.3-.4 2.3-.6Q30 0 35 2t11 9.7l-1 1.1-2.2 2.4q-.9-2.1-3.1-3.6l-.7-.4-.7-.4q-2.7-1.5-6.1-2.5l-1.7-.4-1.6-.2-5.8.4q-3.2-.6-5.4 1.1l-1.2 1q1.9.6 7.3 8.4 5.4 7.6 7.5 6 1.9-1.7 2.9-5.6.8.8 1.7 1.3l.8.9q-7 6-12 6.3-11.8-5-19-13.2l-1.9-1.9 3.4-3L8.7 8Q15.1 2.8 21.6.8zm5.4 7.3 1.6-1 .5.4-.5-.4zm1.1-1.4.5.4 1-.7 2 1 .9.4 1.7.8 1 1.7-.5.7.5-.7-1-1.7-1.7-.8-.9-.4-2-1-1 .7zm2.1-.7-.6.4zm2.1.1-.6 1.3zm1.4.5L36 7.5zm2.1 3.1-.5.6.9 1.5-1-1.5z"/><path fill="#9392ad" d="m46 11.6 2.3 3.1q-5.1 5.8-9.4 9.8-8.2 7.3-13.8 7.7-14-5.9-25-17.7 2.5-2.8 3.7-2.2l1.8 1.9q7.3 8.1 19.2 13.2 4.9-.4 11.9-6.3l.6.7q3.3-2.7 6.7-6.4l-.7.1-.5-.4 2.3-2.4zM29.9 8.3l.5.3zl-2.1 1.4 1.8 1 .3-.6-.2.5 1.7.8.1.2.8-.5-.8.5 2.8 3.7.4-.4-.5.4.6.8-.1.3 1.8.3 1.4-1.2 1.4-1.2-.5-.4.5.4 1.4-1.2-1-1.6-.7-.4-.7-.4q-2.7-1.5-6.1-2.5l-1.7-.4zm-3.1 4.9.3 1.2.2 1 .2 1h-3.8l-.4-2.3V14l2-.5zm-.7 1.5 1-.3zm1.2.6-.6.2z"/><path fill="#bdbccd" d="m29.9 8.3-2.1 1.4 1.8 1 1.8.8.1.1 2.8 3.7.6.8-.2.3 1.8.3 1.4-1.2 1.4-1.2 1.4-1.2-1-1.6q2.2 1.5 3.1 3.6l.5.4h.7q-3.5 3.6-6.6 6.3l-.7-.7 6.1-6-6.1 6-.8-.9q-.9-.5-1.7-1.3-1 3.9-3 5.6t-7.4-6-7.4-8.4l1.4-1q2-1.7 5.3-1l5.8-.5 1.6.2zl-1-.7zM28.3 15l-1 .4zm-.8 1.5-.2-1-.2-1-.3-1.2.5-.2-.5.2-.2-.9.2.9-1.6.3-.1-1 .1 1-1.9.5.3 2.4h-.5 5.3zl.2 1zm3.2-4.2.8-.6zm-1.7-.4.6-1.2zm10.4 4.8-1.5-1.2zm1-1.3-1.1-1zm-7.7 1.1 1.5-1.1zm.8 1.4 1-1.4zm-8.4.3-.3-1.7zm1.3-.9-.4-.8zm-3.5-4.7.2 1.4z"/><path fill="none" stroke="#476298" stroke-linecap="round" stroke-linejoin="round" stroke-width="__RESOLUTION__" d="M25.9.6q.3-.4 2.3-.6Q30 0 35 2t11 9.7l2.3 3.1h0q-5.1 5.8-9.4 9.8-8.2 7.3-13.8 7.7-14-5.9-25-17.7 2.5-2.8 3.7-2.2l3.4-3L8.7 8Q15.1 2.8 21.6.8l3.5-.3m11.6 20.6q-7 6-12 6.3-11.8-5-19-13.2l-1.9-1.9m42.3-.7-1 1.1-2.3 2.4-6.1 6" vector-effect="non-scaling-stroke"/><path fill="none" stroke="#1d2e20" stroke-linecap="round" stroke-linejoin="round" stroke-opacity=".4" stroke-width="__RESOLUTION__" d="m30.4 8.6-.5-.3-2.1 1.4 1.8 1 .3-.6m0-1.8.6-.5 1.6-1 .5.4m-3.7.4 1 .7m8.4 2.4.5-.7-1.1-1.7-1.7-.8h0l-.9-.4-2-1-1 .7-.5-.4m1.5-.3.6-.4m-6.4 9.6 1-.4m-1.5-1.7.3 1.2.2 1 .2 1h.9m-1.3-2-1 .3m-.9-1.2-.1-1m1.5-.2.2.9.5-.2m-.6 2.5.6-.2m-2-1.8 1.5-.3m5.4-2.1-.7.5 2.8 3.7.4-.4m-3.2-3.3-.8.6m.8-.6-.1-.2-1.7-.8-.7 1.2m6.1-4.7.8-1.3m.1 1.7 1.2-1.2m2 8-.5-.4m.5.4L38 15.4l1.5 1.2m.3-5.1-1-1.5.6-.6m.4 2.1 1 1.6-1.5 1.2 1.3 1m-5.9 1.1.3-.3-.6-.8-1.5 1.1m5.1-1-1.4 1.2-1.9-.2-1 1.4m-7.4-1.4H25l.4 1.7m2.2-1.7h-1.2l.3.9m.9-.9.2 1m-4-1-.4-2.3V14l-.2-1.4m.5 3.8h-.5m1.8 0h-1.2m-.4-2.4 2-.5" vector-effect="non-scaling-stroke"/></g><g id="f"><path fill="#cce1bd" d="m71 14.9 1.1.4-1.5 1.3 1.5-1.3zm2.2.9-1-.4 2-1.5-3.8-1.8h-.1L66.4 10l1-1.5-1 1.5 3.8 1.8.1.1 3.8 1.8-2 1.5zm-2.5.9-.2-.2-.6-.2-4.9-2.8-4.5-2.3-.8-.3L56.5 9l-1.2-1 .1-.8q4.7-1.8 8.8-2.7 4-.9 9 1.2 5.6 2.6 12.1 6.5l-2.4.2-1.9 1.4-1.3 1.1 2.3 1.6-.9.4 1-.4 2.2 1.7-1.5.4 1.5-.4 1.5 1 1.5-.6 1.2 1.3-1.2-1.3 1.7-.7.8 1-.8-1 1.7-.7L93 17q6.8 4.4 14.3 10l.1.3L95.5 33v.1l-3.2-2.3q-11.2-8.1-21.7-14.2m10-3.3.5.4zm4.5 6 .7-.2zm-24.3-12 1.7.9-2.9 2.4 2.9-2.4zm9.4 4.5-.7.8zM63 7.7l-.5.5 1.8.8-.3.4.3-.4-1.8-.8zm2.4-.2L64.3 9l2.1 1-2.1-1z"/><path fill="#874218" d="M70.4 16.5Q81 22.7 92.2 30.8l3.2 2.3-.2.1v.2l-14.1 7.4q-7.3 3.7-15.2 5.7-8 2-16.2 0l-8.2-2.4-6.5-2.4-.8-1.2-.6-.2q-1.5-2.8-2.6-9-1-5.7-.1-9.7l.1-.5q1.1-4.1 3.6-6.8 2.8-1.6 7.7-3.7l2-.7 3 .8-7.2 4.8-1.4-.7 1.4.7-3.1 2-.8-.4.8.4 3.1-2 1.3.6-1.3-.6 7.2-4.8-3-.8q4.4-1.4 10.8-1.3l1.3.5 3.1 1.7.8.3-4.6 2.8-.7.4.7-.4 3.1 1.7-1.7 1.2 1.7-1.2-3-1.7-1-.5 1 .5 4.5-2.8 4.5 2.3 4.9 2.7zm-1.1 3-1.7-1.7 2.2-1.6-2.2 1.5zm2 12-2.7-1-4.8-2-3.1-1.3-3.7 3-1.9-1.4L57 30l-6 4.7 7 1.9 4.2 1.4h.1l5.5 2 2.8-2.7 2.4 1-2.5-1 2-1.9L75 33zl1.1-1zm2.6 4.8-1.5-.8zM39.4 19l-2.3-1.4zm-2.3-1.4-6.1 4zm10.3-6.9.7.2zM63.6 16l-1.5 1.4-3.2-1.8 1-.7-1 .7 3.2 1.8zm3.3.8.7.8-2.2 1.6-3.3-1.8-.5.4.5-.4 3.2 1.9 2.3-1.7zm2.4 12.5-.7 1zm-5.5-1 1-2.3zm-6.7 9 1-.8zm4.2 2.4 1-1.7z"/><path fill="#9ec682" d="m82 16.5-2.3-1.7 1.3-1.1 2-1.4 2.3-.2 7.8 4.9h-2.4l-1.7.8-1.7.7-.7-.7.7.7-1.5.6-1.5-1zl.5-.2zm3 1.3-.8.3zm22.5 9.3 2.2 1.7-.3 5.4q-.2 9.9 2 13.6l.2.5-12 5.8q-.8-1.2-1.3-3l-.5-2.5q-.4-2.8-.5-6.6v-.4l.1-2.4V39l.1-4.3-2-1.5V33l11.8-5.7zm-8.9 13.5.2.7-1.4.7 1.3-.7zm0 .7 1.7-.7.6 2-.6.2.6-.2-.6-2zm3.3-1.5-1.6.8-.2-.6.2.5zm0 3.5-.7.4-.3-1.2.8-.4-.8.4.3 1.1zm1 1.4-1 .8-.7-1.9-1.1.6 1.1-.6.6 1.9zm-.6 2-.1-.5-.3-.7.3.8zm-1 1.5-.5-1.2 1.4-.9-1.5.8zm-3.4.3 1.3-.7.5 1.3-.5-1.3zm2.5-2.3.3.8-1.5.8 1.5-.9z"/><path fill="#f2fbe6" d="M73.3 5.6q-5-2.1-9.1-1.2-4 .8-8.8 2.7V8l1.1 1.2-1.3-.5-5.6-2q-4-1.2-7.8-1.5l6.3-2.5 7-2.5q7.3.3 18.2 5.5"/><path fill="#ffa791" d="M107.6 27.2h-.2l-.1-.2z"/><path fill="#ff643e" d="M95.6 33v.2l-.3.2v-.1l.2-.2m2 6v.1h-.1z"/><path fill="#663111" d="m95.6 33.2 2 1.5-.1 4.3-.2.1-1.7 1q-7.7 3.6-15.7 6.1-8.1 2.5-13.4 9.9-5.4 7.3-4.4 11.3t.7 3.8l.3.4-5.7 2.8-.5-.2-2.2-1 .3-2.7q.1.5.2-.5v-.1l.1-1.5Q54 62 49 57.8q-6.6-5.9-14.4-10.2-6.9-4-14.1-7.2l-1.4-.6q-6.9-3-14-4.9l-1.2.9q-1.9.8-3 2.7H.8l-.4-2.9-.3-1.4.5-.2H0l.4-3q1.2-2.9 3.1-4.6l3.6-2.7 5.5-3.6v.8q-.4 2.4-.4 5l-.1.3q-.5 0 .1.7l1.1 1.3 5.1 4.4Q23.5 36.1 29 39l6.1 2.7 6.5 2.4 8.2 2.4q8.3 2 16.2 0 8-2 15.2-5.7l14.1-7.4zm-24.2-1.8-.8.6zl-2.8-1-4.8-2-.4.7.4-.7-3.1-1.3-3.7 3 .4.3-.4-.4-6 4.7 7 1.9 4.2 1.4h.1l5.5 2 2.8-2.7 1.9-1.9L75 33zm.6 3.7.6.3zm-12.8.5-1 1zM56.9 73l-.1-.1v.2zm-.2-1.1v-.2z"/><path fill="#6f3513" d="M97.5 39.3V42q0 3.8.4 6.6l.5 2.5q.5 1.8 1.2 3l-13.5 6.4-.5-1 2-1-2 1-.7-1.7.1-4.3.8-.2-.7.2-4.7 1.3.2-1.5-.2 1.5 4.6-1.3-.2 4.3.8 1.8-1 .4 1-.5.5 1-10.7 5.2L63 71.5l-.3-.2q.3.1-.7-3.9t4.4-11.3 13.3-9.9T95.6 40l1.8-.9v.1zM73.1 65l1.4-1 .8 1.8-.8-1.7zm1.8-1.3-.4.4-1.5-3.3-.5-.2v-3.4l4.9-1.4 3-.9L80 56l.3-1.2-3 .9-5 1.4v3.4h.1l.5.2 1.5 3.3zm-2.5-6.5v-.8zm4.8-3.9.2 2.5zM20.5 40.4q7.2 3.2 14.1 7.2 7.8 4.3 14.4 10.2 5 4.3 6.3 10.8l-.1 1.4v.1q-.1 1-.2.5l-26.3-13-1.3-.7 1.2-.1-.4-2.2-.4-3.2-.1-.8.1.8-2.5-.2-.5-1.9.5 1.9 2.5.2 1.9.3-1.9-.3.4 3.2.4 2.2-1.2.1-3.5-1.7-12.8-6.4q-.4-2 0-4l.7-2q.8-1.5 4.9-2.6zm1.9 10.5.7.1.8 4.1-.8-4.1zm.5-1 .2 1.1zm6.6 6.9h-.9l.1.8-.1-.8zM23.1 51l2.2.2.2 1-.2-1zm5.1 3.6 2-.3zM69 61.3l3.5-.7z"/><path fill="#a20" d="m62.9 71.3.2.3zM12.1 26.2l.1-.3.3.4zM.8 38.6l.1-.1-.1.4zM57 74.3h.4z"/><path fill="#ce6424" d="M35.1 41.7 29 39q-5.5-2.9-10.6-6.5l-5-4.4-1.2-1.3q-.6-.8-.1-.7l.4.1-.3-.3q0-2.7.3-5.1l.1-.7Q22 14 33.3 8.8l7.8-3.4.7-.3q3.8.3 7.8 1.5l5.6 2q-6.4-.1-10.9 1.3l-1.9.7q-4.9 2.2-7.7 3.8-2.5 2.6-3.6 6.7l-.1.5q-1 4 .1 9.8 1.1 6 2.6 9l.6.1zm-11.8-21-1 .7-2-.9.8-.7 4.7-2.9 1.7.9-1.7-.9-4.7 2.9-.8.7 2 .9zm.9-4.6 1.6.8zm13.5-8 1.9.5L25.8 17l13.8-8.3zm1.9.4 2.5.7 2.2.5-2.2-.6zm4.3-.7-1.8 1.3zM24 23.4l1-.8 2.8 1.3 3.3-2.2-3.3 2.2-2.9-1.3zM21.1 22l1.2-.7 2.5 1.1-2.5-1.1zm3.7.3.7-.6zm-5.5-1 1-1zm1-1-1.2-.6z"/><path fill="#f30" d="M0 33.9h.6l-.5.3z"/><path fill="#8c4317" d="M1 38.4q1-1.9 3-2.7l1.1-.9q7.1 1.9 14 4.9l1.4.6-3.8-.1q-4.1 1-4.9 2.4l-.7 2q-.4 2.1 0 4.1L24 55l.4 3L.1 46l.3-2.6.2-1.6.2-3zm54.2 32.1-.4 2.7-25.5-12.7-.1-.1-4.8-2.4-.4-3q1.7 1 3.5 1.8l1.3.7.4 2.9-.4-3z"/><path fill="none" stroke="#1d2e20" stroke-linecap="round" stroke-linejoin="round" stroke-opacity=".4" stroke-width="__RESOLUTION__" d="m70.6 16.6 1.5-1.3-1.2-.5m-3.5-6.2-1 1.5 3.8 1.8.1.1 3.8 1.8-2 1.5 1 .4m-2.5.9-.2-.2m15-4.2-2.5.1-1.9 1.4-1.3 1.1 2.3 1.6.6-.2m-1.5-2.5-.5-.3m1.5 3-1 .4m1-.4 2.2 1.7.8-.3m-.8.3-1.5.4m6.2-.7.8 1m-2.5-.3 1.2 1.3m.5-2-1.7.7-.7-.7m.7.7-1.5.6-.7.3m-.8-1.3 1.5 1m-26.2-8.4 2.9-2.4-1.7-.9M93.1 17h-2.4l-1.7.8M97.4 42l1.3-.7v-.7m1.7 2.2.6-.2-.6-2-1.7.7m1.5-1.3.2.5 1.6-.7m-.2 2.4-.8.3.3 1.1.7-.3m-1.8.9 1.1-.6.6 1.9 1-.8m-1 .8.3.8.1.5m-.1-.5-1.5.8.6 1.2m-1.6.9-.5-1.3-1.3.7m1.3-.7 1.5-.9-.3-.7M69.5 12.8l.7-.9M64 9.5l.3-.4-1.8-.8.5-.5m3.4 2.3-2.1-1 1.1-1.5" vector-effect="non-scaling-stroke"/><path fill="none" stroke="#663111" stroke-linecap="round" stroke-linejoin="round" stroke-width="__RESOLUTION__" d="m69.8 16.2-2.2 1.4 1.7 1.8M70.6 32l.8-.6-2.8-1-4.8-2-.4.7m8 2.3 1-1m-1.9 6.9 2.5 1m-1.7-6.8 3.8 1.5-2.6 2.4 1.5.8m-1.5-.8-.6-.3M58 36.6l4.2 1.4h.1l5.5 2 2.8-2.7 1.9-1.9m-45-17.6-1.7-.9-4.7 2.9-.8.7 2 .9 1-.7m2.5-3.7-1.6-.9m12.1 1 .8.4 3.1-2-1.4-.7m-1.7 2.8 2.3 1.4m-13.6-2 13.8-8.3-1.9-.4m3.8 7.8-1.3-.6 7.2-4.8-3-.8-2.3-.6-2.5-.6m-8.6 13 6.1-4.1m11-6.8-.7-.1m-5.3-1.3L44 8m13.3 8.8 1.7-1.2-3-1.7-.8.4m4.7.5-.9.8 3.2 1.8 1.5-1.4M55 13.4l1 .5 4.5-2.8m1.2 6.7.5-.4 3.2 1.9 2.3-1.7-.7-.8m-3.1 11.6L60.7 27 57 30l.4.3m11.2 0 .7-1.1M64.8 26l-1 2.4M57 30l-1.9-1.3m3 7.9-1 .7m1-.7 1-1M57 30l-6 4.7 7 1.9m4.2 1.4-.9 1.7M31 21.7l-3.3 2.1-2.9-1.3-1 .8m1-.8-2.5-1.1-1.2.8m4.4-.2-.7.5m-4.5-2-1 1m-.2-1.6 1.2.6" vector-effect="non-scaling-stroke"/><path fill="none" stroke="#1d2e20" stroke-linecap="round" stroke-linejoin="round" stroke-opacity=".4" stroke-width="__RESOLUTION__" d="M85.4 12.1q-6.6-3.9-12.2-6.5M93 17l-7.7-4.9m14.3 42 12.1-5.9-.3-.4q-2.2-3.7-1.9-13.5l.3-5.5-2.2-1.7m-.3-.2q-7.5-5.5-14.2-9.9" vector-effect="non-scaling-stroke"/><path fill="none" stroke="#682117" stroke-linecap="round" stroke-linejoin="round" stroke-width="__RESOLUTION__" d="m107.6 27.2-.3-.2M63.1 71.6l12.2-5.9 10.8-5.2L99.6 54m-87-34-5.5 3.6-3.6 2.6Q1.6 28 .5 31L0 34l.1.3.3 1.3.4 3v.3l-.2 3-.2 1.6L.1 46l24.2 12 4.8 2.4m25.6 12.8 2.1 1h.1l.2.1h.3l5.6-2.7h.1M41.8 5.1l-.7.2-7.8 3.4Q22 14.2 12.6 20.2m16.6 40.4 25.5 12.7m2.1 1 .1.3h.1l.4-.2" vector-effect="non-scaling-stroke"/><path fill="none" stroke="#4f250d" stroke-linecap="round" stroke-linejoin="round" stroke-width="__RESOLUTION__" d="m75.4 65.7-.9-1.7-1.4.9m7.5-11.7-.2 1.6 4.6-1.3.8-.2M80 56l.3-1.2-3 .9-5 1.4v3.4h.1l.5.2 1.5 3.3.4-.4m-2.5-7.3v.8m5-1.4-.2-2.5m7.8.3-.2 4.3.8 1.8 2-1m-1.5 2-.5-1-1 .4m1.5.5.2.5m-62-3-.4-3-.8-4.1-.7-.1m2.4-1.6.5 1.9 2.5.2-.1-.8m-4.6.4-.2-1.1m4.5 7 1.2-.1-.4-2.2-.4-3.2 1.9.3m-1 5.9-.1-.8h.9m-4-4.6-.2-1-2.2-.2m5.9 9.4-.4-3m1.5-3.2-2 .3m44.2 6-3.5.8" vector-effect="non-scaling-stroke"/><path fill="none" stroke="#1d2e20" stroke-linecap="round" stroke-linejoin="round" stroke-opacity=".4" stroke-width="__RESOLUTION__" d="M73.3 5.6Q62.4.4 55 .1l-7 2.5-6.3 2.5" vector-effect="non-scaling-stroke"/></g><g id="r" transform="translate(70.35 63.25)"><use xlink:href="#a" width="138" height="116.5" transform="translate(-68.4 -63.25)"/><use xlink:href="#b" width="48.4" height="32.3" transform="matrix(.79 -.08 .08 .71 -13.1 -26.3)"/><use xlink:href="#b" width="48.4" height="32.3" transform="matrix(.78 .12 -.11 .7 9.55 -17.8)"/><use xlink:href="#c" width="111.5" height="73.2" transform="translate(-70.35 -19.05)"/></g><g id="p" transform="translate(70.35 63.25)"><use xlink:href="#a" width="138" height="116.5" transform="translate(-68.4 -63.25)"/><use xlink:href="#b" width="48.4" height="32.3" transform="matrix(.91 -.11 .1 .81 -4.85 -18.95)"/><use xlink:href="#c" width="111.5" height="73.2" transform="translate(-70.35 -19.05)"/></g><g id="n" transform="translate(70.35 63.25)"><use xlink:href="#a" width="138" height="116.5" transform="translate(-68.4 -63.25)"/><use xlink:href="#d" width="48.4" height="32.3" transform="matrix(.79 -.08 .08 .71 -6.25 -20.55)"/><use xlink:href="#d" width="48.4" height="32.3" transform="matrix(.78 .12 -.11 .7 13.6 -16.9)"/><use xlink:href="#e" width="111.5" height="74.6" transform="translate(-70.3 -20.45)"/></g><g id="l" transform="translate(70.35 63.25)"><use xlink:href="#a" width="138" height="116.5" transform="translate(-68.4 -63.25)"/><use xlink:href="#b" width="48.4" height="32.3" transform="matrix(.78 .12 -.11 .7 11.1 -22)"/><use xlink:href="#e" width="111.5" height="74.6" transform="translate(-70.3 -20.45)"/></g><g id="j" transform="translate(70.35 63.25)"><use xlink:href="#a" width="138" height="116.5" transform="translate(-68.4 -63.25)"/><use xlink:href="#d" width="48.4" height="32.3" transform="matrix(.89 0 0 .89 8.4 -16.9)"/><use xlink:href="#d" width="48.4" height="32.3" transform="matrix(.89 0 0 .89 -17.5 -29.85)"/><use xlink:href="#f" width="111.8" height="74.6" transform="translate(-70.35 -20.45)"/></g><g id="h" transform="translate(70.35 63.25)"><use xlink:href="#a" width="138" height="116.5" transform="translate(-68.4 -63.25)"/><use xlink:href="#d" width="48.4" height="32.3" transform="translate(-5.9 -25.3)"/><use xlink:href="#f" width="111.8" height="74.6" transform="translate(-70.35 -20.45)"/></g><clipPath id="g"><path d="M1 1h117v98H1z"/></clipPath><clipPath id="i"><path d="M119 1h117v98H119z"/></clipPath><clipPath id="k"><path d="M1 100h117v98H1z"/></clipPath><clipPath id="m"><path d="M119 100h117v98H119z"/></clipPath><clipPath id="o"><path d="M1 199h117v98H1z"/></clipPath><clipPath id="q"><path d="M119 199h117v98H119z"/></clipPath></defs><g clip-path="url(#g)"><use xlink:href="#h" width="139.9" height="117.4" transform="translate(1 1)scale(.8302)"/></g><g clip-path="url(#i)"><use xlink:href="#j" width="139.9" height="117.4" transform="translate(119 1)scale(.8302)"/></g><g clip-path="url(#k)"><use xlink:href="#l" width="139.9" height="117.4" transform="translate(1 100)scale(.8302)"/></g><g clip-path="url(#m)"><use xlink:href="#n" width="139.9" height="117.4" transform="translate(119 100)scale(.8302)"/></g><g clip-path="url(#o)"><use xlink:href="#p" width="139.9" height="117.4" transform="translate(1 199)scale(.8302)"/></g><g clip-path="url(#q)"><use xlink:href="#r" width="139.9" height="117.4" transform="translate(119 199)scale(.8302)"/></g></svg>