<svg xmlns="http://www.w3.org/2000/svg" xmlns:xlink="http://www.w3.org/1999/xlink" width="83" height="171" viewBox="0 0 83 171"><defs><path id="ax" fill="url(#a)" d="M5.7-5.7Q8.1-3.3 8.1 0T5.7 5.7 0 8.1t-5.7-2.4Q-8.1 3.4-8.1 0q0-3.3 2.3-5.7Q-3.3-8.1 0-8.1t5.7 2.3" transform="translate(8.1 8.1)"/><path id="y" fill="none" stroke="#5a512e" stroke-linecap="round" stroke-linejoin="round" stroke-opacity=".2" stroke-width="__RESOLUTION__" d="M9.9-45q-2.7.7-6.6.7t-6.6-.7-2.7-2 2.7-1.7 6.6-.8l6.6.8q2.8.7 2.8 1.8 0 1-2.8 1.8m3 4.9Q7.5-37.7-.2-37.7t-13-2.4-5.4-5.9 5.4-5.7 13-2.4 13 2.4 5.4 5.8-5.3 5.8" transform="translate(18.65 54.15)" vector-effect="non-scaling-stroke"/><path id="w" fill="url(#b)" d="M5.8-38.5v77.1H-5.7v-77.1z" transform="translate(5.7 38.55)"/><path id="v" fill="url(#c)" d="M5.8-38.5v77.1H-5.7v-77.1z" transform="translate(5.7 38.55)"/><path id="C" fill="none" stroke="#322d19" stroke-linecap="round" stroke-linejoin="round" stroke-opacity=".2" stroke-width="__RESOLUTION__" d="M9.9-45q-2.7.7-6.6.7t-6.6-.7-2.7-2 2.7-1.7 6.6-.8l6.6.8q2.8.7 2.8 1.8 0 1-2.8 1.8m3 4.9Q7.5-37.7-.2-37.7t-13-2.4-5.4-5.9 5.4-5.7 13-2.4 13 2.4 5.4 5.8-5.3 5.8" transform="translate(18.65 54.15)" vector-effect="non-scaling-stroke"/><path id="B" fill="url(#d)" d="M5.8-38.5v77.1H-5.7v-77.1z" transform="translate(5.7 38.55)"/><path id="A" fill="url(#e)" d="M5.8-38.5v77.1H-5.7v-77.1z" transform="translate(5.7 38.55)"/><path id="G" fill="none" stroke="#4e4628" stroke-linecap="round" stroke-linejoin="round" stroke-opacity=".2" stroke-width="__RESOLUTION__" d="M9.9-45q-2.7.7-6.6.7t-6.6-.7-2.7-2 2.7-1.7 6.6-.8l6.6.8q2.8.7 2.8 1.8 0 1-2.8 1.8m3 4.9Q7.5-37.7-.2-37.7t-13-2.4-5.4-5.9 5.4-5.7 13-2.4 13 2.4 5.4 5.8-5.3 5.8" transform="translate(18.65 54.15)" vector-effect="non-scaling-stroke"/><path id="F" fill="url(#f)" d="M5.8-38.5v77.1H-5.7v-77.1z" transform="translate(5.7 38.55)"/><path id="E" fill="url(#g)" d="M5.8-38.5v77.1H-5.7v-77.1z" transform="translate(5.7 38.55)"/><path id="K" fill="none" stroke="#4c4427" stroke-linecap="round" stroke-linejoin="round" stroke-opacity=".2" stroke-width="__RESOLUTION__" d="M9.9-45q-2.7.7-6.6.7t-6.6-.7-2.7-2 2.7-1.7 6.6-.8l6.6.8q2.8.7 2.8 1.8 0 1-2.8 1.8m3 4.9Q7.5-37.7-.2-37.7t-13-2.4-5.4-5.9 5.4-5.7 13-2.4 13 2.4 5.4 5.8-5.3 5.8" transform="translate(18.65 54.15)" vector-effect="non-scaling-stroke"/><path id="J" fill="url(#h)" d="M5.8-38.5v77.1H-5.7v-77.1z" transform="translate(5.7 38.55)"/><path id="I" fill="url(#i)" d="M5.8-38.5v77.1H-5.7v-77.1z" transform="translate(5.7 38.55)"/><path id="O" fill="none" stroke="#3a341d" stroke-linecap="round" stroke-linejoin="round" stroke-opacity=".2" stroke-width="__RESOLUTION__" d="M9.9-45q-2.7.7-6.6.7t-6.6-.7-2.7-2 2.7-1.7 6.6-.8l6.6.8q2.8.7 2.8 1.8 0 1-2.8 1.8m3 4.9Q7.5-37.7-.2-37.7t-13-2.4-5.4-5.9 5.4-5.7 13-2.4 13 2.4 5.4 5.8-5.3 5.8" transform="translate(18.65 54.15)" vector-effect="non-scaling-stroke"/><path id="N" fill="url(#j)" d="M5.8-38.5v77.1H-5.7v-77.1z" transform="translate(5.7 38.55)"/><path id="M" fill="url(#k)" d="M5.8-38.5v77.1H-5.7v-77.1z" transform="translate(5.7 38.55)"/><path id="S" fill="none" stroke="#3c361e" stroke-linecap="round" stroke-linejoin="round" stroke-opacity=".2" stroke-width="__RESOLUTION__" d="M9.9-45q-2.7.7-6.6.7t-6.6-.7-2.7-2 2.7-1.7 6.6-.8l6.6.8q2.8.7 2.8 1.8 0 1-2.8 1.8m3 4.9Q7.5-37.7-.2-37.7t-13-2.4-5.4-5.9 5.4-5.7 13-2.4 13 2.4 5.4 5.8-5.3 5.8" transform="translate(18.65 54.15)" vector-effect="non-scaling-stroke"/><path id="R" fill="url(#l)" d="M5.8-38.5v77.1H-5.7v-77.1z" transform="translate(5.7 38.55)"/><path id="Q" fill="url(#m)" d="M5.8-38.5v77.1H-5.7v-77.1z" transform="translate(5.7 38.55)"/><path id="W" fill="none" stroke="#484024" stroke-linecap="round" stroke-linejoin="round" stroke-opacity=".2" stroke-width="__RESOLUTION__" d="M9.9-45q-2.7.7-6.6.7t-6.6-.7-2.7-2 2.7-1.7 6.6-.8l6.6.8q2.8.7 2.8 1.8 0 1-2.8 1.8m3 4.9Q7.5-37.7-.2-37.7t-13-2.4-5.4-5.9 5.4-5.7 13-2.4 13 2.4 5.4 5.8-5.3 5.8" transform="translate(18.65 54.15)" vector-effect="non-scaling-stroke"/><path id="V" fill="url(#n)" d="M5.8-38.5v77.1H-5.7v-77.1z" transform="translate(5.7 38.55)"/><path id="U" fill="url(#o)" d="M5.8-38.5v77.1H-5.7v-77.1z" transform="translate(5.7 38.55)"/><path id="aa" fill="none" stroke="#8d8b5c" stroke-linecap="round" stroke-linejoin="round" stroke-opacity=".2" stroke-width="__RESOLUTION__" d="M9.9-45q-2.7.7-6.6.7t-6.6-.7-2.7-2 2.7-1.7 6.6-.8l6.6.8q2.8.7 2.8 1.8 0 1-2.8 1.8m3 4.9Q7.5-37.7-.2-37.7t-13-2.4-5.4-5.9 5.4-5.7 13-2.4 13 2.4 5.4 5.8-5.3 5.8" transform="translate(18.65 54.15)" vector-effect="non-scaling-stroke"/><path id="Z" fill="url(#p)" d="M5.8-38.5v77.1H-5.7v-77.1z" transform="translate(5.7 38.55)"/><path id="Y" fill="url(#q)" d="M5.8-38.5v77.1H-5.7v-77.1z" transform="translate(5.7 38.55)"/><path id="ae" fill="none" stroke="#415126" stroke-linecap="round" stroke-linejoin="round" stroke-opacity=".2" stroke-width="__RESOLUTION__" d="M9.9-45q-2.7.7-6.6.7t-6.6-.7-2.7-2 2.7-1.7 6.6-.8l6.6.8q2.8.7 2.8 1.8 0 1-2.8 1.8m3 4.9Q7.5-37.7-.2-37.7t-13-2.4-5.4-5.9 5.4-5.7 13-2.4 13 2.4 5.4 5.8-5.3 5.8" transform="translate(18.65 54.15)" vector-effect="non-scaling-stroke"/><path id="ad" fill="url(#r)" d="M5.8-38.5v77.1H-5.7v-77.1z" transform="translate(5.7 38.55)"/><path id="ac" fill="url(#s)" d="M5.8-38.5v77.1H-5.7v-77.1z" transform="translate(5.7 38.55)"/><path id="au" fill="#fff" fill-opacity=".3" d="M72.4-37.3q30 15.2 30.1 36.8 0 21.7-30.1 36.9Q42.4 51.8 0 51.8t-72.5-15.4q-30-15.2-30-36.8 0-21.7 30-37 23.4-11.9 54.4-14.3-26.1 3-46.2 13.2Q-92-24.4-92-4.5q0 20 27.7 34.1t67 14.2 66.9-14.2 27.7-34q0-20-27.7-34.1l-9.1-4.1q6.2 2.3 11.9 5.3" transform="translate(102.5 51.75)"/><path id="at" fill="#fff" fill-opacity=".1" d="M72.4-37.3q30 15.2 30.1 36.8 0 21.7-30.1 36.9Q42.4 51.8 0 51.8t-72.5-15.4q-30-15.2-30-36.8 0-21.7 30-37 23.4-11.9 54.4-14.3-26.1 3-46.2 13.2Q-92-24.4-92-4.5q0 20 27.7 34.1t67 14.2 66.9-14.2 27.7-34q0-20-27.7-34.1l-9.1-4.1q6.2 2.3 11.9 5.3" transform="translate(102.5 51.75)"/><g id="u"><path fill="#e6dbc4" d="M.6 12.8Q1.4 8 8.3 4.4 16 .5 27 .5t18.8 4 7.7 9.5l-.1 1.5q-1 4.6-7.6 8l-1 .5q-7.4 3.5-17.8 3.5l-6.9-.5q-6.7-.8-11.9-3.5-6.6-3.4-7.5-8v-.1l-.1-.2z"/><path fill="#bca85c" d="m53.4 15.5-.7 4.4q-1.8 12.6-2.5 25.4-.6 11.8-.2 23.9.5 14.1 2.4 28.6l.1 1 .9 6-.4.3q.5 1.4.5 2.9 0 5.5-7.7 9.5l-1 .5-.5-4-.1-1.3-.2-2.2Q42.2 94.8 41.9 79v-2.4q-.3-13.5.5-26.8Q43 40 44 30.5v-.3l4-5.9 4.7-4.4-4.7 4.4-4 5.9.8-6.2 1-.5q6.6-3.4 7.6-8M47 25.2l1-.9z"/><path fill="#d8cc9e" d="M44.8 118q-3.7 1.7-8 2.6l-9.8.9-6.9-.5.4-4.6.3-3.4v-1.3q1-16.4 1.1-32.8.2-12.4-.2-24.8l-.8-17.6-.1-.4.2-.8 1.4-5.7L39 28.4l-.7.3.6-.3 3.8-1.8 1.4 3.8-.5.6.5-.6v.2q-1 9.5-1.6 19-.8 13.4-.5 26.9v2.4q.3 15.8 2 31.6l.3 2.2.1 1.3z"/><path fill="#cbbc81" d="M20.2 121q-6.7-.8-12-3.5-7.7-4-7.7-9.5l.1-1.3.8-4.5v-.6l.2-.5.5-4.2q2.2-15.4 2.5-30.7Q4.8 55.1 4 44q-.8-11.4-2.5-22.7l-1-5.8q1 4.6 7.7 8Q13.4 26.2 20 27l.6 7.7.1 1.4v.4l.8 17.6q.4 12.4.3 24.8-.1 16.4-1.1 32.8v1.3l-.3 3.4zm-10-92.7-.2-.2h.2-.2zv-.2zl1.6 1.3zl3 11.8L12 64.6l1.3-24.3zm8.6.8H18l-8-1 8 1zM1.6 21.2l8.3 7-1.2-.2 1.2.1zm16.4 8 2.7 5.6z"/><path fill="#a99545" d="M44 30.2v.4-.2l-1.4-3.8.6-.3-.6.3-.1-.5.1.5-3.7 1.8-16.4 1.2-1.5 5.7-.2.8-.1-1.4-.6-7.7 6.9.5q10.4 0 17.8-3.5zl-.1.2zm-23 5.1-.3-.6zm1.6-6.2-.2.5h-.7.8z"/><path fill="none" stroke="#7d6c46" stroke-linecap="round" stroke-linejoin="round" stroke-width="1" d="M.6 12.8Q1.4 8 8.3 4.4 16 .5 27 .5t18.8 4 7.7 9.5l-.1 1.5m-.4 89.6q.5 1.4.5 2.9 0 5.5-7.7 9.5l-1 .5q-3.7 1.7-8 2.6l-9.8.9-6.9-.5q-6.7-.8-11.9-3.5-7.7-4-7.7-9.5l.1-1.3m0-91.4L.5 14l.1-1.2m52.8 2.7-.7 4.4q-1.8 12.6-2.5 25.4-.6 11.8-.2 23.9.5 14.1 2.4 28.6l.1 1 .9 6m-52.8 2 .7-4.5v-.6l.2-.5L2 97q2.2-15.4 2.5-30.7Q4.8 55.1 4 44q-.8-11.4-2.5-22.7l-1-5.8"/><path fill="none" stroke="#716242" stroke-linecap="round" stroke-linejoin="round" stroke-opacity=".4" stroke-width="1" d="M.6 15.5v-.3"/><path fill="none" stroke="#5a512e" stroke-linecap="round" stroke-linejoin="round" stroke-width="__RESOLUTION__" d="M52.7 19.9 48 24.3l-4 5.9v.2l-.5.6m-1-4.9.1.5.6-.3m-5 2.4.6-.3-16.3 1.2-1.5 5.7-.2.8v.4m23.2-6v-.1l-1.4-3.8-3.7 1.8m-18.2 6.3.3.6m27-11-1 .9m-37 3 .2.1 1.6 1.3m-1.6-1.5 7.9 1h.7M8.7 28l1.2.1-8.3-6.9m20 8.5.8-.1.2-.5m-1.9 5.6L18 29" vector-effect="non-scaling-stroke"/><path fill="none" stroke="#5a512e" stroke-linecap="round" stroke-linejoin="round" stroke-opacity=".5" stroke-width="__RESOLUTION__" d="M10.1 28.3v-.2m0 .2 3 11.8L12 64.6" vector-effect="non-scaling-stroke"/></g><g id="z"><path fill="#807a6d" d="M.6 12.8Q1.4 8 8.3 4.4 16 .5 27 .5t18.8 4 7.7 9.5l-.1 1.5q-1 4.6-7.6 8l-1 .5q-7.4 3.5-17.8 3.5l-6.9-.5q-6.7-.8-11.9-3.5-6.6-3.4-7.5-8v-.1l-.1-.2z"/><path fill="#695d33" d="m53.4 15.5-.7 4.4q-1.8 12.6-2.5 25.4-.6 11.8-.2 23.9.5 14.1 2.4 28.6l.1 1 .9 6-.4.3q.5 1.4.5 2.9 0 5.5-7.7 9.5l-1 .5-.5-4-.1-1.3-.2-2.2Q42.2 94.8 41.9 79v-2.4q-.3-13.5.5-26.8Q43 40 44 30.5v-.3l4-5.9 4.7-4.4-4.7 4.4-4 5.9.8-6.2 1-.5q6.6-3.4 7.6-8M47 25.2l1-.9z"/><path fill="#787158" d="M44.8 118q-3.7 1.7-8 2.6l-9.8.9-6.9-.5.4-4.6.3-3.4v-1.3q1-16.4 1.1-32.8.2-12.4-.2-24.8l-.8-17.6-.1-.4.2-.8 1.4-5.7L39 28.4l-.7.3.6-.3 3.8-1.8 1.4 3.8-.5.6.5-.6v.2q-1 9.5-1.6 19-.8 13.4-.5 26.9v2.4q.3 15.8 2 31.6l.3 2.2.1 1.3z"/><path fill="#716948" d="M20.2 121q-6.7-.8-12-3.5-7.7-4-7.7-9.5l.1-1.3.8-4.5v-.6l.2-.5.5-4.2q2.2-15.4 2.5-30.7Q4.8 55.1 4 44q-.8-11.4-2.5-22.7l-1-5.8q1 4.6 7.7 8Q13.4 26.2 20 27l.6 7.7.1 1.4v.4l.8 17.6q.4 12.4.3 24.8-.1 16.4-1.1 32.8v1.3l-.3 3.4zm-10-92.7-.2-.2h.2-.2zv-.2zl1.6 1.3zl3 11.8L12 64.6l1.3-24.3zm8.6.8H18l-8-1 8 1zM1.6 21.2l8.3 7-1.2-.2 1.2.1zm16.4 8 2.7 5.6z"/><path fill="#5e5326" d="M44 30.2v.4-.2l-1.4-3.8.6-.3-.6.3-.1-.5.1.5-3.7 1.8-16.4 1.2-1.5 5.7-.2.8-.1-1.4-.6-7.7 6.9.5q10.4 0 17.8-3.5zl-.1.2zm-23 5.1-.3-.6zm1.6-6.2-.2.5h-.7.8z"/><path fill="none" stroke="#453c27" stroke-linecap="round" stroke-linejoin="round" stroke-width="1" d="M.6 12.8Q1.4 8 8.3 4.4 16 .5 27 .5t18.8 4 7.7 9.5l-.1 1.5m-.4 89.6q.5 1.4.5 2.9 0 5.5-7.7 9.5l-1 .5q-3.7 1.7-8 2.6l-9.8.9-6.9-.5q-6.7-.8-11.9-3.5-7.7-4-7.7-9.5l.1-1.3m0-91.4L.5 14l.1-1.2m52.8 2.7-.7 4.4q-1.8 12.6-2.5 25.4-.6 11.8-.2 23.9.5 14.1 2.4 28.6l.1 1 .9 6m-52.8 2 .7-4.5v-.6l.2-.5L2 97q2.2-15.4 2.5-30.7Q4.8 55.1 4 44q-.8-11.4-2.5-22.7l-1-5.8"/><path fill="none" stroke="#3f3624" stroke-linecap="round" stroke-linejoin="round" stroke-opacity=".4" stroke-width="1" d="M.6 15.5v-.3"/><path fill="none" stroke="#322d19" stroke-linecap="round" stroke-linejoin="round" stroke-width="__RESOLUTION__" d="M52.7 19.9 48 24.3l-4 5.9v.2l-.5.6m-1-4.9.1.5.6-.3m-5 2.4.6-.3-16.3 1.2-1.5 5.7-.2.8v.4m23.2-6v-.1l-1.4-3.8-3.7 1.8m-18.2 6.3.3.6m27-11-1 .9m-37 3 .2.1 1.6 1.3m-1.6-1.5 7.9 1h.7M8.7 28l1.2.1-8.3-6.9m20 8.5.8-.1.2-.5m-1.9 5.6L18 29" vector-effect="non-scaling-stroke"/><path fill="none" stroke="#322d19" stroke-linecap="round" stroke-linejoin="round" stroke-opacity=".5" stroke-width="__RESOLUTION__" d="M10.1 28.3v-.2m0 .2 3 11.8L12 64.6" vector-effect="non-scaling-stroke"/></g><g id="D"><path fill="#c8beaa" d="M.6 12.8Q1.4 8 8.3 4.4 16 .5 27 .5t18.8 4 7.7 9.5l-.1 1.5q-1 4.6-7.6 8l-1 .5q-7.4 3.5-17.8 3.5l-6.9-.5q-6.7-.8-11.9-3.5-6.6-3.4-7.5-8v-.1l-.1-.2z"/><path fill="#a39250" d="m53.4 15.5-.7 4.4q-1.8 12.6-2.5 25.4-.6 11.8-.2 23.9.5 14.1 2.4 28.6l.1 1 .9 6-.4.3q.5 1.4.5 2.9 0 5.5-7.7 9.5l-1 .5-.5-4-.1-1.3-.2-2.2Q42.2 94.8 41.9 79v-2.4q-.3-13.5.5-26.8Q43 40 44 30.5v-.3l4-5.9 4.7-4.4-4.7 4.4-4 5.9.8-6.2 1-.5q6.6-3.4 7.6-8M47 25.2l1-.9z"/><path fill="#bcb189" d="M44.8 118q-3.7 1.7-8 2.6l-9.8.9-6.9-.5.4-4.6.3-3.4v-1.3q1-16.4 1.1-32.8.2-12.4-.2-24.8l-.8-17.6-.1-.4.2-.8 1.4-5.7L39 28.4l-.7.3.6-.3 3.8-1.8 1.4 3.8-.5.6.5-.6v.2q-1 9.5-1.6 19-.8 13.4-.5 26.9v2.4q.3 15.8 2 31.6l.3 2.2.1 1.3z"/><path fill="#b0a370" d="M20.2 121q-6.7-.8-12-3.5-7.7-4-7.7-9.5l.1-1.3.8-4.5v-.6l.2-.5.5-4.2q2.2-15.4 2.5-30.7Q4.8 55.1 4 44q-.8-11.4-2.5-22.7l-1-5.8q1 4.6 7.7 8Q13.4 26.2 20 27l.6 7.7.1 1.4v.4l.8 17.6q.4 12.4.3 24.8-.1 16.4-1.1 32.8v1.3l-.3 3.4zm-10-92.7-.2-.2h.2-.2zv-.2zl1.6 1.3zl3 11.8L12 64.6l1.3-24.3zm8.6.8H18l-8-1 8 1zM1.6 21.2l8.3 7-1.2-.2 1.2.1zm16.4 8 2.7 5.6z"/><path fill="#93813c" d="M44 30.2v.4-.2l-1.4-3.8.6-.3-.6.3-.1-.5.1.5-3.7 1.8-16.4 1.2-1.5 5.7-.2.8-.1-1.4-.6-7.7 6.9.5q10.4 0 17.8-3.5zl-.1.2zm-23 5.1-.3-.6zm1.6-6.2-.2.5h-.7.8z"/><path fill="none" stroke="#6c5e3c" stroke-linecap="round" stroke-linejoin="round" stroke-width="1" d="M.6 12.8Q1.4 8 8.3 4.4 16 .5 27 .5t18.8 4 7.7 9.5l-.1 1.5m-.4 89.6q.5 1.4.5 2.9 0 5.5-7.7 9.5l-1 .5q-3.7 1.7-8 2.6l-9.8.9-6.9-.5q-6.7-.8-11.9-3.5-7.7-4-7.7-9.5l.1-1.3m0-91.4L.5 14l.1-1.2m52.8 2.7-.7 4.4q-1.8 12.6-2.5 25.4-.6 11.8-.2 23.9.5 14.1 2.4 28.6l.1 1 .9 6m-52.8 2 .7-4.5v-.6l.2-.5L2 97q2.2-15.4 2.5-30.7Q4.8 55.1 4 44q-.8-11.4-2.5-22.7l-1-5.8"/><path fill="none" stroke="#625539" stroke-linecap="round" stroke-linejoin="round" stroke-opacity=".4" stroke-width="1" d="M.6 15.5v-.3"/><path fill="none" stroke="#4e4628" stroke-linecap="round" stroke-linejoin="round" stroke-width="__RESOLUTION__" d="M52.7 19.9 48 24.3l-4 5.9v.2l-.5.6m-1-4.9.1.5.6-.3m-5 2.4.6-.3-16.3 1.2-1.5 5.7-.2.8v.4m23.2-6v-.1l-1.4-3.8-3.7 1.8m-18.2 6.3.3.6m27-11-1 .9m-37 3 .2.1 1.6 1.3m-1.6-1.5 7.9 1h.7M8.7 28l1.2.1-8.3-6.9m20 8.5.8-.1.2-.5m-1.9 5.6L18 29" vector-effect="non-scaling-stroke"/><path fill="none" stroke="#4e4628" stroke-linecap="round" stroke-linejoin="round" stroke-opacity=".5" stroke-width="__RESOLUTION__" d="M10.1 28.3v-.2m0 .2 3 11.8L12 64.6" vector-effect="non-scaling-stroke"/></g><g id="H"><path fill="#c3baa6" d="M.6 12.8Q1.4 8 8.3 4.4 16 .5 27 .5t18.8 4 7.7 9.5l-.1 1.5q-1 4.6-7.6 8l-1 .5q-7.4 3.5-17.8 3.5l-6.9-.5q-6.7-.8-11.9-3.5-6.6-3.4-7.5-8v-.1l-.1-.2z"/><path fill="#a08f4e" d="m53.4 15.5-.7 4.4q-1.8 12.6-2.5 25.4-.6 11.8-.2 23.9.5 14.1 2.4 28.6l.1 1 .9 6-.4.3q.5 1.4.5 2.9 0 5.5-7.7 9.5l-1 .5-.5-4-.1-1.3-.2-2.2Q42.2 94.8 41.9 79v-2.4q-.3-13.5.5-26.8Q43 40 44 30.5v-.3l4-5.9 4.7-4.4-4.7 4.4-4 5.9.8-6.2 1-.5q6.6-3.4 7.6-8M47 25.2l1-.9z"/><path fill="#b7ad86" d="M44.8 118q-3.7 1.7-8 2.6l-9.8.9-6.9-.5.4-4.6.3-3.4v-1.3q1-16.4 1.1-32.8.2-12.4-.2-24.8l-.8-17.6-.1-.4.2-.8 1.4-5.7L39 28.4l-.7.3.6-.3 3.8-1.8 1.4 3.8-.5.6.5-.6v.2q-1 9.5-1.6 19-.8 13.4-.5 26.9v2.4q.3 15.8 2 31.6l.3 2.2.1 1.3z"/><path fill="#aca06d" d="M20.2 121q-6.7-.8-12-3.5-7.7-4-7.7-9.5l.1-1.3.8-4.5v-.6l.2-.5.5-4.2q2.2-15.4 2.5-30.7Q4.8 55.1 4 44q-.8-11.4-2.5-22.7l-1-5.8q1 4.6 7.7 8Q13.4 26.2 20 27l.6 7.7.1 1.4v.4l.8 17.6q.4 12.4.3 24.8-.1 16.4-1.1 32.8v1.3l-.3 3.4zm-10-92.7-.2-.2h.2-.2zv-.2zl1.6 1.3zl3 11.8L12 64.6l1.3-24.3zm8.6.8H18l-8-1 8 1zM1.6 21.2l8.3 7-1.2-.2 1.2.1zm16.4 8 2.7 5.6z"/><path fill="#8f7e3a" d="M44 30.2v.4-.2l-1.4-3.8.6-.3-.6.3-.1-.5.1.5-3.7 1.8-16.4 1.2-1.5 5.7-.2.8-.1-1.4-.6-7.7 6.9.5q10.4 0 17.8-3.5zl-.1.2zm-23 5.1-.3-.6zm1.6-6.2-.2.5h-.7.8z"/><path fill="none" stroke="#6a5b3b" stroke-linecap="round" stroke-linejoin="round" stroke-width="1" d="M.6 12.8Q1.4 8 8.3 4.4 16 .5 27 .5t18.8 4 7.7 9.5l-.1 1.5m-.4 89.6q.5 1.4.5 2.9 0 5.5-7.7 9.5l-1 .5q-3.7 1.7-8 2.6l-9.8.9-6.9-.5q-6.7-.8-11.9-3.5-7.7-4-7.7-9.5l.1-1.3m0-91.4L.5 14l.1-1.2m52.8 2.7-.7 4.4q-1.8 12.6-2.5 25.4-.6 11.8-.2 23.9.5 14.1 2.4 28.6l.1 1 .9 6m-52.8 2 .7-4.5v-.6l.2-.5L2 97q2.2-15.4 2.5-30.7Q4.8 55.1 4 44q-.8-11.4-2.5-22.7l-1-5.8"/><path fill="none" stroke="#605338" stroke-linecap="round" stroke-linejoin="round" stroke-opacity=".4" stroke-width="1" d="M.6 15.5v-.3"/><path fill="none" stroke="#4c4427" stroke-linecap="round" stroke-linejoin="round" stroke-width="__RESOLUTION__" d="M52.7 19.9 48 24.3l-4 5.9v.2l-.5.6m-1-4.9.1.5.6-.3m-5 2.4.6-.3-16.3 1.2-1.5 5.7-.2.8v.4m23.2-6v-.1l-1.4-3.8-3.7 1.8m-18.2 6.3.3.6m27-11-1 .9m-37 3 .2.1 1.6 1.3m-1.6-1.5 7.9 1h.7M8.7 28l1.2.1-8.3-6.9m20 8.5.8-.1.2-.5m-1.9 5.6L18 29" vector-effect="non-scaling-stroke"/><path fill="none" stroke="#4c4427" stroke-linecap="round" stroke-linejoin="round" stroke-opacity=".5" stroke-width="__RESOLUTION__" d="M10.1 28.3v-.2m0 .2 3 11.8L12 64.6" vector-effect="non-scaling-stroke"/></g><g id="L"><path fill="#958e7f" d="M.6 12.8Q1.4 8 8.3 4.4 16 .5 27 .5t18.8 4 7.7 9.5l-.1 1.5q-1 4.6-7.6 8l-1 .5q-7.4 3.5-17.8 3.5l-6.9-.5q-6.7-.8-11.9-3.5-6.6-3.4-7.5-8v-.1l-.1-.2z"/><path fill="#796c3b" d="m53.4 15.5-.7 4.4q-1.8 12.6-2.5 25.4-.6 11.8-.2 23.9.5 14.1 2.4 28.6l.1 1 .9 6-.4.3q.5 1.4.5 2.9 0 5.5-7.7 9.5l-1 .5-.5-4-.1-1.3-.2-2.2Q42.2 94.8 41.9 79v-2.4q-.3-13.5.5-26.8Q43 40 44 30.5v-.3l4-5.9 4.7-4.4-4.7 4.4-4 5.9.8-6.2 1-.5q6.6-3.4 7.6-8M47 25.2l1-.9z"/><path fill="#8c8466" d="M44.8 118q-3.7 1.7-8 2.6l-9.8.9-6.9-.5.4-4.6.3-3.4v-1.3q1-16.4 1.1-32.8.2-12.4-.2-24.8l-.8-17.6-.1-.4.2-.8 1.4-5.7L39 28.4l-.7.3.6-.3 3.8-1.8 1.4 3.8-.5.6.5-.6v.2q-1 9.5-1.6 19-.8 13.4-.5 26.9v2.4q.3 15.8 2 31.6l.3 2.2.1 1.3z"/><path fill="#837953" d="M20.2 121q-6.7-.8-12-3.5-7.7-4-7.7-9.5l.1-1.3.8-4.5v-.6l.2-.5.5-4.2q2.2-15.4 2.5-30.7Q4.8 55.1 4 44q-.8-11.4-2.5-22.7l-1-5.8q1 4.6 7.7 8Q13.4 26.2 20 27l.6 7.7.1 1.4v.4l.8 17.6q.4 12.4.3 24.8-.1 16.4-1.1 32.8v1.3l-.3 3.4zm-10-92.7-.2-.2h.2-.2zv-.2zl1.6 1.3zl3 11.8L12 64.6l1.3-24.3zm8.6.8H18l-8-1 8 1zM1.6 21.2l8.3 7-1.2-.2 1.2.1zm16.4 8 2.7 5.6z"/><path fill="#6d602c" d="M44 30.2v.4-.2l-1.4-3.8.6-.3-.6.3-.1-.5.1.5-3.7 1.8-16.4 1.2-1.5 5.7-.2.8-.1-1.4-.6-7.7 6.9.5q10.4 0 17.8-3.5zl-.1.2zm-23 5.1-.3-.6zm1.6-6.2-.2.5h-.7.8z"/><path fill="none" stroke="#51462d" stroke-linecap="round" stroke-linejoin="round" stroke-width="1" d="M.6 12.8Q1.4 8 8.3 4.4 16 .5 27 .5t18.8 4 7.7 9.5l-.1 1.5m-.4 89.6q.5 1.4.5 2.9 0 5.5-7.7 9.5l-1 .5q-3.7 1.7-8 2.6l-9.8.9-6.9-.5q-6.7-.8-11.9-3.5-7.7-4-7.7-9.5l.1-1.3m0-91.4L.5 14l.1-1.2m52.8 2.7-.7 4.4q-1.8 12.6-2.5 25.4-.6 11.8-.2 23.9.5 14.1 2.4 28.6l.1 1 .9 6m-52.8 2 .7-4.5v-.6l.2-.5L2 97q2.2-15.4 2.5-30.7Q4.8 55.1 4 44q-.8-11.4-2.5-22.7l-1-5.8"/><path fill="none" stroke="#493f2a" stroke-linecap="round" stroke-linejoin="round" stroke-opacity=".4" stroke-width="1" d="M.6 15.5v-.3"/><path fill="none" stroke="#3a341d" stroke-linecap="round" stroke-linejoin="round" stroke-width="__RESOLUTION__" d="M52.7 19.9 48 24.3l-4 5.9v.2l-.5.6m-1-4.9.1.5.6-.3m-5 2.4.6-.3-16.3 1.2-1.5 5.7-.2.8v.4m23.2-6v-.1l-1.4-3.8-3.7 1.8m-18.2 6.3.3.6m27-11-1 .9m-37 3 .2.1 1.6 1.3m-1.6-1.5 7.9 1h.7M8.7 28l1.2.1-8.3-6.9m20 8.5.8-.1.2-.5m-1.9 5.6L18 29" vector-effect="non-scaling-stroke"/><path fill="none" stroke="#3a341d" stroke-linecap="round" stroke-linejoin="round" stroke-opacity=".5" stroke-width="__RESOLUTION__" d="M10.1 28.3v-.2m0 .2 3 11.8L12 64.6" vector-effect="non-scaling-stroke"/></g><g id="P"><path fill="#9a9383" d="M.6 12.8Q1.4 8 8.3 4.4 16 .5 27 .5t18.8 4 7.7 9.5l-.1 1.5q-1 4.6-7.6 8l-1 .5q-7.4 3.5-17.8 3.5l-6.9-.5q-6.7-.8-11.9-3.5-6.6-3.4-7.5-8v-.1l-.1-.2z"/><path fill="#7e703d" d="m53.4 15.5-.7 4.4q-1.8 12.6-2.5 25.4-.6 11.8-.2 23.9.5 14.1 2.4 28.6l.1 1 .9 6-.4.3q.5 1.4.5 2.9 0 5.5-7.7 9.5l-1 .5-.5-4-.1-1.3-.2-2.2Q42.2 94.8 41.9 79v-2.4q-.3-13.5.5-26.8Q43 40 44 30.5v-.3l4-5.9 4.7-4.4-4.7 4.4-4 5.9.8-6.2 1-.5q6.6-3.4 7.6-8M47 25.2l1-.9z"/><path fill="#91896a" d="M44.8 118q-3.7 1.7-8 2.6l-9.8.9-6.9-.5.4-4.6.3-3.4v-1.3q1-16.4 1.1-32.8.2-12.4-.2-24.8l-.8-17.6-.1-.4.2-.8 1.4-5.7L39 28.4l-.7.3.6-.3 3.8-1.8 1.4 3.8-.5.6.5-.6v.2q-1 9.5-1.6 19-.8 13.4-.5 26.9v2.4q.3 15.8 2 31.6l.3 2.2.1 1.3z"/><path fill="#887e56" d="M20.2 121q-6.7-.8-12-3.5-7.7-4-7.7-9.5l.1-1.3.8-4.5v-.6l.2-.5.5-4.2q2.2-15.4 2.5-30.7Q4.8 55.1 4 44q-.8-11.4-2.5-22.7l-1-5.8q1 4.6 7.7 8Q13.4 26.2 20 27l.6 7.7.1 1.4v.4l.8 17.6q.4 12.4.3 24.8-.1 16.4-1.1 32.8v1.3l-.3 3.4zm-10-92.7-.2-.2h.2-.2zv-.2zl1.6 1.3zl3 11.8L12 64.6l1.3-24.3zm8.6.8H18l-8-1 8 1zM1.6 21.2l8.3 7-1.2-.2 1.2.1zm16.4 8 2.7 5.6z"/><path fill="#71642e" d="M44 30.2v.4-.2l-1.4-3.8.6-.3-.6.3-.1-.5.1.5-3.7 1.8-16.4 1.2-1.5 5.7-.2.8-.1-1.4-.6-7.7 6.9.5q10.4 0 17.8-3.5zl-.1.2zm-23 5.1-.3-.6zm1.6-6.2-.2.5h-.7.8z"/><path fill="none" stroke="#53482f" stroke-linecap="round" stroke-linejoin="round" stroke-width="1" d="M.6 12.8Q1.4 8 8.3 4.4 16 .5 27 .5t18.8 4 7.7 9.5l-.1 1.5m-.4 89.6q.5 1.4.5 2.9 0 5.5-7.7 9.5l-1 .5q-3.7 1.7-8 2.6l-9.8.9-6.9-.5q-6.7-.8-11.9-3.5-7.7-4-7.7-9.5l.1-1.3m0-91.4L.5 14l.1-1.2m52.8 2.7-.7 4.4q-1.8 12.6-2.5 25.4-.6 11.8-.2 23.9.5 14.1 2.4 28.6l.1 1 .9 6m-52.8 2 .7-4.5v-.6l.2-.5L2 97q2.2-15.4 2.5-30.7Q4.8 55.1 4 44q-.8-11.4-2.5-22.7l-1-5.8"/><path fill="none" stroke="#4b412c" stroke-linecap="round" stroke-linejoin="round" stroke-opacity=".4" stroke-width="1" d="M.6 15.5v-.3"/><path fill="none" stroke="#3c361e" stroke-linecap="round" stroke-linejoin="round" stroke-width="__RESOLUTION__" d="M52.7 19.9 48 24.3l-4 5.9v.2l-.5.6m-1-4.9.1.5.6-.3m-5 2.4.6-.3-16.3 1.2-1.5 5.7-.2.8v.4m23.2-6v-.1l-1.4-3.8-3.7 1.8m-18.2 6.3.3.6m27-11-1 .9m-37 3 .2.1 1.6 1.3m-1.6-1.5 7.9 1h.7M8.7 28l1.2.1-8.3-6.9m20 8.5.8-.1.2-.5m-1.9 5.6L18 29" vector-effect="non-scaling-stroke"/><path fill="none" stroke="#3c361e" stroke-linecap="round" stroke-linejoin="round" stroke-opacity=".5" stroke-width="__RESOLUTION__" d="M10.1 28.3v-.2m0 .2 3 11.8L12 64.6" vector-effect="non-scaling-stroke"/></g><g id="T"><path fill="#b8af9c" d="M.6 12.8Q1.4 8 8.3 4.4 16 .5 27 .5t18.8 4 7.7 9.5l-.1 1.5q-1 4.6-7.6 8l-1 .5q-7.4 3.5-17.8 3.5l-6.9-.5q-6.7-.8-11.9-3.5-6.6-3.4-7.5-8v-.1l-.1-.2z"/><path fill="#968649" d="m53.4 15.5-.7 4.4q-1.8 12.6-2.5 25.4-.6 11.8-.2 23.9.5 14.1 2.4 28.6l.1 1 .9 6-.4.3q.5 1.4.5 2.9 0 5.5-7.7 9.5l-1 .5-.5-4-.1-1.3-.2-2.2Q42.2 94.8 41.9 79v-2.4q-.3-13.5.5-26.8Q43 40 44 30.5v-.3l4-5.9 4.7-4.4-4.7 4.4-4 5.9.8-6.2 1-.5q6.6-3.4 7.6-8M47 25.2l1-.9z"/><path fill="#aca37e" d="M44.8 118q-3.7 1.7-8 2.6l-9.8.9-6.9-.5.4-4.6.3-3.4v-1.3q1-16.4 1.1-32.8.2-12.4-.2-24.8l-.8-17.6-.1-.4.2-.8 1.4-5.7L39 28.4l-.7.3.6-.3 3.8-1.8 1.4 3.8-.5.6.5-.6v.2q-1 9.5-1.6 19-.8 13.4-.5 26.9v2.4q.3 15.8 2 31.6l.3 2.2.1 1.3z"/><path fill="#a29667" d="M20.2 121q-6.7-.8-12-3.5-7.7-4-7.7-9.5l.1-1.3.8-4.5v-.6l.2-.5.5-4.2q2.2-15.4 2.5-30.7Q4.8 55.1 4 44q-.8-11.4-2.5-22.7l-1-5.8q1 4.6 7.7 8Q13.4 26.2 20 27l.6 7.7.1 1.4v.4l.8 17.6q.4 12.4.3 24.8-.1 16.4-1.1 32.8v1.3l-.3 3.4zm-10-92.7-.2-.2h.2-.2zv-.2zl1.6 1.3zl3 11.8L12 64.6l1.3-24.3zm8.6.8H18l-8-1 8 1zM1.6 21.2l8.3 7-1.2-.2 1.2.1zm16.4 8 2.7 5.6z"/><path fill="#877737" d="M44 30.2v.4-.2l-1.4-3.8.6-.3-.6.3-.1-.5.1.5-3.7 1.8-16.4 1.2-1.5 5.7-.2.8-.1-1.4-.6-7.7 6.9.5q10.4 0 17.8-3.5zl-.1.2zm-23 5.1-.3-.6zm1.6-6.2-.2.5h-.7.8z"/><path fill="none" stroke="#645638" stroke-linecap="round" stroke-linejoin="round" stroke-width="1" d="M.6 12.8Q1.4 8 8.3 4.4 16 .5 27 .5t18.8 4 7.7 9.5l-.1 1.5m-.4 89.6q.5 1.4.5 2.9 0 5.5-7.7 9.5l-1 .5q-3.7 1.7-8 2.6l-9.8.9-6.9-.5q-6.7-.8-11.9-3.5-7.7-4-7.7-9.5l.1-1.3m0-91.4L.5 14l.1-1.2m52.8 2.7-.7 4.4q-1.8 12.6-2.5 25.4-.6 11.8-.2 23.9.5 14.1 2.4 28.6l.1 1 .9 6m-52.8 2 .7-4.5v-.6l.2-.5L2 97q2.2-15.4 2.5-30.7Q4.8 55.1 4 44q-.8-11.4-2.5-22.7l-1-5.8"/><path fill="none" stroke="#5a4e34" stroke-linecap="round" stroke-linejoin="round" stroke-opacity=".4" stroke-width="1" d="M.6 15.5v-.3"/><path fill="none" stroke="#484024" stroke-linecap="round" stroke-linejoin="round" stroke-width="__RESOLUTION__" d="M52.7 19.9 48 24.3l-4 5.9v.2l-.5.6m-1-4.9.1.5.6-.3m-5 2.4.6-.3-16.3 1.2-1.5 5.7-.2.8v.4m23.2-6v-.1l-1.4-3.8-3.7 1.8m-18.2 6.3.3.6m27-11-1 .9m-37 3 .2.1 1.6 1.3m-1.6-1.5 7.9 1h.7M8.7 28l1.2.1-8.3-6.9m20 8.5.8-.1.2-.5m-1.9 5.6L18 29" vector-effect="non-scaling-stroke"/><path fill="none" stroke="#484024" stroke-linecap="round" stroke-linejoin="round" stroke-opacity=".5" stroke-width="__RESOLUTION__" d="M10.1 28.3v-.2m0 .2 3 11.8L12 64.6" vector-effect="non-scaling-stroke"/></g><g id="X"><path fill="#a6a477" d="M.6 12.8Q1.4 8 8.3 4.4 16 .5 27 .5t18.8 4 7.7 9.5l-.1 1.5q-1 4.6-7.6 8l-1 .5q-7.4 3.5-17.8 3.5l-6.9-.5q-6.7-.8-11.9-3.5-6.6-3.4-7.5-8v-.1l-.1-.2z"/><path fill="#9e9b64" d="m53.4 15.5-.7 4.4q-1.8 12.6-2.5 25.4-.6 11.8-.2 23.9.5 14.1 2.4 28.6l.1 1 .9 6-.4.3q.5 1.4.5 2.9 0 5.5-7.7 9.5l-1 .5-.5-4-.1-1.3-.2-2.2Q42.2 94.8 41.9 79v-2.4q-.3-13.5.5-26.8Q43 40 44 30.5v-.3l4-5.9 4.7-4.4-4.7 4.4-4 5.9.8-6.2 1-.5q6.6-3.4 7.6-8M47 25.2l1-.9z"/><path fill="#a3a170" d="M44.8 118q-3.7 1.7-8 2.6l-9.8.9-6.9-.5.4-4.6.3-3.4v-1.3q1-16.4 1.1-32.8.2-12.4-.2-24.8l-.8-17.6-.1-.4.2-.8 1.4-5.7L39 28.4l-.7.3.6-.3 3.8-1.8 1.4 3.8-.5.6.5-.6v.2q-1 9.5-1.6 19-.8 13.4-.5 26.9v2.4q.3 15.8 2 31.6l.3 2.2.1 1.3z"/><path fill="#a19e6b" d="M20.2 121q-6.7-.8-12-3.5-7.7-4-7.7-9.5l.1-1.3.8-4.5v-.6l.2-.5.5-4.2q2.2-15.4 2.5-30.7Q4.8 55.1 4 44q-.8-11.4-2.5-22.7l-1-5.8q1 4.6 7.7 8Q13.4 26.2 20 27l.6 7.7.1 1.4v.4l.8 17.6q.4 12.4.3 24.8-.1 16.4-1.1 32.8v1.3l-.3 3.4zm-10-92.7-.2-.2h.2-.2zv-.2zl1.6 1.3zl3 11.8L12 64.6l1.3-24.3zm8.6.8H18l-8-1 8 1zM1.6 21.2l8.3 7-1.2-.2 1.2.1zm16.4 8 2.7 5.6z"/><path fill="#9b9760" d="M44 30.2v.4-.2l-1.4-3.8.6-.3-.6.3-.1-.5.1.5-3.7 1.8-16.4 1.2-1.5 5.7-.2.8-.1-1.4-.6-7.7 6.9.5q10.4 0 17.8-3.5zl-.1.2zm-23 5.1-.3-.6zm1.6-6.2-.2.5h-.7.8z"/><path fill="none" stroke="#939060" stroke-linecap="round" stroke-linejoin="round" stroke-width="1" d="M.6 12.8Q1.4 8 8.3 4.4 16 .5 27 .5t18.8 4 7.7 9.5l-.1 1.5m-.4 89.6q.5 1.4.5 2.9 0 5.5-7.7 9.5l-1 .5q-3.7 1.7-8 2.6l-9.8.9-6.9-.5q-6.7-.8-11.9-3.5-7.7-4-7.7-9.5l.1-1.3m0-91.4L.5 14l.1-1.2m52.8 2.7-.7 4.4q-1.8 12.6-2.5 25.4-.6 11.8-.2 23.9.5 14.1 2.4 28.6l.1 1 .9 6m-52.8 2 .7-4.5v-.6l.2-.5L2 97q2.2-15.4 2.5-30.7Q4.8 55.1 4 44q-.8-11.4-2.5-22.7l-1-5.8"/><path fill="none" stroke="#918e5f" stroke-linecap="round" stroke-linejoin="round" stroke-opacity=".4" stroke-width="1" d="M.6 15.5v-.3"/><path fill="none" stroke="#8d8b5c" stroke-linecap="round" stroke-linejoin="round" stroke-width="__RESOLUTION__" d="M52.7 19.9 48 24.3l-4 5.9v.2l-.5.6m-1-4.9.1.5.6-.3m-5 2.4.6-.3-16.3 1.2-1.5 5.7-.2.8v.4m23.2-6v-.1l-1.4-3.8-3.7 1.8m-18.2 6.3.3.6m27-11-1 .9m-37 3 .2.1 1.6 1.3m-1.6-1.5 7.9 1h.7M8.7 28l1.2.1-8.3-6.9m20 8.5.8-.1.2-.5m-1.9 5.6L18 29" vector-effect="non-scaling-stroke"/><path fill="none" stroke="#8d8b5c" stroke-linecap="round" stroke-linejoin="round" stroke-opacity=".5" stroke-width="__RESOLUTION__" d="M10.1 28.3v-.2m0 .2 3 11.8L12 64.6" vector-effect="non-scaling-stroke"/></g><g id="ab"><path fill="#5a6a41" d="M.6 12.8Q1.4 8 8.3 4.4 16 .5 27 .5t18.8 4 7.7 9.5l-.1 1.5q-1 4.6-7.6 8l-1 .5q-7.4 3.5-17.8 3.5l-6.9-.5q-6.7-.8-11.9-3.5-6.6-3.4-7.5-8v-.1l-.1-.2z"/><path fill="#52612e" d="m53.4 15.5-.7 4.4q-1.8 12.6-2.5 25.4-.6 11.8-.2 23.9.5 14.1 2.4 28.6l.1 1 .9 6-.4.3q.5 1.4.5 2.9 0 5.5-7.7 9.5l-1 .5-.5-4-.1-1.3-.2-2.2Q42.2 94.8 41.9 79v-2.4q-.3-13.5.5-26.8Q43 40 44 30.5v-.3l4-5.9 4.7-4.4-4.7 4.4-4 5.9.8-6.2 1-.5q6.6-3.4 7.6-8M47 25.2l1-.9z"/><path fill="#57673a" d="M44.8 118q-3.7 1.7-8 2.6l-9.8.9-6.9-.5.4-4.6.3-3.4v-1.3q1-16.4 1.1-32.8.2-12.4-.2-24.8l-.8-17.6-.1-.4.2-.8 1.4-5.7L39 28.4l-.7.3.6-.3 3.8-1.8 1.4 3.8-.5.6.5-.6v.2q-1 9.5-1.6 19-.8 13.4-.5 26.9v2.4q.3 15.8 2 31.6l.3 2.2.1 1.3z"/><path fill="#556435" d="M20.2 121q-6.7-.8-12-3.5-7.7-4-7.7-9.5l.1-1.3.8-4.5v-.6l.2-.5.5-4.2q2.2-15.4 2.5-30.7Q4.8 55.1 4 44q-.8-11.4-2.5-22.7l-1-5.8q1 4.6 7.7 8Q13.4 26.2 20 27l.6 7.7.1 1.4v.4l.8 17.6q.4 12.4.3 24.8-.1 16.4-1.1 32.8v1.3l-.3 3.4zm-10-92.7-.2-.2h.2-.2zv-.2zl1.6 1.3zl3 11.8L12 64.6l1.3-24.3zm8.6.8H18l-8-1 8 1zM1.6 21.2l8.3 7-1.2-.2 1.2.1zm16.4 8 2.7 5.6z"/><path fill="#4f5d2a" d="M44 30.2v.4-.2l-1.4-3.8.6-.3-.6.3-.1-.5.1.5-3.7 1.8-16.4 1.2-1.5 5.7-.2.8-.1-1.4-.6-7.7 6.9.5q10.4 0 17.8-3.5zl-.1.2zm-23 5.1-.3-.6zm1.6-6.2-.2.5h-.7.8z"/><path fill="none" stroke="#47562a" stroke-linecap="round" stroke-linejoin="round" stroke-width="1" d="M.6 12.8Q1.4 8 8.3 4.4 16 .5 27 .5t18.8 4 7.7 9.5l-.1 1.5m-.4 89.6q.5 1.4.5 2.9 0 5.5-7.7 9.5l-1 .5q-3.7 1.7-8 2.6l-9.8.9-6.9-.5q-6.7-.8-11.9-3.5-7.7-4-7.7-9.5l.1-1.3m0-91.4L.5 14l.1-1.2m52.8 2.7-.7 4.4q-1.8 12.6-2.5 25.4-.6 11.8-.2 23.9.5 14.1 2.4 28.6l.1 1 .9 6m-52.8 2 .7-4.5v-.6l.2-.5L2 97q2.2-15.4 2.5-30.7Q4.8 55.1 4 44q-.8-11.4-2.5-22.7l-1-5.8"/><path fill="none" stroke="#455429" stroke-linecap="round" stroke-linejoin="round" stroke-opacity=".4" stroke-width="1" d="M.6 15.5v-.3"/><path fill="none" stroke="#415126" stroke-linecap="round" stroke-linejoin="round" stroke-width="__RESOLUTION__" d="M52.7 19.9 48 24.3l-4 5.9v.2l-.5.6m-1-4.9.1.5.6-.3m-5 2.4.6-.3-16.3 1.2-1.5 5.7-.2.8v.4m23.2-6v-.1l-1.4-3.8-3.7 1.8m-18.2 6.3.3.6m27-11-1 .9m-37 3 .2.1 1.6 1.3m-1.6-1.5 7.9 1h.7M8.7 28l1.2.1-8.3-6.9m20 8.5.8-.1.2-.5m-1.9 5.6L18 29" vector-effect="non-scaling-stroke"/><path fill="none" stroke="#415126" stroke-linecap="round" stroke-linejoin="round" stroke-opacity=".5" stroke-width="__RESOLUTION__" d="M10.1 28.3v-.2m0 .2 3 11.8L12 64.6" vector-effect="non-scaling-stroke"/></g><g id="aw"><path fill="#63572e" d="M3.9 1.9v.8q0 1-.4 1.6-.4.8-1 .8L2 4.9l-.4-.6-.1-.1L.4 2.8l.3.1.5-.1.4-.3v-.1l1.2.6z"/><path fill="#ccbf91" d="M.4 2.8 0 2.5q-.2-.5 0-1L.7.4q.5-.4.9-.4l.3.1.3.3v1l-.5 1h-.1l-.4.4-.5.1z"/><path fill="#8b7b41" d="m1.9.1.7.3h.2q.5.2.8.7l.3.8-1.1 1-1.1-.5.5-1v-1z"/></g><g id="as"><path fill="#000" d="M56.4 51.4q-1.2 1.2-3 1.2-1.6 0-2.9-1.2-1.2-1.3-1.2-3t1.2-3 3-1.1q1.6-.1 2.9 1.2 1.3 1.2 1.3 2.9t-1.3 3M24.7 1.6l1.7-.5q7.4-2 13.3-.2l2.3 1q7.3 3.5 7.3 11.7t-7.2 16.3l-2.5 2.5-1.1 1q-5.4 4.7-12.1 7.2l-1.7.6Q14.3 44.4 7.1 41 0 37.4 0 29.2T7.2 13Q11.9 7.5 18 4.4q3.1-1.7 6.6-2.8"/><path fill="#fff" d="M27 15.5q1.8 0 3 1.2 1.2 1.3 1.2 3T30 22.5q-1.2 1.3-3 1.3-1.7 0-3-1.3-1.2-1.2-1.2-3 0-1.6 1.2-2.9 1.3-1.2 3-1.2"/><path fill="#000" d="M81.1 1.6q3.5 1.1 6.7 2.8 6 3.2 10.8 8.6 7.2 8 7.2 16.2T98.6 41q-7.3 3.4-17.5.2l-1.7-.6q-6.8-2.5-12.2-7.2l-1.1-1-2.4-2.5q-7.3-8.1-7.3-16.3t7.3-11.7l2.4-1q5.8-1.8 13.3.2z"/><path fill="#fff" d="M78.8 15.5q1.7 0 2.9 1.2 1.2 1.3 1.2 3t-1.2 2.9-3 1.3-2.9-1.3-1.2-3 1.2-2.9 3-1.2"/></g><g id="ar"><path fill="#000" fill-opacity=".1" d="M40.9 110 24.7 99.8q8.6-16.6 22-10l17.4 9.4L47.3 98z"/><path fill="url(#t)" d="M7.3 40.5 9.1 58l-9.4 9.7-10.9-8.8-3.9-22 1.8-20.3 12 3.5L6.3 19 8 34z" transform="translate(24.35 92.75)"/><path fill="#5e803c" d="m1 100-.7-6L0 77.3l8.3-7.1-.7 2.2 1.1 19.4 6.9 9.5 10.5 1.3-14.5 7Q5.3 106.4 1 100m16.6 11.8-1.4-.4 9.6.3z"/><path fill="#4c6531" d="M1 100q4.3 6.3 10.6 9.5l14.5-7 3.6.2 12.7 7.5-2.5 2.3q-4.9 3.4-18.2 3.3-7.7.1-17.2-6.8zm16.6 11.8h8.2l-9.6-.4z"/><path fill="none" stroke="#4f4d39" stroke-linecap="round" stroke-linejoin="round" stroke-width="__RESOLUTION__" d="m26.1 102.6-10.5-1.3-6.9-9.5-1.1-19.4.7-2.2-8.3 7L.3 94l.7 6 3.5 9q9.5 6.9 17.2 6.8 13.3.1 18.2-3.3l2.5-2.2-12.7-7.6z" vector-effect="non-scaling-stroke"/><path fill="#3c5225" d="m38.5 76.8-1 9.9-4.2-2.1-4.1-5.6 8.6-11.2q-1.6 6 .7 9M60.7 72l16.6 14-9 15-8.7-4.5-9.4-5.8 9.1-5.7z"/><path fill="#5e803c" d="m29.9 78.9.7 6-4 6.3-13.2 3.3L24 83.3z"/><path fill="#4c6531" d="m13.4 94.5 13.3-3.2 3.9-6.5-.7-5.9 2.2-.7q10.8 1 17.8 12.2-8.4-3.7-12.5-1.4-7.1 4-8.2 14l-13.5-1.2-3.7-5.6-.6.2z"/><path fill="none" stroke="#4f4d39" stroke-linecap="round" stroke-linejoin="round" stroke-width="__RESOLUTION__" d="m29.9 78.9-6 4.4-10.5 11.2-2 1.9m.6-.2 3.7 5.6 13.5 1.3q1-10 8.2-14.1 4-2.2 12.5 1.4-7-11.2-17.8-12.2l-2.2.7" vector-effect="non-scaling-stroke"/><path fill="#000" fill-opacity=".1" d="m40.4 36.1 11.5-4.6-8.1-2.4Q60 17.3 62 6.8L61.2 24l-9 7.5 8.7-3.5-1 23-9.2 7.6-11.5-3.4zm-13.1 4v24.4l-9.9 4.2-9.8-5.9-3.8-21z"/><path fill="#000" fill-opacity=".1" d="M63 23.7H41.7L41.8 4q6.7 7.6 20.6 8z"/><path fill="#eee9dd" d="M59.1 8.4 61.8 5l.8-5 2.9 3.7-1 15.3.7 5.6-2.9 6.4-14 6.9-21.6 8.6L56.3 31l4.5-7.2 2-13.6z"/><path fill="#f7f4ee" d="m26.7 46.5-2.7 1-3.4.6-4.1-3.5 5.5-2.2 8.3-9-9.4.6.5-7.2 11-3.8 15.3-9.3 10.2-4 1.2-1.3 3.6 2-2 13.5-4.5 7.2z"/><path fill="#fff" d="M20.6 48.2 13 49.4l-8-5-3.3-8h-.3L4 31.2l1-14-.3-2.6 2.6-3.4.2 4.4-.6-.8 2 5.4 8.4 2.3 10-1 20.3-7.9L32.5 23l-11.1 3.8-.5 7.2 9.4-.6-8.3 9-5.5 2.2z"/><path fill="none" stroke="#3c5225" stroke-linecap="round" stroke-linejoin="round" stroke-width="__RESOLUTION__" d="M59.1 8.4 61.8 5l.8-5 2.9 3.7-1 15.3.7 5.6-2.9 6.4-14 6.9-21.6 8.6-2.7 1-3.4.6-7.5 1.4-8-5-3.3-8m-.3 0 2.6-5.2 1-14-.3-2.6 2.6-3.4.2 4.4-.6-.8m2 5.4 8.4 2.3 10-1 20.3-7.9 10.2-4 1.2-1.3M7 14.9l2 5.4" vector-effect="non-scaling-stroke"/><path fill="#95ac6d" d="M16.8 83.4v-.2l.2.1zL5.9 112q5.2 2.8 11.2 4h.2z"/><path fill="#8da25e" d="M16.8 83.4h.2l14.5 33.1-14.2-.5z"/><path fill="none" stroke="#4f4d39" stroke-linecap="round" stroke-linejoin="round" stroke-width="__RESOLUTION__" d="m17 83.4-.1-.2-.1.2L5.9 112q5.2 2.8 11.2 4h.2l14.2.5z" vector-effect="non-scaling-stroke"/><path fill="none" stroke="#445b2d" stroke-linecap="round" stroke-linejoin="round" stroke-opacity=".2" stroke-width="__RESOLUTION__" d="m16.8 83.4.5 32.6" vector-effect="non-scaling-stroke"/></g><g id="aq" transform="translate(27 66.35)"><use xlink:href="#u" width="54" height="122" transform="translate(-27 -61)"/><use xlink:href="#v" width="11.4" height="77.2" transform="translate(-10.65 -21.55)"/><use xlink:href="#v" width="11.4" height="77.2" transform="translate(-.1 -37)"/><use xlink:href="#v" width="11.4" height="77.2" transform="translate(5.5 -21.55)"/><use xlink:href="#v" width="11.4" height="77.2" transform="translate(-13.65 -30.7)"/><use xlink:href="#v" width="11.4" height="77.2" transform="translate(-5.95 -27.5)"/><use xlink:href="#v" width="11.4" height="77.2" transform="translate(7.3 -33.5)"/><use xlink:href="#v" width="11.4" height="77.2" transform="translate(11.35 -30.7)"/><use xlink:href="#w" width="11.4" height="77.2" transform="matrix(1 0 0 1.85 -22.1 -66.35)"/><use xlink:href="#y" width="36.9" height="16.4" transform="translate(-18.65 -54.15)"/></g><g id="ap" transform="translate(27 66.35)"><use xlink:href="#z" width="54" height="122" transform="translate(-27 -61)"/><use xlink:href="#A" width="11.4" height="77.2" transform="translate(-10.65 -21.55)"/><use xlink:href="#A" width="11.4" height="77.2" transform="translate(-.1 -37)"/><use xlink:href="#A" width="11.4" height="77.2" transform="translate(5.5 -21.55)"/><use xlink:href="#A" width="11.4" height="77.2" transform="translate(-13.65 -30.7)"/><use xlink:href="#A" width="11.4" height="77.2" transform="translate(-5.95 -27.5)"/><use xlink:href="#A" width="11.4" height="77.2" transform="translate(7.3 -33.5)"/><use xlink:href="#A" width="11.4" height="77.2" transform="translate(11.35 -30.7)"/><use xlink:href="#B" width="11.4" height="77.2" transform="matrix(1 0 0 1.85 -22.1 -66.35)"/><use xlink:href="#C" width="36.9" height="16.4" transform="translate(-18.65 -54.15)"/></g><g id="ao" transform="translate(27 66.35)"><use xlink:href="#D" width="54" height="122" transform="translate(-27 -61)"/><use xlink:href="#E" width="11.4" height="77.2" transform="translate(-10.65 -21.55)"/><use xlink:href="#E" width="11.4" height="77.2" transform="translate(-.1 -37)"/><use xlink:href="#E" width="11.4" height="77.2" transform="translate(5.5 -21.55)"/><use xlink:href="#E" width="11.4" height="77.2" transform="translate(-13.65 -30.7)"/><use xlink:href="#E" width="11.4" height="77.2" transform="translate(-5.95 -27.5)"/><use xlink:href="#E" width="11.4" height="77.2" transform="translate(7.3 -33.5)"/><use xlink:href="#E" width="11.4" height="77.2" transform="translate(11.35 -30.7)"/><use xlink:href="#F" width="11.4" height="77.2" transform="matrix(1 0 0 1.85 -22.1 -66.35)"/><use xlink:href="#G" width="36.9" height="16.4" transform="translate(-18.65 -54.15)"/></g><g id="an" transform="translate(27 66.35)"><use xlink:href="#H" width="54" height="122" transform="translate(-27 -61)"/><use xlink:href="#I" width="11.4" height="77.2" transform="translate(-10.65 -21.55)"/><use xlink:href="#I" width="11.4" height="77.2" transform="translate(-.1 -37)"/><use xlink:href="#I" width="11.4" height="77.2" transform="translate(5.5 -21.55)"/><use xlink:href="#I" width="11.4" height="77.2" transform="translate(-13.65 -30.7)"/><use xlink:href="#I" width="11.4" height="77.2" transform="translate(-5.95 -27.5)"/><use xlink:href="#I" width="11.4" height="77.2" transform="translate(7.3 -33.5)"/><use xlink:href="#I" width="11.4" height="77.2" transform="translate(11.35 -30.7)"/><use xlink:href="#J" width="11.4" height="77.2" transform="matrix(1 0 0 1.85 -22.1 -66.35)"/><use xlink:href="#K" width="36.9" height="16.4" transform="translate(-18.65 -54.15)"/></g><g id="am" transform="translate(27 66.35)"><use xlink:href="#L" width="54" height="122" transform="translate(-27 -61)"/><use xlink:href="#M" width="11.4" height="77.2" transform="translate(-10.65 -21.55)"/><use xlink:href="#M" width="11.4" height="77.2" transform="translate(-.1 -37)"/><use xlink:href="#M" width="11.4" height="77.2" transform="translate(5.5 -21.55)"/><use xlink:href="#M" width="11.4" height="77.2" transform="translate(-13.65 -30.7)"/><use xlink:href="#M" width="11.4" height="77.2" transform="translate(-5.95 -27.5)"/><use xlink:href="#M" width="11.4" height="77.2" transform="translate(7.3 -33.5)"/><use xlink:href="#M" width="11.4" height="77.2" transform="translate(11.35 -30.7)"/><use xlink:href="#N" width="11.4" height="77.2" transform="matrix(1 0 0 1.85 -22.1 -66.35)"/><use xlink:href="#O" width="36.9" height="16.4" transform="translate(-18.65 -54.15)"/></g><g id="al" transform="translate(27 66.35)"><use xlink:href="#P" width="54" height="122" transform="translate(-27 -61)"/><use xlink:href="#Q" width="11.4" height="77.2" transform="translate(-10.65 -21.55)"/><use xlink:href="#Q" width="11.4" height="77.2" transform="translate(-.1 -37)"/><use xlink:href="#Q" width="11.4" height="77.2" transform="translate(5.5 -21.55)"/><use xlink:href="#Q" width="11.4" height="77.2" transform="translate(-13.65 -30.7)"/><use xlink:href="#Q" width="11.4" height="77.2" transform="translate(-5.95 -27.5)"/><use xlink:href="#Q" width="11.4" height="77.2" transform="translate(7.3 -33.5)"/><use xlink:href="#Q" width="11.4" height="77.2" transform="translate(11.35 -30.7)"/><use xlink:href="#R" width="11.4" height="77.2" transform="matrix(1 0 0 1.85 -22.1 -66.35)"/><use xlink:href="#S" width="36.9" height="16.4" transform="translate(-18.65 -54.15)"/></g><g id="ak" transform="translate(27 66.35)"><use xlink:href="#T" width="54" height="122" transform="translate(-27 -61)"/><use xlink:href="#U" width="11.4" height="77.2" transform="translate(-10.65 -21.55)"/><use xlink:href="#U" width="11.4" height="77.2" transform="translate(-.1 -37)"/><use xlink:href="#U" width="11.4" height="77.2" transform="translate(5.5 -21.55)"/><use xlink:href="#U" width="11.4" height="77.2" transform="translate(-13.65 -30.7)"/><use xlink:href="#U" width="11.4" height="77.2" transform="translate(-5.95 -27.5)"/><use xlink:href="#U" width="11.4" height="77.2" transform="translate(7.3 -33.5)"/><use xlink:href="#U" width="11.4" height="77.2" transform="translate(11.35 -30.7)"/><use xlink:href="#V" width="11.4" height="77.2" transform="matrix(1 0 0 1.85 -22.1 -66.35)"/><use xlink:href="#W" width="36.9" height="16.4" transform="translate(-18.65 -54.15)"/></g><g id="ai"><path fill="#3c5225" d="m51.6 139.4-6.9-6.8 5.3-3.9q31.8 8.7 66.6-17.3-32.2 38.5-61.3 42.3z"/><path fill="none" stroke="#4f4d39" stroke-linecap="round" stroke-linejoin="round" stroke-width="__RESOLUTION__" d="M55.3 153.8q29.1-3.9 61.3-42.4-34.8 26-66.6 17.3l-5.2 3.9 6.8 6.8" vector-effect="non-scaling-stroke"/><path fill="#515b35" d="m50.4 69-31 10.9V59.5l31-11z"/><path fill="none" stroke="#3c5225" stroke-linecap="round" stroke-linejoin="round" stroke-width="__RESOLUTION__" d="m50.4 69-31 10.9V59.5l31-11z" vector-effect="non-scaling-stroke"/><path fill="#95ac6d" d="M49.9 64.1 34.8.5l24.4 56.8z"/><path fill="none" stroke="#587738" stroke-linecap="round" stroke-linejoin="round" stroke-width="1" d="M49.9 64.1 34.8.5l24.4 56.8z"/><path fill="#95ac6d" d="M46.5 70.9 65.3 8.4 58 69.7z"/><path fill="none" stroke="#587738" stroke-linecap="round" stroke-linejoin="round" stroke-width="1" d="M46.5 70.9 65.3 8.4 58 69.7z"/><path fill="#95ac6d" d="M15.6 98.1.5 34.5l24.4 56.8z"/><path fill="none" stroke="#587738" stroke-linecap="round" stroke-linejoin="round" stroke-width="1" d="M15.6 98.1.5 34.5l24.4 56.8z"/></g><g id="ah" transform="translate(27 66.35)"><use xlink:href="#X" width="54" height="122" transform="translate(-27 -61)"/><use xlink:href="#Y" width="11.4" height="77.2" transform="translate(-10.65 -21.55)"/><use xlink:href="#Y" width="11.4" height="77.2" transform="translate(-.1 -37)"/><use xlink:href="#Y" width="11.4" height="77.2" transform="translate(5.5 -21.55)"/><use xlink:href="#Y" width="11.4" height="77.2" transform="translate(-13.65 -30.7)"/><use xlink:href="#Y" width="11.4" height="77.2" transform="translate(-5.95 -27.5)"/><use xlink:href="#Y" width="11.4" height="77.2" transform="translate(7.3 -33.5)"/><use xlink:href="#Y" width="11.4" height="77.2" transform="translate(11.35 -30.7)"/><use xlink:href="#Z" width="11.4" height="77.2" transform="matrix(1 0 0 1.85 -22.1 -66.35)"/><use xlink:href="#aa" width="36.9" height="16.4" transform="translate(-18.65 -54.15)"/></g><g id="af" transform="translate(27 66.35)"><use xlink:href="#ab" width="54" height="122" transform="translate(-27 -61)"/><use xlink:href="#ac" width="11.4" height="77.2" transform="translate(-10.65 -21.55)"/><use xlink:href="#ac" width="11.4" height="77.2" transform="translate(-.1 -37)"/><use xlink:href="#ac" width="11.4" height="77.2" transform="translate(5.5 -21.55)"/><use xlink:href="#ac" width="11.4" height="77.2" transform="translate(-13.65 -30.7)"/><use xlink:href="#ac" width="11.4" height="77.2" transform="translate(-5.95 -27.5)"/><use xlink:href="#ac" width="11.4" height="77.2" transform="translate(7.3 -33.5)"/><use xlink:href="#ac" width="11.4" height="77.2" transform="translate(11.35 -30.7)"/><use xlink:href="#ad" width="11.4" height="77.2" transform="matrix(1 0 0 1.85 -22.1 -66.35)"/><use xlink:href="#ae" width="36.9" height="16.4" transform="translate(-18.65 -54.15)"/></g><g id="az" transform="translate(107.6 217.85)"><use xlink:href="#af" width="54" height="143" filter="url(#ag)" transform="matrix(.45 0 -.03 .45 13.25 134.4)"/><use xlink:href="#af" width="54" height="143" filter="url(#ag)" transform="matrix(.45 0 0 .45 -15.6 145.65)"/><use xlink:href="#ah" width="54" height="143" filter="url(#ag)" transform="matrix(.45 0 -.03 .45 13.25 106.4)"/><use xlink:href="#ah" width="54" height="143" filter="url(#ag)" transform="matrix(.45 0 0 .45 -15.6 117.65)"/><use xlink:href="#T" width="54" height="122" transform="matrix(.45 0 -.03 .45 13.1 65.75)"/><use xlink:href="#U" width="11.4" height="77.2" transform="matrix(.45 0 -.03 .45 19.1 83.4)"/><use xlink:href="#U" width="11.4" height="77.2" transform="matrix(.45 0 -.03 .45 24.3 76.5)"/><use xlink:href="#U" width="11.4" height="77.2" transform="matrix(.45 0 -.03 .45 26.3 83.4)"/><use xlink:href="#U" width="11.4" height="77.2" transform="matrix(.45 0 -.03 .45 18.05 79.3)"/><use xlink:href="#U" width="11.4" height="77.2" transform="matrix(.45 0 -.03 .45 21.4 80.75)"/><use xlink:href="#U" width="11.4" height="77.2" transform="matrix(.45 0 -.03 .45 27.5 78.05)"/><use xlink:href="#U" width="11.4" height="77.2" transform="matrix(.45 0 -.03 .45 29.2 79.3)"/><use xlink:href="#V" width="11.4" height="77.2" transform="matrix(.45 0 -.06 .83 15.45 63.35)"/><use xlink:href="#W" width="36.9" height="16.4" transform="matrix(.45 0 -.03 .45 16.6 68.85)"/><use xlink:href="#u" width="54" height="122" transform="matrix(.45 0 0 .45 -15.6 77)"/><use xlink:href="#v" width="11.4" height="77.2" transform="matrix(.45 0 0 .45 -8.3 94.65)"/><use xlink:href="#v" width="11.4" height="77.2" transform="matrix(.45 0 0 .45 -3.6 87.75)"/><use xlink:href="#v" width="11.4" height="77.2" transform="matrix(.45 0 0 .45 -1.1 94.65)"/><use xlink:href="#v" width="11.4" height="77.2" transform="matrix(.45 0 0 .45 -9.65 90.55)"/><use xlink:href="#v" width="11.4" height="77.2" transform="matrix(.45 0 0 .45 -6.2 92)"/><use xlink:href="#v" width="11.4" height="77.2" transform="matrix(.45 0 0 .45 -.3 89.3)"/><use xlink:href="#v" width="11.4" height="77.2" transform="matrix(.45 0 0 .45 1.5 90.55)"/><use xlink:href="#w" width="11.4" height="77.2" transform="matrix(.45 0 0 .83 -13.45 74.6)"/><use xlink:href="#y" width="36.9" height="16.4" transform="matrix(.45 0 0 .45 -11.9 80.1)"/><use xlink:href="#ai" width="116.6" height="153.8" transform="translate(-27.15 -217.85)"/><use xlink:href="#ak" width="54" height="143" transform="matrix(.45 0 -.03 .45 15.4 23)"/><use xlink:href="#ak" width="54" height="143" transform="matrix(.45 0 -.03 .45 16.65 -18)"/><use xlink:href="#al" width="54" height="143" transform="matrix(.45 0 .02 .45 13.35 -60.2)"/><use xlink:href="#am" width="54" height="143" transform="matrix(.45 0 .03 .45 10.3 -102)"/><use xlink:href="#an" width="54" height="143" transform="matrix(.45 0 -.02 .45 12.6 -144)"/><use xlink:href="#an" width="54" height="143" transform="matrix(.45 0 -.03 .45 15.7 -186)"/><use xlink:href="#ao" width="54" height="143" transform="matrix(.22 -.39 -.4 -.19 49.95 -36.25)"/><use xlink:href="#ap" width="54" height="143" transform="matrix(.22 -.39 -.4 -.19 18.15 .05)"/><use xlink:href="#ao" width="54" height="143" transform="matrix(.22 -.39 -.4 -.19 54.15 17.95)"/><use xlink:href="#aq" width="54" height="143" transform="matrix(.45 0 0 .45 -13.45 34.25)"/><use xlink:href="#aq" width="54" height="143" transform="matrix(.45 0 0 .45 -12.2 -6.75)"/><use xlink:href="#aq" width="54" height="143" transform="matrix(.45 0 .05 .45 -18.5 -48.95)"/><use xlink:href="#aq" width="54" height="143" transform="matrix(.45 0 0 .45 -17.2 -90.75)"/><use xlink:href="#aq" width="54" height="143" transform="matrix(.45 0 .05 .45 -23.5 -132.75)"/><use xlink:href="#aq" width="54" height="143" transform="matrix(.45 0 -.03 .45 -18.2 -174.75)"/><use xlink:href="#ar" width="77.3" height="160.6" transform="translate(-25.75 -165.05)"/><use xlink:href="#as" width="105.8" height="52.6" transform="matrix(.36 -.14 0 .36 -4.25 -136.8)"/><use xlink:href="#at" width="205" height="103.5" transform="translate(-107.6 62.95)"/><use xlink:href="#au" width="205" height="103.5" transform="matrix(.65 0 0 .65 -56.3 79)"/><use xlink:href="#au" width="205" height="103.5" transform="matrix(.48 0 0 .48 -40.3 84.8)"/><use xlink:href="#av" width="16.2" height="16.2" transform="matrix(.4 0 0 .7 -4.25 26.8)"/><use xlink:href="#aw" width="4" height="5" transform="translate(-3.95 29)"/><use xlink:href="#av" width="16.2" height="16.2" transform="matrix(.4 0 0 .7 -10.75 -18.35)"/><use xlink:href="#aw" width="4" height="5" transform="translate(-10.45 -16.15)"/><use xlink:href="#av" width="16.2" height="16.2" transform="matrix(.4 0 0 .7 23.65 56.85)"/><use xlink:href="#aw" width="4" height="5" transform="translate(23.95 59.05)"/></g><linearGradient id="b" x1="-819.2" x2="819.2" gradientTransform="matrix(0 .05 -.01 0 0 .05)" gradientUnits="userSpaceOnUse" spreadMethod="pad"><stop offset="0" stop-color="#fff" stop-opacity="0"/><stop offset=".3" stop-color="#fff" stop-opacity=".2"/><stop offset=".7" stop-color="#fff" stop-opacity=".3"/><stop offset="1" stop-color="#fff" stop-opacity="0"/></linearGradient><linearGradient id="c" x1="-819.2" x2="819.2" gradientTransform="matrix(0 .05 -.01 0 0 .05)" gradientUnits="userSpaceOnUse" spreadMethod="pad"><stop offset="0" stop-color="#d9d9a2" stop-opacity="0"/><stop offset=".3" stop-color="#d9d9a2" stop-opacity=".1"/><stop offset=".7" stop-color="#d9d9a2" stop-opacity=".2"/><stop offset="1" stop-color="#d9d9a2" stop-opacity="0"/></linearGradient><linearGradient id="d" x1="-819.2" x2="819.2" gradientTransform="matrix(0 .05 -.01 0 0 .05)" gradientUnits="userSpaceOnUse" spreadMethod="pad"><stop offset="0" stop-color="#8e8e8e" stop-opacity="0"/><stop offset=".3" stop-color="#8e8e8e" stop-opacity=".2"/><stop offset=".7" stop-color="#8e8e8e" stop-opacity=".3"/><stop offset="1" stop-color="#8e8e8e" stop-opacity="0"/></linearGradient><linearGradient id="e" x1="-819.2" x2="819.2" gradientTransform="matrix(0 .05 -.01 0 0 .05)" gradientUnits="userSpaceOnUse" spreadMethod="pad"><stop offset="0" stop-color="#79795a" stop-opacity="0"/><stop offset=".3" stop-color="#79795a" stop-opacity=".1"/><stop offset=".7" stop-color="#79795a" stop-opacity=".2"/><stop offset="1" stop-color="#79795a" stop-opacity="0"/></linearGradient><linearGradient id="f" x1="-819.2" x2="819.2" gradientTransform="matrix(0 .05 -.01 0 0 .05)" gradientUnits="userSpaceOnUse" spreadMethod="pad"><stop offset="0" stop-color="#dedede" stop-opacity="0"/><stop offset=".3" stop-color="#dedede" stop-opacity=".2"/><stop offset=".7" stop-color="#dedede" stop-opacity=".3"/><stop offset="1" stop-color="#dedede" stop-opacity="0"/></linearGradient><linearGradient id="g" x1="-819.2" x2="819.2" gradientTransform="matrix(0 .05 -.01 0 0 .05)" gradientUnits="userSpaceOnUse" spreadMethod="pad"><stop offset="0" stop-color="#bdbd8d" stop-opacity="0"/><stop offset=".3" stop-color="#bdbd8d" stop-opacity=".1"/><stop offset=".7" stop-color="#bdbd8d" stop-opacity=".2"/><stop offset="1" stop-color="#bdbd8d" stop-opacity="0"/></linearGradient><linearGradient id="h" x1="-819.2" x2="819.2" gradientTransform="matrix(0 .05 -.01 0 0 .05)" gradientUnits="userSpaceOnUse" spreadMethod="pad"><stop offset="0" stop-color="#d9d9d9" stop-opacity="0"/><stop offset=".3" stop-color="#d9d9d9" stop-opacity=".2"/><stop offset=".7" stop-color="#d9d9d9" stop-opacity=".3"/><stop offset="1" stop-color="#d9d9d9" stop-opacity="0"/></linearGradient><linearGradient id="i" x1="-819.2" x2="819.2" gradientTransform="matrix(0 .05 -.01 0 0 .05)" gradientUnits="userSpaceOnUse" spreadMethod="pad"><stop offset="0" stop-color="#b8b889" stop-opacity="0"/><stop offset=".3" stop-color="#b8b889" stop-opacity=".1"/><stop offset=".7" stop-color="#b8b889" stop-opacity=".2"/><stop offset="1" stop-color="#b8b889" stop-opacity="0"/></linearGradient><linearGradient id="j" x1="-819.2" x2="819.2" gradientTransform="matrix(0 .05 -.01 0 0 .05)" gradientUnits="userSpaceOnUse" spreadMethod="pad"><stop offset="0" stop-color="#a5a5a5" stop-opacity="0"/><stop offset=".3" stop-color="#a5a5a5" stop-opacity=".2"/><stop offset=".7" stop-color="#a5a5a5" stop-opacity=".3"/><stop offset="1" stop-color="#a5a5a5" stop-opacity="0"/></linearGradient><linearGradient id="k" x1="-819.2" x2="819.2" gradientTransform="matrix(0 .05 -.01 0 0 .05)" gradientUnits="userSpaceOnUse" spreadMethod="pad"><stop offset="0" stop-color="#8c8c69" stop-opacity="0"/><stop offset=".3" stop-color="#8c8c69" stop-opacity=".1"/><stop offset=".7" stop-color="#8c8c69" stop-opacity=".2"/><stop offset="1" stop-color="#8c8c69" stop-opacity="0"/></linearGradient><linearGradient id="l" x1="-819.2" x2="819.2" gradientTransform="matrix(0 .05 -.01 0 0 .05)" gradientUnits="userSpaceOnUse" spreadMethod="pad"><stop offset="0" stop-color="#ababab" stop-opacity="0"/><stop offset=".3" stop-color="#ababab" stop-opacity=".2"/><stop offset=".7" stop-color="#ababab" stop-opacity=".3"/><stop offset="1" stop-color="#ababab" stop-opacity="0"/></linearGradient><linearGradient id="m" x1="-819.2" x2="819.2" gradientTransform="matrix(0 .05 -.01 0 0 .05)" gradientUnits="userSpaceOnUse" spreadMethod="pad"><stop offset="0" stop-color="#91916c" stop-opacity="0"/><stop offset=".3" stop-color="#91916c" stop-opacity=".1"/><stop offset=".7" stop-color="#91916c" stop-opacity=".2"/><stop offset="1" stop-color="#91916c" stop-opacity="0"/></linearGradient><linearGradient id="n" x1="-819.2" x2="819.2" gradientTransform="matrix(0 .05 -.01 0 0 .05)" gradientUnits="userSpaceOnUse" spreadMethod="pad"><stop offset="0" stop-color="#ccc" stop-opacity="0"/><stop offset=".3" stop-color="#ccc" stop-opacity=".2"/><stop offset=".7" stop-color="#ccc" stop-opacity=".3"/><stop offset="1" stop-color="#ccc" stop-opacity="0"/></linearGradient><linearGradient id="o" x1="-819.2" x2="819.2" gradientTransform="matrix(0 .05 -.01 0 0 .05)" gradientUnits="userSpaceOnUse" spreadMethod="pad"><stop offset="0" stop-color="#adad81" stop-opacity="0"/><stop offset=".3" stop-color="#adad81" stop-opacity=".1"/><stop offset=".7" stop-color="#adad81" stop-opacity=".2"/><stop offset="1" stop-color="#adad81" stop-opacity="0"/></linearGradient><linearGradient id="p" x1="-819.2" x2="819.2" gradientTransform="matrix(0 .05 -.01 0 0 .05)" gradientUnits="userSpaceOnUse" spreadMethod="pad"><stop offset="0" stop-color="#aaaa81" stop-opacity="0"/><stop offset=".3" stop-color="#aaaa81" stop-opacity=".2"/><stop offset=".7" stop-color="#aaaa81" stop-opacity=".3"/><stop offset="1" stop-color="#aaaa81" stop-opacity="0"/></linearGradient><linearGradient id="q" x1="-819.2" x2="819.2" gradientTransform="matrix(0 .05 -.01 0 0 .05)" gradientUnits="userSpaceOnUse" spreadMethod="pad"><stop offset="0" stop-color="#a3a371" stop-opacity="0"/><stop offset=".3" stop-color="#a3a371" stop-opacity=".1"/><stop offset=".7" stop-color="#a3a371" stop-opacity=".2"/><stop offset="1" stop-color="#a3a371" stop-opacity="0"/></linearGradient><linearGradient id="r" x1="-819.2" x2="819.2" gradientTransform="matrix(0 .05 -.01 0 0 .05)" gradientUnits="userSpaceOnUse" spreadMethod="pad"><stop offset="0" stop-color="#5e704b" stop-opacity="0"/><stop offset=".3" stop-color="#5e704b" stop-opacity=".2"/><stop offset=".7" stop-color="#5e704b" stop-opacity=".3"/><stop offset="1" stop-color="#5e704b" stop-opacity="0"/></linearGradient><linearGradient id="s" x1="-819.2" x2="819.2" gradientTransform="matrix(0 .05 -.01 0 0 .05)" gradientUnits="userSpaceOnUse" spreadMethod="pad"><stop offset="0" stop-color="#57693b" stop-opacity="0"/><stop offset=".3" stop-color="#57693b" stop-opacity=".1"/><stop offset=".7" stop-color="#57693b" stop-opacity=".2"/><stop offset="1" stop-color="#57693b" stop-opacity="0"/></linearGradient><linearGradient id="t" x1="-819.2" x2="819.2" gradientTransform="matrix(0 -.02 .01 0 -3 38.1)" gradientUnits="userSpaceOnUse" spreadMethod="pad"><stop offset="0" stop-color="#5a783a" stop-opacity="0"/><stop offset="1" stop-color="#26331a" stop-opacity=".8"/></linearGradient><radialGradient id="a" cx="0" cy="0" r="819.2" gradientTransform="scale(.01)" gradientUnits="userSpaceOnUse" spreadMethod="pad"><stop offset=".1" stop-color="#352f17" stop-opacity=".5"/><stop offset=".8" stop-color="#000" stop-opacity="0"/></radialGradient><clipPath id="ay"><path d="M1 1h81v169H1z"/></clipPath><filter id="ag" width="88.6" height="177.6" x="-17.3" y="-17.3" filterUnits="userSpaceOnUse"><feGaussianBlur in="SourceGraphic" result="filter1" stdDeviation="5.77 5.77"/></filter><use xlink:href="#ax" id="av" width="16.2" height="16.2"/></defs><g clip-path="url(#ay)"><use xlink:href="#az" width="205" height="427.4" transform="translate(1 1)scale(.3935)"/></g></svg>