<svg xmlns="http://www.w3.org/2000/svg" xmlns:xlink="http://www.w3.org/1999/xlink" width="35" height="29" viewBox="0 0 35 29"><defs><radialGradient id="f" cx="0" cy="0" r="819.2" gradientTransform="matrix(.01 0 0 .01 -6.5 -5.9)" gradientUnits="userSpaceOnUse" spreadMethod="pad"><stop offset=".1" stop-color="#cbc2a0"/><stop offset=".5" stop-color="#b7aa7c"/></radialGradient><radialGradient id="e" cx="0" cy="0" r="819.2" gradientTransform="matrix(.03 0 0 .03 -12 -1.4)" gradientUnits="userSpaceOnUse" spreadMethod="pad"><stop offset=".1" stop-color="#ac9e68"/><stop offset=".8" stop-color="#786c43"/></radialGradient><radialGradient id="d" cx="0" cy="0" r="819.2" gradientTransform="matrix(.01 0 0 .01 4.7 -4.75)" gradientUnits="userSpaceOnUse" spreadMethod="pad"><stop offset=".1" stop-color="#ac9e68"/><stop offset=".8" stop-color="#786c43"/></radialGradient><radialGradient id="c" cx="0" cy="0" r="819.2" gradientTransform="matrix(.01 0 0 .01 4.15 -6.9)" gradientUnits="userSpaceOnUse" spreadMethod="pad"><stop offset=".1" stop-color="#ac9e68"/><stop offset=".8" stop-color="#786c43"/></radialGradient><radialGradient id="b" cx="0" cy="0" r="819.2" gradientTransform="matrix(.02 0 0 .02 -4.75 -7)" gradientUnits="userSpaceOnUse" spreadMethod="pad"><stop offset=".1" stop-color="#cbc2a0"/><stop offset=".5" stop-color="#b7aa7c"/></radialGradient><clipPath id="h"><path d="M1 1h33v27H1z"/></clipPath><path id="a" fill="#000" fill-opacity=".3" d="M4.9 25.8q-2 0-3.5-3.8Q0 18.3 0 12.9t1.4-9.1Q2.9 0 4.9 0t3.4 3.8 1.4 9.1T8.3 22t-3.5 3.8"/><use xlink:href="#a" id="i" width="9.7" height="25.8"/><g id="j"><path fill="url(#b)" d="m-1.8-15.6.9 2.7-1.1 1.6v.7q4 .3 5.9 1.8 2.4 1.5 3.6.7.8-.9-.5-3.2Q4-13.1.3-13l-.6-.7q5.7.3 9.4 2.7.8 2.2.3 3.9-.5 2.5-3 4.1l-.5 1Q5.3-.1 2.4 1l-4.1 1.3q-2.4.1-10.5-4.5l-3.6 1q-.6-.5 2.8-2h.3l.2-.2q1.2-2 2.4-2.4l2.3-1q1.1-.5 3.1-.5 5-.3 10.9 3.9l-1-1.5q-5.6-3-9.2-3l1.1-.4Q0-8.3 6-5.4q-1.2-1 .8-1.2-9.4-2.2-10-4Q-3-12-1.8-13l.1-.2q-1.6-4-.1-2.5m4 14.2q2.3.4 1.9-1t-2-2.1T-2.2-6l-4.5-.3q-2 .2-1.7 1.6.2 1.4 1.9 2l3.9.7z" transform="translate(16.3 16.3)"/><path fill="#c1b78f" d="m16 2.5.6.7q3.7-.1 6.8 1.9 1.3 2.2.4 3-1.2.9-3.6-.6-2-1.5-6-1.8V5l1.2-1.6-.9-2.7z"/><path fill="url(#c)" d="M-3.2-10.6q.6 1.8 10 4-2 .1-.7 1.2-6.2-3-9-2.7-.6-1.4-.4-2.6" transform="translate(16.3 16.3)"/><path fill="url(#d)" d="M-4.1-7.8q3.6 0 9.3 3L6-3.3Q.2-7.5-4.8-7.3l.5-.4z" transform="translate(16.3 16.3)"/><path fill="url(#e)" d="m-15.9-1.1 3.6-1q8 4.6 10.5 4.5L2.3 1Q5.2-.1 6-2.1l.3-1q2.6-1.6 3-4.1.6-1.7-.2-3.9 1.1.8 2 1.7l.2.2q6.3-1.1 1.2.8h-.3q.7 3.4-3 7.5L9-.5q-.7 4-8.1 6.8H.7l-.8 2.2-.7.8q-.4 0-.8-1.8l-.1-.1-.2-.9h-.2l-3.3-.8-1.9-.7-3.3-2.4-1.2-1.3-.5-.7-.8-1.3q-2.5 0-2.8-.4" transform="translate(16.3 16.3)"/><path fill="url(#f)" d="m2.2-1.4-4.8-.5-4-.6q-1.6-.7-1.8-2.1t1.7-1.7l4.5.4q2.6.6 4.3 1.4t2 2.1-2 1M.8-2q1.9.3 1.6-.8Q2-3.9.8-4.5l-3.3-1-3.5-.3q-1.6.1-1.3 1.3.1 1 1.4 1.5t3 .6z" transform="translate(16.3 16.3)"/><path fill="#766c1b" d="m17.1 14.3-3.6-.4q-1.9-.1-3.1-.5T9 11.8t1.3-1.3l3.4.3 3.4 1q1.3.6 1.6 1.7t-1.6.8m-1.2-2.2-2-.6-2.1-.2q-.9 0-.8.8.1.6.9.9l1.8.3 2.3.3q1.1.2.9-.5t-1-1"/><path fill="#425111" d="M16 12.1q.7.3.9 1t-1 .5l-2.2-.3L12 13q-.8-.3-.9-1t.8-.7l2.1.2z"/><path fill="none" stroke="#000" stroke-linecap="round" stroke-linejoin="round" stroke-opacity=".3" stroke-width="__RESOLUTION__" d="M14.5.7q-1.5-1.4.1 2.6l-.1.1q-1.2 1-1.4 2.3-.3 1.1.3 2.5 2.8-.3 9 2.7m-9-2.7-1.2.3M22.4 13q-5.9-4.2-10.9-4-2 .1-3 .7t-2.3.9T3.7 13l-.1.2h-.4q-3.4 1.5-2.8 2 .4.4 2.8.4l.8 1.3.5.7 1.2 1.3L9 21.3M25.4 5.1Q21.7 2.8 16 2.5L14.5.7m10.9 4.5q1.1.8 2 1.7l.2.2q6.3-1.1 1.2.8h-.3q.7 3.4-3 7.5l-.2.4q-.7 4-8.1 6.8H17l-.8 2.2-.7.8q-.4 0-.8-1.8m-.1-.1-.2-.9M11.5 9.1l.5-.5" vector-effect="non-scaling-stroke"/><path fill="none" stroke="#8c981b" stroke-linecap="round" stroke-linejoin="round" stroke-width="__RESOLUTION__" d="m18.5 14.9-4.8-.5-4-.7q-1.6-.6-1.8-2t1.7-1.6l4.5.3q2.6.6 4.3 1.3t2 2.2-2 1" vector-effect="non-scaling-stroke"/><path fill="none" stroke="#000" stroke-linecap="round" stroke-linejoin="round" stroke-opacity=".2" stroke-width="__RESOLUTION__" d="m27.2 11.6-.6-.4-1 2 .7.5m-2.8.5.9.4 1.2-1.4-.4-.3m-.8 1.7.7.4M23 16l.5.4.3-1.2.6-.6m1.6-3.9.6.5.1-2.1m-5 8.8.6.5q.8-.8 1.2-2l.8.6m-1.4 2-.6-.6q-1 1-2.5 1.7l.3.5m-2.9-.6.2.6 2.4-.6-.3-.7m-2 2-.1-.7-2.2.2v.7M3.5 15l1 .9.4-.7m7.7 4.1-.2 1 2.4.5h.3v-1.4m-2.8 2.1.1-1.1-1.8-.6-.3 1.2m.3-1.2-2-1-.1.8M8 16.9 7.3 18l1.4.8.3-1.1m-2.1 1 .4-.7-1.6-1.2-.3.6m5.2 2.3v-.6m-6.1-3.3 1.2 1 .5-.8" vector-effect="non-scaling-stroke"/></g></defs><g clip-path="url(#h)"><g transform="translate(15.6 18.25)"><use xlink:href="#i" width="9.7" height="25.8" filter="url(#filter-object-0)" transform="matrix(1.4813 .9462 .7329 -.4299 -12.7 .1)"/><use xlink:href="#j" width="31.4" height="25.9" transform="translate(-14.6 -17.25)"/></g></g></svg>