<svg xmlns="http://www.w3.org/2000/svg" xmlns:xlink="http://www.w3.org/1999/xlink" width="26" height="128" viewBox="0 0 26 128"><defs><clipPath id="a"><path d="M1 1h24v126H1z"/></clipPath><g id="b"><path fill="#b88a01" d="m11.8 4.2 1.1.1q.7-.1.3-.6l-.6-.6.9-.1.3-.5q.2-.5-.3-1.2-1.7-1.1-2-.3v.2V1L11 .5q1.4-1 3.2.5v.3l.1.3.1 1.4q-.2.8-.8 1.4l-.2.1-.2.2-1.5.1-.3-.3.1-.2.1-.1v.1l-.2.2-1.2.9-.9.3v-.9q1.1 0 1.5-.5l.2-.8q0-.7-.7-1.2L9 2.5l1.3-1-.3-.3-2.4-.1q1.3-1 3.5-.6l.3.5.1.2.3.6q.5 1.2 0 2.4m1.5.5.2-.2.2-.1q.9 1 2 .4.4-.3.4-.7l-.1-.4-1-.5 1.2-.2-.2-.7-.6-.8q-.5-.4-1-.2l-.2-.3Q16 .3 17 2.9q.3 1.3-.1 2-.5.8-1.8.9-1.7-.5-1.7-1.1M12.6 96l1.6.5.7.5q.5.5.6 1v.2q1.6 1.3 1 3.3 1.1.6.4 1.8 1 1.2.5 2.3.8.8.5 2.2 1 1 .3 2.3 1.3 1.2.3 2.4 1 1.3.1 2.5 1 1.5 0 3 .7 1.2.3 1.8l-.5 1q.4.9.1 1.8-.1.8-2.3 1.9t-5.1 1.2h-.3l-.4-.1-2.7-.4-1-.2-1-.5-.4-.2q1.7 0 2.6-.7h.3l.9.2h3l.7-.1q1.8-.3 3.4-1.2 1.8-1.1 2.2-1.7-.4.6-2.2 1.7-1.6.9-3.4 1.2l-.7.1h-3l-.8-.2h-.4q2.7-.5 3-2.5h.1l.5-.1h.6l2.5-.6 1.8-.8 2.3-1.6-2.3 1.6-1.7.8-2.6.6H11q2.3-1 2.1-3.2 1.5-1.1.7-2.7l1.3-.4 1.2-.7q1.7-.9 2.2-1.5-.5.6-2.2 1.5l-1.2.7-1.3.4q1-1 0-2.6l1.8-.7.4-.2 2.2-1.5q-.6.6-2.2 1.5l-.4.3-1.7.6q.9-1.2.1-2.7.3-1.2-.1-2.4.4-1.2-.7-2.4 1.2-1.1-.2-2.3h-.6l.3-.1h-.3.6l.9-.2-.9.1q1.1-1.3-.1-2.2l-.5.1q1.3-1.4.3-2.5zm-7-93.4 1-.3.5.2q1.8.9 2.1 2.4h.1v.9q-.2 1.8-2 1.5l-.2-.5q1.5-.3 1.2-1.2l-1 .1.9-1q.2-.8-1.3-1.4l-1.3 1L6.4 3q0-.3-.8-.5m9.9 95.7q0 .9-1.3 1.6l-1 .4-.3.1.3-.1 1-.4q1.3-.7 1.3-1.6m1.4 5.1-1 .6-1 .5-.7.3-1 .3 1-.3.7-.2 1-.6zm.5 2.3-1.4.9-.7.3-1.4.6 1.4-.6.7-.3zm-1-4.1-2.5.8zm1.5 6.3-2 1.2-.2.1q-.8.5-1.7.8l1.8-.8.1-.1zm.8 7.2q-.5.6-2.3 1.7l-1.3.5-2 .6 2-.5 1.3-.6q1.8-1.1 2.3-1.7"/><path fill="#febf05" d="M11.5 1.2V1q.3-.8 2 .3.5.7.3 1.2l-.3.5-.9.1.7.6q.3.5-.4.6l-1.2-.1q.6-1.2.1-2.4zm2.2 3.2q.7-.6.8-1.4V1.6l-.2-.3q.6-.2 1.1.2l.6.8.2.7-1.2.2 1 .5.1.4q0 .4-.5.7-1 .6-1.9-.4M5.4 124.3q-2-1-1.5-2.5-.5-.5-.6-1.1l.2-1.7q-.7-.8-.6-1.7l.4-1.4q-1.2-1 .1-2.4-.9-1 .4-2.4-.7-1.1.3-2-.8-1.3.5-2.8-.7-1.5.6-2.6-.7-.7-.1-1.7l.8-1-.4-.8q-.2-1 1.1-2V98l.3-.7.3-.3.7-.5 1.5-.5v2q.7.6 1.5.6h.5q.7-.2 1.3-.6 1 1-.3 2.4l.5-.1q1.2.9.1 2.3h-.2.2-.2.2l.9-.2-.9.1-.6.2.1-.1h-.1l-.6.1H11l-1.4-.1-2-.6-.8-.4-.8-.6.8.6.7.4 2.1.6 1.4.1h1.5l.3-.1h-.3l.6.1q1.4 1.2.2 2.3h-.1l-2.8.3h-.6L8 105l-2-.8-.8-.5.8.5 2 .8 1.7.3h.6l2.8-.3h.1q1.1 1.2.7 2.4.4 1.2.1 2.4.8 1.5-.2 2.7 1 1.6 0 2.6.8 1.6-.7 2.8.2 2.1-2.1 3.1-.4 2-3.1 2.5-.9.8-2.6.8M4.6 4.9q-.1-1.8 1-2.4.8.2.8.5l-.8 1.3L7 3.2q1.5.6 1.3 1.3l-.9 1.1h1q.3.8-1.2 1L7 6.2q-.7-1.3-2.4-1.3m2.1-2.6L7.6 1l2.4.1.3.3-1.3 1 1.4-.2q.7.5.7 1.2l-.2.8q-.4.5-1.5.5Q9 3.3 7.2 2.4zm0 96 .1.7.2.3.9.6.6.3.5.2 2 .2h.5l.9-.1-.9.1H11l-2-.2-.5-.2-.6-.3-.9-.6-.2-.3zm-3.2 15.3 1.5.8q2.6 1.2 5.8 1.2l3-.4-3 .4q-3.2 0-5.7-1.2zm.7-4.5.5.2q2.6 1.1 5.8 1.1 1.9 0 3.6-.6-1.7.6-3.6.6-3.2 0-5.8-1.1zm-.7 6.8 1.6 1q2.6 1.1 5.8 1.1l2.3-.2-2.3.3Q7.6 118 5 117zm1.3-9.6q2.6 1.5 5.8 1.6 1.8 0 3.5-.5-1.7.5-3.6.5-3 0-5.7-1.6m-.8 4.8.9.8q2.6 1.1 5.7 1.1l3.4-.5-3.4.5q-3.1 0-5.7-1.1zm7.2 10H11l-2.7-.3-.7-.1L5 120l-.2-.2-.5-.2-.8-.5.8.5.5.2.2.2 2.4.7.7.1 2.7.3zm-7 .7.7.5.9.5.6.3.5.1 1.3.3-1.3-.3-.5-.2-.6-.2-.9-.5z"/><path fill="#e7ca07" d="m11.6 5.1.3.1.4.6v.9l-.1.3-.2.3v-.1l-.1-.1.3-.8q0-.6-.4-1zm-.3.6-.2.1-.1.2-.4.4-.2.6v.6h.1l.2.2v.5h-.3q.2-.1.2-.4l-.2-.2q-.3-.5-.1-1l.3-.7q.3-.3.8-.2"/><path fill="#f9de2b" d="m11.6 5.1.2.2q.3.4.4 1l-.3.8-.4-.2v-.1l.1-.3v-.7h-.2q-.5-.1-.8.2l-.3.8q-.2.5 0 .9l.3.2q0 .3-.2.4h-.2v-.1H10L9.9 8l-.2-.3v-.9l.2-.4.1-.2V6l.3-.3.1-.2.2-.1h.1l.2-.2.4-.1zm-.5 15.3v6L6.2 24v-6.4h.4v.2l.1.1v5.9l3.8 1.9v-5.5l.1.1.3.2z"/><path fill="#894401" d="m11.9 7.1.1.2v.1q.2 1.9.8 3.6l.4 1q.9 1.9 2.4 3.5l.9.8.2.2h.1v.1l.1.3-.1.3-.2.1h-.1l-.1-.1-.1.1v-.1l-.1.1v.2l-.2.1h-.4v-.1l-.1-.1v.2l-.6.3-.1-.1v.2l-.8.3-.6.3h-.1l-.6.4h-.1l-.6.3-.2-.1.1.1-.7.4v-.1l-.2-.1V7.7zl-1 .5-.6-.4V7l.6-.3.5.2zm4.7 17v1.4l-1.6.8-3.9 2v-1.4l.5-.2 4.9-2.4zm-3.2-5.6.6-.3-.1.4h-.3zm2.8-1.3-.6.2zm-1.4-2.7h.1zm2.1 2 .1.3zm-.4.7.5-.2z"/><path fill="#eded01" d="m12 7.4.2-.3zM6.2 17.5h.3v-.1h.1v.2z"/><path fill="#c30" d="m16.8 16.6.3.1.1.3-.1.3H17v.1h-.2l-.2-.1h.1l.1-.1.1-.2v-.1zM11 19.5l.1.1h.1l.1.4v.2l-.1.1-.1.1h-.2l-.3-.1v-.1h-.1v-.4l.1-.1zm-5.7-2.8v.2l.1.3-.4.2-.3-.2-.1-.3.1-.3.3-.2z"/><path fill="#917e04" d="M15.8 17.6v6.5L11 26.5v-6.1l.1-.1.1-.1v-.5h-.1.3v6l3.8-1.9.1-6.2.1-.2v.1h.1l-.2.1h.4"/><path fill="#9e4f01" d="m15.8 23.7.8.5h-.2l-.6-.1zM10.4 8.3h.2v-.5l-.2-.1v-.1l-.1-.3.6.4v11.8h-.1l-.3.2h-.4l-.1-.2v-.3l-.2.1h-.4l-.1-.3v-.2h-.1l-.1.2h-.4v-.1l-.1-.2v-.2h-.1l-.1.1h-.3l-.2-.1V18l-.1.2h-.2l-.1.1h-.2V18l-.2-.3-.2.1h-.2l-.2-.1v-.5.1l-.4.1H6q-.3-.2-.1-.5l-.2.1q-.2.2-.4.1l-.2-.2v-.3h.1l.1-.2.4-.3.1-.1.5-.6h.1v-.1l.6-.7.2-.2.1-.1.3-.5.2-.4H8l.3-.3V13l.5-1 .2-.5h.1l.3-1.1h.1v-.2l.1-.4.3-1.1V8l.2.2h.1zm.7 18.2.5.2-.5.2v1.4l-1.9-1-3.9-2V24l.9-.5v.5zM5.3 24l5.8 2.9z"/><path fill="#834101" d="m15 26.3.1.2.1.5-.2.7Q11.2 60.2 12.6 96l.1 2q-.6.4-1.2.5l-.4.1h-.2q-.8 0-1.5-.6v-.3l2-.9V57.7l1.8-26.2q-1.2.7-2.2 0l.1-1.7-1.9.7 1.1-.6q-.2-1-2.3-1.6l1.2-1 1.9 1zm1.7-21.5q.4-.6.1-1.9l1 1.4 1 2.9.6-.5q.9-.5 2.3-.5t1.9 1-.2 2.3-2 2-2.6.9h-2.7q5.7-.9 6-4.1-.3-1.4-3.2-1.1h-.1l.1 1.4q-.1.7-1.5.8 1-2.3-.7-4.6M13 28.6q-.6.7-1.9 1.2 1.3-.5 2-1.2m-5.9-22 .2.7q-2.6 3-3.5 7.8-1 5.1-.5 9Q4 27.4 6 28.8q-1.8-.3-2.2-.9-1.8-3.5-1.7-7.3 0-5 1.4-9.1Q4.7 7.8 7 6.1z"/><path fill="#c60" d="M9.4 96Q9.3 63.5 11 31.5q1 .7 2.3 0l-1.9 26.2v39.1l-2 .9zm-.2-65.5-2.5 1.2q-3.5 1.5-5.3-3.5T.3 16.5Q.9 9.7 4.5 5l.1-.2q1.8 0 2.4 1.3-2.3 1.7-3.5 5.3-1.4 4-1.4 9-.1 3.9 1.7 7.4.4.6 2.2.9h.5q.7 0 1.5-.4 2.1.5 2.3 1.6zM15 5.8q1.3-.1 1.8-1 1.6 2.3.7 4.6 1.4-.1 1.5-.8V7.2q2.9-.3 3.1 1.1-.2 3.2-5.9 4.2-1-.7-.6-3V9q0-2-.6-3.1m-8.2 12"/><path fill="#c1f5ff" d="M11.9 19.3v-.1zl.1.1h.3l.1-.3V19h.3v2l-1.4-.3v-.9h.1l.2-.1.1-.2zm1.4-.6.1-.1h.2l.2.1v3.5l-.4-.8zm-5 0v2.8l-.2.5v-3.3zm.5.2.1.1h.3l.1-.2h.1v.2l.1.3h.5l.1-.1v.3l.1.2h.3v1q-.9 0-1.5.4l-.3.1z"/><path fill="#a99405" d="M14.8 18v-.2zl.4-.3-.1 6.2-1.8-.9.3-.3v-.1l1 .4zM7 18l.2-.1V23l1-.5v.1l.2.3-1.7.9v-5.9z"/><path fill="#2b1500" d="m14.8 14.6.1.2z"/><path fill="#b75b02" d="m15.3 23.8-3.8 1.9v-1.9l1.5-.5.3-.1.2-.3zm-8.6 0 1.7-.9.4.4H9q.6.4 1.5.5v1.9z"/><path fill="#a0f3fe" d="M11.5 23.8v-3.1l1.3.3.1 1.5v.1l-.9.6q.8 0 1.1-.4l.2-.2.1-.6v-.6l.4.8v.4l-.3.3-.4-.1.4.1-.2.3-.3.1zm0-1.9 1.4.6zm-2.8-.6L9 21q.6-.4 1.5-.4v1.1l-1.7.9v-.1l-.1-.6zm.2 1.4 1.6-.9v2q-.9-.1-1.5-.5h-.2l-.4-.4-.2-.3V22l.3-.5v1.1l.1.2.4.2zm-.2.1-.2.1z"/><path fill="#50e9fe" d="M12.9 19h.3l.1-.3h.1v2.7l-.4-.3-.2-.1zm0 2 .4.3v.6l-.2.6v.1l-.3-.2zm0 1.5.2.3q-.3.4-1.1.4z"/><path fill="#8d4601" d="m11.1 26.5 4.7-2.4.6.1-4.8 2.5z"/><path fill="#e3ffff" d="M8.5 18.7v-.1l.1-.1h.2l-.1.2.1.2-.1 2.4v.7l.1.6.2.4-.4-.2-.1-.2z"/><path fill="none" stroke="#5f4601" stroke-linecap="round" stroke-linejoin="round" stroke-width="__RESOLUTION__" d="m11.8 4.2-.2.2.3.3 1.5-.1.2-.2.2-.1q.7-.6.8-1.4V1.6l-.2-.3V1Q12.5-.5 11 .5l.3.5.1.2.3.6q.5 1.2 0 2.4m-7.2.6q-.1-1.7 1-2.3l1.1-.3.9-1.1Q8.8.1 11 .5m2.2 4.2q0 .5 1.7 1.1 1.3-.1 1.8-1 .4-.6.1-1.9-.9-2.6-2.6-2m-4.8 4v.9l.9-.3 1.2-.9m-2.1.3Q9 3.3 7.2 2.4l-.5-.2m.5 4.5.2.5q1.8.3 2-1.5m-4.8-.9q1.8 0 2.4 1.3l.2.6" vector-effect="non-scaling-stroke"/><path fill="none" stroke="#998606" stroke-linecap="round" stroke-linejoin="round" stroke-width="__RESOLUTION__" d="m12.2 7 .1-.3v-.9l-.4-.5h0v-.1h0l-.3-.1h-.3l-.4.2h0-.2l-.1.1-.2.1-.2.2-.2.3v.2l-.2.2-.1.4v.5h0v.3h0l.2.4m1.4-2.2h.3v1l-.1.1m-1.1.1.2-.6.4-.4.1-.2h.3m-1 2.5h.2v-.5l-.2-.1v-.1l-.1-.3m0 0V7m-.5 1 .2.2h.1l.2.1" vector-effect="non-scaling-stroke"/><path fill="none" stroke="#4e2701" stroke-linecap="round" stroke-linejoin="round" stroke-width="__RESOLUTION__" d="m11.9 7.1.1.2m0 .1q.2 1.9.8 3.6l.4 1q.9 1.9 2.4 3.5l.9.8.2.2h.1l.1.4m-.6.4-.1.1-.6.2-.2.1-.5.3h-.2l-.7.4-.6.3h-.1l-.6.4h-.1l-.6.3h-.1l-.7.4M11.5 7l.4.2M10.4 7l.6-.3.5.2m5.4 10-.5.3m-6 2.6" vector-effect="non-scaling-stroke"/><path fill="none" stroke="#5c5103" stroke-linecap="round" stroke-linejoin="round" stroke-width="__RESOLUTION__" d="m12 7.4.2-.3M13.5 23l1.8.9M8.4 23l-1.7.9" vector-effect="non-scaling-stroke"/><path fill="none" stroke="#4d4302" stroke-linecap="round" stroke-linejoin="round" stroke-width="__RESOLUTION__" d="M15.8 17.7V24L11 26.5v-6.1" vector-effect="non-scaling-stroke"/><path fill="none" stroke="#3f2001" stroke-linecap="round" stroke-linejoin="round" stroke-width="__RESOLUTION__" d="m15.8 23.7.8.5v1.3l-1.6.8-3.9 2v-1.4l.5-.2 4.9-2.4.1-.1" vector-effect="non-scaling-stroke"/><path fill="none" stroke="#1e1406" stroke-linecap="round" stroke-linejoin="round" stroke-width="__RESOLUTION__" d="m15 26.3.1.2.1.5-.2.7Q11.2 60.2 12.6 96l.1 2q-.6.4-1.2.5l-.4.1h-.2q-.8 0-1.5-.6v-2Q9.3 63.5 11 31.5l.1-1.7-1.9.7-2.5 1.2q-3.5 1.5-5.3-3.5T.3 16.5Q.9 9.7 4.5 5l.1-.2M17 3l1 1.4 1 2.9.6-.5q.9-.5 2.3-.5t1.9 1-.2 2.3-2 2-2.6.9h-2.7q-1-.6-.6-2.9V9q0-2-.6-3.1M19 7.3l.1 1.4m-7.9 21.2q1.3-.5 2-1.2m-7.1 0Q4 27.4 3.5 24.3q-.5-4 .5-9.1.9-4.8 3.5-7.8M6 28.7h.5q.7 0 1.5-.4l1.2-1" vector-effect="non-scaling-stroke"/><path fill="none" stroke="#755701" stroke-linecap="round" stroke-linejoin="round" stroke-width="__RESOLUTION__" d="m12.6 96 1.6.5.7.5q.5.5.6 1v.2q1.6 1.3 1 3.3 1.1.6.4 1.8 1 1.2.5 2.3.8.8.5 2.2 1 1 .3 2.3 1.3 1.2.3 2.4 1 1.3.1 2.5 1 1.5 0 3 .7 1.2.3 1.8l-.5 1q.4.9.1 1.8-.1.8-2.3 1.9t-5.1 1.2h-.3m0 0-.4-.1-2.7-.4-1-.2-1-.5-.4-.2q-1.9-1-1.4-2.5-.5-.5-.6-1.1l.2-1.7q-.7-.8-.6-1.7l.4-1.4q-1.2-1 .1-2.4-.9-1 .4-2.4-.7-1.1.3-2-.8-1.3.5-2.8-.7-1.5.6-2.6-.7-.7-.1-1.7l.8-1-.4-.8q-.2-1 1.1-2V98l.3-.7.3-.3.7-.5 1.5-.5m3 4.4.5-.1.3-.1 1-.4q1.3-.7 1.3-1.6m-3.1 2.2-.9.1H11l-2-.2-.5-.2-.6-.3-.9-.6-.2-.3-.2-.7m6.4 4.3-.2.1zl.9-.2m0 0-.9.1-.6.2h-1.5l-1.4-.1-2-.6-.8-.4-.8-.6m6.5 1.7h.3zm.8 2.4 1-.3.7-.2 1-.6 1-.6m-11.6.4.7.5 2 .8 1.7.3h.6l2.8-.3h.1m.7 2.4 1.4-.6.7-.3 1.4-.9m-3.5-3.2 2.5-.9m-2.4 8.3q.9-.2 1.8-.7l.1-.1 2-1.2m-4.1 7.3 1.3-.4 1.2-.7q1.7-.9 2.2-1.5m-5.4 5.3 2-.5 1.3-.6q1.8-1.1 2.3-1.7m-5 .1-3 .4q-3.2 0-5.7-1.2l-1.6-.7m14.8-3.5q-.6.6-2.2 1.5l-.4.3-1.7.6-3.5.5q-3.1 0-5.7-1.1l-.9-.8m10.2-1.2q-1.7.5-3.6.5-3.2 0-5.8-1.1l-.5-.2M8 123.6h.3l.9.2h3l.7-.1q1.8-.3 3.4-1.2 1.8-1.1 2.2-1.7m.3-2.8-2.3 1.6-1.7.8-2.6.6H11h0-.2l-2.7-.2-.7-.1L5 120l-.2-.2-.5-.2-.8-.5m4.4 4.5-1.3-.4-.5-.2-.6-.2-.9-.5-.7-.5m9.2-4-2.3.3Q7.6 118 5 117l-1.7-1.1m10.6-8.5q-1.7.5-3.6.5-3 0-5.7-1.6" vector-effect="non-scaling-stroke"/><path fill="none" stroke="#693501" stroke-linecap="round" stroke-linejoin="round" stroke-width="__RESOLUTION__" d="m12 7.2-1 .5v11.8" vector-effect="non-scaling-stroke"/><path fill="none" stroke="#6d1c01" stroke-linecap="round" stroke-linejoin="round" stroke-width="__RESOLUTION__" d="m11 19.5.1.1h.1m-.7.1.3-.2h.1" vector-effect="non-scaling-stroke"/><path fill="none" stroke="#018294" stroke-linecap="round" stroke-linejoin="round" stroke-width="__RESOLUTION__" d="m13.8 22.5-.3.3-.2.3-.3.1-1.5.5m2.3-1.6v-3.5m0 3.8v-.2m-5.6-3.5v3.9l.2.3.4.4H9q.6.4 1.5.5" vector-effect="non-scaling-stroke"/><path fill="none" stroke="#42e7fd" stroke-linecap="round" stroke-linejoin="round" stroke-width="__RESOLUTION__" d="m12.9 21 .4.3m-.5 1.1.2.3.4.1m-.6-.4-1.4-.6m-2.7.8 1.7-.9m-2.1 1.1.2-.1" vector-effect="non-scaling-stroke"/><path fill="none" stroke="#8c4602" stroke-linecap="round" stroke-linejoin="round" stroke-width="__RESOLUTION__" d="m9.2 27.3-3.9-2V24l.9-.5m3 3.8 1.9 1m0-1.4-5.8-3" vector-effect="non-scaling-stroke"/><path fill="none" stroke="#834101" stroke-linecap="round" stroke-linejoin="round" stroke-width="__RESOLUTION__" d="m11 7.7-.6-.4" vector-effect="non-scaling-stroke"/></g></defs><g clip-path="url(#a)"><use xlink:href="#b" width="24" height="125.8" transform="translate(1 1)"/></g></svg>