<svg xmlns="http://www.w3.org/2000/svg" xmlns:xlink="http://www.w3.org/1999/xlink" width="32" height="32" viewBox="0 0 32 32"><defs><clipPath id="a"><path d="M1 1h30v30H1z"/></clipPath><g id="b"><path fill="#b6b078" d="m29.9 13.2-3.8 2.5L0 2.3 4.6 0z"/><path fill="#6b652e" d="m26 15.7 3.9-2.5v13.7l-3.8 2.2z"/><path fill="#c4c390" d="m0 2.3 26 13.4V29L0 15.7zm7.2 5.9L1.9 5.6v8.3l5.3 2.8 1 .6 6.9 3.4.8.6 7.7 3.8v-8.6L16 12.7l-.9-.4-7-3.6z"/><path fill="#404040" d="M7.2 16.7 1.9 14V5.5l5.3 2.6zm.9-8 7 3.6v8.5l-6.8-3.6zm7.9 4 7.6 3.8v8.6l-7.7-3.9z"/><path fill="#a7a7a7" d="m7.2 8.2.9.5.2 8.6-1.1-.6zm7.9 4 .9.5v8.6l-1-.6z"/><path fill="none" stroke="#000" stroke-linecap="round" stroke-linejoin="round" stroke-opacity=".3" stroke-width="__RESOLUTION__" d="m26 15.7 3.9-2.5L4.6 0 0 2.3zV29l3.9-2.2V13.2M7.2 16.7 1.9 14V5.5l5.3 2.6.9.5 7 3.6.9.4 7.6 3.8V25l-7.7-3.9-.8-.4-6.8-3.6zV8.2m8.8 4.5v8.6m-7.7-4L8 8.7m7 12v-8.4m11 16.8L0 15.7V2.3" vector-effect="non-scaling-stroke"/></g></defs><g clip-path="url(#a)"><use xlink:href="#b" width="29.9" height="29.1" transform="translate(1 1)"/></g></svg>