<svg xmlns="http://www.w3.org/2000/svg" xmlns:xlink="http://www.w3.org/1999/xlink" width="40" height="39" viewBox="0 0 40 39"><defs><clipPath id="a"><path d="M1 1h38v37H1z"/></clipPath><g id="b"><path fill="#b59e7b" d="M26.5 9.8h.3l-.2.6zm1.8 2.1H28v-.2z"/><path fill="#784e07" d="M26.8 9.8 26.5 0q1.5 5.7 1.7 11.6v.2l-.1.1L23 9.5l1.7-5 1.8 5.4.1.6z"/><path fill="#5e7005" d="m28.2 11.6.1-.2v.5l-.2-.1z"/><path fill="#c4a23c" d="m28.1 12 .5 2.2q-2.2 3.4 1.4 8.3l4.3 3.6-4.8-1.8-3.5-5.7.1-2.9-.6.4.1.1-2.2.4-4.4-1q-4.2-2.4-3 1.5l-1-2.8-.4 4.4-.6-5-1.8-2-.1-.2.1-.9 2.1.3q-.5.5 0 1.4 1.1 1.3 2.9 1.9 1.9.8 4 1l3.6-.1 1.4-.5 1.1-1q.2-2-2.2-3l-2.8-.7-3.2-.6-2.9.4-.7-.8 3.5-.2.7.2 1.4.1 1.9.4zl-.6-.2zm-15.5-1.9.7-.5 1.4.8-.2.3z"/><path fill="#66381e" d="m28.1 12-.6-.3z"/><path fill="#6d4707" d="m34.3 26.1 1.5 1.3q-3.6 1.7-5.5 1.7l.6-3.4-2.4 2.5-1.2-.5h-.4l.8-1.2q0-.6-.2-1H27l-2 5.6-1.7-7.9 1.9 1-1-3 2.3 1.4-.7-4.2.2.2 3.4 5.7zm-8.5 10.6-.6.1.3-1.3-.2-.6-2.6-3.2v-.5l2.9 3zm-4.2-5.9-.6-.4-.5-.5-.1-1 .9-.2.5 1.1zm-9.4-20.2.4-.5 1.8.6.3-.3-1.4-.8.8-.3 1.3-.4.8.8 2.9-.3 3.2.4 2.8.8q2.4 1 2.2 3 0-2.1-2.5-2.5l-3.4-.7q-1.8-.4-3.7 0l-1.9.7q-.9.4-1.5 1.2-.5-.9 0-1.5zm21.2 15.3"/><path fill="#9cb009" d="M30.3 29.1q.4 1.8-.7 3.1-.8-2.6-3 1.5l-.7-.6-.1-1.7.6-2.8.9-.9.6.4-.1.6.6-.5h.1l2.4-2.5zM21 30.4v.4q-.9-.9-1.2.5l.6.1-4 1.8-.8.1-1.1-4.8h-.7l-.2 1.6-1.2-4.4 1.6 2 .8-4.8.7 5.4v.7l-.3.6.4.1.1 1.4.6-1.7q1.7-2.5 1 0l.1.3-.3 1.4.8-1.4.9-2.1.2 2.5.1.6.5-.1.2-.5q.3-.2.7-.2zm-13.9.8L5.6 30l-1.8 1.8-.7-1.5-1.1-2-1.8-2.5 1.7 1.3-.1-6.7 1.5 2.9-1 4.7 1.1-4.3.4 3.2v-.1l.2-1.7.6-2.3.8 3.3v3l.2-.7.7-.7q.8-2.4 1.4 1l-.3.2.1 1.3zm20.7-2.5q-.9 2.4.1.3z"/><path fill="#a38632" d="m26.6 33.7-.8 3-.2-2.5-2.9-3-.4-2q-5-6.4-3.3-13.6l4.4 1 2.2-.4v-.1l.5-.4-.1 2.9-.2-.2.6 4.2-2.2-1.4 1 3-1.9-1 1.7 8 .4.8.5 1.1zm-12-14.5.8 2.6-1.9.8z"/><path fill="#879807" d="m25.5 35.5-1.3.5h-1q-.7-.1-.9-.4t.2-.6 1.3-.4l1.5.3zm-2.7-3.8.8 2.4-3 .5 1-2.6.1-1.1.2-1.1.5-.7.4 2.1zm4.3-6.2h.5q.3.4.1 1l-.7 1.1-.4.6zm-8.2 1.1-1.1-.6q0-.9.4-1.2 1.4-1.4.6 1.8"/><path fill="#86b13d" d="m21 30.8-.4.5-.2.1-.6-.1q.3-1.4 1.2-.6M3.3 23.4l.1.4-1 4.3zm24.5 5.4.1.3q-1 2-.1-.3"/><path fill="#c6e00a" d="m13.7 30.2.3 3.6-.6-.7q-1.6.3-2.9 1.8l1.5-3.5-1.7-1.6-1 3.7-2.2-2.3.4-1 1-1.3.2 1.5-.1-2.3q-.2-.9 0-.9.2-.1.8.6l.1 1.4.1-.8 1.6-.9.3.6.4 1.3-.1-1.3v-4l.6 1.6zm11.4 1 2-5.6-.5 2.7-.1.4-.6 2.8-.4.6zm-6.2-4.5h1q.4.1.4.3l-.4.5-1 .2-.9 2.1h-.4l-.2-.2q.7-2.6-1 0l-.7.2-.4-.1.3-.6.4-.6 1.8-2.3z"/><path fill="#543605" d="m3.1 30.3-3.1.1 2-2zm2.3-4.2 2.6-.4q2.1-1.2 3.4-3.1t1-4.5v-1.2l-.2-5.1 1.8 1.9.6 5 .4-4.4 1 2.8q-1.2-4 3-1.6-1.7 7.3 3.3 13.7l-.5.6-.6-1.2-.8.3.1 1q-.4 0-.7.3l-.2.4-.6-.5-.2-2.5 1-.2.4-.4q0-.2-.4-.4h-1q.7-3.2-.7-1.8-.5.3-.4 1.3l-1.8 2.3-.4-.1-.7-5.4-.8 4.8-1.6-2-.6-1.6v4h-.4l-.2-.6-1.6.9-.2-.6q-.6-.7-.8-.6t0 .9v.5l-1.2.3.3-.2q-.6-3.4-1.4-1l-.9.4zm9.1-6.9-1 3.4 1.8-.8z"/><path fill="#5a4c31" d="M27 27.7h.3l-.9.9.1-.4zm.4.1 1.1.5-.6.5.1-.6zm-21.9.8h.2l-.2.6z"/><path fill="#8f5c0a" d="m19 8.8-.4-3L21.1 9l-1.4-.2z"/><path fill="#e7b623" d="M26.5 13q0 .8-1.3 1.2l-3.5.3q-2.1-.2-3.6-.8-1.6-.7-1.7-1.3 0-.8 1.4-1.2l3.4-.3 3.6.8q1.5.6 1.6 1.4 0-.8-1.6-1.4l-3.6-.8-3.4.3q-1.5.4-1.4 1.2.1.6 1.7 1.3t3.6.8l3.5-.3q1.3-.4 1.3-1.1m.8.6-1.1.9-1.4.5h-3.7q-2-.1-3.9-.9-1.7-.6-2.9-1.9.6-.8 1.5-1.2l1.8-.7q2-.4 3.8 0l3.4.7q2.4.4 2.5 2.6m-4.7-1.9h-1.3l-1.2.3-.5.6q0 .2.6.4h1.3l1.2-.4.5-.5q0-.2-.6-.4"/><path fill="#be9416" d="M22.6 11.8q.5.1.6.4l-.5.5q-.4.3-1.2.4h-1.3q-.6-.2-.6-.4l.5-.5 1.2-.4z"/><path fill="#8dbf1e" d="M37.6 16.4v-.2z"/><path fill="#005200" d="M9.6 28.4v.8l-.2-1.4zm-1-.3.1 2.3-.2-1.5.1-.3z"/><path fill="#963" d="m5.4 28.2.9-.5-.7.8h-.2z"/><path fill="none" stroke="#eec446" stroke-linecap="round" stroke-linejoin="round" stroke-width="__RESOLUTION__" d="M26.5 13q-.2-.7-1.7-1.3l-3.6-.8-3.4.3q-1.5.4-1.4 1.2.1.6 1.7 1.3t3.6.8l3.5-.3q1.3-.4 1.3-1.1" vector-effect="non-scaling-stroke"/></g></defs><g clip-path="url(#a)"><use xlink:href="#b" width="37.6" height="36.8" transform="translate(1 1)"/></g></svg>