<svg xmlns="http://www.w3.org/2000/svg" xmlns:xlink="http://www.w3.org/1999/xlink" width="64" height="184" viewBox="0 0 64 184"><defs><clipPath id="a"><path d="M1 1h62v182H1z"/></clipPath><g id="b"><path fill="none" stroke="#6f0" stroke-linecap="round" stroke-linejoin="round" stroke-width="__RESOLUTION__" d="M33.1 133.5v-15" vector-effect="non-scaling-stroke"/><path fill="#b59e55" d="m17.8 136.7 7.3-3.6 23.1 7.2q4.2-1 6.4 1l-.2.8-.1.8q-.7 3.3-.3 5t-.1 7.8l-.2.5-.1.3.4 2.6v1.5l-.5.9-.1.3-.4.5-1.3 1.3q-1 .5-2 .4-.7 0-1.3-.3l-.1-.1-.5-.4-1.2-1q-.5-.3-.6-1.5v-.1h.3l1.2-.8-2.7-3.7-1 1.3 1.8 3.2h.1l-1.9.5h-.2l.1-.5h.1v-2.3l-2.5-1.7q-.4 2.2-.5 4h2.4l.3.6-2.6-.1.8-.2-1.7-.3h-.8v.8l1.5-.3v.5l.4 2 .3.7.3.5 1 .8 1.1 1h.2l.2.2q1.9 1.6 4.2 1.4 1.6-.2 3.3-1.1l2.5-1.8v2l-.9 2.1-1 .8q-.9.2-1.8-1.8-.1 1.1-.5 2.3l-.7 1.3-.8.8-.8.6-1.4-3-.5 3.7h-1.4q-.1 4-5.2 4.7h-.4l-2-1.6q.6 2.5-4.4 4.8l-1.6-.7-1-.4 1.2-8 2 .9-3.4-1.6 2.1-5.5 2.4-3.2 3.2 2 1-3.7-4.4.4-2.6 1.2v-.2h-.1v-7.3q-1.3 3.8-2.8 5.9l-6.8-3.4-.4 1.9-1 2.1q-2-1.7-4-5l-.9-3.2 1.6.9-1-.7 2.5 1.4-2.1-1.7 1.9.6q-.7-3.8-.4-18m17.3 38-2-.9zl5.6-3.4zm18.6-18.5h-.1q0-.3.3-.4-.4 0-.3.3m0 .4v-.3zM16.3 143v-.7zm8.4 20.6h-3.1l-1.3-1 3.8-1.4z"/><path fill="#2c2310" d="m54 160.4.5.2q1.5.9.8 2.7l-.1.3q-.3.8-1 1.7l-2.5 1.8q-1.7.9-3.3 1.2-2.3.1-4.2-1.5l-.2-.2h-.1l-1.2-1-1-.8-.4-.6-.2-.6-.4-2v-.5h2.8v.2-.2h.4l1.8-.5h-.1l-1.7-3.2.9-1.3 2.7 3.7-1.2.8H46v.1q.1 1.2.5 1.6l1.3.9.5.4h.1q.6.3 1.3.4 1 0 2-.4l1.3-1.2.4-.6.1-.3zm-10.8.3h-2.5q.1-1.8.6-4l2.5 1.7v2.3zm6.5 3.4q2.6 2.8-1.3 4.3 3.9-1.6 1.3-4.3m-9-2.9h.1z"/><path fill="#27271b" fill-opacity=".5" d="M55.3 163.3v3.3l2.9 3h-.7q-1.3-.2-3.2-2.3l-.1-2 1-1.7zm-44.6 11-5-3.6 1.4-.7v-.1z"/><path fill="#473218" d="M44.6 174.2h-.2l.1-.1zm-20.1-21.7"/><path fill="#efdca5" d="M29.9 180.9h-.4V179l-2.9 2.4-2.7-2.6h-.6l-1.1-2-2.3.1q-1 .3-1 .9-1.4-5-2.3-3l-1.2-4.4-1.7 3.4q-.7-.6-1-1.7l-2 2.2-3.5-4.4v-28l9.9-4.9.4-3.2.3 2.8q-.3 14.3.4 18.1l-2-.5 2.2 1.6-2.5-1.4 1 .7-1.6-.8.9 3.1q2 3.3 4 5l-.1.2h.2l1.3 1h3.1l.5 1.5 3.5-1.3 3 2.5v.4l-2.1 5.6-3.2-1.5 3.2 1.4 1.4.8zm-1.5-19.1q1.5-2.2 2.8-5.9v7.3zM16.3 143v-.7zm-3.1 10.3v1.5zm.8.3 2.3.6zm10.4 14.9-4.5-2.8z"/><path fill="#c8dd2d" d="m20.2 162.5 1-2.2.4-1.9 6.8 3.4 2.8 1.3.1.1v.2l2.6-1.2 4.4-.4-1 3.7-3.2-2-2.4 3.2v-.3l-3-2.6-3.5 1.3-.5-1.5-.6-2.4z"/><path fill="#6d6936" d="m29.6 172.3 3.5 1.5-2.1-.9z"/><path fill="#5b9521" d="m40 160.6 1.7.3-.9.2h-.1l-1.5.3v-.8z"/><path fill="#46301a" d="m43.5 161.2-.3-.6h.5z"/><path fill="none" stroke="#22170d" stroke-linecap="round" stroke-linejoin="round" stroke-width="__RESOLUTION__" d="m54.4 142.2-.1.8q-.7 3.2-.3 4.8.4 1.9-.1 8l-.2.3h-.1q0-.2.3-.3m-.2.4-.1.3.4 2.6m0 1.3.5.2q1.5.9.8 2.7l-.1.3q-.3.8-1 1.7l-2.5 1.8q-1.7.9-3.3 1.2-2.3.1-4.2-1.5l-.2-.2h-.1l-1.2-1-1-.8-.4-.6-.2-.6-.4-2v-.5h3.2l1.8-.5h0m.3 0q.1 1.2.5 1.6l1.3.9.5.4h.1q.6.3 1.3.4 1 0 2-.4l1.3-1.2.4-.6.1-.3.5-1v-.2m-5.6 8q3.9-1.6 1.3-4.3m-5.1 10.2-.1-.1m9.1-18v.4" vector-effect="non-scaling-stroke"/><path fill="none" stroke="#28200d" stroke-linecap="round" stroke-linejoin="round" stroke-opacity=".7" stroke-width="__RESOLUTION__" d="M54 159v1.3m.2 5v2" vector-effect="non-scaling-stroke"/><path fill="none" stroke="#495016" stroke-linecap="round" stroke-linejoin="round" stroke-width="__RESOLUTION__" d="M58.2 169.6h-.7q-1.3-.2-3.2-2.3l-1 2.1-1 .8q-.9.2-1.8-1.8-.1 1.1-.5 2.3m-.7 1.3-.8.8-.8.6m-1.4-3-.5 3.7h-1.2m-5.8 4.8-2-1.7m-5.5-14v.2m7-1.7-1 3.8m-3.2-2-2.4 3.2v-.3M41 161l.8-.2-1.7-.3m-.8.8 1.5-.3h.1m13.5 6.2-1 2.1" vector-effect="non-scaling-stroke"/><path fill="none" stroke="#61641c" stroke-linecap="round" stroke-linejoin="round" stroke-width="__RESOLUTION__" d="m30.8 181.4-1-.5" vector-effect="non-scaling-stroke"/><path fill="none" stroke="#587621" stroke-linecap="round" stroke-linejoin="round" stroke-width="__RESOLUTION__" d="M29.5 180.2V179l-2.9 2.4m-2.7-2.6h-.6l-1.1-2m-2.3.1q-1 .3-1 .9-1.4-5-2.3-3l-1.2-4.4m-1.7 3.4q-.7-.2-1-1.7l-2 2.2-3.5-4.4v-.6" vector-effect="non-scaling-stroke"/><path fill="none" stroke="#b59e55" stroke-linecap="round" stroke-linejoin="round" stroke-width="__RESOLUTION__" d="M7.2 169.4v-5.8m0 0v-21.7" vector-effect="non-scaling-stroke"/><path fill="none" stroke="#483517" stroke-linecap="round" stroke-linejoin="round" stroke-opacity=".2" stroke-width="__RESOLUTION__" d="m18.2 154.7-2-.5 2.2 1.6-2.5-1.4m19.2 20.3 5.6-3.4m-7.6 2.5-2.1-.9m-17.8-19.6v1.5m3-.7-2.2-.5m15.6 18.7-3.2-1.5m-6.5-5.2 4.5 2.9" vector-effect="non-scaling-stroke"/><path fill="none" stroke="#727621" stroke-linecap="round" stroke-linejoin="round" stroke-width="__RESOLUTION__" d="m21.3 160.3.3-1.9m2.5 2.8-3.8 1.4h-.2" vector-effect="non-scaling-stroke"/><path fill="none" stroke="#483517" stroke-linecap="round" stroke-linejoin="round" stroke-opacity=".4" stroke-width="__RESOLUTION__" d="m29.6 172.3 3.5 1.5 2 .9" vector-effect="non-scaling-stroke"/><path fill="#5b9521" d="M48.9 169.2h-.4l-1.9.5 6.9-4.3h.1l-.1-5.3h4.7l-2.7 1.7 5.7 2.6-3.5 1.5 2.8 2.8-3.1-1.5-1.4-.5 1.4.6z"/><path fill="none" stroke="#4e5016" stroke-linecap="round" stroke-linejoin="round" stroke-width="__RESOLUTION__" d="m48.5 169.3-1.9.3 6.9-4.2h.1m4.6-5.3-2.7 1.7m5.7 2.6-3.5 1.5m2.8 2.8-3.1-1.5m0 .1-8.5 1.8" vector-effect="non-scaling-stroke"/><path fill="#a5703a" d="M47.2 117.7v-.2.1m-26 39.2.2-1.4-.1 1.3"/><path fill="#997c3c" d="M47.3 117.6h-.1l-1.2 1.6h.2l-1.7 2.7-.5 1.1q-1.8 3.5-2.1 4.8-.5 2.1-.7 4.3l-.1.8-2.6 1.5-7 9.3v-6.1l.7.3.8-.5h.1v-4.5l1.8-.6v-3.6l5.1-2.2v-6.2l11.4-5.8q-2.6 1.5-4.1 3m-10.7 18 2.1-1.5-5.6 3.3 5.6-3.3zl.7-.4.2-.1zm10 0v-.3q0-4 1.8-6.8.7-1.5 1.5-2.6l2.6-1.5q1.3-.6 2.3-.5-.9 1.8-2.1 3.7-.9 1.8-1.2 3.3t.6 2.7 1.5 1l1-.4v3.3l-1.2 2Q52 141 50.1 141q-1.1 0-1.9-.7-1.6-1.5-1.6-4.8"/><path fill="#7d552d" d="m47.2 117.7-1.2 1.6zm-16.7 16"/><path fill="#46301a" d="M47.3 117.6q1.5-1.6 4.1-3.1l.3-.2.5-.3q1.3-.7 2.3-2.7.1-.2 1 .5t1.2 1.4l.1.2q1.3 4-2.1 10.3-1-.1-2.4.5l-2.5 1.5q1.4-3-1-5-1-.8-2.6-1.5z"/><path fill="#876734" d="M51.4 114.5 40 120.3v6.2l-5.1 2.3v3.5l-1.8.6-6.4-2.8.6-.5-19.7-11.3.1-2.7 6.2-7.3 21.5-7 19.1 10q-1 2-2.2 2.7l-.6.3zm-23.2 8.6.1-.1z"/><path fill="#b59e55" d="M33.1 133v4.3l-.1.1-.8.5-.7-.3v6.2l7-9.4 2.6-1.5v2.7q.2 5.5 3 8 1.9 1.8 4.4 1.6l.5.4.5.3h-.1L29.1 158l-1.6-1-11.1-5.1v-.2l6.7.3-5.9-23.3-.1-.3 6.4 3.9 3.2-2.3zm3.5 2.5.7-.4.2-.1zm-4.9 2.2-3.4-1.7z"/><path fill="#473218" d="M41.1 133v-.9q.3-2.2.8-4.3.3-1.3 2-4.8l.6-1.1 1.7-2.7q1.6.7 2.6 1.5 2.4 2 1 5-.8 1.1-1.5 2.5-1.7 3-1.8 6.9v.3q-2.8 3.8-5.4.2zm13.4 1-1 .4q-.5.3-1.5-1-.9-1.2-.6-2.7.3-1.4 1.2-3.3 1.3-1.9 2.1-3.7 1.8 4.9-.2 10.3"/><path fill="#2c2310" d="M41.1 135.6q2.6 3.7 5.4-.2 0 3.3 1.6 4.8.8.8 1.9.8 1.9 0 3.3-1.7l1.2-2q1.9 1 1.1 2.9l-1.2 2-2.6 1.9q-1.8.9-3.3 1.1-2.5.3-4.4-1.5-2.8-2.6-3-8.1m7.4 9.6q4-1.5 1.5-4.2 2.5 2.7-1.5 4.2"/><path fill="#fcf0cb" d="m46.2 119.3-.2-.1 1.3-1.6z"/><path fill="#efdca5" d="m7.6 118.3 19.7 11.3-.6.5-3.2 2.3-6.4-3.9.1.3-1.8-1.6 1.8 1.5 5.9 23.4-6.7-.3-1.1-4.2-1.7 3.5q-.8-.7-1-1.7v-.3l-.1.3v-5.7l-5.3-3 .2-12 .3.7zm7.5 6.5 2.6 1.2zm4.5 20.9v.2-.6z"/><path fill="#27271b" fill-opacity=".5" d="m12.5 149.4-4.8-3 4.9-1.9z"/><path fill="#a6a653" d="m28.2 123.2.1-.1zm-8.5 22.6-.1-.1v-.4z"/><path fill="none" stroke="#22170d" stroke-linecap="round" stroke-linejoin="round" stroke-width="__RESOLUTION__" d="M47.3 117.6h-.1zl-1 1.7-1.7 2.6-.5 1.1q-1.8 3.5-2.1 4.8-.5 2.1-.7 4.3l-.1.8v2.7q2.6 3.7 5.4-.2v-.3q0-4 1.8-6.8.7-1.5 1.5-2.6 1.4-3-1-5-1-.8-2.6-1.5H46zm0-.2q1.6-1.5 4.2-3m.3-.2.5-.3q1.3-.7 2.3-2.7.1-.2 1 .5t1.2 1.4l.1.2q1.3 4-2.1 10.3-.9 1.8-2.1 3.7-.9 1.8-1.2 3.3t.6 2.7 1.5 1l1-.4q2-5.4.2-10.3-1-.1-2.4.5l-2.5 1.5m-3.3 9.7q0 3.3 1.6 4.8.8.8 1.9.8 1.9 0 3.3-1.7l1.2-2q1.9 1 1.1 2.9m-1.2 2-2.6 1.9q-1.8.9-3.3 1.1-2.5.3-4.4-1.5-2.8-2.6-3-8.1m8.9 5.3q2.5 2.8-1.5 4.3" vector-effect="non-scaling-stroke"/><path fill="none" stroke="#483517" stroke-linecap="round" stroke-linejoin="round" stroke-opacity=".2" stroke-width="__RESOLUTION__" d="m33.1 137.4 5.6-3.4-2.1 1.4.9-.5m-4.5 2.5-.8.5-.7-.3-3.4-1.7m-10.4-10-2.6-1.2m2.1 4-1.8-1.4" vector-effect="non-scaling-stroke"/><path fill="none" stroke="#7e7639" stroke-linecap="round" stroke-linejoin="round" stroke-opacity=".6" stroke-width="__RESOLUTION__" d="m54.5 111.3-19.1-10-21.5 7-6.2 7.3-.1 2.7v11.1" vector-effect="non-scaling-stroke"/><path fill="none" stroke="#28200d" stroke-linecap="round" stroke-linejoin="round" stroke-opacity=".7" stroke-width="__RESOLUTION__" d="M54.5 137.3V134" vector-effect="non-scaling-stroke"/><path fill="none" stroke="#495016" stroke-linecap="round" stroke-linejoin="round" stroke-width="__RESOLUTION__" d="M16.4 152v-.2l-1.1-4.2" vector-effect="non-scaling-stroke"/><path fill="none" stroke="#587621" stroke-linecap="round" stroke-linejoin="round" stroke-width="__RESOLUTION__" d="M13.6 151.1q-.7-.1-1-1.7" vector-effect="non-scaling-stroke"/><path fill="none" stroke="#61641c" stroke-linecap="round" stroke-linejoin="round" stroke-width="__RESOLUTION__" d="M12.6 149.4v-.3" vector-effect="non-scaling-stroke"/><path fill="none" stroke="#997c3c" stroke-linecap="round" stroke-linejoin="round" stroke-width="__RESOLUTION__" d="m12.6 144.5-.1-.8-5.3-3 .2-12m5.2 15.8-.1 4.8" vector-effect="non-scaling-stroke"/><path fill="none" stroke="#654525" stroke-linecap="round" stroke-linejoin="round" stroke-width="__RESOLUTION__" d="m19.7 145.9-.1-.2" vector-effect="non-scaling-stroke"/><path fill="#c4e82f" d="M3 129.3h4.8l-.1 5.4 7 4.3-2-.4-.2-.2-8.6-1.8 1.3-.7-1.3.6-3.1 1.4 2.8-2.7-3.5-1.6 5.5-2.6z"/><path fill="none" stroke="#778f14" stroke-linecap="round" stroke-linejoin="round" stroke-width="__RESOLUTION__" d="m3 129.3 2.6 1.7m-5.5 2.6 3.5 1.6m-2.8 2.7 3-1.4m0 0 8.7 2m.3 0 1.9.4-7-4.2h0" vector-effect="non-scaling-stroke"/><path fill="#7c6738" d="m51.7 92.8 3 1.8-6 3.7z"/><path fill="#b59e55" d="m51.7 92.8-3 5.5 6-3.7.5.3V112l-13 5.7L31 129l-4.4 3.3-5.1.1-2.1-2 5.9-3.6-2.8-4.7.9-2 4.5-10.2 6.8-6.4-2.4-2.3-.4-.5-.8-.2-1.2-.2.1-.4 4.5 1.8.5-6.9-2.1.7-1.1-.2 1.8-4.8-3.7-4.9L7.2 74.1l-2.1.3 3.7-10.6L3 74v.6l2.1-.2 3.7-10.6 18.8-9.5 24 9.8 1.3 26.3zm-3 5.6-6.5 4v7.7-7.7zM42.3 110l-15.5 10h-3.3 3.3zv7.7zM15.6 94.8l1.1-.5v3l-1.3-.2-2.4 8.4 3.2 2.6 1.5-.6h2.5l1.4-5.2-6.2-5.2zm-8.7-2.9-.5 2.4-.8-.3-.8-.5-.3-5.3.8.5.3 2.5zm13.7 20.4-.7 1.8-3.8 1.2-3.9 1.3-3.9-2.1-1-4.2 1.9 1.7h1l2.8 1.4 1.2-1.4zM5.6 94l.8.3-.8 4.2zm7 26.1 5.6 3.5-1 3.8z"/><path fill="#46301a" d="M26.6 132.3v4.9q-.7 2.1-5.4 2.9l-4-12.7 1.4 2.1.8.8 2 2.1zm-1 18.8-.6 6.8-1.1-5.5zm-20-42.5L4.1 106l7.8 3.7-1.2-2.8 2.2-1.3.1-.1 3.2 2.6 1.5-.6h4.2l-1.1 4.8h-.2l-6.4-.3-1.2 1.4-2.8-1.4h-1l-1.8-1.7zm26.2-13.3 1.1.2 2-.7-.4 6.9-4.5-1.8zM17 108.8l-.8-.7z"/><path fill="#2c1d10" d="m26.6 137.2-1 13.9-1.7 1.3-2.6-12.3q4.6-.8 5.3-2.9"/><path fill="#7d552d" d="M25 157.9v1.3q-2.3 1.9-6.5 2.6-3.1-.2-6.5-2.6l-2.7-7-.3-3.1q1.6 4.7 5 4.9l5 .8q1.4.4 4.9-2.4zM7.4 135.5l-.1-13.2 1 5 .7-2.1-.2-7.4 3.8 2.2v.1l4.7 7.3h-.1l4 12.7-3.8.4q-7.5-.5-10-5M4.1 106l.9-4.4.7 3 2.5 1.2 2.6 1.1 1.1 2.8zm11.5-11.2-.5.2.9-4.5 3.5-.2 10 4.7 2.3.3-1.8 4.6-.7.3-1.8-.5-4-2-6.2-3-.6-.4z"/><path fill="#4f351e" d="m25 159.2-.2 1.5q-4.6 9-10.2 2.1l-2.6-3.6q3.4 2.4 6.5 2.6 4.2-.7 6.5-2.7"/><path fill="#654525" d="m9 149.1-1.6-13.6q2.5 4.5 10 5l3.9-.4 2.6 12.3q-3.5 2.8-4.9 2.3l-5-.7q-3.4-.2-5-4.9m-3.8-48.6Q1.2 93.4.1 83v-3.8Q1.6 75 3 74.6v6L1.9 82v4.4l1.1 1v.2l.2.1 1.3.6.3 5.3.8.5v4.5z"/><path fill="#efdca5" d="m7.3 122.4-1.5-9.7-.2-1v-3.2l1.8 1.8.9 4.2-1.1 2.5-1.4-4.3 1.4 4.3 1.1-2.5 4 2 3.8-1.2 3.8-1.2.7-1.8h.1l1.2-4.8h-1.7l1.4-5.2-6.2-5.2.2-2.3-.5.2.9-4.5 3.5-.2 10 4.7 2.3.3 1.8-4.8-3.7-4.9L7.2 74.1l-2.1.3.3 7.4 11.1 5.4-11.1-5.4-.3-7.5-2.1.3v6l2.4 1.2v1.6-1.6L3 80.7V82l2.4 1.3 2.4 1.3-.1 2.8-.4 2.2-.4 2.2-.5 2.4 4.9 2.3-3.1 9.2 3.1-9.2-4.9-2.3-.8 4.2-.4 2-.2 1.1.7 3 2.5 1.2 2.6 1.1 2.1-1.3.1-.1 2.4-8.4 2.3.7.5.2 4.6 2.3 1.1.7 3.6-1.2 1.8.4.7-.3-.1.3 1.2.3.8.2.4.5 2.4 2.3-6.8 6.3-4.5 10.3-7.3-4.8 7.3 4.8-1 2 2.9 4.8-5.9 3.4-.8-.8-1.4-2.1 1-3.9-5.5-3.4-.1-.1-3.8-2.2.2 7.4-.6 2.1zm22-22.1h.6zM3 87.3l.2.3-.2-.1zm16.9 32.8-1.8-1-1.5 2.3-2.2-3.8-2.2-1 2.2 1 2.2 3.8 1.5-2.2z"/><path fill="#927443" d="m16.7 94.4.6.3.9 3.2-.4-.1-1.1-.5zm6.8 3.5 4 2-3.6 1.2-1.1-.7z"/><path fill="#271b0e" d="m17.3 94.7 6.2 3-.7 2.6-4.6-2.3v-.1zm-9.9-5L7 91.9l-1.3-.7-.3-2.5z"/><path fill="#a36c36" d="m5.4 83.4 2.4 1.3-.1 2.8-.4 2.2-2-1-.8-.5-1.3-.6-.2-.2-1.1-1v-4.5L3 80.7V82z"/><path fill="none" stroke="#756235" stroke-linecap="round" stroke-linejoin="round" stroke-width="__RESOLUTION__" d="m54.7 94.6-3-1.8-3 5.5-6.5 4v15.4l13-5.7V95zm-12.5 23L31 129l-4.4 3.3m-19.3-10-1.5-9.6-.2-1v-3.2m-.6-6.9.2-1.1.4-2 .8-4.2.5-2.4.4-2.2M3 74.6V74l5.8-10.2 18.8-9.5 24 9.8 1.3 26.3-1.2 2.3m-19.8 8 .4.5m-2.4-1 1.2.3M3 74.7v6m13.7 16.7 1 .5.5.2V98m0 .1 4.6 2.3 1.1.7 3.6-1.2M15.4 97l1.3.2m13.2 3-.6-.1m-24.8-12 .3 5.3.8.5v4.5M3 87.3v.2l.2.1m2.6 25.1 1.4 4.3 1.1-2.5 4 2 2.1 1.1 2.2 3.8 1.5-2.2 1.8.9" vector-effect="non-scaling-stroke"/><path fill="none" stroke="#45301b" stroke-linecap="round" stroke-linejoin="round" stroke-width="__RESOLUTION__" d="M26.6 132.3v4.9l-1 13.9-.6 6.8v1.3l-.2 1.5q-4.6 9-10.2 2.1l-2.6-3.6-2.7-7-.3-3.1-1.6-13.6-.1-13.2 1 5 .7-2.1-.2-7.4 3.8 2.2v.1l4.7 7.3 1.3 2.1.8.8 2 2.1zm-5.4 7.8-3.8.4q-7.5-.5-10-5m19.2 1.7q-.7 2.1-5.4 2.9m2.7 12.3 1.7-1.3M9 149q1.6 4.7 5 4.9l5 .8q1.4.4 4.9-2.4m-12 6.8q3.5 2.4 6.6 2.6 4.2-.7 6.5-2.7" vector-effect="non-scaling-stroke"/><path fill="none" stroke="#46301a" stroke-linecap="round" stroke-linejoin="round" stroke-width="__RESOLUTION__" d="M5.6 108.6 4.1 106l.9-4.4.7 3 2.5 1.2 2.6 1.1m21-11.6-2.2-.3-10.1-4.7-3.5.2-1 4.5.5-.2 1.1-.5.6.4 6.2 3 4 2 1.8.5.7-.3zM5.4 83.4l2.4 1.3-.1 2.8-.4 2.2-2-1-.8-.5-1.3-.6-.2-.2-1.1-1v-4.5L3 80.7V82zm14.8 24h1.7l-1.1 4.9h-.2l-6.4-.3-1.2 1.4-2.8-1.4h-1l-1.8-1.7-1.8-1.7m14.6-1.1h-2.5l-1.5.6.8.7" vector-effect="non-scaling-stroke"/><path fill="none" stroke="#483517" stroke-linecap="round" stroke-linejoin="round" stroke-opacity=".2" stroke-width="__RESOLUTION__" d="M23.4 120h3.3l15.6-10M8.8 63.8 5.1 74.3l.3 7.5 11.1 5.4M3 80.7l2.4 1.1v1.6m1 10.9 4.9 2.3-3.1 9.2m7.9 9.5 7.3 4.8M5.6 94l.8.3" vector-effect="non-scaling-stroke"/><path fill="none" stroke="#756235" stroke-linecap="round" stroke-linejoin="round" stroke-width="__RESOLUTION__" d="m31.1 100.6.8.1" vector-effect="non-scaling-stroke"/><path fill="none" stroke="#392615" stroke-linecap="round" stroke-linejoin="round" stroke-width="__RESOLUTION__" d="m10.8 106.9 2.1-1.3.1-.1" vector-effect="non-scaling-stroke"/><path fill="#473218" d="M43 80.9q4.5-2.8 8.7-3.5l4.8 1.8 1.4 3.3q1.2 3.4 1.6 6.8l-3.8 6.5-.1.2-4-.3-1.2-1.1-1.7.7 1.5-3.5-1.2-7.6zm9.5 30q-2.6 2.4-4.6 3.3-5-1-5.5-3.1l-.2-3.7-6.5 1.8-5 9-4.5 4.1 2.1-7.4 5.7-9 3-7.7 4-4.5 4.1 6.2.1 3-.6 2.4 2.9 1.4 2.9-2.5.2-.3v-.1h.2l-.3.3h-.1v4l1.3-3.5 1.3 1.3zm-1.9-7-.1.2zm-8.4 3.5 1.6-.7.8 1.5-.8-1.5zm1.6-.8.8-1.4zM25.4 122l-.3.8z"/><path fill="#593c20" d="m59.5 89.4.2 4.5q-1.2 8.6-6.1 15.9l-1 1 .4-5-1.3-1.2-.9-.8-.1-.1q.8-1.7.8-3.7l-.1-.9.1-3.4 4.1.3v-.2zm-22.1-1.7 2.9-4.3q.2-.3 0-.6l2.8-1.9 5.9 3.4 1.2 7.6-1.5 3.5-.4.2-.8 2.9-2.3 4.4-.1-3-4.1-6.2 4.8-5.7.4-3.9-2-.3z"/><path fill="#a36c36" d="m28.3 114.9 1.2-4.3.3-2.1-.2.1-.2.1-7.8-3.2-.6-3.1 6 2 4.2-2.2 3.3-9.2 6.3.3.2.3-4 4.5-3 7.7z"/><path fill="#88592d" d="M34.5 93q1.3-2.8 2.9-5.4l6.8-4 2 .5-.5 3.8-4.7 5.6-.2-.2z"/><path fill="#0d0904" d="m48.7 95.3 1.7-.7 1.1 1.1-.1 3.4-.1-.5v1.2q-1.2-2.8-3.8-1.4l.9-3zm2.1 8.5.9.8-1.2 3.5-.1-4v-.1z"/><path fill="#6a4826" d="m51.4 99.1.1 1q0 1.9-.8 3.6h-.1l-.2.3-3 2.6-2.8-1.4.6-2.4 2.3-4.4q2.5-1.5 3.9 1.4zv.7l-.1-1.2z"/><path fill="none" stroke="#2c2310" stroke-linecap="round" stroke-linejoin="round" stroke-width="__RESOLUTION__" d="M43 80.9q4.5-2.8 8.7-3.5l4.8 1.8 1.4 3.3q1.2 3.4 1.6 6.8l.2 4.7q-1.2 8.5-6.1 15.8l-1 1q-2.7 2.4-4.7 3.3-5-1-5.5-3.1l-.2-3.7-6.5 1.8-5 9-4.5 4.1 2.1-7.4 1.2-4.2.3-2.1-.2.1m7.8-21 2.9-4.3q.2-.3 0-.6l2.8-1.9 5.9 3.4 1.2 7.6-1.5 3.5 1.7-.7 1.1 1.1 4.1.3v-.2l3.9-6.5m-8.8 14.4q.8-1.7.8-3.7l-.1-.9v.7Q50 97 47.5 98.4l-2.3 4.4-.6 2.4 2.9 1.4 2.9-2.5v-.1l.2-.2zl.9.8 1.3 1.3-.5 5m-1.1-11-.1-1.2.1.5.1-3.4M41 93.5l-.2-.2m.2.3 4.1 6.2.1 3m3.5-7.5-.4.2-.8 2.9m-3 9.6-.7-1.4-1.6.8m2.4-2.2-.8 1.4" vector-effect="non-scaling-stroke"/><path fill="none" stroke="#604020" stroke-linecap="round" stroke-linejoin="round" stroke-width="__RESOLUTION__" d="m31.2 102.2 3.3-9.2q1.3-2.8 2.9-5.4m3.4 5.7-6.3-.3" vector-effect="non-scaling-stroke"/><path fill="#b59e55" d="m45.8 13 4.7 2.3q-1 2.2-2.2 2.9-1.6.8-3 2.2l-.8.9-1.8 2.5-.4.5 4.2 7.5q1.2-1.6 2.5-2.3t2.2-.7v.1q-.3 2.4-.2 4l.4.3.3.1v2.3l-.5.2.3 2 .1 3.3-.4 1-.7 1-.2.2q-1.3 1.4-3 1.4-.8 0-1.4-.4l-.5-.4q-.9-.7-1.3-1.8-.5-1.3-.6-3l-4.1.3-1.2-.1v.8l.3 1q.5 3.6 2.5 5.7l.5.5.3.3q1.9 1.6 4.2 1.3 1.5-.1 3.2-1.1l2.5-1.9v1.5l-13.7 6-.1.3-1.6 3.6-.1.4-.7 2.3q-.9 3.3-1 6.5 0 4.7 1.6 7.6.6 1.3 1.6 2.3l.5.6-1 2.6-.3.2-2.1-2.8-1.1 4.5v.5l-.9.5.2-.8-7.3 1.7-2.9-1.6 6.7-11.2v-6l-.7-7.2-.8.4.6-4.1 2 .8-3.4-1.5 2.1-9.6 2.4-3.2 3.2 2 .9-3.8v-.2l3.5-.5-3.4-.9-4.5 2.1-2.5 1.2v-.2l-.2-.7v-2.5l.2-2.9-2.6-1.4-1.4 1q-2.4 1.3-5.7-.6-2.1-1.2-3.8-3.1l-.1-.1q-1.6-1.8-3-4.3l-1.6.8v-.2 1.7l-5.9-3.2v-9.8l17.8-8.8zm-10 19.8-7 3.9zm3-3.5-.2 1.6q-.6 3.9 0 6.3l2.8-2.1-.1-4.1zm3.4-.6-.9 1.4 2 3.5 1.6-1.1-1-1.2zm9 7.1-.3-2.9zm-8.8.1-1.7.5-.6-.1.9 1.6zm-9.9 19.5-2-.9zl5.6-3.4zm7 12.6q.6-4.7 2.6-8.2l.5-.9q1.8-2.6 4-3.4l.3-.1q3.7-.8 4.7 6.4v3.5l-2.7 3-2.3 5.8-.4.2q-1.9-.1-1.3-3.2l.1-.6.1-.9v-1.1q0-2.5-1.2-3.4-.7-.5-1.3-.5-.7-.1-1.2.3-1.1.8-1.9 3m-5.9 13.6-.7.2zM33 62.9l-3.6 1.8zM4.8 36.2v3.5l-.4.7v-3.1z"/><path fill="#614223" d="m42.3 24.3.4-.5 1.8-2.5.9-.9q1.3-1.4 2.9-2.2 1.2-.7 2.2-3L45.8 13q4.4-1.1 6.6 1.3 1.1 2.1.8 4l.1.7q.9 4-2.1 9.8-1 0-2.2.7-1.3.8-2.5 2.3 1.9-3.1-2.1-6.5zm9.8-8.3-1.3-1.4-.3.7.3-.7z"/><path fill="#efdca5" d="m4.8 24.4 6 3.2-.1-1.5 1.7-.8q1.3 2.5 2.9 4.3 1.8 2 3.9 3.2 3.3 1.9 5.7.6l1.4-1 2.6 1.4-.1 2.9-.2.2h.1v2.3l.2.7-9.7-4.7-.4 1.8-1.1 2.3 4-1.4 1 3.9 3.5-1.3 3.1 2.6v.3L27.2 53l-3.5-1.6 3.5 1.6 1.4.7-.6 4 .8-.3.7 7.2v6l-6.7 11.2-3.2-1.7-.7-.4h-.2l-.5-.2-1.6-.8-.4-.2-.5-.2v-2l-1.3-.7-1.2-1.3-.1-.1-.6-.7-1.4-1.7Q9 69.1 7.6 66.1q-2.4-4.8-3.2-9.4V40.4l.3-.6v-3.6zM28.6 37l-3.3-2zm-6.7 10.3-4.5-2.4zm-17.2 0v-7.5zm11 27.1v2zm9-11.5 4.8 1.8zm-5.8 16.9-.7-.2z"/><path fill="#2c2310" d="m38.9 29.3 2.4 1.7.1 4.1-2.8 2.1q-.6-2.5 0-6.3zm3.4-.6 1.7 2.6 1 1.2-1.6 1-2-3.4zm0-4.4 2.2 1h-.1q4 3.4 2.1 6.5zm9.3 16.8q2 1 1.3 2.9l-1.1 2-2.6 1.8q-1.7 1-3.2 1.1-2.3.3-4.2-1.3l-.3-.3-.5-.5q-2-2.1-2.5-5.6l-.2-1.1-.1-.9 1.1.2 4.3-.2q0 1.6.5 2.9.4 1.1 1.3 1.8l.5.4q.6.4 1.4.4 1.7 0 3-1.4l.3-.2.6-1zM46 48.9q3.9-1.5 1.3-4.2 2.6 2.7-1.3 4.2"/><path fill="#7d552d" d="M37.7 76.4h.1q.8.8 1.7 1.2.6.1 1.4-.3l-.9.5-.5-.2q-.7-.1-1.2-.6zm3.6.8.6-.4-.3.2zm3.9-7.5v-1.1zM39.6 68v.4l.1 2.4v-.4l-.2-2V68zm2.3 8.7-.3.2z"/><path fill="#46301a" d="m42.5 35.9-1.4 2-1-1.6.7.1z"/><path fill="#5b9521" d="m35.9 36.8 3.4.9-3.4.5-.1.2-4.4.5z"/><path fill="#c8dd2d" d="m31.4 38.9 4.4-.5-1 3.8-3.1-2-2.4 3.2V43l-3.1-2.6-3.5 1.3-1-3.9-4 1.4 1.1-2.3.4-1.8 9.7 4.7v.2z"/><path fill="#6d6936" d="m27.2 53 3.4 1.5-2-.8z"/><path fill="#473218" d="M42.2 54.9H42v-.1z"/><path fill="#a6a653" d="m28.6 36.9.1-.2v.2z"/><path fill="#926436" d="M4.4 56.7q.8 4.6 3.2 9.4-3.2-2.4-4.1.1-1.3-6.2.9-9.5"/><path fill="#a5703a" d="M7.6 66.1q1.4 3 3.5 5.8v1.8l-2.6-.5-1.7-4.5-.9 3.4-.6-.4-.2-.3q-.6-.7-.7-1.5l-1.2-4.7.3 1q.9-2.5 4-.1m5.7 8.2 1.2 1.3-.8-.5z"/><path fill="none" stroke="#483517" stroke-linecap="round" stroke-linejoin="round" stroke-opacity=".2" stroke-width="__RESOLUTION__" d="m42.3 24.3.4-.5 1.8-2.5.9-.9q1.3-1.4 2.9-2.2 1.2-.7 2.2-3L45.8 13 22.6 5.8 4.8 14.6v25.1l-.1 7.5m6-19.6v-1.7m18 10.8 7.1-3.9m14.7-17.5.3-.7 1.3 1.4m1 2.3q.4-1.9-.7-4-2.2-2.4-6.6-1.3M32.6 55.4l5.6-3.4M25.3 34.9l3.3 2m-1.4 16-3.5-1.5m4.9 2.3 2 .8m-13.2-9.7 4.5 2.4" vector-effect="non-scaling-stroke"/><path fill="none" stroke="#22170d" stroke-linecap="round" stroke-linejoin="round" stroke-width="__RESOLUTION__" d="M46.5 31.8q1.2-1.6 2.5-2.3t2.2-.7q3-5.8 2.1-9.8l-.1-.7m-2 10.6q-.3 2.4-.2 4l.3 2.9.2 2m.1 3.3q2 1 1.3 2.9l-1.1 2-2.6 1.8q-1.7 1-3.2 1.1-2.3.3-4.2-1.3l-.3-.3-.5-.5q-2-2.1-2.5-5.6l-.2-1.1-.1-.9 1.1.2 4.3-.2q0 1.6.5 2.9.4 1.1 1.3 1.8l.5.4q.6.4 1.4.4 1.7 0 3-1.4l.3-.2.6-1zM40.9 77.3l.4-.2.3-.2.3-.2m5.4-32q2.6 2.7-1.3 4.2m.7 25.2-.4.2m-6.7-6.1V68m-1.9 8.3.5.7q.6.5 1.3.6l.5.3.9-.6m-3.6 2.3-.4.2M33.7 82l-.9.5m8.8-5.6.3-.2m3.3-8.2v1.1m1.3-37.8-4.2-7.5" vector-effect="non-scaling-stroke"/><path fill="none" stroke="#7e7639" stroke-linecap="round" stroke-linejoin="round" stroke-opacity=".6" stroke-width="__RESOLUTION__" d="m4.8 36.2-.4 1v19.5" vector-effect="non-scaling-stroke"/><path fill="none" stroke="#826433" stroke-linecap="round" stroke-linejoin="round" stroke-width="__RESOLUTION__" d="m51.4 33.2.3.1v2.3l-.5.2m.5 26v3.3m0 .2-2.7 3" vector-effect="non-scaling-stroke"/><path fill="none" stroke="#28200d" stroke-linecap="round" stroke-linejoin="round" stroke-opacity=".7" stroke-width="__RESOLUTION__" d="m51.5 37.8.1 3.3m.1 4.8v1.5" vector-effect="non-scaling-stroke"/><path fill="none" stroke="#495016" stroke-linecap="round" stroke-linejoin="round" stroke-width="__RESOLUTION__" d="M35.8 38.4v-.2l3.5-.5-3.4-.9m-.1 1.6-1 3.8m-3.1-2-2.4 3.2h0V43m22.4 22v.2M28.9 40v-.2M5.3 71.7l-.2-.3m3.4 1.8-1.7-4.5m9.8 10-.4-.2" vector-effect="non-scaling-stroke"/><path fill="none" stroke="#483517" stroke-linecap="round" stroke-linejoin="round" stroke-opacity=".4" stroke-width="__RESOLUTION__" d="m27.2 53 3.4 1.5 2 .9m-4-18.5" vector-effect="non-scaling-stroke"/><path fill="none" stroke="#654525" stroke-linecap="round" stroke-linejoin="round" stroke-width="__RESOLUTION__" d="m33 81.7-7.3 1.7-1.8.4m9-2.1.8-.2M4.4 56.7q.8 4.6 3.2 9.4 1.4 3 3.5 5.8m-6-.5q-.6-.7-.7-1.5l-1.2-4.7.3 1q-1.3-6.2.9-9.5M7.6 66q-3.2-2.4-4.1.1M5.9 72l-.6-.4m17.5 10.1 2.9 1.6M19.6 80l3.2 1.8" vector-effect="non-scaling-stroke"/><path fill="none" stroke="#727621" stroke-linecap="round" stroke-linejoin="round" stroke-width="__RESOLUTION__" d="m19.2 35.2-.4 1.8m-1.1 2.3 4-1.4" vector-effect="non-scaling-stroke"/><path fill="none" stroke="#483517" stroke-linecap="round" stroke-linejoin="round" stroke-opacity=".2" stroke-width="__RESOLUTION__" d="m29.5 64.7 3.6-1.8m-3.6 1.7-4.8-1.8" vector-effect="non-scaling-stroke"/><path fill="none" stroke="#587621" stroke-linecap="round" stroke-linejoin="round" stroke-width="__RESOLUTION__" d="m13.2 74.3 1.2 1.3m1.3.7v-2m.5 4.2-.5-.2v-2m3.9 3.8-.7-.4h-.2l-.5-.2m0 0 .7.2" vector-effect="non-scaling-stroke"/><path fill="#a36c36" d="M9.5 40.9h2.7q2-.1 5.7 2.8l2.2 1.9q.9 1.1 1.9 2.7-1.5.7-2.5 1.4-1.6-2.9-4.7-4.3-4.2-2.5-6.6 0-.4-1.8 1.3-4.5m15.6 14.7.3 1.4v2.5l-1.6-3.8v-.1zM5.6 49.2q-.1-2.2.4-3.9.2 1.1 1 1.9z"/><path fill="#88592d" d="m22 48.3.7 1 1 2.1q.9 2 1.4 4.1l-1.4.1-4.2-6zm-16-3 .9-2.2 1.4-1.6q.7-.5 1.2-.6-1.7 2.7-1.3 4.5L7 47.2q-.8-.8-1-1.9"/><path fill="#7d552d" d="M25.5 59.5q-.1 1.3-.4 2.5l-.1.6q-4.3-.6-4.7-3.7V57q-.1-1.3-.6-2.4l-.1-.4-.8-1.4 1.3 1.5q1.5 1.2 3.6 1.3v.1zm-8 3.1q-1.1-2.2-1.1-4.1l.2-.2q.4 1 2.8 1.2l.1.3q-1.7 1.9-2 2.8m-7.2-12.8-.1.1-.5 1q-.3 1-.3 2.3-3.2.6-3.6-.6V52l-.2-2.3v-.5l1.4-2q1.3 1.3 4.4 1.6l-.4.3-.3.2zm10.9 20.7q3.3 4 5.5 7l.1.1 1 1.3 1.4 2.1q.5.9.1 2.5L27 84.7 25.9 83l-1.4 1.7-1-.1-.8-2.3-1.6 1.6q-1.6-.9-.7-2.7l.4-1.7q.1-2.4-1.1-4.8l-.9-1.5z"/><path fill="#a5703a" d="m25 62.6-.8 1.9q-.6.9-1.4 1.5-1 .5-2.5-.2-1-.7-2-1.8l-.7-1.3v-.1q.1-1 1.9-2.8.6.3.8-.9.4 3.1 4.7 3.7M9.4 53.2Q9.3 56 11 59.3l2.2 3q-2 1.9-1.4 2.8l-.6-.7-2.9-4.2L6.9 57l-1.2-4.4q.5 1.2 3.7.6"/><path fill="#926436" d="m16.6 58.3-.2-.7.2-.8q.1-.9.9-1.5.5-.3.9-.3 1.5.7 1.8 3l.1.9q-.2 1.2-.8.9l-.1-.3q-2.3-.2-2.8-1.2m-3.4 4 1.8 2 2.1 2-1.8 2h3.8l2 2.2-2.3 2.7q-1.2-2-6-7l-1-1.2q-.6-.8 1.4-2.7"/><path fill="#b59e55" d="M19.6 54.2q-4.3-5-9.4-4.4l.5-.5.3-.2.4-.3.7-.3q1.2-.3 2.7.4 1.7.8 3.3 2.8l.7 1.1z"/><path fill="#473218" d="M17.1 66.3q-1.2 1.5 2 2h-3.8z"/><path fill="#614223" d="M8.2 45.4q2.4-2.5 6.6 0 3 1.4 4.7 4.3-1.5 1-1.4 2-1.6-2-3.3-2.8-1.5-.7-2.7-.4-3.4-1-3.9-3.1"/><path fill="#46301a" d="m12 48.5-.6.3q-3.1-.3-4.4-1.6l1.2-1.8q.5 2.2 3.9 3.1m6.7 4.3-.7-1.1q-.1-1 1.4-2l4.3 5.9h-.1q-2.1-.1-3.6-1.4z"/><path fill="none" stroke="#654525" stroke-linecap="round" stroke-linejoin="round" stroke-width="__RESOLUTION__" d="M9.5 40.9h2.7q2-.1 5.7 2.8l2.2 1.9q.9 1.1 1.9 2.7l.7 1 1 2.1q.9 2 1.4 4.1l.3 1.5v2.5q0 1.3-.3 2.5l-.1.6-.8 1.9q-.6.9-1.4 1.5-1 .5-2.5-.2-1-.7-2-1.8l-.7-1.3v-.1h-.1q-1.1-2.2-1.1-4.1l.2-.2-.2-.7.2-.8q.1-.9.9-1.5h0q.5-.3.9-.3 1.5.7 1.8 3l.1.9V57q-.1-1.3-.6-2.4m-9.5-4.7-.5 1q-.3 1-.3 2.3-.1 2.9 1.6 6.1l2.2 3 1.8 2 2.1 2m2 2 2 2.2q3.4 4 5.6 7l.1.1 1 1.3 1.4 2.1q.5.9.1 2.5L27 84.7m-2.5 0-1-.1m-2.4-.7q-1.6-.9-.7-2.7m.4-1.7q.1-2.4-1.1-4.8l-.9-1.5q-1.2-2-6-7l-1-1.2-.6-.7-2.9-4L6.9 57l-1.2-4.5V52l-.1-2.3m0-.5q-.1-2.2.4-3.9l.9-2.2 1.4-1.6q.7-.5 1.2-.6m10 8.8q1-.7 2.5-1.4m-10 .2-.6.3-.4.3-.3.2-.4.5m9.3 4.4-.8-1.4m5 2.8H25M9.4 53.2q-3.2.6-3.6-.6m13.7 7.2-.1-.3q-2.3-.2-2.8-1.2m2.9 1.5q.6.3.8-.9.4 3.1 4.7 3.7m-7.4 0q.1-1 1.9-2.8m-6.3 2.5q-2 1.9-1.4 2.8m7 8.1 2.4-2.7" vector-effect="non-scaling-stroke"/><path fill="none" stroke="#483517" stroke-linecap="round" stroke-linejoin="round" stroke-opacity=".4" stroke-width="__RESOLUTION__" d="m19.7 54.6-.1-.4" vector-effect="non-scaling-stroke"/><path fill="none" stroke="#495016" stroke-linecap="round" stroke-linejoin="round" stroke-width="__RESOLUTION__" d="M27 84.7 25.9 83m-2.4 1.6-.8-2.3" vector-effect="non-scaling-stroke"/><path fill="none" stroke="#22170d" stroke-linecap="round" stroke-linejoin="round" stroke-width="__RESOLUTION__" d="M5.6 49.7v-.5m13.2 3.6-.7-1.1m5.6 3.9v.1" vector-effect="non-scaling-stroke"/><path fill="none" stroke="#412d18" stroke-linecap="round" stroke-linejoin="round" stroke-width="__RESOLUTION__" d="M18 51.7q-1.5-2-3.2-2.8-1.5-.7-2.7-.4-3.4-1-3.9-3.1m9.9 6.3q-.1-1 1.4-2" vector-effect="non-scaling-stroke"/><path fill="#2c2310" d="M48.5 43.4q4.9 7.7-1.5 12l-.3.1q-2.2.8-4 3.4 1.1-2.4-.4-4.2-2-3.4-4-2 3-5.9 7.3-8.3l1.1-.6zm-5.8 21.2q.6 0 1.3.5 1.2 1 1.2 3.4v1.1q-.5 2.4-4.4 1.4 4-1.4 1.9-6.5"/><path fill="#473218" d="M47 55.4q6.4-4.3 1.5-12l3.2.4q6.5 7.9 0 18-1-7.2-4.7-6.4m-5.1 21.3-.6.4-.3.2h-.1q-.8.4-1.4.3-.9-.4-1.6-1.1l-.2-.2q-1-.9-1.6-2.2 3.4.6 3.6-3.2.1.6.6.4 2.9 3.9 1.6 5.4"/><path fill="#5f3f21" d="M38.3 52.8q2-1.5 4 1.9 1.6 1.8.4 4.2l-.5.9q-2 3.5-2.7 8.2v.5l.2 2v.4q-.2 3.8-3.6 3.2-1.5-3-1.5-7.6 0-3.2.9-6.5l.6-2.3.1-.4 1.6-3.6zm1.8 6.4q-2-1.9-4-1.4 2-.5 4 1.4"/><path fill="#46301a" d="m45.2 69.6-.1.9-.1.6-1 2.6-1.1 2-1 1q1.3-1.5-1.6-5.4-.5.2-.6-.4l-.2-2.5v-.3l.1-.1q.8-2.3 1.9-3.1.5-.4 1.2-.4 2.1 5.1-1.9 6.5 4 1 4.4-1.4M40.8 71l-.2.2-.3.1.3-.1z"/><path fill="none" stroke="#302012" stroke-linecap="round" stroke-linejoin="round" stroke-width="__RESOLUTION__" d="M47 55.4q6.4-4.3 1.5-12l-1.7.4-1.2.6q-4.3 2.4-7.3 8.4 2-1.5 4 1.9 1.6 1.8.4 4.2 1.8-2.6 4-3.4zq3.7-.8 4.7 6.4 6.5-10.1 0-18l-3.2-.4M36 74.1q-1.5-3-1.5-7.6 0-3.2.9-6.5l.6-2.3.1-.4 1.6-3.6.5-1m4.4 11.8q.6 0 1.3.6 1.2 1 1.2 3.4v1.1l-.1.9m-.1.6-1 2.6-1.1 2-1 1-.6.4h0l-.3.2h-.1q-.8.4-1.4.3-.9-.4-1.6-1.1l-.2-.2q-1-.9-1.6-2.2 3.4.6 3.6-3.2v-.4l-.2-2V68q.8-4.7 2.7-8.2l.5-.9m-3.2 9.2q.8-2.3 1.9-3.1.5-.4 1.2-.4 2.1 5.1-1.9 6.5 4 1 4.4-1.4M39.5 71q.1.6.6.4l.3-.1.3-.2m-1.4-2.5.2 2.4m2.1 5.8q1.4-1.5-1.5-5.4" vector-effect="non-scaling-stroke"/><path fill="none" stroke="#2c2310" stroke-linecap="round" stroke-linejoin="round" stroke-width="__RESOLUTION__" d="M36.2 57.7Q38 57.2 40 59" vector-effect="non-scaling-stroke"/><path fill="#5b9521" d="m51.2 35.9-.2-5.4h4.7l-2.6 1.7 5.6 2.6-3.5 1.5 2.9 2.9-3.2-1.5-1.3-.5 1.3.5-8.5 1.9-.4.1-1.8.4 6.8-4.3z"/><path fill="none" stroke="#4e5016" stroke-linecap="round" stroke-linejoin="round" stroke-width="__RESOLUTION__" d="m55.7 30.5-2.6 1.7m5.6 2.6-3.5 1.5m2.9 2.9-3.2-1.5m0 0-8.5 1.9m-.4.1-1.8.4 6.8-4.3.2.1" vector-effect="non-scaling-stroke"/><path fill="#473218" d="M11.4 26.8 10.2 24l-.7-2.4-.4-1.9-.4-2.6q.6 5 8.7 4.7h.1l1.2 3.3.2.2.1.2-1 .6q-2 1.7-2.8 3.1l-.3.6-.1.3zm3.4 3.4v-.3l.4-.6q.9-1.4 2.9-3.1l.9-.6 1 1.7q1.3 1.7 2.9 2.6l.7.4h2.3q.5-.2.9-.6h.2l.6 1.6v1.2l-.6 2.4v.1l-.2.3-4.4-1.1-.1-.4q-.1-.9.2-1.8l1-1.7-1 1.7q-.3.9-.2 1.8v.4q-1.4 1.4-4.8-1.3z"/><path fill="#895e32" d="m11.4 26.8 3.4 3.3 2.7 2.7q3.4 2.7 4.9 1.3l4.4 1-.5.6-1.4 1q-2.4 1.2-5.7-.6-2.1-1.2-3.8-3.3h-.1q-1.6-1.7-3-4.2l-.6-1.1zm13.5 9.9q-2.1-1.1-2.5-2.6.4 1.5 2.5 2.6m-9.6-3.9q-1-1.2-.5-2.7-.5 1.5.5 2.7"/><path fill="#614223" d="M17.4 21.8q-8.1.3-8.7-4.7z"/><path fill="none" stroke="#22170d" stroke-linecap="round" stroke-linejoin="round" stroke-width="__RESOLUTION__" d="m8.7 17 .4 2.7.4 1.9.8 2.4 1.1 2.8m3.4 3.3v-.3l.4-.6q.9-1.4 2.9-3.1l.9-.6-.1-.2-.2-.2-1.2-3.3h-.1q-8.1.3-8.7-4.7M19 25.5l1 1.7q1.3 1.7 2.9 2.6l.7.4h2.3q.5-.2.9-.6h.2l.6 1.6v1.2l-.6 2.4v.1l-.2.3m-3.2-5-1.1 1.7q-.3.9-.2 1.8v.4" vector-effect="non-scaling-stroke"/><path fill="none" stroke="#654525" stroke-linecap="round" stroke-linejoin="round" stroke-width="__RESOLUTION__" d="m8.7 17 8.7 4.8m9.4 13.4-.5.5-1.4 1q-2.4 1.2-5.7-.6-2.1-1.2-3.8-3.3h-.1q-1.6-1.7-3-4.2l-.6-1.1-.3-.7m11 7.3q.4 1.5 2.5 2.6m-10.1-6.6q-.5 1.5.5 2.7" vector-effect="non-scaling-stroke"/><path fill="#c8dd2d" d="m29.5.5 1 .5.4.2 1.4.7.6.4-.7 1.9 3-.6.1 3.7h7L45 8.8l1.5.9-3.4 2.5 4.8-.1 2.5 1-1.9 1.2h8.4l-2.8 3 2.9 3.3h-8l-.6.5 3.9 3.4h-7.6l-3.5 1.1 2.2 2.6-5.5-1.4h-.1v1.5h-4.6l-1.7.5-.6 1-2 3.4L27 30h-5.8l.1-4-.6-.4-2.1-1.2-9.4-.5 3.2-3-2.3-1.2-2-1.2v-1.6H1.3l3-3h-3l1.9-.5 2.9-.7L9 12 5.2 9.8l7.4-.2 1.7-1 1.9-1.2 1.4-.9-.4-1.8 4.2 1.7 1.2-3h3.2L26.9 1l1.7-.7.3-.2zm15.1 13.8-.6 1.5zm-2.9.6.5.9zm-4-.2 1.9 1.2zm-13-10.2-.3 1.7zm2.8.9-1 .8zm3.4 1.2-1.2.6z"/><path fill="none" stroke="#809915" stroke-linecap="round" stroke-linejoin="round" stroke-width="__RESOLUTION__" d="m32.3 2 .6.3-.7 1.9m3-.6.1 3.7m7 0L45 8.8m1.5.9-3.4 2.5m4.8-.1 2.5 1m6.6 7.5h-3.3m-2.5 0H49l-.6.5m3.9 3.4h-7.6l-3.5 1.1m-3.4 2.7h-4.6m-2.3 1.5-2 3.4L27 30h-1m-13.6-9-2.3-1.3m-5.7-5.9h-3m11.2-4.2 1.7-1m1.9-1.2 1.4-.9m11-6.1.3-.2.6.4" vector-effect="non-scaling-stroke"/><path fill="none" stroke="#98a918" stroke-linecap="round" stroke-linejoin="round" stroke-width="__RESOLUTION__" d="M48.5 14.3h8.4l-2.8 3m-10.7 11-5.5-1.6h-.1m-19.2-2.4-9.4-.5M8 18.4v-1.6H1.3M9 11.9 5.2 9.7m17.4-6.4h3.2L26.9 1m17 14.8.7-1.5m-2.4 1.5-.5-.9m-2.1 1-1.9-1.2M24.4 6.3l.3-1.7m1.9 1.7.9-.8m2.2 1.8 1.2-.6" vector-effect="non-scaling-stroke"/><path fill="none" stroke="#a7ba1b" stroke-linecap="round" stroke-linejoin="round" stroke-width="__RESOLUTION__" d="M23.7 29.9h-2.5l.1-4-.6-.4m-3.5-21 4.2 1.8" vector-effect="non-scaling-stroke"/></g></defs><g clip-path="url(#a)"><use xlink:href="#b" width="61.3" height="182" transform="translate(1 1)"/></g></svg>