<svg xmlns="http://www.w3.org/2000/svg" xmlns:xlink="http://www.w3.org/1999/xlink" width="48" height="57" viewBox="0 0 48 57"><defs><clipPath id="a"><path d="M1 1h46v55H1z"/></clipPath><g id="b"><path fill="#ffdc71" d="M24.6 17.6q-1.6-2.5 2.7-3.9l1.5-.4q3.7-.9 7.5 1 .4 2.2-2.8 4.4l-.6.4-1.6.3q-4.4.6-6.8-1.6zm5.5.3q-2-1.4-1.3-4.6-.7 3.2 1.3 4.6"/><path fill="#fcf2ab" d="m28.8 13.3-1.5.4q-4.3 1.4-2.7 3.9h-2.3l-4.7-.2q-4.6-.6-8-2.3-2.4-1.2-3.7-2.6 9.6 1.4 10.1-2.1 6.8 1.5 8.3-.5l.4-.8q13.8-.5 10-6.9l.3.1q4.6 2.3 5.2 5.6v.8q0 2.1-1.7 3.9l-2.2 1.7q-3.7-1.9-7.5-1m.7-2.7q1.3 0 .2-.7-.4 0-.4.4-.2.3.2.3m-10 3.3q1.3-.1.2-.8l-.4.5q-.2.3.2.3"/><path fill="#ecb43e" d="M24.5 17.8q2.4 2.1 6.8 1.6 3 3.6 2 7.2 4.7.4 3 9.1-2.1.3-2 6-3.2.5-1.9 5.6-1.4 1-2.1 2.8l-.2.3-.3.5-7.3.6h-1.7q-1-.5-2-.5 3.1-1.7 2.8-5.2t.1-8.4-4-7.8q1.3-.7 1.6-2.7v-.2q.1-1.4-1-2l1-.9q-.5-2.7-1.7-6.4l4.6.3h.8l1.4-.1zm.6 3.7q-.4 0-.4.5-.1.3.3.3 1.2-.1.1-.8m7.4 12.9q0 .4.3.3 1.3 0 .2-.7-.4 0-.5.4M28.9 43q-.1.3.1.3 1.5 0 .4-.8-.5 0-.6.5m2.7-4.1q-4-.5-4.6 3.5.6-4 4.6-3.5"/><path fill="#cf792d" d="m31.4 19.4 1.5-.3.6-.4q3.2-2.2 2.8-4.4l2.3-1.7q-.8 7.2.9 10l.2.4q-1 5.8 1.1 7-1.4 6.8 1.7 8.4l1.8 4.5-1.8 2.4q-3.2.2-5 1.2-3.2-.4-5.1.9-1.4-5.2 1.9-5.7-.1-5.7 2-6 1.7-8.7-3-9.1 1-3.7-2-7.2m4.4 2.6q1.3-.1.2-.8-.4 0-.4.4-.2.4.2.3m3.6 16q1.3 0 .2-.7-.4 0-.5.4t.3.3"/><path fill="#fcf4bc" d="M34.8 2.2q3.8 6.4-10.1 6.9l-.4.8q-1.6 2-8.3.5-.5 3.5-10.1 2.1-1.6-1.6-1.7-3.6l.1-1.1q.5-2.5 3.4-4.4 5.6-.5 8.5-2.8l3.1-.2h.5l8.5-.2q3.5.6 6.5 2M10.1 9.4q-.2.3.2.3 1.2 0 .2-.7zm4.2-4.6-.4.5q-.1.3.2.2 1.3 0 .2-.7M21 9.1l-.5.4q0 .4.3.3 1.2 0 .2-.7m-5-.3q2.1-3.2 5.4-3-3.2-.2-5.4 3"/><path fill="#fbef9f" d="M4.3 8.9q0 2 1.6 3.6 1.3 1.4 3.6 2.6 3.5 1.7 8.1 2.3 1.2 3.8 1.6 6.4l-.9.8q1.1.7 1 2.1v.2q-.3 2-1.6 2.7 4.4 2.9 4 7.8t-.1 8.4-2.8 5.2l-1.6.2h-.5q-4.1-3.2-4.6-9.9-1.8 5.9-5 7l-.3-.1q-3.5-1.7-5-3.8l-.9-1.2v-.4H.8L.5 42l-.2-1.6v-.7l.2-.9v-.1l.4-2.6Q3.2 23 4.4 9m25.2 1.7q-.4 0-.2-.3 0-.4.4-.4 1 .7-.2.7M10.2 9.4l.4-.5q1 .7-.2.8-.4 0-.3-.3m4.2-4.6q1.1.7-.2.7-.3.1-.2-.2zM21 9.1q1 .7-.2.7-.4 0-.3-.3zm-1.5 4.8q-.4 0-.2-.3l.4-.5q1 .7-.2.8M13.7 21q1.3 0 .2-.7l-.5.4q0 .4.3.3M5.3 36.5q0 .3.3.3 1.2-.1.2-.8zm10.3-8q1.4 0 .3-.9-.5 0-.5.5 0 .3.2.3M6.6 42q-.1.3.2.3 1.3-.1.2-.8-.4 0-.4.5"/><path fill="#db9b15" d="M38.6 12.6q1.6-1.8 1.6-3.9l4.3 29.9.3 1.2v.6l-.5 2.5-1.8-4.5q-3.1-1.6-1.7-8.3-2.1-1.3-1.1-7l-.2-.5q-1.7-2.9-1-10"/><path fill="#744418" d="M35.7 22q-.4 0-.2-.4 0-.4.4-.4 1 .7-.2.8m3.6 15.9q-.3 0-.2-.3 0-.4.4-.5 1 .8-.2.8"/><path fill="#eec062" d="M25.2 21.4q1 .7-.2.8-.4 0-.3-.3 0-.4.4-.5m7.4 12.9q.1-.4.5-.4 1 .6-.2.7-.3 0-.2-.3M28.7 43q.1-.5.6-.5 1.1.9-.4.8-.2 0-.1-.3"/><path fill="#ffe18b" d="m30.1 50.4-.2.5zm-13.4.8-2.6-.5q-3.8-.8-7-2.4 3.2-1.1 5-7 .5 6.7 4.6 9.9m-3-30.2q-.4 0-.2-.3l.4-.4q1 .6-.2.7M5.3 36.5l.5-.5q1 .7-.2.8-.3 0-.3-.3m10.3-8q-.2 0-.2-.4t.5-.5q1.1.8-.3.8M6.6 42q0-.5.4-.5 1.1.7-.2.8-.3 0-.2-.3"/><path fill="none" stroke="#eec062" stroke-linecap="round" stroke-linejoin="round" stroke-opacity=".3" stroke-width="1" d="M28.8 13.3q-.7 3.2 1.3 4.6m-.3 33q-1.5 1.3-1.5 3m-1.5-11.5q.6-4 4.6-3.5m-10-33.1q-3.2-.2-5.4 3"/><path fill="none" stroke="#6f0" stroke-linecap="round" stroke-linejoin="round" stroke-width="__RESOLUTION__" d="M24.4 17.6h.2m15.6-9.5v-.2" vector-effect="non-scaling-stroke"/><path fill="#000" fill-opacity=".3" d="m14.9 1.3.1.3-.1.4-.4.1-.3-.1-.2-.4.2-.4.3-.1zm3-1 .4-.2.3.1.1.4-.1.4-.4.1-.3-.1-.1-.4zm-7.3 2.4.3-.1.3.1.2.4-.2.4-.3.1-.4-.1-.1-.4zm-2.9.8.1.3-.1.4-.4.1L7 4l-.2-.4.2-.3.3-.2zm-3.3 3 .4-.2.3.2.2.3L5 7l-.3.1-.4-.1-.1-.4zm-.6 4 .3-.2.4.2.1.3-.1.4-.4.1-.3-.1-.2-.4zm-2.3 20 .4-.2.3.2.2.3q0 .3-.2.4l-.3.1-.4-.1-.1-.4zm-.6 4 .3-.1.4.1.1.4-.1.3-.4.1-.3-.1-.2-.4zm-.7 4.1.4-.1.3.1.2.4-.2.3-.3.1-.4-.1-.1-.4zm3.3-24.1.4-.2.3.2.2.3-.2.4-.3.1-.4-.1-.1-.4zm.2 4 .2.3q0 .3-.2.4l-.3.1-.4-.1-.1-.4.1-.3.4-.2zm-1.1 4 .3-.2.4.2.1.3-.1.4-.4.1-.3-.1-.2-.4zm.2 4 .1.3-.1.4-.4.1L2 27l-.2-.4.2-.3.3-.2zm31.7-25 .3.1.2.4-.2.4-.3.1-.4-.1L34 2l.1-.4zm-11.7-.4-.2.4-.4.1-.3-.1-.1-.4.1-.3.4-.2.3.2zM26 .4l.4-.2.3.2.1.4-.1.3-.4.1-.3-.1-.1-.4zm4-.1.3-.2.4.2.1.3-.1.4-.4.1L30 1l-.2-.4zm7.3 3.8.1-.3.4-.2.3.1.1.4-.1.4-.4.1-.3-.1zm3.3 3.3-.2.3-.4.2q-.2 0-.3-.2l-.2-.3.2-.4.3-.1.4.1zm-.3 3.2.3-.1.4.1.1.4-.1.4-.4.1-.3-.1-.2-.4zm.5 4 .3-.1.4.1.1.4-.1.4-.4.1-.3-.1-.2-.4zm1.3 4 .1.3-.1.4-.4.1-.4-.1-.1-.4.1-.3.4-.2zm-.2 4 .4-.2.3.2.1.3-.1.4-.4.1-.3-.1-.1-.4zm.9 3.8.3.2.2.3-.2.4-.3.1-.4-.1-.1-.4.1-.3zm1 4.2.1.3-.1.4-.4.1-.3-.1-.2-.4.2-.3.3-.2zm-.2 4 .4-.2.4.1.1.4-.1.4-.4.1-.4-.1-.1-.4zm1.1 3.9.4.1.1.4-.1.3-.4.1-.4-.1-.1-.4.1-.3zm-.7 4.1.4-.1.3.1.1.4-.1.3-.4.1-.3-.1-.1-.4zm-43.4 0 .3-.1.3.1.2.4-.2.3-.3.1-.4-.1-.1-.4z"/><path fill="#eec062" fill-opacity=".3" d="M29.9 49.8q.1-.2.4-.2l.3.1.1.4-.1.4-.4.1-.3-.1-.1-.4z"/></g></defs><g clip-path="url(#a)"><use xlink:href="#b" width="45.1" height="54.4" transform="translate(1 1)"/></g></svg>