<svg xmlns="http://www.w3.org/2000/svg" xmlns:xlink="http://www.w3.org/1999/xlink" width="76" height="79" viewBox="0 0 76 79"><defs><clipPath id="a"><path d="M1 1h74v77H1z"/></clipPath><g id="b"><path fill="#8d5f12" d="m37.2 28.4 2-3.3 1.2.5.1-2 3.1-.2.9 1 3.6-3.3 1.1.3.8 2.1 1.7.7q-.2.4-.2.9t.3 1l.6.9v27.6l-.4-.4-2.2 1.4-.5 1.5 3.1 2.1v4.6l-8.1-2.4-3.4-1.8-3.7-.2v-.9l7.6-1.1 1.3-1.5-.7-2.1-.7-.2-2-2.1-1.3-3.1-1.1-.2-2 .5.4-1.7-1.6-.5z"/><path fill="#f1bc67" d="m52.4 27-.6-.9q-.3-.5-.3-1t.2-.9l-1.7-.7-.8-2.1-1.1-.3-3.6 3.3-.9-1-3.1.3v1.9l-1.3-.5-2 3.3v-24l15.2 3.9zM37.2 46.5l1.5.5-1.6 1.9zm7.2 14.9 8.1 2.4v9.8l-14.7-3.7zm8.1-2-3-2.1.4-1.6 2.2-1.4.4.4z"/><path fill="#c6851a" d="m38.7 47-.4 1.7 2-.5 1.1.1 1.3 3.2 2 2 .6.3.8 2.1-1.3 1.5-7.6 1.1v-9.6zm-1.6 12.4 3.8.2 3.4 1.8-6.6 8.4-.6-.1z"/><path fill="none" stroke="#000" stroke-linecap="round" stroke-linejoin="round" stroke-width="__RESOLUTION__" d="M37.2 28.4v41.3l.5.1 14.7 3.8V8.3L37.2 4.4z" vector-effect="non-scaling-stroke"/><path fill="#8e8ba3" d="m3 62.9-.1-1q0-2.4 3.4-4.1t8.2-1.7 8.3 1.6q3.3 1.8 3.4 4.3l-.1.9-1.3-.7q-4.2-2.1-10.3-2.1-6 0-10.3 2.1z"/><path fill="#d3d2db" d="m26.1 62.9.1-1q0-2.4-3.4-4.1-3.5-1.7-8.3-1.7t-8.2 1.6Q2.9 59.6 2.9 62l.1.9q-1.4-.8-2.1-1.8l-.5-.9-.2-.2-.2-1.5q0-3.1 4.2-5.3T14.5 51t10.3 2.2q4.3 2.1 4.3 5.3l-.2 1.2q-.2.9-.9 1.6-.7.9-1.9 1.7z"/><path fill="#cfcee6" d="m3 62.9 1.2-.7q4.2-2.1 10.3-2.1t10.3 2.1l1.2.7v.2l-1.2.6q-4.2 2.1-10.3 2.1-6 0-10.3-2.1L3 63.1z"/><path fill="#fff" fill-opacity=".5" d="M26 62.9v.1zm-23 .2v-.2z"/><path fill="#b0aebf" d="M26.2 63q1.1-.8 1.8-1.7l-2.2 4q-.8 1.5-3 2.6-3.5 1.8-8.3 1.8t-8.2-1.8q-2.4-1.2-3.1-2.7V65L.8 61q.7 1 2 2H3l1.2.7q4.3 2.1 10.3 2.1t10.3-2.1l1.2-.6z"/><path fill="none" stroke="#000" stroke-linecap="round" stroke-linejoin="round" stroke-width="__RESOLUTION__" d="m26.1 62.9.1-1q0-2.4-3.4-4.1-3.5-1.7-8.3-1.7t-8.2 1.6Q2.9 59.6 2.9 62l.1.9h0m23 0v.1h0q1.2-.8 1.9-1.7.6-.7 1-1.6l.1-1.2q0-3.1-4.3-5.3T14.5 51 4.2 53.3Q0 55.3 0 58.5L.3 60v.2l.6.9q.7 1 2 1.9H3l1.2.7q4.3 2.1 10.3 2.1t10.3-2.1l1.2-.6zm-23 0v.2m23 0 .1-.1m1.9-1.7-2.2 4q-.8 1.5-3 2.6-3.5 1.8-8.3 1.8t-8.2-1.8q-2.4-1.2-3.1-2.7V65L.8 61M3 63v.1" vector-effect="non-scaling-stroke"/><path fill="#f3c57a" d="m23.1 76-1.2.7V11.3l15.4-6.9v24L35.6 32l-1.7 1-.1 1.7-2.5 1.6-.8 2.3-3.2 4.6q-.6-.2-1 .4-.4 0-.5.9l.3 1.1-2.4 1.9 2 .9 3.9-2.5.8-1.5.4 1.1-1 2.1.8.8.4-1.4 2 .7 4.3-1.2v2.4z"/><path fill="#ad7416" d="M37.3 28.4v18L33 47.8l-2-.7-.5 1.4-.8-.8 1-2-.4-1.2-.8 1.5-3.9 2.5-2-1 2.4-1.8-.3-1.1q.1-.8.5-.9.4-.6 1-.4l3.2-4.7.8-2.2 2.4-1.6.2-1.7 1.6-1zm0 30.1v.9l-4.5 2.8z"/><path fill="#e4a234" d="M37.3 48.9v9.6l-4.5 3.7 4.5-2.9v10.4L23 76z"/><path fill="none" stroke="#000" stroke-linecap="round" stroke-linejoin="round" stroke-width="__RESOLUTION__" d="m23.1 76-1.2.7V11.3l15.4-6.9v65.3z" vector-effect="non-scaling-stroke"/><path fill="#c6851a" d="M58.7 18.8V0l11.5 6z"/><path fill="#f1bc67" d="m70.2 6 3.1 1.6v65.3l-14.6-7.6V42.4l.8.7.4-1.2 2.4 2.8 2.3.8.4-2.8-1.3-2-3.3-8.4v.8l-.4-.6v-2l-1.4.6V18.7z"/><path fill="#8d5f12" d="M58.7 42.4V31.1l1.3-.6v2l.4.6v-.8l3.3 8.4 1.3 2-.4 2.8-2.2-.8-2.5-2.8-.4 1.2z"/><path fill="none" stroke="#000" stroke-linecap="round" stroke-linejoin="round" stroke-width="__RESOLUTION__" d="M58.7 18.8V0l11.5 6 3.1 1.6v65.3l-14.6-7.6z" vector-effect="non-scaling-stroke"/><path fill="#e39d2b" d="m57.9 1 .8-1v18.8l-1.9 9.6-1.6-.1-.4-.8-.5.7-1.5-.8z"/><path fill="#f4cd8e" d="M58.7 18.8V31l-.2.6-1-.5-.7-2.8zm0 23.6v22.9l-6.3 8.4v-9.8l5-6.2-.6-1.5q-1 1.5-2 2.3l-.2.4-2.1.4h-.1v-4.6h.8l-.2-1.5 1.4-.6.4-2.4.9-2.4.8-.1-.5-.8.5.1.2-.6-.2-1.1 1-1L58 42l.4.5zM52.4 27V8.4l5.5-7.3-5.1 26.3z"/><path fill="#8d5f12" d="M58.7 31v.8h-.2z"/><path fill="#b77a17" d="M58.7 31.8v10.6h-.5L58 42l-.4 2.3-1 1 .2 1.1-.2.6-.5-.1.5.8-.8.1-.9 2.5-.4 2.3-1.4.6.2 1.4h-.8V27l.4.4 1.5.8.5-.7.4.8h1.6l.7 2.9zm-6.2 32.1v-4.6h.1l2.1-.4.2-.4q1-.7 2-2.2l.6 1.4z"/><path fill="none" stroke="#000" stroke-linecap="round" stroke-linejoin="round" stroke-width="__RESOLUTION__" d="m57.9 1 .8-1v65.3l-6.3 8.4V8.4z" vector-effect="non-scaling-stroke"/><path fill="#fff" d="M39.4 5.6q1.8 7-1.7 13l-.2.4q-2.1 3.6-2.6 6.9-.2 1.8-1.1 2.9-.9 1.2-1.9 1.3h-.2q-.2-1-1-3-1-1.1-1.3-1.9.1 3.6-.1 7.1 0 2.4-.3 4.9-.2 2.8-2 4.1-.7-4.3-.4-8.5l.3-9v-4.2l-.3-8.4-.1-2V7.8l8.4-3.4q3.8-1.6 4.5 1.2"/><path fill="none" stroke="#000" stroke-linecap="round" stroke-linejoin="round" stroke-width="__RESOLUTION__" d="M39.4 5.6q-.7-2.8-4.5-1.2l-8.4 3.4v1.4l.1 2 .2 8.4.1 1.3v3l-.3 8.9q-.3 4.2.3 8.5 2-1.3 2.1-4.1.3-2.5.3-4.9.2-3.5.1-7.1.4.8 1.3 1.9.8 2 1 3h.2q1-.1 1.9-1.3t1.1-2.9q.5-3.2 2.6-7l.2-.3q3.5-6 1.7-13" vector-effect="non-scaling-stroke"/></g></defs><g clip-path="url(#a)"><use xlink:href="#b" width="73.3" height="76.7" transform="translate(1 1)"/></g></svg>