<svg xmlns="http://www.w3.org/2000/svg" xmlns:xlink="http://www.w3.org/1999/xlink" width="24" height="77" viewBox="0 0 24 77"><defs><clipPath id="a"><path d="M1 1h22v75H1z"/></clipPath><g id="b"><path fill="#9d8026" d="m18.5 10.6-.5 3-1.2-.2v-1 1l1.2.2zm-.4 3-1.2 7.6zm-1.7 3.5.4-3.7zm2.2-10.3.6-.6zm.6-4.6q.6-.1.7.8.1 1.6-.5 2.7l-.2.5.2 4.7-6.2 33.7-3.3 12.3-.7-.2q3.2-9.5 5-25.7L17 3.5q.3-2.5 2.3-3zl-.7.3z"/><path fill="#836a20" d="M19.3 5.7q.6-1.1.5-2.7-.1-.9-.7-.8V.5l.5-.1q2.3-.5 1.9 2.6-4.7 30.7-10.8 54.2l-.5-.1-.4-.2L13 44.6l6.2-33.7-.2-4.7z"/><path fill="#b0ab84" d="m9.8 56.9.3.2h.1l-1.1 4.6q-.8.3-1.6 1 .1-2-1-2.5L8 56.4l1.1.4zm-3.2 3.4q1 .4.9 2.5.8-.8 1.6-1.1l1.7-.4 3 .5q1.7 1.1 1.7 2.3-.1 4.2-5.5 10l-.7-.3q4.9-6.3 4.4-8.6-.2-2.4-2.2-2.5-2.3-.5-3.8 1l-2.5 8-.5-.2q1.7-6.6 1.5-8v-.3L6 63l-.4-1.4q-2.3-1.1-3.2.3-1.6 3-1.5 7.6l-.6-.3q-.3-3.3.5-6.3 1.5-4 5.6-2.7z"/><path fill="#7d7851" d="m10.2 57 .5.2 1 .4-.9 3.8-1.7.3zm3.6 4.6q2.7.8 2.6 3-.2 3.8-5.9 9.7l-.5-.2q5.4-5.9 5.5-10.2 0-1.1-1.7-2.2m-.1 3.4q-.4-2-4.4-1.2-1.6-.2-3.4 8l-.7-.2 2.5-8q1.5-1.6 3.8-1.1 2 .1 2.2 2.5M6.1 63q-3.8-3.9-4.6 6.8l-.6-.4Q.7 65 2.5 62q.9-1.4 3.2-.2z"/><path fill="none" stroke="#836a20" stroke-linecap="round" stroke-linejoin="round" stroke-width="__RESOLUTION__" d="M16.8 12.5v.9l1.2.2.4-3m-1.6 10.6 1.2-7.6m-1.2-.2-.5 3.7" vector-effect="non-scaling-stroke"/><path fill="none" stroke="#000" stroke-linecap="round" stroke-linejoin="round" stroke-opacity=".3" stroke-width="__RESOLUTION__" d="m19.1 6.2-.6.6m.6-4.6q.6-.1.7.8.1 1.6-.5 2.7M9.8 56.9l.3.2m.1 0 .5.1 1 .4-.9 3.8 3 .4q2.7.7 2.6 3-.2 3.8-5.9 9.6l-.5-.2-.7-.4q4.9-6.3 4.4-8.6-.4-2-4.4-1.2-1.6-.2-3.4 8l-.7-.2-.5-.3q1.7-6.6 1.5-8v-.3L6 63q-3.8-3.9-4.6 6.8l-.6-.4-.6-.3q-.3-3.3.5-6.3 1.5-4 5.6-2.7h.2L8 56.4l1.1.4.7.2M19 2.2l-.6.3" vector-effect="non-scaling-stroke"/><path fill="none" stroke="#000" stroke-linecap="round" stroke-linejoin="round" stroke-opacity=".3" stroke-width="__RESOLUTION__" d="M10.7 57.2Q16.8 33.7 21.5 3q.4-3.1-1.9-2.6h-.5q-2 .6-2.2 3.1L14.2 31q-2 16.2-5.1 25.7" vector-effect="non-scaling-stroke"/><path fill="none" stroke="#c7c2a7" stroke-linecap="round" stroke-linejoin="round" stroke-width="__RESOLUTION__" d="M6.6 60.3q1 .4.9 2.5.8-.8 1.6-1.1l1.7-.4" vector-effect="non-scaling-stroke"/></g></defs><g clip-path="url(#a)"><use xlink:href="#b" width="21.9" height="74.6" transform="translate(1 1)"/></g></svg>