<svg xmlns="http://www.w3.org/2000/svg" xmlns:xlink="http://www.w3.org/1999/xlink" width="46" height="33" viewBox="0 0 46 33"><defs><radialGradient id="b" cx="0" cy="0" r="819.2" gradientTransform="matrix(.03 0 0 .03 -13.05 -8.55)" gradientUnits="userSpaceOnUse" spreadMethod="pad"><stop offset="0" stop-color="#cc9d75"/><stop offset=".5" stop-color="#b26d49"/><stop offset="1" stop-color="#5c2318"/></radialGradient><radialGradient id="a" cx="0" cy="0" r="819.2" gradientTransform="matrix(.09 0 0 .09 -34.8 -15.3)" gradientUnits="userSpaceOnUse" spreadMethod="pad"><stop offset="0" stop-color="#cc9d75"/><stop offset=".5" stop-color="#b26d49"/><stop offset="1" stop-color="#5c2318"/></radialGradient><clipPath id="c"><path d="M1 1h44v31H1z"/></clipPath><g id="d"><path fill="#572216" d="m7.5 13.9 3-2.3Q22 3 39.7.7t31 3.1q7.8 3.2 11.5 7.9 2.6 3.3 3.2 7.4v.5L87 31.7v.2q1 8.4-7.4 15.9l-3 2.4-4.3 2.9-1.5-12.6 4.3-2.9 4.5-3.8q3.2-3.2 4.7-6.6L76 25.6l-5.5-.9-5.7-.8 1.2-1.7q1.4-2.8 1-5.7-.3-2.5-1.8-4.5L63 10l-2.4-1.6-2.5-1.2Q55 6 51.3 5.5q-4.7-.7-10.1-.2l-1.7.2q-5.4.7-9.8 2.3l-4.1 1.9-3.7 2.3q-2.5 1.8-4 3.8 1.5-2 4-3.8l3.7-2.3q2-1 4.1-1.8l8.7 6.8-6 1.2 1.1.9-1.4.8-.7.5-1.1 1-3.4-1.1-1.8-.6-1.8-2.1 3-4.1-3 4.1 1.8 2.1 1.8.6q-2.7 1.3-5 3l-1.4 1.2H28l.3.7.9 1.2q1.3 1.3 3.6 2.2 4.7 1.9 10.9 1.1 6.1-.8 10.2-3.8l2.2-2 .8-1.1.4-.9-.3 1.3-.3 1.3.7.6L57 24l-.5.8-1.8-.8-1.7 1.2-1.8 1.2 2.3 1.1q-2.5 1.7-5.8 2.7L46.4 28l-2.2.4-2.3.4.6 2.2-7.4-.6 1.6-1.6-1.9-.7-1.9-.6-1.7 1.4 1.7-1.4 2 .6 1.8.7-1.6 1.7-3 3.2-.6.4h-.1l-2.6-.4q-.7-.4-1.9-.5l-.4-.1-.3-.2v-.1l5-3.9q-2-1.1-2.8-2.5l-.4-1.1-6.8 1.2-3.6-1.5-.7 1-.1.3q-.9-1.6-1.1-3.3v-.6q-.2-2.7 1.3-5.4l.9-1.4-.6-.1-4.5-.8zm17.8 44.3L22.9 60l.8-2.2.8-3zm-6.4-46.7-6.1 3.3zm53.8-.5q5.8 8.5 3.3 14.6 2.5-6.1-3.3-14.6m-14-2.2v2.7l-2 4.2-.9 1.7-.5-.5q-.9-.7-2.1-1.3zM42.2 5.2l1.5 2.2.3 6.6-1.1.1zm2 23.3 2.2-.4 1.3 2 1.8 2.9.1.1h-.1l-1.5.2-2 .3zm9.4-1-2.3-1.1 1.8-1.2 8.1 2.4-1.5 1-.4.1H59l-.4.4-.1.1-1.3.2zm4-4.7-.7-.7.3-1.3 8.3-.6.8.7-.5.9-.7 1zM26.3 11v4.4l4.9 1.6.9.4-.9-.4-4.9-1.7zl6.2 4.7zM16.2 24.5l2.7-2.4h1.6-1.6zl11.9-.4zl1.4.6zm11.9-2.4v2zm0 2 .5.6-.7.7.8-.7zm6.8 4.1-5.3 5h-2.7 2.7zm49.3-1q.9-2 1.2-4.1v-3.6 3.6q-.3 2-1.2 4.1"/><path fill="#672d1f" d="M72.2 53.1q-7.2 4.2-16.3 6.4l-5 1h-.1l-1-12.6 6.1-1.4q3.7-1 7.1-2.3l-3-1.7q2.6-.1 5.2.7v.1l5.5-2.8z"/><path fill="#8c4d33" d="m50.8 60.6-3.5.4-8.4.7-1.4-11.6 2.4-.6q1.7-.3 3.4 0 3.9.6 6.5-1.5v-.1z"/><path fill="#ba7d57" d="m38.9 61.7-13-1-.1-.3-.6-2.2-.7-3.4-.9 3L23 60l-5.5-1.7v-12q8.7 2.9 19.1 2.9l3.5-.6q2.4-.4 4.9-.1h1l3.9-.5q-2.6 2.1-6.5 1.5-1.7-.3-3.4 0l-2.4.6zm-2.4-12.5.9-.1 8-.6-8 .6z"/><path fill="#cb9a72" d="m17.4 58.4-1.1-.4Q4 53 1.9 44.2L.3 31q.3 2 1.3 4Q5 41.4 14.8 45.4l2.6.9z"/><path fill="url(#a)" d="M-43.4-1.1v-.5Q-44.2-9.7-36-17l5.3.8 4.5.9h.6l-1 1.4Q-28-11-27.7-8.2v.5q.2 1.8 1.1 3.4 2.1 3.6 7.8 5.8l1.6.6v.1l.3.3h.4q1.2.1 1.9.6l2.6.4.2-.1q5.4.8 11.6 0h.1l4.7-.8L6 2.3V2q5-1.3 9-3.7l.2-.1.5-.4.4-.1 1.5-1 .4-.3v-.2q2-1.6 3.3-3.3l5.6.9 5.6.8 8.2 1.7Q39.1-.4 36 3l-4.4 3.8L27 9.7l-5.4 2.8v-.2q-2.6-.7-5.1-.7l2.9 1.8q-3.4 1.3-7.1 2.3l-6 1.3-4 .6h-.9q-2.5-.2-5 .1l-3.4.6q-10.4 0-19-2.9l-2.7-.9q-9.9-4-13.2-10.4-1-1.9-1.4-4zm8.6-5.6-.4 2v.4Q-30.4.8-24 3.6h.1q-4.5-3.4-8.6-7.2-.8-.7-1-1.5l-.9-1.4q-.1-.2-.4-.2v-.6l-.2.5zm49.3 16Q-5.7 20.7-34.9 4.7q-2.8-1.7-4.2-9.9 1.4 8.3 4.2 9.9 29.2 16 49.4 4.5Q-7 14.1-35.9-.6-7 14.1 14.5 9.2m14.7-6.3 3.3-8.1zm-9.6-6.5L12 .7 3.7 4.1-9 5.2l-10-2-6.1-4.1-4.2-5.4 1.2-6.8 1.9-2.2-1.9 2.2-1.2 6.8 4.2 5.4 6.1 4 10 2.1L3.7 4 12 .8zM4.9 6.5l5.8-2 .7-.1q-3.6-.1-6.4 2zm16.4-5.2L21 .8 19.7.6l-1.2.5q-1.5 2-3.8 2.6L18 3zq4.4-3 5.8-7.4-1.4 4.4-5.7 7.4M9.3 6q5.1-1.2 8.7-3-3.6 1.8-8.8 3m20-8.7q-5.3 9.4-8.8 11t-5.9 1.3q2.3.2 5.9-1.3 3.5-1.6 8.8-11m0-2.5q-5.3 9.4-8.8 11t-5.9 1.4q2.3.1 5.9-1.4 3.5-1.6 8.8-11M-35-7.9q-1.3-4.6 4.1-8.1-5.4 3.4-4.1 8.1" transform="translate(43.5 30.85)"/><path fill="#905035" d="M8.7 24.1h-.2l.2-.6zq.3 0 .4.3l1 1.4q.1.8.9 1.4 4.1 3.9 8.6 7.3h-.2q-6.4-2.8-11-8v-.3zm39.7 13.3.1-.2q2.8-2 6.4-2l-.7.1zM61.6 34l-3.6.5q2.4-.6 3.9-2.6l1.2-.4 1.6.2v.4z"/><path fill="#aa6745" d="M45.5 48.5h.3l4-.6v.1l-4 .5z"/><path fill="#c8956d" d="M60.8 8.4 63 10l2 2q1.6 2 2 4.5.3 2.9-1.1 5.7l-.3-.4.5-.9-.8-.7-.9-.6h-.7L63 19q-1.4-1.1-3.3-2z"/><path fill="#bc815b" d="M51.3 5.4q3.7.5 6.9 1.8l2.5 1.2-.9 8.6-1.6-.7-1.6-.6 2.1-4.2V8.8H54l-2.6 4.8z"/><path fill="#ab6745" d="M51.3 5.4v8.2l-.3.7-7.1-.3-.3-6.6-1.5-2.2-.9.6v-.6q5.3-.5 10.1.2m-8.8 25.7-.6-2.2 2.3-.4 1.8 5.1-2.3.5-.1-.1-.3.1h-.1zM53 25l1.7-1.1 1.8.8 4.8 2 .2.4v.2l-.4.2zm4.1-4.4.3-1.2h7.2l.8.6z"/><path fill="#bb7e58" d="m51.3 13.6 2.6-4.8h4.9l-5.6 6.8-.7-.3-1.8-.6.3-.4zM41.2 5.8l1-.6.5 8.9-1.1.1-1.8.3v-.1l-1.3-6.8z"/><path fill="#84452f" d="M41.2 5.2v.6l-2.7 1.8 1.3 6.8h-.2l-1.2.2-8.7-6.8q4.4-1.7 9.8-2.4z"/><path fill="url(#b)" d="M-.7-16.7.4-17q3.7-.2 6.8.8l1.8.6.7.3q1.2.5 2.1 1.3l.5.4.7.7.8 1.5-.4.8-.7 1.1-2.2 2Q6.4-4.3.3-3.4q-6.2.8-10.9-1.2-2.3-.8-3.6-2.1l-.9-1.3-.3-.7.4-1 1.8-2.1 1.1-1 .7-.4 1.4-.9q2.8-1.5 6.3-2.2l1.8-.2zm6.2 1.6H-5.1l-5.4 2.7-3.6 3.8 3.6-3.8 5.4-2.7zm5.7 2.3v2.7L6.6-6.6l-8 1.7-8.3-1.7 8.3 1.7 8-1.7 4.6-3.6z" transform="translate(43.5 30.85)"/><path fill="none" stroke="#0d0000" stroke-linecap="round" stroke-linejoin="round" stroke-opacity=".3" stroke-width="__RESOLUTION__" d="m7.5 13.9 3-2.3Q22 3 39.7.7t31 3.1q7.8 3.2 11.5 7.9 2.6 3.3 3.2 7.4v.5L87 31.7v.2q1 8.4-7.4 15.9l-3 2.4-4.3 2.9q-7.2 4.2-16.3 6.4l-5 1h-.1l-3.5.5-8.4.7-13-1m-3-.7-5.5-1.6-1.1-.4Q4 53 1.9 44.2L.3 31 0 30v-.8q-.7-8.1 7.4-15.3M.3 31 0 29.8M.3 31q.3 2 1.3 4Q5 41.4 14.8 45.4l2.6.9q8.7 2.9 19.1 2.9l.9-.1 8-.6h.4l4-.6 6.1-1.4q3.7-1 7.1-2.3m2.2-.9 5.5-2.8 4.3-2.9 4.5-3.8q3.2-3.2 4.7-6.6.9-2 1.2-4.1v-3.6m-24.6-11 2.4 1.6 2 2q1.6 2 2 4.5.3 2.9-1.1 5.7L64.9 24q-1.3 1.6-3.3 3.3v.2m-.7-19-2.6-1.2Q55 6 51.3 5.5q-4.7-.7-10.1-.2l-1.7.2q-5.4.7-9.8 2.3l-4.1 1.9-3.7 2.3q-2.5 1.8-4 3.8l-1 1.4q-1.4 2.6-1.2 5.4v.6q.2 1.7 1.1 3.3l.1-.3.7-1 3.6 1.5 6.8-1.2.6-.7-.5-.6v-2h0l.4-1 1.8-2.1 1.1-1 .7-.5 1.4-.8-1-.9 5.9-1.2 1.1-.2h.3l-1.3-6.8 2.7-1.8 1-.6 1.4 2.2.3 6.6 7 .3.4-.7 2.6-4.8h4.9v2.7l-2.1 4.2 1.5.6 1.6.7q1.9.9 3.3 2l.7.6h.8l.8.6.8.7-.5.9.3.4m-15.3-7.5.3-.4m-8.2-.2 1.1-.1q3.7-.2 6.8.7l1.8.6.7.3q1.2.6 2.1 1.3l.6.5.6.7.9 1.4-.4.9-.8 1-2.2 2.1q-4.1 3-10.2 3.8-6.2.8-10.9-1.1-2.3-.9-3.6-2.2l-.9-1.2-.3-.7m5.4-5.3q2.8-1.5 6.3-2.2l1.8-.3 1.1-.1M31.2 29l1.8-1.4 2 .6 1.8.7-1.6 1.7 7.4.4-.6-2.1 2.3-.4 2.2-.4 1.3 2q3.3-.9 5.8-2.6l-2.3-1.1 1.8-1.2 1.7-1.2 1.8.8.5-.8.5-1.2-.7-.7.3-1.3.3-1.2v-.1m-22.2 11L32 33.9l-.6.4q5.5.8 11.7 0l-.7-3.2m5.5 2.3-4.7.9m4.3-4.2 1.8 2.9q5-1.4 9-3.8l-1.3.2-3.7-1.9m-27-16.4-3 4.1 1.8 2.1 1.8.6 3.4 1m-3.4-1q-2.7 1.3-5 3l-1.4 1.2H28m-1.8-11 6.2 4.7m-12 6.3h-1.6l-2.7 2.4 1.4.6m-.8 1.3q2.1 3.6 7.8 5.9l1.6.6 5-3.9q-2-1.1-2.8-2.5l-.4-1.1m-1.7 7.5h-.1m5.4 1.3h-.2m34.3-12.5-.7 1h-7.5m-.9-7-.7 1.7m3.3 11.4-.6.3m-2.1-4.3 4.8 2 .2.4m-4.1-7.6h6.4m1.4 23.7" vector-effect="non-scaling-stroke"/><path fill="none" stroke="#cb9a72" stroke-linecap="round" stroke-linejoin="round" stroke-width="__RESOLUTION__" d="M25.3 58.2 22.9 60m6.5-37.8 3.6-3.8 5.4-2.6H49m-31.7-.2-1.9 2.2-1.3 6.7 4.3 5.4 6.1 4.1 10 2 12.6-1 8.4-3.3 7.5-4.4" vector-effect="non-scaling-stroke"/><path fill="none" stroke="#905035" stroke-linecap="round" stroke-linejoin="round" stroke-width="__RESOLUTION__" d="m12.8 14.8 6.1-3.3m57.2 14.1q2.5-6.1-3.4-14.6m-8 21.1q4.4-3 5.8-7.4m-5.7 7.4L61.6 34q-3.7 1.7-8.9 2.8m-40-22q-5.3 3.5-4 8.2" vector-effect="non-scaling-stroke"/><path fill="none" stroke="#bb7f45" stroke-linecap="round" stroke-linejoin="round" stroke-width="__RESOLUTION__" d="M4.4 25.7q1.4 8.2 4.2 9.8Q37.8 51.5 58 40" vector-effect="non-scaling-stroke"/><path fill="none" stroke="#ba7d57" stroke-linecap="round" stroke-linejoin="round" stroke-width="__RESOLUTION__" d="M58 40q-21.5 5-50.4-9.7M58 38q2.3.1 5.9-1.4 3.5-1.5 8.8-11" vector-effect="non-scaling-stroke"/><path fill="none" stroke="#a86c3d" stroke-linecap="round" stroke-linejoin="round" stroke-width="__RESOLUTION__" d="m76 25.6-3.3 8.1" vector-effect="non-scaling-stroke"/><path fill="none" stroke="#572216" stroke-linecap="round" stroke-linejoin="round" stroke-width="__RESOLUTION__" d="m42.2 5.2.5 8.9h0m10.5 1.5 5.5-6.8M46 33.6l-1.9-5.1m-10.3-4.2 8.3 1.7 8-1.7 4.6-3.6v-2.6m-22.6-.6-.9-.4-4.9-1.7v-4.3M16.2 24.5l11.9-.4m-1.2 9.1h2.7l5.3-5m30.5-8-8.3.6m4 6.8L53 25.2" vector-effect="non-scaling-stroke"/><path fill="none" stroke="#ba7d57" stroke-linecap="round" stroke-linejoin="round" stroke-width="__RESOLUTION__" d="M58 40.5q2.3.2 5.9-1.3 3.5-1.6 8.8-11" vector-effect="non-scaling-stroke"/></g></defs><g clip-path="url(#c)"><use xlink:href="#d" width="87" height="61.7" transform="translate(1 1)scale(.4995)"/></g></svg>