<svg xmlns="http://www.w3.org/2000/svg" xmlns:xlink="http://www.w3.org/1999/xlink" width="100" height="72" viewBox="0 0 100 72"><defs><linearGradient id="f" x1="-819.2" x2="819.2" gradientTransform="matrix(.03 .01 -.02 .02 36.2 56.8)" gradientUnits="userSpaceOnUse" spreadMethod="pad"><stop offset="0" stop-color="#bda620" stop-opacity="1"/><stop offset="1" stop-color="#575725" stop-opacity="1"/></linearGradient><linearGradient id="e" x1="-819.2" x2="819.2" gradientTransform="matrix(.03 .02 -.02 .01 37.5 45.95)" gradientUnits="userSpaceOnUse" spreadMethod="pad"><stop offset="0" stop-color="#bda620" stop-opacity="1"/><stop offset="1" stop-color="#575725" stop-opacity="1"/></linearGradient><linearGradient id="d" x1="-819.2" x2="819.2" gradientTransform="matrix(.02 .03 -.02 0 39.35 40.2)" gradientUnits="userSpaceOnUse" spreadMethod="pad"><stop offset="0" stop-color="#bda620" stop-opacity="1"/><stop offset="1" stop-color="#575725" stop-opacity="1"/></linearGradient><linearGradient id="c" x1="-819.2" x2="819.2" gradientTransform="matrix(0 .03 -.02 -.01 44.8 36.4)" gradientUnits="userSpaceOnUse" spreadMethod="pad"><stop offset="0" stop-color="#bda620" stop-opacity="1"/><stop offset="1" stop-color="#575725" stop-opacity="1"/></linearGradient><linearGradient id="b" x1="-819.2" x2="819.2" gradientTransform="matrix(0 .03 -.02 -.01 52.55 33.2)" gradientUnits="userSpaceOnUse" spreadMethod="pad"><stop offset="0" stop-color="#bda620" stop-opacity="1"/><stop offset="1" stop-color="#575725" stop-opacity="1"/></linearGradient><linearGradient id="a" x1="-819.2" x2="819.2" gradientTransform="matrix(-.02 .03 -.01 -.02 60.9 46.15)" gradientUnits="userSpaceOnUse" spreadMethod="pad"><stop offset="0" stop-color="#bda620" stop-opacity="1"/><stop offset="1" stop-color="#575725" stop-opacity="1"/></linearGradient><linearGradient id="l" x1="-819.2" x2="819.2" gradientTransform="matrix(.03 .01 -.02 .02 36.2 56.8)" gradientUnits="userSpaceOnUse" spreadMethod="pad"><stop offset="0" stop-color="#c3af36" stop-opacity="1"/><stop offset="1" stop-color="#68683b" stop-opacity="1"/></linearGradient><linearGradient id="k" x1="-819.2" x2="819.2" gradientTransform="matrix(.03 .02 -.02 .01 37.5 45.95)" gradientUnits="userSpaceOnUse" spreadMethod="pad"><stop offset="0" stop-color="#c3af36" stop-opacity="1"/><stop offset="1" stop-color="#68683b" stop-opacity="1"/></linearGradient><linearGradient id="j" x1="-819.2" x2="819.2" gradientTransform="matrix(.02 .03 -.02 0 39.35 40.2)" gradientUnits="userSpaceOnUse" spreadMethod="pad"><stop offset="0" stop-color="#c3af36" stop-opacity="1"/><stop offset="1" stop-color="#68683b" stop-opacity="1"/></linearGradient><linearGradient id="i" x1="-819.2" x2="819.2" gradientTransform="matrix(0 .03 -.02 -.01 44.8 36.4)" gradientUnits="userSpaceOnUse" spreadMethod="pad"><stop offset="0" stop-color="#c3af36" stop-opacity="1"/><stop offset="1" stop-color="#68683b" stop-opacity="1"/></linearGradient><linearGradient id="h" x1="-819.2" x2="819.2" gradientTransform="matrix(0 .03 -.02 -.01 52.55 33.2)" gradientUnits="userSpaceOnUse" spreadMethod="pad"><stop offset="0" stop-color="#c3af36" stop-opacity="1"/><stop offset="1" stop-color="#68683b" stop-opacity="1"/></linearGradient><linearGradient id="g" x1="-819.2" x2="819.2" gradientTransform="matrix(-.02 .03 -.01 -.02 60.9 46.15)" gradientUnits="userSpaceOnUse" spreadMethod="pad"><stop offset="0" stop-color="#c3af36" stop-opacity="1"/><stop offset="1" stop-color="#68683b" stop-opacity="1"/></linearGradient><linearGradient id="r" x1="-819.2" x2="819.2" gradientTransform="matrix(.03 .01 -.02 .02 36.2 56.8)" gradientUnits="userSpaceOnUse" spreadMethod="pad"><stop offset="0" stop-color="#5e5310" stop-opacity="1"/><stop offset="1" stop-color="#2b2b12" stop-opacity="1"/></linearGradient><linearGradient id="q" x1="-819.2" x2="819.2" gradientTransform="matrix(.03 .02 -.02 .01 37.5 45.95)" gradientUnits="userSpaceOnUse" spreadMethod="pad"><stop offset="0" stop-color="#5e5310" stop-opacity="1"/><stop offset="1" stop-color="#2b2b12" stop-opacity="1"/></linearGradient><linearGradient id="p" x1="-819.2" x2="819.2" gradientTransform="matrix(.02 .03 -.02 0 39.35 40.2)" gradientUnits="userSpaceOnUse" spreadMethod="pad"><stop offset="0" stop-color="#5e5310" stop-opacity="1"/><stop offset="1" stop-color="#2b2b12" stop-opacity="1"/></linearGradient><linearGradient id="o" x1="-819.2" x2="819.2" gradientTransform="matrix(0 .03 -.02 -.01 44.8 36.4)" gradientUnits="userSpaceOnUse" spreadMethod="pad"><stop offset="0" stop-color="#5e5310" stop-opacity="1"/><stop offset="1" stop-color="#2b2b12" stop-opacity="1"/></linearGradient><linearGradient id="n" x1="-819.2" x2="819.2" gradientTransform="matrix(0 .03 -.02 -.01 52.55 33.2)" gradientUnits="userSpaceOnUse" spreadMethod="pad"><stop offset="0" stop-color="#5e5310" stop-opacity="1"/><stop offset="1" stop-color="#2b2b12" stop-opacity="1"/></linearGradient><linearGradient id="m" x1="-819.2" x2="819.2" gradientTransform="matrix(-.02 .03 -.01 -.02 60.9 46.15)" gradientUnits="userSpaceOnUse" spreadMethod="pad"><stop offset="0" stop-color="#5e5310" stop-opacity="1"/><stop offset="1" stop-color="#2b2b12" stop-opacity="1"/></linearGradient><linearGradient id="x" x1="-819.2" x2="819.2" gradientTransform="matrix(.03 .01 -.02 .02 36.2 56.8)" gradientUnits="userSpaceOnUse" spreadMethod="pad"><stop offset="0" stop-color="#847416" stop-opacity="1"/><stop offset="1" stop-color="#3c3c19" stop-opacity="1"/></linearGradient><linearGradient id="w" x1="-819.2" x2="819.2" gradientTransform="matrix(.03 .02 -.02 .01 37.5 45.95)" gradientUnits="userSpaceOnUse" spreadMethod="pad"><stop offset="0" stop-color="#847416" stop-opacity="1"/><stop offset="1" stop-color="#3c3c19" stop-opacity="1"/></linearGradient><linearGradient id="v" x1="-819.2" x2="819.2" gradientTransform="matrix(.02 .03 -.02 0 39.35 40.2)" gradientUnits="userSpaceOnUse" spreadMethod="pad"><stop offset="0" stop-color="#847416" stop-opacity="1"/><stop offset="1" stop-color="#3c3c19" stop-opacity="1"/></linearGradient><linearGradient id="u" x1="-819.2" x2="819.2" gradientTransform="matrix(0 .03 -.02 -.01 44.8 36.4)" gradientUnits="userSpaceOnUse" spreadMethod="pad"><stop offset="0" stop-color="#847416" stop-opacity="1"/><stop offset="1" stop-color="#3c3c19" stop-opacity="1"/></linearGradient><linearGradient id="t" x1="-819.2" x2="819.2" gradientTransform="matrix(0 .03 -.02 -.01 52.55 33.2)" gradientUnits="userSpaceOnUse" spreadMethod="pad"><stop offset="0" stop-color="#847416" stop-opacity="1"/><stop offset="1" stop-color="#3c3c19" stop-opacity="1"/></linearGradient><linearGradient id="s" x1="-819.2" x2="819.2" gradientTransform="matrix(-.02 .03 -.01 -.02 60.9 46.15)" gradientUnits="userSpaceOnUse" spreadMethod="pad"><stop offset="0" stop-color="#847416" stop-opacity="1"/><stop offset="1" stop-color="#3c3c19" stop-opacity="1"/></linearGradient><linearGradient id="D" x1="-819.2" x2="819.2" gradientTransform="matrix(.03 .01 -.02 .02 36.2 56.8)" gradientUnits="userSpaceOnUse" spreadMethod="pad"><stop offset="0" stop-color="#706313" stop-opacity="1"/><stop offset="1" stop-color="#333316" stop-opacity="1"/></linearGradient><linearGradient id="C" x1="-819.2" x2="819.2" gradientTransform="matrix(.03 .02 -.02 .01 37.5 45.95)" gradientUnits="userSpaceOnUse" spreadMethod="pad"><stop offset="0" stop-color="#706313" stop-opacity="1"/><stop offset="1" stop-color="#333316" stop-opacity="1"/></linearGradient><linearGradient id="B" x1="-819.2" x2="819.2" gradientTransform="matrix(.02 .03 -.02 0 39.35 40.2)" gradientUnits="userSpaceOnUse" spreadMethod="pad"><stop offset="0" stop-color="#706313" stop-opacity="1"/><stop offset="1" stop-color="#333316" stop-opacity="1"/></linearGradient><linearGradient id="A" x1="-819.2" x2="819.2" gradientTransform="matrix(0 .03 -.02 -.01 44.8 36.4)" gradientUnits="userSpaceOnUse" spreadMethod="pad"><stop offset="0" stop-color="#706313" stop-opacity="1"/><stop offset="1" stop-color="#333316" stop-opacity="1"/></linearGradient><linearGradient id="z" x1="-819.2" x2="819.2" gradientTransform="matrix(0 .03 -.02 -.01 52.55 33.2)" gradientUnits="userSpaceOnUse" spreadMethod="pad"><stop offset="0" stop-color="#706313" stop-opacity="1"/><stop offset="1" stop-color="#333316" stop-opacity="1"/></linearGradient><linearGradient id="y" x1="-819.2" x2="819.2" gradientTransform="matrix(-.02 .03 -.01 -.02 60.9 46.15)" gradientUnits="userSpaceOnUse" spreadMethod="pad"><stop offset="0" stop-color="#706313" stop-opacity="1"/><stop offset="1" stop-color="#333316" stop-opacity="1"/></linearGradient><linearGradient id="E" x1="-819.2" x2="819.2" gradientTransform="matrix(0 .02 0 0 -2.55 -23.3)" gradientUnits="userSpaceOnUse" spreadMethod="pad"><stop offset="0" stop-color="#bda620" stop-opacity="1"/><stop offset="1" stop-color="#575725" stop-opacity="1"/></linearGradient><g id="F"><path fill="url(#a)" d="m73 18 2.8 3.8-15.3 27.4 18-8.2 2.6 4.1-23.6 9.8-7.9 14.3 5.5-2.7 8.6.2 1.3 3.6h-8L48 73l-3-4.7-1-25.5 2.5-.1.5 22.5L54.7 51l4.9-38 2.4-.2-3.5 31.4z" transform="translate(.5 .5)"/><path fill="none" stroke="#000" stroke-linecap="round" stroke-linejoin="round" stroke-opacity=".3" stroke-width="1" d="M73.5 18.5 59 44.7l3.5-31.4-2.4.3-5 38-7.7 14-.5-22.4-2.5.1 1.1 25.5 3 4.7 9.1-2.7h7.9l-1.3-3.6-8.6-.2-5.5 2.7L58 55.4l23.6-9.8-2.6-4.1-18 8.1 15.3-27.3z"/><path fill="url(#b)" d="m49.6 31.8 3-29.3 4.1 3-3.3 30.7 13.4-12.4 4 3.3-18 15.5-1.6 16 4-4 8-2 2.6 3.4-7.1 1.9-7.6 4.9-4.5-3.9-11-24.9 2.1-.7 9.4 22 1.7-15.7L38.3.8l2-.8z" transform="translate(.5 .5)"/><path fill="none" stroke="#000" stroke-linecap="round" stroke-linejoin="round" stroke-opacity=".3" stroke-width="1" d="M50 32.3 41 .5l-2.1.8 10.4 38.8-1.7 15.7-9.4-22-2.1.7 11.1 24.9 4.5 3.9 7.5-4.9 7.2-2-2.5-3.2-8.1 1.8-4 4 1.6-15.9 18-15.5-4-3.3L54 36.7 57.2 6l-4.1-3z"/><path fill="url(#c)" d="m56.2 23 4.7 2-13.5 20.4 2.3 15.9 2.9-5 7.3-4.4 3.3 2.4-6.5 4.1-6 7-5.2-2.4-16.8-20.6 1.9-1.4L45 59.4l-2.3-15.7L23.2 9.5 25 8.2 41.6 36 37.4 6.8 42 8.5l4.4 30.6z" transform="translate(.5 .5)"/><path fill="none" stroke="#000" stroke-linecap="round" stroke-linejoin="round" stroke-opacity=".3" stroke-width="1" d="m56.7 23.5-9.8 16L42.5 9 38 7.3l4 29.2L25.5 8.7 23.7 10l19.5 34.1 2.3 15.7-14.4-18.4-2 1.4L46 63.5l5.3 2.3 6-6.9 6.4-4.1-3.4-2.4-7.2 4.4-2.9 5-2.3-15.9 13.5-20.3z"/><path fill="url(#d)" d="m41.9 42.1 2.4-18.2 5.1.2-3.9 23.5 8.9 13.8.5-5.6 4.9-6.5 4 1-4.2 6-2.6 8.5-5.8-.3L27 51.4l1.2-2 21 12-8.7-13.7L8.2 23l1-1.9 27 19.9L20 15.5l5-.1z" transform="translate(.5 .5)"/><path fill="none" stroke="#000" stroke-linecap="round" stroke-linejoin="round" stroke-opacity=".3" stroke-width="1" d="M42.4 42.6 25.6 15.9l-5.1.1 16.3 25.5-27-19.9-1.2 2L41 48.2l8.7 13.7-21-12-1.2 2L51.7 65l5.8.3 2.6-8.4 4.2-6.1-4-1-4.9 6.5-.5 5.6L46 48.1l4-23.5-5.1-.2z"/><path fill="url(#e)" d="m60 49 4.2-.2-2 6.9.3 8.8-5.6 1.3-27.4-5.7.4-2.2 24 5.5-12.8-10.6-39-14.4.4-2.2 32.3 11.4-24-19.7 4.9-1.5 24.9 20.7-3.9-18 5-1.2 4.2 23.4 13 10.7-1.4-5.5z" transform="translate(.5 .5)"/><path fill="none" stroke="#000" stroke-linecap="round" stroke-linejoin="round" stroke-opacity=".3" stroke-width="1" d="M60.5 49.5 58 57l1.4 5.5-13-10.7-4.2-23.4-5 1.2 3.9 18-25-20.7-4.8 1.5 24 19.7L3 36.6 2.6 39l39 14.4L54.5 64l-24-5.5-.5 2.1 27.4 5.8L63 65l-.3-8.9 2-6.9z"/><path fill="url(#f)" d="m27.3 42 3.9-3.1 15 19.4L63 62.7l-3.9-4.5-1.4-7.7 3.8-1.9 1.5 7 4.5 7.7-4.4 3.5-27.4 5.9-.6-2.2 24.2-4.7-16.6-4.3-42 2.7L0 62l34.5-2.7-31-8.1L7.3 48l32.3 8.5z" transform="translate(.5 .5)"/><path fill="none" stroke="#000" stroke-linecap="round" stroke-linejoin="round" stroke-opacity=".3" stroke-width="1" d="M27.8 42.5 40 57 7.7 48.6 4 51.7l31 8.1L.5 62.5l.8 2.2L43.2 62l16.6 4.3L35.7 71l.5 2.2 27.4-5.9 4.4-3.5-4.5-7.7-1.5-7-3.7 1.9 1.4 7.7 3.8 4.4-16.7-4.4-15.1-19.3z"/></g><g id="H"><path fill="url(#g)" d="m73 18 2.8 3.8-15.3 27.4 18-8.2 2.6 4.1-23.6 9.8-7.9 14.3 5.5-2.7 8.6.2 1.3 3.6h-8L48 73l-3-4.7-1-25.5 2.5-.1.5 22.5L54.7 51l4.9-38 2.4-.2-3.5 31.4z" transform="translate(.5 .5)"/><path fill="none" stroke="#1a1a1a" stroke-linecap="round" stroke-linejoin="round" stroke-opacity=".3" stroke-width="1" d="M73.5 18.5 59 44.7l3.5-31.4-2.4.3-5 38-7.7 14-.5-22.4-2.5.1 1.1 25.5 3 4.7 9.1-2.7h7.9l-1.3-3.6-8.6-.2-5.5 2.7L58 55.4l23.6-9.8-2.6-4.1-18 8.1 15.3-27.3z"/><path fill="url(#h)" d="m49.6 31.8 3-29.3 4.1 3-3.3 30.7 13.4-12.4 4 3.3-18 15.5-1.6 16 4-4 8-2 2.6 3.4-7.1 1.9-7.6 4.9-4.5-3.9-11-24.9 2.1-.7 9.4 22 1.7-15.7L38.3.8l2-.8z" transform="translate(.5 .5)"/><path fill="none" stroke="#1a1a1a" stroke-linecap="round" stroke-linejoin="round" stroke-opacity=".3" stroke-width="1" d="M50 32.3 41 .5l-2.1.8 10.4 38.8-1.7 15.7-9.4-22-2.1.7 11.1 24.9 4.5 3.9 7.5-4.9 7.2-2-2.5-3.2-8.1 1.8-4 4 1.6-15.9 18-15.5-4-3.3L54 36.7 57.2 6l-4.1-3z"/><path fill="url(#i)" d="m56.2 23 4.7 2-13.5 20.4 2.3 15.9 2.9-5 7.3-4.4 3.3 2.4-6.5 4.1-6 7-5.2-2.4-16.8-20.6 1.9-1.4L45 59.4l-2.3-15.7L23.2 9.5 25 8.2 41.6 36 37.4 6.8 42 8.5l4.4 30.6z" transform="translate(.5 .5)"/><path fill="none" stroke="#1a1a1a" stroke-linecap="round" stroke-linejoin="round" stroke-opacity=".3" stroke-width="1" d="m56.7 23.5-9.8 16L42.5 9 38 7.3l4 29.2L25.5 8.7 23.7 10l19.5 34.1 2.3 15.7-14.4-18.4-2 1.4L46 63.5l5.3 2.3 6-6.9 6.4-4.1-3.4-2.4-7.2 4.4-2.9 5-2.3-15.9 13.5-20.3z"/><path fill="url(#j)" d="m41.9 42.1 2.4-18.2 5.1.2-3.9 23.5 8.9 13.8.5-5.6 4.9-6.5 4 1-4.2 6-2.6 8.5-5.8-.3L27 51.4l1.2-2 21 12-8.7-13.7L8.2 23l1-1.9 27 19.9L20 15.5l5-.1z" transform="translate(.5 .5)"/><path fill="none" stroke="#1a1a1a" stroke-linecap="round" stroke-linejoin="round" stroke-opacity=".3" stroke-width="1" d="M42.4 42.6 25.6 15.9l-5.1.1 16.3 25.5-27-19.9-1.2 2L41 48.2l8.7 13.7-21-12-1.2 2L51.7 65l5.8.3 2.6-8.4 4.2-6.1-4-1-4.9 6.5-.5 5.6L46 48.1l4-23.5-5.1-.2z"/><path fill="url(#k)" d="m60 49 4.2-.2-2 6.9.3 8.8-5.6 1.3-27.4-5.7.4-2.2 24 5.5-12.8-10.6-39-14.4.4-2.2 32.3 11.4-24-19.7 4.9-1.5 24.9 20.7-3.9-18 5-1.2 4.2 23.4 13 10.7-1.4-5.5z" transform="translate(.5 .5)"/><path fill="none" stroke="#1a1a1a" stroke-linecap="round" stroke-linejoin="round" stroke-opacity=".3" stroke-width="1" d="M60.5 49.5 58 57l1.4 5.5-13-10.7-4.2-23.4-5 1.2 3.9 18-25-20.7-4.8 1.5 24 19.7L3 36.6 2.6 39l39 14.4L54.5 64l-24-5.5-.5 2.1 27.4 5.8L63 65l-.3-8.9 2-6.9z"/><path fill="url(#l)" d="m27.3 42 3.9-3.1 15 19.4L63 62.7l-3.9-4.5-1.4-7.7 3.8-1.9 1.5 7 4.5 7.7-4.4 3.5-27.4 5.9-.6-2.2 24.2-4.7-16.6-4.3-42 2.7L0 62l34.5-2.7-31-8.1L7.3 48l32.3 8.5z" transform="translate(.5 .5)"/><path fill="none" stroke="#1a1a1a" stroke-linecap="round" stroke-linejoin="round" stroke-opacity=".3" stroke-width="1" d="M27.8 42.5 40 57 7.7 48.6 4 51.7l31 8.1L.5 62.5l.8 2.2L43.2 62l16.6 4.3L35.7 71l.5 2.2 27.4-5.9 4.4-3.5-4.5-7.7-1.5-7-3.7 1.9 1.4 7.7 3.8 4.4-16.7-4.4-15.1-19.3z"/></g><g id="I"><path fill="url(#m)" d="m73 18 2.8 3.8-15.3 27.4 18-8.2 2.6 4.1-23.6 9.8-7.9 14.3 5.5-2.7 8.6.2 1.3 3.6h-8L48 73l-3-4.7-1-25.5 2.5-.1.5 22.5L54.7 51l4.9-38 2.4-.2-3.5 31.4z" transform="translate(.5 .5)"/><path fill="none" stroke="#000" stroke-linecap="round" stroke-linejoin="round" stroke-opacity=".3" stroke-width="1" d="M73.5 18.5 59 44.7l3.5-31.4-2.4.3-5 38-7.7 14-.5-22.4-2.5.1 1.1 25.5 3 4.7 9.1-2.7h7.9l-1.3-3.6-8.6-.2-5.5 2.7L58 55.4l23.6-9.8-2.6-4.1-18 8.1 15.3-27.3z"/><path fill="url(#n)" d="m49.6 31.8 3-29.3 4.1 3-3.3 30.7 13.4-12.4 4 3.3-18 15.5-1.6 16 4-4 8-2 2.6 3.4-7.1 1.9-7.6 4.9-4.5-3.9-11-24.9 2.1-.7 9.4 22 1.7-15.7L38.3.8l2-.8z" transform="translate(.5 .5)"/><path fill="none" stroke="#000" stroke-linecap="round" stroke-linejoin="round" stroke-opacity=".3" stroke-width="1" d="M50 32.3 41 .5l-2.1.8 10.4 38.8-1.7 15.7-9.4-22-2.1.7 11.1 24.9 4.5 3.9 7.5-4.9 7.2-2-2.5-3.2-8.1 1.8-4 4 1.6-15.9 18-15.5-4-3.3L54 36.7 57.2 6l-4.1-3z"/><path fill="url(#o)" d="m56.2 23 4.7 2-13.5 20.4 2.3 15.9 2.9-5 7.3-4.4 3.3 2.4-6.5 4.1-6 7-5.2-2.4-16.8-20.6 1.9-1.4L45 59.4l-2.3-15.7L23.2 9.5 25 8.2 41.6 36 37.4 6.8 42 8.5l4.4 30.6z" transform="translate(.5 .5)"/><path fill="none" stroke="#000" stroke-linecap="round" stroke-linejoin="round" stroke-opacity=".3" stroke-width="1" d="m56.7 23.5-9.8 16L42.5 9 38 7.3l4 29.2L25.5 8.7 23.7 10l19.5 34.1 2.3 15.7-14.4-18.4-2 1.4L46 63.5l5.3 2.3 6-6.9 6.4-4.1-3.4-2.4-7.2 4.4-2.9 5-2.3-15.9 13.5-20.3z"/><path fill="url(#p)" d="m41.9 42.1 2.4-18.2 5.1.2-3.9 23.5 8.9 13.8.5-5.6 4.9-6.5 4 1-4.2 6-2.6 8.5-5.8-.3L27 51.4l1.2-2 21 12-8.7-13.7L8.2 23l1-1.9 27 19.9L20 15.5l5-.1z" transform="translate(.5 .5)"/><path fill="none" stroke="#000" stroke-linecap="round" stroke-linejoin="round" stroke-opacity=".3" stroke-width="1" d="M42.4 42.6 25.6 15.9l-5.1.1 16.3 25.5-27-19.9-1.2 2L41 48.2l8.7 13.7-21-12-1.2 2L51.7 65l5.8.3 2.6-8.4 4.2-6.1-4-1-4.9 6.5-.5 5.6L46 48.1l4-23.5-5.1-.2z"/><path fill="url(#q)" d="m60 49 4.2-.2-2 6.9.3 8.8-5.6 1.3-27.4-5.7.4-2.2 24 5.5-12.8-10.6-39-14.4.4-2.2 32.3 11.4-24-19.7 4.9-1.5 24.9 20.7-3.9-18 5-1.2 4.2 23.4 13 10.7-1.4-5.5z" transform="translate(.5 .5)"/><path fill="none" stroke="#000" stroke-linecap="round" stroke-linejoin="round" stroke-opacity=".3" stroke-width="1" d="M60.5 49.5 58 57l1.4 5.5-13-10.7-4.2-23.4-5 1.2 3.9 18-25-20.7-4.8 1.5 24 19.7L3 36.6 2.6 39l39 14.4L54.5 64l-24-5.5-.5 2.1 27.4 5.8L63 65l-.3-8.9 2-6.9z"/><path fill="url(#r)" d="m27.3 42 3.9-3.1 15 19.4L63 62.7l-3.9-4.5-1.4-7.7 3.8-1.9 1.5 7 4.5 7.7-4.4 3.5-27.4 5.9-.6-2.2 24.2-4.7-16.6-4.3-42 2.7L0 62l34.5-2.7-31-8.1L7.3 48l32.3 8.5z" transform="translate(.5 .5)"/><path fill="none" stroke="#000" stroke-linecap="round" stroke-linejoin="round" stroke-opacity=".3" stroke-width="1" d="M27.8 42.5 40 57 7.7 48.6 4 51.7l31 8.1L.5 62.5l.8 2.2L43.2 62l16.6 4.3L35.7 71l.5 2.2 27.4-5.9 4.4-3.5-4.5-7.7-1.5-7-3.7 1.9 1.4 7.7 3.8 4.4-16.7-4.4-15.1-19.3z"/></g><g id="J"><path fill="url(#s)" d="m73 18 2.8 3.8-15.3 27.4 18-8.2 2.6 4.1-23.6 9.8-7.9 14.3 5.5-2.7 8.6.2 1.3 3.6h-8L48 73l-3-4.7-1-25.5 2.5-.1.5 22.5L54.7 51l4.9-38 2.4-.2-3.5 31.4z" transform="translate(.5 .5)"/><path fill="none" stroke="#000" stroke-linecap="round" stroke-linejoin="round" stroke-opacity=".3" stroke-width="1" d="M73.5 18.5 59 44.7l3.5-31.4-2.4.3-5 38-7.7 14-.5-22.4-2.5.1 1.1 25.5 3 4.7 9.1-2.7h7.9l-1.3-3.6-8.6-.2-5.5 2.7L58 55.4l23.6-9.8-2.6-4.1-18 8.1 15.3-27.3z"/><path fill="url(#t)" d="m49.6 31.8 3-29.3 4.1 3-3.3 30.7 13.4-12.4 4 3.3-18 15.5-1.6 16 4-4 8-2 2.6 3.4-7.1 1.9-7.6 4.9-4.5-3.9-11-24.9 2.1-.7 9.4 22 1.7-15.7L38.3.8l2-.8z" transform="translate(.5 .5)"/><path fill="none" stroke="#000" stroke-linecap="round" stroke-linejoin="round" stroke-opacity=".3" stroke-width="1" d="M50 32.3 41 .5l-2.1.8 10.4 38.8-1.7 15.7-9.4-22-2.1.7 11.1 24.9 4.5 3.9 7.5-4.9 7.2-2-2.5-3.2-8.1 1.8-4 4 1.6-15.9 18-15.5-4-3.3L54 36.7 57.2 6l-4.1-3z"/><path fill="url(#u)" d="m56.2 23 4.7 2-13.5 20.4 2.3 15.9 2.9-5 7.3-4.4 3.3 2.4-6.5 4.1-6 7-5.2-2.4-16.8-20.6 1.9-1.4L45 59.4l-2.3-15.7L23.2 9.5 25 8.2 41.6 36 37.4 6.8 42 8.5l4.4 30.6z" transform="translate(.5 .5)"/><path fill="none" stroke="#000" stroke-linecap="round" stroke-linejoin="round" stroke-opacity=".3" stroke-width="1" d="m56.7 23.5-9.8 16L42.5 9 38 7.3l4 29.2L25.5 8.7 23.7 10l19.5 34.1 2.3 15.7-14.4-18.4-2 1.4L46 63.5l5.3 2.3 6-6.9 6.4-4.1-3.4-2.4-7.2 4.4-2.9 5-2.3-15.9 13.5-20.3z"/><path fill="url(#v)" d="m41.9 42.1 2.4-18.2 5.1.2-3.9 23.5 8.9 13.8.5-5.6 4.9-6.5 4 1-4.2 6-2.6 8.5-5.8-.3L27 51.4l1.2-2 21 12-8.7-13.7L8.2 23l1-1.9 27 19.9L20 15.5l5-.1z" transform="translate(.5 .5)"/><path fill="none" stroke="#000" stroke-linecap="round" stroke-linejoin="round" stroke-opacity=".3" stroke-width="1" d="M42.4 42.6 25.6 15.9l-5.1.1 16.3 25.5-27-19.9-1.2 2L41 48.2l8.7 13.7-21-12-1.2 2L51.7 65l5.8.3 2.6-8.4 4.2-6.1-4-1-4.9 6.5-.5 5.6L46 48.1l4-23.5-5.1-.2z"/><path fill="url(#w)" d="m60 49 4.2-.2-2 6.9.3 8.8-5.6 1.3-27.4-5.7.4-2.2 24 5.5-12.8-10.6-39-14.4.4-2.2 32.3 11.4-24-19.7 4.9-1.5 24.9 20.7-3.9-18 5-1.2 4.2 23.4 13 10.7-1.4-5.5z" transform="translate(.5 .5)"/><path fill="none" stroke="#000" stroke-linecap="round" stroke-linejoin="round" stroke-opacity=".3" stroke-width="1" d="M60.5 49.5 58 57l1.4 5.5-13-10.7-4.2-23.4-5 1.2 3.9 18-25-20.7-4.8 1.5 24 19.7L3 36.6 2.6 39l39 14.4L54.5 64l-24-5.5-.5 2.1 27.4 5.8L63 65l-.3-8.9 2-6.9z"/><path fill="url(#x)" d="m27.3 42 3.9-3.1 15 19.4L63 62.7l-3.9-4.5-1.4-7.7 3.8-1.9 1.5 7 4.5 7.7-4.4 3.5-27.4 5.9-.6-2.2 24.2-4.7-16.6-4.3-42 2.7L0 62l34.5-2.7-31-8.1L7.3 48l32.3 8.5z" transform="translate(.5 .5)"/><path fill="none" stroke="#000" stroke-linecap="round" stroke-linejoin="round" stroke-opacity=".3" stroke-width="1" d="M27.8 42.5 40 57 7.7 48.6 4 51.7l31 8.1L.5 62.5l.8 2.2L43.2 62l16.6 4.3L35.7 71l.5 2.2 27.4-5.9 4.4-3.5-4.5-7.7-1.5-7-3.7 1.9 1.4 7.7 3.8 4.4-16.7-4.4-15.1-19.3z"/></g><g id="K"><path fill="url(#y)" d="m73 18 2.8 3.8-15.3 27.4 18-8.2 2.6 4.1-23.6 9.8-7.9 14.3 5.5-2.7 8.6.2 1.3 3.6h-8L48 73l-3-4.7-1-25.5 2.5-.1.5 22.5L54.7 51l4.9-38 2.4-.2-3.5 31.4z" transform="translate(.5 .5)"/><path fill="none" stroke="#000" stroke-linecap="round" stroke-linejoin="round" stroke-opacity=".3" stroke-width="1" d="M73.5 18.5 59 44.7l3.5-31.4-2.4.3-5 38-7.7 14-.5-22.4-2.5.1 1.1 25.5 3 4.7 9.1-2.7h7.9l-1.3-3.6-8.6-.2-5.5 2.7L58 55.4l23.6-9.8-2.6-4.1-18 8.1 15.3-27.3z"/><path fill="url(#z)" d="m49.6 31.8 3-29.3 4.1 3-3.3 30.7 13.4-12.4 4 3.3-18 15.5-1.6 16 4-4 8-2 2.6 3.4-7.1 1.9-7.6 4.9-4.5-3.9-11-24.9 2.1-.7 9.4 22 1.7-15.7L38.3.8l2-.8z" transform="translate(.5 .5)"/><path fill="none" stroke="#000" stroke-linecap="round" stroke-linejoin="round" stroke-opacity=".3" stroke-width="1" d="M50 32.3 41 .5l-2.1.8 10.4 38.8-1.7 15.7-9.4-22-2.1.7 11.1 24.9 4.5 3.9 7.5-4.9 7.2-2-2.5-3.2-8.1 1.8-4 4 1.6-15.9 18-15.5-4-3.3L54 36.7 57.2 6l-4.1-3z"/><path fill="url(#A)" d="m56.2 23 4.7 2-13.5 20.4 2.3 15.9 2.9-5 7.3-4.4 3.3 2.4-6.5 4.1-6 7-5.2-2.4-16.8-20.6 1.9-1.4L45 59.4l-2.3-15.7L23.2 9.5 25 8.2 41.6 36 37.4 6.8 42 8.5l4.4 30.6z" transform="translate(.5 .5)"/><path fill="none" stroke="#000" stroke-linecap="round" stroke-linejoin="round" stroke-opacity=".3" stroke-width="1" d="m56.7 23.5-9.8 16L42.5 9 38 7.3l4 29.2L25.5 8.7 23.7 10l19.5 34.1 2.3 15.7-14.4-18.4-2 1.4L46 63.5l5.3 2.3 6-6.9 6.4-4.1-3.4-2.4-7.2 4.4-2.9 5-2.3-15.9 13.5-20.3z"/><path fill="url(#B)" d="m41.9 42.1 2.4-18.2 5.1.2-3.9 23.5 8.9 13.8.5-5.6 4.9-6.5 4 1-4.2 6-2.6 8.5-5.8-.3L27 51.4l1.2-2 21 12-8.7-13.7L8.2 23l1-1.9 27 19.9L20 15.5l5-.1z" transform="translate(.5 .5)"/><path fill="none" stroke="#000" stroke-linecap="round" stroke-linejoin="round" stroke-opacity=".3" stroke-width="1" d="M42.4 42.6 25.6 15.9l-5.1.1 16.3 25.5-27-19.9-1.2 2L41 48.2l8.7 13.7-21-12-1.2 2L51.7 65l5.8.3 2.6-8.4 4.2-6.1-4-1-4.9 6.5-.5 5.6L46 48.1l4-23.5-5.1-.2z"/><path fill="url(#C)" d="m60 49 4.2-.2-2 6.9.3 8.8-5.6 1.3-27.4-5.7.4-2.2 24 5.5-12.8-10.6-39-14.4.4-2.2 32.3 11.4-24-19.7 4.9-1.5 24.9 20.7-3.9-18 5-1.2 4.2 23.4 13 10.7-1.4-5.5z" transform="translate(.5 .5)"/><path fill="none" stroke="#000" stroke-linecap="round" stroke-linejoin="round" stroke-opacity=".3" stroke-width="1" d="M60.5 49.5 58 57l1.4 5.5-13-10.7-4.2-23.4-5 1.2 3.9 18-25-20.7-4.8 1.5 24 19.7L3 36.6 2.6 39l39 14.4L54.5 64l-24-5.5-.5 2.1 27.4 5.8L63 65l-.3-8.9 2-6.9z"/><path fill="url(#D)" d="m27.3 42 3.9-3.1 15 19.4L63 62.7l-3.9-4.5-1.4-7.7 3.8-1.9 1.5 7 4.5 7.7-4.4 3.5-27.4 5.9-.6-2.2 24.2-4.7-16.6-4.3-42 2.7L0 62l34.5-2.7-31-8.1L7.3 48l32.3 8.5z" transform="translate(.5 .5)"/><path fill="none" stroke="#000" stroke-linecap="round" stroke-linejoin="round" stroke-opacity=".3" stroke-width="1" d="M27.8 42.5 40 57 7.7 48.6 4 51.7l31 8.1L.5 62.5l.8 2.2L43.2 62l16.6 4.3L35.7 71l.5 2.2 27.4-5.9 4.4-3.5-4.5-7.7-1.5-7-3.7 1.9 1.4 7.7 3.8 4.4-16.7-4.4-15.1-19.3z"/></g><g id="S"><path fill="#a9941d" d="M11 16.5q-1.8-1.1-3.6-1-2.8.3-5 2l-.5.5q.5-1 2-2.2 2.2-1.8 5-2 2-.2 4 1.3zm10.2 5.4q1.3 1.2 2.3 3.5l-1.7 1.3q-1.1-2.4-2.5-3.4z"/><path fill="#8f7d18" d="m11 16.5 2-1.4 1.8 1.7 1 1.2-1.8 1.4-.7-.9q-1.2-1.3-2.4-2m6.5 4.4.6-.1q1.7-.2 3.1 1.1l-1.9 1.4-1.4-.7-1.4-.1-.5.1-2.1.6q.4-1.1 1.5-1.7zm6.1 4.5 1 2.4.8 3.3-1.7.9-.6-2.4-1.2-3z"/><path fill="#5b5110" d="M15.8 18q1 1.4 1.6 2.9l-2 .6q-.6-1.1-1.4-2.1zm9.4 13q.6 3.3 1 7.4.3 3.9 0 6.1l-.3.4-1.1 1q.1-2.2-.1-5.8-.3-4.5-1.2-8.2zm-9.3-8.5.5-.1 1.4.1v.4q.2 3.9-1.7 4.6-.6 1.8-2.2 1.9T12 27.2q-.2-2.8 1.8-4-.4 1-.3 2.3.2 2.4 1.9 2.3l.7-.2q.3-1.1.1-2.9 0-1.1-.3-2.1"/><path fill="none" stroke="#000" stroke-linecap="round" stroke-linejoin="round" stroke-opacity=".3" stroke-width="__RESOLUTION__" d="M13 15.1q-2-1.5-4.1-1.3-2.8.2-5 2-1.5 1.2-2 2.2l.5-.4q2.2-1.9 5-2 1.8-.2 3.5.9 1.2.7 2.4 2l.7.9q.8 1 1.3 2l2-.5q-.4-1.5-1.5-3l-1-1.1zm4.5 5.8.6-.1q1.7-.2 3.1 1.1 1.3 1.2 2.3 3.5l1 2.4.8 3.3q.6 3.3 1 7.4.3 3.9 0 6.1l-.3.4m-1.1 1-.2 1m-9.3-25.5q-1.1.6-1.5 1.7l2-.6.6-.1 1.4.1 1.4.7q1.4 1 2.5 3.4l1.2 2.9.6 2.4q.9 3.7 1.2 8.2.3 3.6.1 5.8m-23-28-.2.2L.3 20m17.5 2.6v.4q.2 3.9-1.7 4.6-.6 1.8-2.2 1.9T12 27.2q-.2-2.8 1.8-4-.4 1-.3 2.3.2 2.4 1.9 2.3l.7-.2q.3-1.1.1-2.9 0-1.1-.3-2.1" vector-effect="non-scaling-stroke"/><path fill="#000" fill-opacity=".3" d="m26.4 40.6 2-4 .7-3.4.9.1-.7 3.6 4.4-1.4.1.9-3.5 1.3 3.9 1.1-.2.6-4-.6-1 5.2 2.8-.2-.5 1.4-1.9-.1-.2 2-3.5.4-.4 1.5-2.7-.4 1.2-2-1.2-1.4-3.9.1.2-1.4 2.6.2-5.1-3.5.5-.8 4 1.6-.6-3.4-3.6-1 .1-.8 3.4.5.3-3 1.1.2-.4 2.3 2.4 3.8.6-2.4 1.3.2-.4 6.8.1.3 1.4.5-.2-4.5z"/><path fill="#414018" d="m25.5 37.8.3-8.3h.4l.4-.1v.1l-.3 5.2.1 5.6v.6l.3 4.5-1.4-.4-.1-.1-.1-.3zm1.9-25.6h.5l-.7 1.4v.3l.3 3-.6-.5-.5-2.6h.3l.3-1.2h.3z"/><path fill="url(#E)" d="M-2.6-17.6v-.8l-.1-3.2-.2-1.5V-25l.4.3.1.1.2-2.8-.9-5.7-.1-.4-.1-.2-.1-.1.7-.6.4-.1v-.5h.3l-.2 1.1-.5-.1.5 2.1q.3.8.3 2.3l.2-.1.1.3q0 2.8-.3 5.4v.6l-.3-.2-.2.2v.5l.2 5.3zm-.9-17.3h.4v.3h-.1z" transform="translate(28.45 47.1)"/><path fill="#ddc53c" d="m25 13.3-.4-1.1h.3l.4.3v-.4h.8v.5l-.4.1z"/><path fill="#645c1a" d="M26.5 12.1h.8l-.1.5H27l-.4 1.2h-.3l.4 2.6.8.6-.4 3.2L27 24l-.5-.2v.8l.1 4.7h-.4l-.2-5.1v-.6l.3-.1.2.1v-.5q.3-2.7.3-5.4v-.4l-.3.2q0-1.6-.2-2.4l-.6-2.1.6.1z"/><path fill="#857a22" d="M26 24.3v-.6z"/><path fill="none" stroke="#000" stroke-linecap="round" stroke-linejoin="round" stroke-opacity=".3" stroke-width="1" d="m25.5 37.8.3-8.3.1-.8-.1-3.2-.2-1.5v-2l.3.3.2.2.1-3-.9-5.6v-.4l-.2-.2m0-.1-.6-1.1h0m3.3 0-.7 1.4h0v.3l.3 3h0l-.2 3.3L27 24l-.5-.2v.1m0 .5v.2l.1 4.7v.1l-.3 5.2.1 5.6v.3m0 .3.3 4.5m-1.5-.5-.1-.3.3-6.8"/><path fill="#645c1a" d="m29.5 8.4.8 1.2.4-.5-.4 1.3-.8 1.2q-1 1.1-2.2 1.5H26l2.2-1.7.3-1.2.3-1.2z"/><path fill="#563a14" d="M29.5 8.3v-.4q0-1.7-1.2-1.8L28 5l-2-.6 1.1-1.9h.1l.6.1-.7 1.5q1.3-.1 2.4.7 1.3 1 1.3 3L30.7 9l-.4.5z"/><path fill="#82571e" d="m29.5 8.3-.6.5-1.3 1.2-.5-1.5-.4.4V7.8Q26.7 6 28 6h.3q1.2.2 1.2 1.9zm-6.1-.5q0-.9.7-.9 1.1 0 1.1 1.4 0 1-.5 1.3z"/><path fill="#b7a120" d="m28.9 8.9-.3 1.2-.3 1.2-2.2 1.8-.9-.2-.2-.5-1.4-3q-.3.3-.3 1.7h-.4l-.4-.8-1.6-1.6 1.1.4.6.2.3.1.5-1.3v-.3l1.3 1.8.7.8L26.8 9l.3-.4.4 1.5z"/><path fill="#ce8a2f" d="m27.1 2.5-1 1.9L28 5l.3 1h-.4q-1.2 0-1.2 1.8V9l-1.3 1.4-.7-.8q.6-.3.6-1.3 0-1.4-1.2-1.4-.7 0-.7.9v.3l-.5 1.3-.3-.1.3-2.3q.4-1 1.8-1l.5.5q0-.7.6-.9l-1-2.5.6-.2.4.5.5-.9z"/><path fill="#e4bd89" d="M22 9.1V7.9q0-2.2 1.2-2.8l1.7-.6-.7-1.2.6-.2 1 2.5q-.6.2-.6.9l-.6-.5Q23.3 6 23 7l-.3 2.3z"/><path fill="#ddc53c" d="M23 11.1h.3q0-1.4.3-1.7l1.3 3 .3.5-.4-.2-1.6-1.2z"/><path fill="none" stroke="#000" stroke-linecap="round" stroke-linejoin="round" stroke-opacity=".3" stroke-width="1" d="m29.5 8.4-.6.5-1.3 1.2-.5-1.5-.4.4-1.3 1.4-.7-.8-1.2-1.8-.1.3-.5 1.3-.3-.1-.6-.2V7.9q0-2.2 1.2-2.8l1.7-.6-.7-1.2.6-.2.6-.2.4.5.5-.9h.8m.1 10.5q1.3-.4 2.3-1.5l.8-1.2.4-1.3-.4.5-.8-1.2m1.2.7V7.9q0-2.2-1.2-3.1-1-.8-2.4-.7l.7-1.5h-.6M30.8 9l.9-1-1.4 2.3m-6.8-2.2v-.3m-.4 3.3-.6-.8L21 8.7l1 .4m2.8 3.7-1.6-1.3-.2-.4"/><path fill="#39280d" d="M30.5 17.5v.5l1.4 4.8-1.6.4-.5-1.8-2.2-5-3-2.7 2.5-1.9-3.7-5.2-1.6.5-.4 1.2-1-1.7.4-1.2 1.6-1.7 1.5-.1 1.5-2.2 2.3-.3 2.2 2.2 1.2 7.1-1.3 4.4.6 1.9z"/><path fill="#73521a" d="m30.4 16.7-.6-2 1.3-4.3-1.2-7.1-2.2-2.2-2.3.3.1-.1 2.9-.8L31 2.1l1.2 7.5-1.9 5.6z"/><path fill="#855f1f" d="m22.5 3.7-1.7 1.7-.4 1.2 1 1.7.4-1.2 1.6-.5 3.7 5.2-2.5 1.8-2.6-2.2L19.5 8 19 5.6h.1l2-1.9z"/><path fill="none" stroke="#000" stroke-linecap="round" stroke-linejoin="round" stroke-opacity=".3" stroke-width="1" d="m24.6 13.7 3 2.7 2.2 5 .5 1.8 1.6-.4-1.4-4.8v-.5M25.4 1.4l-1.5 2.2-1.4.1H21l-2 2h0l.4 2.3 2.5 3.4 2.6 2.2m5.8 3-.1-1.4 1.9-5.6L31 2.1 28.4.5l-2.9.8-.1.1"/><path fill="#ad711f" d="m23.8 14 .2-.3 1.4-1.4.4-.6h.1v-.2q-.2-1-1.5-2.1L23.3 8l-.4-.8q-.2-.8.9-1l1-.2v.1l.5 1H25l-1.4.5v.1q.3.6 1.5 1.8l1.3 1.5q.1.3 0 .4l1 .3.6.3q0 .4-.2.4h-.3q-1 .3-1.7.9l-.6.7-.2.3q-.3.3-.2 1l.3 1.1.6 1.6.1.3v.4l.1.4-.5-1-.2-.5h-.1l-.2.2-.5-1.6.1-1.2.3-1.1-.6-.2zm1.4-8 .4-.7q.4-.7 1-.8t1.1.7q-2 1.2-1.9 2-.2-.8-.7-1zM24 18.5l.3-.1.5 1.2h.2l-.6.4-.7-1.1z"/><path fill="#da8f2c" d="m23.8 14 .4-.2.6.2-.3 1-.1 1.3.6 1.6.1-.2h.1l.2.5.6 1-.9.4h-.3l-.6-1.2-.2.1-.3-.8v-.3l-.2-1-.1-1.4.1-.4zm4.2-2-.7-.3-.9-.3q.1-.1 0-.4l-1.3-1.5q-1.2-1.2-1.5-1.8l1.4-.5.3-.2.3.5.4 1.2.2.8-.1-1.2v-.2l-.2-.7-.1-.2q-.1-.8 1.9-2l.1.3q.5 1.1.5 2l-.2 2zm-3.3-4 .3.3v-.1zm1.9-.5v.2l.2.2.3-.2q.3 0 .2-.3l-.3-.2-.2.3zm.3 1.3-.2-.3h-.1l-.2.3.4.2zm-.6 1-.1.1v.1l.1.2q.3-.1.3-.3zm.8-.6.2.2q.3-.1.1-.2.3 0 .3-.4l-.4-.1zm-3.6 5.7v.2l.3.1-.2.3.3.1q.4 0 .3-.3l-.2-.2.1-.3-.3-.1z"/><path fill="#8e5c1a" d="m25.3 7.1-.5-.9h.4v.1q.4.2.6 1l.1.2.2.8v.1l.1 1.2-.2-.8-.4-1.2z"/><path fill="#dfa04d" d="m24.7 8.1.3.2zm1.9-.5h.2l.2-.3.3.2q.1.3-.2.3l-.3.2-.2-.2zm.3 1.3-.1.2-.4-.2.2-.3h.1zm-.6 1 .3.1q0 .2-.3.3l-.1-.2V10m1-.6-.1-.1.2-.3.3.1q.1.4-.2.4.2.1-.1.2l-.2-.2zm-3.6 5.7.3-.2h.3l-.1.4.2.2q0 .3-.2.3l-.4-.1.1-.3-.2-.1z"/><path fill="none" stroke="#000" stroke-linecap="round" stroke-linejoin="round" stroke-opacity=".3" stroke-width="1" d="M24.8 6.2h-1q-1.1.3-.9 1.1l.4.8 1 1.3q1.3 1.2 1.5 2v.2h.1l-.1.2-.4.5-1.4 1.4-.2.3-.3.6-.1.4v1.4l.4 1-.1.3.3.8-.3.4.7 1.1h0l.6-.3.1-.1.8-.4v-.8l-.1-.3-.7-1.6-.3-1.1q-.1-.7.2-1l.2-.3.6-.7q.6-.7 1.7-.9h.3q.3 0 .3-.4H28V9.6q.3-1 .3-2t-.5-2l-.1-.3q-.4-.8-1.1-.7-.6.1-1 .8l-.4.7"/><path fill="#906720" d="m47.8 37.9-.2.4-.8 1.2-1.5-.6 2-2.2 1.4-.4zm-5.6 2.6v.5h.1l-1.7 2v-.1l.1-3.4 1.5-1.2zm9 8.9 6.7.7 1.7-.1h.8l1.9-1.4.4.2-2.4 2.1-6.9-.1-3.2-.7z"/><path fill="#39280d" d="m47.6 38.3.1-.4h1.8l.3 4.3 3 5.4 6.8 2.4h-1.7l-6.7-.6-.2-.1-4.1-1.7-2.6-2.2v-.1L42.2 41v-.6l3.8.3 1.1-1z"/><path fill="#5a4014" d="m47.8 37.9.9-1.5 2.8.4v.1l-2.2 1z"/><path fill="#573e13" d="m45.3 38.9 1.5.6.8-1.2-.5 1.5-1.1 1-3.9-.3.1-2.3.1-.1z"/><path fill="#c1892b" d="m42.2 41 2 4.3-.6 1.6-3-4z"/><path fill="#a27324" d="m44.3 45.3 2.6 2.3 4.1 1.7h.1l-.9.8H50l-6.4-3.2z"/><path fill="#684a17" d="m59.6 50-6.8-2.4-3-5.5-.3-4.2h-.2l2.2-1-.4 5.3 2.5 4.4L60 49l1.6-1 .7.7-1.9 1.5z"/><path fill="none" stroke="#000" stroke-linecap="round" stroke-linejoin="round" stroke-opacity=".3" stroke-width="1" d="m48.7 36.4-1.4.3-2 2.1-3-.7h0l-1.6 1.3-.2 3.4h.1l3 4 6.4 3.3h.2l3.2.7 6.9.1 2.4-2.1-.4-.2-.7-.6-1.6.9-6.4-2.2-2.5-4.5.4-5.3v-.1z"/><path fill="#55370f" d="M56.9 56.3h.1l1 .5q-.5.2-1.6 0-1.5-.2-2-1.1.1-2.3-1-4l-2.4-3-1.7-2-.7-1.7-.6-1.5-1.7-.5q-1.6-.4-1.8-.7l.3-.7v-.1l.4.1q.5.4 1.8.8l1.8.6h.1v.3l.9 1.9.5 1.6 1.5 1.6.2.1 1.5 1.5.3.5.5 1 .9 2.6.1 1.8.7.4z"/><path fill="#a86d1e" d="M56.9 56.3h-1l-.6-.4-.1-1.7-.9-2.7-.5-1-.3-.5.3-.2.7.9q.8 1.4 1 3l.1 1.6.4.2v.3q.1.3.8.5m-5-8-1.5-1.5-.5-1.6-.8-2-.1-.1-.1-.7 1 .9v.5q.1.7.7 1.7l.3 1.3 1.5 1.5z"/><path fill="#96621b" d="M53.5 50 52 48.5l-.2-.1.5-.1.5-.1.6-.1 1.3.7.3.3.1.1-.6.5h-.7zm-4.6-7-1.9-.6-1.9-.7 2.2-.4v.1l2 .1.5.4-1 .5zm-1.4-2 .1-.3q1-.5 2-.3l1.2.5-.6.7q-.5-.4-1.1-.5zm4.4 5.8"/><path fill="#744b14" d="m47.3 41.4.2-.3 1.6.1q.6.1 1 .5l.6.7.8 1.9.1 1.5q0 .5.4 1.1h-.1l-.4-.4-.2-1.3-.2-.9-.1-.3-.7-1.4-.5-.7-.5-.4z"/><path fill="#c78223" d="m50.8 41 .4.6.3.7h-.2l-.1.4.1.1h.4l.5 1.8.3 1-.2.1q-.3.2 0 .6 0 .2.3.3-.4.3-.2.8l.3.2.3-.2-.3-.4.3.2.4.9-.6.1h-.5l-1.5-1.5-.3-1.2q-.6-1-.7-1.7v-.5l-1-.9 1-.5.5.7.7 1.4-.3-.1-.2-.1h-.1q-.4.2-.1.6h.2l-.2.5q.3.3.5.2l.1-.5.1-.2.3.8.3 1.3.3.4h.1q-.5-.6-.4-1.1l-.1-1.5-.8-1.9-.6-.7zm3.9 7.8.5.2.1 1 .2.1h-.2v.4l-.3-.1q-.3.2 0 .6l.2.1.1.3q.2.3.4.1v-.1q.6 2.1.3 4.1l-.4-.1-.1-1.6q-.2-1.7-1-3.1l-.7-1h.7l.6-.5v-.1zm-3.8-7v.3h.2l.1-.3v-.1zM51 46q.1.2.3.1l.1-.1-.1-.4H51zm.9-1 .2.2h.1l.1-.3zm3.5 6.1-.1.1.2-.1m.4 1q-.2-.2-.3-.1l-.2.3q.2.3.4.1z"/><path fill="#e2aa5f" d="m51.5 42.3.1.6h-.3l-.1-.2.1-.4zm1 3.4.1.2.4 1.3-.2-.1-.1-.1.3.4-.4.2-.2-.2q-.2-.5.2-.8l-.4-.3q-.2-.4.1-.5zm3 4.4.2 1v.4q-.2.1-.4-.1l-.1-.2-.2-.2q-.3-.4 0-.6h.3v-.2zM51 44v.4l-.1.3-.1.4q-.2.1-.5-.2l.2-.4-.2-.1q-.3-.4.1-.6h.3v.1zm-.2-2.1.3-.1v.1l-.1.4-.2-.1zM51 46l.1-.4h.1l.2.4-.1.1q-.2.1-.3-.1m.9-1 .4-.1v.3H52zm3.5 6h.1l-.2.1zm.5 1-.1.4-.5-.2.3-.3q.1-.1.3.2"/><path fill="#54360e" d="M52 47v-.1"/><path fill="none" stroke="#000" stroke-linecap="round" stroke-linejoin="round" stroke-opacity=".3" stroke-width="1" d="m45.2 41.7-.4-.2h0l-.3.8q.2.4 1.8.7l1.7.5.5 1.5.8 1.8 1.8 1.9 2.4 3q1 1.7.8 4 .6.8 2.1 1 1.1.3 1.6 0h0l-1-.4h-.2q-.6-.2-.8-.5v-.3q.3-2-.2-4.1l-.1-.3-.2-1-.2-.1-.1-1-.6-.2-1.1-.6-.1-.1-.4-.9-.4-1.3-.1-.2-.3-1.1-.6-1.7-.1-.6-.3-.7-.4-.6-1.2-.5q-1-.2-2 .3l-.1.3-.2.3z"/></g><g id="R"><path fill="#573e13" d="m10 7.4.3-.5 3.2-1.2 5.2-.8h.1v3.8l-10 3-.5-1.3h.1l.7-1.5zm9.7-3.2H15l.6-1.7 3.1-2 4.8 1.2z"/><path fill="#96621b" d="m18.7 4.9-5.2.8-3.2 1.2-.3.5-5.2-.8L5 6l4.3.3L13 4.5q.1.4.5.4.6-.1.6-.3l-.2-.4h5.8l-.7.5zm-4 0q0 .3.6.4.3 0 .3-.5l-.4-.1zm-2.2.3q0 .4.3.4l.2-.3V5h-.3zm-.7.1-.1.2.1.2.2-.1z"/><path fill="#55370f" d="m10 7.4-.9 1.5-.5-.2-6-2-.8-1.9v-.1l1.1-1.4H5L2.3 5l.8 1.2 1.7.4z"/><path fill="#39280d" d="m9.1 8.9-.7 1.5h-.1l-3.7.8-2-1.3 6-1.2zm9.7-.2V4.9l.2-.2.7-.5 3.8-2.5 1 3.4-3 3.4z"/><path fill="#71501a" d="m8.3 10.4.5 1.3-2.9 1-1.3-1.5z"/><path fill="#c27e23" d="m13.9 4.2.2.4q0 .2-.6.3-.4 0-.5-.4zm.8.7.5-.2.4.1q0 .5-.3.5-.6-.1-.6-.4m-2.2.3.2-.1h.3v.2l-.2.3q-.3 0-.3-.4m-.7.1.2.3q0 .1-.2 0l-.1-.1z"/><path fill="#7e5216" d="m5 6-.2.6-1.7-.4L2.3 5 5 3.4 3.3 5.3l.3.6z"/><path fill="#835c1d" d="M5.9 12.7.5 11l.4-3.6.5 1.8 1.1.6 2.1 1.3z"/><path fill="none" stroke="#000" stroke-linecap="round" stroke-linejoin="round" stroke-opacity=".3" stroke-width="1" d="m8.8 11.7 10-3 2.7-.2 3-3.3V5l-1-3.4h0L18.7.5l-3.1 2-.6 1.7h-1.1l-.9.3-3.7 1.8L5 6l-1.4-.1-.3-.6h0l1.7-2H2.9L1.8 4.7v.1l.8 1.9 6 2-6 1.2-1.2-.6-.5-1.8L.5 11h0L6 12.7z"/></g><g id="O" fill="#000"><path fill-opacity=".1" d="m50.4 12 .6 1.5 1-4.1-.4 5.7.5 1H52l-3 2.4-3.8 1.4L45 16l-1.8 4.6L39 22l-6.2 1-.2-2.6L32 23l-7.2 1-12.2-1.7-2.1-6.4.5 6.2-1.4-.1-1.2-5.2-.7 4.9-2.8-.4L0 16.9l1.8-3.5L.8 0l3 10 1 1.6V4l1.7 4.6 6.9-3.4 14.5-.8L40 7.2l3.4 1.5.9-7.1.8 7.9 3.4 1.6L50 6.4z"/><path fill-opacity=".1" d="m41.6 11.3.8-1.4 2.4-8-.9 10.7 1.5 2.8-3.9 3.7-2.2.3-.6-3.8-1 4-1.2.2.5-5-1.7 5.3-9.7 1.4-5.9-.7-.5-2.2-.2 2-5-.7-3.2-1-1.4-3.7-.3 3-3-1-2.5-1.8v-.1l.3-.8-.3-4.6 1 3.4L5 12l.3-4.6 1 3.8 2.8-1.4.7-6.4.7 5.9L13.4 8 23 5.7l11.6.5L40 8.8l1.4-3.6z"/><path fill-opacity=".2" d="m39.6 9.6 2.1-7.2L41 12l1.3 2.5-3.5 3.4-2.1.3-.6-3.6-.8 3.8-1 .1.4-4.5-1.6 4.8-8.9 1.3-5.3-.7-.5-2-.2 2-4.5-.7-3-1-1.3-3.4-.2 2.8-2.8-.8-2.2-1.8H4l.3-.8-.2-4.2.8 3 .5-1 .3-4.1 1 3.4 2.5-1.2.6-5.8.7 5.2L13 8l8.8-2.2 10.6.5 5 2.3 1.3-3.3v5.6z"/></g><use xlink:href="#F" id="T" width="82.1" height="74"/><use xlink:href="#H" id="Q" width="82.1" height="74"/><use xlink:href="#I" id="P" width="82.1" height="74"/><use xlink:href="#J" id="N" width="82.1" height="74"/><use xlink:href="#K" id="M" width="82.1" height="74"/><clipPath id="L"><path d="M1 1h98v70H1z"/></clipPath></defs><g clip-path="url(#L)"><g transform="translate(51.1 49.5)"><use xlink:href="#M" width="82.1" height="74" transform="matrix(.423 -.2 .3336 .3105 -50.1 -6.2)"/><use xlink:href="#N" width="82.1" height="74" transform="matrix(-.5471 -.1354 -.1077 .3879 47.9 -20.1)"/><use xlink:href="#O" width="52.2" height="24.1" transform="translate(-26.05 -2.8)"/><use xlink:href="#P" width="82.1" height="74" transform="matrix(.4376 .122 -.0856 .3069 -25.55 -16.25)"/><use xlink:href="#P" width="82.1" height="74" transform="matrix(-.4285 .2287 .1242 .2327 21.1 -26.45)"/><use xlink:href="#Q" width="82.1" height="74" transform="matrix(.3445 .3312 -.2837 .4167 -7.05 -48.5)"/><use xlink:href="#R" width="24.9" height="13.2" transform="translate(-36.05 -21.1)"/><use xlink:href="#Q" width="82.1" height="74" transform="matrix(.5673 .188 -.061 .3984 -33.8 -35.3)"/><use xlink:href="#Q" width="82.1" height="74" transform="matrix(-.0037 .3971 -.4137 .0662 29.65 -34)"/><use xlink:href="#S" width="63.2" height="57.4" transform="translate(-28.45 -47.1)"/><use xlink:href="#T" width="82.1" height="74" transform="matrix(.3322 .0707 -.0498 .2338 -16.95 -11.5)"/><use xlink:href="#P" width="82.1" height="74" transform="matrix(-.5798 .1611 .0658 .2368 31.65 -13.05)"/></g></g></svg>