<svg xmlns="http://www.w3.org/2000/svg" xmlns:xlink="http://www.w3.org/1999/xlink" width="76" height="135" viewBox="0 0 76 135"><defs><g id="h"><path fill="#fff" fill-opacity=".1" d="m9.4 20.7 1 1q1 1.5 1 3.6t-1 3.4q-1 1.5-2.3 1.5T6 28.7q-.8-1.2-1-2.8-1.3-.2-2.4-2-1.2-1.9-1.2-4.6t1.2-4.7q1.2-1.8 2.9-1.8t2.8 1.8q1.3 2 1.3 4.7z"/><path fill="#fff" fill-opacity=".2" d="m10.8 12.1-2.7 5.7v2.6l.7.8q.6 1 .6 2.4T8.8 26t-1.5 1.1q-1-.1-1.6-1-.5-.9-.7-2-.8-.3-1.3-1L0 26l2.7-4.6q-.3-1-.3-2 0-2 .9-3.4t2-1.3q1 0 1.8 1.1z"/><path fill="#000" fill-opacity=".3" d="M21.4 28.4 19 34l-4.5 8.7 3.9-10z"/><path fill="#a27b21" d="m12.8 3.7-.6-1Q11.6.8 15 .4q1.6-.2 3.4 1.2l.6.5q-3.6.5-3 2.8-.6-.7-1.7-.5l-.9.1zm3.1 1.1Q15.5 2.5 19 2q1.3 1.1 1.8 2.7v.1l.2 1 .1 1q0 1.7-1.5 2.1l-.6.2h-.1q-1.3.1-2-.5-.4-.4-.5-1 .2-.4.1-1v-.1l-.1-.7v-.2zm5 1q-2.4 2.3-4.5.6 2.1 1.8 4.5-.7"/><path fill="#7b5e1a" d="m12.8 3.7.6.7.9-.2q1.1 0 1.6.6l.1.1.4.7v.2l.1.7v.1q.1.6-.1 1 .1.6.5 1 .7.6 2 .4l-.6 1q-.8.7-1.5.8-1.4.1-3-1.2h-.2l-.8-1q-.7-.8-1-1.7-.4-1.3 1-3.2m3.6 2q-4 .3-3.6 2.9-.4-2.6 3.6-3"/><path fill="none" stroke="#000" stroke-linecap="round" stroke-linejoin="round" stroke-opacity=".3" stroke-width="__RESOLUTION__" d="m19 2-.6-.5Q16.6.1 15 .3q-3.4.5-2.8 2.5l.6.9.6.7.9-.2q1.1 0 1.6.6M19 2q1.3 1.1 1.8 2.7v.1l.2 1 .1 1q0 1.7-1.5 2.1l-.6.2h-.1l-.6.9q-.8.7-1.5.8-1.4.1-3-1.2h-.2l-.8-1q-.7-.8-1-1.7-.4-1.3 1-3.2M16 4.9l.4.7m0 0v.2l.1.7m0 .1q.1.6-.1 1 .1.6.5 1 .7.6 2 .4" vector-effect="non-scaling-stroke"/><path fill="none" stroke="#000" stroke-linecap="round" stroke-linejoin="round" stroke-opacity=".1" stroke-width="__RESOLUTION__" d="M16 4.8q-.6-2.3 3-2.8m-2.6 3.5q-4 .4-3.6 3m3.7-2.1q2.1 1.8 4.5-.7m-4.5.7" vector-effect="non-scaling-stroke"/></g><g id="g" fill="#c00" fill-opacity=".4"><path d="M22.8 1.2Q29 3.5 32 9.6L22.2 12q-2-4.1-6.4-5.7-4.7-1.8-9.3.3-4.6 2-6.3 6.8l-.1.3.8-2.6q2.4-6.7 8.8-9.6 6.4-3 13.2-.4m.1 12.6L33 12q1.8 5.5-.2 11.1-2.5 6.6-9 9.5l-2.3.9-4.6-5q4.2-2.1 5.9-6.5 1.5-4.2.1-8.2M7.3 29.1q4 1.4 8 0l4 4.9q-4.2.7-8.5-.9-6.7-2.5-9.6-8.9 2.1 3.4 6 4.9"/><path d="M5.5 15.2q2.5-1 5 0 2.3 1.1 3.3 3.6 1 2.4 0 4.9-1.1 2.5-3.6 3.4 1.3-.7 2-2.1.7-1.8 0-3.5-.7-1.8-2.4-2.5-1.8-.7-3.5 0-1.8.7-2.5 2.4t0 3.4 2.4 2.5h.1l-1-.3Q3 26 2 23.5t.1-5q1.1-2.3 3.5-3.3"/></g><g id="f"><path fill="#7b5e1a" d="M28.9 15.6q1.3-1.7 2-3.8l.1-.1q2.7 1.3 1.8 3.8l-.1.3L32 17q-1.2 2-2.9 3.3l-.4-.6.5-3.6zm3.9.2-3.5.1v.2-.2zm-1.8-4 2 3.7z"/><path fill="#614914" d="M29.1 20.3q-2.3 2.8-6 3.4l-.7.1-1-3.8 2.5-.9 5-3.5.3.5-.5 3.6zm-6 3.4 1-3.9h4.6-4.6zm.8-4.7.2.7z"/><path fill="none" stroke="#000" stroke-linecap="round" stroke-linejoin="round" stroke-opacity=".3" stroke-width="__RESOLUTION__" d="M28.9 15.6q1.3-1.7 2-3.8l.1-.1q2.7 1.3 1.8 3.8l-.1.3L32 17q-1.2 2-2.9 3.3-2.3 2.8-6 3.4l-.7.1-1-3.8 2.5-.9z" vector-effect="non-scaling-stroke"/><path fill="none" stroke="#000" stroke-linecap="round" stroke-linejoin="round" stroke-opacity=".2" stroke-width="__RESOLUTION__" d="m32.8 15.5.1.3h-.2l-3.5.1v.2l-.4-.5m4-.1L31 11.8m-2 8.5-.4-.6-4.6.1-1 4m5.6-4 .5-3.6M24 19.9l-.2-.7" vector-effect="non-scaling-stroke"/><path fill="#725718" d="m25.7 6.3-.2.2-1.2-.8 1.1.8zl-.3-1.5q-.2-.8-.7-1l-.4 1.9-.6 3.3-.2 1.3h.2l1.8-3.8-1.8 3.8h-.2L21.3 14 20 16.7v.6l-2.4 4v1.2q2.9-2.2 4.2-4.2L23 16l-.4-.2 1-5.5-1 5.5.4.2 1.6-2.6.4-1q.4-.9.6-1.9l.1-2.2v-1zm-3 9.5L20 17.3z"/><path fill="#000" fill-opacity=".3" d="m23 16 1.7-2.6.4-1v.4q-.2 1.5-1 2.8L22.8 18l-1.4 2.3q-1.1 2-3.8 3.9-1.5 2.3-2.7 2.7l-1.6.5q-2.7 3-4.9 1.9l-2.2-.2q-.8-.2-1-1.2h.1l2.4.1q2.3 1 5.4-2.2l1.7-.5q1.2-.4 2.8-2.8 2.9-2.2 4.2-4.2z"/><path fill="#a27b21" d="M5.1 27.9q-1.2-.5-1.2-3l-.1-1.7.4-3q.4-1.7 1.4-3.3l.2 2.8.5-.2v1.7q.1 1.1 1 2.5h1.5l2.3-.2-.1.5-2.8 2.3-.6 1.7zm2.2-4.2-.5 1q-1-.7-2-.6l-.4.2.7-3q.3-1.1.7-1.6-.4.5-.7 1.6l-.7 3 .4-.2q1-.1 2 .6zm-.5 1 1.4 1.6zm-3 .1.6-.5z"/><path fill="#82631c" d="m5.6 16.9.5-.7.9-1.4-.9 2.3.2 2.4-.5.2zm9.6 4.4 4.7-4.6v.6l-2.4 4-2.4.4 2.3-.4.1 1.2q-1.6 2.4-2.8 2.8l-1.7.5.1-1.2 2-2.9z"/><path fill="#8b6a1d" d="m11.1 23.5 2.7-1.7 1.4-.6v.6L13 24.6l-.2 1.2Q10 29 7.7 28l.6-1.7L11 24l2.1.6L11 24z"/><path fill="none" stroke="#000" stroke-linecap="round" stroke-linejoin="round" stroke-opacity=".2" stroke-width="__RESOLUTION__" d="m24.3 5.7 1.1.8.3-.2m-2.2 4h.2l1.8-3.8m-1.8 3.8-1 5.5.4.2m-17.5.9.2 2.8.5-.2m-.5.2q-.4.5-.7 1.6l-.7 3 .4-.2q1-.1 2 .6l.5-1m.3 4.3.6-1.7-1.4-1.6m-2.4-.4-.6.5m11.3-3 2.3-.5 2.6-4-.1-.6m-4.7 4.6v.4l-2.2 3-.2 1.2m4.6-3.3v-1.2M13 24.6l-2-.6-2.8 2.3M11 24l.1-.5m8.9-6.2 2.7-1.5" vector-effect="non-scaling-stroke"/><path fill="none" stroke="#000" stroke-linecap="round" stroke-linejoin="round" stroke-opacity=".3" stroke-width="__RESOLUTION__" d="m25.7 6.3-.3-1.5q-.2-.8-.7-1m-1 5.2-.2 1.3-2.2 3.7-1.4 2.7-4.7 4.6-1.4.5-2.7 1.7-2.3.2H7.3q-.9-1.4-1-2.5v-1.7m18.8-7 .6-2 .1-2.2v-1l-.1-1M23 16l1.6-2.6.4-1M5.1 28q-1.2-.5-1.2-3l-.1-1.7.4-3q.4-1.7 1.4-3.3l.5-.7.9-1.4m-1.9 13 2.4.2q2.3 1 5.4-2.2l1.7-.5q1.2-.4 2.8-2.8 2.9-2.2 4.2-4.2L23 16" vector-effect="non-scaling-stroke"/><path fill="#725718" d="m26.7 2.7-.1.1-1.2-.6 1.2.6zl-.2-1.5q-.2-.7-.8-1l-.3 2-.6 3.1-.3 1.4.2-.1 1.9-3.8-1.9 3.8h-.2l-2 3.6-1.5 2.6v.6l2.8-1.4 1-5.4-1 5.4-2.7 1.4-2.5 4v1q3-2.1 4.1-4l1.5-2.3 1.5-2.6.5-.8q.5-1 .5-2l.2-2.1v-1zm-2.5 9.4-.4-.1z"/><path fill="#000" fill-opacity=".3" d="m24.2 12.1 1.5-2.6.5-.8V9q-.1 1.5-1 2.7l-1.4 2.4-1.4 2.2q-1 1.9-3.7 3.8-1.6 2.3-2.7 2.7l-1.6.5q-2.8 2.9-5 2l-2.2-.1q-.7-.2-1-1.2h2.6q2.2.9 5.3-2.2l1.7-.6q1.2-.4 2.8-2.7 3-2.2 4.1-4.1z"/><path fill="#a27b21" d="M6.2 24q-1.1-.5-1.3-2.9v-1.6l.4-2.9q.4-1.6 1.4-3.3l.2 2.8.4-.2.1 1.6q.1 1.1 1 2.5l1.4-.2 2.4-.1-.1.4-2.8 2.3-.6 1.6zm2.2-4-.5.9q-1-.7-2-.6l-.4.2.8-2.8q.2-1.2.6-1.6-.4.4-.7 1.6l-.7 2.8.4-.2q1-.1 2 .6zM5 21.2l.6-.6zm3-.2 1.4 1.5z"/><path fill="#82631c" d="m6.7 13.3.4-.6 1-1.4-.9 2.3.1 2.3-.4.2zm9.6 4 4.7-4.5v.6l-2.4 4v1q-1.6 2.4-2.8 2.9l-1.7.5.1-1.2 2-2.8 2.4-.5-2.4.5z"/><path fill="#8b6a1d" d="m12.2 19.7 2.6-1.7 1.5-.7v.5l-2.1 2.8-.1 1.2Q11 25 8.8 24l.5-1.6 2.8-2.3zm-.1.4 2.1.5z"/><path fill="none" stroke="#000" stroke-linecap="round" stroke-linejoin="round" stroke-opacity=".2" stroke-width="__RESOLUTION__" d="m25.4 2.2 1.2.6.1-.1m-2.2 4 .2-.1 1.9-3.8m-5.6 10v.6l2.8-1.4 1-5.4m-1 5.4.4.1M6.7 13.3l.2 2.8.4-.2m-.4.2q-.4.4-.7 1.6l-.7 2.8.4-.2q1-.1 2 .6l.5-1m-2.9.6-.6.6m13.7-2.6v-1.2l-2.4.5-2 2.8-.1 1.2m2.2-4.5v.5m-7 4.6 2.8-2.3.1-.4m2 .9-2.1-.5m-3.3 4 .5-1.7-1.4-1.5m10.7-3.6 2.4-3.9" vector-effect="non-scaling-stroke"/><path fill="none" stroke="#000" stroke-linecap="round" stroke-linejoin="round" stroke-opacity=".3" stroke-width="__RESOLUTION__" d="m26.7 2.7-.2-1.5q-.2-.7-.8-1m-.9 5.1-.3 1.4-2 3.5-1.5 2.6-4.7 4.5-1.5.7-2.6 1.7-2.4.1-1.4.2q-.9-1.4-1-2.5v-1.6m18.8-7.2q.5-1 .5-2l.2-2.1v-1l-.2-.9m-2.5 9.4 1.5-2.6.5-.8M6.2 24q-1.1-.5-1.3-2.9v-1.6l.4-2.9q.4-1.6 1.4-3.3l.4-.6 1-1.4m16 .8-1.4 2.3q-1.1 1.9-4 4-1.7 2.4-2.9 2.9l-1.7.5Q11 25 8.8 24H6.2" vector-effect="non-scaling-stroke"/><path fill="#7b5e1a" d="m22.6 23.3-.1 1.5v.1q-.4 2.1-1.8 3.1l-1.7.5-1.2-.4q1.1-.8 1.3-1.8l-.3-1.3q-.5-.1-.9-.7l-.4-.8h-.1q3.7-2.7 5.2-.2-1.6-2.5-5.2.2v-.1l-.2-.9q-.1-1 .9-1.7l.8-.5v-1.1q2.6.6 3.3 2 .4 1 .4 2.1"/><path fill="#a27b21" d="m17.4 23.5.5.8q.4.6 1 .7l.2 1.3q-.2 1-1.4 1.8v.1l-.6.3q-1.6.8-2.8-.6l-.7-.9-.5-1v-.2q-.8-1.6-.6-3.5l.2-.8q.4-2.5 2-3.5 3-2.1 4 0l.2 1.2v1.1l-.8.5q-1 .7-1 1.7zm-4.9-1q3.4-2.2 4.6.1-1.2-2.3-4.6-.2m1.1 4.7q3.7.3 4.3-2.7-.6 3-4.2 2.7"/><path fill="none" stroke="#000" stroke-linecap="round" stroke-linejoin="round" stroke-opacity=".3" stroke-width="__RESOLUTION__" d="m17.8 28.2 1.2.3 1.7-.5q1.4-1 1.8-3.1v-.1l.1-1.5q0-1.1-.4-2-.7-1.5-3.3-2.1l-.1-1.2q-1-2.1-4.2 0-1.5 1-1.9 3.5l-.2.8q-.2 1.9.6 3.5v.2l.5 1 .7.9q1.3 1.4 2.8.6zq1.2-.8 1.4-1.8l-.3-1.3q-.5-.1-.9-.7m-.5-.8.5.8m1-5.1v1.1l-.8.5q-1 .7-1 1.7m0 0 .2.9" vector-effect="non-scaling-stroke"/><path fill="none" stroke="#000" stroke-linecap="round" stroke-linejoin="round" stroke-opacity=".1" stroke-width="__RESOLUTION__" d="M22.6 23.3q-1.6-2.5-5.2.2v-.1m-.2-.9q-1.3-2.3-4.7-.2m5.4 2q-.6 3-4.2 2.7" vector-effect="non-scaling-stroke"/><path fill="#a27b21" d="M13.6 53.8h-.2l-.6-.1q-1.4-.5-1.5-2.2l.1-1 .2-1 .1-.1q.5-1.5 1.8-2.7l.6-.5q1.7-1.4 3.4-1.2 3.3.5 2.8 2.5l-.7.9-.6.8-.9-.2q-1-.1-1.6.5v.1l-.4.7v.2l-.2.7v.1q0 .6.2 1l-.6 1q-.7.6-2 .5m-2.1-3.2q2.4 2.4 4.5.6-2.1 1.8-4.5-.7m2-3.8q3.6.5 3.1 2.8.5-2.2-3-2.8"/><path fill="#7b5e1a" d="M19.7 48.4q1.3 1.9 1 3.3l-1 1.6-.9 1h-.1q-1.6 1.4-3 1.2-.7-.1-1.5-.8l-.6-1q1.2.2 2-.4l.5-1q-.3-.4-.2-1v-.1l.2-.7v-.2l.3-.7h.1q.6-.7 1.6-.6l1 .1zm.1 4.9q.4-2.5-3.6-3 4 .5 3.6 3"/><path fill="none" stroke="#000" stroke-linecap="round" stroke-linejoin="round" stroke-opacity=".3" stroke-width="__RESOLUTION__" d="M13.6 53.8h-.2l-.6-.1q-1.4-.5-1.5-2.2l.1-1 .2-1 .1-.1q.5-1.5 1.8-2.7l.6-.5q1.7-1.4 3.4-1.2 3.3.5 2.8 2.5l-.7.9q1.4 1.9 1 3.3l-.9 1.6-.9 1h-.1q-1.6 1.4-3 1.2-.7-.1-1.5-.8zq1.2.2 2-.4l.5-1q-.3-.4-.2-1m3.7-2.9-.6.8-.9-.2q-1-.1-1.6.5m0 .1-.4.7m0 0v.2l-.2.7" vector-effect="non-scaling-stroke"/><path fill="none" stroke="#000" stroke-linecap="round" stroke-linejoin="round" stroke-opacity=".1" stroke-width="__RESOLUTION__" d="M16 51.3q-2.2 1.8-4.6-.7m4.7-.3q4 .5 3.6 3m-3.2-3.7q.5-2.4-3-2.9" vector-effect="non-scaling-stroke"/><path fill="#675843" d="M23.3 44.7v-.5l-.6-1.7-.5-1V41l.4-.2.1-.1h.4q2.7-.3 5.4 2 2.4 2 2.8 4.8-.1.8-.6 1.3l-.8 1q-2.3 2.4-6.3 3.6l-1 .3-9.3.9-7.7-3.4L3.8 49l.1-1.1.1-.1.8 1.2q1.1 1.1 2.8 1.5l6 1 5.2-.5 3.1-.7 1-.3.4-.1q3.2-1.2 4.9-2.1 2-1.1 1.9-1.8-.2-1.7-3.3-3.5-1.9-1.1-3.4-1.5l-.4.4v.1q.9.8 1.2 2.7-.3 1-.9.5m4.2 37.8q-.3 2.5-1.3 3l-.4.2L23 87l-.8.4q-3.7 1.2-7.4.7l.6-1.1 4.8-.2 2.2-.5 1-.2 2-.9q1.4-.9 1.9-2zm-24.2-38 .3-.1q1.1.1 1.4 1.2l.1 1.1q-.7.2-.6.6l-.3-.8zm.6 3.4L3.8 49l-.2 1-.2 1.1-.6 5.3q-.4 3.5-.4 5.9-.1 2 0 3.2.7 5.7 3.6 11l2 3.3 1 1.3 1.6 2.3.2.4 1 1.4.2.4v.2l-2.2-2.1q-1.9-2.1-3.7-5l-1.7-3Q1.7 70 1.1 64.8v-3.3l.1-5.6q.1-3 .4-4.5l1-3.9.7-.9.2.6zm19 39.3.3-.9z"/><path fill="#6b6b58" d="m30.7 48.8 1 1.9q-3 3.4-7.5 4.5l-1.2.3-8.2.5-10-1.5-.4 2.2q-.3 2.6-.3 5.2l-1.7.4q0-2.4.4-6l.6-5.2q.4 1 1.7 1.7 2.3 1.3 7.9 1.8h.3l9.4-1 .9-.2q4-1.2 6.3-3.6zM2.4 62.3l1.7-.4v1.7q.3 6.9 3 13.5L6 76.5l2 3.3 1 1.3q-1.2-2-2-4l-1-.6q-2.9-5.3-3.6-11zm21.2-9 .6 2z"/><path fill="#7c7c69" d="M31.7 50.7v7.2l-6.9-.4-.6-2.2q4.5-1.2 7.5-4.6M12 85.6l-.2-.4-1-1.4-.2-.4-1.7-2.3-1.8-4 3.5 1.9 14.7.3v.2l-2 6.7-1 .2-2.2.4-4.9.3q-1.5-.1-2.3-.6l-.3-.3z"/><path fill="#6f6f5e" d="m31.7 57.9-.1 1q-.2 4.6-.6 8.5l-.1 1.1-.8 4.8q-.3.6-.4 1.5l-.5 2-3.9 2.4.5-18.2-1-3.5z"/><path fill="#6a6959" d="m29.2 76.9-.5 2-.9 2.5-.1.8-.2.3-.3.8q-.5 1.1-2 2l-2 .9 2.1-6.7v-.3z"/><path fill="#9b8664" d="M14.7 88.2h-.2l-2.2-.4h-.1Q6.2 82 3.1 75 1.2 70.8.3 66.2l-.2-3.5v-2l1 .8v3.3q.6 5.2 3.3 10.9l1.7 3q1.8 2.9 3.7 5l2.2 2v-.1l.6.6.3.3q.8.5 2.3.6z"/><path fill="#d0c09d" d="M.1 60.8q-.4-14.9 3.2-16.3l.9 2-.7.8-.2-.7-.8.9-.9 3.9q-.3 1.5-.4 4.5l-.1 5.6z"/><path fill="#c4ae80" d="M4.5 47.4q0 .3 1 .9l1.1.7q4.4 2.4 11.2 1l3.3-.8.8 1-3.1.7-5.2.5-6-1q-1.7-.4-2.8-1.5L4 47.8l-.1-.1v.1l-.4-.5.7-.8zm18.5-6 .4-.4q1.6.4 3.4 1.5 3.1 1.8 3.3 3.5.1.7-1.9 1.8l-.6-.6q3-1.7.3-3.6-3.7-2.2-4.9-2.2"/><path fill="#a0874e" d="m21.1 49.3 2-.6q3-.7 4.5-1.6l.6.7q-1.7.9-4.9 2l-.4.3V50l-1 .3z"/><path fill="#393124" d="m23.1 48.7.2-4q.6.5 1-.5-.4-1.9-1.3-2.7v-.1q1.2 0 5 2.3 2.6 1.8-.4 3.4-1.6.9-4.5 1.6M3.8 49l1.8 2.2 7.7 3.4H13q-5.6-.5-7.9-1.8-1.3-.7-1.7-1.7l.2-1z"/><path fill="#6f7436" d="M4 47.8h-.1v-.1z"/><path fill="url(#a)" d="M15.4-29.1q0-2.6.3-5.2l.4-2.2 10 1.5 8.2-.5 1.2-.2.6 2.2 1 3.5-.5 18.2v.1L22-12l-3.5-1.9q-2.7-6.6-3-13.5zl20.7-4.4z" transform="translate(-11.3 91)"/><path fill="none" stroke="#000" stroke-linecap="round" stroke-linejoin="round" stroke-opacity=".3" stroke-width="__RESOLUTION__" d="M23.3 44.7v-.5l-.6-1.7-.5-1V41l.4-.2.1-.1h.4q2.7-.3 5.4 2 2.4 2 2.8 4.8-.1.8-.6 1.3l1 1.9v7.2l-.1 1q-.2 4.6-.6 8.5l-.1 1.1-.8 4.8-.2.9-.2.6-.5 2-.5 2.1-.9 2.5-.1.8-.2.3q-.3 2.5-1.3 3l-.4.2L23 87l-.8.4q-3.7 1.2-7.4.7m-.2 0-2.2-.4h-.1Q6.2 82 3.1 75 1.2 70.8.3 66.2l-.2-3.5v-2Q-.3 46 3.3 44.6l.3-.1q1.1.1 1.4 1.2l.1 1.1q-.7.2-.6.6t1 1l1.1.7q4.4 2.3 11.2.9l3.3-.8 2-.6.2-4q.6.5 1-.5-.4-1.9-1.3-2.7v-.1l.4-.4M4 47.9 3.8 49l-.2 1-.2 1.1q.4 1 1.7 1.7 2.3 1.3 7.9 1.8h.3l9.4-1 .9-.2q4-1.2 6.3-3.6l.8-1M23 41.4q1.2 0 5 2.3 2.6 1.8-.4 3.4-1.6.9-4.5 1.6M3.4 51.1l-.6 5.3q-.4 3.5-.4 5.9l1.7-.4 20.7-4.4-.6-2.2-.6-2m1.2 4.2 6.9.4m-6.9-.4 1 3.5-.5 18.2 3.9-2.4m-17.4 8.5-1-1.4-.2-.4-1.7-2.3-.8-1.3L6 76.5q-2.9-5.3-3.6-11v-3.2m1.5-14.4v-.1m3.2 29.3 3.5 1.9 14.7.3v-.1M7.1 77.1 6 76.5m6.9 10q.8.5 2.3.6l4.9-.2 2.2-.5 1-.2 2-6.7v-.2M12 85.6l.6.6m10.6 0 2-.9q1.5-.9 2-2l.3-.8m-4.3 3.7-.3.9" vector-effect="non-scaling-stroke"/></g><g id="e"><path fill="#000" fill-opacity=".3" d="m19.9 169.6 7.1-1 8.6-1 9.1-.7q12.2-.9 15.4 1.7l3 2.3.5.4 3.2 2.3q4.8 3.5 5 6.8.5 4.1-1.2 6.4l-.3.3q-2.5 2.7-9.7 4.3-7.6 1.5-19.1 5l-8.9 1q-7 .5-14.8-4.2l-1.6-1q.4-.3-4-2.9t-5.1-6q-.7-3.6 0-5.2l.1-.3v-.2q.8-5.1 5.6-6.2l5.3-1.3z"/><path fill="#000" fill-opacity=".3" d="m7.4 161.5 3.8-2.9.7-.7 3.5-3.1q3.9-3.4 18.5-2.2l11 1 10.3 1.3 8.6 1.3 2.1.7 6.3 1.7q5.7 1.5 6.7 8.3l.1.3v.5q1 2.2.1 6.9-.8 4.6-6 8t-5 3.8l-1.8 1.3q-9.5 6.5-17.9 5.8l-10.6-1.3q-13.8-4.7-23-6.8-8.7-2.2-11.6-5.7l-.4-.4q-2-3.1-1.5-8.7.4-4.3 6-9.1"/><path fill="#596237" d="M9.2 167.3q-2.4-7-7.3-13.9l1.6-.9q7 7.7 12 18.1l-1.5 1.8-2.5-5.6zm7.7.4 1.4-8.6 1.4.5q2.7 10.3 3.3 17.5l3.6 1.3q-.4-3 1.9-5.2l4.3 2q-2.3 2.4-.2 5.4l-3 3.7-1.2-2.7-7-.3-2-12.5zm-16 7-.9-4.9 5.3.3 1.8 5.5v.2l2.3-1.4-2.5 2.2z"/><path fill="#3c4125" d="m9.2 167.3 2.3-.5 2.5 5.6 1.5-1.8.5 1 .3.2.6-4.1 2.5 1.2 2 12.4 7 .3 1.2 2.7-.4.3-8.7 2-14.7-3-5-3.5.2-5.2v-.2l5.9 1.9 2.5-2.2 1.4-.7q-.5-3.2-1.6-6.4"/><path fill="#563d18" d="M94.6.5q6.4 0 11.3 2.2-6.5 11.6-8.4 19.7l-5.8-.5q.4-9.2 2.8-21.4"/><path fill="none" stroke="#000" stroke-linecap="round" stroke-linejoin="round" stroke-opacity=".3" stroke-width="1" d="M94.6.5q6.4 0 11.3 2.2-6.5 11.6-8.4 19.7l-5.8-.5q.4-9.2 2.8-21.4"/><path fill="#563d18" d="m82.6 31-5.5 19.7q-3.3-36-13-41.9 1-2.6 4.9-3h.2Q80.4 11.9 82.6 31"/><path fill="none" stroke="#000" stroke-linecap="round" stroke-linejoin="round" stroke-opacity=".3" stroke-width="1" d="M82.6 31Q80.4 11.8 69.4 5.8H69q-3.8.5-5 3 9.8 5.9 13.2 41.9zl.3-1.1zm-5.3 19.8-.2.8-.1.5"/><path fill="#563d18" d="M91.6 32.4q8.5-15.8 21.6-16.8l.1.1q3.8 1.9 4 4.6-11.7 1.3-26.7 31.4z"/><path fill="none" stroke="#000" stroke-linecap="round" stroke-linejoin="round" stroke-opacity=".3" stroke-width="1" d="M91.6 32.4q8.5-15.8 21.6-16.8l.1.1q3.8 1.9 4 4.6-11.7 1.3-26.7 31.4l-.2 1.1m1.2-20.4v-1.1zl-1 19.4"/><path fill="#a8762d" d="m92.1 17.6 5.5-.2 9.1 4.2-.7 3.8-1.4 1.3zm-19.5 4.3 6.8-3.6 7.5-.4L99 27.6l-4.4.7q-2.5 2.9-2.8 4.7z"/><path fill="#bf9131" d="m92.1 17.6 12.5 9.1-3.2 3.1.1-.2h.1l1-2.7-3.5.7-12.2-9.7zM70.6 27.8l.5-5.1 1.5-.7 19.2 11-4.2 1.5-.6-.1-11-1.8-.9-.7z"/><path fill="#503816" d="M101.4 29.8Q80.7 72.6 66.7 109q-15.5 40.1-23 72.6l-2.1 2.3-14.6 3.8 4.5-11.7q6.3-16.2 7.2-16.2t2 .7q-.4-4 12-32.7l8.1-18.8q4.4-10.5 4.4-11.2l-1.7-2q0-.8 7.4-14 7.4-13 7.4-14.8 0-1.2-.9-2.7l-.8-1.3q0-6 5.4-18.2l5-10.4h.6l4.2-1.4q.3-1.8 2.8-4.7l4.5-.7 3.5-.7-1 2.7z"/><path fill="#745620" d="m27 187.7-2 .5L8 186l12.4-17.7 4 1q13.3-16.6 23-43.7l-2.5-.8 6.2-14.1 1 .1 16.1-39 3.2-.3 2.1-8.2-3.7-1.4q4.5-11.1 5.2-30l.8.7L87 34.4l-5 10.4Q76.6 57.1 76.6 63l.8 1.3q.9 1.5.9 2.7 0 1.8-7.4 14.8-7.4 13.2-7.4 14l1.7 2q0 .7-4.4 11.2l-8.1 18.8q-12.4 28.7-12 32.7-1.1-.7-2-.7-1 0-7.2 16.1z"/><path fill="url(#b)" d="M9 185.5h-.2L7.1 181q22.2-29.6 36.7-57.4l6.7-13.7.7-1.5q19.3-42.6 20.3-81v-.1l4.5 4q-.7 18.9-5.2 30l3.8 1.4-2.2 8.2-3.2.3-16.1 39-1-.1-6.2 14.1 2.5.8q-9.7 27.1-23 43.7l-4-1z" transform="translate(-.9 .5)"/><path fill="none" stroke="#000" stroke-linecap="round" stroke-linejoin="round" stroke-opacity=".3" stroke-width="1" d="m104.6 26.7 1.4-1.3.7-3.8-9.2-4.2-5.4.2-5.2.3-7.5.4-6.9 3.6-1.4.8-.5 5.1h0v.1q-1 38.5-20.3 81l-.7 1.6-6.7 13.7Q28.4 152 6.2 181.6m98.4-154.9-3.2 3.1Q80.7 72.6 66.7 109q-15.5 40.1-23 72.6m27-153.7"/><path fill="#596237" fill-opacity=".6" d="M37.4 148.9v1q-.6 1-.6 2.1 0 1.3.9 1.8l2 1.4q2.3-1.3 8.7-4.1l.3 1.3-.7 6h-.7l-.1-4.6q-5.4 2.3-5.6 2.6-.5.7-1.5 3t-1 2.7q0 2 4.4 5.4 1.3-1.1 4.5-2.7-3 12-4.2 20.3l-17.3 3.4-18.7-2.8-1.7-4.2 8.2-11.2 1 3q7.8-6 7.8-6.4l-.4-4.4q-1 .4-2.7 2.2l-.1-.5q2.9-2.9 5-4.1l-1 5.8 2.6-2.5.2-.1q0 .8.5 1.6-1.6.1-3.2 2.3-1.4 1.8-1.4 2.8 0 .6 2.3 4.6 4.4-1.4 5.6-2.5.8-.9 4.4-6.7l2.6-3.7q2-3.1 2-4 0-.7-1.8-2l-1.8-1.4.2-1.9q.3-1.9 1-2.3l-1.9-.9q-.5.8-.1 1.8l-.6.3H34v-1.9l2.3-.7zm-3.6 11.7q-1.2 0-2.1.6l3.4-2.4.3 2.8-.1.8z"/><path fill="#745620" d="M75.8 34q1.8-5-1.9-15.1l12.3 2.7q1.7 7.3.6 14.8z"/><path fill="none" stroke="#000" stroke-linecap="round" stroke-linejoin="round" stroke-opacity=".3" stroke-width="1" d="m86.3 38.3-1.5 7m-9-11.2q1.8-5.1-1.9-15.2l12.3 2.7q1.7 7.3.6 14.8m-11-2.4-.3 2.5M84.3 48v1m-9.1-10.7-.8 2.9"/><path fill="#8d9e47" d="M47.7 162.5q4.6-11.4 11.8-20.2l2 1.1q-4.6 4.8-7.9 10.4l-4.9 9.6-.3-.1zm11.3 10 1.3-7 6-.4zm-31.3 9.8-3.1-3q2.4-4-1.4-7l.1-.1 3-1.4.8.5q2 2.3 2 7 0 1-1.4 3.8zm9.3-7.5.3-.2q-.6-9.3 1-22.8l2-.7.2.6q-2 7-2 18.4 0 6.3.5 6.8z"/><path fill="#596237" d="m61.5 143.4.3.2q-5.5 9-7.4 18.1l-3.4-.6-2.4 7.3-2.2-2.4 1.3-3.6.7.9.3.1q2.8-5.7 5-9.6 3.1-5.6 7.8-10.4m-6.1 27.7 3.4 1.7.2-.5 7.3-7.3h1.2l-.5 6.3-7.7 2.5zm-25.8 12.8-1.8-1.8v-.2q1.4-2.7 1.4-3.8 0-4.7-2-7l-.7-.5 2.5-1.2q3.6 2.8 3.6 6.8l4.5-1.6 2 2q-.4-.4-.4-6.7 0-11.4 1.9-18.4l3.3 10.7-3.3 1.5-.4 16.3-9.6.3z"/><path fill="#3c4125" d="M54.4 161.7q-1 4.2-1 8.4l2 1 3.9 2.8 7.8-2.6-.1.3 1.3 6.8-6.1 4.6-19.8 3.8-12.5-2.5-.4-.5 1-3.5 9.6-.4.4-16.2 3.3-1.5 1.7 5.3.4-.2.5-1.3 2.2 2.4 2.4-7.3z"/><path fill="none" stroke="#000" stroke-linecap="round" stroke-linejoin="round" stroke-opacity=".3" stroke-width="__RESOLUTION__" d="m102.7 20.8 2.2 2.5-.8 1.4m11.2-7.6q-4.7 0-6.7 1.7m-21 8.8 3.2.8 8.6-5-2-2.7-10.9-.9-2.2 1m3.1 3.5 4.5.3 1.7-1.9m3-13.2.7-3.3m-2.8 32.1-1 3.4m4.8-14.1q-2.8 4.8-3.7 9m-12.2.5-.7 3.8m21.7-15.7-1 .7m-.8-24.3q-2.7 6.2-3.1 10M81.8 21q1.6 7.6.8 13.5m-9.3-13.4q-1.2-5-3.5-8.2m8.1 6.6.5 5m-5 39-4-1.3-2.2.7-1.1 7.3 3.8-.5.7-4.1-2-1.4-.3 1.5m.8-13.4.5-2.4-1.2-1m-3.8 49.8-1.8-2.3-5.4 11.2M69.5 50l1-5m-25.8 79.7 4.7.8-7.7 19.1m9.4 2 1.3 1.8M64.8 99l-5.4 12.8 2.5 2.2m-2.5-2.2-.5 1m-6.1-2.9-3 1.1m-29 54.9 3.4-5.2-2.4-1m-11.3 27.4 2.1-1 8.8-13.6 5.4.6-2.3 6.6m-.2-19q3.4-4.8 7-11m-8.6 34.2-1.6 3.8-.4 2.1M45 163.7l10-30.3m-14.5 13.3-1.6 2.5" vector-effect="non-scaling-stroke"/></g><g id="d"><path fill="#000" fill-opacity=".2" d="m39.2 97.1 1.2.4 4 1.1q3.6 1 4.2 5.2v.5q.6 1.4 0 4.3-.4 2.8-3.7 5-3.3 2-3 2.5-.7.3-1.2.8-6 3.9-11.2 3.4l-6.7-.7q-8.6-3-14.3-4.3-5.3-1.2-7.2-3.5l-.2-.2q-1.4-2-1-5.5.3-2.7 3.8-5.7l2.4-1.8.5-.4 2.1-2Q11.3 94 20.4 95l6.9.6 6.5.8z"/><path fill="#7b5e1a" d="m40.5 37 .1.3q.8 2.5-1.9 3.8-.7-2.2-2.1-3.9l.4-.5v.2zl-.7-1.3q-1.2-1.9-3-3.3l-.3.6v.1l.5 3.6v.2zm-1.8 4 1.9-3.7z"/><path fill="#614914" d="m36.6 37.2-5-3.5-2.5-.9 1.1-3.9.6.1q3.8.7 6 3.4l-.3.6h-4.7l-1-4 1 4h4.7v.1l.5 3.6zm-4.8-4.3-.2.8z"/><path fill="none" stroke="#000" stroke-linecap="round" stroke-linejoin="round" stroke-opacity=".2" stroke-width="__RESOLUTION__" d="M40.6 37.3v-.2l-.1-.1-3.5-.1v-.2l-.4.5M30.8 29l1 4h4.7l.4-.6m-.4.6.5 3.6m-5.4-3 .2-.8m8.8 4.4L38.7 41" vector-effect="non-scaling-stroke"/><path fill="none" stroke="#000" stroke-linecap="round" stroke-linejoin="round" stroke-opacity=".3" stroke-width="__RESOLUTION__" d="m40.5 37 .1.3q.8 2.5-1.9 3.8h0q-.7-2.2-2.1-3.9l-5-3.5-2.5-.9 1.1-3.9.6.1q3.8.7 6 3.4 1.8 1.4 3 3.3z" vector-effect="non-scaling-stroke"/><path fill="#1d1505" d="M31.6.5v4q.7 4 0 8.5h-.7l-2.8-4.2h-1.2q-.7-4.2 0-8.3zm-3.5 8.3 3.5-4.3zm3.5-4.3-4.5-4z"/><path fill="#35280b" d="M31.6 13q.5 4.5 0 9.3h-.7l-2.7-4.9H27q-.6-4 0-8.6h1l2.8 4.2-2.7 4.4L31 13z"/><path fill="#47360e" d="M31.6 22.3q.5 3.4 0 8h-.4L27.9 26h-1q-.8-4.3 0-8.7h1.3l2.8 4.9zM27.9 26l3-3.9z"/><path fill="#5f4712" d="M31.6 30.3q.4 3.4 0 7.6H31l-2.7-3.6h-1.4q-.7-3.7 0-8.2h1l3.3 4.1zm-.4 0-2.9 4.1z"/><path fill="#755917" d="M31.6 37.9q.3 4.4-.1 9h-.6l-2.1-4.4h-1.9q-.7-4 0-8.2h1.4L31 38zm-.6 0-2.2 4.6z"/><path fill="#85651b" d="M31.5 47q.7 3.7 0 7.9H31l-3.2-3.5L31 47l-2.1-4.4H27q-.6 4 0 9h1l3-4.6z"/><path fill="#93701e" d="M31.5 54.9q.8 3.2 0 6.8.9 3.4 0 7.2h-.6l-2.8-3.6 2.9-3.6-3.2-3.4h-.9q-1.1-3 0-6.9h1L31 55zm0 6.8H31zm-3.7-3.4L31 55z"/><path fill="#a27b21" d="M31.5 68.9q.8 3.7 0 7.5H27q-.9-1.6 0-4-.8-3.4 0-7.1-.7-3.7 0-7h.8l3.2 3.4-2.9 3.6h-1.2 1.2l2.8 3.6zm-4.6 3.4h.9l3.6 4.1-3.6-4zm.9 0 3.1-3.5z"/><path fill="none" stroke="#000" stroke-linecap="round" stroke-linejoin="round" stroke-opacity=".3" stroke-width="1" d="M31.6.5v4q.7 4 0 8.5.5 4.5 0 9.3.5 3.4 0 8 .4 3.4 0 7.6.3 4.4-.1 9 .7 3.8 0 8 .8 3.2 0 6.8.9 3.4 0 7.2.8 3.7 0 7.5h-.1m-4.4 0q-.9-1.6 0-4-.8-3.4 0-7.1-.7-3.7 0-7-1.2-3 0-6.9-.7-5 0-8.9-.9-4 0-8.2-.9-3.7 0-8.2-.9-4.3 0-8.7-.6-4 0-8.6-.8-4.2 0-8.3h.1"/><path fill="none" stroke="#000" stroke-linecap="round" stroke-linejoin="round" stroke-opacity=".1" stroke-width="__RESOLUTION__" d="m31 13-3-4.2h-1.2m0 8.6h1.3L31 13h.6m-3.4 4.4 2.8 4.9h.6m0-17.8-3.5 4.3m-1-8.3 4.5 4m-3.7 21.6 3.3 4.1h.4m-4.7 4.1h1.4l2.9-4M27.9 26h-1m4 20.8-2.1-4.4h-1.9m1.4-8.2L31 38h.6m-.1 9h-.6l-3 4.5L31 55h.5m-2.7-12.4L31 38m0-15.6L27.9 26m-1 25.3h1m.2 13.9 2.9-3.6-3.2-3.4h-.9m4.5 18.1-3.6-4h-.9m1.2-7.1h-1.2m1.2 0 2.8 3.6h.6m-.5-7.2h.5m-.6 7.2-3.1 3.4M31 55l-3.2 3.4" vector-effect="non-scaling-stroke"/></g><radialGradient id="a" cx="0" cy="0" r="819.2" gradientTransform="matrix(.03 0 0 .03 23.05 -28.9)" gradientUnits="userSpaceOnUse" spreadMethod="pad"><stop offset="0" stop-color="#aaab98"/><stop offset="1" stop-color="#7c7e67"/></radialGradient><radialGradient id="b" cx="0" cy="0" r="819.2" gradientTransform="matrix(.19 0 0 .19 13.5 173.75)" gradientUnits="userSpaceOnUse" spreadMethod="pad"><stop offset="0" stop-color="#91672b"/><stop offset="1" stop-color="#a87935"/></radialGradient><clipPath id="c"><path d="M1 1h74v133H1z"/></clipPath></defs><g clip-path="url(#c)"><g transform="translate(25.55 111.3)"><use xlink:href="#d" width="48.9" height="120.4" transform="translate(.05 -97.85)"/><use xlink:href="#e" width="117.8" height="197.4" transform="translate(-24.55 -110.3)scale(.6265)"/><use xlink:href="#f" width="33.5" height="88.4" transform="translate(11.3 -91)"/><use xlink:href="#g" width="33.9" height="34.2" transform="matrix(-.4505 0 0 .8267 41.75 -36.3)"/><use xlink:href="#h" width="21.4" height="42.7" transform="translate(16 -46.3)"/></g></g></svg>