<svg xmlns="http://www.w3.org/2000/svg" xmlns:xlink="http://www.w3.org/1999/xlink" width="36" height="84" viewBox="0 0 36 84"><defs><clipPath id="a"><path d="M1 1h34v82H1z"/></clipPath><g id="b"><path fill="none" stroke="#4a2500" stroke-linecap="round" stroke-linejoin="round" stroke-width="2" d="M14.5 5.9q-.1 3.6-.8 6.4-.8 3-2 3t-2-3Q9 9.5 8.9 5.9"/><path fill="#402700" d="M23.8 63.6q1.8 1.2 2 2.9l.1.4q0 1.4-1.2 2.6L22.5 71q-1.7.9-3.7 1.3l-4.6.5H14L8.5 72 6 71q-1.3-.6-2-1.4-1.4-1.2-1.4-2.8v-.4q.2-1.7 2.2-3l1.2-.7q1.8-.8 3.9-1.3l1.6-.3h2.7l4.6.3q2 .5 3.7 1.3l.5.3z"/><path fill="#402700" d="M4.3 68Q3.2 67 3 65.8l-.1-.7v-.4q.2-1.7 2-3l1.3-.7q1.8-1 3.9-1.4l2.3-.3 1.8-.1 4.8.5q1.8.4 3.4 1.3l1.3.8.4.3q1.4 1.1 1.5 2.6v.7q-.1 1.1-1 2.2l-.1.1-.1.1-.3.3-1.7 1.1-3.4 1.2-.1-.1-.2.2-3.5.4h-1.1l-4.6-.5-.6-.2h-.2l-2.5-1-1.5-1v-.4z"/><path fill="#666" d="m4.3 68 .4-.2v.5z"/><path fill="#a3ae95" d="m18.7 70.5.2-.2.1.1z"/><path fill="#8e8e6a" d="m24.1 68 .3-.2-.1.2z"/><path fill="none" stroke="#333" stroke-linecap="round" stroke-linejoin="round" stroke-width="1" d="M24.6 67.6q.9-1 1-2.2v-.7q-.1-1.5-1.5-2.7l-.4-.2-1.3-.8q-1.6-.9-3.4-1.2l-4.7-.6H14l-1.7.1-2.3.3Q8 60 6.2 61l-1.3.7q-1.8 1.3-2 3v1.1Q3.3 67 4.4 68l.4.3 1.5.9 2.5 1H9l.6.2 4.6.5h1.1l3.5-.5h.3l3.4-1.2L24 68l.3-.2.1-.1"/><path fill="none" stroke="#000" stroke-linecap="round" stroke-linejoin="round" stroke-width="__RESOLUTION__" d="m4.3 68 .4-.2" vector-effect="non-scaling-stroke"/><path fill="none" stroke="#666" stroke-linecap="round" stroke-linejoin="round" stroke-width="__RESOLUTION__" d="M4.7 67.8v.5M24 68l.1-.1" vector-effect="non-scaling-stroke"/><path fill="#630" d="M15.6 5.6v60h-2v-60z"/><path fill="none" stroke="#402700" stroke-linecap="round" stroke-linejoin="round" stroke-width="1" d="M15.6 5.6v60h-2v-60z"/><path fill="none" stroke="#4a2500" stroke-linecap="round" stroke-linejoin="round" stroke-width="2" d="M13.4 6.9q-.2 3.6-1.8 6.3-1.8 3-4.4 3t-4.4-3Q1.2 10.5 1 6.9m14.5 0q.2 3.6 1.8 6.3 1.8 3 4.4 3t4.4-3q1.6-2.7 1.8-6.3"/><path fill="#690" d="M27.7 4.1q1.8 0 3.6 3.3 1.7 3.1 1.1 7.6t-2.3 9.5q-1.6 4.9-2.4 4-.6-1-1.8-7t-2.5-9.4.6-5.7T27.7 4"/><path fill="none" stroke="#030" stroke-linecap="round" stroke-linejoin="round" stroke-width="1" d="M27.7 4.1q1.8 0 3.6 3.3 1.7 3.1 1.1 7.6t-2.3 9.5q-1.6 4.9-2.4 4-.6-1-1.8-7t-2.5-9.4.6-5.7T27.7 4"/><path fill="#5c8301" d="M30.9 8.3q.7 2 .7 4.8-.2 2.8-1.1 4.8-.8 1.9-2 1.9-1.1-.2-1.8-2.1t-.6-4.8 1-4.8q.8-1.8 2-1.8t1.8 2"/><path fill="#900" d="M26 11.1 25.6 8q-.4-1.4-.6-3.5-.2-2 .9-4.5l1.8 3.9-1 9q-.4 0-.6-1.8"/></g></defs><g clip-path="url(#a)"><use xlink:href="#b" width="33.1" height="82" transform="translate(1 1)"/></g></svg>