<svg xmlns="http://www.w3.org/2000/svg" xmlns:xlink="http://www.w3.org/1999/xlink" width="65" height="84" viewBox="0 0 65 84"><defs><g id="a"><path fill="#d1be72" d="m10.6 2.1 3.5-2 2.1 1.2-3.4 2-1.2-.6zm5.6 1 2.3-1.3.7.4-1.6 1.1-2 7.5.7-6.7-1.2.5-.7-.4zm-14.4 39V40l1-3.5.2 3.3zm2-10.2q1.2-2.7 2-3V30zm1.9-8.2q1.3-4.2 1.8-8.2v2.9zm8.3-14v3.5l-1.9 6.4-1 9.5-1.8 4.5-.2.2V28l2.9-8.4 1.9-9.4zm-1.9 10v-.3zl.1-.4z"/><path fill="#c8a962" d="m10.6 2.1 1 .6 1.2.6-3 14 4.6-13.1.7.4-1 5-.1.6-1.9 9.4-2.9 8.3v5.9l.2-.1-.2.6-1.5 7.9H6L7 37l-1 5.2-2.1.1.7-5 .4-2.2-.1.5L3.7 33l.1-.9.1-.3v.3l2-1.9V29l-1.1-1.4v-.2l.9-3.5 1.8-5.3v-2.9zm-.3 6.2 1.4-5.6zM6.4 27.6l1.8-8.1zm2.8 6.3v.5zM5.7 32 5 35z"/><path fill="#786c45" d="m12.8 3.3 3.4-2v1.8l-1.8 1.1-4.6 13zm6.4-1.2-7.4 43.2-2-1.4-2.2-1.6.1-.2 1.5-7.9.2-.6 1.8-4.6 1-9.5 2-6.4-.1-3.6 1-5 1.2-.5-.7 6.7 2-7.5zm-4.8 21L9.9 44z"/><path fill="#6b5e3f" d="m11.8 45.4-.7 3.4-2.6 1.5-2.7 1.4 1.8-9.2v-.1L10 44zm-9 3.6-1.1.5 3-13.3-.1 1.1-.7 5zm7-5-1.3 6.3z"/><path fill="#b88a41" d="m5.8 51.7-1.6-.8-1.6-.9.2-1 1-6.7 2.2-.1h1.7v.1l-.1.2zm-4.1-2.2-1.5-.8 1.2-5.4.1-.4.4-.7L3 39.7l-.2-3.2.9-3.6 1.2 2.8v.1-.1L5 35l-.4 2.3.2-1.1v-.4.4zm-.3-6.2.5-1.1zm2.9 7.6L6 42.2z"/><path fill="none" stroke="#000" stroke-linecap="round" stroke-linejoin="round" stroke-opacity=".2" stroke-width="__RESOLUTION__" d="M16.2 1.3 14.1.1l-3.5 2m-8 48 .2-1.1-1.1.5h0m0-7.4V40l1.1-3.5m1-4.5q1.2-2.7 2-3l-1-1.4v-.2m-3 14.8-.5 1.1m.4 6.2" vector-effect="non-scaling-stroke"/><path fill="none" stroke="#443615" stroke-linecap="round" stroke-linejoin="round" stroke-opacity=".3" stroke-width="__RESOLUTION__" d="M16.2 1.3v1.8l2.3-1.3.7.4-7.4 43.2-.7 3.4-2.6 1.5-2.7 1.4-1.6-.8-1.6-.9m-1-.5-1.5-.8M17.6 3.3l1.6-1.1m-3 .9-1.8 1.1" vector-effect="non-scaling-stroke"/><path fill="none" stroke="#000" stroke-linecap="round" stroke-linejoin="round" stroke-opacity=".2" stroke-width="__RESOLUTION__" d="m.1 48.7 1.2-5.4.1-.4m1.4-6.4.9-3.6.1-.9m1-4.6.9-3.5m1.8-8.2 3-13.6M5.7 24q1.3-4.2 1.8-8.2v2.9zM15 4.6l1.2-.5-.7 6.7 2-7.5m-3.2.9.7.4-1 5v3.6l-1.9 6.4-1 9.5-1.8 4.5-.2.7-1.5 7.9M9.9 44l4.5-20.8m0-19-4.6 13 3-13.8m1.3 6.2-.1.6-1.9 9.4.1-.4v.4m-.6-16.9-1.4 5.6M5.9 29v1.1l-2 2m4.3-12.6-1.8 8m-1.5 8.1v.2l-.1.4-3.1 13.3m2.9-12.2.4-2.2-.1.5m7.2-16-2.9 8.3v5.9l.2-.1m-.2.6v-.5M5 35.1l.7-3.2m-2.9 4.6.2 3.3-1.2 2.4m4.2 0L7 37m-1 5.2-1.8 8.7m.4-13.6-.7 5L2.8 49m3 2.7 1.8-9.2m.9 7.8L9.9 44" vector-effect="non-scaling-stroke"/></g><g id="c"><path fill="#786c45" d="M45.8 3.3 40 8.9 45.7 1zm-5.2 17.2-.5.9-1.5 2.2-5.8 9.1L26.1 43l-2 3.2-1.2 1.7-.6 1.2v-4.9l4.7-7.4 4.6-4.6L37.2 21l2.2-3.4 5-5.7 1-.3V13l-1.1 1.7-2.4 3.7zM27 36.8"/><path fill="#c8a962" d="M45.7 1.1 40 8.9l5.8-5.6 1.7-1.7 1.7.5-.2.3-9.7 15.2-2.2 3.4-8.4 8.6-1.7 7.2-4.7 7.5-5.2-1.5 12.1-16.6L14.7 42l-1.3-.4 5.3-8 6.6-7.5 8.6-7.6 1.4-3.8-2.6 2.9-5.1 4.8-2.2 3.7-6.7 7.6-7.5 7.3-2.7-.8 1-1.2 2.5-3 14.7-17.3 7.7-6.8 3.8-7 4-4.8 1.1.3zM40 8.9l-5 5.9zm-.5-3.5 3.8-5z"/><path fill="#63563a" d="M49 2.4v4.8l-2.5 3.9-1.2 2v-1.5l-1 .3-5 5.7z"/><path fill="#685220" d="m49 7 .4-.4-.4.6z"/><path fill="#71533e" d="m46.5 11.1 2.9.4-3 3.6 3.3.3 1.5 2.8 1-2.5 9.3 1.1v3.9h-1.7l.5 1.8-1 2.8-.6-2.1v-2.6l-1.2-.2v3.4l-2.3-.1v13.2l-2.2-.2-.1-16.8-6.5-.8v-4l-2.2-.3 1.1-1.7zm-1.2 7.8.4 1.6-1.1 2.9-1.3-4.7zm-8.4 16.5-2.9-.3 3.7-5.5zM21 49.7l-3.9-2-.9-.4.9.3 5.1 1.5.8-1.2 4.9 1.7L29 52v.6q-3.9-1.1-8.2-3M5.5 42l-1.7-1v-1.7l4.6 2.1v1.9zm27-30.1.8-2.5 1.1.2zm27.4 8.8-1.1-.1zm-2.3-.3-4.6-.5zM17 47.8v-.2z"/><path fill="#926f4e" d="M49.4 11.5 62 13.1l-.5 3.7-9.2-1.1.8-2.9-3.4 2.6-3.3-.3zM57.5 37l-2.3-.1V23.7l2.3.1zm-30.7 6.4 1.8.9-.7 1.2h.8l2.2-.1 1.2.6.4.8-1.4.8-.2.1v-.1h.2-4.3l-1.9-1zM34.5 56l3.8 7-1 .5Q35 60 34.7 57.4l-.1-.7zM21.4 71.5l-.9-.4-2-1-.6-.2 4.7-16.5 1 .5 2.4 1.3-1 3.6zm-4.3-21.1 1.3 2.5-1.3.7-.5-2.6zm-13.4 12L2.4 62v-4.3l-1.1 3.6-1.2-.5 4.6-16.2 2.6 1.2 1 .5h-.1zm.8-26.1.8-1 2.6-1.5 3.2 1.6-3.6 2.4zm17.1 24.4 2-6.9zM5 53l2.3-7.2zm-1.6 1.6-.9 3.1zm16.2 11.7-1 3.7zm3-2-2 6.7z"/><path fill="#322910" d="M62 13.1V18l-.5 2.7v-3.9zm-2.7 12.2h-.6v8.9L57.5 37V20.4l1.2.2v4.6-2zm-12.8-6.2-1.1-.2-2-.2-1.5-.2 2.4-3.7 2.2.3zm-1.8 4.3-3.4-.4-.7-2.5 1.3-2 1.5.2zm-4.6-2-.8 5.9-.6 4.7-1.7 3.4.8-5.8.8-6-5.8 9.1-.4 2.2 1.8.2 3.6-5.5 1.5-2.3-1.5 2.3.8-6zM28.6 44.3h.1v1.2h-.8zm3.8 2.5.5 1.9v2.8l-.7.4 1 2-1.7 1.1 2 3.5.7 4.3-1.2-.6-4.9-8.9-1.4-.7-.7 2.5.7-2.5-3.5-1.7-.7 2.5 1 .5 2.4 1.3-1 3.6 2.3-2 1-3.4.8.3v-1.6l1.8-4.4.2-.1zm-17.3.2.5 1-1.9.9-1.3-2.7-2.4-.6-1.5-.5h-.1v-1.7l-3-1.4-.8 2.6 2.6 1.2 1 .5h-.1l.8 3.2.9-3.3 3.3 6 3.4 1.8-2.8-5.1-1.3-2.7 1.5.4.6-2.1-.1 2.3zM2.5 60.8l-1.1.6h-.1l1.1-3.7zM32.3 52l-3.2 1.8zm-22.2-6.3-.2.6zM8.6 45l-.3 1.1z"/><path fill="#755640" d="m26.1 43 .7.4-1.9 3.3-.8-.5-1.2 1.7 5 1.7-1-2h-.1l-1.9-1-.8-.4zm7.3 10.9 1.1 2.1v1.4q.5 2.7 2.9 6l-.9.5-2.2-1.1-.7-4.3-2-3.5zm-5.1-.5-1.5-.7-3.5-1.7-2.4-1.2q4.4 1.8 8.2 2.9v1.1zm-1 3.6-3.8 13.7-.8.4-1.2.5 3.7-12.7zm-11.5-9 1.4 2.5-.5.6.4 2.6-.4.3-2.8-5.1zM9 49.6l-3.4 12-2 1 4.6-16.2zM3.9 39.4l.5-3 3 1.5 2.1 1-1.1 1.4v1.3zm7.1-4 1 .6-2.5 3-2.1-1.1zm25.5 28.4-2.9-5.4zm-13.1 4-.8 3z"/><path fill="#c9af5a" d="M16.3 47.3 15 47l-.6-.2v-4.7l2.6.7v4.8z"/><path fill="#d1be72" d="m26.7 18.7 5.7-6.8 1.9-2.3L38.2 5l-3.8 6.9zm8.5-3.8-1.5 3.8-8.5 7.6 2.3-3.7 5.1-4.8zM14.7 42.1l14.7-16L17 42.9zM27 36.8l1.8-7.2L37 21l-5.5 11z"/><path fill="#ad8669" d="m49.7 15.4 3.3-2.6-.7 2.9-1.1 2.5zM30.9 47.6v.1L29 52.1V52l-1.2-2.4-1-2z"/><path fill="#b88a41" d="m18.6 33.8-5.4 7.9 1.4.4v2.4l-.6 2.1-1.5-.4-2.4-.6-1.5-.5h-.1v-1.7l-.1-1.9v-1.2l2.7.8.9 3 1.3-2.4-1.3 2.4-1-3zm-1.5 9.1 5.1 1.5V49l-5.1-1.5z"/><path fill="none" stroke="#000" stroke-linecap="round" stroke-linejoin="round" stroke-opacity=".2" stroke-width="__RESOLUTION__" d="M45.7 1.1 40 8.9l5.8-5.6zM49 2.4v4.7M38.2 5l-3.8 6.9-7.7 6.7m19-15.3 1.8-1.7M35 14.8l-1.4 3.8-8.5 7.6-6.6 7.6-5.4 7.9-1.2 2.4-1-3 7.6-7.4m-4 8.4 14.7-16L17 42.9zv2.4l-.5 2.1m13-9.8 1.8-7.2L37 21l-5.5 11zm-1.7-10.6 2.2-3.7 5.1-4.8 2.5-2.9 4.9-6M17 47.7v.1M43.3.5l-3.8 4.9M17 42.8v4.8m-2.6-3.1v2.3" vector-effect="non-scaling-stroke"/><path fill="none" stroke="#443615" stroke-linecap="round" stroke-linejoin="round" stroke-opacity=".3" stroke-width="__RESOLUTION__" d="m38.2 5 4-4.9 1.1.3 2.4.7M49 7.2l-2.5 3.9-1.2 2-1.1 1.7-2.4 3.7 1.5.2 2 .2 1.1.2 6.5.8v16.8l2.3.1 2.3.2 1.2-2.8v-9l.5.1 1.1-2.8-.5-1.8h1.7L62 18v-4.9m-16.7 5.8.4 1.6-1.1 2.9-3.4-.4-.7-2.5-.5.9-.8 5.9-.6 4.7-1.7 3.4-2.9-.3-1.6-.2.3-2.1L26.1 43l.7.4 1.8.9h.1m2.2 1.1 1.2.6.4.8.5 1.9v2.8l-.7.4 1 2m1.2 2.1 3.8 7-1 .5m-.8.4-2.2-1.1-1.2-.6-4.9-8.9h0l-1 3.6-3.8 13.7-.8.4-1.2.5-.9-.4-2-1-.6-.2 4.7-16.5.7-2.5-2.4-1.2-3.8-2-.9-.4-1-.3.5 1 1.4 2.5 1.3 2.5-1.3.7m-.1 0-.4.3-3.5-1.7-3.2-6.1-1 3.3-3.3 12-2 1-1.2-.5m-1-.6h-.1L0 60.8l4.6-16.2.8-2.6-1.7-.9v-1.7h0l.6-3h0l.8-1 2.6-1.5 3.2 1.6 1 .5 14.7-17.3 5.7-6.8 1.9-2.3 4-4.6m9.3-3.4 1.7.5M49 7.2v-.1m-4.4 16.3-1.3-4.7m14.2 1.7 1.2.2 1.1.1m-1.1 2.5v2m0-4.6v2.6l.5 2.1m-1.7-4.9V37M53 19.9l4.6.5m4-3.6v3.9m-24.4.4 2.2-3.5L49 2.4M13.3 41.7l1.3.4m2.5.7 5.1 1.5 4.8-7.5m5.7-4 5.8-9.2 1.5-2.2m-2.3 8.2-.9 5.8m2.4-8.1-1.5 2.3.8-6M23 47.9l-.7 1.2-5.2-1.5-.9-.3m6.8.6 1-1.7 2.1-3.2m-2 3.2.8.4 1.9 1h4.3l-.2.1v-.1m0 .1L29 52.1v1.6l3.2-1.8m-5.4-4.2 1 1.9L29 52v.1m-6.8-7.9v4.9m10.3-2.3-1.4.8m10.7-29.1-1.2 2M28.2 53.4l.9.3m-.9-.4-1.4-.7-.7 2.5-1 3.7m1.7-6.2-3.5-1.7m-15.9-13-3-1.5m4 5.1v-1.2h0L9.5 39l-2.1-1.1m1 3.6v3.6h.2l1.5.5 2.4.6 1.5.4m-4.1-.4.2-.6m-1.9.7.4-1.2m-.1-1.7-3-1.4m7 4.2 1.3 2.7 2.8 5m-2.1-7.1.7.2M12 36l-2.5 3m-1.1 1.3 2.7.8" vector-effect="non-scaling-stroke"/><path fill="none" stroke="#755640" stroke-linecap="round" stroke-linejoin="round" stroke-width="__RESOLUTION__" d="m46.5 11.1 2.9.4L62 13.1l-.5 3.7-9.2-1.1.8-2.9-3.4 2.6 1.5 2.8 1-2.5M33.5 53.9l1.1 2.1v1.4q.5 2.7 2.9 6l-.9.5-2.9-5.4-2-3.5zm-1-42 .8-2.5 1.1.2m15.4 5.8-3.3-.3-2.2-.3M23.5 53.9l-2 6.9m-.1 10.8 3.7-12.8m-17.8-13L4.9 53m-2.5 4.7.9-3M18.5 70l1-3.7M3.6 62.5l4.6-16.2m12.3 24.8 2-6.7" vector-effect="non-scaling-stroke"/><path fill="none" stroke="#553c2f" stroke-linecap="round" stroke-linejoin="round" stroke-width="__RESOLUTION__" d="M28.7 44.3v1.2l2.2-.1m-2.2.1h-.8l.8-1.2m-.8 5.3-5-1.7m-.3 23 .8-3M3.9 39.3l4.5 2.3m20.7 11q-3.9-1.1-8.2-3" vector-effect="non-scaling-stroke"/><path fill="none" stroke="#322910" stroke-linecap="round" stroke-linejoin="round" stroke-width="__RESOLUTION__" d="M2.4 62v-1.2l-1 .6m1-.6v-3.1l-1.1 3.6" vector-effect="non-scaling-stroke"/></g><clipPath id="b"><path d="M1 1h63v82H1z"/></clipPath><use xlink:href="#a" id="d" width="19.3" height="51.8"/></defs><g clip-path="url(#b)"><g transform="translate(22.05 61.8)"><use xlink:href="#c" width="62" height="71.7" transform="translate(-21.05 -50.85)"/><use xlink:href="#d" width="19.3" height="51.8" transform="translate(19.2 -60.8)"/></g></g></svg>