<svg xmlns="http://www.w3.org/2000/svg" xmlns:xlink="http://www.w3.org/1999/xlink" width="216" height="109" viewBox="0 0 216 109"><defs><clipPath id="a"><path d="M1 1h214v107H1z"/></clipPath><path id="b" fill="#e4e2d6" d="m-.1-67.2 107 53.4-107 53.5L-107-13.8z" transform="translate(107 67.25)"/><g id="c"><path fill="#cee9e3" d="m159.7 43.3 15-7 13.4 6.7-4.6-.6q-4.2 0-7 1.5-3 1.4-3 3.5 0 2 2.9 3.6l-.6.3q-2.9-1.4-7-1.4t-7 1.4-3 3.6q0 2 3 3.5l-.6.3q-2.9-1.4-7-1.4t-7 1.5-3 3.5 3 3.5v.1l-.6.3q-2.9-1.5-7-1.5l-1.7.1-1-.8v1q-2.5.3-4.4 1.2-3 1.5-3 3.5 0 2.1 3 3.6v.1l-.5.3q-3-1.5-7.1-1.5-4.2 0-7 1.5-3 1.4-3 3.5t3 3.5v.2l-.5.3V81q-3-1.4-7.2-1.4-4.1 0-7 1.4-3 1.5-3 3.6 0 2 3 3.5l.2.1-.6.3h-.1q-3-1.5-7.1-1.5t-7 1.5-3 3.5q0 1.4 1.2 2.4L66.5 84.3l4.9-2.2 7 3.7 5.5-2.6L94 78.5l-6.7-2.2-1.4-.7-.2-.3 6.5-4 8.8 4 6.5-3.1.3.3.1-.2.1.2.2-.3 6.3-4.4 4.9-3.3-9.3-4.2 6.7-4.1-4.1-2.4 6.5-3.4 5.1 2.6-6.4 3.8 7 4 5.5-3.8 5.2-2.5 7.2-3.4 6.6-3zM66 79.4l-4.4 2.5-7.2-3.6 4.9-2.4zm-17.5-9.7L44 67.2l-5.5-3 5.6-3.8 6.6 3 2.6 1.1 1.9 1.7zm-21.8-5.2-5.3-2.6 5.6-3.3 5.4 2.6zm11.6-6.7-5.6-2.5 3.4-2.4 3.7-1.6 4.9 2.7 1.3-1 19.9-9 5.7 3-14.3 6-6.3 3-1.6.6-4.6-2.5zM93 42.4l4.2-1.4 1.2-.9 3.8 2-5 2.4zm13.9 2.1-4-2.1.2-.2 7.2-4.8 4.1 2.1zm8.8-10.6-4.7-2.7.5-.4 8-3.4 2.9 2.2L120 31l2.9-1.2 3.3 2.6L123 34l-3.2 2zm-14-.9-7.1 4-5.7-3.2 8.7-4 14.8-6.8 3.9 2 .5.4-8.2 4.3zm-15.9-1-7.5 3-5.4-2.7L95 21.4l5.8 3.5-4.1 2.4-2 .8zM70 38.3l-8.7 3.6-3.9-2.3 8.3-4zm55.4-26.6 19.1 9.6-7 2.8-1.7-1.4L128 19l-3.5-1.6-5.7-2.7zM154 26l6.3 3.1-4.5 2.3 8.8 4.6-6 2-8.7-3.4.5-.4-5.7-4.5zm-8.7 10 .7.6-8 4-5.8 3.1-6.8 3.5-6.1-4.4 5.9-3.7 5.5-3.3 1.1-.7 7.3-3zm-57 13 5.8 2.8L87 55l-6.3 2.9-4.5-3 5.5-2.7h.5V52zm15.4 15.2-5.5 3.5-6.4-3.1 5.2-2.7zm-42.3-1.4 7.8-4.1 11.5 6.1-7.2 3.9-1-.5 6.7 3.6-7.9 4.6-3.6-2-2.4-1.6-5.5-3.6 6.8-3.9z"/><path fill="#8ec1ce" d="M176.4 51q2.4 1.1 5.7 1.4l.6.6 1-.6q4 0 6.9-1.4 2.9-1.5 2.9-3.6 0-1.2-1-2.3l11.9 6-18.2 9.1q-4.3 1.5-14 1.8l9.4.5-8.7 4.5-4.5.8q-4.2.7-5.3 4.1l-18.6 9.4 1.7-3-7.8 5.8-8.6 4.3-4.8-.7 1.2 2.5-9.7 4.8-3-.9q1.4 1-.5 2.7l-10.8 5.4-11.4-5.7 4.8.6q4.2 0 7.1-1.4 2.9-1.5 2.9-3.6 0-2-2.8-3.5l.6-.3q2.6 1.3 6.1 1.4l-.2.8 1.9-.8q3.5-.2 6.1-1.5 3-1.5 3-3.5 0-2.1-2.9-3.5l.5-.3h.1q2.8 1.3 6.9 1.3l3.1-.2-.3.6 2.5.3.7-1.7 1.1-.5q2.9-1.4 2.9-3.5t-2.9-3.5l.6-.3q2.9 1.3 7 1.3t7-1.4 3-3.5-3-3.6l.6-.3q2.8 1.3 6.7 1.4l.7 1.6.5-1.6q3.6-.1 6.2-1.5 2.9-1.4 2.9-3.5t-2.9-3.5v-.1l.5-.3q2.9 1.5 7 1.5l4-.4 2 .8.6-1 1.7-.1-.1-1.4q1.8-1.3 1.8-3 0-2-2.9-3.5h-.1zM33.2 67.7l-6.4-3.2 5.7-3.3 5.4 2.5.6.5zm91.5-50.4 3.5 1.6-6 3.4-4.2-2zm8 10.3 2 1.3-8.2 3.6-3.3-2.6 8-3.2zM114 12.1l4.9 2.4-6.2 3.2-5.2-2.5zM94 51.8l6 2.9-7.2 3.8L87 55zm-1.9 19.5-6.5 4-.2.1-6.3-3.6 6.3-3.5zm-6.3 4.3 1.3.7 6.8 2.2-10 4.7-6.8-3.7 6.1-2.7zm-4.2-23.4-5.5 2.6-4.2-2.7 5-2.4zM64 56l3 1.3 2.2 1.4-7.9 4.3-5.1-2.6z"/><path fill="#a5d1d5" d="m71.4 82.1 5.8-2.5 6.8 3.6-5.5 2.5zM88.3 40l4.8 2.4-9.3 4.3-1-.5-3.7-2.3zm22.1-2.5 5.4-3.5 4 2.1-5.3 3.5zm-21.6-3.7-3.1-1.9 9-3.7 2.8 1.6zm-37.8 9 4.1 1.9-8.7 3.8-3.7-1.6zm87.2-2.4 3.6 2.5-5.8 3.3-3.7-2.6zM134.6 29l6-2.6 4.2 3.3L139 32zM100 54.7l6.8-4.2 5.8 3.3-14.9 7.7-5-3z"/><path fill="#c6deac" d="m77.2 79.6-5.9-3.2 7.9-4.6 6.3 3.6-2.2 1.3zM59.4 76l-10.8-6.2 6.5-3.5 4.6 3 5.6 3.6-.1.2zM32.5 61.2l5.9-3.5 5.8 2.7-5.7 3.8-.6-.5zm64.8-16.7 5.4 2.9 4.3-2.9 5.2 2.6-5.4 3.4-6.7 4.2-6-2.9-5.8-2.8-4.5-2.3 9.3-4.3zm13.8-13.3-5.4 3.8-3.9-2 6.7-3.4zm9.3-22 5.1 2.6-6.6 2.9-5-2.4zM137.6 24l3 2.4-6 2.6-2.1-1.4-1.3-1-4.6-2.2-6.1 2.7-3.7-1.9 5.3-3 6-3.3 7.8 3.7zm12.3 10.5-3.7 1.9-1-.4-6-4 5.6-2.4 5.6 4.5zm-23.5-2 4.4 3.2-5.5 3.3-5.5-3 3.2-2zm-.9 14.7 6.8-3.6 3.7 2.7-6.5 3.8zm-23-29.2 5.4 2.8-7 4.2-5.8-3.4zm10 5-4.5-2.2 4.9-2.9 6.2-3.2 5.6 2.7-6.6 3zm-4.7 49.3-6.5 3-8.8-3.9 6-3.6zm-50.1-19 14-6.3 5.3 2.8-5 2.3-6.7 3-1.3.8zm-13.2 7.2 5.5-3.7 6.4 3.6-5.4 3z"/><path fill="#b8d18c" d="m71.3 76.4-5.2 3-6.7-3.5 5.8-2.9 2.5 1.3zM44 67.2l-5.6 3.1-5.2-2.6 5.3-3.5zm22-23 16-7.4 6.3 3.2-9.2 3.9-7.4 3.1zM78.2 35l-8.1 3.4-4.2-2.7-8.4 4-6.6 3.3-8.4 4-25.8 12.6L0 51 102.2 0l18.2 9.1-6.5 3.1-6.4 3.2-5.2 2.5-7.3 3.6-22.2 10.7zm62.4-8.5 7.7-3.3L154 26l-9.2 3.8zm-4.7 19.9 6.9 4.9-7.2 3.3-6.2-4.4zm13.5 1.8-7-4.6 10.5-3.6 6.8 3.4zm-27.4-26-5.3 2.9-.6-.3-4-2 5.7-2.6zm-2.7 20.5 6.1 4.4-6.2 3.1-7-3.1zm-4.8 25.1-6.3 4.4h-.7l-9.3-4.5 5.5-3.5zM87 55l5.8 3.5-6.4 3.4-5.7-4zm-36 .9 6.4-2.7 6.6 2.7-7.9 4.4-6.4-3.6zm10.4 7 5.1 2.5-6.7 3.9-4.6-3z"/><path fill="#9e966b" d="m72.8 58.7-.7-.3h.3z"/><path fill="none" stroke="#7cbccd" stroke-linecap="round" stroke-linejoin="round" stroke-width="__RESOLUTION__" d="m181.6 62.6-8.7 4.4m-9.8 4.9-18.6 9.4m-6.2 2.8-8.5 4.3m-3.7 1.8-9.6 4.8m-59-55.4L51 42.9l-8.4 4-25.8 12.6M120.4 9l-6.5 3.1-6.4 3.2-5.2 2.5-7.3 3.6-22.2 10.7m-7 3.4-8.2 4" vector-effect="non-scaling-stroke"/></g></defs><g clip-path="url(#a)"><g transform="translate(108.05 68.25)"><use xlink:href="#b" width="213.8" height="106.9" transform="translate(-107 -67.25)"/><use xlink:href="#c" width="204.4" height="102.2" transform="translate(-107.05 -67.2)scale(1.0461)"/></g></g></svg>