<svg xmlns="http://www.w3.org/2000/svg" xmlns:xlink="http://www.w3.org/1999/xlink" width="56" height="51" viewBox="0 0 56 51"><defs><g id="i"><path fill="#565c72" d="M0 3.9V0l2.6 1.4v.3q.8.9 2 .8l22 11.4v3.5l-.2.2-6.5-3.3q-1.1-1.4-2.8-1.6l-.1.1v.1l-5.5-2.7L10 8.7Q8.4 6.9 6.3 7.3l-.1.2L1.4 5 .6 4H.3z"/><path fill="#272d32" d="M26.7 17.5v5.4h-.2L0 9.5V3.9h.3l.3.1q.5.4.8 1l4.8 2.5.1-.2q2.1-.5 3.7 1.4l1.5 1.5 5.5 2.7v-.1q1.8.1 2.9 1.5l6.5 3.3z"/></g><g id="h"><path fill="#565c72" d="m26.7 3.6-.2.1v.1l-6.7 3.6-.4-.5h-.1q-2 .7-3.7 2l-1.3 1-.4.5-3.5 1.8-1.6.7q-1.3.5-2.5 1.2h-.7l-1 .8-.1.5L0 17.7V14l9.3-4.9.4.1h.3l1.1-1L26.8 0z"/><path fill="#26262f" d="m0 17.7 4.5-2.3.1-.6 1-.7h.7q1.2-.7 2.5-1.2l1.6-.7 3.5-1.8.4-.5 1.3-1q1.7-1.3 3.7-2h.1l.4.4 6.7-3.5.1-.2v7L0 24.7z"/></g><g id="g"><path fill="#000" d="M0 1.1 2.4 0l2 1.2-2.2 1v.1z"/><path fill="#50556a" d="M4.5 1.2v12.4l-1.2.5-.1.1-1 .4V2.3z"/><path fill="#8d97a0" d="M2.3 14.6 0 13.3V1l2.3 1.2z"/><path fill="none" stroke="#000" stroke-linecap="round" stroke-linejoin="round" stroke-width="__RESOLUTION__" d="M0 1.1 2.4 0l2 1.2" vector-effect="non-scaling-stroke"/></g><g id="f"><path fill="#b2b2b2" d="M4.1 2 4 1.7v-.1q.7-.4 1.3 0l.1 1.3-.2.2q.4 2.2-1.8 2.5 1.8-1.3 1-3.3zm-1.5-.9q.3-.1.6.2-.5 1-1.3.3l.1-.1q.3-.5.8-.5z"/><path fill="url(#a)" d="m.8-1.3.3.3q.8 2-1 3.3Q2.4 1.9 2-.4v-1.4q-.6-.3-1.2 0l-.2.1q0 .3.2.4m-4 2-.1-.7q0-1.3 1-2.3t2.3-1 2.4 1 1 2.3-1 2.4l-.1.1v-.3L2.2 2h-.1v.1l-.1.1v.2l-.4.1-.1.1-.1.1-2.9-.7-.1-.5-.3-.2h-.5Q-2.5.7-3 .5zm2.5-3 .2-.1q-.5.1-.8.5v.2Q-.7-1-.2-2q-.2-.4-.6-.2M-2.5-.4v.1l1 .2q.1-.5-.3-.9h-.1l-.1-.2z" transform="translate(3.3 3.35)"/><path fill="#163030" d="M5.6 5.9h-.2l-.2.3-.4.1-1 .4h-.5Q2 6.7 1 5.7L.3 5 0 4.1l.3-.2q.5.1.6.8h.4l.4.1.1.5 2.9.8.1-.1.1-.2h.4v-.3h.1v-.1h.1v.5"/><path fill="#234d4f" d="m.8 3 .5-.8v.1h.2q.4.4.3 1z"/></g><g id="d"><path fill="#565c72" d="M0 17.5v-3.6L22 2.5q1.2.1 2-.8l.1-.1-.1-.2L26.6 0v3.9h-.2L26 4q-.5.4-.7 1l-4.9 2.5v-.2q-2.2-.5-3.7 1.4l-1.5 1.5-5.5 2.7v-.1h-.1q-1.7.1-2.8 1.5L.3 17.7z"/><path fill="#272d32" d="M26.7 3.9v5.6L.1 23H0l-.1-.1v-5.4l.3.1 6.5-3.3q1.1-1.4 2.8-1.6v.2l5.6-2.7 1.4-1.5q1.6-1.8 3.7-1.4l.1.2L25.4 5q.2-.6.7-1h.4z"/></g><radialGradient id="a" cx="0" cy="0" r="819.2" gradientTransform="matrix(.01 0 0 .01 -1.75 1.8)" gradientUnits="userSpaceOnUse" spreadMethod="pad"><stop offset="0" stop-color="#14143f"/><stop offset=".7" stop-color="#5e7fa7"/><stop offset="1" stop-color="#7da5af"/></radialGradient><radialGradient id="b" cx="0" cy="0" r="819.2" gradientTransform="matrix(.01 0 0 .01 1.55 8.7)" gradientUnits="userSpaceOnUse" spreadMethod="pad"><stop offset="0" stop-color="#000"/><stop offset=".8" stop-color="#373d48" stop-opacity="0"/></radialGradient><clipPath id="c"><path d="M1 1h54v49H1z"/></clipPath><path id="e" fill="url(#b)" d="m5.4 9.7.3 2.9-3.6.4-3.2-3.7.7-3.3 3 .9z" transform="translate(1.15 -6)"/></defs><g clip-path="url(#c)"><g transform="translate(27.85 30.45)"><use xlink:href="#d" width="26.6" height="22.9" transform="translate(-.4 -3.5)"/><use xlink:href="#e" width="6.8" height="7" transform="translate(2.75 6.4)"/><use xlink:href="#f" width="6.7" height="6.7" transform="matrix(0 .9381 -.9381 0 8.35 3.7)"/><use xlink:href="#g" width="4.5" height="14.6" transform="translate(3.05 -7.4)"/><use xlink:href="#f" width="6.7" height="6.7" transform="rotate(90 9.4 -.9)scale(.9381)"/><use xlink:href="#e" width="6.8" height="7" transform="translate(16.15 -.25)"/><use xlink:href="#f" width="6.7" height="6.7" transform="rotate(90 12.35 9.4)scale(.9381)"/><use xlink:href="#g" width="4.5" height="14.6" transform="translate(16.45 -14.05)"/><use xlink:href="#f" width="6.7" height="6.7" transform="rotate(90 19.425 2.475)scale(.9381)"/><use xlink:href="#h" width="26.6" height="24.6" transform="translate(-.3 -29.45)"/><use xlink:href="#i" width="26.6" height="22.9" transform="translate(-26.75 -3.5)"/><use xlink:href="#e" width="6.8" height="7" transform="matrix(-1 0 0 1 -3.25 6.4)"/><use xlink:href="#f" width="6.7" height="6.7" transform="matrix(0 .9381 .9381 0 -8.85 3.7)"/><use xlink:href="#g" width="4.5" height="14.6" transform="matrix(-1 0 0 1 -3.55 -7.4)"/><use xlink:href="#f" width="6.7" height="6.7" transform="matrix(0 .9381 .9381 0 -9 -10.3)"/><use xlink:href="#e" width="6.8" height="7" transform="matrix(-1 0 0 1 -16.65 -.25)"/><use xlink:href="#f" width="6.7" height="6.7" transform="matrix(0 .9381 .9381 0 -22.25 -2.95)"/><use xlink:href="#g" width="4.5" height="14.6" transform="matrix(-1 0 0 1 -16.95 -14.05)"/><use xlink:href="#f" width="6.7" height="6.7" transform="matrix(0 .9381 .9381 0 -22.4 -16.95)"/><use xlink:href="#h" width="26.6" height="24.6" transform="matrix(-1 0 0 1 -.2 -29.45)"/></g></g></svg>