<svg xmlns="http://www.w3.org/2000/svg" xmlns:xlink="http://www.w3.org/1999/xlink" width="34" height="61" viewBox="0 0 34 61"><defs><g id="a"><path fill="#5f533f" d="m40.4 3.9-1.5 1.5-.4.3-.8.4-3 2-.7.4q-2.2 1-4.6 1l-.5-.2q-1.1-1-2.3-1.6v-.2H26q-1-.2-1-1.5l1.1-.3q1-.2 1.5-.7-.2-.2-.5-.2-1.5 0-1.6-1.3 0-1.1 1.1-1.2h.5q2-.2 2-1.9l-2-.4 7.5.3h.5l3.1.1 1.2 2 .5.8z"/><path fill="#362f26" d="M26.6 7.8q1.1.5 2.3 1.5l.6.2q2.3 0 4.5-1l.6-.4 3.1-2 .8-.4.4-.3 1.5-1.5q.4 1 .3 2.6-.1 2.7-1.7 3.8l-.9.3-1 .4q-2 .8-4.5.6l-1.6-.3-1.9-.5h-.5l-2.2-.4q-1-.6-1.3-1.9h.4q.8-.2 1-.7"/><path fill="#73624d" d="m27.1 0 2 .4q0 1.7-2 1.9h-.5q-1.2.1-1 1.2 0 1.3 1.5 1.3.3 0 .5.2-.5.5-1.5.7l-1 .3q-.2 1.3 1 1.5h.5v.3q-2.4-1.1-5.2-.8l-1.6.1-.2-.1-.6-.2-2.9.2q-2.3 0-2.3-.5t1.8-1.7L17 3.6l3-1.3 3-1.4 2.5-.7 1-.2z"/><path fill="#574b3c" d="m19.8 7.1 1.6-.1q2.8-.3 5.2.8-.3.5-1 .6l-.6.1q.4 1.3 1.4 1.9l-.9-.2-1.9-.3-1.1-.3-3.1-.6.1-.7q1-.4.3-1.2"/><path fill="#b49349" d="M19.8 7.1q.8.8-.3 1.3l-.1.6-3.3-.2-4-.2-5.6-.8 3-.3 2.5-.2 7.4-.2z"/><path fill="#baab79" d="m17 3.6-1.4 1.2Q13.8 6 13.8 6.5t2.3.5l3-.2.4.2.3.1h-.4l-7.4.2-2.6.2-3 .3-6-.7L0 7q.9-1.2 3-1l1.5-.2.6-.1 7.6-1.8 4.1-.5-1.2.8 1.8-.8-1 .5z"/><path fill="none" stroke="#211d18" stroke-linecap="round" stroke-linejoin="round" stroke-width="__RESOLUTION__" d="m40.4 3.9-.5-.7-.5-.8-1.1-2-3.1-.1h-.6L27.1 0h-.5l-1 .2-2.6.7-2.9 1.4-3 1.3" vector-effect="non-scaling-stroke"/><path fill="none" stroke="#4e4933" stroke-linecap="round" stroke-linejoin="round" stroke-width="__RESOLUTION__" d="m19.4 9 3.1.6 1.1.3 1.9.3.9.2 2.3.4h.4l1.9.5 1.6.3q2.5.3 4.5-.6l1-.4.9-.3q1.6-1.2 1.7-3.8 0-1.5-.4-2.6M6.6 7.8l5.6.8 4 .3 3.3.1m-13-1.2L.4 7H0q.9-1.2 3-1l1.5-.2.6-.1 7.6-1.8 4.1-.5-1.2.8 1.8-.8-1 .5.7-.4" vector-effect="non-scaling-stroke"/></g><g id="b"><path fill="#342b21" d="m35.6 10.8.5-.2.5-.2.6-.2.6-.4.8-.6h.4q1.5 1.6 2.5 3.4.3.5.2 1.2-.2 2.4.3 4.8l.2 1.1q0 1.5-.5 2.7l-1.2 3q-.2.4-.9.5-1.1.2-2.2.7l-.7.1q-1.7.2-3-.4l-1.3-.5q-1.7-.7-3.8-.6l-1.4-.1-3.3-.7.1-.7-.6-.2-3.4-1.4 2.4-.2q2.3.4 3.5-.8l-.5-.4-.8-.6q-.8-.9-2-1.2-.9-.2-1.6-.8l.8-.2 1.1-.2 2.2-.2.8-.1q1.2-.3 1.6-1l-.7-.3-.4-.3h.3l3.5-.2 1.3-.7 1-1.3.9-1 .6-.4q.5-.6 1.2-1z"/><path fill="#6f5f46" d="m35.6 10.8-.4.4q-.7.4-1.2 1l-.6.5-1 .9-1 1.3-1.2.8-3.6.1h-.2q-1.6-1.2-3.5-1.7l.6-.2 4-.7 3.2-.6.6-.1q2.2-.3 4.2-1.7"/><path fill="#635341" d="m26.5 15.8.3.3.7.3q-.4.7-1.6 1H25l-2.2.3-1.1.3H21q.8.7 1.6 1 1.2.2 2 1.1l.8.6.5.4q-1.2 1.1-3.5.8l-2.4.2 3.4 1.4.6.2-.1.7-4.6-1.4-5-1.5-2.4-.8-.7-.3h1.5q1.9.2 3.2-.7-.6-.1-.8-.7l-.3-.4-.5-.6q-1.7-2.2-4-3.4l3.7 1.2 1.4.3 3.2-.2-2.2-1.3q-.3-.3-.8-.4-1.7-.4-2.2-2l.3-.1.9-.2 3.2.8 1.9.8 2.1.8.9.4.8.5q1.4.6 3 .6"/><path fill="#f1dd98" d="m11.3 20.4-.2-.2q-3.9-3.1-7.3-6.5-1.4-1.5-1.6-3.4L2 9.2l-.4-1.6L.3 3.1 0 1.6V0l1 1 .9.7.8.6.3.4.3.3 1.8 1.3L8.4 7l-.3.3q.6.3.8 1 .5 1.3 1.5 1.8 2 1 4.2 1.8l-.8.2h-.4q.5 1.7 2.2 2.1.5.1.8.4l2.2 1.3-3.2.2-1.4-.4-3.7-1.1q2.3 1.2 4 3.5l.5.5.3.3q.3.7.8.8-1.3.9-3.2.7z"/><path fill="#8b755a" d="m8.4 7 .4.3.7.5 2.6 1 2.5.8.5.2.8.3 3 1.8.7.5.5.4q1.3 1 2.8 1.3 1.9.5 3.6 1.7-1.6 0-3-.7l-.8-.3-.9-.5-2.1-.9q-1-.5-1.9-.7l-3.2-.8q-2.2-.7-4.1-1.8-1.1-.5-1.6-1.7-.2-.8-.8-1z"/><path fill="none" stroke="#565134" stroke-linecap="round" stroke-linejoin="round" stroke-width="__RESOLUTION__" d="m23.9 24.4 3.3.7 1.4.1q2 0 3.8.6l1.3.5q1.3.6 3 .4l.7-.1q1-.5 2.2-.7.7-.1.9-.5l1.3-3q.5-1.2.4-2.7l-.2-1.1q-.5-2.4-.3-4.9 0-.6-.2-1.1-1-1.8-2.5-3.4h-.5l-.6.6-.6.3-.7.3-.5.3-.6.1q-2 1.3-4.2 1.7l-.6.1-3.2.7-4 .6-.6.2q-1.5-.3-2.8-1.2l-.5-.5-.7-.5-3-1.8-.8-.3-.5-.2L12 9 9.5 7.7l-.7-.4-.4-.3-3.3-2.7L3.3 3 3 2.7l-.4-.4-.7-.6L1 1 0 0v1.7l.3 1.5 1.3 4.4.4 1.6.2 1q.1 2 1.6 3.5 3.4 3.4 7.3 6.5l.2.2.6.3 2.4.8 5 1.4z" vector-effect="non-scaling-stroke"/></g><g id="c"><path fill="#6f5f46" d="m40.4 3.9-1.5 1.5-.4.3-.8.4-3 2-.7.4q-2.2 1-4.6 1l-.5-.2q-1.1-1-2.3-1.6v-.2H26q-1-.2-1-1.5l1.1-.3q1-.2 1.5-.7-.2-.2-.5-.2-1.5 0-1.6-1.3 0-1.1 1.1-1.2h.5q2-.2 2-1.9l-2-.4 7.5.3h.5l3.1.1 1.2 2 .5.8z"/><path fill="#342b21" d="M26.6 7.8q1.1.5 2.3 1.5l.6.2q2.3 0 4.5-1l.6-.4 3.1-2 .8-.4.4-.3 1.5-1.5q.4 1 .3 2.6-.1 2.7-1.7 3.8l-.9.3-1 .4q-2 .8-4.5.6l-1.6-.3-1.9-.5h-.5l-2.2-.4q-1-.6-1.3-1.9h.4q.8-.2 1-.7"/><path fill="#8b755a" d="m27.1 0 2 .4q0 1.7-2 1.9h-.5q-1.2.1-1 1.2 0 1.3 1.5 1.3.3 0 .5.2-.5.5-1.5.7l-1 .3q-.2 1.3 1 1.5h.5v.3q-2.4-1.1-5.2-.8l-1.6.1-.2-.1-.6-.2-2.9.2q-2.3 0-2.3-.5t1.8-1.7L17 3.6l3-1.3 3-1.4 2.5-.7 1-.2z"/><path fill="#635341" d="m19.8 7.1 1.6-.1q2.8-.3 5.2.8-.3.5-1 .6l-.6.1q.4 1.3 1.4 1.9l-.9-.2-1.9-.3-1.1-.3-3.1-.6.1-.7q1-.4.3-1.2"/><path fill="#e8ba53" d="M19.8 7.1q.8.8-.3 1.3l-.1.6-3.3-.2-4-.2-5.6-.8 3-.3 2.5-.2 7.4-.2z"/><path fill="#f1dd98" d="m17 3.6-1.4 1.2Q13.8 6 13.8 6.5t2.3.5l3-.2.4.2.3.1h-.4l-7.4.2-2.6.2-3 .3-6-.7L0 7q.9-1.2 3-1l1.5-.2.6-.1 7.6-1.8 4.1-.5-1.2.8 1.8-.8-1 .5z"/><path fill="none" stroke="#16120e" stroke-linecap="round" stroke-linejoin="round" stroke-width="__RESOLUTION__" d="m40.4 3.9-.5-.7-.5-.8-1.1-2-3.1-.1h-.6L27.1 0h-.5l-1 .2-2.6.7-2.9 1.4-3 1.3" vector-effect="non-scaling-stroke"/><path fill="none" stroke="#565134" stroke-linecap="round" stroke-linejoin="round" stroke-width="__RESOLUTION__" d="m19.4 9 3.1.6 1.1.3 1.9.3.9.2 2.3.4h.4l1.9.5 1.6.3q2.5.3 4.5-.6l1-.4.9-.3q1.6-1.2 1.7-3.8 0-1.5-.4-2.6M6.6 7.8l5.6.8 4 .3 3.3.1m-13-1.2L.4 7H0q.9-1.2 3-1l1.5-.2.6-.1 7.6-1.8 4.1-.5-1.2.8 1.8-.8-1 .5.7-.4" vector-effect="non-scaling-stroke"/></g><g id="d"><path fill="#38332a" d="m35.6 10.8.5-.2.5-.2.6-.2.6-.4.8-.6h.4q1.5 1.6 2.5 3.4.3.5.2 1.2-.2 2.4.3 4.8l.2 1.1q0 1.5-.5 2.7l-1.2 3q-.2.4-.9.5-1.1.2-2.2.7l-.7.1q-1.7.2-3-.4l-1.3-.5q-1.7-.7-3.8-.6l-1.4-.1-3.3-.7.1-.7-.6-.2-3.4-1.4 2.4-.2q2.3.4 3.5-.8l-.5-.4-.8-.6q-.8-.9-2-1.2-.9-.2-1.6-.8l.8-.2 1.1-.2 2.2-.2.8-.1q1.2-.3 1.6-1l-.7-.3-.4-.3h.3l3.5-.2 1.3-.7 1-1.3.9-1 .6-.4q.5-.6 1.2-1z"/><path fill="#504738" d="m35.6 10.8-.4.4q-.7.4-1.2 1l-.6.5-1 .9-1 1.3-1.2.8-3.6.1h-.2q-1.6-1.2-3.5-1.7l.6-.2 4-.7 3.2-.6.6-.1q2.2-.3 4.2-1.7"/><path fill="#4b4336" d="m26.5 15.8.3.3.7.3q-.4.7-1.6 1H25l-2.2.3-1.1.3H21q.8.7 1.6 1 1.2.2 2 1.1l.8.6.5.4q-1.2 1.1-3.5.8l-2.4.2 3.4 1.4.6.2-.1.7-4.6-1.4-5-1.5-2.4-.8-.7-.3h1.5q1.9.2 3.2-.7-.6-.1-.8-.7l-.3-.4-.5-.6q-1.7-2.2-4-3.4l3.7 1.2 1.4.3 3.2-.2-2.2-1.3q-.3-.3-.8-.4-1.7-.4-2.2-2l.3-.1.9-.2 3.2.8 1.9.8 2.1.8.9.4.8.5q1.4.6 3 .6"/><path fill="#847a59" d="m11.3 20.4-.2-.2q-3.9-3.1-7.3-6.5-1.4-1.5-1.6-3.4L2 9.2l-.4-1.6L.3 3.1 0 1.6V0l1 1 .9.7.8.6.3.4.3.3 1.8 1.3L8.4 7l-.3.3q.6.3.8 1 .5 1.3 1.5 1.8 2 1 4.2 1.8l-.8.2h-.4q.5 1.7 2.2 2.1.5.1.8.4l2.2 1.3-3.2.2-1.4-.4-3.7-1.1q2.3 1.2 4 3.5l.5.5.3.3q.3.7.8.8-1.3.9-3.2.7z"/><path fill="#5b5040" d="m8.4 7 .4.3.7.5 2.6 1 2.5.8.5.2.8.3 3 1.8.7.5.5.4q1.3 1 2.8 1.3 1.9.5 3.6 1.7-1.6 0-3-.7l-.8-.3-.9-.5-2.1-.9q-1-.5-1.9-.7l-3.2-.8q-2.2-.7-4.1-1.8-1.1-.5-1.6-1.7-.2-.8-.8-1z"/><path fill="none" stroke="#464231" stroke-linecap="round" stroke-linejoin="round" stroke-width="__RESOLUTION__" d="m23.9 24.4 3.3.7 1.4.1q2 0 3.8.6l1.3.5q1.3.6 3 .4l.7-.1q1-.5 2.2-.7.7-.1.9-.5l1.3-3q.5-1.2.4-2.7l-.2-1.1q-.5-2.4-.3-4.9 0-.6-.2-1.1-1-1.8-2.5-3.4h-.5l-.6.6-.6.3-.7.3-.5.3-.6.1q-2 1.3-4.2 1.7l-.6.1-3.2.7-4 .6-.6.2q-1.5-.3-2.8-1.2l-.5-.5-.7-.5-3-1.8-.8-.3-.5-.2L12 9 9.5 7.7l-.7-.4-.4-.3-3.3-2.7L3.3 3 3 2.7l-.4-.4-.7-.6L1 1 0 0v1.7l.3 1.5 1.3 4.4.4 1.6.2 1q.1 2 1.6 3.5 3.4 3.4 7.3 6.5l.2.2.6.3 2.4.8 5 1.4z" vector-effect="non-scaling-stroke"/></g><g id="e"><path fill="#453a30" d="m40.4 3.9-1.5 1.5-.4.3-.8.4-3 2-.7.4q-2.2 1-4.6 1l-.5-.2q-1.1-1-2.3-1.6v-.2H26q-1-.2-1-1.5l1.1-.3q1-.2 1.5-.7-.2-.2-.5-.2-1.5 0-1.6-1.3 0-1.1 1.1-1.2h.5q2-.2 2-1.9l-2-.4 7.5.3h.5l3.1.1 1.2 2 .5.8z"/><path fill="#372e27" d="M26.6 7.8q1.1.5 2.3 1.5l.6.2q2.3 0 4.5-1l.6-.4 3.1-2 .8-.4.4-.3 1.5-1.5q.4 1 .3 2.6-.1 2.7-1.7 3.8l-.9.3-1 .4q-2 .8-4.5.6l-1.6-.3-1.9-.5h-.5l-2.2-.4q-1-.6-1.3-1.9h.4q.8-.2 1-.7"/><path fill="#4c3f34" d="m27.1 0 2 .4q0 1.7-2 1.9h-.5q-1.2.1-1 1.2 0 1.3 1.5 1.3.3 0 .5.2-.5.5-1.5.7l-1 .3q-.2 1.3 1 1.5h.5v.3q-2.4-1.1-5.2-.8l-1.6.1-.2-.1-.6-.2-2.9.2q-2.3 0-2.3-.5t1.8-1.7L17 3.6l3-1.3 3-1.4 2.5-.7 1-.2z"/><path fill="#42382e" d="m19.8 7.1 1.6-.1q2.8-.3 5.2.8-.3.5-1 .6l-.6.1q.4 1.3 1.4 1.9l-.9-.2-1.9-.3-1.1-.3-3.1-.6.1-.7q1-.4.3-1.2"/><path fill="#614f33" d="M19.8 7.1q.8.8-.3 1.3l-.1.6-3.3-.2-4-.2-5.6-.8 3-.3 2.5-.2 7.4-.2z"/><path fill="#635743" d="m17 3.6-1.4 1.2Q13.8 6 13.8 6.5t2.3.5l3-.2.4.2.3.1h-.4l-7.4.2-2.6.2-3 .3-6-.7L0 7q.9-1.2 3-1l1.5-.2.6-.1 7.6-1.8 4.1-.5-1.2.8 1.8-.8-1 .5z"/><path fill="none" stroke="#312923" stroke-linecap="round" stroke-linejoin="round" stroke-width="__RESOLUTION__" d="m40.4 3.9-.5-.7-.5-.8-1.1-2-3.1-.1h-.6L27.1 0h-.5l-1 .2-2.6.7-2.9 1.4-3 1.3" vector-effect="non-scaling-stroke"/><path fill="none" stroke="#3f372b" stroke-linecap="round" stroke-linejoin="round" stroke-width="__RESOLUTION__" d="m19.4 9 3.1.6 1.1.3 1.9.3.9.2 2.3.4h.4l1.9.5 1.6.3q2.5.3 4.5-.6l1-.4.9-.3q1.6-1.2 1.7-3.8 0-1.5-.4-2.6M6.6 7.8l5.6.8 4 .3 3.3.1m-13-1.2L.4 7H0q.9-1.2 3-1l1.5-.2.6-.1 7.6-1.8 4.1-.5-1.2.8 1.8-.8-1 .5.7-.4" vector-effect="non-scaling-stroke"/></g><g id="i"><path fill="#3a3025" d="M10.5 1.3H10l-.5.8.8-1.7V.1h.1q.5 1.3.4 2.7v4.6l1-3.4-.3 10.7-.5-2.4q-.7 2.6-.3 5.3.8 6-2.2 11.1L9 21q.6-10 1.4-19.6M8.9 52.2 9 52q1.2-5 .8-10.1v-1.7h.4l.5 1.4.3 1.4.2 1v.5h.8v-3.8l.3-.1 1 2.1q-.6-11.1 1.5-22l-.3-.4-2.2 6.7.2-4q2.3-5.8 2.4-12.3l.2-6.3.1-1.3 1.1 1.8-.4 5.7-1 .1 1 .1-.7 18.8q-.2 4.4.2 8.9.2 2.4.1 5v2.3q0 3.1-.4 6.3l-.6.8-.3-.1q-2.4-.8-5.1-.6zM2.6 3.9v-.7l.5-.6zv3.9h.1l.7-5.5-.2.3zm1.1-1.8.1-.1L5 1.4v3.4l.5-2.5q0 2.6-.6 5.2l-.2.7q-.1-2.7-.9-5.4zm2-.1L6 1l.6-.3v1L7.1.3l1-.4.3 3.9L8 2.6l-.3 4.1-.3-.9q-.2-2.2-1-4zm3.1 2.8L9.3 3 9 7.8zm-1 43.8L7.5 52h-1l.1-2.4.3-8.3zM11 34q0 2.5-1 4.9h-.2l.2-7q1 .6 1 2M3.8 2l-.2.1zm-.3 49.9-.5-.2q-.1-3.8.6-7.4l.3 2.7q0 1 .5 1.9l.4.7v1.8z"/><path fill="#574939" d="M10.1 1.3h.3Q9.6 10.9 9 20.9l-.4 7.9q3-5.2 2.2-11.2-.5-2.7.3-5.3l.5 2.4.3-10.7L13.1.9l2 2.2-.1 1.3-.2 6.3q0 6.5-2.4 12.3l-.2 4 2.2-6.7.3.4q-2.1 10.9-1.6 22l-.9-2.1h-.3v4l-.8-.1V44l-.2-1-.3-1.4-.5-1.4h-.4v1.6Q10.1 47 9 52l-.2.2H7.6l.1-3.6Q9.3 39.7 8 31l-.2-1-1-.6.1 2v.5l-.2.4-.3.4-.2.2v.8l.2.3.1.4.2.2.5.5.3.2-1.3 1.4.3.7-.7 2.7q-.1-5.2.5-10.3l.3-2.5v1.5l.8-15-.9 2.6-.9-.4v-2.9l-.6-2-.2-.7 1.6-3.3 2.3 2.7.4-2L9.3 3l.3-.9zm5.7 9.3v.2l-1-.1zM11 34q0-1.5-1-2.1l-.2 7h.3q1-2.4.9-5M2.1 52v-.5l.1-.8 1.3-25.1q1 5-.2 10l.3 1.4q.6 6.8 3 12.8l-.2 2.4-1.7-.1v-2.4l-.4-.7q-.5-.9-.5-2l-.3-2.6q-.7 3.6-.6 7.4l.5.2z"/><path fill="#6f5f46" d="m14.5 52.9-.3-.1zm-12.3.7-.5-.4-.2-.5-.1-.2-.5-1-.2-.3-.4-.7v-.1L0 50q.1-7.6 1-15l.5-4.6q.2-2.8 0-5.4-.2-3.6 0-7.1l-.1-4Q1 8.1 2.6 3.9l-.2 3.9h.2l.7-5.5.3-.2-.2.1-.3.2v.2l.2-.3h-.2.2l.1-.1.2-.1.2.7q.8 2.7 1 5.4l.1-.7q.6-2.6.6-5.2l.1-.3.8-.2q.8 1.8 1 4l.3.9.3-4.1.4 1.3-.2 3 .5-2.2.4 3.1-.4 2L6.5 7l-1.7 3.3.2.7q.3 1 .4 2.1l.1 2.9.9.4.9-2.6-.7 15v-1.5l-.3 2.5q-.7 5-.6 10.3l.6-2.7-.2-.7 1.3-1.4-.3-.2-.5-.5-.2-.2-.2-.4v-.4L6 33l.3-.2.3-.4.2-.4v-2.5l1 .6.1 1q1.3 8.6-.3 17.5L7 41.4l-.3 8.3q-2.3-6-3-12.8l-.3-1.4q1.3-5 .2-10l-1.3 25v.9L2 52zM3.4 6.8l-.2 3.7q-.7 7-.4 14l1.8-1.3.1.2.4-.1v-3L4 22.8zM1 35l-.4 8.6q-.2 1.4 0 2.8l.2.9.3.3q.8-9.4.6-18.5l-.1 1.3-.3 2.5z"/><path fill="#393021" d="m14.4 53-.3.5q-.5.7-1.3.9h-.4l-.2.1-2.1.6H8.3l.7-2.9q2.7-.2 5.1.5zm-7.1 2H7l-.3-.1-.4-.1.1-2.7h1zm-2.4-.2h-.2l-.9-.3-.7-.4V52h.3l1.2-.5h.1v.6z"/><path fill="#524939" d="m8.3 55.1-.5-.1h-.5l.3-2.9 1.3.1H9zm-1.9-.3H4.9V52l1.6.1h.1zM3 54.2V54l-.9-.6V52l1-.1z"/><path fill="#8b755a" d="m3.5 6.8.5 16 1.1-2.4v2.9l-.4.1-.2-.2-1.7 1.3q-.2-7 .4-14zm-2 23.6.1-1.3q.1 9.1-.6 18.5l-.3-.3-.2-.9q-.2-1.4 0-2.8L1 35l.3-2.1z"/><path fill="none" stroke="#565134" stroke-linecap="round" stroke-linejoin="round" stroke-width="__RESOLUTION__" d="M10.1 1.3h.3M12 4l-1 3.4V2.8q.1-1.4-.4-2.7h0l-.2.2v.1l-.7 1.7-.3.9-.6 1.8-.4 2V4L8 0l-.9.4-.6 1.2V.7l-.6.3-.3 1v.3L5 4.8V1.4L3.8 2h-.1l-.2.2-.3.2v.2L2.4 4M15 3.2 13 1l-1.1 3m3.2-.9 1.1 1.8-.4 5.7v.2M.2 50.4q-.2-.1-.2-.3m3.6-48 .1-.1m0 .1-.4.1v.1h-.2M1 35l.3-2.1.3-2.5" vector-effect="non-scaling-stroke"/><path fill="none" stroke="#0e0c0a" stroke-linecap="round" stroke-linejoin="round" stroke-width="__RESOLUTION__" d="m15.8 10.8-.7 18.8q-.2 4.4.2 8.9.2 2.4.1 5m-1 9.5-.3.5q-.5.7-1.3.9h-.4l-.2.1-2.1.6H8.2l-.5-.1H7l-.3-.1-.4-.1H4.9h0l-1-.3-.7-.4H3l-.9-.6-.5-.4-.2-.5-.1-.2-.5-1-.2-.3-.4-.7m-.2-.3Q.1 42.4 1 35l.5-4.6q.2-2.8 0-5.4-.2-3.6 0-7.1l-.1-4Q1 8.1 2.6 3.9" vector-effect="non-scaling-stroke"/></g><g id="g"><path fill="#2b2321" fill-opacity=".3" d="m26.4 0 .1.4-1.1-.4zm-2 4.2-3.3.6-.3 1.5-1.2-1q-1.7-.8-3.7.3l-.1-1.9.1-.1q.2.7.8.6l.8-.1.3-.1.8-.1h.3l.4-.1.3-.1h.7l.1-.4zm-15 1.1v.2l-.2-.3zM6.5 1.1l.2-.5.4-.3.3-.3h2.7q.8 1 .3 2.3L9 4.6l-.1.2-1.2-1.3.6.8-.7-.7-3.3-1.7z"/><path fill="#2b2321" fill-opacity=".1" d="m25.4 0 1.1.4-.1-.4h.4l2.7 1.7-3 .3-2.2-2zM16 5.6q2-1.1 3.7-.3v.2Q17.9 7 17.9 8q-2.1-2.1-3-.8-2.8 1.5-4.3 2.7l.2-.6q-.2-1.6-.5-2.6l.3-.5 1.6 1.5zm-6.5-.2-.1-.1-.2-.1Q7.3 3.5.6 3.5v-.1l3.9-1.6v.1l3.2 1.7.7.7-.6-.8L9 4.8l.5.4z"/><path fill="#2b2421" fill-opacity=".7" d="m24.3 0 2.2 2-4.4-.4 2.3 2.6-4-.8-.1.4v-.1h-1l-.4.2h-1.2l-.2.2-.8.1q-.6.1-.7-.6l-.2-.1v.2l.1 1.9-3.7 2.1-1.6-1.5-.2-.2-.9-.8-.5-.5.1-.2 1.3-2.2q.4-1.2-.3-2.3z"/><path fill="#416718" d="m16 3.6-.2.1v-.2z"/><path fill="#442d11" fill-opacity=".3" d="m10.3 6.8-.5.4v-.4q.1-.8-.4-1.4l.1-.2.8.8zM.6 3.6H0l.7-.2zm3.9-1.7 2-.7zM7.1.3V0h.3z"/><path fill="#201d0b" fill-opacity=".3" d="m26.6 2-2.8.3q-.3.2-1.7-.7z"/></g><use xlink:href="#a" id="m" width="40.7" height="11.7"/><use xlink:href="#b" id="l" width="42.2" height="26.8"/><use xlink:href="#c" id="k" width="40.7" height="11.7"/><use xlink:href="#d" id="j" width="42.2" height="26.8"/><use xlink:href="#e" id="h" width="40.7" height="11.7"/><clipPath id="f"><path d="M1 1h32v59H1z"/></clipPath></defs><g clip-path="url(#f)"><g transform="translate(17.05 52.1)"><use xlink:href="#g" width="29.5" height="9.9" transform="translate(-14.85 -2)"/><use xlink:href="#h" width="40.7" height="11.7" transform="matrix(-.255 .0213 .0719 .8597 11.65 -35.75)"/><use xlink:href="#i" width="16.2" height="55.2" transform="translate(-7.35 -51.1)"/><use xlink:href="#j" width="42.2" height="26.8" transform="matrix(-.2422 -.0518 -.0981 .459 15.1 -12.7)"/><use xlink:href="#k" width="40.7" height="11.7" transform="matrix(.3218 .085 -.1293 .4896 -14.2 -37.35)"/><use xlink:href="#l" width="42.2" height="26.8" transform="matrix(.328 -.0652 .0916 .4611 -16.05 -16.9)"/><use xlink:href="#m" width="40.7" height="11.7" transform="matrix(.2518 -.0467 .1575 .8489 -8 -24.8)"/></g></g></svg>