<svg xmlns="http://www.w3.org/2000/svg" xmlns:xlink="http://www.w3.org/1999/xlink" width="120" height="152" viewBox="0 0 120 152"><defs><g id="m"><path fill="#2f2a25" d="m24.3 10.5-.9.3.3 1.3-1.2 2.3H26l.4-.8zm10.3 13.6-1.2 1.7-4 1-2.3-1.6-.2-2.8 3.6.2 2.7-2.5 1.5 2.5zm-4.1-10.7-4.1 2-.1.2-5-.5 1.7-3.8v-.2L22 10l5.8-1.7 2.8 4.2zm1.9 11.7 1.2-.8v-1.4l-1-1-1.4 1.4-3.5.1.3 1.3 1.6 1z"/><path fill="#473f36" d="m24.3 10.5 2.3 3.1-.5.8h-3.7l1.3-2.3-.3-1.3zm8 14.7-2.8.6-1.7-1.1-.2-1.3 3.5-.1 1.4-1.4 1 1v1.4z"/><path fill="#161410" d="m27.2 7.5-6 1.6-4.4 5-.4 7.8.2.1 4 4 4.7 1.3 1.2 1.9 3 .5-3 1.6L19 31l-6.5-4.5-.9-5 .5-7 1-2.2L17.3 8 21 5.3l6.1 2zm5.5 11.6-4 2.2-4.6-1.7.1-2.7 5.1.2 1.4-2.2v1z"/><path fill="#1f1a15" d="m29.5 29.7-3-.5-1.2-2-4.7-1.1-4-4.1-.2-.1.4-7.8 4.4-5 6-1.6.5.7-5.8 1.7 1.2 1.2-.1.2-1.7 3.8 5 .5.1-.2 4.1-2 .1 1.5-1.4 2.2-5.1-.2-.1 2.7 4.7 1.7 3.9-2.2.6 1-2.7 2.5-3.6-.2.2 2.8 2.3 1.6 4-1 1.2-1.7-.1 2.8zM24 50.8l-2-1.7.8-1.7-3-1.9-1.2 1.1-1.6-1.7-.4-4.7 1.3-2.4 1.9.9-.4-3.9-1.7-1.3-1.1 1.5-2.6-1.4-.4-3.5 3.3-3h4l1.9 1.7-2.2.3-.7 2v.2l2.7 3.5-.2 4.8-2.1 1.9 1.8 2.4 1.2-1.2 2.1 2-.6 2.7 1 1.5-1.3 1.9z"/><path fill="#161410" d="M20.9 27.1h-4l-3.3 3 .5 3.5 2.5 1.4 1.1-1.5 1.7 1.3.4 3.9-1.9-1-1.3 2.5.4 4.6 1.6 1.8 1.2-1.1 3 2L22 49l2.1 1.7-3.2.6-5-2.2-4.3-6.1L9 33.4l1.8-6.2 3.6-2.1 4.3.1z"/><path fill="#2f2a25" d="m25.8 49-1-1.6.6-2.7-2-2-1.3 1.1-1.8-2.3 2.1-1.9.2-4.8-2.8-3.5.1-.2.7-2 2.2-.3 1.3 1.1-2.4.6-.1 1.5 2 1 .2 5.8v.1l-1 1.7.4.5v.1l.8-.4 2.3 3.1.3-1.7-.5-2.6.7-2.5-.6-3.3 1.7 4.1-1 9.5z"/><path fill="#473f36" d="m26.2 33.8.6 3.4-.7 2.4.5 2.5-.3 1.8-2.3-3.1-.8.4-.4-.6 1-1.7v-.1l-.2-5.9-2-.9.1-1.5 2.4-.6.8.9z"/><path fill="#2f2a25" d="m8.8 26.6 1.2 1.2L8.7 29l.7 1.5 2-1.7.9.9.3.6-1.5.9h-.2l-.1 2.4-2.7.9-1.7-2.1v-4zM10 38.9l-3.2-1-.7.5-1.3-2.1 1.6-.7 4.4 1.3z"/><path fill="#1f1a15" d="m10 27.8 1.4 1.1-2 1.7-.7-1.5zm2.6 2.6.9 3.2-1.4.7.5 2.8h2l.3 1.1-.5 5.1-1.8 3.6-3.9.9-.8-1 2.9-2.4.8-3.6-.1-.1-1.3-.5L9 41.5l-2.1-.1v.1l-1-.4L3 36.3l1.9-2-.1-2.1-2-.4.4-3.2L5 26.3l2.7-.6 1 .9-2.3 1.8v4.1L8 34.6l2.7-.9.1-2.4h.2zM9.9 39l.8-2-4.4-1.3-1.6.7 1.3 2 .7-.4z"/><path fill="#161410" d="m13.5 33.6 1.1 3.5h-2l-.5-2.8zm-.9 13.3-.6 1.4-5.2 3-2-.5-2.3-2.5.5-5.8-2.9-5.7.3-6.6 2.5-3.6 2.1-.3-1.7 2.3-.4 3.2 2 .4.1 2-1.9 2.1 2.8 4.8 1 .4v-.1l2.1.1 1.2-1.3 1.3.5v.1l-.7 3.6-3 2.5.9.9z"/><path fill="#3c362f" d="m17.8 13.4 1 2.4-2.9 1-2.6.1-.6-2 2.9-1.4z"/><path fill="#2f2a25" d="m17.8 13.4-2.2.1-2.8 1.4.5 2H16l2.8-1.1.4 1-2 3.5.8.5-.6.9-1 .2-1.4-2.1-3 .8-.6 1.3-1.7.3L7 19.8l2.8-2-.8-2 2.7-1.6-1.1-1.2-1.4.7L6 11.1l-.8-3.6 3.6.4 4.4-2.3 3.1 4.5-1.8 1.3h-.1l.5.7h2.4zm-8.2-.6v-1.7L6.4 8.9l.7 2.3zm.8 3 .2.8h.8l-.1-1zm2.5 3v-.1l-.8-.8-1 .2-1.7 1.7 1 1.1 1.4-.8zm-.8 5.8"/><path fill="#1f1a15" d="m19.2 16.9-.4 5.3-.9 1.6-2.7-.4-.9-1.4-2.3.5.1 2v.1l-.2.1-2 1.6-3.5-1-3.4-5 3.4-5.8-1.4-.8-1.3 1-1.5-1.1-1.1-4.2 1.3-4 4-2.8 6 1.1 1 1.9-4.5 2.3-3.6-.4.8 3.6 3.2 2.6 1.4-.7 1 1.2-2.6 1.7.8 1.9-2.8 2L9.6 22l1.7-.2.6-1.3 3-.8 1.4 2 1-.1.6-.9-.7-.5zm-2.8-6.7 1 1.6v.3H15l-.5-.7zM1.7 22.5"/><path fill="#161410" d="m18.8 22.2.4 3.4-2.2 4.5-8.5 2.7-4.1-2.1-3-3.2L0 20.6 1 9.9l.1-.5 1.2 4.2 1.4 1.2L5 13.7l1.4.8L3 20.3l3.4 5 3.5 1 2-1.6.2-.1-.1-2.1 2.3-.5.9 1.4 2.6.5.1-.1zm-17.1.3"/><path fill="#473f36" d="m9.6 12.8-2.5-1.6-.7-2.3 3.2 2.2zm.8 3 .9-.2.1 1h-.8zm2.5 3L11.8 20l-1.4.8-1-1.1 1.7-1.7 1-.2.8.8"/><path fill="#1f1a15" d="m11.5.6-.7 1.5.9 1.2h.1L15 3l3 1.9.4 2 2-.2-.2-1.2 2-.5 1.4 1.4h1.3l.6 1.4v.3l-1.8.5-.1.1-.7-1.1-2.3 1.1.2 1.2-1.6.2-3-1.5L15 7l1.2-.9L13.8 5l-1.5.5.6 1.3-1.8 1-2.3-1-.6-3.2 1.4-2.5z"/><path fill="#2f2a25" d="M24.8 6.4h-1.3L22.1 5l-2 .5.2 1.2-2 .2-.4-2-3-2-3 .5-.2-.1-1-1.2.8-1.5.3-.1 2.6.3 1.2 1.1 2.1.5-.2.8 1 1.3 1.4-.7.4.8v.1l3.2-.2.8.6z"/><path fill="#161410" d="M9.6 1.1 8.2 3.6l.6 3.2 2.3 1 1.8-1-.6-1.3 1.5-.5 2.5 1-1.2.9 1 1.6 3 1.5 1.6-.2-.2-1.2 2.3-1.1.7 1.1 1.8-.6-.8 2.1-3.2 2.2-5.4.4-6.8-2.1L6 7.3v-3l1.8-2.6z"/><path fill="#473f36" d="m23.5 4.5-3.2.2v-.1l-.4-.8-1.3.7-1.2-1.3.3-.8-2.1-.5L14.4.8 11.7.5l1.7-.5 5.5 1z"/><path fill="#000" fill-opacity=".3" d="M41.7 60.3q-1.2-6.2-4-8.1-2-.1-1.8 14.4-4.2-11.8-5.3-10.1-1.1 1.6-1.4 1t-1 7.9q-1.7-4.6-4.6-8-3.7 1-4.2 3.5l-2.3 1.3-1.6 5.8q-4.4-14.6-7.1-4.1-.2-9.5-3.1 3.5-3.1-14-5.1-6l-.1-11 13.7 6.9 9.8-.5 18-9.6q-1.1 4.4.1 13m-19.9 4.4.3-.2q2.7 1.1 1.3 4.7-3.6-3.4-1.6-4.5"/></g><g id="l"><path fill="#161410" d="M54.5 22v2.3l-2.3 3.2-4.9 2.2-7.1.3-4-2.2L35 25l.8-3 1.6-1.1-.6 2.8 1.7 2.7 2.4.2 1.4-1.6-.9-1 1.1-1 2.8.2-.9 1.3 1.5 1.2 3.4.4 1.5-.9-.6-1 1.7-1.8 1 .8z"/><path fill="#1f1a15" d="m37.5 20.9 1.4-1.1v1.6l1.2.7h.1l2.8-1.4 3.5.9 1 1.7 1.9-.9-.7-1 1.7-1.2 1.9.9 1.2-.5 1 1.1v.3L53 23.2l-1-.8-1.7 1.9.6.9-1.5.9-3.4-.4-1.5-1.2.9-1.3-2.7-.2-1.2 1 .9 1-1.4 1.6-2.4-.2-1.7-2.7z"/><path fill="#2f2a25" d="m39 19.8 1.6-1.3 5.5-1 6.4 2 1 1-1.2.6-1.9-.9-1.7 1.2.7 1-2 .9-.9-1.7-3.5-.9-2.7 1.5-.2-.1-1.2-.7z"/><path fill="#1d170c" d="m25.9 25.7 9.3 4.4 5.6 2.7v.1l.9 3.1L24 45.4l-9.7.4-.5-.2L.4 39.2l1.2-2z"/><path fill="#493f35" d="m40.9 32.9 4.8 6.5-4-3.4zM14 45.8h.3l-.2.2z"/><path fill="#41321a" d="m45.7 39.4.3 2.2-.3-.2q-9.6.9-14.7 8.2-5.2 7.1-10.9 5.6l-.3-2 4.2-7.8L41.7 36zm1.2 7.4.1.4.1 2.9-6.7 2.5q-2.9 1-6.8 5.6l-.5-.3-2.5 1.5v2.5q-5.3 1.9-9 1.6l-.5-2.7q7.1-2.2 8.3-4.4Q39.6 43.8 47 46.8m1 5.8-1 2.8-11.5 6-.6-2.1q2.4-3.8 4.3-5 2.9-1.9 4.5-1.4zm.8 4.1.6 3.4-3.4 2.4-1.4 3.3-5.2-.3-2-2.7zM22 65.1q3.9-.5 8.1-1.7l-.2 1-1.6.8-2.7 1.4-3.4-.2zm1.1 5.3 7.3-3.8L29 71l-5.4 3.5-.7-4.1z"/><path fill="#373221" d="m45.7 41.4 1.2 5.4q-7.3-3-17.5 9.6-1.1 2.2-8.2 4.4l-1-5.6q5.6 1.5 10.8-5.6 5.1-7.3 14.7-8.2"/><path fill="#4f482f" d="m47.2 50.1.7 2.3v.2l-4.2.3q-1.7-.5-4.7 1.4-1.9 1.2-4.2 5L31 63l-1 .4q-4.2 1.2-8.1 1.7l-.3-1.6q3.7.3 9-1.6l2.3-3 .7-.7q4-4.6 6.8-5.6z"/><path fill="#241f1a" d="m46.9 55.4 1.6.6.2.7-11.5 6.1-2.8-.8-.3.1 1.3-.7z"/><path fill="#363221" d="m49.3 60 1.5 8.4L39 74.6l-2.7-11.3 1-.5 2 2.7 5.3.3 1.3-3.3zm-12 15.4L25 82l-1.3-7.4L29 71l1.3-4.5v-.1l.3-.2 4.3-2.2zm-3.8-17.3-.7.7-2.3 3v-2.5l2.5-1.5zM30 63.4l1-.4 3.8-3.7.6 2.1-1.3.7-4.3 2.2z"/><path fill="#2a2719" d="m39 74.6-1.6.9L34.9 64l1.4-.8z"/><path fill="#14110e" d="M24.9 82 .4 69.3v-6.6L5 66.8l5 .7.6-2.4.8-.4 2.3-1.1 1.5.7 1.9 1 .3.2-1.5 1.4-.3 3.2v.1l5.7 4.6 2.3-.2z"/><path fill="#2b2111" d="M.4 62.7v-2.4l.6-.7 10.4 5.1-.8.4-.6 2.4-5-.7zm2.2-5-2.1-3-.1-15.5 13.5 6.4.1.2.1.2 5.7 7.2.3 2 1 5.5.5 2.8.3 1.6.3 1.3 3.3.2 2.7-1.4 2.1 1.2v.1l-7.3 4h-.1l-.4-2.2V68l-5.1-2.6-.3-.2-.9-4.8-1.2.5.2 3.3-1.5-.7zm22.9 8.9-.7.4zm-1.9 8-2.4.3-5.6-4.7v-.1l.3-3.2 7 3.4v.2z"/><path fill="#191512" d="m1 59.6 1.6-1.9 11.1 5.9-2.3 1.1zm16.4 5.9 5 2.6v.1l.5 2.1-7-3.4z"/><path fill="#352a15" d="m24 45.4-4.2 7.8-5.7-7.2.2-.2z"/><path fill="#242115" d="M15.2 64.3 15 61l1.3-.5.8 4.8z"/><path fill="#4d3b1f" d="M22.9 70.4h.1zm2.6-3.8-.7.4z"/><path fill="#392c17" d="m30.4 66.5-.1-.1h.3z"/><path fill="#1d1814" d="m30.3 66.4-2.1-1.2 1.6-.9 4.3-2.2.3-.1 2.9.8-1 .5-1.4.8-4.3 2.3z"/><path fill="none" stroke="#000" stroke-linecap="round" stroke-linejoin="round" stroke-opacity=".4" stroke-width="__RESOLUTION__" d="m25.9 25.7 9.3 4.4" vector-effect="non-scaling-stroke"/><path fill="none" stroke="#000" stroke-linecap="round" stroke-linejoin="round" stroke-opacity=".3" stroke-width="__RESOLUTION__" d="M.4 69.3v-6.6m0-.2v-2.2l.6-.7 1.6-1.9-2.1-3-.1-15.5 1.2-2 24.3-11.5" vector-effect="non-scaling-stroke"/><path fill="#161410" d="m44 29.7-.6 1.3-5.2 3-2-.5-2.4-2.5.6-5.8-3-5.7.3-6.6 2.6-3.5 2-.4-1.6 2.3-.5 3.2 2 .4.1 2-1.9 2.1 2.8 4.8 1 .4v-.1l2.1.1 1.3-1.3 1.3.5v.1l-.7 3.6-3 2.5.8.9zm.9-13.4 1 3.5h-2l-.4-2.8z"/><path fill="#1f1a15" d="m36.4 9 2.6-.6 1.1.9-2.4 1.9v4l1.8 2.1 2.6-.9.1-2.3.2-.1 1.5-.8 1 3.1-1.4.7.4 2.8h2l.4 1.1-.5 5.1-1.8 3.7-4 .8-.8-1 3-2.4.7-3.6v-.1l-1.4-.5-1.1 1.3-2.1-.1-.1.1-1-.4-2.8-4.8 2-2-.1-2.1-2.1-.4.4-3.2zm5 1.5 1.4 1.2-2.1 1.6-.7-1.6zm-3.7 7.8L36 19l1.3 2 .8-.3 3.1 1 .8-2z"/><path fill="#2f2a25" d="m40.1 9.3 1.3 1.2-1.4 1.3.7 1.4 2-1.5 1 .8.2.7-1.5.8h-.1l-.1 2.4-2.7.9-1.8-2.1v-4zm-2.5 9 4.4 1.4-.7 2-3.2-1-.7.4h-.1L36.1 19z"/><path fill="#161410" d="m54.7 21.3-.7 1.3-5.1 3-2-.5-2.4-2.5.5-5.8-2.9-5.7.3-6.5L44.9 1 47 .6l-1.6 2.3-.5 3.2 2 .4.1 2-1.9 2.1 2.8 4.8 1 .4v-.1l2.1.1.2-.1 1-1.2 1.3.5h.1l-.7 3.7-3 2.5.8.9zM55.5 8l1.1 3.5h-1.9v-.1l-.5-2.7z"/><path fill="#1f1a15" d="m54.7 21.3-4 .8-.9-1 3-2.4.8-3.6V15l-1.4-.5-1 1.2-.2.1-2-.1-.1.1-1-.4-2.7-4.8 1.8-2-.1-2.1-2-.4.5-3.2L47 .6l2.8-.6 1 .9-2.4 1.9v4l1.8 2.1 2.6-.8.1-2.4.2-.1 1.5-.8 1 3.1-1.4.7.4 2.7h.1l2 .1.2 1-.5 5.2zM52 2.1l1.4 1.2-2 1.6-.6-1.6zm-.2 11.1.9-2-4.4-1.3-1.7.7 1.3 2 .8-.3z"/><path fill="#2f2a25" d="M50.8.9 52 2.1l-1.4 1.2.7 1.6 2-1.7 1 .9.2.7-1.5.8h-.2v2.5l-2.7.8-1.8-2.2V2.9zm-1.4 2h-.1l-.1.1H49v3l.8 1.6 1.2.3 1-1.2-1.4-1.2-.3-2zM52 13.2l-3.1-1-.7.5-.1-.1-1.3-2 1.6-.7 4.5 1.3zm-3.1-1.5 1.8.7.9-.5-.8-1-2.9.2.3.7h.1z"/><path fill="#473f36" d="m49.4 3 .9.6.3 1.9L52 6.7l-1 1.2-1.2-.3-.7-1.5-.1-3 .1-.1.1-.1zm-.5 8.8h-.6l-.1.1-.3-.7 2.9-.1.8.9-1 .5z"/><path fill="#161410" d="m49.3 12.7-.9 2.1-3.2 2.3-5.4.3-6.9-2.1-3-3.4v-3l1.8-2.6 1.8-.5-1.4 2.4.6 3.2 2.2 1 1.9-1-.5-1.3 1.4-.5 2.5 1.1-1.3.9 1 1.7 3 1.4 1.7-.2-.2-1.2 2.4-1.1.6 1.1z"/><path fill="#1f1a15" d="m33.6 5.8 1.8-.6-.7 1.5.9 1.2h.1l3.1-.3 3 1.9.4 2 2-.2-.3-1.2 2.1-.5 1.4 1.4h1.3l.6 1.4v.3l-1.9.6-.6-1.1-2.4 1.1.2 1.2-1.7.3-3-1.6-1-1.6 1.3-.9-2.5-1.1-1.5.5.6 1.3-1.9 1-2.2-1-.6-3.2z"/><path fill="#2f2a25" d="m35.4 5.2 1.9-.6 1.3.2 4.2.8 5.4 4.1.5 1.3h-1.3L46 9.6l-2 .5.2 1.2-2 .2-.4-2-3-2-3 .5-.2-.1-1-1.2zm.6.5-.3.5.6.7h.1l2.4-.5L41.6 8l.3.7h1.5l.1-1-1.7-1.5-.9.1-.2-.4-2.8-.9zm8.8 2-.4.5 1.8.4z"/><path fill="#473f36" d="m36 5.7 1.9-.7 2.8.9.2.4.9-.1 1.7 1.5v1h-1.6l-.4-.7-2.7-1.6-2.4.6v-.1l-.7-.7zm8.8 2 1.4.9-1.8-.3z"/></g><g id="k"><path fill="#15120e" d="M14.9 5.3v-.5l-2.2-1L12 2l-2 .3L8.9 4 9 5.8l3.5-.3h.3L15 6.8zm5 17.8-3.7 2.2-2 1.8v-1.3l-4.1-3-2.8-5.5-.1-2.7L9.8 12l4.9-.7-.8-1.5-4.3-.4-3 1L5.9 7 7 2l.4-.5 6-1.6L17 5l2.1 6.8-2.1.3h-.1l-.3 2 3.4.8.3.8zM9.3 16.8l.6-1.4 3-.7-.9-1.6-3 .2-1.7 1.9.2 1zm6.9 2.2-.3-1.4-1.5-.1-1 .2-2.4.4V20l1.3-.2.4 1.6 3.8-1.2z"/><path fill="#211d19" d="M14.9 6.4v.4l-2.2-1.3h-.3l-3.5.3L8.8 4l1.3-1.7L12 2l.8 1.8 2.1 1v.5l-1.7-1H10v.6l2.3.5.5-.2zm5 8.6-3.4-.7V14l.3-2h.1l2.1-.3.1.4-.9-.1-.1 1.6 1.5.1zm-3.7 4.2.3 1.1-3.7 1.2-.5-1.6-1.3.1v-1.6l2.4-.5.1 1.3z"/><path fill="#312c25" d="M14.9 5.3v1l-2.2-1-.5.1-2.3-.5v-.6h3.4zM.4 19.6l2.1 5.5 3.2 3.4h-.5l-3.9-2.7L0 19.9zm18.8-7.4.4 1.6-1.5-.2.1-1.5zm-10 4.7-1.7-.6-.2-1 1.7-2h3l1 1.5-3.1.6zm4.2.9 1-.2 1.4.1.4 1.4h-2.7z"/><path fill="#0f0e0b" d="M7 2.1 5.8 7l.8 3.6 3-1.1 4.3.4.8 1.4-5 .8-2.5 2.5.1 2.7 2.8 5.5 4.2 3v1.3l1.8-1.8 3.8-2.2v1l-3.8 5.6-10.4-1.1L2.5 25 .4 19.6 2 18.4v-5.1l1.9-2.6-.6-4.1z"/></g><g id="j"><path fill="#473f36" d="m14.8 11.5-1.3-1.1V9l-1.5.3-.7-2 .3-2.6-2.3-1.2v-.1L9.7 2l1.4.7 3.3 4.5z"/><path fill="#2f2a25" d="m9.8 2-.5 1.4 2.3 1.3-.3 2.6.7 2 1.5-.3v1.4l1.3 1.1.3 2.6-.6 1.3-1-.9.1-2-1.8-1-.8 1.1-1.6-1.3 1.2-1.8L10 6 7.5 4.2V4l.2-1.5 1.5-.7z"/><path fill="#1f1a15" d="m9.3 1.8-1.7.7v1.7L10 6l.6 3.5-1.2 1.8 1.6 1.3.8-1.2 1.8 1.1v2l1 1-.7 1.5-.3.1-1.7-.8.3-1.3-2.5-.7-.7 1-1.4-.9-1-3.3.5-2 1.5.3-.9-2.7-1.5-.5-.5 1.3-2-.5-.9-2.3 1.9-2.9L7.5.9z"/><path fill="#161410" d="m7.6.9-2.9.9-1.9 2.9.9 2.3 2 .5.5-1.3 1.5.5.9 2.6-1.5-.2-.5 2 1 3.3 1.4.9.7-1 2.5.7-.3 1.3 1.7.8-2.2 1.1-4-.5-4.1-3.4L0 7.9l.4-4.8L2.6.8 5.8 0z"/><path fill="none" stroke="#69654f" stroke-linecap="round" stroke-linejoin="round" stroke-opacity=".5" stroke-width="__RESOLUTION__" d="m14.8 11.5-.5-4.3-3.2-4.5L9.8 2" vector-effect="non-scaling-stroke"/></g><g id="i"><path fill="#161410" d="M18.7 24.5 15.8 26l-7.6-.2-6.5-4.5-.8-4.9.5-7 1-2.2 4.2-4.4L10.1 0l6.2 2 .1.3-6 1.5-4.3 5-.4 7.9h.2l4 4.1 4.6 1.2 1.3 2zm1.2-14.7v1l1.9 3.1-3.9 2.2-4.6-1.7v-2.7l5.2.2z"/><path fill="#1f1a15" d="m18.7 24.5-3-.6-1.2-1.9-4.6-1.2-4-4-.2-.1.4-7.9 4.4-5 5.9-1.5.5.6-5.7 1.8 1.1 1.2v.2l-1.8 3.7 5 .5.1-.1 4.2-2v1.5l-1.3 2.1-5.1-.2-.2 2.7L18 16l3.9-2.2.6 1-2.6 2.5-3.6-.1.2 2.8 2.3 1.6 3.9-1.1 1.3-1.7-.2 2.9z"/><path fill="#2f2a25" d="m16.9 3 2.8 4.2v1l-4 2-.2.1-5-.5 1.8-3.7v-.2l-1.2-1.2zm5.5 12 1.5 2.4v1.5l-1.3 1.7-4 1-2.2-1.6-.2-2.7 3.6.1zm-9-10-1 .3.6 1.6-1 2.4 2.2.6 2.7-1 1-1.6h-.1L16 5.8z"/><path fill="#473f36" d="m13.5 4.8 2.5 1 1.8 1.3-.9 1.6-2.7 1L12 9l1-2.4-.6-1.6zm-2.2 11.3 4.5.7 1.8 1.4.3 1.1-.2.2-.7.9h-2V20l-.2-.2-3.2-2-1.8.5-.8-.9z"/><path fill="#2f2a25" d="m11.3 16-2.4 1.4.8.9 1.8-.6 3.3 2.1v.2l.2.3 1.9.1.7-.9.1-.2-.2-1 3.6 2.6.5 1.3h-1.3l-1.4-1.4-2 .5.2 1.3-2 .1-.4-2-3-1.9-3 .4-.2-.1-1-1.2.8-1.4 1.9-.7z"/><path fill="#1f1a15" d="m21.6 22.2.6 1.5v.2l-1.8.6h-.1l-.7-1.1-2.3 1.2.2 1.1-1.6.3-3-1.5-1-1.7 1.2-.9-2.5-1.1-1.5.5.6 1.3-1.8 1-2.3-1-.6-3.2L6.5 17l1.8-.6-.8 1.6 1 1.1.1.1 3.2-.4 2.9 2 .3 2 2.1-.2-.2-1.3 2-.5 1.4 1.4z"/><path fill="#161410" d="m22.2 23.9-.9 2.2-3.2 2.2-5.4.4-6.8-2.1L2.8 23v-3l1.7-2.6 2-.5L5 19.4l.6 3.2 2.3 1 1.8-1-.6-1.3 1.5-.5 2.5 1.1-1.2.9 1 1.7 3 1.5 1.6-.3-.2-1.1 2.3-1.2.7 1.2v-.1z"/><path fill="#161410" d="m15 48.6-3.1.6-5-2.2-4.4-6.1L0 31.2 1.9 25l3.6-2.2 4.3.2 2 1.9h-4l-3.3 3 .5 3.5 2.5 1.4 1.1-1.5 1.8 1.3.3 3.9-1.8-1L7.5 38l.5 4.7 1.5 1.7 1.3-1.1 3 2-.8 1.6z"/><path fill="#1f1a15" d="m11.9 24.9 1.8 1.7-2.2.3-.6 2-.1.2 2.7 3.4-.1 4.9-2.2 1.9 1.8 2.4 1.3-1.2 2 2-.6 2.7 1 1.5-1.2 1.8-.5.1-2-1.7.8-1.6-3-2-1.3 1.1L8 42.7 7.5 38 9 35.5l1.8 1-.3-3.9-1.8-1.3-1 1.5L5 31.4 4.5 28 8 25z"/><path fill="#2f2a25" d="m13.8 26.6 2.1 2 3 7.1-1.1 9.5-1.1 1.5-1-1.5.7-2.7-2.1-2-1.3 1.2-1.7-2.4 2.1-1.9.1-4.9-2.7-3.4v-.3l.7-1.9zM12.6 30l1.4 1.5.4 2.2-.3 4.1-1.5 1.4.4.5 1.5-.5 2.4.4-.4-5.9-.7-.8-1.2-3.7-1.1-.8z"/><path fill="#473f36" d="m12.6 30 .9-1.6 1.1.8 1.2 3.7.7.8.4 5.9-2.4-.4-1.5.5-.4-.5 1.5-1.4.3-4.1-.4-2.2z"/></g><g id="h"><path fill="#15120e" d="m1.1 6.7 1.3-4 4-2.7 6 1 1 1.9-4.5 2.4-3.6-.5.9 3.7 3.1 2.6 1.4-.7 1 1.2-2.5 1.6.7 1.9-2.8 2 2.5 2.4 1.7-.3.6-1.2 3-.9 1.4 2.1 1-.1.6-1-.7-.5 2-3.4-.4 5.3-.9 1.6v.1l-2.7-.4-.9-1.4-2.3.5.1 2-.2.2-2 1.5-3.5-.9-3.4-5 3.4-5.8L5 11l-1.3 1-1.5-1.2zm15.3.8 1 1.6v.4H15l-.5-.7zM1.8 19.8v-.1"/><path fill="#0f0e0b" d="m1.1 6.7 1.2 4.2 1.4 1.2 1.3-1 1.3.8L3 17.6l3.4 5.1 3.5 1 2-1.6.2-.2-.1-2 2.3-.5.9 1.4 2.7.4v-.1l.9-1.6.4 3.4-2.2 4.6L8.5 30l-4.1-2-3-3.2-1.4-7L1 7.4zm11 15.2"/><path fill="#211d19" d="m19.2 14.2-2 3.4.8.5-.6 1-1.1.1-1.4-2-3 .8-.6 1.2-1.7.3L7 17.1l2.8-2-.7-1.9 2.6-1.6-1.1-1.2-1.4.7L6 8.5l-.8-3.6 3.6.3L13.3 3l1 1.5-.7.8L14.9 7l1.4.2.2.3-1.8 1.3h-.1l.5.6 2.4.1.2.4v.1l-.5.2-.2.7h-1.3l-2.8 1.4.5 2 2.6-.1 2.2-.8.1.7.8-.2zm-5.7-8.4-3.3.6-1.8-.6-.7.6.5 1.5L12 9.2l2.7-1.3zm3.7 10.7-.9-.7-1 .4.3.4 1.1.9zm-5.4-2.3.9-.1-.5-1.4h-.7zm.4 7.7"/><path fill="#312c25" d="m14.4 4.4 1.8 2.8-1.4-.2-1.2-1.7zm3.2 5.6 1.4 3.9-.8.2-.1-.7-.2-.5-1.1-1.3v-.2l.1-.6.2-.6zm-4.1-4.2 1.2 2L12 9 8 8l-.4-1.6.6-.6 1.8.6zm3.7 10.7-.5 1-1.2-.9-.2-.4 1-.4zm-5.5-2.3-.3-1.4.7-.2.5 1.5z"/><path fill="#2a2521" d="m18 13.4-2.1.8-2.6.1-.6-2 2.9-1.5h1.3l-.1.6v.2l1.1 1.3z"/><path fill="none" stroke="#494637" stroke-linecap="round" stroke-linejoin="round" stroke-opacity=".5" stroke-width="__RESOLUTION__" d="m13.4 2.9 1 1.5 1.8 2.8m1.4 2.8 1.4 3.9M4.4 28.1l4.1 2 8.5-2.7 2.3-4.4-.6-3.5" vector-effect="non-scaling-stroke"/></g><g id="g"><path fill="#231f1b" d="m14.8 11.5-1.3-1.1V9l-1.5.3-.7-2 .3-2.6-2.3-1.2v-.1L9.7 2l1.4.7 3.3 4.5z"/><path fill="#171512" d="m9.8 2-.5 1.4 2.3 1.3-.3 2.6.7 2 1.5-.3v1.4l1.3 1.1.3 2.6-.6 1.3-1-.9.1-2-1.8-1-.8 1.1-1.6-1.3 1.2-1.8L10 6 7.5 4.2V4l.2-1.5 1.5-.7z"/><path fill="#0f0d0a" d="m9.3 1.8-1.7.7v1.7L10 6l.6 3.5-1.2 1.8 1.6 1.3.8-1.2 1.8 1.1v2l1 1-.7 1.5-.3.1-1.7-.8.3-1.3-2.5-.7-.7 1-1.4-.9-1-3.3.5-2 1.5.3-.9-2.7-1.5-.5-.5 1.3-2-.5-.9-2.3 1.9-2.9L7.5.9z"/><path fill="#0b0a08" d="m7.6.9-2.9.9-1.9 2.9.9 2.3 2 .5.5-1.3 1.5.5.9 2.6-1.5-.2-.5 2 1 3.3 1.4.9.7-1 2.5.7-.3 1.3 1.7.8-2.2 1.1-4-.5-4.1-3.4L0 7.9l.4-4.8L2.6.8 5.8 0z"/><path fill="none" stroke="#343227" stroke-linecap="round" stroke-linejoin="round" stroke-opacity=".5" stroke-width="__RESOLUTION__" d="m14.8 11.5-.5-4.3-3.2-4.5L9.8 2" vector-effect="non-scaling-stroke"/></g><g id="f"><path fill="#161410" d="M17.8 24.5 14.9 26l-7.6-.2-6.5-4.5-.8-4.9.5-7 1-2.3L5.7 3l3.6-3 6 2 .2.3-6 1.5-4.3 5-.4 7.9H5l4 4.1 4.6 1.2 1.3 2zM19 9.7v1l1.9 3.1L17 16l-4.6-1.7v-2.7l5.2.2z"/><path fill="#1f1a15" d="m17.8 24.5-3-.5-1.2-2L9 20.8l-4-4-.2-.1.4-7.8 4.4-5.1 5.9-1.5.5.7-5.7 1.7 1.1 1.2V6L9.6 9.8l5 .5.2-.1 4-2 .2 1.5-1.4 2.1-5.1-.2-.1 2.7L17 16l3.9-2.2.6 1-2.6 2.5-3.6-.1.2 2.8 2.3 1.5 3.9-1 1.3-1.7-.2 2.9z"/><path fill="#2f2a25" d="m16 3 .3.4 2.5 3.7v1l-4 2.1-.2.1-5-.5L11.5 6l-1.2-1.2zm5.5 11.8 1.5 2.5v1.5l-1.3 1.7-4 1-2.2-1.5-.2-2.8 3.6.1zm-6.4-11L11.5 5l.6.7-1 3 .9.5 3-.2.6-1.5-1-1.1h.1L15.9 5l-.1-.1zm1 15.9 3.1.5 1.7-.7v-1.6l-.6-1-1.4 1.2H16z"/><path fill="#473f36" d="m15.1 3.8.7 1.1-1.1 1.5.9 1.1L15 9l-3 .2-.9-.6 1-2.9-.6-.7zm1 15.8V18h2.8l1.4-1.2.7 1-.1 1.6-1.6.7z"/></g><g id="e"><path fill="#595044" d="m40.8 6.4.2-.7L43.6 7h.1l1.4-1H47v2.3l-2 2.2-2.6-.8-.1-2.4-.2-.1zm5.3 5.4-.1 2.3-2.5.7-.9-2z"/><path fill="#27211a" d="m40.8 6.4 1.4.8h.2l.1 2.5 2.6.8L47 8.3V4.4l-2.5-1.9 1-.9 2.8.6L50 4.4l.4 3.3-2 .4-.1 2 1.9 2.1-2.7 4.8-1.1.4v-.1l-2.1.1-.1-.1-1.2-1.2-1.2.5h-.1l.8 3.7 3 2.5-.9.9-4-.9-1.7-3.6-.5-5.1.3-1.1h1.8l.2-.1.4-2.7-1.3-.7zm1.1-1.6 1.4-1.1 1.3 1.2-.6 1.5zm4 9.3.6-.3.8.5v-.1l1.3-2-1.6-.7-1 .3-3.5 1 .9 2z"/><path fill="#3b352e" d="M47 6h-2l-1.4 1h-.1L41 5.7l.9-.9 2 1.6.7-1.5-1.3-1.2 1.3-1.2L47 4.4zm-1.1 8.2v-2.3l1.1-.3 1.6.7-1.3 2-.7-.4z"/><path fill="#1c1915" d="m48.3 2.2 2.1.4L53 6.2l.2 6.5-2.9 5.7.5 5.8-2.3 2.5-2 .6-5.2-3.1-.6-1.4 4 .9.8-1-3-2.4-.8-3.6v-.1l1.3-.5 1.1 1.2.2.1 2-.1.1.1 1-.4 2.8-4.8-2-2 .2-2.1 2-.4-.4-3.3zM38.7 13l1.1-3.5 1.4.7-.5 2.7h-.2z"/><path fill="#27211a" d="m51.6 19.2 1-1.9 5.9-1 4 2.7 1.3 4-1.1 4.2-1.6 1.2-1.2-1-1.4.8L62 34l-3.5 5-3.5 1-2.2-1.8v-2l-2.2-.5-.9 1.3-2.7.5-.9-1.7-.4-5.3 2 3.5-.8.5.6.8 1.1.2.1-.1 1.3-2 3 .9.6 1.3 1.8.2 2.5-2.4-2.9-2 .8-1.9-2.6-1.7 1-1.1 1.3.6 3.3-2.5.9-3.6-3.7.4zm-4.1 6.6v-.4l1-1.6 1.9 1.2-.5.8z"/><path fill="#1c1915" d="m63.8 23 .2.6.9 10.6-1.5 7-3 3.1-4 2.2-8.5-2.8-2.2-4.5.4-3.4 1 1.7 2.6-.5.9-1.3 2.3.4-.1 2v.1L55 40l3.5-1 3.5-5-3.5-5.8 1.4-.9 1.3 1.1 1.4-1.2z"/><path fill="#3b352e" d="m45.8 30.5.4-1.1 2.8 1.1 2.6.1.5-2-2.7-1.4L47 27l.5-1.3h2.4l.5-.8-1.9-1.2 3.1-4.6 4.4 2.4 3.6-.4-.9 3.6-3.2 2.5-1.3-.6-1 1.1 2.6 1.7-.7 1.8 2.8 2.1-2.5 2.4-1.8-.2-.6-1.4-3-.7-1.3 1.9v.1l-1.2-.2-.6-.8.9-.5zm7 7.8"/><path fill="#4b443b" d="m46.2 29.4.8-2.3h2.4l2.8 1.5-.6 2-2.6-.1z"/><path fill="#251c0f" d="m51.4 62.9 24.3 11.5 1.1 2.1-13.4 6.3-.4.3-9.7-.5-17.7-9.3L22 67.1 8.9 74.6l-.5.3L0 69.6q2.7-5.1.5-9.7l21-11z"/><path fill="#41331a" d="m8.9 74.6 13-7.5.2 9.5q-2.1 1.5-4.2 2.5-3.5 1.5-7.2 1.5zm6.7 24.7-.8-3.1 7.5-4.7.1 4.5-1.2.3.3.5zm-2.7-4.7 1.1-3q1.8-.7 4.6-2.5l1.1-.7q1.8-1.1 2.6-1.3l.1 1.5v.5zm.5-5.2-1.2-4.2q3.9-.5 6.6-1.7 2.1-1 3.4-2.4v.4l.1 2.3q-1.3.5-3.1 1.9L17.4 87q-2.5 2.1-4.1 2.3"/><path fill="#523f21" d="m22 67.1 13.5 6.2 17.8 9.3 4.2 7.8-.4 2q-6.1-.7-9.2-4.5-5-6.4-16.6-9.3l-9-2H22zM56.3 98l-.6 2.7q-3.5.2-8.6-2.2l-.4-1.9-2.5-1.5-.4.4q-2.2-4.5-6.5-6.2l-15-5.5v-2.3q16.5-1 21.6 7.8 4 8.2 12.4 8.7m-.9 4.4-.1 1.2-3.5.3-2.6-1.5-1.6-.8-.2-1q4.2 1.3 8 1.8m-8.3 1.4 7.3 3.8.1.1-.7 4.1-5.4-3.5zM22.3 87.1l7.1 2.8 4 1v-.1.2l.1 1.3 2.1 1.3 2-.4 4.2 3.8.2 1.6-.1.1-11.5-6.1v-.1l-8.1-3.9zm0 4.4v-.4l6.3 2.8L40 100l-2 2.7-5.3.3-1.4-3.3-10.1-3.4 1.2-.3z"/><path fill="#43341b" d="m53.3 82.6 9.7.5.1.1-5.6 7.2z"/><path fill="#362a16" d="m63.4 82.9 13.4-6.4V92l-2 3-11.2 5.8-1.5.8.1-3.3-1.2-.5-.9 4.8-.2.1-5.1 2.7-.3 2.2h-.2l-7.3-3.8v-.2l2.1-1.1 2.6 1.4 3.4-.3.3-1.2.3-1.7.4-2.7 1-5.5.4-2.1 5.6-7.2.1-.2zm12.9 14 .5.7v2.5l-4.5 4-5 .7-.6-2.3-.8-.5zm-24.5 7 .7.4zm9.6.2.3 3.2v.2L56 112l-2.3-.3.7-4.1v-.1z"/><path fill="#1f1b16" d="m74.8 95 1.5 1.8-10.4 5.2-2.4-1.2zm-20.3 12.6.3-2.1v-.1l5.1-2.7 1.5 1.4z"/><path fill="#191611" d="M76.9 100v6.5l-24.6 12.7 1.4-7.4 2.3.3 5.6-4.6v-.2l-.2-3.2-1.5-1.4.3-.2 2-1 1.3-.7L66 102l.8.4.6 2.3 5-.7z"/><path fill="#443f29" d="m52.4 119.2-12.8-6.7 2.3-11.5 4.8 2.6.3.1v.1l1.3 4.5 5.4 3.5zM38 111.7l-11.5-6-4-1.6-.1-5.5-1-1.7-.2-.5 10.2 3.4 1.3 3.3 5.3-.3 2-2.7.3.2zm4-13-.2-1.6 4.5 3.2 1 .4.2 1-4.4-2.2zm-4.4-5.4-2 .3-2.1-1.2-.1-1.3 3.4 1.5zm9.4 5.3L44.3 96l-.6-.6.4-.4 2.5 1.5z"/><path fill="#343120" d="m39.6 112.5-1.6-.9 2.3-11.4 1.6.8z"/><path fill="#363321" d="m22.5 104-5 3-2-7.7 6-2.5.9 1.7zM12.1 85l-1.4-4.5q3.7 0 7.2-1.5 2.1-1 4.2-2.5V81q-1.3 1.4-3.4 2.4-2.7 1.2-6.6 1.6"/><path fill="#2d2821" d="m14.8 96.2-2-1.4v-.2l9.5-5.5v-.5l8 3.9.1.1 11.5 6.1 1.3.6-.4-.1-2.8.8-11.4-6v-.1l-6.3-2.8v.4z"/><path fill="#4f482f" d="m14 91.6-.7-2.2q1.6-.3 4.1-2.4l1.7-1.3q1.8-1.4 3.1-1.9v3.3q-.8.2-2.6 1.3l-1.1.7q-2.8 1.8-4.6 2.5"/><path fill="#5b5043" d="M63.2 83.2 63 83h.3z"/><path fill="#443f29" d="m57.1 92.5-1 5.5q-8.2-.5-12.3-8.7-5.1-8.8-21.6-7.8V81l-.1-4.5h.1l9 2Q43 81.6 48 88q3 3.8 9.2 4.5"/><path fill="#635b3b" d="m55.7 100.7-.4 1.7q-3.8-.5-8-1.8l-1-.4-4.5-3.2-4.2-3.8-.9-.7-3.3-1.5v-.2.2l-4-1.2-7.1-2.7-.1-3.2v-.2l15 5.5q4.3 1.8 6.5 6.3l.6.6 2.7 2.4q5.1 2.4 8.6 2.2"/><path fill="#614a27" d="m51.8 103.9.7.3zm2.5 3.7h.2l-.1.1z"/><path fill="#241e19" d="m49.1 102.5-2.1 1.1h-.3l-4.8-2.5-1.6-.9-.3-.2 2.9-.8.3.1 4.3 2.3z"/><path fill="#48381c" d="m47 103.7-.3-.1z"/><path fill="#2d291b" d="m60.2 102.6.8-4.8 1.3.5-.1 3.3z"/><path fill="none" stroke="#000" stroke-linecap="round" stroke-linejoin="round" stroke-opacity=".3" stroke-width="__RESOLUTION__" d="m76.9 76.5-1.2-2.1-24.3-11.5m25.4 13.6V92l-2 3 1.5 1.8.5.7v2.2m0 .3v6.5" vector-effect="non-scaling-stroke"/><path fill="#27211a" d="m35.4 36 .3 2.8-1.2 3-2-.7-1 1.7.5 2.8-4.6 2.8-1.2-.1V48l-1.8-.9-.4-1.7-1.4-.2h-.1l-1 3.5 1.2 3.7-1.1.3-3.1-2.7.3-4.1 2.1-4.7.8-.7 1.8 1 1.7-2.3-.7-1.2 2.3-2.3.9 1.5v.2l-1 2.1 1.9 2 2.5-.9 2-3.5-1.1-2.8 1.4-.2zm-5.1-1.2.6 1.7-1.3 1-1.1-2.4zm.4 10-1-1.4-4.6-1-.2 2.1 3.2.8.1.2.4.4z"/><path fill="#1c1915" d="m18.5 50.1 3 2.7 1.2-.3-1.2-3.7 1-3.5 1.4.2.5 1.8 1.9.8-.1.1 1.2.2 4.6-2.8-.6-2.8 1.1-1.7 2 .7 1.2-3-.3-2.8 1.6 1.3.5 4.4-3 5.8L29 51l-2.5 5.3-3.2 1-2-.5-3-5.2zm6-12 .7 1.2-1.7 2.3-1.8-1z"/><path fill="#3b352e" d="m32 34.4 1.1 2.9-2 3.4-2.6.9-1.8-2 1-2.1v-.2l-1-1.5.7-.5 1.1-.2 1 2.4 1.4-1-.6-1.7zm-1.3 10.4L28.6 46v-.1l-.4-.4-.1-.2-3.2-.8.3-2.1 4.4 1z"/><path fill="#1c1915" d="m32.7 40.2.1-.2 5.5-1.9 3.1 2.6 3.8 3.8.8 2 .5 6.3-.7 4.5-5.8 3.9-6.8.2-2.6-1.4 2.6-.5 1.1-1.7 4.2-1 3.6-3.7.1-.1-.4-7-3.8-4.5zM28 50.5l1.7-2.8v-.9l.8 1.2.4.7 4.6-.2.1 2.5-4.2 1.5-2.7-1.5z"/><path fill="#27211a" d="m30.7 60-3.4-1.9-.1-1.6 3.4.9 2.1-1.4.1-2.5-3.1.1-1.7-1.5.6-1.1 2.7 1.5 4.2-1.5-.1-2.5-4.6.2-.4-.7h.1l.1-2.1 2.8 1.4h.1l4.4-.4-1.5-3.4-.1-.1 1-1-5-1.6.4-.6 5.3 1.3 3.9 4.5.4 7-.2.1-3.6 3.6-4.2 1.1-1 1.8z"/><path fill="#595044" d="m27.3 58.1-1.2-.6-.1-3.9 1.9-3.1.8.5-.7 1-.9 1.5.1 2.9zm2.4-11.3.1-2.2 2.4-3.5 1.1.6-2.6 3.3v.9l-.1 2.1h-.1zm.6 8.2-.1.8-1.8-.2v-1z"/><path fill="#3b352e" d="m32.1 41 .1-.2 5.1 1.5-1 1.1v.1L38 47l-4.4.4h-.1L30.8 46v-1l2.5-3.1zM28 52l1.6 1.5 3.3-.1-.1 2.5-2.1 1.4-3.5-.9v-2.9zm2.2 2.9-2-.5v1h.1l1.8.3z"/><path fill="none" stroke="#837f63" stroke-linecap="round" stroke-linejoin="round" stroke-opacity=".5" stroke-width="__RESOLUTION__" d="m27.3 58.1-1.2-.6-.1-3.9 1.9-3.1m1.7-3.7.1-2.2 2.4-3.5h0" vector-effect="non-scaling-stroke"/><path fill="#1c1915" d="m57.5 49.5 2 .3 2.6 3.7.3 6.5-3 5.7.5 5.8-2.3 2.5-2 .5-5.2-3-.6-1.4 4 .9.8-1-3-2.5L51 64v-.1l1.3-.5 1.1 1.2.2.1 2-.2v.2l1.1-.5 2.8-4.7-2-2 .1-2.1 2-.4-.4-3.2zm-9.6 10.8 1-3.5 1.4.7-.4 2.7h-.2z"/><path fill="#27211a" d="m57.5 49.5 1.6 2.3.4 3.2-2 .4-.1 2 2 2.1-2.8 4.8-1 .4-.1-.2-2 .2-.2-.1-1.1-1.2-1.3.5.8 3.6 2.9 2.5-.8 1-4-.9-1.8-3.6-.5-5.2.4-1h1.8l.1-.1.5-2.7-1.3-.7.9-3.1 1.5.8h.1l.1 2.5 2.7.8 1.8-2.2v-3.9l-2.4-1.9 1-.9zM51 52l1.5-1.1 1.3 1.2-.7 1.5zm4.6 9 .8.4 1.3-2-1.6-.7-4.5 1.3.8 2z"/><path fill="#3b352e" d="m49.9 53.7.2-.7 1-.9 2 1.6.6-1.5-1.2-1.2 1.2-1.2 2.4 1.9v4l-1.8 2.1-2.6-.8-.2-2.5h-.1zm5.8 7.4-3.2 1-.8-2 4.4-1.3 1.6.7-1.2 2z"/><path fill="#3b352e" d="M53.3 41.8v-2.5l1.8-2.7 4.6 1.4-1 1.1v.1l1.5 3.4-4.4.4h-.1zM51 48.3l1 1 3.2-.1-.1 2.5-2.1 1.4-3.5-1-.5-.6.1-2.2v-.2z"/><path fill="#595044" d="m55.1 36.6-1.7 2.7-.1 2.5L52 41v-.9l2.6-3.7zm-6.7 14.1v-1.4l1.3-2.2 1.3 1.2-1.9.8v.2l-.1 2.2z"/><path fill="#27211a" d="m53.3 41.8 2.4 1.2h.1l4.5-.4-1.6-3.4v-.1l1-1-4.6-1.5-.5-.1.4-.6 5.3 1.4 3.9 4.5.4 6.9-.1.1-3.6 3.7-4.2 1-1.1 1.8-2.6.4-4.5-2.5-.1-2.5.6.8.5.6 3.5 1 2.1-1.4.1-2.5-3.2.1-1-1-1.4-1.2.6-.9 3.4 2 4.3-1.6-.1-2.4-4.6.2-1.2-1.9v-1.4z"/><path fill="#1c1915" d="m55 35.9.1-.2 5.5-1.9 3.1 2.6 3.8 3.9.9 2 .4 6.2-.6 4.5-5.9 3.9-6.7.2-2.6-1.4 2.6-.5 1-1.7 4.3-1 3.6-3.7.1-.1-.4-7-3.9-4.5zm-4.8 10.3 1.7-2.8v-.9l1.3 1.9 4.5-.2.1 2.4-4.1 1.5z"/><path fill="none" stroke="#837f63" stroke-linecap="round" stroke-linejoin="round" stroke-opacity=".5" stroke-width="__RESOLUTION__" d="M54.6 36.5 52 40.3v.8m-3.6 9.6v-1.4l1.3-2.2" vector-effect="non-scaling-stroke"/><path fill="#595044" d="m63.8 53.9 2.3 1.4L66 57l-2.4.6h-.1l-1.2-1.4zM60.3 60l3.1.1.3 1.1v.3l-1.7 2-.8.1-2.3.4 1.4-3.7z"/><path fill="#3b352e" d="m62.3 56.2 1.2 1.3.1.1L66 57v-1.7l-2.2-1.4.9-1.3L69 55l3.7-.4-.9 3.6-3.1 2.6-1.4-.7-1.1 1.2 2.6 1.7-.7 1.8 2.8 2-2.5 2.5-1.7-.3-.7-1.3-3-.8-1.3 2-1.1-.1-.6-.9.9-.5-2-3.4 2.3-.4.8.4h2.7l.5-2-1.6-.7-.2-1.2h-3.1l.3-.9H63l.5-.7-2-1.2zm3.5 15.4"/><path fill="#27211a" d="m61.6 57.3 1.9 1.2-.5.7h-2.4v-.4zM58.9 64l2 3.3-.9.5.6.9 1.1.2 1.3-2.1 3 .8.7 1.3 1.8.3 2.4-2.5-2.8-2 .8-1.8-2.7-1.7 1.1-1.2 1.4.7 3.1-2.5.9-3.7-3.7.4-4.3-2.4.9-1.8 6-1 4 2.7 1.3 4-1.2 4.1-1.5 1.2-1.2-1-1.4.8 3.4 5.8-3.5 5-3.5 1-1.9-1.6-.2-.1v-2.1l-2.3-.5-.8 1.4-2.6.5-.2-.2-.8-1.5zm17.4 5.5"/><path fill="#4b443b" d="m63.7 61.3 1.5.8-.5 2L62 64l-.8-.4.8-.1 1.7-2z"/><path fill="#1c1915" d="m76.9 56.5.1.5 1 10.7-1.5 6.9-3 3.2-4 2.1-8.5-2.7-2.2-4.5.4-3.5.8 1.6.1.2 2.7-.5.9-1.4 2.3.5-.1 2h-.1v.1l.3.1 1.9 1.6 3.5-1 3.5-5-3.4-5.8 1.4-.8 1.3 1 1.5-1.2zm-.5 13"/><path fill="none" stroke="#837f63" stroke-linecap="round" stroke-linejoin="round" stroke-opacity=".5" stroke-width="__RESOLUTION__" d="m63.8 53.9-1.5 2.3-.7 1m-1 2-.3.8v.3L58.9 64m5.8-11.4-.9 1.3" vector-effect="non-scaling-stroke"/><path fill="#595044" d="M39 53.6h.1l.5-.2 5.1 1.9 3.1 3.8-2-.3h-.1l-.2.3-1.4-.3.1-2.2-2.6-1.4-1.9.1-1.2-.6z"/><path fill="#3b352e" d="m39 53.6-.5 1.1 1.2.6 2-.1 2.5 1.3-.1 2.3 1.4.3.2-.3h.1l2 .3 1.5 1.7.3 1.5-1.4-.2-1-1.8-2.1.3V62h-2v-2.4L40.6 57h-3l-.9-1.5.9-1.7z"/><path fill="#27211a" d="m49.6 62.3.3 1.8-.1.3-1.8.4h-.1l-.4-1.4-2.5 1v1.3l-1.6.1-2.6-2-.7-2.2 1.3-.8-2.2-1.7-1.5.4.3 1.6-2 .9-2-1.5v-3.7l1.8-2.6 1.8-.4-.9 1.7.8 1.5h3.1l2.5 2.6V62h2v-1.4l2-.3 1.1 1.8z"/><path fill="#1c1915" d="m49.8 64.4-1.2 2.2-3.5 2.3-5.2-.4-6.2-3.4-2.4-4.3.5-3.5 2-2.7 2-.4-1.8 2.6v3.7l2 1.5 2-.9-.3-1.6 1.4-.4 2.3 1.7-1.4.8.8 2.1 2.6 2.1H45v-1.4l2.5-1 .4 1.4z"/><path fill="none" stroke="#837f63" stroke-linecap="round" stroke-linejoin="round" stroke-opacity=".5" stroke-width="__RESOLUTION__" d="m47.9 59.1-3.1-3.9-5.2-1.8-.5.1H39l-1.4.3m10.3 5.3 1.4 1.7.3 1.5" vector-effect="non-scaling-stroke"/><path fill="#3b352e" d="m43.5 70 .5-1.2 1.1-.8.4.3 2.1-1.6.6 1 2.3-.6-.1-.7 3.7-.8.5-.5-.4-1.3.7-.2 2 .6.6 1.5-.9 1.2-.1.1-3.1-.4-3 2-.3 2-2.1-.2.3-1.3-2-.5-1.4 1.5z"/><path fill="#27211a" d="M43.5 70h1.4l1.4-1.4 2 .5-.3 1.3 2.1.1.4-2 2.9-1.9 3.1.4.1-.1 1-1.2-.7-1.5 1.8.6 1.4 2.5-.6 3.1-2.2 1-1.8-1 .5-1.3-1.5-.5-2.5 1.2 1.3.8-1 1.7-3 1.5-1.7-.3.2-1.2-2.3-1.1-.6 1.1h-.1l-1.8-.6-.1-.2z"/><path fill="#595044" d="m54.3 63.8.4 1.3-.6.5-3.7.8v.7l-2.2.5-.6-.9-2.1 1.6-.4-.3 4.3-3.4z"/><path fill="#1c1915" d="m43 71.7 1.8.6.7-1.1 2.3 1.1-.2 1.2 1.6.3 3-1.5 1.1-1.7-1.3-.8 2.5-1.2 1.5.5-.5 1.3 1.8 1 2.2-1 .6-3.2-1.5-2.4 2 .5 1.7 2.6v3l-3 3.4-6.8 2.2L47 76l-3-2.1z"/><path fill="none" stroke="#837f63" stroke-linecap="round" stroke-linejoin="round" stroke-opacity=".5" stroke-width="__RESOLUTION__" d="m45.1 68-1 .8-.6 1.2m13.4-5.7-2-.7-.6.1-4.9.9-4.3 3.4" vector-effect="non-scaling-stroke"/><path fill="#27211a" d="m50.4 21.8-4.5-2.4-.1-2.6 1.1 1.5 3.5 1 .5-.4 1.6-1 .1-2.6-3.2.1-2.4-2.1.6-1 3.4 2 4.3-1.5-.1-2.5-4.7.3-1.1-2V7.4l3.7 1.8.1.1 3.2-.3 1.3-.1L56 5.4v-.1l1-1.1-5-1.5.4-.6 5.3 1.3 3.9 4.5.4 7-.1.1-3.6 3.6-4.2 1-1.1 1.8z"/><path fill="#595044" d="M45.8 16.8v-1.3l.5-.9.7 1.6 3.3.9.6 1.8-.5.4-3.5-1zm3.6-9.5v-.9l.6-.8 1.8 1 3.2-.7 1.4 1.4v1.6l-3.1.3-.2-.1z"/><path fill="#3b352e" d="m46.3 14.6.8-1.3 2.3 2.1h3.2l-.1 2.4-1.6 1.1-.6-1.8-3.3-1zm3.8-9 1.9-3 5.1 1.6-1 1v.2l1.5 3.4-1.2.1V7.3L55 5.9l-3.2.7z"/><path fill="#1c1915" d="m47.6 12.3 1.7-2.7v-1l1.3 2 4.5-.3.1 2.5-4.2 1.5zm4.8-10.2.1-.2L58 0l3.1 2.6L65 6.4l.8 2 .5 6.3-.7 4.4-5.8 4-6.8.2-2.6-1.5 2.6-.4 1-1.7 4.3-1.1 3.6-3.6.1-.2-.4-6.9-3.9-4.5zm16.4 13.3 2.1-1 3.5.8 2.3 2.6.1 5.4-4.2 7.1-4.9 4-4.6.5-2.4-1.1 2.1-1-.3-1.4 2.9-.9.8 1.2 1.6-1.1 1.4-3.6-.5-2.3-1.7.3 1.3-3 1.6-.6.5 1.5 2.3-.6 1.2-2.6-1.9-3.3z"/><path fill="#27211a" d="m68.8 15.4 3.2 1 1.9 3.2-1.2 2.6-2.3.6-.5-1.5-1.7.6-1.2 3 1.8-.3.4 2.3-1.4 3.6-1.6 1-.8-1.1-2.9.9.4 1.4h-.1l-2 1-.2-.2h-.1l-.6-1.7 1.1-1 .1-2.4 2.1-1.1.8 1.2 2-1.4-1.3-2 1-4 3-2.1v-.2l-.1-1.7-1.7-.8z"/><path fill="#3b352e" d="m59.9 31.8-.5-1.5.5-3.3 1.6.2 1.1-1.1 1 .8.9-.6-1-1.9 1-4.6 1.7-1.1-.2-1.1-1.3-.2 2.1-1 1.8.7.1 1.7v.2l-3 2.1-1 4 1.3 2-2 1.4-.7-1.2-2.1 1.1-.2 2.4z"/><path fill="#595044" d="m59.9 27 .8-4.5 4-5.1 1.3.2.3 1-.1.1-1.7 1.1-1 4.6 1 2-.9.6-1-1-1 1.2z"/><path fill="none" stroke="#837f63" stroke-linecap="round" stroke-linejoin="round" stroke-opacity=".5" stroke-width="__RESOLUTION__" d="m59.9 31.8-.5-1.5.5-3.3.8-4.5 4-5.1h0l2.1-1" vector-effect="non-scaling-stroke"/><path fill="#595044" d="m65.6 32 .2-.7.9-.8.9.8-.3 1.6H67zm2.6-2.7 1.3-1.1 1.3 1-1.7 1zM69.7 40l-1.5.5-.9-2 1.3-.4z"/><path fill="#27211a" d="m65.6 32 1.4.8.2.1.1 2.4 2.7.8 1.8-2.1v-4l-1.1-.8-1.4-1 1-1 2.8.6 1.7 2.3.4 3.2-2 .5-.2 2 2 2-2.7 4.8-1.1.4H69l-1.2-1.2-1.2.5h-.1l.8 3.6 3 2.5-.8 1-4-.9-1.9-3.7-.5-5.1.4-1 1.8-.1h.2l.5-2.8-1.4-.6zm2-.7-.9-.8 1.4-1.2.9.9.4.4-.7 1.5zm1 6.8-1.2.4.8 2 1.5-.5 1.6-.5.8.4 1.3-2.1-1.6-.7z"/><path fill="#3b352e" d="m67.2 32.9.4-1.6 1.2.8.6-1.6-.4-.3 1.7-1 1 .9V34L70 36.1l-2.7-.8zm1.3 5.2 3.3-1 1.6.7-1.3 2v.1l-.7-.4-1.7.5z"/><path fill="#1c1915" d="m73.1 27.8 2.1.4 2.5 3.6.3 6.5-2.9 5.8.5 5.7-2.3 2.5-2 .6-5.2-3.1-.6-1.3 4 .8.8-.9-3-2.5-.8-3.6 1.3-.5L69 43h.1l2-.1.1.1 1-.4 2.8-4.8-2-2 .2-2 2-.5-.5-3.2zm-9.6 10.8 1.1-3.4 1.4.6-.5 2.8z"/><path fill="none" stroke="#837f63" stroke-linecap="round" stroke-linejoin="round" stroke-width="__RESOLUTION__" d="m66.7 30.5-1 .8-.2.7m2.6-2.7 1.3-1.1" vector-effect="non-scaling-stroke"/><path fill="#000" fill-opacity=".3" d="M71.9 85.3q-3.2-5.1-3.7 6.2-2.7-9.9-6.8-2L59.9 88l-2.4-1.2q-.5-2.6-4-3.5-3 3.3-5.6 13.3.1-13.8-2-13.5h-.2l-2.5 4.1q.8-10.5-3.9-9.2-2.8 1.9-3.5 4.5.6-4.1-.1-7.9-7.3-1.4-9.3 5.1-3.9-2.7-4.5 3.6-2.8-16.5-8.1-4.6-3.1-5.5-5.1-1.6l-.3-2.5 13.5-7.5 13.5 6 18 9.5 9.8.5 13.6-6.8v11q-2-8.1-4.9-2m-33.4-2.1q2 1.1-1.5 4.5-1.5-3.6 1.3-4.7z"/></g><g id="d"><path fill="#1b1712" d="M14.9 5.3v-.5l-2.2-1L12 2l-2 .3L8.9 4 9 5.8l3.5-.3h.3L15 6.8zm5 17.8-3.7 2.2-2 1.8v-1.3l-4.1-3-2.8-5.5-.1-2.7L9.8 12l4.9-.7-.8-1.5-4.3-.4-3 1L5.9 7 7 2l.4-.5 6-1.6L17 5l2.1 6.8-2.1.3h-.1l-.3 2 3.4.8.3.8zM9.3 16.8l.6-1.4 3-.7-.9-1.6-3 .2-1.7 1.9.2 1zm6.9 2.2-.3-1.4-1.5-.1-1 .2-2.4.4V20l1.3-.2.4 1.6 3.8-1.2z"/><path fill="#292520" d="M14.9 6.4v.4l-2.2-1.3h-.3l-3.5.3L8.8 4l1.3-1.7L12 2l.8 1.8 2.1 1v.5l-1.7-1H10v.6l2.3.5.5-.2zm5 8.6-3.4-.7V14l.3-2h.1l2.1-.3.1.4-.9-.1-.1 1.6 1.5.1zm-3.7 4.2.3 1.1-3.7 1.2-.5-1.6-1.3.1v-1.6l2.4-.5.1 1.3z"/><path fill="#3e372f" d="M14.9 5.3v1l-2.2-1-.5.1-2.3-.5v-.6h3.4zM.4 19.6l2.1 5.5 3.2 3.4h-.5l-3.9-2.7L0 19.9zm18.8-7.4.4 1.6-1.5-.2.1-1.5zm-10 4.7-1.7-.6-.2-1 1.7-2h3l1 1.5-3.1.6zm4.2.9 1-.2 1.4.1.4 1.4h-2.7z"/><path fill="#13110e" d="M7 2.1 5.8 7l.8 3.6 3-1.1 4.3.4.8 1.4-5 .8-2.5 2.5.1 2.7 2.8 5.5 4.2 3v1.3l1.8-1.8 3.8-2.2v1l-3.8 5.6-10.4-1.1L2.5 25 .4 19.6 2 18.4v-5.1l1.9-2.6-.6-4.1z"/></g><g id="c"><path fill="#2c2822" d="m14.8 11.5-1.3-1.1V9l-1.5.3-.7-2 .3-2.6-2.3-1.2v-.1L9.7 2l1.4.7 3.3 4.5z"/><path fill="#1d1a17" d="m9.8 2-.5 1.4 2.3 1.3-.3 2.6.7 2 1.5-.3v1.4l1.3 1.1.3 2.6-.6 1.3-1-.9.1-2-1.8-1-.8 1.1-1.6-1.3 1.2-1.8L10 6 7.5 4.2V4l.2-1.5 1.5-.7z"/><path fill="#13100d" d="m9.3 1.8-1.7.7v1.7L10 6l.6 3.5-1.2 1.8 1.6 1.3.8-1.2 1.8 1.1v2l1 1-.7 1.5-.3.1-1.7-.8.3-1.3-2.5-.7-.7 1-1.4-.9-1-3.3.5-2 1.5.3-.9-2.7-1.5-.5-.5 1.3-2-.5-.9-2.3 1.9-2.9L7.5.9z"/><path fill="#0e0c0a" d="m7.6.9-2.9.9-1.9 2.9.9 2.3 2 .5.5-1.3 1.5.5.9 2.6-1.5-.2-.5 2 1 3.3 1.4.9.7-1 2.5.7-.3 1.3 1.7.8-2.2 1.1-4-.5-4.1-3.4L0 7.9l.4-4.8L2.6.8 5.8 0z"/><path fill="none" stroke="#413f31" stroke-linecap="round" stroke-linejoin="round" stroke-opacity=".5" stroke-width="__RESOLUTION__" d="m14.8 11.5-.5-4.3-3.2-4.5L9.8 2" vector-effect="non-scaling-stroke"/></g><g id="b"><path fill="#1c1915" d="m3.5 21 1.8-1.4-.6-1.4 2.6-1.4 1 1 1.3-1.3.7-3.9-.9-2.2-1.7.7.6-3.2 1.5-1 .8 1.4 2.2-1 .6-2.9-2.5-2.7-3.4-.3L9.4 0l3.6.1 2.8 2L17 7.4l-2.6 7.9-4 4.8L6 21.6z"/><path fill="#27211a" d="m7.5 1.4 3.4.3 2.5 2.7-.6 2.8-2.2 1.1-.8-1.4-1.5 1-.6 3.2 1.7-.7.9 2.2-.7 3.9-1.3 1.3-1-1-2.6 1.4.6 1.4L3.5 21l-.2-.1h-.1l-1-1.6.9-1.2-.4-2.3 1.9-1.6 1 1.1 1.6-1.8-1.7-1.7.2-4.1L8.2 5 8 4.8l-.4-1.7-1.9-.4z"/><path fill="#3b352e" d="m5.8 2.8 1.9.3.4 1.7V5L5.8 7.7l-.2 4 1.7 1.8-1.6 1.8-1-1.1-1.8 1.6.3 2.3-.9 1.2-.8-1.3-.1-1.6 2.8-3.8-.6-1.7 1-1.9-.3-3.2H3.1l.8-1.5z"/><path fill="#595044" d="m3.1 5.9 1.1-.2.3 3.3-1 1.9.6 1.7-2.8 3.8-.2-6.3z"/><path fill="#1c1915" d="m6.7 18.4.1-.2 5.5-1.9 3.1 2.6 3.8 3.8.9 2 .4 6.3-.7 4.4-5.8 4-6.8.1-2.5-1.4 2.6-.4 1-1.7 4.2-1.1 3.6-3.6.1-.2-.3-6.9-4-4.5zM1.9 28.7l1.7-2.8v-1l1.2 2 1.3-.1 3.3-.2.1 2.5-4.2 1.5-1.6-1h-.1z"/><path fill="#27211a" d="m4.7 38.2-2.4-1.4-.4-2 2.8.8 2-1.5.2-2.5-3.2.1-1.1-1 1-1 1.7.9 4.2-1.5-.1-2.5-3.3.2-.2-2.1 1.5.7.1.1 4.4-.5-1.5-3.3-.1-.2 1-1-2.8-.9-2.2-.6.4-.6 5.3 1.3 3.9 4.5.3 7-.1.1-3.6 3.6-4.2 1-1 1.8z"/><path fill="#595044" d="M2.3 36.9.1 35.7 0 31.8l1.9-3.2 1.7 1-1 1.1L1.4 32l.5 2.9zM3.6 25l.1-2.3L6.3 19l2.2.6-2.7 2.9.1 2.2.2 2.1H4.8z"/><path fill="#3b352e" d="m2.6 30.8 1 1 3.3-.2-.2 2.5-2 1.4-2.8-.7-.5-3zm5.9-11.2 2.9.9-1.1 1v.2L12 25l-4.4.5-.1-.1-1.5-.7-.1-2.2z"/><path fill="#27211a" d="m17.9 7.7.9-1.8 6-1.1 4 2.7 1.3 4-1.1 4.2-1.5 1.2-1.3-1-1.4.7 3.4 5.9-3.4 5-3.6 1-1.9-1.6-.2-.1v-2.1L17 24l-.9 1.4-2.6.5-.2-.1-.8-1.6-.3-5.3 2 3.5-.8.5.5.9 1.1.1 1.3-2 3 .8.7 1.2 1.8.3 2.4-2.4-2.8-2 .8-1.9-2.7-1.6 1.1-1.2 1.4.7 3.2-2.6.8-3.7-3.6.5zm-4.1 6.6v-.4l1-1.6 1.9 1.2-.5.8zm15.7 10.2"/><path fill="#1c1915" d="m30 11.5.3.5.8 10.8-1.4 6.8-3 3.3-4 2-8.5-2.6-2.2-4.5.4-3.5.8 1.6.2.1 2.6-.5.9-1.4 2.3.5-.1 2.1H19l.3.2 1.9 1.6 3.6-1 3.4-5-3.4-5.9 1.4-.7 1.3 1 1.5-1.2zm-.5 13"/><path fill="#3b352e" d="m12 19 1.5 1.4 1 2.1 2-.9 3 .5 1.3-1.4-.6-.4.1-1.8h-1.2v.9l-3 1-3.9-2 .3-.5 2.8 1.1 2.6.1.6-2-2.9-1.5h-2.3l.5-1.3h2.4l.5-.8-2-1.2L18 7.7l4.4 2.4 3.6-.5-.8 3.7-3.2 2.6-1.4-.8-1.1 1.3 2.7 1.6-.8 1.9 2.8 2-2.4 2.4L20 24l-.6-1.2-3-.8-1.4 2-1.1-.1-.6-1 .9-.4zm7 7.7"/><path fill="#595044" d="m12 19 .3-.5 3.8 1.9 3-1v-.9h1.2v1.8l.5.4-1.4 1.4-2.9-.5-2 .9-1-2.1z"/><path fill="#4b443b" d="m12.5 17.9.8-2.3h2.3l2.8 1.5-.5 2-2.6-.1z"/><path fill="#27211a" d="m10.7 33 5.3 1.3 3.9 4.5.4 7-.2.1-3.6 3.6-4.2 1-1 1.8-2.7.5-4.4-2.5-.1-2.5 1 1.4 3.6 1 2-1.5.2-2.5-3.2.1-2.4-2.1.6-1 3.4 2 4.2-1.5-.1-2.5-4.6.3-1.2-2v-1.3l3.8 1.8.1.1 4.4-.5-1.5-3.3-.1-.1 1-1.1-5-1.6z"/><path fill="#1c1915" d="m8.7 52.8 2.6-.5 1-1.7 4.2-1.1 3.6-3.6.1-.1-.3-7-4-4.5-5.2-1.3.1-.2 5.4-1.9 3.2 2.6 3.8 3.8.9 2 .4 6.3-.7 4.4-5.8 4-6.8.2zM7.6 39.6l1.2 2 4.6-.2.1 2.4-4.2 1.5-3.4-2 1.7-2.7z"/><path fill="#3b352e" d="m10.3 33.6 5 1.5-1 1v.2l1.6 3.4-4.4.4-.1-.1-3.7-1.8v-.9zm-5 10.6 2.4 2.1h3.2l-.2 2.5-2 1.4-3.5-1L4 47.7v-1.2zm7.4-7.9.6-.8-3.3-.6-.4 2.6 4.2.3zM6.2 46.4l-.7.6 2.2 1.8 2.6-.5-.3-1.4-2.3.4z"/><path fill="#595044" d="m12.7 36.3 1.1 1.5-4.2-.3.4-2.6 3.3.6zM6.2 46.4l1.4.9 2.3-.4.3 1.4-2.6.5L5.3 47z"/><path fill="#27211a" d="m25.8 21.1 1-.9 2.8.6 1.6 2.2.5 3.3-2 .4-.1 2 1.9 2.1-2.8 4.7-1 .5v-.1l-2.1.1-1.2-1.3-1.3.5-.1.1.8 3.6 2.9 2.5-.8.9-4-.8-1.7-3.7-.5-5.1.3-1.1h2l.4-2.9-1.3-.6.9-3.1 1.5.8h.1l.1 2.4 2.7.9 1.8-2.1v-4zm-1.2 1.1 1.3 1.3-.7 1.5-2-1.5zm4 10.6 1.3-2.1-1.6-.8-4.4 1.5.8 2 3.2-1z"/><path fill="#3b352e" d="m25.8 21.1 2.4 1.9v4l-1.8 2.1-2.6-.9-.2-2.3-.1-.1L22 25l.3-.7.8-.8 2.1 1.5.7-1.5-1.3-1.2zm2.8 11.8-.7-.4-3.2 1-.8-2 4.4-1.5 1.6.8z"/><path fill="#1c1915" d="m21 28.1 1.4.6-.4 2.8-2 .1zm.9 13.4 4 .8.8-1-3-2.4-.7-3.6v-.1l1.4-.5 1.2 1.3 2-.1.1.1 1-.5 2.8-4.7-2-2 .1-2.1 2.1-.4-.4-3.3-1.7-2.2 2 .3 2.6 3.6.3 6.6-3 5.7.5 5.8-2.2 2.5-2 .5-5.2-3z"/><path fill="#1c1915" d="m30.9 33 .2-.2 5.4-1.9 3.2 2.6 3.8 3.8.8 2 .5 6.3L44 50l-5.9 4-6.7.2-2.6-1.5 2.6-.4 1-1.7 4.3-1.1 3.6-3.6.1-.1-.4-7-3.9-4.5zm-4.8 10.3 1.7-2.8v-1l1.3 2 4.5-.2.1 2.4-4.2 1.5z"/><path fill="#27211a" d="m28.9 52.8-4.5-2.5-.1-2.5 1.1 1.4 3.5 1 2.1-1.5.1-2.5-3.2.1-2.3-2.1.5-1 3.4 2 4.3-1.5-.1-2.5-4.7.3-1.1-2v-1.3l1 .4 2.7 1.4.1.1 4.5-.5-1.6-3.3v-.1l1-1.1-2.3-.7-2.8-.9.4-.5 5.3 1.3 3.9 4.5.4 7-.1.1-3.6 3.6-4.2 1-1.1 1.8z"/><path fill="#3b352e" d="M24.3 47.8v-1.4l1.3-2.2 2.3 2.1h3.2l-.1 2.5-2.1 1.4-3.5-1zm9-13.3 2.3.7-1 1v.2l1.6 3.4-4.5.4-.1-.1-2.7-1.4v-1.1l2.6-.7 1.3.3h.1l.8-1.3v-.2z"/><path fill="#595044" d="M27.9 38.2v-.9l2.6-3.7 2.8.8.4 1.1v.3l-.7 1.3h-.2l-1.3-.4-2.6.8v1.1z"/><path fill="none" stroke="#837f63" stroke-linecap="round" stroke-linejoin="round" stroke-opacity=".5" stroke-width="__RESOLUTION__" d="M24.3 47.8v-1.4l1.3-2.2m2.3-6v-.9l2.6-3.7" vector-effect="non-scaling-stroke"/><path fill="#1c1915" d="m41.4 47.7 2 .3 2.6 3.7.3 6.5-3 5.7.5 5.8-2.3 2.5-2 .5-5.2-3-.6-1.4 4 .9.8-1-3-2.5-.7-3.5V62l1.3-.5 1.1 1.2.1.1 2.1-.1v.1l1.1-.4 2.8-4.8-2-2 .2-2.1 2-.4L43 50zm-9.6 10.8 1-3.5 1.4.7-.5 2.7h-.1z"/><path fill="#27211a" d="M41.4 47.7 43 50l.5 3.2-2 .4-.2 2 2 2.1-2.8 4.8-1 .4-.1-.1-2 .1-.2-.1-1.1-1.2-1.3.5.8 3.6 2.9 2.5-.8 1-4-.9-1.8-3.6-.5-5.2.4-1h1.8l.1-.1.5-2.7-1.4-.7 1-3.1 1.5.8h.2v2.5l2.7.8 1.8-2.2V50l-2.4-2 1-.9zM35 50.3l1.4-1.1 1.3 1.2L37 52zm1.4 10 3.2-1 .8.5v-.1l1.3-2L40 57l-4.4 1.3z"/><path fill="#3b352e" d="m33.8 51.9.2-.7 1-.9 2 1.7.7-1.6-1.4-1.2 1.3-1.2 2.4 1.9v4L38.2 56l-2.7-.8v-2.5h-.2zm2.6 8.4-.8-2L40 57l1.7.7-1.4 2-.7-.4z"/></g><clipPath id="a"><path d="M1 1h118v150H1z"/></clipPath></defs><g clip-path="url(#a)"><g transform="translate(60.35 118.85)"><use xlink:href="#b" width="46.3" height="72.8" transform="translate(-13.7 -97.2)"/><use xlink:href="#c" width="15.1" height="18.2" transform="matrix(-.964 1.5226 .8464 .5359 42.5 -117.85)"/><use xlink:href="#d" width="20.2" height="29.7" transform="matrix(-1 0 0 1 29.3 -107.9)"/><use xlink:href="#c" width="15.1" height="18.2" transform="matrix(-1 0 0 1 40.4 -103.35)"/><use xlink:href="#d" width="20.2" height="29.7" transform="matrix(-1 0 0 1 54.7 -100.25)"/><use xlink:href="#e" width="78" height="119.3" transform="translate(-22.15 -89.5)"/><use xlink:href="#c" width="15.1" height="18.2" transform="matrix(-.7262 1.1471 .8464 .5359 24.75 -117.85)"/><use xlink:href="#d" width="20.2" height="29.7" transform="matrix(-1 0 0 1 14.95 -113.9)"/><use xlink:href="#f" width="23" height="26" transform="translate(-23.7 -64.9)"/><use xlink:href="#g" width="15.1" height="18.2" transform="rotate(8.022 792.114 -194.555)scale(.9996)"/><use xlink:href="#h" width="19.4" height="30.3" transform="rotate(-2.533 -2387.864 581.981)scale(.998)"/><use xlink:href="#i" width="23.9" height="49.1" transform="translate(-30.85 -88.85)"/><use xlink:href="#j" width="15.1" height="18.2" transform="rotate(20.092 215.351 -155.607)scale(1.427)"/><use xlink:href="#g" width="15.1" height="18.2" transform="matrix(.964 1.5226 -.8464 .5359 -43.95 -108.7)"/><use xlink:href="#h" width="19.4" height="30.3" transform="matrix(.9395 -.3393 .3393 .9395 -45.1 -92)"/><use xlink:href="#g" width="15.1" height="18.2" transform="rotate(8.022 800.94 -344.574)scale(.9996)"/><use xlink:href="#k" width="20.2" height="29.7" transform="translate(-55.85 -86.6)"/><use xlink:href="#l" width="57" height="82" transform="translate(-55.25 -50.55)"/><use xlink:href="#j" width="15.1" height="18.2" transform="translate(-35.2 -37.3)"/><use xlink:href="#m" width="41.7" height="69.1" transform="translate(-54.8 -62)"/></g></g></svg>