<svg xmlns="http://www.w3.org/2000/svg" xmlns:xlink="http://www.w3.org/1999/xlink" width="56" height="50" viewBox="0 0 56 50"><defs><clipPath id="a"><path d="M1 1h54v48H1z"/></clipPath><g id="b"><path fill="#000" fill-opacity=".3" d="M51.9 34.1q-13 5.3-26 13.6L1 34.7q13.8-5 26-13.7z"/><path fill="#4d4f31" d="m45.3 25.5-1.5 1-.5 1.6-1.6-.5v-2.7l3.5-1.9z"/><path fill="#473a2e" d="m41.7 27.6 1.5.5.6-1.6 1.5-1V35l-3.6 1.9z"/><path fill="#5e613d" d="M41.7 24.9v2.7l-1.6.1H40l-1-1.6-1.5-.3v-3.3zm0 5v.1l-1.5 1.7-.7-1.4.5-1z"/><path fill="#684f36" d="M41.7 27.6v2.3l-1.8-.7-.5 1.1.8 1.4 1.4-1.7v7l-4.1-2.4v-8.7l1.5.3 1 1.6h.1z"/><path fill="none" stroke="#000" stroke-linecap="round" stroke-linejoin="round" stroke-opacity=".3" stroke-width="__RESOLUTION__" d="M45.3 25.5V23l-3.6 1.9-4.2-2.4v12l4.1 2.4 3.6-1.9z" vector-effect="non-scaling-stroke"/><path fill="#4d4f31" d="m29.6 33.2-1.4 1-.6 1.5-1.6-.5v-2.7l3.6-1.9z"/><path fill="#473a2e" d="m26 35.2 1.6.5.6-1.6 1.4-1v9.5L26 44.5z"/><path fill="#5e613d" d="M26 32.5v2.7l-1.5.1h-.2l-.9-1.6-1.6-.3v-3.2z"/><path fill="#684f36" d="M26 35.2v9.3l-4.2-2.4v-8.7l1.6.3 1 1.6h.1z"/><path fill="none" stroke="#000" stroke-linecap="round" stroke-linejoin="round" stroke-opacity=".3" stroke-width="__RESOLUTION__" d="M29.6 33.2v-2.6L26 32.5l-4.2-2.4v12.1l4.2 2.3 3.6-1.9z" vector-effect="non-scaling-stroke"/><path fill="#4d4f31" d="m13.6 25.4-1.4 1-.6 1.5-1.6-.5v-2.7l3.6-1.9z"/><path fill="#473a2e" d="m10 27.4 1.6.5.6-1.5 1.4-1v9.4l-3.6 2z"/><path fill="#5e613d" d="M10 24.7v2.7l-1.5.2h-.2l-.9-1.7-1.6-.2v-3.3zm0 5v.2l-1.5 1.7-.7-1.4.5-1.1z"/><path fill="#684f36" d="M10 27.4v2.3l-1.7-.6-.6 1.1.8 1.4 1.5-1.7v6.9l-4.2-2.4v-8.7l1.6.2 1 1.7h.1z"/><path fill="none" stroke="#000" stroke-linecap="round" stroke-linejoin="round" stroke-opacity=".3" stroke-width="__RESOLUTION__" d="M13.6 25.4v-2.6l-3.6 2-4.2-2.4v12l4.2 2.4 3.6-2z" vector-effect="non-scaling-stroke"/><path fill="#785b3f" d="m26.5.4 4.2 2.1-6.2-1.1zm23 11.5 3.3 1.6-1.7.9zM.4 14.4l1.7-.9q11.2 3.5 18.5 8.2 3.6 2.2 6.2 4.8l-1.4.6-4.8-2.4-3.1-1.6-7.3-3.7-5.9-3zm5.3-2.9h.2l5.5-3q6.5 4.7 16.9 9.5 3.8 1.8 8.3 3.6l-4.2 2.1q-2.6-2.6-6.2-4.7-7.9-4.8-20.5-7.4m8.8-4.8 4-2Q31.9 6.1 42 11.2l2.5 1.4 4.3 2.8-3 1.5-4.9 2.4Q38 17.1 34.5 15q-8-4.6-20-8.2"/><path fill="#826344" d="m30.7 2.5 18.8 9.4 1.5 2.5-2.2 1.1-4.3-2.8-2.5-1.4q-10.1-5-23.5-6.6l6-3.3zm-28.6 11 3.3-1.8.2-.1h.1q12.6 2.6 20.5 7.4 3.6 2.1 6.2 4.7l-5.6 2.8q-2.6-2.6-6.2-4.8-7.3-4.7-18.5-8.2m9.3-5 .5-.3 2.5-1.4q12 3.6 20 8.2 3.5 2.1 6.4 4.4l-4.3 2.2Q32 19.8 28.1 18 18 13.2 11.5 8.5"/><path fill="#4c3928" d="M52.8 13.5v5.3l-6 3.2-1-5 3-1.5 2.3-1.1zm-20 16-7.3 3.8v-6.1l1.4-.7 5.6-2.8q-.4.6.3 5.7"/><path fill="#413123" d="m46.8 22-14.1 7.4q-.7-5-.4-5.7l4.3-2.1 4.3-2.2 5-2.4z"/><path fill="#624a33" d="m25.5 33.3-5-2.6q-1.2-2.6.1-6l4.8 2.4zm-10.9-5.7-4.4-2.3.1-5.9 7.3 3.7v.1q.1 4-3 4.4m-10-5.2-4-2-.1-6 4 2z"/><path fill="#684f36" d="m20.5 30.7-6-3.1q3.1-.4 3-4.4v-.1l3.1 1.6q-1.3 3.4 0 6M10 25.3l-5.6-2.9-.2-6 5.9 3z"/><path fill="none" stroke="#684f36" stroke-linecap="round" stroke-linejoin="round" stroke-width="__RESOLUTION__" d="m26.5.4 4.2 2.1 18.8 9.4 3.3 1.6M18.5 4.7Q31.9 6.2 42 11.3l2.5 1.4 4.3 2.8m-22 11q-2.6-2.6-6.2-4.8-7.3-4.7-18.5-8.2m30.3 10.2q-2.6-2.6-6.2-4.7-7.9-4.8-20.5-7.4h0m35.2 7.8Q38 17.1 34.5 15q-8-4.6-20-8.2m22.1 14.8q-4.5-1.8-8.4-3.6Q18 13.2 11.5 8.5" vector-effect="non-scaling-stroke"/><path fill="none" stroke="#000" stroke-linecap="round" stroke-linejoin="round" stroke-opacity=".3" stroke-width="__RESOLUTION__" d="M52.8 13.5v5.3l-6 3.2-14.1 7.4-7.3 3.9-4.9-2.6-6-3.1-4.4-2.3-5.6-2.9-4-2-.1-6 1.7-.9 3.3-1.8m.4-.3 5.5-2.9m.1 0 .5-.3 2.5-1.4 4-2 6-3.4 2-1" vector-effect="non-scaling-stroke"/><path fill="#a74343" d="m35.7 4.4-9.5 5.1-.5.3.6-.3zl-1.8-1L23.8 9l-1.4 2q2.3-1.2 3.3-1.2l.4.2-1 1.3 3-1.3 9-4.8zm6.6 3.3 1.5.8 2.8 1.4-11.3 6 .6-2.1-1.3-.4q2-.7 1.9-1l-.2-.2q-.2-.6-1.6-.4zm-5.8 4.6 7.3-3.9zM18.7 14q-1.9.7-3.2 2.7l-5.2 2.8-1.4-.7-2-1 7-3.7.3 1.5.1.2.4-.2 1.3-.7zm2 5.3 2.3.2q1-.1 2.1-.6-2.4 2.1-1.3 3l-4.4 2.3-2.5-1.3-1.6-.8zm-3.4 12.4-.4-.2-1.6-.9q.7-1.6.4-5.6.8 1.5 1.2 3.7.3 1.3.4 3m-4.9-2.6L9 27.3l-.2-.1.2-.7q.5-1.8 1.7-3.2-.3 2.3 1.7 5.8M8.8 18.7l5.5-2.9zm.1 8.5v-.8zm7.9 4.2v-2.8zm.1-8.6 6.1-3.4z"/><path fill="#893636" d="m28.1 10 9-4.8 5.2 2.5-7.6 4.1-1.2.2-2.2.3 1.7-1.1-2.6.9q-2.2 0-1.3-.5 2.1-1.7 2.1-2.4zm-12.7 6.7 2.3.7h.4q1.8-.2 3.5-1-2.8 1.8-1.6 2.5l.6.4-5.3 2.8-5-2.6z"/><path fill="#b55" d="M19.3 24.2v8.7l-2.1-1.2q-.1-1.7-.4-3l.1-5.8-1.6-.8-5-2.6-1.4-.7-2-1v8.4l1.8 1 .2-.7v-7.7 7.7q.5-1.8 1.7-3.2-.3 2.3 1.7 5.8l2.9 1.5q.7-1.6.4-5.6.8 1.5 1.2 3.7l.1-5.8z"/><path fill="none" stroke="#684f36" stroke-linecap="round" stroke-linejoin="round" stroke-width="__RESOLUTION__" d="m25.7 9.8.6-.3 9.4-5m8 4-7.2 3.9m-22.2 3.4.4-.2m-.4.2-5.5 3m14.2.7L17 23" vector-effect="non-scaling-stroke"/><path fill="none" stroke="#000" stroke-linecap="round" stroke-linejoin="round" stroke-opacity=".3" stroke-width="__RESOLUTION__" d="M22.4 11q2.3-1.2 3.3-1.2h0l.4.2m-1 1.3 3-1.3 3.1-.8m4.7 4.6-1.3-.4q2-.7 1.9-1l-.2-.2q-.2-.6-1.6-.4l-1.2.2-2.2.3 1.7-1.1-2.6.9q-2.2 0-1.3-.5M18.7 14q-1.9.7-3.2 2.7m6.1-.4Q18.8 18.2 20 19l.6.4m2.4.2q1-.1 2.1-.6-2.4 2.1-1.3 3m22.7-12-11.2 6m-11.5 6-4.4 2.3h0V33l-2.2-1.2-.4-.2-1.6-.9-2.9-1.5L9 27.3l-.2-.1-1.7-1" vector-effect="non-scaling-stroke"/><path fill="none" stroke="#785b3f" stroke-linecap="round" stroke-linejoin="round" stroke-width="__RESOLUTION__" d="M8.9 18.8v8.5m8-4.4v5.8l-.1 2.8" vector-effect="non-scaling-stroke"/></g></defs><g clip-path="url(#a)"><use xlink:href="#b" width="53.1" height="47.7" transform="translate(1 1)"/></g></svg>