<svg xmlns="http://www.w3.org/2000/svg" xmlns:xlink="http://www.w3.org/1999/xlink" width="62" height="114" viewBox="0 0 62 114"><defs><g id="t"><path fill="#2f3e46" d="m16.6 5.8-3.2 2.7L10 7 6.9 5.6l-2.4-1L0 2.7 6.6 0z"/><path fill="#283235" d="m13.4 8.5 3.2-2.7-.5 84.2-2.7 2.5z"/><path fill="#1e252c" d="m0 2.8 4.5 1.7 2.4 1.1L10.1 7l3.3 1.5v84L8.2 90l-.5-.2-.1-3.5-.5 3.3-1.4-.6-.6-.2-.6-.3q-2.2-1-4.5-1.7 1.9-41.1 0-84M10 35q2.4-13.1 0-28 2.4 14.9 0 28M7 22.5Q4.5 15 6.9 5.6q-2.4 9.4 0 16.9M5.1 55.8Q2.9 71.3 4.9 87l.2 1.8-.2-1.8q-2-15.7.2-31.2m-.7-7.5q-2.6-21.5 0-43.7-2.6 22.2 0 43.7M8.2 35q3.2 28.4 0 55 3.2-26.6 0-55"/><path fill="none" stroke="#121517" stroke-linecap="round" stroke-linejoin="round" stroke-width="__RESOLUTION__" d="M10 7q2.4 14.9 0 28M5.2 88.8 4.9 87q-2-15.7.2-31.2" vector-effect="non-scaling-stroke"/><path fill="none" stroke="#2f3e46" stroke-linecap="round" stroke-linejoin="round" stroke-width="__RESOLUTION__" d="M6.9 5.6q-2.4 9.4 0 16.9m-2.4-18q-2.7 22.3-.1 43.8M8.2 90q3.2-26.7 0-55.1" vector-effect="non-scaling-stroke"/></g><g id="s"><path fill="#121921" d="M10 35q2.4-13.1 0-28 2.4 14.9 0 28M0 2.8l4.5 1.7 2.4 1.1L10.1 7l3.3 1.5v84L8.2 90l-.5-.2-.1-3.5-.5 3.3-1.4-.6-.6-.2-.6-.3q-2.2-1-4.5-1.7 1.9-41.1 0-84m5.1 53Q2.9 71.3 4.9 87l.2 1.8-.2-1.8q-2-15.7.2-31.2m1.8-33.3Q4.5 15 6.9 5.6q-2.4 9.4 0 16.9M4.4 48.3q-2.6-21.5 0-43.7-2.6 22.2 0 43.7M8.2 35q3.2 28.4 0 55 3.2-26.6 0-55"/><path fill="#25353e" d="M13.4 8.5 10 7 6.9 5.6l-2.4-1L0 2.7 6.6 0l10 5.8z"/><path fill="#0c1213" d="m13.4 8.5 3.2-2.7-.5 84.2-2.7 2.5z"/><path fill="none" stroke="#05070a" stroke-linecap="round" stroke-linejoin="round" stroke-width="__RESOLUTION__" d="M10 7q2.4 14.9 0 28M5.2 88.8 4.9 87q-2-15.7.2-31.2" vector-effect="non-scaling-stroke"/><path fill="none" stroke="#25353e" stroke-linecap="round" stroke-linejoin="round" stroke-width="__RESOLUTION__" d="M6.9 5.6q-2.4 9.4 0 16.9m-2.4-18q-2.7 22.3-.1 43.8M8.2 90q3.2-26.7 0-55.1" vector-effect="non-scaling-stroke"/></g><g id="r"><path fill="#1e2a37" d="M10 35q2.4-13.1 0-28 2.4 14.9 0 28M0 2.8l4.5 1.7 2.4 1.1L10.1 7l3.3 1.5v84L8.2 90l-.5-.2-.1-3.5-.5 3.3-1.4-.6-.6-.2-.6-.3q-2.2-1-4.5-1.7 1.9-41.1 0-84m5.1 53Q2.9 71.3 4.9 87l.2 1.8-.2-1.8q-2-15.7.2-31.2m1.8-33.3Q4.5 15 6.9 5.6q-2.4 9.4 0 16.9M4.4 48.3q-2.6-21.5 0-43.7-2.6 22.2 0 43.7M8.2 35q3.2 28.4 0 55 3.2-26.6 0-55"/><path fill="#3d5867" d="M13.4 8.5 10 7 6.9 5.6l-2.4-1L0 2.7 6.6 0l10 5.8z"/><path fill="#151e20" d="m13.4 8.5 3.2-2.7-.5 84.2-2.7 2.5z"/><path fill="none" stroke="#090d12" stroke-linecap="round" stroke-linejoin="round" stroke-width="__RESOLUTION__" d="M10 7q2.4 14.9 0 28M5.2 88.8 4.9 87q-2-15.7.2-31.2" vector-effect="non-scaling-stroke"/><path fill="none" stroke="#3d5867" stroke-linecap="round" stroke-linejoin="round" stroke-width="__RESOLUTION__" d="M6.9 5.6q-2.4 9.4 0 16.9m-2.4-18q-2.7 22.3-.1 43.8M8.2 90q3.2-26.7 0-55.1" vector-effect="non-scaling-stroke"/></g><g id="q"><path fill="#3c4f5a" d="m16.6 5.8-3.2 2.7L10 7 6.9 5.6l-2.4-1L0 2.7 6.6 0z"/><path fill="#333f44" d="m13.4 8.5 3.2-2.7-.5 84.2-2.7 2.5z"/><path fill="#262e38" d="m0 2.8 4.5 1.7 2.4 1.1L10.1 7l3.3 1.5v84L8.2 90l-.5-.2-.1-3.5-.5 3.3-1.4-.6-.6-.2-.6-.3q-2.2-1-4.5-1.7 1.9-41.1 0-84M10 35q2.4-13.1 0-28 2.4 14.9 0 28M7 22.5Q4.5 15 6.9 5.6q-2.4 9.4 0 16.9M5.1 55.8Q2.9 71.3 4.9 87l.2 1.8-.2-1.8q-2-15.7.2-31.2m-.7-7.5q-2.6-21.5 0-43.7-2.6 22.2 0 43.7M8.2 35q3.2 28.4 0 55 3.2-26.6 0-55"/><path fill="none" stroke="#171a1d" stroke-linecap="round" stroke-linejoin="round" stroke-width="__RESOLUTION__" d="M10 7q2.4 14.9 0 28M5.2 88.8 4.9 87q-2-15.7.2-31.2" vector-effect="non-scaling-stroke"/><path fill="none" stroke="#3c4f5a" stroke-linecap="round" stroke-linejoin="round" stroke-width="__RESOLUTION__" d="M6.9 5.6q-2.4 9.4 0 16.9m-2.4-18q-2.7 22.3-.1 43.8M8.2 90q3.2-26.7 0-55.1" vector-effect="non-scaling-stroke"/></g><g id="p"><path fill="#17202a" d="M10 35q2.4-13.1 0-28 2.4 14.9 0 28M0 2.8l4.5 1.7 2.4 1.1L10.1 7l3.3 1.5v84L8.2 90l-.5-.2-.1-3.5-.5 3.3-1.4-.6-.6-.2-.6-.3q-2.2-1-4.5-1.7 1.9-41.1 0-84m5.1 53Q2.9 71.3 4.9 87l.2 1.8-.2-1.8q-2-15.7.2-31.2m1.8-33.3Q4.5 15 6.9 5.6q-2.4 9.4 0 16.9M4.4 48.3q-2.6-21.5 0-43.7-2.6 22.2 0 43.7M8.2 35q3.2 28.4 0 55 3.2-26.6 0-55"/><path fill="#2f4450" d="M13.4 8.5 10 7 6.9 5.6l-2.4-1L0 2.7 6.6 0l10 5.8z"/><path fill="#101719" d="m13.4 8.5 3.2-2.7-.5 84.2-2.7 2.5z"/><path fill="none" stroke="#070a0e" stroke-linecap="round" stroke-linejoin="round" stroke-width="__RESOLUTION__" d="M10 7q2.4 14.9 0 28M5.2 88.8 4.9 87q-2-15.7.2-31.2" vector-effect="non-scaling-stroke"/><path fill="none" stroke="#2f4450" stroke-linecap="round" stroke-linejoin="round" stroke-width="__RESOLUTION__" d="M6.9 5.6q-2.4 9.4 0 16.9m-2.4-18q-2.7 22.3-.1 43.8M8.2 90q3.2-26.7 0-55.1" vector-effect="non-scaling-stroke"/></g><g id="o"><path fill="#728792" d="M1.6 1.4 1 1.3Q.6 1 .6.8q0-.4.4-.6L2 0l1.1.2.5.6q0 .2-.5.5l-.7.1zM2.9.3 2 .2l-.8.1-.4.3q0 .2.4.3l.8.2.9-.2.4-.3z"/><path fill="#314248" d="M2.4 1.4V2h-.8v-.5h.8"/><path fill="url(#a)" d="M14-75.9v.6l1.2.8.5.8v6.7q0 .3-.6.5l-1.5.3-1.4-.2q-.7-.2-.7-.6v-6.7l.9-1.1.7-.5v-.6zm.8 3h-.4v.3l-.1.4q.6.2.7-.4zm-1.1-1-.2-.4h-.2l-.1.2q-.8-.1-.6 1 0 .2.2.2 1.4.1.9-1m-.3 1.8v.3h.2l.3-.1-.1-.3h-.4m-.4.6h.2q-.3-.1-.4.3h.4v-.1zm2 1.3-.1-.7-.4-.4h-.3.2v.7q-1-.1-2 .6l-.2.2.2 1 .1 1.1v.4h-.1l.1.2v-.2l2.5.3.1-.1q.3-1.2.1-2.4z" transform="translate(-11.5 77.85)"/><path fill="#1c2733" d="m2.9.3.4.3-.4.3-.9.2-.8-.2Q.8 1 .8.6l.4-.3.8-.1z"/><path fill="#7afefe" d="M2.8 5.3V5h.4l.1.3-.4.1zm0 2.1v-.6h-.2v-.1h.2l.1.1.4.3.1.7v1q-.1 1.3-1 2v-1l.3-1.3z"/><path fill="#465861" d="m2.8 5.3.1.1.4-.2-.1-.2.2.3q-.1.5-.7.4zM2.1 4q.5 1.2-.9 1L1 4.9q-.2-1.2.6-1l.1-.2H2zm-.3 1.9h.4l.1.2-.3.2h-.2zm-.4.5.2.2v.1h-.4q0-.4.4-.3z"/><path fill="#01cdcd" d="m2.8 7.3-.1 1.1h-.3l-.3.2H1l-.2-.2V8q1-.7 2-.7"/><path fill="#01a9a8" d="m2.7 8.4-.3 1.3v1q.9-.7 1-2v-1l.2.7q.1 1.3-.1 2.4l-.1.1-2.5-.2v.1l-.1-.2.1.1v-.4L.8 9 .7 8l.1-.2v.5l.2.1 1 .1.4-.2z"/><path fill="none" stroke="#466875" stroke-linecap="round" stroke-linejoin="round" stroke-width="__RESOLUTION__" d="m2.4 2.5 1.3.9.5.8v6.6h0q0 .4-.6.6l-1.5.2-1.4-.2q-.7-.2-.7-.6h0V4l.9-1 .7-.6" vector-effect="non-scaling-stroke"/></g><g id="n"><path fill="#637478" d="m.8.1.5-.1 1 .2.4.4-.5.5-.9.1-.9-.1V1zm.8.5q-.5 0-.1.3.5.1.6-.3L2 .4h-.2z"/><path fill="#141c24" d="M.4 1 0 .6.4.2.8.1z"/><path fill="#9e9d9b" d="M1.7.5H2l.1.1q0 .4-.5.3h-.1q-.4-.4.1-.4"/></g><g id="m"><path fill="#728792" d="M1.5 1.5 1 1.3Q.5 1 .5.8q0-.4.5-.6L2 0l1.1.2.4.6-.4.5-.7.2zM3 .3 2 .2l-.9.1-.3.4q0 .2.3.3H2l.9-.1.4-.3z"/><path fill="#314248" d="M2.4 1.5V2h-.8v-.5z"/><path fill="url(#b)" d="M7.1-83.7v.6l1.2.8.5.8v6.7q0 .3-.6.5l-1.4.3-1.5-.2q-.6-.2-.6-.6v-6.7l.8-1.1.7-.6v-.5zm-1.2 3q1.3.3.8-1l-.2-.2h-.1l-.2.1q-.8-.1-.5 1zm2 0h-.3l-.1.1v.7q.5 0 .7-.5zM8-78l-.1-.6-.4-.4h-.3.1v.7q-1-.1-1.9.6l-.2.2.2 1v1.6-.1.2-.2l2.6.3v-.1q.3-1.2.2-2.4zm-1.4-1.9h-.2v.4h.2l.3-.1zm-.5.8-.1-.2h.1q-.3-.1-.4.3z" transform="translate(-4.65 85.65)"/><path fill="#1c2733" d="m2.9.3.4.4-.4.3H1.1Q.8.9.8.7l.3-.4.9-.1z"/><path fill="#465861" d="M1.2 5 1 4.9q-.2-1.2.6-1l.1-.2H2l.2.3q.4 1.2-.9 1m1.6.3.1.2.4-.2-.1-.3.2.3q-.1.5-.7.4zM2 6h.2l.1.3-.3.1h-.2V6zm-.4.8h-.4q0-.4.3-.3z"/><path fill="#7afefe" d="M2.8 5.3V5h.4l.1.3-.4.2zm0 2.2v-.7h-.2v-.1h.2l.1.1.4.4.1.6v1q-.1 1.4-1 2v-1l.2-1.3z"/><path fill="#01cdcd" d="m2.8 7.4-.2 1h-.2l-.4.3-1-.1-.2-.2V8q1-.7 2-.6"/><path fill="#01a9a8" d="m2.6 8.4-.2 1.3v1q.9-.6 1-2v-1l.2.8q.1 1.2-.1 2.4h-.1l-2.5-.2v.2l-.1-.3.1.1v-.4L.8 9.2Q.6 8.7.6 8h.2v.4l.2.2h1l.4-.1z"/><path fill="none" stroke="#466875" stroke-linecap="round" stroke-linejoin="round" stroke-width="__RESOLUTION__" d="m2.4 2.6 1.3.8.5.8v6.6h0q0 .4-.6.6l-1.5.3-1.5-.3q-.6-.2-.6-.5V4.2L1 3l.6-.6" vector-effect="non-scaling-stroke"/></g><g id="l"><path fill="#93667a" d="M1.6 1.5 1 1.3.6.8q0-.4.4-.6L2 0l1.1.2q.4.2.4.6l-.4.5-.6.2zM2 .2l-.8.1Q.8.5.8.7l.4.3.8.1.9-.2.4-.2-.4-.4z"/><path fill="#623242" d="M2.5 1.5V2h-1v-.5z"/><path fill="url(#c)" d="M3.4 1.6V2l1.2.9.6.8v6.6q0 .4-.7.6l-1.5.3-1.4-.3q-.7-.2-.7-.6H1V3.8l.9-1.1.6-.6v-.5zM2.5 6q-.3-.1-.4.3h.4L2.4 6zm-.4-1.4q1.4.2 1-1l-.2-.3h-.2l-.2.2q-.8-.1-.5 1zm2 0h-.4v.7q.5.1.6-.5l-.1-.1zm-1.5 1 .1.3H3l.3-.2-.1-.2h-.4zm1.5 1.7v-.6l-.4-.4h-.2l-.1-.1.1.1V7q-1-.2-1.9.5l-.2.2.1 1L2 10v.4l-.1-.1v.3-.2l2.6.2q.3-1.2.1-2.4z" transform="translate(-.95 .4)"/><path fill="#521d32" d="m2 .2.9.1.4.4-.4.3H2L1.2.9.8.8q0-.2.4-.4z"/><path fill="#724255" d="M1.6 6.4h-.2l.2.3h-.4q0-.4.4-.3M1.2 5 1 4.9q-.2-1.2.6-1l.2-.2h.1l.2.3q.4 1.2-.9 1m1.6.3.2.2.3-.2-.1-.3.2.3q-.1.5-.7.4zm-1 .8h.4l.1.3-.3.1h-.2z"/><path fill="#99c0cc" d="M2.8 5.3V5h.4l.1.3-.3.2zm0 2.2v-.7h-.2v-.1h.2l.2.1.3.4.1.6v1q-.1 1.4-1 2v-1l.3-1.3z"/><path fill="#3d9ba7" d="m2.8 7.4-.1 1h-.3l-.4.3-1-.1-.2-.2V8q1-.7 2-.6"/><path fill="#3d808b" d="m2.7 8.4-.3 1.3v1q.9-.6 1-2v-1l.2.8q.1 1.2-.1 2.3l-.1.1-2.5-.2v.2l-.1-.3.1.1v-.4L.8 9 .7 8h.2-.1v.4l.2.2h1l.4-.1z"/><path fill="none" stroke="#724e64" stroke-linecap="round" stroke-linejoin="round" stroke-width="__RESOLUTION__" d="m2.5 2.6 1.1.8.6.8v6.6h0q0 .4-.6.6l-1.5.3-1.4-.3q-.7-.2-.7-.6h0V4.2L1 3l.7-.5" vector-effect="non-scaling-stroke"/></g><g id="k"><path fill="#764456" d="M5.1 1.7q.6-.2.6-.5L5.1.6 3.6.3 2 .6q-.7.2-.7.6t.7.5l1.5.3zm-2.4.9-1-.4Q1 2 1 1.4q0-.5.8-1L3.6 0l1.9.4q.8.4.8.9t-.8 1l-1.1.3z"/><path fill="#4b1325" d="M5.1 1.7 3.6 2 2 1.7q-.7-.2-.7-.5 0-.4.7-.6L3.6.3 5 .6l.6.6q0 .3-.6.5"/><path fill="#552130" d="M4.4 2.6v.9H2.7v-1l.9.1z"/><path fill="url(#d)" d="M.7-6.8v1q1.2.6 2 1.5l1 1.4V8.9q0 .6-1 1l-2.7.4-2.6-.4q-1.1-.4-1.1-1V-3L-2-5l1.1-.8v-1zm1.2 5.4-.4-.1h-.2l-.2.1h.1v.4q-.2.4-.1.9.9 0 1.2-.8l-.2-.5zm.4 4.7L2 2.2l-.7-.6-.1-.1H1l-.2-.1v.1l.2.1v1.2q-1.7-.3-3.3 1l-.3.3.1 1.9q.3.8.3 1.8v.8l-.2-.1.1.4v-.3q2.2 1 4.6.4.6-2.1.3-4.3zM.3.1-.2 0l-.1.1h-.2v.7H0L.4.6zM-.9-3.5q-1.5-.2-1 1.9l.3.2Q.8-1.1 0-3.2l-.3-.5h-.4zm-.2 4.6L-1 1q-.5-.2-.5.6h.5l.1-.1q0-.3-.2-.4" transform="translate(3.7 10.3)"/><path fill="#7a808c" d="M4.9 9.3v-.4H5l.2-.1h.4V9l.2.5-.6.3-.2-.2zm-.1 3.8v-1.2l-.2-.1v-.1h.2l.2.1.2.1.6.6.2 1.1v1.8q-.2 2.4-1.7 3.6-.3-.8 0-1.8l.4-2.3z"/><path fill="#602c3d" d="M5.6 8.9h.2l.2.5q-.3.8-1.2.8-.1-.5.1-.9v.2l.3.2.6-.3zm-1.7 1.5.2.5-.5.3-.4-.1v-.6l.1-.1.3-.1zM2.8 6.8l.3-.2h.3l.3.5q.8 2.2-1.6 1.8l-.3-.2q-.5-2.1 1-1.9m-.2 4.6q.3.1.2.4l-.1.1h-.5q0-.8.5-.6z"/><path fill="#3d6874" d="m4.8 13-.1 2-.5.1-.6.3-1.8-.2-.5-.2v-.5l.2-.2V14q1.6-1.3 3.3-1"/><path fill="#3d5561" d="m4.7 14.9-.5 2.3q-.2 1 .1 1.8 1.5-1.2 1.7-3.6v-1.8l.4 1.4q.3 2.2-.2 4.3H6q-2.4.6-4.5-.4v.3l-.2-.4.2.1v-.8q0-1-.2-1.9l-.2-1.8.3-.2-.2.2v.5l.5.3 1.8.1.6-.3z"/><path fill="none" stroke="#603447" stroke-linecap="round" stroke-linejoin="round" stroke-width="__RESOLUTION__" d="M4.4 4.5q1.2.6 2 1.5l1 1.4v11.8q0 .6-1 1l-2.7.4-2.6-.4q-1.1-.4-1.1-1V7.3l1.6-2 1.1-.8" vector-effect="non-scaling-stroke"/></g><g id="j"><path fill="#94adb4" d="m.8.1.5-.1 1 .2.4.4-.5.5-.9.1-.9-.1V1zm.8.5q-.5 0-.1.3.5.1.6-.3L2 .4h-.2z"/><path fill="#1e2a37" d="M.4 1 0 .6.4.2.8.1z"/><path fill="#eceae8" d="M1.7.5H2l.1.1q0 .4-.5.3h-.1q-.4-.4.1-.4"/></g><g id="i"><path fill="#4e6774" d="M0 17.3 33.8 0l5.9 3.5 1.1.7q5.7 3.3 9.4 5.2l5.3 2.7 1.6.8.4.2 1.6.8-2.1 1.9v.1l2-.4 2.4-.7 6.1 2.4-6.8 4.2q-1.7-1.4-4-1h-.2l-.4.3-5.9-.4q1.3 1.4 3.7 2l.8.1v.9l.4.9.1.2-.5.3h.1q-10.1 5.4-21 9.7l-2-.8-1.6-.6-8.5-3.9-2-1-4.7-2.3-10.6-5.9-1.4-.8zM24.4 7 3 19zm17 11.2q5.5-4.4 14.1-6.1-8.6 1.7-14.1 6m-27-4.1-10 5.9zm2 4.3Q27 9 40.9 4.2 27 9 16.4 18.2m34.5 5q-8 5.7-19.1 10.4 11.1-4.7 19-10.4m-34.6-7q8.4-9 23.5-12.7-15.2 3.8-23.5 12.7m25.9 10.1L30.2 33zm-7.6-15.2Q27 19.9 15 25.8q12.1-6 19.5-14.7m13.2 1.6q-17.3 5-28 15.5 10.7-10.4 28-15.5m-9.4 7.5q-9.7 2.7-16.6 9 6.9-6.3 16.7-9M35 26.8q12.8-5.6 22.4-13.7-9.6 8.1-22.4 13.7"/><path fill="#3d5867" d="M59.1 13.9v1.6l-2 .4-.1-.1z"/><path fill="#314248" d="M67.5 17.2q-1.6 5.6 0 9.3l-2.2.8-.8-1.2-2.5.2v.1q-.7 1.4-1 2.7-8.1 3.4-15.8 7.6l-.7-.7v-1.2q.3-.7 0-1H43q-.1 3.2-3 3.9l-2 .3-.6-.9-.3.5q-.7 2.3-1 4.4l-2.5 1.7q1-3.3.6-6.5l-.5-2.8q10.9-4.2 21-9.6 1 1 2.2 1.3h.2l.3-.1.2-.4q0-.7.3-1.2l.1-.1 1.3-.1 1-.6.5-1q-.4-.5.3-1.1l.4-.4-.9.4v-.1z"/><path fill="#376654" d="M65.3 27.3 61 29.1q.3-1.4 1-2.7v-.1l2.5-.2zm-20.1 9.5q-4.6 2.5-9 5.3.3-2.2 1-4.5l.3-.5.6 1 2-.5q2.9-.6 3-3.8h1.4q.3.3 0 1V36zm15.7-15.3.8-.4-.5.4q-.6.6-.2 1l-.4 1-1.1.7-1.3.1-.1.1-.3 1.2-.2.4-.3.1H57q-1.2-.4-2.2-1.4h-.1l.5-.3.1.2h.2l5.4-2.8z"/><path fill="#1e2a37" d="m33.8 43.7-6.2-3.9q.3-2.1-.5-4.3l-3 1-.7-.5-.4-1.5-1.2 2.1Q11.3 31 0 26.5q.9-2.6.7-5.4-.2-1.9-.7-3.9l3 1.9 1.4.8L15 25.8l4.6 2.3 2 1 8.6 3.9 1.6.6 2 .8.5 2.8q.4 3.2-.5 6.5M9.1 27.2l25.1 10zM23 31.7Q12.4 25.1.6 21.1q11.7 4 22.3 10.6"/><path fill="#2d5344" d="m27.6 39.9-5.8-3.3 1.2-2 .4 1.4.7.5 3-1q.8 2.2.4 4.4"/><path fill="#3c6f5b" d="m55.2 24.4-.1-.2-.4-.9v-.9l-.8-.1q-2.4-.6-3.7-2l5.9.4.4-.3h.2q2.3-.4 4 1v.1l.1.3-5.3 2.8h-.1z"/><path fill="none" stroke="#587681" stroke-linecap="round" stroke-linejoin="round" stroke-width="__RESOLUTION__" d="M3 19 24.4 7m31.1 5q-8.6 1.7-14.1 6m-37 2 10-6m26.5-9.7Q27 9 16.4 18.2m15.4 15.4q11.1-4.7 19-10.4M30.4 33 42 26.3" vector-effect="non-scaling-stroke"/><path fill="none" stroke="#3d5867" stroke-linecap="round" stroke-linejoin="round" stroke-width="__RESOLUTION__" d="M39.7 3.5Q24.5 7.3 16.2 16.2M15 25.8q12.1-6 19.5-14.7M19.7 28q10.7-10.4 28-15.4M21.7 29q6.9-6.2 16.7-8.9m-4.1 17-25.1-10m-8.5-6q11.7 4 22.3 10.6m34.5-18.6q-9.6 8.1-22.4 13.7" vector-effect="non-scaling-stroke"/><path fill="#94adb4" d="m61.2 16.8.9-.2 1.5.4.7.6q0 .4-.6.8l-1.6.3q-.9 0-1.6-.3v-.1q.1-1 .7-1.6m1.4.9q-.9 0-.2.6h.1q.9 0 1-.6t-.4-.2H63z"/><path fill="#1e2a37" d="M60.5 18.3q-.6-.3-.6-.7t.6-.6l.7-.2q-.6.6-.7 1.5"/><path fill="#eceae8" d="m62.7 17.6.2-.2h.3q.3-.2.3.3-.1.6-1 .5h-.1q-.6-.6.3-.6M6 18q-.6-.5.3-.5l.2-.2h.3q.3-.2.3.3-.2.6-1 .4"/><path fill="#94adb4" d="M6.1 18q.8.2 1-.4 0-.6-.3-.4l-.3.1-.2.2q-1 0-.3.6zm-1.3-1.5h.9l1.5.3q.7.3.7.7t-.7.6-1.5.4l-1.6-.4z"/><path fill="#1e2a37" d="m4.8 16.7-.7 1.5q-.6-.3-.6-.6l.6-.7z"/><path fill="#94adb4" d="m32.4 2 .9-.1 1.5.3.7.7q0 .4-.7.7l-1.5.3-1.6-.3-.1-.1q.2-1 .8-1.6m1.9.7h-.2l-.3.1q-.9 0-.2.7.9 0 1-.5t-.3-.3"/><path fill="#1e2a37" d="M31.6 3.5q-.6-.3-.6-.6 0-.5.7-.7l.7-.3q-.6.7-.8 1.6"/><path fill="#eceae8" d="M34.3 2.6q.3-.2.4.3-.2.5-1 .5h-.2q-.6-.6.3-.6l.3-.2z"/></g><g id="h"><path fill="#3f535d" d="m0 14.8 2.3-.4Q18.8 7.6 34.3 0h3.5L3.2 15.8z"/><path fill="#314753" d="M37.8 0v2.4l.2 1.4-1.2 1V5l1.2-.5.5 2.6.5 2Q21.7 14.8 5.2 22.9l-.8-2.6-.7-2.4-.6-2zm-17 13.5q9.4-2.6 17.7-6.5-8.3 3.9-17.7 6.5m-4 1.8q-5.6 3.6-12.4 5 6.9-1.4 12.4-5m10.7-6.6q-12.2 3.4-23.8 9 11.6-5.6 23.8-9m-10.7 2.6q10.4-5.6 21-8.9-10.6 3.3-21 8.9"/><path fill="#161f29" d="m5.1 22.8-.7.1-2-1.5Q2.1 18 0 14.8l3.1 1 .6 2 .7 2.4z"/><path fill="none" stroke="#3f535d" stroke-linecap="round" stroke-linejoin="round" stroke-width="__RESOLUTION__" d="M38.5 7q-8.3 3.9-17.7 6.5M3.7 17.8Q15.3 12 27.5 8.7" vector-effect="non-scaling-stroke"/><path fill="none" stroke="#23323f" stroke-linecap="round" stroke-linejoin="round" stroke-width="__RESOLUTION__" d="M4.4 20.3q6.9-1.4 12.4-5m21-12.9q-10.6 3.3-21 8.9" vector-effect="non-scaling-stroke"/></g><g id="g"><path fill="#395260" d="m16.6 5.8-3.2 2.7L10 7 6.9 5.6l-2.4-1L0 2.7 6.6 0z"/><path fill="#2e3e43" d="m13.4 8.5 3.2-2.7-.5 84.2-2.7 2.5z"/><path fill="#1c2733" d="m0 2.8 4.5 1.7 2.4 1.1L10.1 7l3.3 1.5v84L8.2 90l-.5-.2-.1-3.5-.5 3.3-1.4-.6-.6-.2-.6-.3q-2.2-1-4.5-1.7 1.9-41.1 0-84M10 35q2.4-13.1 0-28 2.4 14.9 0 28M7 22.5Q4.5 15 6.9 5.6q-2.4 9.4 0 16.9M5.1 55.8Q2.9 71.3 4.9 87l.2 1.8-.2-1.8q-2-15.7.2-31.2m-.7-7.5q-2.6-21.5 0-43.7-2.6 22.2 0 43.7M8.2 35q3.2 28.4 0 55 3.2-26.6 0-55"/><path fill="none" stroke="#080c10" stroke-linecap="round" stroke-linejoin="round" stroke-width="__RESOLUTION__" d="M10 7q2.4 14.9 0 28M5.2 88.8 4.9 87q-2-15.7.2-31.2" vector-effect="non-scaling-stroke"/><path fill="none" stroke="#395260" stroke-linecap="round" stroke-linejoin="round" stroke-width="__RESOLUTION__" d="M6.9 5.6q-2.4 9.4 0 16.9m-2.4-18q-2.7 22.3-.1 43.8M8.2 90q3.2-26.7 0-55.1" vector-effect="non-scaling-stroke"/></g><g id="f"><path fill="#4e6774" d="m16.6 5.8-3.2 2.7L10 7 6.9 5.6l-2.4-1L0 2.7 6.6 0z"/><path fill="#435358" d="m13.4 8.5 3.2-2.7-.5 84.2-2.7 2.5z"/><path fill="#323d49" d="m0 2.8 4.5 1.7 2.4 1.1L10.1 7l3.3 1.5v84L8.2 90l-.5-.2-.1-3.5-.5 3.3-1.4-.6-.6-.2-.6-.3q-2.2-1-4.5-1.7 1.9-41.1 0-84M10 35q2.4-13.1 0-28 2.4 14.9 0 28M7 22.5Q4.5 15 6.9 5.6q-2.4 9.4 0 16.9M5.1 55.8Q2.9 71.3 4.9 87l.2 1.8-.2-1.8q-2-15.7.2-31.2m-.7-7.5q-2.6-21.5 0-43.7-2.6 22.2 0 43.7M8.2 35q3.2 28.4 0 55 3.2-26.6 0-55"/><path fill="none" stroke="#1f2227" stroke-linecap="round" stroke-linejoin="round" stroke-width="__RESOLUTION__" d="M10 7q2.4 14.9 0 28M5.2 88.8 4.9 87q-2-15.7.2-31.2" vector-effect="non-scaling-stroke"/><path fill="none" stroke="#4e6774" stroke-linecap="round" stroke-linejoin="round" stroke-width="__RESOLUTION__" d="M6.9 5.6q-2.4 9.4 0 16.9m-2.4-18q-2.7 22.3-.1 43.8M8.2 90q3.2-26.7 0-55.1" vector-effect="non-scaling-stroke"/></g><linearGradient id="a" x1="-819.2" x2="819.2" gradientTransform="matrix(0 0 0 .01 13.6 -71.05)" gradientUnits="userSpaceOnUse" spreadMethod="pad"><stop offset="0" stop-color="#728792" stop-opacity="1"/><stop offset="1" stop-color="#2b3a42" stop-opacity="1"/></linearGradient><linearGradient id="b" x1="-819.2" x2="819.2" gradientTransform="matrix(0 0 0 .01 6.75 -78.85)" gradientUnits="userSpaceOnUse" spreadMethod="pad"><stop offset="0" stop-color="#728792" stop-opacity="1"/><stop offset="1" stop-color="#2b3a42" stop-opacity="1"/></linearGradient><linearGradient id="c" x1="-819.2" x2="819.2" gradientTransform="matrix(0 0 0 .01 3.05 6.4)" gradientUnits="userSpaceOnUse" spreadMethod="pad"><stop offset="0" stop-color="#93667a" stop-opacity="1"/><stop offset="1" stop-color="#5d2b3e" stop-opacity="1"/></linearGradient><linearGradient id="d" x1="-819.2" x2="819.2" gradientTransform="matrix(0 0 0 .01 0 1.75)" gradientUnits="userSpaceOnUse" spreadMethod="pad"><stop offset="0" stop-color="#764456" stop-opacity="1"/><stop offset="1" stop-color="#521d2d" stop-opacity="1"/></linearGradient><clipPath id="e"><path d="M1 1h60v112H1z"/></clipPath></defs><g clip-path="url(#e)"><g transform="translate(18.5 97.05)"><use xlink:href="#f" width="16.6" height="92.5" transform="matrix(1.1004 0 0 .8867 6.65 -87.2)"/><use xlink:href="#g" width="16.6" height="92.5" transform="matrix(.8596 0 0 .9299 23.55 -82.5)"/><use xlink:href="#h" width="39" height="22.9" transform="matrix(.8712 -.1621 .1055 .5669 -.75 -24.35)"/><use xlink:href="#h" width="39" height="22.9" transform="matrix(.8712 -.1621 .1055 .5669 -2.35 .8)"/><use xlink:href="#h" width="39" height="22.9" transform="translate(.05 -54.2)scale(.8867)"/><use xlink:href="#i" width="67.5" height="43.6" transform="rotate(-5.548 -852.88 117.461)scale(.6786)"/><use xlink:href="#j" width="2.6" height="1.2" transform="matrix(1.1215 -.1089 .1094 1.1257 7.6 -63.5)"/><use xlink:href="#k" width="7.5" height="20.6" transform="translate(11.1 -96.05)"/><use xlink:href="#l" width="4.2" height="11.7" transform="translate(17.15 -85.25)"/><use xlink:href="#m" width="4.2" height="11.7" transform="translate(4.65 -85.65)"/><use xlink:href="#n" width="2.6" height="1.2" transform="matrix(0 -1.4723 1.4778 0 -11.35 -54.3)"/><use xlink:href="#n" width="2.6" height="1.2" transform="matrix(0 -1.4723 1.4778 0 2.5 -50.65)"/><use xlink:href="#n" width="2.6" height="1.2" transform="matrix(0 -1.4723 1.4778 0 -12.6 -9.35)"/><use xlink:href="#n" width="2.6" height="1.2" transform="matrix(0 -1.4723 1.4778 0 2.5 -1.55)"/><use xlink:href="#o" width="4.2" height="11.7" transform="translate(11.5 -77.85)"/><use xlink:href="#p" width="16.6" height="92.5" transform="matrix(-1.1004 0 0 .925 41.75 -83.55)"/><use xlink:href="#q" width="16.6" height="92.5" transform="matrix(-.673 0 0 .9586 25.5 -79.6)"/><use xlink:href="#r" width="16.6" height="92.5" transform="matrix(1.1004 0 0 .925 -17.5 -76.7)"/><use xlink:href="#f" width="16.6" height="92.5" transform="matrix(.673 0 0 .9586 -1.25 -72.75)"/><use xlink:href="#s" width="16.6" height="92.5" transform="matrix(-1.1004 0 0 .925 32.1 -78.85)"/><use xlink:href="#t" width="16.6" height="92.5" transform="matrix(-.673 0 0 .9586 15.85 -74.9)"/></g></g></svg>