<svg xmlns="http://www.w3.org/2000/svg" xmlns:xlink="http://www.w3.org/1999/xlink" width="42" height="64" viewBox="0 0 42 64"><defs><clipPath id="a"><path d="M1 1h40v62H1z"/></clipPath><g id="b"><path fill="#8f8645" d="M13.9 2.4Q17.6-.5 21.5.1l.7.1L28 1.3l-3.2.1q-2 .4-4 2zM6.3 61.9 0 59.1l4-35.9.2-.8.3-2.1q.5-3.2 1.5-6l6.5 1.2q-1 2.9-1.6 6.2l-.4 2.7-.1 1-1.8 16.3L7 55.6l-.3 3.1z"/><path fill="#9c966d" d="M28.1 1.3h.4v.1h.1q5.1 1.1 7.8 8 1.2 3.2 1.6 7l.1 3q0 3.1-.6 6.5-1.4 7.8-5.1 13.3l-1.6 2q-5 6-10.5 5.1h-.4l-1-.2q-1.3-.5-2.5-1.4-2.7-2-4.4-6.4-2.2-5.7-1.6-12.8l.1-1 .4-2.7q.6-3.3 1.6-6.2 1.8-5.3 5-9.1 1.7-2 3.4-3.2 2-1.5 4-1.9zm.9 19.3q-.6-1.2-1.5-1.3h-.7q-.7.2-1.4 1-1.1 1.2-1.4 3.1t.2 3.3q.4.9.9 1.3l.8.3q.9.1 1.7-.6.7 0 1.4-.9.8-.9 1.1-2.4t-.2-2.7q-.3-.9-1-1.1"/><path fill="#784f27" d="m38.1 19.4 1 25.8-5.5 2.8-.4-2.8-.4-2.8-.4-3.2q3.7-5.6 5.1-13.4.5-3.3.6-6.4"/><path fill="#403c20" d="M33.6 48 6.3 61.8l.4-3 26.5-13.6zM29 20.6q.6.2.9 1.1.5 1.2.2 2.7T29 26.8t-1.4.9h-.2l-.7-.3q-.4-.3-.7-1-.4-1.2-.1-2.7.2-1.5 1-2.4l1.2-.8h.5z"/><path fill="#b7ac68" d="M6 14.4q1.8-5.3 5-9.2l3-2.8 7 1q-1.7 1.1-3.3 3.1-3.3 3.8-5.1 9.1z"/><path fill="#7d6042" d="M27.6 27.7q-.9.7-1.7.6-.5 0-.8-.3-.6-.4-.9-1.3-.5-1.4-.2-3.3t1.4-3q.7-.9 1.4-1h.7q.9 0 1.5 1.2l-.4-.1H28l-1.1.8q-.8 1-1 2.4-.3 1.5.1 2.7.3.7.7 1l.7.3z"/><path fill="#79713c" d="m32.9 42.4.3 2.8L6.6 58.7l.4-3.1z"/><path fill="#6b6649" d="M10.4 25.5q-.6 7.1 1.6 12.8 1.7 4.4 4.4 6.4 1.2.9 2.6 1.3l-5.7-1.4-.7-.2q-2.3-.6-4-2.6z"/><path fill="none" stroke="#000" stroke-linecap="round" stroke-linejoin="round" stroke-width="__RESOLUTION__" d="M13.9 2.4Q17.6-.5 21.5.1l.7.1L28 1.3h.4v.1h.1q5.1 1.1 7.8 8 1.2 3.2 1.6 7l.1 3 1 25.8-5.5 2.8L6.3 61.8 0 59.2l4-35.9.2-.8.3-2.1q.5-3.2 1.5-6 1.8-5.3 5-9.2zm7 1q2-1.6 4-2l3.2-.1m-.5 26.4q-.9.7-1.7.6-.5 0-.8-.3-.6-.4-.9-1.3-.5-1.4-.2-3.3t1.4-3q.7-.9 1.4-1h.7q.9 0 1.5 1.2m3.4 18.5q3.7-5.5 5.1-13.3.5-3.3.6-6.4M18.9 46.1l1 .2h.4q5.4.9 10.5-5.1l1.6-2 .5 3.2.3 2.8.4 2.8M12.5 15.6q-1 2.9-1.6 6.2l-.4 2.7-.1 1q-.6 7.1 1.6 12.8 1.7 4.4 4.4 6.4 1.2.9 2.6 1.3l-5.7-1.4-.7-.2q-2.3-.6-4-2.6L7 55.6l25.9-13.2m-12-39q-1.7 1.1-3.3 3.1-3.3 3.8-5.1 9.1m-2.1 9.9L8.6 41.8m-2 17-.3 3m.4-3 .3-3.2m26.2-10.4L6.6 58.7" vector-effect="non-scaling-stroke"/></g></defs><g clip-path="url(#a)"><use xlink:href="#b" width="39.1" height="61.9" transform="translate(1 1)"/></g></svg>