<svg xmlns="http://www.w3.org/2000/svg" xmlns:xlink="http://www.w3.org/1999/xlink" width="49" height="192" viewBox="0 0 49 192"><defs><path id="g" fill="#000" fill-opacity=".4" d="M7-3q3 1.3 3 3T7.9 2.8l-.7-.4Q3.8.9 2.5 4.3l-1 .1-.4-.5-.3-.8-.7-.6q-.5-.4-1-.3l-.5.3L-3 4.2-4.2 4h-.1l-.5-.4q-.6-1-1.5-1.6h-.3l-1.9.4Q-9.9 1.3-9.9 0-10-1.8-7-3t7-1.3T7-3" transform="translate(9.95 4.35)"/><path id="f" fill="#323324" fill-opacity=".5" d="m.1-7.4 1.5 2.9L0-.6h1.9l1 4-5.5 4v-8.7z" transform="translate(2.75 7.45)"/><path id="e" fill="#323324" fill-opacity=".3" d="m.1-7.4 1.5 2.9L0-.6h1.9l1 4-5.5 4v-8.7z" transform="translate(2.75 7.45)"/><path id="c" fill="#000" fill-opacity=".4" d="m2.8-78.8 3.5-1.8v6.3L4.1-73l-.5.7v-.4l-6.1 3.1q-.8.5-1.2 1.3-.5 1-.7 2.6v145h-.1l-1.7 1.3v.1h-.1l-1.5.3q-1.1-.2-2.2-1.1l-.3.9v-1.2l-.3-.3V-66.1q.5-5 2.5-7.1l7.8-4h-.4l3-1.5z" transform="translate(10.65 80.6)"/><g id="d"><path fill="#8f632e" d="M10.3 3.7h-.4L13 2h.5q1.7 0 2.5 1l-3.3 1.8q-1.2-1-2.3-1.2M0 151.7V147l.8.6H1v4.8l-.2-.2zm0-54.8v-4.7l.8.6.5.2v2-2l1.5.5v4.8l-.5.1-1-.5-.5-.4zM2.6 7.7l3-1.6q2-.2 3 1L5.2 8.9Q3.8 7.7 2.6 7.7"/><path fill="#8a836e" d="m13.4 2 4-2q2.2-.2 3.2 1.3l-4.5 2.2L16 3q-.8-1-2.5-1M2.8 154H0v-2.4l.8.6.1.1.4.3 1 .5.5-.1zM0 147V97l.8.6.5.5 1 .4h.5v49.9l-1.9-.7zm0-54.7V16.8l.1-2q.5-5.1 2.5-7.1 1.2 0 2.6 1.2-1.9 2.1-2.4 5v79.6L1.3 93l-.1-78.8L3 9.3l-1.8 4.9V93l-.4-.2zM5.6 6.1l4.7-2.4q1.1.1 2.3 1.2l.2.2-4.2 2q-1-1.2-3-1M1 115.7V99.5zm-.1 18.8v13.1zv-16zm0 19.7v-1.8z"/><path fill="#4d4436" d="m20.6 1.3.6 1.5L16.6 5v-.3l-.5-1.2zM4.5 154.2H2.8V153l1.7.2zm8.3-149 1 1.4-4.6 2.2Q9 7.7 8.7 7zM5.2 8.9q.8.8 1.3 1.7-1.5 1.9-2 4.4v78.7l-1.7-.2V14q.5-2.9 2.4-5M2.8 98.3l1.7.2v49.9l-1.7-.1z"/><path fill="#2a251d" d="m21.2 2.8.1 1.5-4.4 2.4-.1-.2-.2-1.5zm-7 5.2-4.8 2.5-.1-1.7v-.1l4.4-2.2.1.1zM7 12.5q-.5 1-.7 2.5v77.4q-.8 1.2-1.7 1.3V15q.5-2.6 2-4.5.4.9.4 1.9m-.7 85v49.7q-.8 1.2-1.7 1.2V98.5zm0 54.7v2H4.5v-1z"/><path fill="#524a3a" d="m16.9 6.7-2.1 1 .6-.5 1.3-.7zm-3.1-.2"/><path fill="#382615" d="m14.8 7.8-.6.7V8l-.4-1.4 2.8-1.8V5l.1 1.5-1.2.7zm-5.4 2.8-1.3.7-1.2 1.3q0-1-.5-1.9l2.9-1.8zM6.2 92.4v5l-1.7 1.1v-4.8q.9-.1 1.7-1.3m0 54.8v5l-1.7 1v-4.8q.9 0 1.7-1.2"/><path fill="#4e351c" d="m12.6 4.9 3.3-1.8.2.4.5 1.2v.1l-2.8 1.8v-.1l-1-1.4zM9.3 8.7l-2.9 1.8Q6 9.7 5.3 8.9l3.4-1.8q.4.6.7 1.6M2.8 93.6h1.7v4.9l-1.7-.2zm1.7 59.7-1.7-.2v-4.8l1.7.1z"/><path fill="#654a20" d="M2.8 153.1h-.5l-1-.4-.4-.3v-4.8l1.9.7z"/><path fill="none" stroke="#000" stroke-linecap="round" stroke-linejoin="round" stroke-opacity=".3" stroke-width="__RESOLUTION__" d="m13.4 2 4-2m3.9 4.3-4.4 2.4-2.1 1m-.6.3-4.8 2.5-1.3.7-1.2 1.3q-.5 1-.7 2.5v132.2m0 5v2m-6.2 0v-2.5m0-4.7V16.7l.1-2q.5-5.1 2.5-7.1l3-1.6 4.7-2.4" vector-effect="non-scaling-stroke"/><path fill="none" stroke="#000" stroke-linecap="round" stroke-linejoin="round" stroke-opacity=".3" stroke-width="__RESOLUTION__" d="M17.4 0q2.2-.2 3.2 1.3l.6 1.5.1 1.5m-12 4.4.1 1.7m-.2-1.8L8.7 7q-1-1.2-3-1m-.4 2.8q.8.8 1.3 1.7t.4 1.9M2.6 7.7q1.2 0 2.6 1.2" vector-effect="non-scaling-stroke"/><path fill="none" stroke="#a8a499" stroke-linecap="round" stroke-linejoin="round" stroke-width="__RESOLUTION__" d="m1.3 93-.1-78.8L3 9.3M1.3 93v2M1 99.5v16.2m-.1 18.8v-16m0 29.1v-13.1m0 17.9v1.8m0-1.8v-4.8" vector-effect="non-scaling-stroke"/><path fill="#2a251d" d="M4.5 154.2h1.7v2.2l-1.7.7z"/><path fill="#382615" d="M6.2 156.4v3.7l-1.7 1.3h-.1v-4.2l.1-.1z"/><path fill="#4e351c" d="m4.4 161.5-1.6.2v-4.3l1.6-.2z"/><path fill="#8f632e" d="M2.8 161.7q-1.4-.1-2.8-1.6v-4.3l.8 1.4.1.1 1.9.1zm-1.9-2.6v-1.8z"/><path fill="#8a836e" d="M0 155.8V154h2.8v3.3l-1.9-.1H.7zm.9 1.6v-3.2z"/><path fill="#4d4436" d="M2.8 154.2h1.7v2.9h-.1l-1.6.3z"/><path fill="none" stroke="#000" stroke-linecap="round" stroke-linejoin="round" stroke-opacity=".3" stroke-width="__RESOLUTION__" d="M6.2 154.2v5.9h0l-1.7 1.3h-.1 0l-1.6.3q-1.4-.1-2.8-1.6v-6" vector-effect="non-scaling-stroke"/><path fill="none" stroke="#a8a499" stroke-linecap="round" stroke-linejoin="round" stroke-width="__RESOLUTION__" d="M.9 157.3v1.8m0-5v3.2" vector-effect="non-scaling-stroke"/></g><g id="b"><path fill="#383027" d="M35.5 17.8V19l1.3 1.3v2.1q-.5 1-1 3.8l-.3 2 1.4 2.1v7h-.1q-.5-.1-.9.4l-.4.5-.1.6-5.8-3.1L14.3 7.2l7.3 3.6.1 1v.2l1.3 1.5 4.4.3z"/><path fill="#4d4436" d="m29.6 35.7-16.8-9v-5.4l.5-.6V20l1-4.7-.1-.2-1.4-1.9V9.1L13 9l1.3-1.8zM17.5 26h-2.3z"/><path fill="none" stroke="#383027" stroke-linecap="round" stroke-linejoin="round" stroke-width="__RESOLUTION__" d="M36.9 37.3h3.4l1.2 2.5h4.8m-10.8-22 2-.6m-23.2-10-4.5-4H0m41.5 36.6 1.3 2.5M5.3 3.3.5 0" vector-effect="non-scaling-stroke"/><path fill="none" stroke="#000" stroke-linecap="round" stroke-linejoin="round" stroke-width="__RESOLUTION__" d="M15.2 26h2.3" vector-effect="non-scaling-stroke"/></g><clipPath id="a"><path d="M1 1h47v190H1z"/></clipPath></defs><g clip-path="url(#a)"><g transform="translate(25.1 24.8)"><use xlink:href="#b" width="46.3" height="42.3" transform="translate(-24.1 -23.8)"/><use xlink:href="#c" width="16.9" height="161.4" transform="translate(-6.05 4.55)"/><use xlink:href="#d" width="21.3" height="161.7" transform="translate(-17.25 -2.75)"/><use xlink:href="#e" width="5.5" height="14.9" transform="translate(-16.55 32.8)scale(.6909)"/><use xlink:href="#e" width="5.5" height="14.9" transform="translate(-15.85 34.05)scale(.6909)"/><use xlink:href="#e" width="5.5" height="14.9" transform="matrix(.6909 -3.589 0 1.7945 -16.9 27.95)"/><use xlink:href="#e" width="5.5" height="14.9" transform="translate(-16.65 58.3)scale(.6909)"/><use xlink:href="#e" width="5.5" height="14.9" transform="matrix(.6909 0 0 2.606 -15.85 45.05)"/><use xlink:href="#f" width="5.5" height="14.9" transform="translate(-16.9 90.5)scale(.6909)"/><use xlink:href="#e" width="5.5" height="14.9" transform="translate(-15.45 4.9)scale(.6909)"/><use xlink:href="#e" width="5.5" height="14.9" transform="matrix(.6909 0 0 2.606 -16.35 101.15)"/><use xlink:href="#e" width="5.5" height="14.9" transform="matrix(.6909 0 0 2.606 -15.85 81.4)"/><use xlink:href="#e" width="5.5" height="14.9" transform="matrix(.6909 0 0 2.606 -16.9 119.9)"/><use xlink:href="#e" width="5.5" height="14.9" transform="matrix(1.8838 -.6525 -.7614 .4396 -3.1 -.4)"/><use xlink:href="#e" width="5.5" height="14.9" transform="matrix(.2431 .4211 -.5983 .3455 -2.95 -.6)"/><use xlink:href="#d" width="21.3" height="161.7" transform="translate(-13.25 -1.25)"/><use xlink:href="#e" width="5.5" height="14.9" transform="translate(-12.55 34.3)scale(.6909)"/><use xlink:href="#e" width="5.5" height="14.9" transform="translate(-11.85 35.55)scale(.6909)"/><use xlink:href="#e" width="5.5" height="14.9" transform="matrix(.6909 -3.589 0 1.7945 -12.9 29.45)"/><use xlink:href="#e" width="5.5" height="14.9" transform="translate(-12.65 59.8)scale(.6909)"/><use xlink:href="#e" width="5.5" height="14.9" transform="matrix(.6909 0 0 2.606 -11.85 46.55)"/><use xlink:href="#f" width="5.5" height="14.9" transform="translate(-12.9 92)scale(.6909)"/><use xlink:href="#e" width="5.5" height="14.9" transform="translate(-11.45 6.4)scale(.6909)"/><use xlink:href="#e" width="5.5" height="14.9" transform="matrix(.6909 0 0 2.606 -12.35 102.65)"/><use xlink:href="#e" width="5.5" height="14.9" transform="matrix(.6909 0 0 2.606 -11.85 82.9)"/><use xlink:href="#e" width="5.5" height="14.9" transform="matrix(.6909 0 0 2.606 -12.9 121.4)"/><use xlink:href="#e" width="5.5" height="14.9" transform="matrix(1.8838 -.6525 -.7614 .4396 .9 1.1)"/><use xlink:href="#e" width="5.5" height="14.9" transform="matrix(.2431 .4211 -.5983 .3455 1.05 .9)"/><use xlink:href="#d" width="21.3" height="161.7" transform="translate(-8.75 1.25)"/><use xlink:href="#e" width="5.5" height="14.9" transform="translate(-8.05 36.8)scale(.6909)"/><use xlink:href="#e" width="5.5" height="14.9" transform="translate(-7.35 38.05)scale(.6909)"/><use xlink:href="#e" width="5.5" height="14.9" transform="matrix(.6909 -3.589 0 1.7945 -8.4 31.95)"/><use xlink:href="#e" width="5.5" height="14.9" transform="translate(-8.15 62.3)scale(.6909)"/><use xlink:href="#e" width="5.5" height="14.9" transform="matrix(.6909 0 0 2.606 -7.35 49.05)"/><use xlink:href="#f" width="5.5" height="14.9" transform="translate(-8.4 94.5)scale(.6909)"/><use xlink:href="#e" width="5.5" height="14.9" transform="translate(-6.95 8.9)scale(.6909)"/><use xlink:href="#e" width="5.5" height="14.9" transform="matrix(.6909 0 0 2.606 -7.85 105.15)"/><use xlink:href="#e" width="5.5" height="14.9" transform="matrix(.6909 0 0 2.606 -7.35 85.4)"/><use xlink:href="#e" width="5.5" height="14.9" transform="matrix(.6909 0 0 2.606 -8.4 123.9)"/><use xlink:href="#e" width="5.5" height="14.9" transform="matrix(1.8838 -.6525 -.7614 .4396 5.4 3.6)"/><use xlink:href="#e" width="5.5" height="14.9" transform="matrix(.2431 .4211 -.5983 .3455 5.55 3.4)"/><use xlink:href="#g" width="19.9" height="8.8" transform="matrix(.8289 .4267 -.1767 1.13 -9.8 -5.75)"/><use xlink:href="#g" width="19.9" height="8.8" transform="matrix(.8289 .4267 -.1767 1.13 -6.95 -6.2)"/><use xlink:href="#g" width="19.9" height="8.8" transform="matrix(.733 .3773 -.1767 1.13 -1.2 -6.55)"/><use xlink:href="#g" width="19.9" height="8.8" transform="matrix(.5373 .2766 -.1767 1.13 2.85 -5.55)"/><use xlink:href="#g" width="19.9" height="8.8" transform="matrix(.5956 .3066 -.1767 1.13 -2.3 -7.3)"/><use xlink:href="#g" width="19.9" height="8.8" transform="matrix(.5956 .3066 -.1767 1.13 -2.3 -9.05)"/><use xlink:href="#g" width="19.9" height="8.8" transform="matrix(.5956 .3066 -.1767 1.13 .9 -6.55)"/><use xlink:href="#g" width="19.9" height="8.8" transform="matrix(.5956 .3066 -.1767 1.13 .9 -10.55)"/></g></g></svg>