<svg xmlns="http://www.w3.org/2000/svg" xmlns:xlink="http://www.w3.org/1999/xlink" width="84" height="81" viewBox="0 0 84 81"><defs><radialGradient id="a" cx="0" cy="0" r="819.2" gradientTransform="matrix(.1 0 0 .1 54.5 45.3)" gradientUnits="userSpaceOnUse" spreadMethod="pad"><stop offset=".2" stop-color="#5b5d23"/><stop offset=".8" stop-color="#a1a648"/></radialGradient><clipPath id="b"><path d="M1 1h82v79H1z"/></clipPath><g id="c"><path fill="#959941" d="M82.8 46.3q.6 1.2 0 3.1l-.6 1.4q-4-3.2-1.5-6.1 1.5.5 2 1.5m.6 4.5q1.3-4.1 3.5-3.9.8 4.9-3.5 3.9m-6.5-6 .8 6.8h.2l-.2.4-.5-.4h.5-.5l-1.8-1.7q-2-2.8 1.3-5.2m-15.3-3q5.4-.4 5 4.9-4.1 1-5-4.9M47 56q-2-.6-4.6-2.7 5.6-2.4 8.3-.1l.1.1.6.7-.1.4-.4.7q-1.3 1.8-3.9.9m19.6-2.6q-3.9.5-6.9-4.6 6.9-1.8 8.1 2.6l.2 1.4v.2l-.4.2zm-11.6 3q2.2.4 2.1 4.3-3.9 1.5-5.5-1.7l-.6-1.7q2.5-1.2 4-1M51.6 59v.2zm-11-2.7Q35 56.7 36 54q4.3-2.2 4.8 2.3m-21 18.3q2.9-2.9 7.6-1.4-4.7 3.4-7.5 1.4m48.9-30q2.6 4.5-.6 5.5-1.4-2.7.6-5.5"/><path fill="#c7ca71" d="M76.9 44.8q1 .6 1.6 1.4 1.5 1.9 0 4.5l-.6 1-.2-.1zm17.3 13.8q0 1.6-1.9 1.6h-.2q0-1 2-2.3.2.2.2.7m-6.4 3.5.1-.1 1.6-.4.8-.4q-1 1.3-1.5 1.3zm1-4.8q2.3 0 2.6 2.2v.5l-.3-.1-3.5-2q0-.6 1.2-.6"/><path fill="url(#a)" d="m95.3 2 5.8.5 1.9.7-.9 1.2q1-.2 1.9-.8l3.1 1.2.7.3q2.6 1.3 3.6 2.5-.2-1.3 0-2.8l.3.1-.2-.1v-.1l.2.2 4.4 2.3.1.3 1 3.9 2-4.6q1-2.3 2.5-3l-1.2 5.1-1.3 2.8-.7 1.2q-1.1.8-2.8.8l-.2-.1-1.7-.8v-.1l-.2-.6-.3-.9.3.9.2.6v1.7q-.5 2.5-3.1 4.1l-.7.4-4.2 2.2q1.5-1.9 1.5-3.5 0-2.2-2.3-4.1-1.9 1.9-2 6.2l.2 2.6-1.7.8.5-2.9q.3-4.1-1.9-5.8-1.2-1-3.2-1.1-2.2 4.5.8 8.8l.1.2 1.6 1.9-1.3.7q-2.1-.3-3.3-1-1-.6-1.5-1.5v-.3l-.1-.1v.1l-.1.1.2.7-.3 1.9h-.1l-.7 1.3h-1.5l-.9 2.3-.5 1-.7.4q-.4-1.4-1.1-2.4-1.3-1.7-3.5-1.6l-.2.1q-.5 1.7.2 3.4l.7 1.3-1.5-1q-2.2-1-3.9 1l.5.8q1.3 1.8 3.3 1.1l-3 1.6-1.7.2h-4l-.2-.2q-2.5-1-5.2-1.7l1.5.9q1.2.8 1.8 1.8.4.8.4 1.6l-1.4 1.9-.2.1-4.3 2.3-6.6 3.5-8.1 4.8q-.7 0-.7-4.4l-6.7 5.5-.2-.2v-.5l1.9-4 .1-.3 1.1-2.9q-1.4 0-3.7 1.9l-.2.2-3 2.5 1-3.2q1-2.5 2.5-4.5l.1-.1h-.1L48 35v.3l.1-.2 1.4-1.5q2.5-2.4 3.2-2.4-2.5-1.3-5-.7l-1.2.3-3.4.7q-2 .4-3.3 1.9 1.7-6.5 3.6-7.3l6.6-2.9 2.3-1 2-1.2q-.4-1.1-5.4-1.6-5.4 0-6.6 2.6.5-2.5 2.6-4 1.5-1 3.8-1.4 5.3-1.1 6.7-2l.1-.1-.1-.2q-.3-.8-3.6-1.8l-1.7-.5q4.6-1.5 11.8-2.2l6.3-.6h.3l.4.4v-.2q1.5 3.3 5.5 1.7.1-3.9-2.2-4.3l-.3-.3q-2.4-1.5-3.8-1l.5-.7 1-.2-.9-.2-.1.4 1-.2 2-.5 6 .4.3.1.5.3h.3l.4.3q3.7 1.6 6 3.3l.2-.3-1.5-4.3 2.8-.2h.4l3.5.4q1.6 1 2 1.8v-.3Q92.3 4 91.3 2l.8-.3 2.3.3.5.4zm0 2.1q.1-1.6-.2-1.8.3.2.2 1.8m17.4 5.8-.5-1.1zm-1.1-1q0-.5-.2-.7-1.9 1.3-2 2.3h.3q1.9 0 1.9-1.6m-6.3 3.4 1 .5q.5 0 1.5-1.2l-.9.3zm1-4.8q-1.2 0-1.2.6l3.4 2 .3.1v-.5q-.2-2.2-2.5-2.2m-6.4-.1L97.6 4l-.1 2.4q0 1 2.4 1m-17 3.4q1.4 1.7 2.9.3-2.1-2.4-2.9-.3M86.7 8q-.7 1.3.8 2.3.7-2.5-.8-2.3m.8 3.4L86.4 10zm1 3q-2.3-3-4.6-1 2.8 4 4.7 1zm-5 7.6h1.2zm8.3-3.7 1.4 3.6zM90 13.8q3.3-3.4 1-4.7-2.7 1.2-1 4.7m1.3 3.8-1.7-3zm-2.1 6.3 1.5 1.3.5.5.5.5-.5-.5-.5-.5zm-19-9.7-1.3-.4zM61.8 20q.4 1.3.9 2.1 1.6 2.8 5.3 1.3v-1.3q-.5-4.9-6.1-2.1m12.3-3.6q-.5-.8-1.6-1.5l-1-.6q-2 2-2.5 3.6-.7 2.3.8 4.2l1.4 1.4q.8 1 2.3 2l.1.1.1.1.4-.4.2-.4.1-.2q3.5.1 5.2-2.6l1-2.5h-1q-2.3.1-3.7 2.2.6-2.3-.3-3.9zm-2.7 8.4q-5.4-1.3-8.9 4 7.8 2.9 8.9-4M66.9 32l-4-.4zm-6.2-.5h-2.2zm3.7-18.4q-4.4-.2-9 1.4 4.6-1.6 9-1.4" transform="translate(-17.35 49.7)"/><path fill="#6b6e2b" d="m90.4 54.8 3.5-.4.2.1q-.2 1.5 0 2.8-1-1.2-3.7-2.5m-45.8 4.6.3-1L47 56q2.6.9 3.9-.9 1.3-.4 3.7 1l.4.3q-1.5-.3-4 .9l.6 1.7-.4-.1.4.3V59l-.4-.1-.3-.1zm16.7-4.8 1.2-.8 4-.3 1.5 4.3-.3.3q-2.2-1.7-6-3.4zm12.6-3q1 2 1.3 3.6v.3q-.5-.8-2.1-1.8l-3.5-.4.9-.7z"/><path fill="#8b8f3c" d="m103.2 58.6-.4 2.3v2.4l-5.4 2.8-4 2.1q2.6-1.5 3-4.1v-1.6l1.7.8.3.1q1.7 0 2.8-.8l.6-1.2zm-5.8 7.5-.6-2.2-.4-1.3.4 1.3z"/><path fill="#70732e" d="M88.4 70.8 85.8 72l-.1-2.6q0-4.3 1.9-6.2 2.4 2 2.4 4.1 0 1.7-1.6 3.5m-4.3 2-2 1.1-1.6-1.9-.2-.2q-2.9-4.3-.8-8.8 2 .2 3.3 1.1 2.1 1.7 1.8 5.9zm-12.8 6.7-3.4 1.7-.6-.9-.7-1.3q-.7-1.7-.1-3.3l.1-.2q2.3-.2 3.6 1.7.6.9 1 2.3"/><path fill="#6d702c" d="m80.8 74.6-3.5 1.7-2 1-3.4 1.8.6-1 .8-2.3h1.5l.8-1.3.3-1.9-.2-.6.1-.2v-.1l.1.1.1.3q.4.9 1.4 1.5 1.3.7 3.3 1m-3.4 1.7-.6-2.3-.7-2 .7 1.9zm-3-.5 1 1.5z"/><path fill="#5b5d23" d="m68 81.2-2 .9-.2.2q-2.1.6-3.4-1.2l-.4-.8q1.7-2 3.8-1l1.5 1zm-5.2 2.6-3 1.5-5.7 3 1.3-1.9q0-.8-.4-1.6-.5-1-1.8-1.8l-1.5-.9q2.8.7 5.3 1.7l.2.2H61zM44.6 69.7q5.6-2.8 6.1 2.1v1.3q-3.6 1.5-5.2-1.3-.6-.8-.9-2.1m9.4 3.5-1.4-1.4q-1.4-1.9-.8-4.1.6-1.7 2.5-3.7l1 .6q1.1.7 1.6 1.6l-1.1-.7-.4.3-1.4 1.9q-1.3 2.1-.7 4.1zl-.7-1.4q-.6-2 .7-4.1l1.5-1.9.8 9.5q-1.5-1-2.3-2.1m4.7-1.7q1.5-2 3.8-2.2h.9l-1 2.5q-1.6 2.7-5.1 2.6l1.3-2.6zm-4.5 3.1q-1 6.9-8.8 4 3.4-5.3 8.9-4m5.5 10.7L57.1 84z"/><path fill="#4f501f" d="M29 95.4q-1.6 2.7-3.6 2.3-.6-1 1-3.4l.1-.2q2.4-1.8 3.8-1.8L29.1 95zM26.8 89q-4.5 3-7.4.3 5-4.4 8.6-4-1.4-1.6-.3-2.3 1.1-.9 2.3-.7 1 0 .8 2.2zm5.5-5.8q-1.4-2.4-3.1-2.9l1.2-.3q2.5-.6 5 .7-.6 0-3.1 2.5M20 93.6q1-2.2 3.6-1.3-1.3 2.8-3.6 1.3"/><path fill="#acb04c" d="M86.7 53.3q-.9.7-1.8.8l.9-1.2 1.9-2q.3 1.4-.9 2.4m-4.1 3.9q-2.4 0-2.4-1v-2.4z"/><path fill="#989b43" d="M65.6 60.6q.7-2.1 2.8.3-1.4 1.4-2.8-.3m3.7-2.8q1.5-.2.9 2.4-1.5-1.1-.9-2.4m1.8 6.3q-1.9 3-4.7-1 2.3-2 4.7 1m1.6-.7q-1.8-3.5 1-4.7 2.2 1.3-1 4.6"/><path fill="#71742f" d="m55.4 65.9.3-.4 1.1.7 1.6 1.5q.8 1.5.2 3.8l-.1.3-1.4 2.6v.2l-.3.4-.3.5-.1-.2h-.2z"/><path fill="none" stroke="#4f4e2c" stroke-linecap="round" stroke-linejoin="round" stroke-opacity=".3" stroke-width="__RESOLUTION__" d="M82.8 46.3q-.6-1.1-2-1.6-2.6 2.9 1.4 6l.5-1.3q.7-2 0-3.1M77 44.8q1 .6 1.6 1.4 1.5 1.9 0 4.5h0l-.6 1 5.8.5-1-.2-.6-.2 1.3-1.1q1.2-4.1 3.4-3.9.8 4.9-3.5 3.9m-5.6.9h.2l-.2.4q.4.2.2 1.8m-16.6-12q5.5-.4 5 4.8-4 1-5-4.9m32.8 12.8.2.1 4.5 2.3v.4l1 3.8 2.1-4.5q1-2.4 2.5-3.1l-1.2 5.1-.4 2.3v2.4l-5.4 2.8-4 2.1m.8-13.8-.1.1-.2-.1-3.5.4q2.7 1.3 3.7 2.5m.7 1.2.5 1.1m-2.7 9-4.2 2.2-2.6 1.2-1.7.8-2 1.1-1.3.7-3.5 1.7-2 1-3.4 1.8-.7.4-3.3 1.7-1.9.9m-.2.2-3 1.5-3 1.5-5.8 3m-.3.2-4.3 2.2-6.5 3.5-8.1 4.8q-.8 0-.8-4.4l-6.7 5.5-.1-.2v-.5l1.8-4m-2.6-1.1-3.1 2.5 1-3.2q1-2.5 2.6-4.5V89h-.1v.1q-4.5 3-7.4.3 5-4.4 8.6-4-1.4-1.6-.3-2.3 1.1-.9 2.3-.7 1 0 .8 2.2l-.1.3.2-.2 1.4-1.5q2.5-2.4 3.1-2.5-2.5-1.2-5-.6l-1.2.3-3.3.7q-2 .4-3.4 1.9 1.8-6.5 3.6-7.3l6.6-2.9 2.3-1 2.1-1.1q-.5-1.2-5.4-1.7-5.4 0-6.7 2.6.5-2.5 2.6-4 1.5-1 3.8-1.4 5.4-1.1 6.8-2v-.1l-.1-.1q-.2-1-3.6-1.9l-1.7-.4q4.7-1.5 11.9-2.4l.2-1 2-2.3q-2-.6-4.6-2.7 5.6-2.4 8.3-.1l.1.1.6.7.9.2 2-.5 6 .4.4.1.5.3h.2l1.2-.7 4-.3v-.1q-3.9.5-6.9-4.6 6.9-1.8 8.1 2.6l.2 1.4v.2l-.4.2-1 .2h0m29.8 9.2v-.2l-.2-.6-.3-.9m.5 1.7.4 1.3.6 2.2m-7-11.3-.7-.3-3-1.2m-1-.4-2-.6M85.8 72l-.1-2.6q0-4.3 1.9-6.2 2.4 2 2.4 4.1 0 1.7-1.6 3.5m-4.3 2 .5-2.8q.3-4.2-1.8-5.9-1.3-1-3.3-1.1-2.1 4.5.8 8.8l.2.2 1.6 1.9m-4.7-22.3.5.4m0-.4h-.5l-2.3-.3-.9.3-3.4 1-.8.7h-.4l-2.8.2m8.7 1.7v.3q-.5-.8-2.1-1.8M68 58.1q-2.2-1.7-6-3.4l-.4-.1m15.8-3-1.8-1.7q-2-2.8 1.3-5.2m-7.6 15.1 1 1.4m-2.8 10.6h-1.1m9.6-.1-1.4-3.5M76 72l.7 1.9.6 2.3M76 72.1l-.1-.3v-.1m-3.7-7.5 1.7 3m1.4 10.1-1-1.5-.5-.5-.4-.5-1.6-1.3M51.6 59q1.6 3.3 5.5 1.7.1-3.9-2.1-4.4-1.5-.2-4 1zv.2l-.4-.4h-.3m4.1-2.4-.4-.3q-2.4-1.4-3.7-1-1.3 1.8-3.9.9m4.3-1.6 1-.2m-1.4.9.4-.7.1-.4m.2 5-.4-.1m.4.3V59m0 4.4 1.3.4m-8.4 5.9q5.6-2.8 6.1 2.1v1.3q-3.6 1.5-5.2-1.3-.6-.8-.9-2.1m12.4-3.5q-.6-1-1.7-1.6l-1-.5q-1.9 1.9-2.5 3.6-.6 2.2.8 4.1l1.4 1.4-.7-1.4q-.6-2 .7-4.1l1.5-1.9.3-.2q.6.2 1.1.6l1.6 1.5q.8 1.5.2 3.8 1.5-2 3.8-2.2h.9l-1 2.5q-1.6 2.7-5.1 2.6l1.3-2.6.1-.3m-2.4 3.8q-1.5-1-2.3-2.1M40.8 56.3q-5.7.4-4.9-2.3 4.4-2.2 4.9 2.3M29 95.1l1.2-2.8q-1.4 0-3.8 1.8l-.1.2m27.8-19.7q-5.5-1.3-8.9 4 7.8 2.9 8.9-4M57 84l-.2-.2q-2.5-1-5.3-1.7M57 84l2.6 1.3m-14.1-4 4 .4m-8.5-.5h2.3m-5.2-17q4.6-1.5 8.9-1.5m-27.2 12q2.8 2 7.5-1.4-4.7-1.5-7.5 1.4m48.9-30q-2 2.8-.6 5.5 3.2-1 .6-5.5" vector-effect="non-scaling-stroke"/><path fill="#d7d36a" d="m60.3 48.4 2.6-.2 1.4.6q1.8 1 2.1 2.3l.1.6q0 1-.7 1-.8 0-3-1.5l-1.6-1.1-.1-.1q-.7-.7-.8-1.2zm42.9 5.7q-1.3 1.7-1.4 3.1v1.3l.1.5-1.3.9q-1.1.6-.2-.8l.3-.9.9-1.7q1-2.1 1.4-2.3zM94.4 57q0-1-.2-1.7l2.6.8q.9.4 1 1.6v.6l-3.5-.6zm-7.9-3.4 4.2 1.7-.9.7q-1.5 1-4.5 1-.8 0-5-3l-.9-.6-.2.4q-.4 1.2-.4 2-.3-.4-1.6-.8l-1.4-.2h-.4l-.1-.2Q75 54 75 53v-.1q0-.7 1-.7.3 0 1 1.1l.2.2.1-.1.8-.7 1.9-.2 3.6.3q.3.2.8 1.7.7 0 2.1-.9m-18 .4 2.3-.1H73l1.2 1.6h-1.8l-3.7-.1zm-2.1 4.3q-.7 0-2 1t-3 1l-.8-1-2.2-2.4-5.7-2.6.1-.2.4-.2 1.5.2 4.6 1 1 .3q5.1 1.4 6.4 2.9zM51.1 54v.4q0 .4-1.5.4H49l-4.4-.6-2.5-1q.3-.3 2.7-.7l.9-.2.7-.1h.8q3.4.4 3.9 1.8m-4.9 5.1q2.4 0 3.1.5L47 61.9q-1-1.1-5.8-1.1l-5.6.5-.7.1q3-1.3 7-1.8zm-1.6 5.6-1.2-.2-2.4.2 1.8 1.7q-1.7 1.7-2.7 1.7l-3-.5-3.4-.3q-2.7 0-7.9 1.5.8-1.6 5.5-3.2 4-1.3 7.9-1.8l3.6-.2q1.3 0 1.8.5zm-10.3 8 1.3-.2q2.7 0 3.2 1L33.4 76l1.1 2-.1.2q-.6-.5-2.4-1l-.2-.1-2.3-.5q-3.4.4-6 3-.1-.5.7-2l.2-.5.3-.4q1.3-.9 4.1-2 3.3-1.5 5.6-1.9m-4.6 12.7 3.6-1.7q-.6 1.3-3 3.7L24.7 93z"/><path fill="#73652b" d="m18.8 29.3-1.2-.8 3.6-5.1q23.2 19 40.5 47l5 8.4v.1l-.8.5-.6-.9-4.6-7.7Q43.9 44 21.4 25.8zm20.3-15-1.4-1.8 4.9-2.5q20.5 31 28.2 57.7l2 8.1-.5.4L70 68q-7.9-25.7-27.5-55.5zm37 59.6-1.6.8-.7-8.2Q72.1 46.9 68.6 24l3.5 2 .1 1.3-1.9-1.2q3.3 21.4 5 39.7zm8-4.2-.7.3 1-22 1.9-.1-.2 1.8H85zm-71-2.8-2.1.3.9-4.6v-.1q21.8-1.2 40.8 10.8 4.6 2.9 9.1 6.6l-.3.5q-4.8-3.8-9.9-6.7-17.7-10.2-37.9-9.1v.1z"/><path fill="#5e5423" d="m18.8 29.3 2.6-3.5q22.5 18.3 39.3 45l4.6 7.7-5-7.7Q42.7 45 18.9 29.3m20.3-15 3.5-1.8Q62.2 42.3 70.1 68l2.2 8.2-1 .5-1 .7-1.9-8.8q-6.9-26.1-29.3-54.3m37 59.6-.7-8Q73.6 47.3 70.3 26l1.9 1.2 4.4 46.3zm8-4.3.9-20h1q-.7 5.8-1 12.5v7.1zM61.5 80.4l-1.1 1q-5.3-4.1-10.8-7-17.2-9.5-36.4-7.6l.4-2.2.1-.1q20.2-1.1 37.9 9.1 5 2.9 10 6.8"/><path fill="#6d712a" d="m19.8 23.3-.8 1-3.4-.9-.8-.3-1-.3q-6.4-2.2-6.4-4.2l2.2-.6 4.5-.6 2.2.2q1.7.3 2.7 1.1 0 2.2.8 4.6m-13.4.9q-1.3-.9-1.3-1.2l4-1 3.2.4L11 24q-1 1-2.7 1-.6 0-1.9-.8m11.7 1.4q.4.6.4 1.5 0 3.9-4 5.5h-.2l-.1-.6q0-.5.6-1.6l.6-1.1q1.2-1.8 1.7-2.1h-.4q-.7.5-1.6.8l-4.3.5q-2.3 0-2.8-.5l7.3-1.7zm40.6 17.9h.4l1.5.2q-.4.4-1.3.4h-.1q-1.9-.1-2.4-.8h.6zM63 41q.1-1.9 1.3-7.4v-.3q1 1.2 1 5.2l-.1 1.3q-.5 2-2.2 2.5zm-.1 4.5q1 0-.2 1-1 .9-2.5 1l-1.2.1-2.6-.5q1.8-.9 3.3-1.2zm8.6-8.6q.8.7 1.5 2.6l-1.8-1H71q-1-.6-1.3-1l-.3-.4q0-.7 1.3-.7l.6.2zm-1.2 4.8-1.1-.1q-1.2-.5-1.7-2.1h.8l2.5.7 3.2 1q-1 .5-2 .5zm12 .8q-.4 1.5-1.9 3.8l-1.2 1.6q-1.2 1-2.3.9l1.8-3 .1-.1q2.5-3.4 3.5-3.9zM76.7 49l2.6-.3h.2q1.8 0 7.3 1.9-1.5 1.3-4.5 1.3l-2.4-.6-1.5-.7-1.9-1.2zM26.4 61.8l.3 2-1.2-1.8-1.6-1.8q1.9 0 2.5 1.5m-12-8.4q1.8 0 1.8 3.2 0 2.2-.7 3.1l-.6.5q-.9-4.5-.9-6 0-.8.3-.8m-3.4 15 1.6-2 1-.3.1.8q0 4.3-3 7.3-.4-.5-.4-1.6 0-2.7.7-4.2"/><path fill="#818437" d="M19 18.7q.1-4.2 3-8.2 3.2 5 2.6 7.8t-4.5 5.9l-.3-1Q19 21 19 18.8M47.5 30q1.2-1.5 3.6-2 .6-.1 1-1.2l.5-1.3.5-1.2q.4-1 2.1-2.3l4-3.1q-1.9 4.8-4.6 6h-.2.2l4.3-.9 2 .2q-1.1 1.3-2.4 1.9 2 0 3.2.7l-2.9.8-2.7-.7H56l-.3-.1-1.6 2.3-.3 1-.6 1.8-.9 2.1q-1.1-1.9-1.1-2.7l.1-1.8-1 .6-2.8 1.4-.1-.7zm-22.1 2.7.3.1Q21.5 38 16 35.9q4.2-3.5 7.9-3.4H25zM58.5 26h-.4q-1.5.3-1.5.6 1-.1 1.9-.6m-2.8.7h.2q0-.2-.1 0zm-29.7.9q-.1-5 3.6-7.2.8 6.7-3.6 7.2m47.3-4.4h-.7q-2.2-.1-4.9-2.4-3.6-3.1-4.3-6.8 1.9.8 5.9 4.5l2.9 3 .1.2.9 1.3zm-3.7 1.2q1 0 1.8 1 1 1 .8 2.5-.9-.5-2-1.5-1-1.1-1-1.7 0-.3.4-.3m6.2-1.6 2.1-1.5q2.2-1.3 2.8-1.3v.3q0 2.6-3.9 2.6zm2 3.6q-.3 1.3-2.2 3l-.7.4.6-2.2q.7-2.5 2-2.5l.3.1zM75.4 32l1.3-1.6q2.6-2.8 5.5-2.5H85v.4q-.5 2.3-3.6 3.9-2.6 1.4-4.9 1.4l-1.9-.2zm-4.2-1.8H71q-4 0-4.7-3.5l.6-.1 3.5 1 1.9.6h.4v.1q-.4 1.7-1.5 1.9"/><path fill="#a0a646" d="M55.8 8.8q-.6 1.6-3 2.7l-2.1.7-2.4.2q-1.6 0-3.1-.7.6-.7 2.4-1.6l1-.5q2.8-1.3 5-1.3 2 0 2.2.5M44.2 7.2l-.2.3L43 9l.2-2.1.5-6.9q1.5 1.4 1.5 3.6 0 1.4-1 3.6m3.3 22.7q.4-2.1 2.6-3.7l-3.2.5q-1.5 0-2-.5l2.8-2.3 3.7-1.6-.1-.3q0-1 .7-2.6l.7-1.3.6 1.9.5 1.9 1.1-1.3 4.4-2.4h.1l-.2.6-4 3.1q-1.7 1.4-2.1 2.3l-.5 1.2-.5 1.3q-.4 1-1 1.2-2.4.5-3.6 2m-2.2-7-.3.1q-1.5.7-3.3.7l.1-.2q.7-1.3 2.3-2.3 1.3-.9 3.1-1.5-.4 1.6-1 2.4zm-5.7-17 .3 1.5-1.3-.9-1-.7L32 1.9v-.5h3.2q3.3 0 4.3 3zm.3 4.4h1.4l-1.9 1.1q-2.2 1-4 1-4.2 0-5.2-1.7l8.7-.3zm-6 6 6.2-3.5.5-.3 2 .5q.6.2.6.5l-2 1.4q-3.3 1.9-6 1.9zM38.7 33l1.1 3.6.4 1.6v.3L40 40l.1-.2 1.4-1q1-.6 2.1-.6h.4q0 1.3-.9 2.1l-.1.2q-.9 1-2.1 1-1 0-1.6-.5l.1-.2h-.3l-.2.1h-.5q-.5-1-.6-2-.5-2.8.9-6M34 36l.2-2.1 2.6 5-.5-.3Q34 37.6 34 36m-2.8 9.4.7-.8q1.3-.8 3.3-1l1.6-.1 2 .3q-.5 1.8-4 2H34zm25.2-15.6-.2-1.4V28l.9-.1q1.8 0 3.5 1.7l-2.1.2zm-7 10.2q-1.1 3.5-3.8 4.1l-1.1.1-2.3-.4q.4-.9 1.6-1.8h.1q2-1.6 4.8-2zm22.8-18.3-.1-1.8.1-.9.9-3.3q1-3.2 2.3-5.1l.2-.2q.3 2 .3 3.5 0 7.5-2.2 9.4l-.3.1h-.1l-.1-.2-.9-1.3zm-2.8-9q0-1.6.8-3.7 1 1 1.1 6.5v1.2l-1-1q-.9-.7-.9-3M34.4 59q0 1-.5 1.9-.5 1.2-1.8 2.2-1.9 1.4-3.4 1.4l-1.8-.6q.5-1 1.6-2.4l.6-.6q2.8-3.3 4.9-3.3.4 0 .4 1.4m-21 2.9.2 1.4v.3l-.7-.2-1.4-.8-2.2-2.1q-2.5-2.8-2.1-4.3h.6q2.3 0 4.3 3.3zm-3.8 2.8 1.9.2q-.2 1-2.3 2.4l-1.3.9Q6 69 4.3 69l-2.7-.5-.9-.6q3.3-3.3 8.4-3.3zm10.8-3-.9.9-1.4.8-.7.2h-1.6l.1-.6q.2-.9.9-1.8l1.4-1.7q2-1.8 3.3-2.2.3.3.3 1 0 1.9-1.4 3.4m-15 1.1Q1 61.8 0 61q.8-.5 2.6-.5 2.7 0 4.1 1.6l.9 1.3zM18 69.5q-.9 0-1.5-.4 2-1.5 3.9-2.3 2-.9 4.1-1-.2 1-1.9 2.2l-1 .6q-1.7.9-3.6.9"/><path fill="#5b5d23" d="m92.5 58.5-.3.5q-1.6 2.4-3.5 3.2l-.5.3-.7-.4-2.2-1.4-.3-.4q-1.2-1.2-1.6-2.6l-.2-1.5.1-.6 2.5 2.3.5.5 1.6 2.1q.3-1 1.1-2.3l1-1.7q2.2-3.8 3.8-4.7l.3.5q0 3.3-1.6 6.2m-4.8 7.7q-1.6.9-3.3.9t-2.2-1.3l-.4-1-.3-.6h.7q2.5.7 5.5 2m-2.3 4.3-.3.3-.7.5q-1-.1-1.4-1.1-.3-.7-.3-1.4t1.2-.7 1.5 2zl1.3-1.5q2.5-2.2 7-2.3 0 .5-3 2.7-2.6 1.8-4.5 1.8h-.9zm-9.7-11.7q0 3.6-2.3 6.5-1.5 1.9-2.8 2.3l-.5-.1q-1.3-.2-2.7-.9l-2-1.1q-3.2-2.1-2.8-3.4h2l2.8.9 1.7.7q-.7-2-.7-3.6 0-3.5 1.2-5.3 1.8 1.5 1.6 7.1l.1.3 4-5.2.2-.2v.2l.2 1.5zm-7.3 13-1 .5-1.5.9.2-.4.1-.6.8-1.4q.8-1.1 1.8-1.3l.1.1q.5.5.5 1 0 .8-1 1.3m3.8.5 1.6.8 1.4.6.1.2-.1-.7q-.5-1.8-.5-3.3l.8-5q1 .4 2.6 5.4l.3 1.2 3.8-3.1.2.8q0 2.8-2 4.7l-1.6 1.2-3.6 1.5-.6-.5-1.3 1.5-2.1 1.2-6.9 3.8-.6-2.5.9-.9q1-.6 1.6-.5-1.8-.5-3.1-2.3-1.2-1.7-1.1-3v-.2l3.8 1 2.1 1.4q2.1-5 3.9-6.2l.5 1.8zm.6 3.3.8-.3-1.6-1.6-.3 2.5zm-19.3-5.1 4.1 5.5L59 78l1.8-3.2q1.4 1.8 1.4 4.6 0 1.8-.6 4l-3-.8-.2-.1-2.5-4.7q-2.6-5.1-2.9-7.2zm-4 14H49q-2.8-.3-3.7-4.4l3.9 1 2.6.6 1.1.6-1.1 1.2q-1.4 1-2.3 1M13.4 61.9l1.1-.8q.1 1-.2 2.1l-.3.5-.4-.1-.7-.2-1.4-.8-.7.6-.6.7-.7.8 1.9.2q-.2 1-2.3 2.4l-1.3.9-.4 1.5v.2q1.8-.2 3.5-1.7.6-1.3 1.6-1.9h.1l.7-1 .5-1.2-.2-.5v-.4z"/></g></defs><g clip-path="url(#b)"><use xlink:href="#c" width="104.5" height="100.3" transform="translate(1 1)scale(.7808)"/></g></svg>