<svg xmlns="http://www.w3.org/2000/svg" xmlns:xlink="http://www.w3.org/1999/xlink" width="144" height="110" viewBox="0 0 144 110"><defs><radialGradient id="a" cx="0" cy="0" r="819.2" gradientTransform="matrix(.03 0 0 .03 -7.05 -34.7)" gradientUnits="userSpaceOnUse" spreadMethod="pad"><stop offset=".1" stop-color="#a98241"/><stop offset="1" stop-color="#e0cd98"/></radialGradient><radialGradient id="b" cx="0" cy="0" r="819.2" gradientTransform="matrix(.03 0 0 .03 11.95 6.5)" gradientUnits="userSpaceOnUse" spreadMethod="pad"><stop offset="0" stop-color="#b4dea0"/><stop offset="1" stop-color="#85cc6c"/></radialGradient><radialGradient id="j" cx="0" cy="0" r="819.2" gradientTransform="matrix(.09 0 0 .09 22.3 23.55)" gradientUnits="userSpaceOnUse" spreadMethod="pad"><stop offset="0" stop-color="#a9e2be"/><stop offset="1" stop-color="#73d096"/></radialGradient><radialGradient id="i" cx="0" cy="0" r="819.2" gradientTransform="matrix(.04 0 0 .04 13.85 41.2)" gradientUnits="userSpaceOnUse" spreadMethod="pad"><stop offset=".3" stop-color="#eee6c4"/><stop offset="1" stop-color="#e1ce97"/></radialGradient><radialGradient id="g" cx="0" cy="0" r="819.2" gradientTransform="matrix(.04 0 0 .04 64.65 11.75)" gradientUnits="userSpaceOnUse" spreadMethod="pad"><stop offset=".3" stop-color="#eee6c4"/><stop offset="1" stop-color="#e1ce97"/></radialGradient><radialGradient id="f" cx="0" cy="0" r="819.2" gradientTransform="matrix(.09 0 0 .09 41.55 35.3)" gradientUnits="userSpaceOnUse" spreadMethod="pad"><stop offset=".3" stop-color="#eee6c4"/><stop offset="1" stop-color="#e1ce97"/></radialGradient><radialGradient id="e" cx="0" cy="0" r="819.2" gradientTransform="matrix(0 0 0 0 62.15 11.35)" gradientUnits="userSpaceOnUse" spreadMethod="pad"><stop offset="0" stop-color="#eee6c4"/><stop offset="1" stop-color="#e1ce97"/></radialGradient><g id="q"><path fill="url(#a)" d="m13.8-42.4-.3 3.6q-1.6 2.3-4.2 4.3-2.7 2-5.7 3.1l-1.5.5q-3 1-6.5 1.1l-3-.8-.7-5.9q13 .3 21.9-6" transform="translate(17.7 59.45)"/><path fill="#e0cd98" d="M31.2 20.7 31 23v.6q-.1 2.6-3.7 4.5l-2 .8q-2.3.8-5 1l-2.2.2H18l-2.3-.1-2.4-.4q3.4-.2 6.5-1.1l1.5-.5q3-1.2 5.7-3.2 2.6-2 4.2-4.2"/><path fill="#a98241" d="m10.3 28.9-1.6-.7Q5 26.2 5 23.4v-.3L4 13l27.7 2-.2 1.9q-8.9 6.2-21.8 6z"/><path fill="none" stroke="#000" stroke-linecap="round" stroke-linejoin="round" stroke-opacity=".3" stroke-width="1" d="m31.5 17-.3 3.7L31 23m0 .6q-.1 2.6-3.7 4.5l-2 .8m-5 1-2.2.2m-2.4-.1-2.4-.4-3-.8-1.6-.7Q5 26.2 5 23.4v-.3L4 13m27.7 2-.2 1.9"/><path fill="none" stroke="#958859" stroke-linecap="round" stroke-linejoin="round" stroke-width="__RESOLUTION__" d="M31 23.1v.6" vector-effect="non-scaling-stroke"/><path fill="#af833a" d="M31 4.9q5.3 2.8 5.3 6.7 0 3.8-5.3 6.6-5.4 2.7-12.8 2.7-7.6 0-12.9-2.7T0 11.6t5.3-6.7 12.8-2.7T31 4.9"/><path fill="none" stroke="#433d27" stroke-linecap="round" stroke-linejoin="round" stroke-width="__RESOLUTION__" d="M31 4.9q5.3 2.8 5.3 6.7 0 3.8-5.3 6.6-5.4 2.7-12.8 2.7-7.6 0-12.9-2.7T0 11.6t5.3-6.7 12.8-2.7T31 4.9" vector-effect="non-scaling-stroke"/><path fill="#e8d9ac" d="m.9 7.8 4.6 4.9 24-3.3L31 4.3q5.1 2.7 5.1 6.5 0 3.9-5.3 6.6t-12.7 2.8q-7.6-.1-12.9-2.8T0 10.8q0-1.6.9-3"/><path fill="#be9950" d="m31.1 4.3-1.7 5.1-23.8 3.3L.9 7.8q1.2-2 4.4-3.6 5.3-2.7 12.8-2.7T31 4.2z"/><path fill="none" stroke="#433d27" stroke-linecap="round" stroke-linejoin="round" stroke-width="__RESOLUTION__" d="M.9 7.8q-.9 1.4-.9 3 0 3.9 5.3 6.6t12.8 2.8q7.5-.1 12.8-2.8t5.4-6.6q0-3.8-5.2-6.5l-.2-.1q-5.2-2.7-12.7-2.7-7.6 0-12.9 2.7Q2.1 5.8.9 7.8" vector-effect="non-scaling-stroke"/><path fill="#af833a" d="M33.3 8.9q0 3.2-4.5 5.6T18 16.8q-6.4 0-10.9-2.3Q2.6 12 2.6 8.9q0-3.3 4.5-5.6T18 1t10.8 2.3 4.5 5.6"/><path fill="none" stroke="#433d27" stroke-linecap="round" stroke-linejoin="round" stroke-width="__RESOLUTION__" d="M33.3 8.9q0 3.2-4.5 5.6T18 16.8q-6.4 0-10.9-2.3Q2.6 12 2.6 8.9q0-3.3 4.5-5.6T18 1t10.8 2.3 4.5 5.6" vector-effect="non-scaling-stroke"/><path fill="#eaddb5" d="m26.8 4.3-.2-.2-1-1V3h.1v-.1q.2-.3.8-.3l.5-.1.8.2q.8.4 1.7 1.4 1.6 1.7 1.8 2.9 0 1.8-1.8 1.8-1.1 0-1.3-1L28 6q-.2-.8-1.2-1.7m2 6.2q.5.3.5 1 0 2.3-8.9 3.6h-.2L19 15l-.7-.3q-.3-.3-.3-.8l.1-.4q.3-.6 1.4-1l2.8-.7 3.6-1.2.6-.1.9-.3h.3zM7.5 3.9v-.2q0-2.5 7.8-3l.9-.1.8.4.7.7v.5q0 1.2-2.5 1.2L14 3.3l-2.8.7-2.4.7q-1.3 0-1.4-.8m3 7.7q-.2 1-1.4 1-1.6 0-3.4-1.6T3.8 7.5l.5-.9h.1l.6-.3h.4l1.4 1.6Q7.8 9 9 9.8t1.3 1.8M13 13l1.6-.7h.9l.3.2.2.1.3.2.3.5v.4q0 .9-1.3.9-2.7-.3-2.7-1.4z"/><path fill="#e8d9ac" d="m25.7 3 1 1.1.1.2q1 .9 1.1 1.7l.3 2q.2.9 1.3.9 1.8 0 1.8-1.8V7q-.2-1.2-1.8-3-.9-1-1.7-1.3l-.8-.2h-.5q-.6.1-.8.4M22.3.4l-2.9 3.5 7.2-2.4 2.2.9q4.5 2.3 4.5 5.6 0 1.4-.8 2.6-1.1 1.7-3.7 3l-3 1.3-4 .8-3.8.2h-1.2q-3.2-.1-5.9-.8-2-.6-3.8-1.5l-.2-.2Q2.6 11.2 2.6 8t4.5-5.6T18 0zm-4.1 13.2-.1.4q0 .5.3.8l.7.3 1 .1h.3q8.9-1.3 8.9-3.6 0-.7-.4-1l-1.1-.3h-.3l-.9.3-.6.1-3.6 1.2-2.8.7q-1.1.4-1.4 1m-.6-11.8-.7-.7-.8-.4h-.9q-7.8.6-7.8 3.1V4q.1.8 1.3.8l2.5-.7 2.8-.7 1.1.1q2.5 0 2.5-1.2zM4.3 6.6l-.5.9q0 1.8 1.8 3.5T9 12.6q1.3 0 1.3-1T9 9.8 6.8 7.9L5.4 6.2H5l-.6.4M16 6.3l.7-.5zm-3.7 2.5 2.7-2zm4.3 5v-.4l-.4-.5-.2-.2-.2-.1-.3-.2h-.9l-1.6.7-.4.2q0 1.1 2.8 1.4 1.2 0 1.2-1m.8-8.5 2-1.5z"/><path fill="#dbc47d" d="M19.5 3.8 22.3.3q1.3 1.7 4.3 1z"/><path fill="none" stroke="#000" stroke-linecap="round" stroke-linejoin="round" stroke-opacity=".3" stroke-width="__RESOLUTION__" d="M26.8 4.3q1 .9 1.1 1.7l.3 2q.2.9 1.3.9 1.8 0 1.8-1.8V7M19.5 3.8l7.1-2.4m2.3 9.1q.4.3.4 1 0 2.3-8.9 3.6h-.2L19 15l-.7-.3q-.3-.3-.3-.8l.1-.4m7.8-2.9.6-.1M7.4 3.9q.1.8 1.3.8l2.5-.7 2.8-.7 1.1.1q2.5 0 2.5-1.2v-.5M4.3 6.6l-.5.9q0 1.8 1.8 3.5T9 12.6q1.3 0 1.3-1h0m6.4-5.8-.7.5m-1 .6-2.7 1.9m.7 4.3-.4.2q0 1.1 2.8 1.4 1.2 0 1.2-1m2.8-10-2 1.5" vector-effect="non-scaling-stroke"/><path fill="none" stroke="#433d27" stroke-linecap="round" stroke-linejoin="round" stroke-width="__RESOLUTION__" d="M26.6 1.4q-3 .6-4.4-1.1L18 0Q11.6 0 7.1 2.3T2.6 7.9 7 13.3m4 1.7q2.7.7 6 .8m4.9-.2 4-.8m6.7-4.3q.8-1.2.8-2.6 0-3.3-4.5-5.6l-2.2-1" vector-effect="non-scaling-stroke"/><path fill="#ba8f49" d="M10.1 57.7q1-5.9 1.2-14.3.5 9.7-1.2 14.3"/><path fill="none" stroke="#000" stroke-linecap="round" stroke-linejoin="round" stroke-opacity=".3" stroke-width="__RESOLUTION__" d="M10.1 57.7q1.8-4.6 1.2-14.3" vector-effect="non-scaling-stroke"/></g><g id="p"><path fill="#e8d9ac" d="M16 56.8q-5.7-.6-10-2.8-6-3.1-6-7.5v-.2Q.2 42 6 39t14.3-3 14.3 3q2.4 1.2 3.7 2.6 2.3 2.1 2.3 4.8v.3l-.1 1-.4 1-.2.6-1 1.4q-1.4 1.7-4.2 3.2-4.5 2.2-10.3 2.8l-4.1.3-2-.1z"/><path fill="none" stroke="#433d27" stroke-linecap="round" stroke-linejoin="round" stroke-width="__RESOLUTION__" d="M16 56.8q-5.7-.6-10-2.8-6-3.1-6-7.5v-.2Q.2 42 6 39t14.3-3 14.3 3q2.4 1.2 3.7 2.6M24.5 56.8l-4.2.3-2-.1" vector-effect="non-scaling-stroke"/><path fill="#5bb03e" d="M7.5 42.3q5.2-2.8 12.8-2.7l6 .4 3.6 4-19.2 3.3z"/><path fill="#3a7227" d="m26.3 40-6-.5q-7.6 0-12.8 2.8l-1.2-1.9 1.2-.6Q12.7 37 20.3 37l4.2.1z"/><path fill="#85cc6c" d="m7.5 42.3 3.2 5 1.1 5q2.1.5 2.5.9.5.4-2.2.5l.2 1q-2.6-.6-4.8-1.7l-.8-.5-2-1.4-1-1-1-1.6-.3-.6v-.2l.1-.8q.7-1.7 2.7-3.2zm16.9 10.9q1.1 0 1.1.3t-.4.1l-2 .1-.7.1h-2q-1.1 0-1.1-.3t.6-.3l2-.1h.6z"/><path fill="url(#b)" d="M-9.2 2.4 10.1-1 6.4-5q3.7.7 6.8 2.3 4.4 2.2 5.1 5.3V3q-.9 2.8-5.1 5L9.6 9.6l.7-3.2-2.5-.1q0-.4 2.9-1.4l.6-3.1q-9.4 6.7-20.5.7" transform="translate(19.9 44.9)"/><path fill="#4d9634" d="m26.3 40-1.8-2.7q4.8.5 8.6 2.5 5.2 2.6 5.2 6.6l-.1 1.2q-.7-3.1-5.1-5.4-3.1-1.6-6.9-2.2m-19.9.4 1.2 1.9-2.3 1.4q-2 1.4-2.7 3.2l-.2.8-.1-1.4V46q.1-2.1 1.9-3.9l.5-.5zm6 14.4-.2-1.1q2.7-.1 2.2-.6-.4-.3-2.5-.9l-1.1-5q11.1 6.1 20.5-.6l-.7 3.1q-2.9 1-2.7 1.3l2.4.3-.7 3.1q-4.1 1.3-9.2 1.3zm12-1.6-1.8-.1h-.6l-2 .1q-.6 0-.6.3t1.1.3h2l.7-.1h2q.4 0 .4-.2t-1.2-.3"/><path fill="none" stroke="#433d27" stroke-linecap="round" stroke-linejoin="round" stroke-width="__RESOLUTION__" d="m24.5 37.3-4.2-.2q-7.6-.1-12.8 2.6l-1.2.7h0m-4 7.3.1.1.2.7m4.1 4 .8.5q2.2 1.1 4.8 1.8l8 .9q5.1 0 9.2-1.3l3.6-1.4q4.2-2.2 5-5.1l.1-.3.1-1.2q0-4-5.2-6.6-3.8-2-8.6-2.5M4.1 42l.5-.5m-2.3 6-.1-1.2V46" vector-effect="non-scaling-stroke"/><path fill="#e8d9ac" d="M14.6 40.6q2.6-1.1 6.1-1.1 4.3 0 7.3 1.6 3 1.5 3 3.8 0 2.1-3 3.8-3 1.5-7.3 1.5t-7.4-1.6z"/><path fill="#ceae7b" d="M13.2 48.6q-2.9-1.6-2.9-3.7 0-2.2 3-3.8l1.2-.6z"/><path fill="none" stroke="#433d27" stroke-linecap="round" stroke-linejoin="round" stroke-width="__RESOLUTION__" d="M14.6 40.6q2.6-1.1 6.1-1.1 4.3 0 7.3 1.6 3 1.5 3 3.8 0 2.1-3 3.8-3 1.5-7.3 1.5t-7.4-1.6h0q-3-1.6-3-3.7 0-2.2 3-3.8z" vector-effect="non-scaling-stroke"/><path fill="#e8d9ac" d="M29.4 6.8h-.1l.1-.3zm0-.3-.1.3-1.6 1.5h-.1l-.4.2q-2.7 1.7-6.5 2.3l-6.5-.4Q12.5 9.9 12 9l-.3-1.9L10.5 0H31l-1.2 4.6v.2z"/><path fill="#c5a063" d="m29.3 6.8-.8 4.5v.1q-4.4 6.7-8.3 10.4-3.3-2-5.6-4.6-1.4-1.6-1.9-2.9l-.2-.5-.1-.8v-.2l-.2-.6-.4-3.2q.7.9 2.2 1.4l6.6.3q3.8-.5 6.5-2.2l.4-.2h.1z"/><path fill="#ede1b6" d="M27.7 8.3h-.1z"/><path fill="#bf9755" d="m12.3 12.2.2.6v.2l.1.8.2.5q.5 1.3 2 2.9 2.2 2.6 5.4 4.6h.1q-4.1 4-7.7 4.4v-.4l.1-1.5q.1-6-.4-12.1m-.6 25.7.1-1L12 35l.3-2.7 1.9 2 .8.6.4.3 1.3.8-1.5.5-.7 4.2-.3-.2-.7-.4q-1.6-.9-1.8-2.2"/><path fill="#cbaa74" d="M20.3 21.8q3.9-3.7 8.3-10.4-.8 5-.8 9.9V23l-.3.3q-.5.4-1.4.4h-.4q-2.2 0-5.4-1.9"/><path fill="#c29c5c" d="M27.8 23v1.5l-1 2.3-.8.7-.3.3q-2.3 1.6-5.5 2.2l-4 .1-1.5-.4q-1.4-.4-1.9-1.3l-.2-.4v-1.8q3.6-.4 7.7-4.4 3.2 1.8 5.4 2h.4q.9-.1 1.4-.5z"/><path fill="#e0cd98" d="M27.8 24.5v.7l-.4.8-.6.8z"/><path fill="url(#c)" d="m7.9-19.7.2 3 .2 2.5.6 4.6.3 1.6v.4l-.3.4-.6.5-1.4.4Q4.3-6 .6-7.2q-2-.7-3.7-1.6Q.8-10.3 4-14q1.7-2 2.8-4.1l.8-1z" transform="translate(19.9 44.9)"/><path fill="#deca8f" d="m29.2 37.3.1.8q-.4 1.4-2.5 2.4-2.6 1.3-6.3 1.4-3.5-.1-6-1.2l.7-4.2 1.6-.5q1.6 1 3.7 1.7 3.7 1.2 6.3.8.8-.1 1.4-.4l.6-.4z"/><path fill="url(#d)" d="M9.4-6.8q.7 3.5 1.7 6.9H-6l.7-4.3Q-3-3.1.6-3q3.7-.1 6.3-1.3Q9-5.4 9.4-6.8" transform="translate(19.9 44.9)"/><path fill="#ceae7b" d="M13.8 45h-3.3l1.2-7q.3 1.2 1.8 2.1l.7.4.3.2zm-1.5-12.7.1-1.8.1-.9.1-1.7.2.5q.5.9 1.9 1.4l1.6.3h3.9q3.2-.7 5.5-2.4l.3-.2.8-.7Q25.6 29 23.9 31q-3.2 3.7-7.1 5.1l-1.4-.8-.5-.3-.7-.6z"/><path fill="none" stroke="#958859" stroke-linecap="round" stroke-linejoin="round" stroke-width="__RESOLUTION__" d="m29.5 6.5-.2.3-1.6 1.5h-.1l-.4.2q-2.7 1.7-6.5 2.3l-6.5-.4Q12.5 9.9 12 9m.3 3.2.2.6v.2l.1.8.2.5q.5 1.3 2 2.9 2.2 2.6 5.4 4.6h.1q3.2 1.8 5.4 2h.4q.9-.1 1.4-.5l.3-.4m-1 4 .6-1 .4-.7m-1 1.6-.8.7-.3.3q-2.3 1.6-5.5 2.2l-4 .1-1.5-.4q-1.4-.4-1.9-1.3l-.2-.4m4.2 8q1.6 1 3.7 1.7 3.7 1.2 6.3.8.8-.1 1.4-.4l.6-.4.3-.4m-14.6 3.4q2.5 1.1 6 1.1 3.7 0 6.3-1.2 2.1-1.1 2.5-2.5m-14.8 2.6-.3-.2-.7-.4q-1.6-.9-1.8-2.2m.6-5.6 1.9 2 .8.6.4.3 1.3.8" vector-effect="non-scaling-stroke"/><path fill="none" stroke="#000" stroke-linecap="round" stroke-linejoin="round" stroke-opacity=".3" stroke-width="1" d="m12 9 .3 3.2q.5 6 .4 12.1v1.9m15.9-14.8q-.8 5-.8 9.9v3.2m0 .7.1 3 .3 2.6.6 4.5.3 1.6v.4m.2.8Q30 41.5 31 45m-20.5 0 1.2-7 .1-1 .2-2h0l.3-2.7.1-1.8.1-.9.1-1.7v-1.6"/><path fill="none" stroke="#433d27" stroke-linecap="round" stroke-linejoin="round" stroke-width="__RESOLUTION__" d="m28.6 11.4.8-4.5M12 9l-.3-1.9L10.5 0H31l-1.2 4.6v.2l-.4 1.7m-1.6 18v.7m1.3 12.1.2.8" vector-effect="non-scaling-stroke"/></g><g id="n"><path fill="#cd5454" fill-opacity=".4" d="m.9 3.2.4-.5q.5-.6 1.4-.5.6 0 1.1.3l.3-.6q.3-.6.8-.8l1-.9v.4l-.6.5q-.6.2-.6 1L5 3v.1l-.5.1-.2-.3-.3-.3-.1-.1h-.1l.2.1.3.3v.3q-.2 2-2.8 2h-.1L1.3 5h-.2l-.4-.8v-.3q0-.4.2-.7M2.8 3l.2-.2q.1-.3-.2-.4h-.5l-.5.3-.3.2.3.3.5-.1zm-1 1.8-.4-.4-.3.5.3-.5zm1.3-1.3-.4.1-.1.4.1.4.4.1.4-.1.1-.4-.1-.3z"/><path fill="#a63131" fill-opacity=".4" d="m5 3.3-.1.5q0 .5.5.5t.8-.5l.3-.5.2.5q0 1.3-1.2 1.3-.8 0-1.1-.4l-.4.4q-.6.5-1.3.5l-1.2-.2q2.6-.2 2.8-2.1V3l.2.3zm-.6 1.4.1-.8v-.6.6z"/><path fill="#f2d2d2" fill-opacity=".4" d="M.8 4.2H.7L.4 4l-.2-.4.1-.3.4-.1h.2q-.2.3-.2.7zm2.5-.6.4.1.1.4-.1.4-.4.1-.4-.1-.1-.4.1-.3z"/><path fill="#d77777" fill-opacity=".4" d="m2.8 3-.5.1h-.5L1.5 3l.3-.2.5-.3h.5q.3.1.2.4z"/><path fill="none" stroke="#000" stroke-linecap="round" stroke-linejoin="round" stroke-opacity=".1" stroke-width="__RESOLUTION__" d="m.9 3.2.4-.5q.5-.6 1.4-.5.6 0 1.1.3l.3-.6q.3-.6.8-.8l1-.9v.4l-.6.5q-.6.2-.6 1L5 3v.1l-.1.6q0 .5.5.5t.8-.5l.3-.5.2.5Q6.7 5 5.5 5q-.8 0-1.1-.4L4 5q-.6.5-1.3.5l-1.2-.2m-.1-.2L1.1 5l-.4-.8h0L.4 4l-.2-.4.1-.3.4-.1h.2q-.2.3-.2.7v.3m.4.8.3-.5.5.4m1.3-1.3.4.1.1.4-.1.4-.4.1-.4-.1-.1-.4.1-.3z" vector-effect="non-scaling-stroke"/><path fill="none" stroke="#000" stroke-linecap="round" stroke-linejoin="round" stroke-opacity=".1" stroke-width="__RESOLUTION__" d="m1.5 5.4-.1-.2M4.3 3 4 2.7l-.1-.1h-.1m.7.7v.6l-.1.8M4.3 3l.2.3" vector-effect="non-scaling-stroke"/><path fill="#000" fill-opacity=".1" d="M4.2 7.8H1.9q-.7 0-.7-.2t.5-.3l1.1-.2 1-.1.5.5z"/></g><g id="m"><path fill="#857d49" fill-opacity=".8" d="M71.5.8q29.3 0 49.9 11 20.7 11 20.4 26.5-.2 15.5-21.2 26.6-20.9 11-50.2 11t-50-11T0 38.3q.2-15.5 21.1-26.5Q27.6 8.3 35 6q-.5-1.2.1-2.2Q39.8.3 54.2 0q3.6.3 5.4 1.3z"/><path fill="url(#e)" d="M61.4 12.7q-1 0-.9-1.2.3-1.4 1.7-1.5 3.5 2.4-.8 2.7" transform="translate(71 27.7)"/><path fill="#af833a" d="M120.7 14.8q19.9 10.3 19.9 24.8t-19.9 24.8-48.1 10.3-48.1-10.3T4.6 39.6t19.9-24.8T72.6 4.6t48.1 10.2"/><path fill="none" stroke="#000" stroke-linecap="round" stroke-linejoin="round" stroke-opacity=".3" stroke-width="1" d="M120.7 14.8q19.9 10.3 19.9 24.8t-19.9 24.8-48.1 10.3-48.1-10.3T4.6 39.6t19.9-24.8T72.6 4.6t48.1 10.2"/><path fill="#d3b88b" d="m104 21.3 3.8-4.4zm-16.7-5.5v-13zm20.5 1.1 1 .5q5.3 2.8 8.8 6l.4 2.1.1 1.1v1.6q0 2.6-.5 5l-3.9-.4 3.8.4q-1.7 6.8-8.3 12.5l-.7.5L105 49l-2.5 1.6-4.2 2.2q-9 4.3-19.9 6l-13.8 1-6.4-.2Q49.6 59 42 56.8l-5.1-2.3L34 53l-.7.9q-3.6-1.6-6.9-3.4l-2.7-1.8q-4.2-2.8-7-5.9l6.8.3Q22 39.7 22 36q0-4.4 2.4-8.2 3.4-5.6 11.8-10l.6-.4q4-2 8.5-3.5 3.7-1.3 7.8-2.2l6.7-1.1 8.9-.8-6.5-7.4 10.5-.3 14.7.7q7.2.8 13.8 2.3l.4.3.9.5q5.5 3.3 9.1 7zm-1.1 26.4 2.5 2.4z"/><path fill="#dcc6a3" d="M117.6 23.4q-3.5-3.2-8.8-6l-1-.4 3.7-4.1q4.7 4.9 6 10.5"/><path fill="#e8d9ac" d="M111.5 12.9q-3.6-3.7-9.1-7l-.9-.5-.5-.3q7.2 1.7 13.5 4.4zm-94.6 30q2.8 3 6.9 5.8l2.7 1.8q3.3 1.8 6.9 3.4 6 5.8-2.1 7.9l-2 .4-3.4.4-1.4-.7Q8.3 53.5 5.3 42.4q5.1-3.6 11.6.5m100.6-19.5q5.2 4.7 6 10.3l-6-.6q.6-2.4.7-4.9l-.1-1.6-.1-1.1zm0 9.8 6 .5.1.9V36q0 8.5-9 15l-5.4-5.3q6.6-5.7 8.3-12.6"/><path fill="#be9950" d="m62.1 2.4 6.5 7.4-8.9.8-5.6-7.3 6.8-.7zm-26 15.4q-8.4 4.4-11.9 10-5 6-11.8 6.7-1.5-4.7-1.5-6.3 0-4 1.4-7.5Q16.5 16.5 23 13q17.8-5 13.1 4.7"/><path fill="#c6a064" d="M59.7 10.6 53 11.8q-4.1.8-7.8 2-4.5 1.5-8.5 3.6l-.6.4Q40.8 8 23 13l1.5-.8Q29.9 9.5 36 7.5l3.4-1 6.3-1.7 8.4-1.5z"/><path fill="#ccac77" d="M24.3 27.8q-2.4 3.8-2.4 8.2 0 3.7 1.8 7.1l-6.8-.2q-2.7-3-4.1-6.1-1-2.1-.7-2.3h.3q6.7-.7 11.9-6.7"/><path fill="#e1ce97" d="m33.4 53.9.7-.9 2.6 1.5 5.2 2.3q11 4.5 24.8 5.3 5.3 4.7-3.6 7.4l-4.5 1-3.5.6-10.9-2-3.9-1q-3.8-1.1-7.4-2.4l-4.3-1.9-2.7-1.2 3.4-.4 2-.5q8.2-2 2.1-7.8m107.2-18.6v1.8q0 13.4-16.7 23.1-11.6 2.2-9.4-9.2 9.2-6.5 9.2-15l-.1-1.4-.1-.9q11.3 14.2 17 1.6M5 32.9q1.4-6.6 7.3-12.2-1.4 3.6-1.4 7.5 0 1.6 1.5 6.3H12q-5 2-7.1-1.6"/><path fill="url(#f)" d="M-29.1 29.2q7.6 2 16.3 2.6l6.3.2 13.9-1q10.8-1.6 19.8-6l4.2-2.2 2.5-1.6 3.6-2.6.6-.6 5.4 5.3q-2.1 11.4 9.4 9.2l-3.2 1.7q-7.8 4-16.9 6.5l5.2-3 2.5-2q5.3-5.3-6.7-7-8.6 3.6-18.9 5l-13.1.8-6.1-.1q-13.8-.9-24.8-5.2m63-3.6-.1 3.1z" transform="translate(71 27.7)"/><path fill="url(#g)" d="m43.6-18.2 6.1 2.8q18.6 9.6 19.8 23-5.7 12.6-17-1.6-.9-5.6-6-10.3-1.4-5.6-6-10.5z" transform="translate(71 27.7)"/><path fill="#ebdfb4" d="m103.8 68.4-11 2.3-2.6-.7-3-1.3Q82.6 66 86 61.4q10.3-1.4 18.8-5 12 1.7 6.8 7l-2.5 2zm-98.5-26q-.8-2.6-.7-5.3 0-2.1.4-4.2 2.1 3.6 7.1 1.6-.3.1.7 2.3 1.4 3.2 4 6-6.4-4-11.5-.4"/><path fill="url(#i)" d="M21.9 43 13 44l-11.5.5-15.1-.8-2.3-.3 3.4-.5 4.6-1.1Q1 39-4.3 34.4l6 .1 13.2-.8q-3.5 4.5 1.3 7.3l3 1.3z" transform="translate(71 27.7)"/><path fill="none" stroke="#958859" stroke-linecap="round" stroke-linejoin="round" stroke-width="__RESOLUTION__" d="m107.9 17-4 4.3M87.4 2.8v13m20.5 1.1 3.7-4 3-3.4m-91 33.6-6.7-.2q-6.5-4.1-11.6-.5m28.1 11.5.7-.9m75-7.3-2.4-2.4m16.8-9.6q11.3 14.2 17 1.6m-23-2.1 6 .5m-9 17.3q-2.2 11.4 9.3 9.2m-6.2-27-3.9-.4M90.2 70l2.6.7M86 61.4q-3.5 4.6 1.3 7.3m17.5-12.3.3-3.1m6.5 10q5.3-5.2-6.7-6.9m-1 12 5.2-3m.2-19.7 5.3 5.3M59.8 10.6l-5.6-7.3M23 13.1q17.8-5 13.1 4.7m-2.7 36.1q6 5.8-2.1 7.9m-2 .4-3.4.4m29.3 8.5 3.4-.5m4.5-1.1q8.9-2.7 3.6-7.5M12.4 34.7q6.7-.9 11.9-6.9m-12 6.8h-.2q-5 2-7.1-1.6" vector-effect="non-scaling-stroke"/><path fill="none" stroke="#433d27" stroke-linecap="round" stroke-linejoin="round" stroke-width="__RESOLUTION__" d="M101 5.1q-6.5-1.5-13.7-2.3l-14.7-.7-10.5.3-1.2.2m53.7 6.9 6.1 2.8q18.6 9.6 19.9 23v1.8q0 13.4-16.7 23.1l-3.2 1.7q-7.8 4-16.9 6.5l-11 2.3-8.7 1m-26.6-.3-2.4-.3-10.9-2m-3.9-1q-3.8-1.1-7.4-2.4m-4.3-1.9-2.7-1.2-1.4-.7Q8.3 53.5 5.3 42.4q-.8-2.6-.7-5.3 0-2.1.4-4.2 1.4-6.6 7.3-12.2Q16.5 16.5 23 13l1.5-.8Q29.9 9.5 36 7.5m65-2.4q7.2 1.7 13.5 4.4" vector-effect="non-scaling-stroke"/><path fill="#80602b" d="M110.7 17.8q15.7 8.1 15.7 19.6t-15.7 19.7q-15.9 8.1-38.2 8.1T34.4 57q-15.8-8-15.8-19.6 0-11.5 15.8-19.6t38.1-8.2 38.2 8.2"/><path fill="none" stroke="#433d27" stroke-linecap="round" stroke-linejoin="round" stroke-width="__RESOLUTION__" d="M110.7 17.8q15.7 8.1 15.7 19.6t-15.7 19.7q-15.9 8.1-38.2 8.1T34.4 57q-15.8-8-15.8-19.6 0-11.5 15.8-19.6t38.1-8.2 38.2 8.2" vector-effect="non-scaling-stroke"/><path fill="#cead6a" d="M112.3 13q16.4 8.4 16.4 20.4t-16.4 20.4-39.6 8.5T33 53.8 16.6 33.4q0-12 16.4-20.4 16.4-8.5 39.7-8.5 23.2 0 39.6 8.5"/><path fill="none" stroke="#433d27" stroke-linecap="round" stroke-linejoin="round" stroke-width="__RESOLUTION__" d="M112.3 13q16.4 8.4 16.4 20.4t-16.4 20.4-39.6 8.5T33 53.8 16.6 33.4q0-12 16.4-20.4 16.4-8.5 39.7-8.5 23.2 0 39.6 8.5" vector-effect="non-scaling-stroke"/><path fill="#acc76d" d="M113 19.1q4.8 1.2 7.9-1.7 1 1.1-4.2 5.4l-3-3.2zm14.2 6q-6.2 1.4-7.4 4-.6-2.9-2.3-5.4 2.8 2 9.7 1.3m-7.4 22.7-5.1 3.4-6-3.4 1.8-1q3.3 1.3 9.3 1m-8.6 5.3q-7.6 3.6-16.5 5.6l-.2.1q.3-3-3.8-4.2l.5-.1.1-.1q7.6-1.6 14-4.8l1.8.9q.7 1.5 4.1 2.5M24.5 18l8.6.8-3.2 3q-5.6-3.6-5.4-3.8m15 31.2 3.5 1.7q-9 .9-11.3-.5-.9-.7 7.5-1.3zM25.9 34.9q.6 2.6 2.2 5-2.9-2.6-6.6-1.4-1.6-.1 4.4-3.6"/><path fill="#e8d9ac" d="m113 19.1.7.5 3 3.2q5.1-4.3 4.2-5.4-3 2.9-7.9 1.7m14.2 6.1q1.5 3.3 1.5 6.8l-.4 4-12.3-1-.7 2 11.8 2.3q-2.2 4.5-7.3 8.5-6 .3-9.3-1l-1.8 1 6 3.4-2.4 1.3-1.1.5q-3.5-1-4.1-2.5l-1.8-.9q-6.4 3.1-14 4.8h-.1l-.5.1q4.1 1.3 3.8 4.3-6.9 1.5-14.5 2L75.9 54h-1.5l1.6 7h-3l-.7-6.7h-.9L71 61l-16-1.4 4-7-4.2-1.3-6.8 6.8q-8-2.1-14.9-5.6Q16.7 44 16.6 32.2V32v.1L29 29.7l-.1-1.3-11.5-1.2q.6-2.2 2-4.3l9.8 1.9.8-1.2-9.7-2q4-5.4 12.7-9.9 4.6-2.3 9.8-4l7 6.1L65.2 9 61 3.8l11.7-.6q23.2 0 39.6 8.5 5.2 2.7 8.8 5.7 4.2 3.6 6.1 7.8-6.9.6-9.7-1.4 1.7 2.5 2.3 5.4 1.2-2.6 7.4-4M24.5 17.9q-.2.2 5.4 3.8l3.2-3zm15 31.2-.3-.1q-8.4.5-7.5 1.3 2.3 1.4 11.3.5zM25.9 34.9q-6 3.5-4.4 3.6 3.7-1.2 6.6 1.5-1.6-2.5-2.2-5.1"/><path fill="#a3b450" d="m128.3 36-1.3 3.3-11.7-2.2.8-2.1zM79.9 60.8 76 61l-1.5-7H76zM73 61h-2l.4-6.7h.8zm-18-1.4-7-1.5 6.8-6.8 4.3 1.3zM16.6 32q0-2.5.8-4.9l11.5 1.2.1 1.3-12.4 2.5m2.8-9.3.9-1.3 9.7 2-.8 1.2z"/><path fill="#be9950" d="M42.8 7.6q8.4-2.8 18.3-3.8l4 5.1L50 13.7z"/><path fill="none" stroke="#433d27" stroke-linecap="round" stroke-linejoin="round" stroke-width="__RESOLUTION__" d="M127.2 25.2q1.5 3.3 1.5 6.8l-.4 4-1.3 3.3q-2.2 4.5-7.2 8.5l-5.1 3.4-2.4 1.3-1.1.5q-7.6 3.8-16.5 5.8h-.2q-6.9 1.5-14.5 2l-4 .2h-5l-16-1.4-7-1.5q-8-2.1-14.9-5.6Q16.7 44 16.6 32.2V32q0-2.5.8-4.9.6-2.2 2-4.3l.9-1.3q4-5.4 12.7-9.9 4.6-2.3 9.8-4 8.4-2.8 18.3-3.8l11.6-.6q23.2 0 39.6 8.5 5.2 2.7 8.8 5.7 4.2 3.6 6.1 7.8" vector-effect="non-scaling-stroke"/><path fill="#386f26" d="M72.6 17.4q-12.6 0-22.8 2.9L47.3 16q9.2-3 20.3-3.5z"/><path fill="#5bb03e" d="M72.6 17.4 83 27.3l-27.8 2-5.4-9q10.2-2.9 22.8-2.9"/><path fill="#4d9634" d="m72.6 17.4-5-4.8 5-.2q20 0 34.3 7.3 12.4 6.5 14 15.2l-.7 2.5q-.7-1.9-2-3.7-1.1-3.5-5.2-5.2-3.3-1.2-4.8-2.5l-1.7-1.4Q102 21 96 20.4q-3.6.3-6.7-1.5-3.7-1.7-7.7-1.1-2.8.6-5.3-.4-1.7-.4-3.5 0zM47.3 16l2.5 4.3q-1.5-.3-3.3.7l-.6.4q-2.6 1.4-5.1 2l-.3.1q-1.4.2-2.6.8-1.4.6-2.3 1.8-2.6 2.5-5.5 4-2.5 1-3 3.4-.9 2-2.2 3.9l-.7-2.5q1.5-8.7 14-15.2 4.3-2.2 9-3.7"/><path fill="#767049" d="M67.6 12.5Q56.5 13 47.3 16q-4.8 1.5-9.1 3.7-12.5 6.5-14 15.2l-.2-2.5Q24 22 38.2 14.7t34.3-7.3q20.2 0 34.3 7.3 14.3 7.3 14.3 17.7l-.2 2.5q-1.6-8.7-14-15.2-14.2-7.3-34.4-7.3z"/><path fill="url(#j)" d="M1.7-10.3q1.8-.4 3.5 0 2.5 1 5.4.4 3.9-.6 7.5 1Q21.5-7 25-7.2q6.2.8 10.6 4.2l1.7 1.4Q38.7-.4 42 .9q4.1 1.6 5.2 5.1 1.3 1.8 2 3.7l-1 2.3q-3.4 5.8-12.4 10.4-14.1 7.4-34.2 7.4t-34.4-7.4q-9-4.6-12.3-10.4l-1-2.3q1.3-1.8 2.1-4 .6-2.3 3.1-3.3 2.9-1.4 5.5-4 .9-1.2 2.3-1.8 1.2-.6 2.6-.8h.3q2.5-.7 5-2l.7-.5q1.8-1 3.3-.7l5.4 9L12-.4z" transform="translate(71 27.7)"/><path fill="none" stroke="#433d27" stroke-linecap="round" stroke-linejoin="round" stroke-width="__RESOLUTION__" d="m24.9 37.4 1 2.3q3.3 5.8 12.3 10.4 14.2 7.4 34.3 7.4 20.2 0 34.3-7.4 9-4.6 12.4-10.5l1-2.2.6-2.5.3-2.5q0-10.4-14.2-17.7T72.4 7.4t-34.3 7.3T24 32.4l.2 2.5z" vector-effect="non-scaling-stroke"/><path fill="#4d9634" d="M91.4 36.6q-.3 1.1 0 1.7l.3.8v.6q.2 1.4-1.2 2.9l-.8.7h-.1l-4.5.8q-4.1.7-1.2 1.4l2.5.3-.6.7q-.5.5-2 .5h-1.1q-1 .1-1.8 1v1l-.4 1.5-.2.3-1 .2q-5 .9-1.2 1.5l2 .3.2.3q.3 1.6 0 3.1l.2 1q-11 .5-17.5-.3l.1-1.2.1-.2 4.5-.3q10.1-.6-.2-1.4l-4.2-.3q-.5-1.6-.1-2.9v-.3l3.5-.6q1.8-.6-.1-.9l-3.7-.3-.2-.4q-.7-.5-1.6-.4-1.5-.2-2.6-1-.6-.6-1.3-.9l-1.5-.4q-1.7-.6-2.5-2-2.1-2.1-2.1-4.7v-.3q.2-4.1 6-7.1 5.9-3.1 14.3-3.1t14.3 3q2 1 3.3 2.2 2 1 2.3 2.6z"/><path fill="#767049" d="m82.9 39.2-.2-.1-.7.5-1.1.6-2.1 1q-3.1 1-7 1H71l-5.3-.6-1.7-.5-2-.9-1-.6-.9-.5-.1.1q-8.5-4.4-8.7-9.2H63l1-.3 7-1.1h.8q4.6 0 8.1 1.4h11.7q-.3 4.8-8.7 9.2"/><path fill="none" stroke="#433d27" stroke-linecap="round" stroke-linejoin="round" stroke-width="__RESOLUTION__" d="M82.9 39.2q8.4-4.4 8.7-9.2H79.9q-3.5-1.4-8.1-1.4H71l-7 1.1-1 .4H51.3q.3 4.7 8.7 9.1l.1-.1.9.5 1 .6 2 1 1.7.4 5.3.6h.8q3.9 0 7-1l2.1-1 1-.6.8-.5z" vector-effect="non-scaling-stroke"/></g><linearGradient id="d" x1="-819.2" x2="819.2" gradientTransform="matrix(.01 0 0 0 .05 -2.2)" gradientUnits="userSpaceOnUse" spreadMethod="pad"><stop offset="0" stop-color="#ceae7b" stop-opacity="1"/><stop offset="1" stop-color="#e8d9ac" stop-opacity="1"/></linearGradient><linearGradient id="c" x1="-819.2" x2="819.2" gradientTransform="matrix(.01 0 0 .01 1.4 -11.95)" gradientUnits="userSpaceOnUse" spreadMethod="pad"><stop offset="0" stop-color="#ceae7b" stop-opacity="1"/><stop offset="1" stop-color="#e8d9ac" stop-opacity="1"/></linearGradient><clipPath id="l"><path d="M1 1h142v108H1z"/></clipPath><path id="k" fill="#73d096" fill-opacity=".4" d="M96.7 22.5 96 25l-1 2.3Q91.6 33 82.7 37.7 68.5 45 48.4 45 28.2 45 14 37.8 5 33.1 1.7 27.2L.7 25 0 22.5q1.5-8.7 14-15.2 4.3-2.2 9-3.7Q32.4.6 43.5.2l5-.2q20 0 34.3 7.3 12.4 6.5 14 15.2M48.4 5"/><use xlink:href="#k" id="o" width="96.7" height="45"/></defs><g clip-path="url(#l)"><g transform="translate(72 60.45)"><use xlink:href="#m" width="141.8" height="75.9" transform="translate(-71 -27.7)"/><use xlink:href="#n" width="6.9" height="7.8" transform="matrix(-1 0 0 1 -21.6 -2.55)"/><use xlink:href="#o" width="96.7" height="45" filter="url(#filter-object-2)" style="mix-blend-mode:hard-light" transform="translate(-46.3 -18.05)"/><use xlink:href="#p" width="40.6" height="57" transform="translate(-19.9 -44.9)"/><use xlink:href="#n" width="6.9" height="7.8" transform="translate(29.05 6.8)"/><use xlink:href="#q" width="36.3" height="57.7" transform="translate(-17.7 -59.45)"/></g></g></svg>