<svg xmlns="http://www.w3.org/2000/svg" xmlns:xlink="http://www.w3.org/1999/xlink" width="64" height="77" viewBox="0 0 64 77"><defs><clipPath id="b"><path d="M1 1h62v75H1z"/></clipPath><use xlink:href="#a" id="c" width="113.3" height="137.7"/><g id="a"><path fill="#000" fill-opacity=".3" d="M96.6 103.9q0 1.6-2.2 2.7t-5.5 1.2-5.5-1.2-2.2-2.7 2.3-2.8 5.4-1 5.4 1 2.3 2.8"/><path fill="#000" fill-opacity=".3" d="M97.9 107.4q-3 1.5-7.3 1.5-4.1 0-7.1-1.5t-3-3.6 3-3.5 7.1-1.5q4.3 0 7.3 1.5 2.9 1.5 2.9 3.5 0 2.2-3 3.6m-65.7 26q0 1.4-2 2.3-1.9 1-4.5 1-2.7 0-4.6-1t-1.8-2.2 1.9-2.3q1.8-1 4.5-1 2.6 0 4.6 1 1.8.9 1.8 2.3"/><path fill="#000" fill-opacity=".3" d="M35.6 133.4q0 1.8-2.6 3-2.4 1.3-6 1.3-3.4 0-6-1.3-2.4-1.2-2.4-3t2.4-3 6-1.2 6 1.2q2.5 1.2 2.5 3"/><path fill="#735940" d="M110 21.9h-3q-1.2-1.2-3.3-1.2-1.4 0-2.9 1l-2.2-2q1-.8 10.3-1.1zM92 11.8q-.2-3.6-1.7-5.5-1.5-2.1-6-4.7l.9-1.3q6.6 0 8.3 8.4l.5 3.7zM85.5 23l-.8-1.1 2-2.2q1.8 1.3 3.3 4l-1-.2z"/><path fill="#574731" d="m107 22 3-.1 3 8.9q0 1.3-4.1 9.5v.4q-4.3 2.4-4.8 2.4l-2.1-.6-1.8-1 .4-2 1 .3.5.1 5.2-1q2.2-8.3 2.2-10.4-.8-3.7-2-5.9zm-8.4-2.2 2.3 2Q99 23 97.1 25.4q-3.9 4.9-3.7 10-.9 4.5-3.4 32.4-1.1 3.4-1.6 6.5L85.8 76q1.8 2 1.8 3l-2.8 10.8q-2.2 8.3-3.3 13.8l-.2 1-.5-.2q-.6-.5-.6-1.2 0-.9 2.5-8 .5-1.8.8-5.9l.6-6.1q3.9-22.4 3.9-25 0-3.5-1.4-13.8l2.6-1.1V43l.3-10.3q0-4.7-2.4-8L85.5 23l3.5.4 1 .3 1.8 3.7.1-3.5.1-5.8-.2-2.2q-.5-.2-1-1 1.2-.7 1.2-1.7v-1.4l2 .6.3 12.7q1.4-2.5 4.3-5.4m-7.7 21.5L92 35l.3-5.2L92 35zm2.7-14.9.7-1.1zm-1.4 2.4-.4-1.2zm-1.6 8.7.5-2.5 1 .3-1-.3zm.5-2.5v-2zm-1.9 8.4-.2 4.5z"/><path fill="#261e15" d="m101.6 39.8-1-.2v-1l.2-2.9 3.5-.1z"/><path fill="#362b1f" d="m90.1 67.7 1.3-3.4q1.6-4.2 1.8-5.7v-.2h.1l3.5-1.5q-5.4 13.6-6.5 23.7L88 96.9q-.4 6.7-1.6 7.7l-.8.2-1.6.2-2.7-.5.2-1q1-5.5 3.3-13.7l2.8-10.9q0-1-1.7-3l2.5-1.7q.5-3 1.7-6.5m-1.8 7.4.2-.8z"/><path fill="none" stroke="#000" stroke-linecap="round" stroke-linejoin="round" stroke-opacity=".3" stroke-width="__RESOLUTION__" d="m110 21.9-1.1-3.3q-9.3.3-10.3 1.1h0q-2.9 2.9-4.3 5.4L94 12.4l-.5-3.7Q91.8.3 85.2.3l-.9 1.3q4.5 2.6 6 4.7 1.5 2 1.7 5.5V13q0 1.1-1.2 1.9.5.8 1 1l.2 2-.1 5.9-.1 3.5-1.8-3.7q-1.5-2.7-3.2-4l-2.1 2.2.8 1 1.6 1.8q2.4 3.3 2.4 8L89.2 43v.1l-2.6 1.2Q88 54.7 88 58.1q0 2.5-3.9 25l-.5 6.1q-.3 4.1-.9 5.8-2.5 7.2-2.5 8t.6 1.3m20-82.5q1.5-1.1 2.9-1.1 2.1 0 3.3 1.3l.5.6q1.2 2.2 2 5.8 0 2.2-2.2 10.5l-5.2 1-.5-.1-1-.2-.4 1.9m8.8-.8-.1-.4q4-8.2 4-9.5l-2.9-9m-15.7 3.3-.7 1.1m-1.8 1.2.4 1.2m8.6-6.9q-1.7 1.2-3.5 3.6-4 4.9-3.7 10-1 4.5-3.5 32.4l1.3-3.4q1.6-4.2 1.8-5.7v-.2h.1l3.5-1.5q-5.4 13.6-6.5 23.7L88 96.9q-.4 6.7-1.6 7.7l-.8.2m3.4-57 .2-4.6m11.4-3.7v-.9l.2-2.9 3.5-.1-2.7 4.2m-1-1.2v1m8.3.7.2.3-.1.1m-19 27q-1.1 3.4-1.6 6.5l-.2 1" vector-effect="non-scaling-stroke"/><path fill="none" stroke="#000" stroke-linecap="round" stroke-linejoin="round" stroke-opacity=".2" stroke-width="__RESOLUTION__" d="m100.2 41.5 1.8 1 2.1.6q.5 0 4.8-2.4h0M92.5 29.8l-.3 5.3-1.2 6m1.2-6-1-.3-.5 2.5m.5-4.5v2" vector-effect="non-scaling-stroke"/><path fill="#4d3f2b" d="M21.5 135.3q-.7-14.5-3.1-22.6l3.8-.1q1 10.3 1.2 22.2z"/><path fill="#836b49" d="M18.4 112.8q2.4 8 3.1 22.5l-2.1-.3q-1.1-14-3.1-21.2.9-.7 2.1-1"/><path fill="none" stroke="#000" stroke-linecap="round" stroke-linejoin="round" stroke-opacity=".3" stroke-width="__RESOLUTION__" d="M23.4 134.8q-.2-11.9-1.2-22.2l-3.8.2q-1.2.3-2.1 1 2 7.3 3 21.2" vector-effect="non-scaling-stroke"/><path fill="#574731" d="M84 106.2q.8-5.7 2.3-10.4 1.8-5.7 3.4-7.3l.3.3q0 .3.5 1l.1-.6.4-2q0-.3.7-1.5 1-1.3 1.8-1.3.7 0 1.7 1.2v1l-1 7.9-1.6 8.8q-.3 1.5-2.7 2.6-2.1.8-4 .8z"/><path fill="#a78a61" d="M95.2 85.6q-1-1.2-1.7-1.2-.9 0-1.8 1.3-.7 1.2-.7 1.5l-.4 2-.1.6q-.5-.7-.5-1l-.3-.3Q88 90 86.3 95.8q-1.5 4.8-2.2 10.3l-1.3-.4q1.3-3.7 2.1-8.6l1.2-7.5q1.4-7.1 5.5-7.1 2.1 0 2.9.7.6.6.7 2.4M24 87.3l.4-1.2q1.8-4.5 2.4-4.5l2.3.1q-.9 1-2 4z"/><path fill="#6d593d" d="M5.3 23.9q.8-1 2.6-1l1.3.3q1.9 0 3.2 4.2l1.2 4.6-2.5.5-1.2-2.8Q8.4 26.5 7 25.1q-1-1.2-1.8-1.2M20.7 97q-1.8-5.2-4.2-8.6v-2.5q2.4 2.3 4.1 5.7l.1.3zM4.4 42.2q3.3-3.5 4-5v.5q-.6 6.5-1.8 6.5-2 0-2.4-.5l-.5-.9z"/><path fill="#4d3f2b" d="m13.6 32 .8 3.4v.4q1 2.9 2 7.1l1.1-7.2q.5-1 1.6-1.1-.9 5.8-.9 9.4 0 5 .6 11.3l.4 2.8q1.9 13.4 3.6 33.1l1.2-3.9 3.1-1.7-1.2 3.2q-2 5.7-1.8 8v.5q1 0 .8 2.5l3.2 33.3q-1.7 1.7-4.1.3l-2.3-31.8-.5-.7q-1.1-1.6-2-1.6L19 98h.3l1.3.5.5.3-.5-1.7v-5.2l.3.5q-3.7-43.2-8.1-55.8l-.2-.6-1.6-3.5zm9.3 60.5v-.6zm-.1-1.2-.1.3.2.3zm-4-36Q17.7 48 16.4 43q1.3 5.1 2.4 12.4"/><path fill="#a4865b" d="M17.5 35.7v-.4q-.2-1 1.3-2 1.3-1 2.7-1.2h.3v.8q-.4 1.6-.2 2l-2.2-.4-.3.1q-1.1.1-1.6 1"/><path fill="#261f15" d="M7.2 25q-1.3 1.3-3 4.2-2.4 4.1-2.4 6 0 .8 2.6 6.9l-.7.6-1.3-2.2-2.1-5.2L1.9 30q.9-3.4 2.5-5.5l.4-.4.5-.2Q6 23.9 7 25"/><path fill="none" stroke="#000" stroke-linecap="round" stroke-linejoin="round" stroke-opacity=".3" stroke-width="__RESOLUTION__" d="M95.2 85.6q-.1-1.7-.7-2.4-.8-.7-3-.7-4 0-5.4 7.1l-1.2 7.5q-.9 4.9-2.2 8.6M5.3 23.9q.8-1 2.6-1l1.3.3q1.9 0 3.2 4.2l1.2 4.6.8 3.4v.4q1 2.9 2 7.1l1.1-7.2v-.4q-.2-1 1.3-2 1.3-1 2.7-1.2h.3v.8q-.4 1.6-.2 2l-2.2-.4-.3.1q-.9 5.8-.9 9.4 0 5 .6 11.3l.4 2.8q1.9 13.4 3.6 33.1l1.2-3.9.4-1.2q1.8-4.5 2.4-4.5l2.3.1h0q-.9 1-2 4l-1.2 3q-2 5.8-1.8 8.1v.5q1 0 .8 2.5h0l3.2 33.3m-4.1.3-2.3-31.8-.5-.7q-1.1-1.6-2-1.6L19 98h.3l1.3.5.5.3-.5-1.7q-1.8-5.3-4.2-8.7v-2.5q2.4 2.3 4.1 5.7m.1.3.3.5q-3.7-43.2-8.1-55.8l-.2-.6-1.6-3.5-1.2-2.8Q8.4 26.5 7 25.1q-1.2 1.1-3 4.1-2.3 4.1-2.3 6 0 .8 2.6 6.9 3.3-3.5 4-5v.5q-.6 6.5-1.8 6.5-2 0-2.4-.5l-.5-.9-1.3-2.2-2.1-5.2L1.9 30q.9-3.4 2.5-5.5h0l.4-.4.3-.3h.2Q6 24 7 25.2M5.2 24l-.5.2m12.7 11.5q.5-.9 1.6-1m-15.2 8 .5-.6M23 91.8v.6m-.1-1.2v.6l-.1-.2zm-6.4-48.3q1.3 5.1 2.4 12.4" vector-effect="non-scaling-stroke"/><path fill="none" stroke="#000" stroke-linecap="round" stroke-linejoin="round" stroke-opacity=".2" stroke-width="__RESOLUTION__" d="M101.3 5.6q-3 6.1-7 9.3l-1 .6-.8 1.4q.8-.1 1.6-.8l.3-.3q4.8-2.5 8-1.2m-11.4.8 1.3.3 1-.2.7-1.6m-2.7 2.5q.5.5 1 .5h.2l-.8.6m2.6-2q5.8-4.3 9.7-5M42 45.3l-1-.5-.3.3v33.5M43.1 38q-1.8 2.4-2.4 6.5v.1l.4-.2.3-.4m-.7.6.2.1.3-.3q7.5-2.3 14.8-5.2l.2-.3q-2.1-.4-3.5-2m3.5 2-.2-.3-.2-.2q-1.2-2.1-.6-9m1.6 8.5-.5.8.4.1q10-4 19.3-9.2l.4-.2h0v-.2l.5-.1.5-.2 1.3-.8.4-.8M56.4 38.7l-.1.1.1.2.4-.2.7.2m-1.4-.4.3.1m-.4.4.4-.1h-.2m-.2.1-.5.7m21.3-10.3.3-.4-.6.3zl.6.3m-.7-.3-.3.5v26.8m.5-27.7 1.3-.1.5-.9q7.9-4.6 15.4-10M76.5 30v-.6m-.4.2L75 33M14.9 45l-3.3.4m3.2 0q-2.2 1-2.3 3.9m6.2-3L17.3 48h.5l1-.3m-.2 1.2q-.7.6-1.7.6l-1.2-.3 1.6-1.2q-1.4-.2-2.2-1.2m0-.6q3.5-1.3 3.4-2.7m21.4.9.8.3h0m0 0v.5m0-.6q-1.9-1.8-1.6-6.4m17.3 21.5V39M16.2 50.5q12.6-2.2 24.5-5.9" vector-effect="non-scaling-stroke"/><path fill="#ad4671" d="M59.4 66.9q-.4 1-2 1.9-2.2 1-5.2 1h-.8q-3.6-.5-4-2.3l-.7-2.5q-.2-.5-.9-.7l1.2-.7q2.2-1 5.2-1t5.2 1q2.1 1 2.1 2.6zm-9.6 3.2.4.8-.4.6q-.2.3-.6.3l-.8-.3-.2-.7q0-.4.2-.7l.8-.2q.4 0 .6.2m5.6.4.2-.5.4-.2.5.2.2.5-.2.4-.5.2-.4-.2z"/><path fill="#7f3161" d="M45.8 64.3q.8.3.9.8l.6 2.4q.5 1.8 4.1 2.3h.8q3 0 5.2-1 1.6-.8 2-1.9-.4 3.5-3.5 5-2.1 1.1-3.6 1.1-1.4 0-3.5-.9-3.9-2.6-3.7-7.3.2-.5.7-.5m4 5.8q-.2-.2-.6-.2-.5 0-.8.2-.2.3-.2.8l.2.6.8.3q.4 0 .6-.3l.4-.7zm5.6.4.2.4.4.2.5-.2.2-.5-.2-.4-.5-.2-.4.2z"/><path fill="none" stroke="#4f3f28" stroke-linecap="round" stroke-linejoin="round" stroke-opacity=".8" stroke-width="__RESOLUTION__" d="m59.4 66.9.1-.7q0-1.6-2.1-2.6-2.2-1-5.2-1t-5.2 1l-1.2.7" vector-effect="non-scaling-stroke"/><path fill="#997539" fill-opacity=".5" d="M57.4 60.9q-2.1-2.1-5-2.1-3 0-5 2.1-2.1 2-2.1 5 0 2.9 2 5 2.1 2 5 2 3 0 5-2 2.1-2.1 2.1-5 0-3-2-5m.8-.9q2.3 2.4 2.3 5.8 0 3.3-2.3 5.7-2.4 2.3-5.7 2.3t-5.7-2.3-2.4-5.7 2.4-5.7 5.7-2.4 5.7 2.3"/><path fill="#997539" fill-opacity=".3" d="M57.4 60.9q2 2 2 5 0 2.9-2 5-2.1 2-5 2-3 0-5-2-2.1-2.1-2.1-5 0-3 2-5 2.1-2.1 5-2.1 3 0 5 2.1"/><path fill="none" stroke="#726553" stroke-linecap="round" stroke-linejoin="round" stroke-opacity=".8" stroke-width="1" d="M58.2 60q2.3 2.4 2.3 5.8 0 3.3-2.3 5.7-2.4 2.3-5.7 2.3t-5.7-2.3-2.4-5.7 2.4-5.7 5.7-2.4 5.7 2.3"/><path fill="#fff" fill-opacity=".5" d="M52.9 61.6q.1 1.6-.5 3.3t-2.2 2.2l-2.7-.2q-1.2-.8-1.3-2.3t.7-3 2.3-2.2q1.3-.6 2.4 0t1.3 2.2"/><path fill="#896f03" d="m64.8 58.5-.2-.2h-.3l-.1.4v.3l.1.1-.8.6q-.6.2-1.6 1.2-.5.1-1.2 1.3l-1.4 1.3-.1-.2-.7-.7q-.5-.7-.4-1.5l.3.1q.4-.4 1.3-.3 1 0 1-.6t-1-.5l-1.3.1q.4-.6 1.5-.5l.6.1 1-.3 1.2-.8q.7-.8 1.4-.7h.3l.2.6z"/><path fill="#594802" d="m64.4 59.1-.2-.1v-.3l.1-.4h.3l.2.1v.1h.1l.1.4-.2.3h-.3z"/><path fill="#6c5702" d="m64.8 58.5-.2-.2-.2-.6q.4 0 .7.5.4.6.3 1.3 0 .7-1 1L63 61l-.5.5-.4 1.6-.5.8q-.2.5-1 .3-.8-.1-1.3-.6l1.4-1.3q.7-1.2 1.2-1.3 1-1 1.6-1.1l.8-.7h.2l.1.1h.3l.1-.3z"/><path fill="#8a5702" d="m61.5 59.2-1 .3h-.6q-1.1-.2-1.5.4l-.6-.7.5-.5h.2l.3-.2.3-.1h.7q1 0 1.7.8m-3.4 2q0 .7.4 1.3l.6.8.2.2-.2 1.1-.8-.5V64l-.1-.2-.5-.5q-.5-.9-.5-1.8v-.8zm.8 3.5q.6.5 1.3.5v.1h.5l-1.1.3-.5.1-.8.3q-.5.2-1.4-.7z"/><path fill="#ad8b03" d="m58.5 59.9 1.1-.1q1.1 0 1.1.5t-1 .6q-.9-.1-1.3.4l-.2-.1v-.7q0-.4.2-.6"/><path fill="#6c4502" d="M63 61q.4.3.3 1.2 0 1.1-.7 2l-1.3.9h-.2v.1h-.8l-1.2-.6q0-1 .2-1.1.5.5 1.3.6.8.2 1-.3l.5-.8.4-1.6z"/><path fill="#997539" fill-opacity=".5" d="M60.8 65.2v.3q-.1 1.4-.6 1.9l-1 .9q-.5.4-1 .4-1.8-.2-2.3-2.2l-.2-3.3q.2.9 1 1.6l.3.4q.9.9 1.4.6l.9-.2.4-.1z"/><path fill="#b87403" d="m55.7 63.2-.2-1V61l1.7-.3 1 .4v-.6q0-.4.2-.6l-.6-.7.5-.5-.6.2.1.3-.2.2q-.4.4-.4 1.3v.8q0 1 .5 1.8l.4.5.1.1.1.1.8.6-2.1.6-.3-.4q-.8-.7-1-1.6"/><path fill="#c97e03" d="M55.6 61q.1-.9.5-1.5l1.5-.6.2.3-.2.2q-.4.4-.4 1.3z"/><path fill="none" stroke="#000" stroke-linecap="round" stroke-linejoin="round" stroke-opacity=".3" stroke-width="1" d="M64.4 57.7H64q-.6-.1-1.4.7l-1.2.8q-.7-.8-1.7-.8H59l-.3.1m5.5-.9q.5.1.8.6t.3 1.3-1 1L63 61q.4.4.3 1.3 0 1.1-.7 2l-1.3.9m-5.7-2.9V61q.1-.9.5-1.5l1.5-.6.7-.2m2.5 6.5-1.1.3-.5.1-.8.3q-.5.2-1.4-.7l-.3-.4q-.8-.7-1-1.6"/><path fill="none" stroke="#000" stroke-linecap="round" stroke-linejoin="round" stroke-opacity=".3" stroke-width="__RESOLUTION__" d="m61.5 59.2-1 .3h-.6q-1.1-.2-1.5.4-.2.2-.2.6v.6h0q-.2.8.3 1.4l.6.8.2.2q.5.5 1.3.6.8.2 1-.3l.5-.8.4-1.6.5-.5m-1.7 4.2h-.2v.1h-.8 0l-1.2-.6-.8-.5V64l-.1-.2-.5-.5m.6-4.6h.2l.3-.2m-.5.2-.5.4-.2.3m-.4 1.6v.2h0" vector-effect="non-scaling-stroke"/><path fill="#524201" d="m77.5 58.8-.4.1q-.7.4-1.3-.4-.6-.6-.4-1.2l.4-.7z"/><path fill="#6c5702" d="M75.9 56.6v-.1q.3-.4.8-.4l.8.2q.5 0 1.5-.5l.2.5-.4.5q-.3.3-.5.9-.1.6-.8 1z"/><path fill="none" stroke="#000" stroke-linecap="round" stroke-linejoin="round" stroke-opacity=".3" stroke-width="__RESOLUTION__" d="m77.5 58.8-.4.1q-.7.4-1.3-.4-.6-.6-.4-1.2l.4-.7.2-.1q.3-.4.8-.4l.8.2q.5 0 1.4-.5l.2.5-.4.5q-.3.3-.5.9-.1.6-.8 1" vector-effect="non-scaling-stroke"/><path fill="#39c" d="m67.8 59.4.8-.5q1.5-.7 3.5-.7t3.4.7 1.5 1.8l-.2.4q-.2.7-1.3 1.3-1.5.7-3.5.7h-.5q-2.4-.4-2.7-1.6l-.5-1.6zm3.1 4.8.1-.6.5-.1.5.1.2.6-.2.4q-.2.2-.5.2l-.5-.2zm2.2-.6.3.1.1.3-.1.3-.3.2-.3-.2-.1-.3.1-.3z"/><path fill="#236c8f" d="M76.9 61.1q-.3 2.4-2.4 3.4-1.4.7-2.4.7t-2.3-.6q-2.7-1.8-2.5-4.9.2-.3.5-.3l.5.5.5 1.6q.3 1.3 2.7 1.6h.5q2 0 3.5-.7 1.1-.6 1.3-1.3m-5.9 3 .1.5.5.2q.3 0 .5-.2l.2-.4-.2-.6-.5-.1-.5.1zm2.2-.6-.3.1-.1.3.1.3.3.2.3-.2.1-.3-.1-.3z"/><path fill="none" stroke="#4f3f28" stroke-linecap="round" stroke-linejoin="round" stroke-opacity=".8" stroke-width="__RESOLUTION__" d="m67.8 59.4.8-.5q1.5-.7 3.5-.7t3.4.7 1.5 1.8l-.2.4" vector-effect="non-scaling-stroke"/><path fill="#997539" fill-opacity=".5" d="M75.5 57Q74 55.7 72 55.7t-3.3 1.4q-1.5 1.4-1.5 3.4t1.5 3.4Q70 65 72 65t3.4-1.3 1.3-3.4q0-2-1.3-3.4m.5-.5q1.6 1.6 1.6 3.8 0 2.3-1.6 3.9-1.6 1.5-3.8 1.5t-3.9-1.5q-1.5-1.7-1.5-3.9t1.5-3.8q1.7-1.6 3.9-1.6t3.8 1.6"/><path fill="#997539" fill-opacity=".3" d="M75.5 57q1.3 1.4 1.3 3.4t-1.3 3.4Q74 65 72 65t-3.3-1.3q-1.5-1.4-1.5-3.4t1.5-3.4 3.3-1.4 3.4 1.4"/><path fill="none" stroke="#726553" stroke-linecap="round" stroke-linejoin="round" stroke-opacity=".8" stroke-width="1" d="M76 56.5q1.6 1.6 1.6 3.8 0 2.3-1.6 3.9-1.6 1.5-3.8 1.5t-3.9-1.5q-1.5-1.7-1.5-3.9t1.5-3.8q1.7-1.6 3.9-1.6t3.8 1.6"/><path fill="#fff" fill-opacity=".5" d="M72.5 57.7q0 1-.4 2.1t-1.5 1.5l-1.7-.1q-.9-.6-.9-1.6-.1-1 .5-2t1.5-1.5 1.6 0q.8.5.9 1.5"/><path fill="#d66038" d="m34.1 81.5.7-.5q1.5-.7 3.5-.7 1.9 0 3.4.7 1.3.7 1.4 1.7l-.1.5q-.2.6-1.4 1.2-1.4.7-3.4.7h-.5q-2.3-.3-2.6-1.5l-.5-1.6zm3.2 5.1-.1-.5.1-.5.5-.1.5.1.1.5-.1.5-.5.2zm1.7-.9.3-.1.3.1.1.3-.1.3-.3.1-.3-.1-.1-.3z"/><path fill="#813a26" d="m34.1 81.5.5.5.5 1.5q.3 1.3 2.6 1.6h.5q2 0 3.4-.7 1.1-.6 1.4-1.2-.2 2.3-2.3 3.3-1.4.6-2.4.6l-2.3-.5q-2.5-1.7-2.4-4.8.2-.3.5-.3m3.2 5.1.5.2.5-.2.1-.5-.1-.5-.5-.1-.5.1-.1.5zm1.7-.9-.1.3.1.3.3.1.3-.1.1-.3-.1-.3-.3-.1z"/><path fill="none" stroke="#4f3f28" stroke-linecap="round" stroke-linejoin="round" stroke-opacity=".8" stroke-width="__RESOLUTION__" d="m43 83.2.1-.5q0-1-1.5-1.7-1.4-.7-3.4-.7-1.9 0-3.4.7l-.7.5" vector-effect="non-scaling-stroke"/><path fill="#997539" fill-opacity=".5" d="M38.4 77.9q-1.9 0-3.2 1.3t-1.4 3.3 1.4 3.3 3.2 1.3 3.4-1.3 1.3-3.3q0-2-1.4-3.3-1.4-1.4-3.3-1.4m-3.6.8q1.5-1.5 3.8-1.5 2.1 0 3.7 1.5 1.5 1.6 1.5 3.8t-1.5 3.7-3.7 1.6-3.8-1.6-1.5-3.7 1.5-3.8"/><path fill="#997539" fill-opacity=".3" d="M38.4 77.9q2 0 3.4 1.3t1.3 3.3-1.4 3.3-3.3 1.3-3.2-1.3-1.4-3.3q0-2 1.4-3.3 1.3-1.4 3.2-1.4"/><path fill="none" stroke="#726553" stroke-linecap="round" stroke-linejoin="round" stroke-opacity=".8" stroke-width="1" d="M34.8 78.6q1.5-1.5 3.8-1.5 2.1 0 3.7 1.5 1.5 1.6 1.5 3.8t-1.5 3.7-3.7 1.6-3.8-1.6-1.5-3.7 1.5-3.8"/><path fill="#fff" fill-opacity=".3" d="M38 78.3q.7.4.8 1.5l-.4 2.1Q38 83 37 83.3l-1.7-.2q-.8-.4-.9-1.4t.4-2q.6-1 1.5-1.4t1.6 0"/><path fill="#b87403" d="m40.7 80.3-.2-.6V79l1-.4v.4l.1.1.4 1.2.3.3.1.1.5.4-1.2.5-.3-.2zm1-2.8.5-.3-.1.1-.3.3.5.5-.1.4v.4l-.6-.3q-.1-.5.1-.8l.1-.2z"/><path fill="#c97e03" d="M40.5 79q0-.7.3-1.1l1-.5v.4h-.1q-.2.3-.2.8z"/><path fill="#8a5702" d="m42.3 77.2.2-.1h.1l.5-.1q.7 0 1.2.4l-.7.3h-.4q-.7 0-.9.3l-.5-.5.3-.2zm-.6 4.3 1.3-.4-.5-.3v-.1l-.4-.5-.4-1v-.6l.6.3.3.8.4.5.2.1q-.2.1-.2.8l.9.3h.4l-.8.2-.2.1q-.3 0-.6.3-.3.1-1-.5"/><path fill="#896f03" d="m44.3 77.4.7-.5q.4-.7.9-.7h.1l.3.4.1.2-.1-.1H46l-.2.2.1.1v.1l.1.1-.6.4-.9.9q-.3.1-.7.9l-.8 1-.2-.2-.4-.5-.3-.8h.1q.3-.3.9-.3t.6-.4-.7-.4l-.8.3q.2-.5.9-.5l.4.1z"/><path fill="#6c5702" d="m46 76.3.5.3.3.8q0 .4-.6.7l-.9.4-.2.3-.2 1-.3.7-.7.1-.8-.2.8-1q.4-.8.7-.9.6-.7 1-.9l.5-.4h.3l.1-.2v-.2h-.1l-.1-.2z"/><path fill="#6c4502" d="m45.3 78.5.3.8q0 .7-.4 1.3l-.8.7h-.1l-.1.1h-.4l-.9-.3q0-.7.2-.7l.8.2.7-.1.3-.7.1-1z"/><path fill="#997539" fill-opacity=".5" d="M44.2 81.4v.2q0 .9-.4 1.3l-.5.6-.6.3q-1.3 0-1.7-1.3l-.4-2.2.8 1.1.3.1q.6.6.9.5l.5-.3h.3z"/><path fill="#594802" d="M46.1 77.2 46 77v-.4h.4v.1l.1.3v.1H46"/><path fill="#ad8b03" d="M42.2 78.9v-.4l.1-.5.8-.2q.7 0 .7.4t-.6.4-.9.4z"/><path fill="none" stroke="#000" stroke-linecap="round" stroke-linejoin="round" stroke-opacity=".3" stroke-width="1" d="M40.5 79.7V79q0-.7.3-1.1l1-.5.5-.2m.2-.1.5-.1q.7 0 1.2.4l.7-.5q.4-.7.9-.7h.1l.5.4.3.8q0 .4-.6.7l-.9.4.3.8q0 .7-.4 1.3l-.8.7m-3.7-1 .7 1.1.3.1q.6.6.9.5l.5-.3h.3l.8-.3"/><path fill="none" stroke="#000" stroke-linecap="round" stroke-linejoin="round" stroke-opacity=".3" stroke-width="__RESOLUTION__" d="m42.3 77.2.2-.1m2 4.2h-.2 0l-.1.1h-.4 0l-.9-.3-.5-.3v-.1h0l-.4-.5m-.5-1.2v-.2m1.6 1.5.8.3.7-.1.3-.7.1-1 .3-.3m-3-1.3-.2.1-.3.3v.2m.5.3q.2-.5.9-.5l.4.1.7-.3m-2.1 1.5v-.4l.1-.5m-.1.9.3.8.4.5.2.1" vector-effect="non-scaling-stroke"/></g></defs><g clip-path="url(#b)"><use xlink:href="#c" width="113.3" height="137.7" transform="matrix(.5419 0 0 .5417 1 1)"/></g></svg>