<svg xmlns="http://www.w3.org/2000/svg" xmlns:xlink="http://www.w3.org/1999/xlink" width="156" height="87" viewBox="0 0 156 87"><defs><clipPath id="a"><path d="M1 1h154v85H1z"/></clipPath><path id="b" fill="#000" fill-opacity=".1" d="m9-22.2.4-3 1.2 2.9h2.3L14-26l.8 3.5 3.3.1 1-3.7.6 3.8 3.4.1 1.2.1 3.1.3.9-2.7.3 2.8h.4l4 .5 3.6-4.5-1 4.8 2.7.4 1-1.4.2 1.7 3.9.8 2.3-2.3v2.9l3.5.8 4.5-4.6-1.6 5.6 2.4.8 1.3-1.1-.2 1.4 2.8 1.1 3.8-2.3-1.2 3.4.9.4 2.4-2.4-.8 3.2 1 .5 2.7-2-1 2.8 2.4 1.3 4.7-2.2-2.8 3.4.8.4.9.6 3.4-1.2-1.7 2.4L75.7-5l5.8-1L78-3l.3.3 1.3 1.3 3.2-.9-2.5 1.8 2.9 4h2l-1.6.7.8 1.8 2.8-.4L84.7 7l.8 2.8 4.2-.4-4 1.8.1 2.1v1.6l3.8.3-4 1.3-.4 2 3.3.6-3.7.7-.6 1.7 3.2.3-3.7 1.8 3.4 1.9-5.2.1-2.7 3.1 1.5 1.8-2.5-.6-1.9 1.6 2.8 2.8-5.1-.9-.6.4-2.7 1.8 1.5 2-3-1.1-4.5 2.4-.7.4 2.5 3.8-7.1-1.7-2.7 1 1 3.5-4.2-2.3-3.7 1.1 1.4 3.3-5.2-2.2-6.1 1.4-3 .4.8 4.5-4.8-3.9-6.1.7.9 6.6-4.3-6.4-5.2.3-.6 5.6-1.8-5.5H14l-3.2-.1-1 7L7 49.3l-7.8-.5-2.6 6-1.2-6.5L-7 48l-1 6.3-1.2-6.7-4.6-.9-2 6.2-.5-6.7-5.4-1.4-5.4 5.6 2.7-6.4-5.9-2.2-7.5 2.9 4.1-4.3-3-1.5-2.1-1-10.9 3.7 5.8-6.8-4.5-3.3-6.6 1.4 4.3-3.5-3-3.6-7.8.8 6.3-3.2-1.2-2.6h-4.7l4-2q-.5-1.8-.6-3.6h-4.8l4.8-2.2v-1.4q.3-3 1.5-5.8L-64 3.2l9.4-.5.1-.2q2-3.1 5.1-6L-53-5.8h6.5l2.6-1.8-1.6-3.7L-42-9l5.3-3 1.2-.5-1.6-2.5 3.4 1.6 2.9-1.2 3.1-1.2-.4-.8-1.2-3 4.3 2.9.6-.2 2.8-.9-1.2-4 3.7 3.3 5.9-1.4-.2-3.1 1.6 2.8 2.9-.5V-28l3.5 6.9 1.5-.2 1-6.2L0-21.7l3.5-.3.5-3.6 1.5 3.5z" transform="translate(64 28)"/></defs><g clip-path="url(#a)"><use xlink:href="#b" width="153.7" height="84.4" transform="translate(1 1)"/></g></svg>