<svg xmlns="http://www.w3.org/2000/svg" xmlns:xlink="http://www.w3.org/1999/xlink" width="273" height="81" viewBox="0 0 273 81"><defs><g id="k"><path fill="#2e4911" d="m12.3 5.5-.2-.1q-6.3-.7-8.8-.2L2.9 5Q-.1 3.3 0 2.3t2-2h3.8q4.2 2.3 5.8 4l1.3.1h-1.3zM.8 2.2l3 .3.8.1.4.1.3 1.6L5 2.7h-.4l-.8-.2zm3-.7v1.2zm.8 1.3.3-.8zM2 1l.6.9zm4.9 2.7-2-1z"/><path fill="none" stroke="#5d653b" stroke-linecap="round" stroke-linejoin="round" stroke-width="__RESOLUTION__" d="M5.3 4.4 5 2.6h-.4l-.8-.2-3-.4m3 .4v-1m1.1.6-.3.6m-2-.7L2 1m3 1.7 1.9 1" vector-effect="non-scaling-stroke"/></g><g id="j" fill="none" stroke-linecap="round" stroke-linejoin="round" stroke-width="2"><path stroke="#595826" d="M45.9 23.2q7.5 14 5.4 20.9m-5.2 22.8 6 3.8"/><path stroke="#2b2e13" d="M4.8 33q1.3-2.2 1.8-3.5L10 23m7.8 48.9q3.8-4 4.4-6"/><path stroke="#645b2d" d="m10 22.9 4.4-3.2q-.3-2.7.9-4t5-.7m2 50.8q.6-2 1.3-3.1.8-1.3 5-2.7"/><path stroke="#777a34" d="m20.4 15 3.4 8m5.7 1 16.4-.8m-5.1 39.7q3.3-2.6 5.3 4M28.6 60q4.3-1.4 6.5 2m33-2.8q-3 .3-8.6 1.8"/><path stroke="#a49c48" d="M23.8 23q2.8 2.5 4.8 1.6l.9-.6m5.6 38q2.4 3.4 5.7.9"/><path stroke="#0d592f" stroke-opacity=".3" d="m52 70.7-36 6.5"/><path stroke="#1a1a0b" d="m13.5 76 4.3-4.2M1 41.6q5-4.2 3.8-8.6"/><path stroke="#4a4122" d="M74.5 65.5Q71 58.9 68 59.2"/><path stroke="#595826" d="m59.5 61-3 5.3"/><path stroke="#345204" stroke-opacity=".8" d="m73.2 66.2-15.8 1.4"/><path stroke="#777a34" d="M44 13.9q3.5-1.1 4.4-8.2m-15.3 11q1.6-1.4 4.5-1.6"/><path stroke="#595826" d="m48.4 5.7.1-4.7"/><path stroke="#1a1a0b" d="M4 47.2q9.2 2.2 13.8-3"/><path stroke="#2b2e13" d="m17.8 44.3 7-10.6"/><path stroke="#645b2d" d="M24.8 33.7q2.8-4.5 4.7-10t3.5-7"/><path stroke="#a49c48" d="M37.7 15.1q2.9-.2 6.3-1.2"/></g><g id="h" fill="none" stroke-linecap="round" stroke-linejoin="round" stroke-width="2"><path stroke="#595826" d="M67.1 23.2q7.5 14 5.5 20.9M4 63.7 1 69m85.2-4.7q7.5 13.9 5.6 7"/><path stroke="#a49c48" d="M45.8 24.7q.5.6 5-.7m19.9 31.7 2 4.3"/><path stroke="#777a34" d="M50.8 24q4.4-1.3 16.3-.8M42.4 23q2.8 1 3.4 1.6M11.4 62.8q-2.7.8-7.4 1m63.2-8.9q3 .2 3.5.9m2 4.3q1.6 3.8 13.5 4.3"/><path stroke="#645b2d" d="M37.2 20.5q.3-1.5 1.3 0t3.9 2.5m14.3 38q.5-2 4-4.2t6.5-2"/><path stroke="#2b2e13" d="M30.1 29.4q6.9-7.5 7.1-9m-5 46.5-3.5-4m20.5 7.5q6.8-7.5 7.4-9.4"/><path stroke="#1a1a0b" d="M28.8 62.9 27.6 61q-.5-1.6-3.2-3.4l-1.1-.6m17.6 12.7q2.4 2.3 8.3.6M21.8 28.7q2.4 2.3 8.3.7"/><path stroke="#4a4122" d="M23.3 57.2q-1-.6-1.9-.9l-2.2-.1q-2.4.1-2.8.6l-1.6 3.6q-.7 1.5-3.4 2.3"/><path stroke="#716b33" d="m90.9 54.1.8.4.6 1.1.4 1m-9.1 1h.1v-.1l.1-.3q.5-1 2.2-2.2h0"/><path stroke="#585427" d="m92.7 56.6.1.3.5.6m-10.7 1.6.3-.4.7-1"/><path stroke="#8a843e" d="m86 55 .8-.4 1-.5h.3l.5-.1h1l1.3.1"/><path stroke="#0d592f" stroke-opacity=".3" d="m91 73.6-40-1.7"/><path stroke="#345204" stroke-opacity=".8" d="M31 68.4 2 70.1"/><path stroke="#595826" d="M70.4 30.2q3.7 5.2 3.3 6.2M69.2 8.6l.5-7.6"/><path stroke="#777a34" d="m67 11.6 2.2-3M51.5 24.9q3-1.5 5.7-3.4m6.2 7.5q1.9-2.7 7 1.2M55.7 45.5l3.5-8.1m-6.4 21.5.3-1.4V57l.6-4"/><path stroke="#645b2d" d="m46 33.7 5.3-8.7.3-.1m-3.2 43q3.1-1.6 4.5-9m.9-5.9.1-.8q.9-4.9 1.8-6.7"/><path stroke="#a49c48" d="M57.2 21.5q5.3-4 9.8-9.9m-7.7 25.8 1-2.5 1.9-4 1.2-1.9"/><path stroke="#1a1a0b" d="M25.2 47.2q9.2 2.2 13.8-3M26.4 59q10.9 10.5 14.2 10"/><path stroke="#2b2e13" d="m39 44.3 7-10.6M40.6 69q4.3.7 7.8-1.1"/></g><g id="f" fill="none" stroke-linecap="round" stroke-linejoin="round" stroke-width="2"><path stroke="#777a34" d="m42.9 11.6 2-3M27.5 24.9q2.9-1.5 5.6-3.4m-1.5 24 3.5-8.1m4.2-8.4q1.9-2.7 7 1.2M28.7 58.9l.2-1.4V57l.7-4"/><path stroke="#595826" d="m45 8.6.5-7.6m.7 29.2q3.7 5.2 3.3 6.2"/><path stroke="#645b2d" d="m21.8 33.7 5.3-8.7.3-.1M29.6 53l.1-.9.4-2.5q.7-2.9 1.4-4.2M24.2 68q3.2-1.6 4.5-9"/><path stroke="#a49c48" d="M33 21.5q5.4-4 9.9-9.9M35 37.4l1.1-2.5 1.9-4 1.2-1.9"/><path stroke="#1a1a0b" d="M1 47.2q9.2 2.2 13.8-3M2.2 59q10.9 10.5 14.2 10"/><path stroke="#2b2e13" d="m14.8 44.3 7-10.6M16.4 69q4.3.7 7.8-1.1"/></g><g id="e"><path fill="#4a761c" d="m12.3 5.5-.2-.1q-6.3-.7-8.8-.2L2.9 5Q-.1 3.3 0 2.3t2-2h3.8q4.2 2.3 5.8 4l1.3.1h-1.3zM.8 2.2l3 .3.8.1.4.1.3 1.6L5 2.7h-.4l-.8-.2zm3-.7v1.2zm.8 1.3.3-.8zM2 1l.6.9zm4.9 2.7-2-1z"/><path fill="none" stroke="#96a360" stroke-linecap="round" stroke-linejoin="round" stroke-width="__RESOLUTION__" d="M5.3 4.4 5 2.6h-.4l-.8-.2-3-.4m3 .4v-1m1.1.6-.3.6m-2-.7L2 1m3 1.7 1.9 1" vector-effect="non-scaling-stroke"/></g><g id="d"><path fill="#3d6217" d="m12.3 5.5-.2-.1q-6.3-.7-8.8-.2L2.9 5Q-.1 3.3 0 2.3t2-2h3.8q4.2 2.3 5.8 4l1.3.1h-1.3zM.8 2.2l3 .3.8.1.4.1.3 1.6L5 2.7h-.4l-.8-.2zm3-.7v1.2zm.8 1.3.3-.8zM2 1l.6.9zm4.9 2.7-2-1z"/><path fill="none" stroke="#7c874f" stroke-linecap="round" stroke-linejoin="round" stroke-width="__RESOLUTION__" d="M5.3 4.4 5 2.6h-.4l-.8-.2-3-.4m3 .4v-1m1.1.6-.3.6m-2-.7L2 1m3 1.7 1.9 1" vector-effect="non-scaling-stroke"/></g><g id="c"><path fill="#5c9323" d="m12.3 5.5-.2-.1q-6.3-.7-8.8-.2L2.9 5Q-.1 3.3 0 2.3t2-2h3.8q4.2 2.3 5.8 4l1.3.1h-1.3zM.8 2.2l3 .3.8.1.4.1.3 1.6L5 2.7h-.4l-.8-.2zm3-.7v1.2zm.8 1.3.3-.8zM2 1l.6.9zm4.9 2.7-2-1z"/><path fill="none" stroke="#baca77" stroke-linecap="round" stroke-linejoin="round" stroke-width="__RESOLUTION__" d="M5.3 4.4 5 2.6h-.4l-.8-.2-3-.4m3 .4v-1m1.1.6-.3.6m-2-.7L2 1m3 1.7 1.9 1" vector-effect="non-scaling-stroke"/></g><g id="b" fill="none" stroke-linecap="round" stroke-linejoin="round" stroke-width="2"><path stroke="#595826" d="M67.1 3.7q7.5 13.9 5.5 20.9M4 44.2l-3 5.3m85.2-4.8q7.5 14 5.6 7.1"/><path stroke="#a49c48" d="M45.8 5.1q.5.7 5-.6M70.7 36q.5.6 9.3.2"/><path stroke="#777a34" d="M50.8 4.5q4.4-1.3 16.3-.8m-24.7-.2q2.8 1 3.4 1.6m21.4 30.2q3 .2 3.5.8m9.3.2q2.7-.1 4.3.7 3.6 1.6 1.9 7.7m-79.6.4q-2.7.8-2.6-1"/><path stroke="#645b2d" d="M35.3 9.8q.3-1.4 2.3-4.3 1.9-3 4.8-2m14.3 38q.5-2 4-4.2t6.5-2"/><path stroke="#2b2e13" d="M26.7 14.1q8.3-2.8 8.6-4.3m13.9 41q6.8-7.4 7.4-9.3m-24.5 5.9-3.4-4.1"/><path stroke="#1a1a0b" d="M40.9 50.3q2.4 2.2 8.3.6m-20.5-7.6-1.1-1.7q-.5-1.6-3.2-3.4l-1.1-.6M21.7 9.2l5 4.9"/><path stroke="#716b33" d="M84.3 37q.5-.7 1.7-1.5h0m4.8-1 .9.4.6 1.2.4 1m-9.1 1 .1-.1v-.1l.1-.2.5-.7"/><path stroke="#8a843e" d="m86 35.5.8-.4 1-.5h.3l.5-.1 1-.1 1.3.2"/><path stroke="#585427" d="m92.7 37 .1.4.5.6m-10.7 1.6.3-.4.7-1.1"/><path stroke="#4a4122" d="m23.3 37.6-2-.4q-1.1 0-3.2 5t-4.6 4.9-3.4-1.5-3.5-.5"/><path stroke="#0d592f" stroke-opacity=".3" d="m91 54-40-1.6"/><path stroke="#345204" stroke-opacity=".8" d="M31 48.8 2 50.7"/><path stroke="#595826" d="m70.4 30.2.1.2-3.4-7.2m2-14.6.7-7.6m3.9 35.4q.3-1-3.2-6 3.5 8.7 2 13.7"/><path stroke="#777a34" d="M67.1 23.2q-8.1-.3-12.8.2l-2.7 1.5m-.9-.9 3.6-.6 2.9-2m9.8-9.8 2.2-3m-5.8 20.5q1.9-2.8 7 1.1M55.7 45.6l3.5-8.2M42.5 23.1q2.8.9 3.4 1.6"/><path stroke="#645b2d" d="m51.6 24.9-.4.1-5.2 8.7m8.4 16q.6-2.9 1.3-4.1M37.2 20.5q.3-1.5 1.3 0t3.9 2.6"/><path stroke="#2b2e13" d="m46 33.7-7 10.5m-8.9-14.8q6.9-7.5 7.1-9"/><path stroke="#1a1a0b" d="M39 44.3q-4.6 5.1-13.8 2.9m-3.4-18.4q2.4 2.2 8.3.6"/><path stroke="#a49c48" d="M57.2 21.5q5.3-4 9.8-9.9m-7.7 25.8 1-2.5 1.9-4 1.2-1.8m-17.6-4.4q.5.6 5-.7"/></g><clipPath id="a"><path d="M1 1h96v77H1z"/></clipPath><clipPath id="g"><path d="M98 1h96v77H98z"/></clipPath><clipPath id="i"><path d="M195 1h77v79h-77z"/></clipPath></defs><g clip-path="url(#a)"><g transform="translate(50.5 79.05)"><use xlink:href="#b" width="94.3" height="55" transform="translate(-49.5 -57.95)"/><use xlink:href="#c" width="12.8" height="5.6" transform="rotate(56.423 53.191 -5.67)scale(.6309)"/><use xlink:href="#c" width="12.8" height="5.6" transform="matrix(-.5138 -.2514 -.2611 .5336 10.65 -41.55)"/><use xlink:href="#c" width="12.8" height="5.6" transform="rotate(10.752 236.931 54.091)scale(.6299)"/><use xlink:href="#c" width="12.8" height="5.6" transform="rotate(27.593 82.947 -1.585)scale(.6283)"/><use xlink:href="#c" width="12.8" height="5.6" transform="rotate(-44.606 -53.162 -47.795)scale(.628)"/><use xlink:href="#c" width="12.8" height="5.6" transform="matrix(-.3528 -.4494 -.4667 .3663 2.5 -34.25)"/><use xlink:href="#d" width="12.8" height="5.6" transform="rotate(40.125 40.462 -15.398)scale(.6298)"/><use xlink:href="#d" width="12.8" height="5.6" transform="rotate(-5.557 -259.03 28.732)scale(.6289)"/><use xlink:href="#d" width="12.8" height="5.6" transform="rotate(11.28 92.455 -50.03)scale(.6273)"/><use xlink:href="#e" width="12.8" height="5.6" transform="matrix(-.5138 -.2514 -.2611 .5336 -7.65 -18.5)"/><use xlink:href="#e" width="12.8" height="5.6" transform="matrix(-.3528 -.4494 -.4667 .3663 -15.8 -11.2)"/><use xlink:href="#c" width="12.8" height="5.6" transform="rotate(5.801 587.209 166.632)scale(.6292)"/><use xlink:href="#f" width="50.5" height="70.2" transform="translate(-25.3 -77.5)"/><use xlink:href="#c" width="12.8" height="5.6" transform="rotate(56.423 71.413 -15.445)scale(.6309)"/><use xlink:href="#c" width="12.8" height="5.6" transform="matrix(-.5138 -.2514 -.2611 .5336 10.65 -61.1)"/><use xlink:href="#c" width="12.8" height="5.6" transform="rotate(10.752 340.809 44.316)scale(.6299)"/><use xlink:href="#c" width="12.8" height="5.6" transform="rotate(27.593 122.754 -11.36)scale(.6283)"/><use xlink:href="#c" width="12.8" height="5.6" transform="rotate(-44.606 -76.992 -57.57)scale(.628)"/><use xlink:href="#c" width="12.8" height="5.6" transform="matrix(-.3528 -.4494 -.4667 .3663 2.5 -53.8)"/><use xlink:href="#d" width="12.8" height="5.6" transform="rotate(40.125 67.228 -25.173)scale(.6298)"/><use xlink:href="#d" width="12.8" height="5.6" transform="matrix(.6259 -.0609 .0609 .6259 -4 -44.5)"/><use xlink:href="#d" width="12.8" height="5.6" transform="rotate(11.28 191.44 -59.806)scale(.6273)"/><use xlink:href="#e" width="12.8" height="5.6" transform="matrix(-.5138 -.2514 -.2611 .5336 -7.65 -38.05)"/><use xlink:href="#e" width="12.8" height="5.6" transform="matrix(-.3528 -.4494 -.4667 .3663 -15.8 -30.75)"/><use xlink:href="#c" width="12.8" height="5.6" transform="rotate(5.801 780.13 156.857)scale(.6292)"/></g></g><g clip-path="url(#g)"><g transform="translate(147.5 79.05)"><use xlink:href="#h" width="94.3" height="74.6" transform="translate(-49.5 -77.5)"/><use xlink:href="#c" width="12.8" height="5.6" transform="rotate(56.423 71.413 -15.445)scale(.6309)"/><use xlink:href="#c" width="12.8" height="5.6" transform="matrix(-.5138 -.2514 -.2611 .5336 10.65 -61.1)"/><use xlink:href="#c" width="12.8" height="5.6" transform="rotate(10.752 340.809 44.316)scale(.6299)"/><use xlink:href="#c" width="12.8" height="5.6" transform="rotate(27.593 122.754 -11.36)scale(.6283)"/><use xlink:href="#c" width="12.8" height="5.6" transform="rotate(-44.606 -76.992 -57.57)scale(.628)"/><use xlink:href="#c" width="12.8" height="5.6" transform="matrix(-.3528 -.4494 -.4667 .3663 2.5 -53.8)"/><use xlink:href="#d" width="12.8" height="5.6" transform="rotate(40.125 67.228 -25.173)scale(.6298)"/><use xlink:href="#d" width="12.8" height="5.6" transform="matrix(.6259 -.0609 .0609 .6259 -4 -44.5)"/><use xlink:href="#d" width="12.8" height="5.6" transform="rotate(11.28 191.44 -59.806)scale(.6273)"/><use xlink:href="#e" width="12.8" height="5.6" transform="matrix(-.5138 -.2514 -.2611 .5336 -7.65 -38.05)"/><use xlink:href="#e" width="12.8" height="5.6" transform="matrix(-.3528 -.4494 -.4667 .3663 -15.8 -30.75)"/><use xlink:href="#c" width="12.8" height="5.6" transform="rotate(5.801 780.13 156.857)scale(.6292)"/></g></g><g clip-path="url(#i)"><g transform="translate(223.5 79.05)"><use xlink:href="#j" width="75.5" height="78.2" transform="translate(-27.5 -77.5)"/><use xlink:href="#c" width="12.8" height="5.6" transform="rotate(56.423 68.997 -17.15)scale(.6309)"/><use xlink:href="#c" width="12.8" height="5.6" transform="rotate(10.752 370.938 68.284)scale(.6299)"/><use xlink:href="#d" width="12.8" height="5.6" transform="rotate(11.28 274.572 80.506)scale(.6273)"/><use xlink:href="#k" width="12.8" height="5.6" transform="matrix(-.5138 -.2514 -.2611 .5336 -21.8 -44.7)"/><use xlink:href="#k" width="12.8" height="5.6" transform="matrix(-.3528 -.4494 -.4667 .3663 -17.95 -48.1)"/></g></g></svg>