<svg xmlns="http://www.w3.org/2000/svg" xmlns:xlink="http://www.w3.org/1999/xlink" width="40" height="80" viewBox="0 0 40 80"><defs><clipPath id="a"><path d="M1 1h38v78H1z"/></clipPath><g id="b"><path fill="#5b472d" d="M28 70.8q.3 1.5 1.1 3.4-.4.7-1 .5-.3-1.7-1.3-3l.3-.6.7.3-.1-.5z"/><path fill="#8a6c44" d="m28 70.8-.3.1.1.4-.7-.2-.3.6-.4.3-.2-1q.4-1.4 1.4-1.3l.6.1.6.6z"/><path fill="#000" fill-opacity=".2" d="M33.4 75.5q-2.5 0-2.6 1.8-1.7-2-3.7-1.2 1.4-1.6-.5-3 2.5.3 2.3-1.2 1.1 2 2.6 1.3-.6 1.2 1.9 2.3"/><path fill="#725938" d="M28.2 42v-7.5h3.2v9.3q-1.4 16.3 0 31.4-.7.6-1.5.6l-.4-32.1q-.7-.5-1.4-1.7"/><path fill="#8a6c44" d="M29.9 75.9q-.9-.1-1.7-.7V42q.6 1.2 1.3 1.7z"/><path fill="none" stroke="#a88453" stroke-linecap="round" stroke-linejoin="round" stroke-width="__RESOLUTION__" d="M28.2 42v-7.5h3.2" vector-effect="non-scaling-stroke"/><path fill="none" stroke="#bfa47d" stroke-linecap="round" stroke-linejoin="round" stroke-width="__RESOLUTION__" d="M28.2 75.2V42" vector-effect="non-scaling-stroke"/><path fill="#f7edd0" d="m16.4 24.4 1.5 1.8 2.9 2.7-2 1q-1.7-1.3-3.2-3l-1.2-1.4zm8.6 7q1.9.8 3.9 1.4l-1.6 1-4.4 2.3 3.9.6 4-2.2-3.6-.8q-2.1-.5-4-1.4l-4.5 2.4q2 .8 4.2 1.4l-2.2 1.1q-2.2-.5-4.1-1.3l2.1-1.2q-2.5-1-4.6-2.5l4.8-2.4q2 1.4 4.3 2.5zm7.3 2.3 3.6.4-1.3.7h2l-4.4 2.3h-1.6l-2 1.2-4-.2 2.1-1.3 4 .3 3.9-2.3-3.7-.2zM12 33.3l-3.3-2.9L7.6 29l1.9-1 4.9-2.5q-1.9-2.4-3.4-5.4l2.2-1Q12 16.6 11 13.7l-2.2 1-1.6-5.3-5 2.1 1.5 5.3 5-2.1 2.3 5.4-5 2.2q-1.3-2.5-2.3-5.5l-1.9.9q1 3 2.2 5.5l2-.9q1.6 3.2 3.5 5.7l1 1.2 3.6 3.1z"/><path fill="#a58d69" d="M20.8 28.9q1.9 1.5 4.2 2.5l-1.8 1q-2.3-1-4.3-2.5zM16.6 36q-2.5-1.1-4.6-2.7l2-1q2.2 1.5 4.7 2.5z"/><path fill="#ac9675" d="m28.9 33 3.4.7-1.4.8-3.6-.7zm-4.2 5.2-4-.8 2.2-1.1 3.9.6z"/><path fill="#b49f81" d="M35.9 34.1h2l-1.4.7h-1.9zm-3.7 3-2.3 1.2h-1.3l2-1.2z"/><path fill="#937b57" d="M7.6 29q-2-2.5-3.6-5.8l2-.9q1.6 3.2 3.5 5.7zm5.7-9.9q1.5 3 3.2 5.3l-2 1.1q-1.9-2.4-3.4-5.4z"/><path fill="#7a6749" d="M1.8 17.7.3 12.3l1.9-.8 1.5 5.3 5-2.1-1.4-5.3 2.1-.9.2.1 1.4 5.1-2.2 1 2.2 5.4-5 2.2q-1.3-2.5-2.3-5.5zm12.5 7.8 1.3 1.4q1.5 1.7 3.3 3L14 32.3l-3.5-3.1-1-1.2zm12.9 8.3-4.4 2.4q-2.2-.6-4.2-1.4l4.5-2.4q1.9.9 4 1.4m-.4 3 4-2.2 3.8.2-4 2.3z"/><path fill="none" stroke="#fc0" stroke-linecap="round" stroke-linejoin="round" stroke-width="__RESOLUTION__" d="m16.4 24.4 1.5 1.8 2.9 2.7q1.9 1.5 4.2 2.5 1.9 1 3.9 1.5l3.4.8 3.6.4h2l-1.4.7-4.3 2.3-2.3 1.2h-1.3l-4-.2-3.9-.8q-2.2-.5-4.1-1.3-2.5-1.1-4.6-2.7l-3.3-2.9L7.6 29q-2-2.5-3.6-5.8-1.2-2.5-2.2-5.5L.3 12.3m9.3-3.7 1.4 5.1q1 3 2.2 5.4 1.5 3 3.2 5.3" vector-effect="non-scaling-stroke"/><path fill="none" stroke="#725938" stroke-linecap="round" stroke-linejoin="round" stroke-width="__RESOLUTION__" d="M.3 12.3Q2.2 8.1 2.9 2.1q3.5 4.2 6.5 6.4l.2.1M.3 12.3l1.9-.8m0 0 5-2 2.2-1" vector-effect="non-scaling-stroke"/><path fill="#000" fill-opacity=".2" d="M3.1 4.6Q2.7 2.8 1.3 3 2 2.2.3.8q2 .5 2.5-.8.9 2 2.5 1.6-1.4 1-.2 2.4-2-.6-2 .6"/><path fill="#a88453" d="M3.6 4.7 2.3 3 2 1.4l1.5 1.1z"/><path fill="#917248" d="m2 1.4 1.2-.2 2.4.6-2 .7z"/><path fill="#725938" d="M5.6 1.8v1.8l-2 1.1V2.5z"/><path fill="#000" fill-opacity=".2" d="M33.2 34.8Q31.1 36 32 37q-1.8-1.2-2.7.2-.1-1.3-2.6-.9 2-1.3 1.4-2.7 2.3.8 3.3-.8-.3 1.9 1.8 2"/><path fill="#725938" d="m30.6 29 .3.1.4.3v5.9q-.6.4-1.2.5l.1-5.4q-1.2.5-1.8-.3l-.2-.4v-.2q1-1.2 2.4-.6"/><path fill="#957448" d="m28.2 29.7.2.4q.6.8 1.9.3l-.2 5.4q-1 .1-2-.5z"/><path fill="none" stroke="#a88453" stroke-linecap="round" stroke-linejoin="round" stroke-width="__RESOLUTION__" d="M30.6 29q-1.4-.7-2.5.5v5.8" vector-effect="non-scaling-stroke"/><path fill="none" stroke="#a48351" stroke-linecap="round" stroke-linejoin="round" stroke-width="__RESOLUTION__" d="m28.2 29.7.2.4q.6.8 1.9.3" vector-effect="non-scaling-stroke"/><path fill="none" stroke="#4b3c25" stroke-linecap="round" stroke-linejoin="round" stroke-width="__RESOLUTION__" d="M34.4 34q-1.4-1.1-3-3.9l-.6-.9-2.4.9-.2.7Q27 35.5 26 37.9" vector-effect="non-scaling-stroke"/><path fill="#000" fill-opacity=".2" d="M21.5 30q-2 6-6.8 3.2 3.7-.6 6.6-3.1z"/><path fill="#000" fill-opacity=".3" d="m.1 12.3 9.4-3.7q3 11.5 7.9 16.9-4 3.3-6.3 7.1-3.8-3-6.3-7.7Q2.6 20.6.1 12.3"/><path fill="none" stroke="#4b3c25" stroke-linecap="round" stroke-linejoin="round" stroke-width="__RESOLUTION__" d="m9.5 8.6 1.1-.5M.1 12.3l9.4-3.7" vector-effect="non-scaling-stroke"/><path fill="#8a6c44" d="m31.6 71.9-.8-.3.6-.6.6-.1q1-.1 1.5 1.3l-.4 1-.3-.3-.3-.6-.7.3.1-.5z"/><path fill="#5b472d" d="M32.8 72.9q-1 1.3-1.3 3-.6.1-1-.5.9-1.9 1.1-3.5l.3.1-.1.5.7-.2z"/></g></defs><g clip-path="url(#a)"><use xlink:href="#b" width="37.9" height="77.3" transform="translate(1 1)"/></g></svg>