<svg xmlns="http://www.w3.org/2000/svg" xmlns:xlink="http://www.w3.org/1999/xlink" width="72" height="112" viewBox="0 0 72 112"><defs><radialGradient id="p" cx="0" cy="0" r="819.2" gradientTransform="matrix(.03 0 0 .03 14.8 25.2)" gradientUnits="userSpaceOnUse" spreadMethod="pad"><stop offset=".2" stop-color="#eee8c5"/><stop offset="1" stop-color="#92b2b8"/></radialGradient><radialGradient id="q" cx="0" cy="0" r="819.2" gradientTransform="matrix(.03 0 0 .03 14.8 25.2)" gradientUnits="userSpaceOnUse" spreadMethod="pad"><stop offset=".2" stop-color="#eee9c7"/><stop offset="1" stop-color="#90b2b9"/></radialGradient><radialGradient id="r" cx="0" cy="0" r="819.2" gradientTransform="matrix(.03 0 0 .03 14.8 25.2)" gradientUnits="userSpaceOnUse" spreadMethod="pad"><stop offset=".2" stop-color="#efe5b9"/><stop offset="1" stop-color="#9ab4ad"/></radialGradient><radialGradient id="s" cx="0" cy="0" r="819.2" gradientTransform="matrix(.03 0 0 .03 14.8 25.2)" gradientUnits="userSpaceOnUse" spreadMethod="pad"><stop offset=".2" stop-color="#edeace"/><stop offset="1" stop-color="#8ab1c0"/></radialGradient><radialGradient id="t" cx="0" cy="0" r="819.2" gradientTransform="matrix(.03 0 0 .03 14.8 25.2)" gradientUnits="userSpaceOnUse" spreadMethod="pad"><stop offset=".2" stop-color="#e9f4fc"/><stop offset="1" stop-color="#6aaaea"/></radialGradient><radialGradient id="u" cx="0" cy="0" r="819.2" gradientTransform="matrix(.03 0 0 .03 14.8 25.2)" gradientUnits="userSpaceOnUse" spreadMethod="pad"><stop offset=".2" stop-color="#bcc5cb"/><stop offset="1" stop-color="#5589bd"/></radialGradient><radialGradient id="v" cx="0" cy="0" r="819.2" gradientTransform="matrix(.03 0 0 .03 14.8 25.2)" gradientUnits="userSpaceOnUse" spreadMethod="pad"><stop offset=".2" stop-color="#cfd9e0"/><stop offset="1" stop-color="#5e97d0"/></radialGradient><radialGradient id="w" cx="0" cy="0" r="819.2" gradientTransform="matrix(.03 0 0 .03 14.8 25.2)" gradientUnits="userSpaceOnUse" spreadMethod="pad"><stop offset=".2" stop-color="#baa992"/><stop offset="1" stop-color="#737f88"/></radialGradient><radialGradient id="x" cx="0" cy="0" r="819.2" gradientTransform="matrix(.03 0 0 .03 14.8 25.2)" gradientUnits="userSpaceOnUse" spreadMethod="pad"><stop offset=".2" stop-color="#b6bec4"/><stop offset="1" stop-color="#5284b6"/></radialGradient><radialGradient id="y" cx="0" cy="0" r="819.2" gradientTransform="matrix(.03 0 0 .03 14.8 25.2)" gradientUnits="userSpaceOnUse" spreadMethod="pad"><stop offset=".2" stop-color="#868d91"/><stop offset="1" stop-color="#3d6287"/></radialGradient><radialGradient id="z" cx="0" cy="0" r="819.2" gradientTransform="matrix(.03 0 0 .03 14.8 25.2)" gradientUnits="userSpaceOnUse" spreadMethod="pad"><stop offset=".2" stop-color="#b1b9bf"/><stop offset="1" stop-color="#5081b2"/></radialGradient><radialGradient id="A" cx="0" cy="0" r="819.2" gradientTransform="matrix(.03 0 0 .03 14.8 25.2)" gradientUnits="userSpaceOnUse" spreadMethod="pad"><stop offset=".2" stop-color="#8c9297"/><stop offset="1" stop-color="#3f668c"/></radialGradient><radialGradient id="E" cx="0" cy="0" r="819.2" gradientTransform="matrix(.08 0 0 .08 40.05 42.3)" gradientUnits="userSpaceOnUse" spreadMethod="pad"><stop offset=".3" stop-color="#b09135"/><stop offset="1" stop-color="#625526"/></radialGradient><radialGradient id="D" cx="0" cy="0" r="819.2" gradientTransform="matrix(-.02 0 0 .02 58.3 53.9)" gradientUnits="userSpaceOnUse" spreadMethod="pad"><stop offset=".3" stop-color="#b09135"/><stop offset="1" stop-color="#625526"/></radialGradient><radialGradient id="C" cx="0" cy="0" r="819.2" gradientTransform="matrix(-.01 0 0 .02 50.1 69.1)" gradientUnits="userSpaceOnUse" spreadMethod="pad"><stop offset=".3" stop-color="#b09135"/><stop offset="1" stop-color="#625526"/></radialGradient><radialGradient id="B" cx="0" cy="0" r="819.2" gradientTransform="matrix(.07 0 0 .07 39.65 46.6)" gradientUnits="userSpaceOnUse" spreadMethod="pad"><stop offset=".3" stop-color="#b09135"/><stop offset="1" stop-color="#625526"/></radialGradient><radialGradient id="F" cx="0" cy="0" r="819.2" gradientTransform="matrix(.03 0 0 .03 14.8 25.2)" gradientUnits="userSpaceOnUse" spreadMethod="pad"><stop offset=".2" stop-color="#686d71"/><stop offset="1" stop-color="#2f4c69"/></radialGradient><use xlink:href="#a" id="ak" width="32" height="31.4"/><use xlink:href="#b" id="aj" width="32" height="31.4"/><use xlink:href="#c" id="ai" width="32" height="31.4"/><use xlink:href="#d" id="ah" width="32" height="31.4"/><use xlink:href="#e" id="ag" width="32" height="31.4"/><use xlink:href="#f" id="af" width="32" height="31.4"/><use xlink:href="#g" id="ae" width="32" height="31.4"/><use xlink:href="#h" id="ad" width="32" height="31.4"/><use xlink:href="#i" id="ac" width="32" height="31.4"/><use xlink:href="#j" id="ab" width="32" height="31.4"/><use xlink:href="#k" id="aa" width="32" height="31.4"/><use xlink:href="#l" id="Z" width="32" height="31.4"/><use xlink:href="#m" id="Y" width="9.7" height="25.8"/><use xlink:href="#n" id="X" width="62.4" height="103.9"/><use xlink:href="#o" id="W" width="32" height="31.4"/><g id="a"><path fill="url(#p)" d="M15.8 15.6V5.8l3 3.9 6.7 2 1.1-1.5L25 8.3l1.6 1.8-1.1 1.6-6.7-2-3-3.8zm5.6-2.4q4.7 4.2 5.8 12.2-7.4-.7-8.7-7.2.9 5.9-2.8 12.8-3.5-6.9-2.5-12.8-1.3 6.5-8.8 7.2 1.1-8 5.4-13.5-6 4.5-9.8 1.7Q2 4.3 15.8 0q12.5 3.5 15.8 13.6-3.9 2.8-10.2-.4M15 23.6l1.1-1.3v-4.2 4.2zm-1.5-7.8-.1 1.8-.1.6.1-.6zm4.7 0 .3 1.8v.6-.6zm-6.8-3 4.4-3zm4.4-7V0z" transform="translate(.2 .2)"/><path fill="none" stroke="#45370e" stroke-linecap="round" stroke-linejoin="round" stroke-opacity=".2" stroke-width="__RESOLUTION__" d="m25.2 8.5 1.6 1.8-1.1 1.6-6.7-2L16 6v9.8m.2 2.5v4.2l-1.1 1.3M16 10l-4.4 3M16 .2v5.9" vector-effect="non-scaling-stroke"/><path fill="none" stroke="#45370e" stroke-linecap="round" stroke-linejoin="round" stroke-opacity=".3" stroke-width="__RESOLUTION__" d="M21.7 13.4q4.6 4.2 5.7 12.2-7.4-.7-8.7-7.2.9 5.9-2.8 12.8-3.5-6.9-2.5-12.8-1.4 6.5-8.8 7.2 1.2-8 5.4-13.5-6 4.5-9.8 1.7Q2.2 4.4 16 .2q12.5 3.5 15.8 13.6-3.9 2.8-10.2-.5m-8.2 5.1.1-.6.1-1.8m5 2.4v-.6l-.3-1.8" vector-effect="non-scaling-stroke"/></g><g id="b"><path fill="url(#q)" d="M15.8 15.6V5.8l3 3.9 6.7 2 1.1-1.5L25 8.3l1.6 1.8-1.1 1.6-6.7-2-3-3.8zm5.6-2.4q4.7 4.2 5.8 12.2-7.4-.7-8.7-7.2.9 5.9-2.8 12.8-3.5-6.9-2.5-12.8-1.3 6.5-8.8 7.2 1.1-8 5.4-13.5-6 4.5-9.8 1.7Q2 4.3 15.8 0q12.5 3.5 15.8 13.6-3.9 2.8-10.2-.4M15 23.6l1.1-1.3v-4.2 4.2zm-1.5-7.8-.1 1.8-.1.6.1-.6zm4.7 0 .3 1.8v.6-.6zm-6.8-3 4.4-3zm4.4-7V0z" transform="translate(.2 .2)"/><path fill="none" stroke="#42350d" stroke-linecap="round" stroke-linejoin="round" stroke-opacity=".2" stroke-width="__RESOLUTION__" d="m25.2 8.5 1.6 1.8-1.1 1.6-6.7-2L16 6v9.8m.2 2.5v4.2l-1.1 1.3M16 10l-4.4 3M16 .2v5.9" vector-effect="non-scaling-stroke"/><path fill="none" stroke="#42350d" stroke-linecap="round" stroke-linejoin="round" stroke-opacity=".3" stroke-width="__RESOLUTION__" d="M21.7 13.4q4.6 4.2 5.7 12.2-7.4-.7-8.7-7.2.9 5.9-2.8 12.8-3.5-6.9-2.5-12.8-1.4 6.5-8.8 7.2 1.2-8 5.4-13.5-6 4.5-9.8 1.7Q2.2 4.4 16 .2q12.5 3.5 15.8 13.6-3.9 2.8-10.2-.5m-8.2 5.1.1-.6.1-1.8m5 2.4v-.6l-.3-1.8" vector-effect="non-scaling-stroke"/></g><g id="c"><path fill="url(#r)" d="M15.8 15.6V5.8l3 3.9 6.7 2 1.1-1.5L25 8.3l1.6 1.8-1.1 1.6-6.7-2-3-3.8zm5.6-2.4q4.7 4.2 5.8 12.2-7.4-.7-8.7-7.2.9 5.9-2.8 12.8-3.5-6.9-2.5-12.8-1.3 6.5-8.8 7.2 1.1-8 5.4-13.5-6 4.5-9.8 1.7Q2 4.3 15.8 0q12.5 3.5 15.8 13.6-3.9 2.8-10.2-.4M15 23.6l1.1-1.3v-4.2 4.2zm-1.5-7.8-.1 1.8-.1.6.1-.6zm4.7 0 .3 1.8v.6-.6zm-6.8-3 4.4-3zm4.4-7V0z" transform="translate(.2 .2)"/><path fill="none" stroke="#544311" stroke-linecap="round" stroke-linejoin="round" stroke-opacity=".2" stroke-width="__RESOLUTION__" d="m25.2 8.5 1.6 1.8-1.1 1.6-6.7-2L16 6v9.8m.2 2.5v4.2l-1.1 1.3M16 10l-4.4 3M16 .2v5.9" vector-effect="non-scaling-stroke"/><path fill="none" stroke="#544311" stroke-linecap="round" stroke-linejoin="round" stroke-opacity=".3" stroke-width="__RESOLUTION__" d="M21.7 13.4q4.6 4.2 5.7 12.2-7.4-.7-8.7-7.2.9 5.9-2.8 12.8-3.5-6.9-2.5-12.8-1.4 6.5-8.8 7.2 1.2-8 5.4-13.5-6 4.5-9.8 1.7Q2.2 4.4 16 .2q12.5 3.5 15.8 13.6-3.9 2.8-10.2-.5m-8.2 5.1.1-.6.1-1.8m5 2.4v-.6l-.3-1.8" vector-effect="non-scaling-stroke"/></g><g id="d"><path fill="url(#s)" d="M15.8 15.6V5.8l3 3.9 6.7 2 1.1-1.5L25 8.3l1.6 1.8-1.1 1.6-6.7-2-3-3.8zm5.6-2.4q4.7 4.2 5.8 12.2-7.4-.7-8.7-7.2.9 5.9-2.8 12.8-3.5-6.9-2.5-12.8-1.3 6.5-8.8 7.2 1.1-8 5.4-13.5-6 4.5-9.8 1.7Q2 4.3 15.8 0q12.5 3.5 15.8 13.6-3.9 2.8-10.2-.4M15 23.6l1.1-1.3v-4.2 4.2zm-1.5-7.8-.1 1.8-.1.6.1-.6zm4.7 0 .3 1.8v.6-.6zm-6.8-3 4.4-3zm4.4-7V0z" transform="translate(.2 .2)"/><path fill="none" stroke="#382d0b" stroke-linecap="round" stroke-linejoin="round" stroke-opacity=".2" stroke-width="__RESOLUTION__" d="m25.2 8.5 1.6 1.8-1.1 1.6-6.7-2L16 6v9.8m.2 2.5v4.2l-1.1 1.3M16 10l-4.4 3M16 .2v5.9" vector-effect="non-scaling-stroke"/><path fill="none" stroke="#382d0b" stroke-linecap="round" stroke-linejoin="round" stroke-opacity=".3" stroke-width="__RESOLUTION__" d="M21.7 13.4q4.6 4.2 5.7 12.2-7.4-.7-8.7-7.2.9 5.9-2.8 12.8-3.5-6.9-2.5-12.8-1.4 6.5-8.8 7.2 1.2-8 5.4-13.5-6 4.5-9.8 1.7Q2.2 4.4 16 .2q12.5 3.5 15.8 13.6-3.9 2.8-10.2-.5m-8.2 5.1.1-.6.1-1.8m5 2.4v-.6l-.3-1.8" vector-effect="non-scaling-stroke"/></g><g id="e"><path fill="url(#t)" d="M15.8 15.6V5.8l3 3.9 6.7 2 1.1-1.5L25 8.3l1.6 1.8-1.1 1.6-6.7-2-3-3.8zm5.6-2.4q4.7 4.2 5.8 12.2-7.4-.7-8.7-7.2.9 5.9-2.8 12.8-3.5-6.9-2.5-12.8-1.3 6.5-8.8 7.2 1.1-8 5.4-13.5-6 4.5-9.8 1.7Q2 4.3 15.8 0q12.5 3.5 15.8 13.6-3.9 2.8-10.2-.4M15 23.6l1.1-1.3v-4.2 4.2zm-1.5-7.8-.1 1.8-.1.6.1-.6zm4.7 0 .3 1.8v.6-.6zm-6.8-3 4.4-3zm4.4-7V0z" transform="translate(.2 .2)"/><path fill="none" stroke="#000" stroke-linecap="round" stroke-linejoin="round" stroke-opacity=".2" stroke-width="__RESOLUTION__" d="m25.2 8.5 1.6 1.8-1.1 1.6-6.7-2L16 6v9.8m.2 2.5v4.2l-1.1 1.3M16 10l-4.4 3M16 .2v5.9" vector-effect="non-scaling-stroke"/><path fill="none" stroke="#000" stroke-linecap="round" stroke-linejoin="round" stroke-opacity=".3" stroke-width="__RESOLUTION__" d="M21.7 13.4q4.6 4.2 5.7 12.2-7.4-.7-8.7-7.2.9 5.9-2.8 12.8-3.5-6.9-2.5-12.8-1.4 6.5-8.8 7.2 1.2-8 5.4-13.5-6 4.5-9.8 1.7Q2.2 4.4 16 .2q12.5 3.5 15.8 13.6-3.9 2.8-10.2-.5m-8.2 5.1.1-.6.1-1.8m5 2.4v-.6l-.3-1.8" vector-effect="non-scaling-stroke"/></g><g id="f"><path fill="url(#u)" d="M15.8 15.6V5.8l3 3.9 6.7 2 1.1-1.5L25 8.3l1.6 1.8-1.1 1.6-6.7-2-3-3.8zm5.6-2.4q4.7 4.2 5.8 12.2-7.4-.7-8.7-7.2.9 5.9-2.8 12.8-3.5-6.9-2.5-12.8-1.3 6.5-8.8 7.2 1.1-8 5.4-13.5-6 4.5-9.8 1.7Q2 4.3 15.8 0q12.5 3.5 15.8 13.6-3.9 2.8-10.2-.4M15 23.6l1.1-1.3v-4.2 4.2zm-1.5-7.8-.1 1.8-.1.6.1-.6zm4.7 0 .3 1.8v.6-.6zm-6.8-3 4.4-3zm4.4-7V0z" transform="translate(.2 .2)"/><path fill="none" stroke="#000" stroke-linecap="round" stroke-linejoin="round" stroke-opacity=".2" stroke-width="__RESOLUTION__" d="m25.2 8.5 1.6 1.8-1.1 1.6-6.7-2L16 6v9.8m.2 2.5v4.2l-1.1 1.3M16 10l-4.4 3M16 .2v5.9" vector-effect="non-scaling-stroke"/><path fill="none" stroke="#000" stroke-linecap="round" stroke-linejoin="round" stroke-opacity=".3" stroke-width="__RESOLUTION__" d="M21.7 13.4q4.6 4.2 5.7 12.2-7.4-.7-8.7-7.2.9 5.9-2.8 12.8-3.5-6.9-2.5-12.8-1.4 6.5-8.8 7.2 1.2-8 5.4-13.5-6 4.5-9.8 1.7Q2.2 4.4 16 .2q12.5 3.5 15.8 13.6-3.9 2.8-10.2-.5m-8.2 5.1.1-.6.1-1.8m5 2.4v-.6l-.3-1.8" vector-effect="non-scaling-stroke"/></g><g id="g"><path fill="url(#v)" d="M15.8 15.6V5.8l3 3.9 6.7 2 1.1-1.5L25 8.3l1.6 1.8-1.1 1.6-6.7-2-3-3.8zm5.6-2.4q4.7 4.2 5.8 12.2-7.4-.7-8.7-7.2.9 5.9-2.8 12.8-3.5-6.9-2.5-12.8-1.3 6.5-8.8 7.2 1.1-8 5.4-13.5-6 4.5-9.8 1.7Q2 4.3 15.8 0q12.5 3.5 15.8 13.6-3.9 2.8-10.2-.4M15 23.6l1.1-1.3v-4.2 4.2zm-1.5-7.8-.1 1.8-.1.6.1-.6zm4.7 0 .3 1.8v.6-.6zm-6.8-3 4.4-3zm4.4-7V0z" transform="translate(.2 .2)"/><path fill="none" stroke="#000" stroke-linecap="round" stroke-linejoin="round" stroke-opacity=".2" stroke-width="__RESOLUTION__" d="m25.2 8.5 1.6 1.8-1.1 1.6-6.7-2L16 6v9.8m.2 2.5v4.2l-1.1 1.3M16 10l-4.4 3M16 .2v5.9" vector-effect="non-scaling-stroke"/><path fill="none" stroke="#000" stroke-linecap="round" stroke-linejoin="round" stroke-opacity=".3" stroke-width="__RESOLUTION__" d="M21.7 13.4q4.6 4.2 5.7 12.2-7.4-.7-8.7-7.2.9 5.9-2.8 12.8-3.5-6.9-2.5-12.8-1.4 6.5-8.8 7.2 1.2-8 5.4-13.5-6 4.5-9.8 1.7Q2.2 4.4 16 .2q12.5 3.5 15.8 13.6-3.9 2.8-10.2-.5m-8.2 5.1.1-.6.1-1.8m5 2.4v-.6l-.3-1.8" vector-effect="non-scaling-stroke"/></g><g id="h"><path fill="url(#w)" d="M15.8 15.6V5.8l3 3.9 6.7 2 1.1-1.5L25 8.3l1.6 1.8-1.1 1.6-6.7-2-3-3.8zm5.6-2.4q4.7 4.2 5.8 12.2-7.4-.7-8.7-7.2.9 5.9-2.8 12.8-3.5-6.9-2.5-12.8-1.3 6.5-8.8 7.2 1.1-8 5.4-13.5-6 4.5-9.8 1.7Q2 4.3 15.8 0q12.5 3.5 15.8 13.6-3.9 2.8-10.2-.4M15 23.6l1.1-1.3v-4.2 4.2zm-1.5-7.8-.1 1.8-.1.6.1-.6zm4.7 0 .3 1.8v.6-.6zm-6.8-3 4.4-3zm4.4-7V0z" transform="translate(.2 .2)"/><path fill="none" stroke="#371f04" stroke-linecap="round" stroke-linejoin="round" stroke-opacity=".2" stroke-width="__RESOLUTION__" d="m25.2 8.5 1.6 1.8-1.1 1.6-6.7-2L16 6v9.8m.2 2.5v4.2l-1.1 1.3M16 10l-4.4 3M16 .2v5.9" vector-effect="non-scaling-stroke"/><path fill="none" stroke="#371f04" stroke-linecap="round" stroke-linejoin="round" stroke-opacity=".3" stroke-width="__RESOLUTION__" d="M21.7 13.4q4.6 4.2 5.7 12.2-7.4-.7-8.7-7.2.9 5.9-2.8 12.8-3.5-6.9-2.5-12.8-1.4 6.5-8.8 7.2 1.2-8 5.4-13.5-6 4.5-9.8 1.7Q2.2 4.4 16 .2q12.5 3.5 15.8 13.6-3.9 2.8-10.2-.5m-8.2 5.1.1-.6.1-1.8m5 2.4v-.6l-.3-1.8" vector-effect="non-scaling-stroke"/></g><g id="i"><path fill="url(#x)" d="M15.8 15.6V5.8l3 3.9 6.7 2 1.1-1.5L25 8.3l1.6 1.8-1.1 1.6-6.7-2-3-3.8zm5.6-2.4q4.7 4.2 5.8 12.2-7.4-.7-8.7-7.2.9 5.9-2.8 12.8-3.5-6.9-2.5-12.8-1.3 6.5-8.8 7.2 1.1-8 5.4-13.5-6 4.5-9.8 1.7Q2 4.3 15.8 0q12.5 3.5 15.8 13.6-3.9 2.8-10.2-.4M15 23.6l1.1-1.3v-4.2 4.2zm-1.5-7.8-.1 1.8-.1.6.1-.6zm4.7 0 .3 1.8v.6-.6zm-6.8-3 4.4-3zm4.4-7V0z" transform="translate(.2 .2)"/><path fill="none" stroke="#000" stroke-linecap="round" stroke-linejoin="round" stroke-opacity=".2" stroke-width="__RESOLUTION__" d="m25.2 8.5 1.6 1.8-1.1 1.6-6.7-2L16 6v9.8m.2 2.5v4.2l-1.1 1.3M16 10l-4.4 3M16 .2v5.9" vector-effect="non-scaling-stroke"/><path fill="none" stroke="#000" stroke-linecap="round" stroke-linejoin="round" stroke-opacity=".3" stroke-width="__RESOLUTION__" d="M21.7 13.4q4.6 4.2 5.7 12.2-7.4-.7-8.7-7.2.9 5.9-2.8 12.8-3.5-6.9-2.5-12.8-1.4 6.5-8.8 7.2 1.2-8 5.4-13.5-6 4.5-9.8 1.7Q2.2 4.4 16 .2q12.5 3.5 15.8 13.6-3.9 2.8-10.2-.5m-8.2 5.1.1-.6.1-1.8m5 2.4v-.6l-.3-1.8" vector-effect="non-scaling-stroke"/></g><g id="j"><path fill="url(#y)" d="M15.8 15.6V5.8l3 3.9 6.7 2 1.1-1.5L25 8.3l1.6 1.8-1.1 1.6-6.7-2-3-3.8zm5.6-2.4q4.7 4.2 5.8 12.2-7.4-.7-8.7-7.2.9 5.9-2.8 12.8-3.5-6.9-2.5-12.8-1.3 6.5-8.8 7.2 1.1-8 5.4-13.5-6 4.5-9.8 1.7Q2 4.3 15.8 0q12.5 3.5 15.8 13.6-3.9 2.8-10.2-.4M15 23.6l1.1-1.3v-4.2 4.2zm-1.5-7.8-.1 1.8-.1.6.1-.6zm4.7 0 .3 1.8v.6-.6zm-6.8-3 4.4-3zm4.4-7V0z" transform="translate(.2 .2)"/><path fill="none" stroke="#000" stroke-linecap="round" stroke-linejoin="round" stroke-opacity=".2" stroke-width="__RESOLUTION__" d="m25.2 8.5 1.6 1.8-1.1 1.6-6.7-2L16 6v9.8m.2 2.5v4.2l-1.1 1.3M16 10l-4.4 3M16 .2v5.9" vector-effect="non-scaling-stroke"/><path fill="none" stroke="#000" stroke-linecap="round" stroke-linejoin="round" stroke-opacity=".3" stroke-width="__RESOLUTION__" d="M21.7 13.4q4.6 4.2 5.7 12.2-7.4-.7-8.7-7.2.9 5.9-2.8 12.8-3.5-6.9-2.5-12.8-1.4 6.5-8.8 7.2 1.2-8 5.4-13.5-6 4.5-9.8 1.7Q2.2 4.4 16 .2q12.5 3.5 15.8 13.6-3.9 2.8-10.2-.5m-8.2 5.1.1-.6.1-1.8m5 2.4v-.6l-.3-1.8" vector-effect="non-scaling-stroke"/></g><g id="k"><path fill="url(#z)" d="M15.8 15.6V5.8l3 3.9 6.7 2 1.1-1.5L25 8.3l1.6 1.8-1.1 1.6-6.7-2-3-3.8zm5.6-2.4q4.7 4.2 5.8 12.2-7.4-.7-8.7-7.2.9 5.9-2.8 12.8-3.5-6.9-2.5-12.8-1.3 6.5-8.8 7.2 1.1-8 5.4-13.5-6 4.5-9.8 1.7Q2 4.3 15.8 0q12.5 3.5 15.8 13.6-3.9 2.8-10.2-.4M15 23.6l1.1-1.3v-4.2 4.2zm-1.5-7.8-.1 1.8-.1.6.1-.6zm4.7 0 .3 1.8v.6-.6zm-6.8-3 4.4-3zm4.4-7V0z" transform="translate(.2 .2)"/><path fill="none" stroke="#000" stroke-linecap="round" stroke-linejoin="round" stroke-opacity=".2" stroke-width="__RESOLUTION__" d="m25.2 8.5 1.6 1.8-1.1 1.6-6.7-2L16 6v9.8m.2 2.5v4.2l-1.1 1.3M16 10l-4.4 3M16 .2v5.9" vector-effect="non-scaling-stroke"/><path fill="none" stroke="#000" stroke-linecap="round" stroke-linejoin="round" stroke-opacity=".3" stroke-width="__RESOLUTION__" d="M21.7 13.4q4.6 4.2 5.7 12.2-7.4-.7-8.7-7.2.9 5.9-2.8 12.8-3.5-6.9-2.5-12.8-1.4 6.5-8.8 7.2 1.2-8 5.4-13.5-6 4.5-9.8 1.7Q2.2 4.4 16 .2q12.5 3.5 15.8 13.6-3.9 2.8-10.2-.5m-8.2 5.1.1-.6.1-1.8m5 2.4v-.6l-.3-1.8" vector-effect="non-scaling-stroke"/></g><g id="l"><path fill="url(#A)" d="M15.8 15.6V5.8l3 3.9 6.7 2 1.1-1.5L25 8.3l1.6 1.8-1.1 1.6-6.7-2-3-3.8zm5.6-2.4q4.7 4.2 5.8 12.2-7.4-.7-8.7-7.2.9 5.9-2.8 12.8-3.5-6.9-2.5-12.8-1.3 6.5-8.8 7.2 1.1-8 5.4-13.5-6 4.5-9.8 1.7Q2 4.3 15.8 0q12.5 3.5 15.8 13.6-3.9 2.8-10.2-.4M15 23.6l1.1-1.3v-4.2 4.2zm-1.5-7.8-.1 1.8-.1.6.1-.6zm4.7 0 .3 1.8v.6-.6zm-6.8-3 4.4-3zm4.4-7V0z" transform="translate(.2 .2)"/><path fill="none" stroke="#000" stroke-linecap="round" stroke-linejoin="round" stroke-opacity=".2" stroke-width="__RESOLUTION__" d="m25.2 8.5 1.6 1.8-1.1 1.6-6.7-2L16 6v9.8m.2 2.5v4.2l-1.1 1.3M16 10l-4.4 3M16 .2v5.9" vector-effect="non-scaling-stroke"/><path fill="none" stroke="#000" stroke-linecap="round" stroke-linejoin="round" stroke-opacity=".3" stroke-width="__RESOLUTION__" d="M21.7 13.4q4.6 4.2 5.7 12.2-7.4-.7-8.7-7.2.9 5.9-2.8 12.8-3.5-6.9-2.5-12.8-1.4 6.5-8.8 7.2 1.2-8 5.4-13.5-6 4.5-9.8 1.7Q2.2 4.4 16 .2q12.5 3.5 15.8 13.6-3.9 2.8-10.2-.5m-8.2 5.1.1-.6.1-1.8m5 2.4v-.6l-.3-1.8" vector-effect="non-scaling-stroke"/></g><g id="n"><path fill="url(#B)" d="M4.4 4.8Q13.3 0 19.4 0q7 0 14.4 4.5 11.6 7.2 11.6 22.2 0 3.4-1.4 8.1l-2.2 4.8-.1 5.9q.3 5.1-.6 10.4L40 62.3l-1.2 5.2-1.3 4.3-3 9.7q-1.2 4.7-1.2 8.7 0 4.8 2.5 8 2.2 2.8 5.1 2.9l-1.8 1.9-.4.2-1.6.4q-3 0-5.4-3-2.4-3.1-2.4-7.9 0-4 1.2-8.7l3-9.7q1.3-4.1 2.5-9.5l.3-1.7.9-4.7.5-5 .1-3.1-.1-2.3.1-6 2.3-4.7q1.3-4.6 1.3-8.1 0-15-11.6-22.2-7.4-4.5-14.4-4.5-4.1 0-11 2.3" transform="translate(.15 .15)"/><path fill="url(#C)" d="m40 62.3.9 1.6q.9.8 5.1 2.4 4.6 1.8 7 1.8l1-.1q-2.2 2.5-5 2.5-2.4 0-7-1.7l-3.2-1.3z" transform="translate(.15 .15)"/><path fill="url(#D)" d="m54 68 1.8-2.7q2.3-4.1 2.3-7.4 0-.9-1.1-2.4l-2.9-3.2 4-2.5q2.4 2.4 3.4 3.9.5 1 .5 1.7 0 3.3-2.2 7.5-2.4 4.4-5.7 5" transform="translate(.15 .15)"/><path fill="url(#E)" d="m40.9 101.1.3-.4q1.7-2.6 1.7-4.3l-.3-1q-.6-1.1-2.5-1.7l4-2.5q2.2.7 2.7 2l.1.7q0 1.7-1.7 4.3l-2.2 2.3-.5.3-3.4 2.2zm-5-36.3-1-3.8q-1.1-4.1-1.1-6.6 0-2.9 1.3-6.5l1.1-2.8 1.7-3.2-.1 6 .1 2.3-.1 1.7v1.4l-.6 5-.8 4.7z" transform="translate(.15 .15)"/><path fill="none" stroke="#0a1f1f" stroke-linecap="round" stroke-linejoin="round" stroke-opacity=".3" stroke-width="__RESOLUTION__" d="M4.6 4.9Q13.5.2 19.5.2q7.1 0 14.4 4.5 11.6 7.1 11.6 22.1 0 3.5-1.3 8.1l-2.3 4.8-.1 6q.4 5-.5 10.3l-1.2 6.4q.5 1.1 1 1.6.8.9 5 2.5 4.7 1.7 7 1.7l1.1-.1 1.7-2.6q2.3-4.1 2.3-7.5 0-.9-1-2.3l-3-3.3 4-2.5q2.4 2.4 3.4 4 .6 1 .6 1.6 0 3.4-2.3 7.5-2.4 4.5-5.7 5.1-2.3 2.6-5.1 2.6-2.3 0-7-1.7L39 67.6 37.7 72l-3 9.6q-1.3 4.7-1.3 8.8 0 4.8 2.5 7.9 2.2 2.8 5.1 3l.3-.4q1.8-2.7 1.8-4.3l-.4-1.1q-.6-1-2.4-1.6l4-2.5q2.1.7 2.6 1.9l.1.8q0 1.7-1.7 4.3l-2.1 2.3-.5.3-3.5 2.1-.3.2-1.6.5q-3.1 0-5.4-3-2.5-3.1-2.5-8 0-4 1.3-8.7l3-9.6q1.2-4.2 2.4-9.6l-1.2-3.7q-1.1-4.1-1.1-6.6 0-2.8 1.4-6.4l1.1-2.9 1.6-3.1 2.3-4.8q1.3-4.6 1.3-8 0-15.1-11.6-22.2-7.3-4.5-14.4-4.5-4 0-11 2.2L.3 7M38 50.4l-.2-2.2.1-6m-1.8 22.7.3-1.7.9-4.7.6-5-.1-1.4.1-1.7v3.1m2.2 8.9-1.2 5.2m2.1 33.7-1.7 1.8" vector-effect="non-scaling-stroke"/></g><g id="o"><path fill="url(#F)" d="M15.8 15.6V5.8l3 3.9 6.7 2 1.1-1.5L25 8.3l1.6 1.8-1.1 1.6-6.7-2-3-3.8zm5.6-2.4q4.7 4.2 5.8 12.2-7.4-.7-8.7-7.2.9 5.9-2.8 12.8-3.5-6.9-2.5-12.8-1.3 6.5-8.8 7.2 1.1-8 5.4-13.5-6 4.5-9.8 1.7Q2 4.3 15.8 0q12.5 3.5 15.8 13.6-3.9 2.8-10.2-.4M15 23.6l1.1-1.3v-4.2 4.2zm-1.5-7.8-.1 1.8-.1.6.1-.6zm4.7 0 .3 1.8v.6-.6zm-6.8-3 4.4-3zm4.4-7V0z" transform="translate(.2 .2)"/><path fill="none" stroke="#000" stroke-linecap="round" stroke-linejoin="round" stroke-opacity=".2" stroke-width="__RESOLUTION__" d="m25.2 8.5 1.6 1.8-1.1 1.6-6.7-2L16 6v9.8m.2 2.5v4.2l-1.1 1.3M16 10l-4.4 3M16 .2v5.9" vector-effect="non-scaling-stroke"/><path fill="none" stroke="#000" stroke-linecap="round" stroke-linejoin="round" stroke-opacity=".3" stroke-width="__RESOLUTION__" d="M21.7 13.4q4.6 4.2 5.7 12.2-7.4-.7-8.7-7.2.9 5.9-2.8 12.8-3.5-6.9-2.5-12.8-1.4 6.5-8.8 7.2 1.2-8 5.4-13.5-6 4.5-9.8 1.7Q2.2 4.4 16 .2q12.5 3.5 15.8 13.6-3.9 2.8-10.2-.5m-8.2 5.1.1-.6.1-1.8m5 2.4v-.6l-.3-1.8" vector-effect="non-scaling-stroke"/></g><clipPath id="V"><path d="M1 1h70v110H1z"/></clipPath><path id="m" fill="#000" fill-opacity=".3" d="M4.9 25.8q-2 0-3.5-3.8Q0 18.3 0 12.9t1.4-9.1Q2.9 0 4.9 0t3.4 3.8 1.4 9.1T8.3 22t-3.5 3.8"/></defs><g clip-path="url(#V)"><g transform="translate(34.5 134)"><use xlink:href="#W" width="32" height="31.4" transform="matrix(.259 -.3923 .2467 .4273 -1.95 -50.25)"/><use xlink:href="#X" width="62.4" height="103.9" transform="matrix(-1 0 0 1 36.4 -127.4)"/><use xlink:href="#Y" width="9.7" height="25.8" filter="url(#filter-object-4)" transform="matrix(3.1345 2.2908 -.2899 1.6159 -17.95 -126.65)"/><use xlink:href="#Z" width="32" height="31.4" transform="matrix(.44 -.3028 .2535 .444 -9.2 -89.15)"/><use xlink:href="#aa" width="32" height="31.4" transform="matrix(-.44 -.3028 -.202 .3538 -7.55 -98.3)"/><use xlink:href="#ab" width="32" height="31.4" transform="matrix(-.1924 -.2914 -.1832 .3174 .3 -58.3)"/><use xlink:href="#ac" width="32" height="31.4" transform="matrix(-.5269 -.2634 0 .5269 6.7 -66.2)"/><use xlink:href="#ad" width="32" height="31.4" transform="matrix(-.452 -.3111 -.1481 .4043 2.75 -71.25)"/><use xlink:href="#Z" width="32" height="31.4" transform="matrix(-.44 -.3028 -.202 .3538 .35 -87)"/><use xlink:href="#Z" width="32" height="31.4" transform="matrix(.259 -.3923 .2467 .4273 -7.8 -103.9)"/><use xlink:href="#ae" width="32" height="31.4" transform="matrix(.479 .1494 .2522 .6151 -9.6 -93.75)"/><use xlink:href="#af" width="32" height="31.4" transform="matrix(-.4503 -.3577 -.3228 .3143 2.8 -92.75)"/><use xlink:href="#ag" width="32" height="31.4" transform="matrix(.3608 .0742 .2587 .5106 -8.55 -103.6)"/><use xlink:href="#ah" width="32" height="31.4" transform="matrix(-.4335 -.2947 -.239 .271 4.6 -101.65)"/><use xlink:href="#ai" width="32" height="31.4" transform="matrix(.5443 .1896 .2046 -.4121 -10.2 -111.5)"/><use xlink:href="#aj" width="32" height="31.4" transform="matrix(-.5201 .2478 -.2483 -.3872 .95 -113.35)"/><use xlink:href="#ak" width="32" height="31.4" transform="matrix(.257 -.1423 .242 .1723 10.3 -122.5)"/><use xlink:href="#ak" width="32" height="31.4" transform="matrix(.2757 .096 .1036 -.2087 9.55 -126.5)"/><use xlink:href="#ag" width="32" height="31.4" transform="matrix(-.4629 -.172 -.2419 .4276 -3.05 -106.55)"/><use xlink:href="#ag" width="32" height="31.4" transform="matrix(.2606 -.0968 .1361 .2407 2.55 -101.1)"/><use xlink:href="#aj" width="32" height="31.4" transform="matrix(-.1749 .2771 -.3197 -.112 -17.9 -115.15)"/></g></g></svg>