<svg xmlns="http://www.w3.org/2000/svg" xmlns:xlink="http://www.w3.org/1999/xlink" width="39" height="61" viewBox="0 0 39 61"><defs><use xlink:href="#a" id="d" width="31.4" height="14.6" transform="translate(0 4.4)"/><use xlink:href="#b" id="e" width="26.8" height="18.9" transform="translate(.35)"/><use xlink:href="#c" id="f" width="36" height="15.4" transform="translate(.35 3.55)"/><use xlink:href="#d" id="l" width="36.3" height="19"/><use xlink:href="#e" id="j" width="36.3" height="19"/><use xlink:href="#f" id="h" width="36.3" height="19"/><clipPath id="g"><path d="M1 1h37v19H1z"/></clipPath><clipPath id="i"><path d="M1 21h37v19H1z"/></clipPath><clipPath id="k"><path d="M1 41h37v19H1z"/></clipPath><g id="a"><path fill="#89590e" d="m26.5 0 4.9.9Q29 2.5 27.2 3.2zM25 7.4v6.3l-4.4.9-2.8-3.2z"/><path fill="#854d06" d="m9.7 1 5 .9Q12.3 3.5 10.4 4zm-2.6.2v4.1q.7.3-1 .3Q4.4 5.5 0 3.3L3.2 0z"/><path fill="#9d742c" d="m9.6 6.9 7.2-3.2 5 3-6.7 3.6z"/></g><g id="b"><path fill="#956b21" d="m7.8 5 .2 5Q4.8 8.3 0 6.7l5.6-3.2zM16 15.4l-6.2-5.1v-2l3.2.9 2.8-1.6z"/><path fill="#89590e" d="m7.9 2.2-.2-.5H8l1.2-.4L15.5 0h.3l-2.4 4.9L9.5 6l-.9-2H7.5zm14.4 11.1-4.9.9.7-3.1q1.8.6 4.2 2.3M19 17l7.8.9-5.7 1z"/><path fill="#854d06" d="m20.3 6.3-2.7 2.6-1.6-5q1.9.7 4.3 2.4"/></g><g id="c"><path fill="#956b21" d="M0 3.2 5.6 0H10L7.5 7.6z"/><path fill="#7a3b00" d="m14.9.6 1.2.5-1.7 3.2-3.5.1V2.8z"/><path fill="#854d06" d="M23.5 10 17 11.3l.9-4.2q2.4.9 5.6 3"/><path fill="#89590e" d="m23.3 15.4-4.4-1.2 5.4-2.4zm-7.2-3-5.7-2.2-.3-3.3 4.6-1z"/><path fill="#9d742c" d="m36 6.6-5.2 2.6.5-2.6z"/></g></defs><g clip-path="url(#g)"><use xlink:href="#h" width="36.3" height="19" transform="translate(1 1)"/></g><g clip-path="url(#i)"><use xlink:href="#j" width="36.3" height="19" transform="translate(1 21)"/></g><g clip-path="url(#k)"><use xlink:href="#l" width="36.3" height="19" transform="translate(1 41)"/></g></svg>