<svg xmlns="http://www.w3.org/2000/svg" xmlns:xlink="http://www.w3.org/1999/xlink" width="67" height="94" viewBox="0 0 67 94"><defs><g id="L"><path fill="#9bb758" d="M4.2.3v.1q1.4 1.9-1.6 1.9l.2-.5Q3.2.4 4.2.3"/><path fill="#d9522b" d="m.6 7-.1-.2-.2-1q0-1.1.7-2 .7-.6 1.7-.7h.2q1 0 1.7.6l-.9 2.6Q2.2 7.2.5 7m2.3-2.7L2.7 3z"/><path fill="#ac4325" d="m4.6 3.7.2.1q.8.9.8 2 0 1-.8 1.6-.8.5-1.9.7-1.1 0-1.8-.6L.6 7q1.6 0 3.1-.7z"/><path fill="none" stroke="#69793c" stroke-linecap="round" stroke-linejoin="round" stroke-opacity=".6" stroke-width="__RESOLUTION__" d="M4.2.3q-1 0-1.4 1.5l-.1.5q2.9 0 1.5-1.9zM2.7 3.2l-.1-.6v-.2M.6 7l-.1-.2-.2-1q0-1.1.7-2 .7-.6 1.7-.7h.2q1 0 1.7.6l.2.1q.8.9.8 2 0 1-.8 1.6-.8.5-1.9.7-1.1 0-1.8-.6zm2.1-4 .1 1.2" vector-effect="non-scaling-stroke"/></g><g id="K"><path fill="#71852e" d="M6.2 9.8q3-4.5 6-3.5-1.1 4.6-6 3.5"/><path fill="#7c8f30" d="m5.5 9 .5.7h.1l-.3.2h-.2q-5 1.1-5.3-3Q2.5 6 5.5 9"/><path fill="#96ae3f" d="M6.1 9.8 6 9.6l-.5-.5Q1.8 5 5.8.3q5 4.2.3 9.5"/><path fill="#637426" d="M5.6 9.9h.2q-.2 4.4-3.1 3.2-.1-2.4 2.9-3.2m1 .7q2.3.2 1.9 2.3-2.1.1-1.9-2.3"/><path fill="none" stroke="#6c7927" stroke-linecap="round" stroke-linejoin="round" stroke-opacity=".6" stroke-width="__RESOLUTION__" d="M6.1 9.8q3-4.5 6-3.5-1.1 4.6-6 3.5m-.1 0v-.2l-.5-.5q-3-3-5.2-2.2.4 4.1 5.3 3h.2zm-.6-.6Q1.8 5 5.8.3q5 4.2.3 9.5m-.3 0q-.2 4.4-3.1 3.3-.1-2.4 2.9-3.2m1 .7q-.2 2.4 1.9 2.3.4-2.2-1.9-2.3" vector-effect="non-scaling-stroke"/></g><g id="J"><path fill="#778d4e" d="M6.2 9.8q3-4.5 6-3.5-1.1 4.6-6 3.5"/><path fill="#839850" d="m5.5 9 .5.7h.1l-.3.2h-.2q-5 1.1-5.3-3Q2.5 6 5.5 9"/><path fill="#a0bb61" d="M6.1 9.8 6 9.6l-.5-.5Q1.8 5 5.8.3q5 4.2.3 9.5"/><path fill="#677a45" d="M5.6 9.9h.2q-.2 4.4-3.1 3.2-.1-2.4 2.9-3.2m1 .7q2.3.2 1.9 2.3-2.1.1-1.9-2.3"/><path fill="none" stroke="#718046" stroke-linecap="round" stroke-linejoin="round" stroke-opacity=".6" stroke-width="__RESOLUTION__" d="M6.1 9.8q3-4.5 6-3.5-1.1 4.6-6 3.5m-.1 0v-.2l-.5-.5q-3-3-5.2-2.2.4 4.1 5.3 3h.2zm-.6-.6Q1.8 5 5.8.3q5 4.2.3 9.5m-.3 0q-.2 4.4-3.1 3.3-.1-2.4 2.9-3.2m1 .7q-.2 2.4 1.9 2.3.4-2.2-1.9-2.3" vector-effect="non-scaling-stroke"/></g><g id="I"><path fill="#a4b322" d="M6.2 9.8q3-4.5 6-3.5-1.1 4.6-6 3.5"/><path fill="#abba24" d="m5.5 9 .5.7h.1l-.3.2h-.2q-5 1.1-5.3-3Q2.5 6 5.5 9"/><path fill="#bfd12f" d="M6.1 9.8 6 9.6l-.5-.5Q1.8 5 5.8.3q5 4.2.3 9.5"/><path fill="#99a51c" d="M5.6 9.9h.2q-.2 4.4-3.1 3.2-.1-2.4 2.9-3.2m1 .7q2.3.2 1.9 2.3-2.1.1-1.9-2.3"/><path fill="none" stroke="#9faa1d" stroke-linecap="round" stroke-linejoin="round" stroke-opacity=".6" stroke-width="__RESOLUTION__" d="M6.1 9.8q3-4.5 6-3.5-1.1 4.6-6 3.5m-.1 0v-.2l-.5-.5q-3-3-5.2-2.2.4 4.1 5.3 3h.2zm-.6-.6Q1.8 5 5.8.3q5 4.2.3 9.5m-.3 0q-.2 4.4-3.1 3.3-.1-2.4 2.9-3.2m1 .7q-.2 2.4 1.9 2.3.4-2.2-1.9-2.3" vector-effect="non-scaling-stroke"/></g><g id="H"><path fill="#766928" d="M6.2 9.8q3-4.5 6-3.5-1.1 4.6-6 3.5"/><path fill="#7f712a" d="m5.5 9 .5.7h.1l-.3.2h-.2q-5 1.1-5.3-3Q2.5 6 5.5 9"/><path fill="#968c37" d="M6.1 9.8 6 9.6l-.5-.5Q1.8 5 5.8.3q5 4.2.3 9.5"/><path fill="#6a5921" d="M5.6 9.9h.2q-.2 4.4-3.1 3.2-.1-2.4 2.9-3.2m1 .7q2.3.2 1.9 2.3-2.1.1-1.9-2.3"/><path fill="none" stroke="#715e22" stroke-linecap="round" stroke-linejoin="round" stroke-opacity=".6" stroke-width="__RESOLUTION__" d="M6.1 9.8q3-4.5 6-3.5-1.1 4.6-6 3.5m-.1 0v-.2l-.5-.5q-3-3-5.2-2.2.4 4.1 5.3 3h.2zm-.6-.6Q1.8 5 5.8.3q5 4.2.3 9.5m-.3 0q-.2 4.4-3.1 3.3-.1-2.4 2.9-3.2m1 .7q-.2 2.4 1.9 2.3.4-2.2-1.9-2.3" vector-effect="non-scaling-stroke"/></g><g id="G"><path fill="#768828" d="M6.2 9.8q3-4.5 6-3.5-1.1 4.6-6 3.5"/><path fill="#7f902a" d="m5.5 9 .5.7h.1l-.3.2h-.2q-5 1.1-5.3-3Q2.5 6 5.5 9"/><path fill="#96ab37" d="M6.1 9.8 6 9.6l-.5-.5Q1.8 5 5.8.3q5 4.2.3 9.5"/><path fill="#6a7821" d="M5.6 9.9h.2q-.2 4.4-3.1 3.2-.1-2.4 2.9-3.2m1 .7q2.3.2 1.9 2.3-2.1.1-1.9-2.3"/><path fill="none" stroke="#717d22" stroke-linecap="round" stroke-linejoin="round" stroke-opacity=".6" stroke-width="__RESOLUTION__" d="M6.1 9.8q3-4.5 6-3.5-1.1 4.6-6 3.5m-.1 0v-.2l-.5-.5q-3-3-5.2-2.2.4 4.1 5.3 3h.2zm-.6-.6Q1.8 5 5.8.3q5 4.2.3 9.5m-.3 0q-.2 4.4-3.1 3.3-.1-2.4 2.9-3.2m1 .7q-.2 2.4 1.9 2.3.4-2.2-1.9-2.3" vector-effect="non-scaling-stroke"/></g><g id="F"><path fill="#767928" d="M6.2 9.8q3-4.5 6-3.5-1.1 4.6-6 3.5"/><path fill="#7f812a" d="m5.5 9 .5.7h.1l-.3.2h-.2q-5 1.1-5.3-3Q2.5 6 5.5 9"/><path fill="#969c37" d="M6.1 9.8 6 9.6l-.5-.5Q1.8 5 5.8.3q5 4.2.3 9.5"/><path fill="#6a6921" d="M5.6 9.9h.2q-.2 4.4-3.1 3.2-.1-2.4 2.9-3.2m1 .7q2.3.2 1.9 2.3-2.1.1-1.9-2.3"/><path fill="none" stroke="#716e22" stroke-linecap="round" stroke-linejoin="round" stroke-opacity=".6" stroke-width="__RESOLUTION__" d="M6.1 9.8q3-4.5 6-3.5-1.1 4.6-6 3.5m-.1 0v-.2l-.5-.5q-3-3-5.2-2.2.4 4.1 5.3 3h.2zm-.6-.6Q1.8 5 5.8.3q5 4.2.3 9.5m-.3 0q-.2 4.4-3.1 3.3-.1-2.4 2.9-3.2m1 .7q-.2 2.4 1.9 2.3.4-2.2-1.9-2.3" vector-effect="non-scaling-stroke"/></g><g id="E"><path fill="#39471f" d="M6.2 9.8q3-4.5 6-3.5-1.1 4.6-6 3.5"/><path fill="#404d21" d="m5.5 9 .5.7h.1l-.3.2h-.2q-5 1.1-5.3-3Q2.5 6 5.5 9"/><path fill="#52632c" d="M6.1 9.8 6 9.6l-.5-.5Q1.8 5 5.8.3q5 4.2.3 9.5"/><path fill="#2f3a1a" d="M5.6 9.9h.2q-.2 4.4-3.1 3.2-.1-2.4 2.9-3.2m1 .7q2.3.2 1.9 2.3-2.1.1-1.9-2.3"/><path fill="none" stroke="#353e1b" stroke-linecap="round" stroke-linejoin="round" stroke-opacity=".6" stroke-width="__RESOLUTION__" d="M6.1 9.8q3-4.5 6-3.5-1.1 4.6-6 3.5m-.1 0v-.2l-.5-.5q-3-3-5.2-2.2.4 4.1 5.3 3h.2zm-.6-.6Q1.8 5 5.8.3q5 4.2.3 9.5m-.3 0q-.2 4.4-3.1 3.3-.1-2.4 2.9-3.2m1 .7q-.2 2.4 1.9 2.3.4-2.2-1.9-2.3" vector-effect="non-scaling-stroke"/></g><g id="D"><path fill="#36431e" d="M6.2 9.8q3-4.5 6-3.5-1.1 4.6-6 3.5"/><path fill="#3c491f" d="m5.5 9 .5.7h.1l-.3.2h-.2q-5 1.1-5.3-3Q2.5 6 5.5 9"/><path fill="#4d5d29" d="M6.1 9.8 6 9.6l-.5-.5Q1.8 5 5.8.3q5 4.2.3 9.5"/><path fill="#2c3718" d="M5.6 9.9h.2q-.2 4.4-3.1 3.2-.1-2.4 2.9-3.2m1 .7q2.3.2 1.9 2.3-2.1.1-1.9-2.3"/><path fill="none" stroke="#323b19" stroke-linecap="round" stroke-linejoin="round" stroke-opacity=".6" stroke-width="__RESOLUTION__" d="M6.1 9.8q3-4.5 6-3.5-1.1 4.6-6 3.5m-.1 0v-.2l-.5-.5q-3-3-5.2-2.2.4 4.1 5.3 3h.2zm-.6-.6Q1.8 5 5.8.3q5 4.2.3 9.5m-.3 0q-.2 4.4-3.1 3.3-.1-2.4 2.9-3.2m1 .7q-.2 2.4 1.9 2.3.4-2.2-1.9-2.3" vector-effect="non-scaling-stroke"/></g><g id="C"><path fill="#7b7622" d="M6.2 9.8q3-4.5 6-3.5-1.1 4.6-6 3.5"/><path fill="#827d24" d="m5.5 9 .5.7h.1l-.3.2h-.2q-5 1.1-5.3-3Q2.5 6 5.5 9"/><path fill="#96942f" d="M6.1 9.8 6 9.6l-.5-.5Q1.8 5 5.8.3q5 4.2.3 9.5"/><path fill="#70681c" d="M5.6 9.9h.2q-.2 4.4-3.1 3.2-.1-2.4 2.9-3.2m1 .7q2.3.2 1.9 2.3-2.1.1-1.9-2.3"/><path fill="none" stroke="#766d1d" stroke-linecap="round" stroke-linejoin="round" stroke-opacity=".6" stroke-width="__RESOLUTION__" d="M6.1 9.8q3-4.5 6-3.5-1.1 4.6-6 3.5m-.1 0v-.2l-.5-.5q-3-3-5.2-2.2.4 4.1 5.3 3h.2zm-.6-.6Q1.8 5 5.8.3q5 4.2.3 9.5m-.3 0q-.2 4.4-3.1 3.3-.1-2.4 2.9-3.2m1 .7q-.2 2.4 1.9 2.3.4-2.2-1.9-2.3" vector-effect="non-scaling-stroke"/></g><g id="B"><path fill="#717a2e" d="M6.2 9.8q3-4.5 6-3.5-1.1 4.6-6 3.5"/><path fill="#7c8430" d="m5.5 9 .5.7h.1l-.3.2h-.2q-5 1.1-5.3-3Q2.5 6 5.5 9"/><path fill="#96a33f" d="M6.1 9.8 6 9.6l-.5-.5Q1.8 5 5.8.3q5 4.2.3 9.5"/><path fill="#636926" d="M5.6 9.9h.2q-.2 4.4-3.1 3.2-.1-2.4 2.9-3.2m1 .7q2.3.2 1.9 2.3-2.1.1-1.9-2.3"/><path fill="none" stroke="#6c6e27" stroke-linecap="round" stroke-linejoin="round" stroke-opacity=".6" stroke-width="__RESOLUTION__" d="M6.1 9.8q3-4.5 6-3.5-1.1 4.6-6 3.5m-.1 0v-.2l-.5-.5q-3-3-5.2-2.2.4 4.1 5.3 3h.2zm-.6-.6Q1.8 5 5.8.3q5 4.2.3 9.5m-.3 0q-.2 4.4-3.1 3.3-.1-2.4 2.9-3.2m1 .7q-.2 2.4 1.9 2.3.4-2.2-1.9-2.3" vector-effect="non-scaling-stroke"/></g><g id="A"><path fill="#85992e" d="M6.2 9.8q3-4.5 6-3.5-1.1 4.6-6 3.5"/><path fill="#90a330" d="m5.5 9 .5.7h.1l-.3.2h-.2q-5 1.1-5.3-3Q2.5 6 5.5 9"/><path fill="#aac23f" d="M6.1 9.8 6 9.6l-.5-.5Q1.8 5 5.8.3q5 4.2.3 9.5"/><path fill="#778826" d="M5.6 9.9h.2q-.2 4.4-3.1 3.2-.1-2.4 2.9-3.2m1 .7q2.3.2 1.9 2.3-2.1.1-1.9-2.3"/><path fill="none" stroke="#808d27" stroke-linecap="round" stroke-linejoin="round" stroke-opacity=".6" stroke-width="__RESOLUTION__" d="M6.1 9.8q3-4.5 6-3.5-1.1 4.6-6 3.5m-.1 0v-.2l-.5-.5q-3-3-5.2-2.2.4 4.1 5.3 3h.2zm-.6-.6Q1.8 5 5.8.3q5 4.2.3 9.5m-.3 0q-.2 4.4-3.1 3.3-.1-2.4 2.9-3.2m1 .7q-.2 2.4 1.9 2.3.4-2.2-1.9-2.3" vector-effect="non-scaling-stroke"/></g><g id="z"><path fill="#90b322" d="M6.2 9.8q3-4.5 6-3.5-1.1 4.6-6 3.5"/><path fill="#97ba24" d="m5.5 9 .5.7h.1l-.3.2h-.2q-5 1.1-5.3-3Q2.5 6 5.5 9"/><path fill="#abd12f" d="M6.1 9.8 6 9.6l-.5-.5Q1.8 5 5.8.3q5 4.2.3 9.5"/><path fill="#85a51c" d="M5.6 9.9h.2q-.2 4.4-3.1 3.2-.1-2.4 2.9-3.2m1 .7q2.3.2 1.9 2.3-2.1.1-1.9-2.3"/><path fill="none" stroke="#8baa1d" stroke-linecap="round" stroke-linejoin="round" stroke-opacity=".6" stroke-width="__RESOLUTION__" d="M6.1 9.8q3-4.5 6-3.5-1.1 4.6-6 3.5m-.1 0v-.2l-.5-.5q-3-3-5.2-2.2.4 4.1 5.3 3h.2zm-.6-.6Q1.8 5 5.8.3q5 4.2.3 9.5m-.3 0q-.2 4.4-3.1 3.3-.1-2.4 2.9-3.2m1 .7q-.2 2.4 1.9 2.3.4-2.2-1.9-2.3" vector-effect="non-scaling-stroke"/></g><g id="y"><path fill="#7e9357" d="M6.2 9.8q3-4.5 6-3.5-1.1 4.6-6 3.5"/><path fill="#899e59" d="m5.5 9 .5.7h.1l-.3.2h-.2q-5 1.1-5.3-3Q2.5 6 5.5 9"/><path fill="#a5bf6a" d="M6.1 9.8 6 9.6l-.5-.5Q1.8 5 5.8.3q5 4.2.3 9.5"/><path fill="#6f814e" d="M5.6 9.9h.2q-.2 4.4-3.1 3.2-.1-2.4 2.9-3.2m1 .7q2.3.2 1.9 2.3-2.1.1-1.9-2.3"/><path fill="none" stroke="#788750" stroke-linecap="round" stroke-linejoin="round" stroke-opacity=".6" stroke-width="__RESOLUTION__" d="M6.1 9.8q3-4.5 6-3.5-1.1 4.6-6 3.5m-.1 0v-.2l-.5-.5q-3-3-5.2-2.2.4 4.1 5.3 3h.2zm-.6-.6Q1.8 5 5.8.3q5 4.2.3 9.5m-.3 0q-.2 4.4-3.1 3.3-.1-2.4 2.9-3.2m1 .7q-.2 2.4 1.9 2.3.4-2.2-1.9-2.3" vector-effect="non-scaling-stroke"/></g><g id="x"><path fill="#617433" d="M4.2.3v.1q1.4 1.9-1.6 1.9l.2-.5Q3.2.4 4.2.3"/><path fill="#8b2f14" d="m.6 7-.1-.2-.2-1q0-1.1.7-2 .7-.6 1.7-.7h.2q1 0 1.7.6l-.9 2.6Q2.2 7.2.5 7m2.3-2.7L2.7 3z"/><path fill="#6c2410" d="m4.6 3.7.2.1q.8.9.8 2 0 1-.8 1.6-.8.5-1.9.7-1.1 0-1.8-.6L.6 7q1.6 0 3.1-.7z"/><path fill="none" stroke="#3e4920" stroke-linecap="round" stroke-linejoin="round" stroke-opacity=".6" stroke-width="__RESOLUTION__" d="M4.2.3q-1 0-1.4 1.5l-.1.5q2.9 0 1.5-1.9zM2.7 3.2l-.1-.6v-.2M.6 7l-.1-.2-.2-1q0-1.1.7-2 .7-.6 1.7-.7h.2q1 0 1.7.6l.2.1q.8.9.8 2 0 1-.8 1.6-.8.5-1.9.7-1.1 0-1.8-.6zm2.1-4 .1 1.2" vector-effect="non-scaling-stroke"/></g><g id="w"><path fill="#435325" d="M6.2 9.8q3-4.5 6-3.5-1.1 4.6-6 3.5"/><path fill="#4b5b27" d="m5.5 9 .5.7h.1l-.3.2h-.2q-5 1.1-5.3-3Q2.5 6 5.5 9"/><path fill="#617433" d="M6.1 9.8 6 9.6l-.5-.5Q1.8 5 5.8.3q5 4.2.3 9.5"/><path fill="#37451f" d="M5.6 9.9h.2q-.2 4.4-3.1 3.2-.1-2.4 2.9-3.2m1 .7q2.3.2 1.9 2.3-2.1.1-1.9-2.3"/><path fill="none" stroke="#3e4920" stroke-linecap="round" stroke-linejoin="round" stroke-opacity=".6" stroke-width="__RESOLUTION__" d="M6.1 9.8q3-4.5 6-3.5-1.1 4.6-6 3.5m-.1 0v-.2l-.5-.5q-3-3-5.2-2.2.4 4.1 5.3 3h.2zm-.6-.6Q1.8 5 5.8.3q5 4.2.3 9.5m-.3 0q-.2 4.4-3.1 3.3-.1-2.4 2.9-3.2m1 .7q-.2 2.4 1.9 2.3.4-2.2-1.9-2.3" vector-effect="non-scaling-stroke"/></g><g id="v"><path fill="#14190b" d="M6.2 9.8q3-4.5 6-3.5-1.1 4.6-6 3.5"/><path fill="#171c0c" d="m5.5 9 .5.7h.1l-.3.2h-.2q-5 1.1-5.3-3Q2.5 6 5.5 9"/><path fill="#1d230f" d="M6.1 9.8 6 9.6l-.5-.5Q1.8 5 5.8.3q5 4.2.3 9.5"/><path fill="#111509" d="M5.6 9.9h.2q-.2 4.4-3.1 3.2-.1-2.4 2.9-3.2m1 .7q2.3.2 1.9 2.3-2.1.1-1.9-2.3"/><path fill="none" stroke="#131609" stroke-linecap="round" stroke-linejoin="round" stroke-opacity=".6" stroke-width="__RESOLUTION__" d="M6.1 9.8q3-4.5 6-3.5-1.1 4.6-6 3.5m-.1 0v-.2l-.5-.5q-3-3-5.2-2.2.4 4.1 5.3 3h.2zm-.6-.6Q1.8 5 5.8.3q5 4.2.3 9.5m-.3 0q-.2 4.4-3.1 3.3-.1-2.4 2.9-3.2m1 .7q-.2 2.4 1.9 2.3.4-2.2-1.9-2.3" vector-effect="non-scaling-stroke"/></g><g id="u"><path fill="#95a728" d="M6.2 9.8q3-4.5 6-3.5-1.1 4.6-6 3.5"/><path fill="#9eaf2a" d="m5.5 9 .5.7h.1l-.3.2h-.2q-5 1.1-5.3-3Q2.5 6 5.5 9"/><path fill="#b5ca37" d="M6.1 9.8 6 9.6l-.5-.5Q1.8 5 5.8.3q5 4.2.3 9.5"/><path fill="#899721" d="M5.6 9.9h.2q-.2 4.4-3.1 3.2-.1-2.4 2.9-3.2m1 .7q2.3.2 1.9 2.3-2.1.1-1.9-2.3"/><path fill="none" stroke="#909c22" stroke-linecap="round" stroke-linejoin="round" stroke-opacity=".6" stroke-width="__RESOLUTION__" d="M6.1 9.8q3-4.5 6-3.5-1.1 4.6-6 3.5m-.1 0v-.2l-.5-.5q-3-3-5.2-2.2.4 4.1 5.3 3h.2zm-.6-.6Q1.8 5 5.8.3q5 4.2.3 9.5m-.3 0q-.2 4.4-3.1 3.3-.1-2.4 2.9-3.2m1 .7q-.2 2.4 1.9 2.3.4-2.2-1.9-2.3" vector-effect="non-scaling-stroke"/></g><g id="t"><path fill="#312217" d="m46.1 52.8 2.4-7.2h2l-3 10.2-4.2.7-7.7 8.3-.1.1-1.2-.8 2.3-2.1-1.6-.9 1.1-1 1 .5 5.8-5L46 55zM16.9 55 4 55.9.3 47.7l2.3-.6 2.7 5.5 11.5-1zm-.2-7.8-.1-4.1-6.4 1.1-2.3-5.7 2.5-.3 1.4 3.2 4.8-1.5-.1-7.9 1.2-1.7 2.8.7 2.7-4.6 1-1.8 6-7.7-4-12.5 3.3-2.3 4.6 11 1.9-1 1-4L34.8.7 36 .2l3 7.4-1.2 6.7-2.6 1.6.3.6-.6 5 1 1.4-2.6 5.9-2-.1-2.8 5.4-1.6 11.3 1.5 6.5-3.3.3h-1.3L22.5 43l-2.7-.2-.3 4.3z"/><path fill="#5d402d" d="m35.6 64.8-.1.2v-.3m-2 45.1-4 .6.6-4.2-1.6-1.5-.9-7 2.3 6 2 1.8zM23 26.4l-5.4-4.5-.7-9.3 1.6.3.4 7.7 5.1 4zm-4 45.4.5 2.8-.6 4.5-1 1.3h-.7l-1.1-.7 1-2.6.8-4.3-1.5-3 1.2-.3zm12.6 21.5v-.2l.8-.3zm-9.7-4 1.3.8-.4 5.6-1-.5zm10.4-1.9.8 3.8-1.7.4-.1-4z"/><path fill="#231810" d="m35.5 65-3.1 10.3.5 3.7-1.7.2-.3-3.9-1.8-.5v-4.1l-2-.4-2-18 3.3-.2 2 9.2v.1l.2-.1.5 3.4 3-2.7.3-1.7 9.1-6.8.3-.1 2.3-.6L46 55l-3.1.4-5.7 5.1-1.1-.5-1.1 1 1.5.9-2.2 2.1zm3.9 41.1-1.2-.2-1.9 2L33.9 97l.5-.1 2.8 6zm-14.9 5.1h-.1l-1.2-1.8h-2.8l1.8-2.1.8-3.4.1 1.8z"/><path fill="#543a29" d="m32.9 79 1 6.3-2.3.3-.7-3.7-1.8.8-.8-5.6-2.1.3.4-5.6-2.5-.5-.7-6-.6 4.7-.1.1-2.1.1-3.2-2.2v-.3l-.5-10V55l-.1-3.4-.2-4.4 2.9-.1.3-4.4 2.7.3 1.3 9.4 1.3-.1 2 18 2 .4v4.1l1.8.5.3 3.9zm2.7 14 .5 2 .4.7-1.5.3.6 1.4 4.5 7.2v1.5l-.7-.1-2.2-3.2-2.8-6-.5.1 2.4 11-1.4 1.5-1.7-5.9.3-1.3-1.7-2.2v-2l-1.6.5-.4-1 .6-.3-.7-1.4-.9.3-.7-3.4 1.5-.4h.1l.7 1.4 1.4-.4.7-.5 1-.4.4.9zm-20.2-3.2 1.3-8.5.9.4h1.3l1-2 1.2.2-1.4 5.1-1.8-.3-.1.8q3.6.8 2.2 4l-.1.2q-2 .9-2.4-2.2l-.4 2.5zm15.2-28.7 8.7-6.6.3-3.1 2-.1h.1l.6 2.4 1.2-.3-9.1 6.8-.2 1.7-3.1 2.7z"/><path fill="#78593a" d="m33.9 85.3 1.7 7.8-1.7.3v-.1l-.4-.9-1 .4-.7.3v.3l-1.4.3-.7-1.4-1.6.4.7 3.3.8-.2.8 1.4-.6.3.4 1 1.6-.5v2l1.7 2.2-.4 1.3 1.8 5.9-.3.3-1.1.1-1.6-4.3-2-1.8-2.2-6 .9 7 1.5 1.5-.6 4.2-5 .7-1.4-5.5-.1-1.8-.6-6.3-.8-.2-1 7.2-2.8 4.8h-1.4L13 107h-2.4l2-6.7.8.3-.4 1.6 1.8.6-.6 2 2.2.8 2-5.7-1.2-.2 1.2-3.9-1-.5.7-2.5-1.2-.3-.5 2.7-2.2-.8 1-3.9.2-.7 1.7.3.3-2.5q.5 3 2.5 2.2l.1-.2q1.4-3.2-2.2-4v-.8l1.8.3h.1l1.4-5.1-1.2-.2-1 2h-1.3l-.9-.3V81l-1.5-1.4.2-10.7 2-.8V68l3.2 2.2 2.1-.1V70l.8-4.7.6 6 2.5.5-.4 5.5 2.1-.2.8 5.6 1.8-.8.7 3.7zm2.6 10.4 5.8 10.6-2.1-.2v-1.5l-4.6-7.2L35 96zM19.2 71.8l-1.5-2.3-1.2.3 1.5 3-.9 4.3-.9 2.7 1.1.7.6-.2h.1l1-1.2.6-4.5zM25 85h-1.2v11l2.4-.1zm2-.5.9-.7-.3-2.3-1.2.2.3 8.6 2.3-.5-1-4.6zm-4.8 4.8-.1 6 1 .5.4-5.7zm10.3-2-1 .2.1 4 1.6-.5z"/><path fill="#4a3324" d="M20.4 109.3h-2.6l2.8-4.8 1-7.2.8.2.6 6.3-.8 3.4z"/><path fill="#a6944d" d="m12.6 100.3 1.6-5.9 2.2.8.5-2.7 1.2.3-.7 2.5 1 .5-1.2 3.9 1.3.2-2.1 5.6-2.2-.7.7-2-1.9-.6.4-1.5v-.1zM24.9 85l1.3 10.9-2.6.1.1-11.2z"/><path fill="#6f4d35" d="m27 84.4.9.7 1 4.6-2.3.5-.3-8.6 1.2-.2.3 2.3z"/><path fill="none" stroke="#000" stroke-linecap="round" stroke-linejoin="round" stroke-opacity=".3" stroke-width="__RESOLUTION__" d="m46.1 52.8 2.4-7.2h2l-3 10.2-4.2.7-7.7 8.3m-.1.2-3.1 10.3.5 3.7 1 6.3 1.7 7.8.5 2 .4.6 5.8 10.6m-31.7.7 2-6.7 1.6-5.9 1-3.9.2-.7 1.3-8.3m0-.2V81l-1.5-1.4.2-10.7 2-.8m0-.4-.5-10V55" vector-effect="non-scaling-stroke"/><path fill="none" stroke="#000" stroke-linecap="round" stroke-linejoin="round" stroke-opacity=".3" stroke-width="__RESOLUTION__" d="m35.6 64.8-.1.2m-18.1 3v-.2m-.5-13L4 56 .3 47.7l2.3-.6 2.7 5.5 11.5-1-.2-4.4-.1-4.1-6.4 1.1-2.3-5.7 2.5-.3 1.4 3.2 4.8-1.5-.1-7.9 1.2-1.7 2.8.7 2.7-4.6-5.4-4.5-.7-9.3 1.6.3.4 7.7 5.1 4 6-7.7-4-12.5 3.3-2.3 4.6 11 1.9-1 1-4L34.8.7 36 .2l3 7.4-1.2 6.7-2.6 1.6.3.6-.6 5 1 1.4-2.6 5.9-2-.1-2.8 5.4-1.6 11.3 1.5 6.5 2 9.3v.1l.2-.1 8.7-6.7.3-3.1 2-.1h.1l.6 2.4 1.2-.3m.3-.1 2.3-.6m-23-26.4 1-1.8m-7.4 27L17 55" vector-effect="non-scaling-stroke"/></g><g id="s"><path fill="#293317" d="M6.2 9.8q3-4.5 6-3.5-1.1 4.6-6 3.5"/><path fill="#2e3818" d="m5.5 9 .5.7h.1l-.3.2h-.2q-5 1.1-5.3-3Q2.5 6 5.5 9"/><path fill="#3b471f" d="M6.1 9.8 6 9.6l-.5-.5Q1.8 5 5.8.3q5 4.2.3 9.5"/><path fill="#222a13" d="M5.6 9.9h.2q-.2 4.4-3.1 3.2-.1-2.4 2.9-3.2m1 .7q2.3.2 1.9 2.3-2.1.1-1.9-2.3"/><path fill="none" stroke="#262d13" stroke-linecap="round" stroke-linejoin="round" stroke-opacity=".6" stroke-width="__RESOLUTION__" d="M6.1 9.8q3-4.5 6-3.5-1.1 4.6-6 3.5m-.1 0v-.2l-.5-.5q-3-3-5.2-2.2.4 4.1 5.3 3h.2zm-.6-.6Q1.8 5 5.8.3q5 4.2.3 9.5m-.3 0q-.2 4.4-3.1 3.3-.1-2.4 2.9-3.2m1 .7q-.2 2.4 1.9 2.3.4-2.2-1.9-2.3" vector-effect="non-scaling-stroke"/></g><g id="r"><path fill="#53672e" d="M6.2 9.8q3-4.5 6-3.5-1.1 4.6-6 3.5"/><path fill="#5d7030" d="m5.5 9 .5.7h.1l-.3.2h-.2q-5 1.1-5.3-3Q2.5 6 5.5 9"/><path fill="#789040" d="M6.1 9.8 6 9.6l-.5-.5Q1.8 5 5.8.3q5 4.2.3 9.5"/><path fill="#445526" d="M5.6 9.9h.2q-.2 4.4-3.1 3.2-.1-2.4 2.9-3.2m1 .7q2.3.2 1.9 2.3-2.1.1-1.9-2.3"/><path fill="none" stroke="#4d5b28" stroke-linecap="round" stroke-linejoin="round" stroke-opacity=".6" stroke-width="__RESOLUTION__" d="M6.1 9.8q3-4.5 6-3.5-1.1 4.6-6 3.5m-.1 0v-.2l-.5-.5q-3-3-5.2-2.2.4 4.1 5.3 3h.2zm-.6-.6Q1.8 5 5.8.3q5 4.2.3 9.5m-.3 0q-.2 4.4-3.1 3.3-.1-2.4 2.9-3.2m1 .7q-.2 2.4 1.9 2.3.4-2.2-1.9-2.3" vector-effect="non-scaling-stroke"/></g><g id="q"><path fill="#5d7334" d="M6.2 9.8q3-4.5 6-3.5-1.1 4.6-6 3.5"/><path fill="#697e36" d="m5.5 9 .5.7h.1l-.3.2h-.2q-5 1.1-5.3-3Q2.5 6 5.5 9"/><path fill="#86a147" d="M6.1 9.8 6 9.6l-.5-.5Q1.8 5 5.8.3q5 4.2.3 9.5"/><path fill="#4d602b" d="M5.6 9.9h.2q-.2 4.4-3.1 3.2-.1-2.4 2.9-3.2m1 .7q2.3.2 1.9 2.3-2.1.1-1.9-2.3"/><path fill="none" stroke="#57662c" stroke-linecap="round" stroke-linejoin="round" stroke-opacity=".6" stroke-width="__RESOLUTION__" d="M6.1 9.8q3-4.5 6-3.5-1.1 4.6-6 3.5m-.1 0v-.2l-.5-.5q-3-3-5.2-2.2.4 4.1 5.3 3h.2zm-.6-.6Q1.8 5 5.8.3q5 4.2.3 9.5m-.3 0q-.2 4.4-3.1 3.3-.1-2.4 2.9-3.2m1 .7q-.2 2.4 1.9 2.3.4-2.2-1.9-2.3" vector-effect="non-scaling-stroke"/></g><g id="p"><path fill="#3e4d22" d="M6.2 9.8q3-4.5 6-3.5-1.1 4.6-6 3.5"/><path fill="#465424" d="m5.5 9 .5.7h.1l-.3.2h-.2q-5 1.1-5.3-3Q2.5 6 5.5 9"/><path fill="#5a6c30" d="M6.1 9.8 6 9.6l-.5-.5Q1.8 5 5.8.3q5 4.2.3 9.5"/><path fill="#33401c" d="M5.6 9.9h.2q-.2 4.4-3.1 3.2-.1-2.4 2.9-3.2m1 .7q2.3.2 1.9 2.3-2.1.1-1.9-2.3"/><path fill="none" stroke="#3a441e" stroke-linecap="round" stroke-linejoin="round" stroke-opacity=".6" stroke-width="__RESOLUTION__" d="M6.1 9.8q3-4.5 6-3.5-1.1 4.6-6 3.5m-.1 0v-.2l-.5-.5q-3-3-5.2-2.2.4 4.1 5.3 3h.2zm-.6-.6Q1.8 5 5.8.3q5 4.2.3 9.5m-.3 0q-.2 4.4-3.1 3.3-.1-2.4 2.9-3.2m1 .7q-.2 2.4 1.9 2.3.4-2.2-1.9-2.3" vector-effect="non-scaling-stroke"/></g><g id="o"><path fill="#485a28" d="M6.2 9.8q3-4.5 6-3.5-1.1 4.6-6 3.5"/><path fill="#51622a" d="m5.5 9 .5.7h.1l-.3.2h-.2q-5 1.1-5.3-3Q2.5 6 5.5 9"/><path fill="#687d37" d="M6.1 9.8 6 9.6l-.5-.5Q1.8 5 5.8.3q5 4.2.3 9.5"/><path fill="#3c4a21" d="M5.6 9.9h.2q-.2 4.4-3.1 3.2-.1-2.4 2.9-3.2m1 .7q2.3.2 1.9 2.3-2.1.1-1.9-2.3"/><path fill="none" stroke="#434f22" stroke-linecap="round" stroke-linejoin="round" stroke-opacity=".6" stroke-width="__RESOLUTION__" d="M6.1 9.8q3-4.5 6-3.5-1.1 4.6-6 3.5m-.1 0v-.2l-.5-.5q-3-3-5.2-2.2.4 4.1 5.3 3h.2zm-.6-.6Q1.8 5 5.8.3q5 4.2.3 9.5m-.3 0q-.2 4.4-3.1 3.3-.1-2.4 2.9-3.2m1 .7q-.2 2.4 1.9 2.3.4-2.2-1.9-2.3" vector-effect="non-scaling-stroke"/></g><g id="n"><path fill="#8da02b" d="M6.2 9.8q3-4.5 6-3.5-1.1 4.6-6 3.5"/><path fill="#97a92d" d="m5.5 9 .5.7h.1l-.3.2h-.2q-5 1.1-5.3-3Q2.5 6 5.5 9"/><path fill="#afc63b" d="M6.1 9.8 6 9.6l-.5-.5Q1.8 5 5.8.3q5 4.2.3 9.5"/><path fill="#808f23" d="M5.6 9.9h.2q-.2 4.4-3.1 3.2-.1-2.4 2.9-3.2m1 .7q2.3.2 1.9 2.3-2.1.1-1.9-2.3"/><path fill="none" stroke="#889525" stroke-linecap="round" stroke-linejoin="round" stroke-opacity=".6" stroke-width="__RESOLUTION__" d="M6.1 9.8q3-4.5 6-3.5-1.1 4.6-6 3.5m-.1 0v-.2l-.5-.5q-3-3-5.2-2.2.4 4.1 5.3 3h.2zm-.6-.6Q1.8 5 5.8.3q5 4.2.3 9.5m-.3 0q-.2 4.4-3.1 3.3-.1-2.4 2.9-3.2m1 .7q-.2 2.4 1.9 2.3.4-2.2-1.9-2.3" vector-effect="non-scaling-stroke"/></g><g id="m"><path fill="#586d31" d="M6.2 9.8q3-4.5 6-3.5-1.1 4.6-6 3.5"/><path fill="#637833" d="m5.5 9 .5.7h.1l-.3.2h-.2q-5 1.1-5.3-3Q2.5 6 5.5 9"/><path fill="#7f9944" d="M6.1 9.8 6 9.6l-.5-.5Q1.8 5 5.8.3q5 4.2.3 9.5"/><path fill="#495b28" d="M5.6 9.9h.2q-.2 4.4-3.1 3.2-.1-2.4 2.9-3.2m1 .7q2.3.2 1.9 2.3-2.1.1-1.9-2.3"/><path fill="none" stroke="#52612a" stroke-linecap="round" stroke-linejoin="round" stroke-opacity=".6" stroke-width="__RESOLUTION__" d="M6.1 9.8q3-4.5 6-3.5-1.1 4.6-6 3.5m-.1 0v-.2l-.5-.5q-3-3-5.2-2.2.4 4.1 5.3 3h.2zm-.6-.6Q1.8 5 5.8.3q5 4.2.3 9.5m-.3 0q-.2 4.4-3.1 3.3-.1-2.4 2.9-3.2m1 .7q-.2 2.4 1.9 2.3.4-2.2-1.9-2.3" vector-effect="non-scaling-stroke"/></g><g id="l"><path fill="#869a61" d="M6.2 9.8q3-4.5 6-3.5-1.1 4.6-6 3.5"/><path fill="#90a363" d="m5.5 9 .5.7h.1l-.3.2h-.2q-5 1.1-5.3-3Q2.5 6 5.5 9"/><path fill="#abc373" d="M6.1 9.8 6 9.6l-.5-.5Q1.8 5 5.8.3q5 4.2.3 9.5"/><path fill="#778859" d="M5.6 9.9h.2q-.2 4.4-3.1 3.2-.1-2.4 2.9-3.2m1 .7q2.3.2 1.9 2.3-2.1.1-1.9-2.3"/><path fill="none" stroke="#808e5b" stroke-linecap="round" stroke-linejoin="round" stroke-opacity=".6" stroke-width="__RESOLUTION__" d="M6.1 9.8q3-4.5 6-3.5-1.1 4.6-6 3.5m-.1 0v-.2l-.5-.5q-3-3-5.2-2.2.4 4.1 5.3 3h.2zm-.6-.6Q1.8 5 5.8.3q5 4.2.3 9.5m-.3 0q-.2 4.4-3.1 3.3-.1-2.4 2.9-3.2m1 .7q-.2 2.4 1.9 2.3.4-2.2-1.9-2.3" vector-effect="non-scaling-stroke"/></g><g id="k"><path fill="#71702e" d="M6.2 9.8q3-4.5 6-3.5-1.1 4.6-6 3.5"/><path fill="#7c7a30" d="m5.5 9 .5.7h.1l-.3.2h-.2q-5 1.1-5.3-3Q2.5 6 5.5 9"/><path fill="#96993f" d="M6.1 9.8 6 9.6l-.5-.5Q1.8 5 5.8.3q5 4.2.3 9.5"/><path fill="#635f26" d="M5.6 9.9h.2q-.2 4.4-3.1 3.2-.1-2.4 2.9-3.2m1 .7q2.3.2 1.9 2.3-2.1.1-1.9-2.3"/><path fill="none" stroke="#6c6427" stroke-linecap="round" stroke-linejoin="round" stroke-opacity=".6" stroke-width="__RESOLUTION__" d="M6.1 9.8q3-4.5 6-3.5-1.1 4.6-6 3.5m-.1 0v-.2l-.5-.5q-3-3-5.2-2.2.4 4.1 5.3 3h.2zm-.6-.6Q1.8 5 5.8.3q5 4.2.3 9.5m-.3 0q-.2 4.4-3.1 3.3-.1-2.4 2.9-3.2m1 .7q-.2 2.4 1.9 2.3.4-2.2-1.9-2.3" vector-effect="non-scaling-stroke"/></g><g id="j"><path fill="#4e602b" d="M6.2 9.8q3-4.5 6-3.5-1.1 4.6-6 3.5"/><path fill="#57692d" d="m5.5 9 .5.7h.1l-.3.2h-.2q-5 1.1-5.3-3Q2.5 6 5.5 9"/><path fill="#70873c" d="M6.1 9.8 6 9.6l-.5-.5Q1.8 5 5.8.3q5 4.2.3 9.5"/><path fill="#405024" d="M5.6 9.9h.2q-.2 4.4-3.1 3.2-.1-2.4 2.9-3.2m1 .7q2.3.2 1.9 2.3-2.1.1-1.9-2.3"/><path fill="none" stroke="#485525" stroke-linecap="round" stroke-linejoin="round" stroke-opacity=".6" stroke-width="__RESOLUTION__" d="M6.1 9.8q3-4.5 6-3.5-1.1 4.6-6 3.5m-.1 0v-.2l-.5-.5q-3-3-5.2-2.2.4 4.1 5.3 3h.2zm-.6-.6Q1.8 5 5.8.3q5 4.2.3 9.5m-.3 0q-.2 4.4-3.1 3.3-.1-2.4 2.9-3.2m1 .7q-.2 2.4 1.9 2.3.4-2.2-1.9-2.3" vector-effect="non-scaling-stroke"/></g><g id="i"><path fill="#34401d" d="M6.2 9.8q3-4.5 6-3.5-1.1 4.6-6 3.5"/><path fill="#3a461e" d="m5.5 9 .5.7h.1l-.3.2h-.2q-5 1.1-5.3-3Q2.5 6 5.5 9"/><path fill="#4b5a28" d="M6.1 9.8 6 9.6l-.5-.5Q1.8 5 5.8.3q5 4.2.3 9.5"/><path fill="#2b3518" d="M5.6 9.9h.2q-.2 4.4-3.1 3.2-.1-2.4 2.9-3.2m1 .7q2.3.2 1.9 2.3-2.1.1-1.9-2.3"/><path fill="none" stroke="#303919" stroke-linecap="round" stroke-linejoin="round" stroke-opacity=".6" stroke-width="__RESOLUTION__" d="M6.1 9.8q3-4.5 6-3.5-1.1 4.6-6 3.5m-.1 0v-.2l-.5-.5q-3-3-5.2-2.2.4 4.1 5.3 3h.2zm-.6-.6Q1.8 5 5.8.3q5 4.2.3 9.5m-.3 0q-.2 4.4-3.1 3.3-.1-2.4 2.9-3.2m1 .7q-.2 2.4 1.9 2.3.4-2.2-1.9-2.3" vector-effect="non-scaling-stroke"/></g><g id="h"><path fill="#778d34" d="M6.2 9.8q3-4.5 6-3.5-1.1 4.6-6 3.5"/><path fill="#839836" d="m5.5 9 .5.7h.1l-.3.2h-.2q-5 1.1-5.3-3Q2.5 6 5.5 9"/><path fill="#a0bb47" d="M6.1 9.8 6 9.6l-.5-.5Q1.8 5 5.8.3q5 4.2.3 9.5"/><path fill="#677a2b" d="M5.6 9.9h.2q-.2 4.4-3.1 3.2-.1-2.4 2.9-3.2m1 .7q2.3.2 1.9 2.3-2.1.1-1.9-2.3"/><path fill="none" stroke="#71802c" stroke-linecap="round" stroke-linejoin="round" stroke-opacity=".6" stroke-width="__RESOLUTION__" d="M6.1 9.8q3-4.5 6-3.5-1.1 4.6-6 3.5m-.1 0v-.2l-.5-.5q-3-3-5.2-2.2.4 4.1 5.3 3h.2zm-.6-.6Q1.8 5 5.8.3q5 4.2.3 9.5m-.3 0q-.2 4.4-3.1 3.3-.1-2.4 2.9-3.2m1 .7q-.2 2.4 1.9 2.3.4-2.2-1.9-2.3" vector-effect="non-scaling-stroke"/></g><g id="g"><path fill="#68813a" d="M6.2 9.8q3-4.5 6-3.5-1.1 4.6-6 3.5"/><path fill="#758d3d" d="m5.5 9 .5.7h.1l-.3.2h-.2q-5 1.1-5.3-3Q2.5 6 5.5 9"/><path fill="#96b450" d="M6.1 9.8 6 9.6l-.5-.5Q1.8 5 5.8.3q5 4.2.3 9.5"/><path fill="#566b30" d="M5.6 9.9h.2q-.2 4.4-3.1 3.2-.1-2.4 2.9-3.2m1 .7q2.3.2 1.9 2.3-2.1.1-1.9-2.3"/><path fill="none" stroke="#617232" stroke-linecap="round" stroke-linejoin="round" stroke-opacity=".6" stroke-width="__RESOLUTION__" d="M6.1 9.8q3-4.5 6-3.5-1.1 4.6-6 3.5m-.1 0v-.2l-.5-.5q-3-3-5.2-2.2.4 4.1 5.3 3h.2zm-.6-.6Q1.8 5 5.8.3q5 4.2.3 9.5m-.3 0q-.2 4.4-3.1 3.3-.1-2.4 2.9-3.2m1 .7q-.2 2.4 1.9 2.3.4-2.2-1.9-2.3" vector-effect="non-scaling-stroke"/></g><g id="f"><path fill="#1f2611" d="M6.2 9.8q3-4.5 6-3.5-1.1 4.6-6 3.5"/><path fill="#232a12" d="m5.5 9 .5.7h.1l-.3.2h-.2q-5 1.1-5.3-3Q2.5 6 5.5 9"/><path fill="#2d3618" d="M6.1 9.8 6 9.6l-.5-.5Q1.8 5 5.8.3q5 4.2.3 9.5"/><path fill="#19200e" d="M5.6 9.9h.2q-.2 4.4-3.1 3.2-.1-2.4 2.9-3.2m1 .7q2.3.2 1.9 2.3-2.1.1-1.9-2.3"/><path fill="none" stroke="#1d220f" stroke-linecap="round" stroke-linejoin="round" stroke-opacity=".6" stroke-width="__RESOLUTION__" d="M6.1 9.8q3-4.5 6-3.5-1.1 4.6-6 3.5m-.1 0v-.2l-.5-.5q-3-3-5.2-2.2.4 4.1 5.3 3h.2zm-.6-.6Q1.8 5 5.8.3q5 4.2.3 9.5m-.3 0q-.2 4.4-3.1 3.3-.1-2.4 2.9-3.2m1 .7q-.2 2.4 1.9 2.3.4-2.2-1.9-2.3" vector-effect="non-scaling-stroke"/></g><g id="e"><path fill="#1d230f" d="M20.7.7h.7l9.7.6 3 5 4.6 1-2.3 5.8 3 9.2L37 30l2 6.9-1.6 5.6-7.1 6.7-12.2-5-12.6 3.7L2.6 44l-2-6 1.7-7.1-2.2-7.5-.1-.2 3.5-6.8-1-6.6L11 5.1l1.1-.6zm25.9 30.1-1.7 3.5-3.5-.1-1.3-4 3.7-3.7z"/><path fill="none" stroke="#000" stroke-linecap="round" stroke-linejoin="round" stroke-opacity=".3" stroke-width="__RESOLUTION__" d="M20.7.7h.7M11 5.2l1.1-.6L20.8.7 19.4.4" vector-effect="non-scaling-stroke"/></g><g id="d"><path fill="#789040" d="M4.2.3v.1q1.4 1.9-1.6 1.9l.2-.5Q3.2.4 4.2.3"/><path fill="#ac3a19" d="m.6 7-.1-.2-.2-1q0-1.1.7-2 .7-.6 1.7-.7h.2q1 0 1.7.6l-.9 2.6Q2.2 7.2.5 7m2.3-2.7L2.7 3z"/><path fill="#862d14" d="m4.6 3.7.2.1q.8.9.8 2 0 1-.8 1.6-.8.5-1.9.7-1.1 0-1.8-.6L.6 7q1.6 0 3.1-.7z"/><path fill="none" stroke="#4d5b28" stroke-linecap="round" stroke-linejoin="round" stroke-opacity=".6" stroke-width="__RESOLUTION__" d="M4.2.3q-1 0-1.4 1.5l-.1.5q2.9 0 1.5-1.9zM2.7 3.2l-.1-.6v-.2M.6 7l-.1-.2-.2-1q0-1.1.7-2 .7-.6 1.7-.7h.2q1 0 1.7.6l.2.1q.8.9.8 2 0 1-.8 1.6-.8.5-1.9.7-1.1 0-1.8-.6zm2.1-4 .1 1.2" vector-effect="non-scaling-stroke"/></g><g id="c"><path fill="#86a147" d="M4.2.3v.1q1.4 1.9-1.6 1.9l.2-.5Q3.2.4 4.2.3"/><path fill="#c1411c" d="m.6 7-.1-.2-.2-1q0-1.1.7-2 .7-.6 1.7-.7h.2q1 0 1.7.6l-.9 2.6Q2.2 7.2.5 7m2.3-2.7L2.7 3z"/><path fill="#963317" d="m4.6 3.7.2.1q.8.9.8 2 0 1-.8 1.6-.8.5-1.9.7-1.1 0-1.8-.6L.6 7q1.6 0 3.1-.7z"/><path fill="none" stroke="#57662c" stroke-linecap="round" stroke-linejoin="round" stroke-opacity=".6" stroke-width="__RESOLUTION__" d="M4.2.3q-1 0-1.4 1.5l-.1.5q2.9 0 1.5-1.9zM2.7 3.2l-.1-.6v-.2M.6 7l-.1-.2-.2-1q0-1.1.7-2 .7-.6 1.7-.7h.2q1 0 1.7.6l.2.1q.8.9.8 2 0 1-.8 1.6-.8.5-1.9.7-1.1 0-1.8-.6zm2.1-4 .1 1.2" vector-effect="non-scaling-stroke"/></g><g id="b" fill="#000"><path fill-opacity=".1" d="m41.6 9.3.5 1.2 1-3.2-.4 4.5.4.7-2.6 2-3.1 1-.2-3-1.5 3.5-3.4 1.2-5.1.7-.2-2-.5 2.1-6 .8-10.1-1.3-1.7-5 .4 4.8-1.2-.1-1-4-.5 3.7-2.3-.2L0 13.1l1.6-2.7L.6 0l2.6 7.8L4 9V3l1.4 3.5L11.1 4 23 3.4l10 2.2 2.8 1.2.8-5.7.6 6.3 2.9 1.2 1.1-3.7z"/><path fill-opacity=".1" d="m34.3 4 .1 4.8.6-1.1 2-6.3-.7 8.4 1.3 2.1-3.3 3-1.8.2-.5-3-.8 3.2-.9.1.4-3.9-1.5 4-8 1.3-4.9-.7-.4-1.7-.1 1.7-4.1-.6-2.7-.9-1.2-2.8-.2 2.4-2.5-.8-2-1.5.3-.6L3 7.7l.8 2.6.4-1 .2-3.5 1 3 2.3-1 .5-5 .5 4.4 2.3-1 8-1.8 9.6.4 4.6 2z"/><path fill-opacity=".2" d="M26.9 4.8 31 6.7l1-2.6v4.4l.7-1 1.8-5.7-.7 7.6 1.2 2-3 2.6-1.7.3-.4-2.8-.7 3h-.9l.3-3.5-1.3 3.7-7.3 1-4.4-.5-.4-1.6-.1 1.5-3.8-.5-2.5-.8-1-2.6-.2 2.2-2.3-.7-1.9-1.3v-.1l.3-.6-.3-3.2.8 2.3.4-.8.2-3.2.8 2.6 2.1-.9.5-4.5.6 4.1 2-.9 7.3-1.7z"/></g><clipPath id="a"><path d="M1 1h65v92H1z"/></clipPath></defs><g clip-path="url(#a)"><g transform="translate(33.85 83.25)"><use xlink:href="#b" width="43.1" height="18.9" transform="matrix(.7395 0 0 .7192 -15.55 -4.25)"/><use xlink:href="#c" width="5.8" height="8.3" transform="matrix(.7395 0 0 .7192 -18.15 -61.9)"/><use xlink:href="#d" width="5.8" height="8.3" transform="matrix(.7395 0 0 .7192 2.65 -38.4)"/><use xlink:href="#d" width="5.8" height="8.3" transform="matrix(.7395 0 0 .7192 11.45 -36.2)"/><use xlink:href="#e" width="46.5" height="49.3" transform="matrix(.7395 0 0 .7192 -13.05 -69.2)"/><use xlink:href="#f" width="12.5" height="13.6" transform="matrix(.3585 .4133 -.5265 .2067 12.2 -49.1)"/><use xlink:href="#f" width="12.5" height="13.6" transform="matrix(.0845 -.5332 .505 .2495 -11.25 -15.3)"/><use xlink:href="#g" width="12.5" height="13.6" transform="matrix(.068 -.3268 .5365 .1327 -13.35 -18.5)"/><use xlink:href="#h" width="12.5" height="13.6" transform="matrix(.3266 -.5154 .5989 .4147 -32.05 -44.3)"/><use xlink:href="#i" width="12.5" height="13.6" transform="matrix(-.3205 .7077 -.4597 -.2936 26.15 -56.75)"/><use xlink:href="#j" width="12.5" height="13.6" transform="matrix(.2758 -.4286 -.4926 -.102 9.75 -20.6)"/><use xlink:href="#k" width="12.5" height="13.6" transform="matrix(.4674 -.223 -.3637 -.3398 7.2 -19.15)"/><use xlink:href="#i" width="12.5" height="13.6" transform="matrix(.4111 -.2305 .2148 .4078 -11.15 -21.4)"/><use xlink:href="#l" width="12.5" height="13.6" transform="matrix(.3383 -.4514 .6146 .2769 -23.45 -66.15)"/><use xlink:href="#f" width="12.5" height="13.6" transform="matrix(.3585 .4133 -.5265 .2067 15.05 -65)"/><use xlink:href="#g" width="12.5" height="13.6" transform="matrix(.3508 .4432 -.4999 .3782 -7.55 -68.75)"/><use xlink:href="#g" width="12.5" height="13.6" transform="matrix(.2234 .6871 -.6365 .0873 -5.55 -66.45)"/><use xlink:href="#g" width="12.5" height="13.6" transform="matrix(.7066 .1859 -.2123 .5159 -9.4 -65.95)"/><use xlink:href="#m" width="12.5" height="13.6" transform="matrix(-.3648 -.1705 -.217 .1634 20.05 -70.85)"/><use xlink:href="#n" width="12.5" height="13.6" transform="matrix(.3266 -.5154 .5989 .4147 -32.5 -48.6)"/><use xlink:href="#o" width="12.5" height="13.6" transform="matrix(.3513 -.5543 .717 .4965 -16.15 -72.6)"/><use xlink:href="#f" width="12.5" height="13.6" transform="matrix(-.1896 .5066 -.445 -.3403 6.25 -44.8)"/><use xlink:href="#i" width="12.5" height="13.6" transform="matrix(-.0577 .5366 -.5169 -.2254 10.1 -47.65)"/><use xlink:href="#f" width="12.5" height="13.6" transform="matrix(.3585 .4133 -.5265 .2067 11.3 -51.9)"/><use xlink:href="#f" width="12.5" height="13.6" transform="matrix(.3585 .4133 -.4707 .2711 10.2 -74.5)"/><use xlink:href="#f" width="12.5" height="13.6" transform="matrix(.3585 .4133 -.4707 .2711 -.15 -72.05)"/><use xlink:href="#f" width="12.5" height="13.6" transform="matrix(.3585 .4133 -.4707 .2711 7.45 -61.95)"/><use xlink:href="#f" width="12.5" height="13.6" transform="matrix(.3585 .4133 -.4707 .2711 9.15 -66)"/><use xlink:href="#i" width="12.5" height="13.6" transform="matrix(.3585 .4133 -.4707 .2711 15.25 -63.65)"/><use xlink:href="#i" width="12.5" height="13.6" transform="matrix(.3585 .4133 -.4707 .2711 12.45 -56.4)"/><use xlink:href="#p" width="12.5" height="13.6" transform="matrix(.3412 .5055 -.4659 .3306 -3 -35.55)"/><use xlink:href="#i" width="12.5" height="13.6" transform="matrix(.5708 .2481 -.1973 .8419 -8.7 -42.45)"/><use xlink:href="#g" width="12.5" height="13.6" transform="matrix(-.1638 -.3841 .5403 -.2491 -12.9 -24.95)"/><use xlink:href="#g" width="12.5" height="13.6" transform="matrix(-.3205 .7077 -.3736 -.4838 -.95 -29.1)"/><use xlink:href="#q" width="12.5" height="13.6" transform="matrix(.6242 .016 .1498 .8501 -7.6 -78.85)"/><use xlink:href="#g" width="12.5" height="13.6" transform="matrix(.3585 .4133 -.4707 .2711 1.05 -46.9)"/><use xlink:href="#g" width="12.5" height="13.6" transform="matrix(-.1199 .476 -.5373 -.225 7.6 -38.75)"/><use xlink:href="#l" width="12.5" height="13.6" transform="matrix(-.0148 -.3676 .6655 .0176 -32.65 -37.05)"/><use xlink:href="#r" width="12.5" height="13.6" transform="matrix(.5169 -.3404 .4397 .7318 -26.7 -50.6)"/><use xlink:href="#p" width="12.5" height="13.6" transform="matrix(.4781 .4413 -.532 .2342 17.9 -73.35)"/><use xlink:href="#p" width="12.5" height="13.6" transform="matrix(.3412 .5055 -.4659 .3306 -12.95 -44.25)"/><use xlink:href="#s" width="12.5" height="13.6" transform="matrix(.267 .5853 -.583 .0176 6.05 -43.35)"/><use xlink:href="#t" width="50.9" height="111.2" transform="matrix(.5109 0 0 .7192 -14.1 -73.25)"/><use xlink:href="#r" width="12.5" height="13.6" transform="matrix(.3508 .4432 -.4999 .3782 7.85 -77.6)"/><use xlink:href="#u" width="12.5" height="13.6" transform="matrix(.7237 -.0404 .3038 .7335 -29.6 -54.45)"/><use xlink:href="#g" width="12.5" height="13.6" transform="matrix(.7395 0 .4949 .7192 -28.55 -47.25)"/><use xlink:href="#r" width="12.5" height="13.6" transform="matrix(.1563 -.5866 .8256 .266 -23.65 -46.65)"/><use xlink:href="#v" width="12.5" height="13.6" transform="matrix(-.0577 .5366 -.5169 -.2254 -1.3 -39.5)"/><use xlink:href="#g" width="12.5" height="13.6" transform="matrix(.5169 -.3404 .4397 .7318 -19.25 -52.25)"/><use xlink:href="#o" width="12.5" height="13.6" transform="matrix(.5708 .2481 -.1973 .8419 -18.65 -51.15)"/><use xlink:href="#m" width="12.5" height="13.6" transform="matrix(-.2392 -.5607 .7865 -.3626 -24.95 -31.4)"/><use xlink:href="#i" width="12.5" height="13.6" transform="matrix(-.4788 -.3856 .3454 -.4491 -18.2 -26.5)"/><use xlink:href="#i" width="12.5" height="13.6" transform="matrix(-.3205 .7077 -.3736 -.4838 -10.9 -37.8)"/><use xlink:href="#q" width="12.5" height="13.6" transform="matrix(.1563 -.5866 .8256 .266 -20.95 -63.65)"/><use xlink:href="#j" width="12.5" height="13.6" transform="matrix(.5708 .2481 -.1973 .8419 -6.4 -73.9)"/><use xlink:href="#w" width="12.5" height="13.6" transform="matrix(.5169 -.3404 .4397 .7318 -16.6 -69.2)"/><use xlink:href="#g" width="12.5" height="13.6" transform="matrix(-.0148 -.3676 .6655 .0176 -13.7 -55.1)"/><use xlink:href="#r" width="12.5" height="13.6" transform="matrix(-.3205 .7077 -.4597 -.2936 14.85 -58.05)"/><use xlink:href="#x" width="5.8" height="8.3" transform="matrix(.7395 0 0 .7192 7.75 -51.95)"/><use xlink:href="#i" width="12.5" height="13.6" transform="matrix(-.3205 .7077 -.3736 -.4838 11.4 -52.95)"/><use xlink:href="#o" width="12.5" height="13.6" transform="matrix(.585 .5226 -.4335 .3284 10.4 -79.75)"/><use xlink:href="#p" width="12.5" height="13.6" transform="matrix(-.0313 .5409 -.5345 -.1175 16.1 -73)"/><use xlink:href="#o" width="12.5" height="13.6" transform="matrix(-.1199 .476 -.5373 -.225 17.2 -67.55)"/><use xlink:href="#r" width="12.5" height="13.6" transform="matrix(.7026 .2324 -.3052 .5513 1.6 -78.25)"/><use xlink:href="#g" width="12.5" height="13.6" transform="matrix(.8656 .1446 -.2005 .5578 5 -82.25)"/><use xlink:href="#y" width="12.5" height="13.6" transform="matrix(.7306 -.1388 .0173 .6279 .95 -80.5)"/><use xlink:href="#z" width="12.5" height="13.6" transform="matrix(.6666 -.3139 .2055 .6829 -12.7 -77.75)"/><use xlink:href="#q" width="12.5" height="13.6" transform="matrix(.0455 -.7221 .6286 .1414 -6.4 -67.05)"/><use xlink:href="#p" width="12.5" height="13.6" transform="matrix(.2986 .5331 -.6809 .552 19.1 -72.75)"/><use xlink:href="#o" width="12.5" height="13.6" transform="matrix(.2234 .6871 -.6365 .0873 8.75 -73.4)"/><use xlink:href="#A" width="12.5" height="13.6" transform="matrix(.5894 -.1276 .416 .3767 -4.8 -78.8)"/><use xlink:href="#A" width="12.5" height="13.6" transform="matrix(.2986 .5331 -.6809 .552 1.55 -70.95)"/><use xlink:href="#q" width="12.5" height="13.6" transform="matrix(.3508 .4432 -.4999 .3782 10.7 -70.9)"/><use xlink:href="#w" width="12.5" height="13.6" transform="matrix(.2234 .6871 -.6365 .0873 12.05 -64.6)"/><use xlink:href="#s" width="12.5" height="13.6" transform="matrix(.2611 .4301 -.5006 .2722 4.3 -61.7)"/><use xlink:href="#i" width="12.5" height="13.6" transform="matrix(-.4982 .4903 -.4588 -.4625 8.55 -52.15)"/><use xlink:href="#i" width="12.5" height="13.6" transform="matrix(.267 .5853 -.583 .0176 25.8 -45.35)"/><use xlink:href="#i" width="12.5" height="13.6" transform="matrix(-.3205 .7077 -.3736 -.4838 23.3 -37.8)"/><use xlink:href="#B" width="12.5" height="13.6" transform="matrix(-.4982 .4903 -.4588 -.4625 28.6 -36.9)"/><use xlink:href="#o" width="12.5" height="13.6" transform="matrix(.2234 .6871 -.6365 .0873 16.7 -43.55)"/><use xlink:href="#C" width="12.5" height="13.6" transform="matrix(.7306 -.1388 .0173 .6279 6.35 -42.5)"/><use xlink:href="#i" width="12.5" height="13.6" transform="matrix(.5102 -.3891 .2657 .4745 10.65 -43.85)"/><use xlink:href="#o" width="12.5" height="13.6" transform="matrix(.0379 .4679 -.5423 .115 25.85 -46.9)"/><use xlink:href="#s" width="12.5" height="13.6" transform="matrix(.5719 .388 -.2522 .4794 18.75 -50.7)"/><use xlink:href="#i" width="12.5" height="13.6" transform="matrix(-.7539 .5849 -.4287 -.3973 26.45 -41.75)"/><use xlink:href="#C" width="12.5" height="13.6" transform="matrix(-.3205 .7077 -.4597 -.2936 30.35 -54.4)"/><use xlink:href="#i" width="12.5" height="13.6" transform="matrix(.0037 .6401 -.4561 -.2912 24.95 -50.3)"/><use xlink:href="#D" width="12.5" height="13.6" transform="matrix(.2234 .6871 -.6365 .0873 27.6 -60.9)"/><use xlink:href="#s" width="12.5" height="13.6" transform="matrix(.4781 .4413 -.532 .2342 24 -64.6)"/><use xlink:href="#d" width="5.8" height="8.3" transform="matrix(.7395 0 0 .7192 12.85 -65.9)"/><use xlink:href="#s" width="12.5" height="13.6" transform="matrix(-.1199 .476 -.5373 -.225 23.75 -59.85)"/><use xlink:href="#p" width="12.5" height="13.6" transform="matrix(.4271 -.29 -.5439 -.3712 15.3 -28.9)"/><use xlink:href="#i" width="12.5" height="13.6" transform="matrix(.2223 .4519 -.5837 .2367 22.35 -67.6)"/><use xlink:href="#E" width="12.5" height="13.6" transform="matrix(-.3205 .7077 -.4597 -.2936 22.9 -58.9)"/><use xlink:href="#E" width="12.5" height="13.6" transform="matrix(-.3205 .7077 -.3736 -.4838 22.8 -48.5)"/><use xlink:href="#B" width="12.5" height="13.6" transform="matrix(-.4982 .4903 -.4588 -.4625 20.7 -47.7)"/><use xlink:href="#o" width="12.5" height="13.6" transform="matrix(.4777 .5991 -.4675 .1903 15.2 -62.8)"/><use xlink:href="#F" width="12.5" height="13.6" transform="matrix(.4777 .5991 -.5958 .0293 18.25 -57.65)"/><use xlink:href="#q" width="12.5" height="13.6" transform="matrix(.7066 .1859 -.2123 .5159 8.2 -64.15)"/><use xlink:href="#w" width="12.5" height="13.6" transform="matrix(.2055 .6195 -.6158 .1032 17.55 -55.15)"/><use xlink:href="#E" width="12.5" height="13.6" transform="matrix(.0477 -.4126 -.7467 -.1182 11.1 -6.7)"/><use xlink:href="#o" width="12.5" height="13.6" transform="matrix(.5766 -.2244 -.1594 -.4509 -.15 -3.05)"/><use xlink:href="#o" width="12.5" height="13.6" transform="matrix(-.2956 -.5325 .7899 -.3512 -18.2 -54.9)"/><use xlink:href="#g" width="12.5" height="13.6" transform="matrix(-.6756 -.1481 .1649 -.5414 -4.4 -53.45)"/><use xlink:href="#g" width="12.5" height="13.6" transform="matrix(-.3976 .4683 -.3286 -.3017 1.8 -59.75)"/><use xlink:href="#F" width="12.5" height="13.6" transform="matrix(-.5545 .5522 -.3224 -.4325 8.5 -47.7)"/><use xlink:href="#F" width="12.5" height="13.6" transform="matrix(-.6811 .1871 -.1356 -.5134 2.55 -45.5)"/><use xlink:href="#i" width="12.5" height="13.6" transform="matrix(.1007 .6166 -.6402 .1883 29.2 -51.3)"/><use xlink:href="#s" width="12.5" height="13.6" transform="matrix(-.1426 .5154 -.6644 -.0824 31.7 -46.9)"/><use xlink:href="#s" width="12.5" height="13.6" transform="matrix(-.69 .3814 -.0032 -.6039 13.55 -25.85)"/><use xlink:href="#i" width="12.5" height="13.6" transform="matrix(-.6993 .1043 -.0844 -.6362 10.8 -26.9)"/><use xlink:href="#G" width="12.5" height="13.6" transform="matrix(-.7822 .1213 .0065 -.5332 8.1 -23.35)"/><use xlink:href="#B" width="12.5" height="13.6" transform="matrix(-.6602 -.2446 .2056 -.4898 1.9 -25)"/><use xlink:href="#z" width="12.5" height="13.6" transform="matrix(.557 -.2739 .5464 .6788 -21.55 -73.8)"/><use xlink:href="#H" width="12.5" height="13.6" transform="matrix(.4674 -.223 -.3637 -.3398 5.6 -17.95)"/><use xlink:href="#o" width="12.5" height="13.6" transform="matrix(-.7539 .5849 -.4287 -.3973 9.2 -34.85)"/><use xlink:href="#E" width="12.5" height="13.6" transform="matrix(-.3205 .7077 -.3736 -.4838 6.3 -41.6)"/><use xlink:href="#p" width="12.5" height="13.6" transform="matrix(-.1426 .5154 -.6644 -.0824 14.4 -40)"/><use xlink:href="#h" width="12.5" height="13.6" transform="matrix(-.6834 .1038 -.0513 -.5618 .05 -53.45)"/><use xlink:href="#p" width="12.5" height="13.6" transform="matrix(-.1754 -.4011 .7447 -.2529 -18.3 -52.6)"/><use xlink:href="#j" width="12.5" height="13.6" transform="matrix(-.0976 -.6295 .9105 -.074 -22.9 -57.9)"/><use xlink:href="#I" width="12.5" height="13.6" transform="matrix(.0765 -.4997 .7447 .1575 -22.9 -63.1)"/><use xlink:href="#r" width="12.5" height="13.6" transform="matrix(.2695 -.4296 .6938 .2106 -32.6 -40.6)"/><use xlink:href="#A" width="12.5" height="13.6" transform="matrix(.3053 -.5276 .5166 .251 -28.85 -39.2)"/><use xlink:href="#l" width="12.5" height="13.6" transform="matrix(-.0342 -.4628 .553 -.012 -14.65 -14.45)"/><use xlink:href="#J" width="12.5" height="13.6" transform="matrix(-.1748 -.3173 .4992 -.2302 -12.95 -11.4)"/><use xlink:href="#r" width="12.5" height="13.6" transform="matrix(-.5675 -.1708 .1294 -.3454 -5.15 -9.85)"/><use xlink:href="#r" width="12.5" height="13.6" transform="matrix(.211 -.5704 .7974 .3386 -15.55 -51.55)"/><use xlink:href="#o" width="12.5" height="13.6" transform="matrix(-.5386 -.4657 .5629 -.1731 -7.5 -45.45)"/><use xlink:href="#s" width="12.5" height="13.6" transform="matrix(-.575 -.3651 .4227 -.4796 -8.15 -41.6)"/><use xlink:href="#r" width="12.5" height="13.6" transform="matrix(-.299 -.4505 .5771 -.4029 -23.9 -28.05)"/><use xlink:href="#p" width="12.5" height="13.6" transform="matrix(.3988 -.3696 -.4897 -.4528 -10.3 -32.35)"/><use xlink:href="#s" width="12.5" height="13.6" transform="matrix(.374 -.2752 -.1909 -.5201 -15.25 -28.6)"/><use xlink:href="#s" width="12.5" height="13.6" transform="matrix(-.1711 -.5423 -.4464 .1571 -7.65 -39.85)"/><use xlink:href="#i" width="12.5" height="13.6" transform="matrix(-.4549 -.3531 -.2768 .3739 -8.8 -43.8)"/><use xlink:href="#h" width="12.5" height="13.6" transform="matrix(-.5262 -.3277 .263 -.6529 -11.3 -41.55)"/><use xlink:href="#A" width="12.5" height="13.6" transform="matrix(.2267 .4884 -.632 .3148 -6.15 -60.3)"/><use xlink:href="#h" width="12.5" height="13.6" transform="matrix(-.4507 .3077 .4148 .5183 -17.3 -59.6)"/><use xlink:href="#g" width="12.5" height="13.6" transform="matrix(-.4117 .218 .1092 .5417 -11.7 -62.6)"/><use xlink:href="#K" width="12.5" height="13.6" transform="matrix(.0863 .5608 .4652 -.0907 -21 -52.55)"/><use xlink:href="#l" width="12.5" height="13.6" transform="matrix(.4264 .3847 .3044 -.3526 -17.6 -50.8)"/><use xlink:href="#d" width="5.8" height="8.3" transform="matrix(.7395 0 0 .7192 -14.85 -37.1)"/><use xlink:href="#L" width="5.8" height="8.3" transform="matrix(.7395 0 0 .7192 -9.45 -63.35)"/></g></g></svg>