<svg xmlns="http://www.w3.org/2000/svg" xmlns:xlink="http://www.w3.org/1999/xlink" width="55" height="39" viewBox="0 0 55 39"><defs><use xlink:href="#a" id="g" width="47.3" height="24.1"/><use xlink:href="#b" id="f" width="38.3" height="19.6"/><use xlink:href="#c" id="e" width="53" height="27"/><use xlink:href="#d" id="j" width="53" height="23.5"/><path id="a" fill="#9b6d2c" d="m34.7 9.6-5.3-2.9L8 17.5l-1.3-.7 25.7-13L26.8 1l-25 13.4-1.8-1L26.6 0l7.8 4-3.5 1.8 5.4 2.8L40 6.8l1.3.6-11.5 5.7 4.9 2.6 11.1-5.9 1.5.7-17.6 9 5.3 3-1.1.5-5.3-2.9-7.7 4-1.4-.7 13.9-7-4.7-2.6-13.5 7.4-1.9-.9z"/><path id="b" fill="#d6a85b" d="M19.7-3.5-6.6 10.2l-12-6.1L8-9.5z" transform="translate(18.6 9.5)"/><path id="c" fill="#b07f2d" d="M0-13.5 26.5 0 0 13.5-26.5 0z" transform="translate(26.5 13.55)"/><g id="d"><path fill="#857534" d="M26.5 5.8 53 .1v3.8l-7.5 3.9-8.2 4.1-2.7 1.4-8.1 4.1z"/><path fill="#c7d0d1" d="M53 3.9V10l-7.5 3.9V7.8l-8.2 4.1-2.7 1.4 2.6-1.4v6.2l-2.6 1.3v-6.1l2.6-1.4v2.8l8.3-4.2V7.8z"/><path fill="#9db0b0" d="M45.5 13.9 37.3 18v-3.4l8.2-4.2zm-10.9 5.5-8.1 4.1v-6.1l8.1-4.1z"/><path fill="#566969" d="m26.5 23.5-6-3v-6.2 3.1l-12-6.3V8v6.3L0 10V3.5L8.5 8l12 6.3 6 3.1z"/><path fill="#7a9493" d="M20.6 20.5 8.4 14.3l.1-3.2 12 6.3z"/><path fill="#524820" d="M0 3.5V0l16.6 3.7 9.9 2.1v11.6l-6-3.1-12-6.4z"/><path fill="none" stroke="#000" stroke-linecap="round" stroke-linejoin="round" stroke-opacity=".5" stroke-width="__RESOLUTION__" d="M53 3.9V10l-7.5 3.9-8.2 4.2-2.7 1.3-8.1 4.1-6-3-12-6.2L0 10V0l16.6 3.7 9.9 2.1m0 11.6 8.1-4.1 2.6-1.4 8.3-4.1L53 3.9m-7.5 6.6V7.8M37.3 18v-6l-2.7 1.3v6.1m-8.1-2v6.1m19-9.6v-3.4l-8.2 4.3M8.5 11V8L0 3.5m20.6 13.9v-3.1L8.5 7.9m12 12.6v-3.1l-12-6.3v3.2m12 0 6 3.1" vector-effect="non-scaling-stroke"/></g><g id="k" transform="translate(26.5 13.55)"><use xlink:href="#e" width="53" height="27" transform="translate(-26.5 -13.55)"/><use xlink:href="#f" width="38.3" height="19.6" transform="translate(-18.65 -9.5)"/><use xlink:href="#g" width="47.3" height="24.1" transform="translate(-26.5 -13.45)"/></g><clipPath id="h"><path d="M1 1h53v37H1z"/></clipPath></defs><g clip-path="url(#h)"><g transform="translate(27.5 14.55)"><use xlink:href="#j" width="53" height="23.5" transform="translate(-26.5 -.1)"/><use xlink:href="#k" width="53" height="27" transform="translate(-26.5 -13.55)"/></g></g></svg>