<svg xmlns="http://www.w3.org/2000/svg" xmlns:xlink="http://www.w3.org/1999/xlink" width="35" height="81" viewBox="0 0 35 81"><defs><clipPath id="a"><path d="M1 1h33v79H1z"/></clipPath><g id="b"><path fill="#737373" d="m10.1 52.4.4 8-5.1 4h-.5v-7.9zm-3.6 4.8.8 1.1-.6 3.8 2-2-.6-1.8.4-1.7-1.2-.3z"/><path fill="#000" d="m6.5 57.2.8-.9 1.2.3-.4 1.7.7 1.8-2.1 2 .6-3.8z"/><path fill="#a0a0a0" d="m10 52.4-5 4.1v.1H3.2V56L8 52.1z"/><path fill="#121212" d="M3.2 56.6h1.7v7.8H3.7z"/><path fill="none" stroke="#000" stroke-linecap="round" stroke-linejoin="round" stroke-width="__RESOLUTION__" d="M23.7 9.5v5.8l6.3-5V10q-2.7 2.3-6.4-.5l-2.4-2.4q-3.7-2-6.3-2.4l2.5 7.6v8l6.3-5v43.1l6.3-5v-43m-.1 4.6q0 1.7-.9 3.5t-2 2.8-2.1.5-.8-2.2.8-3.5 2-2.8T29 13t.9 2.1m0-10.5V10q1.6-1.3 2.8-4.3m-9 3.8V3.6M23.5 20q0 1.7-.9 3.5t-2 2.8-2.1.5-.9-2.2.9-3.5 2-2.8q1.3-.9 2.1-.4t.9 2.1M30 58.4v-4.9m-6.4 5v4.9M13.6 0 15 4.7q-3.5-.5-7.3 1.6l3.6 11.2v7.7l6.2-4.9v43.1l6.3-5M.1 7.7l1 3.5Q3.6 9 6 7.3l1.7-1-1-3.5M0 12.4l1.3-1.2L5 23.6l-.2 6.6 6.3-5-.4 3.6.2 1.2q0 1.3-.5 2.6-.7 10-.4 19.8l.4 8 .7 8 6.2-5v4.9m-1-45.4q.9.5.9 2.1t-.9 3.5-2 2.8-2.1.5-.8-2.2.8-3.5q.8-1.8 2-2.8 1.3-.9 2.1-.4m-5.9 9.7-.3 1q-.9 1.8-2.1 2.7t-2 .5-.9-2.2.9-3.5 2-2.8 2-.4q.5.2.7.9zM3.2 56v.7l.5 7.8 1.2 9 6.3-5v4.9m-6.3-43Q2.7 43.1 3.2 55.9m1.7 22.4v-5" vector-effect="non-scaling-stroke"/></g></defs><g clip-path="url(#a)"><use xlink:href="#b" width="32.6" height="78.3" transform="translate(1 1)"/></g></svg>