<svg xmlns="http://www.w3.org/2000/svg" xmlns:xlink="http://www.w3.org/1999/xlink" width="104" height="60" viewBox="0 0 104 60"><defs><g id="d"><path fill="#000" d="m30.8 4.8 1.7-.1q4.8-.3 7.8 1.4 2.9 1.5 2.4 4l-.5 1.2q-1 1.8-4 3.3l-2.9 1.3-3.7-1.2 3.7 1.2q-2.7.8-5.7 1-4.9.2-7.9-1.3-3-1.7-2.3-4.1.5-1.9 2.4-3.2l2.1-1.4q3.1-1.6 6.9-2.1l.4.5zM23 9.5l-1.4-1.2zm16.6 1.1 2.5.7z"/><path fill="none" stroke="#000" stroke-linecap="round" stroke-linejoin="round" stroke-width="1" d="m42.2 11.3 7.6 1.8-3.1 13.1M31.2 5.3l-.4-.5L26.2.5 4 1.8m17.8 6.5L23 9.5m12.2 6.4-3.7-1.2m10.6-3.4-2.5-.7m-4.4 5.3 6.4 1.4-7.4 11.5M21.8 8.3l-3.3-2.7-18 2.3"/></g><g id="b"><path fill="#bab69e" d="m.5 7.5.2-.4L5 4.8l5.8-1.9.4-1.5L13.6.2l1.5-.1L20.8 3q-.8.5-1.4 1.1l-.3.1 2.7-.7 6.5 3.3-.1.1L23 9.6l-2.4-.1.6 1-1.2.7-3.2-1.1 2.5 1.5-1.7.9-6.3.5-2.1-1.2q-2.2-.7-2.4-1.3-.8-.4-2-1.5l-2.1-.4zm4.1 2 .3-.2.6.7z"/><path fill="#999371" d="M28.2 6.9v2.2q-2.7 1.2-5.1 2.8h-.4v.2l-.9.6-2.7.2v1.4l-4.5 2-.7-.5v-.3.3l1.4-2.1 2.3-1.2 1.7-.9-2.6-1.5 3.3 1.1 1.3-.6-.7-1.1 2.4.1z"/><path fill="#605a44" d="m13.9 15.9-1-.3-3-1-3.3-1.8Q4 11.2 1.3 10.5l-1.2-.3.1-2.3.2-.4 2.3 1 2 .5 2.1 1.5q.2.6 2.4 1.3l2.2 1.2 2.4 2.5zM4.5 9.6l.9.5-.7-.7z"/><path fill="#edebe7" d="m11.4 13 6.2-.5-2.3 1.2-1.4 2v-.2L13 14l-.5-.5z"/><path fill="#523f21" d="m11.4 13 1.2.6.5.5.8 1.4z"/><path fill="none" stroke="#576560" stroke-linecap="round" stroke-linejoin="round" stroke-width="__RESOLUTION__" d="m.5 7.5.2-.4L5 4.8l5.8-1.9.4-1.5L13.6.2l1.5-.1L20.8 3q-.8.5-1.4 1.1l-.3.1 2.7-.7 6.5 3.3-.1.1v2.2m-28 1.1V7.9l.2-.4" vector-effect="non-scaling-stroke"/><path fill="#9c9f37" d="M14 15.2q2.9-.8 5.4-2.3 1.7-1 3.5-1.7L25 10l1.3-.9 1.3-.8.6-.1v1.5l-14 7.5-.2-.7z"/><path fill="#999371" d="m27.6 8.3.6-.5v.4z"/><path fill="#745530" d="M28.3 9.7H28zm-14 7.5-.5-.2.3-.5z"/><path fill="#79792b" d="m13.7 17-.7-.4-1.7-.9-1.4-.6-4-2-.6-.3-.2-.1-1.4-.7-3-1.4-.6-.4V8.9h1.5l.4.3 3.2 1.6.2.8 1.2-.2 2.1 1 3.3 1.4q.6 1 1.8 1.3l.1.2v-.1 1.3z"/><path fill="#605a44" d="M.1 8.9v-1l1.5 1zm5 1.8 1.5.7-1.2.2z"/><path fill="none" stroke="#576560" stroke-linecap="round" stroke-linejoin="round" stroke-width="__RESOLUTION__" d="M28.3 7.8v1.9M13.7 17l-.7-.4m-1.7-.9-1.4-.6m-4-2-.6-.3m-.2-.1L3.7 12m-3-1.4-.6-.4V7.9m24.3 3.9-2 1m-4.2 2.3-.7.4m-.7.4-1.2.6m4.7-2.6-.7.4m8.5-4.6-1 .6m-.3.2-1.2.7" vector-effect="non-scaling-stroke"/></g><clipPath id="a"><path d="M1 1h102v58H1z"/></clipPath><path id="c" fill="none" stroke="#999662" stroke-linecap="round" stroke-linejoin="round" stroke-width="__RESOLUTION__" d="m10.7 6.7.3.1M2.8 3.5l2.3.9m-.4 2-.7.3m4.6-.9 1.3.5M6 4.9l1.2.4 1.8-1m-.7 1.4L7 5.2l-1.3.6m5.4-2.5L9.7 4m-8-.2L0 4.7M5.9 0l2 .8L9.7 0m1.2 2L7.9.8 4.6 2.5m7-.2L15 3.8m1.9.7.9.4" vector-effect="non-scaling-stroke"/></defs><g clip-path="url(#a)"><g transform="translate(51.75 41.55)"><use xlink:href="#b" width="28.4" height="17.1" transform="matrix(1.7915 0 0 1.7981 -24.8 -40.55)"/><use xlink:href="#c" width="17.7" height="6.8" transform="matrix(1.8487 .0682 -.1355 1.9016 -13.15 -37.8)"/><use xlink:href="#b" width="28.4" height="17.1" transform="matrix(1.7915 0 0 1.7981 -50.75 -26.85)"/><use xlink:href="#c" width="17.7" height="6.8" transform="matrix(1.8487 .0682 -.1355 1.9016 -39.1 -24.1)"/><use xlink:href="#b" width="28.4" height="17.1" transform="matrix(1.7915 0 0 1.7981 -.2 -27.8)"/><use xlink:href="#c" width="17.7" height="6.8" transform="matrix(1.8487 .0682 -.1355 1.9016 11.45 -25.05)"/><use xlink:href="#b" width="28.4" height="17.1" transform="matrix(1.7915 0 0 1.7981 -25.65 -13.95)"/><use xlink:href="#c" width="17.7" height="6.8" transform="matrix(1.8487 .0682 -.1355 1.9016 -14 -11.2)"/><use xlink:href="#d" width="50.3" height="29.3" transform="translate(-30.35 -25.7)"/></g></g></svg>