<svg xmlns="http://www.w3.org/2000/svg" xmlns:xlink="http://www.w3.org/1999/xlink" width="57" height="134" viewBox="0 0 57 134"><defs><g id="e"><path fill="#676343" d="M25.3 20.8q.4 0 2.1-1l-1 7.1-.2 1-2-.8z"/><path fill="#b0ab84" d="m24.2 27.1 2 .7.2-.9q-.3 8.6 1.1 18l-1 .2-.9-.2-.2-.1q-1.4-8.3-1.2-17.7"/><path fill="none" stroke="#888257" stroke-linecap="round" stroke-linejoin="round" stroke-width="__RESOLUTION__" d="m25.3 20.8-1.1 6.3m2.2-.2 1-7.1m-2 25 .3.1.8.2 1-.3" vector-effect="non-scaling-stroke"/><path fill="none" stroke="#928c5f" stroke-linecap="round" stroke-linejoin="round" stroke-width="__RESOLUTION__" d="M27.5 44.8q-1.4-9.3-1.1-17.9" vector-effect="non-scaling-stroke"/><path fill="#676343" d="m42 23.8 2-2.8 3.7 2.5q.3.7-.6.8t-.7.4l-2.3-1.4-1.2 1z"/><path fill="#b0ab84" d="m42 23.8.9.5 1.2-1-3 14-1 .3-.8-.2-.2-.1z"/><path fill="none" stroke="#888257" stroke-linecap="round" stroke-linejoin="round" stroke-width="__RESOLUTION__" d="m44.1 23.3 2.3 1.4" vector-effect="non-scaling-stroke"/><path fill="none" stroke="#928c5f" stroke-linecap="round" stroke-linejoin="round" stroke-width="__RESOLUTION__" d="m41.2 37.3 2.9-14" vector-effect="non-scaling-stroke"/><path fill="#86965a" d="M9 12.4q3.7.3 3.8-1.4 14.7.5 1.8-10.9 11.3 6.2 10.5.2 8.5 4 6-.3 9.2 6.3 7.8 1.3l7.8 4.1-5.2 2.7-2.9-.8.6-2.9L36.4 6h-2.6l-2.3-2.5-2.2 2.2L27 3.2l-1 2.2-3.4 1.3 2.9 1.2.3 1.8 1.4 1.6-.2 1-.4 3.8-5.2 2.7z"/><path fill="#485131" d="m27.2 12.3 1 3.1v3.7l-.9.5q-1.2 7.7-.4 11.1 1.3 3.3-.4 3.2-1 1-1-2.9v-.3q1.1-5 .1-10.3l-1.5.9-.2 30.6v.5l-.1 30q-1.8 1.4-3 5l.3-34 .4-34.6 5.2-2.7zm5.3 31.1 2.3-1.2.7 3.6-7.5 3.8q6.3-4.8 4.5-6.2m11.9-6.1.7.3q.6 1.5 2.1 2.3l-1.1.6Q44.9 38 42.8 38zM41 38.9q.9 2.9 3.9 2.1l-5.4 2.8q2.4-1.5-1.2-3.5zm-.7 35 3.7-2q-2.5 4.8 0 8l-3.1 1.6.7-3.4q-.4-3.5-4.6.2-1.7 2 .8 4.8l-2.1 1.1q1.1-4.4-6.4-3.6-4.7.6-2.3 8.1l-2.7 1.4-.6-7.5 4.3-2.2 5.9-3.2.6-.3zM20.5 96.4l2.6-2.6v21.3q-1.6-1.2-2.7 1.5zm9.8-11H30q-1.8-.5-.6-2.8 3.2 1.5.8 2.8m15.8.4v3.8q-1.6-1.1-2.4 1.2v-3.1q1.3.6 2.4-1.9m-2.4 8.6 2.4-.3v2.2l-2.4.1zm0 9.3v-3.9q1.3 2 2.4.3v2.7z"/><path fill="#525b37" d="M20.8 87.4v.5l-.2-.4Q17 75.6 1.1 68.9q16.8 3.1 10.3 0 2.4-.5 4.4-2.5Q23.3 57.2 2.7 50q5.6.8 7.7-2 3.9-2.6 5.5-.7 2.8-4.7 5.2 6.2z"/><path fill="#5e6a40" d="M10.4 47.8q.8-1 1.1-2.6Q12.2 36.3.2 32q29 6 15.9-11.8-2.5-5-6.3-7.2l-.5-.3-.5-.3h.3l12.4 6.4-.4 34.6q-2.4-10.9-5.2-6.2-1.7-2-5.5.6m10 68.9q-2.2-6.7-5.7-6 6.2-1.8 3.8-6.6l-.1-.1q-2.6-3.1-12.1-7.1l4.8.3q4.7 1.8 9.4-.8zM10.1 56.4l-6 2.2q3.4-1.5-4.2-2.8zm6.4 33.7q-4.1 2-6.2-2.5 2.3.1 6.2 2.5M9.7 66.4q-3 .1-6.7-1.9 4.4-1.2 6.7 1.9"/><path fill="#667346" d="M32.4 43.4q-2.1.9-2.6-2.1l2.4-1.4q2.2.7 2.5 2.3zM42.9 38l-1.4-1.2.1-.9 2.8 1.4zm-4.5 2.3Q38.8 38 36 38l2.6-1.4q-.3 3 2.4 2.3zM28 80.4q2-2.8.1-3.7l2-1q.9 1.8 3.8 1.5zm6.6-3.5q2.5-2.4 1.8-4.5l.9-.5q-.7 2 3 2z"/><path fill="none" stroke="#817b52" stroke-linecap="round" stroke-linejoin="round" stroke-width="__RESOLUTION__" d="m9 12.4 12.5 6.4" vector-effect="non-scaling-stroke"/></g><g id="d"><path fill="#676343" d="M37.8 101.9v-6.5q.4 0 2.2-1v6.9l-1.3 1.1z"/><path fill="#b0ab84" d="m37.8 101.9.9.5 1.3-1.1v18.1l-1 .3-.9-.2-.2-.1z"/><path fill="none" stroke="#888257" stroke-linecap="round" stroke-linejoin="round" stroke-width="__RESOLUTION__" d="M40 101.3v-7m-2.1 25 .3.2.8.2 1-.3" vector-effect="non-scaling-stroke"/><path fill="none" stroke="#928c5f" stroke-linecap="round" stroke-linejoin="round" stroke-width="__RESOLUTION__" d="M40 119.4v-18.1" vector-effect="non-scaling-stroke"/><path fill="#676343" d="M44.5 91.6q.5 0 2.2-1v6.9l-1.2 1.1-1-.5z"/><path fill="#b0ab84" d="m44.6 98 .9.6 1.2-1.1v18.1l-1 .3-.8-.2-.2-.2z"/><path fill="none" stroke="#888257" stroke-linecap="round" stroke-linejoin="round" stroke-width="__RESOLUTION__" d="M44.5 91.6v6.5m2.2-.6v-7m-2 25 .2.2.8.2 1-.3" vector-effect="non-scaling-stroke"/><path fill="none" stroke="#928c5f" stroke-linecap="round" stroke-linejoin="round" stroke-width="__RESOLUTION__" d="m46.8 115.6-.1-18.1" vector-effect="non-scaling-stroke"/><path fill="#d5bb86" d="m20.8 37.8 5-2.6 6 3zM3.4 47l6-3.2Q19 54.4 31.9 60.3l-1.5.8-3.6-2-4.4-2.2-2.9-1.5-5.3-2.9-2.4-1.2-3.3-1.7zm9.4-5 2.9-1.5q2.7 2.8 13.2 1.3 9.8-.1 18.3 10.3L44 53.7q-4.8-8.7-11.3-7.1-4.6.3 1.1 4.3l7.6 4.3-1 .5h-.1l-.6-.6h-.1l-2 1-2.8-.2 1.3 1.8-.1-.1.1.4-1.7.9q-4.5-10-12-10.5-7.2.1-9.6-6.4"/><path fill="#ceb173" d="m31.8 38.3 21 10.9-5.6 2.9q-8.5-10.4-18.3-10.4-10.5 1.6-13.2-1.2l5-2.7zM9.5 43.8l3.3-1.8q2.4 6.5 9.6 6.4 7.5.6 12 10.5l-2.6 1.4q-12.9-6-22.3-16.5m31.9 11.4-7.6-4.3q-5.7-4-1.1-4.3Q39.2 45 44 53.7z"/><path fill="#705b38" d="M53 49.3v34.2l-2.4 1.3L27.5 97v-4l2.8-1.4 20.2-10.7h.1v3.9-30.5l-8.7 4.6-1.1.6h-.2l-.2-3.7 1-.6 2.6-1.5 3.2-1.6 5.5-3zm0 3.9-2.4 1.1zM30.4 65v-4zl4.3-2.3 2.2-1.2-.7-3.6-1.7.9-2.6 1.4-1.5.8-2.8 1.4V93l2.8-1.4z"/><path fill="#826a42" d="M27.5 97 .3 82.8v-4l2.8 1.5 2 1 3.5 1.9 4.6 2.4 3.2 1.6 5 2.6 6.1 3.2zm-1.3-2.7-2.1-.8zM2.5 82.4l-.8-1z"/><path fill="#9a7d4e" d="M3 80.3.4 75.7v-9q8.3 2.6 8.3-14l2.7 1.3q-.9 1.8-2 14.8-1 11-4.2 12.5zM.3 56.7v-8.3h.2l5.6 3Q1.6 59.9.3 56.7m23.6 3.9 3.6 1.9V80q-4.3-13.4-3.9-19.2l.1-.3zm-2.5 29.2-5-2.6q1.3-2.9.7-5.5-.5-2.1-1.8-2.7t-2 .8q-.9 1.9-.1 5.8l-4.6-2.4q4.2-4.4 4-16v-.4q-1.3-7.2 3.7-10.1l3 1.5q-3.2 4 2 31.6m-5.2-21.5-.7-5.1q-.3-3.1-.5 1.9l-.5 7.2q-.3 2 0 3.2l.5 1.4q.2.3 1.2-.2.8-.6.5-3.6z"/><path fill="#8c7246" d="M.3 66.7v-10q1.3 3.1 5.8-5.3l2.2 1.1.3.2q0 16.6-8.3 14M27.5 80v13l-6.1-3.2q-5.3-27.6-2-31.5l4.3 2.2v.3q-.5 5.8 3.8 19.2m-11.1 7.2-3.2-1.6q-.7-4 0-5.7.8-1.6 2.1-1t1.8 2.8q.5 2.6-.7 5.5m-7.8-4L5 81.3q3.3-1.5 4.2-12.5 1.1-13 2-14.7l1.2.6 3.8 2q-5 2.9-3.7 10.1v.4q.2 11.6-4 16m7.5-15 .5 4.9q.3 3-.6 3.6-.9.5-1.1.2l-.5-1.5q-.3-1.1 0-3.2l.5-7.1q.2-5 .5-1.9z"/><path fill="#d1b67c" d="M.5 48.5 3.4 47l5 2.5-2.3 1.9zm26.2 10.8 3.6 1.9-2.8 1.4-3.6-1.9zm.9 1.7h-1.2zM14 52.5q-2.8 1.1-2.8 1.5l-2.7-1.3q-.5-1.8 3-1.4zm2.2 4 3.1-1.2 2.9 1.5-3 1.4zm-12-7.9-1.4-.3z"/><path fill="#695534" d="m36.1 57.7-1.3-1.8 2.8.2 2-1h.1l.6.6.3 3.8z"/><path fill="#544529" d="M40.6 59.5h.1l1.2-.6.3 17.7-7.6-4 7.6 4-11.9 5.8v-8l4.3-1.8v-9.8l2.2-1.2-.7-3.6-.1-.4h.1z"/><path fill="#655232" d="m41.9 58.9 8.7-4.6v26.5h-.1l-8.3-4.2z"/><path fill="#3e331e" d="m30.3 65 4.3-2.2v9.8l-4.3 1.8zm4.3 7.5-4.3-2.2z"/><path fill="#c9a865" d="m26.7 59.2-2.8 1.4-.2-.1-4.3-2.2 2.9-1.4zm-12.6-6.7 5.4 2.9-3.2 1.3-3.7-2h-.1l-1.2-.7q0-.4 2.8-1.5m-5.5.2-.3-.2L6 51.4l2.3-1.9 3.3 1.8q-3.6-.4-3.1 1.4"/><path fill="#5e4d2f" d="M50.5 80.9 30.3 91.6v-9.2l11.9-5.8z"/><path fill="none" stroke="#000" stroke-linecap="round" stroke-linejoin="round" stroke-opacity=".3" stroke-width="__RESOLUTION__" d="m20.8 37.8 5-2.6 6 3 21 11 .3-.2v34.5l-2.5 1.3L27.5 97 .3 82.8v-4l2.8 1.5-2.8-4.6V48.4h.2L3.4 47l6-3.2 3.4-1.8 2.9-1.5zm20 21.7 1.2-.6 8.7-4.6 2.4-1.1M30.4 61v4l4.3-2.3 2.2-1.2m-6.5-.5-3.6-2-4.4-2.2-2.9-1.5-5.3-2.9-2.4-1.2-3.3-1.7-5-2.6m24.1 15.5 2.8-1.4m22.5-12 .3.2m-2.5 31.6h-.1L30.3 91.6 27.5 93v4m23-16.2h.1V54.3m0 26.6v3.9m0-4v.1m-8.4-4.3-7.6-4-4.3-2.2v21.2m-2.8-11.1V93l-6.1-3.2-5-2.6-3.2-1.6-4.6-2.4L5 81.3l-2-1h0m27.2-10v-5.2m11.9 11.5 8.3 4.3m-23-18.4V80" vector-effect="non-scaling-stroke"/><path fill="none" stroke="#ae915e" stroke-linecap="round" stroke-linejoin="round" stroke-width="__RESOLUTION__" d="m20.8 37.8 11 .5m9.6 16.9-7.6-4.3q-5.7-4-1.1-4.3Q39.2 45 44 53.7m3.2-1.6q-8.5-10.4-18.3-10.4-10.5 1.6-13.2-1.2m-3 1.5q2.5 6.5 9.7 6.4 7.5.6 12 10.5m-2.6 1.4q-12.9-6-22.3-16.5" vector-effect="non-scaling-stroke"/><path fill="none" stroke="#000" stroke-linecap="round" stroke-linejoin="round" stroke-opacity=".3" stroke-width="__RESOLUTION__" d="m36.8 61.6-.7-3.6m4.5 1.5-4.5-1.8" vector-effect="non-scaling-stroke"/><path fill="none" stroke="#b48d3f" stroke-linecap="round" stroke-linejoin="round" stroke-width="__RESOLUTION__" d="m26.7 59.2-2.8 1.4m-9.8-8q-2.8 1-2.8 1.4m5 2.7 3.1-1.4m-11-5.7-2.3 1.8m5.6-.1q-3.6-.4-3.1 1.4m10.8 5.5 2.9-1.4" vector-effect="non-scaling-stroke"/><path fill="none" stroke="#826c41" stroke-linecap="round" stroke-linejoin="round" stroke-width="__RESOLUTION__" d="M26.5 60.9h1M3 48.5l1.4.3" vector-effect="non-scaling-stroke"/><path fill="none" stroke="#5e4d2f" stroke-linecap="round" stroke-linejoin="round" stroke-width="__RESOLUTION__" d="m24.1 93.5 2.1.8M1.7 81.4l.7 1" vector-effect="non-scaling-stroke"/><path fill="none" stroke="#7a633d" stroke-linecap="round" stroke-linejoin="round" stroke-width="__RESOLUTION__" d="M27.5 80q-4.3-13.4-3.9-19.2l.1-.3m-4.3-2.2q-3.3 3.9 2 31.5M6 51.4Q1.6 59.9.3 56.7m11-2.7q-.9 1.8-2 14.8-1 11-4.2 12.5m3.5-28.6q0 16.6-8.3 14m16-10q-5 2.9-3.7 10.1v.4q.2 11.6-4 16m7.5-15 .5 4.9q.3 3-.6 3.6-.9.5-1.1.2l-.5-1.5q-.3-1.1 0-3.2l.5-7.1q.2-5 .5-1.9zm-2.9 17.4q-.7-4 0-5.7.8-1.6 2.1-1t1.8 2.8q.5 2.6-.7 5.5" vector-effect="non-scaling-stroke"/><path fill="#77724d" d="M46.7 79.3v2l-2.6-.7zM40 82.8v2.1l-2.5-.8zm-6.5 3.4v2.1l-2.5-.8z"/><path fill="#817b52" d="m44.1 80.6 2.6.7v-2l.3-.2 3.4 1.7-20 10.5v-3.5l.5-.3 2.6.8-.1-2.1 4-2.1 2.6.8-.1-2.1z"/><path fill="none" stroke="#545136" stroke-linecap="round" stroke-linejoin="round" stroke-width="__RESOLUTION__" d="m30.4 91.3 20-10.5" vector-effect="non-scaling-stroke"/><path fill="#676343" d="m31.4 64.6 2.1-1.1v7l-1.2 1-.9-.5z"/><path fill="#b0ab84" d="m31.4 71 .9.6 1.3-1.1v18l-1 .3-.9-.1-.2-.2z"/><path fill="none" stroke="#888257" stroke-linecap="round" stroke-linejoin="round" stroke-width="__RESOLUTION__" d="M31.4 64.6V71m2.1-.5v-7m-2 25 .3.2.7.1 1.1-.2" vector-effect="non-scaling-stroke"/><path fill="none" stroke="#928c5f" stroke-linecap="round" stroke-linejoin="round" stroke-width="__RESOLUTION__" d="M33.6 88.6V70.5" vector-effect="non-scaling-stroke"/><path fill="#676343" d="M47 56.3v7l-1.2 1-1-.5v-6.4q.5-.1 2.2-1.1"/><path fill="#b0ab84" d="m44.9 63.8.9.5 1.2-1v18l-1 .3-.8-.1-.2-.2z"/><path fill="none" stroke="#888257" stroke-linecap="round" stroke-linejoin="round" stroke-width="__RESOLUTION__" d="M47 63.3v-7m-2.2 1v6.5m2.3 17.5-1.1.3-.8-.1-.2-.2" vector-effect="non-scaling-stroke"/><path fill="none" stroke="#928c5f" stroke-linecap="round" stroke-linejoin="round" stroke-width="__RESOLUTION__" d="M47 63.3v18" vector-effect="non-scaling-stroke"/><path fill="none" stroke="#000" stroke-linecap="round" stroke-linejoin="round" stroke-opacity=".3" stroke-width="__RESOLUTION__" d="m38.9 66.2 2.4-8 2.3 5.3" vector-effect="non-scaling-stroke"/><path fill="#6b7948" d="m42.8 63.1 3.4-.9v5.5q-3.1 6.3-10.6 6.4v-5.3l2.5-3z"/><path fill="#86965a" d="M36.4 70.7v-1.6l2.5-3 4.7-2.6 3.4-.9v2.1q-2.6-.4-10.6 6"/><path fill="#798851" d="M47 64.7v2.8q-9 1.4-10.5 5.3l-.1-2.1q8-6.4 10.6-6"/><path fill="#8e9f60" d="M47 67.5v.6q-3.1 6.2-10.5 6.3v-1.6Q38 69 47 67.6"/><path fill="#f7fae7" d="m42.3 72.3-1.1.7v-2.7l-2 1.3L39 67l6.1-3.6-.2 4.6-1.7 1 .4 2.6zv-1.7zm-1-3.7-.2-1.6zm1.6-1.1v-1.3z"/><path fill="none" stroke="#000" stroke-linecap="round" stroke-linejoin="round" stroke-opacity=".3" stroke-width="__RESOLUTION__" d="m42.3 72.3 1.2-.7L43 69l1.8-1 .3-4.6-6.2 3.6.4 4.6 1.9-1.3V73zl.1-1.7M41.1 67l.3 1.6m1.6-2.4v1.3" vector-effect="non-scaling-stroke"/><path fill="#dcc698" d="M8.8 9.5 26.3.3l2.4 1.3q-11.1 9-19.9 7.9"/><path fill="#d5ba84" d="m28.8 1.6 5.7 3Q14.4 9.7 10 15.3L3.7 12l5-2.6q8.8 1 20-7.9m10.7 5.7 3 1.5.6 3.4.1.4q.1 1-.9 2.2h-2L38 12.2l-2.2 2.3-1-1q2.3-2.7 4.8-6.2m-7.7 9.1.5 1.9v.3l1.3 1.4-8.5 3.4-3-1.7-2-1 3.1-.2q4 .2 8.6-4.1m-.5-4.4q-.9 2-11.3 4.3-6.2.7-3-1.3l.6-.3q18-8.3 16.3-6.5-1.9 1.8-2.6 3.8"/><path fill="#ceb173" d="m34.5 4.5 5 2.8q-2.4 3.5-4.6 6.2l-1.4-1.6-1 2.3v.1L29 15.4l2.8 1q-4.6 4.3-8.6 4l-3 .4-1.9-1-3-1.6-5.5-2.8q4.4-5.6 24.6-10.9m8 4.3L53 14.3 48 17l-2.7-.7-.2.1.5-3.2-3.4 1.6q1-1.2 1-2.2l-.1-.4zM33.7 20v.3l-.5 4.6-2.5 1.3-3.5-1.8-2-1zm-2.4-8q.8-2 2.7-3.8 1.8-1.8-16.2 6.5l-.7.3q-3.2 2 3 1.3Q30.5 14 31.4 12"/><path fill="#705b38" d="M53.5 14.5v34.2L51 50 27.9 62.2V27.7l2.8-1.5 2.5-1.3.4-4.6.9 3.9.4 3.8-4.2 2.2v-4 30.5l-2.8 1.5 2.8-1.5L50.9 46h.1V19.5L48 21l-3.3-.3.4-4.3-2.7 1.6h-2l-2.5-2-2 1.5-1.7-1.5-.4 1.7-1.4.6-.4-1.9-2.9-1 3.4-1.1v-.1l1-2.3 1.4 1.6.9 1 2.2-2.3 2.3 2.6h2l3.4-1.6-.6 3.2.3-.1 2.7.7 5-2.7zm0 3.8L51 19.5zM51 46v4z"/><path fill="#826a42" d="M27.9 62.2.7 48v-4l2.7 1.4L8.5 48l8.5 4.5 2.8 1.5 3.8 2 4.3 2.2zm-1.3-2.7-2.1-.8zm-23.7-12-.8-1z"/><path fill="#8d7347" d="M3.4 45.4.7 40.8V20.3l3.2 8.5q1 9.9-.5 16.6M28 27.7v13q-2.3 14-4.2 15.3l-3.9-2q-.8-5.3 1.8-9.1 3-6.4 3.3-18.8zm-19.2-10 4.2 2.2v.2q-1.7 8.8 1.7 18.4l.2.5Q17 46 17 52.6L8.5 48q2.5-3.7.7-10l-.1-.2Q7 32 8.6 18.6z"/><path fill="#9a7d4e" d="M.7 20.3v-6.8l.2.1 7.8 4-.1 1Q7.1 32 9.1 37.8v.3q1.9 6.2-.6 10l-5-2.6v-.1q1.4-6.7.4-16.6zM21 24l3.9 2q-.2 12.4-3.3 18.8-2.6 3.8-1.8 9L17 52.6q.1-6.6-2.2-13.5l-.2-.5q-3.4-9.6-1.7-18.4V20l2.8 1.4q.9 21 5.3 2.8"/><path fill="#c9a865" d="m.9 13.6 2.9-1.5 6.1 3.3-1.2 2.3zm24.4 9.8 1.9 1-2.3 1.7-3.9-2 1.1-2.4zM13 19.9l2.4-1.7 3 1.6q-2.8.9-2.7 1.5zm-8.4-6-1.3-.3z"/><path fill="#544529" d="m32.4 18.3 1.4-.6.4-1.7 1.6 1.5h.1l2-1.5 2.5 2h1.8v6.2l.1-.2.3 17.7-7.6-4V28l-.1.1-.4-3.8-.9-4 .1-.2-1.3-1.4zM35 37.9l7.6 3.9-11.9 5.8v-8z"/><path fill="#655232" d="M42.2 18h.2l2.8-1.6-.5 4.3 3.3.3 3-1.5V46h-.1l-8.3-4.3-.3-17.7-.1.2z"/><path fill="#3e331e" d="m34.9 28 .1-.1v9.9l-4.3 1.8v-9.4zm-4.2 7.5 4.3 2.3z"/><path fill="#c19d53" d="M22.2 21.7 21 24.1l-5.3-2.8q-.1-.6 2.7-1.6l1.9 1zm2.8 4.4 2.3-1.7 3.5 1.8-2.8 1.5zm3 0-1-.1zM8.8 17.7l1.3-2.3 5.4 2.8-2.5 1.7z"/><path fill="#866d44" d="M27.9 40.8v17.4L23.7 56q1.9-1.3 4.2-15.2M15.7 21.3l5.3 2.8q-4.4 18.2-5.3-2.8"/><path fill="#5e4d2f" d="M30.7 56.7v-9.2l11.9-5.8 8.3 4.3z"/><path fill="none" stroke="#000" stroke-linecap="round" stroke-linejoin="round" stroke-opacity=".3" stroke-width="__RESOLUTION__" d="M8.8 9.5 26.3.3l2.4 1.3 5.8 3 5 2.7 3 1.5L53 14.3l.4-.1v34.5L51 50 27.9 62.2.7 48v-4l2.7 1.4-2.7-4.6V13.5l.2.1 2.9-1.5zM34.9 28l.1-.1m0 9.9 7.6 3.9 8.3 4.3h.1-.1L30.7 56.7l-2.8 1.5V27.7l2.8-1.5v4l4.2-2.2M48 21l3-1.5 2.5-1.2m0-3.8-.4-.2m-25.9 10-2-1-3-1.6-2-1-1.8-1-3-1.5-5.5-2.8-6-3.4m23.4 12.3 3.5 1.8m0 30.5V30.2m4.3 7.6-4.3-2.3M28 58.2v4M51 46V19.5M51 50v-4M8.5 48l8.5 4.4 2.8 1.5 3.8 2 4.3 2.2M8.5 48l-5-2.5v-.1" vector-effect="non-scaling-stroke"/><path fill="none" stroke="#ae915e" stroke-linecap="round" stroke-linejoin="round" stroke-width="__RESOLUTION__" d="M8.8 9.5q8.8 1 20-7.9m6 11.9q2.3-2.7 4.8-6.2M31.4 12q-.9 2-11.3 4.3-6.2.7-3-1.3l.6-.3q18-8.3 16.3-6.5-1.9 1.8-2.6 3.8m11-3.2.8 3.4v.4q.1 1-.9 2.2m-17 8.6 8.4-3.4m-13.5.8 3.1-.3q4 .2 8.6-4.1m-22-1q4.4-5.6 24.6-10.9" vector-effect="non-scaling-stroke"/><path fill="none" stroke="#000" stroke-linecap="round" stroke-linejoin="round" stroke-opacity=".3" stroke-width="__RESOLUTION__" d="m32.4 18.3 1.4-.6.4-1.7 1.6 1.5h.1l2-1.5 2.5 2h2l2.8-1.6-.5 4.3 3.3.3m-15.6-2.7v.3l1.3 1.4m0 .3.8 3.9h0l.4 3.8" vector-effect="non-scaling-stroke"/><path fill="none" stroke="#826c41" stroke-linecap="round" stroke-linejoin="round" stroke-width="__RESOLUTION__" d="M26.9 26h1M3.3 13.6l1.3.4" vector-effect="non-scaling-stroke"/><path fill="none" stroke="#5e4d2f" stroke-linecap="round" stroke-linejoin="round" stroke-width="__RESOLUTION__" d="m24.5 58.7 2.1.8m-24.5-13 .8 1" vector-effect="non-scaling-stroke"/><path fill="none" stroke="#705b38" stroke-linecap="round" stroke-linejoin="round" stroke-width="__RESOLUTION__" d="m8.7 17.7-.1.8Q7.1 32 9.1 37.8v.3q1.9 6.2-.6 10m8.5 4.4q.1-6.6-2.2-13.5l-.2-.5q-3.4-9.6-1.7-18.4v-.2h0M21 24q-4.4 18.2-5.3-2.8M3.5 45.4q1.4-6.7.4-16.6L.7 20.3M19.8 54q-.8-5.3 1.8-9.1 3-6.4 3.3-18.8M23.7 56q1.9-1.3 4.2-15.2" vector-effect="non-scaling-stroke"/><path fill="#77724d" d="m31.3 52.6 2.5-1.3v2.2zm13.2-6.9 2.5-1.2.1 2z"/><path fill="#817b52" d="m31.3 52.6 2.6.9-.1-2.2 10.7-5.5 2.6.7v-2l.4-.3 3.3 1.7-20 10.5v-3.5z"/><path fill="none" stroke="#413e29" stroke-linecap="round" stroke-linejoin="round" stroke-width="__RESOLUTION__" d="m50.8 45.9-20 10.5" vector-effect="non-scaling-stroke"/></g><g id="c"><path fill="#96aa28" d="m11.4 3-.3.4-.1-.7v.6zl-.4-.3-.4-1.5-.8-.8Q8.6-.1 7 1.2l.4.5.3.5.2.3-.2-.4-.3-.4-.4-.5q-3.3-2.4-3.3 0L4 2.7l-2.5.1Q.3 3.3.7 5q0 .3.8.2l.6-.1h.2l.5-.1h.5-.5l-.6.3-.7.6-.6.8q-.5 1 .6 1.5h.1l.4.2 1.4-.5q.5-.4 1.1-.4l.2 1.8Q4 8.7 3 8.8l-.8.1-.7.3h-.1l-.6.7-.6.9q-.6 1.1.6 1.3h.7L3 12l1.2-.2.6-.4.4-.3.3-.8q-.2-.7-.8-1 .6.3.8 1l-.3.8.8 1.5 1.7.2q2.3 0 4-1.6H14q1.1-.1.5-1.2-.6-1.2-1.2-1.6l.1-1.2-.2-1.7q1.2-2 .5-2.9t-2.3.4m.3 8.2Q13 10 13.4 8.4q-.3 1.5-1.6 2.8M5 3.4l-.7-.6-.2-.1.2.1zM4.4 5H3.3l1.4 1.5q.1-.8.5-1.5zm1.1 2.7-1-.2zm6.6 2.1q-1.9-.6-4.5 1.1 2.6-1.7 4.5-1.1"/><path fill="#959902" d="M6 12.6 4.6 12l-.4-.2.6-.4.4-.3zM2.2 8.9 2 8.3 3.4 8q.5-.4 1.1-.4l.2 1.8Q4 8.7 3 8.8zm0-3.6.1-.2.5-.1zM3.3 5h1.9q-.4.7-.5 1.5z"/><path fill="none" stroke="#596205" stroke-linecap="round" stroke-linejoin="round" stroke-width="__RESOLUTION__" d="M11 2.7v.6l.4-.3q1.5-1.2 2.3-.4.7.9-.5 2.9M11 2.7l-.4-1.5-.8-.8Q8.6-.1 7 1.2l.4.5.3.5.2.3m5.3 5.9q.6.4 1.2 1.5t-.6 1.3h-2.2m-7.5.6L3 12l-1.5.1H.8q-1.2-.2-.6-1.3l.6-.9.6-.7h.1l.6-.3.9-.1q1 0 1.7.4t.8 1.1l-.3.8-.4.3zM2 8.5l-.4-.2h-.1Q.4 7.8.9 6.8l.6-.9.7-.6.6-.3h1.6M2.3 5h-.1l-.7.1Q.8 5.3.7 5q-.4-1.7.8-2.2L4 2.7l-.2-1.5q0-2.4 3.3 0M4 2.7l.2.1.7.6M2.8 5l-.5.1m2.2 2.4q-.6 0-1.1.4L2 8.3m2.5-.8 1 .2" vector-effect="non-scaling-stroke"/><path fill="none" stroke="#596205" stroke-linecap="round" stroke-linejoin="round" stroke-width="__RESOLUTION__" d="m13.2 5.5.2 1.8-.1 1q-.3 1.6-1.6 2.8v.1q-1.7 1.6-4 1.6L6 12.6 4.6 12l-.4-.2" vector-effect="non-scaling-stroke"/><path fill="none" stroke="#596205" stroke-linecap="round" stroke-linejoin="round" stroke-width="__RESOLUTION__" d="M7.6 10.9q2.6-1.7 4.5-1.1" vector-effect="non-scaling-stroke"/><path fill="none" stroke="#002900" stroke-linecap="round" stroke-linejoin="round" stroke-width="__RESOLUTION__" d="M9.6 8q-.9 1-1.9 0m3.1-.3q1.5.8 1.8-.7" vector-effect="non-scaling-stroke"/></g><g id="b"><path fill="#705b38" d="m50.6 19.4 2.4-1.1zV50v-4h-.1L30.3 56.7l-2.8 1.4V27.8l2.8-1.5 22.5-11.9.3.1v34.3L50.6 50 27.5 62.3v-4l2.8-1.5V26.2v4l4.3-2.3 7.3-3.9z"/><path fill="#655232" d="M50.6 19.4V46h-.1l-8.3-4.3-.3-17.7z"/><path fill="#ceb173" d="M52.8 14.3 30.3 26.2l-3.5-1.9-2-1q18.4-6.5 18-10.7v-.5L42 8.8zM34 4.5l5.1 2.8Q30 20.8 23 20.4l-3 .3-1.9-1-3-1.5-5.4-2.9Q14 9.7 34 4.5M31 12q.8-2 2.6-3.8 1.8-1.9-16.2 6.5l-.6.3q-3.2 2 2.9 1.3Q30.1 14 31 12"/><path fill="#3e331e" d="m30.3 30.2 4.3-2.3v9.9l-4.3 1.8zm0 5.3 4.3 2.3z"/><path fill="#544529" d="m34.6 27.9 7.3-3.9.3 17.7-7.6-4-4.3 1.8v8l11.9-5.8-7.6-4z"/><path fill="#d5ba84" d="m42 8.8.8 3.3v.5q.4 4.2-18 10.7l-3-1.6-2-1 3.1-.3q7 .4 16.3-13.1zM28.4 1.5l5.6 3Q14 9.7 9.6 15.2L3.4 12l5-2.7q8.8 1.1 20-7.8M31 12q-.9 2-11.3 4.3-6.1.7-3-1.3l.7-.4q18-8.3 16.2-6.4-1.9 1.8-2.7 3.8"/><path fill="#c9a865" d="m24.9 23.3 1.9 1-2.3 1.8-3.9-2 1.1-2.4zm-9.9-5 2.9 1.5q-2.8 1-2.7 1.6l-2.7-1.5zM3.4 12.1l6.2 3.2-1.3 2.3-7.8-4zm.9 1.8-1.4-.3z"/><path fill="#c19d53" d="m26.8 24.3 3.5 1.9-2.8 1.4-3-1.5zm-7-3.6 2 1-1.2 2.4-5.4-2.8q0-.6 2.8-1.6zM9.6 15.3l5.5 2.9-2.5 1.6h-.1l-4.2-2.2zm18 10.7h-1.2z"/><path fill="#8d7347" d="M27.5 27.7v13q-2.4 14-4.2 15.2l-3.9-2q-.8-5.2 0-9.8 1.5-10.5 5.1-18zm-19.2-10 4.2 2.2v.3q-1.7 8.8-.4 15.5 1.3 6.8 2.5 10.6l2 6.3L8.1 48q2.5-10.2.2-17.7-2.4-7.4-1.9-8.7l1.3-2.4q.7-1.1.6-1.6M3.1 45.5.3 40.8V20.3l3.1 8.5q1.1 9.9-.3 16.6"/><path fill="#866d44" d="M27.5 40.8v17.4l-4.2-2.3q1.8-1.2 4.2-15.1M20.6 24q-5.6 38-5.4-2.8z"/><path fill="#5e4d2f" d="M30.3 56.7v-9.2l11.9-5.8 8.3 4.3z"/><path fill="#dcc698" d="M8.4 9.4 25.9.3l2.5 1.3q-11.2 9-20 7.8"/><path fill="#9a7d4e" d="M8.3 17.7q.1.4-.6 1.5l-1.3 2.4q-.5 1.3 1.9 8.7 2.3 7.5-.2 17.7l-5-2.6q1.4-6.7.3-16.6L.3 20.2v-6.7l.2.1zm4.2 2.2 2.8 1.5q-.3 40.8 5.3 2.8l3.9 2q-3.6 7.5-5.1 18-.8 4.5 0 9.8l-2.8-1.4-2-6.2q-1.2-3.9-2.5-10.6-1.3-6.8.3-15.6z"/><path fill="#826a42" d="M27.5 62.2.3 48v-4l2.8 1.4L8 48l8.5 4.5 2.8 1.4 3.9 2 4.2 2.3zm-25-14.7-.8-1zm23.8 12-2.1-.9z"/><path fill="none" stroke="#000" stroke-linecap="round" stroke-linejoin="round" stroke-opacity=".3" stroke-width="__RESOLUTION__" d="m53 18.3-2.4 1.1V46h0v4l2.4-1.4zv-3.9l-.2-.1.3-.2v.3M30.2 26.2v4l4.3-2.3 7.3-3.9 8.7-4.6m2.1-5.1L42 8.7l-2.9-1.4-5-2.8-5.7-2.9L25.9.3 8.4 9.4l-5 2.7 6.2 3.2 5.5 2.9 2.9 1.5 1.9 1 1.9 1 3 1.6 2 1 3.5 1.9-2.8 1.4v30.6l2.8-1.5V30.2m4.3 7.6-4.3-2.3m11.9 6.2-7.6-4m16 8.2-.1.1h.1m-8.4-4.3 8.3 4.3-20.2 10.7m20.3-6.8L27.5 62.3.3 48v-4l2.8 1.4-2.8-4.6V13.5l.2.1 2.9-1.5m24.1 46v4m-19.4-14 8.5 4.4 2.8 1.4 3.9 2 4.2 2.3M3.1 45.3 8 48" vector-effect="non-scaling-stroke"/><path fill="none" stroke="#ae915e" stroke-linecap="round" stroke-linejoin="round" stroke-width="__RESOLUTION__" d="m42 8.8.8 3.3v.5q.4 4.2-18 10.7m14.3-16Q30 20.8 23 20.4l-3 .3M34 4.5Q13.8 9.8 9.5 15.3M28.4 1.6q-11.2 9-20 7.8M30.9 12q-.8 2-11.2 4.3-6.1.7-3-1.3l.7-.4q18-8.3 16.2-6.4-1.9 1.8-2.7 3.8" vector-effect="non-scaling-stroke"/><path fill="none" stroke="#826c41" stroke-linecap="round" stroke-linejoin="round" stroke-width="__RESOLUTION__" d="M26.5 26h1M3 13.6l1.4.3" vector-effect="non-scaling-stroke"/><path fill="none" stroke="#705b38" stroke-linecap="round" stroke-linejoin="round" stroke-width="__RESOLUTION__" d="m16.6 52.5-2-6.2q-1.2-3.9-2.5-10.6-1.3-6.8.3-15.6v-.2h.1m-4.2-2.2q.1.4-.6 1.5l-1.3 2.4q-.5 1.3 1.9 8.7 2.3 7.5-.2 17.7m11.3 6q-.8-5.4 0-9.9 1.5-10.5 5.1-18m-3.9-2q-5.6 38-5.4-2.8m-14.9-1 3.1 8.5q1.1 9.9-.3 16.6m20.2 10.5q1.8-1.2 4.2-15.1" vector-effect="non-scaling-stroke"/><path fill="none" stroke="#5e4d2f" stroke-linecap="round" stroke-linejoin="round" stroke-width="__RESOLUTION__" d="m1.7 46.6.7 1m21.7 11 2.1.9" vector-effect="non-scaling-stroke"/><path fill="#817b52" d="m46.7 44.4.3-.2 3.4 1.7-20 10.5v-3.5l.5-.3 2.6.8-.1-2.1 4-2 2.6.8-.1-2.2 4.2-2.1 2.6.6z"/><path fill="#77724d" d="m30.9 52.6 2.5-1.3v2.1zm6.5-3.4 2.5-1.3V50zm6.7-3.5 2.5-1.4.1 2z"/><path fill="none" stroke="#413e29" stroke-linecap="round" stroke-linejoin="round" stroke-width="__RESOLUTION__" d="m50.4 45.9-20 10.5" vector-effect="non-scaling-stroke"/><path fill="#676343" d="M31.4 36.2v-6.5q.4 0 2.1-1v6.9l-1.2 1.1z"/><path fill="#b0ab84" d="m31.4 36.2.9.5 1.3-1.1v18.1l-1 .2-.9-.1-.2-.1z"/><path fill="none" stroke="#888257" stroke-linecap="round" stroke-linejoin="round" stroke-width="__RESOLUTION__" d="M33.6 35.6v-7m-2.1 25 .3.2.7.1 1.1-.2" vector-effect="non-scaling-stroke"/><path fill="none" stroke="#928c5f" stroke-linecap="round" stroke-linejoin="round" stroke-width="__RESOLUTION__" d="M33.6 53.7V35.6" vector-effect="non-scaling-stroke"/></g><clipPath id="a"><path d="M1 1h55v132H1z"/></clipPath></defs><g clip-path="url(#a)"><g transform="translate(25.5 119.45)"><use xlink:href="#b" width="53.4" height="62.5" transform="translate(-24.5 -49.05)"/><use xlink:href="#c" width="14.7" height="13.1" transform="translate(9.55 -15.9)"/><use xlink:href="#d" width="53.8" height="119.7" transform="translate(-24 -118.45)"/><use xlink:href="#c" width="14.7" height="13.1" transform="translate(6.75 -85.2)"/><use xlink:href="#e" width="47.8" height="116.7" transform="translate(-17.5 -109.6)"/></g></g></svg>