<svg xmlns="http://www.w3.org/2000/svg" xmlns:xlink="http://www.w3.org/1999/xlink" width="34" height="28" viewBox="0 0 34 28"><defs><clipPath id="a"><path d="M1 1h32v26H1z"/></clipPath><g id="b"><path fill="#000" fill-opacity=".3" d="M31.5 18.4 17.3 25l-5.7-.6 11.5-10.3z"/><path fill="#6b4549" d="M24.4 3.7V15q-1.8 1.6-3.1 2l-1.6.4q-.7 0-1.4.4l-.4.3-1.8.4-.2-.2-.3.2q-.6-.2-1.4 0-.8.8-2 .8v-7.8q1.9-2 2-2.7l1-.6.2-.3.2.1h.2q1-1.5 2.1-2l3.3-1 .3.2z"/><path fill="#6c523c" d="M24.4 15.1v1.8q-1.8.9-2.8.9l-1.9-.3 1.6-.4q1.3-.4 3.1-2m-12.1 4.4q1.1-.1 1.8-.9.9-.2 1.5 0-2.6 2.3-2.9 2.3h-.4zm3.8-1 1.8-.3q-.6.5-1.5.7z"/><path fill="#5c4532" d="M24.4 16.9v1.9q-1.2 1.1-2.7 1.3-2.1.4-4.4 2.3-2.5.3-4.7 2.5h-.3v-4h.4q.3 0 2.9-2.3l.3-.2.2.2.3.3q.9-.2 1.5-.7l.4-.3q.6-.4 1.4-.4l1.9.3q1 0 2.8-1"/><path fill="#7c5e45" d="M12.3 24.9q-1.9-1.6-3.5-1.8-4.5-1.6-8.3-4.2v-2q.5.2 1.2-.5l1 1.5q.7-1.3 1-1.3l.3.1.3.1L7.6 18q.3.1 1.3 1.3l.8.8.3.6q.5.1.8-.6l.9.3q-.2.4 0 .4h.7z"/><path fill="#8b694e" d="M.5 16.9v-1l1.2-.2 2 .8.4.1v.1l-.4-.1q-.3 0-1 1.3l-1-1.5q-.7.7-1.2.5m3.9-.2 2.2.3 3 2.1.6.5h1.3q.1-.2.6-.2h.2V21l-.7-.1q-.2 0 0-.4l-.8-.2q-.4.6-.9.6l-.3-.7-.7-.8Q7.7 18.1 7.4 18l-3-1.2z"/><path fill="#7f4d4b" d="M.5 15.9v-8l.7-.2L3 7q1.3-.7 1.5-1.2L10.8 9q.5 2 1.3 2.8h.2v7.8H12l-.7.1h-1.2l-.6-.5-3-2.1-2.2-.3-.3-.1-.4-.2-2-.6zm10.6-1.4-5.5-2.8v3.8l5.5 3z"/><path fill="#8d5754" d="M.5 7.9V6.7l1.3-2.4.9-1.5.2-.2.6-.3.3 3 .7.4q-.2.5-1.5 1.2l-1.8.8z"/><path fill="#955a57" d="M3.5 2.3h.2l.9-.5.8-.5 2.1-1 .8.2.5.2 1.3.3h.3l.5.2h.5l.9.2h2.4l2.2-.1L19 1l5.3 2.7-3 1.5-.2-.2-3.2 1.2q-1.1.4-2.1 1.9h-.2l-.2-.1-.2.3-1 .5-1 .2-1.4.1-.4-.2h-.6L4.4 5.7l-.6-.4z"/><path fill="#744745" d="M14.2 8.9q-.1.7-2 2.7v.1q-.8-.7-1.4-2.8h.6l.4.2 1.3-.1z"/><path fill="#a2ac46" d="M4.4 16.7v.1l-.4-.1.1-.1z"/><path fill="#925956" d="M11.1 14.4v4l-5.5-3v-3.8z"/><path fill="none" stroke="#000" stroke-linecap="round" stroke-linejoin="round" stroke-opacity=".3" stroke-width="1" d="m24.3 3.7.1-.1zv15.2m-23.9 0v-5.7m0-3.2V7m2.4-4.3.6-.3h.2m.9-.5.8-.5m3-.9.5.2m1.3.3h.2m4.4.4 2.2-.1L19 1l5.3 2.7"/><path fill="#8c5653" d="m9.4 24.9-1.2-1.1 1.3-1.4z"/><path fill="#6b4549" d="M9.5 22.4q.6.9 2.1 1.7l-2.2.8z"/></g></defs><g clip-path="url(#a)"><use xlink:href="#b" width="31.5" height="25.1" transform="translate(1 1)"/></g></svg>