<svg xmlns="http://www.w3.org/2000/svg" xmlns:xlink="http://www.w3.org/1999/xlink" width="715" height="188" viewBox="0 0 715 188"><defs><clipPath id="d"><path d="M1 1h101v186H1z"/></clipPath><clipPath id="m"><path d="M103 1h101v186H103z"/></clipPath><clipPath id="n"><path d="M205 1h101v186H205z"/></clipPath><clipPath id="o"><path d="M307 1h101v186H307z"/></clipPath><clipPath id="p"><path d="M409 1h101v186H409z"/></clipPath><clipPath id="q"><path d="M511 1h101v186H511z"/></clipPath><clipPath id="r"><path d="M613 1h101v186H613z"/></clipPath><g id="a"><path fill="#554d1e" d="m13.3.5 1.4.8Q11 10.6 8.4 22.1l-2.1-2.6q3.1-10.4 7-19"/><path fill="#a89f3e" d="m8.4 22.2-1.8 8.5q-1.1.7-1.8-1l-.5-3.2 2-7z"/><path fill="#615b23" d="M6.6 30.7q-1.4 7.6-2.4 16-1 1.6-2.4-.2Q.4 45.8.5 43q1.9-9.1 3.8-16.4l.5 3.1q.7 1.8 1.8 1.1m-2.7.6-.1-.4z"/><path fill="none" stroke="#000" stroke-linecap="round" stroke-linejoin="round" stroke-width="1" d="m13.3.5 1.4.8"/><path fill="none" stroke="#312c11" stroke-linecap="round" stroke-linejoin="round" stroke-width="1" d="M14.7 1.3Q11 10.6 8.4 22.1l-1.8 8.6q-1.4 7.6-2.4 16m2.4-16q-1.1.7-1.8-1l-.5-3.2"/><path fill="none" stroke="#554d1e" stroke-linecap="round" stroke-linejoin="round" stroke-width="1" d="M4.2 46.7q-1 1.6-2.4-.2Q.4 45.8.5 43q1.9-9.1 3.8-16.4l2-7q3.1-10.4 7-19"/><path fill="none" stroke="#f4fbc6" stroke-linecap="round" stroke-linejoin="round" stroke-width="1" d="m3.8 30.9.1.4"/></g><g id="b"><path fill="#978f37" d="m6.8 5.7-.6-.9zm2.6-1.4q-1.2 9.3-1.7 19.6-1 1.8-3-1.1-1.6-1.4-2-4 1.4-10 3-18.3l2.5.2q1.5 1.4 1.2 3.6"/><path fill="#78722c" d="M7.8 23.9q-.5 9.5-.6 19.9-1.8.9-3.7-.8-3-2-3-5.4l.1-1 2.1-17.8q.4 2.6 2 4 2 2.9 3 1m-3.9-.1-.6-.9z"/><path fill="none" stroke="#f4fbc6" stroke-linecap="round" stroke-linejoin="round" stroke-width="1" d="m6.2 4.8.6.9M3.2 22.8l.6.9"/><path fill="none" stroke="#312c11" stroke-linecap="round" stroke-linejoin="round" stroke-width="1" d="M9.4 4.3q-1.2 9.3-1.7 19.6-.5 9.5-.5 19.9"/><path fill="none" stroke="#554d1e" stroke-linecap="round" stroke-linejoin="round" stroke-width="1" d="M7.2 43.8q-1.8.9-3.7-.8-3-2-3-5.4m.1-1 2.1-17.8q1.4-10 3-18.3m-3 18.3q.4 2.6 2 4 2 2.9 3 1"/></g><g id="c"><path fill="#a89f3e" d="M9.4 6.6q0 10.6.3 21.9-.6 3.7-5.3-1.3-2.9-3.9-3.2-7l.2-2.8L2.8.5q1.5-.7 4 1.4 2.3 1.7 2.6 4.7m-5-.1-.6-1z"/><path fill="#948534" d="m9.7 28.5.4 11.6q.2 4.8-4.7 3.9L4 43.6q-3-1-3.6-3.5l.8-19.9q.2 3.1 3 7 4.8 5 5.4 1.3M3 27.7l-.7-1zm2.9 14.9Q3.2 40.4 2 40.2q1.2.1 3.8 2.4"/><path fill="none" stroke="#312c11" stroke-linecap="round" stroke-linejoin="round" stroke-width="1" d="M9.4 6.6q0 10.6.3 21.9l.4 11.6q.2 4.8-4.7 3.9L4 43.6q-3-1-3.6-3.5"/><path fill="none" stroke="#554d1e" stroke-linecap="round" stroke-linejoin="round" stroke-width="1" d="m.5 40.2.8-20 .1-2.8L2.8.5m6.9 28q-.6 3.7-5.3-1.3-2.9-3.9-3.2-7"/><path fill="none" stroke="#f4fbc6" stroke-linecap="round" stroke-linejoin="round" stroke-width="1" d="m3.9 5.6.6.9M2.3 26.8l.6.9"/><path fill="none" stroke="#312c11" stroke-linecap="round" stroke-linejoin="round" stroke-width="1" d="M2 40.2q1.2.1 3.8 2.4"/></g><g id="l"><path fill="#a7c53e" d="M9.9 9q1.6-6 6.4-8.5l5.2 3.6q-4.9 3.4-6 8.8 4.8-4 9.6-5.4l1.4 3.6-3.4 3.3 4.4 1.3q.3 3.2-.4 6.2-1 6.5-3.1 12l-2.6-2.4-.2-.2q-.1-4.7-1.4-10-2.7-5.8-6.8-7.6zm11.5 3.8-1-2.2zm-5.9-6-2.4-1.4z"/><path fill="#7c8f2c" d="M24 33.9q-1.5 3.5-3.4 6.6-2.1-9.1-6.8-14.4l3.2-2.6-6.7.2q-.8-1.4-2.6-2.4-1.6-9.7-7.2-10 4.6-1.2 8.8.9L9.9 9l3.1 4.7q4.1 1.8 6.8 7.7 1.3 5.3 1.4 9.9l.2.2zM10.5 12.3l-1.2-.1z"/><path fill="none" stroke="#5a691b" stroke-linecap="round" stroke-linejoin="round" stroke-width="1" d="M9.9 9q1.6-6 6.4-8.5l5.2 3.6q-4.9 3.4-6 8.8m9.6-5.4 1.4 3.6-3.4 3.3m4.4 1.3q.3 3.2-.4 6.2-1 6.5-3.1 12M13 13.7q4.1 1.8 6.8 7.7 1.3 5.3 1.4 9.9l.2.2"/><path fill="none" stroke="#424d13" stroke-linecap="round" stroke-linejoin="round" stroke-width="1" d="M24 33.9q-1.5 3.5-3.4 6.6-2.1-9.1-6.8-14.4m3.2-2.6-6.7.2q-.8-1.4-2.6-2.4-1.6-9.7-7.2-10 4.6-1.2 8.8.9"/><path fill="none" stroke="#50441d" stroke-linecap="round" stroke-linejoin="round" stroke-width="1" d="M9.3 12.2 9.9 9m-.7 3.2h1.3"/><path fill="none" stroke="#fbffaa" stroke-linecap="round" stroke-linejoin="round" stroke-width="1" d="m20.4 10.6 1 2.2m-8.3-7.4 2.4 1.4"/></g><g id="k"><path fill="#a7c53e" d="M9.1 14.2Q14.3 8.7 11.3.5q3.4 1.4 5.9 3.1 1.4 4.9-2 10.5 4.2-2.1 6.2-6.6l.7.9q4.8 6.9 5.6 16.2h-3.5l-.7-2.5-2.1-3-5.3-3.6-4.8-1.9zm12-.4-1.4-1.5zm-7.6-5.7h1.9zm11 12-2-4z"/><path fill="#7c8f2c" d="M27.7 24.6q.2 2.8 0 6l-8.5-5.1 4.3-3.4.7 2.5zm-6.3-5.5-6 4.4q-2.2-1.9-5.1-3Q6.5 18 1 18.3l8.1-4.1 2.2-.6 4.8 2z"/><path fill="#364521" d="M10.3 20.5q-4.9 1.1-6.6 7.9Q-.8 24.5 1 18.3q5.5-.3 9.3 2.2"/><path fill="none" stroke="#5a691b" stroke-linecap="round" stroke-linejoin="round" stroke-width="1" d="M9.1 14.2Q14.3 8.7 11.3.5q3.4 1.4 5.9 3.1 1.4 4.9-2 10.5m6.2-6.6.7.9q4.8 6.9 5.6 16.2.2 2.8 0 6l-8.5-5.1m4.3-3.4-2.1-3-6 4.4q-2.2-1.9-5.1-3Q6.5 18 1 18.3q-1.8 6.2 2.7 10M1 18.4l8.1-4.1m2.2-.6 4.8 2 5.3 3.5m2.8 5.5-.7-2.5"/><path fill="none" stroke="#fbffaa" stroke-linecap="round" stroke-linejoin="round" stroke-width="1" d="m19.8 12.3 1.3 1.5m-5.7-5.7h-2m9 8 2 4"/></g><g id="j"><path fill="#8aa02e" d="M17.3 6q2.6-1.8 1-5.5l3 .6.8.3q3.8 2.5 1 6.5l-5.7-.8-4.3.5-.7-5.8 1.4-.6q3.9 1.4 3.4 4.8m5.9 1.9q2.8-4-1-6.5 7.3 2.5 7.5 7.4H27z"/><path fill="#a7c53e" d="m12.4 1.8.7 5.8q-3.5.7-5.7 2.5L5 7.6q2.8-4 7.3-5.8m-5 8.3Q9.6 8.3 13 7.6l1 8-1.3.8z"/><path fill="#7c8f2c" d="m13 7.6 4.4-.5 5.7.8 4 1h.3l2.2-.2q0 .4 3 1.3 4 .5.1 5.4-1.7-3.7-5.2-5.6v-.1Q21 6.3 14 15.6zm-.3 8.8Q2.8 14.7.4 19.1q.6-4 2.7-8.1Q4 9.1 5 7.6L7.4 10z"/><path fill="#364521" d="M27.6 9.8q3.4 1.9 5.1 5.6l-5.2 2.3q2.4-3.2 0-8"/><path fill="none" stroke="#424d13" stroke-linecap="round" stroke-linejoin="round" stroke-width="1" d="M17.3 6q.4-3.4-3.5-4.8l-1.5.6m9.8-.4-.7-.3-3.1-.6m-5.6 15.9Q2.8 14.7.6 19.1q.6-4 2.7-8.1Q4 9.1 5 7.6m9 8q7-9.3 13.4-5.9m0 0q3.5 2 5.3 5.7 3.9-4.9-.1-5.4-3.2-.9-3.2-1.2-.1-5-7.4-7.4m-8 14.2 2-.4"/><path fill="none" stroke="#5b691d" stroke-linecap="round" stroke-linejoin="round" stroke-width="1" d="m13 7.6 4.4-.5 5.7.8q2.8-4-1-6.5m5.3 8.3h.2m-.2-.8h-.3l-4-1"/><path fill="none" stroke="#6f7825" stroke-linecap="round" stroke-linejoin="round" stroke-width="1" d="M5.1 7.6q2.8-4 7.3-5.8m-5 8.3Q9.6 8.3 13 7.6m1 8-1.3.8"/></g><g id="f"><path fill="#766d3f" d="M11 2.8q1.6 1.8 1.8 4.4t-1.6 4.7Q9.5 13.8 7 13.8t-4.4-2Q1 10.3.6 8.3l.3.3q1.9 2 4.4 2t4.3-2q1.6-2 1.5-4.7z"/><path fill="#9e9354" d="m.6 8.2-.1-1Q.3 4.4 2 2.5t4.3-2 4.4 2l.3.3v1q.2 2.8-1.4 4.7-1.7 2-4.3 2t-4.4-2zm1.2-2q1.7-.2.7-1.8 1 1.5-.7 1.8m3 2.4q1 .5 2.1-1.4-1 1.9-2 1.4m1.7-4.7q.9-1.2-.1-2 1 .8 0 2"/><path fill="none" stroke="#2f2b1a" stroke-linecap="round" stroke-linejoin="round" stroke-width="1" d="M11 2.8q1.6 1.8 1.8 4.4t-1.6 4.7Q9.5 13.8 7 13.8t-4.4-2Q1 10.3.6 8.3"/><path fill="none" stroke="#474225" stroke-linecap="round" stroke-linejoin="round" stroke-width="1" d="m.6 8.2-.1-1Q.3 4.4 2 2.5t4.3-2 4.4 2l.3.3"/><path fill="none" stroke="#57532d" stroke-linecap="round" stroke-linejoin="round" stroke-width="1" d="M2.5 4.4q1 1.5-.7 1.8m5.1 1q-1 1.9-2 1.4M6.4 2q1.1.7.2 1.9"/></g><use xlink:href="#a" id="i" width="15.2" height="48"/><use xlink:href="#b" id="h" width="9.9" height="44.6"/><use xlink:href="#c" id="g" width="10.6" height="44.6"/><path id="e" fill="#0b0601" fill-opacity=".3" d="M-.8-2.5q3.5 0 5.9 1Q7.6-.4 7.6 1.1T5 3.7q-2.4 1-5.9 1-3.4 0-6-1Q-9.1 2.6-9.1 1t2.4-2.6q2.6-1 6-1" transform="translate(9.15 2.55)"/></defs><g clip-path="url(#d)"><g transform="translate(42.4 179.6)"><use xlink:href="#e" width="16.7" height="7.3" transform="matrix(.8084 0 0 .8082 -7.15 -.75)"/><use xlink:href="#f" width="13.3" height="14.3" transform="translate(11.2 -102.75)scale(.6792)"/><use xlink:href="#f" width="13.3" height="14.3" transform="matrix(-.4966 0 0 .4581 -8.65 -78.55)"/><use xlink:href="#g" width="10.6" height="44.6" transform="matrix(-.594 0 0 .5479 2.8 -30.7)"/><use xlink:href="#h" width="9.9" height="44.6" transform="matrix(-.594 0 0 .5479 1.55 -51.25)"/><use xlink:href="#i" width="15.2" height="48" transform="matrix(-.594 0 0 .5479 -1.6 -74.8)"/><use xlink:href="#f" width="13.3" height="14.3" transform="matrix(-.594 0 0 .5479 -7.1 -74.85)"/><use xlink:href="#j" width="35.2" height="19.6" transform="matrix(-.594 0 0 .5479 -11.25 -90.3)"/><use xlink:href="#k" width="28.3" height="31.1" transform="matrix(-.594 0 0 .5479 5.8 -95.9)"/><use xlink:href="#l" width="28.1" height="41" transform="matrix(-.594 0 0 .5479 -6.4 -85.05)"/><use xlink:href="#g" width="10.6" height="44.6" transform="translate(-4.45 -31.9)scale(.8124)"/><use xlink:href="#h" width="9.9" height="44.6" transform="translate(-2.65 -62.35)scale(.8124)"/><use xlink:href="#i" width="15.2" height="48" transform="translate(1.65 -97.25)scale(.8124)"/><use xlink:href="#f" width="13.3" height="14.3" transform="translate(9.1 -97.3)scale(.8124)"/><use xlink:href="#j" width="35.2" height="19.6" transform="translate(14.75 -120.2)scale(.8124)"/><use xlink:href="#k" width="28.3" height="31.1" transform="translate(-8.6 -128.5)scale(.8124)"/><use xlink:href="#l" width="28.1" height="41" transform="translate(8.15 -112.4)scale(.8124)"/></g></g><g clip-path="url(#m)"><g transform="translate(144.4 179.6)"><use xlink:href="#e" width="16.7" height="7.3" transform="matrix(.9431 0 0 .9384 -8.6 -2)"/><use xlink:href="#f" width="13.3" height="14.3" transform="translate(13.35 -129.15)scale(.8422)"/><use xlink:href="#g" width="10.6" height="44.6" transform="translate(-6 -41.3)scale(1.0073)"/><use xlink:href="#h" width="9.9" height="44.6" transform="translate(-3.85 -79.05)scale(1.0073)"/><use xlink:href="#i" width="15.2" height="48" transform="translate(1.55 -122.4)scale(1.0073)"/><use xlink:href="#f" width="13.3" height="14.3" transform="translate(10.8 -122.45)scale(1.0073)"/><use xlink:href="#j" width="35.2" height="19.6" transform="translate(17.75 -150.8)scale(1.0073)"/><use xlink:href="#k" width="28.3" height="31.1" transform="translate(-11.1 -161.1)scale(1.0073)"/><use xlink:href="#l" width="28.1" height="41" transform="translate(9.55 -141.15)scale(1.0073)"/><use xlink:href="#f" width="13.3" height="14.3" transform="matrix(-.6381 0 0 .5027 -11.15 -98.75)"/><use xlink:href="#g" width="10.6" height="44.6" transform="matrix(-.7632 0 0 .6012 3.5 -46.25)"/><use xlink:href="#h" width="9.9" height="44.6" transform="matrix(-.7632 0 0 .6012 1.85 -68.8)"/><use xlink:href="#i" width="15.2" height="48" transform="matrix(-.7632 0 0 .6012 -2.2 -94.65)"/><use xlink:href="#f" width="13.3" height="14.3" transform="matrix(-.7632 0 0 .6012 -9.2 -94.7)"/><use xlink:href="#j" width="35.2" height="19.6" transform="matrix(-.7632 0 0 .6012 -14.5 -111.65)"/><use xlink:href="#k" width="28.3" height="31.1" transform="matrix(-.7632 0 0 .6012 7.4 -117.85)"/><use xlink:href="#l" width="28.1" height="41" transform="matrix(-.7632 0 0 .6012 -8.3 -105.85)"/></g></g><g clip-path="url(#n)"><g transform="translate(246.4 179.6)"><use xlink:href="#e" width="16.7" height="7.3" transform="matrix(.8084 0 0 .8082 -7.05 1.4)"/><use xlink:href="#f" width="13.3" height="14.3" transform="matrix(.7224 0 0 .7654 11.9 -114.1)"/><use xlink:href="#g" width="10.6" height="44.6" transform="matrix(.864 0 0 .9155 -4.65 -34.3)"/><use xlink:href="#h" width="9.9" height="44.6" transform="matrix(.864 0 0 .9155 -2.85 -68.6)"/><use xlink:href="#i" width="15.2" height="48" transform="matrix(.864 0 0 .9155 1.75 -108)"/><use xlink:href="#f" width="13.3" height="14.3" transform="matrix(.864 0 0 .9155 9.7 -108)"/><use xlink:href="#j" width="35.2" height="19.6" transform="matrix(.864 0 0 .9155 15.7 -133.8)"/><use xlink:href="#k" width="28.3" height="31.1" transform="matrix(.864 0 0 .9155 -9.1 -143.15)"/><use xlink:href="#l" width="28.1" height="41" transform="matrix(.864 0 0 .9155 8.7 -125)"/></g></g><g clip-path="url(#o)"><g transform="translate(348.4 179.6)"><use xlink:href="#e" width="16.7" height="7.3" transform="translate(-7.7 -4.35)"/><use xlink:href="#f" width="13.3" height="14.3" transform="translate(15.6 -143.6)scale(.9219)"/><use xlink:href="#g" width="10.6" height="44.6" transform="translate(-5.6 -47.4)scale(1.1027)"/><use xlink:href="#h" width="9.9" height="44.6" transform="translate(-3.25 -88.75)scale(1.1027)"/><use xlink:href="#i" width="15.2" height="48" transform="translate(2.65 -136.15)scale(1.1027)"/><use xlink:href="#f" width="13.3" height="14.3" transform="translate(12.8 -136.2)scale(1.1027)"/><use xlink:href="#j" width="35.2" height="19.6" transform="translate(20.5 -167.2)scale(1.1027)"/><use xlink:href="#k" width="28.3" height="31.1" transform="translate(-11.15 -178.6)scale(1.1027)"/><use xlink:href="#l" width="28.1" height="41" transform="translate(11.5 -156.65)scale(1.1027)"/></g></g><g clip-path="url(#p)"><g transform="translate(450.4 179.6)"><use xlink:href="#e" width="16.7" height="7.3" transform="matrix(.8084 0 0 .8082 -6.05 .2)"/><use xlink:href="#f" width="13.3" height="14.3" transform="translate(11.15 -97.1)scale(.6487)"/><use xlink:href="#g" width="10.6" height="44.6" transform="translate(-3.75 -29.35)scale(.7759)"/><use xlink:href="#h" width="9.9" height="44.6" transform="translate(-2.1 -58.45)scale(.7759)"/><use xlink:href="#i" width="15.2" height="48" transform="translate(2.05 -91.85)scale(.7759)"/><use xlink:href="#f" width="13.3" height="14.3" transform="translate(9.2 -91.85)scale(.7759)"/><use xlink:href="#j" width="35.2" height="19.6" transform="translate(14.55 -113.7)scale(.7759)"/><use xlink:href="#k" width="28.3" height="31.1" transform="translate(-7.7 -121.65)scale(.7759)"/><use xlink:href="#l" width="28.1" height="41" transform="translate(8.25 -106.25)scale(.7759)"/></g></g><g clip-path="url(#q)"><g transform="translate(552.4 179.6)"><use xlink:href="#e" width="16.7" height="7.3" transform="matrix(.8084 0 0 .8082 -4.65 -1.3)"/><use xlink:href="#f" width="13.3" height="14.3" transform="matrix(.5146 0 0 .5344 10.65 -80.8)"/><use xlink:href="#g" width="10.6" height="44.6" transform="matrix(.6155 0 0 .6392 -1.25 -25)"/><use xlink:href="#h" width="9.9" height="44.6" transform="matrix(.6155 0 0 .6392 .05 -49)"/><use xlink:href="#i" width="15.2" height="48" transform="matrix(.6155 0 0 .6392 3.3 -76.5)"/><use xlink:href="#f" width="13.3" height="14.3" transform="matrix(.6155 0 0 .6392 9 -76.5)"/><use xlink:href="#j" width="35.2" height="19.6" transform="matrix(.6155 0 0 .6392 13.3 -94.5)"/><use xlink:href="#k" width="28.3" height="31.1" transform="matrix(.6155 0 0 .6392 -4.4 -101.1)"/><use xlink:href="#l" width="28.1" height="41" transform="matrix(.6155 0 0 .6392 8.3 -88.35)"/></g></g><g clip-path="url(#r)"><g transform="translate(654.4 179.6)"><use xlink:href="#e" width="16.7" height="7.3" transform="translate(-9.15 -2.55)"/><use xlink:href="#f" width="13.3" height="14.3" transform="translate(12.55 -128.7)scale(.8391)"/><use xlink:href="#g" width="10.6" height="44.6" transform="translate(-6.65 -41.15)scale(1.0037)"/><use xlink:href="#h" width="9.9" height="44.6" transform="translate(-4.5 -78.8)scale(1.0037)"/><use xlink:href="#i" width="15.2" height="48" transform="translate(.8 -121.95)scale(1.0037)"/><use xlink:href="#f" width="13.3" height="14.3" transform="translate(10 -122)scale(1.0037)"/><use xlink:href="#j" width="35.2" height="19.6" transform="translate(17 -150.2)scale(1.0037)"/><use xlink:href="#k" width="28.3" height="31.1" transform="translate(-11.85 -160.5)scale(1.0037)"/><use xlink:href="#l" width="28.1" height="41" transform="translate(8.85 -140.6)scale(1.0037)"/></g></g></svg>