<svg xmlns="http://www.w3.org/2000/svg" xmlns:xlink="http://www.w3.org/1999/xlink" width="102" height="110" viewBox="0 0 102 110"><defs><g id="x"><path fill="#464d14" d="M.5 6.6Q35.1-7.1 61.3 9.8 19.4 2 .5 6.5"/><path fill="none" stroke="#0e0f06" stroke-linecap="round" stroke-linejoin="round" stroke-opacity=".3" stroke-width="1" d="M.5 6.6Q19.4 2 61.3 9.8 35-7 .5 6.5"/></g><g id="w"><path fill="url(#a)" d="M-8 13.4Q-1.3-.7-.5 1.3q5.2.5 4 14.9T-12 59.8q-3-32.4 4-46.4" transform="translate(13.35 -.55)"/><path fill="none" stroke="#1e200d" stroke-linecap="round" stroke-linejoin="round" stroke-opacity=".3" stroke-width="1" d="M5.3 12.8q-6.8 14-3.9 46.5Q15.8 30 17 15.7T12.9.6q-.7-2-7.6 12.1"/></g><g id="v"><path fill="#505e1b" d="M39 1Q32.6.7 27.8 9.4L26.3 12l-4 6.7Q13.5 33.5.9 50.7q-1.5-18 5.2-30 1.8-3.2 4.2-6l3-3.2Q28-1.8 39 1"/><path fill="none" stroke="#1e200d" stroke-linecap="round" stroke-linejoin="round" stroke-opacity=".3" stroke-width="1" d="M39 1Q28-1.8 13.3 11.5l-3.1 3.2q-2.4 2.8-4.2 6-6.7 12-5.2 30 12.6-17.2 21.6-31.9l3.9-6.7 1.5-2.7Q32.6.7 39 .8"/></g><g id="u"><path fill="#333b12" d="M48.1.5q6.8 2 17.2.6L58.6 3l-.6.2Q35.8 11.3.5 41.8 26 6.1 48.1.5"/><path fill="#1a270d" d="M65.3 1q7.2.7 21 12.3Q64 1.6 58.6 3z"/><path fill="none" stroke="#17190a" stroke-linecap="round" stroke-linejoin="round" stroke-opacity=".3" stroke-width="1" d="M48.1.5q6.8 2 17.2.6"/><path fill="none" stroke="#17190a" stroke-linecap="round" stroke-linejoin="round" stroke-opacity=".3" stroke-width="1" d="M65.3 1q7.2.7 21 12.3Q64 1.6 58.6 3l-.6.2Q35.8 11.3.5 41.8 26 6.1 48.1.5m17.2.6L58.6 3"/></g><g id="t"><path fill="url(#b)" d="M-8 13.4Q-1.3-.7-.5 1.3q5.2.5 4 14.9T-12 59.8q-3-32.4 4-46.4" transform="translate(13.35 -.55)"/><path fill="none" stroke="#141509" stroke-linecap="round" stroke-linejoin="round" stroke-opacity=".3" stroke-width="1" d="M5.3 12.8q-6.8 14-3.9 46.5Q15.8 30 17 15.7T12.9.6q-.7-2-7.6 12.1"/></g><g id="s"><path fill="#242a0d" d="M48.1.5q6.8 2 17.2.6L58.6 3l-.6.2Q35.8 11.3.5 41.8 26 6.1 48.1.5"/><path fill="#131c0a" d="M65.3 1q7.2.7 21 12.3Q64 1.6 58.6 3z"/><path fill="none" stroke="#111207" stroke-linecap="round" stroke-linejoin="round" stroke-opacity=".3" stroke-width="1" d="M48.1.5q6.8 2 17.2.6"/><path fill="none" stroke="#111207" stroke-linecap="round" stroke-linejoin="round" stroke-opacity=".3" stroke-width="1" d="M65.3 1q7.2.7 21 12.3Q64 1.6 58.6 3l-.6.2Q35.8 11.3.5 41.8 26 6.1 48.1.5m17.2.6L58.6 3"/></g><g id="r"><path fill="#746633" d="M1.3 7.9q1.5-11 1.7-6 1.1-4.1.7 5.8t.1 18.8l.5 4.9v.6l.8 1.5-.5 1.4-1 .7z"/><path fill="#8f8160" d="m1.3 7.9 2.4 27.7-.8.5-1.7-.4H1l-.7-1.9.5-1.6-.2-2.8q-.7-12.1 0-18z"/><path fill="none" stroke="#000" stroke-linecap="round" stroke-linejoin="round" stroke-opacity=".3" stroke-width="__RESOLUTION__" d="m3.7 35.6.9-.7h0l.5-1.4-.8-1.5v-.6l-.4-4.9q-.7-9-.2-18.8T3 1.9q-.2-5-1.7 6l-.5 3.4q-.8 6-.1 18.1l.2 2.8-.5 1.6.7 1.9h0l1.8.4z" vector-effect="non-scaling-stroke"/></g><g id="q"><path fill="#746633" d="m3.5 13.7.9-.7.6 6.2q.8 5.7 3.2 15.1l-.2.8-1.2.6q-1.1.3-1.4-.2z"/><path fill="#8f8160" d="M5.4 35.5Q2.9 37 2.1 32.4v-1L1 13.9.4.3l3.1 13.3z"/><path fill="none" stroke="#000" stroke-linecap="round" stroke-linejoin="round" stroke-opacity=".3" stroke-width="__RESOLUTION__" d="m4.4 13 .6 6.2q.8 5.7 3.2 15.1l.4-4.2-.2 5.3-.2-1.1-.2.8-1.2.6q-1.1.3-1.4-.2-2.5 1.6-3.3-3.1v-1l-1 2.2.4 2.1 1.9 1.1m-1.3-5.3L1 13.8.4.3l3.1 13.3" vector-effect="non-scaling-stroke"/></g><g id="p"><path fill="#e4d59a" d="M5.3 1.5 5 1.3zL5 1.3h.3zm-.6 5-.2 1.8-.1-2h.1z"/><path fill="#cab96f" d="m5 1.3.3.2.3.3.2.1 1.1 1.2q.8 1 1 2.3l.1.8-.1.1-1.2 1-.2-.1-1.7-.7h-.1L5 6l1.2.3.3-.1.4-.7-.2-.9-.5-.7-1-1.1-.5-.4V1.1zM4 5.4l-.5.6-.7-.7-1.6-2.7-.3-.4V2l.1-.6.3-.6q.2-.4.7-.5h.3l.9.4.1 1.1h-.5q-.8 0-.8.8 0 .7.8 1.7l.8.8z"/><path fill="#6d6735" d="m4.7 2.4.5.4-.7 3h-.1l-.5-.4-.4-.3-.7-.8Q2 3.3 2 2.6q0-.8.8-.8h.6l.2 2z"/><path fill="#79713a" d="m5.2 2.8 1 1 .5.8.2.9-.4.7-.3.1L5 6h-.2l-.3-.2z"/><path fill="#9b8e47" d="m5 6-.2.4-.1.1-.2-.1h-.1v2h.1l-.8 5.8-.2-5.3L3.3 20l-3-1.6q1.7-7.8.8-15.7l1.7 2.6.7.6V6l.5-.6.4.3.1.1.3.1zm1.5 1.2.3.1 1.1-1q-.2 5.5.7 10.9 0 1-.4 1.7l-1 .6Q6 13.3 6.6 7.2m-.2 12.7-1.1.2L6 7.7z"/><path fill="#877e46" d="m4.7 6.5 1.8.7q-.5 6.1.8 12.3l-1 .4L6 7.7l-.8 12.4h-2l.3-11.3.2 5.4.8-5.8z"/><path fill="#e8d89e" d="M3.6 6h-.1"/><path fill="none" stroke="#141810" stroke-linecap="round" stroke-linejoin="round" stroke-opacity=".3" stroke-width="__RESOLUTION__" d="M5.3 1.5 5 1.3l-.2-.2-.1 1.3-1.1 1.4-.2-2L3.2.7l-1-.4H2q-.5.1-.7.5l-.3.6V2l-.1.2m7.1 4-.1-.8q-.2-1.3-1-2.3L5.7 1.9l-.2-.1-.2-.3M1.2 2.7q.8 8-.9 15.9m8.3-1.3q-.9-5.4-.7-10.8" vector-effect="non-scaling-stroke"/><path fill="none" stroke="#141810" stroke-linecap="round" stroke-linejoin="round" stroke-opacity=".3" stroke-width="__RESOLUTION__" d="m4.7 2.4.5.4 1 1 .5.8.2.9-.4.7-.3.1L5 6h-.2l-.3-.2h-.1l-.5-.4-.4-.3-.7-.8Q2 3.3 2 2.6q0-.8.8-.8h.6" vector-effect="non-scaling-stroke"/></g><g id="o"><path fill="#755e2b" d="m4.6 1.4 1.9.5q.8.4.8 1t-.8 1-1.9.4L2.7 4q-.8-.4-.8-1t.8-1zm2.6 3.1v1.1l-1-.3h-.9l-1 .1-.7 1.2-.1-1.2-1.2.1H2l-1.1-1-.3-1.4 2.1 1.7.8.4V5z"/><path fill="#897031" d="M4.6 1.4 2.7 2q-.8.4-.8 1t.8 1l1.9.4q1.1 0 1.9-.4t.8-1-.8-1zm4 1.5L7.2 4.5 3.5 5l-.8-.2-2-1.7V3Q.8 1.6 2 1q1.9-1 4-.5 2.4.3 2.6 2.4"/><path fill="#927f3c" d="M7.2 5.6V4.5l1.4-1.6q-1.5 9.3 0 18.4 0 1-.4 1.6l-1 .7q-1.7-9.1 0-18M.8 4.5l1.2 1h.3l1.2-.1.1 1.2-.4 17.6-2.9-1.7q1.5-6.7 1-13.4L1 6z"/><path fill="#8c7839" d="M7.2 5.6q-1.7 8.9 0 18l-.9.3-.3-12-.8 12.4h-2l.4-17.5.7-1.3.2 7.1.8-7.1.9-.2z"/><path fill="#e0cc96" d="M3.5 5v.2l-.8-.4z"/><path fill="#7b6633" d="M4.3 5.4h1l-.8 7.1zm2 18.5-1.1.2.8-12.4z"/><path fill="none" stroke="#000" stroke-linecap="round" stroke-linejoin="round" stroke-opacity=".3" stroke-width="__RESOLUTION__" d="M4.6 1.4 2.7 2q-.8.4-.8 1t.8 1l1.9.4q1.1 0 1.9-.4t.8-1-.8-1zM2 5.4l.3.1" vector-effect="non-scaling-stroke"/><path fill="none" stroke="#000" stroke-linecap="round" stroke-linejoin="round" stroke-opacity=".3" stroke-width="__RESOLUTION__" d="M8.6 21.3Q7.1 12.2 8.6 3 8.4.7 6 .4 3.9 0 2 1 .8 1.6.7 3v0l.2 1.4L1 6l.4 3.1q.4 6.7-1 13.4" vector-effect="non-scaling-stroke"/></g><g id="n"><path fill="#695426" d="m4.6 1.4 1.9.5q.8.4.8 1t-.8 1-1.9.4L2.7 4q-.8-.4-.8-1t.8-1zm2.6 3.1v1.1l-1-.3h-.9l-1 .1-.7 1.2-.1-1.2-1.2.1H2l-1.1-1-.3-1.4 2.1 1.7.8.4V5z"/><path fill="#7b642c" d="M4.6 1.4 2.7 2q-.8.4-.8 1t.8 1l1.9.4q1.1 0 1.9-.4t.8-1-.8-1zm4 1.5L7.2 4.5 3.5 5l-.8-.2-2-1.7V3Q.8 1.6 2 1q1.9-1 4-.5 2.4.3 2.6 2.4"/><path fill="#837235" d="M7.2 5.6V4.5l1.4-1.6q-1.5 9.3 0 18.4 0 1-.4 1.6l-1 .7q-1.7-9.1 0-18M.8 4.5l1.2 1h.3l1.2-.1.1 1.2-.4 17.6-2.9-1.7q1.5-6.7 1-13.4L1 6z"/><path fill="#7d6b33" d="M7.2 5.6q-1.7 8.9 0 18l-.9.3-.3-12-.8 12.4h-2l.4-17.5.7-1.3.2 7.1.8-7.1.9-.2z"/><path fill="#c9b786" d="M3.5 5v.2l-.8-.4z"/><path fill="#6f5b2d" d="M4.3 5.4h1l-.8 7.1zm2 18.5-1.1.2.8-12.4z"/><path fill="none" stroke="#000" stroke-linecap="round" stroke-linejoin="round" stroke-opacity=".3" stroke-width="__RESOLUTION__" d="M4.6 1.4 2.7 2q-.8.4-.8 1t.8 1l1.9.4q1.1 0 1.9-.4t.8-1-.8-1zM2 5.4l.3.1" vector-effect="non-scaling-stroke"/><path fill="none" stroke="#000" stroke-linecap="round" stroke-linejoin="round" stroke-opacity=".3" stroke-width="__RESOLUTION__" d="M8.6 21.3Q7.1 12.2 8.6 3 8.4.7 6 .4 3.9 0 2 1 .8 1.6.7 3v0l.2 1.4L1 6l.4 3.1q.4 6.7-1 13.4" vector-effect="non-scaling-stroke"/></g><g id="m"><path fill="#807139" d="m3.5 13.7.9-.7.6 6.2q.8 5.7 3.2 15.1l-.2.8-1.2.6q-1.1.3-1.4-.2z"/><path fill="#9e8f6a" d="M5.4 35.5Q2.9 37 2.1 32.4v-1L1 13.9.4.3l3.1 13.3z"/><path fill="none" stroke="#000" stroke-linecap="round" stroke-linejoin="round" stroke-opacity=".3" stroke-width="__RESOLUTION__" d="m4.4 13 .6 6.2q.8 5.7 3.2 15.1l.4-4.2-.2 5.3-.2-1.1-.2.8-1.2.6q-1.1.3-1.4-.2-2.5 1.6-3.3-3.1v-1l-1 2.2.4 2.1 1.9 1.1m-1.3-5.3L1 13.8.4.3l3.1 13.3" vector-effect="non-scaling-stroke"/></g><g id="i"><path fill="#505e1b" d="M.5 5.7q45.3-17.1 65.6 22.5Q29.8.4.5 5.7"/><path fill="none" stroke="#1e200d" stroke-linecap="round" stroke-linejoin="round" stroke-opacity=".3" stroke-width="1" d="M.5 5.7Q29.8.4 66.1 28.2 45.9-11.4.5 5.7"/></g><g id="h"><path fill="#2a310f" d="M.5 4.2Q41.3-7.4 65.1 17.7 26.1 3.2.5 4.2"/><path fill="none" stroke="#131408" stroke-linecap="round" stroke-linejoin="round" stroke-opacity=".3" stroke-width="1" d="M.5 4.2q25.6-1 64.6 13.5Q41.3-7.4.5 4.2"/></g><g id="g"><path fill="#384113" d="M.5 5.7q45.3-17.1 65.6 22.5Q29.8.4.5 5.7"/><path fill="none" stroke="#151609" stroke-linecap="round" stroke-linejoin="round" stroke-opacity=".3" stroke-width="1" d="M.5 5.7Q29.8.4 66.1 28.2 45.9-11.4.5 5.7"/></g><linearGradient id="a" x1="-819.2" x2="819.2" gradientTransform="matrix(0 .01 -.04 0 -1.15 9)" gradientUnits="userSpaceOnUse" spreadMethod="pad"><stop offset="0" stop-color="#3e4b17" stop-opacity="1"/><stop offset="1" stop-color="#4d601d" stop-opacity="1"/></linearGradient><linearGradient id="b" x1="-819.2" x2="819.2" gradientTransform="matrix(0 .01 -.04 0 -1.15 9)" gradientUnits="userSpaceOnUse" spreadMethod="pad"><stop offset="0" stop-color="#2a320f" stop-opacity="1"/><stop offset="1" stop-color="#334013" stop-opacity="1"/></linearGradient><linearGradient id="c" x1="-819.2" x2="819.2" gradientTransform="matrix(.2 0 0 .04 -30.8 -11)" gradientUnits="userSpaceOnUse" spreadMethod="pad"><stop offset="0" stop-color="#2c2800" stop-opacity=".3"/><stop offset="1" stop-color="#262600" stop-opacity="0"/></linearGradient><path id="l" fill="url(#c)" d="M66.2-20.9q20.3-4.7 26.9-6.5l14.5.3q122.4 3.5 89 19.2-26.2 12.3-88.1 21l-8.5 1.1q-24.8-3.4-46.6-1.4t-35.2 9.7l-13 1Q-44 13-78.5 28.6l-12.7.4q-7.2-7-38.9-9-31.6-2.1-71 8.9l-2.7-56.1q27.7 5.7 55.4 6t51.9-7.5l12.7-.1q38.8 11.2 79.6.2l13.3.1q36.8 12.4 57.1 7.7" transform="translate(203.8 28.9)"/><path id="k" fill="url(#d)" d="M25.5-25.5Q36-14.9 36 0T25.5 25.5Q15 36 0 36t-25.5-10.5T-36 0t10.5-25.5T0-36t25.5 10.5" transform="translate(36.05 36.05)"/><path id="j" fill="url(#e)" d="M25.5-25.5Q36-14.9 36 0T25.5 25.5Q15 36 0 36t-25.5-10.5T-36 0t10.5-25.5T0-36t25.5 10.5" transform="translate(36.05 36.05)"/><radialGradient id="d" cx="0" cy="0" r="819.2" gradientTransform="scale(.04)" gradientUnits="userSpaceOnUse" spreadMethod="pad"><stop offset=".2" stop-color="#2d2800" stop-opacity=".3"/><stop offset="1" stop-color="#262600" stop-opacity="0"/></radialGradient><radialGradient id="e" cx="0" cy="0" r="819.2" gradientTransform="scale(.04)" gradientUnits="userSpaceOnUse" spreadMethod="pad"><stop offset=".7" stop-color="#2d2800" stop-opacity=".5"/><stop offset="1" stop-color="#262600" stop-opacity="0"/></radialGradient><clipPath id="f"><path d="M1 1h100v108H1z"/></clipPath></defs><g clip-path="url(#f)"><g transform="translate(44.55 95.55)"><use xlink:href="#g" width="66.6" height="28.7" transform="matrix(.6582 .2603 .194 .5007 6.4 -52.65)"/><use xlink:href="#h" width="65.6" height="18.2" transform="matrix(.4325 .4071 -.6566 .0839 4.95 -52.85)"/><use xlink:href="#i" width="66.6" height="28.7" transform="matrix(.2229 .2325 -.1953 .881 2.2 -56.95)"/><use xlink:href="#j" width="72.1" height="72.1" transform="matrix(.1946 -.0973 .1946 .0973 -12.4 0)"/><use xlink:href="#k" width="72.1" height="72.1" transform="matrix(.3594 -.1797 .3594 .1797 -23.1 .2)"/><use xlink:href="#l" width="407.6" height="57.8" transform="matrix(.1118 -.0559 .1946 .0973 -5.15 -1.55)"/><use xlink:href="#l" width="407.6" height="57.8" transform="matrix(.1208 -.0515 .1946 .0973 -5.15 -2)"/><use xlink:href="#m" width="8.9" height="37.2" transform="matrix(-.3101 .1037 .1251 .3739 -8.85 -18.5)"/><use xlink:href="#n" width="8.9" height="24.2" transform="matrix(1.6475 0 .1065 1.6475 -9.25 -35.8)"/><use xlink:href="#o" width="8.9" height="24.2" transform="matrix(1.6475 0 -.0235 1.6475 -7.25 -67.5)"/><use xlink:href="#p" width="8.9" height="20.1" transform="matrix(1.5632 -.0897 .1568 1.5671 -9.25 -91.35)"/><use xlink:href="#q" width="8.9" height="37.2" transform="matrix(-.8173 -.1377 -.1661 .9856 14.8 -31.35)"/><use xlink:href="#r" width="5.4" height="36.5" transform="matrix(-1.5492 -.1988 -.0859 .6694 9.5 -18.35)"/><use xlink:href="#r" width="5.4" height="36.5" transform="matrix(-.7042 -.0904 .1502 .4616 -9.3 -13.3)"/><use xlink:href="#s" width="86.8" height="42.3" transform="matrix(.4493 -.0954 .0195 .4805 -28 -69.45)"/><use xlink:href="#g" width="66.6" height="28.7" transform="matrix(.2068 .5388 -.1936 .3927 .75 -80.85)"/><use xlink:href="#t" width="17.6" height="59.8" transform="matrix(.3899 .1569 -.1462 .525 -5.75 -81.4)"/><use xlink:href="#u" width="86.8" height="42.3" transform="matrix(.5977 .181 .0247 .6083 -43.55 -94.55)"/><use xlink:href="#v" width="39.5" height="51.2" transform="matrix(.431 .1535 .0724 .3028 -13.85 -84.9)"/><use xlink:href="#w" width="17.6" height="59.8" transform="matrix(-.4235 -.1831 -.0888 .2993 7.4 -73.9)"/><use xlink:href="#x" width="61.8" height="10.3" transform="matrix(-.3103 .1641 .2762 .3739 -6.35 -82.65)"/></g></g></svg>