<svg xmlns="http://www.w3.org/2000/svg" xmlns:xlink="http://www.w3.org/1999/xlink" width="54" height="44" viewBox="0 0 54 44"><defs><clipPath id="a"><path d="M1 1h52v42H1z"/></clipPath><g id="b"><path fill="#6d4616" d="m25.6 16.2.7 4.9.5 3.3q-.6 3.7-2 1l-.7-3.9-.5-3.4 1-.6-1.3-2.2h-.1L22 6.9l.8-.5-1.2-2.2-.7-3.8 2.3-.4 2.2 14.8zm-4-12 1.2 2.2-.9.5-13.4 7.8L8 14l1.4 8.9v.3l5.3-3 8.5-4.9h.1l1.2 2.2-.9.6-13.4 7.6-.5-.8-.2-1.7.2 1.7.5 3.9.8 4.6-2.5-1.2-.4-2.4-.8-5.8L4.9 8.2l2.2-.4.7 4.4zm-13.8 8L8 14z"/><path fill="#394040" d="m26.4 21.1-.8-4.9-.2-1.4.2-.2L51 27.2l-6 3.2zm-2.7-3 .5 3.4-13.9 7.3-.5-3.9.5.9zm2-1.9v-1.6zM6.1 30.9 0 27.7 7.3 24l.8 5.9zm3.3-8 5.3-2.7-5.2 3z"/><path fill="#000" d="m24.2 21.5.6 4v.8l-13 7.5-.9-.4-.7-4.6zm2.6 2.9-.5-3.3L45 30.4l-16 8.8zm.1 15.9-1.3.8-.2-.1 1.5-.9zm-4.2-.7-8.2-4.4L25.3 29l1.2 8.3h.1-.1zM8.5 32l-2.4-1 2-1zm18 5.1"/><path fill="#46290f" d="M24.8 25.5q1.4 2.6 2-1.1L29 39.2l-2 1.1-.1-.2-1.5.9-2.7-1.5 3.8-2.1.1-.1 1.2 2.3-.9.5 1-.6-1.3-2.2h-.1L25.3 29l1-.5-1.4-2.2 1.4 2.2-1 .5-10.9 6.3-2.7-1.5L25 26.3z"/><path fill="none" stroke="#311004" stroke-linecap="round" stroke-linejoin="round" stroke-width="__RESOLUTION__" d="m25.6 16.2-.2-1.4M21 .4l.5 3.8h.1l1.2 2.2-.9.5 1.3 8.4h.1l1.2 2.2-.9.6.5 3.4.6 4 .1.8h.1l1.4 2.2-1 .5-10.9 6.3M7.4 24 4.9 8.2m22 32.1v-.2l-1.5.9m1.5-.9 1-.6-1.3-2.2h-.1l-3.8 2.3m6.3-.4-2.2-14.8M22 6.9 8.5 14.7 8 14l-.2-1.8m6.9 8 8.5-4.9M9.4 22.9v.3l5.3-3m-5 4.7-.2-1.7m14.1-5.1-13.4 7.6-.5-.8m-1.6 5L7.3 24m.8 5.9.4 2.3M25.3 29l1.2 8.3" vector-effect="non-scaling-stroke"/><path fill="none" stroke="#37210b" stroke-linecap="round" stroke-linejoin="round" stroke-width="__RESOLUTION__" d="m45 30.4 6-3.2-25.4-12.6v1.6m3.4 23-2 1.1-1.4.8M45 30.4l-16 8.8M25.7 41h-.2l-2.7-1.5-8.2-4.2-2.8-1.5-.7-.4-2.5-1.2-2.4-1.3L0 27.7 7.3 24m2.1-1.1 5.3-2.7m10.7-5.4.2-.2" vector-effect="non-scaling-stroke"/></g></defs><g clip-path="url(#a)"><use xlink:href="#b" width="51" height="41" transform="translate(1 1)"/></g></svg>