<svg xmlns="http://www.w3.org/2000/svg" xmlns:xlink="http://www.w3.org/1999/xlink" width="76" height="61" viewBox="0 0 76 61"><defs><radialGradient id="k" cx="0" cy="0" r="819.2" gradientTransform="scale(.02 .01)" gradientUnits="userSpaceOnUse" spreadMethod="pad"><stop offset=".4" stop-color="#8ac739" stop-opacity=".1"/><stop offset="1" stop-color="#c6ad4a" stop-opacity="0"/></radialGradient><radialGradient id="m" cx="0" cy="0" r="819.2" gradientTransform="scale(.07 .04)" gradientUnits="userSpaceOnUse" spreadMethod="pad"><stop offset=".5" stop-color="#141105" stop-opacity=".3"/><stop offset="1" stop-color="#0f0a03" stop-opacity="0"/><stop offset="1" stop-color="#a2ac39" stop-opacity="0"/></radialGradient><radialGradient id="f" cx="0" cy="0" r="819.2" gradientTransform="matrix(0 -.04 .04 0 -5.35 -6.7)" gradientUnits="userSpaceOnUse" spreadMethod="pad"><stop offset=".5" stop-color="#a6b03d"/><stop offset="1" stop-color="#7c852e"/><stop offset="1" stop-color="#a2ac39" stop-opacity="0"/></radialGradient><radialGradient id="e" cx="0" cy="0" r="819.2" gradientTransform="matrix(0 -.03 .04 0 -1.85 -15.45)" gradientUnits="userSpaceOnUse" spreadMethod="pad"><stop offset=".5" stop-color="#595f21"/><stop offset="1" stop-color="#474713"/><stop offset="1" stop-color="#a2ac39" stop-opacity="0"/></radialGradient><radialGradient id="d" cx="0" cy="0" r="819.2" gradientTransform="matrix(.05 .01 -.01 .1 -51.8 8.45)" gradientUnits="userSpaceOnUse" spreadMethod="pad"><stop offset=".5" stop-color="#a6b03d" stop-opacity=".5"/><stop offset="1" stop-color="#7c852e" stop-opacity=".5"/><stop offset="1" stop-color="#a2ac39" stop-opacity="0"/></radialGradient><radialGradient id="c" cx="0" cy="0" r="819.2" gradientTransform="matrix(.05 .01 -.01 .1 -51.8 8.45)" gradientUnits="userSpaceOnUse" spreadMethod="pad"><stop offset=".5" stop-color="#a6b03d"/><stop offset="1" stop-color="#7c852e"/><stop offset="1" stop-color="#a2ac39" stop-opacity="0"/></radialGradient><g id="a" fill="none" stroke="#272b11" stroke-linecap="round" stroke-linejoin="round" stroke-width="__RESOLUTION__"><path stroke-opacity=".2" d="m31.3 3.8-1 1.9m-9.9-4 .6 1.6M26 2l-1 1.9m12.3 2.7-1.9 1.5M15.2 1.4l1.3 1.9M8.6 3l2.2 1.7m-6.6.2 2.2 1.7M1.6 7.9l2.3.6" vector-effect="non-scaling-stroke"/><path stroke-opacity=".3" d="m33.4 3.9-2.2 1.7M22.5.4l-1.2 1.9M29 2l-2.2 1.7m-9.5-3-.5 1.6m-10.4.5 1.1 1.9m-7.2 1 2 1.5M36 6.9l-2.3.5M11.6 1.2l1 1.9" vector-effect="non-scaling-stroke"/></g><g id="i" transform="translate(18.25 6.9)"><use xlink:href="#a" width="37.8" height="8.8" transform="translate(-17.9 -6.9)"/><use xlink:href="#b" width="25.4" height="12.4" transform="translate(-18.25 -5.85)"/></g><g id="h"><path fill="#444b01" fill-opacity=".6" d="M45.2 67.3V67zm5.2-29.4H50v-5z"/><path fill="#414a01" fill-opacity=".4" d="M50.5 32.9q.3.7-.4 1.1t-1.1-.1q-.4-.6.3-1.1.8-.6 1.2.1m-.5 4.2q.8-.4 1.1.2t-.2 1-1.1-.2.2-1m.5-2.5q.5-.4.7.3.2.5-.4.8-.5.3-.6-.2-.2-.5.3-.9m-7 33.6q-.6-.7 0-1.4.7-.5 1.3.4.5.9-.1 1.2t-1.2-.2"/><path fill="#5f6523" fill-opacity=".5" d="M59 53.2h1q-3 8.3-10.4 12.3l.4-1.4 1.1-.6q5.5-3.9 7.9-10.3"/><path fill="#5f6523" d="m50 64.1-1.2.7h-.2l.4-.3v-2.1l.2-9.2H59q-2.4 6.4-7.9 10.3z"/><path fill="url(#c)" d="M23.6 36.8v.2l-1-1h.1l.6.2.3.3z" transform="translate(25.45 27.1)"/><path fill="url(#d)" d="m23.6 36-1-1h.1l.9.3zm-36.9-9.9.4.1 4.7.4h4.6Q.5 26.7.8 29q-.2 2.3-7 2.3-7 0-11.3-2.5-1.8-1-3.4-2.7h1.3L-17 28q4.2 2.4 10.8 2.4 5.8 0 6-1.4-.3-1.4-3.2-1.4h-4.7l-5-.5-3.3-1z" transform="translate(25.45 27.1)"/><path fill="#474713" fill-opacity=".7" d="M12.1 53.2h35.2L47.2 64v.5l.3.2q.2.3.6.3l.4-.1-1.5.7q-10 3.7-28.6 2.7Q4.2 66 1 53.2h3.4q1.7 1.6 3.4 2.7 4.4 2.5 11.3 2.5 6.8 0 7-2.3-.2-2.2-4.2-2.4h-4.6l-4.8-.4z"/><path fill="#474713" fill-opacity=".4" d="M1 53.2Q4.2 66 18.4 68.3q18.5 1 28.7-2.7l1.7.3q-1.7 4-7.3 5.5t-16.7-1.3Q10.4 72.7 6.3 64H5.1q-2.2.2-3.6-1.2l1.2-2.1-.6-.9q-2-3-2.1-6.6z"/><path fill="#655b45" d="m54.3 18 .2.4h-.2z"/><path fill="#4d4d16" d="m54.5 18.4.5 1.5v.6q0 4.9-6.4 8.5l.1-9.3-.6-6.2-3.9-8.1 4 3.3q3.3 3.3 5.3 7.3l.8 2v.4zm1.5 9.8-.1 4.9v3q.1 3 .4 4-.4.5-.4.9 0 4.2-4.6 7.5l-.2.2-.9.5-1-.7q2.1-4.8.3-9.5v-.1l-1-2.2q6.8-3.6 7.3-8.5zm-6.4 10.7.2-1.6q-.3-.3-.5-.3z"/><path fill="#666c24" d="m55 19.9.1.6H55zm.9 7.8h.1v.5h-.2zM50.2 63l-.7.4-1.2.6h-.2v-1.8l3 .1zm-.9-14.5 1 .7.9-.5-.7.6-2.1 2v-1zm1.2.8-.1-.1z"/><path fill="#7a6d3e" d="M55.1 20.5q.7 2.5.9 5.2l-.1 1.8v.7q-.6 4.9-7.4 8.5l.1-7.7q6.4-3.6 6.4-8.5zM2.4 35.6v-.9l1.2-2L8.1 28l2.8 1.6q7.5 3.8 18.2 3.8l6.5-.4 2.4 2.9-10.9 2.6-2 .4-4-.4-1.9 1.4H19l-5.6-1.6q-6.6-.2-5.6 4.8l-1.3-.9-.3-.2q-2.7-2.2-3.4-4.7l-.4-1.2z"/><path fill="#8c8054" d="M56.4 40.2v.8H56q0-.4.4-.8m-1.9 19.1-.2.2.1-.2z"/><path fill="#75673b" d="M56.5 41q.8 10.3 1.6 12L57 55.8q-1 .5-1.7 2l-.9 1.5h-.1l1.5-5.6-3.3-2.7h-.1l-2-1.7.7-.6.2-.2Q56 45.2 56 41zM27.4 68l-2.4-.2h-.5l-.9-.1-5-.7v-.2l2-2.2 2.7-.2.1.2.5-.2 8-5q.3 1.1.3 2.3-.1 4.4-4.8 6.3m-8.9-1.1-.5-.1zm-6-1.8-1.5-.6-1.3-.6q-1.8-.7-1.5-1.1t-1.7-3.5-3.1-2.7-1.6-2.9l.6-1.3v-15l.4-.1q.7 2.5 3.4 4.7l.3.2 1.3.8.2 1.2q1.8 5.8 7.5 8.3l-.1.3-4.4 3.7-.5.2-3.7-9.9-.3-4.6.3 4.6 3.7 9.9.6 1.5.3 5zM48.7 29l-.1 7.7-.4.2q-3.3 1.6-7.1 2.6l-3-3.6-2.4-2.9q6.7-.8 11.9-3.4zM3.3 20.6q0 4.2 4.8 7.4l-4.5 4.7-1.2 2v-8l.1-1q.1-2.6.8-5.1m23.8 17.9-2 2.2-5.9-.8 1.8-1.4 4 .4zm-2.2 29.3-1.4-3.2z"/><path fill="#6e6238" d="m54.2 59.5-.6.6-2.5 2.3-3-.2q-3-.4-3-4.1t3.1-6.8l2.2-2 2 1.7 3.4 2.7-1.5 5.5zM18 66.8l-4.2-1.2-.7-.3-.6-.2-1.1-1.9-.3-5v-1.7l4.3-3.7.5-.1h.2q5.3 1.5 11.6 1.6 3.3 2.2 4.2 5.1l-8 5h-.6l-.2-.6.2.6-2.8.2-2 2.3zm20-30.9 3 3.6q-5.4 1.3-11.9 1.3l-4-.1 2-2.2zm8.4 24 6-9z"/><path fill="#444b01" fill-opacity=".6" d="M51.1 62.4v.2l-.8.6-.1-.2z"/><path fill="#5f6523" d="M48.3 64h-.2z"/><path fill="#474714" d="M48.1 64q-2 1-3 .7-1.1-.5-3.7.9-2.7 1.3-4.4 1.7l-1.8.4-4.9.3h-2.9q4.7-1.9 4.8-6.3 0-1.2-.4-2.3-.8-2.9-4.1-5-6.3-.1-11.5-1.6l-.3-.1-.4-.2Q9.9 50 8 44.2L7.8 43q-1-4.9 5.6-4.7l5.5 1.6h.3l5.9.8 4 .1q6.5 0 11.9-1.3 3.8-1 7.1-2.6l.4-.2 1 2.2q1.8 4.8-.3 9.6l-1 1.9v.9q-3 3.1-3 6.8-.1 3.7 3 4.1z"/><path fill="#c7bf81" d="m18.6 67-.1-.1zm-5.5-1.6-.4-.1-.2-.1zM2.4 36.1v-.5zl.4 1.3h-.4zm13.5 16.6h-.5l.1-.2zM11 56.5l.1 1.8-.6-1.6zm12.5 8.1-.2-.2h.6z"/><path fill="url(#e)" d="m18.8-21.7 3.8 8.1.6 6.1V2l-1.2.6Q16.9 5.2 10.2 6l-6.5.4Q-7 6.3-14.6 2.5L-17.3 1V.9q-4.8-3.2-4.8-7.4l.2-.9.5-1.5q1.6-4.3 4.5-7.6l1.7-1.9q8-7.9 19-7.9 8.5 0 15 4.6" transform="translate(25.45 27.1)"/><path fill="url(#f)" d="m22.7 9.8.4-.2z" transform="translate(25.45 27.1)"/><path fill="#796828" d="m49.7 38.9-.4-2q.2 0 .5.4-.2.8-.1 1.6"/><path fill="none" stroke="#000" stroke-linecap="round" stroke-linejoin="round" stroke-opacity=".2" stroke-width="__RESOLUTION__" d="m54.3 18 .2.4M1.8 53.7l.6-1.3" vector-effect="non-scaling-stroke"/><path fill="none" stroke="#000" stroke-linecap="round" stroke-linejoin="round" stroke-opacity=".1" stroke-width="__RESOLUTION__" d="m54.2 59.5-.6.6M2.4 34.8l-.6 1m47.4 12.7 1 .7.2.1 2 1.7h0l3.4 2.7-1.5 5.5-.1.3m-38.8-6.7L11 56.5l.1 1.8.3 4.9 1.1 1.9.6.2M52.5 51l-6 8.9M2.4 34.8l1.2-2.1L8.1 28M6.2 42l.3.2.3 4.6 3.7 9.9.6 1.5" vector-effect="non-scaling-stroke"/><path fill="none" stroke="#000" stroke-linecap="round" stroke-linejoin="round" stroke-opacity=".2" stroke-width="__RESOLUTION__" d="M2.4 52.4V41.6m0-.6V26.7l.1-1q.1-2.6.8-5.1M35.6 33l2.4 2.9 3 3.6m-3-3.6-10.9 2.6-2 2.2m-5.9-.8 1.8-1.4 4 .4 2.1-.4M6.5 42.2l1.3.8m11.1-3h.3M2.8 37.3l-.4-1.2v-.5m0 .4v1.4m.4-.1q.7 2.5 3.4 4.7m17.2 22.4v.2l1.6 3.2m-1.1-3.5-.6.1-.2-.6m-4.6 3 2-2.2 2.8-.2m.6-.2 8-4.9" vector-effect="non-scaling-stroke"/><path fill="#000" fill-opacity=".2" d="M26.2 1.7q-.7.4-1.1-.2t.2-1q.8-.5 1.1.2t-.2 1m1.7-.7q-.4.2-.6-.2-.3-.3.1-.6t.7.2-.2.6m1.6-.9q.6-.3 1 .3t-.1.9q-.5.2-1-.3-.3-.5.1-.9m6 .8q.5.9-.4 1.4-1 .6-1.5-.3T34 .5q1-.6 1.5.4m-4.2.6q-.3-.8.2-1.2t1 .5-.2 1.1q-.7.4-1-.4m5.9-.2q.4.7-.2 1T36 2t.2-1 1 .2m6 3.9q-.4.2-.7-.2t.2-.7.8.2-.2.7m2.3.2q.4.7-.2 1t-1.1-.2q-.4-.5.2-1t1.1.2M41.2 4q-.5.2-.7-.3t.3-.8.7.3-.2.8m-3.4-.8q-.5-.7.1-1.1t1.1.4-.1 1-1.1-.3m8.6 4.4q-.4-.4.1-.7t.8.2-.1.7-.8-.2m2.5 3.2q-.3-.7.3-1.1.8-.4 1.1.2t-.2 1q-.7.5-1.2-.2m-1-1.1q-.2-.6.2-.8t.7.3-.2.8-.7-.3m3.6 4.5q-.3-.4.1-.7t.8.3-.1.7-.7-.3m-.7-1.5q-.4-.5.1-1 .6-.3 1 .3t-.2.8-.9-.1m3.8 7.9q-.4 0-.7-.6-.4-.6 0-.9l-.5-.5q-.6-.9.4-1.5l.2-.1q-.5.1-.7-.5-.4-.8.2-1.2.5-.3 1 .5t-.2 1.1q.6-.1 1 .6l.1.9h-1l-.4.6.3-.1q1-.3 1.3.4l.2.3q0 .4-.6.8zm1 1.5-.2.2q-.6.3-.8-.2v-.4l.3-.3q.4-.2.7.2zm-.2 4.3q0-.3.4-.6.6-.5 1.1.2t-.2 1l-.6.3v-.6q-.3-.4-.7-.3m-.1-2.8h1q.6.6-.1 1t-1-.1.1-1M22.7 1.8q-.2-.6.1-.8.5-.3.8.3t-.2.9-.7-.4m-1 .4q.4.6-.1.9-.6.2-1-.3t.1-.9q.6-.3 1 .3m-17.3 13 .4-.2-.1-.1q-.4-.6.2-1.1T6 14t-.2 1l-.2.1.2.4q.5.8-.4 1.3T4 16.6t.4-1.4m-.3 5.4v.1q.5.7 0 1-.7.3-1.1-.4l.6-.1q.5-.2.5-.6M17.2 4.3q-.9.6-1.4-.3t.4-1.3q.9-.6 1.4.2t-.4 1.4m1.8-.7-.7-.1q-.3-.3.1-.7t.8.2q.3.4-.2.6m-3.7 1q.5 1-.3 1.4t-1.2-.5T14 4q.7-.4 1.2.5m-3.4 3.6q-.7.3-1-.2-.5-.5.1-1t1.1.2-.2 1m2-1q-.5.3-.9-.2T13 6t1 .3-.2.8m-5 5.2q-1 .5-1.3-.6-.5-1 .3-1.4.7-.5 1.3.6.6 1-.3 1.4m-2.3.3q-.3-.4.2-.7.3-.3.6.2t0 .7q-.4.2-.8-.2m4-3q-.7.4-1.2-.3-.3-.7.3-1.1.8-.4 1.2.3t-.4 1M1.8 29.2q-.6-1 .3-1.5t1.4.4-.2 1.5-1.5-.4m1.3 12.7q.2-.3 0-.7L3 41q0 .3-.4.6-.5.4-.9 0v-.1l-.1-.1q-.7-.7.3-1.4 1-.5 1.7.4t-.4 1.4M1.3 53q.7-.7 1.3 0 .5.8-.3 1.2L1 54.1q-.5-.5.3-1.1m2.4 4.4q-.5-.7.1-1.1t1 .2 0 1q-.7.6-1.1-.1m-1-1.3q-.5.4-1-.4-.5-.7.2-1.2t1 .4-.2 1.2m3.7 3.8h1.3q.5.8-.3 1.1H6.3q-.5-.5.2-1.1m-1.2-1.1q-.4-.6.3-.9.5-.2.8.2.2.4-.3.9t-.8-.2m4.6 4.8q.4.4 0 .8t-.8-.2 0-.7.8.1m-2-1q-.4-.5.1-.9t.8.3q.2.5-.2.8t-.8-.2m5.8 3.6q-.4-.5.3-1.1t1.1.1q.6.7-.2 1zm-2.6-.9q-.5-.9.5-1.3t1.3.3-.4 1.3q-.9.7-1.4-.3m13.6 2q.6.8-.3 1.3l-1.4-.1q-.5-.6.3-1.3t1.4.1m-2.7-.3q.3.5-.3 1t-1-.3q-.4-.6.3-1 .7-.3 1 .3m3.4 0q.5-.4.8.2.2.5-.2.9-.4.2-.7-.3-.4-.5.1-.8m-7.8.5q-.8.5-1.4-.5-.7-1 .3-1.7t1.4.5-.3 1.7m2 0q-.7.6-1.1-.2-.4-.6.1-1t1 .2 0 1M56.2 28q.3 0 .5.3l.1.3zm-.6 2.9.2-.3q.5-.2.8.2.2.4-.3.7h-.5zm0 1q.4 0 .7.3.7.6-.1 1T55 33q-.3-.5 0-.9l.4-.1zm.5 6.6q-.8.5-1.3-.3t.5-1.2 1.2.5q.3.5-.4 1m.2-2.5q-.6.5-1-.1t.1-1.1 1.1.2q.5.6-.2 1m-5.7.7.1.1q.4.6-.3 1l-1.1-.1q-.5-.6.3-1l.2-.1zm4.8 4q-.4-1.1.5-1.5t1.5.5q.5.7-.3 1.3l-.2-.6q-.5-.6-1.2-.1z"/><path fill="#000" fill-opacity=".2" d="m55.7 18.3.1.3q.4.5.2.9l-.2-.3q-.3-.7-1.3-.4h-.2l.4-.6zm-.4 2 .6.6q.4.7 0 1l-.1-.4q-.2-.4-.7-.2l-.3.3q-.5-.7 0-1.1zM54 22.5q.8-.3.9.3.2.6-.2 1-.5.3-1-.3t.3-1m-1 3.6q.8 1-.3 1.4-1 .5-1.6-.3-.5-.8.4-1.5t1.5.4m.2-1.2h1q.4.7-.2 1h-1q-.4-.6.2-1m3.1 2.3-.2.2q-.6.2-.8-.3t.2-.7l.1-.1q.4-.1.6.3zM3 21.2l-.4-.5q-.3-.8.3-1.1t1 .4l.2.5q0 .4-.5.6zm.4-2.4q-.5-.6.1-1.1.7-.4 1.1.2T4.3 19q-.7.4-1-.2m1.5 5q.5.6-.2.9-.5.4-1-.2-.4-.5.2-1 .6-.3 1 .3M3.7 23q-.4.3-.6-.1t.2-.8.6.1-.2.8m1.4 2.4q.7-.4 1.1.2T6 26.7q-.7.4-1-.2t.1-1.1m19 7.4q.4.8 0 1-.6.3-1-.3t0-1q.6-.4 1 .3m-2.7 0q.2.6-.2 1-.5.3-1-.3t.3-1 .9.3m-4-.2q-.7.3-1.2-.3t.3-1.2q.6-.5 1.2.3t-.2 1.2m2.1.4h-.9q-.3-.5.2-1t.9.1-.2.9m5.5.2q.5-.5 1 .3.5.6-.2.9t-1-.2.2-1m-11.8-2q-.5-.7.1-1.1t1 .4 0 1-1-.3m-1.6-.8q-.4-.4.2-.7t.8.2-.3.7q-.3.3-.7-.2m-3.5-2.7q.5.8-.2 1-.7.3-1.1-.2v-.7q-.3-.8.2-1 .5-.3.9.3zm1.6 1.7q.3.4 0 .7L9 30q-.3-.3.2-.6zm0 9.6q.6.9-.3 1.4T8.1 40q-.5-.7.3-1.2.7-.5 1.4.3m2.9-1.1q.5-.5 1 .3.4.6-.3 1-.8.5-1-.2v-.8l.1-.2zm-1.2 1q-.9.8-1.5-.1t.4-1.4l1.4.2q.4.5-.4 1.3m2.4-1.8q-.4.3-.7-.2t.3-.7q.4-.3.6.1.3.5-.2.8M8 41.8q-.6.4-1-.2t.2-1 1 .3q.5.6-.2 1m-.4 1.4q.5-.3 1 .3t-.3 1-1-.2.3-1.1m2 2.4q.3.5-.3 1-.6.7-1.2 0-.6-.8.3-1.2zM9 48.2q-.5-.7.2-1.2.8-.4 1.3.4.7.7-.2 1.1T9 48.3m6.3 3.4q.2.5-.4 1-.5.5-1-.1t.3-1zm-2.7-1.2q.4-.3.9.3t-.3 1-.9-.2.3-1.1m-.7-.2q-.6.3-1-.3t.2-1 1 .3-.2 1m13.5-10.4q.7-.5 1.1.3.6.8-.2 1.1T25 41l-.2-.3-.4.2q-.8.3-1.1-.4t.3-1.1q.7-.6 1.2.3l.1.5zm-2.9 1.5q-.8.6-1.4-.3-.6-1 .3-1.5t1.3.3q.7.8-.2 1.5m-4.4-.8q-.5.1-.6-.3-.4-.5.1-.8.6-.2 1 .3.5-.4.9.1.2.5-.4.9zm-3-.5q-.4-.6.3-1.1t1.1 0q.6.8-.2 1.3T15 40M1.7 41.6q.4.4.9 0 .4-.3.4-.6h.1q.2.5 0 .8l-.3.4q-.5.4-1-.4zm23.2 11.6q.9-.7 1.8.3l.3.6.3-.2q.6-.4 1.1.3l.2.3.1-.1.2-.1q-.1-.3.2-.5t.6.2-.1.5l-.1.1q.4.6-.2 1t-.8-.2V55l-.3.2q-.6.3-1.1-.2l-.2-.3-.5.4q-1.1.6-1.8-.4l-.3-.7-.2.4q-.6.5-1-.1t.2-1l1 .1.1.3zm-3.3 1.6q-1.1.7-1.5-.3-.3-1.1.4-1.6.8-.5 1.4.4.7 1-.3 1.6m-5.7-1.7q-.5-.7.2-1.1t1.2.3q.6.7-.2 1.1-.7.4-1.2-.3m2.5.1q-.2-.3.1-.5t.6.1 0 .6-.7-.2m38.4-24.8q.6 1.2-.5 1.5-1 .4-1.3-.4t.4-1.5q.4-.4.8-.2zm-1 3-.2.4h-.1l-.4.3q-.4 0-.8-.5-.5-.7.2-1.1t1.1.1v.1zm-1.1 1.4q.3.5-.5 1-.6.6-1-.1-.3-.7.4-1t1 .1M50 29.3q-.5.4-1-.4-.6-.7 0-1.1t1.1.4 0 1.1m-2.5-.6q.7-.3.9.3.1.6-.3.9t-.9-.2.3-1m-1.1 2.1-1.2-.1q-.5-.6.2-1.2t1.2.2q.5.6-.2 1.1m3.3 5.8-.3-.4q-.4-.8.5-1.4h1q-.3-.7.4-1.2.9-.6 1.5.4.6 1.1-.4 1.5-.7.3-1.1 0 .4.9-.6 1.2h-.2zm-3.4 1.5q-.7.6-1.1-.1-.3-.7.4-1.1.8-.4 1.1.1t-.4 1.1m2.4-.6q-.6.5-1-.2t.2-1.1q.5-.4 1 .2t-.2 1.1m5.9 7.9q.2.4-.2.6-.3.1-.5-.2t.1-.5.6.1m.5-2.2q.5-.5.8.1t-.2 1-.8-.1.2-1m1.9-2.2-.4.6-.4.3-.1.1q-.6.3-1-.2t.1-.9l.1-.2.3-.4q.7-.5 1.2.1zM48 51.2q.3.8-.4 1.2-.6.5-1.1-.2t.3-1.2 1.2.2m1.4-1.2q.3.4-.2.7t-.7-.2v-.2l-.2-.2q-.1-.4.3-.7t.6.1l.1.4zm3.1-2.5q-.5-.7.2-1.1t1.1 0q.5.6-.2 1.1zm-1.3 1.2h-.7q-.2-.4.3-.7h.7q.1.5-.3.7m6.2-3.5q.4.6-.2 1-.6.3-.9-.2-.2-.5.3-1t.8.2m0-1.5q-.7.3-1.2-.3t.4-1 1.1.3q.3.6-.4 1m.4 3.4q.4.6-.2 1-.5.4-1-.2t.1-1 1 .2m-1 3.4q-.5-.6.2-1.1t1.1.1-.2 1.1zm1.9 1q.3.7-.3 1t-1-.3.3-.9 1 .3M42.9 31.4q-.3-.4.2-.8t.9.2-.2.9-.9-.3m-2.2 1.1q-.7-.9 0-1.5.9-.6 1.4.6.6 1 0 1.4t-1.5-.5m-3.5.6h-.6q-.2-.4.1-.7h.7q.3.5-.1.7m2-.4q-.4.4-.9-.2t.3-1 1 .2-.4 1m1.1 6.5q.5.7-.1 1.3-.7.4-1.2-.3-.5-.8.1-1.2.7-.5 1.2.2m3.7-.8q-.4-.5.1-.8t.8.3-.2.7-.7-.2m-.9.6q.4.9-.4 1.2t-1.1-.4q-.3-.6.4-1.1t1.1.3m-8-6q.4.6-.1.9-.6.2-1-.2-.2-.5.3-.8t.8.1m-2.1-.4q.3.6-.1.8t-.7-.2q-.4-.5 0-.8t.8.3m-4.7.3q.5.6-.2 1h-1q-.5-.6.1-1.1t1.1 0m2.6 1.2q-.6.5-1.2-.4t.3-1.3 1.3.4-.4 1.3m3.3 6.7q-.4-.6.3-1.1.6-.4 1 .3.5.8-.2 1.1t-1.1-.3m-2.1.4q-.3-.7.4-1.2t1.1.4-.4 1.2-1.1-.5m-.6.2q-.7.5-1.2-.2-.5-.9.2-1.3t1.1.3-.1 1.2m-2.7 0q-.6.5-1-.2-.3-.7.4-1 .8-.4 1 .1.3.6-.4 1m8.2-.8q-.2-.5.3-.7l.7.1q.2.4-.2.7-.5.4-.7-.1m8.1 15h1q.3.7-.3 1.1l-1-.1q-.4-.5.4-1m-.4 3.3q-.9.5-1.2-.3-.4-.8.4-1.3.7-.5 1.2.3t-.4 1.3m.4 1.1q.7-.4 1 .2.2.6-.3 1t-1-.1.3-1.1m-13.4-2.6q.8.9-.1 1.5t-1.3-.3.1-1.5 1.3.3m-2.2-1.6q.6-.4.8.2t-.2 1-.9-.2q-.3-.6.3-1m3 7.8q-.7.5-1-.3-.2-.8.3-1.2t.9.3-.2 1.2m-.3-2.5q-.7.4-1.1-.2t.3-1 1.1.2-.3 1m-1.7 4.3q-.3-.5.3-1 .5-.3.8.3.2.6-.3 1t-.8-.2m-1.2 1.3q-.2-.5 0-.8t.7.2-.1.8-.7-.2m-2.2 2.2q.6-.6 1.1.3t-.3 1.5-1.2-.3.3-1.5m.3-1.3q-.4-.6.3-1 .7-.3 1.1.3.3.5-.3 1-.7.3-1.1-.3M57 55.4q-.2-.5.2-1t.8.1-.2 1-.8-.1m-.4 1.2q-.6.4-1.1-.3t.1-1q.6-.5 1.1.2t0 1.1m-.9 2q-.7.6-1.2-.1-.6-.8.2-1.3.8-.7 1.3 0 .5.8-.3 1.3m-8.8-5q.5.6-.2 1.4t-1.3-.3.3-1.5 1.2.4m1.8 9.5q-.5-.5.4-1.2.7-.6 1 .1l.1.3.3-.1q.6-.2 1.2.5.4.4.3.7.5.9-.3 1.4t-1.2-.3q-.4-.6 0-1l-.2-.2-.2-.4-.4.3-.8.1zm-1.3 0q-.8.8-1.4-.3t.2-1.5q1-.5 1.4.3.5.7-.2 1.5m6.8-3.5q-.3.1-.6-.2t.2-.5.6.1-.2.6m-1.6 2q-.5-.6.1-1.1.6-.4 1 .3.3.6-.2 1t-.9-.2"/><path fill="#626b23" d="M49 63v.1q.5.8-.2 1.3-.8.6-1.3-.2t.3-1.3q.6-.3 1 0z"/></g><g id="v" transform="translate(33.4 27.1)"><use xlink:href="#g" width="121" height="60.5" transform="matrix(.75 0 0 .75 -33.4 -.05)"/><use xlink:href="#h" width="60" height="71.9" transform="translate(-25.45 -27.1)"/><use xlink:href="#i" width="38.1" height="13.4" transform="matrix(.48 .12 -.14 .57 6.55 -5.7)"/><use xlink:href="#i" width="38.1" height="13.4" transform="matrix(.4 -.09 .17 .75 -.1 -16.3)"/><use xlink:href="#j" width="62.3" height="24.6" transform="matrix(-.38 .03 0 .49 12.6 -21.75)"/><use xlink:href="#i" width="38.1" height="13.4" transform="matrix(.4 .09 -.13 .57 -15.35 -15.3)"/><use xlink:href="#i" width="38.1" height="13.4" transform="matrix(.14 .28 .52 -.26 -3.5 20.1)"/></g><path id="n" fill="url(#k)" d="M12.7-2.1Q12.7.3 9 2.7 5.3 5 0 5.8l-9-.2q-3.7-1.1-3.7-3.5T-9-2.6t9-3.2 9 .2 3.7 3.5" transform="translate(12.7 6.2)"/><path id="s" fill="#261f0b" fill-opacity=".1" d="M-19.7-8.4q4.1.6 8.6 0 6.9-1 10.3-3.9-1.8 11.5 32 13Q19 3 14.3 6.2q-3.6 2.3-3.2 6.2Q8 2.7-6.1-.2q-15.8-3.1-24.9-4 7-1.2 11.4-4.2" transform="translate(31.1 12.3)"/><path id="t" fill="url(#m)" d="M42.8-21.4Q60.5-12.5 60.5 0q0 12.6-17.7 21.4Q25 30.3 0 30.3t-42.8-8.9T-60.5 0t17.7-21.4T0-30.3q25 0 42.8 8.9" transform="translate(60.5 30.25)"/><use xlink:href="#n" id="b" width="25.4" height="12.4"/><use xlink:href="#s" id="j" width="62.3" height="24.6"/><use xlink:href="#t" id="g" width="121" height="60.5"/><clipPath id="u"><path d="M1 1h74v59H1z"/></clipPath></defs><g clip-path="url(#u)"><use xlink:href="#v" width="91.1" height="72.5" transform="translate(1 1)scale(.8104)"/></g></svg>