<svg xmlns="http://www.w3.org/2000/svg" xmlns:xlink="http://www.w3.org/1999/xlink" width="35" height="89" viewBox="0 0 35 89"><defs><g id="a"><path fill="#5f533f" d="m40.4 3.9-1.5 1.5-.4.3-.8.4-3 2-.7.4q-2.2 1-4.6 1l-.5-.2q-1.1-1-2.3-1.6v-.2H26q-1-.2-1-1.5l1.1-.3q1-.2 1.5-.7-.2-.2-.5-.2-1.5 0-1.6-1.3 0-1.1 1.1-1.2h.5q2-.2 2-1.9l-2-.4 7.5.3h.5l3.1.1 1.2 2 .5.8z"/><path fill="#362f26" d="M26.6 7.8q1.1.5 2.3 1.5l.6.2q2.3 0 4.5-1l.6-.4 3.1-2 .8-.4.4-.3 1.5-1.5q.4 1 .3 2.6-.1 2.7-1.7 3.8l-.9.3-1 .4q-2 .8-4.5.6l-1.6-.3-1.9-.5h-.5l-2.2-.4q-1-.6-1.3-1.9h.4q.8-.2 1-.7"/><path fill="#73624d" d="m27.1 0 2 .4q0 1.7-2 1.9h-.5q-1.2.1-1 1.2 0 1.3 1.5 1.3.3 0 .5.2-.5.5-1.5.7l-1 .3q-.2 1.3 1 1.5h.5v.3q-2.4-1.1-5.2-.8l-1.6.1-.2-.1-.6-.2-2.9.2q-2.3 0-2.3-.5t1.8-1.7L17 3.6l3-1.3 3-1.4 2.5-.7 1-.2z"/><path fill="#574b3c" d="m19.8 7.1 1.6-.1q2.8-.3 5.2.8-.3.5-1 .6l-.6.1q.4 1.3 1.4 1.9l-.9-.2-1.9-.3-1.1-.3-3.1-.6.1-.7q1-.4.3-1.2"/><path fill="#b49349" d="M19.8 7.1q.8.8-.3 1.3l-.1.6-3.3-.2-4-.2-5.6-.8 3-.3 2.5-.2 7.4-.2z"/><path fill="#baab79" d="m17 3.6-1.4 1.2Q13.8 6 13.8 6.5t2.3.5l3-.2.4.2.3.1h-.4l-7.4.2-2.6.2-3 .3-6-.7L0 7q.9-1.2 3-1l1.5-.2.6-.1 7.6-1.8 4.1-.5-1.2.8 1.8-.8-1 .5z"/><path fill="none" stroke="#211d18" stroke-linecap="round" stroke-linejoin="round" stroke-width="__RESOLUTION__" d="m40.4 3.9-.5-.7-.5-.8-1.1-2-3.1-.1h-.6L27.1 0h-.5l-1 .2-2.6.7-2.9 1.4-3 1.3" vector-effect="non-scaling-stroke"/><path fill="none" stroke="#4e4933" stroke-linecap="round" stroke-linejoin="round" stroke-width="__RESOLUTION__" d="m19.4 9 3.1.6 1.1.3 1.9.3.9.2 2.3.4h.4l1.9.5 1.6.3q2.5.3 4.5-.6l1-.4.9-.3q1.6-1.2 1.7-3.8 0-1.5-.4-2.6M6.6 7.8l5.6.8 4 .3 3.3.1m-13-1.2L.4 7H0q.9-1.2 3-1l1.5-.2.6-.1 7.6-1.8 4.1-.5-1.2.8 1.8-.8-1 .5.7-.4" vector-effect="non-scaling-stroke"/></g><g id="b"><path fill="#342b21" d="m35.6 10.8.5-.2.5-.2.6-.2.6-.4.8-.6h.4q1.5 1.6 2.5 3.4.3.5.2 1.2-.2 2.4.3 4.8l.2 1.1q0 1.5-.5 2.7l-1.2 3q-.2.4-.9.5-1.1.2-2.2.7l-.7.1q-1.7.2-3-.4l-1.3-.5q-1.7-.7-3.8-.6l-1.4-.1-3.3-.7.1-.7-.6-.2-3.4-1.4 2.4-.2q2.3.4 3.5-.8l-.5-.4-.8-.6q-.8-.9-2-1.2-.9-.2-1.6-.8l.8-.2 1.1-.2 2.2-.2.8-.1q1.2-.3 1.6-1l-.7-.3-.4-.3h.3l3.5-.2 1.3-.7 1-1.3.9-1 .6-.4q.5-.6 1.2-1z"/><path fill="#6f5f46" d="m35.6 10.8-.4.4q-.7.4-1.2 1l-.6.5-1 .9-1 1.3-1.2.8-3.6.1h-.2q-1.6-1.2-3.5-1.7l.6-.2 4-.7 3.2-.6.6-.1q2.2-.3 4.2-1.7"/><path fill="#635341" d="m26.5 15.8.3.3.7.3q-.4.7-1.6 1H25l-2.2.3-1.1.3H21q.8.7 1.6 1 1.2.2 2 1.1l.8.6.5.4q-1.2 1.1-3.5.8l-2.4.2 3.4 1.4.6.2-.1.7-4.6-1.4-5-1.5-2.4-.8-.7-.3h1.5q1.9.2 3.2-.7-.6-.1-.8-.7l-.3-.4-.5-.6q-1.7-2.2-4-3.4l3.7 1.2 1.4.3 3.2-.2-2.2-1.3q-.3-.3-.8-.4-1.7-.4-2.2-2l.3-.1.9-.2 3.2.8 1.9.8 2.1.8.9.4.8.5q1.4.6 3 .6"/><path fill="#f1dd98" d="m11.3 20.4-.2-.2q-3.9-3.1-7.3-6.5-1.4-1.5-1.6-3.4L2 9.2l-.4-1.6L.3 3.1 0 1.6V0l1 1 .9.7.8.6.3.4.3.3 1.8 1.3L8.4 7l-.3.3q.6.3.8 1 .5 1.3 1.5 1.8 2 1 4.2 1.8l-.8.2h-.4q.5 1.7 2.2 2.1.5.1.8.4l2.2 1.3-3.2.2-1.4-.4-3.7-1.1q2.3 1.2 4 3.5l.5.5.3.3q.3.7.8.8-1.3.9-3.2.7z"/><path fill="#8b755a" d="m8.4 7 .4.3.7.5 2.6 1 2.5.8.5.2.8.3 3 1.8.7.5.5.4q1.3 1 2.8 1.3 1.9.5 3.6 1.7-1.6 0-3-.7l-.8-.3-.9-.5-2.1-.9q-1-.5-1.9-.7l-3.2-.8q-2.2-.7-4.1-1.8-1.1-.5-1.6-1.7-.2-.8-.8-1z"/><path fill="none" stroke="#565134" stroke-linecap="round" stroke-linejoin="round" stroke-width="__RESOLUTION__" d="m23.9 24.4 3.3.7 1.4.1q2 0 3.8.6l1.3.5q1.3.6 3 .4l.7-.1q1-.5 2.2-.7.7-.1.9-.5l1.3-3q.5-1.2.4-2.7l-.2-1.1q-.5-2.4-.3-4.9 0-.6-.2-1.1-1-1.8-2.5-3.4h-.5l-.6.6-.6.3-.7.3-.5.3-.6.1q-2 1.3-4.2 1.7l-.6.1-3.2.7-4 .6-.6.2q-1.5-.3-2.8-1.2l-.5-.5-.7-.5-3-1.8-.8-.3-.5-.2L12 9 9.5 7.7l-.7-.4-.4-.3-3.3-2.7L3.3 3 3 2.7l-.4-.4-.7-.6L1 1 0 0v1.7l.3 1.5 1.3 4.4.4 1.6.2 1q.1 2 1.6 3.5 3.4 3.4 7.3 6.5l.2.2.6.3 2.4.8 5 1.4z" vector-effect="non-scaling-stroke"/></g><g id="c"><path fill="#6f5f46" d="m40.4 3.9-1.5 1.5-.4.3-.8.4-3 2-.7.4q-2.2 1-4.6 1l-.5-.2q-1.1-1-2.3-1.6v-.2H26q-1-.2-1-1.5l1.1-.3q1-.2 1.5-.7-.2-.2-.5-.2-1.5 0-1.6-1.3 0-1.1 1.1-1.2h.5q2-.2 2-1.9l-2-.4 7.5.3h.5l3.1.1 1.2 2 .5.8z"/><path fill="#342b21" d="M26.6 7.8q1.1.5 2.3 1.5l.6.2q2.3 0 4.5-1l.6-.4 3.1-2 .8-.4.4-.3 1.5-1.5q.4 1 .3 2.6-.1 2.7-1.7 3.8l-.9.3-1 .4q-2 .8-4.5.6l-1.6-.3-1.9-.5h-.5l-2.2-.4q-1-.6-1.3-1.9h.4q.8-.2 1-.7"/><path fill="#8b755a" d="m27.1 0 2 .4q0 1.7-2 1.9h-.5q-1.2.1-1 1.2 0 1.3 1.5 1.3.3 0 .5.2-.5.5-1.5.7l-1 .3q-.2 1.3 1 1.5h.5v.3q-2.4-1.1-5.2-.8l-1.6.1-.2-.1-.6-.2-2.9.2q-2.3 0-2.3-.5t1.8-1.7L17 3.6l3-1.3 3-1.4 2.5-.7 1-.2z"/><path fill="#635341" d="m19.8 7.1 1.6-.1q2.8-.3 5.2.8-.3.5-1 .6l-.6.1q.4 1.3 1.4 1.9l-.9-.2-1.9-.3-1.1-.3-3.1-.6.1-.7q1-.4.3-1.2"/><path fill="#e8ba53" d="M19.8 7.1q.8.8-.3 1.3l-.1.6-3.3-.2-4-.2-5.6-.8 3-.3 2.5-.2 7.4-.2z"/><path fill="#f1dd98" d="m17 3.6-1.4 1.2Q13.8 6 13.8 6.5t2.3.5l3-.2.4.2.3.1h-.4l-7.4.2-2.6.2-3 .3-6-.7L0 7q.9-1.2 3-1l1.5-.2.6-.1 7.6-1.8 4.1-.5-1.2.8 1.8-.8-1 .5z"/><path fill="none" stroke="#16120e" stroke-linecap="round" stroke-linejoin="round" stroke-width="__RESOLUTION__" d="m40.4 3.9-.5-.7-.5-.8-1.1-2-3.1-.1h-.6L27.1 0h-.5l-1 .2-2.6.7-2.9 1.4-3 1.3" vector-effect="non-scaling-stroke"/><path fill="none" stroke="#565134" stroke-linecap="round" stroke-linejoin="round" stroke-width="__RESOLUTION__" d="m19.4 9 3.1.6 1.1.3 1.9.3.9.2 2.3.4h.4l1.9.5 1.6.3q2.5.3 4.5-.6l1-.4.9-.3q1.6-1.2 1.7-3.8 0-1.5-.4-2.6M6.6 7.8l5.6.8 4 .3 3.3.1m-13-1.2L.4 7H0q.9-1.2 3-1l1.5-.2.6-.1 7.6-1.8 4.1-.5-1.2.8 1.8-.8-1 .5.7-.4" vector-effect="non-scaling-stroke"/></g><g id="d"><path fill="#38332a" d="m35.6 10.8.5-.2.5-.2.6-.2.6-.4.8-.6h.4q1.5 1.6 2.5 3.4.3.5.2 1.2-.2 2.4.3 4.8l.2 1.1q0 1.5-.5 2.7l-1.2 3q-.2.4-.9.5-1.1.2-2.2.7l-.7.1q-1.7.2-3-.4l-1.3-.5q-1.7-.7-3.8-.6l-1.4-.1-3.3-.7.1-.7-.6-.2-3.4-1.4 2.4-.2q2.3.4 3.5-.8l-.5-.4-.8-.6q-.8-.9-2-1.2-.9-.2-1.6-.8l.8-.2 1.1-.2 2.2-.2.8-.1q1.2-.3 1.6-1l-.7-.3-.4-.3h.3l3.5-.2 1.3-.7 1-1.3.9-1 .6-.4q.5-.6 1.2-1z"/><path fill="#504738" d="m35.6 10.8-.4.4q-.7.4-1.2 1l-.6.5-1 .9-1 1.3-1.2.8-3.6.1h-.2q-1.6-1.2-3.5-1.7l.6-.2 4-.7 3.2-.6.6-.1q2.2-.3 4.2-1.7"/><path fill="#4b4336" d="m26.5 15.8.3.3.7.3q-.4.7-1.6 1H25l-2.2.3-1.1.3H21q.8.7 1.6 1 1.2.2 2 1.1l.8.6.5.4q-1.2 1.1-3.5.8l-2.4.2 3.4 1.4.6.2-.1.7-4.6-1.4-5-1.5-2.4-.8-.7-.3h1.5q1.9.2 3.2-.7-.6-.1-.8-.7l-.3-.4-.5-.6q-1.7-2.2-4-3.4l3.7 1.2 1.4.3 3.2-.2-2.2-1.3q-.3-.3-.8-.4-1.7-.4-2.2-2l.3-.1.9-.2 3.2.8 1.9.8 2.1.8.9.4.8.5q1.4.6 3 .6"/><path fill="#847a59" d="m11.3 20.4-.2-.2q-3.9-3.1-7.3-6.5-1.4-1.5-1.6-3.4L2 9.2l-.4-1.6L.3 3.1 0 1.6V0l1 1 .9.7.8.6.3.4.3.3 1.8 1.3L8.4 7l-.3.3q.6.3.8 1 .5 1.3 1.5 1.8 2 1 4.2 1.8l-.8.2h-.4q.5 1.7 2.2 2.1.5.1.8.4l2.2 1.3-3.2.2-1.4-.4-3.7-1.1q2.3 1.2 4 3.5l.5.5.3.3q.3.7.8.8-1.3.9-3.2.7z"/><path fill="#5b5040" d="m8.4 7 .4.3.7.5 2.6 1 2.5.8.5.2.8.3 3 1.8.7.5.5.4q1.3 1 2.8 1.3 1.9.5 3.6 1.7-1.6 0-3-.7l-.8-.3-.9-.5-2.1-.9q-1-.5-1.9-.7l-3.2-.8q-2.2-.7-4.1-1.8-1.1-.5-1.6-1.7-.2-.8-.8-1z"/><path fill="none" stroke="#464231" stroke-linecap="round" stroke-linejoin="round" stroke-width="__RESOLUTION__" d="m23.9 24.4 3.3.7 1.4.1q2 0 3.8.6l1.3.5q1.3.6 3 .4l.7-.1q1-.5 2.2-.7.7-.1.9-.5l1.3-3q.5-1.2.4-2.7l-.2-1.1q-.5-2.4-.3-4.9 0-.6-.2-1.1-1-1.8-2.5-3.4h-.5l-.6.6-.6.3-.7.3-.5.3-.6.1q-2 1.3-4.2 1.7l-.6.1-3.2.7-4 .6-.6.2q-1.5-.3-2.8-1.2l-.5-.5-.7-.5-3-1.8-.8-.3-.5-.2L12 9 9.5 7.7l-.7-.4-.4-.3-3.3-2.7L3.3 3 3 2.7l-.4-.4-.7-.6L1 1 0 0v1.7l.3 1.5 1.3 4.4.4 1.6.2 1q.1 2 1.6 3.5 3.4 3.4 7.3 6.5l.2.2.6.3 2.4.8 5 1.4z" vector-effect="non-scaling-stroke"/></g><g id="e"><path fill="#453a30" d="m40.4 3.9-1.5 1.5-.4.3-.8.4-3 2-.7.4q-2.2 1-4.6 1l-.5-.2q-1.1-1-2.3-1.6v-.2H26q-1-.2-1-1.5l1.1-.3q1-.2 1.5-.7-.2-.2-.5-.2-1.5 0-1.6-1.3 0-1.1 1.1-1.2h.5q2-.2 2-1.9l-2-.4 7.5.3h.5l3.1.1 1.2 2 .5.8z"/><path fill="#372e27" d="M26.6 7.8q1.1.5 2.3 1.5l.6.2q2.3 0 4.5-1l.6-.4 3.1-2 .8-.4.4-.3 1.5-1.5q.4 1 .3 2.6-.1 2.7-1.7 3.8l-.9.3-1 .4q-2 .8-4.5.6l-1.6-.3-1.9-.5h-.5l-2.2-.4q-1-.6-1.3-1.9h.4q.8-.2 1-.7"/><path fill="#4c3f34" d="m27.1 0 2 .4q0 1.7-2 1.9h-.5q-1.2.1-1 1.2 0 1.3 1.5 1.3.3 0 .5.2-.5.5-1.5.7l-1 .3q-.2 1.3 1 1.5h.5v.3q-2.4-1.1-5.2-.8l-1.6.1-.2-.1-.6-.2-2.9.2q-2.3 0-2.3-.5t1.8-1.7L17 3.6l3-1.3 3-1.4 2.5-.7 1-.2z"/><path fill="#42382e" d="m19.8 7.1 1.6-.1q2.8-.3 5.2.8-.3.5-1 .6l-.6.1q.4 1.3 1.4 1.9l-.9-.2-1.9-.3-1.1-.3-3.1-.6.1-.7q1-.4.3-1.2"/><path fill="#614f33" d="M19.8 7.1q.8.8-.3 1.3l-.1.6-3.3-.2-4-.2-5.6-.8 3-.3 2.5-.2 7.4-.2z"/><path fill="#635743" d="m17 3.6-1.4 1.2Q13.8 6 13.8 6.5t2.3.5l3-.2.4.2.3.1h-.4l-7.4.2-2.6.2-3 .3-6-.7L0 7q.9-1.2 3-1l1.5-.2.6-.1 7.6-1.8 4.1-.5-1.2.8 1.8-.8-1 .5z"/><path fill="none" stroke="#312923" stroke-linecap="round" stroke-linejoin="round" stroke-width="__RESOLUTION__" d="m40.4 3.9-.5-.7-.5-.8-1.1-2-3.1-.1h-.6L27.1 0h-.5l-1 .2-2.6.7-2.9 1.4-3 1.3" vector-effect="non-scaling-stroke"/><path fill="none" stroke="#3f372b" stroke-linecap="round" stroke-linejoin="round" stroke-width="__RESOLUTION__" d="m19.4 9 3.1.6 1.1.3 1.9.3.9.2 2.3.4h.4l1.9.5 1.6.3q2.5.3 4.5-.6l1-.4.9-.3q1.6-1.2 1.7-3.8 0-1.5-.4-2.6M6.6 7.8l5.6.8 4 .3 3.3.1m-13-1.2L.4 7H0q.9-1.2 3-1l1.5-.2.6-.1 7.6-1.8 4.1-.5-1.2.8 1.8-.8-1 .5.7-.4" vector-effect="non-scaling-stroke"/></g><g id="n"><path fill="#fbf3dd" d="m24.9 5.8-.1.2-.1-.2zm-.1 0V6l-.3-.2v-.2zm-1.3 3.3-.2.2V9zM18 17.9v.4zm8.6 1 .1-.2.2.1 1.2.5 1.3.9-1.4-.5q-.8-.3-1.4-.9m3 1.3v.1"/><path fill="#fcf5e9" d="M24.8 6v-.2q.9.5 1 1.5V8q0 .8.4 1.5l.3.5-.2.2-.8-.2-.2-.2-.7-.8-.7.1-.1.3.4.4-.3.2h-1l-.1-.4-.1-.6-.5-.5-.3.1-.1.5v1l.3.7.1.2v.2h-.4l-.1-.1q-.3-.1-.3-.5v-1l-.3-1.3q-.3-.8-1-1l-.6 1.5H19l-.2-1.1-.7.3h-.7l.6-2.7.3.2.8.1 1.9.2.5 2.2.9-.6h.2l.5 1.7v.2l.2-.2q.5-.8.6-1.7v-1l.4-.6zm-6.3 3.5q.5 0 .8-.3l.6-.7q.5-.2.7.2.4.6.4 1.2-.1 1 .8 1.5l.3.9V14l.1 1.3-.1.2-.2-.2-.4-.8-.2-.3q-.3-.5-.4-1.1 0 1.1-.4 2.1l-.2.2-.6-.1-.1-.4-.5.2-.4.2-.9.5-.4-.2-.1.1-1 .1-.4.1-.4.1-.1.1-.3.1-.6-.2v-.2l.4-.5 1-.1.6.1h.4l1.7-.7-.3-4.7-.2.5q-.3.3-.9.3l-.4-.2q-.2-.3 0-.6v-.2l.6-.2q.5-.3.6-.9h.2l.1.8zm.3 10.2-.1 1.4q-.1.2-.4.2t-.4-.2v-.6q.7-.2.6-1z"/><path fill="#9e8447" d="m24.4 5.8-.4.6v1q-.1 1-.6 1.7h-.2l-.5-1.7h-.2l-.9.6-.5-2.2-2-.2-.7-.1-.2-.2-.1-.1V5h4.7l1.7.6zm-2.7 5.3.2.1h.2l.1-.2-.1-.2-.3-.8v-.9l.1-.5.3-.1.5.5.1.6.1.4h1l.3-.2-.4-.4.1-.3.7-.1.7.8v1.4l-.3-.6-.3-.3-.2-.3-.3.1-.1.2-.9.1h-.5v.8l-.1.3h-.9zm.5-4.6-.8-1.2-.2-.3.2.3zM18 17.9l.4-.8.2-.1.5-.3h.8l.2.1h.1l.3.1v.1l.1.3v.6l-.2.3-.1.3h-.1l-.1.2-.1.1-.1.1h-.3l-.2-.1.7-.4-.1-.7-1.2-.3-.6 1 .3.9.1.4-.2-.2-.1-.2-.4-.6v-.8m8.8.8-.1-.3v-.6l.2-.3h.1l.4-.2 1.1.1.7.3h.2l.2.3.2.6.1.2.2.3.1.1 1.1.5.1.1.1.1.2.6v.4l-.2.1-1 .1v-.2l-.7-2.1-.4-.6-.3.2-.3-.4-.3-.2q-.5-.2-1.1.2v.4l.6.4 1.5 1.2-.1.2-1.3-.9-1.2-.5zm-8.3.8.1-.2z"/><path fill="#f5e1b4" d="m18.2 8 .7-.3.2 1.1h.4l.6-1.6q.7.3 1 1.1l.3 1.3v1q0 .4.3.4v.5h.9v-.2l.1-.5v-.4h.5l.3 2v1.3q.2 1-.3 1.8v.3h.7l.3.2.3.3.4.1 1.3-.2.2.1.6.5.2-.2q.1.2.3.1.9 0 1.5.4l.4.3v.3h-.2l-.7-.3-1.1-.1-.4.1-.1.1-.2.3v.9l-.1.1-.9-.9-.6-.1-1.9-.1-1.6.2q-1 .2-1.5 1v-.2l.2-.2.2-.3.2-.3V17h-.1l-.3-.2H20l-.7-.2-.1.1-.5.3-.2.1-.4.8H18v-.6l.5-.5q.3-.3.3-.9h-1l1-.5.3-.2.5-.2.1.4.6.1h.1l.1-.2q.5-1 .4-2.1 0 .6.4 1.1l.2.3.4.8.2.2.1-.2v-1.3l-.1-1.7-.4-.9Q21 11 21 10q0-.6-.4-1.2-.2-.4-.7-.2l-.6.7-.7.3h-.1V8.4l-.3-.1zm11.3 12 .1.1v.1h-.2z"/><path fill="#d9ca99" d="M23.2 10.4h.9V10h.4l.2.2.3.3.3.6-.1 2.1-.5 2h.1l.6.2.4.2 1 .3.3.3v.1l.1.3-.2.1-.6-.5-.2-.1-1.3.2-.4-.1-.3-.3-.3-.2h-.7v-.3q.5-.8.4-1.8l-.1-.8v-.5zm4.9 11.9V21l.4 1.3 1 1.9-.2.2-.2.5-1-.6q-.4-.2-.2-.7l.2-.4z"/><path fill="#f5f1e9" d="m20.5 15.3-.1.2h-.1zm-2.3-6.9.3.1v1h-.2l-.1-.8z"/><path fill="#cdc0a5" d="M17.8 15.9h1q0 .6-.3 1l-.5.4v1.4l.4.6.1.2q0 .8-.5 1l-.1.3v.3q.1.2.4.2t.4-.2v-1.4l-.1-.4-.4-1 .7-.9 1.2.3v.7l-.6.4h.2l.2.1h.2q.5-.8 1.4-1l1.8-.2 1.8.1.6.1.9 1q.6.5 1.4.8l1.4.5h.2l-.1-.2-1.5-1.2-.6-.4V18q.6-.4 1.1-.2l.3.2.3.4.3-.1.4.4.7 2.2v.2l.2 1.1q.9 5-2 8.8l-.5.1h-.4l-2.1-.1.2-.1q2-1.6 2-4.4h-.6l-1.5.4-.5.3-.6.7q-1.5 1.5-2.6 3.3H22l-.4.8-1.1 2.1h.1q-.1 4.3-4.1 6.4-1.5.9-3.1 1.4-1.3-.2-2.3-1 3.4-1.4 6.7-3.1l1.1-1q.7-.9.4-1.8h-.1q-.7 1.6-2 2.8v-1.2l-.9.4v-1.2l-.1.1q-.2.5-.7.9l-.1-.7v.1q-.1-1-1.1-1.4l-.3-.1q-.2.6-.7 1l-.2.2-.2-.1-.4.1-.5-.7-.1-.3-.1-.6v-.5h-.4l-1.1 1.5-.2.1-.2-.5-.1-.5.4-1.6-.6 1.1-.2.4-.1.1-.2-.1v-.6l.5-1.6.4-.7.6-.4.3 2.5.6-.9.6.8h.3q.5.4.8 1l.7-.4.3.1.2.2h.5l.1-.2h.2l.4.4h.6l.5.1 1.1.4q1.8-4.2 5.1-7.4h.1l-.3-.2.6-.3h.1q1.2-.9 1.9-2l1.9-.6.6-.7.1-.2q-.1.5.3.7l.9.6.2-.5.2-.2-1-2L28 21v1.3l-.2-.9-.6-.9q-.6-.6-1.3-.6-4.6.1-8.2 3.3V23q-.4-.7-.4-1.5v-.3l-.1-.4q-.1-.6-.5-1.1v-.1l-1-1.1-.2-.2q-.6-.8-1.5-1l1.3-1V16l.5-.1.3-.1h1l.2-.2zm9.7.8h-.3v-.3zm-2.8-1.4h.1zm-8.1 12.9V28l.5-.3v1.8h.1l-.1.6-.1.1q0 .3-.2.5l-.8.7-.6.5-.2.1h-.1l-.3.1-.2.2q-.3.1-.8 0v-1.5l-.1-.2-.8.6V30l.1-.1 1.2.1.1.2v1.3l.6.1.5-.4.8-1 .4-.5z"/><path fill="#eee8d2" d="M17.4 21.5q0 .8.4 1.5v.1q3.6-3 8.2-3.2.8 0 1.3.6l.6 1 .2.8v1l-.2.3-.1.2-.6.7-2 .6q1-1.4.8-3.2v-.2l-.2-.4H25q-1.8 0-3.8.7-2 .8-2.5 2.8-.2 1 .1 1.7l.4.5.6.4h2.9l.3.2h-.1q-3.3 3.1-5.1 7.4l-1.1-.4h-.5l-.6-.1-.4-.5H15l-.1.3h-.5l-.2-.1-.3-.2-.7.3q-.3-.5-.8-.9H12l-.6-.8-.6.9-.3-2.5-.6.4-.4.8q-3 2.8-6.7 1.4Q1.5 33 .2 32L0 30.4l.4-1.7q-.2.9.1 1.7.4 1.2 1.5 1.8 5 2.9 8.8-2.2l.3-.5.8-2.2-.2-.1q-1-1.6-.6-3.4l1-3.3q.7-1.6 1.8-2.8l.2-.3q.9.2 1.5 1l.3.2-.3-.2q-.5-.3-1.2-.4l-.6.8q-1.7 2.8.3 5.4.8 1.2 1.8.3l.2-.1q1.2-1.3 1.3-2.8m-.1 16.3q1.2-1.1 1.9-2.7V35q.4.9-.3 1.8l-1.1 1q-3.3 1.8-6.7 3.1-1.1-.8-2-2.2 3.8 1.8 7.6-.5h.2zm8-10.5V27l.5-.2-.1.3zm-8-6.4-.3-.7-.2-.4q.4.5.5 1.1m-5 4-.4 2.3zm.7 5v1.1l.8-.6.1.3v1.5q.5.1.8 0l.2-.2h.3l.1-.1.2-.1.6-.5.8-.7q.2-.2.2-.5v-.1l.2-.6-.1-.5v-1.2l-.4.2h-.1v.1h-.1q-.8-.1-1.5.5l-.3.2-.1-1.4q-1 1-1.6 2.4zm-2.2 0-.8 1.4z"/><path fill="#1b1610" d="M25.3 25.2q-.7 1-1.9 1.8l-.1.1-2.4-.3-.5-.2-.3-.2-.4-.2-.2-.3q-.2-.2-.2-.5l.7-.8 1.7-1.2q1.5-1 3.3-1.3l1-.2q.2 1.9-.7 3.3m-9.4-.8q-.9-.7-1.3-1.7l-.1-.9-.1-1v-1.2l.4-.7.8-.6.3.2.8 1.1.1.1.2.4.3.7v.4l.1.3q-.1 1.5-1.3 2.8z"/><path fill="#786743" d="m23.3 27.1-.6.3h-2.9l-.6-.4-.4-.5q-.3-.7-.1-1.7.5-2 2.5-2.8t3.8-.7h.8l.2.4v.2l-1 .2q-1.8.3-3.3 1.3L20 24.6l-.7.8q0 .3.2.5l.2.3.4.2.3.3.5.1zm-13.7 5L9 33.8v.2l-.1.4q-2.8 1.8-5.6.6Q.9 33.9.2 32q1.3 1 2.7 1.6 3.7 1.4 6.7-1.5m-.2 2.1.2-.3.6-1.1-.4 1.6v-.7zm.7 1.2.2-.1 1.1-1.5h.4v.3h-.1l-1 2.2zm1.8-.5.1.3.5.7-.4.1zm1.2 1 .2-.1q.5-.5.7-1.1l.3.1q1 .4 1 1.4l-.4.6-.7-1.8-.8 1.3zm2.4.9q.5-.4.7-.9l.1-.1V37l-.7.3zm-2.1 5.1q1.6-.5 3.1-1.4 4-2.1 4.1-6.4h-.1l1-2.1.5-.8q1.2-1.8 2.7-3.3l.6-.6.4-.2.1-.2 1.4-.4h.7q0 2.8-2 4.4l-.2.1h-.8q1-1.2 1.5-2.9v-.3q-2-.2-3 2-.4.7-.4 1.6l-.3.2q.1 3.2-1.6 6.2-1.2 2.1-3.2 3.1-2.5 1.4-4.5 1m9.3-10.3-1.1.4zm-7-13.3-.8.6-.3.7-.1 1.2v1l.2.8q.4 1.1 1.3 1.8-1 .9-1.8-.2-2-2.7-.3-5.5l.6-.8q.7.1 1.2.4"/><path fill="#32291d" d="M23 31.4q0-.9.4-1.6 1-2.2 3-2v.3q-.5 1.6-1.5 2.9z"/><path fill="#000" d="M16.6 28.2v1.6l-.4.5-.8 1-.5.4h-.6v-1.4l-.1-.2L13 30v-.1q.6-1.4 1.6-2.4l.1 1.4.3-.2q.7-.6 1.5-.5"/><path fill="none" stroke="#342b21" stroke-linecap="round" stroke-linejoin="round" stroke-width="2" d="m21.2 5-.1-.7v-.2l-.1-.4v-.9l.2-.3.3-1.2.2-.3m-.5 4 .2.3.8 1.2"/><path fill="none" stroke="#f1dd98" stroke-linecap="round" stroke-linejoin="round" stroke-width="__RESOLUTION__" d="M24.8 5.8V6l-.3-.2-.4.6v1q-.1 1-.6 1.7l-.2.2V9l-.5-1.7h-.2l-.9.6-.5-2.2-2-.2-.7-.1-.2-.2-.1-.1V5h4.7l1.7.6zm-6.6-.5L17.5 8h.7l.7-.3.2 1.1h.4l.6-1.6q.7.3 1 1.1l.3 1.3v1q0 .4.3.4m0 .1.2.1h.2l.1-.2-.1-.2-.3-.8v-.9l.1-.5.3-.1.5.5.1.6.1.4h1l.3-.2-.4-.4.1-.3.7-.1.7.8.2.2q.4.3.8.2l.2-.2-.3-.5q-.4-.7-.4-1.5v-.7q-.1-1-1-1.5m.5 5.4V9.8M17.8 16h1q0 .6-.3 1l-.5.4v1.4l.4.6.1.2q0 .8-.5 1l-.1.3v.3q.1.2.4.2t.4-.2v-1.4l-.1-.4-.4-1 .7-.9 1.2.3v.7l-.6.4h.2l.2.1h.2q.5-.8 1.4-1l1.8-.2 1.8.1.6.1.9 1q.6.5 1.4.8l1.4.5h.2l-.1-.2-1.5-1.2-.6-.4V18q.6-.4 1.1-.2l.3.2.3.4.3-.1m0-.6v-.3l-.4-.2q-.6-.6-1.5-.5h0-.3v-.3H27l-.2-.4-1.1-.3-.4-.2-.6-.2h-.1 0l.5-2 .1-2.1M18 8.7q-.1.6-.6.9l-.6.2v.2q-.2.3 0 .6l.4.2q.6 0 .9-.3l.2-.5.3 4.8-1.7.6h-.4l-.5-.1-1.1.1-.4.5v.2l.6.2h.3V16l.5-.1.3-.1h1m.2-.2.4.2m10.3 6.4V21l.4 1.3 1 1.9-.2.2-.2.5-1-.6q-.4-.2-.2-.7l.2-.4zm-9.5-3-.1.2.3.2m10.6-2 .2.3.2.6.1.2.2.3.1.1 1.1.5.1.1.1.1.2.6v.4l-.2.1-1 .1M18.2 8.1v.7m-.2 0V8" vector-effect="non-scaling-stroke"/><path fill="none" stroke="#8c7253" stroke-linecap="round" stroke-linejoin="round" stroke-width="__RESOLUTION__" d="m27.2 16.4.3.3M10 31.4l-.4.8-.5 1.5v.5h0l.2.2v-.1l.5-.6v.7l.1.5.2.5.7.9.9-2.2h.1v.1m.7 1.7.4-.1.2.1.3.4.8-1.3.7 1.8.5-.6v-.1.7l.2.6.7-.4.9-.4v1.2q1.3-1.1 2-2.7V35m-8.1 5.9q1 .8 2.3 1 2 .4 4.5-1 2-1 3.2-3.1 1.7-3 1.6-6.2l.3-.2 1.9-.4h.5m-4.9 3.1 1-2.1.5-.8h0q1.2-1.8 2.7-3.3l.6-.6V27m.4 3.9 2.1.1h.9v0q2.9-3.7 2-8.8l-.2-1.1v-.2l-.7-2.1-.4-.6M21.6 32l1-.4m-10.9-4.5q-1-1.6-.6-3.4l1-3.3q.7-1.6 1.8-2.8h0l.2-.3 1.3-1M11.9 27l.5-2.3M.2 32 0 30.4l.4-1.7q-.2.9.1 1.7.4 1.2 1.5 1.8 5 2.9 8.8-2.2h0l.3-.5.8-2.2m-2 4.2.9-1.5m1.7 6-.4.1-.2-1.1m-2.8-.6q-2.8 1.8-5.6.6Q.9 33.9.2 32m8.9 2.1-.1.1m2 6.7q-1-.8-1.8-2.2 3.7 1.8 7.5-.5h.2l.2-.3.1-.1v.1l-.3.3" vector-effect="non-scaling-stroke"/></g><g id="i"><path fill="#3a3025" d="M10.4.3V.1h.1q.5 1.3.4 2.7v4.6l1-3.4-.3 10.7-.5-2.4q-.7 2.6-.3 5.2.8 6.1-2.2 11.3l.4-7.9 1.4-19.6h-.3l-.5.8zM15 3.1l1.1 1.8-.4 5.7-1 .1q0 6.5-2.4 12.3l-.2 4 2.2-6.7.3.4q-2.1 10.9-1.6 22l-.9-2.1h-.3v4l-.8-.1V44l-.2-1-.3-1.4-.5-1.4h-.4v1.6Q10.2 47 9 52l-.2.3H9q2.7-.3 5.1.5l.3.1.6-.7.4-6.4v-2.2q.2-2.6-.1-5-.5-4.5-.2-8.9l.7-18.8-1-.1.2-6.3zm-12.5.8v-.7l.4-.6.3-.3.1-.1L2.6 8l-.1-.1zL3 2.6zM3.7 2h.1L5 1.4v3.4l.5-2.5q0 2.6-.6 5.2l-.2.7q-.1-2.8-.9-5.4l-.2-.7zm2-.1.3-1 .6-.3v1L7.1.3l1-.4.3 3.9-.3-1.4-.4 4.2-.3-.9q-.2-2.2-1-4zm3.1 2.8L9.3 3 9 7.8zM11 34q0 2.5-1 4.9h-.2l.2-7q1 .6 1 2M3.5 52l-.5-.2q-.2-3.8.5-7.4l.3 2.6q0 1.1.5 2l.4.6v1.9zm3 .2.1-2.4.4-8.3.6 7.1-.1 3.6z"/><path fill="#574939" d="m9.6 2.1.5-.8h.3L9 20.9l-.4 7.9q3-5.2 2.2-11.3-.5-2.6.3-5.2l.5 2.4.3-10.7L13.1.9l2 2.2-.1 1.3-.2 6.3q0 6.5-2.4 12.3l-.2 4 2.2-6.7.3.4q-2.1 10.9-1.6 22l-.9-2.1h-.3v4l-.8-.1V44l-.2-1-.3-1.4-.5-1.4h-.4v1.6Q10.2 47 9 52l-.2.3H7.6l.1-3.7q1.6-8.8.4-17.4l-.2-1-1-.6V32l-.2.4-.3.4-.2.2v.8l.2.3.1.4.2.2.5.5.4.2-1.3 1.4.1.7-.6 2.6Q5.6 35 6.2 30l.3-2.5v1.4l.8-15-.9 2.6-.9-.3v-2.9L5 11l-.2-.6L6.4 7l2.3 2.8.4-2L9.3 3zm6.2 8.5v.2l-1-.1zM11 34q0-1.5-1-2.2L9.8 39h.3q1-2.4.9-5M2.1 52v-.5l.1-.9 1.3-25q1 5-.2 10l.3 1.4q.6 6.8 3 12.8l-.2 2.4-1.7-.1v-2.5l-.4-.6q-.5-.9-.5-2l-.3-2.6Q2.8 48 3 51.8l.5.2H2"/><path fill="#6f5f46" d="m14.5 52.9-.3-.1zm-12.3.7-.5-.4-.2-.5-.1-.2-.5-1-.2-.3-.4-.7v-.1L0 50q.1-7.6 1-15l.5-4.7q.2-2.7 0-5.4-.2-3.5 0-7l-.1-4Q1 8.1 2.6 3.9l-.1 3.9h.1l.7-5.5.1-.1-.3.2v.2l.2-.3h-.2.2l.1-.1.2-.2v.1l.2.7q.8 2.6 1 5.4l.1-.7q.6-2.6.6-5.2l.1-.3.8-.2q.8 1.8 1 4l.3.9.4-4.2.3 1.4-.2 3 .5-2.2.4 3.1-.4 2L6.5 7l-1.7 3.4.2.6.4 2.2.1 2.9.9.3.9-2.5-.7 15v-1.5l-.3 2.5q-.7 5-.6 10.3l.6-2.7-.1-.7 1.3-1.4-.4-.2-.5-.5-.2-.2-.2-.4v-.4L6 33l.3-.2.3-.4.2-.4v-2.5l1 .5.2 1.1q1.2 8.6-.4 17.4L7 41.4l-.4 8.3q-2.3-6-3-12.8l-.3-1.4q1.3-5 .2-10l-1.3 25v.9l-.1.5zM3.6 2.1l-.3.1zm-.1 4.7-.3 3.6q-.7 7-.4 14l1.8-1.2.1.2.5-.1-.1-3L4 22.7zM1 35l-.5 8.5q-.2 1.4 0 2.9l.2.9.3.3q.8-9.4.6-18.5l-.1 1.2-.3 2.6z"/><path fill="#393021" d="m14.4 53-.3.5-1.3.9h-.4l-.2.1-2.1.6H8.3l.7-2.9q2.7-.3 5.1.5zm-7.1 2h-.5l-.4-.1.1-2.7h1zm-2.4-.1h-.2l-.9-.3-.7-.4V52h.4l1.2-.5v.6z"/><path fill="#524939" d="m8.3 55.1-.5-.1h-.4l.2-2.9 1.3.1H9zm-1.9-.3H4.9V52l1.6.1h.1zM3 54.2V54l-.9-.6v-1.6h1z"/><path fill="#8b755a" d="m3.5 6.8.5 16 1.1-2.5v3l-.4.1-.2-.2-1.7 1.3q-.2-7 .4-14zm-2 23.5.1-1.2q.1 9.1-.6 18.4l-.3-.2-.2-.9q-.2-1.5 0-2.9L1 35l.2-2.1z"/><path fill="none" stroke="#565134" stroke-linecap="round" stroke-linejoin="round" stroke-width="__RESOLUTION__" d="m11.9 4-1 3.4V2.8q.1-1.4-.4-2.7h0l-.2.2v.1l-.7 1.7-.3.9-.6 1.8-.4 2L8.4 4l-.3-4L7 .4l-.6 1.2V.7l-.6.3-.3 1v.3L5 4.8V1.4L3.9 2h-.2l-.2.2-.3.2v.2L2.4 4M10 1.4h.3M15.2 3l1.1 1.8-.4 5.7v.2M.2 50.4l-.2-.3M3.3 2.3h-.2m.5-.2.1-.1m-.4.3.3-.2" vector-effect="non-scaling-stroke"/><path fill="none" stroke="#0e0c0a" stroke-linecap="round" stroke-linejoin="round" stroke-width="__RESOLUTION__" d="M11.9 4 13.1.9l2 2.2m.7 7.7-.7 18.8q-.2 4.4.2 8.9.3 2.4.1 5m-1 9.4-.3.6-1.3.9h-.4l-.2.1-2.1.6H8.3m-1.9-.3H4.9h0l-1-.3-.7-.4m-1-.6-.5-.4-.2-.5-.1-.2-.5-1-.2-.3-.4-.7m-.2-.3q0-7.7.9-15.1l.2-2.1.3-2.6q.2-2.7 0-5.4-.2-3.5 0-7l-.1-4Q1 8.1 2.6 3.9" vector-effect="non-scaling-stroke"/></g><g id="g"><path fill="#2b2321" fill-opacity=".3" d="M17.6 0H20l.4.3.3.3.2.4 1.8.8-3 1.6-.6.6.5-.7-1 1.2-.1-.2q-.6-.7-1.1-2.1-.5-1.3.2-2.2m.8 4.9-.1.3V5zM9 5.1l-1.1.8-.2-1.4L4.6 4l3.7-.8v.4l.1-.1h.9l.4.1.3.1h.7l.2.2.8.1q.5 0 .6-.5h.1v1.8q-1.9-1-3.5-.2M3 0h.9L2.7.4z"/><path fill="#442d11" fill-opacity=".3" d="M20 0h.3v.3zm.8 1 1.8.7zm5.3 2.2.6.2H26zm-7.9 2q-.4.5-.3 1.3v.3l-.4-.4-.1-.7.8-.8z"/><path fill="#2b2321" fill-opacity=".1" d="M22.7 1.7 26 3.2v.2q-6 0-7.7 1.5V5l-.1.1L18 5l.5-.4 1-1.2-.5.8.6-.7zM17 5.9l.3.5q-.3 1-.4 2.5l.1.5-3.8-2.6q-.8-1.2-2.8.8 0-.8-1.4-2.4l-.2-.1q1.6-.8 3.4.3l3.1-1.6zM2.7 2 0 1.4 2.5 0h.4l-.2.4L3.8 0h1z"/><path fill="#2b2421" fill-opacity=".7" d="m17.4 5.8-.2.1-1.7-2-3.2 1.4.1-1.8v-.2l-.1.2q-.2.5-.7.5l-.7-.1-.2-.1-.7-.1h-.3l-.4-.1-.3-.1h-.6l-.2-.4-3.6.9 2.1-2.5-4 .4 2-1.9h12.9q-.7 1-.2 2.2l1 2.1h.1l.1.2-.5.4z"/><path fill="#201d0b" fill-opacity=".3" d="M6.7 1.5q-1.2.9-1.5.6L2.7 2z"/><path fill="#416718" d="m12.4 3.5.1-.2z"/></g><use xlink:href="#a" id="m" width="40.7" height="11.7"/><use xlink:href="#b" id="l" width="42.2" height="26.8"/><use xlink:href="#c" id="k" width="40.7" height="11.7"/><use xlink:href="#d" id="j" width="42.2" height="26.8"/><use xlink:href="#e" id="h" width="40.7" height="11.7"/><clipPath id="f"><path d="M1 1h33v87H1z"/></clipPath></defs><g clip-path="url(#f)"><g transform="translate(19.35 77.8)"><use xlink:href="#g" width="26.8" height="9.4" transform="translate(-13.25 -.1)"/><use xlink:href="#h" width="40.7" height="11.7" transform="matrix(-.255 .0213 .0719 .8597 11.2 -35.05)"/><use xlink:href="#i" width="16.2" height="55.2" transform="translate(-7.8 -50.4)"/><use xlink:href="#j" width="42.2" height="26.8" transform="matrix(-.2422 -.0518 -.0981 .459 14.65 -12)"/><use xlink:href="#k" width="40.7" height="11.7" transform="matrix(.3218 .085 -.1293 .4896 -14.65 -36.65)"/><use xlink:href="#l" width="42.2" height="26.8" transform="matrix(.328 -.0652 .0916 .4611 -16.5 -16.2)"/><use xlink:href="#m" width="40.7" height="11.7" transform="matrix(.2518 -.0467 .1575 .8489 -8.45 -24.1)"/><use xlink:href="#n" width="31.7" height="42" transform="translate(-18.35 -76.8)"/></g></g></svg>