<svg xmlns="http://www.w3.org/2000/svg" xmlns:xlink="http://www.w3.org/1999/xlink" width="13" height="13" viewBox="0 0 13 13"><defs><clipPath id="a"><path d="M1 1h11v11H1z"/></clipPath><g id="b" fill="#617c04"><path d="M2.9 1.3q.5 1.3.5 3.2 0 1.8-.5 3.1T1.7 8.9.5 7.6 0 4.5t.5-3.2T1.7 0t1.2 1.3"/><path d="M2.6 2.9q.4 1 .4 2.5 0 1.4-.4 2.5-.4 1-.9 1t-.8-1q-.5-1-.4-2.5t.4-2.5.8-1 .9 1"/></g></defs><g clip-path="url(#a)"><g transform="translate(5.55 8.85)"><use xlink:href="#b" width="3.4" height="8.9" transform="translate(-1.25 -7.85)"/><use xlink:href="#b" width="3.4" height="8.9" transform="rotate(16.036 21.328 7.494)scale(.7993)"/><use xlink:href="#b" width="3.4" height="8.9" transform="rotate(-34.875 -6.971 5.768)scale(.798)"/></g></g></svg>