<svg xmlns="http://www.w3.org/2000/svg" xmlns:xlink="http://www.w3.org/1999/xlink" width="110" height="92" viewBox="0 0 110 92"><defs><path id="g" fill="#fff" fill-opacity=".3" d="M70.4-4.1q0 7.6-20.7 12.9T0 14.1t-49.7-5.3-20.6-12.9q0-5.6 11.3-10-7.7 3.7-7.7 8.3 0 7.2 19.6 12.3 19.7 5 47.5 5t47.5-5T67.6-5.8q0-3.6-4.8-6.6 7.5 3.7 7.5 8.3" transform="translate(70.35 14.05)"/><path id="f" fill="none" stroke="#314d0b" stroke-linecap="round" stroke-linejoin="round" stroke-width="__RESOLUTION__" d="m48 0 14.9 1h6l17.8 7.9 12.5 24M4 52.6l7.2-22q1.9-2.1 2.8-2.7 3.2-2.3 10.3-5.7l4.3-2 3.6-5L39 5.8 47.9.3" transform="translate(-4.1)" vector-effect="non-scaling-stroke"/><path id="d" fill="url(#a)" d="M76 8.8q.5 5.1 1.5 5.6l-.5.6q-1.2 2 .3 3.9l-1.1 1.5q-2.5 2.7.8 5 0 1.3-.7 2.4-3 4.4 1.3 6.1-1.8 1.8-1.4 3.1.3 1.3 1.3 3-.7 1-1.1 2-1.2 3.8.9 7.3-.2 4.9 0 9.8l.2 3.2q0 2.7 2.2 3.8v8.6q-41.9 28.1-79.1 0 1-.4 1-1.2.7-6-1.6-11.9v-.5q.9-1 1-2 .2-1.6-.9-3v-.5l.4-.6.1-.5q1.3-.7 1.5-1.9.4-2.3-1.2-4.4.9-.7 1.1-1.7.7-2.6-2-4.7V41q.6-.8.5-1.6 0-1-.4-1.9l1-1.8q1.1-3.2-.8-6.1 5.7-.8 1.9-5.1l.1-.4.1-1.9v-.6l.2-.4q2.8-4.1-2.6-5v-.3q.9-.7 1.2-1.6.6-1.5-.3-2.8v-.2q1-2 .5-3.4Q34 31.8 76 8.8" transform="translate(0 -7.95)"/><path id="c" fill="#fff" fill-opacity=".4" d="M70.4-4.1q0 7.6-20.7 12.9T0 14.1t-49.7-5.3-20.6-12.9q0-5.6 11.3-10-7.7 3.7-7.7 8.3 0 7.2 19.6 12.3 19.7 5 47.5 5t47.5-5T67.6-5.8q0-3.6-4.8-6.6 7.5 3.7 7.5 8.3" transform="translate(70.35 14.05)"/><path id="h" fill="none" stroke="#99e4e4" stroke-linecap="round" stroke-linejoin="round" stroke-width="1" d="M41.5 12.5q10.9-5.7 18-12M24.3 23.2l5.1-2.7m-28.9 4 8.6 2"/><linearGradient id="a" x1="-819.2" x2="819.2" gradientTransform="rotate(90 1 38.85)scale(.03 .05)" gradientUnits="userSpaceOnUse" spreadMethod="pad"><stop offset="0" stop-color="#082f82" stop-opacity=".5"/><stop offset="1" stop-color="#082f82" stop-opacity="0"/></linearGradient><clipPath id="b"><path d="M1 1h108v90H1z"/></clipPath><g id="e"><path fill="#959515" d="m56 .7-8.9 6.8-5.6-3.6L44.9.3l9.4-.3zM26 11.2l2.4-3.5 6.1-.4-2.5 5.3zm21.6 5.1-1.5 5.3-9.3 2.1-4.4-.8v-3l8.4-4.1z"/><path fill="#7e7e12" d="m44.9.3-3.4 3.6L47 7.5l9-6.8.6.2-1.7 3.9-7.3 4.5L42 7.5l-2.6-4L43.6.4zM7.4 27.4v-.2l.2-.2.8-1 1.2-1.2q2.7-2.1 8.4-5.2l3.5-1.8 1-1.4 9.3 1.8 9.6-4.7 8.2.8.5 5.5-1.7 3L30 27l-.3-6.1-12.5 12.5zm18-15.5.6-.7 6 1.4 2.5-5.3-6.1.4 1-1.5 6.2-.2-1.2 6.6-3.2 1.9zm22.1 4.4-6.9-.6-8.3 4.3v2.9l4.4.9 9.3-2.2zm-34 13.2-.1.2zm6.8 3.8 6.8-.1 1.6 6L16 43.4l3-2.7-1.4-2.4 2-4.5z"/><path fill="#797811" d="m43.6.4-4.2 3 2.6 4 5.6 1.9 7.3-4.5 1.7-4 12.1 4.7 10.5 19.7v.3l-4.9-.5 2.3 3.2-.3.2-7.5-4.7-12.3-9.4-5 13.2-19.6 16.6.5 6.1-18.6-3 1.3-4.9-1.4 2.6 1-2.2.8-1.3 1-1.6.1-.3h-.2L9.8 41l-.1-.3v-.1l-.4 1.2v.2L7.9 31.9q-.5-3-.5-4.1v-.4l9.8 6 12.5-12.5.3 6 18.4-4.1 1.7-3.1-.5-5.5-8.2-.8-9.6 4.7-9.3-1.9 1.9-2.7 1-1.6 5.8 2.6 3.2-1.9L35.6 6l-6.2.2.6-.8 6.8-4.2.3-.7q.8 0 .5-.1l1.6-.2zM20.3 33.3l-.7.5-2 4.4 1.4 2.4-3 2.7 12.7-4-1.6-6.1z"/><path fill="#78834b" d="M79.2 25.5q-.5 1-.8 2.2l-1.6.4-.2.1-2.2-3.2zm-7.5 5.4-3-7.2 7.5 4.7q-2.4 1-4.5 2.5"/><path fill="#54552f" d="m78.4 27.7-.3 1.3-5.5 4q-9.8 7-19.7 12.5l-2.3 1.2-.3-1.3-4.1 1.4L44 50q-3.1 1.5-11 6.5-11.7.8-24.1-5l-.4.4Q1 51.9 0 49.6l2.4-6.8q4.2 3.4 8.4 4.6v.1l4-4.8-1.1 2.2 1.4-2.6-1.3 5 18.6 2.9 4.8.5q2.4-1.9 5-2.4l.5-.8 4.6-1.8.5-.6 1.3-.4 1.4-7.4 1.8 6.2q7.9-3.3 14.7-9.1 2.2-2 4.7-3.5 2.1-1.4 4.5-2.5l.4-.2.3-.1z"/><path fill="#697342" d="m2.4 42.8 4.9-15.1.1.1q0 1 .5 4.1l1.3 10 .1-.1.3-1.2h.1v.4l6.7-1.5v.3l-.9 1.6-.7 1.3-4 4.8v-.1q-4.2-1.2-8.4-4.6m66.4-19.1 2.9 7.2q-2.5 1.6-4.7 3.5-6.8 5.8-14.7 9.1l-1.8-6.2-1.4 7.4-1.3.4-.5.6-4.5 1.8-.5.8q-2.7.5-5.1 2.4l-4.8-.5-.5-6.1 19.6-16.6 5-13.2z"/><path fill="#a5a862" d="m7.3 27.7.1-.3zm9.3 12-.1-.2h.2z"/><path fill="#949755" d="m37.6.4-.4-.2h2z"/><path fill="#cacba0" d="m13.5 29.5-.2.2z"/><path fill="none" stroke="#686f3c" stroke-linecap="round" stroke-linejoin="round" stroke-width="1" d="M9.6 24.7q2.7-2.1 8.4-5.2l3.5-1.8"/></g></defs><g clip-path="url(#b)"><g transform="translate(58.85 14.65)"><use xlink:href="#c" width="140.7" height="28.1" transform="matrix(.3146 -.0529 .3916 .2068 -5.65 27.9)"/><use xlink:href="#c" width="140.7" height="28.1" transform="matrix(.3849 -.005 -.0033 .3622 -45.05 34.85)"/><use xlink:href="#d" width="79.7" height="80.8" transform="matrix(.4157 -.0589 -.1351 .6502 2.8 16.85)"/><use xlink:href="#d" width="79.7" height="80.8" transform="matrix(.5519 -.0781 -.1486 .7153 -38.35 18.45)"/><use xlink:href="#e" width="79.3" height="56.6" transform="translate(-44.1 -11.3)"/><use xlink:href="#f" width="95" height="52.5" transform="matrix(.8135 -.0516 0 .8135 -42.7 -8.75)"/><use xlink:href="#g" width="140.7" height="28.1" transform="matrix(.7462 -.0331 .0253 1.1403 -57.85 26.65)"/><use xlink:href="#h" width="60" height="27" transform="translate(-28.3 20.3)"/></g></g></svg>