<svg xmlns="http://www.w3.org/2000/svg" xmlns:xlink="http://www.w3.org/1999/xlink" width="35" height="79" viewBox="0 0 35 79"><defs><clipPath id="a"><path d="M1 61h32v17H1z"/></clipPath><clipPath id="c"><path d="M1 41h32v19H1z"/></clipPath><clipPath id="e"><path d="M1 1h33v19H1z"/></clipPath><clipPath id="g"><path d="M1 21h33v19H1z"/></clipPath><g id="h"><path fill="#fafefe" d="M31 2.2q1 2.1-.8.6l-27.9 14-.6.3-.5-.9-.3-.6q-.5-1.8.7-3.9l.2-.5h.5q1.6-.4 7.9-3.4l7-3.3 4-1.9 2.7-1.3.3-.1q4.1-1.9 5.4-.8l.8.9z"/><path fill="#eaf2f3" d="M28.5 2q-.4-.7.3-1t1.2.4-.3 1-1.2-.4M4.6 14.7q-.5-.7.3-1.1.7-.4 1 .2.3.5-.2 1t-1.1-.1M22.8 4q.3.6-.3 1t-1.1-.2l-.1-.4 1 .1q.4-.2.4-.5m3.7-2.2q.7-.4 1.2.2.3.7-.4 1.1t-1-.2.2-1m-8.5 2.5q.4-.1.8.5.6.9-.4 1.4t-1.4-.2l-.2-.6h.7q.6-.3.5-1.1M13 6l.7.3q.7.5-.2 1-.7.3-1.1-.3l-.2-.3q.2 0 .3-.2.4-.2.5-.5m-1 1.9q.4.3-.1.7t-.6-.2.2-.7zm-3.6 4.6q-.6.3-1-.2t.2-1 .9.3-.1.9m1.6-1.4q-.9.5-1.2-.2t.3-1.1 1.2.2-.3 1.1m15-6.7q-.6.3-.9-.2t.3-1.1 1 .1-.4 1.1m-6.2.5q-.4-.5.2-.9t1.1.2-.1 1-1.2-.2"/><path fill="#f6fefe" d="M7.6 8.5q.5.5-.2.9H6.2q-.4-.5.2-1zm-2.3.7q.4.9-.4 1.4t-1.2-.2.4-1.4 1.2.2m-3 1.4q.6-.2 1 .3.2.3-.1.7-.5.3-.9-.2t0-.8M.2 12.4q-.3-.5.3-1t1 .2-.3 1.1-1-.2m21.2-8-.6-.5q-.6-.7.3-1.4t1.5.5l.3 1q-.1.3-.6.5zm.8-4q.8-.6 1.3.1.5.8-.2 1.3-.8.4-1.4-.2T22 .3M25.6 2q-.8.4-1.2-.4-.3-.6.3-1.1t1.2.4q.5.7-.3 1.1m-8.9 3.6-.4-.4q-.5-.6.3-1.2t1.1.3l.2.2q.1.8-.5 1zm-4.4 1.2-.6-.4q-.3-.5.3-1t1 .1V6q0 .3-.3.5zm2.6-1q-.6.3-.8 0t.1-.6h.8q.4.4-.1.7M8.4 8.5q-.4.1-.7-.2-.1-.4.3-.7t.7.2q.2.5-.2.7m2.8-1q-.6.5-1.4-.4t.2-1.2q.8-.2 1.3.4t-.1 1.2"/></g><g id="f"><path fill="#fafefe" d="M3.5 8.9 8.9 7l3.8-1.1 3.7-1q4.5-1.2 6.5-1.1h.9l3.2-1 .6-.1h-.4l3.6-1 .8.9.5.8q1.1 2.2-.8.7l-25 12.6-.5.2-3 1.4-.5-.8v-.2l-.2-.4q-.6-1.9.6-4z"/><path fill="#968874" d="m3.5 8.9-.7 4q-1.2 2-.6 3.9l.2.4-2.4.3L2.7 9z"/><path fill="#f6fefe" d="M6.8 7.1q-.6.5-1-.2-.4-.8.1-1.1t1 .2q.5.7-.1 1.1m1.3-.5-.2-.3q-.3-.7.3-1.2t1 .2v-.1L10 5l.4-.3q1-.4 1.5.5 0-.4.5-.7.5-.4 1 .2l.3-.4.8.1.3.2.4-.4q.7-.5 1.2 0V4q.7-.4 1 .1t.2.7h.7l.2-.4q-.6.2-1-.4-.5-.5.3-1 .7-.5 1 .2.3.5.1.8.5-.2 1 0l-.3-.3q-.7-.9.4-1.3t1.6.4l.2.4.3.2q.5.7-.2 1.2t-1.1-.3l-.6-.1.3.2q.9.8-.2 1.5t-1.7-.3l-.2-.3-.2.5q-.4.3-.8-.2l-.2-.3q-.5.5-.8.2h-.3q.3.7-.3 1t-1-.4l-.2-.3-.5-.3-.2-.2v.2q.2.5-.2.7H13q-.6 0-.8-.5 0 .6-.7 1h-1.2l-.6.1-.6-.5-.1-.1-.1.1q-.5.5-.8.2M22.3 2q-.6.4-.9-.1t.3-1 .9.2-.3.9m.7.5q.7-.4 1.1.2T24 4q-.7.5-1.2-.2t.3-1.2M29.2.5q.7.7-.4 1.5-1 .7-1.5-.2-.4-1 .4-1.5t1.5.2m-3.9 1.9q-.1-.4.5-1 .9-.7 1.4.5.5 1-.4 1.3h-.4q-.6 0-1-.4z"/><path fill="#eaf2f3" d="m9.7 6.9-.3.2q-.7.4-1.2-.3l-.1-.2q.3.3.8-.2l.1-.1v.1zM6.5 9.6q.4.9-.3 1.3-.9.5-1.5-.4T5 9t1.4.5m.8-.4q-.5.4-.8-.3-.5-.7.2-1.1.7-.3 1 .4.2.7-.3 1m19.2-6h-.1q-.7.5-1.1-.1-.3-.3 0-.7l.1.4q.4.4 1 .4"/></g><g id="d"><path fill="#fafefe" d="M18.4 2.8q3.4-1.6 4-2.2l6-.3.8.9.6.8v.1q1 2.2-.8.6L2.4 16.2v-5.6L8 7.8l1.7-.9 1-.5 1.5-.7 1.8-.8z"/><path fill="#acd227" d="M18.4 2.8 14 4.9l1.7-.9 1.5-.7 1-.5z"/><path fill="#968874" d="M2.4 10.5v5.6L.5 17l-.5-.9q-.1-.2 1.4-5z"/><path fill="#eaf2f3" d="M28.7.6q.5.8-.5 1.4t-1.4-.5q-.4-.8.4-1.3 1-.5 1.5.4M5.9 9.1q.9-.7 1.5.4.6 1-.3 1.6-1 .6-1.5-.4t.3-1.6m-2 1.8q-.3-.7.3-1t.9.3-.2 1.1-1-.4m15.8-8q.3.6-.4 1t-1-.2.4-1 1 .2m1.9-.2q.4.5-.2 1-.5.3-.8-.3t.1-1q.5-.2.9.3m2.6-.9q.5.6-.3 1.1-.8.4-1.1-.1t.3-1.1q.6-.4 1.1.1m.8.2q-.5-.7.3-1t1.4.4-.3 1q-1 .2-1.4-.4M12.2 6l.2.3q.3.6-.4.9t-1-.3q-.1-.3.1-.6.3.4.8 0zM8.9 7q.6-.4 1.1.2.5.5-.1 1.1T8.8 8t.1-1.1m.8.9q.5-.2.3-.6-.3-.5-.7-.3t-.2.7.6.2"/><path fill="#f6fefe" d="M15.3 3.4h.9l.3-.7q.6-.5 1.2.2.5.8-.2 1.3l-.3.1q.6.6-.2 1.1-.7.5-1.1-.4l-.1-.4-.7-.2q-.5-.6.2-1m.2 2q.7.6-.2 1.1-1 .5-1.4-.2l-.2-.5-.5-.3q-.6-.6.1-1.3.8-.8 1.6.1l.4.9zm-4.4 1-.1-.2q-.4-.7.3-1t.9.3q.2.3 0 .6l-.3.3q-.5.4-.8 0M9.7 7.9q-.4.3-.6-.2t.2-.7.7.3-.3.6"/></g><g id="b"><path fill="#f6fefe" d="M29.4.3v.1l-26 13.3L0 15.3q-.3-.5.2-.7l1-1 1-2.6q.2-.7 1-1.4 1.5-1.2 4.5-2.3H8l1.4-.6q4-1.6 6.7-3l1.5-.8L21 1.3l3.3-.9L26 0h1.7z"/><path fill="#eaf2f3" d="M4.8 7.9q1.1-.6 1.8.3.7 1-.3 1.7-1.2.6-1.9-.5-.6-1 .4-1.5M23.3 1q.3.5-.4 1.1h-1q-.4-.7.3-1.1zm-8.7 3.4.1-.2q.3-.3.2-.8l-.2-.1q.4-.1.6.2.3.4-.2.8zm-1 .6-.2-.2q-.5-.5-1-.3 0-.4.4-.6.7-.3 1.1.2t-.4.9m-5 3-.5.2q-.8.5-1-.2-.3-.7.3-1.1l.5-.1.1.7q.3.4.6.4M17.8 3q0 .5-.4.7t-1-.3q-.4-.5 0-1l.1.5q.4.8 1 .3z"/><path fill="#f6fefe" d="M21 .5q.4.4-.1.7l-.7-.2q-.3-.3.1-.6zm-6.4 2.8.2.1q.1.5-.2.9h-.1q-.3.1-.5-.2t.1-.7zm-2.3 1.1q.5-.2 1 .3l.1.2q.2.4-.3.7-.7.5-1.2-.1t.2-1zm-.8 2.2q-1 .4-1.5-.4-.6-.7.2-1.1t1.6.3-.3 1.2m-3.7 0 .2-.4q.5-.4 1 .3.3.7-.2 1.1l-.4.1q-.3 0-.6-.4zM19 2.4q-.6.4-1-.1t.1-1 1.1.2-.2 1m-2.6 0 .3-.7q.6-.4 1 .3.3.6 0 .9l-.2.2q-.6.5-1-.3z"/></g></defs><g clip-path="url(#a)"><use xlink:href="#b" width="29.4" height="15.3" transform="translate(2.85 62)"/></g><g clip-path="url(#c)"><use xlink:href="#d" width="30.2" height="17" transform="translate(2.45 42.25)"/></g><g clip-path="url(#e)"><use xlink:href="#f" width="32.6" height="18.3" transform="translate(1 1)"/></g><g clip-path="url(#g)"><use xlink:href="#h" width="31.4" height="17.1" transform="translate(2.25 22.15)"/></g></svg>