<svg xmlns="http://www.w3.org/2000/svg" xmlns:xlink="http://www.w3.org/1999/xlink" width="63" height="55" viewBox="0 0 63 55"><defs><g id="c"><path fill="#e0d5d7" d="M4.2 0q-.7.8 0 1.8.8.1.9.8.4.3.3 1h1.3q-.7.1-1 1.2-.1.6-.5.6l.2-.4q-.5.5-1.3.7h.6l-1.8.1Q1 5 .9 4 1.6 5 3 5.5h.7q-1-.2-1.4-.7l2.2.3L4 5l.9-.2.6-.5.6-.6-.8.4-.2.2-.6.2q.4-.1.7-.6T5.1 3l-.1.5q-.4.4-1 .4.4-.1.6-.5.2-.2 0-.7.1.2-.1.4-.7.7-1.6 0h1.3Q2.8 3 2.7 2q.5.4 1 .5h.2Q3.4 2 3.5.7l-.3 1.1q0 .4-.5-.2Q3.2.3 4.2 0"/><path fill="#e0cca0" d="M4.2 0q-1 .3-1.5 1.7.5.6.5.2L3.5.8q-.1 1.3.4 1.8l-.8-.4-.7-.7Q3 .3 4.2 0M2.7 2.1q.1 1 1.5.8L2.9 3q.9.7 1.6 0l.2-.4-.1.7q-.2.4-.5.5.5 0 .9-.4l.1-.5q.3.4.1.9-.3.5-.7.6H3.3q-1.7-.7-2-1.9v-.1l.4-.8.1.6.3-.6.2.1zM5 4.2l.2-.2.8-.4-.6.6-.6.5L4 5l.5.2L2.3 5q.4.4 1.4.5l-.7.1Q1.6 5 .9 4q.1 1 2 1.8h1.8L4 5.6q.8-.2 1.3-.7l-.2.4q.4 0 .5-.6.3-1.1 1-1.3-.8 1-.7 1.8-1 1-2.5 1.1-1.6.1-2.6-1-1-1.3-.9-2l.1-.2.2.5.3-.9.2.5q-.1-.5.2-.7l.5.9q1 1.3 2.8 1.3.5-.1.8-.6m-3.8-.9q0 .4.3.7.5.4 1 .5-.7-.4-1.1-1z"/><path fill="#e0d0b7" d="M3.9 2.6h-.2q-.5 0-1-.5l-.4-.4.1-.2.7.8z"/><path fill="#dfb86c" d="m4.5 4.4.6-.2q-.3.5-.8.5-1.7 0-2.8-1.2L1 2.6h.4q.2 1.2 1.9 1.7z"/><path fill="#e0e0ff" d="M.1 3.2q.2-.6.9-.6-.3.2-.2.7l-.2-.5-.3.9zm1.2-.8V2l.4-.4h.4l-.3.6-.1-.6zm0 1 .2.1q.4.6 1.2 1-.6 0-1.1-.5-.4-.3-.3-.7"/></g><g id="b"><path fill="#423828" d="m31.3 15.5 1.4-.7V43l-1.4.9zM3.6 8.3v2.9l-.1 17.4-.7.5V8z"/><path fill="#9d8254" d="m32.8 14.8-1.5.6L1.8.8 3.4 0z"/><path fill="#4f432f" d="M31.3 15.5v28.4h-4.5l-.2-27zM3.6 11.1v-3l20.3 10v20.6l-1.4-.7-.1-17.7z"/><path fill="#7c6844" d="m1.8.7 29.5 14.8-4.7 1.4L0 3.4zm20.7 37.4 1.4.7v.9L2.8 29l.7-.5z"/><path fill="#5c4e34" d="m26.7 16.9.1 27L0 30.5V3.3zM3.5 11.2l18.8 9.2.1 17.7-19-9.5zM24 38.8V18.3L3.6 8.3l-.8-.4v21.3l21.1 10.5z"/><path fill="none" stroke="#0f0f0f" stroke-linecap="round" stroke-linejoin="round" stroke-opacity=".4" stroke-width="__RESOLUTION__" d="m31.3 43.9 1.4-1v-28L3.4 0m23.4 43.9h4.5M1.8.6 0 3.4v27L26.8 44" vector-effect="non-scaling-stroke"/></g><g id="a"><path fill="#7c6844" d="m93.6 30.2-.8-.6-13.4-6.7v-.5l14.8 7.5zM0 20.2l1.1-1.8 18.8 9.4.9 2.8 1-1.8 18.9 9.4.7 2.9-20.6-10.4h-.2zM19.3 9.6l.4-.6 18.8 9.4.5 1.6-.4.1-.9-1.4zm61 29.3.8 3-.3-.2-1.5-2.2-18.4-9.1.6-.8zm-18.8 9.7.8 2.9L41.4 41l1.3-1.9zM58.4 12l14.9 7.6-.5.3-1.1-.5-13.4-6.8zm-6.2-2.4L50.8 9 37.6 2.4v-.5l14.9 7.4zM58.5 29l-18.4-9 .3-.6 18.9 9.3.5 1.8-.3.2zm-18.7-7v-.5l15 7.5-.7.3-1-.5zm20.8 10.4.1-.5 14.9 7.5-.5.2-1.1-.5zM19.1 11.7v-.5l14.8 7.5-.5.3-1-.5zm1.5 19 .1-.1z"/><path fill="#4f432f" d="m92.8 29.6.8.5-13.4 7-14.3-7.4 2-.9 13 6.7zm5.4.3 1.7 2.4-18.7 9.6-.8-3zM56.4 9.3l.9 1.4-16.8 8.6-.5.6-.5-.2-.5.3-.5-1.6zM77 19.6l1 1.5-16.6 8.5-.6.8-.5-.3-.6.3-.5-1.7zm3.7 22 .3.3-18.8 9.5-.8-2.9 17.8-9zM41.4 41v.1l-.7-2.9 17.7-9 1.1 1.4L42.7 39zm31.4-21.2-13.6 6.9-14.3-7.4 2-1 13 6.9 11.8-6zM51 9l1.1.5-13.6 6.9-14.2-7.2 1.9-1 13 6.7zM38.8 20l-16.9 8.7-1 1.8-.9-2.8 17.9-9zm-12.5 9 2-1 13 7 11.8-6 1 .5-13.6 6.9zm20.8 10.4 2-1 13 6.8 11.8-6 1 .5-13.5 7zM32.3 18.6l1 .5L19.7 26 5.6 18.8l1.8-1.1 13.1 6.8z"/><path fill="#5c4e34" d="m93.6 30.2.7-.3-15-7.5-13.8 7.2.4.1L80.2 37zM79.4 23l13.3 6.7L81 35.5l-13-6.7zM1 18.4l17.7-9 .5.2 18.5 9.2-17.9 9zM19.8 9l17.7-9 18.9 9.3-17.9 9zm37.5 1.7.9-.5 18.9 9.5-17.8 9-18.8-9.4zM78 21.1l1.2-.7L98 30l-17.8 8.9-18.8-9.3zm1.2 18.4-17.8 9.1-18.8-9.5 16.8-8.5.3-.2.6-.3.5.3zM72.8 20l.5-.3-15-7.6-13.8 7.2.4.2 14.3 7.4zm-14.4-7.2 13.4 6.8L60 25.5l-13-6.9zM50.9 9l-11.6 6L26 8.3l11.5-6zm-26.7.2 14.2 7.1 13.7-6.8.4-.3-14.9-7.5-14 7.1zM39 20q.3-.1.5-.4l.5.3 18.4 9.3-17.7 9-18.9-9.4 16.8-8.7zm.8 1.6-14 7.1.5.3 14.2 7.3 13.5-7 .6-.2zm-11.5 6.3q5.7-2.8 11.3-5.8L53 28.9l-11.6 6zm20.8 10.6 11.4-6 13.4 6.8-11.8 5.9zM60.6 32l-14 7.1.5.3 14.3 7.3 13.6-7 .5-.2zM19 11.7l13.4 6.8-11.8 5.9-13.1-6.8zM33.4 19l.5-.4-14.8-7.4-14 7.2.6.3 14.1 7.2z"/><path fill="#423828" d="M79.4 22.4v.5l-11.5 5.9-2 1-.5-.2zm20.4 9.9v1L81.2 43l-.1-1zM80.9 42.8v.2l-18.6 9.5v-1L81.1 42zM41.5 42v.1l-.1-1zM45 19.4l-.5-.2 14-7.2-.1.6L47 18.5zM26.1 8.3l-1.9 1-.6-.4 14-7v.5zm13.7 13.3-.1.5-11.4 5.8-2 1-.5-.1zM49 38.5l-2 .9-.5-.3 14-7-.1.4zM19 11.2v.5L7.4 17.6l-1.8 1-.5-.2z"/><path fill="#9d8254" d="m81.2 42.9-.3-.1.2-.8-.3-.3.3.1zm-18.7 9.7L41.7 42l-.2-.1V41h-.1l20.9 10.4zM41.6 42 20.7 31.7.1 21.4 0 20.3l20.7 10.4h.1l20.6 10.4z"/><path fill="none" stroke="#0f0f0f" stroke-linecap="round" stroke-linejoin="round" stroke-opacity=".4" stroke-width="__RESOLUTION__" d="m98.1 30 1.7 2.3v1L81.2 43l-.3-.1v.2l-18.6 9.5L41.8 42m-.2-.1v.1L20.7 31.7m0 0L.1 21.4M0 20.3l1.1-1.9 17.7-9 .5.2.4-.6 17.8-9 18.9 9.3.9 1.4.9-.5 18.9 9.5 1 1.4 1.2-.7L98 30M81 42l-.2.8m-.1-1.1.3.3m-.3-.3-1.5-2.2-18.4-9.1.6-.8L78 21.1m-38-1.2-.6-.2-.5.3-.4.1-16.8 8.7-1 1.8-.2.1m37.8-1.6L40.1 20l.3-.6 16.9-8.6M42.7 39.2 41.4 41m18.1-10.4.3-.2.6-.3.5.3m-1.4.2L42.7 39m15.7-10 1.1 1.4M37.8 18.9l.9 1.3M19.3 9.6l18.5 9.2" vector-effect="non-scaling-stroke"/></g><g id="e"><use xlink:href="#a" width="99.8" height="52.5" transform="translate(1.35)"/><use xlink:href="#b" width="32.8" height="43.9" transform="matrix(.69 0 0 .69 0 41.2)"/><use xlink:href="#b" width="32.8" height="43.9" transform="matrix(.69 0 0 .69 20.1 51.2)"/><use xlink:href="#b" width="32.8" height="43.9" transform="matrix(.69 0 0 .69 40.4 61.35)"/><use xlink:href="#b" width="32.8" height="43.9" transform="matrix(.69 0 0 .69 0 21.8)"/><use xlink:href="#b" width="32.8" height="43.9" transform="matrix(.69 0 0 .69 20.1 31.8)"/><use xlink:href="#b" width="32.8" height="43.9" transform="matrix(.69 0 0 .69 40.4 41.95)"/><use xlink:href="#b" width="32.8" height="43.9" transform="matrix(-.68 0 0 .69 104.45 51.65)"/><use xlink:href="#b" width="32.8" height="43.9" transform="matrix(-.68 0 0 .69 84.15 61.8)"/><use xlink:href="#b" width="32.8" height="43.9" transform="matrix(-.68 0 0 .69 104.45 32.25)"/><use xlink:href="#b" width="32.8" height="43.9" transform="matrix(-.68 0 0 .69 84.15 42.4)"/><use xlink:href="#c" width="6.7" height="6.5" transform="matrix(-1.36 -2.58 2.25 -1.19 22.8 59.8)"/></g><clipPath id="d"><path d="M1 1h61v53H1z"/></clipPath></defs><g clip-path="url(#d)"><use xlink:href="#e" width="104.5" height="91.8" transform="translate(1 1)scale(.5761)"/></g></svg>