<svg xmlns="http://www.w3.org/2000/svg" xmlns:xlink="http://www.w3.org/1999/xlink" width="58" height="53" viewBox="0 0 58 53"><defs><g id="i"><path fill="#73351e" d="m26.2 35.5.3.1-.1 1.4-1 .3-.2-.9z"/><path fill="#d38c36" d="M25.4 37.3 23 36.2l-.1-1.6.8-.6 2.4 1.5-.9.9z"/><path fill="none" stroke="#000" stroke-linecap="round" stroke-linejoin="round" stroke-opacity=".3" stroke-width="1" d="m26.2 35.5.3.1-.1 1.4-1 .3-2.4-1.1-.1-1.6.8-.6z"/><path fill="#d38c36" d="m45.7 26.7-2.4-1.2-.1-1.5.8-.7 2.5 1.5-1 1z"/><path fill="#73351e" d="m46.5 24.8.4.2-.2 1.3-1 .3-.2-.9z"/><path fill="none" stroke="#000" stroke-linecap="round" stroke-linejoin="round" stroke-opacity=".3" stroke-width="1" d="m45.7 26.7-2.4-1.2-.1-1.5.8-.7 2.5 1.5.4.2-.2 1.3z"/><path fill="none" stroke="#000" stroke-linecap="round" stroke-linejoin="round" stroke-opacity=".5" stroke-width="__RESOLUTION__" d="M7.8 15.5q.4 2.4 2.1 2.4 2.1 0 2.1-1.7l-.1-.4q-.8-.1-1.6-.7-.7-.7-.8-1.4l.6-.1q1 0 1.8 2.2h.1q2.6 0 2.6-1.6 0-.7-1.7-1.3l-1.6.3q-1 0-1.2-.4l-.5-.3h1.3l2 .4q1.3-.7 1.3-2.5 0-1.4-1.8-1.5-1.3 2.2-2.9 1.5.2-1.5 2.4-1.5h.4l.6-1.2V6.4h-1.7l-3 1.7" vector-effect="non-scaling-stroke"/><path fill="#ac8220" d="m5.5 20-1.8-.9v-6.7L7 11l3.2 1.8-3 1.4V21z"/><path fill="#7a5c18" d="M10.2 12.7v6.8l-3 1.5v-7z"/><path fill="#000" fill-opacity=".3" d="m10.2 13.5 2.9 3.9-1.6 5-3.6.6-2.4-3 1.8 1 2.9-1.4z"/><path fill="none" stroke="#000" stroke-linecap="round" stroke-linejoin="round" stroke-opacity=".3" stroke-width="1" d="m5.5 20-1.8-.9v-6.7L7 11l3.2 1.8v6.8l-3 1.5z"/><path fill="#5b0000" d="m27 1.3 1 .1-1 6.7-.4-.1-1.4-.1-.5-.1v-.2l1.4-.6h.1z"/><path fill="#373326" d="m26.6 8-.2 1.7-1.3-.9.1-1z"/><path fill="#5e5640" d="m26.4 9.7-.4 2.4-1.6.9.7-4.2z"/><path fill="#900" d="m24.8 7.6.8-6.6 1.4.3-.7 5.6-.2.1z"/><path fill="none" stroke="#000" stroke-linecap="round" stroke-linejoin="round" stroke-opacity=".3" stroke-width="__RESOLUTION__" d="m27 1.3 1 .1-1 6.7-.4-.1m-.2 1.7-.4 2.4m-1.6.9.7-4.2m-.4-1.2.9-6.6 1.4.3" vector-effect="non-scaling-stroke"/><path fill="#5b0000" d="m26 9.9-.1-.6.2-.6q.1-.2.3-.2l.5.2.1.6-.1.6-.4.2q-.3 0-.4-.2"/><path fill="none" stroke="#000" stroke-linecap="round" stroke-linejoin="round" stroke-opacity=".3" stroke-width="__RESOLUTION__" d="m26 9.9-.1-.6.2-.6q.1-.2.3-.2l.5.2.1.6-.1.6-.4.2q-.3 0-.4-.2" vector-effect="non-scaling-stroke"/><path fill="#373326" d="M25.3 6.6v.2l.8 1.5-.2.1h-1.5L24 7.2v-.4q1-.7 1.3-.2m-1.2-1 .2-1.2q.4-2 .1-3.1l-.3-.6.7-.5.8 1.8-.2 2.1-.1 1.3q-.8.7-1.2.2"/><path fill="#999" d="M24 6.8V5.6q.5.5 1.3-.2v1.2q-.3-.5-1.4.2"/><path fill="none" stroke="#000" stroke-linecap="round" stroke-linejoin="round" stroke-opacity=".3" stroke-width="__RESOLUTION__" d="M25.3 6.6v.2l.8 1.5-.2.1h-1.5 0L24 7.2V5.6l.3-1.2q.4-2 .1-3.1l-.3-.6.7-.5h0l.8 1.8-.2 2.1-.1 1.3z" vector-effect="non-scaling-stroke"/><path fill="#e4c83a" d="M5.4 6.5q-.8-1.8-2-2.4l-.8-.2Q6 2.3 8 5.9z"/><path fill="#ffdb48" d="m2.6 3.9.8.2q1.2.6 2 2.3l.1.1.1.3q.8 2 .9 4.3v.2q-.9 1.8-3 2.6l-.2-.4-.6-.9-.5-1v-.4l-.7-2.4-.1-1-.1-.5V6l.5-2z"/><path fill="#d19f29" d="m5.5 6.5 2.4-.6.7 1.2.4 1.6q-1.2 1.7-2 2.2l-.5.2q0-2.3-.9-4.3z"/><path fill="#aa8f35" d="M1.8 4.2 1.4 6l-.1.8v1l.2.8.6 2.6.1.1v.2l.5 1 .5.9.4.4.5.3h.2q1 .2 1.8-.3l-.5.8-.5.5-1.7.1q-1.3-.6-2.2-2.7T.3 8.2t.9-3.5z"/><path fill="#fea849" d="M3.6 13.9q2-.8 2.9-2.6 0 1.6-.4 2.6-.7.5-1.8.3h-.2z"/><path fill="#7a5c18" d="M6.5 11.3v-.2l.4-.2q.8-.5 2.1-2.2.7 4-3.9 6.5l.5-.5.5-.8q.4-1 .4-2.6"/><path fill="none" stroke="#000" stroke-linecap="round" stroke-linejoin="round" stroke-opacity=".3" stroke-width="__RESOLUTION__" d="m2.6 3.9.8.2q1.2.6 2 2.3M8 6Q6 2.3 2.6 3.9l-.8.3L1.4 6m.7 5.1.1.3m.5 1.1.5.9m3.3-2.2V11q0-2.3-.9-4.3l-.1-.3M1.8 4.2l-.6.5Q.3 5.9.3 8.2t.9 4.4q.9 2 2.2 2.7l1.7-.1.5-.5.5-.8q-.7.5-1.8.3h-.2M9 8.7 8.6 7l-.7-1.2m-1.4 5.4q0 1.6-.4 2.6M9 8.7q.7 4-3.9 6.5" vector-effect="non-scaling-stroke"/></g><g id="g"><path fill="url(#a)" d="m-9-15.2 14.4-7.2v18.9L-4.8 2.1-17-3.4l-4.4-2.2-3.6-1.6 2.3-1.1L-20-10l3.3-1.7z" transform="translate(28.15 24.3)"/><path fill="#c4b9a2" d="M33.5 1.9 19.1 9 17 8.7 33.5.3l20 9.8.6 2.2-3.1 1.6h-.2l-2.2-.6 4.2-2.2zM11.6 12.8l-3.3 1.6-1.9-.4 2.4-1.2zm-.5 8 12.2 5.6L33.5 21h.1l7-3.5H44l-13.7 7-1.3.6-4.4 2.3-4.1-.4-11.7-5.7h-.1z"/><path fill="#f2f0e6" d="m19.1 9-7.5 3.8H8.8L17 8.7zm29.4 4.2 2.3.7-6.8 3.4h-3.5z"/><path fill="#e1bc66" d="m8.3 14.4-2.9 1.5-1.7-.5L6.5 14zm-1.6 4.2 4.4 2.1-2.3.5h-.1l-3.4-1.7z"/><path fill="#d38c36" d="m5.4 15.9-2.3 1 3.6 1.8-1.5.8 3.5 1.7 2 5.6L9.3 31l-.8-.6-1 3.1-.3-.2-2.3-5.5 1.6-2.5-1.9-4.1.5-1.8L.3 17l3.5-1.7zM10.7 31l2.3-1.6 1.8.9-.3 4.3-1.7 1.6-1.3-2.2z"/><path fill="url(#b)" d="m5.5-3.5-.2-19 19.4 9.3-4.3 2.2-8 4.1-6.9 3.6z" transform="translate(28.15 24.3)"/><path fill="#7a7453" d="m50.8 14 .2-.1 3.1-1.7.7 2-3 7.2-.8 2-2 4.7-1.5 1v1.1l2.7 1.3.8 1.9-2.7 4.6H47l-1.5-2 .3-1.5 2.3-2.1-1.3-.8-4.5 3.5L30 41.7l.8 2-2.7 4.6h-1.9l-.8-2 2.7-4.6-2.6-1.3-2.6 4.5h-.1l.1-14 1.7-3.6L29 25l-.9 6.8.9-6.8 1.3-.6 13.7-7zm-.3 3.6.5-3.7zM12.7 40l-2.4.5-.8-2zm39-18.6-4.9 1.8zm-22.1 7.2.6-4.2zM51 23.4l-2.9 1z"/><path fill="#879ba7" d="M33.6 20.8v.1z"/><path fill="#5e5640" d="M47 38h-.6l-3.7-1.8-.4-1 4.5-3.6 1.3.8-2.3 2-.2 1.6z"/><path fill="#b4a687" d="M26.2 48.3q-1.9 0-3.2-1.1t-1.3-2.8l1.1.6.1-.1 2.6-4.5 2.6 1.3-2.7 4.6zm-15.9-7.7-3.7-1.9-.8-2 1.4-3.3.3.3 1.3 1.1.7 3.7zm14.3-13.2L22.9 31l-3.2-4.1h.8z"/><path fill="#bfb699" d="M21.7 44.4 18.9 43l-1.7-.8-4.5-2.2-3.2-1.5-.7-3.7-1.3-1.1 1-3.2.8.6 1.4-4.4-2-5.5 11.8 5.7h-.9l3.3 4-.1 14zm-11-13.3.8 3 1.3 2.2 1.7-1.6.3-4.3-1.9-.9zm6.5 11.1-.4-3.5zm1.7.8-.9-6.7z"/><path fill="#b8682e" d="M4.9 27.9.3 17l4.8 2.4-.5 1.8 1.9 4.1z"/><path fill="none" stroke="#2d3e38" stroke-linecap="round" stroke-linejoin="round" stroke-width="__RESOLUTION__" d="m3.1 17 3.6 1.6 4.4 2.1 12.2 5.8 10.2-5.6.1-.1m19.2-9.7-4.2 2.2-8 4.1-7 3.6h0M12.7 40l-3.2-1.5-.7-3.7-1.3-1.1-.3-.3M22.8 45l-1.1-.6m1.1.6" vector-effect="non-scaling-stroke"/><path fill="none" stroke="#000" stroke-linecap="round" stroke-linejoin="round" stroke-opacity=".3" stroke-width="__RESOLUTION__" d="m54.2 12.3-.7-2.2-20-9.8L17 8.7l-8.2 4L6.4 14l-2.7 1.4L.4 17 5 27.8l2.3 5.5-1.4 3.4.8 1.9 3.7 1.8 2.4-.5 4.5 2.2 1.7.8 2.8 1.4q0 1.6 1.3 2.8t3.2 1.1h1.9l2.6-4.6-.7-2L42.4 35h0l.4 1.1 3.7 1.8h1.9l2.7-4.6-.8-2-2.7-1.2V29l1.5-1 2-4.7.8-2 3-7.2z" vector-effect="non-scaling-stroke"/><path fill="none" stroke="#000" stroke-linecap="round" stroke-linejoin="round" stroke-opacity=".1" stroke-width="__RESOLUTION__" d="m51 13.9-.5 3.7m-3.7 5.6 5-1.8m-21.4 3-.7 4.2M29 25l-.9 6.8m20-7.4 2.9-1M16.8 38.8l.4 3.4m.8-6 1 6.8" vector-effect="non-scaling-stroke"/></g><g id="f"><path fill="#d38c36" d="M3 10.9.6 9.7.5 8.2l.8-.7L3.8 9l-1 1z"/><path fill="#73351e" d="m3 10.9-.2-1 1-.9.3.2-.1 1.3z"/><path fill="none" stroke="#000" stroke-linecap="round" stroke-linejoin="round" stroke-opacity=".3" stroke-width="1" d="M3.8 9 1.3 7.5l-.8.7.1 1.5L3 10.9l1-.4.1-1.3z"/><path fill="#0f0c0b" fill-opacity=".6" d="m47.2 11-26 13-17.8-9.7L28.4 0z"/></g><linearGradient id="b" x1="-819.2" x2="819.2" gradientTransform="matrix(0 -.01 .01 0 12.9 -11.6)" gradientUnits="userSpaceOnUse" spreadMethod="pad"><stop offset=".3" stop-color="#696049" stop-opacity="1"/><stop offset="1" stop-color="#8f8563" stop-opacity="1"/></linearGradient><linearGradient id="a" x1="-819.2" x2="819.2" gradientTransform="matrix(0 -.01 .02 0 -9.8 -7.25)" gradientUnits="userSpaceOnUse" spreadMethod="pad"><stop offset=".3" stop-color="#3d3629" stop-opacity="1"/><stop offset="1" stop-color="#5e5640" stop-opacity="1"/></linearGradient><path id="c" fill="#fff" fill-opacity=".5" d="M8.4 8.4Q6.9 9.8 4.9 9.8T1.4 8.3Q0 7 0 5t1.4-3.5Q2.9 0 4.9 0t3.4 1.4q1.5 1.5 1.5 3.5T8.3 8.3"/><path id="h" fill="#5e5640" d="M71-79.3q6.2-1.9 8.7.7L65.6-67l2.1-.5.8-.5q9.8-5.5 18.5-6.5 7.8-.8 10.5 2.8l-6 3.3Q95.8-67 98-64L62.2-44Q74-27.8 75.8-7.6l2-.4q9-1.8 15.7-1.2 6.7.4 7.1 2.8.5 2.5-5.5 5.5-6 2.9-15 4.7L79 4l3.6-.1q10.5 0 18 2t7.4 4.9-7.4 4.9q-4.7 1.2-10.5 1.7 2.4 1.1 4.4 2.4 5.7 3.4 5 5.8-.7 2.3-7.4 2.3-6.7-.2-15.5-2.8l-4.2-1.4q-5.3 16.7-18.7 30.1-6.7 6.8-14.3 11.5l-5 11-3-6.7q-8.9 4-18.7 5.6 1.5 4.5 2.7 10.1 1.8 9 1.3 15.7t-3 7.2-5.4-5.5-4.6-15.1l-.2-1v3.6q0 10.5-2 18t-4.9 7.5-4.9-7.5q-1.2-4.6-1.7-10.4l-2.3 4.4q-3.6 5.6-6 5-2.3-.8-2.2-7.5.2-6.7 2.8-15.4 1.6-5.2 3.5-9.4-11.3-2-21.3-7.3l-3 6.8-5.4-12q-5.2-3.8-10-8.6-13.6-13.6-18.9-30.6l-5.7 2q-8.8 2.6-15.4 2.8-6.7 0-7.5-2.3t5-5.8q2-1.3 4.4-2.4-5.8-.5-10.4-1.7-7.5-2.1-7.5-5 0-2.8 7.5-4.8t18-2h3.5l-1-.1q-9-1.8-15-4.7t-5.5-5.4 7.1-3q6.8-.5 15.8 1.3l3.6.8q1.8-20.5 13.6-36.8l-35-19.6q2.2-3 6.5-4.4l-6-3.3q2.6-3.5 10.5-2.7 8.6 1 18.5 6.4l.8.5 2.1.5-14-11.5q2.5-2.6 8.8-.7 6.6 1.9 13.8 7.8 6.3 5.2 9.7 10.7 20-15.9 46.6-15.9 26.8 0 46.9 16.1 3.4-6 10.1-11.5 7.2-5.8 14-7.8" transform="translate(109.8 80.1)"/><clipPath id="e"><path d="M1 1h56v51H1z"/></clipPath><use xlink:href="#c" id="j" width="9.8" height="9.8"/></defs><g clip-path="url(#e)"><g transform="translate(30.65 42.3)"><use xlink:href="#f" width="47.1" height="24" transform="translate(-24.9 -15.25)"/><use xlink:href="#g" width="55.1" height="48.6" transform="translate(-29.65 -41.3)"/><use xlink:href="#h" width="217.9" height="195.8" transform="matrix(.0645 -.0342 -.0107 .0702 2.8 -15.3)"/><use xlink:href="#i" width="47.4" height="37.8" transform="translate(-25.25 -30.8)"/><use xlink:href="#j" width="9.8" height="9.8" filter="url(#filter-object-4)" style="mix-blend-mode:hard-light" transform="matrix(.602 0 0 .8662 -26.2 -27.4)"/><use xlink:href="#j" width="9.8" height="9.8" filter="url(#filter-object-6)" style="mix-blend-mode:hard-light" transform="matrix(.3072 0 0 .4419 -24.55 -25.6)"/></g></g></svg>