<svg xmlns="http://www.w3.org/2000/svg" xmlns:xlink="http://www.w3.org/1999/xlink" width="186" height="278" viewBox="0 0 186 278"><defs><g id="q"><path fill="#dbcda2" d="M21.8 0h.3l4 .2q4 .3 7.7 1.2l.6.2 1.7.5 3.1 1.2-.9 1 2.6-.2.5.3h.1l1.3.7 1.3.9 1 .7.8.5 2.6 2.7q.9 1.3 1.4 2.7v.1q.5 1.4.3 2.7T49 18q-1.9-.6-3.5-1.7l2.9 2.5-1.7 1.2-.2.1h-.1l-.2.2-4.4-4.7.2.5q.8 2.9.9 5.4-3.6 1-8.4.8l-.5.2-.6-.1-4.9-.2q-2.1 1.3-.7 3.1v.1q.1 1.8-3 2.3-1.8.2-3.4-1l.2-.5q-1.7.9-4.2-.5-1-1.2-.4-1.4h-.4v-.9q0-.8.3-2v-.8l-.5.4-3.4 3.4q-1.6-.3-2.6-.9-.9-.5-1.5-1.3L8.4 21q.2-.5.7-1l-2.4-.2q-1.2-.3-2-.8v-.1q-1.1-.7-.3-1.7l-1.4.1Q-.4 16.1.1 14.6q1.4-1.4 4.1-1.7 3.8.6 6.3-.4.5-1.1-1-2.7l-.2-.4v-.5L9 7.4q0-.6.2-1.1l3-1.5H12l-1.8-.4q.8-1.2 2.6-2.2 1.3-.7 2.8-1.2.5.4 1.2.6l.6.3q2-1.1 4.3-1.8m22.1 8.6q-2.1.7-4 2l-.4.2 2.9-.5zm-8.6.5-1-.8q-1.5-2.6-4.7-2.8l.3-.1 2.8-.2zl-2.6-3.9-2.8.2-.3.1q3.2.2 4.8 2.8zm-9 4.3-.2 1.1q0 1 .8 2v.6q.4 1 2 1.9 1.5.8 3.3.9h.9q1.7.7 3.8.7 1.9-.4 2.6-1.7.3-1.7-3-4.4-1.2-1.2-4-2.1l-1.9-.5h-2q.3-1-1-2.2-1.2-1.3-4-2.1-4.7-1.3-8.3-1.5-2.3.3-2.8 1.6l1.6 2.5v.1l.6 1q1 .8 2.8 1.5l3 .6h.6q2.1.2-.6 0l4.4.3zm2-11.4q-2-.1-3.9.5 1.8 1.2 4 1zm-5.4 14.4-.3-.5q-2.7.8-4.6 2.5l.4.5q1.2 1.3 3.8.9 2.4-1.4.8-3.4M21.3 23q1.5 1.1 1.3 1.6.5-.4 1.3-.7zl-3.2-.2q-.3.9-1.2 1.3.9-.4 1.1-1.2l.2-1.2-1.4-.6 1.4.6zm-12-6.2-2.1-1.4q-.5.8-1.5 1.2zl1 .8zm3 1.9-2-1.1q.7 1-.2 1.6zl3.2 1.7.8.4-.8-.4zm-8-1.7 1.4-.4zm-.2-4.2 3.1 2.6zm8.6.6.8.2 1.9-.4H11zm1.1 2q-.3 1.9 2.6 2.2 2.8-1.1 4.5-2.5-4.2-1.1-7.1.3m-4.9 4.4q.4-.4 1.1-.6-.7.2-1.1.6M24 24l3.8 1.3zm-2.3 2.1 1-1.4z"/><path fill="#aa9b76" d="M26.3 13.5q1-.4.8-1.4-.2-1.7-3.4-2.9t-5.4-1.1q-2.3 0-3.4.7t-.8 1.5l-1.6-2.5q.5-1.3 2.8-1.5 3.6.1 8.3 1.4 2.8.8 4 2.1t1 2.2h2l2 .5q2.7.9 4 2.1 3.1 2.7 2.9 4.4-.7 1.3-2.6 1.7-2.1 0-3.9-.7l2.3-.4q1.1-.7 1.5-1.6.4-.8-1.4-2.5-1.9-1.7-5-1.7t-3.3 1.1l-.2 1.8q-.8-1.1-.8-2.1 0-.5.3-1.1zm-12.2-3.2.6 1zm8.9 6q1.6 2-.8 3.5-2.6.4-3.8-.9l-.3-.4q1.8-1.8 4.4-2.6zm-8.9-.9q3-1.4 7.1-.3-1.7 1.4-4.5 2.5-2.9-.3-2.6-2.2"/><path fill="#544429" d="M14.1 10.3q-.3-1 .8-1.6t3.4-.6q2.2-.1 5.4 1.1t3.4 2.9q.1 1-.8 1.4l-1.4.3-4.3-.3q2.6.2.5 0h-.6l-3-.6q-1.8-.7-2.8-1.5zm12.8 6.4.2-1.8q.1-1.1 3.3-1.1t5 1.7 1.4 2.6-1.5 1.4l-2.2.5h-.9q-1.8-.1-3.4-1T27 17.3z"/><path fill="none" stroke="#19130e" stroke-linecap="round" stroke-linejoin="round" stroke-opacity=".5" stroke-width="__RESOLUTION__" d="M21.8 0h.3l4 .2q4 .3 7.7 1.2l.6.2 1.7.5 3.1 1.2m1.7.8.5.3h.1l1.3.7 1.3.9 1 .7.8.5 2.6 2.7q.9 1.3 1.4 2.7v.1q.5 1.4.3 2.7h0Q50 16.9 49 18m-.6.8L46.7 20l-.2.1h-.1l-.2.2m-3.3 1.3q-3.6.9-8.4.7l-.5.2-.6-.1-4.9-.2q-2.1 1.3-.7 3.1v.1q.1 1.8-3 2.3-1.8.2-3.4-1l.2-.5q-1.7.9-4.2-.5-1-1.2-.4-1.4h-.4m-3.6.1q-1.6-.3-2.6-.9-.9-.5-1.5-1.3L8.4 21q.2-.5.7-1l-2.4-.2q-1.2-.3-2-.8v-.1q-1.1-.7-.3-1.7l-1.4.1Q-.4 16.1.1 14.6q1.4-1.4 4.1-1.7 3.8.6 6.3-.4.5-1.1-1-2.7l-.2-.4v-.5L9 7.4q0-.6.2-1.1m1-1.9q.8-1.2 2.6-2.2m0 0q1.3-.7 2.8-1.2m6.9 23.8q.6-.6 1.3-.8l-2.5-.9-3.1-1.4L18 23q-.2.8-1.2 1.2m-2.2-12.8-.6-1v-.1m-4.7 6.6-2.1-1.4q-.5.8-1.5 1.2l-1.4.4m5-.2 1 .8 2 1.1 3.2 1.7.8.4m-9.1-5.4-3.1-2.6m6 6.4 2.2-.5m5.9 3-1.4-.6m-6.7-2q-.7.3-1.1.7m18.7 5.4L23.9 24m-1.2.8L21.5 26" vector-effect="non-scaling-stroke"/></g><g id="p"><path fill="#6b6a49" d="m12 2-1.2-.3h-.5q-2-.1-3.9 1.8-2.2 2.1-3 5.4-.7 3.2.4 5.7l.6 1.3.3.4.8.6-3.9-2.3-1-1.6q-1-2.6-.2-5.7Q1 4 3.3 1.8q2-2 4.1-1.9h.3L8 0l.4.2 1 .4z"/><path fill="#40412c" d="m5.5 17-.7-.7-.4-.5-.7-1.2q-1-2.5-.3-5.7.8-3.3 3-5.4 1.9-1.9 4-1.8h.4L12 2v.1h.1q1.3.7 2 2.4 1 2.6.3 5.8-.8 3.2-2.9 5.3-2.2 2.2-4.4 1.8l-1-.2z"/></g><g id="o"><path fill="#998c71" d="m23.3 0 5.5 2.8-23.2 18L0 18z"/><path fill="#534d3e" d="M28.8 2.9v6.7l-23.2 18h-.1v-6.7z"/><path fill="#756a53" d="M5.5 27.6.1 24.7H0V18l5.6 2.9-.1 1z"/><path fill="none" stroke="#3c362b" stroke-linecap="round" stroke-linejoin="round" stroke-width="__RESOLUTION__" d="m28.8 9.6-23.2 18h-.1L.1 24.7H0V18L23.3 0" vector-effect="non-scaling-stroke"/></g><g id="n"><path fill="#858174" d="m39.5 4.6.1.1h.1l2.5 2q.4.4.4 1.3l-.4 1.7-2 3.7 1 1.8-3.8 5.7 1.5 8.5-2.3 3.2 1.8 12.7h.2-1.1l-2-1.6-.3.4q-2.2 2.8-4.6 4.8v3.7l-.5 1.7-1 1.2-3.6 1.8h-1l-.2-.2q-.3-.4-.3-1v-3.8q-2.7.7-4.9-.1l-.4.7-1.6 3-1 1.1q-.8.4-1.2 0l-2.5-2q-.5-.4-.4-1.2t.4-1.6l2-3.7v-.2q-1.5-2.1-2-5.2l-2.8 1.4H8.5Q8 44 8 43.3v-4.7q0-.6.3-1.2l.2-.5.3-.5.8-.6 2.8-1.5q.5-3.8 2-7.5l-1.3-1.1 6.7-1.8 3.5-4.5-1.2-4.8 1.9-1.7V9.2q0-.8.3-1.6l.1-.1q.5-.9 1.2-1.2L29 4.5l1-.2v.1h.1q.5.4.5 1.3v3.7l1.6-.2 3.3.4 2-3.7q.4-.7.9-1.1l.2-.1zM21 44.1l-1.7 4.3 2.5 1.6 3-5.2z"/><path fill="#bebcb4" d="m39.5 4.6-.9.1-.2.1-5-2.8L31.8.5z"/><path fill="#adaba0" d="M38.4 4.8q-.5.4-.9 1.1l-2 3.7L30.6 7V5.7q0-.9-.5-1.2v-.1H30l-1.6-.9 1-1.8q.6-1 1.3-1.2l.1-.1L33.5 2z"/><path fill="#949183" d="m35.5 9.6-3.3-.4-1.6.3V7zM13.2 25.7l1.3 1-8.1-4.2-2-1.6q-.5-.4-.5-1.2 0-.9.5-1.7l8 4.2q-.4.9-.4 1.7 0 .9.4 1.3zm19-16.5"/><path fill="#bb722b" d="M30 4.4h-1l-3.4 1.8q-.7.4-1.2 1.3v.1L22.7 4l2-2.4 3.8 1.9zM.7 32.4l.9-.8L4.4 30l3.2 1.7v.2l-4.7 1.5z"/><path fill="#c6c4bd" d="M24.3 7.6q-.3.8-.3 1.6l-8-4.3q0-.9.4-1.7T17.5 2L21 .2q.6-.4 1 0l2.8 1.4L22.7 4z"/><path fill="#b3b3a6" d="M24 9.2v3.7l-4.2-2.2.3-.3L16 5.1v-.2z"/><path fill="#acae9e" d="m24 12.9-1.9 1.7q-1.6 1.5-3 3.5l-2-1.6-.3-.2-1.8-1 4.8-4.6zM12.5 34.3l-2.9 1.5-.7.6-6-3 4.7-1.5v-.2zM33.5 2 30.7.4l1 .1zm-1.3 7.2H32"/><path fill="#937442" d="m22.1 14.6 1.2 4.8-3.5 4.5-6.7 1.8-.7-.6q-.4-.4-.4-1.2t.4-1.7l2.5-4.6q.5-.8 1.2-1.1.3-.2.7-.2l.3.2 2 1.6q1.4-2 3-3.5m16.5 30.7h-.2l-1.8-12.7 2.3-3.2-1.5-8.5 3.8-5.6 1 3.4 2.8-1.4q.6-.4 1.1 0 .4.4.5 1.3v4.6l-.5 1.7L45 26l-2.8 1.4-.4 2-1.6 5.5 2 1.6q.4.4.4 1.3t-.4 1.6L39.7 44zm-17.5-1.2 3.8.7-3 5.3-2.5-1.7z"/><path fill="#b1b1a3" d="M14.5 26.8q-1.6 3.6-2 7.5l-4.9-2.6.2-4.7-2.2-2.3.8-2.2z"/><path fill="#d9d8d5" d="m8.9 36.4-.4.5-.2.5L0 33.5l.4-.9.1-.3L3 33.4z"/><path fill="#bebdb4" d="M8.3 37.4Q8 38 8 38.6v4.6q0 .8.4 1.3L5.7 43 1 40.4l-.5-.2Q0 39.8 0 39v-4.6l.1-.9zm-1.4-24q.5-.8 1.1-1.2t1.1 0l.1.1 2.2 1.1 3.6 2 1.8.9q-.4 0-.7.2-.7.3-1.2 1.1z"/><path fill="#7e7b6d" d="M8.5 44.5h1.1l2.8-1.5q.5 3.1 2 5.3h-.2l-7.8-4.1-.7-1.2zm26.7-.4.3-.5 2 1.6z"/><path fill="#99968a" d="m14.5 48.5-2 3.6L4.4 48l2-3.7 7.8 4.1z"/><path fill="#726f63" d="M12.5 52.2q-.6.8-.5 1.6t.4 1.2l-8.3-4.7-.1-.7q-.1-.9.4-1.7z"/><path fill="#5b594f" d="m12.4 55 2.5 2-7.7-4-.3-.2-2.5-2-.4-.5z"/><path fill="#56544e" d="m18.8 52.9.3-.7q2.2.8 4.9.1v3.8q0 .6.3 1z"/><path fill="#5c5952" d="m41.2 15.3-1-1.9 5.9 3.9q-.5-.4-1.1 0l-2.8 1.4z"/><path fill="#804f1e" d="m16 5.1 4.1 5.3-.3.3-3.9-2z"/><path fill="#673f18" d="m16 8.7 3.8 2-4.8 4.7-3.6-2q2.1-2.8 4.5-4.7"/><path fill="#d7d6d2" d="m6.9 13.4 8 4.2-2.5 4.6-8-4.2z"/><path fill="#d38c36" d="M5.6 24.7 7.8 27l-.2 4.7L4.4 30q.3-2.7 1.2-5.3"/><path fill="#74481d" d="m29.5 23 .3.1q2.1.3 3.3 2.8 1 2.6.2 5.8-.7 3.3-2.8 5.3-2.2 2.1-4.5 1.9-1.4-.2-2.3-1.2 2.1.1 4.1-1.9 2.1-2 2.9-5.3t-.2-5.8q-.4-1-1-1.6"/><path fill="#3f2710" d="M29.5 23q.6.7 1 1.7 1 2.6.2 5.8-.7 3.3-2.9 5.4-2 1.9-4.1 1.8l-1-1.7q-1.1-2.5-.3-5.7t3-5.4q2-2 4-1.8"/><path fill="none" stroke="#534d3e" stroke-linecap="round" stroke-linejoin="round" stroke-width="__RESOLUTION__" d="M42.7 8q0-.8-.5-1.2l-2.5-2h0l-.2-.1L31.7.6l-1-.1h-.1q-.7.4-1.1 1.3l-1 1.8L22.1.3q-.5-.3-1 0l-3.6 1.8q-.6.4-1 1.2-.5.9-.5 1.7v3.8q-2.5 1.9-4.6 4.8l-2.3-1.2q-.4-.5-1 0-.7.3-1.1 1.1l-2.5 4.6q-.5.8-.5 1.6t.5 1.3l2 1.6q-1.5 3.7-2 7.5l-2.9 1.5-.9.8-.2.4-.3.8-.2.9V39q0 .9.5 1.2.2.2.5.2L5.8 43l.7 1.2-2 3.7q-.5.8-.5 1.6l.1.8.4.5 2.4 2 .3.1 7.7 4.1q.5.4 1.2 0l1.1-1.1 1.6-3 5.5 4.1.2.3h1.1l3.5-1.8 1.1-1.2.4-1.7V49q2.5-2 4.6-4.8l2.4 1.1 1 .1 1.1-1.1 2.5-4.6q.5-.9.5-1.7 0-.9-.5-1.3l-2-1.6 1.6-5.5.4-2 2.9-1.5 1-1.2.5-1.6v-4.7q0-.8-.4-1.2l-6-3.8v-.1l2-3.7z" vector-effect="non-scaling-stroke"/></g><g id="l"><path fill="none" stroke="#322716" stroke-linecap="round" stroke-linejoin="round" stroke-width="2" d="M37.3 114.5q6-17.5 13.6-6.4l.5-.3q4.4-17 11.9-8.1m-27.6 15.6q-5.3-8.8-12 7.2"/><path fill="#322716" d="m66.3 23.9-2.2 1.5-1.6 1.1L62.3 0zM49.6 35.4l-1 .6.1-26.2zm-12.2 8.4-4.3 3.1-.1-4.5q-.3-11.8 1.9-24.1zM22.9 54.2l-5.6 4.4-.5-40zM17.2 62l6.4-4.1.5 3.3L19.7 98l4.3 13.9 5.6-4.2 5-3.5-.5-8.7q-.6-17.8-.9-35.6v-8.1l4.7-3L39.7 67l.5-5.7q-1 18-1.4 35.9l-.1 4 10.1-7-1.2-12.7-.4 5.8 1.4-44.9 1.1-.7 1.6 50.8 2.4-1.6 8.7-6-1.3-13.2-.5 5.8 2-36.1V31l4.3-3.5 2.6 15.1-4.4 36.8 1 3q7.7-5.3 16.4-9L67.1 85.9l1.8 5.8q-4.2 8.9-4 19.1l-2-21.4-11.4 9.2v.2l3.4-1.9-3.4 2q2.7 5.2 2.8 11.2-2 2-3.4 4.5l-1.4-14.5q-5.5 3.2-10.9 6.6l-.1 16.7-2.5-2.5-1.1-11.9-5 3.2-5.3 3.3-4 23.5-2-19.6q-8.7 5.5-17.2 11.3 8.2-7.5 16.9-14.4l-2.7-26-.4 5.8zm32.6-20.4-.4.2zm16 78.1h.3l-.1.7z"/><path fill="#5b5f3f" d="m62.5 26.5 1.5-1.1 2.3-1.5q7-4.5 14.8-8L66.9 27.6 62.5 31 49.9 41.6l-.4.3.4-.2 3.6-2-3.6 2.1-1.2.7Q43.3 45.6 38 49l-4.7 2.9-4.8 3-4.8 3.1-6.7 4L0 73.4q8.4-7.8 17.3-14.8l5.6-4.4 5.3-3.9L33 47l4.3-3.1 11.2-7.7 1-.7 2.6-1.9z"/><path fill="#6b5132" d="m36 120.9 2.5 2.5v9.9h-.8zm14.9-6.3q1.4-2.4 3.4-4.5 0 5.6-2.1 12h-.5zm14-3.8q-.2-10.2 4-19.1l-1.2 9.7-.7 13.1h-1.6z"/></g><g id="k"><path fill="#a4a09d" d="m6 .3.5-.3 3.3 1.7-.5.3z"/><path fill="#4b4945" d="M6 .3 9.3 2v7.9L6 8.2z"/><path fill="#84807b" d="m9.3 2 .5-.3v8l-.5.2z"/><path fill="#1b1714" d="M11 4v4l-4.1 2.1h-.2l.1-2.7.1-.2.8-1.5z"/><path fill="#423c31" d="M6.8 10.1 0 6.7V3.4l.4-.5L6 5.8 6.8 7z"/><path fill="#5e5446" d="m.4 2.9.4-.6L3.5.9H5l6 3V4L7.7 5.8H6z"/><path fill="#796d5b" d="m7.7 5.8-.8 1.4-.2-.1-.6-1.3z"/></g><g id="j"><path fill="none" stroke="#322716" stroke-linecap="round" stroke-linejoin="round" stroke-width="2" d="M50.3 39.2q8.6 8.9 17.2-8.4m-38 34.4-5.2 16.4m24-10.4-6.4 14m17.6-38.8 9.2 9.2m-31.6-8.4q5 10.5 11.6-6m-11.6 8Q28.9 69.7 20.7 58m18.8 8.8 9.6 2.4"/><path fill="#937442" d="m66.2 21 2-2.5 1.3 9.5h-1.1q-1.3-.2-2.2-.6zM39 46.4l-1 4.8-.2.2q-1.6-4.2-2.8-8.8.2-7.6.9-15.1l1.8-1zm-3.8 32.2v-6.3l3.5-2.7-1.2 3.2.8 4-.4 1.6z"/><path fill="#322716" d="M68.3 18.5 66.2 21 66 0zm-2.1 8.9q.9.4 2.2.6h1l.9 7q7.5-4.4 15.8-6.8L71 40.2l2.7 22-4.7 50.5 1 4.5q8.2-5.1 17.5-7.8l-16.3 13 3.2 15-4.5 33.3-3.3-44.6-12 9.6v.2l3.6-1.6-3.5 1.8 1 44.3-3.2-43.2-11.5 6q-.2 22.5-.1 45-2.6-21.4-3.8-42.9l-5.5 3-5.5 3-4.3 32-2.1-28.3-18.2 11q8.6-8.3 17.9-15.4l-2.7-37.3-.4 6 1.9-45.4L0 84.6Q8.9 76.2 18.3 69l-.4-56.5 6.4 52 5.6-3.8 5.2-3.5-.1-6.4v-8.3q1.2 4.5 2.8 8.8l.2-.2 1.1-4.8.6 7.9q5.9-3.8 8.3-7.1l2.5-20-.3-10q2.1 19.5 2.4 28.9l2.9-1.8 10.8-6.8zm-28.5-.8-1.9.9q.5-5 1.2-9.9zm-2.5 45.7v-8l-5 2.8L25 70l.6 4.8-4.7 50.5 4.6 20.8 5.8-4.2 5.4-3.5-.5-12.4q-.6-23.7-.9-47.4l2.7-.2.4-1.6-.8-4 1.1-3.2zm7.4 9.4q-1 24-1.4 48.1l-.1 5.8 10.8-7-1.4-18.2-.5 8q-3-36.2-1.7-63.1-2.4 3.3-8 6.3l1.9 26zm23.8-22.1L66.3 44 52.8 54.8v.1l3.9-1.8-3.9 2 1.7 72 2.4-1.6 9.3-5.8-1.5-19-.3 6 .8-18.2q2.2-12.7 3.2-24.5 1.1-1 .9-1.3z"/><path fill="#a95c01" d="m65.2 88.5 1.2-29 2.9 3.2q.3.3-1 1.3-.9 11.8-3.1 24.5"/><path fill="none" stroke="#241b11" stroke-linecap="round" stroke-linejoin="round" stroke-width="__RESOLUTION__" d="m66 .5.3 37.5-10.8 6.8-2.9 1.8q-.2-9.5-2.4-28.9l.3 10-2.5 20q-2.4 3.3-8.3 7.1L37 18.1q-.7 5-1.1 9.9-.7 7.5-.9 15.1v14.7l-5 3.5q-2.8 1.8-5.6 3.9L17.9 13l.4 56.5Q8.8 76.8 0 85.3q9-5.6 18.2-11l-2 45.5.4-6 2.8 37.3q-9.2 7-18 15.3l18.3-10.9 2.1 28.3 4.3-32 5.5-3 5.5-3q1.1 21.4 3.8 43-.1-22.6.1-45.2l11.5-6 3.2 43.3-1-44.3 3.5-1.8-3.5 1.6v-.2l11.9-9.6 3.3 44.6 4.5-33.3-3.2-15 16.3-13q-9.3 2.7-17.5 7.8l-1-4.5 4.7-50.5-2.7-22 15-12q-8.2 2.4-15.7 6.8zM35.2 64.8l-5 2.8-5.2 2.9.6 4.8-4.7 50.5 4.6 20.8 5.8-4.2 5.4-3.5-.5-12.4q-.6-23.7-.9-47.4v-6.3zm7.4 17.4q-1 24-1.4 48.1l-.1 5.8 10.8-7-1.4-18.2-.5 8q-3-36.2-1.7-63.1-2.4 3.3-8 6.3l1.9 26zm14.1-28.5-3.9 2 1.7 72 2.4-1.6 9.3-5.8-1.5-19-.3 6 2-47.2-.1-15.5-13.5 10.8v.1z" vector-effect="non-scaling-stroke"/></g><g id="i"><path fill="#9f6" d="m144.9 100.4.5.3-.7-.4.1-.1z"/><path fill="#4f4331" d="m4.4 111.4 26.5-13.6L57 111.3v.3l-26.2 13.3h-.2z"/><path fill="#3c362b" d="m4.4 111.4 26.3 13.3v.1l-.1 5v1.7l-1.1-.9-.7-.6.7.6-15.9 6.7L4.4 151v-7.7l.8.3-.6-.2-.1-.2h-.1z"/><path fill="#534d3e" d="M30.9 124.9 57 111.5v21.2l-.2 1.4-10.4 11.7-3.8-3.4-12.1-10.9V130l.3-.2h-.3v-5zM42.8 138l-.1 4.4z"/><path fill="#575040" d="m56.9 134.1-3.1 22 3.3 14v8.9l-15-9.4.6-27.2 3.8 3.3-.9 1 .9-1 1.1 1-1.1-1zm.2 56.8v16.6h-.2L44.4 214l3-14.2zm0-15.3h-.2l-.5.4z"/><path fill="#9a9f71" d="M57 175.2h.1v.3l-.7.4.5-.3.2-.1zM4.4 143.4v.2l.7.3zm52.7-.2v.3zm-.2.4.2-.1-.7.4zM4.4 175.4v.2l.7.3z"/><path fill="#50493a" d="M57 179v11.8l-9.6 9 .6-3-.6 3-3 14.2-13.5 6.8-.4-.1V194l.4-.2h-.3v-3.5l11.2-8.3.3-12.4zm-12.7 1-2.6 2zm-2.8 8.3.2-6.3zm-.4 17.3 6.1-5.7z"/><path fill="#433f30" d="m30.5 220.7-26-13.2v-.2h-.1v-22l2.2-6.4-2.2-10.7v-4.4q12.4 3.8 26.2 36.4zm0-64h.1v.2z"/><path fill="#4a4435" d="M4.4 163.8v-12.7l9.2-13.8 15.9-6.7 1 .9v25.2l.1.2v5.1l-.1 26.7h.1v11.6q-13.8-32.7-26.2-36.5"/><path fill="#635c47" d="m30.6 131.5 12.1 10.9-.6 27.2-1.3-.8 1.3.8-.3 12.4-11.1 8.3v-1.5h.2-.2l-.2-.1V162l.4-.2h-.3v-5h.3-.2l-.2-.1z"/><path fill="none" stroke="#3c362b" stroke-linecap="round" stroke-linejoin="round" stroke-width="__RESOLUTION__" d="m30.5 220.7-26-13.2v-.2h-.1 0v-22l2.2-6.4-2.2-10.7v-4.4m26.2 36.4-.1 20.5" vector-effect="non-scaling-stroke"/><path fill="none" stroke="#584b38" stroke-linecap="round" stroke-linejoin="round" stroke-width="__RESOLUTION__" d="m30.6 131.5 12.1 10.9.1-4.4m-13.3-7.4-.7-.6m1.8 1.5-1.1-.9m18.1 16.2-1.1-1-.9 1m.9-1-3.8-3.4-.6 27.2 15 9.4m-.2-44.9-10.4 11.7m-5.7 23 1.3.8-.3 12.4 2.6-2m-13.7 10.3 11-8.3-.1 6.3m6.4 8.4-.6 3.2 9.7-9m-9.7 9-3 14.1m3-14.2-6.2 5.8" vector-effect="non-scaling-stroke"/><path fill="none" stroke="#584b38" stroke-linecap="round" stroke-linejoin="round" stroke-width="__RESOLUTION__" d="M4.4 143.2v24.9l2.3 10.7-2.2 6.4-.1 22h.2v.1l26.3 13.4 26.2-13.3V175h0v-5l-3.3-14 3.3-23.4V111L31 97.7 4.5 111.2z" vector-effect="non-scaling-stroke"/><path fill="#8d8465" d="m88.8 14.7 6.4-5 2.8.1v-.2q-.3-.7-1.1-1.2L107.7 0h7.1l4.8 2.4-.9 1.9-.2.1 1.3-.1 1.5-1 8.6 4.3-.2.3-13 5.5-10.9 4.4-6.1-1.1h-.1z"/><path fill="#7e765a" d="m88.8 14.7 10.8 2-13 20.7L96 43l-12.3 9.5-4.5-.9 1.8 2.9h.1L62.7 68.9 59 68l1.1 2.8-16.7 13-.3-.8h-9.9l-17 8.7L.1 83.4v-.1l9-7 17.1-1.4 30.9-16.8-3.2-16.4 11.3-8.8 3.4.6 1-.2v-.1L68 30.8z"/><path fill="#746d53" d="m99.6 16.7 6.1 1.1 10.9-4.4 13-5.5.2-.3.8.4 4.8 4.3-17 13.1-.2.2L96 42.9l-9.3-5.5zm-45.7 25L57 58.1 26.2 74.9l-17 1.3zm62.8-28.3 1.7 12zM21 94l-4.7-2.4 16.9-8.7h9.9l.3.8L32 92.6z"/><path fill="#635c47" d="m135.5 12.3 1.2 3.8v25.3l-2.4 4-17 13-53 41.2 12.5-22.3 30.5-29h-1L96 42.8l22.3-17.3.1-.2zm-88.8 101L28.9 127h-2.7v-25l.3-.2h-.3v-2l.1-3 .2 3.3.3.4-.1-.7 5.3-7.2 11.4-9L50.7 97zm71.9-87-1 22h-10.2 10.2zm-1.2 32.1.2-10.1z"/><path fill="#534d3e" d="m64.3 99.6-17.7 13.7 4-16.3-7.2-13.3 16.7-13L59 68l3.7.8 18.4-14.3H81l-1.8-2.9 4.5 1L96 42.8l10.3 5.3h1L76.8 77.4z"/><path fill="#433f30" d="M26.2 127h-3.3L.2 115.4v-.2H0V83.4l16.3 8.3L21 94l5.3 5.8-.1 2z"/><path fill="#6b724a" d="M.2 115.3H0z"/><path fill="#928167" d="m21 94 11-1.4-5.3 7.2.1.7-.3-.4-.2-3.3v3z"/><path fill="none" stroke="#3f392e" stroke-linecap="round" stroke-linejoin="round" stroke-opacity=".5" stroke-width="__RESOLUTION__" d="m129.9 7.6-8.7-4.3-1.5 1-1.2.1.2-.1.9-1.9-4.7-2.4h-7.2L96.9 8.4q.8.5 1.1 1.2v.2l-2.8-.1-6.5 5 10.9 2h.1l6.1 1.1 10.9-4.4h0l13-5.5zl.8.4 4.8 4.3 1.2 3.8v25.3l-2.4 4-17 13-53 41.2-17.7 13.7L28.9 127h-6L.2 115.4v-.2H0V83.4h0l9.1-7H8m80.2-61.8.7.1-21 16.3 1.9 2.3v.1l-1.1.2-3.4-.6-11.4 8.8 3.3 16.4L26.3 75l-17 1.3L54 41.8m42 1.1-9.3-5.5 12.9-20.7m18.8 8.9v-.2l-1.7-12M96 42.9l10.3 5.3h1l10.2.1 1-22M16.3 91.5 21 94l5.3 5.8-.1 2V127m17.2-43.3-.3-.8h-9.9l-17 8.7L.1 83.4m43.3.3L50.6 97l-4 16.3m-3.2-29.6 16.7-13L59 68l3.7.8 18.4-14.3H81l-1.8-2.9 4.5 1L96 42.8m11.3 5.3L76.8 77.4 64.3 99.6m53.2-51.3-.2 10.1" vector-effect="non-scaling-stroke"/><path fill="#94876b" d="M65 42.9 88.1 25l.7.4v5l-.4.5L74 38.4l-5.2 5.5zM38.6 63.4l24.7-19.2q-1.1 5.5-8.4 10.7-7.5 5.3-16.3 8.5"/><path fill="#2e2921" d="m88.8 25.4 12.1 6.1v.1l-3.8 3-.8.6-5.2 4.1-1.4 1.1-1.3 1V30.9l.4-.5z"/><path fill="#2d2822" d="m97.1 34.7 1.1.9-1.9-.4zm-6 4.7.6 1-2 .1zm-2.7 2-4 3.1.2 1.5-1.8-.2-12.7 9.9-3 3.5-2.7.8-7.6 6v1.3H55l-7.9 6.1-12.8-6.5v-.1l4.3-3.4q8.8-3.1 16.3-8.4 7.3-5.2 8.4-10.7L65 43l3.8 1 5.2-5.5L88.4 31z"/><path fill="#4d4437" d="m6.4 58.1 21-10.7L48 57.9v.3L27.4 68.7h-.2z"/><path fill="#322c23" d="m6.4 58.1 20.8 10.6-.1 4V94L6.5 83.5v-.2l-.1.1z"/><path fill="#4a4435" d="M27.4 68.8 48 58.2v17.1L27.4 94.1 27 94V72.8l.3-.1H27l.1-4z"/><path fill="#8d8465" d="m14.7 28.5.2-.1 6.2 3.2 7.3-2.7 1.2-5.7 9.7 4.9.3 1.3h.2l1.3-.1v-.2l5.5 2.7.5 1.5-4.7 2.4-4.3-1.5q-2.4-1.7-5.1-3l-2.4-1.4q3.4 2.8 7.5 4.4l2.8 2.4-3.2 1.5-1-.5-3.6-.8 1.1 1.2h.2q.9.4 1.5 1l-5.5 3-5.8.1-4-2 2.2-3.7H18l-1.8 1.4-1.1-.6 5.8-3.2.5-.2.2-.2-.7.4q-3.7 1.3-7.7 2.3l-5.9-3 .5-1.2z"/><path fill="#433f30" d="m7.3 33.2 5.8 3-.6.1.1 2.4h.2L15 37l1.1.6 4.4 2.3 4 2 2.6 1.4-.1 25.2L6.5 58.1V58h-.1V35.5z"/><path fill="#635c47" d="M13.2 36.2q4-1 7.7-2.3l.7-.4-.2.2-.5.2-5.8 3.3-2.3 1.4-.2.1-.1-2.4zl2 1zm17.3 5.6 5.5-2.7q-.6-.7-1.5-1.1h-.2l-1-1.2 3.4.9 1 .4 3.3-1.5-2.8-2.4q-4.1-1.6-7.5-4.4l2.4 1.4q2.7 1.3 5.1 3l4.3 1.5 4.8-2.4.9 2.3V58L27.4 68.8l-.3-.1.1-25.2h.2zm12-6.2-1.5.9zM37.8 38 36 39z"/><path fill="#7a7947" d="m16.2 37.7 1.8-1.4h4.8L20.6 40zm13.4-14.5-1.2 5.7-7.3 2.7-6.2-3.2 1.5-.7 1.9.3.2-1.4 3.6-1.9.3 1 .6-1.5 2.1-1z"/><path fill="#baad9e" d="m24.6 42 5.8-.1-3 1.5h-.2z"/><path fill="none" stroke="#3f392e" stroke-linecap="round" stroke-linejoin="round" stroke-opacity=".5" stroke-width="__RESOLUTION__" d="M14.7 28.5 7.8 32l-.5 1.2 5.8 3 2 1 1.1.5 4.4 2.3 4 2 5.8-.1 5.5-2.8 1.8-1 3.1-1.5 1.6-.9 4.8-2.4-.6-1.5-5.5-2.7v.2l-1.3.1h-.2l-.3-1.3-9.7-4.9h0H25l-2.1 1-.5 1.5h-.1l-.2-1-3.7 1.9-.2 1.4-2-.4zm-7.6 4.8-.9 2.1v22.8l.1-.1v.1L27 68.6l.1-25.2h0L24.6 42M47 33.3l1 2.3V58L27.4 68.8l-.3-.1" vector-effect="non-scaling-stroke"/></g><g id="h"><path fill="#8d8465" d="m1 11.2.6-1.4 13.5-7H18l22.8 11.7 1 1.8L29 22.9l-5.8-.4z"/><path fill="#635c47" d="m41.8 16.3.9 1.7v29.8L26.5 56l-.4-.1.3-23.3v-7l2.6-2.8zM12.6 49 .1 42.7v-.1H0V23.2l10 10.7 2.6-2.7z"/><path fill="#514739" d="m26.2 56-13.5-7V31.4l1.8 5 11.9-3.6z"/><path fill="#4a4435" d="M0 23.2v-9.5l1-2.5 22.2 11.3 3.1 3.4v-.1l.1.7v6.2l-11.9 3.6-1.9-5v-.1L10 33.9z"/><path fill="#b3a995" d="m23.2 22.5 5.8.4-2.6 2.8-.1.2z"/><path fill="#2d2822" fill-opacity=".5" d="m21.2 22.3-14.3-7 19.7-.3 2.1 8.1z"/><path fill="#8d8465" d="M14.7 3.4 21.3 0h2.1l6.9 3.5-.6.7v.1h.8l.9-.3 3.2 1.6v.2l-5.8 3-3.7-.1z"/><path fill="#40392d" d="M14.7 3.4 25 8.7l2 2-.2.3v11.5l-12.2-6.2h-.1V7h.3l-.3-.7z"/><path fill="#d3cec2" d="m25 8.7 3.8.1-1.7 2.4-.2-.2.2-.3z"/><path fill="#544d3d" d="m28.8 8.8 5.7-3v6l-1 1.5v.1l1 .8v4.5L27 22.6h-.1V11l.2.2z"/><path fill="none" stroke="#2b251e" stroke-linecap="round" stroke-linejoin="round" stroke-opacity=".7" stroke-width="__RESOLUTION__" d="M34.6 5.8v-.2L31.4 4l-1 .3h-.7v-.1l.6-.7L23.4 0h-2.1l-6.7 3.4v3l.3.7h-.3v9.2h.1l12.2 6.2m7.6-16.7v6l-1 1.5v.1l1 .8v4.5L27 22.6h-.1" vector-effect="non-scaling-stroke"/></g><g id="f"><path fill="#b4a77a" d="m5.8 31.4 1.6-22L6 4.9q.8-1.3 5.8-4.4V7l-1.3 8.4.1-9.8H9.3zm4.4-5.6v11.8q-2 29.7-4.4 53L2 81.2l2.3-30.8q4-9.1 5.9-24.6"/><path fill="#faf0c0" d="M5.8 31.4 9.3 5.6h1.3l-.1 9.8-.3 2v8.4Q8.4 41.3 4.4 50.4z"/><path fill="#a4945b" d="M5.8 90.6H5v9l-4.5 1.8.9-2.8v-.1l.3-.9-1-4.1L2 81.2z"/><path fill="none" stroke="#000" stroke-linecap="round" stroke-linejoin="round" stroke-opacity=".4" stroke-width="1" d="M10.5 15.4 11.8 7V.5q-5 3-5.8 4.4l1.4 4.5-1.6 22-1.5 19L2 81.2.7 93.5l1 4.1-.3.9h0l-.9 2.9L5 99.6v-9h.8q2.5-23.2 4.4-53V17.4z"/></g><g id="e"><path fill="#908561" d="m9.5 6.3-.8-1.2-1.5-2-.5-1v-.4Q6.7.4 7.9.1t2.8.8l1 .9.8.6 1 1.2v.1l.1.1-.7 2.2-1.8.4zm5.9-.6 1.1 2q.9 2 1.4 7.2L16.8 10q-1.9-1.8-3.4-1l-1 1.5.1 23L11 62.3h.1l1 1.4.3.5q.4 1.1.4 1.8v.2l1.1.9.3.2.3.1.6.4.8.2q0 .8-.8.8l-.5.1v.4l.1.1q.3 1.5 1.2 3.2l.1.2 1.3 2.6 2 3.6 2.2 4q-3.3-7.9-.4-2.5l-.5-1-2-4.8-.6-2.2-.4-1.9-.2-1-.3-.3-1.2-2v.6l.7 1.1.7 1.8q.3 1 .1 1.4h-.6l-.7-.9-.2-.4-.1-.2-.6-1.5v-.4H15l-.4.1-1.3-.5-1.2-1.2-.5.1-.5.1-.7.8-.2.2q-.2.1-.4-.1l-.8-.7-1-.5q-1.2.3-2.4 1l-.5.3.6-.6h-.2l-.7.6-.2.1V67h.1H4l.5-.5 1.6-1.4.6-.7-.1-.2-.5-.8v-.1q-.5-.7-.4-1.7l.1-.4q.5-.9 3.1-1.3 2.5-.3 2.4-46.6l-.5-2.5 1-2q.5-.7 1.6-1t1.5-1zm2.6 11q0 1.5-.4 2.1-1.2 1.7-2-.3L16 15q2 4.1 2.1 1.8M0 72.6v-.3zM11.8 3l-.2-.2q-.5-.8-1.5-1.4T8.5.8Q7.9 1 7.9 2q0 .8.5 1.6.7 1 1.7 1.7t1.5.3q.8 0 .8-.7v-.3zm-4 60.4.3.8 1.1 1.9L8 64.2zm1.6 3.5.4.4h.5l-.2-.1zm1.7.5-.8-.1zm1-.2q.7-.5.7-1 0 .5-.7 1"/><path fill="#7c7045" d="m13.6 3.8 1.8 2-.5 1q-.4.6-1.5 1-1.1.3-1.6 1l-1 2-.6-3.4-.7-1h1.6l1.8-.4z"/><path fill="#c8c099" d="M18 15v1.8q-.1 2.3-2.2-1.8l-.2 3.6-3 45.3.8.3 1.6 1.6.8 1.5v.7l-.8-.2-.6-.4-.3-.1-.3-.2-1.1-1q0-.8-.4-1.9l-.4-.6-.9-1.3 1.5-28.7v-23l1-1.6q1.4-.7 3.3 1.1zm3 65.5q2.1 4.4 4.5 8l.2.3.3.5.2.2q6.7 15.4-.7 2l-1-2.2-3-6.2q-3.3-8-.4-2.6M5.4 67.8l-.4.5-1.7 1.6-2.9 2.7-.5.3v-.4H0l-.1-.3v-2.1l.8-.6 3.7-2.6v1.6l.2-.1zM11.9 3l.5 1.5v.3q0 .7-.8.7-.5.3-1.5-.3T8.4 3.5q-.5-.8-.5-1.6t.6-1 1.7.5 1.5 1.4zm4 65 .7 1.1.7 1.8q.3 1 .1 1.4h-.6l-.7-.9-.2-.4-.1-.2-.6-1.5v-.4q.7 0 .7-.8m-6.1-.7-.3-.4.6.3z"/><path fill="none" stroke="#2c2419" stroke-linecap="round" stroke-linejoin="round" stroke-opacity=".5" stroke-width="__RESOLUTION__" d="m9.5 6.3-.8-1.2-1.5-2-.5-1v-.4Q6.7.4 7.9.1t2.8.8l1 .9.8.6 1 1.2v.1l.1.1 1.8 2 1.1 2q.9 2 1.4 7.2l.1 1.2v.6q0 1.5-.4 2.1-1.2 1.7-2-.3l-3 45.3.8.3 1.6 1.6.8 1.5v.7q0 .8-.8.8h0l-.5.1-1.3-.5-1.2-1.2-.5.1-.5.1h0l-.8-.1m-4.1-3.9v-.1q-.5-.7-.4-1.7l.1-.4q.5-.9 3.1-1.3 2.5-.3 2.4-46.6l-.5-2.5-.6-3.4-.7-1M12.8 66q0 .7-.7 1.2M15.9 15l-.3 3.6M9.1 66.1 8 64.2l-.3-.8m1.6 3.5.7.3" vector-effect="non-scaling-stroke"/></g><g id="d"><path fill="#8d8465" d="m1 14.2.6-1.4 13.5-7H18l22.8 11.6 1 1.9L29 25.9l-5.8-.4z"/><path fill="#635c47" d="m41.8 19.3.9 1.7v29.8L26.5 59l-.3-.1.2-23.3v-7l2.6-2.8z"/><path fill="#514739" d="m26.2 59-13.5-7V34.4l1.8 5 11.9-3.6z"/><path fill="#5b5242" d="M12.7 52 .2 45.8v-.1H0V26.2l10 10.7 2.6-2.7z"/><path fill="#4a4435" d="M0 26.2v-9.5l1-2.5 22.2 11.3 3.1 3.4v-.1l.1.7v6.2l-11.9 3.6-1.8-5-.1-.1-2.6 2.6z"/><path fill="#b3a995" d="m23.2 25.5 5.8.4-2.6 2.8-.1.2z"/><path fill="#2d2822" fill-opacity=".5" d="M14.9 21.2 2.4 14.3l29.4.5 2.2 8.1z"/><path fill="#786b56" d="m3.1 48.7 2.7-1.3 18 9.1v.3L21.2 58l-.1-.1z"/><path fill="#4a4435" d="m3.1 48.7 18 9.2v43.2l-.1.8v-.8L3.2 92v-.1h-.1z"/><path fill="#605544" d="m21.3 58 2.4-1.2v43.1l-2.4 1.3-.2-.1V58z"/><path fill="#8d8465" d="M21 3.4 27.6 0h2.1l6.8 3.5-.5.7v.1h.8l.9-.3 3.2 1.7v.1l-5.8 3-3.7-.1z"/><path fill="#40392d" d="m21 3.4 10.4 5.3 2 2-.2.4V23v-.5L21 16.3h-.1V7h.3l-.2-.7z"/><path fill="#d3cec2" d="m31.4 8.7 3.7.1-1.7 2.4-.2-.1.1-.4z"/><path fill="#544d3d" d="m35.1 8.8 5.7-3v6l-1 1.5v.1l1 .8v4.5l-7.5 3.9h-.1V11l.2.1z"/><path fill="none" stroke="#2b251e" stroke-linecap="round" stroke-linejoin="round" stroke-opacity=".7" stroke-width="__RESOLUTION__" d="m40.8 5.8.1-.1L37.7 4l-1 .3H36v-.1l.5-.7L29.9 0h-2.2L21 3.4v3l.3.7H21l-.1 9.2h.1l12.1 6.2m7.7-16.7v6l-1 1.5v.1l1 .8v4.5l-7.5 3.9h-.1" vector-effect="non-scaling-stroke"/></g><path id="s" fill="#231d15" fill-opacity=".4" d="m100.5 58 108.2 57v8.5L100.5 66.4zM76 38.3v8.4L0 8.4V0z"/><path id="r" fill="url(#a)" d="M37.3-37.3Q52.8-22 52.8 0T37.3 37.3Q21.9 52.8 0 52.8t-37.3-15.5Q-52.8 21.9-52.8 0t15.4-37.3Q-21.8-52.8 0-52.8t37.3 15.4" transform="translate(52.8 52.8)"/><path id="m" fill="#3e4033" d="m37.8 92.3 6.4 3.2v33.3l-6.3-3.2z" transform="translate(-37.8 -92.3)"/><path id="g" fill="url(#b)" d="M21.3-.2 28-3.7h2.2L37-.2h.1V0l-.5.7h.6l.9-.4L41.4 2l.1.1v6.1l-.1.1-1 1.4 1 .8v3.8l1.8 3.1v29.8l-16.3 8.3-2.7-1.4v42.2l-2.1 1.2q2.8 5.7-.6.2v.5-.5l-.2-.2-4.4-2.3v1.1l-.1.3-.2.2-2.1.8h-.3l-.3-.2V97l.3-1.2v-.1l.1-.2-.5-1.7v-.2l-3.7-1.9-1 .5h-.3l-.3-.2-.1-.3.2-.8-2.1-1-.7.3-.3.1-.3-.2-.2-.3.2-.6-1.6-.8V69.1L2.3 48.4l-.9-1.9v-.3q.2-.8 2.6-2.5L.7 42.1.5 42V13L2 9.3l13.5-7h3l2.8 1.5v-.3h.2l-.2-.6zM4.8 44.2v.3l.3-.1z" transform="translate(-.45 3.7)"/><radialGradient id="a" cx="0" cy="0" r="819.2" gradientTransform="scale(.06)" gradientUnits="userSpaceOnUse" spreadMethod="pad"><stop offset="0" stop-color="#ff5900" stop-opacity=".3"/><stop offset=".6" stop-color="#ff8c00" stop-opacity=".2"/><stop offset="1" stop-color="#ff8c00" stop-opacity="0"/></radialGradient><linearGradient id="b" x1="-819.2" x2="819.2" gradientTransform="matrix(0 -.01 .03 0 18.45 81.45)" gradientUnits="userSpaceOnUse" spreadMethod="pad"><stop offset="0" stop-color="#e8a102" stop-opacity=".3"/><stop offset="1" stop-color="#ffae00" stop-opacity="0"/></linearGradient><clipPath id="c"><path d="M1 1h184v276H1z"/></clipPath></defs><g clip-path="url(#c)"><g transform="translate(198.3 266.6)"><use xlink:href="#d" width="42.7" height="101.8" transform="matrix(.7615 -.0364 0 .7615 -186.35 -140.5)"/><use xlink:href="#e" width="29.3" height="97.8" transform="matrix(.4157 -.0199 .0269 .4144 -183.75 -102.1)"/><use xlink:href="#f" width="12.3" height="101.9" transform="matrix(.3488 -.0549 .0488 .3381 -187.6 -103.85)"/><use xlink:href="#f" width="12.3" height="101.9" transform="matrix(.3507 -.0152 .0099 .3432 -173.4 -100.9)"/><use xlink:href="#f" width="12.3" height="101.9" transform="matrix(.3488 -.0549 .0488 .3381 -185.05 -102.45)"/><use xlink:href="#f" width="12.3" height="101.9" transform="matrix(.3507 -.0152 .0099 .3432 -177 -99.05)"/><use xlink:href="#g" width="42.7" height="104" transform="matrix(.7615 -.0364 0 .7615 -186.35 -140.6)"/><use xlink:href="#d" width="42.7" height="101.8" transform="matrix(.7615 -.0364 0 .7615 -166.1 -131.2)"/><use xlink:href="#e" width="29.3" height="97.8" transform="matrix(.4157 -.0199 .0269 .4144 -163.5 -92.8)"/><use xlink:href="#f" width="12.3" height="101.9" transform="matrix(.3488 -.0549 .0488 .3381 -167.35 -94.55)"/><use xlink:href="#f" width="12.3" height="101.9" transform="matrix(.3507 -.0152 .0099 .3432 -153.15 -91.6)"/><use xlink:href="#f" width="12.3" height="101.9" transform="matrix(.3488 -.0549 .0488 .3381 -164.8 -93.15)"/><use xlink:href="#f" width="12.3" height="101.9" transform="matrix(.3507 -.0152 .0099 .3432 -156.75 -89.75)"/><use xlink:href="#g" width="42.7" height="104" transform="matrix(.7615 -.0364 0 .7615 -166.1 -131.3)"/><use xlink:href="#d" width="42.7" height="101.8" transform="matrix(.7615 -.0364 0 .7615 -146.4 -121.85)"/><use xlink:href="#e" width="29.3" height="97.8" transform="matrix(.4157 -.0199 .0269 .4144 -143.8 -83.45)"/><use xlink:href="#f" width="12.3" height="101.9" transform="matrix(.3488 -.0549 .0488 .3381 -147.65 -85.2)"/><use xlink:href="#f" width="12.3" height="101.9" transform="matrix(.3507 -.0152 .0099 .3432 -133.45 -82.25)"/><use xlink:href="#f" width="12.3" height="101.9" transform="matrix(.3488 -.0549 .0488 .3381 -145.1 -83.8)"/><use xlink:href="#f" width="12.3" height="101.9" transform="matrix(.3507 -.0152 .0099 .3432 -137.05 -80.4)"/><use xlink:href="#g" width="42.7" height="104" transform="matrix(.7615 -.0364 0 .7615 -146.4 -121.95)"/><use xlink:href="#h" width="42.7" height="56.1" transform="matrix(.7615 -.0364 0 .7615 -124.95 -172.9)"/><use xlink:href="#i" width="145.4" height="220.8" transform="matrix(.7615 -.0364 0 .7615 -132.85 -228.2)"/><use xlink:href="#j" width="87.5" height="188.8" transform="matrix(.7615 -.0364 0 .7615 -117.55 -264.6)"/><use xlink:href="#k" width="11" height="10.2" transform="matrix(.7615 -.0364 0 .7615 -109.2 -214.65)"/><use xlink:href="#k" width="11" height="10.2" transform="matrix(.7615 -.0364 0 .7615 -109.2 -219.95)"/><use xlink:href="#k" width="11" height="10.2" transform="matrix(.7615 -.0364 0 .7615 -109.2 -225.25)"/><use xlink:href="#k" width="11" height="10.2" transform="matrix(.7615 -.0364 0 .7615 -109.2 -230.55)"/><use xlink:href="#k" width="11" height="10.2" transform="matrix(.7615 -.0364 0 .7615 -109.2 -235.85)"/><use xlink:href="#k" width="11" height="10.2" transform="matrix(.7615 -.0364 0 .7615 -109.2 -241.15)"/><use xlink:href="#k" width="11" height="10.2" transform="matrix(.7615 -.0364 0 .7615 -109.2 -246.4)"/><use xlink:href="#l" width="82.5" height="139" transform="matrix(.7615 -.0364 0 .7615 -112.55 -230.55)"/><use xlink:href="#m" width="6.5" height="36.5" transform="matrix(.7615 -.0364 0 .7615 -122.65 -194.1)"/><use xlink:href="#n" width="46.6" height="57.5" transform="matrix(.6239 -.0298 0 .6239 -135.1 -197.2)"/><use xlink:href="#n" width="46.6" height="57.5" transform="matrix(.6348 -.0303 0 .6348 -151.45 -148.7)"/><use xlink:href="#n" width="46.6" height="57.5" transform="matrix(.6348 -.0303 0 .6348 -149.9 -178.85)"/><use xlink:href="#o" width="28.8" height="27.6" transform="matrix(.7615 -.0364 0 .7615 -136.65 -142.9)"/><use xlink:href="#p" width="14.7" height="17.5" transform="matrix(.4352 -.0208 0 .4352 -131.5 -130.15)"/><use xlink:href="#o" width="28.8" height="27.6" transform="matrix(.7615 -.0364 0 .7615 -135.8 -175.15)"/><use xlink:href="#p" width="14.7" height="17.5" transform="matrix(.4352 -.0208 0 .4352 -131.2 -162.55)"/><use xlink:href="#d" width="42.7" height="101.8" transform="matrix(.7615 -.0364 0 .7615 -106.5 -97.9)"/><use xlink:href="#e" width="29.3" height="97.8" transform="matrix(.4157 -.0199 .0269 .4144 -103.9 -59.5)"/><use xlink:href="#f" width="12.3" height="101.9" transform="matrix(.3488 -.0549 .0488 .3381 -107.75 -61.25)"/><use xlink:href="#f" width="12.3" height="101.9" transform="matrix(.3507 -.0152 .0099 .3432 -93.55 -58.3)"/><use xlink:href="#f" width="12.3" height="101.9" transform="matrix(.3488 -.0549 .0488 .3381 -105.2 -59.85)"/><use xlink:href="#f" width="12.3" height="101.9" transform="matrix(.3507 -.0152 .0099 .3432 -97.15 -56.45)"/><use xlink:href="#g" width="42.7" height="104" transform="matrix(.7615 -.0364 0 .7615 -106.5 -98)"/><use xlink:href="#d" width="42.7" height="101.8" transform="matrix(.7615 -.0364 0 .7615 -86.35 -87.9)"/><use xlink:href="#e" width="29.3" height="97.8" transform="matrix(.4157 -.0199 .0269 .4144 -83.75 -49.5)"/><use xlink:href="#f" width="12.3" height="101.9" transform="matrix(.3488 -.0549 .0488 .3381 -87.6 -51.25)"/><use xlink:href="#f" width="12.3" height="101.9" transform="matrix(.3507 -.0152 .0099 .3432 -73.4 -48.3)"/><use xlink:href="#f" width="12.3" height="101.9" transform="matrix(.3488 -.0549 .0488 .3381 -85.05 -49.85)"/><use xlink:href="#f" width="12.3" height="101.9" transform="matrix(.3507 -.0152 .0099 .3432 -77 -46.45)"/><use xlink:href="#g" width="42.7" height="104" transform="matrix(.7615 -.0364 0 .7615 -86.35 -88)"/><use xlink:href="#d" width="42.7" height="101.8" transform="matrix(.7615 -.0364 0 .7615 -66.1 -78.6)"/><use xlink:href="#e" width="29.3" height="97.8" transform="matrix(.4157 -.0199 .0269 .4144 -63.5 -40.2)"/><use xlink:href="#f" width="12.3" height="101.9" transform="matrix(.3488 -.0549 .0488 .3381 -67.35 -41.95)"/><use xlink:href="#f" width="12.3" height="101.9" transform="matrix(.3507 -.0152 .0099 .3432 -53.15 -39)"/><use xlink:href="#f" width="12.3" height="101.9" transform="matrix(.3488 -.0549 .0488 .3381 -64.8 -40.55)"/><use xlink:href="#f" width="12.3" height="101.9" transform="matrix(.3507 -.0152 .0099 .3432 -56.75 -37.15)"/><use xlink:href="#g" width="42.7" height="104" transform="matrix(.7615 -.0364 0 .7615 -66.1 -78.7)"/><use xlink:href="#d" width="42.7" height="101.8" transform="matrix(.7615 -.0364 0 .7615 -46.4 -69.25)"/><use xlink:href="#e" width="29.3" height="97.8" transform="matrix(.4157 -.0199 .0269 .4144 -43.8 -30.85)"/><use xlink:href="#f" width="12.3" height="101.9" transform="matrix(.3488 -.0549 .0488 .3381 -47.65 -32.6)"/><use xlink:href="#f" width="12.3" height="101.9" transform="matrix(.3507 -.0152 .0099 .3432 -33.45 -29.65)"/><use xlink:href="#f" width="12.3" height="101.9" transform="matrix(.3488 -.0549 .0488 .3381 -45.1 -31.2)"/><use xlink:href="#f" width="12.3" height="101.9" transform="matrix(.3507 -.0152 .0099 .3432 -37.05 -27.8)"/><use xlink:href="#g" width="42.7" height="104" transform="matrix(.7615 -.0364 0 .7615 -46.4 -69.35)"/><use xlink:href="#q" width="50.3" height="27.6" transform="matrix(-.2639 -.097 -.2579 .6567 -89.15 -161.3)"/><use xlink:href="#q" width="50.3" height="27.6" transform="matrix(-.1686 -.2483 -.3955 .5913 -32 -201.75)"/><use xlink:href="#r" width="105.6" height="105.6" transform="matrix(.7589 .3365 -.2067 .4308 -195.45 -119.55)"/><use xlink:href="#r" width="105.6" height="105.6" transform="matrix(.866 .384 -.2067 .4308 -106.2 -81.3)"/><use xlink:href="#s" width="208.7" height="123.5" transform="matrix(.7615 -.0364 0 .7615 -186 -106.95)"/></g></g></svg>