<svg xmlns="http://www.w3.org/2000/svg" xmlns:xlink="http://www.w3.org/1999/xlink" width="33" height="30" viewBox="0 0 33 30"><defs><radialGradient id="d" cx="0" cy="0" r="819.2" gradientTransform="matrix(.04 0 0 .04 2.75 2.95)" gradientUnits="userSpaceOnUse" spreadMethod="pad"><stop offset="0" stop-color="#c2cc55"/><stop offset=".5" stop-color="#959e3e" stop-opacity=".7"/><stop offset="1" stop-color="#453f1e" stop-opacity="0"/></radialGradient><radialGradient id="e" cx="0" cy="0" r="819.2" gradientTransform="matrix(.04 0 0 .04 2.75 2.95)" gradientUnits="userSpaceOnUse" spreadMethod="pad"><stop offset="0" stop-color="#acb64c"/><stop offset=".5" stop-color="#848c38" stop-opacity=".7"/><stop offset="1" stop-color="#3d381b" stop-opacity="0"/></radialGradient><radialGradient id="f" cx="0" cy="0" r="819.2" gradientTransform="matrix(.04 0 0 .04 2.75 2.95)" gradientUnits="userSpaceOnUse" spreadMethod="pad"><stop offset="0" stop-color="#d8e45f"/><stop offset=".5" stop-color="#a6b046" stop-opacity=".7"/><stop offset="1" stop-color="#4d4722" stop-opacity="0"/></radialGradient><use xlink:href="#a" id="m" width="5.8" height="39.3"/><use xlink:href="#b" id="l" width="5.8" height="39.3"/><use xlink:href="#c" id="k" width="5.8" height="39.3"/><g id="a"><path fill="url(#d)" d="m3 .2 1.2.2q1.7 20.9 1.1 38.8L0 37.4Q3.6 18.2 1.9 1.6z" transform="translate(.15 -.05)"/><path fill="none" stroke="#000" stroke-linecap="round" stroke-linejoin="round" stroke-opacity=".2" stroke-width="__RESOLUTION__" d="M5.5 39.2Q6 21.2 4.4.4L3 .2M2 1.5q1.6 16.7-2 35.9M3.2.1l-1 1.4" vector-effect="non-scaling-stroke"/></g><g id="b"><path fill="url(#e)" d="m3 .2 1.2.2q1.7 20.9 1.1 38.8L0 37.4Q3.6 18.2 1.9 1.6z" transform="translate(.15 -.05)"/><path fill="none" stroke="#000" stroke-linecap="round" stroke-linejoin="round" stroke-opacity=".2" stroke-width="__RESOLUTION__" d="M5.5 39.2Q6 21.2 4.4.4L3 .2M2 1.5q1.6 16.7-2 35.9M3.2.1l-1 1.4" vector-effect="non-scaling-stroke"/></g><g id="c"><path fill="url(#f)" d="m3 .2 1.2.2q1.7 20.9 1.1 38.8L0 37.4Q3.6 18.2 1.9 1.6z" transform="translate(.15 -.05)"/><path fill="none" stroke="#000" stroke-linecap="round" stroke-linejoin="round" stroke-opacity=".2" stroke-width="__RESOLUTION__" d="M5.5 39.2Q6 21.2 4.4.4L3 .2M2 1.5q1.6 16.7-2 35.9M3.2.1l-1 1.4" vector-effect="non-scaling-stroke"/></g><clipPath id="j"><path d="M1 1h31v28H1z"/></clipPath></defs><g clip-path="url(#j)"><g transform="translate(17.1 19.8)"><use xlink:href="#k" width="5.8" height="39.3" transform="matrix(.4812 .1434 0 .4281 -13.7 -10.4)"/><use xlink:href="#l" width="5.8" height="39.3" transform="matrix(-.4786 .152 .0077 .428 -2.8 -17.5)"/><use xlink:href="#l" width="5.8" height="39.3" transform="matrix(.4652 .091 .0388 .4022 -8.8 -16.45)"/><use xlink:href="#m" width="5.8" height="39.3" transform="matrix(-.4993 .0502 -.0805 .4201 6.55 -15.4)"/><use xlink:href="#k" width="5.8" height="39.3" transform="matrix(.4081 .2148 .048 .496 -16.1 -12.9)"/><use xlink:href="#k" width="5.8" height="39.3" transform="matrix(.4249 .0825 .036 .3672 -7 -5.85)"/><use xlink:href="#k" width="5.8" height="39.3" transform="matrix(.2802 -.0785 -.0039 .2842 -10.35 -2.8)"/><use xlink:href="#m" width="5.8" height="39.3" transform="matrix(.3283 -.0352 -.0578 .3172 10.75 -11.15)"/><use xlink:href="#k" width="5.8" height="39.3" transform="matrix(-.5444 .3074 -.0722 .525 5.3 -18.8)"/><use xlink:href="#k" width="5.8" height="39.3" transform="matrix(-.3525 .0684 -.0299 .3046 -.55 -10.35)"/><use xlink:href="#k" width="5.8" height="39.3" transform="matrix(-.2298 -.0161 -.0691 .1838 14.05 -5.25)"/><use xlink:href="#k" width="5.8" height="39.3" transform="matrix(-.6604 .244 -.0662 .3358 7.65 -5.9)"/><use xlink:href="#k" width="5.8" height="39.3" transform="matrix(-.2298 -.0161 -.0691 .1838 7.6 0)"/></g></g></svg>