<svg xmlns="http://www.w3.org/2000/svg" xmlns:xlink="http://www.w3.org/1999/xlink" width="17" height="25" viewBox="0 0 17 25"><defs><clipPath id="a"><path d="M1 1h15v23H1z"/></clipPath><g id="b"><path fill="#367ae9" d="m4.4 13.5.5-.3-.3 2.6zm2.7 6.2-1-.6 1-5zm-3.8-2.1L0 15.7l3.9-2z"/><path fill="#1560b9" d="m5 13.2 6.9-3.7v.5l.3 2.8-.6 1v1.5l.3-.1h.4v.5h.2l.4.6-.8.6h.5l.2 2 .8.3.1.3v3.3l-6.6-3.2v-5.7l-1 5.2-2.8-1.6.6-3.7.5-.4.2 2.3z"/><path fill="#b89d72" d="M11.9 9.5v-.6h.2l-.2 1.1zm-.1-2.2L13.1 5l.8.8zm1 2.4h.9l-.7.6-.2.1zm0 1.2.7.1-.2.2.3 3.2-1.1 1.3h-.2v-.4l.3-.3.5-.7.2-.8q.1-.7-.7-.6zm.8 5.4.1 3.2-.1-.3-.8-.3.5-2.6zM12 15.2h-.3V15zm1 1.2-.3.5H12z"/><path fill="#a28453" d="m13.1 5 .2-1 1 .8-.5 1zm.5 9.5v1.8h-.2l-.3.1-.2.1h-.1v-.1h.1l-.4-.6z"/><path fill="#cab895" d="m12.1 8.9.7.8v.7l-.2.1-.5.3h.7l-.2 2.1q.8-.2.7.6l-.2.8-.5.7-.3.3-.5-.1-.2-.2v-1.2l.6-1L12 10zm1.3 7.4-.7 2.6-.1-2 .3-.5.2-.1z"/><path fill="#4196fe" d="m13 10.3-.4.2.2-.1z"/><path fill="none" stroke="#360" stroke-linecap="round" stroke-linejoin="round" stroke-width="__RESOLUTION__" d="m11.9 8.9-.1-1.6 2-1.5.5-1-1-.8h-.7L13.8.7M12 8.9h.2l.7.8h.9l-.7.6-.4.2-.5.3h.7l.7.2-.2.2.3 3.2v1.8l.1 3.3" vector-effect="non-scaling-stroke"/><path fill="none" stroke="#000" stroke-linecap="round" stroke-linejoin="round" stroke-width="__RESOLUTION__" d="M13.7.7V0" vector-effect="non-scaling-stroke"/><path fill="none" stroke="#c2e1fe" stroke-linecap="round" stroke-linejoin="round" stroke-width="1" d="M11.6 15v-1.2l.6-1L12 10m.3 5.3v.4h.2m.3 3.2.8.3.1.3m-1.1-2.6.2 2m0-2.6-.7.6h.5"/></g></defs><g clip-path="url(#a)"><use xlink:href="#b" width="14.3" height="22.8" transform="translate(1 1)"/></g></svg>