<svg xmlns="http://www.w3.org/2000/svg" xmlns:xlink="http://www.w3.org/1999/xlink" width="43" height="130" viewBox="0 0 43 130"><defs><clipPath id="a"><path d="M1 1h41v128H1z"/></clipPath><path id="b" fill="#000" fill-opacity=".2" d="m32.5-109.6 11.1-4.5v21.5l-.3 1q-2 8.1.3 14.4l.1 1q1.7 8-.2 15l-.6 1.4.6.4q-1.5 4.5 0 9.5V-36q0 2.2-1 4.2-.7 1.4-1.7 2.2-1 0-1.7-.7v-.1q-1-1.2-1-3.4t-1-3.4l-.4-.3-.3-8-.9 7.5h-.2l-.4.3-1.5 1.9q-1 2-1 4.2t-1 4.3q-.8 1.4-1.7 2.1-1 .1-1.8-.7-1-1.2-1-3.5t-1-3.4q-.7-.7-1.5-.7H24l-.4.3-1.4 1.9q-.6 1-.8 2.2l-2.2-2.3q-.1 4.3 1.4 7.5l-.5 1v.1q-.7 1.4-1.7 2.1-1 0-1.7-.7v-.1q-1-1.1-1-3.4t-1.1-3.4l-1.4-.7h-.4l-.4.3q-.8.6-1.5 1.8v.1q-1 2-1 4.3 0 2.1-1 4.1v.1q-.8 1.4-1.7 2-1 .2-1.7-.6v-.1q-1-1-1-3v-.4l-.1-16v-.2Q5.9-42 5.8-47.8q-.1-4.9-1.3-9.9l1.3-.1q1.8-.4 2.8-1.4l-4.1-1.1q2.6-7.2 0-16.2 1.7-2.3 2-3.9l-2 .8v-18.9l15.8-6.2q6.3-1.3 12.3-5" transform="translate(-4.4 114.05)"/><g id="c"><path fill="none" stroke="#6f3d0b" stroke-linecap="round" stroke-linejoin="round" stroke-opacity=".6" stroke-width="1" d="M89.3 68.1 48.9.5 5 63.6"/><path fill="#8f4e1f" d="M4.3 65.1 0 61l.1-5 4.2 4.4z"/><path fill="#e3ab82" d="m.1 56-.1-.2q41.6-.2 86.1 2.3l4.3 4.2-55.8-1.9H4.3z"/><path fill="#cc702d" d="m90.4 62.3-.9 3.8-85.2-1v-4.7h30.3zm-55.6-1.9v.1"/><path fill="#857534" d="M34.6 60.4v.1"/><path fill="#940101" d="M2.7 73.5v-8.9h34.6q13.8 2.8 27 0h24.4V75q-40.6-6.4-86-1.4m85.4 40.2q-4.4 16.1.6 32l.4 2.2q-25.7 22.6-83.6 29-.2-10.7-2.8-22.8l2.7.8q4 .8 6.2-.6l-1.6-1-.6-.4q58.4-6.2 78.7-39.2m-.5 68.6-.5.8 1.5 1.6v.2l-.3 19.2.3 1.5V236q0 4.9-2.2 8.4-1.7 2.5-3.8 3.2-2.1-.7-3.7-3.2-2.4-3.5-2.3-8.4 0-4.9-2.3-8.4l-.7-.9-.7-17.7-2 15.4h-.6l-.7.2q-1.8.8-3.2 3-2.4 3.5-2.4 8.4t-2.2 8.4q-1.7 2.5-3.7 3.2-2.2-.7-3.8-3.2-2.3-3.5-2.3-8.4t-2.3-8.4q-1.4-2.2-3.2-3l-.8-.2-.9.2q-1.7.8-3.1 3-1.3 1.8-1.9 4.2l-4.6-7.1q-.3 9.5 2.9 17.8l-1 1.9q-1.7 2.4-3.7 3.2-2.1-.7-3.8-3.2-2.3-3.5-2.2-8.4t-2.3-8.4q-1.5-2.2-3.2-3l-.9-.2-.7.2q-1.9.8-3.3 3-2.3 3.5-2.2 8.4t-2.4 8.4q-1.6 2.4-3.6 3.2-2.2-.7-3.8-3.2-2-3.2-2.2-7.5v-.9l-.1-35.2v-.4q46.5-26.6 84.9-18m-56.8 9.4q-1.8 5.3-2.2 10l-.2 3.4.1.1q.3 8.3 5.6 14.8-1.8-4.8-2.6-15v-3l-.4-1.9z"/><path fill="#b80101" d="M88.7 74.9v36.8l-.6 2q-20.3 33-78.6 39.2l-.7-.4-6.1-4.2q5.6-13.5 0-35.5 3.6-3.5 4.3-6.9H2.7V73.5q45.4-5 86 1.4M44.7 99q-5 24.8-21.6 40.1 36.8-9.3 49.7-36.5Q89 79.4 44.7 99"/><path fill="#7e0101" d="M89.1 147.9q3.6 19-.5 32.8l-1 1.7q-38.3-8.6-84.8 18 3-10.7 2.7-23.5 57.9-6.4 83.6-29M44.7 99q44.2-19.6 28.1 3.5-12.8 27.3-49.7 36.6Q39.7 123.8 44.7 99"/><path fill="#d60101" d="m88.3 204.1.3 1.5zM10 153.5l-.7-.5z"/><path fill="#eb0101" d="m71 224.5-.6-.2z"/><path fill="#fe1818" d="m9.4 152.9-.6-.4z"/><path fill="none" stroke="#a30101" stroke-linecap="round" stroke-linejoin="round" stroke-width="1" d="M2.7 73.5v-8.9h34.6q13.8 2.8 27 0h24.4v47.1l-.6 2q-4.4 16.1.6 32l.4 2.2q3.6 19-.5 32.8l-1 1.7-.5.7 1.5 1.6v.2l-.3 19.2.3 1.5V236q0 4.9-2.2 8.4h0q-1.7 2.5-3.8 3.2-2.1-.7-3.7-3.2h0q-2.4-3.5-2.3-8.4 0-4.9-2.3-8.4h0l-.7-.9-.7-17.7-2 15.4v.2l-.6-.2-.7.2q-1.8.8-3.2 3h0Q64 231.2 64 236t-2.2 8.4h0q-1.7 2.5-3.7 3.2-2.2-.7-3.8-3.2h0Q52 240.9 52 236t-2.3-8.4h0q-1.4-2.2-3.2-3l-.8-.2-.9.2q-1.7.8-3.1 3h0q-1.3 1.8-1.9 4.2l-4.6-7.1q-.3 9.5 2.9 17.8l-1 1.9h0q-1.7 2.4-3.7 3.2-2.1-.7-3.8-3.2h0q-2.3-3.5-2.2-8.4t-2.3-8.4h0q-1.5-2.2-3.2-3l-.9-.2-.7.2q-1.9.8-3.3 3h0q-2.3 3.5-2.2 8.4t-2.4 8.4h0q-1.6 2.4-3.6 3.2-2.2-.7-3.8-3.2h0q-2-3.2-2.2-7.5v-.9l-.1-35.2v-.4q3-10.7 2.8-23.5-.2-10.7-2.8-22.8l2.7.8q4 .8 6.2-.6l-1.6-1-.6-.4-.6-.4-6.1-4.2q5.6-13.5 0-35.5 3.6-3.5 4.3-6.9H2.7z"/><path fill="#fffffd" d="M49.3 170.5v.2z"/><path fill="none" stroke="#cc702d" stroke-linecap="round" stroke-linejoin="round" stroke-width="1" d="M49.6 2 57 4.3"/><path fill="none" stroke="#f5cf5a" stroke-linecap="round" stroke-linejoin="round" stroke-opacity=".6" stroke-width="1" d="M31.5 203.9q26.4-.9 49.9 4.3-4.4-16-.4-27.7 6.6-23.2-.6-53.4-4.3-23-.5-41.7-28.2-8.5-66.6-5.6-7.5 33.2 1 77.1 5 17.4.3 27.6l.2 20.4 13.6-1"/><path fill="#f5cf5a" d="m52.2 124.9-12.2 5 7.8-21zm-27.1 12.4 5.2-7.3 4.2 5.7-5.4 2z"/><path fill="#fbe773" d="m40 130 12.2-5.1 4 14.1q14.7-9.3 18.7-26.4V141l-19-1.6.1-.1-18.8-1.7zm-14.9 7.4-5.4-.5q-5.3-17.6 0-29.8 2 10.7 10.6 23zm9.4-1.6 2.2 2.7-7.6-.7z"/><path fill="#fffffd" d="M28.1 153.7q0-6-1.9-13.6l21.3 1.9.3 8.2-7.2 1.3zm5.6-6.8 6.8 4.5zm14.1 3.4-.3-8.2 21.1 1.9.8 2.4z"/><path fill="#faf1e4" d="m28.1 153.7 12.4-2.2 7.3-1.3 21.6-3.8q4.3 13.3-.8 22-18.4 3.4-42.4-3.7 2-4.7 2-11m14.4-.8-2-1.5zm14.1 7.3-8.6-1.5-.3-8.4.3 8.4zM69 164l-36.9-3zm-6-10.3-7.3 2z"/><path fill="none" stroke="#580101" stroke-linecap="round" stroke-linejoin="round" stroke-opacity=".6" stroke-width="1" d="m52.2 124.9-4.4-16-7.7 21-2.9 7.7 18.8 1.7-.1.1 19 1.6v-28.4q-4 17.1-18.8 26.4zM30.3 130q-8.5-12.3-10.5-23-5.4 12.2 0 29.8l5.3.5m5.2-7.3 4.2 5.7 2.2 2.7-7.6-.7m18.4 4.3-21.3-1.9q1.9 7.6 2 13.6 0 6.3-2 11 24 7.1 42.4 3.8 5.1-8.7.8-22.2l-.8-2.4z"/><path fill="none" stroke="#f5cf5a" stroke-linecap="round" stroke-linejoin="round" stroke-width="1" d="M17.3 140.2q-7.9-26 2.4-39.4 3 13.5 16.2 31.9l11.8-29 9.1 30.9q11.9-10.1 18.1-29.9l2.1 1 1.1 40.7-5.6-.6q4.1 17.7-.4 26.9-3.3 1.5-11 2.2-13.7 1.2-39.3-8.7 5.5-8.7.6-25.1zm39.6-5.2-.1-.4"/><path fill="none" stroke="#333" stroke-linecap="round" stroke-linejoin="round" stroke-width="1" d="m40.6 151.5-6.9-4.7m6.8 4.6 2.1 1.4m13.1 2.8 7.3-2"/><path fill="none" stroke="#000" stroke-linecap="round" stroke-linejoin="round" stroke-opacity=".3" stroke-width="1" d="M47.5 142v-.3m.3 8.5-.3-8.2m.3 8.2.3 8.4 8.6 1.5m-24.6.8 36.9 3"/><path fill="#6c0" d="M44.3 129q-.7.2-.7 1t.5 1.9 1.4 1.5 1.5.3.7-1q0-.8-.6-1.8t-1.3-1.5q-.9-.5-1.5-.4m-.4 7-.5-.8q-1.4-2.3-1.2-4.3t1.5-2.5q1.6-.5 3.6 1 2.1 1.3 3.4 3.6l.6 1.1q-2 6-7.4 1.9"/><path fill="#a5ff4a" d="M44.3 129q.6-.1 1.5.4t1.3 1.4q.6 1 .6 2 0 .7-.7.9t-1.5-.3-1.4-1.5-.5-1.9q0-.8.7-1"/><path fill="#326400" d="M51.4 134.1q.7 1.8.6 3.3 0 2-1.6 2.4-1.5.4-3.6-1-1.7-1-2.9-2.8 5.3 4 7.4-1.9"/></g></defs><g clip-path="url(#a)"><g transform="translate(-2.65 144.15)"><use xlink:href="#b" width="40.1" height="97.8" transform="translate(4.4 -114.05)"/><use xlink:href="#c" width="91.3" height="248.1" transform="matrix(.4337 -.2194 0 .4337 3.65 -123.1)"/></g></g></svg>