<svg xmlns="http://www.w3.org/2000/svg" xmlns:xlink="http://www.w3.org/1999/xlink" width="154" height="207" viewBox="0 0 154 207"><defs><g id="d"><path fill="#292923" fill-opacity=".2" d="M67 91h.3l1.3 7.2-4.2 6.3L48.7 97v-.3zM18 30.6l-.7.5-3 8 2.6 6.5L11 31.9zm-2 49.8-5.1-1.9.3-10.5 5-7.8 13.2 12z"/><path fill="none" stroke="#000" stroke-linecap="round" stroke-linejoin="round" stroke-opacity=".1" stroke-width="1" d="m67.3 91 1.3 7.2-4.2 6.3L48.7 97m0-.3L67 91M17.3 31l13-3L18 30.6l29.3-7L68.1.6M17.3 31l-3 8m2.6 6.5L16.7 60M11 31.8l-.9.1m5.8 48.5 13.4-8.2-13.2-12-5 7.8-.3 10.5zm13.5-8.2 5.8 8.9 13.2 15.1m7.9-2.7-8.2-6-5.3 1.3M16.9 45.4 11 31.9l7-1.3"/><path fill="#5c5f5f" d="M3.1 84 6 80.8l8-1.5 24.3 13.5-2.8 3.3-9 2.7-.2-.2L2.8 84.9l.3-.7z"/><path fill="#373737" d="m38.3 92.9 5 1.5-7.8 1.7z"/><path fill="#a3a6a9" d="M68.9 106.7h-.2v-.1z"/><path fill="#526159" d="M68.7 106.7 95 121.2l-.5 1-10.3 4.8-21.9-12.9-.5-.3 7.3-5.9z"/><path fill="#282923" d="M94.6 122.3h.2v20.1l-1 .6-9.5 4.3v-3.7l-.1-16.5z"/><path fill="#121110" d="M84.3 147.3 56 132.6l.3-2.7 7.3.4v.2l14.6 11.3 6 1.8z"/><path fill="#25251f" d="M56 132.7 37.3 123l19 6.8zm-28-14.3-5.3-2.8-.8-8.8 4 2z"/><path fill="#33332b" d="m37.3 123-.4-.2-8.9-4.5-2.1-9.7-4-1.9v-.1l.1-.3 4.5-7.5 29 13.5 2.2 4.9-1.5 12.6zm-11.6-15 7.3 1.6 3.9 13.2-3.9-13.2z"/><path fill="#202324" d="M22.7 115.5 2.7 105l-.9-2 12.8 4.4 1-.1 6.3-.8v.1z"/><path fill="#383e3f" d="m1.8 103.2-1.3-3v-7.9l1.9-7.5.4.1 23.5 13.7.2.2-4.5 7.5-.1.2v.1l-6.2.8-1 .1zm24.5-4.5-10.7 8.8z"/><path fill="#786c5c" d="m2.4 84.8.4.1z"/><path fill="#91836f" d="m2.4 84.8.5-.6h.2l-.4.7z"/><path fill="#666" d="m35.5 96.1 7.8-1.6 25.5 12.1-.1.1.4 1.2-12 5h-.2l-.4-.2h-.2l-.2-.2H56l-.5-.2-29-13.5z"/><path fill="#404136" d="m55.5 112.3.5.2z"/><path fill="#2f2f2f" d="m56 112.5.2.1.3.2.3.2h.2l.5.3-.5-.2v-.2l12-5-7.2 5.9-4.2 3.4-2.2-4.9zm1.9 1-.3-.2z"/><path fill="#3f3830" d="m56.9 113 .1-.1.1.1z"/><path fill="#515346" d="m22 106.3-.1.3v-.1z"/><path fill="#292923" d="m56.3 129.9 1.4-12.7 4.1-3.4.5.3 21.9 13v16.6l-6-1.9-14.5-11.3-.2-.2zm7.4.7L62.3 114z"/><path fill="none" stroke="#000" stroke-linecap="round" stroke-linejoin="round" stroke-opacity=".2" stroke-width="1" d="M14 79.3 11.5 78m2.5 1.3 24.3 13.5 5 1.7 25.5 12.1h.1l-.2.1L95 121.2M93.8 143l-9.5 4.3L56 132.6 37.3 123l-.4-.2-8.9-4.5-5.3-2.8-20-10.4m0-20.2-.3-.2m24.2 14 28.9 13.6.5.2M2.8 84.9l23.5 13.7.2.2m31.1 14.5.3.2m4 .3.4.3 21.9 13 10.3-4.8"/><path fill="none" stroke="#000" stroke-linecap="round" stroke-linejoin="round" stroke-opacity=".1" stroke-width="1" d="M3.1 84 6 80.8l8-1.5m29.3 15.2 10.3 3.3 15.3 8.8m-66.1-1.5-1-2-1.3-2.8v-8l1.9-7.5h0l.5-.6m35.4 8.6-2.8 3.3 7.8-1.6M35.6 96l-9 2.7-4.5 7.5-.1.3v.1l4 2 2.1 9.5m27.5-5.9.5.2h.1l.2.1.3.2.3.2.1-.1 12.1-5-.4-1.2m-46.8 0 .8 8.8m-.8-8.9-6.2.8-1 .1L1.9 103m20.1 3.4.1-.2M37 122.6l-4-13-7.3-1.6m30.6 21.8-.3 2.8M37.3 123l19 6.8 1.4-12.6-2.2-4.9m-39.8-4.9 10.6-8.8m30.8 14.5.5.2m-.5-.2-.2-.1m5 .8 7.2-5.9m-11.4 9.3 4.1-3.4m22.5 29.9-6.1-1.9-14.5-11.3-.2-.2-7.2-.5m6-15.7 1.4 16.4"/><path fill="none" stroke="#000" stroke-linecap="round" stroke-linejoin="round" stroke-opacity=".1" stroke-width="1" d="M94.8 122.3v20.1m-10.5 4.8v-3.5l-.1-16.6"/></g><g id="b"><path fill="url(#a)" d="M108.9 143v1.3l-57.3 28.8-80.1-44.6q35.7-18.3 56.4-26.7z" transform="translate(28.55 31.8)"/><path fill="#171613" d="m64 15.7-1-1.2 1-1.1L65.5.5 114 28l36.8 14.9-.2 6.7-3.7-.6-9.8-2-9.5-5.3-12.1-3-10.9-3.9v.3l-12.7-5.2-7.2-5.9zv-2.3zM146.9 49l3.9-6.1z"/><path fill="#292823" d="m150.7 49.6-.2 6.6-7.7-1 4-6.2z"/><path fill="#3c3c3c" d="m150.5 56.2-.4 13.3-8.7-7.8-3.2.6-2.4.4-18.7-5.9-11.5-.3-7.8-8.9-24-3.6-8.5-10.8-.5.3-.2-.5 1.6-5.2-.5-2.6 1.3.8 19.3 9.5 8.8 5.5 7.9 2.4 7.3 1L123 48l8.2 3.9 3.6 2.3 8 1-4.6 7.1 4.6-7.1z"/><path fill="#4d4d4d" d="m150.1 69.6-.1 7-.5 37.8-.9 28.8v19l-83.8-43.5V33.8h.2l-.2-.3.5-.3L73.9 44l24 3.6 7.8 8.9 11.5.3 18.7 5.9 2.4-.4 3.2-.6zM65.5 35l-.5-1.2zm68.2 34.3 4.5-7zm-68.5 38.5.2-13-.7-20.5.7 20.5z"/><path fill="#222" d="m65.7 25.2-1.5-7.5-.2-2L84.7 24l7.2 5.9 12.6 5.2.1-.2 10.9 3.9 12.1 2.9 9.5 5.3 9.8 2-4.1 6.2-8-1-3.6-2.4L123 48l-12.7-3.6-7.3-1-7.9-2.4-8.8-5.5L67 26z"/><path fill="#606152" d="m64.8 33.8.2.1z"/><path fill="none" stroke="#000" stroke-linecap="round" stroke-linejoin="round" stroke-opacity=".1" stroke-width="1" d="M64 13.4 65.5.5 114 28l36.8 14.9-4 6-4 6.3-4.6 7.1-4.5 7M64.6 33l1.6-5.4-.5-2.5m-1.5-7.5-.2-2v-2.3m.8 20.1.2.3.5 1.2m-.7-1.5-.2-.5"/><path fill="none" stroke="#000" stroke-linecap="round" stroke-linejoin="round" stroke-opacity=".2" stroke-width="1" d="m150.8 42.9-.2 6.7-.1 6.6-.4 13.3-.1 7.2.5.2M64.8 33.7l.2.1"/><path fill="none" stroke="#000" stroke-linecap="round" stroke-linejoin="round" stroke-opacity=".1" stroke-width="1" d="m148.6 162.2-.2.5"/><path fill="none" stroke="#000" stroke-linecap="round" stroke-linejoin="round" stroke-opacity=".3" stroke-width="__RESOLUTION__" d="m64.6 33 .2 7.1m0 34.2L64.2 60m.5 14.4.7 20.5-.2 13" vector-effect="non-scaling-stroke"/><path fill="none" stroke="#000" stroke-linecap="round" stroke-linejoin="round" stroke-width="__RESOLUTION__" d="M64.8 40.2V60" vector-effect="non-scaling-stroke"/></g><g id="g"><path fill="#171713" d="m18.5 22.5 7.7-5.4 3.5-1.4 21.9 27.8-4.6 3q-5.5 4-8.7 4.5l-.1-.1-4.2-7.2q-7.1-11.7-15.4-21z"/><path fill="#25251f" d="M29.7 15.7 26.2 17l-7.7 5.4q-3.9-4.3-8-8.1t-8.3-7L14.4.5z"/><path fill="#515346" d="M18.6 22.8Q26.9 32 34 43.7l4.2 7.2-.5.2-3.8 1q-8.3 2.3-9.9 1.8l-.3-.6-2.4-4-.6-.9q-5.5-9-11.8-16l9.4-9.3zm13.7 53q5.6 1.5 17.2 1.6h.1l.4 3.2q2.5 10.3 2.7 21.5H52q-12.2-4.9-17.2-9.8l-.2-.5v-.3l-.4-4q-1-9-2-11.7"/><path fill="#2e2e27" d="M38.3 51q3.2-.5 8.7-4.4l4.6-3.1.2.3L59 56.4l4.2 11.9-.7 3.6-.4.3-12.6 4.7Q46.2 65.6 38.3 51"/><path fill="#6a6a6a" d="M2.2 7.4q4.3 3.2 8.3 7t8 8.1l-.2.6-9.4 9.4Q5 28.3 1 24.8v-.1l.8-17.2v.1zM1 24.7l.2.1zl.2.2zl-.2-.1z"/><path fill="#1c1c17" d="m62.5 71.9 1.9 2 2.8 15-1.5 11.2q-3.4 1.2-8.4 1.9l-4.6 1.2V102q-.2-11.2-2.7-21.5l-.4-3.2-.1-.4 12.6-4.7z"/><path fill="#4d4d4d" d="M32.3 75.7 31 71l-1.7-5.1q-3-7.6-5.4-12 1.6.5 9.9-1.8l3.8-1 .6-.1q7.9 14.6 11.2 25.9v.4q-11.6 0-17.2-1.6"/><path fill="none" stroke="#000" stroke-linecap="round" stroke-linejoin="round" stroke-opacity=".4" stroke-width="1" d="M29.7 15.7 26.2 17l-7.7 5.4.1.3q8.3 9.3 15.4 21l4.2 7.2.1.1q3.2-.5 8.7-4.4l4.6-3.1M14.4.5 2.2 7.4q4.3 3.2 8.3 7t8 8.1l-.2.6.3-.4m47.2 77.4q3.1-1.2 5-2.9M24 53.9l-.3-.6-2.4-4-.6-.9q-5.5-9-11.8-16-3.9-4-7.9-7.5h0v.1l-.2-.1-.3.4M24 54q2.5 4.4 5.4 12l1.6 5 1.1 4.7q5.7 1.5 17.3 1.6h.1l-.1-.4Q46.2 65.6 38.3 51h-.6l-3.8 1q-8.3 2.5-9.9 2m13.7-3 .5-.2M52 102q-12.2-4.9-17.2-9.8l-.2-.5v-.3l-.4-4q-1-9-2-11.7M62.6 72l-.4.2-12.6 4.7m.1.4.4 3.2q2.5 10.3 2.7 21.5v1.2l4.6-1.2q5-.7 8.5-2M2.1 7.5l-.3.2-.1-.1L1 24.7l.2.2-.1-.1-.1-.1h0l-.2-.1v.1l-.3-.1h.4v.1m17.4-1.6-9.4 9.4"/><path fill="none" stroke="#000" stroke-linecap="round" stroke-linejoin="round" stroke-opacity=".3" stroke-width="__RESOLUTION__" d="M51.6 43.5 29.7 15.7m0 0L14.4.5l-.3-.3m37.5 43.3.2.3L59 56.4l4.2 11.9-.7 3.6 1.9 2 2.8 15-1.5 11.2m-3.2-28.2" vector-effect="non-scaling-stroke"/></g><g id="f" transform="translate(28.55 31.8)"><use xlink:href="#b" width="151.3" height="204.9" transform="translate(-28.55 -31.8)"/><use xlink:href="#c" width="0" height="0" transform="translate(77.7 87.6)"/><use xlink:href="#c" width="0" height="0" transform="matrix(-.12 1.17 -1.07 .92 99.2 0)"/><use xlink:href="#c" width="0" height="0" transform="matrix(-.89 -2.18 .74 -1.2 54.75 79.45)"/><use xlink:href="#c" width="0" height="0" transform="translate(75.85 72.15)"/><use xlink:href="#c" width="0" height="0" transform="matrix(.86 0 0 1 35.4 48.9)"/><use xlink:href="#d" width="95.5" height="147.8" transform="translate(24.5 -3.05)"/></g><linearGradient id="a" x1="-819.2" x2="819.2" gradientTransform="matrix(-.01 .02 .03 .02 49.7 132.8)" gradientUnits="userSpaceOnUse" spreadMethod="pad"><stop offset="0" stop-color="#2d3639" stop-opacity=".8"/><stop offset="0" stop-color="#040404" stop-opacity=".8"/><stop offset="1" stop-color="#121203" stop-opacity="0"/></linearGradient><clipPath id="e"><path d="M1 1h152v205H1z"/></clipPath></defs><g clip-path="url(#e)"><g transform="translate(79.9 137)"><use xlink:href="#f" width="151.3" height="204.9" transform="translate(-78.9 -136)"/><use xlink:href="#g" width="71.3" height="103.7" transform="translate(-23.1 -95.9)"/></g></g></svg>