<svg xmlns="http://www.w3.org/2000/svg" xmlns:xlink="http://www.w3.org/1999/xlink" width="41" height="110" viewBox="0 0 41 110"><defs><g id="d"><path fill="#95601d" d="M7.9 0v89.3L2.4 92V2.5z"/><path fill="#40270b" d="m2.4 92-1.2-.7V59.7L0 59V3.6l2.4-1z"/><path fill="none" stroke="#381c01" stroke-linecap="round" stroke-linejoin="round" stroke-width="__RESOLUTION__" d="M7.9 0v89.3m-6.7 2V59.7L0 59V3.6M2.4 92V2.5" vector-effect="non-scaling-stroke"/><path fill="none" stroke="#83541d" stroke-linecap="round" stroke-linejoin="round" stroke-width="__RESOLUTION__" d="M7.9 89.3 2.4 92l-1.2-.7" vector-effect="non-scaling-stroke"/></g><g id="c"><path fill="#653d14" d="M24 11 0 23V12.9L24.7.3z"/><path fill="#7c4a18" d="m17.8 13.9 6.1-3.1v27.6l-6-21.7z"/><path fill="#c97c30" d="M17.8 16.7 24 38.4v20.2l-6-6.1V16.7"/><path fill="#b3cae1" d="M17.8 16.7v11.6L7 33.8V19.4l11-5.5zm0 14.2v21.6L6.8 58V36.3zM0 61.6V39.8l4.8-2.4V59zm0-24.3V22.8l4.8-2.4v14.5z"/><path fill="#65481b" d="M17.8 28.3v2.6L7 36.3V19.5h-.2l-1.9.9v14.5L0 37.3v2.5l4.8-2.4V59L7 58V33.8z"/><path fill="#d8a247" d="m17.8 52.5 6.1 6.1.8.8L.8 71.6l-.8-.8v-9.2L4.8 59 7 58z"/><path fill="#95601d" d="M24.7 59.4v4L.9 75.7v-4.1z"/><path fill="#a38452" d="m.8 75.7-.8-.5v-4.4l.8.8z"/><path fill="none" stroke="#381c01" stroke-linecap="round" stroke-linejoin="round" stroke-width="__RESOLUTION__" d="m17.8 13.9 6.1-3.1v27.6m-6-21.7v35.8m0-35.8v-2.8l-11 5.5h0v14.4l11-5.5M0 39.8v-2.5l4.8-2.4V20.4L0 22.8m6.9-3.4h-.2l-1.9 1M7 36.3v-2.5m-6.9 6 4.8-2.4V59M7 58V36.3l11-5.4" vector-effect="non-scaling-stroke"/><path fill="none" stroke="#603a15" stroke-linecap="round" stroke-linejoin="round" stroke-width="__RESOLUTION__" d="m24 11 .6-11m-6.8 52.5 6.1 6.1V38.4m.8 21v4L.9 75.7l-.8-.5V39.9m0-2.5V12.5m24 46.1.7.8-24 12.2v4m4-16.5L7 58l11-5.5M.7 71.6l-.8-.8m4.8-11.7L0 61.6" vector-effect="non-scaling-stroke"/></g><g id="b" fill="#3e2100"><path fill-opacity=".3" d="M0 14.6v-1.2L26.4.1h.1v1.2h-.1z"/><path fill-opacity=".2" d="M0 14.7 26.4 1.4h.1v.4L.1 15.4H0zm.1 1.4H0zm0 1H0zm0 2.2H0zm-.1 3"/><path fill-opacity=".2" d="M26.5 1.8v.9L.1 16.1H0v-.9h.1z"/><path fill-opacity=".2" d="M26.5 2.7v1L.1 17.1H0v-1h.1z"/><path fill-opacity=".1" d="M26.5 3.7v2.2L.1 19.3H0v-2.2h.1z"/><path fill-opacity=".1" d="M26.5 5.9v3L.1 22.3H0v-3h.1z"/><path fill-opacity=".1" d="M26.5 8.9v5L.1 27.3H0v-5h.1z"/><path fill-opacity="0" d="M26.5 13.9v9L.1 36.3H0v-9h.1z"/></g><clipPath id="a"><path d="M1 1h39v108H1z"/></clipPath></defs><g clip-path="url(#a)"><g transform="translate(25.15 107.4)"><use xlink:href="#b" width="26.5" height="36.3" transform="translate(-16.15 -41.2)"/><use xlink:href="#c" width="24.8" height="75.7" transform="translate(-17.4 -102.9)"/><use xlink:href="#d" width="7.9" height="92" transform="translate(-24.15 -91.15)"/><use xlink:href="#d" width="7.9" height="92" transform="translate(6.6 -106.4)"/></g></g></svg>