<svg xmlns="http://www.w3.org/2000/svg" xmlns:xlink="http://www.w3.org/1999/xlink" width="61" height="55" viewBox="0 0 61 55"><defs><use xlink:href="#a" id="d" width="28.3" height="96.6"/><use xlink:href="#b" id="e" width="28.3" height="96.6"/><use xlink:href="#c" id="f" width="28.3" height="96.6"/><use xlink:href="#d" id="l" width="28.3" height="96.6" transform="scale(.21)"/><use xlink:href="#e" id="k" width="28.3" height="96.6" transform="scale(.21)"/><use xlink:href="#f" id="i" width="28.3" height="96.6" transform="scale(.21)"/><g id="a"><path fill="#aa7e53" d="M9.9 3h.4l3.4 1.5q0 9.8-.9 19.5l-1.2 12.3q-.7 7.6-.5 15.2L.8 53.6l1-26.4 8-6.2z"/><path fill="#b2aeff" d="M10.3 3h-.4v-.7zM.8 54.7v-1L1 55z"/><path fill="#986954" d="M.8 53.7 11 51.5h.1v9.6L1 55.1z"/><path fill="#9a6f4c" d="M11.1 51.5q-.2-7.6.6-15.2L12.8 24q.8-9.7.8-19.5L10.4 3l-.4-.7q3-3.6 7.8-1.5.5.1 1 .6l.8 19.6 7.6 6 1.2 27.3q-.4-1-2.4-1.6-.7 1.3-1.9 1.8t-3-2.9zm5.3-25.7q-.3 4.7 3.8 7.7l3-.5q1.2-3.7-2.5-6.7l-2.3-1.6z"/><path fill="#84584a" d="M28.3 54.3v1.5l-.6.7q-7 6.4-16.4 4.6h-.1v-9.6l9.9.1q1.6 3.4 2.9 2.9t2-1.9q1.9.8 2.3 1.7"/><path fill="#7d00ff" d="M28.3 55.5v.2z"/><path fill="#430079" d="M28.3 55.6v.1z"/><path fill="#421924" d="m28.3 55.8-.9 33.9q-3.7 2.8-7.7 5.3-3.7 2.2-7.7 1.4l-2.3-2.8 2.3.2-.7-30.7v-2q9.4 1.8 16.5-4.6zm-5 4.7q-6.1 10 0 22l2.1-.6.8-14.6q1-4.1-2.1-6.3z"/><path fill="#603636" d="m12 96.4-6.3-2.5Q1 92 .3 81.7t.5-26.4H1l10.1 6 .2 1.8.5 30.8-2.2-.2zm11.4-35.9.7.5q3.1 2.1 2 6.3L25.5 82l-2.1.5q-6.1-11.9 0-21.9"/><path fill="#3156ff" d="M.8 55.2v-.5l.3.4zm10.5 6v2z"/><path fill="#fff197" d="m16.4 25.8 2-1 2.3 1.5q3.7 3 2.5 6.7l-3 .5q-4.1-3-3.8-7.7"/><path fill="none" stroke="#3f0ca2" stroke-linecap="round" stroke-linejoin="round" stroke-width="__RESOLUTION__" d="m11.2 61.2.2 1.8" vector-effect="non-scaling-stroke"/></g><g id="b"><path fill="#934646" d="M9.9 3h.4l3.4 1.5q0 9.8-.9 19.5l-1.2 12.3q-.7 7.6-.5 15.2L.8 53.6l1-26.4 8-6.2z"/><path fill="#9b76ff" d="M10.3 3h-.4v-.7zM.8 54.7v-1L1 55z"/><path fill="#813147" d="M.8 53.7 11 51.5h.1v9.6L1 55.1z"/><path fill="#83373f" d="M11.1 51.5q-.2-7.6.6-15.2L12.8 24q.8-9.7.8-19.5L10.4 3l-.4-.7q3-3.6 7.8-1.5.5.1 1 .6l.8 19.6 7.6 6 1.2 27.3q-.4-1-2.4-1.6-.7 1.3-1.9 1.8t-3-2.9zm5.3-25.7q-.3 4.7 3.8 7.7l3-.5q1.2-3.7-2.5-6.7l-2.3-1.6z"/><path fill="#6d203d" d="M28.3 54.3v1.5l-.6.7q-7 6.4-16.4 4.6h-.1v-9.6l9.9.1q1.6 3.4 2.9 2.9t2-1.9q1.9.8 2.3 1.7"/><path fill="#60f" d="M28.3 55.5v.2z"/><path fill="#2c006c" d="M28.3 55.6v.1z"/><path fill="#2b0017" d="m28.3 55.8-.9 33.9q-3.7 2.8-7.7 5.3-3.7 2.2-7.7 1.4l-2.3-2.8 2.3.2-.7-30.7v-2q9.4 1.8 16.5-4.6zm-5 4.7q-6.1 10 0 22l2.1-.6.8-14.6q1-4.1-2.1-6.3z"/><path fill="#490029" d="m12 96.4-6.3-2.5Q1 92 .3 81.7t.5-26.4H1l10.1 6 .2 1.8.5 30.8-2.2-.2zm11.4-35.9.7.5q3.1 2.1 2 6.3L25.5 82l-2.1.5q-6.1-11.9 0-21.9"/><path fill="#1a1eff" d="M.8 55.2v-.5l.3.4zm10.5 6v2z"/><path fill="#fab98a" d="m16.4 25.8 2-1 2.3 1.5q3.7 3 2.5 6.7l-3 .5q-4.1-3-3.8-7.7"/><path fill="none" stroke="#280095" stroke-linecap="round" stroke-linejoin="round" stroke-width="__RESOLUTION__" d="m11.2 61.2.2 1.8" vector-effect="non-scaling-stroke"/></g><g id="c"><path fill="#938c46" d="M9.9 3h.4l3.4 1.5q0 9.8-.9 19.5l-1.2 12.3q-.7 7.6-.5 15.2L.8 53.6l1-26.4 8-6.2z"/><path fill="#9bbcff" d="M10.3 3h-.4v-.7zM.8 54.7v-1L1 55z"/><path fill="#817747" d="M.8 53.7 11 51.5h.1v9.6L1 55.1z"/><path fill="#837d3f" d="M11.1 51.5q-.2-7.6.6-15.2L12.8 24q.8-9.7.8-19.5L10.4 3l-.4-.7q3-3.6 7.8-1.5.5.1 1 .6l.8 19.6 7.6 6 1.2 27.3q-.4-1-2.4-1.6-.7 1.3-1.9 1.8t-3-2.9zm5.3-25.7q-.3 4.7 3.8 7.7l3-.5q1.2-3.7-2.5-6.7l-2.3-1.6z"/><path fill="#6d663d" d="M28.3 54.3v1.5l-.6.7q-7 6.4-16.4 4.6h-.1v-9.6l9.9.1q1.6 3.4 2.9 2.9t2-1.9q1.9.8 2.3 1.7"/><path fill="#60f" d="M28.3 55.5v.2z"/><path fill="#2c006c" d="M28.3 55.6v.1z"/><path fill="#2b2717" d="m28.3 55.8-.9 33.9q-3.7 2.8-7.7 5.3-3.7 2.2-7.7 1.4l-2.3-2.8 2.3.2-.7-30.7v-2q9.4 1.8 16.5-4.6zm-5 4.7q-6.1 10 0 22l2.1-.6.8-14.6q1-4.1-2.1-6.3z"/><path fill="#494429" d="m12 96.4-6.3-2.5Q1 92 .3 81.7t.5-26.4H1l10.1 6 .2 1.8.5 30.8-2.2-.2zm11.4-35.9.7.5q3.1 2.1 2 6.3L25.5 82l-2.1.5q-6.1-11.9 0-21.9"/><path fill="#1a64ff" d="M.8 55.2v-.5l.3.4zm10.5 6v2z"/><path fill="#faff8a" d="m16.4 25.8 2-1 2.3 1.5q3.7 3 2.5 6.7l-3 .5q-4.1-3-3.8-7.7"/><path fill="none" stroke="#281a95" stroke-linecap="round" stroke-linejoin="round" stroke-width="__RESOLUTION__" d="m11.2 61.2.2 1.8" vector-effect="non-scaling-stroke"/></g><g id="j"><path fill="none" stroke="#000" stroke-linecap="round" stroke-linejoin="round" stroke-width="1" d="m10.9 1.1-.2 1.5-.8 1.3h0V4q0 .6-.3 1.5L9 6.8l-.3.1.1.3q.1.6-.2 1.4l-.8 1.3h0l-.2 1.5-.9 1.3-.5.4.3.4-.2 1.5-.8 1.2-.1.1h0l-.2 1.5-.8 1.3-.2.1.1.3q.1.6-.2 1.4t-.8 1.3H3v1.5l-.8 1.4q-.6.4-1.1.4-.5-.1-.5-.8-.2-.6.1-1.4l.9-1.3h0v-.1q-.1-.6.1-1.4t.9-1.3l.2-.2v-.2q-.2-.6.1-1.4t.8-1.4h0q0-.7.3-1.4.2-.9.8-1.4l.4-.3-.1-.5q-.2-.7.1-1.4l.9-1.3h0v-.1Q6 9 6.3 8.2T7 6.9l.2-.2v-.2Q7 5.8 7.4 5q.2-.8.8-1.4h.1v-.1q-.2-.6.2-1.4.2-.8.8-1.3.5-.5 1-.4t.6.6m-2 3.3q.4 0 1-.4l-.7-.7q-.4-.1-.9.3.1.6.6.8M7.8 7.2q.4 0 .8-.3l-.5-.4-.8.2q.2.4.5.5m-.2 2.7q-.5.5-.9.4t-.6-.6q.5-.5 1-.4zm-1.5 3.2h-.5l-.4-.2.5-.1zM3.8 16l1-.4.5.7q-.5.4-1 .4-.4-.1-.5-.7m.3 3.3q-.5.3-.8.2t-.5-.5q.4-.3.8-.2t.5.4M1.6 22q.1.6.6.7t.9-.4l-.5-.7q-.5-.1-1 .3"/><path fill="#87c09f" d="M9.2 1.3V2h-.9v-.8zM7.8 5h-.9v-.9h.9zM6.7 7.3v.9h-.9v-1zm-1 3.2v.9h-1v-.9zm-1.3 4.4h-1v-1h1zm-2.1 1.9h.9v.9h-.9zm-.1 3.8h-1v-.9h1zm-1.1 2v1H0v-1z"/></g><g id="h"><path fill="#7c4721" d="m7.1 10.2 3.3-1.9 22.4 11.2-3 1.7zm22.7 11 3-1.7 26 13.1-.5-.3-2.2 1.8z"/><path fill="#945527" d="m7.1 10.2 22.7 11-4.2 1.5 4.1-1.5 26.4 12.9-4.5 2.4L3.9 12z"/><path fill="#874e23" d="M0 14.2 3.9 12l47.7 24.5-3.5 1.8z"/><path fill="#000" d="M9.5 21.1 0 16.2v-2l48.2 24.1 3.4-1.8 4.5-2.4 2.2-1.8v2.8l-10.1 5.2z"/><path fill="#1c0f09" fill-opacity=".5" d="M58.3 35.1v15l-48.8-24v-5l38.7 19.2z"/><path fill="none" stroke="#65341b" stroke-linecap="round" stroke-linejoin="round" stroke-width="__RESOLUTION__" d="m7.1 10.2 22.7 11 26.2 13m-4.5 2.4L3.9 12" vector-effect="non-scaling-stroke"/><path fill="none" stroke="#0c0905" stroke-linecap="round" stroke-linejoin="round" stroke-opacity=".5" stroke-width="1" d="m29.8 21.2 3-1.7.3-.1.4-18.9m-3.7 20.7-4.2 1.5"/></g><clipPath id="g"><path d="M1 1h59v53H1z"/></clipPath></defs><g clip-path="url(#g)"><g transform="translate(-3.9 39.6)"><use xlink:href="#h" width="58.9" height="50.1" transform="translate(4.9 -36.3)"/><use xlink:href="#i" width="6" height="20.3" transform="translate(29.25 -28.45)scale(.5763)"/><use xlink:href="#j" width="11.4" height="25.9" transform="translate(28.4 -38.6)"/><use xlink:href="#i" width="6" height="20.3" transform="translate(15.75 -32.2)scale(.4165)"/><use xlink:href="#i" width="6" height="20.3" transform="translate(17.6 -31.2)scale(.4165)"/><use xlink:href="#i" width="6" height="20.3" transform="translate(51.55 -17.05)scale(.5763)"/><use xlink:href="#k" width="6" height="20.3" transform="translate(54.95 -25.05)scale(1.1028)"/><use xlink:href="#l" width="6" height="20.3" transform="translate(40.55 -24.55)scale(.7409)"/><use xlink:href="#l" width="6" height="20.3" transform="translate(36.15 -26.75)scale(.7409)"/><use xlink:href="#l" width="6" height="20.3" transform="translate(31.6 -21.2)scale(.5557)"/><use xlink:href="#l" width="6" height="20.3" transform="translate(35.1 -19.45)scale(.5557)"/><use xlink:href="#l" width="6" height="20.3" transform="translate(38.9 -17.05)scale(.5557)"/></g></g></svg>