<svg xmlns="http://www.w3.org/2000/svg" xmlns:xlink="http://www.w3.org/1999/xlink" width="44" height="45" viewBox="0 0 44 45"><defs><radialGradient id="c" cx="0" cy="0" r="819.2" gradientTransform="matrix(.04 0 0 .04 2.75 2.95)" gradientUnits="userSpaceOnUse" spreadMethod="pad"><stop offset="0" stop-color="#d8e45f"/><stop offset=".5" stop-color="#a6b046" stop-opacity=".7"/><stop offset="1" stop-color="#4d4722" stop-opacity="0"/></radialGradient><radialGradient id="d" cx="0" cy="0" r="819.2" gradientTransform="matrix(.04 0 0 .04 2.75 2.95)" gradientUnits="userSpaceOnUse" spreadMethod="pad"><stop offset="0" stop-color="#c2cc55"/><stop offset=".5" stop-color="#959e3e" stop-opacity=".7"/><stop offset="1" stop-color="#453f1e" stop-opacity="0"/></radialGradient><use xlink:href="#a" id="i" width="5.8" height="39.3"/><use xlink:href="#b" id="h" width="5.8" height="39.3"/><g id="a"><path fill="url(#c)" d="m3 .2 1.2.2q1.7 20.9 1.1 38.8L0 37.4Q3.6 18.2 1.9 1.6z" transform="translate(.15 -.05)"/><path fill="none" stroke="#000" stroke-linecap="round" stroke-linejoin="round" stroke-opacity=".2" stroke-width="__RESOLUTION__" d="M5.5 39.2Q6 21.2 4.4.4L3 .2M2 1.5q1.6 16.7-2 35.9M3.2.1l-1 1.4" vector-effect="non-scaling-stroke"/></g><g id="b"><path fill="url(#d)" d="m3 .2 1.2.2q1.7 20.9 1.1 38.8L0 37.4Q3.6 18.2 1.9 1.6z" transform="translate(.15 -.05)"/><path fill="none" stroke="#000" stroke-linecap="round" stroke-linejoin="round" stroke-opacity=".2" stroke-width="__RESOLUTION__" d="M5.5 39.2Q6 21.2 4.4.4L3 .2M2 1.5q1.6 16.7-2 35.9M3.2.1l-1 1.4" vector-effect="non-scaling-stroke"/></g><clipPath id="g"><path d="M1 1h42v43H1z"/></clipPath></defs><g clip-path="url(#g)"><g transform="translate(20.2 33.85)"><use xlink:href="#h" width="5.8" height="39.3" transform="matrix(-.4772 .3243 -.1378 .5146 17.8 -18.95)"/><use xlink:href="#i" width="5.8" height="39.3" transform="matrix(.3247 .1779 .0481 .2704 -10.25 -2.8)"/><use xlink:href="#h" width="5.8" height="39.3" transform="matrix(-.9365 .2073 -.1406 .8342 8.85 -29.85)"/><use xlink:href="#h" width="5.8" height="39.3" transform="matrix(-.7715 .6224 -.1146 .5988 9.85 -22.35)"/><use xlink:href="#i" width="5.8" height="39.3" transform="matrix(-1 0 0 .9515 3.6 -32.85)"/><use xlink:href="#i" width="5.8" height="39.3" transform="matrix(.7392 .1636 .1109 .6585 -9.9 -22.7)"/><use xlink:href="#h" width="5.8" height="39.3" transform="matrix(.4817 .1634 .0258 .4479 -4.6 -12.5)"/><use xlink:href="#i" width="5.8" height="39.3" transform="matrix(-.6241 .398 -.0329 .5701 6.4 -18.05)"/><use xlink:href="#h" width="5.8" height="39.3" transform="matrix(.7428 .2738 .022 .6979 7.05 -24.25)"/><use xlink:href="#i" width="5.8" height="39.3" transform="matrix(.3302 .1217 .0124 .3935 -8.35 -6.3)"/><use xlink:href="#i" width="5.8" height="39.3" transform="matrix(-.2788 .077 -.0294 .2534 -3.75 -.6)"/><use xlink:href="#h" width="5.8" height="39.3" transform="matrix(-.6043 .0075 -.1939 .4965 21.95 -14.9)"/><use xlink:href="#i" width="5.8" height="39.3" transform="matrix(.3535 .2328 .0802 .2768 -19.2 -9.75)"/><use xlink:href="#i" width="5.8" height="39.3" transform="matrix(.3229 .2124 .0121 .3883 -15.05 -13.75)"/></g></g></svg>