<svg xmlns="http://www.w3.org/2000/svg" xmlns:xlink="http://www.w3.org/1999/xlink" width="70" height="74" viewBox="0 0 70 74"><defs><g id="x"><path fill="#aa9880" d="m27.4 2.6 1.9.4h.3q4.6-3.5 9.8-2L43 2.8q-2.8 2.4-9.2 4.8l-2.1.8-1.3-2.6q-1.4-2.2-3-3.2"/><path fill="#c5b8a7" d="M27.4 2.6q1.6 1 3 3.2l1.3 2.6q-7.4 2.4-13.6 2.4h-.6l.1-2.5q0-1-.8-3.2l1.9 1.5q3-5.3 8.7-4m-6.9 5.8-1.8-1.9z"/><path fill="#f1dca3" d="M17.6 10.8q-3-.2-9.3-2l-7.8-2Q9.5.3 16.8 5q.8 2.2.8 3.2z"/><path fill="none" stroke="#000" stroke-linecap="round" stroke-linejoin="round" stroke-opacity=".3" stroke-width="1" d="m27.4 2.6 1.9.4h.3q4.6-3.5 9.8-2h0L43 2.8l1.4.7m-17-1q-5.7-1.2-8.7 4l1.8 1.8m-3.7-3.2Q9.5.3.5 6.8M16.8 5l1.9 1.5"/></g><g id="w" fill="#feff60"><path fill-opacity=".4" d="M82.8 34.1q-3.3 1.5-6.2 1.5H76q-3.5-.1-4.3-3.1l-.1-.7.8-1.4 5.3 2.8q.4 0 .7.3 2.7 0 6.3-3l-1.2 3.1zM78.5 8.8 75 10.4l-3.3.3-4.7.7h-.3q-6.2 0-8-4.3l1.4-3.8q2.4 5 6.4 5h.3q2-.1 5.4-2.7l2.6.7q2.5 0 4.2-1.1zM67.2 4.2q2.3.7 2.3 1.7 0 .5-1.5.5l-1.3-.3Q63 4.9 63 4l1.2-.4 1.5.2.7.2zm-3 13.7q1-.5 3.1-.9l5-.7.9-.1.5-.1q2.3 0 2.3 1.8 0 .5-2 1.5-2.2 1-3.8 1l-2.7-.6q-1.5-.6-3.2-1.9m-48.5 15q3.3-.1 4.9-1.4l2.7 6.3q-1 2.3-4.8 1.5-2.2-.6-5.4-2.1l-3.2-7q.7.5 1.7 1.6 1.5 1.1 3.6 1.1zm1.6-8.1 1.3 2.6q-1.6 2-4.4 2-2.2-.1-5.2-1.2l-1-2.6q.9 1.4 4.9.6z"/><path fill-opacity=".3" d="m57.9 0-.4 11.3-1.4 3.3-.6-.2-8.6 1.7-2.4.1q-1.1 0-2.9-1.1l.9-6.6q.9 1 2.6 1l1.8-.2q2.1-.7 4.8-3.6Q56.2 1 57.8 0m-11 4.4 3 .7q0 1.6-3 1.9l-2 .1-2.2-.3.2-4.4q1.7 1.3 4 2m-4.4-1.5q0 4.1-2.2 7.4-1.8 2.6-4.4 3.5l-3.2.5q-1.7 0-3.7-.7l-3.4-7.5q3.4 1.3 5 1.3 1.9 0 4.5-1l3.8-1.7q1.3-.7 3-3.8 0 1.1.6 2"/><path fill-opacity=".6" d="M60.3 33.3q-.2 1.7-1.6 3.5-2.1 2.9-5 2.9-3.4 0-4.9-3.2l-1.7-3.2q-1.4-1.7-2.9-2.6H44l.5-3q1.5.7 2.5 2.3.7 1.3 1 3 2 2.5 4.3 2.5 3.2 0 6.3-4 1.9-2.9 2.1-5.1l-.5 5.3zM44.6 43l-.7-5.6 1.4 3q.8 1.2 1.8 2 1.5 1 3.6 1 3.4 0 9.3-4.3v4.7l.9-.8q.6 4.4 6.7 4.6h1.7l1-.2.6-.1q1.5-.7 2.4-2l-1 2.7-2.7 1.7q-1.8.8-4.2.9h-.5q-1.3 0-2.3-1-1.5-1.5-2.4-4.8l-.2-1Q54.6 49 50.6 49q-2 0-3.4-1.6-1.5-1.5-2.6-4.4m-.7-1.9.3 7.1q0 3.6-4.7 4.4l-2.1.2h-1q-1.2 0-3.9-2l-1.7-1.4-.4-.4-.2-5q.4 1.4 2 2.9 1.8 1.7 3.8 1.8h.2l2.9-.4q2.1-.9 3.3-2.9 1-1.7 1.4-4.3m-14.1-25 3 6.8Q31.3 25 28.3 26q-3.5 1.1-9 .7L16 19.3l9.8-1q3.4-.8 4-2.2m-19.2 19 3.4 4.4.5 2.4q0 2.1-1.7 3.1l-3.1.5-5-.6L0 38.1q2.4.9 4.6.9l3-.2q3-.6 3-2.6zM31 55.4V53q.6 1.1 2.6 2.1 2.1 1 3.6 1h1.3l1.5-.2q3.6-.7 5.1-3.5l.6 4.7q-2.5 2.3-5.4 2.6h-1q-1 0-3.4-1.6l-1-.6zm-4 3.1q2.6-1 3.3-4l3 4.8q.4-.6.6 3 .2 2.2-3.9 3.2h-.3l-5.9.8h-.2l-4-7.6 4.8.4z"/></g><g id="u"><path fill="#9c8430" d="M3.6.2Q3 0 2.6.4 2 .9 1.5 1.8T1 3.5 1 5h1.1l-.5.3q-.7.6-1.2.3T0 4.2t.8-2.1T2.2.4 3.5.2"/><path fill="#b99c38" d="M2.2 4.9h-1Q.7 4.4.8 3.5t.5-1.7T2.8.4q.4-.3.8-.2h.1q.4.3.4 1.2-.1 1-.7 2.2l-1 1.2z"/><path fill="#482f41" d="m2.3 4.9.1-.2zM3.6.3"/></g><g id="t"><path fill="#a8933e" d="m22.9 17.4.6 4.1zM16.5 1.9l1.8-.8q1.5-.6 2.8-.6l.5.1q2.9 1 4.3 11.4l.8 6.4.9 13.2q.4 6 1 7.5.8 2.6.1 9l-.5.1-1.2.4-1.3.3-1.8.4-1.5.1-1.4.1h-2.2L13 49l-1-.3v-.1q2.1-.7 2.2-1.2 0-.2.7-.2l1.6.1q1.3 0 1.3-1.6h.5l1.8.4q2.1 0 2.1-.5-.4-1.2-.4-2l-.3-4.6-1.9-10.6.3-5.7-.3-4 .7-6v-.1q0-2.1-1.2-5.4t-2.7-5.3m6.1 8.7-2.2 2zm-1.4 15 .1 1.4zm2.6.2.4 4.1-2.4 1.4-.1-1.9.1 1.9 2.4-1.4zm-2 5.4.6 3.8zm1.1 8 .6 4.8z"/><path fill="#a58719" d="m12 48.7.2-.1z"/><path fill="url(#a)" d="m11.4 48.2-.1-.1-.4-.1-.8-.6-.2-.1-.2-.6-.4-.8-6.4-12.7Q0 26.8 0 25.2q0-1.4 2.6-3.1l.8-.6q3-1.8 4.1-1.8 2.7 0 4.8 6.3l.1.4V26l-.7-11.5-.2-4.6-.2-3.4q0-2.3 3.6-4.5l1.1-.6q1.6 1.9 2.7 5.3 1.2 3.3 1.2 5.4l-.7 6.1.3 4-.3 5.7 1.9 10.6.3 4.6q0 .8.4 2 0 .5-2.1.5l-1.8-.5h-.4q0 1.8-1.4 1.8l-1.6-.2q-.7 0-.7.2-.1.5-2.2 1.2zm1.2-36.7L11.4 10zm7.3.8q-2.7 1.8-5 .9 2.2.9 5-1M10 28.7l3.4 5.9v1.7l-1.7-2.9 1.6 2.9v-1.7zM12.3 44l-2-4.7zm1.1-7.6 4.5 8.2zm-4 1-.8-1.7z" transform="translate(.5 .5)"/><path fill="none" stroke="#000" stroke-linecap="round" stroke-linejoin="round" stroke-opacity=".2" stroke-width="__RESOLUTION__" d="m23.5 21.5-.6-4.1m-2.5-4.7 2.3-2.1M12 10.4l1.1 1.5m2.3 1.7q2.2.9 5-1m-8 21.2 1.5 2.9V35l-3.3-6m.2 10.6 2 4.8m5.6.5L14 36.7M9.1 36l.8 1.7M21.5 27l-.2-1.4m.4 3.8.3 1.9 2.3-1.4-.4-4.1M22.6 35l-.6-3.7M23.7 44l-.6-4.8" vector-effect="non-scaling-stroke"/><path fill="none" stroke="#000" stroke-linecap="round" stroke-linejoin="round" stroke-opacity=".3" stroke-width="1" d="m16.5 1.9 1.8-.8q1.5-.6 2.8-.6l.5.1q2.9 1 4.3 11.4l.8 6.4.9 13.2q.4 6 1 7.5.8 2.6.1 9l-.5.1m-4.3 1-1.5.2-1.4.1m-9-.8-.1-.1-.4-.1-.8-.6-.2-.1-.2-.6-.4-.8-6.4-12.7q-2.9-6.4-2.9-8 0-1.4 2.6-3.1L4 22q3-1.8 4.2-1.8 2.6 0 4.7 6.3l.1.4v-.4L12.3 15l-.2-4.6-.2-3.4q0-2.3 3.6-4.5l1.1-.6"/><path fill="#e8c446" d="M20.3 2q1.3 0 1.6.9.2.8-.8 2-1.1 1-2.9 1.8t-3.1.8-1.6-1 .8-2l1-.8q.8-.7 1.8-1 1.8-.8 3.1-.8z"/><path fill="none" stroke="#000" stroke-linecap="round" stroke-linejoin="round" stroke-opacity=".3" stroke-width="__RESOLUTION__" d="M20.3 2q1.3 0 1.6.9.2.8-.8 2-1.1 1-2.9 1.8t-3.1.8-1.6-1 .8-2l1-.8" vector-effect="non-scaling-stroke"/><path fill="#e8c446" d="M7.7 22q1.1 0 1.4.8.2.6-.7 1.6-.7.8-2.2 1.4l-2.6.4q-1-.1-1.3-.8-.2-.7.6-1.6l.8-.7q.6-.5 1.5-.7 1.3-.6 2.5-.4"/><path fill="none" stroke="#000" stroke-linecap="round" stroke-linejoin="round" stroke-opacity=".3" stroke-width="__RESOLUTION__" d="M7.7 22q1.1 0 1.4.8.2.6-.7 1.6-.7.8-2.2 1.4l-2.6.4q-1-.1-1.3-.8-.2-.7.6-1.6l.8-.7" vector-effect="non-scaling-stroke"/></g><g id="s"><path fill="#867531" d="m22.9 17.4.6 4.1zM16.5 1.9l1.8-.8q1.5-.6 2.8-.6l.5.1q2.9 1 4.3 11.4l.8 6.4.9 13.2q.4 6 1 7.5.8 2.6.1 9l-.5.1-1.2.4-1.3.3-1.8.4-1.5.1-1.4.1h-2.2L13 49l-1-.3v-.1q2.1-.7 2.2-1.2 0-.2.7-.2l1.6.1q1.3 0 1.3-1.6h.5l1.8.4q2.1 0 2.1-.5-.4-1.2-.4-2l-.3-4.6-1.9-10.6.3-5.7-.3-4 .7-6v-.1q0-2.1-1.2-5.4t-2.7-5.3m6.1 8.7-2.2 2zm-1.4 15 .1 1.4zm2.6.2.4 4.1-2.4 1.4-.1-1.9.1 1.9 2.4-1.4zm-2 5.4.6 3.8zm1.1 8 .6 4.8z"/><path fill="#846c14" d="m12 48.7.2-.1z"/><path fill="url(#b)" d="m11.4 48.2-.1-.1-.4-.1-.8-.6-.2-.1-.2-.6-.4-.8-6.4-12.7Q0 26.8 0 25.2q0-1.4 2.6-3.1l.8-.6q3-1.8 4.1-1.8 2.7 0 4.8 6.3l.1.4V26l-.7-11.5-.2-4.6-.2-3.4q0-2.3 3.6-4.5l1.1-.6q1.6 1.9 2.7 5.3 1.2 3.3 1.2 5.4l-.7 6.1.3 4-.3 5.7 1.9 10.6.3 4.6q0 .8.4 2 0 .5-2.1.5l-1.8-.5h-.4q0 1.8-1.4 1.8l-1.6-.2q-.7 0-.7.2-.1.5-2.2 1.2zm1.2-36.7L11.4 10zm7.3.8q-2.7 1.8-5 .9 2.2.9 5-1M10 28.7l3.4 5.9v1.7l-1.7-2.9 1.6 2.9v-1.7zM12.3 44l-2-4.7zm1.1-7.6 4.5 8.2zm-4 1-.8-1.7z" transform="translate(.5 .5)"/><path fill="none" stroke="#000" stroke-linecap="round" stroke-linejoin="round" stroke-opacity=".2" stroke-width="__RESOLUTION__" d="m23.5 21.5-.6-4.1m-2.5-4.7 2.3-2.1M12 10.4l1.1 1.5m2.3 1.7q2.2.9 5-1m-8 21.2 1.5 2.9V35l-3.3-6m.2 10.6 2 4.8m5.6.5L14 36.7M9.1 36l.8 1.7M21.5 27l-.2-1.4m.4 3.8.3 1.9 2.3-1.4-.4-4.1M22.6 35l-.6-3.7M23.7 44l-.6-4.8" vector-effect="non-scaling-stroke"/><path fill="none" stroke="#000" stroke-linecap="round" stroke-linejoin="round" stroke-opacity=".3" stroke-width="1" d="m16.5 1.9 1.8-.8q1.5-.6 2.8-.6l.5.1q2.9 1 4.3 11.4l.8 6.4.9 13.2q.4 6 1 7.5.8 2.6.1 9l-.5.1m-4.3 1-1.5.2-1.4.1m-9-.8-.1-.1-.4-.1-.8-.6-.2-.1-.2-.6-.4-.8-6.4-12.7q-2.9-6.4-2.9-8 0-1.4 2.6-3.1L4 22q3-1.8 4.2-1.8 2.6 0 4.7 6.3l.1.4v-.4L12.3 15l-.2-4.6-.2-3.4q0-2.3 3.6-4.5l1.1-.6"/><path fill="#b99c38" d="M20.3 2q1.3 0 1.6.9.2.8-.8 2-1.1 1-2.9 1.8t-3.1.8-1.6-1 .8-2l1-.8q.8-.7 1.8-1 1.8-.8 3.1-.8z"/><path fill="none" stroke="#000" stroke-linecap="round" stroke-linejoin="round" stroke-opacity=".3" stroke-width="__RESOLUTION__" d="M20.3 2q1.3 0 1.6.9.2.8-.8 2-1.1 1-2.9 1.8t-3.1.8-1.6-1 .8-2l1-.8" vector-effect="non-scaling-stroke"/><path fill="#b99c38" d="M7.7 22q1.1 0 1.4.8.2.6-.7 1.6-.7.8-2.2 1.4l-2.6.4q-1-.1-1.3-.8-.2-.7.6-1.6l.8-.7q.6-.5 1.5-.7 1.3-.6 2.5-.4"/><path fill="none" stroke="#000" stroke-linecap="round" stroke-linejoin="round" stroke-opacity=".3" stroke-width="__RESOLUTION__" d="M7.7 22q1.1 0 1.4.8.2.6-.7 1.6-.7.8-2.2 1.4l-2.6.4q-1-.1-1.3-.8-.2-.7.6-1.6l.8-.7" vector-effect="non-scaling-stroke"/></g><g id="q"><path fill="#7e6e2e" d="M16 20q6.7-11.7 6.7-15.4l.1-1.2q0-1.3-1.2-2.8 1.2.1 2.1.7 1.1.7 1.1 1.5-4.5 12.3-6 15l-.7 1.4zl2.1-.7-.8 1.6-.1.3-.5 1-.1.4-6.4 12.9-.6 1.3-.1.1q-1 .6-2 .6H6.3l-1-.1 7.9-12.7 1.5-2.5z"/><path fill="url(#c)" d="M21.6 0q1.2 1.6 1.2 2.9l-.1 1.2q0 3.7-6.7 15.3l-1.3 2.3-1.5 2.4-1.6-.1 1.6.1L5.3 37l-2.1-.4-1.6-.7-.4-.3-1.2-1 .4-1 .7-1.9 2.6-7.2 3-6.1.1-.4 3-6.2.1-.3 3.8-7.6q.8-1.3 1.9-2.1Q17.8 0 20.8 0zm-13 22.4q-1.4-1.5-2-4.1.6 2.6 2 4m6-2.7 1.4-.2zm-4.8-2.7 1.9 1.6zm1.3 7-1.3-.7z" transform="translate(0 .5)"/><path fill="none" stroke="#000" stroke-linecap="round" stroke-linejoin="round" stroke-opacity=".2" stroke-width="__RESOLUTION__" d="m16 20 2.1-.7m-11.3-.9-.1.4q.5 2.6 1.9 4m3 1.7 1.6.1M16 20l-1.4.2M11.7 19l-2-1.6m0 6.3 1.3.7" vector-effect="non-scaling-stroke"/><path fill="none" stroke="#000" stroke-linecap="round" stroke-linejoin="round" stroke-opacity=".3" stroke-width="1" d="m18.1 19.3.7-1.6q1.5-2.6 6-14.9 0-.8-1.1-1.5-.9-.6-2.1-.7l-.8-.1q-3 0-5.2 1.7-1.1.8-2 2L10 12l-.2.3h0l-3 6.3M1.1 32l2.6-7.2 3-6.1m11.4.4-.8 1.8-.1.2-.5 1-.1.4-6.4 12.9m-3.8 2-1.1-.1-2.1-.4"/><path fill="#ae993a" d="m17.6 2.3 1.4-.4 2.6-.2q1.1 0 1.3.3.3.5-.6.9l-2.2.8-2.6.2q-1.1-.1-1.4-.4t.6-.8z"/><path fill="none" stroke="#000" stroke-linecap="round" stroke-linejoin="round" stroke-opacity=".3" stroke-width="__RESOLUTION__" d="M21.6 1.7q1.1 0 1.3.3.3.5-.6.9l-2.2.8-2.6.2q-1.1-.1-1.4-.4t.6-.8l.9-.5" vector-effect="non-scaling-stroke"/></g><g id="o"><path fill="#75662b" d="M16 20q6.7-11.7 6.7-15.4l.1-1.2q0-1.3-1.2-2.8 1.2.1 2.1.7 1.1.7 1.1 1.5-4.5 12.3-6 15l-.7 1.4zl2.1-.7-.8 1.6-.1.3-.5 1-.1.4-6.4 12.9-.6 1.3-.1.1q-1 .6-2 .6H6.3l-1-.1 7.9-12.7 1.5-2.5z"/><path fill="url(#e)" d="M21.6 0q1.2 1.6 1.2 2.9l-.1 1.2q0 3.7-6.7 15.3l-1.3 2.3-1.5 2.4-1.6-.1 1.6.1L5.3 37l-2.1-.4-1.6-.7-.4-.3-1.2-1 .4-1 .7-1.9 2.6-7.2 3-6.1.1-.4 3-6.2.1-.3 3.8-7.6q.8-1.3 1.9-2.1Q17.8 0 20.8 0zm-13 22.4q-1.4-1.5-2-4.1.6 2.6 2 4m6-2.7 1.4-.2zm-4.8-2.7 1.9 1.6zm1.3 7-1.3-.7z" transform="translate(0 .5)"/><path fill="none" stroke="#000" stroke-linecap="round" stroke-linejoin="round" stroke-opacity=".2" stroke-width="__RESOLUTION__" d="m16 20 2.1-.7m-11.3-.9-.1.4q.5 2.6 1.9 4m3 1.7 1.6.1M16 20l-1.4.2M11.7 19l-2-1.6m0 6.3 1.3.7" vector-effect="non-scaling-stroke"/><path fill="none" stroke="#000" stroke-linecap="round" stroke-linejoin="round" stroke-opacity=".3" stroke-width="1" d="m18.1 19.3.7-1.6q1.5-2.6 6-14.9 0-.8-1.1-1.5-.9-.6-2.1-.7l-.8-.1q-3 0-5.2 1.7-1.1.8-2 2L10 12l-.2.3h0l-3 6.3M1.1 32l2.6-7.2 3-6.1m11.4.4-.8 1.8-.1.2-.5 1-.1.4-6.4 12.9m-3.8 2-1.1-.1-2.1-.4"/><path fill="#a28f36" d="m17.6 2.3 1.4-.4 2.6-.2q1.1 0 1.3.3.3.5-.6.9l-2.2.8-2.6.2q-1.1-.1-1.4-.4t.6-.8z"/><path fill="none" stroke="#000" stroke-linecap="round" stroke-linejoin="round" stroke-opacity=".3" stroke-width="__RESOLUTION__" d="M21.6 1.7q1.1 0 1.3.3.3.5-.6.9l-2.2.8-2.6.2q-1.1-.1-1.4-.4t.6-.8l.9-.5" vector-effect="non-scaling-stroke"/></g><g id="n"><path fill="#423a18" d="M16 20q6.7-11.7 6.7-15.4l.1-1.2q0-1.3-1.2-2.8 1.2.1 2.1.7 1.1.7 1.1 1.5-4.5 12.3-6 15l-.7 1.4zl2.1-.7-.8 1.6-.1.3-.5 1-.1.4-6.4 12.9-.6 1.3-.1.1q-1 .6-2 .6H6.3l-1-.1 7.9-12.7 1.5-2.5z"/><path fill="url(#g)" d="M21.6 0q1.2 1.6 1.2 2.9l-.1 1.2q0 3.7-6.7 15.3l-1.3 2.3-1.5 2.4-1.6-.1 1.6.1L5.3 37l-2.1-.4-1.6-.7-.4-.3-1.2-1 .4-1 .7-1.9 2.6-7.2 3-6.1.1-.4 3-6.2.1-.3 3.8-7.6q.8-1.3 1.9-2.1Q17.8 0 20.8 0zm-13 22.4q-1.4-1.5-2-4.1.6 2.6 2 4m6-2.7 1.4-.2zm-4.8-2.7 1.9 1.6zm1.3 7-1.3-.7z" transform="translate(0 .5)"/><path fill="none" stroke="#000" stroke-linecap="round" stroke-linejoin="round" stroke-opacity=".2" stroke-width="__RESOLUTION__" d="m16 20 2.1-.7m-11.3-.9-.1.4q.5 2.6 1.9 4m3 1.7 1.6.1M16 20l-1.4.2M11.7 19l-2-1.6m0 6.3 1.3.7" vector-effect="non-scaling-stroke"/><path fill="none" stroke="#000" stroke-linecap="round" stroke-linejoin="round" stroke-opacity=".3" stroke-width="1" d="m18.1 19.3.7-1.6q1.5-2.6 6-14.9 0-.8-1.1-1.5-.9-.6-2.1-.7l-.8-.1q-3 0-5.2 1.7-1.1.8-2 2L10 12l-.2.3h0l-3 6.3M1.1 32l2.6-7.2 3-6.1m11.4.4-.8 1.8-.1.2-.5 1-.1.4-6.4 12.9m-3.8 2-1.1-.1-2.1-.4"/><path fill="#5c511f" d="m17.6 2.3 1.4-.4 2.6-.2q1.1 0 1.3.3.3.5-.6.9l-2.2.8-2.6.2q-1.1-.1-1.4-.4t.6-.8z"/><path fill="none" stroke="#000" stroke-linecap="round" stroke-linejoin="round" stroke-opacity=".3" stroke-width="__RESOLUTION__" d="M21.6 1.7q1.1 0 1.3.3.3.5-.6.9l-2.2.8-2.6.2q-1.1-.1-1.4-.4t.6-.8l.9-.5" vector-effect="non-scaling-stroke"/></g><g id="m"><path fill="#655825" d="m22.9 17.4.6 4.1zM16.5 1.9l1.8-.8q1.5-.6 2.8-.6l.5.1q2.9 1 4.3 11.4l.8 6.4.9 13.2q.4 6 1 7.5.8 2.6.1 9l-.5.1-1.2.4-1.3.3-1.8.4-1.5.1-1.4.1h-2.2L13 49l-1-.3v-.1q2.1-.7 2.2-1.2 0-.2.7-.2l1.6.1q1.3 0 1.3-1.6h.5l1.8.4q2.1 0 2.1-.5-.4-1.2-.4-2l-.3-4.6-1.9-10.6.3-5.7-.3-4 .7-6v-.1q0-2.1-1.2-5.4t-2.7-5.3m6.1 8.7-2.2 2zm-1.4 15 .1 1.4zm2.6.2.4 4.1-2.4 1.4-.1-1.9.1 1.9 2.4-1.4zm-2 5.4.6 3.8zm1.1 8 .6 4.8z"/><path fill="#63510f" d="m12 48.7.2-.1z"/><path fill="url(#h)" d="m11.4 48.2-.1-.1-.4-.1-.8-.6-.2-.1-.2-.6-.4-.8-6.4-12.7Q0 26.8 0 25.2q0-1.4 2.6-3.1l.8-.6q3-1.8 4.1-1.8 2.7 0 4.8 6.3l.1.4V26l-.7-11.5-.2-4.6-.2-3.4q0-2.3 3.6-4.5l1.1-.6q1.6 1.9 2.7 5.3 1.2 3.3 1.2 5.4l-.7 6.1.3 4-.3 5.7 1.9 10.6.3 4.6q0 .8.4 2 0 .5-2.1.5l-1.8-.5h-.4q0 1.8-1.4 1.8l-1.6-.2q-.7 0-.7.2-.1.5-2.2 1.2zm1.2-36.7L11.4 10zm7.3.8q-2.7 1.8-5 .9 2.2.9 5-1M10 28.7l3.4 5.9v1.7l-1.7-2.9 1.6 2.9v-1.7zM12.3 44l-2-4.7zm1.1-7.6 4.5 8.2zm-4 1-.8-1.7z" transform="translate(.5 .5)"/><path fill="none" stroke="#000" stroke-linecap="round" stroke-linejoin="round" stroke-opacity=".2" stroke-width="__RESOLUTION__" d="m23.5 21.5-.6-4.1m-2.5-4.7 2.3-2.1M12 10.4l1.1 1.5m2.3 1.7q2.2.9 5-1m-8 21.2 1.5 2.9V35l-3.3-6m.2 10.6 2 4.8m5.6.5L14 36.7M9.1 36l.8 1.7M21.5 27l-.2-1.4m.4 3.8.3 1.9 2.3-1.4-.4-4.1M22.6 35l-.6-3.7M23.7 44l-.6-4.8" vector-effect="non-scaling-stroke"/><path fill="none" stroke="#000" stroke-linecap="round" stroke-linejoin="round" stroke-opacity=".3" stroke-width="1" d="m16.5 1.9 1.8-.8q1.5-.6 2.8-.6l.5.1q2.9 1 4.3 11.4l.8 6.4.9 13.2q.4 6 1 7.5.8 2.6.1 9l-.5.1m-4.3 1-1.5.2-1.4.1m-9-.8-.1-.1-.4-.1-.8-.6-.2-.1-.2-.6-.4-.8-6.4-12.7q-2.9-6.4-2.9-8 0-1.4 2.6-3.1L4 22q3-1.8 4.2-1.8 2.6 0 4.7 6.3l.1.4v-.4L12.3 15l-.2-4.6-.2-3.4q0-2.3 3.6-4.5l1.1-.6"/><path fill="#8b752a" d="M20.3 2q1.3 0 1.6.9.2.8-.8 2-1.1 1-2.9 1.8t-3.1.8-1.6-1 .8-2l1-.8q.8-.7 1.8-1 1.8-.8 3.1-.8z"/><path fill="none" stroke="#000" stroke-linecap="round" stroke-linejoin="round" stroke-opacity=".3" stroke-width="__RESOLUTION__" d="M20.3 2q1.3 0 1.6.9.2.8-.8 2-1.1 1-2.9 1.8t-3.1.8-1.6-1 .8-2l1-.8" vector-effect="non-scaling-stroke"/><path fill="#8b752a" d="M7.7 22q1.1 0 1.4.8.2.6-.7 1.6-.7.8-2.2 1.4l-2.6.4q-1-.1-1.3-.8-.2-.7.6-1.6l.8-.7q.6-.5 1.5-.7 1.3-.6 2.5-.4"/><path fill="none" stroke="#000" stroke-linecap="round" stroke-linejoin="round" stroke-opacity=".3" stroke-width="__RESOLUTION__" d="M7.7 22q1.1 0 1.4.8.2.6-.7 1.6-.7.8-2.2 1.4l-2.6.4q-1-.1-1.3-.8-.2-.7.6-1.6l.8-.7" vector-effect="non-scaling-stroke"/></g><linearGradient id="a" x1="-819.2" x2="819.2" gradientTransform="matrix(0 .02 -.01 0 10.65 25.75)" gradientUnits="userSpaceOnUse" spreadMethod="pad"><stop offset="0" stop-color="#fdfe64" stop-opacity="1"/><stop offset="1" stop-color="#a58719" stop-opacity="1"/></linearGradient><linearGradient id="b" x1="-819.2" x2="819.2" gradientTransform="matrix(0 .02 -.01 0 10.65 25.75)" gradientUnits="userSpaceOnUse" spreadMethod="pad"><stop offset="0" stop-color="#cacb50" stop-opacity="1"/><stop offset="1" stop-color="#846c14" stop-opacity="1"/></linearGradient><linearGradient id="c" x1="-819.2" x2="819.2" gradientTransform="matrix(-.01 .02 -.01 0 12.1 17.7)" gradientUnits="userSpaceOnUse" spreadMethod="pad"><stop offset="0" stop-color="#bdbe4b" stop-opacity="1"/><stop offset="1" stop-color="#7b6512" stop-opacity="1"/></linearGradient><linearGradient id="e" x1="-819.2" x2="819.2" gradientTransform="matrix(-.01 .02 -.01 0 12.1 17.7)" gradientUnits="userSpaceOnUse" spreadMethod="pad"><stop offset="0" stop-color="#b0b145" stop-opacity="1"/><stop offset="1" stop-color="#735e11" stop-opacity="1"/></linearGradient><linearGradient id="g" x1="-819.2" x2="819.2" gradientTransform="matrix(-.01 .02 -.01 0 12.1 17.7)" gradientUnits="userSpaceOnUse" spreadMethod="pad"><stop offset="0" stop-color="#646527" stop-opacity="1"/><stop offset="1" stop-color="#413509" stop-opacity="1"/></linearGradient><linearGradient id="h" x1="-819.2" x2="819.2" gradientTransform="matrix(0 .02 -.01 0 10.65 25.75)" gradientUnits="userSpaceOnUse" spreadMethod="pad"><stop offset="0" stop-color="#98983c" stop-opacity="1"/><stop offset="1" stop-color="#63510f" stop-opacity="1"/></linearGradient><path id="i" fill="#9994ab" fill-opacity=".5" d="M92.7-1q32.9 21.2 33.7 34.7.8 13.4-17.9 23.2-18.5 9.7-44.3 9t-44-11Q1.8 44.5 1 32 0 19.4 18.8 6.8 37.5-5.7 48.5-14T92.8-1" transform="translate(-.9 16.3)"/><path id="v" fill="#000" fill-opacity=".1" d="M15-.5q.7 1.4.7 2.6 0 5.4-.8 14-.8 9.8-1 15.7l-.1.3v1.2l.8-1.5q3.9-8 7.7-12.4l1.1-1.4q1-1.4 1.6-1.4.8 0 1.2 1.2l.3 1.4q0 3.1-4.6 13l-3 5.9q-.4 1.4-2.3 3.4-2.4 2.5-4.4 2.5-3.6 0-4.6-1-1.4-1.5-1.4-6.4l.2-5.3.5-7.2L8 13q-.2-4.4.3-8 .8-7.2 4.4-7.2 1.4 0 2.3 1.7M1.1 29.4l.6 7.1.1 5.4q0 4.9-1.3 6.3-1 1.1-4.6 1.1-2.1 0-4.4-2.5-2-2-2.4-3.4l-2.8-6q-4.7-9.8-4.7-13l.3-1.3q.4-1.2 1.1-1.2.6 0 1.7 1.3l1.1 1.5q3.8 4.4 7.8 12.3l.6 1.5V37q-.2-5.9-1-15.7-.8-8.6-.8-14 0-1.1.7-2.5Q-6 3-4.6 3-1 3-.1 10.2q.5 3.7.3 8z" transform="translate(18.3 2.25)"/><path id="r" fill="#000" fill-opacity=".1" d="M-22.6-23.5q1.2-.7 2.7.5 1.3.9 1.8 2 2.5 4.7 5.8 12.7Q-8.5.7-6 6l.2.3.5 1V5.8Q-5.5-3-4.2-8.6l.3-1.9q.3-1.7.8-1.9.7-.4 1.6.5l.9 1.1Q.8-8.1 1.3 2.8l.2 6.5q.3 1.4-.5 4.1-1 3.4-2.7 4.3-3.2 1.7-4.6 1.2-1.9-.6-4.2-5l-2.2-4.8-2.9-6.6-4.2-10.3q-2.2-3.9-3.5-7.3-2.6-6.8.7-8.5" transform="translate(24.45 23.8)"/><path id="p" fill="#000" fill-opacity=".1" d="M25.5-33.5q1.8-1.8 3.4-1.2 4.5 1.5 2.6 10.7-1 4.6-3 10L25.2.2l-2.3 9-1.9 6.6q-2 6-4.3 7.2-1.7.9-6.1-.6-2.6-.8-4.4-4.8-1.5-3.4-1.5-5.3L3.5 4Q2-10.2 3.4-14l.9-1.6q.9-1.3 1.9-1 .7.2 1.5 2.4l.7 2.3Q11.2-5 12.7 6.4l.3 2.2.5-1.5.1-.5q2.2-7.3 5.2-19.7 2.6-10.9 4.8-17.5.4-1.4 1.9-2.9" transform="translate(-2.65 34.9)"/><clipPath id="j"><path d="M1 1h68v72H1z"/></clipPath><use xlink:href="#i" id="l" width="125.5" height="82.3"/></defs><g clip-path="url(#j)"><g transform="translate(32.45 62.95)"><use xlink:href="#l" width="125.5" height="82.3" filter="url(#filter-object-0)" transform="matrix(.3614 0 0 .3155 -13.65 -16.1)"/><use xlink:href="#m" width="29.5" height="50" transform="translate(-24.25 -60.25)scale(.9662)"/><use xlink:href="#n" width="25.3" height="38" transform="matrix(.9654 -.2462 .3318 .9436 -13.35 -54.1)"/><use xlink:href="#o" width="25.3" height="38" transform="matrix(1.2481 -.0992 .2097 1.2393 -3.3 -60.4)"/><use xlink:href="#p" width="29.4" height="58.3" transform="translate(4.3 -54.55)scale(.6993)"/><use xlink:href="#o" width="25.3" height="38" transform="rotate(1.777 1182.442 358.904)scale(.7932)"/><use xlink:href="#q" width="25.3" height="38" transform="matrix(-.9218 .0286 -.0417 .924 1.6 -51.95)"/><use xlink:href="#r" width="26" height="42.8" transform="translate(-14.65 -46.8)scale(.6993)"/><use xlink:href="#s" width="29.5" height="50" transform="matrix(-.5127 .1728 .507 .6993 -22.35 -39)"/><use xlink:href="#s" width="29.5" height="50" transform="matrix(-.8505 .2447 0 .8505 23.5 -45.7)"/><use xlink:href="#t" width="29.5" height="50" transform="translate(-16.45 -30.45)scale(.6993)"/><use xlink:href="#u" width="4" height="5.6" transform="translate(14.5 -22)scale(.6993)"/><use xlink:href="#u" width="4" height="5.6" transform="matrix(-.4423 -.5395 -.5395 .4423 21.9 -19.4)"/><use xlink:href="#u" width="4" height="5.6" transform="matrix(-.3394 -.4139 -.4139 .3394 19 -15.9)"/><use xlink:href="#u" width="4" height="5.6" transform="rotate(50.648 44.832 12.344)scale(-.5353 .5353)"/><use xlink:href="#u" width="4" height="5.6" transform="matrix(-.3394 -.4139 -.4139 .3394 29.95 -30.6)"/><use xlink:href="#u" width="4" height="5.6" transform="matrix(-.4462 -.5442 -.5442 .4462 28.15 -26)"/><use xlink:href="#u" width="4" height="5.6" transform="matrix(-.8438 -.5878 -.5878 .8438 28.35 -54.95)"/><use xlink:href="#u" width="4" height="5.6" transform="rotate(34.864 86.6 16.455)scale(-.8189 .8189)"/><use xlink:href="#u" width="4" height="5.6" transform="matrix(-.6719 -.4681 -.4681 .6719 23.3 -53.95)"/><use xlink:href="#u" width="4" height="5.6" transform="rotate(34.864 90.505 -7.6)scale(-.8189 .8189)"/><use xlink:href="#u" width="4" height="5.6" transform="matrix(-.6719 -.4681 -.4681 .6719 9.6 -46.55)"/><use xlink:href="#u" width="4" height="5.6" transform="matrix(.7645 -.2913 .2913 .7645 .6 -51.4)"/><use xlink:href="#u" width="4" height="5.6" transform="matrix(-.783 -.2334 -.2334 .783 -.05 -52.3)"/><use xlink:href="#u" width="4" height="5.6" transform="matrix(-.783 -.2334 -.2334 .783 -1.35 -43.3)"/><use xlink:href="#u" width="4" height="5.6" transform="rotate(-45.91 -63.066 -11.187)scale(.8153)"/><use xlink:href="#u" width="4" height="5.6" transform="rotate(-45.91 -60.371 1.023)scale(.8153)"/><use xlink:href="#u" width="4" height="5.6" transform="matrix(-.5614 -.1673 -.1673 .5614 -10.15 -45.45)"/><use xlink:href="#u" width="4" height="5.6" transform="matrix(-.5614 -.1673 -.1673 .5614 -9.35 -40.75)"/><use xlink:href="#u" width="4" height="5.6" transform="rotate(-45.91 -42.802 7.699)scale(.8153)"/><use xlink:href="#u" width="4" height="5.6" transform="rotate(-45.443 -48.65 9.94)scale(.585)"/><use xlink:href="#u" width="4" height="5.6" transform="rotate(-45.44 -46.69 23.186)scale(.7276)"/><use xlink:href="#u" width="4" height="5.6" transform="rotate(-45.441 -39.745 21.18)scale(.6332)"/><use xlink:href="#u" width="4" height="5.6" transform="rotate(-177.942 -10.97 -13.58)scale(.632 -.632)"/><use xlink:href="#u" width="4" height="5.6" transform="rotate(-45.441 -29.877 10.015)scale(.6332)"/><use xlink:href="#u" width="4" height="5.6" transform="rotate(-17.598 -79.571 12.985)scale(.6324)"/><use xlink:href="#u" width="4" height="5.6" transform="matrix(-.669 -.3133 -.3133 .669 1.2 -23.6)"/><use xlink:href="#u" width="4" height="5.6" transform="rotate(-34.633 -32.233 -.46)scale(.6319)"/><use xlink:href="#u" width="4" height="5.6" transform="rotate(-45.441 -19.152 12.892)scale(.6332)"/><use xlink:href="#u" width="4" height="5.6" transform="rotate(-45.441 -19.632 8.34)scale(.6332)"/><use xlink:href="#u" width="4" height="5.6" transform="rotate(-45.443 -13.472 11.059)scale(.521)"/><use xlink:href="#u" width="4" height="5.6" transform="matrix(-.6614 -.2188 -.2188 .6614 12.2 -32.4)"/><use xlink:href="#u" width="4" height="5.6" transform="rotate(-25.851 -67.32 -22.445)scale(.6963)"/><use xlink:href="#u" width="4" height="5.6" transform="rotate(-25.851 -59.03 -25.588)scale(.6963)"/><use xlink:href="#v" width="44.8" height="51.5" transform="translate(-10.35 -31.7)scale(.6993)"/><use xlink:href="#w" width="84.8" height="66.3" transform="translate(-29.35 -51.6)scale(.6993)"/><use xlink:href="#x" width="44.9" height="10.8" transform="translate(-20.2 -3.15)"/></g></g></svg>