<svg xmlns="http://www.w3.org/2000/svg" xmlns:xlink="http://www.w3.org/1999/xlink" width="44" height="130" viewBox="0 0 44 130"><defs><g id="f"><path fill="url(#a)" d="M3.3-19.6v38.2L-23.8 5.8v-38.3z" transform="translate(25.75 84.25)"/><path fill="#484535" d="m.4 80.3 1.5-.8L29 93.2l-1.6.8-3.4-1.7-16.7-8.5z"/><path fill="#706952" d="M29 93.2v9.8l-1.6.9V94z"/><path fill="#615b47" d="M27.3 104 .3 90.3V89l8.5 3.8q9.8 4.5 18.6 9.8zM.3 86.5v-2.8q1.1 0 12.6 6.4 12.2 6.7 14.5 7.3v2.9q-5.5-1.9-12.3-6.8-6.2-4.4-14.8-7m7-2.6L24 92.4q-4 1.3-16.7-8.5"/><path fill="#575240" d="M.3 89v-2.5q8.6 2.5 14.8 6.9 6.8 4.9 12.3 6.8v2.3q-8.7-5.2-18.6-9.7zm0-5.4v-3.3l7 3.5q12.6 9.8 16.7 8.5l3.4 1.7v3.3Q25.1 96.7 13 90 1.3 83.5.3 83.6"/><path fill="none" stroke="#000" stroke-linecap="round" stroke-linejoin="round" stroke-opacity=".3" stroke-width="__RESOLUTION__" d="m2 79.5 27 13.7h0v9.8l-1.6.9v.1h-.1L.3 90.3M27.4 104" vector-effect="non-scaling-stroke"/><path fill="none" stroke="#484535" stroke-linecap="round" stroke-linejoin="round" stroke-width="__RESOLUTION__" d="M.3 86.5q8.6 2.5 14.8 6.9 6.8 4.9 12.3 6.8m0-3Q25.1 96.8 13 90 1.3 83.5.3 83.6m27.1 19q-8.7-5.3-18.6-9.7l-8.5-4m7-5q12.6 9.6 16.7 8.4" vector-effect="non-scaling-stroke"/><path fill="#3f3c2e" d="m5 13.5-2.3-1.3v-1.6l2.2 1.3z"/><path fill="#66614a" d="M5 13.5v-1.6l3-1.7v3.4z"/><path fill="#5c5843" d="m5 11.9-2.3-1.3L5.6 9l2.5 1.3z"/><path fill="none" stroke="#000" stroke-linecap="round" stroke-linejoin="round" stroke-opacity=".3" stroke-width="__RESOLUTION__" d="M2.7 10.6v1.6l2.2 1.3 3.2.1v-3.3L5.6 9z" vector-effect="non-scaling-stroke"/><path fill="#6f6851" d="m11.6 5.5-3.2 1Q6.2 7.7 6.1 9.3q-.1 1.4 1.4 2.2l.9.4q1.2.5 2.3.6l3.4.3 2.3-.1 1.5-.4 1.2-.5.3-.1 1.3-1 .4-.5.4.2q-.2.6-.8 1.1l-1.2.9-.4.1-1.2.6-1.5.4-1.4.2-3-.1-1.4-.3q-1.5-.3-2.7-.9l-.3-.2q-2-1.3-2-3 0-1.9 2.3-3.2 1.2-.6 2.8-1zm8.2 4q-.1.7-.7 1l-.9.5q-.8.4-1.8.6l-2.8.2q-2.6 0-4.6-.6t-1.8-2 1.9-2.4q1.5-.7 3.2-1l1.4.7q-1.8.3-2.7.8-1.1.6-1.7 1.5-.7 1 .7 1.4l3.3.3 3-.5q1.4-.5 1-1.3l-.3-.5z"/><path fill="#5b5642" d="m21 10.2-.3.5-1.3 1-.3.1-1.2.5-1.5.4-2.3.1-3.4-.3q-1-.1-2.3-.6l-.9-.4Q6 10.7 6.1 9.3q.2-1.6 2.3-2.8l3.2-1 .7.3q-1.7.3-3.2 1-1.8 1-1.9 2.4t1.8 2 4.6.6l2.8-.2q1-.2 1.8-.6l.9-.5q.6-.3.7-1zm-9 3.4h2.8q-1.7 4.5-1.9 10 0-3.2-1-10m4.4-.1 1.5-.4q-.5 12.3-.8 14.7.5 1 1.4 14.7h-.1l-2 .4v-.1q-1.6-16-2.5-18.1 1.8-5.7 2.5-11.2m.6-5.3.3.5q.4.8-1 1.3l-3 .5-3.3-.3q-1.4-.4-.7-1.4t1.6-1.5 2.8-.8zm-6 .5q-.4.6.3.8H13l1.7-.3q.5-.2.5-.7 0-.3-.6-.7l-1.3-.2-1.4.2z"/><path fill="#656049" d="M5.6 9.3q0 1.6 2 2.9-.5 6.1-1 5.3v23.1l-.7-1-.3-1zm5 4 1.5.3q.9 6.8.9 10 .2-5.5 2-10l1.4-.1q-.7 5.5-2.5 11.1.8 2.2 2.5 18.2l-1.6.2h-.9q-1.6-6.3-1.7-18.5Q12 38 10.9 42.7q-.9-.2-1.7-.6L9 42h-.1q.6-9.1 1.8-18.6z"/><path fill="#575240" d="m7.6 12.2.3.2q1.2.6 2.7 1l.2 10Q9.5 32.9 8.9 42l-.5-.1-.2-.1h-.1l-.3-.3-.2-.1h-.1l-.1-.1-.2-.1-.3-.3-.1-.1-.2-.1V17.5q.5.8 1-5.3m.8 29.7.5.1v.1zm2.4.8Q12 38 12.3 24.5 12.5 36.7 14 43h-.2z"/><path fill="#4d4837" d="m17.9 13.1 1.2-.6Q18.9 27 19 27.2l.6-1q.4-.3.6 3.8l-.2.1.3 11.6-.6.3-.4.3-.8.2q-.9-13.7-1.4-14.7.3-2.4.8-14.7"/><path fill="#464233" d="m19.1 12.5.3-.1 1.3-.9q.6-.5.9-1.1l.1.1v29.3l-.1.4q-.3.9-1.4 1.5L20 30.2l.3-.1q-.2-4.1-.7-3.7l-.6.8q-.1-.1.1-14.6"/><path fill="#7a7358" d="m11 8.7 1-.9 1.3-.2 1.4.2q.6.4.6.7 0 .5-.6.7l-1.5.3h-1.8q-.8-.2-.5-.8"/><path fill="#000" fill-opacity=".3" d="M21.7 39.7V18.8l5 2.4zM5.5 11.3v14.2l-1-15.2z"/><path fill="none" stroke="#000" stroke-linecap="round" stroke-linejoin="round" stroke-opacity=".3" stroke-width="__RESOLUTION__" d="M10.7 5Q9.1 5.4 8 6 5.5 7.3 5.5 9.2h0q0 1.7 2 3l.3.2q1.2.6 2.7 1l1.5.2h3l1.4-.1 1.5-.4 1.2-.6.3-.1 1.3-.9q.6-.5.9-1.1m.1 8.4v-8.3m0 18.8V18.8m-16 19.8.2 1 .7 1 .2.2.1.1.3.3m.4.2.2.1.3.3h.1l.3.1.4.1h0l.2.1h.1q.8.4 1.7.6l2.8.3h.2m.9 0 1.6-.2m3.9-1q1-.7 1.3-1.6m0-.5V29.3m-5.2 13.6 2-.4h.1l.8-.2.4-.2.6-.4M13.9 43h.9l1.6-.1M14 43" vector-effect="non-scaling-stroke"/><path fill="#66614a" d="M26.5 19.8V23l-3.1-.1v-1.6z"/><path fill="#5c5843" d="m26.5 19.8-3.1 1.6-2.2-1.3 2.9-1.6z"/><path fill="#3f3c2e" d="M23.4 21.4V23l-2.2-1.3v-1.6z"/><path fill="none" stroke="#000" stroke-linecap="round" stroke-linejoin="round" stroke-opacity=".3" stroke-width="__RESOLUTION__" d="m23.4 23 3.1.1v-3.4l-2.4-1.2-3 1.6v1.6z" vector-effect="non-scaling-stroke"/><path fill="url(#b)" d="M3.3-68.4v26.2L-23.8-56v-21.9h8.6z" transform="translate(25.75 84.25)"/><path fill="#595442" d="m33.8 11.4 5.4 2.8V16l-11.8 6.1v-2l1-.5 2.6-1.3 1.6-.9-5.5-2.8.8-.4 2-1-2 1q-1-2-5.2-4.8-3-1.8-7.5-4l1-.7.9-.5 6.3 3.5q5 2.6 9.1 4.2zm-3.6 1.8 2.3-1.2zM.4 6.6l5.3-2.8 6.8 3.4 5 2.5-2 1-1.4.8-1.8 1z"/><path fill="#514d3c" d="m33.8 11.4-1.3.6q-4.1-1.6-9.1-4.2L17 4.3l-.9.5-1.6-.6q-2.8-1.2-4-3l1.6-.8 6.1 3.1zm-5.9 2.9-.7.4-9.7-5.1-5.1-2.4 2-1.3-1-.7Q10.1 3 8.3 2.6L5.6 3.8l6.8 3.4 2-1.3.8-.4q4.5 2.2 7.5 4 4.3 2.8 5.2 4.8m3.1 4.1-2.6 1.3-8-4q-4.1-2.3-6.4-4.2l1.4-.7q2.5.7 5.9 2.3 4.1 2 9.7 5.3M18.3 3.6l-1.2.7z"/><path fill="#615b47" d="m27.2 14.7 5.4 2.8-1.6.9q-5.6-3.3-9.7-5.3-3.4-1.6-5.9-2.3l2-1.1.1-.1zm1.3 5.1-1 .6-15.2-7.8 1.8-1q2.3 1.9 6.4 4.2zM8.3 2.5l2.4-1.2q1.2 1.7 4 2.9l1.7.6-1.2.7-.7.4-1-.7Q10.1 3 8.3 2.6"/><path fill="#3f3c2e" d="M27.4 20.3v1.9L.4 8.5V6.6l11.8 6zm-15.9-7.4.7-.4z"/><path fill="none" stroke="#000" stroke-linecap="round" stroke-linejoin="round" stroke-opacity=".3" stroke-width="__RESOLUTION__" d="m27.5 22.2 11.7-6.1v-2l-5.5-2.7-15.4-7.9L12.2.4m15.3 21.8h-.1L.4 8.5" vector-effect="non-scaling-stroke"/><path fill="none" stroke="#3f3c2e" stroke-linecap="round" stroke-linejoin="round" stroke-width="__RESOLUTION__" d="m33.8 11.4-1.3.6-2.4 1.2M28 14.3l2-1m-2 1-.7.4 5.4 2.8M14.5 6l.8-.4 1-.7.9-.5 1.2-.8m-6 3.7L14.5 6M5.6 3.8l6.8 3.4 5 2.5.1-.1 9.6 5m-13.1-3-1.8 1-.7.3m4-2.2-1.5.8m3.4-1.8-2 1" vector-effect="non-scaling-stroke"/><path fill="#6f6851" d="M5.6 57.3v-.1q0-1.9 2.3-3.2l2.8-1 .9.5q-1.7.3-3.2 1-2.2 1.1-2.3 2.9-.1 1.3 1.4 2.1l.9.4 2.3.6 3.4.4 2.3-.2 1.5-.4L19 60l.3-.2 1.3-1 .4-.6.4.3q-.2.6-.8 1.1l-1.2.9-.4.1-1.2.6-1.5.4-1.4.1-1.3.1-1.6-.1-1.5-.2q-1.5-.4-2.7-1l-.3-.2q-2-1.3-2-3m8.1-2.7-2.7.9L9.2 57q-.7 1 .7 1.3l3.3.3 3-.5q1.4-.5 1-1.3l-.3-.6 2.8 1.4q0 .6-.7 1l-.9.5-1.8.6-2.8.2-4.6-.6q-1.9-.7-1.8-2T9 54.9q1.3-.7 3.2-1z"/><path fill="#656049" d="M5.6 57.3q0 1.6 2 2.9-.5 6.1-1 5.3l-.1 16 .1 19.2-.7-1.2-.3-.9zm5 4.1 1.5.3q.9 7 .9 14 .2-9.7 2-14l1.4-.1Q14.8 74 13.9 76.7q0 2.1 2.5 26l-2.5.3q-1.6-6.3-1.7-18.5-.2 13.5-1.3 18.2l-1.7-.5-.3-.2q.6-9.2 1.8-18.6.4-2.2-.1-22"/><path fill="#575240" d="m7.6 60.2.3.2q1.2.6 2.7 1 .5 19.8.2 22-1.3 9.4-1.9 18.6v.1l-.8-.3-.3-.3-.2-.1h-.1l-.1-.1-.2-.1-.3-.3-.1-.1-.2-.1-.1-19.2.1-16q.5.8 1-5.4m3.3 42.6q1-4.7 1.3-18.2.2 12.2 1.7 18.5h-.2z"/><path fill="#5b5642" d="m12 61.6 1.7.1H15q-1.8 4.1-2 14 0-7.1-1-14.1m4.4-.1 1.5-.4-.8 18.7 1.5 22.2-.4.2-1.8.5q-2.5-23.9-2.5-26 .8-2.7 2.5-15.2m4.7-3.4-.4.6-1.3 1-.3.1-1.2.6-1.5.3-2.3.1-3.4-.2-2.3-.7-.9-.4q-1.5-.8-1.4-2.1.2-1.7 2.3-2.9 1.4-.7 3.2-1l.7.3q-1.9.3-3.2 1-1.8 1-1.9 2.4t1.8 2l4.6.6 2.8-.2 1.8-.6.9-.5q.6-.4.7-1zm-4.1-2 .3.6q.4.8-1 1.3l-3 .5-3.3-.3q-1.4-.4-.7-1.4l1.6-1.4 2.8-.9zm-3.6-.5-1.4.3-1 .8q-.4.5.3.8h1.8l1.7-.3q.5-.2.5-.7t-.6-.6z"/><path fill="#4d4837" d="m17.9 61.1 1.2-.6Q18.8 79 19 79.3q.7.8 1.3 10.8l-.3.1v10.4q-.2.8-1.4 1.5l-1.5-22.2z"/><path fill="#464233" d="m19.1 60.6.3-.2 1.3-.9q.6-.5.9-1.1l.1.1v30.8l-1.4.7q-.6-10-1.3-10.8-.2-.2.1-18.7"/><path fill="#7a7358" d="m13.4 55.6 1.3.3q.6.3.6.6 0 .5-.6.7l-1.5.3h-1.8q-.8-.2-.5-.8l1.1-.9z"/><path fill="#000" fill-opacity=".3" d="M5.6 75.4v5.8l-1.4-.7zm16.2-16.7 6 34-6.1-3.4z"/><path fill="none" stroke="#000" stroke-linecap="round" stroke-linejoin="round" stroke-opacity=".3" stroke-width="__RESOLUTION__" d="M10.7 53 8 54q-2.4 1.3-2.4 3.1v.1q0 1.7 2 3l.3.2q1.2.6 2.7 1l1.5.2 1.6.1H15l1.4-.2 1.5-.4 1.2-.6.3-.1 1.3-.9q.6-.5.9-1.1m.1.3v-.2m-15 42.2.2.1.1.1.3.3h.2v.1h.1v.1l.3.1.3.3.8.3m-3.3-3.5.3 1 .7 1m12 1.4q1.2-.7 1.4-1.5V90l.3-.1 1.4-.7V58.7M9 102l.3.2 1.7.5 2.8.3h.2l2.5-.2 1.8-.6.4-.2m1.4-1.5v-.8" vector-effect="non-scaling-stroke"/><path fill="#000" fill-opacity=".3" d="M21.6 40.3q-.4.9-1.4 1.5l-.4.3-.6.1-.7.3h-.1l-2 .4-1.6.1h-1.1l-2.8-.3q-.9-.2-1.7-.6L9 42l-.9-.2-1.5-1.1-.7-1.2-.3-.8v-.1l.2-3.6q.5-.5.7 1.5.3 1.9 2.6 3 1 .9 1.8-1.5.7-1.5 2 .1l2.3 3q.9 1.3 2.6-1.4 2.8-2.7 3.8.5"/><path fill="none" stroke="#000" stroke-linecap="round" stroke-linejoin="round" stroke-opacity=".3" stroke-width="__RESOLUTION__" d="M13.9 43h.9l1.6-.1 2-.4h.1l.8-.2.4-.2.6-.4q1-.6 1.3-1.5m-16-1.5.3.8.7 1.1 1.5 1.1.8.3.3.1q.8.4 1.7.6l2.8.3h.2" vector-effect="non-scaling-stroke"/></g><g id="e"><path fill="#61533f" d="m5.9 2.3.3-.2 1.2.8v12Q5 14 5.2 2.5zm.7 27.3-2.4-1.1q.2-25 2.4 1.1M.2 14.9V1.6l3.5 1.8Q4.6 9.6.2 14.9"/><path fill="#685943" d="m6.2 2-.3.3-.2-.1zm-1 .5Q5.1 14 7.4 14.8v15l-.8-.4q-2.2-26-2.4-1l-2.4-1.1-1.6-.8V14.9Q4.6 9.6 3.7 3.4L.2 1.5l2.2-1 2.8 1.4zM1.9 27.3l1.7-.3-1.1-5.2z"/><path fill="#5f523e" d="m5.9 2.3-.7.3v-.7l.5.3zm1.5.7-1.2-.8 1.2-.8 2.1.4z"/><path fill="#5a4e3b" d="M7.4 14.9v-12l2.1-1.2v26.8l-2.1 1.3zM1.8 27.4l.6-5.5 1 5.2z"/><path fill="none" stroke="#353228" stroke-linecap="round" stroke-linejoin="round" stroke-opacity=".3" stroke-width="__RESOLUTION__" d="m6.2 2-.3.3-.2-.1-.5-.3L2.4.5l-2.2 1v25l1.6.8 2.4 1.1 2.4 1.1.8.3 2.1-1.3V1.7l-2.1-.4z" vector-effect="non-scaling-stroke"/><path fill="#665842" d="m11.3 3.1 2-1.2L17 3.8 14.9 5zm.3-2.1L9.4 2.2l-1.7-1 2.1-1zm-2 29q-.3-3.6.3-4.6 0 4 1.4 5.4zm3.1 1.4q-1.1-6.9-.2-17.4-.2 8.2 2.5 12.5v6z"/><path fill="#534937" d="m13.4 2-2.3 1-1.8-1 2-1.1z"/><path fill="#6e5e46" d="m11.3 3.1 3.5 1.8v21.7q-2.7-4.3-2.6-12.5-.8 10.5.3 17.4l-1.4-.7q-1.5-1.5-1.3-5.4-.7 1-.4 4.7l-1.7-.9v-28l1.7 1-.3 9.6z"/><path fill="#5a4e3b" d="m14.8 4.9 2.1-1.2v27.5l-2.1 1.4zM9.4 2.1l1.8 1-2 8.8z"/><path fill="none" stroke="#353228" stroke-linecap="round" stroke-linejoin="round" stroke-opacity=".3" stroke-width="__RESOLUTION__" d="m17 3.7-3.6-1.8-2-.9L9.9.2l-2.2 1v28l1.8.9 1.7.7 1.4.7 2.3 1 2.1-1.3z" vector-effect="non-scaling-stroke"/><path fill="#60533f" d="m22.8 12.5-2.2 1.3-2.4-3-1.1-1.6 2-1.1z"/><path fill="#5a4e3b" d="m20.6 13.8 2.1-1.3v21.9l-2.1 1.3z"/><path fill="#665842" d="M19.2 8.1 17 9.3l-1-.6-2.7-1.3 2.2-1z"/><path fill="#6e5e46" d="m17 9.3 1.3 1.4q2.9 9.1-.4 23.8L15 33q2.5-5.8 1.2-24.3z"/><path fill="#685943" d="m18.3 10.8 2.3 3v21.9l-2.7-1.2q3.3-14.7.4-23.7m-4.9-3.4 2.7 1.3q1.3 18.6-1.2 24.4l-1.5-.7z"/><path fill="none" stroke="#353228" stroke-linecap="round" stroke-linejoin="round" stroke-opacity=".3" stroke-width="__RESOLUTION__" d="M22.8 12.5 19 8.1l-3.5-1.7-2.2 1v25l1.5.7 3 1.4 2.7 1.2 2.1-1.4z" vector-effect="non-scaling-stroke"/><path fill="#685943" d="m20.7 11.5 2.1-1 2.8 1.3.1.7q-.1 11.6 2.1 12.3v15l-.7-.3q-2.3-26.2-2.5-1.1l-2.4-1.2-1.6-.7V24.8q4.4-5.2 3.5-11.5zm1.6 25.7L24 37l-1.1-5.2zm3.9-25.1.5-.1-.3.2z"/><path fill="#61533f" d="m20.7 11.5 3.4 1.8q1 6.3-3.5 11.5zm4 26.9q.2-25.1 2.4 1zm3.2-13.6q-2.2-.7-2.1-12.3l.6-.3.3-.2 1.2.8z"/><path fill="#5a4e3b" d="m22.2 37.2.6-5.5 1.1 5.3zm5.6 2.6v-27l2.1-1.2v26.9z"/><path fill="#5f523e" d="m25.7 12.5-.1-.7.5.3.2.1zm1-.5 1.1-.8 2.1.4-2.1 1.3z"/><path fill="none" stroke="#353228" stroke-linecap="round" stroke-linejoin="round" stroke-opacity=".3" stroke-width="__RESOLUTION__" d="m25.6 11.9-2.8-1.5-2.2 1.1v25l1.6.7 2.4 1.1 2.4 1.2.8.3 2.1-1.3V11.7l-2.1-.5-1.2.8-.3.2-.2-.1z" vector-effect="non-scaling-stroke"/></g><g id="d"><path fill="#494838" d="M26 13.2v-1l9-2.4v82.7l-7.9 3.9V14.3l-1.2-.6z"/><path fill="#9d9a7d" d="M27.1 96 .1 82.3V0L26 13.2v.5l1.1.6zM15.5 9.8l-.6 1.2zm-1.3 3.9 1.3-2.4-.6-.3-1.2 2.3-.3-1.1.3 1.1.2.8zl.6 2.8-1.6 5.2.8 4.3 1.5.9L14 26l-.8-4.3 1.6-5.2zm-.9 11.8-.6-3.7 1.8-5.6-.6-2.1.5 2-1.7 5.6zm-.8 8.7-1-3.8.4-1.4-.5 1.4zm-.4-5.7v.1l-.2.4zL14 26z"/><path fill="#888566" d="m14.9 11 .6.3-1.3 2.4-.3.4-.2-.8zm-2.8 17.5-.2.5.1-.4z"/><path fill="none" stroke="#000" stroke-linecap="round" stroke-linejoin="round" stroke-width="__RESOLUTION__" d="M27.1 96 .1 82.3" vector-effect="non-scaling-stroke"/><path fill="none" stroke="#7a785c" stroke-linecap="round" stroke-linejoin="round" stroke-width="__RESOLUTION__" d="m14.9 11 .6-1.2m-.6 1.2.6.3-1.3 2.4.6 2.8-1.6 5.2.8 4.3 1.5.9m-1.3-13.2-.3.4.5 2-1.7 5.6.6 3.8m.4-12.2-.3-1.1m.3 1.1 1.2-2.3m-1 3.1-.2-.8M12 29l-.6 1.4 1.1 3.8m-.4-5.7-.2.4zL14 26" vector-effect="non-scaling-stroke"/></g><linearGradient id="b" x1="-819.2" x2="819.2" gradientTransform="matrix(-.01 .01 .02 .01 -13.25 -56.7)" gradientUnits="userSpaceOnUse" spreadMethod="pad"><stop offset="0" stop-color="#000" stop-opacity=".3"/><stop offset=".8" stop-color="#000" stop-opacity="0"/></linearGradient><linearGradient id="a" x1="-819.2" x2="819.2" gradientTransform="matrix(.01 -.02 -.03 -.01 -6.4 -14)" gradientUnits="userSpaceOnUse" spreadMethod="pad"><stop offset="0" stop-color="#000" stop-opacity=".3"/><stop offset=".8" stop-color="#000" stop-opacity="0"/></linearGradient><clipPath id="c"><path d="M1 1h42v128H1z"/></clipPath></defs><g clip-path="url(#c)"><g transform="translate(26.75 108.5)"><use xlink:href="#d" width="35" height="96.4" transform="translate(-23.9 -77.45)"/><use xlink:href="#e" width="30.1" height="40" transform="translate(-14.3 -107.5)"/><use xlink:href="#f" width="39.6" height="104.3" transform="translate(-25.75 -84.25)"/></g></g></svg>