<svg xmlns="http://www.w3.org/2000/svg" xmlns:xlink="http://www.w3.org/1999/xlink" width="102" height="57" viewBox="0 0 102 57"><defs><g id="a"><path fill="#2b1b0f" fill-opacity=".5" d="M22.6 16.3q0 2.3-3.2 3.8-3.2 1.6-7.7 1.6t-7.8-1.6Q.6 18.6.6 16.3t3.1-3.9 7.8-1.6 7.8 1.6 3.2 3.9"/><path fill="#688a71" d="M15.2 5.8 16 5q.5-.5.6-1.1v-.8q-.2-1-1.2-1.4l-.4-.2-1.3-.6-2.4-.6H8.8L7.5.7l-2.1.8-1.4.8q-.7.7-.4 1.5.4 1.2 1.2 2 .9.4 2 .6.7.4 1.5.6h3.5l1.6-.4zm-14-.3V4.3l.4-.8.6-.7 1.1-1.1L4.6 1 6 .5 7.5.2 9.1 0H11l1.7.2 1.4.3h.2l1.3.5 1.2.7 1.2 1 .8 1.5.1 1.2q0 1-.7 1.7l-.4.5-.4.3-.3.3-1.6.9-.9.3-1 .3-1 .1-1.8.2H8.9l-.7-.1-.5-.1-1.1-.1-1-.3-.7-.3-.9-.4-.5-.3-.9-.5-.6-.5-.5-1zm6.5 14.7q-2.9-.6-4.8-2.2-3-2.7-2.9-5.1l.3-2.2.3.3q5 3 12 3l4-.2q-.9 1.7-2.5 3.1-2.7 2.7-6.4 3.3M6.8 8l-.3-1.4-1.7-.5L4.1 8l1.3.9zM4 12.9l-1.6-.2-.3 1.5.8.4 1.2-.5z"/><path fill="#425545" d="M4.9 5.8Q4 5 3.6 3.8 3.4 3 4 2.3l1.4-.8L7.5.7 8.8.4h2.6l2.3.6 1.4.6.3.2q1.1.5 1.3 1.4V4q-.1.6-.6 1.1l-1 .7-1.3-.4-.3-.1-2.1-.7H8.8l-1.3.3-1 .3h-.1z"/><path fill="#9db593" d="m15.2 5.8-1.8.8-1.7.4H8.4l-1.6-.6q-1-.2-1.9-.6l1.6-.6h.1l1-.3 1.3-.3h2.6l2.1.7.3.1z"/><path fill="#b65a18" d="M18.8 5.4q1.4 1.1 1.4 2.5 0 1-.6 1.8l-.7.7V8.8l-1.6-.9.4-.3.4-.5q.7-.7.7-1.7"/><path fill="#4f6653" d="M19.6 9.7q.6 1.4.6 3v.2q-.1 2.3-3 5-2.6 2.3-7 2.4L7.6 20q3.7-.6 6.4-3.3 1.6-1.4 2.5-3.1l-4 .3q-7 0-12-3.1l-.3-.3.2-1q.8 1 2.4 1.9H3q2.3 1.2 5.4 1.4h1.7l4.9-.5 2.2-.9.3-.1 1.4-1z"/><path fill="#de941b" d="M.5 9.7Q0 8.9 0 7.9q0-1.3 1.2-2.4l.3.9.5 1 .6.5 1 .5-1.2 1 .6 2.1Q1.2 10.7.4 9.7"/><path fill="#ea9b1a" d="m3.5 8.4.5.3L5 9l.6.3 1 .3 1.1.1h.5v1.9l.2 1.2q-3-.2-5.4-1.4l-.6-2z"/><path fill="#d18221" d="M8.3 9.9h2.4l1.8-.1 1-.1 1-.3 1 1.5-.6 1.5-4.8.6-1.7-.1-.2-1.2z"/><path fill="#c6781a" d="m14.5 9.4.9-.3L17 8l.3-.2 1.6.9v1.6l-1.4 1-.3.1-2.2.9.4-1.5z"/><path fill="#c5d1c6" d="m6.9 8.1-1.6.8L4.1 8 5 6.2l1.6.5zM4 12.9l.1 1.2-1.2.5-.8-.4.3-1.5z"/><path fill="none" stroke="#385f5e" stroke-linecap="round" stroke-linejoin="round" stroke-width="__RESOLUTION__" d="m15.2 5.8-1.8.8-1.7.4H8.4l-1.6-.6q-1-.2-1.9-.6" vector-effect="non-scaling-stroke"/><path fill="none" stroke="#354436" stroke-linecap="round" stroke-linejoin="round" stroke-width="__RESOLUTION__" d="M1.2 5.5V4.3l.4-.8.6-.7 1.1-1.1L4.6 1 6 .5 7.5.2 9.1 0H11l1.7.2 1.4.3h.2l1.3.5 1.2.7 1.2 1 .8 1.5.1 1.2q0 1-.7 1.7l-.4.5-.4.3-.3.3-1.6.9-.9.3h0l-1 .3-1 .1-1.8.2H8.9l-.7-.1-.5-.1-1.1-.1-1-.3-.7-.3-.9-.4-.5-.3-.9-.5-.6-.5-.5-1zm18.4 4.3q.6 1.4.6 3v.2q-.1 2.3-3 5-2.6 2.3-7 2.4L7.6 20q-2.9-.6-4.8-2.2-3-2.7-2.9-5.1l.3-2.2" vector-effect="non-scaling-stroke"/><path fill="none" stroke="#76460e" stroke-linecap="round" stroke-linejoin="round" stroke-width="__RESOLUTION__" d="M18.8 5.4q1.4 1.1 1.4 2.5 0 1-.6 1.8l-.7.7V8.8l-1.6-.9M.5 9.7Q0 8.9 0 7.9q0-1.3 1.2-2.4M15 12.4l.4-1.5-1-1.5m4.5 1-1.4 1-.3.1-2.2.9-4.9.6-1.7-.1q-3-.2-5.4-1.4h0Q1.2 10.7.4 9.7m3-1.3-1 1 .5 2.1m5.3-1.6v1.8l.1 1.2" vector-effect="non-scaling-stroke"/><path fill="none" stroke="#503516" stroke-linecap="round" stroke-linejoin="round" stroke-width="__RESOLUTION__" d="m.3 10.6.2-1" vector-effect="non-scaling-stroke"/></g><g id="b"><path fill="#2b1b0f" fill-opacity=".3" d="m17 11.2-4.2 3.5q-1.7 1.2-4.7 1.3l-1.5-.1v-2.2h4.6V7.6l5.4.5q2.9.9.4 3.2"/><path fill="#eed9a8" d="M.5 3Q.5 1.8 2.2.9T6.3 0Q9 0 10.6.9T12.3 3q-.1 1.2-1.7 2l-.7.3Q8.4 6 6.3 6 4 6 2.4 5.1h-.2Q.5 4.3.5 3m9 1.1q.8-.5.9-1.2-.1-1-1.2-1.5h-.1Q7.9.7 6.4.7t-2.8.6Q2.3 2 2.3 2.8V3q0 .6.9 1.2l.3.2q1.2.5 2.7.5t2.9-.5z"/><path fill="#c7a863" d="M12.3 3q.6 5 0 10 0 1.2-1.7 2l-2.4.8q1.4-3.1 1.7-4.5.4-1.9.1-5.1l-.1-.9.7-.2q1.6-.9 1.7-2"/><path fill="#e2c889" d="m8.2 15.8-1.8.1q-2.5 0-4.2-.8-1.7-1-1.7-2.2-1-5 0-9.9 0 1.3 1.7 2l.2.1Q4 6 6.4 6q2 0 3.5-.6l.1.9q.3 3.2-.1 5.1-.3 1.4-1.7 4.4"/><path fill="#9f7939" d="M3.3 4.1q-1-.6-.9-1.2 0-.9 1.2-1.5T6.4.8t2.8.5l.1.1q1.1.5 1.2 1.4V3q-.1.7-1 1.2L9.3 4h-.1Q8 3.4 6.5 3.5q-1.7-.1-2.8.5z"/><path fill="#9db593" d="m9.5 4.1-.3.2q-1.3.5-2.8.5-1.6 0-2.9-.5L3.4 4l.4-.2q1-.6 2.6-.5 1.5 0 2.8.5h.1z"/><path fill="none" stroke="#6f5928" stroke-linecap="round" stroke-linejoin="round" stroke-width="__RESOLUTION__" d="M.5 3Q.5 1.8 2.2.9T6.3 0Q9 0 10.6.9T12.3 3h0q.6 5 0 10 0 1.2-1.7 2l-2.4.8-1.8.1q-2.5 0-4.2-.8-1.7-1-1.7-2.2h0m0 0q-1-5 0-9.9h0" vector-effect="non-scaling-stroke"/></g><g id="g"><path fill="#d8730e" d="M10.1 6.1q.3-1.9 4-3.8Q18.8-.1 23.8.2h1.1L23 2.1l.7 1.2h-.2q-2.7 0-4.7 1-1.9 1-1.9 2.3v.2l.5 1.1q.4.7 1.4 1.2 2 1 4.7 1T28 9q1.2-.6 1.6-1.4l.3-.9v-.1l-.3-1.1.9.2 3.6-.7q1.5 2 1.1 4l-5.2.2-1.9 2.2 1.3 1.3-4.1.6Q24 16 24.9 19h-2.2l-1.1-5.6h-.3l-3.1-.2h-.1L16.5 18l-2.2-.9-2.6-1.8-.4-5.6-.3-.4q-.6-.9-.9-3.2M4.9 11 .5 14.7.1 13l.6-2.7q2.5-.5 4.2.6"/><path fill="#ae4106" d="m24.8.2.9 4.7-1.1-.2-.9-1.4L23 2zm10.6 9q.8 1.2.3 2.5-.4 1-1.5 2l-4.4.6-.1-1.3-.2-.2-1.3-1.3 1.9-2.2zM4.9 11q1.5-.2.8 2.9l-5.2.8z"/><path fill="#fa8d23" d="m25.7 4.9 4 .7.3 1v.2l-.2.9q-.5.8-1.7 1.4-2 1-4.6 1-2.7 0-4.7-1-1-.5-1.4-1.2l-.5-1.1v-.2q0-1.3 1.9-2.3 2-1 4.7-1h.2l.9 1.4zm.1 3 .9-.7.1-.4v-.1q0-.7-1-1.2T23.6 5l-2.3.5q-1 .5-1 1.2l.2.6.8.6q.9.5 2.3.5t2.3-.5"/><path fill="#d35a01" d="m29.8 14.3.2 2.3-2.1 2.1-3 .4q-1-3.1.5-5.7l4.1-.7.2.3zM22.7 19q-3.5-.1-6.2-1.1l1.6-4.7h.1l3.1.2h.3zm-11-3.8q-1.3-1.4-1.5-3-.4-2.8-.1-6.2.3 2.3.9 3.2l.3.4z"/><path fill="#b54910" d="m30 16.6.1 1.5-2.2.6z"/><path fill="#c75807" d="M25.8 7.9q-1 .5-2.3.5-1.4 0-2.3-.5l-.8-.6-.2-.6q0-.7 1-1.2l2.3-.5q1.3 0 2.3.5t1 1.2l-.2.5z"/><path fill="none" stroke="#6c2206" stroke-linecap="round" stroke-linejoin="round" stroke-width="__RESOLUTION__" d="M10.1 6.1q.3-1.9 4-3.8Q18.8-.1 23.8.2h1.1l.9 4.7 4 .7.9.2 3.6-.7q1.5 2 1.1 4 .9 1.3.4 2.6-.4 1-1.5 2l-4.4.6.2 2.3.1 1.5-2.2.6-3 .4m-.1 0h-2.1q-3.5-.1-6.2-1.1l-2.2-.9-2.6-1.8q-1.3-1.4-1.5-3-.4-2.8-.1-6.2m13.6-2.8.9 1.4 1 .2m4.5 4.4-1.9 2.2 1.3 1.3.2.2.1 1.3m-24-.4q.6-3.2-.9-2.9-1.7-1.1-4.2-.6L.1 13M24.8.2 23 2.1l.7 1.2" vector-effect="non-scaling-stroke"/></g><g id="f"><path fill="#fa8d23" d="M15.9 5.5q-1-.5-2.3-.5l-2.3.5q-1 .5-1 1.2l.3.6.7.6q1 .5 2.3.5t2.3-.5l.8-.7.2-.4v-.1q0-.7-1-1.2m4 2.2q-.4.8-1.6 1.4-2 1-4.7 1T9 9q-1-.5-1.5-1.2l-.5-1v-.2q0-1.3 2-2.3 1.9-1 4.6-1t4.7 1T20 6.7v.1z"/><path fill="#c75807" d="M15.9 5.5q1 .5 1 1.2l-.1.5-.9.7q-1 .5-2.3.5t-2.3-.5l-.7-.6-.2-.6q0-.7.9-1.2l2.3-.5q1.3 0 2.3.5"/><path fill="#d8730e" d="m19.9 7.7.3-.9v-.1q0-1.4-2-2.4-1.9-1-4.6-1T9 4.3q-2 1-2 2.3v.2l.5 1.1q.5.7 1.4 1.2 2 1 4.7 1t4.7-1q1.1-.6 1.6-1.4M.3 6.1q.3-1.9 4-3.8Q8.9-.1 13.9.2t8.7 2.1 4.1 4v.1q-.1 1.5-.8 2.6-.8 1-2.6 2.1-1.8 1-3.3 1.6l-4.4.7h-.1Q14.1 16 15 19h-2.1l-1.2-5.6h-.2l-3.2-.2L6.6 18l-2.2-.9-2.6-1.8-.4-5.6-.3-.4Q.5 8.4.3 6.1"/><path fill="#b54910" d="m26.8 6.4.1 4.2.1 2.4q.1 1-3 3.1-3.1 2.2-6 2.6 6-5.4 2-6 1.5-.5 3.3-1.6 1.8-1 2.6-2.1.7-1.1.8-2.6"/><path fill="#d35a01" d="m18 18.7-3 .4q-.9-3.1.5-5.7l4.5-.7q4 .6-2 6m-5.1.4Q9.3 19 6.6 18l1.7-4.7 3.1.2h.3zm-11-3.8q-1.4-1.4-1.6-3-.4-2.8 0-6.2.2 2.3.8 3.2l.3.4z"/><path fill="none" stroke="#6c2206" stroke-linecap="round" stroke-linejoin="round" stroke-width="__RESOLUTION__" d="M.3 6.1q.3-1.9 4-3.8Q8.9-.1 13.9.2t8.7 2.1 4.1 4v.1l.2 4.2.1 2.4q.1 1-3 3.1-3.1 2.2-6 2.6l-3 .4m0 0h-2.1Q9.3 19 6.6 18l-2.2-.9-2.6-1.8q-1.3-1.4-1.5-3-.4-2.8 0-6.2" vector-effect="non-scaling-stroke"/></g><g id="e"><path fill="#d8730e" d="M18 1.9h-2.2l-4 1h-1.1q-2.2 0-3.7.8T5.5 5.8V6l.4 1 .6.6-.8 3.5-.1 3.8-.3 1-1.7-.8q-1.3-.7-2-1.5l-.6-5v-.4q-.7-.8-1-2.8.2-1.1 1.6-2.3l1.6-1q3.6-2.2 7.6-2t7 1.7zM9 13.2l1-.4.2.8.1.2.2 1H9.3zm4.5-.2-.3-1 .7-.4.2-.1.8-.3.8-.1q.7.1 1.5 1z"/><path fill="#ae4106" d="m11.8 2.9 4-1H18q1.3 2.7 0 4.6l-1.5-.2-5.9 1.4-3.8 3.1-.2.8-1 3.2.1-3.8.8-3.5.3-1.3 3.8-3.1zM9.3 14.8H8l.2-1.4.8-.2zm7.9-2.7.5.8-1.1 1.5-2.9-.6-.2-.8z"/><path fill="#d35a01" d="M.1 5.4q.3 2 .7 2.8H1l.2.4.4 4.9q-1-1.2-1.2-2.6L0 8.2zm5.2 10.4.3-1 1-3.2-.9 4.3h-.1zm.3.1v-1.1z"/><path fill="#fa8d23" d="M6.5 7.5 5.9 7l-.4-1q0-1.3 1.5-2.2t3.7-.9l1.1.1-1.2.2-3.8 3.1z"/><path fill="none" stroke="#6c2206" stroke-linecap="round" stroke-linejoin="round" stroke-width="__RESOLUTION__" d="M18 1.9h-.2Q14.8.2 11 0T3.4 2L1.8 3Q.3 4.3.1 5.4v2.8L.3 11q.1 1.4 1.2 2.6.8.8 2.1 1.5l1.7.8.3.1h.1l1-4.3.1-.8 3.8-3.1 6-1.4 1.4.2q1.3-1.9 0-4.6M9 13.2l1-.4.2.8.1.2.2 1m-2.5 0 .2-1.4.8-.2m-3.4 1.6v1.1m8-2.9-.4-1 .7-.4.2-.1.8-.3.8-.1q.7.1 1.5 1l.5.8-1.1 1.5-2.9-.6z" vector-effect="non-scaling-stroke"/></g><g id="d"><path fill="#ae8b51" d="m56.8 37.4 3.7-2 18.7-10 3.3 1.7-10 5.8 11.5-5 5.8 3-24.1 12.9-5.1 2.3-10.4 1.8-2.6-1.3-3.5-1.8 8.4-5.1zm-1.2 3.9-8 5.3z"/><path fill="#a58b34" d="m60.5 35.4-3.7 2-8 .4-8.9-4.4 29.3-13.6 8.3 4.6zm8.7-15.6L39.9 33.4 31 28.9l-8.9-4.5 5.9-5.1L47.6 9l5.5 2.6q8.4 4 16 8.2M51 18.5 31 28.9zm-3.5-4.3 5.7-2.6z"/><path fill="#8d743a" d="m56.8 37.4-4.3 2.3-3.7-1.9zm22.4-12-18.7 10 17-11z"/><path fill="#c29b5a" d="m52.5 39.7-8.4 5L30.7 38l-5.8-5-12.3-4.2-12-6.1 2.9-1.5L9.6 18l4 2 3.3 1.7 3.4 1.7 1.8 1 8.9 4.5 8.9 4.5 8.9 4.4zM13.3 26.4l-9.8-5.2z"/><path fill="#826840" d="M44 44.8h.1l3.5 1.8 2.5 1.3h.1l4.1 3.6v3.2h-2.5L49 53.4l-1.3-.6-.3-.1-3.1-1.5h-.1L44 51l-2-1-3.1-1.5-2.5-1.2-6.8-3.4-4.1-2.1-2.6-1.3-.8-.4-2.8-1.5-2-1.1-4.5-2.4-3.7-2-3-1.6-4-2.2L0 26.6l-.1-1q0-2 .6-3l12 6 2.5 2.8L30.7 38zM28 19.3l-5.9 5-1.9-.9zm19.8 33.5-.1-6.2zm-3.7-1.7v-6.3z"/><path fill="#a98549" d="m89.8 30.9-5.8-3-1.5-.8-3.3-1.7-1.7-1-8.3-4.6q-7.7-4.2-16.1-8.2L47.6 9l2.7-1.6 18 8.5-18-8.5 6.4-3.7q22.5 11 42 22.3l-3.1 1.7-3 1.6zm.5-3 2.4 1.4zm0-2.6 5.3 2.4z"/><path fill="#6d5836" d="m89.8 30.9 2.9-1.6 2.9-1.6 3.2-1.7q.4.8.5 1.8l-2 4.8-.3.2-3.5 1.9-3.4 1.8H90l-2.8 1.6-1.8.9-10 5.5-3 1.6-2.6 1.4-2 1-5.3 3-4.2 2.2-.7.4-2.9.5h-.4v-3.1l11.4-7.7zl.3 5.7z"/><path fill="#a68653" d="m82.5 27.1 1.5.8-11.5 5zM50.2 47.9"/><path fill="#b79459" d="M9.6 18 39 2.5 49 0l7.6 3.7-6.4 3.7L47.6 9 28 19.3l-7.7 4v.1l-3.4-1.7-3.3-1.7zm10 2.2L17 21.7zm2.2-4.8L13.6 20z"/><path fill="#d1b470" d="m65.7 43.8-11.4 7.7-4.1-3.6L60.6 46zm-35-5.7-15.5-6.5-2.5-2.7L24.9 33l5.8 5"/><path fill="none" stroke="#503c29" stroke-linecap="round" stroke-linejoin="round" stroke-width="__RESOLUTION__" d="m60.5 35.4-3.7 2-4.3 2.3-8.4 5v6.4h.1M84 28l5.8 3 .2 5.7M82.5 27l1.5.8m-1.5-.8-3.3-1.7-18.7 10 17-11-8.3-4.6q-7.7-4.2-16.1-8.2L47.6 9m-7.7 24.4 8.9 4.4 8-.4m20.7-13 1.7 1M0 26.7l-.1-1q0-2 .6-3l2.9-1.5L9.6 18M56.7 3.7q22.5 11 42 22.3.5.8.6 1.8l-2 4.8M28 19.3l-5.9 5-1.9-.9m19.7 10L31 28.9m16.6 17.7.2 6.2m4.7-13.1-3.7-1.9" vector-effect="non-scaling-stroke"/><path fill="none" stroke="#7c603f" stroke-linecap="round" stroke-linejoin="round" stroke-width="__RESOLUTION__" d="m47.7 46.6 7.9-5.4m37-11.9-2.2-1.4" vector-effect="non-scaling-stroke"/><path fill="none" stroke="#8f6f38" stroke-linecap="round" stroke-linejoin="round" stroke-width="__RESOLUTION__" d="m84 27.9-11.5 5 10-5.8m-13.3-7.3L39.9 33.4m55.7-5.7-5.2-2.4M13.5 20l8.3-4.6M3.5 21.2l9.8 5.2m37-19 18 8.5" vector-effect="non-scaling-stroke"/><path fill="none" stroke="#2c2116" stroke-linecap="round" stroke-linejoin="round" stroke-width="__RESOLUTION__" d="m87.2 38-1.8 1m-10 5.5-3 1.6m-2.6 1.4-2 1m-5.3 3-4.2 2.2m-3.5.9h-2.5m-3.2-1.2-1.3-.6-.3-.1M44 51l-2-1m-3-1.4-2.5-1.2M29.7 44l-4.1-2.1M23 40.6l-.8-.4m-2.8-1.5-2-1.1m-4.5-2.4-3.7-2m-3-1.6-4-2.2-2.1-2.7m97.2 5.9-.3.2m-3.5 1.9-3.4 1.8" vector-effect="non-scaling-stroke"/><path fill="none" stroke="#664e31" stroke-linecap="round" stroke-linejoin="round" stroke-width="__RESOLUTION__" d="M9.6 18 39 2.5 49 0l7.6 3.7-6.4 3.7L47.6 9h0L28 19.3l-7.7 4v.1l-3.4-1.7-3.3-1.7zm12.5 6.4 8.9 4.5" vector-effect="non-scaling-stroke"/><path fill="none" stroke="#897138" stroke-linecap="round" stroke-linejoin="round" stroke-width="__RESOLUTION__" d="m31 28.9 19.9-10.4m2.2-7-5.7 2.7" vector-effect="non-scaling-stroke"/><path fill="none" stroke="#7a5c3a" stroke-linecap="round" stroke-linejoin="round" stroke-width="__RESOLUTION__" d="m16.9 21.7 2.8-1.5" vector-effect="non-scaling-stroke"/></g><use xlink:href="#a" id="i" width="22.6" height="21.8"/><use xlink:href="#b" id="h" width="18.1" height="15.9"/><clipPath id="c"><path d="M1 1h100v55H1z"/></clipPath></defs><g clip-path="url(#c)"><g transform="translate(51.65 44.8)"><use xlink:href="#d" width="99.3" height="54.6" transform="translate(-50.65 -43.8)"/><use xlink:href="#e" width="18.8" height="16.1" transform="translate(-32.6 -35.4)"/><use xlink:href="#f" width="27.1" height="19.1" transform="translate(7.35 -13.6)scale(.4994)"/><use xlink:href="#g" width="36" height="19.1" transform="translate(-25.4 -19.45)scale(.4994)"/><use xlink:href="#h" width="18.1" height="15.9" transform="translate(-4.9 -38.6)scale(.6054)"/><use xlink:href="#h" width="18.1" height="15.9" transform="translate(-13.95 -32.5)scale(.6054)"/><use xlink:href="#h" width="18.1" height="15.9" transform="translate(7.05 -24.75)scale(.6054)"/><use xlink:href="#i" width="22.6" height="21.8" transform="translate(15.45 -38.25)"/></g></g></svg>