<svg xmlns="http://www.w3.org/2000/svg" xmlns:xlink="http://www.w3.org/1999/xlink" width="95" height="75" viewBox="0 0 95 75"><defs><use xlink:href="#a" id="g" width="35.1" height="23.4"/><use xlink:href="#b" id="f" width="17.3" height="24.1"/><use xlink:href="#c" id="e" width="39.1" height="38.2"/><g id="b"><path fill="#3e3024" d="M17.3 5.2v2.2h-.7L.4 6.3H0V4zM2 7.4l13 1v10.9l-13-1z"/><path fill="#8f6f53" d="M17.3 5.2 0 4l6.5-4 3.3 1.6z"/><path fill="#a47f5e" d="m.4 6.3 16.3 1.1-.1 14.5L.4 20.8zm1.7 1.1h-.2V19l13.3 1V8.4z"/><path fill="#e9e8b6" d="M15.2 19.3v.7L1.8 19V7.4H2v10.9z"/><path fill="#997658" d="M0 23v-2.2l17 1.1v2.3z"/><path fill="none" stroke="#000" stroke-linecap="round" stroke-linejoin="round" stroke-width="__RESOLUTION__" d="M9.9 1.6 6.6 0M0 23l17 1.1" vector-effect="non-scaling-stroke"/><path fill="none" stroke="#3e3024" stroke-linecap="round" stroke-linejoin="round" stroke-width="__RESOLUTION__" d="M17 21.9 0 20.8h0" vector-effect="non-scaling-stroke"/></g><g id="c"><path fill="#3e3024" d="M31.8 19.2v2.3L.5 6.1 0 5.9V3.7h.1zM.5 20.6l.5.3zl-.5-.3zm30.2 11.8L2.6 18.7V8.2l28.1 13.7zM.5 20.7l.5.2.2.1z"/><path fill="#a47f5e" d="m.5 6.2 31.3 15.3v-2.3l7.3-3.5-.2 18-7.1 4.5v-2.3l-4.6-2.2L1.9 21.2 1 21l-.5-.3zM1 20.9l.8.4-.6-.3zM2.5 8.2l-1-.6v11.7l29.2 14.2V21.9z"/><path fill="#8f6f53" d="M31.8 19.2.2 3.8H0l2.2-1.2L6.6.4l.5-.4 32 15.7zM.2 3.8l2-1.2z"/><path fill="#82654b" d="M0 3.8v-.1"/><path fill="#997658" d="m1.8 21.3 25.5 12.4 4.4 2.1v2.4L0 22.7v-2.3l.5.3.7.3zm25.5 12.4 4.4 2.2z"/><path fill="#e9e8b6" d="M30.7 32.4v1.1L1.5 19.3V7.6l1 .6v10.5z"/><path fill="none" stroke="#000" stroke-linecap="round" stroke-linejoin="round" stroke-width="__RESOLUTION__" d="m1 20.9.8.4 25.5 12.4 4.4 2.2m0 2.3 7.2-4.5.2-18L7.1 0h0M0 20.4l.5.3.5.2m-1 1.8 31.8 15.5M6.6.4l.5-.4m-.5.4L2.3 2.6.1 3.8" vector-effect="non-scaling-stroke"/></g><g id="h"><path fill="#000" fill-opacity=".5" d="m89.7 33.8 2.5 2.2-60.5 29.8L0 63.3v-3.4l.7.4 31.3 2V28L89.7 0z"/><path fill="#515100" d="m52.2 14 .5.3-12.9 6.3-6.4-3.5.5-.1 6 3.1z"/><path fill="#ffc" d="m52.2 14-12.3 6.1-6-3.1-.2-.2 12.6-6.2 6.1 3.4z"/></g><clipPath id="d"><path d="M1 1h93v73H1z"/></clipPath><path id="a" fill="#ff9" fill-opacity=".8" d="m8.6-9.6-.4-1.8 1 1.5h1.4L5.4-7 3-6l-.7-.3-.2-1.5-.6 1 1 1.3-1 .5L1-3.4l4.5-1.8L.5-2l5-1.5Q3.4-1.7.8-.5L-1.9.6l-1.3.5-1.5.3-1.6.4 5-2.5-1.2-.5L-6.4.5l3.6-2.3.2-1.6-1.7 2.1-1 .7q-.7.5-1.5.6-1 .2-1.5-.6l-.8.5 1.9-2.6-.1 1L-5.6-3l.1.6.7-.8v-.7l-2 .8 2.2-2h-.3l.6-1.1-3.6 1.9 5.5-5.2-1 2.1.6-.9-.5 1.5.8 1.3.2-.7.6 1L-2-6l.5-1.5-.7 1 .8-1.2-.2 1.4 1.1.6.2-1.4.3 1-.2-2 1-.2v-.8l-.6-.6-.6.3-.1-.7-1.5 1 1.1-1.6 2.9.6 5.5-1.6-5.2 1.8 4.3-.4.4 2zM5.8-8.2V-9h-1L6-9.6l.6 1.1-.2-1.3L2-9l1.8.3L2.7-7l.9.3.6-1.3zm2.9 1.8h1.4l1 1.8 4.5-.4-4.4-.4-.8-1.6-.9-.3 1-.2.8 1.7 3-.2 1.2.7-.5-1-3.4.1-.3-1.9-1.7.2 2-2 .6 3.5 3-.1.6.8 1.8.3L13.2-4l.8.3.3.8-8 3.2 2.4-3-1.4.7 1-2.6-2.4.9 2.6-1.6.7 2.2 4.4-.3-3.8-.4L9.3-5l-1.8-.6 1.8.2.8 1.7h.7l-.2-1.1zM10-9q.6-.1-.1 0M.2-10.2l.4.6h.9l-.1 2.8.5-2.8-1-.7zM0-3.3v-.3h-.2v.3zm3.7 4 1.5.2Q-1.4 6-9.9 7.3l-4.8 4.4.1-1.1q3.3-1.4 4.4-4.8l.7-1.7v1.4q4.2-.7 7.9-2.4Q-5.4 5-9.4 6.3l.1.9q7.7-1 13-6.5m-14-2.7.2 1.6 1 .3-2 .4zl.8-1.2-.2.6zm10-5.1-.3-.8.5-.2zm-8 3.9.7-.2-.7 1.9zM-4.1-6l-.2.8.5-.4zm.6 2.1-.4-.3Q-4.3-.6-7.7-.6q3.7.3 4.3-3.3M-2-2.5l.5 1 1.3-1.9zm-1.2-2.2 1.6.4-1.4-.4-.5-1.5zM-6.4.5q-.2-.8.1 0m-6.8 2.3 2.3-1.1-2.3 2.5.3.8-.4.6zm-3 8.1-1.2.1 4-5-3.4 4.6q1.3-.4 2.4-1.5l1.4-1.3 1.8-2.3-2.1 3.6 2.7-2.4-3.9 3.9.4-1.6zm2.7-3.4-1.4.8 2.8-3q0 1.6-1.4 2.2" transform="translate(17.55 11.65)"/></defs><g clip-path="url(#d)"><g transform="translate(19.5 62.35)"><use xlink:href="#e" width="39.1" height="38.2" transform="matrix(-1.8273 0 0 1.8273 70.85 -61.35)"/><use xlink:href="#f" width="17.3" height="24.1" transform="translate(-18.45 -35.7)scale(1.8273)"/><use xlink:href="#g" width="35.1" height="23.4" transform="translate(24.5 -32.85)"/><use xlink:href="#g" width="35.1" height="23.4" transform="matrix(.1793 -.4037 .3673 .2599 56.7 -32.85)"/><use xlink:href="#g" width="35.1" height="23.4" transform="matrix(-.1793 -.4037 -.3689 .2564 24.2 -9)"/><use xlink:href="#g" width="35.1" height="23.4" transform="matrix(.4755 .276 -.1291 .5608 -9.65 -25)"/><use xlink:href="#g" width="35.1" height="23.4" transform="matrix(.4969 -.2355 -.0819 -.5697 -10.55 1.8)"/><use xlink:href="#h" width="92.2" height="65.8" transform="translate(-18.5 -54.1)"/></g></g></svg>