<svg xmlns="http://www.w3.org/2000/svg" xmlns:xlink="http://www.w3.org/1999/xlink" width="19" height="47" viewBox="0 0 19 47"><defs><g id="c"><path fill="#ccc" d="m35.9 5.2-.6-.3v-.2l.5.4zm-24 2.3q-2 1.8-3.6 4.2l-.3.5Q3.4 19.4 5 28q1.2 6.1 5.3 10.5l3.8 3.3.3.1-.2.5q4.9 2.8 11 2.6 6.6-.2 11.7-3.7l3.1-2.7.4-.5q2-2 3.3-4.4l.1.1q-1.2 2.4-3.1 4.6l-.5.4-2.9 2.6q-5.2 4-12.2 4.3-9 .3-15.5-5.8l-.5-.5.5-.4.2.1 2.8 2.3L9.8 39q-4.2-4.4-5.4-10.6-1.8-8.8 3.3-16.2V12l.4-.5q1.6-2.3 3.7-4zm2.3 35-.2-.1-.4-.2-.9-.7.9.6.3.3z"/><path fill="#96915c" d="m35.3 4.9.6.3.4.2 1.5 1 2 1.5-.3.7.1.1.4-.1h.1l1.1.2.5.2.4.4-1.3.5q4.9 5.6 5.3 13.2-2.4.4-6.4 1.6-4.9 10.7-20.6 7.3l-.3-.2q-6.2-4.9-7.7-12.8-1.2-6 .8-11.4l-.1-.1q4.1-3.4 9.7-4.5 7.4-1.4 13.8 1.9m3.4 19.7 1 .1zm-6.5-12 .6-.8zm-4.5-2.1.1-.9zm6 2.4-.3.3.2.3zm3.6 6.1.8-.4zm-3-4 .8-.7zM22 10.5l-.2-1zm-4.7 1.7-.4-.8zm-4.8 3.5.8.5zM20.3 30l-.2.1.1.1z"/><path fill="#a09f63" d="M11.9 7.6q-2 5.4-.8 11.4 1.5 7.9 7.7 12.8l.3.2q15.8 3.4 20.7-7.2 4-1.3 6.3-1.7v.3l-.1 3.3q-.5 3.8-2.2 7.2h-.1q-1.4 2.3-3.3 4.4l-.4.4-3.1 2.6q-5.1 3.6-11.6 3.8-6.2.2-11.1-2.6l.2-.5-.3-.1-3.8-3.3Q6.2 34.2 5 28.1q-1.6-8.6 3-15.8l.3-.5q1.6-2.4 3.6-4.2M35.7 35l-.7-.7zm2.3-5.6.9.4z"/><path fill="#999" d="m9.6 39.1.2-.1 2.8 2.5-2.8-2.2z"/><path fill="none" stroke="#3f3d27" stroke-linecap="round" stroke-linejoin="round" stroke-width="__RESOLUTION__" d="m36.3 5.4 1.1-1.7m2.4 21-1.1-.1m2.5-15.8.6-.7m-9 3.7-.5.8m-4.3-3-.2.9m10.4 8.1-.9.4m-2.2-4.6-.7.7M47 15l-1.4.7M29.5.2 29 1.7m19.2 32-1.5-.6M35 34.4l.7.7m3.1-5.2-.8-.4m3.8 11.9 1.2 1.1m-7.8 3.8.7 1.4m-10 .9L26 50m23.5-25h-1.6M1.8 18.7l-1.6-.4m21.7-8.7.2 1m-5.2.9.6.8m-6.4-9 .8 1.3m1.4 11.7-.7-.5M5 11.2l-1.3-1M19.3 0l.3 1.6m-8.5 41-.8 1.4m-.6-1.7-1.1 1.2m9.3 3.8-.5 1.4M1.6 28.1l-1.6.3m4.6 7.4-1.3.8m32-31.7.6.3-.1-.1zm0 0Q28.9 1.7 21.5 3q-5.6 1.1-9.7 4.5h0q-2.1 1.8-3.7 4.1l-.4.5h0q-5 7.5-3.3 16.3Q5.6 34.7 9.8 39l2.8 2.5.9.6.3.3h.3M36 5.3l.4.2 1.5 1 2 1.5m-.3.7.1.1.4-.1h.1l1.1.2.5.2.4.4m-1.3.5q4.9 5.6 5.3 13.2v.3l-.1 3.3q-.5 3.8-2.2 7.2-1.2 2.4-3.1 4.6h0l-.5.4h0l-2.9 2.6q-5.2 4-12.2 4.3-9 .3-15.5-5.8l-.5-.5" vector-effect="non-scaling-stroke"/><path fill="#e2e0d1" d="M29.4 11.5q1.9-1.4 4.6-1.4 2.8 0 4.7 1.4t2 3.4-2 3.5q-1.9 1.4-4.7 1.4-2.7 0-4.6-1.4-2-1.4-2-3.4t2-3.5"/></g><g id="b"><path fill="#aca57d" d="M5.1 1.8 9.2 0l7.1 3.6.2.4-7.1 3.1h-.1l-3.6-.3-1.8-1 4.9-1.5z"/><path fill="#756b4d" d="m5.1 1.8 3.7 2.5-4.9 1.5L.4 4.1l.4-.5z"/><path fill="#686242" d="m3.9 5.9 1.8.9.8.4 1.1 1.7h.2v2.2l-1.5-.7-1-.5-1.1-.5-.5-.2-2.6-1.3-.3-.2-.8-.4V4.8L.4 4z"/><path fill="#e2e0d1" d="m5.7 6.8 3.6.4H9L7.8 9h-.2L6.5 7.2z"/><path fill="#91885b" d="M9.3 7.2V7l7.2-3 .4 1v2.2l-.4.1-.6.3-1 .5-.3.1-1.1.4-.6.3-1.5.6-1 .5-.1-1.7.1 1.7-.8.3-1.2.5-.7.2V9L9 7.2z"/><path fill="none" stroke="#3e3828" stroke-linecap="round" stroke-linejoin="round" stroke-width="__RESOLUTION__" d="m16.5 4-.2-.4L9.2 0 5.1 1.8.8 3.6l-.4.5-.4.7v2.5l.8.4m15.7-3.6.4 1v2.2m-.4.1-.6.3m-1 .5-.3.1m-1.1.4-.6.3m-1.5.6-1 .5-.8.3m-1.2.5-.7.2-1.4-.7m-1-.5-1.1-.5m-.5-.2L1.1 7.9m9.3 2.2-.1-1.7" vector-effect="non-scaling-stroke"/></g><clipPath id="a"><path d="M1 1h17v45H1z"/></clipPath></defs><g clip-path="url(#a)"><g transform="translate(8.8 40)"><use xlink:href="#b" width="16.9" height="11.2" transform="translate(-7.8 -5.3)"/><use xlink:href="#c" width="49.5" height="50" transform="translate(-4.95 -10.1)scale(.2043)"/><use xlink:href="#c" width="49.5" height="50" transform="translate(-3.95 -17.65)scale(.2043)"/><use xlink:href="#c" width="49.5" height="50" transform="translate(-5.35 -25.35)scale(.2043)"/><use xlink:href="#c" width="49.5" height="50" transform="translate(-4.5 -32.45)scale(.2043)"/><use xlink:href="#c" width="49.5" height="50" transform="translate(-5.55 -39)scale(.2043)"/></g></g></svg>