<svg xmlns="http://www.w3.org/2000/svg" xmlns:xlink="http://www.w3.org/1999/xlink" width="111" height="155" viewBox="0 0 111 155"><defs><linearGradient id="h" x1="-819.2" x2="819.2" gradientTransform="matrix(-.02 -.01 .5 -.86 -54.4 155.4)" gradientUnits="userSpaceOnUse" spreadMethod="pad"><stop offset="0" stop-color="#4e4425" stop-opacity="1"/><stop offset="0" stop-color="#62522f" stop-opacity="1"/><stop offset="1" stop-color="#a07952" stop-opacity="1"/></linearGradient><linearGradient id="g" x1="-819.2" x2="819.2" gradientTransform="matrix(.01 0 0 0 98.55 -35.9)" gradientUnits="userSpaceOnUse" spreadMethod="pad"><stop offset="0" stop-color="#4e4425" stop-opacity="1"/><stop offset="1" stop-color="#836842" stop-opacity="1"/></linearGradient><linearGradient id="f" x1="-819.2" x2="819.2" gradientTransform="matrix(.02 0 0 .05 45 7.55)" gradientUnits="userSpaceOnUse" spreadMethod="pad"><stop offset="0" stop-color="#4e4425" stop-opacity="1"/><stop offset="1" stop-color="#836842" stop-opacity="1"/></linearGradient><linearGradient id="e" x1="-819.2" x2="819.2" gradientTransform="matrix(0 0 .79 -.6 -159.35 179.95)" gradientUnits="userSpaceOnUse" spreadMethod="pad"><stop offset="0" stop-color="#58412c" stop-opacity="1"/><stop offset="0" stop-color="#7c5e3f" stop-opacity="1"/><stop offset="1" stop-color="#d0b895" stop-opacity="1"/></linearGradient><linearGradient id="d" x1="-819.2" x2="819.2" gradientTransform="matrix(0 .01 -.96 .26 272.05 -27.15)" gradientUnits="userSpaceOnUse" spreadMethod="pad"><stop offset=".5" stop-color="#6d5436" stop-opacity="1"/><stop offset="1" stop-color="#a88768" stop-opacity="1"/></linearGradient><linearGradient id="c" x1="-819.2" x2="819.2" gradientTransform="matrix(0 .01 -.96 .26 272.05 -27.15)" gradientUnits="userSpaceOnUse" spreadMethod="pad"><stop offset=".1" stop-color="#6d5436" stop-opacity="1"/><stop offset="1" stop-color="#a88768" stop-opacity="1"/></linearGradient><linearGradient id="b" x1="-819.2" x2="819.2" gradientTransform="matrix(0 .02 -.99 0 305.25 40.25)" gradientUnits="userSpaceOnUse" spreadMethod="pad"><stop offset="0" stop-color="#62522f" stop-opacity="1"/><stop offset="0" stop-color="#74573a" stop-opacity="1"/><stop offset=".7" stop-color="#a58565" stop-opacity="1"/><stop offset=".9" stop-color="#a58565" stop-opacity="1"/></linearGradient><linearGradient id="a" x1="-819.2" x2="819.2" gradientTransform="matrix(.04 .05 -.76 .64 220.1 -126.7)" gradientUnits="userSpaceOnUse" spreadMethod="pad"><stop offset="0" stop-color="#4e4425" stop-opacity="1"/><stop offset="0" stop-color="#62522f" stop-opacity="1"/><stop offset="1" stop-color="#a07952" stop-opacity="1"/></linearGradient><linearGradient id="r" x1="-819.2" x2="819.2" gradientTransform="matrix(.03 0 0 .02 41.6 38.85)" gradientUnits="userSpaceOnUse" spreadMethod="pad"><stop offset="0" stop-color="#d8c4a7" stop-opacity="0"/><stop offset="1" stop-color="#524025" stop-opacity=".7"/></linearGradient><g id="q"><path fill="#e8e4c6" fill-opacity=".7" d="M16.3 115.9Q8 113.8 6 110.5q.1-1.5 2.8-.8H9q1.4-.2 1.3-1.2l-.2-.8v-.2q-.1-.8.8-.8l.9.2 1-.6.6-.3 2.7-2.3-4.8.6h-.6l-4.8.4-3.1-.3q-1-.2-1.6-.8-1.2-1.1-.8-3.8l4-4.4q2.5-2.4 5-4.2 6-4.5 9.8-5.6l.3-.2q1.3-.9 1.5-2.9l-1.4-7q.3-3.7 1.1-5.1-2-1.2-3-2.9-.7-1.3-.7-2.9 3.4-1.9 5.4-5.2 1.2-2.6 3.1-3.6l-.7-.6-5 5-.7.1q.8-1.7.9-4.8l.5-6.1-.9-1.1q-.8-1-1.1-1.8-.7-2-.5-3.5v-.1l.2-.6.8-3.3q.5-1.9 2.5-3.9l.7-.4 3-1.7q2.7-1.4 4.6-1.5h.4l3.8.9q3 .9 4.5 2.4l.9.9Q42 39 41.9 41l5.4-3.5q.8 0 0 1L43.2 43l-1 1-.1.3-.7 1.4v.1l-.7.9-.5.4.1 1.1-.2 1.2 1.1-.5q3.6-2.5 7.6-4l8.1-9.6 8-13.5q1-2.3 1.5-2h5V18l1.3-.3 1.8-.6 4-1.5q2.9-1.3 5-2.7l7.8-8.7 6.4-4-7 9 3.6-2.1 3-1.7 7.5-4.9q-2 3.3-3.6 6.7-1.8 3.5-3 7.2l-1 2.6-1.2 2.1-2 3q-6.6 8.7-15.7 9h-.7l-.7.8q10.8-1 18.4-3.6l-2 3.4q-5.1 6.2-11 10l-2.9 1.6 1 1.3q3.8 5.1 9.4 8.1l-2 .3q-5 .4-10.5-2l-2-1-3.2-1.2-.4-.1-5.5-1.1 1.1 2.3 1.3 1q1.7 2.9.7 5.6l-.7 1.4q-7.4 2.6-14 1.5V61l-2.2.6q-3 .8-5.9.1-1.3-.2-2.5-.7l-1.7 1.3q-.2 3.2.1 6.2.8 7 4.5 12.4l-5-3.2 2.1 5-1.5.2q-2.8-.2-4.8-3.7-.2 2.2 0 4.5l3.2 2.6q-.1.5.1.8 2.8 3.5 3.5 6l4.2-1.3 2.5 3.5 3.2 1.7-2.1 2.1-4.9 2.4v.1L39 112.5l-5.6 4.3q-3 2.4-6.9 0l-.7-2.6zl1.8-1.3q1.8-3.1 5.3-1.5 3.3 1.7 2.3.7 1 1-2.3-.7-3.5-1.6-5.2 1.5zm1.4-13.6-.2.3 1-1zm-2.7 1 .7-.2h-.1z"/><path fill="none" stroke="#78553d" stroke-linecap="round" stroke-linejoin="round" stroke-width="__RESOLUTION__" d="m25.8 114.2.7 2.6q3.9 2.4 7 0l5.5-4.3 8.4-10.8v-.1l4.9-2.4 2.1-2.1-3.2-1.7-2.5-3.5-4.2 1.3q-.7-2.5-3.5-6-.2-.3 0-.8l-3.4-2.6.1-4.5q2 3.5 4.8 3.7l1.5-.2-2.1-5 5 3.2q-3.7-5.4-4.5-12.4-.4-3-.1-6.2L44 61q1.1.5 2.4.8 2.9.6 6-.1l2.1-.7v-1.6q6.6 1.1 14-1.5l.7-1.4q1-2.7-.7-5.6l-1.2-1-1.2-2.3 5.5 1 .4.1 3.3 1.3 1.9 1q5.5 2.4 10.5 2l2-.3q-5.6-3-9.4-8.1l-1-1.3 2.8-1.6q6-3.8 11-10l2.1-3.3v-.1Q87.9 31 77 32l.7-.9h.6q9.2-.2 15.9-9l1.9-2.9 1.3-2 .9-2.7q1.2-3.7 3-7.2 1.5-3.4 3.5-6.7l-7.5 4.9-2.9 1.7-3.6 2 7-9-6.4 4-7.9 8.8q-2 1.4-5 2.7l-3.9 1.6-1.7.5-1.4.3v1.6h-5q-.6-.2-1.5 2l-8 13.6-8.1 9.6q-4 1.5-7.5 4l-1.2.5.3-1.1-.2-1.2.4-.5.8-.8v-.1l.7-1.5.1-.2 1-1 4.1-4.5q.8-1 0-.9L42 41.1q.1-2.1-2.6-5.5l-.9-.8Q37 33.3 34 32.4l-3.7-.8-.4-.1q-2 .1-4.7 1.5-1.4.6-3 1.7l-.7.4q-2 2-2.5 3.9l-.8 3.3-.2.6h0q-.2 1.6.5 3.6.3.8 1.1 1.8l1 1-.6 6.2q-.1 3.1-.9 4.8h.8l4.9-5.1.7.6q-1.9 1-3.1 3.6-2 3.3-5.4 5.2 0 1.6.8 2.9.8 1.7 2.9 2.9-.9 1.4-1 5.1l1.3 7q-.2 2-1.5 2.9l-.3.2q-3.9 1.1-9.8 5.7-2.5 1.8-5 4.1l-4 4.4q-.4 2.7.8 3.8.6.6 1.6.8l3.1.3 4.8-.4h.6l4.8-.6-2.7 2.3-.6.3-1 .6-1-.2q-.8 0-.7.8v.2l.3.8q0 1-1.4 1.2h0q-2.8-.7-2.9.8 2 3.3 10.3 5.3l1.8-1.3q1.8-3.1 5.3-1.5 3.3 1.7 2.3.7M67.3 50l4.8-1.1" vector-effect="non-scaling-stroke"/><path fill="#d0b895" d="m39.8 49.6 1.5-.7q3.6-2.5 7.5-4l8.1-9.6 8-13.5q1-2.3 1.5-2h5V18q4-1.1 7-2.4t5-2.7l8-8.7 6.3-4-5.8 4.9-5.6 6.3 3.3-1.6h2q-3.9 3-7.2 6.5-.5.4-3 .4-2.2.3-7.1 2.7.8 4.1-2.2 6.1L58 46.2h-.8L48.9 51l-9.3.8 1.1-.5.3-.1q-.1-.3-1.2-.5zM94.4 7.3l2.8-1.7 7.5-4.9L96 7.3zM77 32q10.8-1 18.4-3.6-3.4 2.8-10.2 4.9H76zM44.5 93l4.1-1.2 1.3 1.8-5.5 2.2zm-18.7 21-.1-.5-.4-1.9-.4-3.8-.1-2.4.1-1.8v-.1l.2-1 .3-1.5.4-1.2q.2-.8.6-1.5l.8-1.8v.1l.3-.7.9-1.3 1.6-2 1-1 .4-.3q-3.2 4.5-4.1 9.6l-.2 1.5q-.2 2.1.8 5.5-.7 1.4-2.1 6.1m-9.5 1.6q-8.3-2-10.3-5.3.1-1.5 2.8-.8H9q3.5 2.5 9.1 4.2h-.8q-.8.1-.9 2m-6-7.4q-1-2.5 1.4-1.6 3.3 2.5 10.5 4.8l-.7-.2-1.9-.2-.4.1-.5.3-.3 1.3q-2-1.5-3.2-2.1zM6 104.5l-3.1-.3q-3-.6-2.4-4.6l4-4.4q2.5-2.4 5-4.2 6-4.5 9.8-5.6 1.9 1 3 3.9-5.6 1.2-9 3.7t-7.5 6.3q-3.1 2.5.2 5.2m13.6-19.3q1.3-.9 1.5-2.9l-1.4-7q.3-3.7 1.1-5.1.5 4 4 5.4v.1q-1.3-.3-2.2.6-.6.7-1.1 2 .3 3.8.7 3.1 1.7 6.3 1 7.2-1.9-3.2-3.6-3.4m-2.5-20.8q3.4-2 5.4-5.2 3.1 2.1 2.7 3.1-.4 1.1-2.4 1.8zm5.5-9.2q.3-1.1.1-2.1l-.1-.6q.7-.4 1 .6l.2.8-.6 1.4zm3.5-2.9h1.4v1.9q-.3 2.9 1.6 6 1.5-1.4 0 5.1l-.2-.9-.4-1-.1-.2V63l-.9-2q-1.1-2.6-1.3-4.5v-2l-.1-1.4zm2.3 10.9.1.1.3 1.1.3.9v.5l-.2-1.4q-3.7.6-2.9 6.8l-.7-3q.1-3.6 3-5.3zm43.2-43.6-4.3 1q-6 9.7-9.9 19L51.6 45q-3.4 3.8-8.7 5.6l2.8-.6h1.2l7.2-3.5 8.8-11.1q5.3-6.6 8.5-15.6M41 51.2l1.9-.6zm45.3-39.7L83.4 13z"/><path fill="#826841" d="m97.7.3-7 9-1.1.6-3.3 1.6 5.6-6.3zM19.1 85.7l.3-.2q1.7.1 3.6 3.4-.5.6-.5 1.7l-.1.3-.2-1.3.2 1.3-.1.6-.2-2q-1.1-2.9-3-3.8"/><path fill="#927654" d="m90.7 9.3 3.6-2.1H96l8.8-6.6q-2 3.3-3.5 6.7-11.9 7.4-15.6 12.3 3.8 1.9 10.4-.4l-2 3q-6.6 8.7-15.7 9h-.7l-.7.8-.9 1.3-1 1.2q1 3.9 3.2 7.1-10.3-3.2-7.5 1.9l4.6 6.6-3.2-1.2-5.9-1.2 1.1 2.3q-14 2.6-5.1 6.3l7 .4-.6 1.3q-7.4 2.6-14 1.5V61l-2.2.6q-3 .8-5.9.1l6.7-4.2 9.1-8.9 5.3-8.2q3.2-2.2 5.8-2.3h-5.7q-2.1 1.8-3.3 4.2t-2.8 4.1L60.1 48l-7.5 7.1-8.6 6-1.7 1.3-.4.6-2 5-.2.6q-1.7 5.2-2 10.7-.2 2.2 0 4.5l3.2 2.6q-.1.5.1.8 2.8 3.5 3.5 6v2.7l-1.6 2-4.5 4-.2-.1 1.4-2.5q1.8-3-.3-4.3t-.8-7q-2.9 1-4.9 2.1l-2.2 1.4-.4.3-1.5.6 1.3-1.1q3.2-3 6.3-4.2-3.4-.6-4.2-3.1-.8-2 2.8-4.8-3.7-.7-5-2-1.9-1.7-2-3.3 4.5-.2 5.5-2.6 1.4-1 2.3-2.7l.8-1.7 5.6-7.2 6.7-6.2-6.7 4.3-4.1 2.7 1.4-1.5 1.2-1.5q2.1-2 4.1-3-2.2-1.9-8.9-2v-.2l3-.5 9.3-.7 8.4-4.9h.8l14-20.6q3-2 2.2-6.1 4.9-2.4 7.1-2.7 2.5 0 3-.4 3.3-3.5 7.3-6.5h-2.1zM8.8 109.8l1.4-1.2q.1 1-1.3 1.2m16.4-53.5-.7-.7H23l.6-1.4-.2-.8q-.3-1-1-.6l-.1-.2h2.3l1.3.5v1.8l.1 2zm11.3-3.7v-.2l-.9.1zm50.6-28.8H79l-7.4 5.5-.5 1.5q-1.4 2.2-1.9 4.5.5-2.3 1.9-4.5 7.3-5.5 14.4-6.7l.9-.2zm-18.7 13 3.6.6-2.9-2.1zm-41.4 60q2-8.5 2-13.7l-1-5 2.7 3.5q.8 5.9-1.2 10.2l-2.2 4.5zl.3-.6-.4.8zm-4.7-5.5v-.7q.9 1.8 1.5 4l.6 1-.6-1q1-7.8.5-17.7 2.3 8.3.6 19.7l1.3 2q-.4.7-.6 1.5l-2-4-.2-.5-.1-.5-.2-1q-.8-2.4-.8-2.8"/><path fill="#ab9172" d="M101.2 7.3q-2.4 4.7-4 9.8L96 19.3q-6.6 2.3-10.4.4 3.7-4.9 15.6-12.3m-21.8 36 1 1.3q3.8 5.1 9.4 8.1-6 1.2-12.5-1.7l-2-1-4.5-6.6q-2.9-5.1 7.4-1.9l.6 1zm-12 6.6 1.2 1q1.7 2.9.7 5.6l-7.1-.3q-8.9-3.7 5.1-6.3m19.2-26.3.8-.1v.1zM69.3 35.1l2.9 2.1-3.6-.6z"/><path fill="url(#a)" d="m114.7-34.5-2.1 3.3q-5.1 6.2-11 10l-2.8 1.6-.6-.8-.7-1q-2.2-3.2-3.1-7.2l1-1.1h9q6.8-2.1 10.3-4.8M65.8-1.1 63.5-2l8.6-6 7.5-7.1 1.5-1.5q1.6-1.7 2.8-4.1t3.3-4.2h5.7q-2.7 0-5.9 2.3l-5.2 8.3-9.1 8.8zm-3 17-1.7-1.1.5 1.1-2-.6q.4 2.3 2.1 4.6-2.7-.1-4.7-3.6.3-5.6 2-10.7l.1-.5.1.5Q60.6 11 63 15.9M40 7.4q-3.6-2.2-3.8-5.8l5.8-.4q2-.6 2.4-1.6.4-1.1-2.7-3.2 1.1-2.6 3-3.2l.7.5q.1 2 1.3 4.5l.8 2q-2.9 1.6-3 5.1l.6 3q-.7-6.1 2.9-6.7l.2 1.4v-.5q1.6-6.5 0-5.1-1.8-3.1-1.6-6v-1.9h3.7v-1.2h4.8l-.4 1.5-2.8 2.4q-1.2.5-1.3 1.6l-2.4 3.6 2.4-3.5q.1-1.2 1.3-1.7l2.8-2.4.4-.4h.9q6.6.2 8.8 2-2 1.1-4 3.1L59.6-4 58-2.4 56.3-1l-2 1.4-.4-1.8q-1 1.5-.5 3.9 1.2 1.8 0 4-1.2 2.8-5.3 3.3 3.4 0 5.5-1.5-1 2.3-5.5 2.6.1 1.6 2 3.4 1.4 1.3 5 1.8-3.5 2.8-2.8 4.9.9 2.4 4.3 3-3.1 1.3-6.4 4.3L49 29.4l1.5-.6-1 1-1.6 2-.9 1.3 2.1-4.5q2-4.3 1.3-10.2l-2.7-3.5 1 5q-.1 5.2-2 13.8l-.9 1.8-1.2-2q1.6-11.4-.6-19.7.5 9.8-.5 17.8l.6 1-.6-1q-.7-2.3-1.5-4.1l-.1.3v.4-.7q.1-1.1.6-1.7.6-1-1-7.2-.4.6-.7-3.2.4-1.2 1-1.8 1-1 2.3-.7-3.5-1.5-4-5.5m4-17.9h1.2v.5zm18.2 5.3L69-9.5l-6.6 6.3-5.6 7v-2l1.3-2 .3-.4L59.5-2zM54-7.5l-2-.2 4.1-2.9L52-7.8zm-3 3.4q-.5-1.2-.4-2-.1.8.4 2m11.3-8.3q5.3-1.8 8.7-5.6l5.6-5.1q3.9-9.4 9.9-19.1l4.3-1q-3.2 9-8.5 15.6l-8.8 11-7.3 3.7-.4-.1H65zm42.6-27v.3q-7 1.3-14.4 6.8L91-34l7.4-5.5z" transform="translate(-19.35 63)"/><path fill="#a3865d" d="m72 48.9-4.7 1-1.1-2.2zM42.3 62.5q-.2 3.2.1 6.2.8 7 4.5 12.4L43.6 79q-2.5-5-3.6-10.3l-.1-.5q.9-2.6 2-5zm0 16.5 1.8 3.9-1.6.2q-1.7-2.3-2.1-4.7zM23 55.5h-.8v-.1zm12.7-4.2h1.2l-.1.3-1 .8-.4.4zm3.1 9.2 4-2.7-2.6 3.2-1.3 1.5-.2.4-.4-.2-1 2v2.1l-.7 1.8q-1 1.7-2.4 2.7-2.2 1.5-5.6 1.5 4.1-.5 5.4-3.2 1.1-2.2-.1-4.1-.4-2.5.5-3.9l.5 1.8 2-1.4z"/><path fill="url(#b)" d="m69.4 30.7 1.2 1.7-1.1 1.5-.2.5q-.5 1.6-1.8 2l-7.7 5.8-7 11.5q-3.1 2.4-6.9.1l-.7-2.6q1.3-4.7 2.1-6.1-1-3.4-.8-5.5l.1-1.5q1-5.1 4.2-9.6l2.2-1.4q2-1.2 4.9-2.1-1.4 5.6.8 7 2 1.3.3 4.3l-1.5 2.5-.5.8.8-.6 4.5-4.1 1.6-2z" transform="translate(-19.35 63)"/><path fill="url(#c)" d="m70.6 32.4 3.2 1.7-2.1 2.1-4.9 2.4v.1l-8.4 10.8-5.6 4.3 7-11.6 7.7-5.8q1.3-.4 1.8-2l.2-.5zM45.1 50.7q-.7.3-2.6-1.1-2.2-.7-4.3.8l-.7 1-1.9 1.5q.1-1.9 1-2h.8l.4-1 .3-1.1.5-.4.4-.1 1.9.2.6.1.3.1h.1l1 .3h.1l1.6-.1zm-12.9-7.4.5-.3 4.5-3.8 1.2-.4-1.1.4 6-6.2 2 4-.5 1.3-.2 1.4q-2.4 2.4-3 2.3-5 2-9.4 1.4" transform="translate(-19.35 63)"/><path fill="#c09d74" d="m11.7 106.9 1-.6q4.5.7 9.4-1.3.6.1 3-2.3l-.2 1v.1l-.1 1.8v2.4l.5 3.8-1.6.3h-.1l-1-.3-.2-.1h-.2q-7.2-2.2-10.5-4.8m6.7 6-.4 1q-5.6-1.7-9.1-4.2 1.4-.2 1.3-1.2l5 2.4q1.2.6 3.2 2"/><path fill="url(#d)" d="m34.4 40.3-3.8 1Q37.2 37 42.9 32v.5l.3.5-6 6.1z" transform="translate(-19.35 63)"/><path fill="url(#e)" d="m30.6 41.3-5.5.4Q22 39 25 36.4q4.1-3.7 7.6-6.3 3.4-2.6 9-3.7l.1 1.9.1-.6.1.4q0 .4.8 2.8l.3 1q-5.6 5-12.3 9.3" transform="translate(-19.35 63)"/><path fill="#68522f" d="m40.7 48-1 1v-2.8h1l.1.4z"/><path fill="url(#f)" d="M47.5.2v.2z" transform="translate(-19.35 63)"/><path fill="#a5895f" d="m38.2 101.8.2.2-.7.5zm-.8-37 1-2.1.4.1z"/><path fill="url(#g)" d="M104.9-39.4h1.7l-.7.1-1 .1z" transform="translate(-19.35 63)"/><path fill="none" stroke="#000" stroke-linecap="round" stroke-linejoin="round" stroke-opacity=".5" stroke-width="__RESOLUTION__" d="m39.8 49.6 1.5-.7q3.6-2.5 7.5-4l8.1-9.6 8-13.5q1-2.3 1.5-2m5 0V18q4-1.1 7-2.4t5-2.7l2.9-1.5 3.3-1.6 1.1-.7 7-9-6.4 4m-.6 5 3.6-2 3-1.7 7.5-4.9q-2 3.3-3.6 6.7-2.4 4.7-4 9.8L96 19.3l-2 3q-6.6 8.7-15.7 9h-.7l-.7.8q10.8-1 18.4-3.6h0l-2 3.4q-5.1 6.2-11 10l-2.9 1.6 1 1.3q3.8 5.1 9.4 8.1-6 1.2-12.5-1.7l-2-1-3.2-1.2-4.7 1 1.2 1q1.7 3 .7 5.8l-.7 1.3q-7.4 2.6-14 1.5V61l-2.2.6q-3 .8-5.9.1-1.3-.2-2.5-.7l-1.7 1.3q-.2 3.2.1 6.2.8 7 4.5 12.4l-3.3-2.1-1.7-1.1.5 1.1 1.6 3.9-1.5.2q-2.8-.2-4.8-3.7-.2 2.2 0 4.5l3.2 2.6q-.1.5.1.8 2.8 3.5 3.5 6l4.2-1.3 1.3 1.8 1.2 1.7 3.2 1.7-2.1 2.1-4.9 2.4v.1L39 112.5l-5.6 4.3q-3 2.4-6.9 0l-.7-2.6-.1-.5q-.7.3-2.6-1.1-2.2-.7-4.2.8l-.7 1-1.9 1.4q-8.3-2-10.3-5.3.1-1.5 2.8-.8H9q1.4-.2 1.3-1.2-1-2.5 1.5-1.6l1-.6.6-.3 4.5-3.8-1.1.5-1 .3-.7.3-3.8 1-5.4.4-3.1-.3q-3-.6-2.4-4.6l4-4.4q2.5-2.4 5-4.2 6-4.5 9.8-5.6l.3-.2q1.3-.9 1.5-2.9l-1.4-7q.3-3.7 1.1-5.1-3.6-2.2-3.7-5.8 3.4-2 5.4-5.2 1.2-2.6 3-3.2m-.7-.7h-2.3v-.1q.4-1.1.2-2.1l-.1-.6-.1-.2M37 51.3l-.1.3-.1.6v.3l-4.2 2.8q-1.1.5-1.2 1.6L29 60.4m10.7-8.6 1.1-.5.3-.1q-.1-.3-1.2-.5m0-1.7.9-1M26 53v-.5m.1 4.3v-2l-.1-1.5V53m.1 3.8q.2 1.9 1.3 4.4l.8 2 .1.2.1.1.3 1.1.3.9h0m9.5 36.5 4.5-4.1 1.6-2v-2.7m-12-38 2.2.3m4.2 7 1.3-1.5m-9-4.1q-.1.8.4 2M44 61l8.6-6 7.5-7.1 1.5-1.5q1.6-1.7 2.8-4.1t3.3-4.2m3.7-18.5q-3.2 9-8.5 15.7l-8.8 11-7.2 3.6h-1.2l-2.8.6-1.9.6m35-18-1 1.3q1 3.9 3.2 7.1l.6 1 .6.8m-8.2-12.7q-1.4 2.1-1.9 4.4l-.7 1.5m2.6-6 .5-1.5m5.2 3-.9 1.1M72 49l-5.8-1.2 1.1 2.3M40 68l-.2.6q-1.7 5.2-2 10.7m-.4-14.5 1.4-2m-16.4 28-.2-1.2m3.6 10.5q.2-.8.6-1.5l.8-1.8.3-.6m-1.7 3.9-.4 1.3-.3 1.4-.2 1v.1l-.1 1.8v2.4l.5 3.8.4 1.9m12-11.2.7-.5m9.8-2.7q1.2-.3 1.8-2l.1-.5m-7.9-34.4-.3.6-2 5m-22.1 34.2-2.8 1m8.8-7.2-6 6.2" vector-effect="non-scaling-stroke"/><path fill="none" stroke="#000" stroke-linecap="round" stroke-linejoin="round" stroke-opacity=".5" stroke-width="__RESOLUTION__" d="M66.4 19.8h5m12-6.8 8-8.7m-54.8 48 3-.5m-7 3.5 2.8-2.5.4-.4.9-.1m6.2 5.5 6.7-4.3m-10.9 9.4.2-.4m1.3-1.5 2.6-3.2m44.5-34.2H79l-7.4 5.5" vector-effect="non-scaling-stroke"/><path fill="#d0b895" d="M21.4 39.1q-1.4.6-2.3 2.3l-.6 1.8q-.4 1.8 1 5-.8-.9-1.1-1.7-.9-2.4-.3-4.2l.8-3.3q.5-1.9 2.5-3.9 5.1-3.4 8.4-3.6h.3l3.8.9q3 .9 4.5 2.4l-1.9-.6-1.1-.4-2.9-.1-2.4.8-2.4 2-1 .8-.8.9-.9 1.3q-.2.6 0 1.2.4 1.2 1.5 2.5l.3.3.2.2-.3 9.8q-.3 2.8 1.4 6l.6 6-.7.6q-2-4.9-2.6-10.3v-3.4l-.1-.4v-1.2l.1-2.2.3-3.7q-1.5-.9-3.4-3.4-1.6.6-2.6 3.1 0 2 .6 4l.1.8.3.6.3.3-.4-.3-.2-.6-.5 6q-.1 3.2-.9 4.9h.8q.7-1.7.9-4.8l.3-5.2 1.8-.2.6-3.6q.1-3-1.1-5l-.8-1.8zq-.1-.8.1-1.8L23 35l-1.5 2.3q-.2 1-.1 1.8m2.5 15.1q-.2.6-.6.1.4-1.2 0-2.5.8 1.1.6 2.2z"/><path fill="#a3865d" d="M19.5 48.3q-1.4-3.3-1-5.1l.6-1.8q1-1.6 2.3-2.3l.1.6.8 1.8q-1.6.6-2.6 3.1 0 2 .6 4l.1.8zm13-14.6 2.9.1 1.1.4 2 .6.8.9Q42 39 41.9 41l5.4-3.5q.8 0 0 1l-7.7 4.3 1.8-1.4q-.5-2-3.2-5.6-2.6-1.7-5.7-2.2m9.4 7.4-.5.4z"/><path fill="#927654" d="m21 50.3 1.8-.2.6-3.6q.1-3-1.1-5 1.9 2.5 3.3 3.4l-.2 3.7q-1.6.6-2.1 1.4l2 .8v3l.1 2-.7-.6-5 5q.8-1.6 1-4.7zl1.3 1zm7.7 15.2-.6-6q-1.7-3.2-1.4-6l.3-9.8-.2-.2-.3-.3q-1.1-1.3-1.6-2.5-.1-.6.1-1.2l.9-1.4.9-.8.9-.8 2.4-2 2.4-.8q3.1.5 5.6 2.2 2.8 3.6 3.3 5.6l-1.9 1.4-1.6 1.5-.5-2.6q1.1-2.1.9-3.2-.3-1-2.1-2.6-2-1.2-4.5-.9-3.4 2.4-3.6 5.2 2.3 13 1.7 24.4-.3 1.2-1.1 1.4zm18.6-27L43.2 43l-1 1-.1.3-.7 1.4v.1l-.8.9-.1 1.4v.3q-.9 1.1.1 2.8l-.7.4q-.5.4-.7.1L38 52l.3-2v-.6l1.6-1.8.3-1.4q-.4-.7.1-1.9l.1-.2.1-.1.3-.4 1.5-1.5-2 1.5-.9.6-1.6 2-.1.2-.1 1.3h.5q.5.3-.6 1.3l-1.2.1.7-3.9.9-.7 1.6-1.5zM35.1 54.7q-.7 2.1-1.5 3.8-1.1-4.1 0-9l.6.2q-.5 2.2-.2 4.1.1-2 1.1-3.7l1 .3zm-3.6 7.9q-.2.9-.2 2.2-1-8 .4-14.8 1.5-6.7 0 2.6-.6 3.7-.2 10m-7.6-8.3.8 1zV54q.3-1.1-.6-2.2.4 1.3 0 2.5.3.5.6-.1m16.6-6-2.2 1.7zm-15.8 7 .7.6z"/><path fill="url(#h)" d="m44.8-14.4-.1 2.2-2-.7q.4-.9 2-1.5M53-4.6l-.6 1-1.5 3q-.4-6.2.1-9.9 1.5-9.4.1-2.6-1.5 6.8-.5 14.8h-1.5q.7-11.5-1.6-24.4.1-2.7 3.5-5.2 2.5-.4 4.5.8 1.9 1.7 2.1 2.7t-.8 3.1l.4 2.7-.9.8-.6 3.8-.2 1.3-1-.4q-1 1.8-1.1 3.9-.3-2 .1-4.2l-.6-.2q-1 4.9 0 9" transform="translate(-19.35 63)"/><path fill="#68522f" d="m38 51.9-2.9 2.7 1-4.4.2-1.2 1.2-.1q1.1-1 .6-1.3h-.5v-1.3l.2-.2 1.6-2 .9-.6 2-1.5-1.5 1.5-.3.4-.1.1-.1.2q-.5 1.1-.1 2l-.4 1.3-1.4 1.8-.1.6-2.2.4 2.2-.4z"/><path fill="none" stroke="#000" stroke-linecap="round" stroke-linejoin="round" stroke-opacity=".5" stroke-width="__RESOLUTION__" d="M21.4 39.1q-.1-.8.1-1.8L23 35m15.4-.2Q37 33.3 34 32.4l-3.7-.8-.4-.1q-3.3.3-8.4 3.6-2 2-2.5 3.9l-.8 3.3q-.6 1.8.3 4.2.3.8 1.1 1.8l1 1-.2-.6q-.6-2.1-.6-4 1-2.6 2.6-3.2l-.8-1.8-.1-.6m-1 10.3.3.6.3.3 1.3 1m0-9.8q1.9 2.5 3.3 3.4l-.2 3.7v3.2l-.1.3v1.7l.1 2-.7-.6-5 5-.7.1q.8-1.7.9-4.8l.5-6.1m18-14.6.9.9Q42 39 41.9 41l5.4-3.5q.8 0 0 1L43.2 43l-1 1-.1.3-.7 1.4v.1l-.8.9m-.2 1.6q-.8 1.2.3 2.9M35 54.6q-.7 2.1-1.5 3.8l-.6 1-1.5 3m-6.8-7.2-.8-1m17.5-12.7.5-.4M36.3 49l-.2 1.3 2.2-.4 2.2-1.7m-1-5.3L38 44.4l-.9.8-.7 3.8m-.2 1.3-1 4.3m4.4-11.7 1.9-1.4" vector-effect="non-scaling-stroke"/><path fill="#5c8d34" fill-opacity=".2" d="M24.8 33.6h3.6q.4 3.8-5.1 3.9zM22.2 108l-5.9-1.5V105h5.9z"/><path fill="#857e36" fill-opacity=".2" d="m75.4 49.3 2.8-7.6Q79.7 47 87.8 53zm22.2-33.2L95 20.2H84.1zm-58.7 89q-3.2 3.3 0 6.2-4.5 3.8-7.3 0zM15.2 89.9l-1.9 3.3q-7.1 3.8-6.4 0l3.7-3.3q1.4.3 4.5 0"/><path fill="none" stroke="#fff" stroke-linecap="round" stroke-linejoin="round" stroke-opacity=".2" stroke-width="__RESOLUTION__" d="m34.9 55.5.1-.7m32.4-5.5-1.7-.1q-4-.6-5.3-1.9l-2-1.7-4 .2m-5.3-1.5h2.8l.9 2.3M40.2 67.4l-2.6-3.3q-3.9-3.5-2.7-8.6m-8.2 30.3H26l-.2-.3q-.1-.3.2-.8h-1.2m12.5-3.2Q36 82.7 33 82.8l-1.6 1.7q-3.5 1.3-4.7 1.3m10.7-4.3.5-.5M26.3 99.5q.8-1.6 2.5-1.9 3.5-.6 10 3.7m1.9-1.5q3.7 0 5.6 3m-25.4-22-.1 1.3M15 89.8l3 11.8" vector-effect="non-scaling-stroke"/><path fill="none" stroke="#000" stroke-linecap="round" stroke-linejoin="round" stroke-opacity=".2" stroke-width="__RESOLUTION__" d="m54.2 46.5 3.9-.3.1.1 1.9 1.7q1.6 1.6 7.3 1.3m-18.6-4.4 2.9.1.8 2.2m-17.6 8.3q-1.7 5.5 2.4 9.3M25.9 85.5l-.1-.2h-.9m1.8.5h1.7l2.8-.6 1.5-1.7q3.6-.2 4.7-2m-10.7 4.3-.8-.3m-.1 14.5.4-.5m14.2.9q3.7 0 5.6 3.1M20.8 82v.5m0-.5-.4-1.5.5.3" vector-effect="non-scaling-stroke"/><path fill="#7a7d31" fill-opacity=".4" d="M19.9 62.7q.1.5-.2.8l-.2.1q.4.6-.2 1t-1.3-.3.2-1.2l.7-.1q0-.4.4-.5.4-.3.6.2m5.8-29.6q.6-.4 1.1.4t-.2 1-1.1-.3q-.4-.6.2-1m-.8 1.8q-.7.7-1.1-.1-.3-.9.4-1.4t1 .2q.5.7-.3 1.3m-1.7.8q.7-.4 1.1.3t-.3 1.1-1.1-.3.3-1.1m2.7.7.1-.1q.6-.4 1.1.3.6.8-.2 1.1-.6.3-1-.3l-.1-.2-.3.1q-.7.5-1-.1-.2-.6.4-.9zm1.4-2.6.5-.6q.9-.4 1.2.1l.1.3q.1.3-.5.8l.2.3q.4.5-.2 1t-.9-.1.2-1q-.3 0-.5-.4zm-1 15.3q-.2-.9.4-1.2.8-.4 1.3.4.5.7-.4 1.1t-1.3-.3m2.4 3.4q-1.1.4-1.7-.4-.7-.6.3-1.3t1.8.4q.6 1-.4 1.4m-.7 3.4q-.8.4-1.3-.4-.2-.4-.1-.7-.6 0-1-.5-.6-.7.4-1.3t1.5.3l.2 1 .5.4q.5.8-.2 1.2m1.2.6q.5.8-.4 1.1-.8.5-1.1-.3-.2-.7.4-1.1.6-.3 1.1.4m-7 4.9q.3.4-.2.8t-1-.2.2-1l.3-.1q-.7-.7.3-1.3 1-.5 1.8.3.6.8-.4 1.3zm5.6-.4q.7-.3 1 .3t-.1.9-1.1-.2q-.4-.5.2-1m-.6-.5q-.5-.4.2-.9t1 .3q.5.6-.2.8t-1-.2m59-23q.4.7-.3 1t-1.1-.2q-.4-.6.3-1t1 .3m2 .3q-.5 0-.7-.4-.3-.4.1-.7t.8.4q.3.5-.2.6m1.5-1.5q-.6.6-1.1-.3-.6-1 .1-1.4t1.1.4-.1 1.4M71 22.2q-.2-.6.3-.7.4-.3.7.2t-.2.8-.8-.3m-.2 2.6q-.2-.6.1-.8.4-.4.8.1.3.4-.1.8t-.8-.1m-.5 1.9-.1-.2q-.4-.6.2-1h.7l.4-.5q.9-.5 1.3.2.5.8-.4 1.5-.6.5-.9.3l-.4-.4H71zm11 11.3q.4.9-.2 1.4-.7.6-1.2-.4t.2-1.4 1.2.4m-2.8 2.5q-.2-.4.2-.7t.8.4q.3.5-.2.6-.5.2-.8-.3m6.2.1q-.7.4-1.1-.1t.2-1q.5-.6 1 .1t-.1 1M28.2 65q-.4-.6.1-.8.5-.4.9.2.3.5-.2.8t-.9-.2m-2 15.8q.5.6-.2 1-.5.3-1-.3t.1-1 1.1.3M25 79.5q-.5-.7 0-1t1.3.2q.5.5-.2 1t-1.1-.2m-.2-3.2q-.4-.6 0-1 .5-.2.9.4.4.5-.1.8t-.9-.2m.4 6q.4.8-.3 1.2-.8.5-1.2-.3-.5-.9.3-1.3.7-.5 1.2.3m.7 3.8-.2-.2q-.3-.4 0-.6l.3-.1.4.2q.3.3 0 .5zm.6 1.5q.3.6-.4 1-.7.3-1.2-.3t.3-.9 1.3.3m-.6 3.2-1.3-.1q-.6-.5.2-1.2H26q.4.8-.2 1.3m-2 2.2q-.5-.7.4-1.6t1.6.2-.4 1.6-1.6-.2m1.5 1.2q.8-.5 1.3.1t-.1 1.2-1.4-.1q-.6-.8.2-1.2m-3 12.1q.2.5 0 .8l.4.4q.5.7-.1 1.2t-1-.3q-.5-.6 0-1l-.2-.3q-.3-.6.3-1 .4-.4.7.2m.2-.9q-.7.2-1.2-.4-.5-.5.2-1.1t1.3.4-.3 1.1m-6.5-14.7q-.7.3-1-.2t.3-1 1 .3-.3 1m-2.4-.5q-.1-.3.3-.5t.5.1-.2.5zm-1.9.3q-.6.5-1.3-.3-.6-.8.3-1.3 1-.5 1.3.2.3.8-.3 1.3m1.5.8q.6-.3 1 .3t-.4 1q-.7.3-.9-.3t.3-1m-.4 2q.2.7-.3 1.1t-1-.2.2-1.2q.8-.3 1.1.3m-3-2.7q.4.6-.4.9-.7.3-.9-.2t.3-1 1 .3m-2.3 1.8.2.3q.3.5 0 .8l.5.5q.5.8-.4 1.1t-1.2-.3q-.4-.5.1-1l-.5-.3q-.2-.5.1-.8v-.2q-.4-.3.2-.7.5-.3.8.2zM9 95.1q-.4-.9.7-1.3 1-.5 1.3.3t-.6 1.4-1.4-.4m8 9.2q.5-.4.9.2t-.1 1.1l-.5.2-.5.7q-.7.6-1.1-.3-.3-1 .4-1.5.4-.4.7-.2zm4.1.9q.4.6-.2 1t-1-.2.2-1 1 .2m-1 3q-.6.3-1-.2-.4-.7.3-1.1t1 .3-.3 1m-2.8-1q-.5-.6.2-1.1t1.2.4-.2 1-1.2-.3"/><path fill="#8d993c" fill-opacity=".4" d="m30.9 31.7.1.4q.4.7-.3 1h-.3q-.7.4-1-.3-.3-.8.4-1.3t1 .1m-1.6 2.1-.1-.3q-.4-.5-1.2-.1l-.5.6q0-.5.5-.8.9-.4 1.2.1zm28.6 9.2q-.6.6-1.2-.2-.5-.7.2-1.4t1.1.2-.1 1.4m1.8-1.3q-.5.4-1-.2-.4-.5.3-.9.5-.3.8.2t-.1.9m1.3-1.8 1 .2q.6.5-.2 1t-1.2-.2q-.3-.6.4-1M43.4 50.4q.3.5-.2.9-.5.3-1-.4t.1-.9 1 .4m3.1-.2q.6 1-.2 1.4t-1.4-.4.3-1.5q.6-.6 1.3.4m1.8 0q.3.5-.1 1t-1-.2.1-1 1 .3m.9 1.6q-.5-.7.3-1.3t1.5.2-.4 1.4-1.4-.2m2.1-.7q-.6-.9.2-1.2.8-.4 1.3.4t-.1 1.3q-.7.3-1.4-.5m46.4-33.8q-.8.5-1.2-.3l-.1-.1v.6l.4.4q.5.8-.5 1.3t-1.3-.2.3-1.2l-.2-.2q-.4-.7.2-1 .5-.4 1 .2l.1.1q-.4-.7.3-1.1l.2-.2.3-.2q.8-.7 1.4.2.6 1-.6 1.5zm-4.2.4q-.6.3-1-.2-.3-.5.3-.9t.9.2-.2.9m.8 3q-.4-.6.1-1 .6-.3 1.1.4.7.8-.1 1-.7.3-1.1-.3m-1.4.1q-.8.5-1.4-.2t.3-1.3 1.5.2-.4 1.3m-1.9-3.5q.5-.4 1.2.4.6.7-.2 1t-1.2-.4.2-1m-1.6 2.1q-.8.4-1.1-.1t.4-1.2 1.2.2q.4.7-.5 1.1m-3.1.6q.5.8-.2 1-.7.3-1-.3l-.2-.3-.1-.2q-.4-.4.1-.9t1 .2l.1.3zm3.4.9q-.4-.6.2-1 .5-.4 1 .2t-.2 1-1-.2m-1.2-.9q.3.7-.5 1.1-.7.4-1-.1-.2-.5.2-1-.4 0-.7-.4-.4-.7.3-1.2t1.2.2 0 1zM71.6 27q.3.7-.3 1.3-.8.4-1.3-.3-.6-.9.3-1.2l.1-.1.7-.1h.1zm-2.8 4.6q-.7.4-1-.2t.3-1 1 .2-.3 1m1.3-1.5q-.5.4-1-.1-.3-.7.2-1.2t1 .2-.2 1.1m-4.7 5.6q-.3-.5.2-.7l.7.1q.2.4-.1.8-.4.3-.8-.2m-1.7 2q-.5-.8.1-1.4t1.2.2q.4.8-.2 1.4t-1.1-.2m4.7-5q.8.7-.4 1.3t-1.6-.1q-.4-1 .5-1.4.8-.6 1.5.2m10.9 9.8q.4.5-.2.9t-.9-.2l-.1-.4-.3.3q-.5.2-.7-.2t.2-.7.7.1l.1.3.3-.3q.5-.3.9.2m.5 1.6q.4.7-.3 1t-1-.2.3-1q.7-.4 1 .3m-4.2 3.7q-.2-.5.3-.9.5-.3.9.3.2.6-.4.9-.5.3-.8-.3m-.8 1.7q-.4-.7.2-1t1.1.2q.4.7-.2 1-.7.5-1.1-.2m5.5-2.9q-.2-.4.2-.7t.7.2l.1.4q.9-.6 1.5.5.7 1-.4 1.6-1 .5-1.5-.5-.5-.7.1-1.3-.4.1-.7-.2m-2.7-.7q-.9.4-1.4-.4-.4-.7.3-1.2.8-.5 1.4.3t-.3 1.3m0 3.4q.6-.4 1 .3t-.2 1.1-1.1-.3.2-1.1m3.2.8q.5.6-.3 1t-1.2-.2.3-1.1q.7-.4 1.2.3m-18-11q-.3-.6.3-1t1 .2-.3 1-1-.2m19.2 11.5.4-.2q-.5-.8.4-1.3t1.3.4q.6.9-.2 1.4l-.4.1q.5 1.1-.5 1.5-1 .5-1.5-.4t.5-1.5m4.4-.2q.5.9-.5 1.4l-.5.1q.1.5-.4.8t-1-.3q-.4-.7.3-1l.2-.1q-.3-.9.5-1.4 1-.5 1.4.5m1.1 2.8q-.9.4-1.4-.4l-.1-.2q-.4-.6.2-1h.2l.1-.2q.8-.5 1.4.5t-.4 1.3M42.2 74.4q.3.5-.2.8t-.7-.2.1-.9.8.3m-.5 3q-.4-.6.3-1.2t1 .2q.5.9-.2 1.3-.7.3-1-.3m.1 3.6q-.2-.5.2-.8.5-.2.8.2t-.2.8-.8-.2m2-1.5q-.5.5-1-.3t.3-1.1 1 .3-.3 1m-.9 4.4q-.6.5-1-.2-.6-.6.3-.9t1 .2q.4.5-.2 1m-3.5-15q-.2-.5.3-1t.9.1q.3.8-.3 1zm.3 1.2q1.1-.4 1.5.4.4.7-.5 1.5-.7.8-1.5-.4-.7-1.1.5-1.5m.4 3.1q-.3-.5.1-.7.4-.3.8.2.3.4-.2.7t-.7-.2M25.8 85.1l-.3.1q-.3.2 0 .6l.2.2-.3.2q-.7.3-1.1-.5-.4-.7.3-1.2t1.1.3zm5.1 25.3q1.1-.6 1.8.3.5.8 0 1.3.6-.3 1 .4t-.2 1-1-.4 0-.8h-.1q-1 .5-1.7-.5-.8-.9.2-1.4m8.4-5q.4.7-.4 1l-.5.1-.3.3-1.1-.1q.3.5-.2.7-.6.3-1-.2t.2-.8.9.2q-.5-.7.3-1h.3q.1-.3.5-.5.9-.5 1.3.3m-4.1 3.5q-.4.2-.7-.2-.2-.3.1-.5t.7.2q.2.4-.1.5m-2 1q-.4-.5.1-.6.5-.2.9.1.2.3-.3.6zm3.3-1q-.4-.5.2-.9t1 .3-.3 1-.9-.4m.9 1.9q-.5-.7.3-1.1.8-.3 1.2.3.5.7-.2 1.1t-1.3-.3m.5 1.3q.4.5-.2.8-.6.2-.9-.2-.2-.4.4-.7.5-.4.7.1m-27.1-1.3q.6-.4 1.2.2.5.5-.2 1t-1.1-.2q-.4-.6.1-1M9 109.2q-.4-.6 0-1 .5-.2 1 .3.3.7-.2.9t-.8-.2m5.1-.9q-.5.4-1-.3-.6-.8 0-1 .7-.3 1.1.3t-.1 1m-.6 4.1q.3.3.1.6l.3.3q.4.8-.4 1.3-.7.4-1.2-.4-.4-.6 0-1v-.1q-.5-.6.1-1 .6-.3 1.1.3m2.3-1.9q-.6.5-1-.2t.1-1 1 .3-.2 1m1.1.2q-.3-.5.3-.8t.8.2q.4.5-.2.8t-.9-.2m1.6.2q.5-.5 1 .3.5.7 0 1.1t-1-.2 0-1.2m16.5 2.3q-.5-.5.2-.7t1 .2-.2.7q-.6.4-1-.2"/><path fill="#e8e4c6" fill-opacity=".7" d="m18.3 41.7.6-2.7q.5-1.9 2.5-3.9l3.8-2.1-3.1 2.4-2.4 3.5q-.9 1-1.4 2.8m2.7 8.5-.4-.2-.2-.6-.1-.7q-.6-2.1-.6-4 1-2.6 2.6-3.2l.3.5-.8 8.4zm1.6-8.3-.3-.5-.9-2.4.1-1.8L23 35q8.1-4.5 2.9-1.5-5.6 5-.2 11.4-1.3-.8-3-3m-3 18.4H19q.8-1.7.9-4.8l.4-4.1q.3 4.4-.6 8.9m4.2-6.1-.6.1.2-1.2q.5-1.4.4 1.1m-1.6 5.1q1.3 1.4.5 3.8l-6 1.5q3.4-1.9 5.5-5.2m3.3 7 1.4-2.9.4 1q-2.1 2.3-2 5.3-.7-1 .2-3.3m-5 3.9 1 3-1.7 4.3-.4-2.2q.3-3.7 1.1-5.1m-.1 10.1 2.4 4.4.1 3.9q-1-2.8-3.6-3.4l1.3 1.3Q1.4 95.5 1 103.7q-1.2-1.1-.8-3.8l4-4.4q2.5-2.4 5-4.2 6-4.5 9.8-5.6l.3-.2q1.3-.9 1.5-2.9zm19.8-30-.2-1.1 1.1-.5q3.6-2.5 7.6-4l8.1-9.6 8-13.5q1-2.3 1.5-2l.3 1.7-11.9 18.4-4.6 5zm31.1-30.7V18h2q1 1.5-.8 2.6L61.1 40.3l-4.7 5.4-9.5 4.4 7.2-3.5 8.8-11.1q5.3-6.6 8.5-15.6m3.1-2.6 4-1.5q2.9-1.3 5-2.7l2.8-1.5 3.3-1.6h2l-8.4 4.6zm23.7-2.8-1 2.6-1.2 2.1q-5.7 2.4-10.4.4 6.7.1 12.6-5.1M79.4 43.4l1 1.3q3.8 5.1 9.4 8.1l-2 .3q-8.5-2.8-13.4-8.4-2.7-5.4 3.8-3l.6.8zM44 61.1l-1.7 1.3-.4.6-2 5-.2.6q-1.7 5.2-2 10.7-.2 2.2 0 4.5l3.2 2.6q-.1.5.1.8 2.8 3.5 3.5 6l2-.7-2 2v1.4l-.8 1q.5-5.4-4-9l1.2-1.5-2.4.3-2.2-2.1v-6.9l2.6-12 4.5-5.7.3-1 9-5.7 6.4-6.1 1 .8-7.5 7.1zm6 32.6 1.2 1.7 3.2 1.7-1 1-3.2-1.2-1.5-2.7zm-40 14v-.2q-.1-.8.8-.8 3 2.6 7.7 4.3l-.7.8zm27.3-43q.4 3.6-2.4 6l-1.5 1.1q3.6-6 1.5-8.4zm-12 29.5-1-1.6.6-7.9-.1-7.1.6 3.9v12.9zm1 4.2.9-1.8 2.4-3.5q-3.7 10.5-3.9 20.5l-.4-1.9-.1-.5-.3-2.5-.1-2.7.1-2.3v-.1l.2-1 .3-1.5.1-.3.3-1zm9.4 10.4.5-1.5q3.9-3.5 7.1-4.3l-5.1 5.8zm14-11q-.5 1.3-1.6 1.5l-4 3q2.1-2.9 3.2-3.6 1.9-.2 2.5-1m-5.4-3.2v-1.3zM7 110.5q0-.8.8-.7 2.9 2.5 7.8 4.2l-.7.9q-4.8-1.5-7.9-4.2z"/><path fill="#58442c" fill-opacity=".7" d="M17.7 67.5q4.2 1.6 7.9-1-.9 2.3-.2 3.3-2 1.5-4.8.6-2-1.2-3-2.9m-7 36.8Q23 97.9 22.5 90.9q.5 3 1.6 3.8l-.1 1.4-4.9 5-.4.3v.2l-.9.7-2.1.8-4.8 1.3zm15.2 9.9-9.5 1.6 1.8-1.3.8-1.1q2-1.6 4.2-.8 1.9 1.5 2.6 1.1zM16 103.7l-4.8.6h-.4l4.8-1.3 2.1-.8-.2.3 1-1 .1-.2.4-.3 4.9-5-.2 2q1-1.5 1.6-3.7l.1.2v-.9l.4-2.1q-.3 6.3.6 7-.4.7-.6 1.5l-.3.9q-3.8 2.4-8.6 2.1l.6-.5-.6.5zm17-44.3.6-1q.8-1.6 1.5-3.8l.3-1.2q4.9-.3 2.6 2.5-.2 1.6 2 2zm-7.2 12v-3q1.8 3.3 6.6 3.1l-3.7 1.3q-1.4.2-2.9-1.5m.7 3.1q2.9 3.3 7.8 5.3-4.1-.4-6.5-2.7zm-1.2 37.4.4 1.9q-.7.3-2.6-1.1-2.2-.7-4.2.8l-.7 1-1.9 1.4.2-1.5 1.5-.4 1.2-1.8 1.5-.7 4 .7zM15 103.2l-3.8 1zl.7-.2h-.1z"/><path fill="none" stroke="#6d5436" stroke-linecap="round" stroke-linejoin="round" stroke-width="__RESOLUTION__" d="m20.3 51.4.1-2-.9-1.1q-.8-1-1.1-1.8-.7-2-.5-3.5v-.1l.4-1.2.6-2.7q.5-1.9 2.5-3.9l3.8-2.1q2.6-1.4 4.6-1.5h.3l3.8.9q3 .9 4.5 2.4l.9.9Q42 39 41.9 41l5.4-3.5q.8 0 0 1L43.2 43l-1 1-.1.3-.7 1.4v.1l-.8.9m-22.7-3.9.2-.5.1-.6m4.1-.2q-1.6.6-2.6 3.1 0 2 .6 4l.1.8.3.6.3.3 1.3 1m.3-9.3-.3-.5m-2.6 18.8H19q.8-1.7.9-4.8l.4-4.1m-.6 8.9 5-5.1-.8-1m1.8-9.4-.3 3.8v3.2l-.1.3v1.7l.1 2q-1.9 1-3.1 3.6-2 3.3-5.4 5.2 0 1.6.8 2.9.8 1.7 2.9 2.9-.9 1.4-1 5.1l.3 2.2.6 2.8.4 2q-.2 2-1.5 2.9l1.3 1.3M1 103.7q.6.6 1.6.8l3.1.3 4.8-.4h.2l4.8-1.3 2.1-.8-.2.3 1-1 .1-.2.4-.3 4.9-5m42.5-76.2q-.6-.3-1.5 2l-8 13.5-8.1 9.6q-4 1.5-7.5 4l-1.2.5.2 1 .2.5.5.3-.2.1h-.1l-.2-.4m30.9-31.1V18l1.3-.3 1.8-.6 4-1.5q2.9-1.3 5-2.7l2.8-1.5 3.3-1.6 1.1-.7 7-9-6.4 4m-.6 5 3.6-2 3-1.7 7.5-4.9q-2 3.3-3.6 6.7-1.8 3.5-3 7.2l-1 2.6-1.2 2.1-2 3q-6.6 8.7-15.7 9h-.7l-.7.8q10.8-1 18.4-3.6h0l-2 3.4q-5.1 6.2-11 10l-2.9 1.6 1 1.3q3.8 5.1 9.4 8.1l-2 .3q-5 .4-10.5-2l-2-1-3.2-1.2-4.7 1 1.2 1q1.7 3 .7 5.8l-.7 1.3q-7.4 2.6-14 1.5V61l-2.2.6q-3 .8-5.9.1-1.3-.2-2.5-.7l-1.7 1.3q-.2 3.2.1 6.2.8 7 4.5 12.4l-5-3.2 2.1 5-1.5.2q-2.8-.2-4.8-3.7-.2 2.2 0 4.5l3.2 2.6q-.1.5.1.8 2.8 3.5 3.5 6l2-.7 2.2-.6 1.3 1.8 1.2 1.7 3.2 1.7-1 1-1.1 1.1-4.9 2.4v.1L39 112.5l-5.6 4.3q-3 2.4-6.9 0l-.7-2.6-.1-.5-.4-1.9-.1-.5-.3-2.5-.1-2.7.1-2.3v-.1l.2-1 .3-1.5.1-.3.3-1 .6-1.5q.3-.9.8-1.7l2.4-3.5m-13.3 22.6q-8.3-2-10.3-5.3.1-1.5 2.8-.8H9q1.4-.2 1.3-1.2l-.2-.8v-.2q-.1-.8.8-.8l.9.2 1-.6.6-.3 2.7-2.3.9-.7.6-.5m-6.3 1.8h-.6zl3.8-1 .6-.3h.1l-.7.3M41.9 41l-.5.4-1.9 1.4-1.6 1.5-.9.8-.9 5 2.2-.3 2-1.6-.2 1.1m-17.8-8-.8-1.7-.1-.6m4.3 5.8q-1.3-.8-3-3m2.7 13.9-.7-.6m16-3.9-1.1.5m-4.2 1.6-.3 1.2q-.7 2.1-1.5 3.8l-.6 1-1.5 3m3.9-9 .7-3.1m4.2.2-.5.3M60 48l1.5-1.5q1.6-1.7 2.8-4.1t3.3-4.2M60.2 48l-7.5 7.1-8.6 6m-3-9.9 1.9-.6 2.8-.6H47l7.2-3.5L63 35.4q5.3-6.6 8.5-15.6M76.9 32l-1.8 2.5q.9 3.9 3.1 7.1v.1l.6.8.6.9m-7.3 5.5-5.9-1.2 1.1 2.3m-25 12.4-.4.6-2 5-.2.6q-1.7 5.2-2 10.7m-12 34.4q-.7.3-2.6-1.1-2.2-.7-4.2.8l-.7 1-1.9 1.4m8.5-3.7.5-.2m18.4-15-.8 1-4.5 4-2.1 3.3m8.3-10.7v1.4l-.9 1m6.3-3.2-1.3.5m-4.2-1v1.3m-43.4 9.1q-1.2-1.1-.8-3.8l4-4.4q2.5-2.4 5-4.2 6-4.5 9.8-5.6l.3-.2" vector-effect="non-scaling-stroke"/><path fill="none" stroke="#000" stroke-linecap="round" stroke-linejoin="round" stroke-opacity=".5" stroke-width="__RESOLUTION__" d="M22.4 90.8v-.2l-.2-1.1m16.7-27 1.3-1.5m28.4-24.3.8-1.6q.4-2.3 1.8-4.5l.5-1.5M37.3 64.9l1.4-2m27.7-43h5m12-6.8 8-8.7M39.6 51.8l-1.7.3m.8 10.8.2-.4m1.3-1.5 2.6-3.2 6.8-4.3m22.1-24.3 7.4-5.6h8.2" vector-effect="non-scaling-stroke"/></g><g id="l"><path fill="#b89561" d="M81.2 21.8v13q0 6.8-7.3 11.9l-2 1.3V33.9l2-1.3 1-.7 2.9-2.7 1.2-1.5 1.6-3.1.3-1zm-29 32.8-6.7.7-4 .2h-3V41.3h3l4-.1 6.6-.7h.1zm27.4-19.2-1 .8-6.7 5.4 6.6-5.4zm.5-1.6v-6.2zm-4.9 4.3v-5.7zm3.6 1.8-.2-3.7zM49 47.8l-9.4.3z"/><path fill="#aa844d" d="m71.9 48-2.6 1.5-5 2.1-2.2.8h-.2v-14l.2-.1 2.2-.7 1.5-.7 3.5-1.5 1.4-.8h1.2zm-.6-5.6-9.4 3z"/><path fill="#b38c55" d="M61.9 52.5q-4.1 1.3-8.6 2V40.4q4.5-.7 8.6-2v14M60.6 46l-6.4 1.5z"/><path fill="#beaa7c" d="m53.3 54.5-1.1.1v-14h-.1l-6.6.6-4 .1v-3h6.1l5.6-1.1v17.3"/><path fill="#c8ac84" d="m38.5 55.5-2.4-.1q-7.5-.4-13.9-2.1l-3.7-1.1-2.6-1v-14l2.5.9 3.8 1.1q5 1.3 10.5 1.8l5.8.3zm-2.2-.7V48h-.1l-10.6-1.7v6.3-6.4L36.2 48zm-3.6-8 .1-5.8zm-16.8-2.6 9 2.1z"/><path fill="#d0b895" d="m15.9 51.3-4-1.8Q8.5 47.7 6 45.7q-2.9-2.4-4.4-5Q0 37.9 0 34.8v-.2l2.3-.5-.1-.4-.6-.4-1-.4-.5-.2v-11q.2 3.2 2.2 6 1.2 1.8 3.1 3.4l.5.5q2.5 2 6 3.8l.8.4 3.2 1.4v7l-.4-.2-6.7-3.5L7 39l-.2 5.7.3-5.7 1.7 1.4 6.7 3.5.4.1zm-11-15.5v-4zm-3.7-4.2v-3.2zm11.3 10.1v-5.4zm-8.6-5.1L7 39.1zM2 40.5v-4.6z"/><path fill="#c5b789" d="M0 21.7v-2z"/><path fill="#d2c5a6" d="m0 19.7.1-.5.2-1 5.4 9.4 7.1 4.5 3.7 2.4 12.6 3.9h12.4v3h-.9l-2.1-.1-5.8-.3q-5.6-.5-10.5-1.8l-3.7-1.1-2.6-1-3.2-1.4-.7-.4q-3.6-1.7-6-3.7l-.6-.5q-1.9-1.7-3.2-3.4-1.9-2.8-2.2-6zm74 12.9-2 1.3V30l2-1.1zm-63.7 1.1 2.6-1.6zm43 3.5 8.9-1.8v2.9H62q-4.1 1.4-8.6 2.1z"/><path fill="#d8c4a7" d="M.3 18.2Q1.6 12 9.5 7.4l3.6 1.8L11.9 6q4.7-2.4 10.3-3.8Q29.1.3 37.3 0h3.3l9.1.5 5.1.7 3 .7q4.9 1.1 9.2 3L69.3 6l1.9 1 2.7 1.7q3.4 2.5 5.3 5.3l-2.2.4 3.1 1.2.7 1.8H68.3L61.6 19l-5.3-2.1-8 2.3H36.9L32.6 22l-8.5 5.6 8.5 6.8 10.1-3.7-1.5-7-2.2-.5 9.9 1.9 3.5 2.3h11l7.6 2.9q-3.6 1.5-8.9 2.7v2.4l-8.9 1.8-5.6 1.1H29.2l-12.6-3.7-3.7-2.5-7.1-4.5zm6.6 3.4-.2 3.3 6.7 1.2-1-4.9z"/><path fill="#a78450" d="m80.8 17.4.4 2.7-2.9 3.7q-.6 2.4-3.3 4.4l-.5.3-.6.4-2 1.1-.9.3-7.6-3h-11l-3.5-2.2-9.9-1.9-6.4-1.2 4.1-2.9h11.6l8-2.2 5.3 2 6.7-1.5z"/><path fill="#b8a372" d="M81.2 20v1.8l-.3 1.8-.3 1-1.6 3.1-1.2 1.5-2.8 2.7-1.1.7v-3.7l.6-.4.5-.3q2.7-2 3.3-4.4z"/><path fill="#c0ad81" d="M71.9 33.9v.7h-1.2l-1.4.8-3.5 1.5-1.5.6-2.2.8V33q5.3-1.2 9-2.7l.8-.4zM39 23.2l2.2.4 1.5 7-10.1 3.8-8.5-6.8 8.5-5.7zM7 21.6l5.5-.4 1 4.9-6.7-1.2z"/><path fill="none" stroke="#a78450" stroke-linecap="round" stroke-linejoin="round" stroke-width="__RESOLUTION__" d="M81.2 21.8v13q0 6.8-7.3 11.9l-2 1.3h0l-2.6 1.5-5 2.1-2.2.8h-.2q-4.1 1.4-8.6 2.1l-1.1.1-6.7.7-4 .2h-3l-2.4-.1q-7.5-.4-13.9-2.1l-3.7-1.1-2.6-1-4-1.7Q8.5 47.7 6 45.7h0q-2.9-2.4-4.4-5h0Q0 37.9 0 34.8v-.2l2.3-.5-.1-.4-.6-.4-1-.4-.5-.2v-11l-.1-1v-1l.1-.5.2-1Q1.6 12 9.5 7.4l3.6 1.8L11.9 6v0q4.7-2.4 10.3-3.8Q29.1.3 37.3 0h3.3l9.1.5 5.1.7 3 .7q4.9 1.1 9.2 3L69.3 6l1.9 1 2.7 1.7q3.4 2.5 5.3 5.3l-2.2.4 3.1 1.2.7 1.8.4 2.7zm-9.3 19.9 6.6-5.4 1.1-.8m-66.8-3.4-2.6 1.6m44 13.8 6.4-1.5m19.5-18.3v6.2M61.9 45.4l9.4-3m3.9-9.9v5.7m3.3-1.9.3 3.8M.1 19.7v2m4.9 10v4m-3.8-7.5v3.4M15.9 44l-.4-.1-6.7-3.5L7 39l-.2 5.7m5.6-8.4v5.3M7 39.1l-3-2.5m-2-.7v4.6m23.5 12.1v-6.4L36.2 48h0v6.8M32.8 41v5.8m-7.9-.4L16 44.2M39.6 48l9.4-.3" vector-effect="non-scaling-stroke"/></g><g id="k"><path fill="#7c8922" d="M0 5.4h7.6l7.6 20.2V0h7.7v23.4l7-15.2v16.3l-11.4 6L6 21.8z"/><path fill="none" stroke="#6e6a3b" stroke-linecap="round" stroke-linejoin="round" stroke-width="__RESOLUTION__" d="M0 5.4h7.6l7.6 20.2V0h7.7v23.4l7-15.2v16.3M6 21.8 0 5.4" vector-effect="non-scaling-stroke"/></g><g id="j"><path fill="#a6b44c" d="M0 5.4h7.6l7.6 20.2V0h7.7v23.4l7-15.2v16.3l-11.4 6L6 21.8z"/><path fill="none" stroke="#999565" stroke-linecap="round" stroke-linejoin="round" stroke-width="__RESOLUTION__" d="M0 5.4h7.6l7.6 20.2V0h7.7v23.4l7-15.2v16.3M6 21.8 0 5.4" vector-effect="non-scaling-stroke"/></g><g id="i"><path fill="#68522f" d="m68.8 26.3-3.2 3-4.5-1.6-2.6 1.4-2.5 5.3 3.3 2.8 3.1-4.6 6.4 3.4v2.3l-3.3 6.3-3 2.7-.7 4.5-.5.3-.8.3-.5.3h-.1v.1l-.4.1-4.2-8.2-2.1 2.2.8 1.7-3.2 4-2.4-1.5-8.8 6.5 1.1 4.8-1 .4-3.3 1.7-2 1-.5-.3v-20l.5.3V34.4l34.4-17.2v5l-1 2 1 .5zM44.9 40.8l-.6 2 3.2.1v-3z"/><path fill="#4e4425" d="m68.8 36-6.4-3.4-3.1 4.5-3.2-2.7 2.4-5.2 2.6-1.5 4.4 1.6 3.3-3zM40.7 62.4l-1.1-4.7 8.8-6.6 2.4 1.5 3.3-4-.9-1.7 2.1-2.2 4.2 8.2-.2.2-1.3.6-.8.4-2.3 1.1-.7.4-.9.4-4.4 2.2-4 2-3.2 1.6zm21.1-10.6.8-4.5 2.9-2.7 3.3-6.2v4.5l-1 1.6h.1l.4.1.2.2.1 1.3q0 .3.2.5v1.7l-1.5.8-1.8.8z"/><path fill="#7d633e" d="M68.8 17.2 34.5 34.4v11.1l-.6-.2-26.4-9.5L0 26v-8.9L34.4 0z"/><path fill="#c2a882" d="M34 45.3v19.9l-5-2.4.7-.6-.2-3-6.7-7.2-4.3 1.8-1-.1-1.6-2.1v-4.2 4.2q-2.6-3.5-4.8-7.7-2-3.8-3.7-8.1zm-3 7.9-3 .6 1 2.6 2.8.3zm-2.7-1.6-17-7.7z"/><path fill="#d0b895" d="M0 35v-3.6l1.1.2q-.1-1-1-1.9H0V26l7.5 9.6q1.7 4.4 3.7 8.1 2.2 4.3 4.8 7.8l1.7 2-4.8-.8-.2 1.8-2.3-1.2-1.3-.6 1-1.2-.4-2.5-3.2.3L4 44.8l-4 .3v-1.9l2.3-3.1v-.6l-.5-3.4zm16 17.7v-1.1zm-9-6.3v-4.2l4.2 1.8-4.1-2zm0-4.2v-6zm2 4.2-.5-1.5-1.5.5.6 1.3zM2.1 44l3 1zm0-4.4 2.8.8z"/><path fill="#776d37" d="m17.7 53.7.9.1 4.3-1.8 6.7 7.1.2 3.1-.7.6-.6-.4-.7-.3-3-1.5-1.9-.9-3.1-1.6h-.2zm13.3-.4.8 3.4-2.7-.2h-.2l-.9-2.6z"/><path fill="#887d40" d="m12.7 54.6.2-1.8 4.8.9 1.9 4.4-2.7-1.5-3.7-1.7zM2.3 39.5v.6L.1 43.2V35l1.7 1zl-1-.2zM0 45.1l4-.3 2.5 4.6 3.2-.3.5 2.5L9 52.8l-2.4-1.2-3-1.5L0 48.3zm9 1.2-1.4.3-.6-1.4 1.5-.4z"/><path fill="#282413" d="m44.9 40.8 2.6-.9v3l-3.2-.1z"/><path fill="none" stroke="#615530" stroke-linecap="round" stroke-linejoin="round" stroke-opacity=".8" stroke-width="__RESOLUTION__" d="M68.8 26.3v-1.6l-1-.4 1-2.2v-4.9L34.4 0 0 17.2v12.4l.1.1q.9.9 1 1.9L0 31.4V35m34 30.2.4.2h0l2-.9m3.4-1.7.9-.4 1-.5m17.8-9 .3-.1h.1l.1-.1.5-.3m.8-.3.5-.3 3.7-1.9m3.3-11.6v-12M29.1 62.8l4.8 2.4M13.2 54.8l3.7 1.9M0 43.2v5.1l3.6 1.8M9 52.8l1.3.6M9 52.8l-2.4-1.2M29 62.8l-.6-.4m-.7-.3-3-1.5m-1.9-.9-3.1-1.6m49-19.7v4.5l-1 1.6h.1l.4.1.2.2.1 1.3q0 .3.2.5v1.7l-1.5.8m-13.1 6.5-.9.4M49 58.2l-4 2m12.3-6.1L55 55.2m4.6-2.3-.2.2-1.3.6" vector-effect="non-scaling-stroke"/><path fill="none" stroke="#857143" stroke-linecap="round" stroke-linejoin="round" stroke-width="__RESOLUTION__" d="M16 51.6v1m0-5.2v4.2m-4.8-7.7L7.1 42v4.2m0-10.1V42m-4.9-2.6-1-.2m4 5.6-3-1M5 40.3l-2.8-.8m9 4.4 17 7.7" vector-effect="non-scaling-stroke"/></g><g id="u" transform="translate(-16.3 63)"><use xlink:href="#i" width="68.8" height="65.5" transform="matrix(.76 0 0 .76 21.55 39.7)"/><use xlink:href="#j" width="29.9" height="30.4" transform="matrix(.14 .04 -.04 .14 36.6 80.35)"/><use xlink:href="#j" width="29.9" height="30.4" transform="matrix(.17 0 0 .17 18.9 72.95)"/><use xlink:href="#j" width="29.9" height="30.4" transform="matrix(.09 0 0 .09 29.95 79.95)"/><use xlink:href="#k" width="29.9" height="30.4" transform="matrix(-.14 .04 .04 .14 53 83.85)"/><use xlink:href="#k" width="29.9" height="30.4" transform="matrix(-.17 0 0 .17 75.8 73.25)"/><use xlink:href="#k" width="29.9" height="30.4" transform="matrix(-.09 0 0 .09 58.05 83.3)"/><use xlink:href="#l" width="81.2" height="55.5" transform="matrix(.76 0 0 .76 16.3 25.75)"/><use xlink:href="#m" width="70.7" height="70.7" transform="matrix(.47 -.09 .16 .13 31.8 40.85)"/><use xlink:href="#m" width="70.7" height="70.7" transform="matrix(.47 -.09 .16 .13 38 43.6)"/><use xlink:href="#n" width="81.2" height="33.8" transform="matrix(.76 0 0 .76 16.35 42.4)"/><use xlink:href="#q" width="105" height="118.2" transform="translate(19.35 -63)"/></g><path id="n" fill="url(#r)" d="M81.3 35.1q0 6.8-7.3 11.9l-2 1.3-2.7 1.5-4.9 2.1-2.3.8H62Q57.8 54 52.3 55l-6.7.6-4.1.1h-5.3q-7.5-.5-14-2.1l-3.7-1.1-2.6-1-3.9-1.7Q8.5 48 6 46q-2.8-2.4-4.3-5Q0 38.2 0 35.1v-.2l2.2-.5V34l-.6-.4-1-.4L0 33V22q.2 3.1 2.2 6 1.3 1.8 3.2 3.4l.5.5q2.5 2 6 3.8l.8.3 3.1 1.5 2.6.9 3.8 1.1q4.9 1.3 10.5 1.8l5.7.3h3l4.1-.1 6.5-.6h.1q5.6-1 9.7-2.2l.3-.1 2.2-.7 1.5-.7 3.4-1.6 1.5-.7H72v-.7l2-1.3 1-.7 2.8-2.7 1.3-1.5 1.6-3.1.3-1 .3-1.8z" transform="translate(-.05 -21.95)"/><path id="m" fill="url(#s)" d="M35.4-35.3q14.6 0 25 10.3T70.7 0 60.3 25t-25 10.4-25-10.4T0 0t10.4-25 25-10.4" transform="translate(0 35.35)"/><radialGradient id="s" cx="0" cy="0" r="819.2" gradientTransform="translate(35.35)scale(.04)" gradientUnits="userSpaceOnUse" spreadMethod="pad"><stop offset="0" stop-color="#5e4725" stop-opacity=".5"/><stop offset="1" stop-color="#5e4725" stop-opacity="0"/></radialGradient><clipPath id="t"><path d="M1 1h109v153H1z"/></clipPath></defs><g clip-path="url(#t)"><use xlink:href="#u" width="108" height="152.3" transform="matrix(1.0019 0 0 1.002 1 1)"/></g></svg>