<svg xmlns="http://www.w3.org/2000/svg" xmlns:xlink="http://www.w3.org/1999/xlink" width="19" height="23" viewBox="0 0 19 23"><defs><clipPath id="b"><path d="M1 1h17v21H1z"/></clipPath><path id="c" fill="#130d0d" fill-opacity=".4" d="m1 5.7-8.7-4L.2-2.4 9 1.1z" transform="translate(7.7 2.4)"/><use xlink:href="#a" id="d" width="24.2" height="33.6"/><g id="a"><path fill="#b80101" d="M19 2q2.6 1.4 5.2 3.9L14 11l-2 1-4-2q2-5.7 11-8"/><path fill="#d80101" d="M19 2q-9 2.3-11 8L3.8 8Q5 3 14.8.4 16.9.8 19 2"/><path fill="#c07238" d="m8 10.1 4 2v21.6l-2-1.1V21.2l-6-2.9-1.8-1v-2l7.8 4v-4.7L8.7 14l-4.1-2-.5-.3-2-1v18.1l-2.1-1V6.2L3.7 8z"/><path fill="#763f21" d="m12 12 2-.8V11l10.2-5.2v21.6l-1.9 1V17.1l-2.1 1-6.1 3.1H14v11.5l-2 1zm7.6-.1-4 2-1.6.8v4.5l8.3-4.1v-4.6l-2.1 1zM14 19.3v2z"/><path fill="#924e29" d="m22.3 28.5-2.1-1v-9.3l2.1-1.1zm-4.2-13.3 2.1-1.1v-2.5l2.1-1.1v4.6L14 19.3v-2.1z"/><path fill="#663c1e" d="M4 18.3v9.5l-1.9 1V17.4zm0-6.6v2.6l-2 1v-4.5z"/><path fill="#f30101" d="M0 6.2Q6.1-.3 12.3 0l2.3.4Q5 3 3.8 8z"/><path fill="#3e2011" d="M20.2 12.2V14l-2.1 1-2.6-1.2 4-2zm-16.1 0 .5-.2 4.1 2L6 15.3l-2-1z"/><path fill="#968c78" d="M2.1 15.4v2z"/><path fill="#9a5b2e" d="m2.2 15.4 1.9-1 1.9.9 4 2v2z"/><path fill="none" stroke="#472c1d" stroke-linecap="round" stroke-linejoin="round" stroke-width="__RESOLUTION__" d="M24.2 5.9q-2.6-2.5-5.2-4M24.2 6v21.6l-1.9 1-2.1-1v-9.3l-6.1 3m-.1 0v11.5l-2 1-2-1.1V21.2l-6-2.9v9.5l-1.9 1-2.1-1V6.2Q6.1-.3 12.3 0l2.3.4m5.6 17.8 2.1-1.1m-2.7-5.2-4 2-1.6.8v6.5m8.3-10.7-2.1 1-.6.4m-15 0-.5-.2-2-1v4.7m7.9 3.9v-4.7L8.7 14l-4.1-2m-2.4 5.4 1.9.9" vector-effect="non-scaling-stroke"/><path fill="none" stroke="#fbe773" stroke-linecap="round" stroke-linejoin="round" stroke-opacity=".5" stroke-width="__RESOLUTION__" d="M19 2q-9 2.3-11 8M14.8.4Q16.9.8 19 2M14.7.4Q4.9 3 3.7 8" vector-effect="non-scaling-stroke"/></g></defs><g clip-path="url(#b)"><g transform="translate(8.7 15.65)"><use xlink:href="#c" width="16.8" height="8.1" transform="translate(-7.7 -2.4)"/><use xlink:href="#d" width="24.2" height="33.6" transform="matrix(.56 0 0 .56 -6.05 -14.65)"/></g></g></svg>