<svg xmlns="http://www.w3.org/2000/svg" xmlns:xlink="http://www.w3.org/1999/xlink" width="38" height="52" viewBox="0 0 38 52"><defs><clipPath id="a"><path d="M1 1h36v50H1z"/></clipPath><g id="b"><path fill="#bfb699" d="M35.2 13.9v-.2z"/><path fill="#f4d68e" d="M35.2 13.8q-1 4.4-4.5 6.8.2-1.6 0-2.7l-.2-.4zm.4-5.1-6.2 6.7-.7-.4-1-.2.4-4.5q5.1-.3 7.3-3.4zm-7.4-.8H28l-1.5-.1L28.9 0l.6 8zm-7 25.5.5-1 .1 1.2.2 1.7v.1q-.2.6-1 1.2l-.7.5-1.3.6-.3.1-1.1-1.6-.4-.4-.3-.3.1-.2q.8.1 2-.3v-.1l1.2-.6.2-.2.5-.4.1-.2zm-7.6-4.9 1 3.6-2.8 3.9h.6l3.1-.4.1.2-.7.5-.5.4q-1.2 1-1.8 2.2H10l1.3-2.4.3-.5-2.1-.2.3-.7q1.6-2.5 1.6-5.2l-2.2-1.7h.3l3.5.4h.2-.2zm6.7 7 .2-.3-.2-.4-.3-.1-.4.1-.1.4.1.3q.1.2.4.2.2 0 .3-.2m-1.6 2.3h.3l1.3-.7.7-.5q.8-.6 1-1.2l-.2 2.9-.2.5-.6.9-.7.5-.8.5-.2-1-.3-1.2zm1.7-.1.1.3.4.1.3-.1.2-.4-.2-.3-.3-.1-.4.1zM10 38.8l2 .1h.5l-.5.8-.7 1.8-.2.7-2-.4V41z"/><path fill="#fff" d="M35.3 13.7h-.1l-4.7 3.8q-.3-1.5-1.2-2.1l6.2-6.7q.2 2.7-.2 5M17.7 17q.5 0 .9.4.3.4.3 1t-.3.9-1 .3-.9-.4q-.3-.3-.3-.9 0-.5.3-.9.4-.4 1-.4m9.2 13.8.2.3-.2.3q-.1.2-.3.2l-.4-.2v-.6l.4-.1zm-6.4-1.9q.4.4.4 1t-.4.9-1 .4-1-.4-.4-1 .4-.9 1-.4 1 .4m-.3 6.6q-.1.2-.3.2l-.4-.2-.1-.3.1-.4.4-.1.3.1.2.4zm.1 2.1.1-.3.4-.1.3.1.2.4-.2.3-.3.1-.4-.1zm-.7 7.8.2-.5.6-.3.6.3.3.5-.3.6q-.2.3-.6.3l-.6-.2q-.2-.3-.2-.7M5.2 28l.3-.4.9-.4.9.3q.4.4.4 1t-.4.9-.9.4-1-.4l-.3-.9zm-2 7.3.9-.4q.5 0 .8.4.3.3.3.8t-.4.8q-.2.4-.7.4t-.9-.4l-.3-.8z"/><path fill="#482d00" d="m28 10.3-.4 4.5-1 14.5-.2-.1h-.5l1.6-21.3h.7zm-2.4 24h.6l-.7 10h-.7z"/><path fill="#efb14b" d="M25.9 29.2h.7l1 1.1q.4 1 .3 2.2-.2 1.1-1 1.5-.3.3-.7.3h-.8l-1-.7.5-1.3q.6-1.8 0-2.4v-.1zm-9.6-14.7 1.1.3.4.6.9 1.5 2 .6v2.1L19 20l-2.3.4-4.2 1-2 3.9-.2.6-.2-.2q-.7-.7-.5-2v-.5l.2-1.3v-.4l.1-.8v-.3q0-1.1.7-2l.2-.3.1-.2 1-1.7h.1l.1-.3q.2-.6.1-1.4l-.1-.6H14zm1.3 2.6q-.5 0-.9.4-.3.4-.3 1t.3.9 1 .3.9-.4q.3-.3.3-.9 0-.5-.3-.9-.4-.4-1-.4M27 30.9l-.3-.1-.4.1v.6l.4.2q.2 0 .3-.2l.2-.2zm-2-1q.6.7 0 2.5l-.5 1.3q-.5.6-1 .4l-1.6-.4-.2-1.1-.5.9H21l.1-1.6.7-.5q1.4-1.3 1-2.4l-.3-.5.5.3 1.6 1zM20.2 41v.5l-.6 2.1h.1q1.3.6 2.5 1.5t.1 1.4l-3 .4-2.7-.4.4-1.9h.2q2 .2 2.4-.9-.5 1.1-2.4 1h-.1l.3-1.7zm-8.6.6q.4.8.3 1.8l-.2.5-2.6.5V42l2 .3.2-.7zM7.5 30.4l-.8.2-.4 1L5.1 34q.3.6.2 1.5v.5L5 37.7v.3q-.3.9-2.2 1h-.4l.2-6.6 1.7-2h.2l-.1-.1.9-1q.5.4 1 .4t.9-.4.4-.9q0-.6-.4-1l-.9-.3-1 .3-.2.5-1-3.4H5q.8.1 1.5.6l.4.4.5.8.5 1.2.2.5.1.3q.5 1.7-.7 2.1m12.1 13.1v.1zm0 2q0 .3.2.5l.6.3q.4 0 .6-.2l.3-.7-.3-.5-.6-.3-.6.3zm-13-14.8-2-.2zM5.1 34l-.2-.4q-.6-.8-2-1.1l-.2-.1H3q1.3.4 1.9 1.2zm-1.9 1-.3.9.3.8q.4.4.9.4t.8-.4.3-.8-.4-.9q-.2-.3-.7-.3zM15 17.3l-2.3-.3z"/><path fill="#e49614" d="m17.8 15.5-.4-.7-1.1-.4 2.3-2.5-.6 3.6zm4.7 12.9.3.6q.4 1-1 2.3l-.7.5v-1.2q-.2-2.4-1-4.5l.1-.1.4-.5h-.1v-2.6q1 .6.6 1.6l-.4.8.7.8zm-1.6-3.1-.2.2zm-.6 15 .1.6-2.8 2-.3 1.6q-1.5-.1-1.8-.8l-.2.3-.4 1.5q-.1.6 1.3.9h.6l.4-1.9q-1.3-.1-1.7-.8v-.5l-.1-2.1q1.9-.4 3.3-1l.7-.4.2 1zm-8.4 3.6-.5 1.8-.2.3q.3.6 0 1.4-.3.9-1.2 1.5-1 .6-2 .5-1-.2-1.5-1-.4-.7-.1-1.6l1-1.4v-.1L7.3 43q-.2-1 .5-1.6l1 .4.4.1v2.5zm-4.4-3.4v-2.6h-.1l.5-2.8.1-.2q.1.5 1.3.9h.3l.3-.7q1.6-2.4 1.6-5.1l-2.2-1.7L8 28l.1.3q.5 1.7-.7 2.1l.3 2.8v1.5l.1.1q.1.5 1.3.9h.3l-1.2 2.7zM1.7 39q-.8-.4-1-1l-.4-3q-.3-1.9.6-2.4l.4-.1.2-1q.2-1.1 1-1.7l.2-.2-.3-.2q-1-1-.8-2.2.3-1.2 1.4-1.9.7-.6 1.4-.7l1 3.4-.1.5.3.9-1 1v.1l-1.7 2q-1-.2-1.6 0 .6-.2 1.6 0L2.7 39zm5-13.8.2-3.7q.4.9 1 1.4l.4.2 1 5.1-1.1-.6-.6-1.2-.5-.8zm3.7-9.9-.9-2 1.8 1.6zM7.5 37.9l.8.6zm-5-8.3 2 .9zm4.9 16q0 1 1.8 1.1 1.5.1 2-.6-.5.8-2 .6-1.7-.1-1.8-1.1"/><path fill="#b16810" d="M12.2 14.5q.1.7-.1 1.3l-.1.3-1 1.6-.2.3-.2.3q-.7.9-.7 2v1.2l-.6-.2-.6-.3-.2-.2-1.3-1.1.8-.7q1-1 2.2-1.2l-.2-.2-1.3-1.2.8-.6.6-.6.8-.4z"/><path fill="#343301" d="M9.9 21.5v.2l-.1.1-.2 1.3v.5l-.8-.2-.4-2.1.3-.3.6.3zm.7 3.7 1.9-3.9 4.2-1L19 20l1.6.6q-.6 1.3-1.2 1.9-.2.3-.5.4l-.3 1.8q-.5 2.1-1.5 3.1-1.9-2.2-6.5-2.5"/><path fill="#f1c767" d="M9.6 23.7q-.2 1.2.5 1.9l.2.2q.8 1.7 2.7 2.7v.1l-3.6-.4h-.3l-1-5.2.7.4zM7.8 41.3l-.2-.2-.1-.3-.1-.1v-.3l.8-2 .5.2h.2l1.1.3 1.3-2.4.3-.5-2.1-.2-1.2 2.6.4.2h.2l1.1.3-1 2v1l-.3-.2z"/><path fill="#232001" d="m10.3 25.8.3-.6q4.7.3 6.5 2.5 1.2.3 2.3-.7-.6.7-1.6 1l-.4.1h-1.6l-2.3.4H13q-1.8-1-2.7-2.7"/><path fill="#fcf0d8" d="m21.1 31.9-.1 1.4v.3l-.2.1-.5.4v-.3l-.2.5-1.2.6-.8-5.1-.3-1.8q1-.3 1.6-1l.7-.9q.8 2.1 1 4.5zm-.7-2.9q-.3-.4-.9-.4t-1 .4-.4 1q0 .5.4.9t1 .4 1-.4.4-1-.4-.9m-15.1.4"/><path fill="#faeec5" d="M17.2 27.7q1-1 1.4-3l.3-2q.3 0 .6-.3.6-.6 1-1.9v5l-.3.5-.1.1-.7 1q-1.1.8-2.2.6M4.4 30.3l.1.1z"/><path fill="#f8e2b1" d="m17.8 28 .3 1.8.8 5.1q-1.2.5-2 .4h-.4l.1.1v.6l-1.9.3.8-.5.6-.4-.7.3-3.1.3h-.7l3-3.9-1.1-3.6 2.3-.4q1 3.7.8 7.2.1-3.5-.9-7.1l1.7-.1z"/><path fill="#3f3f01" d="m20 34.3.3-.5v.3zm-5.4 2.1 1.9-.3.5-.2.4.4 1.1 1.6.3.7.3 1.3-.7.3q-1.4.6-3.3 1l-.8.1-2.8.3h-.3l.7-1.8.5-.8q.7-1.2 1.8-2.2zM5.2 38h.1q1 .5 1.2 1.4.2 1-.5 1.8t-1.7 1.1h-.9q-.6 0-1-.4-.8-.7-1-1.7 0-.9.2-1.4l1 .1H3q1.9 0 2.2-1"/><path fill="#f5d894" d="m20.2 26 .3-.5z"/><path fill="#80a45b" d="m15.4 35.7.7-.3zm1.2-.3h-.1zh.3l-.1.1z"/><path fill="#bd9a71" d="M16.6 36v-.6l.2.1.3.3zm-8.7-1v-.2z"/><path fill="#fdfc42" d="M19.6 43.6v-.1z"/><path fill="#474601" d="m8.1 28-.1-.5 1.1.6.3.1h-.2z"/><path fill="#d3d301" d="M13 28.6h.2z"/><path fill="#e9e901" d="m7.9 34.8-.1.2z"/><path fill="none" stroke="#5b4f3c" stroke-linecap="round" stroke-linejoin="round" stroke-width="__RESOLUTION__" d="M35.2 13.9v-.2q.5-2.3.3-5l-.2-1.8Q33.1 10 28 10.3h0l-.4 4.5 1 .2.6.4q1 .6 1.3 2l.1.5q.3 1.1.1 2.7 3.6-2.4 4.5-6.7m-7.3-6h-.4l-1.6 21.3h.7l1 1.1q.4 1 .3 2.2-.2 1.1-1 1.5-.3.3-.7.3h-.8l-1-.7.5-1.3q.6-1.8 0-2.4v-.1l1-.6m-8.1-13.7-.4-.7-1.1-.4-2.3-.7-2 .1.2.6q.1.8-.1 1.4l-.1.3h0l-1 1.6-.2.3-.2.3q-.7.9-.7 2v1.4l-.1.1-.2 1.3v.5q-.2 1.3.5 2l.2.2h0l.3-.6 1.9-3.9 4.2-1L19 20l1.6-.2v-2.2l-1.9-.6zm2.8 5L19 20m5.9 10-.2-.2-1.7-1-.5-.3.3.6q.4 1-1 2.3l-.7.5-.1 1.5.1.1.5-1 .1 1.2 1.7.4q.5.3 1-.5m-7.2-5.8q1-1 1.4-3l.3-2q.3 0 .6-.3.6-.6 1-1.9V23q1 .6.6 1.6l-.4.8.7.8 1 2.3m-2.3-2.2-.7.8q-.6.7-1.6 1h0l-.4.1h-1.6l-2.3.4H13q-1.8-1-2.7-2.7m8.6 9.1 1.2-.6.2-.2.5-.4.1-.2.1-.2m-.8-7.3.3-.5V23m-.4 3.3.1-.2.4-.5.1-.2m-9 10.7h.6l3.1-.4.7-.2-.6.4-.7.5-.5.4q-1.2 1-1.8 2.2H10l-1.1-.2-.2-.1-.4-.2-1-.6v2.6l.1.3v.1l.2.3.2.1Q7 42 7.2 43v2.4l-.9 1.4q-.3.9.2 1.6t1.5 1q1 0 1.9-.5t1.2-1.5q.3-.7 0-1.4l.2-.4.4-1.7.2-.5q.1-1-.3-1.8l2.8-.2.8-.2.1 2.1v.5l-.2.3-.4 1.5q-.1.6 1.3.9h.6l2.6.4 3.1-.4q1.1-.5-.1-1.4t-2.4-1.5h-.2l.5-2.1.1-.5v-.6l.7-.6.6-1 .1-.4.3-2.9h0l-.1-1.8m-5.2 1.8h.3q.8 0 2-.4V35m2-1.4.2-.1m0-1.6v-1.2q-.2-2.4-1-4.5m-.7 1q-1.1.8-2.2.6m-.4 7.8.3.3.4.4 1.1 1.6h.3l1.3-.7.7-.5q.8-.6 1-1.2M7.4 37.8l.5-2.8v-1.8l-.3-2.8h0-.1l-.8.2-.4 1L5.1 34q.3.6.2 1.5v.5L5 37.7v.3h.1q1 .5 1.2 1.4.2 1-.5 1.8t-1.7 1.1h-.9q-.6 0-1-.4-.8-.7-1-1.7 0-.9.2-1.4-.8-.2-1-.9l-.4-3q-.3-1.9.6-2.4l.4-.1.2-1q.2-1.1 1-1.7l.2-.2-.3-.2q-1-1-.8-2.2.3-1.2 1.4-1.9.7-.6 1.4-.7H5q.8.1 1.5.6l.2-3.7q.4.9 1 1.4m.4.2.7.4.8.3m-1.2-2.4.3-.3-.2-.2-1.3-1.1.8-.7q1-1 2.2-1.2m-1.5-1.4.8-.6.6-.6-.9-2 1.8 1.6 1.2-.4m6.4 23.4.3.7.3 1.3.2 1 .8-.5m-3.4-4.8-.2-.1m.4 9.1h.2q2 .2 2.4-.9v-.1m-4.3.2q.3.7 1.8.8m2.1-4.7-.7.3q-1.4.6-3.3 1m-5.1-25.8.8-.5m-1 6.7-.6-.2-.6-.3M8 27.6l-.6-1.2-.5-.8-.5-.4m-1.8 5.3 2 .2m.9-.2q1.2-.4.7-2.1l-.1-.3-.1-.5 1.1.6.3.1 3.6.4h.2-.2m-8.4 1.8h-.2l-2-1m.3 3H3q1.3.4 1.9 1.2l.2.4m4.4-5.7-.3-.1L8 28m1.4 7.8 2.2.2m.8 2.9-.5.8-.7 1.8h.3m-9-9.1q-.9-.2-1.5 0m1.4 6.5h.4q1.9 0 2.2-1m-2.6 1h-1m8-3.1-.3-.1q-1.2-.4-1.3-.9h0l-.1.2m3.5 6.5-.2.7-2-.4-.4-.1-1-.5m3.4 4.7q-.5.8-2 .6-1.7-.1-1.8-1.1" vector-effect="non-scaling-stroke"/><path fill="none" stroke="#000" stroke-linecap="round" stroke-linejoin="round" stroke-width="__RESOLUTION__" d="M27.9 7.9h.3m.7-7.9-2.5 7.8h1.5m-9.8 7.7.4-3.6m7 32.5-.7-.1m-7-28.8h.3m.4-3.6-2.2 2.5m.3 21.6v-.6m0 0q.1-3.6-.9-7.2m1.4-.5q-1.9-2.2-6.5-2.5m-1.8-1.8-.4-2.1" vector-effect="non-scaling-stroke"/><path fill="none" stroke="#675a43" stroke-linecap="round" stroke-linejoin="round" stroke-width="__RESOLUTION__" d="m12.7 17 2.3.3" vector-effect="non-scaling-stroke"/></g></defs><g clip-path="url(#a)"><use xlink:href="#b" width="35.5" height="49.3" transform="translate(1 1)"/></g></svg>