<svg xmlns="http://www.w3.org/2000/svg" xmlns:xlink="http://www.w3.org/1999/xlink" width="56" height="36" viewBox="0 0 56 36"><defs><clipPath id="a"><path d="M1 1h54v34H1z"/></clipPath><g id="b"><path fill="#cf792d" d="M37.6 10.7q-.6 2.2-3 3 2.4-.8 3-3-5.4 4.2-11.8 7.1l-.4.2q-5.4 2.3-11.2 3l1.1 11 .3-.1q5-2.1 13.2-8.9l.3-.2.1-.1H29l1-1.2q5.3 0 9.4-1.5 4-1.5 9-5l1.1-.8.2-.2-.9-8.3zm8-2.9q-.6.2-.5 1l.4.2q1.3-.3.1-1.2M18 23.1l.2.4q1.6-.1.4-1-.6 0-.7.6"/><path fill="#fcf3b6" d="M37.6 10.7q-5.4 4.2-11.8 7.1l-.4.2q-5.4 2.3-11.2 3Q8 21.4.7 17l11.2-2.9 5.9-3.5L37.7.2l11.1 5.6zm-11.8 5.8v.7-.8M3.5 17q-.1.4.2.4 1.4-.1.2-.9-.4 0-.5.4"/><path fill="#fbef9f" d="m14 21.1 1.2 11L.5 23.2l.1-6.1q7.3 4.3 13.5 3.9"/><path fill="#000" fill-opacity=".3" d="M15.5 32q5-2.1 13.2-8.9l.3-.2.1-.1H29l1-1.2q5.3 0 9.4-1.5 4-1.5 9-5l1.1-.8 4 1.6-34.2 17.7z"/><path fill="#744418" d="M45.7 7.8q1.1.9-.2 1.2l-.4-.2q-.1-.8.5-1M18 23.1q0-.6.6-.6 1.1.9-.4 1z"/><path fill="#eec062" d="M3.4 17q.1-.4.5-.5 1.2.8-.2.9-.3 0-.3-.4"/><path fill="none" stroke="#ae6726" stroke-linecap="round" stroke-linejoin="round" stroke-width="__RESOLUTION__" d="M34.6 13.8q2.4-1 3-3.1" vector-effect="non-scaling-stroke"/><path fill="#000" fill-opacity=".3" d="m6.6 15.3.2.3-.2.4q-.1.2-.3.2l-.4-.2-.1-.3.1-.4.4-.2q.2 0 .3.2m7.2-2.7.3.1.2.4q0 .2-.2.3-.1.2-.3.2l-.4-.2-.1-.3.1-.4zm-3.6 2.6q-.2 0-.3-.2l-.2-.3.2-.4.3-.2.3.2.2.3q0 .3-.2.4-.1.2-.3.2m10.9-6.4.1.3-.1.4-.4.1-.3-.1-.2-.4.2-.3.3-.2zM23.9 7l.4-.2.3.2.1.3-.1.4-.4.1-.3-.1-.1-.4zm-6.4 3.7.2.3-.2.4-.3.1-.3-.1-.2-.4.2-.3.3-.2zM38.2.2l.4-.2.3.2.2.3-.2.4-.3.1-.4-.1-.1-.4zm-2.7 1.5-.2.4-.4.1-.3-.1-.1-.4.1-.3.4-.2.3.2zm6.4.3.3-.2.4.2.1.3-.1.4-.4.1-.3-.1-.2-.4zM31 3.3l.4-.2.3.1.2.4-.2.4-.3.1L31 4l-.1-.4zm-3.6 1.9.4-.2.3.2.1.3-.1.3-.4.2-.3-.2-.1-.3zm21.1.7.3-.1.4.1.1.4-.1.3-.4.2-.3-.2-.2-.3zm-2.9-1.2-.3-.1-.1-.4.1-.3.4-.2.3.1.1.4-.1.4zm3.6 5 .4.2.1.3-.1.4-.4.2q-.2 0-.3-.2l-.1-.3.1-.4zm0 4.2.4-.2.3.2.2.3-.2.4q-.1.2-.3.2l-.4-.2-.1-.3zM2.1 16.3l.3-.1.4.1.1.4-.1.3-.4.2-.3-.2-.2-.3zM.9 18.9l.2.4-.2.4-.3.1-.3-.1-.2-.4.2-.4.3-.1zm0 4 .1.4-.2.3-.3.2-.4-.2-.1-.3.1-.3.4-.2z"/></g></defs><g clip-path="url(#a)"><use xlink:href="#b" width="53.5" height="33.5" transform="translate(1 1)"/></g></svg>