<svg xmlns="http://www.w3.org/2000/svg" xmlns:xlink="http://www.w3.org/1999/xlink" width="67" height="87" viewBox="0 0 67 87"><defs><clipPath id="a"><path d="M1 1h65v85H1z"/></clipPath><g id="b"><path fill="#2e1700" fill-opacity=".5" d="M49.8 61.8 54 64l3.9-10.9-1-11.7-5.7-4.5-.6 1.8.1-2.5-41.4-21-.5 3.6-2.3-1.3v-7.1l6.1 3.2V5.8l5.9 3v2.1l34.1 17.7v-1.9l5.8 3v7.8l6 3.2v7.1l-3-1.5q2.9 10.9-.4 17.6l-.4-.7-.1 2q-.9 2-2.1 3.5 1.5 6.1 4.8 1.3v12.2Q61 74 58.5 75.8v8.4l-1.3-.7v-2.9h-2.3l.3 1.9-2.5-1.3v-8.5Q46.3 61.3 42 73q-3.3-9.6-7.5-8.8-7.6-9.8-10.1 0-2.9-9.4-5.9-9.4-1.4 3.5 0 8.5l-5.7-3.1v-8.4h-.2l-6-3.2V43l42.7 21.7v-.8l.6.4z"/><path fill="#2e1700" fill-opacity=".7" d="m50.5 38.7.6-1.9 5.7 4.6 1 11.8L53.9 64l-4-2.2V43.3l-.8-.4z"/><path fill="#283f44" d="m42.4 31.4 1.3.6.7.5 2.1 1.9Q45 33.2 44 33h-.8L37 31.2l-.2-.7.7-1.2z"/><path fill="#f9eabb" d="m44.4 32.5 4.8 2.5v26.6L47 60.5q.3-1.6 0-3.7l-.2-1.1q-1-3.9-3.5-6.7l-.8-.9-.2-.2.9-.1h1L45 45l-.5-1.2.6-.2V42l-1-1.3-.9.2.3-2.1v-1.7l-.6-1.7-1-.6-.1 1.2v1.8l-.4 2.1-.7-.4-.1.5v-.5h-.1v-.3q-.6-2.6-.7-4.2l-.1-.9-1.1-1.1-.6 2 .4 2.5.3 2.2.1.7.1.5.2 1-.3.4v.5l-.1 1.7.9 1v.8l-.3-.1-1.3-.5h-.5l-1 .2-.7-.4.1-.5v-.2l-.9-.9V43l3.1.9v-.1l-.3-1.6-1.1-.7-.3-1.7-4.7-2-.2-.7-.1-.1v-.4l.3-4.1 1.6-.1h4.6l5.2.6h.8q1.1.2 2.6 1.4zm-27.8 12-4.3-2.2V15.6l2 1v2.9l.5.8 1 1.7 1.6 2.3v.2l-.2.2.3 4.7v.4l-.2-.2-.4.5-2.6-1.8v6.5l1.6.3.2 1 .7.4h-1.3v.3l.5.7h.1l.1.1v.1l-.4.5q-.9 1.3.1 4.6l.6 1.6zm.6-26.3 25.3 13.2-4.9-2.1-.9-.4-1-.4-3-1.1-.9-.3-1.4-.4-2.9-.6h-.8l-1.6-1-.6-.4-.7-.2-1.5-.7H22l-2.5-2.9-2-2.3zm25 24v.2zm.7 8.3v-.3zM32.5 45l-.7-.7.7.4.1-.5 1 .8z"/><path fill="#c1a76c" d="m47 60.5-.7-.5q-.1-1.8-1-4-.9-2.4-2.5-4.1v-1.7.3l-.1.1-.3-.2v-1h-.1l-.1-.1v-.1l.3-.7 1.1 2.3 1.1.9q1 .5 2.1 4l.2 1.1q.3 2.1 0 3.7M42.3 58l-1.9-1q.2-1.6 0-3.4-.4-2.3-1.4-4.8l.4.3q1.4 1 2.5 2.9l.3 1.8zm-7.5-4-.6-.3.5-1 .1-.2zM23 47.8l-2.1-1.1.6-.5.4-.5q.2-.5 0-1l-.3-1 .1-.2.5.5.6 1.8-.6 1zm-6.3-3.3-.1-.1zM38 45.8l1.3.4.3.1v.2l-1-.5-.4-.1zm-21.7-8.1.5 1 1.1.1.4 1.4q.1.4.8.8l.4.4.2.3.5-.5h.4v.1l.8 1.9.1.1v.1h-1.1l-.2-.1H20q-1.4-.4-2.3-1.3-1.7-2.5-1.6-4.2zm8.5 10.1h-.4v-1zm1.4-.5"/><path fill="#8f4107" d="m46.3 60-4.1-2-.2-4.2-.2-1.8 1-.1q1.6 1.7 2.6 4.1.8 2.2.9 4m-12.1-6.3-4.6-2.4-.2-1q-.2-1.4 1.4-4l.2-.2.8.8 1.3-1v-.3l-.6-.6h1.1l1.9 1.5.3-1 .6.4 1.1-.2h.3q-1.6.7-2.4 1.6t-.9 2V52l.1.8zM25 48.9l-.6-.4V48h.2l.1-.1zm-1.8-1-.2-.1v-.1zm-2.3-1.3-4.2-2.2-.1-.1-.6-1.6q-1-3.3-.1-4.5l.3-.5q-.2 1.8 1.6 4.2.9.9 2.3 1.3h.4l1 .1.1.3.3 1q.2.5 0 1l-.4.5zm21.5 1.1.2.3.8.9q2.5 2.8 3.5 6.6-1.1-3.4-2.1-4l-1.1-.8-1.1-2.3v-.3l-.3-.2v-.1m-16.1-.4-.2.4v-.5l.1-.1z"/><path fill="#f3ecc7" d="m40.3 57-5.5-3v-1.7l.6-1.2V51q.8-1.5 1.8-1.9l.7-.1 1-.2q1 2.5 1.4 4.8.2 1.8 0 3.4m1.9-9 .3.2v.3l-.3.7zm-2.9-.4-.2-.4-.5-1.2 1 .5zm-1.1-1.7-.3-.1-.1-.1h.2zm-17.6-4.5h-.2v-.1h-.2l.3-.3zm-1.5-.3q-.7-.4-.9-.8l-.3-1.4 1 .1-.2.9-.2.4z"/><path fill="#081410" d="m29.7 51.4-4-2.1.6.2-.4-1.6.2-.4 1.4 1.9.4-3.6h.1l.3-.5.5 1.3h1.5L30 45l1 1-.2.3q-1.7 2.5-1.4 4z"/><path fill="#a58c54" d="m25.8 49.3-.9-.4-.2-1.1-.4-1v1.8l-1.2-.6-.2-.3-.8-.9.6-1-.2-3 1.1.9.5-.4-.2-2.5h.4l.4.4-.2 2.3.5.9 1 .3-.1 3.1v.1l.4 1.6zm-4.2-5.9v-.1l.1.2v.2zm-.8-2.1-.2-.4.9-1.5.5 2.6zm-1 0L19 41l-.7-.8.3-.5.3-.8 1.8.1zm4.8.1v.4zm2.4 3.1.6-2 .7 2-.2.5z"/><path fill="#0d1417" d="M14.3 16.7V15l.5.6 2.3 2.5.4.4 2 2.3 2.4 2.9q-2.2-.3-3.9.4l-.4.2-.2.1v-.2L15.8 22l-1-1.7-.6-.8zm23.3 12.6-.7 1.2.2.7 6.1 1.8-5.2-.5h-1l-2.5-.1h-2.7l-.9-1.4-1-1.5-3.2-3.3V26h.8l3 .6 1.3.4.8.3 3 1 1.1.5z"/><path fill="#2e484b" d="M41.8 37.8V36l.1-1.2 1 .6.6 1.6v1.8l-.2 2.1.8-.2 1 1.3v1l-2.5.1v.5l-2.2.1-.1.8-.3-.6-.6-.8-.6-.3v-.5l.3-.4h.8v.1h.6l.6-.4 1 .8v-.2l.4-.6-.6-.7zm-3.4-.3L38 35l.6-2 1.1 1.1.1.9q.1 1.6.6 4.2l.1.3.1.5v1l-.7-.3h-.3z"/><path fill="#101b1b" d="M45.1 43v.6l-.6.2-1.4.6-.6-.4v-.4l.1-.5zm-4.5-3v-.5l.8.4.4-2.1.1 3.1.6.8-.4.5v.2l-1-.9v.1l-.6.4h-.6l-.8-.1-.2-1v-.5l-.2-.7-.4-2.2 1.3 3.1.2.1.8.3z"/><path fill="#162525" d="M44.6 43.8 45 45l-.9 2.8h-1.9v1.6l.1 1.5-1-.1q-.8-.6-1.5-1.7l-.4-.9-.2-.4.1-.2.3-1.1v-1l-1-1 .1-1.7.6.3.7.8.3.6.1-.8 2.1-.1v.4l.6.4zm-2 .8v-.1"/><path fill="#e98103" d="m39.3 47.6-.1.2.2.5-.5.5-1 .2-.7.1q-1 .4-1.8 1.9v.1l-.6 1.3v-.1.2l-.1.2-.2-.9v-2.4q.1-1.2.9-2 .8-1 2.4-1.6v-.1h.1l.3.1.4.3.4 1.1zm-15-6v.3-.4"/><path fill="#94723a" d="m38.9 48.8.5-.5.4.8q.7 1 1.6 1.7l.9.1v-1.4h.1v.9l.3.2v-.1V52l-1 .1q-1-1.9-2.5-2.9z"/><path fill="#7b6139" d="M22 23.8h.2l1.4.7.8.2.6.3 1.6 1.1 3.1 3.4 1.1 1.5 1 1.4h-.1l-.4 4.3.1.3-.6-.2-2.2-5.2-2.2-2.6-2-1.5-2-.5-2.1.3-2.4 3-.4-.3v-.6l-.4-4.7.3-.2.2-.1.4-.1q1.6-.8 4-.5"/><path fill="#614730" d="M17.5 29.8v.2l-.2 1 1.5 1.6-.2.1-1.8-1.6v-.6l-2.6-1.7v-.5l2.8 1.8.3-.5zm13.4 7 .6.3.3.8 4.7 2 .3 1.7 1.1.7.4 1.5-.1.1-3-.8-.1.9.9.9v.2l-.1.5-.3 1-1.9-1.5-1-.8-.1.4-.7-.4.7.8.5.6.1.3-1.3 1-.8-.9-1-.9.3 1.4h-1.5l-.5-1.2-.3.5H28l-.1-.3v-.4l.2-.5-.7-2v-.1l-.3-.3v.4l-.6-.1L25 42l-.2-.4-.1-.6-.4-.2v-.1l.4.3-.1-1.1.2 1.5 1.6.5-.2-.7.1-.2 5.4 5.1.8-.6L30 43v-.3l2.2 1.3v-.1l-1.9-1.7v-.3l.1-.1 4.8 4 .2-.8-4-3.5-.1-.4.2-.1 2.6 2.2.5.1v-.7l-.6-.4-.1-.1-1-.6.9.4v-.1h.1l1 .5.1.2 2.6.8-.1-.8-1-.6-.4-1.9-4.3-1.6v.6l-1.8-.2-.2-.2 1.5-.1-.2-1-2.6-.6.1-.3-.2-.2-1.1-.4-3-1.5h.2v-.2l-.1-.3h-.1.1l4 1.7z"/><path fill="#fbf3d9" d="m17.5 30 .4.3 1.6 1.3.5.5v.2l2 1.8.3-.2 4.3 2.3 1.8.3.2.1v.3l2.5.6.2 1h-1.5l.2.3 1.8.2v-.6l4.3 1.6.4 1.9v.2l-4.3-2.4 1.6 2.1v.1l-.9-.4 1 .6.1.1.6.3v.8l-.5-.1-2.6-2.2-.2.1.1.4 4 3.5-.2.8-4.8-4-.1.1-.8-.5.5 1.3v.3l2.5 2.6-.7.6-5.5-5.1-.2.1.3.8-1.6-.5-.2-1.5.1 1.1-.4-.3-.4-.1.1-1-.2 1.4v.1l-.3-.2-.1-.1-1.6-1.2 1-1-.6.5-1.1-.5-.2.3-3-.2-1.1-.1-.6-1V37h2.3l.2-.2-.1-.2.4-.9-.7-.2-.2-.3-2.1-.4-.1.2-1.7-.3v-1.6h.1l.1.2.1.1 2.8.5v-.2l-.2-.3-2.6-.5-.2-.3v-.9l.3.3.2-.1.9.5-1-.7 1.7-.4-1.1-.5-.2-.4-.8-.4v-1.3l2.5 1.7v.6l1.8 1.6.2-.1-1.6-1.6zm9.8 8v.4h.1l1 .3.1 1.3-2.4-1.5v.3l.8.7-.1.1v.3l.7.6.3-.5 1.1.8.1-.1-.3-2.3v-.1zm-5.9-3v-.1L20 33.7l-.2.1-.2 2 .1.2 1.1.4.2.6.8.2V37l-.2-.4.9.2v-.2l-2.5-1 .3-1.2 1 .8z"/><path fill="#bdb284" d="m17.9 30.3 2.4-3 2.1-.3 2 .5 2 1.5 2.2 2.6 2.1 5.1-2.4-1q-1.6-1.6-3.8-2.7h-.1q-2.9-1.6-4.8-1.4h-.2zm9.5.4-3-2.1q-1.4-.7-2.9-1v.2l-.2 2.6.6.2.9.1 1.6.8 1.8 1 .7.6.6.6z"/><path fill="#a78052" d="m14.3 30.1.8.4.2.4-1-.4zm.4 1.6 1 .8-1-.5-.1.1-.3-.2v-.4zm-.4.9.2.3 2.6.5.2.3v.3l-2.8-.6v-.1l-.2-.2zm1.6 2.4.1-.2 2.1.4.2.3v.3l-2-.4.1.2 2.2 1 .1.2-.2.2h-2.4v.4H16l-.5-.7v-.3h1.3l-.7-.5zm2 3.7 3 .2.2-.3 1.1.5.6-.5-1 1 1.6 1.2-1.3-1-.4-.2.2-.2.1-.2h.2l-.4-.2h-.4l-.1.3-.9 1.5-.2.3-.5.5-.2-.4 1.3-2.3-1.9-.1-.2.9.2-.9zm5.9 2.3.2-1.5-.1 1 .4.2H24zm-1.6-7.2-.2.1-2-1.7V32l.1-.1 4.1 2h.2l.1.3v.3h-.2v-.1l-2.1-.8zm5 4.2 1.4.3.1.1.3 2.3v.1l-1.2-.7-.3.4-.7-.6v-.2l.1-.2-.7-.7v-.3l2.3 1.5-.1-1.3-1-.2-.1-.1zm-5.9-3-.1.2-1-.8-.3 1.1 2.4 1 .1.3-.9-.1.2.3v.2L21 37l-.2-.6-1-.4-.2-.2.2-2 .2-.1 1.3 1.1z"/><path fill="#e1cfa8" d="m15.3 30.9 1.1.5-1.6.4-.6-.3v-1zm3 4.7.7.3-.4.8-2.2-1v-.2l1.9.4zM30 42.7l-.5-1.3.8.5v.3l2 1.6-.1.2zm3.9-.9-1.7-2 4.2 2.3.1-.2 1 .6.1.8-2.6-.8v-.2zm-5.5-5.2-1.8-.5-4.4-2.2v-.2l2.1.8 3 1.5z"/><path fill="#c27b05" d="m23.4 40.9.1.1.1 1.9-.5-.1-1-2.8zm-1.5-1.7.1.1-.1.2zm4.5 3.3-.9 1.5-.5-.4v-1.5z"/><path fill="#985605" d="m23.5 41 .3.2v-.1l.1-.4.2 2.6-.5.4-1-.9-.7-.4V42l-.6-2.6.1-.4h.4l.1.2v.3l-.2.1.4.4 1 2.8.5.1zm-1.7-.6.2 1.8h.2l-.1-1.6zm2.7.8.1.5.2.4v1.5l.5.4.9-1.5.6.1v-.4l.3.3v.1l-.6 2v.2l-.7-.1-1-.3-.5-.9zm1.7 1.8-.1 1.5.2.1.1-1.7z"/><path fill="#634f2e" d="M28.6 36.6h-.2l-1.1-.6 1.1.4zM20 32.1l-.6-.5h.2q1.9-.2 4.8 1.4h.1q2.2 1.1 3.8 2.7L24.5 34h-.1L20 32zm1.5-4.4v-.2q1.5.3 3 1l2.8 2.1v.1l-.7.2-2.2-1.4-2.2-1z"/><path fill="#c9a961" d="M21.5 43.3v-.1l-.9-1.9 1.2.7.1.4.6.4.2 3-.6-1.7-.5-.6zm4.4 1.4.6.1.1-.2 1 .5v.4l.2.3-.4 3.6-1.4-2-.1-.1-.1.5z"/><path fill="#3d2e1d" d="m21.5 27.7.7.8-.2 2-.7-.2zm5.1 3.2.7-.2.2 2.9-.6-.6z"/><path fill="#000" d="m22.2 28.6 2.3.9 2.1 1.4.3 2.1-.7-.5-1.7-1.1-1.7-.7-.9-.2zm1.6 1.7v.4zm1.3.7v.4zm-3.4 8 .5.3H22l-.1-.1z"/><path fill="#7b6239" d="M24.5 33h-.1"/><path fill="#e4a207" d="m22 40.4.2.2.1 1.6h-.2zm4.5 2.6.3-.1-.2 1.8-.2-.2z"/><path fill="none" stroke="#280f06" stroke-linecap="round" stroke-linejoin="round" stroke-opacity=".5" stroke-width="__RESOLUTION__" d="m17.5 24.5-.1-.2m14.4 8.2h-.1" vector-effect="non-scaling-stroke"/><path fill="none" stroke="#f3ecc7" stroke-linecap="round" stroke-linejoin="round" stroke-width="__RESOLUTION__" d="M23.8 30.7v-.5m1.3 1.1v-.4" vector-effect="non-scaling-stroke"/><path fill="#634e34" d="m47.1 21.8 1.1-.8 5.8 3v8l-1.1-.6v-6.5zm5.8 9.5 1.1.6 6 3V42l-1.1.9q1.9-3 0-7.1l-6-3.2v-1.4m1.1 9.2V63l6 3.1v7.1l-1.1.8q1.6-2.7 0-7.1l-6-3.2V43.2L47.1 40v-3.2zm0 31v7.1l-1.1.8v-5l-1.9-1q-.7-1.5-1.4-1.7l-1 .2-.1.2-1.4-.8v-3.4zm-39.9-21v7l-1.2.8v-5l-1.9-1q-.6-1.5-1.3-1.7l-1 .2-.1.2-1.4-.8v-3.4l3.6 1.9zM1 36.5l1.1-.8 5.1 2.6v1.4zM7.2 19v-3.2l4.1 2.2 1.6.8.6.3.5.4.1 22.5 33 17.5-2.7-.2-1.9-1-25.1-13.2-4.4-2.4V22h-.2l-1.5-.8-3-1.7zM1 5.3l1.1-.8 5.1 2.7v1.3zM7.2.8 8.3 0l5.8 3v7.8l33 17.4v1.3l-4.6-2.3L17.4 14 13 11.6V3.8Q9.6 0 7.2.8m5.7 9.5 1.2.5zm0 8.6V22zM14.2 42l-1.2-.6z"/><path fill="#a89362" d="m47.1 21.8 5.8 3v7l-5.8-3zm5.8 57.5q-2.9 0-5.8-3.1v-5l1.4.8.1-.2 1-.2q.7.2 1.4 1.7l1.9 1zm-40-21q-2.8 1.8-5.7-3.1v-5l1.4.8.2-.2.9-.2q.8.2 1.3 1.6l2 1zm-5.8-51V.8q2.5-.8 5.7 3v7.8l-2-1.1-3.7-2zM11.6 42l.2-1.2q.2-.5.4.3l.3 1.4z"/><path fill="#ae8e5b" d="M58.9 42.9 54 40.4l-6.9-3.6L17.4 21l-1.9-1.6v-.1l1.4.2.5.1-6-3.1 1.7 1.6q-1 0-2.3-.7l.5.5-4.1-2.2L1 12.4q-2-3.9 0-7.1l6.2 3.2 3.6 2L13 12l.7.5.7.5q1.7 1.6-1.4.4l-1-.4-1-.5 14.4 7.7q-8.1-5-9-6.2h1.1l25.1 13.2q1.6 1.1 1.1 1.2-1 .2-9-3.4L49 32.6l-1.9-1.2q-3.4-2.3-1.5-2l1.5.5 2 .6-2-1v-.7l5.8 3v.8l6 3.1q1.9 4.1 0 7.1m0 31.2L54 71.5l-6.9-3.7-29.7-15.6-.4-.4q-3.2-2.1.4-.9l-6.6-3.5 2.1 1.6q.4.4 0 .4l-1.6-.5-.6-.2-3.5-1.9H7l-6-3.2q-1.9-4.1 0-7.1l6.2 3.2 1 .6.8.4.3.1.5.3.3.2.7.4L13 43l.7.5.7.6q1.7 1.5-1.4.3l-2-.8 14.4 7.6q-8.1-4.9-9-6.1l1.1-.1 25.1 13.2 1.3 1.1h-.6q-3.5-.7-7.3-2.5l12.3 6.4q-1.8-1-3.3-2.6h.9l1.3.2 1.6.6-1.6-.8v-.4l5.8 3v.5l6 3.1q1.6 4.4 0 7.1M49 34l-6.2-3.2 1.4.7.2.3 2.7 1.8v.2q-.5.1-4.3-1.6l6.6 3.5-.3-.2-.3-.3-.6-.8q-.2-.4.8-.3 1.3 2.8 1.5.9v-.8l-.2-.6-.5-.2h-.3q-.4 0-.5.6m0 31.2-6.2-3.3 1.4.9h.1l.1.1 2.7 1.9v.2q-.4 0-2.7-1l-1.2-.5 6.2 3.3-.3-.2q-1.8-1.5-.3-1.4zq1.1 2.7 1.5.7l.1-.5q0-.5-.4-.7l-.6-.2h-.3zM10.8 14v-.3l-.2-.5-.5-.7q-.7-.5-.7.2 0 3 1.4 1.3l.2.2q1.3 1.2.3 1.2l-.8-.2 6.6 3.6-.2-.2-3.6-2.4-.4-.2q-.5-.5 0-.4t2.5.9l1.4.6zm0 31.1v-.2l-.3-.7-.6-.7q-.6-.3-.6.3.1 3 1.5 1.4 1.7 1.5.2 1.3l-.5-.1 6.2 3.3-3.4-2.3-.4-.3q-.5-.4 0-.4.6.1 2.5 1l1.4.5z"/><path fill="#584632" d="m17.4 52.2-3.3-1.7-3.3-1.8.5.2 1.6.5q.4 0 0-.4l-2.1-1.6 6.6 3.5q-3.6-1.2-.4 1zM7.2 38.4v-1.1l.4.2q.1.3.2.1l.4-8.8v11.5l-1-.6zm39.9-8.7 2 1-2-.7-1.5-.4q-1.9-.4 1.5 1.9l2 1.2L34.4 25q8.1 3.6 9.1 3.4.5-.1-1.1-1.2zM17.4 14h-1.1q.9 1.3 9 6.2l-14.5-7.7 1.1.5 1 .4q3.1 1.2 1.4-.4l-.7-.5-.7-.5-2-1.5 2 1.1zm0 7-3.9-1.9-.6-.3-1.6-.8-.6-.5q1.3.8 2.4.7l-1.7-1.5v-.1l6 3.1-.4-.1-1.5-.2v.1zm27 38.3 2.7 1.4 1.6.8L47 61l-1.2-.2h-.9q1.5 1.6 3.3 2.6L35.9 57q3.9 1.8 7.3 2.5h.5l-1.2-1.1zM17.4 45l-1.1.1q.9 1.2 9 6.1l-14.5-7.6 2.1.8q3.1 1.2 1.4-.3l-.7-.6-.7-.5-2-1.5.4.3.1-6.4q0 4.4 1 4.9l.5-.1v2.5l-.4-.2-.2-1.5q-.3-.9-.5-.3l-.2 1.3 1 .4.3.3zm-6.5-31 5.9 3.1-1.4-.6q-1.9-.8-2.5-.9-.5 0 0 .4l.4.3 3.6 2.3.2.1-6.6-3.4.8.1q1 0-.3-1.2zm.5 7.2 1.5.8h.1v2q-.2-2-.5-1.7-.5.4-1 8l-.1 2.6zm-.5 24v-.1l6 3.1-1.4-.6-2.5-.9q-.5 0 0 .4l.4.3 3.4 2.3-6.2-3.4.5.2q1.5.2-.2-1.3m.8-3.2-.3-.1z"/><path fill="#9f8559" d="M7.2 37.3V19l1.1.5 3 1.7v11.7l.1-2.6q.5-7.6 1-8 .3-.3.5 1.7v16.3h-.5q-1-.4-1-4.8l-.1 6.4-.5-.2-.7-.4v-6.5 4l-.2 1v1.3l-.6-.2-.1-1.4-.2-3.8v-2 7l-.7-.4-.1-11.5-.4 8.8q-.1.2-.2-.1zm39.9 22.2V40l5.8 3v20.4l-5.8-3.1z"/><path fill="#7c6745" d="M49 34.1q-1-.1-.9.3l.7.8.3.3.3.2-6.6-3.5q3.9 1.7 4.3 1.6v-.1l-2.7-2-.2-.2-1.4-.7L49 34zm-38.8 7.2-.4-.2.1-1.2.1-1.1.1-4zm-.8-.4-.4-.2v-7l.1 2 .2 3.8zM49 65.3h-.1v-.1q-1.6-.2.2 1.4l.3.2-6.2-3.3 1.1.5q2.5 1 2.8 1v-.2l-2.7-1.9-.2-.1-1.4-.9z"/><path fill="#3f3121" d="M49 34.1V34q.1-.6.5-.6h.3l.5.2.3.6v.3l-.1.5q-.2 1.9-1.5-.9m0 31.2.3-.6h.4l.5.2q.4.2.4.8v.4q-.5 2-1.6-.7M10.8 14q-1.4 1.6-1.4-1.4 0-.7.7-.2l.5.7.2.5zm0 31.2q-1.4 1.6-1.5-1.5 0-.5.6-.2l.6.6.3.8z"/><path fill="#6d5c41" d="M47.1 59.5v1.2l-2.7-1.5z"/><path fill="none" stroke="#422800" stroke-linecap="round" stroke-linejoin="round" stroke-width="__RESOLUTION__" d="M54 31.9V24l-5.7-3-1.2.8 5.8 3v6.5zl6 3V42l-1.1.9-4.9-2.5V63l6 3.1v7.1l-1.1.8-4.9-2.5v7l-1.1.8q-2.9 0-5.8-3.1v-8.4L17.4 52.2l-3.3-1.7v7l-1.2.8q-2.8 1.8-5.7-3.1v-8.4l3.6 1.9 3.3 1.8m-7-3.7L1 43.6q-1.9-4.1 0-7.1l1.1-.8 5.1 2.6V15.9M1 12.4q-2-3.9 0-7.1l1.1-.8 5.1 2.7V.8L8.3 0l5.8 3v7.8l33 17.4v-6.4m5.8 9.5v.5l-5.8-3v-.6m11.8 7.6q1.9 4 0 7M47.1 29.7l-4.6-2.4M10.9 10.5l-3.7-2V7.2m39.9 22.3v-.7m0 11.2v-3.2L17.4 21l-3.9-2-.6-.3V22m1.1-2.5.1 22.5 33 17.5V40m5.8 23.8 6 3.1M54 40.3l-6.9-3.5m0 23.5v-.8h0m-2.7-.2 2.7 1.4v-.4l5.8 3m-42-21.6-.8-.4-.3-.2-.5-.2-.4-.2-.7-.4-1-.6v-1.4m39.9 29.5 6.9 3.7m-43.2-61 2.1 1.1V3.8m0 7.8 4.5 2.4m-3.3-3.2-1.2-.6m0 30.1v1.1l1.2.6m-1.6.5.4.3v-1.4m-2 .3.4.2.3.1 1 .5m.3.3 4.5 2.3" vector-effect="non-scaling-stroke"/><path fill="none" stroke="#ecd68c" stroke-linecap="round" stroke-linejoin="round" stroke-width="__RESOLUTION__" d="M47.1 40.6V44m0 2.1v1.6M7.2 28.2l-.1 1.6m-3.3 8 1.6.9m21.7-12.5 1 .6m4.6 2.4 2.1 1.1m-6 20.7-1.4-.8m3.7 2 .9.5m4.3 2.3 5.6 3" vector-effect="non-scaling-stroke"/></g></defs><g clip-path="url(#a)"><use xlink:href="#b" width="64.3" height="84.2" transform="translate(1 1)"/></g></svg>