<svg xmlns="http://www.w3.org/2000/svg" xmlns:xlink="http://www.w3.org/1999/xlink" width="162" height="114" viewBox="0 0 162 114"><defs><radialGradient id="a" cx="0" cy="0" r="819.2" gradientTransform="matrix(.08 0 0 .08 47.55 5.1)" gradientUnits="userSpaceOnUse" spreadMethod="pad"><stop offset=".2" stop-color="#997952"/><stop offset=".7" stop-color="#7a6041"/></radialGradient><radialGradient id="d" cx="0" cy="0" r="819.2" gradientTransform="matrix(.14 0 0 .14 -51.55 -25.65)" gradientUnits="userSpaceOnUse" spreadMethod="pad"><stop offset=".2" stop-color="#887d66"/><stop offset=".9" stop-color="#6a6251"/></radialGradient><radialGradient id="c" cx="0" cy="0" r="819.2" gradientTransform="matrix(.13 0 0 .13 -18.3 -75.05)" gradientUnits="userSpaceOnUse" spreadMethod="pad"><stop offset=".2" stop-color="#afa691"/><stop offset=".7" stop-color="#887d66"/></radialGradient><radialGradient id="b" cx="0" cy="0" r="819.2" gradientTransform="matrix(.12 0 0 .12 2.55 -80.35)" gradientUnits="userSpaceOnUse" spreadMethod="pad"><stop offset=".2" stop-color="#d8d1c9"/><stop offset=".7" stop-color="#b4a698"/></radialGradient><g id="h"><path fill="#51432d" d="m84 22.4-2-1.1-3.3-1.6-1.9-1-1-.5-3.8-2-1-.4-3.5-1.9-2.2-1-.4-.2-2.8-1.5-1.4-.7-1.9-1-1.7-.9-.5-.2H52L16.8 26.2l-2-1 37-18.8h4.7l37 18.8-2 1-3.7-1.9-1.9-1zm-76.8 7 43 22-.3 7h-.1l-1.8-1q-2.2-2.5-5.5-3.6-1.3-.5-2.6-1.3-1.8-1.2-5.5-3.3l-6.2-3.4q-6-3.1-19.1-7.9-5.6-2-8.4-3.4v-5.1zm41.5 53L28.9 72.3l-2.5-2.5q-7-6.8-13.8-9.8l-12-4.7v-9.4l1.8.9 8.8 5.1q5.8 3 17.5 4.5l9.1 4.6-4-.1h-4q-5.2.2-5.6.9l4.3 2.5 6 3.3 10.4 5.3 2.6 1.3 1.6.3v.3zM17.8 47h.2q8.9 0 15.8 3.6 7 3.5 12 10.7z"/><path fill="#896b47" d="m81.9 21.3 2.1 1.1-6.4 3.2-13 5.7q-5.2 2.2-9.1 4.2l-3.7 1.9q-3.6 2-5.8 3.8l-5.1-2.7 7.4-3.6 3-1.6 11.8-5.8-.7 1.1 5.4-1.1 7.5-3.1 2.3-1zm-65.1 4.9 35-17.8h4.7l.5.2-7.4 2.8-.4.3-3.2 1.2q-6.3 2.6-9.7 5.3L31.8 21q-4 2.7-8 6L21 28.5zm48.1-13.5.4.2-6.4 3.5q-6.7 3.9-7.3 5h.6q4.8-1.5 9.2-3.8l1.8-1.1 4.3-2.6 3.5 1.8L58.7 22l-1.9.9-3.5 1.8-2 1-.1-.3-8.9 3.3-.8.4q-6.7 2.7-10.5 4.5l-3.9-2L38.3 26l7.3-3.7L58.2 16zm-61.6 12 4 4.7H.7z"/><path fill="#997952" d="m84 22.4 1.9 1-6.3 3-1.7 1-10.3 5L57 38l-8.7 4.3-2.2-1q2.2-1.8 5.8-3.8l3.7-1.9q3.9-2 9.1-4.2l13-5.7zM57 8.6l1.8 1-8 3.9-3.3 1.7-3 1.5-18.3 9.2-2.4 1.2q4-3.4 8-6.1l4.5-2.8q3.4-2.7 9.7-5.3l3.2-1.2.4-.2zm8.2 4.3 2.2 1-4.3 2.6-1.8 1q-4.4 2.4-9.2 3.9h-.6q.6-1.1 7.4-5zm13.4 6.8 3.3 1.6-4.3 2-2.3 1.1-7.5 3-5.4 1.2.7-1.1 2.8-1.4 2.2-1.2zM31 33.5q3.8-1.8 10.5-4.5l.8-.4 8.9-3.3.1.3-.4.1-11.1 5.6-6.6 3.3z"/><path fill="#765e3f" d="m85.9 23.4 1.8.9-4.7 3.4-.4.3q-3 2.2-5.2 5l-.6.7-1.9 1q.8-1.1.8-1.9-2.5-.5-18.4 7.1l-1.5.8-5.5 2.6-2.1-1.1 8.7-4.4 10.7-5.3L78 27.4l1.7-1zm-25.3-13 1.4.8-6.9 3.4-6.9 3.6-3.6 2.1Q40 23.6 39 24.8l-.7 1-11.2 5.7-3.1-1.6q3.8-1.6 11.6-5.8l5-2.7 7.3-4 6.2-3.4zm11.3 5.9 3.7 1.9-6.5 3.2q-6.2 3-11.1 5.9l-4.7 2.9-5.7 3.7-2.4 1.5-4.5 3-1.8-.9 7-5L50 29l-5.3 2.7-8.7 4.4-2.9-1.5 6.6-3.3 11-5.6.5-.1 2-1 4-1.4q3-1.5 7.7-3l.9-.4q2.8-1.2 6-3.6m4.8 2.5 2 1L68 24.9l-2.2 1.2-2.9 1.4q1.4-1.7 5.1-4.1l2.3-1.4q2.8-1.8 6.3-3.3M57.4 83.2h-7.1l-1.6-.9.4-7.5 6.1 2.6q1.1 0 2.1-.5zM21.9 28.8l-.7-.4 2.6-1.3z"/><path fill="#644f36" d="m87.8 24.3 3.8 1.9-14.8 7.5.5-.7q2.3-2.8 5.3-5l.5-.3zm-29-14.8 1.8 1Q57.7 11.9 54 14l-6.2 3.4-7.2 4-5.1 2.7q-7.9 4.2-11.6 5.8l-2.2-1.1 2-1.7 2.4-1.2 18.4-9.2 2.9-1.5 3.4-1.7zm3.2 1.7 2.8 1.5-6.5 3.2-12.7 6.3-7.3 3.7.7-1.1q1-1.2 5.6-4.5l3.6-2.1 7-3.6zm8.9 4.6 1 .4q-3.2 2.4-6 3.6l-.9.4q-4.6 1.5-7.6 3l-4.1 1.4 3.6-1.9 1.8-.8zm4.7 2.4 1.1.5q-3.5 1.5-6.4 3.3l-2.2 1.4q-3.7 2.4-5 4l-11.7 5.9-3.1 1.6-7.4 3.6h-.1l4.5-3.1 2.3-1.5 5.6-3.7 4.8-2.9q4.9-2.8 11.1-6zM36.1 36l8.7-4.4 5.3-2.7-4.2 3.5-7 5zm38.8-1.5L57 44h-5.3l-1.3-.5 5.5-2.7 1.5-.8q16-7.6 18.4-7 0 .7-.8 1.8"/><path fill="url(#a)" d="m91 25.6 1.9-1-37-18.8h-4.6L14.2 24.6l2 1 4.3 2.2.6.3 2.3 1.1 3.1 1.7 3.9 2 2.2 1.1 2.9 1.5 2.8 1.4 1.9 1h.1l5.1 2.6 2.1 1.1 2.2 1.1 1.3.6h5.3l18-9.2 1.9-1zm-7 11.1-27.3 14h-7.1l-43.1-22-4-4.6L50 0h6.1l5.3 2.7.3.1 38.4 19.6q-7 5-11.5 9.3l-3.7 4z" transform="translate(.6 .6)"/><path fill="#4d3f2b" d="M84.7 37.3 83 38.7l17.3-4.1 6.5-1.9v5.6l-2.5 1.3-5.8 3q-17 3.4-24.7 6.8-5.9 2.7-10.1 6.6-2.6 2.4-6.4 7.2v-12zm22.1 9.8v5.4Q63.2 77.8 60.7 77.2l-3.4-.3v-9.7l3.6-1.8 1.1.3q18.3 0 32.1-10 7.9-5.6 12.7-8.6"/><path fill="#3a3223" d="m106.8 32.8-6.5 1.8-17.3 4 1.7-1.3 22.1-11.2zM57.4 63.3q3.8-4.9 6.3-7.2 4.2-4 10.1-6.6 7.8-3.4 24.7-6.8L57.4 63.5zm49.4-21.1v5q-4.8 3-12.7 8.6-13.8 10-32.1 10l-1.1-.3zm0 10.4V58L57.4 83.2v-6.3l3.3.3q2.5.6 46.1-24.7"/><path fill="#846645" d="M57.4 51.3v12.2l-7.1.1-.6-.3.2-4.8.4-7.1zm-8.2 23.3.4-7.7.8.4h7v9.6q-1 .5-2.1.5z"/><path fill="#352d21" d="m98.5 42.6 5.8-3 2.5 2.5-46 23.3-3.4 1.8-7.1.1-.8-.4L37.8 61l-9.1-4.6L.7 42 3 39.5 17.8 47l28 14.3 3.9 2 .5.3 7.1-.1z"/><path fill="#6d563a" d="M106.8 26 84.7 37.4l.9-1 3.8-4q4.3-4.3 11.3-9.3z"/><path fill="#685238" d="M28.9 72.3.7 58v-2.7L12.5 60q7 3 13.9 9.8zM.7 45.9V42l28 14.4Q17 54.9 11.2 51.9l-8.8-5.1zM3 39.5.7 38.3v-3.8q2.8 1.4 8.4 3.4 13.1 4.8 19 7.9l6.3 3.4q3.7 2 5.5 3.3 1.3.8 2.6 1.3 3.3 1.1 5.5 3.6l1.8 1h.1l-.2 4.9-3.9-2q-5-7.1-12-10.7T18 47h-.2zm46 35-1.6-.3-2.6-1.3-10.4-5.4-6-3.2-4.2-2.5q.3-.7 5.4-.9H34l3.9.1 11.7 6z"/><path fill="none" stroke="#0c100e" stroke-linecap="round" stroke-linejoin="round" stroke-opacity=".3" stroke-width="__RESOLUTION__" d="m91.6 26.2 1.9-1-37-18.8h-4.6L14.8 25.2l2 1 4.3 2.2.6.4 2.3 1 3.1 1.7 3.9 2 2.2 1.1 6.6-3.3m23.3-3.8-11.7 5.8m-3.1 1.6-7.4 3.6 5.1 2.6 2.1 1.1 2.2 1.1 1.3.7 5.3-.1 18-9.2 1.9-1 14.8-7.5m6.9 16.4 5.8-3m2.5 2.5-46 23.3-3.4 1.8-7.1.1-.8-.4L37.8 61l-9.1-4.6L.7 42m40-3.5h.2m27.2-13.6 10.5-5.2M23.8 27l2.4-1.2m18.4-9.2 2.9-1.5m3.4-1.7 7.9-4M38.3 26l7.3-3.7M58.2 16l6.6-3.2M58.7 22l12.2-6.1m-17.7 8.8 3.6-1.9m-5.5 2.9 2-1M36 36.1l2.8 1.4 1.9 1m7.4 3.7 8.7-4.4m10.7-5.3L78 27.4m1.7-1 6.3-3m-35 2.4.4-.2m11.8 1.9 2.8-1.4M45.8 61.3l3.9 2 .5.3 7.1-.1 41.2-21M17.8 47 3.1 39.5m33-3.4-2.9-1.5M21 28.4l2.8-1.3m3.3 4.4 11.2-5.6m7.5 35.4L17.8 47" vector-effect="non-scaling-stroke"/><path fill="none" stroke="#0c100e" stroke-linecap="round" stroke-linejoin="round" stroke-opacity=".3" stroke-width="1.2" d="m104.4 39.6 2.4-1.3V26.1l-6-3.1L62.4 3.5m-.2-.2L56.8.6h-6.1L3 24.8M106.9 42v16L57.4 83.2h-7.1l-1.6-.9-19.8-10L.7 58V42L3 39.5.7 38.3v-8.9m103.7 10.2 2.4 2.5"/><path fill="#242f32" d="M68 60.8v-2.5l7.2-3.7v2.5z"/><path fill="#37464e" d="m68 58.3-1.5.7v-5.6l10-5.1V54l-1.3.6z"/><path fill="none" stroke="#0c100e" stroke-linecap="round" stroke-linejoin="round" stroke-opacity=".3" stroke-width="__RESOLUTION__" d="m68 58.3-1.5.7m10-5-1.3.6-7.2 3.7m7.3-1.2L68 60.7" vector-effect="non-scaling-stroke"/><path fill="none" stroke="#8a9aa4" stroke-linecap="round" stroke-linejoin="round" stroke-opacity=".5" stroke-width="__RESOLUTION__" d="M66.6 59v-5.6" vector-effect="non-scaling-stroke"/><path fill="none" stroke="#abb5ba" stroke-linecap="round" stroke-linejoin="round" stroke-opacity=".5" stroke-width="__RESOLUTION__" d="m66.6 53.4 10-5.1" vector-effect="non-scaling-stroke"/><path fill="#37464e" d="M88.5 48v-5.6l10-5.1V43l-1.4.6-7.2 3.7z"/><path fill="#242f32" d="m97.1 43.6.1 2.5q-3.6 1.9-7.3 3.6v-2.4z"/><path fill="none" stroke="#8a9aa4" stroke-linecap="round" stroke-linejoin="round" stroke-opacity=".5" stroke-width="__RESOLUTION__" d="M88.5 48v-5.6" vector-effect="non-scaling-stroke"/><path fill="none" stroke="#abb5ba" stroke-linecap="round" stroke-linejoin="round" stroke-opacity=".5" stroke-width="__RESOLUTION__" d="m88.5 42.4 10-5.1" vector-effect="non-scaling-stroke"/><path fill="none" stroke="#0c100e" stroke-linecap="round" stroke-linejoin="round" stroke-opacity=".3" stroke-width="__RESOLUTION__" d="m98.5 43-1.4.6-7.2 3.7-1.4.7m8.7-1.9q-3.6 1.9-7.3 3.6" vector-effect="non-scaling-stroke"/><path fill="#596e7e" d="m.6 50.3 5.7 3.2v6.1l-5.8-3zm48.6 12.2-5.4-3.1v-5.8l5.4 3zm-.5 19.2-5.6-3.2v-6.2l5.6 3.2z"/><path fill="#37464e" d="M107 50.4v6.2l-5.6 3.1v-6.2zm-49 6.2 5.3-3v5.9l-5.3 3zm0 18.9 5.6-3.2v6.3l-5.5 3.1z"/><path fill="#4e616e" d="M49.2 56.6H58v5.9h-9zm-.4 25.1v-6.2h9.4v6.2z"/><path fill="none" stroke="#0c100e" stroke-linecap="round" stroke-linejoin="round" stroke-opacity=".3" stroke-width="1.2" d="m.6 50.3 5.7 3.2m0 6.1-5.8-3M107 50.4v6.2m-43.7-3v5.9m-5.3 3h-9m14.5 9.8v6.3M58 81.7h-9.4"/><path fill="none" stroke="#8f9fa7" stroke-linecap="round" stroke-linejoin="round" stroke-opacity=".3" stroke-width="1.2" d="M.6 56.5v-6.2"/><path fill="none" stroke="#0c100e" stroke-linecap="round" stroke-linejoin="round" stroke-opacity=".3" stroke-width="1.2" d="m107 56.6-5.6 3.1m0-6.2 5.6-3.1m-57.8 6.2H58l5.3-3m0 5.9-5.3 3m-8.9 0-5.3-3.1v-5.8l5.4 3m-.5 18.9-5.6-3.2v6.2l5.6 3.2m0-6.2h9.4l5.5-3.2m0 6.3-5.5 3.1"/></g><g id="m"><path fill="#000" fill-opacity=".3" d="M132.4 51.5v16Q112.9 59 89 95.5l-8.3 11.3-1-17.2Q48.2 59.1 28 74.6H12.5v-2L26.3 69v-7.5l27.4-8.3z"/><path fill="#e2ded8" d="M29 39.9q6-6.3 12-13.9l.3-.4q4.5-5.7 8.9-12.1L76.1.2h4.4l7.8 4h-11l-19.5 8.3z"/><path fill="url(#b)" d="m9.2-82.7 12.5 6.5-1.7.2v1.2l4.8.3-2.2 1.4 1.5 1.4h-.6l-6.7-.7q-4.6 2.5-15.3 7h-.2l-1.2.5-4.2.4q-2 .3-4.6-.6l-4-1.7-9.9-4.3q-2.8 2.2-9.4 9.1-10.6 13.6-14.1 17.3L-51-39l-5 6.8q-3.7 4.8-4.2 6l-2.8 7.3-3.8 2.3q6.3-9.5 12-21l4.3-9.1.4-.3 28.8-27.4L-2-82.7z" transform="translate(79.15 86.9)"/><path fill="url(#c)" d="m21.7-76.1 6.9 3.5L3.4-60 .9-54.3V-25Q23.8-44.9 47-51.9l6.6 6L69-15l-2.7-2Q53.6-44.1 51-44.1q-34.7 13-42.8 19-6.2 4.6-6.5 16v3.4q-2.2-4.6-6-9.6-7.7-10.3-16-11.6 6.1 5.3 9.3 9.6 3.3 4.5 5.3 9.6-3.9-4.8-12-11.4-13-10.5-21-10.5-3.4 0-11.6 2.5-9.1 2.8-10.3 5h.6q3.8-1.8 11.5-2.8-7 1.6-14.5 6l2.8-7.3q.5-1.2 4.2-6l5-6.8 4.9-5.7q3.5-3.7 14.1-17.2 6.6-7 9.5-9.2l9.8 4.3 4 1.7q2.6 1 4.6.6l4.3-.4 1-.4.3-.2q10.8-4.4 15.3-7l6.7.8h.6l-1.5-1.4 2.1-1.4-4.7-.3V-76zm-36 13.5q-.2-.5-1.3-.5-.7 0-3.1 6-2.8 7.1-3.5 8.2-5 7.9-12.7 14.2l-1 1.2-1.4 1.7h.3q3.1 0 13.7-11v.1q-.2 1.5-2.6 5.8l-2.4 5h.1l8.4-15q5.5-10.9 5.5-15.5zQ-7.2-59.4-1.8-42v-13.5L-8.1-61zm-42.8 34.5.2.1q.6-.4 5.5-2l4.8-1.4.5-.2 1.2-.3h.1l2.4-.4 2.5.1-.2-.2h-.4l-3-.2q-9.9 0-13.6 4.5m2.1 1-4.6 2.4q0-.7 2.2-2.6-2.2 1.8-2.2 2.6z" transform="translate(79.15 86.9)"/><path fill="#887d66" d="M107.8 14.4Q112.6 21 119 28q3.3 3.5 7 7-23 7-46 26.8V32.5l2.6-5.6zm-26 81-.1.5-.1.3zM22 58.7q3.7-4.5 13.6-4.5l2.9.2h.4l.3.2h-2.5l-2.4.3H34l-1.2.3-.5.2-4.8 1.4q-4.8 1.6-5.4 2zm57 32-.1.4z"/><path fill="url(#d)" d="M66.4-17Q26-47.8 2.3 17l-.4-1Q-4.6.2-12.3-9.6-26.9-28.3-46-25.4l-2.5.5q-7.7 1-11.5 2.8h-.6q1.2-2.2 10.3-5 8.2-2.5 11.6-2.5 8 0 21 10.5 8.1 6.6 12 11.4-2-5.1-5.3-9.6-3.2-4.3-9.3-9.6 8.3 1.3 16 11.6 3.8 5 6 9.6v-3.4q.3-11.5 6.5-16 8.1-6 42.8-19 2.6 0 15.3 27.2M34-28.1q-7 1.6-12.2 6.5-3.6 3.4-7.4 9.9 3.8-6.5 7.4-10Q27-26.6 34-28.1m6-2q-4-.4-10.5 2 6.6-2.4 10.5-2m15.8-2.3q16 17.5-3.3 2.3 19.4 15.2 3.3-2.3M2.5 8.6l-.2.7.1-.4zQ3.2 2 4.5-3 3.2 2 2.6 8.5L5.8-.8zM0 3.7h-.2v.5q.2 0 .2-.4zl-2.2-8zm-3.8-6.1 3.6 6.2z" transform="translate(79.15 86.9)"/><path fill="#afa691" d="M64.8 24.2v.3q0 4.6-5.6 15.4l-8.3 15h-.1l2.4-5q2.3-4.2 2.6-5.8l-.1-.1Q45.2 55 42 55h-.2l1.4-1.7 1-1.2q7.7-6.3 12.7-14.2.6-1.1 3.5-8.2 2.3-6 3-6 1.1 0 1.4.5"/><path fill="#9b927d" d="m64.8 24.2 6.3 1.6 6.3 5.7v13.4q-5.5-17.4-12.7-20.7"/><path fill="none" stroke="#000" stroke-linecap="round" stroke-linejoin="round" stroke-opacity=".3" stroke-width="__RESOLUTION__" d="M29 39.9q6-6.3 12-13.9l.3-.4q4.5-5.7 8.9-12.1L76.1.2h4.4l7.8 4 12.5 6.6 7 3.6Q112.6 21 119 28q3.3 3.5 7 7l6.7 6L148 72l-2.6-2q-40.4-31-64 33.9l-.4-1q-6.5-15.8-14.2-25.6-14.7-18.7-33.7-15.8m-2.6.5q-7 1.6-14.5 6l-3.7 2.4q6.2-9.6 12-21l4.3-9.2.4-.3m64.3 35.3q3.8-6.5 7.5-10 5.1-4.8 12.1-6.4m-4.5 0q6.6-2.4 10.5-2m12.6 0q19.3 15.2 3.2-2.3m-53 41-.1.4-.1.3zq.6-6.6 1.8-11.6m-1.8 11.5 3.2-9.3M21.7 59.5q-2.3 1.9-2.3 2.7.3 0 4.7-2.4M79 90.7v.4zl-2.2-8m2 8-3.5-6.1" vector-effect="non-scaling-stroke"/><path fill="#756b57" d="m103.9 28.5 2.3-.1q5.3 6 11.1 9.5h-5v1.8q-4.7-4.4-8.4-11.2"/><path fill="#887d66" d="M48.6 40.7q4.6-5.2 8.8-12.2l.2-.3 2.7-1.1q-2.8 7.9-7 13.6-1.5-1.8-4.7 0M68 30.3l1.7 2q-2.4 11.4-7.6 19.3L53.9 58l3.2-4q6.8-10 11-23.7"/><path fill="none" stroke="#000" stroke-linecap="round" stroke-linejoin="round" stroke-opacity=".3" stroke-width="__RESOLUTION__" d="m94.9 30 .3 1.4M103 27l.8 1.5 2.3-.1q5.3 6 11.1 9.5l2.1 1.1m-22.2-1q2.2 5.4 5.5 8.9m9.7-7.2 2.7 2.2m-18.6-5.8.5 1.4m6.9-9q3.7 6.8 8.5 11.2m-63.8 1q4.6-5.2 8.8-12.2l.2-.3 2.7-1.1q-2.8 7.9-7 13.6l-1.1 1.4M53.9 58l3.2-4q6.8-10 11-23.7M48.6 40.7l-4 4" vector-effect="non-scaling-stroke"/><path fill="#c0baad" d="m8 70.7-.6-.7-.6-1.5 2.1-2.3 2.2.3.2.3q-2.6 2.5-3.2 3.9"/><path fill="#a69c87" d="m11.3 66.8.7-.6 2.8 2.9Q12 70.5 10 73l-.2.3-.2.2L8 71.9l-.5-.5.6-.7q.7-1.5 3.2-4"/><path fill="#7d7160" d="m14.8 69 .8.9-.6.5.3.3-1.4 1.5-3.3 2.4-.1-.2-.8-.8-.1-.1.2-.2.2-.3q2-2.5 4.8-4M.6 74l5.9-1.8 1.4 1.4-5.1.5z"/><path fill="#655e4e" d="m15.3 70.8.6.5.2 2.4-1.9 1.9-1.8-.6-.8-.8-.7.7-.3-.3 3.3-2.4zm-5.4 4.9q-.8 1.4-1.2 1.6l-.2-.8.6-1.7zm-1.2-1.2q-1.5.7-4.5.7-1.5 0-4-.9v-.1l.4-.1h2.2l5-.4.7.6z"/><path fill="#3e3831" d="m10.5 74.4-.6 1.2-.8-.8.3-.9-.7.5-.2-.2-.6-.6-1.4-1.4 1.5-.3 1.6 1.6-.2.4.3-.3z"/><path fill="none" stroke="#000" stroke-linecap="round" stroke-linejoin="round" stroke-opacity=".3" stroke-width="__RESOLUTION__" d="m8 70.7-.6-.7-.6-1.5 2.1-2.3 2.2.3.2.3h0l.7-.6 2.8 2.9.8.8-.6.5.3.3.6.6.2 2.4-1.9 1.9-1.8-.6-.8-.8-.7.7-.3-.3-.1-.2-.6 1.2q-.8 1.4-1.2 1.6l-.2-.8.6-1.7.3-.8-.7.5q-1.5.7-4.5.7-1.5 0-4-.9v-.1l.4-.1 5.9-1.8 1.5-.3-.5-.5.6-.7zm1.5 2.8.9.8m-1.1-.5.2-.4L8 71.9m1.7 1.7-.3.3" vector-effect="non-scaling-stroke"/><path fill="#c0baad" d="m148 66.5.3-.3 2.1-.3 2.2 2.3-.6 1.5-.7.7q-.7-1.5-3.2-4"/><path fill="#a69c87" d="m151.3 70.4.6.8-.5.4-1.6 1.6-.2-.2-.2-.3q-2-2.5-4.8-4l2.8-2.8.6.6q2.6 2.5 3.3 3.9"/><path fill="#3e3831" d="m151.4 71.6 1.5.3-1.4 1.4-.6.6-.2.2-.7-.5.3.9-.9.8-.5-1.2.8-.8.3.3-.2-.4z"/><path fill="#7d7160" d="m152.9 71.9 5.9 1.8h-2.2l-5.1-.4zm-4 2.2-.2.2-3.2-2.4-1.4-1.5.3-.2-.7-.6.9-.8q2.8 1.4 4.8 3.9l.2.3.2.2-.1.1z"/><path fill="#655e4e" d="m158.8 73.7.3.1.1.1q-2.5.9-4 .9-3 0-4.5-.7l.2-.2.6-.6 5.1.5zm-8.5.8.6 1.6-.2.8q-.4-.2-1.2-1.7zm-1.6-.2-.2.3-.7-.7-.8.8-1.9.5-1.8-1.8.2-2.4.6-.5 1.3 1.4z"/><path fill="none" stroke="#000" stroke-linecap="round" stroke-linejoin="round" stroke-opacity=".3" stroke-width="__RESOLUTION__" d="m148 66.5.3-.3 2.1-.3 2.2 2.3-.6 1.5-.7.7h0l.6.8-.5.4 1.5.3 5.9 1.8.3.1.1.1q-2.5.9-4 .9-3 0-4.5-.7l-.7-.5.3.9.6 1.6-.2.8q-.4-.2-1.2-1.7l-.6-1.1-.2.2-.2.3-.7-.7-.8.8-1.9.5-1.8-1.8.2-2.4.6-.5.3-.3-.7-.6.9-.8 2.8-2.9zm2 7.1-.3-.3-.8.8m.8-.8.1.4m1.5-2-1.6 1.6" vector-effect="non-scaling-stroke"/><path fill="#c0baad" d="M84.5 101.1h.3l1 .7-1 2.3-1.4.7-.8.2q.9-1.2 1.9-3.9"/><path fill="#a69c87" d="M84.5 101.1q-1 2.7-1.9 3.9h-.1l-.3.7h-.5l-1.8.3v-.2l.2-.3q1.3-2.4 1.4-4.5l3.2-.5z"/><path fill="#3e3831" d="m81.7 105.7.3.9-1.6.2-.7.1h-.2l.1-.6-.5.7-1 .1.7-1 .9-.1-.1.3.3-.3z"/><path fill="#7d7160" d="M82 106.6q1.3.9 2.8 5-2.4-1.6-3-2.2-1.3-1.7-1.4-2.6zm-3.1-.4.7-3 .5-1.4h.3l.4-.7.9-.1q-.1 2-1.4 4.5l-.1.3-.1.2h-.2z"/><path fill="#655e4e" d="M84.8 111.7h-3q-2.6-2.3-2.6-3t.3-1.7l.2-.1.7-.1q0 .9 1.4 2.6.6.6 3 2.3m-5.7-4.7-1.1 1.2-.7.5q0-.4.8-1.6zm-.4-.8h-.4l.3-.6-1 .1-1-.5.8-2 2-1.3.5-.1-.5 1.5z"/><path fill="none" stroke="#000" stroke-linecap="round" stroke-linejoin="round" stroke-opacity=".3" stroke-width="__RESOLUTION__" d="m82.6 105 .8-.2 1.3-.7 1-2.3-.9-.7h-.3 0l.2-.6-3.2.5-1 .1-.2.7h-.9l-2 1.4-.8 2 1 .5 1-.1-.3.7.4-.1h.1l-.7.9q-.8 1.2-.8 1.6l.7-.5 1-1.2.6-.7-.1.7q-.3 1-.3 1.7t2.6 3h3q-1.5-4.2-2.8-5.1l-.3-.9h.5zm-2.7 1 1.8-.3m-2.1.6.1-.3-.9.2m.9-.2h.2l-.3.3" vector-effect="non-scaling-stroke"/><path fill="#697928" fill-opacity=".3" d="m120.8 34.3-.5 2.6h-.4l-.7-3-.1.2-.2 1.4q-.1.9-.5.8-.2-3.7-1-4.6-3.6-3-3.6-3.5l.2-.6-.3-3-.2-2.6-1.1-1.1-.7-1.4q5.5 7 11.4 12.2l-.6 1.7-1.2-1.3q-.3 0-.5 2.2m-6.3.7q-.5-2.8-.5-5 1 .3 1 2.5zM65.8 51q.7 0 5.6 2.7l.7-1.3.3-.3q1.2 3.2 1.6 3.2 1.8 0 2.2 1.3v.8q0 1-1.4 1.8l-.2.1q-1.1.6-1.2 2.1l-.1.4q0 3.6-.3 7.7l-.2.3q-.4-.7-1-5.6V64q-.4-4-2-4-.9 0-.9 5.1l.3 1.8q0 1.7-2 1.4-2.2-.2-2.7 2.5l-.2-1.4q0-2.2 2.1-1.7 2.1.4 2.1-2l-1.2-8.2-1.8-6.2zm-1.5 22.6.4-1.2q.5.4.7 1.8v.7l-.2.2-1-.9v-.4z"/><path fill="#afc653" fill-opacity=".1" d="m81.3 6.1 4.7.7q1.6 0 3.6-.8l4 4.6q1.6 1.6 3.2 2.4-1.9.1-2.5 2.3 0 .3.6 1.3l-.4-.2-1-.4q-.6 0-.7.6l-.1 1.8-1.3-1.4-3.7-3.4Q86 12 83.2 11.3l-1.6-.3-2.7-.3-1.8-.4q1.4-1.3 1.4-1.9 0-.7-.8-1.7t-.8-1.3l.2-.7q1 .7 4.3 1.4m.3 8.5-.6 1.9q-.4-.5-1.6.5L78 18.2V18q1-2.1 1-2.7l-3.3 1.2v-.1q4.7-3 6.9-3.5zm-6-4.5q-7.3 2.6-9.5 2.6l-1.4-.1q3.6-1.1 9.7-3.4l-.2-.4h.5q1.5 0 1.5.3 0 .7-.6 1"/></g><g id="l" transform="translate(.6 .6)"><use xlink:href="#f" width="109" height="53.8" filter="url(#g)" transform="translate(16.1 33.25)"/><use xlink:href="#h" width="107.6" height="83.8" transform="translate(-.6 -.6)"/></g><clipPath id="k"><path d="M1 1h160v112H1z"/></clipPath><filter id="g" filterUnits="userSpaceOnUse"><feConvolveMatrix divisor="49" in="SourceGraphic" kernelMatrix="1 1 1 1 1 1 1 1 1 1 1 1 1 1 1 1 1 1 1 1 1 1 1 1 1 1 1 1 1 1 1 1 1 1 1 1 1 1 1 1 1 1 1 1 1 1 1 1 1" order="7 7" result="filter1"/></filter><path id="j" fill="#0c100e" fill-opacity=".3" d="M50.1 53.8 0 29.1 59 0l50 24.7z"/><use xlink:href="#j" id="f" width="109" height="53.8"/></defs><g clip-path="url(#k)"><g transform="translate(80.15 87.9)"><use xlink:href="#l" width="125.8" height="87.7" transform="translate(-53.65 -71.55)"/><use xlink:href="#l" width="125.8" height="87.7" transform="translate(-30.7 -86.7)scale(.5544)"/><use xlink:href="#m" width="159.3" height="111.8" transform="translate(-79.15 -86.9)"/></g></g></svg>