<svg xmlns="http://www.w3.org/2000/svg" xmlns:xlink="http://www.w3.org/1999/xlink" width="224" height="126" viewBox="0 0 224 126"><defs><g id="k"><path fill="#957549" d="M1.8 15.8q.7-1.2 1.1-3.2l.6-1.8.5 3.8 3-9.5 4-3.6q3 3.4 4.9 6.7l-.2 7.1-1.4-7.4-3.9-4.3-1.2 1.2-5 11.2 3.2 1.9h-2l-1.8-.2h-.3l-.4-.1-.2-.1zm1.5 1.8.3.1-.3.7zm12.4-2.3.2-7.1 1.2 8.4V19l-.2.6-.6-.1.1 4.6q0-1.2.4-2l.2-1.6.1-1.4-.2.5-.6-.1-.7-.2v-1.6zM1.1 22.1l-.3.5zm14.6-4.4.6.2z"/><path fill="#d7bd6a" d="m1.8 15.8.9 1.7-1.5 4.2zM11 1.6 7 5.1l-3 9.5-.5-3.8 1.8-3.9.1-.4 1.9-3.2L9.7.1zm6 15.1.8-1zV19l.9-1.8-.2-1.6-2-7.4z"/><path fill="#bc9151" d="M2.7 17.5h.2l.4.1v.1L2.8 19l-1 10.9-1.7-1.3.8-5.7.2-.7v-.4zm15.8 8.4-1.3-5-.4 1.2.2-1.6.1-1.4.9-1.9q.4 4 .5 8.7"/><path fill="#352b20" d="m3.6 17.7 1.8.3 4 1.3 4-2.2 2.3.6-.1 1.6.7.2.1 4.6q0-1.2.4-2l.4-1.2 1.3 5v.2l-1.1 2.4-4.5 4.2-6-.5-.6-.2v1l-4.4-3.2.9-11 .5-1v.6z"/><path fill="#403326" d="m5.4 18 1.8-.1-3-1.9L9.3 4.9l1.1-1.3 3.9 4.3 1.4 7.4v2.4l-2.3-.6-4 2.2zm7.9-4-.5 1.7q-2.5 1.7-5 2.2h-.5.5q2.5-.6 5-2.2z"/><path fill="#735c42" d="m17.4 28.5 1.1-2.4.1 2.4z"/><path fill="none" stroke="#240c00" stroke-linecap="round" stroke-linejoin="round" stroke-opacity=".4" stroke-width="__RESOLUTION__" d="m3.5 10.8-.6 1.8q-.4 2-1 3.2l-.7 5.9-.2.4M16 8.2q-2-3.3-4.9-6.7L9.7.1 7.3 3.3 5.4 6.5l-.2.5-1.7 3.8m13.9 17.7 1.1-2.4v-.2q0-4.7-.5-8.7l-.2-1.6-2-7.4M1.2 22.1l-.2.6-.8 5.8m18.5 0-.1-2.4" vector-effect="non-scaling-stroke"/><path fill="none" stroke="#240c00" stroke-linecap="round" stroke-linejoin="round" stroke-opacity=".2" stroke-width="__RESOLUTION__" d="m1.8 15.8.9 1.7h.2l.4.1h0l.3.1 1.8.3 1.8-.1.6-.1q2.5-.6 5-2.2l.5-1.7m2.4 1.4.2-7.1m-.2 9.5-2.3-.6-4 2.2-4-1.4m10.9 1.6-.7-.2v-1.6l.1-2.4M1.1 22.1l-.3.5zm0-.4 1.6-4.2m15-1.9-.6 1m0 2.4.9-1.8m-.9 1.9-.2.5-.6-.1m0-1.6-.7-.2" vector-effect="non-scaling-stroke"/></g><g id="i"><path fill="#ffe76b" fill-opacity=".2" d="M64.4 24.5 53.7 40.7l-21.2 8.8-22.9-9.9L0 25.1 14.8 8.6 33.6 0l24 9.5zM41.1 7.8l-20.8 6-7 7.2v9.6l22 10.9 14.3-9.3 3.5-12z"/><path fill="#fef1ab" fill-opacity=".4" d="m40.5 15.2 8.1 5.3-2.2 6.2L25.2 32l-5.3-9.2 5.4-3.5z"/><path fill="#ffe242" fill-opacity=".4" d="m40.5 15.2-15.2 4.1-5.4 3.5 5.3 9.2 21.2-5.3 2.2-6.2zm.6-7.4 12 12.3-3.5 12.1-14.2 9.3-22.1-10.9V21l7-7.2z"/></g><g id="h"><path fill="#c96705" fill-opacity=".2" d="m41 20.8 1 3.4-9.8 4.8-7.9-.9-2.4-3.7 2-2.9 1.5-1.5 10.4-2.1z"/><path fill="#e27e02" fill-opacity=".2" d="m41 20.8-5.2-2.9L25.4 20l-1.5 1.5-2 3 2.5 3.6 7.8.9 9.8-4.7zm-3.2-7.5 7.7 6.7-.5 7-10.6 8.6-14.5-3.7-2.8-5.6 1.5-4.2 4.8-7.2z"/><path fill="#f90" fill-opacity=".2" d="m37.8 13.2-14.4 1.6-4.7 7.2-1.6 4.2 2.8 5.6 14.5 3.7L45 26.8l.5-6.9zm-.2-4.9 12 12.3-3.5 12.1L31.8 42l-19.2-8.2-2-12.2L21 10.5z"/><path fill="#ff9800" fill-opacity=".1" d="M37.6 8.3 21 10.5 10.6 21.6l2 12.2L31.9 42 46 32.7l3.5-12zm9.9-5.9L58.8 19l-7.9 23.7-20.4 6.4-21.1-7.5L0 21.5 18 0l9 1.3z"/></g><g id="g"><path fill="#ffe76b" fill-opacity=".5" d="M64.4 24.5 53.7 40.7l-21.2 8.8-22.9-9.9L0 25.1 14.8 8.6 33.6 0l24 9.5zM41.1 7.8l-20.8 6-7 7.2v9.6l22 10.9 14.3-9.3 3.5-12z"/><path fill="#fef1ab" d="m40.5 15.2 8.1 5.3-2.2 6.2L25.2 32l-5.3-9.2 5.4-3.5z"/><path fill="#ffe242" d="m40.5 15.2-15.2 4.1-5.4 3.5 5.3 9.2 21.2-5.3 2.2-6.2zm.6-7.4 12 12.3-3.5 12.1-14.2 9.3-22.1-10.9V21l7-7.2z"/></g><g id="f"><path fill="#c96705" fill-opacity=".5" d="m41 20.8 1 3.4-9.8 4.8-7.9-.9-2.4-3.7 2-2.9 1.5-1.5 10.4-2.1z"/><path fill="#e27e02" fill-opacity=".5" d="m41 20.8-5.2-2.9L25.4 20l-1.5 1.5-2 3 2.5 3.6 7.8.9 9.8-4.7zm-3.2-7.5 7.7 6.7-.5 7-10.6 8.6-14.5-3.7-2.8-5.6 1.5-4.2 4.8-7.2z"/><path fill="#f90" fill-opacity=".5" d="m37.8 13.2-14.4 1.6-4.7 7.2-1.6 4.2 2.8 5.6 14.5 3.7L45 26.8l.5-6.9zm-.2-4.9 12 12.3-3.5 12.1L31.8 42l-19.2-8.2-2-12.2L21 10.5z"/><path fill="#ff9800" fill-opacity=".2" d="M37.6 8.3 21 10.5 10.6 21.6l2 12.2L31.9 42 46 32.7l3.5-12zm9.9-5.9L58.8 19l-7.9 23.7-20.4 6.4-21.1-7.5L0 21.5 18 0l9 1.3z"/></g><g id="e"><path fill="#c96705" fill-opacity=".4" d="m41 20.8 1 3.4-9.8 4.8-7.9-.9-2.4-3.7 2-2.9 1.5-1.5 10.4-2.1z"/><path fill="#e27e02" fill-opacity=".4" d="m41 20.8-5.2-2.9L25.4 20l-1.5 1.5-2 3 2.5 3.6 7.8.9 9.8-4.7zm-3.2-7.5 7.7 6.7-.5 7-10.6 8.6-14.5-3.7-2.8-5.6 1.5-4.2 4.8-7.2z"/><path fill="#f90" fill-opacity=".4" d="m37.8 13.2-14.4 1.6-4.7 7.2-1.6 4.2 2.8 5.6 14.5 3.7L45 26.8l.5-6.9zm-.2-4.9 12 12.3-3.5 12.1L31.8 42l-19.2-8.2-2-12.2L21 10.5z"/><path fill="#ff9800" fill-opacity=".2" d="M37.6 8.3 21 10.5 10.6 21.6l2 12.2L31.9 42 46 32.7l3.5-12zm9.9-5.9L58.8 19l-7.9 23.7-20.4 6.4-21.1-7.5L0 21.5 18 0l9 1.3z"/></g><g id="c"><path fill="#1c1813" d="m110.3 7.6 1.2.7-2.3 3.5-.2-.1-3.4-2.1-1.2-.8-12 .2-3.4 2.3 6-.4q-5.2.9-5.2 1.5l-2-.3-1.6 1.2-1.5-1-4.9.7 3.2-2-1.2-.7-3.2-.6-5.3-.8-3.7-.7-5.2 1.6 1.5 1.3-1.3 1 6.5 2.1 2.9 1h-4.2l-3.1-1.4-3.7-.6-.6.6-7.9 3.3h-.1l-7.9-2.5-9.2 2 3.7 2.6-4.5-1.6-4.5 1 2-1.3 5-3.2 1.6-1.3q-2-2.2-9.6-3l-3.7 2.8-2.3 1.6 2.9 2.6-3.5-2.2-.1.2-6-3.6-4 .9-12-2 12-2.3 10.1 1.8L32 6.8 39.9 8q6.8 1.1 5.4 2.9 2.4-1.2 9.3 1.1l.8.3L48 9.6 54.4 8l5.8 1.1 10.6-2.4 15.5 2.2-1.3 1.7 6-2.2 6.3-1zm-34.1.8 6.2 1.8-3-1.6zm-29 .9-1.9-.7 3.1-1.8 5.4 1-5.4.6zM31.7 8.2l9.8 2.3L37 8.3zm-15.3 1-.5.2-2.3-1-4.4 1.7 3.9-.6.2.6 6.9.6z"/><path fill="#ad6c01" d="m110.3 7.6-13-.2-5.4-.1-5 .9-.6.8-15.5-2.3-10.6 2.4L54.4 8h.1l1.3-.4-2 .3-5.4-1.1-3.1 1.8-.3.2-5.1-.8-8-1.2-7.5 2.8-10.1-1.8-12 2.3L0 9.8l3.3-2.2L53.4 0l56 7.1z"/><path fill="#df7813" d="m97.4 7.4-6.5 1-5.9 2.2 1.3-1.7.6-.7 5-.9z"/><path fill="#fba515" d="M54.4 8 48 9.6h-1.7l1-.3 1.1-.9 5.4-.5 2-.3-1.2.4z"/><path fill="#d28402" d="m48 9.6 7.4 2.7-.9-.3q-6.9-2.2-9.2-1.1Q46.7 9.1 40 8l5.1.8.3-.2 2 .7-1 .3z"/><path fill="#1c1712" fill-opacity=".5" d="M27.3 12.6 31 9.8q7.5.8 9.6 3L39 14l-5 3.2-2.9-.7 4-1.2.1-2.2-3.5-1.2zM71 14.2l-6.5-2.1 1.3-1 4.1.7zm-6.7-4.4 5.2-1.6 3.7.7zm14.3-.1 3.3.6 1 .7-3 2 4.1-.2-1.8 1.8-7.2.8 1.8-1 .6-1.3-1.7.1-.5-1.4zm27.1-.1 3.4 2.1-.4.6-2.7 1.4-7-.6 3.1-.9-.7-.3h4.3L103 11zm-8.8 4.8 2 .4-2.1 1.1-2.4-1.2z"/><path fill="#f49a04" d="m76.2 8.4 3.3.2 2.9 1.6zm-59.8.8 3.8 1.5-6.9-.6-.2-.6-3.9.6 4.4-1.7 2.3 1z"/><path fill="#c46d04" d="m31.7 8.2 5.3.1 4.5 2.1z"/></g><path id="j" fill="url(#a)" d="M37.3-37.3Q52.8-22 52.8 0T37.3 37.3Q21.9 52.8 0 52.8t-37.3-15.5Q-52.8 21.9-52.8 0t15.4-37.3Q-21.8-52.8 0-52.8t37.3 15.4" transform="translate(52.8 52.8)"/><path id="d" fill="#fc0" d="M93.5 2.2v23h-197.2l-2.6-10.4 1.2-12.6h-3.6l-.5-.6L-3.7-94 103.2 2l-.4.3z" transform="translate(109.25 93.95)"/><radialGradient id="a" cx="0" cy="0" r="819.2" gradientTransform="scale(.06)" gradientUnits="userSpaceOnUse" spreadMethod="pad"><stop offset="0" stop-color="#ff5900" stop-opacity=".3"/><stop offset=".6" stop-color="#ff8c00" stop-opacity=".2"/><stop offset="1" stop-color="#ff8c00" stop-opacity="0"/></radialGradient><clipPath id="b"><path d="M1 1h222v124H1z"/></clipPath></defs><g clip-path="url(#b)"><g transform="translate(112.7 95.95)"><use xlink:href="#c" width="111.5" height="19.3" transform="translate(-55.2 4.3)"/><use xlink:href="#d" width="212.4" height="119.2" transform="translate(-102.8 -94.95)"/><use xlink:href="#e" width="58.8" height="49.1" transform="matrix(.5427 0 0 .2864 -11.15 -5.2)"/><use xlink:href="#e" width="58.8" height="49.1" transform="matrix(.7663 0 0 .4044 -55.35 .75)"/><use xlink:href="#e" width="58.8" height="49.1" transform="matrix(.3504 0 0 .1849 -34.65 5.65)"/><use xlink:href="#e" width="58.8" height="49.1" transform="matrix(-.1385 -.1696 -.3214 .0731 -16.7 15.45)"/><use xlink:href="#e" width="58.8" height="49.1" transform="matrix(-.1385 -.1696 -.3214 .0731 -19.9 8.4)"/><use xlink:href="#e" width="58.8" height="49.1" transform="matrix(.349 0 0 .1842 -33.1 -4.95)"/><use xlink:href="#f" width="58.8" height="49.1" transform="matrix(-.2441 -.0865 -.1638 .1289 -11.65 -.85)"/><use xlink:href="#e" width="58.8" height="49.1" transform="matrix(-.3291 -.4032 -.7641 .1737 53.95 20.3)"/><use xlink:href="#e" width="58.8" height="49.1" transform="matrix(.9063 0 0 .4783 31.05 1.7)"/><use xlink:href="#e" width="58.8" height="49.1" transform="matrix(.349 0 0 .1842 -5.6 8.05)"/><use xlink:href="#e" width="58.8" height="49.1" transform="matrix(.4991 0 0 .2634 -94.95 3.45)"/><use xlink:href="#e" width="58.8" height="49.1" transform="matrix(.509 0 0 .2686 9.7 7.65)"/><use xlink:href="#e" width="58.8" height="49.1" transform="matrix(-.0087 .3093 -.6529 -.0046 -59.7 .15)"/><use xlink:href="#g" width="64.4" height="49.5" transform="matrix(-.0479 .1842 -.4698 -.0208 -42.45 7)"/><use xlink:href="#g" width="64.4" height="49.5" transform="matrix(.1581 .0385 -.073 .0835 34.15 -6.2)"/><use xlink:href="#h" width="58.8" height="49.1" transform="matrix(.5427 0 0 .2864 74.9 4.15)"/><use xlink:href="#e" width="58.8" height="49.1" transform="matrix(.7663 0 0 .4044 -7.5 -11.45)"/><use xlink:href="#e" width="58.8" height="49.1" transform="matrix(.462 0 0 .2968 -52.55 -9)"/><use xlink:href="#e" width="58.8" height="49.1" transform="matrix(-.3822 -.1354 -.2565 .2017 -3.55 -1.5)"/><use xlink:href="#e" width="58.8" height="49.1" transform="matrix(.5427 0 0 .2864 7.55 -41.2)"/><use xlink:href="#e" width="58.8" height="49.1" transform="matrix(.8418 .4409 -1.15 .6137 4.55 -44.1)"/><use xlink:href="#e" width="58.8" height="49.1" transform="matrix(.2573 .1555 -.378 .1122 6.25 -40)"/><use xlink:href="#e" width="58.8" height="49.1" transform="matrix(.5623 0 0 .2968 -22.2 -22.35)"/><use xlink:href="#i" width="64.4" height="49.5" transform="matrix(.106 .2077 -.4676 .0664 50.4 -17.6)"/><use xlink:href="#i" width="64.4" height="49.5" transform="matrix(.1914 .3751 -.7108 .101 53.3 -23.65)"/><use xlink:href="#e" width="58.8" height="49.1" transform="matrix(.998 0 0 .6896 -86.9 -26.75)"/><use xlink:href="#i" width="64.4" height="49.5" transform="matrix(.1914 .3751 -.7108 .101 -17.8 -28.6)"/><use xlink:href="#g" width="64.4" height="49.5" transform="matrix(.0712 .1396 -.2645 .0376 -22.05 -18.8)"/><use xlink:href="#e" width="58.8" height="49.1" transform="matrix(.5623 0 0 .2968 -15.4 -41.3)"/><use xlink:href="#e" width="58.8" height="49.1" transform="matrix(-.1385 -.1696 -.3214 .0731 -45 .55)"/><use xlink:href="#e" width="58.8" height="49.1" transform="matrix(.5403 .2829 -.7381 .3938 -42.8 -24.2)"/><use xlink:href="#i" width="64.4" height="49.5" transform="matrix(.1914 .3751 -.7108 .101 52.4 -21.75)"/><use xlink:href="#e" width="58.8" height="49.1" transform="matrix(.9917 0 0 .6852 1.6 -48.85)"/><use xlink:href="#i" width="64.4" height="49.5" transform="matrix(-.6207 -.2304 .4235 -.302 -15.95 1.65)"/><use xlink:href="#i" width="64.4" height="49.5" transform="matrix(-.5461 -.2027 .3726 -.2657 -20.95 1.45)"/><use xlink:href="#e" width="58.8" height="49.1" transform="matrix(.9063 0 0 .4783 45.3 -21.8)"/><use xlink:href="#e" width="58.8" height="49.1" transform="matrix(.5427 0 0 .2864 52.05 -21.55)"/><use xlink:href="#i" width="64.4" height="49.5" transform="matrix(.1914 .3751 -.7108 .101 54.45 -34)"/><use xlink:href="#i" width="64.4" height="49.5" transform="matrix(.1684 .33 -.6253 .0889 58.05 -32.25)"/><use xlink:href="#e" width="58.8" height="49.1" transform="matrix(.5874 0 0 .31 -42.95 -36.45)"/><use xlink:href="#e" width="58.8" height="49.1" transform="matrix(.3518 0 0 .1856 -38.65 -36.3)"/><use xlink:href="#f" width="58.8" height="49.1" transform="matrix(-.2441 -.0865 -.1638 .1289 -15.65 -31.35)"/><use xlink:href="#e" width="58.8" height="49.1" transform="matrix(.535 .2884 -.7415 .3957 -75.3 -24.6)"/><use xlink:href="#f" width="58.8" height="49.1" transform="matrix(-.3815 -.1351 -.256 .2013 -55.9 -10.15)"/><use xlink:href="#j" width="105.6" height="105.6" transform="matrix(.2443 .4505 -.5992 .325 45.1 -79.35)"/><use xlink:href="#k" width="18.7" height="33" transform="translate(-8.9 -14.65)"/></g></g></svg>