<svg xmlns="http://www.w3.org/2000/svg" xmlns:xlink="http://www.w3.org/1999/xlink" width="40" height="72" viewBox="0 0 40 72"><defs><g id="p"><path fill="#35270b" d="m22.7 7.2 4.6-2.4v34l-9.4 4.9 2.3-5.2.8-2.5 4.8-2.7-.4-2.1-3.6 1.9q1.3-5 1.7-10.5l.3-6z"/><path fill="#7d673a" d="m27.3 4.8-4.7 2.4-6 3.1-8.7 4.5-1.8-.3q-1.1-.2-2-.7l-.8-.4-2-1.7-.8-1.1L19.9.5l.8 1.2-1.5.8L2.6 11l1.6 1.4v.1q1.3.8 3.1 1.3l16.6-8.7 1.6-.7zM.4 10.6l.9 1.2 1.9 1.6.8.4-.3 6.6-1.5-1.1-.5-.4-.4-.5-.9-1.2zM.5 22l.9 1.1v.2q.9.9 1.9 1.5l.2.1.6 23-.9-.5q-1.7-1-2.7-2.8z"/><path fill="#44310d" d="M22.7 7.2q0 2.2 1 9.4l-.2 6q-.4 5.5-1.7 10.5l-5.9 3.1q1.3-6.3 4.1-13.3 1.4-3.6 3.3-7.4L22 14.4l-6.2 3.7q.9-5 .7-7.8zM21 36l-.8 2.5-2.2 5.2L7.9 49v-6.3q3.1-4.9 5.7-14.2l1.3-5.1.8-4 5.8-3-3.2 6.7q-3.6 8-5.1 14.2l-.3 1 .1 2.2z"/><path fill="#1f0d09" d="m21.8 33.1 3.6-1.9.4 2L21 36l-8 4.5-.1-2.1.3-1.1q1.5-6.1 5.1-14.2l3.2-6.7-5.8 3-4.6 2.4V21l4.9-2.9 6.1-3.7 1.1 1.1L20 23q-2.8 6.9-4 13.2z"/><path fill="#c4bc85" d="M23.9 5.2 7.3 13.9q-1.7-.5-3-1.3l16.6-8.7 2.1 1z"/><path fill="#beb158" d="m4.3 12.6-1.6-1.3 16.6-8.7L20.8 4h.2z"/><path fill="#381910" d="m19.2 2.5 1.5-.8v2.2z"/><path fill="#503a10" d="m4 13.8 2.1.7 1.8.3v6.7l-1-.1-.8-.2-1.5-.6-.5-.1-.3-.1zm3.8 12.5v22.6q-2.2-.2-3.8-1L3.5 25l.4.2q1 .5 2.2.8z"/><path fill="#4b360f" d="m7.9 14.9 8.7-4.6q.2 2.8-.7 7.8L11.1 21v.8l4.6-2.4-.8 4-1.3 5.2Q11 37.9 7.9 42.8z"/><path fill="#cca300" d="M7.9 21.5v4.8L6.1 26q-1.2-.3-2.2-.8l-.1-1.6.3-2.8v-.3l.5.1 1.5.5.9.3zM.5 17.2l.9 1.2.4.5.2 1 .1.8-.7 2.7v-.1L.5 22z"/><path fill="#ccaf3b" d="m1.5 23.4.6-2.6v-.1l-.1-.8-.2-1 .5.4q.7.6 1.5 1l.3.1v.4l-.3 2.8.1 1.6-.4-.2-.2-.1q-1-.6-1.8-1.5"/><path fill="none" stroke="#000" stroke-linecap="round" stroke-linejoin="round" stroke-opacity=".3" stroke-width="__RESOLUTION__" d="m27.3 4.8-4.7 2.4-6 3.1-8.7 4.5-1.8-.3q-1.1-.2-2-.7l-.8-.4-2-1.7-.8-1.1m23.4-5.4L7.3 13.9q-1.7-.5-3-1.3l-.1-.1-1.6-1.3 16.6-8.7 1.5-.8m-1.5.8 1.5 1.4m-12.8 11v2.3m0 3.2v9.1m0 11.6v4M1.8 18.9l-.4-.5-.9-1.2m0 4.9.9 1.1v.2q.9.9 1.9 1.5m-1.5-6 .5.4M4 20.5l.5.1m2.4.8.9.1M3.5 25l.4.2q1 .5 2.2.8l1.8.3m0 22.7v-2.1" vector-effect="non-scaling-stroke"/><path fill="none" stroke="#000" stroke-linecap="round" stroke-linejoin="round" stroke-opacity=".3" stroke-width="1" d="m18 43.7 9.3-4.9v-34m0 0-1.9-.3-1.5.7L23 5l-2.1-1.1h-.2V1.7L19.9.5.5 10.5v34.1q1 1.8 2.7 2.9l.9.5q1.7.7 3.8 1l10-5.3"/><path fill="#4f2218" d="m15.2 11 .2-.1v15.3q-1.8-1.2-3 1.7V12.5z"/><path fill="#8f3d2c" d="m15.2 11-2.8 1.5-1.5-.5 2.7-1.4z"/></g><g id="j"><path fill="none" stroke="#000" stroke-linecap="round" stroke-linejoin="round" stroke-opacity=".3" stroke-width="__RESOLUTION__" d="m3.7 16 2 .1h0l.1-.1q-.1-5.8-1-9m1.1 9 1.1-.8" vector-effect="non-scaling-stroke"/><path fill="#c2c0b6" d="M6.9 4.3q5.8-.6.7 3h-.1Q8.9 13 5.8 9.8l-.8-1-.4-.2v.2Q-2.3 12 2 5.8q-4.3-5 1.8-2.2 3-7.1 3.1.7"/><path fill="none" stroke="#000" stroke-linecap="round" stroke-linejoin="round" stroke-opacity=".3" stroke-width="__RESOLUTION__" d="M6.9 4.3q5.8-.6.7 3h-.1Q8.9 13 5.8 9.8l-.8-1-.4-.2v.2Q-2.3 12 2 5.8q-4.3-5 1.8-2.2 3-7.1 3.1.7" vector-effect="non-scaling-stroke"/><path fill="#ab2929" d="M3.3 6q0-.5.4-1t1-.4q.7 0 1.1.4t.5 1l-.5 1.2q-.4.4-1 .4t-1.1-.4T3.2 6"/></g><g id="f"><path fill="#000" fill-opacity=".3" d="M86.4 45.3v19.5l-5.7 4.4L31 44.5l46.6-12z"/><path fill="none" stroke="#000" stroke-linecap="round" stroke-linejoin="round" stroke-opacity=".3" stroke-width="__RESOLUTION__" d="m69.2 12.4 2 1V7.8m0 5.6 2 1M72 22l-.8-.5v7m-1-7.4 1 .4v-8.1m-3.7 6.3.8.4m7.6 3.8 1.8.9M56 20.4V18l-1.4-.8m1.4-1.5V18l1.6.8M32.3 8.4V5.6l-2-1m2-4.5v5.5l2.3 1.1" vector-effect="non-scaling-stroke"/><path fill="#826d37" d="m65.7 37.2-6.9 3.4-8.7 4.9-20.8-11-11.9-6.2 11.9-.7 2-.2q11.3 0 23 3.8 8.1 2.6 11.5 5.9zM47.6 15.9l-18.3-1.6q-5.6-.9-9.5-2.3-3.4-1.2-7.1-3.4l-1.5-.8 4.1-2.1 1.6.5Q22.8 8 29.3 8.9l6.3.7zm-44.3-4 3.3 10.7-6-1.9z"/><path fill="#3e301f" d="m58.9 40.7 6.8-3.5q.3 3.4.3 7.3 0 1.3-1.9 6.6l-.4 1.4-2.7 5.7-5.6 2.9L50 45.5zm18.3.4v9l-6.8 3.4.8-1.4z"/><path fill="#694c38" d="m65.7 37.2.1-.1z"/><path fill="#786433" d="M65.8 37.1q-3.4-3.4-11.5-6-11.7-3.7-23-3.7l-2 .2-11.9.6-9.4-5-1.5-.6-3.2-10.8 7.9-4 1.5.8q3.8 2.2 7.1 3.4 4 1.4 9.5 2.3l18.3 1.6 29.6 15.6zM35.6 9.6l-6.4-.7Q22.9 8 17 6.2l-1.6-.5L22 2.4z"/><path fill="#685135" d="m17.4 28.3 11.9 6.2 20.8 11-2.7 14.9-.5-.3-6.7-3.7q1.4-.6 2.3-1.7l.4-1.3.4-1.3q0-1-3.1-3.5Q37 46 20.3 36.9T8.8 33.8 23 47.2l-.4-.2-10-5.1v-.1q-7.5-5-12.1-8.3v-5.7l7-.8q8.4.8 8.6 1.4z"/><path fill="#463623" d="m65.9 37.2 11.3-5.7V41l-6 11-.8 1.4-9.4 4.7 2.6-5.7.5-1.4q2-5.3 2-6.6 0-3.9-.4-7.3z"/><path fill="#5e4930" d="m6.6 22.6 1.4.6 9.4 5-1.3.2q-.3-.6-8.6-1.4l-7 .8v-7.1zm-6 10.9q4.6 3.3 12.2 8.3l-7.4-3.7-4.8-2.5zM23 47.2q-9.2-7.4-14.2-13.5t11.6 3.1 19.8 11.9q3 2.5 3 3.5l-.4 1.3-.3 1.3q-.9 1.1-2.3 1.7l-5-2.6-6-3.3zm24.4 13.3 2.7-15 5.3 15.7z"/><path fill="none" stroke="#000" stroke-linecap="round" stroke-linejoin="round" stroke-opacity=".3" stroke-width="1" d="M77.2 31.5 47.6 15.9l-12-6.3-13.7-7.2-6.6 3.3-4.1 2.1-8 4-2.7 8.9v14.9l4.8 2.5 7.4 3.8 9.9 5.1.3.1 6.4 3.4 6 3.3 4.9 2.6 6.7 3.7.5.3 8 .7 5.6-2.9 9.4-4.7 6.8-3.4z"/><path fill="url(#a)" d="m58 24.9.5-.2.8-.1q3.3-.7 3.3-6.5l-.2-1.7 2.4 7.5q1-.5 2.8-4.2l.3-.1-.3 1.8-.5 3.6 1 2.6q0 1.1-5.5 1.3l-3.7-.8q-3-.9-3-1.7 0-.6 2-1.4z" transform="translate(.5 2.35)"/><path fill="url(#b)" d="m51.1 12.5.3.4.9-2.3.2-.5v-.2.2l-.1.4-.4 1.3v1.7l1.3-.8-.6 1.3q0 .7.3 1l.6.2 1.5-.4.2-.2-.3.8q0 .7 1 1.4l.8.7 1 1 1.8 1.3.3.6-1.7-.1q-1 0-6.2-3.1l-.9-.5-1-.6-1-.6L48 15l-.9-.3v-1l-.4.8-.7-.3-.9-2-.2 1.6-5.3-1.9q-4-1.3-9.2-4.1t-2.7-3.1l1-.8.4-.4.4-.4q.9-1 .9-1.6l.1-.4.2 1.5.2.8.3.5q.8-.8 1-3l.2 1.5.1.8.1.7V4l.3-.2q.5-.5.6-1.8l.1-1.3.1 1.9.1 1.7v.5l.2.1q.4-.2.5-1v.9l.1.2.4.6.4-.1.6-.5q.4-.6.3-1.5l.5.9.2.3.4.4q.3-.3.4-1.5l.2 1v.2l.5.5h.1q1-.2 1.9-4.1h.3l-.3 1.2q-.2 1-.1 2v.8l.4.8.6-1-.1.4-.1 1.1v.6q0 .7.3.8l.5-.5v.9q0 1 .9 1.8l.6.5 1 .3q.8-.1 1.2-1.2v.5l.2.6q.3.6.9.8h.3q.8 0 .9-1.7l.1.8.4.7.4.7.5.5q.6-1.5.6-4l.4 1.3zm-4 1.2" transform="translate(.5 2.35)"/><path fill="url(#c)" d="m29.3 32.9 1.6-.2 1.6.3.4-1.7.4-2.4q.4.2 1.3 2.9L35 33l.5-.9.5.3q.4 2 3 3.6 3.6 2.1 3.6 3v.5h-.4l-.6-.1-4.4-2.4-2.4-1.3-2.2-1.2-2.1-1z" transform="translate(.5 2.35)"/><path fill="#475130" fill-opacity=".8" d="m42.2 41.8-.7-.1-2.4.5q-2.6 0-6-2.2-3.7-2.2-3.7-4.4v-.4h.4l1.2.6 2 1 2.4 1.3 2.3 1.2z"/><path fill="url(#e)" d="M8.4 4.2 8.2 3l.2.1q1.2 2.3 1.7 2.7L11.6 1v1q-.1 3.7 2 4l.4.1.3.1q1.3.6 1.3 1t-1.8 1l-2.2.5Q8 8.9 8 8l.6-1.6z" transform="translate(.5 2.35)"/><path fill="none" stroke="#000" stroke-linecap="round" stroke-linejoin="round" stroke-opacity=".2" stroke-width="__RESOLUTION__" d="m68.1 23.8-.5 3.6 1 2.6q0 1.1-5.5 1.3l-3.7-.8q-3-1-3-1.7t2-1.5l.1-.1m-6-13v1.6l1.3-.8-.6 1.4q0 .7.3 1m2.1-.3.2-.1-.3.8q0 .6 1 1.4m2.1 3.5q-1 0-6.1-3.1l-.9-.6m-1-.5-1-.6-1.1-.5-.9-.4v-1l-.4.9-.7-.3m-1.1-.4L40 14.3q-4-1.4-9.2-4.2-5.2-2.7-2.7-3.1m1-.8.4-.3m1.6-.9.2.8m1.5-1 .1.7m.1.8.3-.2m.9-1.2v1.7m.8.5v.2l.4.6h.4m1.4-1.2.2.4m1-.2v.2l.5.5h.1m2-2.9q-.2 1.1-.1 2.1v.8m.9.2-.1 1.1v.5m.8.5v.8q0 .9.9 1.7l.6.5m2.2-.4.2.6q.3.7.9.8m1.4-.9.3.8.4.6m1.5-2.1.7 2.5m-4 1.1v.2zM29.8 35.2l1.6-.1 1.6.3.4-1.8.4-2.4q.4.2 1.3 3l.4 1.2.5-.9.5.3q.4 2 3 3.5 3.6 2.2 3.6 3v.6h-.4l-.6-.1-.6-.1-2.4.5q-2.6 0-6-2.2-3.7-2.2-3.7-4.4v-.4zl1.2.6m2 1 2.4 1.3m2.3 1.2 4.4 2.5M9 6.5l.3 2.2-.6 1.5q0 .8 3.5.9l2.2-.5q1.8-.5 1.8-1t-1.3-1h0" vector-effect="non-scaling-stroke"/></g><g id="n"><path fill="#672e1e" d="M22.4 14q-.6 5.1-5.2 7.4-3 1.5-5.2 1.6-2.1 0-5.2-1.4-5.7-3.9-5.4-10.7.4-.7 1.1-.7 1 .4 1.3 1.2l1 3.4q.6 2.8 5.8 3.5h1.2q4.3 0 7.6-1.5 2.4-1.3 3-2.8M9.3 20.6q0 .6.3 1 .5.4 1.1.4t1-.4.4-1-.3-1-1.1-.5-1 .4q-.4.5-.4 1.1m4.2-.9q-.3.3-.3.7t.3.6.6.3.7-.3l.2-.6-.2-.7q-.3-.3-.7-.3z"/><path fill="#ab4c2c" d="M22.4 14q-.6 1.5-3 2.8-3.2 1.5-7.6 1.5h-1.2q-5.2-.7-5.8-3.5l-1-3.4q-.3-.8-1.3-1.2.6-.5 1.8-1 3.2-1.6 7.5-1.6t7.6 1.6q3.1 1.5 3.1 3.8zM9.3 20.6q0-.6.3-1 .5-.5 1.1-.5t1 .4q.4.5.4 1.1t-.3 1-1.1.4-1-.4-.4-1m4.2-.9.6-.3q.4 0 .7.3l.2.7-.2.6q-.3.3-.7.3t-.6-.3-.3-.6.3-.7"/><path fill="none" stroke="#3f3220" stroke-linecap="round" stroke-linejoin="round" stroke-opacity=".8" stroke-width="__RESOLUTION__" d="M2.5 10.2q.6-.5 1.8-1 3.2-1.6 7.5-1.6t7.6 1.6q3.1 1.5 3.1 3.8l-.1 1" vector-effect="non-scaling-stroke"/><path fill="#7a5d2d" fill-opacity=".5" d="M4.8 5.1q-3 3.1-3 7.4t3 7.3 7.3 3 7.4-3 3-7.4q0-4.2-3-7.3-3.1-3-7.4-3t-7.3 3M4 4Q7.4.5 12.3.5t8.3 3.4 3.5 8.4-3.5 8.3q-3.4 3.5-8.3 3.5T4 20.6Q.5 17.3.5 12.3T4 3.9"/><path fill="#7a5d2d" fill-opacity=".3" d="M4.8 5.1q3-3 7.3-3t7.4 3 3 7.4-3 7.3q-3.1 3-7.4 3t-7.3-3-3-7.4q0-4.2 3-7.3"/><path fill="none" stroke="#5b5042" stroke-linecap="round" stroke-linejoin="round" stroke-opacity=".8" stroke-width="1" d="M4 4Q7.4.4 12.3.4t8.3 3.4q3.5 3.5 3.5 8.4t-3.5 8.3-8.3 3.5T4 20.6Q.5 17.3.5 12.3T4 3.9"/><path fill="#ccc" fill-opacity=".3" d="M7.4 3.1q2-.9 3.6 0t2 3.3q0 2.2-1 4.6t-3.2 3.2T5 14t-2-3.2 1.1-4.4Q5.4 4 7.4 3"/><path fill="#000" fill-opacity=".3" d="M40.2 26.5v32.4l-15.3 8-9.7-1 18.7-11.7.1-32.4z"/></g><g id="l"><path fill="#000" fill-opacity=".3" d="M86.4 50.2v19.5l-5.7 4.4L31 49.4l46.6-12 8.9 12.7z"/><path fill="none" stroke="#000" stroke-linecap="round" stroke-linejoin="round" stroke-opacity=".3" stroke-width="__RESOLUTION__" d="m69.2 17.3 2 1v-5.6m0 5.6 2 1M72 26.9l-.8-.5v7m-1-7.4 1 .4v-8.1m-3.7 6.3.8.4m7.6 3.8 1.8.9M56 25.3v-2.4l-1.4-.8m1.4-1.5v2.3l1.6.8M32.3 13.4v-3l-2-1m2-4.4v5.4l2.3 1.2" vector-effect="non-scaling-stroke"/><path fill="#826d37" d="m65.7 42.1-6.9 3.4-8.7 4.9-20.8-11-11.9-6.2 11.9-.7 2-.2q11.3 0 23 3.8 8.1 2.5 11.5 5.9zM47.6 20.8l-18.3-1.6q-5.6-.9-9.5-2.3-3.4-1.2-7.1-3.4l-1.5-.8 4.1-2.1 1.6.5q5.9 1.8 12.4 2.8l6.3.6zm-44.3-4 3.3 10.6-6-1.8z"/><path fill="#3e301f" d="m58.9 45.6 6.8-3.5q.3 3.4.3 7.3 0 1.3-1.9 6.6l-.4 1.4L61 63l-5.5 3L50 50.4zm18.3.4v9l-6.8 3.4.8-1.4z"/><path fill="#694c38" d="m65.7 42.1.1-.1z"/><path fill="#786433" d="M65.8 42q-3.4-3.4-11.5-6-11.7-3.7-23-3.7l-2 .2-11.9.6-9.4-5-1.5-.7-3.2-10.6 7.9-4.1 1.5.8q3.8 2.2 7.1 3.4 4 1.4 9.5 2.3l18.3 1.6 29.6 15.6zM35.6 14.5l-6.4-.7Q22.9 13 17 11.1l-1.6-.5L22 7.3z"/><path fill="#685135" d="m17.4 33.2 11.9 6.2 20.8 11-2.7 14.9-.5-.3-6.7-3.7q1.4-.6 2.3-1.7l.4-1.3.4-1.3q0-1-4.6-6.1t-8.2-6.4-7.9 1h-1.2v1.4l1.2 5-10-5.1v-.1q-6.8-7.3-5.4-11.9 8.5-.3 8.9-1.5z"/><path fill="#463623" d="m65.9 42 11.3-5.6V46l-6 11-.8 1.4-9.4 4.7 2.6-5.7.5-1.4q2-5.3 2-6.6 0-3.9-.4-7.3z"/><path fill="#5e4930" d="M6.6 27.5 8 28l9.4 5-1.3.1q-.4 1.3-8.9 1.6-1.4 4.6 5.5 11.9L5.3 43 .5 40.5V25.7zM22.7 52l-1.2-5v-1.4h1.3q4.3-2.2 7.9-1 3.5 1.3 8.1 6.4t4.5 6.1l-.4 1.3-.3 1.3q-.9 1.1-2.3 1.7l-5-2.6-6-3.3zm24.8 13.4 2.7-15L55.4 66z"/><path fill="none" stroke="#000" stroke-linecap="round" stroke-linejoin="round" stroke-opacity=".3" stroke-width="1" d="M77.2 36.4 47.6 20.8l-12-6.3-13.7-7.2-6.6 3.3-4.1 2.1-8 4-2.7 8.9v15L5.3 43l7.4 3.8 9.9 5.1 6.6 3.5 6 3.3 5 2.6 6.7 3.7.5.3 8 .7 5.6-3 9.4-4.7 6.8-3.4z"/><path fill="#bdb89e" d="m9.8 29.4-.1-.3 13-19.6L72 33.4l-35.4 10-2.5-1.3-2.8-1.5-1.9-1-9.1-4.7-4.1-2.2-5-2.6zm7.8 12.9-1.3-4.5q4.6 4.7 10.3 4.7l1.7-.2h.5Q26.4 45 23.9 45q-3.7 0-6.2-2.7"/><path fill="#c3c0b2" d="m36.6 43.4-7.6 13-1.9-2.2.4 3.7-5.1 9.4L9.8 29.4l1.3.7 5.1 2.6 4.1 2.1 9.1 4.9 1.9.9 2.8 1.5zm-19-1.1Q20.3 45 24 45q2.5 0 4.9-2.7h-.5l-1.7.2q-5.7 0-10.3-4.7z"/><path fill="none" stroke="#000" stroke-linecap="round" stroke-linejoin="round" stroke-opacity=".3" stroke-width="1" d="m9.7 29-.1.3.2.1zl13-19.6 49.3 24-35.4 10-7.6 13m-1.4 1.5-5.2 9.4L9.8 29.4"/><path fill="none" stroke="#000" stroke-linecap="round" stroke-linejoin="round" stroke-opacity=".3" stroke-width="__RESOLUTION__" d="m9.8 29.4 1.3.7m5.1 2.6 4.1 2.1m9.1 4.9 1.9.9m2.8 1.5 2.5 1.3" vector-effect="non-scaling-stroke"/><path fill="none" stroke="#6c5500" stroke-linecap="round" stroke-linejoin="round" stroke-opacity=".5" stroke-width="__RESOLUTION__" d="m56.1 34.7-5.8 1.6m17.4-5L61.9 33M25.4 11.8l.5-.8M14.8 33l-.4-1.2 2.3-4.1m1.7 16.8-1.8-5.7m16.3 2.6-2.8 5M21.9 56 20 50.3m-.5-27.9 2.9-5.3M27 51.6l-3 5.2m20.4-18.7-5.8 1.6" vector-effect="non-scaling-stroke"/><path fill="#1c5672" d="m23.3 19.5-.7-.2q-.4 0-.7.2l-.2.6q0 .4.2.7t.7.3l.6-.3.3-.7zM11 10.1q1 .3 1.3 1.1l.9 3.5q.7 2.7 5.9 3.4h1.2q4.3 0 7.5-1.5 2.3-1.3 2.9-2.8-.6 5.2-5.1 7.5-3 1.4-5.1 1.4-2.2.1-5.2-1.3-5.6-3.8-5.5-10.6l.1-.1q.4-.6 1.1-.6m9.2 9.3q-.4-.4-1-.4t-1.1.4-.4 1 .4 1q.4.5 1 .5t1.1-.4.4-1-.4-1.1"/><path fill="#287aa3" d="m23.3 19.5.2.6-.2.7-.7.3q-.4 0-.7-.3t-.2-.7.2-.6.7-.2zm7.5-5.6q-.6 1.4-2.9 2.7-3.2 1.5-7.5 1.5H19q-5.2-.7-5.9-3.4l-1-3.5q-.1-.7-1.2-1.1l1.7-1q3.2-1.6 7.6-1.5 4.3-.1 7.5 1.5 3.1 1.5 3.1 3.8zm-10.5 5.5q.4.4.4 1t-.4 1q-.4.5-1 .5t-1.1-.4-.4-1 .4-1.1 1-.4 1.1.4"/><path fill="none" stroke="#3f3220" stroke-linecap="round" stroke-linejoin="round" stroke-opacity=".8" stroke-width="__RESOLUTION__" d="m30.7 13.9.3-1q-.1-2.3-3.2-3.8-3.2-1.6-7.5-1.5-4.4-.1-7.6 1.5l-1.7 1" vector-effect="non-scaling-stroke"/><path fill="#7a5d2d" fill-opacity=".5" d="M20.4 2q-4.3 0-7.3 3t-3 7.4 3 7.2 7.3 3 7.3-3 3-7.3-3-7.3-7.3-3m.3-1.5Q25.5.5 29 4q3.4 3.4 3.4 8.2 0 4.9-3.4 8.4-3.6 3.3-8.4 3.3t-8.3-3.3Q8.9 17 8.9 12.2T12.3 4 20.6.4"/><path fill="#7a5d2d" fill-opacity=".3" d="M20.4 2q4.3 0 7.3 3t3 7.4-3 7.2-7.3 3-7.3-3-3-7.3 3-7.3 7.3-3"/><path fill="none" stroke="#5b5042" stroke-linecap="round" stroke-linejoin="round" stroke-opacity=".8" stroke-width="1" d="M20.7.5Q25.5.5 29 4q3.4 3.4 3.4 8.2 0 4.9-3.4 8.4-3.6 3.3-8.4 3.3t-8.3-3.3Q8.9 17 8.9 12.2T12.3 4 20.6.4"/><path fill="#ccc" fill-opacity=".5" d="M19.5 3.1q1.5 1 1.8 3.2.1 2.3-.8 4.8t-3.2 3.2-3.9-.4-1.9-3.2 1-4.4 3.3-3.2 3.6 0"/></g><g id="s" transform="translate(0 .1)"><use xlink:href="#f" width="86.5" height="69.2" transform="matrix(-.42 0 0 .42 36.25 2.4)"/><use xlink:href="#g" width="34.1" height="18.1" filter="url(#h)" transform="matrix(.68 0 0 .68 5.45 3.4)"/><use xlink:href="#j" width="10.2" height="16.4" transform="matrix(-.42 0 0 .42 22.75 -.1)"/></g><g id="r" transform="translate(0 .2)"><use xlink:href="#l" width="86.5" height="74.1" transform="matrix(-.42 0 0 .42 36.25 10.45)"/><use xlink:href="#m" width="27.8" height="49.5" transform="matrix(-.42 0 0 .42 28.05 3.95)"/><use xlink:href="#m" width="27.8" height="49.5" transform="matrix(-.42 0 0 .42 24.05 5.25)"/><use xlink:href="#n" width="40.1" height="67" transform="matrix(-.42 0 0 .42 23.15 -.2)"/><use xlink:href="#m" width="27.8" height="49.5" transform="matrix(-.42 0 0 .42 20.1 7.05)"/></g><linearGradient id="e" x1="-819.2" x2="819.2" gradientTransform="matrix(0 0 0 0 11.5 6.35)" gradientUnits="userSpaceOnUse" spreadMethod="pad"><stop offset="0" stop-color="#5b683b" stop-opacity="1"/><stop offset="1" stop-color="#979742" stop-opacity=".8"/></linearGradient><linearGradient id="c" x1="-819.2" x2="819.2" gradientTransform="matrix(0 0 .01 0 36.8 33.45)" gradientUnits="userSpaceOnUse" spreadMethod="pad"><stop offset="0" stop-color="#5b683b" stop-opacity="1"/><stop offset="1" stop-color="#979742" stop-opacity=".8"/></linearGradient><linearGradient id="b" x1="-819.2" x2="819.2" gradientTransform="matrix(0 0 .02 .01 45 9.7)" gradientUnits="userSpaceOnUse" spreadMethod="pad"><stop offset="0" stop-color="#5b683b" stop-opacity="1"/><stop offset="1" stop-color="#979742" stop-opacity=".8"/></linearGradient><linearGradient id="a" x1="-819.2" x2="819.2" gradientTransform="matrix(0 0 .01 0 62.55 24.85)" gradientUnits="userSpaceOnUse" spreadMethod="pad"><stop offset="0" stop-color="#5b683b" stop-opacity="1"/><stop offset="1" stop-color="#979742" stop-opacity=".8"/></linearGradient><use xlink:href="#o" id="g" width="34.1" height="18.1"/><use xlink:href="#p" id="m" width="27.8" height="49.5"/><clipPath id="q"><path d="M1 1h38v70H1z"/></clipPath><filter id="h" filterUnits="userSpaceOnUse"><feConvolveMatrix divisor="25" in="SourceGraphic" kernelMatrix="1 1 1 1 1 1 1 1 1 1 1 1 1 1 1 1 1 1 1 1 1 1 1 1 1" order="5 5" result="filter1"/></filter><path id="o" fill="#5b683b" fill-opacity=".3" d="M33.9.1v.2l.3 1.2q0 2.4-2.3 3.6-.7.4-6.3 2.3-.7.1-2.2 1.7t-2.5 1.6l-8 1 .5-.3-.7.3-1 .7q-8.2 5-11.7 5.7l7.4-6.2q2.8-2.5 10.4-5.5l8.1-5.1Q28.2 0 32.5 0z"/></defs><g clip-path="url(#q)"><g transform="translate(16.4 137.15)"><use xlink:href="#r" width="36.3" height="41.7" transform="translate(-15.4 -136.15)"/><use xlink:href="#s" width="36.3" height="31.5" transform="translate(-14.15 -97.7)"/></g></g></svg>