<svg xmlns="http://www.w3.org/2000/svg" xmlns:xlink="http://www.w3.org/1999/xlink" width="102" height="194" viewBox="0 0 102 194"><defs><g id="Q"><path fill="#2a2818" d="M1.3 7.9q1.5-11 1.7-6 1.1-4.1.7 5.8t.1 18.8l.5 4.9v.6l.8 1.5-.5 1.4-1 .7z"/><path fill="#323025" d="m1.3 7.9 2.4 27.7-.8.5-1.7-.4H1l-.7-1.9.5-1.6-.2-2.8q-.7-12.1 0-18z"/><path fill="none" stroke="#090b0a" stroke-linecap="round" stroke-linejoin="round" stroke-opacity=".3" stroke-width="__RESOLUTION__" d="m3.7 35.6.9-.7h0l.5-1.4-.8-1.5v-.6l-.4-4.9q-.7-9-.2-18.8T3 1.9q-.2-5-1.7 6l-.5 3.4q-.8 6-.1 18.1l.2 2.8-.5 1.6.7 1.9h0l1.8.4z" vector-effect="non-scaling-stroke"/></g><g id="R"><path fill="#2e2b1a" d="M1.3 7.9q1.5-11 1.7-6 1.1-4.1.7 5.8t.1 18.8l.5 4.9v.6l.8 1.5-.5 1.4-1 .7z"/><path fill="#363428" d="m1.3 7.9 2.4 27.7-.8.5-1.7-.4H1l-.7-1.9.5-1.6-.2-2.8q-.7-12.1 0-18z"/><path fill="none" stroke="#090b0a" stroke-linecap="round" stroke-linejoin="round" stroke-opacity=".3" stroke-width="__RESOLUTION__" d="m3.7 35.6.9-.7h0l.5-1.4-.8-1.5v-.6l-.4-4.9q-.7-9-.2-18.8T3 1.9q-.2-5-1.7 6l-.5 3.4q-.8 6-.1 18.1l.2 2.8-.5 1.6.7 1.9h0l1.8.4z" vector-effect="non-scaling-stroke"/></g><g id="S"><path fill="#2e2b1a" d="m3.5 13.7.9-.7.6 6.2q.8 5.7 3.2 15.1l-.2.8-1.2.6q-1.1.3-1.4-.2z"/><path fill="#363428" d="M5.4 35.5Q2.9 37 2.1 32.4v-1L1 13.9.4.3l3.1 13.3z"/><path fill="none" stroke="#090b0a" stroke-linecap="round" stroke-linejoin="round" stroke-opacity=".3" stroke-width="__RESOLUTION__" d="m4.4 13 .6 6.2q.8 5.7 3.2 15.1l.4-4.2-.2 5.3-.2-1.1-.2.8-1.2.6q-1.1.3-1.4-.2-2.5 1.6-3.3-3.1v-1l-1 2.2.4 2.1 1.9 1.1m-1.3-5.3L1 13.8.4.3l3.1 13.3" vector-effect="non-scaling-stroke"/></g><g id="U"><path fill="#272517" d="M.5 8.1q.4-11.5.9-6 .5-4.1.8 6.5t1.2 20.6l.6 5.4v.7l.7 1.9-.3 1.3.8 7q.9 6.4 3 17.3v.8l-.8.4q-.8 0-1-.7L3.8 39zm3.9 30.4-.6.4z"/><path fill="#2e2c22" d="M6.4 63.3q-1.7 1-2.5-4.2V58L2 38.4 1.4 36l.3-1.6-.3-3.1Q.2 18 .4 11.8l.1-3.7L3.8 39l-.5.4-1.2-1 1.2 1 .5-.4z"/><path fill="none" stroke="#090b0a" stroke-linecap="round" stroke-linejoin="round" stroke-opacity=".3" stroke-width="__RESOLUTION__" d="M.5 8.1q.4-11.5.9-6 .5-4.1.8 6.5t1.2 20.6l.6 5.4v.7l.7 1.9-.3 1.3h0l.8 7q.9 6.4 3 17.3l.1-4.5.2 5.7-.2-1.2-.1.8-.8.4q-.8 0-1-.7-1.7 1-2.5-4.2V58l-.5 2 .3 2.5 1.4 1.8M3.9 58 2 38.4h0L1.4 36l.3-1.6-.3-3.1Q.2 18 .4 11.8l.1-3.7M3.8 39l.6-.5m-.6.5-.5.4-1.2-1" vector-effect="non-scaling-stroke"/></g><g id="V"><path fill="#242316" d="m3.5 13.7.9-.7.6 6.2q.8 5.7 3.2 15.1l-.2.8-1.2.6q-1.1.3-1.4-.2z"/><path fill="#2a2920" d="M5.4 35.5Q2.9 37 2.1 32.4v-1L1 13.9.4.3l3.1 13.3z"/><path fill="none" stroke="#090b0a" stroke-linecap="round" stroke-linejoin="round" stroke-opacity=".3" stroke-width="__RESOLUTION__" d="m4.4 13 .6 6.2q.8 5.7 3.2 15.1l.4-4.2-.2 5.3-.2-1.1-.2.8-1.2.6q-1.1.3-1.4-.2-2.5 1.6-3.3-3.1v-1l-1 2.2.4 2.1 1.9 1.1m-1.3-5.3L1 13.8.4.3l3.1 13.3" vector-effect="non-scaling-stroke"/></g><g id="W"><path fill="#272516" d="M1.3 7.9q1.5-11 1.7-6 1.1-4.1.7 5.8t.1 18.8l.5 4.9v.6l.8 1.5-.5 1.4-1 .7z"/><path fill="#2b291d" d="m1.3 7.9 2.4 27.7-.8.5-1.7-.4H1l-.7-1.9.5-1.6-.2-2.8q-.7-12.1 0-18z"/><path fill="none" stroke="#15150f" stroke-linecap="round" stroke-linejoin="round" stroke-opacity=".3" stroke-width="__RESOLUTION__" d="m3.7 35.6.9-.7h0l.5-1.4-.8-1.5v-.6l-.4-4.9q-.7-9-.2-18.8T3 1.9q-.2-5-1.7 6l-.5 3.4q-.8 6-.1 18.1l.2 2.8-.5 1.6.7 1.9h0l1.8.4z" vector-effect="non-scaling-stroke"/></g><g id="u"><path fill="#0d0f0d" d="m4.5 1.4.5 2 .7-1.9.8.4q.8.4.8 1t-.8 1l-.8.4H4.6l-1.2-.1-.6-2.4zm0 3h.6l.5-.2.5.4v.7L5.5 9l-.4-2-.3-1.6-.1-.6z"/><path fill="#242316" d="m4.5 1.4-1.7.4-.1.1q-.8.4-.8 1t.8 1l.6.3 1.3.1v.5l-1 .2-.8-.2-1-.9-.5-2.3L2 1l.5-.2L4.4.3zm1.2 2.9.8-.4q.8-.4.8-1t-.8-1l-.8-.4.4-1q2.3.3 2.5 2.4L7.2 4.5l-1 .1zm.5 1 1 .3q-.6 3-.8 6l-1.7-1L5.1 7l.5 2.1zM3.6 6.6l.7-1.2.1 5-.9-.6zM5.7 16v.4L3.5 16v-2.2z"/><path fill="#1e1d14" d="m2.8 1.8.6 2.4-.7-.3q-.8-.4-.8-1t.8-1z"/><path fill="#292818" d="M6.2 5.3v-.7l1-.1v1.1zm-1.5-.5.1.6h-.5l-.7 1.2-.1-1.2h.4l-.4-.2V5z"/><path fill="#242216" d="m5.1 7-.4 3.5-.2 2-.1-2.1-.1-5h.5z"/><path fill="#32301d" d="m4.7 10.5 1.7 1.1v5.5q.1 3.2.8 6.5l-.9.3-.3-12-.3 4.1-2.2-2.2V9.9l.9.5v2.1zM3.5 16l2.2.5-.5 7.8h-2z"/><path fill="#282718" d="M6.4 11.6q.2-3 .8-6V4.5l1.4-1.6-.9 4.5q-.8 3.9-.7 6l.3.2.7-.9-.1 2v.1q.2 3.2.7 6.5 0 1-.4 1.6l-1 .7q-.7-3.3-.8-6.5zM3.5 5.4l.1 1.2v3.2l-2-2.3.4-1.4-.1-.7H2l.3.1h.3zm2.2 11V16l.3-4.2.3 12.1-1.1.3zm-2.2-2.7v2.1h-.1l-2-1.6v-3.6z"/><path fill="#363529" d="M3.5 5v.2l-.8-.4z"/><path fill="#2c2b1c" d="m3.5 5.2.4.2h-.4l-.9.1H2l-.1-.2L1.7 4l1 .9z"/><path fill="#363629" d="m1.5 7.5 2 2.3v3.9l-2.1-3-.1-2.4zm-.1 6.8 2 1.6-.1 8.2-3-1.6q.9-4.1 1.1-8.2"/><path fill="none" stroke="#0d0f0d" stroke-linecap="round" stroke-linejoin="round" stroke-opacity=".3" stroke-width="__RESOLUTION__" d="m4.5 1.4-1.7.4-.1.1q-.8.4-.8 1t.8 1l.6.3 1.3.1h.6m.5 0 .8-.4q.8-.4.8-1t-.8-1l-.8-.4m-3.4 4H2" vector-effect="non-scaling-stroke"/><path fill="none" stroke="#0d0f0d" stroke-linecap="round" stroke-linejoin="round" stroke-opacity=".7" stroke-width="__RESOLUTION__" d="m5.2 4.4.5-.2.5.4v.7L5.5 9l-.4-2-.3-1.6-.1-.6-.2-.5m1.2-2.8L5 3.3M6 .5l-.4 1m-1.2 0L4.3.2" vector-effect="non-scaling-stroke"/><path fill="none" stroke="#0d0f0d" stroke-linecap="round" stroke-linejoin="round" stroke-opacity=".3" stroke-width="__RESOLUTION__" d="M8.6 3Q8.4.7 6 .4m1.6 7 .9-4.6m0 18.4q-.5-3.3-.7-6.5v-.2M4.3.4 2.6.7 2 1l-.8.6m.1 6.7.1 2.4v3.6q-.2 4.1-1 8.2" vector-effect="non-scaling-stroke"/></g><g id="s"><path fill="#292818" d="m4.6 1.4 1.9.5q.8.4.8 1t-.8 1-1.9.4L2.7 4q-.8-.4-.8-1t.8-1zm2.6 3.1v1.1l-1-.3h-.9l-1 .1-.7 1.2-.1-1.2h.4l-.4-.2V5z"/><path fill="#313020" d="M4.6 1.4 2.7 2q-.8.4-.8 1t.8 1l1.9.4q1.1 0 1.9-.4t.8-1-.8-1zm2.6 3.1L3.5 5l-.8-.2-2-1.7V3Q.8 1.6 2 1q1.9-1 4-.5 2.4.3 2.6 2.4z"/><path fill="#282718" d="M7.2 5.6V4.5l1.4-1.6q-1.5 9.3 0 18.4 0 1-.4 1.6l-1 .7q-1.7-9.1 0-18M6.3 24l-1.1.2.8-12.4z"/><path fill="#363529" d="M3.5 5v.2l-.8-.4zm.8.4h1l-.8 7.1z"/><path fill="#2c2b1c" d="m3.5 5.2.4.2h-.4l-1.2.1H2l-1.1-1-.3-1.4 2.1 1.7z"/><path fill="#363629" d="m3.5 5.4.1 1.2-.4 17.6-2.9-1.7q1.9-9 .6-18l1.1 1h.3z"/><path fill="#32301d" d="m3.6 6.7.7-1.3.2 7.1.8-7.1.9-.2 1 .4q-1.7 8.9 0 18l-.9.3-.3-12-.8 12.4h-2z"/><path fill="none" stroke="#0d0f0d" stroke-linecap="round" stroke-linejoin="round" stroke-opacity=".3" stroke-width="__RESOLUTION__" d="M4.6 1.4 2.7 2q-.8.4-.8 1t.8 1l1.9.4q1.1 0 1.9-.4t.8-1-.8-1zM2.3 5.5H2" vector-effect="non-scaling-stroke"/><path fill="none" stroke="#0d0f0d" stroke-linecap="round" stroke-linejoin="round" stroke-opacity=".3" stroke-width="__RESOLUTION__" d="M8.6 21.3Q7.1 12.2 8.6 3 8.4.7 6 .4 3.9 0 2 1 .8 1.6.7 3v0l.2 1.4q1.3 9-.6 18" vector-effect="non-scaling-stroke"/></g><g id="q"><path fill="#262416" d="m7.2 4.5 1.4-1.6q-1.1 7-.6 13.6l.2 2.6v.5h-.9l-.8-.4-.1-1-.2-2.3v-1.1l.7-.1-1.2-.4.2-2.5.3 1q.2-3.6.9-7.2zM5.8 14.6l.3.2V19l.1 1 .1 3.3v.6l-1.1.3.1-1.4V22l.3-.9v2q1-3.4.2-4.2l-.2-.3zm-2.4 2.7-.1 4.4-.6-.2h-.2L1 19.8l.5-5 1.7 2zM1.3 8.7l1.4 1.9.8.8v2.2l-2-.9z"/><path fill="#302d1e" d="M8.6 3 7.2 4.4 3.5 5l-.8-.2-2-1.7V3Q.8 1.6 2 1q1.9-1 4-.5 2.4.3 2.6 2.4M7.3 3q0-.6-.8-1l-1.9-.5-1.9.5q-.8.4-.8 1t.8 1l1.9.4q1.1 0 1.9-.4t.8-1"/><path fill="#272516" d="M7.2 4.5v1.1l-1-.3h-.9l-1 .1-.7 1.2-.1-1.2h.4l-.4-.2V5zm.1-1.6q0 .6-.8 1t-1.9.4L2.7 4q-.8-.4-.8-1t.8-1l1.9-.5 1.9.5q.8.4.8 1"/><path fill="#302e1c" d="M7.2 5.6q-.7 3.7-.9 7.3L6 11.8l-.2 2.4-1.3-2 .8-6.8.9-.2zm-.9 9.2v1.1l.2 2.3.1 1v.1l-.4-.3-.2-4.2zm-1 8-.1 1.4h-2l.1-2.4zm1 1.1v-.6l.2.3v.1l.3.1h-.2zm-.5-9.2-.2 3.9-2.2-1.4v-3.6zm-2.3-3.3.1-4.7.7-1.2.2 6.8z"/><path fill="#1f1e13" d="m5.8 14.3 1.2.4-.7.1H6l-.2-.2-2.3-1v-2.3l1 .9v.3-.3zm-.2 4.4.2.3q.8.9-.2 4.2v-2l-.2 1-.2.2-1.8-.6h-.1l.1-4.4zm.6 1.4v-1l.4.3-.1 4.3z"/><path fill="#232114" d="m6.6 19.2.8.3 1 .1v.9l.2.8q0 1-.4 1.6l-1 .7-.3.1-.1.1h-.2l-.1-.2z"/><path fill="#2a291a" d="m.6 3.1 2.1 1.7.8.4.4.2h-.4l-1.2.1H2l-1.1-1z"/><path fill="#353328" d="m2.7 4.8.8.2v.2zm1.8 7.4v.3zl-.2-6.7 1-.2z"/><path fill="#262417" d="m5.4 22-.1.8-2-1 2 .5zm1 1.3L6.2 20l.3 3.6z"/><path fill="#363428" d="m2 5.4.3.1 1.2-.1.1 1.2-.1 4.7-.8-.8-1.4-2v-.7L.9 4.5zm-.6 9.3v-2.2l2 1v3.7l-.4-.5zm-.5 5 1.7 1.6.1.1.6.3V24l-3-1.6.5-2z"/><path fill="none" stroke="#090b0a" stroke-linecap="round" stroke-linejoin="round" stroke-opacity=".3" stroke-width="__RESOLUTION__" d="m8.4 19.6-.1-.5-.2-2.6Q7.5 9.8 8.6 3 8.4.7 6 .4 3.9 0 2 1 .8 1.6.7 3v0l.2 1.4.4 3.3v.7l.2 4.1-.1.8v1.4l-.5 5-.2.6-.4 2.1m8.3-1.2-.2-.8h0v-.9" vector-effect="non-scaling-stroke"/><path fill="none" stroke="#090b0a" stroke-linecap="round" stroke-linejoin="round" stroke-opacity=".3" stroke-width="__RESOLUTION__" d="M7.3 2.9q0-.6-.8-1l-1.9-.5-1.9.5q-.8.4-.8 1t.8 1l1.9.4q1.1 0 1.9-.4t.8-1m-5 2.6H2" vector-effect="non-scaling-stroke"/></g><g id="m"><path fill="#212114" d="m4.6 1.4 1.9.5q.8.4.8 1t-.8 1-1.9.4L2.7 4q-.8-.4-.8-1t.8-1zm2.6 3.1v1.1l-1-.3h-.9l-1 .1-.7 1.2-.1-1.2h.4l-.4-.2V5z"/><path fill="#29271b" d="M4.6 1.4 2.7 2q-.8.4-.8 1t.8 1l1.9.4q1.1 0 1.9-.4t.8-1-.8-1zm2.6 3.1L3.5 5l-.8-.2-2-1.7V3Q.8 1.6 2 1q1.9-1 4-.5 2.4.3 2.6 2.4z"/><path fill="#212013" d="M7.2 5.6V4.5l1.4-1.6q-1.5 9.3 0 18.4 0 1-.4 1.6l-1 .7q-1.7-9.1 0-18M6.3 24l-1.1.2.8-12.4z"/><path fill="#2e2c22" d="M3.5 5v.2l-.8-.4zm.8.4h1l-.8 7.1z"/><path fill="#242317" d="m3.5 5.2.4.2h-.4l-1.2.1H2l-1.1-1-.3-1.4 2.1 1.7z"/><path fill="#2e2d23" d="m3.5 5.4.1 1.2-.4 17.6-2.9-1.7q1.9-9 .6-18l1.1 1h.3z"/><path fill="#292818" d="m3.6 6.7.7-1.3.2 7.1.8-7.1.9-.2 1 .4q-1.7 8.9 0 18l-.9.3-.3-12-.8 12.4h-2z"/><path fill="none" stroke="#090b0a" stroke-linecap="round" stroke-linejoin="round" stroke-opacity=".3" stroke-width="__RESOLUTION__" d="M4.6 1.4 2.7 2q-.8.4-.8 1t.8 1l1.9.4q1.1 0 1.9-.4t.8-1-.8-1zM2.3 5.5H2" vector-effect="non-scaling-stroke"/><path fill="none" stroke="#090b0a" stroke-linecap="round" stroke-linejoin="round" stroke-opacity=".3" stroke-width="__RESOLUTION__" d="M8.6 21.3Q7.1 12.2 8.6 3 8.4.7 6 .4 3.9 0 2 1 .8 1.6.7 3v0l.2 1.4q1.3 9-.6 18" vector-effect="non-scaling-stroke"/></g><g id="k"><path fill="url(#a)" d="M-13.2 39.3Q-14.7 7-9.6 5.3q6.5-2 14.5-3.6.6-.7-.5 13.7l-.9 5.5-6.6-.5-1.6-.1q-.2 0-.9 2.2-.8 2.6-.8 4.9 0 .9.9 2.6.8 1.6.8 2.9 0 1-1.2 2.6t-2.4 1.7q-1.5 0-3.1-.8-.8 0-1.8 2.9" transform="translate(14 -1.15)"/><path fill="#222313" d="M.8 38.2q1-3 1.8-3 1.6.9 3.1.9 1.1 0 2.4-1.7t1.2-2.6q0-1.3-.9-3t-.8-2.6q0-2.2.8-4.8.7-2.3 1-2.3l1.4.1 6.8.6Q14.6 33.9 2 58.6 1 47.2.8 38.1"/><path fill="none" stroke="#0d100c" stroke-linecap="round" stroke-linejoin="round" stroke-opacity=".3" stroke-width="1" d="m17.6 19.8.8-5.6Q19.6-.2 18.9.6 10.9 2 4.4 4.2q-5 1.6-3.6 34 .4 9 1.3 20.4Q14.6 34 17.6 19.9"/></g><g id="j"><path fill="#1f2310" d="M41 13.7h.1q17.3-8 23.7-8.6l6.7-.3-6.7 2-.6.1Q55 10.4 42.6 17.5h-1.9l-.1-1.9zq7.4-4.9 19.6-9.9-2.4-1.2-4.2-3.3Q50.9 2.6 45 6.1l-1.5 2.5q-1.7 2.7-2.5 5M18.3 27.2l3.6 2q-.1 1.3-2 2.6-2.7 1.7-11.6 5.5 5.2-5.4 10-10.1"/><path fill="#1b1f0f" d="M64.8 5q-6.4.7-23.7 8.7 7.3-4.9 19.5-9.9 1.9.9 4.2 1.2"/><path fill="#201f14" d="m41 13.7-.4 1.9.1 1.8 2 .1Q32.3 23.4 20 31.9l-.2-.2q2-1.2 2.1-2.6l-3.6-2Q32.6 13.5 45 6.1l-1.5 2.5q-1.7 2.7-2.5 5"/><path fill="#171a0f" d="m64.9 6.7 6.6-1.9q7.3.6 21 12.2Q70.3 5.3 64.8 6.7"/><path fill="#1f1d14" d="m19.8 31.7.2.2L.5 45.8l7.8-8.5v-.1q8.9-3.8 11.5-5.5"/><path fill="none" stroke="#0d0f0b" stroke-linecap="round" stroke-linejoin="round" stroke-opacity=".3" stroke-width="1" d="M42.7 17.5Q55 10.3 64.2 7l.6-.3 6.7-1.9q7.3.6 21 12.2Q70.3 5.3 64.8 6.7M45 6.1q-12.5 7.5-26.7 21-4.8 4.7-10 10.1h0L.5 45.9l19.5-14q12.4-8.5 22.7-14.4M45 6.1Q50.9 2.6 56.4.5m15.1 4.3-6.7.2q-2.3-.3-4.2-1.2-2.4-1.2-4.2-3.3"/></g><g id="i"><path fill="url(#b)" d="M2-6q8-20 60.8 15.7Q9.8-8.4 2.1-6" transform="translate(1.8 13.65)"/><path fill="none" stroke="#0c0e0b" stroke-linecap="round" stroke-linejoin="round" stroke-opacity=".3" stroke-width="1" d="M3.9 7.6q-.6 1.3-.9 2.9L.5 13.6q.3-2.2 2.5-3.1-1.3-2.2.8-2.9 8-20 60.8 15.8Q11.6 5.2 3.9 7.6"/></g><g id="f" transform="translate(93.45 -2.2)"><use xlink:href="#c" width="72.1" height="72.1" transform="matrix(.23 -.11 .23 .11 -80.9 30.75)"/><use xlink:href="#d" width="72.1" height="72.1" transform="matrix(.42 -.21 .42 .21 -93.45 31)"/><use xlink:href="#e" width="407.6" height="57.8" transform="matrix(.13 -.07 .23 .11 -72.45 28.9)"/><use xlink:href="#e" width="407.6" height="57.8" transform="matrix(.14 -.06 .23 .11 -72.35 28.5)"/></g><g id="Y" transform="translate(34.2 189.45)"><use xlink:href="#f" width="91.9" height="44" transform="translate(-34.2 -36.5)scale(1.16)"/><use xlink:href="#g" width="5.4" height="36.5" transform="matrix(1.18 -.15 .07 .51 -15.1 -23.25)"/><use xlink:href="#h" width="8.9" height="37.2" transform="matrix(.62 .13 -.2 .98 10.9 -35.4)"/><use xlink:href="#i" width="65.1" height="23.9" transform="matrix(.52 .57 -.77 .55 7.35 -135.4)"/><use xlink:href="#j" width="93" height="46.3" transform="matrix(-.43 .05 -.05 .55 42.6 -142.3)"/><use xlink:href="#k" width="19.6" height="59.1" transform="matrix(-.74 .05 -.26 .54 15.7 -130)"/><use xlink:href="#l" width="8.8" height="64.6" transform="matrix(-.15 2.11 -.4 .31 33.85 -169.55)"/><use xlink:href="#i" width="65.1" height="23.9" transform="matrix(-.42 .08 .55 .56 -2 -139.9)"/><use xlink:href="#j" width="93" height="46.3" transform="matrix(.32 .19 .02 .29 -28.25 -156.7)"/><use xlink:href="#k" width="19.6" height="59.1" transform="matrix(.55 .3 .17 .36 -8.55 -140.5)"/><use xlink:href="#m" width="8.9" height="24.2" transform="matrix(2.38 -.06 .03 2.38 -12.55 -55.2)"/><use xlink:href="#p" width="15.7" height="14.9" transform="matrix(.83 .6 -.31 2.07 -11.75 -30.3)"/><use xlink:href="#q" width="8.9" height="24.2" transform="matrix(2.38 -.06 -.16 2.38 -7.3 -101.1)"/><use xlink:href="#r" width="15.7" height="14.9" transform="matrix(1.33 .7 -.16 2.38 -12.45 -86.95)"/><use xlink:href="#s" width="8.9" height="24.2" transform="matrix(2.26 -.19 .11 2.26 -8.95 -144.75)"/><use xlink:href="#t" width="15.7" height="14.9" transform="matrix(.81 .53 -.23 1.98 -7.35 -121.05)"/><use xlink:href="#u" width="8.9" height="24.2" transform="matrix(2.13 0 -.02 2.24 -6 -189.45)"/><use xlink:href="#t" width="15.7" height="14.9" transform="matrix(.86 .48 -.01 1.44 -8.55 -157.6)"/><use xlink:href="#v" width="8.9" height="37.2" transform="matrix(.63 0 0 1 -5.15 -32.65)"/><use xlink:href="#w" width="5.4" height="36.5" transform="matrix(-.57 .14 .12 .5 -9.45 -16.6)"/><use xlink:href="#x" width="5.4" height="36.5" transform="matrix(.54 -.07 -.11 .35 9.7 -11.65)"/><use xlink:href="#y" width="34.4" height="191.3" transform="translate(1.05 -187.7)"/></g><path id="T" fill="url(#z)" d="M7.9-.4q0 3-2.2 5.4Q3.5 7.3.3 7.5t-5.7-2q-2.3-2-2.4-5.1T-5.7-5t5.5-2.5 5.6 1.9T7.8-.4" transform="translate(7.85 7.5)"/><path id="e" fill="url(#L)" d="M66.2-20.9q20.3-4.7 26.9-6.5l14.5.3q122.4 3.5 89 19.2-26.2 12.3-88.1 21l-8.5 1.1q-24.8-3.4-46.6-1.4t-35.2 9.7l-13 1Q-44 13-78.5 28.6l-12.7.4q-7.2-7-38.9-9-31.6-2.1-71 8.9l-2.7-56.1q27.7 5.7 55.4 6t51.9-7.5l12.7-.1q38.8 11.2 79.6.2l13.3.1q36.8 12.4 57.1 7.7" transform="translate(203.8 28.9)"/><path id="d" fill="url(#M)" d="M25.5-25.5Q36-14.9 36 0T25.5 25.5Q15 36 0 36t-25.5-10.5T-36 0t10.5-25.5T0-36t25.5 10.5" transform="translate(36.05 36.05)"/><path id="c" fill="url(#N)" d="M25.5-25.5Q36-14.9 36 0T25.5 25.5Q15 36 0 36t-25.5-10.5T-36 0t10.5-25.5T0-36t25.5 10.5" transform="translate(36.05 36.05)"/><path id="y" fill="#090b0a" d="M11.7-178.7q-1.1 1.6-1.7 5.7v9.3q-.1 6.3.1 12.3.2 5.6 20.8-14.5l2.6-2.3q3.2-2.7 1 .8-3.6 6.1-22.8 30.2v.5q-1.8 16.6-1.3 24.3.4 7.8 1.8 13.2 1.5 5.4.5 11.2t-1 12.5q0 6.5.9 11.4t-.4 8.5-3.4 10.9q-2.3 7.3-1.4 9 2.2 17.5 2.2 20Q10.9 3.6 5.3 3.6 1.9 3.6 1.9.2l1.3-15.8q0-3.8-2.1-20Q1-39.3 4-46t2.9-10.7l-1.6-19q0-11.4 1.6-20.5 0-3.8-1.2-12.5t-1.2-11.1l.8-16.7v-.4q-.8-.8-.8-2.4l.7-1-.7-10q-.9-9-.9-13.8v-12.5q1.6-11.1 5.6-11.1 4.2 0 3.4 5.1 0 2.7-.9 3.9" transform="translate(-1.05 187.7)"/><path id="t" fill="url(#O)" d="M7.9-.4q0 3-2.2 5.4Q3.5 7.3.3 7.5t-5.7-2q-2.3-2-2.4-5.1T-5.7-5t5.5-2.5 5.6 1.9T7.8-.4" transform="translate(7.85 7.5)"/><path id="p" fill="url(#P)" d="M7.9-.4q0 3-2.2 5.4Q3.5 7.3.3 7.5t-5.7-2q-2.3-2-2.4-5.1T-5.7-5t5.5-2.5 5.6 1.9T7.8-.4" transform="translate(7.85 7.5)"/><use xlink:href="#Q" id="x" width="5.4" height="36.5"/><use xlink:href="#R" id="w" width="5.4" height="36.5"/><use xlink:href="#S" id="v" width="8.9" height="37.2"/><use xlink:href="#T" id="r" width="15.7" height="14.9"/><use xlink:href="#U" id="l" width="8.8" height="64.6"/><use xlink:href="#V" id="h" width="8.9" height="37.2"/><use xlink:href="#W" id="g" width="5.4" height="36.5"/><radialGradient id="z" cx="0" cy="0" r="819.2" gradientTransform="matrix(.01 0 0 .01 0 -.05)" gradientUnits="userSpaceOnUse" spreadMethod="pad"><stop offset="0" stop-color="#363728" stop-opacity=".2"/><stop offset=".7" stop-color="#363831" stop-opacity="0"/></radialGradient><radialGradient id="M" cx="0" cy="0" r="819.2" gradientTransform="scale(.04)" gradientUnits="userSpaceOnUse" spreadMethod="pad"><stop offset=".2" stop-color="#12130a" stop-opacity=".3"/><stop offset="1" stop-color="#10120a" stop-opacity="0"/></radialGradient><radialGradient id="N" cx="0" cy="0" r="819.2" gradientTransform="scale(.04)" gradientUnits="userSpaceOnUse" spreadMethod="pad"><stop offset=".7" stop-color="#12130a" stop-opacity=".5"/><stop offset="1" stop-color="#10120a" stop-opacity="0"/></radialGradient><radialGradient id="O" cx="0" cy="0" r="819.2" gradientTransform="matrix(.01 0 0 .01 0 -.05)" gradientUnits="userSpaceOnUse" spreadMethod="pad"><stop offset="0" stop-color="#363829" stop-opacity=".2"/><stop offset=".7" stop-color="#363832" stop-opacity="0"/></radialGradient><radialGradient id="P" cx="0" cy="0" r="819.2" gradientTransform="matrix(.01 0 0 .01 0 -.05)" gradientUnits="userSpaceOnUse" spreadMethod="pad"><stop offset="0" stop-color="#2e2f23" stop-opacity=".2"/><stop offset=".7" stop-color="#2e302a" stop-opacity="0"/></radialGradient><linearGradient id="L" x1="-819.2" x2="819.2" gradientTransform="matrix(.2 0 0 .04 -30.8 -11)" gradientUnits="userSpaceOnUse" spreadMethod="pad"><stop offset="0" stop-color="#11130a" stop-opacity=".3"/><stop offset="1" stop-color="#10120a" stop-opacity="0"/></linearGradient><linearGradient id="a" x1="-819.2" x2="819.2" gradientTransform="matrix(0 -.01 .03 .01 -2.25 18)" gradientUnits="userSpaceOnUse" spreadMethod="pad"><stop offset=".5" stop-color="#242811" stop-opacity="1"/><stop offset="1" stop-color="#1c210f" stop-opacity="1"/></linearGradient><linearGradient id="b" x1="-819.2" x2="819.2" gradientTransform="matrix(.04 0 0 .01 31 4.85)" gradientUnits="userSpaceOnUse" spreadMethod="pad"><stop offset=".5" stop-color="#1b1f0f" stop-opacity="1"/><stop offset="1" stop-color="#161a0e" stop-opacity="1"/></linearGradient><clipPath id="X"><path d="M1 1h100v192H1z"/></clipPath></defs><g clip-path="url(#X)"><use xlink:href="#Y" width="106.3" height="203.8" transform="translate(1 1)scale(.9386)"/></g></svg>