<svg xmlns="http://www.w3.org/2000/svg" xmlns:xlink="http://www.w3.org/1999/xlink" width="29" height="52" viewBox="0 0 29 52"><defs><use xlink:href="#a" id="b" width="34.3" height="62.5"/><use xlink:href="#b" id="d" width="34.3" height="62.5" transform="scale(.77 .79)"/><clipPath id="c"><path d="M1 1h27v50H1z"/></clipPath><g id="a"><path fill="#837927" d="M19 17.7h.2l2.1 1.6.4.2 2.1 1.6 2.2 1.4.2.2.9.6.6.6-8.7-6.1zq4.3 3.4 8.8 6.2h.1l.5.4 2 1h.1l.6.3 1.5 1 .1.9v.6l-3.6 1.7-1.2-.7-9-5.9zl-7.3-6.2.5.4q3.6 3.1 4.2 3.4l.3.3q.4.6 1.8 1.4l.2.3zm-2.7 35.6L10 49.7l-2-1.2-1.1-.6Q.6 20.3 1.1 1.2V1l.1-.1 1.1 1.3.8.8.6.7 1 1 1.7 1.8 2.5 2.3.4.6.6.7 1.7 1.4 7.4 6.2v5.4l-8.1-6q-.3 10 1 18.8l-1.7.5q1.3 4.3 2.9 6.3 1.2 5.5 3.1 10.5m17.5-31.1h-.1V22zM28 24v5.2zM10 49.8V10.1zm22.7-23.1-4.2-2.4z"/><path fill="#847126" d="M33.3 37.7v.9l-.1.2v-1.3zv.9z"/><path fill="#d9c67b" d="M33.2 42.7v2l-.2 1v.4l-.2 2.6v.1l-.1.5v.9l-.1.5-.1.5v1.4h-.1L31 52l-1.3-.6-1.9-1-1-.4v-2.9l5.9-2.9v-5.9l-3.6-1.7-1.9 1.1-.4.1V31l6.1 3 .1.1.1 1.5v7.2l-.2 3-.2 3.1.2-3.1zm-.5 6.6-.2 1.9-.1 1.4.1-1.4z"/><path fill="#b0a435" d="M32.5 52.7v.5l-1 7-.4 1.5-.4-.2-.3-.2-.4-3.4v.1l-.3.5-.3.6-.5 1.1v.3l-1-.5-1-.6-.8-10.1v9.6l-2-1.1v-1l-.4-3.8v4.5l-2.9-1.6-1.9-7.4-.1-.6-.2-1.2-.7-3.1 1 .6q2.4 1.4 5 4.3l3-1.4V50l1 .5 1.9.9.2 2.4 1.2-.1v-1.2L31 52l1.3.6zm-14.6 1.6-1.7-.9q-1.9-5-3.1-10.5l.3.3 3.7.1zm1-31 9 5.9 1.3.7-1.3.6-1 .5v7l-2.4 1-1.9-1v-4.4l-1.4-3.7.8 7.7-2.2-1q-3-1.1-5.5-1.2.3-8 1-9.8L14 23.3q-.9 4.3.2 7.8v4.1L12 36q-1.3-8.9-1-18.8zq1.5 4.9.9 13.3.6-8.4-.9-13.3m0 21-.3 2.4zM28 29v1.4zm2.9 32.5q1-4.6 1.6-9-.6 4.4-1.6 9m-3-1.5v-9.5z"/><path fill="#625a1e" d="m30.4 61.3-1.5-.8v-.2l.5-1.2.3-.6.3-.5v-.1zM27 59.4l-1-.5v-9.6zm-3-1.6-.5-.3.1-4.5.4 3.8zm-3.3-1.9-1.9-1-1-.6-.8-11 .8.3.7 3 .2 1.3.1.6zm-1.9-1v-6.4z"/><path fill="#d5be66" d="m14.2 35.3-.1-4.1q-1.1-3.6-.2-8l1.4 2.3q-.7 1.8-1 9.8zm8.5 2.6-.6-.4-.7-7.7 1.3 3.7zm7.2 13.5 1.3.6v.5l.1 1.2H30z"/><path fill="#7c7325" d="M14.2 35.3q2.6 0 5.4 1.2l2.3 1 .6.4 1.9 1 2.4-1 .4-.2 1.8-1.1 3.7 1.8-8.8 4.4-1.4-1.2-.2-.2-2.9-1.8-2.6-1.1-.1-.1-2.6-.9L12 37l-1.8-.5 1.7-.5z"/><path fill="#544e19" d="m10.2 36.6 1.8.4 2.2.5 2.6.9 2.7 1.2 2.9 1.8.3.2 1.3 1.1v5.8q-2.7-2.9-5-4.3l-1.1-.6-.8-.4-3.8-.1-.2-.4q-1.6-2-2.9-6.2"/><path fill="#3a3612" d="M24 48.6v-5.9l8.8-4.4v5.9L27 47.1z"/><path fill="#b19834" d="m29.2 29.8 3.5-1.7v1.3l.1.4.2 2.2v.1l.1 1.9H33l-6-3.1.9-.4z"/><path fill="none" stroke="#554f1a" stroke-linecap="round" stroke-linejoin="round" stroke-opacity=".3" stroke-width="__RESOLUTION__" d="M19 17.7v5.5q1.4 4.9.8 13.3m8.1-7.4v-5.2m-18-13.7v39.5m8.7-3 .2 1.2.1.6V55m-.3-8.2.3-2.5m9-13.8v-1.3m0 21.4V60" vector-effect="non-scaling-stroke"/><path fill="none" stroke="#554f1a" stroke-linecap="round" stroke-linejoin="round" stroke-opacity=".8" stroke-width="2" d="M19 17.8q4.3 3.3 8.8 6m4.8 2.8.1.9q.6 5.1.6 10.2v.9l-.1 4.1-.2 3-.2 3.1-.1.5h0l-.2 1.9-.1 1.4q-.6 4.4-1.6 9m-.4-.3-1.5-.8-1-.5-1-.6-.8-.5-2-1.1-.5-.3-2.8-1.6-1.9-1-1-.6-1.7-1-6.3-3.6-2-1.2M6.8 48l.4 1.6m4.4-37.9 7.4 6.2M9.3 9.5l-.4-.6-2.5-2.3-1.7-1.8-1-1-.6-.7-.8-.8L1.2 1h-.1v.1Q.6 20.3 6.8 48M9.3 9.5l2.3 2.1m16.8 12.7 4.2 2.3h0"/><path fill="none" stroke="#413c14" stroke-linecap="round" stroke-linejoin="round" stroke-opacity=".5" stroke-width="__RESOLUTION__" d="M14.2 35.3q2.6 0 5.4 1.2l2.3 1 .6.4 1.9 1 2.4-1 .4-.2 1.8-1.1 3.7 1.8v5.8L27 47.1l-3 1.4q-2.7-2.9-5-4.3l-1.1-.6-.8-.4-3.8-.1-.2-.4q-1.6-2-2.9-6.2l1.7-.5z" vector-effect="non-scaling-stroke"/><path fill="none" stroke="#3a3612" stroke-linecap="round" stroke-linejoin="round" stroke-opacity=".4" stroke-width="__RESOLUTION__" d="m29.2 29.8 3.5-1.7h0M27 30.9v7m2.3-8.1-1.3.6-1 .5m0 16.2V50l1 .5 1.9.9 1.3.6 1.3.6h.1" vector-effect="non-scaling-stroke"/></g></defs><g clip-path="url(#c)"><use xlink:href="#d" width="26.3" height="49.4" transform="translate(1 1)"/></g></svg>