<svg xmlns="http://www.w3.org/2000/svg" xmlns:xlink="http://www.w3.org/1999/xlink" width="42" height="19" viewBox="0 0 42 19"><defs><clipPath id="a"><path d="M1 1h40v17H1z"/></clipPath><g id="b"><path fill="#000" fill-opacity=".3" d="M20.9 1.5q-1.1 2.4-1.1 5.3l2.7-.1q0-1.9 1.6-3.5-.7 1.7-.6 3.6l3 .5q.2-1.4 1.3-2.5-.4 1.1-.4 2.6l3.3 1q1.6-5 7.5-.7-4.4-1-4.2 2.6-.2 1.9 5 5.7-1.1.6-2.3.7-3.9 0-6.2-6.8l-3-1q.3 1.8 1.4 4-2-2.3-2.3-4.2l-2.9-.3q.4 2.3 1.9 5.2-2.6-3-3.1-5.4l-2.6.1q.3 3 1.8 6.5-2.7-3.5-3.2-6.4l-2.8.5q.3 2.4 1.5 5-2.1-2.5-2.6-4.7l-2.4.6-.1 1.4q-.1 2.9.4 5.4L9 17q-4.3 0-5.7-3l1-1.9q1.1-2.7-.9-3.2 4.4-4.8 10.3-6.4l-1.3 5.4 1.9-.5q0-2.6 2.3-5-1 2.3-1 4.8l2.7-.4q0-2.9 2.5-5.3"/><path fill="#d2ce86" d="m20.6 5.6 3 .5q-.2.7 0 1.5l-2.9-.4zm-5.1 1.7-2.8.5V6l2.7-.4zm-6.3 2.8q-.1 2.8.4 5.4l-3.4.3q-4.3 0-5.7-3l1-1.9q4.7 1.8 7.7-.8"/><path fill="#f7f3c0" d="M23.6 6.1q0-1.3 1.2-2.5-.4 1.2-.4 2.7l.1 1.5q.3 1.8 1.4 3.9-2-2.2-2.3-4.1-.2-.8 0-1.5m-2.9 1.1q.4 2.4 1.9 5.3-2.6-3-3.1-5.4V5.6q0-2 1.6-3.6-.7 1.8-.6 3.6zm-3.8 0q.3 3 1.8 6.4-2.7-3.4-3.2-6.3l-.1-1.6q0-3 2.5-5.4-1.1 2.5-1.1 5.3zm-4.2.7q.3 2.4 1.5 5Q12 10.2 11.6 8l-.2-1.7q0-2.7 2.3-5-1 2.3-1 4.8zm-3.5.8-.1 1.5q-3 2.6-7.7.8Q2.5 8.4.5 7.7 4.9 3 10.8 1.3L9.5 6.8zm-4.6-1q1.8-2 3.4-1.9v-.2q.1-.7-.3-1.3-.6-.5-1.3-.5-.9 0-1.5.5-.9.5-1 1.4-.3.8.3 1.4zL3.3 8.9z"/><path fill="#b5ab75" d="m24.4 6.3 3.3.9q1.6-5 7.5-.7-4.4-.9-4.2 2.7-.2 1.8 5 5.7-1.1.6-2.3.7-3.9-.1-6.2-6.9l-3-1zm-4.9.8-2.6.1-.1-1.5h2.7zm-8 .9-2.3.6.3-1.9 1.9-.4z"/><path fill="#fff" d="M4.6 7.6 4.2 7q-.6-.5-.3-1.4.1-.9 1-1.4.6-.5 1.5-.5.7 0 1.3.5.4.5.3 1.3v.2q-1.6-.1-3.4 1.8"/><path fill="none" stroke="#000" stroke-linecap="round" stroke-linejoin="round" stroke-opacity=".3" stroke-width="__RESOLUTION__" d="m20.6 5.6 3 .5q0-1.3 1.2-2.5-.4 1.2-.4 2.7l3.3.9q1.6-5 7.5-.7-4.4-.9-4.2 2.7-.2 1.8 5 5.7-1.1.6-2.3.7-3.9-.1-6.2-6.9l-3-1q.3 1.9 1.4 4-2-2.2-2.3-4.1l-2.9-.4q.4 2.4 1.9 5.3-2.6-3-3.1-5.4h-2.6q.3 3 1.8 6.5-2.7-3.4-3.2-6.3l-2.8.5q.3 2.4 1.5 5Q12 10.2 11.6 8l-2.4.6-.1 1.5q-.1 2.8.4 5.4l-3.4.3q-4.3 0-5.7-3l1-1.9Q2.5 8.4.5 7.7 4.9 3 10.8 1.3L9.5 6.8l1.9-.4q0-2.7 2.3-5-1 2.3-1 4.8l2.7-.4q0-3 2.5-5.4h0q-1.1 2.5-1.1 5.3h2.7q0-2 1.6-3.6-.7 1.8-.6 3.6" vector-effect="non-scaling-stroke"/><path fill="none" stroke="#d2ce86" stroke-linecap="round" stroke-linejoin="round" stroke-width="__RESOLUTION__" d="M4.6 7.6 4.2 7q-.6-.5-.3-1.4.1-.9 1-1.4.6-.5 1.5-.5.7 0 1.3.5.4.5.3 1.3v.2q-1.6-.1-3.4 1.8z" vector-effect="non-scaling-stroke"/><path fill="none" stroke="#000" stroke-linecap="round" stroke-linejoin="round" stroke-opacity=".3" stroke-width="__RESOLUTION__" d="M4.6 7.6 3.3 8.9" vector-effect="non-scaling-stroke"/></g></defs><g clip-path="url(#a)"><use xlink:href="#b" width="39" height="17" transform="translate(1 1)"/></g></svg>