<svg xmlns="http://www.w3.org/2000/svg" xmlns:xlink="http://www.w3.org/1999/xlink" width="74" height="143" viewBox="0 0 74 143"><defs><g id="b"><path fill="#dad294" d="M.1 2.2 1.9 0l2.4 2H.1"/><path fill="url(#a)" d="M0 2h4.2q-.2 11.4 0 23l-.2.8-.1 10.5v34.3l.3 15.8v1l.2 10.3q-2.5 2.3-4.3 0V2.1m3.2 0-.7 10H1.3v-.5.6h1.2zM2.1 17.5l.4-5.3zm-.8 3.4v-8.7zM4 24.8H1.8L0 23.6l1.8 1.3zm-4.1.8 1.9 1 2-1-2 1zm3.8 10.5L3 37.7l-1.9.8H.5l-.5-.7.5.6h.7l1.9-.6zm0 2.9-1.4 1.5h-2L0 40l.5.8h1.9zm-1.3 8.4v-4zm-2.5.1.8 1.1h2.1l.9-1-.9 1h-2zm3.8 1.8L2.9 51l-1.6.1L0 49.6l1.3 1.5h1.6zm-1 15.2h-.3V53v11.7zm1 .3H2.5v-.3H1V57v7.7h1.5v.3zM0 71l1 1.2h1.5v1.3-1.3H1zm2.5-6v7.2l1.4-1.7-1.4 1.7zM1 71.5v-6.8zm3 14.8-.7 1H1.7L0 84.5l1.7 2.8h1.6zm-4.1 1 .9 1 1.6-.1.8-1H4h-.8l-.8 1H.9z" transform="translate(.1 .1)"/><path fill="none" stroke="#000" stroke-linecap="round" stroke-linejoin="round" stroke-opacity=".3" stroke-width="__RESOLUTION__" d="M4.4 2.2 1.8 0 0 2m.1 38v-.4m1.3-27.9v.6h1.2l.7-10.1m-.7 10-.4 5.4m-.8-5.4v8.9M0 23.7 1.9 25h2.3m-.2.8-2 1-1.9-1M.1 38l.5.6h.7l1.9-.6.7-1.7M.1 40l.5.8h1.9l1.4-1.6m-1.3 4.4v4m1.3.3-.9 1H.9L0 47.8m0 1.9 1.3 1.5H3l.9-1.6m-1.3 3.5v11.6h.3m-1.8-7.6v7.6h1.5v.4h1.3m-1.3 8.5v-1.3H1L0 71m3.9-.5-1.4 1.7V65M1 64.8v6.8m-1 13 1.7 2.8h1.6l.7-1m.1 1h-.8l-.8.9H1l-.9-1" vector-effect="non-scaling-stroke"/><path fill="none" stroke="#8d7848" stroke-linecap="round" stroke-linejoin="round" stroke-width="__RESOLUTION__" d="M4.4 2.2Q4 13.3 4.1 25l-.2.8-.1 10.5v34.3L4 86.4l.1 1 .1 10.3Q2 99.9.1 97.7V40m0-.4V2.3" vector-effect="non-scaling-stroke"/></g><g id="f"><path fill="#435f48" fill-opacity=".7" d="M38 20.5v3q-3.2 2.6-5.5 6.2l-.3 3q-.5-2.1-1.5.9.1-1.2-.4-3.3-1.9 1.1-1.4 6.9-.4-4.4-1.2-6.2l.4-.1q.1-1-2-1.3l.1-.5h1l.3-.2-.2.2q3.8-1.4 7.6-4.9zM48.6 68q.2 3.8 1.3 5l-1.4 1.5-1.2-3q.9-.2 1.3-3.5m.8-27.7q-3.1-5.4-7.8-5.6l6.6-.1 4.7 3q-2.7 0-3.5 2.6M.1 16.6 1.5 13l.9 1.8L1.1 22zM0 26l1-1.1 1 2L.7 28zm13.9-9-.9-4 1-2.5.8 1.7zM9.4 82.9q.9-1.4 1.2-3.3 2.8 2.2 4.2 1.7v1l-4.6 2q.6 2.9 1.7 5l-2.4-4.6q-.5-.5-1-.7l.5-.6-3.9-8 3.6 3.4q-.6 1 .7 4"/><path fill="#512115" d="m34.4 1.3-.3.9 3.1 2.6L35.9 7l.4.3 3.4.1 3.1 4.5.9-.5.6 1.2-1.2.9-3.9-5-4.1.8-1.7-1.8L36.7 5l-3.3-2.6V.8z"/><path fill="#a35038" d="m43.7 11.4-.9.5-3.1-4.5-3.4-.2L36 7l1.3-2.2-3.1-2.6.3-.9L38 3.2 39 0l1 .5.9 4.3 4 2.2v1.2H42z"/></g><g id="e" fill="none" stroke-linecap="round" stroke-linejoin="round" stroke-width="__RESOLUTION__"><path stroke="#8d7848" d="m58.4 31.5-1.1 13.1Q63 48.5 67.8 47l.5-12.6q-5 .5-10-2.8-6.6-.3-12.2-4.7l-.3 4.2-.6 9q5.5 4.8 12.1 4.6l-.8 13.2q5.9 2.8 11 .9l.3-11.8M46.1 27q-4.9.6-11.3-5.4l-1.1 13.3q5.4 5.4 11.5 5.1l-.9 13.5q6.5 4.9 12.2 4.4l-.6 11.3q5.6 2.5 11.4.1l.2-10.5m-23.1-5.3-.6 12.1q6 3.5 12 3.6l-.4 12.1q6.3 1.8 11.8-.9l.1-11.1m-24.2 34.3q5.6 3.3 11.9 1.1V93.4q-5.5.9-11.9-2.1l-.2 2.4h0q-.4 5.6.1 9.8 1 3.5.8 13.1v.8q.2 0 0 .2 6.7 4.8 11.2 1.4.1-.7.1-.1 6.4 2.4 12.7 0l-.5-16q-5.8 3.5-12.3 1.7.5 5.7 0 9.6M43.2 91.3h-.6l.4 2.4m12.5-12.5L55 93.4q6.1 2.5 12.2-1.8V80.4m.1 22.5-.1-11.3M55.3 81.2q-6.3.8-12-2.6l-.2 12.7M32.6 82l-1.9-4.9-.1 3.5q-.4 5.5.6 6 6 4.1 11.3 4.7-1.4-9.3.9-12.7l.4-13q-6.3 0-11.8-4.1-.3 6.1-1.2 15.6M55 119l.6 12q6.3 1.2 12.8 1.5l-.7-13.5m.7 19.8v-6.2M55 118.9l-.1.1-.3 2.3m-11-3.9v.2h0l-.4 9.8v2m.3-2q5.9 2.2 12.1 3.4v9.8M43 127.2q-5.7-2.1-11.1-5v3.5M43 103.5q-5.4.3-11.9-4.2l.3 11q4.9 6.3 8.3 6.5 3.3.1 4 .6M9.9 6 9 19.8q6 7.5 12.8 8l1.3-13Q16.5 13.5 9.8 6 6.7 5.6 1.9.1l-.7 13.7q3.9 6.6 7.8 6l-.7 14q5.5 5 12.5 7l1-13q1.5 1.6 1.9 4.4m-2.9 8.5q2.8 3.3 12 6.8v-.2l.9-12.5q-2.6-.4-1.6 1.5M.3 41.2q3.4 6.4 7.5 7l.5-14.4q-3-.5-7.7-6.4zL.1 51.7q3.4 6 7.5 6.5l.2-10q5.7 6.3 12.1 7.6l.9-15M.1 51.8v14q4.6 6.8 7.5 7.3V58.4q5.9 7.3 11.8 8.6l.5-11q5.7 5.1 12 5.6l.5-7.8.4-6.2.4.2-.5-.4m-13.6 33v11.9q6 6 12 7V86.7q-4.4-1-9.8-4.7zq-5.4-1.2-11.5-7.2l.1 12q5.7 6.7 11.4 7.1l.3 11.9q5.6 5 12 6.2l.5 11.9q-6.1-3.3-12-7.7v6.1m10.7-40q-.6 1.8-1.6 3.8m-9.9-4.1.3-13.4q.6 10.2 1.9 15M.5 78.3 1 89.1q3.5 5.5 6.9 7.2L7.7 85Q4.1 83.8.5 78.3L0 65.8m1 23.3.7 8.8 6.6 6.8-.4-8.5q5.2 6 11.4 7.9l.5 10.4q-6-4.4-11.5-9.7v9.3M1.8 98v7m-.6-91L.6 27.3M24.3 20q0-4-1.1-5.2m10.1 32.9q6.3 5.4 11.1 5.7" vector-effect="non-scaling-stroke"/><path stroke="#000" stroke-opacity=".3" d="M43.4 127.4h.1m-.1 0h-.1l-.3-.2" vector-effect="non-scaling-stroke"/></g><radialGradient id="a" cx="0" cy="0" r="819.2" gradientTransform="matrix(.11 0 0 .11 4.25 8.4)" gradientUnits="userSpaceOnUse" spreadMethod="pad"><stop offset="0" stop-color="#cec464"/><stop offset="1" stop-color="#9c7438"/></radialGradient><clipPath id="c"><path d="M1 1h72v141H1z"/></clipPath><use xlink:href="#b" id="d" width="4.5" height="98.9"/></defs><g clip-path="url(#c)"><g transform="translate(37.15 116.6)"><use xlink:href="#d" width="4.5" height="98.9" transform="matrix(-1 0 0 1 -31.7 -114.4)"/><use xlink:href="#e" width="68.5" height="140.7" transform="translate(-34.6 -115.6)"/><use xlink:href="#d" width="4.5" height="98.9" transform="matrix(-1 0 0 1 35.6 -82.4)"/><use xlink:href="#f" width="52.8" height="89.3" transform="translate(-28.15 -83)"/></g></g></svg>