<svg xmlns="http://www.w3.org/2000/svg" xmlns:xlink="http://www.w3.org/1999/xlink" width="54" height="38" viewBox="0 0 54 38"><defs><clipPath id="b"><path d="M1 1h52v36H1z"/></clipPath><use xlink:href="#a" id="c" width="51.5" height="35.5"/><g id="a"><path fill="#b0ab84" d="m47.8 26.3-3.3-.4-8.2 4v1.6l-2.6-1L34 29l-1.6-.4.4-2.5 3.2 1.3 7.5-3.4.7-2.6 2 .4-.2 1.8 2.4.6zm-1.7-2.8v.1l-.6-.9.5 1zm-9.6 5.8v.6zm-1.6 1L34 29l-.6-.8.6.8zm11.9-5.8-.7-1z"/><path fill="none" stroke="#000" stroke-linecap="round" stroke-linejoin="round" stroke-opacity=".3" stroke-width="__RESOLUTION__" d="m47.8 26.3-3.3-.4-8.2 4v1.6l-2.6-1L34 29l-1.6-.4.4-2.5 3.2 1.3 7.5-3.4.7-2.6 2 .4-.2 1.8 2.4.6zm-2.2-3.6.4 1v-.2m-9.7 6.4.1-.6m-3-1.2.6.8.8 1.5m11.3-6.7.6.9" vector-effect="non-scaling-stroke"/><path fill="#000" fill-opacity=".3" d="M44.9 17.2q6.6 2.6 6.6 6.4 0 3.7-6.6 6.3-6.7 2.6-16.1 2.6T12.6 30t-6.7-6.3 6.7-6.4 16.2-2.7 16.1 2.7"/><path fill="#635a45" d="M2.3 6.6q1.5-1.7 4.5-3.1Q13 .4 22.3.4 28.8.4 34 2q2 .6 3.8 1.5 6.5 3.2 6.5 7.6t-6.6 10.5l-3.3 2.5q-21 7.7-32.2-17.5"/><path fill="#7d7257" d="M34.5 24.2q-5.6 3.6-12.5 3.6l-3-.2-1.4-.2q-5.9-1.1-10.4-5.2l-.6-.6Q.3 15.5.3 11.1q0-2.4 2-4.4 11.1 25.1 32.2 17.5"/><path fill="none" stroke="#5b5237" stroke-linecap="round" stroke-linejoin="round" stroke-width="__RESOLUTION__" d="M2.3 6.6q1.5-1.7 4.5-3.1Q13 .4 22.3.4 28.8.4 34 2q2 .6 3.8 1.5 6.5 3.2 6.5 7.6t-6.6 10.5l-3.3 2.5q-5.6 3.6-12.5 3.6l-3-.1M7.3 22.2l-.7-.6Q.3 15.5.3 11.1q0-2.4 2-4.4" vector-effect="non-scaling-stroke"/><path fill="#aa8c6a" d="M31.4 22.9q-4.2 1-9.1 1l-3.4-.1q-7-.6-12.1-3.1Q.3 17.6.3 13.2t6.5-7.6Q13 2.5 22.3 2.5q9 0 15.5 3.1 2.5 1.2 4 2.6l-12 4.4z"/><path fill="#917e46" d="M41.8 8.2q2.5 2.2 2.5 5 0 4.4-6.5 7.5-3 1.4-6.4 2.2l-1.6-10.3z"/><path fill="none" stroke="#5b5237" stroke-linecap="round" stroke-linejoin="round" stroke-width="__RESOLUTION__" d="M31.4 22.9q-4.2 1-9.1 1l-3.4-.1q-7-.6-12.1-3.1Q.3 17.6.3 13.2t6.5-7.6Q13 2.5 22.3 2.5q9 0 15.5 3.1 2.5 1.2 4 2.6 2.5 2.2 2.5 5 0 4.4-6.5 7.5-3 1.4-6.4 2.2" vector-effect="non-scaling-stroke"/><path fill="#8d8163" d="m36.5 2.9 1 .4.3.2q2.3 1 3.8 2.4L42.7 7q1.2 1.4 1.4 3l.1.6v.4q0 1.3-.5 2.4-1.2 2.9-5.9 5.2l-1.3.6Q19 14.6 20.9.4l1.4-.1 3 .1 4 .5h.3l2.2.5.6.1.3.1 1.6.5.5.1zm5 3q-1.2 2.6-3.5 6.3 2.3-3.7 3.5-6.3M33 11.4q3-3.8 4.3-7.6Q36 7.6 33 11.4"/><path fill="#7d7257" d="M36.5 19.2q-6.2 2.6-9.7 2.4h-.5q-8.5-1.1-14-7.6-5-5.8-4.7-11l2.6-1Q15 .5 20.9.4q-1.8 14.2 15.6 18.8"/><path fill="#635a45" d="m26.3 21.6-4 .1q-9.2 0-15.5-3.1Q.3 15.4.3 11q0-2.4 1.9-4.4 1.5-1.6 4.4-3l.2-.1.1-.1.8-.4q-.3 5.2 4.5 11 5.6 6.5 14.1 7.6"/><path fill="none" stroke="#506759" stroke-linecap="round" stroke-linejoin="round" stroke-width="__RESOLUTION__" d="M37.8 3.5q2.3 1 3.8 2.4L42.7 7m1.4 3 .1.6m-.5 2.8q-1.2 2.9-5.9 5.2l-1.3.6m0 0q-6.2 2.6-9.7 2.4M10.3 2Q15 .5 20.9.4l1.4-.1 3 .1m4 .5h.3m5.2 1.3 1.7.7" vector-effect="non-scaling-stroke"/><path fill="none" stroke="#8da798" stroke-linecap="round" stroke-linejoin="round" stroke-opacity=".8" stroke-width="__RESOLUTION__" d="m26.3 21.6-4 .1q-9.2 0-15.5-3.1Q.3 15.4.3 11q0-2.4 1.9-4.4m4.4-3 .2-.1.1-.1" vector-effect="non-scaling-stroke"/><path fill="none" stroke="#b1a88f" stroke-linecap="round" stroke-linejoin="round" stroke-width="__RESOLUTION__" d="M38 12.2q2.3-3.7 3.5-6.3m-4.2-2.2q-1.3 4-4.3 7.8" vector-effect="non-scaling-stroke"/><path fill="#b0ab84" d="m32.7 7.9.3 1.3h2V11l-2.7.5-5.4 5 .3 1.3-2.1-.1-.2-1.4-1.3.1-.4-2 2.8.2 5-4.5V8zm.4 1.3.1.2-.7-.6.7.6zm.7.8-.7-.6zM27 16v.5zm-1 1.2-1-.9-.7-.6.6.6z"/><path fill="none" stroke="#000" stroke-linecap="round" stroke-linejoin="round" stroke-opacity=".3" stroke-width="__RESOLUTION__" d="m32.7 7.9.3 1.3h2V11l-2.7.5-5.4 5 .3 1.3-2.1-.1-.2-1.4-1.3.1-.4-2 2.8.2 5-4.5V8zm-.2.9.7.6v-.2m0 .2.7.6m-6.7 6.5L27 16m-2.6-.2.6.5 1.1.9" vector-effect="non-scaling-stroke"/><path fill="#b0ab84" d="m27.9 14.5 1.4.7-.3 1.4 1.8.8-.9 1.7-2.5-.9-7.2 1.8-.3 1.3L18 20l.5-1.3-1.2-.6.7-1.8 2.3 1.5 6.6-1.5zm1.1 2v.2l-.3-.8.3.8zm.3.9-.4-.8zM19 20.2l-.4-1.4-.3-.7.3.7zm1.4-.7-.1.5z"/><path fill="none" stroke="#000" stroke-linecap="round" stroke-linejoin="round" stroke-opacity=".3" stroke-width="__RESOLUTION__" d="m27.9 14.5 1.4.7-.3 1.4 1.8.8-.9 1.7-2.5-.9-7.2 1.8-.3 1.3L18 20l.5-1.3-1.2-.6.7-1.8 2.3 1.5 6.6-1.5zm.8 1.4.3.8v-.1m0 .1.3.8m-11.1.6.3.7.4 1.4m1.3-.2.1-.5" vector-effect="non-scaling-stroke"/><path fill="#b0ab84" d="m35.7 14.2.9.4-.7 1.4 1 .6-1.1 1.7-1.6-.5-6 2.6-.7 1.3-1-.9.8-1.3-.7-.4 1.1-2 1.3 1.2 5.3-2.2zm.2 1.9v-.7zm-.1.9v-1zm-8.5 3.8v-1.9zm1.1-.7-.1.4z"/><path fill="none" stroke="#000" stroke-linecap="round" stroke-linejoin="round" stroke-opacity=".3" stroke-width="__RESOLUTION__" d="m35.7 14.2.9.4-.7 1.4 1 .6-1.1 1.7-1.6-.5-6 2.6-.7 1.3-1-.9.8-1.3-.7-.4 1.1-2 1.3 1.2 5.3-2.2zm.1 1.3v.7l.1-.1m0 .1-.1.8m-8.4 1.9-.1.7v1.2m1-.2.1-.6" vector-effect="non-scaling-stroke"/><path fill="#b0ab84" d="m14.3 15.4 2.3 1.5 6.6-1.4 1-2 1.4.7-.3 1.4 1.7.8-.8 1.8-2.5-1-7.2 1.9-.3 1.2-1.9-1.1.5-1.3-1.2-.6zm11 .2v.2l-.3-.9zm.3 1-.4-.9zm-10.4 2.6-.4-1.3-.3-.8.3.8zm1.4-.6-.1.4z"/><path fill="none" stroke="#000" stroke-linecap="round" stroke-linejoin="round" stroke-opacity=".3" stroke-width="__RESOLUTION__" d="m14.3 15.4 2.3 1.5 6.6-1.4 1-2 1.4.7-.3 1.4 1.7.8-.8 1.8-2.5-1-7.2 1.9-.3 1.2-1.9-1.1.5-1.3-1.2-.6zm10.7-.5.3.8v-.1m0 .2.3.8m-11.1.5.3.8.4 1.3m1.3-.1.1-.6" vector-effect="non-scaling-stroke"/><path fill="#b0ab84" d="m33.7 9.3 1.3-.7.8 1.3 1.9-.7.6 1.7-2.3 1.3-3.5 6.5.7 1-2 .6-.7-1.1-1.2.4-1-1.8 2.7-.7 3.3-5.8zm2.1.6h.2l-.8-.3.8.4zm1 .3L36 10zm-5 9.4-1.4-.5-.6-.4.6.4zm.4-1.5.3.5z"/><path fill="none" stroke="#000" stroke-linecap="round" stroke-linejoin="round" stroke-opacity=".3" stroke-width="__RESOLUTION__" d="m33.7 9.3 1.3-.7.8 1.3 1.9-.7.6 1.7-2.3 1.3-3.5 6.5.7 1-2 .6-.7-1.1-1.2.4-1-1.8 2.7-.7 3.3-5.8zm1.5.3.8.4-.2-.1m.2 0 .8.3m-7 8.6.6.4 1.4.5m.7-1-.3-.5" vector-effect="non-scaling-stroke"/><path fill="#b0ab84" d="m7 32.4.8-1.1-.9-.9 1.3-1.6L9.9 31l6.6.8 1.6-1.5 1.1 1-.7 1.3 1.3 1.4-1.3 1.3-2-1.7L9 33l-.7 1.1zm.8.3v-2.2zm1.5-.2L9 33zm9.2.1-.1.1v-.8.8zm0 1-.1-.9z"/><path fill="none" stroke="#000" stroke-linecap="round" stroke-linejoin="round" stroke-opacity=".3" stroke-width="__RESOLUTION__" d="m7 32.4.8-1.1-.9-.9 1.3-1.6L9.9 31l6.6.8 1.6-1.5 1.1 1-.7 1.3 1.3 1.4-1.3 1.3-2-1.7L9 33l-.7 1.1zm.8-1.9v2.2M9 33l.3-.5m9.1-.6v.8l.1-.1m-.1.1.1 1" vector-effect="non-scaling-stroke"/><path fill="#b0ab84" d="M16.3 16.5q1.1-.4 2.1-1l.3 1.8 5.7 1.3 2.2-.7.4.8-1.3.7.4 1.2-1.9.6-1-1.3-6.3-1.4-1.3.6-.4-1.3 1.5-.6zm-.4 1.7.8-1 .4-.5-.4.5zm1.4.1-.4.2zm7.8 1.8.5-.7h.1-.1z"/><path fill="none" stroke="#000" stroke-linecap="round" stroke-linejoin="round" stroke-opacity=".3" stroke-width="__RESOLUTION__" d="M16.3 16.5q1.1-.4 2.1-1l.3 1.8 5.7 1.3 2.2-.7.4.8-1.3.7.4 1.2-1.9.6-1-1.3-6.3-1.4-1.3.6-.4-1.3 1.5-.6zm.8.2-.4.5-.8 1m1 .3.4-.2m8.4 1.1-.5.7" vector-effect="non-scaling-stroke"/></g></defs><g clip-path="url(#b)"><use xlink:href="#c" width="51.5" height="35.5" transform="translate(1 1)"/></g></svg>