<svg xmlns="http://www.w3.org/2000/svg" xmlns:xlink="http://www.w3.org/1999/xlink" width="38" height="45" viewBox="0 0 38 45"><defs><radialGradient id="a" cx="0" cy="0" r="819.2" gradientTransform="matrix(.02 0 0 .01 1.7 5.45)" gradientUnits="userSpaceOnUse" spreadMethod="pad"><stop offset="0" stop-color="#345c5c"/><stop offset="1" stop-color="#3b6164" stop-opacity="0"/></radialGradient><clipPath id="b"><path d="M1 1h36v43H1z"/></clipPath><g id="c"><path fill="url(#a)" d="M19.4 5.5q0 2.8-5.3 4.9Q9 12.5 1.7 12.5q-7.2 0-12.4-2.1-5.1-2-5.1-4.9t5-5q5.3-2 12.5-2t12.4 2 5.3 5" transform="translate(15.85 30.4)"/><path fill="#aba9bf" d="m1.5 13.8 18.3-4.6 3.2 2-16.7 6-.5-.2z"/><path fill="#9f9db7" d="m23 11.1 3.3 2.2L8.7 19l-.5-.5-1.9-1.3z"/><path fill="#928fad" d="m26.3 13.3 3.8 2.3-19.3 4.9L8.7 19z"/><path fill="#656086" d="M30.2 15.6v20.5l-19.4 6.1V20.5z"/><path fill="#726d96" d="m10.8 42.2-9.3-7.8v-2.6L4.2 33l4.1-6-.1-8.5.5.5 2.1 1.5z"/><path fill="#79759b" d="M1.5 31.8v-6.5l2.8-1.7L5.8 17l.5.3 1.9 1.3.1 8.5-4.1 6z"/><path fill="#8683a5" d="M1.5 25.3V13.8l4.4 3.1-1.7 6.8z"/><path fill="none" stroke="#000" stroke-linecap="round" stroke-linejoin="round" stroke-opacity=".3" stroke-width="__RESOLUTION__" d="m1.5 13.8 18.3-4.6 3.2 2 3.3 2 3.8 2.4v20.5l-19.3 6.1-9.3-7.8z" vector-effect="non-scaling-stroke"/><path fill="#e0576b" d="M24.7 17 16 19.3 5.9 12l7.8-2 11 6.9"/><path fill="#871829" d="m16 19.5 8.7-2.6v21.3h-.1l-8.7 3z"/><path fill="none" stroke="#000" stroke-linecap="round" stroke-linejoin="round" stroke-opacity=".3" stroke-width="__RESOLUTION__" d="M24.7 17v-.1l-11-6.9-7.8 2 10 7.5v21.7l8.7-3h.1z" vector-effect="non-scaling-stroke"/><path fill="#8e1a2c" d="m19.1 2 2.6 3.8-4.3 9.4-.5-.2-3.3-1.7v-.2l-.3-.1-4.2 1-.3 4 8.6-2.8z"/><path fill="#ad1f34" d="m19.1 2-1.7 13.2-.5-.2-3.3-1.9L13 .4l6 1.4z"/><path fill="#65121f" d="m13.3 13-4.2 1-.3 4-7.4-2.1.9-7 7 2zm-4.2 1 .3-3.1z"/><path fill="none" stroke="#000" stroke-linecap="round" stroke-linejoin="round" stroke-opacity=".3" stroke-width="__RESOLUTION__" d="m17.4 15.2 4.3-9.4L19.1 2zl-.5-.2-3.3-1.7v-.2l-.3-.1-4.2 1-.3 4zM19.1 2l-.2-.2L13.3.4l.4 12.7 3.3 1.8M19 2v-.2h-.2M13.4 13l-4-2.1-.2 3.1m.3-3.1-7.1-2-.9 7 7.4 2" vector-effect="non-scaling-stroke"/></g></defs><g clip-path="url(#b)"><use xlink:href="#c" width="35.2" height="42.9" transform="translate(1 1)"/></g></svg>