<svg xmlns="http://www.w3.org/2000/svg" xmlns:xlink="http://www.w3.org/1999/xlink" width="69" height="49" viewBox="0 0 69 49"><defs><g id="D"><path fill="url(#a)" d="M4.3-.9 2.5-1l3-1q4.6-.1 8.9 2.5-.8 1.3-4 1.5Q6.8-.4 4.3-.8" transform="translate(.1 2.15)"/><path fill="#505c40" d="M2.6 1.2h1.8Q2 1.6 1.2 2.4l-1.1.5q.8-1.2 2.1-1.6z"/><path fill="none" stroke="#16161a" stroke-linecap="round" stroke-linejoin="round" stroke-opacity=".3" stroke-width="__RESOLUTION__" d="M2.6 1.2h1.8q2.5.6 6.1 3 3.2-.3 4-1.6Q10.2 0 5.6.1zl-.4.1Q.9 1.5.1 2.8l1.2-.5q.7-.8 3.1-1" vector-effect="non-scaling-stroke"/></g><g id="C"><path fill="url(#b)" d="M0-1.1q9-7.5 16.1-8 1.3 1.3.9 3Q4.8-5.7 0 0z" transform="translate(.1 9.2)"/><path fill="none" stroke="#332e21" stroke-linecap="round" stroke-linejoin="round" stroke-opacity=".3" stroke-width="__RESOLUTION__" d="M.1 8.1q9-7.5 16.1-8 1.3 1.2.9 3-12.3.4-17 6.1m0 0V8.1" vector-effect="non-scaling-stroke"/></g><g id="B"><path fill="url(#c)" d="M1.8-15.7Q1.9-10.1.9-.2L.2 0q-.5-14-2-15.3z" transform="translate(1.95 15.85)"/><path fill="none" stroke="#040405" stroke-linecap="round" stroke-linejoin="round" stroke-opacity=".3" stroke-width="__RESOLUTION__" d="M3.7.1.1.5q1.5 1.3 2 15.4l.8-.2q1-10 .8-15.6" vector-effect="non-scaling-stroke"/></g><g id="A"><path fill="url(#d)" d="M0-1.1q9-7.5 16.1-8 1.3 1.3.9 3Q4.8-5.7 0 0z" transform="translate(.1 9.2)"/><path fill="none" stroke="#16161a" stroke-linecap="round" stroke-linejoin="round" stroke-opacity=".3" stroke-width="__RESOLUTION__" d="M.1 8.1q9-7.5 16.1-8 1.3 1.2.9 3-12.3.4-17 6.1m0 0V8.1" vector-effect="non-scaling-stroke"/></g><g id="z"><path fill="url(#e)" d="m0-.1.3-.5q3.6-8 9.2-13l1.8-1.5q2.9.3 4 1.6l-1 .5q-8 4.1-13 13z" transform="translate(.1 15.2)"/><path fill="none" stroke="#16161a" stroke-linecap="round" stroke-linejoin="round" stroke-opacity=".3" stroke-width="__RESOLUTION__" d="m.1 15.1.2-.6q3.7-8 9.3-13L11.4.1q2.9.3 4 1.6l-1 .5q-8 4.1-13 13m0 0-1.3-.1" vector-effect="non-scaling-stroke"/></g><g id="y"><path fill="url(#f)" d="M.3-1.6Q1.4-1.8 2 1.7h-4Q-1.3-2-.6-1.6z" transform="translate(2.05 1.75)"/><path fill="none" stroke="#1c1c21" stroke-linecap="round" stroke-linejoin="round" stroke-opacity=".3" stroke-width="__RESOLUTION__" d="M2.3.1h-1Q.6-.2.1 3.5H4Q3.4-.1 2.3.2" vector-effect="non-scaling-stroke"/></g><g id="x"><path fill="url(#g)" d="m0-.1.3-.5q3.6-8 9.2-13l1.8-1.5q2.9.3 4 1.6l-1 .5q-8 4.1-13 13z" transform="translate(.1 15.2)"/><path fill="none" stroke="#1c1c21" stroke-linecap="round" stroke-linejoin="round" stroke-opacity=".3" stroke-width="__RESOLUTION__" d="m.1 15.1.2-.6q3.7-8 9.3-13L11.4.1q2.9.3 4 1.6l-1 .5q-8 4.1-13 13m0 0-1.3-.1" vector-effect="non-scaling-stroke"/></g><g id="w"><path fill="url(#h)" d="M1.8-15.7Q1.9-10.1.9-.2L.2 0q-.5-14-2-15.3z" transform="translate(1.95 15.85)"/><path fill="none" stroke="#332e21" stroke-linecap="round" stroke-linejoin="round" stroke-opacity=".3" stroke-width="__RESOLUTION__" d="M3.7.1.1.5q1.5 1.3 2 15.4l.8-.2q1-10 .8-15.6" vector-effect="non-scaling-stroke"/></g><g id="v"><path fill="url(#i)" d="M4.3-.9 2.5-1l3-1q4.6-.1 8.9 2.5-.8 1.3-4 1.5Q6.8-.4 4.3-.8" transform="translate(.1 2.15)"/><path fill="#657451" d="M2.6 1.2h1.8Q2 1.6 1.2 2.4l-1.1.5q.8-1.2 2.1-1.6z"/><path fill="none" stroke="#1c1c21" stroke-linecap="round" stroke-linejoin="round" stroke-opacity=".3" stroke-width="__RESOLUTION__" d="M2.6 1.2h1.8q2.5.6 6.1 3 3.2-.3 4-1.6Q10.2 0 5.6.1zl-.4.1Q.9 1.5.1 2.8l1.2-.5q.7-.8 3.1-1" vector-effect="non-scaling-stroke"/></g><g id="u"><path fill="url(#j)" d="M0-1.1q9-7.5 16.1-8 1.3 1.3.9 3Q4.8-5.7 0 0z" transform="translate(.1 9.2)"/><path fill="none" stroke="#1c1c21" stroke-linecap="round" stroke-linejoin="round" stroke-opacity=".3" stroke-width="__RESOLUTION__" d="M.1 8.1q9-7.5 16.1-8 1.3 1.2.9 3-12.3.4-17 6.1m0 0V8.1" vector-effect="non-scaling-stroke"/></g><g id="t"><path fill="url(#k)" d="m0-.1.3-.5q3.6-8 9.2-13l1.8-1.5q2.9.3 4 1.6l-1 .5q-8 4.1-13 13z" transform="translate(.1 15.2)"/><path fill="none" stroke="#332e21" stroke-linecap="round" stroke-linejoin="round" stroke-opacity=".3" stroke-width="__RESOLUTION__" d="m.1 15.1.2-.6q3.7-8 9.3-13L11.4.1q2.9.3 4 1.6l-1 .5q-8 4.1-13 13m0 0-1.3-.1" vector-effect="non-scaling-stroke"/></g><g id="s"><path fill="url(#l)" d="M1.8-15.7Q1.9-10.1.9-.2L.2 0q-.5-14-2-15.3z" transform="translate(1.95 15.85)"/><path fill="none" stroke="#1c1c21" stroke-linecap="round" stroke-linejoin="round" stroke-opacity=".3" stroke-width="__RESOLUTION__" d="M3.7.1.1.5q1.5 1.3 2 15.4l.8-.2q1-10 .8-15.6" vector-effect="non-scaling-stroke"/></g><g id="I" transform="translate(37.5 27.45)"><use xlink:href="#m" width="70.1" height="70.1" transform="matrix(.8 0 0 .4 -30.2 -11.6)"/><use xlink:href="#n" width="66.2" height="33.3" transform="matrix(-1 0 0 1 29.15 -15)"/><use xlink:href="#o" width="66.2" height="33.3" transform="translate(-37.5 -14.05)"/><use xlink:href="#s" width="3.9" height="15.9" transform="translate(-5.45 -17.8)scale(1.64)"/><use xlink:href="#t" width="15.4" height="15.3" transform="translate(.55 -15.9)scale(1.64)"/><use xlink:href="#u" width="17.3" height="9.3" transform="matrix(1.15 .31 -.42 1.58 6.15 -12.4)"/><use xlink:href="#v" width="14.6" height="4.3" transform="matrix(1.07 0 0 1.64 -2.25 .65)"/><use xlink:href="#w" width="3.9" height="15.9" transform="matrix(-1.09 0 -.55 2 11.7 -22.75)"/><use xlink:href="#x" width="15.4" height="15.3" transform="matrix(-1.64 0 0 1.64 -.05 -16.05)"/><use xlink:href="#u" width="17.3" height="9.3" transform="matrix(-1.51 .63 .63 1.51 -6.8 -10.05)"/><use xlink:href="#v" width="14.6" height="4.3" transform="matrix(-.9 .52 .82 1.42 -2.35 3.35)"/><use xlink:href="#y" width="4.1" height="3.5" transform="matrix(-1.18 .27 .65 1 5.7 .9)"/><use xlink:href="#s" width="3.9" height="15.9" transform="matrix(1.09 0 .55 2 -13.95 -22.75)"/><use xlink:href="#w" width="3.9" height="15.9" transform="matrix(-1.24 0 0 1.68 1.7 -22.25)"/><use xlink:href="#z" width="15.4" height="15.3" transform="matrix(-1.24 0 0 1.68 -2.85 -20.45)"/><use xlink:href="#A" width="17.3" height="9.3" transform="matrix(-1.24 0 0 1.68 -3.9 -9.1)"/><use xlink:href="#v" width="14.6" height="4.3" transform="matrix(-1.24 0 0 1.68 -.6 1.75)"/><use xlink:href="#y" width="4.1" height="3.5" transform="matrix(-1.24 0 .6 1.68 3.85 2.85)"/><use xlink:href="#s" width="3.9" height="15.9" transform="matrix(.83 0 .42 2.05 -11.2 -27.45)"/><use xlink:href="#t" width="15.4" height="15.3" transform="matrix(1.24 0 0 1.68 -.3 -20.45)"/><use xlink:href="#u" width="17.3" height="9.3" transform="matrix(1.24 .54 0 1.68 1.5 -10.15)"/><use xlink:href="#y" width="4.1" height="3.5" transform="matrix(1.24 0 -.98 1.68 -8.9 3.8)"/><use xlink:href="#B" width="3.9" height="15.9" transform="matrix(-.82 .09 -.13 1.34 5.7 -22.05)"/><use xlink:href="#y" width="4.1" height="3.5" transform="matrix(-1.07 .62 1.36 1.15 8.65 1.05)"/><use xlink:href="#s" width="3.9" height="15.9" transform="matrix(-.88 -.88 -.74 .74 15 -6.3)"/><use xlink:href="#s" width="3.9" height="15.9" transform="matrix(1.2 -.32 .27 1.01 -10.95 -13.05)"/><use xlink:href="#C" width="17.3" height="9.3" transform="matrix(.87 -.78 .74 1.02 -6.95 -2.1)"/><use xlink:href="#u" width="17.3" height="9.3" transform="matrix(-.84 -.18 -.1 .92 1.6 -4.15)"/><use xlink:href="#v" width="14.6" height="4.3" transform="matrix(.98 0 0 1.68 .25 -5.4)"/><use xlink:href="#D" width="14.6" height="4.3" transform="matrix(-1.2 -.32 -.43 1.62 .7 .45)"/><use xlink:href="#u" width="17.3" height="9.3" transform="matrix(.33 .83 -.78 .78 8.75 -2.3)"/><use xlink:href="#v" width="14.6" height="4.3" transform="matrix(.77 .44 -1.07 1.85 1.5 1.7)"/><use xlink:href="#y" width="4.1" height="3.5" transform="matrix(1.64 0 -.89 1.64 -5.45 5.8)"/></g><linearGradient id="a" x1="-819.2" x2="819.2" gradientTransform="matrix(0 0 0 0 7.95 -1)" gradientUnits="userSpaceOnUse" spreadMethod="pad"><stop offset=".1" stop-color="#ccc1aa" stop-opacity="1"/><stop offset=".1" stop-color="#c57807" stop-opacity="1"/><stop offset=".6" stop-color="#ba6d08" stop-opacity="1"/><stop offset="1" stop-color="#6c200d" stop-opacity="1"/></linearGradient><linearGradient id="b" x1="-819.2" x2="819.2" gradientTransform="translate(8.55 -4.55)scale(-.01)" gradientUnits="userSpaceOnUse" spreadMethod="pad"><stop offset=".1" stop-color="#ffffd5" stop-opacity="1"/><stop offset=".1" stop-color="#ffa909" stop-opacity="1"/><stop offset=".6" stop-color="#ff9b0a" stop-opacity="1"/><stop offset="1" stop-color="#9f3a11" stop-opacity="1"/></linearGradient><linearGradient id="c" x1="-819.2" x2="819.2" gradientTransform="matrix(0 .01 -.01 0 -.05 -7.9)" gradientUnits="userSpaceOnUse" spreadMethod="pad"><stop offset=".1" stop-color="#e7dab9" stop-opacity="1"/><stop offset=".1" stop-color="#df7f00" stop-opacity="1"/><stop offset="1" stop-color="#701000" stop-opacity="1"/></linearGradient><linearGradient id="d" x1="-819.2" x2="819.2" gradientTransform="translate(8.55 -4.55)scale(-.01)" gradientUnits="userSpaceOnUse" spreadMethod="pad"><stop offset=".1" stop-color="#ccc1aa" stop-opacity="1"/><stop offset=".1" stop-color="#c57807" stop-opacity="1"/><stop offset=".6" stop-color="#ba6d08" stop-opacity="1"/><stop offset="1" stop-color="#6c200d" stop-opacity="1"/></linearGradient><linearGradient id="e" x1="-819.2" x2="819.2" gradientTransform="matrix(0 .01 -.01 0 6.8 -6.9)" gradientUnits="userSpaceOnUse" spreadMethod="pad"><stop offset=".1" stop-color="#ccc1aa" stop-opacity="1"/><stop offset=".1" stop-color="#c57807" stop-opacity="1"/><stop offset="1" stop-color="#6c200d" stop-opacity="1"/></linearGradient><linearGradient id="f" x1="-819.2" x2="819.2" gradientTransform="matrix(0 0 0 0 -.2 -.5)" gradientUnits="userSpaceOnUse" spreadMethod="pad"><stop offset=".1" stop-color="#fff2d5" stop-opacity="1"/><stop offset=".1" stop-color="#f79709" stop-opacity="1"/><stop offset="1" stop-color="#882811" stop-opacity="1"/></linearGradient><linearGradient id="g" x1="-819.2" x2="819.2" gradientTransform="matrix(0 .01 -.01 0 6.8 -6.9)" gradientUnits="userSpaceOnUse" spreadMethod="pad"><stop offset=".1" stop-color="#fff2d5" stop-opacity="1"/><stop offset=".1" stop-color="#f79709" stop-opacity="1"/><stop offset="1" stop-color="#882811" stop-opacity="1"/></linearGradient><linearGradient id="h" x1="-819.2" x2="819.2" gradientTransform="matrix(0 .01 -.01 0 -.05 -7.9)" gradientUnits="userSpaceOnUse" spreadMethod="pad"><stop offset=".1" stop-color="#ffffd5" stop-opacity="1"/><stop offset=".1" stop-color="#ffa909" stop-opacity="1"/><stop offset="1" stop-color="#9f3a11" stop-opacity="1"/></linearGradient><linearGradient id="i" x1="-819.2" x2="819.2" gradientTransform="matrix(0 0 0 0 7.95 -1)" gradientUnits="userSpaceOnUse" spreadMethod="pad"><stop offset=".1" stop-color="#fff2d5" stop-opacity="1"/><stop offset=".1" stop-color="#f79709" stop-opacity="1"/><stop offset=".6" stop-color="#e9890a" stop-opacity="1"/><stop offset="1" stop-color="#882811" stop-opacity="1"/></linearGradient><linearGradient id="j" x1="-819.2" x2="819.2" gradientTransform="translate(8.55 -4.55)scale(-.01)" gradientUnits="userSpaceOnUse" spreadMethod="pad"><stop offset=".1" stop-color="#fff2d5" stop-opacity="1"/><stop offset=".1" stop-color="#f79709" stop-opacity="1"/><stop offset=".6" stop-color="#e9890a" stop-opacity="1"/><stop offset="1" stop-color="#882811" stop-opacity="1"/></linearGradient><linearGradient id="k" x1="-819.2" x2="819.2" gradientTransform="matrix(0 .01 -.01 0 6.8 -6.9)" gradientUnits="userSpaceOnUse" spreadMethod="pad"><stop offset=".1" stop-color="#ffffd5" stop-opacity="1"/><stop offset=".1" stop-color="#ffa909" stop-opacity="1"/><stop offset="1" stop-color="#9f3a11" stop-opacity="1"/></linearGradient><linearGradient id="l" x1="-819.2" x2="819.2" gradientTransform="matrix(0 .01 -.01 0 -.05 -7.9)" gradientUnits="userSpaceOnUse" spreadMethod="pad"><stop offset=".1" stop-color="#fff2d5" stop-opacity="1"/><stop offset=".1" stop-color="#f79709" stop-opacity="1"/><stop offset="1" stop-color="#882811" stop-opacity="1"/></linearGradient><radialGradient id="E" cx="0" cy="0" r="819.2" gradientTransform="matrix(.04 0 0 .02 -.05 0)" gradientUnits="userSpaceOnUse" spreadMethod="pad"><stop offset=".5" stop-color="#000" stop-opacity=".2"/><stop offset=".9" stop-color="#0f0400" stop-opacity="0"/></radialGradient><radialGradient id="F" cx="0" cy="0" r="819.2" gradientTransform="matrix(.04 0 0 .02 -.05 0)" gradientUnits="userSpaceOnUse" spreadMethod="pad"><stop offset=".5" stop-color="#000" stop-opacity=".2"/><stop offset=".9" stop-color="#0f0400" stop-opacity="0"/></radialGradient><radialGradient id="G" cx="0" cy="0" r="819.2" gradientTransform="scale(.04)" gradientUnits="userSpaceOnUse" spreadMethod="pad"><stop offset=".6" stop-color="#1a1b10" stop-opacity=".4"/><stop offset="1" stop-color="#13130f" stop-opacity="0"/></radialGradient><path id="o" fill="url(#E)" d="M7.5-4.3 27-9.8q4.8 3.3 5.9 7.3L15.3 1.2l11.4 8.7-3.2 1.9q-3.8 1.9-8.2 3v-1.7L4.8 8l-7.3 8.5q-11-.4-19.3-4l-.3-2.3 6.6-4.6-15.4.6q-2.4-2.9-2.4-6.3l.3-2 20 1.4-13.7-9.3 3.1-1.8 2.8-1.3v1l19.2 7.7.4-12.3H0q7.8 0 14.3 1.6z" transform="translate(33.3 16.65)"/><path id="n" fill="url(#F)" d="M7.5-4.3 27-9.8q4.8 3.3 5.9 7.3L15.3 1.2l11.4 8.7-3.2 1.9q-3.8 1.9-8.2 3v-1.7L4.8 8l-7.3 8.5q-11-.4-19.3-4l-.3-2.3 6.6-4.6-15.4.6q-2.4-2.9-2.4-6.3l.3-2 20 1.4-13.7-9.3 3.1-1.8 2.8-1.3v1l19.2 7.7.4-12.3H0q7.8 0 14.3 1.6z" transform="translate(33.3 16.65)"/><path id="m" fill="url(#G)" d="M24.8-24.8Q35-14.5 35 0T24.8 24.8 0 35q-14.5 0-24.8-10.2Q-35 14.5-35 0t10.2-24.8Q-14.5-35 0-35t24.8 10.2" transform="translate(35.05 35.05)"/><clipPath id="H"><path d="M1 1h67v47H1z"/></clipPath></defs><g clip-path="url(#H)"><use xlink:href="#I" width="66.7" height="46.9" transform="translate(1 1)"/></g></svg>