<svg xmlns="http://www.w3.org/2000/svg" xmlns:xlink="http://www.w3.org/1999/xlink" width="20" height="77" viewBox="0 0 20 77"><defs><clipPath id="a"><path d="M1 1h18v75H1z"/></clipPath><g id="b"><path fill="#5e5a44" d="m.5 5 .1.3H.5z"/><path fill="#343225" d="M.6 5.3.5 5l-.1-.7q0-1.6 2.5-2.7t6-1.2 6 1.2q2.3 1 2.5 2.4v.7q-.2 1.4-2.5 2.5l-1.1.4-.8.2-4.1.5-3.4-.4Q4.1 7.7 3 7.2q-1.8-.9-2.3-2"/><path fill="#444231" d="M.5 5.3q.5 1 2.3 1.9 0 23-.5 40.8l-.8 24q-.8-.7-1.1-1.6V69q1.7-32 0-63.7m5 2.6 3.4.3Q7.3 31.6 7.4 48.7q0 15.2 1.4 25.4l-3.4-.4zm7.5-.2.8-.2q1.6 21.6 1.7 42 .2 11.6-.2 23l-.3.1q-1.6.8-3.6 1.1L13 49.3q1-23.9 0-41.5"/><path fill="#4b4936" d="M2.9 7.2q1.2.5 2.6.7l-.1 65.7q-1.3-.3-2.5-.9l-1.3-.8.8-23.9Q3 30.2 3 7.3m6 1 4.1-.4q1 17.6 0 41.5l-1.6 24.5L9 74Q7.4 63.8 7.4 48.6q-.1-17 1.4-40.3m5-.7 1.1-.4q2.3-1.1 2.5-2.5-1.5 30.8 0 64.2v1.5q-.4 1.2-2.1 2.1.3-11.2.2-23-.1-20.3-1.7-42"/><path fill="none" stroke="#000" stroke-linecap="round" stroke-linejoin="round" stroke-opacity=".3" stroke-width="__RESOLUTION__" d="M.5 5v.3Q2.2 37 .5 69l-.1.7.1.6q.3.9 1.1 1.6l1.3.8q1.2.6 2.5.9l3.4.4H9l2.5-.2q2-.3 3.6-1.1l.3-.2q1.7-.9 2-2l.2-.8-.1-.8q-1.5-33.4 0-64.2V4q-.2-1.4-2.5-2.4Q12.4.4 8.9.4t-6 1.2T.4 4.3zm16.9-1v.7m0 65.8v-1.6M.5 70.3V69" vector-effect="non-scaling-stroke"/><path fill="#000" fill-opacity=".1" d="m.2 70.4.2-27.6q.5 6.4 4.8 14.7t10.5 15q-5.4 2.2-10.3 1.1-4.2-.9-5.2-3.2"/><path fill="#666" fill-opacity=".3" d="M17.3 4.2 16.5 24q-.8-12-2.8-15.7-2.8-2.5-5 9.6Q7.1.8.7 11L.6 3Q3.2.2 9.9.4q6.9.3 7.4 3.8"/></g></defs><g clip-path="url(#a)"><use xlink:href="#b" width="17.9" height="74.4" transform="translate(1 1)"/></g></svg>