<svg xmlns="http://www.w3.org/2000/svg" xmlns:xlink="http://www.w3.org/1999/xlink" width="94" height="188" viewBox="0 0 94 188"><defs><g id="s"><path fill="#5e6da0" fill-opacity=".8" d="m28.2 82.6-3.7-13.7H19l-5.4-7.4 5.4 3 6-3.7 5.6-14.2v-14h-9l7.6-3.1 2.7-7.6-5.6 2.2-9.1-6.5 15-6.8L38.4.1h3q-5.2 22.7-9.8 55.3l-3.9 7 2.6 2.9-.4 3zl-7.2 7 2 14.3-3.3 10-.4 18.8.1 3.3h2.4z"/><path fill="url(#a)" d="m38.3 0-6.1 10.7-15 6.8 9.1 6.5 5.6-2.2-2.7 7.6-7.5 3.1h8.9v14L25 60.7l-6 3.8-5.4-3.1 5.4 7.4h5.4L28 82.5l-7.2 7 2 14.3-3.3 10-.5 18.9-.9-14.7-1.1-12.4 1.5-24.5-6.5-5 1.7-5.2-1.5-1.2.2-1.3-1-6.4-4.9-11.5.6-1.9 6.2 5.2L24 51.1l-10-3.2-5.5-3.5.2-.4L7 34.5l-4.2-5.7.3-1.4 8.5 4 10-3.8-10.4-.5L4 22.8l.4-2-.5-2.4-3.4-3.7L1 13l8 3 12.5-4.7L5.9 8.5 1.3 6 0 0z" transform="translate(.1 .1)"/><path fill="#8f93b7" fill-opacity=".8" d="m1.4 6 4.5 2.6 15.7 2.8L9 16.2 1 13l1.2-3.3zM4 23l7.2 4.3 10.5.5-10.1 3.8-8.5-4z"/><path fill="#8f93b7" fill-opacity=".9" d="M8.5 44.5 14 48l10.3 3.2-10.8 2.7-6.2-5.2z"/><path fill="#8b91b5" fill-opacity=".7" d="m12.4 69.8 1.5 1.2-1.7 5.3 6.5 4.8-1.5 24.6L15 86.4l-4.5-6.3z"/><path fill="none" stroke="#272b47" stroke-linecap="round" stroke-linejoin="round" stroke-opacity=".2" stroke-width="__RESOLUTION__" d="m28.2 82.6 1.7-14.2.4-3.2-2.6-2.7 3.9-7.1Q36.1 22.8 41.4 0H.1l1.3 6 .8 3.7L1 13.1l-.5 1.7 3.4 3.7.5 2.4-.4 2-.9 4.6-.3 1.4L7 34.6 8.7 44l-.2.4-1.2 4.2-.6 1.9 5 11.5.9 6.4-.2 1.3L10.5 80l4.5 6.3 2.2 19.3 1.1 12.3 1 14.8.1 3.2h2.4z" vector-effect="non-scaling-stroke"/></g><g id="p"><path fill="#d2c5b7" d="M95 9.1q2.1 3.7 4.9 4.2l-2 1.3q5.7 1.4 9 6.2-5.2.7-3.9 3.5l.2.4q9.4 5.3 20.2 6-4.1 4.6-12.7 6 3 2 5 1.3-1.7 4.8-7.7 3.2.5 2 .5 3.8l3.1 2.9-11.9-6.4q-5-4.2-6.9-9.5l-1.4-6.8 2.3 2.6H95q2.3 0 4.3 1l2.3 1.2q2.4 1 6.7 1.4-8.5-5.3-10-10.8-4.7-9-12.9-15.7l2.5.7q3.7 1.2 7.2 3.5m9.5 41.3q1.4 6.3 4.5 11.9l.5.6 1.6-.4 1.3 1v.1l-5.9 1.7-1-1.5 2-.4q-3.8-4.9-5.1-11.2zm-13 6.4-1.7 9.9 2.6 9.5-3.7 1L85 63.4q3.6-1 4.4-5.2zm2.9 27.6 2.3 5.5 1 .3 3.4 2.8h-2.3l-1.5-.6-3-1.2-1.3-5.7zm4.5 24.8.5 2.8v11q-6.3-7.2-10-16.8l2.9-.7q2 5.4 5.5 9V113q-2.5-3.7-3.8-8.1l2-.9q.7 3.5 2.9 5.1m-.8 15.2-1.7 7.4v2.3l-1.9 3.1-1 .2 2.8-8.5-.2-2.8zm-1.5 13.4v3.8l-5 11.8v10.8l.8 2.5-.3.1-2-.8-1.2-2.8-.1-9.5zM82 20.2l-1.2-1.7-.7.3-.1-2.5 2 .3.3 8.6-1 3.1-.7.7q.7-1 .7-1.7l-2.5 1.2-1.9-1.1q-.5-.3-.9-1-1-1.3.4-3.4h.2q-1.3 1.8-.4 2.8.4.8.9 1 .9.4 2.3-1.3.8-1.3.6-2.9l-.2-1.4.3-.2.3 1.6zm1 9.6v-2l5.5 1.4.8 3.2zm-2.5 4.9 3.3 2.1h1.7q4.8 4.5 8.5 9.7l.3.5q2.2 3 3.9 7.3l-2.2-.6q-6-9.4-15.5-15.9l-2-3.6zM94 31.5q4 8.8 13.7 12.9-6.2-3.4-7.7-8.6 3.6 4 6.3 3.7-4.1-3.2-7.7-8.9L96 29.1h-1.7zM83.7 70.9 82.3 66v-3.9l5 13.1zm13 19 .8 2.5zm10.7-26.5 2-.5zm-6-33.3q4.3 3.2 6.5 11.1-2.2-7.9-6.5-11.2"/><path fill="#886a4d" d="m111.6 47.9-1.5 1.7q-1.6-.3-3-1.1l-3.1-1.7q-3.8-1.6-6.5-4l-1-.8q-2.5-2.5-4-5.7l-1.6-6.5-.9-3.3 1.4-1.3 1.4 6.8q1.9 5.3 6.9 9.5zm3 21.8 4.8 8 2.8 9.7 2.8 1v2.4q-.3 1.2-1.8 1.4l-2.7-1q-7.2-4.9-11.7-12-1.5-2.3-2.6-4.8zM94.7 83.2l-.7.2.5 1-1.4 1.1 1.3 5.7-.5-.2q-5.6-2.4-10.5-5-5.2-2.7-9.7-5.7l1.8-.2 4.2-.8 13.5-2zm6.5 9.8-2.3 8.8-1.5-.5.3 1.5-.9.7q.7 2.5 1.7 3.5l.5 2.1q-2.2-1.5-2.9-5.1l-2 .9q1.3 4.4 3.8 8.1v1.3q-3.5-3.5-5.5-8.9l-3 .7q3.8 9.6 10.1 16.8v1l-1.1-.5-.2.9-2 1.7.2 2.8-2.7 8.5-2.3.7-.9-6.7-6.8-9.2-.6-4 4.2-6.2-1-3.6h-3v-1.7l-2.8-3.5v-9.6l-3.7-2.2-2-1.4-2.6-2.4-2.4-2.5-3.5-3.7-1.2-1.3q11.8 7.7 11.7 3.2l-13-8.9 1-2.7v2l3.2 2.7 1.4 1 .4.3 2.6 1.8.4.3 4 3.5 20.6 10.5h2.6zm-4.5 43.8v.9L89 153.6l.1 9.5 1.2 2.8-5-2-2.2-11.4q.7-4.4 2.7-8.2 5-5.5 11-7.6m-28.5-30.6-2.7 2.3H62l-8.7 7.7-2.7-2 2.6-6.8-4-6.9.5-.7L51 101l1.3 1.3h8l1.5-2.7h3.5l1.4-1.7zm-6.5 51.8H59l-2.2-1.7-10.2 9.8-2.9 1.4 8.8-15.2q-4.6-.5-6.1.7v-.6q1.6-1.8 6.1-1.8V145q2.3.5 4.4 2.6l-.9 4.9zm-31 43.5-4.5 11.8-8.9-.2 11.9-16zM96.6 42l.9.8-3.2 4.2zM79.2 19.1l1.7 1.5 1-.4-1.7 2.4L80 21l-.3.1-3.2 1.9h-.2l-1.6 1v-.9q1.5-2.5 4.5-4m1.7 1.5-.9.4zm-2.6 13.6 2 3.6Q90 44.3 96 53.7l-2-.6-4.3-1 2 3.7-1.5-.1q-8.6-1.1-15-3v4.1l-3.8-2.5-3.2-3.7q-.8-3.9-.2-7.6.5-3.5 2.4-6.8l.7-.9.6-.9H73l1 1.4 2.4-2zm-2-.5L74 35.9l-1-1.4h-1.4l-.6.9v-1.7l-1.5 1.2-.9-1.2 2.4-.9h1.5zm-10.2-12-.9-.7zl.3.3 3.2 2.3.1.1.7.5 1-1.1q-1.8-2.4-3.7-3.7l-.9-.5-1.7 1.5.5 2.8v-.4zm-5.1 15q1.6-2.2 2-3.9.5 1.4-1.7 4.8l-4.2 3.1q-4.7 2.1-5.2 1.2l3.3-1.3q3.6-1.7 5.8-3.9M37 49.3l-.4 1-.6-1 2-2.3zm31.6-15.7.9 1.2-1.7 1.8-.1-2.8zm-42.1 33 2-.3.5.7-2 .3zM21 68.9l1.9 1.9q-2.4 2-6.1 3.5-3.4 3.1 3.1 0l-4.3 2.5-3.4.1-.4-1.7.8-3.2 2.3-.8.4-.4q-2.4 2.4 4.6-.7zm-5.6 1.9-.5.4-2.3.8-.8 3.2-1.1-3.8 2.2-1.2 3.8-.5zm-4.4 48 5.5-3.7 5.3 2.5h-6.9zm83-35.4L83.5 86zm3.4 17.8q-5.7-2-10.7-4.5-3.2-1.5-6.2-3.2 3 1.7 6.2 3.2 5 2.4 10.7 4.5m1 22.2-4.7-2.3-1.5-3.6-4-2.2-1-3.5 1 3.5 4 2.2 1.5 3.6zm23.8-36-2.8-1Q114 83 110 78.2l-1.5-1.9 1.5 2q4 4.7 9.3 8.1z"/><path fill="#9a7958" d="m104 46.8.1 1 .5 2.6-2.2 1.8q1.3 6.3 5.1 11.2l-2 .4h-.1l-4.5 5.4-2.5-7.5-3.5-4.5-1-4 2 .5 2.2.5Q96.4 50 94.3 47l3.2-4.2q2.7 2.4 6.5 4M64.3 13.5v7.8l1.2 6.6 2.3 2.7-1 .9-.1.2-.3.3-1.9-3.1-1.4-8.8zm4.5.9 1.5.7.3.2 1.7.2q1.6.3 3.8 0-2.9-2.2-1.6-4.4 2.3 2.2 5.3 3.6 1 .6 2.1 1v.9l-2-.3.1 2.5-.8.3q-3 1.5-4.5 4v.9l1.6-1q-1.5 2.1-.4 3.3.4.8 1 1.1l1.8 1 2.5-1.1q0 .7-.7 1.7l-2.3 2-1.9-1.4-1-.6q-2-2-2-4.1-.7 3.1.7 5.2 3.8 1.5 6.4 4.6l-2-.5-2-.5-3.9-1H71l-2.4.8-.9.3-1.5.3q1.8-2.8 5-3.9 1.1-2.2.8-4.5-.1 1.6-1.3 2.8-.2-1.7-1.2-1.5.8-.7.4-2.7l.7.5 1-1.1q-1.8-2.4-3.7-3.7zM74 30.1l-1.3 1.1-1.5-1 1.5 1zM21.7 64.8l.1-.4 3.8-.5 13-9 .6 2.8-4.5 5.2L29 67l-.5-.7-2 .3-2-1.9h-1l-.7.3zm2.8-.1 2 1.9q-1.2 2.3-3.6 4.2L21 68.9l1.2-1.2z"/><path fill="#977655" d="m112.4 63.6-.9 1.3 1.6 2.3 1.4-.4.8 1.2v.1l-.3.7-.4.9-8.4 4.7-1-3.2 5-1.5 1.4-.2-1.3.3-5 1.5-2 .9-1 .6-2.2-2.6.9-1 4.4-5.4 1.1 1.5zm10.8 28.6.7 8-2.7-.8h-2.4l-.5.9 2 6.7-2.3 1.5-2.5-3.1-1.3-6.5v-5.8l-1.2 1.2-6.6-13-.2-.2-2.8-9 1.8-.8 1 3.1q1.1 2.5 2.6 4.8 4.5 7.1 11.8 12zm-15.3-26 1.8 2.1 1.4-.5.5 1.7-.5-1.7-1.4.5zl-2.7 1.1zl2.8-1.2zm3.2 1.5 2-.5zm.5 1.8h.2l1.1-.5-1.2.5zm1.3-.5 2.4-.9z"/><path fill="#d7c9b3" d="m123.9 100.2.5.3 1.1 2.1q0 1.4-1 3.2-2.6 5-9.8 12.7-2.8 1.8-6.1 1.6l-5.3-1 3-.7h4.5l-3.4-3.3h-.1l-.5.3-1.5-2 2.3-1v.1l1.5 1.8.5-.5 3.2 3.8q3.3-2.8 6-6 2.5-2.8 4.3-7 1.3-3.6-4.9-4.3l.5-1 2.4.1zm-12-.7v-4l-9-15q-2.3-2.5-2.5-6.5L99 71.6l-4-14.3 3.5 4.5 2.5 7.4-.8 1 2.2 2.6 1-.6 3 8.9v.2l6.8 13 1-1.2v5.8l1.4 6.5-3.5-4.2zm-29.1 45.6v-.2zM65.2 33.7l1.2-1.7.3-.3.1-.2 1-.9 2-1.2 1.4.9q-3.2 1-5 3.8l1.5-.3v2.8l1.8-1.8.8 1.4Q68.6 39.5 68 43q-.6 3.7.2 7.6-2-2.5-3.2-5.3l-.5-1.3-.2-1.4L64 40q.3-1.7.9-3.4l1.2-2.5-1.2.2zm3.3-19.5 1.8.9.2.3-.3-.2-1.5-.7zm-2.3 20H66m34.4 40 1.8-1.2zm-.4-3.8-1.2 1.4zm12 25 1-1.1zm-1.1 23 1.5-.3.5-.5-.5.5zm-1.7-4-1.7.7zM1.4 76v1.1l2.3 4.6-2.4-1.5L0 78z"/><path fill="#b69978" d="m125.6 102.7 6.8 14.3q.4 10.8-5.2 13.6 5.7-9-2.6-24.8 1-1.8 1-3.2m-11 26.5-5.5-2.2-1.5-3.3-2.2-.8-2-3.7 5.3 1q23.3 15 6 9M92.4 76.2l1.3-.2 1.7 7-.7.2-1.5-5.9-13.5 2q5.6-1 9-2.1zm5.3 26.6.8 4.2q-1-1-1.7-3.5zm-32.2 5.6-10.7 9.2 2 2.7q3.5 5.8 4.1 15.3v13.8l3.1 6.8-2.3 1.6-5.8-5.4.9-4.9 1.5 1.8-.9-19.2q-4.2-12.3-14.6-15.6v-5.2l1.4.8 6.3 4 2.8 2 8.7-7.7zm-6.6 49.4-6 5-6.4 3.1 10.2-9.7zm3.8-96.3-.2-.4-1-1.1-.1-.1q-6.1-6.6-7-11.4l-8.9 6.4v2l-4.7 3.3-3.1.9-2.5 3.1-5.7 3.5-2.5 1.5v-1.9l2-.3 5.7-4.1 4.5-5.2V59l-.7 1.1 2.5-1.2 2.9-2.7-.7-1L55.6 46l5 9.4 4.4 2.8v6.4zm-36.2 8-2.3 2.4-4.3 2.4q-6.4 3.1-3.1 0 3.6-1.5 6.1-3.5 2.4-1.9 3.6-4.1v-.1l.5.7V69zM20.3 77l3.4 24 .9 2.4-1.4 4L21 94.1l-2.3-13.2zM42 99.9l-1.8 4.2h-4.9l-7.6 6.5 5.3 44 4.3 31.6v5.8l-8.6-42.7v-8l-4.2-24.8 1.4-11 10.7-5.6zm22.9-84V11l2-.8.1 1.2q-.7 1-1.1 2.3-.7 2-.4 4.5zm-.6 4.5 1.7-1 1.7-6 .8 1 .3.2L68 20l-.9-.5-1.7 1.5zm6.3-5-.2-.2 1.8.5zm13.2 10.1-.7-.7-.5-3.4.3-2.7q-.2 4.2 2.2 6.8zM80 18.8l.8-.3 1 1.7-.9.4-1.7-1.5zM82.6 32l-.2-5.3h.8l-.2 1.1-.1.5v1.4q.1 1.3.8 2.3zm-1 0-.2 2.1.8 1.1-1.8-.5q-2.7-3-6.4-4.6l1.3-1.1 1 .6 1.9 1.4 1.3 1.1.7.7.3-.8zm-.1 2.1-1.2-1.3zm-6-5.1L74 30.1q-1.4-2-.7-5.2 0 2.1 2 4.1M71 35.3l-.7.9-.8-1.4 1.5-1.2zm-5-16.1 1 .3zm-.5 8.7q2 1.9 4 0V27q1-.2 1.2 1.5l-1 .9-1.9 1.2zM28.9 49.8v-1.1l3.3-1.2 4.6 4.4-2.6-1.6-2.5-1.5zm7.3-4.5-.9-.8q2-1.2 3-1zm9.3 9.6-1.6 1.3zm-7 5.2-.9 1zM29 67l.5.8zm-2 .3-.5-.6zM4.6 121.7l.9 4.8 5.5-7.7 3.9-1.2h2.2q-1 .2-2 .8-4.8 2.6-9.6 11.5v-3.5 3.5l-4.7-4.3v-4.9zm59.4-43-.2.1-.1-.2zm8.8 1 .9.5q4.5 3 9.7 5.7 4.9 2.6 10.5 5l.5.2 3 1.2 1.5.6h2.3l-1.2.8h-2.6L76.8 83.2zM55.6 46.2l-1.3 2.4zm62.4 62.5 2.3-1.6-2-6.7q6.3.7 4.9 4.3-1.7 4.2-4.3 7zM60.2 152l-1.9-2.7zm-5.4-34.4-1.5-1.5zm-32.6 41 .2.9-.1-.4zm2.3-42.2 3.1-6zM4.8 73.5l-.4-1.2q1.4 3.8 4.7-2.3l2.4 12H8.7l-2-3.6zl1.7 5L8.8 82h1.4l-.9.8-.9-.5-2.2.9-2.4-1.5-2.3-4.6 4 3.6L3 76.4zm.4 7.2 3 1.6z"/><path fill="#7b604d" d="M127.2 130.6q-2.7 1.3-6.9.8l-5.6-2.3q17.3 6-6-9 3.3.2 6.1-1.6 7.2-7.7 9.8-12.7 8.3 15.8 2.6 24.8M83 118.1l-4 6.3-.9-2.2-6-8.5-3.2-3.5-.8-4.2-1.5-8.2 3.4-4.5h4.3l2.3-2 3.8 2.2v9.6l2.9 3.5v1.8h3l.8 3.4zm-41.6-9.7 1.3.8v5.3q10.4 3.3 14.6 15.7l.9 19-1.5-1.7q-2.1-2-4.4-2.6l-3.9-4.2-7-20.5zM19.9 74.3l.4 2.8-1.6 3.8L21 94.1q-4.7-11-9.4-12.1l1.4-2.3-.8-2.8 3.4-.2zm17.4 117.6-5.8 8.4-1.2-3.4-10.5-58q-4.8-26.4-1.7-3.7l-3-16.8q1-.6 2-.9h4.7l4.4 29.3 2.4 2.4zm27.4-159 .6.7-.4.7 1.3-.2-1.2 2.5q-.7 1.7-.9 3.4L57 45l6.3 7.6 8 1.6 3.9 2.5v-4.1q6.3 1.9 14.8 3l1.7.1-.2 1-2.2 1.4q-.8 4.2-4.4 5.2l3.8 13.8q-3.4 1.1-9 2.1l-4.2.8-1.8.2-.9-.5-.4-.4-2.6-1.8-.4-.3-1.4-1 2.3-.1 6.2 2.1 1.7-.6-9-9v-2.4l.8-4-2.8 4.5-2.2-2.1v-6.5l-4.5-2.7-4.9-9.4-12.4 9 .7 1-1.6 1.2-2.9-5.9-2.7-1.1.3-1 5.5 1.5 8.8-5.7-3.1-2.4q2 1 5.1 1.3l5.5-2.8 4.6-4.4zm4-19q-.5-.5-.4-1l.4-1.2q.5-1.5 3-3.6 6.1-5.2 22 9.5v.6q-.2 5.2 5.7 10.5-2-1-4.4-1h-1.2l-2.3-2.6-1.4 1.3.9 3.3-2.5-.6-5.5-1.4.3-1.1h-.8l.2 5.3h-2.1l-.3.8-.7-.7-1.3-1.1 2.3-2 .7-.7 1-3.1-.2-8.6-.1-.9q-1.1-.4-2.1-1-3-1.4-5.3-3.6-1.3 2.2 1.5 4.4-2.1.3-3.7 0l-1.9-.5q-1.2-.5-1.8-1M87.2 17l-4-1-1.2-.4 1.2.4zM83 18.5l-.4 2.7.6 3.4.7.7-.6 1.3.5-1.3h1.4q-2.4-2.6-2.2-6.8l.2-2.5zM39.4 51.4l2.9 5.9 1.6-1.1-2.9 2.7-2.5 1.2.8-1v-1.4l-.7-2.9zm33 8.1L65 58.4zl3.9-.6zM71 62.4h-1zh1.5zm8.2-2.7 10-1.5h.1zM83.7 71l3.5 4.3-5-13V66z"/><path fill="#e3d0ac" d="M105.4 113.4q-1.9-6.8 6.5-13.9v1.7q-6 5.3-4.2 11.2zm-10.8 23.7 2.2-.3q-6 2-11.1 7.4-2 3.9-2.7 8.3l2.2 11.4-1.7-.7V160l-2.6-6.3q.1-5 2-8.6v-.2q2.6-4.8 8.5-6.9l2.3-.7zm-11.7 7.8v-5.7l2-7.5-1.2-9.6 6.8 9.2.9 6.7q-5.9 2.1-8.5 6.9M79 124.4h-2.5v-2.2l-6.7-7.9-.7-4 3.2 3.5 5.9 8.4zm-35.3 42.9q-6.7-.5-6.2-4.5 5.6-4.6 8.8-10 1.5-1.2 6.1-.7zm2.6-15.1 1.8-5.6q2.1-2.2 4.3-1.7v5.4q-4.5 0-6 1.9m-2.2-42.1.4-1.5 4.6-8.2 4 6.9-2.7 6.8zm19.6-31.5-1-.9 1.1-3.4 13 8.9q0 4.5-11.7-3.2L64 78.8zm-38.1 21 .8-.5q3.5-2.2 6.8-3l5.1-.3q2.6.4 4.6 1.8l-2.5.3q-6.3-.4-13.5 1.4zm5.8 100.8-.6 1-1.6-4.5-6.8-37.4-.2-.9-4.1-23.4q-3-22.7 1.7 3.7l10.5 58zM67 10.3l-2 .8v4.7l.6 2.5q-.3-2.5.4-4.6.3-1.2 1.1-2.2zm-2.6 3.2.6 2.3zv6.7l1.7-1 1.7-6-.2-.4-.5-1.3.5 1.3.2.3.8 1h.1q-.5-.6-.4-1l.4-1.3q-.6-1.6-.1-3t2.1-2.4l1.8-1.7 9-.5 3.9.7 2.5.7q3.7 1.2 7.2 3.5-5-5.2-9.4-7.4-8-4-14.4 1.5-6.8-.2-9.5 7.6v9.7l1.3 7.8.5 2-.5-2h-3l-6.3 2-4.4 3.7-3 5.6h-1.2l1.9.9 1.1.5 1.6.1q2.8-8.5 9.6-10.1l4.3-.7.4 2 .6.6.6.7 1.2-1.6-1.9-3.1-1.4-8.8zm2 8.1.3.3-.4 1.6v.3q-.2 2.5 2.1 3.2l1.1-.4q.7-.6.3-2.4l.2.1q.4 2-.4 2.7v.9q-2 1.9-4 0l-1.2-6.6v-1.1l1 .8.5 2.8v-.4zM28.9 49.8l-1 .3zv-1.1l3.3-1.2 4-2.2-.9-.8q2-1.2 3-1l2.5-.8-2.5.8-2.1 1.8L38 47l10.2-4.2-.6-.4-1.9-1.6-5 1.9q-2.4-1-6 1-3.2 1.3-4.2 3.6l-2.7.6.1 2.2-4 2L18.8 64l1 .3 1 .3 1-.2.3-1.7.2-1q1.4-5.6 5.3-8.9l4.1-2.1 2.5-.4-2.5-1.5zm-7.2 15 1 .3.8-.3 1-.1-2.3 3L21 69l-1 1.1q-7 3.1-4.5.7l1.3-1.1 1.7-1.6.8-1.2zM4.5 72.3l.4 1.3-1.8 2.8 2.2 4.3L1.4 77v-2.3l3-2.8z"/><path fill="#9f8760" d="m93.9 53.2-2.4 3.6.2-1-2.1-3.7zM23.7 101l1.9-1.4 1.3-.3q7.2-1.8 13.5-1.4l2.5-.3-1 2.3h-5.3l-10.7 5.5-1.4 11 4.1 24.8v8l-2.4-2.4-4.4-29.3-5.3-2.4-5.5 3.7-5.5 7.7-.9-4.8q4.3-10 11.8-14.8l4.3 1.1L17 92.1q-4.3-8.5-6.6-8.3v-.4L10 82h1.5L9.2 70q1.2-2.1 3.7-2.8l6.2-.3-.7 1.2-1.7 1.6-3.8.5-2.2 1.2 1 3.8.5 1.7.8 2.8-1.4 2.3q4.7 1 9.4 12.1l2.3 13.3 1.3-4zm67.2-71.2 1.5 6.5q1.6 3.2 4.1 5.7l-2.2 5-.4-.5q-3.7-5.2-8.5-9.7h-1.7l-3.3-2.1 1.8.5-.8-1.1.1-2.1h2.3q-.8-1-1-2.2l6.4 2.6-.8-3.2zm3 1.7.3-2.4h1.7l2.6 1.5q3.6 5.6 7.8 8.9-2.7.3-6.4-3.7 1.5 5.2 7.7 8.6-9.7-4.1-13.7-12.9M71 62.3h1.5zh.7zM65.9 83l.9 1.9 3.7 2.5-2.2 2.8-8.5.3q5.3-1.1 6-7.5m-7.4 8 9.5 1.3q-5 2.6-12 3.5 8.7-2.5 2.5-4.7M55.2 97h8.2q-4.5 3.6-10.4 4 8.4-2.8 2.2-4m60.3 8.4 2.5 3.1.9 3.1q-2.7 3.2-6 6l-3.2-3.8-.5.5-1.5-1.7v-.2q-1.7-5.9 4.3-11.2zm-105-34.7.2.7z"/><path fill="#ebdbc2" d="M48.1 146.6 38.7 127v-12.4l2.8-6.3v11.8l7 20.5 3.9 4.2q-2.1-.5-4.3 1.7m1.6-46.9-1.5-1.3 15.5-19.9.1.3 2 4.3q-.7 6.4-6.1 7.5l-2.5-.3 1.1.9q6.2 2.2-2.5 4.7l-3.7.4 2.9.8h.2q6.2 1.1-2.2 3.9h-2zm15-28.1v-2l-2-8 2.3 3.1 2.2 2.1 3 9.4-2.2.1-3.2-2.7zm14.9-50.4.2 1.4q.1 1.6-.6 3-1.4 1.6-2.3 1.2-.5-.2-.9-1-.9-1 .4-2.8zm-13.1.7 3.1 2.4q.4 1.7-.3 2.3l-1 .4q-2.4-.7-2.2-3.2v-.3zm4.1 6.6q1.2-1.2 1.3-2.8.3 2.3-.8 4.6l-1.5-.9zM18.8 64l1 .3-6.9 2.9q-2.6.7-3.7 2.8-3.3 6.1-4.7 2.3l-.1-.3 3.9-6.2zm-8.3 19.8q2.3-.2 6.6 8.3l3.5 16-4.2-1.2q-7.5 4.8-11.8 14.8l-3.8-1q6-8.7 14.2-15.1zM65 65.9v-1.2z"/><path fill="#af977a" d="M68.6 11.8q-.6-1.6-.1-3t2.1-2.4l1.8-1.7 9-.5 3.9.7q8.3 6.7 12.9 15.7 1.5 5.5 10 10.8-4.3-.4-6.7-1.4l-2.2-1.2q-5.9-5.3-5.6-10.5v-.6Q77.7 3 71.5 8.3q-2.4 2-2.9 3.5m-5 18.5.4 2 .6.6-1.2 4-4.6 4.3-5.5 2.8q-3-.2-5.1-1.3l-.6-.3-1.9-1.6-.6-1.2 1.9.9 1.1.5 1.6.1q2.8-8.5 9.6-10.1zm-2.4 6.3q-2.2 2.2-5.8 3.9l-3.3 1.3q.4.9 5.1-1.2l4.3-3.1q2.3-3.4 1.7-4.8-.4 1.7-2 3.9m6 30.2 2.8-4.5-.8 4v2.5l9 8.9-1.7.6-6.2-2.1zm-45.4-2.4.3-1.7.2-1q1.4-5.6 5.3-8.9l4.1-2.1 2.5-.4 2.6 1.6q1.2 1.4 1.8 3l-13 9z"/><path fill="#bba480" d="m68.1 50.6 3.2 3.7-8-1.6-6.3-7.6 7-5.1.2 2.6.3 1.4.4 1.3q1.1 2.8 3.2 5.3m-19.9-7.9 3 2.4-8.7 5.7-5.5-1.5 1-2.3z"/><path fill="#c9b996" d="m36.7 50.3 2.7 1.1-.8 3.4q-.6-1.5-1.8-2.9l-4.6-4.4 4-2.2L38 47l-2 2.3z"/><path fill="#f6fefe" d="m19.8 64.3 1 .3.9.2-2.6 2.1-6.2.3z"/><path fill="#927354" d="m20.8 64.6 1-.2-.1.4zM51 101l2-.1q5.9-.4 10.4-4H55l-2.9-.7 3.7-.4q7-.9 12-3.5l-9.5-1.2-1.1-.9 2.5.3 8.5-.3 2.2-2.8-3.7-2.5-1-1.9-1.9-4.3h.2l1 1.3 1.3 1.3 3.4 3.8 2.4 2.4 2.6 2.4 2 1.3-2.4 2.1H70l-3.4 4.5-1.4 1.8h-3.5l-1.5 2.8h-8z"/><path fill="none" stroke="#000" stroke-linecap="round" stroke-linejoin="round" stroke-opacity=".3" stroke-width="__RESOLUTION__" d="M95 9.1q2.1 3.7 4.9 4.2l-2 1.3q5.7 1.4 9 6.2-5.2.7-3.9 3.5l.2.4q9.4 5.3 20.2 6-4.1 4.6-12.7 6 3 2 5 1.3-1.7 4.8-7.7 3.2.5 2 .5 3.8l3.1 2.9-1.5 1.7q-1.6-.3-3-1.1l-3.1-1.7.1 1 .5 2.6q1.3 6.3 4.5 11.9l.4.6 1.6-.4 1.3 1v.1l-.9 1.3 1.6 2.3 1.4-.4.8 1.2v.1l-.3.7h0l-.4.9 4.8 8 2.8 9.7 2.8 1v2.4q-.3 1.2-1.8 1.4l.7 8h.1l.5.3 1.1 2.1 6.8 14.4q.4 10.8-5.2 13.6-2.7 1.3-6.9.8l-5.6-2.3-5.7-2.2-1.4-3.3-2.2-.8-2-3.7 3-.7h4.5l-3.4-3.3h-.1l-.5.3-1.5-2q-1.9-6.8 6.5-13.9v-4l-9-15q-2.3-2.5-2.5-6.5L99 71.6l-4-14.3-1-4.1-2.4 3.6-1.7 9.9 2.6 9.5 1.3-.2 1.7 7-.7.2-.7.2.5 1 2.3 5.5 1 .3 3.4 2.8-2.3 8.8-1.5-.5.3 1.5.8 4.2.5 2.1.5 2.8v12l-1.1-.5-.2.9-1.7 7.4v2.3l-1.9 3.1 2.2-.3v4.7l-5.1 11.8v10.8l.8 2.5.2.5-.5-.4-2-.8-5-2-1.7-.7V160l-2.6-6.3q.1-5 2-8.6v-5.9l2-7.5-1.2-9.6-.6-4-4 6.3h-2.6v-2.2l-6.7-7.9-.7-4-.9-4.2-2.7 2.3-10.7 9.2 2 2.7q3.5 5.8 4.1 15.3v13.8l3.1 6.8-2.3 1.6H59l-6 5-6.4 3.1-2.9 1.4q-6.6-.5-6.1-4.5 5.6-4.6 8.8-10v-.6l1.8-5.6-9.4-19.5v-12.4l2.8-6.3 1.3.8 1.4.8.4-1.5 4.6-8.1.5-.7-1.5-1.3 15.5-19.9-1-.8 1.1-3.4 1-2.7v-2l-2.1-8-.2-.5-1-1.1m-.1-.1q-6.1-6.6-7-11.4l-8.9 6.4v2l-4.7 3.3-3.1.9-2.5 3.1-5.7 3.5-2.5 1.5-.5.3-2.3 2.4-4.3 2.4.4 2.8 3.4 23.9 1.9-1.4.8-.5q3.5-2.2 6.8-3l5.1-.3q2.6.4 4.6 1.8l-1 2.3-1.7 4.1h-4.9l-7.6 6.5 5.3 44 4.3 31.6v5.8l-5.8 8.4-.7 1-4.6 11.8-1.3 3 20.6 4.9M64.9 15.8l.6 2.5q-.3-2.5.4-4.6.3-1.2 1.1-2.2l-.1-1.2m-2 5.4-.6-2.2v6.7l1.7-1 1 .3.9.5q1.8 1.3 3.6 3.7l-.9 1.1-.7-.5-.2-.1-3.1-2.3-.3-.3-1-.6-1-.8v1.1l1.2 6.6 2.3 2.7 2-1.2 1.4.9 1.5.9 1.3-1.1 1.3-1.1 1 .6 1.9 1.4 1.3 1.1.7.7 1.2 1.3.1-2.1h2.3q-.8-1-1-2.2v-1.5l.2-.5.2-1.1.5-1.3h1.4q-2.4-2.6-2.2-6.8l.2-2.5-1.2-.4q-1.1-.4-2.1-1-3-1.4-5.3-3.6-1.3 2.2 1.5 4.4-2.1.3-3.7 0l-1.7-.2-.3-.2-1.5-.7-.2-.3-.9-1-.2-.3-.5-1.3M95 9q-5-5.2-9.4-7.4-8-4-14.4 1.5-6.8-.2-9.5 7.6v9.7l1.3 7.8.5 2 .5 2 .6.6h0l.6.7 1.2-1.6.3-.3.1-.2 1-.9m31.5-1.9 2.2 1.3q4.3 3.3 6.5 11.2m-24.9-25 4 1m4.3 8.1L90 26.5l.9 3.3 1.5 6.5q1.6 3.2 4.1 5.7l1 .8q2.7 2.4 6.5 4m-4.7-18q-2-1-4.4-1h-1.2l-2.3-2.6m-9.5-5-1.2-1.7-.7.3-.8.3q-3 1.5-4.5 4v.9l1.6-1h.2l3.2-1.9.3-.1.9-.4zm-2.2 1 .2 1.4q.1 1.6-.6 3-1.4 1.6-2.3 1.2-.5-.2-.9-1-.9-1 .4-2.8m4 6 .7-.7 1-3.1-.2-8.6-.1-.9m-.5 18.4.8 1.1-1.8-.5 3.3 2.1h1.7q4.8 4.5 8.5 9.7l.3.5 2.3-5m-16.1-7.3-2-.5-2-.5-2.4 2.1-1-1.4h-1.4l-.6.9-.7.9-.8-1.4-.9-1.2 2.4-.9h1.5l3.9 1m19.5 20 2.2.5Q96.4 50 94.3 47l3.2-4.2M68 50.6l3.2 3.7 3.9 2.5v-4.1q6.3 1.9 14.8 3l1.7.1-2.1-3.7 4.3 1 2 .6M78.2 31l2.3-2m7.9.2-5.5-1.4m8 2-2.5-.6m-21.8-7.3-.4 1.6v.3q-.2 2.5 2.1 3.2l1.1-.4q.7-.6.3-2.4M45.1 39.7h1.2l3-5.6 4.4-3.7 6.3-2h3M64 40q.3-1.7.9-3.4l1.2-2.5-1.2.2.3-.7m-.6-.6-1.2 3.8-4.6 4.4-5.5 2.8q-3-.2-5.1-1.3M37 49.3l-.4 1 2.8 1.1 2.9 5.9 1.6-1.1 1.6-1.3m10.1-8.8 5 9.4 4.4 2.8 7.4 1.3M66.2 34l1.5-.3.9-.2m-.5 17q-2-2.5-3.2-5.3l-.5-1.3-.2-1.4L64 40m1 24.7v-6.5m2.2 8.6 2.8-4.5h2.5H71h.7m17.6-4.1-10.1 1.3m12.5-3.7-.2 1-2.2 1.4M28 50l.9-.3 2.8-1 2.5 1.5 2.6 1.6q1.2 1.4 1.8 3l.6 2.8V59l-.7 1.1-.9 1m.7-17.6 2.5-.8q-2.5-1-6.1 1-3.2 1.3-4.2 3.6l-2.7.6.1 2.2-4 2L18.8 64l1 .3 1 .3.9.2 1 .3.8-.3 1-.1 2 1.9h0l2-.3.5.7.5.8m18.1-25.4-1.9-1.6-5 1.9M38 47l-1 2.3m1.3-5.7-2.1 1.7L38 47m7.8-6.2-.7-1.2M27 67.4V69l-.5.5m0-2.8.5.6m-11.6 3.6-.5.4-2.3.8-.8 3.2.4 1.7 3.4-.2 4.3-2.4m-1.5-6.2-1.7 1.6-1.3 1.1M4.5 121.7l.9 4.8v3.4l-4.7-4.3v-4.9q6-8.7 14.2-15.1l-4.5-21.8v-.4L10 82H8.7l-2-3.6-1.8-4.9-.4-1.2-.1-.3-3 2.8v2.3l4 3.6 2.9 1.6.9.5 1-.8h1.4l1.4-2.3-.8-2.8m9.6 40.6 4.4 29.3 2.4 2.4v-8l-4-24.8 3-6M51 101l-1.3-1.3M51 101l1.3 1.3h8l1.5-2.7h3.5l1.4-1.7 3.4-4.6h4.3l2.3-2-1.9-1.4-2.6-2.4-2.4-2.5-3.5-3.7-1.2-1.3-1.1-1.2-.3-.2M44.1 110l6.4 4 2.8 2 1.5 1.5m33.9-40.4 3.7-1m-18.7 4.1 1.8-.2 4.2-.8q5.6-1 9-2.1M68 76.3l1.4 1 .4.3 2.6 1.8.4.3.9.6q4.5 3 9.7 5.7L94 83.4m.4 7.8 3 1.2-.7-2.5m-32-18.3v2l3.3 2.7h0m-1.3 21.5 1.5 8.3m26.2-14.9-.5-.2q-5.6-2.4-10.5-5m-6.7 5.3 3.8 2.2q3 1.7 6.2 3.2 5 2.4 10.7 4.5m-16.9-7.7v9.6l2.9 3.5v1.8h3l.8 3.4 1 3.5 4 2.2 1.5 3.6 4.7 2.3M72.8 79.7l4 3.5 20.6 10.5h2.6l1.2-.7M65 64.7v1.2M54.3 48.4l1.3-2.3m49.9 17.7-4.5 5.4-.8 1-1.2 1.4m3.3 1.3 1.1-.7h0l2-1 5-1.5 1.3-.2h.2l1.1-.5m-5-2.8-2.7 1.1m4.3-4.4-2 .5-2 .4m3 12.5 1.6 2q4 4.7 9.3 8.1l2.8 1m-9.1-20.2-2 .5m-5 6.7 8.5-4.7m-12.3 3.1-1.8 1.3M113 94.3l1.2-1.2m1.3 12.3 2.5 3.1 2.3-1.5-2-6.7.5-1 2.4.1 2.7.8m-17.7-25.8-1-3.2m18 21-2.7-1q-7.2-4.9-11.7-12-1.5-2.3-2.6-4.8m6.8 19.9-1 1.1m0 5.8v-1.7m-4.2 13-.1-.1q-1.7-5.9 4.3-11.2l3.5 4.2m-7.8 7 1.5 1.8.5-.5 3.2 3.8q3.3-2.8 6-6 2.5-2.8 4.3-7 1.3-3.6-4.9-4.3m-10.6 12.1-2.3 1m20.2-10.8q0 1.4-1 3.2-2.6 5-9.8 12.7-2.8 1.8-6.1 1.6l-5.3-1m4.5-52.9 2.8-1.2m2.2 52.6-.5.5-1.5.3m-17.2 18.9-2.3.7q-5.9 2.1-8.5 6.9v.2m11.7-8-1 .2m-35.3 12 1.9 2.7m-3.5-4.5 1.6 1.8m-1.5-1.8q-2.1-2-4.4-2.6-2.1-.5-4.3 1.7m-31-29h4.7m-4.7 0q-1 .2-2 .8l3 16.8 4.1 23.4.2.9 6.8 37.4 1.6 4.4m-1.6-4.4-11.9 16 8.9.2m2.4-63.8 8.6 42.6m70.3-76.8 1.7-.7m-22-2.6-4.1 6.3M16.7 69.7l-3.8.5-2.2 1.2 1 3.8m-1-3.8-.2-.7m8.3-6.7L8.3 65.8 4.4 72m-.7 9.7-2.4-1.5L0 78l1.4-2m-.6 44.7 3.8 1m3.7-39.4-2.2.9-2.4-1.5m1.8 48.2q4.8-8.9 9.6-11.5m2.2 94.5-3.2-2.1" vector-effect="non-scaling-stroke"/><path fill="none" stroke="#000" stroke-linecap="round" stroke-linejoin="round" stroke-opacity=".3" stroke-width="__RESOLUTION__" d="m72.4 59.6 3.9-.6m-54.6 5.8.1-.4m89.8 5.1-.5-1.7-1.4.5-1.8-2.1m-2.5-2.4 1.1 1.5 5.9-1.7m2.9 4.5-2.4.9" vector-effect="non-scaling-stroke"/><path fill="#342421" fill-opacity=".4" d="m64.6 33 .6.6-.4.7 1.3-.2-1.2 2.5-.4 1L64 40l.2 2.6.3 1.4v.4l-10 1-3.4-1.7 2.2.3 5.5-2.8 4.6-4.4zm18.5-17 1.9.6q.9 6.9 4.6 12.8L83 27.8l.2-1.1.5-1.3h1.4q-2.4-2.6-2.2-6.8zm8.4 27.2-1.3-6.8 1.3-4.4 1 4.2q1.5 3.2 4 5.7l1 .8q2.7 2.4 6.5 4l.1 1 .2 1-1.9.7q-1.5 7.3-7.5 7.8l-1-4.1 4.2 1-2.4-4.9-1.5-2.3-.3-.5zm-18 12.4 1.8 1.1v-4.1q4.5 1.4 10.3 2.3-.1 3.1 6 1.8l-1.6 1-.6.4-1.7.1q-1.3 2.8-5 4.9l-.4-1L81 61l-1.5 6.2 5.4 11-3.7.8v-1.9l-8.5-9.7-1-5.2h.8H70l-1.4 2.3q-2.6-2.8-2-6l-1.6-.2-2.2-1.4q6 .4 10.7-1.2m-1.1 3.8-5.9-1zl3.9-.5zm6.8 0 8.4-1.2zm-36.9-2.3-2.5-5h2.5l.9 2.9zm-16.5 8.6-1.4-1.2h-.9l-.7.3-1-.2q6.5-7.5 10.7-11 2.3.3 4.5 1Q41.8 57 25.9 66M13 79.7l-.8-2.8-.4-1.7.8-3.2 1.2-.5q2.1 1.8 6.6 2.5l-.5.3-1.2.7-3.1 1.8-3.4.1 3.4-.2 3.1-1.7v6zM35.8 194l-4.3 6.2-5.1-25.5q2.9 12.4 9.4 19.3m32.4-88-4.7-4.7-2 3h-4l-3.8-2h6.6l1.5-2.9h3.5l1.4-1.7 3.4-4.5h4.3l2.3-2 2 1.1 1.8 1.1v9.6l2.9 3.5v1.8h3l.8 3.4-2.7 4.2-1.4 2.1-2 3.2Q72 110 69 97.4l-2 2.5-.4-2 .3 2zm-12.4 40.7q-4-21.6-13-27.7v-2.4q5.7 1.2 8.3 4.7 5.3 6.5 5.4 14.2l.3 12zm4.4 5.3.1-.6.6-3.3v1.3l2.3 5.1zm15-70.6L85 79q10.8 1.3 1.4 6.3l-3 .7q-4.4-2.2-8.2-4.7m8.2 4.7 3-.7 6.2-1.5q-2 2.9-5.2 4.3zm-1.9-.4 10.2 5.3q5 6.1-3.3 6.6l-1.7-.8q-2.5-1.2-4.7-2.5h-.1l-1.4-.7v9.6l2.9 3.5v1.8h1.5l-.5-3.1-2.5-2.6v-3.5q4.7 1.8 9.7 2.8l.8 3.4 1.7-.5-.7-2.6 2.3.3.4 1.4.7-.5-.2-.9 1 .2-.2-1.5q-4.7-1.8-9-3.8l-1.7-.8q-2.5-1.2-4.7-2.5h-.1l-1.4-.7-1.8-1.1q-6.7-7.7 2.8-6.8m3 30.4 2.8-4.2.9 3.5 4 2.2 1.5 3.6 2.3 1.2-3.7-.9-1.6-2.2h-3zM111 71.7q6.2 6.3 8.4 14.7-5.3-3.4-9.3-8.2l-1.5-1.9-1.1-2.6zm-4.3 3.7 15.2 16.3-1.4-.5q-6.7-4.5-11-11l-.5-.7-.2-.2v-.1q-1.2-1.8-2.1-3.8m1.2-9.2 1.8 2.1-6.5 2.7-1.2-1.2 3.2-2.5zm1.5 14q4.3 6.5 11.1 11l1.4.5q-.5 1.5-1.9 1.8l1.9 6-.7-.1-1.7-.2-2.7-6.1q-5.9-5.2-7.3-12.8m6.2 34.8q-5.7-7.8-1.3-10.9l3.6 4.3 2.3-1.5-1-3.4 3.2 2.5q-1.5 3.2-3.6 5.5zM94.2 47l3.3-4.2zl2.3-5zm16.9 76.7q14-.7 15.3-13.8 6.1 9-9.3 13.8zm-49.5 34.1h-2.8q-3.1-4.2-6.3-6.7-3.6-.2-6.1.7 3.6-2 5.9-1.5l3.5 2.1zm33.5-12.6-1.3-1.8q-9.3 5.3-5.5 21.8l-1.6-.6Q81.2 144 95.2 141l.5 3zm-79.5-23.5-.6-3.3q1-.6 2-.9h4.7l4.4 29.3 2.4 2.4 8.6 42.6Q30 180 25.5 153.4L20 124z"/><path fill="none" stroke="#000" stroke-linecap="round" stroke-linejoin="round" stroke-opacity=".3" stroke-width="__RESOLUTION__" d="m89.6 29.5 1.3.3-.9-3.3 1.4-1.3 2.3 2.6H95q2.3 0 4.3 1l2.3 1.2q4.3 3.3 6.5 11.2 6 1.6 7.7-3.2-2 .7-5-1.3 8.6-1.4 12.7-6-10.8-.7-20.2-6l-.2-.4q-1.3-2.8 3.9-3.6-3.3-4.7-9-6l2-1.4q-2.8-.5-5-4.2-4.9-5.2-9.3-7.4-8-4-14.4 1.5-6.8-.2-9.5 7.6v9.7l1.3 7.8 1 4 .6.6h0l.6.7 1.2-1.6.3-.3.1-.2 1-.9-2.3-2.7-1.2-6.6v-7.8l1.3 4.8q-.4-2.5.3-4.6.3-1.2 1.1-2.2l-.1-1.2m.1 1.2.5 1.3.2.3.8 1 .3.3 1.5.7.3.2 1.7.2q1.6.3 3.8 0-2.9-2.2-1.6-4.4 2.3 2.2 5.3 3.6 1 .6 2.1 1l1.2.4 1.9.6 2 .4M82 20.2l-2 .8-.3.1.2 1.5q.1 1.6-.6 3-1.4 1.6-2.3 1.2-.5-.2-.9-1-.9-1 .4-2.8h-.2l-1.6 1v-.9q1.5-2.5 4.5-4l.8-.3.8-.3zm1.3-4.1-.2 2.5q-.2 4.2 2.2 6.8H84l-.6 1.3-.2 1.1 6.6 1.7m-10-8.4L76.6 23m6.5 4.8-.1.5v1.4q.1 1.3.8 2.3h-2.2l-.1 2.1.8 1.1-1.8-.5 3.3 2.1h1.7q3.3 3 6 6.5l2.5 3.2.3.5 1.5 2.3 2.4 5-4.2-1.1-4.3-1.2 2 3.8-1.5-.1-4.5-.7q-5.8-.9-10.4-2.3v4.1l-1.7-1.1-2.2-1.4-3.2-3.7q-2-2.5-3.2-5.3l-.4-.9V44l-.3-1.4L64 40l.5-2.4.4-1 1.2-2.5h0l1.6-.3.9-.2 1.8 2.6 1.2-1.8H73l1 1.4 2.4-2 4 .9m11-2.6-.5-2.3m-9.5 4.3-1.2-1.3-.7-.7-1.3-1.1-1.9-1.4-1-.6-2.6 2.2-3-1.8-1.9 1.2M82 15.7l.3 9.5-1 3.1-3 2.7m13.3 1.1 1 4.2q1.5 3.2 4 5.7l1 .8q2.7 2.4 6.5 4l3 1.7q1.5.8 3.1 1.1l1.5-1.7-3-2.9q0-1.7-.6-3.8m-42-22-1.7 1 1 .8 1.3.9 3.2 2.3.8.6 1-1.1Q69.9 21.3 68 20l-.9-.5zm.6 2.7-.4 1.6v.3q-.2 2.5 2.1 3.2l1.1-.4q.7-.6.3-2.4M51.2 43.7l2.2.3 5.5-2.8 4.6-4.4 1.2-3.8M63 28.3h-3l-6.3 2-4.4 3.7-3 5.6h-1.2l.6 1.2 1.9 1.6m28.8-8.6-3.9-1.1H71l-2.4.8m-2.5.6-1.2.2.3-.7M51.1 43.7q-1.6-.4-2.9-1m14.6 14.2-2.2-1.4-5-9.4-1.3 2.4q1 4.8 7.2 11.5l1 1.1 2.3 8.5v4l3.2 2.7h0l1.4 1 .4.3 2.6 1.8.4.3.9.6 1.8-.2 4.2-.8 1.5-.3 3.7-.7 3.8-1.1 3.7-1-2.6-9.5 1.8-9.9v-1m-20 6.5h-.3 1.3zm-.5 0H70l-1.4 2.3-1.4 2.3m-4.4-10 2.2 1.4 1.5.2 5.9 1m19.1-2.7-1.6 1m-.6.4-1.7.1-8.4 1.3m12.3-2.8 2.4-3.6 1 4 4 14.4 6.5-7.7h0l4.1-1-.5-.6q-3.1-5.6-4.5-11.9l-.2-1.6-.2-1-.1-1m-64.1 5.5-.5-.9-2.7-1.1L38 47l-1.8-1.7 2.1-1.7 2.5-.9q-2.5-1-6.1 1-3.2 1.3-4.2 3.6l-2.7.6.1 2.2 3.8-1.4 5.1 3.2q1.2 1.4 1.8 3l.6 2.8V59l-1.6 2.1 3.1-1 4.8-3.3V55l-3.2 2.4zm-18 12.5 1 .3.7-.3 1-.1 1.3 1.2.7.7h0l2-.3 1 1.5 5.7-3.5 2.4-3.2m-15.8 3.7-3-.8-10.5 1.8-4 6.2 2.2 6.4L8.8 82h2.9l1.4-2.3-.8-2.8-.4-1.7-1.1-3.8-.2-.7M28 50.1l-4.1 2L18.8 64m27-23.2-5 1.9m4.7 12.2 8.8-6.4M26.5 66.6l.5.7V69l-.5.5 3-1.7m-9 6.2-.6.3 3.8 26.7 1.9-1.4.8-.5q3.5-2.2 6.8-3l5.1-.3q2.6.4 4.6 1.8l-2.7 6.4h-4.9l-7.6 6.5 5.3 44 4.3 31.6v5.8l-1.5 2.2-4.3 6.2h0l-.7 1-4.6 11.8-1.3 3 20.6 4.9M18.4 68.1l-1.7 1.6-1.8 1.5-1.1.3-1.2.5-.8 3.2m8.6-1.2 3.8-2.1 2.3-2.4m-14.3 7.4 3.4-.2 3.1-1.7 1.2-.7m33.8 28h-1.5l-2.5-2.6-5.1 8.8-.5 1.5 6.4 4 2.8 2.1 1.5 1.5 13.4-11.5-1.2-6.2-.3-2-1.4 1.6h-3.5l-1.5 2.8zm13-4.5 3.4-4.5h4.3l2.3-2-1.9-1.4-2.6-2.4-2.4-2.5-3.5-3.7-1.2-1.3-1.1-1.2-.3-.2-15.5 19.8 1.5 1.3M44 110l-2.6-1.6-2.7 6.3v12.4l9.3 19.5q2.1-2.2 4.3-1.7 1.8.4 3.4 1.8l1 .8 1.5 1.8 1.9 2.7m.7-3.9v-12.5q-.6-9.5-4.1-15.3l-2-2.7m37.8-33.8 1.5-.4 1.3-.4-1.7-7-1.3.2m-17.2 5.1q3.8 2.5 8.2 4.7l3-.7 6.2-1.5M87.4 88q3.1 1.5 6.5 2.9l.5.2 3 1.2-.7-2.5-2.7-6.5m-19.2-2 2 1.8 4.7 2.4 10.2 5.3 5.7 2.8h2.6l1.2-.7-3.3-2.8-1.2-.3M83.5 86l4 2M64.7 71.7l-2 6.1 1 .8m9.1 1.3 2 1.6m.5 0-1.6-1.1m7.3 41 2.1-3.2 1.5-2.1 2.7-4.2h0l-1-3.5h-2.9v-1.7l-2.9-3.5v-9.6l-1.8-1.1-2-1.2M68.3 106l1.6 8.3 6.7 7.9v2.2H79l2-3.2m7.4-23.7-1.7-.8q-2.5-1.2-4.7-2.5h-.1l-1.4-.7m17.2 9.3-.3-1.5q-4.7-1.8-9-3.8M65 58.3v7.6m47.4-2.3-1.3-1.1-1.6.4m1.6 4.9 2-.6-1.5-2.3.8-1.3m7 22.8 2.8 1-2.8-9.7-4.8-8-3.6 2-3.5 2-1.3.7.5 1q.9 2 2 3.8h.1l.2.3m10.4 7Q114 83 110 78.2l-1.5-2m13.3 15.4 1.3.5q1.5-.2 1.8-1.4v-2.5l-2.8-.9M115.2 68l-.8-1.2-1.4.4m-1.5 2.3h.2l1.1-.5m2.4-.9-.3.7h0l-.4.9m-3-.2-1.3.3-5 1.5.9 3.1m1.7-8.2-2.7 1.1m0 4-1.8.9h-.1l-2.8 1.8q.1 4 2.4 6.5l9 15 2.3-2.4M98.9 71.6l1.5 2.5m9 6.2q4.3 6.4 11.1 11l1.4.4m0 7.8 2 .7-.7-8M112 99.5q-8.5 7.1-6.6 13.9l2.3-1v.1-.1q-1.7-5.9 4.3-11.2zv-4m-14.6 5.8 1.5.5 2.3-8.8M96 122.3l2.4 1.1 1.1.5v-12l-1.8-9.2m10 9.8 1.5 1.8.5-.5 3.2 3.8 2.8-2.5 3.2-3.5q2-2.3 3.5-5.5l.8-1.5q1.3-3.6-4.9-4.3l.5-1 .7-.1 1.7.2.7.1m-7.5 4.7-2.5-3m1 16.4-.5.5-1.5.3h-4.5l-3 .7 5.3 1q3.3.2 6.1-1.6 7.2-7.7 9.8-12.7 1-1.8 1-3.2l-1.1-2-.5-.3-.1-.1m-4.6 3.4 1 3.4-2.3 1.5-3.6-4.3m3.9-3.9 1 3.3m-11.4-37.4 2.8-1.2M97.5 42.8 94.3 47l2.3-5m6.8 77.1 2 3.7 2.2.8 1.5 3.3 11.2 4.5q4.2.5 6.9-.8 5.6-2.7 5.1-13.6l-6.7-14.4m-20.2 10.8 1.5 2 .5-.3h.1l1.7-.7m-1.7.7 3.4 3.3m-27.8-.3 1.8 13.6-2 7.5v5.9-.2q2.6-4.8 8.5-6.9l2.3-.7.9-.2 1.9-3.2v-2.2l1.9-8.3m-2.7 20.7 1-2.6v-4.7l-2.1.3m-7.3-25.2.9 3.4 4 2.2 1.5 3.6 2.3 1.2M60.9 148v1.3l2.3 5.1.8 1.8-2.3 1.5h-2.8l-6 5-9.2 4.5q-6.7-.5-6.2-4.5 3.7-3 6.3-6.5l2.5-3.6.2-.9 1.6-5.2m40.4 18.6 1.7.7 2 .8.5.4-1-3v-10.8l3.5-8.1.5-1.1m-8.9 20.5 1.7.6M82.9 145q-1.9 3.6-2 8.6l2.6 6.3v3.2l3.3 1.4m-49.6 27.2-8.6-42.6-2.4-2.4-4.4-29.3h-4.7q-1 .3-2 .9l.6 3.3 13.5 75.2 1.6 4.4m6.4-9.6v.2m-9.6-81.4-3 5.9 4 24.8v8m.6 47.8-11.9 16h8.9M10.7 71.6l2.2-1.3 3.8-.5M4.4 72l-3 2.8v2.3l4 3.6 2.9 1.6.9.5 1-.8.3 1.4v.3l4.5 21.9Q6.8 112.1.8 120.7l3.8 1 .9 4.8v3.4q4.8-8.9 9.6-11.5M1.4 76 0 78l1.3 2.3 4.8 2.9 2.2-.9M.8 120.8v4.9l4.7 4.3m11.8 83-3.2-2.1" vector-effect="non-scaling-stroke"/><path fill="none" stroke="#000" stroke-linecap="round" stroke-linejoin="round" stroke-opacity=".3" stroke-width="__RESOLUTION__" d="m72.4 59.6 3.9-.6m29.2 4.8 1 1.5 5.9-1.7m.5 5.4 2.4-.9m-4.2-.3.5 1.7m-2-1.2-1.7-2.1m1.8 2.1 1.4-.5" vector-effect="non-scaling-stroke"/><path fill="none" stroke="#544225" stroke-linecap="round" stroke-linejoin="round" stroke-opacity=".5" stroke-width="__RESOLUTION__" d="M74.8 81.4h.5" vector-effect="non-scaling-stroke"/><path fill="#71612d" fill-opacity=".4" d="M78.2 7.3V4.1l7.7 3.5q15.7 15.6.1 4.4zM8.4 114.7v5.4l-7.6.6 6.5-8z"/><path fill="#fff" fill-opacity=".4" d="m93.6 50.5-12.5-3.2v-9h4.3z"/><path fill="#f6fefe" d="m24.6 113.8-5.4-12.3.1.4-1.6-6.8-2.6-6.7h4.1zm16.5 48.6 4.9-6.7 5.2-1.2-.8 5h-2.1z"/><path fill="none" stroke="#000" stroke-linecap="round" stroke-linejoin="round" stroke-opacity=".2" stroke-width="__RESOLUTION__" d="m43.3 41.8 2 2.1 3.2 8.9M21.3 58l3.2-1.6 6.3 3.9 2.7 3.5m-8.9 50v-10.4m0 10.3-8.2-6.8m73.4-40.2-5.1 2m-.6-1.5L83 68.4l-7 2.8-4.8-.4-3.2-1.2h-3.2M107 58.3l-2.6.2-6.1 3.3-1.5 2.6m-40.2 64.1 2.8-2M81.3 150l1.7 2.5h6.4l2.9-.7M84 124.9l6.5 3.8 7-1.1M40 129.7q5.1 3.5 15.6-.1" vector-effect="non-scaling-stroke"/><path fill="#eaf2f3" d="M82.3 2q.6.8-.1 1.3-.8.5-1.4-.3t.1-1.3 1.3.3m2.4 4.3q.5.5 0 .7-.5.3-.9-.2t0-.8.9.3M83.9 5q-.8.6-1.4-.4t.4-1.4q.8-.5 1.3.4T83.9 5m-3.2.7q-.8.4-1.3-.3t.3-1.3 1.3.2l.2.7q.7-.6 1.2.5.5 1-.3 1.2-.8.3-1.2-.4zm1.9 3.6q.7-.3 1.3.5.5.9 0 1.2-.6.4-1.2-.5l-.4-.6-.2.1q-.6.5-1-.1t.3-1.1q.6-.5 1 .2zM85 7.1l.2-.3.3-.1.3.1.4.3q.3.6 0 .9-.5.2-1-.3l-.1-.2zm-6.2-2q-.5.3-1-.3t0-1 1 .4 0 1m-.1 1.1q.4.5-.2.8-.5.3-.8-.3-.5-.5 0-.7.5-.3 1 .2M78.5 9q-.3-.7.3-1.1t1 .3q.5.9-.2 1.1t-1-.3m6.4 2q.5-.3.9.2t-.1.8-.8-.3 0-.7m2-2.7q.5-.4.8.2t-.2.9-.7-.4q-.4-.3.1-.7m1 2.4q-.4-.7.2-1 .5-.3 1 .3t0 1-1.2-.3m2 .7q.5-.2 1 .4t0 .8-1-.3 0-.9m-2.7 2.3q-.7.2-1-.3t.2-1 1 .3-.2 1m2.9.4q.7-.4 1.2.4t0 1.2-1.2-.5 0-1.1m-.7.7q-.8.4-1.2-.2t.4-1.2q.7-.5 1.1.2.4.8-.3 1.2m2.7.6q0-.5.5-1 .8-.7 1.3.5.7 1.1-.3 1.4h-.1q.4.8-.4 1.1-1 .5-1.7-.5t.2-1.4zm0-.9q-.5.3-.7-.1t.2-.7.7.1-.2.7M77.4 33q-.5-.7.1-1.2t1.2.2-.2 1.1-1.1-.1m1.8.6q.8.7 0 1.4t-1.4-.1.1-1.4zm-15-.4q-.2-.4.3-.7.3-.2.5.2t-.2.6q-.3.3-.5-.1m-6-2.7q-.5-.7.3-1.2t1.1.1-.2 1.3-1.2-.2M57.1 32q-.8.3-1.2-.2-.4-.7.4-1.2t1.2.2T57 32m13.2-1.4q-.3-.4.3-.6t.8.2-.3.6q-.5.3-.8-.2m-.8 1.3q-.8.4-1.4-.3t.1-1.2 1.4.3-.1 1.2m-3.5 1q-.6-.8.3-1.5 1-.7 1.5.1.4.9-.4 1.5-.7.6-1.3-.2m2.3 7q.5.8-.1 1.1t-1.2-.4.1-1 1.2.3m.7-1.2q-.3-.4.2-.6.4-.4.6 0 .4.5-.1.8t-.7-.2m-2.9 2.9q1.2-.7 1.9.4t-.4 1.8q-.5.3-.9.3l.5.3q.5.7-.2 1.1t-1-.3q-.3-.8.2-1.1h.4q-.5-.2-.9-.7-.8-1 .4-1.8m1.6 5.1q.3.5-.2.9-.5.3-.9-.2-.3-.5.2-.8.5-.5.9.1m-.7 2.7q-.5-.5 0-.8t1 .2q.5.6-.1.9t-1-.3M53.8 32.8q-.2-.7.3-.9t1.2.4q.5.7-.4.9t-1.1-.4m-2 .8q-.5-.8.1-1.1.8-.5 1.2.1t-.2 1.1q-.5.5-1.1-.2m-.9 2q-.4-.5.2-1 .5-.3.8.2t-.1.9-.9-.1M27.5 51.2q-.3-.7.1-1t.8.3-.1 1l-.4.1.2.3q.5 1-.4 1.6-.8.5-1.3-.5t.4-1.6h.8zm-3.1 4.4q.8-.5 1.1.1t-.3 1.1-1.2-.1q-.4-.6.4-1.1m-.4 2.3q.6.9-.1 1.4-.8.5-1.1-.5t.1-1.3q.6-.4 1.1.4m-2 5.3q-.6.3-1-.4t.4-1.1q.6-.4 1 .4.3.8-.4 1.1m1.9-1.6q-.9.6-1.2-.4-.4-.9.3-1.4t1.1.5-.2 1.4m1.4-6.7q-.4-.7.3-1.1t1 .4-.3 1.1-1-.4m-8.8 33q.2.4-.2.6l-.2.1.3.2q.5.6-.1 1.1t-1.2-.2.2-1.1l.5-.2q-.2-.4.1-.6t.6.1m1.8-.3q.5-.5 1 .3l.2.6q.6-.1 1 .3.4.8-.4 1.3t-1.5-.2q-.3-.4-.2-.7l-.2-.4q-.4-.7.1-1.2m2 4.7q-.6.4-1-.2-.5-.8.1-1 .6-.3 1 .2t-.1 1m.7 2q.3.6 0 1l.4.5q.6.8-.1 1.3-.8.4-1.1-.3-.2-.6 0-1-.7.2-1-.5-.3-.8.5-1.3t1.3.3m-5.3-3.6 1.4.1q.4.7-.3 1.1-.8.5-1.4-.1t.3-1.1m3 4.7q.2.4-.3.8-.5.3-.7-.2t.2-.8.8.2M17.5 94q-.7.4-1-.2t.1-1.1 1 .2-.1 1.1m1.1 4.6q-.3.3-.6-.2t.1-.6l.6.2q.2.3-.1.6m-.7 1.8q-.5-.5.1-.8l1 .1q.3.4-.2.8zm1.4 1.4q.2.3-.2.6-.2.2-.5-.2t0-.6zm1.6-3.8q.7-.5 1.2.2.5.5-.2 1-.8.4-1.4-.2t.4-1m.6 2q.7-.4 1.1.2.4.5-.1 1t-1-.2 0-1m1.6 4.6.4.4q.5.8-.2 1.2t-1-.3.2-1.2q-.4-.1-.5-.5-.4-.8.5-1.3t1.3.3q.3.8-.5 1.3zm-3-.2q-.9.5-1.4-.2t.5-1.5 1.4.3v.1l.1.4q0 .5-.6.9m.3.1q.5-.5 1 .3.6.7-.1 1.2l-.4.1-.3.3q-.7.4-1.2-.4t.4-1.3zm-.1 2.9.6-.2q0-.4.4-.7.7-.4 1 .3t-.3 1l-.5.3-.5.7q-.6.5-1-.2t.3-1.2m2.4.6q-.6-.7.4-1.2t1.4.2q.6.7-.2 1.2t-1.6-.2m1 2q-.3-.5.1-.7t.8.2-.1.8-.7-.2m.6 1.4q.6-.4.9.2t-.3 1l-.1.1q.4.8-.3 1.3-.8.5-1.2-.3t.1-1.4q-.4 0-.7-.3-.5-.5.3-1l1.1.2zm-1.2-1.7q-.6.5-1.1-.3t.1-1.2q.8-.2 1.2.3.4.7-.2 1.2m30.5-13q-.4-.6.4-1.3.8-.6 1 .2.3.8-.3 1.3t-1.1-.2m-2.3.2q-.3-.7.3-1.2.6-.3 1 .4t-.3 1-1-.2m7.8-6q-.4-.3 0-.6t.8.3q.4.4 0 .5-.6.2-.9-.2m-2.5-.2q-.7-.5.2-1.1.8-.5 1 .2.3.7-.2 1.1t-1-.2m67.5 15q-.5-.7.2-.8.5-.2 1 .3t-.2.8q-.6.5-1-.2m.9 1.9q.3.7-.4 1.1-.5.3-.9-.4-.3-.7.3-1t1 .3m-1.2 3.8-.2.2.4.3q.5.7-.3 1-.8.5-1.2-.1t.3-1.1l.3-.2-.2-.2q-.4-.7.3-1.2t.9.3q.3.5-.3 1m-1.3 2.8q.4.5-.2 1t-1.2-.4.3-.9q.6-.1 1 .3m6.8-2q-.6-1 .1-1.6.7-.5 1.6.4.8.9-.2 1.5l-.2.1q.4 0 .8.5.5.8-.2 1.2t-1.3-.3.1-1.2l.3-.1q-.6.1-1-.6m2.4 4.1q-.5.3-1-.3t0-1q.7-.3 1 .3t0 1m-.3 1.9q-.3-.4.1-.7t.8.2-.1.7q-.7.3-.8-.2m1.3 1.6q.7.7 0 1.1l-.3.2.6.5q.5.9-.2 1.3-.7.3-1.4-.4-.8-.6.1-1.2l.5-.2-.5-.4q-.5-.7 0-1.2t1.2.3m-2.2 6.3q.4-.3 1 .3t-.3.8q-.7.3-1-.2-.2-.5.3-.8m.5-2.3q.5-.3.9.3.3.5 0 .8-.4.4-1-.2-.4-.7.1-.9m-11.6-5.2q-.7.7-1.1-.2t.4-1.3q.8-.6 1.2.2t-.5 1.3m.8-3.4q.6-.3.9.3t-.3 1q-.5.4-.8-.3t.2-1m-75.3 40.3q.7-.2 1.2.4.5.5-.2 1t-1.2-.3.2-1m-2.2 4.3q-.4-.4.1-.7t.8.1-.2.7-.7-.1m-.6 2.2q-.6.2-.9-.2-.2-.5.3-.8.3-.2.6 0l.3-.2q.8-.2 1.3.3.5.7-.2 1.2-.8.5-1.4-.3m2.5-1.6q.8-.6 1.1.1t-.4 1.1l-1-.1q-.5-.5.3-1.1m-.6-3.1q1.1-.8 1.5.2.5 1-.4 1.5t-1.6-.1q-.5-.7.5-1.6m7.5-3q.3.6-.3 1l-.9-.2-.1-.2q-.9.7-1.5-.1t.5-1.4q.8-.5 1.3.2l.2.5q.5-.3.8.2m-.5 3.3q-.5.3-1-.2-.3-.6.2-.8t1 .3q.3.4-.2.7m-4-2.2q-.3-.6.4-1.1.6-.4 1 .3t-.2 1-1.2-.2m2.2 3q.5.7-.5 1.4l-.8.2-.2.3q-.7.5-1.2-.2t.4-1l.3-.2q0-.4.5-.7 1-.6 1.5.2m1.8 1.2q-.8.3-1.2-.2t.4-1.1q.6-.4 1 .3t-.2 1"/><path fill="#8dc3ce" d="m84.6 5.3.8.2v.1q.5.5 0 .7-.5.3-.9-.2l-.1-.4z"/><path fill="#c1d9db" d="M80.3 39q-.4-.6 0-1 .6-.4 1.2.2t-.1 1.1-1.1-.2m1.5 1.3q.4.6-.2 1-.7.3-1.3-.3-.5-.6.3-1 .7-.3 1.2.3m1-1.4q-.2-.4.3-.7.4-.4.5.1t-.2.8-.5-.2m2-1.6q.8-.6 1.3.4.5 1.2-.5 1.7t-1.3-.5q-.5-1 .5-1.6m2.9 2.4q.2.8-.2 1.2t-.8-.2.2-1.2.8.2m3.2 6.5q-.5.3-.9-.2t0-1q.5-.3 1 .2t-.1 1m-1.5-2.8q.4.5-.2.8-.5.2-1-.3t.2-.7 1 .2m-1.2-.8q-.6.3-.8-.2-.3-.7.2-1t.8.3q.4.6-.2.9m2 6.1q.5.7-.1 1.2-.6.3-1.1-.3-.4-.7 0-1 .6-.5 1.2.1m-2.1.8q-.4.3-.7-.3t.2-1 .7.2-.2 1M86.5 48q.4.8-.3 1.2t-1.1-.4q-.3-.7.4-1.2t1 .4m5 0q-.4-.7.4-1.3.6-.6.9.3.2.9-.3 1.3t-1-.2m.5 1.4.4-.6q.6-.4 1 .3.3.8-.4 1.1l-.2.2-.4.3q-.6.3-1.2-.3t.3-.9zM80.3 46q-.5-.9.4-1.7t1.2.4q.3 1.1-.4 1.8-.6.5-1.2-.5m1.3-3.5q.4.8-.3 1.3-.7.3-1-.3-.3-.8.3-1.2.7-.5 1 .3m1.1 5.4q-.7-.7.2-1.1t1.4.3-.2 1.1-1.4-.3m-1.9-.1q-.5-.6 0-1t1 .2 0 1-1-.2M6.6 114.3q.3.7-.3 1.1t-1.1-.3.3-1.1 1 .3m1.4-1.8.1.2.3.3q.3.5-.3.8t-.8 0l-.4-.4q-.3-.7.2-1 .5-.5.9.1M8 116q-.3-.6.3-.8t.8.3q.3.6-.3.9-.5.2-.8-.4m1.2 1.3q.3.7-.3 1.2t-1.2-.4q-.4-.7.3-1.1.8-.4 1.2.3m-4.4-.5q-.7.3-1-.5-.5-.7.3-1t1.1.4-.4 1.1m0 3.5q-.3-1 .6-1.4 1-.5 1.5.3t-.6 1.5-1.5-.4m3.7-.8q.4-.4.8.1.3.5-.2 1t-.8-.2.2-1m-4.1 1.8q-.6.3-.9-.4t.3-.9 1 .3q.1.7-.4 1m-.8-4q.5.8-.6 1.5l-.7.3q.1.4-.3.8l.4.4q.4.6-.3 1.1t-1-.3.2-1l-.2-.3q-.2-.7.2-1l.3-.2v-.2q-.5-1 .5-1.5t1.5.4"/></g><g id="n"><path fill="url(#b)" d="m80 59.2 2.3 1.2 11.4 3.9q9.3 7.4 6.1 17L81.3 93.9 61 100.6l-22.5 5.6h-7.4l-20.7-4.9 2.9-7.2.7-1.7q10.9 1.7 21.8 1.4 15.7-.5 31.4-5.1 8.3-4.5 13.1-11.9 2-3 3.5-6.5-.5-5.5-3.7-11.1M7.8 44.6l.2.6.7 4.1q-20.5 21 0 40.9l-.4.5v.1l-5.5 7.4L-.3 96l-16.4-5.2-5.2-13.6 3.1-5.5 16.6-19.2L7.1 45l.8-.5v-.1z" transform="translate(21.9 -37.95)"/><path fill="url(#c)" d="m13.3 94.1 3-7.5.7-1 .4 1L34 82h9.5v6l9.9-7.9v-8.6L67 54.7l8.6-3.6 2 .8 1.7 3.9H74l6 3.4q3.3 5.5 3.7 11.1-1.5 3.5-3.5 6.5-4.8 7.5-13.1 11.9-15.7 4.6-31.4 5.1-10.9.3-21.8-1.4zm9.5-17v-5.7l-3.7-28v.4q4.5-2 10.3-2.2l.7-.9Q27.2 44.6 23 48q-.5 4 6.2 4.5Q42.9 50 52 46.2L41.3 70.8zM8.1 45.3l-.2-.7v.1zm-.2-.9L7 45zm.9 45.9q-20.5-19.9 0-40.8l6 32.8z" transform="translate(21.9 -37.95)"/><path fill="#866853" d="m38.9 47.6 5.8-8.5L63.1 33 74 8.3q-9.1 3.7-22.8 6.2l9.2-4.4 6-5h2.8l2.4-1.6 26.1 9.6-8.7 3.6-13.7 16.8v8.6l-9.8 8V44h-9.6l-16.5 4.6z"/><path fill="#e3d0ac" d="m41 5.5-.5-3.7L53.7 0l-.1.1L52 2.8l-.7.8q-5.7.2-10.3 2.2z"/><path fill="none" stroke="#000" stroke-linecap="round" stroke-linejoin="round" stroke-opacity=".3" stroke-width="__RESOLUTION__" d="m102 21.2 2.2 1.2 11.4 3.9q9.3 7.4 6.1 17.1l-18.5 12.5-20.4 6.7-22.4 5.6H53l-20.7-4.9 2.9-7.2 3-7.5.7-1 5.8-8.5v-5.7L41 5.5l-.5-3.7L53.7 0l-.1.1L52 2.8q-3 3.8-7.1 7.2-.5 4 6.2 4.5l9.2-4.4 6-5h2.8l2.4-1.6 26.1 9.6 2 .8 1.7 4H96zM35.8 54.5l-.7 1.6M29.8 6.7l.1.6zm-.1-.2v-.3.1l-.8.5-9.3 7.7L3.2 33.8 0 39.3l5.2 13.6L21.6 58l3.2 2.2 5.4-7.4.1-.1.4-.5 6-8-6-32.8-.7-4.1m-.2-1L29 7m12-1.1v-.3m11-2.7-.7.8m-12.4 44 .4 1" vector-effect="non-scaling-stroke"/><path fill="#eaf2f3" d="M58.3 56q-.2-.4.2-.9l.8.1q.3.5-.2.8zm2.5-.4q-.3-.7.3-1t.9.4-.3 1q-.7.4-1-.4M72 53.7q.6-.4 1 .1.3.6-.2 1l-1-.1q-.4-.5.2-1m-1.9-.4q.7-.3 1.1.5t-.3 1.2q-.8.3-1-.5-.4-.7.3-1.2M69 54.6q.5.7-.2 1.2h-1.2q-.4-.7.3-1.3zm-4.9 0q.5.8-.2 1.3-.8.5-1.4-.1t.4-1.2 1.3 0m2.5 0q.3.7-.3 1t-1.1-.4q-.5-.5.2-.9.8-.3 1.1.3m12-2.2q-.2-.7.3-1.1t1 .4-.3 1.1-1-.4m2.3-.5q-.3-.3.2-.7l.8.1q.3.4-.2.7zm-6.6 1.7q-.5-.5.2-.9.7-.3 1 .3t-.2 1-1-.4m2.1 0q-.4-.6.3-1.2h1.1q.5.8-.3 1.3zM101.9 39q-.2-.5.2-.7t.7.3-.2.7-.7-.2m-2 2.4q.4.7-.3 1t-1.1-.3q-.4-.7.3-1 .8-.4 1.1.3m.3-1.7h1.1q.4.7-.2 1.2H100q-.3-.6.3-1.2m-2.9 4-.9-.2q-.4-.4.2-.8h.9q.3.5-.2 1m-2 1q-.6.3-.7-.2-.3-.6.1-.9.5-.2.8.3t-.2.8m-1.7.4q.3.5-.1.8t-.7 0q-.3-.4.1-.8t.7 0m-1.8 2q-.6.3-1-.4-.4-.5.3-.8t1 .3-.3.8M90 48.2h-.8q-.3-.5.2-.8t.8.1-.2.7m-1.8.3q.4.7-.4 1-.7.4-1-.4-.2-.7.4-1.1.5-.4 1 .5m-2.7 1.8q-.3.3-.6 0-.2-.4.2-.7.3-.5.6 0t-.2.6m-1.5.6q-.5.3-.8-.2t.2-.7.8.2-.2.7"/></g><g id="i"><path fill="#b89561" d="M81.2 21.8v13q0 6.8-7.3 11.9l-2 1.3V33.9l2-1.3 1-.7 2.9-2.7 1.2-1.5 1.6-3.1.3-1zm-29 32.8-6.7.7-4 .2h-3V41.3h3l4-.1 6.6-.7h.1zm27.4-19.2-1 .8-6.7 5.4 6.6-5.4zm.5-1.6v-6.2zm-4.9 4.3v-5.7zm3.6 1.8-.2-3.7zM49 47.8l-9.4.3z"/><path fill="#aa844d" d="m71.9 48-2.6 1.5-5 2.1-2.2.8h-.2v-14l.2-.1 2.2-.7 1.5-.7 3.5-1.5 1.4-.8h1.2zm-.6-5.6-9.4 3z"/><path fill="#b38c55" d="M61.9 52.5q-4.1 1.3-8.6 2V40.4q4.5-.7 8.6-2v14M60.6 46l-6.4 1.5z"/><path fill="#beaa7c" d="m53.3 54.5-1.1.1v-14h-.1l-6.6.6-4 .1v-3h6.1l5.6-1.1v17.3"/><path fill="#c8ac84" d="m38.5 55.5-2.4-.1q-7.5-.4-13.9-2.1l-3.7-1.1-2.6-1v-14l2.5.9 3.8 1.1q5 1.3 10.5 1.8l5.8.3zm-2.2-.7V48h-.1l-10.6-1.7v6.3-6.4L36.2 48zm-3.6-8 .1-5.8zm-16.8-2.6 9 2.1z"/><path fill="#d0b895" d="m15.9 51.3-4-1.8Q8.5 47.7 6 45.7q-2.9-2.4-4.4-5Q0 37.9 0 34.8v-.2l2.3-.5-.1-.4-.6-.4-1-.4-.5-.2v-11q.2 3.2 2.2 6 1.2 1.8 3.1 3.4l.5.5q2.5 2 6 3.8l.8.4 3.2 1.4v7l-.4-.2-6.7-3.5L7 39l-.2 5.7.3-5.7 1.7 1.4 6.7 3.5.4.1zm-11-15.5v-4zm-3.7-4.2v-3.2zm11.3 10.1v-5.4zm-8.6-5.1L7 39.1zM2 40.5v-4.6z"/><path fill="#c5b789" d="M0 21.7v-2z"/><path fill="#d2c5a6" d="m0 19.7.1-.5.2-1 5.4 9.4 7.1 4.5 3.7 2.4 12.6 3.9h12.4v3h-.9l-2.1-.1-5.8-.3q-5.6-.5-10.5-1.8l-3.7-1.1-2.6-1-3.2-1.4-.7-.4q-3.6-1.7-6-3.7l-.6-.5q-1.9-1.7-3.2-3.4-1.9-2.8-2.2-6zm74 12.9-2 1.3V30l2-1.1zm-63.7 1.1 2.6-1.6zm43 3.5 8.9-1.8v2.9H62q-4.1 1.4-8.6 2.1z"/><path fill="#d8c4a7" d="M.3 18.2Q1.6 12 9.5 7.4l3.6 1.8L11.9 6q4.7-2.4 10.3-3.8Q29.1.3 37.3 0h3.3l9.1.5 5.1.7 3 .7q4.9 1.1 9.2 3L69.3 6l1.9 1 2.7 1.7q3.4 2.5 5.3 5.3l-2.2.4 3.1 1.2.7 1.8H68.3L61.6 19l-5.3-2.1-8 2.3H36.9L32.6 22l-8.5 5.6 8.5 6.8 10.1-3.7-1.5-7-2.2-.5 9.9 1.9 3.5 2.3h11l7.6 2.9q-3.6 1.5-8.9 2.7v2.4l-8.9 1.8-5.6 1.1H29.2l-12.6-3.7-3.7-2.5-7.1-4.5zm6.6 3.4-.2 3.3 6.7 1.2-1-4.9z"/><path fill="#a78450" d="m80.8 17.4.4 2.7-2.9 3.7q-.6 2.4-3.3 4.4l-.5.3-.6.4-2 1.1-.9.3-7.6-3h-11l-3.5-2.2-9.9-1.9-6.4-1.2 4.1-2.9h11.6l8-2.2 5.3 2 6.7-1.5z"/><path fill="#b8a372" d="M81.2 20v1.8l-.3 1.8-.3 1-1.6 3.1-1.2 1.5-2.8 2.7-1.1.7v-3.7l.6-.4.5-.3q2.7-2 3.3-4.4z"/><path fill="#c0ad81" d="M71.9 33.9v.7h-1.2l-1.4.8-3.5 1.5-1.5.6-2.2.8V33q5.3-1.2 9-2.7l.8-.4zM39 23.2l2.2.4 1.5 7-10.1 3.8-8.5-6.8 8.5-5.7zM7 21.6l5.5-.4 1 4.9-6.7-1.2z"/><path fill="none" stroke="#a78450" stroke-linecap="round" stroke-linejoin="round" stroke-width="__RESOLUTION__" d="M81.2 21.8v13q0 6.8-7.3 11.9l-2 1.3h0l-2.6 1.5-5 2.1-2.2.8h-.2q-4.1 1.4-8.6 2.1l-1.1.1-6.7.7-4 .2h-3l-2.4-.1q-7.5-.4-13.9-2.1l-3.7-1.1-2.6-1-4-1.7Q8.5 47.7 6 45.7h0q-2.9-2.4-4.4-5h0Q0 37.9 0 34.8v-.2l2.3-.5-.1-.4-.6-.4-1-.4-.5-.2v-11l-.1-1v-1l.1-.5.2-1Q1.6 12 9.5 7.4l3.6 1.8L11.9 6v0q4.7-2.4 10.3-3.8Q29.1.3 37.3 0h3.3l9.1.5 5.1.7 3 .7q4.9 1.1 9.2 3L69.3 6l1.9 1 2.7 1.7q3.4 2.5 5.3 5.3l-2.2.4 3.1 1.2.7 1.8.4 2.7zm-9.3 19.9 6.6-5.4 1.1-.8m-66.8-3.4-2.6 1.6m44 13.8 6.4-1.5m19.5-18.3v6.2M61.9 45.4l9.4-3m3.9-9.9v5.7m3.3-1.9.3 3.8M.1 19.7v2m4.9 10v4m-3.8-7.5v3.4M15.9 44l-.4-.1-6.7-3.5L7 39l-.2 5.7m5.6-8.4v5.3M7 39.1l-3-2.5m-2-.7v4.6m23.5 12.1v-6.4L36.2 48h0v6.8M32.8 41v5.8m-7.9-.4L16 44.2M39.6 48l9.4-.3" vector-effect="non-scaling-stroke"/></g><g id="h"><path fill="#7c8922" d="M0 5.4h7.6l7.6 20.2V0h7.7v23.4l7-15.2v16.3l-11.4 6L6 21.8z"/><path fill="none" stroke="#6e6a3b" stroke-linecap="round" stroke-linejoin="round" stroke-width="__RESOLUTION__" d="M0 5.4h7.6l7.6 20.2V0h7.7v23.4l7-15.2v16.3M6 21.8 0 5.4" vector-effect="non-scaling-stroke"/></g><g id="g"><path fill="#a6b44c" d="M0 5.4h7.6l7.6 20.2V0h7.7v23.4l7-15.2v16.3l-11.4 6L6 21.8z"/><path fill="none" stroke="#999565" stroke-linecap="round" stroke-linejoin="round" stroke-width="__RESOLUTION__" d="M0 5.4h7.6l7.6 20.2V0h7.7v23.4l7-15.2v16.3M6 21.8 0 5.4" vector-effect="non-scaling-stroke"/></g><g id="f"><path fill="#68522f" d="m68.8 26.3-3.2 3-4.5-1.6-2.6 1.4-2.5 5.3 3.3 2.8 3.1-4.6 6.4 3.4v2.3l-3.3 6.3-3 2.7-.7 4.5-.5.3-.8.3-.5.3h-.1v.1l-.4.1-4.2-8.2-2.1 2.2.8 1.7-3.2 4-2.4-1.5-8.8 6.5 1.1 4.8-1 .4-3.3 1.7-2 1-.5-.3v-20l.5.3V34.4l34.4-17.2v5l-1 2 1 .5zM47.5 42.9v-3l-2.6.9-.6 2z"/><path fill="#bfac99" d="m68.8 36-6.4-3.4-3.1 4.5-3.2-2.7 2.4-5.2 2.6-1.5 4.4 1.6 3.3-3zM40.7 62.4l-1.1-4.7 8.8-6.6 2.4 1.5 3.3-4-.9-1.7 2.1-2.2 4.2 8.2-.2.2-1.3.6-.8.4-2.3 1.1-.7.4-.9.4-4.4 2.2-4 2-3.2 1.6zm21.1-10.6.8-4.5 2.9-2.7 3.3-6.2v4.5l-1 1.6h.1l.4.1.2.2.1 1.3q0 .3.2.5v1.7l-1.5.8-1.8.8z"/><path fill="#7d633e" d="M68.8 17.2 34.5 34.4v11.1l-.6-.2-26.4-9.5L0 26v-8.9L34.4 0z"/><path fill="#c2a882" d="M34 45.3v19.9l-5-2.4.7-.6-.2-3-6.7-7.2-4.3 1.8-1-.1-1.6-2.1v-4.2 4.2q-2.6-3.5-4.8-7.7-2-3.8-3.7-8.1zm-3 7.9-3 .6 1 2.6 2.8.3zm-2.7-1.6-17-7.7z"/><path fill="#d0b895" d="M0 35v-3.6l1.1.2q-.1-1-1-1.9H0V26l7.5 9.6q1.7 4.4 3.7 8.1 2.2 4.3 4.8 7.8l1.7 2-4.8-.8-.2 1.8-2.3-1.2-1.3-.6 1-1.2-.4-2.5-3.2.3L4 44.8l-4 .3v-1.9l2.3-3.1v-.6l-.5-3.4zm16 17.7v-1.1zm-9-6.3v-4.2l4.2 1.8-4.1-2zm0-4.2v-6zm2 4.2-.5-1.5-1.5.5.6 1.3zM2.1 44l3 1zm0-4.4 2.8.8z"/><path fill="#e4dcd4" d="m17.7 53.7.9.1 4.3-1.8 6.7 7.1.2 3.1-.7.6-.6-.4-.7-.3-3-1.5-1.9-.9-3.1-1.6h-.2zm13.3-.4.8 3.4-2.7-.2h-.2l-.9-2.6z"/><path fill="#f6fefe" d="m12.7 54.6.2-1.8 4.8.9 1.9 4.4-2.7-1.5-3.7-1.7zM2.3 39.5v.6L.1 43.2V35l1.7 1zl-1-.2zM0 45.1l4-.3 2.5 4.6 3.2-.3.5 2.5L9 52.8l-2.4-1.2-3-1.5L0 48.3zm9 1.2-1.4.3-.6-1.4 1.5-.4z"/><path fill="#282413" d="m47.5 42.9-3.2-.1.6-2 2.6-.9z"/><path fill="none" stroke="#615530" stroke-linecap="round" stroke-linejoin="round" stroke-opacity=".8" stroke-width="__RESOLUTION__" d="M68.8 26.3v-1.6l-1-.4 1-2.2v-4.9L34.4 0 0 17.2v12.4l.1.1q.9.9 1 1.9L0 31.4V35m34 30.2.4.2h0l2-.9m3.4-1.7.9-.4 1-.5m17.8-9 .3-.1h.1l.1-.1.5-.3m.8-.3.5-.3 3.7-1.9m3.3-11.6v-12M29.1 62.8l4.8 2.4M13.2 54.8l3.7 1.9M0 43.2v5.1l3.6 1.8M9 52.8l1.3.6M9 52.8l-2.4-1.2M29 62.8l-.6-.4m-.7-.3-3-1.5m-1.9-.9-3.1-1.6m49-19.7v4.5l-1 1.6h.1l.4.1.2.2.1 1.3q0 .3.2.5v1.7l-1.5.8m-10.1 5-2.3 1.1m-.7.4-.9.4M49 58.2l-4 2M59.5 53l-.2.2-1.3.6" vector-effect="non-scaling-stroke"/><path fill="none" stroke="#857143" stroke-linecap="round" stroke-linejoin="round" stroke-width="__RESOLUTION__" d="M16 51.6v1m0-5.2v4.2m-4.8-7.7L7.1 42v4.2m0-10.1V42m-4.9-2.6-1-.2m4 5.6-3-1M5 40.3l-2.8-.8m9 4.4 17 7.7" vector-effect="non-scaling-stroke"/></g><g id="v"><path fill="#fff" fill-opacity=".2" d="m0 8.7 1.1-2.3q-.8-1.2-.8-3 0-2 8.3-2.7l8.2-.3q2.7.4 4.7 2.3T27.3 5q2 .3 5.6-.1 2.3.3 4 4.1 1.6 3.2 1.6 5.6 0 .8-5.2 2.5t-6.5 1.5q-1.5-.2-2.3-1.2-.9-1.1-2.4-1.2-1.1-.2-2.6.5-1.4.7-3.4.4-1.2-.2-3.7-1.8-2.4-1.8-3.6-2t-1.6.6q-.2.8-.4.8-2.4-.4-4.6-2.6Q0 10.2 0 8.7"/><path fill="url(#d)" d="M29.5-30q0 .8-4.9 2.4-4.6 1.6-5.9 1.4-1.2-.2-2-1.1t-2.2-1.1q-1-.2-2.3.5t-3.1.3q-1.1-.1-3.3-1.6-2.2-1.7-3.4-1.9t-1.4.6l-.4.7q-2.1-.3-4.1-2.3t-2-3.4l1-2.2q-.7-1.1-.7-2.8 0-2 7.4-2.6l7.5-.4q2.5.4 4.3 2.1t5.2 2.3q2 .3 5.2-.1 2 .3 3.7 3.9 1.3 3 1.3 5.2" transform="translate(7.3 43.95)"/><path fill="none" stroke="#7595b5" stroke-linecap="round" stroke-linejoin="round" stroke-width="__RESOLUTION__" d="M33 5.4 31 5l-1.9-.2-2-.2-1.7-.6-1.9-.6q-1.1-.2-1.9-1l-1.5-.8m6.1 16 2-.1q.9 0 2.2-.5l2-1 1.9-.6q1-.4 1.4-1 .5-.5.6-1.5t-.3-2l-.6-1.8-.7-1.8-1.3-1.7m.6 7.8-1.4.5-1.7 1.1q-.7.7-1.8.5l-2-.5-1.7-.4-2.3-.4m-3.4-13L17.9.8 16 .3 13.9.2l-2 .3-1.7.3-2 .1-2 .4m5.7 11.5-2-.1-1.3-.4-2.1.1m4.7 1q.8.6 1.8 1l1.6.9q.7.5 1.7.8L18 16l1.9-.4 1.9.3 1.8.6 2 1.2M4.6 3.8l-1.1 1-.7 1.5Q2 7.2 2 8t.5 1.9l1.3 1.6q.6.8 1.6 1.3t1.6.6l1.8-.2 1.8-.1m12 1-1.5.4-.7.1M5.7 1.4q-1.2.3-2 .9l-1.2 1-.2.7.5 2.3" vector-effect="non-scaling-stroke"/></g><g id="u" transform="translate(23.05 114.8)"><use xlink:href="#f" width="68.8" height="65.5" transform="translate(-12.3 71.45)scale(1.55)"/><use xlink:href="#g" width="29.9" height="30.4" transform="rotate(14 -618.132 151.754)scale(.29)"/><use xlink:href="#g" width="29.9" height="30.4" transform="matrix(.34 0 0 .34 -17.7 139.3)"/><use xlink:href="#g" width="29.9" height="30.4" transform="matrix(.17 0 0 .17 4.8 153.65)"/><use xlink:href="#h" width="29.9" height="30.4" transform="matrix(-.28 .07 .07 .28 51.85 161.55)"/><use xlink:href="#h" width="29.9" height="30.4" transform="matrix(-.34 0 0 .34 98.4 139.9)"/><use xlink:href="#h" width="29.9" height="30.4" transform="matrix(-.17 0 0 .17 62.2 160.45)"/><use xlink:href="#i" width="81.2" height="55.5" transform="translate(-23.05 43)scale(1.55)"/><use xlink:href="#j" width="70.7" height="70.7" transform="matrix(.96 -.18 .33 .27 8.6 73.8)"/><use xlink:href="#j" width="70.7" height="70.7" transform="matrix(.96 -.18 .33 .27 21.25 79.35)"/><use xlink:href="#m" width="81.2" height="33.8" transform="translate(-22.95 76.95)scale(1.55)"/><use xlink:href="#n" width="122.5" height="68.3" transform="translate(-21.9 37.95)"/><use xlink:href="#o" width="41.5" height="136.2" transform="matrix(-.11 0 0 .14 109.3 14.3)"/><use xlink:href="#o" width="41.5" height="136.2" transform="matrix(-.11 0 0 .14 19.45 -10.8)"/><use xlink:href="#o" width="41.5" height="136.2" transform="matrix(-.08 0 0 .11 24.5 -16.05)"/><use xlink:href="#o" width="41.5" height="136.2" transform="matrix(-.14 0 0 .14 22.2 -52.1)"/><use xlink:href="#o" width="41.5" height="136.2" transform="matrix(-.1 .01 .01 .1 33.95 -67.75)"/><use xlink:href="#p" width="133" height="221" transform="translate(-14.45 -114.8)"/></g><radialGradient id="a" cx="0" cy="0" r="819.2" gradientTransform="matrix(.15 0 0 .15 23.7 10.1)" gradientUnits="userSpaceOnUse" spreadMethod="pad"><stop offset=".1" stop-color="#979abc" stop-opacity=".5"/><stop offset=".8" stop-color="#7786ad" stop-opacity=".6"/></radialGradient><radialGradient id="r" cx="0" cy="0" r="819.2" gradientTransform="translate(35.35)scale(.04)" gradientUnits="userSpaceOnUse" spreadMethod="pad"><stop offset="0" stop-color="#5e4725" stop-opacity=".5"/><stop offset="1" stop-color="#5e4725" stop-opacity="0"/></radialGradient><radialGradient id="d" cx="0" cy="0" r="819.2" gradientTransform="matrix(.04 .01 0 .04 .1 -40.6)" gradientUnits="userSpaceOnUse" spreadMethod="pad"><stop offset=".3" stop-color="#cee3ec"/><stop offset="1" stop-color="#83a2c0"/></radialGradient><linearGradient id="c" x1="-819.2" x2="819.2" gradientTransform="matrix(.11 .06 -.5 .87 160.2 -166.65)" gradientUnits="userSpaceOnUse" spreadMethod="pad"><stop offset="0" stop-color="#d7c295" stop-opacity="1"/><stop offset="1" stop-color="#7a6047" stop-opacity="1"/><stop offset="1" stop-color="#62522f" stop-opacity="1"/></linearGradient><linearGradient id="b" x1="-819.2" x2="819.2" gradientTransform="matrix(.09 -.02 .26 .97 -25.65 -191.75)" gradientUnits="userSpaceOnUse" spreadMethod="pad"><stop offset=".1" stop-color="#e8d7bb" stop-opacity="1"/><stop offset=".6" stop-color="#7a6047" stop-opacity="1"/><stop offset=".7" stop-color="#8a7544" stop-opacity="1"/><stop offset=".9" stop-color="#d2c5b7" stop-opacity="1"/></linearGradient><linearGradient id="q" x1="-819.2" x2="819.2" gradientTransform="matrix(.03 0 0 .02 41.6 38.85)" gradientUnits="userSpaceOnUse" spreadMethod="pad"><stop offset="0" stop-color="#d8c4a7" stop-opacity="0"/><stop offset="1" stop-color="#524025" stop-opacity=".7"/></linearGradient><path id="m" fill="url(#q)" d="M81.3 35.1q0 6.8-7.3 11.9l-2 1.3-2.7 1.5-4.9 2.1-2.3.8H62Q57.8 54 52.3 55l-6.7.6-4.1.1h-5.3q-7.5-.5-14-2.1l-3.7-1.1-2.6-1-3.9-1.7Q8.5 48 6 46q-2.8-2.4-4.3-5Q0 38.2 0 35.1v-.2l2.2-.5V34l-.6-.4-1-.4L0 33V22q.2 3.1 2.2 6 1.3 1.8 3.2 3.4l.5.5q2.5 2 6 3.8l.8.3 3.1 1.5 2.6.9 3.8 1.1q4.9 1.3 10.5 1.8l5.7.3h3l4.1-.1 6.5-.6h.1q5.6-1 9.7-2.2l.3-.1 2.2-.7 1.5-.7 3.4-1.6 1.5-.7H72v-.7l2-1.3 1-.7 2.8-2.7 1.3-1.5 1.6-3.1.3-1 .3-1.8z" transform="translate(-.05 -21.95)"/><path id="j" fill="url(#r)" d="M35.4-35.3q14.6 0 25 10.3T70.7 0 60.3 25t-25 10.4-25-10.4T0 0t10.4-25 25-10.4" transform="translate(0 35.35)"/><clipPath id="t"><path d="M1 1h92v186H1z"/></clipPath><use xlink:href="#s" id="o" width="41.5" height="136.2"/></defs><g clip-path="url(#t)"><g transform="translate(39.85 153.35)"><use xlink:href="#u" width="141.6" height="287.4" filter="url(#filter-object-0)" transform="translate(-38.85 -152.35)scale(.6451)"/><use xlink:href="#v" width="38.5" height="18.6" transform="translate(-7.3 -43.95)"/></g></g></svg>