<svg xmlns="http://www.w3.org/2000/svg" xmlns:xlink="http://www.w3.org/1999/xlink" width="103" height="36" viewBox="0 0 103 36"><defs><path id="n" fill="#ffdebb" fill-opacity=".3" d="m2.8-2.4.3.3h.4l4.3-1.6v6.6l-11 4-8.9-2.7-1.5-7.9 6.7.6h.3l.3-.3 4.5-7.3-.5-1h-.1l-.1-.2.1-.3.4-.3.5.1.1.2-5-9.1q3-.9 6.4-.9 9.2 0 15.7 6.5 2.8 2.8 4.4 6L3-3.2l-.4.3q-.1.2 0 .4M13-5.6l2.3 9.2v.3l.3.1 6.1 1.3q-1 4.4-3.9 8.1H8.9V-4.1zm7.6-2.9q1.6 4 1.6 8.6L22 3.9l-5.7-1.1L14-6.1zM4.8 10.3-2 22.2q-5.8-.6-10.5-3.8l2-4.4.1-.4-1.5-8 6.8 2-.2.1-.3.3v.4l.3.3.5.1 1.7-.7h.1L.8 6.9zM0 22.3h-.7L5.7 11l2 1.8v8Q4.3 22.3 0 22.3m8.9-7.8h7.9l-1.1 1.2q-3 3.1-6.8 4.8zM-2.5-11.9l-4.6 7.6-7-.7.3.3.1.4-.2.4-.4.1h-.4l3.1 17.5-1.8 4-2.3-2Q-22.2 9.2-22.2 0q0-2.6.6-5 1.3-6 5.9-10.7 3.6-3.7 8.2-5.2z" transform="translate(22.2 22.2)"/><path id="l" fill="url(#a)" d="M40.9 39.8q-7.6 9.9-17.7 13T6.3 50.6q-6.8-5.4-6.2-16t8.1-20.4Q16 4.4 26 1.2t16.8 2.1 6.2 16-8.2 20.5"/><path id="j" fill="#fff" fill-opacity=".6" d="M5.7 5.6q-1 1.3-2.5 1.7-1.5.5-2.3-.2-1-.7-.9-2.3T1.1 2 3.5.2Q5-.2 6 .5q.8.7.8 2.2-.1 1.5-1.1 2.8"/><path id="h" fill="url(#b)" d="M130.9 96q10.9 10.8 10.9 26.2t-10.9 26.2q-10.9 10.9-26.2 10.9-15.4 0-26.2-10.9-10.9-10.8-10.9-26.2T78.5 96t26.2-11q15.3 0 26.2 10.9" transform="translate(-67.6 -85.1)"/><g id="d"><path fill="#2c2721" fill-opacity=".6" d="M114.2 20.2q-.8.2-1.3-.2t-.5-1.2.6-1.6 1.4-1l1.3.2q.5.4.5 1.2-.1.9-.7 1.6t-1.3 1M91 6.2q-.6.8-1.3 1-.9.2-1.4-.2t-.5-1.2.7-1.6l1.3-1 1.4.2q.5.4.4 1.2 0 .9-.6 1.6M78.8.5 80 8.8l-4.5 5.8-5.1-.5-.3-8.7L74.3 0zm24.9 9.8q-.7.8-1.4 1-.8.2-1.3-.2t-.5-1.2.6-1.6l1.4-1q.8-.2 1.3.2t.5 1.2-.6 1.6M136.3 40l-4.5 5.7-6.4 2.9-2.8-4.1 2.6-4.5 8-4zm-11.9-13.5 1.4-1 1.4.2q.5.4.4 1.2 0 .9-.6 1.6t-1.3 1q-.9.2-1.4-.2t-.5-1.2.7-1.6m13.3 25.3q.5-.8 1.3-1l1.3.2q.5.4.5 1.2t-.6 1.6-1.4 1q-.7.2-1.2-.2t-.5-1.2q0-.9.6-1.6m3.4 13.9 1.4.2q.5.4.4 1.2 0 .9-.6 1.6t-1.3 1l-1.3-.2q-.6-.4-.6-1.2.1-.8.7-1.6zm-.3 16.7q0 .8-.6 1.5l-1.4 1q-.7.3-1.2-.2-.6-.3-.5-1.1t.6-1.6 1.3-1 1.3.2.5 1.2m-10.8 19.9q0-.8.6-1.6.6-.7 1.4-1 .7-.2 1.3.2.4.4.4 1.2 0 .9-.6 1.6l-1.3 1q-.8.2-1.3-.2t-.5-1.2m-5 17.3-2 .7q-3.2-7.5-2.7-11l2.8-1.8 6.3 6.3zM103 133q0 .8-.6 1.6l-1.3 1q-.8.2-1.3-.2t-.5-1.2.5-1.6 1.5-1q.7-.2 1.3.2.5.4.4 1.2m8.4-6.8q.1-.8.7-1.6.5-.7 1.3-1 .8-.2 1.4.2t.4 1.2q0 .9-.6 1.6l-1.3 1-1.4-.2q-.5-.4-.5-1.2m-33.8 3.9 1.2 8.3-4.5 5.8-5-.6-.4-8.6 4.2-5.4zm7.8 9.5q.1-.9.7-1.6t1.3-1 1.4.2q.5.3.4 1.1t-.6 1.7l-1.3 1-1.4-.2q-.5-.5-.5-1.2M48.6 7.3q0-.8.5-1.6l1.5-1 1.3.2q.5.4.4 1.2 0 .9-.6 1.6t-1.4 1q-.7.2-1.2-.2t-.5-1.2m-9.8 4.4q.5.4.4 1.2t-.6 1.6-1.3 1l-1.3-.2q-.5-.4-.5-1.2 0-.9.6-1.6t1.4-1zm27.8-10q.5.5.4 1.3t-.6 1.6q-.6.7-1.3 1-.8.2-1.4-.2t-.5-1.2q.1-.9.6-1.6t1.5-1zm-39.7 19q.5.4.4 1.2t-.6 1.6-1.3 1-1.4-.2-.5-1.2.6-1.6 1.4-1zM10.5 33.3l4-7.3 7.5 8-5.8 4.1zm-1 11.4q.5.4.5 1.2-.1.9-.6 1.6-.7.8-1.4 1-.8.2-1.3-.2t-.5-1.2.6-1.6q.6-.7 1.4-1 .8-.2 1.3.2m-5 14.7q.5.4.5 1.2t-.6 1.6-1.4 1L1.8 63q-.6-.4-.5-1.2 0-.9.5-1.6l1.5-1zM1.8 77.9q-.8.2-1.3-.2T0 76.5q0-.9.6-1.6t1.4-1 1.3.2q.5.4.5 1.2-.1.8-.6 1.6-.7.7-1.4 1M5 89.8q-.6.8-1.3 1-.9.2-1.4-.2t-.5-1.2q.1-.8.7-1.6.5-.7 1.3-1 .8-.2 1.4.2t.4 1.2-.6 1.6m1.3 9.4 8-4 3.2 4L13 105l-6.4 2.8-2.8-4zM17 114.1q0 .9-.6 1.6l-1.4 1q-.7.2-1.2-.2t-.6-1.2.7-1.6q.6-.7 1.3-1 .8-.2 1.3.2t.5 1.2m9.7 11.6q.8-.3 1.3.2.5.3.5 1.2-.1.8-.6 1.6-.6.7-1.4 1-.8.2-1.3-.2t-.5-1.2.6-1.7 1.4-1m26.8 13.8q.6-.7 1.4-1 .8-.2 1.3.3t.4 1.2-.6 1.5-1.3 1l-1.3-.2q-.5-.3-.5-1.1t.6-1.7M40 137.3l-1.3-.1q-.6-.4-.5-1.2 0-.9.6-1.7t1.4-1 1.3.3.5 1.2-.6 1.6q-.6.7-1.4 1"/><path fill="none" stroke="#605642" stroke-linecap="round" stroke-linejoin="round" stroke-opacity=".6" stroke-width="__RESOLUTION__" d="M114.2 20.2q-.8.2-1.3-.2t-.5-1.2.6-1.6 1.4-1l1.3.2q.5.4.5 1.2-.1.9-.7 1.6t-1.3 1M91 6.2q-.6.8-1.3 1-.9.2-1.4-.2t-.5-1.2.7-1.6l1.3-1 1.4.2q.5.4.4 1.2 0 .9-.6 1.6M78.8.5 74.3 0 70 5.4l.3 8.7 5 .5L80 8.8zm25 9.8q-.7.8-1.4 1-.8.2-1.3-.2t-.5-1.2.6-1.6l1.4-1q.8-.2 1.3.2t.5 1.2-.6 1.6M136.3 40l-4.5 5.7-6.4 2.9-2.8-4.1 2.6-4.5 8-4zm-11.9-13.5 1.4-1 1.4.2q.5.4.4 1.2 0 .9-.6 1.6t-1.3 1q-.9.2-1.4-.2t-.5-1.2.7-1.6m13.3 25.3q.5-.8 1.3-1l1.3.2q.5.4.5 1.2t-.6 1.6-1.4 1q-.7.2-1.2-.2t-.5-1.2q0-.9.6-1.6m3.4 13.9 1.4.2q.5.4.4 1.2 0 .9-.6 1.6t-1.3 1l-1.3-.2q-.6-.4-.6-1.2.1-.8.7-1.6zm-.3 16.7q0 .8-.6 1.5l-1.4 1q-.7.3-1.2-.2-.6-.3-.5-1.1t.6-1.6 1.3-1 1.3.2.5 1.2m-10.8 19.9q0-.8.6-1.6.6-.7 1.4-1 .7-.2 1.3.2.4.4.4 1.2 0 .9-.6 1.6l-1.3 1q-.8.2-1.3-.2t-.5-1.2m-5 17.3-2 .7q-3.2-7.5-2.7-11l2.8-1.8 6.3 6.3zM103 133q0 .8-.6 1.6l-1.3 1q-.8.2-1.3-.2t-.5-1.2.5-1.6 1.5-1q.7-.2 1.3.2.5.4.4 1.2m8.4-6.8q.1-.8.7-1.6.5-.7 1.3-1 .8-.2 1.4.2t.4 1.2q0 .9-.6 1.6l-1.3 1-1.4-.2q-.5-.4-.5-1.2m-33.8 3.9 1.2 8.3-4.5 5.8-5-.6-.4-8.6 4.2-5.4zm7.8 9.5q.1-.9.7-1.6t1.3-1 1.4.2q.5.3.4 1.1t-.6 1.7l-1.3 1-1.4-.2q-.5-.5-.5-1.2M48.6 7.3q0-.8.5-1.6l1.5-1 1.3.2q.5.4.4 1.2 0 .9-.6 1.6t-1.4 1q-.7.2-1.2-.2t-.5-1.2m-9.8 4.4q.5.4.4 1.2t-.6 1.6-1.3 1l-1.3-.2q-.5-.4-.5-1.2 0-.9.6-1.6t1.4-1zm27.8-10q.5.5.4 1.3t-.6 1.6q-.6.7-1.3 1-.8.2-1.4-.2t-.5-1.2q.1-.9.6-1.6t1.5-1zm-39.7 19q.5.4.4 1.2t-.6 1.6-1.3 1-1.4-.2-.5-1.2.6-1.6 1.4-1zM16.2 38l5.8-4-7.5-8-4 7.3m-1 11.4q.5.4.5 1.2-.1.9-.6 1.6-.7.8-1.4 1-.8.2-1.3-.2t-.5-1.2.6-1.6q.6-.7 1.4-1 .8-.2 1.3.2m-5 14.7q.5.4.5 1.2t-.6 1.6-1.4 1L1.8 63q-.6-.4-.5-1.2 0-.9.5-1.6l1.5-1zM1.8 77.9q-.8.2-1.3-.2T0 76.5q0-.9.6-1.6t1.4-1 1.3.2q.5.4.5 1.2-.1.8-.6 1.6-.7.7-1.4 1M5 89.8q-.6.8-1.3 1-.9.2-1.4-.2t-.5-1.2q.1-.8.7-1.6.5-.7 1.3-1 .8-.2 1.4.2t.4 1.2-.6 1.6m1.3 9.4 8-4 3.2 4L13 105l-6.4 2.8-2.8-4zM17 114.1q0 .9-.6 1.6l-1.4 1q-.7.2-1.2-.2t-.6-1.2.7-1.6q.6-.7 1.3-1 .8-.2 1.3.2t.5 1.2m9.7 11.6q.8-.3 1.3.2.5.3.5 1.2-.1.8-.6 1.6-.6.7-1.4 1-.8.2-1.3-.2t-.5-1.2.6-1.7 1.4-1m26.8 13.8q.6-.7 1.4-1 .8-.2 1.3.3t.4 1.2-.6 1.5-1.3 1l-1.3-.2q-.5-.3-.5-1.1t.6-1.7M40 137.3l-1.3-.1q-.6-.4-.5-1.2 0-.9.6-1.7t1.4-1 1.3.3.5 1.2-.6 1.6q-.6.7-1.4 1" vector-effect="non-scaling-stroke"/><path fill="none" stroke="#c5ebeb" stroke-linecap="round" stroke-linejoin="round" stroke-opacity=".6" stroke-width="__RESOLUTION__" d="m10.5 33.3 5.7 4.8" vector-effect="non-scaling-stroke"/></g><g id="f"><path fill="#000" fill-opacity=".1" d="m30.9 22.6 5.3 1.6-4.5 8.3-8.1 5.6-15.3-8.3 3.5-.7 9.9.8 6.2-5.3z"/><path fill="#985f01" fill-opacity=".6" d="m9.3 21 10.2-8.5 11.3 1.7-1.5 1.3-8.8 7.3-2.1-.4z"/><path fill="#4f3100" fill-opacity=".6" d="m29.3 15.5 1.5-1.2V18l-10.3 8.8v-4z"/><path fill="#644300" fill-opacity=".6" d="M30.8 18v4.7l-10.3 8.5v-4.4z"/><path fill="#835201" fill-opacity=".6" d="M20.5 31.2 9.3 29.4V21l9.1 1.4 2.1.4z"/><path fill="none" stroke="#382301" stroke-linecap="round" stroke-linejoin="round" stroke-opacity=".6" stroke-width="1" d="m9.3 21 10.2-8.5 11.3 1.7-1.5 1.3 1.5-1.2v8.4l-10.3 8.5-11.2-1.8zm11.2 1.8 8.8-7.3m-8.8 15.7v-8.4h0"/><path fill="#985f01" fill-opacity=".6" d="m31.1 4.4-1.7 1.4Q25.9 10.6 22 11q2.4-5.5 4.8-8.8Q23.2 5.6 15 8.6q-2.2-.8-4.6.3 5.8-2.7 9.5-6.5 3.9-3 8-1.2l-.8 1q.6-.7 1.4-.8zm-11 9.1H20z"/><path fill="#784b01" fill-opacity=".6" d="m29.4 5.8 1.7-1.3 1.4 3 1 5.9.5.5-11.8 9.2q-3-4.6-2.1-9.6H20q-5-3.8-5-4.9 8.3-3 11.8-6.5Q24.4 5.4 22 11q3.9-.3 7.4-5m-1.5-4.7v-.1q.7-.7.7.3-.4-.5-.6-.3.2-.2.6.3-.9.1-1.6.7zm-13 7.4q2.8 1 5.1 4.9-2.3-3.9-5-4.9"/><path fill="#644300" fill-opacity=".6" d="M22.2 23.2V23"/><path fill="#835201" fill-opacity=".6" d="m22.2 23.2-1.3-.2-.7-.2-10.8-2h-.3L8 11.5l2.4-2.6q2.4-1 4.6-.3 0 1.1 5 4.9h.1q-.9 5 2 9.6m-4-4.6.9 2.1.9 1.8-1-1.7zq-7.5-11.9-8.7-1.1v3.4-3.4l.1-5.2q4.3-4.8 8 1.2-.1 2.6.6 5.1m2.8 4.4 1.3.2z"/><path fill="#3f2701" fill-opacity=".6" d="M18.1 18.5q-7.5-11.9-8.7-1.1l.1-5.2q4.3-4.8 8 1.2-.1 2.6.6 5.1"/><path fill="none" stroke="#382301" stroke-linecap="round" stroke-linejoin="round" stroke-opacity=".6" stroke-width="1" d="m31.1 4.5 1.4 3 1 5.9.5.5h0l-11.8 9.2h0m-1.3-.2-.7-.1M9 20.8l-1-9.3h0l2.4-2.6q5.8-2.7 9.5-6.5 3.9-3 8-1.2v-.1q.3-.2.7.3l2.5 3M20 13.6h.1q-.9 5 2 9.6l-1.2-.2m-6-14.3q-2.1-.8-4.5.3m9.5 13.5-1-1.7-.8-2.2q-.7-2.5-.6-5.1-3.7-6-8-1.3l-.1 5.3v3.4M20 13.5q-2.3-3.9-5-4.9"/><path fill="#fedc76" fill-opacity=".6" d="m24.1 19 1.7-1.4.3.6v.1l1.3 3.2-1.7 1.4z"/><path fill="none" stroke="#ffc" stroke-linecap="round" stroke-linejoin="round" stroke-opacity=".6" stroke-width="1" d="m24.1 19 1.7-1.4.3.6v.1l1.3 3.2"/><path fill="none" stroke="#2f2300" stroke-linecap="round" stroke-linejoin="round" stroke-opacity=".6" stroke-width="1.5" d="m27.4 21.5-1.7 1.4-1.6-4"/><path fill="#fedc76" fill-opacity=".6" d="M32.5 17.8 30.8 19l-1.6-3.9 1.7-1.4.3.7z"/><path fill="none" stroke="#2f2300" stroke-linecap="round" stroke-linejoin="round" stroke-opacity=".6" stroke-width="1.5" d="M32.5 17.8 30.8 19l-1.6-3.9"/><path fill="none" stroke="#ffc" stroke-linecap="round" stroke-linejoin="round" stroke-opacity=".6" stroke-width="1" d="m29.2 15.2 1.7-1.4.3.7h0l1.3 3.3"/><path fill="none" stroke="#5d3e00" stroke-linecap="round" stroke-linejoin="round" stroke-opacity=".6" stroke-width="3" d="M14 22.4q0 1.6-.8 3.6-.8 2.1 3 4.6t3.8 4-2.5 3.3-9.2.5M1.5 31h.3q4.3-1 4.5-1.7l3-7.4"/><path fill="#333" fill-opacity=".6" d="m15.7 18.5-.4 4.5-3.2-.6.4-4.4z"/><path fill="none" stroke="#333" stroke-linecap="round" stroke-linejoin="round" stroke-opacity=".6" stroke-width="2" d="m15.7 18.5-.4 4.5-3.2-.6.4-4.4z"/><path fill="#835201" fill-opacity=".6" d="m15.1 17.6-.4 4.4-3.2-.6.4-4.4z"/><path fill="none" stroke="#835201" stroke-linecap="round" stroke-linejoin="round" stroke-opacity=".6" stroke-width="2" d="m15.1 17.6-.4 4.4-3.2-.6.4-4.4z"/><path fill="none" stroke="#382301" stroke-linecap="round" stroke-linejoin="round" stroke-opacity=".6" stroke-width="1" d="M15 22.8q0 1.6-.8 3.7-.9 2 2.9 4.6 3.9 2.5 3.9 4t-2.6 3.2-9.2.5m-7.3-7 .3-.1q4.3-.9 4.5-1.7l3-7.4"/></g><g id="i"><path fill="#7568b7" fill-opacity=".6" d="M103.6 58q-6.9-5-14.2-9.9l-.5-.3q-7.2-4.8-14.7-9.3-7.7-4.7-15.8-9.2l-.9 1.5L80 45.6q-4.6 1.1-5.2 3.8l-.2 1.4q-.4 2.7-1 9.3l-.1 1.4h8q-3.7 12.2-3.1 24.3l.4 4.4.5-4.2 44.6 4.3q-3.1 7.4-8.4 13.9-2.5 3-5.3 5.9v.1Q91 129 64.4 129l-7.5-.3-6.5-1.1-3.2-.7-7.3-2.5q-11-4.6-20.3-13.5l-.2-.2-.6-.6-3.2-3.4-.1-.1-2-2.4-1-1.2-1.8-2.6q-7-10.1-9.4-22l35.9 3.4q0-9.9-2.3-19.2l-.3-1.1h26.1l-.9-.5q-10-6.1-17.6-17.5L42 43v.5L2 49.8l-.1-.8q4-17 17.1-30.1 3.9-3.8 8-6.9Q38.9 3.2 53.6.9L64.5 0q8.8 0 16.8 2Q97.4 6.3 110 19q5.9 5.9 9.9 12.4L83.5 37l8.5 6q13 8.4 27.8 13.7l-.1.3-3.4 11zm1 46.2"/><path fill="#665baa" fill-opacity=".6" d="M81.5 61.5h-8.1l.1-1.5q.6-6.5 1-9.2l.3-1.4q.5-2.7 5.1-3.8L57.5 30.8l.9-1.6q8.1 4.6 15.9 9.3 7.5 4.5 14.5 9.3h.1l.4.3q7.4 4.9 14.3 10l-22.2 1.4zm38.3-4.5.1-.3Q105.1 51.4 92 43l-8.5-6 36.5-5.7q7 11.5 8.6 25.2zM35 62.5q2.3 9.4 2.3 19.3L1.4 78.4Q.1 71.8 0 64.8v-.3.3z"/><path fill="#5e549e" fill-opacity=".6" d="m103.6 58 12.7 10 3.4-11 8.9-.5q.4 3.9.4 8l-.2 5.5q-.8 10.8-5 20.3L79.3 86l-.5 4.2-.4-4.4q-.6-12.1 3.2-24.3l-.2-2zM1.8 49.8 42 43.5h.1Q50 54.9 60 61l.9.5H34.7l.3 1-35 2.3v-.3q0-7.6 1.6-14.7z"/><path fill="#6cc" fill-opacity=".6" d="m1.8 49 .1.8h-.3zM42 43.5V43l.3.5z"/><path fill="none" stroke="#2c2721" stroke-linecap="round" stroke-linejoin="round" stroke-opacity=".6" stroke-width="1" d="M124.5 64.7q0 24.5-17.4 41.8t-41.7 17.3q-24.6 0-41.9-17.3T6.3 64.7q0-24.5 17.3-41.8T65.4 5.6 107 22.9q17.4 17.3 17.4 41.8"/></g><radialGradient id="a" cx="0" cy="0" r="819.2" gradientTransform="matrix(.04 0 0 .04 24.55 26.95)" gradientUnits="userSpaceOnUse" spreadMethod="pad"><stop offset="0" stop-color="#fff" stop-opacity=".4"/><stop offset="1" stop-color="#fff" stop-opacity="0"/></radialGradient><radialGradient id="b" cx="0" cy="0" r="819.2" gradientTransform="matrix(.05 0 0 .05 104.7 122.2)" gradientUnits="userSpaceOnUse" spreadMethod="pad"><stop offset=".5" stop-color="#f2f4d7" stop-opacity=".6"/><stop offset="1" stop-color="#ffc" stop-opacity="0"/></radialGradient><use xlink:href="#d" id="m" width="143" height="144.3"/><use xlink:href="#f" id="k" width="36.2" height="40.4"/><clipPath id="g"><path d="M1 1h101v34H1z"/></clipPath></defs><g clip-path="url(#g)"><g transform="translate(52.1 8)"><use xlink:href="#h" width="74.2" height="74.2" transform="matrix(.6519 -.3702 .7049 .3482 -51.1 .45)"/><use xlink:href="#i" width="129" height="129" transform="matrix(.2282 -.1295 .2467 .1219 -30.55 .3)"/><use xlink:href="#j" width="6.8" height="7.5" transform="matrix(.2282 -.1295 .2467 .1219 -11.95 -.05)"/><use xlink:href="#j" width="6.8" height="7.5" transform="matrix(.2282 -.1295 .2467 .1219 1.5 -2.95)"/><use xlink:href="#j" width="6.8" height="7.5" transform="matrix(.2282 -.1295 .2467 .1219 -9.2 2.7)"/><use xlink:href="#j" width="6.8" height="7.5" transform="matrix(.2282 -.1295 .2467 .1219 10.4 -5.8)"/><use xlink:href="#j" width="6.8" height="7.5" transform="matrix(.2282 -.1295 .2467 .1219 -14.05 -5.1)"/><use xlink:href="#j" width="6.8" height="7.5" transform="matrix(.2282 -.1295 .2467 .1219 -12.5 5.45)"/><use xlink:href="#j" width="6.8" height="7.5" transform="matrix(.2282 -.1295 .2467 .1219 7.1 3.85)"/><use xlink:href="#k" width="36.2" height="40.4" transform="matrix(.4931 -.28 .5331 .2633 -19.6 -.6)"/><use xlink:href="#l" width="49.1" height="53.9" transform="matrix(.4923 -.2795 .5323 .2629 -28.7 .85)"/><use xlink:href="#m" width="143" height="144.3" transform="matrix(.2282 -.1295 .2467 .1219 -34 .1)"/><use xlink:href="#n" width="44.5" height="44.5" transform="matrix(.6519 -.3702 .7049 .3482 -30.35 .25)"/></g></g></svg>