<svg xmlns="http://www.w3.org/2000/svg" xmlns:xlink="http://www.w3.org/1999/xlink" width="206" height="242" viewBox="0 0 206 242"><defs><g id="ac"><path fill="#070a0c" d="M.7 8.9v-.2l-.1-.4L8.9 4q1.5 0 2.4-1h.2l.1-.4L16.8 0l1.5.1 3.2 1.7-.1.2-.1.3q1 .6 2.2.5l1.6.8-16.3 8.7-1.2-.2-2.9-1.3.3-.3.5-.2.2-.4q-.5-.3 0-.5Q6.5 9 7 8.3q-1.3 0-2.4.8-.7.7-.5.8l-.2-.1-.1.2v.3z"/><path fill="#070b0d" d="m25.1 3.6.2.1v.1l-3.4 1.8L19.3 7l-.3.5-1.1 1-1.2-.1-5.8 3.1-.6.3-1.7 1-.6 2.7-.6-3.1h.1l-3-1.6h-.2l-.5-.3L.6 9h.1l3 1.4 1 .4 3 1.4 1 .2z"/><path fill="#050406" d="M25.3 3.9v.4l.1.1v5.9l-.6.7-4.8 2.4h-.5l-.6.6-2.3 1.2h-.2l-.3-.2-.1.1-.2.3h-.6l-1.3.8-.8.6-.7.5-3.8 2h-.4l-.1.1v-3.8l.5-2.8 1.8-1 .3-.1.2-.2 5.8-3.1 1.2.1 1.1-1 .3-.5 2.6-1.4z"/><path fill="#050507" d="M8.1 19.4h-.2L.8 16q-.2-1-.8-1.5V9.6l.6-.7 3.2 1.6.5.3h.1l3 1.6h.1l.5 3.1zm-2.2-4.3q.3-.3 0-1.5-.9-.8-1.9-1.2l-.2.5q-.2-.2-1-.2-.9.2-1.2 1 1.2 2 4 1.2z"/><path fill="#06080a" d="m3.8 10.3-.1-.1v-.4l.3.1q-.2-.2.5-.8 1.1-.8 2.4-.8-.4.7-1.2 1.1-.5.2 0 .5l-.2.4-.5.2-.3.3z"/><path fill="#050608" d="m10.9 11.5-.2.2-.3.1zM6 15.2l-.4-.2q-2.7.7-3.9-1.2.3-.8 1.2-1 .8 0 1 .3l.2-.7q1 .5 1.9 1.3.3 1.2 0 1.5"/><path fill="none" stroke="#050406" stroke-linecap="round" stroke-linejoin="round" stroke-width="__RESOLUTION__" d="M0 14.6v-5" vector-effect="non-scaling-stroke"/></g><g id="ab"><path fill="#587b8e" d="M.7 8.9v-.2l-.1-.4L8.9 4q1.5 0 2.4-1h.2l.1-.4L16.8 0l1.5.1 3.2 1.7-.1.2-.1.3q1 .6 2.2.5l1.6.8-16.3 8.7-1.2-.2-2.9-1.3.3-.3.5-.2.2-.4q-.5-.3 0-.5Q6.5 9 7 8.3q-1.3 0-2.4.8-.7.7-.5.8l-.2-.1-.1.2v.3z"/><path fill="#5e8193" d="m25.1 3.6.2.1v.1l-3.4 1.8L19.3 7l-.3.5-1.1 1-1.2-.1-5.8 3.1-.6.3-1.7 1-.6 2.7-.6-3.1h.1l-3-1.6h-.2l-.5-.3L.6 9h.1l3 1.4 1 .4 3 1.4 1 .2z"/><path fill="#43384b" d="M25.3 3.9v.4l.1.1v5.9l-.6.7-4.8 2.4h-.5l-.6.6-2.3 1.2h-.2l-.3-.2-.1.1-.2.3h-.6l-1.3.8-.8.6-.7.5-3.8 2h-.4l-.1.1v-3.8l.5-2.8 1.8-1 .3-.1.2-.2 5.8-3.1 1.2.1 1.1-1 .3-.5 2.6-1.4z"/><path fill="#48495c" d="M8.1 19.4h-.2L.8 16q-.2-1-.8-1.5V9.6l.6-.7 3.2 1.6.5.3h.1l3 1.6h.1l.5 3.1zm-2.2-4.3q.3-.3 0-1.5-.9-.8-1.9-1.2l-.2.5q-.2-.2-1-.2-.9.2-1.2 1 1.2 2 4 1.2z"/><path fill="#516477" d="m3.8 10.3-.1-.1v-.4l.3.1q-.2-.2.5-.8 1.1-.8 2.4-.8-.4.7-1.2 1.1-.5.2 0 .5l-.2.4-.5.2-.3.3z"/><path fill="#4b5164" d="m10.9 11.5-.2.2-.3.1z"/><path fill="#494c5f" d="m6 15.1-.5-.2q-2.7.7-3.9-1.2.3-.8 1.2-1 .8 0 1 .3l.2-.7q1 .5 1.9 1.3.3 1.2 0 1.5"/><path fill="none" stroke="#43384b" stroke-linecap="round" stroke-linejoin="round" stroke-width="__RESOLUTION__" d="M0 14.6v-5" vector-effect="non-scaling-stroke"/></g><g id="Z"><path fill="#446272" d="M.7 8.9v-.2l-.1-.4L8.9 4q1.5 0 2.4-1h.2l.1-.4L16.8 0l1.5.1 3.2 1.7-.1.2-.1.3q1 .6 2.2.5l1.6.8-16.3 8.7-1.2-.2-2.9-1.3.3-.3.5-.2.2-.4q-.5-.3 0-.5Q6.5 9 7 8.3q-1.3 0-2.4.8-.7.7-.5.8l-.2-.1-.1.2v.3z"/><path fill="#496777" d="m25.1 3.6.2.1v.1l-3.4 1.8L19.3 7l-.3.5-1.1 1-1.2-.1-5.8 3.1-.6.3-1.7 1-.6 2.7-.6-3.1h.1l-3-1.6h-.2l-.5-.3L.6 9h.1l3 1.4 1 .4 3 1.4 1 .2z"/><path fill="#322939" d="M25.3 3.9v.4l.1.1v5.9l-.6.7-4.8 2.4h-.5l-.6.6-2.3 1.2h-.2l-.3-.2-.1.1-.2.3h-.6l-1.3.8-.8.6-.7.5-3.8 2h-.4l-.1.1v-3.8l.5-2.8 1.8-1 .3-.1.2-.2 5.8-3.1 1.2.1 1.1-1 .3-.5 2.6-1.4z"/><path fill="#363747" d="M8.1 19.4h-.2L.8 16q-.2-1-.8-1.5V9.6l.6-.7 3.2 1.6.5.3h.1l3 1.6h.1l.5 3.1zm-2.2-4.3q.3-.3 0-1.5-.9-.8-1.9-1.2l-.2.5q-.2-.2-1-.2-.9.2-1.2 1 1.2 2 4 1.2z"/><path fill="#3e4f5f" d="m3.8 10.3-.1-.1v-.4l.3.1q-.2-.2.5-.8 1.1-.8 2.4-.8-.4.7-1.2 1.1-.5.2 0 .5l-.2.4-.5.2-.3.3z"/><path fill="#393e4e" d="m10.9 11.5-.2.2-.3.1z"/><path fill="#373a4a" d="m6 15.1-.5-.2q-2.7.7-3.9-1.2.3-.8 1.2-1 .8 0 1 .3l.2-.7q1 .5 1.9 1.3.3 1.2 0 1.5"/><path fill="none" stroke="#322939" stroke-linecap="round" stroke-linejoin="round" stroke-width="__RESOLUTION__" d="M0 14.6v-5" vector-effect="non-scaling-stroke"/></g><g id="Y"><path fill="#344a57" d="M.7 8.9v-.2l-.1-.4L8.9 4q1.5 0 2.4-1h.2l.1-.4L16.8 0l1.5.1 3.2 1.7-.1.2-.1.3q1 .6 2.2.5l1.6.8-16.3 8.7-1.2-.2-2.9-1.3.3-.3.5-.2.2-.4q-.5-.3 0-.5Q6.5 9 7 8.3q-1.3 0-2.4.8-.7.7-.5.8l-.2-.1-.1.2v.3z"/><path fill="#374e5b" d="m25.1 3.6.2.1v.1l-3.4 1.8L19.3 7l-.3.5-1.1 1-1.2-.1-5.8 3.1-.6.3-1.7 1-.6 2.7-.6-3.1h.1l-3-1.6h-.2l-.5-.3L.6 9h.1l3 1.4 1 .4 3 1.4 1 .2z"/><path fill="#261f2c" d="M25.3 3.9v.4l.1.1v5.9l-.6.7-4.8 2.4h-.5l-.6.6-2.3 1.2h-.2l-.3-.2-.1.1-.2.3h-.6l-1.3.8-.8.6-.7.5-3.8 2h-.4l-.1.1v-3.8l.5-2.8 1.8-1 .3-.1.2-.2 5.8-3.1 1.2.1 1.1-1 .3-.5 2.6-1.4z"/><path fill="#292a37" d="M8.1 19.4h-.2L.8 16q-.2-1-.8-1.5V9.6l.6-.7 3.2 1.6.5.3h.1l3 1.6h.1l.5 3.1zm-2.2-4.3q.3-.3 0-1.5-.9-.8-1.9-1.2l-.2.5q-.2-.2-1-.2-.9.2-1.2 1 1.2 2 4 1.2z"/><path fill="#2f3c49" d="m3.8 10.3-.1-.1v-.4l.3.1q-.2-.2.5-.8 1.1-.8 2.4-.8-.4.7-1.2 1.1-.5.2 0 .5l-.2.4-.5.2-.3.3z"/><path fill="#2b2f3c" d="m10.9 11.5-.2.2-.3.1z"/><path fill="#2a2c39" d="m6 15.1-.5-.2q-2.7.7-3.9-1.2.3-.8 1.2-1 .8 0 1 .3l.2-.7q1 .5 1.9 1.3.3 1.2 0 1.5"/><path fill="none" stroke="#261f2c" stroke-linecap="round" stroke-linejoin="round" stroke-width="__RESOLUTION__" d="M0 14.6v-5" vector-effect="non-scaling-stroke"/></g><g id="X"><path fill="#23333c" d="M.7 8.9v-.2l-.1-.4L8.9 4q1.5 0 2.4-1h.2l.1-.4L16.8 0l1.5.1 3.2 1.7-.1.2-.1.3q1 .6 2.2.5l1.6.8-16.3 8.7-1.2-.2-2.9-1.3.3-.3.5-.2.2-.4q-.5-.3 0-.5Q6.5 9 7 8.3q-1.3 0-2.4.8-.7.7-.5.8l-.2-.1-.1.2v.3z"/><path fill="#26363f" d="m25.1 3.6.2.1v.1l-3.4 1.8L19.3 7l-.3.5-1.1 1-1.2-.1-5.8 3.1-.6.3-1.7 1-.6 2.7-.6-3.1h.1l-3-1.6h-.2l-.5-.3L.6 9h.1l3 1.4 1 .4 3 1.4 1 .2z"/><path fill="#1a151e" d="M25.3 3.9v.4l.1.1v5.9l-.6.7-4.8 2.4h-.5l-.6.6-2.3 1.2h-.2l-.3-.2-.1.1-.2.3h-.6l-1.3.8-.8.6-.7.5-3.8 2h-.4l-.1.1v-3.8l.5-2.8 1.8-1 .3-.1.2-.2 5.8-3.1 1.2.1 1.1-1 .3-.5 2.6-1.4z"/><path fill="#1c1c25" d="M8.1 19.4h-.2L.8 16q-.2-1-.8-1.5V9.6l.6-.7 3.2 1.6.5.3h.1l3 1.6h.1l.5 3.1zm-2.2-4.3q.3-.3 0-1.5-.9-.8-1.9-1.2l-.2.5q-.2-.2-1-.2-.9.2-1.2 1 1.2 2 4 1.2z"/><path fill="#202932" d="m3.8 10.3-.1-.1v-.4l.3.1q-.2-.2.5-.8 1.1-.8 2.4-.8-.4.7-1.2 1.1-.5.2 0 .5l-.2.4-.5.2-.3.3z"/><path fill="#1d2029" d="m10.9 11.5-.2.2-.3.1z"/><path fill="#1d1e27" d="m6 15.1-.5-.2q-2.7.7-3.9-1.2.3-.8 1.2-1 .8 0 1 .3l.2-.7q1 .5 1.9 1.3.3 1.2 0 1.5"/><path fill="none" stroke="#1a151e" stroke-linecap="round" stroke-linejoin="round" stroke-width="__RESOLUTION__" d="M0 14.6v-5" vector-effect="non-scaling-stroke"/></g><g id="W"><path fill="#172228" d="M.7 8.9v-.2l-.1-.4L8.9 4q1.5 0 2.4-1h.2l.1-.4L16.8 0l1.5.1 3.2 1.7-.1.2-.1.3q1 .6 2.2.5l1.6.8-16.3 8.7-1.2-.2-2.9-1.3.3-.3.5-.2.2-.4q-.5-.3 0-.5Q6.5 9 7 8.3q-1.3 0-2.4.8-.7.7-.5.8l-.2-.1-.1.2v.3z"/><path fill="#192329" d="m25.1 3.6.2.1v.1l-3.4 1.8L19.3 7l-.3.5-1.1 1-1.2-.1-5.8 3.1-.6.3-1.7 1-.6 2.7-.6-3.1h.1l-3-1.6h-.2l-.5-.3L.6 9h.1l3 1.4 1 .4 3 1.4 1 .2z"/><path fill="#110e14" d="M25.3 3.9v.4l.1.1v5.9l-.6.7-4.8 2.4h-.5l-.6.6-2.3 1.2h-.2l-.3-.2-.1.1-.2.3h-.6l-1.3.8-.8.6-.7.5-3.8 2h-.4l-.1.1v-3.8l.5-2.8 1.8-1 .3-.1.2-.2 5.8-3.1 1.2.1 1.1-1 .3-.5 2.6-1.4z"/><path fill="#121319" d="M8.1 19.4h-.2L.8 16q-.2-1-.8-1.5V9.6l.6-.7 3.2 1.6.5.3h.1l3 1.6h.1l.5 3.1zm-2.2-4.3q.3-.3 0-1.5-.9-.8-1.9-1.2l-.2.5q-.2-.2-1-.2-.9.2-1.2 1 1.2 2 4 1.2z"/><path fill="#151b21" d="m3.8 10.3-.1-.1v-.4l.3.1q-.2-.2.5-.8 1.1-.8 2.4-.8-.4.7-1.2 1.1-.5.2 0 .5l-.2.4-.5.2-.3.3z"/><path fill="#13151b" d="m10.9 11.5-.2.2-.3.1z"/><path fill="#13141a" d="m6 15.1-.5-.2q-2.7.7-3.9-1.2.3-.8 1.2-1 .8 0 1 .3l.2-.7q1 .5 1.9 1.3.3 1.2 0 1.5"/><path fill="none" stroke="#110e14" stroke-linecap="round" stroke-linejoin="round" stroke-width="__RESOLUTION__" d="M0 14.6v-5" vector-effect="non-scaling-stroke"/></g><g id="V"><path fill="#0d1317" d="M.7 8.9v-.2l-.1-.4L8.9 4q1.5 0 2.4-1h.2l.1-.4L16.8 0l1.5.1 3.2 1.7-.1.2-.1.3q1 .6 2.2.5l1.6.8-16.3 8.7-1.2-.2-2.9-1.3.3-.3.5-.2.2-.4q-.5-.3 0-.5Q6.5 9 7 8.3q-1.3 0-2.4.8-.7.7-.5.8l-.2-.1-.1.2v.3z"/><path fill="#0e1418" d="m25.1 3.6.2.1v.1l-3.4 1.8L19.3 7l-.3.5-1.1 1-1.2-.1-5.8 3.1-.6.3-1.7 1-.6 2.7-.6-3.1h.1l-3-1.6h-.2l-.5-.3L.6 9h.1l3 1.4 1 .4 3 1.4 1 .2z"/><path fill="#0a080c" d="M25.3 3.9v.4l.1.1v5.9l-.6.7-4.8 2.4h-.5l-.6.6-2.3 1.2h-.2l-.3-.2-.1.1-.2.3h-.6l-1.3.8-.8.6-.7.5-3.8 2h-.4l-.1.1v-3.8l.5-2.8 1.8-1 .3-.1.2-.2 5.8-3.1 1.2.1 1.1-1 .3-.5 2.6-1.4z"/><path fill="#0a0a0e" d="M8.1 19.4h-.2L.8 16q-.2-1-.8-1.5V9.6l.6-.7 3.2 1.6.5.3h.1l3 1.6h.1l.5 3.1zm-2.2-4.3q.3-.3 0-1.5-.9-.8-1.9-1.2l-.2.5q-.2-.2-1-.2-.9.2-1.2 1 1.2 2 4 1.2z"/><path fill="#0c0f13" d="m3.8 10.3-.1-.1v-.4l.3.1q-.2-.2.5-.8 1.1-.8 2.4-.8-.4.7-1.2 1.1-.5.2 0 .5l-.2.4-.5.2-.3.3z"/><path fill="#0b0c10" d="m10.9 11.5-.2.2-.3.1z"/><path fill="#0b0b0f" d="m6 15.1-.5-.2q-2.7.7-3.9-1.2.3-.8 1.2-1 .8 0 1 .3l.2-.7q1 .5 1.9 1.3.3 1.2 0 1.5"/><path fill="none" stroke="#0a080c" stroke-linecap="round" stroke-linejoin="round" stroke-width="__RESOLUTION__" d="M0 14.6v-5" vector-effect="non-scaling-stroke"/></g><g id="S"><path fill="#000" d="m0 1 2-1 1.6 1-1.8.9z"/><path fill="#2b2e31" d="m0 1 1.8.9V12L0 10.8z"/><path fill="#181a20" d="M1.8 1.9 3.6 1v10.2l-1.8.8z"/><path fill="none" stroke="#000" stroke-linecap="round" stroke-linejoin="round" stroke-width="__RESOLUTION__" d="M3.6 1 1.9 0 0 1" vector-effect="non-scaling-stroke"/></g><g id="R"><path fill="#363636" d="M4.1 2 4 1.7v-.1q.7-.4 1.3 0l.1 1.3-.2.2q.4 2.2-1.8 2.5 1.8-1.3 1-3.3zm-1.5-.9q.3-.1.6.2-.5 1-1.3.3l.1-.1q.3-.5.8-.5z"/><path fill="url(#a)" d="m.8-1.3.3.3q.8 2-1 3.3Q2.4 1.9 2-.4v-1.4q-.6-.3-1.2 0l-.2.1q0 .3.2.4m-4 2-.1-.7q0-1.3 1-2.3t2.3-1 2.4 1 1 2.3-1 2.4l-.1.1v-.3L2.2 2h-.1v.1l-.1.1v.2l-.4.1-.1.1-.1.1-2.9-.7-.1-.5-.3-.2h-.5Q-2.5.7-3 .5zm2.5-3 .2-.1q-.5.1-.8.5v.2Q-.7-1-.2-2q-.2-.4-.6-.2M-2.5-.4v.1l1 .2q.1-.5-.3-.9h-.1l-.1-.2z" transform="translate(3.3 3.35)"/><path fill="#060e0f" d="M5.6 5.9h-.2l-.2.3-.4.1-1 .4h-.5Q2 6.7 1 5.7L.3 5 0 4.1l.3-.2q.5.1.6.8h.4l.4.1.1.5 2.9.8.1-.1.1-.2h.4v-.3h.1v-.1h.1v.5"/><path fill="#0a1718" d="m.8 3 .5-.8v.1h.2q.4.4.3 1z"/></g><g id="Q"><path fill="url(#b)" d="m4.7 1.6 3.3.8 1.3 2-2.5 1.8L3 5l-.8-2.7z" transform="translate(4 -1.55)"/><path fill="url(#c)" d="M3.3 11.4.8 13.3l-4-1.4-.8-2.7 2.6-.6 3.3.8z" transform="translate(4 -1.55)"/></g><g id="P"><path fill="url(#d)" d="m53.3 6.9 118-163.3 3.6 1.8L57 8.8z" transform="translate(-53.2 156.45)"/><path fill="url(#e)" d="m174.9-154.6.1 7.1L57.1 15.3 57 8.8z" transform="translate(-53.2 156.45)"/><path fill="#3a3e4d" d="m3.9 171.8-3.9-2v-6.5l3.8 1.9z"/></g><g id="N"><path fill="#000" d="m0 1 2-1 1.6 1-1.8.9z"/><path fill="#8d97a0" d="m0 1 1.8.9V12L0 10.8z"/><path fill="#50556a" d="M1.8 1.9 3.6 1v10.2l-1.8.8z"/><path fill="none" stroke="#000" stroke-linecap="round" stroke-linejoin="round" stroke-width="__RESOLUTION__" d="M3.6 1 1.9 0 0 1" vector-effect="non-scaling-stroke"/></g><g id="M"><path fill="#b2b2b2" d="M4.1 2 4 1.7v-.1q.7-.4 1.3 0l.1 1.3-.2.2q.4 2.2-1.8 2.5 1.8-1.3 1-3.3zm-1.5-.9q.3-.1.6.2-.5 1-1.3.3l.1-.1q.3-.5.8-.5z"/><path fill="url(#f)" d="m.8-1.3.3.3q.8 2-1 3.3Q2.4 1.9 2-.4v-1.4q-.6-.3-1.2 0l-.2.1q0 .3.2.4m-4 2-.1-.7q0-1.3 1-2.3t2.3-1 2.4 1 1 2.3-1 2.4l-.1.1v-.3L2.2 2h-.1v.1l-.1.1v.2l-.4.1-.1.1-.1.1-2.9-.7-.1-.5-.3-.2h-.5Q-2.5.7-3 .5zm2.5-3 .2-.1q-.5.1-.8.5v.2Q-.7-1-.2-2q-.2-.4-.6-.2M-2.5-.4v.1l1 .2q.1-.5-.3-.9h-.1l-.1-.2z" transform="translate(3.3 3.35)"/><path fill="#163030" d="M5.6 5.9h-.2l-.2.3-.4.1-1 .4h-.5Q2 6.7 1 5.7L.3 5 0 4.1l.3-.2q.5.1.6.8h.4l.4.1.1.5 2.9.8.1-.1.1-.2h.4v-.3h.1v-.1h.1v.5"/><path fill="#234d4f" d="m.8 3 .5-.8v.1h.2q.4.4.3 1z"/></g><g id="L"><path fill="url(#g)" d="m4.7 1.6 3.3.8 1.3 2-2.5 1.8L3 5l-.8-2.7z" transform="translate(4 -1.55)"/><path fill="url(#i)" d="M3.3 11.4.8 13.3l-4-1.4-.8-2.7 2.6-.6 3.3.8z" transform="translate(4 -1.55)"/></g><g id="K"><path fill="#000" d="m0 1 2-1 1.6 1-1.8.9z"/><path fill="#737b82" d="m0 1 1.8.9V12L0 10.8z"/><path fill="#414556" d="M1.8 1.9 3.6 1v10.2l-1.8.8z"/><path fill="none" stroke="#000" stroke-linecap="round" stroke-linejoin="round" stroke-width="__RESOLUTION__" d="M3.6 1 1.9 0 0 1" vector-effect="non-scaling-stroke"/></g><g id="J"><path fill="#919191" d="M4.1 2 4 1.7v-.1q.7-.4 1.3 0l.1 1.3-.2.2q.4 2.2-1.8 2.5 1.8-1.3 1-3.3zm-1.5-.9q.3-.1.6.2-.5 1-1.3.3l.1-.1q.3-.5.8-.5z"/><path fill="url(#j)" d="m.8-1.3.3.3q.8 2-1 3.3Q2.4 1.9 2-.4v-1.4q-.6-.3-1.2 0l-.2.1q0 .3.2.4m-4 2-.1-.7q0-1.3 1-2.3t2.3-1 2.4 1 1 2.3-1 2.4l-.1.1v-.3L2.2 2h-.1v.1l-.1.1v.2l-.4.1-.1.1-.1.1-2.9-.7-.1-.5-.3-.2h-.5Q-2.5.7-3 .5zm2.5-3 .2-.1q-.5.1-.8.5v.2Q-.7-1-.2-2q-.2-.4-.6-.2M-2.5-.4v.1l1 .2q.1-.5-.3-.9h-.1l-.1-.2z" transform="translate(3.3 3.35)"/><path fill="#122727" d="M5.6 5.9h-.2l-.2.3-.4.1-1 .4h-.5Q2 6.7 1 5.7L.3 5 0 4.1l.3-.2q.5.1.6.8h.4l.4.1.1.5 2.9.8.1-.1.1-.2h.4v-.3h.1v-.1h.1v.5"/><path fill="#1d3f40" d="m.8 3 .5-.8v.1h.2q.4.4.3 1z"/></g><g id="I"><path fill="url(#k)" d="m4.7 1.6 3.3.8 1.3 2-2.5 1.8L3 5l-.8-2.7z" transform="translate(4 -1.55)"/><path fill="url(#l)" d="M3.3 11.4.8 13.3l-4-1.4-.8-2.7 2.6-.6 3.3.8z" transform="translate(4 -1.55)"/></g><g id="H"><path fill="#000" d="m0 1 2-1 1.6 1-1.8.9z"/><path fill="#62696f" d="m0 1 1.8.9V12L0 10.8z"/><path fill="#373b4a" d="M1.8 1.9 3.6 1v10.2l-1.8.8z"/><path fill="none" stroke="#000" stroke-linecap="round" stroke-linejoin="round" stroke-width="__RESOLUTION__" d="M3.6 1 1.9 0 0 1" vector-effect="non-scaling-stroke"/></g><g id="G"><path fill="#7c7c7c" d="M4.1 2 4 1.7v-.1q.7-.4 1.3 0l.1 1.3-.2.2q.4 2.2-1.8 2.5 1.8-1.3 1-3.3zm-1.5-.9q.3-.1.6.2-.5 1-1.3.3l.1-.1q.3-.5.8-.5z"/><path fill="url(#m)" d="m.8-1.3.3.3q.8 2-1 3.3Q2.4 1.9 2-.4v-1.4q-.6-.3-1.2 0l-.2.1q0 .3.2.4m-4 2-.1-.7q0-1.3 1-2.3t2.3-1 2.4 1 1 2.3-1 2.4l-.1.1v-.3L2.2 2h-.1v.1l-.1.1v.2l-.4.1-.1.1-.1.1-2.9-.7-.1-.5-.3-.2h-.5Q-2.5.7-3 .5zm2.5-3 .2-.1q-.5.1-.8.5v.2Q-.7-1-.2-2q-.2-.4-.6-.2M-2.5-.4v.1l1 .2q.1-.5-.3-.9h-.1l-.1-.2z" transform="translate(3.3 3.35)"/><path fill="#0f2122" d="M5.6 5.9h-.2l-.2.3-.4.1-1 .4h-.5Q2 6.7 1 5.7L.3 5 0 4.1l.3-.2q.5.1.6.8h.4l.4.1.1.5 2.9.8.1-.1.1-.2h.4v-.3h.1v-.1h.1v.5"/><path fill="#183637" d="m.8 3 .5-.8v.1h.2q.4.4.3 1z"/></g><g id="F"><path fill="url(#n)" d="m4.7 1.6 3.3.8 1.3 2-2.5 1.8L3 5l-.8-2.7z" transform="translate(4 -1.55)"/><path fill="url(#o)" d="M3.3 11.4.8 13.3l-4-1.4-.8-2.7 2.6-.6 3.3.8z" transform="translate(4 -1.55)"/></g><g id="E"><path fill="#000" d="m0 1 2-1 1.6 1-1.8.9z"/><path fill="#42464b" d="m0 1 1.8.9V12L0 10.8z"/><path fill="#252731" d="M1.8 1.9 3.6 1v10.2l-1.8.8z"/><path fill="none" stroke="#000" stroke-linecap="round" stroke-linejoin="round" stroke-width="__RESOLUTION__" d="M3.6 1 1.9 0 0 1" vector-effect="non-scaling-stroke"/></g><g id="D"><path fill="#525252" d="M4.1 2 4 1.7v-.1q.7-.4 1.3 0l.1 1.3-.2.2q.4 2.2-1.8 2.5 1.8-1.3 1-3.3zm-1.5-.9q.3-.1.6.2-.5 1-1.3.3l.1-.1q.3-.5.8-.5z"/><path fill="url(#p)" d="m.8-1.3.3.3q.8 2-1 3.3Q2.4 1.9 2-.4v-1.4q-.6-.3-1.2 0l-.2.1q0 .3.2.4m-4 2-.1-.7q0-1.3 1-2.3t2.3-1 2.4 1 1 2.3-1 2.4l-.1.1v-.3L2.2 2h-.1v.1l-.1.1v.2l-.4.1-.1.1-.1.1-2.9-.7-.1-.5-.3-.2h-.5Q-2.5.7-3 .5zm2.5-3 .2-.1q-.5.1-.8.5v.2Q-.7-1-.2-2q-.2-.4-.6-.2M-2.5-.4v.1l1 .2q.1-.5-.3-.9h-.1l-.1-.2z" transform="translate(3.3 3.35)"/><path fill="#0a1616" d="M5.6 5.9h-.2l-.2.3-.4.1-1 .4h-.5Q2 6.7 1 5.7L.3 5 0 4.1l.3-.2q.5.1.6.8h.4l.4.1.1.5 2.9.8.1-.1.1-.2h.4v-.3h.1v-.1h.1v.5"/><path fill="#102324" d="m.8 3 .5-.8v.1h.2q.4.4.3 1z"/></g><g id="C"><path fill="url(#q)" d="m4.7 1.6 3.3.8 1.3 2-2.5 1.8L3 5l-.8-2.7z" transform="translate(4 -1.55)"/><path fill="url(#r)" d="M3.3 11.4.8 13.3l-4-1.4-.8-2.7 2.6-.6 3.3.8z" transform="translate(4 -1.55)"/></g><g id="B"><path fill="#000" d="m0 1 2-1 1.6 1-1.8.9z"/><path fill="#1a1c1e" d="m0 1 1.8.9V12L0 10.8z"/><path fill="#0f0f13" d="M1.8 1.9 3.6 1v10.2l-1.8.8z"/><path fill="none" stroke="#000" stroke-linecap="round" stroke-linejoin="round" stroke-width="__RESOLUTION__" d="M3.6 1 1.9 0 0 1" vector-effect="non-scaling-stroke"/></g><g id="A"><path fill="#202020" d="M4.1 2 4 1.7v-.1q.7-.4 1.3 0l.1 1.3-.2.2q.4 2.2-1.8 2.5 1.8-1.3 1-3.3zm-1.5-.9q.3-.1.6.2-.5 1-1.3.3l.1-.1q.3-.5.8-.5z"/><path fill="url(#s)" d="m.8-1.3.3.3q.8 2-1 3.3Q2.4 1.9 2-.4v-1.4q-.6-.3-1.2 0l-.2.1q0 .3.2.4m-4 2-.1-.7q0-1.3 1-2.3t2.3-1 2.4 1 1 2.3-1 2.4l-.1.1v-.3L2.2 2h-.1v.1l-.1.1v.2l-.4.1-.1.1-.1.1-2.9-.7-.1-.5-.3-.2h-.5Q-2.5.7-3 .5zm2.5-3 .2-.1q-.5.1-.8.5v.2Q-.7-1-.2-2q-.2-.4-.6-.2M-2.5-.4v.1l1 .2q.1-.5-.3-.9h-.1l-.1-.2z" transform="translate(3.3 3.35)"/><path fill="#040809" d="M5.6 5.9h-.2l-.2.3-.4.1-1 .4h-.5Q2 6.7 1 5.7L.3 5 0 4.1l.3-.2q.5.1.6.8h.4l.4.1.1.5 2.9.8.1-.1.1-.2h.4v-.3h.1v-.1h.1v.5"/><path fill="#060e0e" d="m.8 3 .5-.8v.1h.2q.4.4.3 1z"/></g><g id="z"><path fill="url(#t)" d="m4.7 1.6 3.3.8 1.3 2-2.5 1.8L3 5l-.8-2.7z" transform="translate(4 -1.55)"/><path fill="url(#u)" d="M3.3 11.4.8 13.3l-4-1.4-.8-2.7 2.6-.6 3.3.8z" transform="translate(4 -1.55)"/></g><g id="y"><path fill="url(#v)" d="M-31.8-8.5 86.8-172.8l1.8 1.4 1.1.7h.2v.7-.1L-28.2-6.7z" transform="translate(31.85 172.85)"/><path fill="#000" d="m0 164.4 3.8 1.8.2 6.4-.1.1-3.9-1.8z"/><path fill="url(#w)" d="M-28-6.7 89.9-170.1v19.9q-12.7 8-20 22.1-8.9 17.2-21.5 31.5t-23.6 31Q13.9-49.3 2.1-33.4-9.7-17.6-22.2-2.2l-1.4 1.6-1.5 2-.7-1.1-1.3.4q-.1-.5-.3-.6l-.2-.2h-.4l.1-.1z" transform="translate(31.85 172.85)"/></g><radialGradient id="a" cx="0" cy="0" r="819.2" gradientTransform="matrix(.01 0 0 .01 -1.75 1.8)" gradientUnits="userSpaceOnUse" spreadMethod="pad"><stop offset="0" stop-color="#060613"/><stop offset=".7" stop-color="#1d2733"/><stop offset="1" stop-color="#263235"/></radialGradient><radialGradient id="c" cx="0" cy="0" r="819.2" gradientTransform="matrix(.01 0 0 .01 -1.4 10.35)" gradientUnits="userSpaceOnUse" spreadMethod="pad"><stop offset="0" stop-color="#000"/><stop offset=".8" stop-color="#101216" stop-opacity="0"/></radialGradient><radialGradient id="b" cx="0" cy="0" r="819.2" gradientTransform="matrix(.01 0 0 .01 4.65 3.3)" gradientUnits="userSpaceOnUse" spreadMethod="pad"><stop offset="0" stop-color="#000"/><stop offset=".8" stop-color="#101216" stop-opacity="0"/></radialGradient><radialGradient id="e" cx="0" cy="0" r="819.2" gradientTransform="matrix(.25 0 0 .25 57.95 10.8)" gradientUnits="userSpaceOnUse" spreadMethod="pad"><stop offset="0" stop-color="#3f4552"/><stop offset="1" stop-color="#000"/></radialGradient><radialGradient id="d" cx="0" cy="0" r="819.2" gradientTransform="matrix(.25 0 0 .25 56.3 4.65)" gradientUnits="userSpaceOnUse" spreadMethod="pad"><stop offset="0" stop-color="#545a6f"/><stop offset="1" stop-color="#000"/></radialGradient><radialGradient id="i" cx="0" cy="0" r="819.2" gradientTransform="matrix(.01 0 0 .01 -1.4 10.35)" gradientUnits="userSpaceOnUse" spreadMethod="pad"><stop offset="0" stop-color="#000"/><stop offset=".8" stop-color="#373d48" stop-opacity="0"/></radialGradient><radialGradient id="f" cx="0" cy="0" r="819.2" gradientTransform="matrix(.01 0 0 .01 -1.75 1.8)" gradientUnits="userSpaceOnUse" spreadMethod="pad"><stop offset="0" stop-color="#14143f"/><stop offset=".7" stop-color="#5e7fa7"/><stop offset="1" stop-color="#7da5af"/></radialGradient><radialGradient id="g" cx="0" cy="0" r="819.2" gradientTransform="matrix(.01 0 0 .01 4.65 3.3)" gradientUnits="userSpaceOnUse" spreadMethod="pad"><stop offset="0" stop-color="#000"/><stop offset=".8" stop-color="#373d48" stop-opacity="0"/></radialGradient><radialGradient id="j" cx="0" cy="0" r="819.2" gradientTransform="matrix(.01 0 0 .01 -1.75 1.8)" gradientUnits="userSpaceOnUse" spreadMethod="pad"><stop offset="0" stop-color="#113"/><stop offset=".7" stop-color="#4c6788"/><stop offset="1" stop-color="#66878f"/></radialGradient><radialGradient id="l" cx="0" cy="0" r="819.2" gradientTransform="matrix(.01 0 0 .01 -1.4 10.35)" gradientUnits="userSpaceOnUse" spreadMethod="pad"><stop offset="0" stop-color="#000"/><stop offset=".8" stop-color="#2c313a" stop-opacity="0"/></radialGradient><radialGradient id="k" cx="0" cy="0" r="819.2" gradientTransform="matrix(.01 0 0 .01 4.65 3.3)" gradientUnits="userSpaceOnUse" spreadMethod="pad"><stop offset="0" stop-color="#000"/><stop offset=".8" stop-color="#2c313a" stop-opacity="0"/></radialGradient><radialGradient id="m" cx="0" cy="0" r="819.2" gradientTransform="matrix(.01 0 0 .01 -1.75 1.8)" gradientUnits="userSpaceOnUse" spreadMethod="pad"><stop offset="0" stop-color="#0e0e2c"/><stop offset=".7" stop-color="#415875"/><stop offset="1" stop-color="#57737a"/></radialGradient><radialGradient id="o" cx="0" cy="0" r="819.2" gradientTransform="matrix(.01 0 0 .01 -1.4 10.35)" gradientUnits="userSpaceOnUse" spreadMethod="pad"><stop offset="0" stop-color="#000"/><stop offset=".8" stop-color="#262a32" stop-opacity="0"/></radialGradient><radialGradient id="n" cx="0" cy="0" r="819.2" gradientTransform="matrix(.01 0 0 .01 4.65 3.3)" gradientUnits="userSpaceOnUse" spreadMethod="pad"><stop offset="0" stop-color="#000"/><stop offset=".8" stop-color="#262a32" stop-opacity="0"/></radialGradient><radialGradient id="p" cx="0" cy="0" r="819.2" gradientTransform="matrix(.01 0 0 .01 -1.75 1.8)" gradientUnits="userSpaceOnUse" spreadMethod="pad"><stop offset="0" stop-color="#09091d"/><stop offset=".7" stop-color="#2b3b4d"/><stop offset="1" stop-color="#3a4c51"/></radialGradient><radialGradient id="r" cx="0" cy="0" r="819.2" gradientTransform="matrix(.01 0 0 .01 -1.4 10.35)" gradientUnits="userSpaceOnUse" spreadMethod="pad"><stop offset="0" stop-color="#000"/><stop offset=".8" stop-color="#191c21" stop-opacity="0"/></radialGradient><radialGradient id="q" cx="0" cy="0" r="819.2" gradientTransform="matrix(.01 0 0 .01 4.65 3.3)" gradientUnits="userSpaceOnUse" spreadMethod="pad"><stop offset="0" stop-color="#000"/><stop offset=".8" stop-color="#191c21" stop-opacity="0"/></radialGradient><radialGradient id="s" cx="0" cy="0" r="819.2" gradientTransform="matrix(.01 0 0 .01 -1.75 1.8)" gradientUnits="userSpaceOnUse" spreadMethod="pad"><stop offset="0" stop-color="#03030b"/><stop offset=".7" stop-color="#11171e"/><stop offset="1" stop-color="#171e20"/></radialGradient><radialGradient id="u" cx="0" cy="0" r="819.2" gradientTransform="matrix(.01 0 0 .01 -1.4 10.35)" gradientUnits="userSpaceOnUse" spreadMethod="pad"><stop offset="0" stop-color="#000"/><stop offset=".8" stop-color="#0a0b0d" stop-opacity="0"/></radialGradient><radialGradient id="t" cx="0" cy="0" r="819.2" gradientTransform="matrix(.01 0 0 .01 4.65 3.3)" gradientUnits="userSpaceOnUse" spreadMethod="pad"><stop offset="0" stop-color="#000"/><stop offset=".8" stop-color="#0a0b0d" stop-opacity="0"/></radialGradient><radialGradient id="w" cx="0" cy="0" r="819.2" gradientTransform="matrix(.25 0 0 .25 -21.05 6)" gradientUnits="userSpaceOnUse" spreadMethod="pad"><stop offset="0" stop-color="#323841"/><stop offset="1" stop-color="#000"/></radialGradient><radialGradient id="v" cx="0" cy="0" r="819.2" gradientTransform="matrix(.24 0 0 .24 -25.4 -13.7)" gradientUnits="userSpaceOnUse" spreadMethod="pad"><stop offset="0" stop-color="#444d59"/><stop offset="1" stop-color="#000"/></radialGradient><path id="aa" fill="none" stroke="#080808" stroke-linecap="round" stroke-linejoin="round" stroke-width="__RESOLUTION__" d="M-48.8-36.9h-8l-4.4 2 5.9 8.5 44.5 22.5m-44.5-22.5.3.6m.3-12-2.1.9h-6.5m1.7 2.1.5-.2m49.9 30.5 7.4-4.6L-49-37.4M-3.8-9.1l.5-.4" transform="translate(63.25 37.85)" vector-effect="non-scaling-stroke"/><path id="U" fill="none" stroke="#000" stroke-linecap="round" stroke-linejoin="round" stroke-width="__RESOLUTION__" d="M-48.8-36.9h-8l-4.4 2 5.9 8.5 44.5 22.5m-44.5-22.5.3.6m.3-12-2.1.9h-6.5m1.7 2.1.5-.2m49.9 30.5 7.4-4.6L-49-37.4M-3.8-9.1l.5-.4" transform="translate(63.25 37.85)" vector-effect="non-scaling-stroke"/><path id="T" fill="#000" d="M168.6-204.8h.3q1.4.5 2.4 1.6l.1.1q.8.7 1.2 1.8l.1.3.4 1 .8.3.3.1q1.5.4 2.5 1.5l.1.2 1.1 1.8.2.2.1.3q.8 2.4 0 5l-.6 1.7.8 1.3v.3l.2.3q.8 2.3 0 5-.9 3-3.3 4.5l-1 .5q-2 .9-4.1.3l-.6-.2-.2 1-.7 1.6.8 1.3.1.3.2.3q.8 2.3 0 5-1 3-3.4 4.5l-1 .5q-2 .9-4 .3-1.8-.6-12-6.7l-6-3.6-4-2.6q-8.7-5.4-13.3-9-3.9-3-4.8-4.7l-.5-.4q-5.7-4.4-5-6 .5-.8 3-.7-1-1.2-.7-2 .3-.5 1.3-.6-4.7-3.8-4-5.2 1.4-2.4 17.5 3.4-2.2-1.9-2.7-3l-.6-.5q-5.7-4.4-5-6h.1q.5-.9 2.9-.7-1-1.2-.6-2 .3-.5 1.2-.7-4.6-3.7-4-5.1h.1q1.5-2.7 21.6 5l10.7 4 3.8 1.3 1.8.8.8.3 2.5.9zm-33.4 38.2 1.8.6.8.3 2.6 1 3 1 .3.2q1.5.4 2.5 1.5l.1.1 1.2 1.8v.3l.4 1 .8.3.3.1q1.5.4 2.5 1.6h.2l1.1 1.8.1.3.1.3q.8 2.4 0 5l-.6 1.7.8 1.3.1.3.2.3q.8 2.3 0 5-1 3-3.4 4.5l-1 .5q-2 .9-4 .3-1.8-.6-12-6.7l-6-3.6-4-2.6q-8.7-5.4-13.3-9-3.9-3-4.8-4.7l-.6-.4q-5.6-4.4-4.9-6 .5-.8 3-.7-1-1.2-.7-2 .3-.5 1.3-.6-4.7-3.8-4-5.2 1.5-2.7 21.7 5l10.6 4zM118.5-133h.3q1.5.5 2.5 1.6l1.7.7.8.3 2.5.9 3.1 1 .3.2q1.5.4 2.5 1.5l.1.1 1.1 1.8.2.3.3 1 .8.3.4.1q1.5.5 2.5 1.5v.2l1.2 1.8.1.2.2.3q.8 2.4 0 5l-.7 1.7.8 1.3.1.3.1.3q.8 2.3 0 5-.8 3-3.3 4.5l-1 .5q-2 .9-4 .3-1-.4-4.6-2.4v.2l.2.3q.8 2.4 0 5-1 3-3.4 4.5l-1 .5q-2 1-4 .4-1.5-.5-8.6-4.7l-.4 1.5-.6 1.7.8 1.3v.3l.2.3q.8 2.4 0 5-.9 3-3.4 4.5l-.9.5q-2 .9-4.1.3-1.8-.6-12-6.7l-5.9-3.7-4.1-2.5q-8.7-5.4-13.2-9-4-3-4.8-4.7l-.6-.4q-5.7-4.4-5-6h.1q.5-.9 2.9-.7-1-1.2-.7-2h.1q.3-.5 1.2-.7-4.6-3.7-4-5.1h.1q1.5-2.7 21.6 5l2.5.9-1.3-1.7-.5-.4q-5.7-4.5-5-6 .5-.9 3-.7-1-1.3-.7-2t1.3-.7q-4.6-3.7-4-5.2.7-1.2 5-.3-3.2-3-2.7-4.2.5-.8 3-.7-1-1.2-.7-2 .3-.5 1.3-.7-4.7-3.7-4-5.1 1.5-2.7 21.6 5l10.8 4 3.7 1.3 1.8.8.8.3 2.5.9zm-82.4 32.3q1.4-2.7 21.5 5l4.8 1.7 7.8 2.8 10.4 4h.3l.2.1 3.6 1.4 1.8.6.8.4 2.5.9 3 1 .4.2q1.5.4 2.5 1.5v.1l1.2 1.8.1.3.3 1 .9.3.3.1q1.5.4 2.5 1.5l.1.1 1.2 1.8v.3l.2.3q.8 2.4 0 5l-.7 1.6.9 1.4v.3l.2.3q.8 2.4 0 5-.9 3-3.4 4.5l-.9.5q-2 .9-4.1.3-1.5-.5-8.7-4.7l-3.8.1q-1.8-.6-12-6.7l-6-3.7-4-2.5q-8.7-5.4-13.3-9-3.9-3-4.8-4.6l-.5-.5q-5.7-4.4-5-6 .5-.9 3-.7-1-1.2-.7-2 .3-.5 1.3-.7-4.6-3.7-4-5.1" transform="translate(-35.9 218.95)"/><path id="O" fill="url(#i)" d="M3.3 11.4.8 13.3l-4-1.4-.8-2.7 2.6-.6 3.3.8z" transform="translate(4 -8.6)"/><clipPath id="x"><path d="M1 1h204v240H1z"/></clipPath></defs><g clip-path="url(#x)"><g transform="translate(33.3 200.1)"><use xlink:href="#y" width="121.8" height="174.3" transform="translate(-31.85 -172.85)"/><use xlink:href="#z" width="13.3" height="11.8" transform="rotate(-.972 -9929.293 -4524.486)scale(1.1727)"/><use xlink:href="#A" width="6.7" height="6.7" transform="rotate(89.025 122.723 -40.84)scale(.8988)"/><use xlink:href="#B" width="3.6" height="12" transform="matrix(1.1725 -.0199 .0199 1.1725 74.6 -173.4)"/><use xlink:href="#A" width="6.7" height="6.7" transform="rotate(89.025 129.513 -47.565)scale(.8988)"/><use xlink:href="#A" width="6.7" height="6.7" transform="rotate(89.025 130.169 -41.66)scale(.8988)"/><use xlink:href="#B" width="3.6" height="12" transform="rotate(-.972 -10662.99 -4866.602)scale(1.1727)"/><use xlink:href="#A" width="6.7" height="6.7" transform="rotate(89.025 136.934 -48.41)scale(.8988)"/><use xlink:href="#C" width="13.3" height="11.8" transform="rotate(-.972 -7820.784 -3003.928)scale(1.1727)"/><use xlink:href="#D" width="6.7" height="6.7" transform="rotate(89.025 91.664 -35.809)scale(.8988)"/><use xlink:href="#E" width="3.6" height="12" transform="rotate(-.972 -8071.586 -2961.86)scale(1.1727)"/><use xlink:href="#D" width="6.7" height="6.7" transform="rotate(89.025 98.454 -42.534)scale(.8988)"/><use xlink:href="#D" width="6.7" height="6.7" transform="rotate(89.025 99.11 -36.628)scale(.8988)"/><use xlink:href="#E" width="3.6" height="12" transform="rotate(-.972 -8554.482 -3346.044)scale(1.1727)"/><use xlink:href="#D" width="6.7" height="6.7" transform="rotate(89.025 105.875 -43.379)scale(.8988)"/><use xlink:href="#F" width="13.3" height="11.8" transform="rotate(-.972 -6813.87 -2220.48)scale(1.1727)"/><use xlink:href="#G" width="6.7" height="6.7" transform="rotate(89.025 76.341 -33.897)scale(.8988)"/><use xlink:href="#H" width="3.6" height="12" transform="rotate(-.972 -7064.67 -2178.412)scale(1.1727)"/><use xlink:href="#G" width="6.7" height="6.7" transform="rotate(89.025 83.131 -40.622)scale(.8988)"/><use xlink:href="#G" width="6.7" height="6.7" transform="rotate(89.025 83.787 -34.716)scale(.8988)"/><use xlink:href="#H" width="3.6" height="12" transform="rotate(-.972 -7547.567 -2562.596)scale(1.1727)"/><use xlink:href="#G" width="6.7" height="6.7" transform="rotate(89.025 90.552 -41.467)scale(.8988)"/><use xlink:href="#I" width="13.3" height="11.8" transform="rotate(-.972 -5730.278 -1445.22)scale(1.1727)"/><use xlink:href="#J" width="6.7" height="6.7" transform="rotate(89.025 60.432 -31.258)scale(.8988)"/><use xlink:href="#K" width="3.6" height="12" transform="rotate(-.972 -5981.08 -1403.152)scale(1.1727)"/><use xlink:href="#J" width="6.7" height="6.7" transform="rotate(89.025 67.223 -37.984)scale(.8988)"/><use xlink:href="#J" width="6.7" height="6.7" transform="rotate(89.025 67.878 -32.078)scale(.8988)"/><use xlink:href="#K" width="3.6" height="12" transform="rotate(-.972 -6463.976 -1787.336)scale(1.1727)"/><use xlink:href="#J" width="6.7" height="6.7" transform="rotate(89.025 74.643 -38.828)scale(.8988)"/><use xlink:href="#L" width="13.3" height="11.8" transform="rotate(-.972 -4655.576 -664.143)scale(1.1727)"/><use xlink:href="#M" width="6.7" height="6.7" transform="rotate(89.025 44.55 -28.746)scale(.8988)"/><use xlink:href="#N" width="3.6" height="12" transform="rotate(-.972 -4906.377 -622.075)scale(1.1727)"/><use xlink:href="#M" width="6.7" height="6.7" transform="rotate(89.025 51.34 -35.471)scale(.8988)"/><use xlink:href="#M" width="6.7" height="6.7" transform="rotate(89.025 51.996 -29.565)scale(.8988)"/><use xlink:href="#N" width="3.6" height="12" transform="matrix(1.1725 -.0199 .0199 1.1725 16.3 -91.6)"/><use xlink:href="#M" width="6.7" height="6.7" transform="rotate(89.025 58.76 -36.316)scale(.8988)"/><use xlink:href="#L" width="13.3" height="11.8" transform="rotate(-.972 -3519.353 158.706)scale(1.1727)"/><use xlink:href="#M" width="6.7" height="6.7" transform="rotate(89.025 27.783 -26.064)scale(.8988)"/><use xlink:href="#N" width="3.6" height="12" transform="rotate(-.972 -3770.155 200.774)scale(1.1727)"/><use xlink:href="#M" width="6.7" height="6.7" transform="rotate(89.025 34.573 -32.79)scale(.8988)"/><use xlink:href="#M" width="6.7" height="6.7" transform="rotate(89.025 35.23 -26.883)scale(.8988)"/><use xlink:href="#N" width="3.6" height="12" transform="rotate(-.972 -4253.051 -183.41)scale(1.1727)"/><use xlink:href="#M" width="6.7" height="6.7" transform="rotate(89.025 41.994 -33.634)scale(.8988)"/><use xlink:href="#O" width="7.3" height="4.7" transform="rotate(-.972 -2497.478 568.088)scale(1.1727)"/><use xlink:href="#M" width="6.7" height="6.7" transform="rotate(89.025 19.655 -25.024)scale(.8988)"/><use xlink:href="#N" width="3.6" height="12" transform="rotate(-.972 -3234.476 614.87)scale(1.1727)"/><use xlink:href="#M" width="6.7" height="6.7" transform="rotate(89.025 26.445 -31.75)scale(.8988)"/><use xlink:href="#L" width="13.3" height="11.8" transform="rotate(-.972 -1806.406 1419.57)scale(1.1727)"/><use xlink:href="#M" width="6.7" height="6.7" transform="rotate(89.025 2.332 -22.196)scale(.8988)"/><use xlink:href="#N" width="3.6" height="12" transform="rotate(-.972 -2057.207 1461.638)scale(1.1727)"/><use xlink:href="#M" width="6.7" height="6.7" transform="rotate(89.025 9.122 -28.921)scale(.8988)"/><use xlink:href="#M" width="6.7" height="6.7" transform="rotate(89.025 9.778 -23.015)scale(.8988)"/><use xlink:href="#N" width="3.6" height="12" transform="rotate(-.972 -2540.104 1077.455)scale(1.1727)"/><use xlink:href="#M" width="6.7" height="6.7" transform="rotate(89.025 16.543 -29.766)scale(.8988)"/><use xlink:href="#P" width="121.8" height="171.8" transform="translate(-32.3 -199.1)"/><use xlink:href="#Q" width="13.3" height="11.8" transform="rotate(-.972 -8945.572 -3785.43)scale(1.1727)"/><use xlink:href="#R" width="6.7" height="6.7" transform="rotate(89.025 107.979 -38.746)scale(.8988)"/><use xlink:href="#S" width="3.6" height="12" transform="rotate(-.972 -9196.373 -3743.363)scale(1.1727)"/><use xlink:href="#R" width="6.7" height="6.7" transform="rotate(89.025 114.769 -45.472)scale(.8988)"/><use xlink:href="#R" width="6.7" height="6.7" transform="rotate(89.025 115.425 -39.566)scale(.8988)"/><use xlink:href="#S" width="3.6" height="12" transform="rotate(-.972 -9679.27 -4127.547)scale(1.1727)"/><use xlink:href="#R" width="6.7" height="6.7" transform="rotate(89.025 122.19 -46.316)scale(.8988)"/><use xlink:href="#T" width="143.1" height="164.5" transform="rotate(.287 28896.783 -2477.64)scale(1.058)"/><use xlink:href="#U" width="60" height="34" transform="matrix(1.0885 .0054 -.0054 1.0885 76.5 -124)"/><use xlink:href="#V" width="25.4" height="19.4" transform="matrix(-1.0885 -.0054 -.0054 1.0885 86.55 -125.6)"/><use xlink:href="#V" width="25.4" height="19.4" transform="matrix(-1.0885 -.0054 -.0054 1.0885 106.3 -115.65)"/><use xlink:href="#V" width="25.4" height="19.4" transform="matrix(-1.0885 -.0054 -.0054 1.0885 126.1 -105.8)"/><use xlink:href="#V" width="25.4" height="19.4" transform="matrix(-1.0885 -.0054 -.0054 1.0885 145.9 -95.75)"/><use xlink:href="#V" width="25.4" height="19.4" transform="matrix(-1.0885 -.0054 -.0054 1.0885 94.15 -137.45)"/><use xlink:href="#V" width="25.4" height="19.4" transform="matrix(-1.0885 -.0054 -.0054 1.0885 113.9 -127.35)"/><use xlink:href="#V" width="25.4" height="19.4" transform="matrix(-1.0885 -.0054 -.0054 1.0885 134.3 -117.45)"/><use xlink:href="#V" width="25.4" height="19.4" transform="matrix(-1.0885 -.0054 -.0054 1.0885 153.75 -107.45)"/><use xlink:href="#U" width="60" height="34" transform="rotate(.284 20409.09 11973.417)scale(1.0885)"/><use xlink:href="#W" width="25.4" height="19.4" transform="matrix(-1.0885 -.0054 -.0054 1.0885 69.7 -102.7)"/><use xlink:href="#W" width="25.4" height="19.4" transform="matrix(-1.0885 -.0054 -.0054 1.0885 89.45 -92.75)"/><use xlink:href="#W" width="25.4" height="19.4" transform="matrix(-1.0885 -.0054 -.0054 1.0885 109.25 -82.9)"/><use xlink:href="#W" width="25.4" height="19.4" transform="matrix(-1.0885 -.0054 -.0054 1.0885 129.05 -72.85)"/><use xlink:href="#W" width="25.4" height="19.4" transform="matrix(-1.0885 -.0054 -.0054 1.0885 77.3 -114.55)"/><use xlink:href="#W" width="25.4" height="19.4" transform="matrix(-1.0885 -.0054 -.0054 1.0885 97.05 -104.45)"/><use xlink:href="#W" width="25.4" height="19.4" transform="matrix(-1.0885 -.0054 -.0054 1.0885 117.45 -94.55)"/><use xlink:href="#W" width="25.4" height="19.4" transform="matrix(-1.0885 -.0054 -.0054 1.0885 136.9 -84.55)"/><use xlink:href="#U" width="60" height="34" transform="rotate(.284 15784.49 8548.008)scale(1.0885)"/><use xlink:href="#X" width="25.4" height="19.4" transform="matrix(-1.0885 -.0054 -.0054 1.0885 52.65 -79.8)"/><use xlink:href="#X" width="25.4" height="19.4" transform="matrix(-1.0885 -.0054 -.0054 1.0885 72.4 -69.85)"/><use xlink:href="#X" width="25.4" height="19.4" transform="matrix(-1.0885 -.0054 -.0054 1.0885 92.2 -60)"/><use xlink:href="#X" width="25.4" height="19.4" transform="matrix(-1.0885 -.0054 -.0054 1.0885 112 -49.95)"/><use xlink:href="#X" width="25.4" height="19.4" transform="matrix(-1.0885 -.0054 -.0054 1.0885 60.25 -91.65)"/><use xlink:href="#X" width="25.4" height="19.4" transform="matrix(-1.0885 -.0054 -.0054 1.0885 80 -81.55)"/><use xlink:href="#X" width="25.4" height="19.4" transform="matrix(-1.0885 -.0054 -.0054 1.0885 100.4 -71.65)"/><use xlink:href="#X" width="25.4" height="19.4" transform="matrix(-1.0885 -.0054 -.0054 1.0885 119.85 -61.65)"/><use xlink:href="#U" width="60" height="34" transform="rotate(.284 11189.901 5031.815)scale(1.0885)"/><use xlink:href="#Y" width="25.4" height="19.4" transform="matrix(-1.0885 -.0054 -.0054 1.0885 35.15 -57.05)"/><use xlink:href="#Y" width="25.4" height="19.4" transform="matrix(-1.0885 -.0054 -.0054 1.0885 54.9 -47.1)"/><use xlink:href="#Y" width="25.4" height="19.4" transform="matrix(-1.0885 -.0054 -.0054 1.0885 74.7 -37.25)"/><use xlink:href="#Y" width="25.4" height="19.4" transform="matrix(-1.0885 -.0054 -.0054 1.0885 94.5 -27.2)"/><use xlink:href="#Y" width="25.4" height="19.4" transform="matrix(-1.0885 -.0054 -.0054 1.0885 42.75 -68.9)"/><use xlink:href="#Y" width="25.4" height="19.4" transform="matrix(-1.0885 -.0054 -.0054 1.0885 62.5 -58.8)"/><use xlink:href="#Y" width="25.4" height="19.4" transform="matrix(-1.0885 -.0054 -.0054 1.0885 82.9 -48.9)"/><use xlink:href="#Y" width="25.4" height="19.4" transform="matrix(-1.0885 -.0054 -.0054 1.0885 102.35 -38.9)"/><use xlink:href="#U" width="60" height="34" transform="rotate(.284 6494.875 1656.975)scale(1.0885)"/><use xlink:href="#Z" width="25.4" height="19.4" transform="matrix(-1.0885 -.0054 -.0054 1.0885 18.35 -33.8)"/><use xlink:href="#Z" width="25.4" height="19.4" transform="matrix(-1.0885 -.0054 -.0054 1.0885 38.1 -23.85)"/><use xlink:href="#Z" width="25.4" height="19.4" transform="matrix(-1.0885 -.0054 -.0054 1.0885 57.9 -14)"/><use xlink:href="#Z" width="25.4" height="19.4" transform="matrix(-1.0885 -.0054 -.0054 1.0885 77.7 -3.95)"/><use xlink:href="#Z" width="25.4" height="19.4" transform="matrix(-1.0885 -.0054 -.0054 1.0885 25.95 -45.65)"/><use xlink:href="#Z" width="25.4" height="19.4" transform="matrix(-1.0885 -.0054 -.0054 1.0885 45.7 -35.55)"/><use xlink:href="#Z" width="25.4" height="19.4" transform="matrix(-1.0885 -.0054 -.0054 1.0885 66.1 -25.65)"/><use xlink:href="#Z" width="25.4" height="19.4" transform="matrix(-1.0885 -.0054 -.0054 1.0885 85.55 -15.65)"/><use xlink:href="#aa" width="60" height="34" transform="rotate(.284 1910.24 -1909.637)scale(1.0885)"/><use xlink:href="#ab" width="25.4" height="19.4" transform="matrix(-1.0885 -.0054 -.0054 1.0885 .6 -11.1)"/><use xlink:href="#ab" width="25.4" height="19.4" transform="rotate(-179.716 10.174 -.6)scale(1.0885 -1.0885)"/><use xlink:href="#ab" width="25.4" height="19.4" transform="matrix(-1.0885 -.0054 -.0054 1.0885 40.15 8.7)"/><use xlink:href="#ab" width="25.4" height="19.4" transform="rotate(-179.716 29.998 9.3)scale(1.0885 -1.0885)"/><use xlink:href="#ab" width="25.4" height="19.4" transform="matrix(-1.0885 -.0054 -.0054 1.0885 8.2 -22.95)"/><use xlink:href="#ab" width="25.4" height="19.4" transform="rotate(-179.716 13.96 -6.46)scale(1.0885 -1.0885)"/><use xlink:href="#ab" width="25.4" height="19.4" transform="matrix(-1.0885 -.0054 -.0054 1.0885 48.35 -2.95)"/><use xlink:href="#ab" width="25.4" height="19.4" transform="matrix(-1.0885 -.0054 -.0054 1.0885 67.8 7.05)"/><use xlink:href="#U" width="60" height="34" transform="rotate(.284 29628.027 18814.232)scale(1.0885)"/><use xlink:href="#ac" width="25.4" height="19.4" transform="matrix(-1.0885 -.0054 -.0054 1.0885 103.75 -148.35)"/><use xlink:href="#ac" width="25.4" height="19.4" transform="matrix(-1.0885 -.0054 -.0054 1.0885 123.5 -138.4)"/><use xlink:href="#ac" width="25.4" height="19.4" transform="matrix(-1.0885 -.0054 -.0054 1.0885 143.3 -128.55)"/><use xlink:href="#ac" width="25.4" height="19.4" transform="matrix(-1.0885 -.0054 -.0054 1.0885 163.1 -118.5)"/><use xlink:href="#ac" width="25.4" height="19.4" transform="matrix(-1.0885 -.0054 -.0054 1.0885 111.35 -160.2)"/><use xlink:href="#ac" width="25.4" height="19.4" transform="matrix(-1.0885 -.0054 -.0054 1.0885 131.1 -150.1)"/><use xlink:href="#ac" width="25.4" height="19.4" transform="matrix(-1.0885 -.0054 -.0054 1.0885 151.5 -140.2)"/><use xlink:href="#ac" width="25.4" height="19.4" transform="rotate(.284 26330.58 34394.2)scale(-1.0885 1.0885)"/></g></g></svg>