<svg xmlns="http://www.w3.org/2000/svg" xmlns:xlink="http://www.w3.org/1999/xlink" width="61" height="76" viewBox="0 0 61 76"><defs><g id="d"><path fill="#b19770" d="m2.9 1.4.9.3q-1 1-1.8 1z"/><path fill="#c0aa8b" d="M3 1.4 5.4.3l2.6 1-1.1 1H5.7L4.2 2H4l-.2-.2z"/><path fill="#5c4d32" d="m8 1.3 3.9 4.1L6 8.3l-.5-3.1V5l1.3-2.7z"/><path fill="#846f48" d="M6.1 8.3Q3.2 7.1.3 5.4L2 2.7q.8 0 1.8-1l.3.1V2l1.4 3.2.1.1z"/><path fill="#a68759" d="m4.2 1.9 1.5.4h1.2L5.6 5h-.1L4 2z"/><path fill="none" stroke="#000" stroke-linecap="round" stroke-linejoin="round" stroke-opacity=".3" stroke-width="__RESOLUTION__" d="M3 1.4h-.1 0L5.4.3l2.6 1 3.9 4.1M.3 5.4 2 2.7l.9-1.3" vector-effect="non-scaling-stroke"/></g><g id="u"><path fill="#624a15" d="m10.2 2.2 3-1.4q.8 0 .8 1.4 0 1.7-.6 2.8l-.7.9q-1.7-1-2.5-3.7.8 2.7 2.5 3.7-.9.8-2.4 1L9 7.2 8 7q1.8-2 2.2-4.8"/><path fill="#5b4613" d="m12.7 5.9.7-1q.5.5.6 1.8l-.3 1-1 1-.7.4q-.8-.4-1.7-2.1 1.5-.3 2.4-1.1"/><path fill="#513e11" d="M13.7 7.8h1l1.9-.7h.1q0 .6-.6 1 .4 1.4 2.5 1.4-1 .2-1.6.5l-1.6.2.6 2.4-1.3-2.3Q14 9 13 8.7h-.3z"/><path fill="#000" fill-opacity=".3" d="m13 8.7-.2 2.7q-4.1 3.3-11 0h-.1l-.1-2.7.3.3q1.7 1.3 4.4 1.6h1.5q2-.2 3.9-1.2L12 9l.7-.4z"/><path fill="#93701e" d="M1.7 8.7Q0 7 .1 5.6q.2-1 .6-1.7l.6-.6-.2-.2-.5-.8Q.2 1.6.4.8q.2-.7.9-.6h.4l2.4 1.2 1.3.5q-1.2 1.7-3 2.4l.3.3q1 .9 2.2 1.5-1.4.3-3 2.9zM1.3.2Q.9 2.1 2.4 4.3 1 2.1 1.3.2m0 3 1 1.1zM1.9 9Q.4 6 .7 3.9.4 6 1.9 8.9"/><path fill="#7b5e1a" d="M5.4 1.9q1.9.8 2.3.8l2.5-.5Q9.8 5.1 8 7q-1.6-.2-3-.9-1.2-.6-2.3-1.5l-.3-.2v-.1q1.9-.7 3-2.4Q6 5.3 8 7 6 5.3 5.4 1.9m2.3 8.7H6.4Q3.6 10.4 1.9 9q1.6-2.6 3-2.9 2.6 1.7 2.8 4.5"/><path fill="#6c5317" d="M8 7h2.3Q11 8.7 12 9l-.3.3q-1.8 1-4 1.2Q7.6 7.8 5 6q1.5.7 3 .9m2.3 0q-.3 2-2.4 3.6Q9.9 9 10.3 7"/><path fill="none" stroke="#000" stroke-linecap="round" stroke-linejoin="round" stroke-opacity=".3" stroke-width="__RESOLUTION__" d="M13.4 5q.5-1.1.5-2.8 0-1.4-.7-1.4l-3 1.4q.8 2.7 2.5 3.7zq.5.5.6 1.8l-.3 1 1 .2 1.9-.8h.1q0 .6-.6 1 .4 1.4 2.5 1.4-1 .2-1.6.5l-1.6.2.6 2.4-1.3-2.3Q14 9 13 8.7h-.3L12 9q-.8-.4-1.7-2.1H8q1.8-2 2.2-4.8l-2.5.5q-.4 0-2.3-.8l-1.3-.5L1.7.1h-.4Q.6 0 .4.8t.2 1.5l.5.8.2.1-.6.7q-.4.7-.5 1.7Q0 7 1.5 8.6v.1L2 9q1.7 1.3 4.4 1.6h1.5q2-.2 3.9-1.2L12 9m-1.7-2q1.5-.3 2.4-1.1m0 2.8 1-1M2.3 4.5l.3.3q1 .9 2.2 1.5 1.5.7 3 .9-2-1.7-2.5-5.1-1.2 1.7-3 2.4Q1 2.1 1.3.2m1 4.1-1-1m-.6.6Q.4 6 1.9 8.9q1.6-2.5 3-2.8 2.6 1.7 2.8 4.5Q10 9 10.4 7" vector-effect="non-scaling-stroke"/><path fill="#000" fill-opacity=".3" d="M13 5.3q.3-.6.8.5t-.7 1.8q-4.4 1.9-7.7.8Q2 7.2.1 5.9.1 4 1 3.3L3.1 5l2.3 1.4Q7 7 7.7 7 10 7 12 6.3l.4-.2z"/></g><g id="t"><path fill="none" stroke="#000" stroke-linecap="round" stroke-linejoin="round" stroke-opacity=".2" stroke-width="__RESOLUTION__" d="M15.5 16.7q2-4.1 2-8.7 0-4.8-2-4.8l-1 .7-1.7-1.1-.6 3.5q0 11.5 3.3 21.3M7.7 44.5Q9.9 36 9.9 31.3q0-4-1.5-13.1L7 9.2q1.1-4.5 1.1-5.8l-.5-1.6m13-1.7q-.3 2.4-.3 14.8l.1 14.6q.3 3.9 1.7 6.5m-6.9-7.2q2.5 1.4 3.1 4.8.2 1.1.2 6.3 0 10.2-1.4 15-2 6.9-2.4 9.3m-3.3-13.6q-.4-6.6 2.5-16l1.2.1" vector-effect="non-scaling-stroke"/><path fill="#544b2c" d="m14.7 59.4-12 5.3v-2.3z"/><path fill="#7f6840" d="M2.7 64.7.3 64v-2.2l2.4.6z"/><path fill="#867846" d="m.3 61.8 12.3-2.9 2 .5-12 3z"/><path fill="none" stroke="#000" stroke-linecap="round" stroke-linejoin="round" stroke-opacity=".3" stroke-width="__RESOLUTION__" d="M2.7 64.7.3 64v-2.2l12.3-2.9" vector-effect="non-scaling-stroke"/><path fill="#605631" d="M11 50v-.1L27.3 42l7.4 3.7-9.6 4.6L13 54.1z"/><path fill="#7f6840" d="m11 50 2 4 .8 1.7V64l-3.4 1.2-7.3-3.7-1.8-4v-5.4l4.9-4.6zm-.3 3q-2.8-3-3.5-3-1 0-3.4 1.4-.3.1-.5 2.3l-.4 2.4L4 59.5l2.4 2.9h1.8l1.3-.8 2.3-3.9q-1-4.3-1-4.9"/><path fill="#775f3c" d="m13 54 12.1-3.6-11.2 5.4-.1-.1z"/><path fill="#544b2c" d="m25.1 50.4 9.6-4.6 7.3 3.7-28.2 14.3v-8z"/><path fill="#867846" d="M27.3 42 11 50h-.1l-4.7-2.4 15.8-8z"/><path fill="#948a38" d="m7.4 53.4-2.7 2.5 1.9 2.6h1.2L6.9 61l2.2-1.5v-3.3zm3.4-.5 1 4.9-2.4 3.8-1.2.8H6.5l-2.5-3-1.1-3.3.4-2.4q.2-2.2.5-2.3Q6.2 50 7.2 50q.7 0 3.6 2.9"/><path fill="#aca042" d="m7.4 53.4 1.7 2.8v3.3L6.9 61l.8-2.5h-1l-1.9-2.6z"/><path fill="#544b2c" d="m23.4 58.9-10.6 5.9-.2-2z"/><path fill="#7f6840" d="m12.8 64.8-2.3-.4-.1-2 2.2.4z"/><path fill="#867846" d="m10.4 62.5 11.1-3.8 1.9.2-10.8 3.9z"/><path fill="none" stroke="#000" stroke-linecap="round" stroke-linejoin="round" stroke-opacity=".3" stroke-width="__RESOLUTION__" d="m12.8 64.8-2.3-.4-.1-2 11.1-3.7" vector-effect="non-scaling-stroke"/><path fill="#544b2c" d="M22 56.4 9.5 61.6v-2.3z"/><path fill="#7f6840" d="M9.5 61.6 7 60.9v-2.2l2.5.6z"/><path fill="#867846" d="m7 58.7 12.8-2.9 2.1.6-12.4 2.9z"/><path fill="none" stroke="#000" stroke-linecap="round" stroke-linejoin="round" stroke-opacity=".3" stroke-width="__RESOLUTION__" d="M9.5 61.6 7 60.9v-2.2l12.8-2.9" vector-effect="non-scaling-stroke"/><path fill="#867846" d="m14.8 44 2.3.6-13.5 3.6-2.7-.5z"/><path fill="#544b2c" d="M17.1 44.6 3.6 50.7v-2.5z"/><path fill="#7f6840" d="m3.6 50.7-2.7-.6v-2.4l2.7.5z"/><path fill="none" stroke="#000" stroke-linecap="round" stroke-linejoin="round" stroke-opacity=".3" stroke-width="__RESOLUTION__" d="m3.6 50.7-2.7-.6v-2.4L14.8 44" vector-effect="non-scaling-stroke"/><path fill="#000" fill-opacity=".3" d="M14.8 27.6q.6 0 .6.4l-1.3 3.1-.7 1.4q0 1.3 1 2.9.9 1.3 2.6 2.8l-.8.4-2.3-2.6q-1.4-1.7-1.4-2.8 0-.9.9-2.4l.3-.5q1.1-1.9 1.1-2.5zm-2.6 9.6-.6 1.5-.2.4q-1.5 3.7-2.2 3.7h-.1q1.6-5.1 2.2-5.7V37h.3zM7.9 26.3h.3q.6 0 1.1 2.4l.6.8.8.8-.3.4h-.1q-1.1-1-1.6-2.4z"/><path fill="#f3bc3f" d="M16.2 38.6h-.6q-4.1-3-4.1-5.1l1.7-3.2 1.6-2.7v.2q0 .6-1.1 2.5l-.3.5q-.9 1.6-.9 2.4 0 1 1.4 2.8zm-7.1 4.2v.1l-.2.2-.2-1.2v-.4l1.4-3.3.2-.5.4-1 .6.4q-.6.6-2.2 5.7M7.6 27.6v-1.7l.3.4.8 2q.5 1.4 1.6 2.4l-.6.4-.2-.2-1-1.5zm2.9 4.9.2.5-.2.5-.4.3-.5-.3-.2-.5.2-.5.5-.2zm-.3 2.8-.3-.1-.2-.4.2-.3.3-.1.2.1.2.4-.2.3zm-1.7 0 .3-.1.3.1.2.4-.2.4-.3.1-.4-.1z"/><path fill="#f9d990" d="M15.6 38.7h-.2l-2.7-1.4-.5-.1-.6-.1-.2-.1-.2.1-.5-.4-.4 1-.2.5-1.4 3.3q-.6-4.1-1.6-5.5l-1-1.7v-.7l1.2.3q.3 0 .3-1.3v-5l.8 1.8 1 1.5.3.2.6-.4h.1l.3-.4.4-.4q1-1.2 3.4-3l.3.7-1.6 2.7-1.7 3.2q0 2.1 4.1 5.2m-5.1-6.2-.4-.2-.5.2-.2.5.2.5.5.3.4-.3.2-.5zm-.3 2.8.2-.1.2-.4-.2-.3-.2-.1-.3.1-.2.4.2.3zM8.6 34q.2 0 .3-.2l.2-.4-.2-.4-.3-.2q-.3 0-.4.2l-.2.4.2.4q.1.2.4.2m-.2 1.4v.7l.4.1.3-.1.2-.4-.2-.4-.3-.1z"/><path fill="#fbe9bf" d="M8.6 34q-.3 0-.4-.2l-.2-.4.2-.4q.1-.2.4-.2l.3.2.2.4-.2.4q-.1.2-.3.2"/><path fill="none" stroke="#000" stroke-linecap="round" stroke-linejoin="round" stroke-opacity=".2" stroke-width="__RESOLUTION__" d="M16.2 38.6h-.4m-.2 0h-.2l-2.7-1.2-.5-.2-.6-.1-.2-.1-.2.1q-.5.6-2.1 5.7v.1l-.2.2-.2-1.2m0-.4q-.6-4.1-1.6-5.5l-1-1.7v-.7l1.2.3q.3 0 .3-1.3v-5m0-.5V26l.3.4.8 2q.5 1.4 1.6 2.4h.1l.3-.4.4-.4q1-1.2 3.4-3l.3.7v.2q0 .6-1.1 2.5l-.3.5q-.9 1.6-.9 2.4 0 1 1.4 2.8l2.3 2.6" vector-effect="non-scaling-stroke"/></g><g id="s" transform="translate(.4 2.55)"><use xlink:href="#a" width="12.3" height="44.7" transform="translate(-.3 2.35)"/><use xlink:href="#b" width="8.8" height="52" transform="matrix(-.66 .34 0 1 11.4 2.8)"/><use xlink:href="#c" width="8.8" height="52" transform="matrix(.66 .34 0 1 -.15 2.8)"/><use xlink:href="#d" width="12.1" height="8.3" transform="translate(-.4 -2.55)"/></g><g id="r"><path fill="#000" fill-opacity=".3" d="M.2 33.8q6.5-2.9 10.7-7l.1 12.1-10.8 6L0 43l1.1-.5.1-6.3z"/><path fill="url(#e)" d="M31.3 14.7q3.6 2.5-.9 2.7-1 0-.8-1.1.3-1.5 1.6-1.6" transform="translate(-12.4 -14.7)"/></g><g id="q"><path fill="#4f4e2c" d="m17.2 21.6-12 5.3v-2.3z"/><path fill="#786a3f" d="m5.2 26.9-2.4-.7V24l2.4.6z"/><path fill="#7e7945" d="m2.8 24 12.3-3 2.1.6-12 3z"/><path fill="none" stroke="#000803" stroke-linecap="round" stroke-linejoin="round" stroke-opacity=".3" stroke-width="__RESOLUTION__" d="m5.2 26.9-2.4-.7V24l12.3-3" vector-effect="non-scaling-stroke"/><path fill="#4f4e2c" d="m33.4 6.4 3.5 1.8V12L12.6 24.4v-8L23.9 11z"/><path fill="#5a5931" d="m33.4 6.4-9.5 4.5-12.1 3.7-2-4.1v-.1L26 2.6z"/><path fill="#70613b" d="m23.9 11-11.3 5.4v-.1l-.8-1.7z"/><path fill="#786a3f" d="M12.6 16.4v8.1l-3.4 1.2L1.8 22 0 18l.1-5.4L4.9 8l4.8 2.4.1.1 2 4.1zM6 10.6q-1 0-3.4 1.3-.4.2-.6 2.3l-.4 2.4L2.8 20l2.4 3h1.7q1-.4 1.3-.9l2.3-3.8-1-4.9Q6.8 10.6 6 10.6"/><path fill="#7e7945" d="m4.9 8 15.9-8L26 2.6 9.8 10.4h-.2z"/><path fill="#8b8a37" d="M6 10.6q.7 0 3.6 2.8l.9 4.9-2.3 3.8q-.3.5-1.3.8H5.2L2.8 20l-1.2-3.4.4-2.4q.3-2.1.5-2.2Q5 10.5 6 10.5m1.8 6.1L6.2 14l-2.7 2.4L5.3 19h1.2l-.8 2.6L7.8 20z"/><path fill="#a29f41" d="M7.8 16.7v3.4l-2.1 1.4.8-2.4-1.2-.1-1.8-2.6L6.2 14z"/><path fill="#4f4e2c" d="m20.8 17.9-10.6 5.9-.2-2z"/><path fill="#786a3f" d="m10.2 23.8-2.3-.4-.1-2 2.2.4z"/><path fill="#7e7945" d="m7.8 21.5 11.1-3.9 1.9.3L10 21.8z"/><path fill="none" stroke="#000803" stroke-linecap="round" stroke-linejoin="round" stroke-opacity=".3" stroke-width="__RESOLUTION__" d="m10.2 23.8-2.3-.4-.1-2 11.1-3.7" vector-effect="non-scaling-stroke"/><path fill="#4f4e2c" d="m24.8 16.4-12.5 5V19z"/><path fill="#786a3f" d="m12.3 21.4-2.5-.7v-2.2l2.5.6z"/><path fill="#7e7945" d="m9.9 18.5 12.8-2.7 2.1.6-12.5 2.7z"/><path fill="none" stroke="#000803" stroke-linecap="round" stroke-linejoin="round" stroke-opacity=".3" stroke-width="__RESOLUTION__" d="m12.3 21.4-2.5-.7v-2.2l12.9-2.7" vector-effect="non-scaling-stroke"/><path fill="#4f4e2c" d="M17.9 5.8 3.2 12.4V9.7z"/><path fill="#786a3f" d="m3.2 12.4-3-.7V9.1l3 .7z"/><path fill="#7e7945" d="m.3 9.1 15-3.8 2.6.5-14.7 4z"/><path fill="none" stroke="#000803" stroke-linecap="round" stroke-linejoin="round" stroke-opacity=".3" stroke-width="__RESOLUTION__" d="m3.2 12.4-3-.7V9.1l15.1-3.8" vector-effect="non-scaling-stroke"/></g><path id="h" fill="url(#f)" d="M8.8 0v52H0Q2.6 24.8 0 0z"/><path id="m" fill="url(#g)" d="M8.8 0v52H0Q2.6 24.8 0 0z"/><path id="a" fill="none" stroke="#000" stroke-linecap="round" stroke-linejoin="round" stroke-opacity=".3" stroke-width="1" d="M11.5 2.9 11 23.6v2.6M.2 3q.4 10.4.5 20.8M11 31.5v-1.7m-10.4 0v3.5M.4 44.7l-.1 1.8m11-3.6v-1.7" transform="translate(.3 -2.35)"/><path id="n" fill="#000" fill-opacity=".3" d="m33.2 23.4-.2.2q-8.7 5.6-12.1 6.2l-.5-.4q.8-.9 3-2.2l.9-.6.3-.1 3.7-1.5 4.7-1.7zm5.2-6.7-4 1.6Q31 19.9 21 26l-7.3 4.6-5.8-1Q.3 30 0 27.2L2.4 25q1.8-2 6-4.6 4.4-2.6 7.5-3.5 4.5-1.3 9.8-4.1l2-1.2q6.1 2.6 10.7 5M23.6 15l-.4.3-3 2.1q1.4 0 4-1.2 2.6-1.4 3-2.4-1.5.3-3.6 1.3M8.3 30.9l1.1.2.6.8-1.2.3-6-.8 5-.6z" transform="translate(0 -11.65)"/><path id="v" fill="#000" fill-opacity=".3" d="m31.3 46.9 6.8-3.2 19.4 10.2-9.9 5-1.9-6.4-5.7-5z" transform="translate(-31.3 -43.65)"/><linearGradient id="f" x1="-819.2" x2="819.2" gradientTransform="matrix(0 .03 -.01 0 4.4 26.05)" gradientUnits="userSpaceOnUse" spreadMethod="pad"><stop offset=".5" stop-color="#846f48" stop-opacity="1"/><stop offset="1" stop-color="#3d3116" stop-opacity="0"/></linearGradient><linearGradient id="g" x1="-819.2" x2="819.2" gradientTransform="matrix(0 .03 -.01 0 4.4 26.05)" gradientUnits="userSpaceOnUse" spreadMethod="pad"><stop offset=".5" stop-color="#5c4d32" stop-opacity="1"/><stop offset="1" stop-color="#2a220f" stop-opacity="0"/></linearGradient><linearGradient id="e" x1="-819.2" x2="819.2" gradientTransform="matrix(0 0 0 0 31.2 16.05)" gradientUnits="userSpaceOnUse" spreadMethod="pad"><stop offset=".3" stop-color="#846f48" stop-opacity="1"/><stop offset="1" stop-color="#3d3116" stop-opacity="0"/></linearGradient><use xlink:href="#h" id="c" width="8.8" height="52"/><use xlink:href="#m" id="b" width="8.8" height="52"/><use xlink:href="#n" id="p" width="38.4" height="20.6"/><clipPath id="o"><path d="M1 1h59v74H1z"/></clipPath></defs><g clip-path="url(#o)"><g transform="translate(82.35 49.2)"><use xlink:href="#p" width="38.4" height="20.6" filter="url(#filter-object-0)" transform="translate(-63.6 3.7)scale(1.2702)"/><use xlink:href="#p" width="38.4" height="20.6" filter="url(#filter-object-2)" transform="translate(-81.35 -4.5)scale(1.2702)"/><use xlink:href="#q" width="36.9" height="27.1" transform="translate(-80.35 -13.5)"/><use xlink:href="#r" width="20.5" height="44.9" transform="translate(-68.95 -33.15)"/><use xlink:href="#s" width="12.3" height="60.3" transform="translate(-59.55 -48.2)scale(1.4958)"/><use xlink:href="#t" width="42" height="65.2" transform="translate(-65.65 -43.55)"/><use xlink:href="#u" width="18.8" height="13.1" transform="translate(-60.25 -32.1)scale(1.4045)"/><use xlink:href="#v" width="26.2" height="15.2" transform="translate(-50.05 -4.2)"/></g></g></svg>