<svg xmlns="http://www.w3.org/2000/svg" xmlns:xlink="http://www.w3.org/1999/xlink" width="56" height="65" viewBox="0 0 56 65"><defs><clipPath id="a"><path d="M1 1h54v63H1z"/></clipPath><g id="b"><path fill="#d1b67c" d="m49.1 14 1.4-.4zm3.8-.4-5.6 2.9-2.3-1.8 5-2.6zm-11.2 2.9q3.5-.4 3.1 1.3l-2.6 1.4q-.1-.4-2.9-1.5zM31.1 22l2.9-1.5 3.1 1.3-3.1 1.6zm-4.4 2.3 2.8 1.5-3.7 1.9-2.7-1.5zm-.9 1.8 1.1-.1z"/><path fill="#57462b" d="M47.3 16.5q4.5 8.5 5.8 5.4v9.9q-8.3 2.7-8.3-14zm-5.1 2.7Q43 21 44 33.9q1 11 4.3 12.6l-3.5 1.8q-4.2-4.3-4.1-16V32q1.3-7.3-3.6-10.2l3.7-2h.1zm-12.5 6.5 4.3-2.3q3.3 3.9-2 31.6l-6.2 3.2v-13q4.3-13.4 3.9-19.3zM37 52.4q-1.3-3-.7-5.5.4-2.1 1.8-2.8 1.2-.6 2 .9.8 1.8 0 5.7zm.2-18.9.6-5q.4-3.2.6 1.9t.5 7.1 0 3.2l-.5 1.5q-.2.3-1.2-.3t-.5-3.5z"/><path fill="#655232" d="M53 21.9q-1.2 3.1-5.7-5.4l5.6-2.9.1-.1zm-8.2-4.1q0 16.7 8.3 14v9l-2.8 4.6-2 1.1Q45 44.9 44 33.9q-1.1-13-2-14.7zm3.5 28.7 2-1v-.1l2.8-1.4v4L25.7 62.2v-4L32 55q5.3-27.7 2-31.6l3.1-1.6q5 2.9 3.6 10.2v.4q-.1 11.6 4.1 15.9l-4.6 2.4q.7-3.9-.1-5.7-.8-1.5-2-.9-1.4.6-1.9 2.8-.5 2.6.8 5.5L32 55l5-2.6 3.1-1.7 4.7-2.4zM29.5 25.8l.2-.1v.2q.4 5.9-3.9 19.3V27.7zm7.8 7.7-.5 4.9q-.4 2.9.5 3.5t1.2.3l.5-1.5q.3-1.1 0-3.2t-.5-7.1-.6-2zM51 47.6l.8-1zM27.2 59.5l2-.8zm-24.4-40 8.7 4.6-.4 17.6L3 46h-.1z"/><path fill="#c9a865" d="m47.3 16.5-2.5 1.3q.5-1.7-3.1-1.3l3.3-1.8zM31 22l2.9 1.4-4.3 2.3h-.2l-2.8-1.4zm6-.2-3-1.3 5.3-2.8q2.8 1 2.9 1.5l-1.3.7h-.1z"/><path fill="#d5bb86" d="m45 14.7-3.3 1.8-2.4 1.2-5.3 2.8-3 1.5-4.4 2.3-3.6 1.9-1.5-.8q13-5.9 22.5-16.5l6 3.2zm-7.3-9.1 2.9 1.6q-2.5 6.5-9.6 6.3-7.5.6-12 10.6l-1.7-1v-.3l1.3-1.7-2.9.1-2-1-.6.7-1.1-.6 7.6-4.3q5.6-4 1-4.2-6.5-1.6-11.3 7.1l-3.2-1.6Q14.7 6.8 24.5 6.9 35 8.5 37.7 5.6M21.5 3.4l6-3.1L32.6 3z"/><path fill="#ceb173" d="M40.6 7.2 44 8.9q-9.5 10.6-22.4 16.5L19 24.1q4.5-10 12-10.6 7.1.2 9.6-6.3m-8-4.2 5.1 2.6Q35 8.5 24.5 6.9q-9.9-.1-18.3 10.4l-5.6-3 21-10.9zM9.3 18.9q4.8-8.7 11.3-7.1 4.6.3-1 4.2L12 20.3z"/><path fill="#866d44" d="m19 24 2.6 1.4 1.4.8h.1l2.7 1.5v30.5L23 56.7V26.2v4l-4.2-2.3-2.3-1.1.8-3.6zM6.2 17.3l3.1 1.6 2.7 1.4 1 .6-.3 3.7-1.2-.5-8.7-4.6-2.5-1.2v30.4L2.8 50l23 12.2v-4L23 56.7 3 46h-.1V19.5L.3 18.3v-3.8l.3-.2zM2.8 50v-4z"/><path fill="#695534" d="m13 20.9.6-.7 2 1 2.9-.1-1.3 1.7-4.6 1.8z"/><path fill="#544529" d="M17.3 22.8v.4l-.8 3.6 2.3 1.1v9.9l4.2 1.8v8l-11.9-5.9.4-17.6 1.1.6.1-.1zm1.4 15-7.5 3.9z"/><path fill="#3e331e" d="M23 30.2v9.3l-4.2-1.7 4.2-2.3-4.2 2.3v-9.9z"/><path fill="#5e4d2f" d="M23 47.6v9.1L3 46l8.2-4.3z"/><path fill="none" stroke="#826c41" stroke-linecap="round" stroke-linejoin="round" stroke-width="__RESOLUTION__" d="m50.5 13.6-1.4.4M26.9 26h-1.1" vector-effect="non-scaling-stroke"/><path fill="none" stroke="#473923" stroke-linecap="round" stroke-linejoin="round" stroke-width="__RESOLUTION__" d="M53 21.9q-1.2 3.1-5.7-5.4m-2.5 1.3q0 16.7 8.3 14M42 19.2q.9 1.8 2 14.7.9 11 4.1 12.6M34 23.4q3.3 3.9-2 31.6m5-2.6q-1.3-3-.7-5.5.4-2.1 1.8-2.8 1.2-.6 2 .9.8 1.8 0 5.7m4.7-2.4q-4.2-4.3-4.1-16V32q1.3-7.3-3.6-10.2m.2 11.6-.5 4.9q-.4 2.9.5 3.5t1.2.3l.5-1.5q.3-1.1 0-3.2t-.5-7.1-.6-2zm-7.6-7.7v.2q.4 5.9-3.9 19.3" vector-effect="non-scaling-stroke"/><path fill="none" stroke="#000" stroke-linecap="round" stroke-linejoin="round" stroke-opacity=".3" stroke-width="__RESOLUTION__" d="M53 31.8V13.5l-.1.1-2.9-1.5-6-3.2-3.4-1.7-2.9-1.6-5-2.6L27.5.3l-6 3.1L.6 14.3l-.3-.1v34.5L2.8 50l23 12.2V45.7m19.2-31-3.3 1.8-2.4 1.2-5.3 2.8-3 1.5-4.4 2.3-3.6 1.9 2.7 1.5v17.5m22.5 1.3 2-1v-.1l2.8-4.6v-9m-3-19.7-5 2.6M32 55l5-2.6 3.1-1.7 4.7-2.4 3.5-1.8M25.9 58.2 32 55m-8.9-28.8v30.5l2.7 1.5m0 4L53 48v-4l-2.7 1.4m-50-31 .3-.1m-.3 4 2.5 1.2 8.7 4.6 1.1.6M3 46h-.1zl8.2-4.3 7.7-4 4.2-2.2m-6.5-8.7 2.3 1.1 4.2 2.3M2.8 19.5V46m.1 0 20.2 10.7M2.7 46.1V50" vector-effect="non-scaling-stroke"/><path fill="none" stroke="#b48d3f" stroke-linecap="round" stroke-linejoin="round" stroke-width="__RESOLUTION__" d="M47.3 16.5 45 14.7m-3.3 1.8q3.5-.4 3.1 1.3M31.1 22l2.9 1.4m3.1-1.6L34 20.5m-7.3 3.8 2.8 1.5m12.6-6.6q0-.4-2.8-1.5" vector-effect="non-scaling-stroke"/><path fill="none" stroke="#ae915e" stroke-linecap="round" stroke-linejoin="round" stroke-width="__RESOLUTION__" d="M40.6 7.2q-2.5 6.5-9.6 6.3-7.5.6-12 10.6m2.6 1.3Q34.5 19.5 44 8.9m-6.3-3.3Q35 8.5 24.5 6.9q-9.9-.1-18.3 10.4m3.1 1.6q4.8-8.7 11.3-7.1 4.6.3-1 4.2L12 20.3m9.5-16.9L32.7 3" vector-effect="non-scaling-stroke"/><path fill="none" stroke="#5e4d2f" stroke-linecap="round" stroke-linejoin="round" stroke-width="__RESOLUTION__" d="m51.7 46.6-.8 1m-21.6 11-2.2.9" vector-effect="non-scaling-stroke"/><path fill="none" stroke="#000" stroke-linecap="round" stroke-linejoin="round" stroke-opacity=".3" stroke-width="__RESOLUTION__" d="m17.3 22.8-4.6 1.8m4.6-1.4-.8 3.6" vector-effect="non-scaling-stroke"/><path fill="#77724d" d="m9.3 45.8-2.7.7.1-2zm13.2 6.8-2.6.9v-2.2zM16 49.2l-2.6.9.1-2.1z"/><path fill="#817b52" d="m6.7 44.5-.1 2 2.7-.7 4.2 2.2-.1 2 2.6-.7 4 2-.1 2.2 2.6-.9.5.3v3.5L3 45.9l3.3-1.7z"/><path fill="none" stroke="#545136" stroke-linecap="round" stroke-linejoin="round" stroke-width="__RESOLUTION__" d="m3 45.9 20 10.5" vector-effect="non-scaling-stroke"/><path fill="#676343" d="M19.8 35.6v-7q1.7 1 2.2 1.1v6.5l-1 .5z"/><path fill="#b0ab84" d="m22 36.2-.2 17.5-.2.1-.8.2-1-.3V35.6l1.2 1.1z"/><path fill="none" stroke="#888257" stroke-linecap="round" stroke-linejoin="round" stroke-width="__RESOLUTION__" d="M19.8 35.6v-7m2.2 1.1v6.5m-.2 17.5-.2.1-.8.2-1-.3" vector-effect="non-scaling-stroke"/><path fill="none" stroke="#928c5f" stroke-linecap="round" stroke-linejoin="round" stroke-width="__RESOLUTION__" d="M19.8 53.7V35.6" vector-effect="non-scaling-stroke"/><path fill="#b0ab84" d="m12.9 40.6.5-.6.8-1.2h.8V50l-.3.1-.8.1-1-.2z"/><path fill="none" stroke="#888257" stroke-linecap="round" stroke-linejoin="round" stroke-width="__RESOLUTION__" d="m15 50-.3.1-.8.1-1-.2" vector-effect="non-scaling-stroke"/><path fill="none" stroke="#928c5f" stroke-linecap="round" stroke-linejoin="round" stroke-width="__RESOLUTION__" d="m12.8 50 .1-9.4" vector-effect="non-scaling-stroke"/><path fill="#b0ab84" d="m8.2 46.2-.2.1-.9.2-1-.3-2.5-13.8q1.3-.6 2.1 1.2z"/><path fill="#676343" d="M6.8 21.6 5.6 28q-1.2.8-2.4-.4l1.4-7q1.7.9 2.2 1"/><path fill="none" stroke="#888257" stroke-linecap="round" stroke-linejoin="round" stroke-width="__RESOLUTION__" d="m8.2 46.2-.2.1-.9.2-1-.3m.7-24.6L5.6 28m-2.4-.4 1.4-7" vector-effect="non-scaling-stroke"/><path fill="none" stroke="#928c5f" stroke-linecap="round" stroke-linejoin="round" stroke-width="__RESOLUTION__" d="M6.1 46.2 3.6 32.4" vector-effect="non-scaling-stroke"/></g></defs><g clip-path="url(#a)"><use xlink:href="#b" width="53.4" height="62.5" transform="translate(1 1)"/></g></svg>