<svg xmlns="http://www.w3.org/2000/svg" xmlns:xlink="http://www.w3.org/1999/xlink" width="36" height="168" viewBox="0 0 36 168"><defs><linearGradient id="a" x1="-819.2" x2="819.2" gradientTransform="matrix(-.01 -.01 .03 -.02 14.35 -125.15)" gradientUnits="userSpaceOnUse" spreadMethod="pad"><stop offset="0" stop-color="#fff" stop-opacity="0"/><stop offset="1" stop-color="#000" stop-opacity=".5"/></linearGradient><clipPath id="b"><path d="M1 1h34v166H1z"/></clipPath><g id="c"><path fill="#ebe7d8" d="M.8 13.8 27.7.1l6.1 3.2L7.1 17z"/><path fill="#d1c9a5" d="M33.8 3.3v2l-4.1 2.1L7 19.2V17zm-4.6 6-.2 3-2 1L2.4 26l.2-2.9z"/><path fill="#bdb37d" d="M29.7 7.4q-.4.8-.5 2L2.5 23.1q.7-5.2 4.6-4z"/><path fill="#e2dcc5" d="M27 13.3v102.6L.5 129.3v-104h.2l1.6.8z"/><path fill="#ded8bc" d="M27 115.9v7L.5 136.3v-7z"/><path fill="#d9d2b3" d="M27 122.9v8.5L.5 144.8v-8.5z"/><path fill="#b80101" d="M27 131.4v21l-1.9 1q-3.5.3-6.2 1.9-3.2 1.9-6.3 4.1l-1.7 1.2-2 1q-1.1-.2-2-1.1l-.6-.2q-1.7 1.5-1.9 3.6l-3.9 2v-21zm-10.7 15.5-3.1 1.4v4.2q3.6-3.2 7.6-3.8-.9-3.4 0-7.5-6.6 5.2-14.2 7 1.2 4.6 0 9.6-2.8 2.8-6.1 3 3.3-.2 6.1-3 1.2-5 0-9.6 7.6-1.8 14.2-7-.9 4 0 7.5-4 .6-7.6 3.8v-4.2zm-9.7 10.8q11-2.7 20.4-10.3-9.4 7.6-20.4 10.3"/><path fill="#c70707" d="m25.1 153.4-14.2 7.2 1.6-1.2q3.1-2.2 6.5-4.1 2.6-1.6 6.1-2m-16.2 8.3-4.5 2.3q.2-2 1.9-3.7.3 0 .6.3.9.9 2 1.1"/><path fill="#f2f0ec" d="M.5 25.3v-2.1l.2 2.1z"/><path fill="#c4ba8a" d="M.7 25.3.6 13.9h.2L7 17.1v2Q3 18 2.5 23.3l-.2 2.9z"/><path fill="#c17b4b" d="m.6 14 .2-.2v.1z"/><path fill="none" stroke="#f90" stroke-linecap="round" stroke-linejoin="round" stroke-width="__RESOLUTION__" d="M.5 160.9q3.3-.3 6.1-3.2 1.2-5 0-9.4 7.6-1.9 14.2-7.2-.9 4.2 0 7.6-4 .6-7.6 3.8v-4.2l3.1-1.4m10.7.5q-9.4 7.6-20.4 10.3" vector-effect="non-scaling-stroke"/><path fill="none" stroke="#f90" stroke-linecap="round" stroke-linejoin="round" stroke-width="1" d="M.5 144.9 27 131.4"/><path fill="url(#a)" d="m27.3-152.3 6 3.1v2l-4.1 2.2q-.3.8-.4 1.9l-.2 2.9-2 1V-93H.1v-45.6.1h.1z" transform="translate(.45 152.35)"/></g></defs><g clip-path="url(#b)"><use xlink:href="#c" width="33.8" height="165.8" transform="translate(1 1)"/></g></svg>