<svg xmlns="http://www.w3.org/2000/svg" xmlns:xlink="http://www.w3.org/1999/xlink" width="57" height="67" viewBox="0 0 57 67"><defs><g id="i"><path fill="#4d1f1d" d="m42.9 24.6-.4.1.3-.1"/><path fill="#857159" d="M42.9 24.6h-.1l-.2.1zm2 4.9-1.4 3.1-.3.6-.2.3V33l-.1.4Q40 38 36 41l-.5.5.5-.5-.7.5q-7.7 4.4-10.8 5.3H23q-9.3 0-15.8-6.6-3.2-3.4-4.9-7.4l.1.2q3.5 3.4 7.8 5 3.6 1.4 7.8 1.4l1.4-.2 2.6-.6q-.5-.1 1-.6 8.1-2.7 10.4-5 3.2-3.1 4.9-7l.3-1.1h.1l.3-.7-.1-.1q1-3.9 1-6.5Q40 11 36.8 6l2.1 2q6.6 6.6 6.6 16 0 2.9-.6 5.5m-14.2 8.6L28 40l-.4.1Q26 41.3 24 41.7l2.4.3q2.4-.1 4.6-1l.8-.5 2-1.2V39v.4l.6-.4 2.2-2q2-2 2.9-4.7.8-2.6.4-5.4l-1.5 2.9-2.5 3.4-4.1 4zm-8 .5h-.5l-2.6.6z"/><path fill="#775839" d="M24.4 46.9v-.1q3.2-1 10.9-5.3l.7-.5-.5.5.5-.5q4-2.9 6.9-7.5l.1-.4v.4l.2-.3.3-.6 1.4-3.1q-1.4 6-6 10.7-6.1 6.2-14.5 6.6"/><path fill="#9c9182" d="M36.8 6Q40 11.1 40 17.6q0 2.6-1 6.5l-.2.8h-.1l-.4 1.2q-1.6 3.8-4.7 6.9-2.4 2.3-10.5 5-1.5.5-1 .6l-2.6.5-1.4.3q-4.2 0-7.8-1.4-4.3-1.6-7.8-5l-.1-.1q-1-2.6-1.4-5.6l-.2-3.2v-2.2q.7-8 6.5-14 6.6-6.6 15.8-6.6 7.8 0 13.7 4.7m-10-1.7V4h-1q-6.1-1.6-11.7 1-.8.3-1.5.8-6.4 3.6-8.3 10.8-1.9 7 1.8 13.4l.3.5q-.2-3.5.8-7.1 1.6-6.2 6-10.3 2-2 4.6-3.5 3.1-1.8 8.3-3v.1l1-.1h1.2l2 .3-.2-.4 1.6.2q-2-1.5-4.4-2.2zm2.2-4h-.9l-.3-.2 1 .2zm-8 16.6-.4-.4q-1.1-1.2-2.8-1.2T15 16.4q-1.2 1.3-1.2 3t1.2 2.8l1.1.8v1q0 3 2.1 5.2 2.3 2.2 5.4 2.2 3 0 5.2-2.2Q31 27.1 31 24t-2.2-5.4-5.2-2.1zm1.5 21.8-3 .5 2.6-.6z"/><path fill="#a29e9b" d="m26.9 4.3.4.2q2.4.8 4.4 2.2l-1.6-.2.2.3-2-.2h-1.2l-1 .1Q21 7.8 17.8 9.6q-2.6 1.5-4.6 3.5-4.3 4.1-6 10.3-1 3.6-.9 7.1l-.2-.5q-3.7-6.4-1.8-13.4 1.9-7.2 8.3-10.8.7-.5 1.5-.8 5.6-2.6 11.8-1h.9z"/><path fill="#000" d="M18.8 23.3q1-.3 1.9-1.2 1.2-1.1 1.2-2.7v-.1l1.8-.3q2 0 3.4 1.4 1.5 1.5 1.5 3.6 0 2-1.5 3.4-1.4 1.5-3.5 1.5-2 0-3.5-1.4-1.4-1.5-1.4-3.6z"/><path fill="#a5a5a5" d="M21.9 19.3q0 1.7-1.2 2.8-.8.9-2 1.1l-.8.2-1.7-.4-1.2-.9q-1.2-1.1-1.2-2.7t1.2-3q1.2-1.1 2.9-1.1t2.8 1.1l.4.5q.8 1 .8 2.4"/><path fill="#336500" d="m18.8 23.3-.1.6q0 2.1 1.4 3.6 1.5 1.4 3.5 1.4 2.1 0 3.5-1.4 1.5-1.5 1.5-3.6 0-2-1.5-3.4-1.4-1.5-3.5-1.5l-1.7.3q0-1.4-.8-2.4l2.4-.4q3.1 0 5.3 2.1Q31 21 31 24q0 3.2-2.2 5.3-2.2 2.2-5.2 2.2-3.2 0-5.4-2.2-2.1-2.1-2.1-5.2v-1l1.8.4z"/><path fill="#97836c" d="m30.7 38.1 1.1-.9 4-4 2.6-3.5 1.5-2.8q.4 2.8-.4 5.4-1 2.7-2.9 4.7l-2.2 2-.6.4V39v.2l-2 1.2-.9.5q-2.1.9-4.5 1l-2.3-.2q2-.5 3.5-1.6l.3-.1z"/><path fill="none" stroke="#000" stroke-linecap="round" stroke-linejoin="round" stroke-opacity=".3" stroke-width="1" d="M24.4 46.9q8.4-.5 14.5-6.7 4.6-4.7 6-10.7.6-2.6.6-5.4 0-9.5-6.6-16.2L36.8 6M2.4 32.9q1.7 4 4.9 7.3 6.6 6.6 15.8 6.6h1.3"/><path fill="none" stroke="#1f1c13" stroke-linecap="round" stroke-linejoin="round" stroke-width="__RESOLUTION__" d="m18.8 23.3-.1.6q0 2.1 1.4 3.6 1.5 1.4 3.5 1.4 2.1 0 3.5-1.4 1.5-1.5 1.5-3.6 0-2-1.5-3.4-1.4-1.5-3.5-1.5l-1.7.3" vector-effect="non-scaling-stroke"/><path fill="none" stroke="#000" stroke-linecap="round" stroke-linejoin="round" stroke-opacity=".3" stroke-width="1.5" d="M2.4 32.9q-1-2.6-1.4-5.6l-.2-3.2v-2.2q.7-8 6.5-14 6.6-6.6 15.8-6.6 7.8 0 13.7 4.7"/></g><g id="g"><path fill="#4b1400" d="M4.1 10q.9-2 2-3.6Q9.6-1 14.7 1 11.5 3.7 9 7.5L5.1 9.7 8 9l-.8 1.3q-3 1.2-3.1-.4m1.5 2.5-1.6.9h1.8L4.7 16l-1.7.7 1.2.7-1 3.3-1.5-4.4 1.5-4.5q2.6-.8 2.3.5"/><path fill="#802f05" d="M7.2 10.3 6.4 12l-.9.5q.3-1.3-2.3-.5l.9-2q.2 1.6 3.1.4"/><path fill="#370b00" d="M3.2 20.8q-1 3.6-1.3 6.8Q.2 33 .6 23.2q.4-3.7 1.2-6.8z"/><path fill="#1f0300" d="M1.9 27.6q-.3 3.2 0 6.1L.2 33q-.2-5.3.4-9.8-.4 9.8 1.3 4.4"/><path fill="none" stroke="#000" stroke-linecap="round" stroke-linejoin="round" stroke-opacity=".3" stroke-width="1" d="M4.1 10q.9-2 2-3.6Q9.6-1 14.7 1 11.5 3.7 9 7.5L5.1 9.7 8 9l-.8 1.3q-3 1.2-3.1-.4l-.9 2-1.5 4.5Q1 19.5.6 23.2.2 33 1.9 27.7q.3-3.2 1.3-6.8l1-3.3-1.2-.7 1.7-.7 1.1-2.9-1.8.1M6.4 12l-.9.5q.3-1.3-2.3-.5m-1.5 4.5 1.5 4.4"/><path fill="none" stroke="#000" stroke-linecap="round" stroke-linejoin="round" stroke-opacity=".3" stroke-width="__RESOLUTION__" d="M1.9 27.6q-.3 3.2 0 6.1L.2 33q-.2-5.3.4-9.8" vector-effect="non-scaling-stroke"/></g><g id="f"><path fill="#581800" d="M4.1 10q.9-2 2-3.6Q9.6-1 14.7 1 11.5 3.7 9 7.5L5.1 9.7 8 9l-.8 1.3q-3 1.2-3.1-.4m1.5 2.5-1.6.9h1.8L4.7 16l-1.7.7 1.2.7-1 3.3-1.5-4.4 1.5-4.5q2.6-.8 2.3.5"/><path fill="#973806" d="M7.2 10.3 6.4 12l-.9.5q.3-1.3-2.3-.5l.9-2q.2 1.6 3.1.4"/><path fill="#410c00" d="M3.2 20.8q-1 3.6-1.3 6.8Q.2 33 .6 23.2q.4-3.7 1.2-6.8z"/><path fill="#250400" d="M1.9 27.6q-.3 3.2 0 6.1L.2 33q-.2-5.3.4-9.8-.4 9.8 1.3 4.4"/><path fill="none" stroke="#000" stroke-linecap="round" stroke-linejoin="round" stroke-opacity=".3" stroke-width="1" d="M4.1 10q.9-2 2-3.6Q9.6-1 14.7 1 11.5 3.7 9 7.5L5.1 9.7 8 9l-.8 1.3q-3 1.2-3.1-.4l-.9 2-1.5 4.5Q1 19.5.6 23.2.2 33 1.9 27.7q.3-3.2 1.3-6.8l1-3.3-1.2-.7 1.7-.7 1.1-2.9-1.8.1M6.4 12l-.9.5q.3-1.3-2.3-.5m-1.5 4.5 1.5 4.4"/><path fill="none" stroke="#000" stroke-linecap="round" stroke-linejoin="round" stroke-opacity=".3" stroke-width="__RESOLUTION__" d="M1.9 27.6q-.3 3.2 0 6.1L.2 33q-.2-5.3.4-9.8" vector-effect="non-scaling-stroke"/></g><g id="d"><path fill="#3f1100" d="M4.1 10q.9-2 2-3.6Q9.6-1 14.7 1 11.5 3.7 9 7.5L5.1 9.7 8 9l-.8 1.3q-3 1.2-3.1-.4m1.5 2.5-1.6.9h1.8L4.7 16l-1.7.7 1.2.7-1 3.3-1.5-4.4 1.5-4.5q2.6-.8 2.3.5"/><path fill="#6c2804" d="M7.2 10.3 6.4 12l-.9.5q.3-1.3-2.3-.5l.9-2q.2 1.6 3.1.4"/><path fill="#2e0900" d="M3.2 20.8q-1 3.6-1.3 6.8Q.2 33 .6 23.2q.4-3.7 1.2-6.8z"/><path fill="#1a0300" d="M1.9 27.6q-.3 3.2 0 6.1L.2 33q-.2-5.3.4-9.8-.4 9.8 1.3 4.4"/><path fill="none" stroke="#000" stroke-linecap="round" stroke-linejoin="round" stroke-opacity=".3" stroke-width="1" d="M4.1 10q.9-2 2-3.6Q9.6-1 14.7 1 11.5 3.7 9 7.5L5.1 9.7 8 9l-.8 1.3q-3 1.2-3.1-.4l-.9 2-1.5 4.5Q1 19.5.6 23.2.2 33 1.9 27.7q.3-3.2 1.3-6.8l1-3.3-1.2-.7 1.7-.7 1.1-2.9-1.8.1M6.4 12l-.9.5q.3-1.3-2.3-.5m-1.5 4.5 1.5 4.4"/><path fill="none" stroke="#000" stroke-linecap="round" stroke-linejoin="round" stroke-opacity=".3" stroke-width="__RESOLUTION__" d="M1.9 27.6q-.3 3.2 0 6.1L.2 33q-.2-5.3.4-9.8" vector-effect="non-scaling-stroke"/></g><g id="c"><path fill="#4c1400" d="m4.9 15.2 1.5-4.7 10-10q-.1 7.2-6.1 11.5H8.1l-1 .8 2.5.9-1 2.4-2 .2-.8 1.2z"/><path fill="#411200" d="M5.8 17.5h2.4l-.8 2.2-2.2 1-.5 1 .3-6.2v-.3zm-1.1 4.4 2.2-.9-2.4 7q-3 3.2.2-6.1"/><path fill="#320a00" d="m4.6 21.7-.1.2h.1q-3.1 9.3-.2 6.1l-1.7 5.2q-1.5 2.2-1.2-3.4l.2-1q1.1-6.6 3.1-13.3z"/><path fill="#250400" d="m2.7 33.2-1.5 4.1-.7-.3 1-7.2q-.2 5.6 1.2 3.4"/><path fill="none" stroke="#000" stroke-linecap="round" stroke-linejoin="round" stroke-opacity=".3" stroke-width="1" d="m4.9 15.2 1.5-4.7 10-10q-.1 7.2-6.1 11.5H8.1l-1 .8 2.5.9-1 2.4-2 .2-.8 1.2zm.8 2.3h2.4l-.8 2.2-2.2 1-.5 1m0 .2 2.2-.9-2.4 7-1.7 5.2-1.5 4.1-.7-.3 1-7.2.2-1q1.1-6.6 3.1-13.3"/><path fill="none" stroke="#000" stroke-linecap="round" stroke-linejoin="round" stroke-opacity=".3" stroke-width="__RESOLUTION__" d="m4.7 21.7-.1.2h.1m.3-6.4v-.3" vector-effect="non-scaling-stroke"/></g><g id="b"><path fill="#422100" d="m12.9 4.6-8.8 7.8L2.6 30l-1.1 2.4L3.6 9.1.5.5 4.1 8l.1.3q.3 2.2 8.7-3.7"/><path fill="none" stroke="#000" stroke-linecap="round" stroke-linejoin="round" stroke-opacity=".3" stroke-width="1" d="m12.9 4.6-8.8 7.8L2.6 30l-1.1 2.4L3.6 9.1.5.5 4.1 8l.1.3h0q.3 2.2 8.7-3.7"/></g><g id="a" fill="#030503"><path fill-opacity=".4" d="m10.7 2 1.9 1.2L11 4.7l-3.2-.3-.2-.2L6.3 3l1.4-.7z"/><path fill-opacity=".2" d="m10.7 2-3 .1-1.4.8 1.3 1.4.2.1 3.2.3 1.6-1.5zm3.9-.4L18.7.2 12.5 5l2.8 2L8 5.3 3.6 8.1Q7.4 3.8 1 7.3L4.3 4 0 3.9l3.6-2.4 1.8.4L2.8 0l6.5 1.2h.1L11.2 0z"/><path fill-opacity=".2" d="m13.9 2.2 2.6 1.7-3.1.1 2.3 2.3-1.8.6-3.2-2-5.2 1.3 2-1.5L3 1.3l3.1 1 2.3-1.1 1.3.8h.1l4.6-.8-1.8 1.3zm-2 1-1-.5-2.1-.1-1.4.8 1.1 1.2 2.3-.3.2-.1z"/><path fill-opacity=".4" d="m12 3.3-1 .9-.2.1-2.3.3-1.1-1.1 1.4-.9 2.1.1z"/></g><g id="k" transform="translate(91.2 29.95)"><use xlink:href="#a" width="18.7" height="8.1" transform="matrix(-1.5 0 0 1 -53.3 17.15)"/><use xlink:href="#b" width="13.4" height="32.9" transform="translate(-68.5 -17.1)"/><use xlink:href="#c" width="16.9" height="37.9" transform="matrix(-.24 .36 .16 .44 -72.75 2.2)"/><use xlink:href="#d" width="15.1" height="33.9" transform="matrix(.95 .22 -.31 .28 -58 10.45)"/><use xlink:href="#c" width="16.9" height="37.9" transform="matrix(.62 .07 -.16 .68 -62.85 -6)"/><use xlink:href="#f" width="15.1" height="33.9" transform="matrix(-1.68 .08 -.06 .92 -63.75 -11.85)"/><use xlink:href="#g" width="15.1" height="33.9" transform="matrix(-.25 .54 .25 .14 -76.6 15.1)"/><use xlink:href="#c" width="16.9" height="37.9" transform="matrix(-1.27 0 0 .22 -68 10)"/><use xlink:href="#h" width="46" height="47.4" transform="matrix(-.13 -.14 .16 -.12 -66.85 -6.4)"/><use xlink:href="#h" width="46" height="47.4" transform="matrix(-.25 .07 -.06 -.24 -59.9 -14.7)"/><use xlink:href="#h" width="46" height="47.4" transform="matrix(-.15 -.06 .08 -.14 -61.85 -20.4)"/><use xlink:href="#h" width="46" height="47.4" transform="matrix(-.22 .06 -.05 -.19 -52.85 -16.6)"/><use xlink:href="#i" width="46" height="47.4" transform="matrix(-.17 -.1 .15 -.19 -59.65 -5.95)"/></g><use xlink:href="#i" id="h" width="46" height="47.4"/><use xlink:href="#k" id="n" width="47.5" height="58" transform="matrix(3.64 -.16 .2 3.64 0 7.65)"/><clipPath id="m"><path d="M1 1h55v65H1z"/></clipPath></defs><g clip-path="url(#m)"><use xlink:href="#n" width="184.8" height="218.7" transform="translate(1 1)scale(.2963)"/></g></svg>