<svg xmlns="http://www.w3.org/2000/svg" xmlns:xlink="http://www.w3.org/1999/xlink" width="58" height="76" viewBox="0 0 58 76"><defs><g id="a"><path fill="#d9cca6" d="M44.2 5h-.3L33.9.7 37 0l8.4 4.5v.1zm-12.4 7.5 8 4.4-6.5 3.5-10.1-4zM11 12l3.3-1.7 8.3 4.8-1.5 1H21zm0 .3 8 4.5-4.8 2.6-10.2-4zm11.7 5.2.5.3 3.3 2-1.4 1H25l-.4.1-1.9-.1zm-10.9 9.6-1.3 1H10l-10-4 3.9-1.5z"/><path fill="#b5312b" d="M44 5h.2l1.2-.4.1-.1-5.7 28.4V29zM10.3 28l1.3-1v18.4q0 .9-.4 1.5t-1.1.6V28.1z"/><path fill="#6f0404" d="m33.9.7 10 4.3h.1l-4.2 24V17l-8-4.6z"/><path fill="#be4b21" d="M39.8 29v7.4l-6.5 3.4V20.4l6.5-3.4z"/><path fill="#5b1a11" d="m23.2 16.4 10.1 4v19.4l-6.9-2.5V19.9l-3.2-2.1zm-13 11.7v19.4L0 43.5V24.1l10 4z"/><path fill="#a8803e" d="m11 12 9.9 4h.3v26H19V16.8l-8-4.5z"/><path fill="#d1a94b" d="m21.2 16 1.4-1v25.2q0 .8-.4 1.3t-1 .6z"/><path fill="#819d31" d="M19 16.8V42q0 .8-.5 1.4l-2.2 1.2-2.2 1V19.3z"/><path fill="#705b2e" d="m22.7 20.8 1.8.1h.4v19.4l-2.2-.1z"/><path fill="#a38543" d="M24.9 40.3V20.9h.1l1.4-1v19.6z"/><path fill="#506822" d="M11.8 45.4V27.1l-8-4.5v-7.2l10.3 4v26.2z"/><path fill="none" stroke="#382927" stroke-linecap="round" stroke-linejoin="round" stroke-width="__RESOLUTION__" d="M44 5h.2m1.2-.4.1-.1L37.1 0m6.8 5h.1m-4.2 24v3.9l5.7-28.4m-13.7 8 8 4.4V29M33.8.7l-2 11.8m-10.9 3.4h.3m1.4-1-8.4-4.6M11 11.9v.4l8 4.5V42l2.1.1q.6 0 1.1-.6.4-.5.4-1.3V14.9m0 2.6.5.3v-1.4m-.5 23.8H25l1.5-.7V19.9l-3.2-2.1m1.7 3-.4.1m.5 0H25M10.4 28H10m.2 19.4q.7 0 1.1-.6t.4-1.5V27.1L4 22.6v-7.2m10 30.2 2.2-1 2.2-1.2q.5-.6.5-1.4m14.3-2.2 6.5-3.4v-3.5M14.1 45.5l-2.3-.1m14.6-8.1 6.9 2.5M0 24.1v19.4l10.2 4" vector-effect="non-scaling-stroke"/></g><g id="b"><path fill="#6b5e3f" d="m13.7 14.2-.3-1.2.2-1 .7.4q.8.5 2 .5t2.1-.5l.3-.2.1.8v.2q0 .5-.2.9l-.6.8q-.8.8-1.9.8-.7 0-1.3-.4l-.6-.4zl.5.7.6.4Q14 16.5 14 18q0 2 1.4 3.4 1.4 1.5 3.4 1.5 1.3 0 2.4-.7l-.9 1.3Q18.6 25 16.2 25t-4.1-1.7-1.7-4 1.7-4.1z"/><path fill="#9a8b58" d="M14.8 15.3q.6.3 1.3.4 1.1 0 2-.8l.5-.8q.9.4 1.7 1.2 1.7 1.6 1.7 4 0 1.6-.8 2.9-1 .7-2.4.7-2 0-3.4-1.5Q14 20 14 18q0-1.5.8-2.7"/><path fill="#7e743d" d="m18.7 12.3-.3.1q-.9.5-2 .5t-2.1-.5l-.7-.5-.2-.6q0-.6.9-1l2-.5 2.1.5q.8.4.8 1.1 0 .4-.5.8"/><path fill="none" stroke="#5f532c" stroke-linecap="round" stroke-linejoin="round" stroke-width="1" d="m13.7 12-.3 1 .3 1.2.5.7.6.4q.6.3 1.3.4 1.1 0 2-.8l.5-.8q.2-.4.2-1v-.8l-.4.1q-.9.5-2 .5t-2.1-.5zl-.2-.6q0-.6.9-1l2-.5 2.1.5q.8.4.8 1.1 0 .4-.5.8m-5 2-1.6 1.1q-1.7 1.6-1.7 4t1.7 4.1 4.1 1.8 4.1-1.7l1-1.3q.7-1.2.7-2.8 0-2.4-1.7-4.1-.8-.8-1.7-1.2"/><path fill="#9f8c4d" d="M6.8 15.8H7l2.6.6 3.2-.4q-.3.3 0 1.8l-.6 1.8q-.3.6-2.7.9-.9 0-3.1-.8.6-.4.2-.8-.5-.5-.1-1.3.3-1 .3-1.8"/><path fill="#b39e5e" d="M6.5 17.6q-.4.8.1 1.3t-.2.8q-.4.6-.4 4.1 0 3.1 2.2 5.3t5.3 2.3q2-.1 3.7-1l-1.5 1.9q-2.6 2.6-6.3 2.6t-6.3-2.6T.5 26t2.6-6.4q1.5-1.5 3.4-2m8.2 1.1q3.1-3.3 3.6 0v6.4q-.3-3.2-2.6-5.5z"/><path fill="#dbd5b5" d="M6.4 19.7q2.2.9 3.1.8 2.4-.3 2.7-1l.6-1.7q1 .2 2 1l.9.8q2.3 2.3 2.6 5.5v.9q0 2.4-1 4.4-1.8.9-3.8 1-3.1-.1-5.3-2.3T6 23.8q0-3.6.4-4.1"/><path fill="#6b5e3f" d="M7 14.6q-.1-.4.6-.8l2.4-.2 2.7.4q.7.3.7.8t-.7.7q-1 .6-2.7.6-1 0-2.4-.8-.7-.3-.7-.7"/><path fill="none" stroke="#5f532c" stroke-linecap="round" stroke-linejoin="round" stroke-width="1" d="M6.8 15.8q0 .8-.3 1.8-.4.8.1 1.3t-.2.8q2.2.9 3.1.8 2.4-.3 2.7-1l.6-1.7q-.3-1.6 0-1.9M7 14.7q0-.4.7-.8l2.4-.2 2.7.4q.7.3.7.8t-.7.7q-1 .6-2.7.6-1 0-2.4-.8-.7-.3-.7-.7m-.4 3q-1.9.5-3.4 2Q.5 22.3.5 26q0 3.8 2.6 6.4T9.4 35t6.3-2.6l1.5-2q1.1-1.9 1.1-4.4v-7.2q-.5-3.3-3.6 0l1 1Q18 22 18.3 25m-3.6-6.4q-1-.7-1.9-1"/><path fill="#d4d3c4" d="m40.3 4.2-.1-.3zm-3.5 7.7h.2zm2.5-1.8.4-.5-.2.3z"/><path fill="#afcfbf" d="m40.2 3.9.1.3q.9 2.7-.6 5.4l-.4.5v.1L37 11.9h-.2l-.6.2-.6.1q1.6-1.4 1.1-3.6l-.9-3q-.7-1.8-2-3.1-1.7-1.6-3.6-.7l.5-.5Q32.4.2 34.3 0q2.3-.1 4 1.4l.6.5z"/><path fill="#77997d" d="M30.2 1.8q1.9-.9 3.6.7 1.3 1.3 2 3.1l.9 3q.5 2.2-1 3.6H35q-2.6.7-4.5-1.1V11l-.6-.5-1.2-2.1q-.6-1.3-.4-2.9.2-2.2 1.8-3.7"/><path fill="#ffe866" d="m35.7 12.2.4-.1.7 5-1.7.1v-5z"/><path fill="#d28606" d="m36.2 12.1.6-.2h.2l2.3-1.7 1.3 4.7q-.6 1.4-3.8 2.2z"/><path fill="#bb6906" d="m35 17.3-1.9-.3q-1.8-.4-3.4-1.2l-1-.8-.3-1 1.5-3.5.5.5.1.1q1.9 1.8 4.5 1.2z"/><path fill="none" stroke="#bed1d1" stroke-linecap="round" stroke-linejoin="round" stroke-width="__RESOLUTION__" d="m40.2 3.9.1.3q.9 2.7-.6 5.4l-.4.5v.1L37 11.9h-.2m3.4-8-1.3-2m-.6-.5q-1.7-1.5-4-1.4-1.9.2-3.6 1.3l-.6.5q-1.6 1.5-1.8 3.7-.2 1.6.4 2.9l1.2 2.1.5.5m5.3 1.2.4-.1m-1 .2.5-.1m-.6 0q-2.6.7-4.5-1.1" vector-effect="non-scaling-stroke"/><path fill="none" stroke="#000" stroke-linecap="round" stroke-linejoin="round" stroke-width="__RESOLUTION__" d="m39.5 10-.2.2" vector-effect="non-scaling-stroke"/><path fill="none" stroke="#804e11" stroke-linecap="round" stroke-linejoin="round" stroke-width="__RESOLUTION__" d="M36.8 17q3.3-.7 3.8-2.1l-1.4-4.7m-2.4 6.9-1.7.1-2-.2q-1.8-.4-3.4-1.2l-1-.8-.3-1 1.5-3.5" vector-effect="non-scaling-stroke"/><path fill="#fff" d="M37.9 3.8q-.4.4-1 .4t-1-.5-.4-1l.4-1q.4-.4 1-.4t1 .5l.4 1q0 .5-.4 1"/></g><g id="d"><path fill="#b5a031" d="m43 6.9-5.3-3L44 .4l5.4 3.1zM5.7 20.2q4.1-2.7 6.1-2.4 2.4-.1 5.5 2.2L11 23.3zm40.7-2.5 4-2.2 2.5 1.5-3.9 2.1zm.8 27.1 4-2 2.4 1.3-3.9 2.1zM13.9 34l4-2.2 2.6 1.4-4 2.2zm7.4 27-3.9 2.1-2.5-1.4 3.9-2.2z"/><path fill="#504616" d="M37.7 3.8 43 7v9l-5.3-3V3.7m11.6 20v3.5L43 30.4v13.2l-2.1-1.2-3.2-1.8V28.9L48 23.6l.9.5zm.3 27.4L49 51l-1.9-1v-5l2.5 1.4zM17.4 68l-.8-.5-1.8-1v-4.8l2.6 1.4zM5.7 27.6v-7.4l5.3 3.1v9l-5.4-3zM49 24.1l-.9-.5-1.7-1v-4.8l2.6 1.4zM17.3 39.8v3.3l-6.4 3.1V60L9 59l-3.4-2V40.9l4.4 2.2 6-3.1-2-1.2V34l2.5 1.4v4.8zm-.8.4-.4-.2z"/><path fill="#897925" d="m43 6.9 6.4-3.3v9.1L43 15.8zm10.5 41.7v.5l-3.9 2.1v-4.9l4-2zM17.3 20v9l-1.6.8-4.7 2.5v-9zm3.1 17.7v.4l-3.1 1.7-.8.4v-4.8l4-2.2zm-3.2 5.4v13.6L10.9 60V46.3z"/><path fill="#8e5a26" d="M37.7 11.2v1.6L43 16l6.4-3.3v-4l4 2 1.5 1.8-29.2 14.6v-.3.3L18 30.9l-2.2-1.1 1.5-.8v-7.4zm11.6 25.3 6.1 3.1-31.8 16.2-13.7 7-4.3-2.2L9 59l2 1.1 6.3-3.3v-2l15.2-7.9 2.6 1-2.6-1 2.5-1.4 4.8 1.8-4.8-1.8 5.9-3 2.1 1.2 6.3-3.3zM.5 30.2l5.1-2.6v1.6l5.4 3.1 4.8-2.5 2.2 1.1-8 4.1zm21.9-4.8 3.3 1.4zm-2 29 3.2 1.4z"/><path fill="#60401a" d="m54.9 12.5.5 2.6v4.7l-2.6 1.4v-4.1l-2.5-1.5-4 2.2v4.8l1.7 1-10.3 5.3-9.5 4.8-7.7 4v-4.5l-2.6-1.4-4 2.2v4.8l2.2 1.2-6.2 3.1V35l8.1-4 7.7-3.9v2.3-2.3zm.5 27.1v8l-1.9 1v-4.4L51 42.8 47.2 45v5l2 1-3.5 1.8-3.8 2-13.3 6.8h-.1l-7.1 3.6V61l-2.6-1.5-3.8 2.2v4.8l1.7 1L9.9 71v-8l13.7-7 1 .4-1-.5zM.5 58l1.1-.5 4-2V57L9 59l-3.4 1.6zm37.2-18.9v1.5l3.1 1.8-5.8 3-2.5 1.4-1-.4 1 .4-15.2 7.8v-5.1zm-9.5-10.2v4.8zm.3 28.6v4zm4-13 2.5 1zm13.1 4.3v3.9zm-.2 1.4-3.6 4.4zm-26.9-19-.5-.3z"/><path fill="#a6942f" d="M52.8 21.2v.7l-3.4 2-.5.2v-4.9l3.9-2.1z"/><path fill="#816b23" d="M49.3 27.3v13L43 43.6V30.4z"/><path fill="#7a6c23" d="M21.3 65.1v.8L17.4 68v-4.9l3.9-2.1z"/><path fill="#3e2711" d="M10 71 .4 66v-8l5.1 2.5 4.4 2.2zM1.5 39l-1.1-.6v-8L10 35v8.1l-4.4-2.2z"/><path fill="#291c0c" fill-opacity=".4" d="M1.6 57.5V38.9l4 2v14.5zm36.1-28.6v10.2L17.2 49.5v-6.4l.1-3.3 3.1-1.7v-.4l7.8-4z"/><path fill="none" stroke="#3c291a" stroke-linecap="round" stroke-linejoin="round" stroke-width="1" d="M49.4 3.6 44 .5l-6.3 3.3v9L43 16l6.4-3.3zm0 5.1 4 2 1.5 1.8.5 2.6v4.7l-2.6 1.4v.7l-3.4 2-.1 3.4v9.2l6.1 3.1v8l-1.9 1v.5l-3.9 2.1-.6-.3-3.4 1.8-3.8 2-13.3 6.8h-.1l-7.1 3.6v.8l-3.9 2-.8-.5L9.9 71 .5 66.1v-8l1.1-.6 4-2V57L9 59l2 1 6.3-3.3V39.8l3.1-1.7v-.4l7.8-4 9.5-4.8L48 23.6l.9.5.5-.3M1.6 39l-1.1-.6v-8l5.1-2.7v-7.4q4.2-2.7 6.3-2.4 2.3-.1 5.4 2.2v1.6l20.4-10.4m8.6 6.6 4-2.2 2.5 1.5v4.1M37.7 29v11.7l3.1 1.8 2.2 1.2 6.3-3.3v-3.8m-3-18.7v4.8l1.7 1M17.3 49.5l20.4-10.4m-9.5-5.4V29m-2.5-1.8v-.3m0 .3v2.3m2.8 32.1v-4m25-13.3L51 42.8 47.2 45v5l2 1m4.4-6.7v4.4m-7.9 4.1v-3.9m-3.8 5.8 3.6-4.4M17.3 29v-7.4m0 7.4-1.6.8-4.7 2.5-5.4-3v-1.7M10 43.1l6-3.1-2-1.2V34l3.9-2.2 2.6 1.4v4.5m-4 2.5.8-.4m-1.2.2.4.2m-1.7 21.5v4.8l1.8 1m4.7-6.5v4.1m-6.5-3.4 4-2.2 2.5 1.5M5.6 41v14.4m0-14.5 4.4 2.2m-8.4-4.2 4 2"/><path fill="none" stroke="#60401a" stroke-linecap="round" stroke-linejoin="round" stroke-width="1" d="m25.7 26.8-3.3-1.4m12.6 20 4.8 1.8m-7.3-.4-1-.4m-6.9 9.9-1-.5-3.2-1.4m12-7.6 2.7 1m-.1-2.4-2.5-1M18 31l.5.3m-2.7-1.4L18 31"/></g><use xlink:href="#a" id="f" width="45.5" height="47.5"/><use xlink:href="#b" id="e" width="40.6" height="35.4"/><clipPath id="c"><path d="M1 1h56v74H1z"/></clipPath></defs><g clip-path="url(#c)"><g transform="translate(24.25 70.55)"><use xlink:href="#d" width="55.9" height="71.5" transform="translate(-23.25 -67.35)"/><use xlink:href="#e" width="40.6" height="35.4" transform="translate(-4.9 -32.75)scale(.5544)"/><use xlink:href="#f" width="45.5" height="47.5" transform="translate(-4.4 -69.55)scale(.5544)"/></g></g></svg>