<svg xmlns="http://www.w3.org/2000/svg" xmlns:xlink="http://www.w3.org/1999/xlink" width="70" height="57" viewBox="0 0 70 57"><defs><clipPath id="a"><path d="M1 1h68v55H1z"/></clipPath><g id="b" fill-opacity="0"><path fill="#ff0" d="M91.7 17.3q-8.9-.5-18 1.3l-14.3.2h-8.1l-30.6-2.4-7.4-.3q-6.3-.2-11-4.8Q.2 9.6 0 7.4t12.2-4.3q1.8-.6 5-1l14-.7q9.8.5 19.1 0l12.2-1 22.5.9 9.6 1 16.6 3q6.1 2 6.5 3.4t-7.8 5.5q-2.2 1.3-6 2.3z"/><path fill="#ff0" d="M91.3 16.4q-8-.4-16.1 1.2l-13 .2-7.2-.1-27.4-2-6.7-.3q-5.6-.2-9.8-4.4-2-1.4-2.2-3.5 0-2 11-3.8 1.7-.6 4.5-1L37 2.3q8.8.3 17.1 0l10.9-1 20.2.8 8.6 1 15 2.7q5.5 1.7 5.8 3 .3 1.2-7 4.9-2 1.2-5.4 2.1z"/><path fill="#ff0" d="M83 15.1q-6.2-.3-12.6.9l-10.2.1h-5.7L33 14.5l-5.2-.2q-4.4-.2-7.7-3.5-1.5-1.1-1.6-2.7t8.6-3l3.5-.7 9.9-.5q6.9.4 13.4 0l8.6-.7 15.8.6 6.8.8 11.7 2.1Q101 8 101.3 9t-5.5 3.9q-1.5.9-4.2 1.7z"/><path fill="#ffffb5" d="m94.5 14.5-8.6.6q-6.2-.3-12.6.9l-10.1.1h-5.7L36 14.6l-5.2-.2q-4.4-.2-7.8-3.4-1.5-1.2-1.6-2.7Q21.3 6.5 30 5l3.5-.7 9.9-.5q6.9.3 13.4 0l8.5-.7 15.9.6 6.8.8 11.6 2.1q4.4 1.4 4.7 2.3.2 1-5.6 3.9-1.5 1-4.2 1.6"/></g></defs><g clip-path="url(#a)"><use xlink:href="#b" width="117.8" height="18.8" transform="matrix(.5722 -.3016 0 1 1 36.5)"/></g></svg>