<svg xmlns="http://www.w3.org/2000/svg" xmlns:xlink="http://www.w3.org/1999/xlink" width="54" height="50" viewBox="0 0 54 50"><defs><linearGradient id="a" x1="-819.2" x2="819.2" gradientTransform="matrix(0 -.01 .03 0 .8 -2.35)" gradientUnits="userSpaceOnUse" spreadMethod="pad"><stop offset="0" stop-color="#000" stop-opacity=".5"/><stop offset="1" stop-color="#000" stop-opacity="0"/></linearGradient><clipPath id="c"><path d="M1 1h52v48H1z"/></clipPath><path id="b" fill="url(#a)" d="M25.5 4.9.4 19.1-25.4 5v-24h51z" transform="translate(25.45 19.1)"/><use xlink:href="#b" id="e" width="50.9" height="38.3"/><g id="d"><path fill="#3d2318" d="M31.3 1.8V2q.4.8 0 1.6l-1.5.6-.2.2.3.7v3.8h-.3V7.5l-1-.9-1.4-.6V4.4L30 3l.2-.1zm19.8 10.6V32l-1.7 2.5v-21h-.1zM38.7 40.2 33 43q.3-9.6 0-23.7l3.9-1.8.3-.2 1.5-1.5zm-28.5-25V38l-2.8-1.3V16zm6.6 1.2 3 1v25.5l-3-1.5z"/><path fill="#6c452d" d="m31.4 3.6 1.3-.6 4.6 1.6 1.1.9h-.1l-.1.2L37 6.9l-.3.1-3 1.5-.2-.9-2.1.2h-.3L29.9 5l-.2-.7.1-.2zM23.9 1l1.6-1h2l2.8 1h.1l1 .8h-.1l-1.1 1.1-.2.1-2.8 1.4h-.1l-1.9-.6-.1-.1-1.2-2.4zm10.5 12.3h.1l3.1 1 1.4 1.2-.3.3-1.5 1.5-.4.2-3.8 1.8h-.1l-.1-1.1-3 .3-.2-.1-1.1-2.6-.7-1.7.2-.2 3.7-1.5zM36.6 9l.4-.3zm-20.1 1.3h2.2l6.8 1.3 1.6 1.2h.1v.1l-2 2h-.1l-.3.1-5 2.4-3-1-.3-.1-2-3.9-.2-.3v-.4l.1-.1zv.8zM12.2 8l-1 .6H11l-2 .1-.2-.1L10.6 7l1.7.7zm.6.6-.3-.2v-.1zl.9-.1 1.7-.2 1.2-.7.3-.1-2.2-1-1 .9v1.1-1.1l-1.2.9zm1.6 3.2v.4l-.1-.2zm9.3-8.4-1 .7h-.2l-2 .1-.2-.1L22 2.5l1.6.7h.2zm.8 14.3h-.2l-.3-.2.3-.2z"/><path fill="#000" d="M38.3 5.6h.1v2.1l-.1.2-.5.3-.7.5H37l-.4.3-1.8 1.5.3.2 2.5-.2.6-.3.8-.5v1.4l-.2.5-.5.8v-2.2 2.2l-.3.5-.2.3.2.3 4.2 2.4.2-.1v22.4l-3.7 2V15.9l.3-.3-1.4-1.2-3.1-1h-.1v-2.7l.4-.1-.2-.3-.2-.2-2.8-1.2h-.2V7.8l2.1-.2.1.9L36.8 7l.3-.1zm3.3 2.2v.8l-1.5.5-1.1 2V9.7l.1-.1 1.6-1.3zM23.7 5.2h-1.4l-4 1.9-.6.8 2.8.6h.1l1.5.8 3.8.8 2.3-1V9l1.4-1.4v1.3l-1.8.9-.6.6v2.4l-1.6-1.2-6.8-1.3h-2.2V7.5l.3-.1-2.2-1-1 .9V5.2l1 .9h.1l1.5.7 2.4-.5.9-.5 1.4-.3.2-.5-.2-.2-.5-.2v-.5l2-.1h.2l1-.7zm14.6.5v2.2zm-9.7 10.2 1.1 2.6h.2v3.1l-.7-.1v-.1l-.9-.4-.1-.1-.6-.2-.7-.2h-.1v-3.1l.4-.1V17l1-.5v4.3-4.3l.1-.1-1-.4v-2.7zm-3.4-1v1.6H25l-.7.6-.3.3.3.2h.2V20l-.5-.2h-.1l-2.2 1.1h-.1L20 22.4l.4.3v20.5l-.5-.3V17.4l5-2.4zM8.8 8.6l.2.1 2-.1h.2l1-.6.3.2h-.1l.3.3-.2 30.7-2.3-1.2V15.1l2-3.5-.1-.2-3.4-1.9zM7.5 16v20.7l-.1-.1z"/><path fill="#b57953" d="m38.4 7.7.2-.1 1-.9 2.2.9-.2.2-.9.5-1.6 1.3-.1.1-.7.5-.6.3-2.6.2-.3-.2L36.6 9l.4-.3.8-.4.5-.5zm-13.3 8.8 1-.9 1 .5 1.1.4-.1.1-1 .5v.1l-.4.2-2.3.2-.2-.5.7-.6z"/><path fill="#9c6541" d="m41.6 8.6 2-.6 5.1 2.3.4.1 2 1.8.1.1v.1l-1.9 1.1-6.8 2.3h-.3L38 13.6l-.2-.2.2-.4.3-.5.5-.8.2-.5 1.1-2zM27.4 6l1.3.6 1 .9v.1L28 9.1V9l-2.2 1.1-3.8-.8-1.5-.7v-.1h-.1l-2.8-.6.6-.8 4-1.9h3.2l1.8.8m2.4 2.9h2l2.8 1.2.1.2-.1.4-1.4.3-1 .5-2.2.6h-.1l-1.5-.7-1-1H27l.6-.6zm4.8 1.8.1-.4.3.3zm-7.7 9.8h.1l.8.1.4.3h.3l.8.5.8.2 1.8.4-.1.6V22l.4.1-.4.5-.2.3-3.5 1.6-.6.2h-3.2l-3-1.3-.9-.7-.3-.3 1.6-1.5 2.3-1.1.6.2zm-18-11 3.4 1.9.2.2-2 3.5h-.1l-2.8.9h-.1l-4.2-2h-.4L0 12.3 2.4 11zm11.7-4.9.5.2.2.2-.2.5-1.3.3h-.1l-1 .5-2.2.5h-.1l-1.5-.7-1.1-1 .6-.5 1.9-1h2zm4 16.5V20z"/><path fill="#0b0d0c" d="M49.4 34.6h-.1M28 24.4q1.7-.9 3.5-1.6l.2-.3v21.2l-3.7 2z"/><path fill="#2b1811" d="m49.3 34.7-6.8 3.5V15.7l6.8-2.2zM33 43l-1.4.7V22.6l.4-.5-.4-.1-1.7-.4v-3l2.9-.3.1 1.2v-.1q.4 14.2 0 23.7M24 1.3l1 2.4.1.1 1.9.6h.1V6l-1.7-.8h-1.9V3.3l.2-.1h-.2zm6 3.9 1.2 2.7h.3V9H30zm-3 5.3 1 .9h.1l1.5.7 2.3-.6 1-.4V11l1.4-.3v2.7l-2.7-1L28 14l-.2.3.7 1.6-1.4-2.5V16l-1-.5-1 .9v-1.6h.1l2-2v-2.4m-.5 6.9v3l-2.3-.4v-2.4zM12.5 39.2l.2-30.7.9-.1 1.7-.2 1.2-.7v2.8l-2.1 1.3-.1.1-.1.2.1.2.1.3 2.1 3.9.3.1v25l-2.5-1.2zM7.3 16v20.6L0 32.9V12.3L2.8 14H3zm7-3.9v28z"/><path fill="#4f2e20" d="M27.3 6h-.1"/><path fill="#3d2918" d="M27.9 24.5v21.3l-1.2.5-6.4-3.1V22.7l.8.7 3 1.3h3.2z"/><path fill="none" stroke="#000" stroke-linecap="round" stroke-linejoin="round" stroke-opacity=".2" stroke-width="__RESOLUTION__" d="M38.4 5.7v2m3.1 0v.9m-9.9 35.2v1.4m-2-37.6-1-.9-1.4-.6h0l-1.7-.8h-3.3l-4 1.9-.6.8 2.8.6h.1l1.5.8 3.8.8 2.3-1V9h0zm4.9 3.1.1-.4m-.1.4v2.7h.1M37 8.7l.8-.4m.5-.5-.1-2.1M36.6 9l.4-.3m1.3 1.5v2.2l-.3.5m.8-1.3.2-.5V9.7m-22.5.6v.8m10.2 6.3v3h.1m1.3.5v-4.3m0 4.3h.1m3.4 1.1v.6m-11.4.1v22.6M8.9 8.6l-.1.9m3.8-1.3-.3-.2m1.4-2.8 1 .9h.1l1.5.7h0l2.4-.5.9-.5h0l1.4-.3.2-.5-.2-.2-.5-.2-2.3-1h-2l-1.9 1zv3.3m2.9-.9v2.8m-2.2 1.4v29.8m-2-33.4.3.3M20.5 4v.5m4 13-.2-.5m.2.5V21" vector-effect="non-scaling-stroke"/><path fill="none" stroke="#000" stroke-linecap="round" stroke-linejoin="round" stroke-opacity=".2" stroke-width="__RESOLUTION__" d="m38.6 7.6 1-.9 2.2.9-.2.2-.9.5m-3 0 .5-.5.2-.1m-13.3 8.8 1-.9 1 .5 1.1.4-.1.1-1 .5m0 .1-.4.2h0l-2.3.2h-.2l-.3-.2.3-.2.7-.6M12.2 8l-1 .6H11l-2 .1-.2-.1L10.6 7l1.7.7m.4.7-.3-.2v-.1l1.2-1 1-.7 2.2.9-.3.1-1.2.8-1.7.1zm11-5-1.1.7h-.2l-2 .1-.2-.1L22 2.5l1.6.7" vector-effect="non-scaling-stroke"/><path fill="none" stroke="#000" stroke-linecap="round" stroke-linejoin="round" stroke-opacity=".5" stroke-width="__RESOLUTION__" d="M51.2 12.2v.2M29.7 9h2l2.8 1.2.1.2.3.3-.4.1-1.4.3h0l-1 .5-2.2.6h-.1l-1.5-.7h0l-1-1H27l.6-.6zm-2.8 11.5.8.1.4.3m.3 0 .8.5h0l.8.2m1.7 1-.2.3-3.5 1.6-.6.2h-3.2l-3-1.3-.9-.7-.3-.3 1.6-1.5h0l2.3-1.1h0l.6.2 2.3.5m-12.5-8.2.1.3m-.1-.6-.1-.2.1-.2" vector-effect="non-scaling-stroke"/></g></defs><g clip-path="url(#c)"><g transform="translate(26.5 12.05)"><use xlink:href="#d" width="51.4" height="46.4" transform="translate(-25.5 -11.05)"/><use xlink:href="#e" width="50.9" height="38.3" transform="translate(-25.4 -1.9)"/></g></g></svg>