<svg xmlns="http://www.w3.org/2000/svg" xmlns:xlink="http://www.w3.org/1999/xlink" width="196" height="215" viewBox="0 0 196 215"><defs><g id="aa"><path fill="#000" d="m0 1 2-1 1.6 1-1.8.9z"/><path fill="#2b2e31" d="m0 1 1.8.9V12L0 10.8z"/><path fill="#181a20" d="M1.8 1.9 3.6 1v10.2l-1.8.8z"/><path fill="none" stroke="#000" stroke-linecap="round" stroke-linejoin="round" stroke-width="__RESOLUTION__" d="M3.6 1 1.9 0 0 1" vector-effect="non-scaling-stroke"/></g><g id="Z"><path fill="#363636" d="M4.1 2 4 1.7v-.1q.7-.4 1.3 0l.1 1.3-.2.2q.4 2.2-1.8 2.5 1.8-1.3 1-3.3zm-1.5-.9q.3-.1.6.2-.5 1-1.3.3l.1-.1q.3-.5.8-.5z"/><path fill="url(#a)" d="m.8-1.3.3.3q.8 2-1 3.3Q2.4 1.9 2-.4v-1.4q-.6-.3-1.2 0l-.2.1q0 .3.2.4m-4 2-.1-.7q0-1.3 1-2.3t2.3-1 2.4 1 1 2.3-1 2.4l-.1.1v-.3L2.2 2h-.1v.1l-.1.1v.2l-.4.1-.1.1-.1.1-2.9-.7-.1-.5-.3-.2h-.5Q-2.5.7-3 .5zm2.5-3 .2-.1q-.5.1-.8.5v.2Q-.7-1-.2-2q-.2-.4-.6-.2M-2.5-.4v.1l1 .2q.1-.5-.3-.9h-.1l-.1-.2z" transform="translate(3.3 3.35)"/><path fill="#060e0f" d="M5.6 5.9h-.2l-.2.3-.4.1-1 .4h-.5Q2 6.7 1 5.7L.3 5 0 4.1l.3-.2q.5.1.6.8h.4l.4.1.1.5 2.9.8.1-.1.1-.2h.4v-.3h.1v-.1h.1v.5"/><path fill="#0a1718" d="m.8 3 .5-.8v.1h.2q.4.4.3 1z"/></g><g id="Y"><path fill="url(#b)" d="m4.7 1.6 3.3.8 1.3 2-2.5 1.8L3 5l-.8-2.7z" transform="translate(4 -1.55)"/><path fill="url(#c)" d="M3.3 11.4.8 13.3l-4-1.4-.8-2.7 2.6-.6 3.3.8z" transform="translate(4 -1.55)"/></g><g id="X"><path fill="url(#d)" d="M76-23.8v6.8L-37.7 140.3l-.2-6.4z" transform="translate(41.6 25.65)"/><path fill="url(#e)" d="M76-23.8-38 133.9l-3.6-1.7 114-157.8z" transform="translate(41.6 25.65)"/><path fill="#000" d="m3.7 159.6.2 6.4-3.9-2v-6.2z"/></g><g id="V"><path fill="#000" d="m0 1 2-1 1.6 1-1.8.9z"/><path fill="#8d97a0" d="m0 1 1.8.9V12L0 10.8z"/><path fill="#50556a" d="M1.8 1.9 3.6 1v10.2l-1.8.8z"/><path fill="none" stroke="#000" stroke-linecap="round" stroke-linejoin="round" stroke-width="__RESOLUTION__" d="M3.6 1 1.9 0 0 1" vector-effect="non-scaling-stroke"/></g><g id="U"><path fill="#b2b2b2" d="M4.1 2 4 1.7v-.1q.7-.4 1.3 0l.1 1.3-.2.2q.4 2.2-1.8 2.5 1.8-1.3 1-3.3zm-1.5-.9q.3-.1.6.2-.5 1-1.3.3l.1-.1q.3-.5.8-.5z"/><path fill="url(#f)" d="m.8-1.3.3.3q.8 2-1 3.3Q2.4 1.9 2-.4v-1.4q-.6-.3-1.2 0l-.2.1q0 .3.2.4m-4 2-.1-.7q0-1.3 1-2.3t2.3-1 2.4 1 1 2.3-1 2.4l-.1.1v-.3L2.2 2h-.1v.1l-.1.1v.2l-.4.1-.1.1-.1.1-2.9-.7-.1-.5-.3-.2h-.5Q-2.5.7-3 .5zm2.5-3 .2-.1q-.5.1-.8.5v.2Q-.7-1-.2-2q-.2-.4-.6-.2M-2.5-.4v.1l1 .2q.1-.5-.3-.9h-.1l-.1-.2z" transform="translate(3.3 3.35)"/><path fill="#163030" d="M5.6 5.9h-.2l-.2.3-.4.1-1 .4h-.5Q2 6.7 1 5.7L.3 5 0 4.1l.3-.2q.5.1.6.8h.4l.4.1.1.5 2.9.8.1-.1.1-.2h.4v-.3h.1v-.1h.1v.5"/><path fill="#234d4f" d="m.8 3 .5-.8v.1h.2q.4.4.3 1z"/></g><g id="T"><path fill="url(#g)" d="m4.7 1.6 3.3.8 1.3 2-2.5 1.8L3 5l-.8-2.7z" transform="translate(4 -1.55)"/><path fill="url(#i)" d="M3.3 11.4.8 13.3l-4-1.4-.8-2.7 2.6-.6 3.3.8z" transform="translate(4 -1.55)"/></g><g id="S"><path fill="#000" d="m0 1 2-1 1.6 1-1.8.9z"/><path fill="#737b82" d="m0 1 1.8.9V12L0 10.8z"/><path fill="#414556" d="M1.8 1.9 3.6 1v10.2l-1.8.8z"/><path fill="none" stroke="#000" stroke-linecap="round" stroke-linejoin="round" stroke-width="__RESOLUTION__" d="M3.6 1 1.9 0 0 1" vector-effect="non-scaling-stroke"/></g><g id="R"><path fill="#919191" d="M4.1 2 4 1.7v-.1q.7-.4 1.3 0l.1 1.3-.2.2q.4 2.2-1.8 2.5 1.8-1.3 1-3.3zm-1.5-.9q.3-.1.6.2-.5 1-1.3.3l.1-.1q.3-.5.8-.5z"/><path fill="url(#j)" d="m.8-1.3.3.3q.8 2-1 3.3Q2.4 1.9 2-.4v-1.4q-.6-.3-1.2 0l-.2.1q0 .3.2.4m-4 2-.1-.7q0-1.3 1-2.3t2.3-1 2.4 1 1 2.3-1 2.4l-.1.1v-.3L2.2 2h-.1v.1l-.1.1v.2l-.4.1-.1.1-.1.1-2.9-.7-.1-.5-.3-.2h-.5Q-2.5.7-3 .5zm2.5-3 .2-.1q-.5.1-.8.5v.2Q-.7-1-.2-2q-.2-.4-.6-.2M-2.5-.4v.1l1 .2q.1-.5-.3-.9h-.1l-.1-.2z" transform="translate(3.3 3.35)"/><path fill="#122727" d="M5.6 5.9h-.2l-.2.3-.4.1-1 .4h-.5Q2 6.7 1 5.7L.3 5 0 4.1l.3-.2q.5.1.6.8h.4l.4.1.1.5 2.9.8.1-.1.1-.2h.4v-.3h.1v-.1h.1v.5"/><path fill="#1d3f40" d="m.8 3 .5-.8v.1h.2q.4.4.3 1z"/></g><g id="Q"><path fill="url(#k)" d="m4.7 1.6 3.3.8 1.3 2-2.5 1.8L3 5l-.8-2.7z" transform="translate(4 -1.55)"/><path fill="url(#l)" d="M3.3 11.4.8 13.3l-4-1.4-.8-2.7 2.6-.6 3.3.8z" transform="translate(4 -1.55)"/></g><g id="P"><path fill="#000" d="m0 1 2-1 1.6 1-1.8.9z"/><path fill="#62696f" d="m0 1 1.8.9V12L0 10.8z"/><path fill="#373b4a" d="M1.8 1.9 3.6 1v10.2l-1.8.8z"/><path fill="none" stroke="#000" stroke-linecap="round" stroke-linejoin="round" stroke-width="__RESOLUTION__" d="M3.6 1 1.9 0 0 1" vector-effect="non-scaling-stroke"/></g><g id="O"><path fill="#7c7c7c" d="M4.1 2 4 1.7v-.1q.7-.4 1.3 0l.1 1.3-.2.2q.4 2.2-1.8 2.5 1.8-1.3 1-3.3zm-1.5-.9q.3-.1.6.2-.5 1-1.3.3l.1-.1q.3-.5.8-.5z"/><path fill="url(#m)" d="m.8-1.3.3.3q.8 2-1 3.3Q2.4 1.9 2-.4v-1.4q-.6-.3-1.2 0l-.2.1q0 .3.2.4m-4 2-.1-.7q0-1.3 1-2.3t2.3-1 2.4 1 1 2.3-1 2.4l-.1.1v-.3L2.2 2h-.1v.1l-.1.1v.2l-.4.1-.1.1-.1.1-2.9-.7-.1-.5-.3-.2h-.5Q-2.5.7-3 .5zm2.5-3 .2-.1q-.5.1-.8.5v.2Q-.7-1-.2-2q-.2-.4-.6-.2M-2.5-.4v.1l1 .2q.1-.5-.3-.9h-.1l-.1-.2z" transform="translate(3.3 3.35)"/><path fill="#0f2122" d="M5.6 5.9h-.2l-.2.3-.4.1-1 .4h-.5Q2 6.7 1 5.7L.3 5 0 4.1l.3-.2q.5.1.6.8h.4l.4.1.1.5 2.9.8.1-.1.1-.2h.4v-.3h.1v-.1h.1v.5"/><path fill="#183637" d="m.8 3 .5-.8v.1h.2q.4.4.3 1z"/></g><g id="N"><path fill="url(#n)" d="m4.7 1.6 3.3.8 1.3 2-2.5 1.8L3 5l-.8-2.7z" transform="translate(4 -1.55)"/><path fill="url(#o)" d="M3.3 11.4.8 13.3l-4-1.4-.8-2.7 2.6-.6 3.3.8z" transform="translate(4 -1.55)"/></g><g id="M"><path fill="#000" d="m0 1 2-1 1.6 1-1.8.9z"/><path fill="#42464b" d="m0 1 1.8.9V12L0 10.8z"/><path fill="#252731" d="M1.8 1.9 3.6 1v10.2l-1.8.8z"/><path fill="none" stroke="#000" stroke-linecap="round" stroke-linejoin="round" stroke-width="__RESOLUTION__" d="M3.6 1 1.9 0 0 1" vector-effect="non-scaling-stroke"/></g><g id="L"><path fill="#525252" d="M4.1 2 4 1.7v-.1q.7-.4 1.3 0l.1 1.3-.2.2q.4 2.2-1.8 2.5 1.8-1.3 1-3.3zm-1.5-.9q.3-.1.6.2-.5 1-1.3.3l.1-.1q.3-.5.8-.5z"/><path fill="url(#p)" d="m.8-1.3.3.3q.8 2-1 3.3Q2.4 1.9 2-.4v-1.4q-.6-.3-1.2 0l-.2.1q0 .3.2.4m-4 2-.1-.7q0-1.3 1-2.3t2.3-1 2.4 1 1 2.3-1 2.4l-.1.1v-.3L2.2 2h-.1v.1l-.1.1v.2l-.4.1-.1.1-.1.1-2.9-.7-.1-.5-.3-.2h-.5Q-2.5.7-3 .5zm2.5-3 .2-.1q-.5.1-.8.5v.2Q-.7-1-.2-2q-.2-.4-.6-.2M-2.5-.4v.1l1 .2q.1-.5-.3-.9h-.1l-.1-.2z" transform="translate(3.3 3.35)"/><path fill="#0a1616" d="M5.6 5.9h-.2l-.2.3-.4.1-1 .4h-.5Q2 6.7 1 5.7L.3 5 0 4.1l.3-.2q.5.1.6.8h.4l.4.1.1.5 2.9.8.1-.1.1-.2h.4v-.3h.1v-.1h.1v.5"/><path fill="#102324" d="m.8 3 .5-.8v.1h.2q.4.4.3 1z"/></g><g id="K"><path fill="url(#q)" d="m4.7 1.6 3.3.8 1.3 2-2.5 1.8L3 5l-.8-2.7z" transform="translate(4 -1.55)"/><path fill="url(#r)" d="M3.3 11.4.8 13.3l-4-1.4-.8-2.7 2.6-.6 3.3.8z" transform="translate(4 -1.55)"/></g><g id="J"><path fill="#000" d="m0 1 2-1 1.6 1-1.8.9z"/><path fill="#1a1c1e" d="m0 1 1.8.9V12L0 10.8z"/><path fill="#0f0f13" d="M1.8 1.9 3.6 1v10.2l-1.8.8z"/><path fill="none" stroke="#000" stroke-linecap="round" stroke-linejoin="round" stroke-width="__RESOLUTION__" d="M3.6 1 1.9 0 0 1" vector-effect="non-scaling-stroke"/></g><g id="I"><path fill="#202020" d="M4.1 2 4 1.7v-.1q.7-.4 1.3 0l.1 1.3-.2.2q.4 2.2-1.8 2.5 1.8-1.3 1-3.3zm-1.5-.9q.3-.1.6.2-.5 1-1.3.3l.1-.1q.3-.5.8-.5z"/><path fill="url(#s)" d="m.8-1.3.3.3q.8 2-1 3.3Q2.4 1.9 2-.4v-1.4q-.6-.3-1.2 0l-.2.1q0 .3.2.4m-4 2-.1-.7q0-1.3 1-2.3t2.3-1 2.4 1 1 2.3-1 2.4l-.1.1v-.3L2.2 2h-.1v.1l-.1.1v.2l-.4.1-.1.1-.1.1-2.9-.7-.1-.5-.3-.2h-.5Q-2.5.7-3 .5zm2.5-3 .2-.1q-.5.1-.8.5v.2Q-.7-1-.2-2q-.2-.4-.6-.2M-2.5-.4v.1l1 .2q.1-.5-.3-.9h-.1l-.1-.2z" transform="translate(3.3 3.35)"/><path fill="#040809" d="M5.6 5.9h-.2l-.2.3-.4.1-1 .4h-.5Q2 6.7 1 5.7L.3 5 0 4.1l.3-.2q.5.1.6.8h.4l.4.1.1.5 2.9.8.1-.1.1-.2h.4v-.3h.1v-.1h.1v.5"/><path fill="#060e0e" d="m.8 3 .5-.8v.1h.2q.4.4.3 1z"/></g><g id="H"><path fill="url(#t)" d="m4.7 1.6 3.3.8 1.3 2-2.5 1.8L3 5l-.8-2.7z" transform="translate(4 -1.55)"/><path fill="url(#u)" d="M3.3 11.4.8 13.3l-4-1.4-.8-2.7 2.6-.6 3.3.8z" transform="translate(4 -1.55)"/></g><g id="G"><path fill="url(#v)" d="M-41.1 158.5 73.4-.2l1.8 1.3 1 .7h.3v.6l-.1.1v-.1L-37.5 160.2z" transform="translate(41.1 .2)"/><path fill="#1d2125" d="m117.5 2.7-.2 26.8L3.5 186.8l-.1-6.4.2-.4h.1l-.1-6.4 1.3-1.8-1.3 1.7-.2-6.4.2-.3.1-.1-.1-6.2v-.1L117.5 2.6z"/><path fill="#000" d="M3.6 166.8 0 164.9v-6.2l3.6 1.8.1 6.2"/></g><g id="F"><path fill="#070a0c" d="M.7 8.9v-.2l-.1-.4L8.9 4q1.5 0 2.4-1h.2l.1-.4L16.8 0l1.5.1 3.2 1.7-.1.2-.1.3q1 .6 2.2.5l1.6.8-16.3 8.7-1.2-.2-2.9-1.3.3-.3.5-.2.2-.4q-.5-.3 0-.5Q6.5 9 7 8.3q-1.3 0-2.4.8-.7.7-.5.8l-.2-.1-.1.2v.3z"/><path fill="#070b0d" d="m25.1 3.6.2.1v.1l-3.4 1.8L19.3 7l-.3.5-1.1 1-1.2-.1-5.8 3.1-.6.3-1.7 1-.6 2.7-.6-3.1h.1l-3-1.6h-.2l-.5-.3L.6 9h.1l3 1.4 1 .4 3 1.4 1 .2z"/><path fill="#050406" d="M25.3 3.9v.4l.1.1v5.9l-.6.7-4.8 2.4h-.5l-.6.6-2.3 1.2h-.2l-.3-.2-.1.1-.2.3h-.6l-1.3.8-.8.6-.7.5-3.8 2h-.4l-.1.1v-3.8l.5-2.8 1.8-1 .3-.1.2-.2 5.8-3.1 1.2.1 1.1-1 .3-.5 2.6-1.4z"/><path fill="#050507" d="M8.1 19.4h-.2L.8 16q-.2-1-.8-1.5V9.6l.6-.7 3.2 1.6.5.3h.1l3 1.6h.1l.5 3.1zm-2.2-4.3q.3-.3 0-1.5-.9-.8-1.9-1.2l-.2.5q-.2-.2-1-.2-.9.2-1.2 1 1.2 2 4 1.2z"/><path fill="#06080a" d="m3.8 10.3-.1-.1v-.4l.3.1q-.2-.2.5-.8 1.1-.8 2.4-.8-.4.7-1.2 1.1-.5.2 0 .5l-.2.4-.5.2-.3.3z"/><path fill="#050608" d="m10.9 11.5-.2.2-.3.1zM6 15.2l-.4-.2q-2.7.7-3.9-1.2.3-.8 1.2-1 .8 0 1 .3l.2-.7q1 .5 1.9 1.3.3 1.2 0 1.5"/><path fill="none" stroke="#050406" stroke-linecap="round" stroke-linejoin="round" stroke-width="__RESOLUTION__" d="M0 14.6v-5" vector-effect="non-scaling-stroke"/></g><g id="E"><path fill="#587b8e" d="M.7 8.9v-.2l-.1-.4L8.9 4q1.5 0 2.4-1h.2l.1-.4L16.8 0l1.5.1 3.2 1.7-.1.2-.1.3q1 .6 2.2.5l1.6.8-16.3 8.7-1.2-.2-2.9-1.3.3-.3.5-.2.2-.4q-.5-.3 0-.5Q6.5 9 7 8.3q-1.3 0-2.4.8-.7.7-.5.8l-.2-.1-.1.2v.3z"/><path fill="#5e8193" d="m25.1 3.6.2.1v.1l-3.4 1.8L19.3 7l-.3.5-1.1 1-1.2-.1-5.8 3.1-.6.3-1.7 1-.6 2.7-.6-3.1h.1l-3-1.6h-.2l-.5-.3L.6 9h.1l3 1.4 1 .4 3 1.4 1 .2z"/><path fill="#43384b" d="M25.3 3.9v.4l.1.1v5.9l-.6.7-4.8 2.4h-.5l-.6.6-2.3 1.2h-.2l-.3-.2-.1.1-.2.3h-.6l-1.3.8-.8.6-.7.5-3.8 2h-.4l-.1.1v-3.8l.5-2.8 1.8-1 .3-.1.2-.2 5.8-3.1 1.2.1 1.1-1 .3-.5 2.6-1.4z"/><path fill="#48495c" d="M8.1 19.4h-.2L.8 16q-.2-1-.8-1.5V9.6l.6-.7 3.2 1.6.5.3h.1l3 1.6h.1l.5 3.1zm-2.2-4.3q.3-.3 0-1.5-.9-.8-1.9-1.2l-.2.5q-.2-.2-1-.2-.9.2-1.2 1 1.2 2 4 1.2z"/><path fill="#516477" d="m3.8 10.3-.1-.1v-.4l.3.1q-.2-.2.5-.8 1.1-.8 2.4-.8-.4.7-1.2 1.1-.5.2 0 .5l-.2.4-.5.2-.3.3z"/><path fill="#4b5164" d="m10.9 11.5-.2.2-.3.1z"/><path fill="#494c5f" d="m6 15.1-.5-.2q-2.7.7-3.9-1.2.3-.8 1.2-1 .8 0 1 .3l.2-.7q1 .5 1.9 1.3.3 1.2 0 1.5"/><path fill="none" stroke="#43384b" stroke-linecap="round" stroke-linejoin="round" stroke-width="__RESOLUTION__" d="M0 14.6v-5" vector-effect="non-scaling-stroke"/></g><g id="C"><path fill="#446272" d="M.7 8.9v-.2l-.1-.4L8.9 4q1.5 0 2.4-1h.2l.1-.4L16.8 0l1.5.1 3.2 1.7-.1.2-.1.3q1 .6 2.2.5l1.6.8-16.3 8.7-1.2-.2-2.9-1.3.3-.3.5-.2.2-.4q-.5-.3 0-.5Q6.5 9 7 8.3q-1.3 0-2.4.8-.7.7-.5.8l-.2-.1-.1.2v.3z"/><path fill="#496777" d="m25.1 3.6.2.1v.1l-3.4 1.8L19.3 7l-.3.5-1.1 1-1.2-.1-5.8 3.1-.6.3-1.7 1-.6 2.7-.6-3.1h.1l-3-1.6h-.2l-.5-.3L.6 9h.1l3 1.4 1 .4 3 1.4 1 .2z"/><path fill="#322939" d="M25.3 3.9v.4l.1.1v5.9l-.6.7-4.8 2.4h-.5l-.6.6-2.3 1.2h-.2l-.3-.2-.1.1-.2.3h-.6l-1.3.8-.8.6-.7.5-3.8 2h-.4l-.1.1v-3.8l.5-2.8 1.8-1 .3-.1.2-.2 5.8-3.1 1.2.1 1.1-1 .3-.5 2.6-1.4z"/><path fill="#363747" d="M8.1 19.4h-.2L.8 16q-.2-1-.8-1.5V9.6l.6-.7 3.2 1.6.5.3h.1l3 1.6h.1l.5 3.1zm-2.2-4.3q.3-.3 0-1.5-.9-.8-1.9-1.2l-.2.5q-.2-.2-1-.2-.9.2-1.2 1 1.2 2 4 1.2z"/><path fill="#3e4f5f" d="m3.8 10.3-.1-.1v-.4l.3.1q-.2-.2.5-.8 1.1-.8 2.4-.8-.4.7-1.2 1.1-.5.2 0 .5l-.2.4-.5.2-.3.3z"/><path fill="#393e4e" d="m10.9 11.5-.2.2-.3.1z"/><path fill="#373a4a" d="m6 15.1-.5-.2q-2.7.7-3.9-1.2.3-.8 1.2-1 .8 0 1 .3l.2-.7q1 .5 1.9 1.3.3 1.2 0 1.5"/><path fill="none" stroke="#322939" stroke-linecap="round" stroke-linejoin="round" stroke-width="__RESOLUTION__" d="M0 14.6v-5" vector-effect="non-scaling-stroke"/></g><g id="B"><path fill="#344a57" d="M.7 8.9v-.2l-.1-.4L8.9 4q1.5 0 2.4-1h.2l.1-.4L16.8 0l1.5.1 3.2 1.7-.1.2-.1.3q1 .6 2.2.5l1.6.8-16.3 8.7-1.2-.2-2.9-1.3.3-.3.5-.2.2-.4q-.5-.3 0-.5Q6.5 9 7 8.3q-1.3 0-2.4.8-.7.7-.5.8l-.2-.1-.1.2v.3z"/><path fill="#374e5b" d="m25.1 3.6.2.1v.1l-3.4 1.8L19.3 7l-.3.5-1.1 1-1.2-.1-5.8 3.1-.6.3-1.7 1-.6 2.7-.6-3.1h.1l-3-1.6h-.2l-.5-.3L.6 9h.1l3 1.4 1 .4 3 1.4 1 .2z"/><path fill="#261f2c" d="M25.3 3.9v.4l.1.1v5.9l-.6.7-4.8 2.4h-.5l-.6.6-2.3 1.2h-.2l-.3-.2-.1.1-.2.3h-.6l-1.3.8-.8.6-.7.5-3.8 2h-.4l-.1.1v-3.8l.5-2.8 1.8-1 .3-.1.2-.2 5.8-3.1 1.2.1 1.1-1 .3-.5 2.6-1.4z"/><path fill="#292a37" d="M8.1 19.4h-.2L.8 16q-.2-1-.8-1.5V9.6l.6-.7 3.2 1.6.5.3h.1l3 1.6h.1l.5 3.1zm-2.2-4.3q.3-.3 0-1.5-.9-.8-1.9-1.2l-.2.5q-.2-.2-1-.2-.9.2-1.2 1 1.2 2 4 1.2z"/><path fill="#2f3c49" d="m3.8 10.3-.1-.1v-.4l.3.1q-.2-.2.5-.8 1.1-.8 2.4-.8-.4.7-1.2 1.1-.5.2 0 .5l-.2.4-.5.2-.3.3z"/><path fill="#2b2f3c" d="m10.9 11.5-.2.2-.3.1z"/><path fill="#2a2c39" d="m6 15.1-.5-.2q-2.7.7-3.9-1.2.3-.8 1.2-1 .8 0 1 .3l.2-.7q1 .5 1.9 1.3.3 1.2 0 1.5"/><path fill="none" stroke="#261f2c" stroke-linecap="round" stroke-linejoin="round" stroke-width="__RESOLUTION__" d="M0 14.6v-5" vector-effect="non-scaling-stroke"/></g><g id="A"><path fill="#23333c" d="M.7 8.9v-.2l-.1-.4L8.9 4q1.5 0 2.4-1h.2l.1-.4L16.8 0l1.5.1 3.2 1.7-.1.2-.1.3q1 .6 2.2.5l1.6.8-16.3 8.7-1.2-.2-2.9-1.3.3-.3.5-.2.2-.4q-.5-.3 0-.5Q6.5 9 7 8.3q-1.3 0-2.4.8-.7.7-.5.8l-.2-.1-.1.2v.3z"/><path fill="#26363f" d="m25.1 3.6.2.1v.1l-3.4 1.8L19.3 7l-.3.5-1.1 1-1.2-.1-5.8 3.1-.6.3-1.7 1-.6 2.7-.6-3.1h.1l-3-1.6h-.2l-.5-.3L.6 9h.1l3 1.4 1 .4 3 1.4 1 .2z"/><path fill="#1a151e" d="M25.3 3.9v.4l.1.1v5.9l-.6.7-4.8 2.4h-.5l-.6.6-2.3 1.2h-.2l-.3-.2-.1.1-.2.3h-.6l-1.3.8-.8.6-.7.5-3.8 2h-.4l-.1.1v-3.8l.5-2.8 1.8-1 .3-.1.2-.2 5.8-3.1 1.2.1 1.1-1 .3-.5 2.6-1.4z"/><path fill="#1c1c25" d="M8.1 19.4h-.2L.8 16q-.2-1-.8-1.5V9.6l.6-.7 3.2 1.6.5.3h.1l3 1.6h.1l.5 3.1zm-2.2-4.3q.3-.3 0-1.5-.9-.8-1.9-1.2l-.2.5q-.2-.2-1-.2-.9.2-1.2 1 1.2 2 4 1.2z"/><path fill="#202932" d="m3.8 10.3-.1-.1v-.4l.3.1q-.2-.2.5-.8 1.1-.8 2.4-.8-.4.7-1.2 1.1-.5.2 0 .5l-.2.4-.5.2-.3.3z"/><path fill="#1d2029" d="m10.9 11.5-.2.2-.3.1z"/><path fill="#1d1e27" d="m6 15.1-.5-.2q-2.7.7-3.9-1.2.3-.8 1.2-1 .8 0 1 .3l.2-.7q1 .5 1.9 1.3.3 1.2 0 1.5"/><path fill="none" stroke="#1a151e" stroke-linecap="round" stroke-linejoin="round" stroke-width="__RESOLUTION__" d="M0 14.6v-5" vector-effect="non-scaling-stroke"/></g><g id="z"><path fill="#172228" d="M.7 8.9v-.2l-.1-.4L8.9 4q1.5 0 2.4-1h.2l.1-.4L16.8 0l1.5.1 3.2 1.7-.1.2-.1.3q1 .6 2.2.5l1.6.8-16.3 8.7-1.2-.2-2.9-1.3.3-.3.5-.2.2-.4q-.5-.3 0-.5Q6.5 9 7 8.3q-1.3 0-2.4.8-.7.7-.5.8l-.2-.1-.1.2v.3z"/><path fill="#192329" d="m25.1 3.6.2.1v.1l-3.4 1.8L19.3 7l-.3.5-1.1 1-1.2-.1-5.8 3.1-.6.3-1.7 1-.6 2.7-.6-3.1h.1l-3-1.6h-.2l-.5-.3L.6 9h.1l3 1.4 1 .4 3 1.4 1 .2z"/><path fill="#110e14" d="M25.3 3.9v.4l.1.1v5.9l-.6.7-4.8 2.4h-.5l-.6.6-2.3 1.2h-.2l-.3-.2-.1.1-.2.3h-.6l-1.3.8-.8.6-.7.5-3.8 2h-.4l-.1.1v-3.8l.5-2.8 1.8-1 .3-.1.2-.2 5.8-3.1 1.2.1 1.1-1 .3-.5 2.6-1.4z"/><path fill="#121319" d="M8.1 19.4h-.2L.8 16q-.2-1-.8-1.5V9.6l.6-.7 3.2 1.6.5.3h.1l3 1.6h.1l.5 3.1zm-2.2-4.3q.3-.3 0-1.5-.9-.8-1.9-1.2l-.2.5q-.2-.2-1-.2-.9.2-1.2 1 1.2 2 4 1.2z"/><path fill="#151b21" d="m3.8 10.3-.1-.1v-.4l.3.1q-.2-.2.5-.8 1.1-.8 2.4-.8-.4.7-1.2 1.1-.5.2 0 .5l-.2.4-.5.2-.3.3z"/><path fill="#13151b" d="m10.9 11.5-.2.2-.3.1z"/><path fill="#13141a" d="m6 15.1-.5-.2q-2.7.7-3.9-1.2.3-.8 1.2-1 .8 0 1 .3l.2-.7q1 .5 1.9 1.3.3 1.2 0 1.5"/><path fill="none" stroke="#110e14" stroke-linecap="round" stroke-linejoin="round" stroke-width="__RESOLUTION__" d="M0 14.6v-5" vector-effect="non-scaling-stroke"/></g><g id="y"><path fill="#0d1317" d="M.7 8.9v-.2l-.1-.4L8.9 4q1.5 0 2.4-1h.2l.1-.4L16.8 0l1.5.1 3.2 1.7-.1.2-.1.3q1 .6 2.2.5l1.6.8-16.3 8.7-1.2-.2-2.9-1.3.3-.3.5-.2.2-.4q-.5-.3 0-.5Q6.5 9 7 8.3q-1.3 0-2.4.8-.7.7-.5.8l-.2-.1-.1.2v.3z"/><path fill="#0e1418" d="m25.1 3.6.2.1v.1l-3.4 1.8L19.3 7l-.3.5-1.1 1-1.2-.1-5.8 3.1-.6.3-1.7 1-.6 2.7-.6-3.1h.1l-3-1.6h-.2l-.5-.3L.6 9h.1l3 1.4 1 .4 3 1.4 1 .2z"/><path fill="#0a080c" d="M25.3 3.9v.4l.1.1v5.9l-.6.7-4.8 2.4h-.5l-.6.6-2.3 1.2h-.2l-.3-.2-.1.1-.2.3h-.6l-1.3.8-.8.6-.7.5-3.8 2h-.4l-.1.1v-3.8l.5-2.8 1.8-1 .3-.1.2-.2 5.8-3.1 1.2.1 1.1-1 .3-.5 2.6-1.4z"/><path fill="#0a0a0e" d="M8.1 19.4h-.2L.8 16q-.2-1-.8-1.5V9.6l.6-.7 3.2 1.6.5.3h.1l3 1.6h.1l.5 3.1zm-2.2-4.3q.3-.3 0-1.5-.9-.8-1.9-1.2l-.2.5q-.2-.2-1-.2-.9.2-1.2 1 1.2 2 4 1.2z"/><path fill="#0c0f13" d="m3.8 10.3-.1-.1v-.4l.3.1q-.2-.2.5-.8 1.1-.8 2.4-.8-.4.7-1.2 1.1-.5.2 0 .5l-.2.4-.5.2-.3.3z"/><path fill="#0b0c10" d="m10.9 11.5-.2.2-.3.1z"/><path fill="#0b0b0f" d="m6 15.1-.5-.2q-2.7.7-3.9-1.2.3-.8 1.2-1 .8 0 1 .3l.2-.7q1 .5 1.9 1.3.3 1.2 0 1.5"/><path fill="none" stroke="#0a080c" stroke-linecap="round" stroke-linejoin="round" stroke-width="__RESOLUTION__" d="M0 14.6v-5" vector-effect="non-scaling-stroke"/></g><radialGradient id="a" cx="0" cy="0" r="819.2" gradientTransform="matrix(.01 0 0 .01 -1.75 1.8)" gradientUnits="userSpaceOnUse" spreadMethod="pad"><stop offset="0" stop-color="#060613"/><stop offset=".7" stop-color="#1d2733"/><stop offset="1" stop-color="#263235"/></radialGradient><radialGradient id="c" cx="0" cy="0" r="819.2" gradientTransform="matrix(.01 0 0 .01 -1.4 10.35)" gradientUnits="userSpaceOnUse" spreadMethod="pad"><stop offset="0" stop-color="#000"/><stop offset=".8" stop-color="#101216" stop-opacity="0"/></radialGradient><radialGradient id="b" cx="0" cy="0" r="819.2" gradientTransform="matrix(.01 0 0 .01 4.65 3.3)" gradientUnits="userSpaceOnUse" spreadMethod="pad"><stop offset="0" stop-color="#000"/><stop offset=".8" stop-color="#101216" stop-opacity="0"/></radialGradient><radialGradient id="e" cx="0" cy="0" r="819.2" gradientTransform="matrix(.24 0 0 .24 -38.6 130)" gradientUnits="userSpaceOnUse" spreadMethod="pad"><stop offset="0" stop-color="#000"/><stop offset="1" stop-color="#575d73"/></radialGradient><radialGradient id="d" cx="0" cy="0" r="819.2" gradientTransform="matrix(.24 0 0 .24 -37.9 134)" gradientUnits="userSpaceOnUse" spreadMethod="pad"><stop offset="0" stop-color="#000"/><stop offset=".8" stop-color="#272d32"/></radialGradient><radialGradient id="i" cx="0" cy="0" r="819.2" gradientTransform="matrix(.01 0 0 .01 -1.4 10.35)" gradientUnits="userSpaceOnUse" spreadMethod="pad"><stop offset="0" stop-color="#000"/><stop offset=".8" stop-color="#373d48" stop-opacity="0"/></radialGradient><radialGradient id="f" cx="0" cy="0" r="819.2" gradientTransform="matrix(.01 0 0 .01 -1.75 1.8)" gradientUnits="userSpaceOnUse" spreadMethod="pad"><stop offset="0" stop-color="#14143f"/><stop offset=".7" stop-color="#5e7fa7"/><stop offset="1" stop-color="#7da5af"/></radialGradient><radialGradient id="g" cx="0" cy="0" r="819.2" gradientTransform="matrix(.01 0 0 .01 4.65 3.3)" gradientUnits="userSpaceOnUse" spreadMethod="pad"><stop offset="0" stop-color="#000"/><stop offset=".8" stop-color="#373d48" stop-opacity="0"/></radialGradient><radialGradient id="j" cx="0" cy="0" r="819.2" gradientTransform="matrix(.01 0 0 .01 -1.75 1.8)" gradientUnits="userSpaceOnUse" spreadMethod="pad"><stop offset="0" stop-color="#113"/><stop offset=".7" stop-color="#4c6788"/><stop offset="1" stop-color="#66878f"/></radialGradient><radialGradient id="l" cx="0" cy="0" r="819.2" gradientTransform="matrix(.01 0 0 .01 -1.4 10.35)" gradientUnits="userSpaceOnUse" spreadMethod="pad"><stop offset="0" stop-color="#000"/><stop offset=".8" stop-color="#2c313a" stop-opacity="0"/></radialGradient><radialGradient id="k" cx="0" cy="0" r="819.2" gradientTransform="matrix(.01 0 0 .01 4.65 3.3)" gradientUnits="userSpaceOnUse" spreadMethod="pad"><stop offset="0" stop-color="#000"/><stop offset=".8" stop-color="#2c313a" stop-opacity="0"/></radialGradient><radialGradient id="m" cx="0" cy="0" r="819.2" gradientTransform="matrix(.01 0 0 .01 -1.75 1.8)" gradientUnits="userSpaceOnUse" spreadMethod="pad"><stop offset="0" stop-color="#0e0e2c"/><stop offset=".7" stop-color="#415875"/><stop offset="1" stop-color="#57737a"/></radialGradient><radialGradient id="o" cx="0" cy="0" r="819.2" gradientTransform="matrix(.01 0 0 .01 -1.4 10.35)" gradientUnits="userSpaceOnUse" spreadMethod="pad"><stop offset="0" stop-color="#000"/><stop offset=".8" stop-color="#262a32" stop-opacity="0"/></radialGradient><radialGradient id="n" cx="0" cy="0" r="819.2" gradientTransform="matrix(.01 0 0 .01 4.65 3.3)" gradientUnits="userSpaceOnUse" spreadMethod="pad"><stop offset="0" stop-color="#000"/><stop offset=".8" stop-color="#262a32" stop-opacity="0"/></radialGradient><radialGradient id="p" cx="0" cy="0" r="819.2" gradientTransform="matrix(.01 0 0 .01 -1.75 1.8)" gradientUnits="userSpaceOnUse" spreadMethod="pad"><stop offset="0" stop-color="#09091d"/><stop offset=".7" stop-color="#2b3b4d"/><stop offset="1" stop-color="#3a4c51"/></radialGradient><radialGradient id="r" cx="0" cy="0" r="819.2" gradientTransform="matrix(.01 0 0 .01 -1.4 10.35)" gradientUnits="userSpaceOnUse" spreadMethod="pad"><stop offset="0" stop-color="#000"/><stop offset=".8" stop-color="#191c21" stop-opacity="0"/></radialGradient><radialGradient id="q" cx="0" cy="0" r="819.2" gradientTransform="matrix(.01 0 0 .01 4.65 3.3)" gradientUnits="userSpaceOnUse" spreadMethod="pad"><stop offset="0" stop-color="#000"/><stop offset=".8" stop-color="#191c21" stop-opacity="0"/></radialGradient><radialGradient id="s" cx="0" cy="0" r="819.2" gradientTransform="matrix(.01 0 0 .01 -1.75 1.8)" gradientUnits="userSpaceOnUse" spreadMethod="pad"><stop offset="0" stop-color="#03030b"/><stop offset=".7" stop-color="#11171e"/><stop offset="1" stop-color="#171e20"/></radialGradient><radialGradient id="u" cx="0" cy="0" r="819.2" gradientTransform="matrix(.01 0 0 .01 -1.4 10.35)" gradientUnits="userSpaceOnUse" spreadMethod="pad"><stop offset="0" stop-color="#000"/><stop offset=".8" stop-color="#0a0b0d" stop-opacity="0"/></radialGradient><radialGradient id="t" cx="0" cy="0" r="819.2" gradientTransform="matrix(.01 0 0 .01 4.65 3.3)" gradientUnits="userSpaceOnUse" spreadMethod="pad"><stop offset="0" stop-color="#000"/><stop offset=".8" stop-color="#0a0b0d" stop-opacity="0"/></radialGradient><radialGradient id="v" cx="0" cy="0" r="819.2" gradientTransform="matrix(.24 0 0 .24 -38.15 156.35)" gradientUnits="userSpaceOnUse" spreadMethod="pad"><stop offset="0" stop-color="#000"/><stop offset="1" stop-color="#575d73"/></radialGradient><path id="W" fill="url(#i)" d="M3.3 11.4.8 13.3l-4-1.4-.8-2.7 2.6-.6 3.3.8z" transform="translate(4 -8.6)"/><path id="D" fill="none" stroke="#080808" stroke-linecap="round" stroke-linejoin="round" stroke-width="__RESOLUTION__" d="M-48.8-36.9h-8l-4.4 2 5.9 8.5 44.5 22.5m-44.5-22.5.3.6m.3-12-2.1.9h-6.5m1.7 2.1.5-.2m49.9 30.5 7.4-4.6L-49-37.4M-3.8-9.1l.5-.4" transform="translate(63.25 37.85)" vector-effect="non-scaling-stroke"/><path id="x" fill="none" stroke="#000" stroke-linecap="round" stroke-linejoin="round" stroke-width="__RESOLUTION__" d="M-48.8-36.9h-8l-4.4 2 5.9 8.5 44.5 22.5m-44.5-22.5.3.6m.3-12-2.1.9h-6.5m1.7 2.1.5-.2m49.9 30.5 7.4-4.6L-49-37.4M-3.8-9.1l.5-.4" transform="translate(63.25 37.85)" vector-effect="non-scaling-stroke"/><clipPath id="w"><path d="M1 1h194v213H1z"/></clipPath></defs><g clip-path="url(#w)"><g transform="translate(117.1 26.65)"><use xlink:href="#x" width="60" height="34" transform="translate(-82.1 108.7)scale(1.0289)"/><use xlink:href="#y" width="25.4" height="19.4" transform="matrix(-1.0289 0 0 1.0289 -72.65 107.15)"/><use xlink:href="#y" width="25.4" height="19.4" transform="matrix(-1.0289 0 0 1.0289 -53.9 116.45)"/><use xlink:href="#y" width="25.4" height="19.4" transform="matrix(-1.0289 0 0 1.0289 -35.15 125.7)"/><use xlink:href="#y" width="25.4" height="19.4" transform="matrix(-1.0289 0 0 1.0289 -16.4 135.1)"/><use xlink:href="#y" width="25.4" height="19.4" transform="matrix(-1.0289 0 0 1.0289 -65.5 95.95)"/><use xlink:href="#y" width="25.4" height="19.4" transform="matrix(-1.0289 0 0 1.0289 -46.75 105.4)"/><use xlink:href="#y" width="25.4" height="19.4" transform="matrix(-1.0289 0 0 1.0289 -27.45 114.6)"/><use xlink:href="#y" width="25.4" height="19.4" transform="matrix(-1.0289 0 0 1.0289 -9 124.05)"/><use xlink:href="#x" width="60" height="34" transform="translate(-66.1 87.1)scale(1.0289)"/><use xlink:href="#z" width="25.4" height="19.4" transform="matrix(-1.0289 0 0 1.0289 -56.65 85.55)"/><use xlink:href="#z" width="25.4" height="19.4" transform="matrix(-1.0289 0 0 1.0289 -37.9 94.85)"/><use xlink:href="#z" width="25.4" height="19.4" transform="matrix(-1.0289 0 0 1.0289 -19.15 104.1)"/><use xlink:href="#z" width="25.4" height="19.4" transform="matrix(-1.0289 0 0 1.0289 -.4 113.5)"/><use xlink:href="#z" width="25.4" height="19.4" transform="matrix(-1.0289 0 0 1.0289 -49.5 74.35)"/><use xlink:href="#z" width="25.4" height="19.4" transform="matrix(-1.0289 0 0 1.0289 -30.75 83.8)"/><use xlink:href="#z" width="25.4" height="19.4" transform="matrix(-1.0289 0 0 1.0289 -11.45 93)"/><use xlink:href="#z" width="25.4" height="19.4" transform="matrix(-1.0289 0 0 1.0289 7 102.45)"/><use xlink:href="#x" width="60" height="34" transform="translate(-49.15 66)scale(1.0289)"/><use xlink:href="#A" width="25.4" height="19.4" transform="matrix(-1.0289 0 0 1.0289 -39.7 64.45)"/><use xlink:href="#A" width="25.4" height="19.4" transform="matrix(-1.0289 0 0 1.0289 -20.95 73.75)"/><use xlink:href="#A" width="25.4" height="19.4" transform="matrix(-1.0289 0 0 1.0289 -2.2 83)"/><use xlink:href="#A" width="25.4" height="19.4" transform="matrix(-1.0289 0 0 1.0289 16.55 92.4)"/><use xlink:href="#A" width="25.4" height="19.4" transform="matrix(-1.0289 0 0 1.0289 -32.55 53.25)"/><use xlink:href="#A" width="25.4" height="19.4" transform="matrix(-1.0289 0 0 1.0289 -13.8 62.7)"/><use xlink:href="#A" width="25.4" height="19.4" transform="matrix(-1.0289 0 0 1.0289 5.5 71.9)"/><use xlink:href="#A" width="25.4" height="19.4" transform="matrix(-1.0289 0 0 1.0289 23.95 81.35)"/><use xlink:href="#x" width="60" height="34" transform="translate(-32.2 44.75)scale(1.0289)"/><use xlink:href="#B" width="25.4" height="19.4" transform="matrix(-1.0289 0 0 1.0289 -22.75 43.2)"/><use xlink:href="#B" width="25.4" height="19.4" transform="matrix(-1.0289 0 0 1.0289 -4 52.5)"/><use xlink:href="#B" width="25.4" height="19.4" transform="matrix(-1.0289 0 0 1.0289 14.75 61.75)"/><use xlink:href="#B" width="25.4" height="19.4" transform="matrix(-1.0289 0 0 1.0289 33.5 71.15)"/><use xlink:href="#B" width="25.4" height="19.4" transform="matrix(-1.0289 0 0 1.0289 -15.6 32)"/><use xlink:href="#B" width="25.4" height="19.4" transform="matrix(-1.0289 0 0 1.0289 3.15 41.45)"/><use xlink:href="#B" width="25.4" height="19.4" transform="matrix(-1.0289 0 0 1.0289 22.45 50.65)"/><use xlink:href="#B" width="25.4" height="19.4" transform="matrix(-1.0289 0 0 1.0289 40.9 60.1)"/><use xlink:href="#x" width="60" height="34" transform="translate(-15.7 23.35)scale(1.0289)"/><use xlink:href="#C" width="25.4" height="19.4" transform="matrix(-1.0289 0 0 1.0289 -6.25 21.8)"/><use xlink:href="#C" width="25.4" height="19.4" transform="matrix(-1.0289 0 0 1.0289 12.5 31.1)"/><use xlink:href="#C" width="25.4" height="19.4" transform="matrix(-1.0289 0 0 1.0289 31.25 40.35)"/><use xlink:href="#C" width="25.4" height="19.4" transform="matrix(-1.0289 0 0 1.0289 50 49.75)"/><use xlink:href="#C" width="25.4" height="19.4" transform="matrix(-1.0289 0 0 1.0289 .9 10.6)"/><use xlink:href="#C" width="25.4" height="19.4" transform="matrix(-1.0289 0 0 1.0289 19.65 20.05)"/><use xlink:href="#C" width="25.4" height="19.4" transform="matrix(-1.0289 0 0 1.0289 38.95 29.25)"/><use xlink:href="#C" width="25.4" height="19.4" transform="matrix(-1.0289 0 0 1.0289 57.4 38.7)"/><use xlink:href="#D" width="60" height="34" transform="translate(.45 1.6)scale(1.0289)"/><use xlink:href="#E" width="25.4" height="19.4" transform="matrix(-1.0289 0 0 1.0289 9.9 .05)"/><use xlink:href="#E" width="25.4" height="19.4" transform="matrix(-1.0289 0 0 1.0289 28.65 9.35)"/><use xlink:href="#E" width="25.4" height="19.4" transform="matrix(-1.0289 0 0 1.0289 47.4 18.6)"/><use xlink:href="#E" width="25.4" height="19.4" transform="matrix(-1.0289 0 0 1.0289 66.15 28)"/><use xlink:href="#E" width="25.4" height="19.4" transform="matrix(-1.0289 0 0 1.0289 17.05 -11.15)"/><use xlink:href="#E" width="25.4" height="19.4" transform="matrix(-1.0289 0 0 1.0289 35.8 -1.7)"/><use xlink:href="#E" width="25.4" height="19.4" transform="matrix(-1.0289 0 0 1.0289 55.1 7.5)"/><use xlink:href="#E" width="25.4" height="19.4" transform="matrix(-1.0289 0 0 1.0289 73.55 16.95)"/><use xlink:href="#x" width="60" height="34" transform="translate(-99.4 129.45)scale(1.0289)"/><use xlink:href="#F" width="25.4" height="19.4" transform="matrix(-1.0289 0 0 1.0289 -89.95 127.9)"/><use xlink:href="#F" width="25.4" height="19.4" transform="matrix(-1.0289 0 0 1.0289 -71.2 137.2)"/><use xlink:href="#F" width="25.4" height="19.4" transform="matrix(-1.0289 0 0 1.0289 -52.45 146.45)"/><use xlink:href="#F" width="25.4" height="19.4" transform="matrix(-1.0289 0 0 1.0289 -33.7 155.85)"/><use xlink:href="#F" width="25.4" height="19.4" transform="matrix(-1.0289 0 0 1.0289 -82.8 116.7)"/><use xlink:href="#F" width="25.4" height="19.4" transform="matrix(-1.0289 0 0 1.0289 -64.05 126.15)"/><use xlink:href="#F" width="25.4" height="19.4" transform="matrix(-1.0289 0 0 1.0289 -44.75 135.35)"/><use xlink:href="#F" width="25.4" height="19.4" transform="matrix(-1.0289 0 0 1.0289 -26.3 144.8)"/><use xlink:href="#G" width="117.5" height="186.8" transform="translate(-41.1 -.2)"/><use xlink:href="#H" width="13.3" height="11.8" transform="rotate(-.976 8092.393 2134.742)scale(1.1327)"/><use xlink:href="#I" width="6.7" height="6.7" transform="rotate(89.023 -88.815 56.41)scale(.8681)"/><use xlink:href="#J" width="3.6" height="12" transform="rotate(-.976 7848.508 2173.745)scale(1.1327)"/><use xlink:href="#I" width="6.7" height="6.7" transform="rotate(89.023 -82.28 49.934)scale(.8681)"/><use xlink:href="#I" width="6.7" height="6.7" transform="rotate(89.023 -81.647 55.613)scale(.8681)"/><use xlink:href="#J" width="3.6" height="12" transform="rotate(-.976 7385.103 1803.001)scale(1.1327)"/><use xlink:href="#I" width="6.7" height="6.7" transform="rotate(89.023 -75.086 49.163)scale(.8681)"/><use xlink:href="#K" width="13.3" height="11.8" transform="rotate(-.976 6050.912 658.97)scale(1.1327)"/><use xlink:href="#L" width="6.7" height="6.7" transform="rotate(89.023 -58.59 51.548)scale(.8681)"/><use xlink:href="#M" width="3.6" height="12" transform="rotate(-.976 5807.028 697.972)scale(1.1327)"/><use xlink:href="#L" width="6.7" height="6.7" transform="rotate(89.023 -52.053 45.073)scale(.8681)"/><use xlink:href="#L" width="6.7" height="6.7" transform="matrix(.0148 .868 -.868 .0148 .2 101.3)"/><use xlink:href="#M" width="3.6" height="12" transform="rotate(-.976 5343.623 327.228)scale(1.1327)"/><use xlink:href="#L" width="6.7" height="6.7" transform="matrix(.0148 .868 -.868 .0148 .2 88.4)"/><use xlink:href="#N" width="13.3" height="11.8" transform="rotate(-.976 5030.585 -127.33)scale(1.1327)"/><use xlink:href="#O" width="6.7" height="6.7" transform="matrix(.0148 .868 -.868 .0148 7.2 91.75)"/><use xlink:href="#P" width="3.6" height="12" transform="rotate(-.976 4786.7 -88.328)scale(1.1327)"/><use xlink:href="#O" width="6.7" height="6.7" transform="rotate(89.023 -36.528 43.061)scale(.8681)"/><use xlink:href="#O" width="6.7" height="6.7" transform="rotate(89.023 -35.896 48.74)scale(.8681)"/><use xlink:href="#P" width="3.6" height="12" transform="rotate(-.976 4323.295 -459.071)scale(1.1327)"/><use xlink:href="#O" width="6.7" height="6.7" transform="rotate(89.023 -29.335 42.29)scale(.8681)"/><use xlink:href="#Q" width="13.3" height="11.8" transform="rotate(-.976 3949.015 -958.168)scale(1.1327)"/><use xlink:href="#R" width="6.7" height="6.7" transform="rotate(89.023 -26.63 47.382)scale(.8681)"/><use xlink:href="#S" width="3.6" height="12" transform="matrix(1.1325 -.0193 .0193 1.1325 16.2 63)"/><use xlink:href="#R" width="6.7" height="6.7" transform="rotate(89.023 -20.093 40.907)scale(.8681)"/><use xlink:href="#R" width="6.7" height="6.7" transform="rotate(89.023 -19.461 46.586)scale(.8681)"/><use xlink:href="#S" width="3.6" height="12" transform="rotate(-.976 3241.725 -1289.909)scale(1.1327)"/><use xlink:href="#R" width="6.7" height="6.7" transform="rotate(89.023 -12.9 40.136)scale(.8681)"/><use xlink:href="#T" width="13.3" height="11.8" transform="rotate(-.976 2855.558 -1771.5)scale(1.1327)"/><use xlink:href="#U" width="6.7" height="6.7" transform="rotate(89.023 -10.243 44.975)scale(.8681)"/><use xlink:href="#V" width="3.6" height="12" transform="rotate(-.976 2611.673 -1732.497)scale(1.1327)"/><use xlink:href="#U" width="6.7" height="6.7" transform="rotate(89.023 -3.707 38.5)scale(.8681)"/><use xlink:href="#U" width="6.7" height="6.7" transform="rotate(89.023 -3.075 44.179)scale(.8681)"/><use xlink:href="#V" width="3.6" height="12" transform="rotate(-.976 2148.269 -2103.241)scale(1.1327)"/><use xlink:href="#U" width="6.7" height="6.7" transform="rotate(89.023 3.486 37.729)scale(.8681)"/><use xlink:href="#T" width="13.3" height="11.8" transform="rotate(-.976 1799.87 -2540.495)scale(1.1327)"/><use xlink:href="#U" width="6.7" height="6.7" transform="rotate(89.023 5.437 42.511)scale(.8681)"/><use xlink:href="#V" width="3.6" height="12" transform="rotate(-.976 1555.986 -2501.492)scale(1.1327)"/><use xlink:href="#U" width="6.7" height="6.7" transform="rotate(89.023 11.973 36.036)scale(.8681)"/><use xlink:href="#U" width="6.7" height="6.7" transform="rotate(89.023 12.606 41.715)scale(.8681)"/><use xlink:href="#V" width="3.6" height="12" transform="rotate(-.976 1092.58 -2872.236)scale(1.1327)"/><use xlink:href="#U" width="6.7" height="6.7" transform="rotate(89.023 19.167 35.265)scale(.8681)"/><use xlink:href="#W" width="7.3" height="4.7" transform="rotate(-.976 1284.067 -3304.89)scale(1.1327)"/><use xlink:href="#U" width="6.7" height="6.7" transform="rotate(89.023 20.407 40.596)scale(.8681)"/><use xlink:href="#V" width="3.6" height="12" transform="rotate(-.976 573.577 -3261.06)scale(1.1327)"/><use xlink:href="#U" width="6.7" height="6.7" transform="matrix(.0148 .868 -.868 .0148 60.6 6.6)"/><use xlink:href="#T" width="13.3" height="11.8" transform="rotate(-.976 298.083 -3644.874)scale(1.1327)"/><use xlink:href="#U" width="6.7" height="6.7" transform="rotate(89.023 27.834 39.096)scale(.8681)"/><use xlink:href="#V" width="3.6" height="12" transform="rotate(-.976 54.198 -3605.871)scale(1.1327)"/><use xlink:href="#U" width="6.7" height="6.7" transform="rotate(89.023 34.37 32.62)scale(.8681)"/><use xlink:href="#U" width="6.7" height="6.7" transform="rotate(89.023 35.002 38.3)scale(.8681)"/><use xlink:href="#V" width="3.6" height="12" transform="rotate(-.976 -409.207 -3976.615)scale(1.1327)"/><use xlink:href="#U" width="6.7" height="6.7" transform="rotate(89.023 41.563 31.85)scale(.8681)"/><use xlink:href="#X" width="117.7" height="165.9" transform="translate(-41.6 -25.65)"/><use xlink:href="#Y" width="13.3" height="11.8" transform="rotate(-.976 7077.583 1389.57)scale(1.1327)"/><use xlink:href="#Z" width="6.7" height="6.7" transform="rotate(89.023 -73.69 54.092)scale(.8681)"/><use xlink:href="#aa" width="3.6" height="12" transform="rotate(-.976 6833.699 1428.573)scale(1.1327)"/><use xlink:href="#Z" width="6.7" height="6.7" transform="rotate(89.023 -67.155 47.617)scale(.8681)"/><use xlink:href="#Z" width="6.7" height="6.7" transform="rotate(89.023 -66.522 53.296)scale(.8681)"/><use xlink:href="#aa" width="3.6" height="12" transform="rotate(-.976 6370.294 1057.83)scale(1.1327)"/><use xlink:href="#Z" width="6.7" height="6.7" transform="matrix(.0148 .868 -.868 .0148 -12.1 106)"/></g></g></svg>