<svg xmlns="http://www.w3.org/2000/svg" xmlns:xlink="http://www.w3.org/1999/xlink" width="92" height="128" viewBox="0 0 92 128"><defs><clipPath id="b"><path d="M1 1h90v126H1z"/></clipPath><use xlink:href="#a" id="c" width="89.5" height="125"/><g id="a"><path fill="#747544" d="m51.7 10-4.6-2.3L42 5l-.1-.1 2.6-1.6 13.8 7-3.2 1.4-2.2-1zm3.3 1.8 3.3-1.5 11 5.7.1 3-8.4-4.2-.2-.2zM8.8 24.4l1 .6-3 1.6-3.9-2L6 23zm3.6 1.9 2.1 1-3 1.7-2.1-1.1zm3.4-1.9 4.4-1.1 2.2.9 2.3 1-4 1.3zM69.4 8.9l3.4-1L76 13l-3.7 1.3zM6.5 13.4l3.3.6 1.7 1.3-2.8-1zm5.9-1.3 2.5.1 2.2 1-2.9.1zm4.7 2.8 3.5-1.9 2.3 1.4-5.8 3zm5.8-3.1 3.7-2 2.4 1.4-3.6 2zm9.6-9.1L35.6.4l2.8 1.2L35.1 4zm9.9 38.9-3.2 1.5-3.8-1.9 3-1.6zm-7.7-3.9 2.3 1.1-3 1.7-2.6-1.3z"/><path fill="#536266" d="m47.1 7.7 4.6 2.3L37 17.3 34.6 16l-8.7 4.5 3.4.7-6.9 3-2.2-.9-4.4 1.1h-.1l.2.1-.1 3.5-1.3-.7-2.1-1L9.8 25l-1-.6 3.4-1.8 2.3-1.2L17 20l6.1-3.1 2.5-1.4 3.4-1.8 6.4-3.3 3-1.7 1.8-.9H42z"/><path fill="#687a80" d="m51.7 10 1.2.6-1.1 5.9 9-1.9.2.2 8.4 4.2 9.5 4.9-11.5-.9-17.8-2.1-10.2 6.9L37 38.9l-2.3-1.2.1-4.7-7.9-6.9-2.2-.9-2.4-1 6.9-3-3.4-.7 8.7-4.5 2.5 1.3z"/><path fill="#76898f" d="m52.9 10.6 2.1 1.2 5.8 2.8-9 1.9zM2.8 98l2.8-1.6 1.5 3.8zm64.6-75-4.7 14.3-14.4 7.4-5.9-3.1-4-2-1.4-.7 2.4-11.1 10.3-6.9zm-3.7 2-15.1 9.6q10-4.6 15.2-9.6m-15.6 2.4q6.1-.9 12-4-5.5 1.1-12 4m-4.5 4.9q3.8-.9 15.1-6-7.6 1.7-15.1 6"/><path fill="#3a3c22" d="M41.9 4.9v2l-1.7.9-1.7 1-.1-7.2 3.3.6zm-6.4 5.5L29 13.7V8.3L35 4zm-9.8 5.1-2.5 1.4-.2-2.5 2.5-1.3zm-11.2 5.9-2.2 1.2q-1.3-2-.7-7.4l2.7-1.9q-.6 5.7.3 8.1"/><path fill="#444527" d="m42 5 5 2.7-5.1.1V5m-3.5 3.8-3.1 1.6L35 4l3.3-2.4zm-9.3 4.9-3.5 1.8-.2-2.4 3.7-1.8zm-6 3.2L17 20l-2.6 1.4q-.8-2.4-.2-8.1l2.9-.1v4.2l5.8-3zm-10.9 5.7-3.4 1.8h-.1V14.3l2.8 1q-.6 5.3.7 7.3m72 39.7q-1.5-1.2-2.5-1.5-2-.4-2.9 2l-.5.3h-.2q-3.7.3-2.7 4.3-3.2 3.1.5 5.2l.3.2h.1v.1q-1 5.1 3.3 3.8 1.2 4.6 4.5 1.5v21.4l-16.6-8.4-2.2-33L84.2 35zM48.3 44.7V118l-3 1.6V46.3zM34.8 33l-.1 4.7-3.3 1.5-.2-.1-.1-4.9V34zM17.1 17.4 17 20z"/><path fill="#68693d" d="m9.8 25 2.5 1.3-3 1.6-2.4-1.2zm4.6 2.3 1.3.7v3.2L11.5 29zm33.9 17.3-3 1.6-6.1-3 3.2-1.6zM37.1 39l1.3.7-3 1.6-1.4-.7 3-1.6M24.7 25.2l2.3.9-4.5 1.1-1.8-.7z"/><path fill="#636439" d="M15.7 28v-3.5l4.9 2q2.1 31.6-4.9 50.2zM4.2 92.6l-1.4-3.7V24.6h.1l4 2q.7 43.7-2.7 65.9M6 23.1l.5-.3v-9.4l2.2.8v10.2zM26.7 9.8V7.1L29 8.3v2.9zm52.9 14.4-.6-.3-9.5-4.9V9l2.8 5.4L84 18.7v7.7zm-39.7 92.6-2.7-1.3q1.5-32.5-1.6-74.2l3.8 1.9q-3.1 12.3 3 26l1 2.3q-.7 21.3-3.5 45.3m-6.5-3.3-2-1V39.3l.3-.1 2.5 1.3q2.5 38-.7 73m-5.5-2.7-1-.5-1.2-9.8-.7 8.8-4.7-2.4q4.3-13.5 5.8-76.7l4 3.2Q24 69.1 28.6 111zm-13.9-7.1-4.4-2.2q-2.1-33.6-.2-73.6l2.2 1.1q-2.9 43.9 2.4 74.7"/><path fill="#81824a" d="m76 13 11 4.1-3 1.6-11.7-4.4z"/><path fill="#393a21" d="m87 17.2-.2 7.8.1.5v35.3l-2.7 1.5V35l-19 23.2 2.3 33-13.2-6.7.7-29.3 9.3-14.1 19.9-10v-4.7H84v-7.6zm-5.3 43.7-.5.6-2.4 1.5q1-2.5 2.9-2.1M78 63.1q-1.2 1.1-.3 2.8v.1q-2.7 3.5 1.4 5.3l-.2.1q-1 3.4 3 3.7.5 3 2 3h.2l1.8-1 .9-.5v21.7l-2.7 1.4-.2-.1V78.2q-3.2 3.1-4.5-1.5l2.5-1.6-2.5 1.7q-4.2 1.2-3.2-3.9l-.1-.2-.2-.1q-3.8-2.1-.6-5.2l2.4-1.4-2.4 1.4q-1-4 2.7-4.3m.9 8.3-2.7 1.4zm5.2 6.7-.2.1z"/><path fill="#2f3e35" d="M86.9 98.3v5l-41.7 21.4v-5.1l3.1-1.5 35.9-18.4zM54.4 84.6l13.2 6.7-19.2 9.2V87zm-27.5 25.8-2-1 .8-8.8z"/><path fill="#506759" d="M45.3 124.7 2.8 103v-5l4.3 2.2 2.4 1.3 4.4 2.2 1.8.9 4.5 2.3 4.7 2.3 1.9 1 1 .5 1 .5 2.4 1.3 2 1 3.8 2 2.8 1.3 5.5 2.8z"/><path fill="#575832" d="m5.6 96.4-1.4-3.8q3.4-22.2 2.7-66L9.3 28q-2 40 .2 73.6l-2.4-1.3zm33.6-53.3 6 3.1v73.4l-5.5-2.8q2.8-24 3.4-45.3l-1-2.2q-6-13.8-2.9-26.1M37 115.5l-3.7-2q3.2-35 .7-73l1.4.8Q38.5 83 37 115.5m-5.8-3-2.4-1.2-.4-.3Q23.8 69.1 30 33.4l-4-3.2q-1.6 63.3-5.8 76.7l-4.5-2.3-1.8-1Q8.6 73 11.5 29l4.2 2.2v45.5q7-18.7 4.9-50.2l1.8.7 4.5-1.1 7.9 6.9-3.7 1-.1.1v.1l.2 4.9zm-15.5-7.9v-28z"/><path fill="#7b7c47" d="m9.8 14 2.6-1.9 1.8 1.2-2.7 2zm10.8-1 2.3-1.2 2.5 1.3-2.4 1.3zm6-5.9 5.9-4.4L35.1 4l-6 4.3zM35.7.4 39 1l2.8 1.3-3.3-.7z"/><path fill="#71848a" d="m78.9 23.9.5.3 4.5 2.3-21.2 10.8L67.5 23z"/><path fill="#4d5f66" d="m62.8 37.3 21.1-10.8.1-.1.2.5V31L64.3 41l-16 8.1v-4.6zm-14.2-2.6L63.8 25q-5.1 5-15.2 9.6m11.6-11.2q-5.9 3.1-12 4 6.5-2.9 12-4m-1.4 2.9q-11.3 5.1-15.1 6 7.4-4.2 15.1-6"/><path fill="#2f301b" d="m64.4 41.1-9.5 14.1-.6 29.3-6-3.1V49.2z"/><path fill="#242f28" d="m54.3 84.5-6 2.5v-5.6z"/><path fill="#38493f" d="M48.3 118v-17.6l19.2-9.2L84 99.6h.2v.1z"/><path fill="none" stroke="#000" stroke-linecap="round" stroke-linejoin="round" stroke-opacity=".3" stroke-width="__RESOLUTION__" d="m47.1 7.7 4.6 2.3 1.2.6 2.1 1.2 3.3-1.5-13.7-7-2.7 1.6-.2-2.7L38.9 1 35.7.4l-3.2 2.3-6 4.4.1 2.7-3.7 2-2.2 1.2-3.6 1.9v-1.7l-2.2-1-2.5-.1L9.8 14l-3.3-.6v9.4L6 23l-3 1.7h-.1 0v64.2l1.4 3.8 1.4 3.8L2.8 98v4.9l-.1.1h.1l42.5 21.7 41.6-21.4V76.4M47.1 7.7l-5.1.1h-1.8l-1.7 1-3.1 1.6-6.3 3.3-3.5 1.8-2.5 1.4L17 20l-2.6 1.4m-5.6 3 1 .6 2.5 1.3 2.1 1 1.3.7v-3.5h-.1l.2-.1 4.3-1.1 2.2.9 2.3 1 2.3.9h0l7.9 6.9h0l-.1 4.7 2.3 1.1v.1l1.4.7 4 2 5.9 3v4.6l16-8.1 19.9-10v-4.7h-.3l-4.5-2.2m-10-15.3 3.3-1L76 13l11 4.1-.2 7.9.1-.1v35.9M69.3 8.9v7l.1 3.1 9.5 4.9M54.3 84.4l13.2 6.8L84 99.6h.2v.1m0-72.8-.2-.5M61 14.8l8.4 4.2M45.2 119.7l3.1-1.5V49.1M86.9 25v.5M58.2 10.3 69.4 16m-14.2-4.2 5.7 2.8M48.3 81.4l6 3m29.9 15.3 2.6-1.5m-41.5 21.4-5.5-2.8-2.7-1.3-3.9-2-2-1-2.4-1.2-1-.5-1-.5m-2-1-4.6-2.4-4.5-2.3-1.8-1-4.4-2.1-2.4-1.3-1.5-3.8m23.5-85.1v-.4zv2.5m-2.5-3.9 2.4 1.4M42 7l-1.8.9m1.8 0V5M31.2 39.2l.3.1 3.2-1.5m-19 38.9v27.9m1.4-89.7v2.5L17 20m-1.2 4.4v.1m-7.1-.1L6 23m25.3 16.3.3-.1m-.3-.1v73.4M2.8 103" vector-effect="non-scaling-stroke"/><path fill="none" stroke="#000" stroke-linecap="round" stroke-linejoin="round" stroke-opacity=".3" stroke-width="__RESOLUTION__" d="m86.9 60.8-2.7 1.5q-1.5-1.2-2.5-1.5l-.5.6-2.4 1.5h0l-.5.2h-.2q-1.2 1.1-.3 2.8v.1h0q-2.7 3.5 1.4 5.3l-.2.1q-1 3.4 3 3.7.5 3 2 3h.2l1.8-1 .8-.7h.1m-.9.6.9-.4m-8.1-13.7q1-2.5 2.9-2.1m-3.9 5.1-2.4 1.4q-3.2 3.1.5 5.2l.3.2h.1l2.7-1.4m-.9-8.3q-3.7.3-2.7 4.3m.9 5.4q-1 5.1 3.3 3.8 1.2 4.6 4.5 1.5v-.1h.1m-4.7-1.3L82 75" vector-effect="non-scaling-stroke"/><path fill="none" stroke="#3f4f54" stroke-linecap="round" stroke-linejoin="round" stroke-width="__RESOLUTION__" d="M48.6 34.6q10-4.6 15.2-9.6m-3.5-1.6q-6 3.1-12.1 4m-4.5 4.9q3.8-.9 15.1-6" vector-effect="non-scaling-stroke"/><path fill="none" stroke="#51522e" stroke-linecap="round" stroke-linejoin="round" stroke-width="__RESOLUTION__" d="M28.4 111Q23.8 69.1 30 33.4l-4-3.2q-1.6 63.3-5.8 76.7m.4-80.4q2.1 31.6-4.9 50.2M39.2 43q-3.1 12.4 3 26.2l1 2.2q-.7 21.3-3.5 45.3m-4.3-75.5Q38.5 83 37 115.5m-23-11.8Q8.6 72.9 11.5 29m21.8 84.5q3.2-35 .7-73m-24.5 61q-2.1-33.6-.2-73.6M4.2 92.6q3.4-22.2 2.7-66" vector-effect="non-scaling-stroke"/><path fill="#77724d" d="m54.1 107.8-.1 3.5-4.3-1.3zm22.7-11.5v3.5l-4.3-1.2zm-11.6 5.8v3.5l-4.4-1.3z"/><path fill="#817b52" d="m49.7 110 4.3 1.3.1-3.5 6.8-3.4 4.3 1.3v-3.5l7.3-3.6 4.3 1.2v-3.5l.4-.3 5.4 2.8-34 17.5v-5.8z"/><path fill="none" stroke="#413e29" stroke-linecap="round" stroke-linejoin="round" stroke-width="__RESOLUTION__" d="m48.6 116.3 34-17.5" vector-effect="non-scaling-stroke"/><path fill="#676343" d="m58 44.3-1 17.3-2.4 4.1-2.5-2.2V47.1q1.2-.1 5.9-2.8"/><path fill="#b0ab84" d="m52.1 63.5 2.5 2.2 2.4-4.2q-1.3 24.7 1 49.5-1.4.7-2.7.7l-2.1-.4-.7-.3q-1.6-18.6-.4-47.5M55.3 82v.8l-.5.3-.2-4.3.1 4.3.6-.3zm-.6 4.7V83zm1 3.8-.4-7.8z"/><path fill="none" stroke="#888257" stroke-linecap="round" stroke-linejoin="round" stroke-width="__RESOLUTION__" d="m57 61.6 1-17.3m0 66.7q-1.4.7-2.7.7l-2.1-.4-.7-.3" vector-effect="non-scaling-stroke"/><path fill="none" stroke="#928c5f" stroke-linecap="round" stroke-linejoin="round" stroke-width="__RESOLUTION__" d="M57 61.6q-1.3 24.6 1 49.4" vector-effect="non-scaling-stroke"/><path fill="none" stroke="#a59e74" stroke-linecap="round" stroke-linejoin="round" stroke-width="__RESOLUTION__" d="m54.6 78.8.1 4.3.6-.3V82m-.5 1-.1 3.7m.6-4 .4 7.8" vector-effect="non-scaling-stroke"/><path fill="#676343" d="m63.5 59.2-.6-17.4q1.2-.1 5.9-2.8l-1 17.3-2.4 4.1z"/><path fill="#b0ab84" d="m63.5 59.2 1.9 1.2 2.4-4.1q-1.3 24.6 1 49.4-1.3.7-2.7.7L64 106l-.7-.3q1.2-21.1.2-46.6m3.4.8-.1 2.7h-.9v-.9.8l.9.1zm-.1 2.7-.5 9.9h-.2.3zm-.3 19.7-.1-4.1h.4l-.1-5.7h-.3.3l.1 5.7h-.4zm-.7-14.7.2-5zm0 10.6h.7z"/><path fill="none" stroke="#888257" stroke-linecap="round" stroke-linejoin="round" stroke-width="__RESOLUTION__" d="m67.8 56.3 1-17.3m0 66.7q-1.3.7-2.7.7L64 106l-.7-.3" vector-effect="non-scaling-stroke"/><path fill="none" stroke="#a59e74" stroke-linecap="round" stroke-linejoin="round" stroke-width="__RESOLUTION__" d="M65.9 61.8v.8h.9l.1-2.7M66 72.5h.3l.5-9.9m-.5 9.9h.4l.1 5.7h-.4v4.1M66 62.6l-.2 5m.7 10.6h-.7" vector-effect="non-scaling-stroke"/><path fill="none" stroke="#928c5f" stroke-linecap="round" stroke-linejoin="round" stroke-width="__RESOLUTION__" d="M67.8 56.3q-1.3 24.6 1 49.4" vector-effect="non-scaling-stroke"/><path fill="#676343" d="m79.5 50.3-2 4.5-2-1.9-.4-17.1q.1.2 4.8-2.4z"/><path fill="#b0ab84" d="m75.5 52.9 2 1.9 2-4.5.5 49.8-1 .4-.3-2.1-.8.1.2 2.2-.2-2.2.8-.1.3 2-.9.3h-1l-1.3-.1-.7-.2-.7-.4q1.8-20.1 1.1-47.1m1.7 38.6v5.1l-1.2-.1-.2 4.1.2-4.1 1.2.1z"/><path fill="none" stroke="#888257" stroke-linecap="round" stroke-linejoin="round" stroke-width="__RESOLUTION__" d="m79.5 50.3.4-17M74.4 100l.7.4.7.2 1.4.2.9-.1.9-.2 1-.5" vector-effect="non-scaling-stroke"/><path fill="none" stroke="#a59e74" stroke-linecap="round" stroke-linejoin="round" stroke-width="__RESOLUTION__" d="m75.8 100.6.2-4.1 1.2.1v-5.1m.9 9.2-.2-2.2.8-.1.3 2" vector-effect="non-scaling-stroke"/><path fill="none" stroke="#928c5f" stroke-linecap="round" stroke-linejoin="round" stroke-width="__RESOLUTION__" d="m80 100-.5-49.7" vector-effect="non-scaling-stroke"/><path fill="#6a6c4a" d="M77 23.5V27l-4.4-1.2zm-11.7 6v3.4l-4.2-1.3zm-11 5.5-.1 3.5-4.3-1.3z"/><path fill="#888a5e" d="M72.6 25.8 77 27v-3.5l.3-.3 5.5 2.8-35.4 18.2-5.4-3 7.9-4 4.3 1.3V35l6.8-3.4 4.3 1.3v-3.4z"/><path fill="none" stroke="#413e29" stroke-linecap="round" stroke-linejoin="round" stroke-width="__RESOLUTION__" d="M47.4 44.2 82.8 26" vector-effect="non-scaling-stroke"/><path fill="#b4ae8b" d="M55.9 1.1q2 3 2.7 3.7l.3.3q7.1 14.4 7.8 23.1l-1.2.2V28l-.4-2.5-.1-.5.1.5-.8.3.3 2.2-.6.1-.1 1-.9.1v-1.9q-.6-8-1.4-11.6Q60.2 8.3 56 1.1m7.5 20.3q.8 2 1 4.1l-.2.3.1-.3q-.1-2-.9-4.1"/><path fill="#999362" d="M63 27.4v1.8h-.2l-.1-.2-.2-1.4z"/><path fill="#b0ab84" d="m63 29.2.9-.2v-.9h.6l-.2-2.3.8-.3.4 2.5v.4l1.2-.2q.2 3.2-.4 5.6-1.2.3-2.8 0l-.7-.2v-.2l-.4-.1.3-4.3v.3zm1.5-1.2h.9zm-.7 1v2.3zm-.4 4.8-.7-.4z"/><path fill="#7d7951" d="M66.7 28.2q-.7-8.7-7.8-23.1 6.3 8.7 8.2 17.8 2 9.1 1.4 9.8t-2.2 1.1q.6-2.4.4-5.6"/><path fill="none" stroke="#555237" stroke-linecap="round" stroke-linejoin="round" stroke-width="__RESOLUTION__" d="m58.9 5.1-.3-.3L55.9 1m3 4q6.3 8.7 8.2 17.8 2 9.1 1.4 9.8t-2.2 1.1" vector-effect="non-scaling-stroke"/><path fill="none" stroke="#a59e74" stroke-linecap="round" stroke-linejoin="round" stroke-width="__RESOLUTION__" d="m63 29.2.9-.2v-.9h.6l-.2-2.3v-.3q-.1-2-.9-4.1m1.7 4.1.4 2.5v.4l1.2-.2m-3.9 5.2-.4-.1.3-4.3-.2-1.4.5-.2m2.1-1.9L65 25m.5 3h-.9 0M63 29.2h-.4V29m1.3 2.3-.1-2.3m-1.1 4.4.7.4m.8-8 .8-.3" vector-effect="non-scaling-stroke"/><path fill="#b4ae8b" d="m77.5 18.3 1-1.3h2.8v.1l-2.6 3-1-1.6zl.3.2.9 1.5-.5.3V20L77 18.8l-2 .2-.7 2 1.8 2.6q-1 1.6-.5 4.1l-.7-.4q-.1-2.2-.5-3.2-.2-1-.8-1.3l-1-2.1.7-2.1 2.3-1.2z"/><path fill="#7d7951" d="m78.7 20 2.6-2.9 1.3 3.1-.1.3-1.8 2.8q-.7 2.2-.6 3.5-2.4 1.6-4.6.8-.5-2.5.5-4.1L74.2 21l.8-2.1 1.9-.2 1.3 1.4v.1zl.2.4.1 1.3-.1-1.3zm.3 1.8.7.7-1 4-1-3.1-.5.1.5-.1.3-.1z"/><path fill="#5a583a" d="m79 21.8.7.7-1 4-1-3.1.3-.1z"/><path fill="none" stroke="#555237" stroke-linecap="round" stroke-linejoin="round" stroke-width="__RESOLUTION__" d="M81.4 17.1h-2.9l-1 1.2h0l.3.2.9 1.5.2.4.1 1.3m2.3-4.6 1.3 3.1-.1.3-1.8 2.8q-.7 2.2-.6 3.5h0m-5.3.4q-.1-2.2-.5-3.2-.2-1-.8-1.3l-1-2.1.7-2.1 2.3-1.2 2 1" vector-effect="non-scaling-stroke"/><path fill="none" stroke="#666342" stroke-linecap="round" stroke-linejoin="round" stroke-width="__RESOLUTION__" d="m79 21.7.7.7m-2 .9-.5.1m1.8-1.7-1 1.4-.2.2" vector-effect="non-scaling-stroke"/><path fill="#687a80" d="M4 30.2q-.4-.8-.4-1.4 0-.9.6-1.2l1.4.1L7 29q.6.8.6 1.6t-.5 1l-.1.1H5.6q-.6-.3-1.1-1l-.2-.3-.2-.1zm2.2 1.3.5-.4-2.1-2.7-.3.2q1.7 1.4 2 2.8"/><path fill="#000" fill-opacity=".3" d="M7.1 31.7V33q-.1-1-.5-.2-.7-1.5-1.1 1.5-.1-2.1-1-3.5.5.6 1.1.8z"/><path fill="#546367" d="m4.4 28.5.3-.2L6.8 31l-.5.4q-.3-1.3-1.9-3"/><path fill="none" stroke="#3f4a4e" stroke-linecap="round" stroke-linejoin="round" stroke-width="__RESOLUTION__" d="M4 30.2q-.4-.8-.4-1.4 0-.9.6-1.2l1.4.1L7 29q.6.8.6 1.6t-.5 1l-.1.1H5.6q-.6-.3-1.1-1l-.2-.3m-.2-.1v-.2" vector-effect="non-scaling-stroke"/><path fill="none" stroke="#3f4a4e" stroke-linecap="round" stroke-linejoin="round" stroke-width="__RESOLUTION__" d="m4.4 28.5.3-.2L6.8 31l-.5.4" vector-effect="non-scaling-stroke"/><path fill="#9d9766" d="m54.2 24.2 1.5.2.3-4.1.7.1.8-4.7.9.4-.5 3h-.6l-.6 5.9-.7.1-.1 1.4h-.2l-1.3-.2z"/><path fill="#b0ab84" d="m54.2 24.2.2 2 1.3.3-.2 5.6v.9l.5 1-.2 2.7.1 2.6q-2.3.6-3.7-1.6-.2 0-.2-.3l.1-2v-3.6l.2.2q.5-4.5.4-8.9l1.3-.5zm-1.3 8.1-.6-.2z"/><path fill="#7d7951" d="M55.7 26.5h.1l.2-1.4.6-.1.7-5.9h.6q-1 8.5.2 18.5-.7 1.4-2.2 1.8l-.1-2.6.3-2.6-.6-1.2v-1zm1 2.3.5 5-1 .4 1-.4zm.8 7-.2-2z"/><path fill="none" stroke="#656241" stroke-linecap="round" stroke-linejoin="round" stroke-width="__RESOLUTION__" d="m57.9 19.2.5-3.1-.9-.4-.8 4.7-.7-.1-.3 4.1-1.5-.2.2 2 1.3.3h.1l.2-1.4.6-.1.7-5.9zq-1 8.5.2 18.5m-6 .1q-.1.1 0-.2V32l.2.2q.5-4.5.4-8.9l1.3-.5.2 1.5m-1.9 7.9.6.2" vector-effect="non-scaling-stroke"/><path fill="none" stroke="#726d49" stroke-linecap="round" stroke-linejoin="round" stroke-width="__RESOLUTION__" d="m55.8 36.8.3-2.6-.6-1.2m.5 1 1.1-.3-.6-5m.6 5 .2 2" vector-effect="non-scaling-stroke"/><path fill="#2f301b" fill-opacity=".3" d="M22.4 36.9q-.4.1-.4.8l.4 1.4 1 1.1q.5.4.9.2t.4-.9l-.4-1.4-1-1.1zM22 36l1.5.4q.8.3 1.5 1.5t.6 2.1-.7 1.3l-1.6-.3q-.8-.4-1.6-1.6-.6-1.2-.6-2.3t.9-1"/><path fill="#2f301b" d="m22.4 36.9 1 .1.9 1.1.4 1.4q0 .6-.4.9-.4.2-1-.2l-1-1.1-.3-1.4q0-.7.4-.9"/><path fill="#2f301b" fill-opacity=".3" d="m40.5 48.6.3 1.4 1 1.1q.6.4 1 .2t.4-.9-.5-1.4-.9-1.1l-1-.1q-.3.2-.3.8m2.8.1Q44 50 44 51q-.1 1-.8 1.3-.7.1-1.6-.3-.8-.4-1.5-1.6t-.6-2.3q0-1.1.8-1l1.6.3q.8.3 1.4 1.5"/><path fill="#2f301b" d="M40.5 48.6q0-.6.3-.9l1 .2q.6.4 1 1.1t.4 1.4-.5.9-.9-.2l-1-1.1z"/><path fill="#514e33" d="m84 58.5.2-.4v-.3q0-.4-.3-.9-.4-.5-.8-.4t-.7.5l-.4.9.3.6v.1q.2.2.5.2h.2l-.2 1.8 1.9-1.1-.9-1zm-4.8-2 6.8-3.7 1.5 6.6-7.1 4.5z"/><path fill="#492f1b" d="m84 58.5.8 1-1.9 1 .2-1.7h-.2l-.5-.1v-.2L82 58l.3-.9q.3-.5.8-.5.5-.1.8.4t.3.9v.3z"/><path fill="#9f9968" d="M79.2 56.6 76 56l6.2-3.5 3.8.3z"/><path fill="#817b52" d="m76 56 3.2.5 1.2 7.4-3.2-1z"/><path fill="none" stroke="#492f1b" stroke-linecap="round" stroke-linejoin="round" stroke-width="__RESOLUTION__" d="m86 52.8-3.8-.3L76 56l1.3 6.9 3.1 1 7.1-4.5z" vector-effect="non-scaling-stroke"/><path fill="#584534" d="m43.6 58 3 .5h.3l.4 4.2-.4.1-3.4-.6-.1-.1z"/><path fill="#392d21" d="M46.9 58.5 86.8 48v-2.7q4.5 5.5.6 6.7L47.2 62.7z"/><path fill="#6b543f" d="M43.4 62.1 2.5 39.7l-1.5-1L2.8 35v.1l40.6 22.8h.1z"/><path fill="#85684e" d="M1 38.7Q-1.4 36 2.8 32v3z"/><path fill="none" stroke="#000" stroke-linecap="round" stroke-linejoin="round" stroke-opacity=".3" stroke-width="__RESOLUTION__" d="m43.6 58 3 .5h.3L86.8 48v-2.7q4.5 5.5.6 6.7L47.2 62.7l-.3.1-3.4-.6-.1-.1L2.5 39.7l-1.5-1Q-1.4 36 2.8 32v3.1l40.6 22.8z" vector-effect="non-scaling-stroke"/><path fill="#443528" d="m45.9 106.9 41-67v-3.1q4.3 2 1.3 6.5l-41.7 67.2z"/><path fill="#594633" d="m46.5 110.5-.2.3-2 .4-.1-.2.3-4 1.4-.2z"/><path fill="#6b543f" d="M44.2 111 2.5 79.9l-1-.7L4 77l40 30h.5z"/><path fill="#85684e" d="M1.5 79q-2-1.9 1-5.5l.1 2.5L4 77z"/><path fill="none" stroke="#765c45" stroke-linecap="round" stroke-linejoin="round" stroke-width="__RESOLUTION__" d="m45.9 106.9 41-67v-3.1m-84.2 43-1.2-.7m1-5.5.1 2.4L4 77l40 30h.5l1.4-.2" vector-effect="non-scaling-stroke"/><path fill="none" stroke="#000" stroke-linecap="round" stroke-linejoin="round" stroke-opacity=".3" stroke-width="__RESOLUTION__" d="M86.9 36.8q4.3 2 1.3 6.5l-41.7 67.2-.2.3-2 .4-.1-.2L2.5 79.9" vector-effect="non-scaling-stroke"/><path fill="#392d21" d="m46.9 101 39.9-10.4v-2.7q4.5 5.5.6 6.6l-40.2 10.8z"/><path fill="#584534" d="m47.3 105.3-.4.1-3.4-.6-.1-.1.1-4.2 3.1.7.3-.2z"/><path fill="#6b543f" d="M43.4 104.7 2.5 82.3l-1.5-1 1.8-3.7v.1l40.6 22.8h.1z"/><path fill="#85684e" d="M1 81.3q-2.4-2.5 1.8-6.6v2.9z"/><path fill="none" stroke="#000" stroke-linecap="round" stroke-linejoin="round" stroke-opacity=".3" stroke-width="__RESOLUTION__" d="m46.9 101 39.9-10.4v-2.7q4.5 5.5.6 6.6l-40.2 10.8-.3.1-3.4-.6-.1-.1L2.5 82.3l-1.5-1q-2.4-2.5 1.8-6.6v3l40.6 22.8h.1l3.1.7z" vector-effect="non-scaling-stroke"/><path fill="#b4cfbb" d="M77.9 56.3q-1.7-7 1.3-8.1 1.3-.7 2.5.4l-.9 1.3H80q-2 .9-.9 5.8zm5-3.4h.8v.2l-.6.4z"/><path fill="none" stroke="#7b9982" stroke-linecap="round" stroke-linejoin="round" stroke-width="__RESOLUTION__" d="m77.9 56.3 1.1-.6" vector-effect="non-scaling-stroke"/><path fill="none" stroke="#59735f" stroke-linecap="round" stroke-linejoin="round" stroke-width="__RESOLUTION__" d="M79 55.7q-1.2-4.9.9-5.7l1-.1m2 3v.5l.7-.4" vector-effect="non-scaling-stroke"/><path fill="#584534" d="m43.6 61 3 .5h.3l.4 4.2-.4.1-3.4-.6-.1-.1z"/><path fill="#392d21" d="M46.9 61.5 86.8 51v-2.7q4.5 5.5.6 6.7L47.2 65.7z"/><path fill="#6b543f" d="M43.4 65.1 2.5 42.7l-1.5-1L2.8 38v.1l40.6 22.8h.1z"/><path fill="#85684e" d="M1 41.7Q-1.4 39 2.8 35v3z"/><path fill="none" stroke="#000" stroke-linecap="round" stroke-linejoin="round" stroke-opacity=".3" stroke-width="__RESOLUTION__" d="m43.6 61 3 .5h.3L86.8 51v-2.7q4.5 5.5.6 6.7L47.2 65.7l-.3.1-3.4-.6-.1-.1L2.5 42.7l-1.5-1Q-1.4 39 2.8 35v3.1l40.6 22.8z" vector-effect="non-scaling-stroke"/></g></defs><g clip-path="url(#b)"><use xlink:href="#c" width="89.5" height="125" transform="translate(1 1)"/></g></svg>