<svg xmlns="http://www.w3.org/2000/svg" xmlns:xlink="http://www.w3.org/1999/xlink" width="29" height="33" viewBox="0 0 29 33"><defs><clipPath id="b"><path d="M1 1h27v31H1z"/></clipPath><use xlink:href="#a" id="c" width="14.5" height="22.6" transform="matrix(-1.35 .13 -.32 1.28 26.85 0)"/><g id="a"><path fill="#b2b094" d="m10.6.7.5.3.3.3q.4.6.5 1.5L11.6 4l-.1.1v1.6l-.8.3-1.2.5-.6.3q.2-.9-.7-1.9H8l-.3-.2-.3-.3Q7.7.9 10.6.7m.3 3.7.2-.1.1-.3-.1-.4-.2-.1-.3.1-.2.4.2.3zm-1.1-.3-.2-.5-.5-.2-.4.2-.2.5.2.5.4.3q.3 0 .5-.3zm.3 1.4.1-.5z"/><path fill="#456745" d="M10.7 6q.4 1.9 2 2.3 2.4 1 .8 10.7-3 2.3-6.7 3.3Q5 14 7.6 10.7q1.5-1.9 1.8-4.1z"/><path fill="#5b895b" d="M6.8 22.3q-.9.2-1.5-.5l-.3-.6q-1.7-8 .8-11.3 2-2.4 2.1-5.1l.3.1q.9 1 .8 1.8l.4-.2q-.3 2.3-1.8 4.2-2.6 3.4-.8 11.6"/><path fill="#000" fill-opacity=".3" d="M5.4 21.8 0 21q.3-7.4 4.5-11 2.1-2.2 2-5L7 3.6l.4.8.3.3.2.2q-.1 2.7-2 5-2.6 3.4-1 11.5z"/><path fill="#d4d4ca" d="M7 3.5v-.7q0-.9.5-1.5l.2-.3Q8.4.3 9.4.4l1.2.3q-3 .2-3.2 3.6z"/><path fill="#5a5838" d="m10.9 4.4-.3-.1-.2-.3.2-.4.3-.1.2.1.1.4-.1.3zm-1.1-.3-.2.5q-.2.3-.5.3l-.4-.3-.2-.5.2-.5.4-.2.5.2z"/><path fill="none" stroke="#000" stroke-linecap="round" stroke-linejoin="round" stroke-opacity=".3" stroke-width="__RESOLUTION__" d="m10.6.7.5.3.3.3q.4.6.5 1.5L11.6 4l-.1.1v1.6l-.8.3-1.2.5-.6.3q.2-.9-.7-1.9H8l-.3-.2-.3-.3-.4-.8v-.7q0-.9.5-1.5l.2-.3Q8.4.3 9.4.4z" vector-effect="non-scaling-stroke"/><path fill="none" stroke="#5b895b" stroke-linecap="round" stroke-linejoin="round" stroke-width="__RESOLUTION__" d="M10.7 6q.4 1.9 2 2.3 2.4 1 .8 10.7-3 2.3-6.7 3.3" vector-effect="non-scaling-stroke"/><path fill="none" stroke="#a5b9a5" stroke-linecap="round" stroke-linejoin="round" stroke-opacity=".8" stroke-width="__RESOLUTION__" d="M6.8 22.3q-.9.2-1.5-.5l-.3-.6q-1.7-8 .8-11.3 2-2.4 2.1-5.1" vector-effect="non-scaling-stroke"/><path fill="none" stroke="#000" stroke-linecap="round" stroke-linejoin="round" stroke-opacity=".3" stroke-width="__RESOLUTION__" d="m10.2 5-.1.5" vector-effect="non-scaling-stroke"/><path fill="#d1d3c9" d="m8.4 14.1.2 1.6-.4.1-1 .2v-.2z"/><path fill="#b9bda8" d="m8.2 15.8.4-.1-.2-1.6q2.7-1.2 5.1-2.7v4.3q-2.9 2.2-6.3 3.2v-2.4h1.4z"/><path fill="#a0a685" d="m7.2 16 1-.2.4.8-1.4-.1z"/><path fill="none" stroke="#a0a685" stroke-linecap="round" stroke-linejoin="round" stroke-width="__RESOLUTION__" d="M7.2 18.9q3.4-1 6.3-3.2v-4.3" vector-effect="non-scaling-stroke"/></g></defs><g clip-path="url(#b)"><use xlink:href="#c" width="26.9" height="30.8" transform="translate(1 1)"/></g></svg>