<svg xmlns="http://www.w3.org/2000/svg" xmlns:xlink="http://www.w3.org/1999/xlink" width="31" height="45" viewBox="0 0 31 45"><defs><path id="d" fill="none" stroke="#000" stroke-linecap="round" stroke-linejoin="round" stroke-width="__RESOLUTION__" d="M1.6-14.7q-.1-1-1.3-1.7-1-.5-2.3-.6h-1q-1.2 0-2.1.6-.8.5-.9 1.2l.2.8q.3.7 1.2 1.2 1.2.6 2.7.6t2.6-.7q1-.6.9-1.4m-.5-4.4-2-1.9h0l2.2 4 1.1 7.8-.6 4.6-.5 2.7m-2.2-19-.1 1.7m-4.8 4.8-.2-.4v-.3l-.2-1.9-.6-4h0l-.9 1.9m2.2-.1-1.3-1.7M-2-17h3.3m-7.5 0H-3M1.8-4.6h-7.6L-6.3-2" transform="translate(7.65 21)" vector-effect="non-scaling-stroke"/><path id="b" fill="none" stroke="#000" stroke-linecap="round" stroke-linejoin="round" stroke-width="__RESOLUTION__" d="m15.1-32.7-1-2.3v6q-6.9 12.8 0 18.6v4.3m0-28.8-.9 3.1m-4 5.4 1.2-.7h.1l.4-.3.3-.1 3-1.5m-3 1.5-.7.4m-.1 0-1.2 1m5 15.7L7.5-6.9v4.3" transform="translate(-7.5 35)" vector-effect="non-scaling-stroke"/><path id="c" fill="none" stroke="#000" stroke-linecap="round" stroke-linejoin="round" stroke-width="__RESOLUTION__" d="M11.8 15.2q2.8.3 5 2.4 2.5 2.5 2.5 6t-2.5 6-6 2.5-6-2.5-2.5-6 2.5-6q2.2-2.1 5-2.4m0 0H2.6m7.4 0h9.3m-9 0h2M2.5 62.5h16.6M2.4 0v73.5M4.8 7 2.4 0 0 7m19.4-7v73.5M21.8 7l-2.4-7L17 7" vector-effect="non-scaling-stroke"/><clipPath id="a"><path d="M1 1h29v43H1z"/></clipPath></defs><g clip-path="url(#a)"><g transform="translate(14.75 36)"><use xlink:href="#b" width="7.6" height="32.4" transform="translate(7.5 -35)"/><use xlink:href="#c" width="21.8" height="73.5" transform="matrix(.3929 -.2073 0 .3929 -13.75 -21.15)"/><use xlink:href="#c" width="21.8" height="73.5" transform="matrix(.3929 -.2073 0 .3929 -.25 -27.6)"/><use xlink:href="#d" width="10.1" height="19.1" transform="translate(-7.65 -21)"/></g></g></svg>