<svg xmlns="http://www.w3.org/2000/svg" xmlns:xlink="http://www.w3.org/1999/xlink" width="50" height="37" viewBox="0 0 50 37"><defs><g id="f"><path fill="#fff" fill-opacity=".3" d="M23 3.6q1.4.6 2.4 2t.8 2.8q-.2 1.5-1.5 2.1l-2.9.3q-1.7-.5-2.4-2-.6-1.7-.5-3.2.2-1.4 1.4-2t2.6 0"/><path fill="#000" fill-opacity=".1" d="M14.5 9.4q-.7 1.8-2.6 2.4-1.8.4-3.2-.3-1.5-.8-1.8-2.5-.2-1.8.7-3.5 1-1.7 2.7-2.4h3q1.4.7 1.7 2.5t-.6 3.8"/><path fill="#813a26" fill-opacity=".3" d="m13.8 2.5-.2-.7q0-.8 1-1.4l.3 1.3v.1q0 .5.7.8l1 .3 1 .1 2-.4.7-.7v-.3l.3-1q1 .4 1 1.2 0 .6-.7 1.1l-.5.4H20v.1l-.7.2h-.2l-1.6.2h-1l-1.2-.3-.7-.2-.3-.3z"/><path fill="#813925" fill-opacity=".5" d="m13.8 2.5.6.5v.5l-.5-.4-.2-.4zm1.7 1 1.2.3h1l1.6-.2V4l-.2.2-.6.1h-1.8l-1-.2q-.3 0-.2-.5m4.7-.1.3-.1.6-.4v.2l-.3.4-.6.3z"/><path fill="#c7bb92" fill-opacity=".5" d="m14.7.5.1 1V2l.3.3.3.2.2.1.5.2 1.4.2 1.5-.2.5-.2.3-.1.1-.2.3-.2V2l.1-.3.3-1q.9.4.9 1.2V2q0 .6-.7 1.1l-.4.3h-.2l-.1.1-.5.1-1.9.3H17l-1.7-.4H15l-.3-.1q-1.1-.7-1.1-1.5t1-1.3"/><path fill="#c7bb92" fill-opacity=".8" d="M13.6 1.8q0 .8 1.1 1.5h.3l.1.1 1.8.4h.9l1.8-.3.4-.1.2-.1h.2l.4-.3q.6-.5.7-1v.2q0 .8-1.1 1.4l-.3.2H20q-1 .4-2.5.4l-2.4-.4-.5-.2q-1.2-.6-1.2-1.4z"/><path fill="#c4b58f" fill-opacity=".3" d="m15.2 3.9 2.3.3q1.4 0 2.5-.4l-.4.6-.3.2h-.2l-.7.3h-1.1q-.9 0-1.5-.3l-.2-.1q-.4-.3-.5-.7"/><path fill="none" stroke="#000" stroke-linecap="round" stroke-linejoin="round" stroke-opacity=".3" stroke-width="1" d="M14.7.5q-1 .5-1.1 1.3m7.9.1q0-.8-1-1.3"/><path fill="none" stroke="#000" stroke-linecap="round" stroke-linejoin="round" stroke-opacity=".3" stroke-width="__RESOLUTION__" d="m13.6 1.8-.2.4q0 .8 1.2 1.4l.5.2 2.4.4q1.4 0 2.5-.4h0l.4-.2q1.2-.6 1.2-1.4l-.1-.3" vector-effect="non-scaling-stroke"/><path fill="#b49b73" fill-opacity=".5" d="m11.6 5.7-1-.8-.7-.4-.6-.3-.5-.2L7 3.8q-4 .6-4.7 5.8l-.1.3q-.1 4.5 3.2 6.5l.4.3q1.1.5 2.3.5 1.3 0 2.6-.6l.3 1q-3.4 1.5-6.6-.1Q1 15.8.5 11.9.2 10 .5 8.6l.9-2.4Q2.4 4 4.5 3q2-1 4.2-.5t4 2.9q.3 1.1-.1 1.5z"/><path fill="#997539" fill-opacity=".7" d="m10.6 5 1 .7 1 1.2-1 .1q-3-2.4-5-1.9-2.1.5-3.2 4.4-.7 2.6 1.2 5.1T9.3 16q.9 0 1.3.6-1.3.6-2.6.6-1.2 0-2.3-.6l-.4-.2Q2 14.5 2.1 10v-.4Q3 4.5 7 3.9v-.1L9 4l.4.2.6.3z"/><path fill="none" stroke="#000" stroke-linecap="round" stroke-linejoin="round" stroke-opacity=".3" stroke-width="__RESOLUTION__" d="m11.6 5.7 1 1.2q.3-.4.1-1.5-1.7-2.3-4-2.9Q6.5 2 4.5 3T1.4 6.3l-1 2.4q-.2 1.3 0 3.2.6 3.9 3.9 5.6t6.7 0l-.4-.9q-1.3.6-2.6.6m-2.3-.6-.4-.2M8.9 4.1l.4.1m.6.3.7.4m0 11.7q-.4-.6-1.2-.6h-.2q-2.7 1-4.6-1.4-2-2.5-1.2-5.1 1-3.9 3.2-4.4 2-.5 5 1.9l1-.1" vector-effect="non-scaling-stroke"/><path fill="#fff" fill-opacity=".3" d="m7.9 3.3-.8.5-3 1.6q-.6.5-1.1 2.1T2 9.4 1.3 8q0-1.2.7-2.3t1.9-1.9 2.8-1 1.1.4"/></g><g id="e"><path fill="#fff" fill-opacity=".3" d="M7.6 5.4q1.5-.7 2.6 0t1.4 2.3q.1 1.7-.6 3.6-.7 1.8-2.3 2.3t-2.9-.2T4.3 11q-.1-1.7.8-3.3t2.5-2.3"/><path fill="#000" fill-opacity=".1" d="M20.1 4.7q1.6.9 2.6 2.9t.8 4-1.7 2.9-3.3.3-2.6-2.8-.5-4.4q.3-2 1.7-2.8z"/><path fill="#813a26" fill-opacity=".3" d="M8.9 3.6q-.7-.6-.7-1.3 0-1 1.2-1.7L9.7 2v.4q.2.5 1 .9 1 .5 2.5.5l1.2-.1 1.2-.5q.9-.4 1-1V2L17 .5q1.4.7 1.4 1.8L18 3l-.7.7h-.1l-.4.3-.9.3-1.6.3h-1.1l-2.1-.1-.2-.1-.9-.3-.3-.1z"/><path fill="#813925" fill-opacity=".5" d="M18 3v.4l-.2.5-.6.4v-.5zm-2.1 1.3q.2.6-.3.7l-1.2.1h-.2l-.8.1H12l-.7-.2-.2-.2-.1-.3 2.1.2 1.1-.1zM10 4.2l-.1.5-.7-.4-.3-.5v-.2l.8.5z"/><path fill="#c7bb92" fill-opacity=".8" d="M8.2 2.4q0 .7.9 1.3l.6.3.2.1.2.1.5.2 2.3.3h1.2l2.1-.5h.3l.3-.2q1.4-.7 1.4-1.8v-.1l.2.6q0 1-1.5 1.8l-.7.3-3 .5q-1.7 0-3.1-.6H10l-.3-.2q-1.5-.7-1.5-1.8z"/><path fill="#c7bb92" fill-opacity=".5" d="M18.3 2.1v.1q0 1-1.5 1.8l-.4.2h-.2l-2.1.5h-1.2l-2.3-.3-.5-.2-.2-.1-.2-.1-.6-.3q-.8-.6-.9-1.3v-.2q0-1 1.2-1.6L9.7 2v.3l.2.3.3.3.2.2.3.1.7.3 1.8.3 1.8-.3.7-.3.3-.1.2-.2.4-.5v-.2l.1-.2v-.2l.2-1.3q1.3.7 1.4 1.6"/><path fill="#c4b58f" fill-opacity=".3" d="M10.1 4.7q1.3.5 3.2.5l2.9-.4q0 .4-.5.7l-.1.1-.2.1q-.7.4-1.9.5h-.3L12.1 6l-1-.3-.2-.1-.3-.2q-.4-.3-.5-.8"/><path fill="none" stroke="#000" stroke-linecap="round" stroke-linejoin="round" stroke-opacity=".3" stroke-width="__RESOLUTION__" d="M8.2 2.4v.3q0 1 1.5 1.8l.3.2h.1q1.3.5 3.2.5l2.9-.4.7-.3q1.5-.7 1.5-1.8l-.1-.6" vector-effect="non-scaling-stroke"/><path fill="none" stroke="#000" stroke-linecap="round" stroke-linejoin="round" stroke-opacity=".3" stroke-width="1" d="M18.3 2.1q-.2-1-1.4-1.6M9.4.6q-1.2.7-1.2 1.6v.2"/><path fill="#614914" d="M6.7 21.8q-1-1.8-.6-3.8v-.4l2.3.1v1.6l.8 3.3H9l-1.7-1H7zM6.1 18 8 19.2l-1 2.5.9-2.5zm2.3 1.3-.5-.1z"/><path fill="#7b5e1a" d="m9.3 22.6 1.5 1.8h.1q-1.2 1.2-2.4.2l-.1-.1-.6-.6q-.7-1-1.1-2.1l.4-.1 1.8.9zm-.8 1.9.6-1.8-.1-.1zm2.4-.1-2.3.2z"/><path fill="none" stroke="#000" stroke-linecap="round" stroke-linejoin="round" stroke-opacity=".3" stroke-width="__RESOLUTION__" d="M6.7 21.8q-1-1.8-.6-3.8v-.4l2.3.1v1.6l.8 3.3 1.6 1.8h.1q-1.2 1.2-2.4.2l-.1-.1-.6-.6q-.7-1-1.1-2.1" vector-effect="non-scaling-stroke"/><path fill="none" stroke="#000" stroke-linecap="round" stroke-linejoin="round" stroke-opacity=".2" stroke-width="__RESOLUTION__" d="M8.5 24.6h-.2l.1-.1.6-1.8-.1-.1-1.7-1H7l-.4.1m.4 0 .9-2.5L6 18m2.8 4.6h.3M8 19.2l.4.1m.1 5.3 2.3-.2" vector-effect="non-scaling-stroke"/><path fill="#614914" d="M17.5 19.3v-1.6l2.2-.1v.4L18 19.2zl.4-.1 1.9-1.2q.3 2-.7 3.8l-.4-.1-.8-2.5.9 2.5h-.1l-1.7.9h-.4z"/><path fill="#7b5e1a" d="M19.2 21.8q-.4 1.1-1.2 2.1l-.6.6-.5-1.8v-.1q1-.4 1.8-1zm-1.7 2.9q-1.2 1-2.4-.1v-.1l1.6-1.8h.3l.6 1.9zl-2.3-.2z"/><path fill="none" stroke="#000" stroke-linecap="round" stroke-linejoin="round" stroke-opacity=".3" stroke-width="__RESOLUTION__" d="m19.8 18-.1-.4-2.2.1v1.6l-.9 3.3-1.6 1.8h0q1.2 1.2 2.4.2v-.1l.6-.6q.8-1 1.1-2.1 1-1.8.6-3.8" vector-effect="non-scaling-stroke"/><path fill="none" stroke="#000" stroke-linecap="round" stroke-linejoin="round" stroke-opacity=".2" stroke-width="__RESOLUTION__" d="m17.5 19.3.4-.1 1.9-1.2m-2.4 6.5.1.1h-.1l-2.3-.2m3.7-2.7-.9-2.5m1.3 2.6-.4-.1h-.1l-1.7.9h-.1l.6 1.9m-.9-2 .3.1" vector-effect="non-scaling-stroke"/><path fill="#725718" d="m23.3 7.1.9 1.2.4 1.3.3.8.2.8v1.6q0 .7-.5 1.2l-.5.5q-.7.7-1.6 1.1l-1.4 1.1q-1.3.9-4.6 1l-.1-.9 2.6-1.7-.2-.6q.3-.5 1.4-1.3l2.2-1.7.3-.9.3-2.2zm-.9 4.4.3.1-.6 3.7-3.1-.2 3 .2.7-3.7zm-.3 3.8.4.3zm.6-3.7 1.7-2h.3-.3zm1.7-2L23 8.4z"/><path fill="#000" fill-opacity=".3" d="M24.7 14v.3q-.1 1-.9 1.6l-1.5 1.2-1.4 1q-1.1.9-4.2.9-1.6 1-2.8.8l-2-.5q-3 .8-5.6-1.1l-2.7-1.3q-1-.5-1.4-1.5h.1l3 1.4q2.8 2 6.1 1.2l2 .4q1.4.3 3.2-.7 3.2-.1 4.4-1l1.6-1.1q.8-.4 1.5-1.1z"/><path fill="#a27b21" d="M2.2 15.4q-1.4-1-1.7-3l-.2-1.2L.4 9q.4-1 1.4-1.7l.5 2.2-.6 1-.7 1.8.6.1 2.3 1.5.6-.5Q3.3 11.9 3 10.9t-.2-1.3l-.5-.1-.6 1-.7 1.8.6.1 2.3 1.5.6-.5 1.7.7L9 15.3v.2l-3.2.3-.5 1zm-1.7-3 .5-.1zm3.4 1.4 1.9 1.9z"/><path fill="#82631c" d="m1.8 7.3.4-.3 1-.6-.8 1.3.4 1.9-.5-.1zm11.9 8.3 5.1-1.1.2.6-2.6 1.7.2.9q-1.8 1-3.2.7l-2-.4v-1l2.3-1 2.7.8-2.7-.8z"/><path fill="#8b6a1d" d="M9 15.3h3l1.7.3v.4l-2.2 1v1q-3.4.8-6.2-1.2l.5-1 3.1-.3zm0 .2 2.4 1.5z"/><path fill="none" stroke="#000" stroke-linecap="round" stroke-linejoin="round" stroke-opacity=".3" stroke-width="__RESOLUTION__" d="m23.3 7.1.9 1.2.4 1.3.3.8.2.8v1.6q0 .7-.5 1.2l-.5.5q-.7.7-1.6 1.1l-1.4 1.1q-1.3.9-4.6 1-1.7 1-3 .7l-2-.4q-3.4.8-6.2-1.2l-3-1.3-.1-.1q-1.4-1-1.7-3l-.2-1.2L.4 9q.4-1 1.4-1.7l.4-.3 1-.6m-.4 3.2q-.1.4.2 1.3t1.5 2.5l1.7.7L9 15.3h3l1.7.3 5.1-1.1q.3-.5 1.4-1.3l2.2-1.7.3-.9" vector-effect="non-scaling-stroke"/><path fill="none" stroke="#000" stroke-linecap="round" stroke-linejoin="round" stroke-opacity=".2" stroke-width="__RESOLUTION__" d="m18.8 14.5.2.6 3 .2.7-3.7-.3-.1M19 15.1l-2.6 1.7.2.9m6-2.1-.6-.3m-8.3.7 2.7.8m-2.7-1.2v.4l-2.2 1v1m13.2-8.4h-.3l-1.7 2m.3-3.2 1.4 1.2M2.3 9.5l-.6 1-.7 1.8.6.1 2.3 1.5.6-.5M1 12.3l-.5.2m5.3 3.3 3.1-.3.1-.2m-7.2-8 .5 2.2.5.1m2.5 7.2.5-1-1.9-2m7.5 3.2L9 15.5" vector-effect="non-scaling-stroke"/><path fill="#a27b21" d="M6.4 17.8 6 18q-.6.2-1.2-.2l-.2-.4-.3-.3V17q-.4-.6-.2-1.3v-.3q.3-1 .9-1.3 1.3-.8 1.8 0v.5l.1.4-.4.1q-.5.3-.4.7l.1.3.2.3.4.3.2.5zm-1.7-.4q1.6.1 1.8-1-.2 1.1-1.9 1M4 15.7h2.1z"/><path fill="#7b5e1a" d="M6.9 14.6q1.1.2 1.4.7l.2.8v.5q-.2.8-.8 1.1l-.8.3-.6-.2.7-.6-.2-.5-.3-.3h-.1l-.2-.2V16l-.1-.3q0-.4.4-.7l.4-.1zM8.5 16H6.2z"/><path fill="none" stroke="#000" stroke-linecap="round" stroke-linejoin="round" stroke-opacity=".3" stroke-width="__RESOLUTION__" d="M6.4 17.8 6 18q-.6.2-1.2-.2l-.2-.4-.3-.3V17q-.4-.6-.2-1.3v-.3q.3-1 .9-1.3 1.3-.8 1.8 0v.5q1.2.2 1.5.7l.2.8v.5q-.2.8-.8 1.1l-.8.3zl.7-.6-.2-.5-.3-.3m.3-1.8.1.4-.4.1q-.5.3-.4.7l.1.3m0 0 .2.3" vector-effect="non-scaling-stroke"/><path fill="none" stroke="#000" stroke-linecap="round" stroke-linejoin="round" stroke-opacity=".1" stroke-width="__RESOLUTION__" d="M6.5 16.4q-.2 1.1-1.9 1m1.7-1.3h2.3m-2.4-.3-2-.1" vector-effect="non-scaling-stroke"/><path fill="#a27b21" d="M18.3 14.6v-.4q.5-.8 1.8 0l.9 1.2.1.4h-2l-.5-.6-.4-.2zm.9 1.2h2q0 .7-.3 1.3l-.2.4-.4.3q-.5.4-1.1.2l-.3-.1q-.6-.3-.6-.7v-.5l.4-.2h.1l.2-.3zm1.4 1.7q-1.6 0-1.8-1 .2 1 1.9 1"/><path fill="#7b5e1a" d="M18.3 14.6v.4l.3.2.4.6v.4h-.1l-.2.3-.4.2-.1.5q0 .4.6.7h-1.4q-.6-.4-.7-1.2l-.1-.6.2-.8q.3-.4 1.4-.7m.7 1.6-2.3-.1z"/><path fill="none" stroke="#000" stroke-linecap="round" stroke-linejoin="round" stroke-opacity=".3" stroke-width="__RESOLUTION__" d="m21.1 15.8-.1-.4-.9-1.2q-1.3-.8-1.7 0l-.1.4v.4l.3.2.4.6v.4m2.1-.4q0 .7-.3 1.3h0l-.2.4-.4.3q-.5.4-1.1.2l-.3-.1h0-1.4q-.6-.4-.7-1.2h0l-.1-.6.2-.8q.3-.4 1.4-.7m.4 1.9-.4.2v.5q0 .4.6.7m.1-1.7-.2.3" vector-effect="non-scaling-stroke"/><path fill="none" stroke="#000" stroke-linecap="round" stroke-linejoin="round" stroke-opacity=".1" stroke-width="__RESOLUTION__" d="M19 15.8h2.1m-2.1.4-2.3-.1m2.1.4q.2 1 1.9 1" vector-effect="non-scaling-stroke"/><path fill="#000" fill-opacity=".3" d="M30.9 28q0 1.2-1.8 2.2-1.9.9-4.5.9t-4.4-1-1.8-2.1 1.8-2.3 4.4-.9 4.4.9q1.9 1 1.9 2.3"/><path fill="#997539" fill-opacity=".7" d="m31.8 12.1.8.4 1 .8 1.4 1.5.6 1.4.3.6.3.9v.6l-.5.1q-1.1-.1-2.7-2.3-1.7-2.3-1.7-3.2v-.1q0-.5.4-.7"/><path fill="#997539" fill-opacity=".5" d="M31.8 12q7.4-1.9 14.3-8.1h.6q-7.3 6.6-14 8.6zm15.6-7v.7q-10.6 6.4-11.2 12l-.3-.9q1-5.6 11.5-11.8"/><path fill="#997539" fill-opacity=".3" d="m46.7 4 .6 1Q37 11.2 36 16.8l-.2-.6-.7-1.4-1.5-1.5-.9-.8q6.8-2 14.1-8.5"/><path fill="none" stroke="#000" stroke-linecap="round" stroke-linejoin="round" stroke-opacity=".3" stroke-width="__RESOLUTION__" d="m31.8 12-.2.2h0zq7.4-2 14.3-8.2h.6l.6 1 .2.8q-10.7 6.4-11.3 12v.6" vector-effect="non-scaling-stroke"/><path fill="#63a6ba" d="m14.9 23.9-.1-.4q0-1.2 2.8-2.1t6.8-1 6.9 1q2.6.8 2.7 1.9v.6q-.4 1-2.7 1.8-2.9.9-6.9.9t-6.7-1q-2.4-.7-2.8-1.7m12.9 3.3h-.5l-.1-.2.1-.1.3-.1h.2l.1.2zm-5.7-4-.9-.2-.8.2-.4.6.4.4H22l.3-.4q.1-.3-.2-.6m-.7 3.8.4.2.3.3-.2.3h-1l-.2-.3.2-.3z"/><path fill="#476f75" d="M14.9 23.9q.4 1 2.7 1.8 2.8.9 6.8.9t6.9-1Q33.6 25 34 24q-1.1 4.7-9.3 5h-.6q-8-.3-9.3-5m13 3.3.1-.2-.1-.1-.2-.1h-.3l-.1.2.1.2zm-6.3-.2-.5.2-.2.3.2.3h.9l.3-.3-.2-.3z"/><path fill="#77b3c4" d="M22.2 23.2q.3.3.3.6l-.4.4h-1.7l-.4-.4.4-.6.9-.2z"/><path fill="#997539" fill-opacity=".5" d="M32.9 12.8q3.4 3 3.4 7.2 0 4.1-3.4 7-3.5 3-8.4 3t-8.3-3-3.4-7 3.4-7.2 8.3-2.9 8.4 2.9m-1.3 1q-3-2.5-7.3-2.5T17 13.9 14 20t3 6.3q3 2.6 7.3 2.6t7.3-2.6q3.1-2.7 3-6.3.1-3.6-3-6.2"/><path fill="#997539" fill-opacity=".3" d="M31.6 13.9q3.1 2.6 3 6.2.1 3.6-3 6.3-3 2.6-7.3 2.6T17 26.4 14 20t3-6.2q3-2.6 7.3-2.6t7.3 2.6"/><path fill="none" stroke="#000" stroke-linecap="round" stroke-linejoin="round" stroke-opacity=".3" stroke-width="__RESOLUTION__" d="M32.9 12.8q3.4 3 3.4 7.2 0 4.1-3.4 7-3.5 3-8.4 3t-8.3-3-3.4-7 3.4-7.2 8.3-2.9 8.4 2.9" vector-effect="non-scaling-stroke"/><path fill="#de961e" d="m22 8.5.6.1.8-.1.4-.4-.2-.3 1.1-.1 2.2.4.4.2.6.8-.1.3v.2l-.6.6h-.1l-.4-.5-.8-.2-.8.2q-.4.2-.4.5t.4.5h.1l-.5.1h-.3l-1.3-.2-.7-.2v-.1l-.2-.1-.1-.1q-.5-.3-.6-.7v-.2z"/><path fill="#8a5702" d="M23.7 7.8V8l-.2.4-.9.1-.7-.1.6-.1q.4 0 .6-.2zm-2 1.6q0 .4.4.7h.1l.6 4.3-.1-.1q-.4-.2-.4-.5v-.4zm5.4.9h.1l.1-.1.6-.6v.2l-.1.2-.6 3.7-.5.6-.2.2h-.2l-.2-.2-.4-.1.3-3q.4.2.8-.2z"/><path fill="#6a4302" d="m22.2 10.2.2.1.7.3 1.3.2v4q.4-.4.8-.5l.4-.1.4.1.2.3-.7.2h-1.6l-1-.3-.2-.1zm3.1.6q-.4-.2-.4-.5t.4-.5l.8-.2.8.2.4.5-.5.8q-.3.4-.7.2zm-2.2.9-.4-.1h-.2v.5l.1.4q0 .2.2.1l.3-.2.1-.4z"/><path fill="#774b02" d="M24.5 10.8h.7l.7.4-.3 3h-.4q-.4.2-.7.6zm-1.6.9.2.3-.1.4-.3.2q-.1.1-.2-.1v-.8l.1-.1z"/><path fill="none" stroke="#000" stroke-linecap="round" stroke-linejoin="round" stroke-opacity=".3" stroke-width="__RESOLUTION__" d="M23.7 7.8V8l-.2.4-.9.1-.7-.1m-.3.9q0 .4.4.7m.4.2.7.3m1.4.2h.7m2.5-1.3" vector-effect="non-scaling-stroke"/><path fill="none" stroke="#000" stroke-linecap="round" stroke-linejoin="round" stroke-opacity=".3" stroke-width="1" d="m22 8.5-.5.7v.2l.6 4h0l.1.3v.1q0 .3.4.5l.1.1h.2l1 .4h1.6l.7-.2.2-.1.3-.2.4-.5m.7-4.3v-.3l-.6-.8-.3-.2-2.2-.4h-1l-.6.5q-.2.2-.7.2H22m5.8 1.4v-.2m-.7 4.1.6-3.7"/></g><g id="c"><path fill="#ad4671" d="M21.5 12v.8q0 2-2.7 3.3-2.8 1.4-6.7 1.4T5.4 16t-2.8-3.3l.1-.7.6-1 2.1-1.6q2.8-1.3 6.7-1.3t6.7 1.3l2 1.5zm-5.5-.3v.3q.1.4.5.6h.3l.8.2 1.1-.2q.5-.2.5-1l-.5-1.1q-.5-.4-1.1-.4t-1.1.4-.5 1.2M13 23l.6-.2h.2l.4.1.3.7-.2.6-.7.2-.6-.2-.2-.4v-.2zm-4-.6.3-.4q.4-.4 1-.4t1.1.4.5 1.1-.5 1.2-1 .4-1.2-.4-.4-1.1zm3.6 2.3.3.1.2.4-.2.3-.3.2-.3-.2-.2-.3.2-.4zM9 11.7l-.4-.5q-.7-.7-1.6-.6-1-.1-1.6.6t-.7 1.6.6 1.3l1.6.2 1.6-.2.3-.2q.4-.4.4-1.1T9 11.7"/><path fill="#7f3161" d="m2.8 12-.2.8q0 2 2.8 3.3 2.8 1.4 6.7 1.4t6.7-1.4 2.7-3.3v-.7q.9 2 .9 4.4 0 4.2-3 7.2t-7.3 3-7.3-3-3-7.2q0-2.4 1-4.4M13 23l-.3.6v.1l.2.5.6.2.7-.2.2-.6-.2-.7-.6-.1zm-4-.6-.2.8q0 .6.4 1t1.2.5 1-.4q.5-.5.5-1.1V23q0-.6-.5-1t-1-.5-1.2.4zv-.1zm3.6 2.3-.3.1-.2.4.2.3.3.2.3-.2.2-.3-.2-.4z"/><path fill="#bc5883" d="M15.9 11.7q0-.7.5-1.2t1.1-.4 1.1.4l.5 1.2q0 .7-.5.9l-1.2.2-.7-.2h-.3q-.4-.2-.4-.6zm-6.9 0q.3.5.3 1.1t-.5 1.1l-.3.2-1.6.2-1.6-.2q-.6-.4-.6-1.3t.7-1.7q.6-.6 1.6-.5 1-.1 1.6.6z"/><path fill="#997539" fill-opacity=".5" d="M12 4.6q4.8 0 8.2 3.4t3.4 8.3q0 4.8-3.4 8.2T12 27.9t-8.4-3.4Q.3 21.1.3 16.3q0-4.9 3.4-8.4Q7 4.6 12 4.6m10.4 11.8q0-4.2-3-7.2-3-3.1-7.2-3.1t-7.3 3-3 7.3 3 7.3 7.2 3 7.3-3q3-3.1 3-7.3"/><path fill="#997539" fill-opacity=".3" d="M22.4 16.4q0 4.2-3 7.3t-7.2 3-7.3-3q-3-3.1-3-7.3t3-7.2T12.1 6t7.3 3 3 7.3"/><path fill="none" stroke="#000" stroke-linecap="round" stroke-linejoin="round" stroke-opacity=".3" stroke-width="__RESOLUTION__" d="M12 4.6Q7 4.6 3.5 8 .3 11.4.3 16.3q0 4.8 3.4 8.2t8.3 3.4 8.2-3.4 3.4-8.2-3.4-8.4Q16.8 4.6 12 4.6" vector-effect="non-scaling-stroke"/><path fill="#000" fill-opacity=".3" d="M21.3 23q2.3 1.2 2.3 2.8t-2.3 2.8-5.6 1.2-5.6-1.2-2.3-2.8 2.3-2.8 5.6-1.1 5.6 1.1"/><path fill="#725718" d="m22.2 10.6-.2 1.3-.4 2.2v-.2q0-1-.6-1.7l-.7-1 .6-.2.5.4.6.5-.6-.5-.5-.4-.5-1.5.5.3.9.5z"/><path fill="#82631c" d="m20.3 11.3-1.7-1.1q-2.9-1.5-7-1.5t-7 1.5q-2.4 1.2-2.8 2.9l-.5-2 .8-1.2.2-.2q3.8-2 9.3-2 5 0 8.8 1.8l.5 1.5z"/><path fill="none" stroke="#000" stroke-linecap="round" stroke-linejoin="round" stroke-opacity=".3" stroke-width="__RESOLUTION__" d="M21.6 14q0-1-.6-1.7l-.7-1-1.7-1q-2.9-1.5-7-1.5t-7 1.5q-2.4 1.2-2.8 2.9M2 9.9l.2-.2q3.8-2 9.3-2 5 0 8.8 1.8l.5.3.9.5.3.2h.1" vector-effect="non-scaling-stroke"/><path fill="none" stroke="#000" stroke-linecap="round" stroke-linejoin="round" stroke-opacity=".2" stroke-width="__RESOLUTION__" d="m20.9 11 .5.4.6.5m-1.1-.9-.6.3m0-1.8L21 11" vector-effect="non-scaling-stroke"/><path fill="#8a5702" d="m13.4.7.6.5q.3.2.8.2l.7.2-.9.1-1-.2q-.4-.2-.4-.5zm2.6 2-.7 5V8H15v.2q0 .4-.5.6l-.1.2.8-5.4.1-.1q.5-.4.6-.9M10 9.2l-.2-.1-.4-.2-.5-.7v-.1l-.8-4.7v-.2L8 2.7l.1.3.7.7.2.1.5.9q.4.5 1 .3l.4 3.8-.5.1z"/><path fill="#de961e" d="m15.5 1.6.5.8v.3q-.1.5-.6.9h-.2v.1l-.2.2h-.2l-.7.3-1.7.3h-1.1l.2-.1q.5-.3.5-.7t-.5-.6l-1-.2-1 .2-.5.6v.1l-.2-.1-.7-.7v-.3L8 2.4l.8-1 .4-.3Q10.5.5 12 .5l1.3.2-.1.3q0 .3.4.5l1 .2z"/><path fill="#6a4302" d="m14.5 9-.2.2q-.6.3-1.4.4h-.8L11 9.5l-.9-.2.3-.4.5-.2.5.2 1 .6v-5l1.7-.3.8-.3.3-.2zM9 3.8l.5-.7 1-.2 1 .2q.5.3.5.6 0 .4-.5.7h-.2l-.8.6q-.6.2-1-.3zm5.3 1.8-.3.3.1.6.4.3.3-.2.1-.5v-.5q-.1-.2-.3-.2z"/><path fill="#774b02" d="m10.5 5 .8-.6.7.1h.4v5l-1-.6-.5-.2zm3.8.6.3-.2q.2 0 .3.2v.5l-.1.5-.3.2-.4-.3v-.6z"/><path fill="none" stroke="#000" stroke-linecap="round" stroke-linejoin="round" stroke-opacity=".3" stroke-width="1" d="m13.4.7.6.5q.3.2.8.2l.7.2.5.8v.3l-.7 5V8H15v.2q0 .4-.5.6l-.1.2h-.2q-.6.4-1.4.5h-.5 0H11l-.9-.2-.2-.1-.4-.2-.5-.7v-.1m0 0-.8-4.7m0-.2L8 2.7v-.3l.8-1 .4-.3Q10.5.5 12 .5l1.3.2"/><path fill="none" stroke="#000" stroke-linecap="round" stroke-linejoin="round" stroke-opacity=".3" stroke-width="__RESOLUTION__" d="m13.4.7-.2.3q0 .3.4.5l1 .2.9-.1m.5 1.1q-.1.5-.6.9m-4 .8.6.1h.2m1.9-.3.8-.3h0M8.1 3v-.3m1 1.1" vector-effect="non-scaling-stroke"/></g><clipPath id="b"><path d="M1 1h48v35H1z"/></clipPath><path id="a" fill="#fff" fill-opacity=".2" d="M36.9 3.2q6.4 3.1 6.4 7.6t-6.4 7.6q-6.3 3.3-15.2 3.3-9 0-15.3-3.2T0 10.8t6.4-7.6Q12.6 0 21.5 0q9 0 15.3 3.2"/><use xlink:href="#a" id="d" width="43.3" height="21.6"/></defs><g clip-path="url(#b)"><g transform="translate(13 26.3)"><use xlink:href="#c" width="23.9" height="29.8" transform="translate(-10.95 -25.3)"/><use xlink:href="#d" width="43.3" height="21.6" filter="url(#filter-object-1)" style="mix-blend-mode:hard-light" transform="translate(-2.9 -25.05)scale(.1759)"/><use xlink:href="#e" width="47.8" height="31.1" transform="translate(-12 -21.85)"/><use xlink:href="#d" width="43.3" height="21.6" filter="url(#filter-object-4)" style="mix-blend-mode:hard-light" transform="matrix(-.1389 0 0 .1389 15.8 -14.4)"/><use xlink:href="#f" width="26.2" height="18.6" transform="translate(-4.95 -11.95)"/></g></g></svg>