<svg xmlns="http://www.w3.org/2000/svg" xmlns:xlink="http://www.w3.org/1999/xlink" width="257" height="325" viewBox="0 0 257 325"><defs><g id="c"><path fill="#807d71" d="m44.9 3.4 4.5 2.9 6.9 5.9 4.1 4.6 1.2 1.6.2.5.8 1.3.4.8.6 2.9-.2 1.3 2.4 3.6 2.5 5.3 1.3 5.5.2 18h-1.6L68.1 44l-1.3-5.7-2.2-6-2.2-4-.9 1.5-.9.8 4.5 10 1.2 5.8.2 14.4v15.5l.9-.9.8-1.4 1.2-2 .5-2.3h.2v3.8l-.7 3.5-2 3.3-3.2 3.1-4.4 2.8-5.1 2.2-6 1.7-6.6 1h-2.6v-1.7l1-2.6v-.6H40V38.3h.3L40 19.5l-1.5-8.9h.8l1.7-.5 1.6-.7 1.3-.8.9-1 .6-1 .1-1-.1-1-.6-1zm18.7 75.4.3-.1.4-.3 2.3-2.2-2.3 2.2-.5.3zl-.6.4-3.1 1.9-3.7 1.6L56 54v-1.2l-1-6-3.3-10.9 3.7-1.6 3.1-2 3.4 11 .9 6 .2 8.4v21.1zm-14-26.7-2-15-1.5.4-3 .5 1.8 13.2.4 4.4v30l3.3-.5 1.3-.3v-.2z"/><path fill="#005d6f" d="m44.9 3.4-.2.3-1-1zm25.3 66.2H70l.2-1.2zm-6.6 9.2-.6.4v-.4zm-1-58.6h.1l.9 1.3z"/><path fill="url(#a)" d="m44.3 3.3.6.9.1 1-.1 1-.6 1-1 1-1.2.8-1.6.7-1.7.5H38l1.5 8.9.5 18.8h-.3l-4.9.3-4.7-.4H30v12.6l-.1 35.3h9.8l.3.6-1 2.6h.1v1.8l-4.1.2-13.3-1.4-6-1.7-5.3-2.2L6 82.9l-3-3.1-2-3.3-.3-1.8-.3-2.2-.2-1h.6l.3.5v-7.6l.3-22.3 1.3-5.5L5.2 31l2.3-3.7-.5-1-.5-2.9.2-1.2L4.3 26l-.4-.2.8-1.8.6-1.2h.2l.2-.4 1.1-1.8 1-1.3.2-.4.6-1 .9-1.3.3-.5 4.1-4.5 6.9-5.8 6.8-4.4 1.6-.6L31 .4l4-.4h2l3.6.9 1.6.7 1.3.7zM14.1 53.8v-1.4l1-6 3.4-11-3.7-1.6-3.1-1.9-3.4 11-1 5.9-.2 8.7v21.2l3.1 2 3.8 1.6v-.1zm-9.4 5.6L5 47l1.2-5.8 2.2-6.1 2-4-1.9-1.9-.2-.4-2.1 4L4 39l-1.2 5.8-.2 17.1v12.8l.1.3 2 2zM24.2 51l2-13.5-4.4-.9L19.6 52l-.2 2-.1 29.9v.1l4.4 1h.1z" transform="translate(.4 .4)"/><path fill="#574f35" d="M40.1 50.8V86h-9.8l.1-35.3zm28.2 23.1-.9 1.4-.9.9V60.6l1 1 .8 1.3zm-5.4 5.3L59.8 81l-3.7 1.6-.2-28.7 4 1.8 3 1.9v21.5M49.6 52l.3 32.6-1.2.4-3.4.5V55.6l-.4-4.4zM7.5 58l3.4-2.1 3.6-1.6-.2 28.4-3.5-1.5L7.5 79zm-2.4 1.9V77l-1.8-1.7-.4-.7V62.2l.5-.7zm14.8-7.4 4.7-1-.4 33.9-4.5-1V54.5z"/><path fill="#575c5f" d="M40.1 86h.3v.7l-.3-.5zM9.9 17 9 18.3l.4-.8zm-1.6 2.2-.2.4-.8 1.4zM6.1 23l-.2.4zM1.4 64.8v7.6l-.3-.5-.4-2.2H.4v-1.3l.3 1.3v-1.3l.6-3.5zM69.9 67l.2 1.4-.2 1.2zM14.4 82.6 10.6 81l-3.1-2 3.3 2zM5.2 77v.3l-2-2L3 75v-.4l.4.7zm30.2-38.4-4.9-.2v-.1zM24.2 85.3v.2l-4.5-1v-.2zM1.4 72l-.1-.1-.6-3.5.6 3.5zm32 14.2h-3.1V86z"/><path fill="#696e72" d="m40.4 86.7-.9 2.6h-.1zM70 69.6l-.5 2.3-1.2 2V57.7h1.6L70 67zm-20 15v.2l-1.4.3-3.2.5v-.1l3.4-.5zm-9.8 1.6h-.6l.6-.1"/><path fill="#003a5a" d="m4.3 26.3.4.1L2.3 32l-.4 1.5.9-3.7zM.6 73l.4 2-.3-1.7z"/><path fill="#595f63" d="M1.1 71.9H.5l-.1-.4v-1.8h.3z"/><path fill="none" stroke="#000" stroke-linecap="round" stroke-linejoin="round" stroke-opacity=".3" stroke-width="__RESOLUTION__" d="m62.6 20.2-.8-1.3-.2-.5-1.2-1.6-4.1-4.6-6.9-5.9-4.5-2.9-1.1-.7-1.3-.7-1.6-.7-3.6-.8-1.9-.1-4 .4-1.8.5L28 2l-6.9 4.3-6.8 5.8-4.1 4.5-.3.5-.9 1.2-.7 1-.2.4-.8 1.4L6 22.9l-.2.4h-.2L5 24.4l-.8 1.9-1.5 3.4-1 3.8.5-1.5 2.4-5.6L7 22.5l-.2 1.3.5 2.9.5 1-2.3 3.8L3 37l-1.3 5.5-.3 22.3v7.6l-.3-.5-.4-2.2-.3-1.3v3.1l.1.5.2.9L1 75l.3 1.8 2 3.3 3.2 3.1 4.3 2.7 5.3 2.3 6 1.7 13.3 1.3 4.1-.2 2.6-.1 6.6-1 6-1.7 5.1-2.2 4.4-2.8 3.2-3.1 2-3.3.7-3.5v-5l-.2-1.4-.1-9.4-.2-18-1.3-5.5-2.5-5.4-2.4-3.6.2-1.2L63 21zl1 1.4zM40.1 38.3V86h-.6.6m29.8-16.5-.5 2.3-1.2 2-.8 1.4-.9.9-2.3 2.2-.5.3-.2.1-.6.4-3.1 1.9-3.7 1.6-.2-28.7v-1.2l-1-6-3.3-10.9h0l3.7-1.6 3.1-2 3.4 11 .9 6 .2 8.4v21.5m.6-57.7 1.5 2.3M44.9 51.2 43 38l3.1-.5 1.5-.4 2 15 .3 32.5v.2l-1.4.3-3.2.5v-30zl4.7.8m18.6 5.6L68.1 44l-1.3-5.7-2.2-6-2.2-4-.9 1.5-.9.8 4.5 10 1.2 5.8.2 14.4 1 .8.8 1.4zm-53.7-3.5v-1.5l1-5.9 3.4-11-3.7-1.6-3.1-1.9-3.4 11-1 5.9-.2 8.6 3.4-2zl-.2 28.4v.1L10.6 81l-3.1-2V57.9m-4.6 4.3.3-17.1 1.2-5.8 2.2-6 2.1-4.1.2.4 1.9 1.8-2 4.1-2.2 6.1-1.2 5.8L5 59.8v17.5l-2-2-.2-.3V62.2l.5-.7L5 59.8M1.9 33.6l-1 4m34.4 1-4.9-.2v12.4h9.7m-15.5.6 2-13.5-4.5-.9L20 52.4zl-.4 33.9v.2h0l-4.5-1v-30l.3-2.1m10.5-14.1 4.8.3 4.8-.4m-9.7.2v-.1h0zm-29 26.4-.1.1-.6 3.5.6 3.5.1.1m-.7.9v.5l.3 1.7m-.3-6.7v1.3M7.5 79l3.3 2 3.5 1.6M3 74.6l.4.7L5.1 77m34.4 9.2h-9.2V86l.1-35.3m3 35.4-3.1-.1m-10.6-1.8 4.5 1m45.7-15.7.2-1.2m-.2-1.4v2.4m-1.7-6.5v10.9M56 54.1l4 1.6 3 2M50 84.6l-1.2.4-3.4.5m21.2-24.8v15.5" vector-effect="non-scaling-stroke"/></g><g id="l"><path fill="#ffffce" d="M1.4 19.7 0 21.6q1.3-13.4 9.3-15L14 4.4 22.9 6l.9 5.6 1.4 3 .2 2.1q-.6-.1-1.6 0 0-2.4-1.8-4.2l-.7-.8q-2.7-3.1-6.6-3-8.2 3.2-13.4 10.5-.4.5-.3 1z"/><path fill="#a68f50" d="M25.4 16.7v.3l.1.6-.5.3-.4.3-.8.3-.9 1-2 2.6-.1.1L18.6 12l-.9-.3q-3.8-1.3-6.6.4-1.5-.7-4.2 1.6l-.7.6-.1.2-4.7 5.3-.4.5q0-.5.3-1Q6.5 12 14.7 8.8q3.9-.1 6.6 3l.7.8q1.8 1.8 1.8 4.2 1-.1 1.6 0"/><path fill="#a06131" d="m25.5 17.6.7 4.4-.5.5-.3.3-.3.3q-1.1 1.6-2 3.4l-.4.8.2-1-1.5-3.2-.2-.9h-.5l.2-.1 2-2.7.9-.9.8-.3.4-.3zm-4.4 4.6-.2-.1z"/><path fill="#763d07" d="M26.2 22v.2l-.1.3-.1.6v.2l.3 5 2.9 3.4-2.2 8.6-3.9-3.5-1.1-3.9.8-5.6.4-.8q.8-1.8 1.9-3.4l.3-.3.3-.3z"/><path fill="none" stroke="#630" stroke-linecap="round" stroke-linejoin="round" stroke-width="__RESOLUTION__" d="M1.4 19.7 0 21.6q1.3-13.4 9.3-15L14 4.4 22.9 6l.9 5.6 1.4 3 .2 2.1m0 .3.1.6h0l.7 4.4v.2l-.1.3h0l-.1.8.3 5 2.9 3.4M27 40.3l-4-3.5-1-3.9.8-5.6.1-1-1.5-3.2-.2-.9h-.5l-2-10.2-.9-.3q-3.8-1.3-6.6.4-1.5-.7-4.2 1.6l-.7.6-.1.2-4.7 5.3M21 22.2l.2.1m4.9 1.1v-.2l.1-.7" vector-effect="non-scaling-stroke"/><path fill="#a68f50" d="M85.5 37.8h.5q.5 1.5 1.3 2.8-4.5 1.6-9.1 2.5l-2.5.5-1.2.3q-1.2.3-2 .7l.4-1.6.1-.4.1-.3.2-.5.5.8.2.1-.3-1.4v-.2l1.3-.5h.1l.8.5-.6-.7 1.3-.5h.4l2.3-.7 3.1-.7h2.7zm-12.2 4-.2.5H73l.1-.5v-.1zm-.3.9-.1.3-.4 1.6.3-1.6.1-.4zm-3.6 3.7.3-.6.8-1.4.4-.5.3-.5h.1l.5-.5.3-.2v-.1l.4-.3.4-.4.1-.1-.2 1.2-.4 1.7-.2.1-.5.3-.6.4q-1 .8-1.3 1.9l-.2-.4-.1-.5zm-43 17.8"/><path fill="#555146" d="m79.3 39.2-2.3.6-.4.1-1.2.5-.4.2-1.3.5q-.2-1-.7-.7l-.5-1.5.8-4.4-.2-1.3-1.1-2.5-1.7-2.2-.4-.4-.4-.4-.1-.2.1-.1v-.2l-.2-.3-1.6-1-4.4-2.7-2.7-1.2-1.4-.6h.5q2.3-.2-1-.5l-1.8-.2-1.4-.5V20l8.3 1.4 2.6 1-.3.5 2 2.3 1.3 1.4-.1.2.1-.2-1.3-1.4 1.2-1.2 5.3 4.3 2.6 3v.2h.1l.8 1.8zm2.4 8.4.7 6.8 4.7 1.4-2 1.8-.1 2.3-5-1.2v-2.2l-.4-5.8V50l1.7-1zm-3.9 17.2L72.1 69l-1 .5-1.2-1-3.8-3-.4-.6-2.5-4.3-.3-.5-1.6-6.4.1-1.7.1-.8 1.3-1 1.2-.8.5-2.1q.1-.6 3.5-6-.5 5.3.1 4.8l1.5-1.3-1.7 4.1 1.5-2.6v.1l1.3 11.9.5 4.5 1.6.5h.2v-.1l2.3-1.4.3-.1 2.4-1.4zm-12.2 5V80l-.1.9-1.5.4-1.2.4-.1-1.3.1-11.2.4-8.6 2.5 4.3zM67 83l.1 2.4-.7.4-2.3 1.4v.2l-.1.2-.1.1q0 2.1-.9 4.2-.4 1-.5 2.2l-.7 2.5-.6.2q-2.7-.3-2.9-1.9l2.3-2.6.2-6.7.7.3.6-.3 1-.5zM22.6 44.6l4.9 2.8 2 1.2v1.5l-.1.2-.1 1.7-.4 1.4-.3 1.4-.2.5-1.2.2h-1.6l-1.2-.4-.1-.7-1.4-5.1.4-.4.1.2-.1-.2-.4-1-1-1.2zm32.6 3.6.3.4.6.6.7.7q-.4 1-.4 2l-.1 1.7L55 48zm-31.6 1 .5.4zm-.6.3 1.4 5.1-2.8.2-.3.2-3.2 2.4-1.3-.4-1-4.4 1.3 1.2 3-.9zm2-2-.2-.2 1.3 5.6 1.1 1.8 1.3-1zm8.4 12.3-.5 1.5v.2L27.8 66l-1.3-1.6 4.7-3.5q1.1 0 2.2-1.1M73 63.3v3.5L72 69l1-2.2z"/><path fill="#f60" d="M73.7 41.1v.2l.3 1.4h-.1l-.5-1.3-.4-1q.5-.3.7.7l-.3.2zm-18.2-21h-.2zM37.2 49.8v.1m23.6-.2q.4 1.7.7 1.5l-.1.8-.1 1.8zm-33.5 8.6.4-1.2v.3l.3.5.4.7z"/><path fill="#f04d0f" d="m74 42.8-.2-.2-.5-.8.1-.5v.1l.5 1.3m-.8-.4-.1.4h-.1l-.1.2v.1l-.3 1.6h-.1l.3-1.7.3-1.2h.1zM52.9 27.8h-.3l.2-.1h.1zm18.2 17.6.6-.4v1.3zm3.4-1.5.5.3z"/><path fill="#763d07" d="M72.5 44.6q.8-.4 2-.7l1.3-.2 2.4-.6 6.4 1.9q.5.1.8.4L82 46.6l-.7.2.7-.2-.7 2.4-1.7 1-.3.3H79l-4 2.3q-3-.9-4.7-4.3v-.1L70 48l-.3-.7-.2-.4-.1-.5 1.3 11.9 2.3-1q2.2 2 5 1 1.3-.5 1.9-1.4v-.4l-.4-5.8V50l-.3.3H79l-4 2.3q-3-.9-4.7-4.3v-.1L70 48l-.3-.7q.3-1.1 1.3-1.9l.5.9.1-1.3.5-.3-.2 2 .1-.6zM65 96.1l-.5 5.1-.7.3H63l-2.1.2.3-5h.6zm-33.3-5.8-1.5.8-2.4-1.1h-.1l-.4-2.3-.7-3.3-.5 2-.7 3.1-.1.1-.3.2v-.2h-.1L23.8 84q1.6-1.1 3.2-2.6l.4-.4 10.2-.3v.2l-3.1 8.5-.3-1.1-1-3.4-1.6.3.1 3.2zM55 48.1l1.3 5.4 3 2.9q-4.6-.6-6.1-1.5-1.7 2.7-3 3.4v-2.1h-.1l-5.5.6h-1.4l-2.2-.2 3.6-.3 3.2-2.1 1.6-2.8L39 56.2h-.1l-1.4-.3-3.5-1.2-.3-.2-.5-.6v-.1l1.1-2.8h.6l2.3-.2q8.4-.6 17.8-2.7m19.5-4.2.5.3zm-2.1.8v-.1l-.2 1zm-8.5 36.7h.1"/><path fill="#a06131" d="M78.2 43.2q4.6-1 9.1-2.6-.8-1.4-1.2-2.8h5.3v.3l-2 5.1-1.2 1.2-2.9 1q-.2-.3-.7-.4zM36.9 90.4 35 91l-.2-.7-.3-.9 3.1-8.5.1-.2q3.6-7.4 9.7-12.2-4 3.9-6.2 9.7l-.6 1.3-1.4.7.3 5.9.1 1.1h-.5l-.7 2.2-1.4.6zM33.2 54l.5.6.3.1 3.5 1.3 1.4.4-1.3.5h.1l3.3-.2 2.3.2h1.3l5.5-.5h.1v2q1.3-.7 3-3.4.8 1.8 2 1.6-.3 2.1 1 5l.5 1.2-.9.3-2.1-3q-4.9 1.4-9.8 1.6l2.6-1.3-8.7 1.1h-2.5l-2.5-.2V61l.5-1.5v-.1l-.8-3.6z"/><path fill="#e8ecea" d="m82 46.6-.3 1-.5 1.4zM62.8 69.3 60 67.7l.4-.2 2.4 1.6zM27.8 57l-.1-.2h.2zm-6.5 28.2.3-1.2.2 1zm2.4-1.4"/><path fill="#894e19" d="m80 58.7.1 4.2-2.3 1.9.2-4.5-2.4 1.4h-.2v.1l-2.5 1.4h-.1l-1.5-.5-.5-4.5 2.3-.9q2.2 2 5 1 1.3-.5 1.9-1.4v1.4z"/><path fill="#9f784d" d="m69.9 68.5-4.3 1.3.1-4.9.4.5z"/><path fill="#e3680f" d="m65.6 80 1.7.3-5.4 3.2-2.6-1.2 3.4-1.9.1 1.3 1.2-.4 1.5-.4z"/><path fill="#f28331" d="M67.3 80.4h.4l.4 2-1.1.6-4 2.1-.9.5-.2-2v-.1zm-3.5 21.2"/><path fill="#7b7565" d="m67.1 85.4.4 6.4.6 1.9-1.2 1.6-2 .8-3.1.5.7-2.5q.1-1.1.5-2.2.9-2 .9-4.2v-.1l.1-.2.1-.2 2.3-1.4zm-1.6 20.7-2 1.2q1.6-4.1-.5-5.8h.8q2.7 1.5 1.7 4.6m-38-58.7q.4-1.1 1.2-2 .9-1.1 2.2-2l1.4-.8 1.8 1.1.2.3.5.4q2.3 2.3 2.4 5.4v.1l1.2-.7 3.1-2q3.7-2.5 7-5.5 2.3-2.2 4.8-3.8l.4-.9-.2-.6h-.8q-2-.4-4-1.6-2.2-.9-4-1.2L41 33q-3.1.2-5 2.3-.4-9.1 2.8-9.1l3.1-.1 1.3-.1.2.4q.5.9 1.5 1.2l2.1.5 1.8.2 6.5 5.5q-4.1-4.6-1.5-5.8l1-.4 1.4-.2-2.5.2-.8.1v-.1l.9-.3h.1l1.5-.9h.1v-.1l.6-2.7-.1-.5.3-.1h.2q2.5 1 4.1 2.9l1.1 1.4.5 1q1 2.4 1.1 5.4l-.5 4.5 1-1.8q2.7-2 4.5-2.2.8 0 1.5.4l1 .7 1.7 3.5.5 1.5.4 1-.2.4-.1-.1H73l-.1.1-.4.4-.4.3H72l-.1-.1v.4l-.5.5h-.1l-.3.5-.4.5-.8 1.4-.3.6-1.5 2.6 1.7-4.1-1.5 1.3q-.6.5-.1-4.9-3.4 5.5-3.5 6l-.5 2.2-1.2.9-1.3.9q-.4.2-.7-1.6-2.1 3.5-1.5 6.8l-3-2.9.1-1.7q0-1 .4-2l-.7-.6-.6-.7-.4-.4H55q-9.4 2.1-17.8 2.7l-2.3.2h-.5l-1.1 2.8-.1.1-.7 1.9.8 3.6v.1q-1.1 1.1-2.2 1L26.4 64h-.1l-.5-4.1 1.4-1.7 1.2.3-.4-.7-.3-.5V57l.2-.2.5-1.6.2-.5.3-1.4.4-1.4.1-1.7v-.1l.2-1.6zm5.3 11.9L31 60.6zm-1.1 0-3.2-.7z"/><path fill="#c0b799" d="m64.5 101.2 1.3-.6 1 4.9-1.3.6q1-3-1.7-4.6zm-5.7-80.3q3.3.3 1 .5h-.6l1.3.6 2.8 1.2 4.4 2.7 1.6 1 .2.3v.2l-.1.1.1.2.4.4.4.3 1.7 2.4 1.1 2.4.3 1.3-1 4.4q-1-2.6-1.7-3.5l-.9-.7q-.7-.5-1.5-.4-1.8.1-4.5 2.2l-1 1.8.5-4.5q-.1-3-1.1-5.3l-.5-1-1-1.5q-1.7-1.9-4.2-3l-.2.1-.3.1.1.5-.6 2.7v.1l-1.6.9h-.1l-.9.3-.3.1h.3l.9-.1 2.4-.2q3-.4-1.4.3l-1 .3q-2.6 1.1 1.5 5.8l-6.5-5.5-1.8-.2-2-.5q-1-.3-1.6-1.1l-.2-.5-1.3.1h-3q-3.2 0-2.9 9.2 1.9-2.1 5-2.2l3.8.3q1.8.4 3.9 1.3 2 1.3 4 1.5l.7.1h.1l.2.6-.4 1q-2.5 1.5-4.9 3.8-3.2 3-6.9 5.4l-3.1 2-1.2.7q-.1-3.2-2.4-5.5l-.5-.4-.2-.2-1.8-1.2-1.4.8q-1.3.9-2.2 2-.7.9-1.2 2l-4.9-2.9-.2-.2 5.5-13.1 1.6-2q1.5-1.6 3.3-3.1l5-3.3q3.6-2.2 8-2.7 3.6-.6 8-.2l1.5.2h.3v.3l1.3.3z"/><path fill="#aa4e0b" d="m60.9 85.6-1.5-.7-.1-2.6 2.6 1.2v.1l.2 2-.6.3z"/><path fill="#000b00" d="m60 67.7-1.2.6-2.8-4.9h.1l-.3-.4.9-.3-.6-1.2q-1.2-2.9-.9-5-1.2.2-2-1.6 1.5.9 6.1 1.5-.6-3.2 1.5-6.7l.5 4 1.6 6.4.3.5-.4 8.5-2.4-1.6z"/><path fill="#002001" d="m58.8 68.4-9.1 5.1-4 9 .5 2.9-1.7 1.3v-.1l-.2.1-1.6 1.1.4-5 .2-2.3-1.6-1.5-1 .5.4-1.2q2.3-5.8 6.3-9.7l.4-.3 6.3-4 .5-.3h.2l.2-.1 1-.5zm-8.7 4.3-.4.8zm-4.6 8.4.3 1.5z"/><path fill="#a68f68" d="m44.4 86.8-2.3 4.5q-.5-.8-1.3-1.1l.3-2.2-1.5-.7v-1.1q1.5-3 3.5-3.4l-.5 5z"/><path fill="#98a99d" d="m42.1 91.3-.1.2zm-5-1.2-.2.2.1-.2M23.3 49l.1.2zm14.3 32h.1z"/><path fill="#8f7c6c" d="m40.8 90.2-3.2-.1H37l1.4-.6.8-2.2h.4l1.4.7zm-9.1-1.7v-3.2L33 85l1.1 3.4zm7.8-2.2-.2-5.9 1.4-.7 1-.6 1.6 1.5-.1 2.3q-2 .4-3.7 3.4m-13.4.3.5-2.1.6 3.3-.3-.4z"/><path fill="#695d49" d="M34.8 90.4h-1.9l-1.2-.1v-1.8l2.5-.1.3 1.1zm-7.1-.5-2.3-.3v-.1l.7-3 .8.8.4.4z"/><path fill="#c2cdc7" d="M27.8 90h-.1zm-4-32.9.2-.2zM80 58.3v.4l-.2-.1zm-4.7 3.5.3-.1z"/><path fill="#cfad85" d="m25 89.8-.1-.2zm18.9-28.2q4.9-.2 9.8-1.6l2.1 3 .3.3-.1.1-1 .5h-.2v.1h-.1l-.7.3-6.2 4-.4.3q-6 4.8-9.6 12.2h-.2l-10.2.3q5.4-5.5 9.3-16.3zM17.1 72q0 4.1 1.3 6.1l1.2 1.4.1-.3 2.5-5q6-11.9 4.7-6.2-1.2 4.9-4.1 9.1l-2.5 3.2q3.7 1.1 6.7 1.2-1.6 1.5-3.2 2.5l-2 1.1-.2-1-.3 1.3-.6.2-.1 1.9-1.2-1.5h-.1l-.8-3.5-2.4-.3-.1-.1-1.6-4 .8-2.7z"/><path fill="#f9d1af" d="m24.9 89.6-6.3-1.4-2-1.7h-.2l-.8-.5.3-3.8h.2l2.4.3.8 3.5 1.3 1.5v-1.9l.7-.2.5-.3 2-1zM24.5 55l1.2.4h1.6l1.2-.2-.5 1.6h-.2l-3.8.1v-.3zm23.4 13.2-.4.3z"/><path fill="#a60000" d="M55.5 20h-.3z"/><path fill="#69361a" d="m23.5 49 .4.5zm1.4-2 .1.1 3.6 6.1-1.2 1.1-1.2-1.8zM39 56.4l.1-.1 10.4-4.8-1.6 2.8-3.2 2.1-3.6.3-3.3.2h-.1z"/><path fill="#970000" d="m24.3 54.5.1.5v.1l-.5 1.6-1 .7-1.2-.4-.5-2.2.3-.2z"/><path fill="#abbaaf" d="M29.5 50.3v-.1z"/><path fill="#ffffce" d="m32.8 61.2 2.5.2h2.5l8.7-1-2.6 1.2-7.2 3.1q-3.9 10.9-9.3 16.4l-.4.4q-3-.1-6.7-1.2l2.5-3.2q2.9-4.2 4-9.1 1.4-5.7-4.6 6.2l-2.4 5-.2.3-1.2-1.4q-1.2-2-1.3-6l2.3-4 .6-7.6 3.7-3.5h.2l3.8-.1v.2l-.4 1.2h-.1L25.8 60l.5 4.2 1.4 1.7z"/><path fill="#ffffe6" d="m14.4 78 1.6 4.1h-.1v.1l-.3 3.8-2.5-1.8-.2-3.5.8-4z"/><path fill="#bc2f0c" d="m61.5 85.9.6-.3 1-.5-1 .5z"/><path fill="none" stroke="#630" stroke-linecap="round" stroke-linejoin="round" stroke-width="__RESOLUTION__" d="m85.5 37.8-.4.6-2.7.1-3.2.7-2.2.6-.4.1-1.2.5-.4.2-1.3.5-.3.2-.2.5-.1.5-.1.4-.1.3h0l-.4 1.6-.4 1.5-.1.5m-2.6-18.9v-.2m-14.3 21L55 48h0l1.3 5.5 3 2.9m12-13.1.5-.5.3-.2h0v-.1l.4-.3h0l.4-.4.1-.1-.2 1.2-.4 1.7h0l-.2 1-.1.5m5.1-14.7-2.6-3-5.3-4.3m10 15.1L78 33.4l-.7-1.8M24.8 47l1.3 5.5 1.1 1.8 1.3-1zM35 51h-.5 0l-1.1 2.8m5.7 2.4 10.4-4.8-1.6 2.8-3.2 2.1-3.6.3-3.3.2h-.1l1.3-.5M19.4 86l1.2 1.4v-1.9l.7-.2.3-1.3.2 1 2-1h0l1 5.5m54.8-38.9.4 5.8M55 48q-9.4 2.2-17.8 2.8" vector-effect="non-scaling-stroke"/><path fill="none" stroke="#000" stroke-linecap="round" stroke-linejoin="round" stroke-opacity=".3" stroke-width="__RESOLUTION__" d="M91.4 37.8v.3l-2 5.1-1.2 1.2-2.9 1-3.3 1.2-.3 1 .7 6.8 4.7 1.4-2 1.8-.1 2.3-5-1.2.1 4.2-2.3 1.9-5.7 4.2-1 .5-1.2-1-4.3 1.3V80l1.7.3.4.1.4 2-1.1.6.1 2.4.4 6.4.6 1.9-1.2 1.6-2 .8-.5 5.1 1.4-.6 1 4.9-1.3.6-2 1.2q1.6-4.1-.5-5.8l-2.1.2.3-5q-2.7-.2-2.9-1.8l2.3-2.6.2-6.7-1.4-.7-.1-2.6 3.4-1.9.1-11.2-2.8-1.5-1.2.6-9.1 5.2-4 9 .5 2.9-1.7 1.3-.1.1.1-.2-.2.1-1.6 1.1.4-5 .2-2.3-1.6-1.5-1 .5-1.5.8.3 5.9.1 1.1h-.5l-.7 2.2-1.4.6-.1.2-1.9.8-.2-.7-.3-.9-.3-1.1-1-3.4-1.6.3.1 3.2v1.8M82 46.6l-.7.2m0 2.2.4-1.4m-12.3-1.3.3-.6.8-1.4.4-.5.3-.5m-1.8 3v.1l.2.5.2.4.3.7v.2l.2.1q1.7 3.5 4.6 4.3l4.2-2.4h.2l.3-.2 1.7-1M80 56.9v1.8m-.4-8.7v.5m-8.8 7.8.5 4.5 1.5.5.2-.1 2.3-1.4.3-.1 2.4-1.4-.2 4.5m-17-15.1.5 4 1.6 6.4.3.5 2.5 4.3.4.5 3.8 3m-9.5-.9-.4.2m2.8 1.5.4-8.6m2.5 4.3v5m7.3-6.6h-.2m-.7 5.7.9-2.2v-3.5M49.7 73.6l.3-.8m-4.3 9.8-.3-1.4m-4.6 9.1.3-2.2-1.5-.7m24.4-6 1.5-.4v-1M64 81.4l-1.2.4-.1-1.3m-.8 3v.1zl5.4-3.2M61.5 86l.6-.3 1-.5 3.9-2m-4.9 2.5-.2-2h0m-1 2 .6.3m.3 10.7 3.2-.5m-3.8.7.6-.2m.1-13.1-2.6-1.2m10.2-35.8 1.3 11.8m-6.9 43.2.7-.3M69.4 27l.1-.2-1.3-1.4-2-2.3.3-.4-2.7-1-8.2-1.6h0-.2l.3.2 1.3.5 1.9.2m-3.5-.8-1.5-.2q-4.4-.3-8 .2-4.4.4-8 2.7l-5 3.3q-1.8 1.4-3.3 3.1l-1.6 2-5.5 13.1.2.3 4.9 2.8 2 1.2v1.7l-.2 1.7-.4 1.4-.3 1.4-.2.5L28 57l-.1.2-.6 1.2h0L25.8 60l.5 4.2h0l1.4 1.7 5-4.6.1-.2.5-1.5v-.1l-.8-3.6.7-1.9m22.3-33.8-.3-.1h.1m1.6.7-1.3-.2m-33 24-.7 2.1 1 1.3.4 1h0l-.4.4 1.4 5.1.1.6v.1l-.5 1.6-1 .7-1.2-.4-.5-2.2.3-.2 2.8-.2m-.6 2.6L20 60.4l-.6 7.6-2.3 4-1.9 3.4-.8 2.6 1.6 4.1v.1l2.5.3.8 3.5M31 60.6l-4.7 3.6h-.1m4.8-3.5 1.6-1.3m-8.9-2.5-.1.2m.2-.3v.1m4.5 1.8 3.2.6m-4.4-.9 1.2.3m-1.1-.3h-.1m-4.2-9-3 3.5-3 .9v-.1l-1.3-1.2 1 4.4 1.3.4 3.2-2.4m-6.8 23.3-.7-1.5-.8 4.1.2 3.5m2.5 1.8.3-3.8h.2" vector-effect="non-scaling-stroke"/><path fill="#462304" d="M35.3 57.7q0-2.5 2.1-4.7 2.1-2.1 5-2.8t5 .6q2 1.3 2 3.8 0 2.3-2 4.5-2.1 2.2-5 2.8-2.9.7-5-.6-2-1.2-2-3.6"/><path fill="none" stroke="#000" stroke-linecap="round" stroke-linejoin="round" stroke-opacity=".3" stroke-width="__RESOLUTION__" d="M35.3 57.7q0-2.5 2.1-4.7 2.1-2.1 5-2.8t5 .6q2 1.3 2 3.8 0 2.3-2 4.5-2.1 2.2-5 2.8-2.9.7-5-.6-2-1.2-2-3.6" vector-effect="non-scaling-stroke"/><path fill="#462304" d="M24 48.7q.8-.5 1.7-.8 2-.5 3.6.6 1.5 1.1 1.5 3.3 0 2-1.5 4-1.6 1.9-3.6 2.5-2.1.5-3.5-.5l1.2-3.4q.8-2.9.8-4.1z"/><path fill="none" stroke="#000" stroke-linecap="round" stroke-linejoin="round" stroke-opacity=".3" stroke-width="__RESOLUTION__" d="M24 48.7q.8-.5 1.7-.8 2-.5 3.6.6 1.5 1.1 1.5 3.3 0 2-1.5 4-1.6 1.9-3.6 2.5-2.1.5-3.5-.5" vector-effect="non-scaling-stroke"/><path fill="#666" d="m39.4 55.2 1.3.1q.5.5.5 1.2 0 .8-.5 1.4l-1.3.9-1.2-.1q-.6-.5-.6-1.2 0-.8.5-1.5t1.3-.8m-11.1-.6q-.5.7-1.2 1l-1.4-.2q-.4-.4-.4-1.1 0-.9.4-1.5.6-.6 1.4-.9l1.2.2q.6.4.6 1.1t-.6 1.4"/><path fill="#555146" d="M56.3 26.9q-2 .9-4.9.9t-5-.9-2-2 2-2.1q2.1-.9 5-.9t4.9.9 2 2-2 2.1"/><path fill="#555146" d="M57.4 24h-.2l-.3.1q0 .8-1.7 1.5l-1.5.4-2 .3q3.9-7.9.8-21.7z"/><path fill="#c0b799" d="M52.6 4.6q3 13.8-.9 21.7H51l-3.9-.7q-1.5-.6-1.9-2l.1-.2L51.6.5z"/><path fill="#f60" d="m51 26.3-3.9-.5q-1.3-.4-1.5-1l-.4-.7v-.6q.4 1.6 1.9 2.1z"/><path fill="none" stroke="#000" stroke-linecap="round" stroke-linejoin="round" stroke-opacity=".3" stroke-width="1" d="M57.4 24 52.5 4.6l-1-4.1-6.2 22.9m6.5 2.9 2-.2 1.7-.5q1.7-.7 1.7-1.6m-12-.4q.4 1.4 1.9 2l3.9.6h.8"/><path fill="#a68f50" d="m80 14.8.6-.3 1.3.2 4.1-.5 2.3 2q-2.2 1.2-3 2.7l-2 .7-1.1.5v-.2h.2l-.4-.3-.4.1q-2.4-.7-3.2-.4-2.9 1.3-6 3.2l-1.7 2.1q-.2-.6 1.6-2.1 1.2-3.3 10-6.5-2 .3-2.9-.9z"/><path fill="#a06131" d="m88.3 16.3 1.2 1-.8 4.4q2.2 3.6 2.9 8 .5 4 0 7.7l-2 5.2-1.2 1.1-2.9 1q-.2-.3-.7-.4l-6.5-1.8q4.7-1 9.2-2.6-1-1.7-1.5-3.5l.5-1.2.3-.6-.1-.7.1-1.9v-4l-.1-.4v-.2l-.3-3-.2-1v-.6l-2.9-3.1 2-.7q.8-1.5 3-2.6m0 4.3.4 1.1z"/><path fill="#763d07" d="m85.5 44.8-3.4 1.1-.7 2.4-2 1.3h-.1l-4.2 2.3q-3-.8-4.7-4.2l-.1-.2v-.2l-.3-.5-.1-.1q.9-2.9 6-3.7l2.4-.5 6.5 1.8q.5.1.7.5m-4.1 1.4.7-.3z"/><path fill="#ffffce" d="m69.9 46.7-.3-.9v-.1q.8-1.8 1.8-3L73 41l.8-.7 3-1.1.3-.1 2.3-.7 3.1-.6 2.8-.1.7-1.4q.5 1.8 1.5 3.5-4.5 1.6-9.2 2.6L76 43q-5.1.8-6 3.6M82.1 20l-.5-.2.4-.1.4.3zm-11.4 4.7q0 .2.4.3 2.5.7-1.1.7l-.8.9-1.5 2.4-3.8 7-1.5 2.9-.4-.1 4.3-16.3 2.5-4.7 6.8-3.5 4.1.6q-.6-.1-.3.3 1 1.2 2.8.9-8.7 3.2-9.9 6.5-1.8 1.5-1.6 2.1l-.7 1z"/><path fill="#c2cdc7" d="M86.6 35.2v-.7l.3.1z"/><path fill="#f9d1af" d="m86.6 34.5.1-.6.1.7z"/><path fill="#e8ecea" d="M86.7 27.5v-.2zM62.4 38.9l-.7 1.6-.2.5.5-2.2z"/><path fill="none" stroke="#630" stroke-linecap="round" stroke-linejoin="round" stroke-width="__RESOLUTION__" d="m80 14.8.6-.3 1.3.2 4.1-.5 2.3 2 1.2 1.2-.8 4.3q2.2 3.6 2.9 8 .5 4 0 7.7l-2 5.2-1.2 1.1-2.9 1-3.4 1.2-.7 2.4-2 1.3h-.1l-4.2 2.3q-3-.8-4.7-4.2l-.1-.2v-.2l-.3-.5m-.1-.1-.3-.9v-.1q.8-1.8 1.8-3m2.4-2.3 3-1.1.3-.1 2.3-.7 3.1-.6 2.8-.1.7-1.4.5-1.2.1-.7.1-.6.1-1.9v-4l-.1-.4v-.2l-.3-3-.2-1v-.6l-2.9-3.1-1.1.5m0-.2-.6-.2q-2.4-.7-3.2-.4-2.9 1.3-6 3.2l-1.7 2.1-.7 1-.8.9-1.5 2.4-3.8 7-1.5 2.9-.7 1.6-.2.5.5-2.2 4.3-16.3 2.5-4.7 6.8-3.5 4.1.6h.3l-.6.3m2.7 4.8h.3m6.3 1.8-.4-1.1m-3-1.7-2 .7m3.5 15-.1-.7m.1.7-.2.5M82 46l-.7.3" vector-effect="non-scaling-stroke"/><path fill="#cfc9b1" d="m33.5 29.4-1.8 7.1-1 2.9-.5.2-.6-.2-.2-.4.2-.5 2.6-6.8q2.3-6.7 1.3-2.3m-4.6 12.4-.3.5-.7.3-.8-.3q-.3-.2 1.4-6.5 1.8-6.2.8-2.1t-1 5.7.3 1.9z"/><path fill="none" stroke="#cfc9b1" stroke-linecap="round" stroke-linejoin="round" stroke-width="1" d="m23.9 43.7 4.7-12.3q6-8 10.2-9.4 3.5-1.4 6.8-2M32.3 56.4l-3.4-.9m3.4 4.1-5.2-1.2m6.7-4.6-5-.4"/><path fill="none" stroke="#f90" stroke-linecap="round" stroke-linejoin="round" stroke-width="1" d="M67.5 81.8 62.8 84"/><path fill="none" stroke="#630" stroke-linecap="round" stroke-linejoin="round" stroke-width="1" d="M34.7 51.2 32.4 56m.1.3.6 3.8"/><path fill="none" stroke="#ffc" stroke-linecap="round" stroke-linejoin="round" stroke-width="1" d="m33.1 85.5.5 5.1M23.5 85l-2.8 1.3m5.4-.2 2 3.1m15-9.1L40 81.8"/></g><g id="j"><path fill="#957440" d="M8.6 1.7v.8l-.1.2q-.2.6-1.2 1l-1.2.5H6l-1.7.2q-1.8 0-3-.7-1-.5-1.2-1.1L0 2.2v-.5Q.4 1.2 1.4.6q1.2-.6 3-.6t3 .6q1 .5 1.3 1.1"/><path fill="#a97d49" d="m6 4.2 1.3-.5q.8-.4 1.1-1l.1 4.4v.6q-.2.7-1.2 1.2l-1.5.5z"/><path fill="#765834" d="M6 4.2v5.2l-.6.1-1.1.1q-1.8 0-3-.7L.1 8 0 7.5V2.6q.3.6 1.3 1.2 1.2.6 3 .6z"/><path fill="none" stroke="#58472c" stroke-linecap="round" stroke-linejoin="round" stroke-width="__RESOLUTION__" d="M8.6 2.5v.1-.9zl-.1.2v-.1M6 9.5l1.3-.6q1.1-.5 1.3-1.2V7v.6m-.1-5q-.2.6-1.2 1l-1.2.5m2.5-2.5q-.3-.5-1.2-1Q6 0 4.3 0t-3 .6Q.3 1.1 0 1.8l-.1.4v.4q.3.6 1.3 1.2 1.2.6 3 .6L6 4.2M0 2.6v4.8l.2.6 1 1q1.3.5 3.1.6l1.1-.1h.5" vector-effect="non-scaling-stroke"/><path fill="none" stroke="#f90" stroke-linecap="round" stroke-linejoin="round" stroke-width="__RESOLUTION__" d="m8.6 7.1-.1-4.4" vector-effect="non-scaling-stroke"/></g><g id="i"><path fill="#58472c" d="m113 11.1.1-2 .7-2.5 1.2-2 1.5-1.6 2-.9 2.1-.3 1.9.3.5.1 2.4 1 2.1 1.4.3.2.9.7 1.5 1.3 2.2 2.5 3.4 6 1.8 6.5.2 1.7.1 1.4-.2 2.8-.4 1.4-.3.9-1.8-2-9.8-10.7-2.6 1.3h-.5l-1.2-2-3.3-3.4-1.9-1.2-1.7-.7zM41.8 120.2l6.8-4.7v6.1l.4 2.1-3.9 2.7-.3-.8-.1-.1-.6-1.9-1.4-2.4zm117.3-38.4v-7l-6-6.6 2-4.2 1.9-4.2 9.6 11 1.8 2.1v17.4l-2.8-8.5-2.7-1.8q-2.3 2.1-3.8 1.8m6.7 7.7-.3-.2-.3-.2-5.5-2.8.3-.2 2.2 1.1h2.2l4 3.1v.5l-2-1-.2-.1zm.5-13.1q.1-2.3-.8-4.5l-.2-.6-.6-1.2-.6-1.6q-.5-1-5.8-1.7l5.2 5.7z"/><path fill="#86774a" d="m118.5 2.1 3-1.5 2.2-.3 2.3.3 2.4 1 2.5 1.5 4.5 4.7 3.4 6 1.3 3.2v.4l.7 2.7.1 2.3v1l-.2 2.7-.6 2.5-1.2 2-.7.7L137 30l.3-.9.3-1.4.3-2.8-.1-1.4-.2-1.7-1.8-6.5-3.5-6-2.1-2.5-1.5-1.3-.9-.7-.2-.2-2.2-1.4-2.5-1h-.4l-1.9-.4zM44.8 126.2l.2 1.4-.2 1-.3 1-.5.9-.5.5-2.5 1.3.5-.5.5-.9.4-1v-2.4l-.4-1.3-.5-1.2-1.3-2.5-1.8-1.8-1-.7-1-.3-.9-.2-1 .2 2.5-1.4h2l1 .5 1.9 1.4v.1l.9 1 1.4 2.3.5 1.9.1.2zm-7.4 6.1-.3 1-.5.9-.6.5-2.5 1.3.6-.5.5-.9.4-1v-1l-.1-1.5-.7-2.4-.7-1.3-1.6-2.2-1-.9-1.8-.9-1-.2-1 .2 2.5-1.3 1-.1.9.1.9.3v.1h.1l.4.3.6.3 1.8 1.8.7 1.2 1.1 2.6.3 1.2.1 1.7zm-17.1-60-.4 1-.4.6v.2l-.7.6-2.4 1.3.6-.7.4-.7.3-1 .2-1.2-.5-2.6-.4-1.2-.6-1.3-1.7-2.2-1-.8-1.9-1-1-.1-.9.1 2.6-1.3.8-.1 1 .1.1.1.2.1.7.3.9.5 1 .9.4.5 1.2 1.6.6 1.3.9 2.5zM12.8 76l-.3 1.2-.5.8-.6.6L9 79.8l.7-.7.4-.7.3-1V75l-.3-1.4L9 71.1 8.2 70l-1.8-1.9-1.9-1-1-.1-.9.1L5 65.8l1-.1.9.1 1 .5.5.2 1.3 1.2 1.8 2.1 1 2.6.3 1.3zm18.5-53.4-.7.5-2.4 1.3.6-.6.4-.8.3-1 .1-1.1-.1-1.3-.7-2.6-.6-1.3-1.6-2-1-.9-1-.7-1-.4-.9-.1-.9.1 2.5-1.2.8-.2 1 .2 1 .4 1 .5.1.1v.2l.9.6 1.5 2.2 1.1 2.5.3 1.4.1 1.3v1l-.4 1.1zm-6.7 1.8-.3 1.1-.4.8-.6.6-2.6 1.3.7-.6.5-.8.3-1v-2.4l-.8-2.6-1.4-2.4-1.8-1.8-1-.7-1-.4h-1.8l-.8.4 3.3-1.6h.3l.6-.2.8.2 1 .4.5.3.5.3 1.9 1.8 1.4 2.4.4 1.4.4 2.4zm97.6-5.8v.2zm-18 25.4-.2.4-.2-.2z"/><path fill="#7c6035" d="m140.1 17.4 3.6 3.9-2.8 1.1-.2-2.3zm40.3 67.3v5.7l-7.1 10-.4-11.8 6.8-3.6zM39.3 72.4h.1l3.8 2.8-2.6 3 8.3 1.2 5.3 3.7v.1L47 85.8l-12.6-9.1zm14-24 1.9 4.1-4.7 3-1.7-4zm69.4-29.8 2.5-1.3 9.9 10.7-3.8.9-7.6-8.1-.7-.9-.6-1zm-5 18.3 3.8-1.9 1 .4.7.4.5.5.3.6.1.5-.2.6-.2.4-.5.5-.8.5-1.9.7-1.8.1h-.5.5l1.8-.1 1.9-.7.8-.5.5-.5.3-.4.1-.6v1.7l-.2.5-.2.5-.5.5-.8.5-1.9.6-.7.1h-1.6v-1.7h-.8l-1.7-.4-1-.4-.5-.4-.5-.5-.3-.4v-.5l1.3.3 1.7-.3zM49 123.7l-2.9 2.1-1 .5z"/><path fill="#ab976b" d="M143.7 21.3 172 52l-1.2.7 2.7-1.4 2.6-1.3 4 4.7-2.9.4-1.9 1.3-.2.4q-1.1 1.2-.7 2.5.2.7 1 1.1 1.6 1.1 2.1 2.7h.3l5.8-.7-2.1 1.4q-3.3 2.1-9.2 4.7l-5.8 2.3-9.6-11 2-1-27.7-29.9 3.9-.9 1.8 2 1.2 1.3L162 57.2l.3-.2.5-.3 6.1-3-28-30.3-.1-1zM187.6 66v1l-1.7-.4zM185 82.3l-4 2-1.3.7-6.9 3.6-4.5 2.2V77.1l.7-.9q2.6-3.7 5.8-5.1 4.4-2.1 10.4-4.3l-1.4 1.3q-.4-1.3-1.6.6l-.6.7-.6 4.4 4 4.3.5.8-.7 3.2zm-4.7 8.1v38.2l-7.5 3.9v-1.6h1.3l1.4-1q1.2-1.2 1.2-2.8l-.2-.5-.3-1.2 3.5 1q-2.7-1.9-3-1.8l-2-23.3-1-.4-.5-.2v-.4zM14.4 62l6.2-3.2 18.8 13.6-4.9 4.3-15.3-11.2-1.6-1.1-.4-.5-1-.9-.9-.5-.7-.3zm28.9 13.2 5.8 4.2-8.5-1.3zm-3.4-57.4.5 1.1h-.1zm15.4 34.7 9 20.4-4.6 2.4-2.8-5.6-6.3-14.3zm37.3-31.9 4.5-2.2.2-.1 1.5-.3 1.8.3 1 .4.8.3.8.6 1 .5 1.8 1.6 2.9 4L110 28l.8 2.4.8 4.6-.1.8-.1 1-.6 2.1-.8 1.5-1.2 1.1-4.6 2.4 1.2-1.1.8-1.5.5-1.9.3-2-.7-4.7-2.1-4.7-3-3.9-1.7-1.6-1.7-1-1.8-.9-1.7-.2zm13.5-7 4.7-2.3 1.6-.2h.5l1.3.2 1.7.7 1.8 1.2 3.3 3.4 1.3 2 .2.1v.1l.6 1.1.5 1.1 1.4 4.8.1 2.2-.2 2.3-.2.8-.3.8-.9 1.5-.9 1-1 .6-3.7 1.9 1.1-1.1.8-1.5.6-1.8v-4.4l-1.4-4.8-2.5-4.4-3.3-3.4-1.9-1.1-1.7-.7-1.8-.3zm56 43.6-3.1 1.6zm13.8 21-1.2 1 .7-.2q-2 2.3-2.6 5.3l.7 1q3.6.2 6.8-1.5l2-1.4.7-.6.3-2.2-2.2-1.8-2.2-1.4q-2-.2-3 1.7m-5-25.4-1.9 1z"/><path fill="#a9925c" d="m180.3 54.7 6.6 7.7h-3.2l-5.7.7h-.4q-.5-1.6-2.2-2.7-.7-.4-1-1.1-.3-1.3.8-2.5l.2-.4 1.9-1.3zm7.3 12.3-.1 14-2.4 1.3-.2-.2.7-3.2-.5-.8-4-4.3.7-4.4.5-.7q1.2-1.9 1.6-.6l1.4-1.3.3-.2h.3zm-82.4 9.7h.3l-.2.2zm70.7 1.4q1-1.9 3-1.7l2.2 1.4 2.3 1.8-.4 2.2-.7.6-2 1.4q-3.2 1.7-6.8 1.5l-.7-1q.6-3 2.6-5.3l-.7.2zm-3 54.3 7.5-3.9v-2.4l2.1 1 2.8 1.4-8.9 4.6-.3.1-3.3 1.7-11.7-6 4.7-2.5v2.3zm10 6v.3q0 .7.9 1.2.1 2.7.7 4.3l-2.2-1.7-1.6-3.9-2.4-2.2 4.1-4.2q0 4.3.2 5.6l.1.4z"/><path fill="#b4a07a" d="m186.9 62.4.7.8V66l-1.7.6h-.3l-.3.2q-6 2.2-10.5 4.3-3.1 1.4-5.7 5.1l-.7 1v-4.3l-1.8-2 5.8-2.4q5.8-2.6 9.2-4.7l2.1-1.4z"/><path fill="#807d71" d="m180.5 95.3 3.3 3.1 3.9 6.8 1.4 7.1-1.4 7-4.1 6.8-1.1 1.1-2-1zm-84.7 60.4-3.9-.7-.9-.2.1-1.3.8-7.8-4.2-1.2-7.9-2.2 2-4.5 1 .5.1.1.5.1h.1l.3-.1h.1l.3-.2.2-.1 14.2-7.3.2.1 3.5 1.5 1.1.5 3 .8 3.3.8.1.1 1.4.8 3.6 1.3h.3v6.7l.2.7.8 1 .5.3v.1l1.4.5h1.5l1.3-.5.5-.4.8-1 .3-.6v-6.8l2.3-.6 1.7-.7 1.4-.9.2-.2 1.3-.2 4.8-1.1 4.3-1.8.5-.4 14.4 7.5.4.2h1.1l1-.6.9-.9.6-1 .4-1.2.2-1-.1-.5v-.1l-.2-.7-.2-.3-.3-.2-.1-.1-.3-.2h-.2l-11.6-6 1.1-1.9.5-2.6 19.3 1v4.3l-4.7 2.5v2.2l9.7 5.1-2.4 1.5-1.7.7-4.6 2-4.4 1.9-2.7.7-7.6 2.1-1.8.5-4 .6-5.8-8.5 1.3 9.2-4.7.7-6.6.3-7.5.4-8.4-.4h-1l-3.5-.3h-.4l-8.3-1.2.1 2.5q0 3.6-1 6.7m60.5-73.9 1.6.4 1.2.5V86l.6.3 5.5 2.8.3.2.3.2v6.1l-19.4-.9v-2.3l-.3-1.5-.2-1.3-1.2-1.9 2.3-1 .2-.2zm-1.9 20.4 11.4.5v12.1l-8.1-.4v-.5l-.2-.6-.2-.3-.4-.2-.3-.2h-.1l-.3-.2-.3-.1-10.6-5.5zm-55 37.9 7-6.4zM85 118.4l6.3.3v2.3l.5 2.8 1 1.8-11.7 6.1-.3.1h-.2l-.5.6v.1l-.2 1.2v.7q-8.3-3.9-18.8-4.1v.1l-1.1.2-1 .3-.2-.3 5.5-6.7 3.5-.9-3.5 1 5.6-6.3 11.9.5.2.3.2.2.3.1.5.2.5.1.4-.1.5-.3h.3zm7 22.4 10.3-8.4z"/><path fill="#3c3a33" d="M189 112.3v9.4l-1.3 7.1-2.4 4.1v-4.3l-2.8-1.4 1.1-1.1 4-6.8zM164.2 149l-6.5 2.8-12.1 3.3-4 .6-4.4-6.4v7.1l-4.8.7-14.1.7-9.5-.4v-9.5l1.1.1 8.4.4 7.5-.4 6.5-.3 4.8-.7-1.3-9.2 5.8 8.5 4-.6 1.8-.5 7.5-2 2.8-.8 4.4-1.9 4.7-2 1.6-.7 2.4-1.5.2.1v9.3l-2.6 1.6-1.7.7zm-73.8 5.6-10.6-2.9-10.6-4.5-8.7-5.5-6.5-6.2-4-6.9-.5-2.2-.5-2.6v-.1l-.4-2.1v-9.4l.9 4.6.5 2.4 4 6.8 4.7 4.6.3.3 1.5 1.4 8.7 5.5 10.6 4.5 7.9 2.2 4.2 1.2-.8 7.8zm31.8-31.6.1-5.6v-1.7h1.9l9.9-2.1 4.2-1.8.6-.4 3.9 2q-1 4.4-6.9 7.6-5.9 3.3-13.9 3.8l.3-.6zm24.1-21.2 8 .4-9 4.6-.7-.3 1.2-2zm-31 23q-7.7-.6-13.5-3.8-6-3.3-6.8-7.8l3.6-1.8.1.1 4.7 2 4.8 1.3 5 .9h1.9v8.4zm21.8 24.5V147zm4.4 6.4v-9.4z"/><path fill="#685b37" d="M185.3 132.9v14.2l-12.5 6.4V135l3.3-1.7.3-.1 8.8-4.6zm-26.1-50.2v-.9q1.5.3 3.8-1.8l2.7 1.8 2.8 8.5-4-3h-2.2L160 86l-.3.2-.6-.3zm7.2-6.3-2.8-3.9-5.2-5.7q5.3.6 5.8 1.7l.7 1.6.4 1.2.3.6q1 2.2.8 4.5m16.5 62.1-.1-.2-.1-.4q-.2-1.3-.2-5.6l-4.2 4.2 2.6 2.2 1.5 4 2.2 1.6q-.6-1.6-.7-4.3-.9-.5-1-1.2zm-6.6 11.8.1.2v-.3zm-.7-9.7h-.2z"/><path fill="#858d92" d="m172.8 153.5-.4-.2.4-.3z"/><path fill="#3c2622" d="m172.4 153.3-8.2-4.3 2.5-1 4.3 2.2v-13.8h-.2l-9.7-5.2V129l11.7 6v16.7zM33.5 136.1l-.6.4-1 .1-1-.2-.9-.3-1-.6-.9-.8-.9-1-1.4-2.5-.4-1.3-.4-2.5.1-1.2.3-1 .4-.8.6-.6.8-.3.9-.2 1 .2 1.8 1 1 .8 1.6 2.2.6 1.3.8 2.4.1 1.4v1.1l-.4 1-.5.9zm21.3-38.6L20.3 72.2v-2.4l-.9-2.5-.6-1.3.4-.5 15.3 11.2L47 85.8l11.4 8.3zM8.9 79.8l-.7.3-1 .2-.8-.2-1-.4-1.8-1.3-1.8-2.3-.7-1.3-.7-2.6L.3 71l.1-1.2.4-1 .3-.7.7-.6.7-.4.9-.1 1 .1 1.9 1L8.1 70l.8 1.1 1.1 2.5.3 1.4v2.4l-.3 1-.4.7zm51.2 7.5L31.2 22.5l.4-.8.3-1.1.1-1v-1.4l-.4-1.3-1-2.5-1.6-2.2-.9-.6 2.5-.8 18.2 40.7 1.7 4 6.3 14.2 2.8 5.6 5.8 13.6-.2.2-3.4 2.1zM20.8 28.1l-.6.4-1 .1-.9-.1-1-.4-1-.6-.7-.7-1.9-2.4-.6-1.2-.7-2.6-.2-1 .2-1.4.3-1 .4-.8.6-.6.8-.4h1.7l1.1.4 1 .7 1.8 1.8 1.4 2.4.8 2.6v2.4l-.3 1-.5.8zm80.6 16.7-1.8-.3-1.7-.7-1.8-1.2-1.7-1.5-1.6-1.9-2.5-4.3-1.5-4.8-.1-2.3.2-2 .5-1.9.9-1.5 1-1.1 1.3-.7 1.8-.2 1.7.2 1.8.8 1.7 1.1 1.8 1.6 2.9 4 2 4.6.8 4.6-.2 2.1-.5 1.9-.9 1.5-1.2 1.1-.4.2-1 .5zm23.4-13.6.2-.8.2-2.3-.1-2.2-1.5-4.8.3-.2 7.5 8.1L159 58.8l-2 1-2 4.2-18.6-20-1.2-1.4zm14.2-.5 1.2-2 .7-2.5.1-2.7 28 30.2-6 3zm26.9 65v-6.1l.3.2.3.1 2 1 4.5-2.2.4 11.7v.4L173 131v1.6l-7.1-3.7V95.6"/><path fill="#545349" d="m108.9 157.4-3.9-.3-9.2-1.4q1-3.1 1-6.7l-.1-2.6 8.3 1.3h.4l3.4.3zM91.6 79l13.6-2.3.1.2-7.3 5.4zm-6.5 24-4.7-2.5h-.1l-.2-.5-.2-.6v-.6l11.3.5v2.4l.6 2.8 1.1 1.9-.7.3zm68.8 16.2h.9l1-.5.9-1 .6-.9.4-1.2.1-1v-.1l8.1.4v7.3l-19.3-.9-.4 2.6h-.1l-1.1 1.9 11.6 6h.2l.3.2.1.1.3.1v.1l.2.3.2.7v1.6l-.5 1.2-.6 1-.9 1-1 .4v.1h-1.1l-.3-.2h-.1l-14.4-7.5-.5.4-4.3 1.8-4.7 1.1-1.4.2-.2.2-1.4 1-1.7.6-2.2.6v6.2l-.1.5v.1l-.2.6h-.1l-.7 1-.6.3v.1l-1.3.5H118l-1.4-.5v-.1l-.4-.3h-.1l-.8-1-.2-.7v-6.7h-.2l-3.7-1.2-1.4-.9v-.1l-3.5-.8-2.8-.8h-.1l-1.1-.5-3.5-1.5-.2-.1-14.2 7.3-.2.1-.3.1v.1l-.4.1-.6-.1-1-.6h-.1l-.9-.9-.7-1.2-.2-.7-.2-.6v-.6l.2-1.3v-.1l.5-.6h.2l.3-.1 11.8-6.1-1.1-1.8-.5-2.8v-2.3l-6.2-.3 10.1-5.2q.8 4.5 6.9 7.8 5.7 3.2 13.4 3.8l.8 1 .5.3 1.3.5h1.4l1.3-.5.5-.4.8-.9q8-.5 13.9-3.8t6.9-7.6l.6.4 10 5.1.3.2m-45 8-6.4 5.3zM81 112.5l-.3.1-.7.6-.2 1.3.3 1.2.2.7.7 1.2.7.6-11.9-.5h-2.4l-.1-.1-.1-.1v-5.1l.3-1.9v-.1h.3l8.9.3 7.1.3-2.5 1.3zm29.8 17-4.5 4.2z"/><path fill="#005b45" d="m91 154.8-.6-.2.7-1.1z"/><path fill="#b0b8be" d="m49.5 126.5-4.4.4-.3-.7v-.5l.4.7 1-.5 2.8-2zm52-107.6h.8v.2z"/><path fill="#000003" d="m41 132.3-.7.3-1 .2-.9-.2-1-.3.1-.6 2.4-1.2.4-.4.4-.6.3-1.4-.1-1-.2-.9-.9-1.8-.4-.8-1.3-1.2-.7-.5-.7-.3h-1.2l-.5.3-2.1 1-.4-.3h-.1l.4-1.2.5-.8.5-.6.7-.3 1-.2.9.2 1 .3 1 .7 1.8 1.8 1.3 2.5.5 1.2.4 1.3v2.4l-.4 1-.5.9zM16.4 76l-.7.3-1 .2-1-.2-1-.4.2-.6 2.3-1.2.5-.3.3-.7.3-1.2-.1-1.1-.5-1.9-.4-.8-.6-.9-1.2-1.2-.7-.4-.9-.4h-.4l-.7.1-.5.2-2 1-.4-.2v-.1l.3-1.2.4-.7.7-.7.6-.3 1-.1.9.1 1.9 1 1 .8 1.7 2.2.6 1.3.4 1.2.5 2.6-.2 1.1-.3 1.1-.4.7zm11.8-51.7-.7.3-1 .2-.9-.2-1-.4v-.5h.1l2.4-1.2.4-.5.4-.5.2-.7v-1.7l-.6-1.8-.4-.9-.6-.8-1.2-1.3-.7-.4-1.2-.4h-.5l-.7.3-2 1.1-.6-.3.3-1.2.6-.8.6-.6.7-.4.9-.1.9.1 1 .4 1 .7 1 .8 1.6 2.1.6 1.3.7 2.6.1 1.3-.1 1.1-.2 1-.5.8zm85.3 37V52h3.4l5.4-.1 1.9-.4v40.9l.1 1-2.6.3V58.5q-3.2 1.7-8.2 2.8m-11.2-42.5.5-1.8.9-1.6 1.1-1 1.3-.8 1.7-.2 1.8.3 1.7.7 1.9 1.1 3.3 3.4 2.5 4.4 1.4 4.8v4.4l-.6 1.8-.8 1.5-1.2 1.1-1.3.6-1.7.3-1.3-.3h-.3l-1.8-.7v-1l4.5-2.4.8-.7.6-1 .4-1.3.1-1.5-.5-3.3-.5-1.6-.9-1.6-2-2.7-1.3-1.2-1.3-.7-1.1-.5-1.2-.3-1.2.2-4.7 2.4-.8-.6zm19.4 38.6v1.1z"/><path fill="#630" d="m123.6 21-.5-1 .8.8zm-106 43.4 1.6 1.1-.4.5z"/><path fill="url(#b)" d="m20.4-189 1.4-7 .4-.7q9.4-1.6 19.8-6.1l9.6.5v.6l.2.5.3.5 4.7 2.5-8.3 7.8-9-.4h-.2v.2l-.3 1.8-.1 4.8v.3l.1.1.1.1 2.5.1-5.6 6.2-1.9.4 1.9-.4-5.6 6.7-4.7-4.6-4-6.8-.5-2.4z" transform="translate(28.25 301.15)"/><path fill="#67655a" d="m50.5 104.4 3.5-6.1.8-.8 3.6-3.4 2.1-2 1.4-.9 3.4-2.1.2-.1 4.6-3 .1.2.9-.4 8.9-3.6 1.5-.5 9.8 5.1-1 .6L83 92l-15.2-.7h-.2l-.3 2V98l.1.1 2.8.1q-10.4 4.5-19.7 6.1m34.6-1.5 7.2 3.8-8.5 4.3-7.1-.3zm41.6-24.1 7-1.8 12.7 2-7.3 3.7-.7-.4-8.9-3zM80 134.3l.2.6.2.7.7 1.3.9.8-2 4.5-10.6-4.5-8.7-5.5-1.5-1.4.9-.3 1-.2v-.1q10.6.2 19 4.1"/><path fill="#957440" d="m28.2 11.2 3.4-1.7 4-1.3-4.8 2.4-2.4.9-.1-.2zm90.2 30.4-1.4-.1-2-.7-.6-.4-.5-.5-.3-.5v-2.1.5l.3.4.5.5.5.4 1 .5 1.7.3h.8zm-73.5 83.8-.1-.2z"/><path fill="#3e3520" d="m54.3 83.2 5.8 4.1 1.8 4-1.4.8-2.1 2L47 85.8zm-18.7-75 4.3 9.6.4 1.1 13.1 29.5-4.5 3.1-18.2-40.7zM64.4 73l5.8 13H70l-4.6 3-5.8-13.7zm49.2-.7v-11q5-1 8.2-2.8v35.2l2.6-.3 21.8-2.5.3 1.5-.5 2.7-1.7 2.7-2.5 2.5-3.4 2.1-9 3.1-10.5 1-3.1-.1-7.5-.9-4.7-1.4-4.2-1.7-3.4-2.2-2.6-2.5-1.5-2.7-.5-2.6v-.2l.5-2.6 1.2-1.9.3-.8 3.3-2.9 2.1-1.3.6-.4 4.2-1.8 4.8-1.3 5.2-.8V93l.3.5 1 .8 2.1.7 1.4.1V94q-.1-5.9-1.5-11.8l-1.2-4.2-1-2.9zm0-20.6-4.7-1.1-2.7-1.1L104 48l-1.7-1.7-1-1.5 1.5-.2 1-.5.2.1.2-.3 4.6-2.4 1.2-1 .8-1.6.6-2.1 1.8.7h.3v2.1l.3.5.5.5.5.4 2.1.7 1.4.1h1.5l.8-.1 1.9-.6.8-.5.5-.5.3-.5.1-.5v-1.7l-.2-.5-.2-.6-.5-.5-.7-.4-1-.4 1-.6 1-1 .8-1.5.3-.8 10.5 11.5-1.5 1.6-2.2 1.4-2.8 1.2-3.1.8-6.8.7-3.5-.2-6.5-1.3-1.5-.7 1.5.7 6.5 1.3 3.5.2 6.8-.7 3.1-.8 2.8-1.2 2.2-1.4 1.6-1.6 1.1 1.3-.1.7-1 1.7-1.7 1.7-2.2 1.4-5.8 2-1.4.1-1.9.4h-5.8zm-10.4-32 4.7-2.4 1.2-.2 1.2.3 1.1.4 1.3.8 1.3 1.2 2 2.7.8 1.6.6 1.6.5 3.3-.1 1.5-.4 1.3-.5 1-.9.7-4.5 2.4.1-.8-.7-4.6-.8-2.4-1.2-2.2-3-4.1-1.7-1.6zm3 26-2.1-1.4zm18.1 32.8 2.3.4 2.9.4 9 3.1.6.4 7.3-3.7 7.5-3.9.5-.1.5.1.4.2 1 .7.9 1.1.6 1.3.1.8v1l-.2.5-.2.4-.3.3-.8.4-9.1 4.7-.2.1-2.2 1.1-.5-.7-20.1 2.8zm14.8 4.3 2.8 1.8 2.5 2.5-2.6-2.5zM35 122l.5-.3h1.2l.7.3.7.5 1.3 1.2.5.8.8 1.8.1.9.2 1-.4 1.4-.3.6-.4.4-2.4 1.2-.1-1.7-.3-1.2-1.1-2.6-.7-1.2-1.8-1.8-.6-.3zM24.8 23.6v-.4l-.4-2.4-.4-1.4-1.4-2.4-1.9-1.7-.5-.4 2-1 .8-.4h.5l1.3.4.6.4 1.3 1.3.5.8.4.9.6 1.8v1.7l-.2.7-.3.5-.6.5zM10.2 65.5l.5-.2.7-.2.4.1 1 .4.5.4 1.3 1.2.6.9.4.8.5 1.9.1 1.1-.3 1.2-.3.7-.4.3-2.5 1.2v-1.6l-.3-1.3-1-2.6-1.7-2.1-1.4-1.2z"/><path fill="#4e4329" d="m81.5 81.7-1.1-.6-.2-.5-.2-.5V79l.2-.6.5-1.3.7-.9L96.6 84l-3.2 2.9-.5.8-1.6-.9zm32-5.4v-4.2l1.1 2.8 1 2.9 1.2 4.2q1.4 5.9 1.5 11.8V95h-1.4l-2-.8-1.1-.8-.3-.5V76.4m-46.2 20 24.1 1.3-.2-2.9v-2.4l.6 2.6 1.5 2.7 2.6 2.5 3.4 2.2 4.2 1.7 4.8 1.4 7.4.9v3.1l1-.9.7-.2-.1 12.3.7-.2h1.4l1.3.5.5.4.8 1 .3.6v1.2l-.3.6-.7 1-.6.3-1.3.5H118l-1.3-.5-.5-.4-.8-.9-.2-.7v-8.4h-1.9l-5-.9-4.8-1.3-4.7-2v-.2l2.3-1.2.5-.3.2-.5.3-1v-.4l-.3-1-.2-.6-.4-.6-.9-1-1-.8-.7-.2H98l-.3.2-4.8 2.5-1.1-1.9-.5-2.8v-2.4l-11.4-.5-9.7-.5h-2.8v-.4h-.2zm69.8 8.6 16.9 8.7-.7.8-.5 1.3-.2 1.5.1.5.4.8.3.3-10-5.1-.6-.4-3.9-2-2.6-1.4-.2-.2-.3-.5-.4-.9.2-.8.3-1.2.4-.7.4-.5zm-21.9 6v4.7zM81 112.5h.9l1 .5.5.4.4.5.7 1.2.3 1.3.1.7v.5l-.2.5-.2.5-.2.1-.5.3-.3.1-.6-.1-1-.5-.2-.3-.7-.6-.7-1.2-.2-.7-.2-1.2.1-1.3.7-.6z"/><path fill="#000417" d="m81.4 76.1.5-.6.6-.3 1-.3.5.1 7.6 4 6.4 3.3.7.4-2.1 1.3zM67.3 96.4v-3.3l.3-1.9h.2l15.2.7 8.3.3v2.6l.1 2.9zm25 10.3.6-.3 4.8-2.5.3-.2h.6l.7.2 1 .8.9 1 .3.6.3.6.3 1v.3l-.3 1.1-.2.5-.5.3-2.3 1.2-.1.1-3.6 1.8-10.1 5.2-.5.2.2-.5.1-.5.1-.5v-.7l-.4-1.3-.7-1.2-.4-.5-.5-.4-1-.5h-.5v-.2l2.4-1.3zm32-13.3-.1-1v-2.6l20.1-2.8.4.7 1.2 2 .2 1.2zm22-1v2.3l19.4 1v7l-11.4-.5-8-.4-.5-.3v.3h.5l-.5 2.7-1.2 2 .7.3 10.4 5.5.3.2.4.1.4.2.4.2.1.3.3.6v.6l-.1 1-.4 1.2-.6 1-.9.9-1 .5h-.9l-.4-.2-.3-.3-.4-.8v-.5l.2-1.5.4-1.3.7-.8L137 105l.2-.3-.3.2-.2.3-.5.5-.4.7-.3 1.2-.2.8.3 1 .4.4.2.2 2.6 1.4-.6.4-4.2 1.8-9.9 2.1h-1.9v7.3l-.3-.6-.7-1-.6-.4-1.3-.5H118l-.7.2.1-12.3-.7.2-1 .9v-3.1l3.1.1 10.5-1 9-3.1 3.3-2 2.7-2.6 1.6-2.7zm-24 18.6v4.7zm17.6-7 4.8 2.5z"/><path fill="#9a988d" d="m105.5 76.7 8-.3v2l-5.2.8-4.8 1.3-4.2 1.8-.6.4-.7-.4 7.3-5.4zM91.3 92.2 83 92l7.3-4.5 1-.6 1.7.9-1.2 1.9zm32.9-15.8 8.4.4 1 .2-7 1.8-2.4-.4z"/><path fill="#75201c" d="M113.5 52v-.4l3 .3-2.2.1z"/><path fill="#92999e" d="m122.4 18.5.4.1-.3.2v-.1z"/><path fill="#5c1c00" d="m65.5 89-.2.1z"/><path fill="#937b15" d="M67.4 98.2v-.3h.1zm78.5 3.6v-.3l.5.3zm7.5 17.1.3.2zm3.5-6.1-.4-.2h-.3v-.2l.3.2h.1zm-19.9-7.9.3-.2zm-55.6 7.4-.4.1zm2.9 6.3.2-.1z"/><path fill="#007b66" d="m70.2 86.2-.1-.2z"/><path fill="#d76757" d="M114.3 52h2.6z"/><path fill="#a18f5a" d="M116.6 52h.3zm-84.1 70.5.1.1z"/><path fill="#af4930" d="m145.9 89.6.2 1.3z"/><path fill="#5f5132" d="m173.3 100.7.5.2 1 .4 2 23.3q.3-.1 3 1.8l-3.6-1 .4 1.2.2.5q0 1.6-1.2 2.7l-1.4 1.1H173zm-2.3 45v4.5q-2.2-1-4.3-2.2l1.7-.7z"/><path fill="#b1941a" d="M82.4 118.8h-.3l-.2-.3z"/><path fill="#b53c2b" d="m156.2 112.5-.3-.2z"/><path fill="#9c9" d="M172.8 151.7v1.3l-.4.3z"/><path fill="#b6bdc2" d="m176.2 150.5.1-.2v.3z"/><path fill="#00a1bd" d="M175.5 140.7h-.2z"/><path fill="#004b52" d="m81.9 118.5 1 .5-.5-.2z"/><path fill="none" stroke="#000" stroke-linecap="round" stroke-linejoin="round" stroke-opacity=".3" stroke-width="__RESOLUTION__" d="m113 11.1.1-2 .7-2.5 1.2-2 1.5-1.6 2-.9 3-1.5 2.2-.3 2.3.3 2.4 1 2.5 1.5 4.5 4.7 3.4 6 1.3 3.2v.4l3.6 3.9L172 52l1.5-.7 2.6-1.3 4 4.7 6.7 7.7.7.8V67l-.1 14-2.4 1.3-4 2-.7.4v10.6l3.3 3.1 4 6.8 1.4 7.1v9.4l-1.4 7.1-2.4 4.1v14.2l-12.5 6.4-.4-.2-8.2-4.3-6.5 2.8-12.1 3.3-4 .6m-4.4.7-4.8.7-14.1.7-9.5-.4-3.8-.3-9.2-1.4-3.9-.7-.9-.2-.6-.2-10.6-2.9-10.6-4.5-8.7-5.5-6.5-6.2-4-6.9-.5-2.2-4.4.5-.3-.7.2 1.4-.2 1-.3 1-.5.9-.5.5-2.5 1.3-.7.3-1 .2-.9-.2-1-.3v.1l-.3 1-.5.9-.6.5-2.5 1.3-.6.4-1 .1-1-.2-.9-.3-1-.6-.9-.8h0l-.9-1-1.4-2.5-.4-1.3-.4-2.5.1-1.2.3-1 .4-.8.6-.6.8-.3 2.4-1.3 1-.1.9.1.9.3.4-1 .5-.9.5-.6.7-.3 2.5-1.4H39l1 .5 1.9 1.4h0l6.8-4.7v-3.3l1.4-7 .5-.8 3.5-6.1.8-.8-34.5-25.3-.4 1-.4.7v.2l-.7.6-2.4 1.3-.7.3-1 .2-1-.2-1-.4-.2 1.2-.5.8-.6.6L9 79.8l-.7.3-1 .2-.8-.2-1-.4-1.8-1.3-1.8-2.3-.7-1.3-.7-2.6L.3 71l.1-1.2.4-1 .3-.7.7-.6.7-.4L5 65.8l1-.1.9.1 1 .5v-.1l.3-1.2.4-.7.7-.7.6-.3 2.6-1.3.8-.1 1 .1.1.1h0l6.2-3.3 18.8 13.6m.1 0 3.8 2.8 5.8 4.2 5.1 3.7.1.1 5.8 4.1-28.8-64.8-.7.5-2.4 1.3-.7.3-1 .2-.9-.2-1-.4-.3 1.2-.4.8-.6.6-2.6 1.3-.6.4-1 .1-.9-.1-1-.4-1-.6-.7-.7-1.9-2.4-.6-1.2-.7-2.6-.2-1 .2-1.4.3-1 .4-.8.6-.6 3.3-1.6h.3l.6-.2.8.2 1 .4.3-1.2.6-.8.6-.6.7-.4 2.5-1.2.8-.2 1 .2 1 .4 1 .5 3.4-1.7 4-1.3 4.4 9.5.5 1.1h-.1l13.1 29.5 1.9 4.1 9 20.4L70.2 86v.2l.9-.4 8.9-3.6 1.5-.5-1.1-.6-.2-.5-.2-.5V79l.2-.6.5-1.3.7-.9.5-.6.6-.3 1-.3.5.1 7.6 4 13.6-2.3h.3l8-.3V51.6l-4.7-1.1-2.7-1.1L104 48l-1.7-1.7-1-1.5-1.8-.3-1.7-.7-1.8-1.2-1.7-1.5-1.6-1.9-2.5-4.3-1.5-4.8-.1-2.3.2-2 .5-1.9.9-1.5 1-1.1 1.3-.7 4.5-2.2.2-.1 1.5-.3 1.8.3 1 .4.8.1.5-1.8.9-1.6 1.1-1 1.3-.8 4.7-2.3 1.6-.2h.5l1.3.2 1.7.7 1.8 1.2 3.3 3.4 1.3 2h.5l2.5-1.3 9.9 10.7 1.8 2 .3-.9m-14.8-27-1.9-.3-2.1.3M106 13.6l1.7-.2 1.8.3 1.7.7 1.9 1.1 3.3 3.4 2.5 4.4 1.4 4.8v4.4l-.6 1.8-.8 1.5-1.2 1.1 3.8-1.9 1-.6 1-1 .8-1.5.3-.8.2-.8.2-2.3-.1-2.2-1.5-4.8-.4-1-.6-1.2v-.1l-.2-.2m-18 25.5 1.2-1.1.8-1.5.5-1.9.3-2-.7-4.7-2.1-4.7-3-3.9-1.7-1.6-1.7-1-1.8-.9-1.7-.2-1.7.2m10.5-1 1 .5 1.8 1.6 2.9 4L110 28l.8 2.4.8 4.6-.1.8-.1 1 1.8.7h.3l1.3.3 1.7-.3 1.3-.6M102.4 19v-.2m-.7 0 .7.2.8.6m8.3 17.2-.6 2.1-.8 1.5-1.2 1.1-4.6 2.4-.4.2.2.1 2.1 1.4m1.3.5 1.4.7 6.5 1.3 3.5.2 6.8-.7 3.1-.8 2.8-1.2 2.2-1.4 1.6-1.6-10.6-11.5m-23.4 13.7 1.5-.2 1-.5M28.3 11.6l.8.6 1.5 2.2 1.1 2.5.3 1.4.1 1.3v1l-.4 1.1-.4.8m-.6-11.7-2.4.8-.1-.2h-.1m2.6-.7 4.8-2.4m-13.7 3.3.9-.1.9.1 1 .4 1 .7 1 .8 1.6 2.1.6 1.3.7 2.6.1 1.3-.1 1.1-.2 1-.5.8-.6.6m12.1-5.4-.4-1.1m9 33.7 1.7 4 6.3 14.2m-8-18.2L30.7 10.8m3.8 65.9L47 85.8l11.4 8.3 2.1-2 1.4-.9-1.9-3.9m-1.6 6.8-3.6 3.4M83 92l-15.2-.7h-.2l-.3 2V98l.1.1 2.8.1 9.7.5 11.3.5v2.4l.6 2.8 1.1 1.9-.7.3-8.4 4.3-2.5 1.3-.3.2h.9m9.3-17.7v-2.6L83 92m8.3-5-9.8-5.2m17.2 1 .6-.4 4.2-1.8 4.8-1.3 5.2-.8v-2M98 82.3 91.6 79m5 5 2.1-1.3-.7-.4m-5 5.4-1.7-.9m5.3-2.8-3.2 2.9-.5.8-1.1 1.9-.5 2.6m24.4 14.2-7.5-.9-4.7-1.4-4.2-1.7-3.4-2.2-2.6-2.5-1.5-2.7-.5-2.6m79.6-39.7 1.2-.7m-31.2-28.6-.2 2.7-.6 2.5-1.2 2 24 26.1m-22-33.3v-1l-.2-2.3-.6-2.7m-17.6 1.4.3-.2m1 2.1-.7-.8m-4.8 20.2.5.1 1.8-.1 1.9-.7.8-.5.5-.5.3-.4.1-.6-.2-.5-.2-.6-.5-.5-.7-.4-1-.4m-8.1 4v-1.5.5l.3.4.5.5.5.4 1 .5 1.7.3h.8m5.9-2.7v1.7M113.5 52h3.4l5.4-.1 1.9-.4 1.4-.2 5.8-1.9 2.3-1.4 1.7-1.7.9-1.7.1-.7-1.2-1.3M116.7 52l.3.1m21.3-20.7L137 30m1.9.6-.7.7 23.9 25.9.3-.2m-31-28.1-7.6-8.1m35.2 38 3.1-1.6M133.6 77l-1-.2-8.4-.4v2l2.3.4 2.9.4 9 3.1.6.4 7.3-3.7zm12.7 2 7.5-3.9.5-.1.5.1.4.2 1 .7.9 1.1.6 1.3.1.8v1l-.2.5-.2.4-.3.3-.8.4 1.6.4 1.2.5v-7.9l-6-6.6 2-4.2-18.7-20m-12.2 45.8V78.4m20.1 8.6-2.6-2.5-2.7-1.8m-25.5-4.3v14m30.8-5.4.4.7 2.3-1m.2-.2 9.1-4.7m-11.6 6 1.2 1.8.2 1.3.3 1.5v2.3l19.4 1v-6.2l-.3-.2-.3-.2-5.5-2.8-.6-.3v-3.3m-12.7 9.7-.5 2.7-1.7 2.7-2.5 2.5-3.4 2.1-9 3.1-10.5 1-3.1-.1m30.7-4.6 8 .4 11.4.5v-7m-19.4 6.1h-.5m22.5-11 4.5-2.2 6.8-3.6.8-.3M155 64l1.9-4.2 2-1m9.4 32-2-1-.2-.1-.4-.2m7.5 11.2v-.4l-.4-11.7m0 42.3v1.6m7.5-3.9V95.3m-56.2-18.9V51.5m44.8 2.2 2-1m18 59.6-1.3 7-4.1 6.8-1.1 1.1 2.8 1.4v4.3m-2.8-5.7-2-1m-27.4-7.6.3.3h0l.3.2h1l1-.5.9-1 .6-.9.4-1.2.1-1v-.6l-.2-.6-.2-.3-.4-.2-.4-.2h-.3l-.3-.3-10.6-5.5-.6-.3-4.8-2.6m16.3 8.5.3.2h.1l.3.1v.1m-1-.5.3.1m9.6 9.7v6.7m0-14v-12M161 129v2.2l9.7 5.1.2.1v13.8q-2.2-1-4.3-2.2l-2.5 1m2.6-10.5 1.6-.7 2.4-1.5m-15.9 6.8 2.8-.7 4.4-1.9m8.9 5.2-2.6 1.6-1.7.7m6.1-13 3.3-1.7m.3-.1 8.8-4.6m-12.4 6.4v18.5M161.1 129l11.7 6m-7-8.5-4.7 2.5m-16.4-22.5 1.2-2 .5-2.7M125.8 148l6.5-.3 4.8-.7m4.5-.7 4-.6 1.8-.5m6-26.2-10-5.2M93 106.4l4.8-2.5M81 112.5l-.3.1-.7.6-.2 1.3.3 1.2.2.7.7 1.2.7.6.2.3.5.3.5.2.5.1.4-.1m-4 23.3 7.9 2.2M59 130.9l1.5 1.4 8.7 5.5 10.6 4.5m25.6 5.4 3.4.3h1.1m-51.2-17.4L54 126l-4-6.8-.5-2.4m-.5 7 .5 2.6m-3.4-.6-1 .5-.3-.8v.6m4.2-2.5-.4-2.1v-6.1M35 121.9l-2.1 1 .6.3 1.8 1.8.7 1.2 1.1 2.6.3 1.2.1 1.7 2.4-1.2m-5.4-10.8 1-.2.9.2 1 .3 1 .7 1.8 1.8 1.3 2.5.5 1.2.4 1.3v2.4l-.4 1-.5.9-.5.5m-8.6-9.8.1.1.4.3m-.4-.3h-.1 0m-5.2.9.9-.2 1 .2 1.8 1 1 .8 1.6 2.2.6 1.3.8 2.4.1 1.4v1.1l-.4 1-.5.9-.6.5m8.4-15.8.8 1 1.4 2.3.5 1.9.2.1m-.1-.2v.2m-7.3 6.6.1-.6M59 131l-.3-.3m-13.6-4.2 3.9-2.7m124 7.2.3-30.2M20.2 15l.4.3 1.9 1.8 1.4 2.4.4 1.4.4 2.4v.5h0l2.4-1.2m-5-8.7-2 1.1-.5-.3m-6 1.2.8-.4h1.7l1.1.4 1 .7 1.8 1.8 1.4 2.4.8 2.6v2.4l-.3 1-.5.8-.7.6m4-3.9v-.5M10.2 65.5l-2 1 1.4 1.2 1.8 2.1 1 2.6.3 1.3v1.6l2.4-1.2M10 63.3l.9-.1.9.1 1.9 1 1 .8 1.7 2.2.6 1.3.4 1.2.5 2.6-.2 1.1-.3 1.1-.4.7-.6.7m-1.8-13.8h-.2m0-.2.2.2.7.3.9.5 1 .9.4.5 1.6 1.1 15.3 11.2m-32-9.6.9-.1 1 .1 1.9 1L8.1 70l.8 1.1 1.1 2.5.3 1.4v2.4l-.3 1-.4.7-.7.7m3.9-3.9v-.6m7.5-3v-2.5l-.9-2.5-.6-1.3-1.2-1.6m-9.2 2.1-.5-.2" vector-effect="non-scaling-stroke"/><path fill="none" stroke="#000" stroke-linecap="round" stroke-linejoin="round" stroke-opacity=".1" stroke-width="__RESOLUTION__" d="m141.6 155.7-4.4-6.4v7.1m-30.8-22.7-7 6.4m2.9-7.7 6.5-5.3m28.4 19.9-1.4-9.2 5.8 8.5v9.4m-4.4-8.7v2.3m-34.9-16.9-10.2 8.4m-27.8-16.9 3.4-.9m-3.5 1-1.9.4m44 9.3 4.5-4.2" vector-effect="non-scaling-stroke"/><path fill="none" stroke="#000" stroke-linecap="round" stroke-linejoin="round" stroke-opacity=".3" stroke-width="__RESOLUTION__" d="m70.2 86 .9-.2m66.7-62.3-.2-1.7m-5.2-12.5-2.2-2.5m-1.5-1.3-.9-.7-.2-.2M65.2 89.1l.2-.2-5.8-13.6M70.1 86l-4.6 3m56.2-30.5v-1m2.5 34.9v-2.6m22.7-3.2h.3m-24.9 30.8V111m-.3 13.8-.7 1-.6.3-1.3.5H118l-1.3-.5-.5-.4-.8-.9-.2-.7v-8.4h-1.9l-5-.9-4.8-1.3-4.7-2-.1-.1-3.6 1.8-10.1 5.2m51.3-8.4 2.6 1.4-.6.4-4.2 1.8-9.9 2.1h-1.9m0 8.5-.3.6m-6.8-9V111m-14.1-.9-2.3 1.2-.1.1m-14.4 7.3.2-.1.2-.5.1-.5" vector-effect="non-scaling-stroke"/></g><g id="h"><path fill="none" stroke="#262c31" stroke-linecap="round" stroke-linejoin="round" stroke-width="3" d="M5.3 13.8V19q1.5 0 2.6-1.1 1-1 1-2.6V5.2q0-1.6-1-2.7-1.1-1-2.7-1h0q-1.6 0-2.7 1-1 1.2-1 2.7v10.2q0 1.5 1 2.6 1 .9 2.2 1.1h.5m0 14.4V19.1"/><path fill="#f90" d="m4.7 15.8.1-.5q.1-.2.4-.2h.3l.3.4-.1.4-.4.3-.3-.1z"/></g><g id="g"><path fill="none" stroke="#fff" stroke-linecap="round" stroke-linejoin="round" stroke-opacity=".5" stroke-width="__RESOLUTION__" d="m88 57.2.4.2.3.5v.2q0 1.4-.7.3h-.2q-.9-.8-3-.9v.4q.9 2 2.6 3.7h.2q2-.9 3.8-.8v.1q0 1.1-3.1.9H88q.7 2 3.8 2.6h.3v-.3q1.5-1.1 3.3-.8l.3.3q.8.9-2.6 1h-.7q1.9 1.6 5.2 2.3h.4q1-1.7 3-2v.1q2.7.7-1 1.4l-.7.2q1.7 1.5 6.8.8l.1-.2q-.4-2.7 2.6-1.2h.2q-2.5.8-1 1.8h.3v-.1h2.9v.2l.3-.1q1.6-1-1-1.7l.1-.1q3.2-1.5 2.8 1.2l.1.2q5.3.7 7-.8l-.8-.2q-3.8-.7-1-1.4v-.1q2.1.3 3.2 2h.3q3.4-.7 5.4-2.2l-.7-.1q-3.6-.1-2.7-1l.3-.3q1.9-.3 3.5.8v.4l.3-.1q3.1-.7 3.9-2.6h-.3q-3.1.2-3.2-.8-7.5 2.5-14.6 3.1h-.3l-2.9.1h-.3v-.1H109l-.1.1-3-.1h-.4q-8-.6-11.3-3m16.3 3h-.3m.7.1-.4-.1m25.9-10.7-5.2 6.7-2 .7 3.4.8 1-.5 3.8-3.8-2 .4m.4-.5q.4-.5.3-1.5v-.5m-7.4 5.8.5-.2h-.5zm-44.9-6.3.7 2.5m7.7 2.8q-.2-1.9-7-6" vector-effect="non-scaling-stroke"/><path fill="none" stroke="#fff" stroke-linecap="round" stroke-linejoin="round" stroke-opacity=".6" stroke-width="1" d="M94.4 116V82.2l.6-3.4m0 37.9 4.1.4m31.3-2.6-.5-33.2-.6-2.5m8.2 0v32.5l-6.6 3m-25.4 3.7h9.6m-10.4 0 .1-39.2m10.7 38.7-.2-38.7m5.4 38.1 4-.6"/><path fill="none" stroke="#fff" stroke-linecap="round" stroke-linejoin="round" stroke-opacity=".6" stroke-width="__RESOLUTION__" d="m95 78.7 1.8-9.5m32.5 9.5-2.5-9m10.7 7.9v1.1m-32.7 0v-7.2m10.5 7.2V71m18.3-6.3 3.8 12.7" vector-effect="non-scaling-stroke"/><path fill="#000" fill-opacity=".5" d="m58.6 124.5 16.3 2.5-6.5 11.5-16.4-3.8zm94.2 12.8-8.9-7.2 12.7-3.6 10.6 6.8zm43.3-37 15.1 1-3.2 14.8-17.6-3zm-177 4.1 7.6 8.7-13.7 3-7.6-7.5z"/><path fill="#5c1c00" d="m69 21.7 5 1.4L69.3 43l-2.5-.5zm8 2 3.6.6v.1l-2.3 20.2-4.8-.9zM66.8 136l-.3.2-2.1-8.5.1-.2q3.2-15.5 7.7-31L68 132.2l-.1.2-.3 2.7zM50.6 4.9l.6.2 3.2-1.6q-3 12.3-6.8 24.3-4 12.5-8.2 21.9-4 8.7-8 14.7-2.3 3.3-4.1 7.8l8-23.5.5-1 6.6-19.1zm5.6-2.4L61.3 0l1.9.8-23.7 67q1.5-8.2 3.2-16.3 2.8-12.7 6.2-25.2 4-14.6 7.5-23.8M33.3 85.4 23.5 113l-5 1-1.1.2-1.5.2q3.8-14 8.2-26 4.5-12.2 9.6-22.5l.5-.2.4 4.2zm-22.5 25.3L0 110l8.2-1.4.6-1.7.9-.4q.5 0 1.1-.5l.7-.6.3-1.1 3.9-12-1.2 7 1.2-2.5-1.3 3.2-.1.2-.4 1.7-.6 1q-2.4 7-.6 7.4h.9zm27.5-88 7-20.7 1.4.7q-1.6 3.6-2.9 9.3l-3 14.2z"/><path fill="#a86422" d="m66.9 42.5 2.4.5-1.5 6.7-3.2 14-.5 2.8 2.2-18.1.2-2zM62.1 128q-1.1-1.6.1-9.2l-4 9.6q2-15.4 5.4-32.8L66.4 82l3-15.6 4.2-22.7 4.8.9-1.8 15.2-1.2 4.8-.9 4.6-2.3 11.9-1.4 7.6-4.7 20.2q-2 9-4 19M21.4 70.8l16.8-48 2.5 3.6-.5 2.4q-2.5 7.9-6.9 17.6l-3.5 7.3zm5.9 1.8-5.9 16.5q-3.2 9.3-5.7 16h-.2l-.7 2-.4.6v.4l-.4.9-.4 1.2h-.9q-1.8-.4.6-7.4l.6-1 .4-1.7.1-.2q3.3-5.7 5.8-10.8l3.2-6.9zm-15.4 31.8-.4 1.1-.7.7z"/><path fill="#421400" d="m69.4 43 4.5-20 3 .6-3.5 20zM46.6 2.8l4.1 2.1-8.2 23.7-1.7-2.4 3-14.1q1.4-5.7 2.9-9.3"/><path fill="#38201d" d="m80.6 24.3 3.5.5L81.8 45l-3.5-.4 2.3-20.2M18.5 114l-.7.1h-.4zm-2.8-8.6L14 109l.3-1.1.1-.4.3-.6z"/><path fill="#501902" d="m81.8 45-7.1 60.6v.2l-2.5 21.9-4.7 7.9v-.2l.1-.1.7-3.4-.2.3-.1-.1 4.2-35.6 4.3-36.7 1.8-15.2zM54.5 3.5l1.9-1q-3.4 9.2-7.5 23.8-3.4 12.5-6.2 25.2-1.7 8.1-3.2 16.3l-6.2 17.6 1.3-15.5-.4-4.2-.5.3q-5.1 10.2-9.6 22.5-4.4 11.9-8.3 25.9-2.7 0-2.9-.9v-.4l.1-.3q.2-.4 0-.4h-.2l.8-2.2h.6-.6l.4-1.2 1.6-3.6.1-.5 5.8-16 5.8-16.5v-.2q1.9-4.5 4.1-7.8 4.1-6 8-14.7 4.3-9.4 8.3-22 3.8-12 6.8-24.2"/><path fill="#ab976b" d="m67.6 135.5-.7.4.7-.9zm-54.7-21.9v.6l-.1-.8.1-.2zm-.2-.5v-.5l-2-1.7 2.9-.5-.7 2z"/><path fill="#8b541d" d="m64.4 127.6-.5.3H62q2-10 4-19l4.7-20.2 1.4-7.6 2.3-11.9.9-4.6 1.2-4.8-4.3 36.7q-4.5 15.4-7.7 30.9zm-6.3.8-2 5 8-66.9.5-2.7 3.2-14.1 1.5-6.7 4.2.7-4.2 22.7-3 15.6-2.6 13.6Q60.2 113 58 128.4M8.9 106.7l12.6-36 8.4-17.1 3.6-7.3q4.4-9.7 6.8-17.6l.5-2.4 1.8 2.3L36 47.7l-.4 1-8.1 23.5-.1.2-4 9.8-3.1 6.9q-2.5 5-5.8 10.8l1.3-3.2-1.2 2.5 1.2-7-3.8 12-1.1 1.8q-.6.4-1.1.4z"/><path fill="#92999e" d="m66.3 48.4-.5.9.5-2.6v-.1l.2-.2z"/><path fill="#7c6035" d="m12.6 113.5.2-.5.1-.6q.3 0 .1.4zm3.1-8.6-.1.5-.8 1.5.7-2z"/><path fill="#393939" d="M13.6 110.2h.6z"/><path fill="#000418" d="M68 132v.2l-.1.1z"/><path fill="none" stroke="#3c1406" stroke-linecap="round" stroke-linejoin="round" stroke-width="__RESOLUTION__" d="m69 21.7-2.2 20.8-.3 3.9-.2.2v.1m17.8-21.9L81.8 45l-7.1 60.6v.2l-2.5 21.9m-4.7 7.9v-.2l.1-.1v-.3l.3-2.7v-.2l4.3-35.6 4.3-36.7 1.8-15.2 2.3-20.2h0m-24.5 109 8-66.9 2.2-18.1.2-2M46.7 2.8l4 2.1.6.2 3.2-1.6 1.9-1L61.3 0l1.9.8-23.7 67-6.2 17.6-9.8 27.6m-10.6.5v.6m-.1-.8-.2.2.4-.7q.2-.4 0-.4h-.2l.8-2.2h0l.4-1.2.3-1.1.1-.4.3-.6.9-1.5.1-.5 5.8-16 5.8-16.5M8 108.5l.7-1.7 12.6-36.1 16.8-48L45.3 2l1.4.7m-4.2 25.8 8.3-23.7m-8.3 23.7-6.6 19.1-.4 1-8.1 23.5M12.9 113v.4m0-.4-.1.2" vector-effect="non-scaling-stroke"/><path fill="#38201d" d="m161.1 9.2.8-.4 9.9 5.1.6-.2 6.4 18.6.6 1.9 14.3 41.4-.1 1.2q0 3.3 1.4 11.8l2.3 12.4 2.3 11.5-3.6-.7q-.4-5.7-2-14.9l-1.4-7.4q-2.4-11.8-4.7-17l-15.2-35.9-1-2.4zm-23.7 36.9 3.4-.4 5.6 46.1 3.5 29.2 1.3 10.2-.5-.5.9 2.6.2.9q-1 .5-2.9-2.1l-1.4-1.8-3.2-25.8v-.2zm15.2 89.6-.2-.6zm24.7-103.4q-2-4.2-4.6-5.4l-.7 3q.7 2 2.6 5.6 2.8 5.3 4.3 6.1l.3-1.4q0-3.4-1.3-6.7zm26.3 71.3.3.9.3.6h-.2z"/><path fill="#5c1c00" d="m172.4 13.8 5.4-2.8 5.6 16.2-3.7 4-.4.6-.5.5zm32.1 75 2.8 8.2 1.5 6.6-1.7 10.3-.2-.8-2.8-8-.2-.6v-2q.5-7.2.4-14.3zm-63.7-43.1-2.3-19.1 5-.8 6.6-1.8 2.3 19.8-3.6.5-6.7 1.1zm18.6 87.4h-.2l2.5.8-6.3.3-.8.3-.1-1.3-1 .2 1-.9-1-19.4 3 11.9 1.6 4.4 1.4-1.3-.7-1.5.3-2.8-1.1-9.2 1.2 7.9.3-4.1v6.7l.7 5.3z"/><path fill="#a86422" d="m183.4 27.2 20.9 61q.1 7.1-.4 14.3l-4.2-15.6-1.8-7q-4-16.1-7-22.1-4.5-8.7-8.9-20.7l-2-5-.2-.9zm-25 67.5 4.5 37.4-3.5 1 .8-2.7-.7-5.3v-6.7l-.3 4-1.2-7.8 1 9.2-.2 2.8.7 1.5-1.4 1.3-1.6-4.5-3-11.8 1 19.4-1 .9 1-.2.1 1.3-2.2.6-.2-.4-1-3.5L150 121q2.6-6.4 2.6-11.1l-.2-5.4q-.7-13-5.1-28.9l-3.7-13.5Q142 55 142 50l.2-4.6 6.7-1 .3 6.2q1 18.3 2.8 23.4l5.7 18.3z"/><path fill="#007b66" d="m204.3 88.2.2.6z"/><path fill="#4d2c28" d="M206.9 113h-4.3l-3-.5-2.2-11.5q-1.5-7.2-2.4-12.4-1.4-8.5-1.4-11.8v-1.2l9.7 28 .5 1.6.3-.1zm-10.9-1.3-.5-.1L160 9.7l1.1-.5 10.6 25 1 2.4 15.2 35.9q2.3 5.2 4.7 17l1.4 7.4q1.6 9.2 2 14.8m-18.8-79.4.6 1.2q1.3 3.3 1.3 6.8l-.3 1.3q-1.5-.8-4.3-6.1-1.9-3.5-2.7-5.5l.8-3.1q2.7 1.2 4.6 5.4"/><path fill="#000418" d="M137.4 46 135 27l3.4-.4 2.3 19z"/><path fill="#834f1b" d="M152.4 43.8V45h.1l.3 2.1 5.6 47.6-.7-2.5L152 74q-1.7-5.1-2.8-23.4l-.3-6.3zm-11.5 1.9 1.3-.3-.1 4.6q0 5 1.7 12l3.6 13.6q4.3 16 5.1 28.9l.2 5.4q0 4.7-2.7 11.1l-3.5-29.1v-.1zm39-14.5.3.9 1.9 5q4.4 12 8.8 20.7 3.1 6 7.1 22.2l1.8 6.9 4.3 15.5-.2 2.1-.3-1-.2.1-9.7-28-14.2-41.4-.1-1.6v-.8z"/><path fill="#ab976b" d="M152.5 44.7v.4zm-.7 89.5-.2-1-.4-2 1 3.5zm27.6-100-.6-1.9.4-.5.1.8z"/><path fill="#92999e" d="m152.5 45 .1.3v.1l.6 2.6-.4-.9z"/><path fill="#7c6035" d="M203.3 103.6h.2l.3 1.6z"/><path fill="none" stroke="#3c1406" stroke-linecap="round" stroke-linejoin="round" stroke-width="__RESOLUTION__" d="m171.9 14 .5-.2 6.4 18.5.6 1.9 14.3 41.4 9.6 28 .5 1.6m-26-94.2 5.6 16.2 20.9 61 .2.6 2.8 8.2 1.5 6.6m-13.3 8L160 9.8m-21.5 16.9-3.4.5 2.3 19v.1l6.9 58v.3l3.2 25.8m-6.7-84.6-2.3-19.1 5-.8 6.6-1.8 2.3 19.8v.7m0 .2.1.4.1.1v.2m.2 1.7 5.6 47.6 4.5 37.4m-10.6 3 .2.6m-6.1-43.9 3.5 29.2 1.3 10.2 1 3.5.2.4m.1-90 .3 2" vector-effect="non-scaling-stroke"/></g><g id="e"><path fill="#a9925c" d="M160.5 0q4.2 2.8-.9 3-1.2.1-1-1.3.3-1.6 1.9-1.7"/><path fill="#000" fill-opacity=".3" d="M137.2 43.5q48.7 0 83 18.6 34.5 18.6 34.5 44.9t-34.4 44.9-83.1 18.6-83.1-18.6-34.4-45q0-26.2 34.4-44.8t83.1-18.6"/><path fill="#4e4229" d="m67.2 80-.7-2.8 1.4-7.1 4-6.9 6.6-6.3 8.8-5.6 10.9-4.6 12.1-3.4 13.5-2 13.8-.8 13.9.8 13.3 2 12.2 3.4 10.8 4.5 8.8 5.6 6.6 6.3 3 4.9h-9.6 9.6l1.1 1.9 1.4 7.2-.3 1.9-9.3-.4 9.3.4-1.1 5.3-4 6.9-6.7 6.4-8.6 5.4-2.6 1.1v-5.3l-.5 5.6-2.4 1-1.6-2.9 1.2 3-4.9 2.2-12.1 3.4-13.1 2h-.3l-13.8.7-14-.7-13.3-2-12.3-3.4-10.9-4.6-8.8-5.5-6.5-6.3-2.8-4.7-1.3-2.2zl5.6-1.7zm108.5 13.1 1-.6 4.6-4.4 2.7-4.7 1-5-1-4.9-2.8-4.6-4.5-4.4-6.1-3.8-3.2-1.3-4.2-1.8-8.3-2.3-9.2-1.4-9.4-.5-9.6.5-9.1 1.4-8.3 2.3-7.5 3.2-6 3.8-4.5 4.4-2.7 4.7-1 4.8 1 5 2.8 4.7.6.5 3.8 3.8 6.1 3.8 7.4 3 8.5 2.4 9.1 1.4 9.5.5 9.5-.5 9.2-1.4 8.3-2.3 7.3-3.2zM75 84.8l-5.7 1.8zm76.5 27.3.5 1zm16-52.7 7.8-4.1z"/><path fill="#685b37" d="m206.2 68-3-4.9-6.5-6.3-8.9-5.6-10.8-4.5-12.2-3.4-13.3-2-13.9-.8-13.8.8-13.5 2-12.1 3.4-10.9 4.6-8.8 5.6-6.6 6.3-4 6.9-1.4 7.1.7 2.8L49 85.6 67.3 80l.8 4.4 1.3 2.2 2.8 4.7 6.5 6.3 8.8 5.5 10.8 4.6 12.4 3.4 13.3 2 14 .7 13.8-.7h.3l2.4 5-19.9.9q-19.5 0-36.2-3.4l.8-1.4-.8 1.4q-4.2-.9-8.2-2l.4.7q.7.7.5 1.7 2.1-.2 4 .9 1 1.2 1.2 2.4l-4.5 7.7-1 1.2-.8.3-1.5.2-.2.3-2-.5 2.6-1.5v-3.5l-6-3.1-5.8 5.5-1.4-.3-3-1.3-.2-.8-.1-1.7q5.2-7.5 13.6-9.3l-.7-.2q-9.1-2.9-17.2-6.9t-14-8.6l-.2.3q-5.2 3.1-10.4 3.2v-.2l-6-3.1-2.6 2.5-4.9-8.2-1-1.7-.6-2.7-1.6-8.3-.5-.1-1.7 7.3h.1l-1.5 7.7.7 3.6v.7L21 112.4l13.7-12.9-4.9-8.2.2-.3 1-1.2 1.1-.5 1.1-.3 2.3.4v1.9l4.5-.7h-1.5l-1.3-.5q2.7-1 4.9 1l5.5-.2.5.5-.5-.6q-7.2-8.3-7.2-18.2 0-16.8 21-29.3 3-1.8 6.5-3.5 4.3-2.1 8.9-3.9 13.8-5.4 30-7.8h.3q12.8-1.9 27.3-1.9 34.6 0 60 10.7l6.5 2.9q10.6 5.3 17.1 11.3 4.9 4.5 7.5 9.5l1.5 3.5q1.4 4.1 1.4 8.5 0 9.3-6.4 17.3 6.3.5 12.2 1.8v.2l.3-.6v-.4l-.5-.4-.2-.8V86l.1-.2v-.7l.8-4.8.2-.6 10.5.7-.3 1.5-.4 2.3-1 5.2-.3.4-4.2 7.3-.6 1-1.7-.2-2.9-.4-18-1.7q-6 5-15.1 9.5-5 2.5-10.4 4.5l-.5.2.6-.1 1.4.5q.4.1-3 .6 10.3 7.5 12 9.8t-1.7.8q-1.2-1 1 2.5L195 126l-9.7 2.7-.7-.8-1.6-1.3q-12.2-9.5-12.3-11.1l-9.7 1.7-6.7.8-2.4-5 13-2 12.2-3.4 4.9-2.1 1 2.9-.7 3.8-2.2 3 3.5-2 1.5 1.6q.6-2 2.2-3.3l1.1-1-2.7 1 .3-.8v-.8l-.7-1.5V104l2.6-1.1 8.7-5.4 6.7-6.4 3.9-6.9 1.1-5.3.3-1.9-1.4-7.2zh15.6zm-48 90-2.1-7.3-19.6 1-2.3-.1-4.2 15.9h-.7l-4.1-.2-4.9-.3-6.5-.3-7.7-1.2-7.2-1.1-3.6-.5-7.4-1.7-2.9-.8-4-1.2 5.2-31.7 2 .5 6.3 1.8 2.8.4 6.6 1-2.9 19 2.9-19 10 1.6-1.3 10.2 1.3-10.2 5.5.3 14.4.8 2.7.1 10.2-.5 8.7-.5 2 4zM52 175.3l-.9-.4-3-1.6-2.1-1.1.5-6.6.8-8.4.2-3.5 6.1 3.1zM6.4 152l-1.7-1-3.6-1.7-.7-.4L2 130.4l3.4 1.7H5l2.5 5.8zm90-72.8 5.4-3.4 5.1-2.2 3.6 12.8h-.2zM111 41l-3.8-13zm5.8-3.5-1.7-7zM62 88.8l7.2-2.2zm155.6-9.4-9.3-.4zm-57.5 36.2.9 1.7zm50.6-62.7L218 51zm-25.8 51.5-.2 2.6.7 1.5v3.2l-1 .4q-.6-3.5-2-6.7z"/><path fill="#796940" d="m45.9 46.7 12.7-8 .1-.1 16.6-7 19-5.2 20.5-3.3 21.4-1.1 21.4 1 20.4 3.3 19 5.2 16.7 7 9.9 6.2q-1 2.4-.4 5.2l-5.1 1.2q-6.5-6-17.1-11.3l-6.4-2.9Q169 26.2 134.5 26.2q-14.5 0-27.3 1.9h-.3q-16.2 2.4-30 7.8-4.6 1.8-8.9 3.9-3.5 1.7-6.5 3.5-21 12.5-21 29.3 0 9.9 7.3 18.2l-5.6.3q-2.2-2-4.9-1-1.1-.8-1-2.5l1.1-1.9q1.1-1.1 2.4-3.5.3-.6.3-1.4l-2.7 4.9q-1 1-1.8 1.1v2.6l-2.3-.4-1 .3-1.2.5-1 1.2-.2.3-1-1.7-.6-2.7q1.7-.2 3.8-.9 3.5-1.2 3.7-4.8.9-12.5 7-23.1 4-6.6 3.1-11.4m172.2 4.4 5-1.2q.6 2.7 2.5 5.7l-.2 1.2q-.2 2 .2 3.8-2.6-5-7.5-9.5M43.4 100.3q5.1-.1 10.4-3.2l.2-.3q5.8 4.6 14 8.6t17.3 6.9l.6.2q-8.4 1.8-13.6 9.3l.1 1.7.2.8-9.8-4.2-3.8-1.6-1.5-1-2.2-1.3-6.1-3.8-3.9-2.4-4.9-4.8 3-1.5zM88.2 129l.2-.3 1.5-.2.8-.3 1-1.2 4.5-7.7q-.2-1.2-1.3-2.4-1.8-1.1-3.9-1 .2-.9-.5-1.6l-.5-.6 8.3 1.9q16.7 3.4 36.2 3.4l19.9-1 3.6 7.6-3.6-7.5 6.7-.8 9.7-1.7q.1 1.6 12.3 11.1l1.6 1.3.7.8-7 1.9-17.2 2.7-5.8.6-8.7.5-10.2.5-2.7-.1-14.4-.7-5.5-.4-10-1.6-6.6-1-2.8-.4zm26.2-7.7L104 132.2zm50 2.8-3.3-6.7zm-46.7-.3-3.8 10zm82.6.5q-2.2-3.4-1-2.5 3.4 1.5 1.8-.8-1.7-2.3-12-9.8 3.4-.5 3-.6l-1.4-.5-.1-.1q5.4-2 10.4-4.5 9-4.5 15.2-9.5l17.9 1.7 2.9.4 1.7.2-.5.8h-.5l-5.6.8h-1.2l.8.8q1.2.7 2.5 1l2-.1-4.6 4.3-1 1-3.1 3-.7.4-5.7 3.6-7.2 4.6-9.1 3.9zM235 79.8l-.2.6-.7 4.8-.1.4v.7l-.1.2v3.2l.3 2q-5.8-1.3-12.1-1.8 6.4-8 6.4-17.3 0-4.4-1.4-8.5 1.9 2.5 5.9 3.7l1.5 2.2 1.7 3.4zM10.6 131l-3 6.9-2.5-5.8h.3z"/><path fill="#998551" d="m223.6 44.7.4.3 3.3 2 1.5 1.6 8.7 8.2 6.2 10.6 2.2 11-.4 2-10.5-.6 1.2-6.4-1.7-3.4-1.5-2.2q-4-1.2-6-3.7l-1.4-3.5q-.4-1.7-.2-3.8l.2-1.2q-2-3-2.4-5.7-.6-2.8.4-5.2M28.8 67.6 35 57l10-9.8.8-.5q.9 4.8-3 11.4-6.2 10.6-7 23-.2 3.7-3.8 4.9-2.1.7-3.8.9l-1.6-8.3zm200.2-19-5.7 1.3z"/><path fill="#7aa835" d="m243.7 67.4 2.7 10.9-.5.1zm9.2 40.2-.2.7h-.2v-.6zM91.4 88.2h.8l-.1.5zm161.4 20.1-.1-.6z"/><path fill="#a59154" d="m246.4 78.3 4 17 2.4 12.3-.2.1-3.7-11.6-1.6 8.6-1.6 2.6.1.7 2.1 16-3.7 6.4-.1.2-2.6 2.5-4.4 4.3-3.8 3.7-4.8 3-3 1.9-5.2-13.9-3.9 2.5-7.2 3-5.2 2.2-1 17-1.8.8-2.6.8-3.2.8-10 2.8-4.3 1.2-8.4 1.3-5.4.9-3.3.5-3.2.5-2.6-8.4-.7-20-2.2-4 5.9-.6 17.2-2.7 7-2 9.7-2.6 5.3-2 4.4-1.8 9-4 7.3-4.5 5.7-3.6.7-.4 3.1-3 1-1 4.6-4.3 1.4-1.4.3-.5.3-.6q2.4-.5.6-.8h-.1l.6-1 4.2-7.3.3-.4 1-5.2.4-2.3.3-1.5.4-2.1zM47.8 90.9l.4.6z"/><path fill="#002b35" d="m252.5 108.3-6.7-.3v-.7l1.5-2.6 1.6-8.6 3.7 11.6zm-27 37.7-16.2-8.4 7.1-3 3.8-2.5z"/><path fill="#453d25" d="m81 160.3-4.5 2.2-2.8 1.5-5.7 2.9-13.7 7.2-2.4 1.2 1.6-18.5 9.7-9.2.7 7.7 1.3-9.6 23.6-22.2v3.5l-2.6 1.5zm-67.7-11.8-.7.4-2.6 1.3-3.5 1.8 1.2-14.1 3-6.9 32.8-30.8v3.5l-3 1.5-2.2 14-10.5 5.4v7.7l-14.5 7.4z"/><path fill="#2d211c" d="m46.4 165.6-2.6-1.4-3.4-1.7-2.4-1.2-21-10.8-3.8-2v-8.7l34 17.4zm45-77.4-2.8-4.7-1-5 1-4.8 2.7-4.7 4.5-4.4 6-3.8 7.5-3.2 8.3-2.3 9.2-1.4 9.5-.5 9.4.5 9.2 1.4 8.3 2.3 4.3 1.8 3.1 1.3 6.1 3.8 4.5 4.4 2.8 4.6 1 5-1 4.9-2.7 4.7-4.6 4.4-1 .6-5.1-3.2-7.3-3.1-8.5-2.3-7.9-1.2-4.5-14.7-6.2-.3-15.7 1.4-4.3 15.2-5.7 1.6v-.2l-3.6-12.8-5 2.2-5.6 3.4-.5.4-3 2.8-.7 6zm-63.7 36.4 32.8 16.8-5.2 4.9-5.1-2.6-14.2-7.3-.6-.3-.6-.2-1.5-.8-5.6-2.8z"/><path fill="#8b7a47" d="m2 130.4 19.1-18 13.7-12.9 2.7-2.5 5.9 3v.2L10.6 131l-5.2 1zm75-4.5 5.8-5.5 6 3-23.6 22.3h-5.1l3.1 2-9.7 9.1-6-3.1 7.6-7.3.1-.1 5.3-4.9 5.5-5.2z"/><path fill="#4b4b4b" d="m23.8 97.8-2.2-.1 1.4-6 1.6-6-1.5 7.8.7 3.6z"/><path fill="#658b2c" d="m23 91.7 1.4-6h.2zm3.2-13.2 2.6-11-2 11.1zm84.3 7.8v.2l-.2-.1zm-55.2 60-.1.1-5-2.7z"/><path fill="#393939" d="M35.6 89.4v-2.6q.8-.1 1.8-1.1l2.7-4.9q0 .8-.3 1.4-1.3 2.4-2.4 3.5l-1 1.9q-.2 1.7.9 2.5l1.3.5h1.5l-4.5.7zm149.3 15 .5-5.5v9.7l.8 1.5-.1.8-.2.8q-.9 3.4-1.2 2.2l-.1-1 .8-.5v-3.8l-.7-1.5zm-1.2 8.9-3.5 2 2.2-3 .8-3.8-1.1-3-1.2-3 1.6 2.9q1.3 3.2 2 6.7v.7z"/><path fill="#776444" d="m72.6 124.3 3 1.3 1.4.3-11 10.3-9.2-3.9-14-8.7-4.6-4.4 2.2-14 4.9 4.8 3.9 2.4 6.1 3.8 2.2 1.4 1.5.9 3.8 1.6z"/><path fill="#006980" d="m98.3 115.6.8-1.4zm87.6-4 2.7-1-1.1 1q-1.6 1.3-2.2 3.3l-1.5-1.6.9-.5.8-.5v-.6l-1 .4.2.7v1q.4 1.2 1.3-2.2m4.8-1.6-.6.1zm48.1-11.8q1.8.3-.6.8z"/><path fill="#ab976b" d="m66 136.3-5.5 5.1-32.8-16.8 10.5-5.4 4.6 4.4 14 8.7zm-10.9 10.1-7.7 7.3-.2 3.5-34-17.4 14.5-7.6 5.6 2.9 1.5.8.6.2.6.3 14.2 7.3z"/><path fill="#635634" d="m63.2 147.7-3.1-2h5.1l-1.3 9.6z"/><path fill="#858585" d="m233.9 89.7.2.8.6.4v.4l-.4.6v-.2z"/><path fill="#004a61" d="m238.2 99-.3.6-.3.5-1.4 1.4h-2q-1.3-.2-2.4-.9h-.2l-.7-.7 1.2-.1 5.6-.7z"/><path fill="#003950" d="M43.4 100v.3z"/><path fill="none" stroke="#000" stroke-linecap="round" stroke-linejoin="round" stroke-opacity=".1" stroke-width="__RESOLUTION__" d="m67.2 80 5.6-1.7M218.2 51l5-1.2 5.8-1.3M107.2 28l3.7 12.9m4.1-10.5 1.7 7M49 85.5 67 80m2.2 6.6 5.7-1.8m79.4 33.3-2.4-5-.5-1M69.3 86.6l-7.2 2.2m41.8 43.4-2.9 19m2.9-19 10.5-11m-1.8 22.8 1.3-10.2 3.8-10.2m43.4-6.3 3.3 6.7m44-45-9.3-.4m7.1-10.6h-9.6m9.6 0h15.6m-13.4 11 9.3.4M154.4 118l3.6 7.5m3-8.3-.8-1.7M218 51l-7.4 1.8m-35.4 2.4-7.9 4.1" vector-effect="non-scaling-stroke"/><path fill="none" stroke="#000" stroke-linecap="round" stroke-linejoin="round" stroke-opacity=".3" stroke-width="__RESOLUTION__" d="m45.9 46.7 12.7-8h0l.1-.1 16.6-7 19-5.2 20.5-3.3 21.4-1.1 21.4 1 20.4 3.3 19 5.2 16.7 7 9.9 6.2m.4.3 3.3 2 1.5 1.6 8.7 8.2 6.2 10.6 2.7 10.9 4 17 2.4 12.3-.1.7h-.2l-6.7-.3 2.1 16-3.7 6.4m-2.7 2.7-4.4 4.3m-8.6 6.7-3 1.9-16.2-8.4-5.3 2.2-1 17-1.8.8-2.6.8m-3.2.8-10 2.8m-12.7 2.5-5.4.9m-3.3.5-3.2.5-2.6-8.4-2.1-7.3-19.6 1-2.3-.1-4.2 15.9h-.7m-4.1-.2-4.9-.3m-14.2-1.5-7.2-1.1m-3.6-.5-7.4-1.7m-2.9-.8-4-1.2-4.5 2.3m-2.8 1.5-5.7 2.9m-13.7 7.2-2.4 1.2-.9-.4m-3-1.6-2.1-1.1.5-6.6-2.6-1.4m-3.4-1.7-2.4-1.2m-21-10.8-3.8-2-.7.4m-2.6 1.3L6.4 152l-1.7-1m-3.6-1.7-.7-.4L2 130.4l19.1-18 2.6-14.6-2.1-.1 1.4-6 1.4-6 1.8-7.2 2.6-11L35 57l10-9.8.8-.5M28.3 86.9l.5 2.7 1.1 1.7 4.9 8.2 2.7-2.5 5.9 3v.2M175.7 93l1-.6 4.6-4.4 2.7-4.7 1-5-1-4.9-2.8-4.6-4.5-4.4-6.1-3.8-3.2-1.3-4.2-1.8-8.3-2.3-9.2-1.4-9.4-.5-9.6.5-9.1 1.4-8.3 2.3-7.5 3.2-6 3.8-4.5 4.4-2.7 4.7-1 4.8 1 5 2.8 4.7.6.5 3.8 3.8 6.1 3.8 7.4 3 8.5 2.4 9.1 1.4 9.5.5 9.5-.5 9.2-1.4 8.3-2.3 7.3-3.2zl-5.1-3.2-7.3-3.1-8.5-2.3-7.9-1.2-4.5-14.7-6.2-.3-15.7 1.4-4.3 15.2-5.7 1.6-.2-.1-14-7.3-.5.4-3 2.8-.7 6-.1.4m4.3-9.6 5.5-3.4 5.1-2.2 3.6 12.8m-37.9 38 3 1.3 1.4.3 5.8-5.5 6 3v3.6m-2.6 1.5 2 .5 6.3 1.8 2.8.4m-42-15 2.2 1.4m5.3 2.5 9.8 4.2m-12.1 17.1 5.5-5.2L77 126m-38.8-6.7-10.5 5.4v7.7l-14.5 7.4v8.8m47.3-7.1-5.2 4.9-.1.1-7.8 7.3-.2 3.5-.8 8.4m8.9-19.3-5.1-2.6M36 136.5l-.6-.3m84-2 14.4.8m12.8-.4 8.8-.5 5.8-.6m77.5-35.2.6-1m4.2-7.3.3-.4 1-5.2m.4-2.3.3-1.5.4-2.1-2.2-11m-38.9 54.9-4.5 1.9-5.2 1.9M238.2 99l-.3.6m-6.3 6.2-1 1m-3.8 3.4-5.7 3.6m17.6-15.6-.5.8m14.4 8.7-3.7-11.6-1.6 8.6-1.6 2.6.1.7m-36.6 29.6 7.2-3 3.8-2.5 5.4 13.9m27-38.3.1.6M23.1 91.7l1.5-6-1.5 7.8.7 3.6v.7m16.6 7.4 4.9 4.8 3.9 2.4M34.7 99.5l-13.6 12.9m7.2-25.5-1.6-8.3 2-11" vector-effect="non-scaling-stroke"/><path fill="none" stroke="#3c1406" stroke-linecap="round" stroke-linejoin="round" stroke-width="__RESOLUTION__" d="M43.4 100.3v3.4" vector-effect="non-scaling-stroke"/><path fill="#8b7a47" d="M97.9 154.2v-.2q0-2.5 2-4.2 1.4-1.2 3.1-1.6l1.6-.2h.8l.7.1.8.2v-.4q.1-1.4.6-2.5l1-1.4q1.5-2 3.8-2 2.1 0 3.6 1.6l.3.4q1.6 1.9 1.6 4.6t-1.5 4.6-4 1.9h-.5q-.4 1.8-2 3.2-2 1.7-5 1.7-2.9 0-4.9-1.7t-2-4.1m30.2 13.1-2.7-.3q-4 0-6.8-3-2.7-2.8-2.7-7 0-4.1 2.7-7.1l1.3-1.1q2.3-1.8 5.4-1.8 4 0 6.7 2.9l.8 1.4zm-21.2-18.2q.1 2.4 1.5 4t3.3 2q-1.9-.3-3.3-2t-1.5-4m25.9-.4q-1-1.1-1-2.6l.1-.7q.2-.8.6-1.5l1.1-1.4q1.8-1.4 4.3-1.4 2.2 0 3.8 1.1l.4.3q1.8 1.5 1.8 3.6 0 2-1.8 3.5-1.7 1.5-4.2 1.5-2.6 0-4.3-1.5zm24.1-6.4 1-.2q1.2 0 2 1 1 1 1 2.5 0 1.4-1 2.4-.8 1-2 1-1.3 0-2.2-1-.8-1-.8-2.4l.2-1.3.6-1.2q.5-.6 1.2-.8"/><path fill="#b7a673" d="m185.8 139.2 1-.1q2.5 0 4.3 1.9t1.8 4.6-1.8 4.6q-1.4 1.5-3.3 1.8l-.2.7 1.6.6q2.7 1.3 2.7 3.2t-2.7 3.2-6.3 1.3-6.4-1.3q-2.3-1.1-2.6-2.7v-.5q0-1.2 1-2.1-1 .9-1 2 0-2.2-1.1-3.8l-.7-.8.7.8q1 1.6 1 3.9v.5q0 2-1 3.4-1 1.6-2.5 1.6-1.4 0-2.4-1.4v-.2q-1-1.6-1-3.9t1-3.9 2.4-1.6h.6v-1.3q.2-3 2.4-5.2 2.2-2.1 5-2.4l1-.1 1.7.2.7.1.9-1.3q1.4-1.5 3.2-1.8m2 12.8h-1l-1.5-.1 1.5.2zm-.2.7-2.6-.5zm20.3-22.5v-.6q0-1.5.8-2.5l1.4-.9.8-.1q1.2 0 2 1 1 1 1 2.5 0 1.4-1 2.4-.8 1-2 1-1.3 0-2.2-1-.6-.8-.8-1.8m-10.6 4 .3-.3q.7-.8 1.8-.8.8 0 1.5.6l.2.2q.8.9.8 2.2 0 1.2-.8 2-.7 1-1.7 1-1.1 0-1.8-1-.7-.8-.7-2 0-1 .4-1.8m.7 9.8q.8 1 .8 2.5 0 1.4-.8 2.4t-2.2 1-2.1-1-.8-2.4.8-2.5 2.2-1 2 1m43.9-32.1q1 1.9 1 4.6t-1 4.6-2.5 1.9-2.5-2q-.6-1-.7-2.4l-.2-2.1q0-2.7 1-4.6 1-2 2.4-2 1.5 0 2.5 2m-7.1 8.6.3.2q.8.7.8 1.8l-.2.9 1.4.6q1.8 1 1.8 2.5 0 1.4-1.8 2.4l-.8.4q.7 1.3.7 3.2 0 2.3-1.2 3.9t-2.8 1.6-2.9-1.6q-.5-.8-.8-1.7-.3-1-.3-2.2l.1-1.5.5-1.4q-1-.3-1.7-.7-1.7-.8-1.9-2v-.4q0-1.5 1.8-2.5l1-.4 1.3-.4q-.2-.3-.2-.7l.2-.6q.1-.7.7-1.2.9-.7 2.2-.7 1 0 1.8.5m-4.7 2.7q.2.6.7 1 .9.8 2.2.8 1.2 0 2-.8l.8-.8-.7.8q-.9.8-2.2.8-1.2 0-2.1-.8-.5-.4-.7-1m6.2 6.1-.5-.7q-1.2-1.6-2.8-1.6-1.7 0-2.9 1.6l-.5 1 .5-1q1.2-1.6 2.8-1.6 1.7 0 2.8 1.6z"/><path fill="#cc9" d="M173.9 157v-.4z"/><path fill="none" stroke="#000" stroke-linecap="round" stroke-linejoin="round" stroke-opacity=".3" stroke-width="1" d="m115.9 143.6.3.4q1.6 1.9 1.6 4.6t-1.5 4.6-4 1.9h-.5q-.4 1.8-2 3.2-2 1.7-5 1.7-2.9 0-4.9-1.7t-2-4.1m30.2 13.1-2.7-.3q-4 0-6.8-3-2.7-2.8-2.7-7 0-4.1 2.7-7.1l1.3-1.1m12.1 1 .8 1.4-.5-1.8m-20.6 5.6q-1.9-.3-3.3-2t-1.5-4m34.8-6.9.4.3q1.8 1.5 1.8 3.6 0 2-1.8 3.5-1.7 1.5-4.2 1.5-2.6 0-4.3-1.5l-.8-.9m24.1-6.4 1-.2q1.2 0 2 1 1 1 1 2.5 0 1.4-1 2.4-.8 1-2 1-1.3 0-2.2-1-.8-1-.8-2.4l.2-1.3m30.7-5.2h1q2.5 0 4.3 1.9t1.8 4.6-1.8 4.6q-1.4 1.5-3.3 1.8l-.2.7 1.6.6q2.7 1.3 2.7 3.2t-2.7 3.2-6.3 1.3-6.4-1.3q-2.3-1.1-2.6-2.7h0q-.2 2-1.1 3.4-1 1.6-2.5 1.6-1.4 0-2.4-1.4m10.3-18.5 1.2-.1 1.6.2m-8.8 9.6.6.8q1 1.6 1 3.9 0-1.2 1.1-2.1m10.4-2.5 1.5.2 1-.1m-2.8.2 2.6.5m22.5-26.5.8-.1q1.2 0 2 1 1 1 1 2.5 0 1.4-1 2.4-.8 1-2 1-1.3 0-2.2-1-.6-.8-.8-1.8m-7 3.5.2.2q.8.9.8 2.2 0 1.2-.8 2-.7 1-1.7 1-1.1 0-1.8-1-.7-.8-.7-2 0-1 .4-1.8m.7 9.8q.8 1 .8 2.5 0 1.4-.8 2.4t-2.2 1-2.1-1-.8-2.4.8-2.5 2.2-1 2 1m43.9-32.1q1 1.9 1 4.6t-1 4.6-2.5 1.9-2.5-2q-.6-1-.7-2.4m-1.4 1.9.3.2q.8.7.8 1.8l-.2.9 1.4.6q1.8 1 1.8 2.5 0 1.4-1.8 2.4l-.8.4q.7 1.3.7 3.2 0 2.3-1.2 3.9t-2.8 1.6-2.9-1.6q-.5-.8-.8-1.7m-.2-3.7.5-1.4q-1-.3-1.7-.7-1.7-.8-1.9-2m2.8-3.3 1.3-.4q-.2-.3-.2-.7l.2-.6m5.7 1.5-.7.8q-.9.8-2.2.8-1.2 0-2.1-.8-.5-.4-.7-1m-.5 6.4.5-1q1.2-1.6 2.8-1.6 1.7 0 2.8 1.6l.6.7m-62.3 27.2v-.1m0 .5v-.4z"/></g><radialGradient id="a" cx="0" cy="0" r="819.2" gradientTransform="matrix(.1 0 0 .1 22.05 12.8)" gradientUnits="userSpaceOnUse" spreadMethod="pad"><stop offset=".2" stop-color="#60553d"/><stop offset="1" stop-color="#736e5c"/></radialGradient><linearGradient id="b" x1="-819.2" x2="819.2" gradientTransform="rotate(135 59.397 -88.102)scale(.01)" gradientUnits="userSpaceOnUse" spreadMethod="pad"><stop offset="0" stop-color="#9a988d" stop-opacity="1"/><stop offset="1" stop-color="#c7c5c0" stop-opacity="1"/></linearGradient><clipPath id="d"><path d="M1 1h255v323H1z"/></clipPath><path id="k" fill="#ddd9c8" d="M95.9-134.2q12.8 5.1 17.3 19.6l-5.4 4.2q-.9-8.4-7.4-18.5z" transform="translate(-95.9 134.25)"/><use xlink:href="#c" id="f" width="70.5" height="91.7"/></defs><g clip-path="url(#d)"><g transform="translate(48.4 302.15)"><use xlink:href="#e" width="254.7" height="175.7" transform="translate(-47.4 -154.05)"/><use xlink:href="#f" width="70.5" height="91.7" transform="translate(53.5 -141.7)"/><use xlink:href="#g" width="211.2" height="138.5" transform="translate(-21.5 -173.65)"/><use xlink:href="#h" width="10.4" height="35" transform="matrix(.5814 .1198 -.1217 .5569 -13.45 -284)"/><use xlink:href="#h" width="10.4" height="35" transform="matrix(.5814 .1198 -.1217 .5569 -16.55 -270)"/><use xlink:href="#h" width="10.4" height="35" transform="matrix(.5814 .1198 -.1217 .5569 -19.55 -255.95)"/><use xlink:href="#h" width="10.4" height="35" transform="matrix(.5814 .1198 -.1217 .5569 -22.6 -242)"/><use xlink:href="#h" width="10.4" height="35" transform="matrix(.5428 -.2433 .2675 .5594 -25.75 -231.25)"/><use xlink:href="#h" width="10.4" height="35" transform="matrix(.5428 -.2433 .2675 .5594 -19 -217.1)"/><use xlink:href="#h" width="10.4" height="35" transform="matrix(.5428 -.2433 .2675 .5594 -12.2 -203.1)"/><use xlink:href="#h" width="10.4" height="35" transform="matrix(.5428 -.2433 .2675 .5594 -5.55 -189.05)"/><use xlink:href="#h" width="10.4" height="35" transform="matrix(-.1608 .5719 -.5474 -.1608 79.75 -150.1)"/><use xlink:href="#h" width="10.4" height="35" transform="matrix(-.1608 .5719 -.5474 -.1608 65.95 -154.2)"/><use xlink:href="#h" width="10.4" height="35" transform="matrix(-.1608 .5719 -.5474 -.1608 52.2 -158.2)"/><use xlink:href="#h" width="10.4" height="35" transform="matrix(-.1608 .5719 -.5474 -.1608 38.45 -162.2)"/><use xlink:href="#h" width="10.4" height="35" transform="matrix(-.1608 .5719 -.5474 -.1608 24.7 -166.3)"/><use xlink:href="#h" width="10.4" height="35" transform="matrix(-.5918 .006 .0009 -.5684 93.2 -136.15)"/><use xlink:href="#i" width="189.3" height="158.2" transform="translate(-28.25 -301.15)"/><use xlink:href="#j" width="8.6" height="9.6" transform="translate(81.55 -259.6)scale(.4884)"/><use xlink:href="#j" width="8.6" height="9.6" transform="translate(90.45 -258.85)scale(.4884)"/><use xlink:href="#j" width="8.6" height="9.6" transform="translate(98.6 -260.6)scale(.4884)"/><use xlink:href="#j" width="8.6" height="9.6" transform="matrix(-.1309 -.4613 .4748 -.1465 101.85 -282.6)"/><use xlink:href="#j" width="8.6" height="9.6" transform="matrix(-.1309 -.4613 .4748 -.1465 96.65 -289.55)"/><use xlink:href="#j" width="8.6" height="9.6" transform="matrix(-.1309 -.4613 .4748 -.1465 85.85 -290.1)"/><use xlink:href="#j" width="8.6" height="9.6" transform="matrix(-.1309 -.4613 .4748 -.1465 90.9 -293.25)"/><use xlink:href="#j" width="8.6" height="9.6" transform="matrix(-.4432 -.9354 .9585 -.4812 64.15 -260)"/><use xlink:href="#h" width="10.4" height="35" transform="matrix(.0037 .5946 -.571 -.0032 74.85 -289.7)"/><use xlink:href="#h" width="10.4" height="35" transform="matrix(.0037 .5946 -.571 -.0032 60.45 -289.8)"/><use xlink:href="#h" width="10.4" height="35" transform="matrix(.0037 .5946 -.571 -.0032 46.1 -289.85)"/><use xlink:href="#h" width="10.4" height="35" transform="matrix(.0037 .5946 -.571 -.0032 31.8 -289.9)"/><use xlink:href="#h" width="10.4" height="35" transform="matrix(.0037 .5946 -.571 -.0032 17.45 -290)"/><use xlink:href="#k" width="17.3" height="23.9" transform="translate(95.9 -134.25)"/><use xlink:href="#l" width="91.8" height="107.5" transform="matrix(.5891 .1598 0 .5891 2.85 -187.3)"/></g></g></svg>