<svg xmlns="http://www.w3.org/2000/svg" xmlns:xlink="http://www.w3.org/1999/xlink" width="104" height="131" viewBox="0 0 104 131"><defs><g id="e"><path fill="#999" d="M79.2 4.5Q69.9 26 55 35.8q3.1-5 3.8-9.9v-.1h-.1v.1l-1 .7.3-3.2.6-.4-.6-.2q-2.9-.9-7.6 0l3.9-1.7 1-.5q3.5-.5 5.4 2.6Q70 17.5 76.7 7l.6-.5 1-1zM8.9 31Q5.8 17.4.6.8h.1q6.9 13.4 10.1 22.7l7.6.8.9 1.2-8.6-1z"/><path fill="#503816" d="m79.3 4.5.1-.2zM.5.8V.5l.2.3z"/><path fill="#ccc" d="M76.8 7Q70 17.5 60.7 23.1q-2-3-5.5-2.6Q69.3 14 76.8 7M.8.8l17.7 23.5-7.5-.8Q7.5 14.2.7.8"/><path fill="#333" d="m58 23.3-.4 3.2-5.4 3.9-1.1-2.9zm-44.5 7.4-1.7-3.1-1.5 3.6-1.4-.2 1.8-6.5 8.6 1 .2.4-4.5-.2 2 3.3z"/><path fill="#666" d="M52.3 30.4q-11.7 7.7-26.7 13.9h-.2v.3q-1 2-2.3 3-1.5 1.2-2.4.8-1-.6-1-2.4 0-1.4.6-2.7V43l-6.9-12.4L17 29l5.9 10 .2-.2q1.3-1.2 2.3-.7t1 2.4q12.2-5.5 24.7-13zM20.4 43l.4-1q.6-1.2 1.3-2l.9-1-1 1q-.6.8-1.1 2z"/><path fill="none" stroke="#000" stroke-linecap="round" stroke-linejoin="round" stroke-opacity=".3" stroke-width="1" d="m79.2 4.5-1 1m-.9 1-.5.5q-7.5 7-21.5 13.5l-1 .5-4 1.7q4.9-.9 7.7 0l.6.2-.6.4-6.9 4.2q-12.5 7.5-24.7 13h0q0-2-1-2.5t-2.3.8l-.2.2L17 29l-2-3.3 4.5.2-.2-.4-1-1.2L.8.8.5.5l.1.3Q5.8 17.4 8.8 31h.1l1.4.2 1.5-3.6 1.6 3 7 12.4v.3q-.6 1.3-.6 2.7 0 1.8 1 2.4 1 .4 2.4-.7t2.3-3.1v-.3h.2q15-6.2 26.7-13.9l5.4-3.9 1-.7v-.1h0v.1q-.6 4.9-3.7 9.9Q69.9 26 79.4 4.5v-.2l-.1.2M22.9 39l-1 1q-.6.8-1.1 2l-.5 1"/></g><g id="d"><path fill="#000" fill-opacity=".3" d="m19.9 169.6 7.1-1 8.6-1 9.1-.7q12.2-.9 15.4 1.7l3 2.3.5.4 3.2 2.3q4.8 3.5 5 6.8.5 4.1-1.2 6.4l-.3.3q-2.5 2.7-9.7 4.3-7.6 1.5-19.1 5l-8.9 1q-7 .5-14.8-4.2l-1.6-1q.4-.3-4-2.9t-5.1-6q-.7-3.6 0-5.2l.1-.3v-.2q.8-5.1 5.6-6.2l5.3-1.3z"/><path fill="#000" fill-opacity=".3" d="m7.4 161.5 3.8-2.9.7-.7 3.5-3.1q3.9-3.4 18.5-2.2l11 1 10.3 1.3 8.6 1.3 2.1.7 6.3 1.7q5.7 1.5 6.7 8.3l.1.3v.5q1 2.2.1 6.9-.8 4.6-6 8t-5 3.8l-1.8 1.3q-9.5 6.5-17.9 5.8l-10.6-1.3q-13.8-4.7-23-6.8-8.7-2.2-11.6-5.7l-.4-.4q-2-3.1-1.5-8.7.4-4.3 6-9.1"/><path fill="#596237" d="M9.2 167.3q-2.4-7-7.3-13.9l1.6-.9q7 7.7 12 18.1l-1.5 1.8-2.5-5.6zm7.7.4 1.4-8.6 1.4.5q2.7 10.3 3.3 17.5l3.6 1.3q-.4-3 1.9-5.2l4.3 2q-2.3 2.4-.2 5.4l-3 3.7-1.2-2.7-7-.3-2-12.5zm-16 7-.9-4.9 5.3.3 1.8 5.5v.2l2.3-1.4-2.5 2.2z"/><path fill="#3c4125" d="m9.2 167.3 2.3-.5 2.5 5.6 1.5-1.8.5 1 .3.2.6-4.1 2.5 1.2 2 12.4 7 .3 1.2 2.7-.4.3-8.7 2-14.7-3-5-3.5.2-5.2v-.2l5.9 1.9 2.5-2.2 1.4-.7q-.5-3.2-1.6-6.4"/><path fill="#563d18" d="M94.6.5q6.4 0 11.3 2.2-6.5 11.6-8.4 19.7l-5.8-.5q.4-9.2 2.8-21.4"/><path fill="none" stroke="#000" stroke-linecap="round" stroke-linejoin="round" stroke-opacity=".3" stroke-width="1" d="M94.6.5q6.4 0 11.3 2.2-6.5 11.6-8.4 19.7l-5.8-.5q.4-9.2 2.8-21.4"/><path fill="#563d18" d="m82.6 31-5.5 19.7q-3.3-36-13-41.9 1-2.6 4.9-3h.2Q80.4 11.9 82.6 31"/><path fill="none" stroke="#000" stroke-linecap="round" stroke-linejoin="round" stroke-opacity=".3" stroke-width="1" d="M82.6 31Q80.4 11.8 69.4 5.8H69q-3.8.5-5 3 9.8 5.9 13.2 41.9zl.3-1.1zm-5.3 19.8-.2.8-.1.5"/><path fill="#563d18" d="M91.6 32.4q8.5-15.8 21.6-16.8l.1.1q3.8 1.9 4 4.6-11.7 1.3-26.7 31.4z"/><path fill="none" stroke="#000" stroke-linecap="round" stroke-linejoin="round" stroke-opacity=".3" stroke-width="1" d="M91.6 32.4q8.5-15.8 21.6-16.8l.1.1q3.8 1.9 4 4.6-11.7 1.3-26.7 31.4l-.2 1.1m1.2-20.4v-1.1zl-1 19.4"/><path fill="#a8762d" d="m92.1 17.6 5.5-.2 9.1 4.2-.7 3.8-1.4 1.3zm-19.5 4.3 6.8-3.6 7.5-.4L99 27.6l-4.4.7q-2.5 2.9-2.8 4.7z"/><path fill="#bf9131" d="m92.1 17.6 12.5 9.1-3.2 3.1.1-.2h.1l1-2.7-3.5.7-12.2-9.7zM70.6 27.8l.5-5.1 1.5-.7 19.2 11-4.2 1.5-.6-.1-11-1.8-.9-.7z"/><path fill="#503816" d="M101.4 29.8Q80.7 72.6 66.7 109q-15.5 40.1-23 72.6l-2.1 2.3-14.6 3.8 4.5-11.7q6.3-16.2 7.2-16.2t2 .7q-.4-4 12-32.7l8.1-18.8q4.4-10.5 4.4-11.2l-1.7-2q0-.8 7.4-14 7.4-13 7.4-14.8 0-1.2-.9-2.7l-.8-1.3q0-6 5.4-18.2l5-10.4h.6l4.2-1.4q.3-1.8 2.8-4.7l4.5-.7 3.5-.7-1 2.7z"/><path fill="#745620" d="m27 187.7-2 .5L8 186l12.4-17.7 4 1q13.3-16.6 23-43.7l-2.5-.8 6.2-14.1 1 .1 16.1-39 3.2-.3 2.1-8.2-3.7-1.4q4.5-11.1 5.2-30l.8.7L87 34.4l-5 10.4Q76.6 57.1 76.6 63l.8 1.3q.9 1.5.9 2.7 0 1.8-7.4 14.8-7.4 13.2-7.4 14l1.7 2q0 .7-4.4 11.2l-8.1 18.8q-12.4 28.7-12 32.7-1.1-.7-2-.7-1 0-7.2 16.1z"/><path fill="url(#a)" d="M9 185.5h-.2L7.1 181q22.2-29.6 36.7-57.4l6.7-13.7.7-1.5q19.3-42.6 20.3-81v-.1l4.5 4q-.7 18.9-5.2 30l3.8 1.4-2.2 8.2-3.2.3-16.1 39-1-.1-6.2 14.1 2.5.8q-9.7 27.1-23 43.7l-4-1z" transform="translate(-.9 .5)"/><path fill="none" stroke="#000" stroke-linecap="round" stroke-linejoin="round" stroke-opacity=".3" stroke-width="1" d="m104.6 26.7 1.4-1.3.7-3.8-9.2-4.2-5.4.2-5.2.3-7.5.4-6.9 3.6-1.4.8-.5 5.1h0v.1q-1 38.5-20.3 81l-.7 1.6-6.7 13.7Q28.4 152 6.2 181.6m98.4-154.9-3.2 3.1Q80.7 72.6 66.7 109q-15.5 40.1-23 72.6m27-153.7"/><path fill="#596237" fill-opacity=".6" d="M37.4 148.9v1q-.6 1-.6 2.1 0 1.3.9 1.8l2 1.4q2.3-1.3 8.7-4.1l.3 1.3-.7 6h-.7l-.1-4.6q-5.4 2.3-5.6 2.6-.5.7-1.5 3t-1 2.7q0 2 4.4 5.4 1.3-1.1 4.5-2.7-3 12-4.2 20.3l-17.3 3.4-18.7-2.8-1.7-4.2 8.2-11.2 1 3q7.8-6 7.8-6.4l-.4-4.4q-1 .4-2.7 2.2l-.1-.5q2.9-2.9 5-4.1l-1 5.8 2.6-2.5.2-.1q0 .8.5 1.6-1.6.1-3.2 2.3-1.4 1.8-1.4 2.8 0 .6 2.3 4.6 4.4-1.4 5.6-2.5.8-.9 4.4-6.7l2.6-3.7q2-3.1 2-4 0-.7-1.8-2l-1.8-1.4.2-1.9q.3-1.9 1-2.3l-1.9-.9q-.5.8-.1 1.8l-.6.3H34v-1.9l2.3-.7zm-3.6 11.7q-1.2 0-2.1.6l3.4-2.4.3 2.8-.1.8z"/><path fill="#745620" d="M75.8 34q1.8-5-1.9-15.1l12.3 2.7q1.7 7.3.6 14.8z"/><path fill="none" stroke="#000" stroke-linecap="round" stroke-linejoin="round" stroke-opacity=".3" stroke-width="1" d="m86.3 38.3-1.5 7m-9-11.2q1.8-5.1-1.9-15.2l12.3 2.7q1.7 7.3.6 14.8m-11-2.4-.3 2.5M84.3 48v1m-9.1-10.7-.8 2.9"/><path fill="#8d9e47" d="M47.7 162.5q4.6-11.4 11.8-20.2l2 1.1q-4.6 4.8-7.9 10.4l-4.9 9.6-.3-.1zm11.3 10 1.3-7 6-.4zm-31.3 9.8-3.1-3q2.4-4-1.4-7l.1-.1 3-1.4.8.5q2 2.3 2 7 0 1-1.4 3.8zm9.3-7.5.3-.2q-.6-9.3 1-22.8l2-.7.2.6q-2 7-2 18.4 0 6.3.5 6.8z"/><path fill="#596237" d="m61.5 143.4.3.2q-5.5 9-7.4 18.1l-3.4-.6-2.4 7.3-2.2-2.4 1.3-3.6.7.9.3.1q2.8-5.7 5-9.6 3.1-5.6 7.8-10.4m-6.1 27.7 3.4 1.7.2-.5 7.3-7.3h1.2l-.5 6.3-7.7 2.5zm-25.8 12.8-1.8-1.8v-.2q1.4-2.7 1.4-3.8 0-4.7-2-7l-.7-.5 2.5-1.2q3.6 2.8 3.6 6.8l4.5-1.6 2 2q-.4-.4-.4-6.7 0-11.4 1.9-18.4l3.3 10.7-3.3 1.5-.4 16.3-9.6.3z"/><path fill="#3c4125" d="M54.4 161.7q-1 4.2-1 8.4l2 1 3.9 2.8 7.8-2.6-.1.3 1.3 6.8-6.1 4.6-19.8 3.8-12.5-2.5-.4-.5 1-3.5 9.6-.4.4-16.2 3.3-1.5 1.7 5.3.4-.2.5-1.3 2.2 2.4 2.4-7.3z"/><path fill="none" stroke="#000" stroke-linecap="round" stroke-linejoin="round" stroke-opacity=".3" stroke-width="__RESOLUTION__" d="m102.7 20.8 2.2 2.5-.8 1.4m11.2-7.6q-4.7 0-6.7 1.7m-21 8.8 3.2.8 8.6-5-2-2.7-10.9-.9-2.2 1m3.1 3.5 4.5.3 1.7-1.9m3-13.2.7-3.3m-2.8 32.1-1 3.4m4.8-14.1q-2.8 4.8-3.7 9m-12.2.5-.7 3.8m21.7-15.7-1 .7m-.8-24.3q-2.7 6.2-3.1 10M81.8 21q1.6 7.6.8 13.5m-9.3-13.4q-1.2-5-3.5-8.2m8.1 6.6.5 5m-5 39-4-1.3-2.2.7-1.1 7.3 3.8-.5.7-4.1-2-1.4-.3 1.5m.8-13.4.5-2.4-1.2-1m-3.8 49.8-1.8-2.3-5.4 11.2M69.5 50l1-5m-25.8 79.7 4.7.8-7.7 19.1m9.4 2 1.3 1.8M64.8 99l-5.4 12.8 2.5 2.2m-2.5-2.2-.5 1m-6.1-2.9-3 1.1m-29 54.9 3.4-5.2-2.4-1m-11.3 27.4 2.1-1 8.8-13.6 5.4.6-2.3 6.6m-.2-19q3.4-4.8 7-11m-8.6 34.2-1.6 3.8-.4 2.1M45 163.7l10-30.3m-14.5 13.3-1.6 2.5" vector-effect="non-scaling-stroke"/></g><g id="c"><path fill="#999" d="m12.4 19.4 2 1.3.6-1q1.3 1.3 2 3.3l-.5.8.3 1.2.6 3.6.9-.2q0 2.7-.5 5.7l-.8-.2-.2.8q-.6 2.2-1.5 4.1l.6.8q-1.2 2.5-3.2 4.3l-.2-1.1q-1.7 1.5-3.3 2v1.4L5.9 46h-.1l.4-1.4q-1.5-.5-2.6-2l-.7 1.2q-1-1.3-1.7-3.3l.9-.8-.2-.5q-.7-2.2-.7-4.5l-.9.3q0-2.6.6-5.4l.7.3.2-.5q.5-2.3 1.5-4.1l-.6-.8q1-2.1 2.6-3.7l.4 1 .5-.5q1.3-1.3 2.6-1.8v-1.1l3.5-.2-.3 1.2zm-4 3v-.9q-1.5.6-2.7 2l.3.9q-.9 1-1.7 2.6l-.2.5-.4-.4q-1 1.9-1.3 4H3q-.2 1.8-.1 3.6v.3l-.7.3q.1 2 .7 3.8l.5-.7Q4 39.8 5 40.9l.3.2-.5.9q1 .9 2.2 1.3l.2-1.1 2.4-.3V43h.1q1.3-.6 2.5-1.8l-.2-.8q1.1-1.2 2-3.1l.5.4q1-2.1 1.5-4.5l-.7-.1.3-3.6V29l.6-.3q-.3-2.3-1-4l-.5.7q-.5-1.2-1.3-2l-.6-.5.4-1q-1.2-.9-2.4-1l-.2 1-1.8.4z"/><path fill="#666" d="m8.4 22.4.4-.1 1.8-.3.2-1q1.2 0 2.4 1l-.3.9.4.5q.9.8 1.4 2l.5-.6q.7 1.6 1 3.9l-.7.3.1.5-.2 3.6.6.1q-.5 2.4-1.5 4.5l-.5-.5q-.9 2-2 3.2l.2.8Q11 42.3 9.7 43h-.1v-1.1l-2.4.3-.2 1Q5.8 43 4.8 42l.5-.9-.3-.2q-1-1.1-1.6-2.5l-.5.7q-.6-1.7-.7-3.9l.6-.2v-.3q0-1.9.2-3.6h-.6q.4-2.1 1.3-4l.4.4.3-.5Q5 25.4 6 24.4l-.3-.9q1.2-1.4 2.7-2z"/><path fill="none" stroke="#000" stroke-linecap="round" stroke-linejoin="round" stroke-opacity=".3" stroke-width="__RESOLUTION__" d="m12.4 19.4 2 1.3.6-1q1.3 1.3 2 3.3l-.5.8.3 1.2.6 3.6.9-.2q0 2.7-.5 5.7l-.8-.2-.2.8q-.6 2.2-1.5 4.1l.6.8q-1.2 2.5-3.2 4.3l-.2-1.1q-1.7 1.5-3.3 2v1.4L5.9 46h-.1l.4-1.4q-1.5-.5-2.6-2l-.7 1.2q-1-1.3-1.7-3.3l.9-.8-.2-.5q-.7-2.2-.7-4.5l-.9.3q0-2.6.6-5.4l.7.3.2-.5q.5-2.3 1.5-4.1l-.6-.8q1-2.1 2.6-3.7l.4 1 .5-.5q1.3-1.3 2.6-1.8v-1.1l3.5-.2-.3 1.2z" vector-effect="non-scaling-stroke"/><path fill="#999" d="M21.9 2.7V.9L27 .6l-.5 1.8.6.2q1.7.6 3 1.8l.7-1.4q1.9 1.8 3.2 4.9L33 9l.6 1.8q.8 2.6.9 5.4l1.2-.4q.3 4.2-.6 8.7l-1.2-.3-.3 1q-.8 3.5-2.2 6.4l1 1q-2 3.8-4.8 6.5l-.5-1.7q-2.5 2.3-4.9 3v2l-4.9-.2.4-2.1q-2.3-.8-3.9-2.9L13 39q-1.5-2-2.5-5l1-1.2-.1-.8q-1-3.3-1-6.7l-1.2.4q-.2-3.8.8-8l1.2.3.1-.5q.8-3.5 2.2-6.2l-.8-1q1.5-3.4 4-5.8l.5 1.5.7-.7q2-1.9 4-2.6m2.6 3.6-2.8.5-.4.2-.1-1.3q-2.2 1-4 3l.4 1.2q-1.4 1.5-2.5 3.9l-.4.9-.6-.7q-1.4 2.8-1.9 5.9l.9.1q-.4 2.5-.2 5.3v.4l-1 .5q.2 3.1 1.1 5.7l.8-1q.8 2 2.3 3.6l.4.4-.6 1.5q1.5 1.3 3 1.8l.3-1.7q1.8.4 3.7-.3l.1 1.5h.1q2-.9 3.8-2.6l-.5-1.3q1.8-1.8 3.2-4.6l.7.7q1.5-3.3 2.2-6.8l-1-.1q.5-2.7.4-5.4l-.1-.8.9-.4q-.2-3.4-1.4-6l-.7.9q-.9-1.7-2-3l-.9-.8.6-1.2Q26.6 5 24.7 4.9z"/><path fill="#666" d="m24.5 6.3.2-1.4q1.9 0 3.6 1.4l-.6 1.2.9.9q1.1 1.2 2 2.9l.8-.9q1 2.6 1.3 6l-.9.4.1.8q.1 2.6-.3 5.4l.9.1q-.7 3.5-2.2 6.8l-.7-.7q-1.4 2.8-3.2 4.6l.5 1.3q-1.7 1.7-3.8 2.6H23l-.1-1.5q-2 .7-3.7.3l-.2 1.7q-1.6-.5-3.1-1.9l.6-1.4-.4-.4q-1.5-1.6-2.3-3.6l-.8 1q-.9-2.6-1-5.7l.8-.5v-.4q-.2-2.8.3-5.3l-.9-.1q.5-3.1 1.9-6l.6.8.5-1q1-2.3 2.4-3.8l-.4-1.2q1.8-2 4-3l.1 1.3.4-.2z"/><path fill="none" stroke="#000" stroke-linecap="round" stroke-linejoin="round" stroke-opacity=".3" stroke-width="__RESOLUTION__" d="M21.9 2.7V.9L27 .6l-.5 1.8.6.2q1.7.6 3 1.8l.7-1.4q1.9 1.8 3.2 4.9L33 9l.6 1.8q.8 2.6.9 5.4l1.2-.4q.3 4.2-.6 8.7l-1.2-.3-.3 1q-.8 3.5-2.2 6.4l1 1q-2 3.8-4.8 6.5l-.5-1.7q-2.5 2.3-4.9 3v2l-4.9-.2h0l.4-2.1q-2.3-.8-3.9-2.9L13 39q-1.5-2-2.5-5l1-1.2-.1-.8q-1-3.3-1-6.7l-1.2.4q-.2-3.8.8-8l1.2.3.1-.5q.8-3.5 2.2-6.2l-.8-1q1.5-3.4 4-5.8l.5 1.5.7-.7q2-1.9 4-2.6" vector-effect="non-scaling-stroke"/><path fill="#000" fill-opacity=".3" d="m28.7 1.2 5.1 5.3Q25.2 24.5 19 43l-1.8-.5.7-2.5-2.2-.8z"/></g><radialGradient id="a" cx="0" cy="0" r="819.2" gradientTransform="matrix(.19 0 0 .19 13.5 173.75)" gradientUnits="userSpaceOnUse" spreadMethod="pad"><stop offset="0" stop-color="#91672b"/><stop offset="1" stop-color="#a87935"/></radialGradient><clipPath id="b"><path d="M1 1h102v129H1z"/></clipPath></defs><g clip-path="url(#b)"><g transform="translate(25.45 116.5)"><use xlink:href="#c" width="36.1" height="46.6" transform="translate(3.4 -88.7)"/><use xlink:href="#d" width="117.8" height="197.4" transform="translate(-24.45 -110.5)scale(.6265)"/><use xlink:href="#e" width="79.8" height="49" transform="translate(-3 -115.5)"/></g></g></svg>