<svg xmlns="http://www.w3.org/2000/svg" xmlns:xlink="http://www.w3.org/1999/xlink" width="199" height="277" viewBox="0 0 199 277"><defs><g id="c" fill="#7b7652"><path fill-opacity=".1" d="M.5 14.4v-1.2Q1 7.8 16.8 3.9 33.1 0 56.5 0l9.7.1Q83.2.8 96 4q15 3.7 16.2 8.7v1.8Q55.2-7.2.6 14.4"/><path fill-opacity=".1" d="M112.2 14.4v12.2Q55.2 7.7.6 26.6V14.4q54.5-21.6 111.6 0"/><path fill-opacity=".3" d="M112.2 26.6v8.6q-49-13.1-111.6 0v-8.6q54.5-18.9 111.6 0"/><path fill-opacity=".4" d="M112.2 35.2v21.7q-.3-1.2-1.3-2.3-3.5-3.5-15-6.4-16.4-3.9-39.5-3.9t-39.6 4Q5.4 51 2 54.6q-1.4 1.5-1.5 3V35.2q62.6-13.1 111.7 0"/><path fill-opacity=".1" d="M0 20.6v-1.2q.5-5.4 16.3-9.2 16.2-4 39.6-4 4.9 0 9.6.2 17.1.7 29.9 3.8 15 3.6 16.2 8.6v1.8Q54.6-.9 0 20.6"/><path fill-opacity=".1" d="M111.7 20.6V33Q54.6 14 0 33V20.6q54.6-21.5 111.7 0"/><path fill-opacity=".3" d="M111.7 32.9v8.5Q62.5 28.3 0 41.4V33q54.6-19 111.7 0"/><path fill-opacity=".4" d="M111.7 41.4v21.7q-.3-1.2-1.4-2.3-3.5-3.5-14.9-6.3-16.5-4-39.6-4t-39.5 4Q4.8 57.3 1.4 60.8q-1.3 1.5-1.4 3V41.4q62.6-13.1 111.7 0"/><path fill-opacity=".1" d="M.1 18v-1.2q.5-5.5 16.3-9.3Q32.6 3.6 56 3.6l9.6.1q17.1.7 29.9 3.8 15 3.7 16.2 8.7V18Q54.7-3.6.1 18"/><path fill-opacity=".1" d="M111.7 18v12.3q-57-19-111.6 0V18q54.6-21.6 111.7 0"/><path fill-opacity=".3" d="M111.7 30.3v8.5q-49-13.2-111.6 0v-8.5q54.6-19 111.7 0"/><path fill-opacity=".4" d="M111.7 38.8v21.7q-.2-1.2-1.3-2.3-3.5-3.6-14.9-6.4Q79 48 56 48q-23.2 0-39.6 4-11.5 2.7-14.8 6.3-1.4 1.4-1.5 3V38.8q62.6-13.2 111.7 0"/></g><g id="b"><path fill="#0f0f0e" fill-opacity=".7" d="M76.2.2 76 0h.2zM102 46.3l-.2.6h-.6v-.4l-1 .3h1v-.2zm-15.4-.8-.1-.2h.1zm.9 3.8 1.8-.2h.3l.1-.1-.2.5h-.1zm-10.7-4h.2l-.1.2zM49.6 49v.5h-.2v-.1z"/><path fill="#575339" d="m119.5 11.7.3.1v3.6q-.8 4.9-6.1 9.1-3.5 2.6-8.9 5l-1.4.6-3.6 1.4q-5.6 2-12 3.2-11 2.2-24.2 2.2h-5l-.4-.1-10.2-.7h-.2l-1-.2v-4.7h1l10.4.8h.9l2.5.1h2q13.2 0 24.2-2.2 6.4-1.2 12-3.2l3.5-1.4 1.5-.6q4.8-2.1 8.1-4.4l.8-.6q3.1-2.5 4.6-5.2zm2.7 10.5v1h-.1zm4.6 1.6v4l-.5.4-2.1 1.5-.2.1-.4-.1-1-.3.1-2.7 2-1 .3-.3v1.7q.3.6 1.3 1.1-1-.6-1.2-1.1-.2-.4-.1-1.7l.7-.6.4-.4zm-1.6 6.4v3.9l-.5.4-2.1 1.5-.4.3-.6.3-.6.3.1-3.9.5-.2 1.6-.9.2-.2.7-.6.4-.4zm-2.5 26.6v-.4zM3.3 34.8 2.1 34 .4 32.4 0 32v-4l.6.6.3.4.5.6v1.7q-.3.5-1 1.1.7-.6 1-1.1v-1.7l.2.2L3 31zM45.4 5.5h1v.2zm8.9-.4h7.1V6h-7.1zm15.5.1 2.4.1 3.3.2-1.7.1-1.8.2-2.2.1zm2.4.1 1.5.3zm21.6 13.2v-.7zm26.6-2.2V21q-.3 1.8-1.3 3.7l-.4.7-.6.8q-1.4 2-3.8 3.8l-3.4 2.3-1.2.8-4.3 2-1.4.6-3.6 1.3q-5.7 2-12 3.3-11 2.2-24.2 2.2h-2l-2.5-.1h-.9l-7-.4-3.4-.4-1-.1v-4.8l1 .1 10.4.8h5.4q13.1 0 24.2-2.1 6.3-1.3 12-3.2l3.5-1.4 1.5-.6 2.7-1.3q3.6-1.8 6.2-3.7l1.7-1.5q1.8-1.8 3-3.7 1-1.9 1.3-4m6.5 10.4q-1-.6-1.1-1.6.1 1 1.1 1.6m.5 23.2-.1-.2V49zm-2-16.7q-1-.6-1.1-1.6.2 1 1.1 1.6m-5.8-2.6-2 .7-.8.4.4-.4 1.8-1.8 1.4.6zm5.3 4.4q-1-.6-1.2-1.1-.2-.4-.1-1.7v1.7q.3.5 1.3 1.1m-9.4-2.3.5-.3.3-.2.4-.4v.9zm2 4.7v2.6l-.1-.1q-1-.7-1.4-1.9zm-1.5.5q.4 1.1 1.4 1.9l.1.1V41l-.1.1-.5.1q-2.1-.9-2.5-2.9zm-1.6.7q.4 2 2.5 3l-2.5 1-1.1.4-.1.1v-1.6 1.6l-1.4.5v-4zm8.3-3.6v1.5zm-32 7.7 1-.2q5.1-1.2 9.8-2.8l3.7-1.5h.1l1.4-.6 1.1-.5.5-.2-.3.6-2.3 1.2-.9 3.4-.6-.3-1.4-.6-1.4-.5h-.1l-5.5 1.2v.1h-1l-1.8 4.1v-1.1l-.1-.2-1.6-1.5zm2.2 2.1.1.2V47v-.3h1.3l-1.3.3v1.6l-1.3.3-1.5.3h-.6l-1.9.3-.1.1v-1 1l-.8.1v-4.2l5.2-.7zM105 42v2.7l-.7-.7-.1-.1-.2-.4-.3-.5-.1-.3v-.4zm-1.5.3v.4l.2.3.3.5.2.4.8.8V46l-1 .1-2 .4-.7.3-1 .2-1.5.4-.1-4.1 3.2-.6zM84 43.5v.6h-1.6L80.2 49h.4l-1.7.3h-1.4v1.5l-3 .4q-1.8-.2-2.8-.8l-.8-.6q-.5-.5-.6-1.2v3l3.9-.4h.3q-1.8-.2-2.8-.8l-.8-.6q-.5-.5-.6-1.2v-1.4l3.5-.3h.2q-.9 1.6 1.3 2h2.2v.4-.3l-2.2-.2q-2.2-.3-1.3-1.8l-.2-.1h.3-.1l2.3-.2 1.2-.2v-.2l-.6-.8.1-.2h-.2l-.2-.3-.4-.5 7.5-1zm5.5 3.1.1 2.4zm2-.6v2.7zm12.3-.1-1.1-1q-.6-1-1-2.4.4 1.5 1 2.3zm-34.1-1v.4h-2.2L65.3 50h-3.9v-3.6l-.1-1.4h6.2l1.7-.1zm-8.3 2.3v4.4H54v-4.3h3.3l.3 4.3-.2-4.4zM77.5 49v-2.5zm46.6-20.7v1.5zm-80.5-27h.2zm14 3.7.1 1zm-2.2.1V6zm-9.8 39.5V44l1 .1 8.2.6h-3.4l-2 4.3-.1.5-1.7-.2.5-.6v-.4l-.2-.1h.2v-3.3zm.3 2.5-.2 4.1-1.7-.3-2.5-.4-.9-.2-1.4-.2v-1.4l.8-.5q.9-.8 1-1.3v-.4h1.7zm10 4v.4zm-.7-2.8v3.3zm-28.8-3.4v-1l1.5.3v.4l-.3.7-1.2 1.2 1.2-1.2.3-.7V44l1.7.5 3.1.6-.2 4-1.3-.3-3.7-1q1.1-.5 1.8-2.1l.3-1.2-.4 1.2q-.6 1.5-1.7 2.1h-1.1zm13 3.3v-2l1.8.4v.4q-.2.5-1.2 1.3l-.6.5zm-8.2.2v.6zm11.6-1.7-.5 2-.6 1-1 .8 1-.7.5-1q.4-.9.6-2.1m-28-4q1-.7 1.4-1.9h.1v-.1.1q-.4 1.2-1.4 1.9V44l.6.3.8-.5.4-.4q.9-.7 1.2-1.7V41v.4q-.3 1-1.1 1.8l-.5.3-.8.5.8.4 2.8 1.1.9.4.6.1v-4l-2.7-1-1.5-.6-1.5-.7zM6.5 36l2.1 1 .1 4-1.6-1-.4-.3-.4-.3-1.3-.9q1-.6 1.2-1.1l.1-1.6-.7-.7-.4-.4-.7-.5v2.5h.2l.2-.2q.6-.6.7-1.4-.1.8-.7 1.4l-.2.1-.2.1V38l.5.4q1-.6 1.2-1.1l.1-1.6zm.7 2.6V40zM19.1 44v1.6zM0 30.7q.7-.7.9-1.7-.2 1-.9 1.6m2 1.8V34z"/><path fill="#2e2317" d="m78.6 5.7 4 .3.4 22.2-4.4.6zm11.4 1 3.9.5v18.3l-3.7 1.1-.2-16zM99.5 8l3.7.6.2 13.2-3.6 1.6-.3.1zm11.1 2 .8.1V16l-.7.8zm8.9 46.8h-2l-.3-12.3V41l.1-.1V37l.5-1.2 1.9.8V39zm-4.5 0h-1.8V50l-.1-7.4 1.1-.5zm-9.5 0h-4.2l-.1-10 .5.1.3-.6 1.8-.4 1.1-.1v-2.3l.3-.2zm-10.5 0h-3.4v-5.4l-.1-2.7 1.3-.3v-1.6l1.3-.3h.9zm-11.1 0h-5v-7.5l1.7-.2 3.2.1zm-9.7 0h-4.9v-6.5h.6l.4 1.3 3.9-.4zm-12.1 0h-6l-.1-5.2h5.4V50h.6zm-12.5 0H44l.1-5.9 1.7.3 1.9-2 1.7.3v.1h.2zm-13.3 0h-5l-.1-8 1.3.4 3.2-1.9.6.2zm-10.7 0h-3.2l.2-11.6 1.6-.8v-.3l1.3.4zm-10.9 0h-1.5l-.4-17.5.6-.3 1.4.8zm-3.4 0h-.8v-.1l-.2-1.8v-.7l-.2-1.4-.3-.6v-1.4l-.6.5.2-10.7L11 40zm1.4-47 .8-.2v3.2L13 11zm3.3-.6 1-.2-.1 8.2-.8-.7-.2-.4zm8.3-1.4 3.3-.5v16.2q-2-.7-3.6-1.6zm9.5-1.3 3.7-.4-.1 4.2-.1 16.5-4-1.3zm11-1v-.1l.6.1zL44.5 28l-.3.2 1.8.3h.3l.6.1.9.1 1.4.2V5.3l-2.5.1-.2.3-1.1-.2zM61.4 5h.4l.5 24.7h-.6l-2.6-.1H57V6h4.4zm7.5.2h.8l.3.7 2-.1v23.6l-3 .2-.1-17zm.3 11.3h.2zm21.5-2-.3-.1zm3.3 4v-.7l-.1.5zM14.3 53.8h.2z"/><path fill="#504c33" d="m82.6 6 2.4.3v23.5h-.1L83 28.2zm20.6 2.6 2.4.4-.1 14.7-2.1-1.5v-.4zm4.7 48.2h-2.5l-.2-13.5 2.5-1 .1 2 .1 3.5zm-21.6 0H84l-.2-7.6H86l.2.3.1 3.3zm-22.9 0h-1.3l-.1-6.7h1.2l.2 6.2zm-59.2-29L4 26.4v-3.6l.5 1.8v.3l.5.8.4 1L7 28.8l2.5 2.5q2.1 1.8 5.2 3.6l1.6.9 3.9 1.7 1 .4 1.4.7q5.1 1.9 10.8 3.3l2.9.7 1.6.3 3.8.7 2.4.3h.4l.4.1h.7v.7l-3.2-.4-1.5.7-.4.3-1.2.9v2l-.7-.1-.8-.2-1.5-.3-.7-.2v-3.8l-5.5-1.3-1.5.6-1.3.5-1 .5v1l-1-.2-1.1-.5v-3.6l-1-.4-2-.7-2.6-1.1h-.1L17 39l-1.2.6-1 .3h-.2l-1.4-.8v-3.8l-1-.4-2-.8L8.5 33h-.1l-1.7.5-.3-.3h.1v-3.9l-.7-.4-1.5-.8zm3.1-15.5V11h.2l.2 1 .3 1 .8 1.6 1.3 1.9q2.3 2.9 6.7 5.5 3 1.8 7 3.4 5.4 2.3 11.6 3.8 5 1.2 10.6 1.9h.4l.6.1V36h-.6l-.3-.1-10.9-2q-6.1-1.5-11.4-3.6L21.1 29q-7-3.2-10.5-7-2-2.3-2.8-4.7V20q.1 1.3.6 2.8 2.2 6.7 13.4 11.8l2.5 1.1q5.3 2.2 11.4 3.7 5.1 1.3 10.8 2h.4l.6.1v-4.8l-.6-.1h-.4l-10.6-2q-6.2-1.5-11.6-3.7L20.1 29q-3.6-1.9-6.2-3.9-2-1.4-3.3-3-2-2.3-2.8-4.7-.5-1.4-.6-2.9zM61.8 5h1.3l.1 5.5v21.3H63l-.9-1.5v-.6zM22 23.4h-.1v-.1zm20.5 6v.1"/><path fill="#575243" d="m85 6.3 2.5.2-2.5.6zM69.3 56.8h-5.9v-.5l-.2-6.2 2.1-.1 1.5.1.8.1v2.2q-.6-1.1-.7-2.2.1 1 .7 2.2v-2.2h1.7zm-27.7 0h-5.3v-.7l1.2-3.3.4-1v2-2l-.4 1-1.2 3.3v-8.6l1.6.3.8.2h.6v2l1.4.3.9.2-.1 3.3zm-4-50.6L39 6l3.5-.3-.1 2.4v21.3h-.1l-5-.6v-2.1l.1-16.4 1.3-3.5.3-.6-.1 2v-2l-.2.6-1.3 3.5zm25.7-1h4.1l1.5.1.1 6.7-.2.1-1.3-3.5V6.8l-.1-1.7v3.4l1.4 3.5-4.5.8-.9-2.3.9 2.3-.9.2v-2.5zm3.5.1q.2.8.7 1.7-.5-.9-.7-1.7m.7 3.4v2zM108 42.5l1-.4 2 .9-3 1.5zm-21.6 7.2h.4l.8-.1h2.1l.2-.4h.3l1.5-.3v2.6l-1.5.5v-3 2.8l-3.7 1zm3.8.8q-.5-.5-.6-.8zm-22.2 6v-2l1 2.5-1-2.5zm0-2-.1-1.9zM41 25.3l.9 2.4.5 1.7-.5-1.6zM39 6.2V6zm.9 11.3-.2 1.5q.2 2.6.8 4.7-.6-2.1-.8-4.7zm.3-1.3q.7-3.6 2.3-8-1.6 4.4-2.4 8M38.8 48q-.2.9-.8 1.9v-2.1 2.1q.6-1 .8-2m-.8 3.9v-1.9zm2.6 5 1-3zm23.1 0-.2-.5z"/><path fill="#676456" d="m87.5 6.5 1 .1 1.5.2v3.8l-1.3-3.8-.2-.2v1.8-1.8l.2.2 1.3 3.8.2 16 3.6-1h.1l5.5-2 .1-.1.3-.1 3.6-1.6v.4l2 1.5h.1l.1.1v-.1l5-2.2h.1v-4.7 4.7l-5 2.2h-.1v.1h-.1l-.1-.1h.1V9l2.2.4 2.9.6v6.8l.8-.8 1.6-2.2.7-1.4.5-1.7.5.1v3.1l2 1.6h.1v-.1l-.1-3.2V12l-.1-.7v-.7l1.8.7 1.1.5-1.2 2.8q-1.5 2.7-4.6 5.2l-.8.6q-3.3 2.3-8.1 4.4l-1.5.6-3.5 1.4q-5.6 2-12 3.2-11 2.2-24.2 2.2H59l-.5-.1h-.4l-10.4-.8h-1l-.5-.2H46l6.9-1.9 4 .3 1.3.1h3.4l.6.1v.6l.9 1.5.1-18.8.9-.2.8 2 1.3 3.8-1.4-3.8-.7-2 4.5-.8h.2v.6l.1 17 3-.2v.8-.8l6.7-.6 4.4-.7v.1l1.9 1.6h.1V7.1zm32.3 5.4.4.1.2 1.7v.6q1.6 2.4 1.8 5.5v2.5l-.1 1-1.1.6-2 .8-.3.7 1.8.8-1.4-1.5q1-1.9 1.3-3.7v-5q-.3 2.1-1.5 4-1 2-3 3.7l-1.7 1.5q-2.5 1.9-6.1 3.7l-2.7 1.3-1.5.6-3.5 1.4q-5.7 1.9-12 3.2-11 2.1-24.2 2.1h-5.4l-10.4-.8-1-.1-.5-.1h-.4L48 36l10.2.8h5.4q13.2 0 24.2-2.1 6.4-1.2 12-3.2l3.6-1.4 1.4-.6q5.4-2.4 8.9-5 5.3-4.2 6-9.1zm2.5 11.4.6-.5h.1l2.3.7.6.2 1 .3-.7.5q-.9-.5-.2-.8-.7.3.2.8l-.4.4-.7.6-.2.3-2.1 1h-.5l-1-.3-.4-.2-.2-.1h-.1l-1.4-1.5 1.9-.8 1-.6zm1.8 6.6.3.1.9.3-.7.5-.4.4-.7.6-.2.2q-.5-.8-.4-1.4t.8-.8l-1-.3-1.3-.3-.8.7-1 .4h-.1.2l.9-.4.8-.7-1.1.6-.8.4-2 .8 1.3 1.3.1.2-.1-.2-1.2-1.2-1 .3.5-.4 1.8-1.8-.7-.2v-3q-1.4 2.1-3.8 4l-3.4 2.2h4.4l.5-.3.3-.2.4-.4 2.3 1.1h.2l.3.1.3.2.3.1 1 .2h.2l.5-.2 1.6-.9q-.5-.8-.4-1.4t.8-.8zm-1.8 6.5v14.3l.5 2.1.1 1v2.6l.1.4h-.2v-.4.4h-3.2l.3-17.6-.1-2.7 1.3.5.6-.4v.4q.3.8.4 2v.3l.2 2-.2-2v-.2q-.1-1.3-.4-2v-.5zm-4.7 20.4h-.7l.2-.8v-2.3l-.1-.9-.2-1.1-.4-1.7-.4-1.4.3-4.9.1.1.9.7zm-4.3 0H108v-9l-.1-3.5 3-1.5.2.1.5.3h.1l1.4-.5.1-.1V50zm-21.6 0h-5.3v-4.1l3.7-1 1.5-.4.1 5.1zM4.4 40.1v-5.9l.2-.1v4q0 1.5-.2 2M0 28.1l.8-.3.5-.3L3 27l1.1 1 .3.1h-.2q-.7-.2-1.2-1 .5.8 1.2 1h.2l1.5.8.7.4-1.7 1-.2.1-.2.1-.2.2-1.2.3-1.5-1-.2-.2-.5-.7-.3-.4zm68.6-16 .2.6zm-2.2 7.8.2 1.6-.8 4.6.8-4.6zm21.3-2 .1 1.6-.7 4.6.8-4.6zm-1.2 7.8-.7 2-.7 2.2.7-2.2zm3.7 3.4v-2.4zm-5.2.8 5-.8zm2.4-13.3q-.8-3.6-2.4-8 1.6 4.4 2.4 8m29.4-1q.3-.9 0-2.7l-.2-.5.1.5q.4 1.8.2 2.7zm-.2 0h.2zm1.7-4.2-1.5 4.1zm-10.2.3.2 1.6-.8 4.6.8-4.6zm-.3-1.3-.2-1zm-2.3 13.3 1.3-4zM51.8 42l7 .3.4.1h5q13.1 0 24.2-2.1 6.3-1.3 12-3.2l3.6-1.4 1.4-.6 4.3-2-1.6 3.4-.5.3-1.1.4-1.4.6h-.1l-3.7 1.5q-4.7 1.6-9.8 2.8l-1 .2.6.6 1.6 1.5-1 .1-5.1.8h-.1l-.7-.7-1.6-1.5 6.3-.9v.1l-6.3.8H84v.4h-.3l-7.5 1-.2-.3-6.2.5h-.1v.1l-.5.1h-1.7l-4 .1h-2.2v1.4l.1.8h-7.3l.5-1.6.3-.6 1.7-.2H61h-6.1l-8.2-.7-1-.1-.7-.1h-.3zm71-19-.6.6-.2.2-.8.3-.2-.1h.2l.8-.2.2-.2zm2.4.7q-1.4.6-.5 2.3-.9-1.7.5-2.3m-4.9-7.4.1-1.8zm-6.9 19.3 1.5.5 1.3.6 1 .5-1.5.5q-.2-.5.5-1-.7.5-.5 1l-1.6.7-2.6 1-.6-.2-.3-.2-.4-.1-2.4-1v-.1l1-.4 1.9-.7zm7 12.1q-.2-.9-.2-3.9.1-2.7-.5-4.5.6 1.8.5 4.5 0 3 .2 4m-25-6.1 5.6-1.2 1.5.5 1.4.6.6.3.3.1-1.5.3q-.1-.2.3-.5l.3-.2-.3.2q-.4.3-.2.5l-1.7.4q-.3-.5 0-.9l.8-.8-.8.8q-.3.4 0 .9l-3.2.6zm15.2-5h.2q1.8-.4 2.5-1.1-.7.8-2.5 1.1zm4.2-.6q-1 .6-1 1.6l.2.6v.1l-.1-.7q-.1-1 .9-1.6m-6.2 1.3 1.5 1.4zm2.7 6v.6l-.5-.9.5 1zm0 .6v3.9zm-1.1 12.4-.8-3.4-1.7-5 1.7 5zm1.2-10.5 1.6 4.3zm5.1 6 .2 1.1.1.9v1.8l-.4-1.2zm4-2.7.3 1.6-.3 2.2-.6 2.6.6-2.6.3-2.2zm1.4 6.3-.6 1.5zm0 0v-4.6zm2.2-25.2q-.7.3.2.8-.9-.5-.2-.8m-39-.4-.1-.1zm2.8 14.4-2 .3zm2.2 9.8v-2l.3.7 1.3 3.6-1.3-3.6-.3-.7zm0-2.4v.4zm-2.7 5.1-1-2.6zm1.5-13.5 2.3-.4zM65.3 27.7l-.8 1.4-.3.6-1 2.1 1-2.1.3-.6zm3.6 1.9v2l-5.7.2 5.8-.2zm1.4 17.6-.4-2-.2-.5 6.3-.5.2.3.3.5-2 .3q-1.2.5-.5 1.6h-.2zm1.5-2.2-1.9.3zm2.3 1.8q-.8-1.1.4-1.6l2-.3.3.3.1.2.6.8v.3l-1.2.1zM9.3 14.4v-.1q-.3-1 0-2.7l.2-.6-.1 3.2v.1h-.1.1zv-.1m12.5 9.1-.1.1zm0 0 .1-.1zM61.4.7V1l-.6-.5zm-19 28.9v-.1h.2-.1v.1zh.1zm20.9 2.3h.5zm0 0h.5zm-15.1 13-.2.1-2 2.1-3.2-.6q.3-.5-1.8-1.6l1.5-.6 3.2.3zM41 45q2.1 1 1.8 1.6h-1.6l-.7-.6q-.2-.4.1-.7l-1.2.9 1.8.4-.7-.6q-.2-.4.1-.7zm20-.1h.2v.2-.2zm.4 1.6-.8-.6q-.9-.6-2.9-.9h-.4.5q1.9.3 2.8 1zm-6.8-.8q3.6.4 2.6 1.6 1-1.2-2.6-1.6m-30.3-5.2v.1l-2.4 1-.4.2-.4.1-.5.3-2.7-1.1-1.5-.6-1.5-.7 1-.3 1.2-.6 1.5-.6h.1l2.7 1.1 1.9.8zm2.1 3.3 1-.5 1.3-.5 1.4-.6h.1l5.6 1.3-3 1.6-3.2-.6q.5-1-.9-1.7 1.4.7.9 1.7l-1.7-.5q.2-.2-.5-.7.7.5.5.8zm-13.1-8.6-2.3 1-.1.1-.4.1-.4.1-.1.1-.5.1-.8.2-2.1-1 .3-.5v-1.2l-.7-.7.5-.1 1.8-.5 1.9 1.1 2 .8zm8.2 4.2h-.2q-2-.3-2.5-1.1.6.8 2.4 1.1zm-5.5 0q.6.6.5 1 .1-.4-.5-1M8.6 33q.7 1 1.6 1.1h.2-.2q-1-.1-1.6-1.1m-2.4.6.7.6v1.3l-.3.5-.2-.2-.7-.7-.4-.4-.7-.5.3-.2H5l.4-.1h.2zm6.2 1.2L11 36.3zm-6.5-6-1 1.4zm-.6 5.8q.8-.5.3-.9.5.4-.3.9m11.8 4.3q1.4.8.8 2.2.6-1.5-.7-2.2m-16-11.4q1 .8.4 2.3.6-1.6-.4-2.3M22 41.7l1.4-1.5zM.8 27.8q.4.3-.2.8.6-.5.2-.8"/><path fill="#1b160e" d="m93.9 7.3 5.5.7.1 15.5h-.1q-2.7 1.1-5.5 2zm17.5 2.8 2.8.6-.5 1.8-.7 1.3-1.6 2.2zm5.4 46.7H115l-.8-14.6 2.5-1 .5-.2v3.5l-.9-.7-.1-.1-.3 4.9.4 1.4.4 1.6-.1 2.7.4 1.3v.4zm-15.5 0H95V46.6l3 .1.8.5 1.4-.4h1zm-22.5 0h-4.5l-.1-5.5.3-.1 3-.4v-1.5h1.3zm-22.7 0h-6.5v-7.1l4.4.1v1.8h2zm-24.8 0h-5.7l-.1-12.2.9.2v3h1l3.8 1zm-18.2 0h-1.8L11 40l1.7-.7zm.4-47.1 2.5-.5-.2 7-1.8-2.4-.2-.5-.3-.5zm14.2-2.3 6.1-.8-.5 19q-3-.8-5.6-1.9h-.1zm21.6-2 5-.2V6l1.3.1H57v23.5l-4-.2-1.3-.2-2.4-.2zm26.3.2 3.1.2v23.1l-6.6.6V5.8l1.8-.2zM13.3 38.9v.1m-4 12.3"/><path fill="#1c1309" d="m114.7 10.8 1.9.4v.7l.1.3.1 3.2v.1l-2.1-1.6zM9 56.8H7v-.2l.1-.7-.3-16.3.5.2 1.5 1 .6-.2-.2 10.6zm.5-46.3 2-.5v1l-.1 1.7-2 1.6h-.1l.1-3.3v-.2z"/><path fill="#322a1c" d="M44 56.8h-2.5v-3l.1-3.3 2.5.4zm-21.6 0H20V46l.6.1 2-1zm-.5-48.6 2.4-.4-.3 14v.1l-2 1.5-.1-.1zm20.6-2.4 2.4-.2-.4 22.5-.3.2-1.7 1.3v-.1l-.1-21.2z"/><path fill="#4e4637" d="M20 56.8h-5.4l.1-7.1 1.6-4.4v2.1-3l2.8 1.2.9.4zM16.9 9.1l3-.6 2-.4v15.2h-.1l-1.1-3.2-.3-.9.3 1 1.1 3.1-5-2.1V9m2.4 2.4-.1 1.6.8 4.5L19 13zm.3-1.3.4-1.6zm-4.7 29.7v4l.7.3.8.4v.8l-1.6 4.4zm2.8 16 .7-3 1.8-5.3-1.8 5.3z"/><path fill="#261f13" d="M10.5 56.8H9.1l.1-5.5.6-.5v1.4l-.6-.9.6.9.3.6.2 1.4v.7zm-5 0h-1v-2.7zM4 22.8v-2.4q.1-4.9 3.2-8.1v2.2q.1 1.5.6 3v2.4q.1 1.4.6 2.9zM7.2 11l.9-.2v.2zm4.4-1 1.2-.2.1 1.1v.1h-1.3zm.1-4.2v-.2z"/><path fill="#332412" d="M7 56.8H5.5l-1-2.7V54l-.1-13.9q.2-.5.2-2V38l.5.4 1.3.9.4.3.3 16.3-.1.6zm1.1-46 1.5-.3v.3l-.1.2-.1.6q-.4 1.7-.1 2.7L8.1 11zM6.8 33.4l-.6.1-.6.3h-.2v-.1l-.4.2.4-.1v-.1l1.1-.6zm-.7 13q.2-1 .2-4-.2-1.7.1-3.1-.3 1.4-.2 3 .1 3-.1 4m-.2 1.4-.3 1.6v.2l.5 3.3.4 1.4-.4-1.4-.5-3.3v-.2z"/><path fill="#33311f" d="m4.4 34.2-1.2.6-.1-3.9 1.2-.3.2-.2.3-.1 1.8-1v3.2h-.1l.1.1v.4l-.1.1-1.1.6-.4.2h-.1l-.3.1v.1zm42-28.8h.3l-.2.3zm23.1-.2h.3v.7zm-22 36.3.9.1 3.4.4-7.1 1.8h-.5l-2.4-.3-3.8-.7-1.6-.3-3-.7q-5.6-1.4-10.6-3.3l-1.5-.7-1-.4-3.9-1.7-1.6-.9q-3.1-1.7-5.2-3.6L7 28.8l-1.6-2.3-.4-.9-.5-.9v-.2L4 22.8h4.3q2.2 6.7 13.4 11.8l2.5 1.1q5.3 2.2 11.4 3.7 5.1 1.3 10.8 2h.4zM118 26.2l.6-.8 1.8.8.3.1.4.2 1 .3h.5l-.1 2.7-1.3-.3-1.1.6-1.4-.6-.7-.2v-.5h.1-.1zm.8 6.4.3.1.4.2.3.1 1 .2h.2l-.1 4-1.3-.6-1.9-.7-1.3-.5V35l.1-.1h-.1v-3.3zm-23.2 9.1v-.1l3 1.6.2 4.1-.8-.5-2.5-1.4V45l.2-.1h-.2zM108 41v-3.3l2.3 1h.1l.4.1.3.2.6.2v4h-.1l-.5-.3-.2-.1-2-.9-.9-.4zm0-.2q.3 0 .1.2.2-.2-.1-.2m-24 2.7v-.4h.3l1.5 1.5.8.7.1.2v4h-.4l-.2-.2-1.9-1.5-.1-3.6zm-14.3 1.3.2.5.4 2v4.4l-.4-1.3-.4-1 .2-4zm-56.2-32 .3.5.2.5 1.8 2.3.2.4.8.7v4l5 2.1v.1h.1-.1v.1h.1v-.1h.1-.1.1l2-1.5q1.6.9 3.6 1.6v.8-.7l5.6 2 4.1 1.1v2l5 .8v.1l.2-.1 1.7-1.3 1.8.3h.3l.6.1.9.1 1.4.2 2.4.3h1.3l-7 1.9q-5.6-.7-10.6-2-6.2-1.5-11.6-3.7-4-1.6-7-3.4-4.4-2.6-6.7-5.5l-1.3-1.9-.8-1.6-.3-1-.2-1H8l1.2 3.3v.1l.2-.1 2-1.6V11H13zm-4 1.5-.2.1v-.1.1zm39.8 15.3v-.7zM10.6 22q3.5 4 10.5 7.1l2.6 1.1Q29 32.5 35.1 34L46 36h.3l.6.1.9.1h.3l-1.6.4-10.6-1.9q-6.2-1.5-11.6-3.7l-4.2-2q-3.6-1.9-6.2-3.9-2-1.4-3.3-3M22 23.3v-.1zm-.1 0v.1M33.2 26v-.5zM46 47.3l2-2.2h.2v3.2H48l.2.1v.4l-.5.5-1.9 2zm-3.5-17.8-.1.1v-.1.1-.1zm-18.2 11V44H24h.1v.5l-1.6.8-2 1v-4l.5-.3.4-.1.4-.2zm11.5 2.9v3.3h-.1v.5l-3.2 1.9.3-4.1zm-11.5.2q-.4 0-.2.2-.2-.2.1-.2m-11-8.5V39l-.5.3-1.7.7-1.6.6-.6.2-.1-3.9.8-.1.5-.2h.1l.4-.2.4-.1z"/><path fill="#161406" d="M69.1 16.5h.2zm21.5-2h-.3v-.1zm27.6 14h-.1zm-1.7 6.4v-.1h.1zm-8.6 6.3V41h.1zM14.2 53.8l.3-.1z"/><path fill="#191810" d="m109.7 33 1.2-.7h5.6v3l1.3.5-.5 1.3V37l-1-.5-1.3-.6-1.5-.5-2.7 1-2 .8-.9.4v3.9l.8.4-1 .4-2.5 1-.3.2v-1.7l-.3-.1.9-3.4 2.3-1.1.3-.7zM92.8 45.8l1.9-4.1h.8v3.2h.2l-.2.1v.4l2.5 1.4-3-.2h-2.2zM84 44.1l.1 3.7 1.9 1.5-2.2-.1-3.2-.2h-.3l2.1-4.9zm-14.3 1.1-.2 4.1.4 1h-.7l-1.6-.1h-.7l-1.6-.2 2.2-4.7zm-20.1 4.4V49l1.9-4.2H61h-4.4l-1.7.2-.3.6-.6 1.6v2.6z"/><path fill="none" stroke="#000" stroke-linecap="round" stroke-linejoin="round" stroke-opacity=".3" stroke-width="__RESOLUTION__" d="M116.6 11.2v-.6m2.9 1.2.3.1m2.4 24.5v14.3l-.1 4.5v.1l-.6 1.5M4.5 54l-.1-13.9v-5.9m78.6-6L82.6 6m-8.8-.4-1.6-.3m-5-.2v3.4l1.4 3.5.2.6V5.2m-1.5 1.6q-.5-.9-.7-1.7m-2.5 7.7.8 2 1.3 3.8M64 12.8l-.9-2.3v21.3m5.6-19.2.1 17v2l-5.7.2h0-.1m4.1-21.3v-2M65.9 26l.8-4.6-.2-1.6M83 28.2v.1l1.9 1.6h.1v.1l.1-.1.7-2.2.7-2m-1.5 4V6.3m5 4.3-1.3-3.8-.2-.2v1.8m1.5 2.2V6.8M87 24l.8-4.6-.1-1.6m2.5 8.8V29m0 0-5.1.8m20.5-6-2.1-1.5v-.4l-.2-13.2m-13 18-.2-16m-5-2.1q1.6 4.4 2.4 8m29.4-1-.1-3.2V12l-.1-.7v-.1m-2-.4.1 3.1 2 1.6h.2-.1.1v-.1q.3-.9 0-2.7l-.2-.5m.2 3.2 1.5-4m-10.8 6.5.8-4.6-.2-1.6m-.5-2.3.2 1m2.8 11v-4.6l-.1-6.8m0 11.5h.1m0 0-5 2.2h-.1v.1h-.1l-.1-.1h.1V9m0 14.7h.2l1.3-4m13.5 6.5-1.4-1.5m1.9-.8h.2l.8-.2.2-.2.6-.7m2 3q-1-1.7.4-2.3m.5 1.4q.1 1 1.1 1.6m-.5 1.8q-1-.6-1.2-1.1-.2-.4-.1-1.7m-1 5.8q.3 1 1.2 1.6m-1.6-3.1q-.7.3-.8.8t.4 1.4m-2-2.9-.7.8-1 .4h-.1m-2 .7 1.3 1.3.1.2m4.6-.7v1.7q.3.5 1.3 1.1m-8.9 3q.4 1.1 1.4 1.9l.1.1m-3.1-1.4q.4 2 2.5 3m4.9-4.6v.4q.3.8.4 2v.3l.2 2m-2.5-4.7V39q.7 1.8.6 4.5 0 3 .2 4m-7-12.2q-.7.8-2.5 1.1h-.2m3.4 1.7-.1-.7q-.1-1 .9-1.6m-4.7 2.8-1.5-1.5m2.2 5.7.5 1v-.7m0 4.5v-3.9m-3.7-1.5v2l.1 3.5 1.7 5 .8 3.4m-7-14.1v.4l.2.3.3.5.2.4h0l.8.8m8.2-1.9V50l.1 6.8m0-6.8-1.6-4.3m5.6-4.7v3.5l.3 12.3m2.6-1.4.6-2.6.3-2.2-.3-1.6M108 56.8v-9m-2.5 9-.2-13.5m14.3 13.5.3-17.6m-34 5.4 2-.3m-.4 5.1v-1m-1.1 4.4-.1-3.3m5.3-.9v2.7l.1 5.1v.4M90 49v3l.3.7 1.3 3.6m-2-7.4-.1-2.4m-.1 2.9.5.8m0 1.8v2m-3.6-1.4V54l1 2.7M91 42.9l-2.3.4m2.7 5.4V46m10.3-3.5q.3 1.5.9 2.3l1.1 1.1m-2-3.4q-.3-.5 0-.9l.8-.8m-39.3-9 .9-2.1.3-.6.8-1.4m4.6 17.6 1.9-.2m-5 5q.2 1.1.8 2.3v-2.2m2.8-1.6q0 .6.5 1.2l.8.6q1 .6 2.8.8m3-2.2-2.2-.2q-2.2-.3-1.3-1.8l-.2-.1m.3 0q-.7-1.1.5-1.6l2-.3m-7.8 11.8-1-2.5v2m18.6.5v-2.6m-17-4v6.6m14.5-7.6.1 7.6m-16.3-4.4v1.9M20 17.5 19 13l.1-1.6m.7-2.9-.4 1.6m-8 .9v1.7l-2 1.6-.2.1h0v-.1L8.1 11v-.2m3.5.2v-1m-2.1 1-.1.6q-.4 1.7-.1 2.7h.1m0 0 .1-3.3v-.2l.1-.3M4.4 28h-.2 0q-.7-.2-1.2-1m18.8-3.7-1.1-3.2-.3-.9m-3.6-2V9m5 14.3-5-2.1v-4m5.1 6.3v-.1h.1m-.1 0v.1zm0-15.3v15.1M42.5 5.6 42.4 8v21.3h0-.1l-5-.6v-2.1l.1-16.4 1.3-3.5.3-.6-.1 2m3.6 21.3 1.7-1.3.3-.2.4-22.5h.5m-3.1 24v-.1l-.5-1.6-.9-2.5M38.9 6v.2m-1.5 4.1V6.1M24 21.8l-2 1.5m2-1.6.3-14m16.1 15.9q-.6-2.1-.8-4.7l.2-1.5M42.4 8q-1.6 4.5-2.4 8.1m22.3 13.5L61.8 5m-4.1 1V5m-2.2 1v-.9m7.7 5.4L63.1 5m-.9 24.7v.6l.9 1.5.1.1h0m.5 0h-.5M41 44.8q2.1 1 1.8 1.6l-.5 2-.6 1-1 .8m16.7-5.5.4.1q1.9.3 2.8 1l.8.5m-6.1 5.1v-3.3m2-1 .3 4.4m-.4-4.4q1-1.2-2.6-1.6M42.5 29.4v.1l-.1.1v-.1h-.1m.1.1v-.1m-12.8 15q.5-1-.9-1.7m.9 1.7-.4 1.2q-.6 1.5-1.7 2.1m.4-3.7v.4l-.3.7-1.2 1.2m14.8 0v.5q-.2.5-1.2 1.3l-.6.5m-1.5-.9v2.1q.6-1 .8-2m-.8 5.9v-2l-.4 1-1.2 3.3v.7m1.6-6.9v1.9m6.2-.9-.1 5.9m-2.4-6.3-.1 3.3v3m0-3-1 3m22.9-.5v.5m-.2-6.7.2 6.2.2.5m-1.5 0-.1-6.7m-25.6-2.6-.1 8.5M18.7 38.3q.6.8 2.4 1.1h.3m-5 1-.1.1v.1q-.4 1.2-1.4 1.9m.6 1.6.8-.5.4-.4q.9-.7 1.2-1.7V41q.6-1.5-.7-2.2M10.3 34h-.2q-1-.1-1.6-1.1m-2.4.6.7.6v1.3l-.3.5m4.4.4 1.4-1.5m-7.5-4.5 1-1.5m-1.3 7.8h.2l.2-.2q.6-.6.7-1.4m-.3-1.2v-.1M5 38.4q1-.6 1.2-1.1l.1-1.6M4.6 38v.1q0 1.5-.2 2m2-.8q-.3 1.4-.2 3 .1 3-.1 4m.4 7.9-.4-1.4-.5-3.3v-.2l.3-1.6m3.3 3.5.2-10.6m6.9 3.9v2.9M20 46v10.8m0-9.3-1.8 5.3-.7 3m-2.8-6.1 1.6-4.4m-1.6-5.5v17M.3 32.5l1-1.2v-1.7M.9 29q-.2 1-.9 1.6m1.6-.8q.6-1.6-.4-2.3m5.6 12.1.3 16.3-.1.6v.3m-1.5 0-1-2.7m4.7-2.9-.1 5.6m13.3 0 .2-11.6m.7-5-1.4 1.4" vector-effect="non-scaling-stroke"/><path fill="none" stroke="#231b0f" stroke-linecap="round" stroke-linejoin="round" stroke-width="__RESOLUTION__" d="m120.2 12 .2 1.7v.6q1.6 2.4 1.8 5.5v3.5m0 27.4.5 2.1.1 1v2.6l.1.4m-118.4 0v-2.7m-.4-26.3L4 26.4v-5.9q.1-4.9 3.2-8.1V11m71.4 17.8 4.4-.7m-14.1 1.5 3-.2 6.7-.6m15.3-3.3-3.7 1.1m13.2-4.9-3.6 1.7-.3.1h-.1q-2.7 1.1-5.5 2M48 36.2l10.2.8h5.4q13.2 0 24.2-2.1 6.4-1.2 12-3.2l3.6-1.4 1.4-.6q5.4-2.4 8.9-5 5.3-4.2 6-9.1V12m-8.3 4.1 1.6-2.2.7-1.4.5-1.7m4.5 14.7.4-.7q1-1.9 1.3-3.7v-6.7m-73 27.2 1 .1 3.4.4 7 .3.4.1h5q13.1 0 24.2-2.1 6.3-1.3 12-3.2l3.6-1.4 1.4-.6 4.3-2 1.2-.8 3.3-2.2q2.5-1.9 3.9-4l.6-.7m-8-8.6.7-.8m5.8 28.5-.9-.7-.1-.1m-.3 4.9.4 1.4.4 1.6.2 1.2.1.9V56l-.2.8m6 0v-.4m-6.2-2 .4 1.1m-24.2-8.7 1.3-.3M61.4 50h3.9m15.3-1-1.7.3m0 0h-1.4m-63.7-36 .2.5 1.8 2.3m-2.3-3.3-.6-1.8h0l-.2-1.2M53 29.3l-1.3-.2-2.4-.2-1.4-.1-1-.2-.5-.1H46l-1.8-.3M8.4 22.8q-.5-1.5-.6-2.9v-2.4q-.5-1.5-.6-3v-2.2m.6 5.1q.8 2.4 2.8 4.6 3.5 4 10.5 7.1l2.6 1.1Q29 32.5 35.1 34L46 36h.3l.6.1.9.1h.3M16 16.5l.8.7m7.2 4.7q1.6.9 3.6 1.6v.1l5.6 2 4.1 1.1m19.6 2.8 1.3.1h3.4l.6.1M47.6 41.5l-.6-.1h-.4q-5.6-.7-10.8-2-6.1-1.5-11.4-3.6l-2.6-1.2Q10.7 29.5 8.5 22.7m41 26.8-1.7-.2m5.2-20 4 .2M24.3 44.2l1.2.4.9.3m9.3 2.5.6.2 1.6.3.8.2h.6m-26-9 1.4.8h.2m-8.4-6.7.3.3m2.4 17.9.6-.5m0 1.4-.6-.9m.6.9.3.6.2 1.4v.7l.2 1.8v.1" vector-effect="non-scaling-stroke"/><path fill="none" stroke="#1f190f" stroke-linecap="round" stroke-linejoin="round" stroke-width="__RESOLUTION__" d="m122.2 23.3.6-.5m.1 0 2.3.7.6.2 1 .3v3.9l-.5.4-2.1 1.5-.2.1.3.1.9.3v3.9l-.5.4-2.1 1.5-.4.3-.6.3-.6.3-1.3-.5-1.9-.7-1.3-.5M4.4 34.2l-1.2.6-1.1-.9-1.7-1.5L0 32v-4l.8-.2.5-.3L3 27m0 0 1.1 1 .3.1 1.5.8.7.4m112.5-4.5 1.9-.8 1-.6h.2m.4 6.2 1 .3.4.1m-2.7-.7 1.3.3m-3.2.8-2 .7-.8.4m2.8-1.1.8-.5-1.4-.6-.7-.2m2.1.8 1-.7m-3.9 7.9V41l-.1.1-.5.1-2.5 1-1.1.5-.1.1-1.4.5h-.1l-.5-.3-.2-.1-2-.9-.9-.4m5.6-6.1 1.5.5 1.3.6 1 .5m-21.7 4.5 5.5-1.2m0 0 1.5.5 1.4.6.6.3.3.1v4l-1 .1-2 .4-.7.3-1 .2-1.5.4-.7-.5-2.5-1.4m12.4-7.7 1-.4 1.9-.7 2.7-1.1m-68.1-30 1 .2.3-.3m-.9 45.8 1.9-2 .5-.5m0-3.8-2.5-.3-3.2-.4m0 0L41 45l-.4.3-1.2.9V50l1.3.3.9.2 2.5.4 1.7.3m-19.4-6.4v-1l1-.5 1.3-.5 1.4-.6m.1 0 5.6 1.3m0 3.8h-.1l-3.2 1.9-1.3-.4-3.7-1h-1.1v-3m-7.7-6.5 2.7 1.1 1.9.8 1 .3m-9.4-.7 1-.3 1.2-.6 1.5-.6m-3.7 4.2v1.3l.6.3.8.4 2.8 1.1.9.4.6.1 2-1 1.6-.7M15 39.8v2.7m-6.3-9.6 1.8 1.1 2 .8.8.4m-4.7-2.3-1.7.5-.6.1-.6.3h-.2l-.4.1H5l-.3.1v4h0l.5.4 1.3.9.4.3.5.2 1.5 1 .6-.2L11 40l1.7-.7.6-.3m-6.7-6-.1.1-1.1.6-.4.2m-.6.3.2-.1" vector-effect="non-scaling-stroke"/><path fill="none" stroke="#000" stroke-linecap="round" stroke-linejoin="round" stroke-opacity=".5" stroke-width="__RESOLUTION__" d="M2.9 27H3m82 2.9v-.1zm31.8-14.3v-.1m3.7 10.6.3.1m5.3-1.8q-.9-.5-.2-.8m-4.7 5.4.1.1m-2.5 3.3h.2l.3.1m-3 4q-.7.4-.5 1m6.8-1.5-.1-1.5m-9 .7v.1m-3.2 3.3.4.1m2.3 3.9V41m11.5-10.3q-.9-.5-.2-.8M104 41.4l-.3.2q-.4.3-.2.5m20.7-12.3-.1-1.5M21.9 23.5v-.1zv.1m41.3 8.3v.1h.5m-21.3-2.5v.1h0m0-.2v.1M28 44q.2-.2-.5-.7m13.8 3.2-.7-.6q-.2-.4.1-.7m-24.3-4.7q.1-.5-.5-1m-7.3-6.6h-.1m2 3.5.4-.1h0m-6.4-5.8.3-.2h0m2.5 9.5v-1.4m-1.7-4.6q.5.3-.3.8m13.8 11V44m2.8-2.4-.4.2M2 33.9v-1.5M.6 28.6q.6-.5.2-.8" vector-effect="non-scaling-stroke"/><path fill="none" stroke="#000" stroke-linecap="round" stroke-linejoin="round" stroke-opacity=".4" stroke-width="__RESOLUTION__" d="m118.7 25.4 1.8.8m.3.1.4.2 1 .3h.5l2-1 .3-.3.7-.6.4-.4.7-.6m-1.6 6.4-.7.5-.4.4-.7.6-.2.2-1.6.9h0l-.5.2h-.2l-1-.2-.3-.1-.3-.1m-1.2-4.2h.1m-1.7 3 2.3 1m-1.5 4.5-1.5.5-1.6.7-2.6 1-.6-.2-.3-.2m-2.7-1.1 2.3 1M108 41q.2-.2-.1-.2m0 .3.1-.1m-3.1.8-1.5.3-1.7.4-3.1.6-3-1.6M48.1 45H48l-2 2.1-3.2-.6h-1.6l-1.9-.4m-2-17.3v-.1m-4.5 16.4-3.2-.6-1.7-.5-1.5-.2m-2.2.1q-.3-.2 0-.2m8.6 1.4 3-1.6M17.9 41l-1.5-.6-1.5-.7m-8.3-4L8.7 37l.8-.1.5-.2h.1l.4-.2M3.1 31l1.2-.3.2-.2h0M5.7 35l-.4-.4-.7-.5h0m1.1.9.7.6.2.3m-.1-3.4.1.1m-1.7-2.4 1.7-1m14.9 12.6-.4.1-.5.3-2.7-1.1m-4.6-5.9-2.3 1m-9.6-6.6L.9 29l-.3-.4L0 28m1.4 1.6.2.2L3 31m18.8 10.7 2.4-1" vector-effect="non-scaling-stroke"/><path fill="none" stroke="#372c16" stroke-linecap="round" stroke-linejoin="round" stroke-width="__RESOLUTION__" d="M78.6 5.7v23.1m-6.6.6V5.8m21.9 19.7V7.3m5.5.7.1 15.5m11.9-7.5v-5.9m-10.2 36.7.1 10m13.7 0-.8-14.6m-13 4.6v-.2M72 29.4v.8m2.2 21v5.6m4.7-7.5v7.5m16.1 0V46.6M13.5 12.8l.3.5m2 2.8.2-6.9m-2.5.4v3.2M49.2 29v.7M15.8 16.1l.2.4m11.6 7.1V7.2m0 16.3v.7m5.6 1.2.6-19m-.5 19-.1.5M56.9 6v23.5M49.5 49l.1.6v7.2m6.4-5.2V51m0 .5.1 5.3m-24.9-8v-.6m-5.7-3.7v12.3m5.8 0-.1-8M11 40l.3 16.8m1.8 0-.4-17.5m36.5-34v23.6" vector-effect="non-scaling-stroke"/><path fill="none" stroke="#0f0f0e" stroke-linecap="round" stroke-linejoin="round" stroke-width="__RESOLUTION__" d="m73.8 5.6 1.8-.1m-5.7.4 2-.1 1.8-.2m-4.1-.4.3.7m20.6 36.4.6.6 1.6 1.5.1.2v3.8l-1.3.3h0L90 49h-.6l-1.9.3-.1.1-.8.1h-.4l-.2-.2-1.9-1.5-.1-3.6V43h.2zm-20.7 2.4v.6l-.2 4 .4 1 .4 1.3h0l3.9-.4h.3l3-.4v-4.5l-.6-.8-.1-.2-.2-.3-.4-.5-.2-.3zm-8.5.3v1.4l.1.8v4.4H54v-4.3l.6-1.7.3-.6 1.7-.2h4.6zm.1-40v1h-7V5" vector-effect="non-scaling-stroke"/><path fill="#2d220f" fill-opacity=".4" d="m89.9 3.3-1.5.2-.2.1v-.7zm-1.7-.4v.7h-.3l-1.7.3H86l-.7.1-.3.1h-.1l-2-1.7v-.2l2.4.3zm26 6.9.5.1v.9l-.5-.1zm-41-8.6.1.3zL69.7.9h-.5l-.1 3 .5 1.3h.3l2.3.1-1-.4-.8-.6q-.5-.5-.6-1.2.1.7.6 1.2l.8.6 1 .4 3.3.2 1.2-.2V4v1.4l-1.2.2 3.1.2v-2l-1.9.2v-.4h-2q-2.2-.5-1.4-1.9h-.1.1q-.8 1.4 1.4 1.8l2 .1v-2l-1.2-.2zM63 5h-5.4l-2.2.1h-1.2V1.9l.5-1.1 1.9-.1h4l.6.4v3.4h.5V5v-.5H63zm-13.8.3-2.5.1 1.5-1.6h1zm-4.4.1-2.3.2V5zM27.7 7.3l-3.4.5-2.4.3V4l2.5-.4 3.3-.5zM8 10.8l-.9.2V8.5zm21.8-8 4-.5 3-.4 3.4-.3 1.7-.2 1.6-.1q-.2 1-.6 1.8l-.5 1-.9.7-1.3-.2v-2h-.6l-.7-.2-1.5-.3-.6-.1-3 1.8zm13.9-1.5 3.6-.3-.8.8zM86 2.9v1zM56.7.7q1.3.4.8 1.2l.1 3.1-.1-3q.5-1-.8-1.4m-16.4.9v1zm1.7-.2v.2l-1 1.2-.7.5.7-.5 1-1.2zM61.4 5v-.5zm-5.9-2.2v2.3zM34 3.8v-.4zm-9.6 4V3.6z"/><path fill="#3d2e1d" fill-opacity=".4" d="M88.2 3.6h.3l1.4-.4.1 3.6-1.5-.2-1-.1-2.5-.2-.1-2.2h.4l.8-.2 1.8-.3zM88 4q0 .3.5.8v1.8-1.8Q88 4.3 88 4m.5-.5v1.3z"/><path fill="#2e2317" fill-opacity=".4" d="m84.9 4.1.1 2.2-2.4-.3V3.8 6l-4-.3v-2l.9-.1-.8.1h-.1l-1.9.2V1.5l3.3.3 2.9.4v.2zm5-.8 4 .7v3.3L90 6.8zm9.5 2 3.7 1v2.3L99.5 8zm11.1 3.2.8.3v1.3l-.8-.1zM16.9 9l-1 .2.2-4.2.8-.1zm-3.4.6-.7.2-.1-.6v-.7q0-.9-.4-1.7l-.1-.2-.4-.7.4-.1 1.3-.3z"/><path fill="#1b160e" fill-opacity=".4" d="m93.9 4 5.5 1.3V8L94 7.3zM33.8 6.5l-6.1.8V3.1l2.2-.3 4 1zM16 9.2l-2.5.4v-4l2.6-.6z"/><path fill="#1c1309" fill-opacity=".4" d="m103.2 6.3 2 .5.4.1V9l-2.4-.4zM11.6 10l-2 .5V6.3l2-.4z"/><path fill="#6f5f3d" fill-opacity=".4" d="m105.6 7 1.6.4 3.4 1.1V10l-2.9-.6-2.1-.4zm11 3.6 1.8.7v.3l-1.8-.4zm-9.4-3.2.5 2z"/><path fill="#1c1309" fill-opacity=".4" d="m111.4 8.8 2.8 1v.9l-2.8-.6zm3.3 1.1 1.9.7v.6l-2-.4zM37.6 6.1l-3.7.4V3.8l3-1.8.7.1z"/><path fill="#342719" fill-opacity=".4" d="m69.2 1-.1 2.8.5 1.4h-2.4l-.6-.1h-3.5l-.1-.6h-1.6l-.1-3.4V.6l5.5.2zM42.5 5.7 39 6l-1.5.1v-4l1.5.3.7.1.6.1v2l1.3.2.9.2zM21.9 8.1l-2 .4-3 .5V5l4.3-.8.7-.1zm46.9-3.3v.4zm-1.6 0V5zm-.7-.1.1.4zM19.9 8.5l.5-1.7.8-2.7-.8 2.7zm19-2.5V4.4q.6-1 .8-1.9-.2 1-.7 2zm0-1.6v-2zm26.2.1H63z"/><path fill="#1b160e" fill-opacity=".4" d="m54.3 5.1-5.1.2V3.8l.8.1h-.8l-1-.1-1.5 1.6h-.2l-1.1.1-.5-.1-2.4-.4-.9-.2.9-.7.5-1q.4-.8.6-1.8h.2l2.8.5.8-.8h1.3l2.6-.2h3.5l-.4 1.1-.1.1zm-5.6-1.8-.5.5z"/><path fill="#261f13" fill-opacity=".4" d="m12.8 9.8-1.2.2V6h.2l.4.7.1.2q.4.8.4 1.7z"/><path fill="#332412" fill-opacity=".4" d="m9.6 10.5-1.5.3-.8-2.3-.1-.2V7l.4-.1 1-.2 1-.3v4.2m-1-3.9v.2l.5 1.7-.5-1.7z"/><path fill="none" stroke="#000" stroke-linecap="round" stroke-linejoin="round" stroke-opacity=".1" stroke-width="__RESOLUTION__" d="M88.2 3.6h.3l1.4-.4M88.2 3v.7h-.3l-1.7.3H86l-.7.1-.3.1h-.1l.1 2.2m3.5.3V4.8Q88 4.3 88 4m26.2 5.8v.8m4.2.6v.3m-45-10-.2-.4m-4-.3-.1 3 .5 1.3m2.6.1-1-.4-.8-.6q-.5-.5-.6-1.2m3.5-1.6q-.8 1.4 1.4 1.8l2 .1v-2M83 2v.2l2 1.7m-6.3-.4.9-.1m3 2.6V3.8m-5.9.1v1.4l-1.2.2m3.1.2v-2l-1.9.2v-.4m-31.3 2-.5-.1v.1M7.1 11V8.3h0V7m4.4-1h.2l.4.7.1.2q.4.8.4 1.7v1.3M42 1.4l1.6-.1h.2l2.8.5.8-.8h1.3m12-.4.6.5V.6m7.5 4.6v-.4m-1.6.3v-.3m-.6.3-.1-.4m33 .6V8m3.7.6V6.3M93.9 4v3.3M86 3.9V3m4 3.9V3.3m-1.5 1.5V3.5m28 7.7.1-.6m-2-.7v.9m-9-3.9V9m2.1.4-.5-2m4.2 2.7V8.8m-.8 1.2V8.5M21.2 4.1l-.8 2.7-.5 1.7m2-.4V4m-8.4 1.5v4.1m2.5-.4V5m.9 4V5M9 8.5l-.5-1.7v-.2m1-.3v4.2m2-4.6V10m-3.5.8-.8-2.3M57.7 5l-.2-3q.5-1-.8-1.4m-1.9 0L54.4 2l-.1.1v3.1M33.9 3.8l3-1.8.6.1 1.5.3.7.1.6.1v-1m0 1v.7l.7-.5 1-1.2v-.2m1.6-.1q-.2 1-.6 1.8l-.5 1-.9.7.9.2 2.4.4M42.5 5v.7m-2.8-3.2q-.2 1-.7 2V6m2.6-1.2-1.3-.2V3.3m-6.5 3.2V3.8l-3.9-1m31.9 1.7V5m1.3 0-.1-.5h-1.6V5M49.2 3.8v1.5m.8-1.4h-.8l-1-.1-1.5 1.6m1.5-1.6.5-.5m12.6-2.2v3.4m-5.7.6V2.8M37.4 6.1v-4m-9.9 5.2V3.1m6.3.3v.4m5-1.4v2m-14.5-.8-.1 4.2M63 4.5h2.2" vector-effect="non-scaling-stroke"/></g><g id="g" transform="translate(-45.95 -188.3)"><use xlink:href="#a" width="114.7" height="125.9" transform="translate(52.5 188.3)"/><use xlink:href="#b" width="127.3" height="56.8" transform="translate(45.95 286.85)"/><use xlink:href="#c" width="112.2" height="63.9" transform="translate(53.95 240.05)"/></g><linearGradient id="d" x1="-819.2" x2="819.2" gradientTransform="matrix(0 -.08 -.05 .01 95.85 296.75)" gradientUnits="userSpaceOnUse" spreadMethod="pad"><stop offset=".7" stop-color="#23231c" stop-opacity=".4"/><stop offset="1" stop-color="#483f2a" stop-opacity="0"/></linearGradient><clipPath id="f"><path d="M1 1h197v275H1z"/></clipPath><path id="a" fill="url(#d)" d="m165.2 195.3-13.2.1 13.1-7.1q-.2 3.5.1 7m-39.2 14 17.7.3 21.7.4q0 2 .3 3.8l-42.1.6-7.1.1zm17.7-9.5 21.3.6q.3 2.6.3 5.2l-32.9.3zM83.4 239l13.8-.2 58.7-.3h9.9v.9h-3.3q-39.7.3-79.1 0l-12.7-.2v-.1zm19.7-9 48.7-.1h14l.2 4.9-82.4.3h-5.3l9-4.9zm-19.8 13.6-21.2.2 3.6-2h9l8.6.1 77.3.6h5.6q-.5.2-.1.3l-65.3.7zm5.8-14.4 25.6-13.8q25.5 0 51 .6l.2 13.8-21.8-.2-52-.3zm26.7 25.5H98.6l-39.4.1-4.6.1-.1-3.8h41.2l65.3.1h5.2l-.1 1.6-52.7.8-3 .5zM92.3 262h9.6l-47.6 2.4v-2.3H59zm60.9 0h1.1-52.4l56.2-2.9h8.1q0 1.1.3 2.2zm4.9-2.9-13.2.1q-46.2.1-90.4 1l.1-4.2h25l54.6-.1 1.5.1 4.5.4h-5.3l-4.8.1-3.6.3 2.8.4 36.9.7v.8zm-38.7 8.7 46.8-.2q.8 23.3 1 46.5H52.5l1.8-48.6 23.2-.5 57.9-.7 31-.2-.1 2.2h-28.7q-15.5.1-18.2 1.5m-64.8-20 .3-.1q51 .5 102.5.6l8.8.1v2.2H79.9l-25.4.1z" transform="translate(-52.5 -188.3)"/></defs><g clip-path="url(#f)"><use xlink:href="#g" width="127.3" height="155.3" transform="matrix(1.5451 0 0 -1.7657 1 275.3)"/></g></svg>