<svg xmlns="http://www.w3.org/2000/svg" xmlns:xlink="http://www.w3.org/1999/xlink" width="41" height="34" viewBox="0 0 41 34"><defs><linearGradient id="l" x1="-819.2" x2="819.2" gradientTransform="matrix(-.02 .01 -.01 -.01 26.25 52.15)" gradientUnits="userSpaceOnUse" spreadMethod="pad"><stop offset="0" stop-color="#813a26" stop-opacity="1"/><stop offset="1" stop-color="#d66038" stop-opacity="1"/></linearGradient><linearGradient id="k" x1="-819.2" x2="819.2" gradientTransform="matrix(-.03 .01 0 -.01 28.55 56.5)" gradientUnits="userSpaceOnUse" spreadMethod="pad"><stop offset="0" stop-color="#55251a" stop-opacity="1"/><stop offset="1" stop-color="#b74326" stop-opacity="1"/></linearGradient><linearGradient id="j" x1="-819.2" x2="819.2" gradientTransform="matrix(0 -.02 -.01 0 41.55 18.35)" gradientUnits="userSpaceOnUse" spreadMethod="pad"><stop offset="0" stop-color="#4a2313" stop-opacity="1"/><stop offset="1" stop-color="#e4aa23" stop-opacity="1"/></linearGradient><linearGradient id="i" x1="-819.2" x2="819.2" gradientTransform="matrix(0 -.02 -.01 0 42.8 22.3)" gradientUnits="userSpaceOnUse" spreadMethod="pad"><stop offset="0" stop-color="#2f5f6a" stop-opacity="1"/><stop offset="0" stop-color="#6a341c" stop-opacity="1"/><stop offset="1" stop-color="#eabd4a" stop-opacity="1"/></linearGradient><linearGradient id="h" x1="-819.2" x2="819.2" gradientTransform="matrix(.02 .01 0 .01 70.6 42.6)" gradientUnits="userSpaceOnUse" spreadMethod="pad"><stop offset="0" stop-color="#813a26" stop-opacity="1"/><stop offset="1" stop-color="#d66038" stop-opacity="1"/></linearGradient><linearGradient id="g" x1="-819.2" x2="819.2" gradientTransform="matrix(.03 0 0 .01 68.5 49.35)" gradientUnits="userSpaceOnUse" spreadMethod="pad"><stop offset="0" stop-color="#55251a" stop-opacity="1"/><stop offset="1" stop-color="#b74326" stop-opacity="1"/></linearGradient><linearGradient id="f" x1="-819.2" x2="819.2" gradientTransform="matrix(-.02 -.01 0 -.01 19.05 37.1)" gradientUnits="userSpaceOnUse" spreadMethod="pad"><stop offset="0" stop-color="#55251a" stop-opacity="1"/><stop offset="1" stop-color="#b74326" stop-opacity="1"/></linearGradient><linearGradient id="e" x1="-819.2" x2="819.2" gradientTransform="matrix(-.02 -.01 0 -.01 21.4 31.7)" gradientUnits="userSpaceOnUse" spreadMethod="pad"><stop offset="0" stop-color="#813a26" stop-opacity="1"/><stop offset="1" stop-color="#d66038" stop-opacity="1"/></linearGradient><linearGradient id="d" x1="-819.2" x2="819.2" gradientTransform="matrix(.02 -.01 0 .01 62.35 23.95)" gradientUnits="userSpaceOnUse" spreadMethod="pad"><stop offset="0" stop-color="#813a26" stop-opacity="1"/><stop offset="1" stop-color="#d66038" stop-opacity="1"/></linearGradient><linearGradient id="c" x1="-819.2" x2="819.2" gradientTransform="matrix(.02 -.01 0 0 68.25 28.65)" gradientUnits="userSpaceOnUse" spreadMethod="pad"><stop offset="0" stop-color="#55251a" stop-opacity="1"/><stop offset="1" stop-color="#b74326" stop-opacity="1"/></linearGradient><path id="a" fill="#fff" fill-opacity=".1" d="m13-20.9 4.2 1.4q1.3.6.7 1.2t-2.3.5q-1.2 0-5.2-1.6-4-1.5-7.1-1.5l-2.9.3.1.1q8.8 2.1 8.8 5.4l-.4 1Q7.7-13 2.7-13q-3.5 0-6.8-2.7-5.7-4.5-7.2-5.3.3-1.1 6.8-1.1 5.5-.6 10.1-.1zm3.6 15.7Q12.2-2.3 8.5.7L1.1 7.8l10.7-6q7.5-4.2 10.5-4.2 1.2 0 1.9.4.9.5.9 1.7 0 4-7 6.7-2.4.9-8.9 2.3-7.8 1.7-13.7 5.5-2.5 1.5-7 5.3l2.2-3.7q4-6.6 9.9-12.5 8.9-8.8 15.5-8.8zm21.2-18.2q-1.6.1-1.6-.6 0-2.7 5.7-4.4 4.8-1.4 10.2-1.4l8.4.4 4-.3 1.6.1-.2.1-.1.2q-6.4 3.4-8.3 6.7-3.4 6-8.3 6-4.7 0-4.7-2.1l.1-.8q1-3.7 11.4-8.1l-2.5-.1q-4.1.6-7.6 1.6zm10.4 9 2.1-.7h.4q9.3 0 23.6 18Q69.5.5 64.7.5l-8.1 1-7.2.9q-2.9 0-5.4-1.1-3.2-1.4-3.2-4 0-3 2-4.4 2-1.8 6.6-1.8l7.7 1q4.1 1 5.8 2.2l-.1-.1q-.5-1.2-6.1-5.1-8.4-2.7-8.4-3.5" transform="translate(11.35 29.8)"/><path id="b" fill="#fff" fill-opacity=".3" d="M36.9 3.2q6.4 3.1 6.4 7.6t-6.4 7.6q-6.3 3.3-15.2 3.3-9 0-15.3-3.2T0 10.8t6.4-7.6Q12.6 0 21.5 0q9 0 15.3 3.2"/><path id="r" fill="none" stroke="#000" stroke-linecap="round" stroke-linejoin="round" stroke-opacity=".2" stroke-width="__RESOLUTION__" d="M55 24q-2.2-5.2-6.2-2.4m4.8 13.9 1-.3m-3.2 1.2 1.4-.6m-5.9 4.1 1.1-1.1m1.6-1.3q.5-.5 1.1-.7m15.1-2.5q.5-1.6-.8-3.5m4.5 4.7q2.6 1.4 3 4.5l.1 2-.4 2.6m-26-6.1Q48.6 28.3 57 23.3m1.4 11.2 3.6-.2m-5.9-10q6-3.6 9.6-.3 1 1 1.9 2.9m-49.8 8q2.6-9.4 10.1-6.3l-1.7-1m13.8 11q-3.5-5.2-12-9.9m.8-.5q1.3-3.6 3.8-1.9m-2.2 18q6.3-3.5 9.8 4M29.4 44q-2.6-2.9-7-.7m8.3.4Q36 39.8 43.5 39" transform="translate(-17.7 -20.5)" vector-effect="non-scaling-stroke"/><use xlink:href="#a" id="q" width="85.8" height="49.3"/><use xlink:href="#b" id="n" width="43.3" height="21.6" transform="scale(.33 .65)"/><g id="m"><path fill="#000" fill-opacity=".3" d="M89 26.4h1q-1.8 3.8-8.7 7.9l-12.7 7.4q6.1.4 11.1 4.8 1.8 1.6 7.6 8.5-9 1.9-13 1.9-5.2 0-14-1.7l-7.7-1.7-3 2.3q-3.3 2.5-7 3.3-8.7.3-11.4 1.3-9.2 3.4-20.5 9.9.3-1.5 2.6-4.5l3-3.5 1-1 .7-1 2.9-4.9q2.6-4.8 2.6-8 0-1.2-4.2-3.4l-5.1-2.6q-6.6-5-9.2-8.2h.2q4.4 1.7 19.4 3l20.7 1q3.3 0 20.4-4.6 20-5.6 23.3-6.2"/><path fill="none" stroke="#6f0" stroke-linecap="round" stroke-linejoin="round" stroke-width="__RESOLUTION__" d="m39.3 38.9 1.8-.3" vector-effect="non-scaling-stroke"/><path fill="#000" fill-opacity=".3" d="m43.2 2.4-.2.2-.2.1-.4-.1v-.5l.4-.1h.2zm-3.4 2.3.3-.1.3.1.1.3-.1.3-.3.1-.3-.2-.1-.2zm.9 3.6.1.3-.1.3-.3.1-.2-.1-.2-.2.1-.3.3-.2z"/><path fill="url(#c)" d="m85.5 15.8 1.2.2v.1l-4.1 2.3q-4.3 2.4-5.2 3.3-2 2-6.5 8.5-3 3.7-10.6 6.8T48 39l.1-1.1 10.1-2.4Q66.3 33 69 30q3.3-3.8 6.3-8.2 2.3-3.6 10.2-6.1" transform="translate(2.05 -.9)"/><path fill="url(#d)" d="M85.5 15.8q-7.9 2.4-10.2 6.1-3 4.4-6.3 8.2-2.7 3-10.7 5.4l-10.1 2.4.8-4.6q.8-4.7 7.8-9.2 7-4.6 10.8-4.7-7.4 0-15.3 6.7-6.6 5.5-8.6 11.1v.1Q39.8 34 43.3 27q2.7-4.8 9-8.4 6.4-3.6 11.4-3.7 12.2-.5 21.8 1" transform="translate(2.05 -.9)"/><path fill="#451d14" d="m50.2 37-.2 1-1-.2-.7-.2q-1.5-.6-2.5-1.3 2-5.6 8.5-11.1 8-6.7 15.3-6.6-3.8 0-10.7 4.6-7 4.5-7.9 9.2z"/><path fill="none" stroke="#000" stroke-linecap="round" stroke-linejoin="round" stroke-opacity=".3" stroke-width="1" d="M50 38q4.8 1 12.3-2Q70 33 73 29.4q4.5-6.5 6.5-8.5.8-.9 5.1-3.2l4.2-2.4-.1-.1-1.2-.2q-9.5-1.5-21.8-1-5 .1-11.4 3.7-6.3 3.6-8.9 8.4-3.6 7 .3 10.5v-.2q1 .7 2.5 1.3l.8.2zm-4.3-1.6v-.2h0"/><path fill="url(#e)" d="M-1.3 24.3q.4-.4 1.1-.4 12.5-2.5 25.2 0 9.4 1.8 13.7 5.7 1.4 1.3 2.3 3l2.5 5.3.4.9-.9.2q-4.7-10.2-26.9-14.5 15.5 3.3 23 15.7l.2.1-.7.4q-1-1.2-6.3-1.2l-8.4.6-6.7-.6q-3.5-1.1-4.8-3.9-3.1-6.5-6-8.6-1.7-1.3-4.4-1.6-1.6-.8-3.5-1z" transform="translate(2.05 -.9)"/><path fill="#451d14" d="m45 38-2 .8h-.2l-1.5.7-.1-.2q-7.5-12.4-23-15.7Q40.3 27.9 45 38.1"/><path fill="url(#f)" d="m38.6 40.7-.9.3-1.5-.1h-2.4q-6-.1-13.2.3-7.3.4-9.4-4.5T7 29.4q-2.2-2.7-5-4 2.7.4 4.4 1.7 2.9 2.1 6 8.6 1.3 2.8 4.7 4l6.8.5 8.4-.6q5.4 0 6.3 1.1" transform="translate(2.05 -.9)"/><path fill="none" stroke="#000" stroke-linecap="round" stroke-linejoin="round" stroke-opacity=".3" stroke-width="1" d="M.7 23.4q.4-.3 1.2-.4 12.5-2.5 25.2 0 9.3 1.8 13.6 5.7 1.5 1.3 2.4 3l2.5 5.3.3.9-.9.2-2 .7m-.2 0-1.5.7m-1.5.6-1.5-.1h-2.4q-6-.1-13.2.3-7.3.4-9.4-4.4-2.2-5-4.3-7.5-2.2-2.7-4.9-4-1.7-.7-3.6-.9"/><path fill="none" stroke="#000" stroke-linecap="round" stroke-linejoin="round" stroke-opacity=".2" stroke-width="__RESOLUTION__" d="M43 38.8h-.2" vector-effect="non-scaling-stroke"/><path fill="url(#g)" d="m93 52.2.3.6q-7.8-2.7-14.3-2.7l-8.7 1.1-7.1 1.3q-6.4 0-11.5-3.1-3-1.7-4.3-4-.4-.9-.4-1.4 0-1.2.6-2.4 3.7 8 12.5 8l10-1q5.2-1.2 7.8-1.2 8.1 0 15 4.8" transform="translate(2.05 -.9)"/><path fill="#451d14" d="M49.4 44.6q-1.2-2-1.2-4.2V40q.1-3.2 3.5-5.9l.2.6 4.4-1.4q2.3-.6 4.4-.6 10.1 0 15.1 3.8Q71.7 34 64.9 34t-11.6 2.9q-2.6 1.8-3.6 3.9-.6 1.1-.6 2.4z"/><path fill="url(#h)" d="M49.7 35q1.3-1 3.3-2 4.3-2.2 7.5-2.8 1.9-.6 8 .1 6 .8 12.5 6.8 6.2 6 12 15.2-7-4.8-15.2-4.8-2.5 0-7.7 1.1l-10 1.1q-8.8 0-12.5-8 1-2.1 3.7-3.9 4.8-3.2 11.6-3t10.9 2.8l.3.2-.3-.2v-.1q-5-3.9-15.2-3.8-2 0-4.4.6l-4.4 1.4z" transform="translate(2.05 -.9)"/><path fill="#491d37" d="M75.8 36.6v-.1"/><path fill="none" stroke="#000" stroke-linecap="round" stroke-linejoin="round" stroke-opacity=".3" stroke-width="1" d="m95.4 51.9.3.6m-.7-1.2.4.6q-7.9-2.7-14.4-2.7l-8.7 1.1-7.1 1.3q-6.3 0-11.5-3.1-2.9-1.7-4.3-4-1.2-1.9-1.2-4.1V40q.1-3.2 3.5-5.9 1.4-1.1 3.4-2.1 4.2-2.2 7.4-2.8 2-.6 8 .2 6 .7 12.5 6.8 6.2 5.9 12 15.1"/><path fill="url(#i)" d="M44.5 39.9q.9-1.4.9-4 0-5.1-1.4-8.6-1.2-3.4-1.2-6.3 0-3.5 1.6-8.2L46 7.5q0-2-1.4-3.5-1.6-1.6-4.2-1.6-.7 0-1.9.7 1.8-2.3 4-2l2.3.9q3.6 1.8 4.4 2.6.8.7.8 2.4 0 1.4-.4 2.6-2.2 2.7-3 4.5-1.2 2.6-1.2 6.5 0 1.4.9 5.8.9 4.3.8 7.5 0 3-.9 4.6-.5 1-1.7 1.4" transform="translate(2.05 -.9)"/><path fill="url(#j)" d="M38.5 3.1q1.2-.7 1.9-.7 2.6 0 4.2 1.6Q46 5.5 46 7.5l-1.6 5.3q-1.6 4.7-1.6 8.2 0 2.9 1.3 6.3t1.3 8.7q0 2.5-1 3.9h-.2l-1.7.3q-1.4 0-1.4-1.7 1.4-6 1.4-8.1 0-3.8-3.2-10.2-3.1-6.5-3.1-9.2 0-3.9 1.8-7v-.1z" transform="translate(2.05 -.9)"/><path fill="#000" fill-opacity=".3" d="m47.2 1 .1.3-.1.2-.3.1-.2-.1-.2-.2.1-.3.3-.2zM43 0l.3-.1.3.1.1.3-.2.3-.2.1-.3-.2-.1-.2zm8 9.8.1.3-.2.2-.2.1-.3-.1-.1-.2.1-.3.3-.2zM48.4 13h.5l.2.3-.2.3-.2.2-.3-.2-.1-.2zm-.5 3.7.2.3-.2.3-.2.1-.3-.1-.1-.3.1-.3.3-.1zm-5.1 4.7-.2.2-.3.1-.2-.1-.2-.2.1-.3.3-.1h.3zm4.6-.8.3-.1h.2l.2.4-.2.2-.2.1-.3-.1-.1-.2zm.6 3.7.3-.1.2.1.2.3-.2.3-.2.1-.3-.1-.1-.3zm1.3 3.9.1.3-.1.3-.3.1-.3-.1-.1-.3.1-.3.3-.1zM44 24.6l.2.3-.2.2-.2.1-.3-.1-.1-.2.1-.3.3-.1zm.4 3.9.3-.1h.2l.1.4-.1.2-.2.2-.4-.2v-.5m.3 3.9.2.3-.2.2-.2.2-.3-.2-.1-.2.1-.4h.6m-1.1 3.9h.3l.1.4-.1.2-.3.1-.3-.1-.1-.2.1-.4zm5.4-4.1.4-.1.2.1.1.3-.1.3-.2.1-.4-.1V32m0 3.9h.3l.1.4-.1.2-.3.1-.2-.1-.2-.2.1-.3zm-2.6 3 .3-.1h.2l.2.4-.2.2-.2.2-.3-.2-.1-.2zm-1.5.2.3.1.1.3-.1.3-.3.1-.2-.1-.2-.3.1-.3zM40.6 2.7l.1.3-.2.3-.2.1-.3-.1-.1-.3.1-.3.3-.1zM39 6l.1.3-.1.3-.3.1-.2-.2-.2-.2.1-.3.3-.1zm-1 3.8.3-.2.3.2.1.2-.2.3-.2.1-.3-.1-.1-.3zm.8 3.9.3-.1.2.1.2.3-.2.3-.2.1-.3-.2-.1-.2zm1.5 3.6.3-.1.2.1.2.3-.2.3-.2.1-.3-.1-.1-.3z"/><path fill="#491d37" d="m48.3 38.9 1 .5-1-.4z"/><path fill="url(#k)" d="m47.3 40.3.7.5.1.2q1.5 1.3 1.5 3.5 0 6.3-6.7 11-6.6 4.7-14.8 4.7l-2.4-.4-3.5-.1q-3.9 0-10.5 3.4Q6 66 1 69.6l.3-.5q9.5-11.7 25.2-11.7 9.1 0 14.7-2.6 2-1 4.2-4.7 2.1-3.6 2.1-5.6 0-1.2-.7-3.2l-.6-1.3z" transform="translate(2.05 -.9)"/><path fill="url(#l)" d="M1.4 69q6.9-12.8 13-19.2 6.8-7.2 14.9-9.7l1-.3 2-.4 2.5-.4 2.9-.2 2.1-.1h.6l.9.1q-6.5-.2-17.3 9.3Q40.2 38 46.3 39.9l.6 1.3q.7 2 .7 3.1 0 2.1-2.1 5.7-2.1 3.8-4.2 4.7-5.6 2.6-14.7 2.6-15.8 0-25.2 11.7" transform="translate(2.05 -.9)"/><path fill="#451d14" d="M43.3 37.9h.1l1.4.2h.7l.4.1 2.4.7v.1q-6.1-2-22.3 8.2 10.8-9.5 17.3-9.3"/><path fill="none" stroke="#000" stroke-linecap="round" stroke-linejoin="round" stroke-opacity=".3" stroke-width="1" d="m48.3 38.9 1 .5.7.5h.1l.1.2q1.5 1.3 1.5 3.5 0 6.3-6.8 11-6.6 4.7-14.8 4.7l-2.4-.3-3.4-.2q-4 0-10.6 3.5Q8.1 65 3.2 68.6l.2-.5q7-12.8 13-19.2 6.9-7.2 15-9.7l.9-.3 2.1-.4 2.4-.4 3-.2 2-.1h.6l1 .1h0l1.4.2h.7m.4.1 2.4.7h0"/><path fill="none" stroke="#000" stroke-linecap="round" stroke-linejoin="round" stroke-opacity=".2" stroke-width="__RESOLUTION__" d="M45.5 38.2h.4" vector-effect="non-scaling-stroke"/><path fill="#000" fill-opacity=".3" d="M56.3 31.9q1.1.2-2 2-3.3 1.9-2.1 5 1 3.3-1 3.2-2.4.5-4.9-1.7t-6.5-1.7l-5.6-.2q.4-1.4 3.2-4t3-4.3 1.9-.1l1.9.3q.6.2 0 2.2t-.6 3.5 1.3 1.8l2.8.3h.1q1-.4 1.3-2.9.2-2.4-.1-4.2l6 .5z"/></g><g id="t" transform="translate(.2 -.6)"><use xlink:href="#m" width="96.3" height="70.3" transform="matrix(.4 .04 0 .4 -.2 .6)"/><use xlink:href="#n" width="14.1" height="14.1" filter="url(#o)" style="mix-blend-mode:overlay" transform="matrix(-.41 -.04 0 .45 20.45 1.9)"/><use xlink:href="#q" width="85.8" height="49.3" filter="url(#o)" style="mix-blend-mode:overlay" transform="matrix(.4 .04 0 .4 2.15 6.8)"/><use xlink:href="#r" width="55" height="27.9" transform="matrix(.4 .04 0 .4 7.6 9.25)"/></g><clipPath id="s"><path d="M1 1h39v32H1z"/></clipPath><filter id="o" filterUnits="userSpaceOnUse"><feConvolveMatrix divisor="49" in="SourceGraphic" kernelMatrix="1 1 1 1 1 1 1 1 1 1 1 1 1 1 1 1 1 1 1 1 1 1 1 1 1 1 1 1 1 1 1 1 1 1 1 1 1 1 1 1 1 1 1 1 1 1 1 1 1" order="7 7" result="filter1"/></filter></defs><g clip-path="url(#s)"><use xlink:href="#t" width="38.1" height="31.9" transform="translate(1 1)"/></g></svg>