<svg xmlns="http://www.w3.org/2000/svg" xmlns:xlink="http://www.w3.org/1999/xlink" width="56" height="59" viewBox="0 0 56 59"><defs><clipPath id="a"><path d="M1 1h54v57H1z"/></clipPath><g id="b"><path fill="#bc844e" d="m28.8 27.7 12.7 6.1-10.3 5.3-8-3.5-8.3-3.5 9.2-4.8 1.8-1zm-4.7 3.8"/><path fill="#996a3c" d="m41.6 33.8 6.1 3-25.6 13.6-6.7-3.4 15.8-8z"/><path fill="#c69768" d="m47.8 36.8 1.4.7 4 1.6-.7.6-14 7.2-8.6 4.5-2.8 1.4-.2-.4-.1.4-4.7-2.4z"/><path fill="#fff" d="m49.2 37.5-.2-.4zM26.8 52.8l.1-.4zl.1-.4v.5l.2-.1-.2.1v-.5l.2.4 2.8-1.4L27 53zM3.5 40.9h-.2zM30 51.4"/><path fill="#ac7b40" d="m53.3 39.2-.6.4h-.2zm-52.7.6H.2zh.3L3.3 41h.1l12 6.1 15.8-8-8-3.4-8.3-3.5-13.5 7zm.3 0-.3-.1zm5.3-.3-.1.1zm4 3.4 13-7.1z"/><path fill="#926836" d="M53.3 39.3V43l-.5.3-14.2 7.3-11.6 6-.2-.1v-3.7l.1.1h.1l2.9-1.5 8.6-4.5 14-7.2h.1zM38.6 50.6v-3.7zm14.2-11v3.6z"/><path fill="#6f4f28" d="M26.8 56.5 2.4 44.1l-1.8-.9v-3.4h.3l2.4 1.1h.1l12 6.1 6.7 3.4 4.6 2.4h.1zM.6 39.6"/><path fill="#e8d1ac" d="M2.4 44.1.3 45.3l-.3-.5.6-2v.4zm-1-5V39l.5-2.2v-.6l19.6-10.9.6-.4-.2 1.2 2.2 1.2-9.2 4.8zm4.8.3-.1.1z"/><path fill="#32271d" d="M2 36.2q1.4-9.5.9-20.3Q13.4.3 25.9.3q-1.8 13.2-3.7 24.3l-.7.7zm.6-4.3 8.5-4.2H2.9z"/><path fill="#d2a268" d="m26 .3 5.7-.3q.3 7.5-.9 16.2l-2 11.5-2.9-1.4-1.8 1-2.2-1.2.3-1.2v-.2Q24.1 13.5 26 .3m-.1 26"/><path fill="#c79767" d="m2.6 31.9.3-4.2h8.2z"/><path fill="#453727" d="m22.2 24.9-.7.4.7-.7z"/><path fill="none" stroke="#000" stroke-linecap="round" stroke-linejoin="round" stroke-width="__RESOLUTION__" d="m28.8 27.7 12.7 6.1 6.3 3 1.4.7m0 0 4 1.6M28.9 27.8 26 26.4m-4-.2.3-1.2-.7.4m.7-.7v.3" vector-effect="non-scaling-stroke"/><path fill="none" stroke="#583c21" stroke-linecap="round" stroke-linejoin="round" stroke-width="__RESOLUTION__" d="m53.3 43-.5.3-14.2 7.3-11.6 6-.2-.1L2.4 44.1l-1.8-.9v-3.6h0l.8-.5 13.5-7 9.2-4.8 1.8-1h0-.1 0m1 26.5.1-.4v.5l.2-.1 2.8-1.4h0m-3.1 1.4L22 50.4 15.4 47l-12-6.1h-.1 0L.9 39.8l-.3-.2h0m29.3 11.8L27 53h0l-.2-.1m25.7-13.2h.1l.6-.4m0-.1-.7.5-14 7.2-8.6 4.5" vector-effect="non-scaling-stroke"/><path fill="none" stroke="#482d00" stroke-linecap="round" stroke-linejoin="round" stroke-width="__RESOLUTION__" d="M2.4 44.1.3 45.3m-.3-.5.6-2m.8-3.6V39l.5-2.2v-.6h0q1.5-9.5 1-20.3Q13.4.3 25.9.3l5.8-.3q.3 7.5-.9 16.2l-2 11.5" vector-effect="non-scaling-stroke"/><path fill="none" stroke="#46321a" stroke-linecap="round" stroke-linejoin="round" stroke-width="__RESOLUTION__" d="M38.6 46.9v3.7m14.2-7.4-.1-3.6" vector-effect="non-scaling-stroke"/><path fill="none" stroke="#ae955b" stroke-linecap="round" stroke-linejoin="round" stroke-width="__RESOLUTION__" d="m23.2 35.7-13 7.1" vector-effect="non-scaling-stroke"/></g></defs><g clip-path="url(#a)"><use xlink:href="#b" width="53.3" height="56.6" transform="translate(1 1)"/></g></svg>