<svg xmlns="http://www.w3.org/2000/svg" xmlns:xlink="http://www.w3.org/1999/xlink" width="150" height="109" viewBox="0 0 150 109"><defs><g id="a"><path fill="#291c06" fill-opacity=".3" d="M27.7 30.3 46.9 17l-.7-2.7L50 2.2l3.5.8 4.5 7.8-.9 1.3 4.2.5L70.4 9l-1-3.1L62 4.6v-1l6 .9L70.6 6l1.8 3.6-1.7 1.3-5.3 2.2 1.8 1.2L90.9 12l6 3.4.8 3.3L71.8 25l.2 3.3h-2.2l.2 1.4-3.5-.5-6.3 5.6 10.2 7.8-8 2.7-5-4.1-9.7 1.6v.1L48 45l-1.6-.1-1 2.4-1.9-1.4-9.4 4-8.3-.7-.5-4.1-3.3-4.5-17.8-1.1H4L3.3 38v-.1l2.4-2.1z"/><path fill="#b2802d" d="M42 2.7v.1l.6.4-1.9 1.7.3-1.1-.4-.5zm2.4 1 .4-1-.3-.8 1.5-.1.1.3.6.5zm5.1-1.8q4.4 4 6.7 8.9l-3.5-.1q-1.2-7.4-4.9-7.4h.1L48 3zm18.6 10.8q9-2.6 20.4-3.6l.8.7H89l-1.1 1.4 1.6.8 1.5-.3.5.6H91l-.6.9q-3.5-2.1-11.5-1.4h-.2l-5.1.6h-.1l-.2.1-6.5 1.3q.5-.7 1.3-1.1m24.4 1.7.3 1.1h-.9l-.4.2-1-1.6 1 .5zM56 34.2q2.4 0 8.2 4.8h-2l1.6 1.9.5.1 2 .5 1.3-.2-.6-.7 1 .5-.2.3-.1.2q-2.4 2.4-6.4 4l-1.6-2 .6-1 3.4.4-1.3-1.6 1.3-.4h.5-.5l-3.2-2.4-.7-.5-.8-.6.2-.7h-1.4l-3.5-2.9zm-32.6-3.9L11 29.8l-.4 1.5-1.3-1.1.8-.4h.8q7.3-1.5 16.2-1.4-2 .6-3.7 1.9m-15 1.3.1 2-2-1.8.8-.6zm-2.6 2.2.2 1.9-2.2-1.5.8-1z"/><path fill="#b8a174" d="m42.7 3.2-.7-.4v-.1q-.8-1.6.1-2.4 1.4-.1 2.4 1.6l.3.7-.4 1.1-.1.4zm-2.1.1.4.5-.3 1.1v.3L39 4.5l-.4-.1q-1-1.6 0-2 .6-.3 2 .9M46 1.8Q46.6.6 47.4.3t1.1 1.3l.2.7-.7.8-.1.1-.1.1v.2l-1.1-1-.6-.4zm43.2 8 3.7.4q-.6 1.1-2 1.6l-1.5.3-1.6-.8L89 9.8zm2.2 2.5q2-.3 3.5.4-.8 1.3-2.5 1.7l-1 .2-1-.5-.2-.2-.4-.2.5-.5.6-.9zm1.3 3.2q1.7.1 2.9 1-1 1-2.7 1.1h-1.2l-1.2-.9-.2-.2 1-.7.1-.1.4-.2zM10.6 31.3l-2.2.3-1.1-.4q-1.2-.6-1.9-1.8l3.3.2.6.6zm-2.1 2.2-2.3.4-.4-.1-1.2-.5q-1-.7-1.7-1.7l3.5.1.1.1zM6 35.8l-2 .6-.1.1-1.2-.3q-1.4-.5-2.4-1.6l3.4-.3h.1zM64.4 41l-.5-.1-1.6-1.9h2l2.8 1.6.6.6-1.3.3zm-1.9.4 1.3 1.6-3.4-.4-.6-.4-1.4-2 2.9.1zm-2.7 2.4 1.6 1.9-1.4.5q-1.2-.2-2.3-1L56.6 43h.3l2.5.6h.1z"/><path fill="#c1922d" d="m40.7 4.9 2-1.7 1.5.9.2-.4 2.3-1.1 1 .9.1-.2q3.8 0 4.9 7.4H52l-1.3-.9-1.5 1-2.7.3-1.3 1.2 1.1.3-1.1.8-2.4-3.4h.7l1.3-2 4.5.5V7.1l1.5.2-1.1-2.2-.2 1.2H48l.3 1.5-4-.7-1 1.7-1 .5L39 4.5l1.6.7zm7.8-3.3h1.3l-.5.1.2.2L48 3.1l.7-.8zm12.3 10.1q2.5 0 5-.9l1.2.3.3.7-2.2.6zm6.6-1.6 1.2-.7q.7-.8.8-1.7l.7-.8 1.3.2q.2 1.2-.7 2.7L69 10.9l-.2-.8zm1.2-4.5q-1.5-.9-3.4-1.3V3q1.8.3 3.6 1.1l.9.5-.9.3zm1.6 18-.7.3-.3-.6q-1.9-1-3.4-5.2l-.2-.6q.2-2.5 1.2-3.7l6.5-1.3-.8.9 1.3 1-2 1h1.9l-1.5 2.4 1.9 2-.1-2.3 1.3-2.2-.7-.5.6-.9-1.4-.6-.2-.9 5.2-.6.1 1.2 1.6.1-.5 1.7 1.2 1-.5 2.1 1.3-.7.6-1.9-1.5-.7 1.3-1.5-.7-.5-2-.2-.7-.6q7.9-.7 11.4 1.4l-.5.6.3.1.3.2 1 1.6-1.1.8.1.2L76 20.1l-.5 1.4-1.5-.4zM47.5 43l-4.7-1.4q.7-2.1 2.1-3.7 1.4-1.5 3.4-2.5l.5-.2Q52 34 54.3 34l3.5 2.9h1.4l-.2.8.8.5-1.1-.1-1.1 1H56l-.2 1.3-1.8.3-.2 1.1-3.5-1.6 1.5-2 1.5.3.7-1 1.8-.3.4-.8-1.9-.3-1.7 1.6-1.8-.2-1.7 1.4.2.9-.8-.4.8 1.2-2.5.7zm-36-6.8.4-1 2.7-1.1-.2-2 3.1-1-2.8-.9.6.8-1.8.7-.2 1.5-3.4 1.9.8 1.1-6.2.8-.6-.4 2-.7-.2-1.9.4.1 2.3-.4-.1-1.9 2.2-.3.3-1.5 12.5.5-1.7 1.4-.1.1-.2.2-.2-1-1.8-.5.9 1.3-1.1.1-2.2 2.6.5.8zm-.7-6.2h-.4zm53 11-1.3.4-1.2-1-2.9-.2 1.4 2 .6.4-.6 1-.3-.1h-.1l-2.5-.5-.3-.1-2.2-1 .8-.4 1-.3.6-1.2 1.3-.1 1-1.1 1.5-.2zm-42.3-8.9-.5.4q-1 1.3-1.5 2.6l-1 .1h-.2l1.2-1.9z"/><path fill="#c1a569" d="m38.7 4.4.3.1 3.3 4.8-1 .6 1.5.1 2.4 3.4-1.7 2Q40 10.6 38.3 4.7zM93 17.6h-.2q-11.4 4.6-22.7 6l3.8-2.5 1.5.4.5-1.4 14.5-3.4 1.3.9zM59.9 46.2l-.7.2L47.5 43l-.7-1.7 2.5-.7-.8-1.1.8.3.4 1.3.3-.2.3-.6 3.5 1.5.5.3 2.2.9 1.1 2.1q1 .9 2.3 1.1M11.7 36l5.8-.7.3.4-.9 1 1.8-.7-.3-.8 1-.1q-.7 1.8-.4 3.6l-2-.9q-5-.6-12.3.8-1.7.1-2.4-1.4l.4-1.1 1.2.3H4l.6.4 6.2-.7 1.3 1.1z"/><path fill="#885d14" d="m43.5 15.4 1.7-2 1.1-.8 1.5-.8q2.3-.9 3.6-1h.6l.7-.1 3.5.1.1.1.9.2q-5 .2-10.5 5.2 8-1 9 5.7-8.5-3.9-14.7-1.5-5.3 1.9-11.3 9.3l-1.4-1.2-1.2 4-2.4-1.8-1.2 1.7-1.9-.7 1.8-1.5q1.8-1.3 3.6-1.9h.5l.1-.1 7.5-6.3-2.6-1.3 3.7.4 3-2.4-.4-1.7 3-.6 1.5-.7z"/><path fill="#a27324" d="M42.8 10h-1.5l1-.7 1-.5 1-1.7 4 .7-.3-1.5h1.5l.2-1.2 1.1 2.2-1.5-.2v1.4l-4.5-.4-1.2 2h-.2zm23 .8 1.7-.7h1.4l.1.8-1.7.9-.3-.7zm3.7-3.1q0-1-.7-1.9l-.2-.2.3-.7.8-.3.2.2.4.3q1 .9 1.2 2l-1.3-.2zm-4.3-3.4-4-.5q-.9-.6 0-.9 2-.3 4 .1zM10.8 36l-.8-1 3.4-2 .2-1.4 1.8-.7-.6-.8 2.8 1-3 1 .1 1.9-2.7 1-.4 1 .5 1.2zm6.7-.7-.6-.7 2.3-2.7 1-.1-.8-1.3 1.8.4.2 1.1v.1l-2 1.2-1.2 2 .2-.1.3.8-1.8.8.9-1.1zm28.8-22.7-1.1-.3 1.3-1.2 2.8-.3 1.4-1 1.3 1h-.6q-1.4.1-3.6 1zm32.7-.8.8.6 2 .2.6.5-1.4 1.5 1.6.7-.6 1.8-1.3.8.5-2.1-1.2-1 .5-1.7L79 13l-.2-1.2zm-5.4.6.2.9 1.4.6-.7 1 .8.3-1.3 2.3.1 2.3-2-2 1.6-2.4h-1.9l2-1-1.3-1 .8-.9zM54.3 42l-.5-.3.2-1.1 1.8-.3.3-1.2 1.5-.1 1.1-1 1 .1h.1l.7.5-1.5.1-1 1.2-1.3.1-.5 1.2-1.2.3zm-4-1.9-.2.6-.4.3-.4-1.3-.2-.9 1.7-1.4 1.8.2 1.7-1.6 1.9.3-.4.8-1.8.3-.7 1-1.5-.3z"/><path fill="#765011" d="m57.2 11 1.5.3 2.1.4 4.3.8 2.4.3.6-.1q-.8.4-1.3 1-1 1.3-1.2 3.8l.3.6q-1.2 6-10.1 10.3l.5 2-2.2-.7q-2.6 1.9-11 4.3l-.9-.7 3.9-2.6-3.4.3 1.2-.7-4.4.4-.6-2.9.2-.5-1.6 1-3.2 1.8-.5-1.6-3 2.3-1.1-1q6-7.4 11.3-9.3 6.3-2.4 14.7 1.5-1-6.6-9-5.7 5.5-5 10.5-5.2M33.7 28l.1.4z"/><path fill="#66450f" d="M69.5 23.9h-.2l-1 .6 1.7 2.7-3.7-.4 1.7 1.3-2.7-.5-5.5 3.8.9 1.7-4.5.3-.7.4.5.4-1.7-.3q-2.3 0-5.5 1.2l-.5.1q-2 1-3.4 2.6l-2.3-.9 3.6-2.5-3.8.3-2.7-2 3-1.7 3.4-.3-3.9 2.6 1 .7q8.3-2.4 10.8-4.4l2.3.8-.5-2q8.9-4.2 10-10.2 1.5 4 3.4 5.1zm-30.6 4 .6 2.9-1.9.1z"/><path fill="#6f4806" d="m42.8 41.5-2.9-.9-10.1-1 7.7-7.1-2.2-.1 2.3-4.1 1.5-1-.2.5-1.2 3.1 1.8-.1 4.4-.5-1.2.7-3 1.7 2.7 2 3.8-.4-3.6 2.6 2.3.9q-1.4 1.6-2 3.7"/><path fill="#825406" d="m29.8 39.7-10.8-1q-.4-1.8.4-3.6.5-1.3 1.5-2.6l.5-.4V32l.2-.2 1.9.7 1.2-1.7 2.4 1.8 1.1-4 1.5 1.2 1.1 1 3-2.3.5 1.6 3.3-1.9-2.3 4.2h2.2z"/><path fill="none" stroke="#291c06" stroke-linecap="round" stroke-linejoin="round" stroke-opacity=".3" stroke-width="__RESOLUTION__" d="m42.7 3.2-.7-.4v-.1l-1.4.6.4.5-.3 1.1v.3L39 4.5l-.4-.1-.4.3q1.8 5.9 5.3 10.7l1.7-2 1.1-.8 1.5-.8q2.3-.9 3.6-1h.6l.7-.1 3.5.1q-2.3-5-6.7-8.9l-.2-.2h.5l-1.2-.1Q48.2-.1 47.3.3t-1.4 1.5l.1.3.6.5 1 .9.1-.2h.1m-5.2-.1 1.5.9.2-.4.4-1-.3-.8Q43.5.2 42.1.3q-.9.8-.1 2.4m-3.4 1.7q-1-1.6 0-2 .6-.3 2 .9m15.6 7.5.1.1.9.2m1.5.2 2.1.4q2.5 0 5-.9l1.7-.7 1.2-.7q.7-.8.8-1.7 0-1-.7-1.9l-.2-.2q-1.5-.9-3.4-1.3l-4-.5q-.9-.6 0-.9 2-.3 4 .1 1.8.3 3.6 1.1l.9.5m.2.2.4.3q1 .9 1.2 2t-.7 2.7l-1.7 1.1-1.8.9-2.2.6 2.4.4.6-.1q9-2.6 20.4-3.6l.8.7 3.7.3q-.6 1.1-2 1.6l.5.6q2-.3 3.5.4-.8 1.3-2.5 1.7l.3 1.1q1.7.1 2.9 1-1 1-2.7 1.1h0q-11.4 4.6-22.7 6l-.7.3h-.2l-1 .6 1.7 2.7-3.7-.4h0l1.7 1.3-2.7-.5-5.5 3.8.9 1.7-4.5.3-.7.4.5.4q2.4 0 8.2 4.8h.5q1.4.7 2.3 1.6l1 .5-.2.3-.1.2q-2.4 2.4-6.4 4l.4.6-1.8-.1-.7.2-11.7-3.4-4.7-1.4-2.9-.9-10.1-1-10.8-.9-.2.8M46 1.8l-1.5.1m11.7 8.9.1.1m-7.7-9.3v.7l-.6.8M21.4 32l.2-.2h0l1.8-1.5q1.8-1.3 3.6-1.9h.5l.1-.1-.6.1q-8.8-.1-16 1.4h-1l-.8.4 1.3 1.1-2.2.3-1.1-.4-.9.6-3.5-.2q.7 1 1.7 1.6l-.8 1h-.1l-3.4.3q1 1.1 2.4 1.6l-.4 1.1q.7 1.5 2.4 1.3Q12 37.3 17 38l2 .8q-.4-1.8.4-3.6.5-1.3 1.5-2.6h0l.5-.4zM8.5 33.5l-2.3.4-.4-.1-1.2-.5M6 35.7l-2 .6-.1.1-1.2-.3m27-6.3-1.4-1.2-1.2 4-2.4-1.8-1.2 1.7-1.9-.7m16-3.6-3.3 1.9-.5-1.6-3 2.3-1.1-1m13.6-14.2.2-.2h0zl-1.5.8-3 .6.4 1.7-3 2.4-3.7-.4 2.6 1.3-7.5 6.3m6.2.2-.1-.4m5.2-.3.2-.5-1.6 1m2 2.4 4.4-.4-1.2.7-3 1.7 2.7 2 3.8-.4-3.6 2.6 2.3.9q1.4-1.5 3.4-2.5l.5-.2q3.2-1.2 5.5-1.2l1.7.3m9.8-16-.2-.7q.2-2.5 1.2-3.7.5-.7 1.3-1.1m-28.5 18-2 .3 1.3-3.2m27-9.7q1.4 4.1 3.3 5.2l.3.6M65 12.5l-4.2-.8m29.5 1.5.6-.9h.5m-.5-.6-1.5.3-1.6-.8L89 9.8h.3m3.2 4.6-1 .2-1-.5m1 1.6.4-.2h.9m-2.5-1.6-.4-.2.5-.5m.1 3.5-.1-.2 1-.7m1.6 1.8h-1.2l-1.2-.9M64.3 41l-.5-.1-1.6-1.9h2l2.8 1.6.6.6-1.3.3zh-.6l-1.3.4 1.3 1.6-3.4-.4-.6 1 1.6 2-1.4.5q-1.2-.2-2.3-1l-1.1-2.2m.3 0 2.5.6h.1l.3.1m.6-1-.6-.4-1.4-2 2.9.1 1.2 1m-17.5-3.5q-1.4 1.6-2 3.7M7.2 31.2q-1.2-.6-1.9-1.8l3.3.2.6.6m-2.9 1.6 2 1.7m-4.7.7L6 35.8" vector-effect="non-scaling-stroke"/><path fill="#a27324" d="m31.3 29.5 2.2.7q.3 2.4 1 3.6l.1-.5h4.7v.1l-4.2 1.1 1 1.6v.2l.2.3 5.2 1.9-2.4 1.6-1.5-1.2 1.7 3-2.1-.1q-1 1.5-3 2.4l-.7-5.9-3.2-4.8z"/><path fill="#c19122" d="m31.3 29.5-1 4 3.2 4.9.7 5.8H34q-11.1.5-14.5-3.5l-.4-.5-2.5-1 3.1-1.6-.3-1.2.5-1 .9.1.1-1-1.2-1.8 2.2.5 1-.6h-.5l1.6-1.3 2.7-2.7z"/><path fill="#c1922d" d="m39.3 41.9-1.7-3 1.5 1.3 1.9 1.6zm2.2-3.3-5.2-1.9-.1-.3-.1-.1v-.1l-1-1.6 4.2-1.1-1.7 2.5-1.1-.7 1 .7zm-22.6-1.7-1.5-1.6 2.5.2-.5 1z"/><path fill="#c1a569" d="m16.7 39.2 2.2-2.4.5-.4.4 1.3zm.8-4 3.5-.6-.1 1-.9-.1zm2.3-2.5H23l-1 .5z"/><path fill="none" stroke="#98691c" stroke-linecap="round" stroke-linejoin="round" stroke-width="__RESOLUTION__" d="M34.6 33.8q-.8-1.2-1.1-3.6l-2.2-.7-4.6-1-2.7 2.8-1.6 1.3-2.7.1 1.2 1.8-3.5.6 1.5 1.7-2.2 2.4 2.4 1 .4.5q3.4 4 14.5 3.5h.2q2-.9 3-2.4m-14.8-9.1h.5m-3.5 3.6-.5.5m.5-.4.5-1" vector-effect="non-scaling-stroke"/><path fill="none" stroke="#754f14" stroke-linecap="round" stroke-linejoin="round" stroke-width="__RESOLUTION__" d="M37.2 41.8H41l-2-1.5-1.5-1.4m1.5 1.4 2.4-1.7h0l-4-2.6-1-.7m2.8-1.9h-4.7m3 2.6 1.7-2.5" vector-effect="non-scaling-stroke"/><path fill="#c1a569" d="m31.4 35.1.2-.7 3.5 1.8zM35 41l1.8 3.6-2.1-1-.6-4.2z"/><path fill="#c1922d" d="m31.4 35.1 3.7 1.1-1.8 1.2 3.9 2.7-2.2.9-.9-1.6.5 4.1 2.2 1.1-3.8-.2-1-3.7 1-.6-1.1-1.2.7-1.8-1.5-1.1z"/><path fill="none" stroke="#754f14" stroke-linecap="round" stroke-linejoin="round" stroke-width="__RESOLUTION__" d="m31.4 35.1 3.7 1.1-1.8 1.2 3.9 2.7-2.2.9-.9-1.6m2.7 5.3-3.8-.3" vector-effect="non-scaling-stroke"/><path fill="none" stroke="#98671c" stroke-linecap="round" stroke-linejoin="round" stroke-opacity=".8" stroke-width="__RESOLUTION__" d="m35 41 1.8 3.6" vector-effect="non-scaling-stroke"/><path fill="#a27324" d="m34 40-1.8-.9-1.1 2-1.5-1-.8.7.4-2.2 1.4 1.6v-1.6l.8.7.8-1-.5-1 3.6.5-2.5.3zm-13.2-7 1.6 1.8-1 .4-.5 1.1h.9l-1.4 1.2 1.9-.5-1.7 1.9.3-1h-1.4l1.3-2.1-1.4-.4 2-.8z"/><path fill="#c1922d" d="M24.4 33.4q-1 .1-2.8-1-1.6-1.2-1.7-2.7.2-1 1.9-.9t3.3 1.8l.3 1.1q-1.9-1.6-3.3-1.6-1.2-.1-.7 1.1t3 2.2"/><path fill="#aa7f27" d="M24.4 33.4q-2.6-1-3-2.1-.5-1.3.7-1.2 1.4 0 3.3 1.6l-.4 1.1z"/><path fill="none" stroke="#754e14" stroke-linecap="round" stroke-linejoin="round" stroke-opacity=".8" stroke-width="__RESOLUTION__" d="M25.2 30.6q-1.8-1.7-3.4-1.8-1.7-.1-1.9.8.1 1.5 1.7 2.8 1.8 1.1 2.8 1" vector-effect="non-scaling-stroke"/><path fill="#c1922d" d="m28.4 42.5 1.4.1-3.5 9.5-8-1.8-.8-6.3 3.3-4.4 1 1.3q-2.8 4.6-2.4 7.3 2 2.1 6.6 2.2 1.4-1.5 2.4-8"/><path fill="#7a3b19" d="M28.4 42.5q-1 6.4-2.4 7.9-4.6-.1-6.6-2.2 2-4 5.6-6.5z"/><path fill="#7c521a" d="M19.4 48.2q-.4-2.7 2.4-7.3l3.2.8q-3.6 2.5-5.6 6.5"/><path fill="#a27324" d="m26.3 52.1 3.4-9.5 2.1 5.4z"/><path fill="none" stroke="#98691c" stroke-linecap="round" stroke-linejoin="round" stroke-width="__RESOLUTION__" d="m17.5 44 .8 6.3 8 1.8 5.5-4.1-2-5.4" vector-effect="non-scaling-stroke"/><path fill="#b8a174" d="M20.5 48h-1.1q-.2 0-.4-.4v-.5q.3-1.2 1-2.1v-.1q.2-.2.4 0-.4 1-.4 1.9 0 .7.4 1.2"/><path fill="#998256" d="M20.5 44.9q.3.3.5 2v.1l.1.1-.6 1V48q-.5-.5-.5-1.2 0-.8.4-1.9"/><path fill="#a27324" d="m27.1 35.2 2 .3h.1l1.9-.5-.4 1-1.4.3.4 2.1-.6 3-2.1-1q-.4-3.4.1-5.2m-4.9 3.4 1.5-1.3.6-1.1-.8-.2-.7-1 1.6.6v.1l1 .2-1.5 1.8z"/><path fill="#c1922d" d="m27 40.4-4.3-1 1.5-1.5 2-2.7h.9q-.5 1.8-.1 5.2"/><path fill="#c1a569" d="m22.7 39.4-1.4-.4.9-.4 1.7-1 1.5-1.7.6-.7h.3l-2.1 2.6z"/><path fill="none" stroke="#754f14" stroke-linecap="round" stroke-linejoin="round" stroke-width="__RESOLUTION__" d="m25.4 35.9.6-.7m-2.1 2.4 1.5-1.7" vector-effect="non-scaling-stroke"/><path fill="#c1922d" d="M31.6 31.6q2.4-1.3 4.2-.8l.2.1q-1.8 0-3.5 1.6l-1.5.3zm5.6 0q.3.3.3.8-.3 1.1-1.5 1.9l-1 .5q-2.4.7-3.4 0l2.4-.2 1.5-.8q.6-.7.1-1z"/><path fill="#c1a569" d="M36 30.9q.8.2 1.3.7l-1.7 1.1-3.1-.2Q34.2 31 36 31"/><path fill="#845a14" d="M31.7 34.9 31 34q-.2-.1-.1-1.2l1.5-.2 3.1.1q.5.3 0 1.1l-1.6.8z"/><path fill="none" stroke="#754e14" stroke-linecap="round" stroke-linejoin="round" stroke-opacity=".8" stroke-width="__RESOLUTION__" d="M31.6 31.6q2.4-1.3 4.2-.8l.2.1q.8.2 1.3.7.3.3.2.8-.3 1.1-1.5 1.9l-1 .5q-2.4.7-3.4 0" vector-effect="non-scaling-stroke"/><path fill="#825406" d="m25.7 26.6-1.5-.9 2.2-.4 1 2-.4 1.3zm3.7-.5-1.9 2v-1.3l1.4-2 2.3.4z"/><path fill="#c1922d" d="M29.6 44.1q-4.5-2.7-8.5-2.7l-2.5.6 4.1-3.4 5.9 1.1z"/><path fill="#a27324" d="m28.6 39.7 3.3 8.3-2.3-3.9z"/><path fill="none" stroke="#98691c" stroke-linecap="round" stroke-linejoin="round" stroke-width="__RESOLUTION__" d="m18.6 42 4.1-3.4 5.9 1.1 3.3 8.3" vector-effect="non-scaling-stroke"/><path fill="#be763c" d="m26.5 41.6-3.8-.7-.1-.1.8-.8-1-.7-.9.6q-.5-.8-.3-1.9 3.2-.6 9 1.4-.2 1.5-2.6 2l.3-.8-1.7-.6-.9.3z"/><path fill="#905a27" d="m22.6 40.8-1-1 .8-.5 1 .7zm5 .7h-.4l-.7.1-1.2-1.3.8-.3 1.8.6z"/><path fill="none" stroke="#9e5f31" stroke-linecap="round" stroke-linejoin="round" stroke-opacity=".6" stroke-width="__RESOLUTION__" d="m26.5 41.6-3.8-.7-.1-.1-1-1q-.6-.7-.4-1.7 3.2-.7 9 1.3-.2 1.5-2.6 2l-.4.1z" vector-effect="non-scaling-stroke"/><path fill="#c1a685" fill-opacity=".8" d="M23.4 38.2h1.5l1.3.3q.7.2.7.4l-.6.3-1.4-.2-1.4-.2-.6-.4q0-.2.5-.2"/><path fill="#c1922d" d="M31.2 34.4V36l-2 .6q-1.4-.2-1.9-1.1zm-5.1.9-.9 1.1-1.6-.5q-1-1-.9-1.9z"/></g><g id="f" transform="translate(72.55 53.65)"><use xlink:href="#a" width="97.7" height="52.1" transform="matrix(1.3 .4 -.4 1.3 -51.75 -53.65)"/><use xlink:href="#b" width=".9" height="1.4" transform="matrix(.88 .27 -.3 .91 -29.75 1.2)"/><use xlink:href="#b" width=".9" height="1.4" transform="matrix(-.73 -.35 .36 -.79 -30.95 1.9)"/></g><clipPath id="e"><path d="M1 1h148v107H1z"/></clipPath><path id="d" fill="#291c06" d="M-.6-2q.5-.1 1.3.5.7.6 1 1.6L2 1.8q-.1.7-.6.9-.6.1-1.3-.5L-1.1.6q-.3-.9-.2-1.7t.7-.8" transform="translate(1.35 2)"/><use xlink:href="#d" id="b" width="3.4" height="4.7" transform="scale(.28 .3)"/></defs><g clip-path="url(#e)"><use xlink:href="#f" width="147.9" height="106.8" transform="translate(1 1)"/></g></svg>