<svg xmlns="http://www.w3.org/2000/svg" xmlns:xlink="http://www.w3.org/1999/xlink" width="111" height="154" viewBox="0 0 111 154"><defs><clipPath id="a"><path d="M1 1h109v152H1z"/></clipPath><g id="b"><path fill="#000" fill-opacity=".3" d="m76.5 32.3 7.9-3.2 23.9 83.1-1.1-.5-19.8 29-19.7-22-22 8.7 1.4 2.8-3.7-1.8L34 132h-6.4l12.8-5.3L15.5 114l-9.1 3.6H0l12.4-5.2-4.5-2.3-7.7-26 30.7 15 2.4 4.6 15.4-6.4L31 77.4h20.7zm-29.7 46V80zM51 100l-16.3 6.4 9.7 18.7 21.2-8.8z"/><path fill="none" stroke="#000" stroke-linecap="round" stroke-linejoin="round" stroke-width="__RESOLUTION__" d="m46.9 79.9-.1-1.6M23 61l-10.6 5.1" vector-effect="non-scaling-stroke"/><path fill="#5e5137" d="m71.8 16.2 1.3-2.4 8.5-4.2 3.1 1.6-8.5 4.1L51 63.6l-9.3 4.5-3.1-1.6 2.3-1 1.7-.9 5.3-2.6 1.1-2 3.5-6.7.7-1.3 3.4-6.6L60 39l.9-1.7 3.4-6.5 3.5-6.6.7-1.5zm6.9.5-.6 2-.2.4-.1.1.1 4.3.7 2.8 3.5-1.6v-3.3L78 23.5l.7 2.8v2.2l-2.8 1.3.3-9.2v-1.3l-.2-.4v-.3l.3-.7zm6 9.3v2.5l-8.5 4.2-13.6 26.1-.1.1-11.5 22-9.3 4.6-3.1-1.6v-2.5l3.1 1.5 9.3-4.5 25.2-48.3zM32.8 69.8l-.8 1.6-9.3 4.5-3.2-1.6v-2.6l3.2 1.6 9.3-4.5.9-1.7v2.6zM19.6 57l9.2-4.6L54.2 4.1 62.6 0l3.1 1.6-8.5 4.1L32 54l-9.3 4.5zM59.7 7.1q-1 3.5-.5 7l.4 1.7-2.4 1.2-.3-8 .4-.7zm8.8 15.6-.7 1.5-8-3.9v-1.9h-.1zm-7.6 14.6L60 39l-8.5-4.5-.1-1.8.2-.1zM53.2 52l-.7 1.3-9.7-4.9.2-1.4v-.1zM42.6 64.6l-1.7.8-6.2-3v-1.7zm8.2-39.4 1 4.4v.2L49 31.1l.2-7.7 1.8-3.5.8-.3zm1.5 4.7 5.1-9.5v2.5l-.4.4-2.6 5.2-.3.5zm21.3-4.5V27l-1.7-.8.7-1.4zm-3.5 4.2.8-.4-1.1 4.4v1.2l1 4.4-2.5 4.8-.2.2.3-9.9V33zm-8.6 21.2V52l1 3.2-2.6 5-.2.1.3-10 .1-.3-.1-.9V49l1.7-3.3.9-.5-.4 3zM57.1 59l-.4.9-1.6 3.1-.6-.3.7-3.4-.5-.2 2.5-4.9zm-3 6v1l1 3.3-2.5 4.8-.2.1.3-7.4v-2.5l-.1-1.3 1.8-3.4.8-.4-.7 3.4zm-7.4 12.5.1 2.5-2.8 1.4.4-8.5v-.3l-.1-.9-.1-.4-.2-1.6 2.9-1.4-.4 1.7q-.6 3.4 0 6.8zm2.4-39-.3.8-1.5 3-.3.4-1.8.9 4-7.6zm-5.7-2.7-1 5.5.5 3-2 1v-5.8l1.6-3.3zm-2.8 16.1v2.6l-.4.8-.3.5-.2.6-1.9.8zM35.5 58l-1.9.9.1-4.8v-.3l-.1-.3 1.8-3.4.8-.4-1.1 5.6zm-7.8 9.8.1 2.5-2.8 1.4.4-9.2-.1-.6L25 60l2.8-1.4q-.8 3.7-.4 7.4z"/><path fill="#988340" d="M84.7 11.2v2.6l-6 2.9-2.5 1.2-.3.7v.3l.2.4v1.3l-.3 9.2-2.3-1.1V27l.1-1.6 1-4.3 1.3-2.5-1.3 2.5-2 3.7-.7 1.4-1.5 2.7-.3.7-1.7 3.4v1.3l-.3 9.9-2-1h-.3l-.1-.1v-.3l-.1-2.2v-.3l.2-.7-.2.1v.6l-.4 1.3.4-1v2.6l-2.9 5.2-.5-.3.4-2.9-.5-.2 4.7-9.1-1 3.7 1-3.7-4.7 9.1-.4.7-1.8 3.3.1.1.1.9v.3l-.4 10-2-1-.6-.3.1-4.8L60 49l-2.6 5.2-2.6 4.9-.4.6-1.7 3.4-1.5 2.9-.4 1.2.4-1.2 1.5-2.9.1 1.3V67l-.4 7.4-2-1-1 2.1.7-1.9-2.1 3.3-.6.3-.8-.4q-.6-3.4 0-6.8l.4-1.7-2.9 1.4.1 1.6.2.4.1.9v.3l-.4 8.5-2.3-1.1v-.4l1-5-8-4v-8.4l6.2 3-2.3 1.1 3.1 1.6 9.3-4.5 25.2-48.3zm-62 59 .5-9-.2-.3-.3.2-3.2-1.6V57l3.2 1.5L32 54 57.2 5.7l8.5-4.1v2.5l-6.1 3-2.4 1.2-.4.7-1.3 2.5L56.8 9l.3 8v.2l-.4 3-2.2-1.1v-.4l1-7.2-4.1 7.8-.3.6-1.8 3.5-.2 7.7-.3.1v3.2l-2.1-1V33l1.1-6.7 1.5-2.9-1.5 2.9-4.7 9.1-.5.7-1.7 3.3-1.5 3 1.5-3 .1 5.7-.6.3v5.1l-2-1V49q-.2-2.6.6-5.2l.4-1.4-3.7 7.2-.4.6-1.7 3.4v.5l.1.1V59l-1.2.6v4.8l-1.5-.8v-.4l1-6.7 1.6-2.9-1.6 2.9-7.5 3.8.5-.2.3 2 .1.5-.4 9.2-2.3-1.1zm45-46-3.5 6.5-4.7-2.3v-8.2l.2.1zM59.9 39l-3.2 6.3-5.5-2.7v-8.1h.1zm-7.4 14.2L49 60l-6-3.3h-.2v-8.4zm21-26.3v1.5h-.1l-3 5.3-.6-.2 1.1-4.4-.5-.3 1.5-2.7zm-3.2 6.8-.6 1v-1.2zm-7.7 14.6-1.2 2.4.7-2.7zM55.1 63l-1 2 .4-2.3zm13.3-30-1.6 2.9zM44 69.6l-1.9 1-.4.1-3.1-1.6v-2.6 2.6l3.1 1.6.4-.2zm7.1-3.6-4.2 2.2zm-8.4 8.8-.6-4.3zM23 60.9l1-.5.4-.2-.4.2z"/><path fill="#493e2c" d="m77.8 19.2 4.4 2.2-4.3 2.1zm4.4 5.5 2.5 1.3-8.5 4.1L51 78.4l-9.3 4.5-3.1-1.5 3.1-1.6v.4l2.3 1.1 2.9-1.4-.2-2.5.6-.3.6-.2 2.1-3.4-.7 2 1-2.2 2 1h.3l2.5-5-1-3.2V65l1-1.9 1.6-3.1.4-.9.6.3 2 1 .2-.1 2.6-5-1-3.2.1-.2h-.1v-1l1.2-2.4 2.9-5.2h.5l2 1 .2-.2 2.6-4.8-1.1-4.4.6-1 3-5.4.1.1v.2l2.3 1.1 2.8-1.3v-2.2zm-62.5 47 3.1-1.5v.4l2.3 1.1 2.8-1.4-.1-2.5 1.1-.6 2.2-4.1v.4l1.5.8v2.6l.4.2-.9 1.8-9.3 4.4zM68 14.2l3.9 2-3.4 6.5-8.8-4.4 5.9-2.9zm-3.7 16.6-3.4 6.5-9.3-4.7 2.1-1.2 2.8-1.4 3.1-1.6zm-7.6 14.5L53.2 52 43 46.7l8.2-4zM49 60l-1 2-5.3 2.6-7.9-4 4-2 3.9-2 .1.1h.1zm5.4-41.2v.4l2.3 1.1.3-.1v.1l.3.2-5.1 9.5-.4-.2-.1.1v-.2l-1-4.4 3.3-6.2zM46.8 33l-.1.4 2.1 1v1.3l.4.2-4 7.6-.4-.2-1.8.8-.6-2.9zm27.8-11.9-1 4.3-1-.6zM38.4 48.9v.6l2 1v1.1l.4.2-2.7 5.3-.5-.2-2.1 1.1-.4-2.7z"/><path fill="#9e7b5b" d="M62.6 58.9h-.1m-5.7-38.7.3-3v2.9zM33.7 53.5v.3z"/><path fill="#736d87" d="m34.7 70.7-1.9-.9v-2.7l-.3-.2v-7.4l1.4.7v.1l.7.4.1 1.7zM57 17.2l.1-.2 1.8 1 .7.3v1.9l-.1 8.2-2.5-1.3v-3.8l.4-.4v-2.5l-.4-.2zm-8.2 14 2.6 1.3.1.1-.2.1v9.9l-2.5-1.2v-2.2l.4-.8V36l-.4-.2zm-8.4 19.3v-5l2 .9-.1-.2.7.5v.2l-.2 1.4-.1 8.4h-.1l-.6-.4-1.4-.7-.1-.4.4-.8v-2.6l-.4-.2z"/><path fill="#615a70" d="m59.6 15.8 5.8-2.8 2.5 1.2-2.5 1.2-5.9 2.8-.6-.2-1.8-1zm-7.7 14 .1-.1.4.2 1.8-.9.3-.5 2.7-1.3 2.3 1.2-3 1.6-2.7 1.4-2.3 1.1-2.6-1.3.3-.1zm-6.5 13.7 1.8-.9.3-.5 1.5-.7 1.6.8h-.1l.8.4h.1L43 46.7l-.7-.5v.2l-1.9-1 .6-.3 2-1 1.8-.8zm-4.7 12.1 1.4.6.1.1.6.3-3.9 2-4 2h-.1v.1l-.7-.4-1.4-.8 1.1-.6 1.9-.9 2.1-1 .4.1 1.9-.8.2-.6z"/><path fill="#668499" d="M59.6 20.2v-1.7zm-8.2 12.5v1.8zm-8.2 14.1H43"/><path fill="#7a4929" d="m59.6 18.3-.7-.3.6.2zM43 46.8v.1zm-8.4 13.9v-.1h.1zv1.7z"/><path fill="#8f6f53" d="m51.1 20 .3-.7.5.3zm19 9.7.3-.7.5.3zm-8 15.4.5.2-.9.5zm-19-9.6.4.3-.9.4zm11.7 23.7.5.2-.9.4zm-18.6-9.4-.7.4.3-.6z"/><path fill="#c17b4b" d="m51.4 32.5 2.3-1-2.2 1.1zm8.3-14.3h-.2l6-2.9zm-.2 10h.1m2 23.3.1.1h-.1m-10.4-9.2-.8-.4zm-16.4 18 4-2z"/><path fill="#e9e8b6" d="m56.4 30 3-1.6h.1z"/><path fill="#dd8d55" d="m65.8 43.1-.2.1v-2.6l.1 2.1v.4m-4.1 8.7-.1.2v-.2zm4.1-12.2-.1.7v-.6z"/><path fill="#da8b54" d="M65.6 40.6v1z"/><path fill="#977557" d="M65.6 40.3v.3l-.4 1zm-32 13.5v.2z"/><path fill="none" stroke="#292118" stroke-linecap="round" stroke-linejoin="round" stroke-width="__RESOLUTION__" d="m71.8 16.2 1.3-2.4 8.5-4.2 3.1 1.6v2.6l-6 2.9-.6 2-.3.5 4.4 2.2v3.3l2.5 1.3v2.5l-8.5 4.2-13.6 26.1v.1h-.1L51 80.9l-9.3 4.6-3.1-1.6v-2.5l3.1-1.6 1-5-8-4-1.9-1-.8 1.6-9.3 4.5-3.2-1.6v-2.6l3.2-1.5.5-9-.2-.3-.3.2-3.2-1.6V57m9.3-4.6L54.2 4.1 62.6 0l3.1 1.6v2.5l-6.1 3q-1 3.5-.5 7l.4 1.7 5.9-2.8 2.5 1.2 3.9 2-3.4 6.5-.7 1.5-3.5 6.5v.1l-3.4 6.5-.9 1.7-3.2 6.3h-.1L53.2 52l-.7 1.3L49 60l-1 2-5.3 2.6-1.7.8-2.3 1.1v2.6l3.1 1.6.4-.2 1.9-.9 2.9-1.4 4-2.2 1.5-2.9 1.8-3.4.3-.6.5.2-.7 3.4.6.3 1.6-3.1m21.9-31.4v-2.2l-.7-2.8-.1-4.3v-.1M56.9 9l-1.3 2.5-1 7.2v.4m2.5-1.9.1-.2 2.4-1.2M56.9 9l.4-.7 2.4-1.2m-5.1 11.6-.4.3-3.3 6.2 1 4.4m0 .2.1-.1m5.1-9.5v-3m.4 5.7-.4.4v3.8l2.5 1.3v-8.2l.1-1.7m-8.2.8-.3.6-1.8 3.5-1.5 2.9-1 6.7-.1.4 2.1 1v-3.2l.3-.1 2.6-1.3m.1-10.2-.4-.3 4.1-7.8M52 19.6l-1.1 5.6m2.9 6.2 2.7-1.4 3-1.6-2.3-1.2-2.7 1.3-.3.5m3-5.7-2.7 5.2M76 18.9l.2.4m2.6-2.7-2.5 1.2-.3.7-1.3 2.5-1 4.3V27l-.1 1.5v.2M59.7 18.3l5.8-2.9 2.4-1.2m-8.5 14.2h.1m0 0 4.7 2.4m0 0-4.7-2.4m10.6 1.2.3-.7 1.5-2.7.7-1.4 2-3.7m-3.7 8.1-.5-.3m.5.3-1.1 4.4.6.2 3-5.4m-1.5-2.2 1.7.8m-3.8 7.8.6-1-.6-.2zl1 4.4M68.4 44l-.2.2-2-1h-.3l-.1-.1m-.1.1-2.9 5.2h0l-1.2 2.4v1h0v.2l1 3.2m-2.6 5-.2.1-2-1M55.1 63l-1 2v1l1 3.3m-2.5 4.8-.2.1-2-1m-.4.2-2.1 3.3-.6.3-.6.3.1 2.5m-5.1.3v-.4m26.8-45.9-.1.4m-2.7 8.5v.2m-.1-2.7v2.9m0-2.9.2-.7 1-3.7-4.7 9.1.5.2-.4 3 .5.2m-1-2.7.4-.7m-.4.7L59.9 49l.1.1m.1.9v.3m2.1-2.2.5.3m-.5-.3-.7 2.7m5.3-14.9 1.6-2.9 1.7-3.4m-18.6 3-.2.1m0 0v9.9l-2.5-1.2v-2.2l.4-.8m-.4-2.7v-1.3M47 42.6l.3-.5 1.5-2.9m1.6 3-1.6-.8-1.5.7m3 .1.8.4h.1l5.4 2.7M43 35.4l.5.3-1 5.5 4.3-8.2m-5.9 6.4-1.5 3-.4 1.3q-.8 2.6-.6 5.2v.6l2 1v-5l.6-.4 2-1 1.8-.8m-3.9-3.9 1.8-3.3.3-.7 4.8-9.1M43 46.9v-.1h0l8.2-4.2m-10.8 8v1m.4 2.8-.4.8.1.4 1.4.6m.1.1.6.3-3.9 2-4 2v10.1m8-14v-8.4l.3-1.4m-2.9 8.8-.2.6m-2.2.6L35.4 58l-1.9.9-1.1.6v4.8l-1.5-.8v-.4l1-6.7 1.6-2.9 1.8-3.4.3-.6.4.2-1 5.6.4 2.7m4.9-2.8-.3.5.4-.1M43 44.1l-.6-2.9m8.9 1.4 5.3 2.7M51.1 66l-.4 1.2m2-2.8V67m1.4-2 .4-2.2m-10.4 8.5.2.4m.1.9v.3M42 70.6l.6 4.3m3.8 1.9.2.7m.6-.3-.8-.4q-.6-3.4 0-6.8l.4-1.7m2.1-8.3L43 56.7m19.7 2.1-.1.1m-11-26.3 2.1-1.2M60 49l-2.6 5.2-2.6 4.9m-21.1-5.6v.5l.1.1m-.1-.3v-.3m0 .5v-.2m1.1 6.9h-.1M32.5 67v-2.6M31 63.1l-2.2 4.1-1.1.6.1 2.5m-5.1.3v-.4m1.8-10-.5.2-1 .5m2.3 1 .1.6m2.3 5.3-.3-1.8q-.4-3.7.4-7.4m4.3-2.1-7.7 3.8m10.7-4.9 3.3-6.4m1-6.6-3.7 7.2" vector-effect="non-scaling-stroke"/><path fill="#988340" d="M31.4 97v36.4l-3.4-1.7V95.3z"/><path fill="none" stroke="#32303a" stroke-linecap="round" stroke-linejoin="round" stroke-width="__RESOLUTION__" d="M31.4 97v36.4l-3.4-1.7V95.3z" vector-effect="non-scaling-stroke"/><path fill="#5e5137" d="M35.2 95.5v35.6l-3.8 2.3V97.8z"/><path fill="none" stroke="#32303a" stroke-linecap="round" stroke-linejoin="round" stroke-width="__RESOLUTION__" d="M35.2 95.5v35.6l-3.8 2.3V97.8z" vector-effect="non-scaling-stroke"/><path fill="#988340" d="M3.4 119.4 0 117.6V81.3L3.4 83z"/><path fill="none" stroke="#32303a" stroke-linecap="round" stroke-linejoin="round" stroke-width="__RESOLUTION__" d="M3.4 119.4 0 117.6V81.3L3.4 83z" vector-effect="non-scaling-stroke"/><path fill="#5e5137" d="m7.2 117-3.8 2.3V83.7l3.8-2.3z"/><path fill="none" stroke="#32303a" stroke-linecap="round" stroke-linejoin="round" stroke-width="__RESOLUTION__" d="m7.2 117-3.8 2.3V83.7l3.8-2.3z" vector-effect="non-scaling-stroke"/><path fill="#988340" d="M6.1 69v-2.6l16.8-8v2.5z"/><path fill="#5e5137" d="m.3 66.2 28.6-13.8L32 54 3 68 .4 66.7z"/><path fill="#493e2c" d="m.1 81 22.2-10.7 3.2 1.5L2.4 83.1.2 81.9z"/><path fill="#5e5137" d="M22.8 78.6 7.5 85.9l-2.2-4.5 15.3-7.3z"/><path fill="#988340" d="M22.5 95 .2 84.1V82l22.3 10.9zm2.5-3-14.6-7.6v-4.3L25 88z"/><path fill="#493e2c" d="M32.7 69.7 47.3 77 25 87.8l-14.3-7.5z"/><path fill="#5e5137" d="m87.7 123.5-3.1 1.5-9.3-4.5L50 72.1l-8.5-4 3.1-1.7 8.5 4.2L78.5 119zm-3.7 4.2.5 9.1v.3l-2.2 1.2-.4-9.2.1-.6.3-2 1.9 1zm-11.4 9.6-8 4 .9 5.1v.3l-2.3 1.2-.4-8.5v-.4l.1-.9.2-.3.1-1.6 2 .9.3.2 3.1-1.6V133l-3.1 1.6-9.3-4.5L31 81.8l-8.5-4.2 3.1-1.5 8.5 4.1 1.3 2.5 3.4 6.5.8 1.5 3.4 6.5 3.4 6.6.9 1.6 3.3 6.3v.1l3.4 6.6.7 1.3 3.5 6.6 1.1 2.2 5.3 2.6 1.8.8 2.2 1.1-2.2-1 6.2-3.1zM50.4 75.5l1.3 2.5 1 7.2v.3l-2.3 1.2-.2-3v-.2zm7.8 50.8-3.5-6.6 9.5-4.8.3-.2v8.5h-.1zm-7.6-14.6-3.3-6.3 8.6-4.4h.1v8zM43 97.2l-3.4-6.5 8-4h.1v8.1zm-11.6-.9-.3-9.3.1-1.3.1-.3.1-.3.4.8.9 1.6 1 4.3v1.7l1.6-.9 1.5 2.8-.4.2 1 4.4-.5.3-3-5.4-.2.1v.1zm7.6 3.4 1.4 2.6 1.1 3.7.1.6.1.1v.3l-.2 2.1v.4h-.4l-1.9 1-.4-9.9v-.3l.1-.9zm8.3 15.6 1.5 3 .4 1.6q1.3 4.6.4 5.6v.1l-2.1 1-.4-9.9v-.4l.1-.9m7.6 14.3 1.4 2.6.2 1.3h.1l.5 6-.1.1-2 1-.4-7.5V131l.1-1.3zM33.7 93.4V95zm24.7 4.2-.2-.2-.3-7.7 1.5 3 1.1 6.7v.4l-2 1zm7.8 8.2 1.1 2.1.2.4.3.5.3 1.2q.8 2.8.6 5.3v.6l-2 1v-5.1l-.6-.3zm7.5 14.1 1.5 2.8 1 6.8v.4l-1.5.8v-4.9l-1.1-.6zm-21.5 5.8.5 3.3-.5.3-1.6-3-.4-.9-.1-4.8 2.5 4.9zm12.6 15.5.6-4.3z"/><path fill="#493e2c" d="m84.5 136.7 3.2 1.5-3.1 1.6-9.3-4.5-1-1.7.5-.2v-2.7l1.4-.7v-.4l2.2 4.1 1.2.6-.2 2.5 2.8 1.4 2.3-1.2zm-19 9.6 3.1 1.5-3.1 1.6-9.3-4.6L31 96.6l-8.5-4.2 2.5-1.2h.1l3.5 1.6V95l2.8 1.4 2.3-1.2V95l.1-.1 3 5.4h.1l.5 1-1 4.4 2.5 4.8.3.1 2-1h.3l.1.1 2.9 5.1v.1l1.3 2.3v1h-.1v.2l-1 3.3 2.6 5h.2l2-1 .6-.2.4.9 1.6 3 1 2v1.2l-1 3.2 2.5 4.9.3.1 2-1 1.1 2.1-.8-2 2.1 3.4.6.3.6.3-.1 2.5 2.8 1.4 2.3-1.2zM39.3 80.7l2.5 1.2 5.8 2.9-8.8 4.4-3.4-6.5zm11.1 6 2.4-1.2v-.3l.4.2 3.2 6.3-1 4.4.1.1h-.1l-.5.2-5.1-9.6.4-.2zm14.2 44.4-5.3-2.6-1.1-2.2 6.2-3 .1-.1h.1l7.9 3.9zm-10.5-12.7-3.5-6.6 5.4-2.7 8.2 4.1zm-7.6-14.6L43 97.2l4.8-2.4v.1h-.1l2.3 1.2 2.9 1.4 2.9 1.5zm-17-18.1-.1 4.3-4.3-2zm3.3 1.8 2 3.8-1 .5zM58.4 101l2.1-1v-.4l4.3 8.1-.5 3-1.9-.9-.3.2-4-7.6.3-.2zm8.4 16.1 2-1v-.6l3.4 6.4-.5 2.6-2.1-1-.4.2-2.8-5.2.4-.3z"/><path fill="#988340" d="M87.7 138.2v2.6l-3.1 1.5-9.3-4.5-.9-1.6v-2.6l.8 1.7 9.4 4.5zm-19 9.7v2.5l-3.1 1.5-9.3-4.5-11.5-22v-.1L31 99.2l-.9-.5-7.6-3.7v-2.6l8.5 4.2 25.2 48.3 9.3 4.5zM50.2 83.6l-2.5-1.2.3-1.7q.6-3.6-.4-7l2.4 1.1.4.8zm-11.4 5.7 8.8-4.4v1.9l-8 4zM22.5 77.6l8.5 4.2 25.2 48.3 9.3 4.5 3.1-1.6v2.6l-3.1 1.6-.3-.2-2-.9-.1 1.6-.2.3-.1 1v.3l.4 8.5-2.9-1.4.2-2.5.3-.7q.6-3.4 0-6.8l-.4-1.8-4.2-2.2-1.4-2.6-5.1-9.7-1-1.7-1.5-3-1.4-2.8-.5-1-.1-.2-4.8-9-1.4-2.6-.5-1-1.4-2.8-.3-.6-1.4-2.8-.7-1.2-2-3.9-.9-1.7-.8-1.4.4.7-.1.3-.1.3-.1 1.3.3 9.3-2.8-1.4v-2l.7-2.9.1-4.3-.2-.5-.6-2-6.1-3zM66.4 132l-1.8-.9 7.9-4v1.8zm-11.7-12.2-.7-1.3 10.2-5.2v1.7zm-7.4-14.3-.9-1.6 9.4-4.8.1.1v1.9zM29.3 90l-.7 2.8-3.5-1.7v.1-3.3zm5.3 1.3.8 1.3-1.7.9v-1.7zM37 96l1.4 2.8.4.7-.1.9v.3l.4 10-.3-.2-2.5-4.8 1-4.4-.5-1 .5-.2-1-4.5zm3.3 6.4 4.8 9-.6.3.4 2.9-.5.3-2.9-5.2V108l.1-.9.3 1-.3-1.3v-.6l-.2-.1zm5.4 10.2 1.5 2.8v.1l-.1 1v.3l.3 10-.2-.2-2.5-4.9 1-3.3v-1.2l-1.3-2.3.5-.3.8 2.6-.7-2.6-.4-2.9 1 .5zm3 5.8.9 1.7.3.6.1 4.8-.6.2h.1q1-1-.4-5.7zm7.4 14.1 4.3 2.2.4 1.8q.6 3.4 0 6.8l-.9.4-.6-.3-2.1-3.4.8 2-1.1-2.1h.1l-.5-6zm-18.7-32.3v1.3zm20.8-2.6-2.7-1.3-.1-.1 1-4.4-1-5.7.7.4 1.8 3.4zm-3.3-1.1-1.7-.9-.3-.5-2.7-5.2-.5-.4v-2.6zm3.1 6 4 7.5-1.7-.9-.3-.4-1.6-2.9-.4-.8zm6.3 8.3.5-3-1.1-5.5.9.5 1.7 3.3-.1 5.7zm3.4-2.2.3.4v.1zm4.1 7.8.2.4 1.8 3.4-.1.6v4.8l-1.9-1 .5-2.6-1.1-5.6.8.4zm7.7 8.8 2.8 1.4-.2 2-.1.6.3 9.2-2.8-1.4.2-2.5.2-1.9q.4-3.7-.4-7.4m-26.6 1.2 1.9 3.4h-.1v3.7l.3 7.5-.2-.1-2.6-4.9 1-3.2v-1.2l-.5-2.3-.6-3.3zm-.2 3 .4 2.2-1-2zm14.2-7.5-.4-.7v-2.6l2.8 5.3-1.8-.9-.3-.5z"/><path fill="#3e3c48" d="m74.4 136.3-1.8.9v-10l.7-.5 1.5-.8v7.5l-.4.2zM48.2 84.4l2-.9v3.1l-.5.3v2.5l.4.4v3.8l-2.4 1.3v-8.2l-.1-1.7v-.2zM55.9 99l2.6-1.3v4.4l-.4.3v2.5l.4.8v2.1L56 109v-8l-.1-1.8zm8.5 14.2.6-.6v.3l1.9-1v6.2l-.4.3v2.5l.4.7v.4l-1.4.7-.2.1-.6.3-.1.1v-8.5l-.2-1.3z"/><path fill="#9e7b5b" d="m50.1 83.7.3 3.1-.2-.2z"/><path fill="#615a70" d="m41.8 81.9-2.4-1.2h-.1l2.6-1.3 5.8 2.9 2.4 1.2-1.9 1-.5.2zm16.5 15.6.2.2-2.6 1.3-3-1.5-2.7-1.4-2.4-1.2 2.4-1.3L53 95l.3.5 1.7.9.5-.2h.1zm3.9 12.4.3-.2 1.9 1 1.9.9.6.3-1.9 1v-.3l-.7.6-8.2-4.1h.1l.8-.4 1.6-.8 1.5.7.3.4zm2.5 13.1.6-.3.2-.1 1.3-.7.4.2.3.5 1.8 1 .4-.3 2.1 1 1.9 1 1.2.5-1.5.8-.7.4z"/><path fill="#c17b4b" d="m41.8 81.9 5.9 2.8-.2.1zm11 15.6 3 1.5zm4.1 11.1-.7.4zm7.7 14.4 8 4h-.1z"/><path fill="#7a4929" d="m47.7 84.7.5-.3-.6.4zm16.5 28.5v.2zm8.4 14v1.7z"/><path fill="#8f6f53" d="m36.8 95.4.3.6-.7-.4zm8.4 16v.2l.3.6-.9-.5zm26.4 4.5.1.3.2.4-.8-.4zm-7-13.3-.9-.5.5-.2zm-8.4-16.2H56l-.7-.4.4-.2zm-3.7 39.2.4.6-.9-.4z"/><path fill="#e9e8b6" d="m47.8 94.9 2.3 1.2-2.4-1.2"/><path fill="#668499" d="M47.7 86.7h-.2l.1-1.7zm8.3 14.2-.1.1v-1.8zm8.6 13.8-.3.2v-1.5z"/><path fill="#dd8d55" d="m41.7 106.7-.2-.6.1.1zm0 1.3v1.7l-.1-.1v-.4l.1-2.2zm4 10.2.1.1v.1z"/><path fill="#977557" d="M41.7 107.1v-.3l.3 1.3z"/><path fill="#da8b54" d="M41.7 107v1z"/><path fill="none" stroke="#292118" stroke-linecap="round" stroke-linejoin="round" stroke-width="__RESOLUTION__" d="m44.7 66.4 8.4 4.2L78.5 119l9.3 4.5v2.6l-3.1 1.5-.4-.1-.2.2.5 9.1 3.2 1.5v2.6l-3.1 1.5-9.3-4.5-.9-1.6-1.8 1-8 4 .9 5.1 3.1 1.5v2.6l-3.1 1.5-9.3-4.5-11.5-22v-.1L31 99.2l-.9-.5-7.6-3.7L.2 84.2m39.1-3.5 2.5 1.2 5.8 2.9h0m2.5-1.3-2.4-1.2-5.9-2.9-2.5 1.3m-3.9 2 3.4 6.5.8 1.5 3.4 6.5 3.4 6.6.9 1.6 3.3 6.3v.1l3.4 6.6.7 1.3 3.5 6.6 1.1 2.2 5.3 2.6 1.8.8 2.2 1.1v2.6l-3.1 1.6M50.2 83.5v3.1h0m2.5-1v-.4l-1-7.2m-4.1-4.4q1 3.4.4 7l-.3 1.7m-12.3.4-1.2-2.5-8.6-4.1-3.1 1.5v2.6l6.1 3 .6 2 .2.5-.1 4.3-.7 2.8V95m2.6-9.2.1-.3m1.4 2.1 2 3.8.6 1.3 1.5 2.8.3.6 1.4 2.8.4.7.1.3 1.4 2.6 4.8 9v.2l.3.6.3.4 1.5 2.8 1.5 3 .9 1.7.3.6 2.5 4.9.4.6 1.8 3.4.1.3 1.4 2.5 4.1 2.2.5 1.8q.6 3.4 0 6.8l-.3.7-.1 2.5m2.5-7-.1-.5m.1-.9.2-.3M33.7 91.9v1.6l1.6-.9m-1.6-.7-1-4.4M25 91.2l-2.6 1.2m14.3 3-.4.2 1 4.4-.5.3h0l.5-.2h0m-.4.1.5 1V100m0 1.3-1 4.3m2.5 4.8.3.1 2-1h.3v-.2m-2.6-8.7-.1-.3m-2-.1-3-5.4m-.1.1v-1.5m24.7 4.2-.2-.2-2.7-1.3h-.1m-2.2-.7-.3-.5-2.7-1.4-2.5 1.3v-8.2l-.1-1.7m.1 9.9L50 96l2.9 1.4 2.9 1.5.1.1m2.5-1.4v3.2l2.1-1v-.4l-1-6.7-1.6-3-1.7-3.4-.4-.6-.4.2 1 5.7-1 4.4m3 4.8v1.2m4 7.6 1.9 1 .5-3-4.3-8.2m4 3.1 1.8 3.3 1.1 2.1m.5.8 3.7 7.1.1.3m.2.4 1.8 3.4 1.5 2.8 4.2 2.2 2.8 1.4 2 1h0M63.7 102l1 5.5m-.5-5.7.4.7m-.9-.5.5-.2-4.8-9.1m-9.6-3.4.4.4 2.7 5.2m-.1-9.8.4.2 3.2 6.3m-8.6 3.1 2.4-1.2v-3.8M43 97.2l4.7-2.4h0v.1m0 0L43 97.1m15 7.7.4.8 1.6 2.9.3.4m-4.3-8-.1-1.8m.3 9.8-.2.1 8.2 4.1h0m2.6-1.3-.6-.3-2-1m-7.3-2-.7.4m-.2.1-5.4 2.6M56 109l-5.4 2.8m-6-.2.6-.3m-3.7-5.3.1.6.1.1v2.8m-.2-3.5-1.1-3.7m1.3 7.3 2.8 5.1.5-.2-.4-2.9m.4 3-.5.2 1.3 2.3zm2.2 1.8v.3m.3 10 2-1 .1-.2m-.4-5.6-.5-1.7m-3-.1v-1m0 1.2v-.2m1.8 8.5h-.2m-2.5-5 1-3.3m6.3 7.4.5 3.3.5 2.3v1.2l-1 3.2m2.5 4.9.3.1 2-1h.1m-2.5-6.5V131m-2.5-5.1.5-.2m-2 .8 1.6 3 .5-.3M66.9 117l2-1v-.6q.2-2.6-.5-5.3l-.4-1.2v-.1m3.7 7.1-.5.3 1 5.6-.4 2.6-2.1-1M57 108.6l1.6-.7 1.5.7m4.2 4.6v.2l.3 1.3v8.5m.1-.1.6-.3m.2-.1 1.3-.7.1-.4-.4-.7m.4-2.8v-6.2m-2.4 11.3-6.2 3.1m9.2-3.6-.3-.5-.3-.2m0-.4.3.6m6.6-2.2-.1.6m0 4.8 1.2.5v4.8l1.4-.7v-.4l-1-6.7m-3-1.1-3.4-6.4m3.7 13.4v8.3m0-8.3V127m1-1.7-1.9-1m.8 2.7-7.9-4m-6.1-17.4v2.1L56 109v-8m26 27.4-.1.6m2.6 8v-.3m-5.1.1.2-2.5-1.2-.6-2.2-4.1m3.4 4.7.2-1.9q.4-3.7-.4-7.4m-5 11.3v-.2m.3-2.7v-2.7m-9.5 6.3-.6 4.3m-4.7 2.3.6.3m-3.3-4 2.1 3.4.6.3.9-.4m4.7 3.4v-.3m-9.4-13.9.3 1.3h.1m-4.4-4.2 1 1.9" vector-effect="non-scaling-stroke"/><path fill="#493e2c" d="m2.4 80 31 15-2.2 2.1-30.9-15v-1z"/><path fill="#5e5137" d="m9.5 67.4 2.8-1.5v.1q-.8 3.7-.4 7.4l.3 1.8.2 2.5-2.9 1.4.3-9.2zm7.6-3.6 2.9-1.4q-.9 3.8-.5 7.5l.3 1.8.2 2.5-2.9 1.4.4-9.2zM3 83l-.3-9.4v-.9l.1-.4.2-1.7 2 1-.7 4.5 1 5.3v.3z"/><path fill="#988340" d="m9.5 79.1-2.3-1.2v-.3l.5-9-.1-.2 1.9-1 .3 2.5zM15.4 65l-.1-.3 1.8-1 .4 2.6-.4 9.2-2.3-1.2V74zM2.9 70.6l-.2 1.8v.3l-.1 1 .3 9.3-2.8-1.5.1-2.7.2-.7q.6-3.6 0-7.2L0 69.1z"/><path fill="none" stroke="#000" stroke-linecap="round" stroke-linejoin="round" stroke-width="__RESOLUTION__" d="M12.4 66q-.8 3.7-.4 7.4l.3 1.8.2 2.5m-5.2-.1.5-9M20 62.4q-.9 3.7-.5 7.4l.3 1.8.2 2.5m-5.1-.1.5-9M5.2 81.4l-1-5.3.6-4.5" vector-effect="non-scaling-stroke"/><path fill="#988340" d="M9.1 73.5 12 75l-.2 1.7-.2.3v1.4l.4 9-3-1.5.2-2.7.2-.7q.6-3.6 0-7.2zm12.4 6.2-.2 1.7-.1.4-.1 1v.3l.4 9-2.9-1.5.1-2.7.3-.7q.6-3.6 0-7.2l-.4-1.8z"/><path fill="#5e5137" d="m12 87.4-.4-9V77l.2-.3.2-1.7 1.8 1-.6 4.4 1 5.4v.3zm9.5-7.7 1.9 1-.6 4.5 1 5.3v.3l-2.3 1.3-.4-9v-.4l.1-.9.1-.4z"/><path fill="none" stroke="#292118" stroke-linecap="round" stroke-linejoin="round" stroke-width="__RESOLUTION__" d="m9.1 73.5.4 1.8q.6 3.6 0 7.2l-.2.7-.2 2.7m2.5-7.5V78m0-1 .2-.3m2-.8-.6 4.5 1 5.4m7.1-4.4-.1.4m-.1 1v.3m2.6 7.4-.9-5.3.6-4.5m-4.8-2.5L19 80q.6 3.6 0 7.2l-.2.7-.2 2.7" vector-effect="non-scaling-stroke"/><path fill="#988340" d="m.1 66.7 29.5 14.4v2.5L.1 69.4z"/><path fill="#5e5137" d="m2.7 65 30.7 14.8-2.2 2-31-15v-.6z"/><path fill="#988340" d="m28.6 83.2-6.1-3v-2.6l8.5 4.1L56.2 130l9.3 4.5 3.1-1.5v2.6l-3.1 1.5-2.3-1-.2 1.5-.1.4-.1.9v.3l.4 8.6-2.9-1.5.1-2.5.3-.7q.6-3.4 0-6.7l-.4-1.8-4.2-2.2-23.5-44.9-.9-1.9-.1-.1-.4-.8.2.3-.1.3-.2.4v1.2l.3 9.4-2.9-1.4v-2.1l.8-2.9.1-4.3-.2-.5z"/><path fill="#5e5137" d="m31.4 96.3-.3-9.4v-1.2l.1-.4.2-.3.2.5.1.1 1 1.9.9 4.3.1 3.3z"/><path fill="none" stroke="#000" stroke-linecap="round" stroke-linejoin="round" stroke-width="__RESOLUTION__" d="m28.6 83.2.5 2m.3.4-.1 4.3-.8 2.9v2.1m2.6-9.2.1-.4" vector-effect="non-scaling-stroke"/><path fill="#5e5137" d="m44 81.3.3-8.5.1-.4-.1-.9-.2-.3-.2-1.6 3-1.5-.5 1.8q-.6 3.3 0 6.8l.3.6.1 2.6z"/><path fill="#988340" d="m44 69.6.1 1.6.1.3.2 1-.1.3-.4 8.5-2.2-1.2v-.3l1-5.1-.7-4.2z"/><path fill="none" stroke="#000" stroke-linecap="round" stroke-linejoin="round" stroke-width="__RESOLUTION__" d="m46.9 79.9-.2-2.6m-.3-.6q-.6-3.5 0-6.8l.5-1.8M42 70.6l.6 4.2-.9 5.1" vector-effect="non-scaling-stroke"/><path fill="#5e5137" d="m41.5 68 3.1-1.6 8.5 4.2 25.2 48.3 9.4 4.5-3.2 1.5-9.3-4.5L50 72.1z"/><path fill="#988340" d="m41.5 68 8.5 4.1 25.2 48.3 9.3 4.5 3.2-1.5v2.5l-3.2 1.6-9.4-4.7L50 74.7l-8.5-4.2z"/></g></defs><g clip-path="url(#a)"><use xlink:href="#b" width="108.3" height="151.9" transform="translate(1 1)"/></g></svg>