<svg xmlns="http://www.w3.org/2000/svg" xmlns:xlink="http://www.w3.org/1999/xlink" width="56" height="50" viewBox="0 0 56 50"><defs><clipPath id="a"><path d="M1 1h54v48H1z"/></clipPath><g id="b"><path fill="#000" fill-opacity=".3" d="M51.9 34.1q-13 5.4-26 13.6L1 34.7q13.8-5 26-13.7z"/><path fill="#4d4f31" d="m41.7 24.9 3.5-1.9v2.6l-1.4 1-.5 1.5-1.6-.5z"/><path fill="#5e613d" d="M41.7 24.9v2.7l-1.6.1H40l-1-1.6-1.5-.3v-3.2zm0 5v.2l-1.5 1.6-.7-1.3.5-1.1z"/><path fill="#473a2e" d="m41.7 27.6 1.5.5.6-1.6 1.5-1V35l-3.6 1.9z"/><path fill="#684f36" d="m41.7 36.9-4.2-2.4v-8.7l1.5.3 1 1.6h.1l1.5-.1v2.3l-1.7-.6-.5 1 .8 1.4 1.4-1.6z"/><path fill="none" stroke="#000" stroke-linecap="round" stroke-linejoin="round" stroke-opacity=".3" stroke-width="__RESOLUTION__" d="M45.3 25.6V23l-3.6 1.9-4.2-2.3v11.9l4.1 2.4 3.6-1.9z" vector-effect="non-scaling-stroke"/><path fill="#4d4f31" d="m29.6 33.2-1.4 1-.6 1.5-1.6-.5v-2.7l3.6-1.9z"/><path fill="#473a2e" d="m26 35.2 1.6.5.6-1.6 1.4-1v9.5L26 44.5z"/><path fill="#5e613d" d="M26 32.5v2.7l-1.5.1h-.2l-.9-1.6-1.6-.3v-3.2z"/><path fill="#684f36" d="M26 35.2v9.3l-4.2-2.4v-8.7l1.6.3 1 1.6h.1z"/><path fill="none" stroke="#000" stroke-linecap="round" stroke-linejoin="round" stroke-opacity=".3" stroke-width="__RESOLUTION__" d="M29.6 33.2v-2.6L26 32.5l-4.2-2.4v12.1l4.2 2.3 3.6-1.9z" vector-effect="non-scaling-stroke"/><path fill="#4d4f31" d="m10 24.8 3.6-2v2.6l-1.4 1-.6 1.6-1.6-.6z"/><path fill="#5e613d" d="M10 24.8v2.6l-1.5.2h-.2l-.9-1.7-1.6-.2v-3.3zm0 5-1.5 1.7-.7-1.4.5-1.1z"/><path fill="#473a2e" d="m10 27.5 1.6.4.6-1.5 1.4-1v9.5L10 36.8v-9.4"/><path fill="#684f36" d="m10 36.8-4.2-2.4v-8.7l1.6.3 1 1.6h.1l1.5-.2v2.4L8.3 29l-.6 1.1.8 1.4 1.5-1.7z"/><path fill="none" stroke="#000" stroke-linecap="round" stroke-linejoin="round" stroke-opacity=".3" stroke-width="__RESOLUTION__" d="M13.6 25.4v-2.5L10 24.8l-4.2-2.4v12l4.2 2.4 3.6-2z" vector-effect="non-scaling-stroke"/><path fill="#785b3f" d="m26.5.4 4.2 2.1-6.1-1.1zm23.2 11.5 3.1 1.6-1.7.9zM.4 14.4l1.7-.9q11.2 3.6 18.5 8.2 3.6 2.3 6.2 4.8l-1.4.6-4.8-2.4-3.1-1.6-7.3-3.7-5.9-3zm5.3-2.8.2-.2 5.5-2.9q6.5 4.8 16.9 9.5l8.3 3.6-4.2 2.1q-2.6-2.6-6.2-4.7-7.8-4.7-20.5-7.4m8.8-4.8 4-2Q31.9 6.3 42 11.4l2.5 1.3 4.3 2.9-3 1.4-4.9 2.4Q38 17.2 34.5 15q-8-4.6-20-8.2"/><path fill="#826344" d="m30.7 2.5 18.8 9.4 1.5 2.5-2.2 1.2-4.3-2.9-2.5-1.3Q31.9 6.3 18.5 4.8l6-3.4zm-28.6 11 3.3-1.7.2-.2h.1q12.7 2.7 20.5 7.4 3.6 2.1 6.2 4.8l-5.6 2.7q-2.6-2.6-6.2-4.8-7.3-4.6-18.5-8.2m9.3-5 .5-.2v-.1l2.5-1.4q12 3.6 20 8.2 3.5 2.1 6.4 4.4l-4.3 2.2-8.4-3.6Q18 13.3 11.5 8.5"/><path fill="#4c3928" d="M52.8 13.6v5.3l-6 3.1-1-5 3-1.4 2.3-1.2zm-20 15.9-7.3 3.8v-6.1l1.4-.7 5.6-2.7q-.4.6.3 5.6"/><path fill="#413123" d="m46.8 22-14.1 7.5q-.7-5.1-.4-5.7l4.3-2.2 4.3-2.2 5-2.4z"/><path fill="#624a33" d="m25.5 33.3-5-2.5q-1.2-2.7.1-6.1l4.8 2.4zm-10.9-5.7-4.4-2.3.1-5.9 7.3 3.7v.1q.1 4-3 4.4m-10-5.2-4-2-.1-6 4 2z"/><path fill="#684f36" d="m20.5 30.8-6-3.2q3.1-.4 3-4.4v-.1l3.1 1.6q-1.3 3.4 0 6M10 25.4l-5.5-2.9-.3-6 5.9 3z"/><path fill="none" stroke="#684f36" stroke-linecap="round" stroke-linejoin="round" stroke-width="__RESOLUTION__" d="m26.5.4 4.2 2.1 18.8 9.4 3.3 1.6M18.5 4.8Q31.9 6.3 42 11.4l2.5 1.3 4.3 2.9m-7.9 3.9Q38 17 34.5 15q-8-4.6-20-8.2m12.3 19.7q-2.6-2.6-6.2-4.8-7.3-4.6-18.5-8.2m30.3 10.3Q29.8 21 26.2 19q-7.8-4.7-20.5-7.4h0m30.9 10L28.2 18Q18 13.3 11.5 8.5" vector-effect="non-scaling-stroke"/><path fill="none" stroke="#000" stroke-linecap="round" stroke-linejoin="round" stroke-opacity=".3" stroke-width="__RESOLUTION__" d="M52.8 13.5V19l-6 3.1-14.1 7.5-7.3 3.8-4.9-2.5-6-3.2-4.4-2.3-5.5-2.9-4.1-2-.1-6 1.7-.9 3.3-1.7m.4-.4 5.5-2.9m.1 0 .5-.3 2.5-1.4 4-2 6-3.4 2-1" vector-effect="non-scaling-stroke"/><path fill="#a74343" d="m42.3 7.8 1.5.7 2.8 1.4-27.1 14.3h-.1l-2.5-1.3-1.5-.8zm-25.1 24-.4-.2-1.6-1q.7-1.6.4-5.6.8 1.6 1.3 3.7zm-4.8-2.6-3.5-1.8-.2-.1.2-.7q.5-1.7 1.7-3.2-.3 2.3 1.8 5.8M6.9 17.8l15.7-8.3 2.1.8 1.7.6-16.1 8.6-1.4-.7 15.9-8.5-16 8.5zm18.3-9.4 8.7-4.8 1.8.8 1.4.8-10 5.4-.9-1.1zm18.6.1L16.9 22.9zm-17.5 1 9.4-5zM9 27.3v-.8zm7.9 4.3v-2.9z"/><path fill="#b55" d="M19.4 24.2v8.7l-2.2-1.1-.3-3.1v-5.8l-1.5-.8-5.1-2.6-1.4-.7-2-1v8.5l1.8.9.2-.7q.5-1.7 1.7-3.2-.3 2.3 1.8 5.8l2.8 1.5q.7-1.6.4-5.6.8 1.6 1.3 3.7v-5.8zm3.3-14.7 1.1-1 1.6 1.1 1.4 1.1-.4.2-1.6-.6.6-.7-.6.7zM9 26.5v-7.7z"/><path fill="#893636" d="m23.8 8.6 1.3-.2 1.1 1.1-.7.1.8-.1.8 1 10-5.3 5.2 2.6-27 14.3-5-2.6 16.1-8.6.4-.2-1.4-1.1z"/><path fill="none" stroke="#000" stroke-linecap="round" stroke-linejoin="round" stroke-opacity=".3" stroke-width="__RESOLUTION__" d="M46.6 9.9 19.4 24.2h-.1v8.7l-2.2-1.1-.4-.2-1.6-1-2.8-1.5-3.5-1.8-.2-.1-1.7-1" vector-effect="non-scaling-stroke"/><path fill="none" stroke="#684f36" stroke-linecap="round" stroke-linejoin="round" stroke-width="__RESOLUTION__" d="M16.9 22.9 43.8 8.5M25.5 9.6l.8-.1 9.4-5m-10.3 5-.6.7-16 8.5" vector-effect="non-scaling-stroke"/><path fill="none" stroke="#785b3f" stroke-linecap="round" stroke-linejoin="round" stroke-width="__RESOLUTION__" d="M8.9 26.5v.8m8-4.4v5.8l-.1 2.9M8.9 18.8v7.7" vector-effect="non-scaling-stroke"/><path fill="#000" fill-opacity=".3" d="m23.7 13.7-.6-.4v-.2L15 8.8l9.4-3 10 5.6-12.8 5.9-4.2.3 6.2-3.7z"/><path fill="#4b4b36" d="m16.9 9.6-1.2-.2-1.2-1.5 1.2 1.5zm7.3 2-6.7 3.7-2.2-1.2 1.5-.1-.7-1.2-2-.4q.8.5.1 1.2L11.5 12l1.4-.1-.2-.4q1 .7 2.5 0 2.8-.7 2.3 1.6.4-2.3-2.3-1.6-1.5.7-2.4 0l-.6-.8-2-.4q1 .5.2 1.1l-1.7-.9L15.5 7zM19 16.3l-1.6 1-.2-.2 1.8-1zm4-3 .6.3-3.5 2v-.1l3-1.8zm-2.4-1-.4-.2q.3-.7-.3-1.2l1.1-.3-1.1.3q.6.5.3 1.2zm-4 .6-.6-.1zm2.4-2.7.9.8zm1.2 2-.6.5zm-7.4-3 1.9.8-.7 1 .7-1zm2.8.3-.9.5z"/><path fill="#605f44" d="m24.2 11.6-.1.3-.8.5-5.7 3.2-.4.8v.7l.2.2 1.6-1 .1.3-2 1.2-.2-.5-.1-.5v-.7l.6-.9zm-.6 2v.3l-3.4 2v-.3z"/><path fill="#777653" d="m17.5 15.3-.6.8-2.2-1.1.6-.9zm-6-3.3 2.7 1.5-.6.8-2.7-1.4zm-1.1-.5-.6.8-1.7-.8.7-1z"/><path fill="#807f5a" d="m16.9 16.2-.1.6v.5l.3.5-2.2-1.2q-.5-.8-.2-1.6zm-5.7-1.5q-.6-.8-.3-1.6l2.7 1.4q-.3.8.3 1.7zm-3-3 1.7.8q-.3.8.3 1.7l-1.7-.9q-.6-.8-.3-1.6"/><path fill="#a0635c" d="m19.1 16.6-.1-.3 1.1-.7.1.3z"/><path fill="#897d56" d="M17.2 17.2v-.6l5.9-3.5v.6l-3 1.8-1.2.6zm-1.9-3-.6.9-1.1-.6.6-.8zm-4.9-2.5 1.1.5-.6.9-1.1-.6z"/><path fill="#9b8e62" d="M17.2 16.6v-.2l.4-.7 5.7-3.3-.2.7zm-3.6-2.2 1.1.6q-.3.8.3 1.6l-1.1-.6q-.6-.7-.3-1.6m-3.8-2 1.1.6q-.3.8.2 1.6l-1-.5q-.6-.8-.3-1.7"/><path fill="#794b46" d="m20 15.5.1.1-1.1.7v-.2z"/><path fill="#61583d" d="m12.8 11.6.1.4-1.4.1-1.1-.5v-.1q.7-.6-.2-1.1l2 .3zm1.4 1.9q.8-.7-.2-1.2l2.1.4.7 1.2-1.5.1z"/><path fill="none" stroke="#000" stroke-linecap="round" stroke-linejoin="round" stroke-opacity=".3" stroke-width="__RESOLUTION__" d="m14.6 7.9 1.1 1.5 1.2.2m6.4 2.8.8-.5v-.3l-6.7 3.7-.5.8-.1.7v.5l.3.5 2-1.2 1.1-.7 3.4-2v-.3l-.6-.3v-.2zl-5.7 3.2-.4.8v.7l.2.2 1.6-1v-.2l-1.8 1m3.9-6.5-1.1.3q.6.5.3 1.2l.4.2m2.4 1v.4l-3 1.8v.1l3.5-2m-6.2-.4q.6-2.3-2.2-1.6-1.5.7-2.4 0l.1.4m1.3 1.6q.8-.7-.2-1.2l2.1.4h.6m-.6 0 .7 1.2m3.2-3.1-.9-.8m1 5.5.1.3m0-.3-1.2.7m0-.2 1-.6m-.3-2.9.6-.5m-6.2-1.2.7-1-1.9-.8m-.2 2.5-.4-.8-2.1-.4q1 .5.2 1.1h0m-.3 2.6 1 .5 2.8 1.5 1 .5 2.2 1.2m-7-3.7-1.7-.9q-.6-.8-.3-1.6l.7-1L15.4 7l8.7 4.6m-9.3-1.7.9-.5" vector-effect="non-scaling-stroke"/><path fill="none" stroke="#000" stroke-linecap="round" stroke-linejoin="round" stroke-opacity=".3" stroke-width="__RESOLUTION__" d="m14.2 13.6-.6.8q-.3.8.3 1.7m-3.5-4.6-.6 1q-.3.8.3 1.6" vector-effect="non-scaling-stroke"/><path fill="#605f44" d="M25.6 9.6v.3l-.9.5-5.6 3.2-.4.8-.1.2v.5l.2.2 1.7-1v.3l-2 1.2-.2-.5-.1-.5.2-.6.5-1zm-.5 2-.1.3-3.3 2-.1-.3z"/><path fill="#4b4b36" d="m25.6 9.6-6.7 3.7-2.1-1.2h1.4l-.7-1.3-2-.4q1 .5.1 1.1L13 10.1l1.5-.1-.2-.4-.4-.8-2.2-.4q1 .5.2 1.1l-1.6-.9L16.9 5zm-5.1 4.8-1.7.9-.2-.2 1.8-1zm4-3.1.6.3-3.6 2v-.1l3.1-1.8zm-4-3.2 1 .8q.6.5.3 1.2l-.7.5.6-.5q.4-.7-.2-1.2zm1 .8 1-.3zM14.4 7l1.8.8-.6 1 .7-1zM16 5.9l1.1 1.5-.9.5.9-.5zm2.4 1.7L17 7.4zm3.8 2.7-.4-.2zm-4.6.2.5.4zm-3.4-.9q1 .8 2.5 0 2.7-.7 2.2 1.6.5-2.3-2.2-1.6-1.5.8-2.4 0"/><path fill="#777653" d="m18.9 13.3-.5.9-2.2-1.1.6-1zm-7.1-3.8-.6 1-1.6-.9.6-1zm3.8 2-.6 1-2.7-1.4.6-1z"/><path fill="#807f5a" d="m18.4 14.2-.2.6.1.5.2.4-2.1-1.1q-.5-.8-.2-1.5zm-6-3.1 2.6 1.3q-.2.8.3 1.7l-2.7-1.5q-.6-.8-.2-1.5m-1.2-.7q-.2.8.3 1.7l-1.6-1q-.6-.7-.3-1.5z"/><path fill="#a0635c" d="M20.5 14.6v-.2l1-.8.2.3z"/><path fill="#897d56" d="m18.7 15.2-.1-.6 5.9-3.5v.2l.1.4-3.1 1.8-1.1.6zm-6.8-5.6 1 .6-.6 1-1-.7zm3.8 2 1.2.6-.7 1-1-.7z"/><path fill="#9b8e62" d="m18.6 14.6.1-.2.4-.8 5.6-3.2-.2.7zM15 12.4l1.1.7q-.3.7.3 1.5l-1.1-.5q-.5-.8-.3-1.7m-3.7-2 1 .7q-.3.7.3 1.5l-1.1-.5q-.5-.8-.2-1.7"/><path fill="#61583d" d="M11.8 9.5q.8-.6-.2-1.1l2.2.3.4 1 .2.3-1.5.1zm5 2.6-1.2-.6q.8-.6-.1-1.1l2 .3.8 1.4z"/><path fill="#794b46" d="m21.6 13.7-1.1.7-.1-.3 1.1-.6z"/><path fill="none" stroke="#000" stroke-linecap="round" stroke-linejoin="round" stroke-opacity=".3" stroke-width="__RESOLUTION__" d="m24.8 10.4.8-.5v-.3l-6.7 3.7-.5.9-.2.6.1.5.2.4 2-1.1 1.2-.7 3.3-2 .1-.3-.6-.3v-.2zL19 13.6l-.4.8-.1.2v.5l.2.2 1.7-1 1-.7v-.1l3.1-1.8-.1-.4m-10-1.3-.2-.4-.4-.8-2.2-.4q1 .5.2 1.1h0m9.3 1.1.6-.5q.4-.7-.2-1.2l-1-.8m2 .5-1 .3m-5.9 0 .7-1-2-.8m2 .8.8-.5L16 5.9m1.1 1.5 1.3.2m7.2 2L16.9 5l-6.7 3.6-.6 1q-.2.8.3 1.5l1.6 1 1.1.5 2.7 1.5 1.1.5 2.1 1.2m3.3-5.7.4.2m-.7 3.2-1.1.6.1.3m1-.8.2.3m3.4-2.3-3.6 2m-3.2-1.5-.8-1.3-2-.4q1 .5.1 1.1m2.5-.6-.5-.4m1 4.6 1.8-1m-1.5-2.9q.5-2.3-2.2-1.6-1.5.8-2.4 0" vector-effect="non-scaling-stroke"/><path fill="none" stroke="#000" stroke-linecap="round" stroke-linejoin="round" stroke-opacity=".3" stroke-width="__RESOLUTION__" d="m15.7 11.5-.7 1q-.2.8.3 1.6m-4-3.6.5-1m-.3 2.6q-.5-.8-.2-1.7" vector-effect="non-scaling-stroke"/><path fill="#897d56" d="m9.8 8.9-1.2-.6.7-1 1 .6zm12.2 0v.2l.1.5-3.1 1.8-1.1.6-1.8 1v-.6zm-8.3 2-1.2-.6.6-1 1.1.6v.1z"/><path fill="#9b8e62" d="m8.6 8.3 1.2.6q-.4.7.2 1.5L8.9 10q-.5-.8-.3-1.6m13.3.6L16 12.5l.1-.2.4-.7 5.6-3.2zm-8.1 3.5-1.1-.5q-.5-.8-.2-1.6l1 .6q-.2.7.3 1.5"/><path fill="#777653" d="m9.8 8.9.5-1L13 9.5l-.6.9zm-.4-1.5-.7.9-1.5-.9.5-.9zm5 2.5 2.1 1.2-.6 1-2.2-1.2z"/><path fill="#61583d" d="m10.4 8-1.2-.6q.8-.7-.1-1.2l2 .4.5.9.2.4zM13 9.5q.8-.7-.1-1.2l2 .4.7 1.3h-1.5z"/><path fill="#807f5a" d="m7 7.5 1.6.8q-.2.8.3 1.6L7.3 9q-.5-.7-.2-1.6m8.9 6.2-2.2-1.2q-.6-.8-.3-1.5l2.3 1.2-.2.5.1.5zm-3.3-1.7L10 10.4q-.6-.8-.2-1.5l2.6 1.4q-.2.8.3 1.6"/><path fill="#4b4b36" d="m9.2 7.4-1.6-.9 6.7-3.7L23 7.4l-6.7 3.7-2.2-1.2h1.5L15 8.6l-2-.3q1 .4.1 1L10.3 8h1.5l-.2-.4-.5-.9-2-.4q.9.5.1 1.2M16.3 9q.5-2.4-2.2-1.6-1.5.7-2.5 0 1 .7 2.5 0 2.7-.8 2.2 1.6m-2.9-5.3 1.1 1.5-.9.5-1.8-.9 1.8.8.9-.5zm.2 2-.6 1zM18 6l1 .8q.6.6.3 1.2l-.7.6.6-.6q.4-.6-.2-1.2zm1.7 2.2-.5-.2zM19 6.8l1-.3zM16 13l1.8-1 .1.2-1.7 1zm2.9-1.6L22 9.6l-.1-.5.6.4zm-3.9-3 .5.3zm.8-3-1.3-.2z"/><path fill="#605f44" d="M16.3 11.1 23 7.4v.4l-.9.5-5.6 3.2-.4.7-.1.2v.6l.2.1 1.7-.9v.3l-2 1.1-.2-.5-.1-.5.2-.5zm6.2-1.6-.1.3-3.3 2-.2-.3z"/><path fill="#794b46" d="m17.8 12 1.1-.6v.1l-1 .7z"/><path fill="#a0635c" d="m19.1 11.8-1.2.6v-.2l1-.7z"/><path fill="none" stroke="#000" stroke-linecap="round" stroke-linejoin="round" stroke-opacity=".3" stroke-width="__RESOLUTION__" d="m9.3 7.4-.7.9q-.2.8.3 1.6m3.8 2q-.5-.8-.2-1.6l.5-1" vector-effect="non-scaling-stroke"/><path fill="none" stroke="#000" stroke-linecap="round" stroke-linejoin="round" stroke-opacity=".3" stroke-width="__RESOLUTION__" d="M7 7.5q-.2.8.3 1.5l1.6.9 1.1.5 2.7 1.5 1.1.5 2.1 1.2 2-1.2 1.2-.7 3.3-1.9.1-.3-.6-.4V9l.3-.7-5.7 3.3-.4.7-.1.2v.6l1.8-1 1.1-.6L22 9.6l-.1-.5M7.6 6.5l-.5 1m2.2-.1q.8-.7-.1-1.2l2 .4.5.9q1 .7 2.5 0 2.7-.8 2.2 1.6M11.7 5l2 .8.8-.5-1.1-1.5m-1.6 4-.2-.3M13 9.4q.8-.7-.1-1.2l2 .4.7 1.3m.7 1.2L23 7.4l-8.7-4.6-6.7 3.7m5.4.2.6-1m5 2.8.5-.6q.4-.6-.2-1.2l-1-.8m1.3 2 .4.2m.3-1.7-1 .3m3.3 1.5.8-.4v-.4m-7.5 1.3-.5-.3m-.5-3.2 1.3.2m3.1 6.1.2.3m-.2-.4 3.6-2m-4.6 2.7-.1-.2m1.1-.5-1 .7-1.7 1-.2-.2m-.2-1 .5-.9m-.4 2.5-.2-.5-.1-.5.2-.5" vector-effect="non-scaling-stroke"/></g></defs><g clip-path="url(#a)"><use xlink:href="#b" width="53.1" height="47.7" transform="translate(1 1)"/></g></svg>