<svg xmlns="http://www.w3.org/2000/svg" xmlns:xlink="http://www.w3.org/1999/xlink" width="81" height="136" viewBox="0 0 81 136"><defs><radialGradient id="g" cx="0" cy="0" r="819.2" gradientTransform="matrix(.02 0 0 .01 -1.95 -81.6)" gradientUnits="userSpaceOnUse" spreadMethod="pad"><stop offset="0" stop-color="#3e4811"/><stop offset="1" stop-color="#454f1a" stop-opacity="0"/></radialGradient><radialGradient id="f" cx="0" cy="0" r="819.2" gradientTransform="matrix(.02 0 0 .01 -2.6 -64.4)" gradientUnits="userSpaceOnUse" spreadMethod="pad"><stop offset="0" stop-color="#3e4811"/><stop offset="1" stop-color="#454f1a" stop-opacity="0"/></radialGradient><radialGradient id="e" cx="0" cy="0" r="819.2" gradientTransform="matrix(.02 0 0 .02 .8 -49.15)" gradientUnits="userSpaceOnUse" spreadMethod="pad"><stop offset="0" stop-color="#3e4811"/><stop offset="1" stop-color="#454f1a" stop-opacity="0"/></radialGradient><radialGradient id="d" cx="0" cy="0" r="819.2" gradientTransform="matrix(.03 0 0 .02 -2.45 -26.15)" gradientUnits="userSpaceOnUse" spreadMethod="pad"><stop offset="0" stop-color="#3e4811"/><stop offset="1" stop-color="#454f1a" stop-opacity="0"/></radialGradient><radialGradient id="c" cx="0" cy="0" r="819.2" gradientTransform="matrix(-.04 0 0 .02 -1.35 -7.2)" gradientUnits="userSpaceOnUse" spreadMethod="pad"><stop offset="0" stop-color="#3e4811"/><stop offset="1" stop-color="#454f1a" stop-opacity="0"/></radialGradient><radialGradient id="b" cx="0" cy="0" r="819.2" gradientTransform="matrix(.05 0 0 .03 2.2 -.9)" gradientUnits="userSpaceOnUse" spreadMethod="pad"><stop offset="0" stop-color="#3e4811"/><stop offset="1" stop-color="#454f1a" stop-opacity="0"/></radialGradient><clipPath id="h"><path d="M1 1h79v134H1z"/></clipPath><path id="a" fill="#fefefe" d="M22.1 2.3v1q.3 1.7 0 2.7 0 2.2 1.2 5.8t1.1 4.5q0 3.4-2.5 3.4-1 0-2-.7-1-.8-1.7-.8-1.9 0-3.7 1.6-1.9 1.5-3 1.5-1 .1-1-.7t1.6-1.9q1.7-1.3 2.1-2.3-.7 0-.7-1.1l1.7-3q-.6-1-.6-3Q15 6.9 16 4.7 18.1 0 21 0q.8 0 .9.8zm-5.7 26.5 1-.3 1-.1q2.2 0 2.2 1.4 0 .6-2 1.8-1.9 1.3-3 1.3t-1.1-.9q0-1.4 1.6-3zM14.3 25q1 0 1 1T14 28t-3.4 1q-1 .2-1-.6 0-1 1.5-2l1.1-.6q.4-.4 1.4-.6zM7.7 39.3l.7-.4q.2-.3.5-.4l.5-.1.8.8q.1 1.7-1.9 1.7-1.5 0-1.5-.6 0-.4.9-1m-4.4 8.9q0-1.3.9-2.4l.4-.4q1-.6 2-.8h.3l1.2-.1q3.3 0 3.3 2.1l-2.5 1.6Q6.4 49.6 5 49.6q-1.7 0-1.7-1.4M13.8 39l2.2-.4q2 0 2 1.4 0 .8-1.3 1.6t-2.7.9q-2.2 0-2.2-1.4 0-1 1-1.6l.8-.5zm.3 14q1 .1 1.8.8 1 .8 1 1.8 0 1.6-2.2 1.6-1.1 0-2.1-.7-1.2-.7-1.2-1.9l.3-1q.9-.6 1.9-.6zm-13 7.5 1.5-.4h.5q1.3 0 2 2.3 0 2.2-1.9 2.2-2.6-.5-2.6-2.4 0-1.1.5-1.7M7.9 59q-2.4 0-2.4-1.1l.3-.7q.5-.7 1.5-.7l.6.3q.5-.4 1-.4l1.3.1q1.1.4 1.1 1Q11.3 59 8 59m-1 6.5.5-.1q1.9 0 1.9 1.3 0 2.8-3.6 2.8-2.9 0-2.9-1 0-.7 1.2-1.7l1.2-.8.9-.3zM.1 72.4.7 71l1.6-.3.9.1q1 .4 1 1.5 0 1.7-2.3 1.7T0 72.3m15.5-4.6q4 0 4 1.5t-3.9 1.1q-.4 0-2.1 1t-2.6 1q-1.6 0-1.6-1 0-.7 1.3-2 1-.9 2.2-1.3l1.2-.3zM5.3 78.5l-1.1-.4q-.8-.6-.8-1.4 0-1 2.3-1.4l.7.2 1 .2q.5.3.5.8-.8 2-2.6 2"/><use xlink:href="#a" id="j" width="24.4" height="78.5"/><g id="i"><path fill="#5f701d" d="m50.3 67.2-.8-.1-2.1-7.3q5.6-1.5 7.9-1.2l.9-.3.5-.4.5.6.6 1-3.2 2.4q-2.4 1.4-4.2 1.4v.5q.4 1.3 1 1.5h.1zm6.7-3.4.5.3.9.3 3.5.4-1 2.6q-5.8-.6-6.4-2 .1.2 0 0 1.5-.6 2.5-1.6"/><path fill="#4b5816" d="M57.8 59.5 59 61l-1 1.2-2.6 1.2 1.6.4q-1 1-2.5 1.6.1.2 0 0 .6 1.4 6.4 2l-.2.3-.7.5-2-.2-.5.2-.2.1-7-1.1 1.2-1.9h-.1q-.6-.2-1-1.5v-.5q1.9 0 4.2-1.4z"/><path fill="none" stroke="#000" stroke-linecap="round" stroke-linejoin="round" stroke-opacity=".3" stroke-width="__RESOLUTION__" d="m56.2 58.3.5-.4.5.6.6 1L59 61l-1 1.2-2.6 1.2h0l1.6.4.5.3.9.3 3.5.4-1 2.6-.2.3-.7.5-2-.2-.5.2-.2.1" vector-effect="non-scaling-stroke"/><path fill="#5f701d" d="m20.1 49.5.9-.2q1.6-1.8 7-3.6l2.8 7-.6.5-2-.9q.4-.4-.1-1.7l-.4-.6q-1.6 1.3-4.2 1.5h-4.1v-2.1zm1.7 10.2-2.3-1.5 2.4-2.5.5-.7.3-.4 2.9-.3.1.1q.3 1.5-3.9 5.3"/><path fill="#4b5816" d="M19.4 51.5h4q2.8-.2 4.4-1.5l.3.5q.5 1.4 0 1.8l2.1.9-5.1 5-.2.1-.4.3-1.7 1.1-.7.1-.3-.2q4.2-3.8 3.9-5.3l-.1-.1-2.9.3 1.2-1.3-.2-.1-2.8.6-1.4-.4z"/><path fill="none" stroke="#000" stroke-linecap="round" stroke-linejoin="round" stroke-opacity=".3" stroke-width="__RESOLUTION__" d="m20.1 49.5-.7-.1v2l.1 2 1.4.4 2.8-.7.2.1-1.2 1.3-.3.4-.4.8-2.5 2.4 2.3 1.5.3.2h.7l1.6-1.2.6-.3.1-.1" vector-effect="non-scaling-stroke"/><path fill="url(#b)" d="M34.7-1.1q2.6.5 4.8 2 1 2.2-.7 4.9-1.3 1.2-4 1.7-4.2 1-8.4-.2 1.6 2.6 1.2 6-.8 1-3.5 2.3-2.2 1.1-4.9.3-5-1.2-9-4.3.5 1.8-1.1 3.5-1.5-.2-2.2-1.3Q3.4 16-2 17.4q-2 .6-3.8-.8-2-1.1-2.3-3.4-3.7 2.4-8.8 3.4-3.1.1-3.1-3.6.3-2.6-1.2-4.5-2.1-1.7-5.3-2.4l-5.9-.6q-3.4 0-.6-3.6l1.3-2.1q1.5-1.2.8-2-2.7-2.2-8.2-3.2 3.6-6.9 12.1-10.7T-6.2-21Q17-15 39.5-6.7q1 1 .1 3.2-1.3 2.1-4.9 2.4" transform="translate(39 115.5)"/><path fill="#3a4310" d="M53.6 96.7q.3 1.6 1.9 4 1.5 2.5 3.9 3.6t8.3 2.7q-9.3.3-14.6-.2-2.9 1.4 8.2 5.4l-6.8-1.7-.8-.3h-.2q-4.7 0-4.7 2.1v.2l1 .8 2.9 2.2q-4.7-1.3-9.2-4.7l-1-.2-1 1q.4 1.9 2 5-4.1-1.1-5.9-4.6l-.9-1.7-.9.3-.2 6.7.3 1.1-3.7-8q-1.2 4.8-7.5 9.5l-.7-1.4q2.4-4.7 2.9-8.3.4-3.9 0-1.9-6.3 2.8-8.1 2 2.7-1.6 4.6-4.2 2-2.5 1.4-4.4l-.3.1q-2.3 4.3-8.7 3.3l-.2-.1q1.3-.2 2.8-2.5 1.4-2.1 1.5-3.5 1.4-1.5 2-3.1z"/><path fill="#3e4811" d="m8.4 105.6-1 1.7 3.6.6 3.4.4h.8l3.6-2 .4.5-2 1.5-.1-.1-.3.2-.6.6-2.6 2.5-.2.2-.6.6q-2.4 2.6-2.4 3.5 0 .7.5.7.7 0 3 2 2.2-3.2 4.9-4l.1 1.2.3 2-5.5 2.4-5.8-4.1 5.4-4.3-6 .3-1-5.7zm32 17.7v-.5l-.2-.7-.3-1.6v-.5q.8.8 3 1.9 2 .3 3.7-3.8 0-1.3-1-2.7v-.4l4.3 4.7 3.2 3.9h.1l7.4-2.6-1.5-2.2v-1.3l4.3 3.6-10.6 4.3-5.4-4.6-.4 2.8-5.6.8zm25.5-11.8-1-.4-7.2-1.7q1.5-.7 3.3-.8h.3l5.4.2 4.6-.3q1.9 0 1.9-.8l-1.6-1.3q2.3.5 3.4 1.3l-.1 3zM40.4 124l.9 3-7.7 1.1h-.1l-1.3-5.4-3.7 4.3-11.2-3.8 2-4.7h.2l.1.3.4 2.3.1.5H20l2 2q.9 1 1.8 1l1 .4q.3.6 1 .6h2.7q-.2-2.2 3.4-7.2.7 1.6 1.6 4.6 1 2.3 4.2 2.3 1.8-.5 2.7-1.4"/><path fill="#4b5816" d="m14.4 114.1.1-.6q4-.4 7.3-2.1l1.8.8q-4.5 1.9-9.2 1.9m23.3-.1q-.4 2 2 4.1l-2 .3v-.2q-1.1-1.6-1-4l.9-.2"/><path fill="none" stroke="#000" stroke-linecap="round" stroke-linejoin="round" stroke-opacity=".3" stroke-width="__RESOLUTION__" d="m71.4 106.3-1.2-.3-.5-.1q-12-3.2-13.4-9.2h-2.7M19.8 99q-2.8 2.8-8.7 5.7l-.9.3-1.6.5-.3.1-2 .8.8 5.6 6-.3L8 116l5.8 4.1 5.5-2.3m39.8-.3-2.5-2 2.5.7h0l8.2 2.6 5.9-4.4-6-2.1-1.2-.9 8.8-.7.1-3.2q-1-.7-3.4-1.2m-31.1 17 1 1 5.6-.7.5-2.7 5.3 4.5 10.5-4.3-4.2-3.6m-18.7 6.4.9 3-7.7 1.1h-.1l-1.3-5.4-3.7 4.3-11.2-3.8 2-4.7" vector-effect="non-scaling-stroke"/><path fill="url(#c)" d="M20.9-16.4q8.8 5 8.5 11.2-.3 6.3-9.6 10.1-9.2 3.9-22 3T-23.6 2q-8.9-4.9-8.5-11.2t9.6-10.2 21.9-2.9q12.8.8 21.5 5.9" transform="translate(39 115.5)"/><path fill="#3e4811" d="m61.4 88.8 1.1.4.1.1 2.4 2.8-.2.1-4.1.3H58q1.8 1.2 3.9 3.5-.6 0-4.1-2-3.4-2.3-7-2.8H50q3.3 3.8 6.3 4.7l-1.2.3-4.2-1.5q-3-2.5-3.1-2.2l1.2 7.8.1.3q-1.7-2.7-2.6-5.6l-1.7 1.6q-.3-3.3-.3-7.8l1.6-1 3.3-2q1.8-1.3 7.8 1.2l3 1.4z"/><path fill="#434f13" d="m62.6 89.2-1.2-.4 9.2 3-1.7 6.2-4.7-.8 2.5 2.9-5.2 5.3-7.6-5.4 2.2 7.8-2.4.4q.3-.4.4-1.5-2.5-2.8-3.1-6.1-.4-2.6-1-3 8.2 2 11 4.9l1.5-1.1q1.8-1.3 2-3.5l-.6-.7-.3-.5-.4-.5-1.9-2.7.2-.1q1.8 1.3 3 1.3l4-.4-1.3-2.6-.2-.2-.8-.7zm-9.4 19-5.1.6-2-4.3-.6 3-5.6-.8.6-7.5-.2-3.5v-2.2L43 90l-.2 2.1q-.2 4.7.4 8 .6 2.8 1 2.8l1.7-1.2q3.6 6 7.1 6.5"/><path fill="#63741d" d="M44.5 88.8q0 4.5.3 7.8l1.7-1.6q.9 2.8 2.6 5.6l-.1-.3-1.2-7.8q.2-.2 3.1 2.2l4.2 1.5 1.2-.3q-3-1-6.3-4.7h.9q3.5.5 6.9 2.8 3.5 2 4.1 2-2.1-2.3-3.9-3.5h2.7l4.1-.3.2-.2-2.4-2.7v-.1l3.6 1.6.8.7.2.2 1.3 2.6-4 .4q-1.2 0-3-1.3h-.1l1.9 2.8.3.5.3.5.6.8q-.2 2.1-2 3.4l-1.5 1q-2.8-2.7-11-4.7.6.3 1 2.9.6 3.3 3.1 6.1 0 1.1-.4 1.5h-.6q-3.5-.5-7.1-6.5l-1.6 1.2q-.5 0-1.1-2.7-.6-3.4-.4-8.1l.2-2z"/><path fill="none" stroke="#000" stroke-linecap="round" stroke-linejoin="round" stroke-opacity=".3" stroke-width="__RESOLUTION__" d="m61.4 88.8-1.2-.4-3-1.4q-6-2.5-7.8-1.2l-3.3 2-1.6 1m9.2 19.4 2.4-.4-2.2-7.8 7.6 5.3 5.2-5.2-2.5-2.9 4.6.8 1.8-6.2-9.2-3m-8.2 19.4-5.2.6-2-4.3-.6 3-5.6-.8.6-7.5-.2-3.5v-2.2L43 90" vector-effect="non-scaling-stroke"/><path fill="#63741d" d="m40.5 95.2.9 1.5.5.8 1.4 2.2.2.3.4.5.1.5.1 1.6q-.1.1 1.3 1.3-1.5 1.7-2.7 2.1l-1.4-3.2q-2.5-.2-3.8-1.4l.3 6.4q-.2 2.4-1.3 2.4-.4-.2-1.9.9-1.2-3.5-4.8-7.3.3 8.4-1.7 7-1.9-1.5-4.4-1-2.7.7-1.6-7.5h-.9q-3.7 1.3-5.8 3.2l-2.8-3.8 5.5-4.2v-.1l-.4.1-3.6-.4-2.3-.3q-.5-.3-.9-2.3-.5-2.1.5-3.2l2.2-1.1.7-.5 4.3-1q-1 1-4.3 2.4l-.2.1 1.5.3h.9l.8.8-4.3 1.4q4.6 1.5 5.3 1.5 2.1.2 4-.7-.6 2.1-1.6 2.5l1-.2-4 3.3q1.5.8 5 1l4-.2q-.2.6-1.6 1.6v.2l.8.3q.9 0 3-1l-.1 2.1q.6-.8 1-2.1l.5-2.7q.8 1.1 2.8 5l.1-.2-.7-4q1.2 2.7 1.8 2.4l-1.1-3.6q.8-.7 1.7-2l1.3 3.5-.2-2q2 3.5 4.4 3.7l-1.6-6.2 2.8 4z"/><path fill="#3e4811" d="m40.5 95.2 1.1 4.6-2.9-3.9 1.7 6.2Q38 102 36 98.4l.1 2q-.6-2.1-1.2-3.5-.9 1.3-1.7 2l1.1 3.5q-.6.3-1.8-2.3l.8 4-.1.2q-2-3.9-2.9-5l-.5 2.7q-.4 1.3-1 2.1l.1-2.1q-2.1 1-3 1l-.8-.3v-.2q1.3-1 1.6-1.7l-4 .3q-3.5-.2-5-1l4-3.3-1 .3q1-.5 1.7-2.6-2 .9-4.1.8-.7-.1-5.3-1.6l4.3-1.4-.8-.8h-.9l-1.5-.3.2-.1q3.3-1.3 4.3-2.4l3.5-.9Q26 87 37.5 90z"/><path fill="#434f13" d="m18.7 88.7-4.4 1-.7.5-2.2 1.1q-1 1.1-.5 3.2.4 2 .9 2.3l2.3.3 3.7.4.3-.1v.1l-5.5 4.2 2.8 3.8q2-1.9 5.8-3.2h.9q-1.1 8.2 1.6 7.5 2.6-.5 4.4 1 2 1.4 1.7-7 3.6 3.8 4.8 7.3 1.5-1 1.9-1 1.1.1 1.3-2.2l-.3-6.5q1.3 1.2 3.9 1.4l1.3 3.3q1.1-.5 2.7-2.2-1.4-1.2-1.2-1.3l-.2-1.5-.1-.5.4.7 2.6 2.8-3.6 3.2-.2.1-3.9-2.6-.2.2v5l-5.1 2.7-.2-.2-2.4-4.6-.9 5v.1L20 111l.3-5.7v-1.2l-4.7 2.6-.2.3-5.8-5.5 5.2-2.6H11l-3.3-8z"/><path fill="none" stroke="#000" stroke-linecap="round" stroke-linejoin="round" stroke-opacity=".3" stroke-width="__RESOLUTION__" d="m43.9 100.6.4.7 2.6 2.8-3.6 3.2-.2.1-3.9-2.6-.2.2v5l-5.1 2.7-.2-.2-2.4-4.6-.9 5v.1L20 111l.3-5.7v-1.2l-4.7 2.6-.2.3-5.8-5.5 5.2-2.6H11l-3.3-8 10.8-2.2" vector-effect="non-scaling-stroke"/><path fill="#3f4a11" d="M59.4 69.6 61 72q-1.9 2.7-2.8 3l-4.7.5-.4 6.8q-2.8-.6-4.9-1.6v.1q1.3 3.4 3.4 6.8 1.9 3.4 2.5 3.1t2.4-1.5q-.6-1.4-.5-1.9v-1.5h.1l1.3 4.4-4.9 1.5-2.8-5.9-1.7-3q-1-1.5-1.7-3.5l-.5-1.2q-1.4-3.3-2.7-7.5l9.1-3.8 6.6 2.5z"/><path fill="#63741d" d="M56 85.8v1.5q-.1.5.5 1.9-1.7 1.3-2.4 1.5-.6.3-2.5-3.1-2-3.4-3.4-6.7v-.2q2.1 1 4.9 1.6l.4-6.8 4.7-.5q.9-.3 2.8-3l-1.6-2.5q4 1.7 6 3.2l.3.1v.1q.5 1.7.1 3.9-1.2-.7-1.9-.4l-3.4-.2 3.7 1.8 1 .7.3.3.3 1.3-.7 1.3-5.2-2.3q.1.6 1 1.5l1 1 .8.9.8 1q-.9 2.8-2 3.3-.8.3-1.6 1.5-1.4-2.5-2.7-3.9l-2.6-3.2.3 1 .8 1.4.3 1.2zm5.8-12q.4.3 1.4 0l.5-.2.3-.7-1.2-.7-.8.5-.6.1zm-1.3 3.5q-.3.1-.4.8l2.3.7.6-.5-.3-.2zm1.1 6.5-.1-.7q-1.5-3.5-4-3.5l-.1 1.6-.1.2v.2l.2.2q2.4 3 3.8 2.5zM54 89.1q.6-.2.5-1.9.1-1.4-.2-2l-.1-.3-.7.9-.2 1v.8l.6 1.4z"/><path fill="#4a5715" d="m56.2 85.9-.2-.1V85l-.4-1.2-.7-1.5-.2-.9 2.5 3.2q1.3 1.4 2.6 3.9.9-1.2 1.7-1.5 1.1-.5 2-3.3l-.9-1-.6-1-1.1-.9q-.9-.9-1-1.5 3.6 1.5 5.1 2.3l.8-1.2-.2-1.5-.3-.2-1.1-.7-3.7-1.8 3.4.2q.7-.3 2 .4.3-2.2-.2-3.9l1.5 4.3-3 .8.6.2 2.3.6-1.5 3.7-2.1-.2.1.3 1.3 1.4-5.2 5.8-2.8-3.2-.3-.3z"/><path fill="#708321" d="m61.8 73.8-.4-1 .6-.1.8-.5 1.3.7-.3.7-.6.2q-1 .3-1.4 0m-1.3 3.5 2.2.8.3.2-.6.5-2.2-.7q0-.7.3-.8m1.1 6.5-.3.5q-1.4.5-3.8-2.5l-.1-.2-.1-.2v-.2l.2-1.7q2.5 0 4 3.5zM54 89.1l-.6-1.4v-.8l.2-1 .6-.9.2.3q.3.6.2 2 .1 1.6-.5 1.8"/><path fill="none" stroke="#000" stroke-linecap="round" stroke-linejoin="round" stroke-opacity=".3" stroke-width="__RESOLUTION__" d="m59.4 69.6-.5-.3-6.7-2.5-9.1 3.8q1.3 4.2 2.7 7.5l.5 1.2q.8 2 1.7 3.5l1.7 3 2.8 6 4.9-1.6-1.2-4.4.4.5.3.3 2.8 3.2 5.2-5.8-1.3-1.4-.1-.2h2l1.5-3.6-2.2-.6m.9-5.3-.4-.2q-1.9-1.5-5.9-3.2m4.8 8.5 3-.7-1.5-4.4" vector-effect="non-scaling-stroke"/><path fill="#3f4a11" d="m18.6 66.8.3-.1 3.9-2.6 7.5.7q-.4 2.1-2.2 4.8l-1-2.2q-2.7 2.4-2.7 3v-1.8q-1.4 2.4-6 5.7 2.8-4.6 2.8-5.6l-2.7.3-1.2-.3.4-.9z"/><path fill="#718422" d="M30.3 64.8h.4v2.4q-.2 6-3 13.1v-2.8q-.6-6.2-1.2-7h-.1q-.8 3.5-7 8.2l1.4-2.5 2.1-5.1-3.2 3.5q-2.4 2.2-4.2 2.1l1.8-2.4q1.6-2.3 1.8-3.7l-2.4 1.7q-2 1.3-3.7 1.5t-.4-2.8l.5-.4 3.2-2.1 2.3-1.7-.9 1-.4.9 1.1.3 2.8-.3q0 1-2.8 5.6 4.6-3.3 6-5.7v1.9q0-.7 2.7-3.1l1 2.1q1.8-2.6 2.2-4.7"/><path fill="#63741d" d="M30.7 64.9h.6l-.1 7.7q0 1.8-1.2 5.4-2.7 5.8-3.3 5.8l-2.2-.9.3-1V80l.1-.5.2-.5.7-4.5h-.1q-.3 3.2-2.8 5.5-3.6 2.7-5.2 3.3l-1.8-.9.2-1.4.3-.5.8-1.1.3-.5.2-.3.2-.5 1.3-2.2h-.1q-2.2 2.7-5.1 2.5-.4 0-.6-.9l.2-.3.8-1 1.5-1.6-1.8.3-2 .3-.8-3.1.1-.4q.8-.3 1.2-.8-1.3 3 .4 2.8 1.6-.2 3.7-1.5l2.4-1.7q-.2 1.4-1.8 3.7l-1.9 2.4h.1q1.8.1 4.1-2.2l3.3-3.4-2.1 5.2-1.4 2.4q6.2-4.7 7-8.2.7.8 1.4 7l-.1 2.8q2.8-7.1 3-13v-2.5"/><path fill="#445113" d="m31.3 64.9 1.2.1q.2 8.3-1.2 13l-.6 1.8-.1.3-.9 4-3-.3-2.8-.3.9-3.5v1.4q.1.3 0 .4l-.4 1.1 2.3.9q.6 0 3.3-5.8 1.1-3.6 1.2-5.4zm-6.4 14.6h-.4L20 84.6l-2.3-1.2q1.6-.7 5.2-3.4 2.5-2.2 2.8-5.5h.1l-.7 4.6zm-9 2.9-1.2-.6 1.7-2.8-.6.2-.7.5-2.5-2 1.7-1.5-.6-.2-1.8.3h-.1l-.3-1.7-.1-.4-.8-3.2 5.7-2.6-3.2 2.1-.5.4q-.4.5-1.2.8l-.1.4.8 3.1 2-.2 1.8-.4-1.5 1.5-.8 1.1-.2.3q.2.9.6 1 3 .1 5.1-2.6h.1l-1.3 2.3-.2.4-.2.3-.4.5-.7 1.1-.3.5z"/><path fill="none" stroke="#000" stroke-linecap="round" stroke-linejoin="round" stroke-opacity=".3" stroke-width="__RESOLUTION__" d="m31.3 64.9 1.2.1q.2 8.3-1.2 13l-.6 1.8-.1.3-.9 4-3-.3-2.8-.3.9-3.5m.1-.5h-.4L20 84.6l-2.3-1.2-1.8-.9-1.2-.6 1.7-2.8-.6.2-.7.5h0l-2.5-2 1.7-1.5-.6-.2-1.8.3h-.1l-.3-1.7-.1-.4-.8-3.2h0l5.7-2.6 2.3-1.7" vector-effect="non-scaling-stroke"/><path fill="#3f4a11" d="M19.2 75.8h.5l6.7-1.1 8.6 5-3.1 6-.5.9-1.9 2.8-2 2.3-3 4.5v.1l-4.7-2.1 1.6-3.5v-.2l.1-.1-.1 1.5q0 .5-.7 1.5l2.3 1.7q.6.4 2.6-2.1 2.1-2.7 3.6-5.3v-.2l-4.7.6v-6L20 80.9q-.8-.5-2.4-3.2z"/><path fill="#63741d" d="m19.2 75.8-1.6 2q1.6 2.7 2.4 3l4.5 1.3v6l4.8-.6-.1.2q-1.4 2.5-3.6 5.3-2 2.5-2.7 2.1l-2.2-1.7q.8-1 .7-1.5l.1-1.5v.1-.6l.4-1 .9-1.2.2-.8-2.6 2.4q-1.4 1-2.8 2.9-.7-1.1-1.4-1.5-1.1-.7-1.8-3.4.3 0 .8-.6l.8-.7 1.1-.7q.8-.5 1.1-1L13 85.4l-.7-1.3.4-1.1.3-.2 1-.3q2.8-.7 3.7-1.1l-3.2-.5-2 .1q-.1-1.8.4-3.3v-.1l.3-.1zm1.4 10.8-.2-.3v-1.5q-2.5-.5-4 2.4l-.1.6.2.5q1.4.6 3.8-1.4l.1-.2zm2.7 3.7-.2.3-.3 1.5q-.2 1.5.3 1.8l.2-.1.8-1.2v-.7q0-.5-.2-.8zM14.5 78l.3.5.6.3q.8.6 1.3.4l.4-.8-.5-.2-.8-.6zm.7 4.8.4.6 2.4-.2q0-.7-.2-.9l-2.4.4z"/><path fill="#4a5715" d="M21.5 90.5h-.1v.2l-.5.1-.3.2-3 2.4-4.6-6 1.4-1v-.2l-2-.2-1.2-3.3 2.3-.2h.6l-2.9-1.3 1.8-3.5q-.6 1.5-.4 3.3h1.8l3.3.4-3.6 1-1.1.3-.3.3-.4 1.1.6 1.3 5.3-1.2q-.3.5-1.1 1.1l-1.2.7-.7.7q-.4.6-.8.6.7 2.8 1.8 3.4.8.4 1.4 1.5 1.3-1.9 2.8-2.9l2.6-2.4-.2.8-.9 1.2-.4 1z"/><path fill="#708321" d="m20.6 86.6-.2.2-.1.1q-2.4 2-3.8 1.3l-.2-.4.1-.6q1.5-2.9 4-2.4v1.5zm2.7 3.6.6.8q.3.3.3.8l-.1.8-.8 1.1h-.2q-.5-.2-.3-1.7l.3-1.5zM14.5 78l1.3-.4.8.6.5.2-.4.8q-.5.2-1.3-.4l-.7-.2zm.7 4.8.3-.1 2.3-.4q.2.2.2.9l-2.4.2z"/><path fill="none" stroke="#000" stroke-linecap="round" stroke-linejoin="round" stroke-opacity=".3" stroke-width="__RESOLUTION__" d="m21.4 90.7-1.6 3.5 4.6 2.1.1-.1 3-4.5 2-2.4 1.9-2.7.5-1q1.5-2.5 3-5.9l-8.5-5-6.7 1-.5.1-6 1.7-.2.1h0l-1.8 3.6 2.9 1.3m7.3 8.2-.5.1-.3.2-3 2.4-4.6-6 1.4-1v-.2l-2-.2-1.2-3.3 2.3-.2" vector-effect="non-scaling-stroke"/><path fill="url(#d)" d="M13.4-15.2q-6.5 4.5-15.8 4.5-9.2 0-15.8-4.5-6.5-4.4-6.5-10.9 0-6.3 6.5-10.7 6.6-4.6 15.8-4.6t15.8 4.5q6.5 4.5 6.5 10.8 0 6.5-6.5 10.9" transform="translate(39 115.5)"/><path fill="#708321" d="M23 78q2.7-.6 4.6-1.7 1.9-1.3 2.7-1.3l3-.8q-.6 2.5-3.6 7.8l.3-.2 2.9-2.2-.7 2.5q2.3-1.9 3.3-4.8 1.1-1 1.5-1.8.6 1.2-1.6 7.7l.3-.1q2-2.8 2.3-4.7l.5-1.9v.3l.9 8.5v-.2q1.1-8.5 1.8-10.5l.1-.3v.7q1.7 3.3 3.2 4.5 1.4 1.2 4.4 2.5l-.7-1-.5-1.2q-.4-1.2.7-1.1l.4.5.2.4 1.8 2.1q-.1 2.1-2 3.8l-.8-.6-1.7-2.4.6 2-1.6-.8v.1l1.9 2.2.1.1.8 1.8-2.2 2.1-1.6-2q-.7-.3-1.9-4.2L43 87q-.9 1.5-.8 4.1l-3.4-.2-1.6.5q-.2-2.4-1.4-5.5l-3.5 5.3-2.3-1.6q1-1 1.1-1.5l.7-1.3.6-.7.3-.3Q34 83 34 81.5l-.1.1q-1 2.2-2.7 2.4t-2.4 1q-.7 1-1.5 1.4t-1-.8-1.4-2.5l1.3-1.9.4-1v-.1h-.2l.3-.4 2.1-2.5v-.1l-3.4 1.3-2.1 1q-.4 0-1-.4zm18 3h.1l-.2-2.6q-.6 0-.6 1.9 0 3.7.9 6.6.4-.8 1-.5-.9-2.7-1-4.4zm1.4.9 3.3 5.6.3-1.1v-.1q-2.7-3.8-3-4.9zm-11.7-4.7-.8-1q-.1 1-1.2 3.3t-1.9 3v.4l.2-.1q3-2.6 3.8-5.5zm7.6 11.7.2-2.9q0-1.4-.9-2.5l-.6 4.2q0 .7 1.2 1.1z"/><path fill="#3f4a11" d="M48.4 78.7q-1.1-.2-.6 1.1l.4 1.2.6 1q-3-1.3-4.3-2.5-1.5-1.2-3.1-4.5l-.1-.7-.1.3q-.7 2-1.9 10.5v.3l-.8-8.6v-.2l-.5 1.8q-.4 1.9-2.4 4.7l-.2.1q2.2-6.5 1.6-7.7-.4.8-1.5 1.8-1 2.9-3.3 4.8l.6-2.5-2.8 2.2-.3.3q3-5.4 3.6-8l-3 .9q-.8 0-2.7 1.3-1.9 1.1-4.6 1.7l1.4-1.8.5-.6 1.4-1.4.1-.2 5.6-7 3.9 1.3 7 .6q.6 2 2 4.2z"/><path fill="#4a5715" d="m23 78-.7 1.1q.6.4 1 .4l2-1 3.5-1.3v.1l-2.1 2.5-.2.4v.1l-2.6 3.3 3.1 4.3 3.4-2 .5-.2h.2l-2.4 4.5 3.8 2.5 1.4-1.4 1.5-2.4.4-.4.8 4L43 92v-3.2l2.4 2.4 4-3.2-2.1-2h.4l2 .5 1.5-4.2-.5-.6q0 2.1-1.9 3.8l-.8-.6-1.7-2.4.6 2-1.6-.8v.1l1.9 2.2.1.1.8 1.8-2.2 2.1-1.6-2q-.7-.3-1.9-4.2L43 87q-.9 1.5-.8 4.1l-3.4-.2-1.6.5q-.2-2.4-1.4-5.5l-3.5 5.3-2.3-1.6q1-1 1.1-1.5l.7-1.3.6-.7.3-.3Q34 83 34 81.5l-.1.1q-1 2.2-2.7 2.4t-2.4 1q-.7 1-1.5 1.4t-1-.8-1.4-2.5l1.3-1.9.4-1h-.2l-4.1 1.9-1.9-3.1.9-.4 3.1-2.5z"/><path fill="#859c27" d="m41 81 .1 1q.3 1.7 1.1 4.4-.6-.3-1 .5-.9-3-.9-6.6 0-1.9.6-1.9l.3 2.5zm1.4 1 .6-.5q.3 1 3 4.9v.1l-.4 1.1zm-11.7-4.7q-.7 2.9-3.7 5.5l-.1.1-.1-.5q.8-.7 1.8-3 1.2-2.2 1.3-3.2zM38.3 89q-1.2-.5-1.2-1.2l.6-4.2q.9 1.1.9 2.5z"/><path fill="none" stroke="#000" stroke-linecap="round" stroke-linejoin="round" stroke-opacity=".3" stroke-width="__RESOLUTION__" d="M50.8 81.7 49 79.6l-.2-.3-.4-.6m2.4 3 .4.6-1.6 4.2-2-.5h-.3l2 2-3.9 3.2-2.4-2.4v3.3l-6.5.4-.7-4-.4.4-1.5 2.4-1.4 1.4-3.7-2.5 2.3-4.5h-.2l-.4.1-3.5 2-3.1-4.2 2.6-3.3-4.2 1.9-1.9-3.1.9-.4 3.1-2.5" vector-effect="non-scaling-stroke"/><path fill="#738723" d="M25 58.5v.1q0 1.1-1 2t-1.5.9q-4.6 0-4.6-1.7l.3-.6.3-.2h.3l.1-.1.6-.1z"/><path fill="#5f701d" d="m18.2 59.2-.3.5q0 1.8 4.6 1.8.6 0 1.6-.9t1-2v-.1h1.4l-.2 6.3-7.5 2.5h-.4l-2.5.4v-1.4q0-1 5.3-2.7l-1.5-.6-.5-.5q-1.6.5-3.1 0l-.5-2.2q1.4-.4 2.4-1.1z"/><path fill="#4b5816" d="m19.7 63 1.5.6Q16 65.2 16 66.3l-.1 1.4-1.1.5V68q0-.4-.2-.5l-.2-2.2 2.9-1.2 1-.5z"/><path fill="none" stroke="#000" stroke-linecap="round" stroke-linejoin="round" stroke-opacity=".3" stroke-width="__RESOLUTION__" d="m25 58.5-5.5.3-.6.1-.1.1h-.3l-.4.1H18q-1 .8-2.4 1.2l.5 2.3q1.5.4 3.1 0l.5.4-1.3.5-1.1.5-3 1.3.3 2.3q.2 0 .2.4v.2l1.1-.5" vector-effect="non-scaling-stroke"/><path fill="url(#e)" d="M13.4-58q5.2 3.7 5.2 9t-5.2 8.8T.9-36.5q-7.5 0-12.7-3.7-5.3-3.6-5.3-8.8t5.3-9T.8-61.5q7.3 0 12.5 3.6" transform="translate(39 115.5)"/><path fill="#515f18" d="m45.1 45 1.5.7q.3 4.6 2.1 7.5l-.2-.1q-1-.7-1.9-2-1.6-2.3-1.6-5.8zm-11.6 1.1 1.1-.3q-1.4 2-3.6 3.6l-.1-.1zm4.6-1 3.1-.8h.3l1.9.3q-.4 1.7-.4 4.9 0 1.3.5 4.5l-1.2-2.2q-1.4-2.7-1.7-3.6.1 2.3.7 6.8l-.1.9-2.5-5.1v.2l-.8 3.3-.1-.3v-1.9z"/><path fill="#708321" d="m46.6 45.7 2.9 2q1.6 4 4.1 7.3l-1.5.1-4-.8q-2.3-.9-3.7-2.1v.6q-.2 1.8 1.6 4.3h-.6q-2.9-1.6-3-2.2l-.1.1-.4 2.9q-.3 1.1-1.6 1.1-1.6 0-2.5-2.2-.9-3.2-1.7-5l-.1.2-1 1.5h-.2v-5.2q-3 3.3-5.1 3.3-.6 0-.6-1l.8-2.4.7-.6 1-1.1 1.9-.4-2.6 3.1.1.2q2.3-1.6 3.6-3.6l3.5-.7-.4 7 .1 1.9.1.3.8-3.3v-.2l2.5 5 .1-.8q-.6-4.5-.7-6.8.3.9 1.6 3.5l1.3 2.3q-.5-3.2-.5-4.5 0-3.2.4-5l1.7.5v.3q0 3.5 1.5 5.8.9 1.3 2 2l.1.1q-1.9-2.9-2.1-7.5M53.7 63l.3.4-.7.3 1.6 1.8q-.3.9-.9.9l-2.8-.9q-.4 0-1 1.6l-.1-.1H50l-.6.2.6 1-.1.4.1-.1.3.6-2.1 1.6-.5-.2.2-.2.2-1.9V66l1.5-.8q1.3-1 1.4-1.4.2-.5-2.1-3.9h-.1l-1.4-2.6 4.4 3.8zm-14.3-.6-1.6.4-.3-1.9-.9-3.6.6-.4q-.1 1.4.4 3.1.6 2 1.7 2.2z"/><path fill="#859c27" d="m53.6 55 .1.1.8 1q-1.9.9-2.9.4-.2.3-.1 1 3 1.5 4 2.6 1 0 1-1.2l-.1-.7.8 1 .8.6q-.4 1.6-.9 2-.7.6-2 .6l-3-1.7q-.4 0-.4.5l-4.4-3.8 1.5 2.6v.3l.8 2.3q-1.4 1-2.5 1-1.1-1.9-1.6-1.8.8 3.2.1 3.5-.7.4-3.6 1.3-.7-1.6-3-2.5l1.5 2-.2-.2.3.3.4.6v.2l1.1 3.5-1.4.6-1.5.1h-.1q-1.2.6-2.4-2.9l-1.7-5V62v.3h-.2v.6q-.4 2.9-1.7 4.6l-1.6 3.3-2.9-.8.2-.3 1-3.7.4-.5.3-.4h-.1l-.2.2v-.5l1.4-3.3h-.1q-4.9 4.2-5.9 4.7l-2-1.4.5-.3.5-.1q.4 0 .8-.4l-.4.2.3-.3L28 62l.4-.2 2-3.2q-2 2.3-5.3 2.3-.6 0-1.5-1.9l-.1-.2.1.1h.2l.6-.6.8-1 .1-.2.6-.4q1.1-1.4 3.1-2.9-1.7.9-3 1.8l-1 .7q-1-.7-.7-2.4l.1.1.4-.2.6-.7-.1.8v.5q.3 0 2-.8.9-1.9.9-2.4 0-1-.3-1l1.9-2-.8 2.3q0 1 .6 1 2.1 0 5-3.2v5.2h.3l1-1.5.1-.1q.8 1.6 1.6 4.9 1 2.3 2.6 2.3 1.3 0 1.6-1.2l.4-2.9q.2.6 3.1 2.2h.6q-1.9-2.5-1.6-4.3v-.6q1.4 1.2 3.6 2.1l4.1.8zm-5.6.7q-1.4-.3-2.2-1.5h-.1q.6 2.3 4.4 3.2v-.6l-.1-.3V56q-1.2-.1-2-.4m-1 2.6-1 1.6 1 .3.5 1.4 1.1-.2v-1.2zM42.7 62l-1.1-.5-1.2 1.3q1.3 1.9 1.6 1.9l1.6-.5q1-.4 1-2.2l-.3-1.2zm-3.1.6-.1-.2q-1.1-.2-1.7-2.1-.6-1.7-.4-3.2l-.5.4.8 3.6.3 1.9zm0 6 .9-.7v-.6q0-.5-1.4-2.2l-1.9-2v.5l.4 2.7q.4 2.3 2 2.3M24.9 58.2q0 1.4.5 1.4l2.2-.1 2.5-3.4q.8-1.6 1-2.7-2.6 2.9-3 3l-1.9 1h-.5zm9.8-2.9-.2-.1-2.6 2-.8 3 1 .3.1-.2q.6-1.6 1.6-2.7l1-.9zm.8 4.3-1.1.2.2 1.7zm-4.6 4.7q0 1-.7 3.5h.7q2.2-3.7 2.2-4.5l-.2-1.5z"/><path fill="#99b52d" d="m54.5 56.1 1.8 1.8.1.3v.7q0 1.2-.9 1.2-1-1-4-2.6-.1-.7.1-1 1 .5 2.9-.4m-29-3 .2-.4.3-.2.3-.5.1-.1 1.5-1.6.1-.1q.3 0 .3 1 0 .5-.9 2.4-1.7.8-2 .8v-.5zM48 55.8q.8.3 2 .4v.4l.1.3v.6q-3.8-.9-4.4-3.2h.1q.8 1.2 2.3 1.5m-1 2.6 1.4 1.8v1.2l-1.1.2-.5-1.5-1-.2zM42.7 62l1.6-1.2.3 1.3q0 1.7-1 2.1l-1.6.5q-.3 0-1.6-1.9l1.2-1.3zm-3.1 6.6q-1.6 0-2-2.2l-.4-2.8v-.5l2 2q1.4 1.7 1.4 2.2l-.1.6zM24.9 58.2l.8-.8h.5q.8-.3 1.9-1 .4-.1 3-3-.2 1-1 2.8l-2.5 3.3-2.2.1q-.5 0-.5-1.5m9.8-2.7v1.3l-.9.8q-1 1.2-1.6 2.8l-.1.2-1-.3.8-3 2.6-2zm.9 4.3-.9 1.9-.2-1.7zM31 64.4l2-2.5.2 1.5q0 .8-2.2 4.5h-.7q.7-2.5.7-3.5"/><path fill="#4b5816" d="M58 59.8v.2h.1l.3.1 1.3 1.3-2.2 3.1h-.3l-1.7-.7-1.3-.5H54l-.2-.1-2-2q0-.5.3-.5l3 1.6q1.3 0 2-.5.5-.4.9-2m-3.1 5.8.6.6.1.1 1.6.5.3.2-3.3 2.2-1.4-.3-2.3-1.5-.2-.2q.6-1.6.9-1.6l2.8.9q.6 0 .9-.9m-4.6 3.6.2.3.8.7-3.7 1.2-.1-.2-.5-.3-1.2-2.1-2.2.4-.7-1q-1-.3-1.9-1.2l.5.6.1.6.2.4h.5l.2.6q-.1.1.8 1.1l-.7.9h-.4l-.2.3-.1.2v-.2l-4.1 1.7q-.1-.7-.4-1l-2.8-5.7v-.2h-.1l-.2.8-.1.2-1.9 4.4-4.2-.6.5-1.1 2.9.8 1.6-3.2q1.3-1.8 1.6-4.7l.3.4 1.8 5q1.1 3.5 2.3 3l.1-.1 1.5-.1 1.4-.5-1-3.6v-.2l-.5-.6-.3-.4.3.3-1.6-2q2.3.9 3 2.5 2.9-.9 3.6-1.3.7-.3 0-3.5.4 0 1.5 1.8 1.1 0 2.4-1l-.6-2.4V60q2.3 3.4 2.1 3.9t-1.4 1.4L48 66v.2l.1 1v1.2l-.2 1.9-.1.1.4.3zm-20.1-4-1.5.5-2.9 2h-2L22 65.9l1.7-1 2 1.4q1-.5 5.9-4.7h.1l-1.4 3.3zm-5-1.4v-.1L23.9 62l-.2-.2-1.3-1.4 1.2-1.2v-.5l.1.3q.9 1.9 1.5 1.9 3.3 0 5.4-2.3l-2.1 3.1-.4.3zm.2-6.8-.9.1-.7-.2-.1-.1-.2-2.1.3-.6h.3l.3-.3q-.2 1.6.7 2.4l1-.7q1.3-1 3-1.7-2 1.5-3.2 2.8z"/><path fill="#90aa2b" d="m34.6 66.5-.1-.2h.1zm.4-3.2-.2-.4v-.5l.2-.1V62z"/><path fill="none" stroke="#000" stroke-linecap="round" stroke-linejoin="round" stroke-opacity=".3" stroke-width="__RESOLUTION__" d="m54.5 56.1 1.8 1.8.1.3.8 1 .8.6v.2h.1l.3.1 1.3 1.3-2.2 3.1h-.3l-1.7-.7-1.3-.5H54l-.2-.1.3.3-.8.3 1.6 1.8.6.6.1.1 1.6.5.3.2-3.3 2.2-1.4-.3-2.3-1.5-.2-.2-.2-.1h0-.1l-.6.2.6 1-.1.4.1-.1.3.6.2.3.8.7-3.7 1.2-.1-.2-.5-.3-1.2-2.1-2.2.4-.7-1q-1-.3-1.9-1.2l.5.6.1.6.2.4h.5l.2.6q-.1.1.8 1.1l-.7.9h-.4l-.2.3-.1.2v-.2l-4.1 1.7q-.1-.7-.4-1l-2.8-5.7m-.1-.2-.2.8-.1.2-1.9 4.4-4.2-.6.5-1.1.2-.3 1-3.7.4-.5.2-.3h-.3l-1.5.5-2.9 2h-2L22 65.9l1.7-1 .5-.3.5-.1.3-.2h0l.4-.3-.1-.1-1.3-1.8-.2-.2-1.3-1.4 1.2-1.2v-.5l.1.2h.2l.6-.6.8-1 .1-.2-.9.1-.7-.2-.1-.1-.2-2.1.3-.6h.3l.3-.3.1.1.4-.2.6-.7M25 64.3l.5-.2h0q-.3.3-.8.4m5.8.8V65l-.1.5" vector-effect="non-scaling-stroke"/><path fill="url(#f)" d="M13.9-64.3q-.1 3.8-4.8 6.6T-2.5-55q-6.8 0-11.7-2.7t-4.8-6.6 4.8-6.6q4.9-2.7 11.6-2.7 6.9 0 11.7 2.7t4.8 6.6" transform="translate(39 115.5)"/><path fill="#798e24" d="m43 29.5-1.2-.8v.1q0 3.1 1.4 6.7l2 5.2h.1q0-.5.4-1.5h.4l1.6.7q1.1 2.3 2.6 4.3l1 1.3.5.7.6 1-1.2.4q-.5 0-2.4-2.8l.2 1h-.1q-2.8-2.5-4-3v.3q.6 1.8 1.3 2.2.3 1 .8 1.5l.5 1.3.1.1v.2l.3.7.4 1.1.2.6.2.8q-.2.5-.7.8l-.1-.2q-.5-2.7-2.6-6.9l-.5-.2q0 1.9 1 5-3.9-3.4-4.2-4.4l.2 1.8q-3.1-7.8-2.9-9.8l-.4 2.5v-.4l-.7-5.2.1-1.6-.1.2Q36.1 36 35.6 36l-.1-.1Q37 34.3 37 24.5q0-3.2-.3-4.2l.2.1q2.1 0 2.5.6l-.3-.8q-.6-1.1-1.1-1.5l-.6-.5 1.9-.1q1.9 1.4 3 4.6 0 3.3.7 6.8m-2.1 18.1-.3-.6v-.8l3.9 4.8v.1l.3-1q.5 1.6 1.3 2.5h1.2l-1.1 1L45 52l-1-.8-.5-.7-2.3-2.5zm2.2-3.5V44zm-2.7 4.7-.2.5-.1.3-1-.9v.3l.5 4.5-1.7.3-1.5.6h.2-.7l-.7-1.1V53l3.2-.7-.3-3 .2-.6q.8-2.1.4-3.6l-.3-2.7 1 5 .7-1.7q0 1.8.3 3m-7.3-.5-.2-.2-.1-.3v-.3l-.3.2.8-3-1.6 1.3h1l-1 2-.5 1.3q-.2.5-1.5 1.3-1.2.9-1.6.7 1.4-2.5 3.3-4.5v-.2l-1.5.4q5.3-5.5 5.4-6.5h.1l-.1.3q-2 5.3-2.2 7.5m-3.1-6q2.9-2.3 4.4-5.6-.3 3.6-4.2 6.3z"/><path fill="#90aa2b" d="m47.8 39.9-1.7-.6h-.5l-.2 1.5-.2-.1-2-5.2q-1.4-3.6-1.4-6.7v-.1l1.2.8q.3 1.8 4.8 10.4M37.4 18.2l.6.5q.5.4 1.1 1.5l.3.8q-.4-.6-2.5-.6h-.2q.3.9.3 4 0 10-1.5 11.5v.1q.6 0 2.3-2.8l.1-.2-.1 1.5.7 5.3v.4l.4-2.5q-.2 2 2.9 9.8l-.2-1.7q.3 1 4.2 4.3-1-3.1-1-5l.5.2q2 4.3 2.6 6.9v.1l-.1.2-.5.1h-1.2q-.9-.9-1.4-2.5l-.2 1V51l-3.9-4.8v.8l.3.6-.2-.1-.5 1.3q-.2-1.2-.2-3l-.6 1.7-1.1-5 .4 2.7q.3 1.5-.5 3.6l-.2.6.3 3-3.2.6v.3l.7 1q-1.3-.4-2.1-2.8l-.7-3.2q.3-2.2 2.2-7.5l.1-.3h-.1q-.1 1-5.4 6.5l1.6-.4-.1.1q-2 2.1-3.3 4.5l-.2.3-2.2-1.3q-.2-.2.3-.7l.5-.7.6-1.6 2-3.4-.4-.2-.6.4-.9.1-2.5.2q-2.5 1.4-2.6-.9 1.1-.4 2.1-1.4v.5q-1.6 1.3.6 1 2.3-.2 4.9-2.5 2.4-2.5 3.4-7 .8-3.9.8-4.8l.8-5.1-1.5 3 .3-1.5v-.2l-1 1 .2-1.6.7-2.4q.8-2.7 2-3.5h.3zM43 44.1V44zm-7.9-1.9q-1 2.4-1 5.8 0 .8 1 1.9 2-1.2 2-3.5l-.4-4.6-1 1.5zM28.9 45l-1.3 1.6v.6q1.6-.8 5-4.9l.1-.2zm1-2.7.2.7q3.9-2.7 4.2-6.3-1.5 3.3-4.4 5.5"/><path fill="#5f701d" d="M48 52.4q.5-.2.7-.8l-.2-.8-.2-.6 1.5 2-3.3 2.1q-3.2-3-6.2-4l.4 4q-3.7 1.4-7.1.5l-.8-6.7.2.2.7 3.2q.8 2.4 2.1 2.9h.7-.2l1.5-.6 1.8-.3L39 49v-.3l1 .8.1-.2.1-.5.5-1.3.1.1.4.4 2.3 2.5.5.7 1 .8 1.1 1.6 1.2-1 .5-.1zm-.4-4v-.2l-.1-.1-.5-1.4q-.5-.4-.9-1.4-.6-.4-1.1-2.2l-.1-.3q1.2.5 4 3v-1q1.8 2.8 2.3 2.8l1.1-.4.1.1.1.2.4 1-2 1.6zm-22.2-7.7-.6.4-.7.9q-1 1-2.1 1.4 0 2.3 2.5.9l2.5-.2 1-.1.5-.5.4.3-2 3.4.8-1.9h-2.5l-2.7.5v.1l-1.2-2.4 4-2.9zm.9 8.2-.5.8q-.5.4-.2.6l2 1.3.3-.2q.4.2 1.6-.7t1.5-1.4l.5-1.2 1-2h-1l1.5-1.2-.7 2.9.3-.2v.3L29.2 53l-4.4-2.5z"/><path fill="#a6c431" d="m32.6 26.5 1-1v.2l-.4 1.6 1.4-3.1-.7 5.1q0 1-.8 4.8-1 4.4-3.6 6.9-2.5 2.3-4.7 2.5t-.7-1V42l.8-.9.6-.4.1-.2q5.5-5.3 7-14M35 42.3l.6 1 1-1.5.3 4.6q0 2.3-2 3.5-1-1-1-2 0-3.3 1.1-5.6M28.9 45l3.8-2.9v.2q-3.5 4.1-5.2 4.9l.1-.6z"/><path fill="none" stroke="#000" stroke-linecap="round" stroke-linejoin="round" stroke-opacity=".3" stroke-width="__RESOLUTION__" d="m48.3 50.2-.4-1.1-.2-.7 3.2 1.7 2-1.6-.4-1-.1-.2v-.1l-.6-1-.5-.7-1-1.3q-1.4-2-2.5-4.3-4.5-8.6-4.8-10.4M32.8 48l.8 6.8q3.4.9 7.1-.4l-.4-4.1q3 1 6.2 4l3.3-2.1-1.5-2M32.6 26.5q-1.5 8.7-7 14l-.1.2-.1-.1-4 2.9 1.2 2.4v-.1l2.6-.5h2.6l-.9 1.9-.5 1.6-1.6 1.8 4.4 2.4 3.5-5.2" vector-effect="non-scaling-stroke"/><path fill="url(#g)" d="M13.7-81.5Q13.6-77 9-73.8q-4.5 3.1-11 3.1t-11-3.1-4.5-7.7 4.5-7.7q4.6-3.2 11-3.2t11 3.2 4.6 7.7" transform="translate(39 115.5)"/><path fill="#798e24" d="m42 27.3.8-.8q-2.3-2.2-2.8-7l.9-.5q-.9-3.2-1-8V8.9l-.2-2.7L40 4l-1.1-.7-1.3-.7-2.4.7.4-1.5 1.3-.3L41.7 3v2.2l.3 2.6-.1.1.3 1.3q0 .6-.2.3l-1 .7q0 .8 1.1 4.7t1.4 4l.5-.1q1.4 3.4 1.9 3.4l.9.9.5-.6 2 1.5-1.2.6q-2-.3-3.5-2.4-1.6-2.2-2.2-3.4.5 2.4 1.9 4.2t2.9 2l-.2.1 5.4 2.6.1 1.8h-.9q-2 0-3.4-.6l-4.5-2.4-.1-.2.1.2 3.3 3.2-.7-.5 4 5.2q-2.7 2-3 2l-5.2-8.9z"/><path fill="#9fbb2f" d="m35.3 3.3 2.3-.7 1.3.7 1 .7-.2 2.2.1 2.7v1l.2.8v.3q0 4.8.9 8l-.9.5q.5 4.8 2.8 7l-.7.8-1.2-2.3q.3.8.6 3.3l.3 2.4v1.4l.7 3.5q-2.4 1-3.7 1l-.1-.1q-1-3.5-1-6.2l.2-2.1q0-2.9-.3-3.2 0 5.5-.7 7.1-.8 1.4-1.6 4.4-.3.9-2.4.9l-.4-.1.5-1.1 1.1-6-.4.5v-.2l.8-5q-.8 3.4-5 9.5-.3-.5-.7-.5l1.6-3.3-.1.1 1.2-4.4q-.9 1.8-3.5 4.1-3 2.5-4.6 2.5-1-1.1-1.8-1.6l1.3-.4.7-.5.5.7.2-.1 4.5-2.8 1.4-3.3-1.2-.3.1-.5.3-1L31 22v-1.6l-1.5 1.8-.2.1-1 1-1 .4 2-2.3 1.7-3 .7-.2q.4 1.3-.4 3l.9.1q1-2.3 1.5-5.8 1.2-.7 1.7-.5l1.1-7.2h-1.2l-1.2 4-1.2-.1zm8.5 23.2-.2-.2zm3.6-4-.5.6-1-.9q-.4 0-1.8-3.4l-.5.2q-.2 0-1.4-4.1-1-4-1-4.7l1-.7q.1.3.1-.2L42 7.9l.1-.2.4 2.5.1.3-.7.2 1.7 6.5.9-.6.2.7.6 1.4q.8 2.1 2.1 3.8m-8 4.3-.8.3-.1 2.7.5 4.9 1.1-.6zm-.7-7.6-.1-2.4h-2.4v3.9h1l.1-1.6zm-4.2 2.7h.5l.4 2.4q2.9-.4 2.3-2.5l-.6.2H37v.8h-1.1q-.2-1.5-.1-3l-1.1-.1q-.9.1-.9 1.4l-1.5 3.3h-.9l-.2 1.1 1.9.1q1.4-2.8 1.4-3.7m.9 4.2H35q-.1 4-1.3 8.7l.3.3 1-.8q1.3-4.2 1.5-8.7z"/><path fill="#5f701d" d="m42 27.3.1.2 5.3 8.9q.2 0 2.9-2l.6.9-1.2 1.4q-2.2 1.5-3.9 1.6-.6-1.6-2-3t-2-4.6l-.3-2.4-.6-3.3zm5 2.4-3.2-3.2 4.4 2.4q1.4.6 3.4.6h1v.8h-2.1q-1.8 0-3.5-.6m.2-4.7q-1.6-.1-2.9-2-1.4-1.8-1.9-4.2.6 1.2 2.2 3.4 1.5 2.1 3.5 2.4zm-17.7-2.8 1.4-1.8.1.3V22l-1.7 1.8zm-8 9.7q.8.5 1.8 1.6 1.7 0 4.6-2.5 2.6-2.3 3.5-4.1l-1.2 4.4-1.1 1q-3.2 1.9-6.6 2L21 32zm7.2 2.6q.4 0 .7.5 4.2-6.1 5-9.5l-.7 5v.2l-2.7 4-1.4 1.3-1.5-.5zm3.7 2.8.4.1q2 0 2.4-.9.8-3 1.6-4.4.7-1.6.7-7.1.3.3.3 3.2l-.1 2q0 2.8.9 6.3h.1q1.3 0 3.7-.9l.6 2.3-2 .1-1 .2-1.6-.2-1-6.5-2.5 6.8-2.8-.1zm1.9-15.4q0 .9-1.4 3.7l-2-.1.3-1.1h.9l1.5-3.3q0-1.2.9-1.4h1q0 1.6.2 3.1h1l.1-.9.1.1.6-.2q.5 2.1-2.4 2.5l-.3-2.4z"/><path fill="#b1ce3e" d="m33 11.7 1.2.1 1.1-4h1.3L35.5 15q-.5-.2-1.7.5-.5 3.5-1.5 5.8h-.8q.7-1.8.3-3.1l-.7.2.3-.6zm-4 13.5 1.3.3-1.5 3.3-4.5 2.8h-.2l-.6-.6q3.9-2.8 5.3-5.6zm10.4 1.6.7 7.3-1.1.6-.5-4.9.1-2.7zm-.7-7.6-1.4-.1v1.6h-1v-4l2.3.1zM35.2 26l1.3-.5q-.2 4.5-1.5 8.7l-1 .8-.3-.3Q34.9 30 35 26z"/><path fill="#a6c431" d="m44.4 16.6-1 .6-1.6-6.5.7-.2.8 2.8 1 3.2z"/><path fill="none" stroke="#000" stroke-linecap="round" stroke-linejoin="round" stroke-opacity=".3" stroke-width="__RESOLUTION__" d="m50.3 34.4-4-5.2.7.5q1.7.6 3.5.6h2.1v-.8l-.2-1.8-5.4-2.6h.2m.9-.5 1.1-.6-1.9-1.5h0q-1.3-1.7-2.1-3.8l-.6-1.4-.2-.7v-.1l-1.1-3.2-.8-2.8-.1-.3-.4-2.4-.2-2.6-.1-2.2-4.8-1.5-1.2.3-.5 1.5-2.2 8.4-1.6 6-.3.7-1.7 3-2 2.3 1-.4 1-1 .2-.1m-.2 1.6-.3.9-.2.5-.1.2q-1.4 2.8-5.2 5.6l-.7.5-1.3.4-.6.2 1.6 2.1q3.3 0 6.6-1.9l1-1 .2-.1-1.6 3.3-.6 1 1.5.5 1.4-1.3 2.6-4 .4-.4-1.1 5.9-.5 1-.3 1 2.8.1 2.5-6.8 1 6.5 1.6.2 1-.2 2-.1-.6-2.3-.7-3.5v-1.4q.6 3.2 2 4.6t2 3q1.7-.1 3.9-1.6l1.1-1.5-.5-.8" vector-effect="non-scaling-stroke"/><path fill="#c2e2e7" d="M38.3 0q5.3.2 4.9 5.1-.4 2.7.7 5 .9 1.9 1 3.4l-.4.7.5 1 2.2 3.3 1.8 2.7q-.4 1.6-2.1 2.3 0 1 1 1.2l1.5.3 1.5 1-.4.8q-.7 1-1.6 1-1.7-.7-2.5-.7l-.5.1-.2.3q0 .5 2.7 2.2l.1.3v.1l.6.6q-.1 2-3.1 2l-2.5-1.4.2-3.6-.2-3.4q-.2-1.8-.9-3.6v-.2l-.5-1.2q-1.9-4-2.2-9.1.2-5 0-7Q39.7.9 38.3 0m5.6 43.3q2.2 0 2.2-.9l-.2-1.2h.1q3.4 1.4 3.8 2.3l1.5-.5 2 2.5.8 1v.7q0 1.8-.9 1.8l-1.1-.5q-1 1.2-1.6 1.2-2.7-3-3.6-3.5-2.1-1.2-3-3M41.5 47l1.8-.7.3.1.3.3.5.3.8.8.3.7q-.1 1.8-1.2 1.8-1.3-.7-1.6-.6-1-1.3-1.2-2.7m8.1 9.6 2.6-1.1.5-2.1q.3.6.9.6l.4-.1 2.5 2.9 2.5 1.7.5.3.5 1q0 3.2-1.7 3.2-1-1.1-1.7-1.1-.5.8-1.6.8l-1.9-2.2v-.2l-1.5-1.8-.5-.7-.6-.4zm-7.9 2.9 2.4-1.9-.1-.6.2-.1q1.6 0 3.6 2.3l2-1.4.2.5q0 1.2-2 2.1-1.5.6-2.6.6-1 0-2.2-.8-.9-.6-1.5-.7M49 79.4l-.4-.6 4.4-2.1-.5-1.5q0-.3 4.1-2.5 1.2 0 2.6 1.8l4.3-3.2-2.5-.9q.3-1.3 1.5-1.8 1.4.2 2.8 1.6l.5.5q.3 1.1 1 2.6 0 1-1.4 2.5-1.4 1.4-1.4 2.1 0 .6 1.1 2.1 0 .5-1 1-1.1.6-1.8 2.1-.8 1.5-2.4 2.6-1.6 1-1.5.4-1-1.2-1.9-1.2-1 0-1.2 2.1-.2 2.3-1.4 3-1-5.5-5-10.6m18.2 9.4 2 .4.6.3.6.5.7 2.4q0 3.4-.8 3.4l-.7-.1q-.7 1.5-2 1.5l-1.5-.3q-1 0-1 1.1l.3 2q0 1.8-3 2.2-.5.4-.8 2l-.5 1.3-.3.2-.2-.4q-.6-2.4-2.2-3-1.7-.8-3-2.2l-1.1-1.6.3.1q2.4 0 3.8-3.9l2.5 2.3q.4 0 1.1-.8.6-1 .6-1.5l-.1-.5q0-.9 1.1-.9l1.2.3q1.3 0 1.3-2.4.8-1.1 1-2.4m2.8 16.4.7.3 2-.2q1.3 0 2.1.6 1 1 1 2.4 0 2-1 2l-1.2-.3q-.5 0-.7.8-.3.6-.9.6-1-1.6-4-1.6-1.6 0-2.1 1.1l3 .5h.1l.4.3 2 .6.6.3q.7.8.7 1.4 0 1-2.7 1.8-.6.2-.8 1.7-.2 1.3-1.2 1.3-.8-.7-1.3-.7-.3 1-1.2 1-.2 0-1-1.3-1.2-.2-1.8-.7-.3-.2-.5-.6l-.2-.4v-.2l-.1-1.2q-.8-1-2.5-1.3-.9-.2-2-1.2l2.6-2.4 1.9 1q1.3 0 2.6-2.1 1.4-2.2 2.2-2.2l.7.5q1.8-.5 2.6-1.8m-24.5 11.1 4-1.1 2.3.9q4 0 4-2.9l.4.3q2.1 2 3.6 2.8l1.9.9q-.2.4.5.3l.5.4.1.4q0 2.4-2.6 3-.6 2.4-1.6 2.4l-1.6-.6q-1.4 1.6-2.3 1.6-.6-.8-1.4-.8l-1.1.3q-.4 0-1-2.5l-2-1.8h-.1l-2.4-1.9-.4-.4z"/><path fill="#f8fbfa" d="M38.3 0q1.4.9 1.6 3.2.2 2 0 7 .4 5.1 2.2 9.1l.4 1.2q-1.5 3-3.6 2.2 1.8 2.6 2.6 2.4t2-.8l.2 3.4-.2 3.6-2.4-1q-1.1 0-1.3 1.9t-1 3.7l-.2-.8q.3-2-1-3.2l-.2-.1q-.7-1.1-1.4-1.1h-.2l-.8-.5V30q.4-1.7-.9-1.9 0-1.1-.8-1.1-1.2 1.3-2.5 1.3-3.1 0-5 2-1.9 1.8-2.7 1.8-1-.2-2-1l4.3-3.1 2.8-2.7.4-.6q1.1-1 1.2-1.9 0-.6-.7-.6l-1.4.1q-.7 0-1.1-.3l.1-.3 1.3-2.9 1.9-1.6-.1-.2-.6-1.2-.7-1.3 1.4-4.6 2-5q1.5-3.7 3.8-4.6L38 0zm-1.8 20.8 1.5 1.4.9.5-.9-.5zM22.9 41l.6.5q.4 0 4.5-3.2l-.7 1.7q.4.5 1.6.5l.4-.2q-.4 1.7-1.9 1.7l-1.1 1q-.7 1-1.7 1l-1-.3q-1.2.8-2.2.8-.5 0-.7-.2l.3-1.1q.4-1.4 1.9-2.2m10-7.2 2 .3h.6q-.6 2.3-2.9 2.3l-.7-.1V36l.9-2.1zM15.5 61.9l-.2-.7q0-1.6 4.6-3.6l.4-.2.7.1.9.4v.3q0 1.1-1 2.3 0 .5.6 1.6l-.2.3q-.6-.1-.6-.3l-.6 1q-.7 0-1.2-.7-.5-.8-1.2-.8zM18 51.4v-.3q0-.9 2.8-2.6 1 .6 2.7.5h.3l-.3.3q-1.4 1.9-1.8 1.9l-.6-.2q-1 .9-2.3.9zm5 3.3 1.5.3q1 0 2-2.4h.1q.2.3.2.8 0 3.5-3.4 3.5l-1.2-.3h-.1q0-1 1-2m-12 21.8-.3-.7v-.2l-.8-2 .2-.5.3-.7q.8-2 3.5-3.8l.2-.2 1.9.5 1.4.3q.8 0 1.9-1.7l.6-.4.6.3.4.3q.8 1.5.8 2-.6.3-.6.9t2.1 1.8l1.7.7q-1 .5-2.2.5l-1.6-.3q-1.2 0-2.2 1.5t-1.8 1.5l-2.2-.6q-.7 0-1.1.6-.6.6-1.6.6-.7 0-1.2-.4m8.4 5.8 2 .9.8.4h.1q.6.5.6 1.6t-.6 1.5l-2 .3q-3 1.1-4 1.1t-2.1-1.3l-1.9-2.1-.3-.3-.1-.2.5-1 1.7.6q2.8 0 3.9-1 .9 0 1.4-.5m-8.7 6.7q1.5 3.1 3.9 5.8 1.9 2 2.3 3.9l2.7-1.2q.3 0 .3 1.3.1 1.3 1.2 1.3.6 0 1.7-.7l1.2.4q-.8 1.3-2.7 2-.9.3-1.2 1.5-.2 1-1.1 1l-.6-.1q-.4 0-.7.8t-1 .8q-.4 0-1.8-1.7t-2.5-1.7q-3 0-3-1.1l.5-.4 1.1-.5.9-.2q1-.4 1-.8V99q2-1.7 2-2t-.5-.4q-2 1.4-2.7 1.4t-1-.8l-.6-.9-.7.5-2.5-4-.4-1.2q0-1.8 3.1-2.4z"/><path fill="#dbf0f2" d="M42.6 20.5v.2q.6 1.8.9 3.6-1.1.6-2 .8t-2.6-2.4q2.1.8 3.6-2.2M28.9 45l1.6-2.6q.9-.7 1.6-.7l.6.1.7-.7q.7 0 1.5.7.6.8 1.8.8l1.4-.3q.9 0 1.4.5l-.7.4-2.3-.4q-2 1.5-2.4 1.5l-2.1-.6q-.6 0-3 1.3zm10.7 5.5.6.9.2.3q0 .9-1.3 1.8-1.5.9-3.1.9-.7 0-1.7-1l.6-1 .3-.4v-.1q.7-.4 1.4-.4.5 0 1.1.5 1 0 1.9-1.5m-3 17.3-.2-.3q-.3-1.2-.9-2.3l-.1-.2-.3-1.1q0-.9.9-2.1 1.3-1.7 3.3-1.7l.3.1 2.3 3.3q2.4 1.8 3.8 1.8l1.1-.3.1.5 1.2.8.5.4.5.4q-.1 2.6-2.6 2.6-.7-1.5-1.8-1.5-.5 0-1.2 1.5T42 71.2l-1.2-.5q-.9 1.1-1.5 1zm-11.7 33.7.6-.5h.1zm19.2.5-1.3-2.8.6.2h3V99l-.4-1.3 2.8-.2 1.1 2.6q1.4-1.1 3-1.4l.2 1 2.2 3 .3.6.2.7q0 .8-1 2.5-1.2 2-2.7 2-.9 0-1.4-.7-.6-.7-1.2-.7-1.8 1.4-2.4 1.4t-1-1.5l.1-1.2-.2-1.5q-.4-1.1-1.4-1.9l-.1-.2zm-2-14.4-.5-.9q-1.7-3.2-2.2-5.9l.9.7 2.9-.7.1-2.1.7-.2q1 0 1.6.8l1.7-1.5q1 1.8 1.8 3.8.6 2.1 0 2.8-2.5-.3-2.6 1.4-.1 2-.7 2-1-1-1.7-1l-1.6.9zm-12.8 2.7V90q0-.9 2.6-3.5l.8-1L34 84l-1.4 5q-.7 1.7-3.1 1.5zm0-74.4.6 1.1v.2L28 18.8zM26.6 22q.3.3 1.1.3l1.4-.1q.7 0 .7.6-.1.9-1.2 2l.3-.8q-.1-.8-1.2-1t-1.1-1m-3.7 19 .4-.2 2.1-2.1q1.6-1.5 2.5-1.7 1.5.1 1.5 2l-.1 1.3-.4.2q-1.1 0-1.6-.5l.7-1.7q-4.1 3.3-4.6 3.3zm10-7.2 1-1.7.5-.4.5-.2q.8.2.8.8 0 1-.2 1.8H35zm-9 15.2h-.3q-1.7.1-2.7-.5l.7-.4 2.5-1.4.4-.2.4.5q0 .3-.7 1.5zm-.7 5.6 1.9-1.4.9-.4.4-.1h.2q-1 2.3-2 2.3zm4.2 3.5q0 .4-1.2 1.7-1.2 1.4-1.6 1.4-.9 0-1.6-.5v-.2l.1-.4q.9-1.4 4.3-2m7.3.3q0-.7 1-1 .8 1.1 2.6 1.2-.3.4-.9.4zm-8.2 17.9 2.1-1.7 2.5-.8.9.1.6.2.2.9v.7l-1.4-.2q-1.3 3.7-2.7 3.7-.9 0-3-1.2l1.8-1.5zm-12-8q2.7-1.8 4.5-1.8.5 0 1.3.5l-.7.4q-1 1.6-1.9 1.6l-1.4-.2zm6.7-.7.1.1q1.5 1.2 4 1.2l.7.2.6.6q0 2.3-1.2 3.1l-.2.2-1.7-.7q-2.1-1.2-2.1-1.8t.6-.8q0-.6-.8-2.2m-1.6 14.7q-.4.5-1.3.5-1 1-3.9 1l-1.7-.7v-.3q-.8-.7-.8-1.7l.1-.5.2-.5.7-.5.8-.5 1-.5q2.3 0 4.2 3zm.5 11.5-.1-.2-.3-.3-.3-.5q0-1.5 1.2-2.5l.1-.2 1.3-.8 2.4.3 1.1-.2v.5q0 1.7-3.6 1.7-.4 1.8-1.8 2.2m-9.2-4.8h.2l1.3-.2q1.2 0 2.2 3 1.2 2.8 2.3 2.8.5 0 1.5-.7l.1.1q-.4 1.1 4.6 2l.4.1q.8.2 1.3.5v.5q0 1.5-.6 2.7l-1.2-.5q-1 .8-1.7.8-1 0-1.2-1.3 0-1.4-.3-1.4l-2.7 1.3q-.4-1.8-2.3-3.9-2.4-2.7-3.9-5.8m5.5 19.1v.2l2.9-1q.3 0 .8 1.8t.2 2.5l3.6.4 5.5.8h.3q1 .8 1 4.5v.9l-.4.1q-1 0-1.8-1.4-.7-1.3-1.5-1.3-1.6 1-2.4 1-.5 0-1.2-1.3t-1.8-1.4l-3.4.4-2.4-1.5.1-1.2q0-2.2-1.3-2.8l-2-.4q-.7-.2-4.5-3.4 1.5-.6 4.1-.7l2.8 2.6q.6 1.3 1.3 1.3"/><path fill="#8dc8d0" d="m43.5 31.3 2.5 1.4q3 0 3.1-2 1 1.2 1 1.8 0 2.3-2.2 2.3-1.4 0-3.5-1.1l-1.1-.7-1.2-.5q-1.4 0-1 2.6.4 2.5-1.4 2.4t-1.8-1l.4-1.8q0-1-.6-2.4l-.4-.5.3.1q1.3 1.1 1 3.2l.2.8q.8-2 1-3.7.2-1.9 1.4-1.9zm5-1.6h-.1q-2.7-1.7-2.7-2.2l.1-.3.6-.1q.8 0 2.5.7.9 0 1.6-1l.4-.8.9 1q0 1.2-1.2 2-1 .8-2.1.7m.9-4.7-1.4-.3q-1.1-.2-1.1-1.2 1.8-.7 2-2.3 1 1.6 1 2.3zM45 15.2l-.5-1 .5-.7zM43.4 42q.1.7.5 1.3.9 1.8 3 3 .9.4 3.6 3.4.5 0 1.6-1.2l1.1.5q.8 0 .8-1.8v-.7q.8 1.3.8 2.2 0 2.3-1.2 2.3-.8-1.1-2-1.1-.4 1-1.2 1t-1.3-1.4q-.7-1.7-2.6-2.6-2.3-1.1-3-3.6V43zm-3.9 1q.8.7.8 2.5 0 2-1.2 2l-2.1-.6-3.5 3.6q-.5 0-.5-1.5 0-1-.5-1.2l-.7 1.3q-.2 2.8-1.4 2.8l-.7-.5q-.5 1.5-1.2 1.5l-2.7-2.5q1 0 2.2 1.6.8 0 1-.8.1-1 .8-1l.6.3q1 0 1.2-1.5.1-.9.5-1.4l.1-.1.4-.5.2.3 1 1q.4 0 1.4-1.1t1.5-1.1l1.8.4q1.6 0 1.6-1.5 0-1.3-.6-2m5.7 4.8q1 1 1 2.1 0 1.4-1.7 1.4l-1.8-1.6q.3-.2 1.6.5 1 0 1.3-1.7zm-4.9 3.9q.8 1.3.8 2.2 0 .8-5 1.5-2.2 0-2.2-1.6l.3-.3q1 .9 1.6.9 1.7 0 3.2-1 1.3-.8 1.3-1.7m19.8 8.1.2.1v.4l-.5 3.6q0 .6-1 .6-1.2-2-1.7-2l-1.2.9q-1.6 0-2.7-3l1.8 2.3q1.1 0 1.5-.8.8 0 1.8 1 1.8 0 1.8-3.1m-19.6-.4.5-.1.8.2q.6.1 1.4.7 1.3.8 2.1.8 1.3 0 2.8-.6 1.9-.9 1.9-2.1l.1.9q0 3.2-4.1 3.2-1.8 0-2.9-1-1.3-1.2-2.7-1.4l-.1-.1zm-4 8.4 2.8 3.9q.5.1 1.4-1l1.2.5q.8 0 1.5-1.5.8-1.5 1.2-1.5 1 0 1.8 1.5 2.5 0 2.6-2.6.5.6.5 1.4 0 .6-1.5 2l-1.9 1.3q-.5 0-.6-1.4-.1-1.5-.9-1.5t-1.4 2q-.4 2-1.3 2l-.9-.5q-.6 0-1.1 1.5-.6 1.3-.9.4l-1-3.2-.4.2q-.9 0-.9-1.7zm29.3 2.8.3.4q2 2.5 2 4.5 0 1.2-1.4 1.6-1.5.4-1.5 1l1.1 1q1 .8 1 1.5 0 .8-2.1 1.2-2.2.4-2.2 1.3l.5 2.8q0 1.7-.8 1.7-1-1.1-1.6-1.1-1.9 2.6-2.6 2.8-.2-.2-1.6-3.6-.8.2-.8 1.2 0 .7.5 2.3 0 .8-1.4 2l-1.5 1.3q-1 0-1.6-3.6l-.5-5-2.6-4.6q4 5 4.9 10.6 1.1-.7 1.4-3 .2-2.1 1.3-2.1.9 0 1.8 1.2-.1.7 1.5-.4t2.4-2.6 1.9-2.1q.9-.5.9-1-1-1.5-1-2.1t1.3-2.2q1.3-1.4 1.3-2.4zM70.3 90q1.4 1.3 1.4 4.7 0 3.1-1 3.1-.2-.8-1.2-.8l-.1 1.3q0 1.2-1 1.2-1.9-1.5-2.6-1.5l-.3.3q0 .9.8 2.9 0 1-.7 1l-.6-.2q-1.1 0-2.2 1.6l-.7 1.3-.1 1.2-1.1.2q-.9 0-1.2-1.1l-.1-.3-.5-1.5q-2-.4-2.7-1.2-2.2-2.2-2.5-3.2v-.5l-.6-2.2.9 2.2 1.1 1.6q1.3 1.4 3 2.2 1.6.6 2.2 3l.2.4.3-.2.5-1.3q.3-1.6.9-2 2.9-.4 2.9-2.2l-.2-2q0-1.1.9-1.1l1.5.3q1.3 0 2-1.5l.7.1q.8 0 .8-3.4zm4.3 16q1.4.8 1.4 3.1-.2 2.7-1.2 2.7l-1.1-.7q-.6 1.3-1.4 1.3-.6 0-1-.9t-1.1-.9q-1.5 0-1.5.8v.1l-3-.5q.5-1 2.1-1 3 0 4 1.5.6 0 .9-.7t.7-.7l1.2.3q1 0 1-2 0-1.3-1-2.4m-2.8 6.7q1.8.8 1.8 2.2 0 1.6-3.4 2.3-1.1 3.3-2.2 3.3-.7 0-.8-.7-.4-.8-.7-.8-.5 1-1.5 1-.4 0-.8-1.3-.5-1-1.1-1.2H63l-.1-.2v.2l-.2-.2-.2.2q-.5-.5-.6-1h.1l.5.5q.6.6 1.8.8.8 1.4 1 1.4.9 0 1.2-1.2.5 0 1.3.8 1 0 1.2-1.3.2-1.5.8-1.7 2.7-.7 2.7-1.8 0-.7-.7-1.4m-10 3.3q-.6-1-1.7-1.8-1 .5-1.6.5-1 0-1.8-1.6l-.2-.4q-.9-1.3-2.7-1.3-3.5 0-3.5-.7l.2-.6.8.2 1.7-.2q2.2 0 3.5 1.5l.7.7q1.1 1 2 1.2 1.7.3 2.4 1.3zm-10-6.6q-1.5-1.2-2.1-1.2-.9 0-1.5.7l-.7.6q-1.4 0-1.8-1.7-.4.4-1 .4t-1.1-.8q-.4-1-.7-1-.5 0-.5.8 0 .5-.7.5-.5 0-1.1-1.2-.6-1.3-1-1.3-1 0-1 2v2.8q-.2.5-1.2 1.6l-.2-.7q.8-1 .8-2.2l-.2-1.3q0-3.2 1-3.2 1.6 0 2.3 2.7.7-.3.7-.9 0-.5.9-.5t1 .8q.3.8.8.8 1.4 0 1.4-2.7l.2 1.5-.1 1.3q.4 1.5 1 1.5t2.4-1.4q.6 0 1.2.8.5.6 1.4.6 1.5 0 2.8-2 .9-1.7.9-2.5l.3 2.2q0 .6-1.2 2l-.5.5q-1 .9-2 .9zM36.9 112q-.6 1.4-1.5 1.4-.7 0-1.2-1.6l-.7-1.8q-.4 1.3-.8 1.3-1 0-1-1.8t-.6-1.9q-.2 0-.4 1.7t-1.2 1.7q-.7-1.1-1.2-1.1-.1 1.3-1.4 1.3-1.2-1.6-2-1.6-.4 1.4-1.6 1.4l-1.5-1.7 1.5.3q.8 0 1.8-.7.4 0 2 1.7.6-.2 1.5-1.3l.6.3q1.7 0 1.7-2.4v-.4h.6q.9.4 1.1 3.2h.5q.3 0 .6-.4 0 .5 2.1 3zm10-34.6.3.3v.1l1.3 2q2.6 4 2.6 5.7l-.2 1.8-.4.2q-.5 0-1-1-.2-1.1-.6-1.1-.7 0-1.1 2.2-.3 2.2-2.3 2.2l-1.6-1.3-.6 1.3-1.3-2.2h.4l1.6-.8q.6 0 1.6 1 .7 0 .8-2 0-1.7 2.6-1.5.6-.6 0-2.7-.7-2-1.8-3.8zm-6.8 8.8q1.4 2.3 1.4 4 0 2-1 2l-1.6-.9q-.6 0-1.1 1.8-.6 1.7-1.1 1.7-1 0-1.2-1.3l-.4-2Q33 95 32.4 95q-1 0-2.1-2.2l-1-2.2-.1-.2v-.2l.2.3q1.2 2.7 2.8 2.7 1.4 0 2-1.5l.8-1.5q1 0 1.6 1.3l.7-1q.2-.5.9-.5.4 0 .8.4 1.5 0 1.5-2 0-1.2-.4-2.2m-7 28.5.1 2.8.1.2q.3 2.8 1.5 5.3 1.8 3.8 4.4 3.8l2.1-1.8.3.9q0 1.9-3.5 1.9-1.1 0-2.9-2-2-2.3-2-4.8l-.4-3.7-.1-1.7q0-.6.3-.9zm29.4 3.2q1.1 1 1.1 2t-2.7 2.5q-.7 3.2-1.4 3.2t-1.1-.7q-.6-.9-1.2-.9t-1 1.3-1.2 1.2q-.5-2.2-2.4-2.2l-1.1.5q-.4 0-1.6-3.8l-1-1.1q-.8-.5-1.9-.7l.4 1.2q0 3.6-1.7 3.6l-1-.5q-.6 0-.7.7t-.5.7l-.5-.1q-.1-1.7-.7-1.7t-1 .3q.2-1 .8-1l1.3 1.1.9-.7 1 .2q1.6 0 1.6-3.7v-.2h.1l-.2-.5-.3-.5 2.4 1.8 2.1 1.8q.6 2.5 1 2.5l1.1-.3q.8 0 1.4.8.9 0 2.3-1.6l1.6.6q1 0 1.6-2.4 2.6-.6 2.6-3zM21.2 31q.9.9 2 1.1.7 0 2.6-1.9t5-1.9q1.2 0 2.5-1.3.9 0 .9 1.1l-.4-.1-.3.6q-1 1.5-1.6 1.5L30.2 29q-4.3 4.2-7.1 4.2-2.8-.2-2.4-.7zm8.1 9.3q.2-.5.2-1.2 0-2-1.5-2.1h.1l.6.1.6.1q1.2.4 1.2 1.3l-.2 1.8q-.5 2.1-1.1 2.9-1.5.1-1.9.6l-1.5 1.7-1.6-.5q-.9 0-1.5.8-.7.7-1 .7-.9 0-.9-1.9v-.4q.2.3.7.3 1 0 2.2-.8l1 .3q1 0 1.7-1l1.1-1q1.5 0 1.9-1.7m6.2-6.2.1-1.9q0-.5-.6-.7 1.5 0 1.5 1.8v.6q-.1 1-.8 2-1 1.6-2.5 1.6-1.4 0-1.4-1l.1-.2.8.1q2.2 0 2.8-2.4M15.4 62l2.2-.3q.7 0 1.1.8.6.7 1.3.8l.6-1.1.5.3.3-.3q-.6-1-.6-1.6 1-1.2 1-2.4V58l.8 1.1q0 .5-.4 1.2l-.2.3q0 .5 1 2 0 1-.9 1l-1-.5-.4.1q-.1 1.9-1 1.9-.4 0-.7-1.2t-.8-1.2h-2q-.6-.1-.8-.7M18 51.4l.8.5q1.3 0 2.3-1l.6.3q.4 0 1.8-1.9l.3-.3.3-.5q.8-1.2.8-1.5l-.5-.5.3-.1.7-.3.4.1q.3 0-.5 2.6-.7 2.5-3.3 4.3-.7-1-1.7-1l-.8.2q-1.4 0-1.6-.9m8.7 1.3q1 .1 1 1.4l-2.1 3.1-1-.2-.9.5q-1.5 0-1.5-.9l1.3.3q3.4 0 3.4-3.5 0-.5-.2-.7m-3.8 7.8v.2q.1 1.1 1.2 2.1l1.6 1.2-1 .1.3-.2q-2.3-1.5-2.3-2.7zm-.4 5q.4.7 1 .7t1.4-.5l1 .5q.8 0 1.9-1h.4q-.7.4-.8 1.5-.3 1.6-1.2 1.6-.7-1.6-1.3-1.6-.7.3-1.2.3-1.4 0-1.4-1.2zm6.6 1.4q-.4 1.4-.7 1.9 0 .5.6.5t1.6-1.1l.6.3q1 0 .7-2.3.9-.6.9-1.7l-.4-1.5q.9-1.7 1.2-3 0 1-.5 2.4 0 .8.7 2.7 0 .4-.6 1t-.4 1.6q0 2.3-.8 2.3-.6-.6-1-.6-1.1.5-1.5.5-1.5 0-1.5-1.2zm9.8-9.5q.4.4.4 1.2l-.2.9q-.4.5-1.5.5L35 59l-.4-.1h-.1l-.1-.1.1-.3 2.8.6q.5 0 .8-.4t.4-1.2m-6 16.7q.8.5.8 1.7 0 1.8-.7 3.2 0 1.2.6 2.8 0 1.6-3.7 5l-.7-1.2-1.3.4q-2 0-2-1.5.2-1.7 0-2.3H25l-1.6.3q-.7 0-1-1l1.1.3q1.4 0 2.3-.8.4 0 .9 1.3l-.5 1.7q0 1.3 1.4 1.3 1 0 1.3-.7.3 0 .6.3 1.2 0 2.6-3.5l-.5-2.1q1-2.2 1.2-3.6V75zm-6-4.4.3.5q.6 1 .6 2 0 2.8-3.2 2.8-1-.7-2.1-.7-1.5 0-2.7 1.9t-2.1 1.9q-2.4-1-2.7-1l-1.8.9q-.7 0-1.6-1.6.6.4 1.2.4 1 0 1.6-.6.4-.6 1-.6l2.3.7q.8 0 1.8-1.5 1-1.6 2.2-1.6l1.6.3q1.3 0 2.2-.5l.1-.2q1.3-.8 1.3-3.1m-14 14.9 1.9 2.1q1.1 1.3 2.1 1.3t4-1.2l2-.2q.6-.3.6-1.5t-.6-1.5q1.2.7 1.2 1.5 0 .4-.3.9 0 .5.5 1.3 0 .5-.6 1.2-.8-1.2-1.8-1.2t-2.7 1.3l-2 1q-.3 0-4.3-5m14.2 4.6h.6q.1.8 1.2 3.8 0 1.3-1.2 1.3-.4-.6-1.7-1.2-.4 1.9-1 1.9L23 93.3l-.3.2q-.8 1.5-1.2 1.5l-1-.8h.4q.8 0 1-.9.5-.9 1.1-.9l.9.8q.5-.2 1.2-1.1l.8.6q1.4 0 1.4-2.3 0-.6-.6-1.2m-2.5 10.5q.6-1.2.6-2.7v-.5q1 .6 1 1.7 0 1-.4 1.9-.6 1.6-2.6 2.8l-2.2 1q0 2-1.1 2l-1-.6q-.5 0-1 1.4t-1.1 1.3l-1.4-1.2q-.9-1.7-1.9-2.5-.6-.5-2.5-.8-1.3-.3-1.3-1.3 0-.7.3-1 0 1.1 3 1.1 1.2 0 2.5 1.8 1.4 1.6 1.8 1.6.7 0 1-.8t.7-.8l.6.2q.9 0 1.1-1.1t1.2-1.5q1.9-.7 2.7-2m5.5 13q2 .3 2 2.8 0 5-1.6 7.8-1.2 2-2.5 2-1.7-.7-5.7-1.8-4-1.3-4-1.6l.3-.7h.3q.7 0 4.5 1.6.7 0 3.3 1 2 0 3.3-2.5.8-1.7 1.1-3.2v-.9q0-3.7-1-4.5m-11.2 6.5q0-.9-.5-.9-1 0-1.4 1.4t-1.4 1.3q-.7 0-1-1-.4-.8-.7-.8l-.9.5q-2.2 0-3-1.7.7.7 1.7.7t2-.8q.6 0 1 1.1t1 1.1q.9 0 1.1-1.2.2-1.4.8-1.6 2-.7 2.8-2h.1l.2.3zm-5.4-7.8q0-.8-1.3-.8-1 0-1.7 1.2t-.9 1.2q-.6-1.1-1.2-1.1l-.9.8q-1 0-1.5-1l.9.3q.5 0 1.2-1l1.4.7 1.3-.7q1-.8 2.2-.8.3 0 1.5-.7.3 0 .3.3 0 .8-1.3 1.6m0-12.4q-.2-.4-.7-.4l-1.5.5q-.8-1.5-1.3-1.5-.5.6-.8.6-.8 0-.8-1.4v-2l-1-2 2.5 4 .8-.5.6.9q.2.8.8.8t3-1.3q.4 0 .4.3 0 .4-2 2"/><path fill="#add8de" d="m43.4 42-.1-.9q.1-1.9 2.7-1.9 1.9 0 5.3 3.8l-1.5.5q-.4-.9-3.8-2.3h-.1l.2 1.2q0 .9-2.2.9-.4-.6-.5-1.3m-2 5v-1.2l.6-.1q.5 0 1.5.7h-.2zM35 52q0-.4.4-1l.3-.4q.7-1 1.4-1 1.4 0 2.3.9l.1.1q-.9 1.5-1.9 1.5-.6-.5-1-.5-.8 0-1.6.4m14.7 4.7q-.9-.8-.9-1.5l.2-.6q1-2.5 2.5-2.5.9 0 2.5 1.9l-.4.1q-.6 0-.9-.6l-.5 2.1zM50 58l-2.1 1.3q-2-2.3-3.6-2.3H44l.1.8-2.4 1.8-.7-.2h-.5q.3-.8 1.6-2.1 2-1.2 2.9-1.2 2.5 0 3.8.7l1 1.1m-3 7.2-1.2.3q-1.4 0-3.9-1.7l-2.2-3.4q2.1.1 5.5 2.8 1.3.5 1.8 2m1.9 13.8q-.9-2-.9-3l.3-.6.3-.4q5.2-6.3 13.7-6.3l.4.1q-1.2.5-1.5 1.8l2.5 1-4.2 3.1q-1.5-1.7-2.7-1.7-4.1 2.1-4.1 2.4l.5 1.5zm4.7 17.5-.1-.8v-.2l2.4-1.3q.6-.4 2-2.3.6-.9 3-1.5l.3-1.5q0-.5.6-.7l.8-.2 4.8 1q-.2 1.3-1.1 2.4 0 2.3-1.3 2.3l-1.2-.2q-1.1 0-1.1.9l.1.5q0 .5-.6 1.5-.7.8-1.1.8l-2.5-2.3q-1.4 3.9-3.8 3.9l-.3-.1zm8.8 8.6 1.4-1.6q2.3 0 6.3 1.9-.8 1.3-2.6 1.8l-.7-.5q-.8 0-2.2 2.2-1.3 2-2.6 2l-1.9-.9-2.6 2.4-.7-.7Q55.3 110 53 110l-1.7.2-.8-.2 1.3-.8.5.4q1 0 2-.9 2.6-.4 2.6-1l-.4-1.8q0-1.7 1-1.7l2.1.7.1.3q.3 1 1.1 1l1.2-.1zm-36.8-4 .6-2.7q.3-1.8 2-1.8l4.6.8.1-.2 1.1-.9q1.6-1 2.9-1 3 0 4.9 4.2l.2.4-3.9 2.3q-1 0-1.6-1.5l-.7-1.5q-1.6 1.2-3.5 1.2-2.1-.8-3-.8-1.4 0-3.6 1.5zm17.3-1.8-1.2-2.4q0-2 2-2l1.7.2q1.3 0 2.3-.7t2.4-.7q1.5 0 2.5 3.4v.1l.5 1.6q-1.7.3-3.1 1.4l-1.1-2.6-2.9.2.5 1.3v.4h-3zm-3.5-18.4-.2-2.4q0-1 .5-1.6l.8-.6L43 75q1.9 0 3.9 2.4l.3.4-1.7 1.5q-.5-.7-1.6-.7h-.6l-.2 2.2-3 .7zm-6.1 33.9v-.2l.2-.1.1-.1.6-.2v-.1l1 .2q1.8 0 6-2.3.5 0 1.1.6l.1.3 2.8-2q1.6 0 4.4 1.5l3.3-.5q1.4 0 2.8 1.3l.1.1q0 2.9-4 2.9l-2.4-.9-4 1.1-.6-.9-8 2.5-3.4-.5zm2.4-57.3 2.1-.4.9.3.1.1q-.1.8-.4 1.2-1.8 0-2.7-1.2"/><path fill="#eef8f9" d="m39.4 42.8.1.2q.6.7.6 2 0 1.5-1.6 1.5l-1.7-.4q-.6 0-1.6 1.1t-1.5 1.1l-.9-1 .2-.4-.4.1-.4.5-.1.1q-.4.5-.5 1.4-.2 1.5-1.2 1.5l-.6-.2q-.7 0-.9.9-.1.8-.9.8-1.1-1.6-2.2-1.6l-.2-.2q0-1 2.8-4.7l.4-.5h.1q2.4-1.3 3-1.3l2.1.6q.5 0 2.4-1.5l2.3.4zM33.9 84q1-1 2-1 1.3 0 2.5 1.1L40 86l.1.3q.4.9.4 2.1 0 2-1.5 2-.4-.4-.8-.4-.7 0-.9.5l-.7 1q-.6-1.2-1.6-1.2l-.8 1.5q-.6 1.4-2 1.4-1.7 0-2.9-2.7 2.4.2 3.2-1.5zm-11-23.3q.7.4 1.6.4.4 0 1.6-1.3 1.1-1.2 1.2-1.7l1.6-.2.4-.1 1.1-.4h.4q.6 0 1.6.9l.7.7.4.9v.1l-1.1 3 .3 1.5q0 1.1-.9 1.7.2 2.3-.7 2.3l-.7-.3q-1 1.1-1.5 1.1t-.6-.5q.3-.5.6-1.9l.5-.9q0-.8-.6-.8h-.5l-.2.2-.4-.1q-1.1 1-1.8 1l-1.1-.5q-.9.5-1.4.5-.6 0-1-.7.3-.5 1.2-1l1-.4 1.1-.1-1.6-1.2q-1.1-1-1.2-2.1m-.5 20.8-.2-.7v-.6q0-1 2.6-2.8l.1-.2.5-.4 1-.5 1 .2-1.8 1.5q2.1 1.2 3 1.2 1.4 0 2.7-3.7l1.4.2q-.2 1.4-1.2 3.6l.4 2.2Q30.6 85 29.4 85q-.3-.3-.6-.3-.4.7-1.2.7-1.5 0-1.5-1.3l.5-1.7q-.5-1.3-1-1.3-.9.8-2.2.8zm-2.4 12q1.4-.5 1.8-2.2 3.7 0 3.7-1.7l-.1-.5 1.1-.1h.1q.6.6.6 1.2 0 2.3-1.4 2.3L25 92q-.7.9-1.2 1l-.9-.7q-.6 0-1 .9t-1.1.9h-.4l-.1-.2zm-2 27.6.3-1 .1-1.1 1.8-3.7-.2-.2q-.8 1.3-2.9 2-.6.2-.7 1.5-.2 1.3-1 1.3-.7 0-1-1.1-.5-1.1-1.2-1.1-.8.8-1.9.8t-1.7-.7l-.2-.5-.2-1.8q0-1.1.8-1.7l.1-.2.2-.1 2.6-2 .2-.3q1.3-.8 1.3-1.6 0-.2-.3-.2-1.2.6-1.5.6-1.2 0-2.2.8l-1.3.7-1.4-.7q-.7 1-1.2 1l-.9-.2-.1-.7-.4-2.7q0-2.5 3-3.5 3.8 3.1 4.5 3.4l2 .4q1.3.6 1.3 2.8l-.1 1.3 2.4 1.4 3.4-.4q1 0 1.8 1.4t1.2 1.3q.8 0 2.4-1 .8 0 1.5 1.3.9 1.4 1.8 1.4l.4-.1q-.2 1.5-1 3.2-1.4 2.5-3.4 2.5-2.6-1-3.3-1-3.8-1.6-4.5-1.6z"/><path fill="#d7ebee" d="m37.4 111.4-.4.3-.1.3-1 .7q-2.1-2.7-2.2-3.1-.3.5-.6.5l-.5-.1q-.2-2.8-1.1-3.2h-.6v.4q0 2.4-1.6 2.4l-.7-.3q-.9 1-1.5 1.3-1.6-1.7-2-1.7-1 .7-1.8.7l-1.5-.3-.6-.8-.4-.8-.6-1q.2-1.4 2.3-3.1l2.3-2.1.7-.5q2.3-1.5 3.6-1.5.9 0 3 .8 1.9 0 3.4-1.2l.8 1.5q.6 1.5 1.6 1.5l3.9-2.2q.6.8 2.2 2l.4.3.1.2q1 .8 1.4 1.8 0 2.6-1.4 2.6-.5 0-.8-.7-.2-.7-1-.7t-.9.4q0 .6-.7.9-.7-2.7-2.4-2.7-.9 0-.9 3.2l.2 1.3q0 1.2-.8 2.3zm-4 6 3.3.5 8-2.5.6.9 1 1.3.3.5.3.5.1.5v.2q0 3.7-1.6 3.7l-1-.2-.9.8-1.3-1.2q-.6 0-.7 1l-.2.5.1 1-2.1 1.8q-2.6 0-4.4-3.7-1.2-2.5-1.5-5.3z"/><path fill="none" stroke="#dbf0f2" stroke-linecap="round" stroke-linejoin="round" stroke-width="__RESOLUTION__" d="m38.9 22.7-.9-.5-1.5-1.4m6-.3q-1.5 3-3.6 2.2" vector-effect="non-scaling-stroke"/></g></defs><g clip-path="url(#h)"><g transform="translate(40 116.7)"><use xlink:href="#i" width="79" height="133.1" transform="translate(-39 -115.5)"/><use xlink:href="#j" width="24.4" height="78.5" filter="url(#filter-object-1)" transform="matrix(1.5033 0 0 1.4891 -34.15 -115.7)"/></g></g></svg>