<svg xmlns="http://www.w3.org/2000/svg" xmlns:xlink="http://www.w3.org/1999/xlink" width="35" height="31" viewBox="0 0 35 31"><defs><clipPath id="a"><path d="M1 1h33v29H1z"/></clipPath><g id="b"><path fill="#000" fill-opacity=".3" d="M22.2 18.7v-1.9q5.9-.5 9.4 2 1.4 1.3 1.1 3.2 0 5.5-11 6.7-10.9 1-13.7-2.2z"/><path fill="#4e4b3a" d="m12.4 12.3.2.1q2.2-1.4 4.2-.9-2.1.5-4.5 2.4-1.4-1.3-3.9-2.2 2.2-.7 4 .6m.8 6.4L13 18zm-2.7-.9 2.3.1h.4l3.5-.2.1.8-.1-.8 2.6-.7h.2l1.6-.7 1-.5q1.5-.9 2-1.9l.8.8-.7-.8.3-1.3.4 2.1q.5 3.5-.4 7-.2 2.1-3.4 3.6-3.4 1.6-8.3 1.6-4.8 0-8.2-1.6-2.4-1-3.1-2.5l-.3-1q-1.3-4.6 0-9.2 0 1.3 1.3 2.5.8.6 2 1.2l.2.1 1.6.6 1 .3zv.9zm9.5 0-.5-.8zm2.3-1.8-.2-.2zm-18 1.3.4-.9zm3 .5v-.5zM1.8 16l.6-.9z"/><path fill="#888566" d="M12.4 12.3q-1.8-1.3-4-.6 2.5 1 3.9 2.2 2.4-1.9 4.4-2.4-1.9-.5-4.1.9zm.7 5.5h-2.7l-3.2-.6-1-.3-1.6-.6h-.1L2.4 15l.5-.9-.5.9Q1 13.9 1 12.6q-.1-1 .5-1.8.8-1.2 2.9-2.1 3.4-1.6 8.2-1.6 4.9 0 8.3 1.6t3.4 3.9l-.3 1.3-.5-.6.4.6q-.5 1-2 1.9l-1 .5-1.6.7-.5-.9.5.9h-.1l-2.7.7zl-.1-1.2zm3.3-1 .2.8zm5-2 .6.8zm-16.5.8-.3.7zm5.5 1.3v.8zm-3.2.3.1-.9z"/><path fill="none" stroke="#6d6a52" stroke-linecap="round" stroke-linejoin="round" stroke-width="__RESOLUTION__" d="m13 18 .2.7m-2.8-.9v.9m2.5-2L13 18m3.5-.3-.2-.7m.2.7.1.8m2.2-2.4.5.9.5.8m2.1-2-.6-.9m2.7-1 .7.8m-.7-.8-.5-.6M22 15.8l.2.2m-17.6.4-.4.9m.4-.9.3-.7m5.5 2.1V17m-3.1-.6-.1 1v.4m-4.3-3.6-.5.9-.6.9" vector-effect="non-scaling-stroke"/><path fill="none" stroke="#000" stroke-linecap="round" stroke-linejoin="round" stroke-opacity=".3" stroke-width="__RESOLUTION__" d="m24.8 14.7-.4-2.1m-23.3 0q-.1-1 .5-1.8.8-1.2 2.9-2.1 3.4-1.6 8.2-1.6 4.9 0 8.3 1.6t3.4 3.9m.4 2.1q.5 3.5-.4 7-.2 2.1-3.4 3.6-3.4 1.6-8.3 1.6-4.8 0-8.2-1.6-2.4-1-3.1-2.5l-.3-1q-1.3-4.6 0-9.2" vector-effect="non-scaling-stroke"/><path fill="#6b6750" d="m15.6 10.4 6.4-.3q-.7 2.4-3.6 1.2h-.1l-5.4.1q1.8.1 2.7-1m0 0 2.7.9z"/><path fill="none" stroke="#000" stroke-linecap="round" stroke-linejoin="round" stroke-opacity=".3" stroke-width="__RESOLUTION__" d="M24.2.4q-1.3 1.1-2.5 3.2 4.6.4 3.6 3.6-1.1 2.7-3.2-.6-1.1-1.6-.4-3h-1q-5.3.1-3.8 3 4.3-1.4 3.3 1.9h-2.8l-.6-1.9-2.2.8q-3.2 1.3 1 3h0l2.7.9h.1q2.9 1.2 3.6-1.2m-3.7 1.2-5.4.1m3.9-4.8" vector-effect="non-scaling-stroke"/></g></defs><g clip-path="url(#a)"><use xlink:href="#b" width="32.8" height="28.9" transform="translate(1 1)"/></g></svg>