<svg xmlns="http://www.w3.org/2000/svg" xmlns:xlink="http://www.w3.org/1999/xlink" width="41" height="46" viewBox="0 0 41 46"><defs><clipPath id="a"><path d="M1 1h39v44H1z"/></clipPath><g id="b"><path fill="#c3ad69" d="M.7 14 26.7.4h3.9l7.6 3.7-10.6 5.6-2 .1.5.8-9.4 5-1.3 1.4-1-.3-3.8 2z"/><path fill="#b59e55" d="m.7 14 9.9 4.8-.2 3.3v.1l-5.7.9-2.1-2.7H.5z"/><path fill="#785c2e" d="M10.6 18.8v-.1l3.9-2 .9.3 1.3-1.5 9.4-4.9h.1l.5 2.9.9-3.8 10.6-5.6.2.1-.1 2.4-4.4 3 1.4 5.4q.4 1.6-4.2 2.6l-1.6-.5-2.2.2-3 1.1-1.8 3.3-6.8 2.1-.1.2-5.2-1.9z"/><path fill="#a38c47" d="m26.1 10.6-.4-.8 1.9-.1-1 3.8-.4-2.9z"/><path fill="#5f5429" d="m10.4 22.2 5.2 1.8.1-.2 6.8-2.2 1.8-3.2 3-1.1 2.2-.2 1.6.5q4.6-1 4.2-2.6l-1.4-5.4 4.4-3L36.8 29 9 43.4h-.1z"/><path fill="#998843" d="M10.4 22.2 8.9 43.4 1.4 39Q.3 31.8.4 20.3l2.2.1 2.1 2.7z"/><path fill="none" stroke="#d0c193" stroke-linecap="round" stroke-linejoin="round" stroke-width="__RESOLUTION__" d="M30.6.4h-4L.7 14l-.1 6.3Q.3 31.9 1.4 39" vector-effect="non-scaling-stroke"/></g></defs><g clip-path="url(#a)"><use xlink:href="#b" width="38.4" height="43.4" transform="translate(1 1)"/></g></svg>