<svg xmlns="http://www.w3.org/2000/svg" xmlns:xlink="http://www.w3.org/1999/xlink" width="89" height="150" viewBox="0 0 89 150"><defs><g id="c"><path fill="#62644a" d="M0 106.2V5l51-5v80.3l-5.6 2.9zm22.2-95-.4.2h.3z"/><path fill="#edeffc" d="M22.2 11.1v.3h-.4z"/><path fill="none" stroke="#000" stroke-linecap="round" stroke-linejoin="round" stroke-width="__RESOLUTION__" d="m0 106.2 45.4-23h0l5.6-2.9m-5.6 2.9" vector-effect="non-scaling-stroke"/></g><g id="b"><path fill="#7b7c5c" d="M86 9.4v.4q-.5 2.6-4.2 4.5T73 16.4l-1.8.1L66 16v-.2l-.2.1-4.4 2.2v.1l-.7.3-45.8 23.3-2.7 1.4-3.8 1.9-2.8-1.4-4.9-2.5L0 41 80.5 0 86 2.8z"/><path fill="#50523d" d="m0 40.9.7.4 4.9 2.5L8.5 45v102.5L0 143.4zM66 16l5.3.5h1.8V119h-1.8l-5.5-.5V16z"/><path fill="#62644a" d="m8.4 45.1 3.8-1.9.5-.3 45.5-23 2.5-1.4.7-.3 4.4-2.3v102.6l-6 3-6.6-75H16.7l-4.3 99.1-4 2zm64.7-28.7q5-.2 8.7-2 3.8-2 4.2-4.6V112q-.1 3-4.2 5-3.7 1.8-8.7 2.1z"/><path fill="#a6a98b" d="m12.2 43.2 2.7-1.4 45.8-23.3.6-.3h.1l-.7.3-2.6 1.3L12.8 43z"/><path fill="#8e936c" d="M65.8 16h.2z"/><path fill="none" stroke="#000" stroke-linecap="round" stroke-linejoin="round" stroke-width="__RESOLUTION__" d="M86 9.8v-.4M80.4 0 0 40.9m8.4 4.2 3.8-1.9 2.7-1.4 45.8-23.3.6-.3h.1l4.4-2.3.3-.1m-.1.2 5.3.5h1.8q5-.4 8.7-2.2 3.8-1.9 4.2-4.5m0 102q-.1 3-4.2 5-3.7 1.8-8.7 2.1h-1.8l-5.5-.5-6 3m-47.4 24.1-4 2M66 16h-.2M86 9.3V5.8m0 4v80.9m0 .1v21.1M0 143.4V41m65.8-25" vector-effect="non-scaling-stroke"/></g><clipPath id="a"><path d="M1 1h87v148H1z"/></clipPath></defs><g clip-path="url(#a)"><g transform="translate(60.7 106.45)"><use xlink:href="#b" width="86" height="147.6" transform="translate(-59.7 -105.45)"/><use xlink:href="#c" width="51" height="106.2" transform="translate(-47 -66.25)"/></g></g></svg>