<svg xmlns="http://www.w3.org/2000/svg" xmlns:xlink="http://www.w3.org/1999/xlink" width="45" height="22" viewBox="0 0 45 22"><defs><clipPath id="a"><path d="M1 1h43v20H1z"/></clipPath><g id="b"><path fill="#a28453" d="m38 1.8-1.2 5.8-.1.4v.1l-.5.1h-.5l.8-3.6h-1.3l.3-.3 1.9-2.2v1zm-5.5 8.8-5.5.2.3-.3.5-.6q-.2-1.2.8-1l.5-1.2zm-6 .4q-.6.3-.6.8.3 1-6.1 1.5 1-1.4 2.7-1.8z"/><path fill="#d6bc83" d="M35.8 8.3h-.4q-.7 0-1.2 1-.7 1.1-1.7 1.3L29 7.8l.6-.9 5.5-2.2 1.3-.1zM35.3 6l-5.1 1.3 3.1.1 1.2-.4z"/><path fill="#d6c6ad" d="m27 10.8-.3.1.6-.4z"/><path fill="#23a164" d="m26.7 10.9-.2.1-4 .5q-1.6.4-2.7 1.8l-1.5.1-1.8.2-8.3 5.9H8L4.9 18 0 14.8 28.7 0 34 3.5l1.5.8-.3.4-5.6 2.2-.5.8-.5 1.2q-1-.2-.8 1l-.6.6z"/><path fill="#b89d72" d="m37.4 2.1.6-.4-.6 1.4z"/><path fill="#ddcb8e" d="m35.3 6-.8 1-1.2.4-3.1-.1z"/><path fill="none" stroke="#797d20" stroke-linecap="round" stroke-linejoin="round" stroke-width="__RESOLUTION__" d="m42.8.2-3.1 1.2q-1.8-.2-1.7.4l-1.2 5.8-.1.4v.1l-.5.1m-.5 0h-.4q-.6 0-1.1 1.1-.7 1.1-1.7 1.3l-5.5.2-.3.1-.2.1q-.6.3-.6.8.3 1-6.1 1.5l-1.5.1-1.8.2" vector-effect="non-scaling-stroke"/></g></defs><g clip-path="url(#a)"><use xlink:href="#b" width="42.8" height="19.6" transform="translate(1 1)"/></g></svg>