<svg xmlns="http://www.w3.org/2000/svg" xmlns:xlink="http://www.w3.org/1999/xlink" width="231" height="98" viewBox="0 0 231 98"><defs><g id="h"><path fill="#d9b562" d="m6.9.4.8.5.9.7.6 1.3V4l-.4 1.3-.7.8-1.4.6-1.3.2-.4-.2-.8-.3-.2-.2.9-.2 1.6-.8q.8-.5 1.1-1.5t0-1.8zm-2.7 6 .8.3.4.2.3.5-.2.9.3.7-.1.3-1 1.4-.4-.3-.6.1Q5 9.5 5 7.7q.1-.8-.5-1z"/><path fill="#f7e29f" d="m6.9.4.7 1.5q.3.9 0 1.8T6.5 5.2L4.9 6l-.9.2.2.2.3.3q.6.2.5 1 .1 1.9-1.3 2.8h-.1l-.4.5v.7l.1.6 1.1.5q1.1-.4.5-1.7l-.2-.4-.4-.3-.6.1h-.1l-.4.5h-.1l-.8-.6H0l.1-.5.4-.6.2-.1 1-.1.3-1 .1-.6-.1-.3q-.3-1 .5-1.5l.8-.2L3 4.4q-.2-1 0-1.9l.8-1.2q.5-.8 1.4-1zM5.7 7.5l.3-.2h.7q.9.4.8 1.4-.1.7-.7.8h-.3L5.8 9l-.2-.7zm-.3-4.2q-.4.8.2 1.5l.3.3h.4q1-.4 1-1.5 0-.8-.5-1.2-1 0-1.4.9M5 1.7v-.2l-.7-.1q-.5.5-.3 1l.3.4.7-.3zM4 6.2l-.6-.7zM2.3 7.5l.4-.5q.5-.6 1.3-.7-.7.1-1.3.7zm0 2.9L2 9.8l-.1-.7.1.8z"/><path fill="none" stroke="#b8842e" stroke-linecap="round" stroke-linejoin="round" stroke-width="__RESOLUTION__" d="m5.4 6.9 1.3-.2L8 6.1l.7-.8.4-1.3V2.9l-.6-1.3-.9-.7-.8-.5m-1 6.8h.8q.9.4.8 1.4-.1.7-.7.8h-.3L5.8 9l-.1.3-1 1.4.3.4q.5 1.3-.6 1.7m1.1-4.5.2-.9" vector-effect="non-scaling-stroke"/><path fill="none" stroke="#cfa647" stroke-linecap="round" stroke-linejoin="round" stroke-width="__RESOLUTION__" d="m4 6.2.2.2.8.3.4.2.3.5.3-.2m-1.6 5.6-1-.6-.2-.5V11h-.1l-.8-.6H0l.1-.5.4-.6.2-.1 1-.1.3-1 .1-.6-.1-.3q-.3-1 .5-1.5l.8-.2L3 4.4q-.2-1 0-1.9l.8-1.2q.5-.8 1.4-1h1.7M5.9 9l-.4-.7m-2-2.8.6.7m0 0q-.7.2-1.3.8l-.5.5m1.5 3h-.1l-.4.5m.5-.5.6-.1.5.3m-3-1.6.2.8.3.5" vector-effect="non-scaling-stroke"/></g><g id="b"><path fill="#805c24" d="m21 11.5-.3-.6 1.4-.3Q28.7 4 32.1 0h1.6v2.4h-.9l-4.7 10-2.4 1.9-1.5 1.8-.9.3q1.5.7 2.4.5l1-.3-.2 1-1.1.8-.8.6 1.9 4.1-3.1 2.8-.7.7-.6-.5 1.4-3-1.8-2.2.2-.1 1.3.8-2-4.3-4.2 1.9h-.2l-1.2.2-2.6.6-2.8.5-1.2.3-.9.1.2-1.3-2.1.3-3.2.4 10.1-3.9 1.7 1zm1.1 5.4h.2zM11.3 9.8l-2.4.7-1.9.6-2 .6-1.2.4-2.5.7-1.2.4 2-3.5 8.6-3.8L13 9.3z"/><path fill="#5b3d1e" d="M33.7.5V1zm-.1 1.9q-.4 5.4-2.7 12l-.2.8-1.4.5-1.9.7-.5.1-.2.1-1 .3q-.9.2-2.4-.4l.9-.4 1.5-1.8 2.4-1.9 4.7-10zM22 20.8l.2-.2 1 1z"/><path fill="#684522" d="m22 20.8-.5-.4-1.4-.4-1.4-.4-1.7-.4 4.3-1.9 1.9 4.3-1-1zm.2-3.8h.2z"/><path fill="none" stroke="#2d1e0f" stroke-linecap="round" stroke-linejoin="round" stroke-width="__RESOLUTION__" d="m29.3 15.7-1.9.7-.5.1m-1.5 1.9-.8.6m-1.2 7-.7.6-.6-.5m-.2-5.3-.4-.4m-1.4-.4-1.4-.4m-3.1-.2L13 20m-2.8.5-1.2.3m-2.8-1-3.2.4m20.2 1.5-1-1-.2.1zM8.9 10.5l-1.9.6m-2 .6-1.2.4m-2.5.7-1.2.4m12.9-4-1.7.6" vector-effect="non-scaling-stroke"/></g><g id="a"><path fill="#402b15" d="m11.4 15.8-2.2-7L.7 0l10.1 3.6q.2 1 1.4 1.9 1.7 1 5.5 1.6l5.2 2.7L33 17.3l7.1 10.5-1 5.1-4 5.5-1.3-12.6-2.2 1.8V31l-4.2-5-.1-.1-3.2-3-2.1 3-6.1-6.4-2.1 4.2zm12.2 26.1.3-.1q2-1.3 1.4-4.9L26 40l-1.2-6.3 2.1-6.9 2.6 5.8-.4 1-.6 10.6-3-.7-1.9-.7-.2-.5z"/><path fill="#52351b" d="M39.2 33v14.3l-.1.2H35l-2.2-6.2-2.3 5.9h-.1V36l-1.3-2.7.4-.9-2.6-5.8-2.1 6.9 1.2 6.3-.7-3q.6 3.5-1.4 4.8l-.2.1v-5.9q-1.6.9-3.7-5.5l-1.4-4.6V27l-3.2 6.3-1.4 2.9-2.6-4.6v-16l2.5 7.9 2.1-4.2 6.1 6.4 2-3 3.3 3 .1.1 4 5.1v-3.4l2.3-1.8 1.3 12.6zm0 14.6-.1 7.8-3.7 3.4-.1-.7-.1-.7-.4-3.4-.3-.3-1.1-6.2H35zm-28.6-6.7.3-3.2 6 3.1.6.3-.1.5 2.1 1 2 .8 1.1.5 1.1.5 1.5.5-1.5-.5v-1.6l1.9.7-.4 1.4 5.3 2.4h.1l-.1.1h.6l1.4.7L32 50l-1 5-3 .4-2.5-3.9-.4-1.4v-.5L24 49l-.2.1h-.1l-1.3 3.4-1.5-6.4-1.9 3.7-.5-2.6-.2.7-4-1.7-3.7 4.8zM27 47.3h3.3zm7.2 1.6 2.5 3.6zm-20.1-4.3-.7-2.9-2.6.5 2.6-.5zm9.1 2.6 2.2-.8.6 2.8-.6-2.8z"/><path fill="#684522" d="M39.2 47.3v.2H39zm-.1 8 .1 14-.9 1.8-1.4.4-2.2.1q-1-.1-1.5-.8-1.3-1.6-.6-3.7l1.1-3.6 1.6-5.5v.7zm-21.4 27q-.3-.7-1.3-1.3l-.1-.2-1.8-.8-.3-.1-1.5-.5-.9-.3-1.4-.3-.9-.2h-.2l5.3.8-1.2-2 7.6-6-.5 5.2zm-13.2-6v-.7q-.4-.5-1.7-.7H.4l3.5-3.5h2.5l2.4-2.3-.9 2.4H7zm3.5-15 2.6-20.5.1 10.2 3.7-4.8 4 1.7-1.1 3.6-4.2 1.1zm2.8-23.6.6-5.9 2.6 4.6 1.4-2.9 1.3 6.9.1.4zm12.6 4.6.3.4v1.6l-1.2-.5zm2.1 1.2 3 .7.6-10.7 1.3 2.7v11.1l-5.3-2.4zm5 3.8 2.3-5.9 2.2 6.1h-1.7l-.4-2.3-.4 2.3H31zl.4.1 1.6.1v.6l-1.6-.7h-.5zm4 6.4.3.3.3 3.4zm-4.6-12 .6 3.2zm-4.3 9.7 2.4 4 3.1-.5 1-5v.6l-1 5.1-1.9 7.8h-.5l-3 5q.6-1.2.7-2.6 0-.8-.8-1.1l.4-1.3q.6-2 .4-3.9-.1-4-.8-8M22 61.3h-3l.1-1 .7-3.5-.7-6.9 1.8-3.8 1.5 6.4 1.3-3.5v.1h.3l1.1.4v.5zM17.4 41l1.8-7.2 1.6 5 .6 4.5-2-.9-2.1-.9zl2 1.4z"/><path fill="#805c24" d="m36.8 71.5-4.4 8.7v-6.3l-8.1 6.4v-4.9l-3.9 1.2.5-5.1-7.5 5.8 1 2-5.1-.7H9l-.2-.1h-.2l-1 .2-1.4-.7-1.4.5-1.7.5-2.6.7 3.8-3.3v-.1L7 71.5h.9l.9-2.4-2.4 2.4H3.9L.4 74.9H0L3.4 69h1.4l3.1-7.7 5-8.7 4.3-1-4.3 12.2 2-.4 3.9-3.8.3.6-.1 1.1h2.9l1 5.2h.5l2.1-1.8q.8.3.8 1.1-.1 1.5-.7 2.7l3-5h.5l1.9-7.9 1-5.1 2.4 3.1.7 3.7.1.7-1.6 5.4-1 3.7q-.8 2.1.5 3.7.5.7 1.4.8zm-4.2-24.1.3-2.3.4 2.3z"/><path fill="#8b6629" d="m32.4 80.2-4.3 8.5-1.5-.9-.7-.4-1.4-.9-1-.6-1.6-.9-.5-.4-1.1-.6-.6-.4-.7-.4h-1.2l-.2-1 2.8-5.6 3.9-1.2v5l8-6.5z"/><path fill="#5b3d1e" d="m23.7 41.8-.3.5-.9 1.5-1.1-.5-.6-4.5-1.7-5-1.7 7.2-.6-.3v-.5l-1.4-6.8 3.2-6.3v-1.3l1.4 4.6q2.1 6.4 3.6 5.5zm8.8 6.3V48l.1-.6h.8l1.1 6.2-2.4-3.1v-.6zm-6.9 16.7-2.1 1.8H23l-1.1-5.2L25.2 50l.3 1.4q.7 4 .8 8.1.1 2-.4 4zm-6.4-4.5-.3-.6-3.9 3.8-2 .4 4.3-12.2 1.1-3.7.2-.7.5 2.6.1.1.7 6.9zM18 35.8l-1.2 4.5z"/><path fill="none" stroke="#402b15" stroke-linecap="round" stroke-linejoin="round" stroke-width="__RESOLUTION__" d="m26.6 87.9-.7-.4m-8-4.2-.3-1" vector-effect="non-scaling-stroke"/><path fill="none" stroke="#684522" stroke-linecap="round" stroke-linejoin="round" stroke-width="__RESOLUTION__" d="m24.5 86.5-1-.6m-1.6-.9-.5-.4m-7-4.6-.3-.1m-11.4-5h-.8" vector-effect="non-scaling-stroke"/><path fill="none" stroke="#52351b" stroke-linecap="round" stroke-linejoin="round" stroke-width="__RESOLUTION__" d="m20.3 84-.6-.4m-9.4-4.8-.9-.2m-6.1.4-2.7.7h0" vector-effect="non-scaling-stroke"/><path fill="none" stroke="#402b15" stroke-linecap="round" stroke-linejoin="round" stroke-width="__RESOLUTION__" d="m16.2 81-.1-.2m-3.6-1.4-.9-.3m-4-.4L6.4 78l-1.4.5m-.5-2.1v-.8" vector-effect="non-scaling-stroke"/><path fill="none" stroke="#6c0" stroke-linecap="round" stroke-linejoin="round" stroke-width="__RESOLUTION__" d="M30.4 47.2h.1l.4.1 1.6.1H35l4.1.1h0m-6.7.5-1.4-.7h-3.8m5.2.8V48M17 40.7l.5.3 2 1.4-2.1-.9m4.1 1.8 1.1.5 1.1.5 1.5.5 5.3 2.4M17 40.7l-6-3.1m8.5 4.8 2 .9" vector-effect="non-scaling-stroke"/><path fill="none" stroke="#b07004" stroke-linecap="round" stroke-linejoin="round" stroke-width="__RESOLUTION__" d="m30.4 44.8-.6-3.1M37 52.5l-2.5-3.6m-17.6-8.6 1.2-4.5m-7 6.5 2.6-.5.6 2.8m12 4.5-.7-2.7-2.2.8" vector-effect="non-scaling-stroke"/><path fill="#a6702f" d="m18.5 41.6-.2.1z"/><path fill="#eba607" d="m11.9 36.9.4-.5.4-.3.8-.2q2 .9 2.7 2.3l.4 1.2-.4.3-.7.1-2.7-1.2z"/><path fill="#ad7901" d="m12.3 36.4-.4.5 1 1.6 2.5 1.3-.1.1-1.6 1.8q-2.7-1.5-3.1-3.4-2-1.1-2.6-2.7l1.8-2.2v2zm-.4.5-1.3 1.4zm6.7 4.8h.7l.6 1 1.4.8v.8l-.8.5q-3-.4-3.4-1.9l1.3-1.2z"/><path fill="#9b6202" d="m15.5 39.8.7-.1.1 1.3 2.1.6v.1l-1.3 1.2h-.9q-2.1-.1-2.5-1.2l1.6-1.8z"/><path fill="#d1af3f" d="m16.3 39.7.3-.3q2.8.5 4.1 2.6l-1.4-.4h-.9l-2-.6zM13.5 36l-.8.2-.4.3-2.5-1v-2l.1-.1 1.6-.2q2.2 1 2 2.8"/><path fill="#cc9c2d" d="m19.3 41.7 1.4.3 1.8.2-1.2 1.1v.3l-1.4-.9z"/><path fill="none" stroke="#8e5b09" stroke-linecap="round" stroke-linejoin="round" stroke-width="__RESOLUTION__" d="m12.3 36.4-.4.5-1.3 1.4q-2-1.1-2.6-2.7l1.8-2.2.1-.1 1.6-.2q2.2 1 2 2.8 2 .9 2.7 2.3l.4 1.2-.4.3h0l-.7.1-.2.1-1.6 1.8q.4 1 2.5 1.2h.9l1.3-1.2h.9l1.4.3q-1.2-2.1-4.1-2.6M13.5 36l-.8.2-.4.3m1.4 5.3q-2.7-1.5-3.1-3.4m6.5 4.6q.3 1.5 3.4 1.9l.8-.5v-1l1.2-1.1-1.8-.2" vector-effect="non-scaling-stroke"/><path fill="#cc9c2d" d="m30.9 45.4-.6.5-3-.1-1.9-1.1.2-.6v-.5l.6-.5q3.3.1 4.9 2zm4.1 1.3 1.2-.5q1.7-.7 2.8.4l-.4 1-.2.1-2 .1z"/><path fill="#ad7901" d="m30.4 45.9.5-.5 1 1.2 2.3.3v.1l-.3 1.8q-2 .9-3.9-.7l.3-2zl-3-.1-1.9-1.1-.2 1.6q1.4 1.6 4.8 1.8l.3-2zm3.6 2.9.4-1.7.1-.2.6-.2 1.3 1.1 2.1-.1-.4 1.6q-2.5.9-4-.5"/><path fill="#d1af3f" d="m30.9 45.4.2-.2q2.3-.6 5.1 1l-1.2.4-.6.3h-.2l-2.4-.3z"/><path fill="#9b6202" d="m26.2 43.2-.6.4v.5l-.2.5-.2 1.7q-2.3 0-4-1.6v-1.8l.1-1 1.2-.7q2.7 0 3.7 2"/><path fill="#a6702f" d="M34.3 47h-.1l.2-.1zm4.1.7h.2z"/><path fill="none" stroke="#8e5b09" stroke-linecap="round" stroke-linejoin="round" stroke-width="__RESOLUTION__" d="m30.4 45.9.5-.5.2-.2q-1.7-2-4.9-2l-.6.4v.5l-.2.5-.2 1.7q1.4 1.6 4.8 1.8l.3-2zm-.3 2.2q1.8 1.6 4 .6l.3-1.7.1-.1.6-.2 1.2-.5q1.7-.7 2.8.4l-.4 1-.2.1-.4 1.6q-2.5.9-4-.5m2.2-2.6q-2.8-1.6-5.1-1m-8.6-4q2.7 0 3.7 2m-1 3.1q-2.3 0-4-1.6v-1.8" vector-effect="non-scaling-stroke"/><path fill="#825102" d="m27 27.8.3-.3.2.1q.5 3.3-.6 4.6l-1.1-.3-.1-.2-.4-1.4q-.4-1.4 1.5-2.4zm-.6.4.4-.3zv.1l.5-.5z"/><path fill="#a6702f" d="m27.3 27.6-.3.2-.2.1zm-.8.8.5-.4zm-.7 3.4v.2z"/><path fill="#9b6202" d="M27 32.2q.5 1.7-.7 3.3l-1.4-.2-.1-.1-.3-.5-.2-.2q-.3-2 1-4.2l.4 1.4v.2zm-2.2 7.3q-.2 2-1.3 3.4l-1.2-.1h-.6l1.3-1.1.3-2.6.4.2z"/><path fill="#ad7901" d="M26.3 35.5q-.3 2.8-1.5 4l-1.1-.2.8-1.5.3-2.6h.1z"/><path fill="#d28402" d="M21.8 42.8h-.2l-.5-1.1q.2-2.3 1.6-3.1l.3.5h.3l-.4 2.6z"/><path fill="#b97402" d="M22.7 38.6q.2-2.8 1.6-4.1l.2.2.3.4-.3 2.6-.8 1.6-.4-.1-.3-.1z"/><path fill="none" stroke="#8e5b09" stroke-linecap="round" stroke-linejoin="round" stroke-width="__RESOLUTION__" d="m27 27.8-.2.1-.4.4m.4-.4.4-.4m-.2 4.7q.5 1.7-.7 3.3-.3 2.8-1.5 4-.2 2-1.3 3.4l-1.2-.1m-1.2-1.1q.2-2.3 1.6-3.1.2-2.8 1.6-4.1-.3-2 1-4.2-.4-1.4 1.5-2.4m-1 4-.1-.2-.4-1.4m.4 1.6 1.3.3m-2.2 3 1.4.3m-1.5-.4-.3-.4-.2-.2m-1.6 4.1.3.5h.3l.4.2 1.1.3" vector-effect="non-scaling-stroke"/></g><g id="e"><path fill="#805c24" d="m.1 17.8 5.5-3.6.8-1.3 2.8-1.1 5-6.4h1.9L20.2 0l-1.6 5.9-1.4 1.9h-1.7l-3.4 4.8-.9 2-6.5 3.5h-.5L3 18l-2.3-.1z"/><path fill="#684522" d="M18.7 5.9 18 7.8h-.6L15 16.6l-.1.1-.4.3-1.8 1.1-.3.1-1.8-.3-2.2-.4-1-.2-.8.2-1.9.6h-.1l6.5-3.5.9-2 3.4-4.8h1.7z"/><path fill="none" stroke="#2d1e0f" stroke-linecap="round" stroke-linejoin="round" stroke-width="__RESOLUTION__" d="m15 16.7-.4.3m-1.8 1.1-.3.1-1.8-.3m-2.2-.4-1-.2-.8.2m-2.5.6L3 18m-2.3-.1-.7-.1" vector-effect="non-scaling-stroke"/></g><g id="f"><path fill="#805c24" d="m.1 18 6.5-3.5 3.9.3 9-4.7L26.1 1l.1-.4h.8l.2-.6.7.6H29l-.3.7.7.7-.4 1.3h-.9l-.2.8-7.7 7.5.7 8-6.5 3.6v-2l1.6-1.3-.4-1.6v-.1l1.6-3.3-7.2 2.5-1.4-.4-2.3.3-1.4.2-2.9.4z"/><path fill="#5b3d1e" d="m28 4-1.2 4-3 2.5-1 12-1.1.3-2.1.4-1.4.4-3.7.8v-1.2l6.5-3.6-.7-8zM15.7 18.2l-2 .4h-.1l-2.5-.8-1-.2 7.2-2.6z"/><path fill="none" stroke="#2d1e0f" stroke-linecap="round" stroke-linejoin="round" stroke-width="__RESOLUTION__" d="m22.8 22.6-1.1.2m-2.1.4-1.4.4m-3.7-.6v-.6m1.2-4.3-2 .4m-2.6-.8-1-.2m-3.7-.2-1.4.2m-2.9.4-2 .2" vector-effect="non-scaling-stroke"/></g><g id="g"><path fill="#b57e24" d="m17.5.8.6-.8-2.2 7.8-2.3 3.4-1 4.6-.1.1L8 21.3l-.7.8 2.7-7.4 2.1-6z"/><path fill="#b57e24" fill-opacity=".4" d="m17.5.8-5.4 8-2.2 6h.1L7.3 22l.7-.8-.4 1L5 23.7l1.8-10.5-.2-.2.9-5.1z"/><path fill="#dd9d33" d="m12.5 16 .1-.2 1-4.6L16 7.8l-2 6.1z"/><path fill="#b57e24" fill-opacity=".2" d="m5.1 9.4 2.3-1.6-.9 5.2.2.1-1.8 10.6-.4.3.7-11.5-.3-.2z"/><path fill="#b57e24" fill-opacity=".1" d="m5 9.3-.2 3 .3.1L4.5 24v1.4L.3 20.6l-.4-9 2.4-1.4.5.3z"/></g><g id="r" transform="translate(31.85 74.55)"><use xlink:href="#a" width="40.1" height="88.8" transform="translate(-27.65 -74.55)"/><use xlink:href="#b" width="33.7" height="26.7" transform="translate(-31.85 -5.5)"/><use xlink:href="#c" width="9.4" height="12.9" transform="translate(-3.25 -22.6)"/></g><g id="p" transform="translate(31.85 74.55)"><use xlink:href="#a" width="40.1" height="88.8" transform="translate(-27.65 -74.55)"/><use xlink:href="#e" width="20.2" height="18.4" transform="translate(-26.55 -10.9)"/></g><g id="n" transform="translate(31.85 74.55)"><use xlink:href="#a" width="40.1" height="88.8" transform="translate(-27.65 -74.55)"/><use xlink:href="#f" width="29.5" height="24.4" transform="translate(-28.1 -9.25)"/><use xlink:href="#c" width="9.4" height="12.9" transform="translate(-3.25 -22.6)"/></g><g id="l" transform="translate(31.85 74.55)"><use xlink:href="#a" width="40.1" height="88.8" transform="translate(-27.65 -74.55)"/><use xlink:href="#g" width="18.1" height="25.3" transform="translate(-12.2 -19.95)"/></g><g id="j" transform="translate(31.85 74.55)"><use xlink:href="#a" width="40.1" height="88.8" transform="translate(-27.65 -74.55)"/><use xlink:href="#c" width="9.4" height="12.9" transform="translate(-3.25 -22.6)"/></g><clipPath id="i"><path d="M1 1h45v96H1z"/></clipPath><clipPath id="k"><path d="M47 1h45v96H47z"/></clipPath><clipPath id="m"><path d="M93 1h45v96H93z"/></clipPath><clipPath id="o"><path d="M139 1h45v96h-45z"/></clipPath><clipPath id="q"><path d="M185 1h45v96h-45z"/></clipPath><use xlink:href="#h" id="c" width="9.4" height="12.9"/></defs><g clip-path="url(#i)"><use xlink:href="#j" width="44.4" height="95.8" transform="translate(1 1)"/></g><g clip-path="url(#k)"><use xlink:href="#l" width="44.4" height="95.8" transform="translate(47 1)"/></g><g clip-path="url(#m)"><use xlink:href="#n" width="44.4" height="95.8" transform="translate(93 1)"/></g><g clip-path="url(#o)"><use xlink:href="#p" width="44.4" height="95.8" transform="translate(139 1)"/></g><g clip-path="url(#q)"><use xlink:href="#r" width="44.4" height="95.8" transform="translate(185 1)"/></g></svg>