<?xml version="1.0"?>
<svg xmlns="http://www.w3.org/2000/svg" xmlns:xlink="http://www.w3.org/1999/xlink" width="246.8px" height="282.25px"><g transform="matrix(1, 0, 0, 1, 127.4, 187.3)"><use xlink:href="#object-0" width="37.7" height="63.2" transform="matrix(-0.5415, -0.8389, 0.6873, -0.3136, -79.55, 43.7)"/><use xlink:href="#object-1" width="41.95" height="85.3" transform="matrix(-0.0703, 0.1481, 0.1966, 0.138, -88.6, -23.05)"/><use xlink:href="#object-2" width="41.95" height="85.3" transform="matrix(-0.3173, -0.0531, -0.0521, -0.3646, -35.95, 54.65)"/><use xlink:href="#object-3" width="41.95" height="85.3" transform="matrix(0.2187, 0.0387, -0.1696, -0.2746, 16.5, 36.45)"/><use xlink:href="#object-4" width="37.7" height="63.2" transform="matrix(-0.3041, 0.4491, -0.3728, -0.4168, 55.85, 28.1)"/><use xlink:href="#object-5" width="41.95" height="85.3" transform="matrix(0.102, 0.0298, 0.0188, -0.1445, 21.7, 41.5)"/><use xlink:href="#object-6" width="41.95" height="85.3" transform="matrix(0.0632, 0.2144, -0.1856, 0.0747, 49.15, -1.75)"/><use xlink:href="#object-7" width="41.95" height="85.3" transform="matrix(-0.0424, -0.148, -0.1018, 0.142, 23.9, -34.2)"/><use xlink:href="#object-8" width="37.7" height="63.2" transform="matrix(-0.7032, 0.7645, 0.7645, 0.7032, -53.6, -123)"/><use xlink:href="#object-9" width="41.95" height="85.3" transform="matrix(-0.0675, -0.2128, 0.2398, -0.0754, -70.25, -46.25)"/><use xlink:href="#object-10" width="41.95" height="85.3" transform="matrix(-0.3713, -0.0844, -0.094, 0.4183, -2.2, -115.8)"/><use xlink:href="#object-11" width="41.95" height="85.3" transform="matrix(0.2561, 0.0556, -0.2214, 0.2539, 56.7, -69.2)"/><use xlink:href="#object-12" width="47.55" height="69.9" transform="matrix(-0.4934, 0.6707, -0.6707, -0.4934, 91.75, 12.5)"/><use xlink:href="#object-13" width="52.85" height="46.7" transform="matrix(0.1778, 0.0204, 0.0224, -0.2003, 8.8, 33.3)"/><use xlink:href="#object-14" width="52.85" height="46.7" transform="matrix(0.1235, 0.2792, -0.3146, 0.1382, 51.55, -32.15)"/><use xlink:href="#object-15" width="52.85" height="46.7" transform="matrix(-0.0831, -0.1929, -0.1657, 0.2132, 9.45, -64.7)"/><use xlink:href="#object-16" width="47.55" height="69.9" transform="matrix(-0.665, 0.2204, 0.2304, 0.6617, -8.25, -96.05)"/><use xlink:href="#object-17" width="52.85" height="46.7" transform="matrix(0.0281, -0.147, 0.1673, 0.0337, -45.8, -35.3)"/><use xlink:href="#object-18" width="52.85" height="46.7" transform="matrix(-0.1945, -0.1703, -0.1904, 0.2151, 17.7, -52.55)"/><use xlink:href="#object-19" width="52.85" height="46.7" transform="matrix(0.1349, 0.116, -0.2136, 0.0771, 33.5, -10.6)"/></g><defs><g transform="matrix(1, 0, 0, 1, 22.35, 83)" id="object-0"><path fill-rule="evenodd" fill="url(#gradient-Re5fc0ded69de2f89330d04112919fa5f)" stroke="none" d="M6.75 -19.8Q3 -26.6 0.8 -31.3Q0.35 -28.3 -0.45 -25.55Q-1.1 -28.25 -0.15 -28.7Q-4.1 -43.85 -10.2 -54.05L-1.8 -43.55Q-7.15 -65.6 -22.35 -83Q-4.4 -67.25 4.5 -47.15L1.1 -64.6Q10.7 -51.8 14 -39.5L15.35 -26.5L15.15 -21.8Q13 -28.35 9.7 -24.75L6.75 -19.8M2.25 -43.5L2.65 -47.75L-2.75 -56.15L2.25 -43.5"/><path fill-rule="evenodd" fill="#ffffff" stroke="none" d="M2.25 -43.5L-2.75 -56.15L2.65 -47.75L2.25 -43.5"/></g><radialGradient gradientTransform="matrix(0.0205, -0.0143, 0.0377, 0.0419, 5.8, -34.15)" gradientUnits="userSpaceOnUse" spreadMethod="pad" id="gradient-Re5fc0ded69de2f89330d04112919fa5f" cx="0" cy="0" r="819.2"><stop offset="0.31372549019608" stop-color="#ffef35"/><stop offset="0.49803921568627" stop-color="#ffb300"/><stop offset="0.98039215686275" stop-color="#f26200" stop-opacity="0.81176470588235"/></radialGradient><g transform="matrix(1, 0, 0, 1, -70.25, 167.75)" id="object-1"><path fill-rule="evenodd" fill="url(#gradient-Rc0df92357c142fcebc53941840c006ce)" stroke="none" d="M70.25 -167.6Q97.65 -136.1 89.7 -87.1L100.15 -110.45L102.45 -82.6Q108 -87.05 110.25 -95L111.3 -100.3Q112.25 -107.15 111.3 -115.95Q101.1 -141.7 70.25 -167.6"/></g><radialGradient gradientTransform="matrix(0.1308, -0.0981, 0.1295, 0.0488, 73.4, -57.3)" gradientUnits="userSpaceOnUse" spreadMethod="pad" id="gradient-Rc0df92357c142fcebc53941840c006ce" cx="0" cy="0" r="819.2"><stop offset="0.31372549019608" stop-color="#ffffff"/><stop offset="0.41960784313725" stop-color="#f5fe43"/><stop offset="0.5843137254902" stop-color="#fe8001" stop-opacity="0.85098039215686"/><stop offset="1" stop-color="#d94b00" stop-opacity="0"/></radialGradient><g transform="matrix(1, 0, 0, 1, -70.25, 167.75)" id="object-2"><path fill-rule="evenodd" fill="url(#gradient-R47f62a4227de1f52d99fccb7c99998ce)" stroke="none" d="M70.25 -167.6Q97.65 -136.1 89.7 -87.1L100.15 -110.45L102.45 -82.6Q108 -87.05 110.25 -95L111.3 -100.3Q112.25 -107.15 111.3 -115.95Q101.1 -141.7 70.25 -167.6"/></g><radialGradient gradientTransform="matrix(0.1308, -0.0981, 0.1295, 0.0488, 73.4, -57.3)" gradientUnits="userSpaceOnUse" spreadMethod="pad" id="gradient-R47f62a4227de1f52d99fccb7c99998ce" cx="0" cy="0" r="819.2"><stop offset="0.31372549019608" stop-color="#ffffff"/><stop offset="0.41960784313725" stop-color="#ffff43"/><stop offset="0.5843137254902" stop-color="#ffbc01" stop-opacity="0.85098039215686"/><stop offset="1" stop-color="#ff8700" stop-opacity="0"/></radialGradient><g transform="matrix(1, 0, 0, 1, -70.25, 167.75)" id="object-3"><path fill-rule="evenodd" fill="url(#gradient-Rc0df92357c142fcebc53941840c006ce)" stroke="none" d="M70.25 -167.6Q97.65 -136.1 89.7 -87.1L100.15 -110.45L102.45 -82.6Q108 -87.05 110.25 -95L111.3 -100.3Q112.25 -107.15 111.3 -115.95Q101.1 -141.7 70.25 -167.6"/></g><radialGradient gradientTransform="matrix(0.1308, -0.0981, 0.1295, 0.0488, 73.4, -57.3)" gradientUnits="userSpaceOnUse" spreadMethod="pad" id="gradient-Rc0df92357c142fcebc53941840c006ce" cx="0" cy="0" r="819.2"><stop offset="0.31372549019608" stop-color="#ffffff"/><stop offset="0.41960784313725" stop-color="#f5fe43"/><stop offset="0.5843137254902" stop-color="#fe8001" stop-opacity="0.85098039215686"/><stop offset="1" stop-color="#d94b00" stop-opacity="0"/></radialGradient><g transform="matrix(1, 0, 0, 1, 22.35, 83)" id="object-4"><path fill-rule="evenodd" fill="url(#gradient-Re5fc0ded69de2f89330d04112919fa5f)" stroke="none" d="M6.75 -19.8Q3 -26.6 0.8 -31.3Q0.35 -28.3 -0.45 -25.55Q-1.1 -28.25 -0.15 -28.7Q-4.1 -43.85 -10.2 -54.05L-1.8 -43.55Q-7.15 -65.6 -22.35 -83Q-4.4 -67.25 4.5 -47.15L1.1 -64.6Q10.7 -51.8 14 -39.5L15.35 -26.5L15.15 -21.8Q13 -28.35 9.7 -24.75L6.75 -19.8M2.25 -43.5L2.65 -47.75L-2.75 -56.15L2.25 -43.5"/><path fill-rule="evenodd" fill="#ffffff" stroke="none" d="M2.25 -43.5L-2.75 -56.15L2.65 -47.75L2.25 -43.5"/></g><radialGradient gradientTransform="matrix(0.0205, -0.0143, 0.0377, 0.0419, 5.8, -34.15)" gradientUnits="userSpaceOnUse" spreadMethod="pad" id="gradient-Re5fc0ded69de2f89330d04112919fa5f" cx="0" cy="0" r="819.2"><stop offset="0.31372549019608" stop-color="#ffef35"/><stop offset="0.49803921568627" stop-color="#ffb300"/><stop offset="0.98039215686275" stop-color="#f26200" stop-opacity="0.81176470588235"/></radialGradient><g transform="matrix(1, 0, 0, 1, -70.25, 167.75)" id="object-5"><path fill-rule="evenodd" fill="url(#gradient-Rc0df92357c142fcebc53941840c006ce)" stroke="none" d="M70.25 -167.6Q97.65 -136.1 89.7 -87.1L100.15 -110.45L102.45 -82.6Q108 -87.05 110.25 -95L111.3 -100.3Q112.25 -107.15 111.3 -115.95Q101.1 -141.7 70.25 -167.6"/></g><radialGradient gradientTransform="matrix(0.1308, -0.0981, 0.1295, 0.0488, 73.4, -57.3)" gradientUnits="userSpaceOnUse" spreadMethod="pad" id="gradient-Rc0df92357c142fcebc53941840c006ce" cx="0" cy="0" r="819.2"><stop offset="0.31372549019608" stop-color="#ffffff"/><stop offset="0.41960784313725" stop-color="#f5fe43"/><stop offset="0.5843137254902" stop-color="#fe8001" stop-opacity="0.85098039215686"/><stop offset="1" stop-color="#d94b00" stop-opacity="0"/></radialGradient><g transform="matrix(1, 0, 0, 1, -70.25, 167.75)" id="object-6"><path fill-rule="evenodd" fill="url(#gradient-R47f62a4227de1f52d99fccb7c99998ce)" stroke="none" d="M70.25 -167.6Q97.65 -136.1 89.7 -87.1L100.15 -110.45L102.45 -82.6Q108 -87.05 110.25 -95L111.3 -100.3Q112.25 -107.15 111.3 -115.95Q101.1 -141.7 70.25 -167.6"/></g><radialGradient gradientTransform="matrix(0.1308, -0.0981, 0.1295, 0.0488, 73.4, -57.3)" gradientUnits="userSpaceOnUse" spreadMethod="pad" id="gradient-R47f62a4227de1f52d99fccb7c99998ce" cx="0" cy="0" r="819.2"><stop offset="0.31372549019608" stop-color="#ffffff"/><stop offset="0.41960784313725" stop-color="#ffff43"/><stop offset="0.5843137254902" stop-color="#ffbc01" stop-opacity="0.85098039215686"/><stop offset="1" stop-color="#ff8700" stop-opacity="0"/></radialGradient><g transform="matrix(1, 0, 0, 1, -70.25, 167.75)" id="object-7"><path fill-rule="evenodd" fill="url(#gradient-Rc0df92357c142fcebc53941840c006ce)" stroke="none" d="M70.25 -167.6Q97.65 -136.1 89.7 -87.1L100.15 -110.45L102.45 -82.6Q108 -87.05 110.25 -95L111.3 -100.3Q112.25 -107.15 111.3 -115.95Q101.1 -141.7 70.25 -167.6"/></g><radialGradient gradientTransform="matrix(0.1308, -0.0981, 0.1295, 0.0488, 73.4, -57.3)" gradientUnits="userSpaceOnUse" spreadMethod="pad" id="gradient-Rc0df92357c142fcebc53941840c006ce" cx="0" cy="0" r="819.2"><stop offset="0.31372549019608" stop-color="#ffffff"/><stop offset="0.41960784313725" stop-color="#f5fe43"/><stop offset="0.5843137254902" stop-color="#fe8001" stop-opacity="0.85098039215686"/><stop offset="1" stop-color="#d94b00" stop-opacity="0"/></radialGradient><g transform="matrix(1, 0, 0, 1, 22.35, 83)" id="object-8"><path fill-rule="evenodd" fill="url(#gradient-Re5fc0ded69de2f89330d04112919fa5f)" stroke="none" d="M6.75 -19.8Q3 -26.6 0.8 -31.3Q0.35 -28.3 -0.45 -25.55Q-1.1 -28.25 -0.15 -28.7Q-4.1 -43.85 -10.2 -54.05L-1.8 -43.55Q-7.15 -65.6 -22.35 -83Q-4.4 -67.25 4.5 -47.15L1.1 -64.6Q10.7 -51.8 14 -39.5L15.35 -26.5L15.15 -21.8Q13 -28.35 9.7 -24.75L6.75 -19.8M2.25 -43.5L2.65 -47.75L-2.75 -56.15L2.25 -43.5"/><path fill-rule="evenodd" fill="#ffffff" stroke="none" d="M2.25 -43.5L-2.75 -56.15L2.65 -47.75L2.25 -43.5"/></g><radialGradient gradientTransform="matrix(0.0205, -0.0143, 0.0377, 0.0419, 5.8, -34.15)" gradientUnits="userSpaceOnUse" spreadMethod="pad" id="gradient-Re5fc0ded69de2f89330d04112919fa5f" cx="0" cy="0" r="819.2"><stop offset="0.31372549019608" stop-color="#ffef35"/><stop offset="0.49803921568627" stop-color="#ffb300"/><stop offset="0.98039215686275" stop-color="#f26200" stop-opacity="0.81176470588235"/></radialGradient><g transform="matrix(1, 0, 0, 1, -70.25, 167.75)" id="object-9"><path fill-rule="evenodd" fill="url(#gradient-Rc0df92357c142fcebc53941840c006ce)" stroke="none" d="M70.25 -167.6Q97.65 -136.1 89.7 -87.1L100.15 -110.45L102.45 -82.6Q108 -87.05 110.25 -95L111.3 -100.3Q112.25 -107.15 111.3 -115.95Q101.1 -141.7 70.25 -167.6"/></g><radialGradient gradientTransform="matrix(0.1308, -0.0981, 0.1295, 0.0488, 73.4, -57.3)" gradientUnits="userSpaceOnUse" spreadMethod="pad" id="gradient-Rc0df92357c142fcebc53941840c006ce" cx="0" cy="0" r="819.2"><stop offset="0.31372549019608" stop-color="#ffffff"/><stop offset="0.41960784313725" stop-color="#f5fe43"/><stop offset="0.5843137254902" stop-color="#fe8001" stop-opacity="0.85098039215686"/><stop offset="1" stop-color="#d94b00" stop-opacity="0"/></radialGradient><g transform="matrix(1, 0, 0, 1, -70.25, 167.75)" id="object-10"><path fill-rule="evenodd" fill="url(#gradient-R47f62a4227de1f52d99fccb7c99998ce)" stroke="none" d="M70.25 -167.6Q97.65 -136.1 89.7 -87.1L100.15 -110.45L102.45 -82.6Q108 -87.05 110.25 -95L111.3 -100.3Q112.25 -107.15 111.3 -115.95Q101.1 -141.7 70.25 -167.6"/></g><radialGradient gradientTransform="matrix(0.1308, -0.0981, 0.1295, 0.0488, 73.4, -57.3)" gradientUnits="userSpaceOnUse" spreadMethod="pad" id="gradient-R47f62a4227de1f52d99fccb7c99998ce" cx="0" cy="0" r="819.2"><stop offset="0.31372549019608" stop-color="#ffffff"/><stop offset="0.41960784313725" stop-color="#ffff43"/><stop offset="0.5843137254902" stop-color="#ffbc01" stop-opacity="0.85098039215686"/><stop offset="1" stop-color="#ff8700" stop-opacity="0"/></radialGradient><g transform="matrix(1, 0, 0, 1, -70.25, 167.75)" id="object-11"><path fill-rule="evenodd" fill="url(#gradient-Rc0df92357c142fcebc53941840c006ce)" stroke="none" d="M70.25 -167.6Q97.65 -136.1 89.7 -87.1L100.15 -110.45L102.45 -82.6Q108 -87.05 110.25 -95L111.3 -100.3Q112.25 -107.15 111.3 -115.95Q101.1 -141.7 70.25 -167.6"/></g><radialGradient gradientTransform="matrix(0.1308, -0.0981, 0.1295, 0.0488, 73.4, -57.3)" gradientUnits="userSpaceOnUse" spreadMethod="pad" id="gradient-Rc0df92357c142fcebc53941840c006ce" cx="0" cy="0" r="819.2"><stop offset="0.31372549019608" stop-color="#ffffff"/><stop offset="0.41960784313725" stop-color="#f5fe43"/><stop offset="0.5843137254902" stop-color="#fe8001" stop-opacity="0.85098039215686"/><stop offset="1" stop-color="#d94b00" stop-opacity="0"/></radialGradient><g transform="matrix(1, 0, 0, 1, 36.2, 107.1)" id="object-12"><path fill-rule="evenodd" fill="url(#gradient-Rc903f33a081a46ed119b6ead09fc015e)" stroke="none" d="M-36.2 -107.1L-36.15 -107.05Q-18.7 -89.45 -10.25 -74.5L-9.25 -74.7L-10.55 -85.2Q-1.4 -72.8 2.25 -62.65L2.5 -61.2L3.45 -57.9L5.45 -48.35L4.15 -49.8Q0.05 -53.75 -2 -56.15L-1.8 -54.3L-1.95 -47.8L-1.7 -45.6L-2.9 -50.25Q-4.35 -55.6 -8 -63.3L-8.2 -63.65L-8.2 -62.8Q-8.2 -59.5 -8.65 -56.8L-8.75 -54.2Q-13.45 -63.3 -25.5 -80.9Q-21.85 -81.65 -19.55 -80.75Q-25.95 -91.75 -36.2 -107.1"/><path fill-rule="evenodd" fill="url(#gradient-Rdc82230672357a58950c6fa23352b387)" stroke="none" d="M-16.05 -58Q-9.6 -54.55 -8.25 -54.05L-8.3 -54.55Q-6.9 -54.5 -6.5 -55.8Q-6.6 -56.1 -6.45 -56.15Q-6.35 -56.7 -6.4 -57.5Q-6.4 -57.9 -6.6 -59Q-7 -60.35 -9.5 -60.5Q-7.25 -55.4 -16.05 -58"/></g><radialGradient gradientTransform="matrix(0.0223, -0.0272, 0.036, 0.0363, -0.45, -42.8)" gradientUnits="userSpaceOnUse" spreadMethod="pad" id="gradient-Rc903f33a081a46ed119b6ead09fc015e" cx="0" cy="0" r="819.2"><stop offset="0.31372549019608" stop-color="#ffef35"/><stop offset="0.49803921568627" stop-color="#ffb300"/><stop offset="0.98039215686275" stop-color="#f26200" stop-opacity="0.81176470588235"/></radialGradient><radialGradient gradientTransform="matrix(0.0237, -0.0324, 0.0368, 0.0301, -2.05, -45.55)" gradientUnits="userSpaceOnUse" spreadMethod="pad" id="gradient-Rdc82230672357a58950c6fa23352b387" cx="0" cy="0" r="819.2"><stop offset="0.31372549019608" stop-color="#ffef35"/><stop offset="0.49803921568627" stop-color="#ffb300"/><stop offset="0.98039215686275" stop-color="#f26200" stop-opacity="0.81176470588235"/></radialGradient><g transform="matrix(1, 0, 0, 1, -57.3, 161.3)" id="object-13"><path fill-rule="evenodd" fill="url(#gradient-R7d03dd9ef1c0c39e0a73d928d306f440)" stroke="none" d="M57.3 -155.7Q85.95 -148.75 93.75 -117.6Q97.7 -123.45 101.65 -128.75L101.9 -128.25Q103.45 -124.15 104.55 -119.25Q106.75 -124 106.2 -129.5L105.5 -133.05Q104.15 -137.55 101.2 -142.3L98.65 -145.85Q83.4 -164.55 57.3 -155.7"/></g><radialGradient gradientTransform="matrix(0.1043, -0.1825, 0.1616, -0.0322, 106.3, -60.85)" gradientUnits="userSpaceOnUse" spreadMethod="pad" id="gradient-R7d03dd9ef1c0c39e0a73d928d306f440" cx="0" cy="0" r="819.2"><stop offset="0.31372549019608" stop-color="#ffffff"/><stop offset="0.41960784313725" stop-color="#f5fe43"/><stop offset="0.5843137254902" stop-color="#fe8001" stop-opacity="0.85098039215686"/><stop offset="1" stop-color="#d94b00" stop-opacity="0"/></radialGradient><g transform="matrix(1, 0, 0, 1, -57.3, 161.3)" id="object-14"><path fill-rule="evenodd" fill="url(#gradient-Rdcb74dc5fd439cb80f39993b91d12560)" stroke="none" d="M57.3 -155.7Q85.95 -148.75 93.75 -117.6Q97.7 -123.45 101.65 -128.75L101.9 -128.25Q103.45 -124.15 104.55 -119.25Q106.75 -124 106.2 -129.5L105.5 -133.05Q104.15 -137.55 101.2 -142.3L98.65 -145.85Q83.4 -164.55 57.3 -155.7"/></g><radialGradient gradientTransform="matrix(0.1043, -0.1825, 0.1616, -0.0322, 106.3, -60.85)" gradientUnits="userSpaceOnUse" spreadMethod="pad" id="gradient-Rdcb74dc5fd439cb80f39993b91d12560" cx="0" cy="0" r="819.2"><stop offset="0.31372549019608" stop-color="#ffffff"/><stop offset="0.41960784313725" stop-color="#ffff43"/><stop offset="0.5843137254902" stop-color="#ffbc01" stop-opacity="0.85098039215686"/><stop offset="1" stop-color="#ff8700" stop-opacity="0"/></radialGradient><g transform="matrix(1, 0, 0, 1, -57.3, 161.3)" id="object-15"><path fill-rule="evenodd" fill="url(#gradient-R7d03dd9ef1c0c39e0a73d928d306f440)" stroke="none" d="M57.3 -155.7Q85.95 -148.75 93.75 -117.6Q97.7 -123.45 101.65 -128.75L101.9 -128.25Q103.45 -124.15 104.55 -119.25Q106.75 -124 106.2 -129.5L105.5 -133.05Q104.15 -137.55 101.2 -142.3L98.65 -145.85Q83.4 -164.55 57.3 -155.7"/></g><radialGradient gradientTransform="matrix(0.1043, -0.1825, 0.1616, -0.0322, 106.3, -60.85)" gradientUnits="userSpaceOnUse" spreadMethod="pad" id="gradient-R7d03dd9ef1c0c39e0a73d928d306f440" cx="0" cy="0" r="819.2"><stop offset="0.31372549019608" stop-color="#ffffff"/><stop offset="0.41960784313725" stop-color="#f5fe43"/><stop offset="0.5843137254902" stop-color="#fe8001" stop-opacity="0.85098039215686"/><stop offset="1" stop-color="#d94b00" stop-opacity="0"/></radialGradient><g transform="matrix(1, 0, 0, 1, 36.2, 107.1)" id="object-16"><path fill-rule="evenodd" fill="url(#gradient-Rc903f33a081a46ed119b6ead09fc015e)" stroke="none" d="M-36.2 -107.1L-36.15 -107.05Q-18.7 -89.45 -10.25 -74.5L-9.25 -74.7L-10.55 -85.2Q-1.4 -72.8 2.25 -62.65L2.5 -61.2L3.45 -57.9L5.45 -48.35L4.15 -49.8Q0.05 -53.75 -2 -56.15L-1.8 -54.3L-1.95 -47.8L-1.7 -45.6L-2.9 -50.25Q-4.35 -55.6 -8 -63.3L-8.2 -63.65L-8.2 -62.8Q-8.2 -59.5 -8.65 -56.8L-8.75 -54.2Q-13.45 -63.3 -25.5 -80.9Q-21.85 -81.65 -19.55 -80.75Q-25.95 -91.75 -36.2 -107.1"/><path fill-rule="evenodd" fill="url(#gradient-Rdc82230672357a58950c6fa23352b387)" stroke="none" d="M-16.05 -58Q-9.6 -54.55 -8.25 -54.05L-8.3 -54.55Q-6.9 -54.5 -6.5 -55.8Q-6.6 -56.1 -6.45 -56.15Q-6.35 -56.7 -6.4 -57.5Q-6.4 -57.9 -6.6 -59Q-7 -60.35 -9.5 -60.5Q-7.25 -55.4 -16.05 -58"/></g><radialGradient gradientTransform="matrix(0.0223, -0.0272, 0.036, 0.0363, -0.45, -42.8)" gradientUnits="userSpaceOnUse" spreadMethod="pad" id="gradient-Rc903f33a081a46ed119b6ead09fc015e" cx="0" cy="0" r="819.2"><stop offset="0.31372549019608" stop-color="#ffef35"/><stop offset="0.49803921568627" stop-color="#ffb300"/><stop offset="0.98039215686275" stop-color="#f26200" stop-opacity="0.81176470588235"/></radialGradient><radialGradient gradientTransform="matrix(0.0237, -0.0324, 0.0368, 0.0301, -2.05, -45.55)" gradientUnits="userSpaceOnUse" spreadMethod="pad" id="gradient-Rdc82230672357a58950c6fa23352b387" cx="0" cy="0" r="819.2"><stop offset="0.31372549019608" stop-color="#ffef35"/><stop offset="0.49803921568627" stop-color="#ffb300"/><stop offset="0.98039215686275" stop-color="#f26200" stop-opacity="0.81176470588235"/></radialGradient><g transform="matrix(1, 0, 0, 1, -57.3, 161.3)" id="object-17"><path fill-rule="evenodd" fill="url(#gradient-R7d03dd9ef1c0c39e0a73d928d306f440)" stroke="none" d="M57.3 -155.7Q85.95 -148.75 93.75 -117.6Q97.7 -123.45 101.65 -128.75L101.9 -128.25Q103.45 -124.15 104.55 -119.25Q106.75 -124 106.2 -129.5L105.5 -133.05Q104.15 -137.55 101.2 -142.3L98.65 -145.85Q83.4 -164.55 57.3 -155.7"/></g><radialGradient gradientTransform="matrix(0.1043, -0.1825, 0.1616, -0.0322, 106.3, -60.85)" gradientUnits="userSpaceOnUse" spreadMethod="pad" id="gradient-R7d03dd9ef1c0c39e0a73d928d306f440" cx="0" cy="0" r="819.2"><stop offset="0.31372549019608" stop-color="#ffffff"/><stop offset="0.41960784313725" stop-color="#f5fe43"/><stop offset="0.5843137254902" stop-color="#fe8001" stop-opacity="0.85098039215686"/><stop offset="1" stop-color="#d94b00" stop-opacity="0"/></radialGradient><g transform="matrix(1, 0, 0, 1, -57.3, 161.3)" id="object-18"><path fill-rule="evenodd" fill="url(#gradient-Rdcb74dc5fd439cb80f39993b91d12560)" stroke="none" d="M57.3 -155.7Q85.95 -148.75 93.75 -117.6Q97.7 -123.45 101.65 -128.75L101.9 -128.25Q103.45 -124.15 104.55 -119.25Q106.75 -124 106.2 -129.5L105.5 -133.05Q104.15 -137.55 101.2 -142.3L98.65 -145.85Q83.4 -164.55 57.3 -155.7"/></g><radialGradient gradientTransform="matrix(0.1043, -0.1825, 0.1616, -0.0322, 106.3, -60.85)" gradientUnits="userSpaceOnUse" spreadMethod="pad" id="gradient-Rdcb74dc5fd439cb80f39993b91d12560" cx="0" cy="0" r="819.2"><stop offset="0.31372549019608" stop-color="#ffffff"/><stop offset="0.41960784313725" stop-color="#ffff43"/><stop offset="0.5843137254902" stop-color="#ffbc01" stop-opacity="0.85098039215686"/><stop offset="1" stop-color="#ff8700" stop-opacity="0"/></radialGradient><g transform="matrix(1, 0, 0, 1, -57.3, 161.3)" id="object-19"><path fill-rule="evenodd" fill="url(#gradient-R7d03dd9ef1c0c39e0a73d928d306f440)" stroke="none" d="M57.3 -155.7Q85.95 -148.75 93.75 -117.6Q97.7 -123.45 101.65 -128.75L101.9 -128.25Q103.45 -124.15 104.55 -119.25Q106.75 -124 106.2 -129.5L105.5 -133.05Q104.15 -137.55 101.2 -142.3L98.65 -145.85Q83.4 -164.55 57.3 -155.7"/></g><radialGradient gradientTransform="matrix(0.1043, -0.1825, 0.1616, -0.0322, 106.3, -60.85)" gradientUnits="userSpaceOnUse" spreadMethod="pad" id="gradient-R7d03dd9ef1c0c39e0a73d928d306f440" cx="0" cy="0" r="819.2"><stop offset="0.31372549019608" stop-color="#ffffff"/><stop offset="0.41960784313725" stop-color="#f5fe43"/><stop offset="0.5843137254902" stop-color="#fe8001" stop-opacity="0.85098039215686"/><stop offset="1" stop-color="#d94b00" stop-opacity="0"/></radialGradient></defs></svg>
