<svg xmlns="http://www.w3.org/2000/svg" xmlns:xlink="http://www.w3.org/1999/xlink" width="62" height="78" viewBox="0 0 62 78"><defs><radialGradient id="c" cx="0" cy="0" r="819.2" gradientTransform="matrix(-.01 0 0 0 -4.25 -37.35)" gradientUnits="userSpaceOnUse" spreadMethod="pad"><stop offset="0" stop-color="#fcf3d8"/><stop offset="1" stop-color="#fcf3d8" stop-opacity="0"/></radialGradient><radialGradient id="b" cx="0" cy="0" r="819.2" gradientTransform="matrix(-.01 0 0 .01 10.5 -18.25)" gradientUnits="userSpaceOnUse" spreadMethod="pad"><stop offset="0" stop-color="#fcf3d8"/><stop offset="1" stop-color="#fcf3d8" stop-opacity="0"/></radialGradient><radialGradient id="a" cx="0" cy="0" r="819.2" gradientTransform="matrix(-.01 0 0 .01 -16.55 -26.7)" gradientUnits="userSpaceOnUse" spreadMethod="pad"><stop offset="0" stop-color="#fcf3d8"/><stop offset="1" stop-color="#fcf3d8" stop-opacity="0"/></radialGradient><clipPath id="d"><path d="M1 1h60v76H1z"/></clipPath><g id="e"><path fill="#000" fill-opacity=".3" d="m0 59 14.5-7 1 5.4 22.7 11.8-6.6 5.4-5 .6-6-3.2Q0 73 .1 61.5z"/><path fill="#b07e2b" d="m39.5 53.5-1.4 2-.8-1.4zM38 55.7q5.8 2.1 4.1-3.6l1.6-1v.1l1 4.5.3 1.4-.3-1.4-1-4.5 1.6 1.2q2.5-.2.5-2.4l11.3-6.5 1 1.8V52l-1 1.5v2.2l-3.6-.1H52l-.2-2.7.2 2.7h-1.5l-7.4 5.8-2.6 2-2-1-3.6 1.9-1 3H32v-2.8zM52.9 49l.8 6.6zm-8 6.7-1.6 5.7z"/><path fill="#6a4d1a" d="m38.1 55.6 1.4-2.1 2.6-1.4q1.7 5.8-4 3.6zm5.6-4.4 2.1-1.2q2 2.2-.4 2.4zm-37-5.8 1-.2q-1.7 4 4.6 7.1l.2.3q5.7 3.1 9.5.1l6.5 4 3.4 7.8v2.8l-2.8-3.1-4-.6-1.6-4.1.5-1.4-4-2.1-1.8.9-.5 1.9-7.5-2-1.6-4-1.6-.6z"/><path fill="#422e17" d="m39.5 53.5-2.2.6-8.8 2.4.1.2-6.5-4L8.5 45l-.7.2-1 .2-1.2.3L8 41.5l19-10.9 11.2.3L56 41.7l1 1.8L45.8 50l-2.1 1.2-1.6.9z"/><path fill="#d19c43" d="m37.3 54.1.8 1.5-6.1 8.9-3.4-7.8-.1-.2z"/><path fill="#ba862e" d="m5.6 45.7 1.3-.3v6.8l-1.4-.5v-5.8z"/><path fill="#573f15" d="m7.8 45.2.7-.2 13.7 7.7q-4 3-9.5-.1l-.3-.2Q6 49.2 7.8 45.2"/><path fill="#5c543b" d="M57.2 55.7v4.6H57l-2.5.7-.1.2-.3.5-1.1 1.5-2.2 3.2-.2.2-4.2-.1-.6.2-.4.1-.9.3-1 1-.7.9-1.5.2-.8.3-2 1-.5.8-.8.9-3.5 1.6-1.7.8v-7.3h1.9l1-3 3.6-1.8 2 1 2.6-2.1 7.4-5.8h3l.2 1.6-.2-1.6zM7 59.8l-1.3-.5h-.1v-7.5l1.4.5zm45-3.2-.1-1z"/><path fill="#3e3828" d="m32 74.6-.6-.2-1.7-.5-2.8-2.2-.2-.2-2.2-1.8-.4-.3-2-1.7h-.7l-1.4.1h-2.2l-.2-.1-.1-.2-8.4-7-2.2-.8v-7.5l1.6.5 1.6 4.1 7.5 2 .4-1.9 2-.9 4.3 2-.6 1.5 1.6 4.1 4 .6 2.8 3z"/><path fill="none" stroke="#6f4d26" stroke-linecap="round" stroke-linejoin="round" stroke-opacity=".5" stroke-width="__RESOLUTION__" d="m43.8 51.2.9 4.5.3 1.4m-1.8 4.3 1.6-5.7" vector-effect="non-scaling-stroke"/><path fill="none" stroke="#000" stroke-linecap="round" stroke-linejoin="round" stroke-opacity=".3" stroke-width="1" d="M56 41.7 38.2 30.9 27 30.6 8 41.5l-2.4 4.2-.1.2v13.3h.1m52.6-14V52l-1 1.5v6.8H57m-2.6.9-.3.5M53 63.2l-2.2 3.2m-5 .3-.4.1m-1.9 1.4-.7.8m-2.3.5-2 1-.5.8m-4.2 2.5-1.8.8h0l-.6-.2m-4.5-2.7-.2-.2m-2.2-1.8-.4-.3m-2.7-1.7-1.4.1m-2.4-.1-.1-.2"/><path fill="none" stroke="#6f4d26" stroke-linecap="round" stroke-linejoin="round" stroke-width="1" d="M52 55.6v1m0-1-.2-2.7m1.8 2.7.1 1.6m-.2-1.6-.7-6.6"/><path fill="#ead2a8" d="m17.6 22.5-.8-.3q-3.7-3.6-2.2-7.7 1.8-4.4 3-2.4v.1q1.8 3.3 2.5 7.3l-.5.9-2.2-3.3.2 2v.1l1.7 1.9-.2.3-1.4-1zm-.6-5.8.4.5z"/><path fill="#e6c793" d="m17.6 22.5.1-2.1 1.4 1-.4.9zm1.7-1.4-1.7-1.9v-.1l-.2-2 2.3 3.3z"/><path fill="none" stroke="#000" stroke-linecap="round" stroke-linejoin="round" stroke-opacity=".3" stroke-width="1" d="m19.7 20.4.4-1q-.7-4-2.5-7.1V12q-1.2-2-3 2.4-1.5 4.1 2.2 7.7l.8.3"/><path fill="none" stroke="#000" stroke-linecap="round" stroke-linejoin="round" stroke-opacity=".3" stroke-width="__RESOLUTION__" d="m17.8 20.4 1.3 1 .2-.3.3-.7-2.2-3.3-.3-.5m.4 5.9 1.2-.2.4-.9" vector-effect="non-scaling-stroke"/><path fill="#c17733" d="M56.5 26.3q-.6 3.5-4.1 2.4l-.5-.2q-.6-2.4-3.7-5.8-3.7-3.6-6.4-4.8l-.1-.1-5.2-2.1-3.1-.8h3.8l1 1.2q2.3.6 4.9 2 2.3 1.3 5.5 4.1l.3.2q5.1 2.6 3.3-.8z"/><path fill="#ae482b" d="m33.4 14.9 3.1.8 5.1 2.1.3.1q2.6 1.2 6.3 4.8 3.1 3.4 3.7 5.8l.5.2q3.5 1 4-2.4l.6.7q1.1 2.7.7 5.4-4 7.5-6.5 3.6v-.7q.1-3.7-1.3-7.6v-.4q-1.1-2.3-3-4.3h-.1l-1-1q-3.2-3.1-7.5-4.9-4.4-1.8-8.6-1.7v-.1l2.7-.3z"/><path fill="#d9b066" d="M52.2 21.6q1.8 3.4-3.3.8l-.2-.2q-3.3-2.8-5.6-4.1-2.6-1.4-4.9-2l-1-1.1q8.5.6 15 6.6"/><path fill="#dcb672" d="M29.7 15.4q4.2-.1 8.6 1.7t7.6 4.9l.9 1q1.5 2.4.4 3.4-1 .9-3-.7Q36.1 18 31.4 18q-7.8-.5-4.1-2.4h.6l1.3-.2z"/><path fill="#cd8543" d="M46.8 23q2 2 3 4.3l.1.2v.1q.3 3.8-3.9 6.9l-.1.1h-.1q-1 .6-2.1.6-1.8-7.2-6-10.7-6.9-4.7-14.9-4.3l-4.2.8.3-.5 1-1.2 1.8-1.3.3-.2q2.3-1.6 5.3-2.2-3.7 1.9 4.1 2.4 4.7 0 12.8 7.7 2 1.6 3 .7t-.4-3.4"/><path fill="#c95430" d="M49.9 27.7q1.4 3.9 1.4 7.6-5 9.6-10.3 3.6l-.9-4.2v-.4q-2-6.5-7.6-9l-.3-.1q-9-3.7-14.5-2l.7-1.9.1-.2V21l4.3-.8q8-.4 14.9 4.3 4.2 3.5 6 10.8 1-.1 2-.6l.1-.1.2-.1q4.2-3.1 3.9-6.8"/><path fill="#893821" d="M51.3 35.3v.7q2.4 3.9 6.4-3.6-.7 4-5 8.2l-.2.1q-1.4 1.9-3.5 1.9l-.1.1q-1.2 1.3-3.1 1.9h-.3l-4.4.1q.1-3.1-.1-5.8 5.4 6 10.3-3.6m0 .7-.4 2.6q-.4 2.4-1.9 4 1.5-1.6 1.9-4z"/><path fill="none" stroke="#000" stroke-linecap="round" stroke-linejoin="round" stroke-opacity=".3" stroke-width="1" d="m56.5 26.3-4.3-4.7q-6.5-6-15-6.6m-.4-.1h-3.4m-1 .1-2.7.3v.1h-.5l-1.3.2m29.8 16.8q.4-2.7-.7-5.4l-.5-.7m-38-5.3.4-.5 1-1.2 1.8-1.3.3-.2q2.3-1.6 5.3-2.2"/><path fill="none" stroke="#000" stroke-linecap="round" stroke-linejoin="round" stroke-opacity=".3" stroke-width="__RESOLUTION__" d="M29.7 15.4q4.2-.1 8.6 1.7t7.6 4.9l.9 1m0 0q2 2 3 4.3m.1.4q1.4 3.9 1.4 7.6v.7l-.4 2.6q-.4 2.4-1.9 4 2.1 0 3.5-1.9l.1-.1q4.4-4.2 5.1-8.2M41 38.9l-.9-4.2v-.4q-2-6.5-7.6-9l-.3-.1q-9-3.7-14.5-2l.7-1.9.1-.2V21M49 42.6l-.1.1q-1.2 1.3-3.1 1.9h-.3l-4.4.1q.1-3.1-.1-5.8M29.7 15.4" vector-effect="non-scaling-stroke"/><path fill="#dcb672" d="M38.2 28.1q-1.7 4.1-6 3.7l-.5-.2q-9.7-9-18.1-6l.2-.2q3-3.2 7-3.7 5-.5 10.3 1.6 4.3 1.8 7.1 4.8"/><path fill="#cd8543" d="m38.2 28.2 1.5 1.9 1.4 2.4.1.1q-3 6.1-10.9 6.5-2-4.2-7-6.8-5.9-3-13-2 1-2 3-4.3l.3-.3q8.4-3.1 18.2 5.9l.4.2q4.3.4 6-3.6"/><path fill="#c95430" d="M41.2 32.6q1.3 3 1.3 6.4v.2Q41 44 34.8 43.8q-2.2-.1-4.7-1.2-1.5-2-3.2-3.5-7-6.6-17.7-6.3l1-2.5q7.2-1 13.1 2 5 2.6 7 6.8 7.8-.4 10.9-6.5"/><path fill="#893821" d="m42.5 39.2-.1 2.1v.2l-.1.3q-.5 8.6-8.9 6-1.5-3-3.3-5.2 2.4 1.1 4.6 1.2 6.3.2 7.8-4.6"/><path fill="none" stroke="#000" stroke-linecap="round" stroke-linejoin="round" stroke-opacity=".3" stroke-width="__RESOLUTION__" d="m38.3 28.2 1.5 1.9 1.4 2.4v.1q1.3 3 1.3 6.4m0 .2-.1 2.1v.2l-.1.3q-.5 8.6-8.9 6-1.5-3-3.3-5.2M10.3 30.3q1-2 3-4.3m.3-.3v-.1l.2-.2q3-3.2 7-3.7 5-.5 10.3 1.6 4.3 1.8 7.1 4.8" vector-effect="non-scaling-stroke"/><path fill="none" stroke="#000" stroke-linecap="round" stroke-linejoin="round" stroke-opacity=".3" stroke-width="1" d="M30.1 42.6q-1.5-2-3.2-3.5-7-6.6-17.7-6.3l1-2.5"/><path fill="#000" fill-opacity=".3" d="M42.7 39.9q-6.2 2.6-11.9-1.2v-.2q.5-5.7 7.4-4.5-.6 2.1-2.3 3 4.9-.3 6.8 2.9M14.9 23.8q2.3-.5 2 4.3.5-3.4 3.6-5 2.6 1.9-1.3 5.2l-.6.5-3.6 1.5q-7.5 1-.4-6.2z"/><path fill="#e6c793" d="m35.8 32.7-.2.3-.7 2.1-.9 1.6-.9.1-1.8 2.4 1.4-3.9v-.7l1.7-1.5zm9 3.3q-1.4.2-4.1 2.6-2.5 2-4.2 2-3.1-.1-5-.9l-.2-.5q2.6-2 7.6-2.2l.1-.2.2-.4zm-29-12.4v-1.4.3l1.1 3.8-.3.8.5.5.2 2.4q-1-.4-1.4-1.5l-.2-1.8v-1.4l.1-.5zm-8-4.9.4 2.1 1.4 2.4 1.8 1.2.2.6 1.5.5.2 1q.7.4 2 2.7l.3.5.1.2v.1h.1l-.4.2h-.3l-1.7.3-.6-.1q-1.2-.2-1.9-1l-.5-.8v-.2q-3.1-6.8-2.7-9.7m3 6.8Q12 29 15 29.8q-3.1-.8-4.2-4.3"/><path fill="#ead2a8" d="m35.8 32.7-1.4.4-1.7 1.5v.7l-1.5 3.9-.4.3q-.8-7.2 5.4-7.7l-.4.6zm-4.5 6.5 1.8-2.4 1-.1-.1.1q5.2-3.3 11-.9h-.2l-5.6.5-.2.4-.1.2q-5 .3-7.6 2.3zm-14-9.2-.2-2.4-.5-.5.3-.9-1-3.7q3.2 4.7 1.9 6.9zm-3.4-5.1.3.5.5.7q.7 1 1 2.6l.2 1v.3h-.1l-.1-.1-.1-.2-.3-.5q-1.3-2.3-2-2.7l-.2-1-1.5-.5-.2-.6-1.8-1.2-1.4-2.4-.4-2.1.1-.6q.6 3.1 3.2 5 1.6.6 2.8 1.8"/><path fill="#0c86b4" fill-opacity=".5" d="M31.3 39.2h-.1"/><path fill="#672b18" d="M25.6 47.5q0-3.9 2.7-4 2.6-.1 3 1.7l.9.3.2 1-1.4-.4v-.3l-.6-1q-.8-1-2.2-.6-1.6.4-2 1.8v1.1l-.3.2zM8 35.5q.5-2.1 1.9-.8l1 1.4q.4 2-.9 3.4-.5-.7-.1-1.5.6-2-.7-2.7-1-.3-1.2.3m2.2 3.9q.5.2 1-.4l.7-1.4.2-.6.3 1.7-.7 1.3-1.2-.1z"/><path fill="#c95430" d="m31 46 1.4.6-.2-1.1-.9-.3q-.4-1.8-3-1.7-2.7.1-2.7 4l.3-.2.3-.2q2.4-1.4 4.8-1M8 40.6l-.5-.9-.5-.9-.8-1.6-.3-2.2L8 33.5q-1.4 1.7-1.2 3.6.5 1.9 2 2.6 1.6.1 2.5 2.3.1 1.9 2.3 1.4 1.5-.2 4.1 1.9 1.9 1.5 3.2.5.3-4.7 6.8-8l.9.9q3.1 3.4 5 7.8l-.4.8-1.7-.4q-2.2-.9-3.1.8l-.1.1q-1 0-1.9.8h-.2q-1.6.8-2.7-.2t-2.6-.7h-.3q-3 .3-4.6-1.5l-.1-.1q-1.6-1.7-3.2-1.6-1-.1-1.7-.6t-.8-1.4l-.1-.1q-.5-1.3-2-1.8M25 43.4 22.8 45l-.3 1.5.3.6 1.7.3h1-1L24 47v-2zq1-1.1 2.6-1.2-1.6 0-2.6 1.1"/><path fill="#dcb672" d="M26.2 47.1V46q2.7-1.7 4.8-.2v.3q-2.4-.4-4.8 1m-12-15.4h.9l1.5.2q2.3.3 4.7 1.3 2.3 1 4.3 2.7-2.3-.2-3.8 2-2.7-2.3-5.4-3l-.5-.1q-4.3-.3-2.7-2.2l.3-.3zm-4.6 7.4-1.8-2.4v-.4l.2-.7q1.7.5 1.7 3.5"/><path fill="#cd8543" d="M26.3 46q.3-1.4 1.9-1.8 1.4-.4 2.2.6l.6 1q-2.1-1.5-4.7.2M8 33.5l.4-.2q1.7-1 3.5-1.3l1.2-.2 1.1-.1-.7.6-.3.3q-1.6 1.9 2.7 2.2h.5q2.8.8 5.4 3.1 1.5-2.2 3.8-2l2.1 1.9q-6.5 3.3-6.8 8-1.3 1-3.2-.5-2.6-2.1-4.1-2-2.2.6-2.3-1.3-.9-2.1-2.5-2.3-1.5-.7-2-2.6-.2-2 1.2-3.6m0 2-.2.8v.4l1.8 2.4h.1q0-3-1.7-3.5m2.1 3.9q1.3-1.3.9-3.4l-1-1.4q-1.4-1.3-2 .9.4-.6 1.3-.3 1.3.8.7 2.7-.4.8.1 1.5h.2zm1.2-.4q-.5.6-1 .4l.3.5h1.2l.6-1.2-.2-1.7-.2.6zm.6-4.1q.5 1 .3 2.1.2-1.1-.3-2.1m-2.2 4.2.4.3zm7 2.4q-1.2 0-1 2 1.4-.2 1-2m-2.3-1q-.8 0-.8 1.5 1 0 .8-1.5"/><path fill="#9d4126" d="m33.2 47.3-.2.3-3.1 1.1-1.7.4H28q-5.4.9-10.9-1.3-3.6-1.5-6.2-3.8-1.6-1.5-2.8-3.4 1.5.5 2 1.8h.1q.2 1 .8 1.5t1.7.6q1.6-.1 3.2 1.6l.1.1q1.6 1.8 4.6 1.5h.3q1.4-.2 2.6.8v-.1q1.1 1 2.7.2h.2q1-.8 1.9-.8v-.1q1-1.7 3.3-.9zm-8.7.1-1.6-.3-.3-.6.3-1.5 2-1.6-.7 1.6-.1.2V47z"/><path fill="#6d2d1a" d="M29.9 48.7q1.7 1.1 1.5 2.8-.1.7-.6 1.6-.7.9-2 .1-1.2-.7-.6-1.6l.2-.1q.9-1.4-.2-2.4zm-22.4-9q-1.8 0-1.1 1.2h-.1q.3.7 0 1.2h-1q-1.2-.5-.9-1.9l.2-.1q.8-1.2 2.4-1.2z"/><path fill="#f6eaa0" d="M9.6 39v.2z"/><path fill="#571a4d" d="M16.8 41.6q.3 1.8-1.1 2-.2-2 1-2m-2.3-1q.2 1.5-.8 1.5 0-1.5.8-1.5"/><path fill="none" stroke="#000" stroke-linecap="round" stroke-linejoin="round" stroke-opacity=".3" stroke-width="__RESOLUTION__" d="m34 36.7.9-1.6.7-2.1.1-.3m-3 2.6-1.5 3.9h0l-.4.3q-.8-7.2 5.4-7.7l-.4.6m-1.7 4.3-.1.1q5.2-3.3 11-.9h-.2q-1.4.3-4.1 2.7-2.5 2-4.2 2-3.1-.1-5-.9l-.2-.5q2.6-2 7.6-2.2l.1-.2M15.9 22.5l-.2-.2.1 1.3m0-1.1q3.3 4.7 2 6.9m-4.6-3q.8.5 2.1 2.8m-.4.6q-3-.8-4.1-4.3" vector-effect="non-scaling-stroke"/><path fill="none" stroke="#fff" stroke-linecap="round" stroke-linejoin="round" stroke-opacity=".3" stroke-width="__RESOLUTION__" d="M31.3 39.3h-.1" vector-effect="non-scaling-stroke"/><path fill="none" stroke="#000" stroke-linecap="round" stroke-linejoin="round" stroke-opacity=".3" stroke-width="__RESOLUTION__" d="m25.6 47.5.3-.2.3-.2v-.9m0-.2q.4-1.4 2-1.8 1.4-.4 2.2.6l.6 1v.3q-2.4-.4-4.8 1m-16.5-8-1.9-2.4v-.4l.2-.7h0q.4-.6 1.3-.3 1.3.8.7 2.7-.4.8.1 1.5h.2q.5.2 1-.4m-1.7 0 .4.4m15.5 8-1-.1-.5-.4" vector-effect="non-scaling-stroke"/><path fill="none" stroke="#000" stroke-linecap="round" stroke-linejoin="round" stroke-opacity=".3" stroke-width="1" d="m33.2 47.3-.2.3-3.1 1.1q1.7 1.1 1.5 2.8-.1.7-.6 1.6-.7.9-2 .1-1.2-.7-.6-1.6l.2-.1q.9-1.4-.2-2.4H28q-5.4.9-10.9-1.3-3.6-1.5-6.2-3.8-1.6-1.5-2.8-3.4m-.6-.9q-1.8 0-1.1 1.2h-.1q.3.7 0 1.2h-1q-1.2-.5-.9-1.9l.2-.1q.8-1.2 2.4-1.2l-.8-1.7-.3-2.2L8 33.5m5.9-8.6q-1.2-1.2-2.8-1.8-2.6-1.9-3.2-5m3 11.3-.5-.8v-.2q-3.1-6.8-2.7-9.7m22.2 30-1.7.4"/><path fill="none" stroke="#000" stroke-linecap="round" stroke-linejoin="round" stroke-opacity=".3" stroke-width="__RESOLUTION__" d="M8.4 33.3q1.7-1 3.5-1.3m4.7-.1q2.3.3 4.7 1.3 2.3 1 4.3 2.7l2.1 1.9.9.9q3.1 3.4 5 7.8l-.4.8m-4.9.4q-1 0-1.9.8h-.2q-1.6.8-2.7-.2m0 0q-1.2-.9-2.6-.7h-.3q-3 .3-4.6-1.5l-.1-.1q-1.6-1.7-3.2-1.6-1-.1-1.7-.6t-.8-1.4m-.1-.1q-.5-1.3-2-1.8m3.9-2.7.2-.7q.2-1.1-.3-2.1m13 8.4q1-1.1 2.6-1.2M24 45l.8-1.6" vector-effect="non-scaling-stroke"/><path fill="#000" fill-opacity=".3" d="M45.4 21.5h-1l-1.9-.5-1 1.2q-1.9.7-3.5 2.5l-1.6 1.5-2.2-1.4q7-5.8 8.8-5.4l.4-1q4.3-.9 6.3 1l2.1 2q-2.7-2.3-5.5-.8zM37 15.7l-2.1.3q-5.5 1-7.6 4.4l-.6 1.4-3.3-.2q4.2-6.5 9.8-6l2.6-.5z"/><path fill="#e6c793" d="m32.8 3.9-.5-1.4 5.6-2h.3q1.8.3 3.7 1.7L39.3 2l-.7 1-.2.2-2-.3h-.5l-3 1.3zl.1.3q-3.4 1.9-5.5 4.6l-1 1.4-2.9-.3-.2 4.4v.1l-.6 2.3q-.2 2.2.7 4.7l.5.1h.5q-.7-6.7 2-11.3l2.3 2.2L31 9.5l-3.7-.7-3-2.1 1-1.1L31.2 3zm4.4 7q1.6-1.7 4.3-2.5l.4-.2 3.1-.8h.4q5.6.7 9.8-.2l.7.7-1.7.5-.7.9-1-.6-.3-.1-5.2.2-5 1.3q-2 .5-3.6 3.2zm6.9 3.4q-1.7.9-3.1 2.2l-3.4-1.6.8-1.6zm-9.3 11-1.4-1 .3-4q.3-3 1-5l.3-1.1 2.6.7q-1.7 3.8-2.8 10.4"/><path fill="#ead2a8" d="m32.9 4.2 3-1.3h.5l2 .3.1-.1.8-1.1 2.6.2.3.3 1.5 1.7-.4.4q-3.3-3-9.2 2.9l-1.2-.4-.2 1-1.6 1.4-3.7-.7q2.1-2.7 5.5-4.6m-4.2 8.2L27 15.2q-1.4 3.3-.5 6.7l-.9-.2-1.3-.1q-.7-6.9 2-11.4zm8.5-1.5 1.2 2.4q1.6-2.7 3.6-3.2l5-1.3 5.2-.2.3.1 1 .6.7-1 1.7-.4.3.2q-.2 2.4-2.7 3-3-.9-6.8 0l-.6 2.2-2 1-5.7-1-.8 1.6 3.4 1.6q-4 3.6-4.9 9.7l-1.3-1q1.1-6.5 2.8-10.3l-2.6-.7q.9-2 2.1-3.3"/><path fill="#e1bd80" d="M23.5 9.9q.3-2 1-3.2l2.9 2-1 1.5z"/><path fill="none" stroke="#000" stroke-linecap="round" stroke-linejoin="round" stroke-opacity=".3" stroke-width="1" d="M41.9 2.2Q40 .7 38.2.6l-.4-.1-5.5 2 .5 1.4-1.7-1-5.7 2.7-1 1.1q-.6 1.2-.9 3.2l-.2 4.4v.1l-.6 2.3M41.9 2.2l.3.3 1.5 1.7-.4.4q-3.3-3-9.2 2.9l-1.2-.4-.2 1-1.6 1.4-2.5 2.9-1.6 2.8m29-7.3-.7-.7q-4.2.9-9.9.2h-.2l-3.2.8-.4.2q-2.6.8-4.4 2.5-1.2 1.3-2 3.3M56 7.9l.3.2q-.2 2.4-2.7 3-3-.9-6.8 0l-.6 2.2-2 1q-1.7.9-3.1 2.2"/><path fill="none" stroke="#000" stroke-linecap="round" stroke-linejoin="round" stroke-opacity=".3" stroke-width="__RESOLUTION__" d="m32.8 3.9.1.3m8 12.3q-3.9 3.6-4.7 9.7m-2.8-1.9.3-4q.3-3 1-5l.3-1.1m-2-10 3-1.3h.5M25.8 21.7l-1.4-.1h0l-.5-.1m14.5-8.2q1.6-2.7 3.6-3.2l5-1.3 5.2-.2.3.1M36.2 26.2l-1.4-1-1.4-.9m4.2-9.4.8-1.6m-.8 1.6q-1.7 3.8-2.8 10.4m-8.3-15.1.9-1.4q2.1-2.7 5.5-4.6m-6.4 6q-2.9 4.6-2.1 11.4" vector-effect="non-scaling-stroke"/><path fill="#c95630" d="M58.3 37.5q-2.7 1.2-3.8-2v-.1q-.2-.6.4-1.7h.1l.8-.2q-.9 2 2.4 3.5v.5m-.7 2.7.3-.2.9 1.6.7.5-.1.6q-2.1.1-1.7-2.5m-5.1 3q-1.9 1-2.4-1.1l.1-1.1q.8-.1 2.1 1.6zM56 42q-.3 4-2.4 2.7l-.1-.1v-.1Q53.9 41 56 42"/><path fill="#9c4325" d="M54.9 33.7q-.6 1.1-.4 1.7v.1q1 3.2 3.8 2l.2 1.8-.2.3-.4.3h-.1l-.2.3q-.9.5-1.6.6-1.4.2-2.5-1.1l-.6-1-.1-.1q.7-4 2-4.9"/><path fill="#d77655" d="M58.2 37q-3.3-1.5-2.4-3.5 1.6.2 2.4 3.5m-.4 3 .1-.1.4-.3q1.2 1.4 1.1 2.5l-.7-.5z"/><path fill="#672b18" d="m52.9 38.8.6.9q-1.1 1.6-1.1 2.9-1.4-1.7-2.1-1.6v-.1q.5-2 2.6-2.1"/><path fill="#80361e" d="M53.6 39.7q1 1.3 2.4 1.1.7 0 1.5-.6-.4 2.6 1.8 2.5l-.1.1-.7.8-1.5-.1-.9-2.2v.7q-2.2-1-2.6 2.5l-.1-.1q-.8-.5-1-1.2v-.6q0-1.2 1.1-2.9"/><path fill="none" stroke="#000" stroke-linecap="round" stroke-linejoin="round" stroke-opacity=".3" stroke-width="1" d="m58.3 39.6.2-.4-.2-1.7m-5.8 5.7q-1.9 1-2.4-1.1h0l.1-1.1m9.2 1.1q.1-1.1-1.1-2.5M56 42q-.3 4-2.4 2.7l-.1-.1v-.1l-.2-.1q-.8-.5-1-1.2m6.9-.5-.1.1-.7.8-1.5-.1-.9-2.2m-.2-7.8q1.5.2 2.3 3.5"/><path fill="#d05e3c" d="M46.2 46.6q2 .4 2.5 1l-1 .2-1.5-.4zm-1 4 .3 1.6-.2 1.2-1.4-1.8.2-2.2q.8.1 1.1 1.3m-6.6-8.4h.1q4.5-4.1 6.9 1.5l.4 1.4q-2 3-5.7.8-1.1-.5-1.5-2l-.1-1.5"/><path fill="#bb4d2d" d="m48.7 47.7.1.8-1.6.5-1.2-.5.1-1.1 1.5.4zm-3.5 5.7-.2.7-1.1.1-1.2-1.8v-1.7l.9-1.4h.5l-.2 2.3zm-7.1.6q-.9.3-2.1 0-2.6-.3-.6-2.8l1.4.1.9 1.2z"/><path fill="#893821" d="m48.9 48.5-.8 1.1-.1.1q-1.2.9-2.4.3l.5-1.5 1.1.5zM45 54q-.7 1.9-2.9.3l-.1-.1q-.7-1-.9-1.8-.3-1.4 1.2-2.6v-.1l.2-.1.1-.1 1-.3-1 1.4.1 1.7 1.1 1.8zm-8.4-3.8q-1.7-3.5 1.9-7.9l.1 1.5.1.2-.9 1.1-.4 3.1.9 1.8H38z"/><path fill="#c55230" d="m45.6 50-.4.7q-.3-1.2-1.1-1.4h-.5l-1 .3-.1.1-.1.1h-.1l-1.7 1.4-.5 1.3h-.5l.1-1.1q-.2-1.1-1.2-1.3h-.1l-.9-1.7.4-3.2.9-1.1q.4 1.4 1.5 1.9 3.7 2.3 5.7-.8l.2 1.4v.8l-.1 1v.1z"/><path fill="#672b18" d="M41.1 52.5h-1l.4-1.3 1.8-1.4q-1.5 1.3-1.2 2.7"/><path fill="#78311d" d="M39.6 52.5q-.2.8-.9 1.3l-.5.2-.4-1.5-1-1.1-1.2-.2 1.1-.9 1.4-.2h.4q1 .1 1.2 1.3z"/><path fill="none" stroke="#000" stroke-linecap="round" stroke-linejoin="round" stroke-opacity=".3" stroke-width="1" d="M46.2 46.6q2 .4 2.5 1m.2.9-.8 1.1-.1.1q-1.2.9-2.4.3m-.4.7.3 1.5-.2 1.2m-.2.7q-.9 1.9-3 .3l-.1-.1q-.7-1-.9-1.8h0-1m-.5 0q-.2.8-.9 1.3l-.5.2h0q-.9.3-2.1 0h0q-2.6-.3-.6-2.8m1.2-.9q-1.7-3.5 1.9-7.9m7.4 2.8.2 1.4"/><path fill="#ead2a8" d="m55.4 24.9.3-.1 1.5-1.1.5.8v.2l-.3 3.3q-1.5 11.3-6.2 6v-1.3l-.1-.2 2-.2 2.3-2.6-1.8-.9q.6-.4 1.4-.5-.7.1-1.4.5-1.9 1-2.6 3.5l-.5-2.8v-.2q.4-2.3 3-3.6zm-1 7.3-1.2.1z"/><path fill="#e6c793" d="m53.6 28.8 1.8.9-2.2 2.6-2.1.2v-.2q.6-2.4 2.5-3.5"/><path fill="none" stroke="#000" stroke-linecap="round" stroke-linejoin="round" stroke-opacity=".3" stroke-width="1" d="m55.4 24.9.3-.1 1.5-1.1.5.8v.2l-.3 3.3"/><path fill="none" stroke="#000" stroke-linecap="round" stroke-linejoin="round" stroke-opacity=".3" stroke-width="__RESOLUTION__" d="M51.1 32.5H51v-.2l-.5-2.8m3.1-.7q.6-.4 1.4-.5m-1.4.5q-1.9 1-2.6 3.5l.1.2 2-.2 1.4-.1" vector-effect="non-scaling-stroke"/><path fill="#faf4eb" d="m15.7 32.3-1.2-7.6 2.3 7.1 6.5.5-5.7 1.8.7 5.6-3-6.2-4.7-.2z"/><path fill="url(#a)" d="M-20.5-22.7q-1.7-1.7-1.7-4 0-2.4 1.6-4t4-1.7 4 1.7q1.7 1.6 1.7 4 0 2.3-1.7 4-1.6 1.6-4 1.6-2.3 0-4-1.6" transform="translate(31.5 60.2)"/><path fill="url(#b)" d="M6.9-14.7q-1.5-1.4-1.5-3.6 0-2 1.5-3.5 1.5-1.4 3.6-1.4 2 0 3.6 1.4 1.4 1.4 1.4 3.6 0 2-1.4 3.5-1.5 1.5-3.6 1.5t-3.6-1.5" transform="translate(31.5 60.2)"/><path fill="url(#c)" d="M4.2-37q2.9 1.8 2.6 3-.4 1.1-3.8 1-3.5-.1-8.1-1.5t-7.5-3.2-2.7-3q.4-1.1 3.9-1 3.4.2 8 1.5T4.2-37" transform="translate(31.5 60.2)"/></g></defs><g clip-path="url(#d)"><use xlink:href="#e" width="59.9" height="75.2" transform="translate(1 1)"/></g></svg>