<svg xmlns="http://www.w3.org/2000/svg" xmlns:xlink="http://www.w3.org/1999/xlink" width="56" height="155" viewBox="0 0 56 155"><defs><g id="d"><path fill="#8ab7a6" d="m2.1.4-.5.7H1L.9.5l.5-.5z"/><path fill="#4f586c" d="m.8.5.1.6h.7l.5-.7v2.1l-.7.4-.8-.1L.1 2z"/><path fill="#121d1d" d="m.1 2 .5.8h.9l.6-.3.1 3.5v.7l-.4.2-.5.2L1 7l-.4-.2-.3-1Q-.2 3.8.1 2"/></g><g id="c"><path fill="#121d1d" d="M3.6 0h.9l.5.2.8.4 1 1.2q.5 1 .5 2-.1 1.3-.9 2Q4.5 8 2 6.8 0 5.7 0 3.3v-.1l.1-.7.2-.5.3-.5.5-.6.3-.2.6-.4.5-.2h.2zm.7 1.7-.2-.1q-1-.3-1.8.3l-.8.8v.2q-.1.6.3 1.4t1.6 1.3L5 5l.7-1.2q-.1-1.6-1.5-2.1m-3-.6-.7.7L.4 3l.5.1.5-1.3 2.4-.7 1.3.4q.3-.3 0-.8l-1-.5-1.4.3-.9.1z"/><path fill="#4f586c" d="M2.7.5 4.2.2l1 .4q.1.6 0 .8l-.2.1-1.2-.4-2.4.7-.5 1.3L.4 3l.2-1.2.8-.7.5.4.8-.6z"/><path fill="#8ab7a6" d="m1.4 1.1.4-.5.9-.1v.4l-.8.6z"/></g><g id="b"><path fill="#34311b" d="m50.1 32.9-3.2 1.6-20.3 10.1-5.7-2.9-3.8-2-5.2-2.8-4-2-3.2-1.7L3 29.6l2-1 17.4-8.7 7.5-.4 18.4 9.6zl-1.7-3.8 2.5 2.4.7.6.1.1 1.4 7.2-2.2-4.8zm3 96.1v9.8l-.8.5q-5 2.7-13 4.6l-2.1.5q-5.1 4.8-10.5 7.7h-.1v-12.9l4 3.2 5.8-5.3 2.9-.3 6.8-1.5 3-4.8zM29.3 62.7l-2.7 3.1-2.7-3 .1-.1 2.6-1.9zM27 85.1v13.6l-2.3 1.1-6.2 3.1-.5.3-2-1.3V79.6l3.1 1.5 4.2 2.3h.4l2.9-.2zm10.6 15.7 2 2.5-.4 1-1.6 3-2.2-4-.1-.3zm-7.7 28.9-3.3 5.2-3-5h.4zm-3.3 1.5h.1zm12.6 12.6v-7.1z"/><path fill="#433f23" d="m46.9 34.5 3.2-1.6.8 1.7 2.2 4.8v9l-.4.6-2 3-2.2 1.1-4.5 2.2-1.5.8-2.5 1.2v.3l-10.3 4.9.4-.3-.9.5-2.6-1.9V44.7zm3 39 3 1.6h.2v18l-.7 1.1-2.1 3.8 2 .9.8.3V129l-4 1.5-3 4.8-6.9 1.5-2.8.3-5.8 5.3-4-3.2V135l3.3-5.2 7.7-3.9.4-.2 1.3-.6v11.7-11.7l-1.3.6-.4-.2v-18.2l1.6-3 .5-.9-2.1-2.5V79.6l2.4-1.2zm-23.3 9.7L31 83l3.2-1.6v21.2L27 98.7l-2.3 1.1-6.2 3.1-.5.3-1.5.8-.4.2v21.6-.2l10.9-5.5V85.2v.1-.3zM50.3 98l-10.6 5.4zm-16 4.6L27 98.7V120h.2l6.8 3.6-6.8-3.6-.2.1-11 5.5.2.2 17.8-2.2h.2zm17.6 16.2-12.5 6.3z"/><path fill="#847d46" d="m3 29.6 1.7 3.6-4.3 2.6 2.5-6z"/><path fill="#2a2416" d="M4.7 33.2 8 34.9l3.9 2 5.2 2.8 3.8 2 5.7 3v16.2L24 62.6l-.4-.2q-2.1-1-4.1-2.2L14 57.6l-1.7-.9-.3-.1-2.3-1.3L5 52.8l-2.8-1.4-.8-1.3-1.1-1.6V35.8zM26.6 135v4.2l-8 2.5-6.1-6.9v-10.2l.2-.4 3.2 1.5.2.1.1.2 7.3 3.8.2.1z"/><path fill="#7d6c36" d="M51.6 32.1h.1v.1zM27 85.1v.2z"/><path fill="#59542f" d="m50.7 52 2.2 2 .2.1v15l-3.2 4.4-9.9 5V57.2l2.5-1.2 1.5-.8 4.5-2.2z"/><path fill="#372f1d" d="M26.6 152q-6.4-2.4-12.9-9.5l-1.2.3q-4.3.3-8.8-2.2-1.6-.9-3.3-2.2v-10.3l7.7 1.8 4.4 4.9 6.1 6.9 8-2.5zm0-86.1v17.3l-3 .1h-.3l-4.2-2.2-3-1.5-1.2-.6-2.6-1.4v-21l1.7 1 5.5 2.7 4 2.2.4.3zm-14.1 77v-4.5z"/><path fill="#3c3320" d="M.4 128.1v-10.4l5 2.5 7 3.8v10.8l-4.3-5z"/><path fill="#785c2e" d="m.4 117.7 2-.5 3 3.1zm23.6-55-.1.1zm-8 39.2 2 1.3-1.5.8-.4.2-.2.1h-.1l-2-1.1-.1-.1 1-.5.3-.2z"/><path fill="#473d27" d="m2.5 117.2-2.1-2.3V99.4L2 97.2v.1l12.8 5-.1.3-1 .5.1.1 2 1 .1.1h.2v21.3l-.2.1-3.2-1.5-.2-.2-7.1-3.8zm-.6-44.4.5-.4-1.9-3.3V54.5l1-1.6.9-1.5 2.8 1.4 4.6 2.4 2.3 1.3.3.1v20.8l-2.3-1-2.1-.9zm9.9 29.2-2.4-1z"/><path fill="#b49a4b" d="m2 97.2.1-.1zm22 32.6h-.3l-.2-.2zm-.4-67.5.4.2-.1.1zm-9 40.1.2-.2h.2z"/><path fill="#55482f" d="M2.1 97.1.4 94.3v-20l1.4-1.5 6 2.7 2.2 1 2.3 1v.1L15 79l1 .6v22.3l-1 .5h-.2L2 97.3z"/><path fill="#625c33" d="m29.3 62.7.4-.2L40 57.6v20.8l-2.4 1.2-3.4 1.8L31 83l-4.4.2V65.8z"/><path fill="#635f34" d="m34.2 81.4 3.4-1.8V101l-2.3 2.2-1.1-.5 1.1.5.1.3 2.2 4V126l-7.7 3.9-6 .1-.4-.2-7.2-3.7-.1-.2H16l.1.1v-.1l17.8-2.2.2.1zm0 42.3 3.4 1.8z"/><path fill="#9d8744" d="M34 123.6h.2v.1z"/><path fill="#57532d" d="M12.5 124.2v-.2l.2.2z"/><path fill="#655736" d="M12.5 124.2h.2l-.2.4zm3.8 1.8-.2-.2z"/><path fill="none" stroke="#000" stroke-linecap="round" stroke-linejoin="round" stroke-opacity=".3" stroke-width="__RESOLUTION__" d="m46.9 34.5 3.2-1.6-1.7-3.8L30 19.5l-7.5.4-17.3 8.7M8 34.9l3.9 2m5.2 2.8 3.8 2M52.8 49l-2.1 3 2.2 2m.1 15.1-3 4.4 3 1.6m-.5 19.1L50.3 98l2 .9m-50.9-46 .9-1.5-.8-1.3m46.9-21 2.5 2.4m-.8 1.4.8 1.7m-2.4 18.5 2.2-1m-24.2 8.7V53m3.2 9.6-.4.2-2.7 3.1v17.4L31 83l3.2-1.6 3.4-1.8 2.4-1.2v-8.2m0-5.5V61m-10.7 1.7-2.7-1.9-2.6 1.9-.4-.2q-2.1-1-4.1-2.2m4.4 2.5 2.7 3m16-9.7 1.4-.8M27 85.4v-.3zv13.3l-2.3 1.1M27 85.1l-.4-1.9-3 .1m-4.5-2.2-3-1.5v5.8m0 15.8v.7l1.9 1.3.5-.3m19.1-23.3v5m0 12.9v3.4l2 2.5L50.3 98M40 78.4l9.9-4.9m-15.7 29.1 1.1.5 2.3-2.2m-2.3 2.2.1.3m3.8 1 .5-1m-5.5-.8L27 98.7v21.4h.2l6.8 3.5h.2m-4.4 6.2-3.2 5.2v3m12.6-1.2v-11.7l-1.2.6-.4.2-7.7 3.9-6 .1h-.2l2.9 5.1m11-9.1v-.4l-3.4-1.8m3.8 2-.4-.2V122m1.6 3.1 12.6-6.3M26.6 152v-2.2m12.6-13v7.1M9.8 55.2l2.3 1.3m.3.1 1.7 1m10 5.1-.1.1h0m0 0-.3-.3m-21.3-11 2.8 1.3M10 76.4l-2.1-.9m4.4-10v-8.9M15 79l1 .6m-2.2 23.6 2 1m.7-.2 1.5-.8m-3.3-.6.3-.2 1-.5m-6.6-1 2.3 1.1m.8 22.1.2.1 3.2 1.5.2-.1v-9m-3.6 8v5.4m11-.2.5.1m-.3 0-.2-.2-7.2-3.7h0l-.2-.2h-.2m.2-.2 10.9-5.5m-10.8 5.7-.1-.2m0 .2.1.1zm-3.6 12.4v4.4" vector-effect="non-scaling-stroke"/><path fill="none" stroke="#635f34" stroke-linecap="round" stroke-linejoin="round" stroke-width="__RESOLUTION__" d="M.4 128.1v-10.4m2-.6-2-2.2V99.4L2 97.2M.4 94.3v-20l1.4-1.5.5-.4M.4 69.1V54.5l1-1.6m0-2.8-1-1.6V35.8l2.5-6 .2-.2" vector-effect="non-scaling-stroke"/><path fill="#201e13" d="m48.4 9.9 2.5 2.4.8.7 1.4 7.2v9l-.4.6-2 3-2.2 1.1-4.5 2.2-1.5.8-13.2 6.6-2.7-1.9V25.5l20.3-10.2 3.2-1.6z"/><path fill="#2a2416" d="M26.6 41.6 24 43.5l-.4-.2q-2.1-1-4.1-2.2L14 38.3 9.7 36 5 33.6l-2.8-1.4-.8-1.3-1.1-1.6V16.6L4.7 14l21.8 11.4.1.1v16.2"/><path fill="#504b29" d="m.4 16.6 2.5-6 .2-.2L4.7 14zm13.3-9.5 3.2-3.6 3.9 5z"/><path fill="#2a2816" d="m3 10.4 2.2-1 6-3 2.5.7 7.1 1.4-3.9-5L22.5.7 30 .3l18.4 9.6 1.7 3.8-3.2 1.6-20.3 10.1h-.1L4.7 14z"/><path fill="#b79f57" d="m26.6 25.4-.1-.1z"/><path fill="none" stroke="#000" stroke-linecap="round" stroke-linejoin="round" stroke-opacity=".3" stroke-width="__RESOLUTION__" d="m48.4 9.9 2.5 2.4m1.9 17.5-2.1 3-2.2 1.1M44 36.1l-1.5.8m-13.2 6.6-2.7-1.9-2.6 1.9m-.4-.2q-2.1-1-4.1-2.2M14 38.3 9.7 36M5 33.6l-2.8-1.4-.8-1.3M5.2 9.4l6-3m5.7-2.9L22.5.7 30 .3l18.4 9.6 1.7 3.8-3.2 1.6M26.6 33.7v8" vector-effect="non-scaling-stroke"/><path fill="#000" fill-opacity=".1" d="M44.8 17.1 42 28.5q-2 9 1.6 48-5-43.3-7.1-37.1l-6 12.5 6-13.4Q37.8 32.1 34 22q-5.3-4.9-10.2 3-2.4 5-2 11l-1.3-12.5Q18.3 15 7.2 13.9q9-6.2 10-11.2 12.7 4.1 23.2 3.4 0 4.4 9.5 7.6l2.9 6.2v9.9L51.3 32l1.5 5.6v11l-2 3.1 2 1.9v1.7q-1.3-3-5.3 5.4 2.4-44.5-2.7-43.6"/></g><clipPath id="a"><path d="M1 1h54v153H1z"/></clipPath><path id="e" fill="#402618" fill-opacity=".5" d="m4.1 43.3 1.2-.2q-.5 3.9 5.2 6.2-4.5-.2-3.7 2.4l-.2 7.4q-.3-4.9-2.5-6.3-4.1-2.4-10.2-.9-1.6 1.6-1.6 3.3-.2-2.7-2.6-5.3v-1q2.2-1.2 4.2-3.1l.1-.4q1.5-3.6-1-7.1 3.8 3.5 5.1 2.2l1.4-1.3q.6-.7.7-1.9 1.7 3.3 3.3 2-2.1 2.7.6 4m2.5 17.9.8 3-1 .3zM-8.9 42.4q1.9-.6 1.9 3-2.4.6-2-2.8zm1.4 14.5.4 3.4-.7-.3v-.2z" transform="translate(10.35 -37.3)"/></defs><g clip-path="url(#a)"><g transform="translate(26.6 138.45)"><use xlink:href="#b" width="53.4" height="152.3" transform="translate(-25.6 -137.45)"/><use xlink:href="#c" width="7.3" height="7.2" transform="matrix(.9042 .8054 .6569 -1.4051 13.95 -43.25)"/><use xlink:href="#d" width="2.3" height="7" transform="matrix(1.0819 -.2427 -.231 -1.6028 19.7 -31.6)"/><use xlink:href="#e" width="20.9" height="27.1" transform="translate(-9.2 -23.9)"/></g></g></svg>