<svg xmlns="http://www.w3.org/2000/svg" xmlns:xlink="http://www.w3.org/1999/xlink" width="57" height="115" viewBox="0 0 57 115"><defs><g id="d"><path fill="#708b2c" d="M3 11 2 8.4Q1 5.2.3 1.5L2.8.3q1.1 3 3.6 6.3Q7.9 3.7 8.5.2h1.8q.4 3 0 6 1.1-.5 2.4-.5.3.7.4 2.3-1.1.3-1.8 1.6-4.1 1.5-8.2 1.3m6.7-2.7.5-2z"/><path fill="none" stroke="#394716" stroke-linecap="round" stroke-linejoin="round" stroke-opacity=".5" stroke-width="__RESOLUTION__" d="M3 11 2 8.4Q1 5.2.3 1.5L2.8.3q1.1 3 3.6 6.3Q7.9 3.7 8.5.2h1.8q.4 3 0 6 1.1-.5 2.4-.5.3.7.4 2.3-1.1.3-1.8 1.6m-1-3.3-.6 2" vector-effect="non-scaling-stroke"/></g><g id="e"><path fill="none" stroke="#000" stroke-linecap="round" stroke-linejoin="round" stroke-opacity=".3" stroke-width="__RESOLUTION__" d="m14.3 35.6 2.3 2.8" vector-effect="non-scaling-stroke"/><path fill="#7c5703" d="m12.8 8.5 1.9 3.4 1 1.8.7 1.4 1.6 3.5.6 1.8.9 2.5.3 1.4.4 2.6q.9 6.9-2.6 14.5l-5 3.1q9-20.3-8.5-43L6.9 0l4.3 6.1z"/><path fill="#7c5703" d="M2.1 2.3q2.6 3.3 4.4 6L7.6 10 9 12.5l.7 1.3.6 1 1 2.5.6 1.3.6 1.8.2 1 .6 6.3q.3 5.3-2.2 16.9l-5 1.6Q13.3 20.5 0 3.5z"/></g><g id="g" fill-opacity=".8"><path fill="#9c7130" d="M9.8 11.4q2.3 4 5.3 6.2-5 .5-8.8 5.1L.4 18.5l2.4 5.9L0 22v-4q6.2 1.1 9.5-7.1z"/><path fill="#8c6929" d="M15.1 17.7q-3-2.3-5.3-6.3 2 1.8 9.4-1.8 3.3-1.5 3.7-4.1l.6.8 4.6 6q-4.4 0-13 5.3M30.9 10l-3.5-5.5q3.7.7 7.1-4.4v4l4.4 2.3q-7.7.3-8 3.6"/><path fill="#755424" d="m2.8 24.3-2.4-6 5.9 4.4q-2.6-.7-3.5 1.6m25.3-12-4.7-6q1.3.8 4-1.9l3.5 5.5q-4.4-.2-2.8 2.4"/></g><g id="j" fill-opacity=".8"><path fill="#7c5a26" d="M9.8 11.4q2.3 4 5.3 6.2-5 .5-8.8 5.1L.4 18.5l2.4 5.9L0 22v-4q6.2 1.1 9.5-7.1z"/><path fill="#705420" d="M15.1 17.7q-3-2.3-5.3-6.3 2 1.8 9.4-1.8 3.3-1.5 3.7-4.1l.6.8 4.6 6q-4.4 0-13 5.3M30.9 10l-3.5-5.5q3.7.7 7.1-4.4v4l4.4 2.3q-7.7.3-8 3.6"/><path fill="#5d431c" d="m2.8 24.3-2.4-6 5.9 4.4q-2.6-.7-3.5 1.6m25.3-12-4.7-6q1.3.8 4-1.9l3.5 5.5q-4.4-.2-2.8 2.4"/></g><g id="k"><path fill="#e48323" fill-opacity=".8" d="m5.1 59.8.9-.6q.3-.4 1-.8l1.3-.9L11 56l2-.9q3.7-1.6 9-2.9v1.5l-.1 2.7v.4Q14 58.6 9.2 62.3z"/><path fill="#a6641a" fill-opacity=".8" d="m9.2 62.3-1 .8-4.1-2.4 1-.9z"/><path fill="none" stroke="#000" stroke-linecap="round" stroke-linejoin="round" stroke-opacity=".2" stroke-width="__RESOLUTION__" d="m21.9 53.7-.1 2.7" vector-effect="non-scaling-stroke"/><path fill="#fd840b" fill-opacity=".8" d="m41 20.2 1.3 2-3.4 1.6-.8-2.2z"/><path fill="#feae5f" fill-opacity=".8" d="M38.1 21.6Q24.9 15.3 21.7 8L0 9.3l6.6-3.5H21q-.6-2.5 0-5.2l3.6-.6q-.9 2.8-.2 5.4l4.9-3.2 3.7 2-7.8 3.5q3.3 6.6 15.8 12.5z"/><path fill="#a6641a" fill-opacity=".8" d="M42.3 22.3q-.6 5.5-1.5 9.6l-.5 2.2-1 3-.5 1.5-.5 1.3-1.3 3-.7 1.5-1.2 2-.8 1-1.5 2q-4.3 5.1-11 7v-4q14.7-6 17-28.6z"/><path fill="#a6641a" fill-opacity=".8" d="M34.3 47.5 42 59.4l-3.9 2-5.4-12zm4-7.5 16 7.8-1.6 3.8L37 43zM54 30.2v1.2L52.5 34H40.3l.5-2.2zm-18.8 3.3-.7 2.3-.4 1-.4 1-.9 2.1-.5 1.1-.9 1.5-.5.8-1.1 1.4q-3.2 3.6-8 5v-2.9q10.7-4.3 12.3-20.7l2.5-1.2q-.4 4-1 7z"/></g><g id="m"><path fill="#ab9b51" d="M22.8 4.7 32 0l5.6 1.7v10.8l-.1.3-3.9 3-7.8 1.6-2.7-1.1-1.7-5 .8-3.9.4-.8v-2m8.6 13 .3-.1 3.7-1.5 1.3-.5 1.1.7v9l-4.1-2q-3.3-2-4.3-4.7z"/><path fill="#a29246" d="M22.8 4.7v1.6l-.1.3-3.1 2.8h-2.4l-.2-.2-1.1-.8 1.6-1.1zm-2.3 7 .9 4.4-.1-.1-1.4 5.4-.3 1.4-2-1.3-4.8-7.1-.7-1.5-.2-.2-.5-1.1-2.2 1.6-3.8 8.1v7.2l2.4 2 5.6-1 4.2-6.2-4.8-9-.7-1.4 5.8 5.2 1.5-.8 1-2.1-1-4.3zM20.1 31l1.2-4.6 4.3-4.2 12.1 4.1v2.3L36 33.4q-2 2-4.4 3.5l-2.8 1.8h-1.9q-1.4 0-2.3-.7-.6 2-4.1 3.9l-1.3.5-1.1-3.5zl1.5 1.1.9.3h2.9v-1.6 1.6h-2.9l-.9-.3zm10.3-3.3H29q-.2-1-2.1-1.1t-1 1.7q-1-1.8 1-1.7 1.9.1 2.1 1.1zm-1.3 0q.3 1.3-1.2 3.4-.9 1-2.5 1.3 1.6-.4 2.5-1.2 1.5-2.2 1.2-3.5m-9 6.7 1.5-2.3z"/><path fill="#958641" d="m22.7 6.6-.4.9-1.8 4.2-1.1-.8-.1-.1-2-1.5h2.3zm-1.3 9.5 2.4 3 .1.2-.3 1.7-2 1q-1.1.1-1.7-.6l1.4-5.4z"/><path fill="#a89548" d="m22.3 7.5-.9 3.8 1.8 5 2.7 1 7.9-1.5 3.8-3-1.1 1.6-1.2 1.7-3.7 1.5-.3.1-7.5 1.4-2.4-3-.9-4.5z"/><path fill="#7a6e36" d="m23.8 19.1 7.5-1.4-2 .9q1 2.6 4.3 4.6l-7.1-3.4-1.6.6-1.3.6.3-1.7zm11.5-3 1.2-1.7 1.3 1.8-1.2-.6zm-15.7 6.8-1 2.5-1-2.1-4.8-9 4.8 7.2zM7 47h4.7l.8-.6q3.7-2.8 3.7-4.3 1.2.9 3 .5l1.3-.5q3.5-2 4-3.9 1 .6 2.4.8h.2l1.7-.1 2.8-1.7q2.4-1.6 4.4-3.6l-.9 2.3-1.8.9-7.9 4L21 43l-4.4 2-1.9 1-1.5.8-5.5 1.9-2-1.9z"/><path fill="#988944" d="m23.6 21 1.3-.6 1.6-.6 7.1 3.4 4.1 2.1v1.1l-12-4.1-4.4 4.3-1.2 4.5q-1.4-1.3-2.1-3.6l.6-2.1 1-2.4q.9-.6 2-1zM18 27.5q.8 2.3 2.1 3.6l-2 7.9 1.1 3.5q-1.8.4-3-.5l.1-3 .3-3q.1-2.3.5-4.3z"/><path fill="#8d7e3d" d="M20 21.4q.5.7 1.6.6-1.1.4-2 1v-.2zM13.7 36q2.5 2 3 0l-.3 3z"/><path fill="#9d8e45" d="m18.7 25.4-.7 2.1-.9 4.2q-.4 2-.6 4.3-.4 2-3 0v-.1l1-.6.7-.7v-1 1l-.6.6-1 .7-1.7-1.6q-2-2.2-4-3.8l5.4-1 4.3-6.2zm-3.5 9.3 2-2.9zm.5 1.3-1-.6z"/><path fill="#a89b48" d="m15.9 8.4 1.1.8.3.2 2 1.4.1.1 1 4.3-1 2.1-1.5.8-5.8-5.2-.2-.2-.5-1.1z"/><path fill="#a9984d" d="M7.9 30.5q2 1.6 4 3.8l1.7 1.6 2.7 3.1-.1 3q0 1.5-3.7 4.3l-.8.6H7l3.5-.8 2.6-2-.8-1.5h1.5l-.6-3.2-1.9-.1 1.6-1.4-2.3-2.9q.6-.5 1.3-.7-.7.2-1.3.7l-1.9-2.4-3.3-2.4v-1.7z"/><path fill="#ad9d55" d="M10.2 37.9h-1q.3-1.6 1-2.5l.4-.4-.3.4q-.9.9-1.2 2.5zm.4-2.9 2.3 2.9-1.6 1.4 1.9.1.7 3.3h-1.6l.8 1.4-2.6 2-3.5.8H5.4V30.2l3.3 2.4zm.8 6.3v2q-2-.7-2.4-2.4l-.1-1.1q0-1.1.3-2l-.3 2 .1 1.1q.4 1.7 2.3 2.5zm-3.3-.4H9zm1.5-6.4.8.9z"/><path fill="#91833f" d="M5.4 46.9h.3l2 1.9-.4.1H3.7L0 48z"/><path fill="none" stroke="#212011" stroke-linecap="round" stroke-linejoin="round" stroke-opacity=".2" stroke-width="__RESOLUTION__" d="M22.8 4.7v1.6l-.1.3h0l-.4.9-1.8 4.2.9 4.4 2.4 3 .1.2-.3 1.7-2 1q-1.1.1-1.7-.6l1.4-5.4.1.1m16.2-3.4.1-.2m-6.4 5.2.3-.1 3.7-1.5 1.2-1.7m-2.9 8.9q-3.3-2-4.3-4.7l2-.9M21.6 22q-1.1.4-2 1l-1 2.4-.6 2.1q.8 2.3 2.1 3.6l1.5 1.1.9.3h2.9v-1.6m12.4-5.6-4.2-2M15.9 8.4l1.1.8m2.3 1.6-2-1.5m-5.9 2.3.5 1m7.5-1.7 1.1.8m-7.6 2.7-.8-1.5m7.5 9.9v.1m-6.8-8.5 4.8 8.9 1 2m1.3-4-.3 1.4m-6 13.2 1-.6.6-.7v-1m-7.3-3.2q2 1.7 4 3.9l1.7 1.6h0m3 0q.1-2.2.5-4.2l-2 2.9m-4.5.4-.3.4q-.9.9-1.2 2.5h1.1m1.8-3.6q-.8.2-1.4.7m5.6 7 .1-3m-1.7-3.7 1 .6m1.5-4.2.9-4.2m-10.1 3-2.5-2m3.8 9.4-.3 1.9.1 1.1q.4 1.7 2.3 2.5l.1-2.1M9 40.9H8m2.3-5.5-.8-.9M26 28.4q-1-1.8 1-1.7 1.9.1 2.1 1.1h1.3m-5 4.7q1.6-.4 2.5-1.2 1.5-2.2 1.2-3.5m-7.5 4.4-1.5 2.3" vector-effect="non-scaling-stroke"/><path fill="none" stroke="#212011" stroke-linecap="round" stroke-linejoin="round" stroke-opacity=".3" stroke-width="__RESOLUTION__" d="M37.8 12.5V1.7m-1.3 12.7 1.1-1.7m.1 3.6-1.2-1.9M14.7 46.1l1.9-1M21 43l4.4-2.3m7.9-4 1.9-1 .8-2.2 1.8-4.9v-2.2m0-1.1v-9" vector-effect="non-scaling-stroke"/></g><g id="E"><path fill="#8bae37" d="M20.8 2.7v1.5l-3 1.5 4.3 1q.4 5.6 1.7 8.4l-2 1.2q-4.2 3-5.2 6.2l-1-1.7q-1.6-3.6-2.5-7.6l2.2-2.3h-2.7q-.4-2.7-.5-5.5 5-.3 8.7-2.7M24.1 16l1 1.2-3.9 1zm1 2.3q2 3.9 5.5 7.5-1 .5-2.3 1.5-2.1 1.5-4.7 4.1-3.4-3.4-6.4-8 2.5-3.6 6-4.7zm3.4 9.6q1.7-1.2 2.9-1.5l1.4 1 4.3 5-1.8 4.3-4.1 1.6-3.4-2.5-3.4-3.5q2.3-2.9 4.1-4.4m-6.4 5.2q4 4.3 7.1 6.4-12.3 4.1-17.7-1.7 4-3.7 7.1-4.6zM2.6 12.2Q7 10.3 10.3 7l.5 4.5L9 14h2.2q1.1 5 3.1 8.3l-3.9.5q-3.7 1-6 4.2l-1.5-.7q-1.3-3-1.5-7 3-2.1 6.2-5.1l1.7-2.7Q5.9 13.3 3 13.8zM11 23.5l4 .1q3.1 5.2 6.3 8.4l-3.4.1q-3.6.7-7 4.8-3.3-3.1-6.6-8.4 3.3-4.2 6.7-5"/><path fill="#81a233" d="M20.8 2.7q-3.7 2.4-8.7 2.7.1 2.8.6 5.5h2.6l-2.2 2.3q.9 4 2.5 7.6l1 1.7q1-3.2 5.3-6.2l1.9-1.2q-1.2-2.8-1.7-8.3l-4.4-1 3.1-1.5zm0-1L21.9 3l-.4 1-2.1 1.6h3.4q.3 10.1 11.5 22.1l3.9 3.9v2.7l1.5-1.3 1.4 1.3q-4.1 4-8.4 5l-1.7.2-.4-.3.4.3Q24.7 44 18.5 46l-1.6-1.3 3.3-2q-2.8.4-6.3-.7Q1.1 29.4.2 18.7l7.9-6q-2.4 1.4-4.6 2.1l-.4-1q2.8-.6 6.2-2.3l-1.7 2.7q-3.2 3-6.1 5 .1 4 1.4 7l1.4.8q2.4-3.2 6.1-4.2l3.9-.5q-2-3.4-3.2-8.3H9l1.8-2.5-.6-4.5q-3.1 3.3-7.6 5.2l1-1.4.8-.4q4.4-2.3 6.8-6.1 4.2.2 9.6-2.6m7.6 36Q9.1 20.7 11.2 4.4 9 20.6 28.4 37.8M24.2 16l-3 2.1 3.9-1zm1.1 2.3-2 .4q-3.4 1-6 4.7 3 4.6 6.5 8 2.6-2.6 4.7-4.1 1.3-1 2.3-1.5-3.5-3.6-5.4-7.5m3.4 9.6q-1.8 1.5-4.1 4.4l3.3 3.5 3.5 2.5 4-1.6 1.9-4.4-4.3-5-1.4-.9q-1.2.3-2.9 1.5m-6.4 5.2-3.5.1q-3.2.9-7.1 4.6 5.4 5.8 17.8 1.8-3.1-2.2-7.2-6.5M11 23.5q-3.3.8-6.6 5 3.3 5.3 6.6 8.4 3.4-4 7-4.8l3.4-.1q-3.2-3.2-6.2-8.4z"/><path fill="#a68649" d="m21.5 4.1.4-1.1-1.1-1.3L23.6.1Q23 1.5 22.9 3zM3.1 13.8l.3 1-3.3.7q.2-1.9.8-3.6l2.7-1.1-1 1.4z"/><path fill="none" stroke="#000" stroke-linecap="round" stroke-linejoin="round" stroke-opacity=".3" stroke-width="__RESOLUTION__" d="M20.8 1.7q-5.5 2.8-9.6 2.6Q9 20.6 28.4 37.8M20.8 1.6 23.6.1Q23 1.5 22.9 3l-1.4 1.1-2.1 1.6h3.4q.3 10.1 11.5 22.1l3.9 3.9m1.5 1.4 1.4 1.3q-4.1 4-8.4 5l-1.7.2 1 .5m-1-.5-.4-.3M3.4 14.8q2.2-.7 4.6-2.1l-7.9 6q1 10.7 13.7 23.4m3 2.7 1.6 1.4Q24.7 44 31 39.6M4.4 10.4q4.4-2.3 6.8-6.1M3.5 14.8l-3.4.7q.2-1.9.8-3.6l2.7-1.1" vector-effect="non-scaling-stroke"/><path fill="none" stroke="#000" stroke-linecap="round" stroke-linejoin="round" stroke-opacity=".2" stroke-width="__RESOLUTION__" d="m25.4 15.2-2.8.7m8.6 8.1-1.7-.8m-4 15.7q2.4-1.5 3.7-.6.6-1 2.4-1.9m-1.5 2.9 1.6.6m.6.2.9.2m5-5.9-1.7 1.3m-1.8 4.6 1-.2m-3.9-11q-4.2 2.8-3.7 8.4-6.6-4.9-10.6-2.6l-.6 2.6 4 .5m9.2-5.8 3.5.6m-14.2-27-1.6.5M1.3 23.4l1.3-1.6m10.6-10L11.6 13h-1.2m5.8 15-1.5.5m-4.2-5.4-2.1.5m8.4 1.3q-1.6-1.6-3.9-1.9M3.1 13l1-.7M.5 13.6l1.2-.1m18.5 29.2 3.4-2.3M21.4 25q-2.6 2.8.2 5.8-1.9-1.7-3.4-2.3" vector-effect="non-scaling-stroke"/><path fill="#873" d="m35.8 34.6 2.4 1.3v2.5l-6.5 2.4-3-3q5.6 3.5 7.5-.5l-1.8-2.1zm1.6 2.7h-1.2z"/><path fill="#bfa951" d="m31.7 40.8 6.5-2.4V36l-2.4-1.3 2-.9 2 1.3-.5 3.9-.5 1.3q-3.2 1.3-7.1.6"/><path fill="none" stroke="#000" stroke-linecap="round" stroke-linejoin="round" stroke-opacity=".3" stroke-width="__RESOLUTION__" d="m35.8 34.6-1.4.6 1.8 2.1h1.2m-1.6-2.7 2-.9 2 1.3-.5 3.9m0 0-.5 1.3q-3.2 1.3-7.1.6m-3-3q5.6 3.5 7.5-.5" vector-effect="non-scaling-stroke"/><path fill="none" stroke="#fff" stroke-linecap="round" stroke-linejoin="round" stroke-opacity=".5" stroke-width="__RESOLUTION__" d="m34 39.2-.8 1.7m1.9-2.3-.5 2.3m1.7 0-.5-3Q21.6 26.5 11 4.2" vector-effect="non-scaling-stroke"/></g><g id="C"><path fill="#998433" d="M4.9 2.8q4.3-5 7.9 0-4.3 4-7.9 0"/><path fill="none" stroke="#000" stroke-linecap="round" stroke-linejoin="round" stroke-opacity=".3" stroke-width="__RESOLUTION__" d="M12.8 2.8q-3.6-5-7.9 0" vector-effect="non-scaling-stroke"/><path fill="#998433" d="M4.2 4.1q-2.2 2-4 0 2.2-2.5 4 0"/><path fill="none" stroke="#000" stroke-linecap="round" stroke-linejoin="round" stroke-opacity=".3" stroke-width="__RESOLUTION__" d="M4.2 4.1q-1.8-2.5-4 0" vector-effect="non-scaling-stroke"/></g><g id="A"><path fill="#c1a846" d="M32.8 39q-4.2 4-7.8 0 4.3-5 7.8 0"/><path fill="none" stroke="#000" stroke-linecap="round" stroke-linejoin="round" stroke-opacity=".3" stroke-width="__RESOLUTION__" d="M32.8 39q-3.5-5-7.8 0" vector-effect="non-scaling-stroke"/><path fill="#eae2be" d="m29 10-7.5-1.9L22.8.9 24 2.5zm3.8 22.7-2.5-4.1-3.4-.3-3.9-6.6 8.7-6.9q4 7.8 4.9 13.7z"/><path fill="url(#a)" d="m7.6-43-1.3 7.3 7.5 1.9 2.7 4.8-8.6 7 3.8 6.7 3.4.2 2.5 4.1-3.9 4.3-2.4-2.7Q5.9-5.2-1.2-7.2L0-13.5l-5.8 2.3-4.9-2.6q4.7-21.4 16-29.7 1.3-.1 2.3.6" transform="translate(15.2 43.85)"/><path fill="url(#b)" d="M5.3-43.6Q-6-35.3-10.6-13.7l4.9 2.4L0-13.4-1.2-7q7 1.8 12.4-2.4l2.4 2.7 3.9-4.3 3.8-4.2q.4 2.5.2 4.5-17 18.6-32.1 4.6-9.6-9.9 1.4-21Q0-43.1 5.2-43.5" transform="translate(15.2 43.85)"/><path fill="none" stroke="#000" stroke-linecap="round" stroke-linejoin="round" stroke-opacity=".3" stroke-width="__RESOLUTION__" d="m29 10-4.9-7.5L22.8.9q-1-.8-2.2-.6-5.2.3-14.4 16.4-11 11-1.4 20.9 15 14 32.1-4.6.2-2-.2-4.4-.9-6-4.9-13.7z" vector-effect="non-scaling-stroke"/><path fill="#403715" d="m21.4 11-.7-2-.4-.5.4.4.3.3.5 1.7.1.7.3 1.7.3-.2q-.1.3.2 1.3l-1 .1v-.2l.1-.6.4-.4h-.4v-.1zm13 24.3q-.6-1.2-.5-2l-.2-1.4-1.2-2 1.2 1.5q.8 1.3.8 3.9M29.4 26l-1.7-1.8-.1-.1-2.2-2.1-.2-.1q-.1.8-.4 1l-.4 3.6-.1.2q0-3.8.2-5.3l-1.2-.6q-.3-.9-.2-3.3v-1l.1.3.3 1.9q-.1.8.3 1.6-.2 0 0 .2.1.2.4-.2.2.6.4.6l.2-.1.1.2q3.4 3.4 4.5 5m.1 10.2q-1.1-.4-2.4-1.3T25.3 33l-.4-1.7.3 1 .4.7h.3q1.6 2.8 3 2.5zm-5.2-5.4-.7-5.9q.2-.3.6 2v2.5z"/><path fill="#665822" d="m20.8 8.9.4.6.3 1.1.1.3.3 1.7q.1.2 1 .4 0 1.3.6 3.2.5 1.8.6 3.9l.3-.4h.5q.3.7 4.7 6.2.9 1 2.3 1.4l.1.6h1.3q-.2.4 0 .7h.3l.6.2 1.1.4.5.2 1.5 1.3h-.1l-1.7-1.2-.2-.1-1.7-.6-.6-.2V28h-1l-.2-.1v-.5l-1.7-.9 1 1.2v.1l2.6 3.1 1 2v2.5h-.2v-.1q0-2.6-.8-4L32.5 30l-.4-.7-.3-.4-.6-.4-.2-.4-1.6-2V26q-1.1-1.6-4.5-5l-.1-.2h-.2q-.2 0-.4-.5-.3.4-.4.2t0-.2q-.4-.8-.4-1.6l-.2-2v-.1l-.3-2-.4-.3h-.1q-.3-.9-.2-1.2l-.3.2-.2-1.7-.2-.7-.5-1.7zM25.4 22l-.6 3.8-.3 2.7 1.5 4.3.4.3q.9 1.4 2.2 2 1.3.5 1.9 1.5h1.8l1 .2.5.1.7.3.2.1-5.7-.8q.1-.2.6-.2h.1l-.2-.1-.6-.7q-1.4.3-3-2.5h-.3l-.4-.7-.2-1-.2-.8-.6.4v-1.4L24 29v-2l.1.3v-.6l.2-.2.4-3.6q.3-.2.4-1zm-3.9-8.2v-.6.2l.4-.2zm-.1-2.7-.1-.1m-1.9 5.4h.1z"/><path fill="none" stroke="#000" stroke-linecap="round" stroke-linejoin="round" stroke-opacity=".3" stroke-width="__RESOLUTION__" d="M19.1 41.1 17 38.9h-2m-1 2-1.5 1.7M5 24.6 4.3 26m-.6 1-.8 2.4m-.1 3.1q.3 3 2.6 5.9" vector-effect="non-scaling-stroke"/></g><g id="y"><path fill="#998433" d="M11.8 3.9Q5.5 9.6.3 3.9q6.2-7.2 11.5 0"/><path fill="none" stroke="#000" stroke-linecap="round" stroke-linejoin="round" stroke-opacity=".3" stroke-width="__RESOLUTION__" d="M11.8 3.9Q6.5-3.3.3 3.9" vector-effect="non-scaling-stroke"/></g><g id="s"><path fill="#e0ddba" d="M37.4 8 39 6.7l9.3 4.7v1.9l-8.7 4.1-3.3-2 .2-5.2zl-1 2.2-2.7 7-9 .8h-.1l-6-2.3-4-1.6-.2-1.2 9.9 3.2 7-.8 3.4-2.9 3.7-7zm-8.2 18-3 6.5-1.9-6zm0-25.4 3.7 2-7.4 1.7-6.5-.5 2.3-1.3zm-7.1 4.2-1.7 2-6.4 3.5v.4l.4 2.2.3 1.2 4 1.6-2.4 1.6 3.7.8.5 1.4.7 2.1-.8.5-1-.3h-.1l-1-.5-4.4-2.2h-.1v-2.2l.1-1.2-4.5-5.2-1-1.1 9.8-5.3zM9.4 10.4l4.7.3zm4.5 6.4 2.3.4z"/><path fill="#b6a35a" d="M39 6.7 37.4 8l1.1-2.6zm-2.5 3.5-.2 5.3 3.3 2-4.5-1.3-1.4 1zM22.1 4.8l1.6.2-3.2 1.8zm-3.7 16.5.9.5.6.5-1.6.9-.2.3-2.4 1.1-1.7-1.1-.3-.9 2 .4zm2.8.3-.7-2 3.4 1.6H22z"/><path fill="#d0ca95" d="m39.6 17.5 8.6-4.2v-3l3.9 6.2v.3l-4.5-1.3L36 21.3l-6.6 4.8-4.9.4-2.8-2.6-1.7-1.6.5-.2 5.9 1.3 3.6-1.3-1.6-.9h-2.2L24.9 18l8.9-.9-4.7 3.2 1.2 1.6zM.4 16.8v-.4L3 11l2.5 3.8zm20 5.3-.5.2-.5-.5z"/><path fill="#eae7d0" d="M48.3 11.5 39 6.7l.8-.7 8.4 4.3zM8.5 8.1 16.8 4l1.4.1-9.7 5.3h-.1zm8.9-4.5 5-2.5 6.4-.7.4.2-7.9 1.9-2.4 1.3zm3.5 7.5V8.8l8.4-3 .5 5.6-2.5 1.5zm9 1.6.9 1.2h-2.1v-.8zm.8-2.8-.4-2.7L33 8.7z"/><path fill="#cbbd89" d="M26.3 32.6v5.7l-.4.2h-5.1l-3-2.5-1.4-2.3v-1.8l1.8-5.7 1.2.7L19 25l1-1 1.6-.1 2.8 2.6 1.9 6m-24.7 10L.4 38.8v-3.6l1.2-.7-1.2-.3v-.7h2.7L5 31.4 2.3 21.2l-.9-1.3-1-1.2v-1.9l5-2 8.4 4.3v1.8l-.4.5-1.1 1H6.6l-1.9.3-1.9-1-.5-.5.5.5 1 1.4.4 1.5 2.3 8.1q-.6 2-1.9 2.5l-3-.7 3 .7 2 .4 2.8 2.8-.2 2-4.5 2.3z"/><path fill="#c7b985" d="M26.3 38.3v1.5L19.7 42l-4.3 3.3v1l.4 3.7-.2-.2-.8-2-.8-2 1-1.4 3.9-3.2.2-.2 1-.3 5.8-2.2z"/><path fill="#c4b580" d="M26.3 39.8v13.3l-2.9.6-7.6-3.7-.4-3.7v-1l4.3-3.3z"/><path fill="#b39f55" d="m23.4 53.7-1.5.3-2.7-1.4-2.4-1.3-6.5-3.2-.4-.2-2.3-1.1-1.5-.8-2.4-1.3-1.4-.7 3.6.3 1.2.8 6.3 3.4 2.2 1.3.2.2z"/><path fill="#c6b77d" d="M2.3 44h-.2l-.5-1.5 3.1.2 4.6-2.3.1-2-2.9-2.8.7.1v.1l.2.2 1.8 1.7 1.8 1.1q.6 1 .4 2.2l-2.7 1.8.2.1-3 1.4zm17.6-21.8 1.7 1.6h-1.7L19 25l.5 1.9-1.2-.7-1.7 5.7v-4.4l.4-2 1.2-2 .1-.3z"/><path fill="#d0c595" d="M.4 33.5v-13l1-.6 1 1.3 2.5 10.2L3 33.5z"/><path fill="#e4e0c5" d="M3 11q1.7-1 3.5-1.8l.2-.1 1.7.2v.1l1 1 4.5 5.2V17l-.1 2.2-8.4-4.3zm30-8.4 5.5 2.9-3.7 7-3.3 2.9-7.1.8-10-3.2-.3-2.2-.1-.4 6.5-3.5L23.7 5l1-.5.8-.2zm6.6 15L30.4 22l-1.2-1.6 4.6-3.2 1.4-.9zm-13.4 3.8h2.2l1.6.8-3.6 1.3-5.9-1.3.8-.5.9-.4zM21 11.2l6.4 1.8 2.5-1.5-.5-5.6-8.4 3zm9 1.6-1.2.4v.8h2zm.8-2.8L33 8.7l-2.6-1.5z"/><path fill="#a59249" d="m6.7 9.1 1.8-1-.1 1.2zM16.8 4l.6-.4 1.6.1 6.5.6-.8.2-1 .5-1.6-.2-3.9-.7z"/><path fill="#dad5ad" d="m24.9 18 1.2 3.3-2.2-.1-3.4-1.6L20 18l-3.7-.8 2.4-1.6 6 2.3z"/><path fill="#bdac6c" d="m13.4 21.4.5-.5v-1.8l4.5 2.2-2.7 1.7-2-.4z"/><path fill="#786932" d="m14 23.5-1.7-1.1 1-1 .4 1.2zm-7.3-1.1-2.5 2.2-.4-1.6-1-1.3 2 1zm-.1 10.4.7 3-.7-.2-1.9-.4q1.3-.5 1.9-2.5m10-5.2-.7-2.8v-.1l2.3-1.1-1.2 2zM11 38.8l2 1-1.5 1.2q.2-1.2-.5-2.2m5.7 3.2 2.3-.8-.1-1.7 1.3 1.2-1 .3-.2.2-4 3.2 1-1.4zm-1.8 5.8.8 2-2.2-1.2z"/><path fill="#c1b379" d="m12.3 22.4 1.6 1.1 1.8 1.1v.1l.8 2.8v5.4l-1 2-3.3 2.6-3 .2L7.4 36l-.2-.2-.7-3-2.3-8.2 2.4-2.2zm2.4 2.4-3-1.8-4.7-.1-2.1 1.8 1.5 3.8L8 35.1l2.4 1.1 2-.4.2-1.9 1.1.8 1.8-4zm-2.4 8L11 30v-2.3l1.4 2.6z"/><path fill="#b7a662" d="m9.2 37.7 3-.2 3.4-2.6.8-2v2.5L15 37.6l-.7.8-1.3 1.4-2-1z"/><path fill="#c7b87c" d="m15.8 24.7-.1-.1zM19.2 41l-.2.2zM14 45.8l.8 2-1.4.8L7 45l1.3-.7 5.5 1.2z"/><path fill="#c8ba84" d="m14.8 24.8.7 5.9-1.8 4-1.1-.8-.2 1.9-2 .5L8 35l-1.6-6.6-1.5-3.8 2-1.8 4.8.1zm-2.3 8v-2.5L11 27.7V30z"/><path fill="#b09c4f" d="m12.9 39.8 1.3-1.4 3-.4 1.6 1.5v1.7l-2.2.8h-.2l-2.6-1.7h-.1z"/><path fill="#938242" d="m14.2 38.4.7-.8 1.5-2.2.9 2.6z"/><path fill="#b8a661" d="M16.5 35.4v-1.7l1.4 2.3 2.9 2.5h5.1l-5.8 2.2-1.3-1.2-1.6-1.5z"/><path fill="#bba966" d="m11.5 41 1.4-1.2.8.5h.1l2.6 1.8.2-.1-.7 1-2.7 1.7.5.2.2.6-5.5-1.2-1.3.8-1.2-.8 3-1.4 4.3 1.8-4.3-1.8h-.2z"/><path fill="#756630" d="m15 44.4-1 1.4-.1-.3-.2-.6-.5-.2 2.7-1.7z"/><path fill="none" stroke="#000" stroke-linecap="round" stroke-linejoin="round" stroke-opacity=".1" stroke-width="__RESOLUTION__" d="M39 6.7 37.4 8l-.9 2.2-.2 5.3 3.3 2-4.5-1.3-1.4 1-4.6 3.1 1.2 1.6m8.2-16.5-1 2.6m-31 1.2.2-.1 1.7.2v.1l1 1 4.5 5.2V17l-.1 2.2m20-2-9 .9 1.3 3.3h2.2l1.6.8m-9.5 0-.5.2-1.6.9-.2.3M23.7 5l1-.5.8-.2-6.5-.5-1.6-.2M23.7 5l-1.6-.2-1.7 2zm-6.9-1 1.4.1 3.9.7m3.4-.5 7.4-1.8M14.5 13l-.4-2.2-4.7-.2m9.3 5.2-4-1.6-.2-1.2m-.4-2.2-.1-.4 6.5-3.5M8.4 9.3l.1-1.2m11.9 14 .8-.5-.7-2L20 18l-3.7-.8-2.4-.4m7.3 4.8.9-.5h1.8l-3.4-1.6m4.4-1.6h-.2l-6-2.3-2.4 1.6m7.6 3.9H26m10.4-11-2.7 7" vector-effect="non-scaling-stroke"/><path fill="none" stroke="#000" stroke-linecap="round" stroke-linejoin="round" stroke-opacity=".3" stroke-width="__RESOLUTION__" d="m39 6.7-.5-1.3m.5 1.3 1-.7 8.4 4.3 3.8 6.2v.3m-33 35.8-2.4-1.3m-6.5-3.2-.4-.2m-2.3-1.1L6.1 46m-2.4-1.3L2.2 44H2l-.5-1.5-1.2-3.7v-3.6l1.2-.7-1.2-.3V20.5l1-.6-1-1.2v-2.3L3 11q1.7-1 3.5-1.8m.2-.1 1.8-1L16.8 4m.6-.4 5-2.5 6.4-.7.4.2 3.7 2 5.6 2.8" vector-effect="non-scaling-stroke"/><path fill="none" stroke="#000" stroke-linecap="round" stroke-linejoin="round" stroke-opacity=".2" stroke-width="__RESOLUTION__" d="m13.4 21.4.5-.5v-1.8m-1.6 3.3H6.6m-2.4 2.2 2.3 8.1m.7 3 .2.2 1.8 1.7 1.8 1.1m5.4-5.9v-1l.1-4.4-.7-2.8-.1-.1-1.7-1.1M1.4 19.9l1 1.3.4.5 1 1.4.4 1.5m.4 10.6-3-.7m13.3 3.1 1.5-2.2v-2.5m0 9.1h.2l2.3-.8.2-.2m6.8-2.5.4-.2M14 45.8l.8 2m-.8-2-.1-.3-.2-.6-.5-.2-4.3-1.8-3 1.4m5.5-3.3-2.7 1.8.2.1M20 40.7l5.8-2.2" vector-effect="non-scaling-stroke"/><path fill="none" stroke="#000" stroke-linecap="round" stroke-linejoin="round" stroke-opacity=".1" stroke-width="__RESOLUTION__" d="m47.3 22 1.8-.9m-1.9 4.1 4.9-3.4m-2-1.2 2-1m-5 14.4.4 1v2.5M36.4 27.2v-.6m8.1-3.4 1.3-.6M28.6 34q.4-2.4 1.7-4.2m.5-.6.6-.7m3.8 3.1-.2-.3.3-2.1m8.9 17L43 47m4.6-2.9-1.2-1.4-1.4 2.4m2.5-4.9-1 2.5m-39.9-16 .6.5q.6-1 1.4-1.5h2.8l.4.1V25m-3.2.7.4.9m-8-2.3q.7 0 1.1 1.8l-.2 1.1h.7m.1 13.6.6-.4q-.6-.6-.7-1.6.7-1.3 1.4 0m11-9.6h-1.1l-.6 1-1.1 1.1q-1 .8-1.8.4l-.6.6m2.4-1.8v.8m-1.8.4-.7-.5M7 35.6l.8 2.1v.1h1M5 40.2v1q.9-.2 1.5-.7.8-.6 1.1-1.8H7m.7-.9-.1.9m-1-5q-.3-4.5.7-6.5m6.5 2q1.1-2.4-1.9-3.4M.4 28.4q1-.3 1.4-1m21.5 12.4-1.4-3-.1-3M6.6 40.5l.6.5m-2.2.2h-.5l-1.3-.8" vector-effect="non-scaling-stroke"/></g><g id="r"><path fill="#799729" d="M3 11 2 8.4Q1 5.2.3 1.5L2.8.3q1.1 3 3.6 6.3Q7.9 3.7 8.5.2h1.8q.4 3 0 6 1.1-.5 2.4-.5.3.7.4 2.3-1.1.3-1.8 1.6-4.1 1.5-8.2 1.3m6.7-2.7.5-2z"/><path fill="none" stroke="#4d6117" stroke-linecap="round" stroke-linejoin="round" stroke-opacity=".5" stroke-width="__RESOLUTION__" d="M3 11 2 8.4Q1 5.2.3 1.5L2.8.3q1.1 3 3.6 6.3Q7.9 3.7 8.5.2h1.8q.4 3 0 6 1.1-.5 2.4-.5.3.7.4 2.3-1.1.3-1.8 1.6m-1-3.3-.6 2" vector-effect="non-scaling-stroke"/></g><g id="p"><path fill="#ffffc1" d="M30.4 3.7 29.6.6H33Q46 1 48.8 7.5q-2.3 6.7-7.9 9.8-5.8 3.1-15.3 2.5l-7.1-.8q-4.1-.8-6.6-2.3-3.2-2-3.8-5.1Q12.7 2.3 25.6.8l1 3.3q-12 1.8-11.4 7.2 0 3.6 10.7 3.9l3.3-.1q14.3-2.8 12-8.2-2.4-2.9-8.6-3.5z"/><path fill="#352b00" d="m30.4 3.7 2.3-.3q6.1.6 8.5 3.5 2.3 5.4-12 8.2zm-4.5 11.5q-10.7-.3-10.6-3.9-.7-5.4 11.3-7.2z"/><path fill="#ad945a" d="M8 11.6q.6 3 3.8 5l3.2 48 1.8 51.1-1.5 29.8-3.2-4.3Q16.6 80.9 8 11.6"/><path fill="#72561f" d="M11.8 16.7q2.4 1.5 6.6 2.3 7.2 71.4.1 130.7l-3.1-4.3 1.5-29.8L15 64.5zm29 .6q5.6-3.1 7.9-9.8-3.9 28-4.8 58-1.4 43.5 3.5 90.9-2.2 2.4-5.9 3.7l-3.4 1 3.4-1-5.4 52.6-.8 43.9 1.5 36-6.4-.5q-2.6-21.6-1.5-45.5l.3-5.3.7-9 8.2-71.2-9 .5-5-.4q-11.1-2.9-12.4-13.7 6.3 76.4-5.3 123.4 2.3 5 6 9.2l7.7-54 4-65q-11.1-2.8-12.4-13.7l.2-.1 8.6 8.3q8.3 5.6 14.3 2.3-3.6-21-2.5-41.7.1-11.4.6-22.1.5-13.3 1.5-25.7l.2-3 .3-3.2q2.1-24.4 5.9-45m-5.2 428.1q-2.9 1.8-6.5 3l-2.7-65.7q-.3-15.7.2-30.4l.1-3.6q1.2-27 5.3-50.8l5.5-.7-4.2 52.5-1.2 49.1zM4 442.4q-2.1-3.1-3.5-7.6 10.4-70.4 6.3-156.5l6.6 10.8q2.4 54.1-3.5 99.3zm35.3-375 .6.2 4.1-2.2-4 2.2zM32.8 94l6.5.1.4 7.6-.5-7.6zm-3.6 67v.6zM40 107l.6 11.8zm-.6-24.5-.1 11.6zM41 123l1 19.4z"/><path fill="#5c4a2c" d="m18.4 19 7.1.8q9.5.6 15.3-2.6-3.8 20.6-6 45l-.2 3.2-.2 3q-1 12.4-1.5 25.7-.5 10.8-.6 22.1-1.1 20.7 2.5 41.7-6 3.3-14.3-2.3l-8.6-8.3-.2-.2.5-6 3.2 4.3 3.1 4.3q7-59.3-.1-130.7m24.9 271.4 1.3 3.8-1.4-.5v.4l-.2 2.4-5.5.6-5.5.7q-4.1 23.8-5.2 50.8l-.2 3.6q-.6 14.8-.2 30.4l2.7 65.6q-4 1.3-8.8 1.8l-5.3-.2-1.1-3.2.8-52.1-5 53.4q-3.3-1.8-5.7-5.4l5.9-54q5.9-45.2 3.5-99.4l-6.6-10.8q-3.9-4.7-.4-7.4 2.3 5 6 9.2 2.2 2.6 5 5-2.8-2.4-5-5l7.7-54 4-65 5 .5 9-.5-8.2 71.2-.7 9-.3 5.3q-1.1 23.9 1.5 45.5l6.4.4q3.5-.4 6.5-2.1m-15.9-227-.4 9.7zm-1.3 29.8-.7 14.6zm.6-13.2-.3 7.3zm3 12.8 3.2 1.3zm-2.1 78.5q.6-5.4 1.5-9.7-.9 4.3-1.6 9.7M26 209.6V197zm.5-24.8.5-7.3zm-1.6 68.4.1-5.4zm-.7 36.4 1.3.8 5 1.6-5-1.6zm1.1-49.9.8-24.8zm-6.5 71.7.5-18.9zm1.3-28.2 2.3-15.4zm2.9 69.6-1 12.4-4.7-1.8.1-1.3v1.3l4.6 1.8zm-7 10.3 1.1.5-2.6 24.5 2.6-24.5zm5.8 2.3 1.4.5zm2.3-30.6-.9 12z"/><path fill="#8d7845" d="M47.4 156.4q-7 61.2-4.1 133.9-3 1.8-6.5 2.3l-1.5-36 .9-44 5.3-52.5q3.7-1.3 5.9-3.7M43 296.5q-6.2 71.6-1.1 142.6-2.4 3.7-6.4 6.2L32 398.7l1.3-49 4.2-52.6zm-5.7 30.8-1 27.1zM36 363.9l-.5 13z"/><path fill="#4f4f00" d="m13.9 446.6-4.2 1.3 5-53.4z"/><path fill="none" stroke="#000" stroke-linecap="round" stroke-linejoin="round" stroke-opacity=".3" stroke-width="1" d="M48.7 7.5Q46 1.1 33 .5h-3.4l.8 3.2L29.2 15h-3.3l.7-11-1-3.3Q12.7 2.3 8 11.6q.6 3 3.8 5 2.4 1.6 6.6 2.4l7.1.8q9.5.6 15.3-2.6 5.6-3 7.9-9.7-3.9 28-4.8 58-1.4 43.5 3.5 90.9-7 61.2-4.1 133.9h0l1.3 3.9-1.4-.5v.4l-.2 2.4q-6.2 71.6-1.1 142.6-2.4 3.7-6.4 6.2-2.8 1.8-6.4 3-4 1.1-8.8 1.6l-5.3-.1-1.1-3.2-4.2 1.3q-3.3-1.8-5.7-5.4-2.1-3.2-3.5-7.7 10.4-70.4 6.3-156.5-3.9-4.7-.4-7.4 11.6-47 5.4-123.4l-.1-.4.5-6Q16.6 80.9 8 11.6"/><path fill="none" stroke="#000" stroke-linecap="round" stroke-linejoin="round" stroke-opacity=".4" stroke-width="__RESOLUTION__" d="m30.4 3.7 2.3-.3q6.1.6 8.5 3.5 2.3 5.4-12 8.2m-3.3 0q-10.7-.2-10.6-3.8-.7-5.4 11.3-7.2" vector-effect="non-scaling-stroke"/><path fill="none" stroke="#000" stroke-linecap="round" stroke-linejoin="round" stroke-opacity=".2" stroke-width="__RESOLUTION__" d="m27 73 .4-9.6m16.5 2-4 2.2-.7-.2m.5 34.4-.5-7.6-6.4-.1-3.1-1.3m-.6 68.8v-.6m-3.7-53.1.7-14.7m14.5 25.6-.6-11.7m-.7-12.9V82.6m-13 4.7.4-7.3m2.4 81.6q-.9 4.3-1.6 9.7M26 196.8v12.8m1-32-.5 7.3M42 142.4l-1-19.5m-16 125-.1 5.4m11.5 101.1 1-27.1m-1.8 49.6.5-13M26 215.2l-.8 24.8m-6 52.8-.6 18.9m3.6-43.7-2.3 15.5m-2.6 78.9-.2 1.3 4.7 1.8 1-12.4m-8.3 35.1 2.6-24.5-1.1-.5m7.2 2.8-1.4-.5m1.4-18.6.9-12" vector-effect="non-scaling-stroke"/><path fill="none" stroke="#000" stroke-linecap="round" stroke-linejoin="round" stroke-opacity=".3" stroke-width="__RESOLUTION__" d="M11.8 147.5Q13 158.3 24 161.1l5 .4 9-.5 3.4-1q3.7-1.3 5.9-3.7M36.8 292.6q3.5-.5 6.5-2.2m-13 1.7 6.5.4m-6.4-.4-5-1.6-1.3-.7m-6.7-4.7q-2.8-2.4-5-5-3.6-4.2-6-9.2m3.3 177 5-53.4-.8 52.1" vector-effect="non-scaling-stroke"/><path fill="#707944" fill-opacity=".6" d="m40.8 417.2 1.8 21.2q-2.7 5.3-10 8.6-7.3 3.4-14.3 3.3T6.9 446t-6.2-8.9l-.3-1.4.3-3 .4-5.2.1-.2q1 .2 1.7 2.8.7 2.4 1.3 2.4 1.4-1.6 2.2-1.7l1.7 2.8q1.6 2.6 2.7 3.4h.1q-.7-2.1-1.2-7.8H11l6.5 1 2.3.4q3 0 5.8-4.2 2.9-4.2 4.2-4.2t2.9 1.2q1.6 0 3.2-1.5 1.6-1.9 4.8-4.7"/></g><use xlink:href="#c" id="F" width="40.4" height="42.4"/><use xlink:href="#d" id="D" width="13.3" height="11.2"/><use xlink:href="#e" id="B" width="20.4" height="46.3"/><use xlink:href="#f" id="z" width="29.3" height="14.7"/><use xlink:href="#g" id="x" width="38.9" height="24.3"/><use xlink:href="#j" id="w" width="38.9" height="24.3"/><use xlink:href="#k" id="v" width="54.4" height="63"/><use xlink:href="#l" id="u" width="52.5" height="26.6" transform="scale(1.23)"/><use xlink:href="#m" id="t" width="38.1" height="48.9"/><path id="c" fill="#fff" fill-opacity=".3" d="m12.6-23-.7 5.1-3 .4 1.8 2.7Q9.5-9.9 7.8-6.6 4.3-12.1.4-13.1l2.5-9 4.6-1.1-2-1.4v-1zm2.3 9.9 3.9.3L25-7.1l-2 6-1.1.4v-.1q-4.1-4.6-10-4.4 2.2-3 2.8-8M5.9-2.7l-6 8-2.5-2.5Q-5 .5-7.7-.5-4.6-3.6-2-8h.1q4.3 1.7 7.8 5.3m3.8.6q7.5-.7 10.8 4.9l-5.7 8.6Q11.9 8.8 9 7.5T3.6 6l5.7-8zm-2 12q2.8 1.3 5 4.3-7.7 4-18.7 2 4.4-2.8 7.4-7.7 3.5-.1 6.3 1.3m-13-5.3Q-4 5.8-2.8 7.4l-6.5 5.5q-4.3 0-6-5.5v-.1l5-5.5q2.7.6 5 2.8" transform="translate(15.45 25.6)"/><path id="f" fill="#000" fill-opacity=".3" d="M29.3 7.4q0 3-4.3 5.2-4.3 2.1-10.3 2.1T4.3 12.6 0 7.4t4.3-5.2T14.7 0 25 2.2t4.3 5.1"/><path id="l" fill="#fff" fill-opacity=".3" d="M0 13.3 26.3 0l26.2 13.3-26.2 13.3z"/><path id="q" fill="#000" fill-opacity=".3" d="M-1.4 14.6-25.6 2l4.7-2.8L3 12z" transform="translate(25.6 .8)"/><path id="o" fill="#000" fill-opacity=".3" d="m-6-13.4 4.6 2.8-24.2 12.5-1.7-1v-3z" transform="translate(27.35 13.4)"/><radialGradient id="b" cx="0" cy="0" r="819.2" gradientTransform="matrix(-.05 0 -.01 .04 19.75 -11.7)" gradientUnits="userSpaceOnUse" spreadMethod="pad"><stop offset=".4" stop-color="#998433"/><stop offset="1" stop-color="#6a5c23"/></radialGradient><radialGradient id="a" cx="0" cy="0" r="819.2" gradientTransform="matrix(-.03 0 -.01 .03 9.15 -31.1)" gradientUnits="userSpaceOnUse" spreadMethod="pad"><stop offset=".4" stop-color="#d2c078"/><stop offset="1" stop-color="#998433"/></radialGradient><clipPath id="n"><path d="M1 1h55v113H1z"/></clipPath></defs><g clip-path="url(#n)"><g transform="translate(28.35 83.3)"><use xlink:href="#o" width="26" height="15.3" transform="translate(-27.35 -13.4)"/><use xlink:href="#p" width="49.1" height="450.6" transform="matrix(.1104 -.0132 .0132 .1104 11.75 -49)"/><use xlink:href="#q" width="28.7" height="15.3" transform="translate(-25.6 -.8)"/><use xlink:href="#r" width="13.3" height="11.2" transform="matrix(.5571 0 -.2291 .5571 19.8 -4.3)"/><use xlink:href="#s" width="52.5" height="54" transform="matrix(-.85 0 0 .85 23.25 -16)"/><use xlink:href="#t" width="38.1" height="48.9" transform="matrix(-.68 0 0 .68 4.65 -2.8)"/><use xlink:href="#u" width="64.7" height="32.8" filter="url(#filter-object-8)" style="mix-blend-mode:overlay" transform="matrix(-.68 0 0 .68 22.95 -17.8)"/><use xlink:href="#v" width="54.4" height="63" transform="matrix(.68 0 0 .68 -14 -15.65)"/><use xlink:href="#w" width="38.9" height="24.3" transform="matrix(-.68 0 0 .68 2.15 -2.7)"/><use xlink:href="#x" width="38.9" height="24.3" transform="translate(.4 -1.55)scale(.6398)"/><use xlink:href="#d" width="13.3" height="11.2" transform="matrix(-.68 0 0 .68 6.8 5.6)"/><use xlink:href="#d" width="13.3" height="11.2" transform="matrix(-.4237 0 .1742 .4237 -13.25 1.55)"/><use xlink:href="#y" width="12" height="6.8" transform="translate(-18 -10.15)"/><use xlink:href="#z" width="29.3" height="14.7" filter="url(#filter-object-19)" transform="matrix(-1.0189 0 0 1.0189 11.8 -11.4)"/><use xlink:href="#A" width="37.3" height="43.9" transform="translate(-15.2 -43.85)"/><use xlink:href="#B" width="20.4" height="46.3" style="mix-blend-mode:overlay" transform="matrix(.85 0 0 .85 .6 -39.9)"/><use xlink:href="#C" width="13.1" height="5" transform="translate(-4.05 -2.9)"/><use xlink:href="#p" width="49.1" height="450.6" transform="matrix(-.1104 -.0132 -.0132 .1104 2.25 -39.9)"/><use xlink:href="#D" width="13.3" height="11.2" transform="matrix(-.68 0 0 .68 -2.05 3.85)"/><use xlink:href="#E" width="41.3" height="46.3" transform="translate(-20.25 -82.3)"/><use xlink:href="#F" width="40.4" height="42.4" filter="url(#filter-object-29)" style="mix-blend-mode:overlay" transform="matrix(-.85 0 0 .85 17.75 -78.55)"/></g></g></svg>