<svg xmlns="http://www.w3.org/2000/svg" xmlns:xlink="http://www.w3.org/1999/xlink" width="304" height="488" viewBox="0 0 304 488"><defs><radialGradient id="a" cx="0" cy="0" r="819.2" gradientTransform="matrix(-.53 0 .2 .53 275.8 434.65)" gradientUnits="userSpaceOnUse" spreadMethod="pad"><stop offset=".3" stop-color="#d67e00"/><stop offset="1" stop-color="#eca602"/></radialGradient><clipPath id="b"><path d="M1 1h302v486H1z"/></clipPath><g id="c"><path fill="none" stroke="#965500" stroke-linecap="round" stroke-linejoin="round" stroke-opacity=".5" stroke-width="__RESOLUTION__" d="M237.7 5.6h-1" vector-effect="non-scaling-stroke"/><path fill="#000" d="m147.4 265-3.8-.9 3.4-1.7-1.1-3.4 3.1 2 .6-3.8 1 4 2-3.5.1 3.4 2.2-2-.5 2.8 3.5.8-3.2 2 1 4.6-3-2.7-.9 3-1.2-2.9-2 2.6V266l-3.5 1.8z"/><path fill="#fff" d="M150.2 262.2q.5-.6 1.2-.4.7 0 1.1.8.3.6.3 1.4l-.7 1.4q-.6.5-1.3.4-.7-.2-1-.7l-.2-.2-1 .3q-.6-.2-.8-.7-.4-.6-.3-1.2t.6-1.1q.4-.4 1-.3.5 0 .8.5zm-2 1.2v-.2l-.1-.2-.2.1-.2.2.1.1.1.1h.2zm3.6.7v-.3l-.1-.1h-.2v.4h.2"/><path fill="#000" d="m148.2 263.4-.1.1h-.3v-.4l.3-.1zm3.6.7h-.3v-.3l.2-.1.1.1z"/><path fill="none" stroke="#a95401" stroke-linecap="round" stroke-linejoin="round" stroke-opacity=".5" stroke-width="__RESOLUTION__" d="M150.2 262.2q.5-.6 1.2-.4.7 0 1.1.8.3.6.3 1.4l-.7 1.4q-.6.5-1.3.4-.7-.2-1-.7l-.2-.2-1 .3q-.6-.2-.8-.7-.4-.6-.3-1.2t.6-1.1q.4-.4 1-.3.5 0 .8.5z" vector-effect="non-scaling-stroke"/><path fill="none" stroke="#000" stroke-linecap="round" stroke-linejoin="round" stroke-opacity=".5" stroke-width="__RESOLUTION__" d="M147 264.5q-3.1-1.1-4.3 2.1m4.6-3.9q-1.7-1.8-4-.2m4 2.3q-2 .1-2.5 2.7m8.3-1q1.6 1.8.8 4m-.7-6q3.7-2.1 4.6 3m-4.7-2.2q3 .6 3.9 4.7" vector-effect="non-scaling-stroke"/><path fill="#ca8d00" d="m141.2 273.2-1.1-.8-.9-14.3q.3-1.9 1.7-3.6l2.8-2q1.7-1.2 3.4-1.5l8.2-.6 3.6 2.3 1.3.6q.8.6 1.3 2.2l.1 1.1-.8-.2-1-.2v-.1q-1-2.5-3.2-3.5-2.6-1.2-7.2-.9-6 .4-8.1 4.1l-.4.9q-.9 2.3-.7 6l.8 5.2q.4 3.1.2 5.3"/><path fill="#875f01" d="m161.6 256.6.1 13.6-1 1.4.8-3.2-.2-3 .1-3.2-.4-2.5-.4-2.3.2-1z"/><path fill="#a07001" d="m160.7 271.7-.8.3.7-1.2q.3-1 .2-2.7l-.2-6.5q-.1-3.5-.8-5.4l1 .2-.2 1 .4 2.3.4 2.5v6.2zm-6.5 4-.6.3v-.1l.2-.2zm-.6.2-4 .5 1.9-3.2z"/><path fill="#c58700" fill-opacity=".8" d="M159.9 272q-1.8 2.6-5.7 3.8l-.4-.2-.2.3h-.1l-2.1-2.7-.2-3.4v-.2l.9-3.2-1.2-1.8v-.2l-.2-2.2q.8-2.8 1.7-4l.1-.3 2.3-2.1 3.3-.2 1.7.5v.1q.7 1.9.8 5.4l.2 6.5q.1 1.7-.2 2.6z"/><path fill="#ffc501" fill-opacity=".8" d="M149.5 276.4q-6.2-1.3-8.3-3.2.2-2.2-.2-5.3l-.8-5.2q-.2-3.7.7-6l.3-.3 3.1-.2 2.3 1.9 1.3 1.1.1 1 1 .3 1.7 1.7.2 2.2v.2l-3.5.6 3.8 4.4v.2l.2 3.4z"/><path fill="#e5a900" fill-opacity=".8" d="m140.9 256.7.4-.9q2-3.7 8-4.1 4.7-.3 7.3.9 2.2 1 3.2 3.5l-1.7-.5-3.3.2-2.3 2.1-.1.3q-2.7-.7-5.8-.1l-2.3-1.9-3 .2z"/><path fill="#f0f0be" d="M146.6 258.1q3.2-.7 5.8.1-.9 1.2-1.7 4l-1.6-1.7-1.1-.2-.2-1z"/><path fill="#fecb56" fill-opacity=".8" d="m151 264.6 1.1 1.8-.8 3.3-3.9-4.5z"/><path fill="none" stroke="#965500" stroke-linecap="round" stroke-linejoin="round" stroke-opacity=".5" stroke-width="__RESOLUTION__" d="m141.2 273.2-1.1-.8-.9-14.3q.3-1.9 1.7-3.6l2.8-2q1.7-1.2 3.4-1.5l8.2-.6 3.6 2.3 1.3.6q.8.6 1.3 2.2l.1 1.1.1 13.6-1 1.4-.8.3q-1.8 2.7-5.7 3.9m-.7 0-4 .6q-6.2-1.3-8.3-3.2" vector-effect="non-scaling-stroke"/><path fill="#f0f0be" fill-opacity=".8" d="m145.3 252.8.2.3q-.9.5-1.6 1.7l-.8 2 .1.8v1q-.4 1.8-1.9 1.6l-.8-.3q-.2-.3 0-1 .4-1.4 1.7-3.2 1.4-2.2 3.1-3m0 3.8 1.2-1h.3l.3-.1 1-.1.2.5-.6.6-.9 1.2-1 1.1-1.5.8v-.1q.1-1.8.3-2 0-.2.7-1"/><path fill="#ba8201" d="M155.8 254.1v.5l-.6.3h-.1l-.4-.2-.5-.2-.1-.1h.7l.1.1.6-.2z"/><path fill="#000" fill-opacity=".3" d="M155.9 254.5q.7.4.5.6l-.6.2-1-.2-.7-.3.1-.3.5.3.4.1h.2z"/><path fill="#ffc501" d="m154 254.4.1-.2v-.1l.1-.2h.1q.1-.2.4-.2h-.1v.2h-.1l.3.2.5-.2-.2-.2h-.2.5l.3.4-.2.2-.6.2h-.2z"/><path fill="#f0f0be" d="M154.7 253.7h.5v.2h.1l-.6.2-.2-.2h.1z"/><path fill="none" stroke="#875f01" stroke-linecap="round" stroke-linejoin="round" stroke-opacity=".3" stroke-width="1.2" d="M155.8 254.1v.5l-.6.3h-.1l-.4-.2-.5-.2h0l-.1-.1v-.3l.1-.2m1.2-.2.3.4"/><path fill="#965500" fill-opacity=".8" d="m157.4 258.5 1.4-.4.5 2.1.4 3.1v1.6l-.4.3-.2-.8-.1-1q-.2-2.7-1.7-5m2.6 9.3.4.3-.3 1.1v.4l.3.3-.1.3-.4-.5q-.5.4-.5 1l.1.9-.7-.1.1-1q-.2-1.5-1.8-3.5l.7.5.5.5q.6.4.9.4l.8-.5zm-6.6 6.9-1.3-.8.6-.7q.7-.9 1.3-.9l1 .4 1-.2q.5-.3.8-.3l1.7.4z"/><path fill="#f7e93c" fill-opacity=".8" d="m142.1 261.9.1.2.2 1.1v5.6l-1-2.1-.6-2v-.1q0-1 .4-1.6z"/><path fill="#d67e00" fill-opacity=".8" d="m142.3 272-.2.6-.4-2.3v-.4l.8 1.6zm5.6 1 1-.7.8-1 .3 1.7-.1 1.4-.6 1.1-4.2-.7-2.8-1 .9-2 .9.7.6.4q.7.1 1.2-.3.4-.3.7-.3l.6.4z"/><path fill="#7e4b01" d="m147.8 244 1 2.3q-1.2 1.1-2.3 2.8-2.2 3.1-1.7 4h-3q2.1-1.2 6-9"/><path fill="none" stroke="#d27e02" stroke-linecap="round" stroke-linejoin="round" stroke-opacity=".5" stroke-width="__RESOLUTION__" d="M147.8 244q-3.9 7.9-6 9.2" vector-effect="non-scaling-stroke"/><path fill="#d2960b" d="m148.3 204.5-.5-10.7 1.1 1.6v1.2q0 4.6.5 9.4z"/><path fill="#f4b013" d="m148.3 204.5 1.1 1.5.3 1.6q.8 5.7.2 16.7l-1.1 17.3q-.4 6.2-1.3 12l-1.2-.1q3.2-18 2-49"/><path fill="#bb8509" d="M149.5 206q-.7-4.8-.7-9.4l.1-1.2 1.5 2.3q-.3 6.5-.2 9.5zm2 3.4q1-1.2 2.6-6.3l.8 1.7-.2.3q-1.3 3.1-2 6.8z"/><path fill="#cea109" d="M150.3 207.2q.1 3.6 1.2 2.3l1.3 2.3q-2.8 15.3 6.5 39.9l-.9.3q-8-23-1.3.4l-1.6.5q-4-13.5-5.5 1.2l-2.5-.4q.9-6 1.3-12.1l1-17.3q.7-11-.1-16.7l-.2-1.6z"/><path fill="none" stroke="#965500" stroke-linecap="round" stroke-linejoin="round" stroke-opacity=".5" stroke-width="__RESOLUTION__" d="M150.5 197.7q-.4 6.5-.2 9.5.1 3.6 1.2 2.3t2.6-6.4m.8 1.7-.2.3q-1.3 3.1-2 6.8-2.7 15.2 6.6 39.8m-.9.3q-8-23-1.3.4m-1.6.5q-4-13.5-5.5 1.2v.6" vector-effect="non-scaling-stroke"/><path fill="#ca7624" fill-opacity=".8" d="m255.5 420.2 1.8-1.1q1.8 26.3.5 41.1-1.2 14.8-4.7 18.6h-1q3.7-6.7 4.7-22.7t.3-23.8q-.8-7.9-1.6-12.2m6.9 23.3q.2-7.3 1-10.5 1.4-5.8 2-11.8l1.8 4.1-1.3 5q-1 3.8-2 5.8t-1.5 7.4"/><path fill="#7b4815" fill-opacity=".8" d="m257.3 419 3.6-2.8-1.3 16.1q-.5 4.3-.4 6.8l.9 3.6q1.3 2.5 2.3.8.5-5.6 1.5-7.6t2-5.7l1.3-5 .3.7 2.1 5q-5.4 9.2-14 47.9h-2.5q3.5-3.8 4.7-18.6t-.5-41.1"/><path fill="none" stroke="#965500" stroke-linecap="round" stroke-linejoin="round" stroke-opacity=".8" stroke-width="__RESOLUTION__" d="M260 442.7q1.4 2.5 2.4.8.2-7.4 1-10.6 1.4-5.8 2-11.8m-13.3 57.7q-.7.6-1.2.1m4.6-58.7q.8 4.3 1.6 12.1.6 7.8-.4 23.8t-4.6 22.7" vector-effect="non-scaling-stroke"/><path fill="#b16a01" fill-opacity=".8" d="m83.3 87 7.4 11.6-2.2.8q-4.5 1.6-8.1 3.8-5.7-6.2-10.7-10.7l-.1-.3 4.6-1.9z"/><path fill="#b16a01" fill-opacity=".5" d="m83.3 87-9.1 3.3-4.6 1.9h-.1q-11.1-10-22.2-18.4l4-2q7.6-3.4 19-5.9 6 10 13 21"/><path fill="#b16a01" d="m69.6 92.2.2.3zm10.8 11q3.6-2.2 8.1-3.9l2.2-.7q12.1 19 26.6 40.8l6 8.8.5 3.7q-2.5-.7-4.6-2.3-2.7-2.7-6.5-9.2l3.4 6.5.3 2.4Q96 120 80.4 103.2"/><path fill="#7e4b01" d="m123.3 148.3 2.6 3.8q40.7 60.6 55.5 78l-3.1-.3q-4.4 0-5.5.5-1.6.9-2.7 3.5-25.8-43.3-46.8-74.5l-6.9-10-.3-2.4-3.4-6.5q3.8 6.5 6.5 9.2 2.1 1.7 4.6 2.3z"/><path fill="#b16a01" fill-opacity=".2" d="m31.1 43-3-3-10-8.9.3-.4 9.6.4q2.9 0 12.6-2.7l7.1-2 4.4 8.1Q42 37.8 31.2 43M9.4 38.8q4.2 4.9 11 9.7l-6.1 3.4Q7.2 47.8 0 44.4q2.8-2.1 7.5-4.6z"/><path fill="#b16a01" fill-opacity=".3" d="M31.1 43q10.9-5.2 21-8.5Q60 48.7 70.4 65.9q-11.4 2.5-19 6l-4 1.9q-16.5-12.6-33-21.9l6-3.4q2.6 1.9 5.5 3.6l10 5.9q5.1 2.9 6.5 4h3Q41 53.2 31 43"/><path fill="none" stroke="#965500" stroke-linecap="round" stroke-linejoin="round" stroke-opacity=".5" stroke-width="__RESOLUTION__" d="M90.7 98.6 83.3 87q-7-11.1-13-21.1Q60 48.6 52.2 34.5l-4.5-8.1m43 72.2q12.1 19 26.6 40.8l6 8.8 2.6 4q40.7 60.5 55.5 77.9M9.4 38.8q4.2 4.9 11 9.7 2.5 1.9 5.4 3.6l10 5.9q5.1 2.9 6.5 4h3" vector-effect="non-scaling-stroke"/><path fill="#ca7902" d="M163.3 184.3q0 2.8-.6 3.3l-1.2-1.2q-2.2-4-4.8-13.6-1.2-4.2-1.8-7.5 4.8 1 7 8.1 1.4 4.8 1.4 10.8m-22.7-55.5-.2-.5zq4.3 8.6 7.2 13.2l.5-.4q.3-2.4-2.6-12.9h4.5l.2.5q4.1 15.1 4.1 18.2l-.6 6.8q.3.7-1.2.7-2.6 0-6.6-8.7-3.6-9.3-5.6-17.4"/><path fill="url(#a)" d="M163.3 184.3q0-6.2-1.4-10.9-2.2-7.1-7-8 .6 3.2 1.8 7.4 2.6 9.5 4.8 13.6l1.2 1.3q.6-.6.6-3.4m-13-55.7h6.4q30.6 118.1 108.5 300l-4.8-9.2-4-7.2-.3-.8-7.5-14.7q-6.7-13.6-18.9-41.9l-1.4-3.2-26.7-62.5.6 1q-5-13-11.6-31.2v1.5l2.3 7.8q-6-14.2-16.8-37.8l-30.5-65.3-16.5-36 11.5-.4q2 8 5.7 17.4 3.9 8.7 6.5 8.7 1.5 0 1.2-.7l.6-6.8q0-3.1-4.1-18.2z"/><path fill="#e09000" fill-opacity=".2" d="M84.5 23.9q1.7-2.8 1.7-7.5 0-5.1-3-16.4 1.1 3.6 3.5 8.6 4.1 8.5 9.8 17.3 13.7 21.3 21.2 21.3l15.5-2.3q4.3 6.8 9.1 9l-1.5 3-1.5 3.5-.2.1q-.5.6-.5 3.3 0 3.7 1.5 7.7l.1.3q-4.1-1.2-7.4-1.8l-1.4-.3q-6.7-16.9-9.7-16.9-1.9 0-5 2-3.7 2.3-3.7 4.9 0 1.1.8 3l.3 1.3.8 3.6-6-.6-7.4-.7q-9.8-23.4-17-42.4"/><path fill="#cea109" fill-opacity=".2" d="M84.5 23.9q7.2 19 17 42.4l-7.3-.7-17.1-37.7q5.1-.5 7.4-4"/><path fill="#e09000" fill-opacity=".3" d="m101.6 66.3 7.3.7 6 .6q1 3.9 2.5 8 1.6 4.6 4.6 11.5l-10.7-.4h-1zm29.8 3.4 1.3.3q3.4.6 7.5 1.8 2.3 5.9 5.4 8.1l2.3 11.4-9.5-2q-3.9-11.6-7-19.6"/><path fill="#ca7902" fill-opacity=".2" d="M113.9 62.7q-.9-1.9-.9-3 0-2.7 3.7-5 3.1-1.9 5-1.9 3 0 9.7 16.9l-5.7-.9-1.9-4.6q-1.1-2.4-3-4.4-1.7-.7-3.8-2.1l-1.8-.9q-2.2 0-1.4 5.9"/><path fill="#9f5c1c" fill-opacity=".2" d="m139.3 60.4 1.5-3.5 1.5-3q2.3 1.1 4.8 1.1l2.3-.6 3.7 21.2L145 73l-.3-1.7-1.3-5.9v-.2q-3.5-5-3.8-5z"/><path fill="#9f5c1c" fill-opacity=".3" d="m153 75.6 3.5 18.1-1.6-.5-7-1.9-2.3-11.4.2.1.4.3q.1-.7-1.2-7.2z"/><path fill="#9f5c1c" fill-opacity=".5" d="m156.5 93.7 4.6 21.8-8.2-2.2q-2.8-11.3-5-22l7 1.9z"/><path fill="#9f5c1c" fill-opacity=".8" d="m161 115.5 3 13.3-7.3-.2-3.8-15.3z"/><path fill="#9f5c1c" d="M164 128.9q38.6 168.9 123.6 323l6.6 11.9q1.4 2.2 1.7 3.3.2 1.1 1.3 2.4-1.6 4.2-5.6 5l-1.3.3q-2.8.2-7.9-1.7l-4.6-2-1.7-4.2-9.4-20.7-4.3-13-9.2-25.7.4-.4 2.5 4.3.3.8 4 7.3 4.8 9.1q-77.9-181.9-108.5-300zm29 139.3-2.4-7.8v-1.5q6.6 18.2 11.6 31.2l-.6-1q-2.5-3.8-8.3-11.2l.3-2.8q.6-1.8-.7-6.9"/><path fill="#bb8509" d="m266.8 446.2-39.2-86.4.5-1.3 1.6-3.7q12.2 28.3 18.9 41.8l7.5 14.8-2.6-4.3-.3.3 9.2 25.8z"/><path fill="#cea109" d="M227.6 359.8 123.2 129.6l4.8-.4h1.1l16.5 35.9 30.5 65.3q10.8 23.6 16.8 37.8 1.3 5.1.8 6.9l-.4 2.8q5.8 7.4 8.3 11.2l26.7 62.4 1.4 3.3-1.6 3.7z"/><path fill="#cea109" fill-opacity=".8" d="M123.2 129.6 113 107h1l5.3.2 9.8 22H128z"/><path fill="#cea109" fill-opacity=".5" d="m113 107-9.2-20.2 6.5-.1 9 20.5-5.3-.2z"/><path fill="#cea109" fill-opacity=".3" d="m103.8 86.9-9.6-21.3 7.3.7 8.8 20.4z"/><path fill="#ca7902" fill-opacity=".3" d="m125.7 68.9 5.7.8q3.1 8 7 19.6l-5.9-1-1.6-4.4z"/><path fill="#e09000" fill-opacity=".5" d="m138.4 89.3 9.4 2q2.3 10.7 5 22l-7.4-1.9L141 97zm-28.2-2.6h1.1l10.7.4q3.3 8.1 8.4 19.6l.9 1.8-12-1.3z"/><path fill="#ca7902" fill-opacity=".5" d="m132.5 88.3 5.9 1 2.5 7.7 4.5 14.4-5.3-1.2z"/><path fill="#e09000" fill-opacity=".8" d="m145.5 111.4 7.3 1.8 3.9 15.4h-6.4zm-4.8 17.3-11.5.5-9.8-22 12 1.3q5.1 11.5 9.1 19.7z"/><path fill="#ca7902" fill-opacity=".8" d="m140.1 110.2 5.3 1.2 5 17.2h-4.6l-3.9-12.7z"/><path fill="#7b4815" d="M283.3 484.4q-1.7-2-1.1-5.9 13.2.3 1 5.9m13-7.6q1.4-2.4 3.1-3.7l1.6 2.2q-2.6 1.1-4.7 1.5"/><path fill="none" stroke="#965500" stroke-linecap="round" stroke-linejoin="round" stroke-opacity=".5" stroke-width="__RESOLUTION__" d="m139.2 60.6.1-.2h.3q.3 0 3.8 5v.1l1.3 5.9.3 1.7q1.3 6.5 1.2 7.3l-.4-.4M276 467l-9.4-20.7-39.1-86.4-104.4-230.2L113 107l-9.2-20.2-9.6-21.2-17.1-37.7m38.1 28.9 1.8.9q2.1 1.3 3.8 2.1 1.9 2 3 4.4l1.9 4.6 5.2 15.1 1.6 4.4 7.6 21.9 1.8 5.6 4 12.8q2.8 10.5 2.5 12.9l-.6.3" vector-effect="non-scaling-stroke"/><path fill="none" stroke="#7e4b01" stroke-linecap="round" stroke-linejoin="round" stroke-opacity=".5" stroke-width="__RESOLUTION__" d="m277.8 471-1.7-4.1" vector-effect="non-scaling-stroke"/><path fill="#ba8201" d="M195.4 259.2v-.3l.3-.8q.8 1.3 2.3 2.5l1 .6q1.5.9 2.8.9l2.1-.3-.1.4q-.4 1-1 1.8l-1 .8q-2.3 1-3.2-.1l-.7-.6-1.5-2q-1-1.5-1-2.9"/><path fill="#ffc501" d="m195.7 258.1.7-1 1-.7.4-.1.3-.2h.2l2.5.1-.6.1-.2.2h-.6q-.8.4 0 1.9.8 2 2.8 1.1.5-.3.6-1l-.2-1.1-1-.9-.3-.1h.3q1.3.8 2 2.3l.2.2q.5 1.5.1 2.9l-2 .3q-1.4 0-3-.9l-.9-.6q-1.5-1.2-2.3-2.5"/><path fill="#f0f0be" d="m200.9 256.2.3.2.4.1 1 .9.2 1.2q-.2.6-.6.9-2 .9-2.8-1.1-.8-1.5 0-2l.6.1.2-.2z"/><path fill="#000" fill-opacity=".3" d="M202.8 264q.9 5.4-.7 5.8-1.6.2-3.1-1-1.6-1.2-3-4.3t-1.6-4.2l1-1.1q0 1.4 1 2.9l1.5 2 .7.6q.9 1 3.2 0z"/><path fill="none" stroke="#875f01" stroke-linecap="round" stroke-linejoin="round" stroke-opacity=".3" stroke-width="1.2" d="M195.4 259.2v-.3l.3-.8.7-1 1-.7.4-.1m6 2.6q.5 1.5.1 2.9l-.1.4q-.4 1-1 1.8l-1 .8q-2.3 1-3.2-.1l-.7-.6-1.5-2q-1-1.5-1-2.9"/><path fill="#ffc501" d="m200.3 267.7.1-.1.1-.1 1.6.1h-.4l-.1.2h-.4q-.5.3 0 1.2.6 1.2 1.8.6l.3-.5-.2-.7-.6-.6-.2-.1h.3q.8.5 1.3 1.4v.1q.3 1 .2 1.9l-1.3.2-1.9-.6-.6-.3q-.9-.7-1.5-1.6l.5-.7.6-.4z"/><path fill="#f0f0be" d="m202.1 267.6.2.1h.1l.7.7v.7l-.2.5q-1.2.6-1.8-.6-.5-1 0-1.2h.4l.1-.2z"/><path fill="#ba8201" d="M204 271.1v.3l-.7 1-.6.5q-1.4.7-2 0l-.4-.3-1-1.4q-.6-.8-.6-1.8v-.1l.2-.5q.5.8 1.4 1.6l.6.4 1.8.5z"/><path fill="#000" fill-opacity=".3" d="M203.3 272.5q.6 3.3-.5 3.6-.9.1-1.9-.6-.9-.8-1.7-2.7l-1.1-2.7.6-.7q0 1 .7 1.9l.9 1.3.3.3q.7.7 2.1 0z"/><path fill="none" stroke="#875f01" stroke-linecap="round" stroke-linejoin="round" stroke-opacity=".3" stroke-width="1.2" d="M203.9 269.3q.3.9.2 1.8l-.1.3-.7 1-.6.5q-1.4.7-2 0l-.4-.3-1-1.4q-.6-.8-.6-1.8h0v-.1l.2-.5.4-.7.6-.4h.3"/><path fill="#ba8201" d="m147.5 253.3.4.4.2.4q0 .6-.4.7h-.3l-.8.2h-1.1l-.2-.2 1.1-.3.3-.2.6-.5z"/><path fill="#000" fill-opacity=".3" d="M148 253.8q1.7.1 1.6.5l-.7.6-1.6.4h-1.5l-.2-.3h1l.8-.2h.3q.4-.2.4-.7z"/><path fill="#ffc501" d="m145.3 254.8-.2-.2-.1-.2v-.3l.4-.6.2-.2.9-.2 1 .2-.2.5-.7.5-.2.2zm0-1.2-.1.2q0 .2.5.1.8 0 .8-.6l-.2-.1-.4-.1-.4.2z"/><path fill="#f0f0be" d="m145.4 253.7.2-.3.4-.2.3.1.3.1q0 .6-.7.6t-.6-.2z"/><path fill="none" stroke="#875f01" stroke-linecap="round" stroke-linejoin="round" stroke-opacity=".3" stroke-width="1.2" d="m147.5 253.3.4.4.2.4q0 .6-.4.7h-.3l-.8.2h-1 0-.1l-.2-.2-.2-.2-.1-.2v-.2m1.6-1.1.8.2"/></g></defs><g clip-path="url(#b)"><use xlink:href="#c" width="300.9" height="484.4" transform="translate(1 1)scale(1.5355)"/></g></svg>