<svg xmlns="http://www.w3.org/2000/svg" xmlns:xlink="http://www.w3.org/1999/xlink" width="137" height="21" viewBox="0 0 137 21"><defs><use xlink:href="#a" id="e" width="31.4" height="17.1" transform="translate(1.25 1.15)"/><use xlink:href="#b" id="f" width="32.6" height="18.3"/><use xlink:href="#c" id="g" width="30.2" height="17" transform="translate(2.45 1.25)"/><use xlink:href="#d" id="h" width="29.4" height="15.3" transform="translate(2.85 3)"/><use xlink:href="#e" id="p" width="32.6" height="18.3" transform="matrix(-1 0 0 1 32.65 0)"/><use xlink:href="#f" id="n" width="32.6" height="18.3" transform="matrix(-1 0 0 1 32.65 0)"/><use xlink:href="#g" id="l" width="32.6" height="18.3" transform="matrix(-1 0 0 1 32.65 0)"/><use xlink:href="#h" id="j" width="32.6" height="18.3" transform="matrix(-1 0 0 1 32.65 0)"/><clipPath id="i"><path d="M1 1h33v19H1z"/></clipPath><clipPath id="k"><path d="M35 1h33v19H35z"/></clipPath><clipPath id="m"><path d="M69 1h33v19H69z"/></clipPath><clipPath id="o"><path d="M103 1h33v19h-33z"/></clipPath><g id="a"><path fill="#6e920d" d="M31 2.2q1 2.1-.8.6l-27.9 14-.6.3-.5-.9-.3-.6q-.5-1.8.7-3.9l.2-.5h.5q1.6-.4 7.9-3.4l7-3.3 4-1.9 2.7-1.3.3-.1q4.1-1.9 5.4-.8l.8.9z"/><path fill="#9fa774" d="M28.5 2q-.4-.7.3-1t1.2.4-.3 1-1.2-.4M4.6 14.7q-.5-.7.3-1.1.7-.4 1 .2.3.5-.2 1t-1.1-.1M22.8 4q.3.6-.3 1t-1.1-.2l-.1-.4q0-.4.3-.6.8-.4 1.1.2m4.9-2q.3.7-.4 1.1t-1-.2.2-1 1.2.1m-9.7 2.4q.4-.1.8.5.6.9-.4 1.4t-1.4-.2l-.2-.6.6-.8zM13 6l.7.3q.7.5-.2 1-.7.3-1.1-.3l-.2-.3q-.1-.4.3-.6zm-1.7 2.4q-.2-.5.2-.7l.6.2q.3.3-.2.7t-.6-.2M8.9 11q-.2-.7.4-1.1t1.2.2-.3 1.1T9 11m-.3.7q.4.6-.1.9t-1-.2.2-1 .9.3m15.4-7.4q-.4-.5.3-1.1t1 .1-.4 1.1-.9-.1m-5.3.6q-.4-.5.2-.9t1.1.2-.1 1-1.2-.2"/><path fill="#6e920d" d="M7.6 8.5q.5.5-.2.9H6.2q-.4-.5.2-1zm-2.3.7q.4.9-.4 1.4t-1.2-.2.4-1.4 1.2.2m-3 1.4q.6-.2 1 .3.2.3-.1.7-.5.3-.9-.2t0-.8M.2 12.4q-.3-.5.3-1t1 .2-.3 1.1-1-.2M22 .3q.8-.6 1.3.1.5.8-.2 1.3-.8.4-1.4-.2T22 .3m-.7 4.1-.6-.5q-.6-.7.3-1.4t1.5.5l.3 1q-.4-.6-1.2-.2-.4.2-.4.6m4.4-2.5q-.8.4-1.2-.4-.3-.6.3-1.1t1.2.4q.5.7-.3 1.1m-8.9 3.6-.4-.4q-.5-.6.3-1.2t1.1.3l.2.2-.6.3zm-4.4 1.2-.6-.4q-.3-.5.3-1t1 .1V6l-.4.1q-.4.3-.3.6m2.6-1q-.6.3-.8 0t.1-.6h.8q.4.4-.1.7m-6.2 2q.2.5-.2.7t-.7-.2.2-.7q.4-.3.7.2m2.6-.3q-.6.5-1.4-.4t.2-1.2q.8-.2 1.3.4t-.1 1.2"/></g><g id="b"><path fill="#6e920d" d="M3.5 8.9 8.9 7l3.8-1.1 3.7-1q4.5-1.2 6.5-1.1h.9l3.2-1 .6-.1h-.4l3.6-1 .8.9.5.8q1.1 2.2-.8.7l-25 12.6-.5.2-3 1.4-.5-.8v-.2l-.2-.4q-.6-1.9.6-4z"/><path fill="#5e5f43" d="m3.5 8.9-.7 4q-1.2 2-.6 3.9l.2.4-2.4.3L2.7 9z"/><path fill="#6e920d" d="M9.7 6.9q.2-.3-.1-.8-.5-.6-1.2-.3-.5.3-.3.8l-.2-.3q-.3-.7.3-1.2t1 .2v-.1L10 5l.4-.3q1-.4 1.5.5 0-.4.5-.7.5-.4 1 .2l.3-.4.8.1.3.2.4-.4q.7-.5 1.2 0V4q.7-.4 1 .1t.2.7h.7l.2-.4q-.6.2-1-.4-.5-.5.3-1 .7-.5 1 .2.3.5.1.8.5-.2 1 0l-.3-.3q-.7-.9.4-1.3t1.6.4l.2.4.3.2q.5.7-.2 1.2t-1.1-.3l-.6-.1.3.2q.9.8-.2 1.5t-1.7-.3l-.2-.3-.2.5q-.4.3-.8-.2l-.2-.3q-.5.5-.8.2h-.3q.3.7-.3 1t-1-.4l-.2-.3-.5-.3-.2-.2v.2q.2.5-.2.7H13q-.6 0-.8-.5 0 .6-.7 1h-1.2zm-2.9.2q-.6.5-1-.2-.4-.8.1-1.1t1 .2q.5.7-.1 1.1m15.5-5q-.6.4-.9-.1t.3-1 .9.2-.3.9m1.6 1.6q.5-.3.2-.9-.4-.5-1-.1t-.1.8.9.2m-1.2 0q-.4-.6.3-1.1.7-.4 1.1.2T24 4q-.7.5-1.2-.2M29.2.5q.7.7-.4 1.5-1 .7-1.5-.2-.4-1 .4-1.5t1.5.2m-2.7 2.7q.4-.3.1-.9t-1-.1l-.3.2q-.1-.4.5-1 .9-.7 1.4.5.5 1-.4 1.3z"/><path fill="#9fa774" d="M8 6.6q-.1-.5.4-.8.7-.3 1.2.3.3.5 0 .8l-.2.2q-.7.4-1.2-.3zm-1.7 3q.5.9-.2 1.3-.9.5-1.5-.4T5 9t1.4.5m1.2-1.4q.2.7-.3 1t-1-.3.3-1.1 1 .4m16.3-4.5q-.6.3-1-.2-.3-.4.3-.8t.9.1q.3.6-.2.9m1.4-1.3.3-.2q.6-.5 1 .1.3.6-.2.9-.7.5-1.1-.1-.3-.3 0-.7"/></g><g id="c"><path fill="#6e920d" d="M2.4 10.5 8 7.8l1.7-.9 1-.5 1.5-.7L15.7 4l1.5-.7 1-.5h.2q3.4-1.6 4-2.2l6-.3.8.9.6.8v.1q1 2.2-.8.6L2.4 16.2z"/><path fill="#5e5f43" d="M2.4 10.5v5.6L.5 17l-.5-.9q-.1-.2 1.4-5z"/><path fill="#9fa774" d="M28.7.6q.5.8-.5 1.4t-1.4-.5q-.4-.8.4-1.3 1-.5 1.5.4M5.9 9.1q.9-.7 1.5.4.6 1-.3 1.6-1 .6-1.5-.4t.3-1.6m-2 1.8q-.3-.7.3-1t.9.3-.2 1.1-1-.4m15.8-8q.3.6-.4 1t-1-.2.4-1 1 .2m1.9-.2q.4.5-.2 1-.5.3-.8-.3t.1-1q.5-.2.9.3m2.6-.9q.5.6-.3 1.1-.8.4-1.1-.1t.3-1.1q.6-.4 1.1.1m.8.2q-.5-.7.3-1t1.4.4-.3 1q-1 .2-1.4-.4M12.2 6l.2.3q.3.6-.4.9t-1-.3q-.1-.3.1-.6l.3-.2zm-3.3.8q.6-.4 1.1.2.5.5-.1 1.1T8.8 8t.1-1.1"/><path fill="#6e920d" d="M15.3 3.4q.5-.4.9 0l.3-.7q.6-.5 1.2.2.5.8-.2 1.3l-.3.1q.6.6-.2 1.1-.7.5-1.1-.4l-.1-.4-.7-.2q-.5-.6.2-1m.2 2q.7.6-.2 1.1-1 .5-1.4-.2l-.2-.5-.5-.3q-.6-.6.1-1.3.8-.8 1.6.1l.4.9zm-4.4 1-.1-.2q-.4-.7.3-1t.9.3q.2.3 0 .6l-.8.1z"/></g><g id="d"><path fill="#6e920d" d="M29.4.3v.1l-26 13.3L0 15.3q-.3-.5.2-.7l1-1 1-2.6q.2-.7 1-1.4 1.5-1.2 4.5-2.3H8l1.4-.6q4-1.6 6.7-3l1.5-.8L21 1.3l3.3-.9L26 0h1.7z"/><path fill="#9fa774" d="M4.8 7.9q1.1-.6 1.8.3.7 1-.3 1.7-1.2.6-1.9-.5-.6-1 .4-1.5M23.3 1q.3.5-.4 1.1h-1q-.4-.7.3-1.1zm-8.6 2.3q.4-.1.6.2.3.4-.2.8h-.5l-.3-.3q-.2-.6.3-.7zm-2.3 1.1q0-.4.4-.6.7-.3 1.1.2t-.4.9-1-.2zM7.9 6.7l.6.4q.2.5 0 .8l-.5.2q-.8.5-1-.2-.3-.7.3-1.1zm8.7-4.3.2-.2q.6-.6 1 .3l.1.5q.1.5-.3.7t-1-.3q-.4-.5 0-1"/><path fill="#6e920d" d="M21 .5q.4.4-.1.7l-.7-.2q-.3-.3.1-.6zm-6.5 3.9q-.3 0-.5-.3-.3-.4.1-.7l.5-.1h-.2q-.5.1-.2.7zm-1 .6q.1.4-.4.7-.7.5-1.2-.1t.2-1h.2v.2q.3.5 1.1.2m-1.9 1.8q-1 .4-1.5-.4-.6-.7.2-1.1t1.6.3-.3 1.2m-3 1q.2-.2 0-.7l-.7-.4.3-.4q.5-.4 1 .3.3.7-.2 1.1zM19 2.4q-.6.4-1-.1t.1-1 1.1.2-.2 1m-1.2.5-.2-.5q-.4-.9-1-.3l-.2.2.3-.6q.6-.4 1 .3.3.6 0 .9"/></g></defs><g clip-path="url(#i)"><use xlink:href="#j" width="32.6" height="18.3" transform="translate(1 1)"/></g><g clip-path="url(#k)"><use xlink:href="#l" width="32.6" height="18.3" transform="translate(35 1)"/></g><g clip-path="url(#m)"><use xlink:href="#n" width="32.6" height="18.3" transform="translate(69 1)"/></g><g clip-path="url(#o)"><use xlink:href="#p" width="32.6" height="18.3" transform="translate(103 1)"/></g></svg>