<svg xmlns="http://www.w3.org/2000/svg" xmlns:xlink="http://www.w3.org/1999/xlink" width="17" height="18" viewBox="0 0 17 18"><defs><clipPath id="a"><path d="M1 1h15v16H1z"/></clipPath><g id="b"><path fill="#574939" d="m13.4 5.6.4.2.9.5v.5q-2.6-1.6-5.6-3l-1-.1Q11 4.8 13 6.6L8.3 4.3l-.5-.6-3.1.1-2.6-1.5-1.8-.9q.7.2 1.2-.2T2.1 0l.1-.1 1.2.7.2-.1q3 .9 5.4 2.6l.7.4L6 2l-.3-.2Q9.3 4 13.4 5.6M14.8 7l-1.9-1zM4.3 7q3 .9 5.5 2.6l.6.4q-1.8-.7-3.7-1.7h-.3q3.7 2 7.8 3.7l.4.2.2.1v.4l-4.9-2.6H9q2.8 1.1 4.8 2.9l-4.7-2.3-.5-.7-3.1.2q-1.2-.9-2.7-1.6L1 7.9q.7.1 1.3-.2.5-.5.5-1.1l.2-.1 1.2.7zm10.5 6-1.2-.6z"/><path fill="#3a3025" d="M13.4 5.6Q9.3 4 5.7 1.9H6l3.7 1.7zm-3 4.5 3.8 2Q10 10.4 6.4 8.4h.3q1.9 1 3.7 1.7"/><path fill="#6f5f46" d="M3.6.6h-.2L2.2 0zM2 0q-.1.7-.6 1-.5.5-1.2.3H0q0-.7.6-1zm2.6 3.7 3.2-.1.4.5L13 6.5q-2-1.8-4.8-2.9l.9.1q3 1.4 5.6 3V7l-1.9-1 1.9 1v1.1l-4-2.1 1.8 1-.3-.1-3.4-2-1.1-.5.8.6-.2.2L11.8 7l3 1.6v.5zm10.1 9v.3l-1.2-.5 1.2.6v1.1l-3.4-1.9 1.8 1.2-.2-.1-3.5-2-1-.5.7.6-.1.2 3.5 1.8 2.2 1.2v.4l-9.4-5h3.2l.5.6 4.7 2.3q-2-1.8-4.8-3l1 .2zm-14-5q0-.7.6-1l1.4-.2q0 .7-.5 1T1 8zM3 6.6l1.3.6h-.1z"/><path fill="#846f55" d="M14.8 8.2v.5l-3-1.6-3.5-1.8.2-.2-.8-.6 1 .6L12.3 7l.3.1-2-1.1zm0 6.1v.4l-2.2-1.1L9 11.8l.1-.2-.7-.6 1 .6 3.4 1.9.3.1-1.7-1.2z"/><path fill="none" stroke="#565134" stroke-linecap="round" stroke-linejoin="round" stroke-width="__RESOLUTION__" d="M9.7 3.6 9 3.2Q6.6 1.5 3.6.6L2.2 0l-.1.1q-.1.7-.6 1-.5.5-1.2.3l1.8.9 2.6 1.5 10.1 5.4m0-2.8-1-.6-.3-.2M4.3 7q3 .9 5.5 2.6l.6.4 3.8 2m0 0 .4.2.2.1m0 2.8-9.4-5-2.6-1.5L1 7.9l-.2-.1h0q0-.7.6-1l1.4-.2.2-.1 1.3.6m9.1-1.5-3.7-2M2 .1.6.3q-.6.3-.6 1l.3.1-.3-.1h0m1 6.6q.7.1 1.3-.2.5-.5.5-1.1m-2 1.2H1" vector-effect="non-scaling-stroke"/></g></defs><g clip-path="url(#a)"><use xlink:href="#b" width="14.8" height="15.2" transform="translate(1 1)"/></g></svg>