<svg xmlns="http://www.w3.org/2000/svg" xmlns:xlink="http://www.w3.org/1999/xlink" width="56" height="46" viewBox="0 0 56 46"><defs><clipPath id="a"><path d="M1 1h54v44H1z"/></clipPath><g id="b"><path fill="#6c6448" fill-opacity=".3" d="M41.2 22.4q2.8.8 5.2 1.9 7.2 3.3 7.2 7.9t-7.2 7.9l-3.5 1.4.4-.9q1.1-2.7 1.1-4v-.1q-2.1 3.7-2.5 3.7h-.1l-.3-4-.1.1q-.6 2.5-.6 4h-.2q-2.1-3.5-2.6-5.1.7 2.4.7 7.3l-2.5.4-5.3.5h-1.8Q19 43.4 11.8 40t-7.2-7.9 7.2-7.9q2.6-1.2 5.6-2Q22.7 21 29.1 21q6.6 0 12 1.4"/><path fill="#c19b02" d="m31.5 1 .3.3.4.6-.7-.4zM1 35.4q-1-.6-1-1l.2-.2q.2.6.8.8v.3m-.3-1.6 1.5-.7.3-.1 1.2-.4 1.2-.3H5l.2-.1h.6l.2.3.2.2-1.3.5-1.3.3-1.1.4-1.3-.1zM11 12.3q-.5-1-.4-1.2l.2-.1.7.4.3.3h-.4zm.7-1.5 1.5.2 2.2.4h.2l.4.1 1.4.4-.4-.8-.1-.2v-.2l-.1-.2v-.1l.2-.3.1.5.5 1v.2l.1.7-.8.1h-.3l-1.2-.6h-.2v-.1h-.3q-2.1-.6-3.2-1.1m4.1-4.3q-.2-.8.1-1h.3l.5.4q-.3.4-.3 1V7zm13.6-1.3V2.5q0-2.3.4-2.5h.4l.2 1.3q-.3.5-.4 2.1l-.1 2.7-.3.2V6l-.2-.3z"/><path fill="#957702" d="m32.3 1.9.1.1.5.7.1.2.9 1.4v.2l.1 1-1.3-.2h-.3L32 3.9l-.2-1-.1-.4-.1-1zM5.3 39l-.7-.6-1.7-2v-.2l-.1-.1-1.7-.9V35l1.6.1.5.1 1 .3 1.4.5.9.4-.4 1.3-.5-.2zm5.9-26.4-.2-.3.4-.5.4-.1.6.6.4.7.3.4.6.8.4.5.1.2.7.8-.6.7H14v-.1l-.5-.5-.3-.4-.2-.2V15l-.9-1.1-.3-.4-.1-.1zM19 6.9l.2.1q.5.6.8 1.7v.4l.3 1.1.1.6-1.1.8-.5.4-.1-.3.1-1q.2-.7.8-.7V9zm2.1 2 .6-.2.1.2v1l-.5.3zm-4.7-2q0-.7.3-1.1l.9 1 .5.9.3.9-.2 1.3-.1.2-.5 1.4-.5-1-.1-.5.3-1v-.3q0-.9-.7-1.6zm1.3 5.5.2.3-.1.1-.4.3-.1.1-.7-.7h.3zM30.4 1.3v.6l-.2 1.4v.1l-.2.7.1 2h-.2V3.4q.2-1.6.5-2.1m-2.3 5.5-.4.2-.7.3h-.2l-.2.1-.4-.6 1.4-.5zm-12 7.6-.4.5-.6-.4q-.4-.3-.5-.7l-.2-.5V13h.2l.2-.1 1.5.8.3.2zM2.5 33.8l1-.4 1.4-.3 1.3-.5-.2-.2-.2-.2-.1-.1H5l-.1.1-1.2.3 1.4-5 1.1 1.4.4.4.2.2-.6 1.7h.2l1 .1.2.2v.2l-.1.3-.1.5-.1 1-1 .3-1.7.3h-.5l-.8-.2zm4.2 1.8-1-.1q-.7-.2-1-.5l1.4-.4.2-.1H7zm-3.9.8 2.2 1 .5.2-.5-.2z"/><path fill="#613601" d="M34 5.5h.2l-.5 3.3-1 .9h-1l-4-2.7.4-.2 1.2-.4.3-.1.3-.1.2-.1 2.3-.7.2-.1h.1zm-16 7.3.9-.7V12l.5-.4 1.1-.8.9-.6.6-.3v-.2l.6-.3.6-.3 1.4-.7 1-.4 1.1-.6.3.4v2q-3 .3-5.5 1.3l-.8.4-.8.3-1 .6-.6.4h-.1zl-.7.5-.2.1-.1.1.3-.3.1-.1.4-.3zm7.3 1.4 1.5-.4v1h-.1zm-5.2 2.4.3 1-1.2-.3zM17.2 19l.3.1-1.4 3.6-1.9.4.6-.9q1-1.8 2.4-3.2m-4.5 7.4 2.5 1-.5 1.9-.8 1.6h-2.6q.6-2.4 1.4-4.5m.9-9.2.2-.2zl-.2.5-.9 1.6-.2.7q-.6 1.5-.8 3.1l-.1.6-1.7.4.6-1.4v-.2l.4-.7v-.1l.6-1.1.5-.8.4-.7 1-1.5zm-3 17.2 2.6 1.5v.3l.1 1.5-3.3 1.1zm24.6-12.2.3-.2 5.4 1.9 1.9 4.7.2.4h-2.8l-2.5-.3q-1-4.1-2.5-6.5m1.8 6.3q-1.5-.4-2.7-1.2l-.4.2-1-1.7-.5-.5-.4-.3-1.8-.2 2.3-1.2 1.8 1.4q2.1 1.9 2.7 3.5M9.4 25l1.7.7-1 5.2H7.7l.2-.8V30l.3-1.2v-.3l.1-.3.1-.2.6-2zm0 8.7-.1.8-1 4.9-1.4.5v-2l.5.1-.5-.1-.6-.2H6l.4-1.3.3-.8.3-1.1.3-.9.1-1.1z"/><path fill="#874a01" d="M34.2 5.5q3.5.6 8.1 2.7 5.6 2.6 8.8 10.3.7 2.6.7 4.6.1 2.2-.7 3.7v-3.4Q49.6 10.6 32.7 9.7l1-1zM30 24.9h-.1l-.2.1-.8.6q-2.2 1.9-3 4.6l-.6 3.3v.3h-.1l-.5.3v-.4l.3-5.2q.4-3.3 2.4-4.9 1.3-1 2.7-1 .9 0 2.4 1l-2.3 1.2zm1.6-15.1-1.8-.1-3 .2v-2l-.3-.4h.1l.3-.1.7-.3zm-5 4.1 3.6-.3 9.6.8q3.6 1 6 4.4 1.8 2.5 3 5.5l.4.8H49l-2 1.5-.4-1.4q-1.5-3.1-5-5.4l-6-3.8q-3-1.3-6.9-1.3l-2 .1zM16.2 35.3q1.1-6.5 5.4-12.2l3-4.3q1.1-1.3 4.7-1.3 7.5 0 10.3 3.5.9 1.1 2.8 5.8l.7 1.7h-.2l-2-4.6-5.3-1.9-.3.2q-2.4-3.6-6-3.6-2.6 0-6.4 6.6-3.7 6.2-3.9 10.5zM25 14.2l1.4.6q-6 .8-9 6.4-1.4 2.4-2.3 6.2l-2.5-1q.7-1.8 1.6-3.3l1.8-.4 1.4-3.6-.3-.1 1.8-1.7 1.1.3-.2-1q2.3-1.7 5.2-2.4m-15.4 10 1.7-.4-.3 1.9-1.7-.7zm1.6 6.7h2.6l.8-1.6q-.7 3-1.2 6.8l-.3.1v-.4l-2.6-1.4zm-3.7.6.1-.6H10l-.6 2.8-2.1-1.2.1-.5v-.3z"/><path fill="#9a5501" d="m51.1 26.8-.2.2h-.7l.3-.4q.4-.8-.2-1.4L50 25l-.4-.1h-.3v.1l-.4-.8q-1.2-3-3-5.5-2.4-3.3-6-4.4l-9.6-.8-3.7.3.3-4 3-.2h1.8l.6.5.4-.4q16.9.9 18.3 13.7l.2 2.4zm-31.3-15 5.3 2.4q-2.9.7-5.2 2.4l-1-4.2zm6.8 3 2-.1q3.9 0 7 1.3l6.1 3.7q3.5 2.3 5 5.4l.5 1.4-2.2 1.7h-.3l-1.7.3-.7-1.7q-1.9-4.7-2.8-5.8-2.8-3.5-10.3-3.5-3.6 0-4.7 1.3l-3 4.3q-4.2 5.7-5.4 12.2H16v-.4l-.3-.3-.2-.1-.4-.1h-.4l-.4.3-.3.5-.2.4v.3l-.2.2q.5-3.8 1.2-6.8l.9-1.7-.4-.2q1-3.8 2.3-6.2 3-5.6 9-6.4m5.9 8.8q-1.5-1-2.4-1-1.4 0-2.7 1-2 1.6-2.4 4.9l-.3 5.3v.3h-.1l-2.2 3.1-1.8-1-.2-.4-.5-.1h-1q.2-4.4 3.9-10.5 3.8-6.6 6.5-6.6 3.6 0 5.9 3.6zM19 17.3 17.2 19l-3.3-2 .3-.6q.6.5.7.1zm-4.6 5.8q-.9 1.5-1.6 3.3l-1.6-.7.3-2zm-4.1 7.8h1.2l-.7 3.5-1.1-.7z"/><path fill="#7b6302" d="m50.9 27-.2.3-.6.7-.9-2.9V25h.1l.3-.1.4.1.3.2q.6.6.2 1.4l-.3.5zm-3 2.8q-1.1.6-2.4.9L44 31h-.2l-.8-2-.2-.4.2-.1 1.7-.3h.3l2.2-1.7zm-22.5 4-.2.6-.1 1-1 2q.6-1.6.7-3.3zm-5.8 6.9-.5.1-3 .6-.2-1.4q0-1.4.2-2.7l.2-2 2.8.4v.4q0 1.4.5 4.3zm-6.1.7h-.7L10 41v-1.5l.1-.8 3.3-1.1v-.5l.2-1.1-.3.1.1 1.5zm-5.2-.7-.4-.2-.8-.3v-.3l1.5-.5-.2.9z"/><path fill="#8e7302" d="m50.1 28-2.3 1.8-.6-3.3L49 25l.1-.1v.1zm-26 9.4L23 38.6q-1.4 1.4-3.6 2v-.2q-.5-2.9-.5-4.2v-.3l.3-.1.7-.1.5.1.2.5q.9.3 1.8.9l2.2-3.1h.1q-.1 1.7-.6 3.3m-8.2 4h-2.6v-4.2l.2-1.1.2-.2v-.3l.2-.4.3-.5.4-.2.4-.1h.4l.2.2.3.3v.4h.2l-.2 2q-.2 1.3-.2 2.7zm-6-.3L8 40.7v-.4l.3-.9 1.6-.6v.8z"/><path fill="#544301" d="m43.8 31-3.8.3h-.2l-1.5-.1-.6-2.5 2.5.3H43zM37 31l-1.9-.2-.3-1-.9-.6q-.4 0-.5.4l-.2.7-1-.4.4-2 .8.2.1-.3.3-.3h.2l.4-.1v-.1q1.3.8 2.7 1.2v.4l.1.6zm-3-3-.1-.6z"/><path fill="#635001" d="m38.3 31.2-1.4-.1.2-1.6v-.6l-.1-.4.6.2h.1zm-3.2-.4-.2-.1-1.4-.3-.4-.1.3-.7q.1-.4.6-.4l.8.7zm-2.8-.9-.5-.3-.8-1.8 1.6.1z"/><path fill="#744001" d="m30.9 27.8-.2-.9-.5-2v-.1l1.8.2.4.3.5.5 1 1.7h-.2l-.3.3-.1.3-.8-.2zm-4-18-.2 4-1.6.4-5.3-2.4.8-.3.8-.4q2.5-1 5.5-1.3m5.6 13.8 2.7-1.4q1.5 2.4 2.5 6.5h-.1l-.6-.2q-.6-1.6-2.7-3.5zM17 13.6l.1-.1.2-.1.7-.5.3-.1.4-.4h.2l1 4.2-1 .7-4-.8-.6-.1.6-.6.7-.9.5-.5.4-.4zm-5.6 10.2v-.6q.3-1.6.8-3.1l.3-.7.9-1.6.2-.4v-.1l.3-.3 3.3 2q-1.3 1.4-2.4 3.2l-.6.9zm-.3 1.9 1.6.7q-.8 2-1.4 4.5h-1.2zm3.6 3.6.5-1.9.4.2zm-5.2 4.4 1 .6-.5 4.5-1.6.6.9-5z"/><path fill="#bdb59b" d="M31.8 9.7h1l-.4.4zm-5.2 5.1h.1zM17 13.6l-.4.4-.6.4.5-.4z"/><path fill="#886d02" d="m6.7 40-1.1-.8-.2-.1.2-1.6.5.2h.3l.6.2V40zm9.6-34.5.7.2 1.1.6.3.1.3.2.2.2.7 2.3v.9q-.6 0-.8.8l-.1.9v.4l-.8.7-.2-.3-.1-.7v-.2l.5-1.4V10l.3-1.3-.2-.9-.6-.9-.9-1zM19.2 7l.2.2 1.3 1.3.2.2.2.3.2 1.2-.9.6-.1-.6-.2-1.1L20 9v-.3q-.3-1.1-.8-1.7m12.4-5.5.1 1 .1.5.2.9.4 1.4-2.3.8-.1-2 .2-.7v-.1l.2-1.4v-.6l.4-.3zM11.8 11.7l2.6.4 2 .5.8.7-.3.3-.5.4-.3-.2-1.4-.8h-.3l-.2.1v.2l.2.5q0 .4.5.7l.6.4-.7.9v-.1l-.7-.8-.1-.2-.4-.5-.6-.8-.3-.4-.4-.7zM17 10q-.6-1.7-.6-3.1l.2.2q.6.7.6 1.6V9zm12.5-4.5v.7h-.2l-1.2.5H28l-.4-.5zm-22.7 24 .5.4h.1l.5.2-.2.8-.1.6-.2-.2-1-.1h-.2zm-4.3 4.3.8.1.8.2h.5l1.8-.4.9-.1-.3.9H6l-1.4.5q.3.3 1 .5h1l-.3.9-1-.4-1.2-.5-1.1-.3-.5-.1L1 35q.3-.7 1.5-1.2"/><path fill="#a4a335" d="m2.8 36.5-.1-.3.1.1z"/><path fill="#ae8c02" d="m.2 34.2.2-.3.3-.2h1.8Q1.3 34.4 1 35q-.6-.1-.8-.8M10.8 11l.8-.2h.1q1.1.5 3.2 1l.3.1h.2l1.2.7-2.2-.5-2.5-.4h-.1l-.3-.3q-.3-.3-.7-.4m5.5-2.2-.2-.7-.2-.7-.1-.9.6.5q0 1.4.6 3l-.2.4-.2-.4-.2-1zm14-8.7 1.2 1v.4l-.7-.5-.4.3z"/><path fill="#fff" d="M2.2 33v-.1h.3zm5.2-15.6v-.2l.3.4zm1.5-2.1v-.1l.3.2z"/><path fill="#ac8a02" d="m2.2 32.9.1-1 .2-1.4 1.2-4.9.8 1 .6.9-1.4 5-1.2.4zm11-22 1.2-.8 1.9-1.3V9l.3 1 .1.4.1.1v.2l.1.2.1.2.4.8-1.4-.4-.4-.1h-.2zm6.2-3.8 2.5-.9-.1 1.7v.7L21 9l-.2-.3-.1-.1-.1-.1zm6.2-1.6.7-.1 3.1-.3v.4l-1.8.7-1.4.5v-.2l-.5-.8z"/><path fill="#cb7101" d="M3.7 25.6q-.7-1.1-.5-1.4V24l1.7 2 1 1.2.6.8q.8 1.1.8 1.8l-.5-.4-.1-.2h-.1l-.4-.4-1.1-1.4-.6-.8zm0-1.7h.6l1.4.1.6.1 1.3.3h.2l.7.3h.3l.1.1q-.2.4-1.1.4H6.6l-.3-.1L6 25l-.8-.3q-1.3-.4-1.5-.8m3.5-7.3-.3-.8 1 .7.3 1.2zm15-12.8.3-.8.6.8-.4 1.7z"/><path fill="#f88901" d="m3.2 24.1.5-.2q.2.4 1.5.8h-1v.5l.7.9zm4.3-7-.3-.5 1 1.1.9 1.5.3.4v.1l.4.8h-.4l-.2-.2-.3-.4-.4-.8-.5-1-.3-.5zm-.6-1.4V15h1.7l.3.2h.3l.5.2q-1.8.1-1.8.8v.2zm15-9.5v-.8l.3-1.7.5 1.7-.1 1v1l-.1 1.9-.6.3v-.2l-.1-.6V6.3m.7-3.3.3-.2q.3-.2 1 .6l-.2-.1-.5.5z"/><path fill="#cd7201" d="M4.3 23.9q.9-2.8 2-4.9l1-1.6.4.2.3.6.5.9-1.8 4-.4 1-.6-.1zM9 15.2V15l1.5-1.7.2-.2.3-.3.1-.1.6.8.1.1.3.4-.2.2-1.5 1.6-.3-.1-.5-.2-.5-.1z"/><path fill="#c26b01" d="m23.8 3.4.6.6.3.4.2.2.1.3.4 1v1.2l.1.8-1 .5V7.2l-.1-.7-.5-1.3-.8-1.4.5-.5zm-1.3 6.1v-2l.1-1 .1-1 .3 1.8v.5l.1 1.1v.2zM12.2 14l.9 1v.2l.2.2.3.4.5.5.2.1-.5.6-.2.2-.3-.5-.7-.7-.5.7-.1-.1-.5-.3-1-.5 1.5-1.6zm-1.7 1.8 1 .5.5.3.1.1.4.3.5.4.3.3-1.1 1.5-1-.6-1.6-1-.2-.2-1.5-1v-.1q0-.7 1.8-.8l.5.2zm1.3 4-.5.9-.8-.5-.1-.2-.7-1.1 1.2.4zm-1.5 2.9-.7 1.4-.2.8-.5-.2h-.1l-.1-.1h-.2l-.6-.2.8-1.7.6.1zm-2-5.1.2.2.3.4v.1l.3.7.3.5-.3-.4zm1.5 2.8-.2.3-.2-.3z"/><path fill="#ad6001" d="m24.9 4.6.2.2.4.8.2.2.4.8.1.1.4.7-1.1.6V6.8l-.1-.8-.4-1.1zm-2.2.9.4-1.7.8 1.4.5 1.3.1.7v1.2l-1.4.7v-.2L23 7.8v-.5zM12.1 16.7l.6-.7.6.7.3.5-.3.5-.3-.3-.5-.4zm-.8 4-.6 1v.2l-.3.7-.1.2-1 .1-.6-.1.9-2 .2-.3-.4-.8v-.1l-.2-.5-.3-.7-.2-.1-.2-.4-.2-.2-.4-1.2 1.5.9.2.2 1.6 1 1 .6-.4.7-.9-.6-1.2-.4.7 1 .1.3zm-4.7 4.5.7.2.7.2 1 .5-.6 1.9-.1.2v.3l-1.2-1-.4-.4-.7-.4-.5-.3-.6-.3-.6-.9v-.5h.9l.8.3h.3z"/><path fill="#cfd08c" d="M18.9 35.7h.3l-.3.2z"/><path fill="#d5d0be" d="m14.3 16.4.6.1q-.2.4-.7-.1zm-.5.6.4-.6z"/><path fill="#b66501" d="m9.6 20.8-.9 2-.8 1.7-.1-.1h-.2L6.3 24l.4-1 1.8-4 .4.8.3.4.2.2z"/><path fill="#945201" d="m8.9 24.8.5.2-.4 1-1-.4-.7-.2-.7-.2h1.2q.9 0 1.1-.4m-1 5.3-.5-.1-.1-.1q0-.7-.8-1.8l-.6-.8-1-1.2.6.3.5.3.7.4.5.4 1 1v.3L7.9 30"/><path fill="none" stroke="#333" stroke-linecap="round" stroke-linejoin="round" stroke-width="__RESOLUTION__" d="m31.5 1 .3.3.4.6m.2.1.5.7.1.2.9 1.4v.2l.1 1h.2q3.5.6 8.1 2.7 5.6 2.6 8.8 10.3.7 2.6.7 4.6.1 2.2-.7 3.7l-.2.2-.2.3-.6.7-2.3 1.8q-1 .6-2.3.9L44 31h-.2l-3.8.3h-.2l-1.5-.1-1.4-.1-1.9-.3-.2-.1-1.4-.3-.4-.1-.8-.4-.5-.3-.8-1.8-.2-.9-.5-2m-.3.1-.8.6q-2.2 1.9-3 4.6l-.6 3.3v.3l-.2.6-.1 1-1 2-1 1.2q-1.4 1.4-3.6 2l-.5.2-3 .6h-3.3L10 41l-2-.3-.4-.2-.8-.3-.2-.2h-.1l-1.1-.8m-.2-.1-.8-.6-1.7-2-.1-.3-1.7-.9q-1-.5-1-.9l.2-.2.2-.3m.3-.2 1.5-.7v-.1l.1-1 .2-1.4 1.2-4.9q-.7-1.1-.5-1.4V24m0 0 .5-.2h.6q.9-2.8 2-4.9l1-1.6.2-.2-.3-.6-.3-.8V15h1.7l.3.2v-.1l.2-.2 1.5-1.7.2-.2.3-.3.1-.1v-.1l-.2-.3q-.5-1-.4-1.2l.2-.1.8-.2h.1l1.5.2 1.2-.9 1.9-1.3L16 8l-.2-.7-.1-.9q-.2-.8.1-1h.3l.8.2 1.1.6.3.1m.8.6.2.2 2.5-.9v-.8l.3-1.7.3-.8.3-.2q.3-.2 1 .6l.6.6.3.4.2.2.2.2.4.8.8-.1 3.1-.3V2.5q0-2.3.4-2.5h.4l1.3 1m-14.7 9.4-.2-.4-.2-1-.1-.2M13.1 11l2.3.4h.2l.4.1 1.4.4-.4-.8-.1-.2v-.2l-.1-.2m2.6-3.3 1.3 1.3m.2.2.2.3m.6-.3V8l.2-1.7m-4 6.5.9-.7V12l.5-.4 1.1-.8.9-.6.6-.3v-.4l-.1-.6v-.2m4.4-2v-.1l-.5-.8-.1-.2m3.8 0v.2l.2.3v.2h-.3l-1.2.5-.4.2-.7.3h-.2m-.2.1.3.4m-.3-.4-.4-.6m3.3-1.2-.1-.4m-12.1 8.1.4-.3v-.1m-.6.5-.2.3-.5.4-.4.4m-4.9-1.7.6.8.1.1.3.4.9 1v.2l.2.2.3.4.5.5h0l.2.1-.5.6-.2.2-.3.5-1.1 1.5-.4.7-.5.8-.6 1m-.2-5.9 1 .5.5.3h0l.1.1.4.3m1.8-.6q.4.5.6.1M10.6 22l-.3.7m-.1.2-.7 1.4h0M34 27.5l.1.6M32 25l-1.8-.2m3.7 2.7-1-1.7-.5-.5m-25-8.1.3.4.3.6.5.9.4.8.3.4h0m.5-4.8-.5-.1-.3-.1m.8.2.5.2.3.1m-4.2 8.3-.6-.1-1.4-.1m5-3.4.3.3M4.9 32.2l-1.2.3-1.2.4-.3.1m7.2-8-.5-.2h-.1l-.1-.1h-.2l-.6-.2m-.1-.1h-.2L6.3 24m2 4.4v-.3l.1-.2m-1.1 1.9-.5-.4m.8 2 .1-.6.2-.8v0l.3-1.2m-1.6.5-.4-.4-1.1-1.4-.6-.8-.8-1.1m-.9 10.7-.1-.1m4.6-2.6.1-1.1h0l.1-.5v-.3m-.6 6.2.5.1M6 37.7h.3l.6.2v2.3m-1.4-2.7-.5-.2-2.2-1M6 37.7l-.5-.2" vector-effect="non-scaling-stroke"/></g></defs><g clip-path="url(#a)"><use xlink:href="#b" width="53.6" height="43.4" transform="translate(1 1)"/></g></svg>