<svg xmlns="http://www.w3.org/2000/svg" xmlns:xlink="http://www.w3.org/1999/xlink" width="685" height="143" viewBox="0 0 685 143"><defs><g id="a"><path fill="#5c670d" fill-opacity=".7" d="M13.9 11.6v.5l-.2 3.2-.1.3-.7.6-.4.4q-.2.3-.4.3h-.4l-.7.4-.2.3-.2.7v.1l-.8.5-.3.3-.3.3-.1.2-.1.2-.8.7-.3.3-.1.3-.2.5-.2.1-1.1-.4h-.2l-1.2-.7-.4-.3-.8-.5q.5-2-.7-1.7-1.2.1-.6-.2l-.1-.8-.1-.8q-.2-.9-.8-1.8L1 14l-.5-.6.8.6.5.3h.6l.1-.2.1-.2.1-.2q.2-.7 1.1-.6H4q.6 0 .9-.3.4-.6-.2-2.2l-.1-.3q-.3-.7-.2-1.2v-.3h.1l.2.1.2.1q.5.1.8 0v-.1q.5.3-.2-.3l-.2-.2-.5-.5-.6-.8-.4-.3-.5-.5Q3 5.9 3 5.4v-.2l.1-1.5v-.6q-.1-.7.4-.8.7-.2.7-1l.1-.2.5-.5L6 .8q.2.2.2-.4h.6l1.3.8L10 2l.2.1.5.6.1.4q.4.7.5 1.4v.6l.2.3q.6.7.7 1.4v.5l-.1 1 .4 1 .5.7.2.3.6.9zm4.3 11 .2 1.2v.7l-.1.4-.3.4-.3.4-.2.1-.3.3-.1.1-.2.1-.3.1-.2.1q-.2.5-.7.3l-.4-.2H15l-.3-.2h-.5l.6-.6.2-.3v-.2q0-.4-.3-.5l-.2-.3v-.8l-.2-.3-.2-.2v-.1l.1-.3 1.2-1.1.2-.2.1-.5.4-.6q.3-.4 1-.4h.5l.4.3v.2l.1.1v1.9m0 7.5.8.7q.5.8 1.2 1.2l.5.3q1.6.4 1.9 1.8-.2 1-.9 1.9l-.2.4v.2q-.1.9.2 1.6t.2 1.5v.8l.1.5.1.4v.2l-.1.4-.1.1-.1.3-.3.3v.4l.4.3.4.1.2.2-.6.5-.5.2H21l-.9.2q0-1.2-1.2-.6l-1.1-.6q-.2-1.3-2.9-1.5l-.7-.4q2-1.1-1.4-.8-2.1.1-1.9-1l-1.7-.9-1.2-.6-1.8-1q.7.1 1.2.4l.3.2.3.2q.4 0 .8-.3.5-.5.8 0 .5.8 1.5.6h.2l.7-.2.8-.4q-.2-.4-.6-.6l-.4-.4q-.8-.8-.7-2.2v-.3l1.5-.2.4-.1q.4 0 .7-.3.4-.4.3-1.1-.1-.5.1-.7l.2-.1 1-.2q.9-.2 1.4-.7l.2-.3q.4-.7 1.2-.4M3.4 32.4l.4.1.5.5.6.4.2.1.2.6q.3.6.3 1.4v.7l-.2.6-1.3-.6-.4-.2q-2 .5-1.6-.9l-1.2-.6L0 34l.4-.1.4-.1q.6-.2.8-.8v-.3q0-.5.3-.6h.8z"/><path fill="#4f561a" fill-opacity=".7" d="m3.7 20 .8.5.4.3 1.2.6.2.1 1.1.4.2-.1.2-.6.1-.2.3-.3.8-.7v-.2l.2-.2.3-.4.3-.2.8-.5v-.1l.2-.7.2-.3.7-.4h.4l.4-.2.4-.6.7-.5.1-.3.3-3.2-.1-.5v-.1l.3.9v.1q0 .7.3 1.5l.3.7v.1l.2 1 .3 1.1v.6l-.3.3-.5.4-.9.1-.2.1-.4.4q-.1.3-.5.3h-.4q-.7.1-1 .8l-.1.3v.3l-.1.5-.3.7v.1l-.3.4h-.1l-.2.3-.2.3-.2.2q0 .4-.3.4l-.5-.2-.2-.2-1.1-.5-.6-.3-.5-.3-.7-.5-.8-.1q-1-.1-1.2-1.2z"/><path fill="#434516" fill-opacity=".7" d="m20.1 44.6.9-.1.5-.1.5-.1.6-.6-.2-.2-.3-.1-.5-.3v-.4l.3-.3.1-.2.1-.2.1-.4v-.2l-.1-.4-.1-.5v-.8q0-.8-.2-1.5t-.2-1.6v-.2l.2-.4q.7-.9.9-2l.1 1v.2q0 1 .2 1.9l.1.5v.1l.1.3.2.4.5.6.1.3v.8q-.6 1.1-.7 2.4l1 .1.7.7.1.5v1l-.1.9q-.2.8.1 1.2l.2.1-.2.3-.2-.2-.7-.4-1.8-.9-2-1.1z"/><path fill="none" stroke="#3e3e0f" stroke-linecap="round" stroke-linejoin="round" stroke-opacity=".7" stroke-width="__RESOLUTION__" d="m13.1 10.3-.2-.3-.5-.7-.4-1m0-1.5q0-.7-.6-1.4l-.2-.3v-.6m-.5-1.4-.1-.4-.5-.6m-1.8-.9L6.8.3l-.5.1M4.8.6l-.5.5-.1.2M3 5.3l-.1.1m2.5 3.2q.7.6.2.3V9m-.8 3.8q-.3.3-1 .3m-1.3.8-.1.2-.1.2H2m.1 2.2.1.8v.8q-.5.3.7.1t.7 1.8v.1q.2 1.2 1.2 1.3l.8.1.7.5m2.2 1.1.2.2.5.2m1-1.2.3-.4v-.1m.4-1.6V20q.4-.7 1-.8m1.4-.7h.2m.9-.2.5-.4.3-.3m-.6-2.7-.2-.8q-.3-.8-.3-1.5v-.1m4.3 11.6v.5m-.8 1.1-.2.2-.3.3-.1.1-.2.1m-1.6.3H15l-.3-.2h-.5l.6-.6.2-.3m-.5-1.8-.2-.3-.2-.2m1.5-1.7.1-.5.4-.6m1.5-.4.4.3v.2l.1.1m0 1v.9m.9 8.2-.8-.7h0m-1.6.6q-.5.6-1.4.8l-1 .2-.2.1m-1 2.1h-.4l-1.4.3-.1.3h0m.7 2.3.4.3.6.6-.8.3-.7.3h-.2q-1 .3-1.5-.6-.3-.5-.8 0-.4.3-.8.3m0 .2 1.2.6m1.7 1q-.2 1 1.8.9m1.5.8.7.4m2.9 1.5 1.1.6m3.8-10q-.3-1.3-1.9-1.7l-.5-.2m-15 2-.2-.6-.2-.1-.6-.4-.5-.5-.4-.1M1.9 32q-.2.1-.2.6l-.1.3q-.2.6-.8.8m0 .7 1.3.6m1.6.9.4.1m1.5.1v-.7M25 43.8l-.1-.5m-.7-.6-1-.2q.1-1.2.7-2.4v-.9m-.9-1.6-.1-.5m-.2-1.9V35l-.1-1 .1-.6m-2.4 11.3 2 1.1m1.8 1 .7.3m.3-.2q-.4-.4-.2-1.2l.1-.9" vector-effect="non-scaling-stroke"/></g><g id="b"><path fill="#3b3b0f" fill-opacity=".7" d="m15.3 4.3.5.2q-.2.3-.2 1.1l.1.8.2 2.4v.1l.2.5v.6l-.6 1.3-.2.6-.7.9-1.6-.1q-1.2-.4-2.1 1t-.2 1.8l.9.8v.3l-.2 1-.2.4-.2.1-.9.3-1.6.9-.5.3-.6.4-.3.3-.2.1V20l-1.7-.2h-.1l-.3-.2h-.2l-.3-.2-.3-.2h-.1q-.3 0-.4-.2l-.1-.1-1.2-.1.3-1 .3-.4.4-.6.3-.7.2-.2q.3-.7.3-1.5l-.2-1-.1-.4-.1-.3v-2q-.2-.9-.9-1.2l-.3-.2-.6-.7-.1-.3-.1-1q.1-.8-.2-1.3L1 5.5.3 4.3l-.2-1V.6L.3.1h1L3 .6v.8l.3.4q.5.7 1.3 1.1l.4.2q.6.3.5.8v.7l-.1 1.5v.5l-.1.4v.5q-.1.8.3 1.4h.1l.5.5q.3.3.8.3v.1h.2l-.1.4v.2l.3.1h.3q.8-.2.7-1v-.2l.1-.7.1-.8v-.7l.1-.2V6l-.1-1v-.3L8 3.8l-.8-1v-.2L8.5 2l1.6.7.8.2q2.2.5 4.4 1.4"/><path fill="#5c670d" fill-opacity=".7" d="M6.9 20.5q-.9.4.3 3.3l.2.6.5 1.2 1 2.1q.3.7-1.1-.8l-1.4-1.5-.5-.6q-3.6-4-3.4-3.2l.1 1.1h-1l.2-.7.1-.2.1-.3.1-.1.3-.6v-.4l-.2-.7v-1l1.2.2.1.1.4.1.1.1.3.2.3.1.2.1.3.2h.1l1.6.2.1.3zm4 12.9q-.3-.5 0-1.4.2-1 .1-2 0-.6.3-.6l.4-.1q.4.1.6 1.4v1l.3 1.1q.3.7.9 1.3t1.4 1l.5.2 1.9 1 .6.4q.4.6 0 2v.1l-.1.8v.6l.1 1.8v.1l-.1-.1-.5-1.3v-.2l-.1-.2-.5-1v2.9l.3 1.1v.6l.3.4.3.4v2q-.2 1 .4 1.6l.3.2 1.1.8.5.3-.1.1-.2.1-.5.4-1.5 1.3-.6.6-.4.3h-.4q-.4 0-1.4-1.4t-5.5 1.6q-3.4 2.3-2.1 1l.7-.6-.3-.5v-.1q-.2-.5.2-.5l.5-.4.2-.4.3-.4h.4q.5.4 1 .4l2.7-2q.7-.4.4-1l-1-2.1q-.9-1.4-.8-2.6l.1-.1.8-.7.7-1 .2-.4v-2.7l-.3-1.2V37l-.4-.9-.1-.3-.2-.5-.2-.2-.1-.5q0-.6-.7-1zM7.9 53l.1.1-.1.3q-.2.4-.7.3.5 0 .7-.3l.1-.2zl.5-.4z"/><path fill="#434516" fill-opacity=".7" d="M17.9 42v.1l.3.6.2.4.2.8.1.4v1l.1.8.4 1.4.8.9.4.4.4.4.2.3.1.1v.1h-1.5l.1-.1.2-.1-.4-.3-1.2-.8-.3-.2q-.6-.6-.5-1.6l.1-.4v-1.5l-.3-.5-.3-.5v-.4l-.2-1.2-.2-.2v-2.6h.1l.5.9v.2l.1.2.5 1.3zm-6.4 1.3h-.2l.3-.1zm-1.4 0v-.1l.3.1zM5.7 32.8"/><path fill="none" stroke="#27270a" stroke-linecap="round" stroke-linejoin="round" stroke-opacity=".7" stroke-width="__RESOLUTION__" d="m15.3 4.3.5.2q-.2.3-.2 1.1l.1.8M16 9l.1.5v.6l-.6 1.3-.2.6m-.7.9-1.6-.1m-2.1 1q-1 1.3-.2 1.8l.9.8v.3m-.4 1.4-.2.1-.9.3m-1.6.9-.5.3-.6.4-.3.3m-4.9-1.6.3-1M3.8 16q.3-.8.3-1.6m-.2-1-.1-.4-.1-.3m0-1.1v-.9M2.4 9.3l-.6-.7-.1-.3m-.1-1q.1-.8-.2-1.3m-1-1.7-.3-1m0-1.9V.6L.3.1m2.6.5v.8m1.6 1.5.4.2q.6.3.5.8v.5M5.1 7v.5q-.1.8.3 1.4m2.8.6v-.2l.1-.7.1-.8v-.7l.1-.2m-.2-2.3L8 3.8l-.8-1v-.2L8.5 2m-.6 51-.3-.5m1.3-1.9.3.1q.5.4 1 .4m-3 2.5q.5.1.7-.2l.1-.2-.1-.2" vector-effect="non-scaling-stroke"/><path fill="none" stroke="#3e3e0f" stroke-linecap="round" stroke-linejoin="round" stroke-opacity=".7" stroke-width="__RESOLUTION__" d="m7.2 23.8.2.6m.5 1.2 1 2.1q.3.7-1.1-.8m-1.4-1.5-.5-.6M1.8 22l.1-.2.1-.3m.2-1.9v-.9m8.7 14.6q-.3-.5 0-1.4.2-1 .1-2 0-.6.3-.6m1.3 3.4q.3.7.9 1.3m2 1.2 1.8 1m.6 2.5-.1.8m.1 2.4v.1m1.7 7.8-.5.4m-1.5 1.2-.6.6m-.7.3q-.6 0-1.5-1.4m-5.5 1.6q-3.4 2.3-2.1 1l.7-.6.5-.4m4.4-3.5q.8-.4.5-1m-1-2.1q-.9-1.4-.8-2.6m.9-.8.7-1 .2-.4V41m0-2.6-.3-1.2m-.5-1.4-.2-.5m5.9 7.4.2.4.2.8m.2 2.2.4 1.4.8.9.4.4.4.4" vector-effect="non-scaling-stroke"/></g><g id="c"><path fill="#5c670d" fill-opacity=".6" d="M23.7 18.7h.1l.3.3.2.3.2.6v.9l-.1.2-.1.6-.1.7.2 1.2-.1.2-.2 1.1v.8l.1.2-.3.6-.3.9v.2l-.1.8-.1 1.3-.4.8h-.2l-.4-.2-.9-.4-.2-.1-1 .1-.2.1h-.2l-.1-.3-.7-1.4-.6-.8.8.5-.2-.3-.2-.5q-.4-.6-.4-1.6v-.4l-.5-.8-.1.2.2.8.1.5v.4l-.6.2-.4.1h-.6l-.2.1v.4l-.3.9-.3.4-.2-.1-.6-.6-.6-.4-.4-.4v-.1l-.7-.5q-.4-.1.1-.7l.1-.2.4-.7.1-.2-.1-.2-.7-.9-.3-.4-.2-.2-.2-.4-.2-1v-1.6l.1-1.2v-.1l-.3-.7-.2-.2-.2-.2-.2-.6v-.4l.4-.6.4-.2.5-.2.3-.1.2-.3.3-.7.5-.8.2-.3v-.2l.1-.5.1-1.1v-.6l.1-.2.2-.1h1.3l.4-.5.4-.7.3-.1.6.2.2.1.7.4.4.3.1.3.4 1v.3l-.3 1.3-.3 1v.6l.5.3.4.3q.4.3.5.8l-.1.2v.3l1.2.6.3.1.1.2.2.2.6.4.4.2.4.3zm-8.6 22.2.2.5.1.3.2.4h-.3l-1.2-.6-1.8-.9-.7-.3-1.7-.9-1-.3-1.2-.6L7 38l-1.7-.7-.7-.4-1.9-.9-.5-.1L0 34.8v-.4l.4.1h.4l.7.1h.3l.6-.1.3-.5v-.3l-.2-.4q-.2-.5.2-.6l.3-.4.2-.2.7-.2h1.3l.5.1.1-.8v-.4l.2-1.2.3-.1.2-.2.5-.4h1.3l.2.2h.1l.3.4q.5.6.5 1.3l-.2.5v.3l-.3.8-.2.1h-.3q-.2.1-.2.5.1.5-.1.9l-.3.2-.2.1-.2.2-.2.1-.7.8H6l.8.5.2.2 1.2.9.2.1h.8q.5 0 .8-.2h.2v.2l.3.8q.3.8 1.5.9h.5l1 .1.8.4.6.8zM9 .8l1.3 1.5.5.9v.1l.2.3.3.1-.4.3-.2.2-.3.1q-.7.5-.8 1.4l-.2.4-.3.3-.3.2h-.6q-.9 0-1.2-.7v-.2q-.3-1 .7-1.1v-.3l-.4-.6-.2-.3-.2-.1-.3-.7-.2-.3q-.7-1 .2-1.3H7q.4 0 .7-.3L8 .2l.7-.1.3.5z"/><path fill="#434516" fill-opacity=".6" d="m15.8 28.3.3-.4.3-.8v-.5h.2l.6-.1.4-.1.5-.2.1-.4-.1-.5-.2-.8.1-.2.4.8.1.4q0 1 .4 1.6l.3.5v.3l-.6-.5h-1.1q.6.3.6 1.2l-.2.2-.6.1H17l-1-.4-.1-.1zm4 1.6h.3l.3-.1.9-.1h.2l.9.5.4.2h.2l.4-.8.1-1.3v-1l.4-.9.4-.6-.2-.2v-.8l.2-1.1v-.2l-.1-1.2v-.7l.2-.6v.8q.2.8.7 1.6l.2.4.2.4.1 1.1v.1l-.1 1-.4 1.8-.1.2h-.1q-.7.3-.6 1.3v.2l-.2.4-.3.4q-.4.6-.4 1.4v.3h-.1l-.4.1q-.9-.2-1.8-.8l-.5-.3-.1-.1-.4-.4-.2-.7zM9.2 31.6v1l.2 1v.2l-.6.8q-1.2 1 0 1.6l.5.3.7.3-.8.3-.8-.1-.2-.1-1.2-1-.2-.1-.8-.5h.5l.8-.7.1-.2.2-.1.2-.2.3-.2q.2-.4.1-.9 0-.4.2-.5h.3l.2-.1zm-.3-25 .3-.2.3-.3.2-.4q.1-1 .8-1.4l.3-.1.2-.2.3-.3.3.4q.2.8-.2 1.6L11 6l-.4.3h-.2z"/><path fill="none" stroke="#3e3e0f" stroke-linecap="round" stroke-linejoin="round" stroke-opacity=".6" stroke-width="__RESOLUTION__" d="m23.7 18.7-.2-.2-.4-.3-.4-.2m-1-.8-.2-.1q-.6-.2-1.1-.6l-.1-.1m-1.2-1.8q-.2-.2-.1-.5l.3-1.2m-.1-2.5v-.3l-.5-.3M17 9.2l-.4.7-.6.5m-1.2 0h-.2l-.1.3v.6m0 1-.2.6m-.7 1.3-.3.7-.2.3-.3.1-.5.1m-.4 2 .2.3.3.7h0m-.1 1.3v.4m0 1.1.1 1.1.3.4.2.2m1.1 1.5v.2l-.5.7m.4 1.4.4.5m4.9.7-.7-.5.5.8.6 1.4m4.7-8.6v-.2m.1-.9-.2-.6M18 28.7v-.1q0-1-.6-1.2h1m-2.6 1 1 .5h.1m3.5 2.5.5.3m2.2.7.1-.2q0-.9.4-1.5m.4-1q0-1 .7-1.2l.1-.1m.5-2 .1-1m-.1-1.1-.2-.6m-.9-1.9V21m-9.1 21-1.2-.6m-1.8-.9-.7-.3m-1.7-.9-1-.3m-1.2-.6L7 38m-1.7-.7-.7-.4M2.8 36l-.5-.1m-.8-1.2h.3l.6-.2.3-.5v-.3m.5-1.6.7-.2m1.3 0 .5.1.1-.8v-.3m1.2-2h.5m1.9 1.9-.2.5v.1m0 1.2.2 1m-.6 1q-1.2 1 0 1.6l.5.3m1 .5.1.8m2.2.9 1 .1m1.3 1.2.2.8M9 .8V.6L8.6 0m-1 .6q-.3.2-.7.2l-.3.1m0 1.6.3.6.3.2m1 3.3h.4m2.2-3.5-.5-1m.2 4.2L11 6l.3-.4" vector-effect="non-scaling-stroke"/></g><g id="d"><path fill="#5c670d" fill-opacity=".6" d="M13.4.1h.2l.1-.1h.2l.1.1v.6l.1.1.2.1.2.2h.3v.6l-.1.3-.4.1H14l-.4.1-.4.1-.2.3h-.4l.2-.2v-.2l-.2-.4q-.2-.5 0-1.1.3-.3.8-.4zm4 3.1h.3l1 .7.8.8.3.6.1.5.1.2.3.7.1.3.3.2.1.1v.3l-.2 1.3-.6 1.8-.1.3-.1.2v3l-.2.4-.5.6-.2.6v.8l.1.3.3.6-.1.9-.1.5v1.8l.4.4 1.4 1.1.5.4v.1l.2.4.1.6.4 1.8q.5.5.3 1.1v.3l-.2.2-.2.5q0 .6.3 1.2v.3l-.4.4-.7.3-3.7-2-.6-.4v-.2l-.1-.6v-.1l.1-.2h.2l.4-.4.2-.1V25h-.2l-.1-.1-.3-.6-.1-.3-.1-.7-.3-.3q-.9-.4-.9-1.2v-.2l-2.1-.2v.5h-.1v.3l.1.6-.1.5-.2.2-.1-.2q-.4-.3-.8-.1H12l-1.7.5h-.2l-.3.2-.7-.4L7 22.4q-2-2.1-2.2-1.1l-1-.5h-2v-1L.1 19v-.3l.8-.2.9-.3.3-.2h.2l.5-.4v-.1l.9-1h.1q.4-.4.5-.9v-1.9l.1-1.4V12l.1-.7.1-1.6V9l.1-.5.2-.2H5V8h.1v-.4L5 7.5v-.2L4.7 7l.3-.6.1-.5v-.6l.3-.2h.2l.5.4h.1l.4.1.7.1h.1l.2.6.2.1.4.2.4.4.2.2q.2.1.1.4l.3.3.3.4h.4l1-.4.3-.2.5-.5.3-.1.4-.3.3-.5.6-1.1q.1-.2.4-.3l.7-.2 1.4-1.4q.2-.3.6-.3z"/><path fill="#434516" fill-opacity=".6" d="m21.2 29.8.7-.3.4-.4v-.3q-.4-.6-.3-1.2l.1-.5.3-.2v-.2q.2-.7-.2-1.2H22l-.4-1.7-.1-.7-.2-.4v-.1l-.5-.4-1.4-1-.4-.6V19l.1-.5.1-.9-.3-.6-.1-.2v-.9l.2-.6.5-.6.2-.4V11l.2-.3.6-1.8.2-1.3v-.3l1 .7.1.1-.1.6-.5 1.5v.2l-.3.6v.3l-.2.5-.2.3-.4 1.2V16q-.4.8-.2 1.9v.2l.5 1 .1.3.2 1.4.3.7.3.2.8.9.4 1 .3.4.1.2.2.4v1.2l-.2 1.6-.2.9.4.1.4.3.5.7.4.4.2.2.7 1.1v.5l-.1.3z"/><path fill="none" stroke="#3e3e0f" stroke-linecap="round" stroke-linejoin="round" stroke-opacity=".6" stroke-width="__RESOLUTION__" d="M13.4.1v.2q-.5.1-.8.4h0m0 1.1.2.4v.2l-.2.2h.4l.2-.3.4-.1h.4l.3-.1m.5-1h-.3l-.2-.2-.2-.1V.4m3.5 2.9-.2-.1m-1.4 0-1.5 1.4-.7.2q-.3 0-.4.3l-.6 1.1-.3.5-.4.3m-.8.6-.3.2-1 .4m-.4 0-.3-.4-.3-.2m-.7-1.1-.4-.2-.2-.1-.2-.5v-.1l-.8-.1h-.4l-.1-.1-.5-.3-.2-.1-.3.3v1m-.2 1v.2l.1.1V8h0l-.1.2h0-.1l-.2.2-.1.5v.8m0 1.6-.2.6v.3m-.2 1.4v.5m0 1.4q0 .5-.4.9h-.1m-.9 1v.1l-.5.4h-.2m-1.2.5-.8.2M9.8 24l.3-.1.2-.1 1.7-.4.3-.1q.5-.2.9.1l.2.2.1-.2.1-.5-.1-.6V22h0v-.4h.1v-.2l2.2.3v.2q0 .8.8 1.2l.3.3.1.7.1.3.3.6h0l.3.1v.7l-.2.1-.4.4h-.2v.2l-.1.1v.5l.1.3.6.5m3.1-20.7-.2-.2-.1-.3L20 6v-.2m-.6-1.1-.7-.8m3.1 4.8.1-.6V8m-.9 3 .3-.6v-.2m-1.4 7.7q-.1-1.1.3-2v-2.6l.4-1.2m2.6 16.3-.4-.1.1-.9.3-1.6m-.2-1.6-.1-.2-.3-.4-.4-1m-.8-.9-.2-.2q-.3-.3-.4-.7l-.2-1.4-.1-.3m4.8 12.8v-.3m0-.5-.6-1.1-.2-.2-.4-.4-.5-.7M9.1 23.5q.2.4.7.4h0" vector-effect="non-scaling-stroke"/><path fill="none" stroke="#565616" stroke-linecap="round" stroke-linejoin="round" stroke-opacity=".6" stroke-width="__RESOLUTION__" d="M10 8.3h-.4" vector-effect="non-scaling-stroke"/></g><g id="e"><path fill="#3b3b0f" fill-opacity=".7" d="M5.1.1h.8l14.7 7.1.1 1.6.1.1.1.5.1.6-.6 1.3-.3.6-.7 1-.5.8-1.4 1.6-.7.5-.4.5v.3l-.1 1-.2.4-.3.1-.8.3-1.6.9-.5.3-.6.4-.3.3-.2.1v-.1l-.1-.3-1.6-.2h-.2l-.3-.2h-.2l-.3-.2-.2-.2h-.2q-.2 0-.3-.2l-.2-.1-1.2-.1.4-1 .2-.4.4-.6.4-.7.1-.2q.4-.7.3-1.5l-.1-1-.2-.4v-.3l-.1-1.1v-.9q-.1-.9-.9-1.2l-.2-.2-.6-.7-.2-.3v-1q0-.8-.3-1.3L6 5.5l-.7-1.2-.3-1V.6z"/><path fill="#5c670d" fill-opacity=".7" d="m11.8 20.5-2 .8-1 .1q-.7 0-1 .6l-.1.1-.6 1.6-.1.8V26l.1.3.1.2v.8q-.3 1 .1 1.8l.3.6.9 1.1.8.7.1.1.1.6.1.4.1 1.5.3.6.3.3.1.2.2.5.2 1.3v.4l.3.4.3.4.1.3v1.4l-.1.3q-.2 1 .5 1.6l.2.2 1.2.8.4.2v.1l-.1.1q-.5.3-.5 1l.2.4.1.5h.2l.3.2.5.4.5.4h.2q.4 0 .4.5l-.2-1.2.1-.5.3-.4.1-.1.2-.2V44l.4-.9.9-.6.7-1 .1-.4V41q.2-1.4 0-2.6l-.2-1.2-.1-.2-.3-.9-.1-.3-.3-.5-.2-.2v-.5q0-.6-.8-1l-.4-.4q-.3-.4 0-1.3t.2-2q-.1-.6.2-.6l.5-.1q.3.1.5 1.4v.5l.1.5.2 1.1q.3.7 1 1.3.5.6 1.4 1l.5.2 1.8 1 .6.4q.4.6.1 2v.1l-.2.8v.6l.1 1.8.2 2.1v.5l-.4 1.3-.1.3-.4.7v.3q0 1.4-.4 2.7l-.4.8-.2.1-1.7 1-.8.6v.2l-.1 1-.1.1-.3.5-.6.4-.4.2-1 .3h-.5q.8 0 1.3.3l.2.1.6-.2.8-.1h.1q.5-.1.5-.8h.3l1.4.1.2.1.1.1q.2 1 .8 2l.3.2.4.3.1.1v1l-.4.8v.3l.1 1.2v.8l-.1.8-.2.7-.1 1-.1 1.7h-.2l-.1.1-.1.9.1.8.2.5.2.2q.3.3.3 1l.2.7.3.3v.8l-1.1-.2q-1.2-.2-1.5 0l-.4.3v.6q.2.4-.3.5h-.5l-.2.2-.6-.3q.5-.9-2-1l-.9-.5q-1.8-.2-2-1l-.7-.4q-5.2-1.1-5.2-2.7l-.3-.1-1.8-1q-1.9.3-1-.5-.1-1.2-2-1 .6-.8-1.8-1v-.1l-.2-.7-.1-1.2q0-.9.4-1.5l.3-.5.5-.4.1-.1.8-.9.1-.1.1-.2q2.9-1.5 2.8.5l.1-.5.2-1 .1-.5v-.4q.3-.6.4-1.4v-5.5l-.1-.6-.2-1v-.1q0-.9.2-1.5l.5-.6 1.4-1.5v-.1q.6-.7-.2-1.7l-.1-.5-.1-.7-.4-.5-.8-.7-.2-.3-.3-.4-1-2-.5-1.6v-.6l.1-1.1v-4.9l-.1-1v-.5q0-.9.5-1.5l.4-.5.4-.5h.1l.3-.2q.5-.1.5-.5l.2-1 .1-.3.2-.3v-.1l.3-.6v-.4l-.2-.7v-1l1.3.2v.1l.4.1.2.1.2.2.3.1.2.1.3.2h.2l1.6.2v.4M3.4 57.3l-.9-.2.4.2z"/><path fill="#434516" fill-opacity=".7" d="M9.5 31.6q1 .8 1.5 2.1l.1.2v.2l.5 1.3.2.2.2.6.3.4.1.8.1.4.1.7v1.1l.5 1.4.7.9.8.8.3.2.8.8.2-.3.5-.2-.4.8-.2.3-.1.1-.3.4v.5l.1 1.2q0-.5-.4-.5h-.2l-.5-.4-.6-.4-.2-.2h-.2l-.2-.5v-.4q0-.7.4-1l.1-.1-.4-.3-1.2-.8-.2-.2q-.7-.6-.5-1.6v-.4l.1-1.4v-.1l-.4-.5-.2-.5-.1-.4-.2-1.2-.2-.5-.1-.2-.3-.3-.3-.6-.1-1.5v-.4zM22 53.2l.3.4-.4.3-.3.5q-.2.4-.5.3l-.1-1.4h.4zm-19.5 4V57L4 56l.8-.4h.3l.4-.4.1-.1v.9l-.2 1-.2.5q.1-2-2.8-.5l.4.2h.5z"/><path fill="#505314" fill-opacity=".7" d="M23 44.5v2.1q.1.6.4.9l.3.2.3.3.3.3q0 .7-.7 1.1l-.1.1-.3.5-.2.9-.2.7v.7l-.2.3-.7.5h-.6l-.4.1.1 1.4-.1-.1-.1-.1-1.6-.1H19q0 .7-.5.8h-.1l-.8.1-.6.2h-.2q-.5-.4-1.3-.4h.5l1-.3.4-.2.6-.4.3-.5h.1l.1-1.1v-.2l.8-.6 1.7-1 .2-.2.4-.7q.4-1.3.4-2.7v-.3l.4-.7v-.4zm-.8 9 .1.5v.3l.3.3.3.4 1 1.8v.5l.2 1.8-.3.7-.4.9q-.2.7 0 1.6l.1.3.1.6.3 1.6V67l.2 1.1.2.4.2.7q.3 1 .8 1.8l.6.7-1-.2-1-.4-1.1-.2-.1-.5V70l-.2-.3h-.1l-.2-.7q0-.7-.3-1l-.2-.2-.2-.5-.1-.8.1-.9h.1l.1-.1.2-1.7.1-1 .2-.7.1-.9v-.7l-.1-1.2V59l.4-.7V57l-.5-.3-.3-.2q-.6-1-.8-2 .3 0 .4-.3h.1l.3-.5zm-2.1.2.2-.2q.2-.5.6-.4-.4 0-.6.4z"/><path fill="none" stroke="#27270a" stroke-linecap="round" stroke-linejoin="round" stroke-opacity=".7" stroke-width="__RESOLUTION__" d="m20.8 9 .1.4.1.6-.6 1.3-.3.6m-.7 1-.5.8m-1.4 1.6-.7.5-.4.5v.3m-.3 1.4-.3.1-.8.3m-1.6.9-.5.3-.6.4-.3.3m-5-1.6.4-1M8.5 16q.4-.8.3-1.6m-.1-1-.2-.4v-.3m-.1-1.1v-.9m-1-1.4-.6-.7-.2-.3m0-1q0-.8-.3-1.3m-1-1.7-.3-1m0-1.9V.6l.1-.5" vector-effect="non-scaling-stroke"/><path fill="none" stroke="#3e3e0f" stroke-linecap="round" stroke-linejoin="round" stroke-opacity=".7" stroke-width="__RESOLUTION__" d="m9.9 21.3-1 .1q-.8 0-1.1.6m-.7 1.8-.1.7m.1 2.8q-.2.8.2 1.6m1.2 1.9.8.6m2.7 4.8.3.4.1.8m.2 2.2.5 1.4.7.9.8.8m2.7-.2.7-1 .1-.4V41m0-2.6-.2-1.2m-.5-1.4-.3-.5m-1.4-2q-.3-.5 0-1.4.3-1 .2-2-.1-.6.2-.6m1.3 3.4q.3.7 1 1.3m1.9 1.2 1.8 1m.7 2.5-.2.8m.1 2.4L23 44m.1 2.6q.1.6.4.9l.3.2m-.2 1.8-.3.5-.2.9-.2.7v.7m-.4 2 .2.3.3.4m1 1.8v.5l.2 1.8-.3.7-.4.9m.2 2.5.3 1.6m0 3.2.2.4.2.7q.3 1 .8 1.8m-.4.4-1-.2m-2.3-.5q-1.2-.2-1.5 0l-.4.3m-.3 1.1h-.5l-.2.2-.6-.3m-2-1-.9-.5m-2-1-.7-.4m-5.2-2.7-.3-.1m-1.8-1q-1.9.3-1-.5m-2-1q.6-.8-1.8-1v-.1l-.2-.7-.1-1.2m.4-1.5.3-.5M4 56l.8-.4M6 53.8V52m0-.5v-1.2h0m0-2.1-.1-.6-.2-1v-.1M6 45l.5-.6m1.4-1.5v-.1q.6-.7-.2-1.7l-.1-.5-.1-.7m-1.2-1.2-.2-.3-.3-.4m-1-2-.5-1.6v-.6m.1-1.1v-.5m0-1.8v-2.6m-.1-1.1v-.4m.5-1.5.4-.5.4-.5h.1m.3-.2q.5-.1.5-.5m.2-1 .1-.3.2-.3m.1-1.9v-.9M21 53.3q-.4 0-.6.4l-.2.2m1.2-.6H21" vector-effect="non-scaling-stroke"/></g><g id="v"><path fill="#c3d4c0" d="M.9 5.3q3.3-7.8 8.9-3.9l13.9 7q-4-1.5-7.6 4.5Q7.9 9.9.9 5.4"/><path fill="#90b49a" d="M.9 5.3q7 4.5 15.2 7.7 3.6-6 7.6-4.6l1.8.9-1.2 2q-2.8-2.4-7.1 3.4L16 16.6 1.3 8.8.1 6.7zM16 14.8"/><path fill="none" stroke="#412f23" stroke-linecap="round" stroke-linejoin="round" stroke-opacity=".6" stroke-width="__RESOLUTION__" d="m23.7 8.4-14-7Q4.3-2.5 1 5.3L.1 6.7l1.3 2.1L16 16.5l1.1-1.7m6.6-6.4 1.8.9m0 0-1.2 2q-2.8-2.4-7.1 3.4" vector-effect="non-scaling-stroke"/></g><g id="u"><path fill="#bcc3aa" d="M.9 5.3q3.3-7.8 8.9-3.9l13.9 7q-4-1.5-7.6 4.5Q7.9 9.9.9 5.4"/><path fill="#809e7e" d="M.9 5.3q7 4.5 15.2 7.7 3.6-6 7.6-4.6l1.8.9-1.2 2q-2.8-2.4-7.1 3.4L16 16.6 1.3 8.8.1 6.7zM16 14.8"/><path fill="none" stroke="#240300" stroke-linecap="round" stroke-linejoin="round" stroke-opacity=".6" stroke-width="__RESOLUTION__" d="m23.7 8.4-14-7Q4.3-2.5 1 5.3L.1 6.7l1.3 2.1L16 16.5l1.1-1.7m6.6-6.4 1.8.9m0 0-1.2 2q-2.8-2.4-7.1 3.4" vector-effect="non-scaling-stroke"/></g><g id="s"><path fill="#6b8d7d" d="M9.3.4 17.2 4 16 5.5l-6.6 7.8Q3.6 12 .1 8.9z"/><path fill="#3b5546" d="m16 5.5-1 3.4-4.7 6.6H8.9l-8.4-4L0 8.9q3.5 3.3 9.3 4.4z"/><path fill="none" stroke="#090105" stroke-linecap="round" stroke-linejoin="round" stroke-opacity=".6" stroke-width="__RESOLUTION__" d="m16 5.5-1 3.4-4.7 6.6h0m0 0H8.9l-8.4-4L0 8.9 9.3.4l.2-.3" vector-effect="non-scaling-stroke"/></g><g id="r"><path fill="#6a8c7c" d="M9.3.4 17.2 4 16 5.5l-6.6 7.8Q3.6 12 .1 8.9z"/><path fill="#385344" d="m16 5.5-1 3.4-4.7 6.6H8.9l-8.4-4L0 8.9q3.5 3.3 9.3 4.4z"/><path fill="none" stroke="#060003" stroke-linecap="round" stroke-linejoin="round" stroke-opacity=".6" stroke-width="__RESOLUTION__" d="m16 5.5-1 3.4-4.7 6.6h0m0 0H8.9l-8.4-4L0 8.9 9.3.4l.2-.3" vector-effect="non-scaling-stroke"/></g><g id="q"><path fill="#5e8574" d="M9.3.4 17.2 4 16 5.5l-6.6 7.8Q3.6 12 .1 8.9z"/><path fill="#284737" d="m16 5.5-1 3.4-4.7 6.6H8.9l-8.4-4L0 8.9q3.5 3.3 9.3 4.4z"/><path fill="none" stroke="#000" stroke-linecap="round" stroke-linejoin="round" stroke-opacity=".6" stroke-width="__RESOLUTION__" d="m16 5.5-1 3.4-4.7 6.6h0m0 0H8.9l-8.4-4L0 8.9 9.3.4l.2-.3" vector-effect="non-scaling-stroke"/></g><g id="o"><path fill="#4e6e5e" d="M9.3.4 17.2 4 16 5.5l-6.6 7.8Q3.6 12 .1 8.9z"/><path fill="#1f3829" d="m16 5.5-1 3.4-4.7 6.6H8.9l-8.4-4L0 8.9q3.5 3.3 9.3 4.4z"/><path fill="none" stroke="#000" stroke-linecap="round" stroke-linejoin="round" stroke-opacity=".6" stroke-width="__RESOLUTION__" d="m16 5.5-1 3.4-4.7 6.6h0m0 0H8.9l-8.4-4L0 8.9 9.3.4l.2-.3" vector-effect="non-scaling-stroke"/></g><g id="n"><path fill="#547767" d="M9.3.4 17.2 4 16 5.5l-6.6 7.8Q3.6 12 .1 8.9z"/><path fill="#223e2f" d="m16 5.5-1 3.4-4.7 6.6H8.9l-8.4-4L0 8.9q3.5 3.3 9.3 4.4z"/><path fill="none" stroke="#000" stroke-linecap="round" stroke-linejoin="round" stroke-opacity=".6" stroke-width="__RESOLUTION__" d="m16 5.5-1 3.4-4.7 6.6h0m0 0H8.9l-8.4-4L0 8.9 9.3.4l.2-.3" vector-effect="non-scaling-stroke"/></g><g id="m"><path fill="#4b6b5b" d="M9.3.4 17.2 4 16 5.5l-6.6 7.8Q3.6 12 .1 8.9z"/><path fill="#1d3627" d="m16 5.5-1 3.4-4.7 6.6H8.9l-8.4-4L0 8.9q3.5 3.3 9.3 4.4z"/><path fill="none" stroke="#000" stroke-linecap="round" stroke-linejoin="round" stroke-opacity=".6" stroke-width="__RESOLUTION__" d="m16 5.5-1 3.4-4.7 6.6h0m0 0H8.9l-8.4-4L0 8.9 9.3.4l.2-.3" vector-effect="non-scaling-stroke"/></g><g id="k"><path fill="#241f16" d="M23.6 55.2V27.3h13.7q11 9.2 16.7 17.8l.1.4v9.6z"/><path fill="#473e2a" d="M23.6 55.2h30.6v15.1L23.5 57.6z"/><path fill="#5e5238" d="M54.2 70.3v11l-5.4 3.3-1.7-.9 4-5-28.7-9.9 1.2-11.2z"/><path fill="#8c7d5a" d="m47 83.7-23.4-12-1.2-2.9 28.8 10z"/><path fill="#2f1f0e" d="m63.3 20.9.6.9.1 15.8h-7v49l-1.7.8-.5-1.2-.1-27.6v-11l-.1-18.3v-.9l2.1-3.7 1.5-1.4.6-.3z"/><path fill="#746945" d="M63.3 20.9 58.8 23l-9.5.1-3.6-1.2v-.3l7.9-4h4z"/><path fill="#938268" d="m58.8 23-.5.3-1.5 1.4-2.2 3.8-.2.8-3.7-5.4-1.5-.8z"/><path fill="#65491b" d="M54.6 28.5v.8h-.2zm0 30.2.1 27.6.6 1.1-1 .5-.5.3-.5-.3-2.9-1.3-1.6-.8-.5-.2-1-.5-1.1-.6h-.3l-.1-31.3z"/><path fill="#583b18" d="M54.6 29.3v18.2L45.8 43V22l3.5 1.2 1.4.8 3.8 5.4z"/><path fill="#492f16" d="M54.7 47.6v11l-8.9-5.5V43z"/><path fill="none" stroke="#0d0807" stroke-linecap="round" stroke-linejoin="round" stroke-opacity=".6" stroke-width="__RESOLUTION__" d="m55.3 87.4-1 .4m-1 0-2.9-1.3m-1.6-.8-.5-.2m-1-.5-1.1-.6h-.3" vector-effect="non-scaling-stroke"/><path fill="none" stroke="#261a0f" stroke-linecap="round" stroke-linejoin="round" stroke-width="__RESOLUTION__" d="m45.9 84.5-.1-31.3V42.8" vector-effect="non-scaling-stroke"/><path fill="#3d2911" d="m31.2 3.3.7 1 .4 54.6-9.6-7-.1-8.6V10.9l2.1-3.8 1.5-1.4.6-.2z"/><path fill="#746945" d="m31.2 3.3-4.4 2.2h-9.6l-3.5-1.1-.1-.4 8-4h3.9z"/><path fill="#938268" d="M26.8 5.5q-.4 0-.6.2l-1.5 1.4-2.1 3.8-.2.8-3.8-5.3-1.4-.9z"/><path fill="#65491b" d="M22.6 10.9v.8h-.2zm0 32.4v8.6l.1 16.7.6 1.2-.7.3-.7.4h-.1l-.9-.4-1.7-.8-1.6-.8-1.4-.7-1-.5-1.1-.5-.2.1-.2-29.4z"/><path fill="#583b18" d="M22.6 11.7v17.9l-8.9-5.1V4.4l3.5 1.1 1.4.8 3.8 5.4z"/><path fill="#492f16" d="M22.6 29.6v13.7l-8.9-5.7V24.4z"/><path fill="#543918" d="m22.7 51.9 9.6 7v6.6l-1.9 1-3 1.4-2 .8-1 .6-.4.2-.7.3-.6-1.2z"/><path fill="none" stroke="#0d0807" stroke-linecap="round" stroke-linejoin="round" stroke-opacity=".6" stroke-width="__RESOLUTION__" d="m32.3 65.6-1.9.9m-3 1.4-2 .8m-1 .6-.4.2-1.4.6-.7.4m-1-.4-1.7-.8m-1.6-.8-1.4-.7m-1-.5-1.1-.5-.2.1" vector-effect="non-scaling-stroke"/><path fill="none" stroke="#261a0f" stroke-linecap="round" stroke-linejoin="round" stroke-width="__RESOLUTION__" d="m13.9 66.9-.2-29.4v-13" vector-effect="non-scaling-stroke"/><path fill="#6d4d2c" d="m60.8 46-2.2 1.1Q29.6 39.7.8 17.8l-.5.1-.2-6.1 51.3 25.5 8 3.8.3-.6z"/><path fill="#503a21" d="m60.8 46-1.1-5.6 6.5-3.4 2.7-1.4 3-1.6v6.7q-8.5 4.6-11.1 5.3"/><path fill="#938268" d="m59.7 40.4-.3.6-8-3.8 14.8-.2z"/><path fill="#7c714d" d="M51.4 37.2.1 11.6v-.5l8.7-4.7 1 3.9 14.5 7 5.6.7 5.8 3-.2 1 13.2 7 10.1 2.8-1.4 1.6 11.5 2.2-2.7 1.4z"/><path fill="#4d4128" d="m8.8 6.4 8.6-4.6h6.1l48.3 24.7V34L69 35.6l-11.5-2.2 1.4-1.6-10.1-2.9-13.2-6.8.1-1.1-5.7-3-5.6-.6-14.5-7.1z"/><path fill="none" stroke="#261a0f" stroke-linecap="round" stroke-linejoin="round" stroke-width="__RESOLUTION__" d="m.1 11.7.2 6.1.5-.1q28.9 21.9 57.8 29.5l2.2-1.2q2.6-.7 11-5.3V26.5L23.5 1.8h-6.1L8.8 6.4.1 11z" vector-effect="non-scaling-stroke"/><path fill="none" stroke="#938268" stroke-linecap="round" stroke-linejoin="round" stroke-width="__RESOLUTION__" d="M51.4 37.2.1 11.6" vector-effect="non-scaling-stroke"/></g><g id="j"><path fill="#362c1d" d="m7.9 4.3 1.7.8L10 9 2.3 5.8.5.5l6.2 3.2v-.5l1.4 1z"/><path fill="#30271a" d="m9.6 5.1 3.8 2h.2v4l-2.2 1.3v3.9h-.1l-.9.5-1.3-.7-1.4-4.7 2.9 1.5v-.1L10.2 9zm1 7.7.8-.4z"/><path fill="#4c3e29" d="M7.7 11.5 3.5 9.3 2.3 5.9 10.1 9l.6 3.8h-.1z"/><path fill="none" stroke="#3e2d18" stroke-linecap="round" stroke-linejoin="round" stroke-width="__RESOLUTION__" d="m7.9 4.3 1.7.8 3.8 2M.4.5l6.2 3.2" vector-effect="non-scaling-stroke"/><path fill="none" stroke="#2a2317" stroke-linecap="round" stroke-linejoin="round" stroke-width="1" d="m13.4 7 .2.2V11l-2.2 1.3v3.9h-.1l-.9.5-1.3-.7M2.3 5.8.5.5m10 12.4-2.8-1.5"/><path fill="none" stroke="#433824" stroke-linecap="round" stroke-linejoin="round" stroke-width="1" d="M7.7 11.5 3.5 9.3 2.3 5.9"/><path fill="none" stroke="#18140f" stroke-linecap="round" stroke-linejoin="round" stroke-width="__RESOLUTION__" d="m11.4 12.4-.7.4" vector-effect="non-scaling-stroke"/></g><g id="h"><path fill="#543c25" fill-opacity=".4" d="m18.5 20.5-1.6-7.1-12.3 1.3-3.8-3.5 1.1-6 7.5-1.6 3.2.1L23 0l1.3 1.1V12l-1.1 7.6zm-14.9-.2-1.9-1.6v-3L6 17z"/><path fill="#7d602b" fill-opacity=".4" d="m18.5 20.5 4.7-.9-.6 4-3.9-2.1zm-2.4.3v2l7.8 4v8l-13.5-1.6-7.5-7.7L4.6 23zM11 36.7l-5 5.9 3.1 4.6-2 2.5L2 46.8v-15l2.4-1.2z"/><path fill="#604427" fill-opacity=".4" d="m4.6 23 4.5-7.3 6.9.1.1 5z"/><path fill="#715729" fill-opacity=".4" d="m24 42-3 4.9-10.5.1q.1-3-.5-6.3l6.6-5.7 7.4 2zm-7.5 16.6-7-.1v-7.6l-.6-.4L22.7 49zM1.3 51.2l6 1.7v4.7l.4.1-5.3.4z"/><path fill="#77603d" fill-opacity=".4" d="m20 60.2 2.3-.5-.9 10.1-2 .3zm3.4-1.4 3.1-.7.4 11-4.2.4zm-7.6 1.5-.5 9.8h-1l-5.1 1.5.6-10zM8.2 62l.9-.4-1 10.1-.7.1zm-7.5.7-.6.3.6-.5z"/><path fill="#9a7b40" fill-opacity=".4" d="m17 60 2.3-.5-.8 10.2-2.1.2z"/><path fill="#634c27" fill-opacity=".4" d="m22.8 51.6 1.9 1.6v3L20.4 55z"/><path fill="#90723d" fill-opacity=".4" d="M7.4 62 6.2 72.5.4 74.1.5 73q-.4-5 .2-10.3v-.2q4-3 6.7-.5"/><path fill="none" stroke="#513924" stroke-linecap="round" stroke-linejoin="round" stroke-opacity=".4" stroke-width="__RESOLUTION__" d="m20 60.2 2.3-.5m-3-.2L17 60m9.5-2-3.1.7m-7.6 1.5-6 1.3m-1.6.5.9-.4m-8.4 1-.6.4.6-.5q4-3 6.7-.5" vector-effect="non-scaling-stroke"/><path fill="none" stroke="#543c25" stroke-linecap="round" stroke-linejoin="round" stroke-opacity=".4" stroke-width="__RESOLUTION__" d="m22.8 51.6 1.9 1.6v3L20.4 55zm-21.5-.3 6 1.7v4.7l.4.1-5.3.4z" vector-effect="non-scaling-stroke"/></g><g id="g"><path fill="#614e23" d="m24.9 24.8-.7-1-.2-.1zm-.9 4L.4 15.7v-4.2h.1L.3 0l9.6 4.6.3 6.5.8-6 16.5 8v16.3h-.6l-2.1-.3z"/><path fill="#8c7d5a" d="m24.9 24.8-1-1.1.3.1zm-10.6 7.8 3.5.6q5.3.7 6.2-4.5l.8.4 2 .3v9.3l-2.2-1.2-7.5-3.8z"/><path fill="#908151" d="M24 28.7q-.9 5.2-6.2 4.5l-3.6-.6-.2-.1 10 5.1.6-.1 2.3 1.1v-9.2h.6v15.4l-.1.5v6.9l-.7.2.4-3.9L.6 44.7Q-.4 30 .4 15.8zM3.8 26.9l.7.8-.7-.3 6 3h.8zm7.4 4.1 1.4.7-1.3-.9z"/><path fill="#89773b" d="m.6 44.6 26.5 4-.4 3.8.8-.2v14.1L7.7 55.5l-.5-.2L18.5 61 .5 50q-.4-2.9 0-5.3"/><path fill="#55491d" d="M27.5 45.3h-.1v-.5z"/><path fill="#85734a" d="m24.7 37.5-.6.1L14 32.5l.3.1 2.8 1.1zM10 4.7l1 .4-.7 6zM3.8 27l6.8 3.4h-.8l-6-2.9.7.3zm7.4 4.1.1-.2 1.3 1z"/><path fill="#423516" d="M27.5 66.4v12.2l-.8.3-3.6-1.8-3.2-1.6-2.6-1.3-5.6-2.9-2.3-1.2-1.2-.6-5.3-2.7-1.9-1-.8-.4V52l.4-.1 6.6 3.4.5.2z"/><path fill="#8a7b57" d="M.6 51.8v-1.9l17.9 11-11.3-5.7z"/><path fill="none" stroke="#362914" stroke-linecap="round" stroke-linejoin="round" stroke-width="__RESOLUTION__" d="m27.5 78.6-.8.3" vector-effect="non-scaling-stroke"/><path fill="none" stroke="#362814" stroke-linecap="round" stroke-linejoin="round" stroke-opacity=".7" stroke-width="__RESOLUTION__" d="m26.7 79-3.6-2m-3.2-1.6-2.6-1.3m-5.6-2.9L9.4 70m-1.2-.6-5.3-2.7m-1.9-1-.8-.4" vector-effect="non-scaling-stroke"/><path fill="none" stroke="#362814" stroke-linecap="round" stroke-linejoin="round" stroke-opacity=".4" stroke-width="__RESOLUTION__" d="m23 77.1-3-1.6m-2.6-1.3-5.6-2.9m-2.3-1.2-1.2-.6M3 66.8l-1.9-1" vector-effect="non-scaling-stroke"/><path fill="none" stroke="#362d18" stroke-linecap="round" stroke-linejoin="round" stroke-width="__RESOLUTION__" d="m27.5 66.4-19.8-11-.5-.2" vector-effect="non-scaling-stroke"/><path fill="none" stroke="#2f261f" stroke-linecap="round" stroke-linejoin="round" stroke-width="__RESOLUTION__" d="M7.2 55.2.6 51.8" vector-effect="non-scaling-stroke"/></g><clipPath id="f"><path d="M1 1h113v141H1z"/></clipPath><clipPath id="w"><path d="M115 1h113v141H115z"/></clipPath><clipPath id="y"><path d="M229 1h113v141H229z"/></clipPath><clipPath id="A"><path d="M343 1h113v141H343z"/></clipPath><clipPath id="C"><path d="M457 1h113v141H457z"/></clipPath><clipPath id="E"><path d="M571 1h113v141H571z"/></clipPath><use xlink:href="#a" id="F" width="25.4" height="47.3" transform="matrix(-.6 -.69 -.03 .72 24.3 56.1)"/><use xlink:href="#b" id="D" width="21.1" height="54" transform="matrix(-.81 -.75 0 1 24.45 15.85)"/><use xlink:href="#c" id="B" width="25.7" height="42" transform="translate(1.35 35.15)"/><use xlink:href="#d" id="z" width="25.4" height="31.9" transform="translate(2.15 51.05)"/><use xlink:href="#a" id="x" width="25.4" height="47.3" transform="translate(1.55 35.5)"/><use xlink:href="#e" id="i" width="25.9" height="72.3" transform="translate(0 6.1)"/><path id="t" fill="#0d422d" fill-opacity=".4" d="M8.7-77.3 1-80.9 0-80l-7.5-4-.8 1.5-7-3.5 1.9-3.3 23.8 8.2z" transform="translate(15.25 89.3)"/><path id="p" fill="#001808" fill-opacity=".4" d="M8.7-77.3 1-80.9 0-80l-7.5-4-.8 1.5-7-3.5 1.9-3.3 23.8 8.2z" transform="translate(15.25 89.3)"/><path id="l" fill="#1e3220" d="M15.7-78.1 6.4-63.8h-19l-9.5-12.9h-.1l8.3-8.7q4.1-6.7 12-2.4z" transform="translate(22.2 89.5)"/></defs><g clip-path="url(#f)"><g transform="translate(79.9 132.25)"><use xlink:href="#g" width="27.7" height="79" transform="matrix(-1 -.0444 0 1 -6.2 -77.6)"/><use xlink:href="#h" width="26.9" height="74" transform="matrix(-1.0252 .6483 0 .9327 -6.6 -82.75)"/><use xlink:href="#i" width="27.6" height="90.3" transform="matrix(-1 -.0444 0 1 -5.65 -81.3)"/><use xlink:href="#j" width="14.1" height="17.3" transform="matrix(-1 -.0444 0 1 -9 -72.1)"/><use xlink:href="#j" width="14.1" height="17.3" transform="matrix(-1 -.0444 0 1 -33.25 -58.35)"/><use xlink:href="#k" width="71.8" height="88" transform="matrix(-1 0 0 1 22.25 -83.45)"/><use xlink:href="#l" width="37.9" height="25.8" transform="matrix(-1 0 0 1 23.25 -117.6)"/><use xlink:href="#m" width="17.2" height="15.7" transform="matrix(-1.114 -.0859 .1136 1.2368 32 -103.4)"/><use xlink:href="#n" width="17.2" height="15.7" transform="matrix(-1.114 -.0859 .1136 1.2368 21.85 -101.65)"/><use xlink:href="#o" width="17.2" height="15.7" transform="matrix(-1.114 -.0859 .1136 1.2368 14.95 -95.15)"/><use xlink:href="#p" width="25.7" height="12" transform="matrix(-1 0 0 1 16.3 -117.4)"/><use xlink:href="#q" width="17.2" height="15.7" transform="matrix(-1.1603 -.0894 .1184 1.2883 25.5 -114.75)"/><use xlink:href="#r" width="17.2" height="15.7" transform="matrix(-1.1603 -.0894 .1184 1.2883 8.35 -103.9)"/><use xlink:href="#s" width="17.2" height="15.7" transform="matrix(-1.0778 -.0831 .11 1.1966 10.5 -118.85)"/><use xlink:href="#o" width="17.2" height="15.7" transform="matrix(-1.0778 -.0831 .11 1.1966 3.75 -112.6)"/><use xlink:href="#q" width="17.2" height="15.7" transform="matrix(1.0309 -.5318 .0143 -.3132 -26.2 -109.2)"/><use xlink:href="#s" width="17.2" height="15.7" transform="matrix(.9575 -.4939 .0162 -.3551 -17.3 -111.9)"/><use xlink:href="#o" width="17.2" height="15.7" transform="matrix(.9575 -.4939 .0215 -.4696 -7.85 -115.4)"/><use xlink:href="#t" width="25.7" height="12" transform="matrix(-1 0 0 1 16.3 -117.4)"/><use xlink:href="#u" width="25.6" height="16.6" transform="matrix(-.9816 -.1298 -.1428 .9796 17.8 -125.25)"/><use xlink:href="#v" width="25.6" height="16.6" transform="matrix(-.9818 .1212 .1081 .9832 -.7 -121.05)"/><use xlink:href="#l" width="37.9" height="25.8" transform="matrix(-1 0 0 1 -3.25 -104.5)"/><use xlink:href="#m" width="17.2" height="15.7" transform="matrix(-1.114 -.0859 .1136 1.2368 5.5 -90.3)"/><use xlink:href="#n" width="17.2" height="15.7" transform="matrix(-1.114 -.0859 .1136 1.2368 -4.65 -88.55)"/><use xlink:href="#o" width="17.2" height="15.7" transform="matrix(-1.114 -.0859 .1136 1.2368 -11.55 -82.05)"/><use xlink:href="#p" width="25.7" height="12" transform="matrix(-1 0 0 1 -10.2 -104.3)"/><use xlink:href="#q" width="17.2" height="15.7" transform="matrix(-1.1603 -.0894 .1184 1.2883 -1 -101.65)"/><use xlink:href="#r" width="17.2" height="15.7" transform="matrix(-1.1603 -.0894 .1184 1.2883 -18.15 -90.8)"/><use xlink:href="#s" width="17.2" height="15.7" transform="matrix(-1.0778 -.0831 .11 1.1966 -16 -105.75)"/><use xlink:href="#o" width="17.2" height="15.7" transform="matrix(-1.0778 -.0831 .11 1.1966 -22.75 -99.5)"/><use xlink:href="#q" width="17.2" height="15.7" transform="matrix(1.0309 -.5318 .0143 -.3132 -52.7 -96.1)"/><use xlink:href="#s" width="17.2" height="15.7" transform="matrix(.9575 -.4939 .0162 -.3551 -43.8 -98.8)"/><use xlink:href="#o" width="17.2" height="15.7" transform="matrix(.9575 -.4939 .0215 -.4696 -34.35 -102.3)"/><use xlink:href="#t" width="25.7" height="12" transform="matrix(-1 0 0 1 -10.2 -104.3)"/><use xlink:href="#u" width="25.6" height="16.6" transform="matrix(-.9816 -.1298 -.1428 .9796 -8.7 -112.15)"/><use xlink:href="#v" width="25.6" height="16.6" transform="matrix(-.9818 .1212 .1081 .9832 -27.2 -107.95)"/><use xlink:href="#l" width="37.9" height="25.8" transform="matrix(-1 0 0 1 -29.45 -90.6)"/><use xlink:href="#m" width="17.2" height="15.7" transform="matrix(-1.114 -.0859 .1136 1.2368 -20.7 -76.4)"/><use xlink:href="#n" width="17.2" height="15.7" transform="matrix(-1.114 -.0859 .1136 1.2368 -30.85 -74.65)"/><use xlink:href="#o" width="17.2" height="15.7" transform="matrix(-1.114 -.0859 .1136 1.2368 -37.75 -68.15)"/><use xlink:href="#p" width="25.7" height="12" transform="matrix(-1 0 0 1 -36.4 -90.4)"/><use xlink:href="#q" width="17.2" height="15.7" transform="matrix(-1.1603 -.0894 .1184 1.2883 -27.2 -87.75)"/><use xlink:href="#r" width="17.2" height="15.7" transform="matrix(-1.1603 -.0894 .1184 1.2883 -44.35 -76.9)"/><use xlink:href="#s" width="17.2" height="15.7" transform="matrix(-1.0778 -.0831 .11 1.1966 -42.2 -91.85)"/><use xlink:href="#o" width="17.2" height="15.7" transform="matrix(-1.0778 -.0831 .11 1.1966 -48.95 -85.6)"/><use xlink:href="#q" width="17.2" height="15.7" transform="matrix(1.0309 -.5318 .0143 -.3132 -78.9 -82.2)"/><use xlink:href="#s" width="17.2" height="15.7" transform="matrix(.9575 -.4939 .0162 -.3551 -70 -84.9)"/><use xlink:href="#o" width="17.2" height="15.7" transform="matrix(.9575 -.4939 .0215 -.4696 -60.55 -88.4)"/><use xlink:href="#t" width="25.7" height="12" transform="matrix(-1 0 0 1 -36.4 -90.4)"/><use xlink:href="#u" width="25.6" height="16.6" transform="matrix(-.9816 -.1298 -.1428 .9796 -34.9 -98.25)"/><use xlink:href="#v" width="25.6" height="16.6" transform="matrix(-.9818 .1212 .1081 .9832 -53.4 -94.05)"/></g></g><g clip-path="url(#w)"><g transform="translate(193.9 132.25)"><use xlink:href="#g" width="27.7" height="79" transform="matrix(-1 -.0444 0 1 -6.2 -77.6)"/><use xlink:href="#h" width="26.9" height="74" transform="matrix(-1.0252 .6483 0 .9327 -6.6 -82.75)"/><use xlink:href="#x" width="27.6" height="90.3" transform="matrix(-1 -.0444 0 1 -5.65 -81.3)"/><use xlink:href="#j" width="14.1" height="17.3" transform="matrix(-1 -.0444 0 1 -9 -72.1)"/><use xlink:href="#j" width="14.1" height="17.3" transform="matrix(-1 -.0444 0 1 -33.25 -58.35)"/><use xlink:href="#k" width="71.8" height="88" transform="matrix(-1 0 0 1 22.25 -83.45)"/><use xlink:href="#l" width="37.9" height="25.8" transform="matrix(-1 0 0 1 23.25 -117.6)"/><use xlink:href="#m" width="17.2" height="15.7" transform="matrix(-1.114 -.0859 .1136 1.2368 32 -103.4)"/><use xlink:href="#n" width="17.2" height="15.7" transform="matrix(-1.114 -.0859 .1136 1.2368 21.85 -101.65)"/><use xlink:href="#o" width="17.2" height="15.7" transform="matrix(-1.114 -.0859 .1136 1.2368 14.95 -95.15)"/><use xlink:href="#p" width="25.7" height="12" transform="matrix(-1 0 0 1 16.3 -117.4)"/><use xlink:href="#q" width="17.2" height="15.7" transform="matrix(-1.1603 -.0894 .1184 1.2883 25.5 -114.75)"/><use xlink:href="#r" width="17.2" height="15.7" transform="matrix(-1.1603 -.0894 .1184 1.2883 8.35 -103.9)"/><use xlink:href="#s" width="17.2" height="15.7" transform="matrix(-1.0778 -.0831 .11 1.1966 10.5 -118.85)"/><use xlink:href="#o" width="17.2" height="15.7" transform="matrix(-1.0778 -.0831 .11 1.1966 3.75 -112.6)"/><use xlink:href="#q" width="17.2" height="15.7" transform="matrix(1.0309 -.5318 .0143 -.3132 -26.2 -109.2)"/><use xlink:href="#s" width="17.2" height="15.7" transform="matrix(.9575 -.4939 .0162 -.3551 -17.3 -111.9)"/><use xlink:href="#o" width="17.2" height="15.7" transform="matrix(.9575 -.4939 .0215 -.4696 -7.85 -115.4)"/><use xlink:href="#t" width="25.7" height="12" transform="matrix(-1 0 0 1 16.3 -117.4)"/><use xlink:href="#u" width="25.6" height="16.6" transform="matrix(-.9816 -.1298 -.1428 .9796 17.8 -125.25)"/><use xlink:href="#v" width="25.6" height="16.6" transform="matrix(-.9818 .1212 .1081 .9832 -.7 -121.05)"/><use xlink:href="#l" width="37.9" height="25.8" transform="matrix(-1 0 0 1 -3.25 -104.5)"/><use xlink:href="#m" width="17.2" height="15.7" transform="matrix(-1.114 -.0859 .1136 1.2368 5.5 -90.3)"/><use xlink:href="#n" width="17.2" height="15.7" transform="matrix(-1.114 -.0859 .1136 1.2368 -4.65 -88.55)"/><use xlink:href="#o" width="17.2" height="15.7" transform="matrix(-1.114 -.0859 .1136 1.2368 -11.55 -82.05)"/><use xlink:href="#p" width="25.7" height="12" transform="matrix(-1 0 0 1 -10.2 -104.3)"/><use xlink:href="#q" width="17.2" height="15.7" transform="matrix(-1.1603 -.0894 .1184 1.2883 -1 -101.65)"/><use xlink:href="#r" width="17.2" height="15.7" transform="matrix(-1.1603 -.0894 .1184 1.2883 -18.15 -90.8)"/><use xlink:href="#s" width="17.2" height="15.7" transform="matrix(-1.0778 -.0831 .11 1.1966 -16 -105.75)"/><use xlink:href="#o" width="17.2" height="15.7" transform="matrix(-1.0778 -.0831 .11 1.1966 -22.75 -99.5)"/><use xlink:href="#q" width="17.2" height="15.7" transform="matrix(1.0309 -.5318 .0143 -.3132 -52.7 -96.1)"/><use xlink:href="#s" width="17.2" height="15.7" transform="matrix(.9575 -.4939 .0162 -.3551 -43.8 -98.8)"/><use xlink:href="#o" width="17.2" height="15.7" transform="matrix(.9575 -.4939 .0215 -.4696 -34.35 -102.3)"/><use xlink:href="#t" width="25.7" height="12" transform="matrix(-1 0 0 1 -10.2 -104.3)"/><use xlink:href="#u" width="25.6" height="16.6" transform="matrix(-.9816 -.1298 -.1428 .9796 -8.7 -112.15)"/><use xlink:href="#v" width="25.6" height="16.6" transform="matrix(-.9818 .1212 .1081 .9832 -27.2 -107.95)"/><use xlink:href="#l" width="37.9" height="25.8" transform="matrix(-1 0 0 1 -29.45 -90.6)"/><use xlink:href="#m" width="17.2" height="15.7" transform="matrix(-1.114 -.0859 .1136 1.2368 -20.7 -76.4)"/><use xlink:href="#n" width="17.2" height="15.7" transform="matrix(-1.114 -.0859 .1136 1.2368 -30.85 -74.65)"/><use xlink:href="#o" width="17.2" height="15.7" transform="matrix(-1.114 -.0859 .1136 1.2368 -37.75 -68.15)"/><use xlink:href="#p" width="25.7" height="12" transform="matrix(-1 0 0 1 -36.4 -90.4)"/><use xlink:href="#q" width="17.2" height="15.7" transform="matrix(-1.1603 -.0894 .1184 1.2883 -27.2 -87.75)"/><use xlink:href="#r" width="17.2" height="15.7" transform="matrix(-1.1603 -.0894 .1184 1.2883 -44.35 -76.9)"/><use xlink:href="#s" width="17.2" height="15.7" transform="matrix(-1.0778 -.0831 .11 1.1966 -42.2 -91.85)"/><use xlink:href="#o" width="17.2" height="15.7" transform="matrix(-1.0778 -.0831 .11 1.1966 -48.95 -85.6)"/><use xlink:href="#q" width="17.2" height="15.7" transform="matrix(1.0309 -.5318 .0143 -.3132 -78.9 -82.2)"/><use xlink:href="#s" width="17.2" height="15.7" transform="matrix(.9575 -.4939 .0162 -.3551 -70 -84.9)"/><use xlink:href="#o" width="17.2" height="15.7" transform="matrix(.9575 -.4939 .0215 -.4696 -60.55 -88.4)"/><use xlink:href="#t" width="25.7" height="12" transform="matrix(-1 0 0 1 -36.4 -90.4)"/><use xlink:href="#u" width="25.6" height="16.6" transform="matrix(-.9816 -.1298 -.1428 .9796 -34.9 -98.25)"/><use xlink:href="#v" width="25.6" height="16.6" transform="matrix(-.9818 .1212 .1081 .9832 -53.4 -94.05)"/></g></g><g clip-path="url(#y)"><g transform="translate(307.9 132.25)"><use xlink:href="#g" width="27.7" height="79" transform="matrix(-1 -.0444 0 1 -6.2 -77.6)"/><use xlink:href="#h" width="26.9" height="74" transform="matrix(-1.0252 .6483 0 .9327 -6.6 -82.75)"/><use xlink:href="#z" width="27.6" height="90.3" transform="matrix(-1 -.0444 0 1 -5.65 -81.3)"/><use xlink:href="#j" width="14.1" height="17.3" transform="matrix(-1 -.0444 0 1 -9 -72.1)"/><use xlink:href="#j" width="14.1" height="17.3" transform="matrix(-1 -.0444 0 1 -33.25 -58.35)"/><use xlink:href="#k" width="71.8" height="88" transform="matrix(-1 0 0 1 22.25 -83.45)"/><use xlink:href="#l" width="37.9" height="25.8" transform="matrix(-1 0 0 1 23.25 -117.6)"/><use xlink:href="#m" width="17.2" height="15.7" transform="matrix(-1.114 -.0859 .1136 1.2368 32 -103.4)"/><use xlink:href="#n" width="17.2" height="15.7" transform="matrix(-1.114 -.0859 .1136 1.2368 21.85 -101.65)"/><use xlink:href="#o" width="17.2" height="15.7" transform="matrix(-1.114 -.0859 .1136 1.2368 14.95 -95.15)"/><use xlink:href="#p" width="25.7" height="12" transform="matrix(-1 0 0 1 16.3 -117.4)"/><use xlink:href="#q" width="17.2" height="15.7" transform="matrix(-1.1603 -.0894 .1184 1.2883 25.5 -114.75)"/><use xlink:href="#r" width="17.2" height="15.7" transform="matrix(-1.1603 -.0894 .1184 1.2883 8.35 -103.9)"/><use xlink:href="#s" width="17.2" height="15.7" transform="matrix(-1.0778 -.0831 .11 1.1966 10.5 -118.85)"/><use xlink:href="#o" width="17.2" height="15.7" transform="matrix(-1.0778 -.0831 .11 1.1966 3.75 -112.6)"/><use xlink:href="#q" width="17.2" height="15.7" transform="matrix(1.0309 -.5318 .0143 -.3132 -26.2 -109.2)"/><use xlink:href="#s" width="17.2" height="15.7" transform="matrix(.9575 -.4939 .0162 -.3551 -17.3 -111.9)"/><use xlink:href="#o" width="17.2" height="15.7" transform="matrix(.9575 -.4939 .0215 -.4696 -7.85 -115.4)"/><use xlink:href="#t" width="25.7" height="12" transform="matrix(-1 0 0 1 16.3 -117.4)"/><use xlink:href="#u" width="25.6" height="16.6" transform="matrix(-.9816 -.1298 -.1428 .9796 17.8 -125.25)"/><use xlink:href="#v" width="25.6" height="16.6" transform="matrix(-.9818 .1212 .1081 .9832 -.7 -121.05)"/><use xlink:href="#l" width="37.9" height="25.8" transform="matrix(-1 0 0 1 -3.25 -104.5)"/><use xlink:href="#m" width="17.2" height="15.7" transform="matrix(-1.114 -.0859 .1136 1.2368 5.5 -90.3)"/><use xlink:href="#n" width="17.2" height="15.7" transform="matrix(-1.114 -.0859 .1136 1.2368 -4.65 -88.55)"/><use xlink:href="#o" width="17.2" height="15.7" transform="matrix(-1.114 -.0859 .1136 1.2368 -11.55 -82.05)"/><use xlink:href="#p" width="25.7" height="12" transform="matrix(-1 0 0 1 -10.2 -104.3)"/><use xlink:href="#q" width="17.2" height="15.7" transform="matrix(-1.1603 -.0894 .1184 1.2883 -1 -101.65)"/><use xlink:href="#r" width="17.2" height="15.7" transform="matrix(-1.1603 -.0894 .1184 1.2883 -18.15 -90.8)"/><use xlink:href="#s" width="17.2" height="15.7" transform="matrix(-1.0778 -.0831 .11 1.1966 -16 -105.75)"/><use xlink:href="#o" width="17.2" height="15.7" transform="matrix(-1.0778 -.0831 .11 1.1966 -22.75 -99.5)"/><use xlink:href="#q" width="17.2" height="15.7" transform="matrix(1.0309 -.5318 .0143 -.3132 -52.7 -96.1)"/><use xlink:href="#s" width="17.2" height="15.7" transform="matrix(.9575 -.4939 .0162 -.3551 -43.8 -98.8)"/><use xlink:href="#o" width="17.2" height="15.7" transform="matrix(.9575 -.4939 .0215 -.4696 -34.35 -102.3)"/><use xlink:href="#t" width="25.7" height="12" transform="matrix(-1 0 0 1 -10.2 -104.3)"/><use xlink:href="#u" width="25.6" height="16.6" transform="matrix(-.9816 -.1298 -.1428 .9796 -8.7 -112.15)"/><use xlink:href="#v" width="25.6" height="16.6" transform="matrix(-.9818 .1212 .1081 .9832 -27.2 -107.95)"/><use xlink:href="#l" width="37.9" height="25.8" transform="matrix(-1 0 0 1 -29.45 -90.6)"/><use xlink:href="#m" width="17.2" height="15.7" transform="matrix(-1.114 -.0859 .1136 1.2368 -20.7 -76.4)"/><use xlink:href="#n" width="17.2" height="15.7" transform="matrix(-1.114 -.0859 .1136 1.2368 -30.85 -74.65)"/><use xlink:href="#o" width="17.2" height="15.7" transform="matrix(-1.114 -.0859 .1136 1.2368 -37.75 -68.15)"/><use xlink:href="#p" width="25.7" height="12" transform="matrix(-1 0 0 1 -36.4 -90.4)"/><use xlink:href="#q" width="17.2" height="15.7" transform="matrix(-1.1603 -.0894 .1184 1.2883 -27.2 -87.75)"/><use xlink:href="#r" width="17.2" height="15.7" transform="matrix(-1.1603 -.0894 .1184 1.2883 -44.35 -76.9)"/><use xlink:href="#s" width="17.2" height="15.7" transform="matrix(-1.0778 -.0831 .11 1.1966 -42.2 -91.85)"/><use xlink:href="#o" width="17.2" height="15.7" transform="matrix(-1.0778 -.0831 .11 1.1966 -48.95 -85.6)"/><use xlink:href="#q" width="17.2" height="15.7" transform="matrix(1.0309 -.5318 .0143 -.3132 -78.9 -82.2)"/><use xlink:href="#s" width="17.2" height="15.7" transform="matrix(.9575 -.4939 .0162 -.3551 -70 -84.9)"/><use xlink:href="#o" width="17.2" height="15.7" transform="matrix(.9575 -.4939 .0215 -.4696 -60.55 -88.4)"/><use xlink:href="#t" width="25.7" height="12" transform="matrix(-1 0 0 1 -36.4 -90.4)"/><use xlink:href="#u" width="25.6" height="16.6" transform="matrix(-.9816 -.1298 -.1428 .9796 -34.9 -98.25)"/><use xlink:href="#v" width="25.6" height="16.6" transform="matrix(-.9818 .1212 .1081 .9832 -53.4 -94.05)"/></g></g><g clip-path="url(#A)"><g transform="translate(421.9 132.25)"><use xlink:href="#g" width="27.7" height="79" transform="matrix(-1 -.0444 0 1 -6.2 -77.6)"/><use xlink:href="#h" width="26.9" height="74" transform="matrix(-1.0252 .6483 0 .9327 -6.6 -82.75)"/><use xlink:href="#B" width="27.6" height="90.3" transform="matrix(-1 -.0444 0 1 -5.65 -81.3)"/><use xlink:href="#j" width="14.1" height="17.3" transform="matrix(-1 -.0444 0 1 -9 -72.1)"/><use xlink:href="#j" width="14.1" height="17.3" transform="matrix(-1 -.0444 0 1 -33.25 -58.35)"/><use xlink:href="#k" width="71.8" height="88" transform="matrix(-1 0 0 1 22.25 -83.45)"/><use xlink:href="#l" width="37.9" height="25.8" transform="matrix(-1 0 0 1 23.25 -117.6)"/><use xlink:href="#m" width="17.2" height="15.7" transform="matrix(-1.114 -.0859 .1136 1.2368 32 -103.4)"/><use xlink:href="#n" width="17.2" height="15.7" transform="matrix(-1.114 -.0859 .1136 1.2368 21.85 -101.65)"/><use xlink:href="#o" width="17.2" height="15.7" transform="matrix(-1.114 -.0859 .1136 1.2368 14.95 -95.15)"/><use xlink:href="#p" width="25.7" height="12" transform="matrix(-1 0 0 1 16.3 -117.4)"/><use xlink:href="#q" width="17.2" height="15.7" transform="matrix(-1.1603 -.0894 .1184 1.2883 25.5 -114.75)"/><use xlink:href="#r" width="17.2" height="15.7" transform="matrix(-1.1603 -.0894 .1184 1.2883 8.35 -103.9)"/><use xlink:href="#s" width="17.2" height="15.7" transform="matrix(-1.0778 -.0831 .11 1.1966 10.5 -118.85)"/><use xlink:href="#o" width="17.2" height="15.7" transform="matrix(-1.0778 -.0831 .11 1.1966 3.75 -112.6)"/><use xlink:href="#q" width="17.2" height="15.7" transform="matrix(1.0309 -.5318 .0143 -.3132 -26.2 -109.2)"/><use xlink:href="#s" width="17.2" height="15.7" transform="matrix(.9575 -.4939 .0162 -.3551 -17.3 -111.9)"/><use xlink:href="#o" width="17.2" height="15.7" transform="matrix(.9575 -.4939 .0215 -.4696 -7.85 -115.4)"/><use xlink:href="#t" width="25.7" height="12" transform="matrix(-1 0 0 1 16.3 -117.4)"/><use xlink:href="#u" width="25.6" height="16.6" transform="matrix(-.9816 -.1298 -.1428 .9796 17.8 -125.25)"/><use xlink:href="#v" width="25.6" height="16.6" transform="matrix(-.9818 .1212 .1081 .9832 -.7 -121.05)"/><use xlink:href="#l" width="37.9" height="25.8" transform="matrix(-1 0 0 1 -3.25 -104.5)"/><use xlink:href="#m" width="17.2" height="15.7" transform="matrix(-1.114 -.0859 .1136 1.2368 5.5 -90.3)"/><use xlink:href="#n" width="17.2" height="15.7" transform="matrix(-1.114 -.0859 .1136 1.2368 -4.65 -88.55)"/><use xlink:href="#o" width="17.2" height="15.7" transform="matrix(-1.114 -.0859 .1136 1.2368 -11.55 -82.05)"/><use xlink:href="#p" width="25.7" height="12" transform="matrix(-1 0 0 1 -10.2 -104.3)"/><use xlink:href="#q" width="17.2" height="15.7" transform="matrix(-1.1603 -.0894 .1184 1.2883 -1 -101.65)"/><use xlink:href="#r" width="17.2" height="15.7" transform="matrix(-1.1603 -.0894 .1184 1.2883 -18.15 -90.8)"/><use xlink:href="#s" width="17.2" height="15.7" transform="matrix(-1.0778 -.0831 .11 1.1966 -16 -105.75)"/><use xlink:href="#o" width="17.2" height="15.7" transform="matrix(-1.0778 -.0831 .11 1.1966 -22.75 -99.5)"/><use xlink:href="#q" width="17.2" height="15.7" transform="matrix(1.0309 -.5318 .0143 -.3132 -52.7 -96.1)"/><use xlink:href="#s" width="17.2" height="15.7" transform="matrix(.9575 -.4939 .0162 -.3551 -43.8 -98.8)"/><use xlink:href="#o" width="17.2" height="15.7" transform="matrix(.9575 -.4939 .0215 -.4696 -34.35 -102.3)"/><use xlink:href="#t" width="25.7" height="12" transform="matrix(-1 0 0 1 -10.2 -104.3)"/><use xlink:href="#u" width="25.6" height="16.6" transform="matrix(-.9816 -.1298 -.1428 .9796 -8.7 -112.15)"/><use xlink:href="#v" width="25.6" height="16.6" transform="matrix(-.9818 .1212 .1081 .9832 -27.2 -107.95)"/><use xlink:href="#l" width="37.9" height="25.8" transform="matrix(-1 0 0 1 -29.45 -90.6)"/><use xlink:href="#m" width="17.2" height="15.7" transform="matrix(-1.114 -.0859 .1136 1.2368 -20.7 -76.4)"/><use xlink:href="#n" width="17.2" height="15.7" transform="matrix(-1.114 -.0859 .1136 1.2368 -30.85 -74.65)"/><use xlink:href="#o" width="17.2" height="15.7" transform="matrix(-1.114 -.0859 .1136 1.2368 -37.75 -68.15)"/><use xlink:href="#p" width="25.7" height="12" transform="matrix(-1 0 0 1 -36.4 -90.4)"/><use xlink:href="#q" width="17.2" height="15.7" transform="matrix(-1.1603 -.0894 .1184 1.2883 -27.2 -87.75)"/><use xlink:href="#r" width="17.2" height="15.7" transform="matrix(-1.1603 -.0894 .1184 1.2883 -44.35 -76.9)"/><use xlink:href="#s" width="17.2" height="15.7" transform="matrix(-1.0778 -.0831 .11 1.1966 -42.2 -91.85)"/><use xlink:href="#o" width="17.2" height="15.7" transform="matrix(-1.0778 -.0831 .11 1.1966 -48.95 -85.6)"/><use xlink:href="#q" width="17.2" height="15.7" transform="matrix(1.0309 -.5318 .0143 -.3132 -78.9 -82.2)"/><use xlink:href="#s" width="17.2" height="15.7" transform="matrix(.9575 -.4939 .0162 -.3551 -70 -84.9)"/><use xlink:href="#o" width="17.2" height="15.7" transform="matrix(.9575 -.4939 .0215 -.4696 -60.55 -88.4)"/><use xlink:href="#t" width="25.7" height="12" transform="matrix(-1 0 0 1 -36.4 -90.4)"/><use xlink:href="#u" width="25.6" height="16.6" transform="matrix(-.9816 -.1298 -.1428 .9796 -34.9 -98.25)"/><use xlink:href="#v" width="25.6" height="16.6" transform="matrix(-.9818 .1212 .1081 .9832 -53.4 -94.05)"/></g></g><g clip-path="url(#C)"><g transform="translate(535.9 132.25)"><use xlink:href="#g" width="27.7" height="79" transform="matrix(-1 -.0444 0 1 -6.2 -77.6)"/><use xlink:href="#h" width="26.9" height="74" transform="matrix(-1.0252 .6483 0 .9327 -6.6 -82.75)"/><use xlink:href="#D" width="27.6" height="90.3" transform="matrix(-1 -.0444 0 1 -5.65 -81.3)"/><use xlink:href="#j" width="14.1" height="17.3" transform="matrix(-1 -.0444 0 1 -9 -72.1)"/><use xlink:href="#j" width="14.1" height="17.3" transform="matrix(-1 -.0444 0 1 -33.25 -58.35)"/><use xlink:href="#k" width="71.8" height="88" transform="matrix(-1 0 0 1 22.25 -83.45)"/><use xlink:href="#l" width="37.9" height="25.8" transform="matrix(-1 0 0 1 23.25 -117.6)"/><use xlink:href="#m" width="17.2" height="15.7" transform="matrix(-1.114 -.0859 .1136 1.2368 32 -103.4)"/><use xlink:href="#n" width="17.2" height="15.7" transform="matrix(-1.114 -.0859 .1136 1.2368 21.85 -101.65)"/><use xlink:href="#o" width="17.2" height="15.7" transform="matrix(-1.114 -.0859 .1136 1.2368 14.95 -95.15)"/><use xlink:href="#p" width="25.7" height="12" transform="matrix(-1 0 0 1 16.3 -117.4)"/><use xlink:href="#q" width="17.2" height="15.7" transform="matrix(-1.1603 -.0894 .1184 1.2883 25.5 -114.75)"/><use xlink:href="#r" width="17.2" height="15.7" transform="matrix(-1.1603 -.0894 .1184 1.2883 8.35 -103.9)"/><use xlink:href="#s" width="17.2" height="15.7" transform="matrix(-1.0778 -.0831 .11 1.1966 10.5 -118.85)"/><use xlink:href="#o" width="17.2" height="15.7" transform="matrix(-1.0778 -.0831 .11 1.1966 3.75 -112.6)"/><use xlink:href="#q" width="17.2" height="15.7" transform="matrix(1.0309 -.5318 .0143 -.3132 -26.2 -109.2)"/><use xlink:href="#s" width="17.2" height="15.7" transform="matrix(.9575 -.4939 .0162 -.3551 -17.3 -111.9)"/><use xlink:href="#o" width="17.2" height="15.7" transform="matrix(.9575 -.4939 .0215 -.4696 -7.85 -115.4)"/><use xlink:href="#t" width="25.7" height="12" transform="matrix(-1 0 0 1 16.3 -117.4)"/><use xlink:href="#u" width="25.6" height="16.6" transform="matrix(-.9816 -.1298 -.1428 .9796 17.8 -125.25)"/><use xlink:href="#v" width="25.6" height="16.6" transform="matrix(-.9818 .1212 .1081 .9832 -.7 -121.05)"/><use xlink:href="#l" width="37.9" height="25.8" transform="matrix(-1 0 0 1 -3.25 -104.5)"/><use xlink:href="#m" width="17.2" height="15.7" transform="matrix(-1.114 -.0859 .1136 1.2368 5.5 -90.3)"/><use xlink:href="#n" width="17.2" height="15.7" transform="matrix(-1.114 -.0859 .1136 1.2368 -4.65 -88.55)"/><use xlink:href="#o" width="17.2" height="15.7" transform="matrix(-1.114 -.0859 .1136 1.2368 -11.55 -82.05)"/><use xlink:href="#p" width="25.7" height="12" transform="matrix(-1 0 0 1 -10.2 -104.3)"/><use xlink:href="#q" width="17.2" height="15.7" transform="matrix(-1.1603 -.0894 .1184 1.2883 -1 -101.65)"/><use xlink:href="#r" width="17.2" height="15.7" transform="matrix(-1.1603 -.0894 .1184 1.2883 -18.15 -90.8)"/><use xlink:href="#s" width="17.2" height="15.7" transform="matrix(-1.0778 -.0831 .11 1.1966 -16 -105.75)"/><use xlink:href="#o" width="17.2" height="15.7" transform="matrix(-1.0778 -.0831 .11 1.1966 -22.75 -99.5)"/><use xlink:href="#q" width="17.2" height="15.7" transform="matrix(1.0309 -.5318 .0143 -.3132 -52.7 -96.1)"/><use xlink:href="#s" width="17.2" height="15.7" transform="matrix(.9575 -.4939 .0162 -.3551 -43.8 -98.8)"/><use xlink:href="#o" width="17.2" height="15.7" transform="matrix(.9575 -.4939 .0215 -.4696 -34.35 -102.3)"/><use xlink:href="#t" width="25.7" height="12" transform="matrix(-1 0 0 1 -10.2 -104.3)"/><use xlink:href="#u" width="25.6" height="16.6" transform="matrix(-.9816 -.1298 -.1428 .9796 -8.7 -112.15)"/><use xlink:href="#v" width="25.6" height="16.6" transform="matrix(-.9818 .1212 .1081 .9832 -27.2 -107.95)"/><use xlink:href="#l" width="37.9" height="25.8" transform="matrix(-1 0 0 1 -29.45 -90.6)"/><use xlink:href="#m" width="17.2" height="15.7" transform="matrix(-1.114 -.0859 .1136 1.2368 -20.7 -76.4)"/><use xlink:href="#n" width="17.2" height="15.7" transform="matrix(-1.114 -.0859 .1136 1.2368 -30.85 -74.65)"/><use xlink:href="#o" width="17.2" height="15.7" transform="matrix(-1.114 -.0859 .1136 1.2368 -37.75 -68.15)"/><use xlink:href="#p" width="25.7" height="12" transform="matrix(-1 0 0 1 -36.4 -90.4)"/><use xlink:href="#q" width="17.2" height="15.7" transform="matrix(-1.1603 -.0894 .1184 1.2883 -27.2 -87.75)"/><use xlink:href="#r" width="17.2" height="15.7" transform="matrix(-1.1603 -.0894 .1184 1.2883 -44.35 -76.9)"/><use xlink:href="#s" width="17.2" height="15.7" transform="matrix(-1.0778 -.0831 .11 1.1966 -42.2 -91.85)"/><use xlink:href="#o" width="17.2" height="15.7" transform="matrix(-1.0778 -.0831 .11 1.1966 -48.95 -85.6)"/><use xlink:href="#q" width="17.2" height="15.7" transform="matrix(1.0309 -.5318 .0143 -.3132 -78.9 -82.2)"/><use xlink:href="#s" width="17.2" height="15.7" transform="matrix(.9575 -.4939 .0162 -.3551 -70 -84.9)"/><use xlink:href="#o" width="17.2" height="15.7" transform="matrix(.9575 -.4939 .0215 -.4696 -60.55 -88.4)"/><use xlink:href="#t" width="25.7" height="12" transform="matrix(-1 0 0 1 -36.4 -90.4)"/><use xlink:href="#u" width="25.6" height="16.6" transform="matrix(-.9816 -.1298 -.1428 .9796 -34.9 -98.25)"/><use xlink:href="#v" width="25.6" height="16.6" transform="matrix(-.9818 .1212 .1081 .9832 -53.4 -94.05)"/></g></g><g clip-path="url(#E)"><g transform="translate(649.9 132.25)"><use xlink:href="#g" width="27.7" height="79" transform="matrix(-1 -.0444 0 1 -6.2 -77.6)"/><use xlink:href="#h" width="26.9" height="74" transform="matrix(-1.0252 .6483 0 .9327 -6.6 -82.75)"/><use xlink:href="#F" width="27.6" height="90.3" transform="matrix(-1 -.0444 0 1 -5.65 -81.3)"/><use xlink:href="#j" width="14.1" height="17.3" transform="matrix(-1 -.0444 0 1 -9 -72.1)"/><use xlink:href="#j" width="14.1" height="17.3" transform="matrix(-1 -.0444 0 1 -33.25 -58.35)"/><use xlink:href="#k" width="71.8" height="88" transform="matrix(-1 0 0 1 22.25 -83.45)"/><use xlink:href="#l" width="37.9" height="25.8" transform="matrix(-1 0 0 1 23.25 -117.6)"/><use xlink:href="#m" width="17.2" height="15.7" transform="matrix(-1.114 -.0859 .1136 1.2368 32 -103.4)"/><use xlink:href="#n" width="17.2" height="15.7" transform="matrix(-1.114 -.0859 .1136 1.2368 21.85 -101.65)"/><use xlink:href="#o" width="17.2" height="15.7" transform="matrix(-1.114 -.0859 .1136 1.2368 14.95 -95.15)"/><use xlink:href="#p" width="25.7" height="12" transform="matrix(-1 0 0 1 16.3 -117.4)"/><use xlink:href="#q" width="17.2" height="15.7" transform="matrix(-1.1603 -.0894 .1184 1.2883 25.5 -114.75)"/><use xlink:href="#r" width="17.2" height="15.7" transform="matrix(-1.1603 -.0894 .1184 1.2883 8.35 -103.9)"/><use xlink:href="#s" width="17.2" height="15.7" transform="matrix(-1.0778 -.0831 .11 1.1966 10.5 -118.85)"/><use xlink:href="#o" width="17.2" height="15.7" transform="matrix(-1.0778 -.0831 .11 1.1966 3.75 -112.6)"/><use xlink:href="#q" width="17.2" height="15.7" transform="matrix(1.0309 -.5318 .0143 -.3132 -26.2 -109.2)"/><use xlink:href="#s" width="17.2" height="15.7" transform="matrix(.9575 -.4939 .0162 -.3551 -17.3 -111.9)"/><use xlink:href="#o" width="17.2" height="15.7" transform="matrix(.9575 -.4939 .0215 -.4696 -7.85 -115.4)"/><use xlink:href="#t" width="25.7" height="12" transform="matrix(-1 0 0 1 16.3 -117.4)"/><use xlink:href="#u" width="25.6" height="16.6" transform="matrix(-.9816 -.1298 -.1428 .9796 17.8 -125.25)"/><use xlink:href="#v" width="25.6" height="16.6" transform="matrix(-.9818 .1212 .1081 .9832 -.7 -121.05)"/><use xlink:href="#l" width="37.9" height="25.8" transform="matrix(-1 0 0 1 -3.25 -104.5)"/><use xlink:href="#m" width="17.2" height="15.7" transform="matrix(-1.114 -.0859 .1136 1.2368 5.5 -90.3)"/><use xlink:href="#n" width="17.2" height="15.7" transform="matrix(-1.114 -.0859 .1136 1.2368 -4.65 -88.55)"/><use xlink:href="#o" width="17.2" height="15.7" transform="matrix(-1.114 -.0859 .1136 1.2368 -11.55 -82.05)"/><use xlink:href="#p" width="25.7" height="12" transform="matrix(-1 0 0 1 -10.2 -104.3)"/><use xlink:href="#q" width="17.2" height="15.7" transform="matrix(-1.1603 -.0894 .1184 1.2883 -1 -101.65)"/><use xlink:href="#r" width="17.2" height="15.7" transform="matrix(-1.1603 -.0894 .1184 1.2883 -18.15 -90.8)"/><use xlink:href="#s" width="17.2" height="15.7" transform="matrix(-1.0778 -.0831 .11 1.1966 -16 -105.75)"/><use xlink:href="#o" width="17.2" height="15.7" transform="matrix(-1.0778 -.0831 .11 1.1966 -22.75 -99.5)"/><use xlink:href="#q" width="17.2" height="15.7" transform="matrix(1.0309 -.5318 .0143 -.3132 -52.7 -96.1)"/><use xlink:href="#s" width="17.2" height="15.7" transform="matrix(.9575 -.4939 .0162 -.3551 -43.8 -98.8)"/><use xlink:href="#o" width="17.2" height="15.7" transform="matrix(.9575 -.4939 .0215 -.4696 -34.35 -102.3)"/><use xlink:href="#t" width="25.7" height="12" transform="matrix(-1 0 0 1 -10.2 -104.3)"/><use xlink:href="#u" width="25.6" height="16.6" transform="matrix(-.9816 -.1298 -.1428 .9796 -8.7 -112.15)"/><use xlink:href="#v" width="25.6" height="16.6" transform="matrix(-.9818 .1212 .1081 .9832 -27.2 -107.95)"/><use xlink:href="#l" width="37.9" height="25.8" transform="matrix(-1 0 0 1 -29.45 -90.6)"/><use xlink:href="#m" width="17.2" height="15.7" transform="matrix(-1.114 -.0859 .1136 1.2368 -20.7 -76.4)"/><use xlink:href="#n" width="17.2" height="15.7" transform="matrix(-1.114 -.0859 .1136 1.2368 -30.85 -74.65)"/><use xlink:href="#o" width="17.2" height="15.7" transform="matrix(-1.114 -.0859 .1136 1.2368 -37.75 -68.15)"/><use xlink:href="#p" width="25.7" height="12" transform="matrix(-1 0 0 1 -36.4 -90.4)"/><use xlink:href="#q" width="17.2" height="15.7" transform="matrix(-1.1603 -.0894 .1184 1.2883 -27.2 -87.75)"/><use xlink:href="#r" width="17.2" height="15.7" transform="matrix(-1.1603 -.0894 .1184 1.2883 -44.35 -76.9)"/><use xlink:href="#s" width="17.2" height="15.7" transform="matrix(-1.0778 -.0831 .11 1.1966 -42.2 -91.85)"/><use xlink:href="#o" width="17.2" height="15.7" transform="matrix(-1.0778 -.0831 .11 1.1966 -48.95 -85.6)"/><use xlink:href="#q" width="17.2" height="15.7" transform="matrix(1.0309 -.5318 .0143 -.3132 -78.9 -82.2)"/><use xlink:href="#s" width="17.2" height="15.7" transform="matrix(.9575 -.4939 .0162 -.3551 -70 -84.9)"/><use xlink:href="#o" width="17.2" height="15.7" transform="matrix(.9575 -.4939 .0215 -.4696 -60.55 -88.4)"/><use xlink:href="#t" width="25.7" height="12" transform="matrix(-1 0 0 1 -36.4 -90.4)"/><use xlink:href="#u" width="25.6" height="16.6" transform="matrix(-.9816 -.1298 -.1428 .9796 -34.9 -98.25)"/><use xlink:href="#v" width="25.6" height="16.6" transform="matrix(-.9818 .1212 .1081 .9832 -53.4 -94.05)"/></g></g></svg>