<svg xmlns="http://www.w3.org/2000/svg" xmlns:xlink="http://www.w3.org/1999/xlink" width="65" height="64" viewBox="0 0 65 64"><defs><g id="m"><path fill="#aaa080" d="m4.7 1.3-1 1q-.7 1 .5.8L6 2.8q.5 0 .9-.3l1-.9q.7-.6.4-1L6.8.5 5 1Q6.1.3 7.4 0L10 1.3q-2.9.6-4.7 3.4-.4.9-.5 4.3l-.1.6-2.3-1.3-.3-.1q.1-3.8.5-4.6v-.2q1-1.3 2-2.1m-2 2v.3zm-.5 4.8.3.1H2zm19.8.6q.5-.2 0-1t-1.4-.6l-1.3.6-1.6 1.5q-1.1 1.2.1.9l2-.4 1.1-.5zm2-.5-1 .4q-1.6.9-3.3 2.9h-.1q-.4 1.2-.4 5l-.9-.5-2.4-1.2v-.5q.2-3.5.6-4.4 1.8-2.6 4.6-3.3l3.3 1.5zM18 16l.9.4v.1z"/><path fill="#cbc4b4" d="M5 1 6.8.5l1.5.1q.3.4-.3 1l-1.1.9q-.4.3-.9.3l-1.7.3q-1.3.2-.6-.8l1-1zm16.9 7.8-1.1.5-1.1.4-2 .5q-1.2.3-.1-.9l1.6-1.5 1.3-.6q.8-.2 1.4.5.5.9 0 1.1"/><path fill="#608080" d="m2.4 8.3 2.3 1.3 11 5.4 2.3 1 .9.5 1.8.8-1.6 1.3H19L0 8.8l1.3-1h.3l.4.4zm16.3 9 .3-.7z"/><path fill="#293635" d="m20.8 17.4.3.2-.1 14.9-1.9 1V18.8z"/><path fill="#364949" d="M19.1 33.6 0 23.7V8.9l19 9.7v.1zm-1.6-5.7-1.3-3zm-2.8-2.6.3-.1v2-2zm2.5-1.4L15 25.3v-2.6 2.6zM12.5 21l-.1 5.7zm-3.7-1.9-1.4-2.4zM5 16.6l1-2.1zm-2.3 0v-3.7zm7.7 9V20zm.4-7.7H9.2z"/><path fill="#675c47" d="m22.8 8.8 1-.5 1 1.4z"/><path fill="none" stroke="#000" stroke-linecap="round" stroke-linejoin="round" stroke-opacity=".4" stroke-width="__RESOLUTION__" d="M4.7 1.3q-1.1.7-2 2l-.1.2h0m-.5 4.7.3.1 2.3 1.3V9q.2-3.4.5-4.3 2-2.8 4.8-3.4L7.4 0Q6.1.3 5 1l-.3.3m16 16.1.4.2-.1 14.9-1.9 1L0 23.8V8.9h0l1.4-1h.3l.4.3m0 .1h.3m20.4.4 1-.3.4-.2-3.3-1.5M15.7 15l2.3 1 .9.4q0-3.7.5-4.8v-.1h-.1m0 0q1.8-2 3.4-2.8l2 .9-1-1.3M19 16.5l-.3.6m.4-.6 1.6.8-1.5 1.3H19v14.9m0-14.8v-.2L0 9v.2m18 6.9.9.5M1.7 7.9l.4.4m13.6 6.6-11-5.3" vector-effect="non-scaling-stroke"/><path fill="none" stroke="#000" stroke-linecap="round" stroke-linejoin="round" stroke-opacity=".4" stroke-width="__RESOLUTION__" d="m2.7 3.4-.1.2q-.4.8-.5 4.6m18.8-1.5q-2.8.7-4.6 3.3-.4.9-.5 4.4l-.1.5" vector-effect="non-scaling-stroke"/><path fill="none" stroke="#fff" stroke-linecap="round" stroke-linejoin="round" stroke-opacity=".4" stroke-width="1" d="m16.2 24.8 1.3 3.1m-2.5-.6v-2.1l-.3.1m.3-2.7v2.6l2.2-1.2m-4.8 2.8v-5.7m-5.1-4.4 1.4 2.6m-2.5-5L5 16.5m-2.3-3.7v3.8m7.7 3.6v5.3m-1.2-7.7h1.6"/></g><g id="l"><path fill="#b57931" d="m22 9 3.4 1.7 6 3-4.1 3.2-9-4.5zl-3.8 3.3-9.6-4.8 1.9-1.7 2.3-.7 1-.3z"/><path fill="#382510" d="m18.3 12.4 9 4.5 3 6.7-9-4.4-9.4-4.4-3.2-7.2zl3 6.9zm-4.7 6.1 9.5 4.7 9.1 4.6 2.3 4.9L25 28l-2-4.8 2 4.8-9.3-4.7z"/><path fill="#64431c" d="m27.3 16.9 4.1-3.1 3.1 7.2-1.3.9-2.8 1.8v-.1zm8.2 8.8.8-.6 2.4 5.4-4.2 2.2-2.2-4.9zM10.5 6l2-1.7.4 1z"/><path fill="#ada284" d="m33.2 21.9 1.3-1 1.8 4v.2l-.8.5z"/><path fill="#4d4433" d="M30.4 23.6v.1l1.9 4-9.2-4.5-9.5-4.7L5 14.3l-1.6-3.6 8.5 4 9.4 4.6z"/><path fill="#2f1e0d" d="m11.9 14.8-8.5-4.1L0 3.2l8.7 4.4zM5 14.2l8.6 4.3 2.2 4.8L7 18.9z"/><path fill="#73694a" d="m32.3 27.8-1.9-4.1 2.8-1.8 2.3 3.8z"/><path fill="#8d622e" d="M0 3.2 4.2 0l8.3 4.2-2 1.7-1.8 1.7z"/><path fill="none" stroke="#2c170a" stroke-linecap="round" stroke-linejoin="round" stroke-width="__RESOLUTION__" d="m25.4 10.7-3.3-1.6-8.2-4.2-1 .3-.4-1L4.2 0 0 3.2l3.4 7.5M7 18.9l-2-4.6" vector-effect="non-scaling-stroke"/><path fill="none" stroke="#593613" stroke-linecap="round" stroke-linejoin="round" stroke-width="__RESOLUTION__" d="m22 9-3.7 3.4m9 4.5 4.1-3.1v-.1l-6-3M34.5 21l-3.1-7.2m.9 14 2.2 4.9 4.2-2.2-2.4-5.4m-6-1.5-3-6.7" vector-effect="non-scaling-stroke"/><path fill="none" stroke="#3d3423" stroke-linecap="round" stroke-linejoin="round" stroke-width="__RESOLUTION__" d="m33.2 21.9 1.3-1 1.8 4v.2l-.8.5-3.2 2.2h0L23 23.2l-9.5-4.7L5 14.3l-1.6-3.6 8.5 4 9.4 4.6 9 4.3.1.1z" vector-effect="non-scaling-stroke"/><path fill="none" stroke="#090502" stroke-linecap="round" stroke-linejoin="round" stroke-width="__RESOLUTION__" d="m25.1 28-2-4.8m11.4 9.5L25 28l-9.3-4.7L7 18.9M8.7 7.6l3.2 7.2m3.9 8.5-2.2-4.8m7.7.8-3-6.9" vector-effect="non-scaling-stroke"/><path fill="none" stroke="#41270e" stroke-linecap="round" stroke-linejoin="round" stroke-width="__RESOLUTION__" d="m8.7 7.6 1.9-1.7 1.9-1.7m.4 1-2.3.7" vector-effect="non-scaling-stroke"/></g><g id="k"><path fill="#52381b" d="m28.5 10.5 1.9 3.2-5.8 2.9v-4.1z"/><path fill="#925e29" d="M28.6 10.4h-.2l-.3-.8z"/><path fill="#39210f" d="M24.6 12.4v4.1L0 4.1V0z"/><path fill="none" stroke="#593613" stroke-linecap="round" stroke-linejoin="round" stroke-width="__RESOLUTION__" d="M24.6 12.4v4.1" vector-effect="non-scaling-stroke"/><path fill="none" stroke="#2c170a" stroke-linecap="round" stroke-linejoin="round" stroke-width="__RESOLUTION__" d="m24.6 16.5 5.8-2.9M0 0v4.1l24.6 12.4" vector-effect="non-scaling-stroke"/></g><g id="j"><path fill="#633600" fill-opacity=".9" d="m13.4 4.9-2.9-1V0zm-2.9 3.4.3 5.3H4.3l3.2-5.3z"/><path fill="#4c2600" fill-opacity=".9" d="M10.5 0v3.9l2.9 1-2.6 8.7-.3-5.3 1-2-1-2.4L7 2.8 4.8 0zM5.9 6.6l1.6 1.7-3.2 5.3L0 9.4z"/><path fill="#ddbc94" fill-opacity=".9" d="M4.8 0 7 2.8 5.9 6.6 0 9.4l1.7-5.6z"/><path fill="#3e2100" fill-opacity=".9" d="m7 2.8 3.5 1.1 1 2.4-1 2h-3L5.9 6.6z"/><path fill="none" stroke="#000" stroke-linecap="round" stroke-linejoin="round" stroke-opacity=".5" stroke-width="__RESOLUTION__" d="M13.4 4.9 10.5 0H4.8L1.7 3.8 0 9.4l4.3 4.2h6.5z" vector-effect="non-scaling-stroke"/></g><g id="i"><path fill="#663800" fill-opacity=".9" d="m13.4 4.9-2.9-1V0zm-2.9 3.4.3 5.3H4.3l3.2-5.3z"/><path fill="#4f2700" fill-opacity=".9" d="M10.5 0v3.9l2.9 1-2.6 8.7-.3-5.3 1-2-1-2.4L7 2.8 4.8 0zM5.9 6.6l1.6 1.7-3.2 5.3L0 9.4z"/><path fill="#e4c299" fill-opacity=".9" d="M4.8 0 7 2.8 5.9 6.6 0 9.4l1.7-5.6z"/><path fill="#402300" fill-opacity=".9" d="m7 2.8 3.5 1.1 1 2.4-1 2h-3L5.9 6.6z"/><path fill="none" stroke="#000" stroke-linecap="round" stroke-linejoin="round" stroke-opacity=".5" stroke-width="__RESOLUTION__" d="M13.4 4.9 10.5 0H4.8L1.7 3.8 0 9.4l4.3 4.2h6.5z" vector-effect="non-scaling-stroke"/></g><g id="h"><path fill="#482700" d="M5.4 4.2 5.9 2 2.8 0 12 1.9 8.5 4.2z"/><path fill="#fed8ab" d="M2.7 0 6 2.1l-.7 2q-.7-.4-2.8-1z"/><path fill="#422400" d="M5.4 4.2h4.8l1.7-2.3-1.8 9-2.2-2.3-3.6-.7zM2.6 7.6l1.8.3-.7 1.3-1.8 1.1-1.8-1z"/><path fill="#723f01" d="m8.4 4.2 3.5-2.3-1.7 2.3zm-5.9-1q2.1.5 2.8 1l-1 3.7 3.6.7 2.2 2.3-1.7.7-6.6-1.3 1.8-1 .7-1.4-1.8-.3z"/><path fill="#582c01" d="m2.7 0-.2 3.2v4.4L0 9.4Q.7 4.6 2.7 0"/><path fill="none" stroke="#000" stroke-linecap="round" stroke-linejoin="round" stroke-opacity=".1" stroke-width="__RESOLUTION__" d="M2.7 0 6 2.1l-.7 2h3.1L11.9 2zQ.7 4.6 0 9.4l2.5-1.8 1.8.3 1-3.7m-1 3.7 3.6.7 2.2 2.3 1.8-9-1.7 2.3H8.4m-6.6 6.1 1.8-1 .7-1.4M0 9.3l1.8 1 6.7 1.3 1.6-.7" vector-effect="non-scaling-stroke"/></g><g id="g"><path fill="#723f01" fill-opacity=".9" d="m13.4 4.9-2.9-1V0zm-2.9 3.4.3 5.3H4.3l3.2-5.3z"/><path fill="#582c01" fill-opacity=".9" d="M10.5 0v3.9l2.9 1-2.6 8.7-.3-5.3 1-2-1-2.4L7 2.8 4.8 0zM5.9 6.6l1.6 1.7-3.2 5.3L0 9.4z"/><path fill="#fed8ab" fill-opacity=".9" d="M4.8 0 7 2.8 5.9 6.6 0 9.4l1.7-5.6z"/><path fill="#482700" fill-opacity=".9" d="m7 2.8 3.5 1.1 1 2.4-1 2h-3L5.9 6.6z"/><path fill="none" stroke="#000" stroke-linecap="round" stroke-linejoin="round" stroke-opacity=".5" stroke-width="__RESOLUTION__" d="M13.4 4.9 10.5 0H4.8L1.7 3.8 0 9.4l4.3 4.2h6.5z" vector-effect="non-scaling-stroke"/></g><g id="f"><path fill="#321b00" d="M5.4 4.2 5.9 2 2.8 0 12 1.9 8.5 4.2z"/><path fill="#b19777" d="M2.7 0 6 2.1l-.7 2q-.7-.4-2.8-1z"/><path fill="#2e1900" d="M5.4 4.2h4.8l1.7-2.3-1.8 9-2.2-2.3-3.6-.7zM2.6 7.6l1.8.3-.7 1.3-1.8 1.1-1.8-1z"/><path fill="#4f2c00" d="m8.4 4.2 3.5-2.3-1.7 2.3zm-5.9-1q2.1.5 2.8 1l-1 3.7 3.6.7 2.2 2.3-1.7.7-6.6-1.3 1.8-1 .7-1.4-1.8-.3z"/><path fill="#3d1e00" d="m2.7 0-.2 3.2v4.4L0 9.4Q.7 4.6 2.7 0"/><path fill="none" stroke="#000" stroke-linecap="round" stroke-linejoin="round" stroke-opacity=".1" stroke-width="__RESOLUTION__" d="M2.7 0 6 2.1l-.7 2h3.1L11.9 2zQ.7 4.6 0 9.4l2.5-1.8 1.8.3 1-3.7m-1 3.7 3.6.7 2.2 2.3 1.8-9-1.7 2.3H8.4m-6.6 6.1 1.8-1 .7-1.4M0 9.3l1.8 1 6.7 1.3 1.6-.7" vector-effect="non-scaling-stroke"/></g><g id="e"><path fill="#4f2c00" fill-opacity=".9" d="m13.4 4.9-2.9-1V0zm-2.9 3.4.3 5.3H4.3l3.2-5.3z"/><path fill="#3d1e00" fill-opacity=".9" d="M10.5 0v3.9l2.9 1-2.6 8.7-.3-5.3 1-2-1-2.4L7 2.8 4.8 0zM5.9 6.6l1.6 1.7-3.2 5.3L0 9.4z"/><path fill="#b19777" fill-opacity=".9" d="M4.8 0 7 2.8 5.9 6.6 0 9.4l1.7-5.6z"/><path fill="#321b00" fill-opacity=".9" d="m7 2.8 3.5 1.1 1 2.4-1 2h-3L5.9 6.6z"/><path fill="none" stroke="#000" stroke-linecap="round" stroke-linejoin="round" stroke-opacity=".5" stroke-width="__RESOLUTION__" d="M13.4 4.9 10.5 0H4.8L1.7 3.8 0 9.4l4.3 4.2h6.5z" vector-effect="non-scaling-stroke"/></g><g id="d"><path fill="#b68330" d="m26.5 3.6-3 .2L15.8.1l3.1-.1zM33 8.3l3-.2 7.5 3.6-3 .3z"/><path fill="#b7732f" d="m23.5 3.8 3-.2L36 8.1l-3 .2z"/><path fill="#986629" d="m15.8.1 7.7 3.7-1.3 4.5-1.2 4v.2l-7.5-3.7zm3.6 18-.4 1.6-1.8 6.1-7.1-3.8 2-7.7zm8.4 4.9.2-.6 7.2 3.7.8.4-2.4 8-6.2-3.2zm2.1-6.1L33 8.4l7.5 3.5-2.7 8.9-1-.5z"/><path fill="#9b6b33" d="M23.5 3.8 33 8.3 30 17l-9-4.4v-.2l1.2-4zm-4.6 16 .5-1.7 8.6 4.3-.2.6-2.5 7.1-8.1-4.3z"/><path fill="#925e29" d="m17.2 25.8 8.1 4.3 2.1 1.1 6.3 3.3-3.8 1.9-9.4 4.7-6.5-3 1.8 4.3.4.8 4.3-2.1-6.5-3-4.4-10-5.5-2.7 3-1.7 3-1.7zm-10-2.1 22.7 12.7z"/><path fill="#6b441f" d="m25.3 30.1 2.5-7.1-.4 8.3z"/><path fill="#aaa080" d="M28 22.5 19.4 18l-7.3-3.8q-.8-3 1.4-5.5l7.5 3.7 9 4.4 6.8 3.4q0 3-1.6 5.8zM15.4 14q.2.2.6.2t.5-.3l.3-.6-.3-.7q-.2-.3-.5-.3-.4 0-.6.3l-.2.7zm7.6 3 .2.5q.2.3.5.3t.5-.3l.2-.6-.2-.6-.5-.2-.5.2zm8.6 4.3q0 .5.2.8t.7.3q.3 0 .5-.3l.3-.8-.2-.9-.6-.3q-.4 0-.7.3-.2.4-.2.9"/><path fill="#64431c" d="m40.5 12 3-.3-2.7 9.1h-3zM36 26.6l1.2-.4 2.2-.6-2.1 7.2-3.6 1.8z"/><path fill="#4a4531" d="m15.4 13.8-.2-.6.2-.7q.2-.3.6-.3t.5.3l.3.7-.3.6q-.2.3-.5.3-.4 0-.6-.3m7.6 3 .2-.7.5-.2.5.2.2.6-.2.6q-.2.3-.5.3t-.5-.3zm8.6 4.3q0-.5.2-.9.3-.3.7-.3l.5.3.3.9-.2.8q-.3.3-.6.3-.4 0-.7-.3t-.2-.8"/><path fill="#cbc4b4" d="m36.8 20.3 1 .4v.1h1.1q-2 2.6-1.7 5.3l-1.2.4-.8-.4q1.5-2.8 1.6-5.8"/><path fill="#71684a" d="M37.2 26.2q-.3-2.7 1.7-5.4h2q.4 2.6-1.5 4.7z"/><path fill="#52381b" d="M37.3 32.7v4L18 46.5l-1.9-3.2 4.3-2.1 9.4-4.7 3.8-1.9z"/><path fill="none" stroke="#593613" stroke-linecap="round" stroke-linejoin="round" stroke-width="__RESOLUTION__" d="m23.5 3.8 3-.2M33 8.3l3-.2M19 19.8l-1.8 6 8.1 4.3 2.5-7.1.2-.6M10.1 22l7.1 3.8M21 12.3v.2m9 4.4 3-8.5m-9.5-4.6-1.3 4.5m11.5 26.2 3.5-1.8m-16.7 8.4-6.5-3m11.3-8 2.1 1.1.4-8.2m2.1 13.4L7.2 23.7m20.3 7.6 6.1 3.2" vector-effect="non-scaling-stroke"/><path fill="none" stroke="#2c170a" stroke-linecap="round" stroke-linejoin="round" stroke-width="__RESOLUTION__" d="M26.5 3.6 18.9 0l-3.1.1-2.3 8.7M36 8.1l-9.5-4.5M12.1 14.3l-2 7.7-3 1.7-3 1.8m39.4-13.8L36 8.1m7.5 3.6-2.7 9.1q.5 2.6-1.4 4.7l-2.1 7.2v4L18 46.5" vector-effect="non-scaling-stroke"/><path fill="none" stroke="#615636" stroke-linecap="round" stroke-linejoin="round" stroke-width="__RESOLUTION__" d="M28 22.5 19.4 18l-7.3-3.8q-.8-3 1.4-5.5l7.5 3.7 9 4.4 6.8 3.4 1 .4M35.2 26l.8.4 1.2-.4 2.2-.6m-.5-4.7h-1.1m3 0H39M35.3 26 28 22.4" vector-effect="non-scaling-stroke"/><path fill="#cbc4b4" d="M2.4 26.6q0 .5-.4.8-.3.4-.8.4t-.9-.4l-.3-.8v-.4q0-.6.4-.9t.9-.4.8.4q.3.3.3.8zq0-.5-.4-.7-.3-.4-.8-.4t-.9.4l-.3.4.3-.4q.4-.4.9-.4t.8.4q.3.2.4.7"/><path fill="none" stroke="#000" stroke-linecap="round" stroke-linejoin="round" stroke-opacity=".6" stroke-width="__RESOLUTION__" d="M2.4 26.6q0 .5-.4.8-.3.4-.8.4t-.9-.4l-.3-.8v-.4h0q0-.6.4-.9t.9-.4.8.4q.3.3.3.8zq0-.5-.4-.7-.3-.4-.8-.4t-.9.4l-.3.4" vector-effect="non-scaling-stroke"/></g><g id="c"><path fill="#462f13" d="m12.4 2.1.4.2q1.6 1 1.6 3.5t-1.6 5-3.7 3.6l-3.8.2-.2-.2q-.7-.5-1-1.3t-.4-1.9q0-1.7.8-3.5l.8-1.5q1.6-2.6 3.8-3.7l.3-.2 1-.2.8-.2z"/><path fill="#634118" d="m12.4 2.1-1.2-.2-.8.1-1 .3H7.1q-2.4.5-3.7 3.2l1.1 2.2q-.8 1.7-.8 3.5 0 1.1.4 1.9.3.8 1 1.3l-2.8-1.3-1-.5Q0 11.6 0 9.4q0-2.6 1.5-5.1Q3.2 1.8 5.4.7q2-1.1 3.4-.4z"/><path fill="#986629" d="m9.4 2.3-.3.2Q6.9 3.7 5.3 6.2l-.8 1.5-1.1-2.2q1.3-2.7 3.7-3.2z"/><path fill="#ffca52" fill-opacity=".1" d="m2.3 13-.7-.2-.2-.2z"/><path fill="none" stroke="#2c170a" stroke-linecap="round" stroke-linejoin="round" stroke-width="__RESOLUTION__" d="m5 14.5.3.1 3.8-.2q2.2-1 3.7-3.6 1.6-2.6 1.6-5 0-2.5-1.6-3.4l-.4-.2V2L8.8.3Q7.3-.4 5.3.7q-2.2 1-3.7 3.6Q0 6.9 0 9.3q0 2.3 1.4 3.3l.1.2.8.3z" vector-effect="non-scaling-stroke"/><path fill="#634118" d="M8.4 10.5q.6-1 1.8-.4.6.3.3.8l-.5 2.5q-1.3.8-2-.4l.3-2.2z"/><path fill="none" stroke="#2c170a" stroke-linecap="round" stroke-linejoin="round" stroke-width="__RESOLUTION__" d="m8.4 10.5-.1.3-.4 2.2q.8 1.2 2.1.4l.5-2.5q.3-.5-.3-.8-1.2-.5-1.8.4" vector-effect="non-scaling-stroke"/><path fill="#462f13" d="m9.2 9.2.3-.5q.5-1 1.3-1.2l.1-.2h.3l.4-.1.3.1h.3q.5.4.5 1.3l-.5 1.8-1.4 1.3H9.4v-.1l-.4-.4-.1-.7q0-.7.3-1.3"/><path fill="#986629" d="M10.9 7.4q-.8.3-1.4 1.3l-.2.5-.4-.8q.4-.9 1.3-1.1z"/><path fill="#634118" d="M9.2 9.2q-.3.7-.3 1.3l.1.7.3.4-1-.5-.2-.1q-.5-.4-.5-1.2 0-.9.5-1.8l1.3-1.3h1.3l1.3.6-.4-.1h-.3l-.4.1h-.8q-.8.2-1.3 1.1z"/><path fill="#ffca52" fill-opacity=".1" d="m8.1 11 .3.1z"/><path fill="none" stroke="#2c170a" stroke-linecap="round" stroke-linejoin="round" stroke-width="__RESOLUTION__" d="M9.4 11.6h1.4l1.3-1.3.6-1.8q0-.9-.5-1.2l-.2-.1h0l-1.3-.6H9.5L8 8q-.5.9-.5 1.8t.5 1.1v.1l.3.1z" vector-effect="non-scaling-stroke"/><path fill="#986629" d="M11.8 4.9q0 1.3-.4 2.1t-1 .5l.2-2.2z"/><path fill="#634118" d="M10.4 7.6 9.2 7l.4-2.3 1 .6z"/><path fill="#462f13" d="M9.6 4.7q0-.4.3-.5l1-.2q1 .2.9.9l-1.2.4z"/><path fill="none" stroke="#2c170a" stroke-linecap="round" stroke-linejoin="round" stroke-width="__RESOLUTION__" d="M11.8 4.9q0 1.3-.4 2.1t-1 .5L9.2 7l.4-2.3q0-.4.3-.5l1-.2q1 .2.9.9" vector-effect="non-scaling-stroke"/></g><clipPath id="a"><path d="M1 1h63v62H1z"/></clipPath><path id="b" fill="#2b1a00" fill-opacity=".4" d="M3.2 13.9h-4.9Q-16 12.4-19.5 4.7V1.3L3.6-9.8q23.8 4.6 20.2 13v.5z" transform="translate(19.55 9.8)"/></defs><g clip-path="url(#a)"><g transform="translate(36.4 47.55)"><use xlink:href="#b" width="43.9" height="23.7" transform="translate(-22.2 -8.9)"/><use xlink:href="#c" width="14.4" height="15.1" transform="matrix(.9 0 0 .9 7.05 -8.75)"/><use xlink:href="#c" width="14.4" height="15.1" transform="matrix(.9 0 0 .9 -8.5 -15.65)"/><use xlink:href="#c" width="14.4" height="15.1" transform="matrix(.9 0 0 .9 -21.9 -7.75)"/><use xlink:href="#c" width="14.4" height="15.1" transform="matrix(.9 0 0 .9 -7.6 -1.35)"/><use xlink:href="#d" width="43.5" height="46.4" transform="translate(-16.7 -46.55)"/><use xlink:href="#e" width="13.4" height="13.6" transform="translate(4.35 -31.25)"/><use xlink:href="#f" width="11.9" height="11.6" transform="translate(3.2 -21.9)"/><use xlink:href="#e" width="13.4" height="13.6" transform="translate(-.45 -27.35)"/><use xlink:href="#e" width="13.4" height="13.6" transform="translate(-10.45 -19)"/><use xlink:href="#f" width="11.9" height="11.6" transform="translate(-1.6 -18)"/><use xlink:href="#g" width="13.4" height="13.6" transform="translate(-8.45 -44.35)scale(.7164)"/><use xlink:href="#h" width="11.9" height="11.6" transform="matrix(.5699 -.4823 .7085 .8454 -15.7 -37.85)"/><use xlink:href="#e" width="13.4" height="13.6" transform="translate(-11.65 -28.45)"/><use xlink:href="#g" width="13.4" height="13.6" transform="rotate(-38.621 -58.192 13.815)scale(.7898)"/><use xlink:href="#h" width="11.9" height="11.6" transform="matrix(.159 -.8076 1.1921 .2407 -23.1 -22.7)"/><use xlink:href="#h" width="11.9" height="11.6" transform="matrix(.159 -.8076 1.1921 .2407 -8.45 -26.1)"/><use xlink:href="#g" width="13.4" height="13.6" transform="translate(-13.5 -36.65)scale(.7794)"/><use xlink:href="#h" width="11.9" height="11.6" transform="matrix(.159 -.8076 1.1921 .2407 -2.75 -32.75)"/><use xlink:href="#e" width="13.4" height="13.6" transform="matrix(.6075 -.3507 .3508 .6075 2.75 -30.3)"/><use xlink:href="#e" width="13.4" height="13.6" transform="rotate(14.998 99.254 23.065)scale(.4869)"/><use xlink:href="#f" width="11.9" height="11.6" transform="translate(8 -19.1)scale(.6639)"/><use xlink:href="#h" width="11.9" height="11.6" transform="translate(-15.7 -27.6)scale(.6639)"/><use xlink:href="#h" width="11.9" height="11.6" transform="rotate(14.997 112.216 -92.833)scale(.664)"/><use xlink:href="#g" width="13.4" height="13.6" transform="rotate(59.996 34.243 -18.094)scale(.5621)"/><use xlink:href="#i" width="13.4" height="13.6" transform="rotate(15.003 117.435 -24.928)scale(.7015)"/><use xlink:href="#g" width="13.4" height="13.6" transform="rotate(15 172.284 -32.534)scale(.5622)"/><use xlink:href="#g" width="13.4" height="13.6" transform="rotate(-23.621 -72.733 36.327)scale(.7899)"/><use xlink:href="#j" width="13.4" height="13.6" transform="rotate(14.997 97.386 -60.158)scale(.7794)"/><use xlink:href="#g" width="13.4" height="13.6" transform="rotate(59.996 17.86 -34.271)scale(.5621)"/><use xlink:href="#e" width="13.4" height="13.6" transform="rotate(14.998 150.442 17.1)scale(.4869)"/><use xlink:href="#k" width="30.4" height="16.5" transform="translate(-29 -13.75)"/><use xlink:href="#l" width="38.7" height="32.6" transform="matrix(.9 0 0 .9 -35.4 -30.75)"/><use xlink:href="#m" width="24.8" height="33.5" transform="translate(-35.1 -29.35)"/></g></g></svg>