<svg xmlns="http://www.w3.org/2000/svg" xmlns:xlink="http://www.w3.org/1999/xlink" width="56" height="144" viewBox="0 0 56 144"><defs><clipPath id="a"><path d="M1 1h54v142H1z"/></clipPath><g id="b"><path fill="#a27733" d="m43.6 23.7 5.6-3.2 4.2 1.5-5.5 3.3z"/><path fill="#89662c" d="M53.4 22 35.8 92.4v46.4l-5.2 2.7V96.3l17.3-71z"/><path fill="#61471f" d="m30.6 141.5-4.7-2.7V93.6l4.7 2.7z"/><path fill="#000" d="M26 138.8H0V10.7L38.8 0l4.7 23.7L26 93.6z"/><path fill="#926b2e" d="m43.6 23.7 4.3 1.6-17.3 71-4.7-2.7 17.6-70"/><path fill="none" stroke="#000" stroke-linecap="round" stroke-linejoin="round" stroke-width="1" d="m43.6 23.7 5.6-3.2 4.2 1.5-17.6 70.4v46.4m-5.2 2.7-4.7-2.7V93.6l4.7 2.7m-4.7-2.7 17.6-70"/><path fill="none" stroke="#714320" stroke-linecap="round" stroke-linejoin="round" stroke-width="1" d="m35.8 138.8-5.2 2.7V96.3"/><path fill="none" stroke="#5f3e2c" stroke-linecap="round" stroke-linejoin="round" stroke-width="1" d="m43.5 23.7 4.4 1.6 5.5-3.3M30.5 96.3l17.4-71"/></g></defs><g clip-path="url(#a)"><use xlink:href="#b" width="53.9" height="142" transform="translate(1 1)"/></g></svg>