<svg xmlns="http://www.w3.org/2000/svg" xmlns:xlink="http://www.w3.org/1999/xlink" width="69" height="115" viewBox="0 0 69 115"><defs><radialGradient id="n" cx="0" cy="0" r="819.2" gradientTransform="matrix(-.01 0 0 .01 9.5 -36.2)" gradientUnits="userSpaceOnUse" spreadMethod="pad"><stop offset="0" stop-color="#fff"/><stop offset="1" stop-color="#f90" stop-opacity="0"/></radialGradient><radialGradient id="m" cx="0" cy="0" r="819.2" gradientTransform="matrix(0 0 0 0 -2.8 -45.4)" gradientUnits="userSpaceOnUse" spreadMethod="pad"><stop offset="0" stop-color="#fff"/><stop offset="1" stop-color="#f90" stop-opacity="0"/></radialGradient><radialGradient id="l" cx="0" cy="0" r="819.2" gradientTransform="matrix(0 0 0 0 -28.85 -60.3)" gradientUnits="userSpaceOnUse" spreadMethod="pad"><stop offset="0" stop-color="#fff"/><stop offset="1" stop-color="#f90" stop-opacity="0"/></radialGradient><radialGradient id="k" cx="0" cy="0" r="819.2" gradientTransform="matrix(-.02 0 0 .02 -22.8 -50.6)" gradientUnits="userSpaceOnUse" spreadMethod="pad"><stop offset="0" stop-color="#fff"/><stop offset="1" stop-color="#f90" stop-opacity="0"/></radialGradient><radialGradient id="j" cx="0" cy="0" r="819.2" gradientTransform="matrix(0 0 0 0 -29.2 -50.75)" gradientUnits="userSpaceOnUse" spreadMethod="pad"><stop offset="0" stop-color="#fff"/><stop offset="1" stop-color="#f90" stop-opacity="0"/></radialGradient><radialGradient id="i" cx="0" cy="0" r="819.2" gradientTransform="matrix(0 0 0 0 -27.1 -42)" gradientUnits="userSpaceOnUse" spreadMethod="pad"><stop offset="0" stop-color="#fff"/><stop offset="1" stop-color="#f90" stop-opacity="0"/></radialGradient><radialGradient id="h" cx="0" cy="0" r="819.2" gradientTransform="matrix(0 0 0 0 -35.75 -65.85)" gradientUnits="userSpaceOnUse" spreadMethod="pad"><stop offset="0" stop-color="#fff"/><stop offset="1" stop-color="#f90" stop-opacity="0"/></radialGradient><radialGradient id="g" cx="0" cy="0" r="819.2" gradientTransform="matrix(-.01 0 0 .01 -22.55 -50.95)" gradientUnits="userSpaceOnUse" spreadMethod="pad"><stop offset="0" stop-color="#fff"/><stop offset="1" stop-color="#f90" stop-opacity="0"/></radialGradient><radialGradient id="f" cx="0" cy="0" r="819.2" gradientTransform="matrix(0 0 0 .01 1 -81.85)" gradientUnits="userSpaceOnUse" spreadMethod="pad"><stop offset="0" stop-color="#fff"/><stop offset="1" stop-color="#f90" stop-opacity="0"/></radialGradient><radialGradient id="e" cx="0" cy="0" r="819.2" gradientTransform="matrix(.01 0 .01 .02 2.95 -61.3)" gradientUnits="userSpaceOnUse" spreadMethod="pad"><stop offset="0" stop-color="#fff"/><stop offset="1" stop-color="#f90" stop-opacity="0"/></radialGradient><radialGradient id="d" cx="0" cy="0" r="819.2" gradientTransform="matrix(0 0 0 0 5.2 -70.9)" gradientUnits="userSpaceOnUse" spreadMethod="pad"><stop offset="0" stop-color="#fff"/><stop offset="1" stop-color="#f90" stop-opacity="0"/></radialGradient><radialGradient id="c" cx="0" cy="0" r="819.2" gradientTransform="matrix(0 0 0 0 8.05 -60.55)" gradientUnits="userSpaceOnUse" spreadMethod="pad"><stop offset="0" stop-color="#fff"/><stop offset="1" stop-color="#f90" stop-opacity="0"/></radialGradient><radialGradient id="b" cx="0" cy="0" r="819.2" gradientTransform="matrix(0 0 0 0 1.6 -88.8)" gradientUnits="userSpaceOnUse" spreadMethod="pad"><stop offset="0" stop-color="#fff"/><stop offset="1" stop-color="#f90" stop-opacity="0"/></radialGradient><radialGradient id="a" cx="0" cy="0" r="819.2" gradientTransform="matrix(0 0 0 .01 2.3 -70.55)" gradientUnits="userSpaceOnUse" spreadMethod="pad"><stop offset="0" stop-color="#fff"/><stop offset="1" stop-color="#f90" stop-opacity="0"/></radialGradient><clipPath id="o"><path d="M1 1h67v113H1z"/></clipPath><g id="p"><path fill="#c5b789" d="M49.6 79.6h1.2q6.6 0 11.3 2.4 2.7 1.3 3.9 3.1l-.9.2 1.2.5q.4.8.5 1.8v.6l-13.2-2.9-2.4 1.6-.5.3 14.8 3.9-2.3 1.8-.5.3-.6.3-1.4.6-12.1-5.5-1.9 1.2 8.6 5.8-2.5.2-2 .1H50l-6.4-.9-1.5-.4-1-.3-1.6-.8-.8-.5q-2-1.1-3-2.5-.7-1.1-.9-2.4v-.7l.1-.2q.3-2.7 3.7-4.7l1.4.8-.5-1.3.7-.4 2.6-.9.8-.2.3-.1q.3 1.3 1.6 1.8l.3.1 1 .2h.1l2.6-.1q1-.2.1-2.8m-2 5.2-1.9-2.5zm-5 23.5-1-.5-.4-.2.3-.5-.1-1-1.3.2-1-1.9-1.5.1v-.7l.9-1.2-.2-1.6-.7-.4v-1.5l.4.2-.4-.8v-.6l1.2.8 1.8 2.2q1.6 4.1 3.9 7l-1.8-.3zm4.6-22.7q-1.8-2.5-4.4-4.9 2.6 2.4 4.5 5M34.9 88v-.7zm5.5 16.5.2.5.5-.1-.1-.6zm4.2-19q-2-2-4.4-4 2.5 2 4.4 4"/><path fill="#d0bdb2" d="M49.6 79.6q.9 2.6-.1 2.8l-2.6.1-.7-2.6-.2-1 3.6.5z"/><path fill="#b79a88" d="m46.9 82.5-1-.2-.3-.1q-1.4-.5-1.6-1.8v-3.2l2 1.7.3 1z"/><path fill="#b19a65" d="M66.8 88.2v-.3 5.4q0 2.3-2.2 4.1-.6.6-1.5 1.1v-5.2h-.4l.5-.4 2.3-1.8.3-.6q.8-1.1 1-2.3m-29.2 9.7q-2.7-2-2.7-4.6v-.1l.9-.2-.1-.1-.9-.5v-4.3q.2 1.3 1 2.4.9 1.4 2.9 2.5l.8.5 1.6.8v5.5l-1.6-.7-.7-.4z"/><path fill="#4e4425" d="M64.6 97.4v3.5l-2.5-1.2-1.2 1.7-1.3-1 .1-.4.5-.1L62 99l1-.5zm0 4.4v1.8l-.4.6.2.1.1.5.1.2v.7l-.6.3-.7.3-1.4.8.3-1.8 1.1-1zm-3.6 5.7-.6.3-.4.2-.8.5-.4.1-.2.1-1.8.9-1.6.8-1.2.6-.4.3-.5-1.9 3.5-2.6.9.6 1.3-1.6-.3-.7.8-.8z"/><path fill="#7b6540" d="M64.6 101v.9l-1.3 2.5-1.1 1-.4 1.8-.1.1-.4.1-.3.2-1.7-3.2-.8.8.3.7-1.3 1.6-.9-.6-3.5 2.6.5 1.8-.4.3-1.3.6-.8.3h-.2v-7.9l.2.1v-3.3h1.6l2.6-.3 3.9-.8.5-.2-.1.3 1.3 1 1.2-1.7zm-9.6 2.7 1.3.1v-1.2l-1.1.4z"/><path fill="#a28e51" d="m50.9 112.5-1.9-1 .3-.2-.1-1.2-2.6-2.8-1.7.7-.4-.1q-2.3-2.9-4-7 4.6 3.7 10.4 3.7zm15.9-24.3q-.2 1.2-1 2.3l-.3.6-14.7-3.9.5-.3 2.3-1.6zm-6.1 6-.5.2-1 .3-3.9.8-8.6-5.7 1.9-1.2zM48.9 109l1.1.1-.3-1.3-1.1.2z"/><path fill="#776d37" d="m49 111.6-.2-.2-.3-.2-1.2-.6-.7-.3-1.2-.6h-.1l-.8-1.8.4.1 1.7-.7 2.6 2.8.1 1.2zm-.1-2.6-.3-1 1.1-.2.3 1.3z"/><path fill="#887d40" d="m45.3 109.7-1.1-.6-1.5-.7-.1-.1v-.7l1.9.3zm-4.1-2-1-.5-1.2-.6-1.4-.7v-1.2l1.6-.2.9 1.9 1.3-.2.1 1zm-3.6-3.8v-3.2l.7.4.2 1.6zm2.8.8.6-.2.1.6-.5.1z"/><path fill="#918660" d="m35.7 78.6-.5.1q-3.5-1.8-6.7-2.7-2.1-1.4-1.2-1.7.9-.2 4.2.8l.4.2 1.4 1.2 2.8 2zm-1.1-5.4 2.8.9.3.3 1 1.2q1.4 1.3 2.4 2h-.6l-.5.1-1.2-.7q-2.5-1.4-5.1-2.3-1.7-1.4-.7-1.5zH33q-1 .1.7 1.5 2.6 1 5.1 2.3l-.5.1-.6.1Q34 75 30.5 73.9q-2.1-1.7-1.1-2 1.1-.3 4.8 1zm-3.8-.1.4.2h.6l.2-.2-.1-.2-.1-.1-.6-.3h-.6l-.2.1.2.4zm4.4 1v-.2l-.5-.2H34l-.2.1.2.2.2.1.3.2.6.1.3-.2zm-6.9 1 .2.3h.2l.4.2h.4l.3-.2-.1-.1-.2-.2-.5-.2z"/><path fill="#99824d" d="M62.7 93.3h.4v5.2l-1 .5-2 .9-.4.1-.5.3v-5.6l1-.3.5-.3 1.4-.6zm-7.4 2.3v5.5l-2.5.3H50v-5.6l.8.1 2-.1z"/><path fill="#857143" d="M59.2 94.7v5.5l-3.9.9v-5.5z"/><path fill="#a28951" d="M50 95.9v5.5l-6.4-.9-1.5-.4-1-.3v-5.5l1 .3 1.5.4z"/><path fill="#8d7847" d="M50 101.4h1v3.3l-.2-.1q-5.8 0-10.4-3.7l-1.7-2.2.8.3 1.5.8 1 .3 1.5.5z"/><path fill="#282413" d="m55 103.7.2-.8 1-.4v1.2z"/><path fill="#bab196" d="m30.8 73-.2-.1-.2-.4.2-.1h.6l.6.3.1.1.1.3-.2.2-.6-.1zm4.4 1 .1.1-.2.2-.6-.1-.3-.2H34l-.2-.3.3-.2.6.1.5.3m-6.8 1h.6l.5.1.2.2v.1l-.1.3-.6-.1-.3-.2h-.2l-.2-.3z"/><path fill="#a27d66" d="m46.8 72.4 1.5.6.8.2q-1 1.5-.4 4l.5 1.4.4.8L46 79l-2.1-1.8-.4-3.6q-.5-3.4.6-5l1 2.5zl-1.6.3 1.5-.3z"/><path fill="none" stroke="#615530" stroke-linecap="round" stroke-linejoin="round" stroke-opacity=".8" stroke-width="__RESOLUTION__" d="M66.8 87.9v-.2h0q-.1-1-.5-1.9l-1.2-.5.9-.2q-1.2-1.7-4-3.1-4.7-2.4-11.3-2.4h-1.2M66.8 88v5.4q0 2.3-2.2 4.1v6.3l-.4.6h0l.2.1h0l.1.5.1.2v.7l-.6.3m-.7.3-1.4.8-.2.1m-.4.1-.3.2-.6.3m-.4.2-.8.5m-.4.1-.2.1m-1.8.9-1.6.8m-1.2.6-.4.3-.4.1m-1.3.7-.8.3h-.2l-1.9-1-.2-.1m-.3-.2-1.2-.6m-.7-.3-1.2-.6m-1.2-.6-1.5-.7m-1-.6-.5-.2-1-.5m-1.2-.6-1.4-.7v-2m0-3.2v-1.5l.4.2-.4-.8V98q-2.7-2-2.7-4.6v-.1l.9-.2-.1-.1-.9-.5v-5l.1-.2q.3-2.7 3.7-4.7l1.4.8-.5-1.3.7-.4 2.6-.9.8-.2.3-.1m19.2 18.1 1.5-1m-5.4 2.8.5-.2.5-.2 1.8-1 1-.5m-13 2.9h2.7l2.6-.3 3.9-.8M41 99.8l1 .3 1.5.5 6.4.8m-15.1-14v.7m3.9 10.6.8.3 1.5.8m-2.3-1.1-1.2-.8" vector-effect="non-scaling-stroke"/><path fill="none" stroke="#867a57" stroke-linecap="round" stroke-linejoin="round" stroke-width="__RESOLUTION__" d="M49.6 79.6q.9 2.6-.1 2.8l-2.6.1h-.1l-1-.2-.3-.1q-1.4-.5-1.6-1.8h0v-3.2l-.4-3.7q-.5-3.4.6-5m-8.4 10-.5.2q-3.5-1.8-6.7-2.7-2.1-1.4-1.2-1.7.9-.2 4.2.8l.4.2 1.4 1.2 2.8 2zm3.1-1.6 1.2.7h1.1q-1-.7-2.4-2.1l-1-1.2-.4-.3-2.7-.9H33q-1 .1.7 1.5 2.6 1 5.1 2.3l-.5.1-.6.1Q34 75 30.5 73.9q-2.1-1.7-1.1-2 1.1-.3 4.8 1l.3.3h.1m15 6.3-.4-.8-.5-1.5q-.6-2.3.4-3.9m.5 6.4v-.2" vector-effect="non-scaling-stroke"/><path fill="none" stroke="#746330" stroke-linecap="round" stroke-linejoin="round" stroke-width="1" d="m45.8 82.3 1.8 2.5m-7.4-3.2-4.5-3m2.5-1.6 4.6 3.7q2.6 2.4 4.5 5m-3.4-5.4q-1.5-1.4-3.4-2.7m-.3 4q2.5 2 4.4 4"/><path fill="none" stroke="#f09b0f" stroke-linecap="round" stroke-linejoin="round" stroke-width="__RESOLUTION__" d="M46.8 72.4h-.1l-1.6.3" vector-effect="non-scaling-stroke"/><path fill="#8e7451" d="M51.5 86.7q-1.1-.4-1-3.4l.8-3.1 3-.1q.7 1.3.2 2.5-1 1-2.6.3-.4.8-.4 3.8m3-4q.5-1.3-.2-2.6 1.8-1.7 2.9 0 .9.9.3 2.3l-.6.3z"/><path fill="#cdbda7" d="M51.5 86.7q0-3 .4-3.9 1.6.8 2.6-.2l2.4.1q-2.4 1.4-3.2 3.5z"/><path fill="none" stroke="#854a05" stroke-linecap="round" stroke-linejoin="round" stroke-width="__RESOLUTION__" d="M54.3 80.1h-3v.1l-.8 3.1q-.1 3 1 3.4l2.2-.5q.8-2 3.2-3.5l.6-.3q.6-1.4-.3-2.3-1.1-1.7-3 0 .8 1.3.3 2.5" vector-effect="non-scaling-stroke"/><path fill="#c5b08f" d="M52.8 79.3h.5q.5.1.8.8.3.3.1 1.6 0 1.4-.5 1.9l-.6.5q.9-2.3-.4-4.8"/><path fill="#7d6942" d="M52.8 79.3q1.2 2.5.3 4.8-.4 0-.7-.9-.3-1.6-.7-1.7-.5-.1-.3-.8t.8-1.2z"/><path fill="none" stroke="#4d3f28" stroke-linecap="round" stroke-linejoin="round" stroke-width="__RESOLUTION__" d="m53.1 84.1.6-.5q.4-.5.5-1.9t-.1-1.7q-.3-.6-.9-.7h-.5l-.6.3q-.5.3-.7 1.1-.2.7.3.8t.7 1.7q.3.9.7.9" vector-effect="non-scaling-stroke"/><path fill="#c5b08f" d="M56.4 79.8h.5l1 .8.3 1.5q.2 1.2-.1 1.7l-.6.5q.5-2.2-1.1-4.5"/><path fill="#7d6942" d="M56.4 79.8q1.6 2.3 1.1 4.5-.4 0-.8-.9-.6-1.4-1-1.5t-.4-.8.5-1z"/><path fill="none" stroke="#4d3f28" stroke-linecap="round" stroke-linejoin="round" stroke-width="__RESOLUTION__" d="m57.5 84.3.6-.5q.3-.5.1-1.7l-.4-1.5-1-.8h-.4l-.6.3q-.4.3-.5 1t.4.8 1 1.5q.4.8.8.8" vector-effect="non-scaling-stroke"/><path fill="#7d6942" d="m51.9 88.2-.4-.4-.2-1q0-.5.4-.4t1-.6l.7-.2q0 1.7-1.5 2.6"/><path fill="#c5b08f" d="m53.4 85.6.4.6-.2 1.2-.6 1h-.9l-.2-.2q1.5-.9 1.5-2.6"/><path fill="none" stroke="#4d3f28" stroke-linecap="round" stroke-linejoin="round" stroke-width="__RESOLUTION__" d="m51.9 88.2-.4-.4-.2-1q0-.5.4-.4t1-.6l.7-.2.4.6-.2 1.2-.6 1h-.9z" vector-effect="non-scaling-stroke"/><path fill="#8e7451" d="m51.7 51.5 1.4.5.5 7.3-1-.6z"/><path fill="#cabe9b" d="m53.1 52 7.2 2.6-3.6 5-3.1-.3z"/><path fill="none" stroke="#b1a06d" stroke-linecap="round" stroke-linejoin="round" stroke-width="__RESOLUTION__" d="m60.3 54.6-3.6 5-3.1-.3-1-.6-.9-7.2" vector-effect="non-scaling-stroke"/><path fill="#cabe9b" d="m60 59.2-2.2-1.4-2.1-2.5h1.8l2.2 1.3 2.5 2.8zm-2-2.4 4.2 2.6z"/><path fill="none" stroke="#b1a06d" stroke-linecap="round" stroke-linejoin="round" stroke-width="__RESOLUTION__" d="m60 59.2 2.2.2-4.2-2.6m4.2 2.6-2.5-2.9-2.2-1.3" vector-effect="non-scaling-stroke"/><path fill="#cabe9b" d="m54 56.6 1.6.2 2 1.8 2.6 3.3-2-.6-2-1.8z"/><path fill="none" stroke="#b1a06d" stroke-linecap="round" stroke-linejoin="round" stroke-width="__RESOLUTION__" d="m54 56.6 2.1 2.9 2.1 1.8 2 .6-2.6-3.3-2-1.8" vector-effect="non-scaling-stroke"/><path fill="#918660" d="m52.4 52.9-.5.4-3-21.9.9 1.9 2.7 19.5z"/><path fill="none" stroke="#6b6347" stroke-linecap="round" stroke-linejoin="round" stroke-width="__RESOLUTION__" d="m52.4 52.9-.5.4-3-21.9.9 1.9L57.5 48l-5 4.7" vector-effect="non-scaling-stroke"/><path fill="#918660" d="m54.4 32.1-.3-.9h.5zl.3-1v1.6zm-1.6-.6.1.3.7 3.7-.5 1.7z"/><path fill="#58523a" d="M52.7 31.3v.2l.4 5.7.5-1.7.2 1.6.9-3.9.1 6.5-1 3.8-1.9-1-.2-7.6zm.1 6.8.3-.9z"/><path fill="none" stroke="#6b6347" stroke-linecap="round" stroke-linejoin="round" stroke-width="__RESOLUTION__" d="m54.4 32.1.3-.9H54m.6 1.6v-1.6" vector-effect="non-scaling-stroke"/><path fill="none" stroke="#4e4834" stroke-linecap="round" stroke-linejoin="round" stroke-width="__RESOLUTION__" d="M52.8 31.4v.1l.3 5.7.5-1.7m1.1-2.2.1 6.5-1 3.7-1.9-1m-.2-7.6 1-3.6m.4 5.9-.3 1" vector-effect="non-scaling-stroke"/><path fill="#fdf0db" d="m54 12.6-.4-2q.5-.5.3-3.3T52.5 0l2.1 6.8q1.4 5.4-.2 5l-.1 2-.2-.8zl.1.4q-1.1 5.7-1 10.4 0 4.4 1 7.8l.3 1 .3.6v.3l-.9 4-.9-5.4-.1-.3-.1-.1q-3.2-5.6-1.6-12Q52 16 54 12.6"/><path fill="none" stroke="#867a57" stroke-linecap="round" stroke-linejoin="round" stroke-width="__RESOLUTION__" d="m54.1 13 .2.8.1-2q1.6.4.2-5L52.5 0q1.1 4.6 1.4 7.3t-.3 3.3l.4 2zq-1.1 5.7-1 10.4 0 4.4 1 7.8l.3 1 .3.6v.3l-.9 4-.9-5.4-.1-.3-.1-.1q-3.2-5.6-1.6-12Q52 16 54 12.6" vector-effect="non-scaling-stroke"/><path fill="#c1baa2" d="m55.7 45.6.4-.2 2.8-1.1-2.7 1.1zm-.6-3.7 1.7-.7 2.1 3.2-1.2 5.3-1.7.5-2-3.5zm1.3 3.7.5-4.3z"/><path fill="none" stroke="#a69c79" stroke-linecap="round" stroke-linejoin="round" stroke-width="__RESOLUTION__" d="m58.9 44.3-2.7 1.1-.6.1m-.6-3.7 1.7-.7 2.1 3.2-1.2 5.3-1.7.5-2-3.5-1 .3m3.8-5.8-.6 4.3" vector-effect="non-scaling-stroke"/><path fill="#918660" d="m50.4 40.6-1.3-6.7-.5-5.6.5-4.3 1.5 7.5.4 5.8zm-.5-6.2-.1-1.5-.7-8.9.7 9zm0-1.5-1.2-4.6z"/><path fill="none" stroke="#6b6347" stroke-linecap="round" stroke-linejoin="round" stroke-width="__RESOLUTION__" d="m49 34-.4-5.7.5-4.3 1.5 7.5.4 5.8-.6 3.3M49.1 24l.7 9v1.4m-1.2-6.1 1.2 4.6" vector-effect="non-scaling-stroke"/><path fill="#d8b78b" d="m61.3 31.8.5-3v3.3q0 2.3-1 1.5l-.4.5v-.4q-1.8 1.3-2.6 2.8t-.8 3v.5l.1.3v.1l-1.4.8.4-2.2v-.2H56q-1-3.4 1.3-4.6 1.2-.6 3.1-.6v-.9q.6.2.9-.9m-.9 1.8"/><path fill="none" stroke="#867a57" stroke-linecap="round" stroke-linejoin="round" stroke-width="__RESOLUTION__" d="m61.3 31.8.5-3v3.3q0 2.3-1 1.5l-.4.5v-.4q-1.8 1.3-2.6 2.8t-.8 3v.5l.1.3v.1l-1.4.8.4-2.2v-.2H56q-1-3.4 1.3-4.6 1.2-.6 3.1-.6v-.9q.6.2.9-.9m-.9 2v-.2" vector-effect="non-scaling-stroke"/><path fill="#857647" d="M62.8 48.5q-1.8-.9-2.8-1t-1.4.5l-.1.1v.2h-.1l-1.3-.7.9-.4v-.1q0-2 2.2-.7zl.3-.3q.4.4 1 .3l1.1-.6-.8 1.1q-.7.7-1.2-.2l-.5-.2z"/><path fill="none" stroke="#5f5432" stroke-linecap="round" stroke-linejoin="round" stroke-width="__RESOLUTION__" d="m62.8 48.4-2.6-2q-2.2-1.3-2.2.7h0v.1l-1 .4 1.4.7h0l.1-.2.1-.1q.4-.6 1.4-.5t2.8 1zl.3-.3q.4.4 1 .3l1.1-.6-.8 1.1q-.7.7-1.2-.2l-.5-.2z" vector-effect="non-scaling-stroke"/><path fill="#857647" d="m53.5 49.7 1.6-.5 2.1 2.3 2.3 4.5-1.9.3-2-2.4z"/><path fill="none" stroke="#b1a06d" stroke-linecap="round" stroke-linejoin="round" stroke-width="__RESOLUTION__" d="m57.3 51.6 2.3 4.4-2 .3-2-2.4-2.1-4.2" vector-effect="non-scaling-stroke"/><path fill="url(#a)" d="M4.9-72.3q.9 3.1.8 6-.1 2.8-1.2 3.5t-2.4-1q-1.4-1.7-2.3-5-1-3.2-.8-6 0-2.8 1.1-3.5 1-.8 2.4 1 1.5 1.8 2.3 5" transform="translate(50.85 107.35)"/><path fill="url(#b)" d="M.5-90.2q0-1 .4-1.3.3-.2.8.4l.8 1.7q.3 1.1.3 2.1t-.4 1.2-.9-.4q-.4-.5-.8-1.7-.3-1-.2-2" transform="translate(50.85 107.35)"/><path fill="url(#c)" d="M6.8-62.1q0-1.1.4-1.4t1 .4.9 1.9.3 2.3q-.2 1-.6 1.3T8-58t-.9-1.9q-.3-1.1-.3-2.2" transform="translate(50.85 107.35)"/><path fill="url(#d)" d="M4-72.5q0-1 .3-1.3.5-.3 1 .3l.9 2q.3 1.2.3 2.2-.1 1.1-.5 1.3-.4.3-.8-.3-.6-.7-1-1.9-.3-1.2-.2-2.3" transform="translate(50.85 107.35)"/><path fill="url(#e)" d="M8-64.9Q9.8-58.5 9.6-53t-2.3 7.1q-2.1 1.4-4.8-2-2.8-3.5-4.6-9.9-1.8-6.3-1.6-11.9.2-5.5 2.3-7t4.8 2T8-65" transform="translate(50.85 107.35)"/><path fill="url(#f)" d="M2.2-77.7q-.6.4-1.3-.6t-1.2-2.6-.4-3.2q0-1.5.5-1.9t1.3.5 1.3 2.7.4 3.1-.6 2" transform="translate(50.85 107.35)"/><path fill="#8e7451" d="M47.8 82.3q1.2-2.4 2.9-1.1 1.2.6 1 2.1l-.4.6q-1 .9-2.5.8.1-1.4-1-2.5 1.1 1.1 1 2.5-.6 1.3-2.4 1.1-.1 1 .9 4-1.2 0-2.2-3l-.3-3.4q.6-2.6 3-1.2"/><path fill="#cdbda7" d="M48.8 84.8q1.6 0 2.5-.9-2 2.3-2 4.6l-2 1.3q-1-3-1-4 1.9.2 2.5-1"/><path fill="none" stroke="#854a05" stroke-linecap="round" stroke-linejoin="round" stroke-width="__RESOLUTION__" d="m51.3 83.9.5-.6q.1-1.5-1.1-2.1-1.7-1.3-3 1 1.2 1.1 1.1 2.5m2.5-.8q-2 2.3-2 4.6l-2 1.3q-1.2 0-2.2-3l-.3-3.4h0q.6-2.6 3-1.2" vector-effect="non-scaling-stroke"/><path fill="#c5b08f" d="m45.9 82 .5-.2q.6 0 1.2.5.3.3.6 1.6.5 1.4.3 2t-.5.8q0-2.6-2.1-4.7"/><path fill="#7d6942" d="M45.9 82q2.2 2.1 2.1 4.7-.4.1-1-.7-.9-1.4-1.4-1.3t-.5-.8.4-1.4z"/><path fill="none" stroke="#4d3f28" stroke-linecap="round" stroke-linejoin="round" stroke-width="__RESOLUTION__" d="M48 86.7q.3-.1.5-.8.2-.6-.2-2t-.7-1.6q-.6-.5-1.2-.5l-.5.2-.4.5q-.4.6-.4 1.4.1.8.5.8t1.5 1.3q.5.8.9.7" vector-effect="non-scaling-stroke"/><path fill="#c5b08f" d="m49.7 81.3.4-.2q.6 0 1.3.4l.9 1.3q.7 1.2.5 1.8l-.4.7q-.3-2.3-2.7-4"/><path fill="#7d6942" d="M49.7 81.3q2.4 1.7 2.7 4-.4.1-1-.5-1.2-1.2-1.7-1.2t-.6-.7.1-1.2z"/><path fill="none" stroke="#4d3f28" stroke-linecap="round" stroke-linejoin="round" stroke-width="__RESOLUTION__" d="m52.4 85.3.4-.7q.2-.6-.5-1.7l-.9-1.4q-.6-.5-1.2-.4l-.6.2-.4.4q-.3.5-.1 1.2t.6.7 1.6 1.2q.7.6 1.1.5" vector-effect="non-scaling-stroke"/><path fill="#7d6942" d="m48.1 91.2-.4-.3-.6-.9q-.1-.5.3-.5t.8-1q.3-.5.6-.5.6 1.8-.7 3.2"/><path fill="#c5b08f" d="m48.8 88 .5.5q.4.4.3 1.3l-.2 1.1q-.4.4-.8.4l-.5-.1q1.3-1.5.7-3.2"/><path fill="none" stroke="#4d3f28" stroke-linecap="round" stroke-linejoin="round" stroke-width="__RESOLUTION__" d="m48.1 91.2-.4-.3-.6-.9q-.1-.5.3-.5t.8-1q.3-.5.6-.5l.5.5q.4.4.3 1.3l-.2 1.1q-.4.4-.8.4z" vector-effect="non-scaling-stroke"/><path fill="#8e7451" d="m40.7 68.7 2.6-.6 4 6-1.8.6z"/><path fill="#cabe9b" d="m40.7 68.7 4.8 6-6.5.7-12-3.5z"/><path fill="none" stroke="#b1a06d" stroke-linecap="round" stroke-linejoin="round" stroke-width="__RESOLUTION__" d="m45.5 74.7 1.8-.6-4-6M27 72l12 3.5 6.5-.7" vector-effect="non-scaling-stroke"/><path fill="#cabe9b" d="m33.7 72 4-.2-2.5 2.3-3.8 1.5-4.4.5 3-2.7zm.2 1.5L27 76z"/><path fill="none" stroke="#b1a06d" stroke-linecap="round" stroke-linejoin="round" stroke-width="__RESOLUTION__" d="m31.4 75.6-4.4.5 3-2.7 3.7-1.5M27 76l6.9-2.6" vector-effect="non-scaling-stroke"/><path fill="#cabe9b" d="m42.4 72.6-2.3 2.7-3.2 1.7-3.6.8 2.8-3.1 3.1-1.8z"/><path fill="none" stroke="#b1a06d" stroke-linecap="round" stroke-linejoin="round" stroke-width="__RESOLUTION__" d="m42.4 72.6-2.3 2.7-3.2 1.7-3.6.8 2.8-3.1 3.1-1.8" vector-effect="non-scaling-stroke"/><path fill="#918660" d="m32.7 53.1.5-1.7 11.1 18.3-1.4-.3h-.2z"/><path fill="none" stroke="#6b6347" stroke-linecap="round" stroke-linejoin="round" stroke-width="__RESOLUTION__" d="m42.9 69.4 1.5.3-11.1-18.3-.6 1.7-4.8 13.2 14.8 3" vector-effect="non-scaling-stroke"/><path fill="#58523a" d="m25 52 5 2.7 5.7 6.3-3.4 1-5.2-2.9-5-5.3 5 3.1-.6-1.3 2.2 1.2zm5.2 5.5-1.5-.8z"/><path fill="#918660" d="m25 52 3.7 4.7-2.2-1.2-1.7-3.3zm-3.2 0v1.4l-1.3-1.3zm-1.3.1 1.3.7z"/><path fill="none" stroke="#4e4834" stroke-linecap="round" stroke-linejoin="round" stroke-width="__RESOLUTION__" d="m25 52 3.7 4.7 1.5.8m-3.7-2 2.2 1.2m-6.5-3L27 59l5.2 2.9 3.4-1M30 54.6 25 52" vector-effect="non-scaling-stroke"/><path fill="none" stroke="#6b6347" stroke-linecap="round" stroke-linejoin="round" stroke-width="__RESOLUTION__" d="m21.8 53.4-1.3-1.3 1.3-.1m0 .8-1.3-.7" vector-effect="non-scaling-stroke"/><path fill="#fdf0db" d="m27.2 56.8-5.4-3.2V52q-.6-2.9-4-6.4-3.7-3.9-10.7-8.4l.2.7-2-1.6q-2.8.6-4.3-4-.6-2.2-1-5.9 1.4 4 2.9 6.1 1.7 2.4 3.5 2.7l.6 1.7q7.1 2.5 11.5 5 8.9 5 6.5 10v.1l-.2.2zM7 36.9v.4z"/><path fill="none" stroke="#867a57" stroke-linecap="round" stroke-linejoin="round" stroke-width="__RESOLUTION__" d="m27.2 56.8-5.4-3.2V52q-.6-2.9-4-6.4-3.7-3.9-10.7-8.4l.2.7-2-1.6q-2.8.6-4.3-4-.6-2.2-1-5.9 1.4 4 2.9 6.1 1.7 2.4 3.5 2.7l.6 1.7q7.1 2.5 11.5 5 8.9 5 6.5 10v.1l-.2.2zM7 37.3l-.1-.4" vector-effect="non-scaling-stroke"/><path fill="#c1baa2" d="m34.5 64.6-1.3 3-4.3-.2-7-4 6.8.4h1.1-1.1L24 60.5l4.3.3zm-10.5-4 4.7 3.3-6.7-.5z"/><path fill="none" stroke="#a69c79" stroke-linecap="round" stroke-linejoin="round" stroke-width="__RESOLUTION__" d="M34.5 64.6h2.4m-15-1.2 7 4 4.3.2 1.3-3m-6.2-3.9-4.3-.3 4.7 3.4h1.1m-7.8-.5 6.7.5M24 60.5l-2 3" vector-effect="non-scaling-stroke"/><path fill="#918660" d="m37.3 59-4.1-2.5-3.7-4.7-2.8-6.3 5.8 7.3 1 1.3-1-1.3-1.2-4 3.7 4.7zm-6-10.2 1.2 4-5.8-7.3z"/><path fill="none" stroke="#6b6347" stroke-linecap="round" stroke-linejoin="round" stroke-width="__RESOLUTION__" d="m26.7 45.5 2.9 6.3 3.6 4.7 4 2.5M35 53.6l-3.7-4.7 1.2 4 1 1.3m-1-1.3-5.8-7.3 4.6 3.3" vector-effect="non-scaling-stroke"/><path fill="#d8b78b" d="m10.1 55 .4.2L9 55q-1.2.9-3.4-1L3 51.1q2 1.6 3.4 2.3 1.6.8 2.6.6l.9.8zl-.1-.1q4.2-.3 7.1 0 6 .6 6.6 3.5v.2l2.6 1.8-3.6-.5h-.1l-.2-.4-.3-.4q-1.2-1.3-4-2.3-3-1-8-1.8"/><path fill="none" stroke="#867a57" stroke-linecap="round" stroke-linejoin="round" stroke-width="__RESOLUTION__" d="m10 54.9-.9-.8q-1 .2-2.6-.6-1.4-.7-3.4-2.3l2.5 2.6q2.2 2 3.4 1.1l1.5.3-.4-.2zq4.2-.3 7.1 0 6 .6 6.6 3.5v.2l2.6 1.8-3.6-.5h-.1l-.2-.4-.3-.4q-1.2-1.3-4-2.3-3-1-8-1.8" vector-effect="non-scaling-stroke"/><path fill="#857647" d="m26.2 65.6 2.3.2-2.4.8v-.1l-.3-.1-.3-.1-3.3-.2-5.4 1.2.3.1-1 .1q-.3 1-2.5.4l-2.6-.8 3 .4q1.4 0 1.8-.4l.8.2q2.3-1.4 4.1-2 3.7-1.4 5.4.1zm-9.5 1.8h.1"/><path fill="none" stroke="#5f5432" stroke-linecap="round" stroke-linejoin="round" stroke-width="__RESOLUTION__" d="m26.2 65.6 2.3.2-2.4.8v-.1l-.3-.1-.3-.1-3.3-.2-5.4 1.2.3.1-1 .1q-.3 1-2.5.4l-2.6-.8 3 .4q1.4 0 1.8-.4l.8.2q2.3-1.4 4.1-2 3.7-1.4 5.4.1zm-9.4 1.8" vector-effect="non-scaling-stroke"/><path fill="#857647" d="m31.3 69 2.7-2.2 3.9.1-1 3.8-2.7 2.1-4.4.1z"/><path fill="none" stroke="#b1a06d" stroke-linecap="round" stroke-linejoin="round" stroke-width="__RESOLUTION__" d="m31.3 69-1.5 4 4.4-.2 2.7-2.1 1-3.8" vector-effect="non-scaling-stroke"/><path fill="url(#g)" d="M-18.6-54.8q2.5 2.2 3 5 .7 2.7-1 4.3t-4.5 1.2-5.4-2.7-3.1-5 1-4.5q1.7-1.5 4.6-1.1 2.9.5 5.4 2.8" transform="translate(50.85 107.35)"/><path fill="url(#h)" d="M-34.3-67.1q.8.7 1 1.6t-.4 1.6q-.5.5-1.5.4-1-.2-1.9-1-.9-.7-1-1.7-.2-1 .3-1.5t1.5-.5q1 .3 2 1" transform="translate(50.85 107.35)"/><path fill="url(#i)" d="M-25.6-43.4q.9.8 1.2 1.8t-.5 1.7q-.6.5-1.7.4-1-.2-2-1t-1.1-2q-.3-1 .3-1.5.6-.7 1.8-.5 1 .1 2 1" transform="translate(50.85 107.35)"/><path fill="url(#j)" d="M-27.7-52.2q.9.8 1.1 1.9t-.3 1.6-1.7.5q-1.1-.2-2-1-1-1-1.2-2-.3-1 .4-1.6.5-.7 1.6-.5t2 1.1" transform="translate(50.85 107.35)"/><path fill="url(#k)" d="M-34.6-61.4q3.2-3.3 8.9-2.3t10.6 5.4q5 4.5 6.2 9.9t-2.1 8.6-9 2.3-10.5-5.4-6.1-9.9 2-8.6" transform="translate(50.85 107.35)"/><path fill="url(#l)" d="M-26.7-62.3q1.3 1.1 1.6 2.6t-.6 2.4-2.4.5-2.8-1.4-1.7-2.6.6-2.4 2.4-.6q1.5.3 2.9 1.5" transform="translate(50.85 107.35)"/><path fill="#fdf0db" d="M49 55.7q4.4 0 7.2 2.3 1.4 1.1 2 2.7l-3.3.1-1.5-2q-1.3-1.3-4.8-3z"/><path fill="#fbf5b3" d="M58.3 60.7q-.7-1.6-2.1-2.7-2.8-2.3-7.1-2.3 2.3-.7 3.9 0 3.8 1.1 5.8 3.8l.7 1.1.2.5z"/><path fill="#efdfc9" d="M48.6 55.9q3.5 1.6 4.8 3l1.5 2q-1.4.4-2.7 1.6-.1-1.3-.9-2.3-.9-1.2-2.2-1.2t-2.2 1.2q-1 1.3-1 3t.9 2.8v.2q1 1.2 2.3 1.2h.5q-.3 2 .1 3.2-2.5.3-5.3-2.6l-.7-.7q-.8-3.7.8-7.4.6-2.6 4.1-4"/><path fill="#ebdfc7" d="m54.9 60.9 3.4-.2 1.4.4.3.1q2.9 3.8 4 8.1 1.3 5-2.3 9-1.7-6.7-3.8-8.9L54.7 66l-2.5-2.4-.6-.6.5-.5q1.4-1.2 2.8-1.7"/><path fill="#cdbda7" d="M61.7 78.3 56.6 74q-1.9-1.3-3.7-1-1.5.2-2 0l-.2-.1-.6-1.4-.4-.9q-.4-1.4-.1-3.3v-1l.8-3.1 1.3-.2.5.5 2.4 2.4h.1l3.2 3.4q2.1 2.2 3.8 8.8"/><path fill="#a27d66" d="m50.9 73.1-.8.2h-1l-.9-.2-1.5-.7-1.6-1.4-1-2.5-.4-1.2.7.7q2.8 3 5.3 2.6v.1l.4.9.6 1.4zm1.3-10.5-.6.4-1.2.3-.7 3-.1 1.1H49q-1.4 0-2.2-1.2l-.1-.2q-.7-1-.7-2.7t.9-3T49 59t2.2 1.2q.8 1 .9 2.3m-4.5-2.2q-.3 0-.5.4l-.2 1.1.2 1.1q.2.4.5.4t.5-.4l.2-1-.2-1.2q-.2-.5-.5-.4"/><path fill="#371504" d="M47.7 60.3q.3 0 .5.4l.2 1.1-.2 1.1q-.2.4-.5.4t-.5-.4l-.2-1 .2-1.2q.2-.5.5-.4"/><path fill="none" stroke="#b3a888" stroke-linecap="round" stroke-linejoin="round" stroke-width="__RESOLUTION__" d="m49 55.7-.4.1q-3.5 1.5-4.1 4.1-1.6 3.6-.8 7.4l.4 1.3 1 2.4 1.6 1.4 1.5.6.9.3h1l.8-.2m8.8-12-.2-.5-.7-1.1q-2-2.7-5.8-3.9-1.6-.6-4 .1" vector-effect="non-scaling-stroke"/><path fill="none" stroke="#ff0" stroke-linecap="round" stroke-linejoin="round" stroke-opacity=".3" stroke-width="__RESOLUTION__" d="m54.9 60.9 3.4-.2 1.4.4.3.1q2.9 3.8 4 8.1 1.3 5-2.3 9L56.6 74q-1.9-1.3-3.7-1-1.5.2-2 0l-.2-.1-.6-1.4-.4-.9h0q-.4-1.4-.1-3.3v-1l.8-3.1m1.8-.7-.6.4m.5-.5q1.4-1.2 2.8-1.7" vector-effect="non-scaling-stroke"/><path fill="url(#m)" d="M-1.8-46.1q.3.6.2 1.3-.1.6-.5 1-.4.2-.9 0t-.8-.9-.2-1.2l.5-1 .9-.1q.5.3.8.9" transform="translate(50.85 107.35)"/><path fill="url(#n)" d="M13.3-39.7q1.1 2 .8 4.6-.2 2.5-1.7 3.9-1.7 1.4-3.6 1t-3.1-2.5-.9-4.6 1.8-4 3.6-1q1.9.5 3 2.5" transform="translate(50.85 107.35)"/></g></defs><g clip-path="url(#o)"><use xlink:href="#p" width="66.8" height="112.5" transform="translate(1 1)"/></g></svg>