<svg xmlns="http://www.w3.org/2000/svg" xmlns:xlink="http://www.w3.org/1999/xlink" width="14" height="40" viewBox="0 0 14 40"><defs><clipPath id="a"><path d="M1 1h12v38H1z"/></clipPath><g id="b"><path fill="#221817" fill-opacity=".5" d="m8.7 35.5 2.4.4-6 1.7q-.3-.5-4.7-1.8l1.1-1.2 1.5.1.2.3 1.4 1.3q1 .7 2.2.5 1.1-.2 1.9-1.3"/><path fill="#aca297" d="M3 34.8q-1.5-2.1-2-5.1-.5-2.3 0-3.3l.5-.7h3.3l1 2.7v-2.8l1.8 1.9v.6q.3 5.2-1 7.1-.8 1-2 1.1L3.2 35z"/><path fill="#d0cac4" d="M1.5 25.7q1-.7 2.6-1h.4l1-.1h2.3l.7.5q.9.7 1.3 3 .5 3.3-.4 5.9l-.7 1.5q-.8 1.1-2 1.3t-2.1-.5q1.2-.1 2-1 1.3-2 1-7.2v-.6l-1.8-2v2.9l-1-2.7z"/><path fill="#a96901" d="M4 24.8 0 .8 1.1 0l.3.5.8 4.6.7 4 1.2 7.1.3 1.9 1.1 6.5h-1zm.8-.6L1.1 0z"/><path fill="none" stroke="#241a11" stroke-linecap="round" stroke-linejoin="round" stroke-width="__RESOLUTION__" d="M3 34.8q-1.5-2.1-2-5.1-.5-2.3 0-3.3l.5-.7h0q1-.7 2.6-1L0 .8 1.1 0l.3.5.8 4.6m.7 4 1.2 7.1m.3 1.9 1.1 6.5h2.3l.7.5q.9.7 1.3 3 .5 3.3-.4 5.9l-.7 1.5q-.8 1.1-2 1.3t-2.1-.5L3.2 35l-.2-.2m1-10 .5-.1 1-.1" vector-effect="non-scaling-stroke"/><path fill="none" stroke="#c90" stroke-linecap="round" stroke-linejoin="round" stroke-width="__RESOLUTION__" d="m1.1 0 3.7 24.2" vector-effect="non-scaling-stroke"/></g></defs><g clip-path="url(#a)"><use xlink:href="#b" width="11.1" height="37.6" transform="translate(1 1)"/></g></svg>