<svg xmlns="http://www.w3.org/2000/svg" xmlns:xlink="http://www.w3.org/1999/xlink" width="74" height="39" viewBox="0 0 74 39"><defs><clipPath id="a"><path d="M1 1h72v37H1z"/></clipPath><g id="b"><path fill="#35341f" d="M61.3 5.4q9 4.7 10.3 11H61.2q-.9-4.1-6.7-7.4L61 5.4zm-19.7 13h14.2q-.6 3-4.3 5.3zm-.1-2.4 9.6-5.1q4 2.3 4.6 5.5H41.5zm20.3 15.2-.5.2q-9.5 4.9-22.6 5.4l-.1-6.1q8.4-.3 15.4-3.6zm-29-12.8-11 5.2q-3.6-2.3-4.1-5.2zm3.4.4.2 8.1q-7.1 0-12.3-2.3zm-.8-3.1L24.8 10Q29.6 8 36 7.9l.2 7.7zm-2.4.7H17.8q.6-3.1 4.7-5.5zm5.3 2.4h.2l10.8 5.9q-4.7 2-10.9 2.3zm-.1-3.5L38 8q6.1.1 10.8 2l-9.9 5.4zM11.3 5l7.4 4q-6 3.3-6.8 7.5H.2q1.3-6.3 10.3-11zm-1.2 26.2L19 27q7.6 3.7 17.5 3.7l.1 6.1H36q-14.8 0-25.4-5.4z"/><path fill="#3c3a22" d="M71.8 18.4q0 6.8-8.3 11.8l-8-4.2q5.4-3.4 5.8-7.6zM35.9 0l.1 4.8q-8.5.1-15.3 3.1l-7.3-3.8Q23 0 35.9 0"/><path fill="#5c5b40" d="M51.2 10.7 54 9.2q5.8 3 6.6 7.2h-4.5q-.6-3.2-4.9-5.7m.4 13.2q4-2.4 4.5-5.5h4.6q-.3 4.2-5.6 7.4zm-2.3-14q-4.8-2.2-11.2-2.4l-.1-2q8 .1 14.2 2.8zm.5 15 3.5 2q-6.3 3-14.8 3.4l-.1-2.8q6.5-.3 11.4-2.5M36.1 7.4q-6.9.1-11.9 2.3l-3.1-1.6Q27.4 5.4 36 5.3zm-18.7 9h-5q.8-4.2 6.8-7.3l3.1 1.6q-4.3 2.5-4.9 5.7m0 2q.5 3 4.3 5.4l-4 1.8q-5-3.2-5.4-7.2zm19.1 9v2.8q-9.8 0-16.8-3.5l4-1.9q5.3 2.6 12.8 2.6"/><path fill="#3f3d25" d="M59.2 4.5 52.6 8Q46 5 38 4.8L37.9.1Q50 .2 59.2 4.5M0 18.4h11.8q.3 4 5.4 7.4l-9 4.3Q0 25.1 0 18.4"/><path fill="#4d4b2d" d="M41.5 18.4h-.1v-.1zm-8.6 0h.1z"/></g></defs><g clip-path="url(#a)"><use xlink:href="#b" width="71.8" height="36.8" transform="translate(1 1)"/></g></svg>