<svg xmlns="http://www.w3.org/2000/svg" xmlns:xlink="http://www.w3.org/1999/xlink" width="71" height="85" viewBox="0 0 71 85"><defs><clipPath id="a"><path d="M1 1h69v83H1z"/></clipPath><g id="b"><path fill="#fbef9f" d="m55.1 45.7-.7-1.8-5-6.6-8.9-5.2-10.2-1.9h-.4l-14.4 6.2L9 45.8l-1.9 4.9-.3-.4q-.5 0-.6.6l.2.3h.5l-1.6 4.1L6.5 66l3 6 3.9 3.2-.5 1.3-1.5-.3-2.3-1.7L5 71l-.3-.2Q.5 65.2.5 57 .4 44.9 9 36.4t20.7-8.6h1.1q11.3.4 19.5 8.6 4.3 4.3 6.5 9.5zM14.9 35.3q-.1.4.3.3 1.2 0 .2-.7zm-10 10q0 .4.3.4 1.4-.2.2-.9zm-.3 2.3q-2.8 2.5-.6 5.5-2.2-3 .6-5.5m-.4 17.2q-.1.3.2.3 1.3-.1.2-.8zm-.8-7-.5.5q0 .4.4.4 1.2-.1.1-.9"/><path fill="#eec062" d="m30.3 30.2 10.2 1.9 8.9 5.1 5 6.7.6 1.8h.1q-.7 2.6 0 4 .4.5 1 .8l.1.1q1.8 2.5-.4 6.9l.3.4q1.5 2.5-1.3 6v.2l.3 1q.4 3.3-2.4 6.5l-.2.3-.3 1.9-.6.5-.5.4-.1-.2-.6 1 2.5 1.5 1.9-.8 2.5 1.2.3 1q-.9.4-2.4.5-1.9 3.9-6.6.3-3.6 2.6-4.7-.6l-1.6.6-1.5-.2q-1.3 0-2.2.5-.7.3-.9.8l-7 1-7-.2 5.3-1.5 3.1-3.2q-7-.2-7.7-8.7-6.5-4.1-1-8.1l-.2-.5q.1-4.4 1.6-6.2zm-7 28.9.2.5-.2-.2zm27.9-11.4 4 2zM35 53.1q2.1-.1.4-1.5-1 .3-.7 1.2 0 .3.3.3m13 14.2q0 4.3-6.3 7.1 6.3-2.9 6.3-7.1m2.5.6q0 .4.4.4 2.4.1.7-1.3-1 0-1 .9m-14 3.1q0 .5.4.5 2.2 0 .5-1.5-.7.2-.9 1m-6.9-10.4q.2.5.6.4 2.3-.6.2-1.9-1 .4-.7 1.5M22 62.5l-.4.5q-.2.3.2.3 1.3-.1.2-.8"/><path fill="#ffe18b" d="m55.1 45.7 1.6.2Q58.9 51 58.9 57q0 11.1-6.6 16.8l.3-1.9.2-.3q2.8-3.2 2.3-6.4l-.2-1.1v-.2q2.9-3.5 1.3-6l-.3-.4q2.2-4.4.4-6.9l-.1-.1q-.6-.3-1-.9-.7-1.2 0-4m-46 28.9 2.3 1.7 1.5.3.5-1.3L9.6 72l-3.1-6-1.2-10.6 1.6-4.2h-.5l-.2-.4q.1-.4.6-.5l.3.4L9 45.8l6.5-9.4L30 30.2h.3l-5.5 22.7q-1.5 1.9-1.6 6.2v.3l.2.2q-5.5 4 1 8.1.7 8.5 7.8 8.7l-3.3 3.2-5.2 1.5-.7-.1q-7.5-1.2-13.5-5.5l-.2-.1v.4zm28.6 5.8q.1-.5.8-.8 1-.5 2.3-.5l1.5.2.7.3.7.6q-3.2-.8-4.6 1.2l.2.9-.7-.4q-1-.5-1-1.1zM10.1 51.6l-.4.5q-.1.3.3.3 1.2-.1.1-.8M26 43l-.4-.5-.6.5.2.4.7-.1zm-11.2 9.5q1.3-.1.2-.8l-.5.4q0 .4.3.4m5 6.9q-1.8.3-2.9 2.3-3.4-2.8-7 .7 3.6-3.5 7-.7 1-2 2.8-2.3m1.2 10.8q1.3-.1.2-.8-.4 0-.4.4-.2.4.2.4m-6.2 1.6.2.3q1.4 0 .3-.9-.5 0-.5.6"/><path fill="#ede150" d="m4.6 70.8.3.2h-.1z"/><path fill="#d59620" d="m57.6 78.4-.3-1-2.5-1.2-1.9.8-2.5-1.5.6-1 .1.2.6-.4.5-.1q5.8-2.7 6 2.5.1 1.1-.7 1.6"/><path fill="#cabd1e" d="M35 53.1q-.2 0-.4-.3-.2-1 .8-1.2 1.8 1.4-.4 1.5m15.5 14.8q.1-.9 1.1-.9 1.7 1.4-.7 1.3-.4 0-.4-.4M36.8 71q0-.8.8-1 1.7 1.5-.5 1.5-.4 0-.4-.5m-6.9-10.4q-.2-1.1.8-1.5 2.1 1.3-.2 1.9-.4.1-.6-.4"/><path fill="#e1a533" d="m43.7 80.1.1.3v.3q0 .6-.8 1.1-1 .5-2.2.5l-1.3-.1h-.2l-.2-.9q1.4-2 4.6-1.2"/><path fill="#f7e372" d="m14.9 35.3.4-.4q1.1.6-.2.7-.3 0-.2-.3m-10 10 .5-.5q1.2.7-.2.9-.3 0-.3-.5m-.7 19.5.4-.4q1.1.7-.2.8-.3 0-.2-.3m-.8-7q1.1.8-.1.9-.4 0-.4-.4z"/><path fill="#e2d636" d="M10.1 51.5q1.1.7-.2.8-.3 0-.2-.3zM26 43l-.1.3h-.7l-.2-.2.6-.6zm-11.2 9.5q-.3 0-.2-.4l.4-.4q1 .7-.2.8m7.3 9.9q1 .7-.2.8-.4 0-.2-.4zm-1.2 7.8q-.4 0-.2-.4 0-.3.4-.4 1 .7-.2.8m-6.2 1.6q0-.5.5-.6 1.1.9-.3.9z"/><path fill="none" stroke="#e1a533" stroke-linecap="round" stroke-linejoin="round" stroke-opacity=".3" stroke-width="__RESOLUTION__" d="m23.2 59.1.2.5m31.8-10L51 47.8m-9.4 26.7q6.3-2.9 6.3-7.1M4 53.1q-2.2-3 .6-5.5m5.2 14.8q3.6-3.5 7-.7 1-2 2.8-2.3" vector-effect="non-scaling-stroke"/><path fill="#000" fill-opacity=".3" d="m25.3 27.7.3-.2.4.2.1.3-.1.4-.4.1-.3-.1-.2-.4zm-3.4.8.2.4-.2.3q-.1.2-.3.2l-.4-.2-.1-.3.1-.4.4-.1zm7.5-1 .4-.2.3.2.1.3-.1.3-.4.2-.3-.2-.1-.3zm-11.9 2.3.4-.2q.2 0 .3.2l.2.3-.2.4-.3.1-.4-.1-.1-.4zm-3.1 1.7.3.2.2.3-.2.4-.3.1-.4-.1-.1-.4.1-.3zM11.5 34l.1.4-.1.4-.4.1-.3-.1-.2-.4.2-.4.3-.1zm-6.4 6.3.3-.1.3.1.2.4-.2.3-.3.1-.3-.1-.2-.4zM8.4 37l.2.4-.2.3-.3.1-.4-.1-.1-.4.1-.3.4-.1zm-4.6 6.7.1.3-.1.4-.4.1-.3-.1-.2-.4.2-.3.3-.2zm-1.5 3.6.1.4-.1.3-.4.2q-.2 0-.3-.2l-.2-.3.2-.4.3-.1zm-1.7 4 .3-.2.4.1.1.4-.1.4-.4.1-.3-.1-.2-.4zm-.5 4 .4-.1.4.1.1.4-.1.3-.4.2-.4-.2-.1-.3zm.1 4 .4-.1.3.1.2.4-.2.3-.3.2-.4-.2-.1-.3zm1.4 4 .1.4-.1.4-.4.1-.3-.1-.2-.4.2-.4.3-.1zM51.4 37l.1.3-.1.4-.4.1-.4-.1-.1-.4.1-.4.4-.1zm1.9 3.2.4-.1.3.1.1.4-.1.3-.4.1-.3-.1-.1-.4zM34 27.7l.1.3-.1.4-.4.1-.3-.1-.1-.4.1-.3.4-.2zm3.2.8.3-.2.4.2.1.3-.1.3q-.1.2-.4.2l-.3-.2-.2-.3zM47.8 34l.4-.1.3.1.1.4-.1.4-.4.1-.3-.1-.1-.4zM45 31.6l.3.2.2.3-.2.4-.3.1-.4-.1-.1-.4.1-.3zm-3.1-1.4-.2.4-.4.1-.3-.1-.1-.4.1-.3.4-.2.3.2zM57 47l.3-.1.4.1.1.4-.1.3-.4.1-.3-.1-.2-.4zm-.7-3.4-.2.4-.4.1-.3-.1-.1-.4.1-.3.4-.1.3.1zm1.8 7.2.4-.1.3.1.1.4-.1.3-.4.1-.3-.1-.1-.4zm1.3 4.3-.1.3-.4.2q-.2 0-.3-.2-.2-.1-.2-.3l.2-.4.3-.1.4.1zm-.8 3.6.3-.1.4.1.1.4-.1.3-.4.2q-.2 0-.3-.2-.2-.1-.2-.3zm-.6 4 .4-.1.3.1.1.4-.1.3-.4.1-.3-.1-.1-.4zm-.5 3.9.1.3-.1.4-.4.1-.3-.1-.2-.4.2-.3.3-.2q.3 0 .4.2m-2.6 3.5.4-.2.3.2.1.3-.1.4-.4.1-.3-.1-.1-.4zm1.3 2.8.3-.1.4.1.1.4-.1.3-.4.2-.4-.2-.1-.3zm-3 .8.1.2-.1.3-.4.2-.4-.2-.1-.3v-.5l.1-.3.4-.2.4.2.1.3zm4.8 2.5.4-.1.3.1.1.4-.1.3-.4.2-.3-.2-.1-.3zM2.2 67q.1-.2.3-.2l.4.2.1.3-.1.4-.4.2-.4-.2-.1-.3zm2.1 3.5.4-.2q.2 0 .3.2l.2.3-.2.4-.3.2-.4-.2-.1-.3z"/><path fill="#ffe18b" d="M9.4 80.2q-.3-3 3-4.4-.3-.5-1.5-.3l-.3-.1q-1-.2-2.2 1.7H6q.1-3 2.5-3.6h1.9L15 77v1.3q-.1 1-1 1.7-1 .8-2.3.8t-2.2-.6"/><path fill="#fbef9f" d="M8.4 77.1q1.2-1.9 2.2-1.7h.3q1.2 0 1.5.4-3.3 1.5-3 4.4l-.3-.2q-1-.8-1-2zm2.1-3.5-2-.1q-2.3.5-2.4 3.7l-.6-.4Q4.2 75.5 4 75.7q2-5.5 5.8-2.7z"/><path fill="#804f29" d="m63 37.4 1 .1 2.7-1.6 1-2.2-.4-2.2-2.3.6.5 1.2h-.1l.3 1 1-.9-1.2-.4v-.4l1.7-.5v2.3L64 37l-.3-5.9 4.7-1.3h.1l.3 3.1-2 4.1-2.4 1.3-4.9 6.6-10.4 14-.8 1.1-.6-1.1 11.8-16.6.5.4 1.6-2-.5-.7zm-8.5 13 1.5-2.2.1.4 3.3-3.7-3.2 3.8-.2-.6zm1.5-2.2.9-1.5z"/><path fill="#5b381e" d="m64 37 3.2-2.6v-2.2l-1.7.4v.4l1.2.4-1 .9-.3-1-.4-1.2 2.3-.6.5 2.2-1.1 2.1-2.7 1.8-1-.2-1.4-.4.3-.2-.1-.3z"/><path fill="#bc733d" d="M63 37.4 61.2 40l.5.7-1.6 2-.5-.5-12 16.8-.6-1 .6-.8 14-20.2zm.7-6.2L64 37l-2.2-.5-.3-5.5z"/><path fill="#d59620" d="m48.3 60 .9-1.1.3.3L51 61l-1.4-.1-.6.4zm-.6-2.8-.7.8-1.1-1.5.6-.5z"/><path fill="#c78554" d="M68.4 29.8 63.7 31v.1l-2.2-.1-.1-.5 4.1-2z"/><path fill="#000" fill-opacity=".2" d="m49.6 60.9 1.4.1-1.5-1.8q3.7.2 5.8 7.2 1-.4 1.8 1.3l-.1.3-.8 1.2q-.2-1.5-1.4-1.1v-.2q-2.1-5.2-5.2-7m2.1.6L51 61z"/><path fill="none" stroke="#c78554" stroke-linecap="round" stroke-linejoin="round" stroke-width="__RESOLUTION__" d="m47.7 58.9.6 1.1.7 1.3.6-.4 1.4.1.8.5M47 58l.5.9M46 56.5l1 1.5m-1.9-2.3.8.8m3 4.8.4.7" vector-effect="non-scaling-stroke"/><path fill="none" stroke="#bc733d" stroke-linecap="round" stroke-linejoin="round" stroke-width="__RESOLUTION__" d="m59.6 44.9-3.4 3.8-.1-.6-1.5 2.3m2.4-3.7-.9 1.4" vector-effect="non-scaling-stroke"/><path fill="#eec062" d="M16.5 67.7q1.3 2.1.3 3.2l-1.7 1.6-1.4.5-1.3-.3H12l-.1-.2-.5-.7v-.2l.3-1.4.1-.4 1.7-1.6h.1zM14.1 70l-1 1.7-1.3-1.5 1.3 1.5zm.1 2.4-1.1-.7-.7 1 .7-1z"/><path fill="#d68a25" d="m12.4 72.7 1.3.3 1.5-.5 1.6-1.6q1-1-.3-3.2l-1.6-.7 1 .2.5.2.2.1.6.5q1.1 1 1.1 2.4t-1 2.4q-1.1 1-2.6 1l-.9-.1h-.3l-1.4-.9-.1-.1z"/><path fill="#ffeaaa" d="m16.5 67.7-2.9.5h-.1l-1.7 1.6v.4l-.4 1.4-.3-1.2q0-1.4 1-2.4 1.1-1 2.6-1h.3z"/><path fill="#000" fill-opacity=".2" d="m16.6 67.5 2.3 1 1.1 2.3.2 1.6-.9 2.3-2 .8-2.7-1-.8-.8.9.1q1.5 0 2.6-1 1-1 1-2.4t-1-2.4z"/><path fill="none" stroke="#000" stroke-linecap="round" stroke-linejoin="round" stroke-opacity=".3" stroke-width="__RESOLUTION__" d="m11.8 70.2 1.3 1.5 1-1.7m-1.7 2.7.7-1 1.1.7" vector-effect="non-scaling-stroke"/><path fill="#754739" d="m32 9.1-1 1 2 .6-1.3 1.3-4.9-.6-1.6-1.5h.3v-.3l2.3-1v.1h.6zm6.3 31.2 1.7 1.8-2.1 1.3v.4l.8.7.7.1.4.4v.9H38v.7l1.4 1.3q-.1 1.6-1.7.9-1.3-.6-.8-2l.3-1v-.4l-.6-.4h-1.2q-.4-1.5-.2-2.8.3-1.5 1.1-1.9zm3.7.8h-.1q-.4-.9-.3-2v-.5l3.7 1-.7.9v.9l.4.3h.3l.6.6v.3q-.5.7-1.4.4l-.4-.2v-.1h-.3v-1.3l-.5-.6H43zm5-8.9-.6-.3q-1-1.2-1-2.7l.3.1 1.8-.1.3-1.7.2-.2.4-.3q.5 0 .8.3.3 1.2-.7 1.7-.5.2-.5.6v.5h2.1q1 .2.9 1.1l-.4.7v.1H50l-2.4-.5zM22.8 57.3q-.9.7-2.1.5-.9-.8-.6-1.9h.3v-1.4q0-1.5-1.5-1L17.3 55l-.7.4H16v-1.8q.2-.9 1.2-1.2H19q1.6-2.1 0-3.5l-.5-.4 1.4-.4-.2-.6-.7-.7v-2.4q-.1-1.5.3-2.9.4-2 2.8-1.7v.8l-.3.6H21l-.5.7-.2 1 .6.6 3.6-.6.5.6q-3.6 2.1-3.1 6v1l3.7 2v1.2q-.2.7-.7.7-.9-.1-1.2-1H23q-1.1-.5-1.5.5l1.5 3zm-12.7-8.6h-.3q-.4.1-.7-.2-1.2-1.6 0-3.1h1.8l.3-.5-2.4-1.2v-.4q.4-.6 1-.6l.6.1.3.2.4.4h.5l.5-.5v-1h1.2l1.4-2q1.4-.4 2.1.9-1.7.2-1.6 1.9l.5 2.5v1h-.3v.2H15l-1 .6-2.7-1q-.7.9-.8 2.1l-.2.4zm-1.2-8.5q-.7.3-1.2-.2l.8-1.4q-1.3-.2-2.2.8H5q-.2-.8.5-1.3h2.8l.7-.5v-1.9l1-.7q1-.1 1.9.5 1.1 1 1.3 1.8H13V37l-1-.6q-2.8.5-2.3 3.3l-.4.3zM33 44.8l-.2-.1h-.7l-1.6 1v.6h-.4v.4q-.9 1.6-2.6.8l-.2-.2v-1.7l.5.3h1.4V45l-.2-1h-2.5v-1h.8v-.4q1-.6 2.3-.6 2.8-.2 3.3 2.6"/><path fill="#885242" d="m25.3 9.9 1.5 1.5 4.9.6 1.3-1.3-2-.6 1-1h.3l1.5.5v.9l4 2.4.8 2.3 1.4.3 3.3 4.4-.2 2.5.9 1 .9 3.6-.4 1.3.9.6v.2q0 1.5 1 2.8l.6.3 3.9 1.7v1.8l-2-.4h-1.5l-2.7.4v1.8L48 39q1 .5.9 1.6l-3.7-1-3.7-1v.5q0 1.1.3 2 .6 1.1 1.9 2 1.8 1.1 3.9-.3 1.4.4 1.8 1.4v.6h-3.1v.7l2 1.6v.9l-.9 1.3-1.9-.1-.9-.6V45h-.9l-.4-.5v2.3q-1 .8-1.9.8l-1-.2v-2.3h.6q-.1-1.7-1.1-3l-1.7-1.8q-2.8-2.5-.8-6.4l.2-.4q4.7-7-1.7-13.7l-.2-.3-.4-.1q-2.5-5-5.6-6.4l-4-.1-7.2-1 4.9-2.5zm2.5-1.3-2.3 1 .4-2.2-.6-.8V5.5h.1l.9.7h.3l1.7-2q1.6-.1 1.3 1.4l-2 1h-.4v.9zM8.6 29l1.4-7.1q5.7-1.6 11.7.6l1.6.7 2.7 1v.5l2 .7q3.4 1.1 3.6 4.8l-1 2.3H28l-.5-.7q-2.2 3.2-5.6 2.7-.8-.1-1.3-.9-2.6-3.4-7.2-2.7zM23.3.3l1.3-.3 1.8.8q.9 1.6-.3 2.8l-.7 1.1h-.1q-.2-2.6-2-4.4"/><path fill="#a96552" d="M25.5 9.6v.3h-.2l-1.8-.5-4.9 2.5 7.2 1 4 .1q-.2 1.8-2.2 1.1-1.4-.4-1.1 2.5l.4 1.9.7.2q1 2.7 3.3 1.4 1-.9 2.1 1 1.9 2 0 4l-.4.3q-.6 5.3 2.4 4 1.5 4.3-.5 4.9v.2q.5 3.1-2.2 2.9l1.3 5.5 1.8 2.1.6 1.5v1l1.2 1.3v.7h-1.9q-.8 0-.6-1l.2-1.7-.7-.5-1.6 1.6h-.9v-.7q-.3-.6-.1-1l.7-.9h.8v-.6q-.6-2.8-3.5-2.6-1.2 0-2.2.6v.4h-.7v1H29l.3 1-.1.6h-1.4l-.5-.2-.6-.1-.9.4.9 2.5q-.2.5-1 .6l-1.2-.1-.8-1.6q0-1.3 1-2.1l.4-.6-.2-.8-.5-.7-3.6.6-.6-.6.2-1 .5-.6h.7l.3-.7v-.8q-2.4-.3-2.9 1.7-.3 1.4-.2 2.9v2.4l.7.8.1.5-1.3.4h-.9q-.6-.2-.8-.7l-.2-.4-.2-1.1q0-1.6.8-3l.2-.5-.4-1.8-.1-.2v-.1q-.7-1.2-2.1-.9l-1.4 2h-1.7q-.5.3-.7-.1l-.3-1v-.9h1l.3.5h.9l.1-.6-1.8-1 .2-.7H13q.3-.5.3-1-.2-.7-1.3-1.7-1-.6-1.9-.5-1.5 0-3 1.8L7 35q1-2.1 2.8-2.2v-1.4l-.7-.2h-.6v-1.5l.2-.7 4.8 1.9q4.6-.7 7.2 2.8.5.6 1.3.8 3.4.5 5.6-2.7l.6.7h2.4l1-2.3q-.1-3.7-3.4-4.8l-2.1-.7v-.4l-2.7-1.1-1.6-.7q-6-2.2-11.7-.6l.6-3v-.4l1.9-3.3h.4v-.6l4.3-3.5 5-2.3H24q.5-.4.4-1.2-2.2-.2-3.4-1.8v-1h1.8q0 1.4 1.2 1.2l.5-.3v-.5l-2.4-3.7q.4-.8 1.1-1.3 1.8 1.8 2 4.5l.1-.1v.8l-.1 1.1.6.8zm19.9 19.5V29zm0-.2-1-.6.5-1.3-1-3.6-.9-1 .3-2.5-3.3-4.4-1.4-.2-.9-2.4-3.9-2.4v-.9l1.3.4q4 1.9 6.2 5.9 1 1.6 2.2 3.1l2.2 6.8q-.4 1.2-.3 3M17.6 13.5q-2-.7-4 2.4-1.3 2.1-.5 2.5l.5.1q3.7-.4 5.5-2.4 1.9-2.6-1.5-2.6"/><path fill="#9c5e4b" d="M29.8 13q3 1.4 5.6 6.4l.4.1.2.3q6.4 6.7 1.7 13.7l-.2.4q-2 3.9.8 6.4h-2q-.8.5-1.1 1.9-.2 1.3.2 2.8l-1.8-2.1-1.3-5.5q2.7.3 2.3-2.9l-.1-.2q2-.6.5-4.8-3 1.2-2.4-4.1l.4-.3q1.9-2 0-4-1-1.9-2.1-1-2.3 1.3-3.3-1.4l-.7-.2-.4-1.9q-.3-2.9 1-2.5 2 .7 2.3-1"/><path fill="#000" fill-opacity=".1" d="M40 42q1 1.4 1.1 3.1h-.6v2.3l1 .2q.9 0 1.9-.8v-2.2l.4.4h1v3.6l.8.6 2 .1.8-1.3v-1l-2-1.6v-.7h3v-.6q-.3-1-1.7-1.4-2.1 1.5-4 .3-1.2-.9-1.7-2l1-.3h.3l.5.6v1.3h.3v.1l.4.2q.9.3 1.5-.4l-.1-.3-.6-.6H45l-.5-.4v-.8l.8-.9 3.7 1q.1-1.1-.9-1.6l-3.5-1.5v-1.8l2.8-.4h1.5l3 2.6v1.9q-1.1.3-1.1 1.4v.8q1.4 0 2 1l-1.4.8-.7 1.9q0 .3.6.5 1.2-.1 1.3 1.3h-2.7v1.9h.8v2q-.3.8-1.1 1.1H49l-.3-.7h-.2v-.5L45.4 50h-5.2v.9h-.7v1.6h-1.7l-1.6-1.7h-1.5q-.8 0-1.7 1l-5.9-1.7-.2.4q-.3.7-.1 1.4l.6 1h1.9v1.4q-1.6 2.7-4.4 2v1.8h-2.1v-.8l.3-.3-1.5-3q.4-1 1.5-.5h.5q.4.9 1.3 1 .5 0 .7-.7v-1.2l-3.7-2v-1q-.4-3.9 3.1-6v.1l.3.8-.6.6q-.9.8-.9 2.1l.8 1.5 1.2.1q.8 0 1-.5l-.9-2.5.9-.4.6.1v1.6l.3.3q1.6.9 2.5-.8v-.4h.4v-.6l1.5-1h.8l.1.1.1.6h-.8l-.7.9q-.2.4.1 1v.6h.9l1.5-1.5.8.5-.2 1.7q-.2 1 .6 1h1.9v-.7L36 47.5v-1l-.5-1.5h1.1l.5.4.1.4-.3 1q-.5 1.4.8 2 1.5.7 1.6-1L38 46.7V46h1.8v-1l-.4-.4-.7-.1-.9-.7v-.4zm-23.5 5.5h-.2q-2.3.1-3.2 2.4-2.3.9-3-1.2l.3-.2.2-.4q.2-1.2.8-2.1l2.7 1 1-.6h.3v-.2h.3v-1l-.4-2.5q-.2-1.7 1.5-1.9l.1.3.4 1.8-.2.6q-.9 1.3-.8 2.9zm-6.7-4.8v-1H8.6L7 43.4H6v-.9q.5-1.1 1.7-1.9h.7l.6-.5.3-.1.4-.4Q9 37 11.9 36.4h.2l.9.6v.1h.3q0 .5-.3 1h-1.7l-.2.6 1.8 1.1-.1.6h-.9l-.3-.5h-1v.9l.3 1q.2.4.7.2h.5v.9l-.5.5h-.5l-.4-.4-.3-.1z"/><path fill="#bb8373" d="M17.6 13.4q3.4 0 1.4 2.6-1.7 2-5.4 2.4l-.5-.1q-.8-.4.5-2.5 2-3.1 4-2.4"/><path fill="#000" fill-opacity=".1" d="m14 22 .4.3.1 2.2h-.1l-.3-.4v-.3zm2.8 3.3h.4l-.2.5-2 .9-.1 2.4-.5.5H14q.4-.6.4-3.1h.2l1.7-.8zm-4.4 2.2-2 .5-.3-.4q.4.1 2-.7z"/><path fill="#ba3fa2" d="m14.5 24.5 2 .5-.1.1-.2.1-1.7.8h-.1q0 3.1-.7 3.3-.6 0-1.8-2.8-1.8.9-2.1.6l1.1-1.9h-.1v-.3l-.2-1q-.2-1.4 1.7 0v-.2q1-2 1.4-2l.3.3v.1l.1 1.6v.4zm-1.3-1.1v-.1H13v.1zm.3 1.3h-.2l-.1.1v.2l.2.1h.1l.1-.2zm-.3 1.1v-.3l-.2-.2h-.3l-.2.3v.4l.2.2.3-.1zm-1.8 0-.1-.1h-.1v.2h.1zm.5-.7v.2l.2.2.2-.1.1-.2V25l-.1-.1h-.2zm.8-.6v.2l.1.1h.2v-.4zm.9 1.8v.2h.2v-.3z"/><path fill="#760303" d="M16.6 25q.2.1.1.3l-.4.4-1.7.8h-.2q0 2.5-.4 3-.6.8-1.7-2l-.4-.6q-1.5.8-1.9.7-.4 0-.2-.5.3.3 2.1-.6 1.2 2.9 1.8 2.8t.7-3.3h.1l1.6-.7.3-.2zm-3.4-1.6H13v-.1h.1zm.3 1.3.1.2-.1.1-.1.1-.2-.1v-.2l.1-.1zm-.3 1-.2.3-.3.1-.2-.2v-.4l.2-.2.3-.1.2.2zm-1.8 0-.1.1H11v-.2h.1m.5-.6.2-.2h.2v.1l.1.2-.1.2h-.2l-.2-.1zm.8-.6.2-.1v.4h-.2v-.1zm.9 1.8.2.1v.1l-.1.1h-.2z"/><path fill="#000" fill-opacity=".1" d="m23.9 24.5.5.1.7 1.1.1 1-.1-.1-.2-.1v-.1l-.1-.2zm4.9 1.6.4.1h.4v1l-2.5 2 .8 2.7-.1.7-.9.4-1.8-.7-1.7-1-.8.8-1.5.6-.6-.2q-.4 0-.4-.5l.7-.2q.8-.5 2-1.7l1 .8q4.8 3.5 2.4-2.5l.2-.1 2-1.7z"/><path fill="#760303" d="m23.9 24.5.9 1.6v.3l.1.1.2.1-.9-.2-1-2.2zm3.7 1.8 1.3-.2-.4.5-2 1.7-.2.1q2.4 6-2.3 2.5l-1.1-.8q-1.2 1.2-2 1.6-.4.3-.7.3v-.4l.4.1 2.1-2 3.5 1.8.3-.5-.8-3 1.9-1.3zm-4.4-.2.1.1v.2H23v-.2zm-.3 1.7.1-.2.2-.1h.1l.2.2-.1.2zm-.2.9v.2l-.3.1h-.2l-.2-.2.1-.3.3-.1h.3zm1.8-1.3.1.1v.3H24l-.1-.1v-.3h.5m-.7.9h.4l.2.4-.2.3q-.2.3-.4.3l-.4-.1-.2-.3.1-.5zm1.3.6.2.1.1.1-.1.2h-.3V29zm-3.6.8v-.1h.3v.2h-.2z"/><path fill="#ba3fa2" d="m25.1 26.6.1.1h.2v.1l2.1-.5v.4L25.6 28l.8 3-.2.5-3.6-1.8-2 2-.5-.1.8-2.1-.2-.1-.2-.2-.7-1q-.9-1.4 2.3-1v-.1q.6-2.7 1.1-3l1 2.3zm-2-.5-.1.1v.1l.1.1h.1V26zm-.3 1.8.1.1h.4v-.4H23l-.2.1zm-.2.9v-.3h-.4l-.2.1-.1.3.2.1.2.1.3-.1zm1.8-1.3H24l-.1.3.1.1h.5v-.2zm-.7.9-.4.1-.2.5.2.3h.4q.3 0 .4-.2l.2-.4-.2-.3zm1.3.6-.1.1v.3h.3l.1-.2-.1-.1zm-3.6.8v.1h.3v-.2h-.2z"/><path fill="#a96552" d="M31.1 26.5v1.1q-1.3 1.6-3.7.9v-4.7l-1 .1-.8.8v1.5q-.4 1.8-2.4 2.1l-1-1q.7-2.2-.6-4.4H20l-.8.4-1 4.4-2.1-.1q-.4-1.4.6-2.9.2-.8-.3-1.2h-.9l-1.4 2.3h-1.3v-3.6h-2.2l-1.7 1.3H6.2v-1.1l1-1.9h2.2l1.1-.7 8.6-.3 11.2 3.3v.7h-1q-.2.5.6 1 1.3.5 1.2 2m-1.9-.9-.5-.4-.5.4-.2.9.2.8q.2.3.5.3t.5-.3l.2-.8zm-15.4-4.4-.2.8.2.9.3.4q.2 0 .3-.4.2-.4.2-.9l-.2-.8-.3-.3zm-4.4 0-.7-.1-.7.1-.2.4.2.4.7.1.7-.1.2-.4z"/><path fill="#bb8373" d="m29.2 25.6.2.9-.2.8q-.2.3-.5.3t-.5-.3l-.2-.8.2-.9.5-.4zm-15.4-4.4.3-.3.3.3.2.8q0 .5-.2.9-.1.4-.3.4l-.3-.4-.2-.9zm-4.4 0 .2.4-.2.4-.7.1L8 22l-.2-.4.2-.4.7-.1z"/></g></defs><g clip-path="url(#a)"><use xlink:href="#b" width="68.8" height="82.3" transform="translate(1 1)"/></g></svg>