<svg xmlns="http://www.w3.org/2000/svg" xmlns:xlink="http://www.w3.org/1999/xlink" width="94" height="93" viewBox="0 0 94 93"><defs><clipPath id="a"><path d="M1 1h92v91H1z"/></clipPath><g id="b"><path fill="#130c04" d="m45.4 6 .4-3.5 40.4 20.2-4 2-8-4.2-5.8-2.9L51.1 9zM0 22.7l8.5 4.1v3.1l1.2-2.5L24 34.3v3.3l.9-3 19.4 9.3 2 2-.3 7.2-12.5-6-6.5-3.3-10.7-5.2-5.1-2.6-2-1-7.5-3.6-1-.5-.3-.2-.4-.2zm45.6 58.6.1 9.6L0 68.2v-7.8l35.2 16.2-2.2-3-7.8-10.5-8.7-11.8-8.2-11-6.7-9 6.5 3.2 35.6 46h.1z"/><path fill="#2c1e0a" d="M45.8 2.5 45.4 6l-37 18.3-3.2-1.2zM49 43.7l42.2-21v6.8l-1.6.9-5.2 2.7-10.7 5.6-6.6 3.4-13 6.9 12.4 4.7 7.9 3 9 3.5 3.3 1.3 2.4.9 1.8-.8.3 6.6-45.5 22.7-.1-9.6L83.1 65l-2.5-.9-6-2-8.3-3-11.2-3.9-7.9-2.8-1.2.7.3-7.2zm6 11.5 11.3 3.9 8.3 3 6 2-5.8 2.5-.2-4.5.2 4.5-9.1 4L55.1 75zm28.2 5-8.9-3.5-.7-18 10.7-5.6zm-17.1-1.1-.6 11.4z"/><path fill="#2f2113" d="m45.4 6 5.8 3-35 19-7.8-3.7z"/><path fill="#48341e" d="m51.2 9 17.2 8.6L32.8 36l-16.6-8z"/><path fill="#5a3f25" d="m68.4 17.7 5.8 2.8L43 40.6l-10.1-4.7z"/><path fill="#44301c" d="m74.2 20.5 8 4.2-35.7 17.6-3.5-1.7z"/><path fill="#4d3620" d="m82.3 24.7 3.9-2L45.8 2.5 5.1 23.1l3.2 1.2 7.8 3.7 16.7 7.9 10 4.7 3.6 1.6zM49 43.7l-4.7.1-19.4-9.2-.9 3v-3.4L9.7 27.4 8.5 30v-3.1L0 22.7 45.5 0l45.7 22.7z"/><path fill="#97633e" d="m44.3 43.9 4.7-.2-2.7 2.2z"/><path fill="#130e04" d="m33.6 47 .4 18zL27 43.8l-1.1 11 1-11-10.6-5.2-5.1-2.6 5.2 6.8-.1-4.2v4.2l9.6 12 8 10.1 11.5 14.3.6-26.1zm-32-15.6 6.7 9 8.2 10.9 8.7 11.8L33 73.6l-8.4-4 .6-6.7-.6 6.8-8-3.6-7.5-3.5-7.5-3.4zm14.9 20 .1 14.9zm-8.2-11 .8 22.5z"/><path fill="#180f05" d="m25.9 54.9 8 10 11.5 14.3.2 2.1-1.8-.7-.1-.1L8 34.5l1.2.5 1.9 1 5.2 6.8zM33 73.8l2.2 2.9L0 60.4l1.6-1.1 7.5 3.5 7.5 3.4 8 3.5z"/><path fill="#231807" d="M45.4 79.3 46 53l1.3-.7 7.8 2.8V75zm21.1-25.6L54.1 49l13-6.9z"/><path fill="#20150b" d="m80.6 64.1 2.5.9-37.5 16.3-.2-2L55 75l10.6-4.5 9-4z"/><path fill="#000" d="m90.9 61.6-1.8.8-2.4-.9 2.9-1.3z"/><path fill="#36250c" d="m86.7 61.5-3.4-1.3 1.1-27.1 5.2-2.7v29.8zm-12.2-4.7-7.9-3.1.6-11.6 6.6-3.4z"/><path fill="#312f28" d="m89.6 30.4 1.6-.9zm-88 1-.9-.5z"/><path fill="#231d07" d="m8.1 34.6-6.5-3.2L9.4 35z"/><path fill="none" stroke="#24160a" stroke-linecap="round" stroke-linejoin="round" stroke-opacity=".5" stroke-width="__RESOLUTION__" d="M91.2 22.7 45.5 0 0 22.7v7.8l.4.2.3.2.9.5 6.7 9 8.2 10.9 8.7 11.8L33 73.6l2.2 2.9M34 64.9 33.5 47 27 43.8l-1.1 11m19.5 24.5L46 53l-12.5-6m13.8 5.3 7.8 2.8L66.3 59l8.3 3 6 2 2.5.9m-37.4 26 45.5-22.7-.4-6.6-1.2-1.4V30.5l1.6-1-1.6.9-5.2 2.7-10.7 5.6-6.6 3.4-13 6.9 12.4 4.7 7.9 3 9 3.5 3.3 1.3 2.4.9m2-32.8v-7M74.8 66.7l-.2-4.5m15-1.9-3 1.3M67.2 42.1l-.6 11.6m16.8 6.5 1.1-27.1m-10.7 5.6.7 18M0 60.5v7.8L45.7 91m9.4-15.8v-20m10.6 15.3.6-11.4m-41.1 4-.6 6.6m-23-10.4L.1 60.4m.6-29.5 1 .5m9.5 4.6 5.1 2.5L27 43.8m-10.7-5.2v4.2m.3 23.4-.1-14.9m-14.9-20v28m7.5 3.5-.8-22.4" vector-effect="non-scaling-stroke"/></g></defs><g clip-path="url(#a)"><use xlink:href="#b" width="91.2" height="90.9" transform="translate(1 1)"/></g></svg>