<svg xmlns="http://www.w3.org/2000/svg" xmlns:xlink="http://www.w3.org/1999/xlink" width="44" height="24" viewBox="0 0 44 24"><defs><clipPath id="a"><path d="M1 1h42v22H1z"/></clipPath><g id="b"><path fill="#352415" d="m25 1.6 1.3.4v.4l-.1.3-.2.1-1.7-.2h-.2l-.2-.3v-.6l.6-.2h.4zm3.7 1.3v.3l-.2.1-.9-.2.1-.4.1-.2h.2zm-4.5 1.2.8 1.3.5.7-.2 1.1q-1.4 1.3-3.2 2.1l-1 .4q-1.5-.1-3.2.6h-.1l-1.7-.3-1.3-.3-.9-1 .7.1 2.2.4 4.8-.6q.8-.3 1.5-.8 2-1.5 1.1-3.6m1.4 8.7-.1 1.4q-4.6 2.3-8.3-.4l-.1-.3-.8-.5.2-1.5q.1 1.5 1.5 2.3 3.8 1.7 7.3-.6h.2zm-8.6 2v.9q-3.6 1.6-6.5-.9l.2-1.2q0 1.1 1 1.7 2.8 1.2 5.3-.5m-4.5-2.4-.2-.1-.2-.3-.1.1-.3.2-1.4.3-.1.1h-.5l-1.3-.6-.6-.5v-1l.1-.1q1.6 1.6 3.9 1.1l-.3-1.2-.3-.2 1.3 1q1.6 1.3 3.6.5l-.4-1.2.3.3v.2l.1.2.1.3q.4.7 0 .8l-.2.2-.5.2-.5-.3q-1.2-.3-2.5 0m-4-3.1L6.7 8.3l-.1-.4-.2-.2h.5l1.1.6 2 1.1zm-2-.2v.9Q3 11.8 0 9.2L.2 8q0 1.1 1 1.7 2.7 1.2 5.3-.4m2.6-3.4h.7-.1q-.4-.3-.4-1.4l.3-1q-.2 1 .1 1.6l.1.2.4.6zm24 1.4v.9q-4 1.8-7.2-1l.3-1.3q0 .7 2 1.7t4.8-.3m3.6.2h.1l1.4.1.2.1v.5q-.4.4-1 .5l-.7-.2h-.1l-.1-.1v-.7zm4.6 2.7v.9q-2 1-3.6-.3v-.7h.1l1.5-.2 1.8.1zm-2.6.6v-.1h-.3zm-3.4 1.9q0 1.3.2 1.1v.1q-5.1 2.3-9.2-1.3l.2-1.7q.1 1.5 1.5 2.3 3.8 1.8 7.3-.5m-8 7.4v.9q-3.6 1.6-6.5-.9l.1-1.2q.1 1.1 1.1 1.6 2.7 1.3 5.3-.4"/><path fill="#c2883b" d="m21.2 9.7 1.3.2q2.3.8 3 1.6l.1 1.4-.1.3-.2.2q-3.5 2.2-7.3.4-1.4-.7-1.5-2.2l.1-.1 1.2-1.2h.1q1.7-.7 3.3-.6m-13.3.9.2-.8.4-.4h1.4L8 8.5l-1-.8h-.1l-.6-.4q.7-.9 1.8-1.1l1-.2h1Q12 7.3 14 8.4l.6.4-.7-.1 1 1 .8.9.4 1.3q-2 .7-3.7-.6l-1.2-1 .3.2.3 1.2q-2.3.5-3.9-1.1M26.2 6v-.2l1-.9 3.6-.3q1.8.6 2.3 1.3t0 1.3v.1q-2.9 1.3-4.9.3t-2-1.7"/><path fill="#986b2e" d="M17.2 14q.1.5-.1.9H17q-2.6 1.7-5.3.4-1-.5-1-1.6l1-1 .8-.2q1.3-.3 2.5 0l.5.3.8.3.8.5zM6.7 8.4q.1.5-.1.9h-.1q-2.6 1.7-5.2.5Q.3 9 .1 8l1-1h.2l.6-.2q1.3-.3 2.5 0l.5.3.8.3.6.3.2.2zm2.9-4.9.5-.6 2-1.4L14.8 0h.1q4.6 1.5 7.2 2.6 1.2.5 2 1.5h.1q.8 2.2-1 3.7-.7.5-1.6.8l-4.8.6-2.2-.4-.7-.4q-2-1-3.8-2.5h.1l-.4-.6v-.2q-.4-.7-.2-1.7m17 7.5v-.2l1.3-1.2q2.6-1 4.6-.3 2.3.8 3 1.6.3 1 0 1.7l-.2.1q-3.5 2.3-7.3.5-1.4-.7-1.5-2.2M21 18.8h.1l.9-1 .9-.2q1.3-.3 2.4 0l.6.3.7.3.8.6.1.2v1h-.1q-2.6 1.7-5.3.4-1-.5-1-1.6"/></g></defs><g clip-path="url(#a)"><use xlink:href="#b" width="41.3" height="21.6" transform="translate(1 1)"/></g></svg>