<svg xmlns="http://www.w3.org/2000/svg" xmlns:xlink="http://www.w3.org/1999/xlink" width="55" height="46" viewBox="0 0 55 46"><defs><g id="B"><path fill="#a92918" d="m1 .5.3-.2.4-.3.6.3.4.2.5.2.3.1v.1h-.6l-.5.3h-.2Q1.4 1 1.4.8zm.7-.2v.2zl.8.2h-.3.2L2.1.2 2 0h-.3z"/><path fill="#640f0f" d="m1 .5.4.3q0 .2.8.4h-.1q-.4.2-.7 0H.8L0 1 .8.7z"/><path fill="#dc6a2e" d="M1.7.3V0H2v.2l.4.1h-.2l.3.1zl-.1.2z"/><path fill="none" stroke="#000" stroke-linecap="round" stroke-linejoin="round" stroke-opacity=".3" stroke-width="__RESOLUTION__" d="M2.2 1.2h.2l.5-.3h.6V.8L3.2.7 2.7.5 2.2.3 1.8 0l-.4.3-.3.2-.2.3V.7L0 1l.8.2h.6M3.2.7h.2l.2.1" vector-effect="non-scaling-stroke"/></g><g id="A"><path fill="#fdeebd" d="m2.3.8-.8.3q-.3.1 0-.2l.2-.2V.3L2 .2h.3z"/><path fill="#f8ce43" d="M2.3.8V.3L2 .2h-.2l-.2.3.1.2-.2.3q-.3.2 0 .1zM1.2 2.5l-1-.3q-.4-.4 0-.7l1.2-1q.6-.7 1-.4l.8.5.4.5Q3 2.4 1.2 2.4"/><path fill="#b7792f" d="m3.5 1.1.4.5q0 .3-.4.6l-1.1.3-1.2-.1q1.9 0 2.3-1.3"/><path fill="none" stroke="#000" stroke-linecap="round" stroke-linejoin="round" stroke-opacity=".3" stroke-width="__RESOLUTION__" d="m1.2 2.4-1-.3q-.4-.4 0-.7L1.4.5q.6-.7 1-.4l.8.5.4.5.4.5q0 .3-.4.6l-1.1.3z" vector-effect="non-scaling-stroke"/></g><g id="z"><path fill="#d07959" d="M30.2 0q3-.2 3.7 1.8v.4q-.5 1.5-9 3.4t-14.5.6l-7-1.4L2 4.6.8 3.9Q.1 3.5 0 2.6v-.1Q.1 1.5.9.8 1.4.2 2 .2l.1-.1 4.1.7Q17.7 2.3 28.9.3l1-.2zm-.4 0-.9.2h-.4zM2 2.6q14.2 2.7 28 0-13.8 2.7-28 0"/><path fill="#b6663d" d="M0 2.5Q.1 3.6.8 4l1.2.6 1.4.3 7 1.4q6.1 1.2 14.6-.6t9-3.3Q34.2 5 29.8 6q-13.5 3-25-.1l-1.4-.3L2 5.2.8 4.5Q0 4 0 2.8z"/><path fill="none" stroke="#000" stroke-linecap="round" stroke-linejoin="round" stroke-opacity=".3" stroke-width="__RESOLUTION__" d="M34 2.3v-.1l-.1-.4q-.6-2-3.7-1.7m-1.4.2q-11.2 2-22.5.5L6 .6H5L4.7.5l-2-.3-.5-.1H2q-.6.2-1 .8-1 .6-1 1.6h0m34-.2Q34.2 5 29.8 6q-13.5 3-25-.1l-1.4-.3L2 5.2.8 4.5Q0 4 0 2.8v-.3M28.6.3h.3" vector-effect="non-scaling-stroke"/><path fill="none" stroke="#f1a356" stroke-linecap="round" stroke-linejoin="round" stroke-width="__RESOLUTION__" d="M30.2 0h-.4l-1 .3M6.3.8l-4-.7m27.9 2.5q-14 2.7-28.1 0" vector-effect="non-scaling-stroke"/></g><g id="y"><path fill="#fff" d="M4.1 2 3 0q2 1.1 1.5 2h-.1l.8.2 1.5.4q.8.4 1.1 2Q8.1 6 7.1 7T4.6 8.2t-3-.6T0 5.1t1-2.3q.8-.5 2-.8l.3-.1-2-1q2.5-.2 2.3.9V2zm-1 1.7-.5-.2q-.3 0-.5.2L2 4l.1.5q.2.2.5.2l.5-.2.2-.5zm2.6 0-.5-.2-.4.2-.2.4.2.5q.1.2.4.2t.5-.2l.3-.5zm-1 2q-1.1.2-2 0 0 2 1.2 1.9.9.3.8-1.9"/><path fill="none" stroke="#000" stroke-linecap="round" stroke-linejoin="round" stroke-opacity=".2" stroke-width="__RESOLUTION__" d="M4.9 5.6Q5 7.8 4 7.5q-1.2 0-1.2-1.9 1 .2 2.1 0" vector-effect="non-scaling-stroke"/></g><g id="x"><path fill="#fff" d="m3.9.6.4-.4.9-.2.9.2.4.4-.4.4-.8.2h-.1l-1-.2zl.4.4.9.2v2.6l-.7-.1h-.2v-.1l-.4-.4z"/><path fill="#f8d0cf" d="m5.2 1.2.9-.2.4-.4v2.6l-.4.4H6l-.8.2z"/><path fill="#8e1b15" d="m6.6 3.2-.1.4Q6 6.9 6.2 9q0 2.3 1.9 6t.7 6L7 23.3l-1.3.1q2-.6 2.2-3.8-1-4-2-5.4l-.2-.4q0-1.6-.6-3 .5-4.2 0-6.8v-.2l.8-.1.1-.1z"/><path fill="#640f0f" d="M5.8 23.4h-.5l.7-1.7.3-3q0-1.2-.6-3t-.7-5T5.2 4q.5 2.6 0 6.8.6 1.4.6 3l.2.4q1 1.4 2 5.4-.2 3.1-2.2 3.8"/><path fill="#a92918" d="M5.3 23.4q-2.5-.4-3.5-1.2l-.3-.2-.4-.4-.5-1.2q-.3-1.6 0-2.7T2.5 15t2-4.8-.2-6.5h.2l.7.1V4q-.5 3.5-.2 6.7t.7 5 .5 3l-.2 3z"/><path fill="#dc6a2e" d="M1 21.6q-.5-.8-.7-1.9-.4-1.5-.2-2.7 0-1.2 1.6-3 1.6-1.7 2.2-4.6.4-3.1 0-6.2l.4.4q.4 3.2.2 6.6-.3 3.2-2 4.8t-2 2.7.2 2.7z"/><path fill="none" stroke="#000" stroke-linecap="round" stroke-linejoin="round" stroke-opacity=".2" stroke-width="__RESOLUTION__" d="M6.5.6 6.1.2 5.3 0h-.1l-1 .2-.3.4.4.4.9.2h0l.9-.2zv3Q6 6.9 6.2 9q0 2.3 1.9 6t.7 6L7 23.3l-1.3.1h-.5q-2.5-.4-3.5-1.2l-.3-.2-.4-.4q-.7-.8-.8-1.9-.4-1.5-.2-2.7 0-1.2 1.6-3 1.6-1.7 2.2-4.6.4-3.1 0-6.2V.6h0m2 13.2.2.4m-2.1-11" vector-effect="non-scaling-stroke"/><path fill="none" stroke="#000" stroke-linecap="round" stroke-linejoin="round" stroke-opacity=".2" stroke-width="__RESOLUTION__" d="m6.5 3.2-.4.4H6l-.8.2-.7-.1h-.2v-.1l-.4-.4" vector-effect="non-scaling-stroke"/><path fill="none" stroke="#000" stroke-linecap="round" stroke-linejoin="round" stroke-opacity=".3" stroke-width="__RESOLUTION__" d="M5.2 4q-.5 3.5-.2 6.7t.7 5 .5 3l-.2 3-.7 1.7" vector-effect="non-scaling-stroke"/></g><g id="w"><path fill="#640f0f" d="M2 2.9H0V0h2z"/><path fill="none" stroke="#000" stroke-linecap="round" stroke-linejoin="round" stroke-opacity=".3" stroke-width="__RESOLUTION__" d="M2 2.9H0V0h2z" vector-effect="non-scaling-stroke"/></g><g id="v"><path fill="#fbd868" d="M0 .4V0h3.6v.4z"/><path fill="#facd53" d="M0 .4h3.6v.3H0z"/><path fill="none" stroke="#7a6231" stroke-linecap="round" stroke-linejoin="round" stroke-opacity=".3" stroke-width="__RESOLUTION__" d="M3.6.4V0H0v.7h3.6z" vector-effect="non-scaling-stroke"/></g><g id="u"><path fill="#cab856" d="M0 .4V0h3.6v.4z"/><path fill="#c8a636" d="M0 .4h3.6v.3H0z"/><path fill="none" stroke="#000" stroke-linecap="round" stroke-linejoin="round" stroke-opacity=".3" stroke-width="__RESOLUTION__" d="M3.6.4V0H0v.7h3.6z" vector-effect="non-scaling-stroke"/></g><g id="t"><path fill="#fae46b" d="M0 .4V0h3.6v.4z"/><path fill="#f8ce43" d="M0 .4h3.6v.3H0z"/><path fill="none" stroke="#000" stroke-linecap="round" stroke-linejoin="round" stroke-opacity=".3" stroke-width="__RESOLUTION__" d="M3.6.4V0H0v.7h3.6z" vector-effect="non-scaling-stroke"/></g><g id="s"><path fill="#fbbf37" d="M0 .4V0h3.6v.4z"/><path fill="#fab422" d="M0 .4h3.6v.3H0z"/><path fill="none" stroke="#7a4900" stroke-linecap="round" stroke-linejoin="round" stroke-opacity=".3" stroke-width="__RESOLUTION__" d="M3.6.4V0H0v.7h3.6z" vector-effect="non-scaling-stroke"/></g><g id="r"><path fill="#640f0f" d="m2 2.8-.6-.3v.1l-1-.5V2L0 1.8l.2-.6V.9h.1L.7.3l1.2.2-.5.8v.5zm-.6-.3v-.7zM.3 1h1.1v.4V1zm0 .2V2z"/><path fill="#f4562f" d="M.7.3.5.2 1.6 0l3.1.4-2.8.1z"/><path fill="#a49c73" d="m4.7.4.4.7-.6.9-3.1-.7.5-.8z"/><path fill="#cdc8b1" d="M4.5 2 2.3 3.2h-.1L2 2.7l-.6-1v-.5z"/><path fill="none" stroke="#000" stroke-linecap="round" stroke-linejoin="round" stroke-opacity=".3" stroke-width="__RESOLUTION__" d="m2 2.8-.6-.3v.1l-1-.5V2L0 1.8l.2-.6V.9h.1L.7.3.5.2 1.6 0l3.1.4h0l.4.7-.6.9h-.1L2.3 3.2h-.1zl-.6-1v.7m0-.7V1H.3m1.1.4.5-.8L.7.3M.3 2v-.9m1.1.2 3 .7M2 .5 4.7.4" vector-effect="non-scaling-stroke"/></g><g id="q"><path fill="#f5f1ef" d="m16.3 2-.8.9zl-1-.6-.3-.1-.7.9.7-.9-2.2-.7-2.2-.4L9 0h-.3l-4 .6-2 .7-1.5 1q-1 .9-1 2v.8q0 .3.2.5l.9 1.1Q.8 6.1.8 5.4q-.2-1 .5-1.9l.5-.4L3 2.3l2.4-.8 3.7-.3 3.7.5 1.4.5.5.2.8.5 1.2.9.8-.5-.8.5.4.5.5.9v.6l.3-.8v-.6l-.4-1.2zm-3.5-.4v-1zM10.6.8V.2zm-2 0V.1zM1.9 3l-.6-.5zm-1 2.3-.5-.1zM4.7.8l.7.8z"/><path fill="#e2d9d1" d="m16.3 2-1-.6-.3-.1-2.2-.7-2.2-.4L9 0h-.3l-4 .6-2 .7-1.5 1q-1 .9-1 2v.8q0 .3.2.5l.2.6-.4-.6L0 5v-.3q0-2 2.7-3.3Q5.3 0 9 0t6.4 1.4q2.7 1.3 2.7 3.3V5l-.6 1.4-1 .9-.4.1h.1l1-1 .3-.5v-.7l-.5-.9-.4-.5-1.2-.9-.8-.5-.4-.2q-.7-.4-1.5-.6L9 1.2l-3.7.3-2.4.8-1.2.7.5.4-.5-.4-.5.4q-.7.9-.5 2l.6.3-.6-.4q0 .8.5 1.5l.7.7-.7-.7v.3l.3.3 1 .5-.4-.4q-.6-.7-.6-1.5v-.4Q2 4.2 3.9 3.2 6.1 2 9.2 2.1t5.4 1.1q2 1 2.2 2.4v.5l.8-.6-.8.6-.3 1 1-1.2.4-.9v-.6l-.4-1.2zm1.3 3.9-.3.5-1 1 .2-.4zm-1.2 1.5.3-.1zl-.4.2.1-.2h.1zM.7 6.3l-.2-.5v-.1l.9 1.1v.3zm1 1 .4.2zm.6.3L2 7.5z"/><path fill="#e4dcd6" d="m16.3 7.4-.1.1H16l-1.4.6.6-.2.4-.4.8-.5zM8.2 9.3l-.4-.1zh-.4L7 9h.8zm8-1.7"/><path fill="#ece4e1" d="m16.8 6.1-.3 1-.8.5-.4.3-.6.2q-2.2.8-5 .8h-.2l3.7-.6q1.3-.5 1.8-1l.8-1q.3-.5-.1-1.4-.3-1-2.1-1.7t-4.3-.7-4.4.7-1.8 1.3l.3 1.3q0 .8.5 1.3.3.5.6.6L5 8l.5.2-3.3-.7q-.6-.7-.6-1.5v-.4Q2 4.2 3.9 3.2 6.1 2 9.2 2.1t5.4 1.1q2 1 2.2 2.4z"/><path fill="#a68371" d="m2.2 7.5 3.3.7h.2l.3.2 3.3.4h.4q2.8 0 5-.7l-2 .7L9 9H7l-1.2-.2-.7-.1-.7-.2-1.8-.7z"/><path fill="#fafcf5" d="M5.5 8.2 5 8l-.5-.3L4 7q-.4-.5-.5-1.2l-.2-1.3Q3 4 5 3.2q1.8-.8 4.3-.7 2.5 0 4.3.7 1.8.8 2.1 1.7t.1 1.4l-.8 1q-.5.5-1.8 1l-3.7.5-1.2-.2h-.8l-1-.2h-.3zl.7.2h.4l.9.2h.8l1.2.3h-.2L6 8.3h-.3zM15.1 5q-.3-.8-1.8-1.5-1.6-.7-3.8-.7t-3.8.7-1.4 1.3l.4.8.3 1q.1.7.4.8l.3.3q1.6.7 3.8.7l3.4-.4q1.2-.5 1.6-1l.7-.8q.2-.5-.1-1.2M6.2 8.4H6z"/><path fill="#fff" d="M15.1 5q.3.8.1 1.2l-.7.8q-.4.5-1.7 1l-3.3.4q-2.2 0-3.7-.7l-.4-.3q-.3-.2-.5-.9l-.2-.9-.4-.8Q4.1 4 5.8 3.5t3.8-.7 3.8.7T15 5"/><path fill="#bfa999" d="m16 7.7-1.4 1-1.7.7-3.7.4L6 9.5q-1.2-.3-2.2-.8l-.3-.2-.8-.5-.1-.1 1.4.7.3-.2.8.3.9.2 1.8.2.4.1H9l3.8-.4 1.9-.7 1.4-.6zm-11.6.7-.4.2L2.8 8l-.1-.1-.4-.4.4.3z"/><path fill="#c9b8a9" d="M7.8 9.1 6 8.9l-.9-.2.7.1L7 9z"/><path fill="none" stroke="#000" stroke-linecap="round" stroke-linejoin="round" stroke-opacity=".3" stroke-width="__RESOLUTION__" d="m15.5 2.9.8-.9M15 1.3l-.7.9m2.4 1.6.8-.5m-1.2 4v.1l-.1.1m1.4-2-.8.6-.3 1-.2.3m.5-1.3v-.5q-.2-1.4-2.2-2.4Q12.3 2 9.2 2.1T3.8 3.2q-2 1-2.1 2.4l-.1.4q0 .8.5 1.5h.1l.4.4h0l.9.6.3.2q1 .5 2.2.8l3.2.3 3.8-.5 1.6-.6 1.4-1h0l.1-.2m-3.3-7v1.2M1.8 3l.5.4M10.6.2v.6m-2-.7v.7M1.3 2.5l.6.5m-1 2.3.6.4M.3 5.2l.5.1m4.6-3.8L4.7.7" vector-effect="non-scaling-stroke"/><path fill="none" stroke="#fff" stroke-linecap="round" stroke-linejoin="round" stroke-opacity=".5" stroke-width="__RESOLUTION__" d="m16.3 2-1-.6-.3-.1-2.2-.7-2.2-.4L9 0h-.3l-4 .6-2 .7-1.5 1q-1 .9-1 2v.8q0 .3.2.5h0l.2.6-.4-.6L0 5v-.3q0-2 2.7-3.3Q5.3 0 9 0t6.4 1.4q2.7 1.3 2.7 3.3V5l-.6 1.4m-.1-3.2L16.3 2m1.3 3.9.3-.9v-.6l-.4-1.2m0 2.6V6l-1 1.1-.8.5-.4.3-.6.3-2 .7L9 9H7l-1.2-.2M5 8.7l-.7-.2H4M2.8 8l-.1-.1-1-.6-.4-.2-.6-.8m15.1 1.4.4-.2M1.3 6.8l.7.7h.3l.4.3 1.6.6m-3-1.6-.9-1" vector-effect="non-scaling-stroke"/><path fill="none" stroke="#fff" stroke-linecap="round" stroke-linejoin="round" stroke-opacity=".9" stroke-width="__RESOLUTION__" d="m17.6 5.9-.3.5-1 1m0 0 .3-.1m-14.4.2 3.3.7.7.2h.4l.9.2h.8l1.2.3h.2q2.8 0 5-.8l1.4-.6h0l.1-.1m-12 1.2L2.7 8l-.1-.1M1.3 3.4q-.7.9-.5 2 0 .6.5 1.4v.3m.7.4h.1m0 0-.5-.2m4.4 1h-.3m.3 0h.2" vector-effect="non-scaling-stroke"/></g><g id="p"><path fill="#a92918" d="M3.9 3.2V.6l.4-.4.9-.2.9.2.4.4-.4.4-.8.2h-.1v2.6l-.7-.1-.2-.1zm.5 0 .1.5zM3.9.6l.4.4.9.2-1-.2zm2 13.2v.4q.1 1.4.5 3.3t-.2 3q-.5 1-2.2 1t-2.6-1q-1-1.1-.5-2.7l1-3.3.1-.2.3-.3.5-.7-.5.7-.2.3q.2-.6.7-1 .6-.4 1.4-.4 1.3 0 1.6.9m-2.6 1.6-1.7 2.8q.5 2 3.8 2 .8-1.9 0-3.7l-1 1.3v-3.3l-1.1 3z"/><path fill="#6f1511" d="M6.5.6v2.8l-.3.2H6l-.2.1-.6.1V1.2l.9-.2z"/><path fill="#f2d73c" d="m6.6 3.2-.1.4Q6 6.8 6.3 9t2 6.6.5 6l-1.7 1.8-.8.1h-.1l.4-.2L8.1 22q1.2-1.3-.3-6-1.6-5-1.6-6.2-.4-3 0-6v-.2l.3-.2z"/><path fill="#f0bc44" d="M6.2 23.4h-.4z"/><path fill="#cfa410" d="M5.8 23.4q-2.4-.4-3.4-1.2-1.1-.9-1.5-2.4Q.4 18.2.6 17q.1-1.2 1.4-2.7v.2L.8 17.8q-.4 1.6.5 2.7.8 1 2.6 1 1.7 0 2.3-1 .5-1.1.2-3-.5-1.9-.5-3.2L7 19q.1 2.6-1.2 4.3m-3-10q1.1-1.7 1.6-4 .4-2.9.1-5.7l.7.1v7l.6 3q-.3-1-1.6-.9-.8 0-1.4.4"/><path fill="#f9f097" d="M5.7 23.4h-.2l-.4-.1q-2.3-.3-3.3-1.1-1.2-.9-1.5-2.4-.4-1.6-.2-2.8 0-1.2 1.6-3 1.6-1.7 2.2-4.6.4-3.1 0-6.2l.4.4.2.1q.3 2.8-.1 5.6-.5 2.4-1.6 4-.5.4-.7 1Q.6 15.8.5 17t.2 2.8 1.5 2.4q1 .8 3.4 1.2"/><path fill="#e6c71e" d="M5.2 3.8h.6l.2-.1.1-.1v.1q-.2 3 .1 6.1 0 1.3 1.5 6t.4 6l-1.5 1.4-.4.2h-.4Q7.1 21.7 7 19l-1-4.9-.2-.4-.6-3zm-2 11.6v2.2l1-3.1v3.3l1.1-1.4q.8 1.9 0 3.8-3.2 0-3.8-2z"/><path fill="none" stroke="#000" stroke-linecap="round" stroke-linejoin="round" stroke-opacity=".2" stroke-width="__RESOLUTION__" d="M3.9 3.2V.6h0l.4-.4.9-.2h0l.9.2.4.4h0v3Q6 6.8 6.3 9t2 6.6.5 6l-1.7 1.8-.8.1h-.8m-.4-.1q-2.3-.3-3.3-1.1-1.2-.9-1.5-2.4-.4-1.6-.2-2.8 0-1.2 1.6-3 1.6-1.7 2.2-4.6.4-3.1 0-6.2h0M6.5.6l-.4.4-.8.2h-.1l-1-.2L4 .6m2.3 3 .3-.2m-.7 10.4.2.4" vector-effect="non-scaling-stroke"/><path fill="none" stroke="#000" stroke-linecap="round" stroke-linejoin="round" stroke-opacity=".2" stroke-width="__RESOLUTION__" d="m3.9 3.2.4.4.2.1-.1-.5m.8.6h.6l.2-.1.1-.1h0m.4-.2v-.2m-2 .5.7.1M2 14.3l.3-.3.5-.7" vector-effect="non-scaling-stroke"/></g><g id="o"><path fill="#c6dce3" d="m29.4 1.4-.6-.1Q19.3.7 9.9.9l-8.2.3-1-.8L10 0q9.7-.2 19.4.5z"/><path fill="#8bb4c9" d="M1.7 1.2 9.9.9q9.4-.2 18.9.4h.6v.3q.3 7.9-.6 15.8-10.5.3-21.2 0l-6.3-.2H1v-.5q-.2-7.8.6-15.5"/><path fill="#3d6c7e" d="M29.4 1.4V.6l.4.8h.1q.4 8.2-.6 16.5-10.8.4-21.7 0l-6.4-.2-1.1-.5h1.1l6.4.2q10.6.3 21.2 0 .9-8 .6-15.8zm-.6 16 .5.5z"/><path fill="#5596ae" d="m.7.4 1 .8q-.8 7.7-.6 15.5v.5h-1Q-.2 8.8.6.4z"/><path fill="none" stroke="#000" stroke-linecap="round" stroke-linejoin="round" stroke-opacity=".2" stroke-width="__RESOLUTION__" d="M1.7 1.2 9.9.9q9.4-.2 18.9.4h.6V.7Q19.7-.1 10 0L.7.4zq-.8 7.7-.6 15.5v.5h.1l6.4.2q10.6.3 21.2 0 .9-8 .6-15.8v-.2m0-.8.4.8h.1q.4 8.2-.6 16.5-10.8.4-21.7 0l-6.4-.2-1.1-.5Q-.2 8.8.6.4h.1m28.7 17.5-.6-.5M.1 17.2h1" vector-effect="non-scaling-stroke"/></g><g id="m"><path fill="#fafcf5" d="M3 .5h1v.3zM4 3v2Q1.9 4.8.5 2.3V.5h.2Q2 2.7 4 3m0 4.3v2.4Q1.9 9.3.5 7V4.5Q1.9 6.8 4 7.3m0 4.6v2.5Q1.9 14 .5 11.7V9.2q1.4 2.3 3.5 2.7m0 4.7v2.6q-2.1-.4-3.5-2.7v-2.7q1.4 2.4 3.5 2.8m0 4.8v2.4Q1.9 23.4.5 21v-2.4Q1.9 21 4 21.5M4 26v2.8Q1.9 28.4.5 26v-2.8Q1.9 25.6 4 26m0 5v2.7q-2.1-.4-3.5-2.8v-2.7Q1.9 30.6 4 31m0 4.9v.9q-.7.7-1 1.6L1.7 37 .5 35.4v-2.2q1.4 2.3 3.5 2.7"/><path fill="#db431e" d="m3 .5 1 .3V3Q2 2.6.7.5zm1 4.6v2.2Q1.9 6.8.5 4.5V2.3Q1.9 4.7 4 5.1m0 4.6v2.2Q1.9 11.5.5 9.2V7Q1.9 9.3 4 9.7m0 4.7v2.2q-2.1-.4-3.5-2.8v-2.2Q1.9 14 4 14.5m0 4.8v2.2Q1.9 21 .5 18.7v-2.2q1.4 2.3 3.5 2.7m0 4.6v2.1q-2.1-.3-3.5-2.7V21q1.4 2.4 3.5 2.8m0 5v2.1q-2.1-.3-3.5-2.7V26q1.4 2.4 3.5 2.8m0 4.9v2.2q-2.1-.4-3.5-2.7v-2.3q1.4 2.4 3.5 2.8m-1 4.7-1.3-.9q-.6-.1-1.2-.7v-1.4L1.7 37z"/><path fill="none" stroke="#000" stroke-linecap="round" stroke-linejoin="round" stroke-opacity=".2" stroke-width="1" d="M4 .8V.5H.7M4 .8v36q-.7.7-1 1.6l-1.3-.9q-.6-.1-1.2-.7V.5"/><path fill="none" stroke="#000" stroke-linecap="round" stroke-linejoin="round" stroke-opacity=".2" stroke-width="__RESOLUTION__" d="m3 .5 1 .3M.5.5h.2" vector-effect="non-scaling-stroke"/></g><g id="l"><path fill="#e4e0cf" d="M37.4 12.1q-.4.5.2 1.3.5 3.9-.8 8.1l-.2.7-.9 2.1q-1.7 3.4-4.4 6.5-1 .1-1.2 1.3-2.9 3.1-6.7 5.8-4.6-2-3.5 2.4l-3.8 2.2 4.6.2q8.3-.3 15.8-4.8 4.4-5.6 5.3-12.7L42 21h.4l-.5-.1-.1-4.2.6.4-.7-.8q-.4-2.7-1.3-4.8l.2-.1h-.3q-.7-1.5-1.7-2.7l.4.3.3.2 2 3.1q3.4 6.5.9 15.7T32.1 41t-15.3 2.3-10.4-7.8q-.1-.4-1.4-1.4 3.4 2 6.4 2.5l5.2.2h.5q9.9-1.2 15.6-10.1l.8-1.1 1.9-4.2q2.6-7.7-.5-13.8l-.2-.4h.8q1.4 2.4 1.9 5m-1.9-5h-.8l-1-1.7 1 .5 2 .9 2.4 2-.4-.2zm-2.8 19.5q-5.7 8.9-15.6 10 4.3-.6 8.5-3.2 4.4-2.8 7.1-6.8M16.1 42.5q-7.5-10-6.3-2.5 1.6-2 6.3 2.5M33 9.7q1.6 4.7-.4 10.4-2.4 6.7-8.5 10.7-5.2 3.2-10.5 3 4.3-.6 8.5-3.3 7-4.5 9.7-12.1 1.7-4.6 1.2-8.7M21.4 8l2-.4q2.2 1.2 3.4 3.5 1.4 2.9.1 6.6-1 3-3.4 5l-2.6 1.5h-.1l-1.9 1.1q-2.5 1-5 .6-3.3-.4-4.6-3l-1.9-2.8.5.4.8.7.8.7q1.6 1.5 3.1 1.7 2.1.3 4.2-1.2l1.9-1.4 1.7-1.8.8-1.6 1-2.1.9-1.6q1 4.8-1.1 9.5 2.4-2.1 3.4-5.1 1.4-3.7-.1-6.7-1.2-2.2-3.4-3.4zm-.5 16.2 1.1-.8zl-2 1.1z"/><path fill="#fafcf5" d="M37.6 13.4q-.6-.8-.2-1.3.6-.7 3-.7h.3l-.2.1q-2.1 1 1.3 4.8l.8.8-.7-.4q-3.4-2-4.3-3.3m-2.9-6.2.2.3q3.1 6.2.5 13.9l-2 4.2-.7 1.1q-2.7 4-7 6.8-4.3 2.6-8.6 3.3h-.6l-5.1-.1Q8.4 36 5 34l-.7-.8-.5-.4-.7-.9-.3-.3-1.1-2.1q-2.5-5.9.3-13.3t9.4-12Q18-.2 24.9.6q3 .4 5.4 1.7 2 1.3 3.4 3.3zM42 20.9h.5l-.5.1q-5 .3-1.7 8-4-4.8-3.7-6.8l.2-.7q.9-1.5 5.3-.6M16 42.5q-4.7-4.6-6.3-2.5-1.2-7.6 6.3 2.5m3.8-2.2q-1.1-4.4 3.5-2.4 1.8.9 4.6 2.8-8.7-2.4-7.3 2zM30 32.2q.1-1.3 1.3-1.4 1-.2 3 .5 1.5.5 3.4 1.5-2-.6-3.2-.6-4 0-2.7 6.2-2.1-4.4-1.8-6.2m3-22.6-.8-1.8q-.9-1.7-2.1-3 1.2 1.3 2.1 3zq1.6 4.7-.4 10.4-2.4 6.7-8.5 10.7-5.2 3.2-10.5 3l-2.1-.2-2.6-.8 2.6.8 2.1.1q4.3-.6 8.5-3.2 7-4.5 9.7-12.1 1.7-4.6 1.2-8.7M2 23.4q.2 2 1 3.9 1.7 4 5.9 5.5l-3.2-5.6q2 2.8 6.3 3.5 5.4.8 10.6-2.6t7.2-9.2-.3-10.2q-1.5-2.8-4-4.1l4.6.4q-2.6-2.7-6.7-3.2-6.1-.7-11.9 3.3Q5.7 9 3.3 15.6 1.7 19.8 2 23.4M25.6 4.6q2.4 1.3 3.9 4 2.3 4.6.3 10.3t-7.2 9.2T12 30.7q-4.3-.7-6.3-3.5l-.9-1.6-.5-1.6q-1-3.6.8-8.2.3-1.1.8-2.1 1.9-4.3 6.2-7.1 4.9-3.4 10-3 1.9.2 3.4 1m-5.1 3-.1-.1zl.9.5V8l.1.1 2-.4q2.2 1.2 3.4 3.5 1.4 2.9.1 6.6-1 3-3.4 5l-2.6 1.5h-.1l-1.9 1.1q-2.5 1-5 .6-3.3-.4-4.6-3l-1.9-2.8V19l-.2-2.2.1 2.2.5 1 1 1.2.6.7h.1q1.6 1.5 3.1 1.7 2.1.3 4.2-1.2l1.9-1.4 1.7-1.8.8-1.6 1-2.1.9-1.6q.3-2.6-1.9-5.9zM7.4 15l-.2 1.8zq1.2-3.6 4.2-5.9l1.7-1q-5 2-6 6.9m13-7.5-3.9-.3-3.1.9 3.1-.9zM7.2 16.8q.9 3.4 2.3 5.1-1.4-1.6-2.3-5.1m5.4 6.8q3.2.1 7.8-4.4-4.6 4.5-7.7 4.4"/><path fill="#d2cab0" d="M37.4 12.1q-.5-2.5-1.9-4.9l3.2 1.5q1 1.2 1.7 2.7-2.4 0-3 .7m3-.6q1 2.1 1.4 4.8-3.4-3.8-1.3-4.8m1.4 5.2.1 4.2q-4.4-.9-5.2.6 1.3-4.2.8-8.1.9 1.3 4.3 3.3M42 21l-.2 4.2q-1 7-5.3 12.7-7.5 4.5-15.8 4.8l-4.6-.2 3.8-2.2.8 2.4q-1.4-4.4 7.3-2-2.8-2-4.6-2.8 3.8-2.7 6.7-5.7-.3 1.8 1.8 6.2-1.4-6.2 2.6-6.2 1.4 0 3.3.6l-3.3-1.5q-2-.7-3.1-.5 2.6-3.1 4.4-6.4v-.1l.8-2.1q-.2 2 3.6 6.8-3.2-7.7 1.8-8M9 32.8q-4.2-1.5-6-5.5-.7-1.9-.9-4 1.2 1.1 2.3.8l.5 1.5.9 1.6zM20.4 7.6l.9.4v-.1l.1.1h-.2.2l.5.2-.5-.2.5.2q2.2 1.2 3.4 3.4 1.4 3 .1 6.7-1 3-3.4 5 2-4.6 1-9.4.4-2.6-1.8-5.9z"/><path fill="#eeeadf" d="M2 23.4q-.3-3.6 1.3-7.8Q5.7 9 11.5 5.1t11.9-3.3q4.1.5 6.7 3.2l-4.6-.4q-1.5-.8-3.4-1-5.1-.4-10 3Q7.8 9.4 6 13.7l-.8 2q-1.8 4.7-.8 8.4-1.1.3-2.3-.7M7.4 20v-1l.3 1 1 1.2-.7-.6zm0-5.2Q8.3 10 13.3 8l-1.7 1q-3 2.3-4.1 5.9z"/><path fill="none" stroke="#000" stroke-linecap="round" stroke-linejoin="round" stroke-opacity=".2" stroke-width="__RESOLUTION__" d="M35.6 7.2h-.9m4.4 1.7-.4-.2M7.4 20.2V19l-.2-2.2.1-1.9q1-4.8 6-6.8l3.1-.9 3.9.3M5.9 13.7q1.9-4.3 6.2-7.1" vector-effect="non-scaling-stroke"/><path fill="none" stroke="#fff" stroke-linecap="round" stroke-linejoin="round" stroke-width="__RESOLUTION__" d="m33.5 25.6-.8 1.1q-5.7 8.9-15.6 10l-.6.1m-3.9-13.2q-1.5-.2-3.1-1.7-1.4-1.6-2.3-5.1m13.2 2.4q-4.6 4.5-7.7 4.4" vector-effect="non-scaling-stroke"/><path fill="none" stroke="#000" stroke-linecap="round" stroke-linejoin="round" stroke-opacity=".2" stroke-width="1" d="M5 34.2q1.3 1 1.4 1.3 2.7 6.1 10.4 7.8Q24.4 44.9 32 41q7.7-4 10.2-13.2t-.8-15.6l-2.1-3.1M39 9l-2.5-2.1-1.9-1-1-.4q-1.5-2-3.5-3.2Q28 1 25 .6q-7-.8-13.6 3.7T2 16.3t-.3 13.3l1.1 2.1m.3.3.7 1m.5.3.7.9m34.4-25L39 9"/><path fill="none" stroke="#000" stroke-linecap="round" stroke-linejoin="round" stroke-opacity=".2" stroke-width="__RESOLUTION__" d="M30.1 5q1.2 1.2 2.1 2.9l.8 1.8q1.6 4.7-.4 10.4-2.4 6.7-8.5 10.7-5.2 3.2-10.5 3l-2.1-.2-2.6-.8q-4.2-1.5-6-5.5-.7-1.9-.9-4-.3-3.6 1.3-7.7Q5.7 9 11.5 5.1t11.9-3.3q4.1.5 6.7 3.2m-4.6-.4q2.5 1.3 4 4 2.3 4.6.3 10.3t-7.2 9.2T12 30.7q-4.3-.7-6.3-3.5l-.9-1.6-.5-1.6q-1-3.6.8-8.2.3-1.1.8-2.1m15.4-5.8.5.2m-1 16-1.9 1.1q-2.5 1-5 .6-3.3-.4-4.6-3L7.4 20M22 23.4l-1.1.8M12.2 6.6q4.8-3.4 9.9-3 1.9.2 3.4 1" vector-effect="non-scaling-stroke"/><path fill="none" stroke="#000" stroke-linecap="round" stroke-linejoin="round" stroke-opacity=".3" stroke-width="__RESOLUTION__" d="m20.3 7.5.9.5h0-.1m.7.2-.5-.2h0m-.5 16.2-2 1.1" vector-effect="non-scaling-stroke"/></g><g id="k"><path fill="#773026" fill-opacity=".7" d="M41 109.4q-2.1 5.1-6 7.9l8.4-82.5v-.2Q33 33.4 24.2 30.2 12 26 2.3 18L.5.5q14.6 9.9 23.2 9.1l2-.2q5.8-.6 11-2Q45.3 5 52 .5z"/><path fill="none" stroke="#00000b" stroke-linecap="round" stroke-linejoin="round" stroke-opacity=".3" stroke-width="1" d="M41 109.4 52.1.4q-6.7 4.6-15.5 7-5.1 1.3-11 2l-2 .1q-8.4.9-23.1-9L2.3 18"/></g><g id="j"><path fill="#fff" d="m17 6.5.2-.2q.3.4.4.9.3.7-.1 1.3-.2.6-.9.7-.6.2-1.2-.4-.7-.5-.8-1.2t.1-1.2q.3-.7 1-.8l.7.1v.4l.2.3zm-6.4-1.7.8.3q.7.5 1 1.4.1.8-.2 1.6-.3.7-1.1.8-.7.1-1.5-.5-.7-.6-.9-1.4t.1-1.5 1.1-.8zm-1.3 2 .3.4.6.1.4-.3.1-.6q0-.3-.3-.5h-.9l-.3.3v.3z"/><path fill="#f4562f" d="m17 6.5-.4-.1-.2-.3v-.4l-.7-.1q-.7.2-1 .8-.3.5-.1 1.2t.8 1.2 1.2.4.9-.7q.4-.6.1-1.3-.1-.5-.4-.9zm4.1 7.8-.5.9q-1.7 3.1-5.2 4.1l-.5.1-1.8.2-1.4-.1q-1.5-.2-3-1.1-3.1-1.8-4-5.2-.4-1.3-.3-2.6 0-2.1 1.1-4.1Q7 3.7 9.9 2.7l.8-.3q3.4-1 6.6.9l1.3.9q2.1 1.7 2.8 4.4.6 2.3 0 4.5zq-8.8 3.6-16.5-2.7 7.7 6.3 16.5 2.7M22 7l-.5-1.5Q26 5.3 26 1q.9 0 1 3.4-1.2 2.9-5.1 2.6m1.9 7.8-.6 1.7-.8-.2.5-1.8zm.1 2.4-.6-.6 1.2-1.2.7.6zm2-.7.4.9-1.5.9-.6-.8zM21.3 19l1.7-2 1.1 1-1.8 1.9zm1.4 8.2-8 2.2-2.2-8 8-2.2zM4.8 5.8l-.5 1.5Q.6 6.8 0 3.5.4 0 1.1 0 .8 4.7 4.8 5.8m5-1.2q-.8.1-1.1.8t-.1 1.5.9 1.4 1.5.4q.8 0 1.1-.7.3-.8.2-1.6-.3-.9-1-1.4l-.8-.3zm-.3 1.3h.6l.3.5V7l-.5.3-.6-.1-.3-.4v-.6zm2.3 5.6q-1.7-3-3.3 0 1.7-3 3.3 0m2.3 5.9.6 2zm-1.1.7v1.5zm-1.5-.6v2zm-1 3.9 1 1-1.8 1.8-1-1zm-2.4 2-1.7.5-.3-.9 1.8-.4zM7 24.7l1.5-.9.5.8-1.5.9zm1.8 2-.8-.4 1-1.6.7.5zM16.4 13q.9-3.2-2.5-2 3.4-1.2 2.5 2"/><path fill="none" stroke="#fff" stroke-linecap="round" stroke-linejoin="round" stroke-width="1" d="m21 14.3.5-.2m-.5.2q-8.8 3.6-16.5-2.7"/><path fill="none" stroke="#fff" stroke-linecap="round" stroke-linejoin="round" stroke-width="__RESOLUTION__" d="M8.6 11.6q1.7-3.1 3.3-.1m2.9 7.9-.6-2M13 19.6l.1-1.5m-1.5 1.4v-2m2.3-6.5q3.4-1.2 2.5 2" vector-effect="non-scaling-stroke"/></g><g id="i"><path fill="#f4562f" d="M43.4 34.6v.1zv.1q2 12.9 2.4 26.9L52.1.5q-6.7 4.6-15.5 7 4.4 12.9 6.8 27.1M.5.5q14.6 9.9 23.2 9.1l2-.2q4.3 11.5-1.7 21Q19.5 37.8 8.3 44l-2.4 1.3-.7.4zM3.3 20 6 45.4z"/><path fill="#fafcf5" d="M43.4 34.6v.1q2 12.9 2.4 26.9l-3.7 35.8q-1 15.3-7.1 19.8v.1q-3 2-6.9 2.7-10.4 0-16.1-8.5L5.2 45.8l.8-.4 2.3-1.3q11.1-6.3 15.8-13.8 5.9-9.5 1.5-20.8 5.9-.7 11-2 4.4 12.9 6.8 27.1M10.9 93.5l-5-48.1zm24.4 20.8-.3 3z"/><path fill="none" stroke="#000" stroke-linecap="round" stroke-linejoin="round" stroke-opacity=".3" stroke-width="__RESOLUTION__" d="M43.4 34.8v-.2h0" vector-effect="non-scaling-stroke"/><path fill="none" stroke="#000" stroke-linecap="round" stroke-linejoin="round" stroke-opacity=".2" stroke-width="__RESOLUTION__" d="M45.8 61.6 52.1.5m-6.3 61.1-3.7 35.8" vector-effect="non-scaling-stroke"/><path fill="none" stroke="#fff" stroke-linecap="round" stroke-linejoin="round" stroke-width="__RESOLUTION__" d="m6 45.4 4.9 48.1m-5-48.1L3.4 20" vector-effect="non-scaling-stroke"/><path fill="none" stroke="#000" stroke-linecap="round" stroke-linejoin="round" stroke-opacity=".2" stroke-width="1" d="m5.2 45.8 6.8 65.8M5.2 45.8.5.5"/><path fill="none" stroke="#000" stroke-linecap="round" stroke-linejoin="round" stroke-opacity=".3" stroke-width="1" d="M12 111.6q5.8 8.4 16.1 8.4 4-.7 6.9-2.7h0l.3-3m-.3 3q3.9-2.7 6-8"/></g><g id="h"><path fill="#8c6d62" d="m6.8 6.6.8.5zv4.8L7.6 7v-.8zm9 34.3Q15 26.3 15 11.4h.1l3-1.3.6-.3 2.4-1.1q.5 37.6-2.4 71l-3.6 2.8q.8-20.7.7-41.6m4.8-30.8-1.9-.3z"/><path fill="#bf9d77" d="M6.8 6.6v4.8L7.6 7q3.9 2 7.5 4.3-.1 14.9.7 29.5-4.9-14.1-8.2-17.4l-6.5-4.9Q1 11.6 0 3.2zm5.7 23.3q.4-8.2-2-15.8 2.4 7.6 2 15.8"/><path fill="#d6caa1" d="M7.6 7v-.7l-.8.3L0 3.2 5.1 0l9.7 5.4 1.4.8q-1.2 1.2 0 2.3l1.1.6 1.4.7-.6.3q-1.5 0-3.3-1l-1.1-.6q-1.7-1.4 1-3.1-2.7 1.7-1 3.1l1.1.6q1.8 1 3.3 1l-3 1.3Q11.5 9 7.5 7m11.2 2.7L17.3 9l-1.1-.6q-1.2-1.1 0-2.3l4.9 2.5z"/><path fill="#c3a87d" d="m1 18.6 6.6 4.8q3.3 3.4 8.2 17.5.1 20.9-.8 41.7L1.8 76.1l-.3-34V25.5q.1-3.8-.4-7m5 57.7q1-20.5 0-41.6 1 21 0 41.6m5.4-1.6q1-7.5 0-15.6 1 8.1 0 15.6m-1.3-34.5q1 9.4 2.7 3.1 0-3.8-2.6-4.5 2.6.7 2.5 4.5-1.6 6.3-2.7-3.1"/><path fill="none" stroke="#292929" stroke-linecap="round" stroke-linejoin="round" stroke-opacity=".3" stroke-width="__RESOLUTION__" d="m7.6 7-.8-.4L0 3.2q1 8.5 1 15.4.6 3.2.5 7V42l.3 34.1L15 82.6h0l3.7-3q2.9-33.2 2.4-70.9l-4.9-2.5-1.4-.8L5 0 0 3.2m15.8 37.7Q15 26.3 15 11.4h0Q11.5 9 7.6 7M18 10l.6-.3L21 8.6m-6 2.7 3-1.3m-2.3 30.8q.1 20.9-.8 41.7" vector-effect="non-scaling-stroke"/><path fill="none" stroke="#292929" stroke-linecap="round" stroke-linejoin="round" stroke-opacity=".2" stroke-width="__RESOLUTION__" d="M6.8 6.6v4.8L7.6 7v-.8z" vector-effect="non-scaling-stroke"/><path fill="none" stroke="#fff" stroke-linecap="round" stroke-linejoin="round" stroke-opacity=".2" stroke-width="__RESOLUTION__" d="M14.8 5.4Q12 7 13.7 8.5l1.1.6q1.8 1 3.3 1m-7.8 28.7q2.6.7 2.5 4.5-1.6 6.3-2.7-3.1" vector-effect="non-scaling-stroke"/><path fill="none" stroke="#fff" stroke-linecap="round" stroke-linejoin="round" stroke-opacity=".2" stroke-width="__RESOLUTION__" d="M18.8 9.8 17.3 9l-1.1-.6q-1.2-1.1 0-2.3m2.6 3.6 1.8.3" vector-effect="non-scaling-stroke"/><path fill="none" stroke="#292929" stroke-linecap="round" stroke-linejoin="round" stroke-opacity=".3" stroke-width="__RESOLUTION__" d="M10.5 14.1q2.4 7.6 2 15.8m-1 29.2q1 8.1 0 15.6" vector-effect="non-scaling-stroke"/><path fill="none" stroke="#292929" stroke-linecap="round" stroke-linejoin="round" stroke-opacity=".2" stroke-width="__RESOLUTION__" d="M6.1 34.7q1 21 0 41.6" vector-effect="non-scaling-stroke"/></g><g id="g"><path fill="#805e51" d="m6.8 6.6.8.5zv4.8L7.6 7v-.8zm9 34.3Q15 26.3 15 11.4h.1l3-1.3.6-.3 2.4-1.1q.5 37.6-2.4 71l-3.6 2.8q.8-20.7.7-41.6m4.8-30.8-1.9-.3z"/><path fill="#b89369" d="M6.8 6.6v4.8L7.6 7q3.9 2 7.5 4.3-.1 14.9.7 29.5-4.9-14.1-8.2-17.4l-6.5-4.9Q1 11.6 0 3.2zm5.7 23.3q.4-8.2-2-15.8 2.4 7.6 2 15.8"/><path fill="#d2c496" d="M7.6 7v-.7l-.8.3L0 3.2 5.1 0l9.7 5.4 1.4.8q-1.2 1.2 0 2.3l1.1.6 1.4.7-.6.3q-1.5 0-3.3-1l-1.1-.6q-1.7-1.4 1-3.1-2.7 1.7-1 3.1l1.1.6q1.8 1 3.3 1l-3 1.3Q11.5 9 7.5 7m11.2 2.7L17.3 9l-1.1-.6q-1.2-1.1 0-2.3l4.9 2.5z"/><path fill="#bd9f6f" d="m1 18.6 6.6 4.8q3.3 3.4 8.2 17.5.1 20.9-.8 41.7L1.8 76.1l-.3-34V25.5q.1-3.8-.4-7m5 57.7q1-20.5 0-41.6 1 21 0 41.6m5.4-1.6q1-7.5 0-15.6 1 8.1 0 15.6m-1.3-34.5q1 9.4 2.7 3.1 0-3.8-2.6-4.5 2.6.7 2.5 4.5-1.6 6.3-2.7-3.1"/><path fill="none" stroke="#121212" stroke-linecap="round" stroke-linejoin="round" stroke-opacity=".3" stroke-width="__RESOLUTION__" d="m7.6 7-.8-.4L0 3.2q1 8.5 1 15.4.6 3.2.5 7V42l.3 34.1L15 82.6h0l3.7-3q2.9-33.2 2.4-70.9l-4.9-2.5-1.4-.8L5 0 0 3.2m15.8 37.7Q15 26.3 15 11.4h0Q11.5 9 7.6 7M18 10l.6-.3L21 8.6m-6 2.7 3-1.3m-2.3 30.8q.1 20.9-.8 41.7" vector-effect="non-scaling-stroke"/><path fill="none" stroke="#121212" stroke-linecap="round" stroke-linejoin="round" stroke-opacity=".2" stroke-width="__RESOLUTION__" d="M6.8 6.6v4.8L7.6 7v-.8z" vector-effect="non-scaling-stroke"/><path fill="none" stroke="#fff" stroke-linecap="round" stroke-linejoin="round" stroke-opacity=".2" stroke-width="__RESOLUTION__" d="M14.8 5.4Q12 7 13.7 8.5l1.1.6q1.8 1 3.3 1m-7.8 28.7q2.6.7 2.5 4.5-1.6 6.3-2.7-3.1" vector-effect="non-scaling-stroke"/><path fill="none" stroke="#fff" stroke-linecap="round" stroke-linejoin="round" stroke-opacity=".2" stroke-width="__RESOLUTION__" d="M18.8 9.8 17.3 9l-1.1-.6q-1.2-1.1 0-2.3m2.6 3.6 1.8.3" vector-effect="non-scaling-stroke"/><path fill="none" stroke="#121212" stroke-linecap="round" stroke-linejoin="round" stroke-opacity=".3" stroke-width="__RESOLUTION__" d="M10.5 14.1q2.4 7.6 2 15.8m-1 29.2q1 8.1 0 15.6" vector-effect="non-scaling-stroke"/><path fill="none" stroke="#121212" stroke-linecap="round" stroke-linejoin="round" stroke-opacity=".2" stroke-width="__RESOLUTION__" d="M6.1 34.7q1 21 0 41.6" vector-effect="non-scaling-stroke"/></g><g id="f"><path fill="#7d5a4d" d="M15.4.9v5.5h-.1v-1l-2 1.1-1-.8-.7-.5-.1-.2-.6-1.7zm-4.5 2.4.6 1.8-.7-.6-.8-.7.8.7-.8-.7zm.7 1.9.7.5-.3-.2zm1.8 1.3 1.9-1v.9l-.1 7.3v.4l.2-.2v-.3h-.2v1.7l-1.7.8q-2 1-3.8 2.2v-.1l-.2-8.5v-.9L4.9 6.9 2.2 5.7.2 5v6.9-.4.4l.2 6Q.8 42.3.2 66L0 71q4.5 2.2 9.5 3.9l.2-8.2V66q.3-23.3 0-47v-.6l-1 .7 1-.7V8.7h.1l.6-.3q.7 0 1-.7l1-.5zm-.7-2.2 2.7-1.5zM7.6 2.6l1.9 1-1.1.3-1.1.2V3l-.3.4-.4.9.5-.1h-.5.7V4h-.2L7 3.5v.8l.3-.1V3zm-.3 1.5 1.1-.2zm-1 34.8v-3zm-3.4-1.1v-10zm3.7 34L6.5 66q-.5-11.5-.2-8.5-.3-3 .1 8.5z"/><path fill="#d1c394" d="m11.5 5 .1.2.4.3.4 1.7-1 .5.1-.3zl-.7-.5-.8-.7-.2 4.5v.4-.4l-.1-1-.2-3.6-1.1.2-1.1.3h-.2l-.5.1-.8.2-1.9.3-1.8.4.1.5L4.9 7l4.6 1.9v.8h.2v-.8l.1-.1.6-.3-.6-.2.6.2q.7 0 1-.7l.1-.3zm.8.7 1 .8-.9.7-.4-1.7zm-2.6 4h-.2l.2 8.5zm-3-5.4q-.2.5-.2 1.3l.1 1q.7 1.5 3.2 1.7Q7.2 8 6.6 6.6l-.1-1zm.7-.1-.1 2.3L7 4.3l.2 2.3zm-1.5.3q-1 .8-.9 2.4-.1-1.7.8-2.4"/><path fill="#6e4e46" d="m7.3 2.5.3.1-.3.4-.3.4-.1-1.1zV3zm-.4-.2L7 3.4l-.4.9-.8.2-1.9.3 2.7-.5-2.7.5-1.8.4-2-1V2.9L6 1.7zm-1-.6L.2 2.9V0h2.6z"/><path fill="#5f433d" d="m2.2 5.8-2-.9v-.7l1.9 1zM.2 10v1.5zm0 1.9.2 6H.2z"/><path fill="#bb9d6c" d="M9.7 66.8V66q.3-23.3 0-47v-.8.1q1.8-1.2 3.8-2.2l1.7-.9v.9L15 20q-.3 23.2.1 46l.1 5.5q-2.7 2-5.6 3.3zm2.8-49 2.7-1.7zm-1 21.2v-3zm2.1-.9v-9.9zM11.4 72l.1-6 .2-8.3-.2 8.3z"/><path fill="none" stroke="#0d0d0d" stroke-linecap="round" stroke-linejoin="round" stroke-opacity=".3" stroke-width="__RESOLUTION__" d="m15.4.9-4.5 2.3-1 .5v.1l-.1 4.5v.4l-.1-1.3-.2-3.8-2-1-.2-.1v-.8l2.7 2 .8.8.7.5.1.2.7.5 1 .8m2-3.7-2.6 1.5M10 3.8l.8.7M9.6 18.4l-.9.7M7.3 2.4l-.4-.2.1 1.1v.8h0l.2 2.3.1-2.3V4h-.2l-.5.2-2.7.5-1.8.4h0l-2-1M7.4 3v-.5m3-2.5-2 1.1-1 .5M6 1.8l1-.2-2-1-.8-.5m3.2 4.1V3m0 1.1 1.1-.2 1-.2M7 2.2l-1-.5L.2 2.9m6.7-1.4v.8M2.8 0l3.1 1.7M2.1 5.3l.1.5M0 17.8h.3M15 20l.3-.2m-5.7-1.4q1.8-1.2 3.8-2.2l1.7-.9m0 .9L12.4 18" vector-effect="non-scaling-stroke"/><path fill="none" stroke="#fff" stroke-linecap="round" stroke-linejoin="round" stroke-opacity=".2" stroke-width="__RESOLUTION__" d="m10.9 3.3.6 1.8v2.3l-.1.3m1-.5L12 5.5m-1.6 2.9-.6-.2m-.1 1.5h-.2M7 3.4l.3-.4.3-.4m-1 1.7.4-.9m2.8 4.9Q7.2 8 6.6 6.6l-.1-1 .1-1.3M5 6.9q-.1-1.7.8-2.4M2.9 27.9v9.9m10.8-9.5V38" vector-effect="non-scaling-stroke"/><path fill="none" stroke="#0d0d0d" stroke-linecap="round" stroke-linejoin="round" stroke-opacity=".2" stroke-width="__RESOLUTION__" d="m13.4 6.6 1.9-1.1v.9l-.1 7.3V16l-.2 4q-.3 23.2.1 46l.1 5.5q-2.7 2-5.6 3.3v-8l-.2 8.1q-5-1.7-9.5-4L.2 66q.6-23.8.2-48.1l-.2-6.1V9.9m11.2-2.2 1-.5 1-.7M9.8 8.8l.6-.3q.7 0 1-.7m-1.7 2v-1h.1m-.3 1 .2 8.5V9.7m-.2 0v-.9L4.9 6.9 2.2 5.7.2 5m9.5 61.9V66q.3-23.3 0-47v-.8m5.5-4.6h.2M6.3 35.9v3m5.3-2.9v3m0 18.7-.1 8.3-.1 6M6.2 57.5q-.3-3 .1 8.5l.3 5.8" vector-effect="non-scaling-stroke"/></g><g id="e"><path fill="#704d40" d="m6.8 6.6.8.5zv4.8L7.6 7v-.8zm9 34.3Q15 26.3 15 11.4h.1l3-1.3.6-.3 2.4-1.1q.5 37.6-2.4 71l-3.6 2.8q.8-20.7.7-41.6m4.8-30.8-1.9-.3z"/><path fill="#a88258" d="M6.8 6.6v4.8L7.6 7q3.9 2 7.5 4.3-.1 14.9.7 29.5-4.9-14.1-8.2-17.4l-6.5-4.9Q1 11.6 0 3.2zm5.7 23.3q.4-8.2-2-15.8 2.4 7.6 2 15.8"/><path fill="#c2b486" d="M7.6 7v-.7l-.8.3L0 3.2 5.1 0l9.7 5.4 1.4.8q-1.2 1.2 0 2.3l1.1.6 1.4.7-.6.3q-1.5 0-3.3-1l-1.1-.6q-1.7-1.4 1-3.1-2.7 1.7-1 3.1l1.1.6q1.8 1 3.3 1l-3 1.3Q11.5 9 7.5 7m11.2 2.7L17.3 9l-1.1-.6q-1.2-1.1 0-2.3l4.9 2.5z"/><path fill="#ad8f5f" d="m1 18.6 6.6 4.8q3.3 3.4 8.2 17.5.1 20.9-.8 41.7L1.8 76.1l-.3-34V25.5q.1-3.8-.4-7m5 57.7q1-20.5 0-41.6 1 21 0 41.6m5.4-1.6q1-7.5 0-15.6 1 8.1 0 15.6m-1.3-34.5q1 9.4 2.7 3.1 0-3.8-2.6-4.5 2.6.7 2.5 4.5-1.6 6.3-2.7-3.1"/><path fill="none" stroke="#000" stroke-linecap="round" stroke-linejoin="round" stroke-opacity=".3" stroke-width="__RESOLUTION__" d="m7.6 7-.8-.4L0 3.2q1 8.5 1 15.4.6 3.2.5 7V42l.3 34.1L15 82.6h0l3.7-3q2.9-33.2 2.4-70.9l-4.9-2.5-1.4-.8L5 0 0 3.2m15.8 37.7Q15 26.3 15 11.4h0Q11.5 9 7.6 7M18 10l.6-.3L21 8.6m-6 2.7 3-1.3m-2.3 30.8q.1 20.9-.8 41.7" vector-effect="non-scaling-stroke"/><path fill="none" stroke="#000" stroke-linecap="round" stroke-linejoin="round" stroke-opacity=".2" stroke-width="__RESOLUTION__" d="M6.8 6.6v4.8L7.6 7v-.8z" vector-effect="non-scaling-stroke"/><path fill="none" stroke="#f0f0f0" stroke-linecap="round" stroke-linejoin="round" stroke-opacity=".2" stroke-width="__RESOLUTION__" d="M14.8 5.4Q12 7 13.7 8.5l1.1.6q1.8 1 3.3 1m-7.8 28.7q2.6.7 2.5 4.5-1.6 6.3-2.7-3.1" vector-effect="non-scaling-stroke"/><path fill="none" stroke="#f0f0f0" stroke-linecap="round" stroke-linejoin="round" stroke-opacity=".2" stroke-width="__RESOLUTION__" d="M18.8 9.8 17.3 9l-1.1-.6q-1.2-1.1 0-2.3m2.6 3.6 1.8.3" vector-effect="non-scaling-stroke"/><path fill="none" stroke="#000" stroke-linecap="round" stroke-linejoin="round" stroke-opacity=".3" stroke-width="__RESOLUTION__" d="M10.5 14.1q2.4 7.6 2 15.8m-1 29.2q1 8.1 0 15.6" vector-effect="non-scaling-stroke"/><path fill="none" stroke="#000" stroke-linecap="round" stroke-linejoin="round" stroke-opacity=".2" stroke-width="__RESOLUTION__" d="M6.1 34.7q1 21 0 41.6" vector-effect="non-scaling-stroke"/></g><g id="d"><path fill="#775244" d="m55 1.6 1.5-.9v.9zm-6 1.9.5.3zl.5.3q-16.3 7.9-30 15.3L5.9 27l-3.3 1.8-.5.3H2l-1.1.6v-3.5l1.7-1 3.3-1.8L17 16.9Q29.7 10 42.3 3.8l3.8-1.6.8.3zm-6.6.3Q29.6 10 17 16.9L5.8 23.4l-3.3 1.9-1.7.9v-2l1.7-.9 2.8-1.5q19-10.1 37-18M.8 37.1l1-.2-1 .5z"/><path fill="#b89865" d="m49.6 12.6-.1-8.8v-.1l.1 12.1-5.1 2.8-19 10.3-11.7 6.4-.5.2Q11 36.6 9 38.2l.8-4.4 2.3-1.3 1.3-.8 7.1-4.1q6.7-4 13.2-7.1z"/><path fill="#977348" d="M49.5 3.8v8.8l-16 7.9q-6.4 3-13.1 7l-7 4.2-1.4.8-2.3 1.4.4-2.3q.3-1 1.2-2.5 2.3-3.7 8.3-10Q33 11.6 49.5 3.8M21 23.4q6.4-4.4 1.4-3.1-2.8 1.4-2.3 3.5-.6-2.1 2.3-3.6 5-1.2-1.4 3.2M45.2 9.3q-5.7 2.1-11.2 5.9 5.5-3.8 11.1-5.9"/><path fill="#b38b5e" d="M9.7 33.9 9 38.2 5.7 40l-3.3 2-.6.5-1.1.6v-3.9l1-.6.7-.4 3.3-1.9.5-.2z"/><path fill="#936b46" d="m.8 29.8 1-.7H2l.6-.3L5.8 27l13.8-8q-6 6.5-8.3 10.1-.9 1.4-1.2 2.5l-.4 2.3L6.4 36l-.6.4-3.3 1.9-.6.4-1.1.5v-1.9l1-.4-1 .2zm12.1-4.1q-3.2 1.5-6 3.5l-1.1.8-3.3 3 3.3-3 1.1-.8q2.8-2 6-3.5"/><path fill="none" stroke="#000" stroke-linecap="round" stroke-linejoin="round" stroke-opacity=".2" stroke-width="__RESOLUTION__" d="m56.5.7-1.5.9M.8 37.4l1-.5-1 .2" vector-effect="non-scaling-stroke"/><path fill="none" stroke="#000" stroke-linecap="round" stroke-linejoin="round" stroke-opacity=".3" stroke-width="__RESOLUTION__" d="m49.5 3.8-.5-.3zv8.8M9 38.2q1.9-1.6 4.4-2.7l.3-.2L25.6 29q7.4-4.2 19-10.4l5.1-2.8-.1-12.1h0q-16.3 8-30 15.4L5.9 27l-3.3 1.8-.5.3H2l-1.1.6M49 3.6l-2.1-1-.8-.4-3.8 1.7Q29.6 10 17 16.9L5.8 23.4l-3.3 1.9-1.7.9M46.9 2.5v-1 .1q-2.4 1-4.6 2.2-18 7.9-37 18l-2.8 1.5-1.7.9m46-22.6L43.6 0q-19.9 8.5-41 19.8L0 21m2.5 11.8 3.3-3 1.1-.8q2.8-2 6-3.5M.8 43.1l1-.6.7-.5 3.3-2 3.1-1.8m25.2-23q5.4-3.8 11-5.9" vector-effect="non-scaling-stroke"/><path fill="none" stroke="#fff" stroke-linecap="round" stroke-linejoin="round" stroke-opacity=".2" stroke-width="__RESOLUTION__" d="m44.5 18.6 4.5.1m-29 5.1q-.4-2.1 2.4-3.6 5-1.2-1.4 3.2" vector-effect="non-scaling-stroke"/></g><g id="c"><path fill="#6d4b3e" d="M15.4.9v5.5h-.1v-1l-2 1.1-1-.8-.7-.5-.1-.2-.6-1.7zm-4.5 2.4.6 1.8-.7-.6-.8-.7.8.7-.8-.7zm.7 1.9.7.5-.3-.2zm1.8 1.3 1.9-1v.9l-.1 7.3v.4l.2-.2v-.3h-.2v1.7l-1.7.8q-2 1-3.8 2.2v-.1l-.2-8.5v-.9L4.9 6.9 2.2 5.7.2 5v6.9-.4.4l.2 6Q.8 42.3.2 66L0 71q4.5 2.2 9.5 3.9l.2-8.2V66q.3-23.3 0-47v-.6l-1 .7 1-.7V8.7h.1l.6-.3q.7 0 1-.7l1-.5zm-.7-2.2 2.7-1.5zM7.6 2.6l1.9 1-1.1.3-1.1.2V3l-.3.4-.4.9.5-.1h-.5.7V4h-.2L7 3.5v.8l.3-.1V3zm-.3 1.5 1.1-.2zm-1 34.8v-3zm-3.4-1.1v-10zm3.7 34L6.5 66q-.5-11.5-.2-8.5-.3-3 .1 8.5z"/><path fill="#beb183" d="m11.5 5 .1.2.4.3.4 1.7-1 .5.1-.3zl-.7-.5-.8-.7-.2 4.5v.4-.4l-.1-1-.2-3.6-1.1.2-1.1.3h-.2l-.5.1-.8.2-1.9.3-1.8.4.1.5L4.9 7l4.6 1.9v.8h.2v-.8l.1-.1.6-.3-.6-.2.6.2q.7 0 1-.7l.1-.3zm.8.7 1 .8-.9.7-.4-1.7zm-2.6 4h-.2l.2 8.5zm-3-5.4q-.2.5-.2 1.3l.1 1q.7 1.5 3.2 1.7Q7.2 8 6.6 6.6l-.1-1zm.7-.1-.1 2.3L7 4.3l.2 2.3zm-1.5.3q-1 .8-.9 2.4-.1-1.7.8-2.4"/><path fill="#5e3f38" d="m7.3 2.5.3.1-.3.4-.3.4-.1-1.1zV3zm-.4-.2L7 3.4l-.4.9-.8.2-1.9.3 2.7-.5-2.7.5-1.8.4-2-1V2.9L6 1.7zm-1-.6L.2 2.9V0h2.6z"/><path fill="#50342f" d="m2.2 5.8-2-.9v-.7l1.9 1zM.2 10v1.5zm0 1.9.2 6H.2z"/><path fill="#a98c5d" d="M9.7 66.8V66q.3-23.3 0-47v-.8.1q1.8-1.2 3.8-2.2l1.7-.9v.9L15 20q-.3 23.2.1 46l.1 5.5q-2.7 2-5.6 3.3zm2.8-49 2.7-1.7zm-1 21.2v-3zm2.1-.9v-9.9zM11.4 72l.1-6 .2-8.3-.2 8.3z"/><path fill="none" stroke="#000" stroke-linecap="round" stroke-linejoin="round" stroke-opacity=".3" stroke-width="__RESOLUTION__" d="m15.4.9-4.5 2.3-1 .5v.1l-.1 4.5v.4l-.1-1.3-.2-3.8-2-1-.2-.1v-.8l2.7 2 .8.8.7.5.1.2.7.5 1 .8m2-3.7-2.6 1.5M10 3.8l.8.7M9.6 18.4l-.9.7M7.3 2.4l-.4-.2.1 1.1v.8h0l.2 2.3.1-2.3V4h-.2l-.5.2-2.7.5-1.8.4h0l-2-1M7.4 3v-.5m3-2.5-2 1.1-1 .5M6 1.8l1-.2-2-1-.8-.5m3.2 4.1V3m0 1.1 1.1-.2 1-.2M7 2.2l-1-.5L.2 2.9m6.7-1.4v.8M2.8 0l3.1 1.7M2.1 5.3l.1.5M0 17.8h.3M15 20l.3-.2m-5.7-1.4q1.8-1.2 3.8-2.2l1.7-.9m0 .9L12.4 18" vector-effect="non-scaling-stroke"/><path fill="none" stroke="#ebebeb" stroke-linecap="round" stroke-linejoin="round" stroke-opacity=".2" stroke-width="__RESOLUTION__" d="m10.9 3.3.6 1.8v2.3l-.1.3m1-.5L12 5.5m-1.6 2.9-.6-.2m-.1 1.5h-.2M7 3.4l.3-.4.3-.4m-1 1.7.4-.9m2.8 4.9Q7.2 8 6.6 6.6l-.1-1 .1-1.3M5 6.9q-.1-1.7.8-2.4M2.9 27.9v9.9m10.8-9.5V38" vector-effect="non-scaling-stroke"/><path fill="none" stroke="#000" stroke-linecap="round" stroke-linejoin="round" stroke-opacity=".2" stroke-width="__RESOLUTION__" d="m13.4 6.6 1.9-1.1v.9l-.1 7.3V16l-.2 4q-.3 23.2.1 46l.1 5.5q-2.7 2-5.6 3.3v-8l-.2 8.1q-5-1.7-9.5-4L.2 66q.6-23.8.2-48.1l-.2-6.1V9.9m11.2-2.2 1-.5 1-.7M9.8 8.8l.6-.3q.7 0 1-.7m-1.7 2v-1h.1m-.3 1 .2 8.5V9.7m-.2 0v-.9L4.9 6.9 2.2 5.7.2 5m9.5 61.9V66q.3-23.3 0-47v-.8m5.5-4.6h.2M6.3 35.9v3m5.3-2.9v3m0 18.7-.1 8.3-.1 6M6.2 57.5q-.3-3 .1 8.5l.3 5.8" vector-effect="non-scaling-stroke"/></g><g id="b"><path fill="#775244" d="m169.8 29.6 3-1.9v2.8h-3zm-68 35.8v.3L99 64.2zM14.5 24.2v19.7l-6.8 7V22L7.5 8.2l.9.4.4.3V21q-.2-.1-.4 0-.4.3-.6 1.1.2-.8.6-1 .2-.2.4 0zM10 35.3v-3zm2.7-1.2v-9.9z"/><path fill="#67453d" d="M49.4 24.8v-.9q23.6 11.9 48 25l2.3 1.3 2 1 3.8 2h-3.7v4.1l-.4-.1-.5-.4-1.2-.5-.5-.3-13-7.1-23.6-13.2-13.2-7.1zm52.4 31.8-2.1-1.1-.5-.2L87.7 49q-14.2-7.7-28-15.6l-10.4-5.5 10.4 5.5q13.8 7.9 28 15.6l11.5 6.3.5.2zm-52.4-31v4.3l-9.4-5q-12.1-6.4-24.4-12.6l-.7-.5-6-3V7.3H12l2.8 1.3.7.4q12.1 5.8 24.4 12zM8.9 7.2V8l3.3 1.7 3.3 1.8q12.3 6.2 24.4 12.7l9.4 5-9.4-5q-12.1-6.5-24.4-12.7l-3.3-1.8L8.9 8l-.5-.2-.9-.4v-.2zm-1.3 1v-.8l.9.4.4.2v1l-.4-.3z"/><path fill="#6d4941" d="M101.8 57.4v7.9L99 64.2l2.8 1.4V72l-2.1-1.2-.5-.3-5.9-3.5-8.7-4.9q-3.8-2.6-8.5-5l-1.3-.6-9.1-4.8-4.6-2.5-.5-.3-1-.6-8.6-4.6-1.6-.9V28.6l13.2 7.1 23.6 13.2 13 7.1.5.3 1.2.5.5.4zM49.4 42.8v.2l-4.2-2.4-1.5-.8-25.5-13.7-2.6-1.4-1-.5L9 21V8.8l5.9 3 .7.4L39.9 25l9.4 5v12.9l-4.2-2.2zm26.9 3.4 5.2 2.7q6.8 3.8 12.6 8l.4.3 3.3 2.5-3.3-2.5-.4-.4q-5.8-4.1-12.6-7.9zm-15 3-1.6-.9zm-1.4-9.5q-12.9-8-2.6-4.1 5.5 3 4.6 5 1-2-4.6-5-10.3-3.9 2.6 4.1m5.2 6.8-15.6-8.7zM8.9 17l5.7 2.9.9.4 11 5.6q11.4 6 22.8 12.3L26.5 26.1l-11-5.7-.9-.4zm5-2.2.8.4.8.4q9.7 4.5 19.1 10.4-9.4-5.9-19.1-10.4l-.8-.4z"/><path fill="#b89865" d="m14.6 43.9.4 23.3q-3.6 2.4-7.5 4.3l.3-20.7zM8.3 5.2 15 1l-.2 6.6-2.6-1.2L9.4 5zh1.2l2.8 1.4 2.6 1.2v1L12 7.1H7.5V5.6zm1.5 63.3.3-14.2z"/><path fill="#573933" d="M7.5 71.5q-4-2.4-7.5-5.3Q.8 33.8 0 0l7 5 .5.5v1.8l-1.2-.6L5 6l1.3.7 1.2.7v.8l.3 13.9v28.7l-1.7 1.8 1.7-1.8zM5 5.1h2zM2.3 33.4v-10zM5 35v-3zm.3 33Q4.7 50 5 53.8 4.7 50 5.3 68"/><path fill="none" stroke="#000" stroke-linecap="round" stroke-linejoin="round" stroke-opacity=".2" stroke-width="__RESOLUTION__" d="M172.8 30.5v-2.7l-3 1.7M65.7 51.8l-4.6-2.5-1.5-.9-8.6-4.6-1.7-.9-4.2-2.2M14.4 24.2v19.7l.5 23.3q-3.6 2.4-7.5 4.3v.1h0v-.1q-4-2.4-7.5-5.3Q.8 33.8 0 0l7 5 .5.5.7-.5L15 1l-.2 6.6v1m87 57L99 64.2l2.8 1.1M7.5 5.5v1.8h0v.9l.3 13.9v28.7l-.3 20.7h0m1.3-50.4v-4m0-.3v-8M10 32.4v3M5 32v3m0 18.7Q4.7 50 5.3 68M10 54l-.3 14.3" vector-effect="non-scaling-stroke"/><path fill="none" stroke="#000" stroke-linecap="round" stroke-linejoin="round" stroke-opacity=".3" stroke-width="__RESOLUTION__" d="M49.4 23.9q23.6 11.9 48 25l2.3 1.3 2 1 3.8 2M101.8 72l-2.1-1.2-.5-.3-5.9-3.5-8.7-4.9q-3.8-2.6-8.5-5l-1.3-.6-9.1-4.8m-4.6-2.5-.5-.3-1-.6M49.4 27.8l10.3 5.5q13.8 7.9 28 15.6l11.5 6.3.5.2 2 1.1M49.5 28.6l13.2 7.1 23.6 13.2 13 7.1.5.3 1.2.5.5.4.3.1m-4 2.4-3.3-2.5-.4-.4q-5.8-4.1-12.6-7.9l-5.2-2.7m-26.8-3.4 1.6.9m62.8 9.5 3.7-2 .4-.2 1.1-.6M49.4 23Q73.6 35.3 99 48.9l.7.4 3.5 1.9 3.8 2M49.3 43l-4.2-2.4-1.5-.8-25.5-13.7-2.6-1.4-1-.5L9 21h-.5q-.4.3-.6 1.1M7 5.1h2.4l2.8 1.3 2.6 1.2.7.4 24.4 12 9.5 4.8M14.8 8.5 12 7.2H7.5m1.3.8 3.4 1.7 3.3 1.8q12.3 6.2 24.4 12.7l9.4 5M7 5l-2 .1m2.5 2.3-1.2-.7L5 6m2.5 1.4.9.4.4.2m0 .9 6 3 .7.3L39.9 25l9.4 5M8.9 8.9l-.5-.3-.9-.4m41.8 17.4-9.4-4.8L15.5 9l-.7-.4M34.6 26q-9.4-6-19.1-10.4l-.8-.4-.8-.4" vector-effect="non-scaling-stroke"/><path fill="none" stroke="#fff" stroke-linecap="round" stroke-linejoin="round" stroke-opacity=".2" stroke-width="__RESOLUTION__" d="M61.7 40.7q1-2.2-4.6-5.1-10.3-3.9 2.6 4.1m-47-15.5v9.9M2.3 23.5v9.9" vector-effect="non-scaling-stroke"/><path fill="none" stroke="#000" stroke-linecap="round" stroke-linejoin="round" stroke-opacity=".2" stroke-width="__RESOLUTION__" d="m49.4 37.8 15.5 8.7M8.9 17v-.3m40.4 21.5L26.5 26.1l-11-5.7-.9-.4-5.7-3" vector-effect="non-scaling-stroke"/><path fill="none" stroke="#fff" stroke-linecap="round" stroke-linejoin="round" stroke-opacity=".2" stroke-width="__RESOLUTION__" d="M8.9 7.2v1.7m-1.1 42 6.7-7m-6.7 7-1.7 1.6" vector-effect="non-scaling-stroke"/></g><clipPath id="a"><path d="M1 1h53v44H1z"/></clipPath><path id="n" fill="#dbd2c1" d="M7 3h-8.5L.4 1.2.6 0l7 .4Q10 1.8 7.2 3" transform="translate(1.5)"/></defs><g clip-path="url(#a)"><g transform="translate(28.6 31.45)"><use xlink:href="#b" width="172.8" height="72" transform="matrix(-.2618 0 0 .2618 22.15 -20.1)"/><use xlink:href="#c" width="15.3" height="74.9" transform="matrix(-.2618 -.0266 0 .2618 -18.75 -13.95)"/><use xlink:href="#d" width="56.5" height="43.1" transform="matrix(-.3058 0 0 .3058 -5.45 -13.5)"/><use xlink:href="#e" width="21.1" height="82.6" transform="matrix(.237 .3769 .4164 -.2299 -27.6 -15.45)"/><use xlink:href="#f" width="15.3" height="74.9" transform="matrix(-.2618 0 0 .2618 -3.55 -6.35)"/><use xlink:href="#g" width="21.1" height="82.6" transform="matrix(.2791 .3536 .4164 -.2299 -21.1 -11.75)"/><use xlink:href="#h" width="21.1" height="82.6" transform="matrix(.2398 .3753 .4164 -.2299 -14.8 -8.95)"/><use xlink:href="#i" width="52.1" height="120.5" transform="matrix(.0009 .0949 .0577 .0013 7.8 -29.3)"/><use xlink:href="#j" width="26.9" height="29.4" transform="matrix(-.0047 .0573 .048 .0011 9.8 -27.15)"/><use xlink:href="#k" width="52.6" height="117.3" transform="matrix(.0009 .0949 .0577 .0013 7.8 -29.3)"/><use xlink:href="#l" width="43.9" height="44.3" transform="matrix(.0503 .0935 .0507 -.0934 5.3 -26.8)"/><use xlink:href="#m" width="4.5" height="38.9" transform="matrix(.001 .1058 .1057 .0135 2.8 -27.5)"/><use xlink:href="#n" width="10.2" height="3" transform="matrix(-.0091 .0989 .1054 .0163 6.55 -26.7)"/><use xlink:href="#n" width="10.2" height="3" transform="matrix(-.005 .0541 .1 .0756 6.55 -25.7)"/><use xlink:href="#n" width="10.2" height="3" transform="matrix(-.0025 .027 .1 .0756 6.45 -24.95)"/><use xlink:href="#o" width="30.1" height="18.1" transform="matrix(-.535 .2688 .5691 .2941 -7.05 -23.55)"/><use xlink:href="#p" width="9.3" height="23.4" transform="matrix(.575 0 .0052 .4055 -10.85 -27.35)"/><use xlink:href="#i" width="52.1" height="120.5" transform="matrix(-.0949 .0009 -.0013 .0577 -5.4 -21.7)"/><use xlink:href="#j" width="26.9" height="29.4" transform="matrix(-.0573 -.0047 -.0011 .048 -7.55 -19.7)"/><use xlink:href="#k" width="52.6" height="117.3" transform="matrix(-.0949 .0009 -.0013 .0577 -5.4 -21.7)"/><use xlink:href="#l" width="43.9" height="44.3" transform="matrix(-.0935 .0503 .0934 .0507 -7.9 -24.2)"/><use xlink:href="#m" width="4.5" height="38.9" transform="matrix(-.1058 .001 -.0135 .1057 -7.2 -26.7)"/><use xlink:href="#n" width="10.2" height="3" transform="matrix(-.0989 -.0091 -.0163 .1054 -8 -22.95)"/><use xlink:href="#n" width="10.2" height="3" transform="matrix(-.0541 -.005 -.0756 .1 -9 -22.95)"/><use xlink:href="#n" width="10.2" height="3" transform="matrix(-.027 -.0025 -.0756 .1 -9.75 -23.05)"/><use xlink:href="#q" width="18.2" height="9.8" transform="matrix(-.575 0 0 .575 -9.85 -18.6)"/><use xlink:href="#r" width="5" height="3.3" transform="translate(-18.85 -18.15)"/><use xlink:href="#s" width="3.6" height=".7" transform="rotate(43.44 11.14 -27.344)scale(-.7561 .7561)"/><use xlink:href="#t" width="3.6" height=".7" transform="rotate(29.417 22.4 -36.827)scale(-.7568 .7568)"/><use xlink:href="#u" width="3.6" height=".7" transform="matrix(-.5867 .1463 .1463 .5867 -15.2 -17.55)"/><use xlink:href="#t" width="3.6" height=".7" transform="rotate(27.617 24.518 -38.49)scale(-.7555 .7555)"/><use xlink:href="#u" width="3.6" height=".7" transform="rotate(13.593 61.686 -69.685)scale(-.756 .756)"/><use xlink:href="#v" width="3.6" height=".7" transform="matrix(-.7471 .1155 .1155 .7471 -13.7 -17.55)"/><use xlink:href="#t" width="3.6" height=".7" transform="matrix(-.7524 -.0895 -.0895 .7524 -13.5 -16.7)"/><use xlink:href="#s" width="3.6" height=".7" transform="rotate(19.859 38.296 -47.769)scale(-.7571 .7571)"/><use xlink:href="#v" width="3.6" height=".7" transform="rotate(-172.962 -7.48 -7.796)scale(.7566 -.7566)"/><use xlink:href="#w" width="2" height="2.9" transform="matrix(-.4332 0 -.3249 .5144 -16.7 -17.65)"/><use xlink:href="#x" width="9.3" height="23.4" transform="matrix(-.575 0 0 .4718 .4 -27.6)"/><use xlink:href="#y" width="7.8" height="8.3" transform="matrix(-.2742 .1043 .0064 .3051 -.3 -20.1)"/><use xlink:href="#z" width="34" height="7.5" transform="matrix(-.1954 .0523 .0523 .1954 -10.9 -16.65)"/><use xlink:href="#A" width="3.9" height="2.5" transform="matrix(-.575 0 0 .575 -3.7 -16.8)"/><use xlink:href="#B" width="3.5" height="1.3" transform="translate(-14.05 -12.85)"/></g></g></svg>