<svg xmlns="http://www.w3.org/2000/svg" xmlns:xlink="http://www.w3.org/1999/xlink" width="167" height="93" viewBox="0 0 167 93"><defs><clipPath id="a"><path d="M1 1h165v91H1z"/></clipPath><g id="b"><path fill="#0e0903" d="m74.8 25.2-7 2.9Q97 13.6 103.3 6.9v-.1q-19 13.6-7.3-2.3 11.6-9.8 16.5 1.9l1.3 4.2q-1.7.8-3.2 1.8-7.1 4.4-6.5 11.6l.5.9-2.4-1.8 6.2 12.4q-12.1-18-14.2-16.9-2 .5-3.9 3.9v-.1q.8-1.1-2-.7l-.9-.3-3.5 1.2-3.9 1.1 1.1-.4z"/><path fill="#180f05" d="M96 4.5q-11.7 15.9 7.3 2.3-6.2 6.8-35.5 21.3l7-2.9-.3.5 5.5-2 4-1.1 3.4-1.2 1 .3 1.9.7q1.9-3.3 3.9-3.8 2.1-1.1 14.1 16.9h.1l-6.2-12.4 2.4 1.8 7.5 13.9 1.4.4q6.3 1.6 20.9 2.3l6.4 3.9-16.8-2.9h-.7q-3.9 0-6 .9l.6.6 1 1q6.1 10.2-5.5-1.4l1.3 1.4-3.2-3.1-3.1-6.4q4.6 13.6-5.7 0v.2l-.1-.1-.1-.2q-4.2-4.2-10.8-6.5l-10.5-.4-2.4.6-7.4 1.7-5.9 7.4q-3.2-9.3 2.7-13.4Q75 22.4 80.6 19q9.9-5.8 15-14.3z"/><path fill="#40270f" d="m74.8 25.2 6.3-1.9-1.1.4-5.5 2zm-3.4 5.6 7.4-1.7q-3.9 1.2-8.2 3.6l-.2-.2z"/><path fill="#482d11" d="M88.4 21.7q2.7-.4 1.9.7zm-20.1 3q-5.9 4.2-2.7 13.5l5.9-7.4-1 1.7.1.2q-1.3 2-2.2 4-1.5 3.8-.9 7.5l.4 2q-1.3-.8-2.6-1.1-3.8-.7-2.4-7.9-1.3 6-2.6 7.8-1 1.3-3.1 2.2 1.5-1.3 2.6-2.7v-.3q2.2-8-.7-16l-.2-.7q5-1.2 9.4-2.7m-4.5 28.4v.3l-.3-.3zm48.6 2.4v-.2h.3z"/><path fill="#000" fill-opacity=".4" d="m78.9 29.1 2.3-.6 10.5.4q6.6 2.3 10.8 6.5l.1.2q-26-9-33.6 12.8h-.2l-.3-1-.2-.1-.5-1-.4-2.1q-.6-3.7 1-7.5.8-2 2.1-4 4.4-2.4 8.3-3.6m-30.2 27h3.9q2.1.1 6 5.3l1.4 2Q49.5 55.3 47.1 61q-3.1-2.1-3.5-3.3-.1-.5.2-.8l-.2-.6zm22 5.1 2 1.5q1.5 1.7-.4 3l-.4.3-.7.4q-8.9-13-8.9-3.6l-1.4-2.7q-1.6-2.7-1.1-5.1l.4-1.1 3.6-.9v.1h-.2l.3.3q2.6 2.8 4.1 6.4l2.4 1.2zm.3 3.1q.5-1 1.7-1.6-1.1.6-1.7 1.6m-45.6-6.7 8.8-1.1 1.6-.2q.3 1.4-.1 2.8l-.3.1-.8.8q-.7 1.5-1.6 2.9 1.5-5.7-7.5-5.3"/><path fill="#1e1206" d="M102.7 35.7v-.2q10.3 13.6 5.7 0l3 6.4 3.3 3.1-1.3-1.4q11.6 11.6 5.5 1.4h.2l.3.3q2.3 1.8 5.8 3.3l6 2h.6l1.7.3h.3l2.2.4-6.7.1-4.4.2q-1.3.2.1.5l20.3 1.6 3.3.2q3.5 1 6 2l.3.3-.3-.1-12.5-1.7-1.7-.1q-.7 4.4 4.6 8.7-6.4-2.9-7.6-6.6l-7.5 2.9-4 1.5 3-1.7.1-.1q4.4-3 3.3-4.2l.3-.6-8.8-.3q-1.1.1-2.6 1.4l-1.5 1.4-.1.2q-2.7 3-6.4 9.3l-.4-.1v-2.8l2.5-5.3 1-1.9q.5-1.6.1-3.1-.4-2.1-2.4-4l-1-.7-.2-.2-5.5-1-.2-.1.8-1.7.4-1.2.3-1.1-1.8-.9q-1.3-3.2-3.6-5.8l-.2-.3z"/><path fill="#936822" d="M57 47.2q2.2-.9 3.2-2.2 1.3-1.8 2.6-7.8-1.4 7.2 2.4 7.9 1.3.3 2.6 1.2l.5 1 .2.1.3 1 .5 1 .5 1.4v.7q.1.8.7 1l.3.7h.5l1.9 3.4 1.4.4.4.1q-3.2 2.5 4 2.2l9.6-.6-3.4 1.6h-.5l-2.9.1q-2.3.2-3.7.9L77 62q-1.4 1.2-1.2 3v.2l-.5 1q-.4 1 0 2l.1.3q.5 1.1 2.1 2.3l6.2 2.9 4.9 2.4v.5l-17.4-4.1-1.2 1-2.3 2.3-3.5 3.3q5-5.1 4.2-10.7l.4-1 2.3-.9.7-.4.4-.3q1.8-1.3.4-3l-2-1.5-5.5-10.5-2.8-1.7-7.5 4.6-4 2.4h-2.2l3.5-3.6q-15.7 3.8-3.5-.9l2.3-.8q3.5-1.5 5.9-3.3v-.1zm10.6 27.5v1.1zm-42.3-17-4.1.6 3.2-1.3q5.9-2.1 15.5-3.5l-5.9 3z"/><path fill="#684417" d="M48.6 51.6q-12.2 4.7 3.5.9l-3.5 3.7-5 .1.2.6q-.3.3-.1.8.3 1.2 3.4 3.3-3.2-1.4-8.4-2.4-.9 2.8-4.9 5.2l-2 1 .2-.4 1.2-1.1q1.8-2.1 2.4-4.1.4-1.4.1-2.8l-1.6.2 6-3.1 4.3-.7zm2.2 4.5 4-2.4 7.5-4.6 2.8 1.7 5.5 10.5-.3-.2-2.4-1.2q-1.5-3.6-4.2-6.4V53l-3.6.9-.4 1.1q-.5 2.4 1.1 5l1.4 2.8 2 5-1.2.4-3.1-4.9-1.4-2q-3.9-5.2-6-5.3zm12.3 12.2 1-.4.3.9-.9.4.9-.4.5 2.7-1.4-2.3-.2-.5.9-.7-1 .7zm49.8-2.2h.4l-.3.5V66M88 76.8l-.3-.1v-.4l2.8.8zM32 64.4l-.1.4-.7.3z"/><path fill="none" stroke="#180f05" stroke-linecap="round" stroke-linejoin="round" stroke-width="1" d="m81.3 28.5 10.4.4q6.6 2.3 10.8 6.5l.1.2h.1m14.6 7.8q2.1-.9 6-.9h.7l16.8 2.9M70.5 32.7q4.4-2.4 8.3-3.6m-20-1.6.3.8q2.8 7.9.6 15.9v.3q-1.1 1.4-2.6 2.7m10.7-1-.4-2q-.6-3.7 1-7.5.8-2 2.1-4m-7 20.5.3.3M77 62l1-.7q1.5-.7 3.8-.9l2.9-.1h.4m69.9-4.1-.4-.1-12.5-1.7-1.7-.1q-.7 4.4 4.6 8.7-6.4-2.9-7.6-6.6l-7.5 2.9 4.2.8q3.6.3 6.8 1.4l.8.8q.8 1.6 1.9 3.2.8 1.1 1 2.5.2 1 .8 1.7M107.3 47l-.2-.1.8-1.7.4-1.2m-1.5-2q-1.3-3.2-3.6-5.8m13 19.8-6.1-1.4-.7.7m-2.1-8.3-3.8 1.6-3.2 1.3-.5.5-.1.4q0 1 .5 2l.4-.3.8-.7q2.5-1.6 5.9-1.3m-11.2 6.9 3.5-.9q1.2-.1 1.7-1.1V55l-1-2-.1-.1q-1.3.8-2.9.8l-1.2-.1m33.8 5.7-4 1.5 3-1.7.1-.1q4.4-3 3.3-4.2l.3-.6-8.8-.3q-1.1.1-2.6 1.4l-1.5 1.4-.1.2q-2.7 3-6.4 9.3l1.9.8q.3.2 1 .3 3-.3 5.8-1.1 1.2-.3 1.7.5.2.5.8.9m-8.2-11.5q.5-1.6.2-3.1h0q-1.5-1.2-2-2.3-.5-.8-.4-1.6l-1-.8-.2-.2-5.5-1m5.4 8.3-.3.2-1.7 2m2.1 5.7 2.5-5.3 1-1.9m.1-3.1q-.4-2.1-2.4-4m-.8 17.2-.4-.1m0 .4h.1l.3-.3m.6 3.5.3-1.3-.2-.5-1-1.3h0m32.8-4.3q2.1 1 3.2 2.8l-.3.5q-.9 1-.7 2.3m16.2-6.5-.8-.1q-1.5-1-2.8-2.8l-1.2-1.1-.8-.4-2.8-.3"/><path fill="none" stroke="#482d11" stroke-linecap="round" stroke-linejoin="round" stroke-width="1" d="m57 47.2-.2.2h0q-2.4 1.9-5.9 3.4l-2.3.8-4.2 1.2-4.4.7q-9.6 1.4-15.5 3.5l-3.2 1.3 4-.6 8.8-1.1 1.6-.2q.3 1.4-.1 2.8-.6 2-2.4 4L32 64.5l-.1.4 2-1q4-2.4 4.9-5.2 5.1 1 8.3 2.4-3.1-2.1-3.5-3.3-.1-.5.2-.8l-.2-.6 5-.1 2.2-.1h1.7q2.1.1 6 5.3l1.4 2 3.1 4.9 1.2-.4h0l.2.9-.9.4-.2-.5.9-.7.5-.3-.5.2m0 11.2 3.5-3.3v-1.1m.5-27.4-.4-1m1 2.1h.2q3.3-.2 5.8 1.4l.9.6q1.3 1.1 3.1 1.1l1.4-.1 1.3-.4h3.3l.8.8.6.5.6.4m-23 .8q2.6 2.8 4.1 6.4m-7.8-6-.4 1.2M63 68.3l-1.8.9-1.1.2q-3-.2-5.8-1.1-1.2-.3-1.6.6-.4.5-1 .8m11.8-.5 1.4 2.3-.5-2.7 4-.4m-5.2.3-.2-.4m.5.9-1 .5-.2.4-.2.4q0 .9.6 1.8.9 1.3.6 2.4 0 .5-4.3 1.4t-.6 2.4 3.1 3.5 2.7.4m-1.7-12.7.8-1m1.5-1.1 1.2-.5-.3.1zm5.6-15 2.5.2 3.2-.2.3.4q0 1.1-1.5 2.6-1.5 1.4 5.2.7m-9.7-3.7q-.6-.3-.7-1.1v-.7l-.5-1.4M88.6 76l-4.9-2.4-6.2-3q-1.5-1.1-2.1-2.2l-.1-.2q-.4-1 0-2l.5-1.1h0V65q-.2-2 1.2-3.1m-1.2 3.2.7.5q.5.7 1.2 1.1l2.5.3.5-.1.7.1q2.5.9 4.5 2.2v-.6m-13.3-5.9q-1.1.6-1.7 1.6m4.4 3.8q1-.8 2.4-1.4m4.1-6.4.5.3.5.3m3.7 10.8q-.5-1.2-.6-2.5m59.5.4q.9 1 2.5 1h.2l4.9.3 1.6.1m-51.4-34.8-.2-.3-.3-.3m-6.6 17.9-.1-.1-1.3-.4-3.2.1-1 .7-.5.5-.7.4m6.8 2.7-.4.1m18.1 12-.3.6-.7 1.2.9.5M93.3 58q-3.2 0-8.1 2.2m60.2 9.5q1 2.1 1.3 4.4.2 1.2-.4 2.1-.7 1.3.6 2.5 1 .8 2.1.9m-33.6.5v-.6q.3-3.8-2-6.1-.5-.4-.6-1m-22.4 4.7.4 1.2h.1l.3.2 1 .4 1 .4.8.3 1.5.8.5.3q-1.2-.4-2-1.1m-3.1-1.3h.3m4.8 2.3.8.6q.7.8.5 1.7-.5 1.7-.5 3.5 3.7 1 5 2.5m-5-2.5v1.8q0 .9-.3 1.8l-.4.2-.7.1m-6.8-14-17.4-4-1.2 1-2.3 2.3q.8 1.4.6 2.7v.9q5.9 1 8 2.6M88 76.9l-.4-.1m0-.4 2.8.8m-22.2 2.2v1.9q.1.9-.4 1.9h-.6l-1.2.2M17.8 59.1l2.8-.2m7.9 9.7h-.1l-5.1.3-3.6.2q-1 0-1.9.8L15 71.5l-.8.6M47 61l3.1 2m-14.6-3.8-.3.1-.8.8q-.7 1.5-1.6 2.9l-.2.3-.7 1-.8.8.7-.3-.3 1q-.3 1.2-.9 1.8-1 2.2-1.2 4.5-.2 1.1.4 2 .6 1.4-.6 2.5-1 .9-2.1.9m1.2-9q1.5 0 2.3-.9"/><path fill="none" stroke="#684417" stroke-linecap="round" stroke-linejoin="round" stroke-width="1" d="m86.6 69.9 2 .8m9 5.4 1 .4m5.5 2.5.7.1m-7.2-3-.8-.2m-8.2-3.5-3.3.8q-.8 0-1.6.5M70 73.5h1.7"/><path fill="none" stroke="#40270f" stroke-linecap="round" stroke-linejoin="round" stroke-width="1" d="m154.6 71.1 2 .1q1 0 1.8.8 1.4 1 2.9 1.7.3 0 .5.3"/><path fill="none" stroke="#664019" stroke-linecap="round" stroke-linejoin="round" stroke-opacity=".7" stroke-width="1" d="m96 80.8 4.1.8 1.4.3q1.5.7 3.3.9t3.1.8l.7.4.4.3.5.6q.6.6.4 1.5m-7-11.7-1.9.4q-1.7.1-3 .8l-.4.2-.4.2-.4.2v.2l-.5.5q-.5.5-5.7 0m-.2 0h.2m-.2 0-2.5-.3m-75.8 10 .8-1.1q.2-2.2-1-4.2-.5-.6-.2-1.9-2-1.6-3.1-4.1L8 74.4v.8l-1.1 1q1.5 4.1-.6 8.2m.8-11 .9 1"/><path fill="none" stroke="#664019" stroke-linecap="round" stroke-linejoin="round" stroke-opacity=".8" stroke-width="1" d="m8 74.4-.3-1.7q-.2-2-.1-4 0-1 .5-2 .5-1.1 1.9-1.7"/><path fill="none" stroke="#66401a" stroke-linecap="round" stroke-linejoin="round" stroke-opacity=".5" stroke-width="1" d="M9.2 63.7q-2.7.8-5.6 0l-.6.2-.9.7-.5.9q-.4 1.1-1.1 2.2m27.9.9L27 70l.3.5q1.1 1.1.6 2.9l-.2.3q-1.8 1-4.4.8l-1.4-.2-.7-.1q-.7 0-1.2.6-2.4 3-3 6.9v2.6l.1 5m13.1-22.2q-1.1.5-2 1.4"/><path fill="none" stroke="#71451a" stroke-linecap="round" stroke-linejoin="round" stroke-width="1" d="m10.3 64.3.4-.6 2.2-.3q1.5-1 2.8-2.7l1.3-1.1.7-.5"/></g></defs><g clip-path="url(#a)"><use xlink:href="#b" width="164.6" height="91" transform="translate(1 1)"/></g></svg>