<svg xmlns="http://www.w3.org/2000/svg" xmlns:xlink="http://www.w3.org/1999/xlink" width="55" height="93" viewBox="0 0 55 93"><defs><clipPath id="a"><path d="M1 1h53v91H1z"/></clipPath><g id="b"><path fill="#88753c" d="m34.3 6.7-3 .2 2.2-2.1.3.1z"/><path fill="#c3ad69" d="m33.5 4.8-2.2 2 3-.1 3.8-.2 7.8 2.8-20.3 9.3L8.9 11l1.7-2.7 16-6z"/><path fill="#b59e55" d="m8.9 11 16.7 7.6V27l-.9 6 .4 4-2.9 1.4-.7 15.3 4.1 2.2v10.9l-2 4.3v.1l-1.9-6.4q-2.3 5.2-3.4 5.4l-2.8-.3-6.5 3-3.5-5-4 2.8q1.9-9 3-18 .9-6.8 1.4-13.6.8-12 .5-23.9zm7.4 43.2 2.4-2.8-1.1-1.2-2.3 2.6zM8 59.9l3.1 1.7 3.2-2.5-2-4.7L8 57.3z"/><path fill="#785c2e" d="m25.6 18.6 20.3-9.3h.2L46 25.5l-.9 4 .9 1.8q.3 18 2.1 29.9l-3.6-1.1-3.4.2.5 5.3-4.7 2-1-3-6 4.3-4.3-2.1v-11l3.6-2 .2-.1 1.3-9.1-3.4-6.5-.8-.4.2-.7v-.1l1.1-5.4-2.2-4.5zm10 42.3 1.8 1.5 2.4-7.5L34 56z"/><path fill="#5f5429" d="M48.1 61.2q1.5 9.8 4 15.5-3.9 3.2-10.7 3.4-7.3 6.4-15.8 10.2V66.8l4.3 2.1 6-4.2 1 2.9 4.7-2-.5-5.3 3.4-.2z"/><path fill="#998843" d="M25.6 90.3Q16.6 86 9.9 80q-5-.3-9.8-2.9l1.4-6.5 4-2.8 3.5 5 6.5-3 2.8.3q1.1-.2 3.4-5.4l1.9 6.4V71l2-4.3z"/><path fill="#9b8644" d="m26.5 37.7-1.4-.6-.4-4 .9-6.1 2.2 4.5-1.1 5.4z"/><path fill="#a48d48" d="m25.1 37 1.4.7.8.4 3.4 6.5-1.3 9-.2.2-3.7-.7-4 .6.8-15.3z"/><path fill="#8e7a3e" d="m21.5 53.7 4-.6 3.7.7-3.6 2z"/><path fill="#5c5b30" d="M35.6 60.9 34.1 56l5.6-1.2-2.4 7.5z"/><path fill="#c1ae73" d="m16.3 54.2-1-1.4 2.3-2.6 1 1.2zm-8.1 5.7L8 57.3l4.6-2.9 1.9 4.7-3.2 2.5z"/><path fill="none" stroke="#c1ae73" stroke-linecap="round" stroke-linejoin="round" stroke-width="__RESOLUTION__" d="m33.8 4.9-.3-.1-6.9-2.5-16 6L8.9 11m37-1.7L38 6.5M.1 77.2l1.4-6.5" vector-effect="non-scaling-stroke"/><path fill="none" stroke="#000" stroke-linecap="round" stroke-linejoin="round" stroke-opacity=".4" stroke-width="__RESOLUTION__" d="m45.9 9.3.2-.1v.1L46 25.5m0 5.8q.3 18 2.1 29.9 1.5 9.8 4 15.5" vector-effect="non-scaling-stroke"/><path fill="#9ba42f" fill-opacity=".6" d="M2 6.4q.3-.4.7.8.9 2.9 1.6 3.6.3.3 1.3.4.8.1.6-1.3-.1-1.4-1.5-6.3Q3.4-.6 4.3.2t2.1 7.2l.2.8Q8 11 8 6q-.1-1.5.7 0-.4.9-.2 4.6l.1 2.5q0-1.3.8-1.1.3 0 .7 1.3l.5-.1q.6-1.2 1.2 1l-1 1.3q.1.7.8 1l-.2.5q-.5-.6-1.6-.8-1.6 1-3.4.5-.5-3 .8-2-.6-1.7-1.7-2-2.7-1.2-3.3-4.3-.3-1.5-.1-2"/><path fill="#9ba42f" fill-opacity=".6" d="m2.6 8.7-.3-1.2q.2-.3.5.4L4 11.1q.6.7 2 .8.8.2.5-1.5-.1-1.3-1.1-5-.8-2.7-.5-2.5.6.7 1.6 5.9l.2.6q.4.8.9.7t.5.9v1.8q.1-.9.6-.7.2 0 .5 1l.4-.1q.5-1 .9.9l-.7.8q.1.6.6.8l-.2.5-1.1-.7q-1.2.8-2.6.3-.4-2.3.6-1.5-.5-1.6-2.3-2Q3 11 2.6 8.7"/><path fill="#bfb14d" d="M40.9 10q-1.1.8-.5 1.7v.3l-1.2.5-6.2 2.8h-.1q-7.6-1.7-17.9-1.5 10-1 14.8-4 3.7 1.2 11.1.2"/><path fill="#9f9339" d="M39.2 12.5q-.7.7-.5 2.4l.5 4-.7-.5q.8-3-5.5-3.1z"/><path fill="#c9bc67" d="m15 13.8-2-.9-.3-.3-.4-.1-1-.5-.2-.3H11q-.3-.5-1.8-1.2l.9-1.3q6 0 9.4-1.5v-.1l4.3-2.1.3-.1L26.3 4q7.2 4 12.4 4.5 1.8-.1 3.7-.7l1.9.7q-2.4.8-3.4 1.5-7.4 1-11.1-.1-4.8 3-14.8 3.9"/><path fill="#d5cb88" d="M15 13.9q-.6.8-1.2 3.4l-.1-2.2q-.3-1.5-.6-2.2zm4.6-6.3q.4-1.5-.8-2.5l1.3-.5h.1q1.4.9 3.6.9z"/><path fill="#9ba42f" fill-opacity=".6" d="M27.3 49q-.7-4 .4-4.6 1-.6.9 2.1-.2 3.2.1 4 .3.9 1.5.7l1.9-.4q.8-.5 1-2.4.1-.8.8-.6.5.3.6 1.2.2 2-3.5 3.2-1.7.3-2 1.4 1.8-.8 2.1 1l-5.6.2-2.1.7-.4-.2q.8-.2.7-.8l-2.1-.5q0-1.5 1.5-.9h.9q.2-.8.5-.8 1-.2 1.6.4l-.7-1.4q-1.2-2.3-2.1-2.7.4-1 .9-.1 2 3.1 3.2 1z"/><path fill="#9ba42f" fill-opacity=".6" d="M28 47.8q-.2 2.4.1 3.2.3 1 1.4.8 2.4-.2 3-.8.5-.4.8-2.1 0-.5.5-.3l.2.8q.2 1.5-2.3 2.3-2.8.6-3 1.6 1.3-.6 1.6.8l-4.2.2q-1.2.2-1.6.5l-.3-.2q.6-.2.6-.6l-1.6-.4q.1-1.1 1.2-.6h.6q.1-.7.4-.7.8-.2 1.2.4l-.6-1.1q-.3-.7.4-.7.9 0 1.2-.5V50q-.6-3.3.1-3.7.4-.2.3 1.5"/></g></defs><g clip-path="url(#a)"><use xlink:href="#b" width="52.2" height="90.3" transform="translate(1 1)"/></g></svg>