<svg xmlns="http://www.w3.org/2000/svg" xmlns:xlink="http://www.w3.org/1999/xlink" width="42" height="29" viewBox="0 0 42 29"><defs><clipPath id="a"><path d="M1 1h40v27H1z"/></clipPath><g id="b"><path fill="#f94400" d="m35.5 15.8 1.5-1 2 11.4-2-.3zM19 2l4.3 4.7-3.6 4.4-1.8-.3L21.7 8zm9.9 11.6h.8l2.3 5-.6.4-.4.2-2.8-3.4z"/><path fill="#b30" d="m37 26-14-3.1 6.6-2.7 1.8-1.2.6-.4 3.5-2.8z"/><path fill="#900" d="m29.6 20.2-1.5-3.7-13-.8 2.8-4.9 2-3.5-4.6-3-4 3.5L12.7 2 17.3.1l1.6 2L21.8 8 18 10.8l1.9.3-.2.5 9.3 2-.7 2.2 2.8 3.4.4-.2z"/><path fill="#611a17" d="m11.4 7.8-5 2.7L4.6 9 9 1.2l2.8 1.1.8-.3z"/><path fill="#3c1716" d="M4.6 9 0 5.5l.5-2.2L6.1 0l2.8 1.2z"/><path fill="none" stroke="#480000" stroke-linecap="round" stroke-linejoin="round" stroke-width="__RESOLUTION__" d="m35.5 15.8 1.5-1 2 11.4-2-.3-14-3 6.6-2.7-1.5-3.7-13-.8 2.8-4.9 2-3.5-4.6-3-4 3.5-4.9 2.7L4.6 9M9 1.2l2.8 1.1.8-.3L17.3.1l1.6 2 4.4 4.6-3.6 4.4-.1.5h0l9.3 2h.8l2.3 5 3.5-2.8M31.4 19l.6-.4m-.6.4-1.8 1.2" vector-effect="non-scaling-stroke"/></g></defs><g clip-path="url(#a)"><use xlink:href="#b" width="39" height="26.4" transform="translate(1 1)"/></g></svg>