<svg xmlns="http://www.w3.org/2000/svg" xmlns:xlink="http://www.w3.org/1999/xlink" width="120" height="144" viewBox="0 0 120 144"><defs><g id="h"><path fill="url(#a)" d="M59.1 29.1q7.1 0 12.2 8.4T76.4 58t-5 20.3q-5.2 8.5-12.3 8.5t-12.2-8.5Q41.8 70 41.8 58t5-20.5 12.3-8.4" transform="translate(-41.75 -29.1)"/><path fill="url(#b)" d="M59.1 67.1q7.1 0 12.2 8.5T76.4 96t-5 20.3q-5.2 8.5-12.3 8.5t-12.2-8.5Q41.8 108 41.8 96t5-20.5 12.3-8.4" transform="translate(-41.75 -29.1)"/></g><g id="g"><path fill="#201c14" d="M14.2 5.2Q1.7 6.8 0 3.2 0 1.7 1.5.9q2 4 12.7 4.4"/><path fill="#494422" d="M1.5.8q3-1.8 13 .6 5.4 2.9.3 3.7l-.6.1Q3.5 4.7 1.5.8"/><path fill="none" stroke="#000" stroke-linecap="round" stroke-linejoin="round" stroke-opacity=".4" stroke-width="__RESOLUTION__" d="M14.2 5.2Q1.7 6.8 0 3.2 0 1.7 1.5.9q3-1.8 13 .6 5.4 2.9.3 3.7z" vector-effect="non-scaling-stroke"/></g><g id="f"><path fill="#3f371f" d="M88.3 31.4q-12-2.4-17.7 0 1.1-4-20.1 3.6l-10.2 6.8q10.6-8.6 7.8-8.4l18.5-4.2 5.8.1 16.7.5zM22.5 42.7q5 3.9 18.5 3.1-12.8 2.2-12.9 1v-.1l.6-.2q-.5-.4-.6.2-.6.2-5.6-4"/><path fill="none" stroke="#453429" stroke-linecap="round" stroke-linejoin="round" stroke-opacity=".2" stroke-width="1" d="m89 29.8-16.6-.5-5.8-.1-18.5 4.2q2.8-.2-7.9 8.4L50.6 35q21.2-7.7 20-3.8 5.8-2.3 17.8 0M52 52l6.8 15.6M18.4 8.8l10.1 22.7L52 52m-24-5.4.6-.2q-.5-.4-.6.2"/><path fill="none" stroke="#322119" stroke-linecap="round" stroke-linejoin="round" stroke-opacity=".2" stroke-width="1" d="m88.3 31.4.8-1.6m-16.7-.5 12.3-10.2 5.2-1.8V7L99.3.5m-4.2 15.1-5.2 1.7M51.9 52l22.8-11 6.3 2.4m-63-3.6 2.8 1.7 1 .6.7.5q5 3.9 18.5 3.1-12.8 2.2-12.9 1v5.6l9.5 5 4 7.5M28.2 52.3v5.8l-4.6 5.8m4.6-17.3q-.6.2-5.6-4m-18 13 1.6-10.2-5.6-3m5.6 3 14.7-3.9"/></g><g id="e"><path fill="#594f26" d="m39.3 6.4 9.5 1Q59.4 9 64 0l-7 27.6-10.4-4v-.2Q41 22.2 35.3 22q4-7.3 4.1-15.5M55 36.4l-5 20Q32.4 51 14 56L9 36l8.9-3.9q15.5-3.8 28.8-.1zM6.7 26.6 0 .3.3 0q6.2 10 20.3 7.6Q28.8 6.1 37 6.3q.3 7.8-2.4 15.6-8.6-.3-17 1.5z"/><path fill="#807137" d="m57.1 27.6-2.2 8.6-8.1-4.2q-13.3-3.7-28.8.1l-9 4-2.4-9.5 11-3.2q8.5-1.8 17.2-1.5-1.1 2.4-2.8 4.4 2-2 3.3-4.4 5.7.3 11.5 1.5v.1z"/><path fill="#000" d="m37.1 6.3 2.2.1q-.1 8.2-4 15.5-1.3 2.4-3.3 4.4 1.7-2 2.8-4.4 2.6-7.7 2.3-15.6"/><path fill="none" stroke="#000" stroke-linecap="round" stroke-linejoin="round" stroke-opacity=".3" stroke-width="__RESOLUTION__" d="m64 0-7 27.6-2.2 8.6-5 20.1Q32.4 51 14 56L9 36l-2.4-9.4L0 .3" vector-effect="non-scaling-stroke"/></g><g id="d"><path fill="#241f11" d="M88.3 31.4q-12-2.4-17.7 0 1.1-4-20.1 3.6l-10.2 6.8q10.6-8.6 7.8-8.4l18.5-4.2 5.8.1 16.7.5zM22.5 42.7q5 3.9 18.5 3.1-12.8 2.2-12.9 1v-.1l.6-.2q-.5-.4-.6.2-.6.2-5.6-4"/><path fill="none" stroke="#271e17" stroke-linecap="round" stroke-linejoin="round" stroke-opacity=".2" stroke-width="1" d="m89 29.8-16.6-.5-5.8-.1-18.5 4.2q2.8-.2-7.9 8.4L50.6 35q21.2-7.7 20-3.8 5.8-2.3 17.8 0M52 52l6.8 15.6M18.4 8.8l10.1 22.7L52 52m-24-5.4.6-.2q-.5-.4-.6.2"/><path fill="none" stroke="#1c130e" stroke-linecap="round" stroke-linejoin="round" stroke-opacity=".2" stroke-width="1" d="m88.3 31.4.8-1.6m-16.7-.5 12.3-10.2 5.2-1.8V7L99.3.5m-4.2 15.1-5.2 1.7M51.9 52l22.8-11 6.3 2.4m-63-3.6 2.8 1.7 1 .6.7.5q5 3.9 18.5 3.1-12.8 2.2-12.9 1v5.6l9.5 5 4 7.5M28.2 52.3v5.8l-4.6 5.8m4.6-17.3q-.6.2-5.6-4m-18 13 1.6-10.2-5.6-3m5.6 3 14.7-3.9"/></g><g id="c"><path fill="#473f1f" d="M90.1 30.4v-.1zv-.1zv-.1h-.4.4-.4zm3.9 75.3q-.7 10.9-1.8 22.3-8.4 6.1-19 1.3-2.6-1.2-5.5-2.2-2.2-9.1-1.4-12.4-1.6 4.2 0 12-8.6-2.8-20.6-4.2t-21.1 4.8l-1.4-10.5-.2-1.8-.9-7.8Q34.7 98.8 49 96.4q9.8-3 25.6 0 12.5 3.8 19.4 9.3"/><path fill="#363018" d="M90.1 30.4q6 35 3.8 75.3-7-5.5-19.4-9.3-15.8-3-25.6 0-14.2 2.4-26.9 10.8-3.9-42.7 3.5-77h.4l.2.5 14 55.7q18.4-5 35.8.3z"/><path fill="#231f10" d="m89.9 30.3.2.1q-4.5 9-15.7 9-15.3-1.7-32.2 0-9.7 1-15.8-8.8h-.2l-.1-.4h-.5L0 15.8q66-31.4 117.3 0L90.2 30.3z"/><path fill="#4e4432" d="m92.2 128-1.4 10.2q-6.7-3.5-19.5-.1l-3.6-11q2.9 1 5.5 2.3 10.6 4.7 19-1.5M69 137.8q-7.4 3.1-17.5.3-12.1-3.6-25.1-.2l-1.8-10.5q9-6.3 21-4.8 12 1.4 20.7 4.3z"/><path fill="#000" d="m71.4 138.1-2.5-.4-2.6-11q-1.6-7.8 0-12-.8 3.3 1.4 12.5z"/><path fill="none" stroke="#000" stroke-linecap="round" stroke-linejoin="round" stroke-opacity=".3" stroke-width="__RESOLUTION__" d="M90.1 30.4v-.1zm-63.9-.1.2.4" vector-effect="non-scaling-stroke"/></g><g id="j" transform="translate(0 15.7)"><use xlink:href="#c" width="117.3" height="139.3" transform="translate(0 -15.7)"/><use xlink:href="#d" width="99.8" height="68.1" transform="matrix(.04 .56 -.66 -.25 82.1 61.55)"/><use xlink:href="#d" width="99.8" height="68.1" transform="matrix(-.41 .72 -.37 -.52 71 52.25)"/><use xlink:href="#e" width="64" height="56.4" transform="translate(26.15 14.7)"/><use xlink:href="#f" width="99.8" height="68.1" transform="matrix(.5 .25 -.18 .68 37.8 19.2)"/><use xlink:href="#g" width="17.3" height="5.7" transform="matrix(.39 .23 -.4 .7 38.1 115.35)"/><use xlink:href="#g" width="17.3" height="5.7" transform="translate(34.05 119.1)"/><use xlink:href="#g" width="17.3" height="5.7" transform="matrix(.45 0 0 .81 27.25 120.1)"/><use xlink:href="#g" width="17.3" height="5.7" transform="matrix(.36 0 0 .65 68.4 119.55)"/><use xlink:href="#g" width="17.3" height="5.7" transform="matrix(.25 0 0 .65 57 121.1)"/><use xlink:href="#g" width="17.3" height="5.7" transform="matrix(.36 0 0 1.38 78.7 115.95)"/><use xlink:href="#g" width="17.3" height="5.7" transform="matrix(.25 0 0 .65 45.05 122.25)"/><use xlink:href="#g" width="17.3" height="5.7" transform="matrix(.39 .23 -.4 .7 72.45 115.6)"/><use xlink:href="#g" width="17.3" height="5.7" transform="matrix(.45 0 0 .81 61.6 120.35)"/><use xlink:href="#g" width="17.3" height="5.7" transform="matrix(.55 0 0 1.74 83.1 115.7)"/><use xlink:href="#h" width="34.6" height="95.8" transform="translate(41.75 29.1)"/></g><radialGradient id="b" cx="0" cy="0" r="819.2" gradientTransform="matrix(.02 0 0 .04 59.05 95.95)" gradientUnits="userSpaceOnUse" spreadMethod="pad"><stop offset="0" stop-color="#000" stop-opacity=".3"/><stop offset="1" stop-color="#000" stop-opacity="0"/></radialGradient><radialGradient id="a" cx="0" cy="0" r="819.2" gradientTransform="matrix(.02 0 0 .04 59.05 57.95)" gradientUnits="userSpaceOnUse" spreadMethod="pad"><stop offset="0" stop-color="#000" stop-opacity=".3"/><stop offset="1" stop-color="#000" stop-opacity="0"/></radialGradient><clipPath id="i"><path d="M1 1h118v142H1z"/></clipPath></defs><g clip-path="url(#i)"><use xlink:href="#j" width="117.3" height="141.7" transform="translate(1 1)"/></g></svg>