<svg xmlns="http://www.w3.org/2000/svg" xmlns:xlink="http://www.w3.org/1999/xlink" width="36" height="79" viewBox="0 0 36 79"><defs><g id="h"><path fill="#96963e" d="M7.9 2.4 5.1 4.3q-2.3 1.4-3.6.4t-1.2-2Q.3 1.5 1.8.8 3 .2 5 .3q1.8.2 2.8.8 1 .5.7.7z"/><path fill="none" stroke="#141400" stroke-linecap="round" stroke-linejoin="round" stroke-opacity=".2" stroke-width="__RESOLUTION__" d="M7.9 2.4 5.1 4.3q-2.3 1.4-3.6.4t-1.2-2Q.3 1.5 1.8.8 3 .2 5 .3q1.8.2 2.8.8 1 .5.7.7z" vector-effect="non-scaling-stroke"/></g><g id="g"><path fill="#8e8e38" d="M7.9 2.4 5.1 4.3q-2.3 1.4-3.6.4t-1.2-2Q.3 1.5 1.8.8 3 .2 5 .3q1.8.2 2.8.8 1 .5.7.7z"/><path fill="none" stroke="#171700" stroke-linecap="round" stroke-linejoin="round" stroke-opacity=".2" stroke-width="__RESOLUTION__" d="M7.9 2.4 5.1 4.3q-2.3 1.4-3.6.4t-1.2-2Q.3 1.5 1.8.8 3 .2 5 .3q1.8.2 2.8.8 1 .5.7.7z" vector-effect="non-scaling-stroke"/></g><g id="f"><path fill="url(#a)" d="M-1.2-22.6h2.5Q.3-11 1.3-.4l-2.5.3q1-11.5 0-22.5" transform="translate(1.6 23.25)"/><path fill="none" stroke="#1d1d00" stroke-linecap="round" stroke-linejoin="round" stroke-opacity=".3" stroke-width="__RESOLUTION__" d="m.4.6 2.5.1q-1 11.5 0 22.2" vector-effect="non-scaling-stroke"/><path fill="none" stroke="#1d1d00" stroke-linecap="round" stroke-linejoin="round" stroke-opacity=".1" stroke-width="__RESOLUTION__" d="M.4 23.1Q1.4 11.6.4.6" vector-effect="non-scaling-stroke"/></g><g id="e" fill="#2b290f" fill-opacity=".2"><path d="M4.4 3.9 4 3.8l4.1-2.3-2.8 3-.5.3.8.5-3.7 1-1-1.4 1.4-.7L3.7 4z"/><path d="m4 3.8 1.1-.2-.6-.1 6-3.5-4.1 4.5-.8.5 1.2.8-5.4 1.4L0 5.1l2-1z"/></g><g id="d"><path fill="#7b7b2c" d="M7.9 2.4 5.1 4.3q-2.3 1.4-3.6.4t-1.2-2Q.3 1.5 1.8.8 3 .2 5 .3q1.8.2 2.8.8 1 .5.7.7z"/><path fill="none" stroke="#1d1d00" stroke-linecap="round" stroke-linejoin="round" stroke-opacity=".2" stroke-width="__RESOLUTION__" d="M7.9 2.4 5.1 4.3q-2.3 1.4-3.6.4t-1.2-2Q.3 1.5 1.8.8 3 .2 5 .3q1.8.2 2.8.8 1 .5.7.7z" vector-effect="non-scaling-stroke"/></g><linearGradient id="a" x1="-819.2" x2="819.2" gradientTransform="matrix(0 -.01 .01 0 -.05 -15.1)" gradientUnits="userSpaceOnUse" spreadMethod="pad"><stop offset=".5" stop-color="#64681a" stop-opacity="1"/><stop offset="1" stop-color="#525613" stop-opacity="1"/><stop offset="1" stop-color="#626618" stop-opacity="0"/></linearGradient><clipPath id="b"><path d="M1 1h34v77H1z"/></clipPath><path id="c" fill="none" stroke="#23240f" stroke-linecap="round" stroke-linejoin="round" stroke-opacity=".5" stroke-width="1.5" d="M11.2-65.4q-1-.6-1.8-.2-.5.2-.7.8h0q-.7-.7-1.1-.4l-.5-.3q-4.2 4.8-8.9 9.3l-.6-1.6q-.9-1.7-2.2-2.6-1.2-.7-2.2-.3l-.5-1.1 1.8.3 4.1-.3q2.4-.5 3.9-1 1.5-.7-2.1-.7h-6.1L-7-63q-.7.4-.6 1l.3.2-.5.1.6 1.2q-.5.5-.7 1.3-.2-.4-.5-.4.4-.6.3-1.4 0-1.1-1.5-1.8l-.7-.2q.5-1-.3-1.4h-.1q1-.2 1.3-1 .6-1-.2-2.3t-2.5-2.2-2.8-1-1 .3l.3.9 1.3 3q.9 1.8 2 2.3l-.8.1q-1.7.5-2.8 1.2-1.2.6-1 .8l.3.4 1.3 1.3q.5.4 1 .4l1 .7-.5.3-2.9 2.4q-1 1-.7 1l.8-.1 2.7-.5q2-.5 3.2-1.6l-1.3 2-.6 1.9q0 .5.3.3l.6-.6.1-.1.3.3.6-.2 2.1-1q1-.6 1.4-1.2l1.5.9.9.5.3.9h-.2l.4 1.8-1.9.6-2.7 1.3-.8.4q-.4 0 0 .5.3.3 1.4.5l2.5-.4 1.7-1q.7 5.5.6 11.1l-.5.2q1 8.5-.3 17.2l.2.2h0q1 10.3 0 21.1L-6 .2l1.5 2.1L.8.9-.4 0l.8-.5L4.6-5l-6 3.5-.3.2q-.8-10 0-20.7l-.6-.2h.6q-.9-8.3.2-17h0v-.1Q-2.8-46.4-2.6-54l.2-.4.6.3q.4.1.3-1v-.2l8.9-9.2.1 1.4q.4 1.8 1.4 4 1 2.1 2 3.3 1 1.4.1-2.1l-1.2-4.5.4.3 2.2 1 .7.3q.2 0 .2-.7l-.7-2.1q-.5-1.2-1.4-1.9m-.2-5.8-.8 2.6q-.8 2.1-2.1 1.8t-1.8-1.4 0-2.1 2-1.6l2.2-.4q.8.1.8.5zM-3.4-54.6l-.8-.4.3.5h.4zm-6.7 11.3.2.6.9 2q.8 1.8 2 1.7 1 0 1.4-.7t-.2-1.6q-.5-1-1.7-1.6t-2-.6zm3.4 4.8-3.6-.4-3.3.5q-1.2.4-.7.5l.8.5 3 1.2 1.7.5-1.3 1.3q-.4.5-.2.5h.6l1.9-.2q1.6-.2 2-1.1.3-.7.2-1 .6-.6.6-1-.1-.9-1.7-1.4" transform="translate(18.2 73.15)"/></defs><g clip-path="url(#b)"><g transform="translate(16.1 88.35)"><use xlink:href="#c" width="32.2" height="76.2" transform="translate(-14.25 -86.85)"/><use xlink:href="#d" width="8.9" height="5.3" transform="matrix(.5704 .3056 .0792 .4545 2.2 -67.35)"/><use xlink:href="#d" width="8.9" height="5.3" transform="matrix(-.6549 -.0002 .5518 -.6769 -1.15 -62.75)"/><use xlink:href="#e" width="10.6" height="7.2" transform="translate(-2 -18.6)"/><use xlink:href="#f" width="3.3" height="23.4" transform="translate(-.55 -36.25)"/><use xlink:href="#f" width="3.3" height="23.4" transform="matrix(.9998 .0181 -.0139 .7684 -.4 -53.5)"/><use xlink:href="#f" width="3.3" height="23.4" transform="matrix(.8123 -.0603 .0512 .6892 -1.05 -68.4)"/><use xlink:href="#d" width="8.9" height="5.3" transform="matrix(.1493 -.3545 .8651 1.8679 10.5 -77.65)"/><use xlink:href="#f" width="3.3" height="23.4" transform="matrix(.2846 .2739 -.4784 .4972 11.15 -79.6)"/><use xlink:href="#d" width="8.9" height="5.3" transform="matrix(-1 .6517 0 .6939 -4.85 -76.4)"/><use xlink:href="#d" width="8.9" height="5.3" transform="matrix(-.3678 .6749 .6272 -.1535 -6.4 -73.1)"/><use xlink:href="#d" width="8.9" height="5.3" transform="matrix(-.8412 .1749 -.5379 .9343 -4.75 -79.15)"/><use xlink:href="#f" width="3.3" height="23.4" transform="matrix(.1961 -.0885 .1546 .3426 -4 -75.5)"/><use xlink:href="#g" width="8.9" height="5.3" transform="matrix(.6369 -.3653 .4962 .8651 8.75 -84.1)"/><use xlink:href="#g" width="8.9" height="5.3" transform="rotate(59.612 77.738 -27.201)scale(.727)"/><use xlink:href="#h" width="8.9" height="5.3" transform="matrix(-1 0 0 1 -3.85 -77.3)"/><use xlink:href="#d" width="8.9" height="5.3" transform="matrix(-.3678 .6272 .6272 .3678 -5.4 -73.95)"/><use xlink:href="#h" width="8.9" height="5.3" transform="matrix(-.8412 -.5379 -.5379 .8412 -3.75 -81.2)"/><use xlink:href="#d" width="8.9" height="5.3" transform="matrix(-.514 .3538 .2843 .413 -2.4 -51.45)"/><use xlink:href="#h" width="8.9" height="5.3" transform="matrix(-1.1257 0 0 .6904 -.75 -52.9)"/><use xlink:href="#d" width="8.9" height="5.3" transform="matrix(-.5808 -.3714 -.3714 .5808 -.5 -54.9)"/><use xlink:href="#h" width="8.9" height="5.3" transform="matrix(.5266 .8484 -.8484 .5266 -.9 -76)"/><use xlink:href="#h" width="8.9" height="5.3" transform="matrix(-.3064 -.2339 2.0297 -.3698 -2.7 -74.5)"/></g></g></svg>