<svg xmlns="http://www.w3.org/2000/svg" xmlns:xlink="http://www.w3.org/1999/xlink" width="3" height="53" viewBox="0 0 3 53"><defs><clipPath id="a"><path d="M1 1h1v51H1z"/></clipPath><g id="b"><path fill="#3a3312" d="M21.3 13.6v-4l6.3 3.2v3.6l-1-.9z"/><path fill="#2a270c" d="M27.6 16.5v-3.7l-6.3-3.2v4l-3.2-1.2v17.8h-.8l-1-.5-4.6-2V.4l3.2.7q6.6 2.4 16.5 9.9l.4 3.9v6zm0-3.6 4.1 2.1zm-6.3-3.2-4.7-2.5-5-2.6 5 2.6zm-5 20.1.3-22.5z"/><path fill="#76603b" d="m21.3 13.6 5.3 1.9 1 1v18.8l-6.3-3.1z"/><path fill="#655532" d="m27.6 16.5 4.2 4.5.1 16.5-4.3-2.2zm4.4 30h.2v.1zm-10.7-33V32l-3.2-1.9V12.5z"/><path fill="#614f25" d="M11.6.4v4.1l.2 23.2v11.5l-2 .9-2.5 1.1-1.4.8q-.3-11.1-.2-21.1V17l.1-3.8v-1l.1-1.9V.2l.5.1v.1l.1-.1zm20.6 50.4V55l-9.7 5.5L.4 48.8V45l22.3 11.5 6.1-3.4z"/><path fill="#5d522e" d="m21.3 32.2 6.3 3.1 4.3 2.2.3 9H32l-1.9-.9L29 45l-2-1-3-1.5-1.5-.7-1-.5-1.8-1-2-1-.3-9.1h.8z"/><path fill="#a19976" d="m21.4 41.3 1 .5 1.6.8 2.9 1.4 2 1 1.3.6 1.8 1h.2v4.2l-3.5 2.5-6.1 3.4L.3 45l-.3-.2 5.9-3v.3l1.4-.9 2.5-1.1 2-1 2.8-1.2 1 .5 2 1 2 .9z"/><path fill="#201b09" d="m17.3 30.2.3 9.2-2-1-1-.5-2.8 1.3V27.6l4.4 2.1z"/><path fill="none" stroke="#000" stroke-linecap="round" stroke-linejoin="round" stroke-opacity=".7" stroke-width="__RESOLUTION__" d="M27.6 16.5v-3.7l-6.3-3.2v22.5l6.3 3.2zm4.2 4.5v-6l-4.2-2.2m4.1 2.1-.2-3.8q-10-7.5-16.6-9.9h0L11.6.4v4.1l5 2.6 4.7 2.5m.1 31.7 1 .5m1.6.8 2.9 1.4m2 1 1.3.6m2 1-.3-9.1-4.3-2.2m4.6 11.4v-.2m-.2 0 .2.1v4.2M6.4.4l5.1.1m9.7 31.8-3.2-2h-.8l-1-.5-4.6-2v11.5l2.9-1.4 1 .6m2 1 2 .9M31.8 21l.1 16.5M9.8 40l-2.5 1.1m4.5-13.6-.2-23.1m5 2.6-.4 22.6" vector-effect="non-scaling-stroke"/><path fill="none" stroke="#000" stroke-linecap="round" stroke-linejoin="round" stroke-opacity=".6" stroke-width="__RESOLUTION__" d="M32.2 50.8v5M.4 45.1v3.6l22.3 11.7 9.6-5.5M.4 45l-.3-.2 5.9-3" vector-effect="non-scaling-stroke"/></g></defs><g clip-path="url(#a)"><use xlink:href="#b" width="32.3" height="60.4" transform="matrix(-.8053 0 0 .8386 2 1)"/></g></svg>