<svg xmlns="http://www.w3.org/2000/svg" xmlns:xlink="http://www.w3.org/1999/xlink" width="19" height="28" viewBox="0 0 19 28"><defs><clipPath id="a"><path d="M1 1h17v26H1z"/></clipPath><g id="b"><path fill="#cfbd9b" d="M.3 3.9Q.2 2.5.8 1.2l1.7-1 6.9 3.6h1L8.4 5v1L4.7 4zM7 20.3l-2.7-2-3.1-1H.8q2.4-2.2 2-4.6-.2-1.7.6-4.3l1.3.3 1.8.6 4 2.8-.6 1.9 1 6.1-1.3 2.1zm-2-8.6-.7-.4zm3.3 2.2-2.2-1.6zm.2-2.3-4-2.8zm0 6-3.8-2.9z"/><path fill="#a18a66" d="M.3 3.9h4.4l3.7 2v1.3L6.2 5.4h-2l.2.2-.3.8 2.6.8-.2.3H3.7l-.3.9 1.3.3 1.8.6 4 2.8q.6-2.2 1.9-4.2V4.8l-1-1h-1L8.4 5l3 1.8-1 1.5-2-1.1-2.2-1.8h-2l-1.6.5-2.1-.6zM6 8.4l.4-.9z"/><path fill="#80694f" d="M8.5 6V5l2.9 1.8-1 1.5-2-1.1z"/><path fill="#21160a" fill-opacity=".3" d="M12.4 6.5v-.2l1.7 3.5 2.3 2.6.2 4.4-2.2 2.6-.2 6.4-4.5-2.4-2.5-2-.1-1.1 2.5 1.9 1.3-2.1-1-6.1.5-1.9q.7-2.2 2-4.2z"/><path fill="#422f12" d="M3.7 7.5h-.8L3 6.2l1 .2 2.6.8-.2.3z"/><path fill="none" stroke="#000" stroke-linecap="round" stroke-linejoin="round" stroke-opacity=".4" stroke-width="__RESOLUTION__" d="M10.4 3.8h-1L2.4.3l-1.6.9Q.2 2.5.3 3.9l.2 1.4 2.1.6 1.6-.5.2.2-.3.8-1-.2-.2 1.3h.8l-.3.9q-.8 2.6-.6 4.3.4 2.4-2 4.6h.5l3 1 2.8 2 2.5 1.9 1.3-2.1-1-6.1.5-1.9q.7-2.2 2-4.2V4.8l-1-1zL8.4 5v2.2L6.2 5.4h-2m2.3 2.1H3.7M4 6.4l2.6.8-.2.3-.4.9m2.3-1.2 2 1.1 1-1.6-3-1.7" vector-effect="non-scaling-stroke"/><path fill="none" stroke="#000" stroke-linecap="round" stroke-linejoin="round" stroke-opacity=".3" stroke-width="__RESOLUTION__" d="m4.4 11.3.7.4m1 .6 2.3 1.6M4.7 8.8l3.9 2.8m-3.8 3.1 3.8 2.9" vector-effect="non-scaling-stroke"/></g></defs><g clip-path="url(#a)"><use xlink:href="#b" width="16.6" height="25.8" transform="translate(1 1)"/></g></svg>