<svg xmlns="http://www.w3.org/2000/svg" xmlns:xlink="http://www.w3.org/1999/xlink" width="79" height="92" viewBox="0 0 79 92"><defs><g id="d"><path fill="#88713d" d="m6.9.4.8.5.9.7.6 1.3V4l-.4 1.3-.7.8-1.4.6-1.3.2-.4-.2-.8-.3-.2-.2.9-.2 1.6-.8q.8-.5 1.1-1.5t0-1.8zm-2.7 6 .8.3.4.2.3.5-.2.9.3.7-.1.3-1 1.4-.4-.3-.6.1Q5 9.5 5 7.7q.1-.8-.5-1z"/><path fill="#9b8e63" d="m6.9.4.7 1.5q.3.9 0 1.8T6.5 5.2L4.9 6l-.9.2.2.2.3.3q.6.2.5 1 .1 1.9-1.3 2.8l.6-.1.5.3.2.4q.5 1.3-.6 1.7l-1-.6-.2-.5V11h-.1l-.8-.6H0l.1-.5.4-.6.2-.1 1-.1.3-1 .1-.6-.1-.3q-.3-1 .5-1.5l.8-.2L3 4.4q-.2-1 0-1.9l.8-1.2q.5-.8 1.4-1zM5.7 7.5l.3-.2h.7q.9.4.8 1.4-.1.7-.7.8h-.3L5.8 9l-.2-.7zm-.7-6-.7-.1q-.5.5-.3 1l.3.4.7-.3zm.4 1.7q-.4.8.2 1.5l.3.3h.4q1-.4 1-1.5 0-.8-.5-1.2-1 0-1.4.9M4 6.2l-.6-.7zm0 0q-.7.2-1.3.8l-.5.5.5-.5q.5-.6 1.3-.7M3.3 11l.4-.4v-.1zm-1-.6L2 9.8l-.1-.7.1.8z"/><path fill="#2d1d0e" d="M5 1.5v1l-.7.3-.3-.4q-.2-.5.3-1zm.4 1.7q.3-.9 1.4-.9.5.4.5 1.2 0 1-1 1.5H6l-.3-.3q-.5-.7-.2-1.5"/><path fill="none" stroke="#73531c" stroke-linecap="round" stroke-linejoin="round" stroke-width="__RESOLUTION__" d="m5.4 6.9 1.3-.2L8 6.1l.7-.8.4-1.3V2.9l-.6-1.3-.9-.7-.8-.5m-1 6.8h.8q.9.4.8 1.4-.1.7-.7.8h-.3L5.8 9l-.1.3-1 1.4.3.4q.5 1.3-.6 1.7m1.3-5.4-.2.9" vector-effect="non-scaling-stroke"/><path fill="none" stroke="#82682c" stroke-linecap="round" stroke-linejoin="round" stroke-width="__RESOLUTION__" d="m4 6.2.2.2.8.3.4.2.3.5.3-.2m-1.6 5.6-1-.6-.2-.5V11h-.1l-.8-.6H0l.1-.5.4-.6.2-.1 1-.1.3-1 .1-.6-.1-.3q-.3-1 .5-1.5l.8-.2L3 4.4q-.2-1 0-1.9l.8-1.2q.5-.8 1.4-1h1.7m-1.4 8 .3.7M3.5 5.5l.6.7M2.3 7.5l.4-.5q.5-.6 1.3-.7m.8 4.4-.5-.3-.6.1h-.1l-.4.5M1.9 9.1l.1.8.3.5" vector-effect="non-scaling-stroke"/></g><g id="c"><path fill="#d9b562" d="m6.9.4.8.5.9.7.6 1.3V4l-.4 1.3-.7.8-1.4.6-1.3.2-.4-.2-.8-.3-.2-.2.9-.2 1.6-.8q.8-.5 1.1-1.5t0-1.8zm-2.7 6 .8.3.4.2.3.5-.2.9.3.7-.1.3-1 1.4-.4-.3-.6.1Q5 9.5 5 7.7q.1-.8-.5-1z"/><path fill="#f7e29f" d="m6.9.4.7 1.5q.3.9 0 1.8T6.5 5.2L4.9 6l-.9.2.2.2.3.3q.6.2.5 1 .1 1.9-1.3 2.8l.6-.1.5.3.2.4q.5 1.3-.6 1.7l-1-.6-.2-.5V11h-.1l-.8-.6H0l.1-.5.4-.6.2-.1 1-.1.3-1 .1-.6-.1-.3q-.3-1 .5-1.5l.8-.2L3 4.4q-.2-1 0-1.9l.8-1.2q.5-.8 1.4-1zM5.7 7.5l.3-.2h.7q.9.4.8 1.4-.1.7-.7.8h-.3L5.8 9l-.2-.7zm-.7-6-.7-.1q-.5.5-.3 1l.3.4.7-.3zm.4 1.7q-.4.8.2 1.5l.3.3h.4q1-.4 1-1.5 0-.8-.5-1.2-1 0-1.4.9M4 6.2l-.6-.7zm0 0q-.7.2-1.3.8l-.5.5.5-.5q.5-.6 1.3-.7M3.3 11l.4-.4v-.1zm-1-.6L2 9.8l-.1-.7.1.8z"/><path fill="#482f17" d="M5 1.5v1l-.7.3-.3-.4q-.2-.5.3-1zm.4 1.7q.3-.9 1.4-.9.5.4.5 1.2 0 1-1 1.5H6l-.3-.3q-.5-.7-.2-1.5"/><path fill="none" stroke="#b8842e" stroke-linecap="round" stroke-linejoin="round" stroke-width="__RESOLUTION__" d="m5.4 6.9 1.3-.2L8 6.1l.7-.8.4-1.3V2.9l-.6-1.3-.9-.7-.8-.5m-1 6.8h.8q.9.4.8 1.4-.1.7-.7.8h-.3L5.8 9l-.1.3-1 1.4.3.4q.5 1.3-.6 1.7m1.3-5.4-.2.9" vector-effect="non-scaling-stroke"/><path fill="none" stroke="#cfa647" stroke-linecap="round" stroke-linejoin="round" stroke-width="__RESOLUTION__" d="m4 6.2.2.2.8.3.4.2.3.5.3-.2m-1.6 5.6-1-.6-.2-.5V11h-.1l-.8-.6H0l.1-.5.4-.6.2-.1 1-.1.3-1 .1-.6-.1-.3q-.3-1 .5-1.5l.8-.2L3 4.4q-.2-1 0-1.9l.8-1.2q.5-.8 1.4-1h1.7m-1.4 8 .3.7M3.5 5.5l.6.7M2.3 7.5l.4-.5q.5-.6 1.3-.7m.8 4.4-.5-.3-.6.1h-.1l-.4.5M1.9 9.1l.1.8.3.5" vector-effect="non-scaling-stroke"/></g><g id="b"><path fill="#573515" fill-opacity=".3" d="m3.8 63.5 33.5-8.1q-6.7 14.9-.6 21.6L6.1 72.3z"/><path fill="#402b15" d="m36.7 5.8 6-5.8 1.5.7.1.1q2.8 2.7 6.4 3.7l.3.2h2.5l7 3.2.5.3.3.4q1.7 1.2 3.5 2l1.1.5q2.4.9 5 1.3l3 1.3-.1.8.1.9.3 2.7-1.3-.7q-2 .2-3.5-1l-2 .4-7.4 2.7q-.9-2-2.2-3.6l-2.6-2.3-10 1.3 2.5-5.3-10.5-1.5h-.4zm25 62.4L59.2 72l-9.3 5.6 2.5-51.4-.2-.2-3.7-1.7 3.4-1.8 2.3 1.3h1.1l2.6 4.3 1 7.4L56.5 48l.4 8.2q3.3 7.1 4.9 11.9"/><path fill="#4b3219" d="M74.2 18.1v2.8l.1 1.5v2.7l-.2 3.2-.5 1.2q-.5 1.5-.6 3.3-.1 1.4.2 3-1.2 6.8-3.5 13.6l-.5 1.7-1.2 4.1-.5 1.1-1.6 2.9-.4.5-.8 1.2V63l-.2.4-2.7 4.8q-1.6-4.8-5-11.9l-.3-8.2 2.3-12.6-1-7.4-2.5-4.4-1.2.1-2.3-1.3h-.1l8.3-3 7.5-2.7 2-.4q1.5 1.2 3.4 1z"/><path fill="#51361c" d="m49.8 77.6-.5 6.3-10.1 5.3.6-11.2-.7-1.4v-.3l.9-1.5.3-5-1-2.3v-1.7l1.3-1.5.1-2.6-1.7-2 1.9-.4 1-18.2q-1.2-.8-2.5-1.4l2.6-.4.5-9.1L52 26l.1.1zm-20-17.4L6.3 71.9l10.5-35.3 8.8 4.6z"/><path fill="#ad7b2b" d="M39.2 89.2h-.3l-7.1-3.7.6-10 1.1-1.2h-.2l-.8-.7.8-15.1 1.3-24.8-14.8-7.2-3 10.1L6.3 71.9Q3.5 70.7 0 68.7l8-25.9 1.8-.5-.6-.8q-.2-.3-.7-.2l7.3-23.6 5.8 2.7-.5 1.5q1.1 0 2.2-.7l6.1 2.8-.1 1.5q.8-.2 1.4-.9l11.8 5.5v.1l-.5 9.2-2.6.4q1.3.5 2.5 1.3l-1 18.3-1.9.3 1.8 2-.2 2.6-1.2 1.5v1.7l.9 2.3-.3 5-.9 1.5v.3l.8 1.4zm-2.5-44.3v-8zm0-14.3-3.6-1.9zm-.9 51q2.4-5.5.3-13-3.3-14 2.7-21.2-6 7.2-2.7 21.2 2.1 7.5-.2 13M16.7 24.3q-3.7 4.2-3.8 13l-.2.4q-2 19.2-10.1 30 8.2-10.8 10.2-30v-.4q.2-8.8 3.9-13m15.7 6.6-11.7-5.4z"/><path fill="#422d17" d="m33.3 58.5-3.5 1.7-4.2-19-8.8-4.6 3-10.1 14.8 7.2z"/><path fill="#68451a" d="m15.9 17.5 8.2-4.2 3.6 1.2 20.7 9.8 3.7 1.7-9.6 4.2-11.7-5.6q-.7.6-1.6 1l.3-1.6-6.2-2.8q-1.1.7-2.2.7l.5-1.5-5.8-2.7z"/><path fill="#482f17" d="m27.8 14.5 1.1-1.1 12 4.1 10.8 5h.1l-3.4 1.8z"/><path fill="#56391d" d="m28.9 13.4 7.8-7.6.1 2.2.5.1 10.4 1.5-2.5 5.3 10-1.3 2.5 2.3q1.4 1.6 2.3 3.6l-8.4 3-10.7-5z"/><path fill="none" stroke="#271b0e" stroke-linecap="round" stroke-linejoin="round" stroke-width="__RESOLUTION__" d="m0 68.7 8-25.9 1.8-.5-.6-.8q-.2-.3-.7-.2l7.3-23.6-.2-.1.3-.4v.3l-.1.1v.1M52.1 26l.1.1m-9.7 4v.1" vector-effect="non-scaling-stroke"/><path fill="none" stroke="#eba607" stroke-linecap="round" stroke-linejoin="round" stroke-width="__RESOLUTION__" d="M36.8 36.9v8m-3.6-16.1 3.5 1.7m2.1 16.8q-6 7.2-2.7 21.2 2.1 7.5-.2 13M2.6 67.7q8.2-10.8 10.2-30v-.4q.2-8.8 3.9-13m4 1.2 11.7 5.4" vector-effect="non-scaling-stroke"/><path fill="none" stroke="#271b0e" stroke-linecap="round" stroke-linejoin="round" stroke-width="__RESOLUTION__" d="m32.7 58.8.5-.3 1.4-24.8m-1.4 24.8-.7 15 .8.8h.3l-1.2 1.2-.6 10m-5.4-23.6 2.1-1.1M4.9 71.3l-1.5-.8m-1.6-.8-1.8-1m12.6 0 3-1.5m5.7-2.8 1.1-.6M9.3 70.5l1.4-.7m61.2-57 2.2.9-.2.8.4 4.5m-6-7.1 2.3.5m-54.8 5.2 8.4-4.4 3.6 1.3L42.8 0l1.5.7.1.1L47.2 3m5.5 1.7h.8l1.3.6m8.4 4.6 1.7.7M63 66.2l1.5-2.7.2-.4V61l.8-1.1.3-.5m4.9-13-1 2.8m4.6-26.4v2.4l-.2 2.6m-21 48-1.5.8m5.3-3.1-3 1.8m6.5-4.9-1.2 1.8-1.4.8M44.1 86.6l1.9-1m1.1-.6 2.2-1.2.5-5.6m-10.6 11h-.3l-2.6-1.4m-2.4-1.2-1.6-.8" vector-effect="non-scaling-stroke"/><path fill="#eba607" d="m58.5 40.9.2-.4.8-.6q2.6-1 4.1-.9h.1l1 .4-.2.3-.8.5-3.6 1.3-1.9-.1z"/><path fill="#d1af3f" d="m59.5 39.9-.8.6-.2.4-3.3 1.2-1.2-.7.1-.3 1.7-1.1zm5-.2.3-.4q3.4-1.7 5.8-1.6l-1.6.8-.9.5h-.2l-2.7 1.2z"/><path fill="#ad7901" d="m58.5 40.9-.3.5 2 .1 3.5-1.2-.2.1-.7 1.9q-4 1.3-5.3.7-2.9.9-4.2.5l.8-2.1 1.1.7zm-1 2 .7-1.5zM69 38.5h1.2L72 38l.3.4-.6.6q-3.5 2-4.7 1.5l.8-1.4.2-.1z"/><path fill="#9b6202" d="m63.7 40.3.8-.5v-.1l.8.5 2.6-1.2v.1l-.9 1.4-1 .6.1.1q-2.3 1.3-3.3 1.1l.8-1.9z"/><path fill="#cc9c2d" d="m72.1 38-2 .5H69l1.6-.8 2.2-1.2z"/><path fill="none" stroke="#8e5b09" stroke-linecap="round" stroke-linejoin="round" stroke-width="__RESOLUTION__" d="m59.5 39.9-.8.6-.2.4-.3.5-.7 1.6q1.4.5 5.3-.7l.8-1.9.1-.1.8-.5v-.1h0l.3-.4-1.1-.2h0q-1.6-.2-4.2.8h-3.7l-1.6 1.2-.2.3-.7 2q1.4.5 4.2-.4m14.6-5-.1-.1.8-1.4q-.5.1-2.2 1.2l-1.6.8-.9.5-.2.1-.9 1.4q1.3.5 4.8-1.5l.6-.6zm-9.3 4.3q1 .3 3.3-1.1m0 0 1-.7m3.5-2.8q-2.4-.2-5.8 1.6" vector-effect="non-scaling-stroke"/><path fill="#d28402" d="m70.2 39.6-.2.1-.7-.7h-.1q0-2 1.8-3.5l.5.3.5-.1-.2 2.3z"/><path fill="#b97402" d="M71 35.6q-.1-2.6 1.7-4.5l.3.1.5.3-.1 2.3-1 1.8H72l-.5.2z"/><path fill="#9b6202" d="M72.7 31.2q-.7-1.6.8-4.2l.7 1v.3l.1-.2 1.7-.3q1 1.2-.5 3.2l-1.9.5h-.1l-.5-.3zm1.3 4q0 1.8-1.3 3.6l-1.7.6-.8.2 1.5-1.6.3-2.4h.5z"/><path fill="#825102" d="M73.5 27q-.7-1.1.3-2.3h1v.1h.1l2 .2q.4 1.1-.9 2.8l-1.7.3h-.1z"/><path fill="#a6702f" d="m74.8 24.7.1.1zm-.6 3.3.1.1v.1z"/><path fill="#ad7901" d="M75.6 31q-.1 2.5-1.5 4.2l-1.6.4.9-1.8v-2.3h.2z"/><path fill="none" stroke="#8e5b09" stroke-linecap="round" stroke-linejoin="round" stroke-width="__RESOLUTION__" d="M69.3 39q0-2 1.8-3.5-.1-2.5 1.7-4.4-.7-1.5.8-4.1-.7-1.1.3-2.3m1 0 .1.1m1.1 3q1 1.2-.5 3.2 0 2.5-1.5 4.2 0 1.8-1.3 3.6l-1.7.6m1-3.7-.5.1-.5-.2m3.2-7.6.1.1 1.7-.3m-1.8.2-.7-1m0 4.5 2-.5m-3.1 4.6 1.5-.4m-1.3-4h.3l.5.3m-1 4.1H72" vector-effect="non-scaling-stroke"/></g><clipPath id="a"><path d="M1 1h77v90H1z"/></clipPath><path id="e" fill="none" stroke="#eba607" stroke-linecap="round" stroke-linejoin="round" stroke-width="__RESOLUTION__" d="m36.4-32.3 1.4 2.2m3.3-8.4L39.3-40" transform="translate(-36.35 40.1)" vector-effect="non-scaling-stroke"/></defs><g clip-path="url(#a)"><g transform="translate(32.25 72.5)"><use xlink:href="#b" width="77" height="89.2" transform="translate(-31.25 -71.5)"/><use xlink:href="#c" width="9.4" height="12.9" transform="matrix(.9422 -.5554 .4115 .9108 -.15 -14.9)"/><use xlink:href="#c" width="9.4" height="12.9" transform="matrix(1.0751 -.1943 .0703 .9959 -27.6 -29.45)"/><use xlink:href="#d" width="9.4" height="12.9" transform="matrix(-1.0345 -.3463 -.2124 .974 36.4 -23.05)"/><use xlink:href="#e" width="4.7" height="10.1" transform="translate(36.35 -40.1)"/></g></g></svg>