<svg xmlns="http://www.w3.org/2000/svg" xmlns:xlink="http://www.w3.org/1999/xlink" width="74" height="61" viewBox="0 0 74 61"><defs><g id="m"><path fill="#77ba00" d="m12.5 5.9-7 4Q5.2 7.7 3.3 4q3 .1 9.1 1.9"/><path fill="none" stroke="#4d8c2b" stroke-linecap="round" stroke-linejoin="round" stroke-opacity=".7" stroke-width="__RESOLUTION__" d="M5.4 10q-.1-2.4-2-6 3 .1 9.1 1.9" vector-effect="non-scaling-stroke"/><path fill="#77ba00" d="M13.9 6Q19 4.3 24 4q-2 4.2-2.1 7.3z"/><path fill="none" stroke="#498c2b" stroke-linecap="round" stroke-linejoin="round" stroke-opacity=".7" stroke-width="__RESOLUTION__" d="M22 11.3q.1-3.1 2.1-7.4-5 .4-10.3 2.1" vector-effect="non-scaling-stroke"/><path fill="#77ba00" d="m5 8.4 3.4 1.3L9.9 11l.5 2.3q-1.7-.7-3.9-.8z"/><path fill="#7cd100" d="m5 8.4 1.4 4.1L0 13q1.1-2.6 5-4.6"/><path fill="none" stroke="#528c2b" stroke-linecap="round" stroke-linejoin="round" stroke-opacity=".7" stroke-width="__RESOLUTION__" d="M6.5 12.5 0 13q1.1-2.6 5-4.6" vector-effect="non-scaling-stroke"/><path fill="#7cd100" d="M24.4 11.1q-.9-.5-1.7-.6.8.1 1.7.6m-3.1 2 1.3-2.6 1.1-2q2.7 2.3 4 5.4-3.7-1-6.4-.8"/><path fill="#77ba00" d="M18.6 11.1q2.3-.8 4-.6-1.7-.2-4 .6m5.1-2.6-1 2-1.4 2.6q-3.1.5-5.9 1.5-.2-2.6 4.2-5.4z"/><path fill="none" stroke="#5b8c2b" stroke-linecap="round" stroke-linejoin="round" stroke-width="__RESOLUTION__" d="M22.7 10.5q.8.1 1.7.6m-1.7-.6q-1.8-.2-4.1.6" vector-effect="non-scaling-stroke"/><path fill="none" stroke="#558c2b" stroke-linecap="round" stroke-linejoin="round" stroke-opacity=".7" stroke-width="__RESOLUTION__" d="M21.3 13.1q2.7-.2 6.5.8-1.4-3.2-4.1-5.4l-4.1.7m-4.2 5.4q2.8-1 5.9-1.5" vector-effect="non-scaling-stroke"/><path fill="#7cd100" d="M18.4 14.3q-5 1-9.1 4.1-.9-2.8-2.6-5 2.4-.2 3.7.9 4-.6 8 0"/><path fill="#77ba00" d="M18.4 14.3q-4-.6-8 0-1.3-1-3.6-.9 3-1.9 5.8-2.4 4.1.8 5.8 3.3m-6.6-2-1.4 2z"/><path fill="none" stroke="#578c2b" stroke-linecap="round" stroke-linejoin="round" stroke-opacity=".7" stroke-width="__RESOLUTION__" d="M6.7 13.4q1.7 2.2 2.6 5 4-3.1 9-4.1" vector-effect="non-scaling-stroke"/><path fill="none" stroke="#5b8c2b" stroke-linecap="round" stroke-linejoin="round" stroke-width="__RESOLUTION__" d="m10.4 14.3 1.3-2" vector-effect="non-scaling-stroke"/><path fill="#578234" d="m20.4 6.1 4.6 1q-1.8 3.2-3.3 3.8l-2.6.4q2.5-2.9 1.3-5.2M7 6.7q.5 2.8 3 5.1H7.3Q5.8 11.3 3 8.2zm3.5-1.8q-.4-1.8 2.9-4L17.2 4q-3.4-.2-6.5 1.3z"/><path fill="#a39171" d="M10.3.4q1.5 3.7 4.9 6.2-6.8 4-7.7 1.5Q8 3.5 10.3.5"/><path fill="none" stroke="#bdab89" stroke-linecap="round" stroke-linejoin="round" stroke-width="__RESOLUTION__" d="M10.3.4q1.5 3.7 4.9 6.2-6.8 4-7.7 1.5Q8 3.5 10.3.5" vector-effect="non-scaling-stroke"/><path fill="url(#a)" d="M-3.3.9Q-5.7.4-6.7-1.5q-.7-4.3.7-6.6.3 5.4 2.7 9" transform="translate(13.85 11.2)"/><path fill="#b8a17e" d="M7.9 3q1.5 4.9 5 9.1h-2.4Q8.2 8.5 7.8 3"/><path fill="#ad9877" d="M16.4 0q2.9 5.1 2 8.8-2.8.3-6.9-1.4 4-2.8 4.9-7.4"/><path fill="#fff1d1" d="M18.5 8.8q.8-3.7-2.1-8.8 3.2 3.5 3.5 8-.6 1-1.4.8"/><path fill="url(#b)" d="M6-8.8q1.5 2.7 1 7Q6 .2 3.4 0q2-2.5 2.7-8.9" transform="translate(13.85 11.2)"/><path fill="#b8a17e" d="M19.8 2.4q-.7 6.4-2.7 8.9l-1.9-.4q3.3-3.8 4.6-8.5"/><path fill="#ffd919" d="M16.7 9.6Q15.5 11 13.8 11t-2.9-1.3Q9.8 8.5 9.8 7T11 4t2.8-1.2T16.7 4Q18 5.2 18 6.8q0 1.7-1.2 2.8"/><path fill="#fff8df" d="M16.2 5.2q-.1.4-.5.4t-.9-.4l-.7-.9-.2-.9q.1-.3.5-.3l.9.3.8 1q.2.4 0 .8"/><path fill="url(#c)" d="M-3.6.9q.6-3.3 3.6-7Q3.1-4.3 4.4.4q-2.2 1-4.7 1z" transform="translate(13.85 11.2)"/><path fill="none" stroke="#baa789" stroke-linecap="round" stroke-linejoin="round" stroke-width="__RESOLUTION__" d="M18.3 11.5Q16.9 6.7 13.8 5q-3 3.7-3.6 7" vector-effect="non-scaling-stroke"/><path fill="#5b941b" d="m19.4 9.5 1.2 1.5q-4.2 2.1-5.4 1.8Q18 11 19.4 9.4m-12 1.8 1.1-1.6q1.6 1.7 4.5 3.4-1.2.3-5.6-1.8"/></g><g id="n"><path fill="#38736e" d="m20 4.8 2 6.2-3.5-2.4-2.3-.6q-2.6 3.4-8.1 4.7-1-2-1.3-4.9l-5.1 2.7L5 4l2-.3L13.8 5z"/><path fill="#3c7a78" fill-opacity=".7" d="M9.5 20.2q3.7 2.6-1.6 5.1t-6-3.7.5-9.8 2.7-5.6q1.3-2.3 2.1-2.3t.5 2.3L6.6 13q-.7 4.6 2.9 7.2"/><path fill="#4a9400" d="m12.8 11.3.4 4.1q-1.4 0-3.5-1.9v-.1l3.2-.3q.2-.7-.3-1.8l.2-.1"/><path fill="#62b300" d="M12.8 11.2h-.2q.5 1.2.3 1.9l-3.2.3-1.5.1.9-2.4 2-.3q1.2-3 .6-7.2l1.7-.2q.8 4.4-.5 7.8z"/><path fill="#3c7a78" fill-opacity=".7" d="M16 7v-.4l.2-.3h.4l.3.3.1.3-.2.3h-.4zm-.7 9 .4.4.2.6-.4.4h-.6l-.5-.4q-.2-.2-.1-.5l.3-.5zm.8 3.6q.5 1 .3 2T15.2 23l-2 .1q-1.1-.3-1.7-1.2t-.3-1.9q.3-.9 1.2-1.4l2-.2q1.1.4 1.7 1.3m0 4.3 1 .7q.2.6 0 1.2l-.7.9h-1.2l-.8-.7q-.3-.6-.2-1.2.3-.6.8-.8zm2.7-.1.3-.5h.6l.6.3v.6l-.3.4-.6.1-.5-.4zM6 21.9l-.6-.4q-.2-.4 0-.7l.3-.4.8-.2.5.5.2.6-.5.6z"/><path fill="#336966" fill-opacity=".7" d="M12.7 26.9q-.4 1.1-1.4 1.7l-2.2.1q-1.1-.4-1.6-1.4-.6-1.1-.2-2.2t1.5-1.7l2.1-.1q1.1.3 1.7 1.4t.1 2.2"/><path fill="#9ec5cd" d="m15.2 18.8.6.6v.6l-.6.2q-.4 0-.7-.4l-.7-.6q-.2-.2 0-.4l.6-.3zm.4 2 .5.1v.5l-.4.4-.6.1q-.3 0-.3-.2v-.4q-.1-.3.2-.4z"/><path fill="url(#d)" d="M-.9 3.3q-5.8-.1-9.4-3.8-2.2-2.2-1.3-11.2.4-2.2 2-5.2l2.6-5.2q3.1-4.2 8.9-3.8 4.2.4 5.5 3.4 2.4 3 3.9 12.3 2 6.4-2 10.4Q5.2 3-.8 3.2z" transform="translate(11.9 25.95)"/><path fill="none" stroke="#1777b8" stroke-linecap="round" stroke-linejoin="round" stroke-opacity=".5" stroke-width="__RESOLUTION__" d="M11 29.3q-5.8-.2-9.4-3.9Q-.7 23.3.3 14.3.8 12 2.3 9l2.6-5.2Q8-.4 13.8.1q4.1.3 5.5 3.3 2.4 3 3.8 12.3 2.1 6.4-1.9 10.4-4.1 3-10.1 3.1zm0 0" vector-effect="non-scaling-stroke"/><path fill="#fff" fill-opacity=".6" d="M7.8 5.1Q7.7 6.4 7 8.3q-.8 1.8-1.8 3.1t-1.7 1.3-.7-1.2q.1-1.4.9-3.2.7-1.9 1.7-3.2 1.1-1.3 1.8-1.3t.5 1.3M1.5 17.3q.4-1.2 1-1.5t1 .5.3 2.1-.5 2.5-1 1.4q-.5.3-.9-.4-.3-.8-.3-2.1t.4-2.6m20.3-5.6.9 2.7.6 3.4V20q-.1.5-.6-.4-.4-.7-.7-2.5-.5-1.8-.7-3.4-.2-1.7 0-2.2.1-.7.5.1m1 10.7v.7l-.3.8-.4.3q-.3.1-.4-.1v-.7l.4-.7.4-.5z"/><path fill="none" stroke="#467787" stroke-linecap="round" stroke-linejoin="round" stroke-opacity=".7" stroke-width="__RESOLUTION__" d="m14.4 8.8 2.5.1M20 7.1q-.7 0-1.2 1" vector-effect="non-scaling-stroke"/><path fill="#2d5461" d="m19.7 7.9-.4.3-.4.1-.1-.2.1-.3.4-.4.4-.1.2.2zM16 9.1l-.3-.3v-.2l.4-.2.5.2.3.2v.3l-.4.1z"/></g><g id="k"><path fill="#fcd844" d="m12.9 4.9 1.3-1.1zM9.7 1.8q5.9-4.2 4.5 2.1 5.7-.6 4.7 3.3-.2.6-2.1.2l-.9-.1-.6-.1h-.2.8q2.2 1.3 2.7 2.6.8 1.5-1.1 2.1-1 .3-2.4-.5-1.6-.9-3.1-.4l3.2-3.8h-1.6L1.2 8Q-.7 5 .4 3.7t3.7 1q.2-3.3 1.9-4Q7.5 0 9.8 1.8L8.5 3.6z"/><path fill="none" stroke="#96610a" stroke-linecap="round" stroke-linejoin="round" stroke-width="__RESOLUTION__" d="m14.2 3.8-1.3 1m6 2.3q1-4-4.7-3.3 1.4-6.3-4.4-2.1L8.5 3.6M4 4.8Q1.5 2.4.4 3.7t.8 4.2m14.7-.7-.6-.1h-1.7M12 10.9q1.5-.5 3 .4t2.5.5q1.9-.7 1.1-2.2Q18 8.5 16 7.3l.9.1q1.9.4 2-.2m-9-5.4Q7.5-.1 6 .6q-1.7.7-2 4.2" vector-effect="non-scaling-stroke"/></g><g id="j"><path fill="#fabc05" d="M7.7.5h1q3.4 0 5.9 2.3 2.3 2.3 2.3 5.6T14.7 14Q13 15.6 11 16 16.6 6.4 7.7.6"/><path fill="#fcd844" d="m11.1 16-2.3.4q-3.5 0-5.9-2.3Q.5 11.6.5 8.5.5 5 2.9 2.8q2-2 4.8-2.4 9 5.9 3.4 15.5"/><path fill="none" stroke="#96610a" stroke-linecap="round" stroke-linejoin="round" stroke-width="1" d="M7.7.5h1q3.4 0 5.9 2.3 2.3 2.3 2.3 5.6T14.7 14Q13 15.6 11 16l-2.3.4q-3.5 0-5.9-2.3Q.5 11.6.5 8.5.5 5 2.9 2.8q2-2 4.8-2.4"/><path fill="none" stroke="#fff" stroke-linecap="round" stroke-linejoin="round" stroke-width="1" d="M6.6 10.5h1.8M4 9.6l-2-1"/><path fill="none" stroke="#000" stroke-linecap="round" stroke-linejoin="round" stroke-width="1" d="M6 9.4h2m-3.8-.5L2.3 8"/></g><g id="i"><path fill="#fcd844" d="M6.7 4.7q-1.7.2-3.3-.1-1.6-.2-2.5-.8-1-.7-.9-1.6T1.2.6q1-.6 2.3-.6t2.3.6q.8.7 1.7 2.3t-.8 1.8"/><path fill="none" stroke="#96610a" stroke-linecap="round" stroke-linejoin="round" stroke-width="__RESOLUTION__" d="M6.7 4.7q-1.7.2-3.3-.1-1.6-.2-2.5-.8-1-.7-.9-1.6T1.2.6q1-.6 2.3-.6t2.3.6q.8.7 1.7 2.3t-.8 1.8" vector-effect="non-scaling-stroke"/></g><g id="h" fill="none" stroke-linecap="round" stroke-linejoin="round" stroke-width="1"><path stroke="#000" d="M2.5.5 3.9 5 .5 6.3"/><path stroke="#a85a0d" d="m3 .7 1.4 4.5-2.7 1"/></g><g id="w" transform="translate(12.2 40)"><use xlink:href="#e" width="14.7" height="4.3" transform="matrix(.8 0 0 .8 -5.35 -1.85)"/><use xlink:href="#f" width="23.9" height="29.3" transform="matrix(.93 0 0 1.07 -10.85 -30)"/><use xlink:href="#g" width="27.8" height="18.4" transform="matrix(.95 0 0 1.17 -12.2 -40)"/></g><g id="v"><path fill="#382c16" d="m11 .5 32 8.6-10.5 47.5-32-8.5z"/><path fill="none" stroke="#000" stroke-linecap="round" stroke-linejoin="round" stroke-opacity=".3" stroke-width="1" d="m11 .5 32 8.6-10.5 47.5-32-8.5z"/></g><g id="u" transform="translate(10.95 22.35)"><use xlink:href="#e" width="14.7" height="4.3" transform="matrix(1.06 .03 0 1.06 -7.8 -2.45)"/><use xlink:href="#h" width="4.9" height="6.8" transform="translate(-4.2 -7.05)"/><use xlink:href="#h" width="4.9" height="6.8" transform="matrix(.78 -.19 .13 .99 .25 -5.8)"/><use xlink:href="#i" width="7.8" height="4.8" transform="matrix(-1 0 0 1 -3.2 -11)"/><use xlink:href="#j" width="17.4" height="16.9" transform="translate(-9.6 -20.45)"/><use xlink:href="#i" width="7.8" height="4.8" transform="translate(2.25 -9.8)"/><use xlink:href="#k" width="19" height="11.9" transform="translate(-9.8 -22.35)"/></g><g id="t"><path fill="#382c16" fill-opacity=".5" d="m59 20.9 12.5 12.5-39 24.2L17 27.4z"/><path fill="#f1cc92" d="m43 10.1-1.1-.3-28-7.4-2.8-.8L13.9 0l32.6 8.6zM11 1.6l2.9.8zm0 0"/><path fill="#d99f5b" d="m43 10.1 3.5-1.5-4.2 18.6-1.4 6-1 4.8-3.4 15-3.9 4.6.4-2-.4 2 .4-2 9.5-43z"/><path fill="#312017" d="m39.9 38 1-4.8 3.3 6.4z"/><path fill="#6d4936" d="m44.2 39.6-3.3-6.4 1.4-6 3.4 6.9z"/><path fill="none" stroke="#000" stroke-linecap="round" stroke-linejoin="round" stroke-opacity=".3" stroke-width="__RESOLUTION__" d="m43 10.1-1.1-.3m1.1.3 3.5-1.5L13.9 0l-2.8 1.6H11h0l2.9.8m28.6 10.2L43 10m-2 23.2L40 38l4.3 1.6zl1.4-6 4.2-18.6m-2.4 31 1.6-5.5-3.5-7M39.9 38l-3.3 15-3.9 4.6h0l.4-2" vector-effect="non-scaling-stroke"/><path fill="none" stroke="#000" stroke-linecap="round" stroke-linejoin="round" stroke-width="1" d="m11 1.6 2.9.8 28 7.4 1.1.3-.5 2.5-9.5 43-.4 2m0 0L.5 49.1 11 1.6h0"/><path fill="url(#l)" d="m-12.5-39 32 8.6L9.1 17.2-23 8.6z" transform="translate(23.5 40.45)"/></g><linearGradient id="c" x1="-819.2" x2="819.2" gradientTransform="matrix(0 0 0 0 .4 -.5)" gradientUnits="userSpaceOnUse" spreadMethod="pad"><stop offset="0" stop-color="#fff8ec" stop-opacity="1"/><stop offset=".3" stop-color="#fff1d1" stop-opacity="1"/><stop offset="1" stop-color="#d1a16d" stop-opacity="1"/></linearGradient><linearGradient id="b" x1="-819.2" x2="819.2" gradientTransform="matrix(0 0 0 0 5.4 -3.2)" gradientUnits="userSpaceOnUse" spreadMethod="pad"><stop offset=".1" stop-color="#fff1d1" stop-opacity="1"/><stop offset="1" stop-color="#feda9e" stop-opacity="1"/></linearGradient><linearGradient id="a" x1="-819.2" x2="819.2" gradientTransform="matrix(0 0 0 0 -5.7 -2.9)" gradientUnits="userSpaceOnUse" spreadMethod="pad"><stop offset=".1" stop-color="#fff1d1" stop-opacity="1"/><stop offset="1" stop-color="#feda9e" stop-opacity="1"/></linearGradient><linearGradient id="d" x1="-819.2" x2="819.2" gradientTransform="matrix(0 -.01 .01 0 .3 -9.6)" gradientUnits="userSpaceOnUse" spreadMethod="pad"><stop offset=".1" stop-color="#65d8f3" stop-opacity=".7"/><stop offset=".5" stop-color="#87d6f2" stop-opacity=".7"/><stop offset="1" stop-color="#d5ebf5" stop-opacity=".7"/></linearGradient><use xlink:href="#m" id="g" width="27.8" height="18.4"/><use xlink:href="#n" id="f" width="23.9" height="29.3"/><use xlink:href="#o" id="e" width="14.7" height="4.3"/><radialGradient id="l" cx="0" cy="0" r="819.2" gradientTransform="matrix(.07 .02 -.01 .06 -11.2 -33.95)" gradientUnits="userSpaceOnUse" spreadMethod="pad"><stop offset="0" stop-color="#f8b885"/><stop offset=".5" stop-color="#df8f76"/><stop offset="1" stop-color="#b9606b"/></radialGradient><clipPath id="p"><path d="M1 1h72v59H1z"/></clipPath><path id="o" fill="#382c16" d="M5.8-1.9Q7.9-1.4 8-.6 8 .4 5.9 1 3.7 1.8.7 2l-5.2-.4Q-6.7 1.2-6.7.3q-.1-.8 2-1.6 2.2-.7 5.2-.9z" transform="translate(6.75 2.25)"/></defs><g clip-path="url(#p)"><g transform="translate(24.5 42.05)"><use xlink:href="#t" width="71.5" height="58.1" transform="translate(-23.5 -40.45)"/><use xlink:href="#u" width="20.9" height="24.9" transform="matrix(-1.127 -.2988 -.2405 1.0953 14.05 -25.6)"/><use xlink:href="#v" width="43.5" height="57.1" transform="translate(-23.5 -39.45)"/><use xlink:href="#w" width="26.3" height="41.5" transform="matrix(.8 0 0 .8 -13.15 -24.05)"/></g></g></svg>