<svg xmlns="http://www.w3.org/2000/svg" xmlns:xlink="http://www.w3.org/1999/xlink" width="107" height="103" viewBox="0 0 107 103"><defs><g id="d" fill="#5f4a32"><path d="M6.9.9 4.1 2.7Q1.3 3.7.6 8.5-1.3 4.9 2.9 2z"/><path d="M7 1.1 4.7 1Q2.7.4.4 2.7.9-.1 4.4 0z"/></g><g id="c" fill="#c6a163"><path d="M6.9.9 4.1 2.7Q1.3 3.7.6 8.5-1.3 4.9 2.9 2z"/><path d="M7 1.1 4.7 1Q2.7.4.4 2.7.9-.1 4.4 0z"/></g><g id="b" fill="none" stroke-linecap="round" stroke-linejoin="round" stroke-width="3"><path stroke="#5f4a32" d="m27.2 45.2-2.1-2.4q-5.7-6.3-10.2-13.2l-2.1-3.3Q5.7 14.7 1.5 1.5"/><path stroke="#b49668" d="M97.7 97.9q-7.1-3.5-13.9-7.3l-9.4-5.7q-8-5.2-15.6-10.8l-9.3-7.5-3-2.5-5.4-4.8Q34 52.6 27.3 45.2"/></g><clipPath id="a"><path d="M1 1h105v101H1z"/></clipPath><path id="e" fill="none" stroke="#5f4a32" stroke-linecap="round" stroke-linejoin="round" stroke-width="__RESOLUTION__" d="m80.5 38.2-11.4-4m-10.2-6.9h3.3m-7.9-3 6.4 1.6M42 12.6h2.8M30.7 2.7l8 4.2m0 3.3 4.8 1.5m34.3 28.6 5.1-.3" transform="translate(-30.65 -2.7)" vector-effect="non-scaling-stroke"/></defs><g clip-path="url(#a)"><g transform="translate(121.2 126.25)"><use xlink:href="#b" width="99.2" height="99.4" transform="translate(-114.7 -124.6)"/><use xlink:href="#c" width="7" height="8.5" transform="rotate(-28.298 -143.021 110.871)scale(.7381)"/><use xlink:href="#d" width="7" height="8.5" transform="translate(-96.6 -84.45)scale(.6812)"/><use xlink:href="#d" width="7" height="8.5" transform="rotate(-31.305 -224.93 142.331)scale(.6657)"/><use xlink:href="#d" width="7" height="8.5" transform="matrix(-.6224 .1332 .1372 .641 -100.6 -105.45)"/><use xlink:href="#d" width="7" height="8.5" transform="rotate(-17.533 -458.094 328.351)scale(1.1774)"/><use xlink:href="#c" width="7" height="8.5" transform="rotate(-72.165 -41.6 10.811)scale(.737)"/><use xlink:href="#e" width="52.3" height="37.5" transform="translate(-82.55 -72.2)"/></g></g></svg>