<svg xmlns="http://www.w3.org/2000/svg" xmlns:xlink="http://www.w3.org/1999/xlink" width="34" height="31" viewBox="0 0 34 31"><defs><clipPath id="a"><path d="M1 1h32v29H1z"/></clipPath><g id="b"><path fill="#5d9c5b" d="m17.2 2.1-1 .5-.5-1.2.4-.1h.1l1.5.3.4.4zm-1.5.9q-.8.8-1 1.7v.5L14.5 4l-.3-.9-.2-.2-1.1.7-.1.1-1-.1q.6-.6.6-1.6 0-1.1-.4-1.9h-.1.1l1.9.7.3 1.5v.2l-.2.4zm-1 2.7q0 1.2.9 2.2H14l.3-.5q.3-.8.3-1.7m1.2 2.5.6.5.5-.1h.5l1 .5q1.2 1 1 2.2v.4l-.1.3v-.3.3l-.1.1v.2H19l-.2.4-.3.3-.8.5-.6.2-.7.1-.2.2H16l.3-.2-.3.3h-1l.5-.7.2.1h.2q.8-.9.8-2.2 0-1.6-.7-2.6l-.6.2-.4-.7h.7m3.8-5.9-.2-.3-.3-.2.8-.1q1 0 1.7.5t.7 1.2l.1.2v.8h-.6l-.2.3-.2-.5-.3-.6zm2.3 2.2.6-.2 1.2.3.3.1-.3.2q-1.5 1.8-.4 4l.2.1.4.3-2 .1h-.1q1-1.6.6-3.9l-.3-.8zm.6-.3v-.3zm2.6.3h.1l-.4.1zm2 1 .1.1.1.2.2.2zM16.9 8.6h-.6l-.2.1h.3zM27.5 6v.2l-.1-.4zM12.2 4.9v.6l.2.9.3.6h.1l.3.4-.4 1h-.1q0-.7-.7-1.3-.6-.5-1.5-.5l-.7-2.2.3-.1.6-.1h.3l.7.2zM8 7.3h.2l-.5.9-.1.3.1 1.6L7 10l.2-2.8zm1.4-.6"/><path fill="#9c3" d="m16.2 2.6 1-.5q.7.4.6 1.3l-.2 4.4-.2.8-.4-.1h-.6l-.6-.4-.2-.3q-1-1-1-2.2v-.4l.1-.5q.2-1 1-1.7zM3 6.3l.2-.3.1-.3.3-.3.7-.5h.1l.3-.2h.1L5 9.2 3 8v-.2l-.2-.7V7zm5.2 1 1.2-.7h.1l.2.5q.6 2.1-.2 4.2l-.6-.3-1-.5-.2-.4-.1-1.6v-.3h.1z"/><path fill="#690" d="m17.2 2.1 1-.1h.4l1 .2L21 3.5l.3.6.2.5.1.4v.5L21.5 7l-.3.5-.7.7-2 .7-1-.4.2-.8.2-4.4q0-1-.6-1.3M4.9 4.7h1.3l.8.4.8 1.1.2.4v.7l-.8-.1L6 8.6l.4 1h-.2L5 9.2zm5.6 1.9q.9 0 1.5.5t.7 1.3q0 1.3-.7 2.3t-1.5 1l-.9-.4q.8-2.1.2-4.2l-.2-.4v-.1z"/><path fill="#c6ac51" d="m18.2 2-.5-.4-1.5-.4h-.1l-.5.2-.4.2-.2.1-.8.8v-.2L13.9.8l1.7-.8L19 1.7l-.5.2h-.1V2zm4.3 2.3v-.8l-.1-.2 2.3 1.1h-.3l-.4.2-.3-.1zm5 1.5L31 7.5 15.8 15v8.5L.6 16.2H.5v-2.8l14.7 7.2.6-.2v-3.7L.6 9.3l-.1-.6v-1L3 6.3l-.2.7v.2l-.8.4 1 .5 2 1 1.2.6.4.1.2.2v-.1l.1.1H7l.9.5 1 .5.6.3.9.3 4 2 .7.4h.1l.6.3 1.4-.7.6-.2.8-.4v-.1l6.8-3.4.6-.3.9-.4q1.6-1.3.7-2.6l-.1-.1zM6.3 4.7l4.5-2.2v.2l.1.1.2.2-4 2.1z"/><path fill="#70bc6e" d="m15.7 1.4.5 1.2-.5.4-1.7-.1.2-.4.8-.8.2-.1zm-1 3.8v.4q0 .9-.3 1.7l-.3.5H14l-.7-.4H13l-.3-.4-.4-.6-.2-.9v-.6l.2-.5.3-.5.1-.2.1-.1 1.1-.7.2.2.3.9zm4-3.2h-.1zl.4-.2.4.2.2.3zm3 2.6.2-.2.2.2.3.8q.4 2.3-.6 3.9l-.1-.1-.3-.1-.9-.8.7-.7.3-.5.4-1.6-.1-.5zm2.3 0 .4-.1q.3 0 .3.4.3 1.5.2 3.2 0 .9-.7 1.3l-.4-.2-.3-.3-.1-.1q-1.2-2.2.3-4zM10.7 2.5l-.1-.3q-.2-1.3.9-1.9l.1-.1h.1l.1-.1h.2q.4.8.4 1.9t-.6 1.6l-.5-.2L11 3l-.2-.2v-.2zm4.9 6.3.6-.2q.8 1 .7 2.6 0 1.3-.8 2.3l-.2-.1-.2-.2-.5.8-.6-.3-.5-1.2.3-.8q-.2-1.6.9-2.6zl-.3.3q-1.1 1-.9 2.6l-.3.8-.4-.6-.2-.2v-.3l.2.5-.2-.5-.1-1.4.1-.3-.1.3v-.2l.1-.2 1.7-1.4zm-4.2-5.4.5.2-.3-.1zm-1.6 1 .7 2.2h-1l-1.2.8-.2-.1v-.7l.4-1.2 1.1-1zM6.4 9.6l-.4-1 1.2-1.4L7 10h-.1l-.2-.1-.1-.1z"/><path fill="#aaa273" d="m15.6 7.8.2.3h-.2zm.2 20.4L.5 20.7v-.3l14.7 7.2.6-.3v-3.7zM19.2 12l-.2.5.2-.3zm-2.7 1.6.8-.1-1.4.7-.6-.3h.9l.1-.1zM10.6 2.5v.1zM.6 9.3v-.6zm6.1.5"/><path fill="#8d865f" d="m14.2 2.5-.2.4zM2.8 7.2l.2.7v.2l-1-.5zm5 2.8.2.4-1-.4h-.1.1zm-1.2-.3-.4-.2h.2zm.4.2.9.5z"/><path fill="#58a052" d="m24.3 4.5.3-.1h.5l1.4.3q.5.2.5.6l.4.5.2.5q.9 1.2-.7 2.5l-.9.4-.6.3h-.7l-.6-.1q.6-.4.7-1.3.1-1.7-.2-3.2 0-.4-.3-.4"/><path fill="#765e27" d="m23.8 9.2.3.2h1.3L18.6 13l.3-.3.3-.4V12l.2-.2v-.5q.2-1.2-1-2.2l2-.7.9.8.3.1.2.1zM14 12.6l.5 1.2-4.1-2q.9 0 1.5-1t.7-2.3l.5-1 .8.4h1.7v.3H15l-1.7 1.6-.1.3v1.4l.1.3.2.2zm-2.2-8.9 1 .1.1-.1-.1.1-.2.2-.2.5-.2.5-.6-.5-.7-.2h-.3l-.7.1-.2.1h-.2l-1.1 1L8 6.6l-.2-.4L7 5.1 11 3l.3.4.2.1z"/><path fill="#826933" d="M30.9 7.5v1.7h-.1L16 16.7v3.7l.4.2L31 13.2v2.9h-.1L16 23.6v3.7l.4.3L31 20.2v.4l-15.1 7.6V15.1z"/><path fill="#866e08" d="m30.9 8.6.5.2-.5.2zm0 6.9.5.3-.5.2zM.5 20.4l-.5-.2V16l.5-.3v.5l15.3 7.4-.6.3v3.7zm0-7-.5-.2V9l.5-.2v.5l15.3 7.4-.6.3v3.6zm30.4-4.2.5.2-15 7.5v3.7l-.4-.2v-3.7zm0 6.9.6.3-15 7.5v3.7l-.4-.3v-3.7zM0 16.5l.5-.2zm.5-7.2-.5.3z"/><path fill="#6f5b06" d="M31.4 8.8v4.3l-.5.2-14.4 7.3v-3.7l14.9-7.5-.5-.2V9zm0 7V20l-.5.2-14.4 7.4v-3.7l14.9-7.5-.5-.3V16zm-15.6.9v3.7l-.6.2v-3.7zm0 6.9v3.7l-.6.3v-3.7z"/><path fill="none" stroke="#275227" stroke-linecap="round" stroke-linejoin="round" stroke-width="__RESOLUTION__" d="m16.2 2.6 1-.5 1-.1-.5-.4-1.5-.4m0 1.4-.5.4q-.8.8-1 1.7v.9q0 1.2.9 2.2l.2.3.6.5h-.3l-.6.2-.3.3q-1.1 1-.9 2.6l-.3.8.5 1.2.6.3h.1l.6.3 1.4-.7-.7.1-.4.3.1-.1m.7-5.4h.5l1 .5q1.2 1 1 2.2v.4l-.1.3-.1.1v.2l-.2.4-.4.3 6.8-3.4h-.7l-.6-.1-.4-.2-.3-.3M15 1.7l-.8.8-.2.4h1.7m2.4-1 .4.1h.1v-.1l.4-.2L15.7 0 14 .8l.3 1.5v.2l-.2.4h0l-1.1.7-.1.1-1-.1-.5-.2L11 3l-.2-.2v-.1l-.2-.2-4.4 2.2H4.7l-.3.2m15.2-2.7L21 3.5m.3.6.2.5.2-.2.6-.2v-.7l-.1-.2q0-.7-.7-1.2t-1.7-.5l-.8.1m-.6.3 1 .2m3 2 1.1.3.3.1.4-.1.3-.1-2.3-1.1m1.6 1.3-.3.2m1.5-.4-.1-.1m-.3.1h.4l1.4.3q.5.2.5.6l.1.1m.1.2.2.2h0L31 7.5v1.1l.5.2v4.3l-.5.2v2.2l.5.3V20l-.5.2v.4M10.7 2.5l-.1-.3q-.2-1.3.9-1.9l.1-.1h.1m.1-.1h.3l1.8.7m7.8 3.8.1.4v.5L21.5 7l-.3.5-.7.7.9.8.3.1h0l.2.1 2-.2m-7.4-.5.5-.1h0M15.6 8h.2m-.2 0H15l-1.7 1.6-.1.3v1.4l.3.5.4.6m3.3 1.1.6-.2m1.1-.7.2-.3m1.3-4-2 .7M27 5.3l.4.5h0l.2.5-.1-.2m0 .2q1 1.2-.6 2.5m-.9.4-.6.3m5.5-.3v-.6m0 .6.5.2m-.5 6.7v-.6m.6.9-.5-.3m0 4.1-14.4 7.4-.5-.3M10.8 2.5v.1m.8.9-.2-.1M3 7.9v.2l2 1 1.2.6.4.1.2.1h-.1 0M3 8.2l-1-.5m10.8-3.9-.2.2m.2 3.1.3.4h0l.8.4h1.7m-5.2-1.2q.9 0 1.5.5t.7 1.3h0l.5-1h0M8 6.6v.7h.2l1.2-.7h1M7 5l-.8-.4m1.5 3.5-.1.3.1 1.6.2.4h0m1 .5.6.3.9.3q.9 0 1.5-.9t.7-2.3M6.4 9.6l-.4-1 1.2-1.4H8m-.3 1 .5-.8M8 6.6l-.2-.4L7 5.1M7 10l.7.1m-1.1-.3-.2-.2h-.2m.5.3.2.1m1 .5L7 10m6.4 1.4v.3m-3 0 4 2m.8.3h.9" vector-effect="non-scaling-stroke"/><path fill="none" stroke="#3e3004" stroke-linecap="round" stroke-linejoin="round" stroke-width="__RESOLUTION__" d="m16 1.3-.3.1h-.1l-.4.2M.5 20.7v-.3l-.5-.2V16l.5-.3v-2.3l-.5-.2V9l.5-.2V7.6L3 6.3l.2-.3.1-.3.3-.3.7-.5m11.5 22.4-.6.3L.5 20.4m0-4.2-.5.3M3 6.3l-.2.7M.5 8.8v.5h0m-.5.3.5-.3m11.9-4.9-.2.5v.6m.2.9.3.6M11 4.3l-.3-.1m-.7.1-.2.1h-.2m2.7.5-.6-.5m-3.2 1L8 6.6M.5 16.3v-.6" vector-effect="non-scaling-stroke"/></g></defs><g clip-path="url(#a)"><use xlink:href="#b" width="31.4" height="28.2" transform="translate(1 1)"/></g></svg>