<svg xmlns="http://www.w3.org/2000/svg" xmlns:xlink="http://www.w3.org/1999/xlink" width="67" height="54" viewBox="0 0 67 54"><defs><g id="g"><path fill="#3c2c12" d="M48.6 1v23.4L24 35V11.6z"/><path fill="#674f1f" d="m3.4 14.9-3-1.5H.2v-.8l1.5.6.3.2h.2l1 .5zm1.4 7.4L.5 20H.3v-3.7l.1.1v.1l.2.1 1.7 1.3.6.6.5.3.7.6h.2l.3 2z"/><path fill="#8b6d25" d="m.3 13.5 3.1 1.3.2 1-3.3-1.4z"/><path fill="#d0b86e" d="M3.4 14.9v-1l.4.3.3.2 8.5 4.1.5.3h.2l.2.1 2.3 1.2 1.2.7 1.4.7 1.4.6.1.1v1.6l-.1-.1-2.5-1.4V22l-1.5-.7-1.2-.7-2.5-1.2-.2-.1-1-.5-1.3-.6-.7-.2-.4-.2-.2-.2-.7-.2-.7-.3-.4-.1-.7-.4-2.2-.8z"/><path fill="#785825" d="m.3 14.4 3.3 1.4.2 1.3h-.3l.1.1.3.4.1.1.3 1.7h-.2l-.7-.6-.5-.4-.6-.4-1.7-1.4-.2-.1z"/><path fill="#9f7d2f" d="M20 23.8v3.8h-.3l-.3-.2-3.3-1.1-3.2-1.4-1.3-.7L7 21.4l-.6-.5-.8-.5-.5-.4-.5-.2-.1-.2-.2-.2h-.2.2L4 17.7h.1l.2.2.5.3.5.3.3.3.4.3.5.3.4.3 1.1.8.4.3.6.3 2.1 1.4 1 .6.2.1 1.2.8q2.8 1.5 3.8 1.5.8 0 .5-.9l-.5-.7-1.2-1.2-1.2-.9-1-.7q-1.2-.7-2.7-1.3l-1.1-.4-1.3-.6-.8-.3-2.5-1h-.1l-1.6-.4-.2-1.3 2.2 1 .7.3.4.1.7.3.7.2.2.2q.3 0 .4.2l.7.2 1.3.6 1 .5.2.1 2.5 1.2 1.3.7 1.3.8h.1l2.5 1.5z"/><path fill="#c09143" d="M20 27.6v.6l-1.9-.8-5.2-2.5 3.2 1.4 3.3 1.1.3.1zm0 1.5v.7l-6-3 3.7 1.5zM9.5 24.6l-4.7-2.4-.2-.7.7.4z"/><path fill="#cbab60" d="M20 28.2v.9l-2.3-.8-3.7-1.5-.3-.2-.6-.2-.5-.2-3-1.6-4.3-2.7-.7-.4-.3-2h.1l.1.1.1.1.5.3.5.4.8.5.6.5 4.6 2.8 1.3.7 5.2 2.5z"/><path fill="#ab8a41" d="m3.8 17 1.6.5h.1l2.5 1 .8.3 1.3.6 1 .4h.1q1.5.6 2.7 1.3l1 .7 1.2.9 1.2 1.2.5.7q.3.8-.5.9-1 0-3.8-1.6l-1.2-.7H12l-1-.6-2-1.5-.7-.3-.4-.4-1.1-.7-.4-.3L6 19l-.4-.3-.3-.3-.5-.3-.5-.3-.2-.2-.2-.1-.3-.4-.1-.1z"/><path fill="none" stroke="#000" stroke-linecap="round" stroke-linejoin="round" stroke-opacity=".5" stroke-width="__RESOLUTION__" d="m.3 13.5 3.1 1.3m0-.9-1-.5H2l-.3-.2h0l-1.5-.6v1.8m3-.5h.1l.4.3.3.2 8.5 4.1.5.3h.2l.2.1 2.3 1.2 1.2.7 1.4.7 1.4.6.1.1v1.6m0 3.8v2.2l-6-3-.2-.2-.6-.2-.5-.2-3-1.6-4.8-2.4-4.3-2.1m0-.1H.3v-4.3M20 23.8v3.8M4 17.7l.3 1.7h0-.2.2m-.4-1.8.1.1m-.4-1.8.2 1.2m-3.4-.7" vector-effect="non-scaling-stroke"/><path fill="#e4ce7b" d="M28 8h.1l.6-.2.1-.2.4-.2h.2l1.2-.7 6.4-3 1.6-.9 1.4-.5 2-1 .8-.4 1-.6h.2l.8.3-17 9.4-.6-.2-6.8 2.6-.3-.2 1.5-.7 3.7-2 2.6-1.4m-7.8 4.2.3.1-.2.1v1.7l-.1.4-1.7-.8-.6-.4h-.1l-.1-.1-1.5-.7-1.2-.7-2.9-1.4-.8-.4-1.3-.7-.3-.1-.2-.2-1.2-.5-.3-.2-4.4-2.2-.8-.4-1.5-.6-1-.5q-.2-.2 0-.3l1.7-1.2 1.9.8.5.3 1.4.7 1.8.8 1.8.9 1.1.6.2.1 1.3.7h.1l.3.1 1.2.7.8.3 2.8 1.5 1.2.7 1.6.7v.1zm7.7-2.2 17-9.4 1.5.7-3.9 2-1 .5-7.2 4.5h-.5v.1l-.7.2-2.7.9-.7.3-1 .4zm-7 27.6-.6-.2v-1.8l-.1-3.9-.1-1.5V16.1l-2.2-1.4-.6-.2-.6-.4-.1-.1h-.1l-1.4-.8-1.2-.6-2.9-1.5-1-.4-1.4-.6-.2-.2h-.4l-1.4-.6-.5-.2-.2-.1-4.5-2v-.9l-.1-1 1.5.8.8.3 4.4 2.2.3.2 1.3.5.1.2.3.1 1.3.7.8.4 2.9 1.4 1.2.7 1.5.7.1.1h.1l.6.3 1.7.9v-1.1l.1-1 2.7 1.5zM42.5 4.3v-.9L45 4.8l-.5 5.6-1.4-3.6zM8 9.1l-6.8-3zm3.3-.7.2.1 1.1.8.8.4 2.7 1.5.6.3.3.2.3.1 1.7.7v.1h.2q1.4.7.2-.1l-.1-.1-1.4-.9-1.3-.6-1.7-1-1-.4L13 9l-1.3-.5zm8.8 6.2v1.5z"/><path fill="#d1bb6f" d="m20.4 12.4 6.9-2.6.5.1.6.3h.1l.5 1.6-.6.3-3.6 1.3-1.4.8V14l-.5-.1-2.7-1.5zm9.4-1.1-.8.5-.4-1.6 1.1.3.9.3zm12.8-7.9 3.8-2h.2l1.3-.7.1-.1 1.5-.5.6.3 2.3 1.2-.7.4-1.1.3h-1.2l.6.2-3.5 1.8-1 .5H45zm2.5-.2h-.2z"/><path fill="#ac8733" d="M42.4 3.3v.9l-6.8 4.1v.1l-5 2.7v-.5l-.5-.1-.3-.1h-.1v.1l-1.1-.3 1-.4.7-.3 2.7-.9.6-.2-.7.5 1.3-.6 7.1-4.5h.1zm3 1.5v7.9q-.2-2.6-.9-2.2l.5-5.7z"/><path fill="#674f1f" d="M30.6 11.1v3.4h-.2l.1.1-.1.3v.1l-.1.2.1.2h.1v1.8l-.1.2h.1v1.1-.1h.1v5l-.5.3.3.2h-.1.1v1.8-.4 1h-.1v.4l-.9 6.1v.2l-.2 1.4v.1l-.4 2-1.9.8.5-1.9 1.5-10v-.1l.3-4.7V19l-.1-.2-.7-6.7.6-.3.8-.5zM.2 6.5v-.8l1 .4.1 1zm30.6 7.9-.1.1v-3.3l5-2.7.2-.2h2q2.9-1.2 1.1 0h2.7l.5-.3v1.8l-.3.2v1.3l.3-.1v.3h-.3l-.2.3-2.5 1.1-1 .5-.2.4v.4l-.5.5h-.1l-.5.2-.2.1-.4.1h-.1l-.1.1-1 .3-4.2 1.6-.1-1.5-.1 1v-2zm4.8-6.1 6.7-4v1zm12.8 17.8L45.8 28l.2-13.6-.1-.6v-2.3l2.3-3.6h.8L46.6 12v1.7l.4 3.9v.1l.2 2.5q.1 1.2.3 1.6l.1.5.2-.1.2-.2.8-5.2v-.6l.1-.3v-.3l.6-6.7V7.3q-.1-2.5-1.2-1.8l-.1.2H48l-.4.7v.3l-1.2-2.4 3.5-1.8.7 5.3.1 2.1-.6 6.3L50 18l-1 6zm-3.1 2-1.6-.7.8-17q.5-.3.7 2.3V15l-.1.9.1.9-.1.9.1.8zm-14.6 1.7v-2.9.2-2.7.4l.1-.7-.1-.8v-1.2L42 15.3v-1.1l-4.4 1.9-6.7 4-.1.3v-2.1h.1q4.1-2.2 9-4.1l2.1-1v.2l.1-.1.1-.1v4.5l-.2.1v.8l-5.1 3-2.2 1.3-3 2.8-.6 1 6.9-3.2 4-1.7V23l-10.9 6.6zm11.6-12.9-1 .5-9 5-1.4.9h-.1l1.6-.9 8.9-5zm-11.9.5-.2-.2.2.4zm-2.4-.8v1l-.6 8.3v.3l-.2 1.5-.7 4.7-.1.5q-.2.6-.4 0l-.6-4.2v-.1l-.2-3.4q-.2-.2 0-.7v-4.2l.2-1.5.4-1.7q.3-1 .8-1.5 1-.7 1.3 1m3.2 10.1-.2.8z"/><path fill="#63521f" d="M30.5 23.9v.6h.1v1.3l-.2-.2v.9h.2V30l-.3.2.2.2-.1.4-.1.2.3.3v1.1l-.2.1v.1h.1l.1.1v3l-1.8.8.3-2 .1-.1.3-1.4v-.2l.8-6.1v-1.4l.1.3zM52.4 1.6v5.7q0-1.8-.7-5.3zm0 11.6v11.1l-2 .8 1.1-4.4.5-3.8zm-9.8 13.4-.4.3-7 3.5 7-4.1v-.8l.3-.2zm7.5-24 .6-.4.2 5.5v2.2l-.1-2.2zm-7.6 15.2V19l-.2.1v.1l-5 2.5-.2-.2 5.1-3v-.8z"/><path fill="#785825" d="m27 37.3-1.9.8-.9.4-.8.3v-1.3l-.1-1.6V14.2h.1l1.4-.8 3.6-1.3.7 6.7v1.8l-.2 4.7v.1l-1.5 10zM1.4 9.7l-1.2-1V6.4l1.1.5zm34.4-1.3h-.2l6.6-3-.1 2.7-.5.3H39q1.8-1.2-1.1 0h-2m16.4-1v5.9l-.4 3.7-.5 3.8-1.1 4.4-1.8 1L49 24l1-6 .1-1.8.6-6.3V7.7l-.2-5.4 1.1-.3q.6 3.5.7 5.3m-6.5 20.6-.3.3-.1-.1-.1-9.7-.1-.8.1-.9-.1-.9.1-1v-4.4l.1-5.2v-.4l1-.5 1.2 2.4v-.3l.4-.7h.1l.1-.2q1.2-.7 1.3 1.8v1.5l-.5 6.7-.1.3v.3l-.1.3v.3l-.8 5.2-.2.2-.1.1-.2-.5q-.2-.4-.3-1.6l-.2-2.5v-.1l-.4-3.8v-1.8l2.4-4h-.9L46 11.4v.9l-.1 1V28m-13.6 3.5-.6.4-.4.2-.4.1v-.7l-.1-.4v-1 .1-.3l.3-.2 11-6.6v-1.2L38 23.5l-6.9 3.2.5-1Q36.3 23.3 42 21l.1-.1h.3l.1 4.4-.2.2H42q-5.5 3.6-9.7 5.9m-1.5-9.3v-1.9l6.8-4.1 4.4-1.9v1.1zm.1-3.8.1-1.2 5-1.9h.2l.1-.1h.4V15l.3-.2h.3l.5-.3.4-.2 1.8-1 2.3-1v.9l-.2.1v-.1l-2.1 1q-5 2-9.1 4.1m-3-1.7q-.3-1.7-1.3-1-.5.5-.8 1.5l-.4 1.7-.2 1.5v4.2q-.2.5 0 .8l.3 3.3v.1l.5 4.2q.2.6.4 0l.1-.5.7-4.6v-.1l.3-1.6V26l.5-8.2zm-3.2 13.8-.2-1.3v-.5l-.1-1v-.4l-.1-4.3v-1.4 1.4l.1 4.3v.3l.1 1.1v.5zm.1.6.3 7zm-1-2.5.4 10z"/><path fill="#a2833e" d="m23.3 38.8-2.5-1.2L23 14l.4.1z"/><path fill="#c09143" d="M20 22.2 13.5 19l4.8 1.9 1.7.5zM9.3 16.9 1.8 13l-.2-1.5.2.1 6.7 4.7.5.3zm1.9-8.4h.3l1.3.6.8.5 1 .4 1.8 1 1.3.6 1.4.9h.1v.1q1.3.8-.2.2l-.2-.1-1.7-.7-.3-.2-.2-.2-.7-.3-2.7-1.5-.8-.5-1.1-.7zM20 20v.6l-.9-.5-3.9-1.7-2.3-1.2 2.5 1.1 1.5.6z"/><path fill="#9f7d2f" d="m13.6 19-.2-.1h-.2v-.1h-.1l-.5-.3-3.3-1.6-.3-.2-.5-.3-6.7-4.7-.2-.1-.1-2 1.1.9.5.4.8.5.5.5.3.2.9.6 5 3.2.5.2 1.8 1.1 2.3 1.2 3.9 1.8.9.4v.8l-1.7-.5z"/><path fill="#8b6d25" d="M.2 5.7v-1l1 .5V6zm41.5 6 .3-.1.1-.1h.1l.3-7.2.6 2.5 1.4 3.6-.7 17-1.3-.8-.1-1.3-.1-4.4v-9.5.7L40 13.3l-1.8.8v-.3q-.2-.2.1-.4l1-.5zM35 30.5l-2.7 1q4.2-2.2 9.8-5.9v.8zm7.1-11.2v.8l.1 1h-.4q-5.7 2.4-10.2 4.8l3-2.8 2.3-1.1 5-2.5zm-4.4 2.8 4.5-2z"/><path fill="#ab8a41" d="m5 9.6.5.2 2.4.9 1.1.4 1.2.5 2.8 1.3 1.1.6v.1l1 .6.3.2.1.1.6.4 1 .8.4.6.3.4v.3l.1.4-.2.3-.8.1-1.3-.5-.9-.4-1.2-.6-.6-.4q-.2 0-.3-.2l-.6-.3-.6-.4-.2-.1-.9-.6-2-1.4-1.1-.7-1.2-.8-.2-.2-.5-.3-.8-.6-.4-.4q-1.7-1.2.8-.3"/><path fill="#b99646" d="M5 9.6q-2.6-.8-1 .3l.5.4.8.6.5.3.2.2 1.2.8 1.1.8 2 1.3 1 .6.1.1.6.4.6.3.3.2.6.4 1.2.6.8.4 1.4.5.8-.1.2-.3V17l-.1-.3-.3-.4-.5-.6-.9-.7-.6-.5v-.1l-.4-.2-1-.6-1.1-.7-2.8-1.3-1.2-.5-1-.4-2.5-.9zm-2.3.9-1.1-.9-.2-2.5L5.8 9l.2.1.5.2 1.4.5.3.1.3.2 1.4.6 1 .4 2.8 1.5 1.3.6 1.4.8h.1l.1.1.6.3.6.3 2.3 1.4v.5l-.1 3.3-3-1-1.6-.6-2.5-1.1-1.8-1-.5-.3-5-3.2-.8-.6-.4-.2-.5-.5-.8-.5z"/><path fill="none" stroke="#000" stroke-linecap="round" stroke-linejoin="round" stroke-opacity=".5" stroke-width="__RESOLUTION__" d="M44.8.6 44 .3h-.2l-1 .6-.8.4-2 1-1.4.5-1.6.9-6.4 3h0l-1.2.7h-.2l-.4.2-.1.2-.6.2H28m0 .1-2.6 1.5-3.7 1.8-1.6.8.4.2M44.8.6l1.5.7-3.9 2v.9m-11.8 6.9v3.4m-.1.1-.1.3v.1l-.1.2h0l.1.2h.1v1.8m0 .2v1.1h0v-.1h.1v5l-.5.3.3.2h0-.1.2v.6h.1v1.3m-.2-.2v.9h.2V30m0 .4q-.2.1-.2.4l-.1.2m.3.3v1.1l-.2.1v.1h.1l.1.1v3l-1.8.8-1.9.8-1.7.8-1 .4-.8.3m0 0-2.6-1.2-.6-.2h0v-1.8l-.1-3.9-.1-1.5v-2.5m0-3.8v-1.7L13.5 19m-.2-.1H13l-.5-.3L9.2 17l-7.4-4m-.3-3.5L.3 8.7H.2v-4q-.2-.2 0-.3l1.7-1.2 1.9.8.5.3 1.4.7 1.8.8 1.8.9 1.1.6m.2.1 1.3.7h.5l-.2.1 1.3.7.8.3 2.8 1.5 1.2.7 1.6.7 1.6-.7-1.6.8h.2m8.3-.1.6-.3.8-.5.8-.5h0v-.2l-.5-.1-.3-.1h-.1m-1.8-.4.8.2 1.1.3.9.3h0v.3m-7.3 3.1h.1m7.3.3v-3.3l5-2.7m0-.2 6.6-4v1L42.2 8v1.8m-.3 1.5.3-.1v.3h-.3m-.2.3.3-.1m0 0 .1-.1h.1l.3-7.2v-.9l3.8-2h.2l1.3-.7.1-.1 1.5-.5.6.3 2.3 1.2v22.7l-2 .8-1.8 1-2.7 1.8-.3.3m-.1-.1-1.6-.7h0l-1.3-.8-.4.3-7 3.5-2.9 1-.5.4-.4.2-.4.1v-.7l-.1-.4h0m0-1v.1-2m0-1.2v.2-2.7.4h0l.1-.7-.1-.8v-5h.1l.1-1.2 5-1.9-.9.3-4.2 1.6-.1-1.5-.1 1v-2l.1-.2m10.9-6.1.5-.3m-3 5-1 .4-.2.4v.4l-.5.5h-.1l-.5.2-.2.1h0l.3-.2h.3l.5-.3.4-.2 1.8-1-1.8.8v-.3q-.2-.2.1-.4zl2.4-1.2M52.3 1.7l-.7.4-1.1.3h-1.2l.6.2.6-.2m-2.9 19.9.2-.1M46.4 4.3l-1 .5h0-.4l-2.5-1.4h0m2.8 9.4v2l-.1 1 .1.9-.1.9.1.8.1 9.7m-3.1-16v7h0v1.8l.1 4.4v1.3m-.1-13.4-.2.1h0m0-.1-2.1 1q-5 2-9.1 4.1m11.4-6.9v.7L40 13.3l2.3-1m7.6-9.8-3.5 1.8m-4.4 15 .3-.1m0 0-.2.1h0m0 .1-5 2.5-2.5 1.1-3 2.8Q36.3 23.3 42 21l.1-.1h.3m-.2 4.6q-5.6 3.6-9.9 5.9M36 15.2h.1m.1 0h.4m-5.9 8.2 1.6-.9 8.9-5 1-.5m-11.9.5-.1.2-.2-.4zM29.2 19v1.6zm1.2 7.3v-1 .3m0 .6-.1.5m.6.8.2-.7.5-1M42.2 20l-4.4 2M.2 4.7l1 .5m18.9 9.4v-1.1l.1-1m-19-6.4-1-.4M1.3 7 .2 6.6m11.9 1.6.2.1m-1 .3h-.1m8.8 3.7h-.1M20 20v-4l.1-1.5m-.1 6v-.7m0 .7v1.6" vector-effect="non-scaling-stroke"/><path fill="none" stroke="#000" stroke-linecap="round" stroke-linejoin="round" stroke-opacity=".5" stroke-width="__RESOLUTION__" d="m20.4 12.4 6.9-2.6.5.1 17-9.3M20 27.7v-3.8m2.9-9.9.4.1h.1l1.4-.7 3.6-1.3.7 6.7v.2m-.7-8.8-.6-.2m-4.5 4.2v24.6M30.7 11l-.9.2m6-2.9.2-.1m9.5-3.5v7.9M50 2.5l.7 5.2.1 2.1-.6 6.3L50 18l-1 6-.5 2.1m-19.3-5.5-.3 4.7v.1l-1.5 10-.4 1.9m-2.6-15.8v1.4l.1 4.3v.3l.1 1.1v.5l.1 1.3m.4 7.6-.3-7m-.6 7.5-.4-10M1.2 5.2l1.5.6.8.5 4.4 2.1.3.2 1.3.5.1.2.3.1 1.3.7.8.4 2.9 1.4 1.2.7 1.5.7.1.1h.1l.6.3 1.7.9m.1-2.1.2-.1M1.3 6.1l6.7 3m-5.4 1.4-1.1-.9M22.9 14l-2.7-1.5" vector-effect="non-scaling-stroke"/></g><g id="f"><path fill="#f4a895" d="m17.5 1.6.5 1.5q-2.8 2.1-2.3 6.2l-1.2.5h-.1l-.2-.2q-3.5-2.5-.1-8.3z"/><path fill="#f5c5b4" d="M18 3.1q.3 2-.4 5.3l-2 .8q-.4-4 2.4-6.1"/><path fill="#f5e1da" d="M14.4 9.8h-2.2l-.5-1.2q-1.3-3 0-5.5l.5-.8L13.8.4l1-.2v.1q1.9-.1 2.7 1.3l-3.4-.3q-3.4 5.8.2 8.4z"/><path fill="#84572a" d="M12.3 9.8h-.7q-7.5-1.4-11-5 5.7-1.4 11.1 3.8z"/><path fill="#b27235" d="m.6 4.8-.3-.4 2.1-2.5q.8.6 4.4.6l5.4-.2-.5.8q-1.3 2.6 0 5.5Q6.3 3.4.6 4.8"/><path fill="#c48e59" d="m2.4 1.9.5-.6v-.1q5.1 1 11-.8l-1.7 1.9-5.3.3q-3.6-.1-4.4-.7"/><path fill="none" stroke="#553b18" stroke-linecap="round" stroke-linejoin="round" stroke-opacity=".8" stroke-width="__RESOLUTION__" d="m17.5 1.6.5 1.5q.3 2-.4 5.3l-2 .8-1.2.6h0-2.7Q4 8.4.6 4.8l-.3-.4 2.1-2.5.5-.6h0v-.1q5.1 1 11-.8l1-.2v.1q1.9-.1 2.7 1.3M13.8.4l-1.7 1.9-.4.8q-1.3 2.6 0 5.5l.6 1.2" vector-effect="non-scaling-stroke"/><path fill="none" stroke="#554631" stroke-linecap="round" stroke-linejoin="round" stroke-opacity=".8" stroke-width="__RESOLUTION__" d="m17.5 1.6-3.4-.3q-3.4 5.8.2 8.4l.1.1" vector-effect="non-scaling-stroke"/></g><g id="e"><path fill="#aa7568" d="m17.5 1.6.5 1.5q-2.8 2.1-2.3 6.2l-1.2.5h-.1l-.2-.2q-3.5-2.5-.1-8.3z"/><path fill="#ab897d" d="M18 3.1q.3 2-.4 5.3l-2 .8q-.4-4 2.4-6.1"/><path fill="#ab9d98" d="M14.4 9.8h-2.2l-.5-1.2q-1.3-3 0-5.5l.5-.8L13.8.4l1-.2v.1q1.9-.1 2.7 1.3l-3.4-.3q-3.4 5.8.2 8.4z"/><path fill="#5c3c1d" d="M12.3 9.8h-.7q-7.5-1.4-11-5 5.7-1.4 11.1 3.8z"/><path fill="#7c4f25" d="m.6 4.8-.3-.4 2.1-2.5q.8.6 4.4.6l5.4-.2-.5.8q-1.3 2.6 0 5.5Q6.3 3.4.6 4.8"/><path fill="#89633e" d="m2.4 1.9.5-.6v-.1q5.1 1 11-.8l-1.7 1.9-5.3.3q-3.6-.1-4.4-.7"/><path fill="none" stroke="#3b2910" stroke-linecap="round" stroke-linejoin="round" stroke-opacity=".8" stroke-width="__RESOLUTION__" d="m17.5 1.6.5 1.5q.3 2-.4 5.3l-2 .8-1.2.6h0-2.7Q4 8.4.6 4.8l-.3-.4 2.1-2.5.5-.6h0v-.1q5.1 1 11-.8l1-.2v.1q1.9-.1 2.7 1.3M13.8.4l-1.7 1.9-.4.8q-1.3 2.6 0 5.5l.6 1.2" vector-effect="non-scaling-stroke"/><path fill="none" stroke="#3b3022" stroke-linecap="round" stroke-linejoin="round" stroke-opacity=".8" stroke-width="__RESOLUTION__" d="m17.5 1.6-3.4-.3q-3.4 5.8.2 8.4l.1.1" vector-effect="non-scaling-stroke"/></g><g id="d"><path fill="#f5b5a4" d="m17.5 1.6.5 1.5q-2.8 2.1-2.3 6.2l-1.2.5h-.1l-.2-.2q-3.5-2.5-.1-8.3z"/><path fill="#f6cdbf" d="M18 3.1q.3 2-.4 5.3l-2 .8q-.4-4 2.4-6.1"/><path fill="#f6e5df" d="M14.4 9.8h-2.2l-.5-1.2q-1.3-3 0-5.5l.5-.8L13.8.4l1-.2v.1q1.9-.1 2.7 1.3l-3.4-.3q-3.4 5.8.2 8.4z"/><path fill="#967049" d="M12.3 9.8h-.7q-7.5-1.4-11-5 5.7-1.4 11.1 3.8z"/><path fill="#bd8753" d="m.6 4.8-.3-.4 2.1-2.5q.8.6 4.4.6l5.4-.2-.5.8q-1.3 2.6 0 5.5Q6.3 3.4.6 4.8"/><path fill="#cc9e71" d="m2.4 1.9.5-.6v-.1q5.1 1 11-.8l-1.7 1.9-5.3.3q-3.6-.1-4.4-.7"/><path fill="none" stroke="#6e583a" stroke-linecap="round" stroke-linejoin="round" stroke-opacity=".8" stroke-width="__RESOLUTION__" d="m17.5 1.6.5 1.5q.3 2-.4 5.3l-2 .8-1.2.6h0-2.7Q4 8.4.6 4.8l-.3-.4 2.1-2.5.5-.6h0v-.1q5.1 1 11-.8l1-.2v.1q1.9-.1 2.7 1.3M13.8.4l-1.7 1.9-.4.8q-1.3 2.6 0 5.5l.6 1.2" vector-effect="non-scaling-stroke"/><path fill="none" stroke="#6e614f" stroke-linecap="round" stroke-linejoin="round" stroke-opacity=".8" stroke-width="__RESOLUTION__" d="m17.5 1.6-3.4-.3q-3.4 5.8.2 8.4l.1.1" vector-effect="non-scaling-stroke"/></g><g id="c"><path fill="#d1bb6f" d="m28.4 2.8 1.6-.5 16.3 8.5h-.1l.2.2-.5.3-.2-.2-2.6-1.3-8.7-4.2-.5-.2-.5-.3-2.4-1-.4-.3-1-.4v-.1h-.1zm19 7.7h.3l.7.3h-.1l2.1 1-.7.4-1 .3-.5.2-3.1 1.6-1 .5-.4-.1-2.1-1.2 3.4-1.8h.1l.7-.4.5-.3h.1l.2-.1.4-.2zm-18.3 9.1 1 .3.4.1.4.1v.1l-.7.4-.8.5-.5.2-3.2 1.2-1.2.7h-.1l-.4-.1-2.4-1.4h.2l6.1-2.4.5.1.5.3zl.1.6zm1.4.3.2.1zm17.8-9.2-.6-.3zm.4 1.6-1.1.1.6.2-.6-.2zm-1-2-1.1.4zM8 11.7l-.7-.2h1.1z"/><path fill="#8b6d25" d="M29 2v-.2l.8-.3.7.3V2l-.6.3-1.6.5.3-.4zh-1l.6.2-.7.3.6.3.2-.4v-.2zm1.6-.2-.7-.3.7-.3zm-1.1 3.3 1 .3q1.1 1.7 1.4 3.4V9l.9 2.2-3.3-2.3-.2-.2h-.1l-.4.2V7.5l.5-.7zv3.8zM10.4 15.7l.1-.2q2.7-2.7 12.8-7.2l.2-.1L26 7.1l2.9-1.2V6l-5.3 3.5-.2.1q-8.5 5.7-11.1 6.8l-.2.1zm6.4-.4 1-.6.6-.3 5.1-2.8.4-.2 3.6-2 1-.3.3.1-1.4 1.1-.7.6-.9.5-2.3 1.3-.4.3-.7.4-.2.2-3.1 1.8-.9.4-.7.4-1.6.8-1.3.5v.1l-.3.1-1.1-.6.1-.1h.1zm12-8.9v.2l-.6.4zm12.8 7.9.5 2.2 1.4 3.3-.7 15.5-.7-.4-.5-.4v-1.1l-.1-4-.1-1V17.7l.2-2.4zm-7.4 3.6-1.2.6.8-.5zm-4 1.9.3.1zm11.2.9v.7l-2.1.9 2.1-1.1-2.1 1.1-1.6.8v-.3l.1-.4L41 21l.2-.1zm0 6.9v1.6h-.2l-.1.1q-5.2 2.1-9.3 4.3l2.7-2.6 2.2-1 4.5-2.2v-.1zm.3 6.8.4.4-.5-.2zM33.3 12l-.5 1-3.2-1.3v-1.4zm0 2 .5 1.2-1.3-.9q-1.4-.9.9-.3m-3.8-.3 1 .7h.1l1.8 1.4v.1l-1.4.6-1.5-1.2zm1.5 9.8h-.2v.1zm-.2.6v.1zm0 1.9-.2-.2.1.4zv.2zm0 0 .1-.1zv.2zl.1-.1zm0 .1v.6l.1.1v.1h-.1zm0 5.7h-.1zv-.1zm0-.4.1.3v-.3m10.2-9.1v-.2zm-3.5.7 1.6-.8-1.6 1zm-.3 7 4-1.7zM29.2 8.6l.1-1.8zm12 25v.6L34.9 38l-2.5 1zM31 37.4v.3h-.2zm0 1.1v.1l.1.3v.9-1.2zl-.2-.3zv-.9zm0 .1.1 1zM3.7 14.7l.8.4.1.9-1-.4zm0 7.8 2.8 1.3.2.9-3-1.3zm0 7v.1L9 32l.3.9-.6-.2-4.8-2.2-.1-.1z"/><path fill="#e4ce7b" d="M29.1 2h-1l.5.2-.7.3-.5-.2-3.9 1.8-.2.2-1.9-1v1.9l-.4.2L9.8 11l-3.5-.8-6 3L.1 27l.1 3.8q.6-1 1.1-3.8.5-3.2.7-8.9V14h1.4l2-1L8 11.7l-.7-.2h1.2l.7-.4h.7l-.6.2-.7.4-.5.3-2.3 1-.5.2L7 14l.5.2.3-.2.5-.2.2-.1 1-.5.3-.2 13.5-6.7.2-.2 1.8-.8h-.1l4.2-2v-.1l-1-.5-.5-.3-.5-.2L23.5 4l-.2.2-1.9-1L27.9.1l2.8 1.1-.7.3-.7.3zm.9.4.6-.3h.3l17 8.5-.2-.1h-.2l-.4.3-.6.3-.2-.2zm-.4 1.1 1 .4.4.3 2.4 1 .5.2v.1l.5.2 8.7 4.2 2.6 1.3.2.2-.7.4-2.1-1-.2.1h-.1l-1.5-.9q-3.6-1.9-6.9-3l-.8-.2-3.2-1.4zm13.3 7.3h.1l.8.2 1.3.7-3.5 1.8v.8l.5 2.2 1.4 3.3.3-5.1-2.1-1.2-1 .4-6.5 4h-.4v.1l-.6.3-2.5.7-.5.3-1 .3-.7-.2.5.3h.2-.2.2l-.7-.2-.5-.2-6.1 2.3-.2.1 2.4 1.4-1.9 21.2-.4-.2h-.1v-1.6l-.2-3.5V25l-2-1.2-.5-.3-.6-.3v-.1h-.1l-1.3-.8-1.1-.5-2.5-1.3-1-.4-1.2-.5-.2-.2h-.4l-1.2-.6H9l-.3-.2-3.9-1.8-.1-.8v-.9l-.9-.3v-.1q-.3-.1 0-.2l1.5-1.1 1.6.7q.2.2.5.2l1.2.7 1.7.8 1.5.7 1.1.5.2.1 1.1.6.1.1.3.1 1 .6.8.3 2.5 1.3 1.1.6 1.4.7h.1l1-.4-1 .4v.1l4-2 3.1-1.7.2-.1h.1l.5-.3.4-.2h.1l1.1-.7 1.4-.6 1.3-.6 2.1-1 1-.5 1.5-.8 1.1-.5 1.8-.9.8-.3.8-.5zm3.1-1-4.6-2.5q-7.7-3.5 1.7 1.3l.2.2 2.4 1zM43.8 11l-15.3 8.5zM23.4 4.3h-.1l-1.2.5-.7.3.8-.3zm-1.7 19.3-1.5-.8-.6-.3h-.2l-1.3-.7-1-.6-2.7-1.2-.7-.5-1.2-.6h-.2l-.2-.1-1.1-.6-.3-.2-3.9-1.9-.8-.4-1.3-.6 1.3.7.8.3 4 2 .2.1 1.1.6h.2l.3.1 1.1.6.7.4 2.6 1.3 1.1.6 1.3.6.1.1h.1l.6.3zv-1l.1-.9v1.5zV25zM.3 13.2 2 14zm10.5 5.5L4.7 16zm2.9-.6.2.2 1 .6.7.4 2.5 1.3.5.4.2.1.3.1 1.5.6v.1h.2q1.3.6.2 0v-.1h-.1l-1.3-.8-1.1-.6-1.6-.9-.9-.4-.8-.4-1.2-.5zm8 3.4.3.1z"/><path fill="#c09143" d="m29 2-.3.4v-.2zM13.2 16.9l.8-.4 2.8-1.2-3.4 1.7zm15.9-6.8.4.2-.2.2zm17-.3q.2.1-.4 0l-2.4-1-.2-.2q-9.5-4.8-1.7-1.3zm-9.2 3.9L33.2 12l-.4-.8zm-6 12.3v.2zm-1.1 3v-1.4zm1.1 2.5.1-.7v1.1zm3.5-.5 2.1-1.1.1.1zM31 32v.6-.5m-.2 6.3v-.1l.1-.5-.1.5zm.2 1.3v.3zM9.1 11.1h.7l-.6.2zm-.7.6L8 12v-.3l.4-.2zM15.2 26l2.2 1 1.4.5 2.8 1v.4l-.8-.3-3.5-1.6zm-10-3.7L5 20.9l.2.1 6 4.2.4.3.3.1-4.6-2.3-.7-.3h-.1zm10.6 5.2 4.3 1.8 1.5.4v.8l-4.4-2.2zm5.8 9.9-5.7-2.9 3.6 1.5 2.1.8zm-9.4-4.7-4.3-2.2-.2-.7.7.4zm2.2-14.9v-.1l.2-.1h.1zm-1.2-.7H13l.1-.1h.3zm2.8-.2-1.2.7h-.1zm-2.2 1.2.3.1 1.1.6.8.3.9.4 1.6.9 1.1.6 1.3.8h.1q1.1.7-.2.1h-.2l-1.5-.6-.3-.2-.2-.1-.5-.4-2.5-1.3-.7-.4-1-.6zm7.8 17.3v.5l-1.7-.7-4.7-2.3 3 1.3 2.9 1 .3.1zm-2.1 6.7-4.2-2.2 4.2 1.9 1.6.5.6.3v.4l-.9-.4h-.2zm1.3.5 1 .4z"/><path fill="#63521f" d="M50.6 11.8V17q-.1-1.6-.8-4.8zm0 10.5v10.1l-1.9.8 1-4 .4-3.6zm-9-3-.1 1.2-.2.1v-1.2zm-.1 7.1v1.3l-.2.1v.1l-4.5 2.3-.1-.2 4.6-2.7v-.8zm.2 7v1.2l-.4.2.4-.2-.4.2-6.3 3.1 6.3-3.6v-.7h.1zm-4.5-9.7.1-.1h.1zM41 21l.2-.2v.1zm-3.7 2.6.4-.3v.1zm-7.9 19.7.4-1.8v-.2l.2-1.2v-.2l.7-5.4v-.3l.1-.1v-.9.3L31 32v.5h.1V35l.1-.2v.5-.3H31v-1.3l-.2-.2v.3l.1.4v-.5.5l.1.1v.8-.1l.1.3v.6H31v1.5l-.2.3h.2v.9l-.2-.2v-.1l.2.3v.3-.3.3-.3 1l-.2.1.1.1.1.1v2.7zM49 19.4v-2l-.7-4.7.5-.2.3 4.9zM30.7 34.5l.1-.4zm.3.5v.9zm0 2.8-.2.4v.1-.1zm0 2.1-.1-.1.2-.1zm0-.4V39zM3.9 29h.2l1.7.9h.3l.2.1 1.1.6.2.1 1 .5h.2l.2.8-5.1-2.2v-.1h-.1v-.9H4zm-.5-.3.4.2v.8l-.4-.2zm0 0v.8zm6.6 7-.4-.4-.4-.2-.8-.5L8 34l-.8-.6q-1.6-1.1 1.3-.2l1 .4z"/><path fill="#785825" d="M50.6 17v5.3l-.5 3.3-.5 3.5-.9 4.1-1.7 1 .5-2 .9-5.6.2-1.5.4-5.7v-2l-.2-5 1-.2q.7 3.2.8 4.8M2.3 35.6l-.4-.2V14h1.3v1.3l.1.1V32l.1.3q0 3.6-1.1 3.2m39.2-20.3-.1 2.4-.5.3h-2.4q1.6-1-1 0h-2.1zm-.2 6.3v.8l-.1.1h-.1l-1.9.9q-4.3 1.7-8 3.7v-1.2l3.8-1.4 1.3-.4.4-.2h.3l.3-.2.4-.2 1.6-1zm0 7.8.2 4-.3.3h-.1l-8.9 5.3-.4.3-.4.2-.4.1v-1.9l-.1.1v-.3l.3-.1 9.9-6V30l-3.7 1.6-6.2 3 .5-1q4.1-2.2 9.3-4.3zM44 22v-2.2l.1-4.7v-.3l1-.5 1 2.1v-.2l.4-.6h.1l.1-.2q1-.7 1.2 1.6v1.3l-.5 6.1-.1.3v.3l-.1.2v.3l-.7 4.7-.1.2-.2.1-.1-.4-.4-1.5-.1-2.3h-.1l-.2-3.6v-1.5l2.1-3.7h-.7l-2.1 3.2v2.6l-.1 12.4-.4.2L44 27zm-19.5 1.3 1.2-.7 3.2-1.2.6 6 .1.3V29l-.2 4.3-1.3 9-.4 1.7-1.7.7-.8.3-.8.3v-3l-.1-10.7v-1.3zm2.8 1.3-.6 1.4-.4 1.5-.2 1.4v.3l-.1.3v3.1q-.2.4 0 .7l.3 3v.1l.5 3.8q.2.4.4-.1l.1-.5.6-4v-.1l.2-1.4v-.2l.6-7.4-.2-1q-.3-1.5-1.2-.9M31 29l.1-.2 6.1-3.7 4-1.7v1l-10.2 6zM3.8 16.4l1 .4.1 2.4-1.1-.9zm0 1.9 1.1.9L5 21l-.2-.3-.5-.4-.5-.4zm0 6.8v-1.7l3 1.3.1 1.1h-.3l.2.2.2.3.1.1.2 1.5-.7-.5-.5-.3-.6-.5-1.6-1.2v-.2zm0 5.2 4.8 2.1.6.3.2.8-1-.4q-2.9-1-1.3.2l.8.6.4.3.8.5.4.3.4.3.5 1.7.4 1.5-.3-.1-1-.5-1-.6-1.5-1-.5-.4-.7-.5-.8-.8-1-1.8-.1-.1v-.3l-.1-.2zM25 36.2l.3 8.8zm.9 1.8-.3-2.6v-5.5 5.5zm0 .4.3 6.4z"/><path fill="url(#a)" d="m23.2-7.3.9.3Q34.2-2.9 36.4 3q2.1 5.7-4.9 9.8-7 4-19.1 4t-22.2-4T-21.9 3l-.1-.1q2.1.9 3.3 1.6l1 .5 1 .5.2.1L-8 9l1 .4.3.1.9.3.1.9v.2l.5.3 2.3 1 .9-.3.7-.3 1.7-.7 1.6-.7 1.6-.7v-4 1.2l.1-.3.4-.2.4-.2.5-.2 2.6-1 6.3-3.1.3-.2.5.3v-.1l.7.4 1.4.6v.1l.4-.2L19.6 1l1.7-1 1.8-.7zM-17.6 5l.3.2.6.3-.6-.3z" transform="translate(27.4 33.15)"/><path fill="#674f1f" d="m5.4 35.9-1.2-.5-.1-.1H4l-.2.1-1.4.2v-.1q1 .4 1.1-3.2l.3 1.5v.2-4.5l-.4-.2v1-1 1l.4.1-.4-.1V32l.1.3V32l.3.3-.3-.3v.3l.3 1.5v-1.5l.1.1v.4l.1.1 1 1.8.8.8.7.5.5.4 1.6 1.1zm24-30.8h.1l-.2 1.7-.6.7V9l.5-.3.1.1.2.2v1.4l-.4-.2q-1.4.2-2.5.8l.8-.6 1.4-1.1-.3-.1-1 .2-3.6 2.1-.4.2-5 2.8-.7.3-1 .6-2.8 1.2-.8.4-.2.1-1-.5.2-.1q2.6-1.1 11.1-6.7l.2-.2L28.9 6v-.1L26 7.1l-2.4 1.1h-.2q-10.1 4.6-12.8 7.3l-.1.2-1.7-.7.3-.2.7-.4h.1q6.9-3.9 13.5-6.9l.2-.1 4.6-2h.6zM26.6 11q1.1-.7 2.5-.9l.1.4h-.4l.3.1h.1l.3-.3V8.9l3.3 2.3.4.8-3.7-1.7v1.4l3.3 1.3.5 1q-2.3-.6-.9.3l1.3 1h-.1l-1.2.6v-.1l-1.8-1.4-1.1-.7v-2 3.6l1.5 1.1v.1l-1 .6h-.2l.1-.1-.4-.2v.4h-.1v.2l-.5.3-.1-.1v.1h-.2v.1l-3.2 1.7-2.5 1.2h-.1l-.3.3-1 .4-1.4-.7L19 20l-2.5-1.3-.8-.4-1.1-.5-.3-.1q.2 0 .3-.2l.2.2 1.1.5-1-.6 4.2-2.3 3-1.8.3-.2.7-.4.4-.2 2.3-1.4zm2.1-4.5-.5.6.6-.4zM30.2 20v-.1l.4.1.4.1-.2-.1h-.2l-.3-.2zh.3zl.3.1zm.8.1v.3l4.5-2.5 6.1-3.7v.9L35.5 18h1.8l.3-.1q2.6-1 1 0H41l.5-.2v1.6l-.3.1v1.2l.2-.1v.3h-.2l-.2.2-3.2 1.5-.1.4v.3l-.6.4v.1l-.4.1-.4.2-1.2.4-3.9 1.4-.2-1.3h.1l-.1.9v-1.9h.1-.1v-3l-.7.1-.8.5-.5.2.6 6 .1.3h.1V29l-.3 4.3-1.3 9-.4 1.7 1.6-.7.4-1.8v-.2l.2-1.2v-.2l.7-5.4v-.3l.1-.1v-.9.3L31 32h-.1.1l-.3-.2.3-.3-.3.3.3.1h-.1v.1h.1v-.4l.1-.8v.7h.1l1.3-.7 8.1-4.7.9-.4v-3.4l-.1.1-.1.1v-.2l-1.9 1Q34.9 25 31.2 27H31v-.6l-.1-.5v-2.4.1h-.2l.2-.1v-3l-.7.1zl-.1-.1h-.1.2m10.4 5.6v.7l-.2.1v.8L36.6 30l-2 1.1-2.8 2.5-.5 1-.2.7v-.5.2l-.1-1.4v-1 .3h.1v-1.3l-.1-.8v-.4l10.2-6.1v-1l-4 1.6q-4.6 3-6.1 3.8v.1l-.1.1v-2.7l-.1-.2v.1h-.1l-.2-.2.1.4.1-.2.1.1h.1v-1.7h.1l.1 1.3V27H31v-.6l-.1-.5v.4-.1.1l-.1.8V27h.1v-.7 5.3h.1l1.3-.9 8.1-4.6zm1.4 9.6.8-15.4q.4-.4.5 2V27l.1 8.9zm3.7-4.9v-.2l.8-4.7V25l.1-.3v-.2l.6-6.2V17q-.2-2.3-1.2-1.6v.1l-.1.1-.5.6v.2l-1-2 3.1-1.7.7 4.8v1.9l-.4 5.7-.2 1.5-1 5.5-.4 2-2.4 1.6.1-12.4v-2.6l2-3.2h.8l-2.1 3.7v1.6l.2 3.4v.1l.2 2.3.4 1.5v.4zM28.8 16.5v-.2zm.7-1.2v1.5zm-.3 4.4.1.6zm1.8.3-.1.1zm5.7 3.7.4-.1-.1.1zm.4-.2.6-.4v.1l-.5.3M35.7 18l-.2.1zm-5 6.1v-.2l.1-.3-.1.3zl.1.1v.1l.1 1v-1zv.1zm-3.4.3q1-.6 1.3.9v1l-.5 7.4v.2l-.2 1.4-.6 4.1-.1.5q-.2.5-.4 0l-.4-3.7v-.1l-.4-3q-.2-.3 0-.7v-3.7l.3-1.4.4-1.5zm3.6-.2h-.2zm0 .1V26zm.2 2.6v-.6zv-.6zm-.1 4.6.1.7v.6l-.1-.3v-.9m.1 3.6.2-.6 6.2-3 3.7-1.6v1.1l-9.9 6.1-.3.1V36zm-.2-3.6v.3zm.2 1.3V32l-.1-.3v.9zm0 0v-.3zm-.1-6v.1m-.2 6.5.2.1v.6l-.2-.5zm.1.7.1-.6v.6m0 3.5v.8zM3.4 14.4V14l2-1 .2.1-.3.2v.1l-1.5 1zm0 .1h.4q-.3.1 0 .2v.9l-.4-.2v-.2l-.1-.7m.1.9.4.2.9.4.1.8-1-.4v-.8.8l-.4-.1zm2-2.4L8 11.7l.1.3-2.3 1zm-2 2.8v.4l.4.2v3.5l.5.4.5.4.2.3.1 1.3-1.3-.8v-1.6 1.6l-.3-.1v-.1.1-1.6zm0 .4.1 5.1zm.3 5.4 1.3.6.2.1.3.1.9.4.1.9-2.8-1.3zV25l-.4-.2v-1.7h.4-.4v1.7l.4.3v3.3l-.3-.2V25v1.6-3.3l-.1-.9v-.9h.1l.3.2zm-.4.6v-.9zm.4.2-.4-.2v.8-.8zm-.4 4v-1.6l.1 3.4.3.1v-3.2.1l.1.1 1.6 1.3.6.4.5.3.7.6.3 1.8.2.7-3.9-1.9v-.1h-.1v.2l-.4-.2.1-.2v.2h-.1v-.2h.1-.1zm.4 7.4v-1.5 1.8zM3.4 32h.1v-1.7V32M19 15.4l-4.2 2.3-.2-.1 1.3-.7 1.4-.7.9-.4zm9.6-3.1-5.2 2.3-7.5 3.7 7.5-3.7zm-12.9 6-.2.1zm-1-.6-.3.1zM4.3 35.4l-.3-.7-.1-.3.1.3zm-.3-.1v-.7z"/><path fill="#d0b86e" d="M29.5 3.3v.2l.8 2-.9-.4V4l.1-.6zl.1.2v.8l-.1.5zm3.3 9.7.4-1 3.5 1.7.1.1-1 .4zm-3.5-2.5-.1.1h-.4v-.1h.4m-.4 7.1h-.2zm.7-.3v-.1l.1-.1V17l.3.1h-.2l.2.1zm-26-3h.4zM12 25.4l3 1.5.4.2.1.1h.1l.2.1 1.4.8.6.3 1.1.6 1.4.6 1.1.6.2.1V32h-.1l-2.2-1.4H19l-1.2-.7-1.1-.7-2.2-1-.3-.2-.9-.4-1.2-.6-.6-.2-.3-.2-.3-.1-.6-.2-.6-.2-.4-.2-.6-.3-1.9-.8-.2-.9-.1-.9.1.1.3.2.3.1zm3.5 1.8.3.1zM8.8 31l1 .5q0 .4.5.3l1.4.7.2.1 1.2.6h.1l5.8 3 2.2 1.2.3.1V39l-2-1.2q-3.9-2.3-7.5-3.9h-.2l-1.3-.6h-.2l-1-.4-.3-1zm15.7 14.1v.1z"/><path fill="#a48848" d="m2 35.3-1.6-.9-.2-1.9v-1.7q.6-1 1.1-3.8.5-3.2.7-8.9zM1.7 25v1-1.2z"/><path fill="#cbab60" d="M29.5 3.3h-.1m.1 1.5V5l-.8.3h-.6l-4.6 2-.2.1q-6.6 3-13.5 6.8l-.1.1-.7.4-.2.1-1.3-.6.3-.2.5-.2.2-.1 1-.5.3-.2 13.5-6.7.2-.2 1.8-.8h-.1l4.2-2h.1zM31.9 9l2.5 1.6q1.9 1.3 3.9 2.4h-.1.1l-1.5.8h-.1v-.1h.1l-4-2.5zm7.4 3.5h-.1zl-.2-.2q-1.9-1-4.8-3l-1-.7-.2-.1-.2-.2-.9-.6q-1.6-1.1 1.3-.2l2.1.8q3.5 1.3 5.8 2.6l.6.4h-.1l.2.1-.8.3zm2 15-.1.1h-.1zM29.5 17v-.2l.4.2v.1l-.1.1h-.2l.1-.1zM31 33.9v.4zM8.4 11.5l.7-.4.2.2-.9.4zm-4.6 10 1.3.8.2.1.3.1.9.4-1.4-.6-1.3-.6zl-.3-.2v-.1.1zm3.5 2-.4-.2-.3-.2zm14.2 7.2-.2-.2-1.1-.6-1.4-.6-1-.6-.7-.4 4.4 2.3m-12.7.6h-.2l-1-.5h-.2L6.3 30h-.2l-.3-.1-1.7-.9H4v-.2h-.1v-.2H4v.1l3.9 2 4.3 2.1 2.8 1.4.4.2.5.3 5.7 2.8v.3l-.3-.2-2.2-1.1-5.8-3.1h-.1l-1.2-.6-.2-.1-1.4-.7q-.5.1-.6-.2zm7 3.4-.5-.2-.4-.2-2.8-1.4-3.8-2.5-.7-.4-.3-1.8.2.1.2.1.4.3.4.3.8.5.5.4 4.2 2.6 1.1.6 4.7 2.3 1.7.7v.9l-2-.7zM22.5 21l.3-.2.1-.1 2.6-1.2-4 2zm-3.1 21.3V42l1 .4z"/><path fill="#ac8733" d="m30.5 5.4 3.1 1.3.8.3q3.3 1.1 6.9 3l1.5.8h-.1.1l-.8.5h-.2l.1-.1-.6-.4Q39 9.4 35.5 8.2l-2.1-.7q-2.9-1-1.3.1l.9.7.2.1h.1l1.1.8q2.9 2 4.8 3l.2.2h-.1l.1.1-1.1.5h-.1.1q-2-1.1-3.9-2.4L32 9l-.1-.2q-.2-1.7-1.4-3.4m11.1 8.1v.8l-6.1 3.6v.1L31 20.5V20h-.4l-.3-.2v.1l-1.1-.2 1-.4.6-.3 2.4-.7.5-.3-.7.5 1.3-.6 6.4-4zm1.8 6.3.3-5.1.4.1v7.1q-.2-2.4-.7-2M32.8 13l3 1.1v.1l-2.1 1.1h-.1l.1-.1-.5-1.2z"/><path fill="#c7a961" d="M28.8 16.4v-.2zm-21.7 10v-.1z"/><path fill="#a2833e" d="m24.1 23.1.4.1-.1 7.1v12.4l.1 1.4v1.2l-2.2-1zM10.5 37.2l-.5-1.7.4.3q8 5.5 9 4.6.3-.1.1-.6v-.2q-1.3-2.5-8.3-5.2l-.3-.2h-.2l-1.2-.5-.2-.9 1 .5h.2l1.3.6h.2q3.6 1.6 7.5 3.9l2 1.3.1 3.4-.7-.2-1.5-.5-4.2-1.9-4.2-2.4z"/><path fill="#b99646" d="m4.8 16.8 3.9 1.8.3.1.4.1 1.2.5.3.1.3.2 1.3.5.9.4 2.5 1.3 1.1.5 1.3.7v.1h.1v.1l.6.3.5.3 2 1.2v3.4l-2.7-.9-1.5-.6-2.2-1-1.6-.9-.4-.2-4.5-2.9-.8-.6-.3-.1-.5-.4-.7-.5-.5-.4-.9-.7zm4.2 4 1 .6 1 .8 1.8 1.1.8.6.2.1.5.3.6.3.2.2.6.3 1 .6.8.3 1.2.5.8-.1.1-.2v-.4l-.2-.3-.1-.4-.5-.5-.7-.7-.6-.4h-.1l-.3-.3-.8-.4v-.1l-1-.6-2.6-1.2-1-.4-1-.4-2.2-.8L8 19q-2.2-.8-.8.3l.4.4.7.5.4.2zm.5 12.9 1.2.4.2.1.3.1q7 2.9 8.3 5.3v.1q.2.5 0 .7-1.1.9-9.1-4.6l-.4-.3z"/><path fill="#9f7d2f" d="m5 21-.1-1.8 1 .8.4.3.7.5.5.4.3.1.8.6 4.5 2.9.4.2 1.6 1 2.1 1 3.5 1.6.8.3v.9l-1.5-.5-4.3-1.8h-.2v-.1h-.2l-.4-.2-3-1.6-.3-.2-.4-.2-6-4.2zm2.3 6.9-.2-1.5h.1l.2.2.4.2.5.3.2.3h.1l.3.3.4.2.4.3 1 .7.4.3.6.3 1.8 1.3 1 .5.1.1 1.1.7q2.5 1.4 3.4 1.4.7 0 .4-.8l-.4-.7-1-1-1.1-1-1-.6-2.4-1.2-1-.4-1.2-.6-.7-.2-2.2-.9h-.2L7 25.8l-.1-1.1 1.9.8.6.3.4.1.6.3.6.2.3.1.3.2.6.3 1.2.5.9.4.3.1 2.2 1.1 1 .6 1.3.8h.1l2.3 1.3.1.1v3.5h-.2l-.3-.1-3-1.1-2.9-1.3-1.1-.6-4.2-2.6-.6-.4-.7-.5-.4-.3-.4-.2-.2-.2-.2-.1zM11 38.7l-.4-1.5.5.3 4.1 2.4 4.3 2.2z"/><path fill="#ab8a41" d="m7 26.3-.2-.3-.2-.2H7l1.4.4h.2l2.2.9.7.2 1.2.6 1 .4 2.4 1.2 1 .6 1.1.8 1 1.1.4.7q.3.7-.4.8-.9 0-3.4-1.4l-1.1-.7h-.2l-.9-.6-1.8-1.3-.6-.3-.4-.3-1-.7-.4-.3-.4-.2-.3-.3-.3-.2-.5-.4-.4-.2-.2-.2zm2-5.6-.2-.2-.5-.2-.7-.6-.4-.2q-1.5-1.2.8-.4l.5.1v.1l2.2.8 1 .4 1 .4 2.5 1.3 1.1.5.8.5.3.3h.1l.6.4.7.8.4.4.3.4v.3l.1.3-.2.3-.7.1-1.2-.5-.7-.3-1.1-.6-.6-.3-.2-.2-.6-.3-.5-.3-.2-.1-.8-.6-1.8-1.2-1-.7z"/><path fill="none" stroke="#000" stroke-linecap="round" stroke-linejoin="round" stroke-opacity=".5" stroke-width="__RESOLUTION__" d="M29 2h-1l.5.2-.7.3-.5-.2-3.9 1.8-.2.2-1.9-1v1.9l-.4.2M29 2l-.3.4-.2.4 1.5-.5.6-.3v-.2l-.7-.3-.7.3zm0 .1-.5.2.1.2m1.9-1.2v.6m0 .2h.3l17 8.5m-.4 0h.3l.7.3m-.1 0 2.1 1v20.6l-1.8.8-1.7 1-2.4 1.5-.4.2h0l-.1-8.9V22M5.4 36l-1.2-.5-.1-.1h0l-.3.1m0 0-1.4.2v-.1l-.4-.2-1.6-.9-.2-1.9V31m0-.2V27l.1-13.8 6-3 3.5.8h0L21 5.4m.4-2L27.9 0l2.8 1.1-.7.3m16 9.7.5-.3h.1l.2-.1.4-.2.4-.2m-18-7.2v.2zh-.1M43 10.6h.1l.8.2 1.3.7h.1l.7-.4M29.6 3.5v.8l-.1.5V5l-.2 1.7-.1 1.8m9.1 4.4 1.1-.5 1.8-.9.8-.3.8-.5h.1m-3.5 1.6-.2-.2m-5.9-3.7-.1-.1-.2-.2m-5.1-5.7.6.3 1 .5m-1.4 2-4.6 2-.2.1q-6.6 3-13.5 6.8l-.1.1-.7.4-.2.1M13 17l.2-.1.8-.4 2.8-1.2 1-.6m8.8-3.7q1.1-.7 2.5-.9l.4.2V5.1m0-1.8v1.5m12.1 8.7v1.7l-.1 2.4v1.7l-.1 1.2v7.2h0v1.6l.2 4v1.3l.5.3.6.4h.1l1.4.6m-.4-21.2-2.1-1.2h0l3.4-1.8m-15.9 8 1 .3h.4l.4.1h0l-.2-.1h-.2l-.3-.2v.1h.3l.1.1h.1m.2.1v3.3h.1m13.1-8.7-.4-.1m-2.4 5.8-.2.1m-.2-2.7.5-.2m3.6-3.4-.9.5h0m2 15.7.3-.1m-10.7-16 1-.5h-.1m0-.1L33.3 12l-3.7-1.7v6.9m4.1-1.9 2.2-1m-6.5-3.8-.2-.4m.1.4h-.4v-.1zl.3-.2m2.9 5.7 1.3-.7M31 16.5l1.4-.6M30 17.2l1-.6m-2.2 0v-.2zm0 1.2.5-.3.4-.2h-.2m.3-.2-.4-.2m0 .2.3.1m0 .1h.1V17m-.9 4.2.5-.2.8-.5.7-.4h0l-.1-.1h-.1m-1.8-.5h.2l-.7-.2m.7.3H29m-.4-2h.2m2.1 2.4h.1m0 3.4v1.9-.9h.1l.1 1.3 3.8-1.4 1.3-.4.4-.2.4-.1h0l.6-.5v-.3l.1-.4L41 21l.2-.1m0 0 .1-.1h.1m-11.1-.9.3.1m6.4 3.8.3-.2h0-.1m-.5.2h.3m-6-.3-.2.3v.3l.1.1v.1l.1 1v1l.1.6h0l.1-1.2m-.4-1.4h.1m-.1 1.8-.2-.2.1.4zm.1 0v.2zl.1-.1v-1.6m0 1.6v.2h.1V26m-.1.3V26m0 .1v.6l.1.1h0v-.7m0 .6v-.5.6h.1m-.1 3.4v1.1h.1l1.3-.7 8.1-4.7.9-.4M31 27h-.1v-.8m.1.7v3.5M29.8 29v-1.4m0 0V29m-2 15 1.6-.7 1.6-.7v-4.1h0m-.2-4.3v-1 .6l.1.4.1-.6v-1 .3h.1v-1.3H31v-.8.7l-.4.3.3.1h-.1v.1h.1l.1-.1v-.3h0m0 2V35l.1-.2m0 .5.2-.6.5-1 2.7-2.6 2.2-1 4.5-2.2m-10.2 4v-.2h0m0 0v.2h0v.7m0-.9v.2h0m0 0v-.1zm0 0v-.4m.1.1v.9l.1.3m-.1-1v.5h.1m0 .1v.3m10.2-5.1.2-.2M31 27v.1m17.3-14.3-3.1 1.6m-4 8.2.2-.2m-.2 0-1.9 1Q34.9 25 31.2 27m6.5-3.8 1.6-.8 2.1-1.1m-3.7 2v-.1m3.7-1.7-2.1.9-1.6 1-.4.2M32 33.5q4.1-2 9.3-4.2h.4m-.1-1-4 1.9M37 13.7l1.5-.8m9.5-2.5.6.3m1.4 1.4-1 .3-.5.2-.6-.2H49m1.8-.7-.8.4m-3.1-1.3 1.1-.4m-6.1 24.2v-.2l-.5.3zl.5.2m-.9-1.3-8.9 5.3 2.6-1 6.4-3.1m-10.2-1.2V35v-.1l.1.3m-.1.6v1.8h0m0 .9.1.3v.6l.4-.1.3-.2.6-.3M31 34.3v-.4m-.2-.1.1.5h.1m-.2-.2-.1.4m.3 1.4V35m0 2.8v-.1m0 .9-.2-.3v-.1l.1-.5m.1.9v.3zv-.9m0 2.2v-.1h-.1l-.1-.1.2-.1v.2m0 0 .1-.2v-1m-.1.3v.5M21.5 5.2l.6-.4 1.2-.5h0m-20 10.1V14h.1l2-1h0L8 11.7l-.7-.2h1.2l.7-.4h.7l-.6.2-.7.4-.5.3-2.3 1-.5.2m-2 1.1h.1m0 0h.4l1.5-1 1.6.7q.2.2.5.2l1.2.7 1.7.8 1.5.7 1.1.5m-9.1-2.5q-.3.1 0 .2h0l.8.4m17 8.5v-1l.1-.9M3.4 15.4l.4.2v-.9m.9 1.3-1-.4v.8l1.1.4M21.5 25l.1-1.4M3.4 15.4v.8l.4.2v1.9h0l1.1.9m16.7 9.3V25M3.7 18.3v3.2h0l1.3.8.2.1.3.1.9.4-1.4-.6h0l-1.3-.6v.8h0l2.8 1.3m5.3 1.8 3 1.5.4.2.1.1h0l.3.1 1.4.8.6.3 1.1.6 1.4.6 1.1.6.2.1V32m0-2.1v-1.3m-18-12.8v5.6l.1-.1v-5m3.8 7-.4-.1-.3-.2zl4.6 2.3m-8.1-4.2h-.3v-.1m0 .1.3.2h0m-.4.7v-.9h0zv.8zl.4.2m0 .8v-.8m0 .8-.4-.1v1.7l.4.3v-.6m-.4-1.5v3.3-1.6l.1 3.4.3.1v-3.2m.1 3.6.1.1h.1l1.7.9h.3l.2.1 1.1.6.2.1 1 .5h.2l1 .5q0 .4.5.3l1.4.7.2.1 1.2.6h.1l5.8 3 2.2 1.2.3.1v-.2l-5.7-2.9-.5-.2-.4-.2-2.8-1.4-4.3-2.2-3.9-1.9m0-.1v.2H4m-.4-.4v.2l.3.2v.8l-.4-.2h0v-.8h0v1.8-1m0-.8v-2.1m.4 3.1v.9l-.4-.1V32l.1.3V32l.3.3v-1.9m0 1.9v1.5l-.3-1.5q0 3.6-1.1 3.2m6.2 2 1 .6 1 .5.3.1 8.5 3.4 1 .4.3.1.8.4h.1l.1.8v.3h0l.6.2 2.2 1v.1h0l.8-.4.8-.3 1.6-.7m-6.2-5v-1.4M3.8 32.4v1.8-.3m-.4-3.5.1 1.7h0m23.2-21-.9.4-2.3 1.3-.4.3-.7.4-.2.2-3.1 1.8-4.2 2.3m1 .6 7.6-3.7 5.3-2.3m-7.4 9.1-1.4-.7-1.1-.6-2.5-1.3-.7-.4-1.1-.5-.3-.1h0L13 17m.2-.1 3.4-1.7m4.7 6.1 1-.4.3-.2m.1-.1 2.6-1.2 3.1-1.7M19 15.3l-.9.4-.7.4-1.6.8-1.2.6M8 11.9v-.2l.4-.2v.2m5 5.3-.2.1m2.5 1.3h.3m-1.3-.5.2-.1m-.2-.2-.3.2m10.3 5.4h-.1m-3-1.8 1-.4m-1 .4v.1l4-2M22 21.7l-.4-.2m0 9v-.7m-4.4-1.6 4.4 2.3m0 5.4v-.5m0 .5v1.5m-2.1 4.7-4.2-2.2 4.2 1.9 1.6.5.6.3v.4l-.9-.4m1 0-.2-3.6m-2.1 3.1 1 .4m-9.7-3.9-.7-.3-.4-.2M4 34.4l.1.3.3.7m-.4-.7v.6m4.6 2.3q-1.1-.7-3.2-1.7" vector-effect="non-scaling-stroke"/><path fill="none" stroke="#000" stroke-linecap="round" stroke-linejoin="round" stroke-opacity=".5" stroke-width="__RESOLUTION__" d="M.2 31v-.2m33.4-24 .8.2q3.3 1.1 6.9 3l1.5.8m1.4 11.1v-2.1l.1-4.7v-.3M29 19.6l-.5-.2-.5-.1-6.1 2.3-.2.1 2.4 1.4.4.1h.1l1.2-.7 3.2-1.2.6 6 .1.3m-1.2-8.2L43.8 11m-13.5 9.6.7-.1m4.5-2.5h.3m-6 11-.3 4.3h0l-1.3 9-.4 1.7M47 34.1l.5-2 .9-5.5.2-1.5.4-5.7v-2l-.7-4.7M25.2 5.4l4.2-2m-21.9 11 .3-.3.5-.2.2-.1 1-.5.3-.2 13.5-6.7.2-.2 1.8-.8M3.3 14H2v21.3m2.6-20.1 1.3.6.8.3 4 2 .2.1 1.1.6h.2l.3.1 1.1.6.7.4 2.6 1.3 1.1.6 1.3.6.1.1h.1l.6.3 1.5.8M2 14l-1.7-.8M4.7 16l6 2.7m-5.8.5 1 .8m1.4 7.9-.2-1.5v-.1m-.2-.5-.1-1.1m-3.1 5.7 4.8 2.1.6.3M7.3 28v-.1m17.2-4.6-.1 7v12.4l.1 1.4v1.2m.8-.2-.4-9m.6-6.3v5.5l.3 2.6m.3 6.8-.3-6.4M21.5 32v3.4" vector-effect="non-scaling-stroke"/></g><radialGradient id="a" cx="0" cy="0" r="819.2" gradientTransform="matrix(.01 .02 -.04 0 7.2 2.8)" gradientUnits="userSpaceOnUse" spreadMethod="pad"><stop offset="0" stop-color="#000" stop-opacity=".9"/><stop offset="1" stop-color="#000" stop-opacity="0"/></radialGradient><clipPath id="b"><path d="M1 1h65v52H1z"/></clipPath></defs><g clip-path="url(#b)"><g transform="translate(28.4 35.8)"><use xlink:href="#c" width="64.3" height="49.9" transform="translate(-27.4 -33.15)"/><use xlink:href="#d" width="18.3" height="10.1" transform="matrix(.5841 .7578 -.9077 .6315 -6.1 -34.8)"/><use xlink:href="#d" width="18.3" height="10.1" transform="matrix(.9549 .0599 -.141 1.2582 -21.05 -29.1)"/><use xlink:href="#e" width="18.3" height="10.1" transform="matrix(.903 -.3163 .3141 1.0602 -5.65 -20.75)"/><use xlink:href="#f" width="18.3" height="10.1" transform="matrix(.9076 .3029 -.445 1.1438 -10.65 -30.3)"/><use xlink:href="#f" width="18.3" height="10.1" transform="matrix(.9568 -.0064 -.0466 1.1048 -16.35 -23.1)"/><use xlink:href="#f" width="18.3" height="10.1" transform="matrix(.9565 .0241 -.0819 1.1027 -8.35 -30.65)"/><use xlink:href="#e" width="18.3" height="10.1" transform="matrix(.6393 -1.1299 1.517 .9832 -15.8 -5.5)"/><use xlink:href="#g" width="52.4" height="38.9" transform="matrix(.8977 0 0 .8981 -23.95 -22.65)"/></g></g></svg>