<svg xmlns="http://www.w3.org/2000/svg" xmlns:xlink="http://www.w3.org/1999/xlink" width="57" height="122" viewBox="0 0 57 122"><defs><g id="c"><path fill="#d8ca7c" d="M3.7 10.9q-1.8 1-2.3 1-.6-.2-.8-1-.2-.7.1-1.7t1-1.5q.4-.5.9-.5V7q0-.9.4-1.8T4.2 4t1.3 0L7 5.8l.5.6.3-1Q8.5 2.9 9 2L10.1.7q.7-.4 1.2 0t.5 1.3v.2q.5-.5 1-.5.7-.2 1.1.4l.2.6v.9l-.2.7-.5 1q-.5.7-2.5 1.7l-.8.4q-1.8.8-1.8.4l.4-.7.3-.3q1.1-1.3 1.6-2.3.4-1.2 1-2l.3-.3-.3.4q-.6.7-1 1.9-.5 1-1.6 2.3l-.2.3-.5.7q-.5.4-.8.4L7.4 8v.1q-.4.4-.9.6 0 .3-1.7 1.4zM2.6 7.2h.3l1.2.7q.5.5 1.6.7H6q.5 0 .5.2 0-.2-.5-.2h-.3q-1.2-.2-1.6-.7l-1.2-.7zm4.8.9-.2-.7v-.2l.2-.8-.2.8v.2z"/><path fill="#ffb300" d="m11 7 .3.2q1.8 1 2 3.7l-.2 2.8-.7 4.8-.2.6-.1.7q-1.3 6.2-3.6 7.7Q6 28.9 4 24.3l-.1-.2-.4-.9-1.3-3.7-.3-1.7v-.7q-.2-2.8 1.3-5.6l.4-.6 1-.7q1.8-1 1.8-1.4.5-.2.8-.6h.2q.3 0 .8-.4 0 .4 1.8-.4zM8.5 18.9q2.5-1.6 4.7-5.1-2.2 3.5-4.7 5m2.1 2.1q-2.3 2.3-5.2 2.4H3.6h1.7q2.9-.1 5.2-2.4m-6-1-2.2-.3zm4.7-5Q4.3 20 2 17.9q2.3 2 7.1-2.8"/><path fill="none" stroke="#696316" stroke-linecap="round" stroke-linejoin="round" stroke-width="1" d="M3.7 10.9q-1.8 1-2.3 1-.6-.2-.8-1-.2-.7.1-1.7t1-1.5q.4-.5.9-.5V7q0-.9.4-1.8T4.2 4t1.3 0L7 5.8l.5.6.3-1Q8.5 2.9 9 2L10.1.7q.7-.4 1.2 0t.5 1.3v.2q.5-.5 1-.5.7-.2 1.1.4l.2.6v.9l-.2.7-.5 1q-.5.7-2.5 1.7l.4.2q1.8 1 2 3.7l-.2 2.8-.7 4.8-.2.6-.1.7q-1.3 6.2-3.6 7.7Q6 28.9 4 24.3l-.1-.2-.4-.9-1.3-3.7-.3-1.7v-.7q-.2-2.8 1.3-5.6zm3.8-2.7L7.4 8zq.3 0 .8-.4m-.9-1.4-.2.8v.2l.2.7m0 .1q-.4.4-.9.6"/><path fill="none" stroke="#b0a517" stroke-linecap="round" stroke-linejoin="round" stroke-width="__RESOLUTION__" d="m3.7 10.9 1-.7q1.8-1 1.8-1.4 0-.2-.5-.2h-.3q-1.2-.2-1.6-.7l-1.2-.7h-.3m9.3-5-.3.4q-.6.7-1 1.9-.5 1-1.6 2.3l-.2.3-.5.7q0 .4 1.8-.4l.8-.5" vector-effect="non-scaling-stroke"/><path fill="none" stroke="#f27c06" stroke-linecap="round" stroke-linejoin="round" stroke-width="__RESOLUTION__" d="M13.2 13.7q-2.3 3.5-4.8 5m-4.8 4.5h1.7q2.9-.1 5.2-2.4m-8.1-1.3 2 .4M2 17.8q2.3 2 7.1-2.8" vector-effect="non-scaling-stroke"/></g><g id="b"><path fill="#bbaf2b" d="M25.7 8.1 28 2.9q1.9-4.4 4.7-.8 2.8 3.5 6 11.7l.4 1q.9 5.7-1.2 10-1.9 2.5-4 2.7-2.1 0-4.3 1l-2 1.5-.4.3q-2.6 3.4-7.5.4l-3-2.2q-6-4.5-11.8 1.1.5-7.6 5.5-10.2t9-4.2l1-.4-.1 1.4q-1.2 2.3 5.6 2l3.8-.2q2-2 2.4-5-1.5-3.9-4.2-6.2z"/><path fill="#978e24" d="M25.7 8.1 28 6.8q2.6 2.3 4 6.2-.5 3-2.4 5l-3.7.3q-6.9.2-5.7-2v-1.6q3-1.7 5.4-6.6m-6 22.7q5 3 7.5-.5l.4-.3 2-1.5q2.1-1 4.3-1 2.1-.2 4-2.7 2.1-4.3 1.3-10L44 32.3h-.1l.1.5.3 2-4.3 1.9 4.7 1.5.4 3.6-2.5 2.3-2.6 2.7-1.2 1.7-.9 1.8q-.5 1-.7 2.2-.5 1.8-.5 3.6.1 1.6.6 3.2.5 1.5 1.7 2.4l1.8 1.6 1.3 2.4 1 3.2.4 3-.2 3.1-.5 1.7q-.7 2-2.4 3-1.5.8-3.2.8-1.7-.2-3.2-.7-1.1-.2-2.2-.9t-1.6-2.1q-.6-1.6-1.6-3-1-1.6-3.1-1.7v-1.3l-.6-31.7q-1.9-5.9-5.2-8.4m14 9 6.3-3zm2.4 26.6-4.8 2v-5.2 5.2zm-4.8 2-5.9 2.5z"/><path fill="#5f5314" d="M4.9 29.6q5.8-5.6 11.7-1.1l3 2.3Q23 33.2 25 39l.6 31.8-.4.1h.4v1.2l.6 31.2-1.2 1.2-.5.9q-.5.7-1.2 1l-1.3.4q-1.1-.2-1.7-1.5l-2-3.4-.7-1.3-2-3.3q-.8-1.7-3.2 0-1.7 1.2-3.4 1-1.7-.3-2.7-1.7l-1.6-1.8q-1.3-1.2-1.5-3.2l-.5-3.4q-.3-1-1.1-1.4l.3-.5.2-.8.1-.3-.5-.3V84l.7-13.5 2.3-2.4 2-1.5 1-.4h1.2l.2.2.4.8q.4 1.8.5 3.7v.2l8.7-7.7L3.3 51.2V51L4 34.4zm13.9 63.3-7.6-3.1.1-14.2 1.3.5-1.3-.5-.2 14.2zm2-23.8 4.3 1.8zM9 88.6v.6l.3-.4zl-7-3.4zm2.3 1.2-2-1zm-8-17.5 8.1 3.3z"/><path fill="#0e0903" d="M44 32.3v.5l-.1-.5z"/><path fill="#7e771f" d="m45.2 41.8.3 3q-.4.7-1.1 1.3-1.4 1-2 2.8l-.4 2.5q-.4 1.5-.3 3.1 0 1.6.3 3.2.4 2 2.1 2.5.5 0 1-.4l1.4-1.2.7-1 1.3 10.8-.4 15.9 3.2 5.3 2.3 17.2-7.6 3.8-.6-.3q-.1-1.5-1-2.7Q43 105 43 102l.1-.6q.5-1.5 1.8-2.6l1.3-1.6 1.4-2.3q1.8-3.8-.4-7.3l-1.6-1.9-2.4-1.4-.9-.4-3.6-1q-1.6-.2-2.7.7-3.1 2.1-5.1 5.5-1.7 2.9-2.5 6.3l-1 4.5-.5 1.6-.8 1.7-.6-31.2q2 0 3.1 1.7 1 1.4 1.6 3 .5 1.5 1.6 2.1 1 .6 2.2 1l3.1.6q1.8 0 3.3-.8 1.6-1 2.4-3l.5-1.7.3-3-.5-3.1-1-3.2-1.4-2.4-1.7-1.6q-1.2-1-1.7-2.4-.5-1.5-.5-3.1-.1-1.9.4-3.7.2-1.2.7-2.2l.9-1.8 1.3-1.7 2.5-2.7zM33 92.1q1.7-3.2 3.3-4 3.7-2.2 2.3 2.2-1.3 4.3.1 5.1t.2 2.1-4.5 1.4-2.5-4q0-.8 1-2.8"/><path fill="#695c1b" d="m45.6 44.8 1.6 12.8-.7 1-1.4 1.2q-.5.4-1 .4-1.7-.5-2.1-2.5-.3-1.6-.3-3.2t.3-3.1l.5-2.5q.5-1.7 1.9-2.8.8-.6 1.1-1.3m.5 65.9-9 4.4-1.2.5-3.4 1.9q-2.8 1.5-6 2l-.3-16.2.8-1.7.5-1.5 1-4.5q.8-3.5 2.5-6.4 2-3.4 5.1-5.5 1.1-.9 2.6-.7l3.7 1 .9.4 2.4 1.4 1.6 1.9q2.2 3.5.4 7.3l-1.4 2.3-1.4 1.6q-1.2 1.1-1.6 2.5l-.2.7q-.1 3 1.5 5.5.8 1.2.9 2.7zM32.9 92.1q-1 2-1.1 2.8-.9 4 2.4 4t4.6-1.4-.2-2.1 0-5.2T36 88q-1.5.9-3.2 4.1"/><path fill="#4f4511" d="m26.5 119.6-3.2-.5-3.2-1.7-1.1-.7-18.5-10 1-19.9q.8.4 1 1.4l.6 3.4q.2 2 1.5 3.2l1.7 1.8q1 1.4 2.6 1.7 1.7.2 3.4-1 2.4-1.7 3.3 0l1.8 3.3.9 1.3 1.8 3.4q.6 1.3 1.8 1.5l1.3-.4q.7-.3 1.2-1l.6-.9 1.1-1.2z"/><path fill="#b19741" d="M1.5 86.8V85l.5.5-.2.8zm8.4-15.7v-.2zm15.2-.1.4-.1v.1zM9.2 88.8l-.2.4-.1-.6z"/><path fill="#696316" d="M1.6 84.9V84z"/><path fill="#463e0f" d="m2.3 70.6 1-19.3 15.3 12-8.7 7.8v-.2q-.1-1.9-.5-3.7l-.4-.8-.2-.2H7.6l-1 .4-2 1.5z"/><path fill="#595c10" d="m2.1 85.2-.1.3-.4-.5z"/><path fill="none" stroke="#816629" stroke-linecap="round" stroke-linejoin="round" stroke-width="1" d="m39.2 14.8-.5-1q-3.2-8.2-6-11.7-2.8-3.6-4.7.8l-2.3 5.2q-2.3 5-5.3 6.7l-1 .4q-4.1 1.6-9 4.2T4.9 29.6m34.3-14.8L44 32.3"/><path fill="none" stroke="#4f3f0b" stroke-linecap="round" stroke-linejoin="round" stroke-width="1" d="M44 32.3v.5l.3 2m.4 3.5.4 3.5.4 3 1.7 12.8 1.3 10.8-.4 15.9 3.2 5.3 2.3 17.2m-7.6 3.8-.6-.3"/><path fill="none" stroke="#5c4e1d" stroke-linecap="round" stroke-linejoin="round" stroke-opacity=".4" stroke-width="1" d="M44.3 34.8 40 36.7l4.7 1.5M40 36.8l-6.2 3m-2.4 23.4v5.2l4.8-2m-10.7 4.5 6-2.5m-19 7.8-1.2-.5-.2 14.2 7.7 3.1m6.3-22 .4-.1m-.4.1-4.4-1.8m-18.4 16-.6-.3h0m7.6 3.9-.3-.2-7-3.4m7.1 3.6 2 1m.1-14.2L3 72.3"/><path fill="none" stroke="#503d1d" stroke-linecap="round" stroke-linejoin="round" stroke-width="1" d="m.5 106.7 1-19.9V85m.1-1 .7-13.5 1-19.2m0-.2L4 34.4l.8-4.8"/><path fill="none" stroke="#43391d" stroke-linecap="round" stroke-linejoin="round" stroke-width="1" d="m1.7 106.9-.4-.3m18.8 10.8-1.2-.7m7 2.6-2.2-1.8m-11.5-4.7-1.2-.7m4.7 1.3-2 .9m-7.4-4-.9-2.7m45.6-.2-.5 1.3m-3.1.6.1.8m-8.3 4.6-3-.6m5.3-1h-1.2m5.1-2.7-1.6 2.2m-13.5 5.7-2 1m4.4-2.3-.7.4m3.1-1.7-.9.5"/></g><clipPath id="a"><path d="M1 1h55v120H1z"/></clipPath></defs><g clip-path="url(#a)"><g transform="translate(28 108.05)"><use xlink:href="#b" width="54" height="119.8" transform="translate(-27 -107.05)"/><use xlink:href="#c" width="14.7" height="28.3" transform="translate(2.15 -52.8)"/></g></g></svg>