<svg xmlns="http://www.w3.org/2000/svg" xmlns:xlink="http://www.w3.org/1999/xlink" width="62" height="34" viewBox="0 0 62 34"><defs><clipPath id="b"><path d="M1 1h60v32H1z"/></clipPath><path id="a" fill="#258979" fill-opacity=".2" d="M9.9-1.1q1.2.6 1.2 1.5T9.9 1.8t-2.8.6-2.8-.6T3.2.4q0-.9 1.1-1.5t2.8-.5zm-16-5.1q1.5 0 2.6.5 1 .6 1 1.5t-1 1.4-2.5.5-2.6-.6q-1-.5-1-1.3t1-1.5zm-.5 12.5q-1.8 0-3.2-.8-1.3-.7-1.3-1.8t1.3-1.9 3.2-.7 3.2.7Q-2 2.5-2 3.7q0 1-1.3 1.8t-3.2.8" transform="translate(11 6.25)"/><use xlink:href="#a" id="d" width="22.1" height="12.5"/><g id="c"><path fill="#367ae9" d="M57 17q-1.9-.7-3.6-1l-2.4-.6-2.5-1.2Q47 13.4 45 13l-3.3-1-2-.5-3.3-1-3.3-.8-3.8.1-2 .7-3.2 1.2-3.6 1.1q-1.8.6-3.7.7l-3.1.4-3.9.9q-1.8.5-3.1 1.8L5 18.2l-5-2.6L29.9 0l29.8 15.6z"/><path fill="#3183c8" d="m5.1 18.2 1.7-1.6q1.3-1.3 3.1-1.8l3.9-.9 3.1-.4q2-.1 3.8-.7l3.4-1.2 3.3-1.1 2-.7 3.8-.1 3.3.8 3.3 1 2 .6 3.4.9q1.8.4 3.3 1.2l2.5 1.2 2.4.6q1.7.3 3.6 1l-4.7 2.4q-21.4-6.3-42.1 1.5z"/><path fill="#23a164" d="M24.4 28.3q5.7-1.3 11 0L29.8 31z"/><path fill="#2e8ab2" d="M10.2 20.9q20.7-7.8 42.1-1.5l-4 2Q31 18 15.5 23.7z"/><path fill="#2a9199" d="M40.3 25.7q-4.5-1.9-9.8-2-5.5 0-10.2 2.4l-4.9-2.5q15.5-5.6 33-2.1z"/><path fill="#269a7b" d="M20.3 26.2q4.7-2.6 10.2-2.4 5.3 0 9.8 1.9l-5 2.6q-5.2-1.3-10.9 0z"/></g></defs><g clip-path="url(#b)"><g transform="translate(30.9 16.55)"><use xlink:href="#c" width="59.7" height="31.1" transform="translate(-29.9 -15.55)"/><use xlink:href="#d" width="22.1" height="12.5" transform="translate(-7.8 -2.65)"/><use xlink:href="#d" width="22.1" height="12.5" transform="translate(-19.1 -5.85)"/><use xlink:href="#d" width="22.1" height="12.5" transform="translate(.35 -9.85)"/><use xlink:href="#d" width="22.1" height="12.5" transform="translate(-10.4 -11.05)"/></g></g></svg>