<svg xmlns="http://www.w3.org/2000/svg" xmlns:xlink="http://www.w3.org/1999/xlink" width="117" height="135" viewBox="0 0 117 135"><defs><g id="d"><path fill="#f9eebb" d="M21.9 8.3 28 9.7l-6.5 2.5zM13.2 0l1.2 4.5-5.7-.6z"/><path fill="none" stroke="#f9eebb" stroke-linecap="round" stroke-linejoin="round" stroke-width="2" d="M15.2 8.5q1.4 2-.6 3.3-3 1.7-6.5.6-3.4-1.5-1.9-3.9l.7-.7q3.3-2 7 0 .8.2 1.3.7m-.8-3.8-4-.4q-4.1.2-6.9 2h-.1Q.9 7.8 1 10.5q0 1.1.9 2.3 1.4 1.7 4 2.5 6 1.7 11.4-.4 3-1.2 3.6-3.6.6-2.6-1.7-4.5-2-1.5-4.8-2.1"/><path fill="none" stroke="#600" stroke-linecap="round" stroke-linejoin="round" stroke-width="__RESOLUTION__" d="M68.9 71.4 32 90.9l-12.1-12 36.8-19.5z" vector-effect="non-scaling-stroke"/></g><g id="b"><path fill="#8d865f" d="m116.6 17.9-.1-.1zM79.9 1.8l-.2.2h-.1z"/><path fill="#694416" d="m121.6 62.7-6.6-5.9-47.3 24.9-.4 3.8.7.5h-.1v9.6l-.2-.3-1.9-3.9q-1.6-3.7-1.7-8l59.1-31zm-43 32.6 2.2 2-.1.7v2q0 8.2.8 28.3l-4.2 2.3-.5.2q-.6-17.7-5.4-28.8l-.5-1.2-.2-.4 2.7-1.7.2.4 1 2.3.1.3q2 4.8 3 5.4v-3.6l.3-2.9.3-4.5v-.6zm8.7 7.9.1.1.7-.3h.1l.6.2 1 .9q1.1 1.3 1.1 3 0 2.3-.8 6.5-.9 4.9-1.4 10.9l-.1.1-.8.5-.1-.1-1.3.8-.1-2.6q0-2.2.8-6.5l.7-5.1-.5-2.5q-.6-1.9-1.4-1.8-.7 1.5-.7 3.7l.3 7.5v7.8l-1 .4.1-1.5q-.6-8.5-.6-11.8 0-8.4 2.8-10 .2-.2.5-.2m6.8-3.4 3.7-1.9v.2l.8 15.3-.6 3.5-.8 3.2-2.1 1-1 .6-1.5.8-2.3 1.2q4.2-13.6 4.2-18.1l-.3-5.3zm8.7-4.5 5.3-2.8-.1.6q-.6 3.7-1.3 11.3l-1.1 11.3-3.7 1.9q1.8-12.5 1.8-19.3 0-1.5-.7-2.6zm8.4-4.4 2.9-1.5-.2.5-.5 2.4q-.8 3.4-.7 8.3 0 2.3-1.3 12l-1.3.7-1.2.6zm-52-5 2.5-1.2-.1 2.6q0 9.7 1.2 14.8l.5 1.7 3.8 10.5.8 2.6.1.4-.2 15.9q-.4-3.4-1.5-6.4-2.2-5.2-6.2-7.7l-.1-5.2q1.4 2.4 2.1 2.6.8-.7.8-2.2 0-4.7-.7-10.3l-.3-2.2q-1-7.3-2.3-9.1h-.2l-.1-6.5zm9 15.7 1.3-.7.1.5.3.8.2 3.8q0 3.8-.9 4.4-.7-1.2-1.5-3.2l-1.2-4.2q-1.2-4.3-1.2-5.5l.3-1.7q1.2.3 2.2 2.5l.1.3v3zm20.5 5.9-1 17.5zm-17.5 26-.4-6.2-.5-9.2q0-3.5.4-4 1.5 2.4 2.9 18.1l-1.6.8zm22.8-17-.2 5zm-24.5 17.8-1.8 1-.2-2.2.1-15.8q1.3 5.7 2 17m-4.9 2.4-2.5 1.4-1.1.6-1 .4-.3-14.3.1.1q3 3.7 3.7 6 .4 1.3 1.1 5.8"/><path fill="#774d1a" d="m68 86 7.7 6.9zm12.8 11.3 6.5 5.9q-.3 0-.5.2-2.8 1.6-2.8 10 0 3.3.6 11.8v1.5l-3.1 1.6q-.7-20.2-.8-28.3zM88 103l6-3.2.1.5.3 5.3q0 4.5-4.2 18.1l-.2.1-.7.4-.5.3h-.2q.5-6 1.4-10.9.8-4.2.8-6.4 0-1.9-1-3.1l-1.1-1zm9.7-5.1 5-2.6.2.4q.6 1 .6 2.5 0 6.9-1.7 19.4l-4.7 2.5.8-3.2.5-3.5-.7-15.3zm10.3-5.4 3.1-1.6-2.3 23-1 .5-1.5.8-.8.5 1.1-11.4q.7-7.5 1.3-11.2zm6-3.1 3.5-2v.1l-3.8 23.8-2.5 1.4q1.3-9.8 1.3-12.1 0-5 .8-8.2l.5-2.5zm-52.3-4.7 2.3-1.3q.2 4.3 1.8 8l2 3.9.1.3v3.1l-.2-.3q-1-2.2-2.2-2.6l-.2 1.8q0 1.2 1.2 5.5l1.3 4.2q.7 2 1.4 3.2.9-.6.9-4.4l-.2-3.8-.3-.8-.1-.5 1-.6.3.4.5 1.2q4.8 11.1 5.5 28.8l-3.1 1.5q-1.4-15.7-2.9-18-.4.5-.4 3.9l.5 9.1.4 6.3-1 .5-.5.3q-.6-11.3-1.9-17l-.2-.5q-.3-1.6-.7-2.7l-3.8-10.5-.5-1.6q-1.2-5.1-1.2-14.8zm11.7 14 4.9-3.2v.6l-.4 4.5-.2 2.9v3.6q-1-.6-3-5.3l-.1-.5-1-2.2zm12 27.6.1-7.8-.3-7.5q0-2.2.8-3.7.7-.1 1.3 1.8l.5 2.5-.7 5.1q-.8 4.3-.8 6.5l.1 2.5zM68 135.4l-2.9 1.5q-.7-4.6-1.1-5.7-.6-2.4-3.6-6.1l-.2-.2-.1-5.7q4 2.5 6.2 7.7 1.1 3 1.5 6.4zm-.1-23v5zm-12.9 12h.3l1.4 9.2.5 3.8-.2-.2-5.2-2.9q.8-6.8.8-8.6zm4.3-31.7.2-.1q1.3 1.8 2.3 9.1l.3 2.2q.6 5.6.6 10.3 0 1.5-.7 2.2-.7-.2-2.1-2.7l-.4-12.1zm-13.5 36.6v.4l.2 1.3-1.7-1 .5-.2zm22.1 6-.2-.7zm-.2-.8v-1.3z"/><path fill="#330" d="m75.7 92.9 2.5 2.3.3.1-.3.2-4.9 3.2-2.7 1.7-1.1.6-1.3.7.3-4.1zm-50.2 30.3v-.4l12.6 7.1-.3.3zM59 142.4l-5.1-2.9.1-.5 5.2 3z"/><path fill="#655007" d="m110 113.3 1.2 1.4-.8 1 1 .6v4.4l-1.1.5-3.5-2 .2-1.1-.4-2.3-.3-.5 1.5-.8 2.5 1.4.1-.2-.1.2-2.5-1.5 1-.5zm-3.2 6.3 4.3 2.5-1 2.3-1.1 2.3-1-.2-3.2-1.9.7-1 1.1-2.8zm-3.7 7.2 3.5 2v1.3l-3.7 1.9-1-.6v1.1l-3.7 2-1-.6v1.1l-3.7 2-1.2-.7v1.2l-3.6 2-1-.6v1.1l-3.7 2-1.2-.6v1.1l-3.6 2-1-.6v1l-3.7 2-1.2-.6v1.2l-3.6 2-1-.6v1l-3.8 2-2.5-1.4v-.1l-2.1-2.4-.4-.2v-.2l1.6.7 2.1-.2 2.1-1.1h.1l2.9 1.7v.2-.2l-2.9-1.6v-.2h.2l1.1-1.2 2.9-1.4 4.7-2.6 4.7-2.4 3.4 1.9v.2-.2l-3.4-2 .9-.4 1.4-.2 2.1-1.2.7-.5.7-.7 3.7-1.9 3.4 1.9v.1-.1l-3.4-1.9 4.8-2.6 4.6-2.3h.3l3.3 1.8v.3-.3l-3.3-1.8.9-.2 2.2-1.1zm-5.9 7.1v-.2l-3.5-2 3.5 2zm-19 10v-.2l-3.5-2 3.5 2zm-4.9 2.4-3.3-2zm11.2-9.4 3.2 1.8v.2-.2z"/><path fill="#1e1e00" d="M106.8 119.3v.3l-.2 1.2-1.1 2.8-.7 1-1 1.6-.7.6-1.4 1.3-2.2 1.2h-.9l-.3.1h-.8l-1.7-.7-4.6-2.5-.8-1.3-.3-.3-.1-.8.2-.1 2.3-1.2 1.5-.8 1-.5-.3.8.3-.8 2.1-1.1 4.7-2.5 3.7-1.9.8-.5.3.5.4 2.4zm-30 11.5.4-.2 4.2-2.3 3-1.6 1-.5.9-.5 1.3-.6.9-.5.3.5.3 2.3-.2 1.6-.2 1.2-1 2.8-.4.4-1.3 2.1-.8.8-.7.6-.7.5-2.1 1.3-1.4.1h-.7l-1.7-.7-4.6-2.6-1.1-1.7-.1-.7 1.6-.7zm18.2-3.2.8 1.2zm-2.4-4.4v-.6zM60 147.6l.4-.2V143l-.2-.9 1.8-3.7.5-.3 2.5-1.3 2.9-1.6 2-1 .4-.2h.1l.3.5.3 2.3-.3 2.5v.3l-1.1 2.8-.8 1.1-.9 1.3-.8.8-1.1 1.2h-.2l-.1.1-2.1 1.1-2 .2zm16.8-16.2.4-.8zm0 5 1.1 1.7z"/><path fill="#3a3607" fill-opacity=".5" d="m110 124.4 2.3 1.3-3.5 7.5L60 157.5l-46-24.2 9-5.8.3.2-.6.8 2.1 2.4 17 9.6.2.2 19.5 11 .9-1.1 2.5 1.4 3.8-2v-1l1 .5 3.6-1.9v-1.2l1.2.6 3.7-2v-1l1 .5 3.6-1.9v-1.1l1.2.5 3.7-1.9V139l1 .5 3.6-1.9v-1.2l1.2.6 3.7-1.9V134l1 .5 3.7-1.9v-1l1 .5 3.6-2v-1.2l-3.4-2 .7-.6 1-1.6 3.3 1.9.9.3z"/><path fill="#ae890d" d="m23 127.4-.4-.2v-4.4l1.1-.5 1.8 1 12.3 7 16.2 9.1 5.1 2.9 1.3.8v4.3l-.4.2-.2.1-.5.3-36-20.4z"/><path fill="#866e08" d="m25.5 122.8-2.9-1.6.9-2 12.9 7.3L41 129l2.5 1.3.8-.3 1.7.9 5.8 3.3 5.3 3h.1l3.3 1.9.9-.4.6-.4-1.8 3.8-.9-.2-5.2-3-.1.4-16.2-9.2.4-.2 15.9 9-16-9zm63.9 1.4.5-.4.2.8zm-27 26.3-.9 1.1-2.1-2.4-36.7-20.8.6-.8 36 20.3.5-.2.2-.1-.1.2.4.2zm8.4-16.1-.1.2-.3-.4zm-.1 5-.1.2zm-4.9 7.6h.1v-.1zm-5.9.8"/><path fill="#93671e" d="m23.5 119.2-3-1.7q2 .1 5.2 1.3l2.8 1 1.4.8 4.6 3.3q1.1 1.1 1.9 2.5zm-12.7-8.6v-2.8l2.4 1.3 27.9 15.6 2.2 1.2v.4l.1 2.4.1 1.8L41 129q-1.1-4.5-11.3-9.8l-3.8-1.9q-5.6-2.6-10.2-4.5L12 111zm44.1 9.4.1 3.2q-1.5.1-3.9 1.1l-.1.1-.9.3q-1 .5-2.1 1.7l-1 1.1-1.2 1.8-1 .5-.2-2.2-.2-1.5-.4-.4 3.6-1.9 2.9-1.5 2.4-1.2z"/><path fill="#a07121" d="m20.5 117.5-9.7-5.5v-1.4l1.2.5 3.6 1.9q4.7 1.8 10.3 4.4l3.8 1.9q10.2 5.3 11.3 9.8l-4.6-2.6q-.7-1.5-1.9-2.7l-4.6-3.2-1.4-.7-2.8-1.2q-3.2-1.1-5.2-1.2M14 70.2l.3-.2 2.5 1.4 2.1 14.8 1 7.8-1 1.7-.1.1v-.1L19 94l-2-9zM26.5 104 25 89.7l-.2-1.7-1.4-13.2 3.1 1.7 1 14.6.5 7 .4 5.6.1 1.4zM50 88.8l.1.1 6.1 8.3.5 10.9.1 3.9-.5 12.3q0 5.1.4 9.3l-1.5-9.1H55v-1.3l-.1-3.2v-.1l-.2-2.5-.4-3.7v-.9l-.1-.1-.2-2.2-.5-.3-.7-.5-1.2-.6-.2.3-.2-2-.2-2.7zm5 34.4v1.3l-2.5 1.3-6.6 3.5h-.1l1.2-1.8 1-1.1q1.1-1.2 2.1-1.7l.9-.3h.1q2.4-1.1 3.9-1.2M43.5 85.4l-.2 2.3.8 13 .7 12 .1 1.7-2.5-1.5v-.5l-1.4-14-1-14.7zm-12.4-6.5 5.1 2.7 1.3 15.3.8 13.8-3.5-2-2.6-1.5-.2-3.6-.5-10.1zm2.4 8.2 1.3 21.6zm10.8 43-.7.3-.2-1.7-.1-2.4v-.4l.2.2v-.1l.5-.3.4.4.2 1.5.1 2.3z"/><path fill="#c93" d="M10.8 107.8v-.2l.1-.1 2.1 1.2.3.1-.1.3zM41 124.7l1.4.8.9.5.2.2v-.1l-.2-.1z"/><path fill="#c4972f" d="m10.9 107.5 1.9-2.9 2 .9.3.2-2.1 3zm2.9-4.4 3.2-4.7.6-1 2.1 1.3.3.2-.1.2-4.1 5.7-.2-.1-.1-.2q-.9-.9-1.7-1.4M20 94l1.3-2 2.4 1.3.1.3-2.3 3.2q-1-1-2.6-1.1zm32.9 15.8.7.4-10.2 15.7-1-.6 2.2-3 .9-1.4q1.6-2.8 1.6-5.2h.1l1.6-2.5 1-.4 1.1-.9q1.2-1 2-2.2"/><path fill="#ce9f31" d="m12.8 104.6 1-1.5q.8.5 1.7 1.4l.1.2h.2l-.7 1-.3-.2zm11.8-1.6 1.9 1 2 1.1.3.2v1.9q0 1.9-2 1.9h-.2q-1.7-.1-4.9-2l-2.1-1.5zm26.8 6.4.1-.2 1.3.7q-.8 1.1-2 2.1l-1 .9-1 .4zm-13.1 1.4 1.9 1 1.2.8q-1.7.5-1.7 1.9v.5q.4 1.5 2.5 4l.3.4 1.3 1.3 3.3-4.8q-.1 2.3-1.7 5.1l-1 1.4-2 3-1.4-.7.8-1.1q-2.5-2.2-8.4-5.5l-.4-.2-10.6-6.2q-3.7-2.1-7.5-3.5l2.3-1.2q13.5 6.9 17.8 9.4l.6.4q4.1 2.4 7.4 5l.1-.1-1.6-1.3-4.2-4.3-.3-.3-.1-.1q-4.5-4.6-5.2-7.2l-.5-1.7 1 .5 2.5 1.5zm5.5 9.9-.7 1zm-.8 1.2-1.2 1.7zM17.7 97.4l1-1.6.2-.1q1.6.1 2.6 1L20 99l-.2-.2z"/><path fill="#8d631d" d="m17 98.4-4.5-27.1 1.5-1.1L17 85l2 9-.2 1.7v.1l-1.2 1.6zm-.2-27L20 73l3.4 1.8L24.8 88l.2 1.7 1.5 14.3-1.9-1 .1-.2-.9-9.2v-.3L21.3 92 20 94l-1.1-7.8zm4.4 12.5L20 73zm5.2-7.5 4.6 2.5.4 14.6.5 10.1.2 3.6-1-.5-2.4-1.4-.3-.2-.1-1.4-.4-5.6-.5-7zM50 88.8l1 16 .2 2.7.1 1.8-2.5 3.9-1.7 2.5-2.2-1.3-.1-1.7-.7-12-.9-13 .3-2.3 5.5 2.8zm6.6 44.8q-.4-4.2-.4-9.2l.6-12.4-.1-4-.5-10.8 3.3 4.5.4 12.1v5.3l.2 5.8.4 14.3-3.3-1.8zm-7.1-32L49 88.3zm-13.2-20 3.8 2 1 14.7 1.3 14.2v.5l-1-.5-1.2-.7-1.9-1.1-.8-13.8zm4 22.8-.1 7.3z"/><path fill="#794a1c" d="M12.5 71.3 9.6 53.8l.3-.3 1.6-2.7q.3 7.4 2.5 19.4zM15 45.2h1.3l.6.3L20 73l-3.2-1.6-3.4-23.6zm5.6 2.5 5.8 3.2q.8 4.3.8 8.7-.9 6.6-.9 12.2l.2 4.7-3.1-1.7zm8.6 4.8 5.8 3.3v12l1.3 13.8-5.2-2.7v-.6q0-3.4-1-14.6zm9.7 5.5 5.2 2.9.1.2q.5 3.4.5 7.6 0 4.9-1.2 16.7L40 83.5q-.6-11-1-25.5m9.4 7.9 1.5 1.8.5 1-.4 12.9.1 7.2-1-.5zm7.4 18.5 3 1.8h.4l.2 6.5.3 9-3.4-4.5z"/><path fill="#5b0b0b" d="m9.9 53.5-4.6 2.4.2-2.1L8.1 47l1.8-1.2 2-.5 3.1-.2-1.6 2.6-1.9 3z"/><path fill="#86521e" d="m16.9 45.5 3.7 2.2 2.8 27.1L20 73zm9.5 5.4 2.8 1.6.8 11.2q1.1 11.2 1.1 14.6v.6l-4.6-2.5-.2-4.6q0-5.5.9-12.2 0-4.4-.8-8.7m8.6 4.9 3.9 2.2q.5 14.4 1.1 25.5l-3.7-1.9L35 67.8zm9.3 5.3 4 4.8.7 22.3-5.5-2.8q1.3-11.8 1.3-16.7 0-4.2-.5-7.6m6 7.6 1.1 2 1.4 3.7 1.1 4.3.8 5.2 1 .5.5 12.8-6-8.3-.2-.1-.1-7.2zM11.5 50.9l1.9-3 3.4 23.6-2.6-1.4-.2.2q-2.2-12-2.5-19.4"/><path fill="#aaa273" d="m58.8 86.2.4-.2v.2zm-34 16.6v.2l-.1-.1zM54.9 120"/><path fill="#000" d="m75.7 93-7.2 4.6-.3 4v.1h-.3V86.1z"/><path fill="#503f05" d="m71.4 133.6.7-.4.1.6 1.1 1.7 4.6 2.6 1.7.8.7-.1-.9.4-4.7 2.6-3.9-2.3h-.1l.3-2.6-.3-2.3.1-.2 8.6 4.8-8.6-4.8-.4-.2v-.1zm17-9 .2-.1h.2l.5-.3.8.4.3.3.8 1.3 4.5 2.5 1.8.8.8-.1-4.5 2.3-4.9-2.7-.2 1.2-1 2.8-.4.4-1.3 2.1-.8.8 3.7-2 4.8-2.6L89 129l.2-1.6-.3-2.3zm-1.2 8.8 1.6.9zm-16.5 6.1 3.9 2.3-4.7 2.4-1.2-.6 1.2.7q-1.5.6-2.9 1.4l.8-.7.9-1.4.8-1.2 1.1-2.7z"/><path fill="#6f5b06" d="m61.6 151.6-19.6-11-.2-.2-17-9.6-2.1-2.4 36.7 20.8z"/><path fill="#030" d="m60.4 143-1.3-.7.2-.4.9.3z"/><path fill="#604f15" d="m23.8 93.6.9 9.3h-.1l-5 2.7-2.4 1.3-2.3 1.2-1.6.8-.3-.2 2.1-3 1.1.2q1.8 0 3.5-1.2l.7-.5q2.1-1.9 2.1-4.5 0-2-1-3zm29.7 16.6.5.3.2 2.2v.1l-2.6 3-1.9 2.3q-1.2 1.6-1.8 4.4l-.2 1.3-3.7 1.9-.5.3-.2-.1zm.8 3.5.4 3.7q-.7.2-1.2 1.4l-.1.3-.4 1.1-.1.9-2.4 1.3q0-3 1.4-5.8l.1-.2q1.1-2.2 2.3-2.7M19.9 99.1q.3.5.3 1.3 0 2-1.6 3.3l-.2.2q-1.1.9-2.1.9h-.5z"/><path fill="#ad0101" d="m61.3 66.6.2-.4v.5z"/><path fill="#6b5818" d="M54.3 112.8v.9q-1.1.5-2.3 2.7l-.1.2q-1.4 2.9-1.4 5.8l-2.9 1.4.3-1.3q.6-2.8 1.9-4.4l1.9-2.3zm.4 4.6.3 2.5v.1l-2 1 .1-.8.4-1.1.1-.3q.5-1.2 1.1-1.4M20 98.9l1.5-2.2q1 1 1 3 0 2.6-2.1 4.5l-.7.5Q18 106 16.2 106l-1-.2.6-1 .5.1q1 0 2-.9l.3-.2q1.5-1.4 1.5-3.3 0-.8-.2-1.3z"/><path fill="#d7a533" d="m44.9 114.4 2.2 1.3-3.3 4.9-1.2-1.3-.4-.4q-2.1-2.5-2.5-4v-.5q0-1.4 1.7-2l1 .5zm-13.7-7.7.4 1.7q.8 2.6 5.3 7.2l.4.4 4.3 4.3 1.5 1.3-.1.2q-3.2-2.7-7.4-5.1l-.6-.4q-4.4-2.5-17.8-9.5l2.4-1.2 2.1 1.5q3.2 1.9 4.9 2h.1q2.2 0 2.2-2l-.1-1.8zM14.9 108q3.7 1.4 7.5 3.5l10.6 6.3.4.1q5.9 3.3 8.4 5.5l-.7 1.1L13.2 109l.1-.2z"/><path fill="#72461b" d="m45.9 129.3 6.6-3.6q0 1.8-.7 8.6L46 131l-.1-1.2z"/><path fill="none" stroke="#41270e" stroke-linecap="round" stroke-linejoin="round" stroke-width="__RESOLUTION__" d="m116.6 17.9-.2-.1m-36.7-16-.2.2M110 113.3l1.2 1.4-.8 1 1 .6v4.4l-1.1.5-3.5-2v.4l4.3 2.5-1 2.3-1.1 2.3-1-.2-3.2-1.9.7-1 1.1-2.8.2-1.2m-81.3 3.7v-.5l12.6 7.1-.3.3m-27-22.4v-.2l.1-.1 2.1 1.2.3.1 1.6-.7 2.3-1.2 2.4-1.3 5-2.7h.1m85.7 12.8-.1.2-2.5-1.5m-1.5.8.3.5.4 2.4-.2 1.2m-21.6 16.9.8-.7 1.3-2.1.4-.5 1-2.7.2-1.2.2-1.6-.3-2.3-.3-.5m1.6 0 .3.3h0l.8 1.3 4.5 2.5-.8-1.2m-5-3.7.2.8-.7-.4m5.6-3-.3.8m8.4 4.8 3.5 2v1.3l-3.7 1.9-1-.6v1.1l-3.7 2-1-.6v1.1l-3.7 2-1.2-.7v1.2l-3.6 2-1-.6v1.1l-3.7 2-1.2-.6v1.1l-3.6 2-1-.6v1l-3.7 2-1.2-.6v1.2l-3.6 2-1-.6v1l-3.8 2-2.5-1.4-.9 1.1-19.5-11m-.2-.2-17-9.6-2.1-2.4.6-.8h0l-.3-.2m.3.2 36 20.3.5-.2.2-.1.4-.2V143l-1.3-.8m42.8-10.9v-.2l-3.3-1.8h-1.1l-1.7-.7m-2 3 3.4 2v.2m1.4-4.6h.9l2.2-1.2 1.4-1.3.7-.6 1-1.6m-15.9 9.7 3.4 1.9v.1M89 129l4.8 2.8m-4.8 2.5-1.6-.9m-7 5.4 1.4-.2 2.1-1.2.7-.5.7-.7m-8-5.6-.4.8m3.5 7.4h-.7l-1.7-.7-4.6-2.6-1.1-1.7-.1-.7m-1.4 1.5.3 2.3-.3 2.5.1.1 3.9 2.3 3.5 1.8v.3m1.2-4.7-8.6-4.8-.4-.2.3.4m-2.8.8-2.9 1.4-2.5 1.4-.5.3-1.8 3.7-.9-.2-5.2-3-.1.4m14.7 4.2 1.2.7 3.3 1.9v.1m-2.6-6.9v.3l-1.1 2.8-.8 1.1-.9 1.3-.8.8m1.6 3.2v-.2l-2.9-1.6h0l-.1-.1-2.1 1.1-2 .2-1.6-.7m-.1.2.4.2 2.2 2.4-.1.1m25.3-11.6v-.2l-3.2-1.8m-1.7 4.5v-.2l-3.4-2m-1.5-1.1-1.1-1.7M13.4 47.8l1.6-2.6m-3.5 5.6 1.9-3M20 94l1.3-2m-9.8-41.2-1.6 2.7m49.3 32.7V86m-7.9 23.3.3-.2m3.3 10.8.1 3.2v1.3l-2.5 1.3-6.6 3.5h-.1l-1 .5-.5.3 1.7.9 5.8 3.3 5.3 3h.1l3.3 1.9.9-.4.6-.4m-15-22.6 1.6-2.5m0 0 2.6-3.9m-7.5 11.3 3.3-4.8v-.1m-4.1 6 .7-1m-2.7 4 .7-1.1 1.2-1.7m-6.6 4.7L41 129l2.5 1.3h0l.8-.3m-3.2-5.5 1.3.8.9.5.2.1.5-.3 3.6-1.9 2.9-1.5 2.4-1.2 2-1.1h0M17.7 97.4l1-1.6.2-.1 1-1.7m-2.2 3.4-.7 1m42.8 49.3h.1m6-.8-.2.1h.1m.2-.1h-.2m-11.7-8-16-9m-1.7-3.5-12.9-7.2" vector-effect="non-scaling-stroke"/><path fill="none" stroke="#000" stroke-linecap="round" stroke-linejoin="round" stroke-opacity=".3" stroke-width="1" d="m117.6 87.5-4 23.8-2.3 1.4-1.3.6m-87 14.1-.4-.2v-4.4l1.1-.5 1.8 1m0-.5-2.9-1.6.9-2-3-1.7-9.7-5.5v-4.2m.1-.3 1.9-2.9 1-1.5 3.2-4.7-4.5-27.1-2.9-17.5.3-.3-4.6 2.4M64 83.4l59.1-31-1.7 10.3"/><path fill="none" stroke="#46290f" stroke-linecap="round" stroke-linejoin="round" stroke-width="__RESOLUTION__" d="m108.8 113.9 2.3-23M87.6 125l1.2-17.4m5.3 14 .2-5m-1.7 5.9-.1.6m-24.6-5.7v-5m-.2 20.8.2-15.8m-.2 15.8v1.4" vector-effect="non-scaling-stroke"/><path fill="none" stroke="#693f16" stroke-linecap="round" stroke-linejoin="round" stroke-width="__RESOLUTION__" d="m20 73-3.1-27.5M20 73l1.3 10.9M49 88.2l.5 13.4M49 88.3l-.7-22.4m-8.1 45.8v-7.4m-5.5 4.4L33.6 87m34.3 47.5.1.8" vector-effect="non-scaling-stroke"/><path fill="none" stroke="#41270e" stroke-linecap="round" stroke-linejoin="round" stroke-width="__RESOLUTION__" d="m21.3 92 2.4 1.3.1.3.9 9.3m26.9 6.2 1.1.7.8.4.5.3.2 2.2m0 .1.1.8m0 .1.4 3.7.2 2.5M24.6 103" vector-effect="non-scaling-stroke"/><path fill="none" stroke="#774d1a" stroke-linecap="round" stroke-linejoin="round" stroke-width="__RESOLUTION__" d="m24.7 103 1.8 1 2 1.1.3.2 2.4 1.4 1 .5 2.5 1.5 3.6 2 1.9 1 1.2.8 1 .5 2.5 1.4 2.2 1.3" vector-effect="non-scaling-stroke"/><path fill="#000" fill-opacity=".3" d="m9.2 51.7 5.6-8.3 6-1.7L58.6 62l.1 28.8-8-10.7L13.5 62l-2.2 1zM64 109.3l3.5-22.5 57.6-8z"/><path fill="#ec4a0d" d="m120.7 22.4.7.8 3.7 4.9.7 1-1.2 4.8-65.3 32.3L47.2 58zM8.7 39.1l31.4-16.4 1.8 1 1-.6.4 1.9h-.1L14.7 40zm34.2-22.3L73.6.7l1.6-.2 2.3.4 2 1 .1.1.5.3-8.5 4.2-.8-3-4.5 3.9 2.9.3-3.8 1.8-16.9 8.7-1.5-1zM99.3 8l6.6 3.8-11 5-.2-1.3-.8-1.7-1.4-2.2-.1-.1zm-19.5 3.8h-.2l-6.7 3-13.5 6.3-3 1.4-3.9-2.1 3.2-2.4q5.5-3.8 10.7-5.7L77 8q1.5-.6 5.9-4.1l6.2 3.5zM46 34.8l12.4 5.6-22.3 11-3.3-1.8q11.7-4.9 13.5-9l-2-.1q-3.9.4-10.9 3.6l-5.5 2.7-2.7-1.5zM79 51l.4.2q.8 0 10.3-4 9.6-3.9 11.6-5 8.5-4.7 8.7-6.4l-1.2-.3q-4.2 0-18.5 7l-.3.3Q79.7 49.6 79 51m49.6 17.9 5.7 5.1L88 96.9l-5-4z"/><path fill="#a22609" d="m125.8 29.2 1.9 3.3 1.7 4.2 1.6 7.5.4 3.9-8.2 4.3-59.1 31-5 2.5-.4.3-.7-.5.4-3.6 1-8.3-1.7-6.2-.4-1.1 2.3-.1 1.1-.2.5.3.3.2v-.5l12-1 50-26.7 1.1-4.6zM40 22.7l-.2-.1.4-3 .5-1.1.8-1 1.3-.7 4 .4 1.6 1 3.9 2.2 3.9 2.1 2 1.2.2.1 1.4 1.6 7 .7 25.6-14.5 1.4 2.2.8 1.7.2 1.4.6 3.5-2 1-1.5.8-27.3 14.3-.9-.4-.9-.6-.8-4-.6-1.5-1.5-2.3-1.2-1.4-.4-.5-2-1.1-4.6-2.6-5.2-3h-.9l-1 .1-.9.3v.1l-.2.1-.6.8-.3.9.3 1.7-1.1.6zm2.1-.7-.2 1.7z"/><path fill="#932004" d="m58 85.8-3.4-2-.2-2 4 .3zm-6-13.4-.6-1.7-1.6-3-3.3-3.9.6-5.7 12.2 8 .3.3-2.2.1.3 1zm-16-16-10.8-6.1v-5l2.7 1.5 4.9 2.8 3.3 1.8zM15 45.3h-3.1l-2 .6L8 47.1l-2.6 6.6-.2 2.2-4.8-2.7 1-6.8 1.1-2.8 1.8-2.3 4.3-2.2 6 1zm78.5-23.8 1.5.7 5.8 2.6-36.2 18.4-6.2-2.7L46 34.9l-7.3-3.2 5-3.4.3 1.9 2.4 1.4 5.4 3 3.8 2.2 3 1.7 3 1.7 2.2-1.1 27.8-14.5.4-2.4z"/><path fill="#8c2004" d="m54.4 81.8-.5-3.1-1.1-4.3-.7-2 5.5-4.9 1.8 6.3-1 8.3zm-7.9-18-2.4-2.9-8-4.5v-5l11 6.7zM25.2 50.3l-4.6-2.6-4.3-2.5H15l-.3-5.1 1.7.2 8.8 5z"/><path fill="#ce400b" d="m79.6 2 .2-.2 3.9-.4 1.8.3h.3l3.3.6L99.3 8l-6.9 3.5.1.1L67 26.1l-7.1-.7-1.4-1.6-.1-.1-2.1-1.2 3-1.4 13.5-6.3 6.8-3-.5 3.9 6.6-2.5-6-1.4 9.5-4.3H89l2.2 2.3 1.1 1.7-1.2-1.7-2-2.3H89L82.9 4 80 2.3 83 4q-4.6 3.5-6 4l-10.7 4.2q-5.2 1.9-10.7 5.7l-3.2 2.4-3.9-2.2 16.9-8.7 3.8-1.8L72 8l-.4-1.5 8.5-4.2zm31 12.5 5.8 3.3.1.2v-.1l4.2 4.5-73.6 35.7-11-6.7 22.3-11 6.1 2.7 36.3-18.3L95 22zM59.3 66.2l65.3-32.3-1.1 4.6-50 26.7-12 1-.2.3-.5-.2h-1.2zm-15.5-38-5.1 3.5 7.3 3.2-20.8 10.4-8.8-5-1.7-.2L43.2 25zm78.6 35 6.3 5.6L83 92.7l-7-5.5z"/><path fill="#f25215" d="m105.9 11.8 4.6 2.7L95 22l-1.5-.7 2-1-.6-3.5zM78.9 51q.8-1.4 11-8.2l.4-.3q14.3-7 18.5-7l1.2.3q-.2 1.7-8.7 6.4-2 1.1-11.5 5-9.5 4-10.4 4zm-46.1-1.4-4.9-2.8 5.5-2.7q7-3.2 10.9-3.6l2 .2q-1.8 4-13.5 8.9"/><path fill="#6d4616" d="m92 22.2-.4 2.4L63.8 39v-3l.9.4zM58.6 38.5l-3-1.7.1-4.3.7-7.8 2 1.1.4.4-.2 7.9zm-6.8-3.9-5.4-3-.3-4.4v-.5l-.2-7.6h.7l5.2 3-.1 5.5V30z"/><path fill="#8d5a1d" d="m63.8 39.1-2.1 1.1-3.2-1.7.1-4.4.2-7.9 1.3 1.5 1.4 2.3.6 1.5.8 4 .9.6zm-8.2-2.3-3.8-2.2-.1-4.6v-2.4l.1-5.5 4.6 2.6-.6 7.8zm-9.2-5.2L44 30.2l-.2-2-.5-3.1V25l-.3-2-.3-1.7.3-.9.5-.8.3-.1v-.1l.9-.3 1-.1h.1l.3 7.6v.5z"/><path fill="#7b1304" d="m115 56.9 7.3 6.4L76 87.1l7 5.7 5 4L134.4 74l1.2 1-.8 3.4-47.3 24.8-9-8-.2-.1-10.9-9.7.4-3.8z"/><path fill="none" stroke="#000" stroke-linecap="round" stroke-linejoin="round" stroke-opacity=".3" stroke-width="1" d="m120.7 22.4.7.8 3.7 4.9.7 1 1.9 3.4 1.7 4.2 1.6 7.5.4 3.9-8.2 4.3m-118 3.5L.5 53.2l1-6.8 1.1-2.8 1.8-2.3 4.3-2.2 31.4-16.4-.2-.1.4-3 .5-1.1.8-1 1.3-.7L73.6.7l1.6-.2 2.3.4 2 1 .1.1m.2-.2 3.9-.4 1.8.3m.3 0 3.3.6L99.3 8l6.6 3.8 4.6 2.7 5.9 3.3m.1.1 4.2 4.5m1.6 40.9 6.3 5.6 5.7 5.1 1.2 1.1-.8 3.4-47.3 24.8-9-8-.2-.1-10.9-9.7"/><path fill="none" stroke="#41270e" stroke-linecap="round" stroke-linejoin="round" stroke-width="__RESOLUTION__" d="m64 83.4-4.9 2.5-.4.3-.7-.5-3.4-1.8-.2-2.1-.5-3.1-1.1-4.3-.7-2-.7-1.7-1.6-3-3.3-3.9-2.4-2.9-8-4.5-10.9-6.1-4.6-2.6h0l-4.3-2.5H15l-3.1.1-2 .6L8 47.1m84.4-35.5-1.2-1.7-2-2.3H89L82.9 4 80 2.3l-.4-.3m12.9 9.6 1.4 2.2.8 1.7.2 1.4.6 3.5-2 1-1.5.8-.4 2.4m-47.5 5.6-.4-2-.5-3.1V25l-.2-2-.3-1.7m49.3.8L64.7 36.5l-.9-.4-.9-.6-.8-4-.6-1.5-1.5-2.3-1.2-1.4-.4-.5-2-1.1-4.6-2.6-5.2-3h-.9l-1 .1-.9.3v.1M115 56.9l7.3 6.4M43 23.1l-1.1.6-1.9-1m1.9 1 .2-1.7m25.2 63.5.4-3.8L115 56.9" vector-effect="non-scaling-stroke"/></g><clipPath id="a"><path d="M1 1h115v133H1z"/></clipPath><path id="c" fill="none" stroke="#000" stroke-linecap="round" stroke-linejoin="round" stroke-opacity=".1" stroke-width="1" d="m19.2 19.3-.8-5.2-1.1-4.3-1.4-3.6-1.7-3-5.6-6.8-13.5-7.6" transform="translate(5.4 11.75)"/></defs><g clip-path="url(#a)"><g transform="translate(27.9 111.25)"><use xlink:href="#b" width="136" height="157.4" transform="translate(-26.9 -110.25)scale(.8445)"/><use xlink:href="#c" width="25.1" height="31.6" transform="translate(10.5 -68.8)scale(.8445)"/><use xlink:href="#c" width="25.1" height="31.6" transform="translate(57.75 -94.9)scale(.8445)"/><use xlink:href="#d" width="69.1" height="91.2" transform="translate(21.75 -107.35)scale(.8445)"/></g></g></svg>