<svg xmlns="http://www.w3.org/2000/svg" xmlns:xlink="http://www.w3.org/1999/xlink" width="61" height="131" viewBox="0 0 61 131"><defs><g id="d"><path fill="#62621e" d="m44.6 11.4-1.8.8q-.7-3.7-5-6.7L48.7 0v13.5l-2.5 1zl4-2z"/><path fill="none" stroke="#484717" stroke-linecap="round" stroke-linejoin="round" stroke-width="__RESOLUTION__" d="m44.6 11.4-1.8.8m1.8-.8 4-2" vector-effect="non-scaling-stroke"/><path fill="none" stroke="#65651f" stroke-linecap="round" stroke-linejoin="round" stroke-width="__RESOLUTION__" d="M42.8 12.3 37.2 15M18.3 27.2 12.2 30" vector-effect="non-scaling-stroke"/><path fill="none" stroke="#373611" stroke-linecap="round" stroke-linejoin="round" stroke-width="__RESOLUTION__" d="M48.6 0v12" vector-effect="non-scaling-stroke"/><path fill="none" stroke="#53521a" stroke-linecap="round" stroke-linejoin="round" stroke-width="__RESOLUTION__" d="m0 30.6 17.3-8.7" vector-effect="non-scaling-stroke"/></g><g id="c"><path fill="#828122" d="M38.1 5.1v13.2L10.3 32.4v-13z"/><path fill="#454514" d="M10.3 32.4 0 31.6V14.2l10.3 5.2z"/><path fill="#373611" d="M0 14.2 28 0l10.1 5.1-27.8 14.3z"/><path fill="none" stroke="#31320a" stroke-linecap="round" stroke-linejoin="round" stroke-width="__RESOLUTION__" d="M38.1 18.3 10.3 32.4 0 31.6V14.2l10.3 5.2v13" vector-effect="non-scaling-stroke"/><path fill="none" stroke="#341d01" stroke-linecap="round" stroke-linejoin="round" stroke-width="__RESOLUTION__" d="M0 14.2 28 0" vector-effect="non-scaling-stroke"/></g><g id="b"><path fill="#747323" d="M27.9 0v15.7q-.4 5-3.8 9.5-2 3.2-3.6 4-2.4-1.7-4.8-4.8t-1.4-8.3 3.2-4.7q1.8 1.2 2.3 5.9-4-3.4-4.7 1t3 4.9q3.8.5 6-2.2t1.4-5.6l-1-2.4-1.8-2.8-1.9-2.4-1.3-1.5q-2.8-3.1-3.8-3-3.9.6-6.8 7.9-1.5 3.6-2.8 9L5 25.5q-1.7 9.3-3 26.4l-.7 9.8-.3 2.9v.3l-.6 7.3-.1 1.4L.2 75H.1V32.7L5.6 5.4 11.9 0z"/><path fill="#6a6a20" d="m.2 75-.1 1.3z"/><path fill="#5c5c1d" d="M0 32.7V0h11.9L5.6 5.4z"/><path fill="none" stroke="#5a5518" stroke-linecap="round" stroke-linejoin="round" stroke-width="__RESOLUTION__" d="M27.9 15.7q-.4 5-3.8 9.5-2 3.2-3.6 4-2.4-1.7-4.8-4.8t-1.4-8.3 3.2-4.7q1.8 1.2 2.3 5.9-4-3.4-4.7 1t3 4.9q3.8.5 6-2.2t1.4-5.6l-1-2.4-1.8-2.8-1.9-2.4-1.3-1.5q-2.8-3.1-3.8-3-3.9.6-6.8 7.9-1.5 3.6-2.8 9L5 25.5q-1.7 9.3-3 26.4l-.7 9.8-.3 2.9v.3l-.6 7.3-.1 1.4L.2 75M0 0h5.4M24 0h3.8" vector-effect="non-scaling-stroke"/><path fill="none" stroke="#31320a" stroke-linecap="round" stroke-linejoin="round" stroke-width="__RESOLUTION__" d="M.1 75V32.7L0 0" vector-effect="non-scaling-stroke"/><path fill="none" stroke="#6a6a20" stroke-linecap="round" stroke-linejoin="round" stroke-width="__RESOLUTION__" d="M6.6 19.3q5-13.6 9.6-10 1.3 1.1 2.6 3.7M1.6 55.8l.5-3.9v-6.1Q3.9 34 7.5 29.3l.2-.3h0l1-1.1q6.7-7.2 5.5-10.9M8.7 27.9Q12 24.8 17 27l.2.2q1.6.7 3.3 2M7 75.9q-5.2-6.5-4.8-24m24 32.8h-3.6q-4.4-.2-7.9-1.8-2.7-1.3-4.8-3.4Q8.3 78 7 76" vector-effect="non-scaling-stroke"/><path fill="none" stroke="#7d7d26" stroke-linecap="round" stroke-linejoin="round" stroke-width="__RESOLUTION__" d="M.8 71.7q1.8 0 6.2 4.2m2.9 3.6q-4.7-3-9.4 5.7" vector-effect="non-scaling-stroke"/></g><clipPath id="a"><path d="M1 1h59v129H1z"/></clipPath></defs><g clip-path="url(#a)"><g transform="translate(31 131.55)"><use xlink:href="#b" width="27.9" height="85.2" transform="matrix(.7859 -.4036 0 1.0182 -22.8 -88.4)"/><use xlink:href="#b" width="27.9" height="85.2" transform="matrix(-.7859 .4036 0 1.0182 21 -110.9)"/><use xlink:href="#c" width="38.1" height="32.4" transform="translate(-9.55 -130.55)"/><use xlink:href="#c" width="38.1" height="32.4" transform="translate(-30 -119.9)"/><use xlink:href="#d" width="48.5" height="30.6" transform="translate(-20 -125.45)"/></g></g></svg>