<svg xmlns="http://www.w3.org/2000/svg" xmlns:xlink="http://www.w3.org/1999/xlink" width="94" height="306" viewBox="0 0 94 306"><defs><g id="c"><path fill="#e1decb" d="M4 21.5Q5.4 11.3 8.3 1.2q1.3-2.4 3 .1l2.1 23.1v1.5z"/><path fill="#3a3a01" d="M13.4 25.9 12.9 53l-.1 6.5V63q-.7.7-1.2.9l-.7-.1q-.7-.3-1.3-1.7l-.1-.2-.7-2.4-2-6.5-1.6-6.7-.5-2.4-.6-3.9-.9-5.8-.2-2.7 1-10z"/><path fill="#ad8138" d="M12.8 59.6h.2z"/><path fill="#938242" d="m13 59.6 1.3.3-1.3 8.8-.3 2-.2 3.6-3.2.7.8-6 .3-2.1.5-3.1h.7q.5-.1 1.2-.8v-3.4zm-8.3 6.6L3 65l1.2-1.2 1.3-1.2 3.3-3.1.7 2.4.1.1-2.4 2-1.4 1.2z"/><path fill="#bdac6c" d="m13 68.7 2 2.3-.6 1-1.7-1.3zm-2.9.3-4.3-3.7L7.2 64l3.2 2.8zm-5.9-5.2-1.2-1-3-4.1 5.5 3.9z"/><path fill="#fbfcea" d="m9.5 61.9.1.1z"/><path fill="#8b6830" d="M5.8 65.3 7.2 64z"/><path fill="none" stroke="#2e1b05" stroke-linecap="round" stroke-linejoin="round" stroke-opacity=".2" stroke-width="__RESOLUTION__" d="M4 21.5Q5.4 11.3 8.3 1.2q1.3-2.4 3 .1l2.1 23.1v1.5L12.9 53m-6 0-1.7-6.7-.5-2.4-.6-3.9-.9-5.8-.2-2.7 1-10" vector-effect="non-scaling-stroke"/><path fill="none" stroke="#2e1905" stroke-linecap="round" stroke-linejoin="round" stroke-opacity=".2" stroke-width="__RESOLUTION__" d="m12.9 53-.1 6.5.2.1 1.3.3-1.3 8.8 2 2.3-.6 1m-1.7-1.3-.2 3.6-3.2.7m-3.5-9.7-1.1.9L3 65m0-2.2-3-4.1 5.5 3.9-1.3 1.2m4.6-4.3-2-6.5m6 6.6V63q-.7.7-1.2.9l-.7-.1q-.7-.3-1.3-1.7l-2.4 2 3.2 2.8-.3 2.1m2.9-.4-.3 2m-3.3-8.9-.7-2.4M7 64l-1.3 1.3" vector-effect="non-scaling-stroke"/></g><g id="a"><path fill="#958340" d="M12.2 5.8Q10.9 4.5 9 4.5T5.8 5.8 4.5 9t1.3 3.2T9 13.5q1.8 0 3.2-1.3 1.3-1.3 1.3-3.2 0-1.8-1.3-3.2m3.2-3.2Q18 5.3 18 9t-2.7 6.4Q12.8 18 9 18t-6.4-2.7Q0 12.8 0 9t2.6-6.4Q5.3 0 9 0t6.4 2.6"/><path fill="#cbbf83" d="M12.2 5.8q1.3 1.4 1.3 3.2t-1.3 3.2T9 13.5t-3.2-1.3T4.5 9t1.3-3.2T9 4.5t3.2 1.3"/><path fill="none" stroke="#6b5f2e" stroke-linecap="round" stroke-linejoin="round" stroke-opacity=".5" stroke-width="__RESOLUTION__" d="M15.4 2.6Q18 5.3 18 9t-2.7 6.4Q12.8 18 9 18t-6.4-2.7Q0 12.8 0 9t2.6-6.4Q5.3 0 9 0t6.4 2.6" vector-effect="non-scaling-stroke"/></g><g id="k" transform="translate(83.25 83.25)"><use xlink:href="#a" width="18" height="18" transform="translate(-8.75 -9)"/><use xlink:href="#b" width="15.1" height="75" transform="translate(-11 -83.25)"/><use xlink:href="#b" width="15.1" height="75" transform="matrix(-1 0 0 -1 11 83.25)"/><use xlink:href="#b" width="15.1" height="75" transform="rotate(-90 -36.125 47.125)"/><use xlink:href="#b" width="15.1" height="75" transform="rotate(90 47.125 36.125)"/><use xlink:href="#b" width="15.1" height="75" transform="rotate(-45 -95.008 54.904)"/><use xlink:href="#b" width="15.1" height="75" transform="rotate(135 22.742 39.354)"/><use xlink:href="#b" width="15.1" height="75" transform="rotate(225 -11.746 43.908)"/><use xlink:href="#b" width="15.1" height="75" transform="rotate(45 106.004 28.358)"/><use xlink:href="#c" width="15.1" height="75" transform="rotate(-45 -95.008 54.904)"/><use xlink:href="#c" width="15.1" height="75" transform="rotate(135 22.742 39.354)"/><use xlink:href="#c" width="15.1" height="75" transform="rotate(225 -11.746 43.908)"/><use xlink:href="#c" width="15.1" height="75" transform="rotate(45 106.004 28.358)"/><use xlink:href="#c" width="15.1" height="75" transform="translate(-11 -83.25)"/><use xlink:href="#c" width="15.1" height="75" transform="matrix(-1 0 0 -1 11 83.25)"/><use xlink:href="#c" width="15.1" height="75" transform="rotate(-90 -36.125 47.125)"/><use xlink:href="#c" width="15.1" height="75" transform="rotate(90 47.125 36.125)"/></g><g id="j"><path fill="#98702d" d="M4.6 8.3.8 5.8q-1.2-.8-.2-3L5 4.6Q4.2 5.8 4.2 7z"/><path fill="#ac813d" d="M4.6 8.3 4.3 7q0-1.2.6-2.3H5q.7-1.3 1.7-1.8l.8-.3h.3l.8.4q.3.4.3 1.3t-.5 2l-.1.3Q7.6 8 6.6 8.5L5 8.6l-.2-.1z"/><path fill="#d9bd6e" d="m5 4.7-4.4-2 .5-1q1.7-3 5.1-.4l1.3 1.3-.8.3q-1 .5-1.7 1.7z"/><path fill="none" stroke="#5c3a24" stroke-linecap="round" stroke-linejoin="round" stroke-opacity=".5" stroke-width="__RESOLUTION__" d="M.6 2.7q-1 2.3.2 3.1l3.8 2.5h0L4.3 7q0-1.2.6-2.3H5q.7-1.3 1.7-1.8l.8-.3-1.3-1.3q-3.4-2.6-5.1.4zm7-.1h.2l.8.4q.3.4.3 1.3t-.5 2l-.1.3Q7.6 8 6.6 8.5L5 8.6h0l-.2-.1-.2-.2" vector-effect="non-scaling-stroke"/></g><g id="h"><path fill="#715321" d="M4.6 8.3.8 5.8q-1.2-.8-.2-3L5 4.6Q4.2 5.8 4.2 7z"/><path fill="#80602d" d="M4.6 8.3 4.3 7q0-1.2.6-2.3H5q.7-1.3 1.7-1.8l.8-.3h.3l.8.4q.3.4.3 1.3t-.5 2l-.1.3Q7.6 8 6.6 8.5L5 8.6l-.2-.1z"/><path fill="#a18d52" d="m5 4.7-4.4-2 .5-1q1.7-3 5.1-.4l1.3 1.3-.8.3q-1 .5-1.7 1.7z"/><path fill="none" stroke="#442b1a" stroke-linecap="round" stroke-linejoin="round" stroke-opacity=".5" stroke-width="__RESOLUTION__" d="M.6 2.7q-1 2.3.2 3.1l3.8 2.5h0L4.3 7q0-1.2.6-2.3H5q.7-1.3 1.7-1.8l.8-.3-1.3-1.3q-3.4-2.6-5.1.4zm7-.1h.2l.8.4q.3.4.3 1.3t-.5 2l-.1.3Q7.6 8 6.6 8.5L5 8.6h0l-.2-.1-.2-.2" vector-effect="non-scaling-stroke"/></g><g id="g"><path fill="#aad025" d="m0 7.3 7.6-1.9 1.6 6.4L14 0l6 3.8-3.8 8.9 5.4-2.8 2.5 4-7.5 7.9-13.5-4v-.6l-.1-.7-.2-.6z"/><path fill="none" stroke="#457000" stroke-linecap="round" stroke-linejoin="round" stroke-width="__RESOLUTION__" d="m16.6 21.8 7.5-7.9-2.5-4-5.4 2.8L20 3.8 14 0 9.2 11.8 7.6 5.4 0 7.2M2.8 16l.2.4m0 .8.1.6M0 7.3l2.8 8.6m.2.5v.8" vector-effect="non-scaling-stroke"/></g><g id="f"><path fill="#face6b" d="M1.7 1.8 5.5.1l1.7.7L7 2.7 5.5 2 5 1.3l-3 3-1.5.5z"/><path fill="#f1b550" d="M.5 4.8 2 4.3l.9-.2-.5.5-.3 1 .2 2.5L.2 5.5l.1-.4z"/><path fill="#af6925" d="m2 4.3 3-3 .5.7-2.6 2zM2.3 8l-.2.6H2l.1.1 1.7 3q-1.2.6-2.6 0L.1 8.8l.1-3.2zm-2.2.6 2.2-.5z"/><path fill="none" stroke="#2e1c12" stroke-linecap="round" stroke-linejoin="round" stroke-opacity=".4" stroke-width="__RESOLUTION__" d="m5.5 2 1.5.7.2-1.9L5.5.1 1.7 1.8m0 0-1.2 3-.2.3M5.6 2 2.9 4l-.5.6m-.3 1 .2 2.5h0m-.2.6 1.7 3q-1.2.6-2.6 0l-1.1-3 .1-3.2m.3-.7L2 4.3l.9-.2m2-2.8.6.7M2.3 8.2l-2.2.5" vector-effect="non-scaling-stroke"/></g><g id="e"><path fill="#e4e1d6" d="m71.6 4.3.4-.4 3.1 2.4-.5 3.3-4.6 1.9-.3-.6v-2l.1-.5.2-.8.5-1.5.5-1zl-.5.8-.5 1-.5 1.5-.2.8-.1.5v2l.1.6-4.6 2-3-1.5L60 9.8V9l-.1-.2-.3.4L55 4.9l6.5-2.5.1.5.5-.8 5.1-2L72 3.8zm-9.9-1.4q-.6.9-.8 1.9l-.1.4-.6 1.7-.1.7-.1.5-.1.5V9v-.3l.1-.5.1-.5.1-.7.6-1.7.1-.5q.2-1 .9-1.8"/><path fill="#dbd1ac" d="m72 3.9-.5.4.5-.5M69.7 11l.3.6h-.2zm-8-8-.2-.5.6-.3zm-2.1 6.4.3-.4v.7z"/><path fill="#dfdccd" d="m70 11.5 4.5-1.9-9 52.8q-.8 13.5-1.6 50.4l-.3 12.5-9.2 1 1.8-86.1-2.5-2.1q1.2-3.5 1.4-7l.1-2.3v-1l.1-1.2.1-.7h4.8l2-13.8 3 1.3 4.6-1.9zm-1.8 14.4h-8zm-4.7 105.5v2.7l-.3 14.5-9.4 1.4.4-15.8zm-.4 24-.5 34.3-.7 45.3q-.3-9.8-9.9 3.5l1.7-80.8h1.6z"/><path fill="#dbd7be" d="m55 5 4.5 4.3.3.3-.1.1h.2l2.4 2.3-2.1 14h-4.8l.2-1.6q.9-4.7 2.3-9.3l.8-1.9q.8-1.6 1-3.4-.2 1.8-1 3.4l-.8 2q-1.4 4.5-2.3 9.2l-.2 1.6-1.9-3L55 8.5zM24.7 242.4q3.7-16.9 7.3-39.3 3.3-20 7.1-50.2 2.4 3.1 13.3 4.8h1.3L52 238.6q-29.1 89.5-27.3 3.8M40 145.2l2-15.8q4.4 4.8 11.7 4.8h.4L54 150h-.1q-11.4-1.8-13.7-4.8m2.6-22.5 1.3-11.1q3.3-28.7 7-63.7V47l.1-.7.5-.5q.9-1.5 1-3.4l.6-2.9.5-1.5 2.4 2.1-1.7 86q-5.9.6-11.6-3.5"/><path fill="#d2b567" d="m59.8 9 .1.7-.1-.2z"/><path fill="#a08d45" d="m59.8 9.6.1.2zm-8.6 36.8 1-9.7 1.6 1.4-.5 1.5-.6 3q-.1 1.8-1 3.3z"/><path fill="#434201" d="m63.2 148.6-.1 6.8-7.7 2.3h-1.7l.1-7.7zM61.9 235v2l-1 74.3-10.4 1.1 1.5-74q9.6-13.2 9.9-3.4m1.7-109.6-.1 5.8-9.4 2.8.3-7.8z"/><path fill="#989701" d="m61 311.3-.1 6-10.5 2.4h-.1l.2-7.2z"/><path fill="#7e7e01" d="M50.3 319.7.1 292.8q3.6 1 7.2-2.8l11.7 9.8q11 6.3 19.8 6.6l8.3 6.3 3.4-.4z"/><path fill="#1a1a00" d="M7.3 290.1q8.8-9.4 17.3-47.9Q23 328 52 238.6l-1.5 74-3.5.3-8.2-6.4Q30 306.3 19 300z"/><path fill="#090700" d="m39.1 152.8 1-7.7q2.3 3 13.7 4.8v.1l-.1 7.7-1.3-.1q-10.9-1.7-13.3-4.8m2.9-23.4.5-5.2.3-1.5q5.7 4.1 11.6 3.5l-.2 8h-.5q-7.3 0-11.7-4.8"/><path fill="#c4a056" d="m51 47.1.1-.7zm4.4-21.2"/><path fill="#5d3a26" d="m52.1 36.7 1.4-13.8 1.9 3v.7l-.1 1.2-.1 1-.1 2.2q-.2 3.6-1.4 7.1zm2-10.7h1.3z"/><path fill="none" stroke="#2e1c12" stroke-linecap="round" stroke-linejoin="round" stroke-opacity=".3" stroke-width="__RESOLUTION__" d="m72 3.9-.5.4-.5.8-.5 1-.5 1.5-.2.8-.1.5v2l.1.6m-8.1-8.6.4-.8M59.8 9v-.3l.1-.5.1-.5.1-.7.6-1.7.1-.5q.2-1 .9-1.8m-1.9 6v.2l.1.7m-.2-.1q-.2 1.8-1 3.4l-.8 2q-1.4 4.5-2.3 9.2l-.2 1.6h0m4.3-16.2.1-.7M51 48v-1h0l.1-.7.5-.5q.9-1.5 1-3.4l.6-2.9.5-1.5q1.2-3.5 1.4-7l.1-2.3v-1l.1-1.2" vector-effect="non-scaling-stroke"/><path fill="none" stroke="#534924" stroke-linecap="round" stroke-linejoin="round" stroke-opacity=".5" stroke-width="__RESOLUTION__" d="m74.6 9.6.5-3.3L72 3.9v-.1L67.2.1l-5.1 2-.6.3L55 4.9v3.5L53.5 23l-1.4 13.7-1 9.7-.1.7m12.6 78.3.3-12.6q.8-36.9 1.6-50.4l9-52.8m-11 121.8v2.7l-.3 14.5-.1 6.8-.5 34.3-.7 45.3v2l-1 74.3v6m-10.5 2.4h-.1M.1 292.8q3.6 1 7.2-2.8 8.8-9.4 17.3-47.9 3.8-16.8 7.4-39.2 3.3-20 7.1-50.2l1-7.7 1.9-15.7.5-5.2.3-1.5 1.2-11.1q3.3-28.7 7-63.7m12.6 77.5-.1 5.8" vector-effect="non-scaling-stroke"/><path fill="none" stroke="#0f0" stroke-linecap="round" stroke-linejoin="round" stroke-width="__RESOLUTION__" d="M55.4 25.9h12.8m-14.7-3-1-1.6m1 1.6 1.9 3h0m0 0v.7m0-.7H54" vector-effect="non-scaling-stroke"/></g><g id="m" transform="translate(-3.25 10.35)"><use xlink:href="#e" width="75.2" height="319.8" transform="matrix(.52 -.05 .13 .76 4.5 50.85)"/><use xlink:href="#f" width="7.3" height="12.3" transform="matrix(-.31 -1.29 .99 -.21 36.25 78.75)"/><use xlink:href="#f" width="7.3" height="12.3" transform="matrix(-.46 -1.26 .82 -.42 37.45 77.3)"/><use xlink:href="#f" width="7.3" height="12.3" transform="matrix(-.55 -1.21 .87 -.62 37 72.95)"/><use xlink:href="#g" width="24.1" height="21.8" transform="matrix(-.29 -.13 -.01 .4 50.6 271.45)"/><use xlink:href="#g" width="24.1" height="21.8" transform="matrix(-.24 -.13 -.09 .37 61.95 278)"/><use xlink:href="#g" width="24.1" height="21.8" transform="matrix(-.28 -.15 -.11 .31 83.5 284.95)"/><use xlink:href="#h" width="9.1" height="8.9" transform="translate(39.7 58.05)scale(1.37)"/><use xlink:href="#i" width="166.5" height="166.5" transform="matrix(.55 -.29 0 .62 3.25 37.65)"/><use xlink:href="#j" width="9.1" height="8.9" transform="translate(46.2 62.05)"/></g><use xlink:href="#c" id="b" width="15.1" height="75"/><use xlink:href="#k" id="i" width="166.5" height="166.5"/><clipPath id="l"><path d="M1 1h92v304H1z"/></clipPath></defs><g clip-path="url(#l)"><use xlink:href="#m" width="91.5" height="303.9" transform="translate(1 1)"/></g></svg>