<svg xmlns="http://www.w3.org/2000/svg" xmlns:xlink="http://www.w3.org/1999/xlink" width="213" height="78" viewBox="0 0 213 78"><defs><clipPath id="a"><path d="M1 1h211v76H1z"/></clipPath><path id="b" fill="#e4e2d6" d="M62.9-27.5q23.1 6 37.4 13.3 2.3 1.1 5.4 1.4L.2 40.8-105-12.7q2.8-.3 5.2-1.5l2.6-1.4q13.2-6.4 28-10.8l12.6-3q11.6-2.6 30-3.9Q-8-34.4 16-34q23.9.5 47 6.5" transform="translate(105.05 34.15)"/><g id="c"><path fill="#53b4cc" fill-opacity=".5" d="m185 11.3-1.3 1.5 2.2-1.2q13 4.2 24.7 10l-12.7 6.5q2-1.4 2-3 0-2.2-3-3.6-2.9-1.4-7-1.4-4.2 0-7.1 1.4-.9.4-1.4.9l-.2-.2q1.6-1.2 1.6-2.7 0-2.1-3-3.6-2.9-1.4-7-1.4h-.9l-3.1-.7.5 1q-2 .3-3.6 1.1t-2.3 1.8q.4-.7.4-1.6 0-2-2.9-3.5-2.1-1-4.8-1.3l.1-1-1.7-1.2-.6 1h-1.5l-.6 1.2q-2.9.2-5 1.3-1.4.7-2.1 1.6.6-.9.6-1.8 0-2.2-2.9-3.6-3-1.5-7.1-1.5t-7 1.5q-2.5 1.2-2.9 2.8 0-2.1-3-3.5-1.7-.9-3.7-1.2l-1.4-1.2.2 1-2.2-.1q-4 0-7 1.5-2.9 1.4-3 3.5 0-2.1-2.8-3.5-1.3-.7-2.8-1l-.4-.8-.7.5-3.1-.2h-.8q-3.7.1-6.4 1.5-3 1.4-3 3.5l.3 1.2h-.2q-.3-1.8-3-3.2-2.9-1.4-7-1.4h-2l-1.2-.6.3.8q-2.3.3-4.2 1.3-3 1.4-3 3.5 0 .6.4 1.3-.7-.7-1.9-1.3t-2.7-1l-.4-.5-.4.4-3.5-.3q-4.1 0-7.1 1.4-3 1.5-3 3.6l.1.4-.7-.4q-3-1.5-7.1-1.5-3.4 0-6 1l-2-.7.9 1.2q-3 1.5-3 3.6 0 .8.6 1.5l-.6-.3q-3-1.5-7.1-1.5t-7 1.5-3 3.5q0 1.5 1.6 2.8l-.6.2L0 21.6q14.2-7 30.4-11.8l7.9.9v-.8l-1.7-1.8L41.3 7l3.1 2.7-.1-3.4Q58.5 3 74 1.5l.8 2.7.6-2.8L105.3 0q22 0 41.8 2.8l3.8.6 8.3 1.4-13.4.3 12.6 2.3.2-.8 7.6-.4 5.9 1.5h.4l-.6 2.2 3.5-1.4zm-56.1 20.3 5.8.5 2.3.8-8.2 3.1-6.6-1.5.1-.7.8-2.6zm-5.6 2.2h-1zM149 48.1l-5-2.2 8-3.7.8.3 3.6 2.6 3.2 2.4-5.7 2.9zl5.1-1.9zM82.2 23.8l8.5-.6 1 3-7.2.9-8.6 1-2.7-3 6.2-1.1zl2.3 3.3zm18 6.3 5.5-.2 1.1-.1 2.5.2-.2 3.5-4.5-.1-3.8-.1v-.5zm4.1 1 .3 2.2zm-25.2.4 2.6-.4 5.5-.4 2.2 3-7.8.5zm6 10.5-1.6.1-8.8-3.8-2.6-1.1-1.9-.8-6.3 1.6v.5l5.7 1.6 5-1.8 2.7-1 6.3-.2 1.3 1 4.8 3.4zm-8 7.2 4.1-1.5 3.5-.5 1.8 1 3.1 3-4.7 1.3-.9-1.2zm49.2 7.6 2.9-2.6 3.7 1.1-3.3 2.4zM103 54.2l4 .3.5 4-3.7-.3zm-5.7-.2-.7-.2-.2-.4-3.2-2.9 3.5-1 2.9.3 1 4.4zM51.5 28.7l-.5.5-2.5.4 2.5-.4-5.7 4.7-5.8-3 8.2-5 .4-.1zm7 17.6 4.1-3h.2L70 47l-5.2 2z"/><path fill="#ccfff4" fill-opacity=".5" d="M85.4 12.8h.3q.5 1.3 2.6 2.3 3 1.5 7 1.5 4.2 0 7.2-1.5 2.4-1.2 2.8-2.9h.2q.3 1.7 2.8 3 3 1.4 7 1.4 4.2 0 7.2-1.5 2-1 2.6-2.3h.3q.3 1.8 2.8 3.1 3 1.5 7.1 1.5t7.1-1.5l1-.6.4.8q0 2.1 3 3.6 3 1.4 7 1.4 4.2 0 7.1-1.4l1.4-.8.4.6q0 2 3 3.6 3 1.4 7 1.4 4.2 0 7.2-1.4l.4.4q-.5.7-.5 1.6 0 2 3 3.5 3 1.4 7 1.4 3.5 0 6.3-1L184 35.1l-8.7-4.2-3.5-1.6-5-2.4-8.1-1.6-5.6 3.3-6.7-1.6 2.4-2.9.2-.9-6.6-1.3-2.6 3.5-6.9-1.7-2 4h-.3l.2.2-2 3.8-5.9-.6 1-3.7 1-3.3v-.8l-6.2-.3-8.7-.4.3-3 24 .6 8.1 1.7-8.1-1.7-24-.6-12.7.3-7.8.3-.2-.7.2.6-8.5.3-1.4.3-9.5 1.5-13.8 2.3-.9-.9 1 .8-8.6 1.4 8.5-1.4 3.8 3.1 12.8-2.4 2.7 3 8.6-1 2.8 3.8-5.5.4-2.5.4-3.4-3.6-5.1.7-6.7 1.8-3.7-3.1-8.4 1.6-.5-.4-3.4-2.9h-.4l-2.2.4 2.2-.3-8.2 5-2.5 1.5-7.1 4.4L14.6 29l.2-.3q2.9 1.4 7 1.4t7.1-1.4 2.9-3.6l-.2-1.1.3-.1q3 1.5 7 1.5 4.2 0 7.1-1.5 3-1.5 3-3.5l.7-.1q3 1.4 7 1.4 4.2 0 7.1-1.4 3-1.5 3-3.6l-.3-1.2 1.8 1.3q3 1.4 7 1.4 4.2 0 7.2-1.4 2.8-1.6 2.8-3.6zm78.5 12.7 3 1.4zm5.4 17.1-4.2-2.5 5.6-3.1 4.6 2.6zm-11.8-3 3.8 2.8-4.8 2.7-3.6-2.6-.2-.6zm16.8-11.1-2.4.8zm-15.4-3.2-9.7-2zm-33.8-2 8 .3zm8.9-1.2-.9 1.5zm-3.7 1 2.8.6zm-6.2 4.5 6.6.4zm-11.2 10.1 8 1.3-.6 2.6 1.5.4 5 1 4.9 1 .3.1-1.1 1.7-2.6 3.6-5-1.4 3.5-5-3.5 5-3.5-.9-1.8-.5h-1.2l-5.2-.2v-1.1l.5-.2.4-3.9zm16-1.5 8.2-3.1 6.2 1.9-4.6 2.7-1 .4zm11.2 11.6 4-1.7L149 48l-4.6 1.7zm14 2.6-4 2.1-5.5-2.6 4.6-1.7zM119.2 21l-.6 1.9zM99 26l6.9.3-.3 2.8v.7l-5.5.3zl1 4-7.1.5-1.3-4.4 3.1-.4zm-61.6 3.8 2 1zm59.9-10.6.1.6zm3.6 17.5 4-.1.5 4.2h-4.2zm12.5-6.4-4.2-.4.3-3.4 7.6.4-1.1 3.6zm-24 16.6 5.5-.8 2.4-.4 1.5.1 1 4-2.9-.2-3.5.9zm-4.2-8.5v-1L95 37l1.1 3.8-.7.4-5.7.5zm3.5 17.9 4.8-1.4 1.1 1.1.8 1.5.9 1.5-4 .8zm13.6-6-.5-2.4-.1-1.8 4 .1 3.2.1.1 4.5-2.6-.2zm13.6-9.5 3.2.6h-6.6 6.6zm6 1.3-2.1 5.1zm-2.4 2.6.9-3zm-.3-3.2 1.2.2zm4.4 15 2-2.9 4 1.2-2.9 2.6zm-12-1.5-.1 4.1-3.7-.3-.6-4zm-5.6-8.7.6 4.4zm-2.7 8.3.8 3.9-3.3-.3-1.3-.1-2.4-3.8h.6l3.3.1zm-8.6 3.1.8.1zm-12.2.7-6.7 1.9-5.9-3 7.8-2.1 2.4 1.2zm57.4-.4-3.8 2-6-1.6 3.3-2.4 4.6-3.2-4.2-1.5-4.1 3.6 3.7 1.1zm-85-19.1 5.5-3 3.1 2.5-.5.1-2.8.8-1.8 1.4zm-5.4 3 .6.5 2.4 1.8.6.7 1-.8 4.4 2.1-4.1 3-4.1-2.1-5.4-2.7zm9.5-2.4 1.2-.2zM50.3 47l2.8-2.2zm11-8.7-1.1.9zm3.3 15.9-5.4-2.7 5.6-2.5 6.2 3z"/><path fill="#a3d14e" fill-opacity=".5" d="m171.8 29.3-9.4 3L167 35l-6.1 2.9-6.6-3.7-.2-.2-2-1.1 2 1.1-6.8-1.8-5.6-1.5L137 33l-2.3-.7-5.8-.6 2-3.7v-.1l1.1.3 4.8 1.3 3.1-4 6.6 1.6-2.7 3.1 2.7-3.1 6.7 1.6 5.6-3.4 8 1.7zm-15.2 5 5.8-2-4.3-2.4-5-1.2 5 1.2 4.3 2.5zM123 31.2l-.8 2.6-4.1-.1-4.9-.1.3-3.2 2.7.2zm-7.4 1.1.6-1.7zm21.2-2.8 5 1.4zm-3 11.9-2.2-1h-.1l6-2.4h.3l1.1.3 5.2 1.5 7.9 2.5-8 3.6-7.3-3.2zl.5-.7zm-5.6 8 2.6-3.7 2.5-1 6.6 3-5.4 2.4-1 .9zm10.3-7.9-1.9 1.1zm18.4-8.7-2.7 1.4zm-17.3 9.5 4.3-2.4zm7.5-9.9 5.8-3.6zm-49-9.5 5.8-.3h2.2l-.3 4-6.9-.3-.2-.7v-.1zl.7 2.6-4.1.5-3.1.4-1-3zM93 30.6l7.2-.5.6 2.7v.5l-6.9.2-4.5.4.8 1-.7-1-7.8.5 2.8 3h.5l10-.4-1.1-3.5zm12.5 10.3-.5-4.2h1.2l2.5.3-.2 1.9.1 2zM75.9 28.2l3.3 3.6-11.2 2-3.9-3.2 6.7-1.8zm9.3 15v-.9l4.5-.5 5 3.6v.8l-5.4.8zm-8 6.4 6.8 2 1 1.3-7.7 2-6.4-3zm39.5-3.1h1.1l1.8.5-.6 1.4.6-1.4 3.5 1-2.7 3.8-1-.2-3.3-.2-4.8-.4-2.5-.3v2.8-2.8l-2.6-.2.7 4 4.3.3 4.4.2.5-3.6.5-4.1zM119 55l4.5 1.3-2.5 3.6-2-.4-2-.4 1.9-4zm-3.2-.2-.5 3.9-.1.4-3.8-.4v-4.1zm-4.3-4v3.8zM98.8 63.3l3.2-.2h3.3l9.2.4.2.5.1-.5 3.5.3 1 .1 2.3.4 3.7.7-20 10.1-20-10.1 3.4-.7 7.1-.9 2.8-.1zm-2.1 1-.9-.9zm21 .3.5-.8zm-32.4-4L82.2 58l6.3-1.9 3.7 3.6-6.4 1.4zm59.1-10.7 5.5 2.6-5 2.6-6.8-2.5.1-.5zM46 39.2l4-2.9 4.9 2.6-5.1 2.8-.3.1zl3.5 2.6-4.6 2.6-3.7-1.9zm12.4 1.5 1.8-1.5 2.8-.7 1 .3 5.7 1.6-6 2.2-1.2.4.1.4-4 2.9L54 44zl2.7 1.4 1.4 1-2 .6 2-.7-1.4-.9zm7.4-.5-1.7-1.4z"/><path fill="#7fd1da" fill-opacity=".5" d="m167 35 3.6 2-5.7 3.1-4-2.2-3.6 1.7-1.1-.8-6.6-2 4.8-2.6 6.5 3.6zm-45-.5 6.7 1.5 8.9 1.9-6.1 2.4-8.7-1.3.7-1.5-.7 1.5-2-.2zm3.3 2.6 3.4-1.2zm31.1 7.8 4.8-2.7 3.6 2.5-5.2 2.6zm-72.8-2.7 1.7.7 4 3.8-4.5.6-3.5.5-4 1.5-6.5-1.9-.3-.9 7.7-3.3 6.6 4.1-6.6-4.1 1.5-.6zm-12.7 5.2 6.3 1.9-6.2 2.4-6.2-2.7 5.2-2zm6.6 7.2 7.6-2 3.5 3.4-6.3 1.8-2.4-2zm-13.4-24 4 3.2-6 1.1-2.1.6-3.6-2.9zM105.7 46l-.5-2.6v-.1l.3-2.4h3.1l.2 5.2zm14.7 5.8-.2.2-1.4 3h-1.1l-2-.1.5-3.6 3.3.3zm13.1-1 1-.8 5.4-2.4 4.5 2.2-6.2 2.2-.5.4zm-22.2 8 3.8.3-.6 4.1-9.2-.3H102l-3.2.1h-.2l-2.5-4 3.3-.8.2.3.9-.5 3.3.3 3.8.3.4 3.2-.5-3.2zV61zm-7.5-.7 1 4.8zm-1.8 4.1-2.4-3.9zm23.3 2.5-3.7-.7 4.2-3.4 5.4 1.1zM46 39.2l-3.8-2.9 3-2.4 4.8 2.5zM62.5 43l1.2-.4-.9.6z"/><path fill="#bceb8c" fill-opacity=".5" d="m133 23.7 6.8 1.7-3 4-4.9-1.3-1-.4zm-14.8 10 3.9.8-1.2 4.3-8-1.2.4-4zm18.8-.9 4.8-2 5.6 1.4-4.2 2.5zm-13.7 15 5 1.5-2.7 4-5-1.5v-.1zM30 36.8l7.1-4.4 5.2 4-5 4zm61.9-10.6 1.3 4.4-5.7.3-2.7-3.8zm9.7 14.7h4.2l-.2 2.4.4 2.7-4.1-.1h-.2l-2.7-.1-1.3-4.8 1.8-.2zl.3 5.1zm20.8 10.9-1.5-.1zm-62-24.2 3.7 3-7.7 2.1-.5-.4-4-3.2zM50.2 42.4l-.4-.7 5-2.8 3.6 1.8-4.4 3.4z"/><path fill="none" stroke="#53b4cc" stroke-linecap="round" stroke-linejoin="round" stroke-opacity=".5" stroke-width="__RESOLUTION__" d="m185 11.3-9.6-2.8m-2.9-.7-.4-.1-6-1.5m-6.9-1.4L151 3.4m-4-.6Q127.4 0 105.4 0L75.5 1.4m-1.4.1Q58.5 3 44.3 6.3m-3 .7-4.7 1m132.7 34.5-4.6 2.3-5.1 2.6-5.7 2.9-4 2-5 2.6-5 2.5m29.3-14.9 6-3L184 35m-69.5 28.3-9.2-.4H102l-3.2.1m-.2 0-2.7.3-7.2.9-3.4.6-5.1-2.6-4.7-2.4-5.9-3-5.1-2.6-5.4-2.7-4.7-2.4-4.1-2.1-5.4-2.7-3.7-1.9-4-2-7.4-3.7m88.5 26.9 1 .1 2.3.4 3.7.7 5.9-3 4.6-2.3 3.8-2m-21.3 6.1-3.5-.4h-.3" vector-effect="non-scaling-stroke"/><path fill="none" stroke="#53b4cc" stroke-linecap="round" stroke-linejoin="round" stroke-opacity="0" stroke-width="__RESOLUTION__" d="m184 35.1 2.2 1m-14.4-6.8-9.4 3L167 35l8.3-4zl-5-2.4-8.1-1.6-5.6 3.3 5 1.3 4.3 2.5-5.7 1.9m10-7.4-2.9-1.4M167 35l3.6 2 6.6-3.9m-12.4 11.8.6.4m-.5-5.1 4.3 2.4.8.4m5.2-3.4-4.6-2.6-5.7 3.1-4-2.2-3.6 1.7 3.9 2.8 3.8-2.2m10.2-.6 2.4 1.4m-5.8-11.7 2.3-.8m1.2 2.4 8.7 4.2m-35-11.9-6.6-1.3-2.6 3.5 6.6 1.6 2.4-2.9m.2-.9 9.7 2m-33.8-1.9-6.2-.3-1.4 4 6.7.4.8-3.3m8.1-.4-8-.4m8 .3.9-1.6m-1 1.6-2.7-.7m1.8 5.2 4.8 1.3 3.1-4-6.9-1.7m4 9.2-2.3-.7-5.8-.6-5.9-.5-.7 2.7h1m7.6-6h-.2zl-2 3.8m1.8-3.9-6.6-.3-1 3.8-6.8-.6-.6 1.6m6.4 2.3 6.7 1.5 8.2-3.1 4.8-2.1-5-1.4m-14.5 4.4-.2.8-3.9-.9-4.9-.1-.5 4 8.1 1.1 1.2-4.2m9.5 5.8-4.2 1.6-.5.9 4.8 1h.4l1.8-2.5zl-8.7-1.3-1 2.8 5 1-3.6 5 5 1.5 2.6-3.7 1.1-1.7-.3-.1m-8.7-4.8.5-1.5m14.4.5 1.1.1 5.2 1.6 5.5-3-6.5-2-4.6 2.8zl-.2-.1-6.1 2.4m7-2.8-1 .4-8.8-1.9-3.4 1.3m8.5 4 2.9 1.3 2-1.2m-4.9-.1.5-.8m-2.4 3.4.7.3zm1.3.6-.7-.3m4.1-1.7-3.4 2 6.6 3.1 4-1.7zm-3.4 2-2.5 1.1m1.1-17.5-1-.4 2-4m-2.1 4.1 1.1.3m22.3 6h.2l2.7-1.5m-3 1.4-2-1.1m-5.7-5.9-2.7 3.1m-.6 4.6 4.2-2.5-5.6-1.5M144 46l5 2.2 5.1-1.9m-1.5-4.3-.3.1.5.5-.8-.3.3-.2-1.2-.9m1.5.8 4.8-2.3-1.2-.8-6.6-2 4.8-2.6 6.5 3.6L167 35m-14.2 7.5 3.6 2.6 4.8-2.7 3.6 2.5m-5.2 2.6.5.4m-3.7-2.8 3.2 2.4m-9.7 4.9 1.2.5m-7.2-7 8.1-3.7-7.9-2.5-4.3 2.4m6.6-15.1 6.7 1.6-5.8 3.6 6.8 1.8m-11.6-12-8.1-1.7-24-.6-.2 3 8.6.4.6-1.9M137 33l6.2 1.9M106 26.4l.3-4h-2.2l-5.8.4.6 2.5h0l.2.8zl3.7.2.3-4-3.7-.2.1-1M29.8 36.8l7.2-4.4 2.5-1.5-2-1m52.3-9.7-.2-.7m.2.6 1 3.1 7.5-.4-.7-2.9zl-8.5.3-1.4.1 2.3 3.2 8.5-.6 1 3 3.1-.4 4.1-.5m-1.4-5.4-.1-.6m1.7 6.8 1 4 5.7-.2 1-.1 2.5.2-.2 3.5-4.5-.1-3.8-.1v-.5l-.6-2.6-7.2.4-1.3-4.4-7.2.9 2.8 3.8-5.5.4-2.5.4-3.4-3.6 8.6-1-2.3-3.3-2.8.2-6.2 1.1 2.7 3-5.1.7-6.7 1.8 4 3.2 11.2-2 2.4 2.6 7.8-.5 4.4-.4 1 3.5 6.1-.2-.2-3.5-6.9.2-.9-2.9-5.7.3 2.2 3 .8 1m15.4-5.7.3-2.8m-1.4 7-.2-2.1m-3.4 5.5 4-.1-.4-3.3m-9.8-7.6 4.3.3m2 10.7.2 4 4.2.1-.5-4.2h1.2l2.5.3.3-3.5 4.2.1.3-3.2-4.2-.4.4-3.4 7.6.4-1.1 3.6-2.7-.2m-28.2 12-1.6.1 1.7.7 4 3.8 5.5-.8 2.4-.4 1.5.1-1.3-4.8 1.8-.2h-3.1l.1.3 1.2-.1m-2.7 4.3-5-3.5-4.5.5M83 36.8l.8.6h.8l-2.8-3-3.2.2-7.2 1.9.9 1 2.5 1.1 2.7-1-2.4.1m9.5-.3.5 1-1.2-1-6.4.3 2.3-.9m5.3.6h-.5m.3 10.1-3.5.5-4 1.5 6.8 2 1 1.3 4.6-1.3-3.1-3zl-6.7-4.1-7.7 3.3-.5.3-5.2 2.1-6.2-2.9-4.6-2.1 4.4-3.4-3.5-1.8-4.9-2.5 4.9-3.4-1.5.4m17.4 14.2 6.5 1.9-6.2 2.4 6.3 2.9 7.6-2 3.5 3.4 4.8-1.4-3.6-3.3 3.6-1-4-3.6-4.5.6m5-5.7L85 38.4m13.6 7.4 2.6.1h.3l-.3-5-2-.1m-9.5 1 5.6-.6.7-.5-1-3.7-10 .4m10.4 3.8.8-.1.3 1m2.2 3.7 1 4 2.5.3-.5-2.4-.4-1.8m7.3-5-.1-2 .2-1.9 4 .5-.3 3.5 6.6.1-3.2-.6m-10 5.5-.5-2.6v-.1l.3-2.4h3.1l3.8.1-.5 3.9m-.5.2v1.1l5.3.2h1.2l1.8.5 2-5.1-1.5-.4-.9 3m-17.7 1.5.2 1.9m-.2-1.9 4 .1 3.2.1-.2-5.1m12.3-2.2-.7 2.6-1.2-.2m.7 5.7-.6 1.4m-7.7 2.6v-4.7l-2.7-.1.2 4.5zl4.8.4.5-4.1m-6.4-27.6-12.7.3m22.8 31.9-.2.2-1.4 3h.1l4.5 1.3 2-3zl-.9-.2-3.3-.4-.5 3.7 2 .1h1.2m.6-3.5 1 .1 2.7-3.7-3.5-1m-1.9 8h1.1l-1.9 4.1 2 .4 2 .4 2.5-3.6 3.1.8 2.9-2.6-4-1.2 2.8-4 5.3 1.6 1-1 5.4-2.2 4.5 2.1 4.6-1.7 5 2.3M115 59.2v-.4h0l.6-3.9-4.4-.2v4.1zl1.7.1.1-.1-1.7-.4m1.6.6 2.1.1m-12-5 4.4.2.1-3.9m-2.5-.2v2.8m-6.7-3.4 4.1.4-.6-4.4m-2.7 8.3-.8-4.2m5.3 8.4.5 3.2m3.3-2.9V61m-3.7-2.5 3.7.4m-5-8.5.7 4-4-.1.8 3.9 3.8.3-.6-4m1.9-3.9-2.6-.2m-7.5 12.8h-.2L96 58.8l3.3-.7 1-.2 3.4.3 1 4.8m-9 .4.9.8m22.5-.4 3.8-3.5-2.1-.4-2.7 3.8-.5.8m-2.9-1.1-.1.5-.2-.5.6-4.2m-.2 4.1 1.9-4m-17.2-.9 2.4 4M97.4 54h-.6l2.4 3.8 1.3.1m-1.1.2.2.3m-6.2-7.9 3.1 2.9.3.4.6.2 3.3.1-1-4.3-2.9-.2zm3 3.4h.5v-.1zl-3 .9 1.1 1.1.8 1.5 4 .4.2.3m-7.2 1.6 3.9-.9-.8-1.4-.9-.1m-8.7 3.8.8.8-.7-.8zl-.5-.6-3.1-2.5-6.7 1.9-1.3.4m6 2 5.5-1.2m-.5-.6.6.6 6.4-1.4-3.7-3.6-6.3 1.9-2.4-2-2.4-1.2-7.8 2.1-1.4.4m18.3 4.6 2.2 2.4m7.1-1-3.6-3.6m8.5-5.6 2.3.1m41.4-4.4 5.5 2.6m-5 2.6 1.3.5m-8.1-3 6.8 2.5m-5 2.5-.3.1-6.5-2 4.6-3.2.4.1m-2.3 7.1 2.6.7m-.7-8 .5-.3 6.2-2.2m-6.7 2.6-4.2-1.5-4.1 3.6 3.7 1.1-3.3 2.4 6 1.6m-4.6 2.3 3.8.7m-5.2-4.6-3.3-.9-3.5 3.2 2.8.6zm1.4 3.9-5.4-1-4.2 3.3m-1-12.6 1.5.1m-4-18 4.1.1m.6 5.2-2-.2M80 20.7l-9.5 1.5 2.8 3-12.8 2.3 3.7 3-7.7 2.1 3.6 3 2.1-.7 6-1.1 3.2 2.7-1 .2 1.9.8M48.1 25.8l8.5-1.4-.9-.7M52 29l-.5-.4-3.4-2.9h-.4l-2.2.4m5.5 3 1-.1 8.4-1.6-3.7-3 13.8-2.3M60 35.5l.4.4 1.8-1m-5.9-2.3-.4-.4-1 .8zM52 29l3.9 3.3m-5.9 4L45.3 34l-3.1 2.5 3.8 2.8zm4.9 2.6 5.5-3 3.1 2.5.5-.1 6.3-1.6m-20.8 5.1.6.6 4 1.7-1 .8-2.8 2.2m-.5-5.4-.3.1-3.5-2.6-4.8 3.3-1.2.8m4.9 1 4.6-2.4m-4.6 2.5-1 .5m14.5-4.2 1.8-1.5-1.2.3m-.5 6.8 4.1-3h.2L70 47l.8.6M62.6 43l-2 .7m-10.4-1.3 2.4 1.8m1.9 5 4.1-3m-7.5-17-2.5.4M55 39l-5.1 2.8m1.3-12.5L45.3 34l-5.7-3 8.2-5M64 38.8l-.5-.4-.5.1zl5.7 1.6-6 2.2-1.2.4-1.4-.9-2.7-1.4m5.6-1.9 1.8 1.5M62.6 43l.3.1.9-.6m19.9-.2-4 .4-1.4.6-.7-.4-1-.7-6.8-1.9 5-1.8zm-4 .4-2 .2m-17.4-3.7 1-.9m1.8.1-2.8.8m-23 1.2 5-4.1-5.2-4m.1 8-1.2 1m-6-4.6-.9.5m35.5 17-1.2.5m-4.2-3.2L58 52m22.2 10.3-1.5.3M71 51.9l-6.5 2.4m.3-5.1L59 51.5m-4.7-2.3-.7.5m11-.6L71 52" vector-effect="non-scaling-stroke"/></g></defs><g clip-path="url(#a)"><g transform="translate(106.1 35.4)"><use xlink:href="#b" width="210.7" height="75" transform="translate(-105.05 -34.15)"/><use xlink:href="#c" width="210.6" height="75" transform="translate(-105.1 -34.4)"/></g></g></svg>