<svg xmlns="http://www.w3.org/2000/svg" xmlns:xlink="http://www.w3.org/1999/xlink" width="83" height="292" viewBox="0 0 83 292"><defs><clipPath id="a"><path d="M1 1h81v290H1z"/></clipPath><g id="b"><path fill="#f2f0d2" d="m1.1 13.5 1.2-1.7L24 .4l3-.4 24 12.3.8 1.3-23.1 11.8-3.6.3z"/><path fill="#ede9bc" d="m1.1 13.5 24 12.2-1.7.1 3.3 3.3-.1 247.3L0 263V15z"/><path fill="#e2dd96" d="m25 25.7 3.6-.3-2 3.8-3.2-3.4z"/><path fill="#d2c291" d="m28.6 25.4 23-11.8 1.1 1.8v247.7l-26.1 13.3V29.3z"/><path fill="#dd6f00" d="M53.2 149.5q1.8 1.3 0 3L26.9 166v-3z"/><path fill="none" stroke="#000" stroke-linecap="round" stroke-linejoin="round" stroke-opacity=".3" stroke-width="1" d="M53.2 152.5 26.9 166"/><path fill="none" stroke="#ff9528" stroke-linecap="round" stroke-linejoin="round" stroke-width="1" d="m26.9 163 26.3-13.5"/><path fill="#f3f1d6" d="m29.8 61 10.5-5.5.6.8v5.9l-1 2.5-10.1 5.4-.7-.7v-7.6zm16.9 39.2-4.1 2.2-.4-.3V99l.4-.3 4.3-2.3.3.3v2.5zm-16.8 12.7 10.5-5.5.6.8v5.9l-1 2.6-10.1 5.3-.7-.7v-7.6zm19 72.7L37 191.8l-.8-.9v-8.7l.8-.9 12-6.4.9 1v6.8zm1.8 43-5 2.7-.4-.4v-3.8l.4-.3 5.1-2.8.4.4v3zm-14 1.2 7-3.7.4.8v5l-.7 2-6.7 3.4-.5-.6v-6.3zm1.8 20.3 5.9-3.1.3.4v3.4l-.5 1.4-5.7 3-.4-.4v-4.2zm-9.4-15 5.1-2.8.4.4v3l-.5 1.2-5 2.6-.3-.3v-3.7z"/><path fill="none" stroke="#000" stroke-linecap="round" stroke-linejoin="round" stroke-opacity=".2" stroke-width="__RESOLUTION__" d="M39.9 64.8 29.8 70l-.7-.7v-7.6l.6-.8m16.9 39.2-4.1 2.2-.4-.3v-3l.4-.3m-2.6 18L29.8 122l-.7-.7v-7.6l.6-.8m19 72.7L37 191.8l-.8-.9v-8.7l.8-.9m13.5 47.3-5 2.7-.4-.4v-3.8l.4-.3m-2.3 7-6.7 3.5-.5-.6v-6.3l.5-.7m7.5 22.4-5.7 3-.4-.4v-4.2l.4-.5m-4.4-13.2-5 2.6-.3-.3v-3.7l.3-.5" vector-effect="non-scaling-stroke"/><path fill="#f0edc8" d="M15 64.6V61l.6-.7 4.4 2.2.4 1.1v3.5l-.3.7-4.7-2.2zm4.9 65 .4 1.1v3.5l-.3.7-4.7-2.2-.3-1V128l.5-.6zm1 37.8.4 1v3.5l-.4.7-4.6-2.2-.4-1v-3.6l.6-.6z"/><path fill="#f3f1d6" d="M2.9 85.7v-6.5L4 77.7 14.3 83l.8 1.5v8.1l-1.3.9-9.5-4.7zm.9 79.5v-5l.9-1.1 8 4 .6 1.2v6.2l-1.1.7-7.2-3.6zm4.5 41.4v-4.9l.8-1.2 8 4 .6 1.3v6.1l-1 .7-7.2-3.6z"/><path fill="none" stroke="#000" stroke-linecap="round" stroke-linejoin="round" stroke-opacity=".2" stroke-width="__RESOLUTION__" d="m15 64.6.4 1 4.7 2.2.3-.7v-3.5l-.4-1.1m-5.7 20.4.8 1.5v8.1l-1.3.9-9.5-4.7-1.4-3m12.2 46 .3 1 4.7 2.2.3-.7v-3.5l-.4-1.1m-7.3 33.5.6 1.2v6.2l-1.1.7-7.2-3.6-1.2-2.4m12.2 4.2.4 1 4.6 2.2.4-.7v-3.5l-.4-1m-4 37.1.6 1.3v6.1l-1 .7-7.2-3.6-1.2-2.4" vector-effect="non-scaling-stroke"/><path fill="#f8f7d1" d="m.9 13.5 1-1.6 1.9-.9 2.6 2-2.3 2zm3.2 1.6L6.4 13l-2.7-2 10.1-5.1 4.8 2.6-7 3.8-1.4.7 7.4 4-4.4 2.4-.4.2zm34.4-9.4L42 7.4l4.4 2.3 4.1 2.2 1.2 1.7-11.6 6-.4.2-.5-.3-5-2.7 7.5-4-1.4-.8-1.6-.8-5.1-2.8zm7.8 4h-5.6l1.1-2.2-1.1 2.1zm-7.6 1.4 2-1.6zM6.4 13l2.3 1.6z"/><path fill="#f9f8db" d="m13.8 5.9 4-2L24.4.5l5.1.5 9 4.7-5 2.7-7.4-4-2.7 1.4-1.8-1 1.8 1-4.8 2.7zm7.1-.4L17.8 4z"/><path fill="#fbfae6" d="m39.6 19.8-.5.2-4 2.1-.4.1-.2.2-7.6 4-.6.2-13-6.7-.6-.3.6-.2 4.3-2.4 8 4.4 3.6-1.9.2-.1 1.1-.6.4-.2 3.2-1.8 5 2.7zm-4.9 2.4-5.3-2.8zm4.4-2.8v.5zm-25.9.4v-.5zm13.6 6.5-.6.2z"/><path fill="#fae8b8" d="m11.6 12.3 7-3.8 4.8-2.7 2.7-1.4 7.4 4 5.1 2.8 1.6.8-14.5 8zm15.7-4.1-1.9-1.9-2-.5 2 .5zm2.3 5.4-.4 1-3.6-.1v-1.7 1.7h3.6zm-12.4-.3 3 1.6 4.6-.7-.6-1 .6 1-4.6.8z"/><path fill="#f5d681" d="m40.3 12 1.4.8-7.6 4-3.2 1.8-.4.2-1.1.6-.2.1-3.6 1.9-8-4.4-7.5-4 1.5-.7 14 7.6z"/><path fill="none" stroke="#000" stroke-linecap="round" stroke-linejoin="round" stroke-opacity=".3" stroke-width="1" d="m.9 13.5 3.2 1.6 8.7 4.5.5.3 13 6.7.6-.2 7.6-4m17.1-8.7L40 19.5m-.4.2-.5.2-4 2.1m-23.5-9.8 7-3.8-4.8-2.6m19.7 2.5-7.4-4-2.7 1.4-4.8 2.7M40.3 12l-1.6-.8-5.2-2.8 5-2.7m1.8 6.3 1.4.8-7.6 4 5 2.7.5.3m-5.5-3-3.2 1.8m-.4.2-1.1.6m9.8.6v-.5m-10 0-3.6 1.9-8-4.4-4.4 2.4.1.5m-.6-.3.6-.2m-1.7-7.1-1.4.7 7.4 4"/><path fill="none" stroke="#000" stroke-linecap="round" stroke-linejoin="round" stroke-opacity=".2" stroke-width="__RESOLUTION__" d="M4.1 15.2 6.4 13l-2.7-2m19.8-5.1 2 .4 1.8 1.9m-3.9-2.3-1.8-1.1m-3.9-.9L21 5.5m21 2-1.2 2.1 5.6.2m-5.6-.2-2 1.6m-9.3 8.2 5.4 2.9m-9.2-9.5v1.7h3.6l.4-.9m-5.4-.5.6 1.1-4.6.8-3-1.7m12.2 6.1-.2.1M8.7 14.6l-2.3-1.7" vector-effect="non-scaling-stroke"/><path fill="#837549" d="m69.5 128 2 1 .1.1-22.7 11.6-6.8.2-15.3-8L53 119.5l2 1 12 6.2z"/><path fill="#a79661" d="m71.6 129.1 2.9 10.8 1.2 4.8-23 11.9-3.2 1.5-3.6-13.4 3-4z"/><path fill="#000" fill-opacity=".3" d="M52.8 156.6v19l-6.9 3-19.2 10.5v-25l7.3-3.7 2.3-1.2.7 1.4 12.5-2.3v-.2z"/><path fill="#e6ddc1" d="M26.7 164.1h.1v-31.2l15.3 8 3.5 4.1.3-.3 3.6 13.4v.2L37 160.6l-.7-1.4-6.1-12.9-.8-1.8 1-.5 1.2-.5 8.2 4 .2.1 1.4 3.5v.1l-3.6 1.5.4 1.6 5.4-2.8-.4-1.2-1.4-3.8-8.5-3.8-1.8.8-1.1.5-1 .5.8 1.8-1.5 1.4 5.3 12.7z"/><path fill="#947d3a" d="m31.5 143.5 1.8-.8 8.5 3.8-2 1z"/><path fill="#77652f" d="m41.8 146.5 1.4 3.8-1.9.8-1.3-3.5-.2-.1z"/><path fill="#4e421f" d="m43.2 150.4.4 1.1-5.4 2.8-.4-1.6 3.6-1.5z"/><path fill="#d5c699" d="m30.2 146.3 6.1 12.9-2.3 1.2-5.3-12.7z"/><path fill="#dacda5" d="m45.9 144.7-.2.3-3.6-4.2 6.8-.1z"/><path fill="none" stroke="#000" stroke-linecap="round" stroke-linejoin="round" stroke-opacity=".3" stroke-width="__RESOLUTION__" d="m74.5 140 1.2 4.7-23 11.9-3.2 1.5v.2L37 160.6l-.7-1.4-6.1-12.9-.8-1.8 1-.5 1.2-.5h-.1l1.8-.8 8.5 3.8h0l1.4 3.8.4 1.2-5.4 2.8M26.7 164h.1v-.2m0-31h-.1zl26.4-13.4 2 1m12 6.2 2.4 1.3M30.5 144l1-.6.1.1m4.8 15.7-2.3 1.2-7.3 3.7" vector-effect="non-scaling-stroke"/><path fill="#dd6f00" d="M52.9 116.5q1.9 1.3 0 3L26.6 133v-3z"/><path fill="none" stroke="#000" stroke-linecap="round" stroke-linejoin="round" stroke-opacity=".3" stroke-width="1" d="M52.9 119.5 26.6 133"/><path fill="none" stroke="#ff9528" stroke-linecap="round" stroke-linejoin="round" stroke-width="1" d="m26.6 130 26.3-13.5"/></g></defs><g clip-path="url(#a)"><use xlink:href="#b" width="76.1" height="276.4" transform="matrix(1.0568 0 0 1.049 1 1)"/></g></svg>