<svg xmlns="http://www.w3.org/2000/svg" xmlns:xlink="http://www.w3.org/1999/xlink" width="56" height="71" viewBox="0 0 56 71"><defs><clipPath id="b"><path d="M1 1h54v69H1z"/></clipPath><use xlink:href="#a" id="c" width="53.8" height="68.4"/><g id="a"><path fill="#000" fill-opacity=".3" d="m0 54.9 26.5-13.3L53.8 55 26.4 68.4z"/><path fill="#3d3420" d="m25.7.4 2.9-.3 3.6.8 3.1 1.7.2 1.2-6 3.1q-1.9.7-3.4.3h-.2L21 4.3 20.8 3zm10.5 12.4.3.2 1.3 2-6.8 3.5-7.2.9-7.5-4.2 2.5-2.7 5.4-2.9.7-.2 1.3-.3 3.6.3z"/><path fill="#18160c" d="m35.3 2.6.9 1.3H36l-.5-.1zm-17.8 57-2 .7 1-3.5v-.1l.1.2zM29.5 7q-1 1.3.4 2.4l-3.7-.2V7.3q1.5.3 3.3-.4m1.1 27.2-.5-1.2-.6-3.8 2 3.3.2 1.1.5 4.5zm6.8-3.4 1.7-2.6 1.6 1zM33.9 39l.1-4.4 1.3 3.6v6zm-6.4 11.8L26.4 53 25 50.6h.3zm9-2.9-1.2-1 1.2-.7zM26.3 35.3h1.9l-2 .9-1.5-.9zm-4.9 13H21l-.9-.4zm-6.4-20 1.8 2.8-2.8-1.6z"/><path fill="#201e11" d="m36 3.9.2 8.9-6.4-3.4v-.1q-1.5-1.1-.4-2.4l6.1-3.2zm11.4 21.7h.1l1 1.5v11L47 40.7l-10.6 5.5-1.2.6-1.9 1q-2.9 1.6-5.9 3l-2.3-.1-.4-.3-.3-.1-3.6-2h.6l4.8 1.9v-14l1.9-1 2.3-1.1L32 38l-.5-4.5 5.7-2.7 3.3-1.7zM33.9 39l1.4 5.3v-6L34 34.7zM23.7 19.4l7.2-.9-4.7 6z"/><path fill="#282515" d="m37.8 15 1.2 1.8V28l-1.7 2.6-5.7 2.8-.2-1.1-2-3.3.6 3.8.5 1.2-2.3 1.1-2 .1V24.6l4.8-6.1zm9.4 25.8 1.3 1.2v8.6l-4.5-3-2.8 8.3-1.5.3h-3.2v-9.9zM18.8 12.5l-2.6 2.7-1.2 5.6v-6.3z"/><path fill="#1b1a0e" d="m39 21 8.4 4.6-6.8 3.5-1.6-1zm-5.6 27 1.9-1 1.2 1v8.3h-3l-7.2 7V53l1.2-2.2q3-1.4 5.9-3"/><path fill="#15190d" d="M48.5 50.5V53L47 55.9l-9.3 4.7-1.2-.7-.9 1.8-7.5 3.8h-1.9v-2.4l7.3-6.9h3l3.2-.2 1.5-.2 2.8-8.2z"/><path fill="#212816" d="M26.3 65.5h-1.4l-6.8-3.7-.7-2.2-.7-2.7q6.4-5 7.5 4.8l1.7 1.8.4-.4zm-10.9-5.2-7.6-4.2-.9-2.7v-3.8l.5 2.8 1.5-2 3.3-.3 1.1 6.6 1.7-2.9 1.5 3z"/><path fill="#332b1c" d="M6.9 49.6v-9l1.2.6L11 43v6l1.3-5.3 4.2 2.2v10.9l-1.5-3-1.7 3-1-6.7-3.4.3-1.5 2zm0-16.2v-.7l3-5.5.7.4 2.2 1.3zm9.4-18.2 7.5 4.2 2.4 5.2v10.7h-1.5l-7.9-4.2-1.9-2.9v-7.4z"/><path fill="#57492d" d="m6.9 40.6.9-.4.3 1zm0-26.7v-.2l4.5-5.8 1.7 5.8zm13-9.3 1-1.6.1 1.5z"/><path fill="#2e2719" d="m7.8 40.2-.9-2.7v-4.1l6-4.5 1.1.6 2.8 1.6 7.9 4.3 1.5.8.1 14-4.9-1.9-1.2-.4-3.7-2-4.2-2.2L11 49v-6l-2.9-1.7z"/><path fill="#3a3120" d="M10.6 27.7 8 26.2l-1.1-2V13.7l6.2-.2 1.8.9v13.8l-.9 1.2-1.2-.6zM26.4 53v10l-.4.4-1.7-1.9Q23.1 52 16.7 57l-.2-.2V45.9l3.6 2 .8.4 3.6 2 .3.1.1.3z"/><path fill="#463b24" d="m11.4 7.8 6-3.2 2.6-.1h1L25.9 7q.6.5-.9 2.2l-.7.3-5.5 2.9-3.9 2-1.8-1z"/><path fill="#2c2516" d="M26.1 7.3V9l-1.2.3.1-.2q1.4-1.6.9-2z"/><path fill="none" stroke="#000" stroke-linecap="round" stroke-linejoin="round" stroke-opacity=".3" stroke-width="__RESOLUTION__" d="m25.7.4 2.9-.3 3.6.8 3.1 1.7.2 1.2h.7m11.3 21.8 1 1.5v3.4m0 4v3.6L47 40.7l1.4 1.2V53L47 55.9M6.9 13.8v-.2m13-9.1 1-1.6.1 1.5zm9.8 4.9q-1.5-1.1-.4-2.4-1.8.7-3.3.3v2zm5.5 37.5-1.9 1m-5.9 2.9-1 2.2-1.4-2.4-.1-.2-.3-.1m12-2.4-1.2-1 1.2-.7zM26.1 9.2l-1.2.3-.6.1.7-.3-.1.1m1.4 25.9h1.9l-2 .9h0m-1.4 14.2.4.3 2.3.1M26 7.2h.2m-1.1 2q1.4-1.6.9-2m-11 21 2 2.9m7.8 4.3 1.6-.1M14 29.5l1-1.2m11.2 7.9-1.5-.9m-16.5 6-1.3-.7m1.2.6-.3-1m17.1 10.4h.3M21 48.4l-.9-.4" vector-effect="non-scaling-stroke"/><path fill="none" stroke="#3b391f" stroke-linecap="round" stroke-linejoin="round" stroke-width="__RESOLUTION__" d="M6.9 53.4V40.6l.9-.4-.9-2.7v-4.8M8 26.2l-1.1-2V13.7m0-.2 4.5-5.8 6-3.2 2.6-.1m.8-1.6 5-2.4" vector-effect="non-scaling-stroke"/><path fill="#290704" fill-opacity=".5" d="m22 20.3-.3.2Q18.8 22.6 26 25l.5 1.4q-6.7-3.9-6.5-.5-5.2 18.6-1.1 36.6l-4.7-2.7q3.3-10.6 1.1-32.9l-.1-.5q-.7-4.2-4.8 1.5l-1-1.4q5.8-3.7 1.9-6.2v-1.4q5.4 3.4 4.2-2.1l.4-1.2q1.5 6.2 6.4 3.3zm-11.9-1.7-2.3.3.6-1zm12.4 8.1 2.4.9-.6 1.3zm-8.9 31.7L12 55l1.5.1zm6.2 2.2.7-3 .8 1.2z"/></g></defs><g clip-path="url(#b)"><use xlink:href="#c" width="53.8" height="68.4" transform="translate(1 1)"/></g></svg>