<svg xmlns="http://www.w3.org/2000/svg" xmlns:xlink="http://www.w3.org/1999/xlink" width="56" height="62" viewBox="0 0 56 62"><defs><g id="c"><path fill="#353320" d="M51.7 2v6.4l-3 1.4V3.6zM26.5 14.8l4-2v6.8l-4 .9zm-22-11 2.1-.9.4.2v18l-2.5-3.9z"/><path fill="#252416" d="M51.7 8.4V19l-3-.4V9.9zm-3-6.5 3-1.5V2l-3 1.5zM26.5 14.7l-2.6-1.2-1.1-.7v-1.7l3.7 1.8 4-2v1.8zM25 30q.9-1.4 1.5.3v5.8l-2.3 1.1-1.4-1V27zm1.5-2.9v-6.8l4-.9v9zm4 11.5v.7l-1.1-.9zM4.6 3.7l-1-.6-1.9-1V.3l5 2.5z"/><path fill="#2e2d1b" d="M51.7 19v7.2l-3 1.4v-8.9zM26.5 30.4v-3.1l4 1.2v10.3l-1.1-.2-2.9-.6z"/><path fill="#444128" d="m48.7 25-2 1 .2-15.1v-.2l-.1-7.2h1.9zm-26-12.1 1.3.5q0 7.7 1 16.7l-2.2-3zM3.6 3.3l.9.4v14.5l-1.6-.8.1-1.5q.8-8.5.5-12.6"/><path fill="#585534" d="m46.7 26-1.3.6V3.4l1.4.1.1 7.3v.1z"/><path fill="#434029" d="m45.4 3.5 3.3-1.7v1.7z"/><path fill="#393722" d="m24 13.5 2.5 1.2v15.7q-.6-1.6-1.5-.3-1-9-1-16.7M1.6 2.3l2 1q.2 4.1-.6 12.6v1.5l-1.3-.7z"/><path fill="none" stroke="#000" stroke-linecap="round" stroke-linejoin="round" stroke-opacity=".3" stroke-width="__RESOLUTION__" d="M51.7 2v24.2m-6.3.4V3.4M51.7.3V2M30.4 12.9V11m-7.6.2v25.1m7.6-16.7v-6.7m0 6.7v19.3M1.6.3v16.3M7 21V3" vector-effect="non-scaling-stroke"/><path fill="#413f29" d="M25.1 36.6q-5.6-3.5-13.7-14.2Q6.2 16.1.3 11.5V9.3l15.8 15 .3.3q3.8 5.3 8.6 9.4z"/><path fill="#49462e" d="M.3 11.5q5.9 4.6 11 10.9 8.3 10.8 13.8 14.2v2.3L.5 15.6zM25 34q-4.8-4-8.6-9.4l8.4 7.8.2.2z"/><path fill="#2d291c" d="M25.1 36.6 25 34v-1.4l-.2-.2 1.7.6.3 6.5-1.6-.6z"/><path fill="#615c3d" d="m16.4 24.6-.3-.4 1.3.1 9.1 8.7-1.7-.6z"/><path fill="#514d33" d="M16.1 24.3.3 9.3l2.3 1 14.8 14z"/><path fill="none" stroke="#000" stroke-linecap="round" stroke-linejoin="round" stroke-opacity=".3" stroke-width="__RESOLUTION__" d="M.4 9.4H.1l.1 1.9m0 .2.1 4 25 23.5 1.6.6-.3-6.5h0l-9.1-8.7-14.8-14-2.2-1H.2h0" vector-effect="non-scaling-stroke"/><path fill="#3e3a26" d="M1 13.2q0-.4.2-.6l.4.2.3.4v.8l-.1.4h-.4l-.3-.6zM23 34q0-.4.2-.5.1-.1.4.1l.3.5v.8l-.1.4h-.3l-.4-.7z"/><path fill="#353320" d="M52 21.6v6.2L28.2 40v-6.2l.2-.1z"/><path fill="#565034" d="m52 21.6-23.5 12-1.7-.1v-.1l23-11.9z"/><path fill="#3e3a26" d="M28.5 33.7h-.2V40h-1.6l.1-6.5z"/><path fill="none" stroke="#000" stroke-linecap="round" stroke-linejoin="round" stroke-opacity=".3" stroke-width="__RESOLUTION__" d="m28.3 40 23.6-12.2.1-6.2h0l-2.2-.1-23 11.9h0V40zm23.6-18.4.1-.1h0" vector-effect="non-scaling-stroke"/><path fill="#292718" d="M29 36.1q0-.4.2-.7l.3-.4h.3l.1.6-.1.7-.3.4h-.3zm21.2-10.9.1-.6.3-.5q.1-.1.3.1l.1.6v.6l-.4.5-.3-.1z"/><path fill="#565034" d="M27 15.3V15L49.3 4l2.2.2-22.9 11.3z"/><path fill="#3e3a26" d="m27 15.3 1.6.1-.2.2v6.2l-1.5-.1z"/><path fill="#353320" d="M28.6 15.5 51.5 4.1l.1-.1-.1 6.3-23.1 11.4v-6.2z"/><path fill="none" stroke="#000" stroke-linecap="round" stroke-linejoin="round" stroke-opacity=".3" stroke-width="__RESOLUTION__" d="M51.5 4.2 49.3 4 27 15.1v.2l-.1 6.4 1.5.1 23.1-11.5.1-6.2h0zh.1" vector-effect="non-scaling-stroke"/><path fill="#292718" d="M29.2 18v-.7l.4-.4h.3l.1.6-.1.7-.2.4-.4-.1zM49.8 7.9l.1-.7q.1-.3.4-.4l.2.1.1.5v.8l-.3.3h-.4z"/></g><g id="b"><path fill="#666240" d="M48.4 16.5h.1zl-2 1q-.8-.5-5-1.7t-6.6-3.3-6.9-3.7-8.2-4.7l2.4-1.2zm4-2.7q-5.2-.5-9.4-2.8t-5.2-2.6l-2-.5-1.7-.3q-2.4 0-4.7-1.8l-1.9-2.4q-2.8-1.4-4.4-1L26.8.5l11.5 6zm-37-7.4q6 5.3 13.2 9.9l.1.1q2.4 1.6 8.8 3.4l2.9.8-2.5 1.3-6.1-3q.6 1.4 1.6 2.3 1 1 2.6 1.7l-1.6.8h-1.8q-1.6-.7-3.2-2.8v-.1q-1.9-2-8.1-5.5l-.3-.1-.2-.1q-6.4-3.7-13.2-4.8l3.2-1.7 8 4-6.1-4.9zM3.7 12.3l1.8-.9 7 3.7 4.5 2.5q8.4 4.9 12.6 8.5l-3.1 1.6-10.6-5.6-2.6-2.6q-4.5-4.2-9.6-7.2"/><path fill="#555135" d="M48.5 16.5 22.2 2.8l.9-.5q1.6-.4 4.4 1l1.9 2.4q2.4 1.9 4.7 1.8l1.6.3 2 .5q1 .3 5.3 2.6t9.5 2.8l.3.2.3.2h-.2zM19.7 4.1q3.7 3 8.2 4.7 4.5 1.6 6.9 3.7 2.4 2 6.6 3.3t5 1.7l-3.2 1.7-.2.1-1.3.7-6.4-3.5-1.4.8 3.6 2.5q-6.4-1.8-8.7-3.4l-.2-.1q-7.2-4.6-13.3-10zm-7 3.6 6.1 4.9-8-4zm-5.1 2.6q6.8 1 13.2 4.8l.2.1.3.2q6.2 3.4 8 5.4l.1.1q1.7 2.1 3.2 2.8h1.8l-2.7 1.4-.4.1-1.7.9q-4.2-3.6-12.6-8.5L12.4 15l-7-3.6zM36 22.9q-1.6-.6-2.6-1.7-1-1-1.6-2.2l6.1 2.9-.3.1zM.7 14.1.4 14l3.2-1.7q5.1 3 9.6 7.2l2.5 2.6z"/><path fill="#44433c" d="m46.4 17.5 2-1V21L43 23.7v-4.4l.2-.1zm-12 6.2 1.6-.8 1.6-.9v4.3l-6.3 3.2v-4.2l.3-.2z"/><path fill="#353320" d="M48.4 16.5h.1l4.4-2.2v4.3L48.5 21zM41.7 20l1.3-.7v4.3l-5.4 2.7V22l.3-.1 2.5-1.2zm-12.1 6.1 1.7-.9v4.3l-4.8 2.4v-4.2z"/><path fill="#423f28" d="m40.4 20.7-2.9-.9-3.6-2.5 1.5-.8 6.3 3.5z"/><path fill="#656356" d="M5.5 21.2.7 18.8v-2q4.2 2.5 4.8 4.4m12.9 6.6q3.9-.3 8.1.8V32z"/><path fill="#4b4a41" d="M.7 16.8V14l15.2 8 10.5 5.6h.1v1q-4.2-1.2-8.1-.9l-13-6.6Q5 19.3.7 16.8"/><path fill="none" stroke="#000" stroke-linecap="round" stroke-linejoin="round" stroke-opacity=".3" stroke-width="__RESOLUTION__" d="M48.5 16.5h.1m4.6-2.3-.4-.2M43 19.3l.2-.1m-.2 4.4 5.4-2.7 4.6-2.2-.1-4.4m-15 7.6-.3.1m0 4.3 5.4-2.7m-11.7 1.6.3-.1M5.5 21.2.6 18.8V14H.5m5 7.2 12.9 6.6 8.1 4.1 4.8-2.4 6.3-3.2" vector-effect="non-scaling-stroke"/><path fill="none" stroke="#827c51" stroke-linecap="round" stroke-linejoin="round" stroke-opacity=".5" stroke-width="__RESOLUTION__" d="M19.7 4.1q3.7 3 8.2 4.7 4.5 1.6 6.9 3.7 2.4 2 6.6 3.3t5 1.7m6-3.6q-5.2-.6-9.4-2.9t-5.2-2.6l-2-.5-1.7-.3q-2.4 0-4.7-1.8l-1.9-2.4q-2.8-1.4-4.4-1M7.6 10.3q6.8 1 13.2 4.8l.2.1.3.2q6.2 3.4 8 5.4l.1.1q1.7 2.1 3.2 2.8h1.8M3.7 12.3q5.1 3 9.6 7.2l2.5 2.6" vector-effect="non-scaling-stroke"/><path fill="none" stroke="#746f48" stroke-linecap="round" stroke-linejoin="round" stroke-opacity=".5" stroke-width="__RESOLUTION__" d="M37.5 19.8q-6.4-1.8-8.7-3.4l-.2-.1q-7.2-4.6-13.3-10m25.1 14.3-2.9-.8" vector-effect="non-scaling-stroke"/><path fill="none" stroke="#44433c" stroke-linecap="round" stroke-linejoin="round" stroke-width="__RESOLUTION__" d="M.7 16.8q4.2 2.5 4.8 4.4m12.9 6.6q3.9-.3 8.1.8" vector-effect="non-scaling-stroke"/><path fill="#555135" d="m52.3 14 .3.2.4.1-4.6 2.3L22 3l1-.5q1.6-.4 4.3 1l.8.9 1.1 1.5q2.3 1.8 4.6 1.8h.2l1.6.4 2 .5q1 .2 5.3 2.6 4.2 2.3 9.4 2.8m-6 3.7L43 19.3l-2.9 1.5-2.9-.8q-6.3-1.9-8.7-3.5h-.2q-7.1-4.7-13.2-10l1.6-.8 2.8-1.5q3.6 3.1 8.1 4.8t6.9 3.7 6.6 3.3 5 1.7M37.8 22l-1.9 1q-1.5-.6-2.6-1.7-1-.9-1.6-2.2zm-3.5 1.7-2.7 1.4-2 1q-4.2-3.6-12.7-8.4l-4.5-2.6-7-3.6 2.2-1.1q6.8 1 13.2 4.7l.1.2.3.1q6.2 3.4 8.1 5.4v.1q1.7 2.2 3.2 2.8zm-18.5-1.6L.3 14.2l3.3-1.6q5.1 3 9.5 7.2zm-5-13.5 1.8-1 6.1 5zm15.1-5.3 2.4.9zm-.5 6.6-1.6-.8V9l-1.9 1.7zl17.9 9.2zm-.2 11-1.8-.9 1-1 5 1.8-5-1.8-1 1zM21.6 19l1.8 1zm-2-2.2 4.8 2.1zm-7.3-1.9 19.2 10zm4.4-9.5 6.9 3.5z"/><path fill="#666240" d="m48.4 16.7-2.1 1q-.9-.5-5.1-1.7-4.2-1.3-6.6-3.3-2.4-2.1-6.9-3.7t-8.1-4.7L22 3zm-8.1 4.1L37.8 22l-6.1-2.9q.5 1.3 1.5 2.2 1 1.1 2.6 1.7l-1.6.8h-1.8q-1.5-.6-3.1-2.8h-.1q-1.9-2-8-5.5l-.4-.2-.2-.1q-6.4-3.7-13.2-4.7l3.2-1.7 8 4 13 6.3-13-6.4-6-4.8 2.6-1.4q6.1 5.3 13.3 10h.1q2.4 1.6 8.8 3.5zm-10.8 5.4L28 27l-1.8.8-10.6-5.6-2.6-2.5q-4.4-4.2-9.5-7.2l1.7-1 7 3.7 4.5 2.6q8.5 4.8 12.6 8.5M23 2.6l3.6-2 11.5 6L52.4 14q-5.2-.5-9.4-2.8-4.3-2.4-5.3-2.6l-2-.5-1.6-.3h-.2q-2.3 0-4.5-1.9L28 4.4l2 .8 3.6 2.6L30 5.2l1.5-.8L38 7.9l-6.4-3.5-1.5.8-2-.8-.8-.9q-2.7-1.3-4.4-1m6.8.9 1.9 1zm-8 20.4 6.5 3.1z"/><path fill="#3e3a26" d="m23.7 9.3 1.5.8-3.4.8z"/><path fill="none" stroke="#000" stroke-linecap="round" stroke-linejoin="round" stroke-opacity=".3" stroke-width="__RESOLUTION__" d="m52.6 14.2.4.1-4.6 2.3L22 3m6 1.4-2.3-.9M38 8l-6.4-3.5-1.5.8 3.6 2.6M28 4.4l2.1.8M25.3 10l-1.6-.8m1.6.8 17.9 9.2M29.3 21l-5-1.8-1.1 1 1.8 1m-1.8-1-1.7-.9M37.8 22l-6.1-2.9-13-6.4-8-3.9m20.9-4.4-2-1M12.3 15.2l-7-3.6M28.1 27l-6.5-3.2m2.6-4.6-4.6-2.1m11.9 8.1-19.2-10m11.3-6-6.9-3.5" vector-effect="non-scaling-stroke"/><path fill="none" stroke="#827c51" stroke-linecap="round" stroke-linejoin="round" stroke-opacity=".5" stroke-width="__RESOLUTION__" d="M52.3 14q-5.2-.5-9.4-2.8-4.3-2.4-5.3-2.6l-2-.5-1.6-.3h-.2q-2.3 0-4.5-1.9L28 4.4l-.8-.9q-2.7-1.3-4.4-1m-3.3 1.8q3.6 3 8.1 4.7 4.6 1.6 6.9 3.7 2.4 2 6.6 3.3t5 1.7M7.5 10.5q6.8 1 13.2 4.7l.1.2.3.1q6.2 3.4 8.1 5.4v.1q1.7 2.2 3.2 2.8h1.8M3.6 12.5q5.1 3 9.5 7.2l2.6 2.6" vector-effect="non-scaling-stroke"/><path fill="none" stroke="#746f48" stroke-linecap="round" stroke-linejoin="round" stroke-opacity=".5" stroke-width="__RESOLUTION__" d="M15.2 6.5q6.1 5.3 13.3 10h.1q2.4 1.6 8.8 3.5l2.9.8" vector-effect="non-scaling-stroke"/><path fill="#a29f91" d="M46.4 17.5 43.2 19l-5.4 2.7-27-13.2 6-3.1 2.6-1.3.3-.2Q23 7.3 30 10.7l4 1.9 1.9.5q7.5 2.3 10.4 4.4m-12.1 6.1L31.6 25l-5.5-2.9L5.4 11.3l2.1-1.1q6.9 1 13.3 4.8l.1.1.4.2q6.1 3.4 8 5.4 1.6 2.3 3.2 2.8zM15.8 22 .4 13.9l3.3-1.7q5.1 3 9.6 7.3zm7.3-19.7L26.7.4l11.5 6 14.2 7.4q-6.7.2-14.9-4.5l-.2-.1L35 8.1l-1-.6-3.7-2.4L26 3.5zm16.7 6.3-7.9-4.2L30 3.3l2 1zm-17.4 2.6-1.8-.9 1-1 5 2.3-5-2.3-1 1zm9.5-6.8-1.4.7zm-20.5 8.5 8 3.7zm9.2-2.5-1.7-.9zm-3.7-3.5 4.8 2.5zm0-1.3L43.3 19z"/><path fill="#817e6d" d="m37.9 21.8-3.6 1.8h-1.8q-1.6-.7-3.2-2.9-1.9-2-8-5.4l-.4-.2-.1-.1q-6.5-3.7-13.2-4.8l3.2-1.6zM29.7 26l-3.2 1.6L15.8 22l-2.6-2.6q-4.4-4.2-9.5-7.2l1.7-.9 20.7 10.8zm-10-22 2.5-1.2 1-.5L26 3.5l4.5 1.6 3.7 2.4 1 .6 2.1 1.1.3.2q8.2 4.6 14.9 4.4l.3.1.4.2-4.6 2.3-2.1 1q-3-2-10.4-4.3l-2-.5-4-1.9Q23.2 7.3 19.7 4m2.5-1.2 26.4 13.6z"/><path fill="#423f28" d="m31.6 25-2 1-3.5-3.9z"/><path fill="none" stroke="#000" stroke-linecap="round" stroke-linejoin="round" stroke-opacity=".3" stroke-width="__RESOLUTION__" d="m.4 13.9 3.3-1.7 1.7-.9 2.1-1.1 3.3-1.6 6-3.1 2.6-1.3m.3-.2L22 2.8l1-.5L26.7.4l11.5 6h0l14.2 7.4" vector-effect="non-scaling-stroke"/><path fill="none" stroke="#000" stroke-linecap="round" stroke-linejoin="round" stroke-opacity=".3" stroke-width="__RESOLUTION__" d="m52.7 13.9.4.2M34 7.5l-3.7-2.4L26 3.5m3.9-.2 2 1 7.8 4.3m-13.2 3-5-2.3-1 1 1.8.9m8.1-6.1 1.4-.7M31.7 25l-5.5-2.9L5.4 11.3m13.9 5.3-8-3.8m7.5-3.4 1.7.9m1-1-4.7-2.5m21 15-27-13.2M43.2 19 16.8 5.4m31.7 11L22 2.8" vector-effect="non-scaling-stroke"/><path fill="none" stroke="#686657" stroke-linecap="round" stroke-linejoin="round" stroke-width="__RESOLUTION__" d="M46.4 17.5q-3-2.2-10.4-4.4l-2-.5-4-1.9Q23.2 7.3 19.7 4m32.8 9.8q-6.7.2-14.9-4.5l-.2-.1L35 8.1l-1-.6m-8.2-4L23 2.3M7.6 10.2q6.8 1 13.2 4.8l.1.1.4.2q6.1 3.4 8 5.4 1.6 2.3 3.2 2.8l1.8.1M3.7 12.2q5.1 3 9.6 7.3l2.5 2.5" vector-effect="non-scaling-stroke"/></g><clipPath id="a"><path d="M1 1h54v60H1z"/></clipPath></defs><g clip-path="url(#a)"><g transform="translate(26.15 13.05)"><use xlink:href="#b" width="53.4" height="32.2" transform="translate(-25.15 -12.05)"/><use xlink:href="#c" width="52.3" height="40.3" transform="translate(-25.15 6.95)"/></g></g></svg>