<svg xmlns="http://www.w3.org/2000/svg" xmlns:xlink="http://www.w3.org/1999/xlink" width="71" height="87" viewBox="0 0 71 87"><defs><clipPath id="a"><path d="M1 1h69v85H1z"/></clipPath><g id="b"><path fill="#6c6448" fill-opacity=".3" d="m65.9 70.1 1.4-3.3.5 1.1.3 1.5L68 71l-.2 2.2v.5q.9 3.5-3.1 6.3.5-1.9.5-4.8l-.1.2q-1.4 3.3-3.1 4.5l-.2-.2-.1-3.2-.2.2-1 2.8-1.2-4-1 4.3-.8 3.4q-5.2 1.5-12.1 1.6-10.4.1-18.5-3-8.1-3-9.2-7.6t5.5-7.7q2.4-1.2 5.4-2 5-1.4 11.6-1.4 6.8-.1 12.6 1.2 3.1.7 5.9 1.7 4.8 1.9 7.2 4.2"/><path fill="#814701" d="m62 43.3.3.7-1.4.3-.4.1-.4.1-1.1.3v.2l.6 1.4.6-.3 1.4-.7 1-.5.3.6-.2.2-.4.3-.1.1-1.7 1.2-.1.1-.4.2v.1l.5 1.6-1 .3h-.2L58.2 47l-.3-.5-1.2-2.1-3.2 2.3-2.2-2.6-2.1-2.1q1-2.1 1.1-4.7l.2.1.6-.5 1.2.8.6-.4.5-.3 1.6-1h.7l.6-.1 1.2 1.1-3.2 1.6-.6.3 1.5 1.4.9.8q1.1.9 2 2.2zm.6 23.2-.2.5-.4.6-1.1-.3.3-1.9 1 .1.5.1zM32 79.6l-.7-.1h-.4q0-2.4 2.5-4.5l1 .6q-1.4 1.7-2.2 3.9zM19 66.1q1.1-1.2 3-2.5l3.1-1.9h.4l6.9-1.3 2.2-.3-.1.2.4 1.8h-2q-3.6.2-6.2 1.1-2.4.8-4 2.2L20 67.9zm29.7-35.9.6.2-1.1 2.6-.8 2.1-1-.5V33l.8-.9zm8.7 13.2h.6zM47 49.7q0-.7-2-2.8l1.8-1.6q1.9 1.6 3.1 3.3zm-3.7-1.8q1.7 1.6 2.6 2.1l-1.6.5-1.1-1.1-1-.9zm10.8-6.8 1-.8zM52 38.8l-.5-.5-1-.9 1 1zM63.9 50l.2.5-2.7 2.6-.3.2-.5.4-.3-1.5-.3-.8.9-.4zm-2.5 8.7-.2-2.1h.2l2.4-.5.1.4.6 1.4-1.2.3-1.7.4zm-21 7.1-2.5 1.7-2-.1q-2.7 0-5.3 1.3L27 71q-2 1.3-3 2.8l-2.2-1.7 2.5-.9q-1.2-.4-2.3-1.3 1.3-1.3 3.3-2.5l3.2-1.5q3.2-1.3 7-1.8l1.5-.2z"/><path fill="#9a5501" d="m62.3 44 .3.8v.1l-1 .5-1.4.7-.6.3L59 45v-.2l1.1-.3.4-.1.4-.1zM62 67.6l-1.7 2.7-1.7 2.6 1-1.8-.7-.2h-.1l.6-2.6.3-1.6.1-1q.8-4.6.8-6.5l-.1-.4-.2-1.9-.1-.5-1 2.5-.6 1q-1.9 3.4-4.5 5.7-4.6 4.2-7.2 7.8-1.4 2-2.3 3.8h-1.3l-2.2-.4h-2.5l-2-.4 1.6-1q2.9-1.8 10.5-5.6 2.8-1.4 4.8-6 3-6.7 3-9.2 0-3.8-3-7.9l3.1-2.3 1.3 2.1.3.5 1.1 2.6h.3l.9-.3.7-.2 1.7-.2.4.2.5.8-3 1-.9.4.3.8.3 1.5.2.7v.1l.4 2.1.2 2.1v.8l.4.1.4.3h.1l.3.1q.5.3.3 4.2v.7h-1.6v.6l-.3 1.9v.3l-.1.3.6.2-1 1.8-.7 1.2.6-1.2 1-1.8-.5-.2v-.3l.1-.3zM47.6 29.8l1.1.4-1.5 1.9-.7.9v-2.4zm1.8.6 1.3.4v.5l-.6 2.2v.3l-.3.7v.1l-.1.3-.4.8-.3.3v.1l-.4-.3-.2-.2-.8-.4h-.1l.8-2.2zm8.2 6.6.1.1v.1l-.4.7-.2.2v.1l-.1.2-.8 1-.5.4-.4.5-1.5-1.4.6-.3zm-3.2-.9h.7l-1.6.9-.5.3-.6.4-1.1-.8.5-.3h.4l.7-.2.5-.1zm-8.2 14 .5.1q.5 0 .5-.5l3-1.2q2.6 3.3 2.6 6.1 0 4.6-2.1 8-1.8 2.6-5.9 5.7l-7.9 5.2-1.8 1.4-.7.7-1-.5.9-.7.3-.2q5.4-4 5.4-5.4 0-1-2.1-1.4l2.6-1.7q2.3-1 4.8-1.8l1-1.5.6-1.5.2-.8-.2-.9q.6-1.2.6-2.4 0-3-3-6.3zm18 .4.5 1.2-1.2 1.2-1.5 1.3q0 .4.9.5l.3.2.6 1.2-2.3.4-.1.1-.5-2.1-.2-.8.5-.4.3-.2zm-2.9 15 .1-.6h2l-.2.8h-.3l-.5-.1zm1-5.6-.6-.2-.2-.2-.1-.8h.3l1.6-.5 1.2-.3.1.4.2.4-.7.3-1.1.5zM58.7 50l.7-.3zm-2.5 20.5-1.5-.2H54l-.3.4q-3.5 5.5-6.4 6.2l-.3.1q1.5-2.6 3.8-5l.1-.2q3.8-3.9 5.5-3.9.6 0 .6.6l-.3 1z"/><path fill="#fff" d="m62.9 45.5.1.1zl-.2.2zM50.7 30.9l.1.1-.1.3zm11.1 12.2.2.2h-.5z"/><path fill="#bdb59b" d="m63 45.6.1.3zm1.8 6.4v.5l-.3-.9.1-.2zm-21.5 3.3-1-1.2-.7-.9zm-6.7-6.8h-.1l.6-.9z"/><path fill="#5e3300" d="m63.1 45.9.4 1.1.7 2.6v.2l.4 1.6-.1.2-.5-1.2-.2-.5-.5-.8-.3-.2h-.1l-.7-2.8.1-.1.4-.3.3-.1zm1.6 6.6v.3l.1.1v5.7h-.1l-.2-.4-.1-.4-.6-1.4.2-.4v-.3l-.4-1.6-.3-1.3 1.2-1.2zm0 6.4-.6 2.6-1 3.2h-.5V64l.9-3.4.4-1.8.7-.3zM42.4 31.5l.3-.2 1.8 1-.4.4-.8-.5-1-.6zm2.5-1.2q1.5-.6 2.8-.5l-1.1.8-.2.2-.3.2zm6 .7.8.6 1.1.8 1.3 1.2 1.8 1.6v.1l.3.3.1.1.2.2h-.6l-.6.1H55l-.7.1-3-1.8-1.2-.7.5-2.3zm6.9 6.2 1.1 1.3.2.1.6 1 .6.6 1.6 2.8-.2.1H61L59.4 41 57 38.2l.3-.3zm1.3 6-.2.1H58q-.9-1.3-2-2.2l-.9-.8.4-.5.5-.5q1.5 1.3 2.5 3.1l.1.3.1.2zm-10-7.1.3-.4.4-.8 1.2.5 1.9 1-.7.1-.4.1-.6.3-.6.5-.1-.1zm11.5 13.2-.5-1.6v-.1l.4-.2h.2l.6 1.7z"/><path fill="#958664" d="M64.6 51.4v-.1l.2.8zm.3 7.2v.3zm-1.7 6.2-.3.9-.2.4v.1l-.2.5v-.2l.1-.3v.3-.9h.3zm-1.4-21.7-.2.1zm2.8 15.6v.4zm-1.7 7-.2.5z"/><path fill="#d5d0be" d="m60.3 70.3-.1.8-1 1.2-.7 1h-.1l-.2.3.3-.7zm-25.1 9.8H35v-.2z"/><path fill="#8e7302" d="M58.2 73.6H58l-.8.8 1-2.3.5-1.2h.1l.8.2-1.2 1.8zm-6.6 5.5q-3 1.5-6.6 1.9.7-2.1 2-4.1l.3-.1q3-.7 6.4-6.2l.3-.5.6.2 1.5.1-2 3.6q-2 3.3-2.6 5m-8 2h-2.9q-.7-1.2-2-1.2h-.1q-1.1 0-1.8.5l-1.6-.2v-.2l.1-1.7.1-.6 1-.8v-.2l.4-.2 2 .4H41l2.3.4h1.2q-1 2-1.1 3.8M30 79.4l-5.4-1.7-1.9-.8q.2-1.5 1.4-3 3.3 2.5 4.8 1.8l.7 2.2q.3.6.4 1.5m-10.2-4.7-2-2.7-.3-.6 2.6-3.5q1 1.3 2 2.1-2 2.1-2.4 4.6"/><path fill="#826802" d="m57.3 74.4-3.3 3-1.1.7-1.4 1Q52 77.3 54 74l2-3.6 2.6.4-.4 1.3zM45.1 81h-1.6q.1-1.8 1.1-3.8l2.4-.3q-1.3 2-2 4.1m-4.4 0-1-.2h-.5l-2.4-.5q.6-.5 1.8-.5h.1q1.3 0 2 1.1m-5.5-.8-1.4-.2-.9-.2h-.4l-.4-.1.1-.1q.8-2.2 2.2-3.9l1.6.7.8.1-.4.2v.2l-1 .8v.6l-.2 1.7zm-12.4-3.3q-1.7-1-3-2.2.4-2.6 2.4-4.7 1.1 1 2.3 1.3l-2.4 1 2 1.6q-1.1 1.5-1.3 3m-5.2-5.5v-.2l.6-3.7 1-1.3 1 1.8z"/><path fill="#6d3d01" d="m30.8 79.4-.8-.1q0-.9-.4-1.5l-.7-2.2q-1.4.7-4.8-1.8 1-1.5 2.8-2.9l3.6-2.4q2.6-1.2 5.3-1.2l2 .1Q34 70 32.9 72q-1 1.8.4 3-2.5 2.1-2.5 4.4m-5.6-17.7.4-.2q4.5-2.4 8.8-2.7l1.5-.1-1.2 1.4-2.2.3-6.9 1.2zm14-10.5-.6-.6 1.6-1.3 2-.8 1 .9 1.1 1.1zm5.8-4.4q2 2.1 2 2.7v.1q0 .5-.5.5L46 50q-.9-.5-2.6-2zm5 1.8q-1.4-1.7-3.2-3.3 1.5-1.5 2.3-3.3l2.1 2.1 2.2 2.6q-1.7 1-3.5 1.8M35 62l.3.7.2.1 1.6 1-1.6.3q-3.7.5-6.9 1.8l-3.2 1.5q-2 1.2-3.3 2.5-1-.8-2-2l2.6-2.5q1.8-1.4 4-2.2 2.8-.9 6.3-1z"/><path fill="#402300" d="m35.9 58.7 4.3-.1q-1.6 1.3-3.5 1.5h-2zm8.4.7-.1-1.5-.7-2-.2-.6-1.7-2.1 1 .7 2.8 2.8 1.2 2 .1.5q-.7 1.5-2.5 3-.7.6-7 1.6l-1.7-1-.2-.1-.2-.7 4.4-.4 1-.1 1.6-.2q.9-.2 1.5-.7l.5-.8zm-5.6-8.8-1-1-1.1-1.1.5-.9-.6.8-1-1-1.7-1.9q-2.8-2.8-1.8-3 .6-.2 1.6-.9 5.5 4 8.8 6.9l-2.1.8zM34 41.1l.5-.5 2-2.2.5.3q2.3 1.7 4.8 4.5l3.3 3.6-1.7 1.1-1.4-1.3q-2-1.9-5.2-3.9zm3.4-4 .8-1.2.7-1q5.7 3 10.2 7.1-.9 1.8-2.3 3.3-3.7-4-6.7-6.4zm4-5 .6-.5h.1l1.1.6.8.5.4-.4.3-.2.7-.7h.1l.4-.4.3-.2.2-.2v3.6l-.6-.3-2-.9.2-.3-.2.3z"/><path fill="#512d00" d="m40.2 58.6 2 .2 2 .6v.4l-.6.8q-1.1.5-3.1.9l-1 .1-4.5.4-.4-1.7.1-.2h2q1.9-.2 3.5-1.5m-6.7-17 .5-.5 2.8 1.6q3.3 2 5.2 3.9l1.4 1.3-1.1.6q-3.3-2.9-8.8-6.9m3-3.2 1-1.3 2.6 1.8q3 2.4 6.8 6.4l-1.8 1.5-3.4-3.6q-2.5-2.8-4.7-4.5zm2.5-3.5 1.6-2 .9-.8 2.4.9 2 .9.6.2v.5l1 .5v.1h.1l.8.4.2.2.4.3 1.4 1.2q-.2 2.6-1.2 4.7-4.5-4.1-10.2-7.1m3.7-3.6 2-1 1.3.7-.4.4h-.1l-.7.6-.3.3zm18.4 12H59l-.1-.4-.1-.2-.2-.3q-1-1.8-2.5-3l.8-1 .1-.2 2.4 2.7zM49.6 35l.1-.3.1-.1.3-.7v-.2l1.2.7 3 1.8-1 .2-.5.1-1.9-1zm10.8 12.4 1.7-1.2.7 2.7v.1l-1.7.2-.6-1.7M62.7 64q.3-3.9-.2-4.1l-.2-.2h-.1l.6-.4L64 59l-.4 1.8zm-16-4.9.3 1-.1.7-.7 1.5-1 1.5q-2.5.8-4.9 1.9l-3.1-2q6.3-1 7-1.6 1.8-1.5 2.5-3m16.6-6.4.4 1.3.3 1.6v.3l-.1.4-.2-.4-.7-1.2-.4-.2q-.7-.1-.8-.5z"/><path fill="#874a01" d="m41.6 53.2-2.4-2 5.1-.7q3.1 3.2 3.1 6.3 0 1.2-.6 2.4l-.2-.5-1.2-2-2.9-2.8zm-7.3 22.4.7-.7 1.8-1.4 7.9-5.2q4.1-3 5.9-5.7 2.1-3.4 2.1-8 0-2.8-2.7-6l3.5-1.9q3 4.1 3 8 0 2.4-3 9.1-2 4.6-4.7 6-7.7 3.8-10.5 5.5l-1.6 1.1-.8-.2zm10.3 1.6q.9-1.8 2.3-3.8 2.6-3.6 7.3-7.8 2.5-2.2 4.4-5.7l.5-1 1.1-2.5.1.5.2 2v.3q0 2-.7 6.4l-.1 1.1-.4 1.6-.5 2.5-2.6-.4.5-1 .3-1q0-.6-.6-.6-1.7 0-5.5 4l-.1.1q-2.3 2.4-3.8 5zm-6.9-9.8q2.1.3 2.1 1.4 0 1.4-5.3 5.4l-.3.1-.9.8q-1.4-1.2-.4-3.1 1.1-2 4.9-4.6"/><path fill="#aea286" d="m46.3 30.8-.2.2H46l-.4.4.4-.4z"/><path fill="#5b561e" d="M43.6 60.6q-.6.5-1.5.7l-1.6.2q2-.4 3.1-.9"/><path fill="none" stroke="#333" stroke-linecap="round" stroke-linejoin="round" stroke-width="__RESOLUTION__" d="m62 43.3.3.7.3.8m0 .1.3.6h0l.1.1.1.3.4 1.1.7 2.6v.2l.4 1.6-.1.2-.5-1.2-.2-.5-.5-.8m1.5 3v6.5h.1v.3l-.1.1-.6 2.6-1 3.2-.2.8-.2.5.2-.4m-.2.4-.2.5v-.2l-.2.5h0l-.4.6-1.7 2.7-1.7 2.6-.5.7.3-.2.1-.2.9-.9h-.1 0l-.8 1m-.4.3-.8.8-3.3 3-1.1.7-1.4 1q-2.9 1.6-6.5 2h-4.4l-1-.2h-.5l-2.4-.5-1.6-.2h0l-1.4-.2-.9-.2h-.4l-.4-.1h0l-.7-.1h-.4l-.8-.2-5.4-1.7-1.9-.8q-1.7-1-3-2.2l-1.9-2.7-.3-.6v-.2l.6-3.7 1-1.3q1.1-1.2 3-2.5l3.1-1.9.4-.2q4.5-2.4 8.8-2.7l1.5-.1 4.3-.1 2 .2 2 .6m0 0-.1-1.5-.7-2-.2-.6-1.7-2.1h0l-2.4-2-.6-.6-1-1-1.1-1.1h-.1l-1-1-1.7-2q-2.8-2.8-1.8-3 .6-.2 1.6-.9l.5-.5.5-.5 2-2.2 1-1.3.8-1.2.7-1 1.6-2 .9-.8.6-.5.3-.1.3-.2 2-1q1.6-.6 2.9-.5l1.1.4.6.2 1.4.4v.1l.1.1.8.6 1.1.8 1.3 1.2 1.8 1.6v.1l.3.3m.1.1.2.2h0l1.1 1.1m.1.1 1.1 1.3.2.1.6 1 .6.6 1.6 2.8h0l.2.2h-4l-.6.1m4.7 2.7.1-.1.4-.3.2-.2v.1l.2.3M50.6 31.3l.1-.4m-1 4v-.3l.1-.1.3-.7v-.2l.5-2.3m3.6 4.8h.9l.6-.2h.6m-14.2-4.3h.1l1.1.6.8.5.4-.4h0l.3-.2.7-.7h.1l.4-.4h0l.3-.2.2-.2 1.1-.8m-3.5 3-.2.2m3.7 2.2.8.4.2.2.4.3 1.4 1.2v.1l.8-.5.5-.3h.4l.7-.2m-3.5-.7.4-.8m3.6 1.4 1-.2m1.8 3.2.8-.9.1-.2m-1.8 2.1-1 .8m1-.8.4-.5.5-.5m1.5-2-.4.6-.2.2m-6.5-.7 1 1 .5.4m4.6 5.6 1.3 2.1.3.5 1.1 2.6h.3l.9-.3h0l.7-.2 1.7-.2h0M60 47.7v-.1l.4-.2h.1l1.7-1.3m2.4 5.3.2.6m-5.1 19.1.6-1.2 1-1.8-.5-.2h0v-.3l.1-.3.3-1.9v-.6h1.5v-.7q.3-3.9-.2-4.1l-.2-.2h-.1l-.6-.2-.2-.2-.1-.8-.2-2.1m0 0-.4-2.1h0l-.2-.8-.3-1.5m-.9-2.5-.7.3m4.7 3 1.2-1.3.3 1m-1 3.8.6 1.4.1.4.2.4h.1v.4l-.1-.4-.7.3-1.1.5-.7.4m1.6-3.4-.1-.4-.7-1.2-.4-.2q-.7-.1-.8-.5l1.5-1.3m1.5 5.8v.3m-1.6 5.9h-.5m0 1.7v-.3m-4.2 6.7 1.1-1.8" vector-effect="non-scaling-stroke"/><path fill="#5e3300" d="m38.9 17.4.9-.9 3.8-2.3 9.2-8.8L57 4l-1.5 2q-2.4.4-4 1.8-1.9 2.2-2.9 3L43.3 15l-3 2.7zm8.1 9.1.6.8q.5.7.8 2-1 1.2-1.2 3.2-.5 2.6-2.7 3.5l-5.2.5q-3.5.1-5.6 1.3l-2.3.1-.5-1.7q3.1-.9 4.5-3l2.3-3.9q1.8-2.6 3.3-2.6l2.5.5zm1 10.2-.3 1.4-.6 2.6v.3L45 42.7q-1.7.2-3 .8-1.4.5-2.4 1.3L38 42.6v-1.4l7-3.2zM6.3 40.3Q4.6 40 2.9 43l-.5.7-.5-.4L5 39.1q1.3-1.7 1.3-3.8L5.9 33l-.4-2.7.3-.4q2.8 1.3 5.3 2l-.2.1q-.8.8-.8 1.8 0 1.5 1.2 4.5.8 2 1 4.1l.1 1.8-.2-.2Q9 41.6 6.7 40.5zM40.9 2.1l-.2.3Q36.4 6 34.6 8.6l-3 4.3-2.7 3.7-1.5.2v-.1q3.3-2.6 4.4-4.8L34 8.1l4.1-4.6Q39.6 2.4 41 2m-5.6 15 3.8 4.3-1.7 4.8-.6-1.4v-.3H33l-6.4 4.5-.4-.3.1 1.5-1.5.4-2.9.8-4.9-1.7-1.2-.4-1.3.4-.7-.1-1.8-.6 1-.2.7-.2.3-.1q2.3-.8 3-1.5 4.3-2.9 4.6-4.7l.2-2.4 2-1h.5q-1.3 1.1-1.8 2.8l-.8 3.4q-.4 1.9-1.2 2.8T17 29.5l-.9.3q2.6.6 2.6 1.3l-.2.5 2 .7q3.4 1.3 3.4 3.1v.6q-.4.9-1.4 2v.1l-2.1-3.5.6-.7.3-.6q0-.5-1.2-.9l-1.4-.3H18l-.2.1h.1l1.3.2 1.3 2.2q-.9.6-2.6.6-1.5 0-1.5-1.5 0-.8.4-1.3l.1-.1.4-.2-1.9-.4-.7.7-.1.1-.2.2Q13 34 12.7 35l-.1.9v.6q.4 1.1 2.2 2.2t3.3 1.2q2.6 0 4.4-1.8l.1.2.3.3.5-.2.8-2.3q.7-2.4.7-5v-.7q.2-2.3 1.3-3.7.8-1 3.2-2.4 4.6-2.8 6-7.4M40 29.5l-2 3 1.6 2.2 3.8-1.7v-2.9zm-16.6 8.9 3.9-1.2-.7.8-.9 1q-1.3 2-2.6 2.6l-4.4 1.9q-2.4 1.2-2.8 2.7l-.7-.2-.7-.5-.2-.2h-.2q2-2.7 5-3.5 2.9-.7 3.8-2.4z"/><path fill="#874a01" d="m38.9 17.4 1.4.2.8.1 3.5 6.6.1.1.7.4.6.6 1 1.1-3.5.7-2.5-.5q-1.5 0-3.4 2.6l-2.2 3.9q-1.4 2.1-4.5 3h-.1l-2.7.5-.8.5-4 1.2.8-2.3q.8-2.4.8-5v-.7l1.6-.4.3 2 3.1.9v.1l.1-.1 1.3.4 7-5.6-.8-1.7 1.6-4.8-3.7-4.3zm9.5 12 .1 2.4-.2 3-.3 1.9-3 1.3-7 3.2-.1-1.5.2-.5-.2.1-.1-1.7-3.1.1-1 .1q2.1-1.2 5.5-1.3l5.3-.5q2.2-.9 2.6-3.5.4-2 1.3-3.2M45 42.7l-4.4 3.5-1-1.4q1-.8 2.4-1.3t3-.8M.5 41.3q-.7-1.7-.4-4l1.5-9.7 1.8 1.1-.6.7L2 33q-.6 2.1-1.1 6.2zm9-14.7 5.8-.8.7-1.4 1.2-.9h.2v-.2l.1-.6.3-.3 4.4-4.6h.2l-.5 1.9q-2.8 1.6-2.8 3-.2.5-1.1 1t-1.2 1.5q-.5 1.4-.7 1.5l-1 .4-3.2.9-1 .2h-.1zm5 2.9 1.3-.4 1.2.4-.9.3zm4 2.1 2 .7q3.4 1.3 3.4 3.1v.6q-.4.9-1.4 2v.1l-2.1-3.5.6-.7.3-.6q0-.5-1.2-.9l-1.4-.3H18l-.2.1-.6-.1-1.7-.4h-.2l1-.5 1.5.2zm21 5.9-1.9.1z"/><path fill="#402300" d="m40.3 17.6 3-2.7 5.4-4.2q1-.8 2.8-3 1.6-1.4 4-1.8L45.3 19.6l-.6 4.7h-.1L41 17.7zM11.9 51l-2.5.9-4-.5v-2.5l.2.2 2.5 1.6 3.4-.7h1.4l.2.4-.6.5-.4-.2zM6 46.6l1-2.7-.1-.3 5.3 1.4h.4l1.3.4h.4l.2.2.8.5.6.2q.3-1.5 2.8-2.7l4.4-1.9q1.3-.7 2.6-2.6l.9-1 .7-.8.8-.5 2.6-.5h.2l.6 1.7-.6.1-3.4 2.5-2.1 1.5-4.2 4.2q1.2-.4 3.4-1.9l2.6-2.2-2.8 5-4 1.8-10.2-2.7 1.7 2.5-2.7-.8zm-4-3.4L.5 41.3l.4-2.1q.5-4 1-6.2l.9-3.6.6-.7 2.4 1.1-.3.4.4 2.7-1.5-2.2L5.9 33l.3 2.4q0 2.1-1.2 3.8zM40.7 2.4l-8.2 14 2.9.5q-1.4 4.6-6 7.4-2.4 1.4-3.2 2.4-1.1 1.4-1.3 3.7l-2.9.8-4.9-1.7q2.8-1 3.4-1.8.9-.9 1.3-2.8l.8-3.4q.5-1.7 1.8-2.9.9-.9 2.3-1.6h.2l.5-.2 1.5-.2 2.7-3.7 3-4.3q1.9-2.7 6-6.2M22 19.7l-.1 2.4q-.4 1.8-4.7 4.7-.7.7-3 1.5l-.3.1-.7.2-1 .2-.6-.1q-.4 0-.6-.5l1-.2 3.2-.9 1-.4q.2-.1.7-1.5.3-.9 1.2-1.5t1-1q0-1.4 2.9-3m8-3.3v-.2l-.1.2zl1-.2 1.6.2-1.6-.2zm7 8.2.6 1.4.9 1.7-7.1 5.6-1.3-.4H30l-3.1-1-.4-1.9-.1-1.5.4.3 2.5 1.5h.1l2.6 1.5-.8-2.6 3.5-2 .5-1.6zm-19.6 7.5.5.1h.1l1.3.2 1.3 2.2q-.9.6-2.6.6-1.5 0-1.5-1.5 0-.8.4-1.3l.1-.1zm-3 .6Q13.2 34 12.8 35l-.1.9v.6q.4 1.1 2.2 2.2t3.3 1.2q2.6 0 4.4-1.8l.1.2.3.3.5-.2-.5 1q-1 1.6-4 2.4t-5 3.4L12.5 44v-1.7q-.3-2.2-1.2-4.1-1.1-3-1.1-4.5 0-1 .8-1.8l.2-.1 3.5.7zm6.4 14-.4.4-4.5-.9 4.5.9z"/><path fill="#b7b73c" d="M44.7 24.3h-.1z"/><path fill="#2f1a00" d="M40.6 46.2v.1l-6.1-2.5 3.5-1.2 1.6 2.2zM16 24.4l1.6-3.4h.1l-.2 1.7-.1.6-.2.2zm15.5 13.4 2.1-.1h1l-6 2.8-1.4 1.5.7-1.1-.4-.5 3.4-2.5zm-.4-8.8.8 2.6-2.6-1.6z"/><path fill="#6a3a00" d="m34.5 43.8-1.5.5-3.3 3-1 2.1-.3 1q-.4 1.3-3.2 6.5l-5.6-2.5-2.6-2.5-3.4-.8-.5-.7-.2-.4q4 .3 6.5 2.4 2.8 2.4 4 2.4.5 0 1.6-3.5 1.2-3.7 3-4.6 1.4-.7 3.3-3.6l1-.8 2.3-1q2-.7 3.3-1.6v1.5l.1 1.3zm-7.3-1.7 1.4-1.5 6-2.9 3.1-.1.1 1.7-5.3 1.4q-.7.1-1.4.6-1.3.9-2.9 2.8l-2.9 4q-1.6 2-3.4 2-5.4-1.3-7.2-1.2l-2.7-.2h-.1l-1.7-2.5 10.2 2.7 4-1.8z"/><path fill="#5b561e" d="m13.6 51.1-1.1-.2.6-.5z"/><path fill="#532e00" d="M5.4 49v-.7l.6-1.8 3.3 1.4 2.6.8 1 1.3h-1.5l-3.3.7-2.5-1.6zm1.5-5.4v-.3l-.5-2.6.2-.1q2.3 1.1 5.7 3.4l.1.1 1.7 1.2v.1h-.2l-1.3-.4h-.4zm20.6-3 .4.5-.7 1.1-2.6 2.2q-2.2 1.5-3.5 2l4.3-4.3z"/><path fill="#ad6001" d="m1.6 27.6 8-1 1.2 1.5v.1l-2.6.4-2.7-.3-2.1.4zM17.7 21l.1-.2 4.4-3-4.4 4.6zm4.7-3.3 2.7-.4 4.4-4.4L39.9.3l2.2-.3-1.2 2q-1.4.4-2.7 1.5L34 8.1 31.8 12q-1.2 2.2-4.4 4.8v.1l-.5.1-.2.1q-1.4.7-2.3 1.6H24l-2.1 1.1zm2.7-.5 1.8-.4zM12 28.8l1.8.6.7.1 1.7.3-.4.1-.2.1-2.7.9-.4.1-.2-.1-.2.1-.5.3-.6.5q-2.5-.7-5.3-2l2.5-.7 2.6-.2z"/><path fill="#b16201" d="m40 29.6 3.4.5v3l-3.8 1.6-1.6-2.2zm-3-4.9-1.7 1-.6 1.6-3.6 2-1.7 1-.1.1-2.5-1.5 6.4-4.5H37z"/><path fill="#9e864e" d="M17.7 21v1.4l-.2.3zm-.5 2.5.2-.2v.2z"/><path fill="#965301" d="M10.9 28.2q.2.4.6.5l.6.1-1.2.1-2.7.2-2.4.7-2.4-1.1 2.1-.4 2.7.3zm7.7 3.4-.8-.2-1.6-.2-.9.5h.1l-.7.7-.1.1-3.5-.7.6-.5.5-.3.3-.1.1.1.4-.1 2.8-.9h.1l.3-.2q2.6.6 2.6 1.3z"/><path fill="#969632" d="m29.8 16.4.1-.2v.2z"/><path fill="#80802b" d="M29.9 32.9h.1z"/><path fill="#958664" d="m14.2 45.2.1.1z"/><path fill="#593100" d="m11.9 48.7 2.7.2q1.9 0 7.3 1.2 1.8 0 3.4-2l3-4q1.5-1.9 2.8-2.8.7-.5 1.4-.6l5.4-1.4v.4q-1.4.9-3.4 1.5l-2.1 1.1-1.1.8Q29.4 46 28 46.7q-1.9.9-3.1 4.6-1.1 3.5-1.6 3.5-1.2 0-4-2.4-2.5-2-6.5-2.4z"/><path fill="#d5d0be" d="m37.9 39.3.2-.1-.2.5z"/><path fill="#9b9a33" d="M17.4 23.5h-.2z"/><path fill="none" stroke="#333" stroke-linecap="round" stroke-linejoin="round" stroke-width="__RESOLUTION__" d="M55.6 6 57 4l-4.2 1.4-9.2 8.8-3.8 2.3-.9.9 1.4.2.8.1 3.5 6.6.1.1h0l.6-4.8zM44.7 24.4l.7.4.6.6 1 1.1.6.8q.5.7.8 2l.1 2.5-.2 3-.3 1.9-.3 1.4-.6 2.6v.3L45 42.7l-4.4 3.5v.1m-6.1-2.5-1.5.5-3.3 3-1 2.1-.3 1q-.4 1.3-3.2 6.5l-5.6-2.5-2.6-2.5-3.4-.8-1.1-.2-.6.1-2.5.9-4-.5v-3.1l.6-1.8 1-2.7-.1-.3m0-.3-.5-2.6-.1-.3Q4.6 40 2.9 43l-.5.7-.5-.4-1.4-1.9q-.7-1.7-.4-4l1.5-9.7h0l8-1 5.7-.8.7-1.4 1.6-3.4h.1l.1-.2 4.4-3h.2l2.7-.5 4.4-4.4L39.9.3l2.2-.3-1.2 2-.2.4-8.2 14 2.9.5h0l3.5.5m-7.4 20.5 2.1-.1h1l3.1-.2.1 1.7v.4l.2 1.5v1.3l1.6 2.3 1 1.4M17.7 21l-.2 1.7-.1.6v.2h0m9.5-6.6-1.8.4m4.8-.9 1-.2h0l1.6.2m-2.6 0h-.1M14.4 32.8l.2-.2.1-.1m.6 13.7.6.1 4.5.9.4-.4m.3-.5 4.3-4.2 2.1-1.5 3.4-2.5h.6m6.3-.4 1.8-.1m-1.6 5-3.5 1.3m-30.1-13L5.9 33m.7 7.6-.3-.2" vector-effect="non-scaling-stroke"/></g></defs><g clip-path="url(#a)"><use xlink:href="#b" width="68" height="84.7" transform="translate(1 1)"/></g></svg>