<svg xmlns="http://www.w3.org/2000/svg" xmlns:xlink="http://www.w3.org/1999/xlink" width="173" height="122" viewBox="0 0 173 122"><defs><g id="a"><path fill="#6c6c6c" d="m101.2 51.8 7.1-16-.2-1.1-2.4.2q-1.7.3-4.9 2.4l3-4.8q6-9.5 12.7-18.1 6-7.7 12.8-14.4l-1.2 2.8-.4 1.2-.2.1-2.5 2.6-1.3 1.5-.2.2q-.2 0-.3.5l-.7.8-1.3 1.6q-2.2 2-3.5 4.4-2.2 1.6-3.9 3.4l-.6.8-3.2 4.8q-.6.7-1 1.5l-1.7 3.2q-.5.8-.6 1.5 0 .3.4.4l2.5.6 1.3.1-.4 1.3q-.4 1.3-.5 2.4l-.2.6q-.6 1.6-.9 3l-.4 1-1.3 3-1.7 4.1-.3.6-.9 2.1h-.2v-.4l-.2.1z"/><path fill="#2c2523" d="m101.2 51.8 2.7-2 .2.4v1.6l-.9 1.2-.2.3-.7 1.2-.1.2q-1.5 3-3.7 5.5l-2 2.8-1.1 2-2.2 4-.8 1.8q-.5 1-.6 2.3-.3 3.2-2.2 6.2-1.4 2-3 3.8l-.8 1q-2.7 3.3-4.1 7.5l-1 1.4-1 1q-3.7 6.4-6.7 13.4l-1.5 4-2.4 9q-1.8 5.1-5.3 9.4-2.3 3-4 6.4l-1.9 3.4q-3.6 5-6.2 10.6l-1.6 3.1-6.6 13.3-2.5 4-.4-.2L98.8 51.9V51l1.3-1 2-.5zm-99.4 204-1.2-1.4-.6-.8L32.6 187l.4.1q-1.6 3-2.1 6.3l-.4 1.8q-2.9 6.8-5.2 13.7-1.6 4.4-2.6 9l-1.1 5.5q-1 4.8-4.5 8l-.7.8-3.5 3.6-.3.2-.5.6q-3.5 4-5.6 9.2-2.2 5.1-4.6 10m96.8-204q1.3 1.7 3 2.5l.6.2-.6-.2q-1.7-.8-3-2.5"/><path fill="#b7a07d" d="m103.9 49.8.1-.1.1.4zm2.3 4.6-.1.1h-.1zm-1.4.4h.7zm.7 0 .3-.1.2-.2-.1.2h-.1z"/><path fill="#ccc" d="m104.1 50.2.3-.1.8-2 .3-.7 1.7-4.1 1.3-3 .4-1q.3-1.4.9-3l.3-.6q0-1.1.4-2.4l.3-1.2 3 .4q1.2.1 2.2.5.3.1.4-.1l.8-1.9 1.6-5q-.8 0-1.6 1.3l-.7.8q-1.2 1.4-2.4 1.3h-1.3q.3-2 1.2-3.7l2.3-3.7.6-1 .9-1.6.9-1.3.5-.9q1.8-2.8 3-6.1l-.2-.1-.6.8-2.4 2.8-.6.7-.7.4q1.3-2.4 3.5-4.4l1.3-1.6.7-.8q.1-.5.3-.6l.2-.2 1.3-1.4 2.5-2.6.2-.1q-4.5 10.3-7 21-2.2 9.1-6 18l-.5-3.2-1-3.2-2.5 4.1q-2.8 4.6-5.2 9.4v.1l-1.4 2.4z"/><path fill="#303030" d="m110.9 32-1.3-.1-2.5-.6q-.3-.1-.4-.4 0-.7.6-1.5l1.7-3.2 1-1.6 3.2-4.7.6-.7q1.8-1.9 3.9-3.4l-.7 1.1q-2.5 4.8-4.6 9.7l-.3 1.1-.7 2.9z"/><path fill="#473e38" d="m105.5 50.3.2.1.3.5q1.2 1.3.8 2.6h-.1l-.5.9-.2.1-.2.1-.3.2h-.7l-2.5-.3.8-1.2.1-.3.9-1.2v.8zm.6 4.3-.1.3h-.2l.1-.1z"/><path fill="#817c65" d="M106 54.8q-54 99-98.7 202.3-3.2.6-5.4-1.3 2.4-4.9 4.6-10 2-5.2 5.6-9.2l.5-.6.3-.2 3.5-3.6.7-.8q3.4-3.2 4.4-8l1.2-5.5q1-4.6 2.6-9 2.3-7 5.1-13.7l.5-1.7q.5-3.4 2-6.4l2-4.2-.3-.1 6-12.4.4.2 2.5-4 6.6-13.3 1.5-3.1q2.7-5.5 6.3-10.6l2-3.3q1.6-3.5 3.9-6.5 3.5-4.3 5.3-9.4l2.5-9 1.4-4q3-7 6.8-13.4l.9-1 1-1.5q1.4-4.2 4-7.3l1-1.2q1.5-1.7 2.8-3.7 2-3 2.3-6.2.2-1.2.6-2.3l.8-1.7 2.2-4 1.1-2 2-2.9q2.2-2.5 3.7-5.5l.1-.2 2.5.3z"/><path fill="#632e21" d="m32.6 187 2-4.2.3.1-2 4.2z"/><path fill="#8b8b8b" d="m117.7 15.8.7-.6.6-.6 2.4-2.8.6-.8.3.1q-1.3 3.3-3.1 6.2l-.5.8-.9 1.3-.9 1.6-.6 1-2.3 3.7q-1 1.7-1.2 3.7h1.3q1.2.1 2.4-1.2l.7-1q.8-1.1 1.6-1.2l-1.5 5-.9 1.9q-.2.3-.4.1-1-.4-2.2-.5l-3-.5.6-1.4.7-2.9.3-1.1q2.1-4.9 4.6-9.7z"/><path fill="none" stroke="#333" stroke-linecap="round" stroke-linejoin="round" stroke-width="__RESOLUTION__" d="m127.7 4 .4-1.2 1.3-2.8q-6.9 6.7-12.9 14.4-6.7 8.5-12.7 18.1l-3 4.8q3.2-2.1 4.9-2.4l2.3-.2.3 1.1-7.1 16M127.7 4q-4.5 10.3-7 21-2.2 9.1-6 18l-.5-3.2-1-3.2-2.5 4.1q-2.8 4.6-5.2 9.4" vector-effect="non-scaling-stroke"/><path fill="none" stroke="#522e1b" stroke-linecap="round" stroke-linejoin="round" stroke-width="__RESOLUTION__" d="m105.6 50.2.2.2.3.5q1.2 1.3.8 2.6l-.6.9-.1.1-.1.3h0Q52 153.8 7.3 257.1q-3.2.6-5.4-1.3l-1.2-1.4-.7-.8L32.6 187l2-4.2 6-12.4L98.8 51.9V51l1.3-1 2-.5-.8 2.3m2.9.8 1.4-2.4m-3.2 4.3-.6-.2q-1.7-.8-3-2.5m6.8 3h-.7zl.3-.1.2-.2h0l.2-.1.5-1m-.9 1.4.1-.1.1-.2m-.5.3h.3m-1 0-2.5-.3" vector-effect="non-scaling-stroke"/></g><g id="e"><path fill="#522e1b" d="m55.3.3 2.5 2.8L58 0l2.5 7.6.1-3.6 4.1 8.9.4-4 7.5 17.6-3.9-2 .1 3-6-6.2 4.1 1-1-2.7 3 1.7-.3-3-1.7-1.5-.1 1.9-3-1.6-.4 2.6-.1-.1-3.1-.6-2.1-5.9-.5-1.3-.5-1.6 2 2.1L50.7 1l-.6-.5 5.2-.5zm19.3 27.5 4.9 3.1.7.2-.5.2L107 46.8l-2.6.9 9.9.7-2.8 1.1 8.9.9.2.2-2.5.7 12.4-3-.6 1.6 6.3-4.5.3 2.5 3.5-5.4.8 1.7 3-3 .2 3.4 11.2-7.2q-2.8 4.6 2.5.9l.6-.3-1.8 3 2.7-1.5 2.6-3.1.7-3q1.7 0 3.5 1.1l-.3 1.1-1.6-.4 1 1.6-8.3 5.9-3.5-.4-1.8 4.4-3.4-1.7-3.3 5.4-1-3.1-4.6 5.6-.1-1.9-5.8 3 5.8-3.9 3.4-3-10.3 4-3.9 3.7-.1-3.3-9.5 5.4-2.7-3 4.5 1.1-7.1-3.9h-.8V51v.1l-3.7.6.7-.2h-.6q-2.6 0-4.7 1.3l-.4.5-.2.1-4 2.5q.8-1.8-1.2.8l-4.6-.4-1.4-.8-1.7-.6 1.8 2.4-.4.5-3.2.4-1.1-1.5q.4-.2-.1-.1v.1l-6.4 1.1 4.8-2.4-9.1-1.5.7-.7-1.7.4-.4.1 2.1-3.9.4-.4-.1-.7h4l1-.6-1.2-1.6 2.2-.2-1.9-1.4q.2 2.6-2.3 1.3l-.4-.2v.9l.2.4q.8 1-.5.8l-2.2-.7-1 1.5-.2.5-4.7 2 1-1.9-4.3-.1v-.8l4.8-.4-3.9-1.5-4.4.3 2.4-1.3-4-2.4 3.5-3-6-1.2q-.2-2 .8-3.5l.8-.1-.5-.3 1.4-1.1q1.3.1 1.2-.6 2.8-1.1 7.9-1l-4-2.2zM124.8 72l2.3 9.5.2 7.8-1.7-.5-1.3 1.2-2-2.7-2.4 1.5q-.3.6 0 .4l-2.6 4.9h-.7q0-2-1.2-3.3-1.3-1.4-3-1.4l.1-7.8 1.8.4 1.5-5.3.4 1.1 1.5 3.4 1-4.8 1.2.5.5.4q.8-.4 1.3-1.1l2.2 3.5-.6-5zM1 25l2.4-2.7 2.1-.6-.9-.4.2-.4 6 1.6-1.2-2.2L21 30.6l.2.4.7-.5 4.6 4.6-1-2 7.3 5.7-.7-2.7 8.1 7.3 6.6-2 1.4-.4-4.5 4.6-3-.9q-5.7-1-3.5 1.6l-5.4-3.8 4.8 1-7-1.8-3.1-3.7-.4-.7v-.1l-.3.8q-.2.7-.4.9-1.8.2-3.5-3.6l-3-3.5-.6-1.2v-.1q0 2.5-1.2 1l-9.5-7-2.8 2.7zm60-4 1.1 1.1v2zm31.6 34.5v-.1m6 1.3q2-2.6 1.3-.9l3.8-2.4.6-.2h-.3l.3-.4 5 2.6q1.7 1.5.9-1.7l3.7 3.3-1.3-3.6 3 2.3-2.1-4.6 7.1 3.9-4.5-1.1 2.7 3 .2 1.3-1-.7-.4.3.7 5-3.2-2.8-.2.4q-.3 3.1-2.5-.6l-1.8-1.5-.4 2.4-.4-.7-1.6-3.3-.1-.1-3 2.1-.1-3.7-1.2-.2q-2.3-.1-.4.9l.5.3q1.5 1.5-1.6 1.5l-3.7 4-1.7.5-.3.4q-1.4 3.3-1.7 1.4zM70.4 40.8l-1 2-.1.1q5 .3 2.8-1.4 6.7 2.2 1.7-.2l4.8-.2-2.2-1.3h5.3l-2.2-1.4 2-.7q-2.7-1.6-.8-.9 2.5 1 4.7-.4l-4.3-1.5h1.6l-2.2-.6q-2.4-.8-.4 1.2l-5-.6 2.5 2.1-2.8-.5 2.5 2.8-5.5-1.3.1 1.3-1.5-.3q-.7.1 0 1.8m17.8 6.4 3 2.1-4.8-.9 3.3 2.6-3 1 3.9.9-1.6-.5 4-.4-2.4-1.6L94 48q5.7.5 2.1-1.1l-5.8-.7 3.1 1.7zm-24.1 1.6-4.5.2-1.2-.7 4.5-.7q3.9.8 1.3 1.2m68.7 3.6-.3-.5.8.1zm-14.7 5-.9-.4.5.8-.5-.8zM43.8 45.6l.1.1q1.5 2-.1 0"/><path fill="#432216" d="m50.7 1 8.4 11.3-1.9-2 .5 1.5-2-1.9 2 5.5.5-2.3 2 5.9.8 2 1.1 3.1v-2l1.4.9-.5-1.7 5.9 6.2-.1-3 3.9 2 1.9 1.3-6.7 2.5 4 2.2q-5-.1-7.9 1l-.5-1.4-.4-.6 2.7-1-3.2-2.6q-.5-.6-.4-.7.6-1 1.8-1.6l-5.7-4.3-6-10.3h2.4L51 6.8l2.3.2-5-4.5zm115.4 33.5 1.7 1.6-2-.5zm-1 2.3 2.2 3.8-3.1-1.8-1 3.4-2.5-1.7.6 1.8-2.7-.1-20.2 14.3-1 .1.8.1 2.4.8-3.7 1-4-2-.1 1.8-6.2-2 1.5 2.2-3.4-.2.2 1.9-2.2.8 1.4 2-3 .1 1.5 2.6 1.3-1.2h3.3l1.1 2.2-2.4-1.2-1 3.3-1.2-1.3 1 4.5-1.4 2.8-2.7-3v2.3l-1.4-.2-2.3 3.8-.8-1.9-.3.9-1.5 5.3-1.8-.4-.1 7.8q-1 4.8-2.1 5.5t-2-1-1.2-4.6-.1-3.3l.3-1.2.7.1 1.2 2.4 1.1-1.6-.5-7.9.2-.1.6-3.2 1 1.6.7-3.9h1l1.4-1.2.9-3.3-2.7-1.7-2 3.1-3.2.3 2-3.1 2.1-3 1.4-2-1.6.2.9-1.7q2 3.7 2.4.6l.2-.4 3.2 2.8-.7-5 .4-.3 1 .6-.2-1.2 9.5-5.4.1 3.3 3.8-3.6.3.6.3.6-2.7 1.3 3.3.3 5.8-3 .2 1.9 4.5-5.6 1 3 3.3-5.2 3.4 1.6 1.8-4.4 3.5.4zm-37.7 24.5.9.6-.8.1zM33.2 53l-.2-.2 4.6-1.1-5-1.3-5.1-4 3.4-1.3-4.2-1.8-2-1.5 1.7-.8-5.1-1.8-1.2-1.3 2.1-.9-4.8-2.2-4.5-3.4Q13 28 9 28.5l-.4.6-.7-.4v-2.9l-3.8 2.7-.8 4.3-.5-1.7-1-3.1-1 2.8-.8-4.3L1 25l3.9 2.2 2.7-2.7 9.5 7q-.8.8 2 1l-.1-.7 3 3.5q1.7 3.8 3.5 3.6.2-.2.4-.9l.3-.8.4.8 3.1 3.7 2.2 2.4v-1.6l5.4 3.8q-2.2-2.6 3.5-1.6l3 1 4.5-4.7 1.3-.5-1.5-.4-.5-.1 7.9-1.9.4-.2-1.7-.9 6.9-1.4q-1 1.4-.9 3.5l6.1 1.3-3.5 2.9 4 2.4-2.4 1.3-1.7.6-4.4.7 3 2.2-5.2.8 8.1 1.3-1.8-2.4 3.8.2 1.7-1 4.3.1-1 1.9 4.7-2 .1-.5 1-1.5 2.3.7q1.3.3.5-.8l-.2-.4V46l.4.1q2.5 1.4 2.3-1.2l1.9 1.4-2.2.3 1.2 1.5-1 .6h-4l.1.7-.4.5-2.1 3.8.4-.1 1.7-.5-.7.8 9 1.5-4.7 2.5 6.5-1.1-.1-.2q.5-.1 0 .1l1.2 1.4-2.4.1.4.6.9 1-5.9.4 1.7 2.3-4-.5 2.9 2.2-5.2.8 9.8 1-2.5-2.6 4.2-2.6 2.1.4-1.1-1.6 6.2-1.6-2.2-1.6 4.6.3-3.7 7.1q-.5 1.3-1 1.8l-.1-.7-.3 7.4v.1l-8.1 1.7q.6-.7-7.2-2.6l-13-2.5 4.1-1.2-11.7-.7 6-2-8-1.3 4.1-1.4L47.3 61l4-1.4-8.3-1 5.9-1.5-4.7-2.2 2.5-1.2zM59 34l1.4-.6 2.3.7-1.4 1.1zm8.8 14.6v.1h-.3zm24.4 9.1.5-.5.5.3zm-15-.5-11.1 1.3 2.3 1.2-8.4-.2 4.6 2.5-4.4.9 8.5-.2-3-1.6H70l.7-.2q-.6-.6-1.7-1l5.7-.8zM54.6 49l-4.2-3.4 1.7 3.8-3-2.6-7 2.9.6 1.6 3.8.9.4-2.2 1.9 1.4.8-1.8 3.2 2.2zM107 86l1-1.1zM18.4 30.6v-.1zm25.4 15q1.6 2 .1.1z"/><path fill="#632e21" d="m57.8 11.8.4 1.3-.5 2.3-2-5.5zm5.3 9.5.5 1.7-1.4-.9v-1.7zM68 48.7v.7l-1.7 1-3.8-.1 1.8 2.3-8.1-1.4 5.2-.7-3-2.2 1.2.7 4.5-.2h.1l3.5-.1zm21.2 9.4 3.3-.4.9-.2-.5-.2q1-.5 0-1.3l-.2-.5v-.1l1.4 1 2.2 1.6-6.2 1.6 1.1 1.5-2.1-.3-4.2 2.6 2.5 2.6-9.8-1 5.2-.8-3-2.2 4 .5-1.6-2.3 5.9-.4-.9-1-.4-.6zm44.3-4.2-3.3-.4 2.7-1.2zM116 76.6l.3-.9.8 1.9-.7.1z"/><path fill="#723925" d="m60.3 19 3 .6.2.1.5-2.6 2.9 1.6.1-1.9 1.7 1.5.3 3-3-1.7 1 2.7-4-1-.8-.9-.1 1.7L61 21zm95 18.4 1.5-1.1 5.8-3-.7 3-2.6 3.3-2.7 1.4 1.8-3-.6.3q-5.3 3.7-2.5-.9M64.4 47l4.4-.2 3.9 1.4-4.8.4h-.3l-3.5.2q2.6-.4-1.3-1.2zm28.3 10.3L91 54.9l1.7.6q0 .3.3.5.8.8-.2 1.3m11-3.9.3-.1.3-.1zm.5-.6q2.2-1.2 4.8-1.3h.6l-.7.3 3.7-.7V51v.1h.8l2.2 4.5-3.1-2.2 1.3 3.6-3.7-3.4q.8 3.3-.9 1.8zm28-1.6 10.3-4-3.4 3-5.8 3.8-.7-1.6.6-.4-.8-.1zM70.4 40.8q-.7-1.7 0-1.8l1.5.3V38l5.4 1.3-2.5-2.8 2.8.5-2.5-2.1 5 .6q-2-2 .5-1.2l2 .6h-1.5l4.3 1.5q-2.2 1.4-4.7.5-1.9-.7.8.8l-2 .7 2.3 1.5-5.5-.1 2.3 1.3-4.8.1q5 2.5-1.7.3 2.2 1.6-2.8 1.4l.1-.1zm17.8 6.4 5.3.7-3.1-1.7 5.8.7q3.5 1.6-2.1 1.1l-3.4 2.4L93 52l-4.1.4 1.6.5-3.8-.9 3-1-3.4-2.6 4.8.9zm20.5 4.6-.9.5 1.2-.5zl.4-.3zh.3l-1.2.5zm8.2 25.9 2.3-3.8 1.4.1v-2.2l2.7 3 .6 4.9-2.2-3.5q-.5.7-1.3 1.1l-.5-.3-1.2-.6-1 4.8-1.5-3.4zM18.3 30.5l.1.1.6 1.1v.8q-2.7-.2-1.9-1 1.4 1.5 1.3-1m11.4 11.2 6.9 1.8-4.9-1 .1 1.6z"/><path fill="#28120d" d="m137 58.5-9.5 2.8.1.8-1.2.1-.1.4.9 1.9h-3.3l-1.3 1.2-1.4-2.6 2.9-.1-1.3-2 2.1-.9-.2-1.8 3.4.2-1.4-2.2 6.1 2 .1-1.8zm-29.7 26.3.6-2.7-2 1.4 1.6-4.5-1.5 1 .8-5.2-.4.9.3-1.5 3.8-4 .3-.7.2-.4 2-3.1 2.7 1.7-1 3.3-1.3 1.2h-1l-.7 3.9-1-1.6-.6 3.2-.2.1.5 7.9-1.1 1.6-1.2-2.4zm-18.1-7L77.7 76l1.8 3-8.2-5.9-1.6 2.3-24.8-11.8 2.2-.9-5.6-.6 2.7-.9-11-8.1 13.5.7-2.5 1.2 4.7 2.3-5.9 1.4 8.3 1-4 1.4 12.4 1.4-4.1 1.4 8 1.3-6 2 11.7.8-4.1 1.1 13 2.5q7.8 1.9 7.2 2.6l8.1-1.7v.5l-4.2 4.2zM33 52.8 29 50l3.6.4 5 1.3zm-5.5-6.4-2.7-2 1.9-1.1 4.2 1.8zm-2.8-4.6-3.4-2.6 5 1.8zM20 37.9l-2.7-3.1 4.8 2.2zm-7.2-6.5L8.6 29l.4-.6q4-.4 3.9 2.9m-5-2.6q-1-.6-1.3-.3-1 .6-1.3 2l-1.2-2 3.8-2.7zM2.8 31l-1 4.1-.7-3-.1-.6-.2-.7 1-2.8zm44.8 9-.2-.1L45 39l5.2-2.2 2.1-.2.9-.2h-.6l6.5-2.5 2.3 1.2.5.3-.8.1-6.9 1.4 1.7.9-.4.2zm12.9-6.6-2.2-12.1 5.8 4.3q-1.2.6-1.9 1.6-.1.1.4.7l3.2 2.6-2.7 1 .4.6.5 1.4q0 .8-1.2.6zm-8.2-22.3-3.6-4 1.7-.3-2-4.3 5 4.5-2.3-.2 3.5 4.2zm25.1 46.3-2.6 1.9-5.7.8q1.1.4 1.7 1l-.7.2h-4.2l3 1.5-8.5.3 4.4-.9-4.6-2.5 8.4.2-2.3-1.2zM54.6 49l-1.8 2.8-3.2-2.2-.8 1.8-2-1.4-.4 2.1-3.7-.7-.6-1.7 7-2.9 3 2.6-1.7-3.7zm52.2 25.8-.1-.6z"/><path fill="#b7a07d" d="m107.7 69.4-6.1 5.6 4.7-8.8 3.5.1zm-4.1-2.3L99 76.7 96.3 78zm-9.9 11.5-4.5-.7.1-.7zm13.1-13.4"/><path fill="#a3835c" d="m106.3 66.2.5-1V65h-.1l-1.8-.7-1.3 2.6-7.3 11-2.6.5-4.4-1.4 4.2-4.2v-.5l3.2-2.4h-2.5l4.4-2.7-2.7-.3 3.8-1.7-3.1-1 5.3-1.1q-1.8-1.5 2.6-1.2-1.7-1.5 1.2-1.5l.2-.1 1.2.4-1.8 3.1 1.5 1.2 1.3-3.6 1.4 1.7.3-2.2 2 2.3-2 3z"/><path fill="#473e38" d="M106.8 65.2V65"/><path fill="#83694b" d="m93.5 72.4.3-7.6.1.8q.5-.5 1-1.8.3 1.9 1.7-1.4l.3-.4 1.7-.5 3.7-4q3.2 0 1.6-1.5l-.5-.4q-1.9-1 .4-.9l1.2.3.2 3.7 2.9-2.1-2.4 3.9q-2.9 0-1.2 1.5-4.4-.2-2.7 1.2l-5.2 1.1 3 1L96 67l2.7.3-4.3 2.7h2.4zm19-12.5-.9 1.7 1.6-.2-1.4 2-2-2.2-.3 2.1-1.4-1.7 1.8-1.5.3.7.4-2.4zm-6.6.6.4-.2q1.4-.7.8.6z"/><path fill="none" stroke="#8b755a" stroke-linecap="round" stroke-linejoin="round" stroke-width="__RESOLUTION__" d="M72.7 26.5 65.2 8.9l-.4 4-4-8.9-.2 3.6L58.1 0l-.4 3.1L55.4.3m0-.3-5.2.5.6.5-2.4 1.5 2.1 4.3-1.7.4 3.5 3.8 6 10.3 2.3 12.1-1.4.6-6.5 2.5-2.4.4-5.2 2.2 2.4.8m25.3-13.4 1.9 1.3 4.9 3.1.7.2-.5.2L107 46.8l-2.6.9 9.9.7-2.8 1.1 8.9.9.2.2-2.5.7 12.4-3-.6 1.6 6.3-4.5.3 2.5 3.5-5.4.8 1.7 3-3 .2 3.4 11.2-7.2m1.5-1.1 5.8-3q1.7 0 3.5 1.2l1.7 1.6-2-.5-1.6-.4 1 1.6 2.1 3.8-3.1-1.8-1 3.4-2.5-1.7.6 1.8-2.7-.1-20.2 14.3-.2.3 2.4.7-3.7 1-9.4 2.8.9.6-.8.1-1.2.3m-.1.3.9 1.9 1.1 2.2-2.4-1.2-1 3.3-1.2-1.3 1 4.5 2.4 9.5.2 7.8-1.7-.5-1.3 1.2-2-2.7-2.4 1.5v.4l-2.6 4.9m-.7 0q0-2-1.2-3.3-1.3-1.4-3-1.4-1 4.8-2.1 5.5t-2-1-1.2-4.6-.1-3.3l.3-1.2.5-2.7-2 1.4 1.6-4.5-1.5 1 .8-5.2-.4.9.3-1.5 3.8-4 .3-.7m.2-.4-3.2.3-6.1 5.6M99 76.7 96.3 78l-2.6.5-4.5-.7-11.5-1.9 1.8 3-8.2-5.9-1.6 2.3-24.8-11.8 2.2-.9-5.6-.6 2.7-.9-11-8.1-.2-.2-4-2.8 3.6.4-5.1-4-2.7-2 1.9-1.1-2-1.5-3.4-2.6-1.2-1.3-2.7-3.1-4.5-3.4L8.6 29l-.7-.4q-1-.4-1.3-.2-1 .6-1.3 2l-1.2-2-.8 4.3-.5-1.7-1 4-.7-3-.1-.6-.2-.7-.8-4.3L1 25l2.4-2.7 1.2-1-2.8-1.2 3 .8 6 1.6-1.2-2.2L21 30.6l.1-1.1.8 1 4.6 4.6-1-2 7.3 5.7-.7-2.7 8.1 7.3 6.6-2h-2.5l-1-.4h1.5l2 .5 1.4-.5 1.3-.5-1.5-.4m4.3-3.4.8-.2h-.6zl-2.2.2m48.4 19.8q2-2.6 1.3-.9l3.8-2.4.3-.1.3-.5q2.2-1.2 4.8-1.3h.6l-.7.3 3.7-.7m0 0h.8l7.1 3.9-4.5-1.1 2.7 3 .2 1.3-1-.7-.9-.5.5.8.7 5L115 60l-.2.4q-.3 3.1-2.5-.6l-.8 1.7 1.6-.2-1.4 2-2 3-2.1 3m-18.4 7.8 4.2-4.2v-.5h0l.3-7.6.1.8q.5-.5 1-1.8l3.7-7.1m-3.7 7.1q.3 1.9 1.7-1.4l.3-.4 1.7-.5 3.7-4q3.2 0 1.6-1.5l-.5-.4q-1.9-1 .4-.9l1.2.3.2 3.7 2.9-2.1m.1.1 1.6 3.3.4.7.4-2.4 1.9 1.5m-8.5-6.5.3-.1-.5.2m5.3-1.9-.4.3h.3l-1.2.5.9-.5m-2.1 22.4v.6M108 85l-1 1.1m12.9 3.2q-.3.2 0-.4M93.7 78.6l-4.4-1.4m48.9-20.3-.7-.1 1-.2M21 30.7l.2.3m23.6 10-.5.4M4.7 21.3l.8.4-2.1.6m-2.3 9.8-.1-.6" vector-effect="non-scaling-stroke"/><path fill="none" stroke="#522e1b" stroke-linecap="round" stroke-linejoin="round" stroke-width="__RESOLUTION__" d="M106.8 65.2V65" vector-effect="non-scaling-stroke"/></g><g id="c"><path fill="#000" fill-opacity=".4" d="m65 11.2 1.5 2q5.8 2.5 11.7 4.8 15.8 6 32.3 6.6l-7.3 1.1-.9-.1-.1.2-.3 1.3h-5.8l-1 2.6-2.2.8-3.4-.9-14.3 7-.7 1.5-4.7-.1-.7 2-8.6 4.9-3.7 4.9-1.2-1.8-2.1-.9-.6-4.6-4.2.1-3.4-4.3-1.7.4-8.5-4.7-.3-2-3.3.3-3.6-3-3.3-.2L9.8 23l-4.1 1.5L0 23.2l.4-2.1q4.2.4 8.2-1 11.9-4.2 23.7-8l2-3 4.4.6 1-2.6 2.8-.6L49 0l8.5 8.7z"/><path fill="none" stroke="#8b755a" stroke-linecap="round" stroke-linejoin="round" stroke-width="__RESOLUTION__" d="m91.1 24.9.4.8.3-.8" vector-effect="non-scaling-stroke"/></g><clipPath id="b"><path d="M1 1h171v120H1z"/></clipPath><use xlink:href="#a" id="d" width="129.3" height="257.2"/></defs><g clip-path="url(#b)"><g transform="translate(56.3 94.5)"><use xlink:href="#c" width="110.5" height="49.8" transform="translate(-27.75 -24.25)"/><use xlink:href="#d" width="129.3" height="257.2" transform="matrix(.2581 -.0011 .0011 .2581 27 -42.4)"/><use xlink:href="#d" width="129.3" height="257.2" transform="matrix(-.2565 -.0295 -.0295 .2565 -14.55 -67.6)"/><use xlink:href="#d" width="129.3" height="257.2" transform="rotate(7.05 555.563 594.298)scale(.2583)"/><use xlink:href="#e" width="167.8" height="95.1" transform="translate(-52.35 -93.5)"/></g></g></svg>