<svg xmlns="http://www.w3.org/2000/svg" xmlns:xlink="http://www.w3.org/1999/xlink" width="148" height="49" viewBox="0 0 148 49"><defs><g id="j"><path fill="#f1c52c" d="M15.2 8.1q9.5 2 15.4-8.1l15.7 8.3-.1.2-.3.3q-4.2 5.6-8.5 7l-4.5.3z"/><path fill="#c78e0e" d="m15.2 8.1 17.7 8q-12-3.3-17.2 7.9h-.1L.5 16.2.2 16l.3-.4Q6.7 6.3 15.2 8"/><path fill="#8d5b0a" d="m32.9 16.1 4.5-.3q4.3-1.4 8.5-7v3.8q-3.1 4.1-6.2 6l-1-.6v1l-1.3.6q-2.2.7-4.4.3l-8.6-.3-1.3-.7.1 1.1q-4.7 1.8-7.5 7.7L.5 19.9V16l15.1 8Q21 12.8 33 16"/><path fill="#990" d="M1.2 13.7v-.2l1.4-.8 3.2-.5v.2l-.8.2.9-.1 2.6.8-1.6.4q.7.5 2.8.8l.4 1q-6.1-.6.4 1v.2q-6.6 0-7.4-2.2z"/><path fill="#6b4d07" d="m1.2 13.7 1.9.8q.8 2.2 7.5 2.2l.5 1.2q-1.8.4-2.7 1.2-4.5-2.2-4.8-2.1l-.3-.1-.3-.6-.7-1.4H0zm9.3 2.8q-6.5-1.6-.4-1z"/><path fill="#990" d="M38.7 14.5v-.8l1.7-1.3-1.2.1 1.5-1.2.5-.2h-.4l2.3-.6 1.1.2.1.1-1.1 1q0 1.8-4.5 3.6v-.2q4-2.8 0-.7"/><path fill="#6b4d07" d="M38.7 14.5q4-2.1 0 .8zm0 .9q4.5-1.8 4.5-3.5l1.1-1.1 1.2.6-.3.1-1.3.5-.1 1.2-.1.4-.2.2-2.7 2.7-2.2-.1zm5-2.8-.7.4z"/></g><g id="i"><path fill="#6b4d07" d="M25.4 24.2 27 22q9.5-1.4 18.7-3.6l.4-.1v4.1q-5.6 11-2.2-2.5-5 9.9-7.3 11-2.4 1.3-7.5 1.6l-1.6-8.1zm-9.8 4.5H17l-1 1.4h-.4z"/><path fill="#432605" d="M46.1 18.3h-.4q-9.2 2.3-18.8 3.7l-1.5 2.2-3.3 4.7-5.1-.1-1.4-.1-3.8-.2-2-3.8.3-3.4.1-.8q5.8-5.8 13.5-8.4 2.4-1 5.2-1.5L46 8.5zM15.6 24"/><path fill="#6b4507" d="m25.4 24.2 2.1.2 1.6 8-6.5 4.3q-4.7 3-5.2 2.5l-1.8-1.6v-7.5h.4l1-1.3 5 .1z"/><path fill="#877c02" d="M29.1 32.5q5.1-.3 7.5-1.5 2.3-1.2 7.3-11.1-3.4 13.5 2.2 2.5v5.4L15.6 43.3v-5.7l1.8 1.6q.5.5 5.3-2.5z"/><path fill="#f1c52c" d="m46.1 8.5-17.2 2.1q-2.7.6-5.2 1.5L15 8q9.5 2.1 15.4-8.1l15.7 8.3z"/><path fill="#c78e0e" d="M23.7 12q-7.7 2.7-13.5 8.5v.8L0 16q6.3-9.7 15-7.8z"/><path fill="#432c05" d="m10.1 21.3-.2 3.4 1.8 3.8 3.9.2v14.6h-.2L0 35.3V16.1l.1-.1z"/></g><g id="g"><path fill="#ae710d" d="M21.9 7.9q2.7-1 4.9-3.2l3.7.3-2.1-2 2-3 15.7 8.3-.1.2-.3.3q-3.7 4.9-7.5 6.6z"/><path fill="#8d5b0a" d="M45.7 8.8v3.9q-2.2 2.8-4.3 4.6l-.5-1.7-.2 2.2q-1.8 1.2-3.5 1.8-2.2.8-4.5.4-6.9-2-11.6 1l-1.9-.2.7 1q-2.6 2.1-4.4 6L.3 19.9v-3.8l15.1 8V24q5.3-11.2 17.3-7.8l4.4-.3 1.1-.5q3.8-1.7 7.5-6.6"/><path fill="#c78e0e" d="M.3 16.1 0 16l.3-.4q4.1-6.2 9.3-7.4l3.7 1-1.9-1.3H13l2 .3 17.7 8q-12-3.4-17.3 7.8v.1z"/><path fill="#8c520b" d="m15 8.2 6.6-.2.3-.1 16.4 7.5-1.1.5-4.5.3z"/><path fill="#990" d="m30.6 13 1.3-.8 3.2-.5v.2l-.8.2 1-.1 2.6.8-1.7.5q.7.4 2.8.7l.5 1q-6.2-.6.4 1v.2q-6.6 0-7.4-2.2z"/><path fill="#6b4d07" d="m39.5 15 .4.9q-6.6-1.6-.4-1m.4 1.2.6 1.2q-1.9.4-2.8 1.2L33 16.4l-.4-.1-.2-.6-.8-1.4h-2.3l1.1-1.2h.1l2 .8q.8 2.2 7.4 2.2"/><path fill="#990" d="m.8 13.2.1-.9 1.7-1.2H1.4L2.9 10l.5-.2H3v-.1l2.3-.5 1.1.2h.2l-1.2 1.1q0 1.8-4.6 3.5v-.1q4.1-2.9 0-.7"/><path fill="#6b4d07" d="m6.6 9.5 1 .6h-.3l-1.2.5-.2 1.2v.4l-.2.2L3 15.1.8 15v-1q4.6-1.7 4.6-3.5zM.8 13.9v-.7q4.1-2.2 0 .7m4.3-2.3.7-.4z"/></g><g id="f"><path fill="#432605" d="M46.1 8.5v9.8h-.4Q36.5 20.5 27 22l-1.6 2.1-3.3 4.8-5-.2h-1.5l-3.8-.2-1.9-3.8.3-3.4v-.8Q16 14.6 23.8 12q2.5-.9 5.2-1.4zM15.6 24v.1z"/><path fill="#6b4d07" d="M46.1 18.3v4.1q-7.1 9.2-8.1 4 0 2-.2 3.9-.5 3.2-8.6 2.2l-1.7-8.1-2-.2L27 22q9.5-1.5 18.7-3.7zM15.6 28.6l1.5.1-1.1 1.4h-.4z"/><path fill="#877c02" d="M46.1 22.4v5.3L15.7 43.3v-5.7q.5 3.4 1.5 2.7l8.3-5.4 3.8-2.4q8.1 1 8.6-2.2.3-2 .2-3.9 1 5.2 8.1-4"/><path fill="#432c05" d="M15.6 43.3 0 35.3l.1-.1V16l10 5.3-.2 3.4 1.9 3.8 3.8.1z"/><path fill="#c78e0e" d="M.1 16q6.4-9.7 15-7.9l8.6 3.9q-7.7 2.6-13.4 8.5l-.1.8z"/><path fill="#f1c52c" d="M15.1 8.1q9.5 2 15.5-8.1l15.6 8.3v.1H46l-17.2 2.2q-2.7.5-5.2 1.4z"/><path fill="#6b4507" d="m17 28.7 5 .2 3.4-4.7 2.1.2 1.7 8-3.8 2.5-8.3 5.4q-1 .7-1.5-2.7V30h.4z"/></g><g id="d"><path fill="#f1c52c" d="M15 8.1q9.5 2 15.4-8.1l15.7 8.3-.1.2-.3.3q-4.2 5.6-8.6 7l-4.4.3z"/><path fill="#c78e0e" d="m15 8.1 17.7 8q-12-3.3-17.3 7.9L.3 16.2 0 16l.3-.4Q6.5 6.3 15 8"/><path fill="#8d5b0a" d="m32.7 16.1 4.4-.3q4.4-1.4 8.6-7v3.8q-3.2 4.1-6.2 6l-1-.6v1l-1.3.6q-2.2.7-4.5.3l-8.5-.3-1.3-.7.1 1.1q-4.7 1.8-7.5 7.7L.3 19.9V16l15.1 8q5.3-11.2 17.3-7.9"/><path fill="#990" d="m35.8 15.3.1.2q-6.6 0-7.4-2.2l-2-.8v-.1l.1-.2 1.3-.7 3.2-.5v.2l-.8.2 1-.1 2.5.8-1.6.5 2.8.7.5 1q-6.2-.6.3 1"/><path fill="#6b4d07" d="m35.9 15.5.6 1.2q-1.9.4-2.8 1.2l-4.8-2.1-.2-.1-.4-.6-.7-1.4h-2.3l1.1-1.2h.1l2 .8q.8 2.2 7.4 2.2m-.4-1.1.3.9q-6.5-1.6-.3-1"/></g><g id="b"><path fill="#432605" d="M46.1 8.5v9.8h-.4q-9.2 2.3-18.8 3.7l-1.5 2.2-3.3 4.7-5.1-.1-1.4-.1-3.8-.2-2-3.8.3-3.4.1-.8q5.8-5.8 13.5-8.4 2.4-1 5.2-1.5zM15.6 24v.1z"/><path fill="#6b4d07" d="M46.1 18.3v4.1q-4.1 5.2-8.2 1.4-.1 2.9-2.6 4.6l-6.2 4-1.6-8-2.1-.2L27 22q9.5-1.4 18.7-3.6zM15.6 28.7H17l-1 1.4h-.4z"/><path fill="#877c02" d="M46.1 22.4v5.4L15.6 43.3v-5.7q10.9-9 6.6-3.4-4.2 5.4 3.1.8l3.8-2.5 6.1-4.1q2.6-1.7 2.6-4.6 4.2 3.8 8.3-1.4"/><path fill="#432c05" d="M15.6 43.3h-.2L0 35.3V16.1l.1-.1 10 5.3-.2 3.4 1.8 3.8 3.9.2z"/><path fill="#c78e0e" d="M.1 16q6.3-9.7 15-7.8l8.5 3.9q-7.7 2.6-13.4 8.4v.8z"/><path fill="#f1c52c" d="M15 8.2q9.6 2 15.5-8.2l15.7 8.3-.1.2-17.2 2.1q-2.7.6-5.2 1.5z"/><path fill="#6b4507" d="m17 28.8 5 .1 3.4-4.7 2.1.2 1.6 8-3.8 2.6q-7.4 4.6-3.1-.8 4.3-5.6-6.6 3.4v-7.5h.4z"/></g><clipPath id="a"><path d="M1 1h48v47H1z"/></clipPath><clipPath id="e"><path d="M50 1h48v47H50z"/></clipPath><clipPath id="h"><path d="M99 1h48v47H99z"/></clipPath><path id="c" fill="none" stroke="#4d3926" stroke-linecap="round" stroke-linejoin="round" stroke-width="1" d="m80.3 14.5-.1.3v33.4L77 49.8m-50-8 .1.1v-.1zm11.5 27.6L33.3 72M5.1 63.9 0 61.2l.1-.2V27.9m11.3 39.3L9 66m22 7.3-4.1 2.1-2.5-1.3m47.9-21.8-1.2.6M64.8 56l-5.3 2.8" transform="translate(.5 -13.95)"/></defs><g clip-path="url(#a)"><g transform="translate(27.95 36.95)"><use xlink:href="#b" width="46.1" height="43.4" transform="translate(-26.75 -32.95)"/><use xlink:href="#c" width="81.3" height="62" transform="translate(-26.9 -24.95)scale(.5749)"/><use xlink:href="#d" width="46" height="27.7" transform="translate(-25.4 -35.85)"/></g></g><g clip-path="url(#e)"><g transform="translate(76.95 36.95)"><use xlink:href="#f" width="46.1" height="43.4" transform="translate(-26.8 -33)"/><use xlink:href="#c" width="81.3" height="62" transform="translate(-26.95 -24.95)scale(.5749)"/><use xlink:href="#g" width="46" height="27.8" transform="translate(-25.45 -35.95)"/></g></g><g clip-path="url(#h)"><g transform="translate(125.95 36.95)"><use xlink:href="#i" width="46.1" height="43.4" transform="translate(-26.75 -32.95)"/><use xlink:href="#c" width="81.3" height="62" transform="translate(-26.9 -24.95)scale(.5749)"/><use xlink:href="#j" width="46.3" height="27.7" transform="translate(-25.6 -35.85)"/></g></g></svg>