<svg xmlns="http://www.w3.org/2000/svg" xmlns:xlink="http://www.w3.org/1999/xlink" width="36" height="98" viewBox="0 0 36 98"><defs><clipPath id="a"><path d="M1 1h34v96H1z"/></clipPath><g id="b"><path fill="#bcaf9c" d="m25 4.2.1 1.5Q24 8 23.3 6.6V5.1zm-25 37V29.8l.2-.1L3 31.2l1.7.8 1.8.9v2q-3.9-1-4.6 4.1l-.2 2.9zm3-24.4v-1.4l1.8-.9v1.6q-1 2.2-1.7.7m13.5-6.9V8.5l1.7-.9v1.6q-1 2.2-1.7.7m-5 1.2v1.6q-1.1 2.2-1.8.7V12z"/><path fill="#e9e4de" d="M25.1 5.8v12.7l-.2.3q-.8 1.5-1.6.6V6.5q.7 1.5 1.8-.7M26.5 29v36L.1 78.5V41.1l1.6.8zM3 28.3V16.8q.8 1.5 1.8-.7v12.7l-.1.3q-.8 1.5-1.7.6zm0-12.9-3 1.5v-3L27.4 0v3l-2.2 1.2-1.8.9-5 2.5-1.7.9-5 2.6-1.8.9-5 2.5zm8.5-2.7v12.7q-.8 1.7-1.7 1l-.2-.1v-1.5l.1-11.4q.7 1.5 1.8-.7m4.9 8.7V9.9q.8 1.5 1.9-.7l-.1 11.2v1.5l-.2.3q-.7 1.5-1.6.6z"/><path fill="#f2f0ec" d="m25 17 2.1-1.1 6.1 3.2-8.3 4.3v-4.6l.2-.3zM.2 29.7 3 28.3v2.9zm11.4-5.8 4.9-2.5v6.3l-5 2.6zm-6.7 3.4 5-2.5v1.5l.1.2V31l-3.4 1.8-1.8-.9v-3l.1-.2zm13.3-5.1.2-.3v-1.5l5-2.5v6.3l-5.2 2.7z"/><path fill="#dcd6cd" d="M33.3 19v2.1L29 23.3 6.5 35v-2.1l3.4-1.8 1.7-.8 5-2.6 1.5-.8 5.2-2.7 1.6-.8z"/><path fill="#c0b6a5" d="m29.1 23.3-.5 1.9L2 39q.7-5.2 4.6-4z"/><path fill="#d5cdc1" d="m28.7 25.2-.2 2.9-2 1L1.7 41.9l.2-2.9z"/><path fill="#e3ddd7" d="M26.5 65v6.8L.1 85.3v-6.8z"/><path fill="#ded7cf" d="M26.5 71.8v10.4L0 95.6V85.3z"/><path fill="#c17b4b" d="m0 29.8.2-.1z"/><path fill="#ddd7d0" d="M10 26.5q.8.6 1.6-1.1v4.9l-1.7.8zm-7 4.7v-1.5q.9.9 1.7-.6V32zm15.2-9v4.7l-1.6.8v-4.9q.8.9 1.5-.6m5.2 2v-4.8q.8.9 1.6-.6v4.6z"/><path fill="#e9e4de" d="m24.7 66 .6-27.8.3-6.6.1-1.4.3-.8 1.4-.8v36z"/><path fill="#e3ddd7" d="m24.7 66 2.7-1.4v6.8l-2.8 1.3V66"/><path fill="#ded7cf" d="M27.4 71.4v10.3l-2 1q-.6-5-.8-10z"/></g></defs><g clip-path="url(#a)"><use xlink:href="#b" width="33.3" height="95.6" transform="translate(1 1)"/></g></svg>